<svg width="24" height="24" viewBox="0 0 24 24" fill="none" xmlns="http://www.w3.org/2000/svg"><path d="M5.580 2.028 C 4.635 2.162,3.745 2.797,3.320 3.640 C 3.259 3.761,3.167 3.986,3.115 4.140 L 3.020 4.420 3.009 10.289 C 2.998 16.650,2.990 16.406,3.213 16.958 C 3.564 17.827,4.219 18.426,5.140 18.720 C 5.377 18.796,5.557 18.815,6.320 18.843 C 7.331 18.879,7.635 18.936,8.107 19.174 C 8.515 19.379,8.718 19.553,9.824 20.646 C 10.737 21.548,10.854 21.651,11.125 21.779 C 11.542 21.977,11.955 22.034,12.365 21.950 C 12.938 21.832,13.032 21.764,14.260 20.578 C 15.430 19.448,15.599 19.308,16.023 19.116 C 16.447 18.923,16.744 18.875,17.700 18.841 C 18.442 18.815,18.624 18.796,18.860 18.721 C 19.859 18.404,20.573 17.685,20.886 16.680 L 20.980 16.380 20.980 10.420 L 20.980 4.460 20.886 4.161 C 20.566 3.141,19.815 2.404,18.780 2.094 C 18.554 2.026,18.174 2.022,12.120 2.017 C 8.589 2.014,5.646 2.019,5.580 2.028 M9.103 6.763 C 9.633 6.860,10.180 7.164,10.519 7.548 C 11.143 8.257,11.299 9.328,10.902 10.180 C 10.629 10.767,10.234 11.169,9.292 11.819 C 9.011 12.013,8.657 12.272,8.506 12.394 C 8.249 12.602,7.960 12.926,7.960 13.007 C 7.960 13.027,8.537 13.041,9.281 13.038 C 10.764 13.034,10.728 13.028,10.976 13.334 C 11.088 13.472,11.100 13.515,11.100 13.760 C 11.100 14.004,11.087 14.049,10.978 14.186 C 10.910 14.271,10.775 14.381,10.678 14.431 C 10.500 14.523,10.498 14.523,8.940 14.511 L 7.380 14.500 7.149 14.392 C 6.840 14.247,6.550 13.944,6.439 13.650 C 6.369 13.464,6.355 13.359,6.369 13.098 C 6.408 12.311,7.007 11.555,8.300 10.660 C 8.968 10.197,9.345 9.879,9.476 9.666 C 9.675 9.345,9.659 8.909,9.439 8.605 C 9.063 8.087,8.284 8.092,7.931 8.614 C 7.861 8.719,7.793 8.871,7.780 8.953 C 7.708 9.429,7.672 9.528,7.518 9.682 C 7.249 9.951,6.874 9.983,6.568 9.761 C 6.340 9.596,6.260 9.404,6.270 9.036 C 6.305 7.617,7.691 6.506,9.103 6.763 M15.684 6.761 C 16.096 6.839,16.436 7.089,16.633 7.460 L 16.740 7.660 16.760 9.620 L 16.780 11.580 17.031 11.604 C 17.311 11.631,17.517 11.760,17.656 11.998 C 17.749 12.157,17.756 12.494,17.670 12.661 C 17.540 12.911,17.255 13.080,16.966 13.080 L 16.810 13.080 16.792 13.530 C 16.780 13.833,16.754 14.019,16.711 14.100 C 16.527 14.448,16.118 14.604,15.769 14.458 C 15.411 14.308,15.311 14.117,15.288 13.532 L 15.270 13.084 14.125 13.072 C 12.982 13.060,12.980 13.060,12.754 12.954 C 12.477 12.824,12.238 12.591,12.095 12.311 C 11.947 12.023,11.917 11.551,12.029 11.259 C 12.145 10.954,14.177 7.536,14.442 7.200 C 14.589 7.013,14.948 6.802,15.187 6.762 C 15.461 6.716,15.448 6.716,15.684 6.761 M14.515 9.931 C 14.106 10.618,13.721 11.265,13.661 11.370 L 13.552 11.560 14.416 11.560 L 15.280 11.560 15.280 10.120 C 15.280 9.328,15.275 8.680,15.270 8.681 C 15.264 8.681,14.925 9.243,14.515 9.931 " fill="#292D32" stroke="none" fill-rule="evenodd"></path></svg>