<svg width="24" height="24" viewBox="0 0 24 24" fill="none" xmlns="http://www.w3.org/2000/svg"><path d="M8.387 1.280 C 4.986 1.541,2.112 4.079,1.418 7.434 C 1.295 8.027,1.229 8.905,1.287 9.173 C 1.423 9.809,2.318 9.937,2.634 9.367 C 2.711 9.227,2.733 9.106,2.762 8.669 C 2.825 7.736,3.015 7.007,3.394 6.248 C 3.734 5.568,3.978 5.224,4.518 4.666 C 5.110 4.053,5.707 3.630,6.461 3.291 C 6.839 3.121,7.509 2.896,7.542 2.929 C 7.552 2.939,7.484 3.080,7.391 3.242 C 7.244 3.496,7.220 3.568,7.221 3.763 C 7.222 3.941,7.246 4.025,7.331 4.154 C 7.590 4.544,8.175 4.595,8.484 4.255 C 8.653 4.069,9.681 2.322,9.714 2.164 C 9.784 1.835,9.621 1.476,9.342 1.344 C 9.157 1.256,8.917 1.240,8.387 1.280 M11.580 6.100 C 11.492 6.131,10.547 6.626,9.480 7.199 C 7.391 8.322,7.300 8.383,7.200 8.739 C 7.110 9.062,7.237 9.464,7.490 9.653 C 7.662 9.782,11.237 11.711,11.520 11.827 C 11.817 11.950,12.183 11.950,12.480 11.827 C 12.717 11.730,16.309 9.799,16.488 9.673 C 16.759 9.483,16.895 9.079,16.801 8.745 C 16.700 8.384,16.615 8.326,14.520 7.195 C 13.453 6.619,12.501 6.124,12.404 6.094 C 12.178 6.025,11.786 6.028,11.580 6.100 M6.497 10.716 C 6.302 10.804,6.108 11.028,6.046 11.237 C 6.014 11.341,6.000 11.950,6.000 13.166 C 6.000 15.144,6.009 15.230,6.259 15.621 C 6.335 15.740,6.475 15.894,6.569 15.963 C 6.663 16.032,7.586 16.511,8.619 17.028 L 10.499 17.968 10.768 17.953 C 11.097 17.934,11.324 17.794,11.468 17.521 L 11.563 17.342 11.551 15.381 L 11.540 13.420 11.432 13.191 C 11.212 12.719,11.130 12.666,9.004 11.603 C 7.219 10.710,7.063 10.640,6.869 10.641 C 6.753 10.641,6.588 10.675,6.497 10.716 M15.008 11.596 C 12.881 12.659,12.812 12.703,12.590 13.154 L 12.460 13.418 12.449 15.380 L 12.437 17.342 12.529 17.515 C 12.579 17.610,12.698 17.744,12.792 17.813 C 12.936 17.917,13.010 17.940,13.233 17.953 L 13.501 17.968 15.381 17.028 C 16.414 16.511,17.337 16.032,17.431 15.963 C 17.641 15.810,17.852 15.488,17.938 15.191 C 17.995 14.998,18.002 14.724,17.992 13.092 L 17.980 11.214 17.870 11.047 C 17.704 10.797,17.481 10.666,17.185 10.648 L 16.939 10.632 15.008 11.596 M21.695 14.317 C 21.385 14.458,21.243 14.757,21.241 15.275 C 21.240 15.415,21.212 15.717,21.178 15.946 C 20.887 17.907,19.574 19.698,17.780 20.579 C 17.344 20.793,16.494 21.107,16.454 21.068 C 16.448 21.062,16.516 20.934,16.606 20.785 C 16.855 20.368,16.864 20.041,16.632 19.777 C 16.462 19.583,16.311 19.514,16.055 19.514 C 15.895 19.514,15.792 19.541,15.667 19.614 C 15.518 19.701,15.426 19.832,14.892 20.726 C 14.559 21.284,14.274 21.800,14.259 21.874 C 14.190 22.216,14.456 22.618,14.819 22.720 C 14.978 22.764,15.112 22.765,15.576 22.725 C 18.027 22.515,20.142 21.262,21.490 19.220 C 22.131 18.250,22.590 16.969,22.718 15.792 C 22.804 14.999,22.765 14.698,22.550 14.490 C 22.295 14.243,21.993 14.182,21.695 14.317 " fill="#292D32" stroke="none" fill-rule="evenodd"></path></svg>