<svg width="24" height="24" viewBox="0 0 24 24" fill="none" xmlns="http://www.w3.org/2000/svg"><path d="M7.065 2.366 C 5.570 2.498,4.304 3.064,3.443 3.985 C 2.643 4.841,2.181 5.946,2.039 7.340 C 2.008 7.648,1.999 9.242,2.010 12.640 C 2.027 17.995,2.012 17.667,2.283 18.600 C 2.891 20.696,4.498 21.982,6.879 22.278 C 7.344 22.336,16.656 22.336,17.121 22.278 C 18.564 22.099,19.665 21.587,20.525 20.696 C 21.338 19.852,21.823 18.692,21.958 17.260 C 22.014 16.673,22.015 7.977,21.959 7.391 C 21.676 4.403,19.870 2.623,16.860 2.362 C 16.274 2.312,7.644 2.315,7.065 2.366 M12.476 6.106 C 12.551 6.136,13.483 6.631,14.547 7.205 C 16.663 8.347,16.715 8.383,16.797 8.762 C 16.870 9.106,16.737 9.500,16.487 9.673 C 16.289 9.811,12.629 11.772,12.423 11.851 C 12.115 11.968,11.701 11.934,11.360 11.761 C 10.533 11.343,7.523 9.694,7.433 9.610 C 7.085 9.286,7.083 8.676,7.429 8.338 C 7.490 8.279,8.188 7.881,8.980 7.453 C 11.272 6.215,11.546 6.076,11.750 6.041 C 11.979 6.003,12.291 6.030,12.476 6.106 M9.000 11.600 C 11.092 12.645,11.168 12.694,11.404 13.130 L 11.540 13.380 11.551 15.337 L 11.563 17.293 11.460 17.497 C 11.404 17.608,11.302 17.744,11.234 17.797 C 11.079 17.918,10.790 17.994,10.581 17.969 C 10.366 17.942,6.757 16.136,6.533 15.943 C 6.441 15.864,6.312 15.711,6.246 15.603 C 6.005 15.212,6.000 15.163,6.000 13.183 C 6.000 12.136,6.017 11.321,6.039 11.240 C 6.133 10.903,6.497 10.640,6.869 10.640 C 7.061 10.640,7.227 10.715,9.000 11.600 M17.595 10.772 C 17.685 10.832,17.809 10.956,17.870 11.047 L 17.980 11.214 17.992 13.092 C 18.002 14.726,17.995 14.998,17.938 15.195 C 17.852 15.495,17.667 15.778,17.439 15.955 C 17.337 16.035,16.408 16.521,15.375 17.035 C 13.642 17.897,13.481 17.969,13.287 17.969 C 13.009 17.969,12.739 17.830,12.580 17.604 L 12.460 17.433 12.460 15.407 L 12.460 13.380 12.596 13.130 C 12.832 12.693,12.908 12.645,15.008 11.596 L 16.939 10.632 17.185 10.648 C 17.368 10.659,17.473 10.691,17.595 10.772 " fill="#292D32" stroke="none" fill-rule="evenodd"></path></svg>