<svg width="24" height="24" viewBox="0 0 24 24" fill="none" xmlns="http://www.w3.org/2000/svg"><path d="M11.471 2.100 C 11.345 2.131,11.129 2.215,10.991 2.284 C 10.474 2.545,4.677 5.681,4.521 5.784 C 4.159 6.023,3.939 6.477,3.941 6.980 C 3.942 7.255,3.960 7.338,4.068 7.569 C 4.140 7.722,4.271 7.912,4.372 8.009 C 4.504 8.138,5.338 8.606,7.736 9.900 C 9.489 10.846,11.053 11.674,11.211 11.739 C 11.479 11.849,11.536 11.858,12.000 11.857 C 12.431 11.857,12.533 11.844,12.739 11.762 C 13.071 11.631,19.370 8.231,19.559 8.081 C 19.897 7.813,20.112 7.279,20.065 6.824 C 20.020 6.395,19.774 5.974,19.447 5.765 C 19.044 5.507,12.849 2.194,12.661 2.135 C 12.377 2.046,11.754 2.028,11.471 2.100 M3.025 9.785 C 2.516 9.942,2.151 10.344,2.038 10.873 C 2.011 10.998,2.001 12.127,2.009 14.102 C 2.021 16.914,2.027 17.156,2.095 17.360 C 2.232 17.773,2.448 18.129,2.739 18.422 L 3.020 18.704 6.120 20.269 C 7.825 21.129,9.327 21.864,9.457 21.902 C 10.222 22.122,11.020 21.674,11.223 20.911 C 11.307 20.593,11.305 14.906,11.220 14.500 C 11.126 14.048,10.876 13.592,10.540 13.256 L 10.252 12.968 7.116 11.398 C 5.391 10.535,3.890 9.804,3.780 9.775 C 3.525 9.706,3.272 9.710,3.025 9.785 M20.180 9.776 C 19.850 9.882,13.940 12.870,13.691 13.058 C 13.230 13.405,12.856 14.027,12.762 14.602 C 12.736 14.765,12.720 15.941,12.720 17.786 C 12.720 20.603,12.723 20.721,12.800 20.966 C 13.038 21.720,13.796 22.120,14.563 21.897 C 14.834 21.817,20.751 18.839,21.010 18.651 C 21.394 18.373,21.731 17.887,21.905 17.360 C 21.973 17.156,21.979 16.912,21.991 14.080 C 22.004 11.300,21.999 10.997,21.937 10.766 C 21.874 10.530,21.685 10.220,21.523 10.088 C 21.124 9.763,20.602 9.642,20.180 9.776 " fill="#292D32" stroke="none" fill-rule="evenodd"></path></svg>