<svg width="24" height="24" viewBox="0 0 24 24" fill="none" xmlns="http://www.w3.org/2000/svg"><path d="M6.960 2.046 C 6.236 2.116,5.358 2.357,4.796 2.641 C 4.426 2.828,3.928 3.183,3.624 3.475 C 2.737 4.332,2.251 5.370,2.062 6.812 C 1.970 7.515,1.969 16.481,2.061 17.188 C 2.239 18.550,2.681 19.544,3.476 20.372 C 4.162 21.084,4.935 21.524,5.956 21.780 C 6.817 21.997,6.896 22.000,11.993 22.000 C 14.960 22.000,16.828 21.985,17.041 21.959 C 19.985 21.603,21.695 19.840,21.962 16.885 C 21.990 16.579,21.999 14.787,21.989 11.660 C 21.974 7.001,21.972 6.891,21.889 6.456 C 21.642 5.171,21.165 4.235,20.369 3.478 C 19.583 2.729,18.652 2.295,17.359 2.076 C 16.995 2.014,7.572 1.987,6.960 2.046 M17.073 8.879 C 17.307 9.049,17.413 9.274,17.392 9.559 C 17.381 9.715,17.346 9.828,17.279 9.923 C 16.937 10.406,14.826 13.085,14.699 13.196 C 14.613 13.271,14.426 13.388,14.282 13.456 C 14.036 13.572,13.992 13.580,13.560 13.580 C 13.158 13.580,13.073 13.568,12.884 13.482 C 12.762 13.428,12.209 13.026,11.627 12.570 C 10.725 11.863,10.572 11.757,10.465 11.768 C 10.355 11.779,10.215 11.945,9.095 13.400 C 8.306 14.424,7.792 15.057,7.698 15.119 C 7.492 15.256,7.163 15.258,6.947 15.124 C 6.657 14.945,6.513 14.602,6.597 14.289 C 6.650 14.096,8.952 11.066,9.300 10.734 C 9.831 10.226,10.604 10.110,11.260 10.440 C 11.392 10.506,11.932 10.902,12.460 11.320 C 12.988 11.739,13.459 12.091,13.507 12.104 C 13.555 12.117,13.624 12.111,13.660 12.090 C 13.697 12.070,14.270 11.353,14.933 10.498 C 15.597 9.643,16.201 8.902,16.276 8.851 C 16.381 8.781,16.468 8.760,16.660 8.760 C 16.872 8.760,16.932 8.777,17.073 8.879 " fill="#292D32" stroke="none" fill-rule="evenodd"></path></svg>