<svg width="24" height="24" viewBox="0 0 24 24" fill="none" xmlns="http://www.w3.org/2000/svg"><path d="M6.960 2.046 C 6.236 2.116,5.358 2.357,4.796 2.641 C 4.426 2.828,3.928 3.183,3.624 3.475 C 2.737 4.332,2.251 5.370,2.062 6.812 C 1.970 7.515,1.969 16.481,2.061 17.188 C 2.239 18.550,2.681 19.544,3.476 20.372 C 4.162 21.084,4.935 21.524,5.956 21.780 C 6.817 21.997,6.896 22.000,11.993 22.000 C 14.960 22.000,16.828 21.985,17.041 21.959 C 19.985 21.603,21.695 19.840,21.962 16.885 C 21.990 16.579,21.999 14.787,21.989 11.660 C 21.974 7.001,21.972 6.891,21.889 6.456 C 21.642 5.171,21.165 4.235,20.369 3.478 C 19.583 2.729,18.652 2.295,17.359 2.076 C 16.995 2.014,7.572 1.987,6.960 2.046 M12.352 7.349 C 12.517 7.426,12.659 7.610,12.716 7.820 C 12.744 7.923,12.760 8.556,12.760 9.610 L 12.760 11.240 14.382 11.240 C 15.479 11.240,16.064 11.255,16.189 11.286 C 16.577 11.384,16.814 11.790,16.714 12.186 C 16.656 12.416,16.428 12.657,16.213 12.717 C 16.117 12.744,15.449 12.760,14.412 12.760 L 12.763 12.760 12.752 14.470 C 12.740 16.115,12.737 16.186,12.656 16.340 C 12.610 16.428,12.497 16.554,12.404 16.619 C 12.263 16.719,12.196 16.739,12.000 16.739 C 11.804 16.739,11.737 16.719,11.596 16.619 C 11.503 16.554,11.390 16.428,11.344 16.340 C 11.263 16.186,11.260 16.115,11.248 14.470 L 11.237 12.760 9.588 12.760 C 8.551 12.760,7.883 12.744,7.787 12.717 C 7.572 12.657,7.344 12.416,7.286 12.186 C 7.186 11.790,7.423 11.384,7.811 11.286 C 7.936 11.255,8.521 11.240,9.618 11.240 L 11.240 11.240 11.240 9.618 C 11.240 7.797,11.250 7.710,11.481 7.479 C 11.716 7.244,12.031 7.197,12.352 7.349 " fill="#292D32" stroke="none" fill-rule="evenodd"></path></svg>