<svg width="24" height="24" viewBox="0 0 24 24" fill="none" xmlns="http://www.w3.org/2000/svg"><path d="M11.120 2.039 C 8.192 2.332,5.648 3.774,3.923 6.119 C 2.041 8.678,1.501 12.071,2.496 15.094 C 3.849 19.205,7.695 22.000,12.000 22.000 C 17.491 22.000,22.000 17.491,22.000 12.000 C 22.000 7.433,18.865 3.424,14.417 2.302 C 13.472 2.064,12.026 1.949,11.120 2.039 M12.352 7.349 C 12.517 7.426,12.659 7.610,12.716 7.820 C 12.744 7.923,12.760 8.556,12.760 9.610 L 12.760 11.240 14.382 11.240 C 15.479 11.240,16.064 11.255,16.189 11.286 C 16.577 11.384,16.814 11.790,16.714 12.186 C 16.656 12.416,16.428 12.657,16.213 12.717 C 16.117 12.744,15.449 12.760,14.412 12.760 L 12.763 12.760 12.752 14.470 C 12.740 16.115,12.737 16.186,12.656 16.340 C 12.610 16.428,12.497 16.554,12.404 16.619 C 12.263 16.719,12.196 16.739,12.000 16.739 C 11.804 16.739,11.737 16.719,11.596 16.619 C 11.503 16.554,11.390 16.428,11.344 16.340 C 11.263 16.186,11.260 16.115,11.248 14.470 L 11.237 12.760 9.588 12.760 C 8.551 12.760,7.883 12.744,7.787 12.717 C 7.572 12.657,7.344 12.416,7.286 12.186 C 7.186 11.790,7.423 11.384,7.811 11.286 C 7.936 11.255,8.521 11.240,9.618 11.240 L 11.240 11.240 11.240 9.618 C 11.240 7.797,11.250 7.710,11.481 7.479 C 11.716 7.244,12.031 7.197,12.352 7.349 " fill="#292D32" stroke="none" fill-rule="evenodd"></path></svg>