<svg width="24" height="24" viewBox="0 0 24 24" fill="none" xmlns="http://www.w3.org/2000/svg"><path d="M4.740 2.044 C 3.324 2.212,2.493 2.907,2.128 4.228 L 2.020 4.620 2.020 9.000 L 2.020 13.380 2.128 13.772 C 2.451 14.941,3.065 15.555,4.228 15.870 L 4.620 15.976 6.967 15.991 L 9.315 16.005 9.329 13.313 C 9.345 10.424,9.346 10.413,9.565 9.666 C 9.920 8.457,10.778 7.537,11.968 7.091 C 12.340 6.951,12.967 6.802,13.187 6.801 C 13.450 6.799,13.440 6.831,13.440 5.946 C 13.440 5.027,13.394 4.565,13.253 4.081 C 13.104 3.567,12.909 3.226,12.562 2.876 C 12.094 2.403,11.476 2.136,10.631 2.039 C 10.229 1.992,5.134 1.997,4.740 2.044 M13.320 8.043 C 12.860 8.101,12.509 8.202,12.120 8.389 C 11.810 8.537,11.684 8.628,11.436 8.876 C 10.927 9.385,10.680 10.008,10.601 10.989 C 10.547 11.653,10.547 18.347,10.601 19.011 C 10.680 19.992,10.927 20.615,11.436 21.124 C 11.908 21.597,12.497 21.853,13.359 21.958 C 13.793 22.012,18.738 22.013,19.200 21.960 C 20.869 21.769,21.769 20.869,21.960 19.200 C 22.012 18.749,22.012 11.251,21.960 10.800 C 21.769 9.131,20.869 8.231,19.200 8.040 C 18.792 7.993,13.694 7.996,13.320 8.043 M16.837 12.714 C 16.913 12.750,17.030 12.849,17.097 12.934 C 17.220 13.087,17.220 13.089,17.233 13.664 L 17.246 14.240 17.753 14.241 C 18.303 14.242,18.490 14.292,18.668 14.485 C 19.023 14.871,18.901 15.463,18.420 15.684 C 18.292 15.744,18.160 15.758,17.753 15.759 L 17.246 15.760 17.233 16.336 C 17.220 16.911,17.220 16.913,17.097 17.066 C 16.774 17.472,16.226 17.472,15.903 17.066 C 15.780 16.913,15.780 16.911,15.767 16.336 L 15.754 15.760 15.247 15.759 C 14.697 15.758,14.510 15.708,14.332 15.515 C 13.977 15.129,14.099 14.537,14.580 14.316 C 14.709 14.256,14.840 14.242,15.250 14.241 L 15.760 14.240 15.760 13.716 C 15.760 13.143,15.793 13.018,15.997 12.823 C 16.134 12.692,16.416 12.597,16.580 12.626 C 16.646 12.638,16.762 12.677,16.837 12.714 " fill="#292D32" stroke="none" fill-rule="evenodd"></path></svg>