<svg width="24" height="24" viewBox="0 0 24 24" fill="none" xmlns="http://www.w3.org/2000/svg"><path d="M11.360 1.280 C 8.527 1.470,5.911 2.928,4.256 5.240 C 3.384 6.457,2.831 7.805,2.574 9.340 C 2.469 9.967,2.469 11.591,2.574 12.220 C 2.906 14.210,3.788 15.991,5.133 17.388 C 5.553 17.824,5.766 17.961,6.023 17.959 C 6.201 17.958,6.467 17.849,6.568 17.734 C 6.671 17.618,6.760 17.380,6.760 17.220 C 6.760 16.974,6.658 16.815,6.172 16.307 C 5.362 15.460,4.884 14.703,4.462 13.600 C 3.952 12.270,3.828 10.650,4.123 9.189 C 4.355 8.039,4.975 6.713,5.706 5.803 C 5.963 5.483,6.613 4.829,6.940 4.560 C 8.104 3.606,9.636 2.969,11.168 2.802 C 13.234 2.577,15.439 3.234,17.056 4.557 C 19.490 6.548,20.558 9.739,19.798 12.755 C 19.449 14.140,18.808 15.289,17.796 16.342 C 17.577 16.570,17.371 16.821,17.338 16.898 C 17.127 17.403,17.473 17.920,18.023 17.920 C 18.301 17.920,18.438 17.833,18.888 17.366 C 20.241 15.965,21.091 14.255,21.426 12.260 C 21.531 11.636,21.532 9.973,21.428 9.340 C 21.326 8.722,21.106 7.900,20.902 7.379 C 19.369 3.457,15.528 1.002,11.360 1.280 M11.420 4.588 C 11.056 4.620,10.376 4.771,9.995 4.904 C 8.666 5.366,7.599 6.192,6.818 7.362 C 5.425 9.447,5.433 12.166,6.840 14.268 C 7.165 14.755,7.562 15.181,7.746 15.242 C 8.118 15.365,8.532 15.198,8.683 14.865 C 8.829 14.544,8.753 14.255,8.428 13.889 C 7.993 13.399,7.601 12.661,7.415 11.980 C 7.314 11.612,7.305 11.519,7.303 10.820 C 7.300 10.145,7.311 10.020,7.394 9.700 C 8.082 7.069,10.658 5.536,13.240 6.221 C 13.699 6.343,14.480 6.720,14.841 6.995 C 15.208 7.273,15.725 7.823,15.963 8.188 C 17.128 9.973,16.993 12.203,15.620 13.859 C 15.403 14.120,15.313 14.264,15.286 14.390 C 15.154 15.008,15.771 15.476,16.348 15.196 C 16.556 15.095,16.873 14.734,17.229 14.191 C 17.676 13.511,17.979 12.754,18.148 11.900 C 18.257 11.348,18.247 10.206,18.128 9.611 C 17.866 8.304,17.239 7.172,16.273 6.262 C 14.975 5.040,13.203 4.429,11.420 4.588 M11.600 8.627 C 11.167 8.696,10.570 9.048,10.295 9.396 C 9.573 10.309,9.640 11.529,10.456 12.344 C 11.022 12.909,11.771 13.117,12.537 12.921 C 12.965 12.811,13.214 12.668,13.541 12.341 C 13.868 12.014,14.011 11.765,14.121 11.337 C 14.221 10.945,14.221 10.655,14.121 10.263 C 14.012 9.836,13.869 9.588,13.541 9.256 C 13.234 8.946,12.840 8.725,12.448 8.644 C 12.245 8.602,11.812 8.593,11.600 8.627 M11.531 15.900 C 11.245 15.963,10.949 16.103,10.670 16.307 C 10.459 16.462,8.922 18.333,8.692 18.717 C 8.412 19.180,8.320 19.835,8.459 20.360 C 8.671 21.154,9.315 21.775,10.100 21.940 C 10.501 22.024,13.495 22.025,13.891 21.941 C 14.451 21.823,14.929 21.498,15.235 21.028 C 15.470 20.667,15.569 20.367,15.591 19.945 C 15.632 19.190,15.511 18.939,14.499 17.678 C 13.416 16.328,13.271 16.188,12.764 15.997 C 12.338 15.837,11.959 15.807,11.531 15.900 " fill="#292D32" stroke="none" fill-rule="evenodd"></path></svg>