<svg width="24" height="24" viewBox="0 0 24 24" fill="none" xmlns="http://www.w3.org/2000/svg"><path d="M6.960 2.046 C 6.236 2.116,5.358 2.357,4.796 2.641 C 4.426 2.828,3.928 3.183,3.624 3.475 C 2.737 4.332,2.251 5.370,2.062 6.812 C 1.970 7.515,1.969 16.481,2.061 17.188 C 2.239 18.550,2.681 19.544,3.476 20.372 C 4.162 21.084,4.935 21.524,5.956 21.780 C 6.817 21.997,6.896 22.000,11.993 22.000 C 14.960 22.000,16.828 21.985,17.041 21.959 C 19.985 21.603,21.695 19.840,21.962 16.885 C 21.990 16.579,21.999 14.787,21.989 11.660 C 21.974 7.001,21.972 6.891,21.889 6.456 C 21.642 5.171,21.165 4.235,20.369 3.478 C 19.583 2.729,18.652 2.295,17.359 2.076 C 16.995 2.014,7.572 1.987,6.960 2.046 M12.410 5.045 C 12.646 5.165,13.035 5.574,13.186 5.861 C 13.426 6.316,13.440 6.416,13.441 7.717 C 13.442 8.774,13.449 8.917,13.515 9.060 C 13.555 9.148,13.613 9.240,13.644 9.265 C 13.675 9.290,14.636 9.712,15.780 10.204 C 17.765 11.057,17.869 11.107,18.062 11.299 C 18.174 11.409,18.318 11.608,18.382 11.740 C 18.500 11.979,18.500 11.982,18.500 12.720 C 18.500 13.431,18.496 13.466,18.404 13.614 C 18.273 13.825,18.105 13.920,17.860 13.920 C 17.689 13.920,17.405 13.810,15.880 13.154 C 14.895 12.731,14.029 12.381,13.940 12.372 C 13.720 12.349,13.539 12.466,13.483 12.668 C 13.423 12.883,13.427 14.725,13.487 14.935 C 13.526 15.070,13.698 15.265,14.443 16.020 C 14.942 16.526,15.380 16.998,15.416 17.068 C 15.524 17.283,15.495 17.534,15.294 18.140 C 15.133 18.625,15.086 18.722,14.943 18.866 C 14.755 19.056,14.507 19.122,14.273 19.044 C 14.200 19.020,13.753 18.672,13.279 18.270 C 12.805 17.869,12.368 17.518,12.307 17.490 C 12.157 17.422,11.822 17.427,11.684 17.498 C 11.622 17.530,11.186 17.881,10.716 18.278 C 10.245 18.675,9.800 19.019,9.727 19.044 C 9.493 19.122,9.245 19.056,9.057 18.866 C 8.914 18.722,8.867 18.625,8.706 18.140 C 8.516 17.568,8.481 17.310,8.562 17.093 C 8.585 17.031,9.034 16.548,9.558 16.020 C 10.704 14.867,10.613 15.074,10.593 13.660 C 10.582 12.855,10.569 12.680,10.513 12.578 C 10.438 12.441,10.293 12.360,10.122 12.360 C 10.059 12.360,9.183 12.713,8.177 13.144 C 6.383 13.913,6.342 13.928,6.113 13.912 C 5.924 13.898,5.857 13.873,5.761 13.781 C 5.546 13.575,5.511 13.411,5.527 12.655 C 5.539 12.022,5.547 11.966,5.646 11.753 C 5.767 11.497,6.035 11.185,6.218 11.091 C 6.285 11.056,7.231 10.643,8.320 10.173 C 9.753 9.554,10.333 9.285,10.420 9.198 L 10.540 9.079 10.563 7.769 C 10.584 6.563,10.593 6.442,10.672 6.227 C 10.893 5.628,11.339 5.137,11.840 4.945 C 11.945 4.905,12.234 4.956,12.410 5.045 " fill="#292D32" stroke="none" fill-rule="evenodd"></path></svg>