<svg width="24" height="24" viewBox="0 0 24 24" fill="none" xmlns="http://www.w3.org/2000/svg"><path d="M6.560 2.025 C 5.832 2.133,5.478 2.237,4.982 2.486 C 3.840 3.060,2.980 4.117,2.651 5.352 C 2.561 5.692,2.546 5.841,2.530 6.553 C 2.514 7.248,2.521 7.392,2.579 7.542 C 2.664 7.767,2.977 8.052,3.208 8.116 C 3.331 8.151,3.794 8.161,4.840 8.152 L 6.300 8.140 6.486 8.030 C 6.615 7.955,6.741 7.824,6.893 7.606 C 7.173 7.206,7.456 6.958,7.860 6.756 C 8.422 6.476,8.440 6.475,12.067 6.489 C 15.225 6.502,15.263 6.503,15.575 6.591 C 15.974 6.703,16.415 6.914,16.666 7.113 C 16.773 7.198,16.959 7.403,17.080 7.568 C 17.311 7.884,17.489 8.037,17.716 8.114 C 17.922 8.184,20.650 8.174,20.850 8.103 C 21.080 8.021,21.250 7.871,21.381 7.635 L 21.500 7.420 21.498 6.740 C 21.495 5.988,21.447 5.635,21.275 5.106 C 20.841 3.774,19.766 2.685,18.449 2.243 C 17.761 2.012,18.142 2.026,12.160 2.017 C 9.135 2.013,6.615 2.016,6.560 2.025 M3.167 9.730 C 2.960 9.797,2.656 10.095,2.573 10.311 C 2.504 10.489,2.500 10.717,2.500 14.220 C 2.500 18.249,2.497 18.195,2.722 18.886 C 2.939 19.551,3.258 20.088,3.735 20.590 C 4.421 21.313,5.269 21.766,6.258 21.939 C 6.789 22.031,17.211 22.031,17.742 21.939 C 19.171 21.689,20.375 20.803,21.017 19.526 C 21.196 19.170,21.371 18.645,21.445 18.240 C 21.489 18.000,21.500 17.200,21.500 14.220 C 21.500 10.717,21.496 10.489,21.427 10.311 C 21.335 10.073,21.029 9.790,20.792 9.724 C 20.669 9.689,20.205 9.679,19.157 9.688 L 17.694 9.700 17.500 9.820 C 17.379 9.895,17.247 10.029,17.145 10.180 C 16.879 10.575,16.529 10.892,16.153 11.078 C 15.572 11.366,15.580 11.365,11.832 11.350 C 8.813 11.337,8.520 11.330,8.300 11.264 C 7.731 11.095,7.213 10.717,6.885 10.232 C 6.781 10.078,6.629 9.918,6.509 9.837 L 6.309 9.700 4.805 9.693 C 3.811 9.689,3.255 9.701,3.167 9.730 " fill="#292D32" stroke="none" fill-rule="evenodd"></path></svg>