<svg width="24" height="24" viewBox="0 0 24 24" fill="none" xmlns="http://www.w3.org/2000/svg"><path d="M11.652 2.056 C 11.087 2.240,10.419 2.999,10.110 3.805 L 9.981 4.140 9.961 6.000 C 9.939 7.947,9.940 7.936,9.754 8.105 C 9.702 8.151,8.391 8.734,6.840 9.399 C 5.289 10.064,3.931 10.654,3.821 10.710 C 3.407 10.919,2.996 11.464,2.861 11.982 C 2.774 12.318,2.774 13.779,2.862 14.075 C 2.935 14.319,3.157 14.586,3.356 14.669 C 3.530 14.742,3.893 14.741,4.101 14.667 C 4.190 14.636,5.416 14.113,6.826 13.505 C 8.236 12.897,9.438 12.400,9.497 12.400 C 9.663 12.400,9.823 12.503,9.896 12.658 C 9.956 12.784,9.962 12.973,9.952 14.450 C 9.940 16.095,9.940 16.101,9.846 16.280 C 9.786 16.394,9.287 16.928,8.482 17.740 C 7.363 18.868,7.204 19.043,7.146 19.217 C 7.027 19.574,7.055 19.789,7.334 20.621 C 7.473 21.039,7.616 21.434,7.650 21.500 C 7.728 21.650,7.897 21.808,8.080 21.904 C 8.257 21.997,8.730 22.006,8.886 21.919 C 8.945 21.887,9.517 21.419,10.157 20.880 C 10.797 20.341,11.412 19.851,11.525 19.790 C 11.778 19.654,12.166 19.639,12.420 19.755 C 12.508 19.796,13.138 20.299,13.820 20.873 C 14.949 21.824,15.079 21.922,15.270 21.965 C 15.681 22.058,16.145 21.858,16.350 21.498 C 16.428 21.361,16.867 20.051,16.936 19.753 C 16.964 19.627,16.896 19.273,16.811 19.100 C 16.778 19.034,16.188 18.413,15.500 17.720 C 14.700 16.915,14.214 16.395,14.154 16.280 C 14.060 16.101,14.060 16.093,14.048 14.453 C 14.039 13.078,14.046 12.782,14.095 12.665 C 14.170 12.486,14.360 12.383,14.556 12.415 C 14.635 12.427,15.789 12.908,17.120 13.483 C 20.009 14.732,19.990 14.724,20.277 14.725 C 20.551 14.726,20.667 14.684,20.862 14.513 C 21.144 14.265,21.177 14.132,21.193 13.182 C 21.202 12.649,21.190 12.256,21.161 12.102 C 21.065 11.608,20.720 11.062,20.338 10.799 C 20.242 10.732,18.846 10.112,17.236 9.421 C 15.627 8.729,14.274 8.131,14.231 8.092 C 14.041 7.920,14.040 7.905,14.040 6.108 C 14.040 4.537,14.034 4.390,13.959 4.096 C 13.801 3.479,13.511 2.991,13.034 2.540 C 12.651 2.177,12.387 2.035,12.065 2.015 C 11.924 2.007,11.749 2.024,11.652 2.056 " fill="#292D32" stroke="none" fill-rule="evenodd"></path></svg>