<svg width="24" height="24" viewBox="0 0 24 24" fill="none" xmlns="http://www.w3.org/2000/svg"><path d="M5.220 2.043 C 3.847 2.250,2.663 3.238,2.217 4.550 C 1.984 5.233,1.940 5.844,2.076 6.500 C 2.236 7.274,2.567 7.890,3.118 8.442 C 3.911 9.235,4.766 9.558,6.070 9.559 L 6.720 9.560 6.721 13.450 C 6.722 15.974,6.736 17.403,6.763 17.519 C 6.867 17.970,7.253 18.505,7.617 18.701 L 7.758 18.777 7.769 20.525 L 7.780 22.273 7.904 22.426 C 8.083 22.647,8.248 22.731,8.500 22.731 C 8.752 22.731,8.917 22.647,9.096 22.426 L 9.220 22.273 9.231 20.584 L 9.242 18.895 9.451 18.793 C 9.872 18.587,10.225 18.183,10.410 17.697 L 10.500 17.460 10.512 11.220 C 10.519 7.168,10.509 4.847,10.483 4.600 C 10.356 3.419,9.619 2.506,8.487 2.127 C 8.184 2.025,8.163 2.024,6.820 2.015 C 6.072 2.010,5.352 2.023,5.220 2.043 M15.860 2.041 C 14.767 2.236,13.874 3.067,13.598 4.149 C 13.522 4.444,13.520 4.645,13.520 10.943 C 13.520 17.200,13.523 17.442,13.596 17.676 C 13.742 18.146,14.102 18.568,14.541 18.782 L 14.758 18.888 14.769 20.580 L 14.780 22.273 14.904 22.426 C 15.083 22.647,15.248 22.731,15.500 22.731 C 15.752 22.731,15.917 22.647,16.096 22.426 L 16.220 22.273 16.231 20.525 L 16.242 18.777 16.374 18.706 C 16.678 18.542,17.023 18.120,17.172 17.729 L 17.260 17.500 17.271 13.535 L 17.282 9.570 18.051 9.548 C 18.865 9.525,19.118 9.483,19.593 9.293 C 20.751 8.830,21.603 7.843,21.907 6.614 C 22.000 6.237,22.000 5.323,21.907 4.946 C 21.560 3.540,20.538 2.499,19.123 2.110 C 18.847 2.034,18.696 2.026,17.440 2.016 C 16.681 2.011,15.970 2.022,15.860 2.041 M6.170 4.199 C 6.600 4.493,6.635 5.081,6.243 5.411 C 6.177 5.467,6.029 5.533,5.914 5.558 C 5.667 5.610,5.600 5.658,5.600 5.780 C 5.600 5.899,5.669 5.951,5.869 5.983 C 6.083 6.017,6.243 6.116,6.385 6.303 C 6.485 6.435,6.500 6.488,6.500 6.723 C 6.500 6.963,6.487 7.009,6.378 7.146 C 6.311 7.231,6.169 7.344,6.062 7.397 C 5.881 7.488,5.850 7.492,5.580 7.453 C 5.179 7.395,4.881 7.248,4.606 6.971 C 4.331 6.696,4.178 6.399,4.121 6.030 C 3.987 5.174,4.536 4.347,5.380 4.133 C 5.677 4.058,6.004 4.085,6.170 4.199 M18.919 4.242 C 19.593 4.553,20.006 5.310,19.889 6.017 C 19.766 6.763,19.211 7.323,18.470 7.450 C 18.148 7.505,17.946 7.455,17.733 7.269 C 17.415 6.989,17.388 6.529,17.673 6.225 C 17.798 6.091,18.056 5.962,18.202 5.961 C 18.327 5.960,18.400 5.892,18.400 5.777 C 18.400 5.660,18.341 5.620,18.080 5.560 C 17.548 5.438,17.314 4.856,17.613 4.403 C 17.848 4.048,18.361 3.985,18.919 4.242 " fill="#292D32" stroke="none" fill-rule="evenodd"></path></svg>