<svg width="24" height="24" viewBox="0 0 24 24" fill="none" xmlns="http://www.w3.org/2000/svg"><path d="M11.807 1.288 C 11.692 1.313,11.583 1.377,11.481 1.479 C 11.289 1.671,11.240 1.880,11.240 2.500 C 11.240 2.751,11.260 3.049,11.284 3.162 C 11.424 3.815,12.311 3.943,12.640 3.358 C 12.736 3.188,12.740 3.151,12.740 2.500 C 12.740 1.873,12.733 1.807,12.651 1.653 C 12.523 1.415,12.388 1.328,12.040 1.261 C 12.007 1.255,11.902 1.267,11.807 1.288 M3.621 3.371 C 3.306 3.550,3.181 4.011,3.356 4.352 C 3.398 4.433,3.700 4.763,4.026 5.083 C 4.543 5.592,4.644 5.673,4.807 5.713 C 5.374 5.854,5.834 5.394,5.710 4.811 C 5.673 4.638,5.613 4.563,5.085 4.026 C 4.763 3.700,4.433 3.398,4.352 3.356 C 4.143 3.249,3.825 3.256,3.621 3.371 M19.660 3.346 C 19.481 3.439,18.447 4.476,18.353 4.657 C 18.236 4.882,18.262 5.257,18.409 5.450 C 18.622 5.729,19.082 5.824,19.366 5.648 C 19.440 5.603,19.763 5.299,20.085 4.973 C 20.614 4.437,20.673 4.362,20.710 4.189 C 20.819 3.679,20.501 3.278,19.992 3.282 C 19.875 3.282,19.726 3.311,19.660 3.346 M11.340 6.024 C 10.023 6.160,9.090 6.415,8.058 6.921 C 6.578 7.645,5.353 8.728,4.440 10.120 C 3.910 10.929,3.411 12.126,3.203 13.092 C 3.013 13.975,3.000 14.281,3.000 17.866 L 3.000 21.233 2.410 21.246 C 1.726 21.262,1.582 21.311,1.381 21.596 C 1.282 21.736,1.261 21.804,1.261 21.993 C 1.261 22.270,1.373 22.475,1.612 22.633 L 1.774 22.740 12.000 22.740 L 22.226 22.740 22.388 22.633 C 22.627 22.475,22.739 22.270,22.739 21.993 C 22.739 21.804,22.718 21.736,22.619 21.596 C 22.418 21.311,22.274 21.262,21.590 21.246 L 21.000 21.233 21.000 17.866 C 21.000 14.281,20.987 13.975,20.797 13.092 C 20.589 12.126,20.090 10.929,19.560 10.120 C 18.126 7.935,15.879 6.487,13.320 6.101 C 12.911 6.039,11.662 5.991,11.340 6.024 " fill="#292D32" stroke="none" fill-rule="evenodd"></path></svg>