<svg width="24" height="24" viewBox="0 0 24 24" fill="none" xmlns="http://www.w3.org/2000/svg"><path d="M2.460 4.699 C 1.865 4.979,1.864 5.775,2.458 6.045 C 2.605 6.111,2.746 6.118,3.930 6.119 L 5.240 6.120 5.241 9.190 C 5.241 10.934,5.259 12.424,5.281 12.640 C 5.375 13.542,5.710 14.007,6.440 14.249 C 6.677 14.328,6.803 14.337,7.860 14.351 C 9.125 14.367,9.398 14.338,9.820 14.145 C 10.247 13.950,10.546 13.559,10.682 13.020 C 10.720 12.869,10.737 11.994,10.749 9.470 L 10.765 6.120 12.262 6.120 L 13.760 6.120 13.761 11.910 C 13.761 16.810,13.770 17.742,13.819 17.973 C 13.980 18.732,14.383 19.133,15.161 19.308 C 15.590 19.404,17.407 19.405,17.833 19.309 C 18.559 19.146,18.915 18.839,19.150 18.172 C 19.213 17.995,19.219 17.511,19.230 12.050 L 19.242 6.120 20.311 6.119 C 21.262 6.118,21.398 6.110,21.542 6.045 C 22.086 5.798,22.142 5.096,21.645 4.755 L 21.506 4.660 12.043 4.651 C 3.963 4.644,2.562 4.651,2.460 4.699 " fill="#292D32" stroke="none" fill-rule="evenodd"></path></svg>