<svg width="24" height="24" viewBox="0 0 24 24" fill="none" xmlns="http://www.w3.org/2000/svg"><path d="M11.695 2.077 C 11.502 2.164,11.345 2.356,11.284 2.580 C 11.257 2.680,11.240 3.210,11.240 3.986 L 11.240 5.232 9.650 5.251 C 7.942 5.271,7.776 5.289,7.369 5.496 C 6.971 5.698,6.699 6.100,6.580 6.664 C 6.497 7.054,6.497 8.946,6.580 9.336 C 6.736 10.075,7.116 10.486,7.803 10.664 C 8.014 10.719,8.343 10.734,9.650 10.749 L 11.240 10.768 11.240 12.264 L 11.240 13.760 8.724 13.760 C 5.938 13.760,5.797 13.770,5.358 14.004 C 4.945 14.225,4.721 14.549,4.574 15.140 C 4.472 15.550,4.472 17.450,4.574 17.860 C 4.721 18.451,4.945 18.775,5.358 18.996 C 5.803 19.233,5.880 19.239,8.690 19.239 L 11.240 19.240 11.240 20.250 C 11.240 21.326,11.262 21.493,11.429 21.714 C 11.793 22.196,12.551 22.022,12.716 21.420 C 12.742 21.324,12.760 20.855,12.760 20.250 L 12.760 19.240 15.310 19.239 C 18.120 19.239,18.197 19.233,18.642 18.996 C 19.055 18.775,19.279 18.451,19.426 17.860 C 19.528 17.450,19.528 15.550,19.426 15.140 C 19.279 14.549,19.055 14.225,18.642 14.004 C 18.203 13.770,18.062 13.760,15.276 13.760 L 12.760 13.760 12.760 12.264 L 12.760 10.768 14.350 10.749 C 15.645 10.734,15.987 10.719,16.191 10.665 C 16.885 10.486,17.264 10.075,17.421 9.331 C 17.503 8.946,17.502 7.050,17.420 6.664 C 17.264 5.925,16.884 5.514,16.197 5.336 C 15.986 5.281,15.657 5.266,14.350 5.251 L 12.760 5.232 12.760 3.986 C 12.760 3.210,12.743 2.680,12.716 2.580 C 12.625 2.247,12.321 2.002,12.000 2.002 C 11.923 2.002,11.786 2.035,11.695 2.077 " fill="#292D32" stroke="none" fill-rule="evenodd"></path></svg>