<svg width="24" height="24" viewBox="0 0 24 24" fill="none" xmlns="http://www.w3.org/2000/svg"><path d="M18.420 2.032 C 18.255 2.090,18.093 2.212,17.998 2.351 L 17.900 2.494 17.889 3.865 L 17.877 5.235 14.529 5.251 C 11.530 5.264,11.153 5.273,10.923 5.334 C 10.238 5.516,9.855 5.934,9.699 6.667 C 9.618 7.052,9.618 8.948,9.699 9.333 C 9.855 10.066,10.238 10.484,10.923 10.666 C 11.153 10.727,11.530 10.736,14.530 10.749 L 17.880 10.765 17.880 12.262 L 17.880 13.760 12.090 13.761 C 5.740 13.761,6.000 13.752,5.494 14.000 C 5.079 14.204,4.844 14.539,4.693 15.140 C 4.591 15.550,4.591 17.450,4.693 17.860 C 4.841 18.452,5.065 18.775,5.478 18.996 C 5.952 19.248,5.688 19.239,12.068 19.239 L 17.876 19.240 17.888 20.373 C 17.900 21.492,17.901 21.508,17.995 21.645 C 18.154 21.877,18.343 21.977,18.623 21.979 C 18.931 21.980,19.149 21.850,19.275 21.589 L 19.360 21.414 19.350 11.954 L 19.340 2.494 19.245 2.355 C 19.192 2.278,19.087 2.175,19.012 2.126 C 18.869 2.032,18.559 1.983,18.420 2.032 " fill="#292D32" stroke="none" fill-rule="evenodd"></path></svg>