<svg width="24" height="24" viewBox="0 0 24 24" fill="none" xmlns="http://www.w3.org/2000/svg"><path d="M5.152 2.037 C 4.972 2.095,4.803 2.238,4.719 2.402 C 4.640 2.556,4.640 2.653,4.650 12.032 L 4.660 21.506 4.755 21.645 C 4.975 21.965,5.362 22.078,5.678 21.913 C 5.775 21.862,5.910 21.751,5.978 21.666 L 6.100 21.513 6.112 20.376 L 6.124 19.240 11.932 19.239 C 18.312 19.239,18.048 19.248,18.522 18.996 C 18.935 18.775,19.159 18.452,19.307 17.860 C 19.408 17.453,19.409 15.552,19.308 15.140 C 19.159 14.538,18.894 14.173,18.458 13.974 C 17.980 13.755,18.172 13.761,11.910 13.761 L 6.120 13.760 6.120 12.262 L 6.120 10.765 9.470 10.749 C 12.470 10.736,12.847 10.727,13.077 10.666 C 13.762 10.484,14.145 10.066,14.301 9.333 C 14.382 8.948,14.382 7.052,14.301 6.667 C 14.145 5.934,13.762 5.516,13.077 5.334 C 12.847 5.273,12.470 5.264,9.470 5.251 L 6.120 5.235 6.120 3.910 C 6.120 2.659,6.115 2.576,6.039 2.417 C 5.890 2.111,5.475 1.933,5.152 2.037 " fill="#292D32" stroke="none" fill-rule="evenodd"></path></svg>