<svg width="24" height="24" viewBox="0 0 24 24" fill="none" xmlns="http://www.w3.org/2000/svg"><path d="M6.120 4.583 C 5.567 4.702,5.163 4.997,4.960 5.429 C 4.770 5.833,4.761 5.972,4.761 8.690 L 4.760 11.240 3.750 11.240 C 2.674 11.240,2.507 11.262,2.286 11.429 C 1.804 11.793,1.978 12.551,2.580 12.716 C 2.676 12.742,3.145 12.760,3.750 12.760 L 4.760 12.760 4.761 15.310 C 4.761 17.335,4.773 17.914,4.817 18.123 C 4.971 18.847,5.367 19.238,6.140 19.427 C 6.552 19.528,8.453 19.527,8.860 19.426 C 9.451 19.279,9.775 19.055,9.996 18.642 C 10.233 18.197,10.239 18.120,10.239 15.310 L 10.240 12.760 11.736 12.760 L 13.232 12.760 13.251 14.350 C 13.266 15.657,13.281 15.986,13.336 16.197 C 13.514 16.884,13.925 17.264,14.664 17.420 C 15.050 17.502,16.946 17.503,17.331 17.421 C 18.075 17.264,18.486 16.885,18.665 16.191 C 18.719 15.987,18.734 15.645,18.749 14.350 L 18.768 12.760 20.014 12.760 C 21.337 12.760,21.486 12.743,21.714 12.571 C 22.196 12.207,22.022 11.449,21.420 11.284 C 21.320 11.257,20.790 11.240,20.014 11.240 L 18.768 11.240 18.749 9.650 C 18.734 8.343,18.719 8.014,18.664 7.803 C 18.486 7.116,18.075 6.736,17.336 6.580 C 16.946 6.497,15.054 6.497,14.664 6.580 C 13.925 6.736,13.514 7.116,13.336 7.803 C 13.281 8.014,13.266 8.343,13.251 9.650 L 13.232 11.240 11.736 11.240 L 10.240 11.240 10.239 8.690 C 10.239 5.880,10.233 5.803,9.996 5.358 C 9.773 4.940,9.420 4.699,8.853 4.579 C 8.475 4.499,6.494 4.502,6.120 4.583 " fill="#292D32" stroke="none" fill-rule="evenodd"></path></svg>