<svg width="24" height="24" viewBox="0 0 24 24" fill="none" xmlns="http://www.w3.org/2000/svg"><path d="M11.387 1.283 C 9.838 1.394,8.275 2.031,7.060 3.047 C 5.415 4.422,4.450 6.291,4.276 8.440 C 4.219 9.136,4.248 9.288,4.480 9.520 C 4.743 9.783,5.096 9.822,5.405 9.620 C 5.670 9.447,5.727 9.301,5.766 8.688 C 5.873 7.043,6.459 5.736,7.597 4.597 C 8.508 3.686,9.499 3.148,10.777 2.871 C 11.363 2.744,12.637 2.744,13.223 2.871 C 14.501 3.148,15.492 3.686,16.403 4.597 C 17.314 5.508,17.852 6.499,18.129 7.777 C 18.256 8.363,18.256 9.637,18.129 10.223 C 17.947 11.060,17.641 11.789,17.171 12.499 C 16.833 13.010,16.047 13.803,15.540 14.146 C 14.571 14.801,13.506 15.164,12.343 15.236 C 11.721 15.274,11.568 15.331,11.380 15.597 L 11.260 15.767 11.248 17.003 L 11.236 18.240 10.140 18.240 C 9.491 18.240,8.960 18.258,8.838 18.284 C 8.080 18.447,8.080 19.553,8.838 19.716 C 8.960 19.742,9.491 19.760,10.140 19.760 L 11.236 19.760 11.248 20.993 L 11.260 22.226 11.367 22.388 C 11.682 22.864,12.318 22.864,12.633 22.388 L 12.740 22.226 12.752 20.996 L 12.764 19.765 13.972 19.753 C 15.177 19.740,15.180 19.740,15.359 19.639 C 15.807 19.389,15.856 18.696,15.447 18.405 C 15.252 18.266,15.019 18.242,13.870 18.241 L 12.760 18.240 12.760 17.483 C 12.760 16.625,12.722 16.707,13.140 16.659 C 13.747 16.591,14.798 16.261,15.457 15.931 C 16.428 15.444,17.485 14.577,18.125 13.740 C 19.298 12.208,19.883 10.265,19.726 8.431 C 19.540 6.272,18.582 4.419,16.940 3.047 C 15.695 2.006,14.184 1.400,12.539 1.281 C 12.232 1.259,11.944 1.243,11.900 1.246 C 11.856 1.249,11.625 1.266,11.387 1.283 " fill="#292D32" stroke="none" fill-rule="evenodd"></path></svg>