<svg width="24" height="24" viewBox="0 0 24 24" fill="none" xmlns="http://www.w3.org/2000/svg"><path d="M4.371 2.042 C 3.143 2.204,2.426 2.806,2.111 3.940 C 2.025 4.248,2.022 4.324,2.022 6.000 C 2.022 7.676,2.025 7.752,2.111 8.060 C 2.393 9.073,2.961 9.629,3.982 9.889 L 4.340 9.980 12.000 9.980 L 19.660 9.980 20.018 9.889 C 21.039 9.629,21.607 9.073,21.889 8.060 C 21.975 7.752,21.978 7.676,21.978 6.000 C 21.978 4.325,21.975 4.248,21.889 3.945 C 21.600 2.918,21.062 2.388,20.020 2.108 L 19.700 2.022 12.160 2.016 C 8.013 2.012,4.508 2.024,4.371 2.042 M5.229 11.297 C 4.969 11.367,4.762 11.541,4.629 11.802 L 4.517 12.020 4.529 16.040 C 4.542 20.046,4.542 20.061,4.630 20.373 C 4.874 21.237,5.368 21.683,6.314 21.894 C 6.698 21.980,6.724 21.980,12.000 21.980 C 17.276 21.980,17.302 21.980,17.686 21.894 C 18.438 21.726,18.920 21.395,19.180 20.866 C 19.466 20.286,19.455 20.471,19.469 16.020 L 19.483 12.019 19.371 11.800 C 19.235 11.531,18.998 11.343,18.720 11.284 C 18.401 11.215,5.484 11.228,5.229 11.297 M14.100 14.316 C 14.719 14.602,14.719 15.398,14.100 15.684 C 13.951 15.753,13.804 15.758,12.000 15.758 C 10.196 15.758,10.049 15.753,9.900 15.684 C 9.605 15.547,9.440 15.303,9.440 15.000 C 9.440 14.697,9.605 14.453,9.900 14.316 C 10.049 14.247,10.196 14.242,12.000 14.242 C 13.804 14.242,13.951 14.247,14.100 14.316 " fill="#292D32" stroke="none" fill-rule="evenodd"></path></svg>