<svg width="24" height="24" viewBox="0 0 24 24" fill="none" xmlns="http://www.w3.org/2000/svg"><path d="M6.633 2.043 C 5.560 2.203,4.577 2.825,3.963 3.733 C 3.776 4.008,3.542 4.527,3.434 4.900 L 3.342 5.220 3.330 12.749 C 3.317 21.019,3.305 20.568,3.557 21.107 C 3.718 21.450,4.030 21.759,4.341 21.882 C 4.683 22.018,5.224 22.018,5.635 21.883 C 5.829 21.820,6.826 21.289,8.544 20.335 C 9.981 19.537,11.243 18.853,11.348 18.814 C 11.605 18.719,12.422 18.717,12.666 18.810 C 12.757 18.845,14.006 19.526,15.442 20.323 C 16.910 21.138,18.176 21.815,18.336 21.871 C 19.240 22.186,20.036 21.913,20.434 21.152 C 20.697 20.650,20.684 21.131,20.671 12.760 L 20.660 5.180 20.550 4.828 C 20.194 3.695,19.461 2.843,18.420 2.356 C 18.240 2.271,17.940 2.161,17.756 2.112 L 17.420 2.022 12.140 2.016 C 9.236 2.012,6.758 2.024,6.633 2.043 M9.704 8.401 C 10.405 8.643,11.158 8.760,12.020 8.760 C 12.775 8.760,13.295 8.689,13.988 8.491 C 14.644 8.305,14.923 8.285,15.139 8.410 C 15.383 8.550,15.486 8.761,15.471 9.084 C 15.460 9.303,15.438 9.375,15.343 9.499 C 15.206 9.679,15.046 9.754,14.416 9.935 C 13.541 10.187,13.018 10.257,12.000 10.257 C 10.982 10.257,10.459 10.187,9.584 9.935 C 8.954 9.754,8.794 9.679,8.657 9.500 C 8.495 9.287,8.471 8.918,8.605 8.680 C 8.799 8.334,9.208 8.230,9.704 8.401 " fill="#292D32" stroke="none" fill-rule="evenodd"></path></svg>