<svg width="24" height="24" viewBox="0 0 24 24" fill="none" xmlns="http://www.w3.org/2000/svg"><path d="M6.991 2.044 C 6.252 2.117,5.350 2.362,4.800 2.640 C 4.372 2.856,3.859 3.234,3.515 3.586 C 2.777 4.344,2.333 5.262,2.108 6.497 C 2.020 6.978,2.020 7.001,2.020 12.000 C 2.020 16.999,2.020 17.022,2.108 17.503 C 2.338 18.764,2.786 19.676,3.555 20.445 C 4.324 21.214,5.236 21.662,6.497 21.892 C 6.978 21.980,7.001 21.980,12.000 21.980 L 17.020 21.980 17.515 21.890 C 18.730 21.669,19.674 21.205,20.424 20.461 C 21.225 19.667,21.709 18.645,21.909 17.326 C 21.974 16.900,21.980 16.449,21.980 12.020 C 21.980 6.785,21.981 6.812,21.761 5.939 C 21.514 4.958,21.135 4.265,20.480 3.597 C 19.698 2.799,18.826 2.358,17.544 2.111 C 17.107 2.027,17.018 2.026,12.220 2.017 C 9.536 2.013,7.183 2.025,6.991 2.044 M16.580 5.060 C 16.734 5.092,17.029 5.202,17.236 5.304 C 17.898 5.631,18.376 6.194,18.635 6.953 L 18.740 7.260 18.751 11.130 L 18.763 15.000 18.951 15.001 C 19.764 15.005,20.048 16.003,19.349 16.403 L 19.180 16.500 17.173 16.512 L 15.165 16.523 15.098 16.732 C 14.830 17.558,14.199 18.283,13.420 18.661 C 12.883 18.921,12.635 18.976,12.000 18.976 C 11.365 18.976,11.117 18.921,10.580 18.661 C 9.801 18.283,9.170 17.558,8.902 16.732 L 8.835 16.523 6.827 16.512 L 4.820 16.500 4.633 16.390 C 3.950 15.989,4.244 15.005,5.049 15.001 L 5.237 15.000 5.249 11.130 L 5.260 7.260 5.365 6.953 C 5.624 6.194,6.101 5.631,6.764 5.304 C 6.971 5.201,7.257 5.093,7.400 5.062 C 7.796 4.977,16.174 4.975,16.580 5.060 M7.595 6.575 C 7.233 6.705,6.973 6.961,6.836 7.322 C 6.776 7.480,6.760 7.627,6.760 8.038 L 6.760 8.556 6.970 8.464 C 7.448 8.254,7.300 8.260,12.000 8.260 C 16.700 8.260,16.552 8.254,17.030 8.464 L 17.240 8.556 17.240 8.038 C 17.240 7.624,17.225 7.480,17.163 7.318 C 17.058 7.041,16.851 6.801,16.595 6.659 L 16.380 6.540 12.060 6.531 C 8.596 6.524,7.711 6.533,7.595 6.575 M7.591 9.821 C 7.367 9.903,7.109 10.094,6.989 10.267 C 6.793 10.550,6.760 10.716,6.760 11.409 C 6.760 12.002,6.765 12.046,6.830 12.020 C 6.869 12.004,7.026 11.944,7.180 11.886 L 7.460 11.780 12.000 11.780 L 16.540 11.780 16.840 11.887 C 17.005 11.946,17.173 12.007,17.214 12.023 C 17.283 12.050,17.286 12.019,17.274 11.391 L 17.260 10.732 17.120 10.457 C 17.018 10.258,16.926 10.142,16.780 10.032 C 16.397 9.743,16.696 9.760,11.983 9.763 C 8.491 9.765,7.714 9.775,7.591 9.821 M7.683 13.303 C 7.311 13.404,7.061 13.610,6.872 13.971 C 6.802 14.106,6.781 14.226,6.768 14.570 L 6.751 15.000 8.203 15.000 C 9.601 15.000,9.661 15.003,9.830 15.085 C 10.092 15.212,10.197 15.399,10.261 15.860 C 10.360 16.567,10.684 17.042,11.261 17.324 C 11.529 17.455,11.558 17.460,12.000 17.460 C 12.442 17.460,12.471 17.455,12.739 17.324 C 13.316 17.042,13.640 16.567,13.739 15.860 C 13.803 15.399,13.908 15.212,14.170 15.085 C 14.339 15.003,14.399 15.000,15.797 15.000 L 17.249 15.000 17.233 14.570 C 17.220 14.185,17.205 14.117,17.100 13.926 C 16.957 13.665,16.700 13.431,16.448 13.333 C 16.271 13.264,16.020 13.260,12.080 13.252 C 8.512 13.245,7.868 13.253,7.683 13.303 " fill="#292D32" stroke="none" fill-rule="evenodd"></path></svg>