<svg width="24" height="24" viewBox="0 0 24 24" fill="none" xmlns="http://www.w3.org/2000/svg"><path d="M6.633 2.043 C 5.560 2.203,4.577 2.825,3.963 3.733 C 3.776 4.008,3.542 4.527,3.434 4.900 L 3.342 5.220 3.330 12.749 C 3.317 21.019,3.305 20.568,3.557 21.107 C 3.718 21.450,4.030 21.759,4.341 21.882 C 4.683 22.018,5.224 22.018,5.635 21.883 C 5.829 21.820,6.826 21.289,8.544 20.335 C 9.981 19.537,11.243 18.853,11.348 18.814 C 11.605 18.719,12.422 18.717,12.666 18.810 C 12.757 18.845,14.006 19.526,15.442 20.323 C 16.910 21.138,18.176 21.815,18.336 21.871 C 19.240 22.186,20.036 21.913,20.434 21.152 C 20.697 20.650,20.684 21.131,20.671 12.760 L 20.660 5.180 20.550 4.828 C 20.194 3.695,19.461 2.843,18.420 2.356 C 18.240 2.271,17.940 2.161,17.756 2.112 L 17.420 2.022 12.140 2.016 C 9.236 2.012,6.758 2.024,6.633 2.043 M14.934 10.052 C 15.357 10.375,15.334 10.977,14.887 11.284 L 14.746 11.380 12.000 11.380 L 9.254 11.380 9.113 11.284 C 8.707 11.005,8.643 10.423,8.986 10.113 C 9.207 9.913,9.102 9.919,12.043 9.930 L 14.786 9.940 14.934 10.052 " fill="#292D32" stroke="none" fill-rule="evenodd"></path></svg>