<svg width="24" height="24" viewBox="0 0 24 24" fill="none" xmlns="http://www.w3.org/2000/svg"><path d="M6.633 2.043 C 5.564 2.200,4.577 2.825,3.963 3.733 C 3.776 4.008,3.542 4.527,3.434 4.900 L 3.342 5.220 3.330 12.398 L 3.319 19.576 2.745 20.158 C 2.430 20.478,2.138 20.803,2.098 20.880 C 1.991 21.082,2.001 21.427,2.119 21.618 C 2.299 21.910,2.675 22.058,2.986 21.960 C 3.113 21.920,4.808 20.245,12.494 12.566 C 19.026 6.039,21.871 3.172,21.923 3.060 C 22.023 2.847,22.019 2.655,21.910 2.439 C 21.706 2.036,21.228 1.897,20.839 2.128 C 20.741 2.187,20.437 2.459,20.164 2.733 L 19.669 3.232 19.347 2.958 C 18.764 2.462,18.068 2.143,17.347 2.043 C 16.972 1.991,6.988 1.991,6.633 2.043 M19.880 7.432 C 19.553 7.474,19.581 7.448,15.647 11.374 C 13.528 13.489,11.762 15.283,11.722 15.360 C 11.615 15.566,11.586 15.813,11.640 16.040 C 11.742 16.465,11.593 16.363,15.689 18.814 C 17.763 20.055,19.523 21.103,19.600 21.144 C 19.798 21.248,20.207 21.242,20.423 21.130 C 20.630 21.023,20.855 20.775,20.925 20.575 C 20.971 20.446,20.980 19.378,20.980 14.280 C 20.980 8.369,20.977 8.135,20.906 8.000 C 20.810 7.820,20.611 7.610,20.466 7.534 C 20.337 7.466,20.029 7.412,19.880 7.432 " fill="#292D32" stroke="none" fill-rule="evenodd"></path></svg>