<svg width="24" height="24" viewBox="0 0 24 24" fill="none" xmlns="http://www.w3.org/2000/svg"><path d="M6.465 1.982 C 6.056 2.063,5.821 2.148,5.400 2.366 C 4.662 2.748,4.114 3.308,3.741 4.060 C 3.621 4.302,3.482 4.644,3.431 4.820 L 3.340 5.140 3.329 12.640 C 3.319 19.392,3.324 20.172,3.382 20.460 C 3.547 21.281,3.997 21.764,4.713 21.887 C 5.093 21.952,5.527 21.866,6.018 21.627 C 6.217 21.530,7.483 20.838,8.831 20.089 C 11.568 18.567,11.474 18.608,12.193 18.649 C 12.482 18.665,12.605 18.693,12.807 18.788 C 12.946 18.854,14.131 19.502,15.440 20.228 C 18.247 21.787,18.164 21.744,18.550 21.843 C 18.907 21.934,19.181 21.940,19.471 21.863 C 20.009 21.720,20.329 21.386,20.585 20.700 C 20.657 20.508,20.660 20.210,20.671 12.940 C 20.681 6.195,20.675 5.346,20.619 5.067 C 20.305 3.501,19.132 2.316,17.581 1.996 C 17.239 1.925,16.942 1.921,11.980 1.924 C 7.724 1.927,6.688 1.938,6.465 1.982 M15.423 7.841 C 15.738 7.994,15.896 8.361,15.800 8.722 C 15.757 8.883,15.551 9.102,13.666 10.991 C 12.283 12.378,11.525 13.109,11.417 13.161 C 11.239 13.248,10.987 13.263,10.813 13.198 C 10.648 13.137,9.008 11.495,8.917 11.300 C 8.825 11.104,8.820 10.925,8.902 10.729 C 8.976 10.552,9.099 10.414,9.254 10.333 C 9.413 10.250,9.753 10.254,9.922 10.340 C 9.998 10.379,10.294 10.641,10.581 10.924 L 11.102 11.438 12.861 9.675 C 14.032 8.501,14.673 7.887,14.780 7.837 C 14.989 7.739,15.214 7.740,15.423 7.841 " fill="#292D32" stroke="none" fill-rule="evenodd"></path></svg>