<svg width="24" height="24" viewBox="0 0 24 24" fill="none" xmlns="http://www.w3.org/2000/svg"><path d="M9.377 2.038 C 9.331 2.057,9.245 2.130,9.187 2.199 L 9.080 2.326 9.080 5.425 C 9.080 8.826,9.071 8.691,9.319 8.819 C 9.383 8.853,9.506 8.880,9.592 8.880 C 9.783 8.880,9.802 8.865,10.878 7.880 C 11.322 7.473,11.725 7.118,11.773 7.091 C 11.903 7.019,12.124 7.030,12.260 7.116 C 12.326 7.158,12.780 7.561,13.270 8.013 C 13.821 8.521,14.211 8.851,14.294 8.878 C 14.485 8.941,14.711 8.859,14.829 8.684 L 14.920 8.548 14.920 5.433 L 14.920 2.319 14.783 2.169 L 14.646 2.020 12.053 2.012 C 10.627 2.008,9.423 2.020,9.377 2.038 M6.380 2.178 C 4.506 2.613,3.398 3.868,3.074 5.921 C 2.995 6.419,2.995 17.581,3.074 18.079 C 3.389 20.077,4.444 21.317,6.220 21.779 C 7.002 21.982,6.937 21.980,12.000 21.980 C 17.063 21.980,16.998 21.982,17.780 21.779 C 19.328 21.377,20.376 20.329,20.779 18.779 C 20.984 17.990,20.980 18.138,20.980 12.000 C 20.980 5.862,20.984 6.011,20.779 5.221 C 20.361 3.611,19.254 2.552,17.600 2.176 C 17.102 2.063,16.798 2.053,16.657 2.146 C 16.432 2.293,16.440 2.172,16.440 5.573 C 16.440 7.491,16.424 8.793,16.400 8.925 C 16.309 9.414,15.920 9.976,15.502 10.221 C 14.886 10.582,14.089 10.578,13.507 10.212 C 13.415 10.154,13.115 9.901,12.840 9.649 C 12.232 9.091,12.201 9.070,11.997 9.073 C 11.792 9.076,11.770 9.091,11.140 9.665 C 10.561 10.193,10.491 10.245,10.198 10.361 C 9.274 10.725,8.217 10.317,7.780 9.426 C 7.703 9.269,7.622 9.043,7.600 8.925 C 7.576 8.793,7.560 7.491,7.560 5.573 C 7.560 2.172,7.568 2.293,7.343 2.146 C 7.203 2.054,6.867 2.066,6.380 2.178 M17.780 13.316 C 18.075 13.453,18.240 13.697,18.240 14.000 C 18.240 14.303,18.075 14.547,17.780 14.684 C 17.630 14.753,17.475 14.758,15.378 14.759 L 13.136 14.760 12.927 14.656 C 12.530 14.458,12.392 14.006,12.614 13.627 C 12.720 13.446,12.857 13.333,13.037 13.278 C 13.093 13.261,14.148 13.246,15.380 13.244 C 17.479 13.242,17.630 13.246,17.780 13.316 M17.780 17.316 C 18.399 17.602,18.399 18.398,17.780 18.684 C 17.627 18.755,17.419 18.758,13.280 18.759 C 10.415 18.759,8.889 18.746,8.791 18.718 C 8.372 18.602,8.136 18.125,8.302 17.729 C 8.384 17.532,8.506 17.405,8.700 17.316 C 8.852 17.245,9.066 17.242,13.240 17.242 C 17.419 17.242,17.627 17.245,17.780 17.316 " fill="#292D32" stroke="none" fill-rule="evenodd"></path></svg>