<svg width="24" height="24" viewBox="0 0 24 24" fill="none" xmlns="http://www.w3.org/2000/svg"><path d="M6.960 2.046 C 6.236 2.116,5.358 2.357,4.796 2.641 C 4.426 2.828,3.928 3.183,3.624 3.475 C 2.737 4.332,2.251 5.370,2.062 6.812 C 1.970 7.515,1.969 16.481,2.061 17.188 C 2.239 18.550,2.681 19.544,3.476 20.372 C 4.162 21.084,4.935 21.524,5.956 21.780 C 6.817 21.997,6.896 22.000,11.993 22.000 C 14.960 22.000,16.828 21.985,17.041 21.959 C 19.985 21.603,21.695 19.840,21.962 16.885 C 21.990 16.579,21.999 14.787,21.989 11.660 C 21.974 7.001,21.972 6.891,21.889 6.456 C 21.642 5.171,21.165 4.235,20.369 3.478 C 19.583 2.729,18.652 2.295,17.359 2.076 C 16.995 2.014,7.572 1.987,6.960 2.046 M14.174 6.186 C 14.371 6.285,17.347 9.266,17.483 9.500 C 17.763 9.981,17.483 10.569,16.945 10.629 C 16.600 10.668,16.531 10.619,15.511 9.607 L 14.561 8.665 14.551 13.049 L 14.540 17.433 14.418 17.586 C 14.276 17.764,13.997 17.920,13.820 17.920 C 13.643 17.920,13.364 17.764,13.222 17.586 L 13.100 17.433 13.090 12.056 C 13.079 6.827,13.081 6.674,13.156 6.529 C 13.360 6.131,13.783 5.988,14.174 6.186 M10.522 6.201 C 10.609 6.245,10.729 6.356,10.790 6.448 L 10.900 6.614 10.910 11.968 C 10.921 17.173,10.919 17.326,10.844 17.471 C 10.748 17.659,10.620 17.779,10.431 17.858 C 10.253 17.932,10.162 17.935,9.945 17.873 C 9.805 17.834,9.539 17.587,8.205 16.263 C 7.339 15.403,6.579 14.620,6.515 14.522 C 6.285 14.167,6.398 13.688,6.761 13.484 C 6.959 13.373,7.286 13.359,7.466 13.454 C 7.529 13.487,7.985 13.921,8.480 14.417 C 8.974 14.914,9.393 15.320,9.410 15.320 C 9.426 15.320,9.440 13.377,9.440 11.003 C 9.440 8.049,9.453 6.650,9.483 6.573 C 9.539 6.424,9.711 6.243,9.860 6.177 C 10.040 6.097,10.338 6.107,10.522 6.201 " fill="#292D32" stroke="none" fill-rule="evenodd"></path></svg>