<svg width="24" height="24" viewBox="0 0 24 24" fill="none" xmlns="http://www.w3.org/2000/svg"><path d="M11.120 2.039 C 8.336 2.318,5.905 3.624,4.193 5.760 C 1.474 9.155,1.267 13.917,3.682 17.533 C 6.770 22.155,12.946 23.386,17.560 20.299 C 22.155 17.225,23.377 11.041,20.299 6.440 C 18.728 4.092,16.319 2.562,13.493 2.119 C 12.909 2.027,11.660 1.985,11.120 2.039 M10.309 6.547 C 10.392 6.614,10.494 6.726,10.535 6.797 C 10.631 6.960,10.632 7.301,10.538 7.486 C 10.500 7.560,10.064 8.029,9.567 8.529 L 8.665 9.439 13.049 9.449 L 17.433 9.460 17.586 9.584 C 17.671 9.653,17.774 9.767,17.816 9.838 C 17.910 9.999,17.916 10.334,17.828 10.505 C 17.738 10.679,17.505 10.872,17.351 10.900 C 17.279 10.912,14.823 10.918,11.894 10.911 L 6.567 10.900 6.414 10.776 C 6.329 10.707,6.226 10.593,6.184 10.522 C 6.087 10.357,6.084 10.026,6.178 9.839 C 6.277 9.644,9.384 6.540,9.560 6.461 C 9.788 6.360,10.125 6.398,10.309 6.547 M17.524 13.167 C 17.764 13.302,17.880 13.509,17.880 13.801 C 17.880 13.935,17.854 14.092,17.823 14.152 C 17.791 14.211,17.040 14.984,16.153 15.869 C 14.518 17.499,14.400 17.600,14.120 17.600 C 13.866 17.600,13.574 17.419,13.453 17.186 C 13.371 17.028,13.374 16.687,13.459 16.518 C 13.498 16.442,13.936 15.970,14.433 15.470 L 15.338 14.560 11.028 14.560 C 6.410 14.560,6.566 14.566,6.347 14.368 C 6.149 14.189,6.062 13.798,6.163 13.533 C 6.219 13.384,6.391 13.203,6.540 13.137 C 6.638 13.093,7.630 13.083,12.015 13.082 L 17.369 13.080 17.524 13.167 " fill="#292D32" stroke="none" fill-rule="evenodd"></path></svg>