<svg width="24" height="24" viewBox="0 0 24 24" fill="none" xmlns="http://www.w3.org/2000/svg"><path d="M11.120 2.039 C 8.336 2.318,5.905 3.624,4.193 5.760 C 1.474 9.155,1.267 13.917,3.682 17.533 C 6.770 22.155,12.946 23.386,17.560 20.299 C 22.155 17.225,23.377 11.041,20.299 6.440 C 18.728 4.092,16.319 2.562,13.493 2.119 C 12.909 2.027,11.660 1.985,11.120 2.039 M14.174 6.186 C 14.371 6.285,17.347 9.266,17.483 9.500 C 17.763 9.981,17.483 10.569,16.945 10.629 C 16.600 10.668,16.531 10.619,15.511 9.607 L 14.561 8.665 14.551 13.049 L 14.540 17.433 14.418 17.586 C 14.276 17.764,13.997 17.920,13.820 17.920 C 13.643 17.920,13.364 17.764,13.222 17.586 L 13.100 17.433 13.090 12.056 C 13.079 6.827,13.081 6.674,13.156 6.529 C 13.360 6.131,13.783 5.988,14.174 6.186 M10.522 6.201 C 10.609 6.245,10.729 6.356,10.790 6.448 L 10.900 6.614 10.910 11.968 C 10.921 17.173,10.919 17.326,10.844 17.471 C 10.748 17.659,10.620 17.779,10.431 17.858 C 10.253 17.932,10.162 17.935,9.945 17.873 C 9.805 17.834,9.539 17.587,8.205 16.263 C 7.339 15.403,6.579 14.620,6.515 14.522 C 6.285 14.167,6.398 13.688,6.761 13.484 C 6.959 13.373,7.286 13.359,7.466 13.454 C 7.529 13.487,7.985 13.921,8.480 14.417 C 8.974 14.914,9.393 15.320,9.410 15.320 C 9.426 15.320,9.440 13.377,9.440 11.003 C 9.440 8.049,9.453 6.650,9.483 6.573 C 9.539 6.424,9.711 6.243,9.860 6.177 C 10.040 6.097,10.338 6.107,10.522 6.201 " fill="#292D32" stroke="none" fill-rule="evenodd"></path></svg>