<svg width="24" height="24" viewBox="0 0 24 24" fill="none" xmlns="http://www.w3.org/2000/svg"><path d="M11.120 2.039 C 8.336 2.318,5.905 3.624,4.193 5.760 C 1.474 9.155,1.267 13.917,3.682 17.533 C 6.770 22.155,12.946 23.386,17.560 20.299 C 22.155 17.225,23.377 11.041,20.299 6.440 C 18.728 4.092,16.319 2.562,13.493 2.119 C 12.909 2.027,11.660 1.985,11.120 2.039 M12.429 7.907 C 12.512 7.974,12.616 8.090,12.660 8.164 C 12.738 8.296,12.740 8.383,12.751 10.998 L 12.763 13.695 13.711 12.751 C 14.738 11.729,14.749 11.721,15.127 11.772 C 15.313 11.797,15.542 11.964,15.655 12.157 C 15.750 12.319,15.752 12.661,15.659 12.846 C 15.583 12.995,12.664 15.944,12.433 16.105 C 12.267 16.220,12.038 16.263,11.813 16.222 C 11.678 16.198,11.466 16.001,10.027 14.567 C 9.129 13.672,8.366 12.886,8.331 12.821 C 8.251 12.669,8.251 12.333,8.331 12.179 C 8.523 11.811,8.948 11.659,9.314 11.827 C 9.396 11.865,9.846 12.277,10.349 12.774 L 11.237 13.653 11.249 10.977 C 11.261 8.061,11.251 8.192,11.486 7.973 C 11.665 7.806,11.807 7.755,12.049 7.770 C 12.233 7.782,12.309 7.810,12.429 7.907 " fill="#292D32" stroke="none" fill-rule="evenodd"></path></svg>