<svg width="24" height="24" viewBox="0 0 24 24" fill="none" xmlns="http://www.w3.org/2000/svg"><path d="M6.960 2.046 C 6.236 2.116,5.358 2.357,4.796 2.641 C 4.426 2.828,3.928 3.183,3.624 3.475 C 2.737 4.332,2.251 5.370,2.062 6.812 C 1.970 7.515,1.969 16.481,2.061 17.188 C 2.239 18.550,2.681 19.544,3.476 20.372 C 4.162 21.084,4.935 21.524,5.956 21.780 C 6.817 21.997,6.896 22.000,11.993 22.000 C 14.960 22.000,16.828 21.985,17.041 21.959 C 19.985 21.603,21.695 19.840,21.962 16.885 C 21.990 16.579,21.999 14.787,21.989 11.660 C 21.974 7.001,21.972 6.891,21.889 6.456 C 21.642 5.171,21.165 4.235,20.369 3.478 C 19.583 2.729,18.652 2.295,17.359 2.076 C 16.995 2.014,7.572 1.987,6.960 2.046 M10.551 7.022 C 10.748 7.104,10.875 7.226,10.964 7.420 C 11.050 7.605,11.057 7.717,10.996 7.940 C 10.960 8.075,10.712 8.342,9.387 9.670 L 7.821 11.240 12.913 11.240 C 16.640 11.240,18.054 11.252,18.189 11.286 C 18.577 11.384,18.814 11.790,18.714 12.186 C 18.656 12.416,18.428 12.657,18.213 12.717 C 18.109 12.746,16.421 12.760,12.941 12.760 L 7.821 12.760 9.387 14.330 C 11.023 15.970,11.041 15.992,11.039 16.320 C 11.037 16.623,10.725 16.976,10.418 17.022 C 10.015 17.083,10.104 17.157,7.668 14.727 C 6.441 13.502,5.398 12.439,5.351 12.364 C 5.234 12.177,5.234 11.822,5.352 11.636 C 5.398 11.561,6.433 10.505,7.650 9.288 C 9.936 7.005,9.979 6.967,10.291 6.962 C 10.352 6.961,10.469 6.988,10.551 7.022 " fill="#292D32" stroke="none" fill-rule="evenodd"></path></svg>