<svg width="24" height="24" viewBox="0 0 24 24" fill="none" xmlns="http://www.w3.org/2000/svg"><path d="M11.460 6.066 C 11.104 6.142,10.610 6.374,10.293 6.615 C 9.975 6.856,9.552 7.309,9.295 7.685 C 8.957 8.177,8.317 9.306,8.296 9.447 C 8.269 9.625,8.389 9.840,8.563 9.930 C 8.690 9.995,8.937 10.000,11.991 10.000 C 15.617 10.000,15.482 10.009,15.639 9.752 C 15.781 9.520,15.752 9.430,15.287 8.632 C 14.763 7.734,14.552 7.431,14.182 7.046 C 13.378 6.208,12.418 5.862,11.460 6.066 M7.563 11.069 C 7.279 11.169,7.095 11.401,6.572 12.322 C 5.811 13.658,5.622 14.213,5.624 15.100 C 5.625 15.554,5.639 15.661,5.731 15.940 C 6.099 17.051,7.012 17.716,8.480 17.941 C 9.038 18.027,14.962 18.027,15.520 17.941 C 16.512 17.789,17.200 17.462,17.717 16.896 C 18.499 16.040,18.601 14.845,18.012 13.420 C 17.838 12.997,16.950 11.473,16.774 11.294 C 16.469 10.984,16.724 11.000,11.963 11.003 C 8.245 11.006,7.719 11.014,7.563 11.069 " fill="#292D32" stroke="none" fill-rule="evenodd"></path></svg>