<svg width="24" height="24" viewBox="0 0 24 24" fill="none" xmlns="http://www.w3.org/2000/svg"><path d="M11.120 2.039 C 8.336 2.318,5.905 3.624,4.193 5.760 C 1.474 9.155,1.267 13.917,3.682 17.533 C 6.770 22.155,12.946 23.386,17.560 20.299 C 22.155 17.225,23.377 11.041,20.299 6.440 C 18.728 4.092,16.319 2.562,13.493 2.119 C 12.909 2.027,11.660 1.985,11.120 2.039 M11.840 8.342 C 11.977 8.412,12.146 8.597,12.197 8.733 C 12.260 8.898,12.249 9.148,12.173 9.314 C 12.135 9.396,11.723 9.846,11.226 10.349 L 10.347 11.237 13.023 11.249 C 15.617 11.260,15.704 11.262,15.836 11.340 C 15.910 11.384,16.027 11.489,16.096 11.574 C 16.208 11.712,16.220 11.755,16.220 12.000 C 16.220 12.244,16.207 12.289,16.098 12.426 C 16.030 12.511,15.896 12.620,15.799 12.670 L 15.623 12.760 12.984 12.760 L 10.345 12.760 11.247 13.670 C 12.221 14.654,12.266 14.718,12.231 15.083 C 12.200 15.397,11.930 15.684,11.606 15.745 C 11.279 15.807,11.256 15.788,9.506 14.047 C 8.583 13.128,7.847 12.364,7.816 12.291 C 7.785 12.220,7.760 12.089,7.760 12.000 C 7.760 11.911,7.785 11.780,7.816 11.709 C 7.847 11.636,8.584 10.871,9.506 9.953 C 10.713 8.751,11.171 8.318,11.260 8.299 C 11.326 8.285,11.398 8.267,11.420 8.260 C 11.485 8.238,11.732 8.287,11.840 8.342 " fill="#292D32" stroke="none" fill-rule="evenodd"></path></svg>