<svg width="24" height="24" viewBox="0 0 24 24" fill="none" xmlns="http://www.w3.org/2000/svg"><path d="M11.440 8.255 C 10.907 8.403,10.966 8.350,7.989 11.318 C 6.083 13.217,5.172 14.152,5.118 14.265 C 4.853 14.810,5.095 15.474,5.648 15.724 L 5.860 15.820 12.000 15.820 L 18.140 15.820 18.352 15.724 C 18.863 15.493,19.113 14.916,18.935 14.377 C 18.876 14.198,18.620 13.929,16.125 11.425 C 14.383 9.677,13.293 8.614,13.143 8.515 C 12.799 8.289,12.474 8.199,12.006 8.203 C 11.794 8.204,11.539 8.228,11.440 8.255 " fill="#292D32" stroke="none" fill-rule="evenodd"></path></svg>