<svg width="24" height="24" viewBox="0 0 24 24" fill="none" xmlns="http://www.w3.org/2000/svg"><path d="M6.960 2.046 C 6.236 2.116,5.358 2.357,4.796 2.641 C 4.426 2.828,3.928 3.183,3.624 3.475 C 2.737 4.332,2.251 5.370,2.062 6.812 C 1.970 7.515,1.969 16.481,2.061 17.188 C 2.239 18.550,2.681 19.544,3.476 20.372 C 4.162 21.084,4.935 21.524,5.956 21.780 C 6.817 21.997,6.896 22.000,11.993 22.000 C 14.960 22.000,16.828 21.985,17.041 21.959 C 19.985 21.603,21.695 19.840,21.962 16.885 C 21.990 16.579,21.999 14.787,21.989 11.660 C 21.974 7.001,21.972 6.891,21.889 6.456 C 21.642 5.171,21.165 4.235,20.369 3.478 C 19.583 2.729,18.652 2.295,17.359 2.076 C 16.995 2.014,7.572 1.987,6.960 2.046 M12.380 5.362 C 12.446 5.403,13.502 6.441,14.727 7.668 C 17.065 10.012,17.041 9.984,17.039 10.320 C 17.037 10.621,16.718 10.977,16.409 11.024 C 16.026 11.081,16.037 11.090,14.331 9.388 L 12.761 7.823 12.751 13.001 C 12.740 18.166,12.740 18.180,12.656 18.340 C 12.610 18.428,12.497 18.554,12.404 18.619 C 12.263 18.719,12.196 18.739,12.000 18.739 C 11.804 18.739,11.737 18.719,11.596 18.619 C 11.503 18.554,11.390 18.428,11.344 18.340 C 11.260 18.180,11.260 18.166,11.249 13.001 L 11.239 7.823 9.669 9.388 C 7.956 11.097,7.976 11.081,7.582 11.022 C 7.257 10.974,6.962 10.621,6.962 10.280 C 6.962 10.203,6.995 10.068,7.037 9.980 C 7.147 9.743,11.577 5.335,11.740 5.299 C 11.806 5.285,11.878 5.267,11.900 5.259 C 11.981 5.230,12.264 5.291,12.380 5.362 " fill="#292D32" stroke="none" fill-rule="evenodd"></path></svg>