<svg width="24" height="24" viewBox="0 0 24 24" fill="none" xmlns="http://www.w3.org/2000/svg"><path d="M11.120 2.039 C 8.336 2.318,5.905 3.624,4.193 5.760 C 1.474 9.155,1.267 13.917,3.682 17.533 C 6.770 22.155,12.946 23.386,17.560 20.299 C 22.155 17.225,23.377 11.041,20.299 6.440 C 18.728 4.092,16.319 2.562,13.493 2.119 C 12.909 2.027,11.660 1.985,11.120 2.039 M12.441 7.909 C 12.699 8.088,15.577 10.994,15.661 11.158 C 15.746 11.327,15.749 11.668,15.667 11.826 C 15.588 11.976,15.408 12.145,15.267 12.197 C 15.124 12.252,14.877 12.252,14.733 12.198 C 14.671 12.175,14.202 11.739,13.691 11.230 L 12.763 10.303 12.751 13.002 C 12.739 15.968,12.753 15.802,12.494 16.047 C 12.217 16.309,11.783 16.309,11.506 16.047 C 11.247 15.802,11.261 15.966,11.249 13.023 L 11.237 10.347 10.346 11.232 C 9.787 11.788,9.400 12.141,9.309 12.179 C 8.932 12.336,8.521 12.186,8.331 11.821 C 8.250 11.667,8.251 11.331,8.332 11.179 C 8.416 11.020,11.592 7.855,11.720 7.802 C 11.775 7.779,11.919 7.766,12.041 7.772 C 12.212 7.781,12.303 7.812,12.441 7.909 " fill="#292D32" stroke="none" fill-rule="evenodd"></path></svg>