<svg width="24" height="24" viewBox="0 0 24 24" fill="none" xmlns="http://www.w3.org/2000/svg"><path d="M14.538 5.655 C 14.152 5.718,13.643 5.883,13.260 6.067 C 12.679 6.347,11.459 7.066,11.299 7.223 C 10.982 7.533,11.000 7.246,11.000 12.000 C 11.000 16.752,10.982 16.467,11.298 16.777 C 11.468 16.944,12.975 17.820,13.420 18.010 C 14.566 18.500,15.653 18.511,16.466 18.042 C 17.263 17.582,17.807 16.619,17.958 15.401 C 18.015 14.943,18.015 9.057,17.958 8.599 C 17.767 7.059,16.983 5.996,15.823 5.701 C 15.481 5.614,14.914 5.594,14.538 5.655 M9.300 8.335 C 9.079 8.437,7.867 9.162,7.606 9.348 C 7.261 9.594,6.840 9.997,6.613 10.296 C 6.253 10.771,6.000 11.472,6.000 11.995 C 6.000 12.750,6.379 13.543,7.046 14.182 C 7.431 14.552,7.734 14.763,8.632 15.287 C 9.427 15.751,9.520 15.780,9.748 15.642 C 10.013 15.480,10.000 15.667,10.000 12.021 C 10.000 9.322,9.990 8.694,9.945 8.587 C 9.845 8.348,9.535 8.226,9.300 8.335 " fill="#292D32" stroke="none" fill-rule="evenodd"></path></svg>