<svg width="24" height="24" viewBox="0 0 24 24" fill="none" xmlns="http://www.w3.org/2000/svg"><path d="M3.640 1.359 C 3.563 1.400,3.011 1.926,2.413 2.527 C 1.459 3.487,1.321 3.642,1.280 3.796 C 1.231 3.984,1.253 4.193,1.340 4.359 C 1.370 4.414,1.895 4.957,2.507 5.564 C 3.523 6.572,3.636 6.672,3.807 6.714 C 4.374 6.852,4.834 6.394,4.711 5.814 C 4.675 5.649,4.615 5.568,4.245 5.188 L 3.820 4.751 4.860 4.771 C 5.718 4.788,5.965 4.806,6.271 4.874 C 7.195 5.082,8.019 5.457,8.740 5.996 C 9.258 6.383,9.936 7.114,10.288 7.664 C 10.482 7.966,10.802 8.641,10.923 9.002 C 11.206 9.846,11.210 9.891,11.236 12.160 C 11.262 14.394,11.256 14.332,11.487 14.548 C 11.609 14.663,11.845 14.760,12.000 14.760 C 12.155 14.760,12.391 14.663,12.513 14.548 C 12.744 14.332,12.738 14.394,12.764 12.160 C 12.786 10.250,12.794 10.073,12.873 9.729 C 13.169 8.439,13.746 7.406,14.666 6.518 C 15.549 5.665,16.511 5.148,17.729 4.874 C 18.036 4.805,18.279 4.788,19.140 4.772 L 20.180 4.753 19.794 5.147 C 19.322 5.628,19.266 5.729,19.287 6.061 C 19.300 6.254,19.327 6.342,19.409 6.450 C 19.593 6.690,19.932 6.792,20.260 6.705 C 20.425 6.662,22.580 4.523,22.684 4.300 C 22.775 4.104,22.780 3.925,22.699 3.729 C 22.623 3.545,20.570 1.471,20.352 1.357 C 20.013 1.181,19.550 1.305,19.371 1.621 C 19.272 1.796,19.249 2.114,19.322 2.305 C 19.345 2.366,19.546 2.601,19.770 2.828 L 20.175 3.240 19.598 3.240 C 17.959 3.241,16.841 3.457,15.712 3.991 C 14.221 4.696,12.884 5.968,12.157 7.374 C 12.082 7.520,12.011 7.639,12.000 7.638 C 11.989 7.637,11.867 7.435,11.729 7.188 C 10.973 5.840,9.796 4.732,8.384 4.042 C 7.200 3.464,6.096 3.241,4.404 3.240 L 3.827 3.240 4.249 2.808 C 4.615 2.432,4.675 2.351,4.711 2.186 C 4.786 1.831,4.648 1.507,4.358 1.359 C 4.158 1.257,3.830 1.257,3.640 1.359 M11.807 15.288 C 11.558 15.343,11.342 15.571,11.284 15.838 C 11.259 15.956,11.240 16.453,11.240 17.000 C 11.240 17.547,11.259 18.044,11.284 18.162 C 11.424 18.815,12.311 18.943,12.640 18.358 L 12.740 18.180 12.740 17.000 C 12.740 15.856,12.737 15.815,12.651 15.653 C 12.523 15.415,12.388 15.328,12.040 15.261 C 12.007 15.255,11.902 15.267,11.807 15.288 M11.785 19.288 C 11.580 19.344,11.336 19.591,11.280 19.801 C 11.251 19.909,11.240 20.355,11.248 21.096 L 11.260 22.226 11.367 22.388 C 11.682 22.864,12.318 22.864,12.633 22.388 L 12.740 22.226 12.740 20.996 L 12.740 19.767 12.620 19.597 C 12.427 19.323,12.100 19.202,11.785 19.288 " fill="#292D32" stroke="none" fill-rule="evenodd"></path></svg>