<svg width="24" height="24" viewBox="0 0 24 24" fill="none" xmlns="http://www.w3.org/2000/svg"><path d="M8.905 5.066 C 8.632 5.149,8.316 5.469,8.238 5.740 C 8.189 5.910,8.180 6.843,8.180 12.060 L 8.180 18.180 8.275 18.371 C 8.524 18.873,9.092 19.110,9.623 18.935 C 9.802 18.876,10.070 18.621,12.572 16.125 C 14.319 14.383,15.383 13.292,15.483 13.140 C 15.926 12.470,15.927 11.529,15.485 10.857 C 15.386 10.707,14.320 9.614,12.575 7.873 C 9.908 5.214,9.813 5.125,9.603 5.063 C 9.338 4.986,9.161 4.987,8.905 5.066 " fill="#292D32" stroke="none" fill-rule="evenodd"></path></svg>