<svg width="24" height="24" viewBox="0 0 24 24" fill="none" xmlns="http://www.w3.org/2000/svg"><path d="M6.960 2.046 C 6.236 2.116,5.358 2.357,4.796 2.641 C 4.426 2.828,3.928 3.183,3.624 3.475 C 2.737 4.332,2.251 5.370,2.062 6.812 C 1.970 7.515,1.969 16.481,2.061 17.188 C 2.239 18.550,2.681 19.544,3.476 20.372 C 4.162 21.084,4.935 21.524,5.956 21.780 C 6.817 21.997,6.896 22.000,11.993 22.000 C 14.960 22.000,16.828 21.985,17.041 21.959 C 19.985 21.603,21.695 19.840,21.962 16.885 C 21.990 16.579,21.999 14.787,21.989 11.660 C 21.974 7.001,21.972 6.891,21.889 6.456 C 21.642 5.171,21.165 4.235,20.369 3.478 C 19.583 2.729,18.652 2.295,17.359 2.076 C 16.995 2.014,7.572 1.987,6.960 2.046 M12.352 5.349 C 12.517 5.426,12.659 5.610,12.716 5.820 C 12.746 5.932,12.760 7.517,12.760 11.079 L 12.760 16.179 14.330 14.613 C 15.658 13.288,15.925 13.040,16.060 13.004 C 16.276 12.945,16.376 12.949,16.551 13.022 C 16.748 13.104,16.875 13.226,16.964 13.420 C 17.058 13.624,17.058 13.818,16.963 14.020 C 16.913 14.128,16.160 14.907,14.634 16.427 C 12.601 18.453,12.363 18.678,12.204 18.720 C 12.015 18.770,11.806 18.747,11.641 18.659 C 11.586 18.630,10.529 17.592,9.293 16.353 C 6.934 13.987,6.959 14.016,6.961 13.680 C 6.962 13.543,7.089 13.279,7.205 13.172 C 7.320 13.066,7.563 12.960,7.689 12.960 C 8.009 12.961,8.037 12.984,9.670 14.613 L 11.240 16.179 11.240 11.087 C 11.240 7.360,11.252 5.946,11.286 5.811 C 11.402 5.353,11.901 5.136,12.352 5.349 " fill="#292D32" stroke="none" fill-rule="evenodd"></path></svg>