<svg width="24" height="24" viewBox="0 0 24 24" fill="none" xmlns="http://www.w3.org/2000/svg"><path d="M6.960 2.046 C 6.236 2.116,5.358 2.357,4.796 2.641 C 4.426 2.828,3.928 3.183,3.624 3.475 C 2.737 4.332,2.251 5.370,2.062 6.812 C 1.970 7.515,1.969 16.481,2.061 17.188 C 2.239 18.550,2.681 19.544,3.476 20.372 C 4.162 21.084,4.935 21.524,5.956 21.780 C 6.817 21.997,6.896 22.000,11.993 22.000 C 14.960 22.000,16.828 21.985,17.041 21.959 C 19.985 21.603,21.695 19.840,21.962 16.885 C 21.990 16.579,21.999 14.787,21.989 11.660 C 21.974 7.001,21.972 6.891,21.889 6.456 C 21.642 5.171,21.165 4.235,20.369 3.478 C 19.583 2.729,18.652 2.295,17.359 2.076 C 16.995 2.014,7.572 1.987,6.960 2.046 M8.820 9.990 C 8.886 10.022,9.629 10.735,10.470 11.574 L 12.000 13.099 13.530 11.574 C 14.372 10.735,15.122 10.017,15.198 9.979 C 15.367 9.894,15.708 9.891,15.866 9.973 C 16.102 10.096,16.281 10.388,16.279 10.649 C 16.277 10.934,16.160 11.068,14.274 12.949 C 12.393 14.825,12.282 14.920,12.000 14.920 C 11.933 14.920,11.811 14.892,11.729 14.859 C 11.524 14.774,7.902 11.165,7.797 10.940 C 7.702 10.738,7.701 10.545,7.795 10.338 C 7.876 10.161,8.077 9.970,8.213 9.942 C 8.423 9.897,8.467 9.894,8.580 9.912 C 8.646 9.923,8.754 9.958,8.820 9.990 " fill="#292D32" stroke="none" fill-rule="evenodd"></path></svg>