<svg width="24" height="24" viewBox="0 0 24 24" fill="none" xmlns="http://www.w3.org/2000/svg"><path d="M6.960 2.046 C 6.236 2.116,5.358 2.357,4.796 2.641 C 4.426 2.828,3.928 3.183,3.624 3.475 C 2.737 4.332,2.251 5.370,2.062 6.812 C 1.970 7.515,1.969 16.481,2.061 17.188 C 2.239 18.550,2.681 19.544,3.476 20.372 C 4.162 21.084,4.935 21.524,5.956 21.780 C 6.817 21.997,6.896 22.000,11.993 22.000 C 14.960 22.000,16.828 21.985,17.041 21.959 C 19.985 21.603,21.695 19.840,21.962 16.885 C 21.990 16.579,21.999 14.787,21.989 11.660 C 21.974 7.001,21.972 6.891,21.889 6.456 C 21.642 5.171,21.165 4.235,20.369 3.478 C 19.583 2.729,18.652 2.295,17.359 2.076 C 16.995 2.014,7.572 1.987,6.960 2.046 M10.605 6.362 C 10.787 6.456,10.902 6.610,10.959 6.843 C 10.990 6.968,11.000 8.521,10.991 12.123 L 10.980 17.226 10.868 17.394 C 10.681 17.677,10.426 17.790,10.086 17.741 C 9.905 17.715,9.861 17.675,8.287 16.107 C 7.400 15.223,6.646 14.446,6.611 14.381 C 6.531 14.229,6.531 13.893,6.611 13.739 C 6.692 13.584,6.871 13.416,7.013 13.363 C 7.157 13.308,7.403 13.308,7.547 13.363 C 7.609 13.386,8.069 13.813,8.570 14.311 L 9.480 15.218 9.481 11.039 C 9.482 7.071,9.485 6.852,9.555 6.698 C 9.640 6.512,9.838 6.331,9.993 6.296 C 10.052 6.284,10.118 6.266,10.140 6.258 C 10.213 6.232,10.454 6.286,10.605 6.362 M14.031 6.301 C 14.215 6.377,17.248 9.387,17.363 9.608 C 17.503 9.878,17.454 10.235,17.247 10.453 C 17.047 10.665,16.825 10.732,16.531 10.671 C 16.353 10.633,16.279 10.570,15.431 9.728 L 14.521 8.825 14.511 13.003 C 14.500 17.151,14.499 17.181,14.416 17.340 C 14.210 17.735,13.707 17.867,13.356 17.619 C 13.263 17.554,13.150 17.428,13.104 17.340 C 13.020 17.180,13.020 17.176,13.020 11.973 L 13.020 6.767 13.141 6.593 C 13.354 6.287,13.711 6.169,14.031 6.301 " fill="#292D32" stroke="none" fill-rule="evenodd"></path></svg>