<svg width="24" height="24" viewBox="0 0 24 24" fill="none" xmlns="http://www.w3.org/2000/svg"><path d="M6.574 2.278 C 6.505 2.295,6.388 2.346,6.314 2.392 C 6.240 2.438,5.314 3.345,4.256 4.408 C 2.470 6.201,2.328 6.354,2.280 6.532 C 2.132 7.082,2.646 7.587,3.204 7.440 C 3.360 7.399,3.527 7.247,4.670 6.108 L 5.959 4.823 5.970 13.001 L 5.980 21.180 6.089 21.366 C 6.211 21.574,6.520 21.761,6.738 21.759 C 6.894 21.758,7.155 21.638,7.268 21.515 C 7.494 21.269,7.480 21.837,7.480 12.973 L 7.480 4.824 8.770 6.105 C 9.851 7.178,10.087 7.393,10.225 7.433 C 10.448 7.497,10.552 7.491,10.740 7.404 C 11.133 7.223,11.299 6.795,11.123 6.420 C 11.073 6.313,10.404 5.617,9.094 4.311 C 6.925 2.148,6.970 2.184,6.574 2.278 M17.180 2.260 C 17.158 2.267,17.092 2.284,17.033 2.296 C 16.878 2.331,16.680 2.512,16.595 2.698 C 16.525 2.853,16.522 3.190,16.521 11.019 L 16.520 19.178 15.270 17.934 C 14.582 17.249,13.960 16.659,13.888 16.622 C 13.815 16.585,13.671 16.555,13.568 16.554 C 13.231 16.553,13.010 16.688,12.876 16.980 C 12.782 17.184,12.782 17.377,12.877 17.580 C 12.927 17.688,13.593 18.379,14.926 19.705 C 16.730 21.500,16.915 21.673,17.078 21.712 C 17.204 21.743,17.316 21.743,17.458 21.714 C 17.656 21.673,17.703 21.628,19.613 19.726 C 20.687 18.656,21.601 17.713,21.643 17.632 C 21.750 17.425,21.744 17.105,21.629 16.902 C 21.476 16.631,21.151 16.498,20.811 16.569 C 20.630 16.607,20.554 16.675,19.339 17.884 C 18.634 18.586,18.045 19.160,18.029 19.160 C 18.013 19.160,17.996 15.464,17.990 10.947 L 17.980 2.734 17.881 2.589 C 17.826 2.509,17.718 2.410,17.641 2.367 C 17.502 2.291,17.258 2.234,17.180 2.260 " fill="#292D32" stroke="none" fill-rule="evenodd"></path></svg>