<svg width="24" height="24" viewBox="0 0 24 24" fill="none" xmlns="http://www.w3.org/2000/svg"><path d="M6.960 2.046 C 6.236 2.116,5.358 2.357,4.796 2.641 C 4.426 2.828,3.928 3.183,3.624 3.475 C 2.737 4.332,2.251 5.370,2.062 6.812 C 1.970 7.515,1.969 16.481,2.061 17.188 C 2.239 18.550,2.681 19.544,3.476 20.372 C 4.162 21.084,4.935 21.524,5.956 21.780 C 6.817 21.997,6.896 22.000,11.993 22.000 C 14.960 22.000,16.828 21.985,17.041 21.959 C 19.985 21.603,21.695 19.840,21.962 16.885 C 21.990 16.579,21.999 14.787,21.989 11.660 C 21.974 7.001,21.972 6.891,21.889 6.456 C 21.642 5.171,21.165 4.235,20.369 3.478 C 19.583 2.729,18.652 2.295,17.359 2.076 C 16.995 2.014,7.572 1.987,6.960 2.046 M11.040 7.803 C 11.175 7.864,11.661 8.325,12.991 9.652 C 13.966 10.625,14.810 11.488,14.867 11.571 C 14.992 11.751,15.031 12.043,14.960 12.265 C 14.920 12.388,14.547 12.784,13.165 14.175 C 12.205 15.139,11.334 15.998,11.229 16.082 C 10.829 16.404,10.299 16.310,10.079 15.878 C 9.993 15.709,9.976 15.430,10.042 15.253 C 10.065 15.191,10.789 14.433,11.652 13.570 L 13.220 12.000 11.652 10.430 C 10.789 9.566,10.065 8.809,10.042 8.747 C 9.941 8.477,10.029 8.091,10.233 7.906 C 10.336 7.813,10.583 7.724,10.740 7.723 C 10.806 7.722,10.941 7.758,11.040 7.803 " fill="#292D32" stroke="none" fill-rule="evenodd"></path></svg>