<svg width="24" height="24" viewBox="0 0 24 24" fill="none" xmlns="http://www.w3.org/2000/svg"><path d="M14.380 5.066 C 14.194 5.122,13.994 5.312,11.425 7.873 C 9.671 9.623,8.614 10.707,8.514 10.858 C 8.064 11.542,8.071 12.474,8.532 13.164 C 8.611 13.283,9.915 14.616,11.428 16.127 C 14.178 18.872,14.180 18.874,14.417 18.942 C 14.708 19.025,14.962 19.001,15.227 18.866 C 15.470 18.742,15.611 18.594,15.728 18.340 L 15.820 18.140 15.820 12.040 C 15.820 6.841,15.811 5.910,15.762 5.740 C 15.681 5.458,15.369 5.150,15.079 5.063 C 14.819 4.986,14.642 4.987,14.380 5.066 " fill="#292D32" stroke="none" fill-rule="evenodd"></path></svg>