<svg width="24" height="24" viewBox="0 0 24 24" fill="none" xmlns="http://www.w3.org/2000/svg"><path d="M8.607 6.043 C 7.113 6.222,6.106 6.928,5.731 8.060 C 5.639 8.339,5.625 8.446,5.624 8.900 C 5.623 9.485,5.698 9.854,5.945 10.474 C 6.136 10.953,7.022 12.498,7.223 12.702 C 7.533 13.018,7.247 13.000,12.000 13.000 C 16.752 13.000,16.467 13.018,16.777 12.702 C 16.950 12.527,17.840 10.996,18.012 10.580 C 18.503 9.393,18.513 8.350,18.042 7.534 C 17.647 6.850,16.863 6.340,15.860 6.115 C 15.465 6.026,15.418 6.025,12.180 6.017 C 10.376 6.012,8.768 6.024,8.607 6.043 M8.560 14.070 C 8.386 14.157,8.269 14.371,8.296 14.553 C 8.317 14.693,8.956 15.821,9.293 16.312 C 9.885 17.176,10.696 17.776,11.488 17.937 C 11.878 18.017,12.123 18.016,12.512 17.937 C 13.295 17.776,14.061 17.221,14.661 16.381 C 15.002 15.903,15.720 14.635,15.720 14.511 C 15.720 14.347,15.616 14.169,15.468 14.078 C 15.344 14.003,15.242 14.000,12.020 14.000 C 8.939 14.000,8.690 14.005,8.560 14.070 " fill="#292D32" stroke="none" fill-rule="evenodd"></path></svg>