<svg width="24" height="24" viewBox="0 0 24 24" fill="none" xmlns="http://www.w3.org/2000/svg"><path d="M11.120 2.039 C 8.192 2.332,5.648 3.774,3.923 6.119 C 2.041 8.678,1.501 12.071,2.496 15.094 C 3.849 19.205,7.695 22.000,12.000 22.000 C 17.491 22.000,22.000 17.491,22.000 12.000 C 22.000 7.433,18.865 3.424,14.417 2.302 C 13.472 2.064,12.026 1.949,11.120 2.039 M12.402 9.115 C 12.500 9.179,13.383 10.038,14.365 11.025 C 16.312 12.983,16.323 12.996,16.263 13.369 C 16.191 13.828,15.689 14.120,15.253 13.958 C 15.191 13.935,14.434 13.211,13.570 12.349 L 12.000 10.781 10.430 12.348 C 9.567 13.210,8.809 13.935,8.747 13.958 C 8.172 14.173,7.600 13.640,7.760 13.038 C 7.803 12.878,7.991 12.676,9.614 11.045 C 10.607 10.047,11.500 9.179,11.598 9.115 C 11.849 8.953,12.152 8.953,12.402 9.115 " fill="#292D32" stroke="none" fill-rule="evenodd"></path></svg>