<svg width="24" height="24" viewBox="0 0 24 24" fill="none" xmlns="http://www.w3.org/2000/svg"><path d="M11.120 2.039 C 8.192 2.332,5.648 3.774,3.923 6.119 C 2.041 8.678,1.501 12.071,2.496 15.094 C 3.849 19.205,7.695 22.000,12.000 22.000 C 17.491 22.000,22.000 17.491,22.000 12.000 C 22.000 7.433,18.865 3.424,14.417 2.302 C 13.472 2.064,12.026 1.949,11.120 2.039 M8.751 10.061 C 8.852 10.103,9.396 10.618,10.450 11.671 L 12.000 13.220 13.550 11.671 C 14.604 10.618,15.148 10.103,15.249 10.061 C 15.845 9.815,16.444 10.388,16.220 10.991 C 16.160 11.152,15.880 11.451,14.345 12.993 C 13.352 13.990,12.463 14.852,12.369 14.908 C 12.136 15.046,11.865 15.046,11.631 14.908 C 11.537 14.852,10.638 13.981,9.634 12.973 C 7.991 11.325,7.803 11.122,7.760 10.962 C 7.596 10.345,8.172 9.822,8.751 10.061 " fill="#292D32" stroke="none" fill-rule="evenodd"></path></svg>