<svg width="24" height="24" viewBox="0 0 24 24" fill="none" xmlns="http://www.w3.org/2000/svg"><path d="M11.120 2.039 C 8.192 2.332,5.648 3.774,3.923 6.119 C 2.041 8.678,1.501 12.071,2.496 15.094 C 3.849 19.205,7.695 22.000,12.000 22.000 C 17.491 22.000,22.000 17.491,22.000 12.000 C 22.000 7.433,18.865 3.424,14.417 2.302 C 13.472 2.064,12.026 1.949,11.120 2.039 M11.040 7.803 C 11.175 7.864,11.661 8.325,12.991 9.652 C 13.966 10.625,14.810 11.488,14.867 11.571 C 14.992 11.751,15.031 12.043,14.960 12.265 C 14.920 12.388,14.547 12.784,13.165 14.175 C 12.205 15.139,11.334 15.998,11.229 16.082 C 10.829 16.404,10.299 16.310,10.079 15.878 C 9.993 15.709,9.976 15.430,10.042 15.253 C 10.065 15.191,10.789 14.433,11.652 13.570 L 13.220 12.000 11.652 10.430 C 10.789 9.566,10.065 8.809,10.042 8.747 C 9.941 8.477,10.029 8.091,10.233 7.906 C 10.336 7.813,10.583 7.724,10.740 7.723 C 10.806 7.722,10.941 7.758,11.040 7.803 " fill="#292D32" stroke="none" fill-rule="evenodd"></path></svg>