<svg width="24" height="24" viewBox="0 0 24 24" fill="none" xmlns="http://www.w3.org/2000/svg"><path d="M6.960 2.046 C 6.236 2.116,5.358 2.357,4.796 2.641 C 4.426 2.828,3.928 3.183,3.624 3.475 C 2.737 4.332,2.251 5.370,2.062 6.812 C 1.970 7.515,1.969 16.481,2.061 17.188 C 2.239 18.550,2.681 19.544,3.476 20.372 C 4.162 21.084,4.935 21.524,5.956 21.780 C 6.817 21.997,6.896 22.000,11.993 22.000 C 14.960 22.000,16.828 21.985,17.041 21.959 C 19.985 21.603,21.695 19.840,21.962 16.885 C 21.990 16.579,21.999 14.787,21.989 11.660 C 21.974 7.001,21.972 6.891,21.889 6.456 C 21.642 5.171,21.165 4.235,20.369 3.478 C 19.583 2.729,18.652 2.295,17.359 2.076 C 16.995 2.014,7.572 1.987,6.960 2.046 M7.565 6.143 C 7.743 6.267,7.880 6.523,7.880 6.734 C 7.880 6.976,7.775 7.162,7.455 7.484 L 7.154 7.788 7.727 7.813 C 8.615 7.851,9.295 8.032,10.044 8.427 C 10.755 8.801,11.460 9.433,11.922 10.107 L 12.141 10.428 12.358 10.109 C 12.825 9.422,13.535 8.792,14.274 8.409 C 14.964 8.050,15.627 7.867,16.412 7.816 L 16.843 7.788 16.526 7.464 C 16.213 7.143,16.121 6.976,16.120 6.729 C 16.120 6.603,16.226 6.360,16.332 6.245 C 16.439 6.129,16.703 6.002,16.840 6.001 C 17.154 5.999,17.226 6.053,18.253 7.074 C 18.799 7.616,19.281 8.127,19.323 8.208 C 19.422 8.399,19.422 8.681,19.323 8.872 C 19.281 8.953,18.790 9.474,18.233 10.028 C 17.278 10.979,17.210 11.038,17.040 11.065 C 16.941 11.081,16.860 11.093,16.860 11.093 C 16.860 11.093,16.785 11.081,16.693 11.067 C 16.269 10.999,16.004 10.476,16.180 10.055 C 16.212 9.977,16.368 9.779,16.526 9.616 L 16.814 9.320 16.525 9.320 C 15.146 9.320,13.722 10.317,13.172 11.667 C 12.890 12.357,12.881 12.461,12.880 15.060 C 12.878 17.224,12.873 17.391,12.805 17.542 C 12.549 18.105,11.817 18.141,11.490 17.607 L 11.400 17.460 11.400 15.259 C 11.400 13.014,11.380 12.612,11.241 12.100 C 10.965 11.077,10.233 10.193,9.260 9.708 C 8.710 9.434,8.219 9.320,7.590 9.320 L 7.186 9.320 7.474 9.616 C 7.632 9.779,7.788 9.977,7.820 10.055 C 7.996 10.476,7.731 10.999,7.307 11.067 C 7.215 11.081,7.131 11.092,7.120 11.090 C 7.109 11.088,7.028 11.076,6.940 11.062 C 6.796 11.039,6.677 10.934,5.766 10.028 C 5.115 9.381,4.724 8.963,4.676 8.860 C 4.579 8.652,4.580 8.426,4.680 8.220 C 4.797 7.979,6.698 6.100,6.881 6.045 C 7.096 5.980,7.390 6.022,7.565 6.143 " fill="#292D32" stroke="none" fill-rule="evenodd"></path></svg>