<svg width="24" height="24" viewBox="0 0 24 24" fill="none" xmlns="http://www.w3.org/2000/svg"><path d="M8.461 5.645 C 7.257 5.820,6.446 6.696,6.095 8.200 C 6.033 8.469,6.024 8.830,6.010 11.740 C 6.000 13.938,6.009 15.102,6.039 15.359 C 6.156 16.368,6.515 17.170,7.084 17.697 C 7.947 18.496,9.183 18.607,10.580 18.010 C 11.025 17.820,12.532 16.944,12.702 16.777 C 13.018 16.467,13.000 16.752,13.000 12.000 C 13.000 7.246,13.018 7.533,12.701 7.223 C 12.545 7.069,11.334 6.354,10.760 6.076 C 10.358 5.880,9.857 5.722,9.440 5.659 C 9.023 5.595,8.822 5.592,8.461 5.645 M14.280 8.348 C 13.986 8.499,14.000 8.310,14.000 12.012 C 14.000 15.668,13.987 15.480,14.252 15.642 C 14.480 15.780,14.573 15.751,15.368 15.287 C 16.237 14.780,16.551 14.563,16.927 14.208 C 17.464 13.702,17.813 13.115,17.937 12.512 C 18.016 12.123,18.017 11.878,17.937 11.488 C 17.776 10.696,17.176 9.885,16.312 9.293 C 15.821 8.956,14.693 8.317,14.553 8.296 C 14.469 8.284,14.368 8.303,14.280 8.348 " fill="#292D32" stroke="none" fill-rule="evenodd"></path></svg>