<svg width="24" height="24" viewBox="0 0 24 24" fill="none" xmlns="http://www.w3.org/2000/svg"><path d="M16.875 2.395 C 16.598 2.570,16.476 2.884,16.560 3.203 C 16.601 3.360,16.752 3.526,17.912 4.690 L 19.218 5.999 10.976 6.010 L 2.734 6.020 2.583 6.135 C 2.306 6.346,2.191 6.640,2.276 6.922 C 2.338 7.128,2.501 7.315,2.698 7.405 C 2.853 7.475,3.190 7.478,11.019 7.479 L 19.177 7.480 17.896 8.770 C 16.819 9.854,16.606 10.086,16.567 10.225 C 16.510 10.425,16.509 10.460,16.562 10.649 C 16.645 10.950,16.970 11.198,17.280 11.198 C 17.357 11.198,17.492 11.165,17.580 11.123 C 17.688 11.073,18.381 10.404,19.704 9.074 C 21.522 7.248,21.673 7.086,21.720 6.910 C 21.761 6.756,21.761 6.684,21.719 6.530 C 21.672 6.355,21.523 6.193,19.764 4.425 C 18.717 3.372,17.780 2.459,17.682 2.395 C 17.432 2.233,17.130 2.233,16.875 2.395 M6.420 12.877 C 6.312 12.927,5.621 13.593,4.295 14.926 C 2.500 16.730,2.327 16.915,2.288 17.078 C 2.257 17.204,2.257 17.316,2.286 17.458 C 2.327 17.656,2.368 17.700,4.334 19.666 C 6.265 21.597,6.347 21.674,6.531 21.712 C 7.110 21.830,7.551 21.389,7.431 20.811 C 7.393 20.630,7.325 20.554,6.116 19.339 C 5.414 18.634,4.840 18.045,4.840 18.029 C 4.840 18.013,8.536 17.996,13.053 17.990 L 21.266 17.980 21.411 17.881 C 21.795 17.617,21.846 17.043,21.513 16.732 C 21.271 16.506,21.837 16.520,12.972 16.520 L 4.822 16.520 6.066 15.270 C 6.751 14.582,7.341 13.960,7.378 13.888 C 7.415 13.815,7.445 13.671,7.446 13.568 C 7.447 13.231,7.312 13.010,7.020 12.876 C 6.816 12.782,6.623 12.782,6.420 12.877 " fill="#292D32" stroke="none" fill-rule="evenodd"></path></svg>