<svg width="24" height="24" viewBox="0 0 24 24" fill="none" xmlns="http://www.w3.org/2000/svg"><path d="M6.960 2.046 C 6.236 2.116,5.358 2.357,4.796 2.641 C 4.426 2.828,3.928 3.183,3.624 3.475 C 2.737 4.332,2.251 5.370,2.062 6.812 C 1.970 7.515,1.969 16.481,2.061 17.188 C 2.239 18.550,2.681 19.544,3.476 20.372 C 4.162 21.084,4.935 21.524,5.956 21.780 C 6.817 21.997,6.896 22.000,11.993 22.000 C 14.960 22.000,16.828 21.985,17.041 21.959 C 19.985 21.603,21.695 19.840,21.962 16.885 C 21.990 16.579,21.999 14.787,21.989 11.660 C 21.974 7.001,21.972 6.891,21.889 6.456 C 21.642 5.171,21.165 4.235,20.369 3.478 C 19.583 2.729,18.652 2.295,17.359 2.076 C 16.995 2.014,7.572 1.987,6.960 2.046 M12.441 9.349 C 12.539 9.417,13.406 10.262,14.368 11.227 C 16.141 13.006,16.277 13.163,16.279 13.440 C 16.282 13.949,15.802 14.320,15.325 14.177 C 15.160 14.128,14.968 13.950,13.581 12.561 L 12.021 11.001 10.481 12.538 C 8.866 14.149,8.797 14.207,8.456 14.207 C 7.940 14.207,7.586 13.683,7.781 13.209 C 7.854 13.033,11.508 9.346,11.700 9.255 C 11.901 9.161,12.231 9.202,12.441 9.349 " fill="#292D32" stroke="none" fill-rule="evenodd"></path></svg>