<svg width="24" height="24" viewBox="0 0 24 24" fill="none" xmlns="http://www.w3.org/2000/svg"><path d="M6.960 2.046 C 6.236 2.116,5.358 2.357,4.796 2.641 C 4.426 2.828,3.928 3.183,3.624 3.475 C 2.737 4.332,2.251 5.370,2.062 6.812 C 1.970 7.515,1.969 16.481,2.061 17.188 C 2.239 18.550,2.681 19.544,3.476 20.372 C 4.162 21.084,4.935 21.524,5.956 21.780 C 6.817 21.997,6.896 22.000,11.993 22.000 C 14.960 22.000,16.828 21.985,17.041 21.959 C 19.985 21.603,21.695 19.840,21.962 16.885 C 21.990 16.579,21.999 14.787,21.989 11.660 C 21.974 7.001,21.972 6.891,21.889 6.456 C 21.642 5.171,21.165 4.235,20.369 3.478 C 19.583 2.729,18.652 2.295,17.359 2.076 C 16.995 2.014,7.572 1.987,6.960 2.046 M13.685 7.863 C 13.963 8.056,14.071 8.432,13.939 8.751 C 13.897 8.852,13.382 9.396,12.329 10.450 L 10.781 12.000 12.346 13.570 C 14.027 15.257,14.031 15.261,13.989 15.625 C 13.935 16.109,13.422 16.406,12.969 16.218 C 12.793 16.145,9.300 12.685,9.116 12.402 C 8.953 12.152,8.953 11.849,9.115 11.598 C 9.179 11.500,10.047 10.607,11.045 9.613 C 12.423 8.241,12.894 7.797,13.000 7.765 C 13.216 7.700,13.510 7.742,13.685 7.863 " fill="#292D32" stroke="none" fill-rule="evenodd"></path></svg>