<svg width="24" height="24" viewBox="0 0 24 24" fill="none" xmlns="http://www.w3.org/2000/svg"><path d="M11.120 2.039 C 8.336 2.318,5.905 3.624,4.193 5.760 C 1.474 9.155,1.267 13.917,3.682 17.533 C 6.770 22.155,12.946 23.386,17.560 20.299 C 22.155 17.225,23.377 11.041,20.299 6.440 C 18.728 4.092,16.319 2.562,13.493 2.119 C 12.909 2.027,11.660 1.985,11.120 2.039 M12.860 8.350 C 13.000 8.419,15.953 11.348,16.108 11.572 C 16.247 11.773,16.277 12.087,16.178 12.304 C 16.095 12.485,13.204 15.415,12.924 15.601 C 12.603 15.815,12.297 15.798,12.013 15.549 C 11.779 15.343,11.695 15.019,11.802 14.733 C 11.825 14.671,12.261 14.202,12.772 13.690 L 13.699 12.760 11.038 12.760 L 8.377 12.760 8.201 12.670 C 8.104 12.620,7.970 12.511,7.902 12.426 C 7.793 12.289,7.780 12.244,7.780 12.000 C 7.780 11.755,7.792 11.712,7.904 11.574 C 7.973 11.489,8.090 11.384,8.164 11.340 C 8.296 11.262,8.383 11.260,10.998 11.249 L 13.697 11.237 12.770 10.309 C 12.261 9.798,11.825 9.329,11.802 9.267 C 11.744 9.112,11.749 8.863,11.814 8.708 C 11.881 8.548,12.124 8.329,12.271 8.297 C 12.331 8.284,12.398 8.267,12.420 8.260 C 12.488 8.237,12.734 8.288,12.860 8.350 " fill="#292D32" stroke="none" fill-rule="evenodd"></path></svg>