<svg width="24" height="24" viewBox="0 0 24 24" fill="none" xmlns="http://www.w3.org/2000/svg"><path d="M6.960 2.046 C 6.236 2.116,5.358 2.357,4.796 2.641 C 4.426 2.828,3.928 3.183,3.624 3.475 C 2.737 4.332,2.251 5.370,2.062 6.812 C 1.970 7.515,1.969 16.481,2.061 17.188 C 2.239 18.550,2.681 19.544,3.476 20.372 C 4.162 21.084,4.935 21.524,5.956 21.780 C 6.817 21.997,6.896 22.000,11.993 22.000 C 14.960 22.000,16.828 21.985,17.041 21.959 C 19.985 21.603,21.695 19.840,21.962 16.885 C 21.990 16.579,21.999 14.787,21.989 11.660 C 21.974 7.001,21.972 6.891,21.889 6.456 C 21.642 5.171,21.165 4.235,20.369 3.478 C 19.583 2.729,18.652 2.295,17.359 2.076 C 16.995 2.014,7.572 1.987,6.960 2.046 M10.251 6.615 C 10.407 6.682,10.580 6.859,10.637 7.013 C 10.700 7.177,10.689 7.465,10.616 7.612 C 10.581 7.682,10.163 8.131,9.686 8.610 L 8.821 9.480 12.913 9.480 C 15.882 9.480,17.055 9.493,17.189 9.526 C 17.577 9.624,17.814 10.030,17.714 10.426 C 17.656 10.660,17.427 10.899,17.206 10.958 C 17.096 10.988,15.457 10.998,11.907 10.991 L 6.767 10.980 6.593 10.859 C 6.286 10.646,6.169 10.288,6.302 9.969 C 6.376 9.791,9.381 6.757,9.600 6.639 C 9.767 6.549,10.071 6.538,10.251 6.615 M17.392 13.130 C 17.685 13.324,17.798 13.609,17.715 13.951 C 17.672 14.127,17.562 14.247,16.086 15.729 C 15.211 16.608,14.442 17.348,14.366 17.384 C 14.193 17.466,13.890 17.468,13.737 17.388 C 13.584 17.308,13.416 17.128,13.363 16.987 C 13.300 16.823,13.311 16.535,13.384 16.388 C 13.419 16.318,13.837 15.868,14.314 15.390 L 15.179 14.520 11.060 14.520 C 8.283 14.520,6.890 14.506,6.787 14.477 C 6.572 14.417,6.344 14.176,6.286 13.946 C 6.190 13.566,6.424 13.145,6.785 13.049 C 6.889 13.021,8.642 13.010,12.083 13.014 L 17.226 13.020 17.392 13.130 " fill="#292D32" stroke="none" fill-rule="evenodd"></path></svg>