<svg width="24" height="24" viewBox="0 0 24 24" fill="none" xmlns="http://www.w3.org/2000/svg"><path d="M11.280 2.024 C 8.849 2.238,6.752 3.181,5.028 4.837 C 3.738 6.076,2.732 7.823,2.303 9.571 C 2.087 10.452,2.026 10.981,2.026 12.000 C 2.026 13.019,2.087 13.548,2.303 14.429 C 3.189 18.034,6.144 20.932,9.760 21.740 C 10.604 21.929,11.047 21.976,12.000 21.976 C 12.953 21.976,13.396 21.929,14.240 21.740 C 15.679 21.419,17.126 20.712,18.313 19.752 C 18.707 19.433,19.433 18.707,19.752 18.313 C 20.910 16.882,21.612 15.266,21.905 13.360 C 22.004 12.719,22.004 11.281,21.905 10.640 C 21.657 9.023,21.148 7.693,20.293 6.427 C 19.892 5.834,19.581 5.457,19.062 4.938 C 17.523 3.400,15.667 2.460,13.493 2.119 C 12.998 2.041,11.711 1.986,11.280 2.024 M13.954 6.336 C 16.733 6.942,18.377 9.727,17.536 12.406 C 17.301 13.155,16.999 13.659,16.377 14.336 C 15.796 14.970,14.101 16.635,13.838 16.832 C 12.863 17.560,11.444 17.531,10.491 16.763 C 9.830 16.230,9.468 15.461,9.474 14.600 C 9.477 14.141,9.548 13.849,9.766 13.400 C 9.922 13.079,9.985 13.006,10.879 12.106 C 11.752 11.225,11.841 11.147,12.021 11.102 C 12.710 10.927,13.214 11.665,12.805 12.250 C 12.740 12.344,12.350 12.753,11.940 13.160 C 11.056 14.037,10.985 14.145,10.982 14.620 C 10.980 14.892,10.997 14.974,11.091 15.166 C 11.220 15.428,11.451 15.653,11.715 15.773 C 11.854 15.836,11.980 15.857,12.220 15.856 C 12.738 15.856,12.797 15.813,14.133 14.486 C 14.767 13.856,15.394 13.207,15.525 13.045 C 16.236 12.168,16.444 11.053,16.100 9.968 C 15.838 9.143,15.148 8.380,14.339 8.021 C 13.551 7.671,12.489 7.671,11.701 8.021 C 11.212 8.238,10.959 8.458,9.457 9.969 C 8.026 11.409,7.969 11.472,7.806 11.800 C 7.313 12.795,7.463 13.926,8.201 14.778 C 8.465 15.083,8.543 15.280,8.502 15.538 C 8.446 15.892,8.128 16.160,7.763 16.160 C 7.518 16.160,7.355 16.067,7.075 15.768 C 6.612 15.274,6.285 14.664,6.112 13.975 C 5.981 13.453,5.983 12.529,6.116 12.020 C 6.242 11.536,6.458 11.047,6.717 10.660 C 6.997 10.241,9.791 7.434,10.240 7.122 C 10.820 6.717,11.523 6.424,12.160 6.321 C 12.325 6.295,12.487 6.266,12.520 6.258 C 12.667 6.223,13.688 6.279,13.954 6.336 " fill="#292D32" stroke="none" fill-rule="evenodd"></path></svg>