<svg width="24" height="24" viewBox="0 0 24 24" fill="none" xmlns="http://www.w3.org/2000/svg"><path d="M6.960 2.046 C 6.236 2.116,5.358 2.357,4.796 2.641 C 4.426 2.828,3.928 3.183,3.624 3.475 C 2.737 4.332,2.251 5.370,2.062 6.812 C 1.970 7.515,1.969 16.481,2.061 17.188 C 2.239 18.550,2.681 19.544,3.476 20.372 C 4.162 21.084,4.935 21.524,5.956 21.780 C 6.817 21.997,6.896 22.000,11.993 22.000 C 14.960 22.000,16.828 21.985,17.041 21.959 C 19.985 21.603,21.695 19.840,21.962 16.885 C 21.990 16.579,21.999 14.787,21.989 11.660 C 21.974 7.001,21.972 6.891,21.889 6.456 C 21.642 5.171,21.165 4.235,20.369 3.478 C 19.583 2.729,18.652 2.295,17.359 2.076 C 16.995 2.014,7.572 1.987,6.960 2.046 M13.940 6.341 C 15.828 6.730,17.250 8.151,17.663 10.060 C 17.759 10.508,17.760 11.464,17.665 11.912 C 17.521 12.585,17.310 13.087,16.932 13.654 C 16.723 13.969,16.439 14.284,15.564 15.172 C 14.194 16.563,13.842 16.876,13.415 17.084 C 12.072 17.738,10.408 17.183,9.768 15.867 C 9.560 15.440,9.510 15.244,9.490 14.774 C 9.465 14.219,9.540 13.851,9.769 13.389 C 9.919 13.087,10.007 12.984,10.856 12.125 C 11.364 11.611,11.838 11.166,11.909 11.135 C 12.355 10.943,12.871 11.227,12.943 11.705 C 12.995 12.052,12.914 12.170,11.961 13.140 C 11.180 13.935,11.090 14.041,11.028 14.235 C 10.837 14.837,11.106 15.470,11.671 15.748 C 11.983 15.901,12.439 15.908,12.740 15.765 C 13.019 15.632,15.469 13.186,15.731 12.780 C 16.118 12.177,16.257 11.700,16.254 10.980 C 16.253 10.535,16.237 10.409,16.146 10.108 C 15.910 9.330,15.468 8.723,14.820 8.288 C 13.930 7.692,12.683 7.585,11.701 8.021 C 11.212 8.238,10.959 8.458,9.457 9.969 C 8.138 11.296,7.959 11.492,7.826 11.748 C 7.307 12.755,7.448 13.901,8.201 14.780 C 8.464 15.087,8.542 15.285,8.502 15.538 C 8.432 15.983,7.922 16.280,7.503 16.121 C 7.235 16.019,6.691 15.368,6.432 14.839 C 6.229 14.424,6.127 14.099,6.059 13.647 C 5.900 12.595,6.116 11.589,6.687 10.716 C 6.890 10.407,7.180 10.092,8.317 8.946 C 9.078 8.180,9.831 7.447,9.991 7.318 C 10.679 6.761,11.504 6.405,12.385 6.283 C 12.759 6.231,13.551 6.260,13.940 6.341 " fill="#292D32" stroke="none" fill-rule="evenodd"></path></svg>