<svg width="24" height="24" viewBox="0 0 24 24" fill="none" xmlns="http://www.w3.org/2000/svg"><path d="M6.991 2.044 C 6.252 2.117,5.350 2.362,4.800 2.640 C 4.372 2.856,3.859 3.234,3.515 3.586 C 2.777 4.344,2.333 5.262,2.108 6.497 C 2.020 6.978,2.020 7.001,2.020 12.000 C 2.020 16.999,2.020 17.022,2.108 17.503 C 2.338 18.764,2.786 19.676,3.555 20.445 C 4.324 21.214,5.236 21.662,6.497 21.892 C 6.978 21.980,7.001 21.980,12.000 21.980 L 17.020 21.980 17.515 21.890 C 18.730 21.669,19.674 21.205,20.424 20.461 C 21.225 19.667,21.709 18.645,21.909 17.326 C 21.974 16.900,21.980 16.449,21.980 12.020 C 21.980 6.785,21.981 6.812,21.761 5.939 C 21.514 4.958,21.135 4.265,20.480 3.597 C 19.698 2.799,18.826 2.358,17.544 2.111 C 17.107 2.027,17.018 2.026,12.220 2.017 C 9.536 2.013,7.183 2.025,6.991 2.044 M14.440 6.713 C 15.177 6.959,15.870 7.212,15.980 7.276 C 16.453 7.549,16.835 8.024,17.017 8.569 C 17.109 8.840,17.120 8.937,17.119 9.447 C 17.119 10.326,17.014 10.663,16.613 11.083 C 16.251 11.463,15.710 11.645,15.190 11.561 C 15.053 11.539,14.400 11.341,13.741 11.121 C 13.081 10.900,12.529 10.720,12.513 10.720 C 12.497 10.720,12.478 11.850,12.471 13.230 C 12.458 15.735,12.458 15.741,12.365 16.020 C 12.193 16.536,12.010 16.832,11.621 17.221 C 11.347 17.495,11.188 17.618,10.960 17.731 C 10.139 18.140,9.173 18.144,8.408 17.741 C 7.011 17.006,6.485 15.375,7.189 13.960 C 7.302 13.732,7.425 13.573,7.699 13.299 C 8.097 12.901,8.402 12.715,8.920 12.555 C 9.500 12.376,10.304 12.446,10.850 12.725 L 11.000 12.802 11.000 10.348 C 11.000 8.759,11.015 7.811,11.043 7.657 C 11.106 7.317,11.293 6.950,11.524 6.720 C 11.871 6.373,12.242 6.233,12.760 6.253 C 13.069 6.265,13.223 6.307,14.440 6.713 M9.318 13.972 C 8.543 14.191,8.133 15.063,8.460 15.794 C 8.854 16.670,9.988 16.858,10.648 16.155 C 11.109 15.664,11.122 14.891,10.677 14.386 C 10.357 14.023,9.770 13.844,9.318 13.972 " fill="#292D32" stroke="none" fill-rule="evenodd"></path></svg>