<svg width="24" height="24" viewBox="0 0 24 24" fill="none" xmlns="http://www.w3.org/2000/svg"><path d="M9.014 2.042 C 8.123 2.158,7.350 2.552,6.908 3.114 C 6.646 3.448,6.456 3.841,6.334 4.304 C 6.244 4.645,6.227 4.808,6.210 5.471 L 6.190 6.241 6.805 5.885 C 7.143 5.688,7.995 5.193,8.697 4.784 C 9.399 4.375,10.119 3.984,10.297 3.916 C 11.394 3.491,12.773 3.514,13.840 3.974 C 14.005 4.045,14.953 4.575,15.947 5.152 C 16.941 5.728,17.764 6.200,17.777 6.200 C 17.827 6.200,17.798 4.958,17.740 4.629 C 17.477 3.120,16.538 2.246,14.956 2.041 C 14.601 1.995,9.369 1.996,9.014 2.042 M11.280 5.199 C 11.093 5.239,10.870 5.302,10.783 5.339 C 10.697 5.376,9.959 5.791,9.143 6.260 C 5.745 8.214,5.437 8.408,4.920 8.920 C 4.559 9.278,4.431 9.505,4.333 9.960 C 4.266 10.274,4.260 10.552,4.260 13.540 C 4.260 17.116,4.262 17.154,4.504 17.638 C 4.674 17.977,5.080 18.373,5.701 18.806 C 6.060 19.057,10.133 21.441,10.670 21.715 C 11.264 22.018,12.317 22.059,13.054 21.809 C 13.462 21.671,17.696 19.233,18.417 18.722 C 19.252 18.129,19.523 17.791,19.670 17.159 C 19.733 16.888,19.739 16.548,19.739 13.560 C 19.740 10.564,19.733 10.232,19.670 9.961 C 19.523 9.331,19.266 8.996,18.495 8.434 C 17.978 8.058,13.505 5.453,13.141 5.317 C 12.602 5.115,11.880 5.070,11.280 5.199 M12.187 10.723 C 12.370 10.791,12.510 10.950,12.857 11.480 C 13.037 11.756,13.236 12.014,13.298 12.055 C 13.360 12.095,13.664 12.196,13.975 12.278 C 14.286 12.360,14.597 12.456,14.666 12.493 C 14.928 12.629,15.051 12.915,14.966 13.194 C 14.942 13.274,14.740 13.565,14.517 13.839 C 14.294 14.114,14.094 14.382,14.074 14.437 C 14.053 14.491,14.042 14.872,14.048 15.284 C 14.059 15.988,14.055 16.039,13.978 16.144 C 13.717 16.495,13.479 16.506,12.760 16.201 C 12.075 15.909,11.963 15.909,11.240 16.197 C 10.448 16.512,10.216 16.488,10.005 16.067 C 9.912 15.881,9.911 15.870,9.952 15.256 C 10.006 14.421,10.026 14.478,9.444 13.780 C 9.239 13.534,9.058 13.276,9.033 13.194 C 8.950 12.914,9.072 12.629,9.334 12.493 C 9.403 12.456,9.714 12.360,10.025 12.278 C 10.336 12.196,10.640 12.095,10.702 12.055 C 10.764 12.014,10.963 11.756,11.143 11.480 C 11.636 10.727,11.829 10.587,12.187 10.723 " fill="#292D32" stroke="none" fill-rule="evenodd"></path></svg>