<svg width="24" height="24" viewBox="0 0 24 24" fill="none" xmlns="http://www.w3.org/2000/svg"><path d="M6.960 2.046 C 6.236 2.116,5.358 2.357,4.796 2.641 C 4.426 2.828,3.928 3.183,3.624 3.475 C 2.737 4.332,2.251 5.370,2.062 6.812 C 1.970 7.515,1.969 16.481,2.061 17.188 C 2.239 18.550,2.681 19.544,3.476 20.372 C 4.162 21.084,4.935 21.524,5.956 21.780 C 6.817 21.997,6.896 22.000,11.993 22.000 C 14.960 22.000,16.828 21.985,17.041 21.959 C 19.985 21.603,21.695 19.840,21.962 16.885 C 21.990 16.579,21.999 14.787,21.989 11.660 C 21.974 7.001,21.972 6.891,21.889 6.456 C 21.642 5.171,21.165 4.235,20.369 3.478 C 19.583 2.729,18.652 2.295,17.359 2.076 C 16.995 2.014,7.572 1.987,6.960 2.046 M8.903 6.961 C 9.212 7.111,9.376 7.482,9.284 7.824 C 9.257 7.925,9.156 8.079,9.017 8.233 L 8.793 8.480 11.491 8.480 C 14.748 8.480,14.827 8.488,15.648 8.908 C 17.291 9.748,18.093 11.579,17.598 13.360 C 17.420 13.999,17.047 14.596,16.509 15.102 C 15.988 15.593,15.400 15.900,14.708 16.043 C 14.367 16.113,14.135 16.119,11.593 16.119 C 9.747 16.120,8.808 16.106,8.733 16.077 C 8.458 15.974,8.269 15.686,8.269 15.374 C 8.269 15.128,8.355 14.961,8.574 14.784 L 8.727 14.660 11.534 14.639 C 14.294 14.619,14.344 14.617,14.600 14.530 C 15.377 14.267,15.985 13.624,16.179 12.862 C 16.257 12.556,16.257 12.043,16.179 11.738 C 15.982 10.968,15.383 10.334,14.600 10.070 C 14.344 9.984,14.297 9.982,11.603 9.969 L 8.867 9.955 9.012 10.116 C 9.413 10.560,9.423 10.990,9.039 11.336 C 8.931 11.434,8.831 11.482,8.699 11.502 C 8.328 11.558,8.261 11.513,7.327 10.586 C 6.858 10.121,6.428 9.662,6.372 9.568 C 6.252 9.366,6.235 9.041,6.334 8.854 C 6.431 8.672,8.122 7.011,8.280 6.943 C 8.476 6.859,8.706 6.866,8.903 6.961 " fill="#292D32" stroke="none" fill-rule="evenodd"></path></svg>