<svg width="24" height="24" viewBox="0 0 24 24" fill="none" xmlns="http://www.w3.org/2000/svg"><path d="M15.440 2.788 C 14.466 2.908,13.976 3.344,13.817 4.234 C 13.739 4.674,13.739 8.328,13.818 8.769 C 13.954 9.531,14.318 9.942,15.043 10.147 C 15.278 10.214,15.492 10.220,17.500 10.220 C 19.510 10.220,19.722 10.214,19.958 10.147 C 20.619 9.959,20.949 9.634,21.144 8.978 C 21.206 8.767,21.216 8.503,21.230 6.671 C 21.242 4.991,21.234 4.539,21.187 4.265 C 21.050 3.472,20.677 3.045,19.951 2.853 C 19.734 2.795,19.418 2.785,17.640 2.778 C 16.507 2.774,15.517 2.778,15.440 2.788 M9.753 7.401 C 8.925 7.464,8.371 7.671,8.010 8.053 C 7.513 8.578,7.361 9.271,7.360 11.011 C 7.360 11.875,7.384 11.998,7.581 12.153 C 7.665 12.220,7.745 12.240,7.927 12.240 C 8.279 12.240,8.897 12.314,9.269 12.401 C 10.509 12.691,11.309 13.491,11.599 14.731 C 11.686 15.103,11.760 15.721,11.760 16.073 C 11.760 16.255,11.780 16.335,11.847 16.419 C 12.002 16.616,12.125 16.640,12.989 16.640 C 14.767 16.639,15.496 16.469,15.995 15.942 C 16.484 15.424,16.640 14.705,16.640 12.960 C 16.639 11.836,16.617 11.803,15.830 11.751 C 14.533 11.666,13.758 11.369,13.149 10.723 C 12.587 10.128,12.328 9.389,12.247 8.150 C 12.197 7.374,12.168 7.357,10.940 7.366 C 10.500 7.369,9.966 7.385,9.753 7.401 M4.349 13.802 C 3.822 13.882,3.478 14.040,3.228 14.316 C 3.044 14.520,2.949 14.709,2.855 15.060 C 2.786 15.318,2.780 15.513,2.780 17.500 C 2.780 19.487,2.786 19.682,2.855 19.940 C 3.039 20.625,3.378 20.964,4.060 21.145 C 4.317 21.214,4.520 21.220,6.500 21.220 C 8.487 21.220,8.682 21.214,8.940 21.145 C 9.625 20.961,9.964 20.622,10.145 19.940 C 10.214 19.683,10.220 19.480,10.220 17.500 C 10.220 15.513,10.214 15.318,10.145 15.060 C 9.964 14.387,9.642 14.055,8.988 13.867 C 8.716 13.789,8.588 13.784,6.640 13.776 C 5.507 13.771,4.476 13.783,4.349 13.802 " fill="#292D32" stroke="none" fill-rule="evenodd"></path></svg>