<svg width="24" height="24" viewBox="0 0 24 24" fill="none" xmlns="http://www.w3.org/2000/svg"><path d="M11.817 1.289 C 11.728 1.307,11.600 1.371,11.532 1.431 C 11.371 1.574,9.465 3.957,9.374 4.128 C 9.334 4.205,9.304 4.352,9.302 4.483 C 9.299 4.769,9.446 5.010,9.693 5.122 C 9.906 5.219,10.059 5.219,10.524 5.120 C 12.389 4.724,14.576 5.125,16.266 6.173 C 17.915 7.196,19.139 8.747,19.742 10.579 C 20.421 12.644,20.256 14.818,19.270 16.780 C 18.224 18.860,16.261 20.437,14.018 20.998 C 12.119 21.473,10.142 21.261,8.403 20.396 C 6.772 19.584,5.535 18.346,4.722 16.713 C 4.148 15.558,3.879 14.406,3.881 13.101 C 3.883 11.472,4.337 10.003,5.268 8.611 C 5.642 8.053,5.706 7.883,5.637 7.630 C 5.524 7.209,5.144 6.977,4.745 7.084 C 4.481 7.155,4.381 7.255,3.998 7.827 C 3.045 9.253,2.516 10.803,2.402 12.503 C 2.165 16.053,3.943 19.459,7.016 21.340 C 8.674 22.355,10.636 22.840,12.591 22.718 C 13.943 22.633,15.026 22.348,16.224 21.761 C 22.242 18.814,23.507 10.836,18.692 6.199 C 16.961 4.531,14.809 3.611,12.370 3.495 C 12.057 3.480,11.800 3.461,11.800 3.452 C 11.800 3.443,11.982 3.211,12.204 2.935 C 12.690 2.332,12.719 2.279,12.720 2.005 C 12.720 1.516,12.309 1.189,11.817 1.289 M9.220 9.915 C 9.104 9.968,8.837 10.237,8.255 10.887 C 7.812 11.381,7.422 11.838,7.390 11.903 C 7.186 12.300,7.337 12.743,7.738 12.925 C 8.049 13.066,8.337 12.996,8.630 12.710 L 8.800 12.543 8.800 14.313 C 8.800 15.709,8.811 16.110,8.854 16.212 C 8.926 16.385,9.161 16.585,9.363 16.646 C 9.677 16.740,10.051 16.567,10.200 16.260 C 10.278 16.100,10.280 16.012,10.280 13.246 C 10.280 10.529,10.276 10.390,10.204 10.248 C 10.111 10.065,10.020 9.981,9.830 9.902 C 9.635 9.820,9.416 9.825,9.220 9.915 M13.340 9.904 C 12.617 10.078,11.892 10.658,11.567 11.320 C 11.285 11.896,11.262 12.036,11.261 13.220 C 11.260 14.337,11.284 14.535,11.472 14.977 C 11.756 15.645,12.275 16.164,12.943 16.448 C 13.591 16.724,14.409 16.724,15.057 16.448 C 15.725 16.164,16.244 15.645,16.528 14.977 C 16.716 14.535,16.740 14.337,16.739 13.220 C 16.738 12.036,16.715 11.896,16.433 11.320 C 16.198 10.842,15.722 10.366,15.240 10.130 C 15.053 10.038,14.783 9.935,14.640 9.902 C 14.316 9.826,13.660 9.827,13.340 9.904 M14.501 11.436 C 14.763 11.552,15.014 11.807,15.137 12.081 L 15.245 12.321 15.233 13.311 L 15.220 14.300 15.102 14.513 C 14.615 15.392,13.385 15.392,12.898 14.513 L 12.780 14.300 12.767 13.309 L 12.755 12.318 12.860 12.089 C 13.154 11.444,13.873 11.158,14.501 11.436 " fill="#292D32" stroke="none" fill-rule="evenodd"></path></svg>