<svg width="24" height="24" viewBox="0 0 24 24" fill="none" xmlns="http://www.w3.org/2000/svg"><path d="M11.650 1.346 C 11.563 1.389,11.180 1.834,10.490 2.693 C 9.924 3.399,9.428 4.036,9.389 4.108 C 9.285 4.301,9.262 4.554,9.334 4.720 C 9.429 4.938,9.611 5.109,9.804 5.161 C 9.991 5.211,10.012 5.210,10.740 5.082 C 12.977 4.689,15.387 5.350,17.180 6.846 C 18.798 8.197,19.818 10.067,20.078 12.159 C 20.138 12.646,20.128 13.710,20.059 14.200 C 19.620 17.289,17.487 19.859,14.557 20.831 C 13.404 21.213,12.132 21.335,10.941 21.179 C 6.381 20.582,3.201 16.296,3.966 11.781 C 4.157 10.653,4.570 9.641,5.268 8.585 C 5.497 8.240,5.616 8.020,5.629 7.918 C 5.701 7.383,5.226 6.944,4.723 7.079 C 4.482 7.144,4.311 7.318,3.953 7.857 C 3.191 9.006,2.692 10.297,2.454 11.740 C 2.353 12.353,2.352 13.828,2.453 14.480 C 2.879 17.246,4.398 19.636,6.692 21.148 C 9.549 23.032,13.187 23.256,16.267 21.738 C 18.774 20.503,20.658 18.162,21.338 15.441 C 21.848 13.399,21.650 11.075,20.807 9.220 C 19.258 5.812,16.087 3.663,12.360 3.493 C 12.052 3.479,11.800 3.460,11.800 3.452 C 11.800 3.443,11.982 3.211,12.204 2.935 C 12.690 2.332,12.719 2.279,12.720 2.005 C 12.720 1.578,12.422 1.279,11.996 1.281 C 11.877 1.281,11.722 1.311,11.650 1.346 M10.540 10.143 C 10.248 10.294,10.224 10.343,9.760 11.741 C 9.288 13.164,9.284 13.182,9.447 13.481 C 9.540 13.649,9.740 13.795,9.948 13.843 C 10.032 13.862,10.668 13.879,11.362 13.879 L 12.624 13.880 12.793 13.990 C 12.990 14.118,13.160 14.418,13.160 14.640 C 13.160 14.879,12.981 15.184,12.766 15.311 L 12.580 15.420 11.180 15.443 C 10.410 15.455,9.776 15.469,9.770 15.473 C 9.765 15.477,9.688 15.545,9.600 15.624 C 9.199 15.987,9.297 16.631,9.787 16.847 C 9.951 16.920,10.047 16.924,11.391 16.911 C 12.738 16.898,12.835 16.892,13.083 16.809 C 14.016 16.497,14.650 15.619,14.650 14.640 C 14.650 13.854,14.260 13.151,13.583 12.712 C 13.156 12.436,12.936 12.389,11.974 12.369 L 11.128 12.352 11.258 11.966 L 11.387 11.580 12.787 11.560 L 14.186 11.540 14.334 11.427 C 14.607 11.219,14.702 10.952,14.620 10.627 C 14.565 10.411,14.445 10.266,14.232 10.156 C 14.093 10.085,13.976 10.080,12.372 10.080 C 10.901 10.080,10.643 10.089,10.540 10.143 " fill="#292D32" stroke="none" fill-rule="evenodd"></path></svg>