<svg width="24" height="24" viewBox="0 0 24 24" fill="none" xmlns="http://www.w3.org/2000/svg"><path d="M11.650 1.346 C 11.563 1.389,11.180 1.834,10.490 2.693 C 9.924 3.399,9.430 4.032,9.392 4.098 C 9.292 4.279,9.261 4.538,9.323 4.691 C 9.464 5.037,9.762 5.231,10.090 5.189 C 10.183 5.177,10.476 5.129,10.740 5.082 C 12.973 4.688,15.387 5.349,17.180 6.846 C 18.798 8.197,19.818 10.067,20.078 12.159 C 20.138 12.646,20.128 13.710,20.059 14.200 C 19.620 17.289,17.487 19.859,14.557 20.831 C 13.404 21.213,12.132 21.335,10.941 21.179 C 6.381 20.582,3.201 16.296,3.966 11.781 C 4.157 10.653,4.570 9.641,5.268 8.585 C 5.497 8.240,5.616 8.020,5.629 7.918 C 5.701 7.383,5.226 6.944,4.723 7.079 C 4.482 7.144,4.311 7.318,3.953 7.857 C 3.191 9.006,2.692 10.297,2.454 11.740 C 2.353 12.353,2.352 13.828,2.453 14.480 C 2.879 17.246,4.398 19.636,6.692 21.148 C 9.549 23.032,13.187 23.256,16.267 21.738 C 18.774 20.503,20.658 18.162,21.338 15.441 C 21.848 13.399,21.650 11.075,20.807 9.220 C 19.258 5.812,16.087 3.663,12.360 3.493 C 12.052 3.479,11.800 3.460,11.800 3.452 C 11.800 3.443,11.982 3.211,12.204 2.935 C 12.690 2.332,12.719 2.279,12.720 2.005 C 12.720 1.578,12.422 1.279,11.996 1.281 C 11.877 1.281,11.722 1.311,11.650 1.346 M9.240 10.167 C 9.110 10.234,8.836 10.509,8.251 11.157 C 7.807 11.650,7.415 12.112,7.381 12.183 C 7.348 12.254,7.320 12.395,7.320 12.497 C 7.320 12.928,7.622 13.240,8.040 13.240 C 8.261 13.240,8.376 13.186,8.600 12.976 L 8.798 12.791 8.809 14.609 L 8.820 16.426 8.915 16.565 C 9.074 16.796,9.263 16.896,9.543 16.898 C 9.742 16.900,9.815 16.880,9.952 16.790 C 10.044 16.729,10.155 16.609,10.199 16.522 C 10.278 16.367,10.280 16.294,10.280 13.500 C 10.280 10.706,10.278 10.633,10.199 10.478 C 10.026 10.138,9.578 9.993,9.240 10.167 M12.560 10.169 C 12.462 10.219,12.339 10.322,12.289 10.398 C 12.169 10.578,11.400 12.942,11.400 13.130 C 11.400 13.329,11.462 13.476,11.611 13.631 C 11.831 13.859,11.981 13.880,13.389 13.880 C 14.816 13.880,14.858 13.888,15.070 14.208 C 15.162 14.347,15.180 14.417,15.180 14.640 C 15.180 14.863,15.162 14.933,15.070 15.072 C 15.009 15.164,14.883 15.279,14.790 15.329 C 14.625 15.417,14.579 15.421,13.234 15.440 L 11.847 15.460 11.698 15.581 C 11.616 15.648,11.515 15.764,11.474 15.840 C 11.312 16.144,11.428 16.578,11.728 16.786 L 11.893 16.900 13.377 16.900 C 15.015 16.900,15.014 16.900,15.539 16.625 C 16.206 16.275,16.719 15.413,16.719 14.640 C 16.719 13.825,16.198 12.980,15.477 12.625 C 15.046 12.413,14.741 12.362,13.910 12.361 C 13.520 12.360,13.200 12.347,13.200 12.330 C 13.200 12.314,13.255 12.134,13.323 11.930 L 13.447 11.560 14.785 11.560 C 16.267 11.560,16.289 11.557,16.509 11.307 C 16.820 10.953,16.766 10.512,16.377 10.215 L 16.226 10.100 14.483 10.089 L 12.740 10.078 12.560 10.169 " fill="#292D32" stroke="none" fill-rule="evenodd"></path></svg>