<svg width="24" height="24" viewBox="0 0 24 24" fill="none" xmlns="http://www.w3.org/2000/svg"><path d="M11.460 2.025 C 10.313 2.197,9.391 2.676,8.590 3.515 C 8.210 3.912,7.924 4.317,7.682 4.800 C 7.299 5.563,7.163 6.106,7.132 6.990 C 7.119 7.348,7.095 7.640,7.078 7.640 C 7.062 7.640,6.836 7.676,6.578 7.720 C 5.438 7.915,4.512 8.387,3.961 9.052 C 3.700 9.367,3.393 9.996,3.273 10.460 C 3.191 10.779,3.181 10.910,3.183 11.620 C 3.185 12.390,3.200 12.533,3.574 15.455 C 3.788 17.124,3.990 18.618,4.022 18.775 C 4.430 20.736,5.713 21.715,8.194 21.959 C 8.745 22.013,15.255 22.013,15.806 21.959 C 18.281 21.716,19.576 20.729,19.979 18.778 C 20.012 18.619,20.221 17.042,20.443 15.274 C 20.836 12.141,20.846 12.044,20.827 11.440 C 20.803 10.690,20.693 10.204,20.423 9.660 C 19.912 8.627,18.894 7.972,17.407 7.718 C 17.157 7.675,16.936 7.640,16.916 7.640 C 16.896 7.640,16.880 7.384,16.880 7.070 C 16.879 5.576,16.419 4.412,15.442 3.439 C 14.735 2.735,13.939 2.301,12.980 2.099 C 12.672 2.034,11.711 1.987,11.460 2.025 M12.920 3.519 C 14.214 3.886,15.171 4.923,15.423 6.234 C 15.455 6.396,15.480 6.766,15.480 7.064 L 15.480 7.600 11.995 7.600 L 8.510 7.600 8.531 7.030 C 8.555 6.367,8.618 6.092,8.859 5.575 C 9.089 5.083,9.316 4.759,9.682 4.396 C 10.165 3.918,10.843 3.543,11.408 3.442 C 11.755 3.380,12.575 3.422,12.920 3.519 M8.889 11.273 C 9.237 11.488,9.398 11.762,9.399 12.140 C 9.400 12.596,9.125 12.975,8.703 13.101 C 8.453 13.176,8.385 13.175,8.117 13.096 C 7.961 13.049,7.848 12.979,7.714 12.845 C 7.205 12.337,7.369 11.524,8.042 11.221 C 8.241 11.131,8.705 11.159,8.889 11.273 M15.889 11.273 C 16.237 11.488,16.398 11.762,16.399 12.140 C 16.400 12.596,16.125 12.975,15.703 13.101 C 15.453 13.176,15.385 13.175,15.117 13.096 C 14.961 13.049,14.848 12.979,14.714 12.845 C 14.205 12.337,14.369 11.524,15.042 11.221 C 15.241 11.131,15.705 11.159,15.889 11.273 " fill="#292D32" stroke="none" fill-rule="evenodd"></path></svg>