<svg width="24" height="24" viewBox="0 0 24 24" fill="none" xmlns="http://www.w3.org/2000/svg"><path d="M11.460 2.025 C 10.313 2.197,9.391 2.676,8.590 3.515 C 8.210 3.912,7.924 4.317,7.682 4.800 C 7.299 5.563,7.163 6.106,7.132 6.990 C 7.119 7.348,7.095 7.640,7.078 7.640 C 7.062 7.640,6.836 7.676,6.578 7.720 C 5.438 7.915,4.512 8.387,3.961 9.052 C 3.700 9.367,3.393 9.996,3.273 10.460 C 3.191 10.779,3.181 10.910,3.183 11.620 C 3.185 12.390,3.200 12.533,3.574 15.455 C 3.788 17.124,3.990 18.618,4.022 18.775 C 4.430 20.736,5.713 21.715,8.194 21.959 C 8.745 22.013,15.255 22.013,15.806 21.959 C 18.281 21.716,19.576 20.729,19.979 18.778 C 20.012 18.619,20.219 17.045,20.440 15.282 C 20.858 11.932,20.890 11.529,20.797 10.855 C 20.558 9.138,19.390 8.057,17.407 7.718 C 17.157 7.675,16.936 7.640,16.916 7.640 C 16.896 7.640,16.880 7.384,16.880 7.070 C 16.879 5.576,16.419 4.412,15.442 3.439 C 14.735 2.735,13.939 2.301,12.980 2.099 C 12.672 2.034,11.711 1.987,11.460 2.025 M12.920 3.519 C 14.214 3.886,15.171 4.923,15.423 6.234 C 15.455 6.396,15.480 6.766,15.480 7.064 L 15.480 7.600 11.995 7.600 L 8.510 7.600 8.531 7.030 C 8.555 6.367,8.618 6.092,8.859 5.575 C 9.089 5.083,9.316 4.759,9.682 4.396 C 10.165 3.918,10.843 3.543,11.408 3.442 C 11.755 3.380,12.575 3.422,12.920 3.519 M12.931 11.117 C 14.470 11.515,15.591 12.817,15.760 14.403 C 15.835 15.111,15.727 15.737,15.417 16.395 C 14.782 17.741,13.480 18.571,12.000 18.571 C 10.517 18.571,9.222 17.745,8.580 16.391 C 7.957 15.076,8.145 13.556,9.074 12.388 C 9.620 11.701,10.524 11.183,11.422 11.042 C 11.786 10.984,12.570 11.023,12.931 11.117 M13.370 13.208 C 13.194 13.246,13.080 13.341,11.922 14.413 L 11.464 14.837 11.222 14.607 C 10.819 14.223,10.739 14.180,10.434 14.180 C 10.195 14.180,10.151 14.193,10.014 14.304 C 9.929 14.373,9.827 14.484,9.787 14.553 C 9.697 14.706,9.690 15.067,9.774 15.226 C 9.807 15.289,10.110 15.612,10.447 15.945 C 11.109 16.598,11.224 16.670,11.534 16.623 C 11.626 16.609,11.751 16.565,11.813 16.525 C 11.874 16.484,12.426 15.989,13.039 15.423 C 13.751 14.766,14.178 14.343,14.222 14.250 C 14.262 14.166,14.290 14.015,14.288 13.887 C 14.284 13.419,13.857 13.104,13.370 13.208 " fill="#292D32" stroke="none" fill-rule="evenodd"></path></svg>