<svg width="24" height="24" viewBox="0 0 24 24" fill="none" xmlns="http://www.w3.org/2000/svg"><path d="M8.740 2.077 C 8.634 2.127,8.004 2.729,6.860 3.876 L 5.140 5.600 4.588 5.600 C 3.922 5.600,3.529 5.672,3.133 5.866 C 2.621 6.117,2.274 6.574,2.091 7.240 C 1.984 7.632,1.996 8.782,2.111 9.206 C 2.221 9.610,2.366 9.887,2.592 10.129 C 2.834 10.388,3.035 10.501,3.444 10.611 L 3.780 10.700 11.980 10.700 C 20.881 10.700,20.392 10.712,20.908 10.479 C 21.405 10.254,21.741 9.803,21.906 9.139 C 22.006 8.737,22.007 7.603,21.908 7.240 C 21.727 6.575,21.380 6.117,20.867 5.866 C 20.471 5.672,20.078 5.600,19.412 5.600 L 18.860 5.600 17.140 3.876 C 15.996 2.729,15.366 2.127,15.260 2.077 C 15.045 1.976,14.849 1.981,14.636 2.093 C 14.326 2.257,14.194 2.644,14.336 2.971 C 14.367 3.042,14.943 3.649,15.616 4.320 C 16.289 4.991,16.840 5.553,16.840 5.570 C 16.840 5.586,14.662 5.600,12.000 5.600 C 9.338 5.600,7.160 5.586,7.160 5.570 C 7.160 5.553,7.711 4.991,8.384 4.320 C 9.057 3.649,9.633 3.042,9.664 2.971 C 9.808 2.641,9.663 2.237,9.348 2.084 C 9.135 1.981,8.949 1.979,8.740 2.077 M4.585 12.059 C 4.218 12.189,3.920 12.592,3.920 12.957 C 3.920 13.201,4.775 18.427,4.901 18.953 C 5.244 20.386,6.015 21.297,7.240 21.718 C 7.383 21.767,7.671 21.845,7.880 21.890 C 8.244 21.970,8.405 21.974,11.600 21.990 C 13.825 22.000,15.108 21.991,15.443 21.962 C 17.378 21.794,18.398 20.990,18.861 19.271 C 18.916 19.067,19.214 17.595,19.524 16.000 C 19.966 13.717,20.082 13.055,20.066 12.888 C 20.030 12.516,19.769 12.185,19.410 12.057 C 19.183 11.976,4.812 11.978,4.585 12.059 M14.692 14.825 C 14.874 14.917,14.958 14.999,15.044 15.168 C 15.138 15.352,15.140 15.612,15.049 15.810 C 14.966 15.990,11.614 19.102,11.411 19.186 C 11.241 19.257,10.992 19.254,10.812 19.179 C 10.657 19.114,9.199 17.698,9.017 17.435 C 8.745 17.043,8.896 16.516,9.340 16.315 C 9.721 16.141,9.943 16.247,10.627 16.929 L 11.155 17.454 11.389 17.237 C 13.294 15.476,13.944 14.889,14.051 14.832 C 14.215 14.745,14.527 14.741,14.692 14.825 " fill="#292D32" stroke="none" fill-rule="evenodd"></path></svg>