<svg width="24" height="24" viewBox="0 0 24 24" fill="none" xmlns="http://www.w3.org/2000/svg"><path d="M8.740 2.077 C 8.634 2.127,8.004 2.729,6.860 3.876 L 5.140 5.600 4.588 5.600 C 3.922 5.600,3.529 5.672,3.133 5.866 C 2.621 6.117,2.274 6.574,2.091 7.240 C 1.984 7.632,1.996 8.782,2.111 9.206 C 2.221 9.610,2.366 9.887,2.592 10.129 C 2.834 10.388,3.035 10.501,3.444 10.611 L 3.780 10.700 11.980 10.700 C 20.881 10.700,20.392 10.712,20.908 10.479 C 21.405 10.254,21.741 9.803,21.906 9.139 C 22.006 8.737,22.007 7.603,21.908 7.240 C 21.727 6.575,21.380 6.117,20.867 5.866 C 20.471 5.672,20.078 5.600,19.412 5.600 L 18.860 5.600 17.140 3.876 C 15.996 2.729,15.366 2.127,15.260 2.077 C 15.045 1.976,14.849 1.981,14.636 2.093 C 14.326 2.257,14.194 2.644,14.336 2.971 C 14.367 3.042,14.943 3.649,15.616 4.320 C 16.289 4.991,16.840 5.553,16.840 5.570 C 16.840 5.586,14.662 5.600,12.000 5.600 C 9.338 5.600,7.160 5.586,7.160 5.570 C 7.160 5.553,7.711 4.991,8.384 4.320 C 9.057 3.649,9.633 3.042,9.664 2.971 C 9.808 2.641,9.663 2.237,9.348 2.084 C 9.135 1.981,8.949 1.979,8.740 2.077 M4.545 12.059 C 4.180 12.189,3.880 12.593,3.880 12.953 C 3.880 13.191,4.736 18.429,4.859 18.942 C 5.211 20.417,5.990 21.323,7.260 21.734 C 8.032 21.984,7.955 21.980,11.880 21.980 C 14.638 21.980,15.536 21.968,15.792 21.928 C 17.500 21.657,18.388 20.878,18.822 19.267 C 18.964 18.741,20.040 13.159,20.040 12.950 C 20.040 12.579,19.700 12.145,19.329 12.042 C 19.229 12.014,16.809 12.001,11.940 12.002 C 5.888 12.003,4.675 12.013,4.545 12.059 M8.837 14.594 C 8.913 14.630,9.027 14.726,9.092 14.807 C 9.195 14.936,9.216 15.010,9.266 15.424 C 9.298 15.682,9.360 16.003,9.405 16.137 C 9.670 16.936,10.342 17.591,11.180 17.868 C 11.457 17.959,11.567 17.973,12.000 17.973 C 12.433 17.973,12.543 17.959,12.820 17.868 C 13.663 17.590,14.329 16.937,14.599 16.126 C 14.646 15.986,14.708 15.665,14.737 15.414 C 14.783 15.009,14.803 14.939,14.907 14.808 C 15.226 14.408,15.776 14.411,16.097 14.814 C 16.219 14.967,16.220 14.971,16.219 15.454 C 16.217 15.988,16.136 16.379,15.919 16.894 C 15.210 18.585,13.384 19.676,11.596 19.480 C 9.530 19.252,7.901 17.598,7.773 15.596 C 7.742 15.104,7.769 14.970,7.943 14.767 C 8.176 14.495,8.503 14.432,8.837 14.594 " fill="#292D32" stroke="none" fill-rule="evenodd"></path></svg>