<svg width="24" height="24" viewBox="0 0 24 24" fill="none" xmlns="http://www.w3.org/2000/svg"><path d="M8.740 2.077 C 8.634 2.127,8.004 2.729,6.860 3.876 L 5.140 5.600 4.588 5.600 C 3.922 5.600,3.529 5.672,3.133 5.866 C 2.621 6.117,2.274 6.574,2.091 7.240 C 1.984 7.632,1.996 8.782,2.111 9.206 C 2.221 9.610,2.366 9.887,2.592 10.129 C 2.834 10.388,3.035 10.501,3.444 10.611 L 3.780 10.700 11.980 10.700 C 20.881 10.700,20.392 10.712,20.908 10.479 C 21.405 10.254,21.741 9.803,21.906 9.139 C 22.006 8.737,22.007 7.603,21.908 7.240 C 21.727 6.575,21.380 6.117,20.867 5.866 C 20.471 5.672,20.078 5.600,19.412 5.600 L 18.860 5.600 17.140 3.876 C 15.996 2.729,15.366 2.127,15.260 2.077 C 15.045 1.976,14.849 1.981,14.636 2.093 C 14.326 2.257,14.194 2.644,14.336 2.971 C 14.367 3.042,14.943 3.649,15.616 4.320 C 16.289 4.991,16.840 5.553,16.840 5.570 C 16.840 5.586,14.662 5.600,12.000 5.600 C 9.338 5.600,7.160 5.586,7.160 5.570 C 7.160 5.553,7.711 4.991,8.384 4.320 C 9.057 3.649,9.633 3.042,9.664 2.971 C 9.808 2.641,9.663 2.237,9.348 2.084 C 9.135 1.981,8.949 1.979,8.740 2.077 M4.545 12.059 C 4.180 12.189,3.880 12.593,3.880 12.953 C 3.880 13.191,4.736 18.429,4.859 18.942 C 5.211 20.417,5.990 21.323,7.260 21.734 C 8.032 21.984,7.955 21.980,11.880 21.980 C 14.638 21.980,15.536 21.968,15.792 21.928 C 17.500 21.657,18.388 20.878,18.822 19.267 C 18.964 18.741,20.040 13.159,20.040 12.950 C 20.040 12.579,19.700 12.145,19.329 12.042 C 19.229 12.014,16.809 12.001,11.940 12.002 C 5.888 12.003,4.675 12.013,4.545 12.059 M10.319 14.593 C 10.607 14.823,10.600 14.770,10.600 16.800 C 10.600 18.840,10.608 18.776,10.307 19.016 C 10.176 19.121,10.121 19.139,9.923 19.139 C 9.645 19.139,9.453 19.026,9.312 18.781 L 9.220 18.620 9.220 16.800 C 9.220 14.798,9.211 14.875,9.471 14.628 C 9.702 14.408,10.069 14.393,10.319 14.593 M14.460 14.516 C 14.645 14.601,14.777 14.732,14.837 14.893 C 14.865 14.966,14.880 15.629,14.880 16.813 C 14.880 18.838,14.888 18.776,14.588 19.016 C 14.459 19.119,14.401 19.137,14.205 19.139 C 13.911 19.140,13.689 19.005,13.565 18.750 C 13.482 18.580,13.480 18.527,13.480 16.806 C 13.480 14.887,13.480 14.889,13.704 14.664 C 13.932 14.437,14.183 14.388,14.460 14.516 " fill="#292D32" stroke="none" fill-rule="evenodd"></path></svg>