<svg width="24" height="24" viewBox="0 0 24 24" fill="none" xmlns="http://www.w3.org/2000/svg"><path d="M11.760 2.121 C 11.683 2.141,9.577 2.975,7.080 3.974 C 2.183 5.934,2.311 5.875,2.109 6.254 C 2.021 6.419,2.020 6.432,2.020 8.340 C 2.020 10.159,2.024 10.268,2.097 10.416 C 2.196 10.615,2.385 10.804,2.584 10.903 C 2.725 10.973,2.848 10.981,3.870 10.992 L 5.000 11.005 5.000 14.118 L 5.000 17.231 3.830 17.251 C 2.570 17.272,2.459 17.288,2.114 17.502 C 1.868 17.654,1.691 17.827,1.532 18.072 C 1.280 18.461,1.270 18.527,1.251 19.950 L 1.233 21.240 1.138 21.240 C 1.086 21.240,0.951 21.260,0.838 21.284 C 0.074 21.448,0.081 22.559,0.846 22.717 C 1.000 22.749,4.174 22.758,12.120 22.751 L 23.180 22.740 23.359 22.639 C 23.702 22.448,23.829 22.010,23.646 21.651 C 23.529 21.423,23.363 21.317,23.040 21.266 L 22.768 21.224 22.749 19.942 C 22.728 18.528,22.718 18.458,22.468 18.072 C 22.309 17.827,22.132 17.654,21.886 17.502 C 21.541 17.288,21.430 17.272,20.170 17.251 L 19.000 17.231 19.000 14.118 L 19.000 11.005 20.130 10.992 C 21.152 10.981,21.275 10.973,21.416 10.903 C 21.615 10.804,21.804 10.615,21.903 10.416 C 21.976 10.268,21.980 10.159,21.980 8.340 C 21.980 6.432,21.979 6.419,21.891 6.254 C 21.688 5.875,21.822 5.936,16.875 3.958 C 13.808 2.731,12.225 2.117,12.095 2.104 C 11.988 2.093,11.837 2.101,11.760 2.121 M12.242 5.520 C 13.063 5.676,13.609 6.429,13.479 7.228 C 13.282 8.438,11.817 8.913,10.943 8.051 C 10.096 7.215,10.548 5.755,11.727 5.523 C 11.969 5.475,12.002 5.475,12.242 5.520 M9.000 14.120 L 9.000 17.240 8.000 17.240 L 7.000 17.240 7.000 14.120 L 7.000 11.000 8.000 11.000 L 9.000 11.000 9.000 14.120 M13.000 14.120 L 13.000 17.240 12.000 17.240 L 11.000 17.240 11.000 14.120 L 11.000 11.000 12.000 11.000 L 13.000 11.000 13.000 14.120 M17.000 14.120 L 17.000 17.240 16.000 17.240 L 15.000 17.240 15.000 14.120 L 15.000 11.000 16.000 11.000 L 17.000 11.000 17.000 14.120 " fill="#292D32" stroke="none" fill-rule="evenodd"></path></svg>