<svg width="24" height="24" viewBox="0 0 24 24" fill="none" xmlns="http://www.w3.org/2000/svg"><path d="M5.968 3.566 C 5.808 3.587,5.507 3.647,5.299 3.699 C 3.361 4.191,2.290 5.494,2.042 7.662 C 1.986 8.146,1.986 15.854,2.042 16.338 C 2.334 18.889,3.790 20.268,6.416 20.479 C 7.112 20.535,16.888 20.535,17.584 20.479 C 18.929 20.371,19.944 19.965,20.680 19.240 C 21.422 18.510,21.811 17.627,21.958 16.338 C 22.014 15.854,22.014 8.146,21.958 7.662 C 21.698 5.393,20.591 4.127,18.431 3.629 C 18.062 3.543,18.035 3.543,12.160 3.536 C 8.716 3.532,6.139 3.545,5.968 3.566 M6.352 7.349 C 6.525 7.430,6.663 7.616,6.718 7.840 C 6.750 7.968,6.760 9.205,6.751 12.100 C 6.740 16.149,6.739 16.181,6.656 16.340 C 6.610 16.428,6.497 16.554,6.404 16.619 C 6.263 16.719,6.196 16.739,6.000 16.739 C 5.804 16.739,5.737 16.719,5.596 16.619 C 5.503 16.554,5.390 16.428,5.344 16.340 C 5.261 16.181,5.260 16.148,5.248 12.120 C 5.239 9.164,5.248 8.002,5.281 7.846 C 5.386 7.359,5.884 7.128,6.352 7.349 M9.352 7.349 C 9.525 7.430,9.663 7.615,9.719 7.840 C 9.750 7.965,9.760 8.661,9.752 10.100 C 9.740 12.120,9.738 12.185,9.656 12.340 C 9.610 12.428,9.497 12.554,9.404 12.619 C 9.263 12.719,9.196 12.739,9.000 12.739 C 8.804 12.739,8.737 12.719,8.596 12.619 C 8.503 12.554,8.390 12.428,8.344 12.340 C 8.262 12.185,8.260 12.119,8.247 10.120 C 8.233 7.788,8.239 7.721,8.478 7.482 C 8.716 7.244,9.029 7.197,9.352 7.349 M12.352 7.349 C 12.525 7.430,12.663 7.616,12.718 7.840 C 12.750 7.968,12.760 9.205,12.751 12.100 C 12.740 16.149,12.739 16.181,12.656 16.340 C 12.610 16.428,12.497 16.554,12.404 16.619 C 12.263 16.719,12.196 16.739,12.000 16.739 C 11.804 16.739,11.737 16.719,11.596 16.619 C 11.503 16.554,11.390 16.428,11.344 16.340 C 11.261 16.181,11.260 16.148,11.248 12.120 C 11.239 9.164,11.248 8.002,11.281 7.846 C 11.386 7.359,11.884 7.128,12.352 7.349 M15.352 7.349 C 15.679 7.503,15.773 7.798,15.754 8.606 C 15.738 9.272,15.687 9.420,15.404 9.619 C 15.263 9.719,15.196 9.739,15.000 9.739 C 14.804 9.739,14.737 9.719,14.596 9.619 C 14.315 9.421,14.262 9.271,14.246 8.620 C 14.228 7.909,14.273 7.687,14.478 7.482 C 14.716 7.244,15.029 7.197,15.352 7.349 M18.352 7.349 C 18.525 7.430,18.663 7.616,18.718 7.840 C 18.750 7.968,18.760 9.205,18.751 12.100 C 18.740 16.149,18.739 16.181,18.656 16.340 C 18.610 16.428,18.497 16.554,18.404 16.619 C 18.263 16.719,18.196 16.739,18.000 16.739 C 17.804 16.739,17.737 16.719,17.596 16.619 C 17.503 16.554,17.390 16.428,17.344 16.340 C 17.261 16.181,17.260 16.148,17.248 12.120 C 17.239 9.164,17.248 8.002,17.281 7.846 C 17.386 7.359,17.884 7.128,18.352 7.349 M15.352 11.349 C 15.525 11.430,15.663 11.615,15.719 11.840 C 15.750 11.965,15.760 12.661,15.752 14.100 C 15.740 16.120,15.738 16.185,15.656 16.340 C 15.610 16.428,15.497 16.554,15.404 16.619 C 15.263 16.719,15.196 16.739,15.000 16.739 C 14.804 16.739,14.737 16.719,14.596 16.619 C 14.503 16.554,14.390 16.428,14.344 16.340 C 14.262 16.185,14.260 16.119,14.247 14.120 C 14.233 11.788,14.239 11.721,14.478 11.482 C 14.716 11.244,15.029 11.197,15.352 11.349 M9.352 14.349 C 9.679 14.503,9.773 14.798,9.754 15.606 C 9.738 16.272,9.687 16.420,9.404 16.619 C 9.263 16.719,9.196 16.739,9.000 16.739 C 8.804 16.739,8.737 16.719,8.596 16.619 C 8.315 16.421,8.262 16.271,8.246 15.620 C 8.228 14.909,8.273 14.687,8.478 14.482 C 8.716 14.244,9.029 14.197,9.352 14.349 " fill="#292D32" stroke="none" fill-rule="evenodd"></path></svg>