<svg width="24" height="24" viewBox="0 0 24 24" fill="none" xmlns="http://www.w3.org/2000/svg"><path d="M6.220 4.827 C 6.110 4.835,5.822 4.869,5.580 4.902 C 3.203 5.233,2.244 6.365,2.041 9.080 C 1.988 9.781,1.988 14.219,2.041 14.920 C 2.246 17.654,3.172 18.735,5.628 19.108 C 6.058 19.174,6.459 19.180,10.140 19.180 C 13.821 19.180,14.222 19.174,14.652 19.108 C 17.107 18.736,18.034 17.653,18.239 14.920 C 18.292 14.219,18.292 9.781,18.239 9.080 C 18.036 6.370,17.131 5.293,14.720 4.894 C 14.343 4.832,13.893 4.824,10.360 4.819 C 8.193 4.815,6.330 4.819,6.220 4.827 M19.540 9.091 C 19.434 9.150,19.349 9.241,19.289 9.360 L 19.198 9.540 19.209 12.063 L 19.220 14.586 19.336 14.738 C 19.401 14.823,19.531 14.925,19.634 14.970 C 19.792 15.040,19.869 15.048,20.198 15.027 C 21.239 14.961,21.770 14.577,21.942 13.766 C 22.024 13.381,22.023 10.615,21.941 10.229 C 21.765 9.398,21.163 9.001,20.080 9.001 C 19.761 9.001,19.674 9.016,19.540 9.091 M6.679 9.330 C 6.975 9.481,7.067 9.638,7.180 10.182 C 7.333 10.921,7.374 11.442,7.346 12.298 C 7.322 13.042,7.282 13.375,7.139 14.022 C 7.078 14.296,7.046 14.363,6.904 14.505 C 6.689 14.722,6.463 14.794,6.211 14.726 C 5.981 14.664,5.817 14.549,5.734 14.389 C 5.598 14.126,5.596 14.046,5.710 13.482 C 5.811 12.983,5.820 12.866,5.820 12.000 C 5.820 11.137,5.811 11.016,5.711 10.520 C 5.589 9.912,5.599 9.774,5.781 9.535 C 5.908 9.369,6.158 9.242,6.362 9.241 C 6.439 9.240,6.582 9.280,6.679 9.330 M10.185 9.317 C 10.507 9.463,10.638 9.774,10.777 10.721 C 10.922 11.710,10.897 12.700,10.700 13.709 C 10.586 14.294,10.517 14.453,10.310 14.603 C 9.889 14.908,9.306 14.703,9.154 14.197 C 9.103 14.024,9.105 14.001,9.265 13.180 C 9.377 12.607,9.365 11.329,9.242 10.700 C 9.079 9.864,9.083 9.770,9.292 9.533 C 9.534 9.256,9.872 9.175,10.185 9.317 " fill="#292D32" stroke="none" fill-rule="evenodd"></path></svg>