<svg width="24" height="24" viewBox="0 0 24 24" fill="none" xmlns="http://www.w3.org/2000/svg"><path d="M6.044 4.843 C 4.564 4.979,3.513 5.421,2.940 6.150 C 2.488 6.725,2.221 7.471,2.073 8.580 C 1.997 9.155,1.997 14.845,2.073 15.420 C 2.408 17.925,3.444 18.903,6.034 19.159 C 6.589 19.214,13.691 19.214,14.246 19.159 C 16.836 18.903,17.872 17.925,18.207 15.420 C 18.247 15.116,18.260 14.293,18.260 12.000 C 18.260 8.913,18.250 8.655,18.096 7.900 C 17.905 6.962,17.482 6.176,16.930 5.738 C 16.611 5.486,15.973 5.179,15.519 5.060 C 14.621 4.825,14.646 4.827,10.360 4.817 C 8.193 4.813,6.251 4.824,6.044 4.843 M19.543 9.091 C 19.445 9.146,19.351 9.246,19.293 9.356 L 19.200 9.533 19.200 11.998 L 19.200 14.463 19.290 14.641 C 19.397 14.853,19.574 14.981,19.809 15.016 C 20.151 15.067,20.917 14.945,21.220 14.790 C 21.395 14.701,21.645 14.466,21.743 14.298 C 21.957 13.934,21.971 13.816,21.989 12.226 C 22.008 10.666,21.984 10.293,21.839 9.907 C 21.621 9.323,20.997 9.001,20.080 9.001 C 19.760 9.001,19.675 9.015,19.543 9.091 " fill="#292D32" stroke="none" fill-rule="evenodd"></path></svg>