<svg width="24" height="24" viewBox="0 0 24 24" fill="none" xmlns="http://www.w3.org/2000/svg"><path d="M15.695 1.823 C 15.626 1.857,15.525 1.933,15.470 1.993 C 15.415 2.052,14.988 2.708,14.521 3.450 L 13.672 4.800 10.146 4.800 C 8.123 4.801,6.415 4.818,6.140 4.841 C 3.903 5.029,2.785 5.788,2.307 7.440 C 2.031 8.395,1.988 9.124,2.011 12.440 C 2.030 15.250,2.044 15.482,2.236 16.294 C 2.549 17.611,3.282 18.452,4.440 18.820 C 4.561 18.858,4.675 18.903,4.693 18.920 C 4.711 18.936,4.406 19.458,4.016 20.079 C 3.296 21.228,3.233 21.361,3.281 21.647 C 3.377 22.208,4.120 22.440,4.508 22.029 C 4.600 21.932,16.237 3.552,16.652 2.849 C 16.749 2.684,16.758 2.350,16.670 2.179 C 16.489 1.831,16.024 1.661,15.695 1.823 M16.098 5.835 C 16.009 5.876,15.885 5.961,15.823 6.024 C 15.710 6.140,8.457 17.582,8.336 17.834 C 8.188 18.146,8.290 18.644,8.558 18.912 C 8.840 19.193,8.705 19.179,11.127 19.191 C 12.899 19.200,13.389 19.191,13.707 19.143 C 14.867 18.969,15.841 18.477,16.684 17.641 C 17.454 16.876,17.909 16.048,18.169 14.940 C 18.248 14.600,18.254 14.447,18.270 12.180 C 18.287 9.753,18.260 8.914,18.141 8.179 C 17.958 7.051,17.470 6.097,16.946 5.843 C 16.724 5.735,16.326 5.732,16.098 5.835 M19.540 9.091 C 19.434 9.150,19.349 9.241,19.289 9.360 L 19.198 9.540 19.209 12.063 L 19.220 14.586 19.336 14.738 C 19.401 14.823,19.531 14.925,19.634 14.970 C 19.792 15.040,19.869 15.048,20.198 15.027 C 21.239 14.961,21.770 14.577,21.942 13.766 C 22.024 13.381,22.023 10.615,21.941 10.229 C 21.765 9.398,21.163 9.001,20.080 9.001 C 19.761 9.001,19.674 9.016,19.540 9.091 " fill="#292D32" stroke="none" fill-rule="evenodd"></path></svg>