<svg width="24" height="24" viewBox="0 0 24 24" fill="none" xmlns="http://www.w3.org/2000/svg"><path d="M6.220 4.827 C 6.110 4.835,5.822 4.869,5.580 4.902 C 3.203 5.233,2.244 6.365,2.041 9.080 C 1.988 9.781,1.988 14.219,2.041 14.920 C 2.246 17.654,3.172 18.735,5.628 19.108 C 6.058 19.174,6.459 19.180,10.140 19.180 C 13.821 19.180,14.222 19.174,14.652 19.108 C 17.107 18.736,18.034 17.653,18.239 14.920 C 18.292 14.219,18.292 9.781,18.239 9.080 C 18.036 6.370,17.131 5.293,14.720 4.894 C 14.343 4.832,13.893 4.824,10.360 4.819 C 8.193 4.815,6.330 4.819,6.220 4.827 M10.456 7.894 C 10.673 8.060,10.772 8.283,10.752 8.563 C 10.736 8.791,10.732 8.796,9.863 9.956 C 9.333 10.663,9.000 11.142,9.013 11.177 C 9.032 11.225,9.240 11.237,10.268 11.249 C 11.633 11.265,11.667 11.270,12.067 11.544 C 12.506 11.844,12.731 12.281,12.737 12.840 C 12.742 13.422,12.696 13.502,11.655 14.724 C 10.590 15.973,10.461 16.112,10.291 16.185 C 9.637 16.466,8.982 15.667,9.387 15.080 C 9.425 15.025,9.859 14.507,10.352 13.929 C 10.879 13.309,11.239 12.855,11.227 12.823 C 11.210 12.779,10.972 12.765,10.013 12.750 C 8.689 12.731,8.598 12.716,8.216 12.463 C 7.765 12.163,7.509 11.689,7.504 11.140 C 7.499 10.613,7.546 10.523,8.512 9.241 C 9.468 7.971,9.518 7.912,9.695 7.821 C 9.895 7.719,10.274 7.756,10.456 7.894 M19.540 9.091 C 19.434 9.150,19.349 9.241,19.289 9.360 L 19.198 9.540 19.209 12.063 L 19.220 14.586 19.336 14.738 C 19.401 14.823,19.531 14.925,19.634 14.970 C 19.792 15.040,19.869 15.048,20.198 15.027 C 21.239 14.961,21.770 14.577,21.942 13.766 C 22.024 13.381,22.023 10.615,21.941 10.229 C 21.765 9.398,21.163 9.001,20.080 9.001 C 19.761 9.001,19.674 9.016,19.540 9.091 " fill="#292D32" stroke="none" fill-rule="evenodd"></path></svg>