<svg width="24" height="24" viewBox="0 0 24 24" fill="none" xmlns="http://www.w3.org/2000/svg"><path d="M10.117 4.054 C 9.703 4.168,9.320 4.500,9.127 4.913 C 9.031 5.117,9.019 5.195,9.007 5.690 L 8.992 6.240 7.006 6.241 C 5.914 6.241,4.984 6.251,4.940 6.262 C 4.875 6.280,4.842 6.245,4.760 6.072 C 4.622 5.778,4.206 5.372,3.880 5.212 C 3.398 4.977,2.819 4.945,2.328 5.127 C 0.940 5.641,0.555 7.362,1.596 8.404 C 2.394 9.201,3.612 9.201,4.400 8.403 C 4.544 8.258,4.705 8.046,4.760 7.929 C 4.824 7.793,4.878 7.726,4.913 7.739 C 4.942 7.751,5.546 7.761,6.253 7.762 L 7.540 7.764 7.360 7.911 C 7.049 8.166,6.443 8.768,6.182 9.080 C 5.336 10.093,4.692 11.456,4.424 12.800 C 4.295 13.449,4.224 14.210,4.252 14.650 L 4.275 15.000 4.066 15.000 C 3.286 15.000,2.662 15.509,2.524 16.259 C 2.467 16.565,2.467 18.435,2.524 18.741 C 2.614 19.233,2.917 19.636,3.356 19.851 L 3.620 19.980 4.980 19.980 L 6.340 19.980 6.605 19.854 C 6.751 19.785,6.944 19.662,7.035 19.580 C 7.227 19.406,7.423 19.030,7.480 18.725 C 7.534 18.435,7.531 16.555,7.476 16.259 C 7.340 15.518,6.714 15.000,5.956 15.000 L 5.769 15.000 5.764 14.610 C 5.734 12.592,6.608 10.575,8.065 9.301 C 8.417 8.994,8.914 8.640,8.995 8.640 C 9.020 8.640,9.040 8.684,9.040 8.738 C 9.040 9.110,9.431 9.632,9.872 9.849 L 10.138 9.980 11.999 9.980 L 13.860 9.980 14.087 9.874 C 14.514 9.673,14.809 9.327,14.940 8.870 C 14.976 8.744,15.019 8.640,15.036 8.640 C 15.116 8.640,15.801 9.163,16.126 9.472 C 17.133 10.430,17.804 11.660,18.102 13.095 C 18.178 13.456,18.210 13.761,18.228 14.290 L 18.252 15.000 18.054 15.000 C 17.286 15.000,16.661 15.514,16.524 16.259 C 16.467 16.565,16.467 18.434,16.523 18.743 C 16.579 19.046,16.768 19.402,16.971 19.585 C 17.059 19.664,17.249 19.785,17.395 19.854 L 17.660 19.980 19.020 19.980 L 20.380 19.980 20.600 19.876 C 21.060 19.657,21.386 19.235,21.477 18.743 C 21.533 18.434,21.533 16.565,21.476 16.259 C 21.338 15.512,20.714 15.000,19.942 15.000 L 19.740 15.000 19.738 14.390 C 19.734 12.487,19.023 10.523,17.818 9.080 C 17.557 8.768,16.951 8.166,16.640 7.911 L 16.460 7.764 17.747 7.762 C 18.454 7.761,19.058 7.751,19.087 7.739 C 19.122 7.726,19.176 7.793,19.240 7.929 C 19.295 8.046,19.456 8.258,19.600 8.403 C 20.088 8.897,20.737 9.096,21.408 8.956 C 22.158 8.799,22.799 8.158,22.956 7.408 C 23.292 5.796,21.602 4.488,20.120 5.212 C 19.794 5.372,19.378 5.778,19.240 6.072 C 19.158 6.245,19.125 6.280,19.060 6.262 C 19.016 6.251,18.086 6.241,16.994 6.241 L 15.008 6.240 14.993 5.690 C 14.981 5.194,14.969 5.117,14.872 4.911 C 14.723 4.592,14.442 4.306,14.125 4.150 L 13.862 4.020 12.081 4.012 C 10.753 4.006,10.254 4.016,10.117 4.054 " fill="#292D32" stroke="none" fill-rule="evenodd"></path></svg>