<svg width="24" height="24" viewBox="0 0 24 24" fill="none" xmlns="http://www.w3.org/2000/svg"><path d="M1.700 1.823 C 1.436 1.960,1.242 2.248,1.242 2.500 C 1.242 2.759,1.484 3.104,1.733 3.197 C 1.800 3.223,2.211 3.240,2.762 3.240 L 3.678 3.240 3.689 9.150 L 3.700 15.060 3.832 15.440 C 3.996 15.909,4.258 16.338,4.577 16.657 C 4.925 17.005,10.261 20.980,10.628 21.164 C 11.078 21.390,11.410 21.460,12.020 21.458 C 12.389 21.457,12.615 21.436,12.800 21.386 C 13.382 21.227,13.596 21.084,16.460 18.938 C 17.978 17.801,19.298 16.796,19.394 16.705 C 19.738 16.377,20.029 15.903,20.205 15.380 L 20.300 15.100 20.320 9.180 L 20.340 3.260 21.300 3.240 C 21.945 3.227,22.288 3.204,22.345 3.172 C 22.487 3.090,22.674 2.850,22.723 2.685 C 22.809 2.400,22.694 2.107,22.417 1.895 L 22.266 1.780 12.043 1.770 C 2.837 1.761,1.808 1.766,1.700 1.823 M16.302 7.315 C 16.558 7.432,16.760 7.733,16.760 8.000 C 16.760 8.267,16.558 8.568,16.302 8.685 C 16.148 8.755,15.930 8.758,12.009 8.759 C 8.369 8.760,7.860 8.753,7.729 8.698 C 7.101 8.436,7.084 7.600,7.700 7.316 C 7.852 7.245,8.059 7.242,12.000 7.242 C 15.931 7.242,16.148 7.245,16.302 7.315 M16.302 12.315 C 16.558 12.432,16.760 12.733,16.760 13.000 C 16.760 13.267,16.558 13.568,16.302 13.685 C 16.148 13.755,15.930 13.758,12.009 13.759 C 8.369 13.760,7.860 13.753,7.729 13.698 C 7.101 13.436,7.084 12.600,7.700 12.316 C 7.852 12.245,8.059 12.242,12.000 12.242 C 15.931 12.242,16.148 12.245,16.302 12.315 " fill="#292D32" stroke="none" fill-rule="evenodd"></path></svg>