<svg width="24" height="24" viewBox="0 0 24 24" fill="none" xmlns="http://www.w3.org/2000/svg"><path d="M11.140 2.028 C 9.132 2.207,7.280 2.957,5.690 4.236 C 5.241 4.597,4.360 5.491,4.169 5.778 C 3.777 6.370,4.302 7.110,4.980 6.920 C 5.109 6.884,5.214 6.812,5.350 6.667 C 5.981 5.992,6.259 5.716,6.580 5.447 C 7.786 4.434,9.325 3.770,10.960 3.556 C 11.511 3.484,12.645 3.495,13.200 3.579 C 15.974 3.994,18.316 5.677,19.577 8.160 C 20.177 9.342,20.440 10.399,20.503 11.880 L 20.530 12.500 20.255 12.236 C 19.915 11.910,19.784 11.840,19.510 11.840 C 19.020 11.840,18.675 12.289,18.800 12.763 C 18.841 12.918,18.970 13.064,19.853 13.952 C 20.773 14.875,20.878 14.968,21.062 15.022 C 21.239 15.074,21.287 15.074,21.462 15.022 C 21.641 14.968,21.757 14.865,22.666 13.951 C 23.499 13.114,23.680 12.912,23.716 12.780 C 23.769 12.584,23.769 12.576,23.718 12.389 C 23.665 12.201,23.463 11.965,23.292 11.894 C 23.125 11.824,22.873 11.825,22.704 11.896 C 22.631 11.926,22.445 12.070,22.291 12.215 L 22.012 12.479 21.988 11.689 C 21.926 9.561,21.263 7.683,19.955 5.932 C 19.582 5.432,18.576 4.426,18.068 4.046 C 16.542 2.902,14.819 2.224,12.983 2.043 C 12.579 2.003,11.514 1.994,11.140 2.028 M11.495 6.077 C 11.302 6.164,11.145 6.356,11.084 6.580 C 11.060 6.668,11.040 6.969,11.040 7.248 L 11.040 7.757 9.884 7.768 L 8.727 7.780 8.574 7.904 C 8.489 7.973,8.384 8.090,8.340 8.164 C 8.262 8.297,8.260 8.372,8.260 12.000 C 8.260 15.628,8.262 15.703,8.340 15.836 C 8.384 15.910,8.489 16.027,8.574 16.096 L 8.727 16.220 9.884 16.232 L 11.040 16.243 11.040 16.752 C 11.040 17.317,11.080 17.516,11.229 17.714 C 11.593 18.196,12.351 18.022,12.516 17.420 C 12.540 17.332,12.560 17.030,12.560 16.750 L 12.560 16.240 13.416 16.240 C 14.582 16.240,15.011 16.152,15.556 15.800 C 16.436 15.231,16.869 14.314,16.704 13.369 C 16.596 12.753,16.204 12.153,15.668 11.784 L 15.451 11.634 15.565 11.424 C 15.975 10.666,15.955 9.757,15.510 9.004 C 15.342 8.718,14.918 8.296,14.628 8.125 C 14.157 7.847,13.929 7.790,13.210 7.769 L 12.560 7.751 12.560 7.245 C 12.560 6.967,12.540 6.668,12.516 6.580 C 12.425 6.247,12.121 6.002,11.800 6.002 C 11.723 6.002,11.586 6.035,11.495 6.077 M2.513 8.976 C 2.432 9.005,2.297 9.084,2.213 9.151 C 1.932 9.376,0.412 10.938,0.342 11.074 C 0.257 11.241,0.254 11.593,0.336 11.753 C 0.426 11.927,0.668 12.111,0.846 12.141 C 1.161 12.194,1.305 12.135,1.639 11.816 C 1.810 11.653,1.958 11.520,1.969 11.520 C 1.979 11.520,1.999 11.857,2.012 12.270 C 2.063 13.877,2.404 15.212,3.112 16.576 C 3.621 17.556,4.155 18.282,4.957 19.082 C 5.779 19.902,6.578 20.471,7.620 20.980 C 8.581 21.450,9.516 21.742,10.580 21.905 C 11.245 22.007,12.784 22.007,13.432 21.906 C 15.671 21.554,17.633 20.551,19.162 18.975 C 19.775 18.343,19.930 18.125,19.952 17.860 C 19.987 17.436,19.700 17.089,19.282 17.049 C 19.000 17.022,18.784 17.138,18.528 17.454 C 18.235 17.815,17.520 18.495,17.111 18.802 C 14.341 20.879,10.629 21.077,7.637 19.306 C 6.500 18.633,5.344 17.464,4.652 16.288 C 3.899 15.009,3.481 13.443,3.480 11.903 L 3.480 11.507 3.750 11.767 C 4.106 12.111,4.231 12.173,4.523 12.152 C 4.796 12.132,4.998 12.000,5.120 11.759 C 5.216 11.573,5.224 11.283,5.139 11.104 C 5.106 11.034,4.634 10.534,4.089 9.992 C 3.272 9.178,3.072 9.000,2.940 8.964 C 2.740 8.910,2.695 8.911,2.513 8.976 M13.609 9.282 C 13.819 9.340,14.078 9.550,14.217 9.774 C 14.353 9.995,14.399 10.341,14.323 10.572 C 14.258 10.768,13.993 11.057,13.787 11.157 C 13.620 11.238,13.559 11.240,11.687 11.240 L 9.760 11.240 9.760 10.240 L 9.760 9.240 11.610 9.240 C 12.761 9.240,13.516 9.256,13.609 9.282 M14.471 12.825 C 15.266 13.081,15.494 13.909,14.911 14.422 C 14.538 14.749,14.632 14.738,12.050 14.751 L 9.760 14.763 9.760 13.762 L 9.760 12.760 12.015 12.760 C 13.982 12.760,14.296 12.768,14.471 12.825 " fill="#292D32" stroke="none" fill-rule="evenodd"></path></svg>