<svg width="24" height="24" viewBox="0 0 24 24" fill="none" xmlns="http://www.w3.org/2000/svg"><path d="M6.900 0.303 C 4.147 0.723,1.843 2.531,0.823 5.073 C 0.504 5.868,0.346 6.561,0.280 7.459 C 0.237 8.036,0.264 8.217,0.426 8.430 C 0.747 8.855,1.430 8.779,1.661 8.291 C 1.711 8.187,1.742 7.981,1.765 7.612 C 1.857 6.111,2.442 4.759,3.466 3.681 C 4.193 2.917,5.108 2.336,6.077 2.023 C 6.326 1.942,6.537 1.883,6.545 1.892 C 6.554 1.901,6.485 2.040,6.391 2.201 C 6.245 2.453,6.221 2.526,6.221 2.725 C 6.221 3.145,6.527 3.441,6.959 3.439 C 7.371 3.438,7.413 3.394,8.115 2.226 C 8.704 1.248,8.737 1.181,8.737 0.986 C 8.737 0.716,8.598 0.466,8.377 0.336 C 8.227 0.248,8.171 0.240,7.736 0.244 C 7.474 0.246,7.098 0.272,6.900 0.303 M14.380 2.579 C 12.228 2.923,10.449 4.326,9.622 6.330 C 9.491 6.648,9.321 7.227,9.266 7.545 L 9.244 7.669 9.512 7.696 C 10.594 7.806,11.905 8.282,12.860 8.913 C 14.549 10.030,15.766 11.801,16.183 13.748 C 16.236 13.994,16.291 14.322,16.305 14.476 L 16.331 14.756 16.456 14.734 C 16.773 14.679,17.352 14.509,17.670 14.378 C 19.475 13.633,20.826 12.081,21.296 10.212 C 21.435 9.658,21.480 9.276,21.480 8.641 C 21.480 5.651,19.331 3.105,16.382 2.600 C 15.834 2.507,14.895 2.497,14.380 2.579 M7.880 9.204 C 5.297 9.535,3.206 11.466,2.637 14.046 C 2.506 14.639,2.486 15.717,2.595 16.353 C 2.932 18.323,4.146 19.952,5.940 20.841 C 6.937 21.334,7.743 21.505,8.900 21.468 C 9.428 21.451,9.674 21.424,10.000 21.346 C 10.570 21.211,11.066 21.031,11.520 20.794 C 13.189 19.924,14.368 18.339,14.746 16.459 C 14.857 15.907,14.846 14.684,14.725 14.120 C 14.465 12.906,13.938 11.908,13.102 11.046 C 12.114 10.028,10.954 9.434,9.540 9.221 C 9.115 9.157,8.310 9.148,7.880 9.204 M8.833 11.330 C 9.052 11.476,9.160 11.713,9.160 12.053 L 9.160 12.320 9.358 12.320 C 10.662 12.320,11.645 13.639,11.204 14.798 L 11.127 15.002 11.345 15.220 C 11.736 15.611,11.937 16.201,11.851 16.704 C 11.762 17.226,11.462 17.684,11.027 17.965 C 10.611 18.234,10.410 18.290,9.760 18.316 L 9.180 18.340 9.159 18.668 C 9.140 18.956,9.123 19.014,9.016 19.148 C 8.698 19.547,8.142 19.547,7.824 19.148 C 7.717 19.014,7.700 18.956,7.681 18.668 L 7.660 18.340 7.020 18.320 C 6.241 18.296,6.126 18.250,5.945 17.892 C 5.887 17.778,5.880 17.496,5.880 15.345 C 5.880 13.732,5.894 12.888,5.923 12.813 C 5.983 12.653,6.154 12.482,6.340 12.396 C 6.472 12.335,6.601 12.322,7.086 12.321 L 7.672 12.320 7.686 12.007 C 7.697 11.750,7.719 11.666,7.807 11.533 C 8.029 11.197,8.493 11.106,8.833 11.330 M7.360 14.200 L 7.360 14.560 8.470 14.559 C 9.635 14.557,9.657 14.554,9.753 14.373 C 9.832 14.225,9.808 14.082,9.683 13.957 L 9.566 13.840 8.463 13.840 L 7.360 13.840 7.360 14.200 M22.633 15.330 C 22.329 15.516,22.256 15.697,22.227 16.340 C 22.124 18.556,20.738 20.624,18.703 21.599 C 18.319 21.783,17.545 22.056,17.478 22.032 C 17.460 22.025,17.516 21.904,17.602 21.761 C 17.862 21.331,17.853 20.989,17.575 20.703 C 17.320 20.440,16.886 20.406,16.608 20.627 C 16.430 20.769,15.294 22.623,15.254 22.838 C 15.196 23.148,15.409 23.536,15.709 23.665 C 15.958 23.772,16.831 23.713,17.634 23.535 C 19.710 23.075,21.472 21.819,22.608 19.992 C 23.277 18.915,23.700 17.501,23.729 16.240 C 23.738 15.852,23.728 15.756,23.663 15.625 C 23.489 15.274,22.969 15.125,22.633 15.330 M7.368 16.450 L 7.380 16.820 8.700 16.820 C 9.885 16.820,10.033 16.813,10.149 16.750 C 10.461 16.579,10.419 16.256,10.067 16.123 C 9.996 16.096,9.479 16.080,8.656 16.080 L 7.357 16.080 7.368 16.450 " fill="#292D32" stroke="none" fill-rule="evenodd"></path></svg>