<svg width="24" height="24" viewBox="0 0 24 24" fill="none" xmlns="http://www.w3.org/2000/svg"><path d="M5.480 3.461 C 3.719 3.738,2.329 5.142,2.058 6.920 C 1.973 7.482,1.972 16.514,2.058 17.082 C 2.334 18.915,3.795 20.326,5.656 20.560 C 6.095 20.615,17.905 20.615,18.344 20.560 C 20.205 20.326,21.666 18.915,21.942 17.082 C 22.028 16.514,22.027 7.482,21.942 6.920 C 21.709 5.393,20.678 4.151,19.220 3.641 C 18.514 3.394,18.703 3.400,11.960 3.404 C 7.052 3.407,5.752 3.418,5.480 3.461 M15.840 7.582 C 15.959 7.642,16.130 7.821,16.201 7.958 C 16.228 8.011,16.260 8.212,16.271 8.404 L 16.291 8.752 16.818 8.766 L 17.346 8.780 17.690 8.950 C 18.658 9.430,19.102 10.470,18.744 11.417 L 18.654 11.655 18.907 11.902 C 19.346 12.333,19.557 12.927,19.477 13.507 C 19.371 14.279,18.694 14.986,17.876 15.179 C 17.702 15.219,17.406 15.239,16.956 15.239 L 16.291 15.240 16.271 15.591 C 16.249 15.970,16.195 16.117,16.014 16.285 C 15.850 16.436,15.743 16.482,15.547 16.486 C 15.326 16.491,15.213 16.455,15.046 16.330 C 14.844 16.178,14.762 15.961,14.761 15.570 L 14.760 15.240 13.673 15.240 C 12.646 15.240,12.575 15.235,12.410 15.155 C 11.707 14.815,11.978 13.760,12.768 13.760 L 13.000 13.760 13.000 12.000 L 13.000 10.240 12.793 10.240 C 12.013 10.240,11.706 9.286,12.354 8.875 L 12.536 8.760 13.648 8.760 L 14.760 8.760 14.761 8.430 C 14.762 8.195,14.783 8.053,14.837 7.935 C 15.006 7.561,15.476 7.396,15.840 7.582 M14.509 10.265 C 14.493 10.280,14.480 10.506,14.480 10.767 L 14.480 11.240 15.754 11.240 C 17.015 11.240,17.030 11.239,17.164 11.149 C 17.356 11.020,17.420 10.812,17.335 10.599 C 17.300 10.511,17.214 10.399,17.145 10.349 C 17.023 10.262,16.990 10.260,15.779 10.248 C 15.096 10.241,14.525 10.249,14.509 10.265 M9.540 11.316 C 9.734 11.405,9.856 11.532,9.938 11.729 C 10.104 12.125,9.868 12.602,9.449 12.718 C 9.355 12.744,8.527 12.760,7.218 12.760 L 5.136 12.760 4.927 12.656 C 4.530 12.458,4.392 12.006,4.614 11.627 C 4.720 11.446,4.857 11.333,5.037 11.278 C 5.093 11.261,6.094 11.246,7.260 11.244 C 9.240 11.242,9.391 11.247,9.540 11.316 M14.520 13.262 L 14.520 13.764 16.030 13.752 C 17.488 13.740,17.546 13.737,17.700 13.654 C 18.114 13.431,18.079 13.009,17.631 12.822 C 17.506 12.770,17.248 12.760,16.001 12.760 L 14.520 12.760 14.520 13.262 " fill="#292D32" stroke="none" fill-rule="evenodd"></path></svg>