<svg width="24" height="24" viewBox="0 0 24 24" fill="none" xmlns="http://www.w3.org/2000/svg"><path d="M8.220 2.041 C 6.494 2.236,4.815 3.105,3.717 4.371 C 2.080 6.258,1.552 8.823,2.319 11.163 C 3.239 13.973,5.762 15.866,8.748 15.988 C 9.231 16.008,9.331 16.002,9.415 15.947 C 9.580 15.839,9.580 15.745,9.417 15.481 C 9.293 15.280,9.270 15.206,9.271 15.025 C 9.274 14.693,9.424 14.470,9.729 14.342 C 10.096 14.189,10.291 14.279,10.919 14.896 C 11.503 15.469,11.556 15.493,11.907 15.351 C 12.229 15.222,12.783 14.889,12.967 14.716 C 13.095 14.596,13.120 14.546,13.120 14.412 C 13.120 14.222,13.008 14.055,12.641 13.700 C 12.338 13.405,12.269 13.280,12.269 13.020 C 12.269 12.478,12.802 12.129,13.307 12.340 C 13.386 12.373,13.608 12.555,13.801 12.743 C 14.092 13.028,14.178 13.090,14.306 13.107 C 14.629 13.149,14.786 12.991,15.182 12.221 C 15.500 11.604,15.501 11.607,14.888 10.985 C 14.625 10.718,14.379 10.438,14.340 10.362 C 14.254 10.193,14.250 9.853,14.333 9.694 C 14.454 9.461,14.746 9.280,15.000 9.280 C 15.152 9.280,15.390 9.377,15.507 9.487 C 15.617 9.590,15.776 9.594,15.886 9.495 C 15.966 9.423,15.968 9.392,15.948 8.760 C 15.884 6.746,14.987 4.909,13.440 3.620 C 12.540 2.871,11.347 2.315,10.217 2.118 C 9.672 2.023,8.707 1.986,8.220 2.041 M17.342 8.508 C 17.081 8.577,16.960 8.813,16.961 9.251 C 16.961 9.410,16.931 9.785,16.895 10.084 C 16.858 10.383,16.840 10.676,16.855 10.734 C 16.870 10.793,17.060 11.029,17.279 11.259 C 17.581 11.577,17.682 11.711,17.703 11.821 C 17.771 12.183,17.614 12.497,17.278 12.673 C 17.039 12.797,16.770 12.771,16.526 12.598 C 16.272 12.420,16.217 12.445,15.992 12.840 C 15.885 13.027,15.699 13.325,15.578 13.503 C 15.223 14.023,15.244 14.207,15.705 14.639 C 16.079 14.989,16.160 15.124,16.160 15.398 C 16.160 15.697,16.007 15.951,15.752 16.074 C 15.389 16.250,15.133 16.161,14.629 15.686 C 14.128 15.214,14.066 15.212,13.414 15.643 C 13.175 15.800,12.890 15.974,12.780 16.029 C 12.396 16.222,12.369 16.288,12.570 16.561 C 12.686 16.719,12.700 16.766,12.700 17.005 C 12.700 17.243,12.687 17.289,12.578 17.426 C 12.443 17.596,12.159 17.760,12.002 17.760 C 11.737 17.759,11.592 17.674,11.179 17.277 C 10.700 16.817,10.760 16.833,9.902 16.940 C 9.638 16.973,9.299 17.000,9.148 17.000 C 8.698 17.000,8.480 17.161,8.480 17.492 C 8.480 17.808,9.185 19.008,9.752 19.656 C 10.523 20.539,11.672 21.286,12.826 21.655 C 13.567 21.892,14.108 21.974,14.940 21.976 C 15.698 21.977,16.049 21.937,16.687 21.777 C 18.661 21.283,20.387 19.878,21.265 18.052 C 22.933 14.581,21.503 10.425,18.060 8.739 C 17.603 8.515,17.474 8.474,17.342 8.508 " fill="#292D32" stroke="none" fill-rule="evenodd"></path></svg>