<svg width="24" height="24" viewBox="0 0 24 24" fill="none" xmlns="http://www.w3.org/2000/svg"><path d="M7.440 6.024 C 5.433 6.263,3.856 7.254,2.827 8.924 C 1.990 10.281,1.758 12.105,2.220 13.691 C 2.845 15.834,4.621 17.442,6.859 17.889 C 7.481 18.014,8.515 18.011,9.120 17.884 C 11.559 17.371,13.378 15.537,13.866 13.099 C 13.966 12.596,13.966 11.404,13.866 10.901 C 13.378 8.463,11.539 6.610,9.120 6.119 C 8.715 6.037,7.776 5.984,7.440 6.024 M15.280 6.040 C 14.838 6.093,14.129 6.272,13.878 6.394 C 13.694 6.483,13.651 6.526,13.604 6.663 C 13.573 6.752,13.559 6.871,13.573 6.926 C 13.587 6.982,13.743 7.221,13.920 7.458 C 14.856 8.709,15.319 9.934,15.444 11.489 C 15.586 13.258,14.971 15.256,13.871 16.605 C 13.553 16.995,13.499 17.167,13.623 17.405 C 13.702 17.559,13.961 17.676,14.522 17.815 C 15.144 17.968,15.588 18.014,16.200 17.988 C 16.831 17.961,17.254 17.886,17.822 17.700 C 19.873 17.028,21.373 15.361,21.845 13.228 C 21.949 12.756,21.990 11.706,21.922 11.233 C 21.551 8.644,19.654 6.621,17.124 6.117 C 16.676 6.028,15.720 5.988,15.280 6.040 " fill="#292D32" stroke="none" fill-rule="evenodd"></path></svg>