<svg width="24" height="24" viewBox="0 0 24 24" fill="none" xmlns="http://www.w3.org/2000/svg"><path d="M6.991 2.044 C 6.252 2.117,5.350 2.362,4.800 2.640 C 4.372 2.856,3.859 3.234,3.515 3.586 C 2.777 4.344,2.333 5.262,2.108 6.497 C 2.020 6.978,2.020 7.001,2.020 12.000 C 2.020 16.999,2.020 17.022,2.108 17.503 C 2.338 18.764,2.786 19.676,3.555 20.445 C 4.324 21.214,5.236 21.662,6.497 21.892 C 6.978 21.980,7.001 21.980,12.000 21.980 L 17.020 21.980 17.515 21.890 C 18.730 21.669,19.674 21.205,20.424 20.461 C 21.225 19.667,21.709 18.645,21.909 17.326 C 21.974 16.900,21.980 16.449,21.980 12.020 C 21.980 6.785,21.981 6.812,21.761 5.939 C 21.514 4.958,21.135 4.265,20.480 3.597 C 19.698 2.799,18.826 2.358,17.544 2.111 C 17.107 2.027,17.018 2.026,12.220 2.017 C 9.536 2.013,7.183 2.025,6.991 2.044 M12.487 5.079 C 12.628 5.123,12.824 5.211,12.922 5.276 C 13.122 5.409,15.655 7.525,15.771 7.656 C 15.811 7.702,15.902 7.857,15.972 8.000 C 16.084 8.228,16.100 8.300,16.099 8.580 C 16.097 8.843,16.078 8.943,15.987 9.140 C 15.846 9.444,15.827 9.464,14.330 10.828 C 13.643 11.455,13.080 11.983,13.080 12.001 C 13.080 12.019,13.682 12.585,14.419 13.260 C 15.155 13.935,15.810 14.567,15.874 14.664 C 16.040 14.914,16.137 15.299,16.103 15.571 C 16.069 15.842,15.893 16.216,15.715 16.397 C 15.641 16.472,14.987 17.028,14.263 17.632 C 12.725 18.915,12.619 18.980,12.080 18.979 C 11.790 18.979,11.711 18.963,11.540 18.873 C 11.244 18.717,11.060 18.501,10.897 18.120 C 10.826 17.953,10.819 17.801,10.800 16.010 L 10.780 14.080 9.380 15.363 C 8.610 16.069,7.912 16.697,7.829 16.760 C 7.212 17.222,6.354 16.488,6.731 15.821 C 6.787 15.723,7.572 14.975,8.801 13.850 C 9.889 12.853,10.780 12.012,10.780 11.980 C 10.780 11.949,9.889 11.117,8.801 10.131 C 7.541 8.990,6.789 8.281,6.732 8.180 C 6.500 7.771,6.744 7.251,7.227 7.123 C 7.439 7.067,7.677 7.116,7.851 7.254 C 7.922 7.309,8.610 7.932,9.380 8.637 L 10.780 9.920 10.802 8.010 C 10.817 6.690,10.838 6.057,10.871 5.959 C 10.949 5.729,11.170 5.395,11.328 5.268 C 11.508 5.123,11.841 5.003,12.066 5.001 C 12.157 5.001,12.347 5.036,12.487 5.079 M12.320 8.662 L 12.320 10.614 12.410 10.533 C 13.019 9.984,14.582 8.541,14.588 8.523 C 14.594 8.504,12.636 6.931,12.399 6.765 C 12.321 6.711,12.320 6.731,12.320 8.662 M7.146 10.726 C 7.440 10.836,7.692 11.074,7.849 11.391 C 7.966 11.630,7.980 11.695,7.980 12.000 C 7.980 12.306,7.966 12.370,7.848 12.609 C 7.431 13.457,6.328 13.642,5.662 12.976 C 4.993 12.307,5.170 11.205,6.014 10.774 C 6.379 10.587,6.733 10.572,7.146 10.726 M17.840 10.703 C 18.782 11.011,19.062 12.276,18.343 12.975 C 17.659 13.640,16.570 13.458,16.152 12.609 C 16.034 12.370,16.020 12.306,16.020 12.000 C 16.020 11.694,16.034 11.630,16.152 11.391 C 16.465 10.754,17.147 10.476,17.840 10.703 M12.280 15.304 C 12.280 17.052,12.287 17.286,12.340 17.266 C 12.373 17.253,12.897 16.826,13.504 16.316 L 14.608 15.390 14.514 15.301 C 14.159 14.967,12.321 13.320,12.303 13.320 C 12.290 13.320,12.280 14.213,12.280 15.304 " fill="#292D32" stroke="none" fill-rule="evenodd"></path></svg>