<svg width="24" height="24" viewBox="0 0 24 24" fill="none" xmlns="http://www.w3.org/2000/svg"><path d="M8.440 2.026 C 6.077 2.275,4.519 3.679,4.095 5.940 C 4.024 6.319,4.020 6.635,4.020 12.000 C 4.020 17.365,4.024 17.681,4.095 18.060 C 4.487 20.151,5.849 21.513,7.940 21.905 C 8.313 21.975,8.590 21.980,12.000 21.980 C 15.410 21.980,15.687 21.975,16.060 21.905 C 18.151 21.513,19.513 20.151,19.905 18.060 C 19.976 17.681,19.980 17.365,19.980 12.000 C 19.980 6.635,19.976 6.319,19.905 5.940 C 19.519 3.883,18.225 2.559,16.161 2.109 C 15.793 2.029,15.661 2.026,12.180 2.018 C 10.200 2.014,8.517 2.018,8.440 2.026 M13.210 6.034 C 13.441 6.149,15.301 7.656,15.752 8.093 C 16.195 8.523,16.284 9.222,15.961 9.733 C 15.899 9.830,15.347 10.373,14.734 10.938 C 14.121 11.503,13.616 11.977,13.610 11.992 C 13.605 12.008,14.111 12.485,14.736 13.053 C 15.708 13.936,15.891 14.121,16.001 14.328 C 16.228 14.753,16.202 15.252,15.932 15.674 C 15.859 15.787,15.398 16.200,14.620 16.850 C 13.247 17.997,13.081 18.100,12.620 18.099 C 12.466 18.098,12.269 18.073,12.182 18.043 C 11.960 17.966,11.647 17.661,11.524 17.400 L 11.420 17.180 11.408 15.607 C 11.401 14.734,11.380 14.040,11.361 14.047 C 11.342 14.054,10.816 14.528,10.193 15.100 C 9.123 16.083,8.818 16.320,8.623 16.320 C 8.454 16.319,8.234 16.232,8.097 16.112 C 7.778 15.832,7.750 15.368,8.033 15.065 C 8.092 15.002,8.855 14.294,9.730 13.492 C 10.604 12.690,11.320 12.018,11.320 11.999 C 11.320 11.981,10.571 11.278,9.656 10.438 C 7.923 8.847,7.843 8.759,7.841 8.449 C 7.839 8.164,8.026 7.882,8.300 7.756 C 8.500 7.663,8.696 7.662,8.889 7.751 C 8.971 7.789,9.570 8.311,10.219 8.911 L 11.400 10.001 11.400 8.531 C 11.401 6.944,11.415 6.806,11.616 6.463 C 11.752 6.232,12.013 6.012,12.239 5.939 C 12.526 5.847,12.911 5.884,13.210 6.034 M12.920 9.143 L 12.920 10.570 13.090 10.415 C 14.581 9.056,14.568 9.070,14.492 8.999 C 14.385 8.899,13.028 7.782,12.970 7.746 C 12.930 7.722,12.920 8.011,12.920 9.143 M12.880 14.879 C 12.880 16.025,12.890 16.318,12.930 16.295 C 12.985 16.261,14.377 15.108,14.493 15.000 C 14.562 14.935,14.529 14.899,13.759 14.196 C 13.315 13.791,12.936 13.454,12.916 13.447 C 12.895 13.439,12.880 14.036,12.880 14.879 " fill="#292D32" stroke="none" fill-rule="evenodd"></path></svg>