<svg width="24" height="24" viewBox="0 0 24 24" fill="none" xmlns="http://www.w3.org/2000/svg"><path d="M6.991 2.044 C 6.252 2.117,5.350 2.362,4.800 2.640 C 4.372 2.856,3.859 3.234,3.515 3.586 C 2.777 4.344,2.333 5.262,2.108 6.497 C 2.020 6.978,2.020 7.001,2.020 12.000 C 2.020 16.999,2.020 17.022,2.108 17.503 C 2.338 18.764,2.786 19.676,3.555 20.445 C 4.324 21.214,5.236 21.662,6.497 21.892 C 6.978 21.980,7.001 21.980,12.000 21.980 L 17.020 21.980 17.515 21.890 C 18.730 21.669,19.674 21.205,20.424 20.461 C 21.225 19.667,21.709 18.645,21.909 17.326 C 21.974 16.900,21.980 16.449,21.980 12.020 C 21.980 6.785,21.981 6.812,21.761 5.939 C 21.514 4.958,21.135 4.265,20.480 3.597 C 19.698 2.799,18.826 2.358,17.544 2.111 C 17.107 2.027,17.018 2.026,12.220 2.017 C 9.536 2.013,7.183 2.025,6.991 2.044 M13.126 5.039 C 13.266 5.082,13.452 5.167,13.540 5.227 C 13.808 5.410,16.293 7.496,16.417 7.643 C 16.840 8.144,16.855 8.899,16.451 9.411 C 16.368 9.516,15.715 10.136,15.000 10.789 C 14.285 11.441,13.700 11.987,13.700 12.001 C 13.700 12.015,14.177 12.463,14.760 12.998 C 16.293 14.403,16.494 14.608,16.626 14.897 C 16.784 15.244,16.784 15.676,16.626 16.024 C 16.481 16.341,16.330 16.485,14.826 17.739 C 13.476 18.865,13.276 18.993,12.825 19.030 C 12.426 19.062,12.158 18.964,11.880 18.687 C 11.725 18.531,11.623 18.384,11.557 18.220 C 11.460 17.980,11.460 17.976,11.440 16.026 L 11.420 14.071 9.945 15.426 C 9.134 16.170,8.407 16.813,8.330 16.854 C 8.159 16.943,7.850 16.948,7.688 16.864 C 7.528 16.782,7.338 16.556,7.280 16.381 C 7.227 16.221,7.252 16.009,7.345 15.830 C 7.377 15.768,8.307 14.889,9.412 13.878 C 10.516 12.866,11.420 12.017,11.420 11.991 C 11.420 11.965,10.520 11.128,9.420 10.131 C 8.320 9.135,7.389 8.261,7.350 8.190 C 7.250 8.005,7.227 7.836,7.278 7.648 C 7.398 7.204,7.929 6.950,8.322 7.151 C 8.399 7.190,9.121 7.829,9.929 8.571 C 10.736 9.313,11.406 9.920,11.418 9.920 C 11.430 9.920,11.440 9.076,11.440 8.044 C 11.440 6.275,11.445 6.154,11.521 5.907 C 11.693 5.348,12.166 4.971,12.706 4.963 C 12.797 4.961,12.986 4.996,13.126 5.039 M12.920 8.645 L 12.920 10.656 13.070 10.513 C 13.152 10.435,13.670 9.960,14.220 9.459 C 14.770 8.957,15.220 8.532,15.220 8.514 C 15.220 8.489,14.116 7.585,13.070 6.753 L 12.920 6.633 12.920 8.645 M12.920 15.319 C 12.920 16.615,12.934 17.322,12.959 17.313 C 13.018 17.293,15.240 15.430,15.237 15.403 C 15.234 15.379,13.303 13.626,13.059 13.426 L 12.920 13.312 12.920 15.319 " fill="#292D32" stroke="none" fill-rule="evenodd"></path></svg>