<svg width="24" height="24" viewBox="0 0 24 24" fill="none" xmlns="http://www.w3.org/2000/svg"><path d="M10.474 2.950 C 10.230 3.112,9.130 4.123,8.499 4.767 C 5.805 7.513,4.285 10.245,3.961 12.919 C 3.908 13.358,3.908 14.408,3.962 14.841 C 4.118 16.101,4.553 17.298,5.228 18.320 C 6.369 20.047,8.027 21.230,10.026 21.742 C 10.785 21.937,10.988 21.922,11.162 21.657 C 11.238 21.542,11.239 21.367,11.240 12.388 C 11.240 2.434,11.255 3.098,11.023 2.946 C 10.892 2.860,10.608 2.862,10.474 2.950 M13.018 2.942 C 12.755 3.072,12.760 3.026,12.760 5.170 L 12.760 7.108 12.851 7.244 C 12.983 7.439,13.183 7.498,13.431 7.414 C 13.535 7.379,14.173 7.074,14.849 6.736 C 15.873 6.223,16.088 6.101,16.139 6.003 C 16.224 5.838,16.215 5.645,16.115 5.481 C 16.009 5.307,14.602 3.903,14.028 3.399 C 13.420 2.866,13.291 2.807,13.018 2.942 M17.220 7.281 C 17.154 7.296,16.443 7.628,15.640 8.019 C 14.837 8.410,13.892 8.870,13.540 9.041 C 13.041 9.284,12.885 9.379,12.830 9.472 C 12.767 9.580,12.760 9.727,12.760 10.893 L 12.760 12.194 12.863 12.316 C 12.922 12.386,13.033 12.457,13.124 12.481 C 13.313 12.532,13.074 12.623,16.360 11.244 C 17.878 10.607,18.791 10.203,18.880 10.128 C 19.008 10.021,19.020 9.993,19.020 9.795 C 19.020 9.601,18.990 9.526,18.706 9.020 C 18.361 8.406,17.776 7.501,17.650 7.389 C 17.543 7.293,17.366 7.248,17.220 7.281 M19.240 11.668 C 19.137 11.706,13.187 14.244,13.045 14.310 C 12.971 14.345,12.877 14.429,12.835 14.497 C 12.766 14.610,12.760 14.717,12.760 15.852 C 12.760 17.205,12.769 17.260,12.999 17.379 C 13.257 17.513,13.242 17.519,16.668 15.852 C 19.418 14.513,19.943 14.245,20.009 14.142 C 20.078 14.032,20.084 13.969,20.064 13.520 C 20.040 12.963,19.903 12.081,19.814 11.908 C 19.711 11.709,19.439 11.595,19.240 11.668 M15.880 17.902 C 14.285 18.684,12.935 19.368,12.880 19.423 L 12.780 19.522 12.767 20.511 C 12.753 21.601,12.766 21.676,12.999 21.813 C 13.147 21.900,13.280 21.898,13.746 21.797 C 15.255 21.470,16.872 20.549,17.900 19.430 C 18.601 18.667,19.440 17.318,19.440 16.954 C 19.440 16.787,19.339 16.612,19.201 16.541 C 18.935 16.403,18.944 16.399,15.880 17.902 " fill="#292D32" stroke="none" fill-rule="evenodd"></path></svg>