<svg width="24" height="24" viewBox="0 0 24 24" fill="none" xmlns="http://www.w3.org/2000/svg"><path d="M6.960 2.046 C 6.236 2.116,5.358 2.357,4.796 2.641 C 4.426 2.828,3.928 3.183,3.624 3.475 C 2.737 4.332,2.251 5.370,2.062 6.812 C 1.970 7.515,1.969 16.481,2.061 17.188 C 2.239 18.550,2.681 19.544,3.476 20.372 C 4.162 21.084,4.935 21.524,5.956 21.780 C 6.817 21.997,6.896 22.000,11.993 22.000 C 14.960 22.000,16.828 21.985,17.041 21.959 C 19.985 21.603,21.695 19.840,21.962 16.885 C 21.990 16.579,21.999 14.787,21.989 11.660 C 21.974 7.001,21.972 6.891,21.889 6.456 C 21.642 5.171,21.165 4.235,20.369 3.478 C 19.583 2.729,18.652 2.295,17.359 2.076 C 16.995 2.014,7.572 1.987,6.960 2.046 M7.982 6.455 C 8.962 6.670,10.133 7.080,10.930 7.488 C 11.552 7.806,11.480 7.126,11.480 12.664 L 11.480 17.437 11.357 17.577 C 11.155 17.808,11.070 17.802,10.298 17.507 C 9.128 17.059,8.050 16.753,7.166 16.617 C 6.563 16.524,6.359 16.461,6.152 16.303 C 5.944 16.144,5.737 15.853,5.679 15.635 C 5.653 15.539,5.642 14.025,5.649 11.333 L 5.660 7.180 5.766 6.980 C 5.903 6.722,6.085 6.551,6.360 6.420 C 6.570 6.320,6.602 6.316,7.060 6.336 C 7.342 6.349,7.722 6.397,7.982 6.455 M17.508 6.407 C 17.825 6.525,18.155 6.856,18.274 7.173 L 18.361 7.406 18.351 11.513 L 18.340 15.620 18.248 15.808 C 18.121 16.064,17.873 16.309,17.626 16.422 C 17.508 16.476,17.233 16.543,16.980 16.580 C 16.085 16.709,14.754 17.081,13.666 17.504 C 13.081 17.732,12.945 17.756,12.764 17.662 C 12.502 17.527,12.520 17.894,12.520 12.644 L 12.520 7.886 12.621 7.766 C 12.859 7.484,14.419 6.849,15.626 6.543 C 16.582 6.301,17.122 6.262,17.508 6.407 " fill="#292D32" stroke="none" fill-rule="evenodd"></path></svg>