<svg width="24" height="24" viewBox="0 0 24 24" fill="none" xmlns="http://www.w3.org/2000/svg"><path d="M3.680 2.740 C 2.879 2.921,2.208 3.598,2.044 4.392 C 2.013 4.540,2.000 6.458,2.000 10.794 C 2.000 16.225,2.008 17.012,2.061 17.219 C 2.222 17.834,2.710 18.372,3.321 18.604 C 3.432 18.646,3.779 18.718,4.092 18.762 C 5.560 18.972,7.640 19.554,9.380 20.244 C 9.922 20.459,10.057 20.497,10.260 20.495 C 10.636 20.492,10.943 20.298,11.134 19.941 L 11.220 19.780 11.230 12.642 C 11.242 4.787,11.256 5.261,10.997 4.948 C 10.902 4.834,10.717 4.720,10.237 4.482 C 8.014 3.380,4.721 2.505,3.680 2.740 M19.140 2.761 C 17.421 3.024,15.324 3.696,13.721 4.499 C 13.118 4.802,12.980 4.910,12.855 5.178 L 12.761 5.380 12.760 12.562 L 12.760 19.744 12.864 19.952 C 13.049 20.325,13.452 20.555,13.835 20.507 C 13.937 20.494,14.263 20.386,14.560 20.266 C 16.080 19.653,17.965 19.102,19.360 18.863 C 20.530 18.663,20.616 18.643,20.858 18.523 C 21.320 18.293,21.678 17.893,21.884 17.380 L 21.980 17.140 21.991 10.881 C 22.001 4.716,22.000 4.618,21.920 4.303 C 21.822 3.916,21.653 3.619,21.360 3.323 C 20.978 2.936,20.351 2.677,19.820 2.684 C 19.710 2.686,19.404 2.720,19.140 2.761 M7.399 7.763 C 7.635 7.818,7.831 7.972,7.923 8.175 C 8.060 8.476,8.013 8.756,7.788 8.995 C 7.559 9.236,7.531 9.240,6.131 9.239 C 4.984 9.238,4.844 9.231,4.698 9.165 C 4.027 8.860,4.133 7.934,4.860 7.757 C 5.048 7.712,7.197 7.717,7.399 7.763 M8.366 10.849 C 8.504 10.931,8.579 11.013,8.656 11.167 C 8.771 11.397,8.779 11.469,8.718 11.689 C 8.663 11.888,8.499 12.075,8.302 12.165 C 8.153 12.232,8.006 12.238,6.500 12.238 C 4.678 12.238,4.658 12.236,4.432 11.967 C 4.058 11.523,4.277 10.903,4.860 10.756 C 4.926 10.740,5.700 10.729,6.580 10.733 L 8.180 10.740 8.366 10.849 " fill="#292D32" stroke="none" fill-rule="evenodd"></path></svg>