<svg width="24" height="24" viewBox="0 0 24 24" fill="none" xmlns="http://www.w3.org/2000/svg"><path d="M8.419 2.064 C 8.184 2.147,7.982 2.331,7.864 2.568 L 7.760 2.776 7.760 7.750 C 7.760 13.257,7.752 13.083,8.013 13.468 C 8.181 13.715,8.371 13.809,8.696 13.808 C 9.086 13.805,9.413 13.667,10.345 13.110 C 10.809 12.832,11.286 12.572,11.405 12.533 C 11.699 12.434,12.301 12.434,12.595 12.533 C 12.714 12.572,13.187 12.830,13.646 13.105 C 14.602 13.676,14.902 13.807,15.280 13.815 C 15.613 13.822,15.813 13.723,15.987 13.468 C 16.248 13.083,16.240 13.257,16.240 7.750 L 16.240 2.776 16.136 2.568 C 16.015 2.323,15.815 2.146,15.565 2.061 C 15.305 1.972,8.669 1.975,8.419 2.064 M5.031 2.562 C 4.698 2.644,4.056 3.061,3.626 3.477 C 2.718 4.355,2.203 5.490,2.042 6.968 C 2.015 7.218,2.000 9.009,2.000 11.983 C 2.000 17.067,1.998 17.016,2.244 17.851 C 2.521 18.786,2.978 19.541,3.719 20.281 C 4.430 20.993,5.068 21.394,5.966 21.694 C 6.868 21.996,6.528 21.980,12.000 21.980 C 17.472 21.980,17.132 21.996,18.034 21.694 C 18.932 21.394,19.570 20.993,20.281 20.281 C 21.140 19.423,21.611 18.563,21.893 17.340 C 21.975 16.988,21.977 16.875,21.991 12.220 C 22.006 7.159,22.000 6.954,21.815 6.126 C 21.466 4.561,20.596 3.380,19.287 2.698 C 19.040 2.568,18.957 2.545,18.747 2.546 C 18.380 2.546,18.074 2.721,17.890 3.033 L 17.780 3.220 17.758 8.100 C 17.737 12.596,17.730 13.004,17.664 13.280 C 17.358 14.567,16.491 15.322,15.322 15.319 C 14.600 15.318,14.127 15.145,12.980 14.462 C 12.345 14.084,12.106 13.961,12.002 13.961 C 11.897 13.960,11.671 14.076,11.042 14.449 C 9.807 15.185,9.343 15.346,8.566 15.311 C 8.235 15.295,8.079 15.268,7.865 15.185 C 7.089 14.887,6.566 14.230,6.332 13.260 C 6.271 13.008,6.262 12.491,6.242 8.100 L 6.220 3.220 6.110 3.033 C 5.893 2.664,5.433 2.463,5.031 2.562 " fill="#292D32" stroke="none" fill-rule="evenodd"></path></svg>