<svg width="24" height="24" viewBox="0 0 24 24" fill="none" xmlns="http://www.w3.org/2000/svg"><path d="M9.379 2.040 C 7.996 2.228,7.230 2.995,7.040 4.380 C 7.009 4.600,6.999 5.951,7.008 8.700 L 7.020 12.700 7.115 12.980 C 7.248 13.376,7.341 13.543,7.552 13.769 C 7.797 14.030,8.009 14.150,8.363 14.223 C 8.694 14.292,8.958 14.273,9.360 14.150 C 9.703 14.046,9.949 13.919,10.749 13.434 C 11.604 12.915,11.679 12.882,12.000 12.882 C 12.321 12.882,12.396 12.915,13.251 13.434 C 14.051 13.919,14.297 14.046,14.640 14.150 C 15.042 14.273,15.306 14.292,15.637 14.223 C 15.991 14.150,16.203 14.030,16.448 13.769 C 16.659 13.543,16.752 13.376,16.885 12.980 L 16.980 12.700 16.992 8.700 C 17.001 5.951,16.991 4.600,16.960 4.380 C 16.791 3.142,16.170 2.411,15.038 2.114 C 14.708 2.027,14.639 2.025,12.160 2.016 C 10.763 2.012,9.511 2.022,9.379 2.040 M4.051 6.142 C 3.680 6.327,3.103 7.029,2.771 7.700 C 2.375 8.499,2.133 9.545,2.040 10.860 C 1.988 11.598,1.989 15.261,2.042 16.000 C 2.285 19.412,3.606 21.155,6.400 21.753 C 7.445 21.977,7.524 21.980,12.000 21.980 C 16.476 21.980,16.555 21.977,17.600 21.753 C 20.394 21.155,21.715 19.411,21.958 16.000 C 22.011 15.261,22.012 11.598,21.960 10.860 C 21.867 9.545,21.625 8.499,21.229 7.700 C 20.897 7.029,20.320 6.327,19.949 6.142 C 19.568 5.952,19.102 6.024,18.808 6.318 C 18.523 6.603,18.543 6.376,18.516 9.700 C 18.494 12.523,18.488 12.721,18.411 13.061 C 18.246 13.796,17.963 14.348,17.508 14.827 C 16.887 15.481,16.086 15.795,15.162 15.750 C 14.364 15.710,13.793 15.501,12.689 14.846 L 11.998 14.436 11.358 14.821 C 10.244 15.491,9.670 15.704,8.859 15.747 C 7.914 15.798,7.122 15.490,6.492 14.827 C 6.037 14.348,5.754 13.796,5.589 13.061 C 5.512 12.721,5.506 12.523,5.484 9.700 L 5.460 6.700 5.367 6.551 C 5.075 6.081,4.520 5.909,4.051 6.142 " fill="#292D32" stroke="none" fill-rule="evenodd"></path></svg>