<svg width="24" height="24" viewBox="0 0 24 24" fill="none" xmlns="http://www.w3.org/2000/svg"><path d="M3.688 3.138 C 2.882 3.333,2.280 3.918,2.080 4.700 C 2.002 5.006,2.000 5.143,2.000 11.178 C 2.000 17.828,1.992 17.547,2.204 17.971 C 2.436 18.432,2.866 18.834,3.305 18.998 C 3.427 19.044,3.772 19.118,4.072 19.162 C 5.614 19.388,7.702 19.971,9.440 20.661 C 10.107 20.925,10.272 20.956,10.547 20.864 C 10.811 20.777,11.012 20.602,11.136 20.352 L 11.240 20.144 11.240 12.987 C 11.240 7.617,11.228 5.790,11.193 5.672 C 11.101 5.365,10.888 5.186,10.226 4.863 C 8.557 4.046,6.349 3.355,4.720 3.138 C 4.214 3.070,3.969 3.070,3.688 3.138 M19.520 3.106 C 18.333 3.285,17.269 3.537,16.200 3.891 C 15.256 4.204,14.560 4.488,13.781 4.879 C 13.045 5.248,12.892 5.378,12.801 5.718 C 12.773 5.822,12.762 8.182,12.770 13.046 L 12.780 20.220 12.891 20.409 C 13.083 20.736,13.536 20.963,13.872 20.900 C 13.944 20.887,14.295 20.761,14.652 20.622 C 16.438 19.922,18.331 19.396,19.920 19.158 C 20.239 19.110,20.588 19.036,20.696 18.994 C 21.148 18.816,21.523 18.478,21.759 18.036 C 22.011 17.564,21.999 17.900,21.999 11.180 C 21.999 4.394,22.013 4.765,21.732 4.230 C 21.320 3.444,20.394 2.974,19.520 3.106 M18.847 9.930 C 18.950 9.991,19.070 10.090,19.113 10.150 C 19.275 10.379,19.285 10.508,19.272 12.267 L 19.260 13.954 19.163 14.057 C 18.990 14.241,18.836 14.206,18.143 13.820 C 17.682 13.563,17.496 13.480,17.383 13.480 C 17.271 13.480,17.083 13.564,16.616 13.824 C 15.960 14.189,15.791 14.237,15.638 14.098 C 15.595 14.060,15.542 13.963,15.520 13.884 C 15.462 13.672,15.467 10.686,15.527 10.449 C 15.587 10.211,15.875 9.911,16.102 9.849 C 16.201 9.822,16.706 9.808,17.460 9.813 L 18.660 9.820 18.847 9.930 " fill="#292D32" stroke="none" fill-rule="evenodd"></path></svg>