<svg width="24" height="24" viewBox="0 0 24 24" fill="none" xmlns="http://www.w3.org/2000/svg"><path d="M7.290 2.044 C 5.784 2.152,4.821 2.540,4.292 3.252 C 3.961 3.699,3.763 4.231,3.613 5.083 C 3.555 5.415,3.545 6.000,3.532 10.010 L 3.517 14.559 3.771 14.367 C 4.262 13.995,4.790 13.748,5.432 13.590 C 5.779 13.504,5.795 13.504,12.803 13.482 L 19.826 13.460 20.022 13.339 C 20.143 13.264,20.264 13.143,20.339 13.022 L 20.460 12.826 20.472 9.483 C 20.485 6.003,20.469 5.502,20.318 4.752 C 20.154 3.942,19.913 3.438,19.480 3.001 C 18.919 2.434,18.050 2.143,16.620 2.041 C 15.955 1.993,7.954 1.996,7.290 2.044 M16.267 5.803 C 16.516 5.896,16.758 6.241,16.758 6.500 C 16.758 6.759,16.516 7.104,16.267 7.197 C 16.190 7.227,14.838 7.240,12.000 7.240 C 9.162 7.240,7.810 7.227,7.733 7.197 C 7.488 7.105,7.243 6.761,7.241 6.509 C 7.239 6.257,7.460 5.924,7.700 5.817 C 7.798 5.773,8.595 5.763,11.987 5.762 C 14.838 5.760,16.190 5.773,16.267 5.803 M13.300 9.316 C 13.494 9.405,13.616 9.532,13.698 9.729 C 13.849 10.090,13.672 10.516,13.302 10.685 C 13.150 10.754,12.975 10.758,10.509 10.759 C 8.223 10.760,7.858 10.752,7.729 10.698 C 7.101 10.436,7.084 9.600,7.700 9.316 C 7.850 9.246,8.018 9.242,10.500 9.242 C 12.982 9.242,13.150 9.246,13.300 9.316 M5.800 15.060 C 4.927 15.236,4.195 15.797,3.802 16.590 C 3.560 17.078,3.504 17.380,3.504 18.200 C 3.503 18.830,3.516 18.992,3.591 19.292 C 3.872 20.416,4.645 21.317,5.692 21.742 C 6.359 22.012,6.111 22.003,12.142 21.991 L 17.580 21.980 17.895 21.888 C 19.170 21.517,20.085 20.572,20.410 19.292 C 20.494 18.958,20.499 18.861,20.499 17.380 C 20.500 16.160,20.488 15.786,20.445 15.665 C 20.375 15.467,20.152 15.219,19.943 15.107 L 19.780 15.020 12.920 15.014 C 7.385 15.008,6.010 15.017,5.800 15.060 " fill="#292D32" stroke="none" fill-rule="evenodd"></path></svg>