<svg width="24" height="24" viewBox="0 0 24 24" fill="none" xmlns="http://www.w3.org/2000/svg"><path d="M11.800 1.275 C 11.745 1.293,11.155 1.582,10.489 1.916 C 9.393 2.466,9.269 2.538,9.173 2.684 C 9.027 2.904,9.002 3.209,9.112 3.423 C 9.264 3.719,9.462 3.840,9.797 3.840 C 9.962 3.840,10.129 3.770,10.995 3.341 L 12.001 2.842 13.011 3.345 C 14.019 3.847,14.020 3.848,14.265 3.832 C 14.562 3.814,14.769 3.677,14.883 3.425 C 15.023 3.117,14.942 2.766,14.679 2.545 C 14.605 2.483,14.026 2.173,13.391 1.856 C 12.230 1.275,12.028 1.201,11.800 1.275 M3.931 5.195 C 3.275 5.522,2.681 5.838,2.612 5.896 C 2.363 6.106,2.355 6.169,2.368 7.900 L 2.380 9.460 2.478 9.605 C 2.745 9.999,3.246 10.072,3.606 9.768 C 3.821 9.588,3.840 9.490,3.840 8.541 C 3.840 7.987,3.854 7.680,3.880 7.680 C 3.903 7.680,4.191 7.815,4.520 7.980 C 5.178 8.310,5.379 8.350,5.669 8.213 C 5.985 8.063,6.150 7.636,6.022 7.300 C 5.932 7.063,5.752 6.916,5.256 6.669 C 5.027 6.555,4.840 6.452,4.840 6.440 C 4.840 6.428,5.029 6.324,5.259 6.210 C 5.490 6.095,5.748 5.938,5.834 5.861 C 6.329 5.413,6.001 4.600,5.324 4.600 C 5.147 4.600,4.989 4.668,3.931 5.195 M18.293 4.701 C 17.872 4.953,17.803 5.534,18.155 5.850 C 18.235 5.922,18.503 6.078,18.750 6.197 C 18.997 6.317,19.200 6.425,19.200 6.438 C 19.200 6.452,18.982 6.570,18.716 6.701 C 18.429 6.843,18.186 6.991,18.120 7.067 C 17.829 7.397,17.876 7.880,18.225 8.146 C 18.338 8.233,18.424 8.260,18.617 8.273 C 18.858 8.288,18.880 8.280,19.472 7.984 C 19.806 7.817,20.097 7.680,20.120 7.680 C 20.146 7.680,20.160 7.987,20.160 8.542 C 20.160 9.320,20.168 9.418,20.239 9.558 C 20.381 9.837,20.665 9.986,20.985 9.950 C 21.226 9.922,21.422 9.779,21.541 9.542 L 21.640 9.344 21.640 7.831 C 21.640 6.206,21.634 6.148,21.428 5.926 C 21.380 5.874,20.785 5.554,20.108 5.215 C 18.991 4.658,18.856 4.600,18.668 4.600 C 18.518 4.601,18.414 4.629,18.293 4.701 M9.455 9.117 C 8.964 9.340,8.894 10.045,9.330 10.374 C 9.401 10.428,9.859 10.671,10.347 10.915 L 11.235 11.358 11.247 12.609 C 11.260 13.830,11.262 13.864,11.352 14.021 C 11.500 14.278,11.684 14.380,12.000 14.380 C 12.316 14.380,12.500 14.278,12.648 14.021 C 12.738 13.864,12.740 13.830,12.753 12.609 L 12.765 11.358 13.680 10.900 C 14.183 10.648,14.658 10.387,14.735 10.319 C 15.110 9.990,15.005 9.326,14.545 9.117 C 14.225 8.971,14.150 8.993,13.030 9.547 L 12.000 10.057 10.970 9.547 C 9.850 8.993,9.775 8.971,9.455 9.117 M2.820 14.101 C 2.637 14.199,2.517 14.324,2.436 14.500 C 2.368 14.646,2.362 14.786,2.361 16.140 C 2.361 17.038,2.377 17.679,2.402 17.769 C 2.483 18.062,2.588 18.134,3.876 18.777 C 4.549 19.113,5.150 19.400,5.211 19.415 C 5.273 19.430,5.399 19.422,5.491 19.397 C 6.145 19.224,6.288 18.424,5.731 18.053 C 5.626 17.983,5.167 17.741,4.712 17.514 L 3.884 17.103 3.872 15.841 C 3.859 14.426,3.861 14.439,3.549 14.187 C 3.363 14.036,3.016 13.995,2.820 14.101 M20.659 14.080 C 20.506 14.128,20.285 14.341,20.214 14.509 C 20.173 14.607,20.160 14.924,20.160 15.869 L 20.160 17.101 19.196 17.581 C 18.187 18.083,18.053 18.178,17.960 18.461 C 17.856 18.775,18.024 19.169,18.327 19.324 C 18.650 19.488,18.787 19.447,20.170 18.765 C 21.307 18.204,21.408 18.146,21.510 17.992 L 21.620 17.826 21.620 16.180 L 21.620 14.534 21.524 14.393 C 21.471 14.316,21.370 14.213,21.299 14.165 C 21.154 14.066,20.841 14.024,20.659 14.080 M11.700 18.541 C 11.538 18.628,11.406 18.755,11.326 18.900 C 11.272 18.999,11.258 19.175,11.247 19.890 C 11.239 20.369,11.226 20.760,11.216 20.760 C 11.207 20.760,10.925 20.623,10.590 20.455 C 10.062 20.190,9.953 20.150,9.775 20.152 C 9.168 20.157,8.836 20.807,9.177 21.322 C 9.270 21.463,9.407 21.542,10.531 22.104 C 11.681 22.679,11.800 22.729,11.998 22.729 C 12.196 22.729,12.315 22.678,13.468 22.104 C 14.685 21.497,14.726 21.473,14.841 21.291 C 15.162 20.786,14.823 20.157,14.225 20.152 C 14.047 20.150,13.938 20.190,13.410 20.455 C 13.075 20.623,12.793 20.760,12.784 20.760 C 12.774 20.760,12.761 20.369,12.753 19.890 C 12.738 18.915,12.726 18.867,12.429 18.627 C 12.243 18.476,11.896 18.435,11.700 18.541 " fill="#292D32" stroke="none" fill-rule="evenodd"></path></svg>