<svg width="24" height="24" viewBox="0 0 24 24" fill="none" xmlns="http://www.w3.org/2000/svg"><path d="M10.491 2.102 C 10.224 2.174,10.358 2.104,7.085 3.864 C 4.537 5.234,4.282 5.380,4.091 5.582 C 3.604 6.094,3.615 6.905,4.115 7.390 C 4.230 7.502,5.120 8.001,7.168 9.103 C 8.758 9.958,10.168 10.702,10.300 10.758 C 10.508 10.845,10.600 10.858,11.000 10.859 C 11.405 10.860,11.489 10.848,11.702 10.758 C 11.836 10.701,13.245 9.957,14.833 9.102 C 17.001 7.937,17.763 7.508,17.887 7.385 C 18.387 6.888,18.396 6.095,17.909 5.582 C 17.717 5.379,17.457 5.231,14.720 3.762 C 12.705 2.681,11.663 2.143,11.502 2.101 C 11.209 2.026,10.771 2.026,10.491 2.102 M2.853 9.032 C 2.541 9.143,2.306 9.357,2.152 9.670 L 2.020 9.938 2.009 12.619 C 2.002 14.159,2.013 15.402,2.035 15.540 C 2.120 16.081,2.411 16.598,2.823 16.935 C 3.002 17.082,3.746 17.471,5.880 18.534 L 8.700 19.938 9.080 19.939 C 9.415 19.940,9.484 19.927,9.663 19.833 C 9.904 19.705,10.137 19.459,10.255 19.205 C 10.339 19.021,10.340 18.997,10.340 16.160 L 10.340 13.300 10.248 13.032 C 10.130 12.693,9.896 12.329,9.628 12.072 C 9.445 11.896,9.071 11.697,6.538 10.430 L 3.656 8.989 3.358 8.973 C 3.138 8.962,3.006 8.977,2.853 9.032 M18.340 9.016 C 18.252 9.044,16.920 9.698,15.380 10.470 C 12.928 11.697,12.554 11.897,12.372 12.072 C 12.104 12.329,11.863 12.704,11.750 13.037 C 11.662 13.297,11.661 13.329,11.649 16.038 C 11.641 17.886,11.651 18.841,11.680 18.977 C 11.765 19.375,12.082 19.732,12.486 19.886 L 12.690 19.964 12.665 19.872 C 12.501 19.279,12.461 18.185,12.579 17.505 C 12.716 16.716,13.075 15.801,13.492 15.180 C 14.693 13.390,16.814 12.353,18.931 12.521 C 19.200 12.542,19.528 12.586,19.660 12.618 C 19.792 12.651,19.923 12.678,19.952 12.679 C 19.994 12.680,20.002 12.413,19.992 11.309 L 19.980 9.938 19.847 9.667 C 19.569 9.105,18.930 8.828,18.340 9.016 M17.816 14.058 C 16.891 14.202,16.057 14.623,15.370 15.292 C 14.299 16.336,13.842 17.781,14.101 19.302 C 14.258 20.224,14.614 20.922,15.279 21.614 C 16.624 23.014,18.675 23.381,20.437 22.537 C 20.962 22.286,21.288 22.059,21.656 21.688 C 22.472 20.864,22.866 19.969,22.982 18.679 C 23.034 18.092,22.869 17.237,22.583 16.618 C 22.301 16.008,21.778 15.354,21.240 14.940 C 20.278 14.199,19.010 13.873,17.816 14.058 M17.652 16.626 C 17.722 16.662,17.947 16.854,18.150 17.053 L 18.520 17.415 18.910 17.032 C 19.217 16.730,19.337 16.638,19.475 16.601 C 19.917 16.482,20.354 16.768,20.422 17.220 C 20.466 17.511,20.387 17.661,19.967 18.090 L 19.585 18.480 19.947 18.850 C 20.371 19.284,20.440 19.401,20.440 19.690 C 20.440 19.979,20.294 20.206,20.022 20.341 C 19.640 20.532,19.443 20.459,18.911 19.931 L 18.523 19.544 18.087 19.969 C 17.616 20.429,17.534 20.470,17.175 20.429 C 16.834 20.391,16.560 20.069,16.560 19.709 C 16.560 19.437,16.636 19.313,17.072 18.871 L 17.457 18.482 17.053 18.071 C 16.576 17.586,16.510 17.443,16.602 17.109 C 16.653 16.926,16.855 16.687,17.019 16.616 C 17.187 16.543,17.499 16.547,17.652 16.626 " fill="#292D32" stroke="none" fill-rule="evenodd"></path></svg>