<svg width="24" height="24" viewBox="0 0 24 24" fill="none" xmlns="http://www.w3.org/2000/svg"><path d="M10.491 2.102 C 10.224 2.174,10.358 2.104,7.085 3.864 C 4.537 5.234,4.282 5.380,4.091 5.582 C 3.604 6.094,3.615 6.905,4.115 7.390 C 4.230 7.502,5.120 8.001,7.168 9.103 C 8.758 9.958,10.168 10.702,10.300 10.758 C 10.508 10.845,10.600 10.858,11.000 10.859 C 11.405 10.860,11.489 10.848,11.702 10.758 C 11.836 10.701,13.245 9.957,14.833 9.102 C 17.001 7.937,17.763 7.508,17.887 7.385 C 18.387 6.888,18.396 6.095,17.909 5.582 C 17.717 5.379,17.457 5.231,14.720 3.762 C 12.705 2.681,11.663 2.143,11.502 2.101 C 11.209 2.026,10.771 2.026,10.491 2.102 M2.853 9.032 C 2.541 9.143,2.306 9.357,2.152 9.670 L 2.020 9.938 2.009 12.619 C 2.002 14.159,2.013 15.402,2.035 15.540 C 2.120 16.081,2.411 16.598,2.823 16.935 C 3.002 17.082,3.746 17.471,5.880 18.534 L 8.700 19.938 9.080 19.939 C 9.415 19.940,9.484 19.927,9.663 19.833 C 9.904 19.705,10.137 19.459,10.255 19.205 C 10.339 19.021,10.340 18.997,10.340 16.160 L 10.340 13.300 10.248 13.032 C 10.130 12.693,9.896 12.329,9.628 12.072 C 9.445 11.896,9.071 11.697,6.538 10.430 L 3.656 8.989 3.358 8.973 C 3.138 8.962,3.006 8.977,2.853 9.032 M18.340 9.016 C 18.252 9.044,16.920 9.698,15.380 10.470 C 12.928 11.697,12.554 11.897,12.372 12.072 C 12.104 12.329,11.863 12.704,11.750 13.037 C 11.662 13.297,11.661 13.329,11.649 16.038 C 11.641 17.886,11.651 18.841,11.680 18.977 C 11.765 19.375,12.082 19.732,12.486 19.886 L 12.690 19.964 12.665 19.872 C 12.501 19.279,12.461 18.185,12.579 17.505 C 12.716 16.716,13.075 15.801,13.492 15.180 C 14.693 13.390,16.814 12.353,18.931 12.521 C 19.200 12.542,19.528 12.586,19.660 12.618 C 19.792 12.651,19.923 12.678,19.952 12.679 C 19.994 12.680,20.002 12.413,19.992 11.309 L 19.980 9.938 19.847 9.667 C 19.569 9.105,18.930 8.828,18.340 9.016 M17.720 14.162 C 16.801 14.275,15.984 14.668,15.297 15.328 C 13.596 16.961,13.578 19.673,15.257 21.341 C 16.553 22.628,18.535 22.925,20.158 22.075 L 20.536 21.877 20.998 22.337 C 21.469 22.805,21.700 22.958,21.940 22.959 C 22.265 22.961,22.573 22.769,22.725 22.470 C 22.822 22.280,22.832 21.953,22.746 21.748 C 22.713 21.670,22.478 21.391,22.224 21.129 L 21.761 20.653 21.974 20.233 C 22.822 18.564,22.474 16.587,21.105 15.294 C 20.342 14.574,19.463 14.200,18.400 14.145 C 18.191 14.134,17.885 14.142,17.720 14.162 " fill="#292D32" stroke="none" fill-rule="evenodd"></path></svg>