<svg width="24" height="24" viewBox="0 0 24 24" fill="none" xmlns="http://www.w3.org/2000/svg"><path d="M11.540 2.057 C 11.408 2.087,11.247 2.133,11.181 2.159 C 11.075 2.200,9.202 3.197,7.480 4.130 C 7.117 4.327,6.303 4.768,5.670 5.110 C 5.038 5.452,4.449 5.793,4.362 5.868 C 4.174 6.028,3.976 6.410,3.919 6.722 C 3.828 7.222,4.078 7.830,4.491 8.114 C 4.776 8.309,11.003 11.650,11.280 11.757 C 11.503 11.842,11.605 11.856,12.000 11.855 C 12.593 11.854,12.648 11.834,14.010 11.097 C 14.603 10.776,15.703 10.184,16.454 9.782 C 19.618 8.088,19.623 8.085,19.816 7.806 C 20.287 7.127,20.130 6.191,19.470 5.749 C 19.078 5.486,12.901 2.186,12.660 2.111 C 12.340 2.010,11.843 1.986,11.540 2.057 M3.011 9.778 C 2.603 9.906,2.272 10.198,2.085 10.595 L 1.980 10.820 1.968 13.793 C 1.955 17.190,1.957 17.217,2.244 17.800 C 2.373 18.059,2.485 18.212,2.716 18.445 L 3.020 18.750 6.251 20.365 L 9.481 21.980 9.832 21.980 C 10.146 21.980,10.209 21.967,10.446 21.850 C 10.759 21.696,11.005 21.445,11.154 21.127 L 11.260 20.900 11.271 17.900 C 11.279 15.964,11.268 14.805,11.241 14.631 C 11.183 14.257,11.066 13.966,10.833 13.617 C 10.479 13.087,10.445 13.067,7.114 11.399 C 5.450 10.566,3.979 9.847,3.846 9.802 C 3.571 9.709,3.260 9.700,3.011 9.778 M20.160 9.793 C 19.787 9.919,13.961 12.856,13.692 13.054 C 13.390 13.277,13.152 13.570,12.976 13.936 C 12.713 14.481,12.716 14.444,12.729 17.860 L 12.740 20.940 12.850 21.165 C 12.987 21.443,13.289 21.732,13.591 21.872 C 13.783 21.961,13.876 21.978,14.169 21.979 L 14.517 21.980 17.625 20.427 C 19.335 19.573,20.836 18.804,20.962 18.719 C 21.287 18.498,21.581 18.151,21.759 17.780 C 22.029 17.216,22.020 17.343,22.020 13.940 L 22.020 10.860 21.928 10.632 C 21.650 9.945,20.846 9.563,20.160 9.793 " fill="#292D32" stroke="none" fill-rule="evenodd"></path></svg>