<svg width="24" height="24" viewBox="0 0 24 24" fill="none" xmlns="http://www.w3.org/2000/svg"><path d="M11.540 2.028 C 11.203 2.059,10.698 2.169,10.405 2.276 C 10.118 2.381,4.671 5.365,4.202 5.675 C 3.858 5.902,3.425 6.352,3.342 6.569 C 3.205 6.928,3.302 7.369,3.579 7.646 C 3.713 7.779,11.441 12.283,11.679 12.366 C 11.747 12.389,11.925 12.402,12.074 12.394 L 12.345 12.378 16.282 10.099 C 18.447 8.846,20.290 7.757,20.376 7.680 C 20.709 7.382,20.812 6.898,20.626 6.500 C 20.509 6.250,20.081 5.840,19.677 5.591 C 19.241 5.323,14.102 2.485,13.816 2.356 C 13.227 2.088,12.319 1.957,11.540 2.028 M3.047 8.964 C 2.734 9.024,2.466 9.244,2.323 9.560 C 2.244 9.736,2.242 9.809,2.241 12.594 C 2.240 15.319,2.244 15.466,2.322 15.854 C 2.549 16.972,3.302 18.184,4.140 18.780 C 4.480 19.021,7.468 20.623,9.306 21.549 C 10.118 21.958,10.163 21.975,10.408 21.975 C 10.717 21.975,10.976 21.863,11.163 21.650 C 11.437 21.339,11.420 21.606,11.420 17.560 C 11.420 13.914,11.420 13.899,11.335 13.716 C 11.288 13.615,11.188 13.471,11.111 13.396 C 10.952 13.241,3.678 9.017,3.510 8.983 C 3.275 8.934,3.214 8.932,3.047 8.964 M20.565 8.965 C 20.348 9.005,13.099 13.190,12.889 13.396 C 12.812 13.471,12.712 13.615,12.665 13.716 C 12.580 13.899,12.580 13.914,12.580 17.560 C 12.580 21.606,12.563 21.339,12.837 21.650 C 13.024 21.863,13.283 21.975,13.592 21.975 C 13.837 21.975,13.882 21.958,14.694 21.549 C 16.532 20.623,19.520 19.021,19.860 18.780 C 20.625 18.236,21.310 17.200,21.632 16.100 L 21.737 15.740 21.750 12.760 C 21.765 9.416,21.779 9.589,21.471 9.254 C 21.245 9.009,20.906 8.901,20.565 8.965 " fill="#292D32" stroke="none" fill-rule="evenodd"></path></svg>