<svg width="24" height="24" viewBox="0 0 24 24" fill="none" xmlns="http://www.w3.org/2000/svg"><path d="M10.740 1.784 C 9.361 1.884,8.446 2.281,7.983 2.978 C 7.665 3.458,7.524 4.023,7.491 4.950 L 7.468 5.600 6.973 5.600 C 4.926 5.600,3.397 6.216,2.643 7.343 C 2.088 8.173,1.917 9.147,2.057 10.680 C 2.149 11.681,2.156 11.697,2.612 11.991 C 4.387 13.134,6.367 13.943,8.405 14.359 C 8.743 14.428,9.060 14.492,9.110 14.503 C 9.177 14.517,9.200 14.550,9.200 14.632 C 9.200 14.958,9.422 15.511,9.667 15.798 C 10.119 16.326,11.073 16.612,12.160 16.545 C 13.569 16.459,14.298 15.925,14.514 14.822 L 14.580 14.487 14.940 14.422 C 16.303 14.176,17.933 13.637,19.227 13.004 C 20.543 12.360,21.880 11.493,21.880 11.282 C 21.880 11.265,21.909 10.991,21.944 10.675 C 22.019 10.003,22.002 9.095,21.906 8.656 C 21.751 7.949,21.479 7.410,21.044 6.949 C 20.430 6.299,19.614 5.908,18.432 5.698 C 18.250 5.666,17.745 5.618,17.310 5.592 L 16.520 5.545 16.520 5.121 C 16.520 3.394,15.973 2.470,14.699 2.044 C 14.065 1.832,13.719 1.795,12.260 1.781 C 11.534 1.775,10.850 1.776,10.740 1.784 M13.580 3.240 C 14.156 3.304,14.462 3.418,14.707 3.662 C 14.992 3.947,15.043 4.127,15.069 4.950 L 15.090 5.600 12.000 5.600 L 8.909 5.600 8.931 4.950 C 8.959 4.122,9.009 3.945,9.298 3.657 C 9.471 3.484,9.559 3.431,9.785 3.362 C 9.936 3.317,10.195 3.264,10.360 3.245 C 10.785 3.196,13.149 3.193,13.580 3.240 M13.072 13.610 C 13.061 14.541,13.054 14.631,12.978 14.760 C 12.842 14.995,12.635 15.042,11.800 15.030 C 11.032 15.019,10.926 14.991,10.744 14.747 C 10.665 14.641,10.659 14.578,10.648 13.617 L 10.635 12.600 11.860 12.600 L 13.085 12.600 13.072 13.610 M20.960 13.707 C 20.927 13.720,20.549 13.892,20.120 14.089 C 18.589 14.792,17.365 15.287,16.431 15.580 C 16.173 15.661,15.918 15.761,15.865 15.803 C 15.811 15.846,15.695 16.011,15.607 16.170 C 15.077 17.129,14.168 17.724,12.900 17.942 C 12.371 18.032,11.364 18.033,10.820 17.943 C 10.311 17.859,9.735 17.662,9.335 17.437 C 8.892 17.186,8.400 16.687,8.143 16.226 C 8.035 16.032,7.909 15.849,7.863 15.819 C 7.817 15.789,7.465 15.662,7.080 15.537 C 6.296 15.283,5.011 14.777,3.840 14.263 C 3.380 14.061,3.006 13.920,2.928 13.920 C 2.628 13.920,2.440 14.119,2.440 14.438 C 2.440 14.940,2.806 18.598,2.897 19.000 C 3.137 20.066,3.623 20.837,4.366 21.329 C 5.134 21.836,6.088 22.107,7.429 22.199 C 8.204 22.251,15.796 22.251,16.571 22.199 C 19.297 22.013,20.688 21.014,21.119 18.930 C 21.164 18.714,21.290 17.562,21.402 16.347 C 21.622 13.952,21.622 13.958,21.398 13.798 C 21.275 13.711,21.061 13.666,20.960 13.707 " fill="#292D32" stroke="none" fill-rule="evenodd"></path></svg>