<svg width="24" height="24" viewBox="0 0 24 24" fill="none" xmlns="http://www.w3.org/2000/svg"><path d="M10.740 1.784 C 9.047 1.907,8.081 2.458,7.717 3.506 C 7.573 3.922,7.515 4.287,7.491 4.923 L 7.469 5.546 6.684 5.592 C 5.806 5.643,5.184 5.742,4.649 5.917 C 3.141 6.410,2.289 7.397,2.058 8.920 C 1.984 9.406,1.985 9.884,2.060 10.715 C 2.141 11.598,2.144 11.615,2.279 11.747 C 2.574 12.035,4.230 12.936,5.264 13.372 C 5.722 13.564,6.841 13.955,7.126 14.022 C 7.225 14.045,7.233 14.064,7.259 14.353 C 7.366 15.553,7.866 16.597,8.730 17.426 C 9.390 18.059,10.137 18.452,11.086 18.666 C 11.490 18.756,12.510 18.756,12.914 18.666 C 13.559 18.521,14.172 18.262,14.685 17.919 C 15.067 17.664,15.781 16.918,16.031 16.513 C 16.422 15.880,16.650 15.192,16.734 14.392 L 16.780 13.956 17.340 13.765 C 18.339 13.424,19.331 12.972,20.320 12.408 C 20.846 12.108,21.667 11.567,21.768 11.455 C 21.983 11.213,22.071 9.420,21.905 8.656 C 21.752 7.951,21.479 7.410,21.044 6.949 C 20.236 6.092,19.153 5.698,17.310 5.591 L 16.520 5.545 16.520 5.122 C 16.520 3.394,15.973 2.470,14.699 2.044 C 14.065 1.832,13.719 1.795,12.260 1.781 C 11.534 1.775,10.850 1.776,10.740 1.784 M13.680 3.241 C 14.348 3.328,14.704 3.517,14.889 3.884 C 15.026 4.155,15.079 4.491,15.080 5.090 L 15.080 5.560 11.994 5.560 L 8.909 5.560 8.931 4.930 C 8.945 4.534,8.976 4.225,9.015 4.099 C 9.170 3.599,9.559 3.338,10.288 3.243 C 10.648 3.196,13.322 3.195,13.680 3.241 M12.994 10.916 C 13.527 11.095,13.882 11.315,14.284 11.716 C 14.683 12.116,14.903 12.468,15.087 13.006 C 15.208 13.358,15.216 13.414,15.218 13.960 C 15.220 14.448,15.206 14.590,15.130 14.852 C 14.808 15.961,14.003 16.775,12.880 17.126 C 12.623 17.206,12.497 17.220,12.000 17.220 C 11.503 17.220,11.377 17.206,11.120 17.126 C 9.996 16.775,9.187 15.956,8.872 14.852 C 8.754 14.440,8.744 13.596,8.851 13.200 C 9.089 12.325,9.710 11.538,10.469 11.149 C 11.101 10.826,11.402 10.758,12.120 10.777 C 12.553 10.788,12.670 10.807,12.994 10.916 M13.409 12.600 C 13.209 12.646,13.042 12.778,12.222 13.534 L 11.464 14.233 11.162 13.951 C 10.830 13.640,10.683 13.560,10.444 13.560 C 10.156 13.560,9.909 13.714,9.771 13.979 C 9.691 14.133,9.691 14.469,9.772 14.621 C 9.846 14.761,10.978 15.890,11.114 15.959 C 11.265 16.036,11.603 16.021,11.781 15.929 C 11.979 15.827,14.165 13.809,14.228 13.669 C 14.362 13.375,14.320 13.054,14.116 12.822 C 13.956 12.639,13.653 12.544,13.409 12.600 M20.420 14.060 C 20.024 14.268,19.430 14.551,19.101 14.689 C 18.279 15.034,18.199 15.113,17.970 15.822 C 17.622 16.896,17.176 17.631,16.403 18.402 C 15.819 18.984,15.375 19.301,14.670 19.640 C 13.718 20.098,12.899 20.264,11.780 20.228 C 10.756 20.194,10.149 20.041,9.220 19.581 C 7.739 18.847,6.584 17.518,6.058 15.940 C 5.834 15.269,5.744 15.181,4.970 14.877 C 4.669 14.760,4.064 14.486,3.625 14.268 C 2.946 13.933,2.806 13.877,2.694 13.898 C 2.517 13.932,2.440 14.054,2.440 14.299 C 2.441 14.706,2.803 18.341,2.881 18.726 C 3.169 20.140,3.940 21.058,5.254 21.552 C 5.683 21.713,6.296 21.857,6.857 21.928 C 7.166 21.968,8.377 21.980,12.040 21.980 C 17.280 21.980,17.200 21.983,18.151 21.736 C 19.667 21.342,20.607 20.493,20.997 19.166 C 21.143 18.670,21.202 18.224,21.382 16.260 C 21.610 13.780,21.604 13.946,21.480 13.822 C 21.288 13.630,21.206 13.648,20.420 14.060 " fill="#292D32" stroke="none" fill-rule="evenodd"></path></svg>