<svg width="24" height="24" viewBox="0 0 24 24" fill="none" xmlns="http://www.w3.org/2000/svg"><path d="M10.547 1.804 C 8.998 1.931,8.072 2.497,7.716 3.533 C 7.570 3.960,7.524 4.254,7.493 4.965 L 7.468 5.549 6.904 5.577 C 4.964 5.670,3.789 6.070,2.998 6.905 C 2.417 7.519,2.131 8.203,2.032 9.213 C 1.993 9.611,1.997 9.826,2.058 10.573 C 2.098 11.061,2.153 11.516,2.181 11.585 C 2.244 11.741,2.384 11.847,3.049 12.248 C 4.130 12.899,5.483 13.508,6.680 13.883 C 6.977 13.976,7.227 14.058,7.235 14.065 C 7.244 14.072,7.266 14.247,7.285 14.453 C 7.438 16.118,8.470 17.571,10.021 18.305 C 11.263 18.894,12.808 18.878,14.062 18.263 C 15.581 17.519,16.546 16.125,16.722 14.420 C 16.747 14.178,16.779 13.969,16.794 13.955 C 16.808 13.941,17.000 13.871,17.220 13.800 C 17.787 13.615,18.538 13.313,19.120 13.035 C 20.198 12.521,21.670 11.613,21.806 11.378 C 21.883 11.245,22.000 10.244,22.000 9.730 C 21.998 8.045,21.326 6.844,20.020 6.190 C 19.290 5.825,18.408 5.640,17.096 5.577 L 16.532 5.549 16.508 4.944 C 16.472 4.017,16.325 3.439,16.005 2.968 C 15.536 2.277,14.710 1.909,13.384 1.802 C 12.797 1.754,11.134 1.755,10.547 1.804 M14.085 3.306 C 14.439 3.413,14.701 3.572,14.819 3.752 C 15.012 4.044,15.050 4.221,15.070 4.910 L 15.089 5.560 12.005 5.560 L 8.920 5.560 8.921 5.050 C 8.922 3.960,9.150 3.534,9.839 3.333 C 10.235 3.217,10.443 3.207,12.140 3.216 C 13.692 3.225,13.840 3.232,14.085 3.306 M12.745 10.838 C 13.340 10.981,13.796 11.234,14.254 11.676 C 14.905 12.305,15.240 13.088,15.239 13.980 C 15.238 14.912,14.895 15.714,14.225 16.350 C 13.866 16.691,13.491 16.916,12.994 17.089 C 12.635 17.213,12.596 17.218,12.000 17.218 C 11.404 17.218,11.365 17.213,11.006 17.089 C 10.518 16.919,10.140 16.695,9.797 16.371 C 9.343 15.944,9.074 15.512,8.880 14.900 C 8.754 14.501,8.725 13.763,8.819 13.335 C 9.089 12.109,10.030 11.137,11.237 10.840 C 11.657 10.737,12.318 10.736,12.745 10.838 M12.300 12.138 C 12.278 12.146,12.212 12.164,12.153 12.176 C 11.998 12.211,11.800 12.392,11.715 12.578 C 11.654 12.712,11.642 12.845,11.641 13.347 L 11.640 13.955 11.190 14.223 C 10.488 14.642,10.373 14.789,10.408 15.222 C 10.447 15.690,10.915 15.989,11.364 15.833 C 11.591 15.753,12.867 14.967,12.974 14.840 C 13.130 14.654,13.169 14.365,13.154 13.486 C 13.140 12.719,13.137 12.696,13.034 12.520 C 12.972 12.415,12.863 12.303,12.774 12.253 C 12.623 12.168,12.379 12.109,12.300 12.138 M20.420 14.060 C 20.024 14.268,19.430 14.551,19.101 14.689 C 18.279 15.034,18.199 15.113,17.970 15.822 C 17.622 16.896,17.176 17.631,16.403 18.402 C 15.819 18.984,15.375 19.301,14.670 19.640 C 13.718 20.098,12.899 20.264,11.780 20.228 C 10.756 20.194,10.149 20.041,9.220 19.581 C 7.739 18.847,6.584 17.518,6.058 15.940 C 5.834 15.269,5.744 15.181,4.970 14.877 C 4.669 14.760,4.064 14.486,3.625 14.268 C 2.946 13.933,2.806 13.877,2.694 13.898 C 2.517 13.932,2.440 14.054,2.440 14.299 C 2.441 14.706,2.803 18.341,2.881 18.726 C 3.169 20.140,3.940 21.058,5.254 21.552 C 5.683 21.713,6.296 21.857,6.857 21.928 C 7.166 21.968,8.377 21.980,12.040 21.980 C 17.280 21.980,17.200 21.983,18.151 21.736 C 19.667 21.342,20.607 20.493,20.997 19.166 C 21.143 18.670,21.202 18.224,21.382 16.260 C 21.610 13.780,21.604 13.946,21.480 13.822 C 21.288 13.630,21.206 13.648,20.420 14.060 " fill="#292D32" stroke="none" fill-rule="evenodd"></path></svg>