<svg width="24" height="24" viewBox="0 0 24 24" fill="none" xmlns="http://www.w3.org/2000/svg"><path d="M5.198 1.833 C 4.840 1.952,4.577 2.116,4.325 2.378 C 3.802 2.923,3.614 3.681,3.831 4.380 C 3.934 4.713,5.241 6.902,5.461 7.110 C 5.573 7.215,5.632 7.240,5.772 7.240 C 5.927 7.240,6.091 7.151,7.323 6.403 C 8.288 5.817,8.727 5.528,8.790 5.437 C 8.973 5.174,8.950 5.114,8.163 3.809 C 7.755 3.133,7.368 2.539,7.266 2.432 C 7.044 2.201,6.722 1.984,6.436 1.873 C 6.127 1.753,5.501 1.733,5.198 1.833 M9.796 5.733 C 9.531 5.832,6.009 7.999,5.887 8.138 C 5.704 8.347,5.625 8.597,5.651 8.887 C 5.673 9.121,5.713 9.198,6.543 10.576 C 7.021 11.370,7.417 12.029,7.422 12.040 C 7.428 12.051,7.344 12.177,7.236 12.320 C 6.633 13.118,6.332 14.171,6.434 15.132 C 6.512 15.871,6.597 16.084,7.809 18.560 C 8.428 19.825,8.995 20.956,9.069 21.074 C 9.643 21.984,10.728 22.426,11.755 22.166 C 12.133 22.070,12.413 21.931,12.433 21.829 C 12.440 21.791,12.076 21.146,11.623 20.396 C 11.171 19.646,10.782 18.961,10.758 18.874 C 10.672 18.553,10.897 18.121,11.213 18.002 C 11.489 17.898,11.868 17.989,12.066 18.206 C 12.113 18.258,12.515 18.898,12.959 19.630 C 13.694 20.841,13.776 20.960,13.873 20.960 C 14.031 20.960,14.997 20.368,15.025 20.253 C 15.043 20.185,14.848 19.835,14.204 18.774 C 13.384 17.424,13.360 17.379,13.360 17.171 C 13.360 16.910,13.428 16.739,13.597 16.574 C 13.776 16.400,14.035 16.332,14.275 16.396 C 14.376 16.423,14.513 16.487,14.579 16.539 C 14.651 16.594,15.029 17.175,15.510 17.969 C 15.956 18.704,16.342 19.326,16.368 19.352 C 16.455 19.439,16.555 19.403,17.030 19.113 C 17.581 18.778,17.640 18.731,17.640 18.637 C 17.640 18.598,17.296 18.002,16.876 17.313 C 15.906 15.723,15.948 15.806,15.968 15.495 C 15.981 15.288,16.005 15.216,16.105 15.091 C 16.171 15.008,16.287 14.909,16.363 14.870 C 16.638 14.730,17.051 14.810,17.265 15.046 C 17.312 15.098,17.698 15.707,18.122 16.400 C 18.546 17.093,18.920 17.691,18.953 17.730 C 19.069 17.867,19.189 17.816,19.516 17.489 C 20.012 16.993,20.240 16.442,20.240 15.740 C 20.240 15.308,20.168 14.999,19.979 14.620 C 19.834 14.327,17.052 10.535,16.651 10.084 C 15.839 9.168,14.441 8.643,13.239 8.802 C 12.565 8.891,12.735 9.041,11.842 7.572 C 10.889 6.005,10.854 5.955,10.622 5.819 C 10.399 5.689,10.019 5.649,9.796 5.733 " fill="#292D32" stroke="none" fill-rule="evenodd"></path></svg>