<svg width="24" height="24" viewBox="0 0 24 24" fill="none" xmlns="http://www.w3.org/2000/svg"><path d="M6.694 2.042 C 6.048 2.126,5.377 2.394,4.949 2.737 C 4.518 3.083,4.172 3.655,4.002 4.301 C 3.843 4.907,3.824 5.842,3.957 6.500 C 4.188 7.635,4.898 8.446,5.960 8.785 C 6.519 8.964,6.600 8.969,9.760 8.988 C 13.658 9.012,13.961 8.987,14.799 8.574 C 15.563 8.198,16.081 7.507,16.289 6.585 L 16.379 6.189 17.079 6.212 C 18.112 6.246,18.388 6.345,18.588 6.752 L 18.700 6.980 18.700 9.180 C 18.700 11.547,18.699 11.554,18.489 11.835 C 18.381 11.980,18.159 12.095,17.853 12.166 C 17.729 12.194,16.633 12.220,14.800 12.239 C 12.302 12.265,11.902 12.277,11.641 12.338 C 10.958 12.496,10.558 12.689,10.188 13.037 C 9.769 13.432,9.540 13.976,9.462 14.760 L 9.436 15.020 9.096 15.086 C 8.308 15.240,7.869 15.641,7.653 16.403 C 7.587 16.635,7.580 16.840,7.580 18.500 C 7.580 20.160,7.587 20.365,7.653 20.597 C 7.849 21.290,8.211 21.675,8.860 21.882 C 9.239 22.003,10.548 22.042,11.091 21.947 C 11.926 21.803,12.405 21.382,12.599 20.623 C 12.674 20.329,12.680 20.183,12.679 18.504 C 12.679 17.047,12.667 16.651,12.619 16.447 C 12.438 15.678,11.973 15.239,11.180 15.086 L 10.835 15.020 10.862 14.781 C 10.933 14.169,11.185 13.872,11.767 13.715 C 11.885 13.683,12.812 13.659,14.700 13.639 C 16.488 13.620,17.563 13.593,17.754 13.562 C 18.877 13.381,19.470 13.028,19.799 12.344 C 20.089 11.741,20.100 11.627,20.100 9.160 C 20.100 7.033,20.098 6.971,20.010 6.628 C 19.881 6.120,19.744 5.858,19.456 5.570 C 18.942 5.054,18.060 4.800,16.782 4.800 C 16.401 4.800,16.360 4.793,16.360 4.728 C 16.360 4.688,16.322 4.503,16.275 4.318 C 15.941 2.986,15.031 2.227,13.548 2.041 C 13.162 1.992,7.067 1.994,6.694 2.042 " fill="#292D32" stroke="none" fill-rule="evenodd"></path></svg>