<svg width="24" height="24" viewBox="0 0 24 24" fill="none" xmlns="http://www.w3.org/2000/svg"><path d="M6.960 2.046 C 6.236 2.116,5.358 2.357,4.796 2.641 C 4.426 2.828,3.928 3.183,3.624 3.475 C 2.737 4.332,2.251 5.370,2.062 6.812 C 1.970 7.515,1.969 16.481,2.061 17.188 C 2.239 18.550,2.681 19.544,3.476 20.372 C 4.162 21.084,4.935 21.524,5.956 21.780 C 6.817 21.997,6.896 22.000,11.993 22.000 C 14.960 22.000,16.828 21.985,17.041 21.959 C 19.985 21.603,21.695 19.840,21.962 16.885 C 21.990 16.579,21.999 14.787,21.989 11.660 C 21.974 7.001,21.972 6.891,21.889 6.456 C 21.642 5.171,21.165 4.235,20.369 3.478 C 19.583 2.729,18.652 2.295,17.359 2.076 C 16.995 2.014,7.572 1.987,6.960 2.046 M17.157 6.618 C 17.384 6.775,17.494 7.019,17.472 7.317 C 17.459 7.508,17.397 7.669,17.127 8.220 C 16.344 9.819,15.132 11.549,13.883 12.851 L 13.507 13.244 13.433 12.952 C 13.134 11.772,12.122 10.799,10.946 10.560 L 10.711 10.512 10.866 10.352 C 11.621 9.564,13.111 8.395,14.330 7.633 C 14.858 7.303,16.205 6.597,16.451 6.522 C 16.677 6.453,16.978 6.494,17.157 6.618 M9.603 12.961 C 10.159 13.148,10.690 13.616,10.940 14.140 C 11.547 15.409,10.819 16.957,9.455 17.298 C 9.113 17.383,7.729 17.531,7.526 17.504 C 6.952 17.427,6.521 16.941,6.520 16.371 C 6.520 15.947,6.677 14.674,6.763 14.401 C 7.130 13.243,8.452 12.573,9.603 12.961 " fill="#292D32" stroke="none" fill-rule="evenodd"></path></svg>