<svg width="24" height="24" viewBox="0 0 24 24" fill="none" xmlns="http://www.w3.org/2000/svg"><path d="M20.152 2.043 C 19.816 2.122,18.509 2.742,17.560 3.272 C 14.912 4.750,11.756 7.113,9.868 9.030 L 9.595 9.307 9.948 9.376 C 11.501 9.680,12.982 10.698,13.820 12.038 C 14.156 12.575,14.486 13.401,14.602 13.990 C 14.628 14.128,14.665 14.240,14.683 14.240 C 14.725 14.240,15.855 13.034,16.351 12.460 C 18.246 10.264,19.982 7.706,21.115 5.440 C 21.709 4.252,21.884 3.820,21.909 3.480 C 21.976 2.573,21.065 1.827,20.152 2.043 M8.526 10.496 C 8.060 11.059,6.881 12.560,6.904 12.560 C 6.917 12.560,7.105 12.596,7.323 12.641 C 8.329 12.846,9.204 13.320,9.934 14.058 C 10.660 14.791,11.088 15.562,11.306 16.530 C 11.361 16.778,11.410 16.983,11.414 16.987 C 11.417 16.990,11.947 16.571,12.590 16.055 C 13.335 15.457,13.760 15.091,13.760 15.045 C 13.760 14.888,13.591 14.041,13.500 13.740 C 12.953 11.936,11.325 10.572,9.400 10.303 C 9.147 10.268,8.900 10.233,8.851 10.225 C 8.781 10.214,8.709 10.274,8.526 10.496 M5.540 13.639 C 3.922 13.990,2.716 15.131,2.363 16.645 C 2.268 17.054,2.000 19.456,2.000 19.903 C 2.000 20.460,2.211 20.970,2.606 21.365 C 2.982 21.743,3.416 21.944,3.940 21.984 C 4.286 22.011,6.916 21.719,7.368 21.603 C 9.006 21.184,10.224 19.755,10.396 18.051 C 10.518 16.842,10.142 15.730,9.316 14.861 C 8.929 14.454,8.583 14.197,8.100 13.959 C 7.524 13.674,7.183 13.594,6.480 13.576 C 6.013 13.564,5.830 13.576,5.540 13.639 " fill="#292D32" stroke="none" fill-rule="evenodd"></path></svg>