<svg width="24" height="24" viewBox="0 0 24 24" fill="none" xmlns="http://www.w3.org/2000/svg"><path d="M5.680 2.026 C 5.077 2.124,4.463 2.586,4.204 3.134 C 4.010 3.546,4.000 3.671,4.000 5.635 C 4.000 7.711,4.002 7.724,4.299 8.021 C 4.623 8.345,3.977 8.320,12.000 8.320 C 20.023 8.320,19.377 8.345,19.701 8.021 C 19.998 7.724,20.000 7.711,20.000 5.635 C 20.000 4.453,19.984 3.729,19.956 3.592 C 19.818 2.931,19.341 2.387,18.660 2.116 L 18.420 2.020 12.100 2.015 C 8.624 2.012,5.735 2.017,5.680 2.026 M4.667 9.385 C 4.391 9.470,4.143 9.729,4.058 10.020 C 4.002 10.213,3.995 10.405,4.010 11.313 C 4.030 12.523,4.049 12.633,4.340 13.225 C 4.548 13.649,4.945 14.106,5.318 14.349 C 5.445 14.432,6.239 14.887,7.082 15.360 C 8.976 16.423,9.150 16.566,9.407 17.263 C 9.489 17.485,9.496 17.591,9.519 18.980 C 9.541 20.366,9.548 20.473,9.628 20.671 C 9.899 21.344,10.478 21.836,11.137 21.957 C 11.494 22.022,12.649 22.011,12.951 21.940 C 13.627 21.780,14.137 21.325,14.390 20.655 C 14.494 20.382,14.495 20.369,14.519 18.900 C 14.541 17.513,14.548 17.407,14.628 17.209 C 14.751 16.903,14.941 16.624,15.158 16.430 C 15.267 16.332,16.044 15.866,16.999 15.328 C 17.907 14.815,18.750 14.320,18.872 14.228 C 19.349 13.868,19.814 13.132,19.940 12.537 C 20.022 12.151,20.026 10.139,19.945 9.946 C 19.867 9.758,19.654 9.530,19.464 9.428 L 19.300 9.340 12.080 9.333 C 5.784 9.326,4.835 9.333,4.667 9.385 " fill="#292D32" stroke="none" fill-rule="evenodd"></path></svg>