<svg width="24" height="24" viewBox="0 0 24 24" fill="none" xmlns="http://www.w3.org/2000/svg"><path d="M6.260 2.060 C 5.701 2.165,5.206 2.413,4.796 2.792 C 4.161 3.380,3.834 4.115,3.835 4.953 C 3.836 5.563,4.193 11.999,4.238 12.210 C 4.317 12.579,4.599 12.869,4.967 12.960 C 5.087 12.990,7.276 12.999,12.100 12.991 C 18.923 12.980,19.063 12.978,19.218 12.902 C 19.463 12.780,19.672 12.540,19.738 12.305 C 19.819 12.017,20.196 5.081,20.154 4.648 C 20.119 4.286,19.952 3.786,19.757 3.455 C 19.580 3.155,19.044 2.618,18.751 2.446 C 18.625 2.372,18.410 2.266,18.274 2.211 C 17.795 2.018,17.583 2.003,15.276 2.001 L 13.132 2.000 12.996 2.091 C 12.772 2.243,12.761 2.293,12.760 3.260 C 12.758 4.241,12.733 4.361,12.484 4.571 C 12.207 4.804,11.832 4.806,11.531 4.576 C 11.275 4.381,11.262 4.322,11.240 3.251 L 11.220 2.281 11.089 2.151 L 10.959 2.020 10.060 2.008 C 9.283 1.997,9.142 2.005,9.019 2.063 C 8.941 2.100,8.855 2.169,8.829 2.215 C 8.793 2.278,8.775 2.930,8.760 4.740 L 8.740 7.180 8.630 7.367 C 8.314 7.904,7.572 7.868,7.315 7.302 C 7.247 7.151,7.242 6.982,7.241 4.760 C 7.240 2.471,7.237 2.375,7.162 2.252 C 7.010 2.003,6.800 1.958,6.260 2.060 M4.050 14.061 C 3.913 14.091,3.707 14.166,3.592 14.227 C 3.327 14.371,2.962 14.708,2.807 14.951 C 2.428 15.546,2.410 16.363,2.762 16.982 C 2.911 17.244,3.326 17.641,3.591 17.775 C 4.034 18.000,4.034 18.000,6.863 18.000 L 9.470 18.000 9.491 18.950 C 9.507 19.638,9.530 19.961,9.575 20.120 C 9.810 20.942,10.425 21.597,11.219 21.870 C 11.496 21.965,11.603 21.980,12.000 21.980 C 12.397 21.980,12.504 21.965,12.781 21.870 C 13.575 21.597,14.190 20.942,14.425 20.120 C 14.470 19.961,14.493 19.638,14.509 18.950 L 14.530 18.000 17.075 17.999 C 19.869 17.999,19.882 17.998,20.390 17.755 C 20.864 17.529,21.299 17.003,21.437 16.489 C 21.496 16.273,21.498 15.795,21.441 15.545 C 21.321 15.012,20.885 14.465,20.385 14.220 C 20.228 14.143,20.003 14.062,19.885 14.040 C 19.745 14.014,16.945 14.001,11.985 14.003 C 5.671 14.006,4.255 14.016,4.050 14.061 " fill="#292D32" stroke="none" fill-rule="evenodd"></path></svg>