<svg width="24" height="24" viewBox="0 0 24 24" fill="none" xmlns="http://www.w3.org/2000/svg"><path d="M14.960 1.788 C 13.837 1.908,12.638 2.490,11.807 3.319 C 9.948 5.172,9.685 8.018,11.171 10.195 C 11.285 10.363,11.568 10.690,11.799 10.922 C 12.594 11.720,13.508 12.205,14.629 12.426 C 15.154 12.529,16.097 12.520,16.628 12.407 C 18.097 12.092,19.278 11.298,20.086 10.080 C 21.439 8.041,21.204 5.257,19.531 3.478 C 18.470 2.351,17.068 1.746,15.560 1.767 C 15.307 1.770,15.037 1.780,14.960 1.788 M5.720 13.098 C 4.483 13.364,3.570 14.190,3.176 15.400 C 3.076 15.708,3.066 15.796,3.064 16.340 C 3.062 17.010,3.109 17.247,3.340 17.747 C 3.673 18.470,4.247 19.046,4.966 19.377 C 5.473 19.611,5.708 19.658,6.380 19.656 C 6.924 19.654,7.012 19.644,7.320 19.544 C 8.824 19.054,9.761 17.708,9.668 16.168 C 9.631 15.551,9.475 15.067,9.155 14.577 C 8.677 13.844,8.023 13.370,7.161 13.133 C 6.850 13.048,6.045 13.029,5.720 13.098 M15.930 16.720 C 15.360 16.870,14.965 17.109,14.556 17.552 C 14.077 18.072,13.837 18.684,13.832 19.400 C 13.829 19.834,13.882 20.133,14.027 20.490 C 14.334 21.248,14.982 21.844,15.789 22.111 C 16.059 22.200,16.168 22.214,16.620 22.214 C 17.075 22.214,17.180 22.200,17.460 22.108 C 18.263 21.843,18.906 21.249,19.213 20.490 C 19.528 19.712,19.472 18.798,19.063 18.059 C 18.841 17.659,18.311 17.145,17.920 16.949 C 17.307 16.643,16.555 16.557,15.930 16.720 " fill="#292D32" stroke="none" fill-rule="evenodd"></path></svg>