<svg width="24" height="24" viewBox="0 0 24 24" fill="none" xmlns="http://www.w3.org/2000/svg"><path d="M8.072 2.240 C 7.665 2.362,7.443 2.854,7.616 3.251 C 7.647 3.322,7.890 3.596,8.156 3.859 L 8.640 4.339 5.644 7.339 C 2.492 10.496,2.368 10.633,2.160 11.188 C 1.965 11.710,1.956 12.204,2.131 12.688 C 2.366 13.335,2.488 13.475,5.087 16.066 C 7.493 18.465,7.686 18.635,8.232 18.842 C 8.750 19.039,9.293 19.039,9.808 18.843 C 10.376 18.626,10.488 18.525,13.893 15.126 C 15.804 13.219,17.161 11.835,17.211 11.740 C 17.324 11.530,17.329 11.128,17.223 10.900 C 17.171 10.790,15.844 9.435,12.964 6.552 C 9.701 3.285,8.740 2.346,8.600 2.283 C 8.411 2.198,8.253 2.185,8.072 2.240 M18.780 14.579 C 18.758 14.587,18.691 14.604,18.631 14.617 C 18.478 14.651,18.289 14.827,17.938 15.263 C 16.593 16.937,16.232 18.115,16.742 19.180 C 17.060 19.844,17.652 20.305,18.389 20.461 C 19.636 20.725,20.879 19.903,21.145 18.640 C 21.319 17.812,20.959 16.846,20.006 15.580 C 19.635 15.088,19.308 14.724,19.186 14.667 C 19.046 14.602,18.842 14.558,18.780 14.579 M2.807 21.287 C 2.568 21.341,2.341 21.572,2.289 21.816 C 2.196 22.250,2.432 22.631,2.846 22.717 C 2.999 22.749,4.944 22.758,9.620 22.751 L 16.180 22.740 16.359 22.639 C 16.702 22.448,16.829 22.010,16.646 21.651 C 16.544 21.452,16.391 21.337,16.156 21.283 C 15.921 21.228,3.050 21.233,2.807 21.287 " fill="#292D32" stroke="none" fill-rule="evenodd"></path></svg>