<svg width="24" height="24" viewBox="0 0 24 24" fill="none" xmlns="http://www.w3.org/2000/svg"><path d="M6.960 2.046 C 6.236 2.116,5.358 2.357,4.796 2.641 C 4.426 2.828,3.928 3.183,3.624 3.475 C 2.737 4.332,2.251 5.370,2.062 6.812 C 1.970 7.515,1.969 16.481,2.061 17.188 C 2.239 18.550,2.681 19.544,3.476 20.372 C 4.162 21.084,4.935 21.524,5.956 21.780 C 6.817 21.997,6.896 22.000,11.993 22.000 C 14.960 22.000,16.828 21.985,17.041 21.959 C 19.985 21.603,21.695 19.840,21.962 16.885 C 21.990 16.579,21.999 14.787,21.989 11.660 C 21.974 7.001,21.972 6.891,21.889 6.456 C 21.642 5.171,21.165 4.235,20.369 3.478 C 19.583 2.729,18.652 2.295,17.359 2.076 C 16.995 2.014,7.572 1.987,6.960 2.046 M12.847 8.910 C 15.831 11.896,15.689 11.733,15.622 12.110 C 15.598 12.242,15.342 12.513,13.428 14.425 C 11.420 16.430,11.239 16.599,10.981 16.725 C 10.727 16.848,10.669 16.860,10.341 16.860 C 10.013 16.860,9.955 16.848,9.700 16.725 C 9.445 16.601,9.283 16.453,7.906 15.085 C 7.038 14.223,6.309 13.463,6.198 13.307 C 5.935 12.935,5.866 12.714,5.888 12.305 C 5.919 11.714,5.903 11.734,8.136 9.490 L 10.098 7.520 9.793 7.210 C 9.626 7.039,9.469 6.861,9.444 6.813 C 9.383 6.692,9.389 6.538,9.460 6.400 C 9.549 6.227,9.672 6.160,9.899 6.160 L 10.099 6.160 12.847 8.910 M17.063 14.302 C 17.550 14.824,18.030 15.628,18.123 16.073 C 18.289 16.875,17.701 17.703,16.868 17.839 C 16.239 17.941,15.578 17.592,15.291 17.006 C 15.139 16.695,15.117 16.229,15.238 15.867 C 15.382 15.434,15.826 14.745,16.254 14.290 C 16.442 14.090,16.462 14.080,16.654 14.080 C 16.849 14.080,16.865 14.089,17.063 14.302 " fill="#292D32" stroke="none" fill-rule="evenodd"></path></svg>