<svg width="24" height="24" viewBox="0 0 24 24" fill="none" xmlns="http://www.w3.org/2000/svg"><path d="M11.120 2.039 C 8.336 2.318,5.905 3.624,4.193 5.760 C 1.474 9.155,1.267 13.917,3.682 17.533 C 6.770 22.155,12.946 23.386,17.560 20.299 C 22.155 17.225,23.377 11.041,20.299 6.440 C 18.728 4.092,16.319 2.562,13.493 2.119 C 12.909 2.027,11.660 1.985,11.120 2.039 M12.847 8.910 C 15.280 11.345,15.598 11.677,15.622 11.810 C 15.689 12.183,15.779 12.076,13.428 14.428 C 11.393 16.463,11.243 16.604,10.980 16.728 C 10.728 16.847,10.664 16.860,10.340 16.860 C 10.013 16.860,9.955 16.848,9.700 16.725 C 9.445 16.601,9.283 16.453,7.906 15.085 C 7.038 14.223,6.309 13.463,6.198 13.307 C 5.935 12.935,5.866 12.714,5.888 12.305 C 5.919 11.714,5.903 11.734,8.136 9.490 L 10.098 7.520 9.793 7.210 C 9.626 7.039,9.469 6.861,9.444 6.813 C 9.383 6.692,9.389 6.538,9.460 6.400 C 9.549 6.227,9.672 6.160,9.899 6.160 L 10.099 6.160 12.847 8.910 M17.063 14.302 C 17.550 14.824,18.030 15.628,18.123 16.073 C 18.289 16.875,17.701 17.703,16.868 17.839 C 16.239 17.941,15.578 17.592,15.291 17.006 C 15.139 16.695,15.117 16.229,15.238 15.867 C 15.382 15.434,15.826 14.745,16.254 14.290 C 16.442 14.090,16.462 14.080,16.654 14.080 C 16.849 14.080,16.865 14.089,17.063 14.302 " fill="#292D32" stroke="none" fill-rule="evenodd"></path></svg>