<svg width="24" height="24" viewBox="0 0 24 24" fill="none" xmlns="http://www.w3.org/2000/svg"><path d="M8.604 2.443 C 8.508 2.462,8.318 2.530,8.182 2.593 C 7.824 2.761,3.770 5.480,3.572 5.686 C 3.325 5.943,3.143 6.274,3.065 6.606 C 3.003 6.872,2.998 7.188,3.008 9.933 L 3.020 12.966 3.169 13.103 L 3.319 13.240 9.000 13.240 L 14.681 13.240 14.831 13.103 L 14.980 12.966 14.991 9.922 C 15.002 6.608,15.002 6.598,14.776 6.153 C 14.565 5.736,14.367 5.581,12.162 4.109 C 11.008 3.339,9.955 2.657,9.822 2.595 C 9.432 2.412,9.022 2.361,8.604 2.443 M9.271 7.281 C 9.639 7.341,9.944 7.500,10.222 7.778 C 11.230 8.786,10.686 10.463,9.267 10.725 C 8.740 10.822,8.190 10.637,7.778 10.223 C 7.245 9.687,7.111 8.929,7.429 8.249 C 7.647 7.784,8.192 7.368,8.693 7.284 C 8.981 7.236,8.990 7.236,9.271 7.281 M19.400 11.703 C 18.848 11.849,18.356 12.195,18.049 12.654 C 17.639 13.267,17.584 13.591,17.610 15.238 C 17.630 16.488,17.654 16.650,17.883 17.080 C 18.130 17.543,18.506 17.906,18.966 18.126 L 19.240 18.257 19.240 19.748 L 19.240 21.240 17.120 21.240 L 15.000 21.240 15.000 18.186 L 15.000 15.132 14.909 14.996 C 14.859 14.922,14.773 14.839,14.719 14.811 C 14.574 14.738,3.426 14.738,3.281 14.811 C 3.227 14.839,3.141 14.922,3.091 14.996 L 3.000 15.132 3.000 18.182 L 3.000 21.231 2.410 21.246 C 1.872 21.260,1.804 21.270,1.642 21.361 C 1.071 21.679,1.181 22.555,1.811 22.714 C 2.076 22.780,21.924 22.780,22.189 22.714 C 22.819 22.555,22.929 21.681,22.358 21.360 C 22.189 21.265,22.141 21.259,21.450 21.246 L 20.720 21.232 20.721 19.746 L 20.722 18.260 21.043 18.108 C 21.278 17.997,21.438 17.884,21.636 17.688 C 21.934 17.394,22.081 17.167,22.236 16.765 C 22.336 16.503,22.338 16.483,22.352 15.163 C 22.361 14.288,22.350 13.735,22.321 13.563 C 22.173 12.702,21.417 11.904,20.556 11.701 C 20.236 11.626,19.689 11.627,19.400 11.703 M9.366 17.611 C 9.533 17.702,9.645 17.839,9.713 18.036 C 9.746 18.131,9.760 18.637,9.760 19.706 L 9.760 21.240 8.998 21.240 L 8.237 21.240 8.248 19.627 L 8.260 18.013 8.369 17.856 C 8.611 17.507,9.002 17.411,9.366 17.611 " fill="#292D32" stroke="none" fill-rule="evenodd"></path></svg>