<svg width="24" height="24" viewBox="0 0 24 24" fill="none" xmlns="http://www.w3.org/2000/svg"><path d="M4.000 2.062 C 3.146 2.246,2.479 2.870,2.173 3.772 C 1.955 4.415,1.960 4.197,1.960 12.464 C 1.960 20.000,1.961 20.112,2.041 20.423 C 2.214 21.099,2.721 21.646,3.400 21.887 L 3.660 21.980 7.660 21.991 C 12.144 22.004,11.847 22.022,12.186 21.711 C 12.529 21.394,12.500 22.084,12.500 14.140 C 12.500 7.369,12.497 7.089,12.425 6.820 C 12.207 6.013,11.668 5.233,11.045 4.827 C 10.708 4.606,6.158 2.363,5.766 2.223 C 5.172 2.012,4.512 1.952,4.000 2.062 M9.300 8.326 C 9.651 8.520,9.804 8.922,9.658 9.271 C 9.576 9.468,9.454 9.595,9.260 9.684 C 9.112 9.753,8.963 9.758,7.238 9.759 C 5.386 9.760,5.376 9.760,5.201 9.670 C 5.104 9.620,4.970 9.511,4.902 9.426 C 4.793 9.289,4.780 9.243,4.780 9.003 C 4.780 8.769,4.795 8.714,4.893 8.586 C 5.026 8.411,5.154 8.321,5.331 8.278 C 5.402 8.261,6.297 8.249,7.320 8.253 C 8.967 8.259,9.194 8.268,9.300 8.326 M14.643 11.069 C 14.546 11.103,14.390 11.208,14.296 11.302 C 13.993 11.605,14.000 11.527,14.000 14.623 C 14.000 17.074,14.006 17.354,14.063 17.376 C 14.098 17.389,14.284 17.400,14.477 17.400 C 15.197 17.400,15.770 17.160,16.281 16.644 C 16.645 16.276,16.852 15.888,16.959 15.371 C 17.017 15.093,17.033 15.053,17.037 15.180 C 17.048 15.594,17.316 16.205,17.653 16.583 C 17.910 16.871,18.368 17.174,18.715 17.284 C 19.049 17.390,19.669 17.428,20.009 17.363 C 20.828 17.205,21.585 16.531,21.855 15.720 C 21.996 15.295,22.017 15.012,21.944 14.530 C 21.758 13.304,21.247 12.607,20.238 12.205 C 19.982 12.104,18.902 11.848,15.565 11.102 C 15.047 10.986,14.893 10.981,14.643 11.069 M9.300 12.326 C 9.651 12.520,9.804 12.922,9.658 13.271 C 9.576 13.468,9.454 13.595,9.260 13.684 C 9.112 13.753,8.963 13.758,7.238 13.759 C 5.386 13.760,5.376 13.760,5.201 13.670 C 5.104 13.620,4.970 13.511,4.902 13.426 C 4.793 13.289,4.780 13.243,4.780 13.003 C 4.780 12.769,4.795 12.714,4.893 12.586 C 5.026 12.411,5.154 12.321,5.331 12.278 C 5.402 12.261,6.297 12.249,7.320 12.253 C 8.967 12.259,9.194 12.268,9.300 12.326 M16.873 18.146 C 16.245 18.615,15.346 18.889,14.448 18.888 L 13.996 18.887 14.008 20.093 C 14.019 21.241,14.024 21.308,14.106 21.460 C 14.207 21.647,14.364 21.801,14.560 21.905 C 14.693 21.976,14.841 21.980,17.340 21.980 L 19.980 21.980 20.273 21.873 C 20.682 21.723,20.975 21.540,21.258 21.258 C 21.543 20.973,21.726 20.678,21.869 20.273 C 21.968 19.996,21.974 19.929,21.991 19.011 L 22.008 18.043 21.692 18.254 C 21.340 18.490,20.908 18.682,20.447 18.809 C 20.004 18.931,18.996 18.931,18.553 18.809 C 18.092 18.683,17.679 18.498,17.324 18.260 L 17.006 18.047 16.873 18.146 " fill="#292D32" stroke="none" fill-rule="evenodd"></path></svg>