<svg width="24" height="24" viewBox="0 0 24 24" fill="none" xmlns="http://www.w3.org/2000/svg"><path d="M4.560 3.026 C 3.679 3.122,2.948 3.526,2.555 4.132 C 2.413 4.352,2.268 4.732,2.155 5.180 C 2.116 5.337,2.102 7.101,2.091 13.306 L 2.078 21.232 1.449 21.246 C 0.868 21.260,0.807 21.268,0.642 21.360 C 0.071 21.680,0.181 22.555,0.811 22.714 C 1.076 22.780,22.924 22.780,23.189 22.714 C 23.819 22.555,23.929 21.681,23.358 21.360 C 23.180 21.260,23.177 21.260,21.950 21.247 L 20.720 21.235 20.721 19.747 L 20.722 18.260 21.043 18.108 C 21.278 17.997,21.438 17.884,21.636 17.688 C 21.934 17.394,22.081 17.167,22.236 16.765 C 22.336 16.503,22.338 16.483,22.352 15.163 C 22.368 13.631,22.349 13.452,22.115 12.966 C 21.815 12.344,21.206 11.854,20.535 11.697 C 20.163 11.609,19.555 11.639,19.206 11.761 C 18.885 11.873,18.404 12.193,18.223 12.414 C 17.999 12.687,17.803 13.040,17.708 13.340 C 17.624 13.606,17.620 13.688,17.620 14.980 C 17.620 16.156,17.630 16.375,17.691 16.595 C 17.875 17.264,18.347 17.830,18.966 18.126 L 19.240 18.257 19.240 19.748 L 19.240 21.240 16.781 21.240 L 14.322 21.240 14.308 13.330 C 14.293 4.907,14.303 5.307,14.096 4.672 C 13.897 4.064,13.474 3.584,12.900 3.317 C 12.243 3.012,12.455 3.026,8.360 3.018 C 6.347 3.014,4.637 3.018,4.560 3.026 M11.027 7.563 C 11.181 7.620,11.358 7.793,11.425 7.949 C 11.541 8.219,11.460 8.621,11.253 8.808 C 11.040 9.001,11.052 9.000,8.280 9.000 C 5.470 9.000,5.517 9.003,5.287 8.788 C 4.944 8.468,5.012 7.861,5.419 7.617 L 5.580 7.521 8.247 7.520 C 10.036 7.520,10.952 7.534,11.027 7.563 M11.120 11.366 C 11.632 11.667,11.602 12.396,11.067 12.658 L 10.855 12.762 8.217 12.751 C 5.642 12.740,5.577 12.738,5.441 12.658 C 5.364 12.613,5.248 12.501,5.184 12.409 C 5.086 12.271,5.067 12.203,5.067 12.007 C 5.067 11.646,5.260 11.386,5.601 11.286 C 5.690 11.260,6.684 11.248,8.340 11.253 L 10.940 11.260 11.120 11.366 M8.592 17.596 C 8.775 17.689,8.859 17.780,8.938 17.970 C 8.990 18.094,9.000 18.364,9.000 19.679 L 9.000 21.240 8.260 21.240 L 7.520 21.240 7.520 19.663 C 7.520 18.645,7.535 18.045,7.563 17.973 C 7.619 17.824,7.791 17.643,7.940 17.577 C 8.115 17.499,8.419 17.507,8.592 17.596 " fill="#292D32" stroke="none" fill-rule="evenodd"></path></svg>