<svg width="24" height="24" viewBox="0 0 24 24" fill="none" xmlns="http://www.w3.org/2000/svg"><path d="M12.436 2.060 C 11.225 2.301,10.291 3.247,10.057 4.467 C 9.971 4.916,9.971 19.084,10.057 19.533 C 10.294 20.769,11.231 21.706,12.467 21.943 C 12.632 21.974,12.955 22.000,13.186 22.000 C 13.660 22.000,13.796 21.953,13.922 21.748 C 13.996 21.626,14.000 21.532,14.002 19.720 C 14.003 18.238,14.015 17.787,14.057 17.670 C 14.136 17.449,14.298 17.256,14.511 17.131 L 14.700 17.020 16.000 17.020 L 17.300 17.020 17.489 17.131 C 17.702 17.256,17.864 17.449,17.943 17.670 C 17.985 17.787,17.997 18.238,17.998 19.720 C 18.000 21.532,18.004 21.626,18.078 21.748 C 18.204 21.953,18.340 22.000,18.814 22.000 C 19.045 22.000,19.368 21.974,19.533 21.943 C 20.769 21.706,21.706 20.769,21.943 19.533 C 22.029 19.084,22.029 4.916,21.943 4.467 C 21.706 3.231,20.769 2.294,19.533 2.057 C 19.113 1.977,12.841 1.979,12.436 2.060 M14.271 7.302 C 14.468 7.384,14.595 7.506,14.684 7.700 C 14.754 7.850,14.758 8.017,14.759 10.460 C 14.759 12.128,14.745 13.113,14.718 13.209 C 14.602 13.628,14.125 13.864,13.729 13.698 C 13.532 13.616,13.405 13.494,13.316 13.300 C 13.246 13.150,13.242 12.981,13.241 10.509 C 13.240 8.223,13.248 7.858,13.302 7.729 C 13.384 7.532,13.506 7.405,13.700 7.316 C 13.897 7.225,14.076 7.221,14.271 7.302 M18.271 7.302 C 18.468 7.384,18.595 7.506,18.684 7.700 C 18.754 7.850,18.758 8.017,18.759 10.460 C 18.759 12.128,18.745 13.113,18.718 13.209 C 18.602 13.628,18.125 13.864,17.729 13.698 C 17.532 13.616,17.405 13.494,17.316 13.300 C 17.246 13.150,17.242 12.981,17.241 10.509 C 17.240 8.223,17.248 7.858,17.302 7.729 C 17.384 7.532,17.506 7.405,17.700 7.316 C 17.897 7.225,18.076 7.221,18.271 7.302 M4.620 8.025 C 4.203 8.107,4.071 8.143,3.862 8.232 C 2.921 8.631,2.267 9.426,2.062 10.419 C 1.969 10.867,1.969 19.133,2.062 19.581 C 2.310 20.785,3.215 21.690,4.419 21.938 C 4.849 22.027,6.627 22.026,6.974 21.937 C 7.667 21.758,8.215 21.231,8.427 20.540 C 8.496 20.312,8.500 20.029,8.500 15.000 C 8.500 9.971,8.496 9.688,8.427 9.460 C 8.214 8.764,7.646 8.224,6.956 8.062 C 6.761 8.015,6.464 8.002,5.700 8.005 C 5.150 8.007,4.664 8.016,4.620 8.025 M5.600 12.342 C 5.741 12.413,5.866 12.556,5.938 12.729 C 5.991 12.857,6.000 13.174,5.999 15.009 C 5.998 16.990,5.993 17.151,5.925 17.302 C 5.669 17.865,4.937 17.901,4.610 17.367 L 4.520 17.220 4.520 15.005 C 4.520 12.794,4.520 12.791,4.608 12.633 C 4.797 12.299,5.252 12.165,5.600 12.342 " fill="#292D32" stroke="none" fill-rule="evenodd"></path></svg>