<svg width="24" height="24" viewBox="0 0 24 24" fill="none" xmlns="http://www.w3.org/2000/svg"><path d="M3.740 2.041 C 3.094 2.171,2.516 2.609,2.238 3.180 C 1.986 3.698,2.000 3.308,2.000 9.986 C 2.000 14.250,2.013 16.140,2.044 16.288 C 2.167 16.885,2.635 17.498,3.160 17.752 C 3.564 17.948,3.830 18.000,4.426 18.000 C 4.928 18.000,4.961 17.995,5.068 17.903 L 5.180 17.807 5.201 12.813 L 5.223 7.820 5.313 7.482 C 5.423 7.068,5.699 6.476,5.935 6.146 C 6.328 5.598,7.006 5.058,7.628 4.799 C 8.151 4.582,8.548 4.521,9.460 4.520 C 10.141 4.520,10.281 4.509,10.400 4.450 C 10.582 4.359,10.633 4.175,10.572 3.827 C 10.410 2.901,9.735 2.210,8.826 2.037 C 8.587 1.992,3.967 1.995,3.740 2.041 M15.006 2.081 C 14.460 2.225,13.962 2.604,13.687 3.086 C 13.551 3.325,13.400 3.842,13.400 4.068 C 13.400 4.228,13.490 4.420,13.582 4.455 C 13.617 4.469,13.956 4.480,14.334 4.480 C 15.104 4.480,15.558 4.525,15.996 4.643 C 17.471 5.042,18.623 6.361,18.837 7.895 C 18.866 8.104,18.880 9.775,18.880 12.986 L 18.880 17.766 18.997 17.883 C 19.113 17.999,19.117 18.000,19.591 18.000 C 20.398 18.000,20.908 17.817,21.362 17.362 C 21.645 17.079,21.820 16.770,21.921 16.378 C 21.998 16.075,22.000 15.921,22.000 10.000 C 22.000 4.079,21.998 3.925,21.921 3.622 C 21.820 3.230,21.645 2.921,21.362 2.638 C 21.079 2.355,20.770 2.180,20.378 2.079 C 20.084 2.004,19.934 2.000,17.684 2.002 C 15.465 2.004,15.280 2.010,15.006 2.081 M8.608 6.060 C 7.744 6.251,7.033 6.919,6.802 7.759 C 6.721 8.055,6.720 8.128,6.720 14.000 C 6.720 19.872,6.721 19.945,6.802 20.241 C 7.009 20.995,7.629 21.634,8.399 21.889 C 8.635 21.967,8.765 21.977,9.760 21.991 L 10.860 22.006 10.999 21.912 C 11.239 21.750,11.239 21.751,11.239 20.249 C 11.240 18.778,11.249 18.706,11.452 18.485 C 11.568 18.359,11.827 18.242,11.991 18.241 C 12.153 18.240,12.388 18.335,12.513 18.452 C 12.738 18.662,12.738 18.663,12.760 20.249 L 12.780 21.719 12.911 21.849 L 13.041 21.980 14.094 21.992 C 15.304 22.005,15.555 21.972,16.037 21.735 C 16.251 21.629,16.419 21.504,16.639 21.284 C 16.988 20.935,17.165 20.631,17.281 20.176 C 17.358 19.875,17.360 19.712,17.360 14.000 C 17.360 8.288,17.358 8.125,17.281 7.824 C 17.170 7.389,16.985 7.065,16.660 6.737 C 16.357 6.431,16.088 6.260,15.680 6.113 L 15.420 6.020 12.140 6.012 C 9.471 6.006,8.813 6.015,8.608 6.060 M14.302 10.315 C 14.934 10.602,14.872 11.534,14.209 11.718 C 14.115 11.744,13.284 11.760,11.969 11.760 C 10.171 11.760,9.857 11.751,9.729 11.698 C 9.101 11.436,9.084 10.600,9.700 10.316 C 9.849 10.247,10.004 10.242,12.000 10.242 C 13.991 10.242,14.151 10.247,14.302 10.315 M14.302 13.315 C 14.934 13.602,14.872 14.534,14.209 14.718 C 14.115 14.744,13.284 14.760,11.969 14.760 C 10.171 14.760,9.857 14.751,9.729 14.698 C 9.101 14.436,9.084 13.600,9.700 13.316 C 9.849 13.247,10.004 13.242,12.000 13.242 C 13.991 13.242,14.151 13.247,14.302 13.315 " fill="#292D32" stroke="none" fill-rule="evenodd"></path></svg>