<svg width="24" height="24" viewBox="0 0 24 24" fill="none" xmlns="http://www.w3.org/2000/svg"><path d="M6.460 2.026 C 5.618 2.130,5.233 2.235,4.760 2.487 C 4.266 2.750,3.992 2.995,3.673 3.455 C 3.344 3.930,3.122 4.590,3.042 5.328 C 3.014 5.586,3.000 8.332,3.000 13.475 L 3.000 21.233 2.410 21.246 C 1.906 21.258,1.797 21.272,1.660 21.344 C 1.139 21.616,1.121 22.330,1.627 22.645 L 1.780 22.740 12.000 22.740 L 22.220 22.740 22.373 22.645 C 22.747 22.412,22.859 21.935,22.619 21.596 C 22.418 21.311,22.274 21.262,21.590 21.246 L 21.000 21.233 21.000 13.475 C 21.000 8.332,20.986 5.586,20.958 5.328 C 20.787 3.742,20.031 2.707,18.716 2.258 C 18.002 2.015,18.303 2.026,12.180 2.018 C 9.100 2.014,6.526 2.017,6.460 2.026 M10.267 6.803 C 10.516 6.896,10.758 7.241,10.758 7.500 C 10.758 7.759,10.516 8.104,10.267 8.197 C 10.194 8.225,9.572 8.240,8.500 8.240 C 7.428 8.240,6.806 8.225,6.733 8.197 C 6.488 8.105,6.243 7.761,6.241 7.509 C 6.239 7.257,6.460 6.924,6.700 6.817 C 6.854 6.748,10.089 6.735,10.267 6.803 M17.267 6.803 C 17.516 6.896,17.758 7.241,17.758 7.500 C 17.758 7.759,17.516 8.104,17.267 8.197 C 17.194 8.225,16.572 8.240,15.500 8.240 C 14.428 8.240,13.806 8.225,13.733 8.197 C 13.488 8.105,13.243 7.761,13.241 7.509 C 13.239 7.257,13.460 6.924,13.700 6.817 C 13.854 6.748,17.089 6.735,17.267 6.803 M10.300 11.316 C 10.494 11.405,10.616 11.532,10.698 11.729 C 10.849 12.090,10.672 12.516,10.302 12.685 C 10.153 12.752,10.005 12.758,8.509 12.759 C 7.125 12.760,6.855 12.751,6.729 12.698 C 6.101 12.436,6.084 11.600,6.700 11.316 C 6.847 11.248,6.990 11.242,8.500 11.242 C 10.010 11.242,10.153 11.248,10.300 11.316 M17.300 11.316 C 17.494 11.405,17.616 11.532,17.698 11.729 C 17.849 12.090,17.672 12.516,17.302 12.685 C 17.153 12.752,17.005 12.758,15.509 12.759 C 14.125 12.760,13.855 12.751,13.729 12.698 C 13.101 12.436,13.084 11.600,13.700 11.316 C 13.847 11.248,13.990 11.242,15.500 11.242 C 17.010 11.242,17.153 11.248,17.300 11.316 M10.267 15.803 C 10.516 15.896,10.758 16.241,10.758 16.500 C 10.758 16.759,10.516 17.104,10.267 17.197 C 10.194 17.225,9.572 17.240,8.500 17.240 C 7.428 17.240,6.806 17.225,6.733 17.197 C 6.488 17.105,6.243 16.761,6.241 16.509 C 6.239 16.257,6.460 15.924,6.700 15.817 C 6.854 15.748,10.089 15.735,10.267 15.803 M17.267 15.803 C 17.516 15.896,17.758 16.241,17.758 16.500 C 17.758 16.759,17.516 17.104,17.267 17.197 C 17.194 17.225,16.572 17.240,15.500 17.240 C 14.428 17.240,13.806 17.225,13.733 17.197 C 13.488 17.105,13.243 16.761,13.241 16.509 C 13.239 16.257,13.460 15.924,13.700 15.817 C 13.854 15.748,17.089 15.735,17.267 15.803 " fill="#292D32" stroke="none" fill-rule="evenodd"></path></svg>