<svg width="24" height="24" viewBox="0 0 24 24" fill="none" xmlns="http://www.w3.org/2000/svg"><path d="M6.633 2.040 C 5.639 2.211,4.819 2.803,4.363 3.678 C 4.041 4.298,4.028 4.387,4.010 6.086 C 3.992 7.758,3.993 7.764,4.252 7.922 C 4.378 7.998,4.513 8.000,12.000 8.000 C 19.487 8.000,19.622 7.998,19.748 7.922 C 20.007 7.764,20.008 7.758,19.990 6.086 C 19.975 4.666,19.969 4.563,19.885 4.281 C 19.565 3.217,18.792 2.444,17.719 2.113 L 17.420 2.021 12.120 2.015 C 9.205 2.011,6.736 2.023,6.633 2.040 M14.780 4.316 C 15.075 4.453,15.240 4.697,15.240 5.000 C 15.240 5.303,15.075 5.547,14.780 5.684 C 14.629 5.754,14.466 5.758,12.000 5.758 C 9.534 5.758,9.371 5.754,9.220 5.684 C 8.925 5.547,8.760 5.303,8.760 5.000 C 8.760 4.697,8.925 4.453,9.220 4.316 C 9.371 4.246,9.534 4.242,12.000 4.242 C 14.466 4.242,14.629 4.246,14.780 4.316 M4.252 9.078 C 4.009 9.226,4.000 9.278,4.000 10.508 C 4.000 11.540,4.006 11.629,4.078 11.748 C 4.245 12.021,3.598 12.000,12.008 12.000 C 19.487 12.000,19.622 11.998,19.748 11.922 C 19.991 11.774,20.000 11.721,20.000 10.500 C 20.000 9.279,19.991 9.226,19.748 9.078 C 19.622 9.002,19.487 9.000,12.000 9.000 C 4.513 9.000,4.378 9.002,4.252 9.078 M4.236 13.091 C 4.162 13.141,4.078 13.227,4.050 13.281 C 4.010 13.359,4.002 14.026,4.010 16.420 L 4.020 19.460 4.146 19.831 C 4.317 20.333,4.556 20.720,4.918 21.082 C 5.280 21.444,5.667 21.683,6.169 21.854 L 6.540 21.980 12.000 21.980 L 17.460 21.980 17.831 21.854 C 18.333 21.683,18.720 21.444,19.082 21.082 C 19.444 20.720,19.683 20.333,19.854 19.831 L 19.980 19.460 19.990 16.420 C 19.998 14.026,19.990 13.359,19.950 13.281 C 19.922 13.227,19.838 13.141,19.764 13.091 L 19.628 13.000 12.000 13.000 L 4.372 13.000 4.236 13.091 M8.501 16.376 C 8.774 16.500,8.961 16.672,9.102 16.927 C 9.208 17.119,9.220 17.176,9.220 17.500 C 9.219 17.904,9.156 18.071,8.895 18.361 C 8.436 18.869,7.564 18.869,7.105 18.361 C 6.844 18.071,6.781 17.904,6.781 17.500 C 6.781 17.103,6.840 16.939,7.087 16.659 C 7.215 16.513,7.521 16.333,7.740 16.275 C 7.925 16.227,8.278 16.273,8.501 16.376 M16.553 16.397 C 16.806 16.524,16.988 16.706,17.129 16.971 C 17.260 17.217,17.260 17.785,17.128 18.032 C 16.987 18.296,16.775 18.507,16.526 18.629 C 16.063 18.856,15.448 18.740,15.105 18.361 C 14.844 18.071,14.781 17.904,14.781 17.500 C 14.781 17.103,14.840 16.939,15.087 16.659 C 15.214 16.513,15.521 16.333,15.740 16.275 C 15.954 16.219,16.304 16.271,16.553 16.397 " fill="#292D32" stroke="none" fill-rule="evenodd"></path></svg>