<svg width="24" height="24" viewBox="0 0 24 24" fill="none" xmlns="http://www.w3.org/2000/svg"><path d="M14.780 2.044 C 12.444 2.284,10.338 3.892,9.465 6.102 C 9.329 6.447,9.155 7.053,9.102 7.366 L 9.078 7.512 9.289 7.539 C 10.413 7.679,11.296 7.948,12.200 8.426 C 14.346 9.560,15.889 11.617,16.336 13.940 C 16.391 14.226,16.448 14.564,16.461 14.691 L 16.486 14.922 16.633 14.898 C 16.947 14.845,17.552 14.671,17.898 14.535 C 19.696 13.825,21.097 12.320,21.691 10.460 C 21.917 9.752,21.980 9.325,21.980 8.500 C 21.980 7.675,21.917 7.248,21.691 6.540 C 21.362 5.509,20.866 4.701,20.082 3.918 C 18.663 2.499,16.790 1.837,14.780 2.044 M7.800 9.044 C 6.711 9.168,5.632 9.575,4.760 10.190 C 4.273 10.534,3.534 11.273,3.190 11.760 C 1.817 13.705,1.629 16.267,2.703 18.420 C 3.009 19.034,3.382 19.543,3.919 20.081 C 4.457 20.618,4.966 20.991,5.580 21.297 C 7.437 22.223,9.563 22.223,11.420 21.297 C 12.034 20.991,12.543 20.618,13.081 20.081 C 13.618 19.543,13.991 19.034,14.297 18.420 C 15.859 15.287,14.703 11.535,11.648 9.825 C 10.493 9.178,9.105 8.897,7.800 9.044 M8.989 13.899 L 9.381 14.619 10.101 15.011 C 10.496 15.226,10.861 15.425,10.910 15.453 C 10.995 15.499,10.946 15.533,10.191 15.943 L 9.380 16.383 8.989 17.101 C 8.774 17.497,8.575 17.861,8.547 17.910 C 8.501 17.995,8.467 17.946,8.058 17.191 L 7.618 16.382 6.809 15.942 C 6.054 15.533,6.005 15.499,6.090 15.453 C 6.139 15.425,6.503 15.226,6.899 15.011 L 7.617 14.620 8.057 13.809 C 8.467 13.054,8.501 13.005,8.547 13.090 C 8.575 13.139,8.774 13.504,8.989 13.899 " fill="#292D32" stroke="none" fill-rule="evenodd"></path></svg>