<svg width="24" height="24" viewBox="0 0 24 24" fill="none" xmlns="http://www.w3.org/2000/svg"><path d="M11.680 2.090 C 11.562 2.153,11.459 2.252,11.380 2.380 L 11.260 2.574 11.247 3.787 L 11.235 5.000 9.997 5.000 L 8.760 5.000 8.759 4.290 C 8.759 3.900,8.742 3.510,8.722 3.426 C 8.652 3.122,8.363 2.920,8.000 2.920 C 7.637 2.920,7.348 3.122,7.278 3.426 C 7.258 3.510,7.241 3.922,7.240 4.340 L 7.239 5.100 6.960 5.213 C 6.450 5.419,6.017 5.813,5.777 6.287 C 5.602 6.631,5.561 6.914,5.561 7.785 L 5.560 8.589 5.770 8.545 C 6.011 8.493,17.602 8.479,18.130 8.529 L 18.440 8.559 18.439 7.769 C 18.439 6.915,18.397 6.630,18.223 6.287 C 17.984 5.814,17.551 5.421,17.043 5.213 L 16.766 5.100 16.753 4.120 C 16.740 3.142,16.740 3.140,16.634 2.960 C 16.348 2.474,15.652 2.474,15.366 2.960 C 15.261 3.139,15.260 3.147,15.247 4.070 L 15.234 5.000 13.999 5.000 L 12.764 5.000 12.752 3.810 C 12.740 2.651,12.738 2.615,12.645 2.427 C 12.459 2.050,12.034 1.901,11.680 2.090 M5.900 10.044 C 5.401 10.117,4.726 10.386,4.360 10.657 C 3.865 11.025,3.446 11.586,3.254 12.140 C 3.151 12.438,3.142 12.514,3.128 13.227 L 3.113 13.994 3.686 14.007 C 4.199 14.019,4.281 14.030,4.459 14.118 C 4.714 14.243,4.958 14.488,5.081 14.741 C 5.160 14.905,5.182 15.030,5.205 15.446 C 5.239 16.067,5.339 16.335,5.646 16.622 C 5.940 16.897,6.151 16.979,6.560 16.979 C 7.045 16.979,7.372 16.817,7.650 16.439 C 7.826 16.199,7.887 15.977,7.918 15.457 C 7.940 15.084,7.966 14.933,8.033 14.794 C 8.175 14.501,8.380 14.295,8.671 14.152 C 8.906 14.036,8.977 14.020,9.260 14.020 C 9.543 14.020,9.614 14.036,9.850 14.152 C 10.357 14.402,10.554 14.757,10.598 15.499 C 10.622 15.895,10.646 16.027,10.730 16.209 C 10.860 16.492,11.106 16.739,11.394 16.874 C 11.694 17.015,12.198 17.022,12.487 16.891 C 12.829 16.735,13.139 16.383,13.243 16.033 C 13.265 15.960,13.298 15.684,13.316 15.420 C 13.354 14.855,13.440 14.641,13.739 14.365 C 14.022 14.104,14.235 14.023,14.640 14.021 C 14.933 14.020,15.011 14.035,15.208 14.132 C 15.497 14.274,15.795 14.596,15.895 14.875 C 15.942 15.006,15.980 15.262,15.997 15.552 C 16.029 16.094,16.100 16.293,16.361 16.576 C 16.453 16.676,16.630 16.808,16.754 16.869 C 16.946 16.962,17.031 16.979,17.320 16.979 C 17.603 16.980,17.697 16.963,17.882 16.876 C 18.197 16.728,18.379 16.552,18.526 16.254 C 18.641 16.020,18.656 15.947,18.680 15.500 C 18.704 15.053,18.719 14.980,18.834 14.746 C 18.981 14.448,19.163 14.272,19.478 14.124 C 19.680 14.030,19.754 14.019,20.294 14.006 L 20.887 13.993 20.872 13.226 C 20.858 12.514,20.849 12.437,20.746 12.140 C 20.408 11.167,19.572 10.425,18.460 10.111 L 18.140 10.021 12.140 10.015 C 8.840 10.011,6.032 10.025,5.900 10.044 M3.110 17.990 L 3.100 20.500 2.800 20.521 C 2.443 20.545,2.278 20.624,2.136 20.838 C 1.880 21.225,2.030 21.730,2.458 21.925 C 2.614 21.995,2.985 21.998,12.000 21.998 C 21.015 21.998,21.386 21.995,21.542 21.925 C 21.971 21.730,22.118 21.225,21.858 20.831 C 21.722 20.624,21.554 20.545,21.200 20.521 L 20.900 20.500 20.890 18.010 L 20.879 15.520 20.545 15.520 L 20.210 15.520 20.185 15.645 C 20.171 15.714,20.160 15.829,20.160 15.901 C 20.160 16.106,19.969 16.713,19.807 17.020 C 19.600 17.413,19.038 17.974,18.652 18.174 C 18.239 18.387,17.824 18.486,17.340 18.487 C 16.885 18.488,16.651 18.445,16.280 18.292 C 15.955 18.159,15.674 17.983,15.406 17.746 C 15.093 17.467,14.985 17.422,14.640 17.422 C 14.287 17.422,14.190 17.465,13.836 17.780 C 12.949 18.572,11.663 18.721,10.596 18.154 C 10.474 18.089,10.224 17.913,10.042 17.762 C 9.678 17.460,9.477 17.379,9.170 17.408 C 8.916 17.433,8.751 17.518,8.440 17.783 C 7.960 18.193,7.475 18.408,6.872 18.476 C 5.627 18.618,4.452 17.919,3.966 16.748 C 3.831 16.422,3.720 15.932,3.720 15.662 L 3.720 15.480 3.420 15.480 L 3.121 15.480 3.110 17.990 " fill="#292D32" stroke="none" fill-rule="evenodd"></path></svg>