<svg width="24" height="24" viewBox="0 0 24 24" fill="none" xmlns="http://www.w3.org/2000/svg"><path d="M7.340 2.046 C 5.473 2.284,3.833 3.652,3.247 5.461 C 3.009 6.195,3.020 5.892,3.020 12.000 C 3.020 18.095,3.010 17.807,3.243 18.526 C 3.787 20.205,5.107 21.423,6.869 21.871 L 7.300 21.980 12.000 21.980 L 16.700 21.980 17.131 21.871 C 18.125 21.618,18.914 21.168,19.584 20.473 C 20.240 19.791,20.628 19.084,20.871 18.131 L 20.980 17.700 20.980 12.000 L 20.980 6.300 20.871 5.869 C 20.612 4.851,20.159 4.067,19.426 3.371 C 18.669 2.652,17.644 2.169,16.601 2.042 C 16.181 1.990,7.747 1.994,7.340 2.046 M15.556 5.796 C 16.201 5.996,16.713 6.572,16.839 7.236 C 16.892 7.514,16.892 8.646,16.839 8.924 C 16.693 9.696,16.035 10.326,15.258 10.438 C 14.892 10.491,9.114 10.492,8.749 10.439 C 7.996 10.330,7.377 9.769,7.181 9.018 C 7.097 8.694,7.096 7.470,7.180 7.148 C 7.348 6.503,7.820 5.993,8.430 5.798 C 8.645 5.729,8.874 5.724,11.986 5.722 C 15.142 5.720,15.325 5.724,15.556 5.796 M8.455 12.977 C 8.716 13.055,8.882 13.193,9.019 13.445 C 9.314 13.986,9.059 14.656,8.482 14.859 C 7.648 15.154,6.862 14.259,7.270 13.479 C 7.509 13.021,7.964 12.829,8.455 12.977 M12.660 13.078 C 13.007 13.268,13.213 13.725,13.126 14.113 C 12.974 14.791,12.242 15.123,11.656 14.780 C 11.320 14.583,11.139 14.234,11.168 13.839 C 11.220 13.115,12.001 12.717,12.660 13.078 M16.654 13.073 C 16.987 13.252,17.200 13.675,17.144 14.050 C 17.130 14.144,17.064 14.315,16.998 14.430 C 16.579 15.165,15.467 15.030,15.198 14.213 C 15.121 13.981,15.167 13.635,15.303 13.414 C 15.591 12.950,16.156 12.807,16.654 13.073 M8.625 17.043 C 8.854 17.153,9.061 17.430,9.125 17.710 C 9.256 18.285,8.838 18.853,8.244 18.911 C 7.482 18.984,6.923 18.172,7.264 17.488 C 7.515 16.984,8.105 16.791,8.625 17.043 M12.419 16.965 C 13.030 17.134,13.324 17.835,13.019 18.395 C 12.955 18.513,12.846 18.653,12.777 18.705 C 12.114 19.210,11.159 18.741,11.160 17.911 C 11.162 17.265,11.792 16.791,12.419 16.965 M16.401 16.960 C 17.029 17.134,17.328 17.828,17.019 18.395 C 16.887 18.638,16.733 18.771,16.482 18.859 C 16.032 19.018,15.540 18.832,15.291 18.409 C 15.196 18.248,15.180 18.176,15.180 17.920 C 15.180 17.664,15.196 17.592,15.291 17.431 C 15.523 17.037,15.980 16.843,16.401 16.960 " fill="#292D32" stroke="none" fill-rule="evenodd"></path></svg>