<svg width="24" height="24" viewBox="0 0 24 24" fill="none" xmlns="http://www.w3.org/2000/svg"><path d="M7.785 1.288 C 7.587 1.342,7.338 1.590,7.283 1.787 C 7.259 1.872,7.240 2.302,7.240 2.748 L 7.240 3.555 7.050 3.581 C 4.778 3.897,3.471 5.121,3.104 7.277 C 3.069 7.484,3.040 7.716,3.040 7.791 C 3.040 7.985,3.150 8.192,3.295 8.272 C 3.412 8.335,3.988 8.340,12.000 8.340 C 20.127 8.340,20.587 8.336,20.709 8.269 C 20.966 8.129,21.005 7.921,20.896 7.277 C 20.779 6.588,20.531 5.917,20.213 5.425 C 19.555 4.407,18.465 3.791,16.953 3.582 L 16.765 3.556 16.753 2.661 L 16.740 1.767 16.620 1.597 C 16.307 1.154,15.693 1.154,15.380 1.597 L 15.260 1.767 15.247 2.643 L 15.234 3.520 12.000 3.520 L 8.766 3.520 8.753 2.643 L 8.740 1.767 8.620 1.597 C 8.427 1.323,8.099 1.202,7.785 1.288 M3.673 9.903 C 3.552 9.940,3.421 10.025,3.303 10.143 C 2.979 10.467,2.994 10.265,3.011 14.328 C 3.028 18.173,3.024 18.081,3.245 18.875 C 3.599 20.147,4.437 21.103,5.617 21.585 C 6.045 21.759,6.685 21.905,7.260 21.959 C 7.853 22.014,16.147 22.014,16.740 21.959 C 19.159 21.731,20.554 20.439,20.926 18.079 C 20.968 17.814,20.980 16.955,20.980 14.160 C 20.980 10.683,20.978 10.575,20.902 10.422 C 20.782 10.182,20.541 9.969,20.308 9.900 C 20.009 9.811,3.962 9.814,3.673 9.903 M14.262 12.338 C 14.568 12.486,15.106 13.015,15.261 13.320 C 15.341 13.479,15.378 13.619,15.391 13.824 C 15.407 14.072,15.395 14.141,15.298 14.364 C 15.194 14.601,15.038 14.768,13.183 16.631 C 11.852 17.968,11.125 18.669,11.017 18.721 C 10.810 18.822,9.322 19.052,9.109 19.017 C 8.937 18.989,8.745 18.844,8.659 18.677 C 8.577 18.519,8.585 18.315,8.704 17.495 C 8.780 16.966,8.833 16.727,8.908 16.575 C 8.987 16.414,9.420 15.959,10.934 14.450 C 12.812 12.578,13.020 12.393,13.394 12.254 C 13.623 12.169,13.985 12.204,14.262 12.338 " fill="#292D32" stroke="none" fill-rule="evenodd"></path></svg>