<svg width="24" height="24" viewBox="0 0 24 24" fill="none" xmlns="http://www.w3.org/2000/svg"><path d="M7.785 1.288 C 7.587 1.342,7.338 1.590,7.283 1.787 C 7.259 1.872,7.240 2.302,7.240 2.748 L 7.240 3.555 7.050 3.581 C 4.778 3.897,3.471 5.121,3.104 7.277 C 3.069 7.484,3.040 7.716,3.040 7.791 C 3.040 7.985,3.150 8.192,3.295 8.272 C 3.412 8.335,3.988 8.340,12.000 8.340 C 20.127 8.340,20.587 8.336,20.709 8.269 C 20.966 8.129,21.005 7.921,20.896 7.277 C 20.779 6.588,20.531 5.917,20.213 5.425 C 19.555 4.407,18.465 3.791,16.953 3.582 L 16.765 3.556 16.753 2.661 L 16.740 1.767 16.620 1.597 C 16.307 1.154,15.693 1.154,15.380 1.597 L 15.260 1.767 15.247 2.643 L 15.234 3.520 12.000 3.520 L 8.766 3.520 8.753 2.643 L 8.740 1.767 8.620 1.597 C 8.427 1.323,8.099 1.202,7.785 1.288 M3.673 9.903 C 3.552 9.940,3.421 10.026,3.303 10.143 C 2.979 10.467,2.994 10.265,3.011 14.328 C 3.028 18.173,3.024 18.081,3.245 18.875 C 3.676 20.422,4.781 21.458,6.390 21.821 C 7.112 21.985,7.623 22.006,10.520 21.992 C 12.980 21.981,13.231 21.974,13.345 21.911 C 13.701 21.717,13.919 21.382,13.920 21.030 C 13.920 20.925,13.858 20.635,13.782 20.385 C 13.548 19.612,13.506 19.334,13.533 18.722 C 13.545 18.424,13.585 18.045,13.621 17.880 C 14.078 15.777,15.691 14.133,17.780 13.638 C 18.323 13.510,18.906 13.474,19.586 13.527 C 20.283 13.581,20.435 13.550,20.695 13.297 C 20.978 13.022,20.979 13.021,20.992 11.807 C 21.003 10.884,20.995 10.685,20.940 10.520 C 20.865 10.295,20.647 10.052,20.418 9.938 C 20.263 9.861,20.119 9.860,12.060 9.853 C 5.007 9.846,3.834 9.853,3.673 9.903 M8.900 13.094 C 9.010 13.145,9.165 13.260,9.245 13.348 C 9.693 13.845,9.522 14.616,8.900 14.906 C 8.636 15.029,8.362 15.029,8.100 14.905 C 7.721 14.725,7.509 14.401,7.508 14.000 C 7.505 13.280,8.254 12.793,8.900 13.094 M12.311 13.061 C 12.561 13.135,12.727 13.269,12.871 13.514 C 12.964 13.672,12.980 13.745,12.980 14.003 C 12.980 14.271,12.966 14.329,12.859 14.503 C 12.457 15.156,11.543 15.156,11.141 14.503 C 11.034 14.329,11.020 14.271,11.020 14.003 C 11.020 13.744,11.036 13.673,11.131 13.511 C 11.263 13.287,11.454 13.132,11.689 13.059 C 11.917 12.987,12.065 12.988,12.311 13.061 M18.420 15.044 C 18.288 15.063,18.027 15.126,17.841 15.183 C 16.768 15.515,15.931 16.222,15.430 17.220 C 14.445 19.181,15.250 21.585,17.220 22.563 C 17.703 22.803,18.041 22.903,18.587 22.966 C 19.571 23.081,20.598 22.791,21.426 22.166 C 22.510 21.348,23.116 19.942,22.968 18.589 C 22.793 16.982,21.720 15.674,20.178 15.188 C 19.622 15.013,18.998 14.961,18.420 15.044 M8.900 16.578 C 9.246 16.721,9.493 17.105,9.493 17.500 C 9.493 18.059,9.059 18.494,8.500 18.494 C 8.105 18.494,7.795 18.300,7.609 17.940 C 7.367 17.469,7.555 16.871,8.020 16.629 C 8.310 16.478,8.614 16.461,8.900 16.578 M20.851 17.335 C 21.018 17.406,21.179 17.580,21.261 17.777 C 21.342 17.971,21.313 18.219,21.187 18.406 C 21.064 18.589,19.019 20.496,18.810 20.624 C 18.621 20.739,18.386 20.761,18.157 20.686 C 18.059 20.653,17.823 20.445,17.392 20.009 C 16.868 19.481,16.760 19.352,16.721 19.205 C 16.569 18.636,17.076 18.128,17.644 18.281 C 17.773 18.316,17.895 18.404,18.121 18.624 C 18.289 18.787,18.440 18.920,18.457 18.920 C 18.473 18.920,18.848 18.584,19.288 18.173 C 19.729 17.763,20.154 17.394,20.233 17.353 C 20.404 17.266,20.672 17.258,20.851 17.335 " fill="#292D32" stroke="none" fill-rule="evenodd"></path></svg>