<svg width="24" height="24" viewBox="0 0 24 24" fill="none" xmlns="http://www.w3.org/2000/svg"><path d="M8.094 1.278 C 7.888 1.327,7.703 1.465,7.598 1.648 L 7.500 1.820 7.500 3.500 L 7.500 5.180 7.595 5.346 C 7.842 5.777,8.357 5.879,8.724 5.571 C 8.996 5.342,8.998 5.323,8.999 3.509 C 9.000 1.755,8.995 1.709,8.788 1.487 C 8.619 1.306,8.336 1.221,8.094 1.278 M15.560 1.287 C 15.354 1.345,15.161 1.508,15.077 1.695 C 15.007 1.848,15.002 1.984,15.002 3.500 C 15.002 5.016,15.007 5.152,15.077 5.305 C 15.312 5.824,16.037 5.883,16.362 5.409 L 16.460 5.266 16.460 3.500 L 16.460 1.734 16.361 1.589 C 16.187 1.336,15.844 1.207,15.560 1.287 M11.167 3.580 C 10.941 3.680,10.805 3.798,10.690 3.993 C 10.582 4.177,10.580 4.192,10.555 5.060 C 10.534 5.823,10.519 5.974,10.442 6.200 C 10.258 6.739,9.954 7.131,9.484 7.435 C 8.805 7.873,7.990 7.910,7.275 7.535 C 6.941 7.359,6.518 6.929,6.329 6.572 C 6.162 6.257,6.040 5.781,6.040 5.444 C 6.039 5.103,5.987 4.922,5.828 4.711 C 5.573 4.372,5.035 4.221,4.652 4.381 C 4.429 4.474,3.978 4.863,3.671 5.227 C 3.179 5.813,2.859 6.426,2.646 7.197 L 2.540 7.580 2.540 12.760 L 2.540 17.940 2.649 18.328 C 3.212 20.325,4.799 21.713,6.799 21.958 C 7.262 22.015,16.738 22.015,17.201 21.958 C 17.726 21.894,18.258 21.737,18.740 21.505 C 20.035 20.880,20.943 19.774,21.351 18.328 L 21.460 17.940 21.471 12.903 C 21.483 7.356,21.492 7.593,21.236 6.823 C 20.934 5.917,20.233 4.955,19.538 4.493 C 19.037 4.160,18.398 4.307,18.095 4.826 C 18.008 4.974,17.985 5.078,17.957 5.462 C 17.901 6.204,17.713 6.645,17.245 7.132 C 16.092 8.331,14.111 7.830,13.559 6.200 C 13.482 5.975,13.467 5.819,13.445 5.057 L 13.420 4.174 13.299 3.978 C 13.224 3.857,13.103 3.736,12.982 3.661 L 12.787 3.540 12.043 3.530 C 11.459 3.523,11.272 3.533,11.167 3.580 M12.520 11.297 C 13.524 11.479,14.126 12.062,14.242 12.963 C 14.313 13.516,14.157 14.001,13.781 14.395 L 13.559 14.628 13.723 14.742 C 14.456 15.250,14.707 16.278,14.300 17.106 C 14.055 17.604,13.579 17.963,12.920 18.146 C 12.718 18.202,12.512 18.218,12.000 18.219 C 11.267 18.220,11.016 18.174,10.569 17.956 C 9.302 17.339,9.125 15.605,10.243 14.770 L 10.436 14.626 10.187 14.362 C 9.671 13.815,9.580 13.067,9.940 12.334 C 10.339 11.521,11.402 11.094,12.520 11.297 M11.627 12.558 C 11.455 12.614,11.258 12.781,11.186 12.934 C 11.106 13.101,11.100 13.436,11.174 13.612 C 11.378 14.101,12.197 14.246,12.627 13.868 C 12.809 13.709,12.880 13.541,12.880 13.271 C 12.880 13.004,12.783 12.817,12.566 12.663 C 12.421 12.560,12.362 12.544,12.071 12.534 C 11.889 12.528,11.689 12.538,11.627 12.558 M11.533 15.226 C 11.325 15.299,11.031 15.554,10.945 15.735 C 10.909 15.810,10.880 15.971,10.880 16.092 C 10.880 16.667,11.552 17.097,12.248 16.968 C 12.853 16.855,13.204 16.400,13.102 15.857 C 13.063 15.650,12.724 15.316,12.463 15.227 C 12.221 15.145,11.763 15.144,11.533 15.226 " fill="#292D32" stroke="none" fill-rule="evenodd"></path></svg>