<svg width="24" height="24" viewBox="0 0 24 24" fill="none" xmlns="http://www.w3.org/2000/svg"><path d="M7.785 1.288 C 7.587 1.342,7.338 1.590,7.283 1.787 C 7.259 1.872,7.240 2.302,7.240 2.748 L 7.240 3.555 7.050 3.581 C 4.778 3.897,3.471 5.121,3.104 7.277 C 3.069 7.484,3.040 7.716,3.040 7.791 C 3.040 7.985,3.150 8.192,3.295 8.272 C 3.412 8.335,3.988 8.340,12.000 8.340 C 20.127 8.340,20.587 8.336,20.709 8.269 C 20.966 8.129,21.005 7.921,20.896 7.277 C 20.779 6.588,20.531 5.917,20.213 5.425 C 19.555 4.407,18.465 3.791,16.953 3.582 L 16.765 3.556 16.753 2.661 L 16.740 1.767 16.620 1.597 C 16.307 1.154,15.693 1.154,15.380 1.597 L 15.260 1.767 15.247 2.643 L 15.234 3.520 12.000 3.520 L 8.766 3.520 8.753 2.643 L 8.740 1.767 8.620 1.597 C 8.427 1.323,8.099 1.202,7.785 1.288 M3.673 9.903 C 3.552 9.940,3.421 10.025,3.303 10.143 C 2.979 10.467,2.994 10.265,3.011 14.328 C 3.028 18.173,3.024 18.081,3.245 18.875 C 3.599 20.147,4.437 21.103,5.617 21.585 C 6.045 21.759,6.685 21.905,7.260 21.959 C 7.853 22.014,16.147 22.014,16.740 21.959 C 19.159 21.731,20.554 20.439,20.926 18.079 C 20.968 17.814,20.980 16.955,20.980 14.160 C 20.980 10.683,20.978 10.575,20.902 10.422 C 20.782 10.182,20.541 9.969,20.308 9.900 C 20.009 9.811,3.962 9.814,3.673 9.903 M8.946 13.113 C 9.529 13.410,9.678 14.172,9.245 14.652 C 9.057 14.861,8.760 14.999,8.500 14.999 C 8.112 14.999,7.677 14.693,7.558 14.335 C 7.374 13.785,7.669 13.222,8.240 13.035 C 8.399 12.983,8.771 13.024,8.946 13.113 M12.322 13.061 C 12.563 13.146,12.740 13.291,12.869 13.511 C 12.964 13.672,12.980 13.744,12.980 14.000 C 12.980 14.256,12.964 14.328,12.869 14.489 C 12.740 14.709,12.563 14.854,12.322 14.939 C 11.872 15.098,11.380 14.912,11.131 14.489 C 11.036 14.328,11.020 14.256,11.020 14.000 C 11.020 13.744,11.036 13.672,11.131 13.511 C 11.380 13.088,11.871 12.902,12.322 13.061 M8.920 16.603 C 9.156 16.710,9.266 16.817,9.391 17.060 C 9.581 17.431,9.494 17.948,9.193 18.228 C 9.040 18.371,8.723 18.491,8.500 18.491 C 8.277 18.491,7.960 18.371,7.807 18.228 C 7.631 18.064,7.507 17.763,7.507 17.500 C 7.507 16.935,7.926 16.522,8.500 16.522 C 8.656 16.522,8.803 16.550,8.920 16.603 " fill="#292D32" stroke="none" fill-rule="evenodd"></path></svg>