<svg width="24" height="24" viewBox="0 0 24 24" fill="none" xmlns="http://www.w3.org/2000/svg"><path d="M11.120 2.039 C 8.336 2.318,5.905 3.624,4.193 5.760 C 1.474 9.155,1.267 13.917,3.682 17.533 C 6.770 22.155,12.946 23.386,17.560 20.299 C 22.155 17.225,23.377 11.041,20.299 6.440 C 18.728 4.092,16.319 2.562,13.493 2.119 C 12.909 2.027,11.660 1.985,11.120 2.039 M10.190 5.902 C 10.528 6.043,10.638 6.261,10.639 6.790 L 10.640 7.160 11.996 7.160 L 13.353 7.160 13.366 6.746 C 13.379 6.368,13.390 6.319,13.494 6.168 C 13.787 5.746,14.394 5.735,14.708 6.146 C 14.815 6.287,14.821 6.318,14.840 6.828 L 14.860 7.363 15.180 7.493 C 15.768 7.730,16.334 8.161,16.703 8.653 C 16.931 8.956,17.200 9.481,17.200 9.623 C 17.200 9.819,17.078 10.006,16.896 10.086 C 16.733 10.158,16.547 10.161,11.946 10.150 C 7.187 10.140,7.165 10.140,7.053 10.057 C 6.991 10.012,6.906 9.906,6.864 9.822 C 6.794 9.680,6.793 9.655,6.848 9.482 C 6.929 9.230,7.191 8.789,7.422 8.520 C 7.810 8.066,8.388 7.657,8.908 7.471 L 9.160 7.381 9.160 6.909 C 9.160 6.270,9.245 6.069,9.580 5.915 C 9.776 5.825,9.995 5.820,10.190 5.902 M17.346 11.298 L 17.485 11.437 17.470 13.188 C 17.453 15.185,17.442 15.269,17.099 15.992 C 16.600 17.047,15.794 17.716,14.640 18.035 L 14.260 18.140 12.000 18.140 L 9.740 18.140 9.360 18.035 C 8.666 17.843,8.197 17.584,7.706 17.121 C 7.358 16.793,7.126 16.468,6.901 15.992 C 6.558 15.269,6.547 15.185,6.530 13.188 L 6.515 11.437 6.654 11.298 L 6.792 11.160 12.000 11.160 L 17.208 11.160 17.346 11.298 " fill="#292D32" stroke="none" fill-rule="evenodd"></path></svg>