<svg width="24" height="24" viewBox="0 0 24 24" fill="none" xmlns="http://www.w3.org/2000/svg"><path d="M7.785 1.288 C 7.587 1.342,7.338 1.590,7.283 1.787 C 7.259 1.872,7.240 2.302,7.240 2.748 L 7.240 3.555 7.050 3.581 C 4.778 3.897,3.471 5.121,3.104 7.277 C 3.069 7.484,3.040 7.716,3.040 7.791 C 3.040 7.985,3.150 8.192,3.295 8.272 C 3.412 8.335,3.988 8.340,12.000 8.340 C 20.127 8.340,20.587 8.336,20.709 8.269 C 20.966 8.129,21.005 7.921,20.896 7.277 C 20.779 6.588,20.531 5.917,20.213 5.425 C 19.555 4.407,18.465 3.791,16.953 3.582 L 16.765 3.556 16.753 2.661 L 16.740 1.767 16.620 1.597 C 16.307 1.154,15.693 1.154,15.380 1.597 L 15.260 1.767 15.247 2.643 L 15.234 3.520 12.000 3.520 L 8.766 3.520 8.753 2.643 L 8.740 1.767 8.620 1.597 C 8.427 1.323,8.099 1.202,7.785 1.288 M3.673 9.903 C 3.552 9.940,3.421 10.026,3.303 10.143 C 2.979 10.467,2.994 10.265,3.011 14.328 C 3.028 18.173,3.024 18.081,3.245 18.875 C 3.676 20.422,4.781 21.458,6.390 21.821 C 7.112 21.985,7.623 22.006,10.520 21.992 C 12.980 21.981,13.231 21.974,13.345 21.911 C 13.701 21.717,13.919 21.382,13.920 21.030 C 13.920 20.925,13.858 20.635,13.782 20.385 C 13.548 19.612,13.506 19.334,13.533 18.722 C 13.545 18.424,13.585 18.045,13.621 17.880 C 14.078 15.777,15.691 14.133,17.780 13.638 C 18.323 13.510,18.906 13.474,19.586 13.527 C 20.283 13.581,20.435 13.550,20.695 13.297 C 20.978 13.022,20.979 13.021,20.992 11.807 C 21.003 10.884,20.995 10.685,20.940 10.520 C 20.865 10.295,20.647 10.052,20.418 9.938 C 20.263 9.861,20.119 9.860,12.060 9.853 C 5.007 9.846,3.834 9.853,3.673 9.903 M12.400 12.587 C 12.729 12.722,12.999 13.134,12.999 13.500 C 12.999 13.760,12.861 14.057,12.652 14.245 C 12.155 14.693,11.384 14.522,11.094 13.900 C 10.913 13.511,11.014 13.057,11.348 12.755 C 11.493 12.624,11.619 12.563,11.860 12.506 C 11.973 12.480,12.235 12.519,12.400 12.587 M8.894 12.580 C 9.115 12.672,9.301 12.859,9.403 13.090 C 9.699 13.763,9.230 14.494,8.500 14.494 C 8.105 14.494,7.794 14.300,7.610 13.940 C 7.430 13.588,7.499 13.102,7.772 12.805 C 8.004 12.553,8.561 12.441,8.894 12.580 M18.420 15.044 C 17.618 15.159,16.768 15.588,16.178 16.178 C 14.253 18.103,14.781 21.344,17.220 22.570 C 18.744 23.336,20.612 23.032,21.822 21.822 C 23.377 20.267,23.377 17.733,21.822 16.178 C 20.936 15.292,19.660 14.867,18.420 15.044 M8.809 16.048 C 9.034 16.115,9.339 16.402,9.425 16.627 C 9.508 16.845,9.515 17.119,9.442 17.335 C 9.323 17.693,8.888 17.999,8.500 17.999 C 8.112 17.999,7.677 17.693,7.558 17.335 C 7.298 16.557,8.022 15.812,8.809 16.048 M18.231 17.302 C 18.313 17.336,18.524 17.507,18.701 17.682 L 19.022 18.000 19.301 17.716 C 19.718 17.290,19.991 17.196,20.342 17.355 C 20.539 17.445,20.703 17.632,20.758 17.831 C 20.851 18.164,20.782 18.337,20.399 18.737 L 20.083 19.065 20.344 19.323 C 20.692 19.665,20.808 19.865,20.806 20.118 C 20.805 20.226,20.777 20.367,20.744 20.432 C 20.664 20.587,20.424 20.793,20.289 20.823 C 20.229 20.836,20.158 20.853,20.132 20.861 C 20.105 20.870,19.990 20.852,19.877 20.823 C 19.703 20.778,19.619 20.718,19.336 20.436 L 19.000 20.102 18.650 20.449 C 18.457 20.640,18.249 20.815,18.187 20.838 C 17.815 20.977,17.335 20.741,17.220 20.363 C 17.172 20.206,17.192 19.931,17.261 19.798 C 17.297 19.729,17.462 19.530,17.629 19.356 L 17.932 19.038 17.611 18.708 C 17.248 18.337,17.171 18.171,17.218 17.860 C 17.239 17.718,17.286 17.628,17.408 17.496 C 17.638 17.247,17.932 17.177,18.231 17.302 " fill="#292D32" stroke="none" fill-rule="evenodd"></path></svg>