<svg width="24" height="24" viewBox="0 0 24 24" fill="none" xmlns="http://www.w3.org/2000/svg"><path d="M7.785 1.288 C 7.587 1.342,7.338 1.590,7.283 1.787 C 7.259 1.872,7.240 2.302,7.240 2.748 L 7.240 3.555 7.050 3.581 C 4.778 3.897,3.471 5.121,3.104 7.277 C 3.069 7.484,3.040 7.716,3.040 7.791 C 3.040 7.985,3.150 8.192,3.295 8.272 C 3.412 8.335,3.988 8.340,12.000 8.340 C 20.127 8.340,20.587 8.336,20.709 8.269 C 20.966 8.129,21.005 7.921,20.896 7.277 C 20.779 6.588,20.531 5.917,20.213 5.425 C 19.555 4.407,18.465 3.791,16.953 3.582 L 16.765 3.556 16.753 2.661 L 16.740 1.767 16.620 1.597 C 16.307 1.154,15.693 1.154,15.380 1.597 L 15.260 1.767 15.247 2.643 L 15.234 3.520 12.000 3.520 L 8.766 3.520 8.753 2.643 L 8.740 1.767 8.620 1.597 C 8.427 1.323,8.099 1.202,7.785 1.288 M3.673 9.903 C 3.552 9.940,3.421 10.026,3.303 10.143 C 2.979 10.467,2.994 10.265,3.011 14.328 C 3.028 18.173,3.024 18.081,3.245 18.875 C 3.676 20.422,4.781 21.458,6.390 21.821 C 7.112 21.985,7.623 22.006,10.520 21.992 C 12.980 21.981,13.231 21.974,13.345 21.911 C 13.701 21.717,13.919 21.382,13.920 21.030 C 13.920 20.925,13.858 20.635,13.782 20.385 C 13.548 19.612,13.506 19.334,13.533 18.722 C 13.545 18.424,13.585 18.045,13.621 17.880 C 14.078 15.777,15.691 14.133,17.780 13.638 C 18.323 13.510,18.906 13.474,19.586 13.527 C 20.283 13.581,20.435 13.550,20.695 13.297 C 20.978 13.022,20.979 13.021,20.992 11.807 C 21.003 10.884,20.995 10.685,20.940 10.520 C 20.865 10.295,20.647 10.052,20.418 9.938 C 20.263 9.861,20.119 9.860,12.060 9.853 C 5.007 9.846,3.834 9.853,3.673 9.903 M8.920 12.603 C 9.156 12.710,9.266 12.817,9.389 13.059 C 9.579 13.433,9.493 13.949,9.193 14.228 C 9.040 14.371,8.723 14.491,8.500 14.491 C 8.277 14.491,7.960 14.371,7.807 14.228 C 7.631 14.064,7.507 13.763,7.507 13.500 C 7.507 12.935,7.926 12.522,8.500 12.522 C 8.656 12.522,8.803 12.550,8.920 12.603 M12.333 12.563 C 12.679 12.659,12.999 13.110,12.999 13.500 C 12.999 13.888,12.693 14.323,12.335 14.442 C 11.988 14.558,11.613 14.484,11.348 14.245 C 11.139 14.057,11.001 13.760,11.001 13.500 C 11.001 13.135,11.267 12.728,11.600 12.584 C 11.764 12.513,12.116 12.503,12.333 12.563 M18.520 15.025 C 17.947 15.099,17.311 15.336,16.809 15.664 C 15.966 16.213,15.381 17.043,15.115 18.068 C 14.984 18.572,14.984 19.428,15.115 19.932 C 15.243 20.427,15.400 20.787,15.664 21.191 C 16.213 22.034,17.043 22.619,18.068 22.885 C 18.356 22.960,18.525 22.977,19.000 22.977 C 19.475 22.977,19.644 22.960,19.932 22.885 C 20.427 22.757,20.787 22.600,21.191 22.336 C 22.034 21.787,22.619 20.957,22.885 19.932 C 23.016 19.428,23.016 18.572,22.885 18.068 C 22.619 17.043,22.034 16.213,21.191 15.664 C 20.544 15.242,19.915 15.045,19.140 15.022 C 18.876 15.014,18.597 15.015,18.520 15.025 M8.946 16.113 C 9.529 16.410,9.678 17.172,9.245 17.652 C 9.057 17.861,8.760 17.999,8.500 17.999 C 8.112 17.999,7.677 17.693,7.558 17.335 C 7.374 16.785,7.669 16.222,8.240 16.035 C 8.399 15.983,8.771 16.024,8.946 16.113 M19.260 16.859 C 19.440 16.900,19.639 17.070,19.723 17.255 C 19.781 17.383,19.798 17.517,19.799 17.850 L 19.800 18.280 20.247 18.280 C 20.622 18.280,20.723 18.294,20.870 18.365 C 21.290 18.568,21.415 19.158,21.112 19.503 C 20.910 19.733,20.794 19.773,20.270 19.792 L 19.800 19.810 19.799 20.255 C 19.798 20.760,19.739 20.950,19.527 21.128 C 19.161 21.436,18.655 21.345,18.412 20.929 C 18.315 20.764,18.302 20.697,18.287 20.273 L 18.270 19.800 17.937 19.800 C 17.309 19.800,17.028 19.679,16.875 19.342 C 16.735 19.034,16.797 18.728,17.045 18.492 C 17.238 18.310,17.351 18.280,17.838 18.280 L 18.270 18.280 18.287 17.829 C 18.302 17.447,18.319 17.353,18.401 17.207 C 18.503 17.025,18.688 16.887,18.894 16.839 C 19.021 16.809,19.039 16.810,19.260 16.859 " fill="#292D32" stroke="none" fill-rule="evenodd"></path></svg>