<svg width="24" height="24" viewBox="0 0 24 24" fill="none" xmlns="http://www.w3.org/2000/svg"><path d="M7.785 1.288 C 7.587 1.342,7.338 1.590,7.283 1.787 C 7.259 1.872,7.240 2.302,7.240 2.748 L 7.240 3.555 7.050 3.581 C 4.778 3.897,3.471 5.121,3.104 7.277 C 3.069 7.484,3.040 7.716,3.040 7.791 C 3.040 7.985,3.150 8.192,3.295 8.272 C 3.412 8.335,3.988 8.340,12.000 8.340 C 20.127 8.340,20.587 8.336,20.709 8.269 C 20.966 8.129,21.005 7.921,20.896 7.277 C 20.779 6.588,20.531 5.917,20.213 5.425 C 19.555 4.407,18.465 3.791,16.953 3.582 L 16.765 3.556 16.753 2.661 L 16.740 1.767 16.620 1.597 C 16.307 1.154,15.693 1.154,15.380 1.597 L 15.260 1.767 15.247 2.643 L 15.234 3.520 12.000 3.520 L 8.766 3.520 8.753 2.643 L 8.740 1.767 8.620 1.597 C 8.427 1.323,8.099 1.202,7.785 1.288 M3.673 9.903 C 3.552 9.940,3.421 10.025,3.303 10.143 C 2.979 10.467,2.994 10.265,3.011 14.328 C 3.028 18.173,3.024 18.081,3.245 18.875 C 3.599 20.147,4.437 21.103,5.617 21.585 C 6.045 21.759,6.685 21.905,7.260 21.959 C 7.853 22.014,16.147 22.014,16.740 21.959 C 19.159 21.731,20.554 20.439,20.926 18.079 C 20.968 17.814,20.980 16.955,20.980 14.160 C 20.980 10.683,20.978 10.575,20.902 10.422 C 20.782 10.182,20.541 9.969,20.308 9.900 C 20.009 9.811,3.962 9.814,3.673 9.903 M8.900 13.094 C 9.010 13.145,9.165 13.260,9.245 13.348 C 9.693 13.845,9.522 14.616,8.900 14.906 C 8.636 15.029,8.362 15.029,8.100 14.905 C 7.721 14.725,7.509 14.401,7.508 14.000 C 7.505 13.280,8.254 12.793,8.900 13.094 M12.485 13.125 C 12.829 13.315,13.029 13.708,12.987 14.112 C 12.896 14.999,11.722 15.314,11.198 14.591 C 10.901 14.180,10.958 13.596,11.331 13.248 C 11.604 12.993,12.142 12.935,12.485 13.125 M15.900 13.094 C 16.010 13.145,16.165 13.260,16.245 13.348 C 16.693 13.845,16.522 14.616,15.900 14.906 C 15.511 15.087,15.057 14.986,14.755 14.652 C 14.419 14.278,14.419 13.722,14.755 13.348 C 14.943 13.139,15.240 13.001,15.500 13.001 C 15.626 13.001,15.774 13.035,15.900 13.094 M8.939 16.608 C 9.164 16.721,9.272 16.829,9.391 17.060 C 9.721 17.703,9.248 18.484,8.523 18.491 C 8.279 18.493,7.969 18.379,7.807 18.228 C 7.755 18.180,7.666 18.050,7.609 17.940 C 7.367 17.469,7.555 16.870,8.020 16.630 C 8.343 16.463,8.635 16.456,8.939 16.608 M12.333 16.563 C 12.679 16.659,12.999 17.110,12.999 17.500 C 12.999 17.760,12.861 18.057,12.652 18.245 C 12.155 18.693,11.384 18.522,11.094 17.900 C 10.917 17.521,11.011 17.070,11.330 16.767 C 11.568 16.541,11.963 16.460,12.333 16.563 M15.920 16.603 C 16.156 16.710,16.266 16.817,16.391 17.060 C 16.726 17.713,16.241 18.494,15.500 18.494 C 15.247 18.494,14.993 18.395,14.806 18.225 C 14.632 18.067,14.507 17.763,14.507 17.500 C 14.507 16.935,14.926 16.522,15.500 16.522 C 15.656 16.522,15.803 16.550,15.920 16.603 " fill="#292D32" stroke="none" fill-rule="evenodd"></path></svg>