<svg width="24" height="24" viewBox="0 0 24 24" fill="none" xmlns="http://www.w3.org/2000/svg"><path d="M5.240 2.026 C 4.570 2.130,3.964 2.478,3.357 3.106 C 2.155 4.353,1.755 5.990,2.162 8.004 C 2.335 8.864,2.589 9.580,3.059 10.540 C 3.994 12.446,5.429 14.403,7.274 16.289 C 7.919 16.948,8.117 17.080,8.458 17.080 C 8.892 17.079,8.891 17.080,10.075 15.906 C 10.786 15.200,11.195 14.764,11.244 14.660 C 11.335 14.463,11.344 14.055,11.261 13.856 C 11.229 13.779,10.916 13.415,10.566 13.048 C 9.486 11.914,8.919 11.246,8.539 10.660 C 8.308 10.303,8.240 10.136,8.240 9.924 C 8.240 9.723,8.316 9.618,8.931 8.971 C 9.228 8.658,9.540 8.298,9.624 8.171 C 10.002 7.605,10.012 7.103,9.661 6.457 C 9.467 6.100,7.073 2.733,6.855 2.509 C 6.483 2.129,5.834 1.935,5.240 2.026 M16.011 2.278 C 15.839 2.320,15.617 2.493,15.530 2.652 C 15.466 2.769,15.459 2.989,15.449 5.311 C 15.441 7.093,15.451 7.892,15.483 8.010 C 15.540 8.222,15.772 8.457,15.981 8.515 C 16.217 8.581,20.994 8.577,21.214 8.511 C 21.437 8.444,21.653 8.219,21.718 7.987 C 21.825 7.605,21.578 7.184,21.189 7.086 C 21.061 7.054,20.383 7.040,18.982 7.040 L 16.960 7.040 16.960 4.986 C 16.960 2.829,16.956 2.778,16.777 2.536 C 16.622 2.327,16.279 2.211,16.011 2.278 M16.255 14.111 C 15.877 14.246,15.589 14.456,15.002 15.023 C 14.682 15.332,14.375 15.616,14.321 15.653 C 14.084 15.814,13.702 15.707,13.140 15.324 C 13.008 15.234,12.882 15.160,12.860 15.160 C 12.838 15.160,12.094 15.886,11.206 16.773 L 9.593 18.387 9.787 18.548 C 10.144 18.844,11.056 19.507,11.580 19.850 C 14.807 21.965,17.618 22.526,19.700 21.469 C 20.973 20.823,21.960 19.473,21.960 18.376 C 21.960 17.859,21.822 17.473,21.524 17.157 C 21.332 16.954,18.004 14.575,17.580 14.338 C 17.074 14.056,16.625 13.978,16.255 14.111 " fill="#292D32" stroke="none" fill-rule="evenodd"></path></svg>