<svg width="24" height="24" viewBox="0 0 24 24" fill="none" xmlns="http://www.w3.org/2000/svg"><path d="M5.043 2.062 C 4.472 2.186,3.904 2.539,3.350 3.114 C 2.387 4.114,1.946 5.342,2.013 6.837 C 2.067 8.053,2.377 9.150,3.058 10.540 C 3.632 11.709,4.284 12.742,5.172 13.884 C 6.187 15.190,7.703 16.819,8.060 16.986 C 8.312 17.104,8.669 17.111,8.900 17.004 C 9.004 16.955,9.443 16.543,10.146 15.834 C 11.167 14.807,11.237 14.727,11.296 14.523 C 11.375 14.254,11.375 14.225,11.297 13.963 C 11.242 13.778,11.157 13.670,10.602 13.086 C 9.734 12.172,9.209 11.576,8.838 11.084 C 8.307 10.379,8.162 10.018,8.291 9.719 C 8.324 9.642,8.604 9.316,8.912 8.992 C 9.221 8.669,9.532 8.319,9.605 8.213 C 10.007 7.628,10.019 7.108,9.647 6.419 C 9.465 6.084,7.039 2.681,6.847 2.492 C 6.428 2.079,5.730 1.913,5.043 2.062 M16.255 14.111 C 15.877 14.246,15.589 14.456,15.002 15.023 C 14.682 15.332,14.375 15.616,14.321 15.653 C 14.084 15.814,13.702 15.707,13.140 15.324 C 13.008 15.234,12.882 15.160,12.860 15.160 C 12.838 15.160,12.094 15.886,11.206 16.773 L 9.593 18.387 9.787 18.548 C 10.144 18.844,11.056 19.507,11.580 19.850 C 14.807 21.965,17.618 22.526,19.700 21.469 C 20.973 20.823,21.960 19.473,21.960 18.376 C 21.960 17.859,21.822 17.473,21.524 17.157 C 21.332 16.954,18.004 14.575,17.580 14.338 C 17.074 14.056,16.625 13.978,16.255 14.111 " fill="#292D32" stroke="none" fill-rule="evenodd"></path></svg>