<svg width="24" height="24" viewBox="0 0 24 24" fill="none" xmlns="http://www.w3.org/2000/svg"><path d="M5.240 2.026 C 4.570 2.130,3.964 2.478,3.357 3.106 C 2.155 4.353,1.755 5.990,2.162 8.004 C 2.335 8.864,2.589 9.580,3.059 10.540 C 3.994 12.446,5.429 14.403,7.274 16.289 C 7.919 16.948,8.117 17.080,8.458 17.080 C 8.892 17.079,8.891 17.080,10.075 15.906 C 10.786 15.200,11.195 14.764,11.244 14.660 C 11.335 14.463,11.344 14.055,11.261 13.856 C 11.229 13.779,10.916 13.415,10.566 13.048 C 9.486 11.914,8.919 11.246,8.539 10.660 C 8.308 10.303,8.240 10.136,8.240 9.924 C 8.240 9.723,8.316 9.618,8.931 8.971 C 9.228 8.658,9.540 8.298,9.624 8.171 C 10.002 7.605,10.012 7.103,9.661 6.457 C 9.467 6.100,7.073 2.733,6.855 2.509 C 6.483 2.129,5.834 1.935,5.240 2.026 M13.795 2.039 C 13.499 2.128,13.280 2.440,13.280 2.770 C 13.280 3.000,13.334 3.147,13.473 3.294 C 13.662 3.494,13.782 3.531,14.363 3.564 C 15.009 3.602,15.563 3.708,16.126 3.904 C 17.699 4.450,18.998 5.584,19.753 7.070 C 20.175 7.902,20.367 8.601,20.442 9.580 C 20.494 10.261,20.522 10.356,20.720 10.535 C 21.035 10.820,21.468 10.812,21.763 10.517 C 21.992 10.288,22.020 10.136,21.966 9.420 C 21.841 7.762,21.239 6.233,20.211 4.960 C 19.925 4.606,19.239 3.933,18.900 3.674 C 17.945 2.945,16.790 2.414,15.647 2.179 C 14.915 2.028,14.047 1.962,13.795 2.039 M13.768 5.643 C 13.501 5.725,13.240 6.097,13.240 6.396 C 13.240 6.615,13.460 6.945,13.684 7.062 C 13.742 7.092,13.940 7.135,14.124 7.157 C 14.917 7.255,15.744 7.881,16.394 8.876 C 16.641 9.254,16.837 9.712,16.839 9.915 C 16.844 10.458,17.312 10.854,17.795 10.724 C 18.039 10.659,18.214 10.520,18.316 10.308 C 18.421 10.091,18.423 9.839,18.322 9.420 C 17.944 7.846,16.335 6.135,14.848 5.724 C 14.498 5.628,13.951 5.587,13.768 5.643 M16.255 14.111 C 15.877 14.246,15.589 14.456,15.002 15.023 C 14.682 15.332,14.375 15.616,14.321 15.653 C 14.084 15.814,13.702 15.707,13.140 15.324 C 13.008 15.234,12.882 15.160,12.860 15.160 C 12.838 15.160,12.094 15.886,11.206 16.773 L 9.593 18.387 9.787 18.548 C 10.144 18.844,11.056 19.507,11.580 19.850 C 14.807 21.965,17.618 22.526,19.700 21.469 C 20.973 20.823,21.960 19.473,21.960 18.376 C 21.960 17.859,21.822 17.473,21.524 17.157 C 21.332 16.954,18.004 14.575,17.580 14.338 C 17.074 14.056,16.625 13.978,16.255 14.111 " fill="#292D32" stroke="none" fill-rule="evenodd"></path></svg>