<svg width="24" height="24" viewBox="0 0 24 24" fill="none" xmlns="http://www.w3.org/2000/svg"><path d="M5.240 2.026 C 4.570 2.130,3.964 2.478,3.357 3.106 C 2.155 4.353,1.755 5.990,2.162 8.004 C 2.335 8.864,2.589 9.580,3.059 10.540 C 3.994 12.446,5.429 14.403,7.274 16.289 C 7.919 16.948,8.117 17.080,8.458 17.080 C 8.892 17.079,8.891 17.080,10.075 15.906 C 10.786 15.200,11.195 14.764,11.244 14.660 C 11.335 14.463,11.344 14.055,11.261 13.856 C 11.229 13.779,10.916 13.415,10.566 13.048 C 9.486 11.914,8.919 11.246,8.539 10.660 C 8.308 10.303,8.240 10.136,8.240 9.924 C 8.240 9.723,8.316 9.618,8.931 8.971 C 9.228 8.658,9.540 8.298,9.624 8.171 C 10.002 7.605,10.012 7.103,9.661 6.457 C 9.467 6.100,7.073 2.733,6.855 2.509 C 6.483 2.129,5.834 1.935,5.240 2.026 M15.980 3.540 C 15.753 3.619,15.531 3.880,15.497 4.107 C 15.444 4.460,15.503 4.555,16.252 5.310 L 16.937 6.000 16.254 6.690 C 15.511 7.440,15.449 7.536,15.496 7.873 C 15.541 8.207,15.808 8.473,16.135 8.510 C 16.467 8.547,16.567 8.482,17.310 7.746 L 18.000 7.063 18.690 7.746 C 19.433 8.482,19.533 8.547,19.865 8.510 C 20.192 8.473,20.459 8.207,20.504 7.873 C 20.551 7.536,20.490 7.440,19.746 6.689 L 19.062 5.999 19.729 5.329 C 20.408 4.649,20.521 4.492,20.519 4.231 C 20.517 3.854,20.139 3.480,19.760 3.480 C 19.505 3.480,19.374 3.575,18.690 4.252 L 18.000 4.935 17.310 4.252 C 16.759 3.707,16.588 3.560,16.460 3.525 C 16.256 3.468,16.177 3.471,15.980 3.540 M16.255 14.111 C 15.877 14.246,15.589 14.456,15.002 15.023 C 14.682 15.332,14.375 15.616,14.321 15.653 C 14.084 15.814,13.702 15.707,13.140 15.324 C 13.008 15.234,12.882 15.160,12.860 15.160 C 12.838 15.160,12.094 15.886,11.206 16.773 L 9.593 18.387 9.787 18.548 C 10.144 18.844,11.056 19.507,11.580 19.850 C 14.807 21.965,17.618 22.526,19.700 21.469 C 20.973 20.823,21.960 19.473,21.960 18.376 C 21.960 17.859,21.822 17.473,21.524 17.157 C 21.332 16.954,18.004 14.575,17.580 14.338 C 17.074 14.056,16.625 13.978,16.255 14.111 " fill="#292D32" stroke="none" fill-rule="evenodd"></path></svg>