<svg width="24" height="24" viewBox="0 0 24 24" fill="none" xmlns="http://www.w3.org/2000/svg"><path d="M5.066 2.062 C 4.512 2.172,3.909 2.536,3.395 3.070 C 2.673 3.819,2.294 4.543,2.092 5.553 C 1.996 6.034,1.998 7.069,2.095 7.655 C 2.480 9.983,4.048 12.748,6.533 15.480 L 6.951 15.940 4.560 18.340 C 3.245 19.660,2.136 20.803,2.096 20.880 C 1.991 21.083,2.002 21.429,2.119 21.618 C 2.299 21.910,2.675 22.058,2.986 21.960 C 3.113 21.920,4.808 20.245,12.494 12.566 C 19.026 6.039,21.871 3.172,21.923 3.060 C 21.964 2.972,21.999 2.836,21.999 2.758 C 22.000 2.550,21.847 2.280,21.648 2.141 C 21.504 2.042,21.436 2.022,21.248 2.023 C 21.110 2.024,20.965 2.052,20.880 2.096 C 20.803 2.136,18.372 4.534,15.477 7.427 L 10.214 12.685 9.677 12.078 C 8.815 11.104,8.391 10.514,8.279 10.134 C 8.184 9.814,8.226 9.738,8.912 9.004 C 9.783 8.071,9.942 7.789,9.911 7.229 C 9.883 6.745,9.705 6.438,8.306 4.470 C 7.637 3.530,7.027 2.684,6.950 2.590 C 6.561 2.119,5.822 1.912,5.066 2.062 M16.295 14.094 C 15.901 14.224,15.324 14.672,14.640 15.379 C 14.519 15.504,14.371 15.632,14.312 15.663 C 14.169 15.738,13.926 15.735,13.735 15.656 C 13.523 15.568,13.005 15.225,12.625 14.922 L 12.310 14.671 10.695 16.285 C 9.807 17.173,9.080 17.913,9.080 17.929 C 9.080 17.975,9.787 18.553,10.460 19.060 C 12.163 20.340,13.882 21.253,15.428 21.696 C 16.984 22.142,18.432 22.089,19.584 21.543 C 20.091 21.303,20.399 21.086,20.830 20.666 C 21.547 19.967,21.933 19.244,21.987 18.500 C 22.028 17.933,21.840 17.388,21.501 17.089 C 21.282 16.897,18.064 14.618,17.717 14.409 C 17.576 14.325,17.363 14.214,17.244 14.164 C 16.977 14.051,16.527 14.018,16.295 14.094 " fill="#292D32" stroke="none" fill-rule="evenodd"></path></svg>