<svg width="24" height="24" viewBox="0 0 24 24" fill="none" xmlns="http://www.w3.org/2000/svg"><path d="M10.355 2.063 C 9.601 2.226,8.808 2.737,8.383 3.335 C 8.287 3.470,8.017 3.964,7.782 4.434 C 7.288 5.424,7.149 5.602,6.697 5.825 C 6.437 5.954,6.360 5.972,5.934 6.003 C 4.836 6.084,4.104 6.388,3.411 7.053 C 2.730 7.707,2.343 8.516,2.260 9.460 C 2.227 9.832,2.777 18.509,2.862 18.956 C 2.896 19.136,2.960 19.402,3.005 19.547 L 3.086 19.810 2.625 20.277 C 2.019 20.890,1.906 21.138,2.062 21.511 C 2.144 21.708,2.266 21.835,2.460 21.924 C 2.664 22.019,2.858 22.018,3.060 21.923 C 3.172 21.871,6.045 19.022,12.587 12.474 L 21.955 3.100 21.982 2.906 C 22.021 2.637,21.946 2.413,21.756 2.232 C 21.504 1.992,21.121 1.940,20.847 2.107 C 20.788 2.144,19.929 2.982,18.937 3.970 L 17.133 5.766 16.906 5.559 C 16.702 5.372,16.635 5.264,16.235 4.466 C 15.990 3.979,15.712 3.470,15.617 3.335 C 15.187 2.728,14.395 2.221,13.632 2.064 C 13.210 1.977,10.759 1.977,10.355 2.063 M19.840 7.243 C 19.703 7.305,19.111 7.871,17.347 9.632 C 16.059 10.917,14.987 12.020,14.927 12.120 C 14.838 12.270,14.820 12.346,14.821 12.580 C 14.822 12.824,14.843 12.903,14.986 13.200 C 15.297 13.847,15.380 14.241,15.350 14.933 C 15.332 15.340,15.307 15.485,15.199 15.812 C 14.907 16.691,14.333 17.351,13.500 17.764 C 12.522 18.250,11.439 18.238,10.422 17.730 C 10.071 17.554,9.763 17.518,9.490 17.620 C 9.331 17.679,9.087 17.903,7.974 19.010 C 6.504 20.473,6.426 20.571,6.424 20.979 C 6.422 21.380,6.616 21.699,6.979 21.894 L 7.140 21.980 12.260 21.992 C 15.721 22.000,17.519 21.990,17.808 21.961 C 18.498 21.891,19.062 21.721,19.551 21.434 C 19.874 21.245,20.433 20.678,20.636 20.334 C 20.844 19.981,21.062 19.382,21.139 18.947 C 21.223 18.482,21.771 9.813,21.739 9.460 C 21.681 8.808,21.467 8.191,21.126 7.689 C 20.947 7.425,20.812 7.303,20.605 7.216 C 20.409 7.134,20.053 7.147,19.840 7.243 M9.780 9.316 C 10.075 9.453,10.240 9.697,10.240 10.000 C 10.240 10.303,10.075 10.547,9.780 10.684 C 9.633 10.752,9.493 10.758,8.000 10.758 C 6.507 10.758,6.367 10.752,6.220 10.684 C 5.925 10.547,5.760 10.303,5.760 10.000 C 5.760 9.697,5.925 9.453,6.220 9.316 C 6.367 9.248,6.507 9.242,8.000 9.242 C 9.493 9.242,9.633 9.248,9.780 9.316 " fill="#292D32" stroke="none" fill-rule="evenodd"></path></svg>