<svg width="24" height="24" viewBox="0 0 24 24" fill="none" xmlns="http://www.w3.org/2000/svg"><path d="M10.340 2.066 C 9.721 2.198,9.037 2.595,8.583 3.085 C 8.352 3.335,8.257 3.493,7.821 4.359 C 7.261 5.468,7.142 5.620,6.662 5.845 C 6.447 5.946,6.329 5.971,5.920 6.002 C 4.834 6.084,4.088 6.397,3.406 7.056 C 2.704 7.733,2.308 8.582,2.256 9.520 C 2.223 10.097,2.775 18.586,2.875 19.060 C 3.229 20.733,4.325 21.737,6.040 21.959 C 6.222 21.982,8.576 21.998,12.000 21.998 C 15.424 21.998,17.778 21.982,17.960 21.959 C 19.317 21.783,20.307 21.098,20.825 19.977 C 21.000 19.599,21.145 19.052,21.200 18.566 C 21.293 17.747,21.767 9.859,21.745 9.500 C 21.647 7.900,20.462 6.489,18.905 6.119 C 18.719 6.075,18.348 6.022,18.080 6.002 C 17.671 5.971,17.553 5.946,17.338 5.845 C 16.858 5.620,16.739 5.468,16.179 4.359 C 15.743 3.493,15.648 3.335,15.417 3.085 C 14.950 2.581,14.243 2.178,13.615 2.058 C 13.181 1.975,10.739 1.981,10.340 2.066 M13.836 7.340 C 13.910 7.384,14.027 7.489,14.096 7.574 C 14.208 7.712,14.220 7.755,14.220 8.000 C 14.220 8.244,14.207 8.289,14.098 8.426 C 14.030 8.511,13.896 8.620,13.799 8.670 C 13.625 8.759,13.604 8.760,12.000 8.760 C 10.396 8.760,10.375 8.759,10.201 8.670 C 10.104 8.620,9.970 8.511,9.902 8.426 C 9.793 8.289,9.780 8.243,9.780 8.003 C 9.780 7.769,9.795 7.714,9.893 7.586 C 10.026 7.412,10.154 7.321,10.331 7.278 C 10.402 7.260,11.189 7.249,12.080 7.253 C 13.621 7.260,13.707 7.264,13.836 7.340 M12.932 11.499 C 14.055 11.825,14.885 12.650,15.246 13.802 C 15.328 14.062,15.340 14.181,15.340 14.740 C 15.340 15.300,15.328 15.417,15.246 15.679 C 15.053 16.293,14.757 16.764,14.289 17.202 C 13.830 17.632,13.423 17.857,12.795 18.029 C 12.440 18.126,11.560 18.126,11.205 18.029 C 10.577 17.857,10.170 17.632,9.711 17.202 C 9.243 16.764,8.947 16.293,8.754 15.679 C 8.672 15.417,8.660 15.300,8.660 14.740 C 8.660 14.181,8.672 14.062,8.754 13.802 C 9.159 12.510,10.190 11.606,11.493 11.398 C 11.864 11.338,12.544 11.386,12.932 11.499 " fill="#292D32" stroke="none" fill-rule="evenodd"></path></svg>