<svg width="24" height="24" viewBox="0 0 24 24" fill="none" xmlns="http://www.w3.org/2000/svg"><path d="M10.340 3.576 C 9.635 3.750,9.186 4.234,9.057 4.958 C 9.027 5.124,9.002 5.372,9.001 5.509 L 9.000 5.759 5.364 5.769 L 1.727 5.780 1.574 5.904 C 1.353 6.083,1.269 6.248,1.269 6.500 C 1.269 6.752,1.353 6.917,1.574 7.096 L 1.727 7.220 5.364 7.231 L 9.000 7.241 9.001 7.491 C 9.003 7.860,9.096 8.316,9.219 8.557 C 9.448 9.009,9.873 9.328,10.392 9.436 C 10.688 9.498,17.312 9.498,17.608 9.436 C 18.127 9.328,18.552 9.009,18.781 8.557 C 18.904 8.316,18.997 7.860,18.999 7.491 L 19.000 7.243 20.636 7.231 L 22.273 7.220 22.426 7.096 C 22.647 6.917,22.731 6.752,22.731 6.500 C 22.731 6.248,22.647 6.083,22.426 5.904 L 22.273 5.780 20.636 5.769 L 19.000 5.757 18.999 5.509 C 18.997 5.140,18.904 4.684,18.781 4.443 C 18.552 3.991,18.127 3.672,17.608 3.564 C 17.292 3.498,10.611 3.509,10.340 3.576 M6.280 14.593 C 5.944 14.680,5.704 14.824,5.467 15.076 C 5.164 15.400,5.002 15.884,5.001 16.469 L 5.000 16.757 3.367 16.769 L 1.734 16.780 1.583 16.895 C 1.194 17.192,1.140 17.633,1.451 17.987 C 1.674 18.240,1.670 18.240,3.419 18.240 L 5.000 18.240 5.001 18.530 C 5.002 19.154,5.188 19.663,5.533 19.990 C 5.780 20.223,5.964 20.325,6.322 20.427 C 6.563 20.495,6.809 20.500,10.000 20.500 C 13.191 20.500,13.437 20.495,13.678 20.427 C 14.036 20.325,14.220 20.223,14.467 19.990 C 14.812 19.663,14.998 19.154,14.999 18.530 L 15.000 18.240 18.581 18.240 C 22.524 18.240,22.315 18.253,22.549 17.987 C 22.860 17.633,22.806 17.192,22.417 16.895 L 22.266 16.780 18.633 16.769 L 15.000 16.759 14.999 16.469 C 14.998 16.106,14.916 15.711,14.783 15.429 C 14.666 15.184,14.341 14.853,14.088 14.724 C 13.692 14.522,13.669 14.521,9.980 14.523 C 6.875 14.524,6.515 14.531,6.280 14.593 " fill="#292D32" stroke="none" fill-rule="evenodd"></path></svg>