<svg width="24" height="24" viewBox="0 0 24 24" fill="none" xmlns="http://www.w3.org/2000/svg"><path d="M6.420 1.260 C 6.398 1.267,6.331 1.284,6.271 1.297 C 6.150 1.324,5.905 1.523,5.828 1.655 C 5.794 1.715,5.774 2.145,5.760 3.120 L 5.740 4.500 5.300 4.524 C 4.552 4.564,4.011 4.785,3.618 5.209 C 3.366 5.481,3.247 5.696,3.114 6.121 L 3.020 6.420 3.020 10.000 L 3.020 13.580 3.114 13.879 C 3.245 14.296,3.363 14.513,3.601 14.773 C 3.998 15.208,4.568 15.445,5.350 15.500 L 5.760 15.529 5.760 18.842 C 5.760 21.085,5.774 22.191,5.803 22.267 C 5.896 22.516,6.241 22.758,6.500 22.758 C 6.759 22.758,7.104 22.516,7.197 22.267 C 7.226 22.191,7.240 21.085,7.240 18.842 L 7.240 15.530 7.630 15.502 C 8.396 15.449,8.912 15.247,9.324 14.840 C 9.614 14.554,9.744 14.333,9.886 13.879 L 9.980 13.580 9.980 10.000 L 9.980 6.420 9.886 6.121 C 9.753 5.696,9.634 5.481,9.382 5.209 C 8.989 4.785,8.448 4.564,7.700 4.524 L 7.260 4.500 7.240 3.120 C 7.226 2.177,7.205 1.715,7.173 1.660 C 7.115 1.559,6.925 1.382,6.820 1.330 C 6.727 1.284,6.478 1.240,6.420 1.260 M17.331 1.279 C 17.155 1.321,17.026 1.411,16.893 1.586 L 16.780 1.734 16.760 5.117 L 16.740 8.500 16.300 8.524 C 16.058 8.537,15.753 8.579,15.622 8.617 C 14.830 8.849,14.312 9.384,14.091 10.200 C 14.026 10.439,14.020 10.741,14.020 14.000 C 14.020 17.259,14.026 17.561,14.091 17.800 C 14.312 18.616,14.830 19.151,15.622 19.383 C 15.753 19.421,16.058 19.463,16.300 19.476 L 16.740 19.500 16.760 20.886 L 16.780 22.273 16.904 22.426 C 17.083 22.647,17.248 22.731,17.500 22.731 C 17.752 22.731,17.917 22.647,18.096 22.426 L 18.220 22.273 18.240 20.886 L 18.260 19.500 18.700 19.476 C 18.942 19.463,19.247 19.421,19.378 19.383 C 20.170 19.151,20.688 18.616,20.909 17.800 C 20.974 17.561,20.980 17.259,20.980 14.000 C 20.980 10.741,20.974 10.439,20.909 10.200 C 20.688 9.384,20.170 8.849,19.378 8.617 C 19.247 8.579,18.942 8.537,18.700 8.524 L 18.260 8.500 18.240 5.114 L 18.220 1.727 18.096 1.574 C 17.889 1.318,17.614 1.212,17.331 1.279 " fill="#292D32" stroke="none" fill-rule="evenodd"></path></svg>