<svg width="24" height="24" viewBox="0 0 24 24" fill="none" xmlns="http://www.w3.org/2000/svg"><path d="M7.687 2.124 C 6.260 2.290,5.256 2.997,4.778 4.172 C 4.584 4.650,4.475 5.057,4.236 6.206 L 4.022 7.232 3.398 7.246 C 2.793 7.260,2.769 7.263,2.605 7.372 C 2.410 7.501,2.295 7.671,2.260 7.883 C 2.203 8.218,2.453 8.611,2.786 8.711 C 3.024 8.782,20.976 8.782,21.214 8.711 C 21.547 8.611,21.797 8.218,21.740 7.883 C 21.705 7.671,21.590 7.501,21.395 7.372 C 21.231 7.263,21.207 7.260,20.602 7.246 L 19.978 7.232 19.764 6.206 C 19.357 4.253,19.145 3.735,18.480 3.073 C 18.181 2.776,18.072 2.698,17.716 2.525 C 17.269 2.307,16.835 2.187,16.260 2.122 C 15.822 2.072,8.118 2.074,7.687 2.124 M4.988 10.282 C 3.069 10.456,2.133 11.331,1.882 13.188 C 1.793 13.850,1.274 19.640,1.272 20.000 C 1.269 20.465,1.345 20.785,1.566 21.240 C 1.797 21.716,2.274 22.191,2.760 22.430 C 3.356 22.723,3.473 22.739,5.020 22.740 C 6.198 22.740,6.415 22.730,6.640 22.669 C 7.177 22.522,7.540 22.266,7.773 21.868 C 7.829 21.772,7.986 21.371,8.121 20.977 C 8.408 20.139,8.491 19.973,8.680 19.862 C 8.818 19.781,8.866 19.780,12.027 19.780 C 15.220 19.780,15.235 19.780,15.347 19.864 C 15.516 19.989,15.618 20.196,15.844 20.880 C 16.251 22.105,16.540 22.446,17.360 22.668 C 17.584 22.729,17.807 22.739,18.980 22.739 C 20.520 22.740,20.647 22.723,21.220 22.439 C 22.057 22.024,22.588 21.281,22.717 20.343 C 22.757 20.056,22.732 19.707,22.459 16.723 C 22.293 14.906,22.130 13.249,22.097 13.040 C 21.963 12.194,21.708 11.627,21.261 11.180 C 20.930 10.851,20.644 10.673,20.190 10.517 C 19.415 10.250,19.825 10.263,12.220 10.256 C 8.436 10.253,5.181 10.264,4.988 10.282 M9.300 14.316 C 9.904 14.594,9.904 15.406,9.300 15.684 C 9.153 15.752,9.010 15.758,7.540 15.759 C 6.560 15.759,5.882 15.744,5.791 15.718 C 5.128 15.534,5.066 14.602,5.698 14.315 C 5.847 14.248,5.994 14.242,7.500 14.242 C 9.010 14.242,9.153 14.248,9.300 14.316 M18.300 14.316 C 18.494 14.405,18.616 14.532,18.698 14.729 C 18.863 15.125,18.630 15.598,18.208 15.721 C 18.109 15.751,17.521 15.761,16.420 15.752 C 14.562 15.738,14.622 15.749,14.381 15.406 C 14.281 15.263,14.261 15.196,14.261 15.000 C 14.261 14.804,14.281 14.736,14.381 14.592 C 14.451 14.492,14.575 14.382,14.679 14.330 C 14.855 14.241,14.875 14.240,16.498 14.241 C 18.009 14.242,18.153 14.248,18.300 14.316 " fill="#292D32" stroke="none" fill-rule="evenodd"></path></svg>