<svg width="24" height="24" viewBox="0 0 24 24" fill="none" xmlns="http://www.w3.org/2000/svg"><path d="M16.429 1.823 C 15.679 2.004,15.217 2.492,15.060 3.269 C 15.004 3.544,14.997 3.849,15.009 5.405 C 15.023 7.145,15.027 7.231,15.111 7.482 C 15.320 8.109,15.772 8.518,16.440 8.685 C 16.611 8.728,17.071 8.740,18.500 8.740 C 19.929 8.740,20.389 8.728,20.560 8.685 C 21.228 8.518,21.680 8.109,21.889 7.482 C 21.973 7.231,21.977 7.145,21.991 5.405 C 22.003 3.841,21.996 3.545,21.939 3.265 C 21.782 2.489,21.313 2.000,20.553 1.821 C 20.196 1.737,16.778 1.738,16.429 1.823 M19.991 3.039 C 20.228 3.147,20.578 3.490,20.699 3.732 C 20.826 3.988,20.832 4.254,20.715 4.502 C 20.600 4.746,20.099 5.280,19.985 5.280 C 19.789 5.280,19.313 5.001,19.036 4.724 C 18.760 4.449,18.480 3.971,18.480 3.778 C 18.480 3.664,19.022 3.142,19.246 3.041 C 19.468 2.940,19.770 2.939,19.991 3.039 M5.543 3.444 C 4.416 3.611,3.346 4.278,2.715 5.208 C 2.476 5.559,2.250 6.066,2.132 6.512 C 2.052 6.815,2.029 7.005,2.025 7.380 C 2.020 7.828,2.027 7.874,2.126 8.062 C 2.263 8.321,2.532 8.567,2.782 8.664 C 2.973 8.737,3.155 8.740,7.780 8.740 L 12.580 8.740 12.809 8.628 C 13.089 8.490,13.331 8.223,13.428 7.947 C 13.493 7.760,13.500 7.576,13.500 6.060 C 13.500 4.503,13.494 4.365,13.424 4.182 C 13.327 3.932,13.081 3.663,12.822 3.526 L 12.620 3.420 9.200 3.414 C 7.319 3.411,5.674 3.424,5.543 3.444 M18.404 4.574 C 18.495 4.709,18.626 4.880,18.695 4.954 C 18.863 5.134,19.269 5.422,19.495 5.522 C 19.597 5.567,19.680 5.617,19.680 5.633 C 19.680 5.649,19.288 6.051,18.810 6.525 L 17.940 7.388 17.291 7.478 C 16.656 7.566,16.639 7.566,16.491 7.494 C 16.400 7.449,16.309 7.361,16.261 7.273 C 16.182 7.126,16.182 7.125,16.273 6.473 L 16.363 5.820 17.251 4.930 L 18.139 4.040 18.189 4.184 C 18.216 4.264,18.313 4.439,18.404 4.574 M2.974 10.281 C 2.725 10.331,2.516 10.452,2.330 10.654 C 2.000 11.011,2.021 10.801,2.008 13.880 C 1.996 16.733,2.008 17.025,2.166 17.600 C 2.533 18.936,3.664 20.067,5.000 20.434 C 5.610 20.601,5.725 20.604,12.220 20.590 C 17.851 20.577,18.485 20.569,18.720 20.510 C 20.423 20.079,21.556 18.917,21.927 17.220 C 21.968 17.034,21.980 16.324,21.980 14.060 C 21.980 11.328,21.975 11.130,21.908 10.986 C 21.798 10.752,21.502 10.460,21.269 10.354 L 21.060 10.260 12.100 10.254 C 7.172 10.251,3.065 10.263,2.974 10.281 M8.267 15.803 C 8.516 15.896,8.758 16.241,8.758 16.500 C 8.758 16.759,8.516 17.104,8.267 17.197 C 8.197 17.224,7.719 17.240,7.000 17.240 C 6.281 17.240,5.803 17.224,5.733 17.197 C 5.488 17.105,5.243 16.761,5.241 16.509 C 5.239 16.257,5.460 15.924,5.700 15.817 C 5.853 15.748,8.092 15.736,8.267 15.803 M14.832 15.836 C 15.094 15.969,15.240 16.208,15.240 16.500 C 15.240 16.792,15.094 17.031,14.832 17.164 C 14.691 17.236,14.563 17.240,12.500 17.240 C 10.437 17.240,10.309 17.236,10.168 17.164 C 9.999 17.078,9.917 16.994,9.825 16.812 C 9.697 16.559,9.776 16.139,9.986 15.955 C 10.210 15.759,10.155 15.763,12.492 15.762 C 14.565 15.760,14.691 15.764,14.832 15.836 " fill="#292D32" stroke="none" fill-rule="evenodd"></path></svg>