<svg width="24" height="24" viewBox="0 0 24 24" fill="none" xmlns="http://www.w3.org/2000/svg"><path d="M16.591 2.040 C 15.746 2.188,15.231 2.685,15.057 3.519 C 15.005 3.771,14.997 4.108,15.009 5.639 C 15.022 7.383,15.027 7.471,15.110 7.720 C 15.313 8.327,15.692 8.700,16.300 8.892 C 16.573 8.978,16.631 8.980,18.500 8.980 C 20.369 8.980,20.427 8.978,20.700 8.892 C 21.318 8.697,21.697 8.318,21.892 7.700 C 21.978 7.427,21.980 7.369,21.980 5.500 C 21.980 3.631,21.978 3.573,21.892 3.300 C 21.700 2.692,21.327 2.313,20.720 2.110 C 20.470 2.026,20.392 2.023,18.620 2.015 C 17.608 2.011,16.695 2.022,16.591 2.040 M5.543 3.444 C 4.188 3.644,3.011 4.508,2.422 5.734 C 2.141 6.319,1.962 7.142,2.012 7.625 C 2.057 8.059,2.319 8.435,2.714 8.629 L 2.940 8.740 7.700 8.740 C 11.556 8.740,12.495 8.730,12.644 8.686 C 12.934 8.602,13.199 8.376,13.349 8.085 L 13.480 7.833 13.480 6.104 C 13.480 4.157,13.479 4.146,13.192 3.820 C 13.103 3.719,12.938 3.588,12.825 3.528 L 12.620 3.420 9.200 3.414 C 7.319 3.411,5.674 3.424,5.543 3.444 M20.432 3.656 C 20.701 3.796,20.824 4.083,20.712 4.308 C 20.641 4.451,18.345 7.139,18.165 7.290 C 18.007 7.423,17.797 7.436,17.620 7.323 C 17.554 7.282,17.227 6.980,16.892 6.654 C 16.385 6.158,16.280 6.036,16.259 5.913 C 16.244 5.833,16.245 5.728,16.260 5.681 C 16.305 5.538,16.516 5.327,16.642 5.300 C 16.882 5.247,17.003 5.313,17.425 5.728 L 17.830 6.126 18.874 4.907 C 19.545 4.122,19.957 3.673,20.029 3.647 C 20.188 3.589,20.308 3.592,20.432 3.656 M2.949 10.283 C 2.594 10.367,2.274 10.624,2.111 10.956 L 2.020 11.140 2.020 14.120 L 2.021 17.100 2.130 17.497 C 2.536 18.976,3.625 20.062,5.115 20.474 L 5.500 20.580 11.980 20.580 L 18.460 20.580 18.800 20.493 C 20.344 20.098,21.498 18.944,21.893 17.400 C 21.978 17.066,21.980 17.008,21.980 14.100 L 21.980 11.140 21.889 10.956 C 21.766 10.706,21.544 10.490,21.280 10.365 L 21.060 10.260 12.080 10.254 C 6.928 10.250,3.036 10.263,2.949 10.283 M8.426 15.904 C 8.645 16.081,8.731 16.248,8.731 16.494 C 8.731 16.806,8.542 17.094,8.267 17.197 C 8.197 17.224,7.719 17.240,7.000 17.240 C 6.281 17.240,5.803 17.224,5.733 17.197 C 5.460 17.095,5.269 16.807,5.269 16.500 C 5.269 16.198,5.411 15.975,5.700 15.822 C 5.803 15.768,5.991 15.760,7.046 15.769 L 8.273 15.780 8.426 15.904 M14.820 15.835 C 15.010 15.923,15.096 16.012,15.178 16.210 C 15.287 16.470,15.232 16.807,15.048 17.014 C 15.011 17.057,14.908 17.124,14.820 17.165 C 14.671 17.233,14.510 17.238,12.509 17.239 C 10.224 17.240,10.199 17.238,9.986 17.048 C 9.783 16.869,9.708 16.483,9.822 16.210 C 9.904 16.012,9.990 15.923,10.180 15.835 C 10.329 15.767,10.489 15.762,12.500 15.762 C 14.511 15.762,14.671 15.767,14.820 15.835 " fill="#292D32" stroke="none" fill-rule="evenodd"></path></svg>