<svg width="24" height="24" viewBox="0 0 24 24" fill="none" xmlns="http://www.w3.org/2000/svg"><path d="M20.920 2.064 C 20.841 2.098,20.449 2.454,20.014 2.887 L 19.248 3.649 19.054 3.586 C 18.474 3.396,18.550 3.397,11.817 3.409 L 5.500 3.420 5.103 3.530 C 3.621 3.938,2.509 5.054,2.135 6.512 C 2.012 6.990,1.971 7.551,2.038 7.832 C 2.097 8.076,2.290 8.360,2.504 8.517 C 2.852 8.773,2.538 8.760,8.617 8.760 L 14.139 8.760 13.401 9.499 L 12.662 10.238 7.801 10.249 L 2.940 10.260 2.717 10.364 C 2.454 10.488,2.237 10.699,2.111 10.955 L 2.020 11.140 2.020 14.100 L 2.020 17.060 2.115 17.420 C 2.304 18.139,2.643 18.765,3.133 19.303 L 3.354 19.546 2.756 20.143 C 2.416 20.483,2.124 20.810,2.079 20.903 C 1.777 21.524,2.428 22.204,3.071 21.939 C 3.178 21.895,5.864 19.234,12.491 12.609 C 17.590 7.511,21.809 3.273,21.866 3.191 C 21.989 3.014,22.028 2.747,21.961 2.544 C 21.820 2.115,21.326 1.888,20.920 2.064 M20.726 6.444 C 20.502 6.512,20.317 6.659,19.928 7.077 C 19.512 7.526,19.433 7.673,19.435 8.000 C 19.436 8.312,19.533 8.528,19.763 8.735 C 20.001 8.949,20.183 9.000,20.710 9.000 C 21.237 9.000,21.463 8.930,21.697 8.696 C 21.951 8.443,22.013 8.215,21.993 7.606 C 21.976 7.094,21.923 6.930,21.709 6.716 C 21.464 6.470,21.032 6.351,20.726 6.444 M17.420 10.046 C 17.310 10.067,17.085 10.149,16.920 10.228 C 16.634 10.364,16.530 10.460,14.749 12.235 C 13.330 13.648,12.854 14.147,12.779 14.297 C 12.581 14.695,12.682 15.226,13.008 15.501 C 13.248 15.703,13.372 15.732,14.060 15.752 C 14.844 15.773,14.991 15.829,15.164 16.168 C 15.341 16.515,15.202 16.967,14.860 17.154 C 14.754 17.213,14.468 17.222,12.320 17.240 L 9.900 17.260 9.693 17.375 C 9.430 17.520,8.007 18.952,7.898 19.180 C 7.847 19.288,7.822 19.425,7.823 19.600 C 7.825 20.056,8.111 20.436,8.541 20.555 C 8.653 20.586,10.091 20.600,13.400 20.600 C 18.427 20.600,18.520 20.596,19.114 20.400 C 20.319 20.001,21.281 19.093,21.711 17.949 C 21.990 17.204,21.980 17.359,21.980 13.880 C 21.980 10.855,21.977 10.734,21.903 10.584 C 21.804 10.385,21.615 10.196,21.416 10.097 C 21.269 10.025,21.153 10.020,19.440 10.014 C 18.405 10.010,17.534 10.024,17.420 10.046 M6.440 16.460 C 6.055 16.845,5.713 17.160,5.678 17.160 C 5.524 17.160,5.240 16.733,5.240 16.500 C 5.240 16.354,5.346 16.120,5.472 15.985 C 5.659 15.786,5.762 15.763,6.480 15.762 L 7.139 15.760 6.440 16.460 " fill="#292D32" stroke="none" fill-rule="evenodd"></path></svg>