<svg width="24" height="24" viewBox="0 0 24 24" fill="none" xmlns="http://www.w3.org/2000/svg"><path d="M16.500 1.802 C 15.724 1.961,15.219 2.467,15.056 3.248 C 15.006 3.486,14.998 3.859,15.009 5.398 C 15.022 7.208,15.025 7.267,15.111 7.497 C 15.240 7.840,15.367 8.038,15.591 8.248 C 15.816 8.459,16.000 8.561,16.341 8.666 C 16.559 8.734,16.748 8.740,18.500 8.740 C 20.252 8.740,20.441 8.734,20.659 8.666 C 21.005 8.560,21.187 8.456,21.420 8.236 C 21.675 7.995,21.818 7.738,21.921 7.337 C 21.994 7.051,22.000 6.891,21.999 5.264 C 21.999 3.898,21.986 3.440,21.942 3.233 C 21.787 2.500,21.331 2.022,20.614 1.838 C 20.330 1.766,20.172 1.760,18.484 1.764 C 17.481 1.767,16.588 1.784,16.500 1.802 M18.801 2.834 C 18.877 2.875,18.980 2.978,19.029 3.064 C 19.116 3.216,19.119 3.252,19.119 4.417 L 19.120 5.615 19.230 5.514 C 19.435 5.325,19.533 5.280,19.739 5.280 C 20.260 5.281,20.532 5.797,20.246 6.242 C 20.183 6.340,19.844 6.702,19.492 7.047 C 18.514 8.005,18.515 8.005,17.467 6.966 C 17.075 6.578,16.728 6.211,16.697 6.152 C 16.615 5.997,16.626 5.724,16.720 5.570 C 16.908 5.261,17.331 5.181,17.630 5.397 C 17.719 5.462,17.807 5.538,17.826 5.567 C 17.845 5.597,17.869 5.083,17.880 4.380 C 17.899 3.180,17.903 3.136,17.989 3.016 C 18.164 2.770,18.527 2.689,18.801 2.834 M5.543 3.444 C 4.188 3.644,3.011 4.508,2.422 5.734 C 2.141 6.319,1.962 7.142,2.012 7.625 C 2.057 8.059,2.319 8.435,2.714 8.629 L 2.940 8.740 7.700 8.740 C 11.556 8.740,12.495 8.730,12.644 8.686 C 12.934 8.602,13.199 8.376,13.349 8.085 L 13.480 7.833 13.480 6.104 C 13.480 4.157,13.479 4.146,13.192 3.820 C 13.103 3.719,12.938 3.588,12.825 3.528 L 12.620 3.420 9.200 3.414 C 7.319 3.411,5.674 3.424,5.543 3.444 M2.974 10.281 C 2.725 10.331,2.516 10.452,2.330 10.654 C 2.000 11.011,2.021 10.801,2.008 13.880 C 1.996 16.733,2.008 17.025,2.166 17.600 C 2.533 18.936,3.664 20.067,5.000 20.434 C 5.610 20.601,5.725 20.604,12.220 20.590 C 17.851 20.577,18.485 20.569,18.720 20.510 C 20.423 20.079,21.556 18.917,21.927 17.220 C 21.968 17.034,21.980 16.324,21.980 14.060 C 21.980 11.328,21.975 11.130,21.908 10.986 C 21.798 10.752,21.502 10.460,21.269 10.354 L 21.060 10.260 12.100 10.254 C 7.172 10.251,3.065 10.263,2.974 10.281 M8.267 15.803 C 8.516 15.896,8.758 16.241,8.758 16.500 C 8.758 16.759,8.516 17.104,8.267 17.197 C 8.197 17.224,7.719 17.240,7.000 17.240 C 6.281 17.240,5.803 17.224,5.733 17.197 C 5.488 17.105,5.243 16.761,5.241 16.509 C 5.239 16.257,5.460 15.924,5.700 15.817 C 5.853 15.748,8.092 15.736,8.267 15.803 M14.832 15.836 C 15.094 15.969,15.240 16.208,15.240 16.500 C 15.240 16.792,15.094 17.031,14.832 17.164 C 14.691 17.236,14.563 17.240,12.500 17.240 C 10.437 17.240,10.309 17.236,10.168 17.164 C 9.999 17.078,9.917 16.994,9.825 16.812 C 9.697 16.559,9.776 16.139,9.986 15.955 C 10.210 15.759,10.155 15.763,12.492 15.762 C 14.565 15.760,14.691 15.764,14.832 15.836 " fill="#292D32" stroke="none" fill-rule="evenodd"></path></svg>