<svg width="24" height="24" viewBox="0 0 24 24" fill="none" xmlns="http://www.w3.org/2000/svg"><path d="M12.451 2.047 C 11.803 2.111,11.139 2.393,10.586 2.837 C 10.160 3.179,2.946 10.438,2.771 10.700 C 2.335 11.355,2.152 11.953,2.151 12.720 C 2.151 13.242,2.215 13.593,2.395 14.062 C 2.617 14.636,3.119 15.291,3.472 15.466 C 3.689 15.574,4.166 15.566,4.380 15.451 C 4.476 15.400,6.751 13.152,10.028 9.873 C 14.325 5.573,15.534 4.341,15.598 4.200 C 15.689 3.995,15.703 3.705,15.632 3.468 C 15.532 3.134,14.868 2.574,14.257 2.308 C 13.744 2.084,13.062 1.986,12.451 2.047 M16.836 5.158 C 16.757 5.173,16.613 5.233,16.516 5.290 C 16.249 5.449,5.469 16.257,5.361 16.473 C 5.245 16.708,5.244 17.087,5.360 17.348 C 5.426 17.498,5.759 17.855,6.902 19.001 C 7.704 19.805,8.360 20.475,8.360 20.491 C 8.360 20.507,7.054 20.520,5.458 20.520 C 2.649 20.520,2.552 20.523,2.402 20.599 C 2.112 20.747,1.967 21.041,2.018 21.381 C 2.041 21.534,2.082 21.606,2.235 21.758 C 2.352 21.875,2.473 21.957,2.556 21.973 C 2.731 22.008,21.269 22.008,21.444 21.973 C 21.527 21.957,21.648 21.875,21.765 21.758 C 21.918 21.606,21.959 21.534,21.982 21.381 C 22.033 21.041,21.888 20.747,21.598 20.599 C 21.447 20.522,21.347 20.520,17.682 20.520 C 15.613 20.520,13.920 20.507,13.920 20.491 C 13.920 20.475,15.528 18.850,17.494 16.881 C 21.223 13.144,21.282 13.080,21.562 12.461 C 21.957 11.592,21.957 10.448,21.562 9.579 C 21.303 9.007,21.122 8.797,19.383 7.048 C 17.616 5.272,17.524 5.193,17.140 5.149 C 17.052 5.139,16.915 5.143,16.836 5.158 M16.561 12.530 C 16.872 12.687,16.994 13.024,16.858 13.351 C 16.791 13.513,14.406 15.938,14.168 16.087 C 13.931 16.234,13.534 16.179,13.355 15.974 C 13.183 15.778,13.140 15.469,13.254 15.254 C 13.356 15.062,15.928 12.522,16.061 12.482 C 16.257 12.424,16.374 12.435,16.561 12.530 M12.671 16.534 C 12.816 16.630,12.960 16.888,12.960 17.054 C 12.960 17.114,12.932 17.229,12.898 17.310 C 12.824 17.489,11.565 18.769,11.377 18.859 C 11.008 19.034,10.529 18.804,10.457 18.419 C 10.396 18.092,10.435 18.032,11.214 17.248 C 11.986 16.472,12.118 16.381,12.400 16.426 C 12.477 16.439,12.599 16.487,12.671 16.534 " fill="#292D32" stroke="none" fill-rule="evenodd"></path></svg>