<svg width="24" height="24" viewBox="0 0 24 24" fill="none" xmlns="http://www.w3.org/2000/svg"><path d="M16.591 2.040 C 15.746 2.188,15.231 2.685,15.057 3.519 C 15.005 3.771,14.997 4.108,15.009 5.639 C 15.022 7.383,15.027 7.471,15.110 7.720 C 15.313 8.327,15.692 8.700,16.300 8.892 C 16.573 8.978,16.631 8.980,18.500 8.980 C 20.369 8.980,20.427 8.978,20.700 8.892 C 21.318 8.697,21.697 8.318,21.892 7.700 C 21.978 7.427,21.980 7.369,21.980 5.500 C 21.980 3.631,21.978 3.573,21.892 3.300 C 21.700 2.692,21.327 2.313,20.720 2.110 C 20.470 2.026,20.392 2.023,18.620 2.015 C 17.608 2.011,16.695 2.022,16.591 2.040 M18.820 3.002 C 18.886 3.042,18.976 3.134,19.020 3.207 C 19.094 3.329,19.099 3.401,19.091 4.110 L 19.081 4.880 19.791 4.880 C 20.583 4.880,20.743 4.909,20.917 5.083 C 21.145 5.312,21.151 5.622,20.930 5.884 C 20.751 6.097,20.642 6.120,19.816 6.120 L 19.069 6.120 19.098 6.735 C 19.134 7.519,19.110 7.687,18.931 7.885 C 18.686 8.156,18.336 8.169,18.084 7.917 C 17.910 7.744,17.880 7.583,17.880 6.810 L 17.880 6.120 17.130 6.119 C 16.428 6.119,16.370 6.113,16.222 6.029 C 15.810 5.796,15.801 5.225,16.207 4.980 C 16.329 4.906,16.401 4.901,17.106 4.910 L 17.873 4.920 17.886 4.130 C 17.899 3.399,17.907 3.330,17.988 3.200 C 18.178 2.896,18.514 2.816,18.820 3.002 M5.543 3.444 C 4.188 3.644,3.011 4.508,2.422 5.734 C 2.141 6.319,1.962 7.142,2.012 7.625 C 2.057 8.059,2.319 8.435,2.714 8.629 L 2.940 8.740 7.700 8.740 C 11.556 8.740,12.495 8.730,12.644 8.686 C 12.934 8.602,13.199 8.376,13.349 8.085 L 13.480 7.833 13.480 6.104 C 13.480 4.157,13.479 4.146,13.192 3.820 C 13.103 3.719,12.938 3.588,12.825 3.528 L 12.620 3.420 9.200 3.414 C 7.319 3.411,5.674 3.424,5.543 3.444 M2.949 10.283 C 2.594 10.367,2.274 10.624,2.111 10.956 L 2.020 11.140 2.020 14.120 L 2.021 17.100 2.130 17.497 C 2.536 18.976,3.625 20.062,5.115 20.474 L 5.500 20.580 11.980 20.580 L 18.460 20.580 18.800 20.493 C 20.344 20.098,21.498 18.944,21.893 17.400 C 21.978 17.066,21.980 17.008,21.980 14.100 L 21.980 11.140 21.889 10.956 C 21.766 10.706,21.544 10.490,21.280 10.365 L 21.060 10.260 12.080 10.254 C 6.928 10.250,3.036 10.263,2.949 10.283 M8.426 15.904 C 8.645 16.081,8.731 16.248,8.731 16.494 C 8.731 16.806,8.542 17.094,8.267 17.197 C 8.197 17.224,7.719 17.240,7.000 17.240 C 6.281 17.240,5.803 17.224,5.733 17.197 C 5.460 17.095,5.269 16.807,5.269 16.500 C 5.269 16.198,5.411 15.975,5.700 15.822 C 5.803 15.768,5.991 15.760,7.046 15.769 L 8.273 15.780 8.426 15.904 M14.820 15.835 C 15.010 15.923,15.096 16.012,15.178 16.210 C 15.287 16.470,15.232 16.807,15.048 17.014 C 15.011 17.057,14.908 17.124,14.820 17.165 C 14.671 17.233,14.510 17.238,12.509 17.239 C 10.224 17.240,10.199 17.238,9.986 17.048 C 9.783 16.869,9.708 16.483,9.822 16.210 C 9.904 16.012,9.990 15.923,10.180 15.835 C 10.329 15.767,10.489 15.762,12.500 15.762 C 14.511 15.762,14.671 15.767,14.820 15.835 " fill="#292D32" stroke="none" fill-rule="evenodd"></path></svg>