<svg width="24" height="24" viewBox="0 0 24 24" fill="none" xmlns="http://www.w3.org/2000/svg"><path d="M7.860 3.643 C 6.890 3.746,5.984 4.099,5.447 4.581 C 5.219 4.787,5.186 4.906,5.320 5.040 C 5.399 5.119,5.454 5.120,10.910 5.121 C 14.281 5.121,16.568 5.137,16.800 5.161 C 18.415 5.330,19.738 6.391,20.267 7.940 C 20.476 8.551,20.480 8.644,20.480 12.727 L 20.480 16.514 20.585 16.597 C 20.725 16.707,20.772 16.702,20.932 16.561 C 21.268 16.266,21.648 15.542,21.818 14.873 C 21.992 14.186,22.007 13.799,21.989 10.420 C 21.972 7.032,21.972 7.035,21.757 6.311 C 21.642 5.924,21.316 5.302,21.070 5.001 C 20.534 4.346,19.732 3.910,18.666 3.692 C 18.373 3.633,17.819 3.625,13.260 3.617 C 10.466 3.613,8.036 3.624,7.860 3.643 M4.620 6.604 C 4.122 6.655,3.586 6.792,3.269 6.950 C 2.347 7.411,1.999 8.343,2.000 10.357 C 2.001 11.009,2.008 11.074,2.094 11.260 C 2.204 11.496,2.448 11.728,2.665 11.805 C 2.896 11.887,18.104 11.887,18.335 11.805 C 18.552 11.728,18.796 11.496,18.906 11.260 C 18.992 11.074,18.999 11.009,19.000 10.357 C 19.001 8.730,18.782 7.853,18.246 7.322 C 17.836 6.916,17.249 6.695,16.343 6.604 C 15.825 6.552,5.126 6.551,4.620 6.604 M2.673 13.423 C 2.552 13.460,2.421 13.545,2.303 13.663 C 1.989 13.977,1.990 13.972,2.011 16.313 C 2.029 18.300,2.048 18.609,2.177 19.120 C 2.455 20.210,3.036 20.693,4.333 20.912 C 4.704 20.974,5.250 20.980,10.520 20.980 C 15.898 20.980,16.328 20.975,16.700 20.908 C 18.138 20.651,18.674 20.104,18.923 18.640 C 18.949 18.487,18.975 17.541,18.987 16.333 C 19.010 13.969,19.011 13.978,18.697 13.664 C 18.368 13.335,19.054 13.360,10.483 13.363 C 3.966 13.365,2.833 13.374,2.673 13.423 M7.140 17.084 C 7.511 17.185,7.746 17.517,7.710 17.888 C 7.687 18.129,7.529 18.342,7.279 18.470 C 7.110 18.556,7.062 18.560,6.102 18.559 C 5.210 18.558,5.082 18.550,4.935 18.483 C 4.559 18.312,4.395 17.823,4.592 17.455 C 4.661 17.326,4.909 17.124,5.031 17.097 C 5.091 17.084,5.158 17.067,5.180 17.060 C 5.287 17.024,6.997 17.045,7.140 17.084 M12.864 17.128 C 13.029 17.218,13.233 17.455,13.263 17.591 C 13.276 17.651,13.293 17.722,13.301 17.748 C 13.333 17.851,13.206 18.210,13.098 18.322 C 12.868 18.562,12.850 18.564,10.760 18.551 L 8.860 18.540 8.730 18.447 C 8.516 18.295,8.390 18.098,8.369 17.884 C 8.335 17.526,8.568 17.188,8.920 17.086 C 9.008 17.061,9.747 17.048,10.900 17.053 C 12.547 17.059,12.753 17.067,12.864 17.128 " fill="#292D32" stroke="none" fill-rule="evenodd"></path></svg>