<svg width="24" height="24" viewBox="0 0 24 24" fill="none" xmlns="http://www.w3.org/2000/svg"><path d="M5.543 3.444 C 3.878 3.687,2.520 4.932,2.113 6.588 C 1.990 7.088,1.981 8.181,2.097 8.416 C 2.196 8.615,2.385 8.804,2.584 8.903 C 2.737 8.978,2.921 8.980,12.000 8.980 C 21.079 8.980,21.263 8.978,21.416 8.903 C 21.616 8.803,21.805 8.614,21.901 8.416 C 22.046 8.118,22.024 7.135,21.858 6.500 C 21.516 5.185,20.535 4.113,19.257 3.656 C 18.518 3.392,18.753 3.400,11.940 3.405 C 8.552 3.408,5.674 3.425,5.543 3.444 M2.719 10.541 C 2.493 10.611,2.225 10.836,2.109 11.054 C 2.020 11.220,2.020 11.221,2.008 13.900 C 1.995 16.668,2.011 17.058,2.157 17.571 C 2.516 18.824,3.462 19.864,4.651 20.311 C 5.388 20.587,5.181 20.574,9.014 20.589 C 12.882 20.605,12.750 20.613,13.072 20.337 C 13.380 20.074,13.409 19.972,13.419 19.102 C 13.430 18.265,13.480 17.924,13.687 17.305 C 14.132 15.970,15.192 14.725,16.399 14.121 C 17.209 13.715,17.922 13.548,18.860 13.544 C 19.547 13.540,19.882 13.584,20.440 13.751 C 20.910 13.892,21.199 13.889,21.475 13.739 C 21.718 13.607,21.894 13.380,21.961 13.113 C 21.989 12.999,22.001 12.622,21.993 12.077 C 21.981 11.291,21.973 11.207,21.894 11.059 C 21.785 10.855,21.625 10.695,21.421 10.586 L 21.260 10.500 12.080 10.493 C 4.302 10.486,2.872 10.494,2.719 10.541 M18.540 15.024 C 16.847 15.275,15.576 16.379,15.132 17.983 C 15.035 18.334,15.022 18.449,15.022 18.980 C 15.022 19.704,15.105 20.084,15.397 20.700 C 15.935 21.832,16.913 22.619,18.140 22.905 C 18.581 23.008,19.419 23.008,19.860 22.905 C 21.274 22.575,22.377 21.556,22.812 20.179 C 23.334 18.522,22.699 16.684,21.269 15.712 C 20.917 15.473,20.343 15.214,19.958 15.120 C 19.630 15.040,18.809 14.984,18.540 15.024 M8.267 15.803 C 8.516 15.896,8.758 16.241,8.758 16.500 C 8.758 16.759,8.516 17.104,8.267 17.197 C 8.197 17.224,7.719 17.240,7.000 17.240 C 6.281 17.240,5.803 17.224,5.733 17.197 C 5.488 17.105,5.243 16.761,5.241 16.509 C 5.239 16.257,5.460 15.924,5.700 15.817 C 5.853 15.748,8.092 15.736,8.267 15.803 M20.989 17.427 C 21.204 17.600,21.286 17.761,21.288 18.011 C 21.291 18.288,21.227 18.400,20.873 18.745 C 20.178 19.419,18.872 20.602,18.754 20.663 C 18.590 20.748,18.291 20.748,18.111 20.663 C 18.034 20.626,17.700 20.322,17.370 19.988 C 16.828 19.438,16.767 19.362,16.730 19.190 C 16.607 18.614,17.052 18.167,17.626 18.289 C 17.779 18.322,17.869 18.384,18.134 18.639 L 18.455 18.949 19.294 18.170 C 19.756 17.741,20.189 17.365,20.257 17.335 C 20.331 17.301,20.471 17.284,20.609 17.292 C 20.794 17.302,20.868 17.329,20.989 17.427 " fill="#292D32" stroke="none" fill-rule="evenodd"></path></svg>