<svg width="24" height="24" viewBox="0 0 24 24" fill="none" xmlns="http://www.w3.org/2000/svg"><path d="M8.393 1.282 C 6.328 1.431,4.327 2.476,3.001 4.099 C 2.224 5.050,1.632 6.308,1.403 7.495 C 1.303 8.014,1.230 8.965,1.275 9.162 C 1.450 9.921,2.553 9.921,2.716 9.162 C 2.740 9.049,2.760 8.844,2.761 8.708 C 2.762 8.219,2.905 7.499,3.119 6.896 C 3.439 5.996,3.925 5.241,4.626 4.552 C 5.170 4.017,5.580 3.724,6.240 3.399 C 6.731 3.158,7.592 2.862,7.554 2.948 C 7.546 2.966,7.472 3.100,7.388 3.248 C 7.304 3.395,7.226 3.576,7.214 3.649 C 7.187 3.818,7.255 4.078,7.364 4.216 C 7.626 4.549,8.200 4.569,8.484 4.255 C 8.639 4.084,9.669 2.345,9.716 2.175 C 9.845 1.707,9.419 1.214,8.912 1.246 C 8.862 1.249,8.628 1.265,8.393 1.282 M17.900 2.045 C 15.533 2.341,13.776 4.573,14.034 6.955 C 14.338 9.754,17.056 11.591,19.749 10.817 C 21.821 10.222,23.197 8.179,22.966 6.045 C 22.690 3.503,20.442 1.728,17.900 2.045 M3.294 13.564 C 2.387 13.715,2.058 14.187,2.014 15.400 C 1.996 15.898,2.001 15.950,2.078 16.072 C 2.243 16.333,1.977 16.320,7.000 16.320 C 12.023 16.320,11.757 16.333,11.922 16.072 C 11.999 15.950,12.004 15.898,11.986 15.400 C 11.941 14.168,11.617 13.715,10.671 13.561 C 10.362 13.511,3.595 13.513,3.294 13.564 M21.815 14.277 C 21.641 14.320,21.462 14.456,21.359 14.622 C 21.288 14.737,21.266 14.858,21.237 15.291 C 21.187 16.062,21.106 16.471,20.880 17.107 C 20.567 17.988,20.063 18.771,19.374 19.449 C 18.843 19.971,18.438 20.260,17.769 20.594 C 17.278 20.839,16.407 21.140,16.446 21.052 C 16.454 21.034,16.528 20.900,16.612 20.752 C 16.696 20.605,16.774 20.424,16.786 20.351 C 16.813 20.182,16.745 19.922,16.636 19.784 C 16.374 19.451,15.800 19.431,15.516 19.745 C 15.355 19.922,14.328 21.660,14.281 21.835 C 14.175 22.230,14.425 22.622,14.844 22.716 C 15.090 22.772,15.988 22.701,16.567 22.582 C 17.737 22.340,18.931 21.782,19.837 21.054 C 20.159 20.795,20.733 20.225,21.000 19.900 C 21.995 18.685,22.604 17.146,22.717 15.559 C 22.760 14.954,22.731 14.735,22.580 14.536 C 22.421 14.327,22.078 14.211,21.815 14.277 M2.169 17.457 L 2.020 17.594 2.020 19.067 C 2.021 20.154,2.035 20.603,2.075 20.780 C 2.246 21.543,2.637 21.857,3.540 21.959 C 4.019 22.013,9.981 22.013,10.460 21.959 C 11.363 21.857,11.754 21.543,11.925 20.780 C 11.965 20.603,11.979 20.154,11.980 19.067 L 11.980 17.594 11.831 17.457 L 11.681 17.320 7.000 17.320 L 2.319 17.320 2.169 17.457 " fill="#292D32" stroke="none" fill-rule="evenodd"></path></svg>