<svg width="24" height="24" viewBox="0 0 24 24" fill="none" xmlns="http://www.w3.org/2000/svg"><path d="M5.543 3.444 C 3.878 3.687,2.520 4.932,2.113 6.588 C 1.990 7.088,1.981 8.181,2.097 8.416 C 2.196 8.615,2.385 8.804,2.584 8.903 C 2.737 8.978,2.921 8.980,12.000 8.980 C 21.079 8.980,21.263 8.978,21.416 8.903 C 21.616 8.803,21.805 8.614,21.901 8.416 C 22.046 8.118,22.024 7.135,21.858 6.500 C 21.516 5.185,20.535 4.113,19.257 3.656 C 18.518 3.392,18.753 3.400,11.940 3.405 C 8.552 3.408,5.674 3.425,5.543 3.444 M2.719 10.541 C 2.493 10.611,2.225 10.836,2.109 11.054 C 2.020 11.220,2.020 11.221,2.008 13.900 C 1.995 16.668,2.011 17.058,2.157 17.571 C 2.516 18.824,3.462 19.864,4.651 20.311 C 5.388 20.587,5.181 20.574,9.014 20.589 C 12.882 20.605,12.750 20.613,13.072 20.337 C 13.380 20.074,13.409 19.972,13.419 19.102 C 13.430 18.265,13.480 17.924,13.687 17.305 C 14.132 15.970,15.192 14.725,16.399 14.121 C 17.209 13.715,17.922 13.548,18.860 13.544 C 19.547 13.540,19.882 13.584,20.440 13.751 C 20.910 13.892,21.199 13.889,21.475 13.739 C 21.718 13.607,21.894 13.380,21.961 13.113 C 21.989 12.999,22.001 12.622,21.993 12.077 C 21.981 11.291,21.973 11.207,21.894 11.059 C 21.785 10.855,21.625 10.695,21.421 10.586 L 21.260 10.500 12.080 10.493 C 4.302 10.486,2.872 10.494,2.719 10.541 M18.174 15.097 C 16.901 15.339,15.800 16.197,15.263 17.368 C 14.973 17.999,14.845 18.745,14.916 19.395 C 15.103 21.117,16.259 22.470,17.920 22.910 C 18.442 23.049,19.290 23.058,19.800 22.931 C 21.008 22.629,21.949 21.874,22.482 20.780 C 22.712 20.308,22.825 19.916,22.877 19.413 C 23.020 18.025,22.371 16.600,21.223 15.781 C 20.882 15.537,20.297 15.266,19.880 15.157 C 19.451 15.046,18.601 15.016,18.174 15.097 M8.267 15.803 C 8.516 15.896,8.758 16.241,8.758 16.500 C 8.758 16.759,8.516 17.104,8.267 17.197 C 8.197 17.224,7.719 17.240,7.000 17.240 C 6.281 17.240,5.803 17.224,5.733 17.197 C 5.488 17.105,5.243 16.761,5.241 16.509 C 5.239 16.257,5.460 15.924,5.700 15.817 C 5.853 15.748,8.092 15.736,8.267 15.803 M18.140 17.356 C 18.228 17.398,18.434 17.568,18.598 17.735 L 18.896 18.038 19.218 17.725 C 19.572 17.381,19.741 17.298,20.025 17.331 C 20.522 17.387,20.817 17.922,20.604 18.380 C 20.562 18.468,20.401 18.665,20.245 18.818 L 19.962 19.096 20.297 19.439 C 20.553 19.701,20.643 19.822,20.679 19.955 C 20.808 20.436,20.460 20.889,19.961 20.889 C 19.711 20.889,19.571 20.810,19.204 20.459 L 18.895 20.163 18.578 20.482 C 18.218 20.844,18.025 20.942,17.740 20.910 C 17.494 20.882,17.299 20.740,17.179 20.502 C 16.987 20.119,17.072 19.857,17.536 19.401 L 17.840 19.102 17.584 18.841 C 17.204 18.454,17.120 18.312,17.120 18.053 C 17.120 17.700,17.287 17.445,17.587 17.338 C 17.797 17.263,17.951 17.268,18.140 17.356 " fill="#292D32" stroke="none" fill-rule="evenodd"></path></svg>