<svg width="24" height="24" viewBox="0 0 24 24" fill="none" xmlns="http://www.w3.org/2000/svg"><path d="M5.543 3.444 C 4.176 3.646,2.980 4.533,2.396 5.778 C 2.090 6.433,1.927 7.367,2.038 7.832 C 2.097 8.076,2.290 8.360,2.504 8.517 C 2.859 8.777,2.183 8.760,12.000 8.760 C 20.062 8.760,20.926 8.754,21.123 8.696 C 21.394 8.616,21.614 8.457,21.783 8.219 C 21.962 7.968,22.017 7.708,21.986 7.263 C 21.863 5.474,20.612 3.990,18.820 3.508 L 18.500 3.422 12.140 3.415 C 8.642 3.412,5.674 3.425,5.543 3.444 M2.949 10.283 C 2.587 10.369,2.278 10.617,2.111 10.955 L 2.020 11.140 2.008 13.880 C 1.996 16.733,2.008 17.025,2.166 17.600 C 2.533 18.936,3.664 20.067,5.000 20.434 C 5.610 20.601,5.725 20.604,12.220 20.590 C 17.851 20.577,18.485 20.569,18.720 20.510 C 20.423 20.079,21.556 18.917,21.927 17.220 C 21.968 17.034,21.980 16.324,21.980 14.060 L 21.980 11.140 21.889 10.955 C 21.763 10.699,21.546 10.488,21.283 10.364 L 21.060 10.260 12.080 10.254 C 6.928 10.250,3.036 10.263,2.949 10.283 M8.267 15.803 C 8.516 15.896,8.758 16.241,8.758 16.500 C 8.758 16.759,8.516 17.104,8.267 17.197 C 8.197 17.224,7.719 17.240,7.000 17.240 C 6.281 17.240,5.803 17.224,5.733 17.197 C 5.488 17.105,5.243 16.761,5.241 16.509 C 5.239 16.257,5.460 15.924,5.700 15.817 C 5.853 15.748,8.092 15.736,8.267 15.803 M14.832 15.836 C 15.094 15.969,15.240 16.208,15.240 16.500 C 15.240 16.792,15.094 17.031,14.832 17.164 C 14.691 17.236,14.563 17.240,12.500 17.240 C 10.437 17.240,10.309 17.236,10.168 17.164 C 9.999 17.078,9.917 16.994,9.825 16.812 C 9.697 16.559,9.776 16.139,9.986 15.955 C 10.210 15.759,10.155 15.763,12.492 15.762 C 14.565 15.760,14.691 15.764,14.832 15.836 " fill="#292D32" stroke="none" fill-rule="evenodd"></path></svg>