<svg width="24" height="24" viewBox="0 0 24 24" fill="none" xmlns="http://www.w3.org/2000/svg"><path d="M4.664 2.044 C 4.225 2.103,3.927 2.192,3.540 2.379 C 2.766 2.753,2.325 3.352,2.095 4.340 C 2.028 4.624,2.020 4.841,2.020 6.280 C 2.020 7.719,2.028 7.936,2.095 8.220 C 2.392 9.498,3.062 10.168,4.340 10.465 C 4.624 10.532,4.841 10.540,6.280 10.540 C 7.719 10.540,7.936 10.532,8.220 10.465 C 9.498 10.168,10.168 9.498,10.465 8.220 C 10.532 7.935,10.540 7.718,10.540 6.240 C 10.540 4.630,10.537 4.569,10.447 4.220 C 10.145 3.057,9.442 2.379,8.244 2.093 C 8.034 2.043,7.672 2.028,6.460 2.019 C 5.624 2.012,4.816 2.023,4.664 2.044 M16.104 2.044 C 15.662 2.103,15.366 2.192,14.964 2.386 C 14.439 2.639,14.079 2.999,13.826 3.524 C 13.495 4.211,13.440 4.602,13.440 6.280 C 13.440 7.958,13.495 8.349,13.826 9.036 C 14.172 9.753,14.812 10.234,15.702 10.445 C 16.021 10.521,16.212 10.532,17.464 10.549 C 19.327 10.574,19.749 10.521,20.476 10.173 C 21.319 9.769,21.808 8.998,21.959 7.836 C 22.009 7.452,22.009 5.108,21.959 4.724 C 21.897 4.244,21.804 3.924,21.613 3.524 C 21.270 2.808,20.629 2.327,19.738 2.115 C 19.411 2.037,19.248 2.029,17.880 2.018 C 17.055 2.012,16.256 2.023,16.104 2.044 M4.538 13.496 C 3.434 13.673,2.633 14.265,2.278 15.165 C 2.053 15.737,2.031 15.923,2.011 17.442 C 1.999 18.332,2.008 18.995,2.035 19.215 C 2.239 20.884,3.084 21.746,4.724 21.959 C 5.108 22.009,7.452 22.009,7.836 21.959 C 8.316 21.897,8.636 21.804,9.036 21.613 C 9.758 21.266,10.234 20.629,10.449 19.718 C 10.534 19.360,10.539 19.256,10.539 17.720 C 10.540 16.029,10.532 15.926,10.353 15.360 C 10.214 14.924,10.041 14.641,9.700 14.295 C 9.332 13.921,8.941 13.706,8.360 13.555 C 8.042 13.473,7.918 13.466,6.440 13.456 C 5.295 13.448,4.771 13.459,4.538 13.496 M16.120 13.466 C 15.847 13.499,15.296 13.651,15.054 13.760 C 14.457 14.030,13.959 14.553,13.718 15.165 C 13.491 15.740,13.470 15.922,13.451 17.444 C 13.428 19.256,13.481 19.735,13.779 20.380 C 14.151 21.188,14.803 21.676,15.800 21.893 C 16.148 21.970,16.309 21.977,17.720 21.977 C 19.131 21.977,19.292 21.970,19.640 21.893 C 21.047 21.586,21.778 20.744,21.965 19.217 C 22.033 18.657,21.988 16.136,21.902 15.763 C 21.716 14.953,21.353 14.376,20.787 13.991 C 20.490 13.789,20.227 13.674,19.800 13.558 C 19.474 13.470,19.392 13.466,17.860 13.458 C 16.980 13.453,16.197 13.457,16.120 13.466 " fill="#292D32" stroke="none" fill-rule="evenodd"></path></svg>