<svg width="24" height="24" viewBox="0 0 24 24" fill="none" xmlns="http://www.w3.org/2000/svg"><path d="M5.820 2.027 C 3.947 2.268,2.517 3.568,2.090 5.419 C 2.045 5.616,2.026 5.885,2.028 6.320 C 2.030 7.088,2.128 7.514,2.458 8.180 C 2.814 8.898,3.285 9.439,3.919 9.857 C 4.660 10.345,5.388 10.559,6.306 10.560 C 8.404 10.561,10.190 9.032,10.522 6.949 C 10.598 6.473,10.551 5.632,10.423 5.168 C 10.219 4.429,9.870 3.830,9.321 3.276 C 8.824 2.775,8.292 2.444,7.621 2.219 C 7.109 2.047,6.320 1.963,5.820 2.027 M16.115 2.040 C 14.936 2.186,14.060 2.815,13.701 3.775 C 13.474 4.380,13.460 4.529,13.460 6.280 C 13.460 7.719,13.468 7.936,13.535 8.220 C 13.832 9.498,14.502 10.168,15.780 10.465 C 16.064 10.532,16.281 10.540,17.720 10.540 C 19.160 10.540,19.376 10.532,19.660 10.465 C 20.887 10.179,21.547 9.554,21.871 8.371 L 21.978 7.980 21.978 6.280 L 21.978 4.580 21.871 4.189 C 21.631 3.312,21.215 2.764,20.512 2.398 C 20.339 2.308,20.023 2.188,19.809 2.131 C 19.427 2.029,19.393 2.027,17.900 2.017 C 17.064 2.011,16.261 2.021,16.115 2.040 M4.538 13.496 C 3.434 13.673,2.633 14.265,2.278 15.165 C 2.053 15.737,2.031 15.923,2.011 17.442 C 1.999 18.332,2.008 18.995,2.035 19.215 C 2.239 20.884,3.084 21.746,4.724 21.959 C 5.108 22.009,7.452 22.009,7.836 21.959 C 8.316 21.897,8.636 21.804,9.036 21.613 C 9.758 21.266,10.234 20.629,10.449 19.718 C 10.534 19.360,10.539 19.256,10.539 17.720 C 10.540 16.029,10.532 15.926,10.353 15.360 C 10.214 14.924,10.041 14.641,9.700 14.295 C 9.332 13.921,8.941 13.706,8.360 13.555 C 8.042 13.473,7.918 13.466,6.440 13.456 C 5.295 13.448,4.771 13.459,4.538 13.496 M16.905 13.500 C 15.148 13.865,13.830 15.193,13.500 16.930 C 13.423 17.337,13.423 18.052,13.500 18.494 C 13.812 20.283,15.302 21.702,17.137 21.957 C 19.116 22.232,21.101 21.025,21.742 19.156 C 22.563 16.764,21.249 14.249,18.828 13.575 C 18.521 13.490,18.353 13.470,17.820 13.458 C 17.368 13.447,17.099 13.459,16.905 13.500 " fill="#292D32" stroke="none" fill-rule="evenodd"></path></svg>