<svg width="24" height="24" viewBox="0 0 24 24" fill="none" xmlns="http://www.w3.org/2000/svg"><path d="M11.120 2.039 C 8.336 2.318,5.905 3.624,4.193 5.760 C 1.474 9.155,1.267 13.917,3.682 17.533 C 6.770 22.155,12.946 23.386,17.560 20.299 C 22.155 17.225,23.377 11.041,20.299 6.440 C 18.728 4.092,16.319 2.562,13.493 2.119 C 12.909 2.027,11.660 1.985,11.120 2.039 M12.592 9.581 C 13.482 9.790,14.210 10.519,14.420 11.410 C 14.547 11.948,14.475 12.605,14.237 13.095 C 13.810 13.969,12.981 14.485,12.000 14.485 C 11.019 14.485,10.190 13.969,9.763 13.095 C 9.437 12.424,9.436 11.566,9.763 10.908 C 10.095 10.238,10.693 9.752,11.392 9.582 C 11.697 9.508,12.281 9.507,12.592 9.581 " fill="#292D32" stroke="none" fill-rule="evenodd"></path></svg>