<svg width="24" height="24" viewBox="0 0 24 24" fill="none" xmlns="http://www.w3.org/2000/svg"><path d="M11.056 2.059 C 10.456 2.190,10.091 2.519,9.871 3.127 L 9.780 3.380 9.760 11.940 L 9.740 20.500 8.370 20.511 L 7.000 20.521 6.999 15.111 C 6.997 9.203,7.002 9.324,6.767 8.822 C 6.564 8.388,6.232 8.129,5.763 8.041 C 5.487 7.988,4.513 7.988,4.237 8.041 C 3.768 8.129,3.436 8.388,3.233 8.822 C 2.998 9.324,3.003 9.203,3.001 15.110 L 3.000 20.520 2.390 20.520 C 1.828 20.520,1.768 20.528,1.633 20.610 C 1.438 20.729,1.333 20.870,1.274 21.091 C 1.186 21.420,1.366 21.774,1.698 21.925 C 1.854 21.995,2.248 21.998,12.000 21.998 C 21.752 21.998,22.146 21.995,22.302 21.925 C 22.567 21.804,22.759 21.508,22.760 21.218 C 22.760 21.044,22.558 20.722,22.383 20.619 C 22.222 20.525,22.180 20.520,21.606 20.520 L 21.000 20.520 20.999 17.610 C 20.997 14.424,20.989 14.298,20.767 13.822 C 20.564 13.388,20.232 13.129,19.763 13.041 C 19.487 12.988,18.513 12.988,18.237 13.041 C 17.768 13.129,17.436 13.388,17.233 13.822 C 17.011 14.298,17.003 14.424,17.001 17.611 L 17.000 20.521 15.630 20.511 L 14.260 20.500 14.240 11.940 L 14.220 3.380 14.129 3.127 C 13.906 2.510,13.544 2.189,12.925 2.058 C 12.582 1.985,11.394 1.986,11.056 2.059 " fill="#292D32" stroke="none" fill-rule="evenodd"></path></svg>