<svg width="24" height="24" viewBox="0 0 24 24" fill="none" xmlns="http://www.w3.org/2000/svg"><path d="M6.960 2.046 C 6.236 2.116,5.358 2.357,4.796 2.641 C 4.426 2.828,3.928 3.183,3.624 3.475 C 2.737 4.332,2.251 5.370,2.062 6.812 C 1.970 7.515,1.969 16.481,2.061 17.188 C 2.239 18.550,2.681 19.544,3.476 20.372 C 4.162 21.084,4.935 21.524,5.956 21.780 C 6.817 21.997,6.896 22.000,11.993 22.000 C 14.960 22.000,16.828 21.985,17.041 21.959 C 19.985 21.603,21.695 19.840,21.962 16.885 C 21.990 16.579,21.999 14.787,21.989 11.660 C 21.974 7.001,21.972 6.891,21.889 6.456 C 21.642 5.171,21.165 4.235,20.369 3.478 C 19.583 2.729,18.652 2.295,17.359 2.076 C 16.995 2.014,7.572 1.987,6.960 2.046 M13.107 6.660 C 13.369 6.738,13.664 6.998,13.785 7.258 L 13.879 7.460 13.880 12.271 L 13.880 17.081 13.743 17.231 L 13.606 17.380 12.093 17.392 C 10.418 17.406,10.325 17.396,10.198 17.188 C 10.122 17.063,10.120 16.947,10.121 12.260 L 10.121 7.460 10.215 7.258 C 10.331 7.008,10.632 6.738,10.876 6.662 C 11.147 6.579,12.828 6.577,13.107 6.660 M8.899 11.247 C 9.124 11.423,9.120 11.369,9.118 14.269 C 9.116 16.229,9.103 16.977,9.068 17.079 C 9.040 17.158,8.962 17.256,8.884 17.309 C 8.748 17.400,8.746 17.400,7.224 17.399 C 5.559 17.399,5.571 17.400,5.411 17.164 L 5.320 17.028 5.320 14.581 C 5.320 12.526,5.330 12.102,5.380 11.933 C 5.458 11.671,5.718 11.376,5.978 11.255 C 6.177 11.162,6.200 11.161,7.485 11.160 C 8.763 11.160,8.791 11.162,8.899 11.247 M18.004 12.951 C 18.243 13.068,18.469 13.294,18.575 13.520 C 18.657 13.693,18.660 13.767,18.672 15.349 C 18.685 17.175,18.686 17.164,18.428 17.322 C 18.307 17.395,18.217 17.400,16.776 17.400 C 15.255 17.400,15.252 17.400,15.116 17.309 C 15.038 17.256,14.960 17.158,14.932 17.079 C 14.881 16.929,14.857 13.486,14.905 13.243 C 14.935 13.095,15.120 12.894,15.250 12.867 C 15.300 12.856,15.898 12.851,16.580 12.854 C 17.782 12.860,17.826 12.863,18.004 12.951 " fill="#292D32" stroke="none" fill-rule="evenodd"></path></svg>