<svg width="24" height="24" viewBox="0 0 24 24" fill="none" xmlns="http://www.w3.org/2000/svg"><path d="M6.960 2.046 C 6.236 2.116,5.358 2.357,4.796 2.641 C 4.426 2.828,3.928 3.183,3.624 3.475 C 2.737 4.332,2.251 5.370,2.062 6.812 C 1.970 7.515,1.969 16.481,2.061 17.188 C 2.239 18.550,2.681 19.544,3.476 20.372 C 4.162 21.084,4.935 21.524,5.956 21.780 C 6.817 21.997,6.896 22.000,11.993 22.000 C 14.960 22.000,16.828 21.985,17.041 21.959 C 19.985 21.603,21.695 19.840,21.962 16.885 C 21.990 16.579,21.999 14.787,21.989 11.660 C 21.974 7.001,21.972 6.891,21.889 6.456 C 21.642 5.171,21.165 4.235,20.369 3.478 C 19.583 2.729,18.652 2.295,17.359 2.076 C 16.995 2.014,7.572 1.987,6.960 2.046 M15.700 6.740 C 15.955 6.848,16.149 7.031,16.275 7.283 L 16.400 7.533 16.400 12.000 L 16.400 16.467 16.276 16.715 C 15.848 17.572,14.638 17.556,14.212 16.687 L 14.100 16.460 14.100 12.000 C 14.100 7.559,14.100 7.539,14.184 7.360 C 14.410 6.873,14.860 6.612,15.380 6.668 C 15.490 6.679,15.634 6.712,15.700 6.740 M9.267 11.905 C 9.505 12.018,9.695 12.216,9.816 12.478 C 9.898 12.655,9.900 12.713,9.900 14.560 C 9.900 16.407,9.898 16.465,9.816 16.642 C 9.566 17.183,8.979 17.464,8.434 17.306 C 8.114 17.213,7.872 17.011,7.724 16.715 L 7.600 16.467 7.600 14.557 L 7.600 12.647 7.731 12.393 C 8.022 11.831,8.676 11.623,9.267 11.905 " fill="#292D32" stroke="none" fill-rule="evenodd"></path></svg>