<svg width="24" height="24" viewBox="0 0 24 24" fill="none" xmlns="http://www.w3.org/2000/svg"><path d="M7.260 2.027 C 5.967 2.151,4.730 2.725,3.786 3.638 C 2.917 4.478,2.376 5.452,2.110 6.652 L 2.020 7.060 2.020 12.000 L 2.020 16.940 2.110 17.348 C 2.374 18.541,2.856 19.418,3.719 20.281 C 4.575 21.137,5.445 21.617,6.632 21.888 C 7.014 21.974,7.077 21.976,10.575 21.990 C 14.589 22.005,14.383 22.019,14.700 21.702 C 14.995 21.407,15.000 21.373,15.000 19.483 C 15.000 18.515,15.018 17.711,15.043 17.560 C 15.250 16.275,16.275 15.250,17.560 15.043 C 17.711 15.018,18.515 15.000,19.483 15.000 C 21.373 15.000,21.407 14.995,21.702 14.700 C 22.019 14.383,22.005 14.589,21.990 10.575 C 21.976 7.077,21.974 7.014,21.888 6.632 C 21.620 5.459,21.138 4.579,20.301 3.736 C 19.441 2.871,18.531 2.374,17.321 2.109 C 16.947 2.027,16.847 2.025,12.180 2.018 C 9.562 2.015,7.348 2.019,7.260 2.027 M7.429 9.907 C 7.751 10.167,7.740 10.093,7.740 11.960 C 7.740 12.873,7.726 13.669,7.709 13.729 C 7.667 13.881,7.447 14.121,7.292 14.186 C 7.127 14.255,6.873 14.255,6.708 14.186 C 6.553 14.121,6.333 13.881,6.291 13.729 C 6.274 13.669,6.260 12.873,6.260 11.960 C 6.260 10.158,6.257 10.186,6.486 9.973 C 6.665 9.806,6.807 9.755,7.049 9.770 C 7.233 9.782,7.309 9.810,7.429 9.907 M12.429 9.907 C 12.751 10.167,12.740 10.093,12.740 11.960 C 12.740 12.873,12.726 13.669,12.709 13.729 C 12.667 13.881,12.447 14.121,12.292 14.186 C 12.127 14.255,11.873 14.255,11.708 14.186 C 11.553 14.121,11.333 13.881,11.291 13.729 C 11.274 13.669,11.260 12.873,11.260 11.960 C 11.260 10.158,11.257 10.186,11.486 9.973 C 11.665 9.806,11.807 9.755,12.049 9.770 C 12.233 9.782,12.309 9.810,12.429 9.907 M17.591 16.040 C 16.746 16.188,16.231 16.685,16.057 17.519 C 16.005 17.771,15.997 18.108,16.009 19.639 C 16.022 21.383,16.027 21.471,16.110 21.720 C 16.313 22.327,16.692 22.700,17.300 22.892 C 17.573 22.978,17.631 22.980,19.500 22.980 C 21.369 22.980,21.427 22.978,21.700 22.892 C 22.318 22.697,22.697 22.318,22.892 21.700 C 22.978 21.427,22.980 21.369,22.980 19.500 C 22.980 17.631,22.978 17.573,22.892 17.300 C 22.700 16.692,22.327 16.313,21.720 16.110 C 21.470 16.026,21.392 16.023,19.620 16.015 C 18.608 16.011,17.695 16.022,17.591 16.040 M18.272 17.417 C 18.331 17.449,18.632 17.728,18.939 18.037 L 19.499 18.600 20.079 18.024 C 20.399 17.708,20.699 17.429,20.747 17.404 C 20.875 17.340,21.147 17.350,21.308 17.426 C 21.585 17.558,21.725 17.941,21.606 18.240 C 21.584 18.295,21.313 18.592,21.003 18.899 C 20.693 19.207,20.440 19.477,20.440 19.500 C 20.440 19.523,20.684 19.784,20.983 20.081 C 21.281 20.377,21.553 20.672,21.586 20.734 C 21.720 20.987,21.631 21.354,21.395 21.530 C 21.276 21.618,20.983 21.664,20.812 21.622 C 20.743 21.604,20.478 21.374,20.118 21.017 C 19.798 20.700,19.519 20.440,19.498 20.440 C 19.476 20.440,19.216 20.684,18.919 20.983 C 18.623 21.281,18.331 21.551,18.272 21.583 C 17.922 21.768,17.436 21.530,17.373 21.143 C 17.320 20.818,17.367 20.741,18.003 20.099 L 18.599 19.498 18.037 18.939 C 17.728 18.632,17.449 18.331,17.417 18.272 C 17.152 17.771,17.771 17.152,18.272 17.417 " fill="#292D32" stroke="none" fill-rule="evenodd"></path></svg>