<svg width="24" height="24" viewBox="0 0 24 24" fill="none" xmlns="http://www.w3.org/2000/svg"><path d="M18.126 2.046 C 17.797 2.140,17.524 2.428,17.440 2.767 C 17.410 2.887,17.401 5.284,17.409 10.600 C 17.420 18.084,17.422 18.264,17.497 18.416 C 17.596 18.615,17.785 18.804,17.984 18.903 C 18.126 18.973,18.232 18.980,19.200 18.980 C 20.168 18.980,20.274 18.973,20.416 18.903 C 20.615 18.804,20.804 18.615,20.903 18.416 C 20.978 18.264,20.980 18.085,20.990 10.582 C 21.002 1.943,21.027 2.633,20.697 2.304 C 20.420 2.026,20.285 1.999,19.183 2.004 C 18.675 2.006,18.200 2.025,18.126 2.046 M10.865 5.257 C 10.638 5.340,10.434 5.522,10.320 5.743 L 10.220 5.938 10.210 12.017 C 10.198 18.865,10.177 18.379,10.498 18.700 C 10.767 18.969,10.921 19.000,12.000 19.000 C 13.050 19.000,13.219 18.969,13.467 18.728 C 13.553 18.645,13.658 18.505,13.702 18.418 C 13.778 18.263,13.780 18.128,13.792 12.220 C 13.801 7.896,13.792 6.121,13.760 5.973 C 13.703 5.707,13.533 5.475,13.292 5.333 L 13.100 5.220 12.060 5.211 C 11.246 5.203,10.986 5.213,10.865 5.257 M3.617 8.457 C 3.435 8.536,3.207 8.750,3.108 8.936 L 3.020 9.100 3.020 13.680 C 3.020 18.130,3.022 18.264,3.097 18.416 C 3.196 18.615,3.385 18.804,3.584 18.903 C 3.726 18.973,3.832 18.980,4.800 18.980 C 5.768 18.980,5.874 18.973,6.016 18.903 C 6.215 18.804,6.404 18.615,6.503 18.416 C 6.578 18.264,6.580 18.130,6.580 13.680 L 6.580 9.100 6.492 8.936 C 6.390 8.746,6.162 8.533,5.974 8.455 C 5.788 8.377,3.796 8.379,3.617 8.457 M2.785 21.289 C 2.578 21.344,2.337 21.590,2.279 21.804 C 2.193 22.122,2.334 22.463,2.627 22.645 L 2.780 22.740 12.000 22.740 L 21.220 22.740 21.373 22.645 C 21.747 22.412,21.859 21.935,21.619 21.596 C 21.554 21.503,21.428 21.390,21.340 21.344 L 21.180 21.260 12.060 21.254 C 5.905 21.250,2.890 21.261,2.785 21.289 " fill="#292D32" stroke="none" fill-rule="evenodd"></path></svg>