<svg width="24" height="24" viewBox="0 0 24 24" fill="none" xmlns="http://www.w3.org/2000/svg"><path d="M7.112 2.045 C 5.798 2.199,4.556 2.827,3.611 3.815 C 2.843 4.619,2.366 5.530,2.113 6.680 L 2.020 7.100 2.020 12.000 L 2.020 16.900 2.113 17.320 C 2.382 18.540,2.862 19.428,3.717 20.283 C 4.572 21.138,5.460 21.618,6.680 21.887 L 7.100 21.980 10.680 21.980 C 14.141 21.980,14.265 21.977,14.416 21.903 C 14.615 21.804,14.804 21.615,14.903 21.416 C 14.975 21.270,14.981 21.133,15.002 19.360 C 15.024 17.513,15.027 17.452,15.117 17.180 C 15.455 16.155,16.155 15.455,17.180 15.117 C 17.452 15.027,17.513 15.024,19.360 15.002 C 21.133 14.981,21.270 14.975,21.416 14.903 C 21.615 14.804,21.804 14.615,21.903 14.416 C 21.977 14.265,21.980 14.141,21.980 10.680 C 21.980 7.123,21.979 7.097,21.891 6.697 C 21.615 5.455,21.141 4.575,20.283 3.717 C 19.435 2.869,18.554 2.390,17.340 2.115 L 16.940 2.024 12.180 2.016 C 9.558 2.012,7.282 2.025,7.112 2.045 M7.267 9.803 C 7.427 9.863,7.598 10.034,7.684 10.220 C 7.752 10.367,7.758 10.507,7.758 12.000 C 7.758 13.493,7.752 13.633,7.684 13.780 C 7.547 14.075,7.303 14.240,7.000 14.240 C 6.697 14.240,6.453 14.075,6.316 13.780 C 6.248 13.633,6.242 13.492,6.241 12.009 C 6.240 10.253,6.243 10.230,6.472 9.985 C 6.668 9.777,6.998 9.701,7.267 9.803 M12.267 9.803 C 12.427 9.863,12.598 10.034,12.684 10.220 C 12.752 10.367,12.758 10.507,12.758 12.000 C 12.758 13.493,12.752 13.633,12.684 13.780 C 12.547 14.075,12.303 14.240,12.000 14.240 C 11.697 14.240,11.453 14.075,11.316 13.780 C 11.248 13.633,11.242 13.492,11.241 12.009 C 11.240 10.253,11.243 10.230,11.472 9.985 C 11.668 9.777,11.998 9.701,12.267 9.803 M17.429 16.063 C 16.706 16.238,16.233 16.716,16.061 17.447 C 15.973 17.818,15.973 21.182,16.061 21.553 C 16.235 22.292,16.708 22.765,17.447 22.939 C 17.818 23.027,21.182 23.027,21.553 22.939 C 22.292 22.765,22.765 22.292,22.939 21.553 C 23.027 21.182,23.027 17.818,22.939 17.447 C 22.765 16.708,22.292 16.235,21.553 16.061 C 21.196 15.977,17.778 15.978,17.429 16.063 M21.565 17.745 C 21.730 17.903,21.784 18.105,21.709 18.282 C 21.618 18.497,19.225 21.270,19.064 21.346 C 18.969 21.392,18.883 21.402,18.774 21.382 C 18.644 21.358,18.520 21.254,17.969 20.708 C 17.510 20.252,17.308 20.023,17.282 19.930 C 17.185 19.578,17.507 19.231,17.869 19.299 C 17.988 19.321,18.103 19.410,18.426 19.727 L 18.832 20.128 19.880 18.906 C 20.498 18.185,20.972 17.667,21.034 17.643 C 21.207 17.577,21.435 17.621,21.565 17.745 " fill="#292D32" stroke="none" fill-rule="evenodd"></path></svg>