<svg width="24" height="24" viewBox="0 0 24 24" fill="none" xmlns="http://www.w3.org/2000/svg"><path d="M11.120 2.039 C 8.336 2.318,5.905 3.624,4.193 5.760 C 1.474 9.155,1.267 13.917,3.682 17.533 C 6.770 22.155,12.946 23.386,17.560 20.299 C 22.155 17.225,23.377 11.041,20.299 6.440 C 18.728 4.092,16.319 2.562,13.493 2.119 C 12.909 2.027,11.660 1.985,11.120 2.039 M13.000 4.325 C 14.603 4.515,16.159 5.266,17.375 6.436 C 20.287 9.239,20.541 13.846,17.953 16.940 C 16.812 18.306,15.307 19.215,13.583 19.582 C 11.120 20.107,8.514 19.366,6.684 17.621 C 5.254 16.257,4.421 14.497,4.282 12.543 C 4.233 11.869,4.266 11.694,4.480 11.480 C 4.747 11.213,5.156 11.188,5.464 11.421 C 5.670 11.577,5.729 11.757,5.765 12.348 C 5.836 13.510,6.197 14.569,6.854 15.540 C 7.173 16.013,7.987 16.827,8.460 17.146 C 9.144 17.609,9.837 17.911,10.663 18.105 C 11.108 18.210,11.197 18.218,12.000 18.218 C 12.803 18.218,12.892 18.210,13.340 18.105 C 14.572 17.816,15.508 17.295,16.402 16.402 C 17.295 15.508,17.816 14.572,18.105 13.340 C 18.210 12.892,18.218 12.803,18.218 12.000 C 18.218 11.197,18.210 11.108,18.105 10.660 C 17.816 9.429,17.296 8.494,16.402 7.597 C 15.267 6.460,13.958 5.874,12.312 5.766 C 11.859 5.737,11.743 5.716,11.624 5.643 C 11.205 5.384,11.136 4.824,11.481 4.479 C 11.563 4.397,11.699 4.312,11.785 4.289 C 11.951 4.245,12.450 4.259,13.000 4.325 M12.920 7.347 C 13.864 7.533,14.751 8.021,15.422 8.724 C 15.802 9.122,16.041 9.469,16.279 9.966 C 16.899 11.265,16.893 12.769,16.262 14.062 C 15.507 15.610,14.046 16.603,12.320 16.742 C 11.885 16.777,11.684 16.724,11.484 16.524 C 11.212 16.252,11.187 15.846,11.421 15.536 C 11.563 15.349,11.758 15.277,12.230 15.235 C 13.056 15.164,13.703 14.864,14.284 14.284 C 14.685 13.882,14.903 13.534,15.087 13.000 C 15.213 12.634,15.218 12.597,15.218 12.000 C 15.218 11.403,15.213 11.366,15.087 11.000 C 14.898 10.451,14.687 10.118,14.264 9.700 C 13.681 9.124,13.044 8.836,12.191 8.764 C 11.600 8.714,11.393 8.578,11.283 8.171 C 11.187 7.813,11.431 7.384,11.785 7.289 C 11.972 7.239,12.508 7.266,12.920 7.347 " fill="#292D32" stroke="none" fill-rule="evenodd"></path></svg>