<svg width="24" height="24" viewBox="0 0 24 24" fill="none" xmlns="http://www.w3.org/2000/svg"><path d="M6.960 2.046 C 6.236 2.116,5.358 2.357,4.796 2.641 C 4.426 2.828,3.928 3.183,3.624 3.475 C 2.737 4.332,2.251 5.370,2.062 6.812 C 1.969 7.517,1.969 16.483,2.062 17.188 C 2.252 18.643,2.742 19.681,3.644 20.541 C 4.468 21.326,5.450 21.760,6.812 21.938 C 7.517 22.031,16.483 22.031,17.188 21.938 C 18.550 21.760,19.532 21.326,20.356 20.541 C 21.258 19.681,21.748 18.643,21.938 17.188 C 22.031 16.483,22.031 7.517,21.938 6.812 C 21.746 5.341,21.253 4.307,20.332 3.440 C 19.574 2.726,18.626 2.291,17.359 2.076 C 16.995 2.014,7.572 1.987,6.960 2.046 M12.429 8.067 C 12.512 8.134,12.616 8.250,12.660 8.324 C 12.738 8.457,12.740 8.532,12.740 11.960 C 12.740 13.885,12.726 15.509,12.709 15.569 C 12.667 15.721,12.447 15.961,12.292 16.026 C 12.127 16.095,11.873 16.095,11.708 16.026 C 11.553 15.961,11.333 15.721,11.291 15.569 C 11.274 15.509,11.260 13.885,11.260 11.960 C 11.260 8.134,11.247 8.355,11.486 8.133 C 11.665 7.966,11.807 7.915,12.049 7.930 C 12.233 7.942,12.309 7.970,12.429 8.067 M7.352 9.749 C 7.524 9.830,7.663 10.015,7.719 10.240 C 7.750 10.363,7.760 10.952,7.752 12.100 C 7.740 13.714,7.737 13.786,7.656 13.940 C 7.610 14.028,7.497 14.154,7.404 14.219 C 7.263 14.319,7.196 14.339,7.000 14.339 C 6.804 14.339,6.737 14.319,6.596 14.219 C 6.503 14.154,6.390 14.028,6.344 13.940 C 6.263 13.787,6.259 13.713,6.247 12.120 C 6.232 10.221,6.243 10.117,6.478 9.882 C 6.716 9.644,7.029 9.597,7.352 9.749 M17.352 9.749 C 17.524 9.830,17.663 10.015,17.719 10.240 C 17.750 10.363,17.760 10.952,17.752 12.100 C 17.740 13.714,17.737 13.786,17.656 13.940 C 17.610 14.028,17.497 14.154,17.404 14.219 C 17.263 14.319,17.196 14.339,17.000 14.339 C 16.804 14.339,16.737 14.319,16.596 14.219 C 16.503 14.154,16.390 14.028,16.344 13.940 C 16.263 13.787,16.259 13.713,16.247 12.120 C 16.232 10.221,16.243 10.117,16.478 9.882 C 16.716 9.644,17.029 9.597,17.352 9.749 " fill="#292D32" stroke="none" fill-rule="evenodd"></path></svg>