<svg width="24" height="24" viewBox="0 0 24 24" fill="none" xmlns="http://www.w3.org/2000/svg"><path d="M14.700 2.076 C 14.506 2.165,14.384 2.292,14.302 2.489 C 14.247 2.622,14.240 3.640,14.240 12.000 C 14.240 22.189,14.225 21.508,14.452 21.755 C 14.570 21.884,14.828 21.998,15.000 21.998 C 15.310 21.998,15.635 21.750,15.718 21.449 C 15.741 21.367,15.760 21.008,15.760 20.650 L 15.760 20.000 16.971 20.000 C 18.303 20.000,18.685 19.968,19.173 19.814 C 20.679 19.339,21.766 18.051,21.958 16.514 C 22.015 16.062,22.015 7.938,21.958 7.486 C 21.737 5.722,20.318 4.290,18.545 4.043 C 18.374 4.019,17.678 4.000,16.997 4.000 L 15.760 4.000 15.759 3.310 C 15.758 2.725,15.747 2.596,15.684 2.460 C 15.503 2.068,15.077 1.902,14.700 2.076 M5.420 4.043 C 5.082 4.092,4.551 4.264,4.221 4.430 C 3.035 5.026,2.224 6.153,2.043 7.455 C 1.983 7.885,1.983 16.115,2.043 16.545 C 2.292 18.337,3.741 19.756,5.531 19.962 C 5.767 19.989,6.870 20.000,8.580 19.992 C 11.137 19.981,11.267 19.976,11.416 19.903 C 11.615 19.804,11.804 19.615,11.903 19.416 C 11.978 19.263,11.980 19.101,11.980 12.000 C 11.980 4.899,11.978 4.737,11.903 4.584 C 11.804 4.385,11.615 4.196,11.416 4.097 C 11.267 4.023,11.143 4.020,8.460 4.014 C 6.920 4.011,5.552 4.024,5.420 4.043 M7.267 7.803 C 7.427 7.863,7.598 8.034,7.684 8.220 C 7.755 8.372,7.758 8.561,7.758 12.000 C 7.758 15.439,7.755 15.628,7.684 15.780 C 7.398 16.399,6.602 16.399,6.316 15.780 C 6.245 15.628,6.242 15.438,6.241 12.009 C 6.240 8.059,6.229 8.244,6.472 7.985 C 6.668 7.777,6.998 7.701,7.267 7.803 " fill="#292D32" stroke="none" fill-rule="evenodd"></path></svg>