<svg width="24" height="24" viewBox="0 0 24 24" fill="none" xmlns="http://www.w3.org/2000/svg"><path d="M11.100 2.042 C 8.576 2.303,6.371 3.386,4.668 5.202 C 4.216 5.685,4.231 5.566,4.528 6.359 C 4.913 7.388,5.691 9.024,6.002 9.457 C 6.243 9.792,6.662 9.937,7.057 9.823 C 7.344 9.739,7.533 9.570,7.820 9.139 C 8.564 8.020,9.797 7.208,11.098 6.981 C 11.292 6.948,11.520 6.920,11.606 6.920 C 11.691 6.920,11.928 6.885,12.131 6.841 C 13.839 6.478,15.939 6.309,17.691 6.394 C 18.627 6.440,19.513 6.518,20.017 6.600 C 20.468 6.673,20.466 6.674,20.287 6.410 C 19.933 5.890,19.517 5.392,19.042 4.920 C 17.460 3.346,15.508 2.387,13.260 2.079 C 12.820 2.019,11.537 1.997,11.100 2.042 M2.924 7.804 C 2.248 9.259,1.924 11.011,2.038 12.586 C 2.194 14.731,2.925 16.592,4.268 18.260 C 4.628 18.708,5.354 19.431,5.782 19.768 C 6.796 20.568,7.995 21.188,9.205 21.540 C 9.627 21.663,10.521 21.857,10.539 21.831 C 10.543 21.825,10.664 21.676,10.806 21.500 C 11.661 20.447,12.792 18.754,12.950 18.290 C 13.067 17.944,12.924 17.489,12.627 17.263 C 12.394 17.085,12.216 17.037,11.645 16.999 C 10.101 16.895,8.780 16.180,7.890 14.966 C 7.767 14.798,7.559 14.544,7.428 14.403 C 5.837 12.686,4.273 10.248,3.320 8.000 C 3.204 7.725,3.102 7.493,3.095 7.484 C 3.087 7.475,3.010 7.619,2.924 7.804 M16.845 8.012 C 16.467 8.157,16.224 8.529,16.224 8.960 C 16.224 9.194,16.246 9.267,16.429 9.642 C 16.816 10.433,16.971 11.074,16.970 11.880 C 16.968 12.655,16.828 13.296,16.514 13.960 C 16.426 14.147,16.263 14.558,16.154 14.874 C 15.321 17.270,13.892 19.866,12.391 21.710 C 12.118 22.045,12.081 22.022,12.800 21.959 C 15.217 21.750,17.369 20.753,19.061 19.061 C 20.858 17.264,21.869 14.952,21.985 12.380 C 22.039 11.191,21.809 9.683,21.413 8.621 C 21.339 8.425,21.337 8.423,21.099 8.373 C 19.700 8.083,17.210 7.871,16.845 8.012 M11.256 8.659 C 10.327 8.861,9.490 9.484,9.005 10.332 C 8.689 10.884,8.526 11.695,8.599 12.351 C 8.760 13.796,9.773 14.962,11.180 15.323 C 11.846 15.494,12.742 15.412,13.381 15.122 C 14.372 14.673,15.117 13.747,15.342 12.686 C 15.418 12.331,15.415 11.668,15.336 11.289 C 15.069 9.995,14.003 8.929,12.712 8.663 C 12.339 8.587,11.599 8.585,11.256 8.659 " fill="#292D32" stroke="none" fill-rule="evenodd"></path></svg>