<svg width="24" height="24" viewBox="0 0 24 24" fill="none" xmlns="http://www.w3.org/2000/svg"><path d="M9.160 2.073 C 8.509 2.243,7.993 2.762,7.821 3.421 C 7.739 3.736,7.736 4.968,7.817 5.270 C 7.959 5.805,8.337 6.269,8.820 6.501 C 9.265 6.716,9.443 6.726,12.220 6.711 C 14.668 6.698,14.703 6.696,14.937 6.609 C 15.585 6.365,16.028 5.874,16.180 5.231 C 16.251 4.928,16.261 3.827,16.196 3.512 C 16.087 2.993,15.707 2.474,15.255 2.231 C 14.836 2.005,14.772 2.001,11.980 2.003 C 9.703 2.004,9.391 2.012,9.160 2.073 M5.760 4.134 C 5.383 4.269,4.707 4.802,4.336 5.255 C 3.735 5.989,3.414 6.769,3.318 7.729 C 3.291 7.995,3.282 9.894,3.291 13.120 C 3.307 18.557,3.294 18.250,3.540 18.983 C 3.898 20.050,4.748 21.015,5.791 21.536 C 6.130 21.706,6.686 21.877,7.108 21.940 C 7.691 22.028,16.309 22.028,16.892 21.940 C 18.934 21.633,20.479 19.996,20.680 17.929 C 20.729 17.425,20.729 8.272,20.680 7.728 C 20.552 6.302,19.741 5.003,18.530 4.283 C 18.158 4.062,17.950 4.036,17.671 4.174 C 17.362 4.326,17.275 4.478,17.237 4.933 C 17.196 5.417,17.141 5.632,16.961 6.020 C 16.669 6.649,16.230 7.101,15.620 7.402 C 14.995 7.710,15.119 7.700,12.000 7.700 C 9.461 7.700,9.197 7.694,8.960 7.629 C 8.131 7.402,7.429 6.834,7.067 6.097 C 6.883 5.725,6.801 5.424,6.764 4.986 C 6.721 4.484,6.603 4.281,6.271 4.142 C 6.094 4.068,5.949 4.066,5.760 4.134 M9.220 10.284 C 9.357 10.320,9.726 10.672,11.810 12.753 L 14.240 15.179 14.240 14.528 C 14.240 13.688,14.314 13.494,14.700 13.316 C 15.110 13.126,15.602 13.361,15.721 13.802 C 15.749 13.906,15.759 14.524,15.752 15.591 L 15.740 17.220 15.645 17.373 C 15.593 17.457,15.477 17.574,15.388 17.633 L 15.226 17.740 13.594 17.752 C 11.848 17.764,11.734 17.754,11.516 17.571 C 11.081 17.204,11.195 16.525,11.729 16.302 C 11.842 16.255,12.031 16.240,12.528 16.240 L 13.179 16.240 10.753 13.810 C 8.559 11.613,8.322 11.363,8.280 11.204 C 8.177 10.813,8.374 10.431,8.746 10.298 C 8.935 10.231,9.015 10.228,9.220 10.284 " fill="#292D32" stroke="none" fill-rule="evenodd"></path></svg>