<svg width="24" height="24" viewBox="0 0 24 24" fill="none" xmlns="http://www.w3.org/2000/svg"><path d="M6.660 2.058 C 4.732 2.324,3.634 3.457,3.063 5.768 C 2.888 6.476,2.062 11.706,1.998 12.511 C 1.914 13.557,2.056 14.536,2.397 15.263 C 2.992 16.533,4.285 17.338,6.340 17.719 C 6.870 17.817,11.203 18.500,11.810 18.581 C 14.190 18.898,15.781 18.377,16.722 16.970 C 17.113 16.384,17.471 15.448,17.657 14.520 C 17.775 13.929,18.537 9.034,18.598 8.472 C 18.754 7.029,18.525 5.755,17.957 4.915 C 17.330 3.986,16.261 3.379,14.620 3.021 C 14.013 2.889,8.926 2.093,8.360 2.042 C 7.772 1.989,7.118 1.995,6.660 2.058 M8.710 5.180 C 9.425 5.349,10.024 5.902,10.245 6.597 C 10.368 6.987,10.363 7.529,10.232 7.904 C 9.975 8.638,9.399 9.144,8.640 9.304 C 7.482 9.548,6.323 8.722,6.151 7.530 C 5.942 6.081,7.288 4.845,8.710 5.180 M19.608 8.393 C 19.556 9.027,18.764 14.163,18.616 14.829 C 18.420 15.711,18.228 16.265,17.874 16.964 C 17.124 18.447,15.935 19.310,14.260 19.585 C 13.735 19.671,12.473 19.682,11.880 19.606 C 11.023 19.495,6.170 18.716,5.740 18.619 C 5.485 18.562,5.094 18.454,4.871 18.379 C 4.647 18.304,4.458 18.248,4.451 18.256 C 4.431 18.275,4.820 18.622,5.067 18.805 C 5.419 19.066,5.871 19.324,6.376 19.552 C 6.915 19.796,11.898 21.478,12.740 21.700 C 15.234 22.358,16.816 21.898,17.967 20.182 C 18.504 19.382,18.712 18.858,19.793 15.600 C 20.899 12.263,20.975 11.954,20.976 10.820 C 20.977 10.044,20.906 9.665,20.664 9.141 C 20.453 8.684,20.070 8.164,19.784 7.946 L 19.653 7.846 19.608 8.393 " fill="#292D32" stroke="none" fill-rule="evenodd"></path></svg>