<svg width="24" height="24" viewBox="0 0 24 24" fill="none" xmlns="http://www.w3.org/2000/svg"><path d="M11.120 2.039 C 8.192 2.332,5.648 3.774,3.923 6.119 C 2.041 8.678,1.501 12.071,2.496 15.094 C 3.849 19.205,7.695 22.000,12.000 22.000 C 17.491 22.000,22.000 17.491,22.000 12.000 C 22.000 7.433,18.865 3.424,14.417 2.302 C 13.472 2.064,12.026 1.949,11.120 2.039 M12.012 6.893 C 12.096 6.939,12.204 7.041,12.252 7.118 C 12.339 7.259,12.340 7.277,12.360 9.540 L 12.380 11.820 12.504 12.082 C 12.573 12.227,12.699 12.417,12.784 12.505 C 12.882 12.606,13.546 13.027,14.573 13.639 C 15.713 14.319,16.236 14.653,16.308 14.746 C 16.498 14.996,16.482 15.424,16.273 15.662 C 16.066 15.898,15.810 15.986,15.543 15.915 C 15.320 15.856,12.090 13.917,11.842 13.694 C 11.422 13.316,11.061 12.681,10.944 12.112 C 10.890 11.851,10.880 11.459,10.881 9.592 C 10.882 7.532,10.887 7.369,10.955 7.218 C 11.040 7.032,11.238 6.851,11.393 6.816 C 11.452 6.804,11.518 6.787,11.540 6.780 C 11.620 6.753,11.864 6.812,12.012 6.893 " fill="#292D32" stroke="none" fill-rule="evenodd"></path></svg>