<svg width="24" height="24" viewBox="0 0 24 24" fill="none" xmlns="http://www.w3.org/2000/svg"><path d="M10.862 2.044 C 9.731 2.209,9.045 2.824,8.639 4.037 C 8.502 4.445,8.492 4.599,8.590 4.768 C 8.670 4.905,8.906 5.040,9.065 5.040 C 9.124 5.040,9.391 4.969,9.656 4.883 C 10.289 4.677,10.818 4.572,11.470 4.522 C 12.500 4.444,13.661 4.607,14.590 4.960 C 14.847 5.058,15.004 5.061,15.189 4.973 C 15.363 4.891,15.480 4.706,15.480 4.514 C 15.480 4.311,15.341 3.879,15.154 3.500 C 14.734 2.647,14.053 2.163,13.101 2.039 C 12.752 1.994,11.184 1.997,10.862 2.044 M11.220 5.545 C 9.716 5.768,8.514 6.348,7.468 7.356 C 6.548 8.242,5.915 9.398,5.636 10.704 C 5.528 11.207,5.488 12.285,5.558 12.813 C 5.804 14.689,6.827 16.348,8.370 17.376 C 9.119 17.874,9.893 18.197,10.800 18.388 C 11.329 18.500,12.754 18.489,13.306 18.368 C 15.920 17.800,17.901 15.776,18.385 13.180 C 18.498 12.578,18.488 11.251,18.367 10.704 C 17.791 8.099,15.886 6.195,13.296 5.635 C 12.984 5.568,12.735 5.547,12.120 5.539 C 11.691 5.532,11.286 5.535,11.220 5.545 M12.267 8.963 C 12.427 9.023,12.598 9.194,12.684 9.380 C 12.751 9.525,12.758 9.660,12.759 10.838 L 12.760 12.135 13.415 12.798 C 13.936 13.324,14.080 13.493,14.115 13.620 C 14.170 13.817,14.170 13.862,14.118 14.049 C 14.002 14.468,13.526 14.703,13.129 14.539 C 12.928 14.456,11.418 12.957,11.317 12.740 C 11.248 12.593,11.242 12.461,11.241 11.069 C 11.240 9.422,11.244 9.388,11.472 9.145 C 11.668 8.937,11.998 8.861,12.267 8.963 M8.796 19.045 C 8.494 19.221,8.457 19.437,8.637 19.971 C 9.041 21.167,9.748 21.797,10.870 21.961 C 11.361 22.033,13.141 21.992,13.480 21.902 C 14.381 21.660,14.985 21.063,15.345 20.055 C 15.502 19.615,15.520 19.433,15.424 19.247 C 15.354 19.112,15.103 18.960,14.949 18.960 C 14.898 18.960,14.638 19.031,14.372 19.118 C 12.789 19.634,11.123 19.622,9.542 19.082 C 9.123 18.939,8.991 18.932,8.796 19.045 " fill="#292D32" stroke="none" fill-rule="evenodd"></path></svg>