<svg width="24" height="24" viewBox="0 0 24 24" fill="none" xmlns="http://www.w3.org/2000/svg"><path d="M6.960 2.046 C 6.236 2.116,5.358 2.357,4.796 2.641 C 4.426 2.828,3.928 3.183,3.624 3.475 C 2.737 4.332,2.251 5.370,2.062 6.812 C 1.970 7.515,1.969 16.481,2.061 17.188 C 2.239 18.550,2.681 19.544,3.476 20.372 C 4.162 21.084,4.935 21.524,5.956 21.780 C 6.817 21.997,6.896 22.000,11.993 22.000 C 14.960 22.000,16.828 21.985,17.041 21.959 C 19.985 21.603,21.695 19.840,21.962 16.885 C 21.990 16.579,21.999 14.787,21.989 11.660 C 21.974 7.001,21.972 6.891,21.889 6.456 C 21.642 5.171,21.165 4.235,20.369 3.478 C 19.583 2.729,18.652 2.295,17.359 2.076 C 16.995 2.014,7.572 1.987,6.960 2.046 M9.492 8.504 C 9.562 8.539,10.155 9.101,10.810 9.754 L 12.000 10.939 13.190 9.754 C 13.845 9.101,14.438 8.539,14.508 8.504 C 14.655 8.431,14.943 8.420,15.107 8.483 C 15.261 8.540,15.438 8.713,15.505 8.869 C 15.579 9.041,15.575 9.335,15.496 9.492 C 15.461 9.562,14.899 10.155,14.246 10.810 L 13.061 12.000 14.246 13.190 C 14.899 13.845,15.461 14.438,15.496 14.508 C 15.531 14.578,15.560 14.717,15.560 14.815 C 15.560 15.325,15.152 15.655,14.651 15.551 C 14.470 15.513,14.395 15.446,13.230 14.287 L 12.000 13.063 10.770 14.287 C 9.605 15.446,9.530 15.513,9.349 15.551 C 8.973 15.629,8.609 15.443,8.483 15.107 C 8.420 14.943,8.431 14.655,8.504 14.508 C 8.539 14.438,9.101 13.845,9.754 13.190 L 10.939 12.000 9.754 10.810 C 9.101 10.155,8.539 9.562,8.504 9.492 C 8.431 9.345,8.420 9.057,8.483 8.893 C 8.539 8.744,8.711 8.563,8.860 8.497 C 9.025 8.423,9.337 8.427,9.492 8.504 " fill="#292D32" stroke="none" fill-rule="evenodd"></path></svg>