<svg width="24" height="24" viewBox="0 0 24 24" fill="none" xmlns="http://www.w3.org/2000/svg"><path d="M11.120 2.039 C 8.192 2.332,5.648 3.774,3.923 6.119 C 2.041 8.678,1.501 12.071,2.496 15.094 C 3.849 19.205,7.695 22.000,12.000 22.000 C 17.491 22.000,22.000 17.491,22.000 12.000 C 22.000 7.433,18.865 3.424,14.417 2.302 C 13.472 2.064,12.026 1.949,11.120 2.039 M9.492 8.504 C 9.562 8.539,10.155 9.101,10.810 9.754 L 12.000 10.939 13.190 9.754 C 13.845 9.101,14.438 8.539,14.508 8.504 C 14.655 8.431,14.943 8.420,15.107 8.483 C 15.261 8.540,15.438 8.713,15.505 8.869 C 15.579 9.041,15.575 9.335,15.496 9.492 C 15.461 9.562,14.899 10.155,14.246 10.810 L 13.061 12.000 14.246 13.190 C 14.899 13.845,15.461 14.438,15.496 14.508 C 15.531 14.578,15.560 14.717,15.560 14.815 C 15.560 15.325,15.152 15.655,14.651 15.551 C 14.470 15.513,14.395 15.446,13.230 14.287 L 12.000 13.063 10.770 14.287 C 9.605 15.446,9.530 15.513,9.349 15.551 C 8.973 15.629,8.609 15.443,8.483 15.107 C 8.420 14.943,8.431 14.655,8.504 14.508 C 8.539 14.438,9.101 13.845,9.754 13.190 L 10.939 12.000 9.754 10.810 C 9.101 10.155,8.539 9.562,8.504 9.492 C 8.431 9.345,8.420 9.057,8.483 8.893 C 8.539 8.744,8.711 8.563,8.860 8.497 C 9.025 8.423,9.337 8.427,9.492 8.504 " fill="#292D32" stroke="none" fill-rule="evenodd"></path></svg>