<svg width="24" height="24" viewBox="0 0 24 24" fill="none" xmlns="http://www.w3.org/2000/svg"><path d="M10.783 2.606 C 9.275 2.739,7.766 3.431,6.740 4.460 C 5.907 5.295,5.400 6.226,5.153 7.372 C 5.079 7.714,5.064 7.910,5.063 8.580 C 5.062 9.482,5.127 9.938,5.374 10.750 L 5.510 11.198 5.365 11.221 C 4.695 11.324,4.375 11.414,3.980 11.610 C 2.812 12.190,2.122 13.361,2.121 14.766 C 2.119 16.014,2.656 17.164,3.570 17.868 C 4.198 18.351,5.136 18.687,5.362 18.509 C 5.576 18.340,5.594 18.210,5.495 17.541 C 5.408 16.944,5.436 15.902,5.555 15.346 C 5.840 14.020,6.483 12.859,7.440 11.945 C 9.418 10.055,12.284 9.598,14.741 10.780 C 16.556 11.652,17.875 13.337,18.297 15.320 C 18.415 15.877,18.460 16.627,18.408 17.180 C 18.367 17.616,18.369 17.700,18.424 17.838 C 18.560 18.178,18.838 18.219,19.261 17.962 C 20.733 17.068,21.580 15.861,21.826 14.306 C 21.911 13.772,21.881 12.771,21.766 12.275 C 21.263 10.108,19.681 8.507,17.693 8.155 C 17.543 8.128,17.417 8.105,17.413 8.103 C 17.410 8.101,17.360 7.890,17.302 7.633 C 17.158 6.990,16.992 6.502,16.734 5.960 C 15.791 3.980,14.090 2.793,11.920 2.601 C 11.407 2.556,11.347 2.556,10.783 2.606 M11.520 11.562 C 10.369 11.665,9.296 12.175,8.458 13.017 C 7.762 13.716,7.308 14.562,7.093 15.561 C 6.981 16.079,6.994 17.092,7.117 17.600 C 7.406 18.782,8.077 19.820,9.007 20.521 C 9.575 20.949,10.097 21.197,10.831 21.388 C 11.226 21.491,11.319 21.500,12.000 21.500 C 12.681 21.500,12.774 21.491,13.169 21.388 C 13.903 21.197,14.425 20.949,14.993 20.521 C 15.923 19.820,16.594 18.782,16.883 17.600 C 17.006 17.092,17.019 16.079,16.907 15.561 C 16.494 13.644,15.091 12.164,13.245 11.695 C 12.921 11.613,12.110 11.509,11.920 11.526 C 11.887 11.529,11.707 11.545,11.520 11.562 M11.172 14.824 C 11.242 14.859,11.440 15.025,11.610 15.193 L 11.920 15.498 12.230 15.194 C 12.602 14.828,12.662 14.794,12.944 14.794 C 13.325 14.794,13.635 15.067,13.670 15.434 C 13.699 15.730,13.626 15.886,13.292 16.241 L 12.990 16.561 13.312 16.897 C 13.727 17.329,13.803 17.558,13.644 17.900 C 13.461 18.295,13.072 18.457,12.689 18.298 C 12.607 18.264,12.401 18.099,12.232 17.931 L 11.924 17.626 11.605 17.930 C 11.430 18.098,11.236 18.260,11.173 18.292 C 10.755 18.502,10.244 18.288,10.122 17.851 C 10.026 17.503,10.103 17.321,10.531 16.890 L 10.858 16.560 10.553 16.250 C 10.201 15.891,10.120 15.753,10.120 15.505 C 10.120 15.192,10.278 14.934,10.540 14.817 C 10.705 14.743,11.018 14.747,11.172 14.824 " fill="#292D32" stroke="none" fill-rule="evenodd"></path></svg>