<svg width="24" height="24" viewBox="0 0 24 24" fill="none" xmlns="http://www.w3.org/2000/svg"><path d="M10.480 2.418 C 8.061 2.767,6.044 4.352,5.344 6.456 C 5.116 7.141,5.063 7.511,5.064 8.400 C 5.064 9.138,5.075 9.271,5.173 9.732 C 5.232 10.014,5.334 10.409,5.399 10.610 C 5.464 10.812,5.513 10.980,5.508 10.985 C 5.504 10.990,5.348 11.014,5.163 11.040 C 3.703 11.239,2.671 12.115,2.257 13.503 C 2.117 13.975,2.081 14.728,2.175 15.266 C 2.391 16.505,3.123 17.500,4.220 18.042 C 4.747 18.303,5.098 18.396,5.278 18.321 C 5.446 18.251,5.560 18.064,5.559 17.860 C 5.559 17.772,5.532 17.538,5.499 17.340 C 5.422 16.871,5.423 15.925,5.501 15.440 C 5.728 14.032,6.343 12.825,7.344 11.824 C 8.255 10.913,9.362 10.313,10.654 10.031 C 11.004 9.955,11.182 9.943,11.940 9.942 C 12.765 9.942,12.850 9.949,13.300 10.055 C 14.654 10.372,15.777 11.017,16.692 12.001 C 17.944 13.349,18.594 15.254,18.403 17.013 C 18.348 17.518,18.378 17.660,18.571 17.823 C 18.737 17.963,18.935 17.941,19.270 17.743 C 20.658 16.926,21.558 15.654,21.819 14.145 C 21.896 13.695,21.897 12.849,21.821 12.379 C 21.590 10.955,20.841 9.672,19.765 8.857 C 19.316 8.516,18.575 8.152,18.066 8.021 C 17.849 7.966,17.633 7.920,17.586 7.919 C 17.432 7.918,17.393 7.856,17.318 7.495 C 16.756 4.779,15.070 2.979,12.618 2.477 C 12.097 2.370,11.017 2.340,10.480 2.418 M11.520 11.562 C 10.369 11.665,9.296 12.175,8.458 13.017 C 7.762 13.716,7.308 14.562,7.093 15.561 C 6.981 16.079,6.994 17.092,7.117 17.600 C 7.406 18.782,8.077 19.820,9.007 20.521 C 9.575 20.949,10.097 21.197,10.831 21.388 C 11.226 21.491,11.319 21.500,12.000 21.500 C 12.681 21.500,12.774 21.491,13.169 21.388 C 13.903 21.197,14.425 20.949,14.993 20.521 C 15.923 19.820,16.594 18.782,16.883 17.600 C 17.006 17.092,17.019 16.079,16.907 15.561 C 16.494 13.644,15.091 12.164,13.245 11.695 C 12.921 11.613,12.110 11.509,11.920 11.526 C 11.887 11.529,11.707 11.545,11.520 11.562 M13.769 14.842 C 13.948 14.892,14.141 15.047,14.225 15.209 C 14.318 15.389,14.308 15.720,14.203 15.905 C 14.109 16.073,11.995 18.054,11.787 18.170 C 11.602 18.273,11.414 18.297,11.226 18.241 C 11.095 18.202,10.932 18.065,10.447 17.586 C 10.110 17.253,9.807 16.929,9.773 16.866 C 9.740 16.803,9.712 16.655,9.711 16.538 C 9.708 16.121,10.022 15.800,10.434 15.800 C 10.688 15.800,10.859 15.891,11.174 16.196 L 11.460 16.472 12.280 15.712 C 13.257 14.806,13.380 14.734,13.769 14.842 " fill="#292D32" stroke="none" fill-rule="evenodd"></path></svg>