<svg width="24" height="24" viewBox="0 0 24 24" fill="none" xmlns="http://www.w3.org/2000/svg"><path d="M10.960 2.645 C 10.109 2.702,9.267 2.929,8.460 3.319 C 7.336 3.864,6.507 4.579,5.853 5.568 C 5.395 6.261,5.105 7.013,4.953 7.897 C 4.841 8.553,4.866 9.670,5.009 10.351 L 5.104 10.801 4.842 10.880 C 3.077 11.406,1.908 13.150,2.013 15.100 C 2.089 16.524,2.810 17.754,3.980 18.458 C 4.673 18.876,5.748 19.108,6.289 18.958 C 6.512 18.896,6.763 18.684,6.878 18.461 C 6.979 18.265,6.980 18.249,7.004 17.061 C 7.025 16.002,7.038 15.822,7.115 15.540 C 7.459 14.269,8.429 13.316,9.712 12.989 C 10.048 12.903,10.127 12.900,12.000 12.900 C 13.873 12.900,13.952 12.903,14.288 12.989 C 15.571 13.316,16.543 14.271,16.885 15.540 C 16.959 15.816,16.975 16.010,16.996 16.940 C 17.023 18.160,17.030 18.190,17.341 18.476 C 17.549 18.668,17.883 18.781,18.134 18.743 C 18.506 18.687,19.267 18.288,19.820 17.859 C 20.899 17.022,21.593 15.933,21.884 14.620 C 22.012 14.042,22.029 13.176,21.925 12.564 C 21.826 11.986,21.597 11.270,21.360 10.799 C 20.664 9.415,19.484 8.408,18.052 7.974 L 17.684 7.863 17.617 7.582 C 17.510 7.140,17.260 6.467,17.040 6.033 C 15.861 3.702,13.644 2.467,10.960 2.645 M10.100 14.425 C 9.402 14.580,8.994 14.859,8.743 15.354 C 8.528 15.779,8.520 15.865,8.520 17.866 C 8.520 19.062,8.536 19.791,8.564 19.928 C 8.670 20.437,9.005 20.905,9.424 21.129 C 9.877 21.372,9.960 21.380,12.000 21.380 C 14.040 21.380,14.123 21.372,14.576 21.129 C 14.995 20.905,15.330 20.437,15.436 19.928 C 15.464 19.791,15.480 19.062,15.480 17.866 C 15.480 16.356,15.469 15.975,15.420 15.788 C 15.252 15.141,14.852 14.712,14.212 14.491 C 14.045 14.433,13.771 14.424,12.100 14.416 C 11.044 14.411,10.144 14.415,10.100 14.425 M14.001 17.250 C 14.205 17.353,14.358 17.584,14.359 17.791 C 14.361 18.081,14.146 18.358,13.860 18.436 C 13.646 18.494,10.358 18.496,10.149 18.438 C 9.949 18.382,9.736 18.190,9.678 18.014 C 9.582 17.722,9.731 17.384,10.020 17.240 C 10.173 17.164,10.262 17.160,12.002 17.160 C 13.811 17.160,13.824 17.161,14.001 17.250 " fill="#292D32" stroke="none" fill-rule="evenodd"></path></svg>