<svg width="24" height="24" viewBox="0 0 24 24" fill="none" xmlns="http://www.w3.org/2000/svg"><path d="M10.700 3.825 C 9.474 4.008,8.523 4.358,7.635 4.955 C 6.435 5.761,5.607 6.831,5.184 8.126 C 4.941 8.867,4.900 9.156,4.901 10.120 C 4.902 10.863,4.915 11.045,4.997 11.460 C 5.050 11.724,5.094 11.946,5.096 11.954 C 5.098 11.961,4.974 12.009,4.820 12.059 C 3.971 12.336,3.221 12.882,2.763 13.556 C 2.512 13.925,2.251 14.501,2.132 14.949 C 2.039 15.297,2.027 15.416,2.026 16.020 C 2.025 16.627,2.036 16.741,2.129 17.083 C 2.573 18.733,3.663 19.766,5.361 20.148 C 5.631 20.208,6.173 20.216,10.920 20.229 C 16.240 20.244,16.886 20.231,17.510 20.098 C 19.458 19.684,21.101 18.244,21.713 16.414 C 21.927 15.776,21.979 15.421,21.977 14.620 C 21.976 14.034,21.959 13.825,21.888 13.494 C 21.628 12.293,21.121 11.340,20.302 10.514 C 19.606 9.812,18.749 9.310,17.856 9.082 L 17.692 9.040 17.601 8.690 C 17.091 6.723,15.880 5.182,14.236 4.404 C 13.323 3.972,12.727 3.840,11.620 3.821 C 11.180 3.813,10.766 3.815,10.700 3.825 " fill="#292D32" stroke="none" fill-rule="evenodd"></path></svg>