<svg width="24" height="24" viewBox="0 0 24 24" fill="none" xmlns="http://www.w3.org/2000/svg"><path d="M10.631 3.842 C 8.045 4.199,5.937 5.856,5.183 8.125 C 4.970 8.768,4.917 9.076,4.892 9.827 C 4.868 10.550,4.907 11.031,5.039 11.633 C 5.093 11.875,5.100 11.970,5.066 11.981 C 5.041 11.990,4.905 12.034,4.765 12.080 C 3.118 12.622,2.041 14.166,2.031 16.000 C 2.021 17.976,3.198 19.558,5.060 20.070 L 5.460 20.180 11.300 20.180 C 16.847 20.180,17.157 20.176,17.479 20.106 C 19.056 19.759,20.439 18.782,21.252 17.439 C 21.960 16.270,22.170 14.735,21.821 13.291 C 21.722 12.883,21.451 12.120,21.405 12.121 C 21.391 12.121,21.263 12.221,21.120 12.343 C 20.198 13.131,19.207 13.496,18.000 13.494 C 16.992 13.492,16.228 13.261,15.380 12.700 C 13.497 11.454,12.764 9.057,13.626 6.960 C 13.884 6.332,14.173 5.907,14.689 5.393 L 15.158 4.926 14.869 4.740 C 14.280 4.361,13.576 4.075,12.831 3.914 C 12.405 3.821,11.093 3.779,10.631 3.842 M17.450 5.562 C 16.373 5.755,15.366 6.591,14.982 7.610 C 14.516 8.849,14.819 10.198,15.768 11.106 C 16.221 11.540,16.773 11.833,17.380 11.963 C 17.787 12.050,18.443 12.023,18.852 11.903 C 20.700 11.359,21.692 9.511,21.096 7.723 C 20.765 6.730,19.876 5.894,18.860 5.621 C 18.573 5.544,17.744 5.509,17.450 5.562 " fill="#292D32" stroke="none" fill-rule="evenodd"></path></svg>