<svg width="24" height="24" viewBox="0 0 24 24" fill="none" xmlns="http://www.w3.org/2000/svg"><path d="M9.456 3.001 C 7.127 3.226,5.042 4.555,4.066 6.436 C 3.582 7.369,3.410 8.036,3.374 9.120 C 3.357 9.657,3.367 9.930,3.417 10.293 C 3.497 10.862,3.686 11.631,3.782 11.778 C 3.938 12.016,3.364 12.000,11.979 12.000 C 20.543 12.000,20.064 12.012,20.213 11.785 C 20.394 11.509,20.330 11.309,19.885 10.757 C 19.099 9.783,18.031 9.131,16.821 8.889 L 16.461 8.817 16.370 8.398 C 15.848 5.989,14.564 4.311,12.599 3.470 C 11.687 3.079,10.492 2.901,9.456 3.001 M3.695 14.357 C 3.158 14.601,3.121 15.384,3.633 15.672 L 3.791 15.760 12.000 15.760 L 20.209 15.760 20.367 15.672 C 20.879 15.384,20.842 14.601,20.305 14.357 C 20.146 14.284,19.865 14.282,12.000 14.282 C 4.135 14.282,3.854 14.284,3.695 14.357 M5.695 17.357 C 5.158 17.601,5.121 18.384,5.633 18.672 L 5.791 18.760 12.000 18.760 L 18.209 18.760 18.367 18.672 C 18.879 18.384,18.842 17.601,18.305 17.357 C 18.146 17.285,17.911 17.282,12.000 17.282 C 6.089 17.282,5.854 17.285,5.695 17.357 M8.695 20.357 C 8.158 20.601,8.121 21.384,8.633 21.672 L 8.791 21.760 12.000 21.760 L 15.209 21.760 15.367 21.672 C 15.879 21.384,15.842 20.601,15.305 20.357 C 15.148 20.286,14.981 20.282,12.000 20.282 C 9.019 20.282,8.852 20.286,8.695 20.357 " fill="#292D32" stroke="none" fill-rule="evenodd"></path></svg>