<svg width="24" height="24" viewBox="0 0 24 24" fill="none" xmlns="http://www.w3.org/2000/svg"><path d="M10.744 3.843 C 8.416 4.113,6.384 5.498,5.462 7.445 C 5.060 8.294,4.880 9.109,4.881 10.074 C 4.881 10.615,4.948 11.282,5.036 11.634 C 5.132 12.022,5.144 11.987,4.890 12.061 C 4.577 12.151,4.060 12.396,3.775 12.590 C 2.812 13.244,2.184 14.337,2.035 15.616 C 1.898 16.794,2.318 18.077,3.123 18.937 C 3.734 19.590,4.425 19.961,5.406 20.161 C 5.780 20.237,5.976 20.240,11.286 20.240 C 15.945 20.240,16.840 20.230,17.175 20.180 C 18.034 20.050,18.800 19.752,19.558 19.250 C 19.993 18.963,20.799 18.165,21.080 17.744 C 21.981 16.393,22.226 14.765,21.781 13.090 C 21.271 11.176,19.839 9.666,18.040 9.147 L 17.705 9.050 17.616 8.715 C 17.039 6.559,15.800 5.052,13.960 4.269 C 13.055 3.883,11.812 3.719,10.744 3.843 M17.670 5.028 C 17.566 5.037,17.480 5.051,17.480 5.058 C 17.480 5.066,17.633 5.299,17.820 5.576 C 18.205 6.147,18.509 6.733,18.763 7.393 L 18.938 7.846 19.379 8.056 C 20.179 8.438,20.630 8.751,21.245 9.350 L 21.630 9.725 21.685 9.453 C 21.769 9.038,21.750 8.292,21.646 7.865 C 21.305 6.471,20.192 5.391,18.800 5.102 C 18.502 5.040,17.949 5.004,17.670 5.028 " fill="#292D32" stroke="none" fill-rule="evenodd"></path></svg>