<svg width="24" height="24" viewBox="0 0 24 24" fill="none" xmlns="http://www.w3.org/2000/svg"><path d="M11.000 2.024 C 9.021 2.258,7.403 3.286,6.566 4.840 C 6.363 5.216,6.143 5.871,6.062 6.335 C 5.974 6.841,5.981 7.684,6.079 8.246 C 6.144 8.627,6.295 9.224,6.382 9.452 C 6.400 9.497,6.353 9.516,6.172 9.537 C 4.047 9.786,2.804 11.833,3.517 13.910 C 3.668 14.348,3.839 14.626,4.192 15.003 C 4.611 15.451,5.036 15.705,5.679 15.891 C 5.972 15.976,6.048 15.978,8.610 15.991 L 11.240 16.003 11.240 17.518 C 11.240 18.352,11.249 19.058,11.261 19.087 C 11.274 19.122,11.207 19.176,11.071 19.240 C 10.803 19.366,10.369 19.798,10.245 20.060 L 10.151 20.260 8.107 20.249 C 6.716 20.241,5.994 20.252,5.848 20.283 C 5.074 20.443,5.074 21.557,5.848 21.717 C 5.994 21.748,6.717 21.759,8.109 21.751 L 10.156 21.740 10.248 21.939 C 10.390 22.247,10.774 22.612,11.133 22.783 C 11.719 23.061,12.281 23.061,12.867 22.783 C 13.226 22.612,13.610 22.247,13.752 21.939 L 13.844 21.740 16.012 21.740 L 18.180 21.740 18.359 21.639 C 18.807 21.389,18.856 20.696,18.446 20.404 C 18.229 20.250,18.022 20.237,15.895 20.249 L 13.849 20.260 13.755 20.060 C 13.631 19.798,13.197 19.366,12.929 19.240 C 12.793 19.176,12.726 19.122,12.739 19.087 C 12.751 19.058,12.760 18.351,12.760 17.517 L 12.760 16.000 14.577 16.000 C 16.494 16.000,16.778 15.981,17.356 15.815 C 18.143 15.590,18.869 15.136,19.492 14.482 C 20.043 13.902,20.362 13.313,20.570 12.488 C 20.700 11.975,20.696 10.942,20.562 10.400 C 20.314 9.391,19.895 8.650,19.193 7.978 C 18.554 7.366,17.865 7.010,16.992 6.840 L 16.765 6.795 16.721 6.568 C 16.696 6.442,16.613 6.124,16.536 5.860 C 15.952 3.866,14.535 2.509,12.629 2.117 C 12.235 2.036,11.332 1.984,11.000 2.024 " fill="#292D32" stroke="none" fill-rule="evenodd"></path></svg>