<svg width="24" height="24" viewBox="0 0 24 24" fill="none" xmlns="http://www.w3.org/2000/svg"><path d="M14.787 1.289 C 14.452 1.378,14.198 1.775,14.259 2.116 C 14.290 2.288,15.384 4.134,15.547 4.287 C 15.889 4.612,16.497 4.511,16.702 4.095 C 16.832 3.832,16.804 3.579,16.607 3.239 C 16.515 3.079,16.448 2.939,16.458 2.929 C 16.491 2.896,17.161 3.121,17.539 3.291 C 18.293 3.630,18.890 4.053,19.482 4.666 C 20.022 5.224,20.266 5.568,20.606 6.248 C 20.985 7.007,21.175 7.736,21.238 8.669 C 21.267 9.106,21.289 9.227,21.366 9.367 C 21.682 9.937,22.577 9.809,22.713 9.173 C 22.771 8.905,22.705 8.027,22.582 7.434 C 21.970 4.476,19.628 2.091,16.700 1.444 C 16.030 1.296,15.055 1.217,14.787 1.289 M11.240 6.684 C 10.147 6.790,9.034 7.430,8.446 8.290 C 8.255 8.570,8.053 9.016,7.954 9.380 C 7.882 9.644,7.867 9.806,7.867 10.300 C 7.868 10.900,7.888 11.023,8.102 11.748 C 8.124 11.822,8.110 11.840,8.014 11.858 C 7.318 11.992,7.030 12.128,6.659 12.499 C 6.332 12.826,6.189 13.075,6.079 13.503 C 5.883 14.272,6.076 15.088,6.583 15.636 C 6.859 15.934,7.116 16.100,7.510 16.234 L 7.820 16.340 11.560 16.340 C 15.774 16.340,15.467 16.361,16.180 16.024 C 16.937 15.666,17.553 15.010,17.802 14.297 C 18.069 13.535,18.057 12.800,17.767 12.010 C 17.611 11.585,17.409 11.255,17.110 10.935 C 16.685 10.481,16.176 10.179,15.613 10.046 L 15.300 9.972 15.193 9.556 C 14.976 8.712,14.721 8.234,14.208 7.705 C 13.450 6.925,12.418 6.570,11.240 6.684 M1.807 14.288 C 1.563 14.342,1.341 14.571,1.287 14.827 C 1.232 15.080,1.292 15.949,1.402 16.495 C 1.966 19.309,4.083 21.636,6.796 22.423 C 7.618 22.662,8.817 22.807,9.191 22.713 C 9.548 22.623,9.804 22.238,9.741 21.884 C 9.710 21.712,8.616 19.866,8.453 19.713 C 8.111 19.388,7.503 19.489,7.298 19.905 C 7.168 20.168,7.196 20.421,7.393 20.761 C 7.485 20.921,7.552 21.061,7.542 21.072 C 7.496 21.118,6.678 20.816,6.203 20.579 C 5.601 20.277,5.159 19.962,4.666 19.484 C 4.090 18.925,3.747 18.459,3.394 17.752 C 3.016 16.995,2.825 16.264,2.763 15.336 C 2.710 14.544,2.591 14.367,2.040 14.261 C 2.007 14.255,1.902 14.267,1.807 14.288 " fill="#292D32" stroke="none" fill-rule="evenodd"></path></svg>