<svg width="24" height="24" viewBox="0 0 24 24" fill="none" xmlns="http://www.w3.org/2000/svg"><path d="M10.980 2.642 C 9.242 2.763,7.479 3.615,6.391 4.860 C 5.436 5.954,4.950 7.193,4.893 8.680 C 4.868 9.326,4.936 10.090,5.060 10.559 C 5.091 10.678,5.113 10.780,5.108 10.785 C 5.103 10.790,4.922 10.858,4.705 10.935 C 3.690 11.298,2.940 11.960,2.478 12.900 C 1.857 14.162,1.850 15.537,2.459 16.780 C 2.823 17.524,3.319 18.061,4.020 18.472 C 4.758 18.905,5.745 19.107,6.308 18.940 C 6.438 18.901,6.571 18.821,6.679 18.717 C 6.971 18.433,6.975 18.410,7.003 17.040 C 7.032 15.661,7.048 15.557,7.346 14.922 C 7.792 13.968,8.609 13.286,9.660 12.991 C 9.972 12.904,10.028 12.902,12.000 12.902 C 13.972 12.902,14.028 12.904,14.340 12.991 C 15.391 13.286,16.208 13.968,16.654 14.922 C 16.945 15.543,16.968 15.674,16.996 16.920 C 17.019 17.942,17.027 18.031,17.107 18.180 C 17.398 18.723,17.934 18.869,18.592 18.585 C 20.072 17.946,21.268 16.646,21.734 15.170 C 21.921 14.579,21.977 14.191,21.977 13.480 C 21.977 12.750,21.922 12.378,21.714 11.701 C 21.166 9.913,19.775 8.492,18.070 7.980 L 17.688 7.865 17.599 7.523 C 17.273 6.272,16.625 5.124,15.782 4.305 C 14.814 3.364,13.439 2.749,12.101 2.659 C 11.924 2.647,11.699 2.631,11.600 2.625 C 11.501 2.618,11.222 2.626,10.980 2.642 M9.936 14.459 C 9.270 14.604,8.804 15.042,8.593 15.720 C 8.501 16.016,8.500 16.044,8.500 17.880 C 8.500 19.518,8.508 19.770,8.569 19.989 C 8.776 20.737,9.249 21.176,10.024 21.340 C 10.425 21.425,13.575 21.425,13.976 21.340 C 14.751 21.176,15.224 20.737,15.431 19.989 C 15.492 19.770,15.500 19.518,15.500 17.880 C 15.500 16.044,15.499 16.016,15.407 15.720 C 15.193 15.033,14.729 14.603,14.045 14.458 C 13.675 14.379,10.298 14.381,9.936 14.459 M12.318 15.397 C 12.371 15.434,12.452 15.515,12.498 15.575 C 12.573 15.677,12.581 15.751,12.592 16.479 L 12.605 17.273 13.399 17.286 C 14.264 17.301,14.300 17.310,14.489 17.563 C 14.677 17.816,14.579 18.227,14.287 18.408 C 14.149 18.494,14.091 18.501,13.370 18.513 L 12.600 18.526 12.600 19.257 C 12.600 19.940,12.594 19.999,12.509 20.159 C 12.388 20.388,12.202 20.490,11.947 20.468 C 11.723 20.448,11.578 20.354,11.474 20.159 C 11.409 20.039,11.400 19.924,11.400 19.251 L 11.400 18.482 10.630 18.491 C 9.963 18.499,9.843 18.491,9.733 18.431 C 9.528 18.319,9.420 18.133,9.420 17.893 C 9.420 17.669,9.493 17.533,9.696 17.382 C 9.800 17.305,9.852 17.301,10.603 17.310 L 11.400 17.321 11.400 16.559 C 11.400 15.738,11.422 15.620,11.612 15.445 C 11.793 15.278,12.117 15.256,12.318 15.397 " fill="#292D32" stroke="none" fill-rule="evenodd"></path></svg>