<svg width="24" height="24" viewBox="0 0 24 24" fill="none" xmlns="http://www.w3.org/2000/svg"><path d="M7.080 2.043 C 5.590 2.184,4.467 2.657,3.586 3.515 C 2.678 4.400,2.186 5.555,2.040 7.140 C 1.953 8.092,2.005 8.407,2.299 8.701 C 2.629 9.031,1.690 9.003,12.040 8.991 C 21.068 8.980,21.263 8.978,21.416 8.903 C 21.502 8.860,21.629 8.768,21.699 8.699 C 21.983 8.415,22.041 8.083,21.963 7.199 C 21.821 5.595,21.371 4.496,20.485 3.586 C 19.600 2.678,18.445 2.186,16.860 2.040 C 16.336 1.992,7.591 1.995,7.080 2.043 M2.643 10.069 C 2.401 10.154,2.147 10.418,2.063 10.671 C 2.001 10.858,1.997 11.143,2.011 13.988 C 2.027 16.977,2.031 17.118,2.114 17.557 C 2.338 18.737,2.768 19.631,3.459 20.356 C 4.239 21.174,5.187 21.654,6.494 21.892 C 6.979 21.980,6.993 21.980,12.000 21.980 C 17.007 21.980,17.021 21.980,17.506 21.892 C 18.813 21.654,19.761 21.174,20.541 20.356 C 21.232 19.631,21.662 18.737,21.886 17.557 C 21.969 17.118,21.973 16.977,21.989 13.988 C 22.007 10.466,22.019 10.617,21.702 10.300 C 21.374 9.972,22.270 10.000,11.983 10.003 C 3.791 10.006,2.801 10.013,2.643 10.069 M9.211 13.282 C 9.448 13.348,9.630 13.534,9.703 13.785 C 9.818 14.180,9.681 14.462,9.251 14.715 C 8.887 14.929,8.746 15.037,8.446 15.331 C 8.145 15.625,7.960 15.881,7.960 16.001 C 7.960 16.247,8.609 16.905,9.194 17.252 C 9.671 17.535,9.811 17.780,9.718 18.167 C 9.627 18.546,9.249 18.806,8.884 18.741 C 8.711 18.710,8.191 18.418,7.860 18.165 C 7.345 17.771,6.831 17.167,6.610 16.695 C 6.510 16.481,6.500 16.418,6.500 16.000 C 6.500 15.582,6.510 15.519,6.610 15.305 C 6.918 14.648,7.605 13.947,8.400 13.479 C 8.793 13.248,8.949 13.210,9.211 13.282 M15.789 13.471 C 16.519 13.894,17.269 14.634,17.554 15.214 C 17.783 15.679,17.793 16.286,17.580 16.737 C 17.283 17.364,16.470 18.167,15.720 18.573 C 15.402 18.746,15.215 18.784,15.013 18.718 C 14.660 18.604,14.480 18.357,14.481 17.992 C 14.482 17.668,14.598 17.498,14.969 17.277 C 15.425 17.007,15.725 16.755,15.997 16.417 C 16.313 16.025,16.313 15.975,15.996 15.582 C 15.725 15.245,15.478 15.037,14.990 14.738 C 14.595 14.497,14.482 14.334,14.481 14.008 C 14.480 13.755,14.586 13.524,14.761 13.399 C 15.061 13.185,15.327 13.204,15.789 13.471 " fill="#292D32" stroke="none" fill-rule="evenodd"></path></svg>