<svg width="24" height="24" viewBox="0 0 24 24" fill="none" xmlns="http://www.w3.org/2000/svg"><path d="M6.960 2.046 C 6.236 2.116,5.358 2.357,4.796 2.641 C 4.426 2.828,3.928 3.183,3.624 3.475 C 2.737 4.332,2.251 5.370,2.062 6.812 C 1.970 7.515,1.969 16.481,2.061 17.188 C 2.239 18.550,2.681 19.544,3.476 20.372 C 4.162 21.084,4.935 21.524,5.956 21.780 C 6.817 21.997,6.896 22.000,11.993 22.000 C 14.960 22.000,16.828 21.985,17.041 21.959 C 19.985 21.603,21.695 19.840,21.962 16.885 C 21.990 16.579,21.999 14.787,21.989 11.660 C 21.974 7.001,21.972 6.891,21.889 6.456 C 21.642 5.171,21.165 4.235,20.369 3.478 C 19.583 2.729,18.652 2.295,17.359 2.076 C 16.995 2.014,7.572 1.987,6.960 2.046 M7.533 8.506 C 8.352 8.969,9.162 9.684,9.720 10.434 C 10.163 11.030,10.320 11.440,10.320 12.000 C 10.320 12.545,10.158 12.976,9.744 13.537 C 9.140 14.353,8.305 15.084,7.440 15.552 C 7.083 15.745,6.900 15.786,6.693 15.718 C 6.343 15.605,6.160 15.358,6.160 14.997 C 6.160 14.647,6.266 14.515,6.800 14.199 C 7.544 13.758,8.064 13.302,8.512 12.700 C 8.946 12.117,8.943 11.874,8.497 11.283 C 8.062 10.707,7.409 10.150,6.681 9.734 C 6.422 9.586,6.321 9.502,6.252 9.380 C 6.073 9.064,6.163 8.597,6.441 8.399 C 6.752 8.178,6.997 8.202,7.533 8.506 M17.189 14.286 C 17.577 14.384,17.814 14.790,17.714 15.186 C 17.656 15.416,17.428 15.657,17.213 15.717 C 17.114 15.744,16.328 15.760,15.000 15.760 C 13.672 15.760,12.886 15.744,12.787 15.717 C 12.572 15.657,12.344 15.416,12.286 15.186 C 12.190 14.806,12.425 14.385,12.785 14.289 C 13.013 14.229,16.950 14.226,17.189 14.286 " fill="#292D32" stroke="none" fill-rule="evenodd"></path></svg>