<svg width="24" height="24" viewBox="0 0 24 24" fill="none" xmlns="http://www.w3.org/2000/svg"><path d="M5.700 1.941 C 5.517 2.039,5.397 2.164,5.316 2.340 C 5.250 2.482,5.242 2.613,5.241 3.491 C 5.240 4.297,5.252 4.510,5.302 4.631 C 5.569 5.271,6.431 5.271,6.698 4.631 C 6.748 4.511,6.760 4.295,6.760 3.490 C 6.760 2.539,6.756 2.489,6.670 2.321 C 6.532 2.050,6.327 1.908,6.049 1.890 C 5.891 1.880,5.783 1.896,5.700 1.941 M9.700 1.941 C 9.539 2.028,9.406 2.155,9.326 2.300 C 9.269 2.403,9.260 2.567,9.260 3.460 C 9.260 4.032,9.273 4.548,9.290 4.607 C 9.363 4.869,9.710 5.118,10.000 5.118 C 10.290 5.118,10.637 4.869,10.710 4.607 C 10.727 4.548,10.740 4.032,10.740 3.460 C 10.740 2.291,10.736 2.275,10.429 2.027 C 10.243 1.876,9.896 1.835,9.700 1.941 M13.700 1.941 C 13.539 2.028,13.406 2.155,13.326 2.300 C 13.269 2.403,13.260 2.567,13.260 3.460 C 13.260 4.032,13.273 4.548,13.290 4.607 C 13.363 4.869,13.710 5.118,14.000 5.118 C 14.290 5.118,14.637 4.869,14.710 4.607 C 14.727 4.548,14.740 4.032,14.740 3.460 C 14.740 2.291,14.736 2.275,14.429 2.027 C 14.243 1.876,13.896 1.835,13.700 1.941 M6.001 6.326 C 4.401 6.591,3.066 7.822,2.633 9.433 C 2.572 9.657,2.545 9.910,2.530 10.370 L 2.510 11.000 10.400 11.000 L 18.290 11.000 18.272 10.459 C 18.251 9.827,18.200 9.858,18.789 10.144 C 19.853 10.660,20.567 11.650,20.723 12.827 C 20.833 13.652,20.602 14.559,20.103 15.257 C 19.906 15.534,19.440 15.989,19.195 16.143 C 18.964 16.289,18.520 16.509,18.390 16.541 L 18.280 16.569 18.280 14.284 L 18.280 12.000 10.398 12.000 L 2.517 12.000 2.531 15.270 C 2.544 18.529,2.544 18.541,2.635 18.860 C 3.100 20.499,4.433 21.692,6.080 21.942 C 6.392 21.989,7.167 21.999,10.400 21.999 C 12.808 21.999,14.449 21.983,14.620 21.958 C 15.921 21.773,16.962 21.088,17.657 19.961 C 17.903 19.562,18.072 19.114,18.178 18.582 L 18.265 18.144 18.644 18.035 C 20.854 17.399,22.335 15.331,22.229 13.029 C 22.182 12.009,21.866 11.113,21.270 10.310 C 20.473 9.235,19.167 8.464,17.921 8.334 L 17.679 8.308 17.501 8.059 C 16.848 7.145,15.920 6.547,14.830 6.340 C 14.557 6.289,13.912 6.281,10.366 6.285 C 8.086 6.287,6.122 6.306,6.001 6.326 " fill="#292D32" stroke="none" fill-rule="evenodd"></path></svg>