<svg width="24" height="24" viewBox="0 0 24 24" fill="none" xmlns="http://www.w3.org/2000/svg"><path d="M11.189 1.282 C 7.997 1.616,5.474 3.705,4.853 6.527 C 4.784 6.840,4.780 7.167,4.780 11.980 C 4.780 16.775,4.785 17.122,4.853 17.440 C 5.104 18.617,5.672 19.661,6.540 20.542 C 7.798 21.818,9.469 22.565,11.430 22.727 C 12.118 22.784,12.882 22.732,13.631 22.579 C 16.176 22.059,18.216 20.358,18.955 18.139 C 19.236 17.297,19.220 17.659,19.220 11.980 C 19.220 7.167,19.216 6.840,19.147 6.527 C 18.892 5.368,18.317 4.313,17.467 3.446 C 16.381 2.339,14.982 1.631,13.340 1.358 C 12.782 1.265,11.710 1.227,11.189 1.282 M12.909 2.820 C 13.688 2.930,14.281 3.117,14.974 3.470 C 16.377 4.184,17.331 5.364,17.648 6.778 C 17.771 7.323,17.760 8.125,17.623 8.658 C 17.157 10.467,15.355 11.850,13.031 12.180 C 12.505 12.255,11.496 12.255,10.971 12.180 C 10.210 12.072,9.536 11.868,8.906 11.555 C 8.370 11.289,8.008 11.040,7.609 10.662 C 6.934 10.024,6.569 9.415,6.359 8.576 C 6.238 8.094,6.235 7.298,6.352 6.778 C 6.812 4.727,8.663 3.171,11.058 2.822 C 11.549 2.750,12.412 2.749,12.909 2.820 M7.152 12.232 C 8.187 12.998,9.536 13.514,10.940 13.682 C 11.452 13.743,12.545 13.744,13.060 13.682 C 14.778 13.479,16.412 12.743,17.490 11.687 L 17.760 11.422 17.759 12.041 C 17.758 13.139,17.660 13.710,17.363 14.344 C 16.705 15.748,15.225 16.772,13.340 17.127 C 12.645 17.258,11.355 17.258,10.660 17.127 C 8.775 16.772,7.295 15.748,6.637 14.344 C 6.340 13.710,6.242 13.139,6.241 12.043 L 6.240 11.426 6.530 11.707 C 6.690 11.861,6.969 12.097,7.152 12.232 M7.257 17.337 C 8.193 18.005,9.392 18.466,10.700 18.664 C 11.282 18.751,12.599 18.764,13.140 18.687 C 14.902 18.437,16.309 17.811,17.425 16.783 L 17.750 16.484 17.733 16.672 C 17.682 17.254,17.557 17.694,17.280 18.260 C 16.688 19.472,15.510 20.441,14.048 20.918 C 13.304 21.161,12.903 21.220,12.000 21.220 C 11.097 21.220,10.696 21.161,9.952 20.918 C 7.854 20.233,6.439 18.603,6.267 16.672 L 6.250 16.484 6.575 16.783 C 6.754 16.948,7.061 17.197,7.257 17.337 " fill="#292D32" stroke="none" fill-rule="evenodd"></path></svg>