<svg width="24" height="24" viewBox="0 0 24 24" fill="none" xmlns="http://www.w3.org/2000/svg"><path d="M9.200 2.045 C 8.274 2.138,7.333 2.407,6.492 2.820 C 4.878 3.611,3.609 4.881,2.821 6.492 C 1.512 9.164,1.800 12.331,3.570 14.731 C 4.850 16.467,6.777 17.605,8.940 17.902 C 9.589 17.992,10.791 17.964,11.421 17.845 C 13.067 17.535,14.426 16.815,15.621 15.621 C 16.815 14.426,17.537 13.064,17.845 11.421 C 17.950 10.859,17.989 9.705,17.923 9.118 C 17.495 5.348,14.519 2.416,10.743 2.043 C 10.247 1.994,9.698 1.995,9.200 2.045 M10.369 5.772 C 10.559 5.876,10.709 6.091,10.743 6.310 C 10.767 6.461,10.782 6.480,10.878 6.480 C 10.937 6.480,11.083 6.509,11.203 6.544 C 12.007 6.780,12.609 7.475,12.728 8.306 C 12.783 8.685,12.744 8.878,12.571 9.084 C 12.212 9.510,11.552 9.413,11.316 8.900 C 11.275 8.812,11.241 8.675,11.241 8.596 C 11.240 8.393,11.085 8.123,10.920 8.034 C 10.797 7.969,10.684 7.960,9.941 7.961 C 9.350 7.961,9.070 7.976,9.000 8.011 C 8.802 8.110,8.683 8.561,8.810 8.732 C 8.838 8.770,9.452 9.006,10.224 9.276 C 10.974 9.538,11.677 9.798,11.786 9.853 C 12.278 10.102,12.623 10.587,12.721 11.165 C 12.876 12.084,12.430 12.973,11.621 13.359 C 11.425 13.453,11.014 13.552,10.794 13.559 C 10.780 13.560,10.757 13.627,10.742 13.710 C 10.704 13.917,10.550 14.129,10.356 14.238 C 9.908 14.489,9.339 14.205,9.257 13.688 C 9.233 13.539,9.218 13.520,9.122 13.520 C 9.063 13.520,8.917 13.491,8.797 13.456 C 7.993 13.220,7.391 12.525,7.272 11.694 C 7.217 11.315,7.256 11.122,7.429 10.916 C 7.788 10.490,8.448 10.587,8.684 11.100 C 8.725 11.188,8.759 11.325,8.759 11.404 C 8.760 11.607,8.915 11.877,9.081 11.967 C 9.207 12.036,9.301 12.042,10.114 12.031 L 11.007 12.020 11.102 11.910 C 11.273 11.711,11.281 11.286,11.116 11.198 C 11.071 11.174,10.422 10.940,9.672 10.678 C 8.922 10.415,8.227 10.153,8.127 10.094 C 7.644 9.812,7.356 9.363,7.273 8.767 C 7.115 7.633,7.846 6.625,8.940 6.467 L 9.234 6.425 9.260 6.282 C 9.298 6.082,9.420 5.899,9.586 5.796 C 9.857 5.629,10.095 5.622,10.369 5.772 M19.780 12.075 C 19.405 12.173,19.173 12.420,19.019 12.884 C 18.201 15.350,16.465 17.358,14.183 18.480 C 13.873 18.632,13.400 18.831,13.131 18.923 C 12.508 19.134,12.334 19.244,12.181 19.523 C 11.931 19.977,12.059 20.504,12.501 20.837 C 13.032 21.238,13.871 21.628,14.560 21.794 C 15.609 22.046,16.830 22.003,17.831 21.679 C 18.261 21.539,19.030 21.150,19.419 20.874 C 19.863 20.560,20.544 19.884,20.850 19.453 C 21.550 18.471,21.906 17.422,21.948 16.220 C 21.986 15.111,21.810 14.288,21.321 13.300 C 21.003 12.657,20.742 12.307,20.479 12.171 C 20.280 12.069,19.967 12.026,19.780 12.075 " fill="#292D32" stroke="none" fill-rule="evenodd"></path></svg>