<svg width="24" height="24" viewBox="0 0 24 24" fill="none" xmlns="http://www.w3.org/2000/svg"><path d="M11.281 2.048 C 8.885 2.314,6.813 4.131,6.199 6.506 C 5.491 9.243,6.798 12.095,9.340 13.359 C 9.876 13.626,10.261 13.760,10.857 13.888 C 11.188 13.959,11.393 13.974,12.000 13.974 C 12.607 13.974,12.812 13.959,13.143 13.888 C 13.739 13.760,14.124 13.626,14.660 13.359 C 16.233 12.577,17.364 11.185,17.801 9.494 C 18.331 7.447,17.730 5.258,16.230 3.766 C 14.913 2.456,13.143 1.842,11.281 2.048 M4.667 11.060 C 4.587 11.088,4.395 11.213,4.241 11.339 C 2.005 13.168,1.365 16.217,2.684 18.759 C 2.977 19.326,3.321 19.791,3.786 20.250 C 4.254 20.713,4.680 21.025,5.241 21.316 C 7.528 22.503,10.255 22.115,12.114 20.340 C 12.671 19.808,13.045 19.307,13.372 18.656 C 13.740 17.922,13.947 17.114,13.987 16.259 C 14.015 15.654,13.980 15.536,13.734 15.420 C 13.599 15.356,13.551 15.354,13.262 15.398 C 10.834 15.772,8.439 15.014,6.750 13.340 C 6.177 12.771,5.762 12.221,5.400 11.550 C 5.151 11.087,4.960 10.959,4.667 11.060 M18.881 11.145 C 18.812 11.203,18.701 11.361,18.633 11.495 C 18.082 12.593,17.011 13.726,15.882 14.407 C 15.403 14.696,15.400 14.704,15.478 15.509 C 15.508 15.822,15.509 16.118,15.481 16.491 C 15.402 17.525,15.205 18.285,14.781 19.180 C 14.522 19.729,14.312 20.072,13.931 20.569 C 13.596 21.006,13.542 21.171,13.658 21.397 C 13.742 21.560,13.989 21.674,14.562 21.815 C 16.268 22.235,18.067 21.886,19.507 20.856 C 19.708 20.712,20.060 20.402,20.289 20.167 C 22.309 18.089,22.560 14.919,20.890 12.547 C 20.597 12.129,20.061 11.572,19.672 11.278 C 19.398 11.072,19.332 11.040,19.181 11.040 C 19.051 11.040,18.974 11.067,18.881 11.145 " fill="#292D32" stroke="none" fill-rule="evenodd"></path></svg>