<svg width="24" height="24" viewBox="0 0 24 24" fill="none" xmlns="http://www.w3.org/2000/svg"><path d="M6.960 2.046 C 6.236 2.116,5.358 2.357,4.796 2.641 C 4.426 2.828,3.928 3.183,3.624 3.475 C 2.737 4.332,2.251 5.370,2.062 6.812 C 1.970 7.515,1.969 16.481,2.061 17.188 C 2.239 18.550,2.681 19.544,3.476 20.372 C 4.162 21.084,4.935 21.524,5.956 21.780 C 6.817 21.997,6.896 22.000,11.993 22.000 C 14.960 22.000,16.828 21.985,17.041 21.959 C 19.985 21.603,21.695 19.840,21.962 16.885 C 21.990 16.579,21.999 14.787,21.989 11.660 C 21.974 7.001,21.972 6.891,21.889 6.456 C 21.642 5.171,21.165 4.235,20.369 3.478 C 19.583 2.729,18.652 2.295,17.359 2.076 C 16.995 2.014,7.572 1.987,6.960 2.046 M12.900 6.119 C 14.152 6.440,15.142 7.429,15.485 8.700 C 15.609 9.157,15.609 10.042,15.486 10.500 C 15.138 11.792,14.182 12.741,12.860 13.103 C 12.463 13.212,11.537 13.212,11.140 13.103 C 10.044 12.803,9.245 12.153,8.775 11.180 C 8.501 10.615,8.429 10.286,8.428 9.600 C 8.427 9.126,8.443 8.961,8.514 8.700 C 8.896 7.297,10.043 6.262,11.460 6.042 C 11.818 5.986,12.530 6.024,12.900 6.119 M7.873 11.584 C 7.923 11.619,8.060 11.794,8.178 11.974 C 8.909 13.094,9.925 13.776,11.232 14.024 C 11.509 14.077,11.721 14.085,12.275 14.067 L 12.970 14.044 13.091 14.164 L 13.211 14.285 13.184 14.641 C 13.113 15.583,12.744 16.349,12.044 17.008 C 11.295 17.712,10.406 18.042,9.400 17.988 C 7.852 17.904,6.517 16.813,6.114 15.300 C 5.992 14.844,5.992 13.955,6.113 13.509 C 6.295 12.838,6.763 12.077,7.227 11.699 C 7.410 11.551,7.476 11.520,7.615 11.520 C 7.707 11.520,7.823 11.549,7.873 11.584 M16.748 11.685 C 17.980 12.744,18.343 14.527,17.622 15.980 C 17.161 16.911,16.391 17.557,15.378 17.864 C 15.064 17.959,14.949 17.973,14.440 17.976 C 13.614 17.982,13.246 17.879,13.135 17.613 C 13.055 17.422,13.092 17.274,13.300 16.956 C 13.493 16.661,13.681 16.301,13.800 16.000 C 14.027 15.424,14.144 14.604,14.080 14.043 C 14.060 13.864,14.054 13.691,14.067 13.657 C 14.080 13.624,14.245 13.495,14.435 13.371 C 14.885 13.078,15.488 12.475,15.776 12.032 C 16.054 11.605,16.154 11.520,16.383 11.520 C 16.527 11.520,16.587 11.547,16.748 11.685 " fill="#292D32" stroke="none" fill-rule="evenodd"></path></svg>