<svg width="24" height="24" viewBox="0 0 24 24" fill="none" xmlns="http://www.w3.org/2000/svg"><path d="M3.922 2.061 C 2.972 2.233,2.231 2.981,2.060 3.940 C 1.977 4.407,1.972 18.033,2.055 18.585 C 2.288 20.137,3.402 21.415,4.889 21.837 C 7.205 22.495,9.579 20.973,9.942 18.600 C 10.027 18.038,10.026 4.422,9.940 3.940 C 9.768 2.971,9.029 2.232,8.060 2.060 C 7.615 1.981,4.361 1.982,3.922 2.061 M14.190 4.927 C 13.852 4.960,13.572 5.050,13.240 5.231 C 12.906 5.414,11.725 6.563,11.590 6.837 L 11.500 7.020 11.500 11.480 C 11.500 16.506,11.479 16.165,11.807 16.461 C 12.025 16.659,12.201 16.725,12.505 16.725 C 12.705 16.725,12.802 16.702,12.954 16.619 C 13.241 16.463,18.571 11.106,18.758 10.786 C 18.965 10.431,19.080 9.985,19.080 9.531 C 19.080 8.909,18.912 8.430,18.523 7.945 C 18.296 7.662,16.222 5.596,15.974 5.407 C 15.486 5.033,14.849 4.861,14.190 4.927 M17.880 14.070 C 17.667 14.144,17.575 14.235,14.877 17.000 C 13.836 18.067,12.649 19.282,12.238 19.700 C 11.580 20.371,11.484 20.485,11.422 20.674 C 11.246 21.206,11.553 21.814,12.071 21.958 C 12.169 21.985,13.511 21.999,15.980 21.999 C 20.188 21.999,20.045 22.007,20.638 21.715 C 21.268 21.404,21.738 20.811,21.921 20.096 C 21.994 19.811,22.000 19.648,22.000 18.000 C 22.000 15.983,21.988 15.874,21.692 15.308 C 21.381 14.712,20.696 14.200,20.020 14.060 C 19.614 13.975,18.129 13.982,17.880 14.070 M6.549 16.608 C 7.180 16.841,7.589 17.552,7.479 18.228 C 7.282 19.434,5.804 19.917,4.943 19.057 C 4.359 18.473,4.359 17.527,4.943 16.943 C 5.368 16.519,5.967 16.394,6.549 16.608 " fill="#292D32" stroke="none" fill-rule="evenodd"></path></svg>