<svg width="24" height="24" viewBox="0 0 24 24" fill="none" xmlns="http://www.w3.org/2000/svg"><path d="M4.424 2.063 C 3.782 2.207,3.338 2.452,2.880 2.916 C 2.289 3.514,2.022 4.164,2.022 5.000 C 2.022 5.850,2.290 6.490,2.900 7.100 C 3.302 7.502,3.674 7.727,4.200 7.885 C 4.488 7.971,4.572 7.976,6.250 7.990 L 8.000 8.005 8.000 12.000 L 8.000 15.995 6.250 16.010 C 4.568 16.024,4.488 16.028,4.200 16.115 C 3.673 16.274,3.301 16.499,2.900 16.900 C 2.290 17.510,2.022 18.150,2.022 19.000 C 2.022 19.850,2.290 20.490,2.900 21.100 C 3.511 21.711,4.148 21.976,5.000 21.976 C 5.852 21.976,6.489 21.711,7.100 21.100 C 7.502 20.698,7.727 20.326,7.885 19.800 C 7.971 19.512,7.976 19.428,7.990 17.750 L 8.005 16.000 12.000 16.000 L 15.995 16.000 16.010 17.750 C 16.024 19.432,16.028 19.512,16.115 19.800 C 16.274 20.327,16.499 20.699,16.900 21.100 C 17.511 21.711,18.148 21.976,19.000 21.976 C 19.852 21.976,20.489 21.711,21.100 21.100 C 21.711 20.489,21.976 19.852,21.976 19.000 C 21.976 18.148,21.711 17.511,21.100 16.900 C 20.699 16.499,20.327 16.274,19.800 16.115 C 19.512 16.028,19.432 16.024,17.750 16.010 L 16.000 15.995 16.000 12.000 L 16.000 8.005 17.750 7.990 C 19.428 7.976,19.512 7.971,19.800 7.885 C 20.326 7.727,20.698 7.502,21.100 7.100 C 21.711 6.489,21.976 5.852,21.976 5.000 C 21.976 4.148,21.711 3.511,21.100 2.900 C 20.490 2.290,19.850 2.022,19.000 2.022 C 18.150 2.022,17.510 2.290,16.900 2.900 C 16.499 3.301,16.274 3.673,16.115 4.200 C 16.028 4.488,16.024 4.568,16.010 6.250 L 15.995 8.000 12.000 8.000 L 8.005 8.000 7.990 6.250 C 7.976 4.572,7.971 4.488,7.885 4.200 C 7.727 3.674,7.502 3.302,7.100 2.900 C 6.695 2.495,6.314 2.266,5.800 2.120 C 5.400 2.006,4.790 1.981,4.424 2.063 " fill="#292D32" stroke="none" fill-rule="evenodd"></path></svg>