<svg width="24" height="24" viewBox="0 0 24 24" fill="none" xmlns="http://www.w3.org/2000/svg"><path d="M6.960 2.046 C 6.236 2.116,5.358 2.357,4.796 2.641 C 4.426 2.828,3.928 3.183,3.624 3.475 C 2.737 4.332,2.251 5.370,2.062 6.812 C 1.970 7.515,1.969 16.481,2.061 17.188 C 2.239 18.550,2.681 19.544,3.476 20.372 C 4.162 21.084,4.935 21.524,5.956 21.780 C 6.817 21.997,6.896 22.000,11.993 22.000 C 14.960 22.000,16.828 21.985,17.041 21.959 C 19.985 21.603,21.695 19.840,21.962 16.885 C 21.990 16.579,21.999 14.787,21.989 11.660 C 21.974 7.001,21.972 6.891,21.889 6.456 C 21.642 5.171,21.165 4.235,20.369 3.478 C 19.583 2.729,18.652 2.295,17.359 2.076 C 16.995 2.014,7.572 1.987,6.960 2.046 M8.168 6.045 C 8.839 6.188,9.412 6.761,9.555 7.432 C 9.623 7.754,9.613 8.663,9.537 8.916 C 9.457 9.186,9.210 9.442,8.940 9.534 C 8.687 9.620,7.681 9.626,7.370 9.543 C 6.862 9.408,6.435 9.066,6.205 8.609 C 5.532 7.276,6.711 5.736,8.168 6.045 M16.568 6.045 C 17.488 6.240,18.125 7.166,17.968 8.081 C 17.846 8.794,17.331 9.356,16.630 9.543 C 16.319 9.626,15.313 9.620,15.060 9.534 C 14.807 9.447,14.553 9.193,14.466 8.940 C 14.387 8.707,14.374 7.768,14.445 7.432 C 14.648 6.475,15.616 5.843,16.568 6.045 M13.600 9.923 C 13.824 10.025,13.943 10.134,14.054 10.340 C 14.138 10.496,14.140 10.541,14.140 12.003 L 14.140 13.506 14.019 13.702 C 13.944 13.823,13.823 13.944,13.702 14.019 L 13.506 14.140 12.003 14.140 C 10.541 14.140,10.496 14.138,10.340 14.054 C 10.134 13.943,10.025 13.824,9.923 13.600 C 9.846 13.430,9.842 13.343,9.841 12.025 C 9.840 11.039,9.854 10.581,9.889 10.465 C 9.949 10.262,10.246 9.954,10.440 9.893 C 10.531 9.864,11.080 9.847,12.000 9.845 C 13.348 9.842,13.429 9.846,13.600 9.923 M8.940 14.466 C 9.210 14.558,9.457 14.814,9.537 15.084 C 9.613 15.337,9.623 16.246,9.555 16.568 C 9.452 17.054,9.042 17.598,8.630 17.796 C 7.894 18.150,7.107 18.030,6.554 17.480 C 6.130 17.057,5.936 16.478,6.032 15.919 C 6.153 15.210,6.690 14.628,7.380 14.456 C 7.692 14.379,8.703 14.385,8.940 14.466 M16.568 14.445 C 17.488 14.640,18.125 15.566,17.968 16.481 C 17.721 17.923,15.979 18.500,14.954 17.480 C 14.704 17.230,14.513 16.889,14.445 16.568 C 14.374 16.232,14.387 15.293,14.466 15.060 C 14.549 14.816,14.807 14.552,15.043 14.469 C 15.259 14.392,16.248 14.377,16.568 14.445 " fill="#292D32" stroke="none" fill-rule="evenodd"></path></svg>