<svg width="24" height="24" viewBox="0 0 24 24" fill="none" xmlns="http://www.w3.org/2000/svg"><path d="M11.460 2.042 C 10.947 2.122,10.447 2.318,9.960 2.632 C 9.719 2.787,3.132 9.329,2.799 9.743 C 2.223 10.461,1.921 11.499,2.032 12.379 C 2.125 13.119,2.397 13.756,2.860 14.318 C 2.978 14.462,4.566 16.067,6.388 17.884 C 9.876 21.363,9.948 21.428,10.564 21.687 C 11.732 22.178,12.956 22.066,14.040 21.368 C 14.298 21.202,20.843 14.697,21.207 14.244 C 21.493 13.889,21.722 13.447,21.866 12.971 C 21.961 12.660,21.974 12.551,21.976 12.020 C 21.979 11.374,21.926 11.098,21.695 10.547 C 21.448 9.961,21.387 9.895,17.806 6.307 C 15.922 4.419,14.271 2.795,14.137 2.699 C 13.810 2.463,13.290 2.219,12.900 2.119 C 12.530 2.024,11.817 1.986,11.460 2.042 " fill="#292D32" stroke="none" fill-rule="evenodd"></path></svg>