<svg width="24" height="24" viewBox="0 0 24 24" fill="none" xmlns="http://www.w3.org/2000/svg"><path d="M6.991 2.044 C 6.252 2.117,5.350 2.362,4.800 2.640 C 4.372 2.856,3.859 3.234,3.515 3.586 C 2.777 4.344,2.333 5.262,2.108 6.497 C 2.020 6.978,2.020 7.002,2.020 11.960 C 2.020 15.824,2.032 17.016,2.072 17.280 C 2.149 17.790,2.308 18.399,2.465 18.791 C 2.613 19.160,2.922 19.719,3.025 19.804 C 3.077 19.847,4.301 18.639,11.470 11.470 C 18.639 4.301,19.847 3.077,19.804 3.025 C 19.721 2.925,19.163 2.614,18.820 2.477 C 18.399 2.308,18.075 2.216,17.540 2.112 C 17.106 2.027,17.032 2.025,12.220 2.017 C 9.536 2.013,7.183 2.025,6.991 2.044 M12.506 12.554 L 4.112 20.948 4.366 21.108 C 4.835 21.404,5.287 21.598,5.897 21.763 C 6.699 21.980,6.494 21.972,11.700 21.989 C 15.073 22.000,16.673 21.992,16.980 21.961 C 18.413 21.816,19.497 21.360,20.356 20.541 C 21.288 19.652,21.806 18.511,21.962 17.000 C 21.991 16.714,22.000 15.028,21.990 11.700 C 21.976 7.303,21.968 6.786,21.906 6.480 C 21.808 5.989,21.662 5.498,21.500 5.115 C 21.339 4.732,21.004 4.160,20.942 4.160 C 20.919 4.160,17.123 7.937,12.506 12.554 M10.832 6.836 C 11.094 6.969,11.240 7.208,11.240 7.500 C 11.240 7.792,11.094 8.031,10.832 8.164 C 10.690 8.236,10.554 8.240,8.000 8.240 C 5.446 8.240,5.310 8.236,5.168 8.164 C 4.999 8.078,4.917 7.994,4.825 7.812 C 4.697 7.559,4.776 7.139,4.986 6.955 C 5.212 6.757,5.113 6.763,7.992 6.762 C 10.556 6.760,10.690 6.764,10.832 6.836 M16.400 12.342 C 16.537 12.412,16.706 12.597,16.757 12.733 C 16.783 12.801,16.800 13.223,16.800 13.803 L 16.800 14.760 17.742 14.760 C 18.587 14.760,18.698 14.768,18.832 14.836 C 19.015 14.929,19.099 15.020,19.178 15.210 C 19.292 15.483,19.217 15.869,19.014 16.048 C 18.822 16.219,18.683 16.240,17.723 16.240 L 16.804 16.240 16.792 17.256 L 16.780 18.273 16.656 18.426 C 16.479 18.645,16.302 18.737,16.060 18.737 C 15.818 18.737,15.641 18.645,15.464 18.426 L 15.340 18.273 15.328 17.256 L 15.316 16.240 14.328 16.239 C 13.192 16.238,13.091 16.216,12.898 15.924 C 12.640 15.534,12.772 15.020,13.177 14.836 C 13.321 14.770,13.453 14.762,14.328 14.761 L 15.316 14.760 15.328 13.747 L 15.340 12.734 15.453 12.586 C 15.515 12.505,15.610 12.409,15.664 12.374 C 15.868 12.240,16.175 12.227,16.400 12.342 " fill="#292D32" stroke="none" fill-rule="evenodd"></path></svg>