<svg width="24" height="24" viewBox="0 0 24 24" fill="none" xmlns="http://www.w3.org/2000/svg"><path d="M10.980 2.084 C 10.011 2.189,8.914 2.483,8.020 2.879 C 7.477 3.120,6.792 3.485,6.772 3.545 C 6.765 3.564,8.299 5.119,10.180 7.000 L 13.600 10.420 13.600 8.989 C 13.600 7.453,13.608 7.385,13.812 7.167 C 14.136 6.820,14.757 6.896,14.990 7.312 L 15.080 7.471 15.080 9.933 C 15.080 11.359,15.064 12.436,15.043 12.493 C 14.967 12.691,14.759 12.878,14.544 12.940 C 14.360 12.994,14.315 12.994,14.138 12.941 C 13.952 12.886,13.680 12.622,9.740 8.681 C 7.430 6.370,5.521 4.480,5.497 4.480 C 5.428 4.480,4.441 5.508,4.153 5.880 C 3.110 7.226,2.440 8.759,2.158 10.440 C 2.050 11.086,2.011 12.319,2.077 12.981 C 2.202 14.229,2.517 15.320,3.080 16.460 C 3.427 17.162,3.767 17.697,4.234 18.280 C 5.755 20.179,7.929 21.466,10.314 21.881 C 12.450 22.252,14.557 21.938,16.525 20.953 C 16.912 20.759,17.249 20.577,17.273 20.548 C 17.307 20.508,16.549 19.728,13.904 17.084 L 10.492 13.672 10.464 15.126 C 10.432 16.746,10.432 16.744,10.148 16.975 C 9.836 17.227,9.317 17.136,9.087 16.788 L 8.980 16.626 8.980 14.163 C 8.980 12.808,8.993 11.652,9.010 11.593 C 9.082 11.335,9.428 11.083,9.711 11.081 C 9.783 11.080,9.909 11.108,9.991 11.141 C 10.096 11.185,11.373 12.435,14.350 15.411 L 18.559 19.619 19.023 19.160 C 19.895 18.295,20.483 17.481,21.003 16.420 C 22.862 12.625,22.161 8.164,19.220 5.085 C 17.752 3.548,15.664 2.476,13.480 2.139 C 12.974 2.061,11.496 2.029,10.980 2.084 " fill="#292D32" stroke="none" fill-rule="evenodd"></path></svg>