<svg width="24" height="24" viewBox="0 0 24 24" fill="none" xmlns="http://www.w3.org/2000/svg"><path d="M8.387 1.283 C 5.006 1.525,2.112 4.080,1.418 7.434 C 1.295 8.027,1.229 8.905,1.287 9.173 C 1.423 9.809,2.318 9.937,2.634 9.367 C 2.711 9.227,2.733 9.106,2.762 8.669 C 2.825 7.736,3.015 7.007,3.394 6.248 C 3.734 5.568,3.978 5.224,4.518 4.666 C 5.110 4.053,5.707 3.630,6.461 3.291 C 6.839 3.121,7.509 2.896,7.542 2.929 C 7.552 2.939,7.484 3.080,7.391 3.242 C 7.244 3.496,7.220 3.568,7.221 3.763 C 7.222 3.941,7.246 4.025,7.331 4.154 C 7.590 4.544,8.175 4.595,8.484 4.255 C 8.580 4.149,9.499 2.639,9.659 2.325 C 9.804 2.039,9.711 1.608,9.464 1.422 C 9.328 1.319,9.076 1.237,8.920 1.246 C 8.865 1.249,8.625 1.266,8.387 1.283 M16.660 2.073 C 16.353 2.181,13.317 3.831,13.174 3.968 C 12.943 4.188,12.906 4.576,13.087 4.870 C 13.133 4.946,13.278 5.065,13.433 5.154 C 14.060 5.516,16.553 6.835,16.696 6.880 C 16.788 6.910,16.955 6.922,17.104 6.910 C 17.341 6.891,17.457 6.835,19.048 5.982 C 19.989 5.477,20.788 5.023,20.848 4.959 C 20.993 4.804,21.057 4.574,21.022 4.339 C 20.973 4.010,20.860 3.931,19.120 2.994 C 17.503 2.124,17.244 2.003,17.000 2.003 C 16.923 2.003,16.770 2.034,16.660 2.073 M12.466 5.896 C 12.262 5.972,12.136 6.096,12.059 6.296 C 12.005 6.438,11.998 6.682,12.008 8.040 L 12.020 9.620 12.125 9.840 C 12.314 10.239,12.408 10.301,14.130 11.163 C 15.582 11.891,15.738 11.960,15.926 11.960 C 16.207 11.960,16.444 11.821,16.556 11.588 C 16.637 11.421,16.640 11.357,16.640 9.849 C 16.640 7.558,16.802 7.804,14.546 6.676 C 13.496 6.151,12.885 5.867,12.780 5.856 C 12.692 5.847,12.551 5.865,12.466 5.896 M21.080 5.876 C 21.025 5.894,20.292 6.253,19.450 6.674 C 18.493 7.154,17.861 7.494,17.761 7.584 C 17.674 7.663,17.552 7.829,17.491 7.954 L 17.380 8.180 17.380 9.843 L 17.380 11.506 17.479 11.651 C 17.617 11.852,17.825 11.960,18.075 11.960 C 18.259 11.960,18.424 11.887,19.843 11.178 C 21.543 10.327,21.675 10.240,21.869 9.846 L 21.980 9.620 21.992 8.030 C 22.003 6.524,21.999 6.430,21.925 6.263 C 21.794 5.965,21.381 5.776,21.080 5.876 M6.540 12.132 C 5.888 12.445,3.243 13.904,3.152 14.000 C 3.042 14.119,2.960 14.342,2.961 14.520 C 2.962 14.658,3.090 14.922,3.205 15.025 C 3.257 15.072,4.041 15.509,4.946 15.995 C 6.705 16.942,6.826 16.991,7.203 16.919 C 7.495 16.864,10.645 15.173,10.847 14.963 C 11.102 14.697,11.092 14.253,10.825 13.990 C 10.750 13.916,9.976 13.474,9.017 12.960 L 7.341 12.060 7.040 12.048 C 6.790 12.039,6.706 12.053,6.540 12.132 M21.854 14.278 C 21.650 14.327,21.463 14.465,21.364 14.641 C 21.287 14.778,21.266 14.895,21.239 15.333 C 21.221 15.623,21.168 16.043,21.123 16.268 C 20.670 18.485,18.998 20.317,16.820 20.981 C 16.629 21.039,16.468 21.081,16.460 21.073 C 16.453 21.066,16.521 20.937,16.611 20.786 C 16.814 20.445,16.851 20.177,16.729 19.937 C 16.685 19.851,16.615 19.751,16.574 19.715 C 16.264 19.442,15.778 19.456,15.516 19.745 C 15.361 19.916,14.331 21.655,14.276 21.838 C 14.173 22.181,14.438 22.621,14.808 22.724 C 15.037 22.787,15.974 22.713,16.583 22.583 C 19.240 22.015,21.442 20.081,22.316 17.547 C 22.679 16.495,22.864 15.127,22.698 14.729 C 22.553 14.381,22.204 14.195,21.854 14.278 M2.464 15.922 C 2.302 15.970,2.133 16.144,2.059 16.337 C 2.005 16.478,1.998 16.725,2.008 18.080 L 2.020 19.660 2.131 19.886 C 2.192 20.011,2.314 20.177,2.401 20.256 C 2.615 20.449,5.619 21.953,5.856 21.986 C 6.085 22.017,6.351 21.899,6.504 21.698 L 6.620 21.546 6.620 19.863 L 6.620 18.180 6.513 17.977 C 6.326 17.622,6.178 17.528,4.477 16.679 C 2.813 15.848,2.767 15.831,2.464 15.922 M9.491 16.695 C 7.755 17.561,7.667 17.618,7.476 17.993 C 7.380 18.179,7.380 18.185,7.368 19.760 C 7.361 20.629,7.367 21.400,7.380 21.472 C 7.438 21.787,7.847 22.045,8.186 21.982 C 8.415 21.939,11.418 20.420,11.601 20.254 C 11.687 20.176,11.808 20.011,11.869 19.886 L 11.980 19.660 11.993 18.100 C 12.001 17.079,11.990 16.490,11.963 16.395 C 11.903 16.192,11.773 16.042,11.583 15.956 C 11.266 15.812,11.248 15.818,9.491 16.695 " fill="#292D32" stroke="none" fill-rule="evenodd"></path></svg>