<svg width="24" height="24" viewBox="0 0 24 24" fill="none" xmlns="http://www.w3.org/2000/svg"><path d="M8.442 2.044 C 5.694 2.349,3.331 4.229,2.407 6.846 C 2.156 7.557,1.960 8.763,2.013 9.272 C 2.042 9.552,2.181 9.765,2.410 9.875 C 2.737 10.034,3.126 9.945,3.341 9.662 C 3.444 9.527,3.457 9.469,3.507 8.908 C 3.645 7.361,4.168 6.202,5.185 5.185 C 5.625 4.744,6.057 4.428,6.608 4.140 C 6.976 3.948,7.716 3.662,7.751 3.698 C 7.759 3.706,7.710 3.815,7.643 3.942 C 7.554 4.108,7.520 4.225,7.520 4.367 C 7.520 5.043,8.324 5.362,8.787 4.870 C 8.854 4.798,9.140 4.353,9.423 3.880 C 9.893 3.093,9.938 3.001,9.953 2.792 C 9.967 2.599,9.953 2.535,9.865 2.385 C 9.705 2.111,9.533 2.026,9.122 2.015 C 8.934 2.010,8.628 2.023,8.442 2.044 M15.412 2.042 C 14.359 2.171,13.686 2.576,13.346 3.286 C 13.015 3.979,12.992 4.247,13.011 7.220 C 13.024 9.411,13.034 9.735,13.096 9.998 C 13.358 11.106,13.931 11.668,15.045 11.908 C 15.344 11.972,15.606 11.980,17.500 11.980 C 19.394 11.980,19.656 11.972,19.955 11.908 C 21.069 11.668,21.642 11.106,21.904 9.998 C 21.966 9.735,21.976 9.411,21.989 7.220 C 22.005 4.708,21.991 4.358,21.855 3.820 C 21.624 2.908,21.007 2.330,20.031 2.111 C 19.687 2.034,19.518 2.027,17.680 2.017 C 16.591 2.012,15.570 2.023,15.412 2.042 M4.580 12.024 C 3.664 12.143,3.236 12.296,2.813 12.658 C 2.468 12.954,2.194 13.511,2.075 14.160 C 1.995 14.595,1.995 19.406,2.075 19.837 C 2.267 20.880,2.720 21.467,3.560 21.764 C 4.137 21.968,4.299 21.980,6.500 21.980 C 8.701 21.980,8.863 21.968,9.440 21.764 C 10.280 21.467,10.733 20.880,10.925 19.837 C 11.005 19.406,11.005 14.594,10.925 14.163 C 10.700 12.945,10.135 12.355,8.940 12.091 C 8.712 12.041,8.289 12.028,6.680 12.019 C 5.591 12.013,4.646 12.016,4.580 12.024 M20.940 14.103 C 20.627 14.266,20.537 14.466,20.500 15.078 C 20.360 17.418,18.855 19.409,16.650 20.175 C 16.425 20.253,16.240 20.309,16.240 20.298 C 16.240 20.287,16.294 20.183,16.360 20.066 C 16.560 19.711,16.513 19.296,16.246 19.072 C 16.080 18.931,15.868 18.866,15.655 18.890 C 15.338 18.926,15.245 19.029,14.681 19.966 C 14.394 20.443,14.132 20.897,14.099 20.975 C 13.910 21.430,14.208 21.927,14.706 21.986 C 14.964 22.016,15.801 21.936,16.257 21.838 C 17.661 21.534,18.873 20.877,19.875 19.875 C 21.088 18.662,21.797 17.143,21.962 15.402 C 22.019 14.802,21.996 14.558,21.861 14.354 C 21.674 14.072,21.231 13.951,20.940 14.103 " fill="#292D32" stroke="none" fill-rule="evenodd"></path></svg>