<svg width="24" height="24" viewBox="0 0 24 24" fill="none" xmlns="http://www.w3.org/2000/svg"><path d="M8.442 2.044 C 5.694 2.349,3.331 4.229,2.407 6.846 C 2.156 7.557,1.960 8.763,2.013 9.272 C 2.042 9.552,2.181 9.765,2.410 9.875 C 2.737 10.034,3.126 9.945,3.341 9.662 C 3.444 9.527,3.457 9.469,3.507 8.908 C 3.645 7.361,4.168 6.202,5.185 5.185 C 5.625 4.744,6.057 4.428,6.608 4.140 C 6.976 3.948,7.716 3.662,7.751 3.698 C 7.759 3.706,7.710 3.815,7.643 3.942 C 7.554 4.108,7.520 4.225,7.520 4.367 C 7.520 5.043,8.324 5.362,8.787 4.870 C 8.854 4.798,9.140 4.353,9.423 3.880 C 9.893 3.093,9.938 3.001,9.953 2.792 C 9.967 2.599,9.953 2.535,9.865 2.385 C 9.705 2.111,9.533 2.026,9.122 2.015 C 8.934 2.010,8.628 2.023,8.442 2.044 M16.900 2.045 C 14.533 2.341,12.776 4.573,13.034 6.955 C 13.338 9.754,16.056 11.591,18.749 10.817 C 20.821 10.222,22.197 8.179,21.966 6.045 C 21.690 3.503,19.442 1.728,16.900 2.045 M4.412 13.042 C 3.359 13.171,2.686 13.576,2.346 14.286 C 2.024 14.960,1.991 15.302,2.011 17.722 C 2.025 19.423,2.037 19.742,2.097 19.998 C 2.356 21.104,2.931 21.668,4.045 21.908 C 4.344 21.972,4.606 21.980,6.500 21.980 C 8.394 21.980,8.656 21.972,8.955 21.908 C 10.069 21.668,10.644 21.104,10.903 19.998 C 10.963 19.742,10.975 19.423,10.989 17.722 C 11.009 15.302,10.976 14.960,10.654 14.286 C 10.370 13.693,9.806 13.285,9.031 13.111 C 8.687 13.034,8.518 13.027,6.680 13.017 C 5.591 13.012,4.570 13.023,4.412 13.042 M20.940 14.103 C 20.627 14.266,20.537 14.466,20.500 15.078 C 20.360 17.418,18.855 19.409,16.650 20.175 C 16.425 20.253,16.240 20.309,16.240 20.298 C 16.240 20.287,16.294 20.183,16.360 20.066 C 16.560 19.711,16.513 19.296,16.246 19.072 C 16.080 18.931,15.868 18.866,15.655 18.890 C 15.338 18.926,15.245 19.029,14.681 19.966 C 14.394 20.443,14.132 20.897,14.099 20.975 C 13.910 21.430,14.208 21.927,14.706 21.986 C 14.964 22.016,15.801 21.936,16.257 21.838 C 17.661 21.534,18.873 20.877,19.875 19.875 C 21.088 18.662,21.797 17.143,21.962 15.402 C 22.019 14.802,21.996 14.558,21.861 14.354 C 21.674 14.072,21.231 13.951,20.940 14.103 " fill="#292D32" stroke="none" fill-rule="evenodd"></path></svg>