<svg width="24" height="24" viewBox="0 0 24 24" fill="none" xmlns="http://www.w3.org/2000/svg"><path d="M11.962 2.043 C 10.159 2.210,9.070 2.859,8.491 4.110 C 8.305 4.514,8.120 5.254,8.094 5.700 C 8.074 6.027,8.081 6.076,8.169 6.240 C 8.295 6.473,8.544 6.661,8.800 6.716 C 8.926 6.743,9.551 6.760,10.432 6.760 C 11.946 6.760,12.574 6.805,13.239 6.962 C 14.335 7.219,15.103 7.617,15.743 8.257 C 16.380 8.894,16.782 9.670,17.038 10.761 C 17.195 11.426,17.240 12.054,17.240 13.568 C 17.240 14.449,17.257 15.074,17.284 15.200 C 17.339 15.456,17.527 15.705,17.760 15.831 C 17.924 15.919,17.972 15.926,18.300 15.905 C 18.728 15.879,19.476 15.697,19.843 15.531 C 21.028 14.992,21.656 14.063,21.909 12.471 C 21.973 12.067,21.980 11.705,21.980 9.000 C 21.980 6.295,21.973 5.933,21.909 5.529 C 21.578 3.443,20.587 2.442,18.513 2.095 C 18.153 2.035,17.730 2.025,15.220 2.017 C 13.636 2.012,12.170 2.024,11.962 2.043 M5.960 8.042 C 4.652 8.171,3.787 8.509,3.144 9.141 C 2.608 9.669,2.282 10.386,2.091 11.460 C 2.027 11.821,2.020 12.166,2.020 15.000 C 2.020 18.386,2.023 18.439,2.243 19.229 C 2.618 20.574,3.426 21.382,4.771 21.757 C 5.561 21.977,5.614 21.980,9.000 21.980 C 12.386 21.980,12.439 21.977,13.229 21.757 C 14.574 21.382,15.382 20.574,15.757 19.229 C 15.977 18.439,15.980 18.386,15.980 15.000 C 15.980 12.166,15.973 11.821,15.909 11.460 C 15.769 10.677,15.571 10.116,15.269 9.651 C 14.719 8.804,13.879 8.329,12.520 8.095 C 12.197 8.039,11.706 8.028,9.220 8.019 C 7.614 8.013,6.147 8.023,5.960 8.042 " fill="#292D32" stroke="none" fill-rule="evenodd"></path></svg>