<svg width="24" height="24" viewBox="0 0 24 24" fill="none" xmlns="http://www.w3.org/2000/svg"><path d="M11.120 2.039 C 8.336 2.318,5.905 3.624,4.193 5.760 C 1.474 9.155,1.267 13.917,3.682 17.533 C 6.770 22.155,12.946 23.386,17.560 20.299 C 22.155 17.225,23.377 11.041,20.299 6.440 C 18.728 4.092,16.319 2.562,13.493 2.119 C 12.909 2.027,11.660 1.985,11.120 2.039 M13.402 7.410 C 13.873 7.535,14.273 7.703,14.690 7.951 C 15.048 8.164,15.453 8.512,15.541 8.683 C 15.616 8.827,15.617 9.211,15.544 9.352 C 15.378 9.672,14.943 9.843,14.614 9.718 C 14.553 9.695,14.376 9.579,14.222 9.460 C 13.866 9.189,13.347 8.940,12.960 8.857 C 12.527 8.763,11.822 8.770,11.435 8.873 C 10.000 9.254,9.001 10.546,9.001 12.020 C 9.001 13.558,10.033 14.824,11.580 15.183 C 11.925 15.263,12.700 15.242,13.060 15.143 C 13.423 15.044,13.862 14.822,14.239 14.549 C 14.551 14.322,14.596 14.301,14.822 14.287 C 15.285 14.258,15.600 14.545,15.600 14.997 C 15.600 15.282,15.510 15.452,15.239 15.678 C 13.586 17.054,11.164 17.116,9.427 15.828 C 8.088 14.835,7.355 13.204,7.520 11.585 C 7.736 9.459,9.207 7.811,11.291 7.361 C 11.836 7.243,12.862 7.267,13.402 7.410 " fill="#292D32" stroke="none" fill-rule="evenodd"></path></svg>