<svg width="24" height="24" viewBox="0 0 24 24" fill="none" xmlns="http://www.w3.org/2000/svg"><path d="M11.958 2.040 C 11.151 2.115,10.471 2.299,9.900 2.594 C 9.441 2.831,8.892 3.355,8.657 3.780 C 8.334 4.362,8.080 5.255,8.080 5.804 C 8.080 6.110,8.184 6.348,8.394 6.521 C 8.663 6.744,8.790 6.760,10.340 6.760 C 11.113 6.760,11.943 6.779,12.183 6.803 C 13.993 6.979,15.305 7.605,16.115 8.680 C 16.711 9.471,17.080 10.546,17.198 11.840 C 17.221 12.093,17.240 12.922,17.240 13.683 C 17.240 15.285,17.254 15.376,17.536 15.659 C 17.631 15.753,17.777 15.852,17.861 15.880 C 18.194 15.990,19.108 15.837,19.775 15.560 C 20.891 15.095,21.578 14.184,21.856 12.800 C 21.989 12.141,22.006 11.617,21.990 8.700 C 21.977 6.198,21.966 5.770,21.906 5.440 C 21.767 4.672,21.567 4.110,21.269 3.651 C 20.719 2.804,19.879 2.329,18.520 2.095 C 18.196 2.039,17.706 2.028,15.220 2.019 C 13.614 2.013,12.146 2.023,11.958 2.040 M5.962 8.043 C 3.590 8.262,2.446 9.293,2.091 11.529 C 2.027 11.933,2.020 12.295,2.020 15.000 C 2.020 17.705,2.027 18.067,2.091 18.471 C 2.425 20.575,3.425 21.575,5.529 21.909 C 5.933 21.973,6.295 21.980,9.000 21.980 C 11.705 21.980,12.067 21.973,12.471 21.909 C 14.574 21.575,15.575 20.574,15.909 18.471 C 15.973 18.067,15.980 17.705,15.980 15.000 C 15.980 12.295,15.973 11.933,15.909 11.529 C 15.577 9.440,14.590 8.442,12.513 8.095 C 12.153 8.035,11.730 8.025,9.220 8.017 C 7.636 8.012,6.170 8.024,5.962 8.043 M12.115 12.511 C 12.313 12.603,12.480 12.886,12.480 13.129 C 12.480 13.236,12.455 13.380,12.424 13.451 C 12.352 13.617,8.498 17.461,8.347 17.518 C 8.191 17.576,7.942 17.570,7.789 17.504 C 7.718 17.474,7.180 16.965,6.593 16.374 C 5.561 15.335,5.525 15.294,5.499 15.111 C 5.452 14.790,5.602 14.504,5.893 14.363 C 6.308 14.162,6.485 14.255,7.359 15.136 L 8.059 15.840 9.739 14.162 C 10.984 12.921,11.451 12.478,11.540 12.459 C 11.606 12.445,11.678 12.427,11.700 12.419 C 11.763 12.397,11.968 12.443,12.115 12.511 " fill="#292D32" stroke="none" fill-rule="evenodd"></path></svg>