<svg width="24" height="24" viewBox="0 0 24 24" fill="none" xmlns="http://www.w3.org/2000/svg"><path d="M11.787 1.288 C 11.581 1.344,11.340 1.580,11.285 1.780 C 11.254 1.889,11.240 2.778,11.240 4.587 L 11.240 7.234 8.790 7.252 C 6.102 7.271,6.023 7.278,5.344 7.523 C 4.792 7.723,4.356 8.033,3.993 8.485 C 3.625 8.942,3.365 9.632,3.283 10.373 C 3.255 10.626,3.240 12.543,3.240 15.995 L 3.240 21.232 2.530 21.247 C 1.888 21.261,1.804 21.271,1.650 21.352 C 1.458 21.453,1.298 21.671,1.259 21.884 C 1.198 22.222,1.450 22.624,1.781 22.715 C 1.895 22.747,4.783 22.760,12.000 22.760 C 19.217 22.760,22.105 22.747,22.219 22.715 C 22.433 22.656,22.660 22.422,22.721 22.199 C 22.811 21.868,22.655 21.513,22.347 21.350 C 22.197 21.271,22.107 21.261,21.470 21.247 L 20.760 21.232 20.760 15.995 C 20.760 12.543,20.745 10.626,20.717 10.373 C 20.558 8.944,19.840 7.952,18.656 7.523 C 17.977 7.278,17.898 7.271,15.210 7.252 L 12.760 7.234 12.760 6.632 L 12.760 6.031 12.910 6.060 C 13.534 6.180,13.729 6.204,14.260 6.226 C 15.216 6.266,16.232 6.100,17.110 5.761 C 17.473 5.622,17.648 5.463,17.718 5.211 C 17.776 5.000,17.774 1.993,17.715 1.780 C 17.656 1.564,17.420 1.345,17.184 1.285 C 16.973 1.232,16.933 1.239,16.365 1.426 C 15.174 1.819,13.815 1.818,12.635 1.425 C 12.131 1.257,11.986 1.233,11.787 1.288 M7.240 17.000 L 7.240 21.240 6.000 21.240 L 4.760 21.240 4.760 17.000 L 4.760 12.760 6.000 12.760 L 7.240 12.760 7.240 17.000 M11.240 17.000 L 11.240 21.240 10.000 21.240 L 8.760 21.240 8.760 17.000 L 8.760 12.760 10.000 12.760 L 11.240 12.760 11.240 17.000 M15.240 17.000 L 15.240 21.240 14.000 21.240 L 12.760 21.240 12.760 17.000 L 12.760 12.760 14.000 12.760 L 15.240 12.760 15.240 17.000 M19.240 17.000 L 19.240 21.240 18.000 21.240 L 16.760 21.240 16.760 17.000 L 16.760 12.760 18.000 12.760 L 19.240 12.760 19.240 17.000 " fill="#292D32" stroke="none" fill-rule="evenodd"></path></svg>