<svg width="24" height="24" viewBox="0 0 24 24" fill="none" xmlns="http://www.w3.org/2000/svg"><path d="M8.020 2.073 C 7.825 2.166,7.704 2.293,7.622 2.489 C 7.573 2.606,7.560 2.805,7.560 3.433 L 7.560 4.229 7.310 4.320 C 6.377 4.658,5.458 5.356,4.927 6.132 C 4.689 6.478,4.406 7.030,4.303 7.348 L 4.235 7.556 3.364 7.568 C 2.523 7.580,2.489 7.583,2.355 7.675 C 2.123 7.834,2.023 8.023,2.021 8.303 C 2.020 8.610,2.150 8.829,2.410 8.955 C 2.568 9.032,2.654 9.040,3.293 9.040 L 4.000 9.040 4.000 10.136 L 4.000 11.232 3.270 11.247 C 2.492 11.263,2.402 11.283,2.212 11.487 C 1.821 11.905,2.018 12.562,2.580 12.716 C 2.668 12.740,3.024 12.760,3.370 12.760 L 4.000 12.760 4.000 13.860 L 4.000 14.960 3.293 14.960 C 2.654 14.960,2.568 14.968,2.410 15.045 C 2.150 15.171,2.020 15.390,2.021 15.697 C 2.023 15.977,2.123 16.166,2.355 16.325 C 2.489 16.417,2.523 16.420,3.364 16.432 L 4.235 16.444 4.303 16.652 C 4.591 17.533,5.304 18.490,6.080 19.036 C 6.416 19.273,6.934 19.544,7.310 19.680 L 7.560 19.771 7.561 20.575 C 7.562 21.269,7.572 21.402,7.635 21.542 C 7.830 21.971,8.335 22.120,8.722 21.863 C 9.004 21.677,9.040 21.548,9.040 20.722 L 9.040 20.000 10.160 20.000 L 11.280 20.000 11.280 20.722 C 11.280 21.548,11.316 21.677,11.598 21.863 C 11.985 22.120,12.490 21.971,12.685 21.542 C 12.747 21.405,12.758 21.273,12.759 20.690 L 12.760 20.000 13.858 20.000 L 14.955 20.000 14.968 20.753 C 14.979 21.471,14.984 21.513,15.075 21.645 C 15.234 21.877,15.423 21.977,15.700 21.977 C 15.977 21.977,16.166 21.877,16.325 21.645 C 16.417 21.511,16.420 21.477,16.432 20.636 L 16.444 19.765 16.652 19.697 C 17.274 19.495,18.005 19.034,18.520 18.520 C 19.035 18.004,19.495 17.274,19.698 16.650 L 19.766 16.440 20.591 16.440 C 21.540 16.440,21.660 16.409,21.866 16.112 C 21.961 15.974,21.980 15.906,21.980 15.700 C 21.980 15.389,21.850 15.171,21.590 15.045 C 21.432 14.968,21.346 14.960,20.707 14.960 L 20.000 14.960 20.000 13.864 L 20.000 12.768 20.730 12.753 C 21.508 12.737,21.598 12.717,21.788 12.513 C 21.903 12.391,22.000 12.155,22.000 12.000 C 22.000 11.845,21.903 11.609,21.788 11.487 C 21.598 11.283,21.508 11.263,20.730 11.247 L 20.000 11.232 20.000 10.136 L 20.000 9.040 20.707 9.040 C 21.346 9.040,21.432 9.032,21.590 8.955 C 21.850 8.829,21.980 8.611,21.980 8.300 C 21.980 8.094,21.961 8.026,21.866 7.888 C 21.660 7.591,21.540 7.560,20.591 7.560 L 19.766 7.560 19.698 7.350 C 19.495 6.726,19.035 5.996,18.520 5.480 C 18.005 4.966,17.274 4.505,16.652 4.303 L 16.444 4.235 16.432 3.364 C 16.420 2.523,16.417 2.489,16.325 2.355 C 16.166 2.123,15.977 2.023,15.700 2.023 C 15.423 2.023,15.234 2.123,15.075 2.355 C 14.984 2.487,14.979 2.529,14.968 3.247 L 14.955 4.000 13.858 4.000 L 12.760 4.000 12.760 3.370 C 12.760 2.685,12.726 2.491,12.571 2.286 C 12.207 1.804,11.449 1.978,11.284 2.580 C 11.260 2.668,11.240 3.024,11.240 3.370 L 11.240 4.000 10.140 4.000 L 9.040 4.000 9.040 3.278 C 9.040 2.633,9.031 2.540,8.959 2.398 C 8.791 2.068,8.351 1.916,8.020 2.073 M14.960 6.814 C 15.103 6.852,15.391 6.966,15.600 7.069 C 15.924 7.228,16.036 7.312,16.362 7.638 C 16.688 7.964,16.772 8.076,16.931 8.400 C 17.270 9.089,17.260 8.980,17.260 12.000 C 17.260 15.020,17.270 14.911,16.931 15.600 C 16.772 15.924,16.688 16.036,16.362 16.362 C 16.036 16.688,15.924 16.772,15.600 16.931 C 14.911 17.270,15.020 17.260,12.000 17.260 C 8.980 17.260,9.089 17.270,8.400 16.931 C 8.076 16.772,7.964 16.688,7.638 16.362 C 7.312 16.036,7.228 15.924,7.069 15.600 C 6.730 14.911,6.740 15.020,6.740 12.000 C 6.740 8.980,6.730 9.088,7.069 8.400 C 7.226 8.082,7.316 7.960,7.618 7.656 C 8.139 7.132,8.705 6.843,9.369 6.763 C 9.529 6.744,10.794 6.732,12.180 6.737 C 14.401 6.745,14.731 6.755,14.960 6.814 M9.472 7.822 C 8.845 7.974,8.252 8.447,7.988 9.006 C 7.738 9.534,7.740 9.512,7.740 12.040 C 7.740 14.304,7.741 14.344,7.829 14.620 C 8.066 15.369,8.633 15.936,9.380 16.172 C 9.655 16.259,9.699 16.260,11.960 16.260 C 14.490 16.260,14.466 16.262,14.997 16.011 C 15.378 15.830,15.803 15.415,15.990 15.040 C 16.244 14.528,16.244 14.538,16.231 11.914 L 16.220 9.540 16.114 9.251 C 15.855 8.541,15.240 7.992,14.510 7.820 C 14.155 7.736,9.818 7.738,9.472 7.822 M12.402 9.257 C 12.588 9.380,12.691 9.597,12.686 9.851 C 12.682 10.022,12.635 10.129,12.341 10.643 C 12.153 10.970,12.000 11.247,12.000 11.259 C 12.000 11.271,12.124 11.280,12.275 11.280 C 12.942 11.280,13.373 11.479,13.583 11.885 C 13.671 12.055,13.700 12.398,13.645 12.616 C 13.605 12.776,12.761 14.314,12.549 14.615 C 12.451 14.753,12.191 14.878,12.000 14.878 C 11.635 14.878,11.313 14.572,11.313 14.225 C 11.313 13.975,11.326 13.945,11.700 13.296 L 12.033 12.720 11.664 12.720 C 11.052 12.720,10.676 12.552,10.458 12.180 C 10.322 11.948,10.285 11.578,10.372 11.327 C 10.461 11.072,11.401 9.446,11.529 9.325 C 11.765 9.103,12.127 9.075,12.402 9.257 " fill="#292D32" stroke="none" fill-rule="evenodd"></path></svg>