<svg width="24" height="24" viewBox="0 0 24 24" fill="none" xmlns="http://www.w3.org/2000/svg"><path d="M8.020 2.073 C 7.825 2.166,7.704 2.293,7.622 2.489 C 7.573 2.606,7.560 2.805,7.560 3.429 L 7.560 4.221 7.290 4.317 C 6.394 4.637,5.460 5.354,4.927 6.132 C 4.689 6.478,4.406 7.030,4.303 7.348 L 4.235 7.556 3.364 7.568 C 2.523 7.580,2.489 7.583,2.355 7.675 C 2.123 7.834,2.023 8.023,2.021 8.303 C 2.020 8.610,2.150 8.829,2.410 8.955 C 2.568 9.032,2.654 9.040,3.293 9.040 L 4.000 9.040 4.000 10.136 L 4.000 11.232 3.270 11.247 C 2.492 11.263,2.402 11.283,2.212 11.487 C 1.821 11.905,2.018 12.562,2.580 12.716 C 2.668 12.740,3.024 12.760,3.370 12.760 L 4.000 12.760 4.000 13.860 L 4.000 14.960 3.293 14.960 C 2.654 14.960,2.568 14.968,2.410 15.045 C 2.150 15.171,2.020 15.390,2.021 15.697 C 2.023 15.977,2.123 16.166,2.355 16.325 C 2.489 16.417,2.523 16.420,3.364 16.432 L 4.235 16.444 4.303 16.652 C 4.406 16.970,4.689 17.522,4.927 17.868 C 5.460 18.646,6.394 19.363,7.290 19.683 L 7.560 19.779 7.561 20.580 C 7.562 21.270,7.572 21.402,7.635 21.542 C 7.830 21.971,8.335 22.120,8.722 21.863 C 9.004 21.677,9.040 21.548,9.040 20.722 L 9.040 20.000 10.574 20.000 C 12.009 20.000,12.112 19.995,12.174 19.927 C 12.249 19.844,12.260 19.673,12.199 19.558 C 12.175 19.513,12.065 19.455,11.929 19.416 C 11.135 19.190,10.547 18.543,10.434 17.773 C 10.359 17.260,10.413 17.304,9.824 17.270 C 9.161 17.231,8.867 17.161,8.400 16.931 C 8.076 16.772,7.964 16.688,7.638 16.362 C 7.312 16.036,7.228 15.924,7.069 15.600 C 6.730 14.911,6.740 15.020,6.740 12.000 C 6.740 8.980,6.730 9.089,7.069 8.400 C 7.337 7.853,7.853 7.337,8.400 7.069 C 9.089 6.730,8.980 6.740,12.000 6.740 C 15.020 6.740,14.911 6.730,15.600 7.069 C 15.924 7.228,16.036 7.312,16.362 7.638 C 16.688 7.964,16.772 8.076,16.931 8.400 C 17.188 8.924,17.239 9.169,17.268 10.034 C 17.291 10.735,17.297 10.774,17.389 10.883 C 17.525 11.045,17.734 11.101,17.996 11.045 C 18.424 10.953,18.874 11.014,19.279 11.220 C 19.509 11.336,19.599 11.343,19.761 11.259 C 19.984 11.144,20.000 11.060,20.000 10.002 L 20.000 9.040 20.707 9.040 C 21.346 9.040,21.432 9.032,21.590 8.955 C 21.850 8.829,21.980 8.611,21.980 8.300 C 21.980 8.094,21.961 8.026,21.866 7.888 C 21.660 7.591,21.540 7.560,20.591 7.560 L 19.766 7.560 19.698 7.350 C 19.495 6.726,19.035 5.996,18.520 5.480 C 18.005 4.966,17.274 4.505,16.652 4.303 L 16.444 4.235 16.432 3.364 C 16.420 2.523,16.417 2.489,16.325 2.355 C 16.166 2.123,15.977 2.023,15.700 2.023 C 15.423 2.023,15.234 2.123,15.075 2.355 C 14.984 2.487,14.979 2.529,14.968 3.247 L 14.955 4.000 13.858 4.000 L 12.760 4.000 12.760 3.370 C 12.760 2.685,12.726 2.491,12.571 2.286 C 12.207 1.804,11.449 1.978,11.284 2.580 C 11.260 2.668,11.240 3.024,11.240 3.370 L 11.240 4.000 10.140 4.000 L 9.040 4.000 9.040 3.278 C 9.040 2.633,9.031 2.540,8.959 2.398 C 8.791 2.068,8.351 1.916,8.020 2.073 M9.466 7.823 C 8.682 8.013,8.008 8.694,7.821 9.484 C 7.732 9.863,7.732 14.137,7.821 14.516 C 8.049 15.479,8.980 16.237,9.940 16.239 C 10.249 16.240,10.367 16.145,10.578 15.724 C 10.795 15.292,11.065 15.002,11.466 14.768 C 11.972 14.473,12.120 14.213,12.141 13.585 C 12.158 13.089,12.259 12.740,12.484 12.404 C 12.573 12.270,12.722 12.098,12.813 12.023 C 13.024 11.851,13.938 11.306,14.279 11.150 C 14.593 11.006,15.020 10.964,15.417 11.039 C 15.650 11.083,15.705 11.081,15.860 11.022 C 15.958 10.985,16.083 10.900,16.139 10.834 C 16.235 10.720,16.240 10.690,16.239 10.227 C 16.239 9.644,16.173 9.334,15.969 8.944 C 15.686 8.403,15.116 7.963,14.516 7.821 C 14.151 7.735,9.822 7.737,9.466 7.823 M14.740 12.047 C 14.544 12.122,13.549 12.716,13.432 12.828 C 13.264 12.989,13.160 13.247,13.160 13.505 C 13.160 13.678,13.194 13.804,13.307 14.055 C 13.536 14.563,13.538 14.926,13.312 15.183 C 13.128 15.393,12.922 15.481,12.515 15.523 C 12.102 15.565,11.951 15.620,11.745 15.801 C 11.448 16.062,11.420 16.164,11.420 17.000 C 11.420 17.684,11.427 17.752,11.507 17.903 C 11.698 18.260,12.087 18.480,12.526 18.480 C 12.804 18.480,13.128 18.614,13.295 18.799 C 13.539 19.069,13.542 19.423,13.307 19.945 C 13.148 20.296,13.122 20.523,13.206 20.806 C 13.288 21.078,13.481 21.250,14.130 21.625 C 14.726 21.971,14.746 21.979,15.000 21.980 C 15.355 21.980,15.570 21.853,15.793 21.511 C 16.380 20.610,17.020 20.610,17.607 21.511 C 17.830 21.853,18.045 21.980,18.400 21.980 C 18.653 21.980,18.676 21.971,19.240 21.646 C 19.559 21.462,19.879 21.256,19.950 21.188 C 20.281 20.873,20.329 20.467,20.097 19.953 C 19.921 19.564,19.883 19.270,19.975 19.027 C 20.105 18.687,20.375 18.528,20.906 18.478 C 21.419 18.430,21.698 18.267,21.894 17.901 C 21.973 17.753,21.980 17.681,21.980 17.000 C 21.980 16.175,21.956 16.083,21.674 15.812 C 21.489 15.635,21.300 15.566,20.885 15.523 C 20.488 15.482,20.266 15.390,20.108 15.203 C 19.871 14.920,19.867 14.556,20.097 14.047 C 20.274 13.656,20.286 13.400,20.145 13.100 C 20.017 12.830,19.913 12.744,19.257 12.365 C 18.654 12.017,18.463 11.958,18.179 12.035 C 17.955 12.095,17.774 12.239,17.610 12.488 C 17.014 13.390,16.380 13.390,15.793 12.489 C 15.594 12.184,15.377 12.042,15.072 12.018 C 14.955 12.009,14.806 12.022,14.740 12.047 M17.142 15.342 C 18.157 15.605,18.700 16.750,18.262 17.707 C 17.646 19.052,15.754 19.052,15.138 17.707 C 14.705 16.762,15.242 15.613,16.241 15.344 C 16.529 15.267,16.848 15.266,17.142 15.342 " fill="#292D32" stroke="none" fill-rule="evenodd"></path></svg>