<svg width="24" height="24" viewBox="0 0 24 24" fill="none" xmlns="http://www.w3.org/2000/svg"><path d="M11.120 2.039 C 8.336 2.318,5.905 3.624,4.193 5.760 C 1.474 9.155,1.267 13.917,3.682 17.533 C 6.770 22.155,12.946 23.386,17.560 20.299 C 22.155 17.225,23.377 11.041,20.299 6.440 C 18.728 4.092,16.319 2.562,13.493 2.119 C 12.909 2.027,11.660 1.985,11.120 2.039 M9.712 8.464 C 10.170 8.558,10.583 8.732,10.996 9.004 C 11.397 9.268,11.579 9.476,11.619 9.717 C 11.675 10.043,11.489 10.385,11.182 10.525 C 10.884 10.660,10.652 10.611,10.297 10.339 C 8.896 9.262,6.880 10.243,6.880 12.000 C 6.880 13.361,8.150 14.371,9.471 14.060 C 9.767 13.990,10.008 13.872,10.354 13.626 C 10.494 13.527,10.676 13.434,10.759 13.420 C 11.243 13.338,11.707 13.799,11.621 14.276 C 11.582 14.492,11.435 14.687,11.153 14.899 C 10.299 15.541,9.134 15.772,8.102 15.504 C 6.628 15.121,5.567 13.897,5.399 12.387 C 5.196 10.566,6.433 8.848,8.220 8.466 C 8.598 8.386,9.327 8.384,9.712 8.464 M16.712 8.464 C 17.170 8.558,17.583 8.732,17.996 9.004 C 18.397 9.268,18.579 9.476,18.619 9.717 C 18.675 10.043,18.489 10.385,18.182 10.525 C 17.884 10.660,17.652 10.611,17.297 10.339 C 16.085 9.410,14.321 10.003,13.943 11.466 C 13.548 12.999,14.934 14.422,16.471 14.060 C 16.767 13.990,17.008 13.872,17.354 13.626 C 17.494 13.527,17.676 13.434,17.759 13.420 C 18.243 13.338,18.707 13.799,18.621 14.276 C 18.582 14.492,18.435 14.687,18.153 14.899 C 17.299 15.541,16.134 15.772,15.102 15.504 C 13.628 15.121,12.567 13.897,12.399 12.387 C 12.196 10.566,13.433 8.848,15.220 8.466 C 15.598 8.386,16.327 8.384,16.712 8.464 " fill="#292D32" stroke="none" fill-rule="evenodd"></path></svg>