<svg width="24" height="24" viewBox="0 0 24 24" fill="none" xmlns="http://www.w3.org/2000/svg"><path d="M5.215 2.077 C 5.012 2.169,4.858 2.365,4.803 2.601 C 4.781 2.699,4.762 3.235,4.761 3.790 L 4.760 4.800 3.658 4.800 C 2.641 4.800,2.545 4.806,2.402 4.879 C 1.895 5.137,1.869 5.832,2.353 6.164 L 2.494 6.260 4.137 6.260 L 5.780 6.260 5.910 6.167 C 5.982 6.116,6.090 6.010,6.150 5.930 L 6.260 5.786 6.260 4.137 L 6.260 2.487 6.138 2.334 C 5.990 2.148,5.715 2.000,5.522 2.001 C 5.444 2.001,5.306 2.035,5.215 2.077 M7.280 5.293 C 7.280 5.941,7.159 6.309,6.828 6.668 C 6.438 7.092,6.075 7.239,5.348 7.270 L 4.837 7.292 4.851 10.996 C 4.866 15.041,4.853 14.811,5.103 15.580 C 5.505 16.814,6.443 17.926,7.596 18.533 C 8.045 18.770,8.394 18.902,8.920 19.032 L 9.340 19.136 13.025 19.150 L 16.711 19.164 16.728 18.612 C 16.742 18.145,16.759 18.026,16.839 17.840 C 17.040 17.372,17.374 17.038,17.840 16.839 C 18.026 16.759,18.146 16.742,18.612 16.728 L 19.164 16.711 19.149 13.025 C 19.136 9.668,19.128 9.313,19.064 9.041 C 18.804 7.945,18.384 7.152,17.673 6.417 C 17.079 5.803,16.395 5.370,15.600 5.104 C 14.811 4.840,14.815 4.840,10.850 4.840 L 7.280 4.840 7.280 5.293 M18.180 17.796 C 17.986 17.885,17.864 18.012,17.782 18.209 C 17.730 18.334,17.720 18.594,17.721 19.869 C 17.722 21.248,17.728 21.394,17.795 21.542 C 17.990 21.971,18.495 22.118,18.889 21.858 C 19.170 21.673,19.178 21.636,19.200 20.360 L 19.220 19.220 20.360 19.200 C 21.641 19.178,21.672 19.171,21.864 18.882 C 22.120 18.495,21.970 17.990,21.542 17.795 C 21.394 17.728,21.249 17.722,19.860 17.722 C 18.467 17.722,18.327 17.728,18.180 17.796 " fill="#292D32" stroke="none" fill-rule="evenodd"></path></svg>