<svg width="24" height="24" viewBox="0 0 24 24" fill="none" xmlns="http://www.w3.org/2000/svg"><path d="M11.600 3.803 C 11.464 3.864,10.945 4.357,9.480 5.817 C 7.734 7.556,7.520 7.756,7.343 7.815 C 7.093 7.897,6.906 7.897,6.657 7.814 C 6.482 7.756,6.289 7.579,4.920 6.221 C 3.242 4.556,3.147 4.480,2.742 4.480 C 2.371 4.480,2.163 4.695,2.059 5.187 C 2.011 5.417,2.001 6.259,2.001 10.501 C 2.000 13.748,2.015 15.663,2.042 15.881 C 2.131 16.608,2.471 17.546,2.743 17.814 C 2.914 17.982,3.145 18.086,3.399 18.109 C 3.859 18.151,3.485 18.496,9.425 12.549 C 15.305 6.662,14.921 7.076,14.919 6.615 C 14.917 6.249,14.833 6.137,13.688 4.986 C 12.512 3.804,12.401 3.720,12.000 3.721 C 11.866 3.722,11.710 3.753,11.600 3.803 M20.838 4.586 C 20.664 4.671,20.314 4.996,19.100 6.203 C 18.061 7.234,17.529 7.735,17.420 7.783 C 17.292 7.840,17.165 7.853,16.786 7.847 C 16.345 7.840,16.299 7.847,16.122 7.943 C 15.990 8.015,14.312 9.668,10.550 13.433 L 5.166 18.820 5.100 19.052 C 5.004 19.386,5.066 19.625,5.315 19.881 C 5.482 20.052,5.536 20.080,5.860 20.164 L 6.220 20.258 11.820 20.271 C 18.058 20.285,17.805 20.295,18.614 20.013 C 19.405 19.738,19.906 19.421,20.525 18.804 C 21.248 18.084,21.648 17.358,21.907 16.300 C 21.969 16.044,21.977 15.560,21.989 10.745 C 21.998 7.233,21.988 5.395,21.961 5.245 C 21.836 4.561,21.406 4.309,20.838 4.586 " fill="#292D32" stroke="none" fill-rule="evenodd"></path></svg>