<svg width="24" height="24" viewBox="0 0 24 24" fill="none" xmlns="http://www.w3.org/2000/svg"><path d="M11.577 2.335 C 11.466 2.387,11.319 2.496,11.252 2.578 C 11.163 2.686,10.897 3.344,10.260 5.033 C 9.134 8.019,9.127 8.037,9.014 8.189 C 8.789 8.489,8.311 8.632,7.946 8.508 C 7.834 8.470,6.982 7.887,5.735 6.996 C 4.619 6.199,3.631 5.504,3.539 5.453 C 3.066 5.189,2.447 5.382,2.191 5.875 C 1.976 6.288,1.852 5.882,4.204 12.470 C 5.578 16.318,6.365 18.469,6.432 18.560 C 6.566 18.739,6.624 18.787,6.820 18.881 C 6.975 18.956,7.129 18.958,11.964 18.959 C 15.586 18.960,16.985 18.948,17.084 18.914 C 17.272 18.851,17.465 18.701,17.580 18.527 C 17.633 18.446,18.627 15.725,19.788 12.480 C 21.819 6.804,21.899 6.569,21.900 6.297 C 21.900 6.051,21.884 5.988,21.779 5.817 C 21.636 5.586,21.329 5.382,21.064 5.343 C 20.692 5.287,20.645 5.315,18.410 6.910 C 17.257 7.734,16.231 8.444,16.130 8.489 C 15.757 8.653,15.230 8.512,14.976 8.179 C 14.912 8.094,14.496 7.039,13.915 5.490 C 13.390 4.087,12.930 2.871,12.892 2.787 C 12.807 2.592,12.531 2.348,12.328 2.287 C 12.078 2.212,11.803 2.230,11.577 2.335 M14.780 13.316 C 15.075 13.453,15.240 13.697,15.240 14.000 C 15.240 14.303,15.075 14.547,14.780 14.684 C 14.629 14.754,14.466 14.758,12.000 14.758 C 9.534 14.758,9.371 14.754,9.220 14.684 C 8.925 14.547,8.760 14.303,8.760 14.000 C 8.760 13.697,8.925 13.453,9.220 13.316 C 9.371 13.246,9.534 13.242,12.000 13.242 C 14.466 13.242,14.629 13.246,14.780 13.316 M6.633 20.610 C 6.438 20.729,6.333 20.870,6.274 21.091 C 6.186 21.420,6.366 21.774,6.698 21.925 C 6.852 21.995,7.099 21.998,12.000 21.998 C 16.901 21.998,17.148 21.995,17.302 21.925 C 17.567 21.804,17.759 21.508,17.760 21.218 C 17.760 21.044,17.558 20.722,17.383 20.619 L 17.213 20.520 11.996 20.520 L 6.780 20.520 6.633 20.610 " fill="#292D32" stroke="none" fill-rule="evenodd"></path></svg>