<svg width="24" height="24" viewBox="0 0 24 24" fill="none" xmlns="http://www.w3.org/2000/svg"><path d="M8.378 2.058 C 7.290 2.227,6.326 2.845,5.690 3.780 C 5.600 3.912,5.506 4.067,5.480 4.124 C 5.434 4.226,5.422 4.229,4.935 4.253 C 4.371 4.282,4.049 4.353,3.693 4.527 C 2.764 4.982,2.235 5.935,2.295 7.046 C 2.335 7.799,2.499 8.413,2.843 9.100 C 3.386 10.186,4.240 11.051,5.212 11.500 L 5.515 11.640 5.696 12.023 C 6.457 13.629,7.824 14.887,9.520 15.542 C 9.870 15.677,10.521 15.853,10.840 15.899 C 10.939 15.913,11.070 15.934,11.130 15.945 L 11.240 15.966 11.240 17.103 L 11.240 18.240 10.130 18.241 C 9.520 18.242,8.887 18.260,8.725 18.281 C 7.756 18.407,7.000 19.277,7.000 20.268 L 7.000 20.520 6.394 20.520 C 5.820 20.520,5.778 20.525,5.617 20.619 C 5.430 20.729,5.240 21.047,5.240 21.249 C 5.240 21.518,5.433 21.801,5.700 21.924 C 5.853 21.995,6.115 21.998,12.000 21.998 C 17.885 21.998,18.147 21.995,18.300 21.924 C 18.567 21.801,18.760 21.518,18.760 21.249 C 18.760 21.047,18.570 20.729,18.383 20.619 C 18.222 20.525,18.180 20.520,17.606 20.520 L 17.000 20.520 17.000 20.268 C 17.000 19.277,16.244 18.407,15.275 18.281 C 15.113 18.260,14.480 18.242,13.870 18.241 L 12.760 18.240 12.760 17.102 L 12.760 15.964 12.910 15.940 C 13.374 15.867,14.068 15.695,14.400 15.571 C 16.113 14.934,17.487 13.690,18.285 12.058 L 18.487 11.645 18.862 11.462 C 20.209 10.807,21.276 9.383,21.623 7.780 C 21.670 7.565,21.693 7.277,21.693 6.900 C 21.694 6.399,21.683 6.306,21.588 6.017 C 21.423 5.520,21.101 5.060,20.723 4.782 C 20.245 4.431,19.803 4.291,19.061 4.253 C 18.786 4.239,18.560 4.214,18.560 4.198 C 18.560 4.182,18.454 4.007,18.325 3.810 C 17.699 2.858,16.722 2.230,15.600 2.058 C 15.087 1.980,8.882 1.980,8.378 2.058 M12.222 5.635 C 12.420 5.725,12.495 5.814,12.894 6.423 C 13.072 6.695,13.263 6.938,13.334 6.984 C 13.403 7.029,13.725 7.134,14.049 7.219 C 14.373 7.303,14.693 7.405,14.760 7.446 C 15.011 7.598,15.107 7.924,14.986 8.211 C 14.956 8.282,14.756 8.556,14.541 8.820 C 14.326 9.084,14.134 9.344,14.113 9.398 C 14.093 9.452,14.081 9.842,14.088 10.265 C 14.099 10.988,14.095 11.039,14.018 11.144 C 13.754 11.499,13.520 11.510,12.760 11.200 C 12.332 11.025,12.175 10.980,12.000 10.980 C 11.825 10.980,11.668 11.025,11.240 11.200 C 10.480 11.510,10.246 11.499,9.982 11.144 C 9.905 11.039,9.901 10.988,9.912 10.258 C 9.926 9.349,9.946 9.412,9.459 8.820 C 9.278 8.600,9.092 8.357,9.045 8.280 C 8.880 8.008,8.963 7.625,9.225 7.453 C 9.285 7.414,9.613 7.308,9.954 7.217 C 10.707 7.017,10.749 6.986,11.151 6.352 C 11.470 5.849,11.589 5.715,11.800 5.624 C 11.981 5.545,12.027 5.547,12.222 5.635 " fill="#292D32" stroke="none" fill-rule="evenodd"></path></svg>