<svg width="24" height="24" viewBox="0 0 24 24" fill="none" xmlns="http://www.w3.org/2000/svg"><path d="M11.436 2.060 C 11.101 2.127,10.698 2.288,10.341 2.497 C 9.943 2.730,9.281 3.399,8.952 3.900 C 8.653 4.356,2.316 15.750,2.056 16.300 C 1.693 17.066,1.537 17.756,1.573 18.440 C 1.657 20.069,2.755 21.206,4.579 21.552 C 4.911 21.615,5.507 21.620,12.000 21.620 C 18.493 21.620,19.089 21.615,19.421 21.552 C 21.069 21.239,22.112 20.301,22.384 18.886 C 22.534 18.102,22.361 17.120,21.916 16.232 C 21.573 15.546,15.299 4.283,15.048 3.900 C 14.720 3.401,14.097 2.768,13.680 2.510 C 12.973 2.072,12.176 1.913,11.436 2.060 M12.360 8.356 C 12.437 8.395,12.554 8.504,12.620 8.597 L 12.740 8.767 12.740 11.496 L 12.740 14.226 12.633 14.388 C 12.475 14.627,12.270 14.739,11.993 14.739 C 11.804 14.739,11.736 14.718,11.596 14.619 C 11.503 14.554,11.390 14.428,11.344 14.340 C 11.262 14.183,11.260 14.126,11.247 11.620 C 11.238 9.783,11.248 9.000,11.281 8.846 C 11.388 8.354,11.898 8.122,12.360 8.356 M12.473 16.129 C 12.857 16.326,13.062 16.782,12.963 17.221 C 12.793 17.982,11.850 18.252,11.296 17.698 C 11.124 17.526,11.000 17.234,11.000 17.000 C 11.000 16.618,11.291 16.196,11.643 16.066 C 11.882 15.979,12.233 16.005,12.473 16.129 " fill="#292D32" stroke="none" fill-rule="evenodd"></path></svg>