<svg width="24" height="24" viewBox="0 0 24 24" fill="none" xmlns="http://www.w3.org/2000/svg"><path d="M19.480 1.818 C 19.072 1.923,18.744 2.100,18.446 2.376 C 18.286 2.524,18.031 2.888,17.947 3.089 L 17.887 3.233 15.613 3.252 C 13.119 3.272,13.014 3.281,12.342 3.524 C 11.483 3.835,10.835 4.483,10.524 5.342 C 10.277 6.023,10.271 6.101,10.252 8.790 L 10.234 11.240 8.175 11.240 L 6.116 11.240 6.054 11.092 C 5.829 10.552,5.316 10.085,4.720 9.875 C 4.347 9.743,3.653 9.743,3.280 9.874 C 2.615 10.108,2.109 10.614,1.875 11.280 C 1.800 11.493,1.783 11.623,1.783 12.000 C 1.783 12.377,1.800 12.507,1.875 12.720 C 2.109 13.386,2.615 13.892,3.280 14.126 C 3.653 14.257,4.347 14.257,4.720 14.125 C 5.316 13.915,5.829 13.448,6.054 12.908 L 6.116 12.760 8.175 12.760 L 10.234 12.760 10.252 15.210 C 10.271 17.899,10.277 17.977,10.524 18.658 C 10.835 19.517,11.483 20.165,12.342 20.476 C 13.014 20.719,13.119 20.728,15.613 20.748 L 17.887 20.767 17.947 20.911 C 18.171 21.448,18.685 21.916,19.280 22.125 C 19.493 22.200,19.623 22.217,20.000 22.217 C 20.377 22.217,20.507 22.200,20.720 22.125 C 21.386 21.891,21.892 21.385,22.126 20.720 C 22.200 20.507,22.217 20.376,22.217 20.000 C 22.217 19.624,22.200 19.493,22.126 19.280 C 21.892 18.615,21.386 18.109,20.720 17.875 C 20.507 17.800,20.377 17.783,20.000 17.783 C 19.623 17.783,19.493 17.800,19.280 17.875 C 18.684 18.085,18.171 18.552,17.946 19.092 L 17.884 19.240 15.692 19.239 C 13.285 19.239,13.160 19.229,12.696 19.001 C 12.401 18.856,12.112 18.559,11.976 18.262 C 11.770 17.813,11.761 17.685,11.761 15.130 L 11.760 12.760 14.814 12.760 L 17.868 12.760 18.004 13.030 C 18.184 13.388,18.610 13.816,18.960 13.989 C 19.869 14.441,20.876 14.284,21.580 13.580 C 22.745 12.415,22.325 10.501,20.771 9.891 C 20.529 9.796,20.447 9.784,20.000 9.784 C 19.553 9.784,19.471 9.796,19.229 9.891 C 18.678 10.107,18.250 10.487,17.999 10.983 L 17.868 11.240 14.814 11.240 L 11.760 11.240 11.761 8.870 C 11.761 6.269,11.769 6.164,11.999 5.696 C 12.144 5.401,12.441 5.112,12.738 4.976 C 13.183 4.772,13.329 4.761,15.692 4.761 L 17.884 4.760 17.946 4.908 C 18.171 5.448,18.684 5.915,19.280 6.125 C 19.653 6.257,20.347 6.257,20.720 6.126 C 21.385 5.892,21.891 5.386,22.125 4.720 C 22.200 4.507,22.217 4.377,22.217 4.000 C 22.217 3.623,22.200 3.493,22.125 3.280 C 21.890 2.612,21.377 2.101,20.720 1.878 C 20.390 1.766,19.795 1.737,19.480 1.818 " fill="#292D32" stroke="none" fill-rule="evenodd"></path></svg>