<svg width="24" height="24" viewBox="0 0 24 24" fill="none" xmlns="http://www.w3.org/2000/svg"><path d="M3.680 2.026 C 3.469 2.062,3.091 2.216,2.891 2.349 C 2.471 2.626,2.146 3.103,2.044 3.592 C 1.985 3.875,1.985 6.125,2.044 6.408 C 2.201 7.158,2.842 7.799,3.592 7.956 C 3.881 8.016,7.119 8.016,7.408 7.956 C 8.320 7.766,9.000 6.921,9.000 5.978 L 9.000 5.760 10.380 5.760 L 11.760 5.760 11.760 12.013 C 11.760 16.329,11.773 18.339,11.803 18.503 C 11.986 19.504,12.742 20.335,13.739 20.633 C 14.027 20.719,14.159 20.731,15.025 20.750 L 15.991 20.770 16.015 20.949 C 16.070 21.350,16.347 21.724,16.714 21.894 C 16.897 21.979,16.936 21.980,19.000 21.980 C 21.064 21.980,21.103 21.979,21.286 21.894 C 21.524 21.784,21.784 21.524,21.894 21.286 C 21.975 21.110,21.980 21.041,21.980 20.000 C 21.980 18.959,21.975 18.890,21.894 18.714 C 21.784 18.476,21.524 18.216,21.286 18.106 C 21.103 18.021,21.064 18.020,19.000 18.020 C 16.936 18.020,16.897 18.021,16.714 18.106 C 16.345 18.276,16.070 18.650,16.014 19.056 L 15.989 19.240 15.122 19.240 C 14.433 19.240,14.216 19.227,14.067 19.176 C 13.812 19.089,13.509 18.806,13.372 18.528 L 13.260 18.300 13.249 15.770 L 13.237 13.240 14.613 13.240 L 15.990 13.240 16.017 13.445 C 16.073 13.871,16.402 14.285,16.789 14.417 C 17.066 14.511,20.934 14.511,21.211 14.417 C 21.453 14.334,21.737 14.080,21.872 13.825 L 21.980 13.620 21.980 12.500 L 21.980 11.380 21.872 11.175 C 21.737 10.920,21.453 10.666,21.211 10.583 C 20.934 10.489,17.066 10.489,16.789 10.583 C 16.402 10.715,16.073 11.129,16.017 11.555 L 15.990 11.760 14.615 11.760 L 13.240 11.760 13.240 8.760 L 13.240 5.760 14.615 5.760 L 15.989 5.760 16.014 5.944 C 16.070 6.350,16.345 6.724,16.714 6.894 C 16.897 6.979,16.936 6.980,19.000 6.980 C 21.064 6.980,21.103 6.979,21.286 6.894 C 21.524 6.784,21.784 6.524,21.894 6.286 C 21.975 6.110,21.980 6.041,21.980 5.000 C 21.980 3.959,21.975 3.890,21.894 3.714 C 21.784 3.476,21.524 3.216,21.286 3.106 C 21.103 3.021,21.064 3.020,19.000 3.020 C 16.936 3.020,16.897 3.021,16.714 3.106 C 16.345 3.276,16.070 3.650,16.014 4.056 L 15.989 4.240 12.495 4.240 L 9.000 4.240 9.000 4.022 C 9.000 3.170,8.491 2.446,7.660 2.116 C 7.420 2.021,7.417 2.021,5.600 2.015 C 4.599 2.011,3.735 2.016,3.680 2.026 " fill="#292D32" stroke="none" fill-rule="evenodd"></path></svg>