<svg width="24" height="24" viewBox="0 0 24 24" fill="none" xmlns="http://www.w3.org/2000/svg"><path d="M7.680 1.839 C 7.296 1.942,6.816 2.181,6.460 2.446 C 6.055 2.749,2.807 5.988,2.496 6.400 C 1.982 7.082,1.783 7.605,1.783 8.280 C 1.782 9.223,2.154 9.903,3.288 11.030 L 3.861 11.600 7.732 7.728 L 11.604 3.856 10.890 3.158 C 10.087 2.374,9.720 2.113,9.132 1.910 C 8.663 1.749,8.118 1.722,7.680 1.839 M20.152 2.043 C 19.971 2.086,19.138 2.451,18.540 2.750 C 16.864 3.588,14.725 4.964,12.965 6.334 C 11.913 7.153,10.522 8.363,9.868 9.029 L 9.596 9.306 9.888 9.357 C 10.284 9.425,11.039 9.679,11.427 9.873 C 12.282 10.303,13.210 11.115,13.715 11.876 C 14.142 12.519,14.487 13.334,14.606 13.981 C 14.632 14.124,14.667 14.240,14.683 14.240 C 14.720 14.240,15.707 13.190,16.224 12.600 C 17.847 10.747,19.536 8.352,20.673 6.294 C 21.309 5.143,21.868 3.890,21.905 3.530 C 21.958 3.022,21.672 2.484,21.191 2.187 C 20.939 2.031,20.475 1.967,20.152 2.043 M8.526 10.496 C 8.060 11.059,6.881 12.560,6.904 12.560 C 6.917 12.560,7.105 12.596,7.323 12.641 C 8.329 12.846,9.204 13.320,9.934 14.058 C 10.660 14.791,11.088 15.562,11.306 16.530 C 11.361 16.778,11.410 16.983,11.414 16.987 C 11.417 16.990,11.947 16.571,12.590 16.055 C 13.335 15.457,13.760 15.091,13.760 15.045 C 13.760 14.888,13.591 14.041,13.500 13.740 C 12.953 11.936,11.325 10.572,9.400 10.303 C 9.147 10.268,8.900 10.233,8.851 10.225 C 8.781 10.214,8.709 10.274,8.526 10.496 M16.240 16.260 L 12.381 20.120 12.960 20.703 C 13.638 21.384,14.055 21.714,14.504 21.926 C 15.628 22.455,16.702 22.249,17.808 21.293 C 18.326 20.845,21.320 17.813,21.552 17.500 C 21.807 17.156,22.054 16.666,22.147 16.320 C 22.239 15.975,22.238 15.383,22.144 15.040 C 22.056 14.716,21.822 14.242,21.598 13.934 C 21.442 13.720,20.172 12.400,20.122 12.400 C 20.110 12.400,18.363 14.137,16.240 16.260 M5.540 13.639 C 3.922 13.990,2.716 15.131,2.363 16.645 C 2.268 17.054,2.000 19.456,2.000 19.903 C 2.000 20.460,2.211 20.970,2.606 21.365 C 2.982 21.743,3.416 21.944,3.940 21.984 C 4.286 22.011,6.916 21.719,7.368 21.603 C 9.006 21.184,10.224 19.755,10.396 18.051 C 10.518 16.842,10.142 15.730,9.316 14.861 C 8.929 14.454,8.583 14.197,8.100 13.959 C 7.524 13.674,7.183 13.594,6.480 13.576 C 6.013 13.564,5.830 13.576,5.540 13.639 " fill="#292D32" stroke="none" fill-rule="evenodd"></path></svg>