<svg width="24" height="24" viewBox="0 0 24 24" fill="none" xmlns="http://www.w3.org/2000/svg"><path d="M11.700 2.027 C 11.404 2.068,10.930 2.214,10.669 2.345 C 9.773 2.797,9.244 3.523,9.057 4.560 C 8.973 5.024,8.977 9.376,9.061 9.861 C 9.314 11.307,10.404 12.270,11.922 12.387 L 12.240 12.412 12.240 13.157 C 12.240 13.852,12.246 13.915,12.330 14.080 C 12.449 14.313,12.701 14.453,12.960 14.430 C 13.117 14.416,13.334 14.284,14.650 13.407 L 16.159 12.400 17.650 12.399 C 18.723 12.398,19.224 12.382,19.440 12.343 C 20.696 12.116,21.555 11.334,21.889 10.113 C 21.979 9.782,21.980 9.761,21.980 7.180 L 21.980 4.580 21.870 4.228 C 21.522 3.118,20.881 2.478,19.772 2.131 L 19.420 2.021 15.620 2.016 C 13.530 2.013,11.766 2.018,11.700 2.027 M5.860 4.026 C 3.609 4.261,2.344 5.447,2.059 7.589 C 1.975 8.218,1.975 14.182,2.059 14.811 C 2.288 16.536,3.147 17.634,4.659 18.137 C 5.341 18.364,5.431 18.370,7.930 18.389 L 10.240 18.405 10.240 19.821 L 10.240 21.236 8.730 21.248 C 7.289 21.259,7.213 21.264,7.060 21.344 C 6.972 21.390,6.846 21.503,6.781 21.596 C 6.682 21.736,6.661 21.804,6.661 21.993 C 6.661 22.270,6.773 22.475,7.012 22.633 L 7.174 22.740 11.000 22.740 L 14.826 22.740 14.988 22.633 C 15.227 22.475,15.339 22.270,15.339 21.993 C 15.339 21.804,15.318 21.736,15.219 21.596 C 15.154 21.503,15.028 21.390,14.940 21.344 C 14.787 21.264,14.711 21.259,13.270 21.248 L 11.760 21.236 11.760 19.818 L 11.760 18.400 13.851 18.400 C 15.911 18.400,16.342 18.380,16.894 18.258 C 17.912 18.033,18.736 17.513,19.243 16.775 C 19.669 16.156,20.022 15.003,19.916 14.579 C 19.860 14.359,19.650 14.111,19.427 14.004 C 19.263 13.924,19.191 13.920,17.966 13.920 C 16.962 13.920,16.648 13.932,16.546 13.975 C 16.473 14.005,15.874 14.390,15.214 14.831 C 13.885 15.717,13.801 15.767,13.452 15.857 C 12.730 16.044,11.960 15.839,11.437 15.321 C 11.174 15.061,11.107 14.948,10.766 14.190 C 10.615 13.855,10.339 13.571,9.996 13.398 C 8.735 12.761,7.979 11.760,7.597 10.220 C 7.562 10.077,7.541 9.279,7.524 7.400 C 7.497 4.494,7.510 4.620,7.228 4.326 C 7.003 4.091,6.827 4.026,6.400 4.017 C 6.191 4.013,5.948 4.017,5.860 4.026 " fill="#292D32" stroke="none" fill-rule="evenodd"></path></svg>