<svg width="24" height="24" viewBox="0 0 24 24" fill="none" xmlns="http://www.w3.org/2000/svg"><path d="M11.536 2.776 C 10.777 3.129,10.630 4.104,11.250 4.661 C 11.978 5.316,13.136 4.789,13.129 3.806 C 13.129 3.658,13.101 3.474,13.069 3.398 C 12.808 2.790,12.113 2.507,11.536 2.776 M4.811 5.544 C 4.564 5.635,4.267 5.919,4.161 6.167 C 4.086 6.341,4.074 6.428,4.088 6.683 C 4.115 7.140,4.307 7.426,4.735 7.650 C 4.978 7.776,5.432 7.774,5.693 7.645 C 6.516 7.240,6.558 6.071,5.766 5.627 C 5.502 5.480,5.084 5.443,4.811 5.544 M18.288 5.602 C 17.771 5.861,17.538 6.389,17.698 6.940 C 17.794 7.270,18.130 7.606,18.460 7.702 C 18.980 7.853,19.513 7.638,19.791 7.166 C 19.888 7.001,19.900 6.940,19.900 6.620 C 19.900 6.300,19.888 6.240,19.790 6.073 C 19.468 5.526,18.837 5.328,18.288 5.602 M11.221 8.202 C 9.329 8.498,7.699 9.827,7.066 11.590 C 6.605 12.873,6.627 14.160,7.131 15.408 C 7.606 16.581,8.574 17.603,9.740 18.159 C 12.309 19.384,15.371 18.345,16.675 15.805 C 17.609 13.988,17.416 11.832,16.176 10.213 C 15.430 9.239,14.323 8.537,13.093 8.258 C 12.765 8.184,11.567 8.148,11.221 8.202 M2.035 12.333 C 1.537 12.519,1.265 12.916,1.272 13.447 C 1.286 14.388,2.420 14.880,3.151 14.262 C 3.369 14.078,3.488 13.831,3.511 13.518 C 3.547 13.018,3.355 12.639,2.960 12.424 C 2.705 12.285,2.275 12.243,2.035 12.333 M21.083 12.405 C 20.678 12.607,20.467 12.969,20.473 13.449 C 20.480 14.059,20.972 14.533,21.600 14.534 C 22.251 14.535,22.733 14.050,22.729 13.398 C 22.727 12.947,22.515 12.604,22.117 12.405 C 21.765 12.229,21.435 12.229,21.083 12.405 M12.365 12.744 C 12.706 12.916,12.847 13.403,12.660 13.759 C 12.630 13.814,12.195 14.268,11.693 14.767 C 10.900 15.554,10.757 15.679,10.604 15.720 C 10.271 15.808,9.952 15.677,9.780 15.383 C 9.655 15.170,9.645 14.864,9.757 14.648 C 9.799 14.567,10.235 14.101,10.727 13.614 C 11.540 12.808,11.636 12.725,11.800 12.691 C 12.005 12.648,12.212 12.667,12.365 12.744 M4.962 19.082 C 4.596 19.157,4.215 19.497,4.122 19.831 C 3.899 20.632,4.492 21.375,5.301 21.310 C 5.905 21.261,6.330 20.804,6.331 20.199 C 6.333 19.473,5.675 18.936,4.962 19.082 M18.549 19.082 C 17.981 19.221,17.591 19.755,17.656 20.307 C 17.702 20.699,17.940 21.043,18.291 21.226 C 18.365 21.265,18.550 21.301,18.726 21.312 C 18.989 21.327,19.061 21.316,19.246 21.232 C 19.518 21.107,19.707 20.918,19.831 20.647 C 19.913 20.469,19.926 20.388,19.913 20.147 C 19.894 19.814,19.807 19.607,19.598 19.398 C 19.330 19.130,18.893 18.999,18.549 19.082 " fill="#292D32" stroke="none" fill-rule="evenodd"></path></svg>