<svg width="24" height="24" viewBox="0 0 24 24" fill="none" xmlns="http://www.w3.org/2000/svg"><path d="M4.948 2.043 C 3.386 2.175,2.621 2.654,2.264 3.724 C 2.019 4.456,2.020 4.433,2.020 8.840 C 2.020 12.550,2.026 12.892,2.093 13.272 C 2.305 14.471,2.739 15.077,3.614 15.393 C 4.306 15.644,5.105 15.719,7.070 15.720 L 8.240 15.720 8.240 17.478 L 8.240 19.236 6.490 19.248 C 4.593 19.261,4.626 19.257,4.412 19.487 C 4.056 19.868,4.180 20.463,4.660 20.684 C 4.811 20.754,4.985 20.758,7.670 20.759 L 10.520 20.760 10.520 20.000 L 10.520 19.240 10.140 19.240 L 9.760 19.240 9.760 17.480 L 9.760 15.720 10.140 15.720 L 10.520 15.720 10.520 12.958 C 10.520 9.673,10.548 9.296,10.857 8.473 C 11.045 7.969,11.217 7.703,11.600 7.320 C 11.983 6.937,12.249 6.765,12.753 6.577 C 13.573 6.270,13.969 6.240,17.270 6.240 L 20.012 6.240 19.988 5.510 C 19.939 4.037,19.698 3.272,19.115 2.740 C 18.753 2.410,18.306 2.225,17.560 2.094 C 17.219 2.034,16.579 2.026,11.260 2.018 C 8.004 2.013,5.164 2.024,4.948 2.043 M14.182 7.765 C 13.478 7.833,12.978 8.027,12.642 8.362 C 12.280 8.725,12.108 9.207,12.038 10.058 C 11.978 10.780,12.010 19.812,12.073 20.120 C 12.255 21.009,12.626 21.531,13.240 21.764 C 13.814 21.982,13.785 21.980,17.020 21.980 C 20.005 21.980,20.022 21.980,20.375 21.889 C 21.042 21.720,21.450 21.415,21.702 20.900 C 21.988 20.317,21.973 20.610,21.990 15.120 C 22.001 11.528,21.992 10.076,21.959 9.800 C 21.792 8.438,21.190 7.890,19.720 7.761 C 19.169 7.713,14.693 7.716,14.182 7.765 M17.359 10.142 C 17.836 10.255,18.203 10.553,18.416 11.000 C 18.529 11.237,18.540 11.296,18.540 11.660 C 18.540 12.016,18.527 12.087,18.425 12.308 C 18.288 12.605,17.934 12.963,17.661 13.080 C 17.225 13.267,16.726 13.253,16.299 13.043 C 15.991 12.891,15.753 12.638,15.587 12.287 C 15.474 12.049,15.460 11.981,15.460 11.660 C 15.460 11.339,15.474 11.271,15.587 11.033 C 15.752 10.684,15.992 10.429,16.295 10.280 C 16.694 10.083,16.962 10.049,17.359 10.142 M17.516 14.942 C 17.879 15.027,18.221 15.221,18.500 15.500 C 19.210 16.210,19.339 17.329,18.806 18.143 C 18.387 18.780,17.771 19.123,17.035 19.127 C 15.826 19.133,14.880 18.193,14.880 16.986 C 14.880 16.059,15.562 15.191,16.488 14.942 C 16.768 14.867,17.199 14.867,17.516 14.942 " fill="#292D32" stroke="none" fill-rule="evenodd"></path></svg>