<svg width="24" height="24" viewBox="0 0 24 24" fill="none" xmlns="http://www.w3.org/2000/svg"><path d="M1.785 1.288 C 1.587 1.342,1.338 1.590,1.283 1.787 C 1.224 2.001,1.223 19.070,1.282 19.507 C 1.341 19.940,1.552 20.538,1.785 20.929 C 2.047 21.371,2.629 21.953,3.071 22.215 C 3.474 22.455,4.068 22.662,4.520 22.719 C 4.758 22.750,7.474 22.759,13.543 22.751 L 22.226 22.740 22.388 22.633 C 22.627 22.475,22.739 22.270,22.739 21.993 C 22.739 21.804,22.718 21.736,22.619 21.596 C 22.554 21.503,22.428 21.390,22.340 21.344 L 22.180 21.260 13.340 21.240 L 4.500 21.220 4.272 21.133 C 3.606 20.878,3.174 20.454,2.896 19.780 L 2.780 19.500 2.760 10.633 L 2.740 1.767 2.620 1.597 C 2.427 1.323,2.100 1.202,1.785 1.288 M20.750 6.296 C 20.667 6.326,20.569 6.375,20.532 6.405 C 20.496 6.435,19.397 7.707,18.092 9.231 C 16.423 11.180,15.665 12.037,15.537 12.118 C 15.303 12.266,15.008 12.337,14.757 12.303 C 14.367 12.252,14.227 12.156,13.484 11.429 C 12.717 10.679,12.481 10.511,11.940 10.332 C 11.666 10.242,11.548 10.226,11.120 10.223 C 10.671 10.220,10.584 10.232,10.266 10.336 C 9.825 10.481,9.423 10.741,9.079 11.104 C 8.606 11.604,4.422 16.519,4.342 16.668 C 4.175 16.982,4.283 17.398,4.587 17.613 C 4.784 17.752,5.100 17.771,5.339 17.658 C 5.455 17.603,6.059 16.923,7.888 14.790 C 9.555 12.846,10.340 11.960,10.465 11.881 C 10.816 11.659,11.245 11.630,11.637 11.804 C 11.759 11.857,12.032 12.096,12.497 12.556 C 12.873 12.927,13.279 13.293,13.400 13.369 C 14.428 14.018,15.787 13.915,16.690 13.121 C 16.904 12.932,21.509 7.566,21.637 7.356 C 21.756 7.161,21.750 6.838,21.624 6.623 C 21.457 6.337,21.052 6.186,20.750 6.296 " fill="#292D32" stroke="none" fill-rule="evenodd"></path></svg>