<svg width="24" height="24" viewBox="0 0 24 24" fill="none" xmlns="http://www.w3.org/2000/svg"><path d="M7.033 2.200 C 6.706 2.256,6.388 2.363,6.100 2.513 C 5.727 2.706,5.239 3.195,5.013 3.600 C 4.770 4.035,2.174 9.904,2.090 10.206 C 2.037 10.398,2.021 10.601,2.024 11.040 C 2.027 11.550,2.041 11.663,2.136 11.980 C 2.271 12.424,2.434 12.771,2.630 13.031 C 2.880 13.362,9.779 20.935,9.986 21.106 C 10.574 21.592,11.254 21.839,12.000 21.839 C 12.747 21.839,13.426 21.592,14.015 21.106 C 14.223 20.933,21.120 13.362,21.368 13.033 C 21.569 12.767,21.736 12.413,21.865 11.980 C 21.959 11.665,21.973 11.547,21.976 11.040 C 21.979 10.600,21.963 10.398,21.910 10.205 C 21.794 9.787,19.104 3.773,18.880 3.431 C 18.508 2.864,17.989 2.479,17.319 2.273 L 17.020 2.181 12.120 2.175 C 9.425 2.171,7.136 2.183,7.033 2.200 " fill="#292D32" stroke="none" fill-rule="evenodd"></path></svg>