<svg width="24" height="24" viewBox="0 0 24 24" fill="none" xmlns="http://www.w3.org/2000/svg"><path d="M17.780 2.041 C 17.309 2.114,16.897 2.280,15.960 2.776 C 14.958 3.306,14.763 3.440,14.644 3.673 C 14.440 4.073,8.882 16.442,8.844 16.580 C 8.785 16.796,8.789 16.907,8.862 17.155 C 8.992 17.591,8.914 17.544,13.056 19.721 C 15.122 20.806,16.930 21.737,17.074 21.789 C 18.309 22.238,19.625 21.952,20.593 21.026 C 21.291 20.357,21.649 19.531,21.653 18.580 C 21.657 17.796,21.630 17.725,20.440 15.320 C 19.741 13.908,19.371 13.115,19.310 12.900 C 19.181 12.442,19.182 11.564,19.312 11.100 C 19.373 10.882,19.734 10.108,20.441 8.680 C 21.629 6.281,21.649 6.228,21.651 5.440 C 21.652 4.884,21.581 4.541,21.367 4.068 C 20.932 3.110,20.060 2.376,19.049 2.117 C 18.691 2.026,18.109 1.991,17.780 2.041 M10.164 5.846 C 10.056 5.877,5.273 8.366,4.200 8.949 C 3.363 9.405,2.825 10.026,2.535 10.873 C 2.281 11.615,2.281 12.385,2.535 13.127 C 2.754 13.768,3.138 14.310,3.648 14.698 C 3.994 14.961,6.236 16.142,6.510 16.205 C 6.916 16.299,7.362 16.109,7.592 15.746 C 7.796 15.423,11.478 7.189,11.504 6.996 C 11.568 6.533,11.217 5.999,10.759 5.863 C 10.521 5.793,10.366 5.788,10.164 5.846 " fill="#292D32" stroke="none" fill-rule="evenodd"></path></svg>