<svg width="24" height="24" viewBox="0 0 24 24" fill="none" xmlns="http://www.w3.org/2000/svg"><path d="M6.991 2.044 C 6.252 2.117,5.350 2.362,4.800 2.640 C 4.372 2.856,3.859 3.234,3.515 3.586 C 2.787 4.333,2.339 5.251,2.114 6.456 C 2.039 6.856,2.029 7.097,2.012 8.874 C 1.993 10.779,1.995 10.847,2.066 10.825 C 2.343 10.738,2.750 10.720,4.495 10.720 C 6.837 10.721,7.117 10.752,7.911 11.103 C 8.478 11.354,9.183 11.956,9.546 12.500 C 9.634 12.632,9.903 13.122,10.143 13.590 L 10.580 14.439 12.007 14.440 L 13.433 14.440 13.882 13.570 C 14.413 12.541,14.556 12.322,14.958 11.918 C 15.470 11.401,16.082 11.052,16.832 10.849 L 17.220 10.744 19.299 10.729 C 21.248 10.716,21.697 10.732,21.943 10.827 C 22.002 10.849,22.006 10.678,21.988 8.876 C 21.971 7.097,21.961 6.856,21.886 6.456 C 21.662 5.252,21.213 4.334,20.485 3.586 C 19.747 2.829,18.795 2.351,17.544 2.111 C 17.107 2.027,17.018 2.026,12.220 2.017 C 9.536 2.013,7.183 2.025,6.991 2.044 M13.820 5.476 C 14.102 5.606,14.240 5.819,14.240 6.125 C 14.240 6.385,14.042 6.661,13.787 6.757 C 13.714 6.785,13.086 6.800,12.000 6.800 C 10.914 6.800,10.286 6.785,10.213 6.757 C 9.958 6.661,9.760 6.385,9.760 6.125 C 9.760 5.819,9.898 5.606,10.180 5.476 C 10.327 5.408,10.471 5.402,12.000 5.402 C 13.529 5.402,13.673 5.408,13.820 5.476 M14.624 8.276 C 15.145 8.513,15.142 9.267,14.620 9.520 C 14.460 9.597,14.372 9.600,12.000 9.600 C 9.628 9.600,9.540 9.597,9.380 9.520 C 8.858 9.267,8.855 8.513,9.376 8.276 C 9.530 8.206,9.686 8.202,12.000 8.202 C 14.314 8.202,14.470 8.206,14.624 8.276 M2.420 12.316 C 2.235 12.401,2.103 12.532,2.043 12.693 C 1.985 12.844,1.985 16.549,2.043 17.072 C 2.284 19.265,3.420 20.845,5.271 21.563 C 5.704 21.730,6.260 21.866,6.812 21.938 C 7.215 21.991,7.974 22.000,11.984 22.000 C 15.044 22.000,16.819 21.985,17.072 21.957 C 19.717 21.667,21.351 20.207,21.887 17.655 C 21.974 17.239,21.978 17.127,21.991 15.060 C 21.999 13.872,21.994 12.841,21.980 12.769 C 21.950 12.606,21.743 12.366,21.572 12.294 C 21.469 12.251,21.036 12.240,19.468 12.240 C 17.646 12.240,17.469 12.246,17.190 12.317 C 16.651 12.455,16.144 12.779,15.831 13.186 C 15.732 13.315,15.411 13.887,15.119 14.457 C 14.533 15.598,14.427 15.739,14.055 15.878 C 13.847 15.956,13.752 15.960,12.006 15.960 C 9.936 15.960,9.888 15.954,9.610 15.685 C 9.494 15.573,9.305 15.248,8.924 14.508 C 8.635 13.946,8.318 13.377,8.220 13.245 C 8.001 12.947,7.671 12.680,7.293 12.497 C 6.798 12.256,6.621 12.240,4.486 12.241 C 2.719 12.242,2.568 12.247,2.420 12.316 " fill="#292D32" stroke="none" fill-rule="evenodd"></path></svg>