<svg width="24" height="24" viewBox="0 0 24 24" fill="none" xmlns="http://www.w3.org/2000/svg"><path d="M8.282 2.045 C 6.392 2.212,5.311 2.960,4.965 4.340 C 4.822 4.913,4.800 5.361,4.800 7.774 L 4.800 10.112 5.100 10.035 C 5.619 9.902,6.155 9.837,6.940 9.813 C 8.355 9.770,9.082 9.945,9.995 10.547 C 10.246 10.712,10.527 10.966,11.026 11.477 L 11.712 12.180 11.999 12.180 L 12.286 12.180 12.973 11.479 C 14.338 10.086,15.151 9.755,17.060 9.813 C 17.847 9.837,18.381 9.902,18.902 10.036 L 19.206 10.113 19.189 7.527 C 19.174 5.078,19.169 4.920,19.089 4.568 C 18.969 4.036,18.822 3.680,18.586 3.350 C 18.039 2.588,17.092 2.167,15.640 2.041 C 15.087 1.993,8.829 1.996,8.282 2.045 M6.380 11.346 C 5.324 11.474,4.682 11.687,4.091 12.106 C 3.435 12.572,3.063 13.365,2.961 14.520 C 2.908 15.121,2.908 17.365,2.962 18.024 C 3.070 19.374,3.392 20.174,4.087 20.820 C 4.567 21.266,5.074 21.525,5.894 21.740 C 6.818 21.983,6.739 21.980,11.880 21.980 C 16.841 21.980,16.842 21.980,17.579 21.794 C 18.545 21.551,19.157 21.216,19.760 20.602 C 20.411 19.939,20.791 19.108,20.986 17.920 C 21.028 17.665,21.055 17.143,21.069 16.334 C 21.100 14.516,21.012 13.764,20.682 13.060 C 20.272 12.182,19.460 11.654,18.160 11.420 C 17.654 11.329,16.342 11.293,15.928 11.358 C 15.230 11.469,14.734 11.786,13.980 12.602 C 13.418 13.210,13.206 13.389,12.874 13.535 C 12.285 13.795,11.656 13.783,11.060 13.499 C 10.827 13.388,10.696 13.280,10.274 12.853 C 9.996 12.571,9.713 12.275,9.645 12.195 C 9.487 12.011,8.990 11.666,8.691 11.534 C 8.321 11.371,7.951 11.319,7.186 11.326 C 6.809 11.329,6.446 11.339,6.380 11.346 M14.644 17.093 C 15.123 17.346,15.122 18.068,14.641 18.310 L 14.463 18.400 12.000 18.400 L 9.537 18.400 9.359 18.310 C 8.878 18.068,8.877 17.346,9.356 17.093 L 9.533 17.000 12.000 17.000 L 14.467 17.000 14.644 17.093 " fill="#292D32" stroke="none" fill-rule="evenodd"></path></svg>