<svg width="24" height="24" viewBox="0 0 24 24" fill="none" xmlns="http://www.w3.org/2000/svg"><path d="M11.720 1.303 C 11.543 1.379,9.465 3.442,9.357 3.648 C 9.314 3.732,9.280 3.877,9.280 3.980 C 9.280 4.529,9.798 4.872,10.308 4.659 C 10.388 4.626,10.639 4.416,10.866 4.192 L 11.280 3.785 11.280 4.392 L 11.280 5.000 12.020 5.000 L 12.760 5.000 12.760 7.030 C 12.760 8.303,12.744 9.115,12.718 9.209 C 12.602 9.628,12.125 9.864,11.729 9.698 C 11.532 9.616,11.405 9.494,11.316 9.300 C 11.247 9.151,11.242 8.997,11.241 7.066 L 11.240 4.993 9.070 5.011 C 7.088 5.028,6.862 5.037,6.456 5.113 C 5.217 5.346,4.254 5.828,3.515 6.586 C 2.602 7.524,2.115 8.755,2.017 10.375 C 1.990 10.828,1.992 10.848,2.064 10.825 C 2.343 10.737,2.747 10.720,4.495 10.720 C 6.837 10.721,7.117 10.752,7.911 11.103 C 8.478 11.354,9.183 11.956,9.546 12.500 C 9.634 12.632,9.903 13.122,10.143 13.590 L 10.580 14.439 12.007 14.440 L 13.433 14.440 13.882 13.570 C 14.413 12.541,14.556 12.322,14.958 11.918 C 15.470 11.401,16.082 11.052,16.832 10.849 L 17.220 10.744 19.299 10.729 C 21.252 10.716,21.697 10.732,21.945 10.828 C 22.006 10.851,22.009 10.811,21.983 10.377 C 21.885 8.754,21.399 7.524,20.485 6.586 C 19.746 5.828,18.783 5.346,17.544 5.113 C 17.138 5.037,16.912 5.028,14.930 5.011 L 12.760 4.993 12.760 4.410 L 12.760 3.827 13.192 4.249 C 13.568 4.615,13.649 4.675,13.814 4.711 C 14.300 4.814,14.723 4.490,14.726 4.011 C 14.726 3.906,14.706 3.766,14.681 3.700 C 14.615 3.527,12.500 1.410,12.300 1.316 C 12.108 1.227,11.909 1.222,11.720 1.303 M2.420 12.316 C 2.235 12.401,2.103 12.532,2.043 12.693 C 1.985 12.844,1.985 16.549,2.043 17.072 C 2.284 19.265,3.420 20.845,5.271 21.563 C 5.704 21.730,6.260 21.866,6.812 21.938 C 7.215 21.991,7.974 22.000,11.984 22.000 C 15.044 22.000,16.819 21.985,17.072 21.957 C 19.717 21.667,21.351 20.207,21.887 17.655 C 21.974 17.239,21.978 17.127,21.991 15.060 C 21.999 13.872,21.994 12.841,21.980 12.769 C 21.950 12.606,21.743 12.366,21.572 12.294 C 21.469 12.251,21.036 12.240,19.468 12.240 C 17.646 12.240,17.469 12.246,17.190 12.317 C 16.651 12.455,16.144 12.779,15.831 13.186 C 15.732 13.315,15.411 13.887,15.119 14.457 C 14.533 15.598,14.427 15.739,14.055 15.878 C 13.847 15.956,13.752 15.960,12.006 15.960 C 9.936 15.960,9.888 15.954,9.610 15.685 C 9.494 15.573,9.305 15.248,8.924 14.508 C 8.635 13.946,8.318 13.377,8.220 13.245 C 8.001 12.947,7.671 12.680,7.293 12.497 C 6.798 12.256,6.621 12.240,4.486 12.241 C 2.719 12.242,2.568 12.247,2.420 12.316 " fill="#292D32" stroke="none" fill-rule="evenodd"></path></svg>