<svg width="24" height="24" viewBox="0 0 24 24" fill="none" xmlns="http://www.w3.org/2000/svg"><path d="M11.807 1.288 C 11.558 1.343,11.342 1.571,11.284 1.838 C 11.259 1.956,11.240 2.458,11.240 3.018 L 11.240 3.993 9.070 4.011 C 7.088 4.028,6.862 4.037,6.456 4.113 C 5.217 4.346,4.254 4.828,3.515 5.586 C 2.779 6.342,2.327 7.275,2.115 8.476 C 2.055 8.817,2.027 9.193,2.011 9.895 C 1.989 10.818,1.991 10.848,2.064 10.825 C 2.343 10.737,2.747 10.720,4.495 10.720 C 6.837 10.721,7.117 10.752,7.911 11.103 C 8.478 11.354,9.183 11.956,9.546 12.500 C 9.634 12.632,9.903 13.122,10.143 13.590 L 10.580 14.439 12.007 14.440 L 13.433 14.440 13.882 13.570 C 14.413 12.541,14.556 12.322,14.958 11.918 C 15.470 11.401,16.082 11.052,16.832 10.849 L 17.220 10.744 19.299 10.729 C 21.252 10.716,21.697 10.732,21.945 10.828 C 22.006 10.851,22.010 10.775,21.989 9.896 C 21.973 9.193,21.945 8.817,21.885 8.476 C 21.673 7.275,21.221 6.342,20.485 5.586 C 19.746 4.828,18.783 4.346,17.544 4.113 C 17.138 4.037,16.912 4.028,14.933 4.011 L 12.766 3.993 12.753 2.906 C 12.741 1.873,12.736 1.812,12.651 1.653 C 12.523 1.415,12.388 1.328,12.040 1.261 C 12.007 1.255,11.902 1.267,11.807 1.288 M12.760 5.588 L 12.760 7.175 13.190 6.752 C 13.534 6.413,13.655 6.319,13.795 6.281 C 14.364 6.128,14.870 6.634,14.719 7.205 C 14.679 7.358,14.535 7.520,13.567 8.493 C 12.958 9.105,12.406 9.635,12.340 9.671 C 12.271 9.708,12.127 9.736,12.000 9.736 C 11.873 9.736,11.729 9.708,11.660 9.671 C 11.594 9.635,11.042 9.105,10.433 8.493 C 9.465 7.520,9.321 7.358,9.281 7.205 C 9.130 6.634,9.636 6.128,10.205 6.281 C 10.345 6.319,10.466 6.413,10.810 6.752 L 11.240 7.175 11.240 5.588 L 11.240 4.000 12.000 4.000 L 12.760 4.000 12.760 5.588 M2.420 12.316 C 2.235 12.401,2.103 12.532,2.043 12.693 C 1.985 12.844,1.985 16.549,2.043 17.072 C 2.284 19.265,3.420 20.845,5.271 21.563 C 5.704 21.730,6.260 21.866,6.812 21.938 C 7.215 21.991,7.974 22.000,11.984 22.000 C 15.044 22.000,16.819 21.985,17.072 21.957 C 19.717 21.667,21.351 20.207,21.887 17.655 C 21.974 17.239,21.978 17.127,21.991 15.060 C 21.999 13.872,21.994 12.841,21.980 12.769 C 21.950 12.606,21.743 12.366,21.572 12.294 C 21.469 12.251,21.036 12.240,19.468 12.240 C 17.646 12.240,17.469 12.246,17.190 12.317 C 16.651 12.455,16.144 12.779,15.831 13.186 C 15.732 13.315,15.411 13.887,15.119 14.457 C 14.533 15.598,14.427 15.739,14.055 15.878 C 13.847 15.956,13.752 15.960,12.006 15.960 C 9.936 15.960,9.888 15.954,9.610 15.685 C 9.494 15.573,9.305 15.248,8.924 14.508 C 8.635 13.946,8.318 13.377,8.220 13.245 C 8.001 12.947,7.671 12.680,7.293 12.497 C 6.798 12.256,6.621 12.240,4.486 12.241 C 2.719 12.242,2.568 12.247,2.420 12.316 " fill="#292D32" stroke="none" fill-rule="evenodd"></path></svg>