<svg width="24" height="24" viewBox="0 0 24 24" fill="none" xmlns="http://www.w3.org/2000/svg"><path d="M18.503 2.040 C 17.828 2.162,17.156 2.550,16.703 3.080 C 15.987 3.917,15.806 5.100,16.234 6.151 C 16.521 6.857,17.143 7.479,17.849 7.766 C 18.989 8.230,20.251 7.978,21.115 7.115 C 22.238 5.992,22.295 4.212,21.246 3.020 C 20.897 2.624,20.276 2.239,19.756 2.097 C 19.491 2.024,18.770 1.991,18.503 2.040 M6.780 3.058 C 5.697 3.207,4.789 3.617,3.913 4.350 C 3.126 5.009,2.470 6.050,2.198 7.070 C 2.034 7.687,2.002 8.133,2.001 9.774 C 2.000 11.201,2.005 11.326,2.066 11.303 C 2.265 11.227,2.827 11.202,4.320 11.201 C 5.233 11.201,6.151 11.219,6.360 11.241 C 7.342 11.344,8.123 11.723,8.805 12.426 C 9.189 12.823,9.354 13.078,9.824 14.010 L 10.202 14.760 11.511 14.759 L 12.820 14.758 13.220 13.974 C 13.440 13.543,13.692 13.080,13.780 12.945 C 14.259 12.210,15.088 11.609,15.960 11.365 C 16.444 11.230,16.921 11.201,18.680 11.201 C 20.173 11.202,20.735 11.227,20.934 11.303 C 20.993 11.326,21.000 11.275,21.000 10.812 C 21.000 10.157,20.942 9.939,20.700 9.698 C 20.452 9.449,20.178 9.374,19.742 9.434 C 19.103 9.521,19.008 9.525,18.613 9.481 C 17.547 9.364,16.653 8.955,15.910 8.246 C 15.098 7.470,14.635 6.514,14.519 5.373 C 14.485 5.036,14.489 4.862,14.543 4.443 C 14.603 3.970,14.603 3.910,14.544 3.708 C 14.499 3.553,14.428 3.434,14.304 3.306 C 13.994 2.987,14.156 2.999,10.423 3.004 C 8.051 3.007,7.040 3.022,6.780 3.058 M2.358 12.812 C 2.239 12.875,2.155 12.959,2.092 13.078 L 2.000 13.253 2.000 15.016 C 2.000 16.913,2.030 17.423,2.178 18.084 C 2.590 19.920,3.800 21.226,5.560 21.734 C 6.439 21.987,6.269 21.980,11.520 21.980 C 16.267 21.980,16.303 21.979,16.780 21.892 C 19.048 21.478,20.394 20.164,20.890 17.880 C 20.966 17.530,20.973 17.335,20.988 15.380 L 21.005 13.260 20.910 13.082 C 20.845 12.960,20.762 12.876,20.642 12.812 L 20.467 12.720 18.644 12.721 C 16.619 12.721,16.482 12.734,15.981 12.974 C 15.612 13.150,15.318 13.388,15.094 13.692 C 14.994 13.829,14.705 14.352,14.451 14.856 C 13.941 15.870,13.800 16.058,13.460 16.174 C 13.290 16.232,13.037 16.240,11.463 16.240 L 9.660 16.239 9.458 16.145 C 9.347 16.094,9.206 15.992,9.145 15.919 C 9.084 15.846,8.821 15.361,8.561 14.843 C 8.302 14.324,8.015 13.801,7.924 13.680 C 7.603 13.251,7.095 12.919,6.557 12.785 C 6.333 12.730,6.019 12.720,4.414 12.720 L 2.533 12.720 2.358 12.812 " fill="#292D32" stroke="none" fill-rule="evenodd"></path></svg>