<svg width="24" height="24" viewBox="0 0 24 24" fill="none" xmlns="http://www.w3.org/2000/svg"><path d="M5.034 2.362 C 4.665 2.402,4.193 2.554,3.843 2.746 C 2.379 3.547,1.663 5.249,2.155 6.760 C 2.229 6.987,2.458 7.478,2.723 7.980 C 3.272 9.018,3.364 9.165,3.551 9.293 C 3.714 9.404,16.019 14.953,16.440 15.105 C 16.747 15.215,16.874 15.221,17.155 15.138 C 17.590 15.009,17.542 15.087,19.730 10.920 C 20.870 8.748,21.757 7.012,21.815 6.840 C 21.870 6.675,21.934 6.423,21.957 6.280 C 22.238 4.546,21.025 2.806,19.265 2.419 C 18.879 2.334,18.026 2.354,17.680 2.457 C 17.559 2.493,16.515 2.990,15.360 3.562 C 12.959 4.750,12.816 4.803,12.020 4.806 C 11.211 4.809,11.121 4.776,8.720 3.580 C 6.906 2.676,6.560 2.518,6.255 2.448 C 5.809 2.347,5.426 2.320,5.034 2.362 M6.545 12.546 C 6.266 12.631,5.948 12.956,5.863 13.241 C 5.789 13.493,5.785 13.604,5.844 13.818 C 5.890 13.984,8.916 19.753,9.139 20.100 C 9.527 20.704,10.069 21.147,10.762 21.427 C 11.334 21.658,12.179 21.714,12.812 21.564 C 13.626 21.371,14.331 20.896,14.789 20.231 C 15.026 19.889,16.095 17.867,16.187 17.588 C 16.339 17.128,16.096 16.573,15.640 16.341 C 15.255 16.144,7.330 12.585,7.164 12.534 C 6.943 12.466,6.793 12.469,6.545 12.546 " fill="#292D32" stroke="none" fill-rule="evenodd"></path></svg>