<svg width="24" height="24" viewBox="0 0 24 24" fill="none" xmlns="http://www.w3.org/2000/svg"><path d="M11.722 2.063 C 11.576 2.126,9.831 3.833,9.660 4.080 C 9.512 4.293,9.493 4.538,9.607 4.760 C 9.737 5.012,9.915 5.120,10.197 5.120 C 10.470 5.120,10.514 5.093,10.970 4.645 L 11.320 4.302 11.320 5.151 L 11.320 6.000 10.070 6.000 C 8.038 6.001,7.203 6.120,6.400 6.521 C 5.316 7.064,4.800 8.113,4.800 9.774 L 4.800 10.112 5.090 10.038 C 5.594 9.911,6.197 9.837,6.940 9.812 C 8.335 9.766,9.086 9.947,9.995 10.547 C 10.246 10.712,10.527 10.966,11.023 11.474 L 11.706 12.174 11.943 12.189 C 12.120 12.201,12.212 12.187,12.307 12.132 C 12.377 12.093,12.681 11.795,12.983 11.471 C 14.230 10.134,15.174 9.750,17.060 9.812 C 17.796 9.837,18.336 9.903,18.896 10.036 L 19.212 10.112 19.187 9.539 C 19.144 8.526,18.950 7.839,18.561 7.312 C 18.020 6.579,17.068 6.164,15.640 6.041 C 15.387 6.019,14.617 6.001,13.930 6.000 L 12.680 6.000 12.680 5.151 L 12.680 4.302 13.050 4.666 C 13.253 4.867,13.459 5.051,13.507 5.076 C 13.555 5.100,13.691 5.120,13.808 5.120 C 14.189 5.120,14.440 4.859,14.440 4.462 C 14.440 4.360,14.414 4.227,14.383 4.168 C 14.352 4.109,13.870 3.608,13.313 3.056 C 12.500 2.249,12.273 2.046,12.165 2.026 C 11.968 1.988,11.877 1.996,11.722 2.063 M12.679 7.590 C 12.678 9.047,12.672 9.193,12.605 9.340 C 12.472 9.630,12.193 9.786,11.889 9.740 C 11.671 9.708,11.388 9.448,11.347 9.243 C 11.332 9.170,11.320 8.410,11.320 7.555 L 11.320 6.000 12.000 6.000 L 12.680 6.000 12.679 7.590 M6.380 11.346 C 5.324 11.474,4.682 11.687,4.091 12.106 C 3.435 12.572,3.063 13.365,2.961 14.520 C 2.908 15.121,2.908 17.365,2.962 18.024 C 3.070 19.374,3.392 20.174,4.087 20.820 C 4.567 21.266,5.074 21.525,5.894 21.740 C 6.818 21.983,6.739 21.980,11.880 21.980 C 16.841 21.980,16.842 21.980,17.579 21.794 C 18.545 21.551,19.157 21.216,19.760 20.602 C 20.411 19.939,20.791 19.108,20.986 17.920 C 21.028 17.665,21.055 17.143,21.069 16.334 C 21.100 14.516,21.012 13.764,20.682 13.060 C 20.272 12.182,19.460 11.654,18.160 11.420 C 17.654 11.329,16.342 11.293,15.928 11.358 C 15.230 11.469,14.734 11.786,13.980 12.602 C 13.418 13.210,13.206 13.389,12.874 13.535 C 12.285 13.795,11.656 13.783,11.060 13.499 C 10.827 13.388,10.696 13.280,10.274 12.853 C 9.996 12.571,9.713 12.275,9.645 12.195 C 9.487 12.011,8.990 11.666,8.691 11.534 C 8.321 11.371,7.951 11.319,7.186 11.326 C 6.809 11.329,6.446 11.339,6.380 11.346 M14.644 17.093 C 15.123 17.346,15.122 18.068,14.641 18.310 L 14.463 18.400 12.000 18.400 L 9.537 18.400 9.359 18.310 C 8.878 18.068,8.877 17.346,9.356 17.093 L 9.533 17.000 12.000 17.000 L 14.467 17.000 14.644 17.093 " fill="#292D32" stroke="none" fill-rule="evenodd"></path></svg>