<svg width="24" height="24" viewBox="0 0 24 24" fill="none" xmlns="http://www.w3.org/2000/svg"><path d="M5.233 2.041 C 4.138 2.226,3.145 2.983,2.662 4.004 C 2.434 4.484,2.349 4.866,2.347 5.420 C 2.343 6.203,2.370 6.275,3.560 8.680 C 4.266 10.108,4.628 10.882,4.688 11.100 C 4.818 11.564,4.819 12.443,4.690 12.900 C 4.629 13.115,4.259 13.908,3.560 15.320 C 2.370 17.725,2.343 17.796,2.347 18.580 C 2.348 18.941,2.370 19.139,2.435 19.380 C 2.972 21.374,5.061 22.489,6.938 21.782 C 7.261 21.661,14.621 17.786,14.800 17.644 C 15.018 17.470,15.175 17.128,15.175 16.826 C 15.175 16.583,15.114 16.441,12.280 10.139 C 10.688 6.597,9.344 3.637,9.294 3.560 C 9.176 3.380,9.002 3.270,7.980 2.729 C 7.113 2.271,6.728 2.115,6.280 2.043 C 5.985 1.995,5.510 1.994,5.233 2.041 M13.227 5.865 C 12.944 5.952,12.627 6.273,12.544 6.557 C 12.466 6.822,12.464 6.935,12.534 7.164 C 12.585 7.328,16.137 15.238,16.343 15.646 C 16.577 16.107,17.135 16.343,17.609 16.181 C 17.880 16.089,19.909 15.011,20.231 14.789 C 20.896 14.331,21.371 13.626,21.564 12.812 C 21.714 12.179,21.658 11.334,21.427 10.762 C 21.147 10.069,20.704 9.527,20.100 9.139 C 19.755 8.918,13.980 5.889,13.816 5.844 C 13.612 5.787,13.463 5.792,13.227 5.865 " fill="#292D32" stroke="none" fill-rule="evenodd"></path></svg>