<svg width="24" height="24" viewBox="0 0 24 24" fill="none" xmlns="http://www.w3.org/2000/svg"><path d="M11.621 2.365 C 10.657 2.465,9.789 2.976,9.223 3.776 C 8.960 4.148,5.886 10.008,5.832 10.240 C 5.672 10.935,6.381 11.650,7.071 11.489 C 7.284 11.439,15.641 7.685,15.798 7.568 C 16.119 7.331,16.292 6.885,16.211 6.506 C 16.159 6.263,15.090 4.205,14.789 3.769 C 14.101 2.771,12.887 2.233,11.621 2.365 M16.601 8.828 C 16.510 8.846,4.133 14.412,3.717 14.622 C 3.617 14.672,3.472 14.784,3.394 14.870 C 3.232 15.049,2.349 16.694,2.208 17.080 C 1.747 18.342,2.086 19.757,3.073 20.688 C 3.414 21.010,3.635 21.164,4.010 21.341 C 4.494 21.571,4.867 21.652,5.440 21.652 C 6.224 21.652,6.278 21.631,8.680 20.441 C 10.110 19.733,10.882 19.372,11.100 19.311 C 11.560 19.183,12.439 19.183,12.900 19.311 C 13.118 19.372,13.887 19.731,15.320 20.441 C 17.719 21.629,17.772 21.649,18.560 21.651 C 19.150 21.652,19.520 21.569,20.020 21.323 C 21.067 20.809,21.783 19.831,21.965 18.668 C 22.062 18.045,21.919 17.311,21.562 16.599 C 20.997 15.476,17.737 9.320,17.645 9.204 C 17.432 8.934,16.943 8.758,16.601 8.828 " fill="#292D32" stroke="none" fill-rule="evenodd"></path></svg>