<svg width="24" height="24" viewBox="0 0 24 24" fill="none" xmlns="http://www.w3.org/2000/svg"><path d="M11.738 2.054 C 11.577 2.127,11.413 2.326,11.362 2.511 C 11.339 2.593,11.320 2.962,11.320 3.330 L 11.320 4.000 10.070 4.000 C 8.348 4.001,7.693 4.065,6.940 4.308 C 5.640 4.727,5.006 5.556,4.843 7.048 C 4.819 7.262,4.800 8.039,4.800 8.774 L 4.800 10.112 5.090 10.038 C 5.858 9.844,7.287 9.745,8.041 9.834 C 9.249 9.976,9.917 10.345,11.040 11.488 L 11.740 12.201 11.961 12.201 C 12.095 12.200,12.231 12.173,12.307 12.130 C 12.377 12.092,12.681 11.795,12.983 11.471 C 14.230 10.134,15.174 9.750,17.060 9.812 C 17.796 9.837,18.336 9.903,18.894 10.036 L 19.208 10.111 19.189 8.525 C 19.172 7.118,19.161 6.898,19.088 6.568 C 18.777 5.164,18.004 4.461,16.420 4.144 C 15.888 4.038,15.242 4.001,13.930 4.000 L 12.680 4.000 12.679 3.350 C 12.678 2.485,12.634 2.318,12.351 2.107 C 12.218 2.008,11.900 1.981,11.738 2.054 M12.680 5.706 L 12.680 7.411 13.041 7.063 C 13.514 6.607,13.730 6.520,14.052 6.654 C 14.227 6.727,14.430 6.967,14.462 7.139 C 14.527 7.482,14.513 7.501,13.387 8.631 C 12.257 9.766,12.215 9.796,11.865 9.738 C 11.715 9.713,11.606 9.617,10.665 8.685 C 10.096 8.121,9.606 7.602,9.575 7.531 C 9.351 7.011,9.895 6.443,10.427 6.642 C 10.489 6.665,10.716 6.858,10.930 7.071 L 11.320 7.458 11.320 5.729 L 11.320 4.000 12.000 4.000 L 12.680 4.000 12.680 5.706 M6.380 11.346 C 5.324 11.474,4.682 11.687,4.091 12.106 C 3.435 12.572,3.063 13.365,2.961 14.520 C 2.908 15.121,2.908 17.365,2.962 18.024 C 3.070 19.374,3.392 20.174,4.087 20.820 C 4.567 21.266,5.074 21.525,5.894 21.740 C 6.818 21.983,6.739 21.980,11.880 21.980 C 16.841 21.980,16.842 21.980,17.579 21.794 C 18.545 21.551,19.157 21.216,19.760 20.602 C 20.411 19.939,20.791 19.108,20.986 17.920 C 21.028 17.665,21.055 17.143,21.069 16.334 C 21.100 14.516,21.012 13.764,20.682 13.060 C 20.272 12.182,19.460 11.654,18.160 11.420 C 17.654 11.329,16.342 11.293,15.928 11.358 C 15.230 11.469,14.734 11.786,13.980 12.602 C 13.418 13.210,13.206 13.389,12.874 13.535 C 12.285 13.795,11.656 13.783,11.060 13.499 C 10.827 13.388,10.696 13.280,10.274 12.853 C 9.996 12.571,9.713 12.275,9.645 12.195 C 9.487 12.011,8.990 11.666,8.691 11.534 C 8.321 11.371,7.951 11.319,7.186 11.326 C 6.809 11.329,6.446 11.339,6.380 11.346 M14.644 17.093 C 15.123 17.346,15.122 18.068,14.641 18.310 L 14.463 18.400 12.000 18.400 L 9.537 18.400 9.359 18.310 C 8.878 18.068,8.877 17.346,9.356 17.093 L 9.533 17.000 12.000 17.000 L 14.467 17.000 14.644 17.093 " fill="#292D32" stroke="none" fill-rule="evenodd"></path></svg>