<svg width="24" height="24" viewBox="0 0 24 24" fill="none" xmlns="http://www.w3.org/2000/svg"><path d="M8.282 2.045 C 6.392 2.212,5.311 2.960,4.965 4.340 C 4.822 4.913,4.800 5.361,4.800 7.774 L 4.800 10.112 5.100 10.035 C 5.619 9.902,6.155 9.837,6.940 9.813 C 8.355 9.770,9.082 9.945,9.995 10.547 C 10.246 10.712,10.527 10.966,11.026 11.477 L 11.712 12.180 11.999 12.180 L 12.286 12.180 12.973 11.479 C 14.338 10.086,15.151 9.755,17.060 9.813 C 17.847 9.837,18.381 9.902,18.902 10.036 L 19.206 10.113 19.189 7.527 C 19.174 5.078,19.169 4.920,19.089 4.568 C 18.969 4.036,18.822 3.680,18.586 3.350 C 18.039 2.588,17.092 2.167,15.640 2.041 C 15.087 1.993,8.829 1.996,8.282 2.045 M14.587 4.363 C 14.730 4.417,14.870 4.547,14.948 4.697 C 15.027 4.848,15.026 5.153,14.947 5.307 C 14.858 5.479,14.624 5.672,14.471 5.700 C 14.399 5.713,13.241 5.718,11.897 5.712 L 9.454 5.700 9.309 5.601 C 8.847 5.284,8.899 4.565,9.400 4.365 C 9.542 4.308,14.438 4.306,14.587 4.363 M13.868 7.170 C 14.307 7.410,14.363 8.073,13.968 8.354 C 13.747 8.512,13.571 8.525,11.880 8.512 C 10.072 8.499,10.115 8.505,9.892 8.213 C 9.795 8.086,9.780 8.030,9.780 7.796 C 9.780 7.586,9.798 7.501,9.862 7.415 C 9.977 7.262,10.126 7.158,10.285 7.119 C 10.359 7.101,11.167 7.089,12.080 7.093 C 13.577 7.099,13.753 7.107,13.868 7.170 M6.063 11.382 C 5.295 11.487,4.602 11.740,4.095 12.102 C 3.433 12.574,3.064 13.363,2.961 14.520 C 2.908 15.121,2.908 17.365,2.962 18.024 C 3.070 19.374,3.392 20.174,4.087 20.820 C 4.567 21.266,5.074 21.525,5.894 21.740 C 6.818 21.983,6.739 21.980,11.880 21.980 C 16.841 21.980,16.842 21.980,17.579 21.794 C 18.545 21.551,19.157 21.216,19.760 20.602 C 20.411 19.939,20.791 19.108,20.986 17.920 C 21.028 17.665,21.055 17.143,21.069 16.334 C 21.100 14.516,21.012 13.764,20.682 13.060 C 20.272 12.182,19.460 11.654,18.160 11.420 C 17.651 11.329,16.341 11.293,15.928 11.359 C 15.237 11.470,14.754 11.772,14.041 12.540 C 13.429 13.198,13.275 13.337,12.990 13.483 C 12.361 13.806,11.609 13.800,10.982 13.467 C 10.735 13.336,10.552 13.168,9.841 12.424 C 9.222 11.777,8.795 11.508,8.186 11.383 C 7.808 11.304,6.637 11.304,6.063 11.382 " fill="#292D32" stroke="none" fill-rule="evenodd"></path></svg>