<svg width="24" height="24" viewBox="0 0 24 24" fill="none" xmlns="http://www.w3.org/2000/svg"><path d="M11.120 2.039 C 8.336 2.318,5.905 3.624,4.193 5.760 C 1.474 9.155,1.267 13.917,3.682 17.533 C 6.770 22.155,12.946 23.386,17.560 20.299 C 22.155 17.225,23.377 11.041,20.299 6.440 C 18.728 4.092,16.319 2.562,13.493 2.119 C 12.909 2.027,11.660 1.985,11.120 2.039 M9.340 8.066 C 9.837 8.235,10.116 8.821,9.939 9.322 C 9.693 10.021,8.821 10.223,8.300 9.702 C 7.907 9.309,7.907 8.691,8.300 8.298 C 8.577 8.020,8.957 7.936,9.340 8.066 M15.352 8.351 C 15.633 8.479,15.785 8.833,15.712 9.189 C 15.673 9.374,15.576 9.477,12.566 12.493 C 10.858 14.205,9.414 15.630,9.359 15.659 C 8.783 15.965,8.154 15.466,8.289 14.810 C 8.326 14.626,8.429 14.518,11.474 11.473 C 14.454 8.492,14.630 8.324,14.800 8.289 C 15.006 8.246,15.163 8.264,15.352 8.351 M15.423 14.112 C 15.939 14.375,16.131 14.975,15.859 15.475 C 15.367 16.378,14.002 16.027,14.000 14.997 C 14.000 14.592,14.276 14.201,14.665 14.056 C 14.866 13.982,15.219 14.007,15.423 14.112 " fill="#292D32" stroke="none" fill-rule="evenodd"></path></svg>