<svg width="24" height="24" viewBox="0 0 24 24" fill="none" xmlns="http://www.w3.org/2000/svg"><path d="M18.043 2.044 C 17.902 2.066,15.499 2.656,12.703 3.355 C 9.166 4.240,7.512 4.671,7.264 4.772 C 6.704 5.001,6.277 5.289,5.800 5.760 C 5.244 6.308,4.944 6.767,4.703 7.437 C 4.645 7.601,4.020 10.040,3.316 12.857 C 1.892 18.553,1.920 18.410,2.058 19.139 C 2.313 20.488,3.252 21.506,4.594 21.890 C 4.843 21.961,5.004 21.977,5.460 21.977 L 6.020 21.977 11.147 20.689 C 13.967 19.981,16.421 19.348,16.602 19.282 C 17.643 18.902,18.596 18.051,19.090 17.060 C 19.300 16.640,19.440 16.120,20.689 11.141 L 21.973 6.020 21.976 5.460 C 21.978 4.995,21.963 4.847,21.889 4.588 C 21.699 3.928,21.419 3.461,20.934 2.998 C 20.603 2.680,20.373 2.520,19.990 2.339 C 19.426 2.072,18.639 1.952,18.043 2.044 M12.609 8.179 C 14.144 8.410,15.400 9.585,15.788 11.151 C 15.880 11.522,15.880 12.478,15.788 12.849 C 15.576 13.704,15.107 14.467,14.475 14.984 C 13.713 15.608,12.774 15.919,11.809 15.869 C 10.821 15.817,9.945 15.424,9.251 14.722 C 7.959 13.415,7.761 11.390,8.774 9.867 C 9.376 8.962,10.336 8.340,11.379 8.178 C 11.818 8.110,12.150 8.110,12.609 8.179 " fill="#292D32" stroke="none" fill-rule="evenodd"></path></svg>