<svg width="24" height="24" viewBox="0 0 24 24" fill="none" xmlns="http://www.w3.org/2000/svg"><path d="M11.120 2.039 C 8.192 2.332,5.648 3.774,3.923 6.119 C 2.041 8.678,1.501 12.071,2.496 15.094 C 3.849 19.205,7.695 22.000,12.000 22.000 C 17.491 22.000,22.000 17.491,22.000 12.000 C 22.000 7.433,18.865 3.424,14.417 2.302 C 13.472 2.064,12.026 1.949,11.120 2.039 M14.100 7.967 C 14.588 8.074,15.186 8.442,15.505 8.831 C 15.940 9.363,16.143 10.010,16.106 10.740 C 16.033 12.139,15.518 13.362,14.589 14.345 C 13.522 15.471,12.065 16.120,10.599 16.120 C 9.784 16.120,9.201 15.886,8.659 15.342 C 7.933 14.614,7.733 13.712,8.003 12.385 C 8.452 10.181,10.203 8.438,12.408 8.000 C 12.997 7.883,13.660 7.870,14.100 7.967 " fill="#292D32" stroke="none" fill-rule="evenodd"></path></svg>