<svg width="24" height="24" viewBox="0 0 24 24" fill="none" xmlns="http://www.w3.org/2000/svg"><path d="M11.601 2.062 C 11.481 2.095,11.301 2.170,11.201 2.227 C 11.101 2.284,10.615 2.731,10.120 3.219 C 9.625 3.707,9.154 4.146,9.074 4.194 C 8.994 4.242,8.823 4.320,8.694 4.367 C 8.476 4.447,8.361 4.455,7.040 4.477 L 5.620 4.500 5.380 4.618 C 4.907 4.850,4.563 5.311,4.479 5.827 C 4.458 5.955,4.440 6.596,4.440 7.251 C 4.440 8.344,4.433 8.463,4.359 8.684 C 4.314 8.817,4.231 9.001,4.174 9.093 C 4.117 9.185,3.670 9.665,3.181 10.160 C 2.692 10.655,2.254 11.124,2.208 11.202 C 2.099 11.385,2.000 11.766,2.000 12.001 C 2.000 12.210,2.090 12.543,2.210 12.780 C 2.255 12.869,2.712 13.367,3.237 13.900 C 4.065 14.740,4.199 14.893,4.302 15.120 L 4.420 15.380 4.443 16.800 C 4.466 18.300,4.467 18.302,4.673 18.707 C 4.794 18.943,5.197 19.297,5.469 19.406 C 5.691 19.494,5.758 19.499,7.120 19.520 C 8.479 19.542,8.549 19.546,8.757 19.633 C 9.088 19.772,9.155 19.829,10.122 20.785 C 10.914 21.568,11.058 21.693,11.302 21.808 C 11.561 21.931,11.608 21.940,12.000 21.940 C 12.655 21.940,12.699 21.913,13.838 20.784 C 15.153 19.481,14.985 19.551,16.880 19.522 L 18.300 19.500 18.570 19.372 C 18.919 19.207,19.207 18.919,19.372 18.570 L 19.500 18.300 19.522 16.880 C 19.551 14.981,19.476 15.159,20.820 13.800 C 21.702 12.907,21.796 12.799,21.878 12.580 C 21.990 12.283,22.025 11.903,21.964 11.659 C 21.858 11.240,21.772 11.127,20.799 10.140 C 19.973 9.302,19.835 9.144,19.716 8.900 L 19.580 8.620 19.557 7.200 C 19.531 5.644,19.521 5.576,19.279 5.198 C 19.120 4.950,18.890 4.751,18.601 4.609 L 18.380 4.500 16.960 4.477 C 15.639 4.455,15.524 4.447,15.306 4.367 C 15.177 4.320,15.006 4.242,14.926 4.194 C 14.846 4.146,14.357 3.690,13.840 3.181 C 13.030 2.383,12.866 2.241,12.655 2.148 C 12.340 2.009,11.912 1.974,11.601 2.062 M9.465 8.124 C 9.857 8.326,10.062 8.778,9.963 9.221 C 9.794 9.979,8.850 10.252,8.300 9.702 C 7.907 9.309,7.907 8.691,8.300 8.298 C 8.608 7.990,9.070 7.921,9.465 8.124 M15.352 8.351 C 15.706 8.513,15.835 8.991,15.629 9.380 C 15.594 9.446,14.174 10.889,12.473 12.587 C 9.680 15.375,9.363 15.678,9.205 15.720 C 8.875 15.806,8.566 15.688,8.378 15.404 C 8.293 15.276,8.272 15.196,8.272 15.008 C 8.272 14.872,8.298 14.722,8.333 14.656 C 8.434 14.466,14.606 8.328,14.720 8.304 C 14.948 8.256,14.985 8.253,15.100 8.271 C 15.166 8.282,15.280 8.317,15.352 8.351 M15.423 14.112 C 15.782 14.295,15.972 14.602,15.972 15.000 C 15.972 16.060,14.541 16.381,14.095 15.422 C 13.835 14.864,14.120 14.232,14.720 14.035 C 14.878 13.983,15.251 14.024,15.423 14.112 " fill="#292D32" stroke="none" fill-rule="evenodd"></path></svg>