<svg width="24" height="24" viewBox="0 0 24 24" fill="none" xmlns="http://www.w3.org/2000/svg"><path d="M7.083 2.322 C 6.215 2.498,5.320 3.120,4.887 3.850 C 4.794 4.006,4.359 5.275,3.455 8.027 C 2.740 10.201,2.121 12.113,2.078 12.276 C 1.772 13.443,2.458 14.525,3.667 14.781 C 3.886 14.827,4.390 14.839,6.220 14.840 C 8.428 14.842,8.506 14.844,8.680 14.923 C 8.997 15.067,9.179 15.310,9.224 15.650 C 9.239 15.763,9.152 16.412,8.963 17.591 C 8.807 18.565,8.680 19.474,8.680 19.611 C 8.683 20.719,9.677 21.720,10.776 21.720 C 11.346 21.720,11.908 21.491,12.300 21.100 C 12.615 20.785,15.358 16.692,15.490 16.340 L 15.580 16.100 15.592 10.700 C 15.605 4.972,15.608 5.067,15.415 4.655 C 15.242 4.287,15.061 4.106,14.162 3.405 C 13.234 2.682,13.003 2.544,12.460 2.392 C 12.146 2.305,12.092 2.303,9.700 2.295 C 8.358 2.290,7.180 2.303,7.083 2.322 M18.280 3.427 C 17.356 3.547,16.892 3.921,16.690 4.709 C 16.625 4.960,16.620 5.386,16.620 10.520 C 16.620 15.643,16.625 16.079,16.689 16.309 C 16.874 16.979,17.187 17.298,17.862 17.506 C 18.071 17.571,18.249 17.580,19.320 17.580 L 20.540 17.580 20.856 17.468 C 21.029 17.407,21.253 17.299,21.352 17.228 C 21.595 17.056,21.814 16.709,21.906 16.351 C 21.976 16.074,21.980 15.792,21.980 10.500 C 21.980 5.912,21.970 4.902,21.925 4.720 C 21.757 4.051,21.404 3.688,20.738 3.499 C 20.549 3.445,20.288 3.429,19.460 3.420 C 18.888 3.414,18.357 3.416,18.280 3.427 " fill="#292D32" stroke="none" fill-rule="evenodd"></path></svg>