<svg width="24" height="24" viewBox="0 0 24 24" fill="none" xmlns="http://www.w3.org/2000/svg"><path d="M2.940 1.037 C 2.597 1.122,2.267 1.406,2.105 1.755 C 2.027 1.925,2.019 2.019,2.007 2.917 C 1.996 3.833,2.000 3.912,2.082 4.167 C 2.130 4.317,2.227 4.529,2.296 4.640 C 2.366 4.750,2.980 5.436,3.661 6.164 C 4.343 6.892,4.964 7.592,5.043 7.719 C 5.121 7.847,5.229 8.075,5.282 8.226 C 5.377 8.497,5.378 8.520,5.399 10.480 C 5.420 12.444,5.421 12.461,5.512 12.647 C 5.694 13.017,6.115 13.305,6.536 13.348 C 6.859 13.381,7.124 13.282,7.683 12.919 C 8.289 12.524,8.441 12.381,8.587 12.065 L 8.700 11.820 8.721 10.140 C 8.741 8.541,8.746 8.449,8.829 8.227 C 8.926 7.967,9.069 7.713,9.208 7.555 C 9.259 7.497,9.930 6.883,10.700 6.190 C 12.192 4.847,12.255 4.776,12.475 4.210 C 12.578 3.944,12.580 3.924,12.580 2.940 L 12.580 1.940 12.469 1.714 C 12.341 1.453,12.110 1.228,11.845 1.105 L 11.660 1.020 7.360 1.014 C 4.995 1.010,3.006 1.021,2.940 1.037 M14.368 2.065 C 14.148 2.177,14.120 2.279,14.120 2.989 C 14.120 3.337,14.101 3.775,14.078 3.961 C 13.994 4.636,13.642 5.438,13.223 5.908 C 13.111 6.033,12.417 6.675,11.680 7.334 C 10.943 7.993,10.322 8.561,10.300 8.596 C 10.276 8.634,10.251 9.320,10.236 10.300 C 10.210 12.155,10.200 12.219,9.868 12.859 C 9.614 13.347,9.269 13.683,8.553 14.143 C 8.225 14.354,7.856 14.570,7.734 14.624 C 7.011 14.944,6.132 14.909,5.362 14.531 C 4.764 14.237,4.166 13.509,4.044 12.928 C 4.017 12.798,4.000 12.214,4.000 11.416 C 4.000 10.365,3.989 10.095,3.943 10.008 C 3.911 9.949,3.625 9.641,3.307 9.325 C 2.739 8.760,2.724 8.749,2.528 8.730 C 2.344 8.712,2.318 8.721,2.174 8.852 L 2.020 8.994 2.020 13.307 C 2.020 17.363,2.024 17.640,2.094 17.958 C 2.322 18.996,2.759 19.806,3.476 20.524 C 4.194 21.241,5.004 21.678,6.042 21.906 C 6.363 21.976,6.671 21.980,12.000 21.980 C 17.286 21.980,17.640 21.976,17.951 21.907 C 18.993 21.678,19.807 21.240,20.524 20.524 C 21.240 19.807,21.678 18.993,21.907 17.951 C 21.976 17.640,21.980 17.286,21.980 12.000 C 21.980 6.671,21.976 6.363,21.906 6.042 C 21.678 5.004,21.241 4.194,20.524 3.476 C 19.823 2.776,19.057 2.355,18.040 2.111 C 17.735 2.038,17.536 2.028,16.100 2.014 C 14.661 1.999,14.487 2.004,14.368 2.065 M18.300 12.316 C 18.494 12.405,18.616 12.532,18.698 12.729 C 18.849 13.090,18.672 13.516,18.302 13.685 C 18.150 13.754,17.975 13.758,15.509 13.759 C 13.223 13.760,12.858 13.752,12.729 13.698 C 12.101 13.436,12.084 12.600,12.700 12.316 C 12.850 12.246,13.018 12.242,15.500 12.242 C 17.982 12.242,18.150 12.246,18.300 12.316 M18.300 16.316 C 18.494 16.405,18.616 16.532,18.698 16.729 C 18.849 17.090,18.672 17.516,18.302 17.685 C 18.149 17.754,17.945 17.758,14.509 17.759 C 11.320 17.760,10.859 17.752,10.729 17.698 C 10.101 17.436,10.084 16.600,10.700 16.316 C 10.852 16.246,11.046 16.242,14.500 16.242 C 17.954 16.242,18.148 16.246,18.300 16.316 " fill="#292D32" stroke="none" fill-rule="evenodd"></path></svg>