<svg width="24" height="24" viewBox="0 0 24 24" fill="none" xmlns="http://www.w3.org/2000/svg"><path d="M7.308 2.046 C 6.006 2.182,4.743 2.787,3.919 3.669 C 3.276 4.358,2.892 5.117,2.629 6.220 C 2.544 6.577,2.543 6.627,2.529 11.740 C 2.519 15.480,2.528 17.005,2.561 17.280 C 2.822 19.421,4.125 21.047,6.080 21.672 C 6.965 21.954,7.571 22.009,9.620 21.992 C 11.249 21.979,11.253 21.978,11.405 21.731 C 11.475 21.618,11.491 21.519,11.502 21.123 C 11.522 20.359,11.703 19.753,12.071 19.215 C 12.242 18.964,12.620 18.561,12.785 18.453 C 12.960 18.338,13.027 18.140,13.052 17.660 C 13.164 15.549,14.830 13.801,17.039 13.478 C 17.545 13.404,18.408 13.448,18.888 13.573 C 19.544 13.744,20.113 14.044,20.674 14.514 C 20.888 14.694,20.999 14.760,21.086 14.760 C 21.230 14.760,21.421 14.666,21.455 14.578 C 21.469 14.543,21.480 13.709,21.479 12.727 C 21.478 11.085,21.472 10.927,21.405 10.780 C 21.327 10.607,21.062 10.345,20.888 10.269 C 20.812 10.235,20.219 10.214,18.900 10.198 C 16.855 10.173,16.788 10.166,16.123 9.923 C 14.907 9.480,13.924 8.464,13.527 7.240 C 13.351 6.696,13.348 6.668,13.324 4.680 C 13.301 2.795,13.298 2.735,13.214 2.579 C 13.105 2.375,12.945 2.215,12.741 2.106 C 12.582 2.021,12.556 2.020,10.120 2.015 C 8.767 2.012,7.502 2.026,7.308 2.046 M14.955 2.138 C 14.669 2.332,14.675 2.277,14.688 4.570 L 14.700 6.620 14.812 6.952 C 15.038 7.620,15.562 8.203,16.225 8.525 C 16.789 8.798,16.895 8.809,19.060 8.815 C 20.935 8.820,20.984 8.818,21.140 8.736 C 21.439 8.580,21.571 8.167,21.406 7.900 C 21.299 7.727,15.770 2.167,15.636 2.098 C 15.454 2.004,15.123 2.023,14.955 2.138 M17.200 14.985 C 16.435 15.133,15.723 15.515,15.273 16.020 C 15.030 16.293,14.804 16.680,14.691 17.017 C 14.592 17.312,14.583 17.394,14.582 17.960 C 14.581 18.447,14.597 18.636,14.655 18.840 C 14.786 19.299,14.800 19.257,14.500 19.308 C 13.939 19.404,13.465 19.756,13.216 20.260 C 12.768 21.167,13.064 22.247,13.895 22.738 C 14.347 23.005,14.347 23.005,17.760 22.992 L 20.820 22.980 21.140 22.871 C 22.954 22.254,23.559 20.202,22.384 18.651 C 22.052 18.213,21.425 17.829,20.900 17.742 L 20.740 17.716 20.652 17.348 C 20.386 16.243,19.653 15.417,18.647 15.090 C 18.397 15.008,18.243 14.988,17.820 14.978 C 17.534 14.971,17.255 14.975,17.200 14.985 " fill="#292D32" stroke="none" fill-rule="evenodd"></path></svg>