<svg width="24" height="24" viewBox="0 0 24 24" fill="none" xmlns="http://www.w3.org/2000/svg"><path d="M7.320 2.044 C 5.952 2.204,4.780 2.760,3.933 3.652 C 3.101 4.528,2.636 5.649,2.522 7.057 C 2.465 7.750,2.465 16.250,2.522 16.943 C 2.713 19.303,3.964 20.976,6.060 21.677 C 7.014 21.995,6.718 21.980,12.000 21.980 C 17.282 21.980,16.986 21.995,17.940 21.677 C 20.036 20.976,21.287 19.303,21.478 16.943 C 21.543 16.140,21.534 11.230,21.466 10.970 C 21.395 10.697,21.269 10.520,21.028 10.355 L 20.829 10.220 18.925 10.196 C 17.361 10.176,16.970 10.160,16.741 10.106 C 15.817 9.889,15.141 9.506,14.504 8.839 C 13.986 8.297,13.645 7.691,13.449 6.965 C 13.346 6.582,13.345 6.568,13.322 4.660 C 13.301 2.794,13.298 2.735,13.214 2.579 C 13.105 2.375,12.945 2.215,12.741 2.106 C 12.582 2.021,12.556 2.020,10.100 2.015 C 8.736 2.012,7.485 2.025,7.320 2.044 M14.999 2.113 C 14.913 2.158,14.826 2.252,14.770 2.361 C 14.680 2.536,14.680 2.544,14.681 4.458 C 14.681 6.570,14.694 6.709,14.920 7.192 C 15.259 7.917,15.814 8.412,16.580 8.671 L 16.900 8.780 19.000 8.780 C 21.037 8.780,21.103 8.778,21.209 8.700 C 21.340 8.605,21.480 8.338,21.480 8.186 C 21.480 8.126,21.455 8.020,21.425 7.949 C 21.362 7.800,15.809 2.187,15.636 2.098 C 15.481 2.018,15.167 2.025,14.999 2.113 M9.360 10.342 C 9.415 10.370,9.957 10.895,10.565 11.507 C 11.607 12.556,11.673 12.631,11.711 12.811 C 11.834 13.398,11.358 13.870,10.796 13.719 C 10.655 13.681,10.536 13.589,10.191 13.249 L 9.763 12.827 9.751 15.004 C 9.740 17.122,9.738 17.184,9.656 17.340 C 9.610 17.428,9.497 17.554,9.404 17.619 C 9.263 17.719,9.196 17.739,9.000 17.739 C 8.804 17.739,8.737 17.719,8.596 17.619 C 8.503 17.554,8.390 17.428,8.344 17.340 C 8.262 17.184,8.260 17.122,8.249 15.004 L 8.237 12.827 7.809 13.249 C 7.464 13.589,7.345 13.681,7.204 13.719 C 6.642 13.870,6.166 13.398,6.289 12.811 C 6.327 12.631,6.392 12.556,7.395 11.547 C 7.981 10.957,8.512 10.436,8.575 10.391 C 8.786 10.238,9.121 10.217,9.360 10.342 " fill="#292D32" stroke="none" fill-rule="evenodd"></path></svg>