<svg width="24" height="24" viewBox="0 0 24 24" fill="none" xmlns="http://www.w3.org/2000/svg"><path d="M7.320 2.044 C 5.952 2.204,4.780 2.760,3.933 3.652 C 3.101 4.528,2.636 5.649,2.522 7.057 C 2.465 7.750,2.465 16.250,2.522 16.943 C 2.713 19.303,3.964 20.976,6.060 21.677 C 7.014 21.995,6.718 21.980,12.000 21.980 C 17.282 21.980,16.986 21.995,17.940 21.677 C 20.036 20.976,21.287 19.303,21.478 16.943 C 21.543 16.140,21.534 11.230,21.466 10.970 C 21.395 10.697,21.269 10.520,21.028 10.355 L 20.829 10.220 18.925 10.196 C 17.361 10.176,16.970 10.160,16.741 10.106 C 15.817 9.889,15.141 9.506,14.504 8.839 C 13.986 8.297,13.645 7.691,13.449 6.965 C 13.346 6.582,13.345 6.568,13.322 4.660 C 13.301 2.794,13.298 2.735,13.214 2.579 C 13.105 2.375,12.945 2.215,12.741 2.106 C 12.582 2.021,12.556 2.020,10.100 2.015 C 8.736 2.012,7.485 2.025,7.320 2.044 M14.999 2.113 C 14.913 2.158,14.826 2.252,14.770 2.361 C 14.680 2.536,14.680 2.544,14.681 4.458 C 14.681 6.570,14.694 6.709,14.920 7.192 C 15.259 7.917,15.814 8.412,16.580 8.671 L 16.900 8.780 19.000 8.780 C 21.037 8.780,21.103 8.778,21.209 8.700 C 21.340 8.605,21.480 8.338,21.480 8.186 C 21.480 8.126,21.455 8.020,21.425 7.949 C 21.362 7.800,15.809 2.187,15.636 2.098 C 15.481 2.018,15.167 2.025,14.999 2.113 M9.047 12.757 C 9.171 12.805,9.318 12.878,9.372 12.921 C 9.470 12.998,9.470 12.998,9.702 12.872 C 10.273 12.563,10.885 12.569,11.497 12.890 C 12.153 13.235,12.600 14.050,12.600 14.900 C 12.600 16.078,11.701 17.348,10.420 17.978 C 9.923 18.222,9.583 18.304,9.299 18.247 C 8.538 18.094,7.554 17.413,7.028 16.674 C 6.781 16.327,6.530 15.788,6.458 15.449 C 6.192 14.191,6.859 12.978,7.973 12.694 C 8.260 12.621,8.765 12.651,9.047 12.757 " fill="#292D32" stroke="none" fill-rule="evenodd"></path></svg>