<svg width="24" height="24" viewBox="0 0 24 24" fill="none" xmlns="http://www.w3.org/2000/svg"><path d="M7.360 2.026 C 5.944 2.172,5.078 2.526,4.312 3.271 C 3.668 3.897,3.304 4.643,3.088 5.780 C 3.026 6.109,3.020 6.641,3.020 12.000 C 3.020 17.359,3.026 17.891,3.088 18.220 C 3.309 19.384,3.671 20.111,4.358 20.774 C 5.034 21.425,5.864 21.788,7.032 21.941 C 7.702 22.029,16.298 22.029,16.968 21.941 C 18.098 21.792,18.954 21.429,19.588 20.828 C 20.312 20.141,20.687 19.402,20.912 18.220 C 20.974 17.891,20.980 17.359,20.980 12.000 C 20.980 5.566,20.993 5.935,20.740 5.064 C 20.332 3.658,19.343 2.668,17.937 2.260 C 17.092 2.015,17.295 2.024,12.180 2.017 C 9.606 2.014,7.437 2.018,7.360 2.026 M14.790 3.822 C 14.970 3.897,15.068 3.982,15.154 4.140 C 15.210 4.242,15.223 4.451,15.240 5.520 C 15.260 6.773,15.261 6.781,15.364 7.000 C 15.514 7.319,15.651 7.461,15.951 7.609 L 16.218 7.740 17.479 7.760 C 18.549 7.777,18.758 7.790,18.860 7.846 C 19.187 8.026,19.326 8.437,19.178 8.790 C 19.096 8.988,19.010 9.077,18.820 9.165 C 18.676 9.231,18.537 9.238,17.396 9.239 C 16.268 9.240,16.100 9.232,15.824 9.161 C 15.023 8.956,14.365 8.407,14.011 7.647 C 13.785 7.162,13.761 6.965,13.761 5.589 C 13.760 4.294,13.773 4.187,13.952 3.986 C 14.131 3.783,14.517 3.708,14.790 3.822 M12.189 12.286 C 12.577 12.384,12.814 12.790,12.714 13.186 C 12.656 13.416,12.428 13.657,12.213 13.717 C 12.114 13.744,11.328 13.760,10.000 13.760 C 8.672 13.760,7.886 13.744,7.787 13.717 C 7.572 13.657,7.344 13.416,7.286 13.186 C 7.190 12.806,7.425 12.385,7.785 12.289 C 8.013 12.229,11.950 12.226,12.189 12.286 M16.189 16.286 C 16.577 16.384,16.814 16.790,16.714 17.186 C 16.656 17.416,16.428 17.657,16.213 17.717 C 16.000 17.776,8.000 17.776,7.787 17.717 C 7.572 17.657,7.344 17.416,7.286 17.186 C 7.190 16.806,7.425 16.385,7.785 16.289 C 8.017 16.228,15.946 16.225,16.189 16.286 " fill="#292D32" stroke="none" fill-rule="evenodd"></path></svg>