<svg width="24" height="24" viewBox="0 0 24 24" fill="none" xmlns="http://www.w3.org/2000/svg"><path d="M9.213 2.057 C 8.889 2.136,8.561 2.321,8.321 2.561 C 7.880 3.003,7.761 3.374,7.761 4.325 C 7.760 4.668,7.778 5.046,7.801 5.164 C 7.927 5.828,8.439 6.404,9.084 6.604 C 9.312 6.675,9.489 6.680,12.000 6.680 C 14.511 6.680,14.688 6.675,14.916 6.604 C 15.612 6.388,16.104 5.789,16.206 5.033 C 16.273 4.536,16.228 3.561,16.126 3.270 C 15.904 2.643,15.377 2.181,14.728 2.045 C 14.413 1.978,9.492 1.989,9.213 2.057 M5.753 4.136 C 5.505 4.225,4.941 4.626,4.625 4.939 C 3.927 5.630,3.486 6.499,3.340 7.468 C 3.252 8.052,3.252 17.588,3.340 18.172 C 3.631 20.104,5.134 21.627,7.060 21.941 C 7.608 22.030,16.424 22.028,16.945 21.939 C 18.944 21.595,20.452 20.012,20.679 18.016 C 20.711 17.736,20.720 16.142,20.710 12.560 C 20.696 7.567,20.695 7.495,20.611 7.157 C 20.307 5.924,19.589 4.924,18.562 4.304 C 18.161 4.061,17.959 4.032,17.671 4.174 C 17.359 4.328,17.277 4.475,17.234 4.951 C 17.117 6.266,16.323 7.253,15.098 7.608 L 14.780 7.700 12.000 7.700 L 9.220 7.700 8.902 7.608 C 8.050 7.361,7.408 6.814,7.039 6.020 C 6.868 5.651,6.814 5.451,6.780 5.060 C 6.740 4.591,6.721 4.524,6.588 4.373 C 6.360 4.112,6.059 4.027,5.753 4.136 " fill="#292D32" stroke="none" fill-rule="evenodd"></path></svg>