<svg width="24" height="24" viewBox="0 0 24 24" fill="none" xmlns="http://www.w3.org/2000/svg"><path d="M7.360 2.026 C 5.944 2.172,5.078 2.526,4.312 3.271 C 3.668 3.897,3.304 4.643,3.088 5.780 C 3.026 6.109,3.020 6.641,3.020 12.000 C 3.020 17.359,3.026 17.891,3.088 18.220 C 3.309 19.384,3.671 20.111,4.358 20.774 C 5.034 21.425,5.864 21.788,7.032 21.941 C 7.702 22.029,16.298 22.029,16.968 21.941 C 18.098 21.792,18.954 21.429,19.588 20.828 C 20.312 20.141,20.687 19.402,20.912 18.220 C 20.974 17.891,20.980 17.359,20.980 12.000 C 20.980 5.566,20.993 5.935,20.740 5.064 C 20.332 3.658,19.343 2.668,17.937 2.260 C 17.092 2.015,17.295 2.024,12.180 2.017 C 9.606 2.014,7.437 2.018,7.360 2.026 M14.790 3.822 C 14.970 3.897,15.068 3.982,15.154 4.140 C 15.210 4.242,15.223 4.451,15.240 5.520 C 15.260 6.773,15.261 6.781,15.364 7.000 C 15.514 7.319,15.651 7.461,15.951 7.609 L 16.218 7.740 17.479 7.760 C 18.549 7.777,18.758 7.790,18.860 7.846 C 19.187 8.026,19.326 8.437,19.178 8.790 C 19.096 8.988,19.010 9.077,18.820 9.165 C 18.676 9.231,18.537 9.238,17.396 9.239 C 16.268 9.240,16.100 9.232,15.824 9.161 C 15.023 8.956,14.365 8.407,14.011 7.647 C 13.785 7.162,13.761 6.965,13.761 5.589 C 13.760 4.294,13.773 4.187,13.952 3.986 C 14.131 3.783,14.517 3.708,14.790 3.822 M9.598 12.859 C 9.795 12.929,10.092 13.128,10.188 13.256 L 10.258 13.348 10.420 13.182 C 11.144 12.437,12.471 12.746,12.955 13.772 C 13.237 14.372,13.232 15.163,12.942 15.819 C 12.554 16.697,11.597 17.558,10.644 17.886 C 10.370 17.980,10.189 17.980,9.915 17.885 C 8.984 17.565,8.079 16.768,7.661 15.900 C 7.436 15.433,7.380 15.189,7.386 14.700 C 7.391 14.266,7.476 13.938,7.669 13.608 C 7.893 13.226,8.355 12.888,8.773 12.800 C 8.983 12.755,9.385 12.784,9.598 12.859 " fill="#292D32" stroke="none" fill-rule="evenodd"></path></svg>