<svg width="24" height="24" viewBox="0 0 24 24" fill="none" xmlns="http://www.w3.org/2000/svg"><path d="M7.308 2.046 C 6.873 2.092,6.163 2.268,5.740 2.437 C 4.311 3.004,3.225 4.182,2.785 5.644 C 2.525 6.508,2.540 6.119,2.540 12.000 C 2.540 17.881,2.525 17.492,2.785 18.356 C 3.390 20.366,5.132 21.731,7.377 21.956 C 7.977 22.016,16.023 22.016,16.623 21.956 C 18.302 21.788,19.735 20.971,20.581 19.701 C 20.942 19.158,21.190 18.555,21.369 17.788 C 21.452 17.431,21.455 17.324,21.469 14.201 C 21.482 11.322,21.477 10.964,21.420 10.814 C 21.352 10.636,21.073 10.350,20.890 10.270 C 20.812 10.236,20.226 10.215,18.880 10.198 C 16.997 10.174,16.977 10.173,16.593 10.070 C 15.790 9.854,15.221 9.536,14.641 8.977 C 14.137 8.491,13.812 8.001,13.573 7.366 C 13.350 6.773,13.349 6.758,13.323 4.680 C 13.301 2.795,13.298 2.735,13.214 2.579 C 13.105 2.375,12.945 2.215,12.741 2.106 C 12.582 2.021,12.556 2.020,10.120 2.015 C 8.767 2.012,7.502 2.026,7.308 2.046 M14.955 2.138 C 14.669 2.332,14.675 2.277,14.688 4.570 L 14.700 6.620 14.812 6.952 C 15.038 7.620,15.562 8.203,16.225 8.525 C 16.789 8.798,16.895 8.809,19.060 8.815 C 20.935 8.820,20.984 8.818,21.140 8.736 C 21.439 8.580,21.571 8.167,21.406 7.900 C 21.299 7.727,15.770 2.167,15.636 2.098 C 15.454 2.004,15.123 2.023,14.955 2.138 M9.474 12.428 C 9.626 12.544,9.758 12.800,9.759 12.980 C 9.760 13.261,9.682 13.397,9.274 13.820 L 8.873 14.237 11.027 14.248 L 13.180 14.260 13.349 14.357 C 13.900 14.672,13.873 15.426,13.302 15.685 C 13.151 15.753,12.989 15.758,10.982 15.759 L 8.825 15.760 9.248 16.190 C 9.749 16.699,9.818 16.849,9.718 17.209 C 9.635 17.510,9.310 17.758,9.000 17.758 C 8.719 17.758,8.567 17.636,7.434 16.494 C 5.860 14.910,5.865 15.108,7.360 13.588 C 7.930 13.008,8.470 12.482,8.560 12.420 C 8.848 12.220,9.206 12.223,9.474 12.428 " fill="#292D32" stroke="none" fill-rule="evenodd"></path></svg>