<svg width="24" height="24" viewBox="0 0 24 24" fill="none" xmlns="http://www.w3.org/2000/svg"><path d="M7.360 2.026 C 5.944 2.172,5.078 2.526,4.312 3.271 C 3.668 3.897,3.304 4.643,3.088 5.780 C 3.026 6.109,3.020 6.641,3.020 12.000 C 3.020 17.359,3.026 17.891,3.088 18.220 C 3.309 19.384,3.671 20.111,4.358 20.774 C 5.034 21.425,5.864 21.788,7.032 21.941 C 7.702 22.029,16.298 22.029,16.968 21.941 C 18.098 21.792,18.954 21.429,19.588 20.828 C 20.312 20.141,20.687 19.402,20.912 18.220 C 20.974 17.891,20.980 17.359,20.980 12.000 C 20.980 5.566,20.993 5.935,20.740 5.064 C 20.332 3.658,19.343 2.668,17.937 2.260 C 17.092 2.015,17.295 2.024,12.180 2.017 C 9.606 2.014,7.437 2.018,7.360 2.026 M14.790 3.822 C 14.970 3.897,15.068 3.982,15.154 4.140 C 15.210 4.242,15.223 4.451,15.240 5.520 C 15.260 6.773,15.261 6.781,15.364 7.000 C 15.514 7.319,15.651 7.461,15.951 7.609 L 16.218 7.740 17.479 7.760 C 18.549 7.777,18.758 7.790,18.860 7.846 C 19.187 8.026,19.326 8.437,19.178 8.790 C 19.096 8.988,19.010 9.077,18.820 9.165 C 18.676 9.231,18.537 9.238,17.396 9.239 C 16.268 9.240,16.100 9.232,15.824 9.161 C 15.023 8.956,14.365 8.407,14.011 7.647 C 13.785 7.162,13.761 6.965,13.761 5.589 C 13.760 4.294,13.773 4.187,13.952 3.986 C 14.131 3.783,14.517 3.708,14.790 3.822 M10.352 12.351 C 10.633 12.479,10.785 12.835,10.711 13.189 C 10.673 13.366,10.611 13.439,9.867 14.190 L 9.064 15.000 9.867 15.810 C 10.609 16.559,10.673 16.634,10.710 16.810 C 10.848 17.464,10.219 17.964,9.641 17.660 C 9.586 17.630,9.043 17.105,8.435 16.493 C 7.396 15.447,7.327 15.369,7.289 15.190 C 7.263 15.065,7.263 14.935,7.289 14.810 C 7.326 14.631,7.392 14.556,8.474 13.473 C 9.533 12.414,9.634 12.324,9.800 12.289 C 10.006 12.246,10.163 12.264,10.352 12.351 M14.343 12.346 C 14.410 12.377,14.962 12.901,15.568 13.511 C 16.605 14.553,16.673 14.631,16.711 14.810 C 16.737 14.936,16.737 15.064,16.711 15.190 C 16.673 15.369,16.604 15.447,15.565 16.493 C 14.957 17.105,14.414 17.630,14.359 17.660 C 13.781 17.964,13.152 17.464,13.290 16.810 C 13.327 16.634,13.391 16.559,14.133 15.810 L 14.936 15.000 14.133 14.190 C 13.391 13.441,13.327 13.366,13.290 13.190 C 13.153 12.541,13.740 12.071,14.343 12.346 " fill="#292D32" stroke="none" fill-rule="evenodd"></path></svg>