<svg width="24" height="24" viewBox="0 0 24 24" fill="none" xmlns="http://www.w3.org/2000/svg"><path d="M11.160 2.066 C 9.445 2.327,8.203 3.494,7.867 5.160 C 7.833 5.325,7.794 5.581,7.779 5.728 L 7.751 5.997 11.166 6.009 L 14.580 6.022 14.963 6.127 C 15.174 6.185,15.484 6.289,15.652 6.359 C 16.915 6.885,17.752 8.025,17.957 9.499 C 17.985 9.698,18.000 11.070,18.000 13.399 L 18.000 16.992 18.170 16.975 C 18.616 16.929,18.968 16.863,19.260 16.771 C 20.812 16.283,21.789 15.053,21.962 13.370 C 21.992 13.077,22.001 11.749,21.990 9.200 C 21.972 5.153,21.982 5.340,21.754 4.640 C 21.285 3.202,20.048 2.244,18.401 2.042 C 18.189 2.016,16.838 2.001,14.801 2.004 C 12.172 2.007,11.466 2.019,11.160 2.066 M5.420 7.063 C 4.936 7.138,4.572 7.252,4.140 7.462 C 2.991 8.022,2.239 9.112,2.041 10.500 C 1.988 10.876,1.988 18.124,2.041 18.500 C 2.189 19.535,2.662 20.444,3.359 21.031 C 3.725 21.339,4.163 21.585,4.634 21.745 C 5.370 21.996,5.425 22.000,9.107 22.000 C 12.600 22.000,12.775 21.993,13.396 21.817 C 14.690 21.450,15.620 20.556,16.034 19.280 C 16.226 18.688,16.240 18.462,16.240 16.013 C 16.240 13.558,16.244 13.612,16.045 13.386 C 15.870 13.187,15.832 13.181,14.280 13.156 C 12.614 13.129,12.569 13.122,11.883 12.792 C 11.511 12.613,11.425 12.551,11.083 12.206 C 10.688 11.808,10.504 11.541,10.333 11.119 C 10.144 10.651,10.122 10.432,10.120 9.060 C 10.119 8.329,10.100 7.703,10.077 7.601 C 10.022 7.365,9.868 7.169,9.665 7.077 C 9.511 7.007,9.375 7.002,7.640 7.005 C 6.264 7.007,5.686 7.022,5.420 7.063 M11.408 7.067 C 11.161 7.189,11.160 7.196,11.160 8.894 C 11.160 10.313,11.166 10.451,11.239 10.686 C 11.432 11.308,11.965 11.814,12.640 12.019 C 12.932 12.108,15.654 12.161,15.890 12.083 C 16.099 12.014,16.240 11.833,16.240 11.634 C 16.240 11.479,16.209 11.441,15.363 10.567 C 13.862 9.014,11.905 7.086,11.787 7.042 C 11.636 6.985,11.564 6.990,11.408 7.067 " fill="#292D32" stroke="none" fill-rule="evenodd"></path></svg>