<svg width="24" height="24" viewBox="0 0 24 24" fill="none" xmlns="http://www.w3.org/2000/svg"><path d="M6.960 2.046 C 6.236 2.116,5.358 2.357,4.796 2.641 C 4.426 2.828,3.928 3.183,3.624 3.475 C 2.737 4.332,2.251 5.370,2.062 6.812 C 1.970 7.515,1.969 16.481,2.061 17.188 C 2.239 18.550,2.681 19.544,3.476 20.372 C 4.162 21.084,4.935 21.524,5.956 21.780 C 6.817 21.997,6.896 22.000,11.993 22.000 C 14.960 22.000,16.828 21.985,17.041 21.959 C 19.985 21.603,21.695 19.840,21.962 16.885 C 21.990 16.579,21.999 14.787,21.989 11.660 C 21.974 7.001,21.972 6.891,21.889 6.456 C 21.642 5.171,21.165 4.235,20.369 3.478 C 19.583 2.729,18.652 2.295,17.359 2.076 C 16.995 2.014,7.572 1.987,6.960 2.046 M16.120 8.366 C 16.630 8.665,16.603 9.392,16.073 9.656 L 15.864 9.760 12.018 9.760 C 9.205 9.760,8.135 9.748,8.036 9.714 C 7.714 9.604,7.521 9.338,7.520 9.005 C 7.520 8.643,7.741 8.363,8.094 8.278 C 8.163 8.261,9.957 8.250,12.080 8.254 L 15.940 8.260 16.120 8.366 M16.120 14.366 C 16.630 14.665,16.603 15.392,16.073 15.656 L 15.864 15.760 12.018 15.760 C 9.205 15.760,8.135 15.748,8.036 15.714 C 7.714 15.604,7.521 15.338,7.520 15.005 C 7.520 14.643,7.741 14.363,8.094 14.278 C 8.163 14.261,9.957 14.250,12.080 14.254 L 15.940 14.260 16.120 14.366 " fill="#292D32" stroke="none" fill-rule="evenodd"></path></svg>