<svg width="24" height="24" viewBox="0 0 24 24" fill="none" xmlns="http://www.w3.org/2000/svg"><path d="M7.320 2.044 C 5.952 2.204,4.780 2.760,3.933 3.652 C 3.101 4.528,2.636 5.649,2.522 7.057 C 2.465 7.750,2.465 16.250,2.522 16.943 C 2.713 19.303,3.964 20.976,6.060 21.677 C 7.014 21.995,6.718 21.980,12.000 21.980 C 17.282 21.980,16.986 21.995,17.940 21.677 C 20.036 20.976,21.287 19.303,21.478 16.943 C 21.543 16.140,21.534 11.230,21.466 10.970 C 21.395 10.697,21.269 10.520,21.028 10.355 L 20.829 10.220 18.925 10.196 C 17.361 10.176,16.970 10.160,16.741 10.106 C 15.817 9.889,15.141 9.506,14.504 8.839 C 13.986 8.297,13.645 7.691,13.449 6.965 C 13.346 6.582,13.345 6.568,13.322 4.660 C 13.301 2.794,13.298 2.735,13.214 2.579 C 13.105 2.375,12.945 2.215,12.741 2.106 C 12.582 2.021,12.556 2.020,10.100 2.015 C 8.736 2.012,7.485 2.025,7.320 2.044 M14.999 2.113 C 14.913 2.158,14.826 2.252,14.770 2.361 C 14.680 2.536,14.680 2.544,14.681 4.458 C 14.681 6.570,14.694 6.709,14.920 7.192 C 15.259 7.917,15.814 8.412,16.580 8.671 L 16.900 8.780 19.000 8.780 C 21.037 8.780,21.103 8.778,21.209 8.700 C 21.340 8.605,21.480 8.338,21.480 8.186 C 21.480 8.126,21.455 8.020,21.425 7.949 C 21.362 7.800,15.809 2.187,15.636 2.098 C 15.481 2.018,15.167 2.025,14.999 2.113 M10.051 10.575 C 10.207 10.642,10.380 10.819,10.437 10.973 C 10.466 11.047,10.480 11.816,10.480 13.243 C 10.480 14.429,10.494 15.400,10.511 15.400 C 10.528 15.400,10.703 15.237,10.901 15.037 C 11.309 14.624,11.478 14.520,11.740 14.520 C 12.055 14.520,12.335 14.701,12.437 14.973 C 12.504 15.148,12.488 15.428,12.403 15.592 C 12.289 15.810,10.215 17.863,10.031 17.939 C 9.835 18.020,9.656 18.015,9.460 17.924 C 9.356 17.875,8.915 17.461,8.195 16.735 C 7.156 15.688,7.087 15.608,7.049 15.430 C 6.928 14.851,7.372 14.407,7.948 14.530 C 8.111 14.564,8.193 14.626,8.567 14.990 L 8.998 15.411 9.009 13.212 L 9.020 11.014 9.130 10.848 C 9.190 10.757,9.307 10.646,9.390 10.603 C 9.567 10.509,9.868 10.497,10.051 10.575 " fill="#292D32" stroke="none" fill-rule="evenodd"></path></svg>