<svg width="24" height="24" viewBox="0 0 24 24" fill="none" xmlns="http://www.w3.org/2000/svg"><path d="M7.360 2.026 C 5.944 2.172,5.078 2.526,4.312 3.271 C 3.668 3.897,3.304 4.643,3.088 5.780 C 3.028 6.098,3.020 6.465,3.020 8.913 L 3.020 11.686 3.169 11.823 C 3.358 11.996,3.456 11.997,3.956 11.837 C 4.758 11.579,5.013 11.543,6.000 11.543 C 6.779 11.543,6.954 11.555,7.304 11.631 C 8.641 11.923,9.850 12.605,10.740 13.571 C 11.957 14.893,12.543 16.491,12.466 18.280 C 12.424 19.255,12.221 20.028,11.763 20.958 C 11.503 21.486,11.489 21.574,11.631 21.791 C 11.769 22.003,11.738 22.000,14.216 22.000 C 16.018 22.000,16.614 21.987,16.968 21.941 C 18.098 21.792,18.954 21.429,19.588 20.828 C 20.312 20.141,20.687 19.402,20.912 18.220 C 20.974 17.891,20.980 17.359,20.980 12.000 C 20.980 5.566,20.993 5.935,20.740 5.064 C 20.332 3.658,19.343 2.668,17.937 2.260 C 17.092 2.015,17.295 2.024,12.180 2.017 C 9.606 2.014,7.437 2.018,7.360 2.026 M14.790 3.822 C 14.970 3.897,15.068 3.982,15.154 4.140 C 15.210 4.242,15.223 4.451,15.240 5.520 C 15.260 6.773,15.261 6.781,15.364 7.000 C 15.514 7.319,15.651 7.461,15.951 7.609 L 16.218 7.740 17.479 7.760 C 18.549 7.777,18.758 7.790,18.860 7.846 C 19.187 8.026,19.326 8.437,19.178 8.790 C 19.096 8.988,19.010 9.077,18.820 9.165 C 18.676 9.231,18.537 9.238,17.396 9.239 C 16.268 9.240,16.100 9.232,15.824 9.161 C 15.023 8.956,14.365 8.407,14.011 7.647 C 13.785 7.162,13.761 6.965,13.761 5.589 C 13.760 4.294,13.773 4.187,13.952 3.986 C 14.131 3.783,14.517 3.708,14.790 3.822 M5.500 13.025 C 4.351 13.150,3.297 13.655,2.476 14.476 C 1.757 15.196,1.315 16.018,1.097 17.042 C 0.997 17.510,0.997 18.490,1.097 18.958 C 1.315 19.982,1.757 20.804,2.476 21.524 C 3.196 22.243,4.018 22.685,5.042 22.903 C 5.506 23.003,6.490 23.003,6.951 22.905 C 7.979 22.686,8.806 22.242,9.524 21.524 C 10.242 20.806,10.686 19.979,10.905 18.951 C 11.003 18.490,11.003 17.506,10.903 17.042 C 10.685 16.018,10.243 15.196,9.524 14.476 C 8.819 13.772,8.024 13.336,7.040 13.117 C 6.705 13.042,5.826 12.990,5.500 13.025 M5.027 15.713 C 5.171 15.790,5.311 15.990,5.340 16.158 C 5.391 16.460,5.319 16.568,4.587 17.310 L 3.905 18.000 4.588 18.690 C 5.140 19.248,5.281 19.413,5.322 19.550 C 5.460 20.011,5.007 20.478,4.541 20.356 C 4.406 20.321,4.219 20.153,3.373 19.307 C 1.975 17.909,1.977 18.091,3.333 16.727 C 3.865 16.192,4.336 15.734,4.380 15.710 C 4.571 15.605,4.826 15.606,5.027 15.713 M7.621 15.711 C 7.664 15.735,8.126 16.183,8.646 16.707 C 10.010 18.080,10.010 17.920,8.646 19.293 C 8.126 19.817,7.655 20.270,7.599 20.299 C 7.372 20.420,7.078 20.391,6.895 20.231 C 6.648 20.014,6.576 19.725,6.704 19.468 C 6.739 19.398,7.067 19.039,7.433 18.671 L 8.097 18.002 7.414 17.311 C 6.697 16.585,6.606 16.451,6.656 16.187 C 6.743 15.730,7.224 15.493,7.621 15.711 " fill="#292D32" stroke="none" fill-rule="evenodd"></path></svg>