<svg width="24" height="24" viewBox="0 0 24 24" fill="none" xmlns="http://www.w3.org/2000/svg"><path d="M7.308 2.046 C 6.873 2.092,6.163 2.268,5.740 2.437 C 4.311 3.004,3.225 4.182,2.785 5.644 C 2.525 6.508,2.540 6.119,2.540 12.000 C 2.540 17.881,2.525 17.492,2.785 18.356 C 3.390 20.366,5.132 21.731,7.377 21.956 C 7.977 22.016,16.023 22.016,16.623 21.956 C 18.302 21.788,19.735 20.971,20.581 19.701 C 20.942 19.158,21.190 18.555,21.369 17.788 C 21.452 17.431,21.455 17.324,21.469 14.201 C 21.482 11.322,21.477 10.964,21.420 10.814 C 21.352 10.636,21.073 10.350,20.890 10.270 C 20.812 10.236,20.226 10.215,18.880 10.198 C 16.997 10.174,16.977 10.173,16.593 10.070 C 15.790 9.854,15.221 9.536,14.641 8.977 C 14.137 8.491,13.812 8.001,13.573 7.366 C 13.350 6.773,13.349 6.758,13.323 4.680 C 13.301 2.795,13.298 2.735,13.214 2.579 C 13.105 2.375,12.945 2.215,12.741 2.106 C 12.582 2.021,12.556 2.020,10.120 2.015 C 8.767 2.012,7.502 2.026,7.308 2.046 M14.955 2.138 C 14.669 2.332,14.675 2.277,14.688 4.570 L 14.700 6.620 14.812 6.952 C 15.038 7.620,15.562 8.203,16.225 8.525 C 16.789 8.798,16.895 8.809,19.060 8.815 C 20.935 8.820,20.984 8.818,21.140 8.736 C 21.439 8.580,21.571 8.167,21.406 7.900 C 21.299 7.727,15.770 2.167,15.636 2.098 C 15.454 2.004,15.123 2.023,14.955 2.138 M13.780 12.316 C 14.075 12.453,14.240 12.697,14.240 13.000 C 14.240 13.303,14.075 13.547,13.780 13.684 C 13.629 13.754,13.453 13.758,10.500 13.758 C 7.547 13.758,7.371 13.754,7.220 13.684 C 6.925 13.547,6.760 13.303,6.760 13.000 C 6.760 12.697,6.925 12.453,7.220 12.316 C 7.371 12.246,7.547 12.242,10.500 12.242 C 13.453 12.242,13.629 12.246,13.780 12.316 M11.780 16.316 C 12.399 16.602,12.399 17.398,11.780 17.684 C 11.631 17.753,11.479 17.758,9.500 17.758 C 7.521 17.758,7.369 17.753,7.220 17.684 C 6.925 17.547,6.760 17.303,6.760 17.000 C 6.760 16.697,6.925 16.453,7.220 16.316 C 7.369 16.247,7.521 16.242,9.500 16.242 C 11.479 16.242,11.631 16.247,11.780 16.316 " fill="#292D32" stroke="none" fill-rule="evenodd"></path></svg>