<svg width="24" height="24" viewBox="0 0 24 24" fill="none" xmlns="http://www.w3.org/2000/svg"><path d="M6.991 2.044 C 6.252 2.117,5.350 2.362,4.800 2.640 C 4.372 2.856,3.859 3.234,3.515 3.586 C 2.777 4.344,2.333 5.262,2.108 6.497 C 2.020 6.978,2.020 7.001,2.020 12.000 C 2.020 16.999,2.020 17.022,2.108 17.503 C 2.333 18.738,2.776 19.656,3.515 20.414 C 4.265 21.183,5.229 21.661,6.497 21.892 C 6.978 21.980,7.001 21.980,12.000 21.980 C 16.999 21.980,17.022 21.980,17.503 21.892 C 18.767 21.662,19.738 21.181,20.485 20.414 C 21.221 19.658,21.668 18.734,21.892 17.503 C 21.980 17.022,21.980 16.999,21.980 12.000 C 21.980 7.001,21.980 6.978,21.892 6.497 C 21.667 5.262,21.224 4.344,20.485 3.586 C 19.747 2.829,18.795 2.351,17.544 2.111 C 17.107 2.027,17.018 2.026,12.220 2.017 C 9.536 2.013,7.183 2.025,6.991 2.044 M12.271 5.302 C 12.621 5.448,12.758 5.701,12.759 6.202 L 12.760 6.544 13.250 6.590 C 13.828 6.644,14.240 6.770,14.609 7.008 C 15.466 7.560,15.994 8.435,16.067 9.429 C 16.096 9.812,16.032 10.037,15.842 10.218 C 15.730 10.326,15.371 10.453,15.268 10.421 C 15.242 10.413,15.171 10.396,15.111 10.383 C 14.978 10.354,14.737 10.148,14.659 9.998 C 14.627 9.937,14.584 9.732,14.563 9.543 C 14.541 9.354,14.488 9.118,14.444 9.019 C 14.178 8.418,13.663 8.080,13.013 8.080 L 12.760 8.080 12.760 9.774 L 12.760 11.469 13.590 11.760 C 14.354 12.028,14.844 12.236,15.056 12.382 C 15.297 12.548,15.647 12.954,15.777 13.217 C 16.005 13.679,16.058 13.940,16.057 14.600 C 16.056 15.120,16.045 15.213,15.949 15.500 C 15.798 15.953,15.587 16.292,15.236 16.646 C 14.987 16.897,14.866 16.984,14.556 17.132 C 14.081 17.359,13.914 17.397,13.276 17.428 L 12.760 17.452 12.760 17.756 C 12.760 18.128,12.710 18.318,12.570 18.484 C 12.354 18.741,11.999 18.822,11.700 18.684 C 11.367 18.531,11.240 18.283,11.240 17.789 L 11.240 17.456 10.750 17.410 C 10.172 17.356,9.760 17.230,9.391 16.992 C 8.531 16.438,8.007 15.568,7.933 14.571 C 7.904 14.188,7.968 13.963,8.158 13.782 C 8.270 13.674,8.629 13.547,8.732 13.579 C 8.758 13.587,8.829 13.604,8.889 13.617 C 9.022 13.646,9.263 13.852,9.341 14.002 C 9.373 14.063,9.416 14.268,9.437 14.457 C 9.459 14.646,9.512 14.882,9.556 14.981 C 9.822 15.582,10.337 15.920,10.987 15.920 L 11.240 15.920 11.240 14.226 L 11.240 12.531 10.410 12.240 C 9.646 11.972,9.156 11.764,8.944 11.618 C 8.703 11.452,8.353 11.046,8.223 10.783 C 7.995 10.321,7.942 10.060,7.943 9.400 C 7.944 8.880,7.955 8.787,8.051 8.500 C 8.202 8.047,8.413 7.708,8.764 7.354 C 9.013 7.103,9.134 7.016,9.444 6.868 C 9.919 6.641,10.086 6.603,10.724 6.572 L 11.240 6.548 11.240 6.213 C 11.240 5.717,11.367 5.469,11.700 5.316 C 11.897 5.225,12.076 5.221,12.271 5.302 M10.268 8.138 C 9.723 8.332,9.423 8.802,9.430 9.449 C 9.435 9.956,9.600 10.295,9.924 10.462 C 10.017 10.510,11.182 10.920,11.225 10.920 C 11.233 10.920,11.240 10.281,11.240 9.500 L 11.240 8.080 10.830 8.082 C 10.591 8.083,10.357 8.106,10.268 8.138 M12.760 14.504 L 12.760 15.929 13.213 15.914 C 13.623 15.901,13.688 15.888,13.902 15.779 C 14.367 15.541,14.581 15.109,14.553 14.464 C 14.534 14.021,14.434 13.782,14.201 13.621 C 14.075 13.534,12.903 13.085,12.790 13.081 C 12.773 13.081,12.760 13.721,12.760 14.504 " fill="#292D32" stroke="none" fill-rule="evenodd"></path></svg>