<svg width="24" height="24" viewBox="0 0 24 24" fill="none" xmlns="http://www.w3.org/2000/svg"><path d="M10.880 1.964 C 9.387 2.132,7.842 2.687,6.580 3.510 C 5.885 3.963,5.600 4.194,4.967 4.815 C 3.393 6.358,2.389 8.394,2.075 10.680 C 1.997 11.248,2.008 12.673,2.094 13.240 C 2.317 14.701,2.818 16.078,3.539 17.216 C 4.621 18.923,6.279 20.338,8.086 21.095 C 10.147 21.959,12.403 22.121,14.543 21.559 C 16.332 21.089,17.882 20.178,19.181 18.833 C 20.703 17.256,21.607 15.369,21.927 13.100 C 22.004 12.557,21.992 11.123,21.906 10.560 C 21.733 9.429,21.439 8.469,20.982 7.540 C 20.471 6.502,19.967 5.781,19.181 4.967 C 17.562 3.290,15.514 2.268,13.198 1.981 C 12.664 1.915,11.399 1.906,10.880 1.964 M12.271 5.302 C 12.621 5.448,12.758 5.700,12.759 6.204 L 12.760 6.548 13.150 6.576 C 13.677 6.613,13.999 6.692,14.380 6.881 C 15.347 7.358,15.991 8.338,16.067 9.446 C 16.089 9.752,16.081 9.813,16.001 9.978 C 15.865 10.258,15.658 10.380,15.317 10.380 C 15.076 10.380,15.031 10.367,14.894 10.257 C 14.687 10.093,14.605 9.911,14.560 9.524 C 14.460 8.643,13.857 8.080,13.013 8.080 L 12.760 8.080 12.760 9.770 L 12.760 11.461 13.370 11.676 C 14.758 12.167,15.043 12.310,15.423 12.708 C 15.842 13.148,16.039 13.675,16.068 14.440 C 16.093 15.077,16.027 15.408,15.775 15.919 C 15.622 16.228,15.527 16.359,15.261 16.625 C 14.990 16.895,14.870 16.982,14.557 17.132 C 14.105 17.349,13.893 17.397,13.254 17.428 L 12.769 17.452 12.753 17.837 C 12.741 18.154,12.721 18.248,12.644 18.373 C 12.413 18.747,11.937 18.858,11.592 18.619 C 11.333 18.438,11.240 18.222,11.240 17.798 L 11.240 17.454 10.750 17.409 C 10.011 17.342,9.539 17.156,9.030 16.732 C 8.390 16.199,7.991 15.408,7.933 14.554 C 7.911 14.247,7.919 14.188,8.000 14.020 C 8.218 13.570,8.816 13.454,9.174 13.793 C 9.345 13.955,9.395 14.080,9.437 14.457 C 9.459 14.646,9.512 14.882,9.556 14.981 C 9.823 15.583,10.343 15.920,11.008 15.920 L 11.240 15.920 11.240 14.228 L 11.240 12.536 10.410 12.242 C 9.315 11.853,9.014 11.701,8.654 11.352 C 8.169 10.882,7.965 10.380,7.930 9.571 C 7.907 9.023,7.949 8.725,8.110 8.320 C 8.353 7.705,8.815 7.186,9.381 6.893 C 9.812 6.669,10.084 6.603,10.710 6.573 L 11.240 6.548 11.240 6.213 C 11.240 5.717,11.367 5.469,11.700 5.316 C 11.897 5.225,12.076 5.221,12.271 5.302 M10.268 8.138 C 9.900 8.269,9.607 8.577,9.495 8.952 C 9.422 9.191,9.425 9.696,9.500 9.948 C 9.567 10.174,9.778 10.396,10.020 10.498 C 10.172 10.561,11.194 10.920,11.223 10.920 C 11.232 10.920,11.240 10.281,11.240 9.500 L 11.240 8.080 10.830 8.082 C 10.591 8.083,10.357 8.106,10.268 8.138 M12.760 14.504 L 12.760 15.928 13.230 15.913 C 13.642 15.899,13.725 15.884,13.904 15.791 C 14.151 15.662,14.337 15.457,14.476 15.162 C 14.565 14.971,14.580 14.886,14.579 14.559 C 14.578 14.223,14.565 14.151,14.466 13.948 C 14.374 13.760,14.315 13.696,14.146 13.600 C 13.986 13.508,12.858 13.080,12.777 13.080 C 12.768 13.080,12.760 13.721,12.760 14.504 " fill="#292D32" stroke="none" fill-rule="evenodd"></path></svg>