<svg width="24" height="24" viewBox="0 0 24 24" fill="none" xmlns="http://www.w3.org/2000/svg"><path d="M7.280 2.026 C 5.864 2.173,4.699 2.730,3.699 3.736 C 2.977 4.463,2.517 5.227,2.244 6.151 C 2.024 6.896,1.995 7.243,2.008 8.981 C 2.020 10.490,2.023 10.545,2.106 10.700 C 2.219 10.909,2.378 11.056,2.600 11.157 C 2.779 11.238,2.810 11.238,12.000 11.238 C 21.190 11.238,21.221 11.238,21.400 11.157 C 21.622 11.056,21.781 10.909,21.894 10.700 C 21.977 10.545,21.980 10.490,21.992 8.981 C 22.005 7.243,21.976 6.896,21.756 6.151 C 21.483 5.227,21.023 4.463,20.301 3.736 C 19.441 2.871,18.531 2.374,17.321 2.109 C 16.947 2.027,16.847 2.025,12.180 2.018 C 9.562 2.014,7.357 2.018,7.280 2.026 M6.368 5.610 C 6.463 5.663,6.571 5.773,6.634 5.880 L 6.740 6.060 6.740 7.220 C 6.740 7.858,6.727 8.428,6.710 8.487 C 6.637 8.749,6.290 8.998,6.000 8.998 C 5.710 8.998,5.363 8.749,5.290 8.487 C 5.273 8.428,5.260 7.858,5.260 7.220 L 5.260 6.060 5.359 5.887 C 5.559 5.537,6.016 5.412,6.368 5.610 M10.368 5.610 C 10.463 5.663,10.571 5.773,10.634 5.880 L 10.740 6.060 10.740 7.220 C 10.740 7.858,10.727 8.428,10.710 8.487 C 10.637 8.749,10.290 8.998,10.000 8.998 C 9.710 8.998,9.363 8.749,9.290 8.487 C 9.273 8.428,9.260 7.858,9.260 7.220 L 9.260 6.060 9.359 5.887 C 9.559 5.537,10.016 5.412,10.368 5.610 M18.377 6.616 C 18.787 6.856,18.858 7.466,18.513 7.788 C 18.286 8.000,18.287 8.000,16.000 8.000 C 13.713 8.000,13.714 8.000,13.487 7.788 C 13.144 7.468,13.212 6.861,13.619 6.617 L 13.780 6.521 15.996 6.520 L 18.213 6.520 18.377 6.616 M2.568 12.864 C 2.319 12.988,2.143 13.189,2.057 13.450 C 2.001 13.618,1.995 13.854,2.011 15.292 C 2.028 16.802,2.036 16.973,2.117 17.340 C 2.381 18.538,2.867 19.433,3.717 20.283 C 4.572 21.138,5.460 21.618,6.680 21.887 L 7.100 21.980 11.960 21.980 C 17.344 21.980,17.082 21.992,17.949 21.716 C 18.856 21.428,19.585 20.980,20.283 20.282 C 21.132 19.433,21.619 18.538,21.883 17.340 C 21.963 16.974,21.972 16.801,21.989 15.313 C 22.005 13.920,21.999 13.656,21.945 13.473 C 21.865 13.198,21.692 12.993,21.432 12.864 L 21.224 12.760 12.000 12.760 L 2.776 12.760 2.568 12.864 M6.271 15.302 C 6.468 15.384,6.595 15.506,6.684 15.700 C 6.750 15.843,6.758 15.976,6.759 16.960 C 6.759 17.596,6.742 18.123,6.718 18.209 C 6.663 18.408,6.499 18.595,6.302 18.685 C 5.912 18.862,5.473 18.680,5.302 18.271 C 5.211 18.052,5.211 15.948,5.302 15.729 C 5.384 15.532,5.506 15.405,5.700 15.316 C 5.897 15.225,6.076 15.221,6.271 15.302 M10.271 15.302 C 10.468 15.384,10.595 15.506,10.684 15.700 C 10.750 15.843,10.758 15.976,10.759 16.960 C 10.759 17.596,10.742 18.123,10.718 18.209 C 10.663 18.408,10.499 18.595,10.302 18.685 C 9.912 18.862,9.473 18.680,9.302 18.271 C 9.211 18.052,9.211 15.948,9.302 15.729 C 9.384 15.532,9.506 15.405,9.700 15.316 C 9.897 15.225,10.076 15.221,10.271 15.302 M18.300 16.316 C 18.494 16.405,18.616 16.532,18.698 16.729 C 18.849 17.090,18.672 17.516,18.302 17.685 C 18.151 17.753,17.990 17.758,16.009 17.759 C 14.174 17.760,13.857 17.751,13.729 17.698 C 13.101 17.436,13.084 16.600,13.700 16.316 C 13.849 16.247,14.004 16.242,16.000 16.242 C 17.996 16.242,18.151 16.247,18.300 16.316 " fill="#292D32" stroke="none" fill-rule="evenodd"></path></svg>