<svg width="24" height="24" viewBox="0 0 24 24" fill="none" xmlns="http://www.w3.org/2000/svg"><path d="M4.300 2.028 C 3.847 2.089,3.250 2.375,2.886 2.704 C 2.564 2.996,2.269 3.444,2.132 3.851 L 2.022 4.180 2.009 5.839 C 1.994 7.619,2.009 7.827,2.188 8.280 C 2.484 9.030,3.073 9.589,3.860 9.867 L 4.180 9.980 11.840 9.991 C 17.308 10.000,19.574 9.990,19.760 9.959 C 20.729 9.794,21.526 9.106,21.867 8.140 L 21.980 7.820 21.980 6.000 L 21.980 4.180 21.871 3.860 C 21.734 3.454,21.429 2.989,21.115 2.705 C 20.859 2.473,20.411 2.218,20.040 2.094 C 19.829 2.023,19.496 2.020,12.120 2.016 C 7.885 2.013,4.366 2.019,4.300 2.028 M6.352 4.349 C 6.525 4.430,6.663 4.615,6.719 4.841 C 6.750 4.960,6.761 5.387,6.752 6.101 C 6.738 7.330,6.724 7.393,6.404 7.619 C 6.263 7.719,6.196 7.739,6.000 7.739 C 5.804 7.739,5.737 7.719,5.596 7.619 C 5.277 7.394,5.262 7.328,5.247 6.120 C 5.231 4.869,5.254 4.706,5.478 4.482 C 5.716 4.244,6.029 4.197,6.352 4.349 M10.352 4.349 C 10.525 4.430,10.663 4.615,10.719 4.841 C 10.750 4.960,10.761 5.387,10.752 6.101 C 10.738 7.330,10.724 7.393,10.404 7.619 C 10.263 7.719,10.196 7.739,10.000 7.739 C 9.804 7.739,9.737 7.719,9.596 7.619 C 9.277 7.394,9.262 7.328,9.247 6.120 C 9.231 4.869,9.254 4.706,9.478 4.482 C 9.716 4.244,10.029 4.197,10.352 4.349 M18.189 5.286 C 18.577 5.384,18.814 5.790,18.714 6.186 C 18.656 6.416,18.428 6.657,18.213 6.717 C 18.004 6.775,13.996 6.775,13.787 6.717 C 13.572 6.657,13.344 6.416,13.286 6.186 C 13.190 5.806,13.425 5.385,13.785 5.289 C 14.013 5.229,17.950 5.226,18.189 5.286 M4.320 14.026 C 3.279 14.191,2.452 14.904,2.107 15.937 C 2.032 16.162,2.025 16.302,2.010 17.834 C 1.997 19.250,2.004 19.535,2.060 19.811 C 2.262 20.809,2.927 21.548,3.937 21.895 C 4.180 21.979,4.186 21.979,11.840 21.991 C 20.335 22.004,19.829 22.018,20.419 21.743 C 21.003 21.470,21.424 21.062,21.701 20.500 C 21.961 19.973,21.971 19.895,21.990 18.264 C 22.009 16.655,21.979 16.207,21.825 15.782 C 21.540 14.996,20.945 14.423,20.100 14.120 L 19.820 14.020 12.120 14.015 C 7.885 14.012,4.375 14.017,4.320 14.026 M6.271 16.302 C 6.468 16.384,6.595 16.506,6.684 16.700 C 6.750 16.843,6.758 16.976,6.759 17.960 C 6.759 18.596,6.742 19.123,6.718 19.209 C 6.663 19.408,6.499 19.595,6.302 19.685 C 5.912 19.862,5.473 19.680,5.302 19.271 C 5.211 19.052,5.211 16.948,5.302 16.729 C 5.384 16.532,5.506 16.405,5.700 16.316 C 5.897 16.225,6.076 16.221,6.271 16.302 M10.271 16.302 C 10.468 16.384,10.595 16.506,10.684 16.700 C 10.750 16.843,10.758 16.976,10.759 17.960 C 10.759 18.596,10.742 19.123,10.718 19.209 C 10.663 19.408,10.499 19.595,10.302 19.685 C 9.912 19.862,9.473 19.680,9.302 19.271 C 9.211 19.052,9.211 16.948,9.302 16.729 C 9.384 16.532,9.506 16.405,9.700 16.316 C 9.897 16.225,10.076 16.221,10.271 16.302 M18.300 17.316 C 18.494 17.405,18.616 17.532,18.698 17.729 C 18.849 18.090,18.672 18.516,18.302 18.685 C 18.151 18.753,17.990 18.758,16.009 18.759 C 14.174 18.760,13.857 18.751,13.729 18.698 C 13.101 18.436,13.084 17.600,13.700 17.316 C 13.849 17.247,14.004 17.242,16.000 17.242 C 17.996 17.242,18.151 17.247,18.300 17.316 " fill="#292D32" stroke="none" fill-rule="evenodd"></path></svg>