<svg width="24" height="24" viewBox="0 0 24 24" fill="none" xmlns="http://www.w3.org/2000/svg"><path d="M7.112 2.045 C 6.389 2.130,5.499 2.430,4.880 2.797 C 3.686 3.507,2.735 4.674,2.306 5.960 C 2.052 6.718,2.031 6.918,2.011 8.708 C 1.990 10.596,1.995 10.637,2.298 10.940 C 2.623 11.265,2.241 11.244,7.485 11.231 L 12.150 11.220 12.700 10.847 C 13.896 10.038,15.118 9.611,16.487 9.524 C 17.794 9.441,19.028 9.680,20.263 10.255 C 20.694 10.456,20.775 10.480,21.003 10.479 C 21.414 10.478,21.728 10.287,21.904 9.933 C 21.974 9.792,21.980 9.678,21.978 8.440 C 21.976 7.202,21.969 7.068,21.885 6.680 C 21.625 5.471,21.139 4.574,20.283 3.717 C 19.435 2.869,18.554 2.390,17.340 2.115 L 16.940 2.024 12.180 2.016 C 9.558 2.012,7.282 2.025,7.112 2.045 M6.369 5.612 C 6.452 5.657,6.569 5.766,6.629 5.854 L 6.740 6.013 6.753 7.156 C 6.761 7.907,6.751 8.351,6.722 8.448 C 6.632 8.752,6.309 8.998,6.000 8.998 C 5.691 8.998,5.368 8.752,5.278 8.448 C 5.249 8.351,5.239 7.908,5.247 7.160 C 5.260 6.051,5.263 6.016,5.352 5.872 C 5.505 5.626,5.834 5.467,6.100 5.511 C 6.166 5.522,6.287 5.567,6.369 5.612 M10.369 5.612 C 10.452 5.657,10.569 5.766,10.629 5.854 L 10.740 6.013 10.753 7.156 C 10.761 7.907,10.751 8.351,10.722 8.448 C 10.632 8.752,10.309 8.998,10.000 8.998 C 9.691 8.998,9.368 8.752,9.278 8.448 C 9.249 8.351,9.239 7.908,9.247 7.160 C 9.260 6.051,9.263 6.016,9.352 5.872 C 9.505 5.626,9.834 5.467,10.100 5.511 C 10.166 5.522,10.287 5.567,10.369 5.612 M18.349 6.597 C 18.900 6.912,18.873 7.666,18.302 7.925 C 18.151 7.993,17.991 7.998,16.000 7.998 C 14.009 7.998,13.849 7.993,13.698 7.925 C 13.034 7.623,13.137 6.693,13.854 6.517 C 13.923 6.500,14.925 6.490,16.080 6.493 L 18.180 6.500 18.349 6.597 M16.300 11.046 C 13.887 11.312,11.815 13.125,11.199 15.506 C 10.668 17.558,11.268 19.740,12.775 21.239 C 14.636 23.090,17.428 23.519,19.760 22.313 C 21.030 21.656,22.062 20.509,22.580 19.180 C 23.445 16.958,22.915 14.442,21.230 12.766 C 19.919 11.462,18.142 10.842,16.300 11.046 M2.600 12.843 C 2.378 12.944,2.219 13.091,2.106 13.300 C 2.023 13.455,2.020 13.510,2.008 15.019 C 1.999 16.277,2.009 16.661,2.059 17.008 C 2.184 17.861,2.503 18.693,2.984 19.424 C 3.296 19.900,4.100 20.704,4.576 21.016 C 5.301 21.494,6.134 21.813,6.974 21.938 C 7.554 22.024,9.595 22.027,9.836 21.942 C 10.080 21.855,10.253 21.707,10.383 21.470 C 10.479 21.297,10.499 21.215,10.497 21.000 C 10.495 20.774,10.470 20.688,10.303 20.340 C 9.740 19.168,9.521 18.232,9.521 17.000 C 9.521 15.782,9.750 14.763,10.260 13.710 C 10.476 13.264,10.480 13.130,10.281 12.908 L 10.167 12.780 6.473 12.771 C 2.828 12.761,2.778 12.762,2.600 12.843 M19.710 13.840 C 19.981 14.005,20.000 14.081,20.000 15.032 C 20.000 15.949,19.990 16.005,19.781 16.200 C 19.674 16.300,19.673 16.300,18.747 16.311 C 17.882 16.321,17.811 16.317,17.692 16.243 C 17.339 16.024,17.349 15.461,17.709 15.284 C 17.780 15.249,17.839 15.210,17.839 15.197 C 17.840 15.185,17.740 15.143,17.619 15.105 C 16.712 14.819,15.727 15.184,15.263 15.977 C 15.082 16.287,14.932 16.427,14.741 16.462 C 14.357 16.535,14.002 16.155,14.098 15.773 C 14.199 15.371,14.880 14.582,15.381 14.287 C 16.097 13.866,17.004 13.734,17.780 13.939 C 18.040 14.008,18.539 14.231,18.719 14.359 L 18.831 14.439 18.859 14.290 C 18.940 13.851,19.363 13.628,19.710 13.840 M6.352 15.349 C 6.525 15.430,6.663 15.615,6.719 15.841 C 6.750 15.960,6.761 16.387,6.752 17.101 C 6.738 18.330,6.724 18.393,6.404 18.619 C 6.263 18.719,6.196 18.739,6.000 18.739 C 5.804 18.739,5.737 18.719,5.596 18.619 C 5.277 18.394,5.262 18.328,5.247 17.120 C 5.231 15.869,5.254 15.706,5.478 15.482 C 5.716 15.244,6.029 15.197,6.352 15.349 M19.703 17.499 C 19.854 17.597,19.960 17.798,19.960 17.987 C 19.960 18.104,19.910 18.253,19.791 18.487 C 19.555 18.953,18.961 19.551,18.500 19.788 C 17.934 20.079,17.669 20.140,16.980 20.139 C 16.429 20.137,16.354 20.128,16.060 20.026 C 15.884 19.965,15.623 19.848,15.480 19.767 C 15.337 19.686,15.207 19.614,15.191 19.607 C 15.175 19.600,15.150 19.672,15.135 19.767 C 15.101 19.984,14.868 20.237,14.695 20.246 C 14.379 20.263,14.211 20.184,14.084 19.958 C 14.006 19.820,14.000 19.748,14.000 18.963 C 14.000 18.051,14.011 17.995,14.219 17.800 C 14.326 17.700,14.327 17.700,15.253 17.689 C 16.118 17.679,16.189 17.683,16.308 17.757 C 16.661 17.976,16.651 18.539,16.291 18.716 C 16.220 18.751,16.161 18.790,16.161 18.803 C 16.160 18.815,16.256 18.856,16.373 18.893 C 17.325 19.193,18.368 18.772,18.788 17.918 C 18.983 17.523,19.163 17.387,19.452 17.417 C 19.535 17.426,19.648 17.462,19.703 17.499 " fill="#292D32" stroke="none" fill-rule="evenodd"></path></svg>