<svg width="24" height="24" viewBox="0 0 24 24" fill="none" xmlns="http://www.w3.org/2000/svg"><path d="M8.873 1.042 C 8.033 1.169,7.451 1.494,7.087 2.038 C 6.790 2.484,6.639 2.981,6.300 4.630 L 6.274 4.760 5.853 4.760 C 5.372 4.760,5.197 4.818,5.075 5.017 C 4.917 5.276,5.025 5.647,5.297 5.776 C 5.419 5.834,6.056 5.840,12.060 5.840 C 18.168 5.840,18.699 5.835,18.829 5.773 C 19.102 5.643,19.204 5.279,19.042 5.012 C 18.915 4.804,18.782 4.760,18.282 4.760 C 18.039 4.760,17.840 4.753,17.840 4.743 C 17.840 4.627,17.445 2.946,17.363 2.716 C 17.056 1.848,16.529 1.363,15.620 1.111 C 15.304 1.024,15.265 1.023,12.200 1.015 C 10.495 1.011,8.998 1.023,8.873 1.042 M6.891 6.960 C 5.578 7.102,4.910 7.736,4.721 9.020 C 4.646 9.530,4.272 13.654,4.269 14.000 C 4.262 14.963,4.943 15.780,5.898 15.956 C 6.204 16.013,7.755 16.013,8.060 15.957 C 8.524 15.871,8.832 15.655,9.013 15.289 C 9.065 15.185,9.185 14.876,9.281 14.602 C 9.490 14.004,9.575 13.895,9.875 13.840 C 10.141 13.791,14.026 13.789,14.279 13.838 C 14.545 13.889,14.637 14.020,14.856 14.663 C 15.069 15.290,15.212 15.543,15.453 15.721 C 15.756 15.943,15.920 15.972,17.000 15.990 C 17.793 16.003,18.031 15.995,18.250 15.944 C 19.188 15.726,19.838 14.945,19.840 14.035 C 19.840 13.524,19.403 8.953,19.323 8.633 C 19.149 7.944,18.816 7.506,18.264 7.241 C 17.613 6.928,17.957 6.946,12.260 6.937 C 9.466 6.933,7.050 6.943,6.891 6.960 M10.164 9.931 C 10.518 10.167,10.510 10.621,10.148 10.842 C 10.029 10.915,9.939 10.920,8.800 10.920 C 7.653 10.920,7.572 10.915,7.450 10.840 C 7.079 10.614,7.080 10.145,7.452 9.918 C 7.572 9.845,7.661 9.840,8.804 9.840 C 10.010 9.840,10.030 9.841,10.164 9.931 M16.684 9.931 C 17.038 10.167,17.030 10.621,16.668 10.842 C 16.549 10.915,16.459 10.920,15.320 10.920 C 14.173 10.920,14.092 10.915,13.970 10.840 C 13.599 10.614,13.600 10.145,13.972 9.918 C 14.092 9.845,14.181 9.840,15.324 9.840 C 16.530 9.840,16.550 9.841,16.684 9.931 M11.785 16.288 C 11.578 16.345,11.336 16.591,11.279 16.805 C 11.251 16.909,11.238 17.214,11.247 17.600 C 11.259 18.201,11.264 18.232,11.367 18.388 C 11.686 18.869,12.342 18.861,12.645 18.373 C 12.736 18.227,12.740 18.189,12.740 17.493 L 12.740 16.767 12.620 16.597 C 12.427 16.323,12.100 16.202,11.785 16.288 M20.460 17.076 C 20.372 17.116,20.260 17.193,20.212 17.245 C 20.104 17.363,20.000 17.603,20.000 17.736 C 20.000 17.791,20.235 18.777,20.522 19.928 C 20.905 21.466,21.070 22.060,21.142 22.169 C 21.425 22.600,22.123 22.581,22.384 22.137 C 22.546 21.861,22.524 21.722,21.963 19.489 C 21.398 17.242,21.392 17.225,21.065 17.077 C 20.856 16.982,20.664 16.982,20.460 17.076 M2.787 17.281 C 2.631 17.328,2.411 17.503,2.346 17.632 C 2.316 17.691,2.052 18.703,1.760 19.880 C 1.258 21.906,1.232 22.029,1.277 22.192 C 1.449 22.818,2.350 22.928,2.641 22.359 C 2.684 22.274,2.953 21.267,3.239 20.122 C 3.738 18.124,3.757 18.031,3.715 17.835 C 3.627 17.422,3.188 17.160,2.787 17.281 M11.807 20.288 C 11.692 20.313,11.583 20.377,11.481 20.479 C 11.289 20.671,11.240 20.880,11.240 21.500 C 11.240 21.751,11.260 22.049,11.284 22.162 C 11.424 22.815,12.311 22.943,12.640 22.358 C 12.736 22.188,12.740 22.151,12.740 21.500 C 12.740 20.873,12.733 20.807,12.651 20.653 C 12.523 20.415,12.388 20.328,12.040 20.261 C 12.007 20.255,11.902 20.267,11.807 20.288 " fill="#292D32" stroke="none" fill-rule="evenodd"></path></svg>