<svg width="24" height="24" viewBox="0 0 24 24" fill="none" xmlns="http://www.w3.org/2000/svg"><path d="M6.960 2.046 C 6.236 2.116,5.358 2.357,4.796 2.641 C 4.426 2.828,3.928 3.183,3.624 3.475 C 2.737 4.332,2.251 5.370,2.062 6.812 C 1.970 7.515,1.969 16.481,2.061 17.188 C 2.239 18.550,2.681 19.544,3.476 20.372 C 4.162 21.084,4.935 21.524,5.956 21.780 C 6.817 21.997,6.896 22.000,11.993 22.000 C 14.960 22.000,16.828 21.985,17.041 21.959 C 19.985 21.603,21.695 19.840,21.962 16.885 C 21.990 16.579,21.999 14.787,21.989 11.660 C 21.974 7.001,21.972 6.891,21.889 6.456 C 21.642 5.171,21.165 4.235,20.369 3.478 C 19.583 2.729,18.652 2.295,17.359 2.076 C 16.995 2.014,7.572 1.987,6.960 2.046 M15.673 5.581 C 16.770 5.839,18.134 7.181,18.421 8.283 C 18.507 8.613,18.509 9.110,18.425 9.435 C 18.334 9.787,18.087 10.245,17.784 10.622 C 17.395 11.105,16.352 12.120,16.245 12.120 C 16.039 12.120,14.994 11.672,14.584 11.407 C 13.430 10.664,12.545 9.584,12.081 8.351 C 11.832 7.692,11.799 7.775,12.650 6.934 C 13.363 6.230,13.654 5.994,14.060 5.791 C 14.267 5.688,14.585 5.577,14.760 5.548 C 14.991 5.509,15.437 5.525,15.673 5.581 M11.116 8.970 C 11.675 10.369,12.924 11.778,14.281 12.540 C 14.490 12.658,14.828 12.822,15.031 12.905 C 15.234 12.988,15.400 13.066,15.400 13.078 C 15.400 13.090,14.351 14.136,13.069 15.403 C 10.620 17.822,10.552 17.882,10.023 18.058 C 9.702 18.165,7.098 18.529,6.834 18.504 C 6.301 18.453,5.896 18.184,5.675 17.735 C 5.474 17.329,5.478 17.112,5.716 15.476 C 5.919 14.076,5.966 13.875,6.188 13.484 C 6.253 13.370,7.175 12.415,8.616 10.970 C 9.894 9.688,10.949 8.640,10.962 8.640 C 10.974 8.640,11.044 8.789,11.116 8.970 " fill="#292D32" stroke="none" fill-rule="evenodd"></path></svg>