<svg width="24" height="24" viewBox="0 0 24 24" fill="none" xmlns="http://www.w3.org/2000/svg"><path d="M15.800 2.026 C 15.097 2.118,14.353 2.472,13.680 3.033 C 13.314 3.338,11.997 4.652,11.932 4.777 C 11.849 4.936,11.879 5.139,12.059 5.620 C 12.803 7.607,14.243 9.196,16.140 10.123 C 16.754 10.423,17.443 10.656,17.620 10.623 C 17.720 10.604,17.930 10.415,18.585 9.749 C 19.726 8.591,20.058 8.136,20.328 7.355 C 20.451 6.999,20.458 6.951,20.458 6.400 C 20.458 5.848,20.451 5.801,20.327 5.440 C 20.084 4.737,19.686 4.151,18.983 3.460 C 18.266 2.755,17.571 2.312,16.888 2.124 C 16.589 2.042,16.051 1.994,15.800 2.026 M10.140 6.556 C 10.074 6.598,8.720 7.934,7.132 9.526 C 4.796 11.866,4.227 12.456,4.160 12.610 C 4.099 12.749,4.000 13.335,3.796 14.770 C 3.553 16.477,3.517 16.799,3.530 17.183 C 3.544 17.594,3.555 17.649,3.688 17.928 C 3.921 18.420,4.241 18.708,4.743 18.881 C 5.205 19.040,5.366 19.031,7.641 18.708 C 9.330 18.469,9.777 18.393,9.921 18.322 C 10.048 18.258,10.932 17.403,12.954 15.386 C 14.524 13.821,15.860 12.470,15.924 12.384 C 16.145 12.086,16.037 11.750,15.659 11.560 C 14.438 10.948,13.746 10.464,12.918 9.640 C 12.167 8.892,11.563 8.070,11.108 7.173 C 10.932 6.827,10.800 6.617,10.724 6.563 C 10.575 6.456,10.303 6.453,10.140 6.556 M2.633 20.610 C 2.438 20.729,2.333 20.870,2.274 21.091 C 2.186 21.420,2.366 21.774,2.698 21.925 C 2.854 21.995,3.218 21.998,12.000 21.998 C 20.782 21.998,21.146 21.995,21.302 21.925 C 21.567 21.804,21.759 21.508,21.760 21.218 C 21.760 21.044,21.558 20.722,21.383 20.619 L 21.213 20.520 11.996 20.520 L 2.780 20.520 2.633 20.610 " fill="#292D32" stroke="none" fill-rule="evenodd"></path></svg>