<svg width="24" height="24" viewBox="0 0 24 24" fill="none" xmlns="http://www.w3.org/2000/svg"><path d="M9.420 1.260 C 9.398 1.267,9.331 1.284,9.271 1.297 C 9.124 1.329,8.881 1.548,8.814 1.708 C 8.772 1.809,8.760 2.181,8.760 3.419 L 8.760 5.000 8.490 5.001 C 8.341 5.001,8.105 5.028,7.963 5.062 C 7.216 5.238,6.632 5.885,6.522 6.660 C 6.468 7.038,6.468 11.910,6.522 12.437 C 6.666 13.843,7.422 14.992,8.580 15.564 C 9.197 15.869,9.628 15.964,10.509 15.990 L 11.238 16.011 11.249 19.118 L 11.260 22.226 11.367 22.388 C 11.682 22.864,12.318 22.864,12.633 22.388 L 12.740 22.226 12.751 19.118 L 12.762 16.011 13.491 15.990 C 14.372 15.964,14.803 15.869,15.420 15.564 C 16.578 14.992,17.334 13.843,17.478 12.437 C 17.532 11.910,17.532 7.038,17.478 6.660 C 17.368 5.885,16.784 5.238,16.037 5.062 C 15.895 5.028,15.659 5.001,15.510 5.001 L 15.240 5.000 15.240 3.423 C 15.240 2.405,15.225 1.805,15.197 1.733 C 15.095 1.460,14.807 1.269,14.500 1.269 C 14.193 1.269,13.905 1.460,13.803 1.733 C 13.775 1.805,13.760 2.405,13.760 3.423 L 13.760 5.000 12.000 5.000 L 10.240 5.000 10.240 3.423 C 10.240 2.405,10.225 1.805,10.197 1.733 C 10.146 1.597,9.977 1.412,9.840 1.342 C 9.732 1.287,9.485 1.238,9.420 1.260 " fill="#292D32" stroke="none" fill-rule="evenodd"></path></svg>