<svg width="24" height="24" viewBox="0 0 24 24" fill="none" xmlns="http://www.w3.org/2000/svg"><path d="M3.616 2.041 C 2.671 2.169,2.204 2.576,2.056 3.400 C 1.991 3.764,1.978 8.574,2.040 9.007 C 2.149 9.757,2.519 10.183,3.240 10.387 C 3.481 10.455,3.704 10.460,6.240 10.460 C 9.187 10.460,9.183 10.460,9.638 10.248 C 9.890 10.131,10.159 9.877,10.278 9.645 C 10.479 9.249,10.484 9.164,10.471 6.127 C 10.459 3.464,10.454 3.288,10.383 3.100 C 10.176 2.555,9.858 2.281,9.217 2.094 C 9.005 2.031,8.716 2.023,6.420 2.016 C 5.012 2.011,3.750 2.023,3.616 2.041 M15.086 2.042 C 14.241 2.155,13.768 2.538,13.582 3.258 C 13.529 3.462,13.520 3.897,13.520 6.226 C 13.520 9.047,13.527 9.183,13.688 9.558 C 13.881 10.008,14.318 10.309,14.941 10.420 C 15.396 10.501,20.114 10.503,20.566 10.423 C 21.401 10.274,21.841 9.826,21.960 9.007 C 22.023 8.567,22.008 3.763,21.942 3.393 C 21.845 2.846,21.591 2.478,21.159 2.260 C 20.702 2.028,20.685 2.027,17.900 2.017 C 16.492 2.012,15.226 2.023,15.086 2.042 M3.402 13.581 C 2.697 13.737,2.296 14.122,2.093 14.840 C 2.026 15.080,2.020 15.300,2.020 17.720 C 2.020 20.519,2.024 20.580,2.222 21.029 C 2.352 21.322,2.643 21.618,2.936 21.757 C 3.403 21.978,3.439 21.980,6.260 21.980 C 8.617 21.980,8.886 21.973,9.136 21.909 C 9.874 21.720,10.266 21.309,10.422 20.564 C 10.474 20.313,10.481 19.880,10.471 17.625 C 10.459 15.009,10.458 14.977,10.370 14.716 C 10.179 14.152,9.848 13.821,9.284 13.630 C 9.022 13.542,8.998 13.541,6.340 13.533 C 4.153 13.526,3.613 13.535,3.402 13.581 M17.180 13.835 C 16.990 13.923,16.904 14.012,16.822 14.210 C 16.771 14.332,16.760 14.568,16.760 15.559 L 16.760 16.760 15.550 16.761 C 14.462 16.762,14.324 16.769,14.180 16.835 C 13.990 16.923,13.904 17.012,13.822 17.210 C 13.708 17.483,13.783 17.869,13.986 18.048 C 14.186 18.227,14.297 18.240,15.559 18.240 L 16.760 18.240 16.761 19.450 C 16.762 20.538,16.769 20.676,16.835 20.820 C 16.923 21.010,17.012 21.096,17.210 21.178 C 17.470 21.287,17.807 21.232,18.014 21.048 C 18.057 21.011,18.124 20.908,18.165 20.820 C 18.231 20.676,18.238 20.538,18.239 19.450 L 18.240 18.240 19.450 18.239 C 20.538 18.238,20.676 18.231,20.820 18.165 C 21.010 18.077,21.096 17.988,21.178 17.790 C 21.257 17.602,21.257 17.398,21.178 17.210 C 21.096 17.012,21.010 16.923,20.820 16.835 C 20.676 16.769,20.538 16.762,19.450 16.761 L 18.240 16.760 18.239 15.550 C 18.238 14.462,18.231 14.324,18.165 14.180 C 18.077 13.990,17.988 13.904,17.790 13.822 C 17.595 13.740,17.376 13.745,17.180 13.835 " fill="#292D32" stroke="none" fill-rule="evenodd"></path></svg>