<svg width="24" height="24" viewBox="0 0 24 24" fill="none" xmlns="http://www.w3.org/2000/svg"><path d="M4.200 2.028 C 3.256 2.143,2.746 2.559,2.579 3.349 C 2.495 3.743,2.495 7.257,2.579 7.651 C 2.723 8.334,3.113 8.726,3.829 8.910 C 4.073 8.973,4.363 8.980,6.760 8.980 C 9.411 8.980,9.421 8.980,9.735 8.889 C 10.405 8.695,10.728 8.371,10.911 7.710 C 10.972 7.489,10.980 7.235,10.980 5.500 C 10.980 3.765,10.972 3.511,10.911 3.290 C 10.730 2.638,10.411 2.312,9.756 2.114 C 9.464 2.025,9.427 2.024,6.900 2.017 C 5.492 2.014,4.277 2.018,4.200 2.028 M14.606 2.042 C 13.710 2.162,13.233 2.584,13.063 3.408 C 13.008 3.677,13.000 4.205,13.000 7.500 C 13.000 10.795,13.008 11.323,13.063 11.592 C 13.208 12.296,13.532 12.658,14.220 12.886 C 14.499 12.978,14.506 12.978,17.071 12.991 C 19.874 13.005,20.088 12.992,20.542 12.784 C 21.012 12.569,21.257 12.271,21.413 11.724 C 21.499 11.422,21.499 11.400,21.499 7.500 C 21.499 3.600,21.499 3.578,21.413 3.276 C 21.225 2.616,20.873 2.275,20.191 2.092 C 19.970 2.033,19.634 2.024,17.400 2.017 C 16.003 2.012,14.746 2.023,14.606 2.042 M4.200 11.028 C 3.256 11.143,2.746 11.559,2.579 12.349 C 2.494 12.751,2.494 20.249,2.579 20.651 C 2.723 21.334,3.113 21.726,3.829 21.910 C 4.073 21.973,4.363 21.980,6.760 21.980 C 9.411 21.980,9.421 21.980,9.735 21.889 C 10.405 21.695,10.728 21.371,10.911 20.710 C 10.974 20.481,10.980 20.130,10.980 16.500 C 10.980 12.870,10.974 12.519,10.911 12.290 C 10.730 11.638,10.411 11.312,9.756 11.114 C 9.464 11.025,9.427 11.024,6.900 11.017 C 5.492 11.014,4.277 11.018,4.200 11.028 M14.640 15.038 C 13.757 15.158,13.301 15.526,13.089 16.290 C 13.028 16.511,13.020 16.765,13.020 18.500 C 13.020 20.235,13.028 20.489,13.089 20.710 C 13.272 21.371,13.595 21.695,14.265 21.889 C 14.579 21.980,14.589 21.980,17.240 21.980 C 19.636 21.980,19.927 21.973,20.170 21.910 C 20.709 21.772,21.059 21.518,21.262 21.117 C 21.464 20.718,21.479 20.537,21.479 18.500 C 21.479 16.463,21.464 16.282,21.262 15.883 C 21.062 15.489,20.714 15.232,20.191 15.092 C 19.970 15.033,19.632 15.024,17.400 15.017 C 16.003 15.012,14.761 15.022,14.640 15.038 " fill="#292D32" stroke="none" fill-rule="evenodd"></path></svg>