<svg width="24" height="24" viewBox="0 0 24 24" fill="none" xmlns="http://www.w3.org/2000/svg"><path d="M3.616 2.041 C 2.671 2.169,2.204 2.576,2.056 3.400 C 1.991 3.764,1.978 8.574,2.040 9.007 C 2.149 9.757,2.519 10.183,3.240 10.387 C 3.481 10.455,3.704 10.460,6.240 10.460 C 9.187 10.460,9.183 10.460,9.638 10.248 C 9.890 10.131,10.159 9.877,10.278 9.645 C 10.479 9.249,10.484 9.164,10.471 6.127 C 10.459 3.464,10.454 3.288,10.383 3.100 C 10.176 2.555,9.858 2.281,9.217 2.094 C 9.005 2.031,8.716 2.023,6.420 2.016 C 5.012 2.011,3.750 2.023,3.616 2.041 M15.086 2.042 C 14.776 2.084,14.473 2.179,14.258 2.302 C 14.053 2.419,13.773 2.720,13.691 2.912 C 13.511 3.333,13.507 3.382,13.491 5.979 C 13.480 7.561,13.490 8.598,13.517 8.846 C 13.610 9.703,13.911 10.108,14.636 10.356 L 14.940 10.460 17.625 10.472 C 20.547 10.484,20.632 10.479,21.113 10.259 C 21.375 10.140,21.651 9.889,21.767 9.665 C 21.981 9.249,21.975 9.342,21.990 6.420 C 22.000 4.568,21.990 3.619,21.960 3.447 C 21.859 2.864,21.633 2.514,21.209 2.288 C 20.717 2.026,20.729 2.027,17.900 2.017 C 16.492 2.012,15.226 2.023,15.086 2.042 M3.402 13.581 C 2.697 13.737,2.296 14.122,2.093 14.840 C 2.026 15.080,2.020 15.300,2.020 17.720 C 2.020 20.519,2.024 20.580,2.222 21.029 C 2.352 21.322,2.643 21.618,2.936 21.757 C 3.403 21.978,3.439 21.980,6.260 21.980 C 8.617 21.980,8.886 21.973,9.136 21.909 C 9.874 21.720,10.266 21.309,10.422 20.564 C 10.474 20.313,10.481 19.880,10.471 17.625 C 10.459 15.009,10.458 14.977,10.370 14.716 C 10.179 14.152,9.848 13.821,9.284 13.630 C 9.022 13.542,8.998 13.541,6.340 13.533 C 4.153 13.526,3.613 13.535,3.402 13.581 M14.920 13.583 C 14.583 13.656,14.215 13.838,14.027 14.027 C 13.834 14.219,13.655 14.585,13.580 14.940 C 13.493 15.354,13.493 20.168,13.581 20.579 C 13.735 21.310,14.132 21.721,14.864 21.909 C 15.114 21.973,15.383 21.980,17.740 21.980 C 20.561 21.980,20.597 21.978,21.064 21.757 C 21.357 21.618,21.648 21.322,21.778 21.029 C 21.976 20.580,21.980 20.517,21.980 17.740 C 21.980 15.383,21.973 15.114,21.909 14.864 C 21.721 14.132,21.310 13.735,20.579 13.581 C 20.179 13.496,15.313 13.498,14.920 13.583 " fill="#292D32" stroke="none" fill-rule="evenodd"></path></svg>