<svg width="24" height="24" viewBox="0 0 24 24" fill="none" xmlns="http://www.w3.org/2000/svg"><path d="M3.616 2.041 C 2.671 2.169,2.204 2.576,2.056 3.400 C 1.991 3.764,1.978 8.574,2.040 9.007 C 2.149 9.757,2.519 10.183,3.240 10.387 C 3.481 10.455,3.704 10.460,6.240 10.460 C 9.187 10.460,9.183 10.460,9.638 10.248 C 9.890 10.131,10.159 9.877,10.278 9.645 C 10.479 9.249,10.484 9.164,10.471 6.127 C 10.459 3.464,10.454 3.288,10.383 3.100 C 10.176 2.555,9.858 2.281,9.217 2.094 C 9.005 2.031,8.716 2.023,6.420 2.016 C 5.012 2.011,3.750 2.023,3.616 2.041 M15.086 2.042 C 14.241 2.155,13.768 2.538,13.582 3.258 C 13.529 3.462,13.520 3.897,13.520 6.226 C 13.520 9.047,13.527 9.183,13.688 9.558 C 13.881 10.008,14.318 10.309,14.941 10.420 C 15.396 10.501,20.114 10.503,20.566 10.423 C 21.401 10.274,21.841 9.826,21.960 9.007 C 22.023 8.567,22.008 3.763,21.942 3.393 C 21.845 2.846,21.591 2.478,21.159 2.260 C 20.702 2.028,20.685 2.027,17.900 2.017 C 16.492 2.012,15.226 2.023,15.086 2.042 M3.402 13.581 C 2.697 13.737,2.296 14.122,2.093 14.840 C 2.026 15.080,2.020 15.300,2.020 17.720 C 2.020 20.519,2.024 20.580,2.222 21.029 C 2.352 21.322,2.643 21.618,2.936 21.757 C 3.403 21.978,3.439 21.980,6.260 21.980 C 8.617 21.980,8.886 21.973,9.136 21.909 C 9.874 21.720,10.266 21.309,10.422 20.564 C 10.474 20.313,10.481 19.880,10.471 17.625 C 10.459 15.009,10.458 14.977,10.370 14.716 C 10.179 14.152,9.848 13.821,9.284 13.630 C 9.022 13.542,8.998 13.541,6.340 13.533 C 4.153 13.526,3.613 13.535,3.402 13.581 M14.700 14.823 C 14.436 14.961,14.242 15.248,14.242 15.500 C 14.242 15.759,14.484 16.104,14.733 16.197 C 14.809 16.226,15.869 16.240,18.004 16.240 C 21.482 16.240,21.316 16.252,21.549 15.987 C 21.860 15.633,21.806 15.192,21.417 14.895 L 21.266 14.780 18.043 14.770 C 15.179 14.761,14.807 14.767,14.700 14.823 M14.700 18.823 C 14.410 18.974,14.269 19.198,14.269 19.506 C 14.269 19.752,14.355 19.919,14.574 20.096 L 14.727 20.220 18.000 20.220 L 21.273 20.220 21.426 20.096 C 21.647 19.917,21.731 19.752,21.731 19.500 C 21.731 19.248,21.647 19.083,21.426 18.904 L 21.273 18.780 18.046 18.770 C 15.179 18.761,14.807 18.767,14.700 18.823 " fill="#292D32" stroke="none" fill-rule="evenodd"></path></svg>