<svg width="24" height="24" viewBox="0 0 24 24" fill="none" xmlns="http://www.w3.org/2000/svg"><path d="M4.200 2.028 C 3.269 2.142,2.795 2.514,2.586 3.296 L 2.500 3.620 2.500 12.000 L 2.500 20.380 2.586 20.704 C 2.736 21.263,2.979 21.565,3.458 21.784 C 3.912 21.992,4.126 22.005,6.929 21.991 C 9.494 21.978,9.501 21.978,9.780 21.886 C 10.468 21.658,10.792 21.296,10.937 20.592 C 10.993 20.316,11.000 19.400,11.000 12.000 C 11.000 2.926,11.012 3.384,10.769 2.889 C 10.647 2.640,10.347 2.345,10.106 2.239 C 9.617 2.022,9.654 2.025,6.900 2.017 C 5.492 2.014,4.277 2.018,4.200 2.028 M14.640 2.038 C 13.757 2.158,13.301 2.526,13.089 3.290 C 13.026 3.519,13.020 3.870,13.020 7.500 C 13.020 11.130,13.026 11.481,13.089 11.710 C 13.272 12.371,13.595 12.695,14.265 12.889 C 14.579 12.980,14.589 12.980,17.240 12.980 C 19.636 12.980,19.927 12.973,20.170 12.910 C 20.887 12.726,21.277 12.332,21.422 11.645 C 21.506 11.253,21.506 3.747,21.422 3.355 C 21.279 2.676,20.892 2.280,20.191 2.092 C 19.970 2.033,19.632 2.024,17.400 2.017 C 16.003 2.012,14.761 2.022,14.640 2.038 M14.640 15.038 C 13.757 15.158,13.301 15.526,13.089 16.290 C 13.028 16.511,13.020 16.765,13.020 18.500 C 13.020 20.235,13.028 20.489,13.089 20.710 C 13.272 21.371,13.595 21.695,14.265 21.889 C 14.579 21.980,14.589 21.980,17.240 21.980 C 19.636 21.980,19.927 21.973,20.170 21.910 C 20.709 21.772,21.059 21.518,21.262 21.117 C 21.464 20.718,21.479 20.537,21.479 18.500 C 21.479 16.463,21.464 16.282,21.262 15.883 C 21.062 15.489,20.714 15.232,20.191 15.092 C 19.970 15.033,19.632 15.024,17.400 15.017 C 16.003 15.012,14.761 15.022,14.640 15.038 " fill="#292D32" stroke="none" fill-rule="evenodd"></path></svg>