<svg width="24" height="24" viewBox="0 0 24 24" fill="none" xmlns="http://www.w3.org/2000/svg"><path d="M6.960 2.046 C 6.236 2.116,5.358 2.357,4.796 2.641 C 4.426 2.828,3.928 3.183,3.624 3.475 C 2.737 4.332,2.251 5.370,2.062 6.812 C 1.970 7.515,1.969 16.481,2.061 17.188 C 2.239 18.550,2.681 19.544,3.476 20.372 C 4.162 21.084,4.935 21.524,5.956 21.780 C 6.817 21.997,6.896 22.000,11.993 22.000 C 14.960 22.000,16.828 21.985,17.041 21.959 C 19.985 21.603,21.695 19.840,21.962 16.885 C 21.990 16.579,21.999 14.787,21.989 11.660 C 21.974 7.001,21.972 6.891,21.889 6.456 C 21.642 5.171,21.165 4.235,20.369 3.478 C 19.583 2.729,18.652 2.295,17.359 2.076 C 16.995 2.014,7.572 1.987,6.960 2.046 M9.620 7.364 C 10.292 7.526,11.112 8.036,11.306 8.412 C 11.471 8.732,11.328 9.201,11.009 9.389 C 10.671 9.587,10.410 9.523,9.900 9.118 C 9.619 8.895,9.328 8.792,8.916 8.770 C 8.380 8.740,8.033 8.864,7.559 9.253 C 7.205 9.543,6.863 9.578,6.560 9.353 C 6.299 9.161,6.187 8.696,6.334 8.412 C 6.469 8.150,7.071 7.707,7.560 7.508 C 8.215 7.242,8.916 7.193,9.620 7.364 M15.980 7.364 C 16.507 7.491,17.040 7.774,17.433 8.137 C 17.659 8.344,17.726 8.482,17.729 8.740 C 17.732 9.169,17.424 9.480,16.994 9.480 C 16.763 9.480,16.714 9.455,16.201 9.078 C 15.605 8.639,14.681 8.657,14.100 9.118 C 13.590 9.523,13.329 9.587,12.991 9.389 C 12.672 9.201,12.529 8.732,12.694 8.412 C 12.829 8.150,13.431 7.707,13.920 7.508 C 14.575 7.242,15.276 7.193,15.980 7.364 M12.973 12.019 C 15.009 12.443,16.563 14.102,16.841 16.147 C 16.868 16.349,16.882 16.655,16.872 16.827 C 16.841 17.337,16.599 17.713,16.149 17.950 L 15.940 18.060 12.000 18.060 L 8.060 18.060 7.871 17.966 C 7.614 17.838,7.369 17.585,7.245 17.320 C 7.153 17.124,7.142 17.054,7.147 16.677 C 7.166 15.207,7.892 13.799,9.100 12.890 C 9.662 12.467,10.517 12.100,11.160 12.005 C 11.325 11.980,11.505 11.952,11.560 11.943 C 11.764 11.907,12.670 11.956,12.973 12.019 " fill="#292D32" stroke="none" fill-rule="evenodd"></path></svg>