<svg width="24" height="24" viewBox="0 0 24 24" fill="none" xmlns="http://www.w3.org/2000/svg"><path d="M6.960 2.046 C 6.236 2.116,5.358 2.357,4.796 2.641 C 4.426 2.828,3.928 3.183,3.624 3.475 C 2.737 4.332,2.251 5.370,2.062 6.812 C 1.970 7.515,1.969 16.481,2.061 17.188 C 2.239 18.550,2.681 19.544,3.476 20.372 C 4.162 21.084,4.935 21.524,5.956 21.780 C 6.817 21.997,6.896 22.000,11.993 22.000 C 14.960 22.000,16.828 21.985,17.041 21.959 C 19.985 21.603,21.695 19.840,21.962 16.885 C 21.990 16.579,21.999 14.787,21.989 11.660 C 21.974 7.001,21.972 6.891,21.889 6.456 C 21.642 5.171,21.165 4.235,20.369 3.478 C 19.583 2.729,18.652 2.295,17.359 2.076 C 16.995 2.014,7.572 1.987,6.960 2.046 M7.349 7.599 C 7.421 7.643,7.576 7.758,7.696 7.855 C 8.040 8.135,8.296 8.218,8.820 8.218 C 9.344 8.218,9.600 8.135,9.944 7.855 C 10.294 7.570,10.397 7.520,10.636 7.520 C 11.064 7.520,11.372 7.832,11.369 8.260 C 11.366 8.515,11.302 8.647,11.073 8.865 C 10.518 9.395,9.599 9.760,8.820 9.760 C 8.041 9.760,7.122 9.395,6.567 8.865 C 6.338 8.647,6.274 8.515,6.271 8.260 C 6.268 7.832,6.574 7.521,7.000 7.521 C 7.149 7.520,7.262 7.546,7.349 7.599 M13.709 7.599 C 13.781 7.643,13.936 7.758,14.056 7.855 C 14.400 8.135,14.656 8.218,15.180 8.218 C 15.704 8.218,15.960 8.135,16.304 7.855 C 16.654 7.570,16.757 7.520,16.996 7.520 C 17.424 7.520,17.732 7.832,17.729 8.260 C 17.726 8.515,17.662 8.647,17.433 8.865 C 16.878 9.395,15.959 9.760,15.180 9.760 C 14.401 9.760,13.482 9.395,12.927 8.865 C 12.698 8.647,12.634 8.515,12.631 8.260 C 12.628 7.832,12.934 7.521,13.360 7.521 C 13.509 7.520,13.622 7.546,13.709 7.599 M16.195 12.779 C 16.413 12.900,16.610 13.108,16.745 13.360 C 16.810 13.481,16.819 13.585,16.816 14.120 C 16.813 14.649,16.797 14.796,16.710 15.120 C 16.469 16.025,16.067 16.709,15.384 17.380 C 14.864 17.890,14.405 18.194,13.784 18.437 C 12.351 18.997,10.743 18.854,9.441 18.049 C 8.683 17.581,7.973 16.780,7.578 15.947 C 7.281 15.319,7.080 14.356,7.131 13.799 C 7.172 13.340,7.443 12.952,7.860 12.753 L 8.100 12.639 12.040 12.650 L 15.980 12.660 16.195 12.779 " fill="#292D32" stroke="none" fill-rule="evenodd"></path></svg>