<svg width="24" height="24" viewBox="0 0 24 24" fill="none" xmlns="http://www.w3.org/2000/svg"><path d="M12.640 2.082 C 12.427 2.115,4.474 5.097,4.053 5.302 C 3.364 5.638,2.769 6.388,2.580 7.160 C 2.485 7.547,2.466 8.495,2.500 11.140 L 2.530 13.499 2.680 13.650 C 2.812 13.781,2.854 13.800,3.021 13.800 C 3.126 13.800,3.330 13.765,3.476 13.722 C 4.193 13.509,5.192 13.448,5.909 13.575 C 7.632 13.878,9.104 14.962,9.890 16.506 C 10.296 17.303,10.490 18.093,10.491 18.960 C 10.492 19.609,10.408 20.074,10.155 20.815 C 9.924 21.495,9.922 21.597,10.139 21.833 L 10.274 21.980 14.287 21.980 L 18.300 21.980 18.683 21.874 C 19.766 21.575,20.644 20.851,21.118 19.867 C 21.370 19.344,21.446 19.022,21.467 18.380 C 21.486 17.826,21.485 17.817,21.373 17.600 C 21.235 17.331,20.996 17.143,20.720 17.084 C 20.608 17.060,20.242 17.040,19.906 17.040 C 19.492 17.040,19.221 17.021,19.058 16.979 C 18.417 16.815,17.910 16.414,17.629 15.848 L 17.460 15.506 17.461 15.003 C 17.462 14.547,17.473 14.476,17.572 14.240 C 17.784 13.733,18.213 13.306,18.724 13.092 C 18.966 12.991,19.027 12.984,19.860 12.960 C 20.818 12.933,20.908 12.914,21.168 12.685 C 21.246 12.617,21.350 12.467,21.399 12.353 C 21.483 12.158,21.488 12.102,21.470 11.482 C 21.454 10.916,21.436 10.769,21.345 10.468 C 20.962 9.194,19.989 8.242,18.695 7.874 C 18.394 7.789,18.299 7.784,16.610 7.770 L 14.840 7.755 14.840 5.702 C 14.840 3.774,14.835 3.633,14.761 3.394 C 14.485 2.500,13.577 1.938,12.640 2.082 M13.158 3.619 C 13.221 3.652,13.291 3.734,13.316 3.805 C 13.346 3.891,13.360 4.548,13.360 5.845 L 13.360 7.757 9.490 7.769 L 5.620 7.782 5.301 7.874 C 4.916 7.985,4.495 8.177,4.205 8.375 L 3.991 8.521 4.008 8.010 C 4.027 7.473,4.067 7.320,4.263 7.036 C 4.479 6.724,4.567 6.686,8.780 5.093 C 11.002 4.254,12.870 3.565,12.932 3.563 C 12.994 3.561,13.095 3.586,13.158 3.619 M14.300 11.316 C 14.494 11.405,14.616 11.532,14.698 11.729 C 14.849 12.090,14.672 12.516,14.302 12.685 C 14.150 12.754,13.975 12.758,11.509 12.759 C 9.223 12.760,8.858 12.752,8.729 12.698 C 8.101 12.436,8.084 11.600,8.700 11.316 C 8.850 11.246,9.018 11.242,11.500 11.242 C 13.982 11.242,14.150 11.246,14.300 11.316 M19.192 14.048 C 18.997 14.099,18.688 14.375,18.595 14.578 C 18.507 14.772,18.496 15.185,18.574 15.371 C 18.659 15.574,18.833 15.755,19.055 15.872 C 19.258 15.979,19.270 15.980,20.168 15.993 C 21.487 16.011,21.480 16.017,21.480 15.000 C 21.480 13.992,21.487 13.998,20.214 14.004 C 19.733 14.006,19.273 14.026,19.192 14.048 M4.340 15.064 C 2.752 15.343,1.522 16.488,1.116 18.065 C 1.002 18.509,0.989 19.375,1.089 19.821 C 1.359 21.022,2.140 22.027,3.220 22.563 C 3.943 22.922,4.663 23.054,5.425 22.965 C 8.195 22.643,9.811 19.690,8.570 17.220 C 7.777 15.643,6.051 14.762,4.340 15.064 M4.365 17.312 C 4.439 17.358,4.617 17.514,4.759 17.658 L 5.018 17.920 5.319 17.622 C 5.735 17.210,5.976 17.122,6.311 17.262 C 6.508 17.344,6.635 17.466,6.724 17.660 C 6.885 18.007,6.789 18.282,6.365 18.698 L 6.082 18.976 6.375 19.278 C 6.724 19.637,6.804 19.779,6.806 20.041 C 6.809 20.415,6.544 20.728,6.175 20.783 C 5.899 20.824,5.680 20.719,5.312 20.367 L 4.996 20.066 4.662 20.398 C 4.380 20.678,4.297 20.738,4.123 20.783 C 4.010 20.812,3.895 20.830,3.868 20.821 C 3.842 20.813,3.771 20.796,3.711 20.783 C 3.576 20.753,3.336 20.547,3.256 20.392 C 3.184 20.253,3.175 19.947,3.238 19.784 C 3.263 19.720,3.429 19.518,3.607 19.335 L 3.931 19.003 3.607 18.660 C 3.200 18.230,3.118 17.993,3.262 17.650 C 3.337 17.469,3.424 17.371,3.580 17.289 C 3.845 17.151,4.120 17.159,4.365 17.312 " fill="#292D32" stroke="none" fill-rule="evenodd"></path></svg>