<svg width="24" height="24" viewBox="0 0 24 24" fill="none" xmlns="http://www.w3.org/2000/svg"><path d="M12.640 2.082 C 12.427 2.115,4.474 5.097,4.053 5.302 C 3.363 5.638,2.763 6.395,2.582 7.160 C 2.481 7.584,2.475 8.132,2.512 13.660 L 2.547 18.940 2.636 19.240 C 3.020 20.539,4.010 21.513,5.317 21.874 L 5.700 21.980 12.000 21.980 L 18.300 21.980 18.683 21.874 C 19.766 21.574,20.644 20.851,21.118 19.867 C 21.370 19.344,21.446 19.022,21.467 18.380 C 21.486 17.826,21.485 17.817,21.373 17.600 C 21.235 17.331,20.996 17.143,20.720 17.084 C 20.608 17.060,20.242 17.040,19.906 17.040 C 19.492 17.040,19.221 17.021,19.058 16.979 C 18.417 16.815,17.910 16.414,17.629 15.848 L 17.460 15.506 17.460 15.003 C 17.461 14.572,17.474 14.467,17.553 14.271 C 17.756 13.767,18.218 13.300,18.720 13.093 C 18.966 12.992,19.027 12.985,19.860 12.960 C 20.818 12.933,20.908 12.914,21.168 12.685 C 21.246 12.617,21.350 12.467,21.399 12.353 C 21.483 12.158,21.488 12.102,21.470 11.482 C 21.454 10.916,21.436 10.769,21.345 10.468 C 20.962 9.194,19.989 8.242,18.695 7.874 C 18.394 7.789,18.299 7.784,16.610 7.770 L 14.840 7.755 14.840 5.702 C 14.840 3.774,14.835 3.633,14.761 3.394 C 14.485 2.500,13.577 1.938,12.640 2.082 M13.158 3.619 C 13.221 3.652,13.291 3.734,13.316 3.805 C 13.346 3.891,13.360 4.548,13.360 5.845 L 13.360 7.757 9.490 7.769 L 5.620 7.782 5.301 7.874 C 4.916 7.985,4.495 8.177,4.205 8.375 L 3.991 8.521 4.008 8.010 C 4.027 7.473,4.067 7.320,4.263 7.036 C 4.479 6.724,4.567 6.686,8.780 5.093 C 11.002 4.254,12.870 3.565,12.932 3.563 C 12.994 3.561,13.095 3.586,13.158 3.619 M14.300 11.316 C 14.494 11.405,14.616 11.532,14.698 11.729 C 14.849 12.090,14.672 12.516,14.302 12.685 C 14.149 12.754,13.945 12.758,10.509 12.759 C 7.320 12.760,6.859 12.752,6.729 12.698 C 6.101 12.436,6.084 11.600,6.700 11.316 C 6.852 11.246,7.046 11.242,10.500 11.242 C 13.954 11.242,14.148 11.246,14.300 11.316 M19.192 14.048 C 18.997 14.099,18.688 14.375,18.595 14.578 C 18.507 14.772,18.496 15.185,18.574 15.371 C 18.659 15.574,18.833 15.755,19.055 15.872 C 19.258 15.979,19.270 15.980,20.168 15.993 C 21.487 16.011,21.480 16.017,21.480 15.000 C 21.480 13.992,21.487 13.998,20.214 14.004 C 19.733 14.006,19.273 14.026,19.192 14.048 " fill="#292D32" stroke="none" fill-rule="evenodd"></path></svg>