<svg width="24" height="24" viewBox="0 0 24 24" fill="none" xmlns="http://www.w3.org/2000/svg"><path d="M12.740 2.067 C 12.674 2.076,12.529 2.109,12.418 2.141 C 12.118 2.225,4.293 5.186,4.058 5.304 C 3.339 5.664,2.805 6.338,2.599 7.145 C 2.524 7.438,2.520 7.599,2.520 10.471 L 2.520 13.489 2.675 13.645 C 2.812 13.782,2.853 13.800,3.021 13.800 C 3.126 13.800,3.330 13.765,3.476 13.722 C 4.193 13.509,5.192 13.448,5.909 13.575 C 7.632 13.878,9.104 14.962,9.890 16.506 C 10.296 17.303,10.490 18.093,10.491 18.960 C 10.492 19.609,10.408 20.074,10.155 20.815 C 9.924 21.495,9.922 21.597,10.139 21.833 L 10.274 21.980 14.287 21.980 L 18.300 21.980 18.683 21.874 C 19.766 21.575,20.644 20.851,21.118 19.867 C 21.370 19.344,21.446 19.022,21.467 18.380 C 21.486 17.826,21.485 17.817,21.373 17.600 C 21.235 17.331,20.996 17.143,20.720 17.084 C 20.608 17.060,20.242 17.040,19.906 17.040 C 19.492 17.040,19.221 17.021,19.058 16.979 C 18.417 16.815,17.910 16.414,17.629 15.848 L 17.460 15.506 17.461 15.003 C 17.462 14.547,17.473 14.476,17.572 14.240 C 17.784 13.733,18.213 13.306,18.724 13.092 C 18.966 12.991,19.027 12.984,19.860 12.960 C 20.818 12.933,20.908 12.914,21.168 12.685 C 21.246 12.617,21.350 12.467,21.399 12.353 C 21.483 12.158,21.488 12.102,21.470 11.482 C 21.454 10.916,21.436 10.769,21.345 10.468 C 20.962 9.194,19.989 8.242,18.695 7.874 C 18.394 7.789,18.299 7.784,16.610 7.770 L 14.840 7.755 14.840 5.726 C 14.840 3.503,14.833 3.428,14.601 3.022 C 14.369 2.616,13.879 2.232,13.460 2.127 C 13.255 2.076,12.894 2.046,12.740 2.067 M13.154 3.617 C 13.358 3.723,13.360 3.741,13.360 5.821 L 13.360 7.757 9.490 7.769 L 5.620 7.782 5.301 7.874 C 4.916 7.985,4.495 8.177,4.206 8.374 L 3.992 8.520 4.007 8.010 C 4.020 7.561,4.034 7.473,4.127 7.274 C 4.242 7.027,4.481 6.763,4.688 6.656 C 4.954 6.517,12.823 3.565,12.932 3.562 C 12.994 3.561,13.094 3.586,13.154 3.617 M14.300 11.316 C 14.494 11.405,14.616 11.532,14.698 11.729 C 14.849 12.090,14.672 12.516,14.302 12.685 C 14.150 12.754,13.975 12.758,11.509 12.759 C 9.223 12.760,8.858 12.752,8.729 12.698 C 8.101 12.436,8.084 11.600,8.700 11.316 C 8.850 11.246,9.018 11.242,11.500 11.242 C 13.982 11.242,14.150 11.246,14.300 11.316 M19.192 14.048 C 18.997 14.099,18.688 14.375,18.595 14.578 C 18.507 14.772,18.496 15.185,18.574 15.371 C 18.659 15.574,18.833 15.755,19.055 15.872 C 19.258 15.979,19.270 15.980,20.168 15.993 C 21.487 16.011,21.480 16.017,21.480 15.000 C 21.480 13.992,21.487 13.998,20.214 14.004 C 19.733 14.006,19.273 14.026,19.192 14.048 M4.420 15.041 C 2.951 15.268,1.680 16.329,1.216 17.716 C 0.623 19.487,1.324 21.418,2.922 22.409 C 3.578 22.817,4.191 22.981,5.040 22.978 C 5.540 22.976,5.674 22.961,6.010 22.869 C 8.749 22.118,9.892 18.852,8.200 16.607 C 7.655 15.883,6.822 15.331,5.958 15.120 C 5.568 15.025,4.785 14.985,4.420 15.041 M6.989 17.427 C 7.204 17.600,7.286 17.761,7.288 18.011 C 7.291 18.288,7.227 18.400,6.873 18.745 C 6.178 19.419,4.872 20.602,4.754 20.663 C 4.590 20.748,4.291 20.748,4.111 20.663 C 4.034 20.626,3.700 20.322,3.370 19.988 C 2.828 19.438,2.767 19.362,2.730 19.190 C 2.607 18.614,3.052 18.167,3.626 18.289 C 3.779 18.322,3.869 18.384,4.134 18.639 L 4.455 18.949 5.294 18.170 C 5.756 17.741,6.189 17.365,6.257 17.335 C 6.331 17.301,6.471 17.284,6.609 17.292 C 6.794 17.302,6.868 17.329,6.989 17.427 " fill="#292D32" stroke="none" fill-rule="evenodd"></path></svg>