<svg width="25" height="24" viewBox="0 0 25 24" fill="none" xmlns="http://www.w3.org/2000/svg"><path d="M12.854 2.041 C 12.589 2.099,4.770 5.068,4.486 5.218 C 4.331 5.299,4.096 5.485,3.894 5.687 C 3.629 5.951,3.523 6.095,3.387 6.375 C 3.080 7.007,3.083 6.970,3.083 10.196 C 3.084 12.998,3.086 13.066,3.168 13.200 C 3.263 13.356,3.502 13.475,3.664 13.447 C 3.723 13.437,3.955 13.379,4.179 13.319 C 5.585 12.943,7.077 13.173,8.365 13.965 C 8.867 14.273,9.727 15.133,10.035 15.635 C 10.480 16.358,10.744 17.134,10.836 17.984 C 10.917 18.738,10.831 19.356,10.514 20.287 C 10.382 20.676,10.333 20.881,10.350 20.967 C 10.388 21.161,10.531 21.327,10.700 21.376 C 10.808 21.408,12.008 21.418,14.667 21.408 C 18.433 21.394,18.483 21.393,18.800 21.303 C 20.351 20.866,21.403 19.617,21.538 18.052 C 21.599 17.350,21.491 17.008,21.135 16.773 C 20.908 16.624,20.677 16.586,20.000 16.584 C 19.100 16.582,18.696 16.444,18.203 15.970 C 17.406 15.204,17.403 14.005,18.197 13.211 C 18.702 12.706,18.950 12.624,20.083 12.588 C 20.922 12.561,20.941 12.559,21.114 12.447 C 21.505 12.194,21.619 11.806,21.548 10.969 C 21.470 10.064,21.153 9.335,20.571 8.722 C 20.063 8.187,19.505 7.850,18.813 7.660 C 18.500 7.574,18.372 7.567,16.783 7.552 L 15.087 7.535 15.074 5.465 C 15.060 3.164,15.072 3.269,14.764 2.805 C 14.582 2.530,14.221 2.250,13.884 2.124 C 13.618 2.023,13.116 1.983,12.854 2.041 M13.497 3.566 L 13.625 3.674 13.625 5.608 L 13.625 7.542 10.073 7.542 C 7.953 7.543,6.403 7.560,6.229 7.585 C 5.782 7.648,5.278 7.824,4.907 8.048 C 4.722 8.159,4.564 8.250,4.556 8.250 C 4.548 8.250,4.542 8.053,4.542 7.813 C 4.542 7.485,4.561 7.324,4.621 7.168 C 4.724 6.895,4.924 6.649,5.146 6.519 C 5.390 6.376,13.117 3.462,13.257 3.460 C 13.318 3.459,13.426 3.507,13.497 3.566 M14.554 11.015 C 14.737 11.091,14.948 11.341,14.982 11.520 C 15.044 11.852,14.886 12.170,14.585 12.323 L 14.399 12.417 11.833 12.417 L 9.268 12.417 9.082 12.323 C 8.784 12.172,8.623 11.852,8.683 11.530 C 8.715 11.358,8.933 11.090,9.101 11.017 C 9.290 10.935,14.357 10.932,14.554 11.015 M19.327 13.674 C 19.119 13.730,18.860 13.961,18.749 14.189 C 18.675 14.343,18.661 14.433,18.674 14.667 C 18.694 15.030,18.833 15.245,19.167 15.433 L 19.396 15.563 20.253 15.576 C 21.543 15.597,21.563 15.583,21.563 14.604 C 21.563 13.635,21.547 13.623,20.303 13.629 C 19.850 13.632,19.411 13.652,19.327 13.674 M4.694 14.690 C 3.602 14.934,2.668 15.618,2.120 16.576 C 1.510 17.642,1.464 19.038,2.002 20.164 C 2.500 21.206,3.363 21.923,4.521 22.258 C 4.810 22.341,4.943 22.354,5.521 22.351 C 6.125 22.349,6.222 22.338,6.562 22.234 C 7.270 22.018,7.737 21.742,8.243 21.242 C 9.353 20.143,9.697 18.511,9.123 17.060 C 8.685 15.950,7.767 15.117,6.596 14.766 C 6.286 14.673,6.132 14.654,5.604 14.641 C 5.151 14.631,4.901 14.644,4.694 14.690 M5.817 16.371 C 6.135 16.516,6.247 16.790,6.249 17.427 L 6.250 17.792 6.685 17.792 C 6.924 17.792,7.172 17.812,7.237 17.836 C 7.714 18.017,7.832 18.674,7.451 19.029 C 7.275 19.194,7.071 19.250,6.653 19.250 L 6.261 19.250 6.242 19.705 C 6.225 20.109,6.211 20.180,6.114 20.325 C 5.862 20.706,5.351 20.772,5.028 20.466 C 4.824 20.274,4.792 20.166,4.792 19.690 L 4.792 19.250 4.365 19.249 C 3.900 19.248,3.687 19.184,3.513 18.995 C 3.222 18.678,3.298 18.132,3.665 17.904 C 3.788 17.828,3.894 17.809,4.292 17.792 L 4.771 17.771 4.792 17.271 C 4.816 16.684,4.886 16.524,5.178 16.379 C 5.395 16.272,5.593 16.269,5.817 16.371 " fill="#292D32" stroke="none" fill-rule="evenodd"></path></svg>