<svg width="24" height="24" viewBox="0 0 24 24" fill="none" xmlns="http://www.w3.org/2000/svg"><path d="M6.960 2.046 C 6.236 2.116,5.358 2.357,4.796 2.641 C 4.426 2.828,3.928 3.183,3.624 3.475 C 2.737 4.332,2.251 5.370,2.062 6.812 C 1.970 7.515,1.969 16.481,2.061 17.188 C 2.239 18.550,2.681 19.544,3.476 20.372 C 4.162 21.084,4.935 21.524,5.956 21.780 C 6.817 21.997,6.896 22.000,11.993 22.000 C 14.960 22.000,16.828 21.985,17.041 21.959 C 19.985 21.603,21.695 19.840,21.962 16.885 C 21.990 16.579,21.999 14.787,21.989 11.660 C 21.974 7.001,21.972 6.891,21.889 6.456 C 21.642 5.171,21.165 4.235,20.369 3.478 C 19.583 2.729,18.652 2.295,17.359 2.076 C 16.995 2.014,7.572 1.987,6.960 2.046 M14.620 6.674 C 14.875 6.793,15.002 6.907,16.048 7.952 C 17.088 8.993,17.207 9.126,17.328 9.380 C 17.452 9.644,17.460 9.685,17.460 10.100 C 17.460 10.812,17.529 10.719,15.520 12.735 L 13.811 14.451 13.601 14.471 L 13.392 14.491 11.456 12.555 C 9.583 10.682,9.520 10.614,9.520 10.468 C 9.520 10.384,9.546 10.267,9.577 10.208 C 9.659 10.054,12.909 6.831,13.093 6.721 C 13.358 6.563,13.554 6.520,13.960 6.532 C 14.293 6.541,14.375 6.559,14.620 6.674 M8.872 11.417 C 8.931 11.449,9.792 12.290,10.786 13.287 C 12.717 15.227,12.736 15.249,12.643 15.532 C 12.614 15.619,12.334 15.927,11.810 16.449 C 10.946 17.309,10.803 17.408,10.325 17.473 C 10.000 17.518,9.683 17.466,9.360 17.316 C 9.129 17.210,8.972 17.068,7.952 16.048 C 6.909 15.003,6.793 14.874,6.674 14.620 C 6.431 14.100,6.481 13.439,6.799 12.983 C 6.862 12.893,7.244 12.492,7.649 12.090 L 8.385 11.360 8.574 11.360 C 8.679 11.360,8.813 11.386,8.872 11.417 " fill="#292D32" stroke="none" fill-rule="evenodd"></path></svg>