<svg width="24" height="24" viewBox="0 0 24 24" fill="none" xmlns="http://www.w3.org/2000/svg"><path d="M15.004 2.044 C 14.662 2.096,14.116 2.306,13.820 2.498 C 13.490 2.711,8.267 7.919,8.161 8.140 C 8.040 8.389,8.022 8.599,8.099 8.865 L 8.166 9.100 11.473 12.411 C 15.165 16.109,14.979 15.947,15.483 15.910 C 15.723 15.893,15.795 15.869,15.972 15.747 C 16.228 15.570,21.210 10.578,21.408 10.300 C 21.799 9.751,21.975 9.196,21.974 8.520 C 21.973 7.862,21.843 7.418,21.488 6.861 C 21.290 6.551,20.034 5.261,18.279 3.565 C 17.352 2.670,17.177 2.519,16.899 2.373 C 16.328 2.073,15.617 1.950,15.004 2.044 M6.340 10.076 C 6.274 10.093,6.157 10.139,6.080 10.178 C 5.923 10.259,3.325 12.821,2.835 13.378 C 2.033 14.291,1.805 15.403,2.199 16.483 C 2.423 17.097,2.539 17.232,4.674 19.365 C 6.309 20.999,6.709 21.378,6.940 21.513 C 8.005 22.135,9.226 22.104,10.240 21.429 C 10.339 21.364,11.164 20.570,12.074 19.665 C 13.880 17.869,13.919 17.821,13.919 17.400 C 13.919 16.959,14.009 17.060,10.454 13.514 C 8.293 11.358,7.124 10.220,7.016 10.166 C 6.827 10.072,6.515 10.030,6.340 10.076 M13.634 20.601 C 13.350 20.751,13.208 21.046,13.258 21.380 C 13.293 21.616,13.536 21.898,13.755 21.959 C 13.848 21.985,15.209 21.999,17.540 21.999 C 21.009 21.998,21.188 21.995,21.345 21.923 C 21.435 21.882,21.556 21.788,21.612 21.714 C 21.711 21.584,21.808 21.279,21.780 21.185 C 21.773 21.160,21.756 21.091,21.743 21.031 C 21.714 20.897,21.508 20.657,21.356 20.578 C 21.260 20.529,20.695 20.520,17.512 20.522 C 13.902 20.523,13.775 20.526,13.634 20.601 " fill="#292D32" stroke="none" fill-rule="evenodd"></path></svg>