<svg width="24" height="24" viewBox="0 0 24 24" fill="none" xmlns="http://www.w3.org/2000/svg"><path d="M11.691 3.319 C 11.476 3.416,8.575 6.330,8.471 6.553 C 8.303 6.913,8.490 7.379,8.860 7.521 C 9.032 7.587,9.333 7.576,9.488 7.498 C 9.560 7.461,9.985 7.069,10.430 6.627 L 11.240 5.823 11.240 7.851 L 11.240 9.880 11.980 9.880 L 12.720 9.880 12.720 7.832 L 12.720 5.784 13.570 6.627 C 14.490 7.538,14.559 7.586,14.923 7.551 C 15.416 7.503,15.717 6.963,15.503 6.512 C 15.468 6.437,14.750 5.690,13.909 4.852 C 12.620 3.566,12.355 3.321,12.220 3.284 C 11.996 3.223,11.885 3.230,11.691 3.319 M2.500 9.976 C 2.329 10.051,2.161 10.232,2.068 10.439 C 1.995 10.603,1.990 10.672,2.014 11.259 C 2.191 15.655,4.709 19.051,8.704 20.281 C 9.793 20.617,10.663 20.737,12.000 20.737 C 13.103 20.737,13.621 20.686,14.476 20.495 C 17.197 19.887,19.334 18.355,20.656 16.065 C 21.453 14.684,21.915 13.015,21.986 11.259 C 22.010 10.672,22.005 10.603,21.932 10.439 C 21.837 10.227,21.669 10.050,21.491 9.974 C 21.385 9.930,20.598 9.920,17.063 9.920 L 12.763 9.920 12.751 12.750 C 12.739 15.862,12.754 15.682,12.494 15.927 C 12.353 16.061,12.201 16.120,12.000 16.120 C 11.799 16.120,11.647 16.061,11.506 15.927 C 11.246 15.682,11.261 15.862,11.249 12.750 L 11.237 9.920 6.929 9.922 C 3.446 9.923,2.597 9.933,2.500 9.976 " fill="#292D32" stroke="none" fill-rule="evenodd"></path></svg>