<svg width="24" height="24" viewBox="0 0 24 24" fill="none" xmlns="http://www.w3.org/2000/svg"><path d="M11.120 2.039 C 8.336 2.318,5.905 3.624,4.193 5.760 C 1.474 9.155,1.267 13.917,3.682 17.533 C 6.770 22.155,12.946 23.386,17.560 20.299 C 22.155 17.225,23.377 11.041,20.299 6.440 C 18.728 4.092,16.319 2.562,13.493 2.119 C 12.909 2.027,11.660 1.985,11.120 2.039 M16.823 6.836 C 17.014 6.922,17.143 7.073,17.202 7.275 C 17.230 7.372,17.240 8.281,17.232 10.003 L 17.220 12.586 17.124 12.727 C 16.960 12.965,16.782 13.060,16.500 13.060 C 16.294 13.060,16.226 13.041,16.088 12.946 C 15.994 12.880,15.888 12.759,15.841 12.663 C 15.764 12.502,15.760 12.422,15.760 10.897 L 15.760 9.300 11.850 13.206 C 9.699 15.355,7.882 17.141,7.812 17.176 C 7.557 17.303,7.143 17.225,6.952 17.013 C 6.768 16.810,6.713 16.471,6.821 16.209 C 6.865 16.104,8.032 14.910,10.791 12.150 L 14.700 8.240 13.103 8.240 C 11.578 8.240,11.498 8.236,11.337 8.159 C 11.241 8.112,11.120 8.006,11.054 7.912 C 10.959 7.774,10.940 7.706,10.940 7.500 C 10.940 7.294,10.959 7.226,11.054 7.089 C 11.117 6.998,11.242 6.888,11.334 6.842 C 11.496 6.762,11.556 6.760,14.080 6.761 C 16.505 6.762,16.670 6.766,16.823 6.836 " fill="#292D32" stroke="none" fill-rule="evenodd"></path></svg>