<svg width="24" height="24" viewBox="0 0 24 24" fill="none" xmlns="http://www.w3.org/2000/svg"><path d="M11.742 2.060 C 11.620 2.103,11.188 2.512,9.812 3.888 C 8.837 4.863,8.011 5.721,7.975 5.795 C 7.876 6.004,7.915 6.353,8.058 6.540 C 8.262 6.809,8.638 6.909,8.951 6.778 C 9.049 6.737,9.469 6.349,10.170 5.649 L 11.240 4.582 11.240 6.791 L 11.240 9.000 9.050 9.001 C 7.845 9.001,6.693 9.019,6.490 9.040 C 5.168 9.180,4.146 9.646,3.352 10.473 C 2.705 11.148,2.350 11.851,2.110 12.936 C 2.023 13.326,2.020 13.413,2.020 15.460 C 2.020 17.801,2.029 17.907,2.284 18.709 C 2.531 19.482,2.905 20.097,3.450 20.626 C 4.127 21.283,4.847 21.649,5.936 21.890 L 6.340 21.980 11.960 21.980 C 18.228 21.980,17.867 21.995,18.746 21.701 C 20.494 21.116,21.540 19.860,21.912 17.900 C 21.971 17.590,21.980 17.257,21.980 15.500 C 21.980 13.225,21.966 13.059,21.699 12.254 C 21.440 11.472,21.089 10.897,20.550 10.374 C 19.752 9.599,18.783 9.174,17.510 9.040 C 17.307 9.019,16.155 9.001,14.950 9.001 L 12.760 9.000 12.760 6.791 L 12.760 4.582 13.830 5.649 C 14.531 6.349,14.951 6.737,15.049 6.778 C 15.370 6.912,15.734 6.814,15.945 6.536 C 16.096 6.339,16.124 6.001,16.007 5.777 C 15.960 5.685,15.186 4.883,14.153 3.853 C 12.647 2.353,12.356 2.080,12.220 2.044 C 12.015 1.988,11.935 1.991,11.742 2.060 M12.751 12.230 C 12.741 15.147,12.734 15.472,12.674 15.580 C 12.540 15.822,12.255 16.000,12.000 16.000 C 11.745 16.000,11.460 15.822,11.326 15.580 C 11.266 15.472,11.259 15.147,11.249 12.230 L 11.238 9.000 12.000 9.000 L 12.762 9.000 12.751 12.230 " fill="#292D32" stroke="none" fill-rule="evenodd"></path></svg>