<svg width="24" height="24" viewBox="0 0 24 24" fill="none" xmlns="http://www.w3.org/2000/svg"><path d="M6.960 2.046 C 6.236 2.116,5.358 2.357,4.796 2.641 C 4.426 2.828,3.928 3.183,3.624 3.475 C 2.737 4.332,2.251 5.370,2.062 6.812 C 1.970 7.515,1.969 16.481,2.061 17.188 C 2.239 18.550,2.681 19.544,3.476 20.372 C 4.162 21.084,4.935 21.524,5.956 21.780 C 6.817 21.997,6.896 22.000,11.993 22.000 C 14.960 22.000,16.828 21.985,17.041 21.959 C 19.985 21.603,21.695 19.840,21.962 16.885 C 21.990 16.579,21.999 14.787,21.989 11.660 C 21.974 7.001,21.972 6.891,21.889 6.456 C 21.642 5.171,21.165 4.235,20.369 3.478 C 19.583 2.729,18.652 2.295,17.359 2.076 C 16.995 2.014,7.572 1.987,6.960 2.046 M16.823 6.836 C 17.014 6.922,17.143 7.073,17.202 7.275 C 17.230 7.372,17.240 8.281,17.232 10.003 L 17.220 12.586 17.124 12.727 C 16.960 12.965,16.782 13.060,16.500 13.060 C 16.294 13.060,16.226 13.041,16.088 12.946 C 15.994 12.880,15.888 12.759,15.841 12.663 C 15.764 12.502,15.760 12.422,15.760 10.897 L 15.760 9.300 11.850 13.206 C 9.699 15.355,7.882 17.141,7.812 17.176 C 7.557 17.303,7.143 17.225,6.952 17.013 C 6.768 16.810,6.713 16.471,6.821 16.209 C 6.865 16.104,8.032 14.910,10.791 12.150 L 14.700 8.240 13.103 8.240 C 11.578 8.240,11.498 8.236,11.337 8.159 C 11.241 8.112,11.120 8.006,11.054 7.912 C 10.959 7.774,10.940 7.706,10.940 7.500 C 10.940 7.294,10.959 7.226,11.054 7.089 C 11.117 6.998,11.242 6.888,11.334 6.842 C 11.496 6.762,11.556 6.760,14.080 6.761 C 16.505 6.762,16.670 6.766,16.823 6.836 " fill="#292D32" stroke="none" fill-rule="evenodd"></path></svg>