<svg width="24" height="24" viewBox="0 0 24 24" fill="none" xmlns="http://www.w3.org/2000/svg"><path d="M7.540 2.026 C 5.892 2.240,4.579 3.379,4.131 4.983 L 4.020 5.380 4.020 9.460 L 4.020 13.540 4.106 13.700 C 4.219 13.909,4.378 14.056,4.600 14.157 C 4.779 14.238,4.819 14.238,12.500 14.238 C 20.181 14.238,20.221 14.238,20.400 14.157 C 20.622 14.056,20.781 13.909,20.894 13.700 L 20.980 13.540 20.980 9.460 L 20.980 5.380 20.874 4.995 C 20.611 4.045,20.044 3.239,19.269 2.712 C 18.928 2.481,18.352 2.218,17.958 2.113 L 17.620 2.023 12.640 2.017 C 9.901 2.013,7.606 2.018,7.540 2.026 M8.189 6.286 C 8.577 6.384,8.814 6.790,8.714 7.186 C 8.656 7.416,8.428 7.657,8.213 7.717 C 8.015 7.772,6.985 7.772,6.787 7.717 C 6.572 7.657,6.344 7.416,6.286 7.186 C 6.190 6.806,6.425 6.385,6.785 6.289 C 7.001 6.232,7.966 6.230,8.189 6.286 M8.426 8.904 C 8.645 9.081,8.731 9.248,8.731 9.494 C 8.731 9.727,8.662 9.888,8.494 10.047 C 8.314 10.218,8.198 10.240,7.500 10.240 C 6.802 10.240,6.686 10.218,6.506 10.047 C 6.339 9.889,6.269 9.727,6.269 9.500 C 6.269 9.198,6.410 8.976,6.700 8.822 C 6.800 8.769,6.944 8.760,7.546 8.769 L 8.273 8.780 8.426 8.904 M8.189 11.286 C 8.577 11.384,8.814 11.790,8.714 12.186 C 8.656 12.416,8.428 12.657,8.213 12.717 C 8.015 12.772,6.985 12.772,6.787 12.717 C 6.572 12.657,6.344 12.416,6.286 12.186 C 6.190 11.806,6.425 11.385,6.785 11.289 C 7.001 11.232,7.966 11.230,8.189 11.286 M4.568 15.864 C 4.323 15.985,4.146 16.185,4.061 16.435 C 3.987 16.653,3.975 18.054,4.043 18.545 C 4.290 20.318,5.722 21.737,7.486 21.958 C 7.940 22.015,17.060 22.015,17.514 21.958 C 19.291 21.736,20.736 20.291,20.958 18.514 C 21.023 17.998,21.012 16.695,20.941 16.457 C 20.863 16.196,20.687 15.991,20.432 15.864 L 20.224 15.760 12.500 15.760 L 4.776 15.760 4.568 15.864 M17.461 17.871 C 18.008 18.152,18.165 18.879,17.785 19.377 C 17.733 19.446,17.593 19.555,17.475 19.620 C 16.778 20.005,15.930 19.449,16.011 18.660 C 16.055 18.237,16.306 17.931,16.720 17.795 C 16.885 17.741,17.289 17.782,17.461 17.871 " fill="#292D32" stroke="none" fill-rule="evenodd"></path></svg>