<svg width="24" height="24" viewBox="0 0 24 24" fill="none" xmlns="http://www.w3.org/2000/svg"><path d="M20.980 2.059 C 20.892 2.092,20.812 2.119,20.802 2.119 C 20.792 2.120,20.072 2.830,19.202 3.698 L 17.620 5.276 17.229 5.023 C 16.245 4.387,15.037 3.881,13.940 3.645 C 13.232 3.493,12.875 3.460,11.960 3.461 C 10.976 3.463,10.519 3.521,9.617 3.757 C 7.709 4.258,5.774 5.478,4.322 7.098 C 3.571 7.935,2.796 9.002,2.524 9.571 C 1.854 10.979,1.841 12.959,2.494 14.338 C 2.856 15.102,3.752 16.305,4.627 17.202 L 5.156 17.744 3.716 19.182 C 2.924 19.973,2.225 20.697,2.161 20.792 C 1.940 21.123,1.969 21.498,2.235 21.764 C 2.467 21.996,2.777 22.056,3.060 21.923 C 3.172 21.871,6.039 19.026,12.566 12.494 C 20.262 4.791,21.920 3.113,21.960 2.985 C 22.142 2.411,21.546 1.848,20.980 2.059 M19.140 7.616 C 18.985 7.690,18.597 8.056,17.408 9.248 L 15.875 10.785 15.962 11.202 C 16.127 12.002,16.020 12.935,15.677 13.672 C 15.154 14.800,14.219 15.586,13.020 15.907 C 12.668 16.001,12.546 16.014,12.000 16.013 C 11.499 16.013,11.325 15.998,11.093 15.932 L 10.806 15.851 9.488 17.175 C 8.059 18.612,8.062 18.607,8.066 19.044 C 8.068 19.329,8.191 19.592,8.411 19.780 C 8.535 19.886,8.708 19.964,9.117 20.097 C 10.110 20.419,10.985 20.560,12.000 20.560 C 15.234 20.560,18.272 18.881,20.578 15.820 C 21.440 14.675,21.755 14.022,21.927 13.020 C 21.997 12.613,22.006 12.433,21.987 11.840 C 21.946 10.505,21.677 9.722,20.868 8.579 C 20.417 7.943,20.121 7.635,19.895 7.568 C 19.635 7.492,19.364 7.509,19.140 7.616 M13.000 8.079 C 13.290 8.151,14.004 8.459,14.200 8.596 C 14.249 8.630,14.182 8.716,13.825 9.074 L 13.390 9.511 13.142 9.395 C 12.495 9.092,11.587 9.081,10.907 9.368 C 10.281 9.631,9.745 10.138,9.439 10.756 C 9.084 11.471,9.066 12.439,9.395 13.142 L 9.511 13.390 9.077 13.823 C 8.838 14.061,8.635 14.248,8.625 14.238 C 8.615 14.228,8.533 14.083,8.443 13.915 C 7.698 12.533,7.832 10.792,8.778 9.563 C 9.400 8.754,10.289 8.208,11.293 8.017 C 11.702 7.939,12.561 7.970,13.000 8.079 M13.320 13.340 L 11.820 14.840 12.080 14.839 C 12.478 14.838,12.862 14.741,13.280 14.534 C 13.594 14.379,13.719 14.287,14.003 14.003 C 14.287 13.719,14.379 13.594,14.534 13.280 C 14.745 12.854,14.850 12.429,14.832 12.074 L 14.820 11.839 13.320 13.340 " fill="#292D32" stroke="none" fill-rule="evenodd"></path></svg>