<svg width="24" height="24" viewBox="0 0 24 24" fill="none" xmlns="http://www.w3.org/2000/svg"><path d="M10.920 3.500 C 7.927 3.863,5.213 5.633,3.132 8.580 C 2.555 9.398,2.295 9.965,2.113 10.809 C 2.039 11.154,2.024 11.345,2.024 12.000 C 2.024 12.902,2.095 13.325,2.360 14.030 C 2.711 14.961,3.659 16.258,4.827 17.402 C 5.511 18.073,5.901 18.393,6.600 18.861 C 7.809 19.669,9.109 20.191,10.547 20.445 C 11.236 20.567,12.618 20.578,13.319 20.467 C 13.901 20.375,14.706 20.169,15.220 19.980 C 16.181 19.627,17.376 18.945,18.240 18.256 C 18.723 17.871,19.883 16.699,20.294 16.180 C 20.761 15.591,21.318 14.761,21.490 14.397 C 21.848 13.641,21.979 12.991,21.977 11.980 C 21.975 11.120,21.908 10.706,21.660 10.011 C 21.386 9.246,20.697 8.231,19.688 7.108 C 18.144 5.389,16.054 4.117,14.030 3.663 C 13.075 3.449,11.863 3.385,10.920 3.500 M13.000 8.093 C 13.727 8.279,14.361 8.647,14.885 9.186 C 15.397 9.715,15.720 10.286,15.911 11.000 C 15.999 11.329,16.012 11.463,16.012 12.000 C 16.012 12.537,15.999 12.671,15.911 13.000 C 15.714 13.740,15.348 14.367,14.814 14.883 C 14.270 15.408,13.748 15.705,13.011 15.910 C 12.663 16.006,12.551 16.018,12.000 16.018 C 11.449 16.018,11.337 16.006,10.989 15.910 C 10.252 15.705,9.730 15.408,9.186 14.883 C 8.652 14.367,8.286 13.740,8.089 13.000 C 8.001 12.671,7.988 12.537,7.988 12.000 C 7.988 11.463,8.001 11.329,8.089 11.000 C 8.286 10.261,8.650 9.636,9.186 9.115 C 9.814 8.506,10.551 8.139,11.423 8.001 C 11.818 7.939,12.570 7.983,13.000 8.093 M11.293 9.240 C 10.491 9.450,9.829 9.991,9.464 10.734 C 8.690 12.309,9.468 14.154,11.139 14.709 C 11.423 14.803,11.522 14.815,12.000 14.815 C 12.478 14.815,12.577 14.803,12.860 14.709 C 13.319 14.556,13.654 14.345,14.021 13.980 C 14.563 13.441,14.839 12.772,14.839 12.000 C 14.839 11.525,14.752 11.162,14.534 10.720 C 14.180 10.003,13.481 9.440,12.695 9.239 C 12.291 9.135,11.689 9.136,11.293 9.240 " fill="#292D32" stroke="none" fill-rule="evenodd"></path></svg>