<svg width="24" height="24" viewBox="0 0 24 24" fill="none" xmlns="http://www.w3.org/2000/svg"><path d="M6.991 2.044 C 6.252 2.117,5.350 2.362,4.800 2.640 C 4.372 2.856,3.859 3.234,3.515 3.586 C 2.777 4.344,2.333 5.262,2.108 6.497 C 2.020 6.978,2.020 7.001,2.020 12.000 C 2.020 16.999,2.020 17.022,2.108 17.503 C 2.333 18.738,2.776 19.656,3.515 20.414 C 4.254 21.172,5.211 21.651,6.456 21.888 C 6.878 21.968,7.052 21.973,10.028 21.989 C 13.501 22.007,13.336 22.019,13.531 21.745 C 13.612 21.632,13.623 21.555,13.648 20.920 C 13.663 20.535,13.694 20.148,13.717 20.060 C 13.740 19.972,13.759 19.878,13.759 19.851 C 13.760 19.824,13.616 19.649,13.440 19.462 C 13.054 19.052,12.842 18.733,12.685 18.326 C 12.376 17.524,12.450 16.765,12.905 16.075 C 13.284 15.500,13.972 15.069,14.780 14.902 C 14.956 14.865,15.140 14.827,15.189 14.817 C 15.255 14.804,15.338 14.680,15.522 14.320 C 15.932 13.515,16.383 13.027,16.980 12.742 C 17.336 12.572,17.622 12.506,18.000 12.506 C 18.378 12.506,18.664 12.572,19.020 12.742 C 19.606 13.022,20.052 13.498,20.460 14.280 C 20.679 14.699,20.708 14.737,20.878 14.814 C 21.141 14.934,21.575 14.932,21.745 14.811 C 22.020 14.615,22.006 14.852,21.989 10.669 C 21.974 7.030,21.970 6.885,21.888 6.456 C 21.656 5.241,21.212 4.333,20.485 3.586 C 19.747 2.829,18.795 2.351,17.544 2.111 C 17.107 2.027,17.018 2.026,12.220 2.017 C 9.536 2.013,7.183 2.025,6.991 2.044 M16.077 7.893 C 16.352 8.075,16.478 8.471,16.359 8.782 C 16.302 8.934,13.922 11.992,13.719 12.176 C 13.626 12.260,13.431 12.385,13.285 12.454 C 13.036 12.573,12.993 12.580,12.559 12.580 C 12.120 12.580,12.086 12.574,11.839 12.450 C 11.697 12.379,11.130 11.970,10.580 11.540 C 10.030 11.111,9.556 10.760,9.527 10.760 C 9.498 10.760,9.442 10.778,9.401 10.799 C 9.361 10.821,8.765 11.569,8.077 12.462 C 6.728 14.212,6.701 14.240,6.340 14.240 C 5.869 14.240,5.510 13.834,5.578 13.378 C 5.609 13.173,5.583 13.210,6.979 11.400 C 8.316 9.667,8.227 9.775,8.474 9.597 C 8.805 9.360,9.132 9.267,9.574 9.287 C 10.111 9.310,10.275 9.401,11.457 10.334 C 12.202 10.922,12.481 11.120,12.563 11.120 C 12.696 11.120,12.650 11.174,14.080 9.325 C 14.994 8.143,15.201 7.897,15.337 7.833 C 15.563 7.728,15.863 7.752,16.077 7.893 M17.748 14.058 C 17.350 14.200,17.121 14.466,16.739 15.231 C 16.349 16.010,16.142 16.173,15.357 16.320 C 14.637 16.454,14.282 16.650,14.102 17.011 C 13.857 17.502,14.044 17.961,14.803 18.740 C 14.963 18.903,15.113 19.103,15.164 19.219 C 15.287 19.499,15.307 19.878,15.218 20.265 C 15.178 20.439,15.145 20.741,15.145 20.940 C 15.143 21.246,15.159 21.334,15.248 21.527 C 15.441 21.945,15.852 22.094,16.385 21.941 C 16.605 21.878,16.753 21.806,17.331 21.482 C 17.597 21.333,17.899 21.280,18.222 21.323 C 18.384 21.345,18.554 21.417,18.852 21.587 C 19.076 21.715,19.377 21.860,19.520 21.909 C 20.232 22.152,20.719 21.895,20.838 21.214 C 20.886 20.941,20.876 20.792,20.773 20.260 C 20.696 19.864,20.719 19.485,20.836 19.219 C 20.887 19.103,21.037 18.903,21.197 18.740 C 21.927 17.991,22.133 17.517,21.925 17.059 C 21.751 16.677,21.365 16.454,20.643 16.319 C 19.858 16.173,19.651 16.010,19.257 15.226 C 18.964 14.640,18.775 14.369,18.553 14.215 C 18.379 14.094,18.141 14.004,18.000 14.004 C 17.945 14.004,17.832 14.028,17.748 14.058 " fill="#292D32" stroke="none" fill-rule="evenodd"></path></svg>