<svg width="24" height="24" viewBox="0 0 24 24" fill="none" xmlns="http://www.w3.org/2000/svg"><path d="M7.080 2.043 C 5.603 2.183,4.466 2.658,3.607 3.495 C 2.728 4.351,2.248 5.383,2.061 6.812 C 2.009 7.213,2.000 7.988,2.000 11.984 C 2.000 15.048,2.015 16.818,2.043 17.072 C 2.263 19.073,3.249 20.585,4.860 21.390 C 5.397 21.659,6.217 21.880,6.967 21.959 C 7.189 21.983,9.241 21.999,12.028 21.999 C 16.029 22.000,16.785 21.991,17.188 21.938 C 18.550 21.760,19.532 21.326,20.356 20.541 C 21.258 19.681,21.748 18.643,21.938 17.188 C 21.991 16.785,22.000 16.025,22.000 12.008 C 21.999 9.043,21.984 7.167,21.958 6.940 C 21.802 5.574,21.336 4.484,20.553 3.657 C 19.676 2.730,18.479 2.188,16.983 2.043 C 16.468 1.992,7.611 1.993,7.080 2.043 M15.890 6.913 C 16.130 7.032,16.375 7.309,16.438 7.531 C 16.471 7.649,16.482 7.977,16.473 8.562 L 16.460 9.420 16.329 9.689 C 16.256 9.836,16.148 10.015,16.089 10.086 C 16.029 10.158,15.428 10.706,14.753 11.306 C 13.118 12.759,13.200 12.585,13.200 14.592 L 13.200 15.860 13.085 16.100 C 12.947 16.387,12.851 16.481,12.381 16.782 C 11.875 17.106,11.745 17.158,11.440 17.158 C 11.032 17.158,10.688 16.961,10.508 16.625 C 10.422 16.464,10.419 16.415,10.398 14.780 L 10.377 13.100 10.267 12.819 C 10.207 12.664,10.086 12.448,9.999 12.339 C 9.600 11.837,9.600 11.837,9.600 11.641 C 9.600 11.487,9.635 11.396,9.793 11.137 C 10.389 10.161,12.339 7.049,12.394 6.985 C 12.549 6.807,12.618 6.800,14.200 6.810 C 15.681 6.820,15.702 6.821,15.890 6.913 M10.952 6.894 C 11.095 6.973,11.199 7.162,11.200 7.342 C 11.200 7.483,11.079 7.699,10.223 9.082 C 9.546 10.176,9.207 10.688,9.117 10.750 C 8.969 10.854,8.767 10.866,8.603 10.782 C 8.403 10.678,7.824 10.024,7.677 9.735 L 7.540 9.465 7.528 8.553 C 7.517 7.729,7.523 7.625,7.592 7.470 C 7.702 7.222,7.855 7.060,8.089 6.943 L 8.296 6.840 9.578 6.841 C 10.544 6.842,10.883 6.855,10.952 6.894 " fill="#292D32" stroke="none" fill-rule="evenodd"></path></svg>