<svg width="24" height="24" viewBox="0 0 24 24" fill="none" xmlns="http://www.w3.org/2000/svg"><path d="M4.974 2.057 C 4.267 2.228,3.692 2.810,3.500 3.548 C 3.410 3.891,3.413 6.623,3.503 6.974 C 3.589 7.310,3.871 7.890,4.089 8.180 C 4.188 8.312,5.154 9.362,6.235 10.513 C 8.357 12.771,8.429 12.861,8.682 13.557 C 8.919 14.210,8.920 14.218,8.922 17.374 C 8.924 19.969,8.932 20.287,8.993 20.523 C 9.293 21.671,10.671 22.321,11.746 21.823 C 12.051 21.681,13.510 20.723,13.621 20.591 C 13.822 20.353,13.721 20.144,13.251 19.820 C 12.834 19.533,12.176 18.895,11.870 18.480 C 9.729 15.581,10.450 11.504,13.453 9.525 C 14.889 8.578,16.739 8.261,18.350 8.686 C 19.142 8.895,19.223 8.891,19.507 8.629 C 19.898 8.269,20.323 7.512,20.481 6.898 C 20.553 6.616,20.560 6.453,20.560 5.141 C 20.560 3.585,20.550 3.496,20.337 3.073 C 20.206 2.815,19.853 2.447,19.577 2.281 C 19.086 1.985,19.609 2.004,12.000 2.006 C 6.685 2.007,5.135 2.018,4.974 2.057 M16.265 10.045 C 14.258 10.303,12.649 11.812,12.216 13.840 C 12.119 14.299,12.117 15.176,12.213 15.631 C 12.628 17.596,14.101 19.060,16.029 19.423 C 16.783 19.565,17.734 19.486,18.480 19.219 C 20.500 18.495,21.827 16.411,21.608 14.307 C 21.532 13.578,21.293 12.857,20.938 12.281 C 19.948 10.675,18.131 9.806,16.265 10.045 M17.240 12.356 C 17.317 12.395,17.434 12.504,17.500 12.597 C 17.619 12.765,17.620 12.773,17.634 13.381 L 17.648 13.995 18.297 14.007 C 18.938 14.020,18.948 14.021,19.094 14.132 C 19.537 14.471,19.481 15.158,18.990 15.395 C 18.836 15.470,18.744 15.480,18.232 15.480 L 17.648 15.480 17.634 16.110 C 17.620 16.692,17.611 16.753,17.520 16.914 C 17.236 17.412,16.524 17.412,16.240 16.914 C 16.149 16.753,16.140 16.692,16.126 16.110 L 16.112 15.480 15.546 15.479 C 15.084 15.478,14.950 15.465,14.818 15.405 C 14.389 15.210,14.240 14.705,14.497 14.318 C 14.677 14.046,14.824 14.000,15.518 14.000 L 16.120 14.000 16.120 13.522 C 16.120 12.882,16.168 12.672,16.359 12.481 C 16.600 12.240,16.921 12.195,17.240 12.356 " fill="#292D32" stroke="none" fill-rule="evenodd"></path></svg>