<svg width="24" height="24" viewBox="0 0 24 24" fill="none" xmlns="http://www.w3.org/2000/svg"><path d="M4.974 2.057 C 4.267 2.228,3.692 2.810,3.500 3.548 C 3.410 3.891,3.413 6.623,3.503 6.974 C 3.589 7.310,3.871 7.890,4.089 8.180 C 4.188 8.312,5.154 9.362,6.235 10.513 C 8.357 12.771,8.429 12.861,8.682 13.557 C 8.919 14.210,8.920 14.218,8.922 17.374 C 8.924 19.969,8.932 20.287,8.993 20.523 C 9.293 21.671,10.671 22.321,11.746 21.823 C 11.855 21.772,12.300 21.501,12.734 21.220 C 13.600 20.658,13.834 20.445,14.039 20.027 C 14.265 19.569,14.279 19.457,14.279 18.100 C 14.280 16.962,14.274 16.850,14.205 16.738 C 14.160 16.664,13.980 16.526,13.746 16.387 C 12.253 15.496,11.250 14.175,10.827 12.540 C 10.669 11.927,10.627 11.503,10.652 10.760 C 10.685 9.804,10.867 9.061,11.264 8.267 C 11.603 7.587,11.882 7.194,12.416 6.646 C 13.312 5.727,14.343 5.157,15.630 4.871 C 15.960 4.797,16.148 4.783,16.860 4.782 C 17.597 4.780,17.751 4.791,18.114 4.873 C 18.594 4.980,19.237 5.197,19.560 5.360 C 19.895 5.529,20.042 5.546,20.260 5.440 C 20.541 5.304,20.560 5.238,20.560 4.409 C 20.560 3.647,20.527 3.449,20.337 3.073 C 20.206 2.815,19.853 2.447,19.577 2.281 C 19.086 1.985,19.609 2.004,12.000 2.006 C 6.685 2.007,5.135 2.018,4.974 2.057 M16.373 6.283 C 15.881 6.330,15.311 6.497,14.818 6.738 C 12.194 8.018,11.332 11.232,12.961 13.663 C 13.077 13.838,13.336 14.143,13.536 14.343 C 14.600 15.404,16.089 15.913,17.514 15.703 C 18.598 15.543,19.463 15.114,20.229 14.355 C 22.043 12.559,22.102 9.638,20.360 7.788 C 19.532 6.908,18.514 6.404,17.317 6.282 C 16.874 6.236,16.852 6.236,16.373 6.283 M18.422 8.742 C 18.634 8.842,19.004 9.217,19.112 9.443 C 19.226 9.680,19.227 9.959,19.113 10.197 C 18.989 10.459,16.359 13.092,16.159 13.156 C 15.913 13.234,14.982 13.346,14.855 13.313 C 14.665 13.263,14.553 13.116,14.554 12.914 C 14.554 12.595,14.686 11.786,14.760 11.642 C 14.801 11.564,15.434 10.903,16.167 10.172 C 17.253 9.091,17.541 8.825,17.720 8.740 C 17.971 8.622,18.165 8.622,18.422 8.742 " fill="#292D32" stroke="none" fill-rule="evenodd"></path></svg>