<svg width="24" height="24" viewBox="0 0 24 24" fill="none" xmlns="http://www.w3.org/2000/svg"><path d="M4.840 2.195 C 4.719 2.234,4.539 2.308,4.441 2.359 C 4.173 2.496,3.795 2.898,3.647 3.200 C 3.427 3.649,3.401 3.871,3.401 5.344 C 3.400 6.534,3.408 6.699,3.480 6.984 C 3.581 7.385,3.867 7.968,4.113 8.275 C 4.477 8.729,5.336 9.587,5.518 9.680 C 5.882 9.864,6.389 9.774,6.665 9.475 C 6.809 9.318,10.330 3.682,10.425 3.455 C 10.468 3.351,10.483 3.219,10.473 3.037 C 10.454 2.694,10.303 2.435,10.022 2.261 L 9.826 2.140 7.443 2.132 C 5.248 2.124,5.043 2.129,4.840 2.195 M13.057 2.200 C 12.968 2.245,12.839 2.339,12.771 2.411 C 12.609 2.579,7.482 10.810,7.408 11.020 C 7.339 11.217,7.364 11.575,7.461 11.761 C 7.499 11.835,7.659 12.032,7.817 12.198 C 8.261 12.665,8.517 13.092,8.750 13.749 L 8.860 14.060 8.883 17.160 C 8.908 20.521,8.897 20.360,9.132 20.824 C 9.557 21.661,10.682 22.106,11.580 21.792 C 11.913 21.675,13.366 20.761,13.644 20.492 C 13.870 20.274,14.093 19.907,14.210 19.560 C 14.295 19.306,14.298 19.239,14.320 16.700 C 14.342 14.112,14.343 14.099,14.436 13.820 C 14.559 13.451,14.771 13.030,14.965 12.771 C 15.053 12.653,16.101 11.696,17.371 10.574 C 18.730 9.373,19.704 8.482,19.831 8.323 C 20.063 8.034,20.342 7.495,20.485 7.060 C 20.572 6.793,20.577 6.713,20.591 5.349 C 20.607 3.763,20.595 3.640,20.376 3.203 C 20.183 2.818,19.875 2.521,19.448 2.310 L 19.106 2.140 16.163 2.129 C 13.274 2.119,13.217 2.120,13.057 2.200 " fill="#292D32" stroke="none" fill-rule="evenodd"></path></svg>