<svg width="24" height="24" viewBox="0 0 24 24" fill="none" xmlns="http://www.w3.org/2000/svg"><path d="M3.974 2.057 C 3.267 2.228,2.692 2.810,2.500 3.548 C 2.410 3.891,2.413 6.623,2.503 6.974 C 2.589 7.310,2.871 7.890,3.089 8.180 C 3.188 8.312,4.154 9.362,5.235 10.513 C 7.357 12.771,7.429 12.861,7.682 13.557 C 7.919 14.210,7.920 14.218,7.922 17.374 C 7.924 19.969,7.932 20.287,7.993 20.523 C 8.293 21.671,9.671 22.321,10.746 21.823 C 11.051 21.681,12.510 20.723,12.621 20.591 C 12.822 20.353,12.721 20.144,12.251 19.820 C 11.834 19.533,11.176 18.895,10.870 18.480 C 8.729 15.581,9.450 11.504,12.453 9.525 C 13.889 8.578,15.739 8.261,17.350 8.686 C 18.142 8.895,18.223 8.891,18.507 8.629 C 18.898 8.269,19.323 7.512,19.481 6.898 C 19.553 6.616,19.560 6.453,19.560 5.141 C 19.560 3.585,19.550 3.496,19.337 3.073 C 19.206 2.815,18.853 2.447,18.577 2.281 C 18.086 1.985,18.609 2.004,11.000 2.006 C 5.685 2.007,4.135 2.018,3.974 2.057 M15.220 10.045 C 13.530 10.256,12.009 11.488,11.422 13.120 C 11.015 14.253,11.053 15.456,11.534 16.592 C 11.962 17.604,12.959 18.599,13.975 19.029 C 15.354 19.612,16.908 19.526,18.177 18.797 L 18.454 18.638 19.017 19.195 C 19.536 19.709,19.598 19.758,19.814 19.820 C 20.174 19.924,20.501 19.824,20.771 19.525 C 21.014 19.256,21.064 18.852,20.898 18.500 C 20.856 18.412,20.593 18.105,20.313 17.818 L 19.804 17.296 20.042 16.818 C 20.625 15.650,20.718 14.423,20.317 13.224 C 19.599 11.082,17.483 9.762,15.220 10.045 " fill="#292D32" stroke="none" fill-rule="evenodd"></path></svg>