<svg width="24" height="24" viewBox="0 0 24 24" fill="none" xmlns="http://www.w3.org/2000/svg"><path d="M4.974 2.057 C 4.267 2.228,3.692 2.810,3.500 3.548 C 3.410 3.891,3.413 6.623,3.503 6.974 C 3.589 7.310,3.871 7.890,4.089 8.180 C 4.188 8.312,5.154 9.362,6.235 10.513 C 8.357 12.771,8.429 12.861,8.682 13.557 C 8.919 14.210,8.920 14.218,8.922 17.374 C 8.924 19.969,8.932 20.287,8.993 20.523 C 9.293 21.671,10.671 22.321,11.746 21.823 C 12.051 21.681,13.510 20.723,13.621 20.591 C 13.822 20.353,13.721 20.144,13.251 19.820 C 12.834 19.533,12.176 18.895,11.870 18.480 C 9.729 15.581,10.450 11.504,13.453 9.525 C 14.889 8.578,16.739 8.261,18.350 8.686 C 19.142 8.895,19.223 8.891,19.507 8.629 C 19.898 8.269,20.323 7.512,20.481 6.898 C 20.553 6.616,20.560 6.453,20.560 5.141 C 20.560 3.585,20.550 3.496,20.337 3.073 C 20.206 2.815,19.853 2.447,19.577 2.281 C 19.086 1.985,19.609 2.004,12.000 2.006 C 6.685 2.007,5.135 2.018,4.974 2.057 M16.265 10.043 C 14.233 10.325,12.649 11.811,12.216 13.840 C 12.119 14.299,12.117 15.176,12.213 15.631 C 12.542 17.188,13.483 18.375,14.933 19.062 C 15.797 19.471,16.936 19.603,17.860 19.401 C 19.806 18.976,21.289 17.393,21.577 15.435 C 21.651 14.937,21.655 14.664,21.599 14.199 C 21.351 12.176,19.888 10.569,17.880 10.117 C 17.479 10.026,16.656 9.988,16.265 10.043 M19.030 12.902 C 19.111 12.935,19.212 12.994,19.254 13.032 C 19.367 13.132,19.478 13.398,19.479 13.569 C 19.481 13.905,19.426 13.969,18.022 15.262 C 17.290 15.936,16.641 16.520,16.578 16.561 C 16.421 16.664,16.201 16.694,15.995 16.639 C 15.847 16.600,15.715 16.489,15.148 15.926 C 14.778 15.560,14.441 15.205,14.399 15.138 C 14.166 14.763,14.325 14.263,14.738 14.075 C 15.105 13.909,15.319 13.989,15.821 14.483 L 16.223 14.878 17.241 13.936 C 17.802 13.418,18.332 12.960,18.420 12.918 C 18.615 12.825,18.833 12.819,19.030 12.902 " fill="#292D32" stroke="none" fill-rule="evenodd"></path></svg>