<svg width="24" height="24" viewBox="0 0 24 24" fill="none" xmlns="http://www.w3.org/2000/svg"><path d="M4.974 2.057 C 4.267 2.228,3.692 2.810,3.500 3.548 C 3.410 3.891,3.413 6.623,3.503 6.974 C 3.589 7.310,3.871 7.890,4.089 8.180 C 4.188 8.312,5.154 9.362,6.235 10.513 C 8.357 12.771,8.429 12.861,8.682 13.557 C 8.919 14.210,8.920 14.218,8.922 17.374 C 8.924 19.969,8.932 20.287,8.993 20.523 C 9.293 21.671,10.671 22.321,11.746 21.823 C 12.051 21.681,13.510 20.723,13.621 20.591 C 13.822 20.353,13.721 20.144,13.251 19.820 C 12.834 19.533,12.176 18.895,11.870 18.480 C 9.729 15.581,10.450 11.504,13.453 9.525 C 14.889 8.578,16.739 8.261,18.350 8.686 C 19.142 8.895,19.223 8.891,19.507 8.629 C 19.898 8.269,20.323 7.512,20.481 6.898 C 20.553 6.616,20.560 6.453,20.560 5.141 C 20.560 3.585,20.550 3.496,20.337 3.073 C 20.206 2.815,19.853 2.447,19.577 2.281 C 19.086 1.985,19.609 2.004,12.000 2.006 C 6.685 2.007,5.135 2.018,4.974 2.057 M16.265 10.045 C 14.258 10.303,12.649 11.812,12.216 13.840 C 12.119 14.299,12.117 15.176,12.213 15.631 C 12.628 17.596,14.101 19.060,16.029 19.423 C 16.783 19.565,17.734 19.486,18.480 19.219 C 20.500 18.495,21.827 16.411,21.608 14.307 C 21.532 13.578,21.293 12.857,20.938 12.281 C 19.948 10.675,18.131 9.806,16.265 10.045 M15.909 12.783 C 15.976 12.797,16.189 12.975,16.461 13.242 L 16.903 13.679 17.281 13.295 C 17.490 13.084,17.732 12.878,17.820 12.837 C 18.402 12.565,19.010 13.089,18.841 13.718 C 18.803 13.856,18.708 13.980,18.378 14.318 L 17.963 14.744 18.361 15.141 C 18.580 15.359,18.788 15.599,18.823 15.673 C 18.904 15.842,18.904 16.158,18.824 16.312 C 18.744 16.467,18.504 16.673,18.369 16.703 C 18.309 16.716,18.240 16.733,18.216 16.740 C 18.192 16.747,18.085 16.734,17.978 16.711 C 17.806 16.675,17.731 16.619,17.340 16.236 L 16.896 15.803 16.498 16.204 C 16.279 16.425,16.033 16.641,15.952 16.683 C 15.701 16.813,15.323 16.762,15.106 16.568 C 14.990 16.466,14.882 16.200,14.882 16.020 C 14.882 15.762,15.006 15.565,15.435 15.142 L 15.838 14.743 15.445 14.342 C 14.991 13.879,14.920 13.762,14.920 13.477 C 14.920 13.123,15.147 12.839,15.494 12.759 C 15.616 12.731,15.680 12.735,15.909 12.783 " fill="#292D32" stroke="none" fill-rule="evenodd"></path></svg>