<svg width="24" height="24" viewBox="0 0 24 24" fill="none" xmlns="http://www.w3.org/2000/svg"><path d="M11.300 2.024 C 9.539 2.204,8.189 2.631,6.870 3.426 C 4.628 4.776,3.006 6.932,2.342 9.443 C 2.101 10.351,2.026 10.964,2.026 12.000 C 2.026 12.726,2.043 13.008,2.113 13.460 C 2.450 15.630,3.409 17.532,4.939 19.061 C 6.468 20.591,8.370 21.550,10.540 21.887 C 11.338 22.011,12.662 22.011,13.460 21.887 C 15.630 21.550,17.532 20.591,19.061 19.061 C 20.591 17.532,21.550 15.630,21.887 13.460 C 22.011 12.662,22.011 11.338,21.887 10.540 C 21.550 8.370,20.591 6.468,19.061 4.939 C 17.535 3.412,15.604 2.438,13.472 2.117 C 12.963 2.040,11.678 1.985,11.300 2.024 M12.580 6.484 C 13.636 6.614,14.564 7.074,15.345 7.855 C 15.929 8.439,16.298 9.039,16.534 9.786 C 16.723 10.386,16.740 10.573,16.740 12.000 C 16.740 13.427,16.723 13.614,16.534 14.214 C 16.298 14.961,15.929 15.561,15.345 16.145 C 14.633 16.857,13.822 17.291,12.838 17.484 C 12.505 17.550,11.495 17.550,11.162 17.484 C 10.178 17.291,9.367 16.857,8.655 16.145 C 7.874 15.364,7.414 14.436,7.284 13.380 C 7.227 12.915,7.227 11.085,7.284 10.620 C 7.414 9.564,7.874 8.636,8.655 7.855 C 9.722 6.788,11.108 6.304,12.580 6.484 M11.431 7.999 C 11.127 8.054,10.846 8.157,10.460 8.354 C 10.172 8.500,10.027 8.610,9.736 8.899 C 9.314 9.317,9.103 9.651,8.912 10.200 L 8.780 10.580 8.780 12.000 L 8.780 13.420 8.912 13.800 C 9.098 14.335,9.316 14.683,9.716 15.084 C 10.118 15.485,10.466 15.703,11.000 15.887 C 11.366 16.013,11.403 16.018,12.000 16.018 C 12.597 16.018,12.634 16.013,13.000 15.887 C 13.534 15.703,13.882 15.485,14.284 15.084 C 14.684 14.683,14.902 14.335,15.088 13.800 L 15.220 13.420 15.220 12.000 L 15.220 10.580 15.088 10.200 C 14.897 9.651,14.686 9.317,14.264 8.899 C 13.866 8.503,13.446 8.251,12.900 8.081 C 12.587 7.983,11.768 7.937,11.431 7.999 M12.331 9.934 C 12.529 10.017,12.724 10.200,12.805 10.378 C 12.872 10.526,12.878 10.670,12.879 12.012 C 12.880 13.382,12.875 13.493,12.804 13.632 C 12.643 13.944,12.340 14.133,12.000 14.133 C 11.660 14.133,11.357 13.944,11.196 13.632 C 11.125 13.494,11.120 13.381,11.120 12.020 C 11.120 10.447,11.123 10.425,11.334 10.174 C 11.556 9.911,12.013 9.801,12.331 9.934 " fill="#292D32" stroke="none" fill-rule="evenodd"></path></svg>