<svg width="24" height="24" viewBox="0 0 24 24" fill="none" xmlns="http://www.w3.org/2000/svg"><path d="M6.380 1.284 C 3.891 1.488,2.038 3.012,1.463 5.326 C 1.297 5.996,1.275 6.233,1.252 7.600 C 1.226 9.130,1.244 9.284,1.479 9.519 C 1.823 9.863,2.402 9.782,2.640 9.358 L 2.740 9.180 2.764 7.660 C 2.787 6.190,2.791 6.127,2.891 5.750 C 3.100 4.969,3.392 4.448,3.920 3.920 C 4.448 3.392,4.969 3.100,5.750 2.891 C 6.127 2.791,6.190 2.787,7.660 2.764 L 9.180 2.740 9.359 2.639 C 9.702 2.448,9.829 2.010,9.646 1.651 C 9.544 1.452,9.391 1.337,9.156 1.283 C 8.950 1.235,6.965 1.236,6.380 1.284 M14.785 1.289 C 14.578 1.344,14.337 1.590,14.279 1.804 C 14.193 2.122,14.334 2.463,14.627 2.645 C 14.779 2.739,14.790 2.740,16.300 2.764 C 17.775 2.788,17.832 2.792,18.236 2.895 C 19.783 3.291,20.777 4.326,21.142 5.920 C 21.197 6.161,21.215 6.513,21.235 7.720 C 21.260 9.209,21.261 9.221,21.355 9.373 C 21.661 9.866,22.339 9.866,22.645 9.373 C 22.739 9.222,22.740 9.203,22.753 8.020 C 22.770 6.397,22.699 5.727,22.420 4.897 C 21.881 3.287,20.673 2.092,19.051 1.563 C 18.587 1.412,18.152 1.331,17.540 1.281 C 16.920 1.230,14.987 1.236,14.785 1.289 M11.496 5.958 C 10.882 6.028,10.183 6.237,9.720 6.488 C 8.371 7.219,7.477 8.377,7.139 9.833 C 7.044 10.241,7.001 10.912,7.001 11.980 C 7.002 13.828,7.107 14.440,7.584 15.364 C 8.263 16.678,9.519 17.642,10.962 17.957 C 11.643 18.106,12.543 18.083,13.272 17.898 C 14.838 17.501,16.192 16.237,16.722 14.677 C 16.936 14.047,16.966 13.786,16.988 12.339 C 17.002 11.457,16.994 10.813,16.964 10.511 C 16.807 8.899,16.001 7.574,14.647 6.701 C 13.766 6.133,12.527 5.841,11.496 5.958 M12.720 8.481 C 13.116 8.612,13.392 8.785,13.704 9.100 C 14.034 9.432,14.241 9.807,14.340 10.253 C 14.396 10.504,14.403 10.779,14.392 12.143 L 14.378 13.740 14.274 14.010 C 14.119 14.413,13.930 14.700,13.639 14.974 C 13.325 15.270,12.991 15.455,12.576 15.561 C 12.012 15.705,11.398 15.630,10.867 15.352 C 10.543 15.182,10.058 14.697,9.888 14.373 C 9.622 13.866,9.600 13.684,9.600 12.000 C 9.600 10.624,9.607 10.466,9.680 10.180 C 9.912 9.274,10.667 8.573,11.600 8.398 C 11.883 8.345,12.430 8.386,12.720 8.481 M11.597 9.990 C 11.455 10.062,11.339 10.160,11.260 10.273 L 11.140 10.447 11.128 11.913 C 11.119 12.901,11.130 13.429,11.159 13.531 C 11.259 13.869,11.610 14.118,11.991 14.119 C 12.360 14.121,12.657 13.938,12.804 13.620 C 12.872 13.474,12.878 13.336,12.879 12.003 C 12.880 10.605,12.877 10.538,12.796 10.373 C 12.580 9.925,12.055 9.758,11.597 9.990 M1.807 14.288 C 1.546 14.345,1.340 14.571,1.279 14.866 C 1.220 15.149,1.250 17.542,1.317 17.980 C 1.724 20.609,3.440 22.308,6.070 22.687 C 6.297 22.720,6.906 22.738,7.800 22.739 L 9.180 22.740 9.359 22.639 C 9.896 22.339,9.837 21.546,9.260 21.299 C 9.216 21.280,8.496 21.253,7.660 21.238 C 6.193 21.213,6.126 21.209,5.750 21.109 C 4.969 20.900,4.448 20.608,3.920 20.080 C 3.392 19.552,3.100 19.031,2.891 18.250 C 2.791 17.873,2.787 17.810,2.763 16.340 C 2.740 14.872,2.736 14.814,2.650 14.653 C 2.524 14.415,2.388 14.328,2.040 14.261 C 2.007 14.255,1.902 14.267,1.807 14.288 M21.823 14.285 C 21.615 14.333,21.429 14.480,21.336 14.668 C 21.267 14.806,21.258 14.961,21.236 16.340 C 21.213 17.810,21.209 17.873,21.109 18.250 C 20.900 19.031,20.609 19.549,20.079 20.079 C 19.549 20.609,19.031 20.900,18.250 21.109 C 17.873 21.209,17.810 21.213,16.340 21.236 C 14.961 21.258,14.806 21.267,14.668 21.336 C 14.041 21.646,14.174 22.577,14.866 22.721 C 15.149 22.780,17.542 22.750,17.980 22.683 C 20.609 22.276,22.308 20.560,22.687 17.930 C 22.720 17.703,22.738 17.094,22.739 16.200 C 22.740 14.849,22.738 14.817,22.651 14.653 C 22.523 14.415,22.391 14.330,22.040 14.261 C 22.007 14.254,21.909 14.265,21.823 14.285 " fill="#292D32" stroke="none" fill-rule="evenodd"></path></svg>