<svg width="24" height="24" viewBox="0 0 24 24" fill="none" xmlns="http://www.w3.org/2000/svg"><path d="M4.345 3.583 C 3.627 3.757,3.193 4.232,3.058 4.991 C 2.979 5.431,2.979 8.569,3.058 9.009 C 3.195 9.779,3.639 10.260,4.380 10.440 C 4.513 10.473,5.126 10.496,6.209 10.508 C 8.386 10.534,8.777 10.489,9.271 10.160 C 9.551 9.973,9.754 9.695,9.888 9.320 C 9.979 9.062,9.980 9.048,9.980 7.040 C 9.980 5.193,9.974 4.999,9.906 4.780 C 9.703 4.118,9.300 3.738,8.631 3.580 C 8.273 3.496,4.696 3.498,4.345 3.583 M13.700 3.823 C 13.436 3.961,13.242 4.248,13.242 4.500 C 13.242 4.759,13.484 5.104,13.733 5.197 C 13.809 5.226,15.016 5.240,17.504 5.240 C 21.531 5.240,21.314 5.254,21.549 4.987 C 21.860 4.633,21.806 4.192,21.417 3.895 L 21.266 3.780 17.543 3.770 C 14.226 3.761,13.807 3.767,13.700 3.823 M13.700 8.823 C 13.410 8.974,13.269 9.198,13.269 9.506 C 13.269 9.752,13.355 9.919,13.574 10.096 L 13.727 10.220 17.500 10.220 L 21.273 10.220 21.426 10.096 C 21.647 9.917,21.731 9.752,21.731 9.500 C 21.731 9.248,21.647 9.083,21.426 8.904 L 21.273 8.780 17.546 8.770 C 14.226 8.761,13.807 8.767,13.700 8.823 M2.700 13.823 C 2.410 13.974,2.269 14.198,2.269 14.506 C 2.269 14.752,2.355 14.919,2.574 15.096 L 2.727 15.220 12.000 15.220 L 21.273 15.220 21.426 15.096 C 21.647 14.917,21.731 14.752,21.731 14.500 C 21.731 14.248,21.647 14.083,21.426 13.904 L 21.273 13.780 12.046 13.770 C 3.743 13.761,2.808 13.766,2.700 13.823 M2.700 18.823 C 2.410 18.974,2.269 19.198,2.269 19.506 C 2.269 19.752,2.355 19.919,2.574 20.096 L 2.727 20.220 12.000 20.220 L 21.273 20.220 21.426 20.096 C 21.647 19.917,21.731 19.752,21.731 19.500 C 21.731 19.248,21.647 19.083,21.426 18.904 L 21.273 18.780 12.046 18.770 C 3.743 18.761,2.808 18.766,2.700 18.823 " fill="#292D32" stroke="none" fill-rule="evenodd"></path></svg>