<svg width="24" height="24" viewBox="0 0 24 24" fill="none" xmlns="http://www.w3.org/2000/svg"><path d="M6.135 2.077 C 5.932 2.169,5.778 2.365,5.723 2.601 C 5.666 2.850,5.666 21.150,5.723 21.399 C 5.891 22.128,6.849 22.203,7.138 21.511 C 7.191 21.384,7.200 21.074,7.200 19.328 L 7.200 17.293 11.446 15.196 C 13.781 14.043,15.855 12.994,16.056 12.865 C 17.039 12.231,17.659 11.497,17.857 10.731 C 17.936 10.428,17.937 9.929,17.861 9.640 C 17.714 9.087,17.318 8.518,16.779 8.084 C 16.242 7.652,15.772 7.411,13.806 6.560 C 12.758 6.106,10.842 5.277,9.550 4.718 L 7.200 3.702 7.199 3.161 C 7.198 2.721,7.184 2.590,7.124 2.460 C 6.943 2.066,6.519 1.902,6.135 2.077 " fill="#292D32" stroke="none" fill-rule="evenodd"></path></svg>