<svg width="24" height="24" viewBox="0 0 24 24" fill="none" xmlns="http://www.w3.org/2000/svg"><path d="M4.842 2.087 C 4.745 2.138,4.610 2.249,4.542 2.334 L 4.420 2.487 4.409 11.914 C 4.397 22.460,4.371 21.546,4.688 21.818 C 5.110 22.178,5.758 21.950,5.876 21.400 C 5.905 21.265,5.920 20.380,5.920 18.779 L 5.920 16.362 11.570 16.350 L 17.220 16.338 17.553 16.249 C 18.573 15.976,19.142 15.425,19.191 14.663 C 19.215 14.286,19.155 14.028,18.938 13.580 C 18.687 13.061,18.449 12.770,17.456 11.760 C 16.924 11.219,16.536 10.791,16.483 10.686 C 16.353 10.432,16.306 10.074,16.360 9.765 C 16.445 9.274,16.567 9.105,17.558 8.100 C 18.531 7.114,18.754 6.836,18.997 6.314 C 19.254 5.760,19.298 5.392,19.160 4.954 C 18.920 4.195,18.178 3.761,16.914 3.643 C 16.620 3.615,14.601 3.600,11.195 3.600 L 5.929 3.600 5.914 3.089 C 5.895 2.495,5.836 2.333,5.569 2.144 C 5.342 1.984,5.080 1.963,4.842 2.087 " fill="#292D32" stroke="none" fill-rule="evenodd"></path></svg>