<svg width="24" height="24" viewBox="0 0 24 24" fill="none" xmlns="http://www.w3.org/2000/svg"><path d="M16.613 2.396 C 16.268 2.484,16.196 2.561,12.253 7.038 C 10.123 9.458,8.338 11.516,8.288 11.612 C 8.069 12.027,8.148 12.529,8.489 12.902 C 8.833 13.279,8.840 13.280,10.761 13.280 L 12.398 13.280 12.409 17.030 L 12.420 20.780 12.514 20.968 C 12.640 21.222,12.898 21.451,13.175 21.555 C 13.631 21.725,13.997 21.638,14.379 21.268 C 14.520 21.132,16.313 19.112,18.363 16.780 C 20.973 13.812,22.120 12.480,22.185 12.340 C 22.469 11.735,22.120 10.974,21.471 10.781 C 21.302 10.731,20.982 10.720,19.653 10.720 L 18.040 10.720 18.040 7.022 C 18.040 3.427,18.038 3.317,17.960 3.110 C 17.871 2.870,17.630 2.614,17.377 2.487 C 17.192 2.395,16.802 2.348,16.613 2.396 M1.331 3.278 C 1.155 3.321,1.026 3.411,0.893 3.586 C 0.795 3.714,0.780 3.769,0.780 4.003 C 0.780 4.245,0.793 4.288,0.904 4.426 C 0.973 4.511,1.090 4.616,1.164 4.660 C 1.297 4.738,1.372 4.740,5.000 4.740 C 8.628 4.740,8.703 4.738,8.836 4.660 C 8.910 4.616,9.027 4.511,9.096 4.426 C 9.208 4.288,9.220 4.245,9.220 4.000 C 9.220 3.755,9.208 3.712,9.096 3.574 C 9.027 3.489,8.910 3.384,8.836 3.340 C 8.703 3.262,8.622 3.260,5.080 3.254 C 3.089 3.250,1.402 3.261,1.331 3.278 M1.331 11.278 C 1.154 11.321,1.026 11.412,0.893 11.586 C 0.795 11.714,0.780 11.769,0.780 12.003 C 0.780 12.245,0.793 12.288,0.904 12.426 C 1.168 12.752,1.086 12.740,3.000 12.740 C 4.914 12.740,4.832 12.752,5.096 12.426 C 5.208 12.288,5.220 12.245,5.220 12.000 C 5.220 11.755,5.208 11.712,5.096 11.574 C 4.834 11.250,4.902 11.261,3.080 11.253 C 2.189 11.249,1.402 11.260,1.331 11.278 M1.331 19.278 C 1.155 19.321,1.026 19.411,0.893 19.586 C 0.795 19.714,0.780 19.769,0.780 20.003 C 0.780 20.245,0.793 20.288,0.904 20.426 C 0.973 20.511,1.090 20.616,1.164 20.660 C 1.297 20.738,1.372 20.740,4.500 20.740 C 7.628 20.740,7.703 20.738,7.836 20.660 C 7.910 20.616,8.027 20.511,8.096 20.426 C 8.208 20.288,8.220 20.245,8.220 20.000 C 8.220 19.755,8.208 19.712,8.096 19.574 C 8.027 19.489,7.910 19.384,7.836 19.340 C 7.703 19.262,7.622 19.260,4.580 19.254 C 2.864 19.250,1.402 19.261,1.331 19.278 " fill="#292D32" stroke="none" fill-rule="evenodd"></path></svg>