<svg width="24" height="24" viewBox="0 0 24 24" fill="none" xmlns="http://www.w3.org/2000/svg"><path d="M13.689 2.072 C 13.267 2.240,13.117 2.400,9.045 7.029 C 4.921 11.718,4.797 11.868,4.736 12.272 C 4.677 12.667,4.905 13.005,5.342 13.170 C 5.574 13.258,5.627 13.260,7.370 13.272 L 9.160 13.284 9.160 16.913 C 9.160 19.186,9.176 20.666,9.202 20.874 C 9.293 21.605,9.573 22.000,9.997 22.000 C 10.191 22.000,10.524 21.853,10.764 21.662 C 10.888 21.563,12.778 19.449,14.964 16.962 C 19.347 11.979,19.259 12.089,19.260 11.594 C 19.260 11.356,19.247 11.311,19.137 11.174 C 18.974 10.971,18.679 10.814,18.359 10.763 C 18.209 10.738,17.417 10.720,16.470 10.720 L 14.840 10.720 14.840 7.089 C 14.840 4.815,14.824 3.334,14.798 3.126 C 14.684 2.217,14.284 1.836,13.689 2.072 " fill="#292D32" stroke="none" fill-rule="evenodd"></path></svg>