<svg width="24" height="24" viewBox="0 0 24 24" fill="none" xmlns="http://www.w3.org/2000/svg"><path d="M13.800 2.027 C 13.651 2.079,13.404 2.220,13.227 2.354 C 12.971 2.547,5.143 11.449,4.952 11.764 C 4.566 12.400,4.708 12.912,5.340 13.163 C 5.578 13.258,5.592 13.259,7.390 13.272 L 9.200 13.285 9.200 13.492 L 9.200 13.699 5.682 17.219 C 2.960 19.944,2.146 20.781,2.083 20.920 C 1.982 21.144,1.980 21.333,2.076 21.540 C 2.257 21.933,2.685 22.099,3.060 21.923 C 3.261 21.829,21.895 3.197,21.958 3.027 C 22.137 2.544,21.733 1.998,21.200 2.001 C 20.909 2.003,20.809 2.095,17.770 5.131 L 14.800 8.099 14.800 5.588 C 14.800 2.796,14.792 2.694,14.547 2.333 C 14.360 2.059,14.060 1.936,13.800 2.027 M12.730 14.250 L 9.200 17.780 9.200 19.352 C 9.200 21.115,9.223 21.329,9.453 21.667 C 9.752 22.106,10.172 22.100,10.773 21.646 C 11.028 21.454,18.856 12.551,19.048 12.236 C 19.405 11.648,19.314 11.160,18.799 10.900 C 18.516 10.756,18.197 10.721,17.180 10.720 L 16.260 10.720 12.730 14.250 " fill="#292D32" stroke="none" fill-rule="evenodd"></path></svg>