<svg width="24" height="24" viewBox="0 0 24 24" fill="none" xmlns="http://www.w3.org/2000/svg"><path d="M11.120 2.039 C 8.336 2.318,5.905 3.624,4.193 5.760 C 1.474 9.155,1.267 13.917,3.682 17.533 C 6.770 22.155,12.946 23.386,17.560 20.299 C 22.155 17.225,23.377 11.041,20.299 6.440 C 18.728 4.092,16.319 2.562,13.493 2.119 C 12.909 2.027,11.660 1.985,11.120 2.039 M14.539 7.023 C 14.651 7.144,14.698 7.373,14.659 7.610 C 14.643 7.704,14.416 8.651,14.154 9.716 C 13.892 10.780,13.686 11.659,13.696 11.670 C 13.706 11.680,14.105 11.786,14.582 11.905 C 15.059 12.025,15.514 12.157,15.594 12.198 C 16.006 12.409,16.050 12.740,15.711 13.066 C 15.502 13.266,10.386 16.816,10.084 16.970 C 9.578 17.229,9.280 17.018,9.335 16.440 C 9.348 16.297,9.574 15.316,9.836 14.260 C 10.099 13.204,10.301 12.329,10.287 12.315 C 10.272 12.302,9.873 12.196,9.400 12.080 C 8.927 11.964,8.458 11.826,8.357 11.772 C 8.166 11.671,8.040 11.508,8.040 11.362 C 8.040 11.221,8.187 10.977,8.348 10.850 C 8.689 10.583,13.754 7.094,13.920 7.011 C 14.173 6.886,14.417 6.891,14.539 7.023 " fill="#292D32" stroke="none" fill-rule="evenodd"></path></svg>