<svg width="24" height="24" viewBox="0 0 24 24" fill="none" xmlns="http://www.w3.org/2000/svg"><path d="M11.260 2.024 C 10.193 2.133,9.240 2.343,8.460 2.640 C 5.159 3.896,2.776 6.743,2.138 10.194 C 1.916 11.395,1.916 12.605,2.138 13.806 C 2.902 17.935,6.151 21.141,10.298 21.859 C 11.555 22.076,12.998 22.032,14.240 21.737 C 15.607 21.412,16.891 20.807,18.028 19.954 C 18.474 19.618,19.443 18.675,19.768 18.260 C 20.998 16.686,21.715 14.944,21.919 13.032 C 21.972 12.531,21.972 11.465,21.918 10.968 C 21.745 9.358,21.197 7.828,20.326 6.518 C 18.710 4.087,16.231 2.518,13.340 2.097 C 12.947 2.040,11.575 1.992,11.260 2.024 M13.286 6.563 C 13.331 6.587,13.406 6.691,13.454 6.793 C 13.538 6.976,13.540 7.025,13.552 9.150 L 13.564 11.320 14.563 11.320 C 15.651 11.320,15.753 11.337,15.913 11.541 C 16.023 11.680,16.022 11.811,15.909 12.049 C 15.806 12.268,11.483 17.204,11.266 17.351 C 10.937 17.574,10.694 17.527,10.548 17.211 C 10.461 17.023,10.460 16.990,10.448 14.874 L 10.436 12.727 9.448 12.712 C 8.370 12.696,8.256 12.675,8.087 12.459 C 7.977 12.320,7.978 12.189,8.091 11.951 C 8.208 11.703,12.535 6.780,12.768 6.629 C 12.945 6.514,13.147 6.489,13.286 6.563 " fill="#292D32" stroke="none" fill-rule="evenodd"></path></svg>