<svg width="24" height="24" viewBox="0 0 24 24" fill="none" xmlns="http://www.w3.org/2000/svg"><path d="M6.999 2.041 C 6.500 2.085,5.947 2.182,5.611 2.285 C 4.601 2.594,3.918 3.305,3.637 4.337 C 3.448 5.033,3.433 5.221,3.412 7.020 C 3.390 8.925,3.388 8.905,3.648 9.058 C 3.821 9.160,4.039 9.153,4.500 9.029 C 4.720 8.970,5.107 8.904,5.360 8.881 C 5.991 8.826,18.015 8.826,18.653 8.882 C 18.913 8.905,19.296 8.968,19.503 9.022 C 20.026 9.158,20.200 9.153,20.377 8.997 C 20.562 8.834,20.582 8.700,20.500 8.173 C 20.359 7.272,20.077 6.634,19.620 6.180 C 19.273 5.837,18.993 5.668,18.488 5.497 C 17.711 5.234,16.892 5.162,14.687 5.161 C 13.765 5.160,13.207 5.145,13.157 5.119 C 13.115 5.096,12.704 4.578,12.245 3.967 C 11.154 2.518,10.922 2.307,10.213 2.113 C 9.929 2.035,9.785 2.026,8.640 2.017 C 7.947 2.012,7.209 2.023,6.999 2.041 M5.300 10.385 C 5.256 10.394,5.121 10.420,5.000 10.444 C 4.535 10.537,3.981 10.811,3.530 11.173 C 2.850 11.720,2.356 12.689,2.295 13.598 C 2.270 13.967,2.632 18.753,2.742 19.500 C 2.946 20.900,3.534 21.556,4.880 21.892 C 5.218 21.976,5.256 21.977,11.740 21.991 C 16.524 22.001,18.361 21.992,18.640 21.958 C 19.487 21.855,20.036 21.633,20.477 21.217 C 20.913 20.806,21.137 20.299,21.259 19.450 C 21.371 18.666,21.729 13.970,21.704 13.598 C 21.650 12.772,21.247 11.920,20.635 11.338 C 20.311 11.030,20.077 10.871,19.667 10.679 C 18.971 10.354,19.678 10.383,12.120 10.375 C 8.413 10.372,5.344 10.376,5.300 10.385 M14.739 16.051 C 15.275 16.355,15.144 17.181,14.537 17.322 C 14.332 17.369,9.668 17.369,9.463 17.322 C 9.130 17.245,8.920 16.985,8.920 16.652 C 8.920 16.343,9.067 16.106,9.320 16.005 C 9.383 15.980,10.384 15.964,12.000 15.963 L 14.580 15.961 14.739 16.051 " fill="#292D32" stroke="none" fill-rule="evenodd"></path></svg>