<svg width="24" height="24" viewBox="0 0 24 24" fill="none" xmlns="http://www.w3.org/2000/svg"><path d="M5.713 2.060 C 4.742 2.216,3.708 2.790,3.093 3.513 C 2.618 4.072,2.325 4.631,2.129 5.353 C 2.024 5.736,2.023 5.755,2.022 7.140 C 2.020 8.500,2.022 8.545,2.106 8.700 C 2.219 8.909,2.378 9.056,2.600 9.157 C 2.779 9.238,2.813 9.238,11.595 9.239 C 18.087 9.240,20.451 9.228,20.563 9.194 C 20.892 9.096,21.157 8.755,21.159 8.428 C 21.160 8.234,21.060 8.041,20.769 7.674 C 20.173 6.925,19.233 6.283,18.297 5.988 C 17.550 5.752,17.495 5.747,15.353 5.723 C 13.414 5.701,13.363 5.698,13.253 5.616 C 13.191 5.570,12.713 4.967,12.191 4.276 C 11.118 2.855,10.807 2.522,10.355 2.308 C 9.795 2.042,9.694 2.031,7.780 2.017 C 6.452 2.007,5.981 2.017,5.713 2.060 M2.555 10.872 C 2.311 10.999,2.103 11.246,2.039 11.484 C 2.009 11.595,2.000 12.531,2.011 14.492 C 2.025 17.254,2.028 17.352,2.113 17.730 C 2.546 19.643,3.858 21.114,5.672 21.719 C 6.496 21.993,6.174 21.980,12.000 21.980 C 17.826 21.980,17.504 21.993,18.328 21.719 C 19.934 21.184,21.184 19.934,21.719 18.328 C 21.981 17.542,21.980 17.553,21.980 14.400 L 21.980 11.540 21.869 11.314 C 21.751 11.074,21.561 10.900,21.324 10.815 C 21.208 10.774,19.362 10.763,11.975 10.762 L 2.769 10.760 2.555 10.872 M12.372 12.825 C 12.554 12.917,12.638 12.999,12.724 13.168 C 12.792 13.302,12.800 13.414,12.800 14.278 L 12.800 15.240 13.710 15.241 C 14.713 15.242,14.822 15.263,15.047 15.505 C 15.398 15.880,15.267 16.459,14.780 16.684 C 14.639 16.749,14.510 16.758,13.710 16.759 L 12.800 16.760 12.800 17.722 C 12.800 18.586,12.792 18.698,12.724 18.832 C 12.576 19.122,12.332 19.256,11.997 19.232 C 11.724 19.212,11.522 19.080,11.400 18.839 C 11.327 18.696,11.320 18.603,11.320 17.722 L 11.320 16.760 10.350 16.759 C 9.281 16.758,9.181 16.739,8.953 16.495 C 8.602 16.120,8.733 15.541,9.220 15.316 C 9.362 15.250,9.491 15.242,10.350 15.241 L 11.320 15.240 11.320 14.278 C 11.320 13.414,11.328 13.302,11.396 13.168 C 11.530 12.905,11.758 12.764,12.052 12.762 C 12.158 12.761,12.302 12.789,12.372 12.825 " fill="#292D32" stroke="none" fill-rule="evenodd"></path></svg>