<svg width="24" height="24" viewBox="0 0 24 24" fill="none" xmlns="http://www.w3.org/2000/svg"><path d="M5.848 2.041 C 5.081 2.146,4.237 2.512,3.632 3.002 C 2.778 3.692,2.186 4.764,2.041 5.880 C 1.989 6.283,1.989 17.717,2.041 18.120 C 2.144 18.917,2.499 19.747,3.002 20.368 C 3.692 21.222,4.764 21.814,5.880 21.959 C 6.283 22.011,17.717 22.011,18.120 21.959 C 19.360 21.798,20.503 21.110,21.193 20.108 C 21.621 19.486,21.877 18.805,21.963 18.060 C 21.990 17.824,22.000 16.287,21.990 13.600 C 21.973 9.167,21.983 9.383,21.758 8.715 C 21.331 7.447,20.262 6.381,18.999 5.966 C 18.338 5.748,18.346 5.748,15.773 5.723 C 13.425 5.701,13.363 5.698,13.253 5.618 C 13.191 5.572,12.713 4.969,12.192 4.278 C 10.900 2.565,10.654 2.340,9.820 2.114 C 9.518 2.032,9.402 2.026,7.800 2.017 C 6.865 2.011,5.987 2.022,5.848 2.041 M12.778 2.098 C 12.594 2.282,12.628 2.358,13.300 3.252 C 13.640 3.706,13.968 4.110,14.028 4.149 C 14.127 4.214,14.313 4.222,16.278 4.241 C 18.368 4.262,18.430 4.265,18.814 4.359 C 19.171 4.446,19.219 4.450,19.314 4.396 C 19.372 4.364,19.436 4.289,19.457 4.230 C 19.489 4.137,19.472 4.089,19.337 3.892 C 18.827 3.146,18.012 2.536,17.132 2.242 C 16.503 2.031,16.157 2.000,14.428 2.000 L 12.876 2.000 12.778 2.098 M14.708 15.010 C 14.778 15.048,14.886 15.146,14.948 15.227 C 15.045 15.354,15.060 15.410,15.060 15.644 C 15.060 15.854,15.042 15.939,14.978 16.025 C 14.858 16.184,14.716 16.280,14.537 16.322 C 14.332 16.369,9.668 16.369,9.463 16.322 C 9.284 16.280,9.142 16.184,9.022 16.025 C 8.958 15.938,8.940 15.854,8.940 15.640 C 8.940 15.426,8.958 15.342,9.022 15.255 C 9.137 15.102,9.286 14.998,9.445 14.959 C 9.519 14.941,10.705 14.930,12.080 14.933 C 14.377 14.939,14.590 14.946,14.708 15.010 " fill="#292D32" stroke="none" fill-rule="evenodd"></path></svg>