<svg width="24" height="24" viewBox="0 0 24 24" fill="none" xmlns="http://www.w3.org/2000/svg"><path d="M5.713 2.060 C 4.742 2.216,3.708 2.790,3.093 3.513 C 2.618 4.072,2.325 4.631,2.129 5.353 C 2.024 5.736,2.023 5.755,2.022 7.140 C 2.020 8.500,2.022 8.545,2.106 8.700 C 2.219 8.909,2.378 9.056,2.600 9.157 C 2.779 9.238,2.813 9.238,11.595 9.239 C 18.087 9.240,20.451 9.228,20.563 9.194 C 20.892 9.096,21.157 8.755,21.159 8.428 C 21.160 8.234,21.060 8.041,20.769 7.674 C 20.173 6.925,19.233 6.283,18.297 5.988 C 17.550 5.752,17.495 5.747,15.353 5.723 C 13.414 5.701,13.363 5.698,13.253 5.616 C 13.191 5.570,12.713 4.967,12.191 4.276 C 11.118 2.855,10.807 2.522,10.355 2.308 C 9.795 2.042,9.694 2.031,7.780 2.017 C 6.452 2.007,5.981 2.017,5.713 2.060 M2.557 10.870 C 2.311 10.995,2.105 11.239,2.039 11.484 C 2.009 11.595,2.000 12.531,2.011 14.492 C 2.025 17.254,2.028 17.352,2.113 17.730 C 2.546 19.643,3.858 21.114,5.672 21.719 C 6.496 21.993,6.174 21.980,12.000 21.980 C 17.826 21.980,17.504 21.993,18.328 21.719 C 19.934 21.184,21.184 19.934,21.719 18.328 C 21.981 17.542,21.980 17.553,21.980 14.400 L 21.980 11.540 21.869 11.314 C 21.751 11.074,21.561 10.900,21.324 10.815 C 21.208 10.774,19.362 10.763,11.977 10.762 L 2.774 10.760 2.557 10.870 M11.085 14.082 C 11.356 14.173,11.437 14.219,11.770 14.471 L 12.000 14.645 12.237 14.462 C 12.707 14.101,13.070 13.976,13.543 14.011 C 14.572 14.089,15.326 15.124,15.066 16.100 C 14.996 16.361,14.871 16.602,14.710 16.786 C 14.518 17.005,12.393 18.861,12.248 18.936 C 12.180 18.971,12.068 19.000,12.000 19.000 C 11.932 19.000,11.820 18.971,11.752 18.936 C 11.604 18.859,9.480 17.003,9.284 16.779 C 9.075 16.540,8.920 16.172,8.893 15.849 C 8.851 15.348,9.013 14.908,9.383 14.520 C 9.828 14.054,10.493 13.882,11.085 14.082 " fill="#292D32" stroke="none" fill-rule="evenodd"></path></svg>