<svg width="24" height="24" viewBox="0 0 24 24" fill="none" xmlns="http://www.w3.org/2000/svg"><path d="M5.713 2.060 C 4.742 2.216,3.708 2.790,3.093 3.513 C 2.618 4.072,2.325 4.631,2.129 5.353 C 2.024 5.736,2.023 5.755,2.022 7.140 C 2.020 8.500,2.022 8.545,2.106 8.700 C 2.219 8.909,2.378 9.056,2.600 9.157 C 2.779 9.238,2.813 9.238,11.595 9.239 C 18.087 9.240,20.451 9.228,20.563 9.194 C 20.892 9.096,21.157 8.755,21.159 8.428 C 21.160 8.234,21.060 8.041,20.769 7.674 C 20.173 6.925,19.233 6.283,18.297 5.988 C 17.550 5.752,17.495 5.747,15.353 5.723 C 13.414 5.701,13.363 5.698,13.253 5.616 C 13.191 5.570,12.713 4.967,12.191 4.276 C 11.118 2.855,10.807 2.522,10.355 2.308 C 9.795 2.042,9.694 2.031,7.780 2.017 C 6.452 2.007,5.981 2.017,5.713 2.060 M2.568 10.864 C 2.453 10.921,2.306 11.033,2.240 11.112 C 1.989 11.417,1.994 11.344,2.011 14.487 C 2.025 17.254,2.028 17.352,2.113 17.730 C 2.357 18.807,2.826 19.669,3.579 20.421 C 4.364 21.206,5.253 21.677,6.385 21.908 C 6.717 21.975,7.087 21.980,12.000 21.980 C 17.793 21.980,17.473 21.993,18.294 21.733 C 19.881 21.232,21.182 19.938,21.719 18.328 C 21.981 17.542,21.980 17.553,21.980 14.400 L 21.980 11.540 21.869 11.314 C 21.751 11.074,21.561 10.900,21.324 10.815 C 21.208 10.774,19.362 10.763,11.978 10.762 L 2.776 10.760 2.568 10.864 M14.644 15.287 C 15.248 15.495,15.358 16.282,14.832 16.630 L 14.666 16.740 11.983 16.751 L 9.300 16.762 9.122 16.671 C 9.025 16.621,8.892 16.514,8.828 16.433 C 8.544 16.077,8.701 15.514,9.138 15.315 C 9.290 15.246,9.464 15.242,11.904 15.241 C 13.793 15.240,14.545 15.253,14.644 15.287 " fill="#292D32" stroke="none" fill-rule="evenodd"></path></svg>