<svg width="24" height="24" viewBox="0 0 24 24" fill="none" xmlns="http://www.w3.org/2000/svg"><path d="M5.848 2.041 C 5.368 2.107,4.938 2.243,4.460 2.481 C 3.556 2.931,2.931 3.556,2.481 4.460 C 2.221 4.982,2.101 5.382,2.037 5.940 C 2.010 6.178,2.000 8.175,2.009 11.820 L 2.023 17.340 2.112 17.730 C 2.357 18.801,2.826 19.667,3.559 20.402 C 4.351 21.196,5.307 21.701,6.418 21.911 C 6.737 21.972,7.097 21.980,9.440 21.980 L 12.100 21.980 12.225 21.891 C 12.401 21.765,12.466 21.594,12.496 21.180 C 12.529 20.711,12.614 20.374,12.798 19.980 C 12.979 19.593,13.252 19.224,13.539 18.979 C 13.796 18.760,13.880 18.597,13.880 18.320 C 13.880 18.004,14.028 17.344,14.185 16.962 C 14.560 16.052,15.303 15.250,16.180 14.810 C 17.872 13.960,19.872 14.224,21.164 15.469 C 21.301 15.600,21.391 15.652,21.508 15.667 C 21.690 15.692,21.892 15.607,21.962 15.477 C 21.993 15.419,22.000 14.666,21.989 12.908 C 21.974 10.824,21.961 10.368,21.907 10.097 C 21.623 8.679,20.792 7.419,19.627 6.636 C 19.033 6.238,18.469 6.001,17.711 5.831 C 17.373 5.755,17.165 5.746,15.353 5.724 C 13.430 5.701,13.362 5.697,13.253 5.618 C 13.191 5.572,12.713 4.969,12.192 4.278 C 10.900 2.565,10.654 2.340,9.820 2.114 C 9.518 2.032,9.402 2.026,7.800 2.017 C 6.865 2.011,5.987 2.022,5.848 2.041 M17.680 15.857 C 16.649 16.075,15.872 16.716,15.529 17.630 C 15.445 17.854,15.425 17.988,15.411 18.420 C 15.397 18.872,15.407 18.989,15.490 19.311 L 15.585 19.682 15.483 19.703 C 14.957 19.812,14.795 19.887,14.516 20.148 C 14.166 20.475,14.000 20.875,14.000 21.389 C 14.000 22.237,14.566 22.904,15.400 23.038 C 15.748 23.094,20.429 23.094,20.874 23.038 C 21.477 22.963,21.974 22.709,22.387 22.267 C 22.675 21.958,22.818 21.697,22.921 21.297 C 23.067 20.724,23.000 20.140,22.723 19.580 C 22.398 18.921,21.786 18.436,21.144 18.326 L 20.988 18.299 20.892 17.940 C 20.612 16.884,19.922 16.148,18.980 15.898 C 18.646 15.810,18.001 15.789,17.680 15.857 " fill="#292D32" stroke="none" fill-rule="evenodd"></path></svg>