<svg width="24" height="24" viewBox="0 0 24 24" fill="none" xmlns="http://www.w3.org/2000/svg"><path d="M7.490 2.044 C 6.112 2.167,5.419 2.681,5.160 3.773 C 5.013 4.389,5.001 4.775,5.001 9.000 C 5.001 13.225,5.013 13.611,5.160 14.227 C 5.322 14.910,5.687 15.402,6.218 15.654 C 6.818 15.938,7.403 15.998,9.550 15.999 L 11.240 16.000 11.240 17.517 C 11.240 18.351,11.250 19.059,11.261 19.089 C 11.276 19.127,11.214 19.177,11.071 19.243 C 10.803 19.366,10.370 19.795,10.245 20.060 L 10.151 20.260 7.985 20.260 C 5.867 20.260,5.817 20.262,5.660 20.344 C 5.572 20.390,5.446 20.503,5.381 20.596 C 5.282 20.736,5.261 20.804,5.261 20.993 C 5.261 21.270,5.373 21.475,5.612 21.633 L 5.774 21.740 7.962 21.740 L 10.151 21.740 10.245 21.940 C 10.374 22.211,10.804 22.640,11.085 22.776 C 11.702 23.074,12.298 23.074,12.915 22.776 C 13.196 22.640,13.626 22.211,13.755 21.940 L 13.849 21.740 16.038 21.740 L 18.226 21.740 18.388 21.633 C 18.627 21.475,18.739 21.270,18.739 20.993 C 18.739 20.804,18.718 20.736,18.619 20.596 C 18.554 20.503,18.428 20.390,18.340 20.344 C 18.183 20.262,18.133 20.260,16.015 20.260 L 13.849 20.260 13.755 20.060 C 13.630 19.795,13.197 19.366,12.929 19.243 C 12.786 19.177,12.724 19.127,12.739 19.089 C 12.750 19.059,12.760 18.351,12.760 17.517 L 12.760 16.000 14.450 15.999 C 16.205 15.999,16.674 15.972,17.223 15.841 C 17.710 15.726,17.982 15.582,18.282 15.282 C 18.681 14.883,18.866 14.402,18.959 13.519 C 19.011 13.023,19.011 7.777,18.959 7.281 C 18.796 5.735,18.265 5.133,16.840 4.877 C 16.684 4.849,15.851 4.821,14.759 4.805 L 12.938 4.780 12.739 4.678 C 12.563 4.588,12.452 4.460,11.780 3.570 C 11.362 3.017,10.957 2.499,10.880 2.420 C 10.698 2.232,10.403 2.093,10.080 2.042 C 9.779 1.994,8.033 1.996,7.490 2.044 " fill="#292D32" stroke="none" fill-rule="evenodd"></path></svg>