<svg width="24" height="24" viewBox="0 0 24 24" fill="none" xmlns="http://www.w3.org/2000/svg"><path d="M8.580 2.066 C 8.259 2.135,7.886 2.284,7.493 2.500 C 7.258 2.629,6.900 2.970,4.935 4.935 C 2.515 7.355,2.518 7.351,2.252 8.000 C 1.996 8.623,2.000 8.560,2.000 12.000 C 2.000 15.440,1.996 15.377,2.252 16.000 C 2.518 16.649,2.514 16.645,4.935 19.065 C 7.355 21.486,7.351 21.482,8.000 21.748 C 8.623 22.004,8.560 22.000,12.000 22.000 C 15.440 22.000,15.377 22.004,16.000 21.748 C 16.649 21.482,16.645 21.486,19.065 19.065 C 21.486 16.645,21.482 16.649,21.748 16.000 C 22.004 15.377,22.000 15.440,22.000 12.000 C 22.000 8.560,22.004 8.623,21.748 8.000 C 21.481 7.350,21.488 7.357,19.045 4.916 L 16.740 2.611 16.280 2.387 C 15.478 1.997,15.787 2.025,12.100 2.014 C 9.337 2.007,8.819 2.014,8.580 2.066 M8.791 7.821 C 8.892 7.863,9.430 8.373,10.470 9.411 L 12.000 10.940 13.530 9.411 C 15.110 7.833,15.198 7.759,15.509 7.761 C 15.682 7.762,15.948 7.873,16.048 7.986 C 16.232 8.193,16.287 8.529,16.179 8.791 C 16.137 8.892,15.627 9.430,14.589 10.470 L 13.060 12.000 14.589 13.530 C 15.627 14.570,16.137 15.108,16.179 15.209 C 16.287 15.471,16.232 15.810,16.048 16.013 C 15.857 16.225,15.443 16.303,15.188 16.176 C 15.118 16.141,14.372 15.426,13.530 14.586 L 12.000 13.060 10.470 14.586 C 9.629 15.426,8.882 16.141,8.812 16.176 C 8.557 16.303,8.143 16.225,7.952 16.013 C 7.768 15.810,7.713 15.471,7.821 15.209 C 7.863 15.108,8.373 14.570,9.411 13.530 L 10.940 12.000 9.411 10.470 C 8.373 9.430,7.863 8.892,7.821 8.791 C 7.713 8.529,7.768 8.193,7.952 7.986 C 8.131 7.783,8.516 7.708,8.791 7.821 " fill="#292D32" stroke="none" fill-rule="evenodd"></path></svg>