<svg width="24" height="24" viewBox="0 0 24 24" fill="none" xmlns="http://www.w3.org/2000/svg"><path d="M8.580 2.066 C 8.259 2.135,7.886 2.284,7.493 2.500 C 7.258 2.629,6.900 2.970,4.935 4.935 C 2.515 7.355,2.518 7.351,2.252 8.000 C 1.996 8.623,2.000 8.560,2.000 12.000 C 2.000 15.440,1.996 15.377,2.252 16.000 C 2.491 16.582,2.611 16.738,3.525 17.660 L 4.398 18.540 11.469 11.469 L 18.540 4.398 17.640 3.506 L 16.740 2.614 16.280 2.389 C 15.480 1.997,15.788 2.025,12.100 2.014 C 9.337 2.007,8.819 2.014,8.580 2.066 M20.760 2.307 C 20.698 2.320,20.261 2.724,19.609 3.373 L 18.559 4.418 19.079 4.939 L 19.600 5.460 12.530 12.530 L 5.460 19.600 6.240 20.383 C 6.669 20.814,7.128 21.244,7.260 21.338 C 7.688 21.645,8.211 21.865,8.737 21.958 C 9.062 22.015,14.938 22.015,15.263 21.958 C 15.744 21.873,16.274 21.660,16.680 21.389 C 16.932 21.221,21.128 17.033,21.338 16.740 C 21.560 16.431,21.722 16.105,21.865 15.680 L 21.980 15.340 21.980 12.000 L 21.980 8.660 21.865 8.320 C 21.600 7.533,21.452 7.323,20.446 6.311 L 19.622 5.481 20.606 4.491 C 21.147 3.946,21.620 3.440,21.658 3.366 C 21.749 3.186,21.747 2.833,21.653 2.673 C 21.522 2.449,21.317 2.317,21.076 2.301 C 20.957 2.293,20.815 2.296,20.760 2.307 M3.373 19.609 C 2.412 20.576,2.327 20.674,2.301 20.830 C 2.243 21.184,2.397 21.514,2.693 21.667 C 2.859 21.752,3.186 21.749,3.361 21.661 C 3.510 21.584,5.440 19.692,5.440 19.621 C 5.440 19.598,5.210 19.349,4.929 19.069 L 4.418 18.559 3.373 19.609 " fill="#292D32" stroke="none" fill-rule="evenodd"></path></svg>