<svg width="24" height="24" viewBox="0 0 24 24" fill="none" xmlns="http://www.w3.org/2000/svg"><path d="M5.100 2.027 C 4.302 2.126,3.395 2.604,2.886 3.194 C 2.503 3.637,2.265 4.086,2.108 4.660 C 1.981 5.122,1.984 5.964,2.113 6.420 C 2.229 6.827,2.466 7.313,2.698 7.619 C 2.798 7.751,2.880 7.871,2.880 7.886 C 2.880 7.901,2.842 8.000,2.796 8.107 C 2.503 8.785,2.224 9.776,2.095 10.600 C 1.994 11.247,1.993 12.755,2.092 13.400 C 2.225 14.259,2.490 15.208,2.779 15.861 C 2.834 15.987,2.880 16.105,2.880 16.123 C 2.880 16.141,2.791 16.273,2.682 16.417 C 2.444 16.732,2.232 17.166,2.112 17.588 C 1.984 18.035,1.982 18.881,2.108 19.340 C 2.458 20.618,3.382 21.542,4.660 21.892 C 5.122 22.019,5.964 22.016,6.420 21.887 C 6.827 21.771,7.313 21.534,7.619 21.302 C 7.751 21.202,7.871 21.120,7.886 21.120 C 7.901 21.120,8.000 21.158,8.107 21.204 C 8.785 21.497,9.776 21.776,10.600 21.905 C 11.247 22.006,12.755 22.007,13.400 21.908 C 14.259 21.775,15.208 21.510,15.861 21.221 C 15.987 21.166,16.105 21.120,16.123 21.120 C 16.141 21.120,16.273 21.209,16.417 21.318 C 16.732 21.556,17.166 21.768,17.588 21.888 C 18.035 22.016,18.881 22.018,19.340 21.892 C 20.618 21.542,21.542 20.618,21.892 19.340 C 22.018 18.881,22.016 18.035,21.888 17.588 C 21.768 17.166,21.556 16.732,21.318 16.417 C 21.209 16.273,21.120 16.141,21.120 16.123 C 21.120 16.105,21.166 15.987,21.221 15.861 C 21.510 15.208,21.775 14.259,21.908 13.400 C 22.007 12.755,22.006 11.247,21.905 10.600 C 21.776 9.776,21.497 8.785,21.204 8.107 C 21.158 8.000,21.120 7.901,21.120 7.886 C 21.120 7.871,21.202 7.751,21.302 7.619 C 21.534 7.313,21.771 6.827,21.887 6.420 C 22.016 5.964,22.019 5.122,21.892 4.660 C 21.601 3.596,20.939 2.804,19.960 2.347 C 19.412 2.091,19.088 2.021,18.460 2.023 C 18.060 2.024,17.864 2.044,17.611 2.111 C 17.200 2.218,16.737 2.441,16.408 2.690 C 16.269 2.794,16.140 2.880,16.121 2.880 C 16.103 2.880,15.941 2.818,15.763 2.741 C 15.076 2.447,14.122 2.195,13.240 2.075 C 12.741 2.007,11.287 2.007,10.800 2.075 C 9.888 2.202,9.122 2.398,8.350 2.704 C 7.902 2.882,7.877 2.887,7.790 2.824 C 7.194 2.387,6.703 2.159,6.145 2.062 C 5.817 2.005,5.392 1.991,5.100 2.027 M12.900 3.561 C 13.488 3.626,14.082 3.751,14.607 3.920 C 14.878 4.008,15.126 4.096,15.159 4.117 C 15.209 4.150,15.206 4.192,15.131 4.428 C 14.798 5.479,14.945 6.568,15.539 7.459 C 16.427 8.792,18.036 9.355,19.572 8.869 C 19.808 8.794,19.850 8.791,19.883 8.841 C 19.955 8.954,20.233 9.869,20.314 10.263 C 20.453 10.943,20.491 11.440,20.469 12.276 C 20.442 13.299,20.312 14.014,19.993 14.885 L 19.867 15.231 19.597 15.139 C 18.779 14.861,17.794 14.913,17.021 15.275 C 15.367 16.050,14.581 17.836,15.131 19.572 C 15.206 19.808,15.209 19.850,15.159 19.882 C 15.040 19.959,14.128 20.237,13.740 20.315 C 13.111 20.443,12.713 20.480,11.992 20.480 C 10.980 20.480,10.224 20.357,9.253 20.035 L 8.767 19.873 8.846 19.646 C 9.449 17.923,8.654 16.060,6.979 15.275 C 6.225 14.922,5.212 14.861,4.449 15.124 C 4.327 15.166,4.205 15.200,4.177 15.200 C 4.069 15.200,3.772 14.253,3.619 13.420 C 3.530 12.938,3.495 11.621,3.558 11.076 C 3.641 10.343,3.914 9.241,4.104 8.874 L 4.158 8.767 4.369 8.847 C 4.878 9.041,5.655 9.095,6.232 8.977 C 7.589 8.698,8.698 7.589,8.977 6.232 C 9.095 5.654,9.041 4.878,8.846 4.367 L 8.765 4.153 8.933 4.079 C 9.400 3.873,10.525 3.608,11.180 3.548 C 11.536 3.516,12.562 3.523,12.900 3.561 " fill="#292D32" stroke="none" fill-rule="evenodd"></path></svg>