<svg width="24" height="24" viewBox="0 0 24 24" fill="none" xmlns="http://www.w3.org/2000/svg"><path d="M4.082 1.282 C 3.315 1.385,2.649 1.735,2.116 2.313 C 1.526 2.953,1.261 3.641,1.265 4.520 C 1.268 4.942,1.285 5.075,1.375 5.372 C 1.557 5.978,1.833 6.432,2.269 6.847 C 2.514 7.080,2.898 7.348,3.116 7.438 L 3.240 7.490 3.240 12.000 L 3.240 16.510 3.116 16.562 C 2.891 16.655,2.508 16.925,2.248 17.174 C 1.821 17.582,1.558 18.020,1.375 18.628 C 1.285 18.925,1.268 19.058,1.265 19.480 C 1.263 20.009,1.310 20.265,1.496 20.726 C 1.662 21.136,1.849 21.409,2.220 21.780 C 2.698 22.257,3.097 22.487,3.765 22.668 C 4.174 22.779,4.924 22.759,5.372 22.625 C 5.976 22.444,6.431 22.168,6.847 21.731 C 7.080 21.486,7.348 21.102,7.438 20.884 L 7.490 20.760 12.000 20.760 L 16.510 20.760 16.562 20.884 C 16.655 21.109,16.925 21.492,17.174 21.752 C 17.582 22.179,18.020 22.442,18.628 22.625 C 18.925 22.715,19.058 22.732,19.480 22.735 C 20.009 22.737,20.265 22.690,20.726 22.504 C 21.136 22.338,21.409 22.151,21.780 21.780 C 22.257 21.302,22.487 20.903,22.668 20.235 C 22.779 19.826,22.759 19.076,22.625 18.628 C 22.444 18.024,22.168 17.569,21.731 17.153 C 21.486 16.920,21.102 16.652,20.884 16.562 L 20.760 16.510 20.760 12.000 L 20.760 7.490 20.884 7.438 C 21.102 7.348,21.486 7.080,21.731 6.847 C 22.168 6.431,22.444 5.976,22.625 5.372 C 22.713 5.078,22.731 4.938,22.734 4.520 C 22.738 3.991,22.691 3.737,22.504 3.274 C 22.151 2.401,21.370 1.683,20.469 1.406 C 19.359 1.063,18.138 1.342,17.295 2.131 C 17.009 2.398,16.741 2.751,16.596 3.050 L 16.504 3.240 11.997 3.240 L 7.490 3.240 7.438 3.116 C 7.276 2.723,6.801 2.160,6.376 1.856 C 5.739 1.401,4.851 1.179,4.082 1.282 M16.288 4.984 C 16.455 6.146,17.373 7.226,18.496 7.582 C 18.669 7.637,18.903 7.696,19.016 7.712 L 19.220 7.741 19.230 12.002 L 19.240 16.262 18.945 16.309 C 17.919 16.472,16.989 17.192,16.544 18.166 C 16.423 18.433,16.300 18.861,16.271 19.120 L 16.260 19.220 11.996 19.230 L 7.731 19.240 7.709 19.030 C 7.674 18.704,7.500 18.211,7.300 17.869 C 6.823 17.057,5.953 16.452,5.056 16.309 L 4.760 16.262 4.770 12.002 L 4.780 7.741 4.984 7.712 C 6.144 7.545,7.226 6.627,7.581 5.509 C 7.635 5.338,7.690 5.122,7.703 5.029 C 7.716 4.936,7.734 4.837,7.742 4.810 C 7.754 4.770,8.627 4.762,12.008 4.770 L 16.259 4.780 16.288 4.984 " fill="#292D32" stroke="none" fill-rule="evenodd"></path></svg>