<svg width="24" height="24" viewBox="0 0 24 24" fill="none" xmlns="http://www.w3.org/2000/svg"><path d="M11.660 1.353 C 11.396 1.522,11.280 1.723,11.280 2.014 C 11.280 2.247,11.359 2.384,11.831 2.969 C 12.056 3.248,12.240 3.481,12.240 3.488 C 12.240 3.495,12.014 3.503,11.738 3.507 C 8.419 3.555,5.298 5.442,3.610 8.420 C 3.041 9.423,2.610 10.727,2.460 11.898 C 2.387 12.476,2.374 13.671,2.437 14.164 C 2.626 15.638,3.035 16.854,3.739 18.034 C 4.693 19.633,6.123 20.952,7.780 21.760 C 9.060 22.385,10.256 22.689,11.660 22.746 C 14.250 22.853,16.792 21.880,18.676 20.061 C 19.858 18.919,20.645 17.684,21.155 16.169 C 21.487 15.181,21.640 14.226,21.640 13.134 C 21.640 11.206,21.115 9.490,20.021 7.840 C 19.643 7.271,19.404 6.985,19.232 6.896 C 19.079 6.817,18.721 6.817,18.569 6.895 C 18.154 7.110,18.035 7.638,18.316 8.016 C 19.263 9.285,19.783 10.418,20.024 11.740 C 20.112 12.218,20.145 13.558,20.082 14.072 C 19.623 17.833,16.665 20.768,12.900 21.198 C 12.377 21.258,11.515 21.249,10.972 21.179 C 8.326 20.836,6.019 19.223,4.794 16.861 C 4.389 16.080,4.160 15.414,3.989 14.520 C 3.914 14.128,3.902 13.921,3.901 13.120 C 3.901 12.321,3.915 12.108,3.990 11.697 C 4.222 10.432,4.730 9.271,5.510 8.220 C 5.853 7.758,6.640 6.969,7.093 6.632 C 9.025 5.197,11.330 4.693,13.710 5.184 C 13.880 5.218,14.062 5.232,14.147 5.216 C 14.307 5.186,14.572 4.970,14.663 4.795 C 14.735 4.655,14.737 4.293,14.665 4.156 C 14.566 3.966,12.535 1.459,12.416 1.380 C 12.245 1.266,11.819 1.251,11.660 1.353 M10.535 10.157 C 10.445 10.198,10.326 10.292,10.270 10.366 C 10.210 10.447,10.009 10.985,9.765 11.720 C 9.276 13.193,9.264 13.300,9.555 13.613 C 9.613 13.676,9.696 13.748,9.740 13.773 C 9.795 13.805,10.257 13.826,11.200 13.840 C 12.570 13.860,12.581 13.861,12.749 13.957 C 12.843 14.010,12.969 14.126,13.029 14.214 C 13.123 14.349,13.140 14.414,13.140 14.640 C 13.140 14.866,13.123 14.931,13.029 15.066 C 12.969 15.154,12.843 15.270,12.749 15.323 C 12.581 15.419,12.570 15.420,11.200 15.440 C 10.257 15.454,9.795 15.475,9.740 15.507 C 9.696 15.532,9.612 15.604,9.553 15.667 C 9.244 15.992,9.310 16.540,9.688 16.790 L 9.854 16.900 11.202 16.911 C 12.701 16.924,12.941 16.899,13.380 16.682 C 14.162 16.295,14.640 15.521,14.640 14.640 C 14.640 13.759,14.162 12.985,13.380 12.598 C 13.005 12.413,12.675 12.361,11.853 12.361 L 11.126 12.360 11.256 11.970 L 11.387 11.580 12.764 11.560 C 14.298 11.538,14.290 11.539,14.508 11.253 C 14.607 11.124,14.620 11.072,14.620 10.820 C 14.620 10.566,14.607 10.517,14.505 10.383 C 14.276 10.082,14.272 10.082,12.380 10.082 C 10.825 10.082,10.688 10.087,10.535 10.157 " fill="#292D32" stroke="none" fill-rule="evenodd"></path></svg>