<svg width="24" height="24" viewBox="0 0 24 24" fill="none" xmlns="http://www.w3.org/2000/svg"><path d="M14.060 2.819 C 13.414 2.921,13.039 3.083,12.697 3.406 C 12.312 3.771,12.056 4.432,12.011 5.181 C 11.990 5.526,11.994 5.546,12.094 5.665 C 12.151 5.734,12.248 5.809,12.309 5.833 C 12.374 5.858,12.875 5.883,13.520 5.893 C 14.728 5.911,15.071 5.954,15.700 6.164 C 16.789 6.528,17.472 7.211,17.836 8.300 C 18.043 8.919,18.087 9.273,18.115 10.522 C 18.137 11.518,18.149 11.677,18.211 11.771 C 18.346 11.978,18.448 12.014,18.833 11.989 C 19.598 11.939,20.241 11.683,20.617 11.277 C 20.868 11.005,21.006 10.735,21.128 10.272 C 21.212 9.952,21.216 9.856,21.231 7.580 C 21.247 5.057,21.232 4.757,21.057 4.200 C 20.794 3.364,20.200 2.938,19.104 2.800 C 18.621 2.740,14.462 2.755,14.060 2.819 M9.753 7.401 C 8.925 7.464,8.371 7.671,8.010 8.053 C 7.643 8.441,7.476 8.908,7.402 9.750 C 7.349 10.359,7.349 13.641,7.402 14.250 C 7.543 15.859,8.141 16.457,9.750 16.598 C 10.359 16.651,13.641 16.651,14.250 16.598 C 15.117 16.522,15.628 16.330,15.995 15.942 C 16.547 15.358,16.640 14.790,16.640 12.000 C 16.640 9.210,16.547 8.642,15.995 8.058 C 15.617 7.659,15.096 7.470,14.184 7.400 C 13.594 7.355,10.347 7.356,9.753 7.401 M4.820 12.056 C 3.535 12.268,2.965 12.873,2.802 14.199 C 2.746 14.648,2.747 18.635,2.802 19.081 C 2.968 20.423,3.503 20.987,4.793 21.181 C 5.266 21.252,9.250 21.266,9.801 21.198 C 11.196 21.027,11.807 20.395,11.967 18.960 C 12.020 18.487,11.993 18.376,11.787 18.224 C 11.681 18.145,11.606 18.138,10.487 18.114 C 9.532 18.092,9.226 18.072,8.920 18.008 C 7.615 17.734,6.823 17.162,6.336 16.140 C 5.998 15.429,5.881 14.731,5.880 13.420 C 5.880 12.914,5.862 12.436,5.840 12.357 C 5.818 12.278,5.755 12.172,5.700 12.120 C 5.574 12.002,5.281 11.981,4.820 12.056 " fill="#292D32" stroke="none" fill-rule="evenodd"></path></svg>