<svg width="24" height="24" viewBox="0 0 24 24" fill="none" xmlns="http://www.w3.org/2000/svg"><path d="M11.787 1.279 C 11.475 1.378,11.280 1.655,11.280 1.998 C 11.280 2.265,11.333 2.361,11.806 2.947 C 12.023 3.216,12.200 3.446,12.200 3.458 C 12.200 3.470,12.040 3.480,11.844 3.480 C 10.133 3.480,8.201 4.077,6.700 5.068 C 3.878 6.934,2.246 10.098,2.373 13.460 C 2.467 15.947,3.436 18.163,5.198 19.921 C 6.892 21.611,9.039 22.577,11.413 22.717 C 15.305 22.946,18.931 20.835,20.638 17.344 C 21.894 14.779,21.953 11.838,20.802 9.240 C 20.486 8.528,19.814 7.440,19.555 7.222 C 19.211 6.932,18.663 7.040,18.450 7.440 C 18.373 7.585,18.357 7.664,18.369 7.846 C 18.383 8.051,18.414 8.116,18.717 8.566 C 20.377 11.037,20.599 14.009,19.320 16.660 C 17.971 19.460,15.126 21.240,12.000 21.240 C 10.059 21.240,8.257 20.582,6.752 19.322 C 5.253 18.068,4.238 16.241,3.940 14.259 C 3.852 13.675,3.852 12.567,3.939 11.980 C 4.163 10.473,4.791 9.055,5.728 7.940 C 6.522 6.996,7.361 6.334,8.420 5.818 C 9.603 5.241,10.679 4.991,11.980 4.992 C 12.620 4.992,12.872 5.017,13.700 5.163 C 14.024 5.220,14.218 5.194,14.402 5.069 C 14.668 4.888,14.766 4.483,14.625 4.146 C 14.541 3.945,12.515 1.435,12.368 1.350 C 12.220 1.264,11.940 1.230,11.787 1.279 M9.240 10.167 C 9.110 10.234,8.836 10.509,8.251 11.157 C 7.807 11.650,7.415 12.112,7.381 12.183 C 7.348 12.254,7.320 12.395,7.320 12.497 C 7.320 12.928,7.622 13.240,8.040 13.240 C 8.261 13.240,8.376 13.186,8.600 12.976 L 8.798 12.791 8.809 14.609 L 8.820 16.426 8.915 16.565 C 9.074 16.796,9.263 16.896,9.543 16.898 C 9.742 16.900,9.815 16.880,9.952 16.790 C 10.044 16.729,10.155 16.609,10.199 16.522 C 10.278 16.367,10.280 16.294,10.280 13.500 C 10.280 10.706,10.278 10.633,10.199 10.478 C 10.026 10.138,9.578 9.993,9.240 10.167 M12.560 10.169 C 12.462 10.219,12.339 10.322,12.289 10.398 C 12.169 10.578,11.400 12.942,11.400 13.130 C 11.400 13.329,11.462 13.476,11.611 13.631 C 11.831 13.859,11.981 13.880,13.389 13.880 C 14.816 13.880,14.858 13.888,15.070 14.208 C 15.162 14.347,15.180 14.417,15.180 14.640 C 15.180 14.863,15.162 14.933,15.070 15.072 C 15.009 15.164,14.883 15.279,14.790 15.329 C 14.625 15.417,14.579 15.421,13.234 15.440 L 11.847 15.460 11.698 15.581 C 11.616 15.648,11.515 15.764,11.474 15.840 C 11.312 16.144,11.428 16.578,11.728 16.786 L 11.893 16.900 13.377 16.900 C 15.015 16.900,15.014 16.900,15.539 16.625 C 16.206 16.275,16.719 15.413,16.719 14.640 C 16.719 13.825,16.198 12.980,15.477 12.625 C 15.046 12.413,14.741 12.362,13.910 12.361 C 13.520 12.360,13.200 12.347,13.200 12.330 C 13.200 12.314,13.255 12.134,13.323 11.930 L 13.447 11.560 14.785 11.560 C 16.267 11.560,16.289 11.557,16.509 11.307 C 16.820 10.953,16.766 10.512,16.377 10.215 L 16.226 10.100 14.483 10.089 L 12.740 10.078 12.560 10.169 " fill="#292D32" stroke="none" fill-rule="evenodd"></path></svg>