<svg width="24" height="24" viewBox="0 0 24 24" fill="none" xmlns="http://www.w3.org/2000/svg"><path d="M11.820 1.276 C 11.416 1.377,11.183 1.756,11.280 2.158 C 11.314 2.303,11.425 2.471,11.762 2.892 C 12.003 3.192,12.200 3.445,12.200 3.453 C 12.200 3.461,11.925 3.479,11.590 3.492 C 10.167 3.549,8.895 3.883,7.619 4.532 C 4.693 6.023,2.725 8.904,2.397 12.178 C 2.332 12.832,2.370 14.040,2.476 14.660 C 3.084 18.230,5.572 21.138,8.980 22.262 C 10.006 22.600,10.886 22.737,12.020 22.736 C 13.558 22.734,14.860 22.428,16.260 21.739 C 18.925 20.427,20.818 17.977,21.434 15.040 C 21.577 14.357,21.618 13.917,21.617 13.080 C 21.616 11.877,21.451 10.937,21.049 9.840 C 20.714 8.927,19.941 7.563,19.579 7.244 C 19.324 7.021,18.944 6.997,18.655 7.187 C 18.492 7.294,18.356 7.569,18.354 7.793 C 18.352 8.027,18.359 8.041,18.769 8.657 C 19.473 9.713,19.925 10.923,20.078 12.159 C 20.132 12.595,20.132 13.645,20.078 14.081 C 19.982 14.860,19.791 15.575,19.494 16.274 C 18.417 18.806,16.159 20.612,13.428 21.124 C 12.863 21.230,11.702 21.270,11.136 21.204 C 9.253 20.982,7.573 20.176,6.259 18.861 C 4.711 17.313,3.880 15.304,3.880 13.107 C 3.880 12.164,3.996 11.419,4.277 10.565 C 5.244 7.620,7.851 5.462,10.932 5.056 C 11.537 4.976,12.807 5.000,13.300 5.100 C 13.836 5.208,14.125 5.220,14.283 5.140 C 14.474 5.043,14.557 4.963,14.644 4.792 C 14.740 4.604,14.739 4.387,14.643 4.174 C 14.540 3.948,12.521 1.436,12.376 1.355 C 12.231 1.273,11.978 1.237,11.820 1.276 M9.216 9.921 C 9.101 9.978,8.814 10.266,8.276 10.865 C 7.849 11.339,7.460 11.794,7.411 11.876 C 7.317 12.031,7.285 12.304,7.339 12.480 C 7.425 12.760,7.747 12.998,8.040 12.998 C 8.231 12.998,8.472 12.880,8.640 12.703 L 8.780 12.555 8.800 14.374 L 8.820 16.193 8.944 16.346 C 9.122 16.566,9.288 16.651,9.538 16.651 C 9.796 16.651,10.020 16.536,10.161 16.331 L 10.260 16.186 10.272 13.343 C 10.280 11.441,10.270 10.452,10.242 10.355 C 10.118 9.927,9.625 9.719,9.216 9.921 M13.340 9.904 C 12.617 10.078,11.892 10.658,11.567 11.320 C 11.285 11.896,11.262 12.036,11.261 13.220 C 11.260 14.337,11.284 14.535,11.472 14.977 C 11.756 15.645,12.275 16.164,12.943 16.448 C 13.591 16.724,14.409 16.724,15.057 16.448 C 15.725 16.164,16.244 15.645,16.528 14.977 C 16.716 14.535,16.740 14.337,16.739 13.220 C 16.738 12.036,16.715 11.896,16.433 11.320 C 16.198 10.842,15.722 10.366,15.240 10.130 C 15.053 10.038,14.783 9.935,14.640 9.902 C 14.316 9.826,13.660 9.827,13.340 9.904 M14.501 11.436 C 14.763 11.552,15.014 11.807,15.137 12.081 L 15.245 12.321 15.233 13.311 L 15.220 14.300 15.102 14.513 C 14.615 15.392,13.385 15.392,12.898 14.513 L 12.780 14.300 12.767 13.309 L 12.755 12.318 12.860 12.089 C 13.154 11.444,13.873 11.158,14.501 11.436 " fill="#292D32" stroke="none" fill-rule="evenodd"></path></svg>