<svg width="24" height="24" viewBox="0 0 24 24" fill="none" xmlns="http://www.w3.org/2000/svg"><path d="M6.960 2.046 C 6.236 2.116,5.358 2.357,4.796 2.641 C 4.426 2.828,3.928 3.183,3.624 3.475 C 2.737 4.332,2.251 5.370,2.062 6.812 C 1.970 7.515,1.969 16.481,2.061 17.188 C 2.239 18.550,2.681 19.544,3.476 20.372 C 4.162 21.084,4.935 21.524,5.956 21.780 C 6.817 21.997,6.896 22.000,11.993 22.000 C 14.960 22.000,16.828 21.985,17.041 21.959 C 19.985 21.603,21.695 19.840,21.962 16.885 C 21.990 16.579,21.999 14.787,21.989 11.660 C 21.974 7.001,21.972 6.891,21.889 6.456 C 21.642 5.171,21.165 4.235,20.369 3.478 C 19.583 2.729,18.652 2.295,17.359 2.076 C 16.995 2.014,7.572 1.987,6.960 2.046 M15.711 6.941 C 15.877 7.010,17.563 8.660,17.666 8.854 C 17.764 9.040,17.748 9.366,17.629 9.568 C 17.573 9.662,17.143 10.119,16.674 10.582 C 15.980 11.266,15.789 11.433,15.655 11.472 C 15.439 11.535,15.347 11.533,15.169 11.458 C 14.972 11.376,14.845 11.254,14.756 11.060 C 14.615 10.755,14.695 10.429,14.975 10.162 C 15.055 10.086,15.120 10.009,15.120 9.990 C 15.120 9.971,13.899 9.961,12.390 9.969 C 9.703 9.982,9.656 9.984,9.400 10.070 C 8.621 10.333,8.017 10.971,7.821 11.738 C 7.743 12.044,7.743 12.556,7.821 12.862 C 8.022 13.650,8.620 14.271,9.440 14.544 C 9.642 14.612,9.887 14.619,12.466 14.639 L 15.273 14.660 15.426 14.784 C 15.511 14.853,15.614 14.967,15.656 15.038 C 15.750 15.199,15.756 15.534,15.668 15.705 C 15.578 15.879,15.345 16.072,15.191 16.100 C 15.119 16.113,13.791 16.118,12.240 16.111 C 9.437 16.098,9.418 16.097,9.101 16.006 C 8.259 15.763,7.531 15.268,7.013 14.584 C 6.759 14.249,6.461 13.612,6.356 13.180 C 6.233 12.677,6.233 11.924,6.355 11.422 C 6.449 11.038,6.711 10.444,6.923 10.136 C 7.414 9.422,8.230 8.845,9.101 8.594 C 9.418 8.503,9.436 8.502,12.312 8.489 L 15.204 8.477 14.981 8.231 C 14.844 8.079,14.743 7.924,14.716 7.824 C 14.555 7.226,15.141 6.706,15.711 6.941 " fill="#292D32" stroke="none" fill-rule="evenodd"></path></svg>