<svg width="24" height="24" viewBox="0 0 24 24" fill="none" xmlns="http://www.w3.org/2000/svg"><path d="M3.444 6.461 C 3.325 6.494,3.136 6.570,3.024 6.630 C 2.752 6.775,2.356 7.173,2.225 7.430 C 1.994 7.887,2.000 7.755,2.000 12.000 C 2.000 16.245,1.994 16.113,2.225 16.570 C 2.358 16.833,2.762 17.239,3.021 17.370 C 3.515 17.620,4.087 17.672,4.560 17.508 C 4.714 17.455,6.211 16.615,8.233 15.447 C 10.109 14.363,11.671 13.466,11.703 13.453 C 11.752 13.435,11.760 13.602,11.760 14.608 C 11.760 15.281,11.779 15.887,11.803 16.023 C 11.939 16.767,12.567 17.408,13.311 17.562 C 13.695 17.642,14.134 17.593,14.482 17.431 C 14.751 17.306,15.996 16.596,19.780 14.410 C 20.484 14.003,21.145 13.608,21.248 13.533 C 21.771 13.152,22.080 12.369,21.967 11.710 C 21.870 11.147,21.576 10.682,21.132 10.390 C 20.701 10.106,14.812 6.722,14.482 6.569 C 13.807 6.255,12.978 6.388,12.406 6.902 C 12.171 7.114,11.989 7.386,11.869 7.706 C 11.788 7.924,11.781 8.031,11.761 9.262 L 11.740 10.584 8.260 8.574 C 6.346 7.468,4.699 6.534,4.600 6.498 C 4.345 6.405,3.716 6.385,3.444 6.461 " fill="#292D32" stroke="none" fill-rule="evenodd"></path></svg>