<svg width="24" height="24" viewBox="0 0 24 24" fill="none" xmlns="http://www.w3.org/2000/svg"><path d="M11.440 2.047 C 11.160 2.086,5.495 4.186,5.160 4.375 C 4.483 4.755,3.902 5.520,3.682 6.319 C 3.602 6.613,3.600 6.703,3.600 10.963 C 3.600 15.136,3.603 15.319,3.678 15.612 C 3.823 16.178,4.106 16.698,4.495 17.112 C 4.711 17.341,6.239 18.498,6.500 18.630 C 7.107 18.937,7.853 18.906,8.440 18.549 C 8.936 18.247,19.670 10.347,19.871 10.136 C 20.109 9.886,20.253 9.627,20.340 9.292 C 20.426 8.965,20.425 6.772,20.340 6.410 C 20.157 5.634,19.640 4.897,18.977 4.468 C 18.570 4.205,12.970 2.106,12.507 2.043 C 12.145 1.993,11.808 1.995,11.440 2.047 M19.070 12.217 C 18.987 12.247,18.897 12.289,18.870 12.310 C 18.842 12.332,16.786 13.840,14.300 15.661 C 11.814 17.482,9.660 19.061,9.514 19.170 C 9.160 19.434,9.024 19.676,9.024 20.040 C 9.024 20.473,9.138 20.632,9.815 21.140 C 10.730 21.827,11.128 21.977,12.020 21.974 C 12.621 21.971,13.007 21.887,13.419 21.668 C 13.717 21.510,19.222 17.405,19.474 17.154 C 19.845 16.783,20.177 16.181,20.319 15.624 C 20.391 15.342,20.400 15.179,20.400 14.148 C 20.400 12.866,20.387 12.772,20.166 12.514 C 19.901 12.205,19.448 12.082,19.070 12.217 " fill="#292D32" stroke="none" fill-rule="evenodd"></path></svg>