<svg width="24" height="24" viewBox="0 0 24 24" fill="none" xmlns="http://www.w3.org/2000/svg"><path d="M4.200 2.028 C 3.269 2.142,2.795 2.514,2.586 3.296 L 2.500 3.620 2.500 12.000 L 2.500 20.380 2.586 20.704 C 2.736 21.263,2.979 21.565,3.458 21.784 C 3.912 21.992,4.126 22.005,6.929 21.991 C 9.494 21.978,9.501 21.978,9.780 21.886 C 10.468 21.658,10.792 21.296,10.937 20.592 C 10.993 20.316,11.000 19.400,11.000 12.000 C 11.000 2.926,11.012 3.384,10.769 2.889 C 10.647 2.640,10.347 2.345,10.106 2.239 C 9.617 2.022,9.654 2.025,6.900 2.017 C 5.492 2.014,4.277 2.018,4.200 2.028 M14.746 2.062 C 13.921 2.265,13.242 2.989,13.060 3.860 C 12.974 4.271,12.974 8.729,13.060 9.140 C 13.253 10.061,13.999 10.811,14.866 10.958 C 15.057 10.990,15.830 11.000,17.420 10.992 L 19.700 10.980 19.967 10.876 C 20.519 10.661,20.940 10.288,21.210 9.773 C 21.479 9.262,21.479 9.263,21.479 6.500 C 21.479 3.737,21.479 3.738,21.210 3.227 C 20.940 2.712,20.519 2.339,19.967 2.124 L 19.700 2.020 17.340 2.012 C 15.402 2.006,14.938 2.015,14.746 2.062 M14.746 13.062 C 13.921 13.265,13.242 13.989,13.060 14.860 C 12.974 15.271,12.974 19.729,13.060 20.140 C 13.253 21.061,13.999 21.811,14.866 21.958 C 15.057 21.990,15.830 22.000,17.420 21.992 L 19.700 21.980 19.967 21.876 C 20.519 21.661,20.940 21.288,21.210 20.773 C 21.479 20.262,21.479 20.263,21.479 17.500 C 21.479 14.737,21.479 14.738,21.210 14.227 C 20.940 13.712,20.519 13.339,19.967 13.124 L 19.700 13.020 17.340 13.012 C 15.402 13.006,14.938 13.015,14.746 13.062 " fill="#292D32" stroke="none" fill-rule="evenodd"></path></svg>