<svg width="24" height="24" viewBox="0 0 24 24" fill="none" xmlns="http://www.w3.org/2000/svg"><path d="M6.128 4.699 C 5.446 4.852,5.080 5.175,4.850 5.828 C 4.787 6.005,4.781 6.489,4.770 11.948 L 4.758 17.875 3.626 17.888 C 2.505 17.900,2.493 17.901,2.353 17.996 C 2.116 18.159,2.020 18.338,2.020 18.617 C 2.021 18.917,2.131 19.116,2.377 19.260 L 2.547 19.360 12.000 19.360 L 21.453 19.360 21.623 19.260 C 22.145 18.955,22.098 18.208,21.542 17.955 C 21.396 17.889,21.254 17.882,20.072 17.881 L 18.765 17.880 18.749 14.530 C 18.737 12.006,18.720 11.131,18.682 10.980 C 18.500 10.259,18.076 9.857,17.333 9.699 C 16.948 9.618,15.052 9.618,14.667 9.699 C 13.924 9.857,13.500 10.259,13.318 10.980 C 13.280 11.131,13.263 12.006,13.251 14.530 L 13.235 17.880 11.738 17.880 L 10.242 17.880 10.231 11.970 L 10.220 6.060 10.130 5.794 C 9.950 5.266,9.608 4.925,9.082 4.752 C 8.840 4.672,8.725 4.664,7.600 4.654 C 6.663 4.646,6.322 4.656,6.128 4.699 " fill="#292D32" stroke="none" fill-rule="evenodd"></path></svg>