<svg width="24" height="24" viewBox="0 0 24 24" fill="none" xmlns="http://www.w3.org/2000/svg"><path d="M11.280 2.023 C 11.203 2.032,10.969 2.059,10.760 2.083 C 8.633 2.326,6.523 3.357,4.958 4.919 C 2.567 7.306,1.544 10.670,2.203 13.980 C 2.851 17.230,5.168 20.020,8.245 21.255 C 9.532 21.771,10.626 21.977,12.060 21.973 C 13.036 21.970,13.689 21.888,14.560 21.657 C 17.453 20.892,19.929 18.765,21.142 16.004 C 21.917 14.237,22.170 12.165,21.837 10.312 C 21.745 9.801,21.664 9.621,21.442 9.431 C 21.133 9.167,20.851 9.142,20.210 9.321 C 18.410 9.823,16.510 9.187,15.396 7.709 C 14.808 6.928,14.512 6.032,14.507 5.020 C 14.505 4.464,14.547 4.172,14.702 3.654 C 14.850 3.162,14.827 2.908,14.605 2.594 C 14.401 2.307,14.214 2.231,13.380 2.100 C 13.000 2.040,11.579 1.988,11.280 2.023 M18.503 2.040 C 17.828 2.162,17.156 2.550,16.703 3.080 C 15.987 3.917,15.806 5.100,16.234 6.151 C 16.521 6.857,17.143 7.479,17.849 7.766 C 18.989 8.230,20.251 7.978,21.115 7.115 C 22.238 5.992,22.295 4.212,21.246 3.020 C 20.897 2.624,20.276 2.239,19.756 2.097 C 19.491 2.024,18.770 1.991,18.503 2.040 " fill="#292D32" stroke="none" fill-rule="evenodd"></path></svg>