<svg width="24" height="24" viewBox="0 0 24 24" fill="none" xmlns="http://www.w3.org/2000/svg"><path d="M11.385 2.045 C 9.376 2.303,7.765 3.815,7.333 5.846 C 7.239 6.288,7.240 7.254,7.334 7.674 C 7.547 8.619,7.954 9.395,8.574 10.035 C 10.005 11.515,12.308 11.910,14.140 10.989 C 16.027 10.041,17.080 7.869,16.655 5.803 C 16.155 3.373,13.849 1.729,11.385 2.045 M10.860 12.819 C 9.360 12.991,7.982 13.462,6.920 14.164 C 6.486 14.451,5.813 15.100,5.585 15.450 C 4.673 16.853,4.777 18.376,5.871 19.665 C 6.665 20.599,8.192 21.419,9.760 21.754 C 10.561 21.925,11.065 21.975,12.000 21.975 C 13.604 21.975,14.879 21.706,16.143 21.102 C 17.634 20.389,18.558 19.437,18.899 18.260 C 19.219 17.155,18.938 16.014,18.106 15.040 C 17.520 14.355,16.357 13.637,15.232 13.266 C 14.731 13.101,14.054 12.944,13.472 12.857 C 12.888 12.771,11.459 12.750,10.860 12.819 " fill="#292D32" stroke="none" fill-rule="evenodd"></path></svg>