<svg width="24" height="24" viewBox="0 0 24 24" fill="none" xmlns="http://www.w3.org/2000/svg"><path d="M17.488 1.060 C 16.972 1.174,16.553 1.452,16.334 1.826 L 16.235 1.996 11.567 2.011 C 7.002 2.026,6.890 2.028,6.456 2.111 C 5.206 2.351,4.253 2.829,3.515 3.586 C 2.788 4.332,2.345 5.238,2.111 6.456 C 2.028 6.891,2.026 7.001,2.011 11.660 C 1.995 16.600,2.005 16.998,2.161 17.763 C 2.386 18.871,2.882 19.807,3.615 20.510 C 4.368 21.232,5.282 21.671,6.497 21.892 C 6.978 21.980,7.001 21.980,12.000 21.980 C 16.999 21.980,17.022 21.980,17.503 21.892 C 18.767 21.662,19.738 21.181,20.485 20.414 C 21.209 19.671,21.656 18.757,21.889 17.544 C 21.972 17.110,21.974 16.998,21.989 12.433 L 22.004 7.765 22.174 7.666 C 22.407 7.529,22.667 7.237,22.785 6.980 C 22.991 6.530,23.006 6.337,22.991 4.361 C 22.978 2.617,22.973 2.529,22.890 2.280 C 22.690 1.683,22.317 1.310,21.720 1.110 C 21.470 1.026,21.391 1.023,19.600 1.013 C 18.126 1.006,17.688 1.015,17.488 1.060 M19.021 2.542 C 19.151 2.576,19.309 2.636,19.370 2.675 C 19.480 2.744,19.487 2.743,19.721 2.627 C 19.913 2.532,20.013 2.508,20.230 2.507 C 21.071 2.502,21.685 3.163,21.693 4.080 C 21.697 4.689,21.465 5.184,20.921 5.725 C 20.627 6.018,20.511 6.101,20.150 6.280 C 19.796 6.457,19.691 6.491,19.513 6.490 C 19.240 6.489,18.920 6.366,18.552 6.123 C 17.650 5.526,17.164 4.589,17.334 3.774 C 17.470 3.123,17.842 2.694,18.401 2.544 C 18.684 2.468,18.736 2.468,19.021 2.542 M16.009 4.970 C 16.023 6.368,16.029 6.476,16.111 6.720 C 16.309 7.316,16.684 7.691,17.280 7.889 C 17.524 7.971,17.632 7.977,19.030 7.991 L 20.520 8.006 20.520 10.305 C 20.520 12.135,20.510 12.598,20.470 12.574 C 20.442 12.557,20.348 12.489,20.260 12.422 C 19.834 12.098,19.211 11.948,18.630 12.031 C 18.003 12.120,17.904 12.191,15.468 14.283 C 14.276 15.308,13.228 16.195,13.140 16.254 C 12.703 16.549,11.897 16.648,11.334 16.476 C 10.984 16.370,10.826 16.277,10.370 15.910 C 9.757 15.418,9.286 15.248,8.667 15.297 C 8.069 15.345,8.005 15.380,5.849 16.825 L 3.860 18.159 3.805 18.029 C 3.689 17.752,3.561 17.139,3.519 16.651 C 3.488 16.299,3.479 14.724,3.491 11.600 C 3.508 6.745,3.503 6.863,3.706 6.165 C 4.178 4.541,5.408 3.646,7.360 3.507 C 7.459 3.500,9.442 3.491,11.767 3.487 L 15.994 3.480 16.009 4.970 M8.400 5.703 C 7.730 5.880,7.161 6.352,6.862 6.980 C 6.692 7.337,6.629 7.612,6.629 8.000 C 6.629 9.312,7.690 10.374,9.000 10.374 C 10.722 10.374,11.871 8.589,11.161 7.020 C 10.864 6.365,10.202 5.823,9.528 5.684 C 9.236 5.624,8.665 5.633,8.400 5.703 " fill="#292D32" stroke="none" fill-rule="evenodd"></path></svg>