<svg width="24" height="24" viewBox="0 0 24 24" fill="none" xmlns="http://www.w3.org/2000/svg"><path d="M6.991 2.044 C 6.252 2.117,5.350 2.362,4.800 2.640 C 4.372 2.856,3.859 3.234,3.515 3.586 C 2.777 4.344,2.333 5.262,2.108 6.497 C 2.020 6.978,2.020 7.001,2.020 11.980 C 2.020 16.619,2.025 17.011,2.092 17.409 C 2.232 18.241,2.478 18.947,2.826 19.520 L 3.032 19.860 2.597 20.302 C 2.021 20.889,1.908 21.143,2.062 21.511 C 2.144 21.708,2.266 21.835,2.460 21.924 C 2.664 22.019,2.858 22.018,3.060 21.923 C 3.172 21.871,6.045 19.022,12.587 12.474 L 21.955 3.100 21.982 2.906 C 22.021 2.637,21.946 2.413,21.756 2.232 C 21.504 1.992,21.121 1.940,20.847 2.108 C 20.788 2.144,20.542 2.368,20.300 2.605 L 19.860 3.037 19.640 2.895 C 19.094 2.545,18.348 2.265,17.557 2.113 C 17.104 2.027,17.056 2.026,12.220 2.017 C 9.536 2.013,7.183 2.025,6.991 2.044 M17.280 3.574 C 17.852 3.687,18.760 4.017,18.760 4.112 C 18.760 4.127,16.010 6.889,12.650 10.249 L 6.540 16.358 5.200 17.260 L 3.860 18.162 3.805 18.031 C 3.688 17.748,3.561 17.138,3.519 16.651 C 3.488 16.299,3.479 14.724,3.491 11.600 C 3.508 6.745,3.503 6.863,3.706 6.165 C 4.137 4.683,5.226 3.787,6.868 3.562 C 7.385 3.492,7.380 3.492,12.240 3.499 C 16.462 3.506,16.975 3.514,17.280 3.574 M20.986 5.994 L 20.393 6.588 20.438 6.964 C 20.469 7.220,20.480 8.171,20.472 9.949 L 20.460 12.558 20.206 12.381 C 19.861 12.141,19.545 12.037,19.080 12.011 C 18.638 11.987,18.317 12.052,17.940 12.242 C 17.773 12.327,17.023 12.944,15.469 14.277 C 14.082 15.466,13.150 16.237,13.006 16.314 C 12.410 16.631,11.674 16.641,11.007 16.340 L 10.754 16.226 8.069 18.911 C 6.592 20.388,5.393 21.606,5.405 21.618 C 5.416 21.630,5.632 21.693,5.883 21.758 C 6.809 21.999,6.825 22.000,11.984 22.000 C 15.044 22.000,16.819 21.985,17.072 21.957 C 19.919 21.645,21.670 19.876,21.960 17.020 C 21.992 16.712,22.001 15.118,21.990 11.700 C 21.976 7.296,21.968 6.787,21.906 6.480 C 21.821 6.055,21.637 5.400,21.604 5.400 C 21.590 5.400,21.312 5.667,20.986 5.994 M8.400 5.701 C 7.561 5.931,6.908 6.597,6.696 7.440 C 6.607 7.793,6.637 8.443,6.759 8.789 C 6.992 9.450,7.564 10.017,8.232 10.248 C 8.620 10.381,9.380 10.381,9.768 10.248 C 10.453 10.011,11.011 9.453,11.248 8.768 C 11.325 8.544,11.340 8.419,11.340 8.000 C 11.340 7.581,11.325 7.456,11.248 7.232 C 11.017 6.564,10.451 5.993,9.789 5.759 C 9.461 5.643,8.724 5.612,8.400 5.701 " fill="#292D32" stroke="none" fill-rule="evenodd"></path></svg>