<svg width="24" height="24" viewBox="0 0 24 24" fill="none" xmlns="http://www.w3.org/2000/svg"><path d="M6.991 2.044 C 6.252 2.117,5.350 2.362,4.800 2.640 C 4.372 2.856,3.859 3.234,3.515 3.586 C 2.789 4.332,2.345 5.238,2.111 6.456 C 2.028 6.890,2.026 7.002,2.010 11.640 C 1.994 16.582,2.005 17.015,2.163 17.805 C 2.375 18.862,2.884 19.809,3.618 20.513 C 4.368 21.232,5.284 21.671,6.497 21.892 C 6.978 21.980,7.001 21.980,12.000 21.980 C 16.999 21.980,17.022 21.980,17.503 21.892 C 18.767 21.662,19.738 21.181,20.485 20.414 C 21.221 19.658,21.668 18.734,21.892 17.503 C 21.980 17.022,21.980 16.999,21.980 12.000 C 21.980 7.001,21.980 6.978,21.892 6.497 C 21.667 5.262,21.224 4.344,20.485 3.586 C 19.747 2.829,18.795 2.351,17.544 2.111 C 17.107 2.027,17.018 2.026,12.220 2.017 C 9.536 2.013,7.183 2.025,6.991 2.044 M17.280 3.575 C 18.243 3.769,18.865 4.071,19.397 4.603 C 19.930 5.136,20.236 5.768,20.423 6.720 C 20.480 7.009,20.492 7.446,20.508 9.640 C 20.518 11.059,20.520 12.307,20.513 12.414 L 20.500 12.608 20.340 12.479 C 19.891 12.115,19.237 11.944,18.630 12.031 C 18.003 12.120,17.904 12.191,15.468 14.283 C 14.276 15.308,13.228 16.195,13.140 16.254 C 12.703 16.549,11.897 16.648,11.334 16.476 C 10.984 16.370,10.826 16.277,10.370 15.910 C 9.757 15.418,9.286 15.248,8.667 15.297 C 8.069 15.345,8.005 15.380,5.849 16.825 L 3.860 18.159 3.805 18.029 C 3.689 17.752,3.561 17.139,3.519 16.651 C 3.488 16.299,3.479 14.724,3.491 11.600 C 3.508 6.745,3.503 6.863,3.706 6.165 C 4.137 4.683,5.226 3.787,6.868 3.562 C 7.385 3.492,7.380 3.492,12.240 3.499 C 16.499 3.506,16.972 3.513,17.280 3.575 M8.400 5.701 C 7.561 5.931,6.908 6.597,6.696 7.440 C 6.607 7.793,6.637 8.443,6.759 8.789 C 6.992 9.450,7.564 10.017,8.232 10.248 C 8.620 10.381,9.380 10.381,9.768 10.248 C 10.453 10.011,11.011 9.453,11.248 8.768 C 11.325 8.544,11.340 8.419,11.340 8.000 C 11.340 7.581,11.325 7.456,11.248 7.232 C 11.017 6.564,10.451 5.993,9.789 5.759 C 9.461 5.643,8.724 5.612,8.400 5.701 " fill="#292D32" stroke="none" fill-rule="evenodd"></path></svg>