<svg width="24" height="24" viewBox="0 0 24 24" fill="none" xmlns="http://www.w3.org/2000/svg"><path d="M17.460 1.066 C 16.971 1.171,16.492 1.498,16.297 1.860 L 16.224 1.996 11.562 2.011 C 7.002 2.026,6.890 2.028,6.456 2.111 C 5.206 2.351,4.253 2.829,3.515 3.586 C 2.788 4.332,2.345 5.238,2.111 6.456 C 2.028 6.891,2.026 7.001,2.011 11.660 C 1.995 16.600,2.005 16.998,2.161 17.763 C 2.386 18.871,2.882 19.807,3.615 20.510 C 4.368 21.232,5.282 21.671,6.497 21.892 C 6.978 21.980,7.001 21.980,12.000 21.980 C 16.999 21.980,17.022 21.980,17.503 21.892 C 18.767 21.662,19.738 21.181,20.485 20.414 C 21.209 19.671,21.656 18.757,21.889 17.544 C 21.972 17.110,21.974 16.998,21.989 12.438 L 22.004 7.776 22.140 7.703 C 22.346 7.592,22.620 7.298,22.751 7.046 C 22.978 6.610,22.980 6.587,22.980 4.500 C 22.980 2.413,22.978 2.390,22.751 1.954 C 22.511 1.493,22.073 1.179,21.512 1.063 C 21.074 0.973,17.884 0.976,17.460 1.066 M21.520 2.713 C 21.575 2.753,21.654 2.853,21.695 2.936 C 21.828 3.205,21.786 3.270,20.573 4.689 C 19.966 5.399,19.387 6.065,19.286 6.170 C 19.095 6.368,18.931 6.432,18.737 6.383 C 18.680 6.368,18.348 6.087,17.999 5.757 C 17.293 5.088,17.190 4.933,17.277 4.669 C 17.361 4.416,17.624 4.253,17.875 4.300 C 17.976 4.319,18.117 4.429,18.422 4.726 L 18.834 5.126 19.879 3.904 C 20.975 2.621,21.021 2.580,21.300 2.623 C 21.366 2.633,21.465 2.673,21.520 2.713 M16.009 4.990 C 16.022 6.383,16.030 6.517,16.104 6.724 C 16.321 7.323,16.677 7.679,17.276 7.896 C 17.483 7.970,17.617 7.978,19.010 7.991 L 20.520 8.005 20.520 10.305 C 20.520 12.134,20.510 12.598,20.470 12.574 C 20.442 12.557,20.348 12.489,20.260 12.422 C 19.834 12.098,19.211 11.948,18.630 12.031 C 18.003 12.120,17.904 12.191,15.468 14.283 C 14.276 15.308,13.228 16.195,13.140 16.254 C 12.703 16.549,11.897 16.648,11.334 16.476 C 10.984 16.370,10.826 16.277,10.370 15.910 C 9.757 15.418,9.286 15.248,8.667 15.297 C 8.069 15.345,8.005 15.380,5.849 16.825 L 3.860 18.159 3.805 18.029 C 3.689 17.752,3.561 17.139,3.519 16.651 C 3.488 16.299,3.479 14.724,3.491 11.600 C 3.508 6.745,3.503 6.863,3.706 6.165 C 4.178 4.541,5.408 3.646,7.360 3.507 C 7.459 3.500,9.442 3.491,11.767 3.487 L 15.995 3.480 16.009 4.990 M8.400 5.701 C 7.561 5.931,6.908 6.597,6.696 7.440 C 6.607 7.793,6.637 8.443,6.759 8.789 C 6.992 9.450,7.564 10.017,8.232 10.248 C 8.620 10.381,9.380 10.381,9.768 10.248 C 10.453 10.011,11.011 9.453,11.248 8.768 C 11.325 8.544,11.340 8.419,11.340 8.000 C 11.340 7.581,11.325 7.456,11.248 7.232 C 11.017 6.564,10.451 5.993,9.789 5.759 C 9.461 5.643,8.724 5.612,8.400 5.701 " fill="#292D32" stroke="none" fill-rule="evenodd"></path></svg>