<svg width="24" height="24" viewBox="0 0 24 24" fill="none" xmlns="http://www.w3.org/2000/svg"><path d="M17.460 1.066 C 16.971 1.171,16.492 1.498,16.297 1.860 L 16.224 1.996 11.562 2.011 C 7.002 2.026,6.890 2.028,6.456 2.111 C 5.206 2.351,4.253 2.829,3.515 3.586 C 2.788 4.332,2.345 5.238,2.111 6.456 C 2.028 6.891,2.026 7.001,2.011 11.660 C 1.995 16.600,2.005 16.998,2.161 17.763 C 2.386 18.871,2.882 19.807,3.615 20.510 C 4.368 21.232,5.282 21.671,6.497 21.892 C 6.978 21.980,7.001 21.980,12.000 21.980 C 16.999 21.980,17.022 21.980,17.503 21.892 C 18.767 21.662,19.738 21.181,20.485 20.414 C 21.209 19.671,21.656 18.757,21.889 17.544 C 21.972 17.110,21.974 16.998,21.989 12.438 L 22.004 7.776 22.140 7.703 C 22.346 7.592,22.620 7.298,22.751 7.046 C 22.978 6.610,22.980 6.587,22.980 4.500 C 22.980 2.413,22.978 2.390,22.751 1.954 C 22.511 1.493,22.073 1.179,21.512 1.063 C 21.074 0.973,17.884 0.976,17.460 1.066 M19.699 2.045 C 19.825 2.080,19.994 2.222,20.495 2.714 C 21.296 3.503,21.360 3.588,21.360 3.860 C 21.360 4.111,21.246 4.306,21.039 4.410 C 20.774 4.543,20.483 4.480,20.210 4.229 L 20.120 4.146 20.120 5.338 C 20.120 6.488,20.117 6.534,20.033 6.685 C 19.937 6.855,19.692 7.000,19.500 7.000 C 19.308 7.000,19.063 6.855,18.967 6.685 C 18.883 6.534,18.880 6.488,18.880 5.345 L 18.880 4.161 18.697 4.300 C 18.596 4.377,18.469 4.451,18.415 4.465 C 18.265 4.503,18.000 4.455,17.883 4.370 C 17.664 4.210,17.574 3.840,17.697 3.608 C 17.729 3.549,18.076 3.180,18.469 2.789 C 19.273 1.989,19.343 1.946,19.699 2.045 M16.009 4.990 C 16.022 6.383,16.030 6.517,16.104 6.724 C 16.321 7.323,16.677 7.679,17.276 7.896 C 17.483 7.970,17.617 7.978,19.010 7.991 L 20.520 8.005 20.520 10.305 C 20.520 12.134,20.510 12.598,20.470 12.574 C 20.442 12.557,20.348 12.489,20.260 12.422 C 19.834 12.098,19.211 11.948,18.630 12.031 C 18.003 12.120,17.904 12.191,15.468 14.283 C 14.276 15.308,13.228 16.195,13.140 16.254 C 12.703 16.549,11.897 16.648,11.334 16.476 C 10.984 16.370,10.826 16.277,10.370 15.910 C 9.757 15.418,9.286 15.248,8.667 15.297 C 8.069 15.345,8.005 15.380,5.849 16.825 L 3.860 18.159 3.805 18.029 C 3.689 17.752,3.561 17.139,3.519 16.651 C 3.488 16.299,3.479 14.724,3.491 11.600 C 3.508 6.745,3.503 6.863,3.706 6.165 C 4.178 4.541,5.408 3.646,7.360 3.507 C 7.459 3.500,9.442 3.491,11.767 3.487 L 15.995 3.480 16.009 4.990 M8.400 5.701 C 7.561 5.931,6.908 6.597,6.696 7.440 C 6.607 7.793,6.637 8.443,6.759 8.789 C 6.992 9.450,7.564 10.017,8.232 10.248 C 8.620 10.381,9.380 10.381,9.768 10.248 C 10.453 10.011,11.011 9.453,11.248 8.768 C 11.325 8.544,11.340 8.419,11.340 8.000 C 11.340 7.581,11.325 7.456,11.248 7.232 C 11.017 6.564,10.451 5.993,9.789 5.759 C 9.461 5.643,8.724 5.612,8.400 5.701 " fill="#292D32" stroke="none" fill-rule="evenodd"></path></svg>