<svg width="24" height="24" viewBox="0 0 24 24" fill="none" xmlns="http://www.w3.org/2000/svg"><path d="M12.660 2.073 C 12.312 2.238,12.240 2.422,12.240 3.153 C 12.240 3.821,12.229 3.839,11.802 3.885 C 11.104 3.960,10.535 4.488,10.399 5.187 C 10.372 5.323,10.358 5.498,10.367 5.574 L 10.383 5.714 8.502 5.732 C 6.961 5.746,6.566 5.761,6.321 5.814 C 4.020 6.316,2.342 8.117,2.039 10.411 C 2.010 10.633,2.001 11.823,2.011 14.080 C 2.027 17.725,2.016 17.538,2.267 18.300 C 2.536 19.118,2.960 19.803,3.578 20.422 C 4.406 21.250,5.429 21.768,6.566 21.937 C 6.934 21.992,7.650 22.000,12.000 22.000 C 16.350 22.000,17.066 21.992,17.434 21.937 C 19.426 21.641,21.099 20.226,21.733 18.300 C 21.984 17.538,21.973 17.725,21.989 14.080 C 21.999 11.823,21.990 10.633,21.961 10.411 C 21.688 8.348,20.269 6.632,18.299 5.985 C 17.571 5.746,17.614 5.749,14.641 5.731 C 12.202 5.717,11.893 5.708,11.831 5.652 C 11.792 5.616,11.760 5.549,11.760 5.501 C 11.760 5.334,11.847 5.277,12.161 5.238 C 12.910 5.144,13.480 4.603,13.598 3.874 C 13.621 3.734,13.639 3.386,13.639 3.100 C 13.638 2.678,13.624 2.549,13.563 2.415 C 13.406 2.069,12.996 1.914,12.660 2.073 M16.023 11.182 C 16.143 11.256,16.264 11.377,16.339 11.498 C 16.448 11.674,16.460 11.727,16.460 12.020 C 16.460 12.313,16.448 12.366,16.339 12.542 C 16.095 12.937,15.660 13.110,15.228 12.984 C 14.788 12.856,14.520 12.501,14.520 12.046 C 14.520 11.625,14.700 11.318,15.049 11.142 C 15.230 11.050,15.300 11.037,15.544 11.048 C 15.776 11.059,15.863 11.083,16.023 11.182 M9.827 11.763 C 9.969 11.816,10.148 11.984,10.229 12.138 C 10.301 12.277,10.307 12.633,10.239 12.766 C 10.213 12.818,9.947 13.107,9.647 13.409 L 9.104 13.958 9.646 14.509 C 9.944 14.812,10.220 15.122,10.259 15.198 C 10.346 15.367,10.350 15.706,10.267 15.866 C 10.188 16.016,10.008 16.185,9.867 16.237 C 9.724 16.292,9.477 16.292,9.333 16.238 C 9.271 16.215,8.955 15.932,8.630 15.609 L 8.040 15.021 7.470 15.589 C 7.157 15.901,6.849 16.175,6.787 16.198 C 6.301 16.379,5.789 16.021,5.789 15.500 C 5.789 15.384,5.819 15.239,5.860 15.159 C 5.900 15.083,6.167 14.781,6.454 14.489 L 6.975 13.959 6.433 13.409 C 5.843 12.812,5.771 12.692,5.818 12.380 C 5.890 11.901,6.403 11.626,6.864 11.819 C 6.942 11.852,7.239 12.107,7.523 12.386 L 8.040 12.894 8.576 12.366 C 8.871 12.076,9.173 11.813,9.246 11.781 C 9.406 11.712,9.671 11.704,9.827 11.763 M13.985 13.112 C 14.173 13.208,14.386 13.436,14.465 13.626 C 14.536 13.796,14.536 14.205,14.464 14.377 C 14.305 14.757,13.874 15.025,13.479 14.989 C 12.933 14.940,12.546 14.530,12.545 14.000 C 12.543 13.571,12.789 13.212,13.190 13.058 C 13.392 12.981,13.778 13.007,13.985 13.112 M17.820 13.066 C 18.189 13.192,18.480 13.604,18.480 14.000 C 18.480 14.527,18.007 15.000,17.480 15.000 C 16.943 15.000,16.479 14.536,16.481 14.002 C 16.484 13.297,17.143 12.836,17.820 13.066 M15.947 15.073 C 16.133 15.168,16.346 15.396,16.425 15.586 C 16.504 15.774,16.494 16.187,16.405 16.380 C 16.310 16.589,16.008 16.863,15.814 16.917 C 15.131 17.107,14.520 16.660,14.520 15.971 C 14.520 15.831,14.545 15.658,14.575 15.586 C 14.685 15.322,14.944 15.092,15.240 14.995 C 15.399 14.943,15.771 14.984,15.947 15.073 " fill="#292D32" stroke="none" fill-rule="evenodd"></path></svg>