<svg width="24" height="24" viewBox="0 0 24 24" fill="none" xmlns="http://www.w3.org/2000/svg"><path d="M6.433 2.043 C 6.004 2.106,5.700 2.204,5.260 2.419 C 4.114 2.979,3.336 3.982,3.083 5.227 C 3.001 5.627,3.000 5.723,3.000 12.000 C 3.000 18.277,3.001 18.373,3.083 18.773 C 3.408 20.371,4.629 21.592,6.227 21.917 C 6.625 21.998,6.734 22.000,12.000 22.000 C 17.266 22.000,17.375 21.998,17.773 21.917 C 19.371 21.592,20.592 20.371,20.917 18.773 C 20.999 18.373,21.000 18.277,21.000 12.000 C 21.000 5.723,20.999 5.627,20.917 5.227 C 20.664 3.983,19.888 2.981,18.740 2.418 C 18.498 2.299,18.147 2.162,17.960 2.112 L 17.620 2.022 12.140 2.015 C 9.126 2.012,6.558 2.024,6.433 2.043 M16.608 5.045 C 17.269 5.185,17.815 5.731,17.955 6.392 C 18.016 6.679,18.016 9.321,17.955 9.608 C 17.818 10.252,17.317 10.770,16.660 10.946 C 16.365 11.024,7.635 11.024,7.340 10.946 C 6.679 10.769,6.183 10.256,6.045 9.608 C 5.984 9.321,5.984 6.679,6.045 6.392 C 6.183 5.743,6.693 5.217,7.340 5.056 C 7.614 4.988,16.291 4.978,16.608 5.045 M16.803 14.384 C 16.959 14.431,17.072 14.501,17.206 14.635 C 17.932 15.360,17.213 16.558,16.219 16.280 C 15.995 16.217,15.693 15.956,15.595 15.742 C 15.492 15.513,15.496 15.130,15.605 14.898 C 15.711 14.673,15.962 14.455,16.199 14.381 C 16.440 14.307,16.544 14.308,16.803 14.384 M10.640 14.622 C 10.886 14.747,11.040 15.004,11.040 15.287 C 11.040 15.529,10.936 15.704,10.564 16.091 L 10.227 16.442 10.609 16.831 C 11.089 17.320,11.170 17.538,11.005 17.900 C 10.900 18.133,10.682 18.309,10.458 18.342 C 10.137 18.391,9.985 18.315,9.558 17.895 C 9.347 17.689,9.158 17.520,9.137 17.520 C 9.116 17.520,8.946 17.675,8.759 17.864 C 8.573 18.054,8.362 18.234,8.291 18.264 C 7.807 18.474,7.269 18.114,7.269 17.580 C 7.269 17.308,7.347 17.172,7.742 16.762 L 8.077 16.415 7.756 16.098 C 7.579 15.923,7.409 15.732,7.378 15.674 C 7.175 15.290,7.339 14.816,7.738 14.635 C 8.096 14.473,8.322 14.553,8.782 15.004 L 9.144 15.359 9.422 15.078 C 9.748 14.749,9.948 14.602,10.129 14.559 C 10.282 14.523,10.499 14.550,10.640 14.622 M14.909 16.574 C 15.566 16.914,15.678 17.773,15.126 18.246 C 14.563 18.727,13.671 18.426,13.521 17.703 C 13.410 17.170,13.699 16.692,14.240 16.515 C 14.385 16.467,14.767 16.501,14.909 16.574 " fill="#292D32" stroke="none" fill-rule="evenodd"></path></svg>