<svg width="24" height="24" viewBox="0 0 24 24" fill="none" xmlns="http://www.w3.org/2000/svg"><path d="M5.922 2.047 C 5.278 2.139,4.670 2.449,4.244 2.904 C 3.826 3.351,3.598 3.900,3.522 4.643 C 3.494 4.909,3.480 7.828,3.480 13.141 L 3.480 21.234 2.650 21.247 C 1.901 21.259,1.804 21.268,1.660 21.344 C 1.139 21.616,1.121 22.330,1.627 22.645 L 1.780 22.740 10.500 22.740 L 19.220 22.740 19.373 22.645 C 19.747 22.412,19.859 21.935,19.619 21.596 C 19.403 21.290,19.300 21.262,18.350 21.247 L 17.520 21.234 17.520 18.997 L 17.520 16.760 19.790 16.760 C 21.323 16.760,22.112 16.745,22.219 16.715 C 22.428 16.657,22.660 16.422,22.717 16.211 C 22.749 16.093,22.759 15.128,22.751 12.906 L 22.740 9.767 22.620 9.593 C 22.510 9.435,22.404 9.372,21.380 8.854 C 20.764 8.542,20.197 8.277,20.120 8.265 C 19.584 8.181,19.138 8.674,19.279 9.196 C 19.358 9.489,19.492 9.590,20.396 10.039 L 21.240 10.458 21.240 12.849 L 21.240 15.240 20.767 15.240 C 20.506 15.240,19.670 15.252,18.908 15.266 L 17.523 15.293 17.509 9.896 C 17.495 3.982,17.509 4.327,17.257 3.694 C 16.899 2.794,16.080 2.188,15.027 2.043 C 14.636 1.989,6.300 1.993,5.922 2.047 M13.560 5.042 C 14.221 5.148,14.667 5.511,14.887 6.123 C 14.974 6.367,14.979 6.434,14.979 7.480 C 14.980 8.523,14.975 8.595,14.887 8.863 C 14.706 9.416,14.315 9.776,13.736 9.921 C 13.423 10.000,13.317 10.002,10.396 9.991 L 7.380 9.980 7.120 9.888 C 6.610 9.706,6.280 9.370,6.112 8.860 C 6.025 8.595,6.020 8.521,6.020 7.480 C 6.021 6.433,6.025 6.368,6.113 6.123 C 6.220 5.827,6.381 5.577,6.569 5.418 C 6.753 5.262,7.141 5.089,7.400 5.046 C 7.715 4.994,13.236 4.990,13.560 5.042 M9.836 12.340 C 9.910 12.384,10.027 12.489,10.096 12.574 C 10.208 12.712,10.220 12.755,10.220 13.000 C 10.220 13.244,10.207 13.289,10.098 13.426 C 10.030 13.511,9.896 13.620,9.799 13.670 C 9.625 13.759,9.604 13.760,8.000 13.760 C 6.396 13.760,6.375 13.759,6.201 13.670 C 6.104 13.620,5.970 13.511,5.902 13.426 C 5.793 13.289,5.780 13.243,5.780 13.003 C 5.780 12.769,5.795 12.714,5.893 12.586 C 6.026 12.412,6.154 12.321,6.331 12.278 C 6.402 12.260,7.189 12.249,8.080 12.253 C 9.621 12.260,9.707 12.264,9.836 12.340 " fill="#292D32" stroke="none" fill-rule="evenodd"></path></svg>