<svg width="24" height="24" viewBox="0 0 24 24" fill="none" xmlns="http://www.w3.org/2000/svg"><path d="M11.320 2.023 C 11.243 2.032,11.009 2.059,10.800 2.083 C 8.206 2.379,5.672 3.858,4.070 6.010 C 3.594 6.649,3.393 6.977,3.060 7.660 C 2.692 8.413,2.514 8.893,2.321 9.657 C 2.008 10.890,2.020 10.650,2.020 15.901 L 2.020 20.582 2.150 20.841 C 2.308 21.156,2.428 21.249,2.705 21.272 C 3.061 21.302,3.310 21.153,4.097 20.441 C 4.470 20.105,4.848 19.796,4.937 19.756 C 5.191 19.640,5.544 19.655,5.793 19.790 C 5.904 19.851,6.456 20.323,7.019 20.840 C 7.582 21.357,8.118 21.825,8.211 21.880 C 8.351 21.963,8.432 21.980,8.680 21.980 C 8.929 21.980,9.009 21.963,9.148 21.880 C 9.241 21.825,9.777 21.357,10.341 20.840 C 10.904 20.323,11.456 19.851,11.567 19.790 C 11.727 19.703,11.822 19.680,12.020 19.680 C 12.218 19.680,12.313 19.703,12.473 19.790 C 12.584 19.851,13.136 20.323,13.699 20.840 C 14.262 21.357,14.798 21.825,14.891 21.880 C 15.031 21.963,15.112 21.980,15.360 21.980 C 15.609 21.980,15.689 21.963,15.828 21.880 C 15.921 21.825,16.457 21.357,17.021 20.840 C 17.584 20.323,18.136 19.851,18.247 19.790 C 18.496 19.655,18.849 19.640,19.103 19.756 C 19.192 19.796,19.570 20.105,19.943 20.441 C 20.736 21.158,20.978 21.302,21.343 21.271 C 21.524 21.256,21.587 21.230,21.699 21.121 C 21.773 21.049,21.876 20.897,21.927 20.785 L 22.020 20.580 22.020 15.940 C 22.020 11.661,22.014 11.264,21.948 10.840 C 21.586 8.539,20.676 6.672,19.140 5.085 C 17.538 3.427,15.597 2.428,13.340 2.097 C 12.951 2.040,11.601 1.991,11.320 2.023 M12.789 6.759 C 13.451 6.993,14.017 7.564,14.248 8.232 C 14.381 8.618,14.381 9.381,14.249 9.764 C 13.820 11.005,12.446 11.674,11.216 11.242 C 10.557 11.010,9.990 10.444,9.759 9.789 C 9.637 9.443,9.607 8.793,9.696 8.440 C 9.910 7.590,10.554 6.933,11.400 6.701 C 11.724 6.612,12.460 6.643,12.789 6.759 M8.680 13.558 C 9.223 13.910,9.591 14.093,10.094 14.260 C 11.360 14.680,12.640 14.680,13.906 14.260 C 14.406 14.094,14.774 13.912,15.320 13.560 C 15.551 13.411,15.807 13.277,15.889 13.263 C 16.389 13.175,16.849 13.681,16.717 14.171 C 16.646 14.434,16.539 14.549,16.084 14.849 C 15.038 15.539,13.880 15.931,12.550 16.047 C 10.974 16.184,9.219 15.725,7.867 14.822 C 7.672 14.692,7.471 14.531,7.420 14.463 C 7.162 14.121,7.228 13.637,7.564 13.397 C 7.888 13.167,8.129 13.202,8.680 13.558 " fill="#292D32" stroke="none" fill-rule="evenodd"></path></svg>