<svg width="24" height="24" viewBox="0 0 24 24" fill="none" xmlns="http://www.w3.org/2000/svg"><path d="M7.940 2.059 C 7.852 2.092,7.772 2.119,7.762 2.119 C 7.752 2.120,7.368 2.494,6.908 2.950 C 6.004 3.847,5.880 4.017,5.882 4.360 C 5.884 4.568,5.962 4.811,6.062 4.923 C 6.131 4.999,6.119 5.000,5.196 5.001 C 4.153 5.003,3.762 5.051,3.417 5.220 C 2.992 5.428,2.702 5.812,2.580 6.329 C 2.497 6.682,2.497 8.318,2.580 8.671 C 2.702 9.188,2.992 9.572,3.417 9.780 C 3.885 10.009,3.604 10.002,12.162 9.991 L 20.020 9.980 20.269 9.895 C 20.782 9.718,21.078 9.465,21.284 9.025 C 21.451 8.667,21.480 8.443,21.480 7.500 C 21.480 6.557,21.451 6.333,21.284 5.975 C 21.077 5.533,20.776 5.277,20.269 5.108 C 20.049 5.036,19.894 5.024,18.954 5.009 L 17.889 4.992 17.983 4.826 C 18.118 4.589,18.141 4.373,18.060 4.094 C 17.995 3.872,17.951 3.819,17.168 3.029 C 16.614 2.472,16.284 2.170,16.162 2.110 C 15.929 1.997,15.567 1.991,15.340 2.098 C 15.236 2.147,14.679 2.672,13.759 3.587 L 12.338 5.000 11.979 5.000 L 11.620 5.000 10.220 3.597 C 9.438 2.814,8.752 2.159,8.665 2.114 C 8.459 2.007,8.143 1.983,7.940 2.059 M4.643 11.069 C 4.402 11.154,4.147 11.418,4.064 11.668 C 4.003 11.851,3.998 12.178,4.010 15.265 L 4.023 18.660 4.133 19.038 C 4.571 20.543,5.717 21.610,7.226 21.917 C 7.622 21.998,7.742 22.000,12.000 22.000 C 16.258 22.000,16.378 21.998,16.774 21.917 C 18.293 21.608,19.458 20.515,19.872 19.011 L 19.979 18.620 19.991 15.244 C 20.004 11.433,20.018 11.615,19.702 11.300 C 19.420 11.018,19.317 11.000,18.000 11.000 C 16.684 11.000,16.579 11.018,16.299 11.299 C 16.003 11.595,16.000 11.619,15.999 13.597 C 15.999 15.518,15.986 15.650,15.755 16.084 C 15.606 16.363,15.212 16.752,14.937 16.891 C 14.579 17.073,14.306 17.131,13.904 17.111 C 13.423 17.086,13.202 16.996,12.538 16.557 L 12.003 16.203 11.522 16.521 C 10.927 16.914,10.711 17.024,10.391 17.100 C 10.069 17.175,9.836 17.175,9.538 17.099 C 9.175 17.005,8.884 16.848,8.631 16.607 C 8.350 16.340,8.178 16.079,8.068 15.750 C 7.988 15.514,7.982 15.391,7.962 13.600 L 7.940 11.700 7.840 11.522 C 7.723 11.314,7.461 11.101,7.249 11.042 C 7.161 11.017,6.632 11.002,5.960 11.003 C 5.035 11.006,4.787 11.018,4.643 11.069 M9.680 11.037 C 9.370 11.131,9.089 11.397,9.006 11.674 C 8.974 11.782,8.960 12.371,8.961 13.605 C 8.962 15.305,8.965 15.388,9.043 15.560 C 9.210 15.928,9.531 16.130,9.944 16.127 C 10.235 16.126,10.263 16.113,10.968 15.653 C 11.560 15.266,11.696 15.204,11.964 15.202 C 12.235 15.199,12.362 15.257,12.980 15.662 C 13.578 16.054,13.720 16.120,13.971 16.120 C 14.252 16.120,14.447 16.035,14.661 15.821 C 14.788 15.694,14.881 15.559,14.911 15.455 C 14.946 15.337,14.960 14.796,14.960 13.533 L 14.960 11.776 14.856 11.568 C 14.799 11.453,14.688 11.306,14.609 11.241 C 14.316 11.000,14.317 11.000,11.943 11.003 C 10.753 11.005,9.735 11.021,9.680 11.037 " fill="#292D32" stroke="none" fill-rule="evenodd"></path></svg>