<svg width="24" height="24" viewBox="0 0 24 24" fill="none" xmlns="http://www.w3.org/2000/svg"><path d="M7.940 2.059 C 5.900 2.506,5.407 5.224,7.159 6.356 C 7.519 6.589,7.830 6.684,8.310 6.709 C 8.535 6.721,8.720 6.745,8.720 6.763 C 8.720 6.781,8.244 7.881,7.663 9.208 L 6.605 11.620 7.213 11.648 C 8.943 11.727,10.510 11.990,12.160 12.477 C 12.979 12.718,12.961 12.714,13.432 12.760 C 14.210 12.835,15.195 12.667,16.083 12.306 C 16.517 12.130,17.105 11.818,17.301 11.660 L 17.401 11.580 16.341 9.163 C 15.757 7.834,15.280 6.741,15.280 6.733 C 15.280 6.726,15.402 6.720,15.552 6.720 C 16.150 6.720,16.809 6.436,17.258 5.984 C 17.738 5.502,17.945 4.946,17.908 4.240 C 17.884 3.790,17.783 3.470,17.553 3.114 C 17.209 2.582,16.638 2.189,16.020 2.060 C 15.628 1.978,8.314 1.977,7.940 2.059 M17.800 13.128 C 17.484 13.341,16.652 13.720,16.108 13.900 C 15.336 14.154,14.821 14.246,14.038 14.270 C 13.217 14.295,12.801 14.235,11.880 13.961 C 11.517 13.853,11.040 13.720,10.820 13.665 C 9.532 13.344,7.732 13.121,6.418 13.120 L 5.937 13.120 5.147 14.916 C 4.054 17.402,3.910 17.860,3.911 18.860 C 3.911 19.777,4.130 20.340,4.715 20.925 C 5.012 21.222,5.118 21.298,5.481 21.475 C 5.914 21.686,6.409 21.833,7.002 21.927 C 7.270 21.969,8.313 21.980,12.020 21.980 C 17.250 21.980,17.074 21.988,17.960 21.695 C 19.029 21.341,19.653 20.744,19.960 19.780 C 20.026 19.572,20.055 19.364,20.070 18.972 C 20.094 18.350,20.028 17.902,19.812 17.220 C 19.674 16.783,18.051 12.997,18.004 13.003 C 17.991 13.005,17.899 13.061,17.800 13.128 " fill="#292D32" stroke="none" fill-rule="evenodd"></path></svg>