<svg width="24" height="24" viewBox="0 0 24 24" fill="none" xmlns="http://www.w3.org/2000/svg"><path d="M5.688 2.043 C 5.242 2.101,4.790 2.239,4.340 2.456 C 3.104 3.051,2.270 4.065,1.886 5.440 L 1.780 5.820 1.769 12.720 C 1.756 20.456,1.737 19.913,2.051 20.560 C 2.272 21.014,2.722 21.473,3.160 21.691 C 3.771 21.996,3.817 22.000,6.276 21.999 C 8.735 21.999,8.777 21.995,9.351 21.717 C 9.795 21.502,10.272 21.041,10.493 20.612 C 10.759 20.097,10.800 19.846,10.800 18.714 L 10.800 17.720 12.000 17.720 L 13.200 17.720 13.200 18.714 C 13.200 19.846,13.241 20.097,13.507 20.612 C 13.728 21.041,14.205 21.502,14.649 21.717 C 15.223 21.995,15.265 21.999,17.724 21.999 C 19.773 22.000,19.927 21.995,20.224 21.920 C 20.734 21.792,21.092 21.589,21.461 21.221 C 21.831 20.850,22.033 20.492,22.161 19.978 C 22.241 19.660,22.242 19.553,22.231 12.738 L 22.220 5.820 22.112 5.439 C 21.723 4.058,20.892 3.047,19.660 2.456 C 18.929 2.104,18.404 2.003,17.303 2.001 C 16.693 2.000,16.608 2.008,16.450 2.085 C 16.250 2.182,16.088 2.398,16.053 2.615 C 16.009 2.886,16.220 3.261,16.480 3.372 C 16.535 3.396,16.967 3.427,17.440 3.442 C 18.223 3.465,18.329 3.477,18.620 3.574 C 19.474 3.856,20.094 4.392,20.480 5.180 C 20.807 5.849,20.800 5.756,20.800 9.299 L 20.800 12.402 20.678 12.339 C 20.610 12.304,20.419 12.241,20.251 12.198 C 19.968 12.125,19.795 12.120,17.720 12.120 C 15.645 12.120,15.472 12.125,15.189 12.198 C 14.299 12.425,13.634 13.037,13.316 13.920 C 13.229 14.163,13.221 14.249,13.208 15.230 L 13.194 16.280 12.000 16.280 L 10.807 16.280 10.792 15.230 C 10.777 14.254,10.770 14.162,10.683 13.920 C 10.369 13.041,9.698 12.425,8.809 12.197 C 8.529 12.125,8.349 12.120,6.280 12.120 C 4.205 12.120,4.032 12.125,3.749 12.198 C 3.581 12.241,3.390 12.304,3.322 12.339 L 3.200 12.402 3.200 9.299 C 3.200 5.756,3.193 5.849,3.520 5.180 C 3.906 4.392,4.526 3.856,5.380 3.574 C 5.671 3.477,5.777 3.465,6.560 3.442 C 7.033 3.427,7.466 3.396,7.522 3.372 C 7.664 3.311,7.862 3.076,7.920 2.901 C 8.019 2.599,7.853 2.231,7.550 2.085 C 7.390 2.007,7.313 2.000,6.657 2.005 C 6.263 2.008,5.827 2.025,5.688 2.043 " fill="#292D32" stroke="none" fill-rule="evenodd"></path></svg>