<svg width="24" height="24" viewBox="0 0 24 24" fill="none" xmlns="http://www.w3.org/2000/svg"><path d="M9.660 1.045 C 9.305 1.079,8.533 1.208,8.300 1.272 C 8.215 1.296,8.176 1.334,8.167 1.403 C 8.159 1.456,8.075 1.752,7.980 2.060 C 7.685 3.015,7.149 5.282,7.204 5.338 C 7.213 5.346,7.481 5.328,7.800 5.298 C 9.303 5.152,11.672 5.152,13.180 5.296 C 13.510 5.328,13.787 5.346,13.796 5.337 C 13.855 5.279,13.284 2.872,13.006 2.000 C 12.918 1.725,12.840 1.455,12.833 1.400 C 12.818 1.287,12.714 1.252,12.067 1.143 C 11.245 1.005,10.426 0.972,9.660 1.045 M14.600 1.983 C 14.600 1.997,14.653 2.191,14.718 2.414 C 14.934 3.160,15.119 3.918,15.282 4.732 C 15.371 5.175,15.464 5.550,15.489 5.565 C 15.513 5.581,15.616 5.605,15.717 5.620 C 16.309 5.707,17.687 6.025,18.513 6.265 C 18.783 6.344,19.015 6.398,19.027 6.387 C 19.054 6.359,18.773 5.845,18.487 5.400 C 17.591 4.003,16.260 2.790,14.850 2.084 C 14.713 2.015,14.600 1.970,14.600 1.983 M5.920 2.204 C 4.651 2.892,3.472 3.972,2.642 5.205 C 2.357 5.628,1.942 6.356,1.970 6.383 C 1.981 6.395,2.348 6.306,2.785 6.186 C 3.537 5.981,4.872 5.678,5.292 5.618 C 5.532 5.583,5.583 5.532,5.618 5.292 C 5.683 4.846,5.975 3.486,6.155 2.790 C 6.321 2.152,6.340 2.040,6.285 2.041 C 6.249 2.041,6.085 2.114,5.920 2.204 M9.660 6.744 C 8.601 6.786,7.026 6.921,6.974 6.972 C 6.963 6.984,6.937 7.125,6.916 7.287 C 6.678 9.175,6.690 12.225,6.944 13.924 L 6.965 14.069 7.233 14.095 C 7.380 14.109,7.815 14.151,8.200 14.188 C 9.185 14.283,11.815 14.283,12.800 14.188 C 13.185 14.151,13.622 14.109,13.771 14.094 C 14.090 14.064,14.055 14.141,14.139 13.280 C 14.278 11.857,14.313 10.416,14.240 9.080 C 14.193 8.207,14.080 7.031,14.040 6.987 C 13.928 6.864,10.878 6.694,9.660 6.744 M4.560 7.340 C 3.696 7.525,2.736 7.771,2.067 7.978 C 1.755 8.074,1.455 8.159,1.401 8.167 C 1.313 8.178,1.294 8.214,1.235 8.469 C 0.945 9.716,0.945 11.284,1.235 12.531 C 1.294 12.786,1.313 12.822,1.401 12.833 C 1.455 12.841,1.752 12.925,2.060 13.020 C 3.028 13.319,5.284 13.849,5.342 13.791 C 5.352 13.781,5.334 13.484,5.300 13.131 C 5.140 11.459,5.163 8.544,5.344 7.350 C 5.373 7.162,5.386 7.162,4.560 7.340 M15.640 7.230 C 15.641 7.247,15.668 7.539,15.702 7.880 C 15.842 9.319,15.843 11.653,15.702 13.116 C 15.667 13.477,15.645 13.779,15.653 13.787 C 15.685 13.818,17.256 13.479,18.020 13.275 C 18.262 13.211,18.694 13.087,18.980 13.001 C 19.266 12.914,19.547 12.834,19.604 12.822 C 19.702 12.803,19.714 12.774,19.793 12.371 C 19.946 11.588,19.980 11.234,19.976 10.440 C 19.972 9.665,19.925 9.216,19.774 8.509 C 19.715 8.231,19.697 8.196,19.604 8.174 C 19.547 8.161,19.248 8.073,18.940 7.979 C 18.244 7.767,17.305 7.529,16.433 7.342 C 15.739 7.194,15.640 7.180,15.640 7.230 M19.677 14.052 C 19.577 14.081,19.406 14.155,19.297 14.217 C 19.168 14.291,18.293 15.135,16.772 16.652 C 14.723 18.696,14.433 19.001,14.342 19.202 C 14.267 19.370,14.209 19.645,14.120 20.260 C 13.985 21.190,13.976 21.386,14.055 21.571 C 14.122 21.727,14.299 21.900,14.453 21.957 C 14.626 22.023,14.829 22.009,15.785 21.864 C 16.514 21.754,16.705 21.711,16.870 21.622 C 17.011 21.545,17.733 20.846,19.367 19.207 C 21.833 16.732,21.847 16.715,21.960 16.198 C 22.065 15.720,21.849 15.207,21.319 14.677 C 20.756 14.114,20.204 13.903,19.677 14.052 M2.023 14.676 C 1.998 14.716,2.277 15.235,2.550 15.660 C 3.240 16.729,4.272 17.767,5.300 18.425 C 5.796 18.743,6.267 18.993,6.314 18.963 C 6.343 18.946,6.325 18.822,6.257 18.579 C 6.025 17.741,5.692 16.218,5.617 15.649 C 5.595 15.479,5.573 15.435,5.505 15.421 C 5.458 15.411,5.123 15.347,4.760 15.278 C 4.007 15.137,3.092 14.927,2.483 14.757 C 2.001 14.622,2.051 14.631,2.023 14.676 M7.200 15.696 C 7.200 15.969,7.738 18.206,7.997 19.010 C 8.084 19.279,8.160 19.545,8.167 19.600 C 8.182 19.713,8.286 19.748,8.933 19.857 C 10.126 20.057,11.291 20.030,12.491 19.773 C 12.768 19.713,12.805 19.695,12.826 19.603 C 12.839 19.546,12.927 19.248,13.021 18.940 C 13.325 17.949,13.848 15.715,13.791 15.657 C 13.780 15.646,13.503 15.664,13.175 15.697 C 12.023 15.811,11.041 15.851,9.960 15.826 C 9.023 15.805,7.783 15.724,7.350 15.656 C 7.231 15.638,7.200 15.646,7.200 15.696 " fill="#292D32" stroke="none" fill-rule="evenodd"></path></svg>