<svg width="24" height="24" viewBox="0 0 24 24" fill="none" xmlns="http://www.w3.org/2000/svg"><path d="M11.340 2.024 C 10.495 2.111,9.598 2.271,9.581 2.338 C 9.575 2.361,9.487 2.650,9.386 2.980 C 9.079 3.980,8.704 5.522,8.544 6.442 L 8.520 6.583 9.030 6.534 C 10.895 6.356,13.105 6.356,14.970 6.534 C 15.251 6.561,15.480 6.570,15.480 6.554 C 15.480 6.538,15.416 6.214,15.338 5.833 C 15.147 4.899,14.924 4.011,14.656 3.120 C 14.534 2.713,14.428 2.361,14.421 2.339 C 14.410 2.299,13.743 2.159,13.180 2.079 C 12.876 2.035,11.599 1.997,11.340 2.024 M16.320 3.040 C 16.320 3.063,16.382 3.293,16.458 3.551 C 16.731 4.480,17.012 5.692,17.177 6.647 C 17.202 6.790,17.210 6.796,17.431 6.839 C 18.304 7.006,19.320 7.238,20.011 7.428 C 20.456 7.551,20.862 7.660,20.913 7.671 L 21.007 7.691 20.903 7.486 C 20.184 6.067,19.046 4.762,17.700 3.813 C 17.152 3.427,16.320 2.961,16.320 3.040 M7.141 3.281 C 5.737 4.069,4.521 5.212,3.630 6.580 C 3.333 7.036,2.978 7.680,3.023 7.680 C 3.040 7.680,3.307 7.609,3.617 7.523 C 4.670 7.229,5.784 6.974,6.685 6.823 C 6.825 6.799,6.831 6.792,6.857 6.589 C 6.933 6.007,7.373 4.044,7.624 3.170 C 7.664 3.028,7.544 3.056,7.141 3.281 M10.820 8.024 C 9.630 8.095,8.291 8.215,8.253 8.253 C 8.247 8.259,8.216 8.497,8.183 8.782 C 7.959 10.752,7.959 13.248,8.183 15.218 C 8.216 15.503,8.247 15.741,8.253 15.747 C 8.259 15.753,8.497 15.784,8.782 15.817 C 10.752 16.041,13.248 16.041,15.218 15.817 C 15.503 15.784,15.741 15.753,15.747 15.747 C 15.753 15.741,15.784 15.503,15.817 15.218 C 16.041 13.248,16.041 10.752,15.817 8.782 C 15.784 8.497,15.753 8.260,15.748 8.254 C 15.727 8.234,15.007 8.155,14.325 8.097 C 13.658 8.041,11.339 7.992,10.820 8.024 M5.820 8.665 C 4.954 8.844,3.786 9.142,3.031 9.377 C 2.707 9.478,2.416 9.560,2.383 9.560 C 2.318 9.560,2.282 9.671,2.184 10.180 C 2.055 10.847,2.021 11.240,2.024 12.040 C 2.027 12.850,2.101 13.547,2.253 14.195 L 2.304 14.410 2.602 14.499 C 4.298 15.007,4.671 15.103,5.857 15.343 C 6.229 15.418,6.545 15.480,6.559 15.480 C 6.572 15.480,6.562 15.242,6.535 14.950 C 6.360 13.042,6.360 10.948,6.535 9.050 C 6.568 8.686,6.571 8.521,6.542 8.522 C 6.519 8.523,6.194 8.588,5.820 8.665 M17.466 9.030 C 17.644 10.891,17.643 13.208,17.465 14.990 C 17.438 15.260,17.429 15.480,17.445 15.480 C 17.461 15.480,17.786 15.416,18.167 15.338 C 19.227 15.120,19.865 14.954,21.398 14.499 L 21.696 14.410 21.747 14.195 C 22.068 12.826,22.055 11.031,21.716 9.710 C 21.691 9.616,21.653 9.560,21.614 9.560 C 21.579 9.560,21.323 9.487,21.045 9.398 C 20.179 9.120,18.491 8.706,17.558 8.544 L 17.417 8.520 17.466 9.030 M3.080 16.422 C 3.080 16.517,3.353 17.012,3.663 17.480 C 4.494 18.732,5.636 19.818,6.940 20.596 C 7.403 20.872,7.580 20.953,7.625 20.909 C 7.636 20.897,7.591 20.691,7.525 20.450 C 7.314 19.693,7.063 18.570,6.900 17.660 C 6.813 17.178,6.807 17.160,6.716 17.160 C 6.544 17.160,4.772 16.786,4.040 16.595 C 3.003 16.324,3.080 16.338,3.080 16.422 M20.480 16.463 C 19.773 16.666,18.457 16.960,17.400 17.150 C 17.193 17.187,17.248 17.028,16.959 18.411 C 16.869 18.846,16.694 19.566,16.572 20.011 C 16.449 20.456,16.340 20.864,16.329 20.917 C 16.309 21.010,16.323 21.006,16.664 20.823 C 18.221 19.989,19.607 18.682,20.528 17.180 C 20.901 16.571,20.991 16.356,20.870 16.363 C 20.843 16.364,20.667 16.410,20.480 16.463 M8.544 17.558 C 8.687 18.399,9.081 20.012,9.377 20.971 C 9.473 21.284,9.559 21.575,9.566 21.617 C 9.583 21.709,9.762 21.757,10.580 21.885 C 11.023 21.955,11.315 21.974,11.980 21.975 C 12.830 21.976,13.272 21.932,14.075 21.768 L 14.409 21.699 14.499 21.399 C 15.007 19.700,15.103 19.329,15.343 18.143 C 15.418 17.771,15.480 17.455,15.480 17.441 C 15.480 17.427,15.350 17.430,15.190 17.447 C 13.062 17.680,10.992 17.680,8.810 17.446 L 8.519 17.415 8.544 17.558 " fill="#292D32" stroke="none" fill-rule="evenodd"></path></svg>