<svg width="24" height="24" viewBox="0 0 24 24" fill="none" xmlns="http://www.w3.org/2000/svg"><path d="M9.660 1.045 C 9.305 1.079,8.533 1.208,8.300 1.272 C 8.215 1.296,8.176 1.334,8.167 1.403 C 8.159 1.456,8.075 1.752,7.980 2.060 C 7.685 3.015,7.149 5.282,7.204 5.338 C 7.213 5.346,7.481 5.328,7.800 5.298 C 9.303 5.152,11.672 5.152,13.180 5.296 C 13.510 5.328,13.787 5.346,13.796 5.337 C 13.855 5.279,13.284 2.872,13.006 2.000 C 12.918 1.725,12.840 1.455,12.833 1.400 C 12.818 1.287,12.714 1.252,12.067 1.143 C 11.245 1.005,10.426 0.972,9.660 1.045 M14.600 1.981 C 14.600 1.996,14.653 2.191,14.718 2.414 C 14.919 3.109,15.152 4.070,15.300 4.818 C 15.379 5.213,15.450 5.543,15.458 5.551 C 15.466 5.560,15.822 5.636,16.248 5.721 C 17.047 5.879,17.829 6.068,18.560 6.279 C 18.791 6.346,18.994 6.400,19.012 6.400 C 19.065 6.400,18.689 5.706,18.399 5.270 C 17.688 4.200,16.837 3.345,15.760 2.620 C 15.367 2.356,14.600 1.933,14.600 1.981 M5.920 2.204 C 4.651 2.892,3.472 3.972,2.642 5.205 C 2.357 5.628,1.942 6.356,1.970 6.383 C 1.981 6.395,2.348 6.306,2.785 6.186 C 3.537 5.981,4.872 5.678,5.292 5.618 C 5.532 5.583,5.583 5.532,5.618 5.292 C 5.683 4.846,5.975 3.486,6.155 2.790 C 6.321 2.152,6.340 2.040,6.285 2.041 C 6.249 2.041,6.085 2.114,5.920 2.204 M9.660 6.744 C 8.601 6.786,7.026 6.921,6.974 6.972 C 6.963 6.984,6.937 7.125,6.916 7.287 C 6.682 9.143,6.695 12.255,6.944 13.924 L 6.965 14.069 7.233 14.095 C 7.380 14.109,7.815 14.151,8.200 14.188 C 8.717 14.237,9.313 14.255,10.480 14.256 C 11.996 14.258,12.580 14.228,13.820 14.087 L 14.060 14.060 14.087 13.820 C 14.228 12.582,14.258 11.994,14.257 10.480 C 14.256 9.137,14.242 8.756,14.164 7.940 C 14.113 7.412,14.067 6.975,14.062 6.970 C 14.041 6.946,13.369 6.875,12.660 6.821 C 11.888 6.763,10.243 6.720,9.660 6.744 M4.560 7.340 C 3.696 7.525,2.736 7.771,2.067 7.978 C 1.755 8.074,1.455 8.159,1.401 8.167 C 1.313 8.178,1.294 8.214,1.235 8.469 C 0.945 9.716,0.945 11.284,1.235 12.531 C 1.294 12.786,1.313 12.822,1.401 12.833 C 1.455 12.841,1.752 12.925,2.060 13.020 C 3.028 13.319,5.284 13.849,5.342 13.791 C 5.352 13.781,5.334 13.484,5.300 13.131 C 5.140 11.459,5.163 8.544,5.344 7.350 C 5.373 7.162,5.386 7.162,4.560 7.340 M15.654 7.386 C 15.841 8.810,15.852 11.588,15.677 13.355 C 15.655 13.583,15.643 13.777,15.652 13.786 C 15.703 13.836,17.926 13.320,18.760 13.064 C 19.306 12.896,19.464 12.851,19.606 12.822 C 19.706 12.802,19.716 12.777,19.795 12.350 C 19.952 11.512,19.976 11.262,19.974 10.460 C 19.972 9.660,19.928 9.232,19.773 8.509 C 19.713 8.232,19.695 8.195,19.603 8.174 C 19.546 8.161,19.248 8.074,18.940 7.980 C 18.050 7.708,16.466 7.324,15.804 7.219 L 15.629 7.191 15.654 7.386 M17.320 14.580 C 16.973 14.657,16.758 14.739,16.407 14.925 C 15.220 15.554,14.509 16.735,14.509 18.080 C 14.509 19.166,14.968 20.134,15.821 20.853 C 16.136 21.118,16.762 21.441,17.155 21.540 C 18.043 21.765,18.966 21.657,19.757 21.234 L 20.054 21.076 20.457 21.476 C 20.995 22.011,21.215 22.096,21.590 21.915 C 21.883 21.773,22.032 21.475,21.981 21.133 C 21.956 20.964,21.913 20.906,21.515 20.498 L 21.076 20.049 21.216 19.795 C 21.996 18.371,21.708 16.567,20.526 15.472 C 20.108 15.085,19.549 14.768,19.020 14.620 C 18.683 14.525,17.671 14.501,17.320 14.580 M2.041 14.707 C 2.042 14.880,2.655 15.862,3.147 16.480 C 3.745 17.231,4.723 18.085,5.560 18.587 C 6.178 18.957,6.390 19.040,6.344 18.890 C 6.158 18.294,5.690 16.205,5.617 15.649 C 5.595 15.479,5.573 15.435,5.505 15.421 C 5.458 15.411,5.078 15.338,4.660 15.259 C 4.049 15.143,2.460 14.768,2.114 14.658 C 2.060 14.641,2.040 14.655,2.041 14.707 M7.200 15.696 C 7.200 15.969,7.738 18.206,7.997 19.010 C 8.084 19.279,8.160 19.545,8.167 19.600 C 8.182 19.713,8.286 19.748,8.933 19.857 C 10.126 20.057,11.291 20.030,12.491 19.773 C 12.768 19.713,12.805 19.695,12.826 19.603 C 12.839 19.546,12.927 19.248,13.021 18.940 C 13.325 17.949,13.848 15.715,13.791 15.657 C 13.780 15.646,13.503 15.664,13.175 15.697 C 12.023 15.811,11.041 15.851,9.960 15.826 C 9.023 15.805,7.783 15.724,7.350 15.656 C 7.231 15.638,7.200 15.646,7.200 15.696 " fill="#292D32" stroke="none" fill-rule="evenodd"></path></svg>