<svg width="24" height="24" viewBox="0 0 24 24" fill="none" xmlns="http://www.w3.org/2000/svg"><path d="M11.800 1.287 C 11.594 1.345,11.401 1.508,11.317 1.695 C 11.249 1.843,11.242 1.972,11.241 2.948 L 11.240 4.036 11.090 4.059 C 9.373 4.323,8.137 4.847,6.918 5.830 C 5.390 7.062,4.286 9.064,4.061 11.010 L 4.034 11.240 3.039 11.240 C 2.463 11.240,1.957 11.259,1.838 11.284 C 1.080 11.447,1.080 12.553,1.838 12.716 C 1.957 12.741,2.464 12.760,3.040 12.760 L 4.036 12.760 4.056 12.890 C 4.199 13.826,4.361 14.441,4.644 15.120 C 4.890 15.708,5.171 16.181,5.779 17.024 C 5.809 17.066,5.376 17.522,3.953 18.949 C 2.370 20.537,2.081 20.844,2.044 20.980 C 1.931 21.394,2.089 21.753,2.460 21.924 C 2.667 22.020,2.856 22.018,3.080 21.918 C 3.222 21.854,5.226 19.871,12.565 12.528 C 20.767 4.324,21.879 3.198,21.941 3.030 C 22.186 2.366,21.450 1.765,20.838 2.129 C 20.740 2.187,19.852 3.044,18.864 4.033 L 17.069 5.831 16.755 5.599 C 15.718 4.830,14.434 4.293,13.220 4.120 C 13.044 4.095,12.860 4.067,12.812 4.057 C 12.723 4.039,12.723 4.039,12.712 2.887 L 12.700 1.734 12.601 1.589 C 12.427 1.336,12.084 1.207,11.800 1.287 M18.178 8.899 C 18.032 8.972,17.605 9.373,16.548 10.431 L 15.116 11.865 15.097 12.182 C 15.072 12.609,14.983 12.955,14.800 13.340 C 14.311 14.366,13.333 15.029,12.194 15.107 L 11.847 15.131 10.408 16.576 C 9.436 17.551,8.939 18.078,8.877 18.200 C 8.769 18.415,8.755 18.785,8.849 19.003 C 8.934 19.202,9.144 19.430,9.328 19.524 C 9.529 19.626,10.441 19.858,10.890 19.920 L 11.240 19.968 11.240 21.009 C 11.240 22.178,11.259 22.299,11.482 22.522 C 11.781 22.821,12.221 22.819,12.525 22.515 C 12.607 22.433,12.694 22.297,12.717 22.213 C 12.742 22.123,12.760 21.627,12.760 21.015 L 12.760 19.969 13.090 19.923 C 15.946 19.525,18.394 17.587,19.458 14.882 C 19.634 14.433,19.852 13.597,19.920 13.110 L 19.968 12.760 21.009 12.760 C 22.182 12.760,22.299 12.741,22.527 12.513 C 22.874 12.166,22.803 11.611,22.379 11.371 C 22.225 11.284,22.187 11.281,21.090 11.281 C 20.468 11.280,19.960 11.267,19.960 11.250 C 19.957 10.915,19.667 9.661,19.519 9.346 C 19.292 8.864,18.666 8.655,18.178 8.899 M12.591 8.944 C 12.909 9.009,13.300 9.152,13.473 9.265 L 13.571 9.329 11.457 11.443 C 9.890 13.010,9.331 13.546,9.295 13.515 C 9.267 13.493,9.191 13.345,9.126 13.187 C 8.426 11.506,9.314 9.597,11.063 9.025 C 11.537 8.869,12.090 8.840,12.591 8.944 " fill="#292D32" stroke="none" fill-rule="evenodd"></path></svg>