<svg width="24" height="24" viewBox="0 0 24 24" fill="none" xmlns="http://www.w3.org/2000/svg"><path d="M11.785 1.288 C 11.587 1.342,11.338 1.590,11.283 1.787 C 11.258 1.877,11.240 2.374,11.240 2.988 L 11.240 4.036 11.090 4.059 C 9.328 4.329,8.021 4.900,6.810 5.928 C 5.345 7.172,4.343 8.994,4.080 10.888 L 4.032 11.235 2.926 11.248 C 1.895 11.259,1.809 11.266,1.660 11.344 C 1.139 11.616,1.121 12.330,1.627 12.645 C 1.777 12.738,1.801 12.740,2.906 12.752 L 4.031 12.765 4.078 13.092 C 4.576 16.590,7.318 19.369,10.797 19.903 L 11.235 19.970 11.248 21.098 L 11.260 22.226 11.367 22.388 C 11.682 22.864,12.318 22.864,12.633 22.388 L 12.740 22.226 12.752 21.097 L 12.765 19.969 13.092 19.922 C 16.624 19.419,19.432 16.611,19.923 13.092 L 19.969 12.765 21.097 12.752 L 22.226 12.740 22.388 12.633 C 22.627 12.475,22.739 12.270,22.739 11.993 C 22.739 11.804,22.718 11.736,22.619 11.596 C 22.393 11.275,22.333 11.262,21.074 11.248 L 19.969 11.235 19.922 10.908 C 19.491 7.886,17.393 5.377,14.480 4.402 C 14.156 4.294,13.441 4.137,12.912 4.059 L 12.765 4.037 12.752 2.902 L 12.740 1.767 12.620 1.597 C 12.427 1.323,12.099 1.202,11.785 1.288 M12.839 9.001 C 13.884 9.296,14.704 10.121,15.007 11.182 C 15.135 11.633,15.135 12.367,15.007 12.818 C 14.753 13.706,14.163 14.410,13.340 14.805 C 12.853 15.038,12.580 15.098,12.000 15.098 C 11.420 15.098,11.147 15.038,10.660 14.805 C 9.837 14.410,9.247 13.706,8.993 12.818 C 8.865 12.367,8.865 11.633,8.993 11.182 C 9.332 9.994,10.277 9.145,11.513 8.918 C 11.813 8.863,12.504 8.906,12.839 9.001 " fill="#292D32" stroke="none" fill-rule="evenodd"></path></svg>