<svg width="24" height="24" viewBox="0 0 24 24" fill="none" xmlns="http://www.w3.org/2000/svg"><path d="M11.180 2.067 C 8.130 2.334,5.395 3.947,3.701 6.480 C 2.823 7.792,2.289 9.223,2.073 10.840 C 1.996 11.419,2.008 12.838,2.096 13.420 C 2.337 15.022,2.953 16.583,3.831 17.811 C 5.464 20.097,7.774 21.497,10.620 21.925 C 11.407 22.044,12.633 22.044,13.420 21.925 C 14.563 21.753,15.532 21.456,16.500 20.981 C 17.558 20.462,18.386 19.857,19.224 18.990 C 20.683 17.480,21.557 15.731,21.927 13.576 C 22.047 12.879,22.058 11.344,21.948 10.640 C 21.674 8.878,21.047 7.380,19.995 5.972 C 19.618 5.468,18.612 4.462,18.108 4.085 C 16.576 2.940,14.857 2.263,13.023 2.083 C 12.620 2.043,11.558 2.034,11.180 2.067 M8.487 15.433 C 8.566 15.474,8.737 15.598,8.866 15.709 C 9.824 16.536,11.196 16.969,12.453 16.841 C 13.508 16.733,14.375 16.377,15.144 15.734 C 15.495 15.440,15.649 15.360,15.860 15.360 C 16.021 15.360,16.260 15.449,16.373 15.552 C 16.587 15.745,16.663 16.156,16.535 16.425 C 16.499 16.501,16.359 16.663,16.225 16.785 C 15.631 17.324,14.846 17.771,14.026 18.035 C 13.276 18.277,12.860 18.340,12.020 18.340 C 11.180 18.340,10.764 18.277,10.014 18.035 C 9.205 17.774,8.423 17.332,7.828 16.799 C 7.552 16.551,7.440 16.349,7.440 16.100 C 7.440 15.908,7.540 15.667,7.667 15.552 C 7.877 15.362,8.243 15.309,8.487 15.433 " fill="#292D32" stroke="none" fill-rule="evenodd"></path></svg>