<svg width="24" height="24" viewBox="0 0 24 24" fill="none" xmlns="http://www.w3.org/2000/svg"><path d="M14.580 2.037 C 13.989 2.134,13.640 2.311,13.236 2.715 C 12.771 3.181,12.535 3.755,12.441 4.647 C 12.388 5.150,12.389 8.067,12.443 8.548 C 12.612 10.067,13.259 11.004,14.395 11.377 C 14.984 11.570,15.126 11.580,17.280 11.579 C 19.511 11.579,19.700 11.563,20.368 11.320 C 21.417 10.939,21.997 10.070,21.999 8.880 C 22.001 7.648,21.474 6.071,20.689 4.960 C 20.345 4.474,19.529 3.657,19.040 3.310 C 18.571 2.978,17.670 2.526,17.151 2.363 C 16.275 2.088,15.143 1.945,14.580 2.037 M9.380 4.786 C 7.935 5.011,6.419 5.686,5.226 6.637 C 2.870 8.515,1.664 11.589,2.103 14.600 C 2.482 17.203,3.984 19.441,6.264 20.799 C 8.045 21.860,10.338 22.245,12.362 21.823 C 15.717 21.125,18.325 18.552,19.103 15.174 C 19.180 14.840,19.214 14.582,19.216 14.300 C 19.220 13.940,19.209 13.878,19.109 13.674 C 18.988 13.428,18.735 13.170,18.493 13.046 C 18.200 12.897,17.934 12.880,15.900 12.880 C 14.652 12.880,13.848 12.864,13.697 12.836 C 12.938 12.697,12.166 12.195,11.700 11.540 C 11.487 11.240,11.391 11.050,11.251 10.653 L 11.141 10.340 11.120 8.080 L 11.100 5.820 10.994 5.593 C 10.753 5.080,10.336 4.793,9.806 4.777 C 9.637 4.772,9.446 4.776,9.380 4.786 " fill="#292D32" stroke="none" fill-rule="evenodd"></path></svg>