<svg width="24" height="24" viewBox="0 0 24 24" fill="none" xmlns="http://www.w3.org/2000/svg"><path d="M6.760 2.020 C 3.949 2.405,2.285 4.180,2.039 7.060 C 2.008 7.418,1.999 9.054,2.010 12.320 C 2.026 16.991,2.027 17.067,2.113 17.516 C 2.342 18.711,2.807 19.646,3.539 20.384 C 4.538 21.391,5.761 21.854,7.650 21.943 L 8.240 21.971 8.240 11.965 L 8.240 1.960 7.690 1.964 C 7.388 1.966,6.969 1.992,6.760 2.020 M9.760 4.860 L 9.760 7.760 15.880 7.760 L 22.000 7.760 22.000 7.518 C 22.000 7.386,21.981 7.102,21.957 6.888 C 21.684 4.399,20.301 2.740,18.020 2.164 C 17.256 1.971,16.989 1.960,13.258 1.960 L 9.760 1.960 9.760 4.860 M9.760 12.000 L 9.760 14.760 15.880 14.760 L 22.000 14.760 22.000 12.000 L 22.000 9.240 15.880 9.240 L 9.760 9.240 9.760 12.000 M9.760 19.102 L 9.760 21.965 13.350 21.950 C 16.511 21.936,16.990 21.926,17.360 21.865 C 18.438 21.688,19.240 21.367,19.963 20.823 C 20.910 20.111,21.524 19.106,21.814 17.798 C 21.905 17.385,22.000 16.648,22.000 16.353 L 22.000 16.240 15.880 16.240 L 9.760 16.240 9.760 19.102 " fill="#292D32" stroke="none" fill-rule="evenodd"></path></svg>