<svg width="24" height="24" viewBox="0 0 24 24" fill="none" xmlns="http://www.w3.org/2000/svg"><path d="M6.960 2.047 C 6.240 2.115,5.360 2.356,4.796 2.641 C 3.495 3.298,2.577 4.490,2.207 6.000 C 2.004 6.829,2.000 6.943,2.000 12.000 C 2.000 17.057,2.004 17.171,2.207 18.000 C 2.632 19.736,3.742 21.005,5.353 21.597 C 6.036 21.848,6.945 22.000,7.762 22.000 L 8.240 22.000 8.240 12.000 L 8.240 2.000 7.790 2.005 C 7.543 2.008,7.169 2.027,6.960 2.047 M9.760 6.618 L 9.760 11.240 15.884 11.240 L 22.007 11.240 21.989 9.070 C 21.972 7.088,21.963 6.862,21.887 6.456 C 21.661 5.250,21.213 4.334,20.485 3.586 C 19.747 2.829,18.792 2.350,17.544 2.112 C 17.116 2.030,16.966 2.026,13.430 2.011 L 9.760 1.995 9.760 6.618 M9.760 17.382 L 9.760 22.005 13.430 21.989 C 16.966 21.974,17.116 21.970,17.544 21.888 C 18.754 21.657,19.670 21.209,20.414 20.485 C 21.170 19.748,21.655 18.779,21.887 17.544 C 21.963 17.138,21.972 16.912,21.989 14.930 L 22.007 12.760 15.884 12.760 L 9.760 12.760 9.760 17.382 " fill="#292D32" stroke="none" fill-rule="evenodd"></path></svg>