<svg width="24" height="24" viewBox="0 0 24 24" fill="none" xmlns="http://www.w3.org/2000/svg"><path d="M6.940 2.047 C 4.689 2.274,3.028 3.514,2.366 5.460 C 2.148 6.103,2.000 6.950,2.000 7.558 L 2.000 7.800 4.880 7.800 L 7.760 7.800 7.760 4.900 L 7.760 2.000 7.530 2.005 C 7.404 2.008,7.138 2.027,6.940 2.047 M9.240 4.900 L 9.240 7.800 12.000 7.800 L 14.760 7.800 14.760 4.900 L 14.760 2.000 12.000 2.000 L 9.240 2.000 9.240 4.900 M16.240 4.900 L 16.240 7.800 19.125 7.800 L 22.011 7.800 21.984 7.370 C 21.880 5.747,21.423 4.576,20.522 3.631 C 19.800 2.872,18.897 2.391,17.764 2.161 C 17.398 2.087,16.648 2.000,16.370 2.000 L 16.240 2.000 16.240 4.900 M2.000 12.060 L 2.000 14.800 4.880 14.800 L 7.760 14.800 7.760 12.060 L 7.760 9.320 4.880 9.320 L 2.000 9.320 2.000 12.060 M9.240 12.060 L 9.240 14.800 12.000 14.800 L 14.760 14.800 14.760 12.060 L 14.760 9.320 12.000 9.320 L 9.240 9.320 9.240 12.060 M16.240 12.060 L 16.240 14.800 19.120 14.800 L 22.000 14.800 22.000 12.060 L 22.000 9.320 19.120 9.320 L 16.240 9.320 16.240 12.060 M2.000 16.436 C 2.000 16.679,2.087 17.396,2.161 17.763 C 2.550 19.686,3.753 21.075,5.532 21.656 C 6.096 21.840,7.059 22.000,7.604 22.000 L 7.760 22.000 7.760 19.160 L 7.760 16.320 4.880 16.320 L 2.000 16.320 2.000 16.436 M9.240 19.160 L 9.240 22.000 12.000 22.000 L 14.760 22.000 14.760 19.160 L 14.760 16.320 12.000 16.320 L 9.240 16.320 9.240 19.160 M16.240 19.166 L 16.240 22.011 16.650 21.984 C 17.868 21.901,18.810 21.625,19.623 21.114 C 21.049 20.217,21.831 18.753,21.983 16.690 L 22.010 16.320 19.125 16.320 L 16.240 16.320 16.240 19.166 " fill="#292D32" stroke="none" fill-rule="evenodd"></path></svg>