<svg width="24" height="24" viewBox="0 0 24 24" fill="none" xmlns="http://www.w3.org/2000/svg"><path d="M6.991 2.044 C 6.252 2.117,5.350 2.362,4.800 2.640 C 3.856 3.116,3.016 3.984,2.581 4.930 C 2.184 5.797,2.040 6.562,2.011 7.970 L 1.989 9.000 12.000 9.000 L 22.011 9.000 21.989 7.970 C 21.973 7.183,21.949 6.830,21.886 6.476 C 21.672 5.273,21.221 4.342,20.485 3.586 C 19.747 2.829,18.795 2.351,17.544 2.111 C 17.107 2.027,17.018 2.026,12.220 2.017 C 9.536 2.013,7.183 2.025,6.991 2.044 M2.000 13.618 C 2.000 16.924,2.014 17.210,2.207 18.000 C 2.631 19.732,3.743 21.005,5.343 21.593 C 6.302 21.946,6.826 22.000,9.262 22.000 L 11.240 22.000 11.240 16.260 L 11.240 10.520 6.620 10.520 L 2.000 10.520 2.000 13.618 M12.760 16.264 L 12.760 22.007 14.930 21.989 C 16.912 21.972,17.138 21.963,17.544 21.887 C 18.779 21.655,19.748 21.170,20.485 20.414 C 21.209 19.670,21.658 18.752,21.888 17.544 C 21.969 17.120,21.973 16.954,21.989 13.810 L 22.005 10.520 17.383 10.520 L 12.760 10.520 12.760 16.264 " fill="#292D32" stroke="none" fill-rule="evenodd"></path></svg>