<svg width="24" height="24" viewBox="0 0 24 24" fill="none" xmlns="http://www.w3.org/2000/svg"><path d="M6.991 2.044 C 6.258 2.115,5.352 2.361,4.800 2.640 C 4.372 2.856,3.859 3.234,3.515 3.586 C 2.777 4.344,2.333 5.262,2.108 6.497 C 2.020 6.978,2.020 7.001,2.020 12.000 C 2.020 16.999,2.020 17.022,2.108 17.503 C 2.333 18.738,2.776 19.656,3.515 20.414 C 4.254 21.172,5.217 21.654,6.456 21.887 C 6.862 21.963,7.088 21.972,9.070 21.989 L 11.240 22.007 11.240 12.004 L 11.240 2.000 9.290 2.005 C 8.217 2.008,7.183 2.026,6.991 2.044 M12.760 11.997 L 12.760 22.000 14.738 22.000 C 16.292 22.000,16.817 21.987,17.188 21.938 C 18.550 21.760,19.532 21.326,20.356 20.541 C 21.258 19.681,21.748 18.643,21.938 17.188 C 21.991 16.785,22.000 16.023,22.000 12.000 C 22.000 6.943,21.996 6.829,21.793 6.000 C 21.321 4.072,19.993 2.719,18.099 2.239 C 17.313 2.039,17.186 2.030,14.910 2.011 L 12.760 1.993 12.760 11.997 " fill="#292D32" stroke="none" fill-rule="evenodd"></path></svg>