<svg width="24" height="24" viewBox="0 0 24 24" fill="none" xmlns="http://www.w3.org/2000/svg"><path d="M10.000 2.037 C 9.712 2.126,9.490 2.311,9.346 2.579 C 9.261 2.738,9.260 2.766,9.260 4.900 C 9.260 7.034,9.261 7.062,9.346 7.221 C 9.455 7.425,9.615 7.585,9.819 7.694 C 9.978 7.779,10.010 7.780,12.000 7.780 C 13.990 7.780,14.022 7.779,14.181 7.694 C 14.385 7.585,14.545 7.425,14.654 7.221 C 14.739 7.062,14.740 7.034,14.740 4.900 C 14.740 2.766,14.739 2.738,14.654 2.579 C 14.545 2.375,14.385 2.215,14.181 2.106 C 14.023 2.022,13.982 2.020,12.060 2.013 C 10.982 2.009,10.055 2.019,10.000 2.037 M6.225 2.160 C 4.300 2.566,2.921 3.763,2.345 5.529 C 2.202 5.967,2.075 6.583,2.070 6.863 C 2.063 7.319,2.335 7.666,2.776 7.761 C 2.915 7.791,3.625 7.801,5.000 7.793 C 6.978 7.780,7.023 7.778,7.181 7.694 C 7.385 7.585,7.545 7.425,7.654 7.221 C 7.739 7.062,7.740 7.033,7.740 4.940 C 7.740 2.628,7.741 2.638,7.510 2.374 C 7.241 2.069,6.916 2.015,6.225 2.160 M16.780 2.146 C 16.582 2.250,16.405 2.444,16.330 2.637 C 16.266 2.804,16.260 3.011,16.260 4.940 C 16.260 7.033,16.261 7.062,16.346 7.221 C 16.455 7.425,16.615 7.585,16.819 7.694 C 16.978 7.779,17.007 7.780,19.100 7.780 L 21.220 7.780 21.407 7.670 C 21.894 7.384,22.008 7.001,21.841 6.212 C 21.609 5.113,21.125 4.203,20.400 3.504 C 19.850 2.974,19.305 2.641,18.564 2.383 C 17.779 2.110,17.036 2.011,16.780 2.146 M2.617 9.377 C 2.435 9.456,2.207 9.670,2.108 9.856 C 2.021 10.017,2.020 10.051,2.009 11.955 C 1.995 14.182,1.997 14.199,2.299 14.501 C 2.602 14.804,2.604 14.804,4.965 14.791 C 6.980 14.780,7.023 14.778,7.181 14.694 C 7.385 14.585,7.545 14.425,7.654 14.221 C 7.738 14.064,7.740 14.015,7.752 12.185 C 7.760 10.911,7.749 10.241,7.719 10.094 C 7.659 9.805,7.475 9.568,7.203 9.430 L 6.986 9.320 4.863 9.322 C 3.179 9.323,2.715 9.334,2.617 9.377 M9.797 9.430 C 9.525 9.568,9.341 9.805,9.281 10.094 C 9.251 10.241,9.240 10.911,9.248 12.185 C 9.260 14.015,9.262 14.064,9.346 14.220 C 9.464 14.440,9.598 14.576,9.805 14.687 L 9.980 14.780 12.000 14.780 C 13.990 14.780,14.022 14.779,14.181 14.694 C 14.269 14.647,14.392 14.557,14.455 14.495 C 14.517 14.432,14.607 14.309,14.654 14.221 C 14.738 14.064,14.740 14.015,14.752 12.187 C 14.761 10.904,14.750 10.245,14.719 10.096 C 14.659 9.804,14.476 9.568,14.203 9.430 L 13.986 9.320 12.000 9.320 L 10.014 9.320 9.797 9.430 M19.717 13.052 C 19.617 13.081,19.455 13.151,19.357 13.209 C 19.260 13.267,18.532 13.964,17.741 14.758 L 16.301 16.201 18.051 17.950 L 19.800 19.700 21.276 18.224 C 22.221 17.279,22.781 16.689,22.835 16.582 C 23.045 16.161,23.042 15.722,22.827 15.316 C 22.644 14.972,20.953 13.281,20.647 13.136 C 20.389 13.014,19.982 12.977,19.717 13.052 M2.555 16.432 C 2.124 16.657,2.012 16.985,2.139 17.659 C 2.447 19.305,3.394 20.643,4.736 21.327 C 5.309 21.619,6.350 21.922,6.765 21.918 C 7.131 21.915,7.438 21.726,7.624 21.390 L 7.740 21.180 7.752 19.245 C 7.760 17.927,7.749 17.241,7.719 17.094 C 7.659 16.805,7.475 16.568,7.203 16.430 L 6.986 16.320 4.877 16.320 L 2.769 16.320 2.555 16.432 M14.251 18.250 C 13.078 19.427,13.023 19.508,13.021 20.061 C 13.019 20.608,13.097 20.723,14.248 21.865 C 15.208 22.817,15.223 22.830,15.495 22.920 C 15.709 22.990,15.830 23.006,16.036 22.991 C 16.518 22.956,16.594 22.902,17.750 21.749 L 18.801 20.701 17.071 18.971 C 16.119 18.019,15.322 17.240,15.299 17.240 C 15.276 17.240,14.805 17.695,14.251 18.250 " fill="#292D32" stroke="none" fill-rule="evenodd"></path></svg>