<svg width="24" height="24" viewBox="0 0 24 24" fill="none" xmlns="http://www.w3.org/2000/svg"><path d="M8.760 6.620 L 8.760 11.240 12.000 11.240 L 15.240 11.240 15.240 6.620 L 15.240 2.000 12.000 2.000 L 8.760 2.000 8.760 6.620 M6.700 2.086 C 6.270 2.140,5.623 2.307,5.222 2.466 C 3.786 3.036,2.804 4.103,2.323 5.616 C 2.049 6.475,2.032 6.666,2.011 9.070 L 1.993 11.240 4.616 11.240 L 7.240 11.240 7.240 6.640 L 7.240 2.040 7.110 2.045 C 7.038 2.048,6.854 2.066,6.700 2.086 M16.760 6.635 L 16.760 11.240 19.380 11.240 L 22.000 11.240 22.000 9.262 C 22.000 7.121,21.973 6.722,21.777 5.948 C 21.327 4.172,20.187 2.928,18.488 2.361 C 18.088 2.228,17.471 2.097,17.050 2.057 L 16.760 2.030 16.760 6.635 M2.011 14.930 C 2.028 16.912,2.037 17.138,2.113 17.544 C 2.211 18.064,2.394 18.662,2.581 19.070 C 3.029 20.045,3.895 20.921,4.870 21.384 C 5.452 21.660,6.262 21.878,6.950 21.943 L 7.240 21.970 7.240 17.365 L 7.240 12.760 4.616 12.760 L 1.993 12.760 2.011 14.930 M8.760 17.380 L 8.760 22.000 12.000 22.000 L 15.240 22.000 15.240 17.380 L 15.240 12.760 12.000 12.760 L 8.760 12.760 8.760 17.380 M16.760 17.365 L 16.760 21.970 17.050 21.943 C 18.452 21.810,19.673 21.258,20.523 20.372 C 21.225 19.640,21.664 18.730,21.887 17.544 C 21.963 17.138,21.972 16.912,21.989 14.930 L 22.007 12.760 19.384 12.760 L 16.760 12.760 16.760 17.365 " fill="#292D32" stroke="none" fill-rule="evenodd"></path></svg>