<svg width="24" height="24" viewBox="0 0 24 24" fill="none" xmlns="http://www.w3.org/2000/svg"><path d="M6.991 2.044 C 6.258 2.115,5.352 2.361,4.800 2.640 C 4.372 2.856,3.859 3.234,3.515 3.586 C 2.787 4.333,2.339 5.250,2.113 6.456 C 2.037 6.862,2.028 7.088,2.011 9.070 L 1.993 11.240 6.616 11.240 L 11.240 11.240 11.240 6.620 L 11.240 2.000 9.290 2.005 C 8.217 2.008,7.183 2.026,6.991 2.044 M12.760 6.616 L 12.760 11.240 17.384 11.240 L 22.007 11.240 21.989 9.070 C 21.972 7.088,21.963 6.862,21.887 6.456 C 21.661 5.250,21.213 4.334,20.485 3.586 C 19.746 2.828,18.783 2.346,17.544 2.113 C 17.138 2.037,16.912 2.028,14.930 2.011 L 12.760 1.993 12.760 6.616 M2.000 14.738 C 2.000 16.839,2.027 17.266,2.207 18.000 C 2.631 19.732,3.743 21.005,5.343 21.593 C 6.302 21.946,6.826 22.000,9.262 22.000 L 11.240 22.000 11.240 17.380 L 11.240 12.760 6.620 12.760 L 2.000 12.760 2.000 14.738 M12.760 17.384 L 12.760 22.007 14.930 21.989 C 16.912 21.972,17.138 21.963,17.544 21.887 C 18.779 21.655,19.748 21.170,20.485 20.414 C 21.210 19.669,21.661 18.746,21.887 17.544 C 21.963 17.138,21.972 16.912,21.989 14.930 L 22.007 12.760 17.384 12.760 L 12.760 12.760 12.760 17.384 " fill="#292D32" stroke="none" fill-rule="evenodd"></path></svg>