<svg width="24" height="24" viewBox="0 0 24 24" fill="none" xmlns="http://www.w3.org/2000/svg"><path d="M6.991 2.044 C 6.258 2.115,5.352 2.361,4.800 2.640 C 3.856 3.116,3.016 3.984,2.581 4.930 C 2.199 5.764,2.043 6.564,2.011 7.850 L 1.989 8.760 6.614 8.760 L 11.240 8.760 11.240 5.380 L 11.240 2.000 9.290 2.005 C 8.217 2.008,7.183 2.026,6.991 2.044 M12.760 7.877 L 12.760 13.760 17.380 13.760 L 22.000 13.760 22.000 10.522 C 22.000 7.065,21.988 6.794,21.793 6.000 C 21.321 4.072,19.993 2.719,18.099 2.239 C 17.313 2.039,17.186 2.030,14.910 2.011 L 12.760 1.993 12.760 7.877 M2.011 13.670 C 2.027 16.959,2.031 17.118,2.112 17.544 C 2.349 18.791,2.829 19.747,3.586 20.485 C 4.334 21.213,5.250 21.661,6.456 21.887 C 6.862 21.963,7.088 21.972,9.070 21.989 L 11.240 22.007 11.240 16.124 L 11.240 10.240 6.618 10.240 L 1.995 10.240 2.011 13.670 M12.760 18.624 L 12.760 22.007 14.930 21.989 C 16.912 21.972,17.138 21.963,17.544 21.887 C 18.779 21.655,19.748 21.170,20.485 20.414 C 21.043 19.841,21.411 19.214,21.678 18.381 C 21.886 17.730,21.964 17.173,21.989 16.150 L 22.011 15.240 17.386 15.240 L 12.760 15.240 12.760 18.624 " fill="#292D32" stroke="none" fill-rule="evenodd"></path></svg>