<svg width="24" height="24" viewBox="0 0 24 24" fill="none" xmlns="http://www.w3.org/2000/svg"><path d="M11.260 2.024 C 10.193 2.133,9.240 2.343,8.460 2.640 C 5.159 3.896,2.776 6.743,2.138 10.194 C 1.916 11.395,1.916 12.605,2.138 13.806 C 2.902 17.935,6.151 21.141,10.298 21.859 C 11.555 22.076,12.998 22.032,14.240 21.737 C 15.607 21.412,16.891 20.807,18.028 19.954 C 18.474 19.618,19.443 18.675,19.768 18.260 C 20.998 16.686,21.715 14.944,21.919 13.032 C 21.972 12.531,21.972 11.465,21.918 10.968 C 21.745 9.358,21.197 7.828,20.326 6.518 C 18.710 4.087,16.231 2.518,13.340 2.097 C 12.947 2.040,11.575 1.992,11.260 2.024 M7.588 15.353 C 7.636 15.379,7.814 15.572,7.983 15.782 C 9.051 17.110,10.550 17.812,12.180 17.748 C 13.728 17.687,15.059 17.001,16.036 15.762 C 16.346 15.370,16.488 15.280,16.799 15.280 C 17.027 15.280,17.124 15.318,17.294 15.475 C 17.461 15.630,17.520 15.770,17.520 16.013 C 17.520 16.200,17.498 16.264,17.363 16.465 C 16.804 17.303,15.942 18.042,14.940 18.543 C 14.370 18.827,13.911 18.988,13.275 19.127 C 12.916 19.205,12.744 19.217,12.000 19.217 C 11.256 19.217,11.084 19.205,10.725 19.127 C 9.490 18.858,8.442 18.321,7.523 17.487 C 7.179 17.176,6.718 16.627,6.570 16.354 C 6.402 16.044,6.468 15.684,6.735 15.450 C 6.871 15.330,6.928 15.305,7.140 15.270 C 7.248 15.252,7.480 15.295,7.588 15.353 " fill="#292D32" stroke="none" fill-rule="evenodd"></path></svg>