<svg width="24" height="24" viewBox="0 0 24 24" fill="none" xmlns="http://www.w3.org/2000/svg"><path d="M6.991 2.044 C 6.252 2.117,5.350 2.362,4.800 2.640 C 4.372 2.856,3.859 3.234,3.515 3.586 C 2.777 4.344,2.333 5.262,2.108 6.497 C 2.020 6.978,2.020 7.001,2.020 12.000 C 2.020 16.999,2.020 17.022,2.108 17.503 C 2.338 18.764,2.786 19.676,3.555 20.445 C 4.324 21.214,5.236 21.662,6.497 21.892 C 6.978 21.980,7.001 21.980,12.000 21.980 L 17.020 21.980 17.515 21.890 C 18.730 21.669,19.674 21.205,20.424 20.461 C 21.225 19.667,21.709 18.645,21.909 17.326 C 21.974 16.900,21.980 16.449,21.980 12.020 C 21.980 6.785,21.981 6.812,21.761 5.939 C 21.514 4.958,21.135 4.265,20.480 3.597 C 19.698 2.799,18.826 2.358,17.544 2.111 C 17.107 2.027,17.018 2.026,12.220 2.017 C 9.536 2.013,7.183 2.025,6.991 2.044 M10.862 4.875 C 11.058 4.964,11.223 5.152,11.277 5.348 C 11.308 5.461,11.273 5.886,11.119 7.273 C 11.009 8.251,10.920 9.067,10.920 9.086 C 10.920 9.105,11.559 9.120,12.340 9.120 C 13.686 9.120,13.760 9.116,13.760 9.047 C 13.760 8.854,14.167 5.404,14.202 5.294 C 14.290 5.024,14.618 4.799,14.920 4.801 C 15.075 4.802,15.332 4.935,15.450 5.076 C 15.654 5.318,15.654 5.343,15.439 7.273 C 15.329 8.251,15.240 9.067,15.240 9.086 C 15.240 9.105,16.082 9.120,17.110 9.121 C 18.850 9.122,18.991 9.127,19.145 9.197 C 19.583 9.395,19.698 9.963,19.373 10.322 C 19.127 10.595,19.085 10.600,16.933 10.600 C 15.339 10.600,15.040 10.609,15.040 10.656 C 15.040 10.687,14.977 11.273,14.900 11.960 C 14.823 12.647,14.760 13.260,14.760 13.324 L 14.760 13.440 16.532 13.440 L 18.304 13.440 18.486 13.555 C 18.691 13.685,18.840 13.940,18.840 14.160 C 18.840 14.380,18.691 14.635,18.486 14.765 L 18.304 14.880 16.451 14.880 C 15.004 14.880,14.594 14.891,14.580 14.930 C 14.571 14.957,14.472 15.799,14.361 16.800 C 14.229 17.980,14.136 18.672,14.094 18.768 C 14.015 18.950,13.904 19.057,13.711 19.138 C 13.409 19.264,13.109 19.194,12.892 18.947 C 12.663 18.687,12.663 18.685,12.881 16.727 C 12.991 15.749,13.080 14.933,13.080 14.914 C 13.080 14.895,12.449 14.880,11.679 14.880 C 10.594 14.880,10.274 14.891,10.260 14.930 C 10.251 14.957,10.152 15.799,10.041 16.800 C 9.909 17.980,9.816 18.672,9.774 18.768 C 9.695 18.950,9.584 19.057,9.391 19.138 C 9.089 19.264,8.789 19.194,8.572 18.947 C 8.343 18.687,8.343 18.685,8.561 16.727 C 8.671 15.749,8.760 14.933,8.760 14.914 C 8.760 14.895,7.909 14.880,6.868 14.880 L 4.976 14.880 4.794 14.765 C 4.589 14.635,4.440 14.380,4.440 14.160 C 4.440 13.940,4.589 13.685,4.794 13.555 L 4.976 13.440 6.949 13.440 C 8.492 13.440,8.926 13.429,8.940 13.390 C 8.949 13.363,9.026 12.723,9.111 11.970 L 9.265 10.600 7.580 10.600 C 5.733 10.600,5.596 10.586,5.391 10.371 C 5.263 10.238,5.160 10.005,5.160 9.849 C 5.160 9.671,5.342 9.351,5.506 9.240 L 5.654 9.140 7.547 9.129 C 9.307 9.119,9.440 9.113,9.440 9.049 C 9.440 9.011,9.530 8.170,9.641 7.180 C 9.776 5.976,9.864 5.329,9.909 5.226 C 10.062 4.872,10.500 4.711,10.862 4.875 M10.720 10.670 C 10.720 10.708,10.657 11.289,10.580 11.960 C 10.504 12.631,10.441 13.239,10.441 13.311 L 10.440 13.441 11.850 13.431 L 13.260 13.420 13.407 12.160 C 13.488 11.467,13.555 10.832,13.557 10.750 L 13.560 10.600 12.140 10.600 C 10.814 10.600,10.720 10.605,10.720 10.670 " fill="#292D32" stroke="none" fill-rule="evenodd"></path></svg>