<svg width="24" height="24" viewBox="0 0 24 24" fill="none" xmlns="http://www.w3.org/2000/svg"><path d="M7.080 2.043 C 5.590 2.184,4.467 2.657,3.586 3.515 C 2.678 4.400,2.186 5.555,2.040 7.140 C 1.986 7.729,1.986 16.271,2.040 16.860 C 2.183 18.410,2.642 19.518,3.515 20.414 C 4.222 21.139,5.160 21.626,6.258 21.838 C 7.027 21.986,7.575 22.005,10.740 21.992 C 13.767 21.980,13.781 21.980,13.940 21.894 C 14.110 21.802,14.262 21.654,14.385 21.462 C 14.455 21.352,14.462 21.211,14.484 19.442 C 14.506 17.660,14.513 17.519,14.595 17.202 C 14.928 15.914,15.914 14.928,17.202 14.595 C 17.519 14.513,17.660 14.506,19.442 14.484 C 21.211 14.462,21.352 14.455,21.462 14.385 C 21.654 14.262,21.802 14.110,21.894 13.940 C 21.980 13.781,21.980 13.767,21.992 10.740 C 22.007 7.059,21.980 6.620,21.677 5.629 C 21.427 4.814,21.048 4.165,20.485 3.586 C 19.600 2.678,18.445 2.186,16.860 2.040 C 16.336 1.992,7.591 1.995,7.080 2.043 M10.251 5.575 C 10.407 5.642,10.580 5.819,10.637 5.973 C 10.702 6.144,10.690 6.381,10.560 7.540 C 10.494 8.126,10.440 8.623,10.440 8.643 C 10.440 8.664,10.787 8.680,11.260 8.680 C 11.711 8.680,12.080 8.666,12.080 8.650 C 12.080 8.633,12.144 8.053,12.223 7.360 C 12.322 6.486,12.389 6.049,12.440 5.933 C 12.568 5.640,12.938 5.469,13.298 5.537 C 13.472 5.570,13.712 5.772,13.786 5.948 C 13.863 6.133,13.855 6.343,13.720 7.540 C 13.654 8.126,13.600 8.623,13.600 8.643 C 13.600 8.665,14.126 8.680,14.877 8.680 C 15.683 8.680,16.196 8.696,16.267 8.723 C 16.516 8.816,16.758 9.161,16.758 9.420 C 16.758 9.679,16.516 10.024,16.267 10.117 C 16.196 10.144,15.660 10.160,14.799 10.160 L 13.444 10.160 13.422 10.290 C 13.410 10.362,13.373 10.681,13.339 11.000 C 13.304 11.319,13.266 11.638,13.254 11.710 L 13.231 11.840 14.433 11.840 C 15.185 11.840,15.677 11.856,15.747 11.883 C 16.020 11.985,16.211 12.273,16.211 12.580 C 16.211 12.887,16.020 13.175,15.747 13.277 C 15.676 13.304,15.163 13.320,14.357 13.320 C 13.655 13.320,13.080 13.335,13.080 13.354 C 13.080 13.515,12.789 15.890,12.757 15.988 C 12.662 16.279,12.380 16.480,12.064 16.480 C 11.616 16.480,11.320 16.180,11.320 15.724 C 11.320 15.615,11.374 15.046,11.440 14.460 C 11.506 13.874,11.560 13.377,11.560 13.357 C 11.560 13.336,11.213 13.320,10.740 13.320 C 10.289 13.320,9.920 13.335,9.920 13.354 C 9.920 13.515,9.629 15.890,9.597 15.988 C 9.502 16.279,9.220 16.480,8.904 16.480 C 8.456 16.480,8.160 16.180,8.160 15.724 C 8.160 15.615,8.214 15.046,8.280 14.460 C 8.346 13.874,8.400 13.377,8.400 13.357 C 8.400 13.335,7.874 13.320,7.123 13.320 C 6.317 13.320,5.804 13.304,5.733 13.277 C 5.484 13.184,5.242 12.839,5.242 12.580 C 5.242 12.321,5.484 11.976,5.733 11.883 C 5.804 11.856,6.340 11.840,7.201 11.840 L 8.556 11.840 8.578 11.710 C 8.590 11.638,8.627 11.319,8.661 11.000 C 8.696 10.681,8.734 10.361,8.746 10.290 L 8.769 10.160 7.567 10.160 C 6.815 10.160,6.323 10.144,6.253 10.117 C 5.980 10.015,5.789 9.727,5.789 9.420 C 5.789 9.113,5.980 8.825,6.253 8.723 C 6.324 8.696,6.837 8.680,7.643 8.680 C 8.345 8.680,8.920 8.665,8.920 8.646 C 8.920 8.407,9.217 6.095,9.264 5.969 C 9.327 5.800,9.491 5.640,9.681 5.565 C 9.826 5.507,10.104 5.512,10.251 5.575 M10.262 10.250 C 10.245 10.323,10.080 11.753,10.080 11.821 C 10.080 11.831,10.449 11.840,10.899 11.840 C 11.716 11.840,11.719 11.840,11.738 11.750 C 11.755 11.677,11.920 10.247,11.920 10.179 C 11.920 10.169,11.551 10.160,11.101 10.160 C 10.284 10.160,10.281 10.160,10.262 10.250 M17.591 16.040 C 16.746 16.188,16.231 16.685,16.057 17.519 C 16.005 17.771,15.997 18.108,16.009 19.639 C 16.022 21.383,16.027 21.471,16.110 21.720 C 16.313 22.327,16.692 22.700,17.300 22.892 C 17.573 22.978,17.631 22.980,19.500 22.980 C 21.369 22.980,21.427 22.978,21.700 22.892 C 22.318 22.697,22.697 22.318,22.892 21.700 C 22.978 21.427,22.980 21.369,22.980 19.500 C 22.980 17.631,22.978 17.573,22.892 17.300 C 22.700 16.692,22.327 16.313,21.720 16.110 C 21.470 16.026,21.392 16.023,19.620 16.015 C 18.608 16.011,17.695 16.022,17.591 16.040 M19.800 17.085 C 19.883 17.131,19.989 17.237,20.035 17.320 C 20.116 17.464,20.120 17.523,20.120 18.662 L 20.120 19.854 20.210 19.771 C 20.596 19.416,21.064 19.441,21.291 19.830 C 21.392 20.002,21.390 20.283,21.286 20.450 C 21.242 20.521,20.903 20.879,20.533 21.245 C 19.805 21.965,19.687 22.040,19.374 21.982 C 19.243 21.958,19.111 21.846,18.487 21.227 C 18.084 20.827,17.728 20.451,17.697 20.392 C 17.615 20.237,17.626 19.964,17.720 19.810 C 17.906 19.504,18.283 19.430,18.607 19.636 C 18.708 19.700,18.806 19.776,18.825 19.806 C 18.846 19.838,18.868 19.345,18.880 18.620 C 18.899 17.460,18.905 17.373,18.980 17.273 C 19.176 17.011,19.525 16.930,19.800 17.085 " fill="#292D32" stroke="none" fill-rule="evenodd"></path></svg>