<svg width="24" height="24" viewBox="0 0 24 24" fill="none" xmlns="http://www.w3.org/2000/svg"><path d="M6.991 2.044 C 6.252 2.117,5.350 2.362,4.800 2.640 C 4.372 2.856,3.859 3.234,3.515 3.586 C 2.777 4.344,2.333 5.262,2.108 6.497 C 2.020 6.978,2.020 7.001,2.020 12.000 C 2.020 16.999,2.020 17.022,2.108 17.503 C 2.338 18.764,2.786 19.676,3.555 20.445 C 4.324 21.214,5.236 21.662,6.497 21.892 C 6.978 21.980,7.001 21.980,12.000 21.980 L 17.020 21.980 17.515 21.890 C 18.730 21.669,19.674 21.205,20.424 20.461 C 21.225 19.667,21.709 18.645,21.909 17.326 C 21.974 16.900,21.980 16.449,21.980 12.020 C 21.980 6.785,21.981 6.812,21.761 5.939 C 21.514 4.958,21.135 4.265,20.480 3.597 C 19.698 2.799,18.826 2.358,17.544 2.111 C 17.107 2.027,17.018 2.026,12.220 2.017 C 9.536 2.013,7.183 2.025,6.991 2.044 M14.721 6.750 C 16.000 7.117,16.903 8.027,17.252 9.300 C 17.338 9.613,17.340 9.675,17.340 11.980 C 17.340 14.174,17.335 14.361,17.263 14.640 C 16.923 15.973,15.973 16.923,14.640 17.263 C 14.361 17.335,14.174 17.340,11.980 17.340 C 9.675 17.340,9.613 17.338,9.300 17.252 C 8.017 16.901,7.099 15.983,6.748 14.700 C 6.662 14.387,6.660 14.325,6.660 12.020 C 6.660 9.826,6.665 9.639,6.737 9.360 C 7.110 7.899,8.263 6.864,9.740 6.666 C 9.806 6.657,10.886 6.653,12.140 6.657 C 14.344 6.664,14.430 6.667,14.721 6.750 M9.855 8.080 C 9.156 8.183,8.550 8.630,8.256 9.262 C 8.079 9.643,8.034 9.947,8.048 10.680 L 8.060 11.300 9.680 11.300 L 11.300 11.300 11.310 9.670 L 11.321 8.040 10.690 8.045 C 10.344 8.048,9.968 8.063,9.855 8.080 M12.720 9.675 L 12.720 11.320 14.344 11.320 L 15.968 11.320 15.950 10.530 C 15.935 9.849,15.920 9.707,15.846 9.503 C 15.668 9.016,15.389 8.657,14.983 8.393 C 14.579 8.131,14.328 8.074,13.470 8.050 L 12.720 8.030 12.720 9.675 M8.050 13.470 C 8.067 14.080,8.086 14.269,8.154 14.480 C 8.360 15.124,8.875 15.640,9.517 15.845 C 9.732 15.914,9.918 15.933,10.530 15.950 L 11.280 15.970 11.280 14.345 L 11.280 12.720 9.655 12.720 L 8.030 12.720 8.050 13.470 M12.720 14.345 L 12.720 15.970 13.470 15.950 C 14.082 15.933,14.268 15.914,14.483 15.845 C 15.125 15.640,15.640 15.124,15.846 14.480 C 15.914 14.269,15.933 14.080,15.950 13.470 L 15.970 12.720 14.345 12.720 L 12.720 12.720 12.720 14.345 " fill="#292D32" stroke="none" fill-rule="evenodd"></path></svg>