<svg width="24" height="24" viewBox="0 0 24 24" fill="none" xmlns="http://www.w3.org/2000/svg"><path d="M11.300 2.081 C 9.980 2.160,8.778 2.476,7.580 3.060 C 6.583 3.546,5.865 4.042,5.081 4.788 C 3.680 6.121,2.735 7.765,2.279 9.660 C 2.020 10.735,2.026 10.630,2.010 14.640 C 2.000 17.160,2.009 18.406,2.040 18.640 C 2.136 19.383,2.498 20.151,3.013 20.704 C 3.380 21.099,3.702 21.335,4.180 21.561 C 4.659 21.787,4.929 21.863,5.459 21.922 C 7.084 22.102,8.618 21.274,9.350 19.820 C 9.530 19.462,9.669 18.982,9.717 18.549 C 9.773 18.047,9.772 16.282,9.716 15.820 C 9.435 13.522,7.239 12.023,4.940 12.560 C 4.552 12.651,4.123 12.825,3.835 13.008 C 3.717 13.083,3.596 13.159,3.566 13.177 C 3.521 13.204,3.515 13.022,3.530 12.075 C 3.550 10.865,3.589 10.542,3.820 9.687 C 4.329 7.798,5.596 6.054,7.261 4.952 C 9.131 3.714,11.432 3.282,13.709 3.741 C 15.497 4.102,17.268 5.155,18.451 6.560 C 19.277 7.541,19.925 8.783,20.218 9.948 C 20.420 10.747,20.446 10.975,20.468 12.118 L 20.489 13.215 20.383 13.146 C 19.526 12.584,18.628 12.364,17.660 12.480 C 15.867 12.694,14.501 14.045,14.284 15.820 C 14.227 16.285,14.227 18.115,14.284 18.580 C 14.540 20.680,16.422 22.157,18.541 21.922 C 19.071 21.863,19.341 21.787,19.820 21.561 C 20.298 21.335,20.620 21.099,20.987 20.704 C 21.502 20.151,21.864 19.384,21.960 18.640 C 21.991 18.406,22.000 17.178,21.990 14.700 C 21.974 10.709,21.982 10.846,21.695 9.680 C 21.379 8.392,20.791 7.152,19.995 6.093 C 18.441 4.025,16.116 2.607,13.610 2.197 C 13.195 2.129,12.034 2.031,11.840 2.047 C 11.807 2.050,11.564 2.065,11.300 2.081 " fill="#292D32" stroke="none" fill-rule="evenodd"></path></svg>