<svg width="24" height="24" viewBox="0 0 24 24" fill="none" xmlns="http://www.w3.org/2000/svg"><path d="M3.843 2.644 C 3.303 2.749,2.744 3.051,2.342 3.453 C 2.009 3.786,2.000 3.835,2.000 5.317 C 2.000 6.040,2.018 6.642,2.041 6.725 C 2.199 7.293,3.212 7.914,4.098 7.985 C 4.706 8.034,5.382 7.780,5.827 7.334 L 6.083 7.078 6.912 7.089 L 7.740 7.100 7.750 9.636 L 7.761 12.172 7.522 12.388 C 7.357 12.537,7.242 12.687,7.152 12.871 L 7.020 13.138 7.020 15.500 L 7.020 17.862 7.151 18.128 C 7.239 18.306,7.358 18.463,7.511 18.603 L 7.740 18.812 7.760 20.542 L 7.780 22.273 7.904 22.426 C 8.083 22.647,8.248 22.731,8.500 22.731 C 8.752 22.731,8.917 22.647,9.096 22.426 L 9.220 22.273 9.240 20.542 L 9.260 18.812 9.489 18.603 C 9.642 18.463,9.761 18.306,9.849 18.128 L 9.980 17.862 9.980 15.500 L 9.980 13.138 9.848 12.871 C 9.758 12.687,9.643 12.537,9.478 12.388 L 9.240 12.172 9.240 9.509 L 9.240 6.845 9.423 6.695 C 9.684 6.481,9.910 6.146,10.006 5.829 C 10.112 5.480,10.095 4.971,9.966 4.640 C 9.796 4.203,9.407 3.812,8.960 3.630 C 8.750 3.544,8.681 3.540,7.413 3.528 L 6.086 3.516 5.827 3.262 C 5.308 2.753,4.526 2.509,3.843 2.644 M19.280 2.660 C 18.875 2.751,18.469 2.972,18.173 3.262 L 17.914 3.516 16.587 3.528 C 15.319 3.540,15.250 3.544,15.040 3.630 C 14.593 3.812,14.204 4.203,14.034 4.640 C 13.904 4.973,13.888 5.480,13.995 5.832 C 14.093 6.156,14.352 6.533,14.595 6.704 L 14.758 6.820 14.769 14.546 L 14.780 22.273 14.904 22.426 C 15.083 22.647,15.248 22.731,15.500 22.731 C 15.752 22.731,15.917 22.647,16.096 22.426 L 16.220 22.273 16.240 14.686 L 16.260 7.100 17.088 7.089 L 17.917 7.078 18.173 7.334 C 18.905 8.066,19.982 8.188,21.005 7.654 C 21.515 7.387,21.872 7.040,21.959 6.725 C 21.982 6.642,22.000 6.046,22.000 5.337 C 22.000 3.851,21.988 3.782,21.662 3.457 C 21.009 2.804,20.055 2.485,19.280 2.660 " fill="#292D32" stroke="none" fill-rule="evenodd"></path></svg>