<svg width="24" height="24" viewBox="0 0 24 24" fill="none" xmlns="http://www.w3.org/2000/svg"><path d="M6.960 2.046 C 6.236 2.116,5.358 2.357,4.796 2.641 C 3.495 3.298,2.577 4.490,2.207 6.000 C 2.027 6.733,2.000 7.162,2.000 9.246 L 2.000 11.208 5.230 11.198 C 8.449 11.188,8.461 11.188,8.775 11.276 C 9.445 11.463,10.011 11.797,10.500 12.296 C 10.859 12.662,11.088 13.023,11.286 13.534 C 11.360 13.724,11.429 13.879,11.440 13.879 C 11.451 13.879,11.773 13.092,12.155 12.129 C 12.538 11.167,12.914 10.263,12.992 10.120 C 13.256 9.637,13.712 9.274,14.221 9.141 C 14.949 8.952,15.732 9.255,16.213 9.911 C 16.289 10.015,16.589 10.550,16.880 11.100 C 17.564 12.393,17.508 12.307,17.737 12.421 L 17.936 12.520 19.968 12.520 L 22.000 12.520 22.000 9.902 C 22.000 7.771,21.988 7.196,21.938 6.812 C 21.746 5.341,21.253 4.307,20.332 3.440 C 19.574 2.726,18.626 2.291,17.359 2.076 C 16.995 2.014,7.572 1.987,6.960 2.046 M14.448 10.663 C 14.399 10.697,14.325 10.793,14.282 10.875 C 14.240 10.958,13.691 12.327,13.061 13.918 C 12.432 15.509,11.882 16.878,11.840 16.960 C 11.728 17.180,11.533 17.332,11.404 17.300 C 11.281 17.269,11.133 17.140,11.059 16.997 C 11.030 16.941,10.733 16.203,10.399 15.357 C 10.066 14.512,9.738 13.734,9.672 13.630 C 9.434 13.254,8.964 12.909,8.486 12.760 C 8.243 12.684,8.115 12.680,5.666 12.680 C 4.255 12.680,2.844 12.692,2.530 12.706 L 1.960 12.732 1.961 13.876 C 1.962 15.570,2.022 16.973,2.117 17.524 C 2.326 18.740,2.787 19.677,3.555 20.445 C 4.472 21.362,5.618 21.838,7.200 21.959 C 7.926 22.014,16.137 22.014,16.824 21.958 C 18.396 21.832,19.534 21.356,20.445 20.445 C 21.207 19.683,21.658 18.774,21.885 17.544 C 21.956 17.163,21.970 16.881,21.988 15.550 L 22.009 14.000 19.873 14.000 C 17.506 14.000,17.499 13.999,17.003 13.739 C 16.735 13.598,16.449 13.353,16.269 13.112 C 16.215 13.039,15.921 12.504,15.615 11.923 C 15.310 11.342,15.004 10.806,14.935 10.733 C 14.794 10.582,14.603 10.555,14.448 10.663 " fill="#292D32" stroke="none" fill-rule="evenodd"></path></svg>