<svg width="24" height="24" viewBox="0 0 24 24" fill="none" xmlns="http://www.w3.org/2000/svg"><path d="M21.660 1.346 C 21.594 1.380,20.999 1.947,20.338 2.605 L 19.137 3.803 18.798 3.644 C 18.062 3.299,17.485 3.162,16.639 3.132 C 15.256 3.083,14.124 3.449,13.020 4.303 C 12.715 4.539,12.282 4.963,12.085 5.220 L 11.993 5.339 11.908 5.220 C 11.648 4.854,10.969 4.249,10.460 3.930 C 9.892 3.574,9.131 3.295,8.400 3.175 C 7.827 3.080,6.837 3.119,6.281 3.258 C 5.198 3.529,4.300 4.049,3.546 4.841 C 2.797 5.628,2.291 6.620,2.090 7.698 C 1.999 8.183,2.001 9.390,2.095 10.080 C 2.427 12.531,3.538 14.788,5.378 16.756 L 5.767 17.172 3.547 19.396 C 1.410 21.538,1.327 21.627,1.289 21.811 C 1.168 22.396,1.624 22.851,2.193 22.715 C 2.371 22.672,2.853 22.197,12.490 12.565 C 18.343 6.715,22.628 2.403,22.665 2.324 C 22.821 1.995,22.687 1.546,22.380 1.372 C 22.188 1.263,21.842 1.251,21.660 1.346 M20.460 6.654 C 20.300 6.732,19.089 7.924,14.473 12.546 L 8.685 18.340 8.619 18.573 C 8.577 18.719,8.562 18.862,8.578 18.953 C 8.619 19.186,8.790 19.503,8.931 19.609 C 9.285 19.874,10.403 20.442,11.083 20.701 C 11.819 20.982,12.241 20.972,13.040 20.653 C 14.434 20.097,16.034 19.109,17.320 18.008 C 17.812 17.587,18.701 16.692,19.115 16.200 C 20.631 14.398,21.550 12.431,21.887 10.260 C 22.014 9.449,22.015 8.114,21.890 7.541 C 21.831 7.270,21.767 7.091,21.690 6.982 C 21.421 6.599,20.871 6.452,20.460 6.654 " fill="#292D32" stroke="none" fill-rule="evenodd"></path></svg>