<svg width="24" height="24" viewBox="0 0 24 24" fill="none" xmlns="http://www.w3.org/2000/svg"><path d="M6.920 3.181 C 6.887 3.188,6.725 3.215,6.560 3.241 C 5.892 3.349,5.017 3.711,4.402 4.135 C 4.238 4.248,3.945 4.491,3.750 4.676 C 2.532 5.834,1.932 7.376,2.015 9.134 C 2.069 10.259,2.230 11.131,2.580 12.180 C 3.203 14.049,4.181 15.582,5.759 17.162 C 7.042 18.447,8.309 19.380,9.856 20.181 C 10.504 20.516,11.326 20.853,11.496 20.853 C 11.637 20.853,11.760 20.717,11.760 20.561 C 11.760 20.501,11.663 20.247,11.544 19.996 C 11.035 18.920,10.829 17.840,10.923 16.740 C 10.999 15.866,11.190 15.188,11.582 14.413 C 11.913 13.757,12.211 13.349,12.760 12.800 C 13.308 12.252,13.716 11.954,14.373 11.621 C 16.409 10.590,18.835 10.740,20.758 12.016 C 21.270 12.355,21.387 12.326,21.541 11.822 C 21.834 10.860,21.972 9.921,21.976 8.860 C 21.978 8.273,21.961 8.013,21.904 7.720 C 21.674 6.545,21.179 5.613,20.342 4.779 C 19.691 4.130,19.034 3.717,18.213 3.442 C 17.638 3.249,17.342 3.198,16.660 3.173 C 15.393 3.127,14.387 3.411,13.320 4.115 C 13.004 4.324,12.284 4.990,12.086 5.255 L 12.000 5.371 11.912 5.255 C 11.863 5.192,11.696 5.007,11.542 4.845 C 10.732 3.998,9.604 3.407,8.440 3.221 C 8.114 3.169,7.116 3.143,6.920 3.181 M16.680 12.425 C 15.048 12.633,13.642 13.604,12.934 15.012 C 12.539 15.798,12.378 16.532,12.414 17.380 C 12.453 18.299,12.706 19.070,13.223 19.848 C 13.942 20.932,15.051 21.670,16.340 21.925 C 16.705 21.997,17.696 21.997,18.060 21.925 C 19.977 21.545,21.408 20.160,21.884 18.222 C 21.999 17.754,22.025 16.964,21.943 16.462 C 21.620 14.503,20.164 12.950,18.240 12.516 C 17.907 12.441,16.981 12.387,16.680 12.425 M19.371 15.335 C 19.527 15.402,19.700 15.579,19.757 15.733 C 19.820 15.899,19.809 16.189,19.733 16.348 C 19.651 16.523,17.000 18.980,16.805 19.063 C 16.630 19.137,16.395 19.136,16.210 19.058 C 16.035 18.985,14.885 17.865,14.715 17.602 C 14.394 17.106,14.744 16.469,15.337 16.469 C 15.613 16.469,15.719 16.533,16.139 16.957 C 16.337 17.157,16.510 17.320,16.524 17.320 C 16.538 17.320,17.006 16.896,17.565 16.378 C 18.123 15.859,18.643 15.401,18.720 15.359 C 18.887 15.269,19.190 15.258,19.371 15.335 " fill="#292D32" stroke="none" fill-rule="evenodd"></path></svg>