<svg width="24" height="24" viewBox="0 0 24 24" fill="none" xmlns="http://www.w3.org/2000/svg"><path d="M6.920 3.181 C 6.887 3.188,6.725 3.215,6.560 3.241 C 5.892 3.349,5.017 3.711,4.402 4.135 C 4.238 4.248,3.945 4.491,3.750 4.676 C 2.532 5.834,1.932 7.376,2.015 9.134 C 2.069 10.259,2.230 11.131,2.580 12.180 C 3.203 14.049,4.181 15.582,5.759 17.162 C 7.042 18.447,8.309 19.380,9.856 20.181 C 10.504 20.516,11.326 20.853,11.496 20.853 C 11.637 20.853,11.760 20.717,11.760 20.561 C 11.760 20.501,11.663 20.247,11.544 19.996 C 11.035 18.920,10.829 17.840,10.923 16.740 C 10.999 15.866,11.190 15.188,11.582 14.413 C 11.913 13.757,12.211 13.349,12.760 12.800 C 13.308 12.252,13.716 11.954,14.373 11.621 C 16.409 10.590,18.835 10.740,20.758 12.016 C 21.270 12.355,21.387 12.326,21.541 11.822 C 21.834 10.860,21.972 9.921,21.976 8.860 C 21.978 8.273,21.961 8.013,21.904 7.720 C 21.674 6.545,21.179 5.613,20.342 4.779 C 19.691 4.130,19.034 3.717,18.213 3.442 C 17.638 3.249,17.342 3.198,16.660 3.173 C 15.393 3.127,14.387 3.411,13.320 4.115 C 13.004 4.324,12.284 4.990,12.086 5.255 L 12.000 5.371 11.912 5.255 C 11.863 5.192,11.696 5.007,11.542 4.845 C 10.732 3.998,9.604 3.407,8.440 3.221 C 8.114 3.169,7.116 3.143,6.920 3.181 M16.510 13.063 C 15.179 13.304,14.025 14.190,13.432 15.427 C 12.636 17.088,12.966 19.037,14.265 20.335 C 15.519 21.590,17.388 21.941,19.030 21.229 C 19.204 21.154,19.417 21.044,19.503 20.986 L 19.659 20.880 20.159 21.378 C 20.694 21.911,20.837 22.001,21.149 21.999 C 21.634 21.997,21.999 21.614,22.000 21.109 C 22.000 20.839,21.894 20.677,21.377 20.158 L 20.877 19.655 21.018 19.420 C 21.196 19.125,21.376 18.661,21.489 18.208 C 21.620 17.688,21.610 16.810,21.468 16.273 C 21.092 14.845,20.125 13.766,18.761 13.251 C 18.136 13.015,17.205 12.937,16.510 13.063 " fill="#292D32" stroke="none" fill-rule="evenodd"></path></svg>