<svg width="24" height="24" viewBox="0 0 24 24" fill="none" xmlns="http://www.w3.org/2000/svg"><path d="M6.920 3.181 C 6.887 3.188,6.725 3.215,6.560 3.241 C 5.892 3.349,5.017 3.711,4.402 4.135 C 4.238 4.248,3.945 4.491,3.750 4.676 C 2.532 5.834,1.932 7.376,2.015 9.134 C 2.069 10.259,2.230 11.131,2.580 12.180 C 3.203 14.049,4.181 15.582,5.759 17.162 C 7.042 18.447,8.309 19.380,9.856 20.181 C 10.504 20.516,11.326 20.853,11.496 20.853 C 11.637 20.853,11.760 20.717,11.760 20.561 C 11.760 20.501,11.663 20.247,11.544 19.996 C 11.035 18.920,10.829 17.840,10.923 16.740 C 10.999 15.866,11.190 15.188,11.582 14.413 C 11.913 13.757,12.211 13.349,12.760 12.800 C 13.308 12.252,13.716 11.954,14.373 11.621 C 16.409 10.590,18.835 10.740,20.758 12.016 C 21.270 12.355,21.387 12.326,21.541 11.822 C 21.834 10.860,21.972 9.921,21.976 8.860 C 21.978 8.273,21.961 8.013,21.904 7.720 C 21.674 6.545,21.179 5.613,20.342 4.779 C 19.691 4.130,19.034 3.717,18.213 3.442 C 17.638 3.249,17.342 3.198,16.660 3.173 C 15.393 3.127,14.387 3.411,13.320 4.115 C 13.004 4.324,12.284 4.990,12.086 5.255 L 12.000 5.371 11.912 5.255 C 11.863 5.192,11.696 5.007,11.542 4.845 C 10.732 3.998,9.604 3.407,8.440 3.221 C 8.114 3.169,7.116 3.143,6.920 3.181 M16.680 12.425 C 15.048 12.633,13.642 13.604,12.934 15.012 C 12.257 16.359,12.224 17.865,12.844 19.196 C 13.406 20.403,14.473 21.355,15.714 21.757 C 16.258 21.933,16.570 21.980,17.200 21.980 C 17.533 21.980,17.899 21.956,18.060 21.925 C 19.807 21.578,21.198 20.363,21.757 18.695 C 22.647 16.038,20.997 13.138,18.240 12.516 C 17.907 12.441,16.981 12.387,16.680 12.425 M17.471 14.822 C 17.552 14.856,17.661 14.923,17.713 14.972 C 17.908 15.154,17.936 15.263,17.953 15.907 L 17.968 16.515 18.621 16.527 L 19.273 16.540 19.426 16.663 C 19.624 16.821,19.720 17.012,19.720 17.247 C 19.720 17.480,19.666 17.626,19.527 17.775 C 19.344 17.971,19.220 18.000,18.565 18.000 L 17.968 18.000 17.953 18.650 C 17.936 19.353,17.914 19.439,17.694 19.647 C 17.553 19.781,17.401 19.840,17.200 19.840 C 16.999 19.840,16.847 19.781,16.706 19.647 C 16.486 19.439,16.464 19.353,16.447 18.650 L 16.432 18.000 15.838 18.000 C 15.204 18.000,15.085 17.975,14.905 17.807 C 14.753 17.665,14.680 17.485,14.680 17.251 C 14.680 17.012,14.775 16.821,14.974 16.663 L 15.127 16.540 15.784 16.527 L 16.440 16.515 16.440 16.005 C 16.440 15.419,16.500 15.152,16.669 14.991 C 16.898 14.771,17.198 14.708,17.471 14.822 " fill="#292D32" stroke="none" fill-rule="evenodd"></path></svg>