<svg width="24" height="24" viewBox="0 0 24 24" fill="none" xmlns="http://www.w3.org/2000/svg"><path d="M6.920 3.181 C 6.887 3.188,6.725 3.215,6.560 3.241 C 5.892 3.349,5.017 3.711,4.402 4.135 C 4.238 4.248,3.945 4.491,3.750 4.676 C 2.532 5.834,1.932 7.376,2.015 9.134 C 2.069 10.259,2.230 11.131,2.580 12.180 C 3.203 14.049,4.181 15.582,5.759 17.162 C 7.042 18.447,8.309 19.380,9.856 20.181 C 10.504 20.516,11.326 20.853,11.496 20.853 C 11.637 20.853,11.760 20.717,11.760 20.561 C 11.760 20.501,11.663 20.247,11.544 19.996 C 11.035 18.920,10.829 17.840,10.923 16.740 C 10.999 15.866,11.190 15.188,11.582 14.413 C 11.913 13.757,12.211 13.349,12.760 12.800 C 13.308 12.252,13.716 11.954,14.373 11.621 C 16.409 10.590,18.835 10.740,20.758 12.016 C 21.270 12.355,21.387 12.326,21.541 11.822 C 21.834 10.860,21.972 9.921,21.976 8.860 C 21.978 8.273,21.961 8.013,21.904 7.720 C 21.674 6.545,21.179 5.613,20.342 4.779 C 19.691 4.130,19.034 3.717,18.213 3.442 C 17.638 3.249,17.342 3.198,16.660 3.173 C 15.393 3.127,14.387 3.411,13.320 4.115 C 13.004 4.324,12.284 4.990,12.086 5.255 L 12.000 5.371 11.912 5.255 C 11.863 5.192,11.696 5.007,11.542 4.845 C 10.732 3.998,9.604 3.407,8.440 3.221 C 8.114 3.169,7.116 3.143,6.920 3.181 M16.680 12.425 C 15.050 12.632,13.642 13.604,12.934 15.012 C 12.257 16.359,12.224 17.865,12.844 19.196 C 13.406 20.403,14.473 21.355,15.714 21.757 C 16.258 21.933,16.570 21.980,17.200 21.980 C 17.533 21.980,17.899 21.956,18.060 21.925 C 19.537 21.632,20.782 20.708,21.455 19.405 C 22.423 17.531,22.077 15.320,20.581 13.818 C 19.908 13.142,19.093 12.699,18.154 12.498 C 17.864 12.435,16.952 12.391,16.680 12.425 M16.300 15.351 C 16.366 15.384,16.601 15.588,16.822 15.805 L 17.223 16.199 17.602 15.815 C 18.142 15.268,18.382 15.179,18.782 15.379 C 19.116 15.547,19.259 15.872,19.160 16.242 C 19.121 16.386,19.032 16.501,18.697 16.842 L 18.281 17.263 18.623 17.602 C 19.170 18.144,19.292 18.379,19.202 18.714 C 19.113 19.042,18.811 19.280,18.484 19.280 C 18.222 19.280,18.119 19.215,17.659 18.758 L 17.219 18.320 16.799 18.744 C 16.365 19.184,16.159 19.318,15.920 19.318 C 15.610 19.318,15.285 19.070,15.202 18.769 C 15.101 18.407,15.168 18.266,15.703 17.721 L 16.158 17.256 15.754 16.858 C 15.335 16.444,15.202 16.237,15.202 16.000 C 15.202 15.707,15.459 15.352,15.713 15.296 C 15.772 15.284,15.838 15.267,15.860 15.260 C 15.929 15.237,16.174 15.288,16.300 15.351 " fill="#292D32" stroke="none" fill-rule="evenodd"></path></svg>