<svg width="24" height="24" viewBox="0 0 24 24" fill="none" xmlns="http://www.w3.org/2000/svg"><path d="M11.120 2.039 C 8.336 2.318,5.905 3.624,4.193 5.760 C 1.474 9.155,1.267 13.917,3.682 17.533 C 6.770 22.155,12.946 23.386,17.560 20.299 C 22.155 17.225,23.377 11.041,20.299 6.440 C 18.728 4.092,16.319 2.562,13.493 2.119 C 12.909 2.027,11.660 1.985,11.120 2.039 M10.378 7.542 C 10.883 7.679,11.376 7.979,11.767 8.390 L 11.993 8.627 12.333 8.297 C 12.601 8.036,12.750 7.929,13.046 7.782 C 13.503 7.556,13.752 7.486,14.220 7.455 C 14.748 7.419,15.191 7.511,15.718 7.767 C 16.086 7.945,16.181 8.014,16.500 8.335 C 16.911 8.748,17.131 9.120,17.287 9.662 C 17.365 9.931,17.379 10.070,17.376 10.560 C 17.372 11.475,17.192 12.237,16.781 13.075 C 16.043 14.578,14.614 15.950,12.983 16.722 C 12.058 17.160,11.862 17.153,10.860 16.650 C 9.610 16.021,8.427 14.991,7.680 13.880 C 6.979 12.837,6.629 11.737,6.624 10.560 C 6.621 10.070,6.635 9.931,6.713 9.662 C 6.869 9.120,7.089 8.748,7.500 8.335 C 7.819 8.014,7.914 7.945,8.282 7.767 C 8.811 7.510,9.156 7.436,9.720 7.460 C 9.951 7.470,10.247 7.507,10.378 7.542 " fill="#292D32" stroke="none" fill-rule="evenodd"></path></svg>