<svg width="24" height="24" viewBox="0 0 24 24" fill="none" xmlns="http://www.w3.org/2000/svg"><path d="M6.620 3.181 C 5.866 3.319,5.036 3.660,4.400 4.094 C 4.011 4.359,3.231 5.140,2.987 5.509 C 2.547 6.175,2.287 6.786,2.113 7.565 C 1.983 8.145,1.983 9.424,2.113 10.260 C 2.450 12.430,3.369 14.399,4.885 16.200 C 5.299 16.692,6.188 17.587,6.680 18.008 C 7.966 19.109,9.566 20.097,10.960 20.653 C 11.793 20.985,12.207 20.985,13.040 20.653 C 15.010 19.867,17.088 18.406,18.690 16.680 C 20.436 14.798,21.520 12.621,21.887 10.260 C 22.017 9.424,22.017 8.145,21.887 7.565 C 21.713 6.786,21.453 6.175,21.013 5.509 C 20.769 5.140,19.989 4.359,19.600 4.094 C 18.938 3.643,18.098 3.305,17.324 3.178 C 16.827 3.096,15.751 3.118,15.304 3.219 C 14.542 3.391,13.725 3.765,13.120 4.217 C 12.803 4.454,12.292 4.949,12.088 5.215 L 12.000 5.331 11.912 5.215 C 11.708 4.949,11.197 4.454,10.880 4.217 C 10.276 3.765,9.462 3.393,8.696 3.218 C 8.296 3.127,7.038 3.104,6.620 3.181 M14.322 8.764 C 14.648 8.938,15.061 9.350,15.240 9.681 C 15.366 9.915,15.379 9.971,15.380 10.260 C 15.380 10.838,15.422 10.785,13.184 13.033 C 11.759 14.465,11.167 15.033,11.028 15.105 C 10.883 15.179,10.664 15.227,10.131 15.302 C 9.744 15.356,9.348 15.400,9.252 15.400 C 8.901 15.400,8.654 15.200,8.611 14.882 C 8.580 14.653,8.794 13.216,8.891 13.000 C 8.952 12.863,9.438 12.353,10.916 10.875 C 13.153 8.637,13.225 8.581,13.804 8.614 C 14.008 8.625,14.124 8.659,14.322 8.764 " fill="#292D32" stroke="none" fill-rule="evenodd"></path></svg>