<svg width="24" height="24" viewBox="0 0 24 24" fill="none" xmlns="http://www.w3.org/2000/svg"><path d="M4.660 2.057 C 3.886 2.211,3.226 2.599,2.744 3.185 C 1.844 4.275,1.759 5.866,2.538 7.037 C 2.873 7.540,3.486 8.047,4.003 8.248 L 4.240 8.340 4.240 12.223 L 4.240 16.107 4.070 16.158 C 3.667 16.277,3.268 16.528,2.897 16.898 C 2.589 17.204,2.504 17.319,2.347 17.640 C 2.088 18.167,2.022 18.443,2.022 19.000 C 2.022 19.557,2.088 19.833,2.347 20.360 C 2.504 20.680,2.590 20.797,2.897 21.103 C 3.203 21.410,3.320 21.496,3.640 21.653 C 4.163 21.910,4.441 21.976,5.000 21.976 C 5.559 21.976,5.837 21.910,6.360 21.653 C 6.680 21.496,6.797 21.410,7.103 21.103 C 7.410 20.797,7.496 20.680,7.653 20.360 C 7.910 19.837,7.976 19.559,7.976 19.000 C 7.976 18.441,7.910 18.163,7.653 17.640 C 7.496 17.320,7.410 17.203,7.103 16.897 C 6.792 16.586,6.685 16.507,6.360 16.351 C 6.151 16.251,5.930 16.150,5.870 16.125 L 5.760 16.082 5.760 13.861 C 5.760 12.639,5.770 11.640,5.783 11.640 C 5.796 11.640,5.912 11.721,6.041 11.821 C 6.792 12.398,7.676 12.747,8.630 12.840 C 8.887 12.865,9.891 12.877,11.120 12.871 C 13.394 12.859,13.499 12.867,14.298 13.127 C 15.650 13.565,16.804 14.557,17.443 15.829 C 17.551 16.044,17.640 16.247,17.640 16.280 C 17.640 16.313,17.554 16.385,17.450 16.439 C 17.346 16.494,17.096 16.701,16.897 16.899 C 16.589 17.205,16.505 17.318,16.347 17.640 C 16.088 18.167,16.022 18.443,16.022 19.000 C 16.022 19.557,16.088 19.833,16.347 20.360 C 16.504 20.680,16.590 20.797,16.897 21.103 C 17.203 21.410,17.320 21.496,17.640 21.653 C 18.163 21.910,18.441 21.976,19.000 21.976 C 19.559 21.976,19.837 21.910,20.360 21.653 C 20.680 21.496,20.797 21.410,21.103 21.103 C 21.410 20.797,21.496 20.680,21.653 20.360 C 21.910 19.837,21.976 19.559,21.976 19.000 C 21.976 18.441,21.910 18.163,21.653 17.640 C 21.496 17.319,21.411 17.204,21.103 16.898 C 20.610 16.407,20.119 16.154,19.436 16.039 L 19.173 15.994 19.062 15.707 C 18.355 13.866,16.739 12.335,14.833 11.701 C 13.810 11.361,13.309 11.317,10.600 11.330 C 8.568 11.340,8.536 11.338,8.222 11.249 C 7.116 10.936,6.255 10.155,5.862 9.109 C 5.753 8.819,5.726 8.487,5.810 8.463 C 6.656 8.227,7.111 7.983,7.562 7.524 C 8.239 6.835,8.594 5.815,8.479 4.890 C 8.338 3.757,7.690 2.849,6.646 2.323 C 6.112 2.054,5.255 1.939,4.660 2.057 " fill="#292D32" stroke="none" fill-rule="evenodd"></path></svg>