<svg width="24" height="24" viewBox="0 0 24 24" fill="none" xmlns="http://www.w3.org/2000/svg"><path d="M6.960 2.046 C 6.236 2.116,5.358 2.357,4.796 2.641 C 4.426 2.828,3.928 3.183,3.624 3.475 C 2.737 4.332,2.251 5.370,2.062 6.812 C 1.970 7.515,1.969 16.481,2.061 17.188 C 2.239 18.550,2.681 19.544,3.476 20.372 C 4.162 21.084,4.935 21.524,5.956 21.780 C 6.817 21.997,6.896 22.000,11.993 22.000 C 14.960 22.000,16.828 21.985,17.041 21.959 C 19.985 21.603,21.695 19.840,21.962 16.885 C 21.990 16.579,21.999 14.787,21.989 11.660 C 21.974 7.001,21.972 6.891,21.889 6.456 C 21.642 5.171,21.165 4.235,20.369 3.478 C 19.583 2.729,18.652 2.295,17.359 2.076 C 16.995 2.014,7.572 1.987,6.960 2.046 M14.728 5.610 C 14.948 5.733,15.080 5.969,15.080 6.237 C 15.080 6.502,14.995 6.684,14.788 6.861 L 14.626 7.000 15.284 7.000 C 15.751 7.000,16.013 7.018,16.182 7.062 C 16.674 7.190,17.079 7.524,17.311 7.994 L 17.460 8.296 17.480 11.418 L 17.500 14.540 17.700 14.648 C 18.694 15.183,19.080 16.419,18.559 17.396 C 17.893 18.642,16.234 18.873,15.279 17.852 C 14.889 17.435,14.719 17.013,14.721 16.463 C 14.722 16.285,14.741 16.059,14.763 15.960 C 14.879 15.456,15.281 14.933,15.750 14.677 L 15.999 14.540 16.000 11.603 C 16.000 8.926,15.994 8.660,15.934 8.593 C 15.875 8.528,15.798 8.520,15.268 8.520 L 14.669 8.520 14.853 8.717 C 15.063 8.941,15.097 9.037,15.072 9.339 C 15.033 9.808,14.596 10.093,14.118 9.960 C 14.026 9.935,13.625 9.627,12.965 9.077 C 11.891 8.181,11.803 8.081,11.801 7.755 C 11.799 7.437,11.952 7.261,12.960 6.423 C 13.477 5.993,13.954 5.615,14.020 5.582 C 14.204 5.490,14.539 5.503,14.728 5.610 M8.338 6.079 C 8.738 6.182,9.040 6.356,9.342 6.658 C 10.213 7.528,10.212 8.868,9.340 9.741 C 9.156 9.925,8.974 10.063,8.811 10.141 L 8.561 10.260 8.561 12.407 L 8.560 14.554 8.749 14.647 C 9.021 14.781,9.446 15.196,9.593 15.472 C 10.001 16.238,9.897 17.150,9.329 17.800 C 8.525 18.719,7.075 18.719,6.271 17.800 C 5.389 16.791,5.680 15.256,6.870 14.640 L 7.040 14.552 7.039 12.406 L 7.039 10.260 6.789 10.141 C 6.449 9.978,6.022 9.548,5.848 9.191 C 5.600 8.685,5.545 8.186,5.679 7.662 C 5.782 7.262,5.956 6.960,6.258 6.658 C 6.555 6.361,6.861 6.182,7.246 6.081 C 7.627 5.982,7.953 5.981,8.338 6.079 " fill="#292D32" stroke="none" fill-rule="evenodd"></path></svg>