<svg width="24" height="24" viewBox="0 0 24 24" fill="none" xmlns="http://www.w3.org/2000/svg"><path d="M4.503 2.040 C 3.828 2.162,3.156 2.550,2.703 3.080 C 1.775 4.165,1.772 5.831,2.696 6.912 C 3.070 7.349,3.489 7.644,3.978 7.815 L 4.241 7.907 4.241 12.003 L 4.241 16.099 4.042 16.167 C 3.601 16.316,3.269 16.529,2.897 16.899 C 2.589 17.204,2.505 17.318,2.347 17.640 C 2.088 18.167,2.022 18.443,2.022 19.000 C 2.022 19.557,2.088 19.833,2.347 20.360 C 2.504 20.680,2.590 20.797,2.897 21.103 C 3.203 21.410,3.320 21.496,3.640 21.653 C 4.163 21.910,4.441 21.976,5.000 21.976 C 5.559 21.976,5.837 21.910,6.360 21.653 C 6.680 21.496,6.797 21.410,7.103 21.103 C 7.410 20.797,7.496 20.680,7.653 20.360 C 7.910 19.837,7.976 19.559,7.976 19.000 C 7.976 18.441,7.910 18.163,7.653 17.640 C 7.495 17.318,7.411 17.204,7.103 16.899 C 6.731 16.528,6.399 16.316,5.956 16.166 C 5.845 16.128,5.755 16.084,5.757 16.069 C 5.759 16.053,5.760 15.077,5.760 13.901 L 5.760 11.762 6.097 11.981 C 6.483 12.233,6.855 12.401,7.302 12.523 C 8.074 12.735,7.982 12.731,12.180 12.747 L 16.100 12.763 16.167 12.960 C 16.317 13.399,16.530 13.732,16.899 14.103 C 17.204 14.411,17.318 14.495,17.640 14.653 C 18.163 14.910,18.441 14.976,19.000 14.976 C 19.559 14.976,19.837 14.910,20.360 14.653 C 20.680 14.496,20.797 14.410,21.103 14.103 C 21.410 13.797,21.496 13.680,21.653 13.360 C 21.910 12.837,21.976 12.559,21.976 12.000 C 21.976 11.441,21.910 11.163,21.653 10.640 C 21.496 10.320,21.410 10.203,21.103 9.897 C 20.797 9.590,20.680 9.504,20.360 9.347 C 19.833 9.088,19.557 9.022,19.000 9.022 C 18.443 9.022,18.167 9.088,17.640 9.347 C 17.318 9.505,17.204 9.589,16.899 9.897 C 16.529 10.269,16.316 10.601,16.166 11.042 L 16.099 11.242 12.309 11.240 C 9.865 11.240,8.412 11.224,8.215 11.197 C 6.967 11.023,6.167 10.332,5.879 9.179 C 5.785 8.804,5.716 7.917,5.779 7.898 C 6.316 7.733,6.759 7.474,7.115 7.116 C 8.577 5.646,8.162 3.209,6.296 2.312 C 6.118 2.226,5.875 2.129,5.756 2.097 C 5.491 2.024,4.770 1.991,4.503 2.040 " fill="#292D32" stroke="none" fill-rule="evenodd"></path></svg>