<svg width="24" height="24" viewBox="0 0 24 24" fill="none" xmlns="http://www.w3.org/2000/svg"><path d="M4.440 2.058 C 3.799 2.196,3.368 2.430,2.897 2.899 C 2.589 3.204,2.505 3.318,2.347 3.640 C 2.088 4.167,2.022 4.443,2.022 5.000 C 2.022 5.557,2.088 5.833,2.347 6.360 C 2.504 6.680,2.590 6.797,2.897 7.103 C 3.202 7.409,3.320 7.496,3.640 7.654 C 3.985 7.824,4.287 7.918,4.683 7.979 C 4.818 8.000,4.831 8.017,4.937 8.290 C 5.090 8.689,5.404 9.273,5.683 9.680 C 6.676 11.124,8.238 12.160,9.967 12.519 C 10.610 12.653,11.284 12.682,13.420 12.671 C 15.432 12.661,15.464 12.662,15.778 12.751 C 16.886 13.065,17.745 13.845,18.140 14.896 C 18.209 15.080,18.240 15.232,18.232 15.351 L 18.220 15.529 17.889 15.625 C 16.582 16.001,15.689 17.051,15.521 18.410 C 15.428 19.164,15.639 19.969,16.100 20.621 C 17.189 22.157,19.366 22.452,20.812 21.259 C 22.057 20.233,22.357 18.479,21.529 17.067 C 21.228 16.553,20.538 15.962,19.992 15.750 L 19.760 15.660 19.760 11.777 L 19.760 7.893 19.930 7.842 C 20.333 7.723,20.732 7.472,21.103 7.102 C 21.411 6.796,21.496 6.681,21.653 6.360 C 21.910 5.837,21.976 5.559,21.976 5.000 C 21.976 4.441,21.910 4.163,21.653 3.640 C 21.496 3.320,21.410 3.203,21.103 2.897 C 20.797 2.590,20.680 2.504,20.360 2.347 C 19.833 2.088,19.557 2.022,19.000 2.022 C 18.443 2.022,18.167 2.088,17.640 2.347 C 17.320 2.504,17.203 2.590,16.897 2.897 C 16.590 3.203,16.504 3.320,16.347 3.640 C 16.088 4.167,16.022 4.443,16.022 5.000 C 16.022 5.557,16.088 5.833,16.347 6.360 C 16.504 6.680,16.590 6.797,16.897 7.103 C 17.208 7.414,17.315 7.493,17.640 7.649 C 17.849 7.749,18.070 7.850,18.130 7.875 L 18.240 7.918 18.240 10.139 C 18.240 11.361,18.232 12.360,18.223 12.360 C 18.213 12.360,18.077 12.264,17.921 12.146 C 17.339 11.708,16.694 11.407,15.964 11.231 C 15.642 11.154,15.455 11.147,13.080 11.120 C 10.706 11.094,10.518 11.087,10.200 11.010 C 9.473 10.833,8.784 10.518,8.191 10.091 C 7.798 9.808,7.197 9.192,6.933 8.799 C 6.722 8.486,6.360 7.799,6.360 7.711 C 6.360 7.683,6.446 7.615,6.550 7.561 C 6.655 7.506,6.904 7.299,7.103 7.101 C 7.411 6.795,7.495 6.682,7.653 6.360 C 7.910 5.837,7.976 5.559,7.976 5.000 C 7.976 4.441,7.910 4.163,7.653 3.640 C 7.496 3.320,7.410 3.203,7.103 2.897 C 6.797 2.590,6.680 2.504,6.360 2.347 C 6.151 2.244,5.872 2.132,5.740 2.098 C 5.403 2.009,4.759 1.990,4.440 2.058 " fill="#292D32" stroke="none" fill-rule="evenodd"></path></svg>