<svg width="24" height="24" viewBox="0 0 24 24" fill="none" xmlns="http://www.w3.org/2000/svg"><path d="M6.960 2.046 C 6.236 2.116,5.358 2.357,4.796 2.641 C 4.426 2.828,3.928 3.183,3.624 3.475 C 2.737 4.332,2.251 5.370,2.062 6.812 C 1.970 7.515,1.969 16.481,2.061 17.188 C 2.239 18.550,2.681 19.544,3.476 20.372 C 4.162 21.084,4.935 21.524,5.956 21.780 C 6.817 21.997,6.896 22.000,11.993 22.000 C 14.960 22.000,16.828 21.985,17.041 21.959 C 19.985 21.603,21.695 19.840,21.962 16.885 C 21.990 16.579,21.999 14.787,21.989 11.660 C 21.974 7.001,21.972 6.891,21.889 6.456 C 21.642 5.171,21.165 4.235,20.369 3.478 C 19.583 2.729,18.652 2.295,17.359 2.076 C 16.995 2.014,7.572 1.987,6.960 2.046 M8.292 5.820 C 9.208 6.058,9.840 6.867,9.840 7.800 C 9.840 8.525,9.408 9.257,8.790 9.580 L 8.560 9.700 8.560 10.702 L 8.560 11.704 8.863 11.556 C 9.435 11.277,9.517 11.266,11.300 11.239 C 12.684 11.217,12.930 11.204,13.120 11.143 C 13.856 10.903,14.461 10.391,14.820 9.704 L 14.955 9.444 14.728 9.211 C 14.488 8.966,14.274 8.586,14.203 8.280 C 14.134 7.980,14.151 7.477,14.239 7.191 C 14.399 6.675,14.804 6.205,15.297 5.966 C 16.542 5.362,18.009 6.141,18.209 7.514 C 18.360 8.550,17.690 9.541,16.682 9.776 C 16.545 9.809,16.427 9.840,16.421 9.847 C 16.415 9.854,16.345 10.002,16.265 10.175 C 15.954 10.854,15.410 11.520,14.833 11.933 C 14.492 12.175,13.904 12.454,13.467 12.578 C 12.941 12.729,12.367 12.769,11.220 12.738 C 10.514 12.719,10.144 12.725,9.963 12.759 C 9.353 12.871,8.860 13.281,8.641 13.857 C 8.608 13.944,8.627 13.961,8.903 14.098 C 9.442 14.364,9.846 14.826,10.042 15.400 C 10.162 15.753,10.163 16.345,10.044 16.723 C 9.894 17.199,9.476 17.717,9.040 17.969 C 8.577 18.236,7.876 18.325,7.377 18.181 C 6.599 17.957,5.959 17.284,5.804 16.528 C 5.621 15.639,5.990 14.738,6.734 14.255 L 7.035 14.060 7.037 11.880 L 7.040 9.700 6.810 9.580 C 6.684 9.514,6.481 9.361,6.360 9.239 C 5.247 8.125,5.763 6.233,7.291 5.822 C 7.568 5.747,8.009 5.746,8.292 5.820 " fill="#292D32" stroke="none" fill-rule="evenodd"></path></svg>