<svg width="24" height="24" viewBox="0 0 24 24" fill="none" xmlns="http://www.w3.org/2000/svg"><path d="M6.960 2.046 C 6.236 2.116,5.358 2.357,4.796 2.641 C 4.426 2.828,3.928 3.183,3.624 3.475 C 2.737 4.332,2.251 5.370,2.062 6.812 C 1.970 7.515,1.969 16.481,2.061 17.188 C 2.239 18.550,2.681 19.544,3.476 20.372 C 4.162 21.084,4.935 21.524,5.956 21.780 C 6.817 21.997,6.896 22.000,11.993 22.000 C 14.960 22.000,16.828 21.985,17.041 21.959 C 19.985 21.603,21.695 19.840,21.962 16.885 C 21.990 16.579,21.999 14.787,21.989 11.660 C 21.974 7.001,21.972 6.891,21.889 6.456 C 21.642 5.171,21.165 4.235,20.369 3.478 C 19.583 2.729,18.652 2.295,17.359 2.076 C 16.995 2.014,7.572 1.987,6.960 2.046 M8.470 5.820 C 9.311 6.018,9.994 6.759,10.127 7.616 C 10.270 8.538,9.787 9.472,8.944 9.899 C 8.658 10.044,8.637 10.064,8.660 10.158 C 8.727 10.431,9.022 10.809,9.313 10.995 C 9.717 11.255,9.710 11.254,11.440 11.281 C 12.976 11.305,13.031 11.309,13.408 11.410 C 14.339 11.660,15.209 12.235,15.757 12.963 C 15.893 13.143,16.104 13.495,16.227 13.745 C 16.406 14.111,16.466 14.200,16.535 14.201 C 16.709 14.203,17.166 14.397,17.418 14.577 C 17.709 14.785,17.985 15.139,18.122 15.481 C 18.230 15.750,18.271 16.328,18.204 16.639 C 17.956 17.794,16.720 18.506,15.588 18.146 C 14.135 17.685,13.679 15.862,14.746 14.786 L 14.964 14.566 14.846 14.333 C 14.567 13.780,14.119 13.321,13.606 13.063 C 13.062 12.789,13.065 12.790,11.260 12.761 L 9.620 12.734 9.300 12.625 C 9.124 12.564,8.886 12.464,8.770 12.401 L 8.560 12.288 8.560 13.294 L 8.560 14.300 8.780 14.415 C 9.814 14.955,10.166 16.316,9.528 17.303 C 8.669 18.631,6.685 18.524,5.987 17.112 C 5.499 16.123,5.848 14.990,6.816 14.424 L 7.080 14.269 7.080 12.119 L 7.080 9.968 6.859 9.843 C 6.323 9.541,5.888 8.897,5.792 8.267 C 5.687 7.575,5.906 6.927,6.416 6.416 C 6.975 5.856,7.714 5.642,8.470 5.820 " fill="#292D32" stroke="none" fill-rule="evenodd"></path></svg>