<svg width="24" height="24" viewBox="0 0 24 24" fill="none" xmlns="http://www.w3.org/2000/svg"><path d="M11.040 2.042 C 10.389 2.124,9.687 2.362,9.190 2.669 C 8.738 2.949,3.748 6.850,3.420 7.179 C 2.933 7.669,2.469 8.459,2.221 9.219 C 2.003 9.889,2.000 9.954,2.000 13.920 C 2.000 16.344,2.015 17.702,2.044 17.940 C 2.272 19.798,3.639 21.371,5.435 21.841 C 6.039 22.000,6.270 22.005,12.260 21.991 C 18.598 21.976,18.098 21.994,18.840 21.754 C 20.528 21.209,21.784 19.623,21.959 17.816 C 22.013 17.261,22.012 10.700,21.957 10.213 C 21.837 9.132,21.275 7.994,20.476 7.209 C 20.142 6.882,14.191 2.708,13.741 2.486 C 13.398 2.317,12.892 2.152,12.500 2.082 C 12.153 2.019,11.388 1.999,11.040 2.042 M14.077 8.579 C 15.188 8.813,16.163 9.605,16.596 10.625 C 16.863 11.253,16.860 11.222,16.860 13.380 C 16.860 15.581,16.860 15.578,16.556 16.234 C 16.362 16.654,16.120 16.992,15.795 17.302 C 15.470 17.612,15.238 17.769,14.812 17.968 C 14.199 18.255,13.988 18.279,12.020 18.279 C 11.018 18.279,10.191 18.262,10.040 18.238 C 9.371 18.130,8.672 17.778,8.183 17.300 C 7.734 16.862,7.468 16.432,7.255 15.800 L 7.140 15.460 7.140 13.400 L 7.140 11.340 7.254 11.000 C 7.676 9.735,8.627 8.866,9.900 8.580 C 10.266 8.498,13.687 8.497,14.077 8.579 M10.088 9.982 C 9.710 10.084,9.433 10.247,9.140 10.540 C 8.679 11.001,8.520 11.428,8.520 12.208 L 8.520 12.680 9.900 12.680 L 11.280 12.680 11.280 11.300 L 11.280 9.920 10.790 9.923 C 10.500 9.924,10.214 9.949,10.088 9.982 M12.720 11.300 L 12.720 12.680 14.100 12.680 L 15.480 12.680 15.480 12.208 C 15.480 11.448,15.307 10.980,14.864 10.536 C 14.420 10.093,13.952 9.920,13.192 9.920 L 12.720 9.920 12.720 11.300 M8.520 14.572 C 8.520 14.884,8.542 15.149,8.581 15.298 C 8.732 15.878,9.160 16.402,9.688 16.654 C 10.046 16.826,10.331 16.880,10.867 16.880 L 11.280 16.880 11.280 15.480 L 11.280 14.080 9.900 14.080 L 8.520 14.080 8.520 14.572 M12.707 14.107 C 12.692 14.121,12.680 14.751,12.680 15.507 L 12.680 16.880 13.150 16.879 C 13.945 16.878,14.409 16.711,14.865 16.260 C 15.311 15.819,15.480 15.354,15.480 14.572 L 15.480 14.080 14.107 14.080 C 13.351 14.080,12.721 14.092,12.707 14.107 " fill="#292D32" stroke="none" fill-rule="evenodd"></path></svg>