<svg width="24" height="24" viewBox="0 0 24 24" fill="none" xmlns="http://www.w3.org/2000/svg"><path d="M11.064 2.042 C 10.390 2.121,9.796 2.313,9.247 2.631 C 8.786 2.898,3.654 6.910,3.340 7.250 C 2.731 7.906,2.246 8.870,2.059 9.792 C 2.005 10.061,1.999 10.607,2.010 14.120 C 2.023 18.073,2.025 18.145,2.108 18.440 C 2.287 19.073,2.485 19.514,2.801 19.980 C 3.354 20.797,4.205 21.442,5.143 21.757 C 5.897 22.009,5.639 22.000,12.000 22.000 C 17.046 22.000,17.835 21.992,18.145 21.938 C 19.851 21.640,21.229 20.458,21.776 18.822 C 22.000 18.151,22.000 18.157,21.999 14.005 C 21.998 10.405,21.994 10.160,21.923 9.840 C 21.770 9.151,21.514 8.555,21.114 7.957 C 20.646 7.258,20.532 7.167,17.280 4.892 C 15.641 3.745,14.177 2.732,14.026 2.641 C 13.207 2.143,12.107 1.921,11.064 2.042 M16.582 10.981 C 16.880 11.222,16.884 11.240,16.871 12.503 L 16.860 13.626 16.754 13.787 C 16.389 14.338,15.553 14.106,15.489 13.435 L 15.469 13.232 14.045 14.653 C 12.771 15.923,12.601 16.079,12.442 16.121 C 12.235 16.175,12.037 16.132,11.862 15.995 C 11.803 15.948,11.519 15.556,11.231 15.125 C 10.944 14.693,10.702 14.332,10.693 14.322 C 10.684 14.312,10.115 14.864,9.428 15.550 C 8.742 16.235,8.129 16.815,8.067 16.838 C 7.742 16.959,7.371 16.823,7.213 16.524 C 7.105 16.319,7.095 16.137,7.181 15.929 C 7.266 15.724,10.276 12.702,10.500 12.597 C 10.707 12.500,10.894 12.501,11.098 12.599 C 11.237 12.666,11.340 12.796,11.813 13.499 C 12.117 13.950,12.378 14.320,12.393 14.320 C 12.408 14.320,12.888 13.852,13.460 13.280 L 14.499 12.240 14.338 12.240 C 14.250 12.240,14.097 12.200,13.999 12.150 C 13.516 11.906,13.517 11.186,14.000 10.931 C 14.179 10.836,14.186 10.836,15.306 10.848 L 16.433 10.860 16.582 10.981 " fill="#292D32" stroke="none" fill-rule="evenodd"></path></svg>