<svg width="24" height="24" viewBox="0 0 24 24" fill="none" xmlns="http://www.w3.org/2000/svg"><path d="M11.260 2.264 C 11.106 2.298,10.818 2.403,10.620 2.497 C 10.300 2.649,9.855 2.992,6.640 5.566 C 4.563 7.229,2.931 8.564,2.811 8.699 C 2.346 9.222,1.999 10.143,2.001 10.853 C 2.002 11.313,3.363 19.381,3.503 19.755 C 3.856 20.701,4.719 21.460,5.736 21.719 C 6.047 21.798,6.168 21.800,12.000 21.800 C 17.839 21.800,17.953 21.799,18.264 21.719 C 19.258 21.465,20.103 20.729,20.478 19.790 C 20.574 19.550,20.714 18.793,21.285 15.420 C 21.915 11.701,21.976 11.298,21.976 10.860 C 21.976 10.478,21.957 10.315,21.884 10.060 C 21.706 9.442,21.378 8.860,21.014 8.514 C 20.660 8.178,13.758 2.701,13.521 2.568 C 13.092 2.327,12.704 2.233,12.080 2.216 C 11.693 2.206,11.461 2.219,11.260 2.264 M13.297 9.837 C 13.920 9.981,14.324 10.129,14.920 10.428 C 15.555 10.747,16.052 11.085,16.531 11.522 C 16.893 11.854,16.971 11.985,16.971 12.260 C 16.971 12.681,16.655 13.000,16.236 13.000 C 16.004 13.000,15.855 12.922,15.520 12.622 C 14.770 11.953,13.886 11.496,12.952 11.295 C 12.493 11.196,11.507 11.196,11.048 11.295 C 10.114 11.496,9.230 11.953,8.480 12.622 C 8.135 12.930,7.997 13.000,7.735 13.000 C 7.272 13.000,6.921 12.531,7.040 12.073 C 7.138 11.700,8.237 10.812,9.137 10.381 C 9.663 10.128,10.078 9.982,10.603 9.866 C 11.229 9.727,11.237 9.726,12.140 9.741 C 12.774 9.751,13.014 9.771,13.297 9.837 M12.868 12.842 C 13.422 12.982,14.053 13.327,14.512 13.740 C 14.774 13.976,14.851 14.122,14.851 14.380 C 14.851 14.800,14.535 15.120,14.120 15.120 C 13.899 15.120,13.778 15.064,13.482 14.823 C 12.964 14.402,12.552 14.240,12.000 14.240 C 11.441 14.240,11.010 14.411,10.482 14.841 C 10.307 14.984,10.136 15.088,10.053 15.104 C 9.415 15.224,8.928 14.621,9.203 14.053 C 9.383 13.681,10.398 13.020,11.033 12.860 C 11.655 12.703,12.299 12.697,12.868 12.842 M12.400 15.603 C 12.790 15.780,12.978 16.071,12.978 16.500 C 12.978 16.829,12.888 17.034,12.655 17.239 C 12.451 17.418,12.260 17.492,12.000 17.491 C 11.700 17.490,11.472 17.387,11.267 17.160 C 10.809 16.650,10.959 15.909,11.580 15.615 C 11.835 15.495,12.150 15.490,12.400 15.603 " fill="#292D32" stroke="none" fill-rule="evenodd"></path></svg>