<svg width="24" height="24" viewBox="0 0 24 24" fill="none" xmlns="http://www.w3.org/2000/svg"><path d="M11.064 2.042 C 10.390 2.121,9.796 2.313,9.247 2.631 C 8.786 2.898,3.654 6.910,3.340 7.250 C 2.731 7.906,2.246 8.870,2.059 9.792 C 2.005 10.061,1.999 10.607,2.010 14.120 C 2.023 18.073,2.025 18.145,2.108 18.440 C 2.287 19.073,2.485 19.514,2.801 19.980 C 3.354 20.797,4.205 21.442,5.143 21.757 C 5.897 22.009,5.639 22.000,12.000 22.000 C 17.046 22.000,17.835 21.992,18.145 21.938 C 19.851 21.640,21.229 20.458,21.776 18.822 C 22.000 18.151,22.000 18.157,21.999 14.005 C 21.998 10.405,21.994 10.160,21.923 9.840 C 21.770 9.151,21.514 8.555,21.114 7.957 C 20.646 7.258,20.532 7.167,17.280 4.892 C 15.641 3.745,14.177 2.732,14.026 2.641 C 13.207 2.143,12.107 1.921,11.064 2.042 M8.071 10.901 C 8.171 10.943,8.627 11.369,9.449 12.190 C 10.207 12.947,10.692 13.403,10.714 13.379 C 10.733 13.357,10.984 12.989,11.270 12.560 C 11.688 11.934,11.823 11.762,11.951 11.690 C 12.135 11.586,12.381 11.573,12.571 11.656 C 12.643 11.687,13.316 12.329,14.080 13.096 C 14.839 13.857,15.471 14.480,15.485 14.480 C 15.499 14.480,15.518 14.384,15.528 14.266 C 15.549 14.008,15.665 13.830,15.882 13.719 C 16.184 13.565,16.573 13.657,16.767 13.929 C 16.858 14.058,16.860 14.079,16.872 15.194 C 16.883 16.283,16.880 16.334,16.798 16.504 C 16.740 16.624,16.657 16.714,16.540 16.782 L 16.367 16.883 15.206 16.872 C 14.106 16.861,14.040 16.856,13.935 16.778 C 13.733 16.627,13.665 16.496,13.648 16.230 C 13.635 16.018,13.647 15.959,13.727 15.841 C 13.860 15.646,14.046 15.532,14.286 15.499 L 14.490 15.471 13.456 14.436 C 12.886 13.866,12.410 13.400,12.397 13.400 C 12.385 13.400,12.129 13.766,11.829 14.214 C 11.530 14.662,11.234 15.061,11.172 15.102 C 11.020 15.202,10.648 15.227,10.496 15.147 C 10.432 15.114,9.657 14.360,8.773 13.473 C 7.361 12.056,7.163 11.842,7.138 11.708 C 7.097 11.484,7.142 11.285,7.271 11.123 C 7.484 10.857,7.771 10.777,8.071 10.901 " fill="#292D32" stroke="none" fill-rule="evenodd"></path></svg>