<svg width="24" height="24" viewBox="0 0 24 24" fill="none" xmlns="http://www.w3.org/2000/svg"><path d="M11.260 2.264 C 11.106 2.298,10.818 2.403,10.620 2.497 C 10.300 2.649,9.855 2.992,6.640 5.566 C 4.563 7.229,2.931 8.564,2.811 8.699 C 2.346 9.222,1.999 10.143,2.001 10.853 C 2.002 11.313,3.363 19.381,3.503 19.755 C 3.856 20.701,4.719 21.460,5.736 21.719 C 6.047 21.798,6.168 21.800,12.000 21.800 C 17.839 21.800,17.953 21.799,18.264 21.719 C 19.258 21.465,20.103 20.729,20.478 19.790 C 20.574 19.550,20.714 18.793,21.285 15.420 C 21.915 11.701,21.976 11.298,21.976 10.860 C 21.976 10.478,21.957 10.315,21.884 10.060 C 21.706 9.442,21.378 8.860,21.014 8.514 C 20.660 8.178,13.758 2.701,13.521 2.568 C 13.092 2.327,12.704 2.233,12.080 2.216 C 11.693 2.206,11.461 2.219,11.260 2.264 M12.592 10.581 C 13.478 10.790,14.211 11.523,14.420 12.410 C 14.496 12.732,14.495 13.270,14.419 13.595 C 14.278 14.194,13.799 14.842,13.265 15.157 C 12.593 15.554,11.660 15.597,10.940 15.264 C 10.290 14.963,9.769 14.328,9.583 13.611 C 9.502 13.299,9.502 12.702,9.583 12.386 C 9.809 11.505,10.523 10.792,11.389 10.583 C 11.697 10.508,12.280 10.507,12.592 10.581 " fill="#292D32" stroke="none" fill-rule="evenodd"></path></svg>