<svg width="24" height="24" viewBox="0 0 24 24" fill="none" xmlns="http://www.w3.org/2000/svg"><path d="M11.064 2.042 C 10.390 2.121,9.796 2.313,9.247 2.631 C 8.786 2.898,3.654 6.910,3.340 7.250 C 2.731 7.906,2.246 8.870,2.059 9.792 C 2.005 10.061,1.999 10.607,2.010 14.120 C 2.023 18.073,2.025 18.145,2.108 18.440 C 2.287 19.073,2.485 19.514,2.801 19.980 C 3.354 20.797,4.205 21.442,5.143 21.757 C 5.897 22.009,5.639 22.000,12.000 22.000 C 17.046 22.000,17.835 21.992,18.145 21.938 C 19.851 21.640,21.229 20.458,21.776 18.822 C 22.000 18.151,22.000 18.157,21.999 14.005 C 21.998 10.405,21.994 10.160,21.923 9.840 C 21.770 9.151,21.514 8.555,21.114 7.957 C 20.646 7.258,20.532 7.167,17.280 4.892 C 15.641 3.745,14.177 2.732,14.026 2.641 C 13.207 2.143,12.107 1.921,11.064 2.042 M12.367 14.365 C 12.547 14.455,12.661 14.610,12.720 14.843 C 12.750 14.963,12.760 15.539,12.752 16.627 L 12.740 18.233 12.619 18.405 C 12.453 18.642,12.273 18.739,12.000 18.739 C 11.727 18.739,11.547 18.642,11.381 18.405 L 11.260 18.233 11.248 16.627 C 11.240 15.539,11.250 14.963,11.280 14.843 C 11.337 14.619,11.451 14.457,11.613 14.373 C 11.883 14.232,12.097 14.230,12.367 14.365 " fill="#292D32" stroke="none" fill-rule="evenodd"></path></svg>