<svg width="24" height="24" viewBox="0 0 24 24" fill="none" xmlns="http://www.w3.org/2000/svg"><path d="M6.460 2.026 C 5.618 2.130,5.233 2.235,4.760 2.487 C 4.266 2.750,3.992 2.995,3.673 3.455 C 3.344 3.930,3.122 4.590,3.042 5.328 C 3.014 5.586,3.000 8.332,3.000 13.475 L 3.000 21.233 2.410 21.246 C 1.906 21.258,1.797 21.272,1.660 21.344 C 1.139 21.616,1.121 22.330,1.627 22.645 L 1.780 22.740 12.000 22.740 L 22.220 22.740 22.373 22.645 C 22.747 22.412,22.859 21.935,22.619 21.596 C 22.418 21.311,22.274 21.262,21.590 21.246 L 21.000 21.233 21.000 13.391 C 21.000 6.487,20.993 5.500,20.937 5.129 C 20.714 3.627,19.960 2.667,18.670 2.242 C 17.984 2.017,18.252 2.026,12.180 2.018 C 9.100 2.014,6.526 2.017,6.460 2.026 M12.271 5.302 C 12.468 5.384,12.595 5.506,12.684 5.700 C 12.750 5.841,12.758 5.972,12.759 6.810 L 12.760 7.760 13.722 7.760 C 14.730 7.760,14.805 7.771,15.014 7.955 C 15.140 8.065,15.240 8.307,15.240 8.500 C 15.240 8.693,15.140 8.935,15.014 9.045 C 14.805 9.229,14.730 9.240,13.722 9.240 L 12.760 9.240 12.760 10.150 C 12.760 10.653,12.741 11.127,12.718 11.209 C 12.602 11.628,12.125 11.864,11.729 11.698 C 11.532 11.616,11.405 11.494,11.316 11.300 C 11.250 11.159,11.242 11.028,11.241 10.190 L 11.240 9.240 10.278 9.240 C 9.270 9.240,9.195 9.229,8.986 9.045 C 8.776 8.861,8.697 8.441,8.825 8.188 C 8.917 8.006,8.999 7.922,9.168 7.836 C 9.302 7.768,9.414 7.760,10.278 7.760 L 11.240 7.760 11.240 6.819 C 11.240 5.813,11.259 5.695,11.452 5.485 C 11.568 5.359,11.827 5.242,11.991 5.241 C 12.063 5.240,12.189 5.268,12.271 5.302 M14.462 15.095 C 14.677 15.195,14.859 15.380,14.946 15.589 C 14.990 15.692,15.000 16.252,15.000 18.479 L 15.000 21.240 12.000 21.240 L 9.000 21.240 9.000 18.499 C 9.000 15.525,8.992 15.635,9.220 15.336 C 9.274 15.266,9.412 15.161,9.527 15.104 L 9.736 15.000 11.998 15.000 L 14.260 15.001 14.462 15.095 " fill="#292D32" stroke="none" fill-rule="evenodd"></path></svg>