<svg width="24" height="24" viewBox="0 0 24 24" fill="none" xmlns="http://www.w3.org/2000/svg"><path d="M11.736 2.560 C 11.473 2.599,11.261 2.667,11.054 2.780 C 10.962 2.829,9.240 4.151,7.226 5.716 C 4.545 7.801,3.527 8.614,3.423 8.755 C 3.222 9.030,3.092 9.332,3.043 9.637 C 3.016 9.807,2.992 11.912,2.975 15.570 L 2.950 21.240 2.473 21.240 C 1.870 21.240,1.672 21.288,1.478 21.482 C 1.137 21.823,1.220 22.403,1.642 22.640 L 1.820 22.740 12.000 22.740 L 22.180 22.740 22.358 22.640 C 22.780 22.403,22.863 21.823,22.522 21.482 C 22.327 21.287,22.130 21.240,21.502 21.240 L 21.000 21.240 20.999 15.510 C 20.999 9.340,21.005 9.524,20.795 9.109 C 20.578 8.678,20.508 8.619,16.774 5.716 C 14.760 4.151,13.038 2.829,12.946 2.778 C 12.619 2.597,12.109 2.505,11.736 2.560 M13.832 6.836 C 14.094 6.969,14.240 7.208,14.240 7.500 C 14.240 7.792,14.094 8.031,13.832 8.164 C 13.693 8.235,13.573 8.240,12.000 8.240 C 10.427 8.240,10.307 8.235,10.168 8.164 C 9.999 8.078,9.917 7.994,9.825 7.812 C 9.697 7.559,9.776 7.139,9.986 6.955 C 10.206 6.762,10.197 6.763,11.992 6.762 C 13.574 6.760,13.693 6.765,13.832 6.836 M15.971 11.083 C 16.382 11.221,16.675 11.489,16.871 11.906 L 16.980 12.140 16.991 16.690 L 17.001 21.240 12.001 21.240 L 7.000 21.240 7.000 16.759 C 7.000 12.326,7.001 12.275,7.083 12.029 C 7.232 11.586,7.579 11.235,8.020 11.085 C 8.255 11.004,8.337 11.003,11.991 11.001 C 15.666 11.000,15.726 11.001,15.971 11.083 M9.633 15.610 C 9.282 15.825,9.240 15.973,9.240 17.000 C 9.240 18.034,9.287 18.197,9.647 18.399 C 10.013 18.605,10.463 18.459,10.656 18.073 C 10.758 17.868,10.760 17.850,10.760 17.000 C 10.760 16.150,10.758 16.132,10.656 15.927 C 10.520 15.654,10.303 15.520,9.996 15.520 C 9.843 15.520,9.737 15.546,9.633 15.610 " fill="#292D32" stroke="none" fill-rule="evenodd"></path></svg>