<svg width="24" height="24" viewBox="0 0 24 24" fill="none" xmlns="http://www.w3.org/2000/svg"><path d="M11.666 2.564 C 11.537 2.583,11.311 2.657,11.164 2.729 C 10.866 2.875,3.891 8.265,3.540 8.621 C 3.430 8.733,3.291 8.925,3.230 9.049 C 2.988 9.545,3.001 9.219,2.973 15.486 L 2.947 21.232 2.360 21.246 C 1.797 21.260,1.767 21.265,1.605 21.372 C 1.410 21.501,1.295 21.671,1.260 21.883 C 1.203 22.218,1.453 22.611,1.786 22.711 C 2.024 22.782,21.976 22.782,22.214 22.711 C 22.547 22.611,22.797 22.218,22.740 21.883 C 22.705 21.671,22.590 21.501,22.394 21.372 C 22.231 21.264,22.205 21.260,21.613 21.246 L 21.000 21.231 21.000 15.484 C 21.000 9.150,21.015 9.528,20.750 9.023 C 20.595 8.728,20.323 8.464,19.580 7.889 L 19.020 7.456 19.000 6.118 C 18.982 4.944,18.971 4.760,18.908 4.620 C 18.817 4.419,18.627 4.218,18.420 4.106 C 18.264 4.022,18.211 4.019,16.400 4.000 L 14.540 3.980 13.800 3.404 C 12.997 2.778,12.718 2.623,12.291 2.561 C 11.987 2.517,11.989 2.517,11.666 2.564 M9.783 10.299 C 10.039 10.375,10.258 10.560,10.381 10.803 C 10.478 10.994,10.480 11.014,10.480 12.000 C 10.480 12.986,10.478 13.006,10.381 13.197 C 10.258 13.440,10.039 13.625,9.783 13.701 C 9.498 13.786,7.502 13.786,7.217 13.701 C 6.961 13.625,6.742 13.440,6.619 13.197 C 6.522 13.006,6.520 12.986,6.520 12.000 C 6.520 11.014,6.522 10.994,6.619 10.803 C 6.738 10.566,6.959 10.376,7.200 10.301 C 7.466 10.219,9.507 10.217,9.783 10.299 M16.783 10.299 C 17.039 10.375,17.258 10.560,17.381 10.803 C 17.478 10.994,17.480 11.014,17.480 11.989 C 17.479 12.946,17.476 12.987,17.385 13.183 C 17.270 13.430,17.046 13.623,16.783 13.701 C 16.498 13.786,14.502 13.786,14.217 13.701 C 13.961 13.625,13.742 13.440,13.619 13.197 C 13.522 13.006,13.520 12.986,13.520 12.000 C 13.520 11.014,13.522 10.994,13.619 10.803 C 13.738 10.566,13.959 10.376,14.200 10.301 C 14.466 10.219,16.507 10.217,16.783 10.299 M13.403 17.064 C 13.822 17.186,14.138 17.448,14.350 17.851 L 14.460 18.060 14.472 19.650 L 14.483 21.240 12.000 21.240 L 9.517 21.240 9.528 19.650 L 9.540 18.060 9.648 17.856 C 9.858 17.457,10.151 17.206,10.556 17.076 C 10.873 16.974,13.066 16.965,13.403 17.064 " fill="#292D32" stroke="none" fill-rule="evenodd"></path></svg>