<svg width="24" height="24" viewBox="0 0 24 24" fill="none" xmlns="http://www.w3.org/2000/svg"><path d="M6.256 1.699 C 5.245 1.919,4.394 2.595,3.939 3.538 C 3.674 4.089,3.623 4.322,3.623 5.000 C 3.623 5.679,3.674 5.911,3.941 6.466 C 4.168 6.937,4.508 7.362,4.883 7.645 C 5.290 7.953,5.478 8.054,5.920 8.204 C 6.254 8.317,6.366 8.335,6.840 8.351 C 7.294 8.366,7.436 8.355,7.732 8.285 C 8.976 7.988,9.912 7.069,10.244 5.820 C 10.362 5.374,10.362 4.631,10.243 4.180 C 9.911 2.919,8.916 1.961,7.671 1.704 C 7.301 1.627,6.598 1.625,6.256 1.699 M15.885 7.423 C 15.339 7.570,14.713 8.052,14.274 8.665 C 14.149 8.838,13.576 9.826,12.999 10.860 C 12.422 11.894,11.890 12.832,11.815 12.944 C 11.416 13.546,10.703 13.932,10.125 13.860 C 9.593 13.793,9.128 13.513,8.705 13.004 C 7.909 12.047,7.430 11.678,6.746 11.496 C 6.462 11.420,5.827 11.424,5.557 11.504 C 4.976 11.675,4.406 12.117,4.024 12.694 C 3.773 13.073,1.980 16.643,1.827 17.068 C 1.495 17.990,1.532 19.069,1.928 19.980 C 2.206 20.621,2.739 21.263,3.332 21.673 C 3.693 21.922,4.021 22.077,4.509 22.230 L 4.860 22.340 11.810 22.351 C 18.520 22.361,18.773 22.359,19.135 22.285 C 21.131 21.877,22.547 19.964,22.321 17.981 C 22.293 17.742,22.221 17.418,22.141 17.180 C 21.951 16.614,18.789 9.239,18.591 8.900 C 18.119 8.095,17.540 7.588,16.898 7.421 C 16.608 7.346,16.170 7.346,15.885 7.423 " fill="#292D32" stroke="none" fill-rule="evenodd"></path></svg>