<svg width="24" height="24" viewBox="0 0 24 24" fill="none" xmlns="http://www.w3.org/2000/svg"><path d="M11.686 3.283 C 11.509 3.354,11.358 3.487,11.279 3.642 C 11.202 3.792,11.200 3.887,11.200 6.838 L 11.200 9.880 11.940 9.880 L 12.680 9.880 12.679 6.870 C 12.678 4.029,12.674 3.851,12.604 3.700 C 12.439 3.343,12.016 3.150,11.686 3.283 M2.500 9.976 C 2.329 10.051,2.161 10.232,2.068 10.439 C 1.995 10.603,1.990 10.672,2.014 11.259 C 2.191 15.655,4.709 19.051,8.704 20.281 C 9.793 20.617,10.663 20.737,12.000 20.737 C 13.103 20.737,13.621 20.686,14.476 20.495 C 17.197 19.887,19.334 18.355,20.656 16.065 C 21.453 14.684,21.915 13.015,21.986 11.259 C 22.010 10.672,22.005 10.603,21.932 10.439 C 21.837 10.227,21.669 10.050,21.491 9.974 C 21.385 9.930,20.592 9.920,17.021 9.920 L 12.680 9.920 12.680 11.750 L 12.680 13.579 13.530 12.732 C 13.998 12.265,14.431 11.865,14.493 11.842 C 14.638 11.788,14.924 11.788,15.067 11.843 C 15.449 11.987,15.626 12.476,15.437 12.866 C 15.324 13.099,12.448 15.942,12.221 16.045 C 12.023 16.135,11.844 16.139,11.649 16.059 C 11.481 15.989,8.519 13.064,8.412 12.861 C 8.331 12.709,8.330 12.373,8.411 12.219 C 8.492 12.064,8.671 11.896,8.813 11.843 C 8.988 11.776,9.268 11.792,9.432 11.877 C 9.513 11.920,9.931 12.307,10.360 12.737 C 10.788 13.168,11.153 13.520,11.170 13.520 C 11.186 13.520,11.200 12.710,11.200 11.720 L 11.200 9.920 6.910 9.922 C 3.443 9.923,2.597 9.933,2.500 9.976 " fill="#292D32" stroke="none" fill-rule="evenodd"></path></svg>