<svg width="24" height="24" viewBox="0 0 24 24" fill="none" xmlns="http://www.w3.org/2000/svg"><path d="M11.695 2.077 C 11.502 2.164,11.345 2.356,11.284 2.580 C 11.254 2.689,11.240 3.731,11.240 5.870 L 11.240 9.000 9.050 9.001 C 7.845 9.001,6.693 9.019,6.490 9.040 C 5.168 9.180,4.146 9.646,3.352 10.473 C 2.705 11.148,2.350 11.851,2.110 12.936 C 2.023 13.326,2.020 13.413,2.020 15.460 C 2.020 17.801,2.029 17.907,2.284 18.709 C 2.531 19.482,2.905 20.097,3.450 20.626 C 4.127 21.283,4.847 21.649,5.936 21.890 L 6.340 21.980 11.960 21.980 C 18.228 21.980,17.867 21.995,18.746 21.701 C 20.494 21.116,21.540 19.860,21.912 17.900 C 21.971 17.590,21.980 17.257,21.980 15.500 C 21.980 13.225,21.966 13.059,21.699 12.254 C 21.440 11.472,21.089 10.897,20.550 10.374 C 19.752 9.599,18.783 9.174,17.510 9.040 C 17.307 9.019,16.155 9.001,14.950 9.001 L 12.760 9.000 12.760 5.870 C 12.760 3.731,12.746 2.689,12.716 2.580 C 12.625 2.247,12.321 2.002,12.000 2.002 C 11.923 2.002,11.786 2.035,11.695 2.077 M12.760 11.209 L 12.760 13.418 13.830 12.351 C 14.531 11.651,14.951 11.263,15.049 11.222 C 15.497 11.035,16.018 11.319,16.070 11.778 C 16.117 12.196,16.194 12.099,14.247 14.054 C 13.048 15.258,12.407 15.873,12.300 15.924 C 12.097 16.018,11.903 16.018,11.700 15.924 C 11.593 15.873,10.952 15.258,9.753 14.054 C 7.806 12.099,7.883 12.196,7.930 11.778 C 7.981 11.322,8.506 11.037,8.951 11.222 C 9.049 11.263,9.469 11.651,10.170 12.351 L 11.240 13.418 11.240 11.209 L 11.240 9.000 12.000 9.000 L 12.760 9.000 12.760 11.209 " fill="#292D32" stroke="none" fill-rule="evenodd"></path></svg>