<svg width="24" height="24" viewBox="0 0 24 24" fill="none" xmlns="http://www.w3.org/2000/svg"><path d="M11.120 2.039 C 8.336 2.318,5.905 3.624,4.193 5.760 C 1.474 9.155,1.267 13.917,3.682 17.533 C 6.770 22.155,12.946 23.386,17.560 20.299 C 22.155 17.225,23.377 11.041,20.299 6.440 C 18.728 4.092,16.319 2.562,13.493 2.119 C 12.909 2.027,11.660 1.985,11.120 2.039 M17.389 6.367 C 17.657 6.530,17.782 6.847,17.712 7.189 C 17.673 7.375,17.563 7.490,13.749 11.308 L 9.825 15.236 11.423 15.248 L 13.020 15.260 13.194 15.360 C 13.711 15.655,13.684 16.395,13.147 16.658 L 12.935 16.762 10.351 16.751 L 7.767 16.740 7.597 16.620 C 7.504 16.554,7.390 16.428,7.344 16.340 C 7.261 16.183,7.260 16.139,7.260 13.580 L 7.260 10.980 7.360 10.806 C 7.641 10.314,8.359 10.314,8.640 10.806 L 8.740 10.980 8.752 12.577 L 8.764 14.175 12.692 10.250 C 15.659 7.285,16.649 6.319,16.740 6.299 C 16.806 6.285,16.878 6.267,16.900 6.259 C 16.983 6.229,17.265 6.292,17.389 6.367 " fill="#292D32" stroke="none" fill-rule="evenodd"></path></svg>