<svg width="24" height="24" viewBox="0 0 24 24" fill="none" xmlns="http://www.w3.org/2000/svg"><path d="M6.960 2.046 C 6.236 2.116,5.358 2.357,4.796 2.641 C 4.426 2.828,3.928 3.183,3.624 3.475 C 2.737 4.332,2.251 5.370,2.062 6.812 C 1.970 7.515,1.969 16.481,2.061 17.188 C 2.239 18.550,2.681 19.544,3.476 20.372 C 4.162 21.084,4.935 21.524,5.956 21.780 C 6.817 21.997,6.896 22.000,11.993 22.000 C 14.960 22.000,16.828 21.985,17.041 21.959 C 19.985 21.603,21.695 19.840,21.962 16.885 C 21.990 16.579,21.999 14.787,21.989 11.660 C 21.974 7.001,21.972 6.891,21.889 6.456 C 21.642 5.171,21.165 4.235,20.369 3.478 C 19.583 2.729,18.652 2.295,17.359 2.076 C 16.995 2.014,7.572 1.987,6.960 2.046 M17.389 6.367 C 17.657 6.530,17.782 6.847,17.712 7.189 C 17.673 7.375,17.563 7.490,13.749 11.308 L 9.825 15.236 11.423 15.248 L 13.020 15.260 13.194 15.360 C 13.711 15.655,13.684 16.395,13.147 16.658 L 12.935 16.762 10.351 16.751 L 7.767 16.740 7.597 16.620 C 7.504 16.554,7.390 16.428,7.344 16.340 C 7.261 16.183,7.260 16.139,7.260 13.580 L 7.260 10.980 7.360 10.806 C 7.641 10.314,8.359 10.314,8.640 10.806 L 8.740 10.980 8.752 12.577 L 8.764 14.175 12.692 10.250 C 15.659 7.285,16.649 6.319,16.740 6.299 C 16.806 6.285,16.878 6.267,16.900 6.259 C 16.983 6.229,17.265 6.292,17.389 6.367 " fill="#292D32" stroke="none" fill-rule="evenodd"></path></svg>