<svg width="24" height="24" viewBox="0 0 24 24" fill="none" xmlns="http://www.w3.org/2000/svg"><path d="M11.386 2.117 C 11.063 2.223,10.868 2.364,9.881 3.198 C 8.624 4.261,8.577 4.278,6.960 4.280 C 6.194 4.281,5.843 4.296,5.695 4.336 C 5.196 4.468,4.687 4.872,4.464 5.311 C 4.265 5.705,4.240 5.892,4.240 7.002 C 4.240 7.617,4.222 8.119,4.194 8.257 C 4.105 8.700,3.874 9.058,3.063 10.010 C 2.264 10.948,2.137 11.149,2.040 11.620 C 1.949 12.059,2.063 12.691,2.296 13.040 C 2.347 13.117,2.716 13.565,3.116 14.035 C 4.244 15.362,4.204 15.259,4.240 16.940 C 4.269 18.325,4.283 18.409,4.554 18.823 C 4.745 19.115,4.911 19.273,5.214 19.455 C 5.593 19.682,5.849 19.720,7.028 19.721 C 8.613 19.721,8.660 19.740,10.005 20.888 C 10.503 21.313,10.995 21.703,11.098 21.755 C 11.378 21.895,11.664 21.959,12.000 21.959 C 12.688 21.957,12.913 21.837,14.020 20.879 C 14.955 20.071,15.281 19.860,15.752 19.764 C 15.873 19.739,16.407 19.720,16.994 19.720 C 17.777 19.720,18.078 19.706,18.252 19.660 C 18.877 19.497,19.393 19.037,19.613 18.447 C 19.689 18.241,19.699 18.106,19.721 17.000 C 19.755 15.322,19.740 15.361,20.797 14.123 C 21.661 13.111,21.782 12.947,21.882 12.660 C 21.989 12.352,22.024 11.886,21.962 11.589 C 21.873 11.160,21.684 10.871,20.898 9.960 C 19.786 8.673,19.760 8.607,19.760 7.099 C 19.760 6.547,19.740 5.988,19.717 5.857 C 19.587 5.146,19.046 4.559,18.323 4.344 C 18.147 4.292,17.905 4.280,17.059 4.280 C 15.439 4.280,15.367 4.252,14.040 3.117 C 12.899 2.141,12.760 2.065,12.080 2.050 C 11.714 2.042,11.572 2.056,11.386 2.117 M12.368 7.490 C 12.463 7.543,12.571 7.653,12.634 7.760 L 12.740 7.940 12.753 10.420 C 12.767 13.203,12.764 13.236,12.524 13.476 C 12.160 13.840,11.590 13.757,11.349 13.307 L 11.260 13.140 11.260 10.540 L 11.260 7.940 11.359 7.767 C 11.559 7.417,12.016 7.292,12.368 7.490 M12.400 14.963 C 13.156 15.305,13.199 16.344,12.474 16.740 C 11.971 17.014,11.376 16.815,11.096 16.280 C 10.989 16.076,10.995 15.632,11.108 15.420 C 11.286 15.085,11.623 14.882,12.000 14.882 C 12.136 14.882,12.289 14.913,12.400 14.963 " fill="#292D32" stroke="none" fill-rule="evenodd"></path></svg>