<svg width="24" height="24" viewBox="0 0 24 24" fill="none" xmlns="http://www.w3.org/2000/svg"><path d="M11.120 2.039 C 8.192 2.332,5.648 3.774,3.923 6.119 C 2.041 8.678,1.501 12.071,2.496 15.094 C 3.849 19.205,7.695 22.000,12.000 22.000 C 17.491 22.000,22.000 17.491,22.000 12.000 C 22.000 7.433,18.865 3.424,14.417 2.302 C 13.472 2.064,12.026 1.949,11.120 2.039 M12.352 7.349 C 12.525 7.430,12.663 7.616,12.719 7.840 C 12.750 7.966,12.760 8.797,12.752 10.600 C 12.740 13.127,12.738 13.183,12.656 13.340 C 12.610 13.428,12.497 13.554,12.404 13.619 C 12.263 13.719,12.196 13.739,12.000 13.739 C 11.804 13.739,11.737 13.719,11.596 13.619 C 11.503 13.554,11.390 13.428,11.344 13.340 C 11.262 13.183,11.260 13.126,11.247 10.620 C 11.233 7.747,11.235 7.725,11.478 7.482 C 11.716 7.244,12.029 7.197,12.352 7.349 M12.445 15.121 C 12.684 15.241,12.753 15.309,12.865 15.530 C 13.074 15.943,13.013 16.389,12.705 16.697 C 11.906 17.496,10.616 16.560,11.124 15.550 C 11.171 15.456,11.239 15.347,11.275 15.306 C 11.343 15.228,11.588 15.092,11.760 15.035 C 11.918 14.983,12.254 15.025,12.445 15.121 " fill="#292D32" stroke="none" fill-rule="evenodd"></path></svg>