<svg width="24" height="24" viewBox="0 0 24 24" fill="none" xmlns="http://www.w3.org/2000/svg"><path d="M6.960 2.046 C 6.236 2.116,5.358 2.357,4.796 2.641 C 4.426 2.828,3.928 3.183,3.624 3.475 C 2.737 4.332,2.251 5.370,2.062 6.812 C 1.970 7.515,1.969 16.481,2.061 17.188 C 2.239 18.550,2.681 19.544,3.476 20.372 C 4.162 21.084,4.935 21.524,5.956 21.780 C 6.817 21.997,6.896 22.000,11.993 22.000 C 14.960 22.000,16.828 21.985,17.041 21.959 C 19.985 21.603,21.695 19.840,21.962 16.885 C 21.990 16.579,21.999 14.787,21.989 11.660 C 21.974 7.001,21.972 6.891,21.889 6.456 C 21.642 5.171,21.165 4.235,20.369 3.478 C 19.583 2.729,18.652 2.295,17.359 2.076 C 16.995 2.014,7.572 1.987,6.960 2.046 M17.374 5.580 C 17.573 5.663,17.789 5.862,17.891 6.056 C 17.956 6.179,17.978 6.290,17.978 6.500 C 17.978 6.829,17.888 7.034,17.655 7.239 C 17.451 7.418,17.261 7.492,17.000 7.492 C 16.620 7.492,16.295 7.291,16.108 6.940 C 16.044 6.821,16.022 6.709,16.022 6.500 C 16.022 6.291,16.044 6.179,16.108 6.060 C 16.215 5.859,16.418 5.662,16.600 5.584 C 16.781 5.505,17.190 5.503,17.374 5.580 M12.929 8.236 C 14.354 8.605,15.429 9.701,15.788 11.151 C 15.835 11.340,15.855 11.593,15.855 12.000 C 15.855 12.849,15.691 13.417,15.247 14.102 C 14.120 15.844,11.816 16.393,10.037 15.342 C 7.964 14.118,7.497 11.318,9.060 9.477 C 9.623 8.814,10.553 8.292,11.400 8.164 C 11.787 8.105,12.565 8.142,12.929 8.236 " fill="#292D32" stroke="none" fill-rule="evenodd"></path></svg>