<svg width="24" height="24" viewBox="0 0 24 24" fill="none" xmlns="http://www.w3.org/2000/svg"><path d="M12.441 2.404 C 12.321 2.425,12.096 2.499,11.941 2.568 C 11.673 2.689,11.561 2.794,9.551 4.795 C 8.344 5.997,7.412 6.957,7.373 7.038 C 7.335 7.116,7.296 7.302,7.287 7.450 C 7.258 7.940,7.136 7.799,10.488 11.145 C 13.231 13.881,13.518 14.155,13.697 14.215 C 13.944 14.296,14.180 14.298,14.403 14.219 L 14.576 14.158 17.058 16.634 C 18.423 17.996,19.585 19.134,19.639 19.162 C 19.815 19.252,20.013 19.279,20.180 19.235 C 20.628 19.117,20.868 18.660,20.699 18.249 C 20.656 18.145,19.882 17.344,18.149 15.610 L 15.660 13.120 17.185 11.590 C 18.024 10.749,18.765 9.977,18.834 9.875 C 19.046 9.557,19.128 9.297,19.150 8.875 C 19.174 8.413,19.124 8.166,18.928 7.780 C 18.799 7.526,18.573 7.287,16.523 5.226 C 15.136 3.832,14.153 2.876,13.983 2.755 C 13.548 2.447,12.959 2.313,12.441 2.404 M5.392 9.056 C 5.199 9.125,4.951 9.336,4.439 9.867 C 3.781 10.548,3.607 10.870,3.571 11.480 C 3.546 11.890,3.602 12.190,3.768 12.529 C 3.877 12.750,4.170 13.060,6.256 15.154 C 7.556 16.460,8.712 17.589,8.825 17.662 C 9.088 17.834,9.465 17.960,9.799 17.988 C 10.134 18.016,10.645 17.893,10.958 17.710 C 11.228 17.552,12.329 16.456,12.452 16.223 C 12.572 15.995,12.572 15.564,12.452 15.340 C 12.401 15.246,11.108 13.926,9.313 12.136 C 5.996 8.830,6.188 8.998,5.735 9.002 C 5.628 9.003,5.473 9.027,5.392 9.056 M1.807 20.287 C 1.568 20.341,1.341 20.572,1.289 20.816 C 1.196 21.251,1.432 21.631,1.849 21.718 C 2.000 21.749,2.980 21.759,5.122 21.751 L 8.180 21.740 8.359 21.639 C 8.702 21.448,8.829 21.010,8.646 20.651 C 8.544 20.452,8.391 20.337,8.156 20.283 C 7.925 20.229,2.047 20.234,1.807 20.287 " fill="#292D32" stroke="none" fill-rule="evenodd"></path></svg>