<svg width="24" height="24" viewBox="0 0 24 24" fill="none" xmlns="http://www.w3.org/2000/svg"><path d="M3.606 2.042 C 2.710 2.162,2.233 2.584,2.063 3.408 C 2.007 3.684,2.000 4.600,2.000 12.000 C 2.000 19.400,2.007 20.316,2.063 20.592 C 2.208 21.296,2.532 21.658,3.220 21.886 C 3.499 21.978,3.506 21.978,6.071 21.991 C 8.874 22.005,9.088 21.992,9.542 21.784 C 10.021 21.565,10.264 21.263,10.414 20.704 L 10.500 20.380 10.500 12.000 L 10.500 3.620 10.414 3.296 C 10.234 2.623,9.882 2.277,9.191 2.092 C 8.970 2.033,8.634 2.024,6.400 2.017 C 5.003 2.012,3.746 2.023,3.606 2.042 M15.200 2.028 C 14.256 2.143,13.746 2.559,13.579 3.349 C 13.493 3.753,13.493 13.247,13.579 13.651 C 13.723 14.334,14.113 14.726,14.829 14.910 C 15.073 14.973,15.363 14.980,17.760 14.980 C 20.411 14.980,20.421 14.980,20.735 14.889 C 21.405 14.695,21.728 14.371,21.911 13.710 C 21.975 13.479,21.980 13.078,21.980 8.500 C 21.980 3.922,21.975 3.521,21.911 3.290 C 21.730 2.638,21.411 2.312,20.756 2.114 C 20.464 2.025,20.427 2.024,17.900 2.017 C 16.492 2.014,15.277 2.018,15.200 2.028 " fill="#292D32" stroke="none" fill-rule="evenodd"></path></svg>