<svg width="24" height="24" viewBox="0 0 24 24" fill="none" xmlns="http://www.w3.org/2000/svg"><path d="M6.991 2.044 C 6.252 2.117,5.350 2.362,4.800 2.640 C 4.372 2.856,3.859 3.234,3.515 3.586 C 2.777 4.344,2.333 5.262,2.108 6.497 C 2.020 6.978,2.020 7.001,2.020 12.000 C 2.020 16.999,2.020 17.022,2.108 17.503 C 2.338 18.764,2.786 19.676,3.555 20.445 C 4.324 21.214,5.236 21.662,6.497 21.892 C 6.978 21.980,7.001 21.980,12.000 21.980 L 17.020 21.980 17.515 21.890 C 18.730 21.669,19.674 21.205,20.424 20.461 C 21.225 19.667,21.709 18.645,21.909 17.326 C 21.974 16.900,21.980 16.449,21.980 12.020 C 21.980 6.785,21.981 6.812,21.761 5.939 C 21.514 4.958,21.135 4.265,20.480 3.597 C 19.698 2.799,18.826 2.358,17.544 2.111 C 17.107 2.027,17.018 2.026,12.220 2.017 C 9.536 2.013,7.183 2.025,6.991 2.044 M14.160 7.145 C 15.481 7.476,16.517 8.510,16.887 9.867 C 17.014 10.333,17.013 11.246,16.885 11.720 C 16.707 12.377,16.403 12.920,15.944 13.394 C 15.454 13.902,14.939 14.216,14.252 14.427 C 13.929 14.526,13.845 14.535,13.220 14.536 C 12.709 14.536,12.485 14.520,12.320 14.471 L 12.100 14.406 11.534 14.963 C 11.080 15.410,10.947 15.520,10.858 15.520 C 10.768 15.520,10.636 15.411,10.181 14.960 C 9.633 14.416,9.612 14.400,9.446 14.400 C 9.222 14.400,9.080 14.533,9.080 14.744 C 9.080 14.880,9.124 14.937,9.660 15.480 C 9.979 15.804,10.240 16.100,10.240 16.139 C 10.240 16.223,9.667 16.823,9.508 16.906 C 9.313 17.007,9.040 17.011,8.400 16.922 C 7.720 16.827,7.534 16.754,7.355 16.512 C 7.196 16.297,7.168 16.197,7.075 15.508 C 6.942 14.525,6.837 14.715,8.347 13.198 L 9.603 11.935 9.538 11.698 C 9.430 11.307,9.417 10.494,9.511 10.040 C 9.793 8.675,10.779 7.596,12.120 7.183 C 12.771 6.983,13.460 6.970,14.160 7.145 M12.828 9.578 C 11.966 9.885,11.726 10.972,12.377 11.623 C 12.874 12.119,13.638 12.122,14.131 11.629 C 14.737 11.023,14.558 10.002,13.782 9.634 C 13.585 9.542,13.487 9.520,13.260 9.522 C 13.106 9.523,12.912 9.548,12.828 9.578 " fill="#292D32" stroke="none" fill-rule="evenodd"></path></svg>