<svg width="24" height="24" viewBox="0 0 24 24" fill="none" xmlns="http://www.w3.org/2000/svg"><path d="M13.760 2.042 C 12.826 2.131,11.992 2.362,11.160 2.764 C 8.996 3.807,7.477 5.773,6.996 8.151 C 6.930 8.474,6.904 8.778,6.890 9.381 C 6.869 10.261,6.920 10.767,7.100 11.452 L 7.196 11.820 4.763 14.260 C 2.150 16.882,2.205 16.817,2.061 17.378 C 2.028 17.510,2.000 17.699,2.000 17.798 C 2.000 18.100,2.315 20.287,2.386 20.480 C 2.574 20.992,3.073 21.483,3.560 21.635 C 3.742 21.692,5.978 22.000,6.207 22.000 C 6.438 22.000,6.807 21.903,7.079 21.772 C 7.313 21.658,8.279 20.756,8.384 20.552 C 8.456 20.413,8.455 20.225,8.383 20.088 C 8.351 20.029,7.873 19.530,7.320 18.980 C 6.767 18.430,6.280 17.913,6.237 17.832 C 6.097 17.562,6.146 17.206,6.353 16.985 C 6.560 16.763,6.946 16.691,7.212 16.824 C 7.282 16.859,7.822 17.368,8.410 17.954 L 9.481 19.020 9.720 19.020 L 9.959 19.020 11.070 17.910 L 12.180 16.800 12.455 16.879 C 13.047 17.048,13.704 17.132,14.420 17.132 C 16.054 17.130,17.509 16.668,18.840 15.729 C 19.332 15.382,20.258 14.457,20.611 13.960 C 20.959 13.469,21.425 12.541,21.612 11.967 C 22.050 10.623,22.116 9.285,21.814 7.922 C 21.195 5.130,19.071 2.953,16.270 2.238 C 15.555 2.055,14.493 1.972,13.760 2.042 M15.240 7.116 C 16.009 7.358,16.647 8.002,16.890 8.780 C 16.958 8.997,16.978 9.159,16.978 9.500 C 16.978 10.229,16.752 10.767,16.230 11.287 C 15.274 12.239,13.706 12.227,12.739 11.261 C 11.763 10.285,11.763 8.715,12.739 7.739 C 13.061 7.417,13.532 7.155,13.960 7.059 C 14.306 6.982,14.898 7.008,15.240 7.116 " fill="#292D32" stroke="none" fill-rule="evenodd"></path></svg>