<svg width="24" height="24" viewBox="0 0 24 24" fill="none" xmlns="http://www.w3.org/2000/svg"><path d="M5.420 2.044 C 5.083 2.092,4.552 2.263,4.221 2.430 C 3.035 3.026,2.224 4.153,2.043 5.455 C 1.983 5.886,1.983 15.114,2.043 15.545 C 2.290 17.318,3.722 18.737,5.486 18.958 C 5.943 19.016,18.057 19.016,18.514 18.958 C 20.291 18.736,21.736 17.291,21.958 15.514 C 22.015 15.060,22.015 5.940,21.958 5.486 C 21.737 3.722,20.318 2.290,18.545 2.043 C 18.167 1.991,5.789 1.991,5.420 2.044 M7.301 7.431 C 7.885 7.731,8.020 8.532,7.568 9.015 C 7.415 9.178,7.096 9.319,6.877 9.320 C 6.306 9.321,5.865 8.887,5.861 8.319 C 5.859 7.885,6.105 7.525,6.505 7.376 C 6.711 7.300,7.097 7.326,7.301 7.431 M10.511 7.466 C 10.992 7.762,11.138 8.383,10.839 8.855 C 10.542 9.323,9.911 9.456,9.452 9.148 C 8.812 8.717,8.870 7.782,9.560 7.427 C 9.754 7.327,9.812 7.316,10.051 7.332 C 10.259 7.345,10.365 7.376,10.511 7.466 M17.540 7.635 C 17.747 7.729,17.949 7.960,17.983 8.142 C 18.052 8.508,17.903 8.820,17.582 8.981 L 17.384 9.080 15.422 9.079 C 13.598 9.078,13.449 9.073,13.300 9.004 C 13.005 8.867,12.840 8.623,12.840 8.320 C 12.840 8.017,13.005 7.773,13.300 7.636 C 13.449 7.567,13.596 7.562,15.420 7.562 C 17.230 7.562,17.392 7.567,17.540 7.635 M17.585 13.437 C 17.961 13.608,18.125 14.097,17.928 14.465 C 17.862 14.589,17.614 14.794,17.489 14.829 C 17.429 14.846,14.950 14.860,11.980 14.860 L 6.580 14.860 6.420 14.774 C 6.224 14.669,6.141 14.581,6.062 14.390 C 5.943 14.105,6.003 13.806,6.224 13.584 C 6.459 13.350,6.124 13.363,12.000 13.362 C 17.209 13.362,17.426 13.365,17.585 13.437 M6.785 21.289 C 6.578 21.344,6.336 21.590,6.279 21.804 C 6.193 22.122,6.334 22.463,6.627 22.645 L 6.780 22.740 12.003 22.740 L 17.226 22.740 17.388 22.633 C 17.627 22.475,17.739 22.270,17.739 21.993 C 17.739 21.804,17.718 21.736,17.619 21.596 C 17.554 21.503,17.428 21.390,17.340 21.344 C 17.180 21.260,17.169 21.260,12.060 21.254 C 8.641 21.250,6.888 21.261,6.785 21.289 " fill="#292D32" stroke="none" fill-rule="evenodd"></path></svg>