<svg width="24" height="24" viewBox="0 0 24 24" fill="none" xmlns="http://www.w3.org/2000/svg"><path d="M6.720 3.266 C 6.242 3.285,5.574 3.360,5.131 3.445 C 3.411 3.772,2.423 4.666,2.018 6.263 C 1.781 7.199,1.786 7.095,1.769 11.660 C 1.754 15.910,1.767 16.439,1.902 17.214 C 2.049 18.053,2.379 18.849,2.772 19.309 C 3.373 20.013,4.249 20.437,5.480 20.618 C 6.400 20.754,7.000 20.765,12.440 20.750 C 18.374 20.733,18.204 20.740,19.240 20.475 C 20.718 20.098,21.608 19.209,21.982 17.737 C 22.219 16.801,22.214 16.905,22.231 12.340 C 22.246 7.859,22.235 7.492,22.057 6.604 C 21.785 5.252,21.211 4.406,20.218 3.893 C 19.666 3.608,19.169 3.472,18.180 3.334 C 17.754 3.275,17.102 3.267,12.360 3.261 C 9.423 3.257,6.885 3.259,6.720 3.266 M7.547 9.113 C 7.733 9.208,7.946 9.436,8.025 9.626 C 8.055 9.698,8.080 9.867,8.080 10.000 C 8.080 10.133,8.055 10.302,8.025 10.374 C 7.879 10.725,7.472 10.999,7.100 10.999 C 6.728 10.999,6.321 10.725,6.175 10.374 C 6.101 10.198,6.105 9.793,6.182 9.609 C 6.288 9.355,6.543 9.132,6.840 9.035 C 6.999 8.983,7.371 9.024,7.547 9.113 M10.547 9.113 C 10.733 9.208,10.946 9.436,11.025 9.626 C 11.096 9.795,11.096 10.205,11.025 10.374 C 10.879 10.725,10.472 10.999,10.100 10.999 C 9.728 10.999,9.321 10.725,9.175 10.374 C 9.101 10.198,9.105 9.793,9.182 9.609 C 9.288 9.355,9.543 9.132,9.840 9.035 C 9.999 8.983,10.371 9.024,10.547 9.113 M17.189 9.286 C 17.577 9.384,17.814 9.790,17.714 10.186 C 17.656 10.416,17.428 10.657,17.213 10.717 C 17.115 10.744,16.392 10.760,15.218 10.760 C 13.387 10.760,13.376 10.759,13.201 10.670 C 13.104 10.620,12.970 10.511,12.902 10.426 C 12.793 10.289,12.780 10.243,12.780 10.003 C 12.780 9.769,12.795 9.714,12.893 9.586 C 13.026 9.411,13.155 9.321,13.331 9.279 C 13.550 9.227,16.979 9.234,17.189 9.286 M17.426 14.904 C 17.645 15.081,17.731 15.248,17.731 15.494 C 17.731 15.806,17.542 16.094,17.267 16.197 C 17.190 16.227,15.544 16.240,11.996 16.240 C 6.924 16.240,6.834 16.239,6.681 16.160 C 6.449 16.042,6.310 15.837,6.288 15.582 C 6.267 15.321,6.327 15.127,6.471 14.989 C 6.729 14.743,6.321 14.759,12.046 14.770 L 17.273 14.780 17.426 14.904 " fill="#292D32" stroke="none" fill-rule="evenodd"></path></svg>