<svg width="24" height="24" viewBox="0 0 24 24" fill="none" xmlns="http://www.w3.org/2000/svg"><path d="M11.613 1.901 C 11.497 1.970,11.416 2.063,11.343 2.208 L 11.240 2.416 11.240 3.962 L 11.240 5.509 10.943 5.536 C 10.335 5.591,9.551 5.777,8.893 6.023 C 6.199 7.030,4.156 9.322,3.477 12.098 C 3.258 12.995,3.226 13.358,3.223 14.960 C 3.220 16.268,3.228 16.445,3.293 16.660 C 3.504 17.347,4.056 17.880,4.742 18.059 C 4.948 18.113,5.823 18.120,12.000 18.120 C 18.177 18.120,19.052 18.113,19.258 18.059 C 19.948 17.879,20.495 17.350,20.707 16.660 C 20.772 16.445,20.780 16.267,20.778 14.960 C 20.775 13.352,20.739 12.947,20.520 12.076 C 19.688 8.771,17.023 6.261,13.667 5.622 C 13.496 5.590,13.221 5.551,13.057 5.536 L 12.760 5.509 12.760 3.962 L 12.760 2.416 12.656 2.207 C 12.460 1.814,11.989 1.675,11.613 1.901 M9.008 19.201 C 8.841 19.303,8.744 19.522,8.780 19.716 C 8.795 19.795,8.861 19.990,8.927 20.149 C 9.249 20.924,9.836 21.535,10.612 21.902 C 11.093 22.129,11.347 22.180,12.000 22.180 C 12.656 22.180,12.906 22.129,13.396 21.898 C 14.280 21.481,14.995 20.638,15.197 19.775 C 15.258 19.517,15.188 19.320,14.992 19.201 C 14.863 19.122,14.798 19.120,12.000 19.120 C 9.202 19.120,9.137 19.122,9.008 19.201 " fill="#292D32" stroke="none" fill-rule="evenodd"></path></svg>