<svg width="24" height="24" viewBox="0 0 24 24" fill="none" xmlns="http://www.w3.org/2000/svg"><path d="M19.840 1.771 C 19.667 1.805,19.341 2.125,11.626 9.833 C 6.023 15.431,3.569 17.908,3.517 18.020 C 3.242 18.605,3.766 19.210,4.401 19.040 C 4.560 18.997,4.725 18.848,5.880 17.701 L 7.180 16.410 7.520 16.669 L 7.860 16.928 7.880 17.654 C 7.899 18.297,7.911 18.398,7.987 18.540 C 8.161 18.863,8.476 19.077,8.901 19.158 C 9.072 19.191,9.993 19.201,12.120 19.192 L 15.100 19.180 15.326 19.089 C 15.629 18.966,15.891 18.727,16.028 18.449 C 16.134 18.232,16.141 18.187,16.153 17.574 L 16.167 16.928 16.531 16.656 C 18.834 14.937,20.224 11.983,20.004 9.278 C 19.892 7.906,19.471 6.677,18.745 5.604 L 18.437 5.149 19.552 4.024 C 20.757 2.810,20.787 2.770,20.751 2.397 C 20.708 1.949,20.315 1.679,19.840 1.771 M11.200 2.042 C 8.492 2.337,6.154 3.914,4.902 6.290 C 4.088 7.833,3.791 9.623,4.080 11.229 C 4.256 12.209,4.679 13.323,4.997 13.646 C 5.320 13.973,5.750 14.035,6.163 13.813 C 6.289 13.746,7.839 12.221,11.109 8.947 C 15.654 4.397,15.874 4.170,15.940 3.966 C 16.070 3.562,15.936 3.103,15.616 2.859 C 15.276 2.600,14.155 2.236,13.279 2.102 C 12.769 2.023,11.663 1.991,11.200 2.042 M10.843 20.204 C 10.024 20.277,8.638 20.564,8.381 20.714 C 8.315 20.753,8.220 20.844,8.171 20.917 C 7.827 21.427,8.294 22.105,8.894 21.967 C 8.985 21.945,9.259 21.882,9.502 21.825 C 11.196 21.431,13.039 21.452,14.740 21.884 C 15.273 22.020,15.410 22.017,15.639 21.865 C 16.039 21.601,16.017 20.915,15.601 20.701 C 15.301 20.545,13.964 20.281,13.080 20.202 C 12.550 20.154,11.394 20.156,10.843 20.204 " fill="#292D32" stroke="none" fill-rule="evenodd"></path></svg>