<svg width="24" height="24" viewBox="0 0 24 24" fill="none" xmlns="http://www.w3.org/2000/svg"><path d="M11.260 2.041 C 8.328 2.338,5.741 4.224,4.623 6.877 C 3.613 9.276,3.786 11.746,5.120 14.000 C 5.747 15.059,6.633 16.043,7.548 16.695 L 7.836 16.900 7.838 17.448 C 7.841 18.284,7.928 18.580,8.253 18.865 C 8.350 18.950,8.517 19.056,8.625 19.100 C 8.813 19.177,8.927 19.180,11.840 19.193 C 14.060 19.202,14.918 19.193,15.080 19.158 C 15.370 19.095,15.626 18.962,15.809 18.778 C 16.107 18.479,16.199 18.142,16.200 17.359 C 16.200 16.898,16.200 16.897,16.310 16.831 C 16.519 16.705,16.981 16.315,17.356 15.948 C 19.511 13.839,20.454 10.917,19.855 8.206 C 19.490 6.558,18.630 5.091,17.401 4.021 C 16.421 3.167,15.118 2.494,13.920 2.222 C 13.152 2.048,11.983 1.968,11.260 2.041 M10.840 20.203 C 10.026 20.284,8.670 20.560,8.398 20.701 C 7.984 20.915,7.959 21.602,8.356 21.861 C 8.592 22.014,8.730 22.018,9.260 21.884 C 10.344 21.610,11.555 21.494,12.624 21.562 C 13.519 21.618,13.996 21.697,15.089 21.966 C 15.420 22.048,15.725 21.903,15.886 21.589 C 16.058 21.251,15.899 20.835,15.535 20.674 C 15.302 20.571,14.469 20.383,13.780 20.279 C 13.136 20.181,11.490 20.139,10.840 20.203 " fill="#292D32" stroke="none" fill-rule="evenodd"></path></svg>