<svg width="24" height="24" viewBox="0 0 24 24" fill="none" xmlns="http://www.w3.org/2000/svg"><path d="M7.620 2.040 C 7.355 2.094,7.022 2.234,6.774 2.395 C 6.457 2.601,6.074 3.021,5.924 3.327 C 5.843 3.495,5.416 4.992,4.654 7.780 C 3.582 11.707,3.506 12.006,3.490 12.383 C 3.467 12.875,3.520 13.149,3.709 13.526 C 3.974 14.057,4.470 14.439,5.104 14.601 C 5.398 14.676,5.556 14.680,8.326 14.680 L 11.240 14.680 11.240 17.600 L 11.240 20.520 9.514 20.520 L 7.787 20.520 7.617 20.619 C 7.442 20.722,7.240 21.044,7.240 21.218 C 7.241 21.508,7.433 21.804,7.698 21.925 C 7.852 21.995,8.069 21.998,12.000 21.998 C 15.931 21.998,16.148 21.995,16.302 21.925 C 16.865 21.669,16.901 20.937,16.367 20.610 C 16.221 20.521,16.212 20.520,14.490 20.520 L 12.760 20.520 12.760 17.600 L 12.760 14.680 15.674 14.680 C 18.444 14.680,18.602 14.676,18.896 14.601 C 19.530 14.439,20.026 14.057,20.291 13.526 C 20.480 13.150,20.532 12.875,20.511 12.383 C 20.494 12.005,20.421 11.715,19.346 7.780 C 18.578 4.968,18.158 3.496,18.074 3.325 C 17.923 3.014,17.494 2.552,17.183 2.365 C 17.060 2.291,16.838 2.183,16.690 2.125 L 16.420 2.020 12.100 2.014 C 9.724 2.010,7.708 2.022,7.620 2.040 " fill="#292D32" stroke="none" fill-rule="evenodd"></path></svg>