<svg width="24" height="24" viewBox="0 0 24 24" fill="none" xmlns="http://www.w3.org/2000/svg"><path d="M11.120 2.039 C 8.336 2.318,5.905 3.624,4.193 5.760 C 1.474 9.155,1.267 13.917,3.682 17.533 C 6.770 22.155,12.946 23.386,17.560 20.299 C 22.155 17.225,23.377 11.041,20.299 6.440 C 18.728 4.092,16.319 2.562,13.493 2.119 C 12.909 2.027,11.660 1.985,11.120 2.039 M12.352 6.629 C 12.517 6.706,12.659 6.890,12.716 7.100 C 12.740 7.188,12.760 7.471,12.760 7.728 L 12.760 8.197 14.970 8.208 L 17.180 8.220 17.360 8.326 C 17.870 8.625,17.843 9.352,17.313 9.616 C 17.106 9.719,17.097 9.720,16.159 9.720 L 15.214 9.720 15.147 10.198 C 14.968 11.469,14.481 12.731,13.740 13.840 L 13.447 14.278 13.714 14.541 C 14.583 15.402,15.554 15.864,16.695 15.962 C 17.288 16.012,17.476 16.090,17.628 16.350 C 17.882 16.784,17.669 17.314,17.188 17.443 C 16.865 17.530,15.922 17.410,15.250 17.195 C 14.365 16.912,13.500 16.398,12.815 15.746 L 12.416 15.367 12.018 15.687 C 10.689 16.752,9.144 17.345,7.398 17.461 C 6.879 17.496,6.691 17.451,6.484 17.244 C 6.212 16.972,6.187 16.566,6.421 16.256 C 6.576 16.052,6.759 15.991,7.327 15.957 C 8.944 15.859,10.364 15.240,11.523 14.130 C 12.740 12.964,13.448 11.573,13.693 9.870 L 13.715 9.720 10.365 9.720 C 6.661 9.720,6.736 9.725,6.491 9.471 C 6.150 9.117,6.223 8.554,6.641 8.320 L 6.820 8.220 9.030 8.208 L 11.240 8.197 11.240 7.736 C 11.240 7.151,11.290 6.950,11.481 6.759 C 11.716 6.524,12.031 6.477,12.352 6.629 " fill="#292D32" stroke="none" fill-rule="evenodd"></path></svg>