<svg width="24" height="24" viewBox="0 0 24 24" fill="none" xmlns="http://www.w3.org/2000/svg"><path d="M6.960 2.046 C 6.236 2.116,5.358 2.357,4.796 2.641 C 4.426 2.828,3.928 3.183,3.624 3.475 C 2.737 4.332,2.251 5.370,2.062 6.812 C 1.970 7.515,1.969 16.481,2.061 17.188 C 2.239 18.550,2.681 19.544,3.476 20.372 C 4.162 21.084,4.935 21.524,5.956 21.780 C 6.817 21.997,6.896 22.000,11.993 22.000 C 14.960 22.000,16.828 21.985,17.041 21.959 C 19.985 21.603,21.695 19.840,21.962 16.885 C 21.990 16.579,21.999 14.787,21.989 11.660 C 21.974 7.001,21.972 6.891,21.889 6.456 C 21.642 5.171,21.165 4.235,20.369 3.478 C 19.583 2.729,18.652 2.295,17.359 2.076 C 16.995 2.014,7.572 1.987,6.960 2.046 M12.352 6.629 C 12.517 6.706,12.659 6.890,12.716 7.100 C 12.740 7.188,12.760 7.471,12.760 7.728 L 12.760 8.197 14.970 8.208 L 17.180 8.220 17.360 8.326 C 17.870 8.625,17.843 9.352,17.313 9.616 C 17.106 9.719,17.097 9.720,16.159 9.720 L 15.214 9.720 15.147 10.198 C 14.968 11.469,14.481 12.731,13.740 13.840 L 13.447 14.278 13.714 14.541 C 14.583 15.402,15.554 15.864,16.695 15.962 C 17.288 16.012,17.476 16.090,17.628 16.350 C 17.882 16.784,17.669 17.314,17.188 17.443 C 16.865 17.530,15.922 17.410,15.250 17.195 C 14.365 16.912,13.500 16.398,12.815 15.746 L 12.416 15.367 12.018 15.687 C 10.689 16.752,9.144 17.345,7.398 17.461 C 6.879 17.496,6.691 17.451,6.484 17.244 C 6.212 16.972,6.187 16.566,6.421 16.256 C 6.576 16.052,6.759 15.991,7.327 15.957 C 8.944 15.859,10.364 15.240,11.523 14.130 C 12.740 12.964,13.448 11.573,13.693 9.870 L 13.715 9.720 10.365 9.720 C 6.661 9.720,6.736 9.725,6.491 9.471 C 6.150 9.117,6.223 8.554,6.641 8.320 L 6.820 8.220 9.030 8.208 L 11.240 8.197 11.240 7.736 C 11.240 7.151,11.290 6.950,11.481 6.759 C 11.716 6.524,12.031 6.477,12.352 6.629 " fill="#292D32" stroke="none" fill-rule="evenodd"></path></svg>