<svg width="24" height="24" viewBox="0 0 24 24" fill="none" xmlns="http://www.w3.org/2000/svg"><path d="M11.254 2.063 C 11.075 2.093,10.814 2.161,10.674 2.215 C 10.031 2.460,4.349 5.024,4.081 5.189 C 2.441 6.204,2.583 7.942,4.380 8.850 C 4.490 8.906,5.958 9.565,7.643 10.315 C 9.878 11.309,10.802 11.702,11.063 11.767 C 11.571 11.893,12.429 11.893,12.937 11.767 C 13.196 11.702,14.125 11.308,16.357 10.315 C 18.041 9.565,19.510 8.905,19.620 8.850 C 20.284 8.515,20.784 8.012,20.965 7.496 C 21.131 7.024,21.096 6.586,20.855 6.111 C 20.708 5.819,20.247 5.374,19.860 5.151 C 19.570 4.984,13.533 2.276,13.200 2.164 C 12.736 2.008,11.854 1.962,11.254 2.063 M2.980 10.260 C 2.958 10.267,2.891 10.284,2.831 10.297 C 2.666 10.333,2.454 10.542,2.377 10.742 C 2.300 10.943,2.317 11.279,2.425 11.698 C 2.609 12.411,3.152 13.176,3.759 13.578 C 4.038 13.763,10.674 16.737,11.200 16.913 C 11.456 16.999,11.573 17.013,12.000 17.013 C 12.430 17.013,12.542 16.999,12.800 16.912 C 13.124 16.803,19.528 13.962,19.965 13.734 C 20.549 13.429,20.991 12.960,21.318 12.300 C 21.554 11.825,21.645 11.490,21.651 11.081 C 21.656 10.758,21.604 10.610,21.434 10.455 C 21.280 10.315,21.155 10.269,20.938 10.269 C 20.519 10.269,20.257 10.525,20.199 10.991 C 20.131 11.529,19.863 12.021,19.491 12.290 C 19.290 12.436,12.591 15.436,12.279 15.520 C 11.881 15.628,11.898 15.635,8.112 13.951 C 4.588 12.384,4.579 12.380,4.349 12.152 C 4.057 11.864,3.855 11.457,3.805 11.055 C 3.756 10.672,3.638 10.462,3.400 10.342 C 3.292 10.286,3.045 10.238,2.980 10.260 M2.900 15.237 C 2.632 15.302,2.436 15.492,2.353 15.766 C 2.290 15.979,2.359 16.546,2.499 16.959 C 2.706 17.565,3.153 18.150,3.677 18.498 C 3.925 18.663,10.655 21.694,11.131 21.855 C 11.647 22.030,12.289 22.034,12.812 21.865 C 13.120 21.765,19.496 18.937,20.004 18.675 C 20.992 18.164,21.628 17.153,21.652 16.056 C 21.659 15.748,21.651 15.714,21.540 15.556 C 21.237 15.128,20.614 15.120,20.325 15.541 C 20.260 15.636,20.221 15.770,20.197 15.984 C 20.134 16.550,19.942 16.919,19.557 17.216 C 19.362 17.366,12.585 20.402,12.264 20.483 C 11.867 20.583,11.882 20.589,8.137 18.921 C 6.202 18.060,4.551 17.308,4.466 17.250 C 4.104 17.000,3.853 16.546,3.803 16.049 C 3.770 15.723,3.727 15.603,3.585 15.446 C 3.424 15.268,3.136 15.181,2.900 15.237 " fill="#292D32" stroke="none" fill-rule="evenodd"></path></svg>