<svg width="24" height="24" viewBox="0 0 24 24" fill="none" xmlns="http://www.w3.org/2000/svg"><path d="M11.260 2.025 C 9.946 2.134,8.672 2.484,7.551 3.044 C 7.049 3.295,6.439 3.659,6.239 3.827 C 6.055 3.982,5.947 4.222,5.947 4.480 C 5.947 4.910,5.993 4.969,7.512 6.484 C 8.424 7.394,8.955 7.893,9.060 7.942 C 9.303 8.055,9.694 8.065,9.960 7.966 C 10.703 7.690,10.871 7.637,11.188 7.576 C 11.647 7.489,12.357 7.489,12.820 7.578 C 13.018 7.615,13.396 7.729,13.660 7.830 C 14.061 7.984,14.186 8.015,14.420 8.016 C 14.913 8.019,14.931 8.005,16.484 6.448 C 18.028 4.900,18.024 4.906,17.993 4.430 C 17.970 4.056,17.869 3.922,17.363 3.591 C 16.187 2.819,14.663 2.266,13.200 2.080 C 12.833 2.034,11.586 1.998,11.260 2.025 M19.320 5.765 C 19.182 5.820,15.936 9.066,15.861 9.224 C 15.767 9.421,15.785 9.516,15.994 9.944 C 16.358 10.689,16.486 11.216,16.489 11.980 C 16.492 12.764,16.363 13.298,15.977 14.091 C 15.785 14.486,15.768 14.581,15.861 14.776 C 15.894 14.846,16.672 15.652,17.591 16.567 C 19.346 18.318,19.353 18.323,19.640 18.260 C 19.784 18.228,19.954 18.036,20.307 17.506 C 20.824 16.731,21.326 15.647,21.572 14.780 C 21.852 13.790,21.939 13.130,21.939 12.000 C 21.939 11.080,21.901 10.662,21.753 9.960 C 21.485 8.685,20.976 7.487,20.243 6.408 C 19.804 5.762,19.631 5.641,19.320 5.765 M4.100 6.032 C 3.896 6.128,3.749 6.296,3.460 6.763 C 2.706 7.982,2.221 9.362,2.035 10.820 C 1.969 11.334,1.970 12.710,2.036 13.200 C 2.199 14.412,2.615 15.733,3.131 16.680 C 3.613 17.565,3.881 17.901,4.181 18.000 C 4.383 18.067,4.763 18.029,4.929 17.926 C 5.001 17.881,5.702 17.200,6.487 16.412 C 7.890 15.004,7.915 14.976,7.982 14.743 C 8.073 14.424,8.043 14.190,7.846 13.700 C 7.406 12.606,7.408 11.372,7.851 10.300 C 7.993 9.955,8.016 9.859,8.017 9.600 C 8.019 9.084,8.015 9.079,6.448 7.514 C 5.685 6.752,4.997 6.097,4.920 6.058 C 4.710 5.952,4.297 5.939,4.100 6.032 M9.218 15.862 C 9.150 15.895,8.337 16.683,7.411 17.611 C 5.554 19.473,5.589 19.428,5.746 19.746 C 5.879 20.017,7.071 20.770,8.000 21.172 C 9.287 21.728,10.483 21.970,11.960 21.973 C 13.355 21.977,14.434 21.775,15.700 21.273 C 16.488 20.960,17.680 20.265,18.081 19.884 C 18.221 19.751,18.240 19.710,18.240 19.552 C 18.240 19.429,18.212 19.334,18.154 19.255 C 18.020 19.075,15.039 16.086,14.864 15.956 C 14.639 15.789,14.441 15.798,14.049 15.995 C 13.357 16.342,12.752 16.487,12.000 16.487 C 11.236 16.487,10.678 16.351,9.909 15.977 C 9.518 15.787,9.408 15.768,9.218 15.862 " fill="#292D32" stroke="none" fill-rule="evenodd"></path></svg>