<svg width="24" height="24" viewBox="0 0 24 24" fill="none" xmlns="http://www.w3.org/2000/svg"><path d="M11.560 2.044 C 11.165 2.120,10.855 2.329,9.960 3.120 C 8.686 4.247,8.605 4.278,6.978 4.279 C 6.186 4.280,5.882 4.294,5.708 4.340 C 5.071 4.506,4.585 4.952,4.354 5.583 C 4.274 5.800,4.265 5.925,4.241 7.060 C 4.207 8.736,4.255 8.613,3.084 9.992 C 2.324 10.888,2.215 11.043,2.095 11.400 C 1.995 11.701,1.995 12.299,2.095 12.600 C 2.215 12.958,2.330 13.122,3.068 13.988 C 3.877 14.936,3.978 15.077,4.115 15.437 C 4.212 15.690,4.216 15.745,4.241 16.940 C 4.265 18.075,4.274 18.200,4.354 18.417 C 4.580 19.036,5.040 19.466,5.677 19.656 C 5.852 19.708,6.096 19.720,6.937 19.721 C 8.592 19.722,8.628 19.735,9.936 20.859 C 10.436 21.288,10.927 21.688,11.028 21.747 C 11.432 21.983,12.028 22.061,12.498 21.939 C 12.896 21.835,13.148 21.665,14.040 20.896 C 14.960 20.104,15.103 20.002,15.515 19.846 C 15.770 19.750,15.825 19.745,17.020 19.721 C 18.426 19.693,18.495 19.679,18.951 19.344 C 19.236 19.134,19.404 18.927,19.559 18.594 C 19.723 18.244,19.758 17.932,19.760 16.820 C 19.761 16.292,19.781 15.779,19.803 15.680 C 19.900 15.259,20.095 14.967,20.897 14.040 C 21.708 13.104,21.870 12.860,21.956 12.448 C 22.052 11.988,21.988 11.490,21.780 11.080 C 21.725 10.971,21.327 10.472,20.896 9.971 C 20.034 8.968,19.840 8.659,19.762 8.160 C 19.739 8.017,19.720 7.447,19.720 6.894 C 19.720 6.008,19.711 5.858,19.641 5.634 C 19.449 5.010,18.923 4.504,18.299 4.342 C 18.116 4.294,17.830 4.280,17.020 4.280 C 15.427 4.280,15.365 4.256,14.015 3.092 C 13.046 2.258,12.840 2.124,12.399 2.040 C 12.153 1.993,11.813 1.995,11.560 2.044 M12.979 7.469 C 13.207 7.585,13.320 7.685,13.424 7.864 C 13.612 8.185,13.615 8.273,13.459 9.271 C 13.381 9.771,13.327 10.236,13.339 10.304 C 13.351 10.372,13.407 10.471,13.464 10.524 L 13.566 10.620 14.793 10.640 C 15.978 10.659,16.027 10.663,16.210 10.754 C 16.585 10.938,16.803 11.339,16.740 11.729 C 16.697 11.990,15.454 15.748,15.359 15.901 C 15.222 16.123,14.857 16.427,14.610 16.526 C 14.393 16.613,14.316 16.619,13.265 16.632 C 12.072 16.647,11.731 16.611,11.452 16.441 C 11.382 16.399,10.989 16.101,10.579 15.779 C 10.169 15.457,9.828 15.199,9.823 15.207 C 9.817 15.214,9.790 15.310,9.763 15.420 C 9.692 15.710,9.583 15.862,9.368 15.967 C 9.207 16.047,9.106 16.062,8.655 16.074 C 7.803 16.096,7.509 15.988,7.334 15.589 C 7.265 15.431,7.259 15.250,7.248 12.861 C 7.241 11.288,7.252 10.202,7.277 10.044 C 7.324 9.743,7.460 9.543,7.703 9.420 C 7.842 9.349,7.939 9.340,8.540 9.340 C 9.159 9.340,9.234 9.348,9.380 9.426 C 9.702 9.598,9.800 9.804,9.800 10.307 C 9.800 10.570,9.811 10.645,9.846 10.610 C 9.871 10.585,10.326 9.921,10.856 9.136 C 11.437 8.275,11.879 7.660,11.969 7.588 C 12.242 7.368,12.680 7.316,12.979 7.469 " fill="#292D32" stroke="none" fill-rule="evenodd"></path></svg>