<svg width="24" height="24" viewBox="0 0 24 24" fill="none" xmlns="http://www.w3.org/2000/svg"><path d="M5.580 2.028 C 4.635 2.162,3.745 2.797,3.320 3.640 C 3.259 3.761,3.167 3.986,3.115 4.140 L 3.020 4.420 3.009 10.289 C 2.998 16.650,2.990 16.406,3.213 16.958 C 3.564 17.827,4.219 18.426,5.140 18.720 C 5.377 18.796,5.557 18.815,6.320 18.843 C 7.331 18.879,7.635 18.936,8.107 19.174 C 8.515 19.379,8.718 19.553,9.824 20.646 C 10.737 21.548,10.854 21.651,11.125 21.779 C 11.542 21.977,11.955 22.034,12.365 21.950 C 12.938 21.832,13.032 21.764,14.260 20.578 C 15.430 19.448,15.599 19.308,16.023 19.116 C 16.447 18.923,16.744 18.875,17.700 18.841 C 18.442 18.815,18.624 18.796,18.860 18.721 C 19.859 18.404,20.573 17.685,20.886 16.680 L 20.980 16.380 20.980 10.420 L 20.980 4.460 20.886 4.161 C 20.566 3.141,19.815 2.404,18.780 2.094 C 18.554 2.026,18.174 2.022,12.120 2.017 C 8.589 2.014,5.646 2.019,5.580 2.028 M12.885 5.941 C 13.223 6.056,13.478 6.348,13.565 6.720 C 13.589 6.819,13.555 7.140,13.451 7.827 C 13.239 9.225,13.142 9.132,14.838 9.160 C 16.003 9.179,16.068 9.184,16.226 9.269 C 16.579 9.458,16.805 9.879,16.742 10.231 C 16.694 10.499,15.475 14.175,15.369 14.372 C 15.235 14.620,14.972 14.860,14.687 14.994 L 14.460 15.100 13.224 15.112 C 11.582 15.128,11.715 15.169,10.634 14.323 L 9.820 13.687 9.775 13.882 C 9.675 14.309,9.482 14.485,9.029 14.562 C 8.703 14.617,8.021 14.592,7.800 14.517 C 7.569 14.438,7.412 14.295,7.334 14.091 C 7.265 13.912,7.260 13.725,7.260 11.180 L 7.260 8.460 7.354 8.269 C 7.421 8.132,7.500 8.048,7.634 7.970 C 7.809 7.867,7.854 7.860,8.398 7.846 C 9.059 7.829,9.340 7.875,9.526 8.031 C 9.725 8.199,9.798 8.406,9.801 8.820 L 9.804 9.180 9.881 9.080 C 9.923 9.025,10.389 8.341,10.915 7.559 C 11.734 6.345,11.897 6.125,12.040 6.045 C 12.353 5.869,12.589 5.840,12.885 5.941 " fill="#292D32" stroke="none" fill-rule="evenodd"></path></svg>