<svg width="24" height="24" viewBox="0 0 24 24" fill="none" xmlns="http://www.w3.org/2000/svg"><path d="M5.580 2.028 C 4.635 2.162,3.745 2.797,3.320 3.640 C 3.259 3.761,3.167 3.986,3.115 4.140 L 3.020 4.420 3.009 10.289 C 2.998 16.650,2.990 16.406,3.213 16.958 C 3.564 17.827,4.219 18.426,5.140 18.720 C 5.377 18.796,5.557 18.815,6.320 18.843 C 7.331 18.879,7.635 18.936,8.107 19.174 C 8.515 19.379,8.718 19.553,9.824 20.646 C 10.737 21.548,10.854 21.651,11.125 21.779 C 11.542 21.977,11.955 22.034,12.365 21.950 C 12.938 21.832,13.032 21.764,14.260 20.578 C 15.430 19.448,15.599 19.308,16.023 19.116 C 16.447 18.923,16.744 18.875,17.700 18.841 C 18.442 18.815,18.624 18.796,18.860 18.721 C 19.859 18.404,20.573 17.685,20.886 16.680 L 20.980 16.380 20.980 10.420 L 20.980 4.460 20.886 4.161 C 20.566 3.141,19.815 2.404,18.780 2.094 C 18.554 2.026,18.174 2.022,12.120 2.017 C 8.589 2.014,5.646 2.019,5.580 2.028 M10.512 7.063 C 10.956 7.153,11.349 7.360,11.702 7.690 L 12.000 7.968 12.298 7.690 C 13.091 6.949,14.142 6.804,15.160 7.294 C 15.536 7.475,16.019 7.964,16.212 8.360 C 16.446 8.838,16.493 9.088,16.469 9.740 C 16.440 10.561,16.262 11.189,15.843 11.947 C 15.233 13.050,14.141 14.065,12.878 14.701 C 12.261 15.012,12.014 15.055,11.624 14.921 C 10.776 14.630,9.557 13.768,8.891 12.990 C 7.963 11.907,7.520 10.811,7.520 9.601 C 7.520 8.809,7.739 8.255,8.257 7.736 C 8.853 7.139,9.677 6.893,10.512 7.063 " fill="#292D32" stroke="none" fill-rule="evenodd"></path></svg>