<svg width="24" height="24" viewBox="0 0 24 24" fill="none" xmlns="http://www.w3.org/2000/svg"><path d="M12.664 2.341 C 12.328 2.433,11.962 2.640,11.720 2.874 C 11.552 3.036,11.092 3.687,10.086 5.185 C 9.317 6.332,8.649 7.344,8.603 7.434 C 8.393 7.845,8.400 7.645,8.400 13.418 C 8.401 19.280,8.388 18.962,8.639 19.432 C 8.815 19.763,8.990 19.934,9.793 20.560 C 10.702 21.269,10.867 21.376,11.233 21.498 C 11.877 21.712,11.988 21.720,14.405 21.720 C 16.828 21.720,16.972 21.710,17.499 21.495 C 18.217 21.204,18.852 20.644,19.173 20.020 C 19.230 19.910,19.728 18.443,20.281 16.760 C 20.833 15.077,21.437 13.237,21.623 12.670 C 21.996 11.535,22.049 11.239,21.962 10.792 C 21.823 10.078,21.380 9.584,20.610 9.285 L 20.340 9.181 17.880 9.160 C 15.458 9.140,15.418 9.139,15.260 9.054 C 14.975 8.901,14.811 8.654,14.775 8.328 C 14.762 8.202,14.848 7.562,15.038 6.386 C 15.193 5.421,15.320 4.520,15.320 4.384 C 15.320 3.838,15.095 3.331,14.662 2.900 C 14.366 2.606,14.017 2.401,13.680 2.323 C 13.433 2.267,12.901 2.276,12.664 2.341 M3.368 6.459 C 2.657 6.618,2.277 6.971,2.091 7.644 C 2.025 7.883,2.020 8.269,2.020 13.480 C 2.020 18.085,2.030 19.098,2.075 19.280 C 2.246 19.961,2.638 20.349,3.320 20.509 C 3.568 20.568,3.807 20.580,4.700 20.580 C 5.404 20.580,5.851 20.563,5.984 20.532 C 6.741 20.353,7.122 20.002,7.307 19.317 C 7.370 19.081,7.377 18.631,7.390 13.780 C 7.399 10.372,7.389 8.355,7.363 8.091 C 7.273 7.201,6.952 6.749,6.240 6.511 C 6.000 6.431,5.888 6.424,4.800 6.414 C 3.900 6.406,3.560 6.417,3.368 6.459 " fill="#292D32" stroke="none" fill-rule="evenodd"></path></svg>