<svg width="24" height="24" viewBox="0 0 24 24" fill="none" xmlns="http://www.w3.org/2000/svg"><path d="M13.659 2.071 C 13.246 2.216,12.897 2.487,12.674 2.837 C 12.511 3.092,11.036 7.583,11.011 7.900 C 10.973 8.379,11.258 8.825,11.718 9.009 C 11.928 9.092,12.016 9.098,13.360 9.119 C 14.890 9.142,14.908 9.144,15.020 9.359 C 15.108 9.530,15.096 9.739,14.940 10.726 C 14.783 11.719,14.772 11.943,14.864 12.213 C 14.949 12.462,15.249 12.789,15.499 12.906 C 15.931 13.107,16.559 12.979,16.867 12.628 C 16.937 12.549,17.504 11.723,18.127 10.792 L 19.260 9.100 19.287 9.537 C 19.310 9.905,19.332 10.008,19.428 10.196 C 19.525 10.386,19.575 10.436,19.778 10.539 C 20.008 10.657,20.031 10.660,20.682 10.674 C 21.088 10.682,21.437 10.670,21.572 10.642 C 21.849 10.584,22.090 10.413,22.209 10.191 L 22.300 10.020 22.300 6.637 L 22.300 3.254 22.180 3.059 C 21.973 2.725,21.608 2.602,20.820 2.601 C 19.829 2.600,19.407 2.850,19.332 3.482 C 19.319 3.591,19.300 3.680,19.290 3.680 C 19.280 3.680,18.847 3.352,18.328 2.952 C 17.705 2.472,17.302 2.190,17.142 2.122 L 16.900 2.020 15.380 2.010 C 14.015 2.001,13.840 2.008,13.659 2.071 M7.973 11.032 C 7.719 11.123,7.512 11.277,7.354 11.494 C 7.287 11.585,6.753 12.376,6.167 13.252 L 5.100 14.843 5.071 14.475 C 5.034 14.007,4.954 13.767,4.773 13.587 C 4.532 13.346,4.327 13.299,3.520 13.304 C 2.970 13.307,2.782 13.322,2.643 13.375 C 2.384 13.472,2.221 13.613,2.114 13.829 L 2.020 14.020 2.020 17.320 L 2.020 20.620 2.129 20.842 C 2.337 21.266,2.594 21.360,3.546 21.360 C 4.238 21.360,4.456 21.320,4.687 21.148 C 4.831 21.042,4.992 20.722,5.024 20.477 L 5.049 20.288 6.012 21.031 C 7.323 22.044,7.113 21.975,8.932 21.992 C 10.170 22.003,10.394 21.996,10.591 21.939 C 10.886 21.853,11.065 21.759,11.283 21.578 C 11.692 21.237,11.694 21.233,12.549 18.646 C 13.246 16.534,13.337 16.230,13.337 16.000 C 13.337 15.557,13.131 15.233,12.705 15.008 L 12.500 14.900 11.040 14.880 C 9.390 14.857,9.421 14.864,9.299 14.542 C 9.235 14.376,9.238 14.339,9.401 13.297 C 9.584 12.124,9.587 11.969,9.426 11.653 C 9.143 11.096,8.530 10.834,7.973 11.032 " fill="#292D32" stroke="none" fill-rule="evenodd"></path></svg>