<svg width="24" height="24" viewBox="0 0 24 24" fill="none" xmlns="http://www.w3.org/2000/svg"><path d="M11.120 2.039 C 8.336 2.318,5.905 3.624,4.193 5.760 C 1.474 9.155,1.267 13.917,3.682 17.533 C 6.770 22.155,12.946 23.386,17.560 20.299 C 22.155 17.225,23.377 11.041,20.299 6.440 C 18.728 4.092,16.319 2.562,13.493 2.119 C 12.909 2.027,11.660 1.985,11.120 2.039 M12.086 6.377 C 13.450 6.639,14.553 7.688,14.928 9.080 C 15.056 9.555,15.056 10.543,14.928 11.010 C 14.657 12.000,14.114 12.779,13.283 13.370 C 12.699 13.785,12.519 13.832,12.178 13.661 C 11.949 13.546,11.802 13.353,11.772 13.125 C 11.720 12.742,11.843 12.544,12.359 12.180 C 12.984 11.740,13.376 11.165,13.501 10.506 C 13.575 10.116,13.574 9.935,13.500 9.581 C 13.257 8.435,12.222 7.670,11.130 7.829 C 10.959 7.854,10.730 7.913,10.620 7.960 C 10.390 8.059,8.046 9.497,7.726 9.736 C 7.142 10.172,6.784 10.914,6.788 11.680 C 6.792 12.605,7.271 13.365,8.101 13.767 C 8.395 13.910,8.472 13.967,8.567 14.117 C 8.805 14.492,8.667 14.977,8.263 15.188 C 8.031 15.309,7.800 15.274,7.351 15.050 C 6.604 14.678,6.078 14.145,5.704 13.380 C 5.453 12.869,5.377 12.608,5.321 12.070 C 5.274 11.613,5.319 11.055,5.442 10.600 C 5.631 9.898,6.157 9.079,6.708 8.631 C 6.952 8.432,9.172 7.031,9.720 6.729 C 9.989 6.581,10.334 6.456,10.680 6.382 C 11.023 6.309,11.720 6.306,12.086 6.377 M16.489 8.803 C 17.284 9.116,18.010 9.819,18.400 10.651 C 18.653 11.191,18.737 11.595,18.737 12.280 C 18.737 12.746,18.719 12.930,18.648 13.214 C 18.454 13.991,18.131 14.556,17.560 15.120 C 17.205 15.471,17.075 15.562,15.838 16.325 C 14.353 17.241,14.170 17.341,13.680 17.504 C 13.362 17.609,13.298 17.617,12.680 17.616 C 12.077 17.616,11.990 17.606,11.668 17.507 C 11.019 17.308,10.533 17.011,10.078 16.534 C 9.641 16.078,9.368 15.606,9.172 14.972 C 9.071 14.645,9.064 14.570,9.064 13.900 C 9.064 13.228,9.071 13.156,9.174 12.820 C 9.389 12.116,9.804 11.423,10.264 10.998 C 10.508 10.773,11.132 10.328,11.307 10.255 C 11.499 10.174,11.680 10.188,11.902 10.300 C 12.251 10.475,12.401 10.857,12.263 11.218 C 12.188 11.413,12.103 11.495,11.583 11.875 C 10.579 12.606,10.242 13.878,10.768 14.951 C 10.923 15.268,11.369 15.743,11.638 15.880 C 12.337 16.234,13.010 16.236,13.654 15.888 C 13.811 15.803,14.471 15.403,15.120 15.001 C 16.059 14.418,16.353 14.215,16.561 14.004 C 17.131 13.427,17.378 12.615,17.222 11.836 C 17.075 11.098,16.685 10.582,16.003 10.220 C 15.500 9.953,15.380 9.807,15.380 9.460 C 15.380 9.243,15.397 9.183,15.500 9.038 C 15.725 8.720,16.069 8.638,16.489 8.803 " fill="#292D32" stroke="none" fill-rule="evenodd"></path></svg>