<svg width="24" height="24" viewBox="0 0 24 24" fill="none" xmlns="http://www.w3.org/2000/svg"><path d="M6.960 2.046 C 6.236 2.116,5.358 2.357,4.796 2.641 C 4.426 2.828,3.928 3.183,3.624 3.475 C 2.737 4.332,2.251 5.370,2.062 6.812 C 1.970 7.515,1.969 16.481,2.061 17.188 C 2.239 18.550,2.681 19.544,3.476 20.372 C 4.162 21.084,4.935 21.524,5.956 21.780 C 6.817 21.997,6.896 22.000,11.993 22.000 C 14.960 22.000,16.828 21.985,17.041 21.959 C 19.985 21.603,21.695 19.840,21.962 16.885 C 21.990 16.579,21.999 14.787,21.989 11.660 C 21.974 7.001,21.972 6.891,21.889 6.456 C 21.642 5.171,21.165 4.235,20.369 3.478 C 19.583 2.729,18.652 2.295,17.359 2.076 C 16.995 2.014,7.572 1.987,6.960 2.046 M11.545 5.935 C 12.783 6.202,13.796 7.018,14.382 8.220 C 14.722 8.918,14.873 9.660,14.825 10.408 C 14.781 11.086,14.658 11.561,14.376 12.134 C 14.122 12.648,13.917 12.915,13.138 13.737 C 12.580 14.326,12.405 14.487,12.262 14.541 C 11.778 14.726,11.282 14.376,11.281 13.848 C 11.280 13.731,11.308 13.582,11.343 13.515 C 11.377 13.449,11.714 13.064,12.093 12.660 C 12.471 12.257,12.842 11.824,12.917 11.700 C 13.237 11.170,13.402 10.417,13.325 9.839 C 13.164 8.647,12.374 7.710,11.320 7.462 C 10.983 7.383,10.363 7.383,10.058 7.462 C 9.751 7.541,9.361 7.723,9.121 7.899 C 8.827 8.115,6.490 10.599,6.293 10.904 C 5.681 11.855,5.689 13.132,6.314 14.080 C 6.746 14.736,7.368 15.130,8.213 15.282 C 8.639 15.359,8.854 15.561,8.905 15.930 C 8.949 16.254,8.801 16.537,8.507 16.686 C 8.267 16.809,7.826 16.771,7.241 16.577 C 6.577 16.356,6.190 16.111,5.640 15.560 C 5.004 14.924,4.694 14.376,4.471 13.494 C 4.394 13.191,4.382 13.040,4.384 12.440 C 4.387 11.815,4.399 11.697,4.494 11.340 C 4.618 10.874,4.955 10.166,5.219 9.820 C 5.520 9.424,7.946 6.897,8.233 6.681 C 8.747 6.293,9.490 5.975,10.100 5.881 C 10.424 5.831,11.195 5.860,11.545 5.935 M16.592 7.383 C 17.785 7.725,18.811 8.631,19.287 9.763 C 19.685 10.711,19.747 11.827,19.456 12.831 C 19.330 13.265,19.052 13.828,18.792 14.175 C 18.492 14.576,16.066 17.099,15.740 17.350 C 15.393 17.616,14.853 17.883,14.380 18.022 C 13.894 18.165,13.103 18.200,12.587 18.103 C 11.393 17.878,10.392 17.162,9.761 16.082 C 9.177 15.082,9.017 13.840,9.322 12.658 C 9.426 12.254,9.774 11.537,10.030 11.200 C 10.344 10.787,11.485 9.599,11.648 9.516 C 11.989 9.342,12.437 9.465,12.624 9.783 C 12.741 9.983,12.752 10.314,12.648 10.507 C 12.611 10.577,12.293 10.937,11.943 11.307 C 11.593 11.677,11.223 12.108,11.121 12.264 C 10.770 12.799,10.595 13.556,10.677 14.175 C 10.771 14.884,11.010 15.375,11.501 15.869 C 11.763 16.133,11.894 16.229,12.164 16.359 C 12.515 16.527,12.981 16.640,13.325 16.640 C 13.810 16.640,14.447 16.428,14.848 16.134 C 15.143 15.917,17.556 13.368,17.714 13.105 C 18.042 12.561,18.178 12.027,18.148 11.400 C 18.110 10.625,17.861 10.058,17.322 9.517 C 16.864 9.058,16.489 8.859,15.893 8.757 C 15.532 8.695,15.344 8.594,15.210 8.392 C 15.120 8.256,15.100 8.181,15.100 7.980 C 15.100 7.673,15.229 7.455,15.487 7.323 C 15.636 7.247,15.700 7.238,15.952 7.259 C 16.112 7.273,16.400 7.329,16.592 7.383 " fill="#292D32" stroke="none" fill-rule="evenodd"></path></svg>