<svg width="24" height="24" viewBox="0 0 24 24" fill="none" xmlns="http://www.w3.org/2000/svg"><path d="M8.020 5.442 C 6.639 5.562,5.267 6.152,4.222 7.076 C 1.769 9.245,1.292 12.939,3.117 15.646 C 4.091 17.092,5.439 18.014,7.181 18.425 C 7.634 18.532,7.710 18.538,8.580 18.538 C 9.450 18.538,9.526 18.532,9.979 18.425 C 10.857 18.218,11.576 17.906,12.295 17.422 C 13.945 16.309,15.033 14.393,15.147 12.398 C 15.177 11.869,15.150 11.716,14.989 11.533 C 14.687 11.190,14.193 11.190,13.891 11.533 C 13.753 11.691,13.736 11.757,13.699 12.300 C 13.612 13.570,13.095 14.710,12.202 15.602 C 11.617 16.188,10.904 16.622,10.120 16.871 C 9.562 17.048,9.208 17.099,8.560 17.097 C 7.213 17.093,6.042 16.621,5.072 15.690 C 4.621 15.257,4.314 14.850,4.046 14.328 C 3.654 13.564,3.480 12.844,3.480 11.975 C 3.480 10.615,4.007 9.346,4.976 8.376 C 5.876 7.477,6.992 6.974,8.296 6.882 C 8.932 6.837,9.110 6.746,9.258 6.391 C 9.336 6.204,9.336 6.076,9.258 5.889 C 9.084 5.472,8.810 5.374,8.020 5.442 M14.680 5.464 C 14.625 5.473,14.409 5.510,14.200 5.545 C 13.126 5.725,11.940 6.304,11.066 7.074 C 9.743 8.240,8.918 9.935,8.850 11.626 C 8.831 12.113,8.836 12.166,8.918 12.337 C 9.035 12.577,9.281 12.729,9.555 12.729 C 9.775 12.729,9.886 12.682,10.069 12.508 C 10.231 12.355,10.267 12.237,10.299 11.760 C 10.372 10.683,10.713 9.758,11.348 8.915 C 12.305 7.644,13.769 6.916,15.380 6.911 C 16.745 6.907,17.934 7.374,18.910 8.296 C 19.999 9.327,20.563 10.704,20.508 12.200 C 20.470 13.214,20.203 14.031,19.633 14.884 C 18.761 16.188,17.327 17.003,15.704 17.118 C 15.179 17.155,15.053 17.196,14.873 17.386 C 14.506 17.774,14.698 18.414,15.225 18.561 C 15.552 18.653,16.557 18.533,17.292 18.314 C 19.418 17.683,21.116 15.968,21.737 13.826 C 21.927 13.171,21.976 12.794,21.976 12.000 C 21.976 11.467,21.957 11.157,21.907 10.891 C 21.642 9.479,21.028 8.312,20.032 7.330 C 19.102 6.413,18.029 5.836,16.740 5.559 C 16.429 5.492,16.167 5.470,15.560 5.460 C 15.131 5.452,14.735 5.454,14.680 5.464 " fill="#292D32" stroke="none" fill-rule="evenodd"></path></svg>