<svg width="24" height="24" viewBox="0 0 24 24" fill="none" xmlns="http://www.w3.org/2000/svg"><path d="M13.806 3.040 C 10.933 3.341,8.651 5.348,8.008 8.140 C 7.749 9.260,7.803 10.481,8.160 11.600 C 8.327 12.123,8.786 13.031,9.092 13.441 C 9.400 13.855,9.817 14.306,9.958 14.379 C 10.286 14.549,10.732 14.406,10.920 14.072 C 11.015 13.902,11.033 13.650,10.962 13.466 C 10.938 13.403,10.810 13.232,10.677 13.086 C 9.993 12.335,9.538 11.399,9.376 10.406 C 9.299 9.940,9.321 8.971,9.417 8.540 C 9.864 6.542,11.347 5.044,13.320 4.596 C 13.811 4.485,14.640 4.456,15.140 4.534 C 16.240 4.704,17.161 5.150,17.943 5.890 C 18.740 6.644,19.276 7.646,19.465 8.735 C 19.560 9.282,19.522 10.283,19.386 10.825 C 19.189 11.605,18.801 12.343,18.260 12.965 C 17.915 13.362,17.840 13.494,17.840 13.707 C 17.840 14.233,18.309 14.569,18.812 14.403 C 18.900 14.374,19.057 14.246,19.227 14.068 C 20.094 13.153,20.642 12.054,20.907 10.700 C 21.017 10.141,21.007 8.962,20.888 8.370 C 20.623 7.053,20.066 5.972,19.164 5.029 C 18.172 3.990,16.831 3.294,15.420 3.084 C 15.006 3.022,14.187 3.000,13.806 3.040 M5.140 9.623 C 4.987 9.702,4.770 9.911,4.502 10.240 C 3.773 11.133,3.312 12.146,3.094 13.332 C 3.010 13.789,2.999 14.963,3.074 15.400 C 3.324 16.842,3.891 17.985,4.858 18.994 C 6.906 21.127,10.203 21.603,12.800 20.140 C 13.613 19.682,14.403 18.977,14.929 18.238 C 15.238 17.804,15.665 16.968,15.816 16.500 C 16.521 14.318,16.081 11.972,14.638 10.220 C 14.195 9.681,14.026 9.560,13.720 9.560 C 13.314 9.560,13.000 9.872,13.000 10.276 C 13.000 10.506,13.057 10.623,13.288 10.876 C 14.222 11.894,14.680 13.053,14.680 14.400 C 14.680 15.769,14.211 16.953,13.283 17.930 C 11.910 19.375,9.856 19.890,7.974 19.261 C 7.195 19.000,6.605 18.642,6.014 18.070 C 4.081 16.201,3.927 13.183,5.660 11.131 C 5.836 10.922,6.013 10.711,6.053 10.662 C 6.140 10.556,6.180 10.301,6.143 10.102 C 6.110 9.928,5.908 9.688,5.732 9.614 C 5.560 9.542,5.288 9.546,5.140 9.623 " fill="#292D32" stroke="none" fill-rule="evenodd"></path></svg>