<svg width="24" height="24" viewBox="0 0 24 24" fill="none" xmlns="http://www.w3.org/2000/svg"><path d="M6.820 6.582 C 4.704 6.940,2.896 8.460,2.261 10.417 C 2.060 11.037,2.020 11.308,2.021 12.040 C 2.021 12.521,2.041 12.791,2.093 13.035 C 2.344 14.208,2.805 15.060,3.634 15.881 C 4.303 16.543,4.976 16.960,5.820 17.234 C 6.550 17.471,6.817 17.497,8.580 17.498 C 9.836 17.500,10.213 17.488,10.335 17.445 C 10.552 17.368,10.796 17.136,10.906 16.900 L 10.999 16.700 11.000 14.730 L 11.000 12.760 11.999 12.760 L 12.997 12.760 13.009 14.770 C 13.020 16.758,13.021 16.782,13.109 16.946 C 13.218 17.150,13.489 17.388,13.678 17.444 C 13.772 17.472,14.377 17.480,15.460 17.469 C 17.243 17.451,17.305 17.445,18.060 17.195 C 18.942 16.904,19.681 16.444,20.363 15.762 C 21.199 14.926,21.651 14.099,21.902 12.939 C 22.007 12.457,21.998 11.466,21.886 10.932 C 21.406 8.661,19.631 6.944,17.390 6.580 C 16.873 6.497,13.824 6.492,13.626 6.575 C 13.438 6.653,13.210 6.866,13.108 7.056 C 13.021 7.218,13.020 7.249,13.009 9.230 L 12.997 11.240 11.999 11.240 L 11.000 11.240 11.000 9.270 L 10.999 7.300 10.906 7.100 C 10.804 6.882,10.581 6.662,10.374 6.575 C 10.189 6.498,7.286 6.503,6.820 6.582 M11.000 12.000 L 11.000 12.760 9.470 12.760 C 8.516 12.760,7.883 12.744,7.787 12.717 C 7.572 12.657,7.344 12.416,7.286 12.186 C 7.190 11.806,7.425 11.385,7.785 11.289 C 7.877 11.265,8.565 11.247,9.470 11.244 L 11.000 11.240 11.000 12.000 M16.300 11.316 C 16.494 11.405,16.616 11.532,16.698 11.729 C 16.849 12.090,16.672 12.516,16.302 12.685 C 16.154 12.752,16.007 12.758,14.570 12.759 L 13.000 12.760 13.000 12.000 L 13.000 11.240 14.570 11.241 C 16.011 11.242,16.153 11.248,16.300 11.316 " fill="#292D32" stroke="none" fill-rule="evenodd"></path></svg>