<svg width="24" height="24" viewBox="0 0 24 24" fill="none" xmlns="http://www.w3.org/2000/svg"><path d="M7.120 2.265 C 5.465 2.397,4.119 3.024,2.999 4.185 C 2.140 5.075,1.609 6.100,1.354 7.360 C 1.239 7.925,1.231 9.001,1.337 9.560 C 1.498 10.411,1.858 11.303,2.315 11.986 C 2.634 12.463,2.831 12.656,3.065 12.721 C 3.525 12.850,4.000 12.486,4.000 12.004 C 4.000 11.782,3.953 11.679,3.681 11.305 C 2.287 9.386,2.485 6.825,4.155 5.155 C 4.888 4.422,5.741 3.981,6.738 3.819 C 7.270 3.733,12.730 3.733,13.262 3.819 C 15.017 4.104,16.514 5.405,17.038 7.104 C 17.370 8.178,17.288 9.435,16.819 10.465 C 16.225 11.769,15.077 12.725,13.643 13.111 C 13.267 13.212,13.227 13.215,11.540 13.237 C 9.897 13.259,9.813 13.264,9.660 13.344 C 9.139 13.616,9.121 14.330,9.627 14.645 L 9.780 14.740 11.480 14.740 C 13.086 14.739,13.205 14.734,13.627 14.649 C 14.539 14.465,15.372 14.116,16.083 13.621 C 16.516 13.319,17.319 12.516,17.621 12.083 C 18.112 11.377,18.464 10.540,18.647 9.640 C 18.768 9.041,18.768 7.959,18.647 7.360 C 18.393 6.110,17.861 5.077,17.021 4.205 C 16.036 3.181,14.948 2.602,13.504 2.331 C 13.236 2.281,12.673 2.268,10.240 2.261 C 8.623 2.255,7.219 2.258,7.120 2.265 M10.948 9.282 C 9.477 9.413,8.162 10.033,7.097 11.097 C 6.363 11.831,5.896 12.579,5.585 13.520 C 4.830 15.799,5.400 18.205,7.097 19.903 C 8.191 20.996,9.479 21.591,11.031 21.720 C 11.641 21.770,16.359 21.770,16.969 21.720 C 18.100 21.626,19.055 21.295,19.981 20.675 C 22.946 18.693,23.639 14.659,21.511 11.775 C 21.165 11.306,20.858 11.161,20.501 11.298 C 20.033 11.476,19.855 12.034,20.138 12.433 C 20.715 13.248,20.929 13.670,21.106 14.350 C 21.245 14.882,21.280 15.776,21.182 16.300 C 20.986 17.352,20.522 18.211,19.756 18.941 C 19.081 19.585,18.340 19.968,17.403 20.159 C 17.027 20.236,16.858 20.240,14.000 20.240 C 11.142 20.240,10.973 20.236,10.597 20.159 C 9.584 19.953,8.773 19.505,8.059 18.756 C 7.201 17.857,6.760 16.750,6.760 15.500 C 6.760 14.239,7.204 13.136,8.076 12.228 C 8.748 11.530,9.449 11.124,10.417 10.871 C 10.713 10.794,10.885 10.785,12.460 10.763 L 14.180 10.740 14.359 10.639 C 14.702 10.448,14.829 10.010,14.646 9.651 C 14.544 9.452,14.391 9.337,14.156 9.283 C 13.951 9.235,11.479 9.235,10.948 9.282 " fill="#292D32" stroke="none" fill-rule="evenodd"></path></svg>