<svg width="24" height="24" viewBox="0 0 24 24" fill="none" xmlns="http://www.w3.org/2000/svg"><path d="M11.020 1.804 C 10.486 1.860,9.675 2.032,9.140 2.203 C 6.831 2.941,5.022 4.486,4.015 6.580 C 3.588 7.467,3.262 8.690,3.157 9.800 C 3.100 10.400,3.130 11.482,3.220 12.080 C 3.655 14.966,5.321 17.889,8.031 20.525 C 8.622 21.100,9.037 21.405,9.624 21.695 C 11.324 22.536,13.408 22.399,14.997 21.342 C 15.897 20.744,17.512 18.987,18.530 17.500 C 19.777 15.677,20.487 13.945,20.785 12.000 C 20.871 11.433,20.883 10.045,20.805 9.480 C 20.506 7.297,19.654 5.534,18.251 4.196 C 16.887 2.895,15.047 2.053,13.058 1.820 C 12.509 1.756,11.551 1.749,11.020 1.804 M12.780 7.259 C 13.315 7.399,13.939 7.771,14.301 8.165 C 15.092 9.024,15.339 10.175,14.979 11.315 C 14.697 12.209,13.917 12.992,13.011 13.292 C 11.096 13.924,9.127 12.671,8.880 10.663 C 8.681 9.045,9.791 7.540,11.420 7.217 C 11.763 7.149,12.441 7.170,12.780 7.259 " fill="#292D32" stroke="none" fill-rule="evenodd"></path></svg>