<svg width="24" height="24" viewBox="0 0 24 24" fill="none" xmlns="http://www.w3.org/2000/svg"><path d="M11.160 2.040 C 7.944 2.376,5.370 4.090,4.059 6.772 C 3.646 7.614,3.370 8.549,3.215 9.620 C 3.121 10.274,3.121 11.564,3.215 12.220 C 3.458 13.911,4.045 15.479,5.042 17.098 L 5.331 17.567 3.750 19.153 C 2.881 20.026,2.142 20.795,2.108 20.861 C 1.947 21.182,1.995 21.524,2.235 21.764 C 2.467 21.996,2.777 22.056,3.060 21.923 C 3.172 21.871,6.039 19.026,12.566 12.494 C 20.262 4.791,21.920 3.113,21.960 2.985 C 22.061 2.668,21.914 2.302,21.613 2.116 C 21.422 1.998,21.088 1.989,20.880 2.096 C 20.803 2.136,20.206 2.700,19.553 3.350 L 18.367 4.531 18.057 4.261 C 16.721 3.096,15.126 2.368,13.320 2.100 C 12.811 2.025,11.626 1.992,11.160 2.040 M13.580 13.440 L 7.141 19.880 7.780 20.523 C 8.452 21.198,8.861 21.536,9.308 21.786 C 11.246 22.870,13.500 22.726,15.280 21.405 C 15.651 21.130,16.574 20.203,17.196 19.482 C 19.256 17.091,20.400 14.782,20.786 12.240 C 20.870 11.683,20.882 10.331,20.807 9.760 C 20.732 9.189,20.574 8.446,20.435 8.009 C 20.284 7.534,20.077 7.000,20.044 7.000 C 20.031 7.000,17.122 9.898,13.580 13.440 M12.954 7.316 C 13.160 7.385,13.453 7.514,13.607 7.604 C 13.875 7.760,14.480 8.299,14.480 8.380 C 14.480 8.402,13.489 9.410,12.278 10.620 L 10.077 12.820 9.745 12.479 C 9.260 11.979,8.988 11.439,8.884 10.766 C 8.633 9.149,9.716 7.588,11.342 7.223 C 11.537 7.180,11.763 7.165,12.100 7.176 C 12.507 7.188,12.637 7.210,12.954 7.316 " fill="#292D32" stroke="none" fill-rule="evenodd"></path></svg>