<svg width="24" height="24" viewBox="0 0 24 24" fill="none" xmlns="http://www.w3.org/2000/svg"><path d="M11.120 2.042 C 9.636 2.185,8.125 2.713,6.916 3.511 C 4.823 4.892,3.575 6.974,3.194 9.720 C 3.116 10.289,3.127 11.711,3.214 12.280 C 3.664 15.200,5.197 17.948,7.875 20.636 C 8.643 21.405,9.175 21.785,9.926 22.095 C 11.622 22.797,13.536 22.594,15.078 21.549 C 15.460 21.290,16.830 19.925,17.416 19.220 C 19.345 16.900,20.433 14.639,20.785 12.220 C 20.880 11.569,20.880 10.281,20.785 9.620 C 20.474 7.464,19.607 5.707,18.204 4.394 C 16.912 3.185,15.232 2.394,13.332 2.100 C 12.846 2.025,11.628 1.993,11.120 2.042 M10.280 8.302 C 10.393 8.324,10.577 8.485,11.221 9.124 L 12.022 9.918 12.741 9.196 C 13.137 8.799,13.527 8.440,13.608 8.397 C 13.878 8.257,14.234 8.306,14.455 8.513 C 14.685 8.728,14.749 9.110,14.603 9.392 C 14.560 9.473,14.201 9.863,13.804 10.259 L 13.082 10.978 13.876 11.779 C 14.612 12.521,14.673 12.594,14.711 12.771 C 14.816 13.270,14.488 13.700,14.004 13.697 C 13.875 13.696,13.729 13.668,13.660 13.631 C 13.594 13.595,13.199 13.223,12.781 12.804 L 12.022 12.042 11.201 12.857 C 10.315 13.736,10.223 13.798,9.882 13.740 C 9.515 13.678,9.272 13.387,9.272 13.008 C 9.272 12.873,9.298 12.722,9.333 12.656 C 9.367 12.592,9.747 12.189,10.177 11.761 L 10.959 10.982 10.185 10.201 C 9.759 9.771,9.388 9.377,9.361 9.325 C 9.291 9.190,9.300 8.795,9.376 8.648 C 9.492 8.424,9.869 8.217,10.080 8.261 C 10.113 8.268,10.203 8.287,10.280 8.302 " fill="#292D32" stroke="none" fill-rule="evenodd"></path></svg>