<svg width="24" height="24" viewBox="0 0 24 24" fill="none" xmlns="http://www.w3.org/2000/svg"><path d="M11.120 2.042 C 9.636 2.185,8.125 2.713,6.916 3.511 C 4.823 4.892,3.575 6.974,3.194 9.720 C 3.116 10.289,3.127 11.711,3.214 12.280 C 3.664 15.200,5.197 17.948,7.875 20.636 C 8.643 21.405,9.175 21.785,9.926 22.095 C 11.622 22.797,13.536 22.594,15.078 21.549 C 15.460 21.290,16.830 19.925,17.416 19.220 C 19.345 16.900,20.433 14.639,20.785 12.220 C 20.880 11.569,20.880 10.281,20.785 9.620 C 20.474 7.464,19.607 5.707,18.204 4.394 C 16.912 3.185,15.232 2.394,13.332 2.100 C 12.846 2.025,11.628 1.993,11.120 2.042 M15.146 8.384 C 15.452 8.558,15.568 8.993,15.401 9.337 C 15.349 9.445,14.621 10.199,13.231 11.583 C 11.441 13.366,11.116 13.673,10.975 13.713 C 10.751 13.777,10.647 13.771,10.460 13.683 C 10.265 13.592,8.623 11.952,8.562 11.787 C 8.508 11.642,8.508 11.356,8.563 11.213 C 8.700 10.849,9.170 10.663,9.549 10.821 C 9.634 10.857,9.921 11.106,10.229 11.410 L 10.761 11.937 12.571 10.131 C 13.720 8.984,14.416 8.317,14.480 8.304 C 14.707 8.257,14.745 8.253,14.860 8.271 C 14.926 8.281,15.055 8.332,15.146 8.384 " fill="#292D32" stroke="none" fill-rule="evenodd"></path></svg>