<svg width="24" height="24" viewBox="0 0 24 24" fill="none" xmlns="http://www.w3.org/2000/svg"><path d="M11.120 2.042 C 9.636 2.185,8.125 2.713,6.916 3.511 C 4.823 4.892,3.575 6.974,3.194 9.720 C 3.116 10.289,3.127 11.711,3.214 12.280 C 3.664 15.200,5.197 17.948,7.875 20.636 C 8.643 21.405,9.175 21.785,9.926 22.095 C 11.622 22.797,13.536 22.594,15.078 21.549 C 15.460 21.290,16.830 19.925,17.416 19.220 C 19.345 16.900,20.433 14.639,20.785 12.220 C 20.880 11.569,20.880 10.281,20.785 9.620 C 20.474 7.464,19.607 5.707,18.204 4.394 C 16.912 3.185,15.232 2.394,13.332 2.100 C 12.846 2.025,11.628 1.993,11.120 2.042 M12.368 7.610 C 12.463 7.663,12.571 7.773,12.634 7.880 L 12.740 8.060 12.753 9.147 L 12.766 10.234 13.853 10.247 L 14.940 10.260 15.120 10.366 C 15.630 10.665,15.603 11.392,15.073 11.656 L 14.864 11.760 13.815 11.760 L 12.766 11.760 12.753 12.850 L 12.740 13.940 12.634 14.120 C 12.345 14.612,11.655 14.612,11.366 14.120 L 11.260 13.940 11.248 12.850 L 11.235 11.760 10.204 11.760 C 9.526 11.760,9.125 11.744,9.036 11.714 C 8.421 11.504,8.327 10.691,8.880 10.366 L 9.060 10.260 10.148 10.247 L 11.235 10.234 11.248 9.147 C 11.260 8.074,11.261 8.058,11.359 7.887 C 11.559 7.537,12.016 7.412,12.368 7.610 " fill="#292D32" stroke="none" fill-rule="evenodd"></path></svg>