<svg width="24" height="24" viewBox="0 0 24 24" fill="none" xmlns="http://www.w3.org/2000/svg"><path d="M11.460 1.265 C 8.341 1.412,6.428 2.625,5.667 4.940 C 5.345 5.919,5.277 6.502,5.251 8.486 L 5.231 10.112 5.005 10.140 C 4.604 10.190,4.028 10.359,3.680 10.530 C 3.200 10.766,2.760 11.206,2.528 11.680 C 2.328 12.090,2.186 12.609,2.092 13.280 C 2.031 13.710,2.021 14.091,2.021 16.000 C 2.021 18.417,2.045 18.775,2.263 19.600 C 2.426 20.218,2.634 20.600,3.017 20.983 C 3.400 21.366,3.782 21.574,4.400 21.737 C 5.339 21.985,5.170 21.980,12.000 21.980 C 18.830 21.980,18.661 21.985,19.600 21.737 C 20.218 21.574,20.600 21.366,20.983 20.983 C 21.366 20.600,21.574 20.218,21.737 19.600 C 21.955 18.777,21.979 18.417,21.979 16.000 C 21.979 14.094,21.969 13.709,21.908 13.280 C 21.814 12.610,21.672 12.091,21.472 11.680 C 21.240 11.206,20.800 10.766,20.320 10.530 C 19.972 10.359,19.396 10.190,18.995 10.140 L 18.770 10.112 18.748 8.486 C 18.722 6.500,18.654 5.916,18.333 4.940 C 18.003 3.937,17.403 3.081,16.611 2.483 C 15.825 1.890,14.569 1.451,13.300 1.324 C 12.831 1.278,11.860 1.246,11.460 1.265 M13.046 2.800 C 15.542 3.044,16.776 4.118,17.143 6.367 C 17.195 6.687,17.215 7.144,17.229 8.390 L 17.248 10.000 12.000 10.000 L 6.752 10.000 6.771 8.390 C 6.790 6.660,6.823 6.305,7.024 5.611 C 7.528 3.872,8.795 2.985,11.060 2.787 C 11.431 2.755,12.663 2.763,13.046 2.800 M8.467 15.114 C 8.950 15.360,9.140 16.026,8.862 16.501 C 8.378 17.326,7.110 17.056,7.012 16.107 C 6.967 15.666,7.241 15.214,7.643 15.066 C 7.876 14.981,8.250 15.002,8.467 15.114 M12.295 15.057 C 13.126 15.307,13.245 16.424,12.489 16.869 C 12.328 16.964,12.256 16.980,12.000 16.980 C 11.744 16.980,11.672 16.964,11.511 16.869 C 10.922 16.522,10.834 15.712,11.335 15.244 C 11.453 15.134,11.802 15.003,11.984 15.001 C 12.052 15.001,12.192 15.025,12.295 15.057 M16.323 15.064 C 16.907 15.237,17.179 15.983,16.851 16.516 C 16.457 17.156,15.539 17.150,15.141 16.503 C 15.034 16.329,15.020 16.271,15.020 16.003 C 15.020 15.744,15.036 15.673,15.131 15.511 C 15.263 15.287,15.454 15.132,15.689 15.059 C 15.920 14.987,16.065 14.988,16.323 15.064 " fill="#292D32" stroke="none" fill-rule="evenodd"></path></svg>