<svg width="24" height="24" viewBox="0 0 24 24" fill="none" xmlns="http://www.w3.org/2000/svg"><path d="M11.300 2.024 C 9.539 2.204,8.189 2.631,6.870 3.426 C 4.628 4.776,3.006 6.932,2.342 9.443 C 2.101 10.351,2.026 10.964,2.026 12.000 C 2.026 12.726,2.043 13.008,2.113 13.460 C 2.450 15.630,3.409 17.532,4.939 19.061 C 6.468 20.591,8.370 21.550,10.540 21.887 C 11.338 22.011,12.662 22.011,13.460 21.887 C 15.630 21.550,17.532 20.591,19.061 19.061 C 20.591 17.532,21.550 15.630,21.887 13.460 C 22.011 12.662,22.011 11.338,21.887 10.540 C 21.550 8.370,20.591 6.468,19.061 4.939 C 17.535 3.412,15.604 2.438,13.472 2.117 C 12.963 2.040,11.678 1.985,11.300 2.024 M12.665 6.283 C 13.608 6.388,14.287 6.672,14.808 7.180 C 15.463 7.820,15.712 8.547,15.756 9.952 L 15.780 10.725 16.041 10.812 C 16.577 10.992,16.970 11.361,17.155 11.857 C 17.342 12.357,17.377 12.701,17.376 14.020 C 17.375 15.130,17.366 15.301,17.290 15.652 C 17.077 16.641,16.647 17.071,15.652 17.293 C 15.267 17.378,15.204 17.380,12.000 17.380 C 8.796 17.380,8.733 17.378,8.348 17.293 C 7.353 17.071,6.923 16.641,6.710 15.652 C 6.635 15.303,6.625 15.127,6.623 14.040 C 6.621 12.773,6.646 12.488,6.801 11.987 C 6.976 11.420,7.416 10.976,7.973 10.805 L 8.220 10.730 8.246 9.935 C 8.274 9.065,8.334 8.689,8.525 8.194 C 8.815 7.440,9.370 6.877,10.121 6.573 C 10.826 6.289,11.761 6.182,12.665 6.283 M11.300 7.797 C 10.803 7.879,10.528 7.997,10.257 8.247 C 9.903 8.573,9.760 9.088,9.760 10.038 L 9.760 10.640 12.000 10.640 L 14.240 10.640 14.240 10.038 C 14.240 8.656,13.930 8.119,12.980 7.851 C 12.746 7.785,11.599 7.748,11.300 7.797 M11.560 13.003 C 11.158 13.185,10.920 13.555,10.921 14.000 C 10.922 14.622,11.379 15.079,12.000 15.079 C 12.621 15.079,13.078 14.622,13.079 14.000 C 13.080 13.379,12.622 12.922,12.000 12.922 C 11.824 12.922,11.682 12.948,11.560 13.003 " fill="#292D32" stroke="none" fill-rule="evenodd"></path></svg>