<svg width="24" height="24" viewBox="0 0 24 24" fill="none" xmlns="http://www.w3.org/2000/svg"><path d="M11.040 2.041 C 8.574 2.274,7.033 3.230,6.281 4.992 C 5.878 5.934,5.720 6.980,5.720 8.698 L 5.720 9.544 5.381 9.593 C 3.656 9.842,2.614 10.749,2.243 12.322 C 2.069 13.059,2.033 13.509,2.012 15.269 C 1.978 17.971,2.103 19.066,2.553 20.005 L 2.661 20.230 2.372 20.537 C 2.001 20.930,1.922 21.177,2.062 21.511 C 2.144 21.708,2.266 21.835,2.460 21.924 C 2.667 22.020,2.856 22.018,3.080 21.917 C 3.222 21.854,5.217 19.880,12.472 12.628 C 17.539 7.564,21.748 3.335,21.825 3.231 C 22.100 2.861,22.027 2.405,21.652 2.144 C 21.514 2.049,21.441 2.027,21.252 2.026 C 21.104 2.025,20.970 2.050,20.880 2.096 C 20.803 2.136,20.088 2.819,19.290 3.614 C 18.492 4.408,17.840 5.035,17.840 5.006 C 17.840 4.931,17.538 4.340,17.388 4.122 C 17.319 4.022,17.119 3.790,16.943 3.607 C 16.161 2.792,15.093 2.322,13.520 2.100 C 12.976 2.023,11.579 1.990,11.040 2.041 M13.023 3.443 C 14.652 3.602,15.726 4.119,16.336 5.040 C 16.492 5.276,16.695 5.763,16.742 6.015 L 16.771 6.169 15.135 7.805 L 13.500 9.440 10.305 9.440 L 7.110 9.440 7.130 8.290 C 7.157 6.715,7.281 6.047,7.693 5.260 C 7.910 4.845,8.456 4.280,8.855 4.060 C 9.417 3.749,10.055 3.556,10.840 3.460 C 11.368 3.395,12.451 3.387,13.023 3.443 M17.756 9.618 C 17.262 9.754,17.150 9.848,15.409 11.578 L 13.757 13.220 14.112 13.580 C 14.641 14.118,14.910 14.657,14.997 15.356 C 15.078 16.002,14.912 16.751,14.557 17.341 C 14.378 17.638,13.800 18.187,13.498 18.346 C 12.900 18.661,12.296 18.784,11.680 18.716 C 10.913 18.631,10.313 18.325,9.763 17.737 L 9.510 17.467 8.057 18.925 C 6.463 20.524,6.433 20.563,6.435 20.999 C 6.437 21.393,6.625 21.701,6.980 21.894 L 7.140 21.980 12.060 21.992 C 15.405 22.001,17.191 21.990,17.638 21.960 C 18.949 21.870,19.788 21.644,20.425 21.209 C 21.282 20.624,21.736 19.703,21.928 18.160 C 22.001 17.571,22.001 13.866,21.927 13.280 C 21.652 11.077,20.841 10.074,19.000 9.656 C 18.533 9.550,18.055 9.535,17.756 9.618 M11.645 15.375 L 10.550 16.471 10.678 16.657 C 11.043 17.187,11.749 17.460,12.356 17.304 C 13.035 17.130,13.481 16.653,13.609 15.962 C 13.687 15.543,13.532 14.998,13.240 14.666 C 13.131 14.541,12.800 14.280,12.753 14.280 C 12.745 14.280,12.247 14.773,11.645 15.375 " fill="#292D32" stroke="none" fill-rule="evenodd"></path></svg>