<svg width="24" height="24" viewBox="0 0 24 24" fill="none" xmlns="http://www.w3.org/2000/svg"><path d="M11.220 2.028 C 8.340 2.226,6.601 3.488,6.000 5.818 C 5.810 6.556,5.754 7.073,5.726 8.358 L 5.700 9.537 5.380 9.586 C 4.546 9.716,3.723 10.064,3.271 10.478 C 2.501 11.184,2.158 12.112,2.038 13.814 C 1.972 14.742,2.009 17.741,2.094 18.325 C 2.394 20.413,3.211 21.384,5.000 21.782 C 5.891 21.980,5.881 21.980,12.000 21.980 C 18.119 21.980,18.109 21.980,19.000 21.782 C 20.587 21.429,21.423 20.596,21.782 19.009 C 21.953 18.249,21.980 17.795,21.979 15.660 C 21.978 13.980,21.967 13.580,21.908 13.160 C 21.731 11.889,21.435 11.186,20.820 10.575 C 20.546 10.302,20.426 10.217,20.077 10.045 C 19.623 9.823,19.120 9.664,18.620 9.586 L 18.300 9.537 18.274 8.378 C 18.258 7.687,18.222 7.031,18.183 6.751 C 17.817 4.080,16.380 2.590,13.740 2.144 C 13.018 2.022,11.995 1.975,11.220 2.028 M13.120 3.459 C 14.362 3.604,15.141 3.931,15.782 4.576 C 16.094 4.890,16.172 4.998,16.351 5.360 C 16.737 6.145,16.839 6.723,16.868 8.290 L 16.890 9.440 12.000 9.440 L 7.110 9.440 7.132 8.290 C 7.161 6.720,7.263 6.136,7.648 5.360 C 7.827 4.999,7.907 4.889,8.218 4.576 C 8.720 4.071,9.249 3.791,10.070 3.595 C 10.866 3.405,12.166 3.347,13.120 3.459 M12.660 12.784 C 13.668 12.995,14.551 13.795,14.864 14.780 C 15.122 15.594,15.034 16.479,14.619 17.227 C 14.418 17.589,13.869 18.138,13.507 18.339 C 12.568 18.860,11.385 18.857,10.480 18.331 C 10.146 18.137,9.583 17.574,9.389 17.240 C 8.862 16.333,8.862 15.107,9.389 14.200 C 9.583 13.866,10.146 13.303,10.480 13.109 C 11.126 12.734,11.883 12.621,12.660 12.784 M11.711 14.121 C 10.871 14.263,10.239 15.144,10.391 15.962 C 10.559 16.868,11.400 17.486,12.250 17.328 C 12.966 17.194,13.475 16.683,13.609 15.962 C 13.764 15.127,13.131 14.262,12.260 14.120 C 11.993 14.076,11.979 14.076,11.711 14.121 " fill="#292D32" stroke="none" fill-rule="evenodd"></path></svg>