<svg width="24" height="24" viewBox="0 0 24 24" fill="none" xmlns="http://www.w3.org/2000/svg"><path d="M10.467 2.055 C 10.198 2.156,10.026 2.340,9.941 2.617 C 9.888 2.788,9.880 3.384,9.880 7.067 L 9.880 11.320 6.870 11.321 C 4.036 11.322,3.851 11.326,3.698 11.395 C 3.134 11.651,3.099 12.444,3.638 12.719 C 3.793 12.798,3.866 12.800,6.838 12.800 L 9.880 12.800 9.880 12.060 L 9.880 11.320 11.730 11.320 L 13.579 11.320 12.732 10.470 C 12.265 10.003,11.865 9.569,11.842 9.507 C 11.788 9.362,11.788 9.076,11.843 8.933 C 11.938 8.681,12.241 8.480,12.526 8.480 C 12.854 8.480,12.966 8.574,14.501 10.129 C 15.305 10.944,15.989 11.659,16.019 11.717 C 16.107 11.889,16.130 12.095,16.080 12.284 C 16.038 12.441,15.865 12.629,14.488 14.010 C 12.845 15.658,12.771 15.718,12.462 15.668 C 12.061 15.603,11.800 15.313,11.800 14.930 C 11.800 14.812,11.829 14.658,11.865 14.588 C 11.900 14.518,12.291 14.095,12.733 13.650 L 13.537 12.840 11.708 12.840 L 9.878 12.840 9.889 17.110 L 9.900 21.380 9.986 21.540 C 10.086 21.726,10.204 21.841,10.400 21.944 C 10.659 22.080,12.055 22.002,13.060 21.794 C 15.749 21.239,17.953 19.734,19.290 17.540 C 21.319 14.209,21.239 9.426,19.101 6.205 C 18.612 5.466,17.883 4.667,17.220 4.139 C 15.573 2.829,13.529 2.107,11.218 2.020 C 10.752 2.002,10.586 2.010,10.467 2.055 " fill="#292D32" stroke="none" fill-rule="evenodd"></path></svg>