<svg width="24" height="24" viewBox="0 0 24 24" fill="none" xmlns="http://www.w3.org/2000/svg"><path d="M13.454 2.041 C 12.185 2.175,11.133 2.660,10.352 3.473 C 9.710 4.142,9.355 4.842,9.113 5.915 C 9.030 6.283,9.025 6.412,9.011 8.770 L 8.995 11.240 5.868 11.240 C 3.731 11.240,2.689 11.254,2.580 11.284 C 2.356 11.345,2.164 11.502,2.077 11.695 C 1.884 12.120,2.115 12.589,2.580 12.716 C 2.689 12.746,3.731 12.760,5.868 12.760 L 8.995 12.760 9.011 15.230 C 9.025 17.588,9.030 17.717,9.113 18.085 C 9.365 19.205,9.721 19.885,10.418 20.582 C 11.120 21.285,11.803 21.640,12.936 21.890 C 13.326 21.977,13.412 21.980,15.460 21.980 C 17.822 21.980,17.942 21.970,18.746 21.701 C 20.494 21.116,21.540 19.860,21.912 17.900 C 21.974 17.571,21.980 17.059,21.980 12.020 C 21.980 5.859,21.991 6.135,21.699 5.254 C 21.440 4.471,21.089 3.897,20.550 3.374 C 19.752 2.599,18.783 2.174,17.510 2.040 C 17.084 1.995,13.881 1.996,13.454 2.041 M12.187 7.962 C 12.355 8.025,15.831 11.503,15.923 11.700 C 16.018 11.903,16.018 12.097,15.923 12.300 C 15.873 12.407,15.254 13.052,14.054 14.248 C 12.372 15.925,12.249 16.038,12.091 16.063 C 11.998 16.078,11.917 16.091,11.911 16.092 C 11.905 16.093,11.825 16.081,11.733 16.067 C 11.306 15.999,11.044 15.476,11.222 15.049 C 11.263 14.951,11.651 14.531,12.351 13.830 L 13.418 12.760 11.209 12.760 L 9.000 12.760 9.000 12.000 L 9.000 11.240 11.209 11.240 L 13.418 11.240 12.351 10.170 C 11.651 9.469,11.263 9.049,11.222 8.951 C 11.015 8.454,11.358 7.921,11.887 7.920 C 11.990 7.920,12.125 7.939,12.187 7.962 " fill="#292D32" stroke="none" fill-rule="evenodd"></path></svg>