<svg width="24" height="24" viewBox="0 0 24 24" fill="none" xmlns="http://www.w3.org/2000/svg"><path d="M12.242 2.045 C 8.732 2.333,5.848 4.181,4.366 7.090 C 3.172 9.434,2.909 12.436,3.662 15.110 C 4.594 18.418,7.062 20.805,10.431 21.658 C 11.625 21.960,13.209 22.094,13.582 21.925 C 13.816 21.819,14.027 21.554,14.079 21.305 C 14.107 21.167,14.118 19.750,14.110 16.960 L 14.100 12.820 11.217 12.800 L 8.334 12.780 8.183 12.665 C 7.717 12.309,7.818 11.612,8.369 11.382 C 8.498 11.328,8.881 11.320,11.319 11.320 L 14.120 11.320 14.120 12.060 L 14.120 12.800 16.140 12.800 C 17.251 12.800,18.160 12.814,18.160 12.830 C 18.160 12.847,17.799 13.221,17.357 13.660 C 16.916 14.100,16.528 14.511,16.494 14.574 C 16.417 14.719,16.417 15.080,16.494 15.226 C 16.572 15.376,16.753 15.545,16.893 15.597 C 17.050 15.657,17.297 15.650,17.459 15.583 C 17.640 15.507,20.594 12.530,20.689 12.327 C 20.780 12.134,20.776 11.980,20.677 11.760 C 20.570 11.524,17.743 8.678,17.497 8.559 C 17.232 8.430,16.881 8.478,16.667 8.672 C 16.455 8.863,16.377 9.277,16.504 9.532 C 16.539 9.602,16.939 10.034,17.394 10.490 L 18.219 11.320 16.170 11.320 L 14.120 11.320 14.120 7.067 C 14.120 2.269,14.136 2.536,13.824 2.248 C 13.727 2.159,13.579 2.067,13.494 2.043 C 13.319 1.995,12.852 1.995,12.242 2.045 " fill="#292D32" stroke="none" fill-rule="evenodd"></path></svg>