<svg width="24" height="24" viewBox="0 0 24 24" fill="none" xmlns="http://www.w3.org/2000/svg"><path d="M13.454 2.041 C 12.185 2.175,11.133 2.660,10.352 3.473 C 9.710 4.142,9.355 4.842,9.113 5.915 C 9.030 6.283,9.025 6.412,9.011 8.770 L 8.995 11.240 6.789 11.240 L 4.583 11.240 5.666 10.150 C 6.838 8.971,6.867 8.932,6.830 8.554 C 6.808 8.326,6.659 8.112,6.440 7.994 C 6.271 7.904,5.960 7.897,5.785 7.980 C 5.716 8.013,4.855 8.846,3.873 9.830 C 2.355 11.352,2.080 11.644,2.044 11.780 C 1.990 11.979,1.990 12.021,2.044 12.220 C 2.080 12.356,2.353 12.647,3.853 14.153 C 4.883 15.186,5.685 15.960,5.777 16.007 C 6.003 16.125,6.339 16.096,6.540 15.942 C 6.809 15.738,6.909 15.362,6.778 15.049 C 6.737 14.951,6.349 14.531,5.649 13.830 L 4.582 12.760 6.789 12.760 L 8.995 12.760 9.011 15.230 C 9.025 17.588,9.030 17.717,9.113 18.085 C 9.365 19.205,9.721 19.885,10.418 20.582 C 11.120 21.285,11.803 21.640,12.936 21.890 C 13.326 21.977,13.412 21.980,15.460 21.980 C 17.822 21.980,17.942 21.970,18.746 21.701 C 20.494 21.116,21.540 19.860,21.912 17.900 C 21.974 17.571,21.980 17.059,21.980 12.020 C 21.980 5.859,21.991 6.135,21.699 5.254 C 21.440 4.471,21.089 3.897,20.550 3.374 C 19.752 2.599,18.783 2.174,17.510 2.040 C 17.084 1.995,13.881 1.996,13.454 2.041 M15.580 11.326 C 15.743 11.416,15.864 11.552,15.938 11.729 C 16.092 12.097,15.920 12.509,15.540 12.684 C 15.389 12.754,15.206 12.758,12.190 12.759 L 9.000 12.760 9.000 11.999 L 9.000 11.238 12.230 11.249 C 15.147 11.259,15.472 11.266,15.580 11.326 " fill="#292D32" stroke="none" fill-rule="evenodd"></path></svg>