<svg width="24" height="24" viewBox="0 0 24 24" fill="none" xmlns="http://www.w3.org/2000/svg"><path d="M6.520 3.147 C 5.326 3.335,4.378 3.811,3.556 4.635 C 2.780 5.413,2.326 6.260,2.093 7.360 C 2.006 7.774,1.996 8.973,2.076 9.560 C 2.352 11.603,3.084 13.311,4.423 15.040 C 4.880 15.630,6.081 16.836,6.703 17.330 C 7.879 18.265,9.314 19.119,10.453 19.563 C 11.036 19.790,11.056 19.746,10.600 19.238 C 9.023 17.479,8.202 15.449,8.190 13.280 C 8.183 11.910,8.643 10.792,9.611 9.832 C 10.469 8.981,11.628 8.509,12.860 8.511 C 13.827 8.512,14.675 8.771,15.491 9.313 C 15.735 9.475,15.800 9.500,15.978 9.500 C 16.152 9.500,16.224 9.474,16.442 9.333 C 17.488 8.654,18.773 8.377,19.905 8.586 C 20.412 8.679,20.542 8.676,20.650 8.568 C 20.733 8.484,20.739 8.447,20.728 8.089 C 20.692 6.861,20.169 5.639,19.285 4.711 C 18.594 3.985,17.787 3.519,16.760 3.252 C 16.228 3.113,15.305 3.080,14.718 3.178 C 13.957 3.306,13.286 3.573,12.641 4.004 C 12.291 4.237,11.732 4.747,11.494 5.050 L 11.376 5.199 11.223 4.999 C 10.851 4.511,10.026 3.873,9.394 3.585 C 8.678 3.259,7.990 3.117,7.163 3.125 C 6.864 3.128,6.575 3.138,6.520 3.147 M12.504 10.001 C 12.033 10.100,11.436 10.398,11.043 10.729 C 10.509 11.180,10.114 11.799,9.912 12.500 C 9.781 12.957,9.781 13.973,9.913 14.633 C 10.214 16.143,10.961 17.487,12.162 18.680 C 12.930 19.443,13.838 20.096,14.780 20.561 C 15.430 20.882,15.764 21.000,16.022 21.000 C 16.582 21.000,18.003 20.262,19.057 19.424 C 20.687 18.128,21.742 16.513,22.121 14.733 C 22.230 14.222,22.272 13.190,22.201 12.787 C 22.081 12.108,21.770 11.497,21.286 10.991 C 20.619 10.292,19.755 9.920,18.800 9.920 C 17.870 9.920,17.064 10.255,16.382 10.926 L 16.024 11.278 15.826 11.056 C 15.022 10.154,13.727 9.743,12.504 10.001 " fill="#292D32" stroke="none" fill-rule="evenodd"></path></svg>