<svg width="24" height="24" viewBox="0 0 24 24" fill="none" xmlns="http://www.w3.org/2000/svg"><path d="M6.768 1.721 C 6.610 1.869,6.616 1.967,6.840 2.759 L 7.051 3.507 6.845 4.209 C 6.732 4.596,6.640 4.949,6.640 4.994 C 6.640 5.191,6.802 5.360,6.990 5.360 C 7.026 5.360,7.381 5.268,7.780 5.155 L 8.504 4.949 9.202 5.155 C 9.586 5.268,9.959 5.360,10.032 5.360 C 10.205 5.360,10.360 5.209,10.360 5.039 C 10.360 4.971,10.267 4.596,10.154 4.207 L 9.949 3.499 10.154 2.799 C 10.267 2.415,10.360 2.058,10.360 2.007 C 10.360 1.897,10.291 1.759,10.203 1.691 C 10.096 1.609,9.939 1.633,9.205 1.846 L 8.495 2.053 7.797 1.846 C 7.414 1.733,7.044 1.640,6.977 1.640 C 6.910 1.640,6.816 1.676,6.768 1.721 M17.509 3.943 C 16.969 4.073,16.677 4.292,15.630 5.346 L 15.000 5.981 16.501 7.480 L 18.002 8.980 18.895 8.080 C 19.853 7.115,19.926 7.014,20.065 6.472 C 20.148 6.150,20.120 5.633,20.002 5.300 C 19.648 4.295,18.542 3.692,17.509 3.943 M8.800 12.211 C 3.715 17.286,3.289 17.721,3.151 17.984 C 2.693 18.858,2.832 19.800,3.521 20.490 C 4.166 21.134,5.088 21.291,5.919 20.897 C 6.192 20.768,6.307 20.667,7.239 19.749 C 9.734 17.288,17.280 9.736,17.280 9.700 C 17.280 9.660,14.357 6.719,14.320 6.721 C 14.309 6.722,11.825 9.193,8.800 12.211 M2.768 7.721 C 2.610 7.869,2.616 7.967,2.840 8.759 L 3.051 9.507 2.845 10.209 C 2.732 10.596,2.640 10.949,2.640 10.994 C 2.640 11.192,2.803 11.361,2.992 11.359 C 3.029 11.359,3.383 11.263,3.778 11.147 L 4.497 10.936 5.216 11.151 C 5.739 11.307,5.971 11.359,6.066 11.342 C 6.211 11.314,6.360 11.155,6.361 11.025 C 6.361 10.978,6.268 10.616,6.155 10.219 L 5.949 9.499 6.154 8.799 C 6.267 8.415,6.360 8.060,6.360 8.012 C 6.360 7.809,6.201 7.640,6.010 7.640 C 5.974 7.640,5.618 7.733,5.218 7.846 L 4.492 8.052 3.796 7.846 C 3.413 7.733,3.044 7.640,2.977 7.640 C 2.910 7.640,2.816 7.676,2.768 7.721 M17.788 12.720 C 17.614 12.858,17.620 12.962,17.856 13.761 L 18.074 14.500 17.856 15.239 C 17.710 15.734,17.646 16.015,17.662 16.089 C 17.692 16.227,17.858 16.360,17.995 16.359 C 18.053 16.358,18.415 16.262,18.800 16.147 L 19.500 15.936 20.246 16.153 C 20.745 16.299,21.025 16.362,21.094 16.345 C 21.222 16.313,21.346 16.185,21.370 16.059 C 21.380 16.008,21.289 15.636,21.168 15.233 L 20.948 14.501 21.120 13.920 C 21.363 13.101,21.384 12.994,21.324 12.850 C 21.275 12.731,21.137 12.639,21.008 12.641 C 20.971 12.641,20.616 12.736,20.220 12.853 L 19.500 13.064 18.800 12.853 C 18.415 12.738,18.053 12.642,17.995 12.641 C 17.938 12.641,17.845 12.676,17.788 12.720 " fill="#292D32" stroke="none" fill-rule="evenodd"></path></svg>