<svg width="24" height="24" viewBox="0 0 24 24" fill="none" xmlns="http://www.w3.org/2000/svg"><path d="M15.392 2.062 C 14.966 2.165,14.542 2.429,12.868 3.636 C 11.948 4.299,11.125 4.877,11.039 4.921 C 10.787 5.049,10.448 5.120,10.086 5.120 C 9.759 5.120,9.694 5.102,8.114 4.578 C 7.216 4.280,6.344 4.010,6.177 3.978 C 5.196 3.791,4.466 4.099,4.210 4.808 C 4.126 5.041,4.099 5.664,4.159 5.972 C 4.186 6.108,4.448 6.985,4.742 7.920 C 5.036 8.855,5.298 9.718,5.323 9.837 C 5.408 10.234,5.282 10.874,5.047 11.240 C 4.983 11.339,4.459 11.968,3.881 12.638 C 2.732 13.971,2.588 14.152,2.384 14.527 C 1.894 15.426,2.080 16.237,2.853 16.578 C 3.437 16.836,3.846 16.853,6.320 16.720 C 8.114 16.625,8.224 16.630,8.656 16.845 C 8.988 17.010,9.242 17.205,9.384 17.407 C 9.452 17.502,9.918 18.246,10.421 19.060 C 11.407 20.658,11.533 20.844,11.829 21.148 C 12.340 21.674,12.880 21.863,13.383 21.693 C 13.657 21.601,14.093 21.157,14.273 20.787 C 14.475 20.373,14.530 20.192,15.001 18.409 C 15.284 17.334,15.475 16.685,15.548 16.550 C 15.692 16.282,16.082 15.892,16.349 15.748 C 16.463 15.687,17.363 15.384,18.348 15.076 C 19.334 14.768,20.270 14.452,20.429 14.374 C 20.803 14.190,21.203 13.825,21.342 13.539 C 21.561 13.093,21.511 12.606,21.198 12.121 C 20.954 11.745,20.737 11.556,19.314 10.479 C 18.602 9.940,17.943 9.430,17.850 9.344 C 17.638 9.151,17.434 8.819,17.322 8.486 C 17.238 8.235,17.236 8.193,17.248 5.806 L 17.260 3.380 17.151 3.060 C 16.863 2.220,16.228 1.859,15.392 2.062 M17.531 17.324 C 17.243 17.466,17.097 17.799,17.168 18.149 C 17.206 18.332,17.278 18.411,18.834 19.973 C 19.728 20.871,20.514 21.634,20.579 21.669 C 20.645 21.703,20.792 21.731,20.906 21.731 C 21.445 21.731,21.790 21.198,21.578 20.689 C 21.494 20.486,18.446 17.430,18.217 17.319 C 18.006 17.217,17.744 17.218,17.531 17.324 " fill="#292D32" stroke="none" fill-rule="evenodd"></path></svg>