<svg width="24" height="24" viewBox="0 0 24 24" fill="none" xmlns="http://www.w3.org/2000/svg"><path d="M11.460 2.042 C 10.945 2.122,10.442 2.320,9.960 2.633 C 9.673 2.819,7.419 5.052,7.307 5.260 C 7.193 5.473,7.187 5.954,7.295 6.160 C 7.335 6.237,8.271 7.206,9.374 8.314 C 11.536 10.485,11.576 10.519,11.975 10.520 C 12.422 10.521,12.326 10.600,14.568 8.366 C 16.875 6.068,16.827 6.126,16.790 5.653 C 16.776 5.485,16.736 5.347,16.668 5.232 C 16.531 5.000,14.318 2.814,14.031 2.626 C 13.691 2.405,13.261 2.212,12.900 2.119 C 12.530 2.024,11.818 1.986,11.460 2.042 M5.380 7.264 C 5.201 7.321,5.062 7.444,4.067 8.434 C 3.455 9.042,2.865 9.657,2.756 9.800 C 2.490 10.149,2.219 10.705,2.112 11.120 C 1.989 11.603,1.989 12.401,2.113 12.880 C 2.212 13.260,2.402 13.687,2.626 14.031 C 2.812 14.316,4.999 16.531,5.228 16.666 C 5.457 16.801,5.768 16.830,6.045 16.740 C 6.248 16.675,6.379 16.552,8.325 14.605 C 10.191 12.739,10.396 12.521,10.455 12.343 C 10.537 12.093,10.537 11.906,10.455 11.657 C 10.396 11.479,10.190 11.260,8.365 9.429 C 6.982 8.042,6.287 7.372,6.172 7.316 C 5.945 7.206,5.629 7.185,5.380 7.264 M18.003 7.244 C 17.927 7.267,17.792 7.337,17.703 7.400 C 17.416 7.600,13.660 11.405,13.576 11.580 C 13.456 11.832,13.470 12.250,13.607 12.480 C 13.666 12.579,14.610 13.554,15.707 14.648 C 17.836 16.772,17.866 16.797,18.255 16.799 C 18.684 16.801,18.684 16.801,19.971 15.523 C 21.159 14.344,21.376 14.090,21.629 13.580 C 22.191 12.450,22.086 11.037,21.358 9.955 C 21.112 9.588,18.954 7.424,18.724 7.312 C 18.519 7.213,18.204 7.184,18.003 7.244 M11.675 13.535 C 11.596 13.564,11.479 13.625,11.415 13.671 C 11.189 13.835,7.367 17.703,7.295 17.840 C 7.243 17.939,7.221 18.068,7.221 18.280 C 7.220 18.534,7.236 18.608,7.327 18.760 C 7.466 18.995,9.675 21.182,9.960 21.367 C 10.624 21.798,11.199 21.971,11.980 21.974 C 12.390 21.976,12.576 21.958,12.860 21.887 C 13.295 21.779,13.848 21.514,14.200 21.245 C 14.343 21.136,14.957 20.545,15.565 19.933 C 16.576 18.914,16.675 18.802,16.740 18.605 C 16.820 18.359,16.804 18.089,16.696 17.850 C 16.652 17.753,15.912 16.983,14.584 15.655 C 12.737 13.808,12.521 13.604,12.343 13.545 C 12.109 13.468,11.874 13.464,11.675 13.535 " fill="#292D32" stroke="none" fill-rule="evenodd"></path></svg>