<svg width="24" height="24" viewBox="0 0 24 24" fill="none" xmlns="http://www.w3.org/2000/svg"><path d="M14.700 1.823 C 14.436 1.960,14.242 2.248,14.242 2.500 C 14.242 2.759,14.484 3.104,14.733 3.197 C 14.808 3.226,15.655 3.240,17.273 3.240 L 19.700 3.240 17.434 5.506 L 15.168 7.772 14.934 7.589 C 13.496 6.464,11.511 5.877,9.670 6.032 C 8.385 6.140,7.272 6.497,6.206 7.145 C 5.306 7.691,4.401 8.560,3.802 9.452 C 2.864 10.851,2.402 12.587,2.522 14.267 C 2.748 17.432,4.828 20.118,7.815 21.101 C 10.346 21.933,13.081 21.432,15.140 19.758 C 15.529 19.442,16.254 18.677,16.531 18.291 C 18.194 15.969,18.461 12.984,17.238 10.407 C 17.039 9.988,16.627 9.323,16.369 9.006 L 16.228 8.832 18.494 6.566 L 20.760 4.300 20.760 6.727 C 20.760 8.345,20.774 9.192,20.803 9.267 C 20.896 9.516,21.241 9.758,21.500 9.758 C 21.759 9.758,22.104 9.516,22.197 9.267 C 22.226 9.191,22.240 8.054,22.240 5.736 C 22.240 2.460,22.237 2.311,22.164 2.168 C 22.071 1.985,21.980 1.901,21.790 1.822 C 21.661 1.768,21.211 1.760,18.231 1.760 C 15.219 1.760,14.806 1.768,14.700 1.823 " fill="#292D32" stroke="none" fill-rule="evenodd"></path></svg>