<svg width="24" height="24" viewBox="0 0 24 24" fill="none" xmlns="http://www.w3.org/2000/svg"><path d="M5.380 4.855 C 2.907 6.277,2.831 6.331,2.547 6.871 C 2.263 7.412,2.277 7.099,2.290 12.871 C 2.302 17.743,2.307 18.075,2.375 18.300 C 2.557 18.905,2.836 19.274,3.272 19.489 C 3.522 19.612,3.564 19.620,3.959 19.620 C 4.586 19.620,4.746 19.554,6.335 18.649 C 7.086 18.221,7.742 17.833,7.794 17.786 C 8.013 17.585,8.000 18.034,8.000 10.611 C 8.000 3.001,8.020 3.556,7.748 3.563 C 7.657 3.565,6.979 3.935,5.380 4.855 M9.977 4.033 C 9.909 4.076,9.832 4.162,9.806 4.225 C 9.770 4.312,9.762 5.969,9.769 11.109 L 9.780 17.878 9.880 17.978 C 10.015 18.113,14.347 20.200,14.491 20.200 C 14.654 20.200,14.832 20.096,14.922 19.948 C 14.998 19.822,15.000 19.695,15.000 13.140 C 15.000 6.860,14.996 6.452,14.930 6.320 C 14.865 6.190,14.705 6.103,12.660 5.085 C 10.299 3.910,10.221 3.880,9.977 4.033 M19.774 4.437 C 19.412 4.535,19.292 4.596,17.977 5.347 C 17.199 5.791,16.875 5.997,16.827 6.079 C 16.765 6.184,16.760 6.691,16.760 12.918 C 16.760 20.309,16.743 19.807,16.999 19.939 C 17.266 20.077,17.287 20.068,19.273 18.932 C 20.855 18.027,21.175 17.829,21.366 17.635 C 21.621 17.376,21.888 16.888,21.958 16.551 C 21.989 16.400,21.999 14.822,21.990 11.139 C 21.980 6.306,21.974 5.923,21.908 5.700 C 21.736 5.116,21.442 4.725,21.018 4.516 C 20.680 4.350,20.207 4.319,19.774 4.437 " fill="#292D32" stroke="none" fill-rule="evenodd"></path></svg>