<svg width="24" height="24" viewBox="0 0 24 24" fill="none" xmlns="http://www.w3.org/2000/svg"><path d="M7.112 2.045 C 5.797 2.199,4.556 2.827,3.611 3.815 C 2.843 4.619,2.366 5.530,2.113 6.680 L 2.020 7.100 2.020 12.060 C 2.020 16.997,2.020 17.022,2.108 17.503 C 2.439 19.321,3.336 20.603,4.789 21.334 C 5.101 21.492,5.295 21.517,5.472 21.423 C 5.531 21.391,9.158 17.786,13.530 13.412 L 21.480 5.459 21.480 5.269 C 21.480 5.129,21.441 5.001,21.334 4.789 C 20.611 3.353,19.343 2.457,17.547 2.112 C 17.107 2.027,17.024 2.026,12.260 2.017 C 9.569 2.013,7.283 2.025,7.112 2.045 M9.460 5.561 C 10.961 5.728,12.025 6.703,12.281 8.146 C 12.350 8.538,12.312 9.291,12.202 9.680 C 12.081 10.112,11.686 10.882,11.372 11.300 C 10.965 11.841,10.390 12.404,10.090 12.555 C 9.441 12.882,8.769 12.882,8.153 12.553 C 7.519 12.215,6.574 11.061,6.220 10.194 C 5.973 9.589,5.940 9.408,5.942 8.700 C 5.945 8.110,5.953 8.034,6.057 7.720 C 6.119 7.533,6.210 7.299,6.260 7.200 C 6.700 6.331,7.672 5.685,8.720 5.565 C 8.885 5.546,9.038 5.528,9.060 5.526 C 9.082 5.523,9.262 5.539,9.460 5.561 M8.840 7.539 C 8.322 7.707,8.046 8.264,8.209 8.815 C 8.274 9.035,8.605 9.366,8.825 9.431 C 9.420 9.607,10.003 9.268,10.127 8.673 C 10.213 8.265,9.980 7.794,9.596 7.598 C 9.390 7.493,9.062 7.468,8.840 7.539 M18.410 10.650 L 15.280 13.781 15.280 13.953 C 15.280 14.048,15.300 14.165,15.324 14.213 C 15.387 14.337,20.517 19.473,20.648 19.543 C 20.804 19.625,21.011 19.614,21.136 19.516 C 21.451 19.268,21.857 18.018,21.957 16.983 C 21.985 16.704,22.000 14.953,22.000 12.138 C 22.000 7.740,22.000 7.731,21.917 7.625 C 21.854 7.546,21.798 7.520,21.687 7.520 C 21.546 7.520,21.420 7.640,18.410 10.650 M13.740 15.356 C 13.674 15.398,12.248 16.806,10.570 18.487 C 7.641 21.420,7.520 21.547,7.520 21.688 C 7.520 21.799,7.546 21.854,7.628 21.919 L 7.735 22.004 12.418 21.989 C 16.998 21.974,17.110 21.972,17.544 21.889 C 18.374 21.729,19.339 21.361,19.517 21.135 C 19.614 21.011,19.625 20.803,19.543 20.648 C 19.480 20.531,14.403 15.452,14.241 15.345 C 14.109 15.258,13.888 15.263,13.740 15.356 " fill="#292D32" stroke="none" fill-rule="evenodd"></path></svg>