<svg width="24" height="24" viewBox="0 0 24 24" fill="none" xmlns="http://www.w3.org/2000/svg"><path d="M11.120 2.039 C 8.336 2.318,5.905 3.624,4.193 5.760 C 1.474 9.155,1.267 13.917,3.682 17.533 C 6.770 22.155,12.946 23.386,17.560 20.299 C 22.155 17.225,23.377 11.041,20.299 6.440 C 18.728 4.092,16.319 2.562,13.493 2.119 C 12.909 2.027,11.660 1.985,11.120 2.039 M12.601 7.042 C 13.369 7.136,14.154 7.432,14.824 7.881 C 15.229 8.152,15.848 8.771,16.119 9.176 C 17.282 10.912,17.283 13.097,16.122 14.818 C 15.288 16.052,13.854 16.882,12.370 16.986 L 12.000 17.012 12.000 12.006 L 12.000 7.000 12.131 7.000 C 12.203 7.000,12.415 7.019,12.601 7.042 " fill="#292D32" stroke="none" fill-rule="evenodd"></path></svg>