<svg width="24" height="24" viewBox="0 0 24 24" fill="none" xmlns="http://www.w3.org/2000/svg"><path d="M11.020 2.084 C 7.640 2.433,4.711 4.420,3.155 7.419 C 2.397 8.879,2.040 10.348,2.040 12.000 C 2.040 13.660,2.392 15.107,3.155 16.581 C 4.706 19.575,7.656 21.580,11.017 21.922 C 11.609 21.982,12.942 21.950,13.500 21.862 C 15.222 21.591,16.869 20.862,18.220 19.773 C 21.857 16.841,22.988 11.896,20.983 7.700 C 19.767 5.156,17.427 3.177,14.740 2.419 C 13.576 2.091,12.173 1.965,11.020 2.084 M11.096 5.980 C 11.515 6.178,11.776 6.526,11.900 7.049 C 11.986 7.415,11.988 16.520,11.902 16.926 C 11.740 17.693,11.187 18.160,10.442 18.160 C 9.413 18.160,7.710 17.079,6.812 15.856 C 5.953 14.687,5.548 13.451,5.548 12.000 C 5.548 10.204,6.190 8.671,7.477 7.397 C 8.153 6.728,9.262 6.050,9.928 5.899 C 10.320 5.809,10.808 5.843,11.096 5.980 " fill="#292D32" stroke="none" fill-rule="evenodd"></path></svg>