<svg width="24" height="24" viewBox="0 0 24 24" fill="none" xmlns="http://www.w3.org/2000/svg"><path d="M11.240 2.027 C 9.820 2.168,8.756 2.460,7.620 3.019 C 6.611 3.517,5.733 4.146,4.939 4.939 C 3.410 6.468,2.427 8.404,2.116 10.500 C 1.749 12.980,2.300 15.443,3.689 17.525 C 4.073 18.102,4.167 18.203,4.356 18.251 C 4.622 18.319,4.390 18.540,11.393 11.545 C 15.074 7.868,18.122 4.810,18.166 4.749 C 18.270 4.606,18.277 4.334,18.181 4.188 C 18.073 4.022,16.979 3.313,16.387 3.024 C 14.965 2.331,13.452 1.987,11.900 2.006 C 11.614 2.010,11.317 2.019,11.240 2.027 M19.381 5.762 C 19.303 5.786,18.736 6.324,17.711 7.349 C 16.029 9.029,16.013 9.049,16.135 9.329 C 16.168 9.406,17.196 10.463,18.647 11.910 L 21.102 14.360 21.273 14.360 C 21.487 14.360,21.661 14.272,21.737 14.126 C 21.865 13.879,22.000 12.762,21.999 11.966 C 21.997 10.134,21.443 8.231,20.464 6.689 C 20.047 6.032,19.861 5.810,19.689 5.762 C 19.521 5.715,19.540 5.715,19.381 5.762 M14.620 10.497 C 14.554 10.527,14.074 10.981,13.553 11.506 C 12.754 12.311,12.602 12.483,12.579 12.607 C 12.564 12.687,12.565 12.795,12.580 12.847 C 12.595 12.898,13.961 14.295,15.614 15.951 C 18.859 19.201,18.756 19.110,19.049 18.987 C 19.291 18.886,19.888 18.181,20.410 17.378 C 20.887 16.647,20.937 16.512,20.820 16.266 C 20.739 16.095,15.171 10.536,15.027 10.482 C 14.880 10.427,14.767 10.431,14.620 10.497 M10.110 14.950 C 9.584 15.473,9.128 15.949,9.097 16.008 C 9.006 16.181,9.026 16.370,9.156 16.544 C 9.219 16.630,10.385 17.809,11.746 19.165 C 13.751 21.162,14.245 21.634,14.349 21.654 C 14.672 21.714,16.120 21.157,17.007 20.632 C 17.278 20.472,17.367 20.378,17.411 20.204 C 17.477 19.944,17.511 19.981,14.525 16.987 C 12.949 15.407,11.611 14.089,11.552 14.057 C 11.493 14.026,11.359 14.000,11.255 14.000 L 11.067 14.000 10.110 14.950 M7.540 17.582 C 7.335 17.687,5.881 19.160,5.794 19.350 C 5.685 19.588,5.742 19.788,5.971 19.973 C 6.731 20.590,8.081 21.278,9.163 21.599 C 9.924 21.825,11.291 22.040,11.488 21.964 C 11.741 21.866,11.844 21.596,11.723 21.346 C 11.624 21.142,8.116 17.626,7.947 17.562 C 7.793 17.504,7.681 17.510,7.540 17.582 " fill="#292D32" stroke="none" fill-rule="evenodd"></path></svg>