<svg width="24" height="24" viewBox="0 0 24 24" fill="none" xmlns="http://www.w3.org/2000/svg"><path d="M6.960 2.046 C 6.236 2.116,5.358 2.357,4.796 2.641 C 4.426 2.828,3.928 3.183,3.624 3.475 C 2.737 4.332,2.251 5.370,2.062 6.812 C 1.970 7.515,1.969 16.481,2.061 17.188 C 2.239 18.550,2.681 19.544,3.476 20.372 C 4.162 21.084,4.935 21.524,5.956 21.780 C 6.817 21.997,6.896 22.000,11.993 22.000 C 14.960 22.000,16.828 21.985,17.041 21.959 C 19.985 21.603,21.695 19.840,21.962 16.885 C 21.990 16.579,21.999 14.787,21.989 11.660 C 21.974 7.001,21.972 6.891,21.889 6.456 C 21.642 5.171,21.165 4.235,20.369 3.478 C 19.583 2.729,18.652 2.295,17.359 2.076 C 16.995 2.014,7.572 1.987,6.960 2.046 M16.122 5.161 C 16.209 5.205,16.329 5.316,16.390 5.408 L 16.500 5.574 16.512 6.445 L 16.524 7.316 17.399 7.328 L 18.273 7.340 18.426 7.464 C 18.645 7.641,18.731 7.808,18.731 8.054 C 18.731 8.287,18.662 8.448,18.494 8.607 C 18.308 8.783,18.206 8.800,17.337 8.800 L 16.520 8.800 16.520 9.627 C 16.520 10.386,16.513 10.469,16.436 10.628 C 16.203 11.110,15.584 11.197,15.224 10.800 C 15.145 10.712,15.077 10.635,15.073 10.630 C 15.069 10.624,15.055 10.215,15.043 9.720 L 15.020 8.820 14.140 8.800 C 13.425 8.784,13.237 8.768,13.140 8.714 C 12.638 8.439,12.638 7.681,13.140 7.406 C 13.237 7.352,13.425 7.336,14.140 7.320 L 15.020 7.300 15.040 6.420 C 15.053 5.859,15.077 5.511,15.107 5.460 C 15.176 5.341,15.366 5.170,15.480 5.125 C 15.651 5.057,15.951 5.074,16.122 5.161 M10.820 7.395 C 11.010 7.483,11.096 7.572,11.178 7.770 C 11.287 8.030,11.232 8.367,11.048 8.574 C 11.011 8.617,10.908 8.684,10.820 8.725 C 10.670 8.793,10.503 8.798,8.253 8.799 C 6.647 8.800,5.808 8.786,5.733 8.757 C 5.460 8.655,5.269 8.367,5.269 8.060 C 5.269 7.758,5.412 7.533,5.700 7.383 C 5.805 7.328,6.124 7.321,8.240 7.321 C 10.503 7.322,10.670 7.327,10.820 7.395 M6.402 13.076 C 6.500 13.139,6.958 13.571,7.419 14.035 L 8.258 14.879 9.199 13.943 C 10.220 12.927,10.223 12.925,10.622 12.970 C 11.092 13.023,11.376 13.575,11.161 14.017 C 11.113 14.116,10.737 14.524,10.201 15.059 L 9.321 15.939 10.218 16.839 C 10.795 17.418,11.138 17.793,11.178 17.889 C 11.386 18.387,11.033 18.928,10.500 18.928 C 10.209 18.928,10.119 18.860,9.181 17.921 L 8.261 17.001 7.361 17.896 C 6.865 18.388,6.398 18.822,6.323 18.860 C 5.996 19.025,5.561 18.892,5.371 18.568 C 5.252 18.366,5.236 18.040,5.334 17.854 C 5.367 17.791,5.801 17.335,6.297 16.840 L 7.200 15.941 6.284 15.020 C 5.781 14.514,5.347 14.058,5.321 14.006 C 5.238 13.843,5.259 13.509,5.364 13.322 C 5.568 12.958,6.046 12.844,6.402 13.076 M18.426 13.464 C 18.645 13.641,18.731 13.808,18.731 14.054 C 18.731 14.366,18.542 14.654,18.267 14.757 C 18.192 14.786,17.354 14.800,15.756 14.800 C 13.205 14.800,13.201 14.800,12.986 14.608 C 12.783 14.429,12.708 14.043,12.822 13.770 C 12.904 13.572,12.990 13.483,13.180 13.395 C 13.331 13.325,13.480 13.321,15.806 13.330 L 18.273 13.340 18.426 13.464 M18.377 17.176 C 18.597 17.305,18.731 17.548,18.731 17.817 C 18.731 18.154,18.528 18.428,18.208 18.521 C 18.107 18.550,17.292 18.560,15.657 18.552 L 13.254 18.540 13.113 18.444 C 12.707 18.165,12.643 17.583,12.986 17.273 C 13.204 17.076,13.133 17.081,15.756 17.080 L 18.213 17.080 18.377 17.176 " fill="#292D32" stroke="none" fill-rule="evenodd"></path></svg>