<svg width="24" height="24" viewBox="0 0 24 24" fill="none" xmlns="http://www.w3.org/2000/svg"><path d="M6.960 2.046 C 6.236 2.116,5.358 2.357,4.796 2.641 C 4.426 2.828,3.928 3.183,3.624 3.475 C 2.737 4.332,2.251 5.370,2.062 6.812 C 1.970 7.515,1.969 16.481,2.061 17.188 C 2.239 18.550,2.681 19.544,3.476 20.372 C 4.162 21.084,4.935 21.524,5.956 21.780 C 6.817 21.997,6.896 22.000,11.993 22.000 C 14.960 22.000,16.828 21.985,17.041 21.959 C 19.985 21.603,21.695 19.840,21.962 16.885 C 21.990 16.579,21.999 14.787,21.989 11.660 C 21.974 7.001,21.972 6.891,21.889 6.456 C 21.642 5.171,21.165 4.235,20.369 3.478 C 19.583 2.729,18.652 2.295,17.359 2.076 C 16.995 2.014,7.572 1.987,6.960 2.046 M14.189 5.286 C 14.577 5.384,14.814 5.790,14.714 6.186 C 14.656 6.416,14.428 6.657,14.213 6.717 C 14.129 6.740,13.768 6.760,13.410 6.760 L 12.760 6.760 12.760 9.000 L 12.760 11.240 15.000 11.240 L 17.240 11.240 17.240 10.618 C 17.240 9.871,17.280 9.680,17.480 9.480 C 17.896 9.064,18.594 9.271,18.719 9.846 C 18.752 9.998,18.762 10.662,18.753 12.120 C 18.740 14.119,18.738 14.185,18.656 14.340 C 18.610 14.428,18.497 14.554,18.404 14.619 C 18.263 14.719,18.196 14.739,18.000 14.739 C 17.804 14.739,17.737 14.719,17.596 14.619 C 17.299 14.410,17.262 14.287,17.247 13.470 L 17.234 12.760 14.997 12.760 L 12.760 12.760 12.760 15.000 L 12.760 17.240 13.382 17.240 C 13.725 17.240,14.087 17.261,14.189 17.286 C 14.577 17.384,14.814 17.790,14.714 18.186 C 14.656 18.416,14.428 18.657,14.213 18.717 C 14.004 18.775,9.996 18.775,9.787 18.717 C 9.572 18.657,9.344 18.416,9.286 18.186 C 9.186 17.790,9.423 17.384,9.811 17.286 C 9.913 17.261,10.275 17.240,10.618 17.240 L 11.240 17.240 11.240 15.000 L 11.240 12.760 9.003 12.760 L 6.766 12.760 6.753 13.470 C 6.738 14.287,6.701 14.410,6.404 14.619 C 6.263 14.719,6.196 14.739,6.000 14.739 C 5.804 14.739,5.737 14.719,5.596 14.619 C 5.503 14.554,5.390 14.428,5.344 14.340 C 5.262 14.185,5.260 14.119,5.247 12.120 C 5.238 10.662,5.248 9.998,5.281 9.846 C 5.406 9.271,6.104 9.064,6.520 9.480 C 6.720 9.680,6.760 9.871,6.760 10.618 L 6.760 11.240 9.000 11.240 L 11.240 11.240 11.240 9.000 L 11.240 6.760 10.590 6.760 C 10.232 6.760,9.871 6.740,9.787 6.717 C 9.572 6.657,9.344 6.416,9.286 6.186 C 9.190 5.806,9.425 5.385,9.785 5.289 C 10.013 5.229,13.950 5.226,14.189 5.286 " fill="#292D32" stroke="none" fill-rule="evenodd"></path></svg>