<svg width="24" height="24" viewBox="0 0 24 24" fill="none" xmlns="http://www.w3.org/2000/svg"><path d="M7.080 2.043 C 5.603 2.183,4.466 2.658,3.607 3.495 C 2.728 4.351,2.248 5.383,2.061 6.812 C 2.009 7.213,2.000 7.988,2.000 11.984 C 2.000 15.048,2.015 16.818,2.043 17.072 C 2.263 19.073,3.249 20.585,4.860 21.390 C 5.397 21.659,6.217 21.880,6.967 21.959 C 7.189 21.983,9.241 21.999,12.028 21.999 C 16.029 22.000,16.785 21.991,17.188 21.938 C 18.550 21.760,19.532 21.326,20.356 20.541 C 21.258 19.681,21.748 18.643,21.938 17.188 C 21.991 16.785,22.000 16.025,22.000 12.008 C 21.999 9.043,21.984 7.167,21.958 6.940 C 21.802 5.574,21.336 4.484,20.553 3.657 C 19.676 2.730,18.479 2.188,16.983 2.043 C 16.468 1.992,7.611 1.993,7.080 2.043 M10.189 5.286 C 10.577 5.384,10.814 5.790,10.714 6.186 C 10.656 6.416,10.428 6.657,10.213 6.717 C 10.122 6.742,9.605 6.760,8.940 6.760 L 7.820 6.760 9.910 8.850 L 12.000 10.940 14.090 8.850 L 16.180 6.760 15.060 6.760 C 14.395 6.760,13.878 6.742,13.787 6.717 C 13.703 6.694,13.567 6.607,13.484 6.524 C 13.064 6.104,13.268 5.407,13.846 5.281 C 13.998 5.248,14.664 5.238,16.147 5.247 L 18.233 5.260 18.405 5.381 C 18.499 5.447,18.613 5.564,18.658 5.641 C 18.738 5.777,18.740 5.835,18.740 7.980 C 18.740 10.134,18.738 10.183,18.656 10.340 C 18.610 10.428,18.497 10.554,18.404 10.619 C 18.263 10.719,18.196 10.739,18.000 10.739 C 17.804 10.739,17.737 10.719,17.596 10.619 C 17.274 10.392,17.263 10.340,17.240 9.010 L 17.220 7.840 15.140 9.920 L 13.060 12.000 15.150 14.090 L 17.240 16.180 17.240 15.088 C 17.240 13.839,17.261 13.699,17.480 13.480 C 17.896 13.064,18.594 13.271,18.719 13.846 C 18.752 13.998,18.762 14.664,18.753 16.147 L 18.740 18.233 18.619 18.407 C 18.549 18.508,18.425 18.618,18.319 18.671 L 18.140 18.762 15.934 18.751 L 13.727 18.740 13.574 18.618 C 13.235 18.348,13.154 17.935,13.374 17.602 C 13.579 17.291,13.636 17.280,14.978 17.280 C 15.628 17.280,16.160 17.266,16.160 17.250 C 16.160 17.233,15.224 16.284,14.080 15.140 L 12.000 13.060 9.910 15.150 L 7.820 17.240 8.912 17.240 C 9.608 17.240,10.071 17.257,10.189 17.286 C 10.577 17.384,10.814 17.790,10.714 18.186 C 10.655 18.421,10.427 18.659,10.203 18.719 C 10.094 18.749,9.351 18.759,7.904 18.751 L 5.767 18.740 5.595 18.619 C 5.501 18.553,5.387 18.436,5.342 18.359 C 5.263 18.225,5.260 18.152,5.247 16.140 C 5.238 14.662,5.248 13.998,5.281 13.846 C 5.406 13.271,6.104 13.064,6.520 13.480 C 6.739 13.699,6.760 13.839,6.760 15.088 L 6.760 16.180 8.850 14.090 L 10.940 12.000 8.860 9.920 L 6.780 7.840 6.760 9.010 C 6.737 10.340,6.726 10.392,6.404 10.619 C 6.263 10.719,6.196 10.739,6.000 10.739 C 5.804 10.739,5.737 10.719,5.596 10.619 C 5.503 10.554,5.390 10.428,5.344 10.340 C 5.262 10.183,5.260 10.134,5.260 7.977 L 5.260 5.774 5.370 5.608 C 5.495 5.420,5.624 5.323,5.811 5.279 C 6.031 5.227,9.979 5.233,10.189 5.286 " fill="#292D32" stroke="none" fill-rule="evenodd"></path></svg>