<svg width="24" height="24" viewBox="0 0 24 24" fill="none" xmlns="http://www.w3.org/2000/svg"><path d="M7.780 2.058 C 7.119 2.149,6.638 2.299,6.031 2.604 C 4.611 3.318,3.562 4.625,3.180 6.157 C 3.019 6.803,2.994 7.216,3.008 9.060 C 3.020 10.742,3.022 10.784,3.108 10.944 C 3.210 11.134,3.438 11.347,3.626 11.425 C 3.732 11.470,4.211 11.480,6.149 11.480 C 7.502 11.481,8.696 11.498,8.900 11.521 C 9.850 11.629,10.662 12.016,11.323 12.677 C 11.984 13.338,12.371 14.150,12.479 15.100 C 12.502 15.304,12.519 16.498,12.520 17.851 C 12.520 19.789,12.530 20.268,12.575 20.374 C 12.653 20.562,12.866 20.790,13.056 20.892 C 13.219 20.979,13.238 20.980,15.240 20.980 C 17.434 20.980,17.641 20.964,18.440 20.734 C 20.086 20.259,21.273 19.066,21.737 17.420 C 21.983 16.550,21.972 16.790,21.989 11.860 C 22.006 7.073,22.000 6.879,21.820 6.157 C 21.345 4.253,19.821 2.702,17.930 2.198 C 17.209 2.006,17.064 2.001,12.460 2.005 C 9.258 2.008,8.047 2.021,7.780 2.058 M18.380 5.340 C 18.507 5.419,18.606 5.521,18.667 5.636 L 18.760 5.813 18.759 7.976 C 18.758 10.003,18.754 10.150,18.683 10.305 C 18.642 10.395,18.548 10.516,18.474 10.572 C 18.344 10.671,18.039 10.768,17.945 10.740 C 17.920 10.733,17.851 10.716,17.791 10.703 C 17.655 10.673,17.418 10.469,17.328 10.304 C 17.269 10.197,17.258 10.019,17.247 9.003 L 17.234 7.826 15.327 9.732 C 13.379 11.679,13.284 11.761,12.991 11.759 C 12.614 11.757,12.240 11.379,12.240 11.000 C 12.240 10.711,12.274 10.673,14.271 8.672 L 16.216 6.723 14.971 6.712 L 13.727 6.700 13.574 6.578 C 13.346 6.397,13.229 6.148,13.256 5.904 C 13.293 5.565,13.513 5.323,13.860 5.237 C 13.926 5.220,14.926 5.210,16.083 5.213 L 18.186 5.220 18.380 5.340 M4.412 13.042 C 3.359 13.171,2.686 13.576,2.346 14.286 C 2.024 14.960,1.991 15.302,2.011 17.722 C 2.025 19.423,2.037 19.742,2.097 19.998 C 2.356 21.104,2.931 21.668,4.045 21.908 C 4.344 21.972,4.606 21.980,6.500 21.980 C 8.394 21.980,8.656 21.972,8.955 21.908 C 10.069 21.668,10.644 21.104,10.903 19.998 C 10.963 19.742,10.975 19.423,10.989 17.722 C 11.009 15.302,10.976 14.960,10.654 14.286 C 10.370 13.693,9.806 13.285,9.031 13.111 C 8.687 13.034,8.518 13.027,6.680 13.017 C 5.591 13.012,4.570 13.023,4.412 13.042 " fill="#292D32" stroke="none" fill-rule="evenodd"></path></svg>