<svg width="24" height="24" viewBox="0 0 24 24" fill="none" xmlns="http://www.w3.org/2000/svg"><path d="M6.960 2.046 C 6.236 2.116,5.358 2.357,4.796 2.641 C 4.426 2.828,3.928 3.183,3.624 3.475 C 2.737 4.332,2.251 5.370,2.062 6.812 C 1.970 7.515,1.969 16.481,2.061 17.188 C 2.239 18.550,2.681 19.544,3.476 20.372 C 4.162 21.084,4.935 21.524,5.956 21.780 C 6.817 21.997,6.896 22.000,11.993 22.000 C 14.960 22.000,16.828 21.985,17.041 21.959 C 19.985 21.603,21.695 19.840,21.962 16.885 C 21.990 16.579,21.999 14.787,21.989 11.660 C 21.974 7.001,21.972 6.891,21.889 6.456 C 21.642 5.171,21.165 4.235,20.369 3.478 C 19.583 2.729,18.652 2.295,17.359 2.076 C 16.995 2.014,7.572 1.987,6.960 2.046 M10.607 3.116 C 11.025 3.403,11.076 3.970,10.714 4.307 C 10.519 4.489,10.455 4.496,8.820 4.521 C 7.103 4.548,7.051 4.555,6.492 4.818 C 6.061 5.022,5.771 5.235,5.415 5.612 C 5.161 5.880,5.049 6.039,4.885 6.366 C 4.528 7.080,4.512 7.180,4.484 8.966 L 4.460 10.513 4.339 10.662 C 4.156 10.888,3.984 10.968,3.714 10.950 C 3.422 10.931,3.201 10.791,3.085 10.550 C 3.003 10.382,3.000 10.319,3.000 9.016 C 3.000 8.269,3.019 7.505,3.042 7.319 C 3.312 5.110,5.070 3.330,7.260 3.045 C 7.414 3.025,8.198 3.011,9.003 3.014 L 10.466 3.020 10.607 3.116 M17.080 3.098 C 19.054 3.548,20.486 4.993,20.907 6.960 C 20.971 7.256,20.980 7.503,20.980 8.880 L 20.980 10.460 20.866 10.629 C 20.660 10.931,20.226 11.050,19.920 10.886 C 19.844 10.845,19.728 10.744,19.661 10.662 L 19.540 10.513 19.516 8.966 C 19.488 7.180,19.472 7.080,19.115 6.366 C 18.779 5.695,18.214 5.151,17.508 4.818 C 16.949 4.555,16.897 4.548,15.180 4.521 C 13.545 4.496,13.481 4.489,13.286 4.307 C 12.906 3.954,12.990 3.315,13.447 3.084 C 13.618 2.997,13.637 2.996,15.200 3.013 C 16.505 3.026,16.832 3.041,17.080 3.098 M4.079 13.120 C 4.165 13.163,4.286 13.265,4.348 13.346 L 4.460 13.494 4.484 15.037 C 4.512 16.820,4.528 16.917,4.887 17.640 C 5.073 18.015,5.141 18.105,5.518 18.482 C 5.895 18.859,5.985 18.927,6.360 19.113 C 7.083 19.472,7.180 19.488,8.963 19.516 L 10.506 19.540 10.654 19.652 C 11.100 19.993,11.041 20.678,10.543 20.918 C 10.364 21.005,10.344 21.006,8.771 20.991 L 7.180 20.975 6.711 20.850 C 4.853 20.357,3.497 18.930,3.093 17.040 C 3.029 16.744,3.020 16.497,3.020 15.117 L 3.020 13.533 3.134 13.369 C 3.345 13.063,3.757 12.955,4.079 13.120 M20.648 14.078 C 20.723 14.129,20.828 14.236,20.882 14.315 L 20.980 14.460 20.980 15.580 C 20.979 16.509,20.967 16.758,20.907 17.040 C 20.504 18.928,19.147 20.358,17.289 20.850 L 16.820 20.975 15.637 20.977 L 14.454 20.980 14.288 20.866 C 13.866 20.573,13.855 19.966,14.266 19.652 L 14.414 19.540 15.497 19.514 C 16.766 19.483,16.973 19.445,17.640 19.113 C 18.015 18.927,18.105 18.859,18.482 18.482 C 18.859 18.105,18.927 18.015,19.113 17.640 C 19.445 16.973,19.483 16.766,19.514 15.497 L 19.540 14.414 19.652 14.267 C 19.714 14.186,19.831 14.084,19.912 14.039 C 20.114 13.930,20.459 13.948,20.648 14.078 " fill="#292D32" stroke="none" fill-rule="evenodd"></path></svg>