<svg width="24" height="24" viewBox="0 0 24 24" fill="none" xmlns="http://www.w3.org/2000/svg"><path d="M11.560 1.267 C 9.905 1.339,8.158 1.830,6.780 2.609 C 6.359 2.848,5.660 3.318,5.261 3.632 C 4.899 3.917,3.917 4.899,3.632 5.261 C 2.187 7.097,1.419 9.107,1.281 11.409 C 1.220 12.417,1.368 13.984,1.559 14.359 C 1.862 14.952,2.777 14.817,2.925 14.156 C 2.952 14.039,2.938 13.870,2.872 13.509 C 2.795 13.089,2.782 12.879,2.781 12.020 C 2.780 10.929,2.819 10.583,3.040 9.706 C 3.854 6.484,6.484 3.854,9.706 3.040 C 10.583 2.819,10.929 2.780,12.020 2.781 C 12.865 2.782,13.098 2.796,13.520 2.869 C 14.150 2.979,14.325 2.950,14.567 2.693 C 14.943 2.297,14.756 1.653,14.221 1.499 C 13.883 1.403,13.292 1.323,12.600 1.281 C 12.237 1.259,11.913 1.244,11.880 1.248 C 11.847 1.252,11.703 1.261,11.560 1.267 M16.785 2.289 C 16.699 2.312,16.563 2.397,16.482 2.478 C 16.181 2.779,16.180 3.220,16.478 3.518 C 16.703 3.743,16.816 3.760,18.064 3.760 L 19.178 3.760 16.755 6.190 C 14.492 8.459,14.328 8.633,14.280 8.812 C 14.133 9.362,14.646 9.867,15.204 9.720 C 15.363 9.678,15.613 9.441,17.808 7.249 L 20.237 4.824 20.248 6.002 C 20.259 7.063,20.268 7.195,20.336 7.332 C 20.489 7.641,20.868 7.811,21.199 7.721 C 21.422 7.660,21.656 7.433,21.715 7.219 C 21.774 7.007,21.777 3.002,21.718 2.791 C 21.668 2.612,21.515 2.422,21.345 2.329 C 21.232 2.266,21.018 2.259,19.080 2.253 C 17.693 2.249,16.885 2.261,16.785 2.289 M21.629 9.287 C 21.441 9.327,21.302 9.417,21.194 9.568 C 21.050 9.771,21.037 9.935,21.124 10.500 C 21.941 15.814,18.223 20.653,12.901 21.202 C 12.294 21.264,11.127 21.230,10.560 21.133 C 9.990 21.036,9.809 21.044,9.588 21.173 C 9.164 21.422,9.120 22.021,9.501 22.356 C 9.854 22.666,11.921 22.832,13.296 22.662 C 15.659 22.369,17.752 21.366,19.475 19.701 C 21.286 17.951,22.432 15.589,22.677 13.103 C 22.799 11.864,22.662 10.032,22.416 9.610 C 22.265 9.351,21.946 9.220,21.629 9.287 M8.660 14.346 C 8.594 14.380,7.466 15.480,6.153 16.791 L 3.766 19.174 3.753 17.997 C 3.740 16.825,3.740 16.819,3.639 16.641 C 3.364 16.148,2.636 16.148,2.361 16.641 L 2.260 16.820 2.260 19.000 L 2.260 21.180 2.351 21.350 C 2.401 21.443,2.516 21.569,2.608 21.630 L 2.774 21.740 4.857 21.753 C 6.337 21.762,7.002 21.752,7.154 21.719 C 7.814 21.575,7.947 20.691,7.358 20.360 C 7.181 20.261,7.173 20.260,6.004 20.247 L 4.827 20.234 7.250 17.807 C 9.588 15.465,9.673 15.373,9.711 15.189 C 9.815 14.686,9.497 14.280,9.000 14.282 C 8.879 14.283,8.726 14.311,8.660 14.346 " fill="#292D32" stroke="none" fill-rule="evenodd"></path></svg>