<svg width="24" height="24" viewBox="0 0 24 24" fill="none" xmlns="http://www.w3.org/2000/svg"><path d="M6.960 2.046 C 6.236 2.116,5.358 2.357,4.796 2.641 C 4.426 2.828,3.928 3.183,3.624 3.475 C 2.737 4.332,2.251 5.370,2.062 6.812 C 1.970 7.515,1.969 16.481,2.061 17.188 C 2.239 18.550,2.681 19.544,3.476 20.372 C 4.162 21.084,4.935 21.524,5.956 21.780 C 6.817 21.997,6.896 22.000,11.993 22.000 C 14.960 22.000,16.828 21.985,17.041 21.959 C 19.985 21.603,21.695 19.840,21.962 16.885 C 21.990 16.579,21.999 14.787,21.989 11.660 C 21.974 7.001,21.972 6.891,21.889 6.456 C 21.642 5.171,21.165 4.235,20.369 3.478 C 19.583 2.729,18.652 2.295,17.359 2.076 C 16.995 2.014,7.572 1.987,6.960 2.046 M18.405 5.381 C 18.499 5.447,18.613 5.564,18.658 5.641 C 18.738 5.777,18.740 5.835,18.740 7.980 C 18.740 10.134,18.738 10.183,18.656 10.340 C 18.610 10.428,18.497 10.554,18.404 10.619 C 18.263 10.719,18.196 10.739,18.000 10.739 C 17.804 10.739,17.737 10.719,17.596 10.619 C 17.272 10.390,17.262 10.342,17.248 9.003 L 17.235 7.826 15.308 9.750 C 13.575 11.479,13.362 11.679,13.204 11.720 C 12.640 11.868,12.167 11.399,12.289 10.811 C 12.327 10.628,12.405 10.543,14.253 8.690 L 16.178 6.760 15.059 6.760 C 14.395 6.760,13.878 6.742,13.787 6.717 C 13.572 6.657,13.344 6.416,13.286 6.186 C 13.190 5.807,13.424 5.386,13.785 5.289 C 13.885 5.261,14.695 5.249,16.087 5.253 L 18.233 5.260 18.405 5.381 M11.352 12.351 C 11.633 12.479,11.785 12.834,11.711 13.189 C 11.673 13.372,11.595 13.457,9.747 15.310 L 7.822 17.240 8.913 17.240 C 9.608 17.240,10.071 17.257,10.189 17.286 C 10.577 17.384,10.814 17.790,10.714 18.186 C 10.655 18.421,10.427 18.659,10.203 18.719 C 10.094 18.749,9.351 18.759,7.904 18.751 L 5.767 18.740 5.595 18.619 C 5.501 18.553,5.387 18.436,5.342 18.359 C 5.263 18.225,5.260 18.152,5.247 16.140 C 5.238 14.662,5.248 13.998,5.281 13.846 C 5.406 13.271,6.104 13.064,6.520 13.480 C 6.739 13.699,6.760 13.840,6.760 15.087 L 6.760 16.178 8.690 14.253 C 10.498 12.448,10.631 12.325,10.800 12.289 C 11.006 12.246,11.162 12.264,11.352 12.351 " fill="#292D32" stroke="none" fill-rule="evenodd"></path></svg>