<svg width="24" height="24" viewBox="0 0 24 24" fill="none" xmlns="http://www.w3.org/2000/svg"><path d="M11.260 2.041 C 8.942 2.306,6.921 3.680,5.939 5.660 C 5.167 7.215,5.040 8.833,5.563 10.454 C 5.735 10.989,6.154 11.802,6.482 12.240 C 8.699 15.200,12.837 15.880,15.912 13.789 C 17.821 12.492,18.935 10.198,18.726 7.994 C 18.641 7.089,18.466 6.476,18.061 5.660 C 17.131 3.786,15.293 2.459,13.120 2.095 C 12.690 2.023,11.678 1.994,11.260 2.041 M7.772 15.638 C 7.507 15.800,7.517 15.675,7.529 18.650 L 7.540 21.340 7.665 21.560 C 7.763 21.734,7.834 21.804,8.005 21.894 C 8.192 21.993,8.252 22.005,8.464 21.989 C 8.679 21.972,8.886 21.886,10.161 21.283 C 10.960 20.905,11.700 20.575,11.807 20.551 C 11.949 20.518,12.051 20.518,12.193 20.551 C 12.300 20.575,13.042 20.907,13.843 21.287 L 15.300 21.978 15.606 21.979 C 15.883 21.980,15.929 21.968,16.084 21.860 C 16.188 21.787,16.296 21.661,16.358 21.541 L 16.460 21.342 16.471 18.631 C 16.483 15.650,16.491 15.750,16.241 15.621 C 16.068 15.531,15.930 15.546,15.640 15.684 C 14.367 16.288,12.908 16.565,11.470 16.476 C 10.405 16.410,9.424 16.164,8.466 15.723 C 8.068 15.540,7.956 15.526,7.772 15.638 " fill="#292D32" stroke="none" fill-rule="evenodd"></path></svg>