<svg width="24" height="24" viewBox="0 0 24 24" fill="none" xmlns="http://www.w3.org/2000/svg"><path d="M11.242 2.046 C 9.364 2.242,7.562 3.264,6.425 4.776 C 4.186 7.753,4.652 11.973,7.480 14.337 C 8.879 15.507,10.796 16.129,12.510 15.968 C 13.949 15.834,15.078 15.412,16.189 14.593 C 19.074 12.468,19.850 8.415,17.961 5.340 C 16.549 3.041,13.943 1.764,11.242 2.046 M12.320 5.638 C 12.425 5.719,12.556 5.933,12.840 6.488 C 13.049 6.895,13.247 7.261,13.280 7.301 C 13.384 7.425,13.642 7.509,14.200 7.599 C 15.050 7.735,15.219 7.812,15.323 8.111 C 15.405 8.346,15.316 8.490,14.701 9.121 C 13.956 9.886,13.975 9.822,14.199 10.806 C 14.374 11.573,14.383 11.757,14.255 11.953 C 14.171 12.082,13.962 12.162,13.786 12.133 C 13.648 12.111,13.291 11.926,12.562 11.498 C 12.267 11.325,12.196 11.300,12.002 11.300 C 11.794 11.300,11.742 11.323,11.185 11.654 C 10.475 12.077,10.378 12.120,10.139 12.120 C 9.903 12.120,9.807 12.067,9.737 11.898 C 9.650 11.690,9.668 11.454,9.820 10.806 C 9.897 10.478,9.960 10.149,9.959 10.075 C 9.958 9.828,9.821 9.632,9.285 9.104 C 8.694 8.521,8.595 8.357,8.679 8.103 C 8.735 7.933,8.917 7.784,9.140 7.726 C 9.228 7.703,9.567 7.639,9.894 7.584 C 10.376 7.503,10.513 7.464,10.623 7.381 C 10.723 7.304,10.855 7.085,11.144 6.517 C 11.424 5.965,11.567 5.726,11.665 5.648 C 11.905 5.456,12.082 5.453,12.320 5.638 M3.494 15.530 C 2.663 16.364,2.176 16.884,2.115 17.000 C 2.037 17.150,2.021 17.241,2.021 17.543 C 2.020 17.871,2.030 17.921,2.129 18.071 C 2.305 18.337,2.489 18.415,3.512 18.658 C 4.480 18.888,4.624 18.939,4.814 19.115 C 4.995 19.283,5.057 19.448,5.277 20.365 C 5.498 21.289,5.574 21.466,5.822 21.636 C 6.145 21.857,6.499 21.896,6.823 21.745 C 6.969 21.677,7.115 21.551,7.343 21.295 C 8.066 20.484,10.184 18.027,10.229 17.947 C 10.301 17.817,10.290 17.596,10.203 17.455 C 10.120 17.319,10.109 17.314,9.258 17.043 C 8.971 16.952,8.485 16.753,8.178 16.601 C 7.230 16.133,6.558 15.638,5.794 14.846 C 5.526 14.568,5.269 14.318,5.223 14.291 C 5.178 14.265,5.059 14.242,4.960 14.241 L 4.780 14.240 3.494 15.530 M18.147 14.852 C 16.949 16.061,15.839 16.726,14.261 17.179 C 13.866 17.293,13.740 17.383,13.675 17.600 C 13.642 17.713,13.645 17.774,13.691 17.882 C 13.760 18.044,16.740 21.488,16.951 21.650 C 17.324 21.936,17.874 21.892,18.233 21.548 C 18.433 21.357,18.463 21.276,18.682 20.357 C 18.893 19.469,18.961 19.287,19.146 19.115 C 19.334 18.940,19.468 18.894,20.444 18.662 C 21.539 18.401,21.674 18.338,21.852 17.999 C 21.953 17.806,21.965 17.747,21.953 17.500 C 21.928 17.012,21.891 16.963,20.464 15.530 L 19.180 14.240 18.967 14.240 L 18.755 14.240 18.147 14.852 " fill="#292D32" stroke="none" fill-rule="evenodd"></path></svg>