<svg width="24" height="24" viewBox="0 0 24 24" fill="none" xmlns="http://www.w3.org/2000/svg"><path d="M10.440 1.384 C 10.275 1.455,10.132 1.582,10.060 1.720 C 10.008 1.820,9.520 3.792,9.520 3.902 C 9.520 3.951,9.641 3.960,10.272 3.960 L 11.024 3.960 11.256 3.010 C 11.470 2.139,11.485 2.046,11.443 1.889 C 11.322 1.445,10.849 1.206,10.440 1.384 M16.917 1.432 C 16.812 1.499,16.706 1.609,16.668 1.689 C 16.607 1.817,16.160 3.766,16.160 3.902 C 16.160 3.951,16.285 3.960,16.920 3.960 C 17.338 3.960,17.680 3.946,17.680 3.929 C 17.680 3.912,17.763 3.520,17.864 3.059 C 18.073 2.102,18.087 1.914,17.962 1.693 C 17.832 1.461,17.638 1.346,17.345 1.329 C 17.129 1.316,17.079 1.328,16.917 1.432 M6.892 4.021 C 6.266 4.190,5.739 4.608,5.461 5.158 C 5.357 5.365,1.104 19.025,1.041 19.355 C 0.914 20.024,1.132 20.753,1.612 21.266 C 1.883 21.556,2.143 21.732,2.513 21.876 L 2.780 21.980 11.892 21.991 C 21.955 22.002,21.245 22.019,21.797 21.749 C 22.154 21.575,22.577 21.150,22.754 20.788 C 22.827 20.639,22.915 20.378,22.951 20.207 C 23.014 19.901,23.010 19.837,22.527 13.139 C 22.259 9.421,22.019 6.236,21.994 6.060 C 21.926 5.577,21.819 5.275,21.598 4.944 C 21.374 4.610,21.109 4.379,20.745 4.200 C 20.325 3.994,20.065 3.961,18.813 3.961 C 17.774 3.960,17.684 3.965,17.664 4.030 C 17.652 4.069,17.516 4.684,17.362 5.398 C 17.113 6.547,17.068 6.712,16.966 6.838 C 16.642 7.239,16.109 7.235,15.785 6.829 C 15.589 6.583,15.598 6.392,15.859 5.180 C 15.983 4.608,16.094 4.099,16.106 4.050 L 16.129 3.959 13.577 3.970 L 11.026 3.980 10.701 5.320 C 10.522 6.057,10.354 6.699,10.329 6.746 C 10.259 6.873,10.061 7.027,9.896 7.081 C 9.440 7.232,8.920 6.864,8.920 6.391 C 8.920 6.312,9.028 5.800,9.160 5.254 C 9.291 4.707,9.415 4.192,9.435 4.110 L 9.471 3.960 8.286 3.963 C 7.401 3.965,7.047 3.980,6.892 4.021 M21.223 15.280 C 21.368 17.711,21.479 19.785,21.469 19.888 C 21.449 20.106,21.305 20.322,21.108 20.430 C 20.996 20.491,20.830 20.502,19.750 20.513 C 19.073 20.520,18.520 20.511,18.519 20.493 C 18.517 20.407,20.937 10.748,20.947 10.800 C 20.954 10.833,21.078 12.849,21.223 15.280 M15.980 11.316 C 16.275 11.453,16.440 11.697,16.440 12.000 C 16.440 12.303,16.275 12.547,15.980 12.684 C 15.828 12.755,15.626 12.758,11.700 12.758 C 7.774 12.758,7.572 12.755,7.420 12.684 C 7.125 12.547,6.960 12.303,6.960 12.000 C 6.960 11.697,7.125 11.453,7.420 11.316 C 7.572 11.245,7.774 11.242,11.700 11.242 C 15.626 11.242,15.828 11.245,15.980 11.316 M14.980 15.316 C 15.275 15.453,15.440 15.697,15.440 16.000 C 15.440 16.303,15.275 16.547,14.980 16.684 C 14.828 16.755,14.626 16.758,10.700 16.758 C 6.774 16.758,6.572 16.755,6.420 16.684 C 6.125 16.547,5.960 16.303,5.960 16.000 C 5.960 15.697,6.125 15.453,6.420 15.316 C 6.572 15.245,6.774 15.242,10.700 15.242 C 14.626 15.242,14.828 15.245,14.980 15.316 " fill="#292D32" stroke="none" fill-rule="evenodd"></path></svg>