<svg width="24" height="24" viewBox="0 0 24 24" fill="none" xmlns="http://www.w3.org/2000/svg"><path d="M6.960 2.046 C 6.236 2.116,5.358 2.357,4.796 2.641 C 4.426 2.828,3.928 3.183,3.624 3.475 C 2.737 4.332,2.251 5.370,2.062 6.812 C 1.970 7.515,1.969 16.481,2.061 17.188 C 2.239 18.550,2.681 19.544,3.476 20.372 C 4.162 21.084,4.935 21.524,5.956 21.780 C 6.817 21.997,6.896 22.000,11.993 22.000 C 14.960 22.000,16.828 21.985,17.041 21.959 C 19.985 21.603,21.695 19.840,21.962 16.885 C 21.990 16.579,21.999 14.787,21.989 11.660 C 21.974 7.001,21.972 6.891,21.889 6.456 C 21.642 5.171,21.165 4.235,20.369 3.478 C 19.583 2.729,18.652 2.295,17.359 2.076 C 16.995 2.014,7.572 1.987,6.960 2.046 M17.426 6.904 C 17.645 7.081,17.731 7.248,17.731 7.494 C 17.731 7.806,17.542 8.094,17.267 8.197 C 17.110 8.257,6.890 8.257,6.733 8.197 C 6.460 8.095,6.269 7.807,6.269 7.500 C 6.269 7.198,6.412 6.973,6.700 6.823 C 6.807 6.767,7.367 6.761,12.046 6.770 L 17.273 6.780 17.426 6.904 M17.189 11.286 C 17.577 11.384,17.814 11.790,17.714 12.186 C 17.656 12.416,17.428 12.657,17.213 12.717 C 17.000 12.776,7.000 12.776,6.787 12.717 C 6.572 12.657,6.344 12.416,6.286 12.186 C 6.190 11.806,6.425 11.385,6.785 11.289 C 7.017 11.228,16.945 11.225,17.189 11.286 M17.426 15.904 C 17.645 16.081,17.731 16.248,17.731 16.494 C 17.731 16.806,17.542 17.094,17.267 17.197 C 17.190 17.227,15.545 17.240,12.000 17.240 C 8.455 17.240,6.810 17.227,6.733 17.197 C 6.460 17.095,6.269 16.807,6.269 16.500 C 6.269 16.198,6.412 15.973,6.700 15.823 C 6.807 15.767,7.367 15.761,12.046 15.770 L 17.273 15.780 17.426 15.904 " fill="#292D32" stroke="none" fill-rule="evenodd"></path></svg>