<svg width="24" height="24" viewBox="0 0 24 24" fill="none" xmlns="http://www.w3.org/2000/svg"><path d="M6.107 2.922 C 5.437 3.001,4.865 3.283,4.380 3.776 C 3.808 4.357,3.562 4.919,3.531 5.720 C 3.509 6.278,3.577 6.646,3.781 7.075 C 4.166 7.886,4.779 8.418,5.640 8.686 C 5.890 8.764,6.027 8.780,6.460 8.780 C 6.893 8.780,7.030 8.764,7.280 8.686 C 8.141 8.418,8.754 7.886,9.139 7.075 C 9.343 6.646,9.411 6.278,9.389 5.720 C 9.357 4.908,9.110 4.351,8.520 3.759 C 8.248 3.486,8.107 3.381,7.815 3.233 C 7.285 2.964,6.682 2.854,6.107 2.922 M17.187 2.922 C 16.506 3.002,15.949 3.281,15.434 3.800 C 15.146 4.089,15.057 4.211,14.905 4.524 C 14.673 5.003,14.592 5.351,14.594 5.860 C 14.599 7.185,15.391 8.248,16.701 8.686 C 16.940 8.767,17.059 8.780,17.540 8.780 C 18.019 8.780,18.140 8.767,18.376 8.688 C 19.689 8.248,20.481 7.186,20.486 5.860 C 20.488 5.347,20.407 4.999,20.171 4.520 C 20.014 4.200,19.927 4.083,19.622 3.779 C 19.329 3.487,19.190 3.382,18.895 3.233 C 18.365 2.964,17.762 2.854,17.187 2.922 M5.860 15.257 C 5.145 15.422,4.538 15.801,4.136 16.332 C 3.427 17.269,3.320 18.459,3.848 19.520 C 3.984 19.793,4.088 19.931,4.379 20.220 C 4.989 20.828,5.612 21.087,6.460 21.087 C 7.308 21.087,7.931 20.828,8.541 20.220 C 8.832 19.931,8.936 19.793,9.072 19.520 C 9.299 19.063,9.400 18.645,9.399 18.164 C 9.398 17.669,9.318 17.299,9.126 16.900 C 8.745 16.111,8.134 15.582,7.300 15.320 C 6.942 15.207,6.212 15.175,5.860 15.257 M16.940 15.257 C 16.225 15.422,15.618 15.801,15.216 16.332 C 14.507 17.269,14.400 18.459,14.928 19.520 C 15.064 19.793,15.168 19.931,15.459 20.220 C 16.069 20.828,16.692 21.087,17.540 21.087 C 18.388 21.087,19.011 20.828,19.621 20.220 C 19.912 19.931,20.016 19.793,20.152 19.520 C 20.379 19.063,20.480 18.645,20.479 18.164 C 20.478 17.669,20.398 17.299,20.206 16.900 C 19.825 16.111,19.214 15.582,18.380 15.320 C 18.022 15.207,17.292 15.175,16.940 15.257 " fill="#292D32" stroke="none" fill-rule="evenodd"></path></svg>