<svg width="24" height="24" viewBox="0 0 24 24" fill="none" xmlns="http://www.w3.org/2000/svg"><path d="M6.060 2.503 C 4.990 2.669,4.080 3.114,3.375 3.819 C 2.662 4.533,2.231 5.436,2.062 6.573 C 1.971 7.183,1.970 13.698,2.061 14.300 C 2.237 15.477,2.686 16.374,3.477 17.130 C 4.262 17.881,5.221 18.288,6.480 18.406 L 7.000 18.455 7.002 19.597 C 7.004 20.826,7.016 20.916,7.217 21.179 C 7.443 21.476,7.916 21.630,8.264 21.521 C 8.350 21.494,9.446 20.790,10.700 19.956 L 12.981 18.440 15.109 18.440 C 17.355 18.440,17.806 18.416,18.420 18.260 C 19.292 18.040,19.930 17.697,20.523 17.130 C 21.314 16.374,21.763 15.477,21.939 14.300 C 22.030 13.698,22.029 7.183,21.938 6.573 C 21.819 5.771,21.584 5.121,21.199 4.525 C 20.631 3.647,19.696 2.961,18.655 2.660 C 17.888 2.437,17.961 2.440,11.955 2.444 C 7.445 2.447,6.353 2.458,6.060 2.503 M12.500 6.180 C 13.202 6.328,13.840 6.829,14.152 7.480 C 14.330 7.853,14.400 8.155,14.400 8.559 C 14.400 9.266,14.080 9.833,13.387 10.356 C 12.810 10.790,12.795 10.811,12.756 11.237 C 12.710 11.733,12.600 11.921,12.271 12.058 C 12.083 12.137,11.917 12.137,11.729 12.058 C 11.319 11.887,11.189 11.549,11.278 10.880 C 11.364 10.228,11.678 9.764,12.398 9.225 C 12.714 8.988,12.791 8.908,12.856 8.752 C 12.925 8.585,12.928 8.539,12.885 8.347 C 12.790 7.923,12.436 7.640,12.000 7.640 C 11.710 7.640,11.510 7.729,11.324 7.942 C 11.166 8.121,11.129 8.215,11.082 8.549 C 11.016 9.013,10.758 9.260,10.340 9.260 C 9.774 9.260,9.512 8.825,9.638 8.093 C 9.792 7.191,10.578 6.377,11.480 6.182 C 11.822 6.109,12.156 6.108,12.500 6.180 M12.377 13.216 C 12.787 13.456,12.858 14.066,12.513 14.388 C 12.298 14.589,11.992 14.648,11.729 14.538 C 11.426 14.411,11.269 14.178,11.269 13.857 C 11.269 13.280,11.882 12.926,12.377 13.216 " fill="#292D32" stroke="none" fill-rule="evenodd"></path></svg>