<svg width="24" height="24" viewBox="0 0 24 24" fill="none" xmlns="http://www.w3.org/2000/svg"><path d="M17.460 1.066 C 16.924 1.181,16.484 1.504,16.249 1.954 C 16.022 2.390,16.020 2.413,16.020 4.500 C 16.020 6.587,16.022 6.610,16.249 7.046 C 16.399 7.334,16.666 7.601,16.954 7.751 C 17.390 7.978,17.413 7.980,19.500 7.980 C 21.587 7.980,21.610 7.978,22.046 7.751 C 22.334 7.601,22.601 7.334,22.751 7.046 C 22.978 6.610,22.980 6.587,22.980 4.500 C 22.980 2.413,22.978 2.390,22.751 1.954 C 22.511 1.493,22.073 1.179,21.512 1.063 C 21.074 0.973,17.884 0.976,17.460 1.066 M6.380 2.043 C 5.865 2.105,5.321 2.270,4.820 2.516 C 3.379 3.225,2.434 4.446,2.093 6.040 C 2.025 6.356,2.020 6.665,2.020 10.460 C 2.020 14.220,2.026 14.568,2.091 14.891 C 2.498 16.886,4.005 18.416,5.982 18.841 C 6.318 18.913,6.560 18.929,7.540 18.947 C 8.639 18.966,8.711 18.972,8.900 19.059 C 9.010 19.109,9.139 19.188,9.187 19.234 C 9.235 19.280,9.661 19.828,10.135 20.452 C 10.653 21.134,11.057 21.628,11.148 21.691 C 11.453 21.902,11.679 21.978,12.000 21.978 C 12.321 21.978,12.547 21.902,12.852 21.691 C 12.944 21.628,13.349 21.132,13.871 20.443 C 14.348 19.814,14.792 19.250,14.858 19.190 C 15.082 18.985,15.204 18.966,16.460 18.945 C 17.439 18.929,17.681 18.913,18.012 18.842 C 20.162 18.380,21.731 16.648,21.963 14.481 C 21.987 14.257,21.999 13.299,21.992 12.160 C 21.980 10.260,21.978 10.217,21.894 10.060 C 21.802 9.890,21.654 9.738,21.462 9.615 C 21.352 9.545,21.211 9.538,19.442 9.516 C 17.660 9.494,17.519 9.487,17.202 9.405 C 15.914 9.072,14.928 8.086,14.595 6.798 C 14.513 6.481,14.506 6.340,14.484 4.558 C 14.462 2.789,14.455 2.648,14.385 2.538 C 14.262 2.346,14.110 2.198,13.940 2.106 L 13.780 2.020 10.220 2.015 C 8.262 2.012,6.534 2.025,6.380 2.043 M19.293 2.650 L 19.482 2.755 19.689 2.648 C 19.870 2.554,19.944 2.540,20.258 2.540 C 20.572 2.540,20.650 2.555,20.845 2.650 C 21.124 2.787,21.412 3.090,21.551 3.391 C 21.691 3.693,21.723 4.269,21.621 4.625 C 21.366 5.512,20.254 6.490,19.500 6.490 C 18.921 6.490,17.973 5.808,17.588 5.115 C 17.372 4.726,17.308 4.456,17.327 4.005 C 17.340 3.677,17.361 3.581,17.467 3.354 C 17.609 3.053,17.836 2.805,18.088 2.676 C 18.358 2.538,18.438 2.521,18.783 2.534 C 19.043 2.543,19.141 2.565,19.293 2.650 M8.512 10.147 C 9.142 10.534,9.154 11.446,8.535 11.839 C 8.060 12.141,7.442 11.992,7.141 11.503 C 7.034 11.329,7.020 11.271,7.020 11.003 C 7.020 10.744,7.036 10.673,7.131 10.511 C 7.339 10.158,7.660 9.988,8.072 10.015 C 8.261 10.027,8.371 10.060,8.512 10.147 M12.512 10.147 C 13.142 10.534,13.154 11.446,12.535 11.839 C 12.060 12.141,11.442 11.992,11.141 11.503 C 11.034 11.329,11.020 11.271,11.020 11.003 C 11.020 10.744,11.036 10.673,11.131 10.511 C 11.339 10.158,11.660 9.988,12.072 10.015 C 12.261 10.027,12.371 10.060,12.512 10.147 " fill="#292D32" stroke="none" fill-rule="evenodd"></path></svg>