<svg width="24" height="24" viewBox="0 0 24 24" fill="none" xmlns="http://www.w3.org/2000/svg"><path d="M6.060 2.503 C 4.990 2.669,4.080 3.114,3.375 3.819 C 2.662 4.533,2.231 5.436,2.062 6.573 C 1.971 7.183,1.970 13.698,2.061 14.300 C 2.237 15.477,2.686 16.374,3.477 17.130 C 4.070 17.697,4.708 18.040,5.580 18.260 C 6.194 18.416,6.645 18.440,8.891 18.440 L 11.019 18.440 13.300 19.956 C 14.554 20.790,15.650 21.494,15.735 21.521 C 16.212 21.670,16.823 21.335,16.958 20.849 C 16.982 20.763,17.000 20.227,17.000 19.577 L 17.000 18.455 17.520 18.406 C 18.779 18.288,19.738 17.881,20.523 17.130 C 21.314 16.374,21.763 15.477,21.939 14.300 C 22.030 13.698,22.029 7.183,21.938 6.573 C 21.819 5.771,21.584 5.121,21.199 4.525 C 20.631 3.647,19.696 2.961,18.655 2.660 C 17.888 2.437,17.961 2.440,11.955 2.444 C 7.445 2.447,6.353 2.458,6.060 2.503 M15.820 9.835 C 16.010 9.923,16.096 10.012,16.178 10.210 C 16.257 10.398,16.257 10.602,16.178 10.790 C 16.096 10.988,16.010 11.077,15.820 11.165 C 15.668 11.234,15.466 11.238,12.009 11.239 C 8.103 11.240,8.207 11.245,7.986 11.048 C 7.783 10.869,7.708 10.483,7.822 10.210 C 7.904 10.012,7.990 9.923,8.180 9.835 C 8.332 9.766,8.533 9.762,12.000 9.762 C 15.467 9.762,15.668 9.766,15.820 9.835 " fill="#292D32" stroke="none" fill-rule="evenodd"></path></svg>