<svg width="24" height="24" viewBox="0 0 24 24" fill="none" xmlns="http://www.w3.org/2000/svg"><path d="M7.064 2.044 C 4.903 2.222,3.354 3.183,2.601 4.814 C 2.317 5.427,2.121 6.205,2.040 7.034 C 2.015 7.295,2.000 9.993,2.000 14.297 C 2.000 21.989,1.975 21.377,2.300 21.702 C 2.626 22.028,1.981 22.004,9.984 21.988 C 17.589 21.972,17.203 21.982,18.060 21.783 C 19.070 21.549,19.885 21.109,20.525 20.454 C 21.166 19.796,21.561 19.032,21.795 18.000 C 21.981 17.176,21.980 17.215,21.980 12.000 C 21.980 6.785,21.981 6.824,21.795 6.000 C 21.570 5.007,21.168 4.211,20.584 3.604 C 19.689 2.673,18.501 2.175,16.860 2.042 C 16.253 1.992,7.666 1.994,7.064 2.044 M12.429 7.907 C 12.746 8.162,12.739 8.120,12.752 9.768 L 12.764 11.236 14.232 11.248 C 15.881 11.262,15.837 11.254,16.096 11.574 C 16.208 11.712,16.220 11.755,16.220 12.000 C 16.220 12.244,16.207 12.289,16.098 12.426 C 16.030 12.511,15.896 12.620,15.799 12.670 C 15.626 12.758,15.597 12.760,14.194 12.760 L 12.765 12.760 12.752 14.230 C 12.739 15.837,12.742 15.812,12.494 16.047 C 12.217 16.309,11.783 16.309,11.506 16.047 C 11.258 15.812,11.261 15.837,11.248 14.230 L 11.235 12.760 9.806 12.760 C 8.403 12.760,8.374 12.758,8.201 12.670 C 8.104 12.620,7.970 12.511,7.902 12.426 C 7.793 12.289,7.780 12.244,7.780 12.000 C 7.780 11.755,7.792 11.712,7.904 11.574 C 8.163 11.254,8.119 11.262,9.768 11.248 L 11.236 11.236 11.248 9.768 C 11.261 8.181,11.261 8.183,11.486 7.973 C 11.665 7.806,11.807 7.755,12.049 7.770 C 12.233 7.782,12.309 7.810,12.429 7.907 " fill="#292D32" stroke="none" fill-rule="evenodd"></path></svg>