<svg width="24" height="24" viewBox="0 0 24 24" fill="none" xmlns="http://www.w3.org/2000/svg"><path d="M10.140 2.026 C 8.558 2.174,7.487 2.710,6.804 3.697 C 6.582 4.017,6.593 4.264,6.836 4.429 C 6.933 4.496,7.163 4.500,10.460 4.500 C 13.598 4.500,14.027 4.507,14.409 4.569 C 15.286 4.710,15.795 4.861,16.461 5.180 C 18.166 5.997,19.194 7.608,19.438 9.848 C 19.462 10.073,19.480 11.157,19.480 12.420 C 19.480 14.816,19.476 14.774,19.719 14.899 C 19.901 14.994,20.001 14.974,20.280 14.786 C 21.080 14.249,21.574 13.445,21.850 12.231 C 21.931 11.877,21.935 11.734,21.950 9.040 C 21.967 6.036,21.956 5.787,21.777 5.065 C 21.360 3.389,20.300 2.448,18.423 2.090 C 18.148 2.037,17.525 2.027,14.200 2.020 C 12.055 2.015,10.228 2.018,10.140 2.026 M5.844 6.063 C 3.541 6.346,2.293 7.615,2.042 9.928 C 1.985 10.454,1.986 15.288,2.043 15.863 C 2.266 18.098,3.123 19.127,5.037 19.460 C 5.436 19.529,6.400 19.597,6.997 19.599 C 7.599 19.601,7.595 19.597,8.441 20.720 C 9.194 21.719,9.353 21.879,9.697 21.981 C 9.951 22.057,10.064 22.055,10.317 21.973 C 10.627 21.873,10.827 21.668,11.540 20.722 C 11.897 20.248,12.232 19.821,12.285 19.773 C 12.432 19.637,12.576 19.600,12.953 19.599 C 15.823 19.594,17.378 18.527,17.838 16.248 C 17.982 15.530,18.009 14.837,17.988 12.339 C 17.970 10.159,17.962 9.946,17.885 9.526 C 17.513 7.526,16.442 6.464,14.421 6.091 C 14.102 6.032,13.609 6.023,10.180 6.015 C 7.054 6.008,6.211 6.018,5.844 6.063 M6.947 12.113 C 7.133 12.208,7.346 12.436,7.425 12.626 C 7.455 12.698,7.480 12.867,7.480 13.000 C 7.480 13.286,7.419 13.450,7.235 13.659 C 6.980 13.949,6.568 14.066,6.192 13.953 C 5.987 13.891,5.688 13.625,5.595 13.422 C 5.507 13.226,5.496 12.815,5.575 12.626 C 5.685 12.362,5.944 12.132,6.240 12.035 C 6.399 11.983,6.771 12.024,6.947 12.113 M10.423 12.112 C 10.937 12.374,11.131 12.975,10.862 13.470 C 10.367 14.378,9.005 14.032,9.001 12.997 C 8.999 12.592,9.275 12.201,9.665 12.056 C 9.866 11.982,10.219 12.007,10.423 12.112 M13.909 12.094 C 14.267 12.279,14.480 12.617,14.479 13.000 C 14.478 13.523,14.104 13.934,13.579 13.989 C 12.669 14.083,12.137 12.954,12.785 12.306 C 12.902 12.189,13.064 12.093,13.240 12.035 C 13.385 11.987,13.767 12.021,13.909 12.094 " fill="#292D32" stroke="none" fill-rule="evenodd"></path></svg>