<svg width="24" height="24" viewBox="0 0 24 24" fill="none" xmlns="http://www.w3.org/2000/svg"><path d="M8.840 2.025 C 8.335 2.100,8.129 2.148,7.806 2.263 C 6.446 2.746,5.422 3.915,5.096 5.357 C 5.063 5.503,5.026 5.941,5.013 6.342 C 4.992 6.983,4.997 7.082,5.060 7.214 C 5.191 7.490,4.959 7.474,9.064 7.490 C 12.674 7.505,12.791 7.508,13.151 7.590 C 13.678 7.710,13.885 7.782,14.352 8.008 C 15.503 8.566,16.398 9.584,16.827 10.820 C 17.044 11.447,17.049 11.501,17.075 13.440 C 17.100 15.248,17.101 15.261,17.191 15.387 C 17.324 15.575,17.497 15.616,18.018 15.585 C 20.064 15.465,21.466 14.313,21.895 12.400 C 21.978 12.030,21.980 11.938,21.980 8.860 C 21.980 5.376,21.987 5.485,21.723 4.761 C 21.312 3.636,20.364 2.688,19.241 2.278 C 18.505 2.010,18.859 2.026,13.660 2.017 C 11.064 2.013,8.895 2.016,8.840 2.025 M4.823 9.044 C 4.194 9.136,3.563 9.404,3.130 9.762 C 2.670 10.143,2.301 10.743,2.111 11.420 C 2.022 11.737,2.021 11.763,2.020 14.420 C 2.020 17.066,2.021 17.104,2.109 17.440 C 2.159 17.627,2.284 17.951,2.388 18.160 C 2.546 18.477,2.637 18.599,2.939 18.900 C 3.137 19.098,3.404 19.321,3.532 19.396 C 3.891 19.607,4.489 19.794,4.973 19.848 L 5.396 19.896 5.408 20.721 C 5.420 21.525,5.423 21.550,5.520 21.694 C 5.656 21.894,5.912 22.016,6.144 21.990 C 6.295 21.973,6.561 21.811,7.892 20.925 L 9.462 19.880 10.941 19.880 C 12.616 19.879,12.979 19.845,13.551 19.630 C 14.297 19.350,14.866 18.836,15.200 18.141 C 15.580 17.353,15.574 17.408,15.590 14.640 C 15.606 12.020,15.593 11.788,15.403 11.195 C 15.231 10.660,15.038 10.350,14.624 9.938 C 14.320 9.636,14.198 9.546,13.880 9.389 C 13.480 9.192,13.203 9.108,12.740 9.042 C 12.394 8.992,5.164 8.995,4.823 9.044 " fill="#292D32" stroke="none" fill-rule="evenodd"></path></svg>