<svg width="24" height="24" viewBox="0 0 24 24" fill="none" xmlns="http://www.w3.org/2000/svg"><path d="M8.727 2.043 C 7.765 2.136,6.827 2.411,5.933 2.861 C 5.196 3.232,4.713 3.574,4.126 4.140 C 2.385 5.819,1.664 8.120,2.161 10.410 C 2.482 11.892,3.382 13.308,4.654 14.336 L 5.020 14.631 5.677 16.085 C 6.038 16.885,6.390 17.621,6.459 17.719 C 6.765 18.157,7.441 18.257,7.862 17.926 C 7.915 17.884,8.302 17.438,8.721 16.935 L 9.483 16.020 10.041 15.973 C 11.201 15.876,12.093 15.630,13.067 15.139 C 13.804 14.768,14.287 14.426,14.874 13.860 C 17.081 11.731,17.616 8.629,16.235 5.960 C 15.528 4.593,14.433 3.535,12.980 2.815 C 11.682 2.172,10.192 1.902,8.727 2.043 M18.216 6.870 C 18.452 7.630,18.546 9.097,18.420 10.048 C 18.177 11.890,17.310 13.590,15.934 14.922 C 14.506 16.305,12.726 17.154,10.698 17.419 C 10.435 17.454,10.201 17.504,10.177 17.531 C 10.152 17.558,10.019 17.714,9.881 17.877 L 9.629 18.175 9.745 18.270 C 10.215 18.656,11.151 19.166,11.814 19.397 C 12.523 19.644,13.469 19.834,14.045 19.845 C 14.505 19.853,14.459 19.817,15.314 20.840 C 15.996 21.655,16.129 21.795,16.320 21.893 C 16.692 22.085,17.115 22.008,17.448 21.690 C 17.567 21.576,17.731 21.251,18.299 20.003 L 19.002 18.458 19.291 18.239 C 19.682 17.943,20.325 17.293,20.632 16.884 C 21.252 16.057,21.665 15.133,21.886 14.080 C 22.015 13.464,22.017 12.287,21.890 11.658 C 21.760 11.017,21.593 10.535,21.279 9.900 C 20.702 8.732,19.809 7.765,18.624 7.023 C 18.241 6.783,18.183 6.761,18.216 6.870 M12.300 8.316 C 12.494 8.405,12.616 8.532,12.698 8.729 C 12.849 9.090,12.672 9.516,12.302 9.685 C 12.150 9.754,11.975 9.758,9.509 9.759 C 7.223 9.760,6.858 9.752,6.729 9.698 C 6.101 9.436,6.084 8.600,6.700 8.316 C 6.850 8.246,7.018 8.242,9.500 8.242 C 11.982 8.242,12.150 8.246,12.300 8.316 " fill="#292D32" stroke="none" fill-rule="evenodd"></path></svg>