<svg width="24" height="24" viewBox="0 0 24 24" fill="none" xmlns="http://www.w3.org/2000/svg"><path d="M7.100 2.467 C 5.874 2.632,4.979 3.055,4.249 3.815 C 3.574 4.519,3.165 5.440,3.043 6.532 C 3.017 6.764,3.000 7.878,3.000 9.329 C 3.000 11.589,3.005 11.750,3.073 11.878 C 3.113 11.952,3.208 12.048,3.283 12.090 C 3.433 12.173,3.512 12.170,4.200 12.061 C 5.447 11.863,6.790 12.154,7.887 12.861 C 9.225 13.723,10.188 15.197,10.421 16.740 C 10.535 17.496,10.628 17.599,11.228 17.637 L 11.620 17.662 13.787 19.109 C 15.228 20.070,16.003 20.565,16.100 20.583 C 16.490 20.656,16.890 20.480,17.099 20.142 L 17.220 19.946 17.232 18.796 L 17.243 17.646 17.512 17.624 C 18.039 17.580,18.626 17.472,18.980 17.354 C 20.068 16.993,20.918 16.277,21.428 15.292 C 21.653 14.856,21.765 14.543,21.890 13.991 C 21.972 13.633,21.975 13.505,21.990 10.320 C 22.001 8.088,21.992 6.881,21.962 6.590 C 21.743 4.464,20.488 3.031,18.420 2.547 C 18.064 2.464,17.999 2.463,12.640 2.457 C 9.659 2.454,7.166 2.458,7.100 2.467 M16.120 9.435 C 16.431 9.605,16.598 9.952,16.516 10.256 C 16.455 10.480,16.342 10.627,16.158 10.721 C 16.007 10.798,15.911 10.800,12.500 10.800 C 9.089 10.800,8.993 10.798,8.842 10.721 C 8.269 10.429,8.378 9.550,9.005 9.400 C 9.079 9.382,10.688 9.370,12.580 9.374 C 15.411 9.379,16.038 9.390,16.120 9.435 M4.160 13.596 C 2.391 13.988,1.112 15.486,1.012 17.283 C 0.878 19.708,2.944 21.704,5.354 21.477 C 6.281 21.389,7.103 21.008,7.789 20.347 C 9.170 19.016,9.393 16.903,8.325 15.280 C 8.128 14.981,7.632 14.467,7.340 14.259 C 6.999 14.016,6.514 13.782,6.098 13.658 C 5.606 13.511,4.676 13.482,4.160 13.596 M5.700 15.657 C 5.972 15.865,5.998 15.980,5.999 16.991 C 6.000 17.921,5.978 18.065,5.810 18.252 C 5.676 18.400,4.278 19.208,4.119 19.229 C 3.885 19.261,3.693 19.209,3.537 19.072 C 3.343 18.901,3.280 18.762,3.280 18.500 C 3.280 18.113,3.351 18.030,4.033 17.617 L 4.500 17.335 4.520 16.677 C 4.544 15.885,4.588 15.771,4.940 15.581 C 5.133 15.477,5.513 15.515,5.700 15.657 " fill="#292D32" stroke="none" fill-rule="evenodd"></path></svg>