<svg width="24" height="24" viewBox="0 0 24 24" fill="none" xmlns="http://www.w3.org/2000/svg"><path d="M12.320 2.040 C 9.495 2.332,7.146 3.700,5.659 5.921 C 5.093 6.766,4.493 8.246,4.578 8.585 C 4.593 8.644,4.665 8.753,4.738 8.826 C 4.908 8.996,5.020 8.998,5.612 8.841 C 6.719 8.548,8.030 8.524,9.140 8.777 C 9.969 8.967,10.999 9.426,11.678 9.910 C 12.507 10.501,13.297 11.394,13.735 12.236 C 14.236 13.201,14.439 13.964,14.471 14.993 C 14.506 16.139,14.314 17.047,13.831 18.014 C 13.603 18.472,13.618 18.691,13.891 18.893 C 14.208 19.128,17.481 21.037,17.641 21.080 C 18.170 21.223,18.748 20.843,18.855 20.281 C 18.871 20.196,18.801 19.490,18.677 18.481 L 18.473 16.821 18.565 16.761 C 18.792 16.612,19.268 16.205,19.597 15.879 C 21.932 13.560,22.624 10.253,21.403 7.262 C 20.296 4.553,17.636 2.558,14.520 2.101 C 13.982 2.023,12.807 1.990,12.320 2.040 M7.020 10.120 C 6.239 10.189,5.659 10.348,4.980 10.678 C 2.387 11.941,1.309 14.796,2.478 17.303 C 2.831 18.061,3.309 18.635,4.113 19.268 L 4.205 19.341 4.083 20.293 C 3.935 21.438,3.934 21.509,4.050 21.680 C 4.199 21.900,4.340 21.980,4.573 21.979 C 4.770 21.978,4.844 21.940,6.135 21.169 C 7.265 20.494,7.515 20.360,7.643 20.360 C 7.907 20.360,8.687 20.245,9.000 20.159 C 10.027 19.879,10.845 19.399,11.563 18.654 C 12.271 17.920,12.698 17.124,12.903 16.160 C 12.992 15.743,13.003 14.837,12.925 14.400 C 12.749 13.418,12.293 12.541,11.569 11.794 C 11.106 11.316,10.643 10.982,10.020 10.677 C 9.094 10.225,8.046 10.030,7.020 10.120 " fill="#292D32" stroke="none" fill-rule="evenodd"></path></svg>