<svg width="24" height="24" viewBox="0 0 24 24" fill="none" xmlns="http://www.w3.org/2000/svg"><path d="M11.120 2.039 C 8.336 2.318,5.905 3.624,4.193 5.760 C 1.474 9.155,1.267 13.917,3.682 17.533 C 6.770 22.155,12.946 23.386,17.560 20.299 C 22.155 17.225,23.377 11.041,20.299 6.440 C 18.728 4.092,16.319 2.562,13.493 2.119 C 12.909 2.027,11.660 1.985,11.120 2.039 M14.704 7.080 C 15.176 7.140,15.459 7.221,15.840 7.406 C 16.482 7.719,16.919 8.287,17.125 9.080 C 17.209 9.401,17.214 9.521,17.230 11.220 C 17.251 13.521,17.214 13.862,16.874 14.557 C 16.422 15.482,15.447 15.960,14.017 15.960 C 13.745 15.960,13.671 15.975,13.562 16.050 C 13.491 16.099,13.223 16.419,12.966 16.760 C 12.466 17.426,12.303 17.560,12.000 17.560 C 11.697 17.560,11.534 17.426,11.034 16.760 C 10.777 16.419,10.509 16.099,10.438 16.050 C 10.324 15.971,10.257 15.960,9.904 15.959 C 7.871 15.956,7.055 15.374,6.818 13.759 C 6.765 13.397,6.757 13.004,6.769 11.353 C 6.786 9.115,6.791 9.074,7.127 8.404 C 7.503 7.655,8.238 7.195,9.260 7.067 C 9.547 7.031,14.406 7.043,14.704 7.080 " fill="#292D32" stroke="none" fill-rule="evenodd"></path></svg>