<svg width="24" height="24" viewBox="0 0 24 24" fill="none" xmlns="http://www.w3.org/2000/svg"><path d="M7.420 1.987 C 6.254 2.060,5.403 2.271,4.600 2.684 C 3.095 3.459,2.261 4.864,2.042 6.994 C 1.988 7.530,1.986 13.540,2.040 14.140 C 2.138 15.214,2.320 15.995,2.622 16.634 C 3.150 17.751,4.001 18.403,5.345 18.723 C 5.963 18.870,6.526 18.927,7.640 18.954 L 8.740 18.981 8.960 19.103 C 9.158 19.213,9.261 19.333,10.000 20.311 C 10.451 20.909,10.901 21.480,11.000 21.581 C 11.557 22.149,12.358 22.170,12.943 21.634 C 13.047 21.538,13.506 20.963,13.963 20.355 C 14.420 19.747,14.850 19.210,14.920 19.160 C 15.145 19.000,15.369 18.960,16.048 18.960 C 19.658 18.960,21.631 17.285,21.957 13.943 C 22.014 13.358,22.015 7.552,21.958 6.994 C 21.739 4.861,20.908 3.462,19.394 2.680 C 18.646 2.294,17.815 2.083,16.720 2.001 C 16.240 1.965,7.968 1.953,7.420 1.987 M13.373 7.710 C 13.587 7.835,13.731 8.081,13.734 8.327 C 13.736 8.519,13.637 8.775,12.704 10.960 C 12.136 12.291,11.635 13.430,11.592 13.491 C 11.404 13.755,10.964 13.845,10.647 13.684 C 10.400 13.557,10.260 13.325,10.265 13.044 C 10.268 12.843,10.377 12.565,11.311 10.386 C 11.885 9.047,12.396 7.906,12.447 7.850 C 12.676 7.602,13.082 7.541,13.373 7.710 M8.267 8.003 C 8.409 8.056,8.588 8.224,8.669 8.378 C 8.741 8.517,8.747 8.873,8.679 9.006 C 8.653 9.058,8.278 9.455,7.847 9.889 L 7.063 10.678 7.826 11.449 C 8.246 11.873,8.621 12.282,8.660 12.358 C 8.746 12.527,8.750 12.867,8.667 13.026 C 8.588 13.176,8.408 13.345,8.267 13.397 C 8.124 13.452,7.877 13.452,7.733 13.398 C 7.599 13.349,5.423 11.194,5.332 11.021 C 5.248 10.863,5.251 10.532,5.339 10.359 C 5.438 10.162,7.507 8.098,7.680 8.024 C 7.845 7.952,8.109 7.943,8.267 8.003 M16.428 8.091 C 16.663 8.255,18.580 10.201,18.660 10.358 C 18.746 10.528,18.749 10.868,18.666 11.026 C 18.576 11.196,16.398 13.349,16.267 13.398 C 15.781 13.579,15.269 13.221,15.269 12.700 C 15.269 12.585,15.299 12.438,15.340 12.359 C 15.379 12.283,15.754 11.873,16.174 11.449 L 16.937 10.678 16.153 9.889 C 15.722 9.455,15.346 9.056,15.319 9.002 C 15.249 8.866,15.256 8.522,15.331 8.379 C 15.407 8.232,15.587 8.058,15.720 8.003 C 15.899 7.928,16.256 7.973,16.428 8.091 " fill="#292D32" stroke="none" fill-rule="evenodd"></path></svg>