<svg width="24" height="24" viewBox="0 0 24 24" fill="none" xmlns="http://www.w3.org/2000/svg"><path d="M7.100 2.467 C 5.874 2.632,4.979 3.055,4.249 3.815 C 3.574 4.519,3.165 5.440,3.043 6.532 C 3.017 6.764,3.000 7.878,3.000 9.329 C 3.000 11.589,3.005 11.750,3.073 11.878 C 3.113 11.952,3.208 12.048,3.283 12.090 C 3.433 12.173,3.512 12.170,4.200 12.061 C 5.447 11.863,6.790 12.154,7.887 12.861 C 9.225 13.723,10.188 15.197,10.421 16.740 C 10.535 17.496,10.628 17.599,11.228 17.637 L 11.620 17.662 13.787 19.109 C 15.228 20.070,16.003 20.565,16.100 20.583 C 16.490 20.656,16.890 20.480,17.099 20.142 L 17.220 19.946 17.232 18.796 L 17.243 17.646 17.512 17.624 C 18.039 17.580,18.626 17.472,18.980 17.354 C 20.068 16.993,20.918 16.277,21.428 15.292 C 21.653 14.856,21.765 14.543,21.890 13.991 C 21.972 13.633,21.975 13.505,21.990 10.320 C 22.001 8.088,21.992 6.881,21.962 6.590 C 21.743 4.464,20.488 3.031,18.420 2.547 C 18.064 2.464,17.999 2.463,12.640 2.457 C 9.659 2.454,7.166 2.458,7.100 2.467 M16.120 9.435 C 16.431 9.605,16.598 9.952,16.516 10.256 C 16.455 10.480,16.342 10.627,16.158 10.721 C 16.007 10.798,15.911 10.800,12.500 10.800 C 9.089 10.800,8.993 10.798,8.842 10.721 C 8.269 10.429,8.378 9.550,9.005 9.400 C 9.079 9.382,10.688 9.370,12.580 9.374 C 15.411 9.379,16.038 9.390,16.120 9.435 M4.306 13.559 C 3.764 13.658,3.122 13.930,2.660 14.259 C 2.368 14.467,1.872 14.981,1.675 15.280 C 0.813 16.591,0.778 18.216,1.584 19.567 C 1.828 19.977,2.432 20.602,2.829 20.857 C 4.148 21.704,5.852 21.704,7.171 20.857 C 7.568 20.602,8.172 19.977,8.416 19.567 C 9.222 18.216,9.187 16.591,8.325 15.280 C 8.128 14.981,7.632 14.467,7.340 14.259 C 6.999 14.016,6.514 13.782,6.098 13.658 C 5.792 13.566,5.651 13.549,5.120 13.538 C 4.779 13.530,4.413 13.540,4.306 13.559 M6.750 15.942 C 6.831 15.975,6.932 16.034,6.974 16.072 C 7.090 16.174,7.198 16.440,7.198 16.620 C 7.198 16.942,7.111 17.045,5.924 18.140 C 5.304 18.712,4.734 19.214,4.657 19.255 C 4.481 19.349,4.177 19.351,3.997 19.260 C 3.800 19.161,2.732 18.079,2.660 17.906 C 2.449 17.402,2.799 16.869,3.340 16.869 C 3.600 16.869,3.738 16.943,4.080 17.266 L 4.359 17.529 4.510 17.397 C 4.592 17.324,4.962 16.985,5.331 16.642 C 5.700 16.300,6.069 15.989,6.151 15.951 C 6.337 15.865,6.558 15.861,6.750 15.942 " fill="#292D32" stroke="none" fill-rule="evenodd"></path></svg>