<svg width="24" height="24" viewBox="0 0 24 24" fill="none" xmlns="http://www.w3.org/2000/svg"><path d="M6.340 2.046 C 5.850 2.108,5.317 2.273,4.818 2.517 C 3.552 3.136,2.638 4.192,2.223 5.516 C 1.996 6.239,1.995 6.256,2.009 10.660 L 2.021 14.700 2.148 15.171 C 2.605 16.865,3.837 18.175,5.460 18.692 C 6.139 18.908,6.588 18.958,7.834 18.959 L 8.729 18.960 8.965 19.086 C 9.187 19.204,9.252 19.279,10.036 20.316 C 10.496 20.923,10.950 21.496,11.046 21.588 C 11.601 22.124,12.438 22.110,12.983 21.557 C 13.090 21.448,13.547 20.870,13.999 20.272 C 14.748 19.279,14.839 19.174,15.035 19.072 L 15.249 18.960 16.155 18.959 C 17.412 18.958,17.860 18.908,18.540 18.692 C 20.163 18.175,21.395 16.865,21.852 15.171 L 21.979 14.700 21.991 10.660 C 22.005 6.256,22.004 6.239,21.777 5.516 C 21.464 4.518,20.824 3.618,19.982 2.990 C 19.334 2.507,18.416 2.141,17.601 2.042 C 17.179 1.990,6.748 1.994,6.340 2.046 M17.189 7.286 C 17.577 7.384,17.814 7.790,17.714 8.186 C 17.656 8.416,17.428 8.657,17.213 8.717 C 17.000 8.776,7.000 8.776,6.787 8.717 C 6.572 8.657,6.344 8.416,6.286 8.186 C 6.190 7.806,6.425 7.385,6.785 7.289 C 7.017 7.228,16.945 7.225,17.189 7.286 M13.189 12.286 C 13.577 12.384,13.814 12.790,13.714 13.186 C 13.656 13.416,13.428 13.657,13.213 13.717 C 13.111 13.745,12.032 13.760,10.000 13.760 C 7.968 13.760,6.889 13.745,6.787 13.717 C 6.572 13.657,6.344 13.416,6.286 13.186 C 6.190 12.806,6.425 12.385,6.785 12.289 C 7.015 12.228,12.947 12.226,13.189 12.286 " fill="#292D32" stroke="none" fill-rule="evenodd"></path></svg>