<svg width="24" height="24" viewBox="0 0 24 24" fill="none" xmlns="http://www.w3.org/2000/svg"><path d="M6.340 2.046 C 5.850 2.108,5.317 2.273,4.818 2.517 C 3.552 3.136,2.638 4.192,2.223 5.516 C 1.996 6.239,1.995 6.256,2.009 10.660 L 2.021 14.700 2.148 15.171 C 2.605 16.865,3.837 18.175,5.460 18.692 C 6.139 18.908,6.588 18.958,7.834 18.959 L 8.729 18.960 8.965 19.086 C 9.187 19.204,9.252 19.279,10.036 20.316 C 10.496 20.923,10.950 21.496,11.046 21.588 C 11.601 22.124,12.438 22.110,12.983 21.557 C 13.090 21.448,13.547 20.870,13.999 20.272 C 14.748 19.279,14.839 19.174,15.035 19.072 L 15.249 18.960 16.155 18.959 C 17.412 18.958,17.860 18.908,18.540 18.692 C 20.163 18.175,21.395 16.865,21.852 15.171 L 21.979 14.700 21.991 10.660 C 22.005 6.256,22.004 6.239,21.777 5.516 C 21.464 4.518,20.824 3.618,19.982 2.990 C 19.334 2.507,18.416 2.141,17.601 2.042 C 17.179 1.990,6.748 1.994,6.340 2.046 M12.675 7.100 C 15.023 7.665,16.209 10.259,15.098 12.399 L 14.921 12.740 15.339 13.160 C 15.885 13.709,15.975 13.930,15.804 14.300 C 15.715 14.494,15.588 14.616,15.391 14.698 C 15.040 14.845,14.839 14.760,14.300 14.235 L 13.860 13.806 13.460 14.004 C 12.865 14.297,12.541 14.372,11.840 14.376 C 11.136 14.379,10.788 14.300,10.180 13.999 C 9.054 13.440,8.305 12.365,8.159 11.097 C 7.980 9.537,8.852 8.005,10.299 7.337 C 10.561 7.215,11.025 7.082,11.380 7.025 C 11.599 6.991,12.416 7.038,12.675 7.100 " fill="#292D32" stroke="none" fill-rule="evenodd"></path></svg>