<svg width="24" height="24" viewBox="0 0 24 24" fill="none" xmlns="http://www.w3.org/2000/svg"><path d="M7.064 2.044 C 4.903 2.222,3.354 3.183,2.601 4.814 C 2.317 5.427,2.121 6.205,2.040 7.034 C 2.015 7.295,2.000 9.993,2.000 14.297 C 2.000 21.989,1.975 21.377,2.300 21.702 C 2.626 22.028,1.981 22.004,9.984 21.988 C 17.589 21.972,17.203 21.982,18.060 21.783 C 19.070 21.549,19.885 21.109,20.525 20.454 C 21.166 19.796,21.561 19.032,21.795 18.000 C 21.981 17.176,21.980 17.215,21.980 12.000 C 21.980 6.785,21.981 6.824,21.795 6.000 C 21.570 5.007,21.168 4.211,20.584 3.604 C 19.689 2.673,18.501 2.175,16.860 2.042 C 16.253 1.992,7.666 1.994,7.064 2.044 M15.140 6.568 C 16.006 6.754,17.138 7.863,17.416 8.797 C 17.499 9.077,17.499 9.603,17.416 9.883 C 17.257 10.418,17.029 10.738,16.245 11.530 C 15.628 12.153,15.657 12.141,15.192 11.976 C 13.888 11.509,12.814 10.533,12.224 9.276 C 12.004 8.807,11.901 8.480,11.934 8.351 C 11.969 8.210,13.043 7.177,13.409 6.933 C 14.007 6.532,14.494 6.430,15.140 6.568 M11.424 9.820 C 12.005 11.003,13.002 12.000,14.200 12.594 C 14.453 12.719,14.711 12.840,14.772 12.861 C 14.883 12.899,14.859 12.926,12.892 14.882 C 10.455 17.307,10.801 17.082,9.136 17.325 C 7.751 17.526,7.546 17.532,7.209 17.381 C 6.940 17.260,6.773 17.100,6.634 16.829 C 6.485 16.541,6.493 16.201,6.677 14.900 C 6.920 13.189,6.688 13.550,9.118 11.109 C 10.933 9.286,11.103 9.125,11.135 9.209 C 11.154 9.259,11.284 9.534,11.424 9.820 " fill="#292D32" stroke="none" fill-rule="evenodd"></path></svg>