<svg width="24" height="24" viewBox="0 0 24 24" fill="none" xmlns="http://www.w3.org/2000/svg"><path d="M19.656 1.281 C 18.735 1.405,17.941 1.968,17.544 2.777 C 17.335 3.203,17.264 3.514,17.264 4.000 C 17.264 4.662,17.469 5.246,17.870 5.732 C 18.417 6.392,19.147 6.736,20.000 6.736 C 20.467 6.736,20.787 6.666,21.183 6.478 C 21.892 6.141,22.450 5.464,22.665 4.680 C 22.761 4.329,22.761 3.671,22.665 3.320 C 22.297 1.977,21.002 1.100,19.656 1.281 M6.500 2.028 C 6.412 2.036,6.197 2.071,6.022 2.106 C 5.049 2.298,4.194 2.759,3.476 3.476 C 2.759 4.194,2.322 5.004,2.094 6.042 C 2.025 6.359,2.020 6.632,2.020 10.460 C 2.020 14.220,2.026 14.568,2.091 14.891 C 2.498 16.886,4.005 18.416,5.982 18.841 C 6.318 18.913,6.560 18.929,7.540 18.947 C 8.639 18.966,8.711 18.972,8.900 19.059 C 9.010 19.109,9.139 19.188,9.187 19.234 C 9.235 19.280,9.661 19.828,10.135 20.452 C 10.653 21.134,11.057 21.628,11.148 21.691 C 11.453 21.902,11.679 21.978,12.000 21.978 C 12.321 21.978,12.547 21.902,12.852 21.691 C 12.944 21.628,13.349 21.132,13.871 20.443 C 14.348 19.814,14.792 19.250,14.858 19.190 C 15.082 18.985,15.204 18.966,16.460 18.945 C 17.733 18.924,18.073 18.878,18.726 18.640 C 20.481 18.000,21.746 16.389,21.960 14.525 C 21.982 14.333,21.999 13.038,22.000 11.597 C 22.000 8.676,22.009 8.767,21.697 8.455 C 21.451 8.209,21.177 8.134,20.743 8.195 C 20.000 8.299,19.073 8.216,18.509 7.997 C 17.924 7.769,17.503 7.500,17.046 7.062 C 16.490 6.527,16.093 5.865,15.892 5.134 C 15.794 4.776,15.784 4.678,15.785 4.060 C 15.786 3.686,15.794 3.227,15.803 3.040 C 15.819 2.725,15.812 2.686,15.709 2.511 C 15.584 2.298,15.391 2.136,15.170 2.057 C 15.048 2.013,14.240 2.004,10.840 2.008 C 8.541 2.011,6.588 2.020,6.500 2.028 M8.512 10.147 C 9.142 10.534,9.154 11.446,8.535 11.839 C 8.060 12.141,7.442 11.992,7.141 11.503 C 7.034 11.329,7.020 11.271,7.020 11.003 C 7.020 10.744,7.036 10.673,7.131 10.511 C 7.339 10.158,7.660 9.988,8.072 10.015 C 8.261 10.027,8.371 10.060,8.512 10.147 M12.512 10.147 C 13.142 10.534,13.154 11.446,12.535 11.839 C 12.060 12.141,11.442 11.992,11.141 11.503 C 11.034 11.329,11.020 11.271,11.020 11.003 C 11.020 10.744,11.036 10.673,11.131 10.511 C 11.339 10.158,11.660 9.988,12.072 10.015 C 12.261 10.027,12.371 10.060,12.512 10.147 M16.512 10.147 C 17.142 10.534,17.154 11.446,16.535 11.839 C 16.060 12.141,15.442 11.992,15.141 11.503 C 15.034 11.329,15.020 11.271,15.020 11.003 C 15.020 10.744,15.036 10.673,15.131 10.511 C 15.339 10.158,15.660 9.988,16.072 10.015 C 16.261 10.027,16.371 10.060,16.512 10.147 " fill="#292D32" stroke="none" fill-rule="evenodd"></path></svg>