<svg width="24" height="24" viewBox="0 0 24 24" fill="none" xmlns="http://www.w3.org/2000/svg"><path d="M6.340 2.046 C 5.850 2.108,5.317 2.273,4.818 2.517 C 3.552 3.136,2.638 4.192,2.223 5.516 C 1.996 6.239,1.995 6.256,2.009 10.660 L 2.021 14.700 2.148 15.171 C 2.605 16.865,3.837 18.175,5.460 18.692 C 6.139 18.908,6.588 18.958,7.834 18.959 L 8.729 18.960 8.965 19.086 C 9.187 19.204,9.252 19.279,10.036 20.316 C 10.496 20.923,10.950 21.496,11.046 21.588 C 11.601 22.124,12.438 22.110,12.983 21.557 C 13.090 21.448,13.547 20.870,13.999 20.272 C 14.748 19.279,14.839 19.174,15.035 19.072 L 15.249 18.960 16.155 18.959 C 17.412 18.958,17.860 18.908,18.540 18.692 C 20.163 18.175,21.395 16.865,21.852 15.171 L 21.979 14.700 21.991 10.660 C 22.005 6.256,22.004 6.239,21.777 5.516 C 21.464 4.518,20.824 3.618,19.982 2.990 C 19.334 2.507,18.416 2.141,17.601 2.042 C 17.179 1.990,6.748 1.994,6.340 2.046 M8.340 10.066 C 8.837 10.235,9.116 10.821,8.939 11.322 C 8.854 11.563,8.709 11.740,8.489 11.869 C 8.328 11.964,8.256 11.980,8.000 11.980 C 7.744 11.980,7.672 11.964,7.511 11.869 C 6.466 11.255,7.193 9.675,8.340 10.066 M12.340 10.066 C 12.837 10.235,13.116 10.821,12.939 11.322 C 12.854 11.563,12.709 11.740,12.489 11.869 C 12.328 11.964,12.256 11.980,12.000 11.980 C 11.744 11.980,11.672 11.964,11.511 11.869 C 10.466 11.255,11.193 9.675,12.340 10.066 M16.340 10.066 C 16.837 10.235,17.116 10.821,16.939 11.322 C 16.854 11.563,16.709 11.740,16.489 11.869 C 16.328 11.964,16.256 11.980,16.000 11.980 C 15.744 11.980,15.672 11.964,15.511 11.869 C 14.466 11.255,15.193 9.675,16.340 10.066 " fill="#292D32" stroke="none" fill-rule="evenodd"></path></svg>