<svg width="24" height="24" viewBox="0 0 24 24" fill="none" xmlns="http://www.w3.org/2000/svg"><path d="M7.100 2.467 C 5.874 2.632,4.979 3.055,4.249 3.815 C 3.574 4.519,3.165 5.440,3.043 6.532 C 3.017 6.764,3.000 7.878,3.000 9.329 C 3.000 11.589,3.005 11.750,3.073 11.878 C 3.113 11.952,3.208 12.048,3.283 12.090 C 3.433 12.173,3.512 12.170,4.200 12.061 C 5.447 11.863,6.790 12.154,7.887 12.861 C 9.225 13.723,10.188 15.197,10.421 16.740 C 10.535 17.496,10.628 17.599,11.228 17.637 L 11.620 17.662 13.787 19.109 C 15.228 20.070,16.003 20.565,16.100 20.583 C 16.490 20.656,16.890 20.480,17.099 20.142 L 17.220 19.946 17.232 18.796 L 17.243 17.646 17.512 17.624 C 18.039 17.580,18.626 17.472,18.980 17.354 C 20.068 16.993,20.918 16.277,21.428 15.292 C 21.653 14.856,21.765 14.543,21.890 13.991 C 21.972 13.633,21.975 13.505,21.990 10.320 C 22.001 8.088,21.992 6.881,21.962 6.590 C 21.743 4.464,20.488 3.031,18.420 2.547 C 18.064 2.464,17.999 2.463,12.640 2.457 C 9.659 2.454,7.166 2.458,7.100 2.467 M16.120 9.435 C 16.431 9.605,16.598 9.952,16.516 10.256 C 16.455 10.480,16.342 10.627,16.158 10.721 C 16.007 10.798,15.911 10.800,12.500 10.800 C 9.089 10.800,8.993 10.798,8.842 10.721 C 8.269 10.429,8.378 9.550,9.005 9.400 C 9.079 9.382,10.688 9.370,12.580 9.374 C 15.411 9.379,16.038 9.390,16.120 9.435 M4.306 13.562 C 3.777 13.651,3.126 13.926,2.663 14.257 C 2.527 14.353,2.264 14.593,2.078 14.789 C 0.611 16.336,0.650 18.796,2.167 20.314 C 3.388 21.536,5.222 21.841,6.780 21.081 C 7.841 20.563,8.592 19.624,8.891 18.440 C 9.014 17.952,9.013 17.085,8.889 16.588 C 8.494 15.013,7.265 13.852,5.701 13.577 C 5.358 13.516,4.625 13.508,4.306 13.562 M5.429 15.427 C 5.686 15.634,5.733 15.756,5.753 16.262 L 5.770 16.709 6.235 16.729 C 6.725 16.749,6.863 16.790,7.028 16.967 C 7.384 17.348,7.260 17.943,6.780 18.164 C 6.657 18.221,6.522 18.238,6.195 18.239 L 5.770 18.240 5.752 18.730 C 5.733 19.282,5.693 19.398,5.453 19.595 C 5.190 19.812,4.793 19.803,4.520 19.574 C 4.308 19.395,4.267 19.268,4.248 18.730 L 4.230 18.240 3.805 18.239 C 3.312 18.238,3.135 18.179,2.932 17.947 C 2.630 17.604,2.739 17.069,3.162 16.822 C 3.267 16.760,3.392 16.740,3.763 16.727 L 4.230 16.710 4.248 16.265 C 4.271 15.701,4.356 15.526,4.700 15.341 C 4.896 15.235,5.243 15.276,5.429 15.427 " fill="#292D32" stroke="none" fill-rule="evenodd"></path></svg>