<svg width="24" height="24" viewBox="0 0 24 24" fill="none" xmlns="http://www.w3.org/2000/svg"><path d="M7.064 2.044 C 4.903 2.222,3.354 3.183,2.601 4.814 C 2.317 5.427,2.121 6.205,2.040 7.034 C 2.015 7.295,2.000 9.993,2.000 14.297 C 2.000 21.989,1.975 21.377,2.300 21.702 C 2.626 22.028,1.981 22.004,9.984 21.988 C 17.589 21.972,17.203 21.982,18.060 21.783 C 19.070 21.549,19.885 21.109,20.525 20.454 C 21.166 19.796,21.561 19.032,21.795 18.000 C 21.981 17.176,21.980 17.215,21.980 12.000 C 21.980 6.785,21.981 6.824,21.795 6.000 C 21.570 5.007,21.168 4.211,20.584 3.604 C 19.689 2.673,18.501 2.175,16.860 2.042 C 16.253 1.992,7.666 1.994,7.064 2.044 M17.426 8.904 C 17.645 9.081,17.731 9.248,17.731 9.494 C 17.731 9.806,17.542 10.094,17.267 10.197 C 17.190 10.227,15.545 10.240,12.000 10.240 C 8.455 10.240,6.810 10.227,6.733 10.197 C 6.460 10.095,6.269 9.807,6.269 9.500 C 6.269 9.198,6.412 8.973,6.700 8.823 C 6.807 8.767,7.367 8.761,12.046 8.770 L 17.273 8.780 17.426 8.904 M14.426 13.904 C 14.645 14.081,14.731 14.248,14.731 14.494 C 14.731 14.806,14.542 15.094,14.267 15.197 C 14.110 15.257,6.890 15.257,6.733 15.197 C 6.460 15.095,6.269 14.807,6.269 14.500 C 6.269 14.198,6.411 13.973,6.700 13.823 C 6.807 13.767,7.226 13.761,10.546 13.770 L 14.273 13.780 14.426 13.904 " fill="#292D32" stroke="none" fill-rule="evenodd"></path></svg>