<svg width="24" height="24" viewBox="0 0 24 24" fill="none" xmlns="http://www.w3.org/2000/svg"><path d="M7.064 2.044 C 4.903 2.222,3.354 3.183,2.601 4.814 C 2.317 5.427,2.121 6.205,2.040 7.034 C 2.015 7.295,2.000 9.993,2.000 14.297 C 2.000 21.989,1.975 21.377,2.300 21.702 C 2.626 22.028,1.981 22.004,9.984 21.988 C 17.589 21.972,17.203 21.982,18.060 21.783 C 19.070 21.549,19.885 21.109,20.525 20.454 C 21.166 19.796,21.561 19.032,21.795 18.000 C 21.981 17.176,21.980 17.215,21.980 12.000 C 21.980 6.785,21.981 6.824,21.795 6.000 C 21.570 5.007,21.168 4.211,20.584 3.604 C 19.689 2.673,18.501 2.175,16.860 2.042 C 16.253 1.992,7.666 1.994,7.064 2.044 M15.836 11.340 C 15.910 11.384,16.027 11.489,16.096 11.574 C 16.208 11.712,16.220 11.755,16.220 12.000 C 16.220 12.244,16.207 12.289,16.098 12.426 C 16.030 12.511,15.896 12.620,15.799 12.670 L 15.623 12.760 12.000 12.760 L 8.377 12.760 8.201 12.670 C 8.104 12.620,7.970 12.511,7.902 12.426 C 7.793 12.289,7.780 12.243,7.780 12.003 C 7.780 11.769,7.795 11.714,7.893 11.586 C 8.026 11.411,8.155 11.321,8.331 11.278 C 8.402 11.261,10.089 11.250,12.080 11.254 C 15.622 11.260,15.703 11.262,15.836 11.340 " fill="#292D32" stroke="none" fill-rule="evenodd"></path></svg>