<svg width="24" height="24" viewBox="0 0 24 24" fill="none" xmlns="http://www.w3.org/2000/svg"><path d="M7.100 2.467 C 5.874 2.632,4.979 3.055,4.249 3.815 C 3.574 4.519,3.165 5.440,3.043 6.532 C 3.017 6.764,3.000 7.878,3.000 9.329 C 3.000 11.589,3.005 11.750,3.073 11.878 C 3.113 11.952,3.208 12.048,3.283 12.090 C 3.433 12.173,3.512 12.170,4.200 12.061 C 5.447 11.863,6.790 12.154,7.887 12.861 C 9.225 13.723,10.188 15.197,10.421 16.740 C 10.535 17.496,10.628 17.599,11.228 17.637 L 11.620 17.662 13.787 19.109 C 15.228 20.070,16.003 20.565,16.100 20.583 C 16.490 20.656,16.890 20.480,17.099 20.142 L 17.220 19.946 17.232 18.796 L 17.243 17.646 17.512 17.624 C 18.039 17.580,18.626 17.472,18.980 17.354 C 20.068 16.993,20.918 16.277,21.428 15.292 C 21.653 14.856,21.765 14.543,21.890 13.991 C 21.972 13.633,21.975 13.505,21.990 10.320 C 22.001 8.088,21.992 6.881,21.962 6.590 C 21.743 4.464,20.488 3.031,18.420 2.547 C 18.064 2.464,17.999 2.463,12.640 2.457 C 9.659 2.454,7.166 2.458,7.100 2.467 M16.120 9.435 C 16.431 9.605,16.598 9.952,16.516 10.256 C 16.455 10.480,16.342 10.627,16.158 10.721 C 16.007 10.798,15.911 10.800,12.500 10.800 C 9.089 10.800,8.993 10.798,8.842 10.721 C 8.269 10.429,8.378 9.550,9.005 9.400 C 9.079 9.382,10.688 9.370,12.580 9.374 C 15.411 9.379,16.038 9.390,16.120 9.435 M4.306 13.559 C 3.764 13.658,3.122 13.930,2.660 14.259 C 2.368 14.467,1.872 14.981,1.675 15.280 C 0.813 16.591,0.778 18.217,1.584 19.567 C 1.811 19.947,2.379 20.547,2.740 20.789 C 4.113 21.707,5.807 21.733,7.171 20.857 C 7.568 20.602,8.172 19.977,8.416 19.567 C 9.189 18.270,9.189 16.730,8.416 15.433 C 8.203 15.076,7.594 14.422,7.273 14.206 C 6.966 14.000,6.471 13.769,6.094 13.657 C 5.792 13.567,5.649 13.549,5.120 13.538 C 4.779 13.530,4.413 13.540,4.306 13.559 M4.180 15.725 C 4.295 15.757,4.435 15.863,4.682 16.104 L 5.024 16.438 5.341 16.119 C 5.526 15.933,5.714 15.782,5.794 15.756 C 6.272 15.598,6.773 15.958,6.769 16.458 C 6.766 16.732,6.697 16.859,6.360 17.215 L 6.083 17.506 6.365 17.783 C 6.695 18.108,6.800 18.290,6.800 18.536 C 6.800 19.043,6.390 19.376,5.895 19.271 C 5.738 19.237,5.651 19.176,5.353 18.889 L 4.998 18.547 4.628 18.910 C 4.294 19.238,4.240 19.275,4.065 19.301 C 3.591 19.372,3.200 19.047,3.200 18.580 C 3.200 18.309,3.278 18.173,3.635 17.822 L 3.958 17.504 3.624 17.162 C 3.204 16.732,3.121 16.506,3.262 16.169 C 3.344 15.972,3.466 15.845,3.660 15.756 C 3.846 15.670,3.958 15.663,4.180 15.725 " fill="#292D32" stroke="none" fill-rule="evenodd"></path></svg>