<svg width="24" height="24" viewBox="0 0 24 24" fill="none" xmlns="http://www.w3.org/2000/svg"><path d="M12.279 3.949 C 12.278 5.765,12.273 5.911,12.204 6.064 C 11.974 6.570,11.214 6.578,10.959 6.078 C 10.884 5.930,10.880 5.837,10.880 4.006 L 10.880 2.090 10.630 2.143 C 10.352 2.202,9.930 2.341,9.610 2.479 L 9.400 2.570 9.400 5.187 C 9.400 7.712,9.397 7.809,9.321 7.958 C 9.056 8.478,8.366 8.482,8.093 7.964 L 8.000 7.787 8.000 5.651 L 8.000 3.515 7.828 3.655 C 7.432 3.980,6.836 4.776,6.519 5.403 C 6.324 5.789,6.105 6.418,5.993 6.914 C 5.908 7.288,5.905 7.391,5.890 10.220 C 5.874 13.324,5.886 13.618,6.061 14.306 C 6.183 14.788,6.438 15.421,6.656 15.784 L 6.829 16.071 4.553 18.346 C 3.301 19.597,2.225 20.697,2.161 20.792 C 1.940 21.123,1.969 21.498,2.235 21.764 C 2.467 21.996,2.777 22.056,3.060 21.923 C 3.172 21.871,6.039 19.026,12.566 12.494 C 20.262 4.791,21.920 3.113,21.960 2.985 C 22.061 2.668,21.914 2.302,21.613 2.116 C 21.422 1.998,21.088 1.989,20.880 2.096 C 20.803 2.136,20.009 2.897,19.116 3.788 L 17.491 5.407 17.310 5.094 C 16.823 4.251,16.162 3.537,15.401 3.034 C 15.012 2.776,14.306 2.431,13.903 2.301 C 13.532 2.181,12.934 2.058,12.550 2.023 L 12.280 1.998 12.279 3.949 M13.502 13.478 C 10.973 16.007,8.912 18.084,8.922 18.092 C 9.014 18.168,9.453 18.384,9.743 18.495 C 10.611 18.830,11.312 18.944,12.275 18.908 C 13.828 18.849,15.199 18.248,16.300 17.142 C 16.999 16.439,17.468 15.698,17.775 14.811 C 18.080 13.930,18.094 13.789,18.110 11.460 C 18.118 10.316,18.119 9.267,18.112 9.130 L 18.100 8.879 13.502 13.478 M20.807 10.289 C 20.558 10.342,20.342 10.570,20.284 10.838 C 20.257 10.964,20.240 11.539,20.240 12.320 C 20.240 13.711,20.197 14.212,20.014 14.959 C 19.654 16.429,18.919 17.723,17.821 18.821 C 16.723 19.919,15.429 20.654,13.959 21.014 C 12.438 21.387,10.699 21.298,9.240 20.775 C 8.749 20.598,7.984 20.223,7.589 19.964 C 7.418 19.852,7.264 19.760,7.248 19.760 C 7.209 19.760,6.200 20.772,6.200 20.811 C 6.200 20.855,7.041 21.399,7.441 21.614 C 8.409 22.135,9.566 22.502,10.740 22.662 C 11.378 22.749,12.617 22.748,13.260 22.661 C 15.440 22.366,17.331 21.431,18.881 19.881 C 20.437 18.325,21.365 16.445,21.665 14.240 C 21.718 13.851,21.733 13.415,21.736 12.280 L 21.740 10.820 21.639 10.641 C 21.478 10.353,21.152 10.215,20.807 10.289 " fill="#292D32" stroke="none" fill-rule="evenodd"></path></svg>