<svg width="24" height="24" viewBox="0 0 24 24" fill="none" xmlns="http://www.w3.org/2000/svg"><path d="M17.860 2.138 C 17.838 2.146,17.749 2.165,17.663 2.180 C 17.546 2.199,16.760 2.705,14.574 4.167 L 11.642 6.128 11.801 6.361 L 11.959 6.594 11.769 6.732 C 11.665 6.807,10.599 7.522,9.400 8.320 C 8.201 9.118,7.214 9.776,7.206 9.783 C 7.198 9.789,7.225 9.850,7.264 9.917 C 7.310 9.994,7.323 10.052,7.298 10.075 C 7.277 10.094,6.387 10.691,5.320 11.400 C 4.253 12.109,3.329 12.737,3.266 12.795 C 3.018 13.025,2.898 13.471,3.001 13.784 C 3.072 13.999,4.275 15.792,4.454 15.949 C 4.727 16.189,5.182 16.250,5.498 16.090 C 5.563 16.056,6.507 15.435,7.596 14.709 L 9.575 13.389 9.663 13.499 L 9.750 13.609 9.903 13.506 C 9.987 13.449,10.060 13.407,10.067 13.413 C 10.073 13.419,9.302 15.111,8.355 17.172 C 6.467 21.279,6.531 21.110,6.713 21.467 C 6.809 21.655,6.899 21.739,7.090 21.818 C 7.374 21.937,7.722 21.851,7.922 21.614 C 7.977 21.549,8.876 19.631,9.920 17.351 C 10.965 15.070,11.831 13.217,11.844 13.232 C 11.857 13.248,12.701 15.105,13.719 17.360 C 14.738 19.615,15.613 21.517,15.664 21.586 C 15.778 21.739,16.056 21.880,16.243 21.879 C 16.701 21.876,17.073 21.412,16.964 20.979 C 16.940 20.886,16.010 18.796,14.896 16.335 C 13.782 13.874,12.846 11.802,12.815 11.732 L 12.760 11.603 13.617 11.022 C 14.088 10.702,14.488 10.440,14.507 10.440 C 14.525 10.440,14.603 10.540,14.680 10.661 C 14.757 10.782,14.838 10.876,14.860 10.871 C 14.975 10.840,20.597 7.039,20.727 6.903 C 21.020 6.598,21.124 6.059,20.967 5.650 C 20.866 5.388,18.942 2.541,18.784 2.420 C 18.713 2.366,18.576 2.287,18.478 2.244 C 18.307 2.168,17.943 2.106,17.860 2.138 " fill="#292D32" stroke="none" fill-rule="evenodd"></path></svg>