<svg width="24" height="24" viewBox="0 0 24 24" fill="none" xmlns="http://www.w3.org/2000/svg"><path d="M11.398 2.044 C 11.254 2.063,10.977 2.124,10.782 2.180 C 10.039 2.396,9.456 2.741,8.895 3.298 C 8.236 3.952,7.831 4.711,7.660 5.610 C 7.571 6.083,7.571 11.877,7.660 12.350 C 7.925 13.742,8.867 14.956,10.143 15.545 C 11.090 15.983,12.220 16.069,13.219 15.779 C 14.708 15.348,15.842 14.188,16.268 12.660 L 16.380 12.260 16.380 8.980 L 16.380 5.700 16.268 5.300 C 15.660 3.121,13.620 1.757,11.398 2.044 M12.540 6.041 C 12.889 6.091,13.414 6.224,13.562 6.301 C 13.990 6.522,13.956 7.154,13.508 7.338 L 13.315 7.417 12.888 7.308 C 12.155 7.122,11.705 7.126,11.028 7.325 C 10.661 7.434,10.491 7.409,10.301 7.219 C 10.063 6.980,10.073 6.594,10.322 6.384 C 10.646 6.112,11.791 5.935,12.540 6.041 M12.560 8.163 C 13.092 8.249,13.320 8.439,13.320 8.795 C 13.320 8.988,13.206 9.213,13.071 9.285 C 12.889 9.382,12.755 9.395,12.489 9.338 C 12.141 9.265,11.874 9.265,11.513 9.342 C 11.246 9.398,11.205 9.397,11.051 9.338 C 10.619 9.174,10.554 8.559,10.943 8.318 C 11.219 8.148,12.002 8.072,12.560 8.163 M4.580 9.186 C 4.212 9.380,4.160 9.556,4.160 10.597 C 4.160 12.380,4.359 13.475,4.895 14.653 C 5.478 15.931,6.509 17.119,7.740 17.931 C 8.650 18.531,9.817 18.970,10.907 19.123 L 11.275 19.175 11.287 20.317 C 11.299 21.345,11.308 21.475,11.376 21.614 C 11.620 22.104,12.380 22.104,12.624 21.614 C 12.692 21.475,12.701 21.345,12.713 20.315 L 12.725 19.170 12.953 19.144 C 13.711 19.055,14.611 18.790,15.351 18.438 C 16.217 18.026,16.925 17.513,17.621 16.794 C 18.496 15.891,19.078 14.917,19.455 13.725 C 19.748 12.799,19.859 11.835,19.834 10.426 C 19.820 9.675,19.818 9.656,19.711 9.474 C 19.502 9.120,19.072 9.022,18.726 9.252 C 18.433 9.445,18.424 9.494,18.397 10.980 C 18.375 12.120,18.360 12.354,18.286 12.694 C 18.007 13.976,17.453 14.990,16.522 15.923 C 15.277 17.172,13.754 17.806,12.000 17.806 C 10.244 17.806,8.729 17.175,7.477 15.923 C 6.557 15.002,6.003 13.993,5.714 12.711 C 5.643 12.393,5.627 12.147,5.603 11.000 C 5.575 9.633,5.562 9.517,5.407 9.346 C 5.218 9.137,4.820 9.060,4.580 9.186 " fill="#292D32" stroke="none" fill-rule="evenodd"></path></svg>