<svg width="24" height="24" viewBox="0 0 24 24" fill="none" xmlns="http://www.w3.org/2000/svg"><path d="M20.995 2.053 C 20.916 2.083,20.799 2.145,20.735 2.191 C 20.672 2.237,19.685 3.211,18.542 4.356 C 17.158 5.741,16.453 6.421,16.432 6.389 C 16.415 6.362,16.401 6.247,16.401 6.134 C 16.400 6.021,16.373 5.785,16.340 5.610 C 16.045 4.058,14.917 2.758,13.433 2.263 C 13.056 2.137,12.958 2.135,12.850 2.250 C 12.771 2.335,12.765 2.391,12.753 3.260 C 12.740 4.125,12.734 4.190,12.649 4.350 C 12.425 4.771,11.881 4.877,11.518 4.572 C 11.273 4.366,11.261 4.311,11.247 3.280 C 11.235 2.390,11.229 2.335,11.150 2.250 C 11.041 2.133,10.912 2.136,10.552 2.264 C 9.144 2.767,8.129 3.854,7.733 5.280 C 7.575 5.853,7.554 6.352,7.570 9.220 C 7.585 11.821,7.588 11.912,7.675 12.300 C 7.822 12.957,8.153 13.700,8.492 14.134 L 8.612 14.287 7.916 14.983 L 7.220 15.678 7.015 15.428 C 6.524 14.830,6.119 14.086,5.889 13.360 C 5.637 12.568,5.562 11.910,5.561 10.506 C 5.560 9.776,5.549 9.609,5.494 9.492 C 5.364 9.219,4.968 9.058,4.667 9.158 C 4.484 9.218,4.252 9.476,4.218 9.658 C 4.203 9.736,4.200 10.372,4.212 11.070 C 4.233 12.372,4.258 12.616,4.439 13.320 C 4.720 14.416,5.309 15.567,6.014 16.400 L 6.234 16.660 4.161 18.740 C 1.969 20.939,1.999 20.904,2.001 21.260 C 2.003 21.552,2.259 21.877,2.551 21.958 C 2.755 22.015,2.857 22.011,3.031 21.939 C 3.239 21.853,21.816 3.289,21.923 3.060 C 22.023 2.847,22.019 2.655,21.910 2.439 C 21.741 2.105,21.327 1.930,20.995 2.053 M18.809 9.202 C 18.699 9.258,18.602 9.350,18.539 9.458 C 18.442 9.624,18.440 9.641,18.440 10.544 C 18.439 11.976,18.366 12.585,18.096 13.396 C 17.581 14.949,16.474 16.270,15.040 17.046 C 14.429 17.377,13.564 17.659,12.860 17.759 C 12.374 17.828,11.459 17.809,10.937 17.719 C 10.534 17.651,9.885 17.461,9.410 17.274 L 9.279 17.222 8.779 17.721 L 8.280 18.219 8.370 18.289 C 8.512 18.399,9.376 18.753,9.818 18.882 C 10.039 18.947,10.463 19.041,10.760 19.090 L 11.300 19.181 11.320 20.360 C 11.339 21.502,11.343 21.545,11.432 21.687 C 11.538 21.858,11.799 22.000,12.006 22.000 C 12.201 22.000,12.483 21.841,12.579 21.677 C 12.654 21.550,12.662 21.450,12.680 20.360 L 12.700 19.180 12.920 19.147 C 13.896 19.003,14.661 18.775,15.420 18.403 C 16.223 18.010,16.773 17.621,17.435 16.981 C 18.483 15.967,19.238 14.661,19.575 13.280 C 19.752 12.551,19.800 12.020,19.800 10.791 C 19.800 9.749,19.794 9.653,19.721 9.503 C 19.557 9.168,19.144 9.032,18.809 9.202 M13.563 12.937 L 10.746 15.754 10.964 15.817 C 11.511 15.976,12.437 15.970,13.092 15.802 C 14.451 15.454,15.615 14.422,16.118 13.120 C 16.349 12.521,16.403 12.113,16.391 11.060 L 16.380 10.120 13.563 12.937 " fill="#292D32" stroke="none" fill-rule="evenodd"></path></svg>