<svg width="24" height="24" viewBox="0 0 24 24" fill="none" xmlns="http://www.w3.org/2000/svg"><path d="M11.300 2.046 C 9.956 2.197,8.649 2.835,7.692 3.807 C 7.301 4.204,7.176 4.357,6.899 4.780 C 6.480 5.419,6.205 6.075,6.033 6.845 L 5.940 7.260 5.940 10.440 L 5.940 13.620 6.033 14.035 C 6.461 15.947,7.675 17.480,9.410 18.300 C 9.874 18.519,10.263 18.649,10.800 18.766 C 11.398 18.896,12.588 18.897,13.184 18.768 C 15.711 18.223,17.579 16.295,18.004 13.793 C 18.080 13.350,18.083 13.171,18.069 10.273 C 18.056 7.318,18.052 7.208,17.969 6.852 C 17.697 5.687,17.185 4.723,16.405 3.910 C 15.056 2.504,13.216 1.832,11.300 2.046 M12.801 6.602 C 13.728 6.717,14.728 7.003,14.896 7.203 C 15.205 7.570,15.055 8.077,14.602 8.199 C 14.476 8.233,14.379 8.217,13.937 8.084 C 13.141 7.846,12.700 7.782,11.860 7.784 C 11.079 7.786,10.613 7.847,10.000 8.030 C 9.334 8.228,9.291 8.237,9.143 8.196 C 8.524 8.025,8.543 7.242,9.172 7.006 C 9.499 6.884,10.351 6.681,10.785 6.622 C 11.270 6.556,12.343 6.545,12.801 6.602 M13.260 9.719 C 13.927 9.860,14.149 10.016,14.189 10.372 C 14.216 10.607,14.092 10.836,13.871 10.960 C 13.694 11.060,13.567 11.057,13.040 10.941 C 12.352 10.789,11.364 10.790,10.669 10.943 C 10.204 11.046,10.027 11.056,9.897 10.988 C 9.719 10.896,9.610 10.758,9.557 10.559 C 9.514 10.398,9.518 10.357,9.591 10.190 C 9.694 9.958,9.836 9.867,10.236 9.777 C 10.913 9.625,11.166 9.603,12.020 9.618 C 12.679 9.630,12.946 9.652,13.260 9.719 M3.260 10.273 C 3.069 10.363,2.984 10.453,2.902 10.650 C 2.851 10.771,2.840 11.000,2.840 11.929 C 2.841 13.230,2.882 13.809,3.026 14.540 C 3.578 17.333,5.397 19.704,7.967 20.979 C 10.032 22.004,12.425 22.205,14.627 21.537 C 17.714 20.601,20.075 18.132,20.857 15.020 C 21.074 14.154,21.092 13.963,21.108 12.300 C 21.125 10.551,21.130 10.585,20.835 10.350 C 20.465 10.054,19.891 10.247,19.762 10.711 C 19.738 10.798,19.720 11.355,19.720 12.052 C 19.720 13.357,19.687 13.789,19.535 14.475 C 19.041 16.702,17.559 18.613,15.513 19.662 C 13.651 20.616,11.555 20.777,9.553 20.119 C 6.962 19.268,4.961 17.016,4.419 14.339 C 4.291 13.709,4.241 12.972,4.240 11.740 C 4.240 10.618,4.230 10.569,3.952 10.347 C 3.759 10.193,3.489 10.165,3.260 10.273 " fill="#292D32" stroke="none" fill-rule="evenodd"></path></svg>