<svg width="24" height="24" viewBox="0 0 24 24" fill="none" xmlns="http://www.w3.org/2000/svg"><path d="M9.117 2.054 C 8.704 2.167,8.319 2.501,8.127 2.913 C 8.037 3.105,8.021 3.195,8.021 3.501 C 8.020 3.828,8.032 3.886,8.151 4.128 C 8.297 4.425,8.631 4.763,8.861 4.846 L 9.000 4.896 9.000 5.821 C 9.000 6.579,8.988 6.781,8.933 6.943 C 8.875 7.115,8.712 7.297,7.621 8.400 C 6.268 9.770,6.199 9.860,6.062 10.442 C 5.983 10.779,5.981 11.521,6.059 11.783 C 6.135 12.039,6.313 12.249,6.550 12.366 C 6.739 12.459,6.754 12.460,8.640 12.485 C 10.591 12.511,10.754 12.524,11.441 12.699 C 11.814 12.795,12.170 12.927,12.683 13.161 C 13.371 13.476,13.397 13.479,15.451 13.479 C 16.882 13.480,17.269 13.469,17.374 13.425 C 17.562 13.347,17.790 13.134,17.892 12.944 C 17.977 12.786,17.980 12.737,17.980 11.640 C 17.980 10.546,17.976 10.490,17.886 10.240 C 17.704 9.732,17.559 9.554,16.315 8.300 C 15.349 7.326,15.112 7.066,15.062 6.925 C 15.013 6.787,15.000 6.556,15.000 5.823 L 15.000 4.896 15.139 4.846 C 15.369 4.763,15.703 4.425,15.849 4.128 C 15.968 3.886,15.980 3.828,15.979 3.501 C 15.979 3.195,15.963 3.105,15.872 2.911 C 15.724 2.592,15.443 2.306,15.125 2.150 L 14.862 2.020 12.081 2.012 C 9.961 2.006,9.257 2.016,9.117 2.054 M6.600 14.083 C 6.378 14.184,6.219 14.331,6.106 14.540 C 6.021 14.698,6.020 14.731,6.009 16.980 C 5.999 18.924,6.006 19.306,6.060 19.570 C 6.282 20.667,7.087 21.538,8.200 21.886 L 8.500 21.980 12.000 21.980 L 15.500 21.980 15.800 21.886 C 16.907 21.540,17.712 20.674,17.940 19.580 C 18.028 19.161,18.027 15.926,17.939 15.678 C 17.854 15.437,17.709 15.260,17.489 15.131 L 17.300 15.020 15.380 14.996 C 13.317 14.969,13.277 14.965,12.613 14.736 C 12.448 14.680,12.104 14.543,11.847 14.432 C 10.924 14.036,10.639 14.000,8.461 14.001 C 6.856 14.002,6.772 14.005,6.600 14.083 " fill="#292D32" stroke="none" fill-rule="evenodd"></path></svg>