<svg width="24" height="24" viewBox="0 0 24 24" fill="none" xmlns="http://www.w3.org/2000/svg"><path d="M6.730 2.042 C 4.463 2.267,2.849 3.540,2.266 5.560 C 2.013 6.439,2.020 6.271,2.020 11.500 C 2.020 16.729,2.013 16.561,2.266 17.440 C 2.739 19.078,3.922 20.261,5.560 20.734 C 6.360 20.964,6.564 20.980,8.780 20.980 L 10.820 20.980 11.040 20.856 C 11.357 20.677,11.530 20.429,11.705 19.900 C 12.096 18.723,12.717 17.940,13.695 17.395 C 14.060 17.192,14.279 16.994,14.408 16.752 C 14.494 16.588,14.500 16.525,14.524 15.380 C 14.546 14.343,14.561 14.138,14.633 13.872 C 14.804 13.235,15.140 12.659,15.585 12.238 C 16.167 11.687,16.469 11.559,18.539 10.983 C 19.462 10.726,20.281 10.485,20.359 10.449 C 20.437 10.412,20.584 10.298,20.688 10.195 C 21.001 9.883,21.012 9.808,20.990 8.105 C 20.969 6.563,20.941 6.283,20.733 5.560 C 20.260 3.915,19.066 2.727,17.420 2.263 C 16.545 2.016,16.811 2.027,11.720 2.018 C 9.157 2.013,6.912 2.024,6.730 2.042 M20.640 11.978 C 19.916 12.143,17.266 12.906,17.062 13.009 C 16.770 13.157,16.404 13.515,16.264 13.791 C 16.045 14.225,16.040 14.281,16.040 16.553 L 16.040 18.649 15.931 18.621 C 15.611 18.541,15.352 18.514,15.115 18.535 C 13.998 18.637,13.148 19.489,13.052 20.603 C 12.990 21.319,13.335 22.082,13.921 22.526 C 15.156 23.461,16.915 22.915,17.410 21.443 C 17.495 21.189,17.499 21.109,17.519 19.122 L 17.540 17.065 19.400 16.552 C 20.423 16.270,21.319 16.029,21.390 16.015 L 21.520 15.991 21.520 16.820 L 21.520 17.649 21.410 17.625 C 20.728 17.474,20.308 17.503,19.820 17.735 C 19.039 18.106,18.573 18.794,18.531 19.640 C 18.490 20.448,18.867 21.202,19.529 21.633 C 19.883 21.864,20.191 21.964,20.620 21.988 C 21.688 22.048,22.590 21.405,22.910 20.355 C 22.968 20.165,22.978 19.766,22.990 16.948 C 23.001 14.255,22.994 13.702,22.944 13.410 C 22.814 12.656,22.381 12.156,21.700 11.974 C 21.455 11.909,20.937 11.911,20.640 11.978 M21.080 19.102 C 21.198 19.162,21.370 19.341,21.440 19.476 C 21.520 19.632,21.501 19.932,21.398 20.116 C 21.082 20.677,20.287 20.619,20.057 20.018 C 19.823 19.405,20.494 18.805,21.080 19.102 M15.650 20.127 C 15.817 20.210,15.978 20.431,16.020 20.634 C 16.091 20.975,15.820 21.385,15.466 21.474 C 14.843 21.631,14.330 20.961,14.644 20.402 C 14.846 20.042,15.256 19.930,15.650 20.127 " fill="#292D32" stroke="none" fill-rule="evenodd"></path></svg>