<svg width="24" height="24" viewBox="0 0 24 24" fill="none" xmlns="http://www.w3.org/2000/svg"><path d="M11.120 2.039 C 8.192 2.332,5.648 3.774,3.923 6.119 C 2.041 8.678,1.501 12.071,2.496 15.094 C 3.849 19.205,7.695 22.000,12.000 22.000 C 17.491 22.000,22.000 17.491,22.000 12.000 C 22.000 7.433,18.865 3.424,14.417 2.302 C 13.472 2.064,12.026 1.949,11.120 2.039 M16.109 11.286 C 16.616 11.414,16.825 12.038,16.502 12.461 C 16.273 12.761,16.618 12.739,12.007 12.751 C 9.162 12.758,7.824 12.748,7.715 12.719 C 7.493 12.659,7.265 12.420,7.206 12.186 C 7.110 11.806,7.345 11.385,7.705 11.289 C 7.937 11.228,15.866 11.225,16.109 11.286 " fill="#292D32" stroke="none" fill-rule="evenodd"></path></svg>