<svg width="24" height="24" viewBox="0 0 24 24" fill="none" xmlns="http://www.w3.org/2000/svg"><path d="M6.960 2.046 C 6.236 2.116,5.358 2.357,4.796 2.641 C 4.426 2.828,3.928 3.183,3.624 3.475 C 2.737 4.332,2.251 5.370,2.062 6.812 C 1.970 7.515,1.969 16.481,2.061 17.188 C 2.239 18.550,2.681 19.544,3.476 20.372 C 4.162 21.084,4.935 21.524,5.956 21.780 C 6.817 21.997,6.896 22.000,11.993 22.000 C 14.960 22.000,16.828 21.985,17.041 21.959 C 19.985 21.603,21.695 19.840,21.962 16.885 C 21.990 16.579,21.999 14.787,21.989 11.660 C 21.974 7.001,21.972 6.891,21.889 6.456 C 21.642 5.171,21.165 4.235,20.369 3.478 C 19.583 2.729,18.652 2.295,17.359 2.076 C 16.995 2.014,7.572 1.987,6.960 2.046 M18.189 11.286 C 18.577 11.384,18.814 11.790,18.714 12.186 C 18.656 12.416,18.428 12.657,18.213 12.717 C 17.999 12.776,6.001 12.776,5.787 12.717 C 5.572 12.657,5.344 12.416,5.286 12.186 C 5.190 11.806,5.425 11.385,5.785 11.289 C 6.018 11.228,17.944 11.225,18.189 11.286 " fill="#292D32" stroke="none" fill-rule="evenodd"></path></svg>