<svg width="24" height="24" viewBox="0 0 24 24" fill="none" xmlns="http://www.w3.org/2000/svg"><path d="M6.340 3.046 C 4.473 3.284,2.833 4.652,2.247 6.461 C 2.012 7.189,2.020 6.982,2.020 12.000 C 2.020 17.007,2.012 16.813,2.243 17.526 C 2.787 19.205,4.107 20.423,5.869 20.871 L 6.300 20.980 12.000 20.980 L 17.700 20.980 18.131 20.871 C 19.125 20.618,19.914 20.168,20.584 19.473 C 21.240 18.791,21.628 18.084,21.871 17.131 L 21.980 16.700 21.980 12.000 L 21.980 7.300 21.871 6.869 C 21.612 5.851,21.159 5.067,20.426 4.371 C 19.669 3.652,18.644 3.169,17.601 3.042 C 17.179 2.990,6.748 2.994,6.340 3.046 M9.954 7.140 C 13.409 7.814,15.969 10.319,16.741 13.780 C 16.896 14.475,16.913 14.818,16.804 15.031 C 16.626 15.381,16.175 15.532,15.821 15.360 C 15.545 15.227,15.452 15.058,15.359 14.516 C 14.956 12.167,13.647 10.333,11.640 9.306 C 10.870 8.912,10.269 8.712,9.405 8.563 C 8.871 8.470,8.693 8.374,8.565 8.110 C 8.316 7.596,8.659 7.046,9.230 7.042 C 9.345 7.041,9.671 7.085,9.954 7.140 M9.216 9.886 C 11.796 10.488,13.696 12.533,14.139 15.185 C 14.222 15.678,14.188 15.852,13.965 16.075 C 13.707 16.333,13.356 16.378,13.051 16.193 C 12.837 16.063,12.763 15.916,12.658 15.404 C 12.408 14.199,11.974 13.371,11.201 12.626 C 10.446 11.898,9.555 11.454,8.463 11.264 C 8.059 11.193,7.920 11.127,7.774 10.935 C 7.687 10.822,7.660 10.736,7.647 10.542 C 7.628 10.234,7.728 10.011,7.945 9.877 C 8.214 9.711,8.476 9.713,9.216 9.886 M8.310 12.860 C 9.443 13.127,10.343 13.859,10.827 14.907 C 11.078 15.450,11.195 16.140,11.075 16.373 C 11.007 16.505,10.834 16.680,10.703 16.748 C 10.547 16.830,10.246 16.825,10.064 16.739 C 9.836 16.631,9.726 16.452,9.617 16.014 C 9.488 15.492,9.352 15.234,9.040 14.919 C 8.722 14.598,8.404 14.426,7.921 14.314 C 7.499 14.215,7.338 14.122,7.209 13.899 C 7.072 13.663,7.097 13.301,7.265 13.091 C 7.496 12.802,7.790 12.737,8.310 12.860 " fill="#292D32" stroke="none" fill-rule="evenodd"></path></svg>