<svg width="24" height="24" viewBox="0 0 24 24" fill="none" xmlns="http://www.w3.org/2000/svg"><path d="M11.200 2.044 C 8.467 2.307,6.006 4.031,4.800 6.529 C 2.880 10.503,4.549 15.278,8.529 17.200 C 10.730 18.264,13.270 18.264,15.471 17.200 C 18.233 15.867,19.999 13.057,19.999 10.000 C 19.999 6.917,18.217 4.108,15.412 2.773 C 14.124 2.159,12.651 1.904,11.200 2.044 M5.807 21.287 C 5.568 21.341,5.341 21.572,5.289 21.816 C 5.196 22.250,5.432 22.631,5.846 22.717 C 5.998 22.749,7.807 22.758,12.120 22.751 L 18.180 22.740 18.359 22.639 C 18.702 22.448,18.829 22.010,18.646 21.651 C 18.544 21.452,18.391 21.337,18.156 21.283 C 17.922 21.228,6.050 21.233,5.807 21.287 " fill="#292D32" stroke="none" fill-rule="evenodd"></path></svg>