<svg width="24" height="24" viewBox="0 0 24 24" fill="none" xmlns="http://www.w3.org/2000/svg"><path d="M9.649 2.058 C 9.414 2.132,9.222 2.288,9.092 2.509 C 9.000 2.667,8.981 2.753,8.967 3.060 C 8.935 3.791,9.084 4.250,9.469 4.601 C 9.585 4.708,9.783 4.836,9.910 4.887 C 10.139 4.980,10.148 4.980,11.980 4.980 L 13.820 4.980 14.060 4.884 C 14.390 4.751,14.752 4.388,14.882 4.060 C 14.965 3.850,14.977 3.752,14.978 3.280 C 14.980 2.824,14.968 2.716,14.903 2.584 C 14.804 2.385,14.615 2.196,14.416 2.097 C 14.268 2.024,14.146 2.020,12.040 2.012 C 10.268 2.006,9.785 2.015,9.649 2.058 M6.480 2.156 C 4.760 2.535,3.647 3.581,3.221 5.220 C 3.016 6.011,3.020 5.861,3.020 12.000 C 3.020 18.139,3.016 17.989,3.221 18.780 C 3.610 20.277,4.610 21.319,6.064 21.740 C 6.864 21.972,6.962 21.978,9.673 21.979 L 12.166 21.980 12.303 21.831 C 12.506 21.610,12.492 21.464,12.223 20.952 C 11.191 18.991,11.275 16.518,12.439 14.620 C 12.982 13.734,13.872 12.870,14.780 12.349 C 16.363 11.439,18.319 11.252,20.065 11.842 C 20.528 11.998,20.642 11.996,20.831 11.823 L 20.980 11.686 20.980 8.973 C 20.980 6.089,20.974 5.968,20.779 5.221 C 20.586 4.477,20.267 3.884,19.785 3.373 C 19.259 2.815,18.590 2.432,17.770 2.218 C 17.237 2.080,16.926 2.054,16.768 2.136 C 16.558 2.245,16.533 2.344,16.507 3.180 C 16.479 4.073,16.432 4.310,16.171 4.840 C 16.012 5.163,15.927 5.277,15.602 5.605 C 15.271 5.936,15.167 6.014,14.839 6.173 C 14.166 6.500,14.165 6.500,11.980 6.499 C 10.133 6.498,10.048 6.495,9.752 6.411 C 8.852 6.158,8.178 5.601,7.779 4.780 C 7.561 4.333,7.494 3.978,7.451 3.050 L 7.419 2.360 7.294 2.236 C 7.134 2.076,6.935 2.056,6.480 2.156 M17.340 13.046 C 16.886 13.104,16.328 13.270,15.896 13.476 C 14.407 14.188,13.395 15.488,13.075 17.100 C 13.002 17.468,13.002 18.532,13.075 18.900 C 13.468 20.879,14.896 22.374,16.869 22.869 C 17.256 22.966,17.372 22.977,18.000 22.977 C 18.628 22.977,18.744 22.966,19.131 22.869 C 20.120 22.621,20.913 22.169,21.584 21.473 C 22.241 20.790,22.631 20.079,22.869 19.131 C 22.966 18.744,22.977 18.628,22.977 18.000 C 22.977 17.372,22.966 17.256,22.869 16.869 C 22.738 16.345,22.534 15.841,22.292 15.440 C 21.258 13.731,19.320 12.793,17.340 13.046 M17.042 15.730 C 17.115 15.780,17.210 15.879,17.252 15.952 C 17.341 16.103,17.355 16.418,17.279 16.564 C 17.252 16.617,16.931 16.962,16.566 17.330 L 15.903 18.000 16.566 18.670 C 16.931 19.038,17.252 19.383,17.279 19.436 C 17.385 19.640,17.332 19.983,17.165 20.174 C 17.000 20.362,16.641 20.426,16.414 20.307 C 16.352 20.274,15.865 19.809,15.334 19.273 C 13.990 17.920,13.990 18.081,15.334 16.726 C 15.843 16.212,16.314 15.757,16.380 15.716 C 16.553 15.607,16.870 15.614,17.042 15.730 M19.573 15.684 C 19.702 15.750,21.515 17.561,21.587 17.697 C 21.667 17.847,21.667 18.153,21.588 18.303 C 21.554 18.367,21.097 18.846,20.573 19.367 C 19.888 20.048,19.586 20.322,19.500 20.341 C 19.434 20.355,19.360 20.373,19.335 20.380 C 19.310 20.388,19.215 20.375,19.125 20.352 C 18.920 20.300,18.695 20.063,18.657 19.859 C 18.599 19.551,18.676 19.432,19.412 18.690 L 20.097 18.000 19.434 17.330 C 19.069 16.962,18.748 16.617,18.721 16.564 C 18.693 16.511,18.671 16.381,18.671 16.276 C 18.671 15.908,18.931 15.640,19.289 15.640 C 19.397 15.640,19.525 15.660,19.573 15.684 " fill="#292D32" stroke="none" fill-rule="evenodd"></path></svg>