<svg width="24" height="24" viewBox="0 0 24 24" fill="none" xmlns="http://www.w3.org/2000/svg"><path d="M7.100 2.025 C 6.422 2.106,6.216 2.142,5.940 2.228 C 4.996 2.521,4.436 3.126,4.182 4.129 C 4.129 4.337,4.066 4.681,4.043 4.892 C 3.983 5.426,3.983 18.574,4.043 19.108 C 4.246 20.929,5.065 21.757,6.860 21.959 C 7.083 21.984,9.048 21.999,12.008 22.000 C 17.219 22.000,17.348 21.995,18.050 21.775 C 18.537 21.623,18.825 21.455,19.141 21.140 C 19.594 20.688,19.853 20.044,19.957 19.108 C 20.017 18.574,20.017 5.426,19.957 4.892 C 19.795 3.441,19.238 2.627,18.152 2.257 C 17.450 2.018,17.599 2.024,12.180 2.017 C 9.452 2.013,7.166 2.017,7.100 2.025 M14.426 4.904 C 14.645 5.081,14.731 5.248,14.731 5.494 C 14.731 5.806,14.542 6.094,14.267 6.197 C 14.193 6.226,13.425 6.240,12.000 6.240 C 10.575 6.240,9.807 6.226,9.733 6.197 C 9.460 6.095,9.269 5.807,9.269 5.500 C 9.269 5.198,9.411 4.974,9.700 4.822 C 9.806 4.767,10.085 4.761,12.046 4.770 L 14.273 4.780 14.426 4.904 M12.413 15.860 C 12.742 15.946,12.945 16.060,13.203 16.306 C 14.241 17.296,13.679 19.050,12.250 19.276 C 11.122 19.454,10.104 18.429,10.280 17.290 C 10.435 16.285,11.445 15.608,12.413 15.860 " fill="#292D32" stroke="none" fill-rule="evenodd"></path></svg>