<svg width="24" height="24" viewBox="0 0 24 24" fill="none" xmlns="http://www.w3.org/2000/svg"><path d="M5.968 3.566 C 5.808 3.587,5.507 3.647,5.299 3.699 C 3.361 4.191,2.290 5.494,2.042 7.662 C 1.986 8.146,1.986 15.854,2.042 16.338 C 2.334 18.889,3.790 20.268,6.416 20.479 C 7.112 20.535,16.888 20.535,17.584 20.479 C 18.929 20.371,19.944 19.965,20.680 19.240 C 21.422 18.510,21.811 17.627,21.958 16.338 C 22.014 15.854,22.014 8.146,21.958 7.662 C 21.698 5.393,20.591 4.127,18.431 3.629 C 18.062 3.543,18.035 3.543,12.160 3.536 C 8.716 3.532,6.139 3.545,5.968 3.566 M5.790 8.822 C 5.988 8.904,6.077 8.990,6.165 9.180 C 6.234 9.330,6.238 9.504,6.238 12.000 C 6.238 14.496,6.234 14.670,6.165 14.820 C 6.077 15.010,5.988 15.096,5.790 15.178 C 5.602 15.257,5.398 15.257,5.210 15.178 C 5.012 15.096,4.923 15.010,4.835 14.820 C 4.766 14.670,4.762 14.496,4.761 12.009 C 4.760 9.184,4.759 9.203,4.952 8.986 C 5.131 8.783,5.517 8.708,5.790 8.822 M18.790 8.822 C 18.988 8.904,19.077 8.990,19.165 9.180 C 19.234 9.330,19.238 9.504,19.238 12.000 C 19.238 14.496,19.234 14.670,19.165 14.820 C 19.077 15.010,18.988 15.096,18.790 15.178 C 18.602 15.257,18.398 15.257,18.210 15.178 C 18.012 15.096,17.923 15.010,17.835 14.820 C 17.766 14.670,17.762 14.496,17.761 12.009 C 17.760 9.184,17.759 9.203,17.952 8.986 C 18.131 8.783,18.517 8.708,18.790 8.822 M12.740 9.093 C 13.662 9.348,14.400 9.992,14.767 10.860 C 14.931 11.248,14.979 11.509,14.979 12.000 C 14.979 12.260,14.955 12.556,14.924 12.680 C 14.687 13.616,14.005 14.419,13.151 14.766 C 11.804 15.315,10.270 14.841,9.501 13.640 C 9.148 13.088,9.021 12.655,9.021 12.000 C 9.021 11.345,9.148 10.911,9.501 10.360 C 9.900 9.739,10.633 9.225,11.322 9.085 C 11.442 9.061,11.576 9.032,11.620 9.022 C 11.767 8.988,12.537 9.037,12.740 9.093 " fill="#292D32" stroke="none" fill-rule="evenodd"></path></svg>