<svg width="24" height="24" viewBox="0 0 24 24" fill="none" xmlns="http://www.w3.org/2000/svg"><path d="M6.120 3.547 C 5.785 3.584,5.276 3.694,4.941 3.802 C 3.360 4.310,2.412 5.468,2.094 7.280 C 2.025 7.671,2.020 8.000,2.020 12.000 C 2.020 16.000,2.025 16.329,2.094 16.720 C 2.457 18.787,3.608 19.970,5.661 20.387 C 5.999 20.456,6.372 20.460,12.000 20.460 C 17.628 20.460,18.001 20.456,18.339 20.387 C 20.550 19.938,21.731 18.587,21.960 16.246 C 22.013 15.693,22.013 8.307,21.960 7.754 C 21.734 5.442,20.613 4.132,18.431 3.629 C 18.061 3.543,18.037 3.543,12.160 3.537 C 8.915 3.534,6.197 3.539,6.120 3.547 M17.016 5.500 C 17.087 6.784,17.340 7.542,17.879 8.083 C 18.386 8.594,19.097 8.864,20.172 8.953 L 20.500 8.980 20.500 12.000 L 20.500 15.020 20.140 15.050 C 19.096 15.136,18.383 15.409,17.879 15.917 C 17.340 16.458,17.087 17.216,17.016 18.500 L 16.988 19.000 12.000 19.000 L 7.012 19.000 6.984 18.500 C 6.913 17.216,6.660 16.458,6.121 15.917 C 5.614 15.406,4.903 15.136,3.828 15.047 L 3.500 15.020 3.500 12.000 L 3.500 8.980 3.828 8.953 C 4.903 8.864,5.614 8.594,6.121 8.083 C 6.660 7.542,6.913 6.784,6.984 5.500 L 7.012 5.000 12.000 5.000 L 16.988 5.000 17.016 5.500 M11.503 9.040 C 11.202 9.094,10.930 9.192,10.596 9.365 C 9.231 10.073,8.644 11.703,9.234 13.151 C 9.521 13.857,10.143 14.479,10.849 14.766 C 11.989 15.230,13.251 14.978,14.115 14.115 C 15.238 12.992,15.295 11.212,14.246 10.020 C 13.897 9.624,13.276 9.239,12.756 9.097 C 12.491 9.024,11.770 8.991,11.503 9.040 " fill="#292D32" stroke="none" fill-rule="evenodd"></path></svg>