<svg width="24" height="24" viewBox="0 0 24 24" fill="none" xmlns="http://www.w3.org/2000/svg"><path d="M5.968 3.566 C 5.808 3.587,5.507 3.647,5.299 3.699 C 3.361 4.191,2.290 5.494,2.042 7.662 C 1.986 8.146,1.986 15.854,2.042 16.338 C 2.334 18.889,3.790 20.268,6.416 20.479 C 7.112 20.535,16.888 20.535,17.584 20.479 C 18.929 20.371,19.944 19.965,20.680 19.240 C 21.422 18.510,21.811 17.627,21.958 16.338 C 22.014 15.854,22.014 8.146,21.958 7.662 C 21.698 5.393,20.591 4.127,18.431 3.629 C 18.062 3.543,18.035 3.543,12.160 3.536 C 8.716 3.532,6.139 3.545,5.968 3.566 M19.189 6.286 C 19.577 6.384,19.814 6.790,19.714 7.186 C 19.656 7.416,19.428 7.657,19.213 7.717 C 19.006 7.775,15.994 7.775,15.787 7.717 C 15.572 7.657,15.344 7.416,15.286 7.186 C 15.190 6.806,15.425 6.385,15.785 6.289 C 16.011 6.230,18.953 6.227,19.189 6.286 M12.740 9.093 C 13.662 9.348,14.400 9.992,14.767 10.860 C 14.931 11.248,14.979 11.509,14.979 12.000 C 14.979 12.260,14.955 12.556,14.924 12.680 C 14.687 13.616,14.005 14.419,13.151 14.766 C 11.804 15.315,10.270 14.841,9.501 13.640 C 9.148 13.088,9.021 12.655,9.021 12.000 C 9.021 11.345,9.148 10.911,9.501 10.360 C 9.900 9.739,10.633 9.225,11.322 9.085 C 11.442 9.061,11.576 9.032,11.620 9.022 C 11.767 8.988,12.537 9.037,12.740 9.093 M8.189 16.286 C 8.577 16.384,8.814 16.790,8.714 17.186 C 8.656 17.416,8.428 17.657,8.213 17.717 C 8.117 17.744,7.476 17.760,6.500 17.760 C 5.524 17.760,4.883 17.744,4.787 17.717 C 4.572 17.657,4.344 17.416,4.286 17.186 C 4.190 16.806,4.425 16.385,4.785 16.289 C 5.011 16.230,7.953 16.227,8.189 16.286 " fill="#292D32" stroke="none" fill-rule="evenodd"></path></svg>