<svg width="24" height="24" viewBox="0 0 24 24" fill="none" xmlns="http://www.w3.org/2000/svg"><path d="M6.161 4.046 C 5.669 4.097,5.012 4.255,4.617 4.415 C 4.092 4.630,3.703 4.891,3.276 5.317 C 2.729 5.862,2.424 6.414,2.202 7.262 C 2.026 7.935,2.000 8.355,2.000 10.566 C 2.000 12.410,2.007 12.664,2.065 12.786 C 2.191 13.051,2.481 13.108,2.871 12.944 C 3.631 12.627,4.373 12.498,5.240 12.533 C 6.618 12.590,7.777 13.079,8.755 14.017 C 9.631 14.858,10.216 15.955,10.419 17.135 C 10.498 17.597,10.497 18.518,10.416 18.940 C 10.311 19.487,10.305 19.615,10.376 19.753 C 10.511 20.012,10.321 20.000,14.168 20.000 C 17.073 20.000,17.727 19.989,18.060 19.939 C 19.984 19.649,21.182 18.698,21.712 17.038 C 21.983 16.193,21.975 16.325,21.990 12.228 C 22.001 9.077,21.994 8.445,21.943 8.048 C 21.837 7.239,21.633 6.600,21.295 6.020 C 21.057 5.612,20.459 5.008,20.033 4.745 C 19.426 4.371,18.654 4.131,17.766 4.042 C 17.254 3.990,6.659 3.994,6.161 4.046 M18.856 9.355 C 18.919 9.391,19.027 9.489,19.096 9.574 L 19.220 9.727 19.220 12.000 L 19.220 14.273 19.098 14.426 C 18.956 14.604,18.677 14.760,18.500 14.760 C 18.323 14.760,18.044 14.604,17.902 14.426 L 17.780 14.273 17.780 12.003 L 17.780 9.734 17.893 9.586 C 17.955 9.505,18.050 9.409,18.104 9.374 C 18.317 9.234,18.629 9.226,18.856 9.355 M12.592 9.581 C 13.482 9.790,14.210 10.519,14.420 11.410 C 14.547 11.948,14.475 12.605,14.237 13.095 C 13.810 13.969,12.981 14.485,12.000 14.485 C 11.019 14.485,10.190 13.969,9.763 13.095 C 9.437 12.424,9.436 11.566,9.763 10.908 C 10.095 10.238,10.693 9.752,11.392 9.582 C 11.697 9.508,12.281 9.507,12.592 9.581 M4.440 14.044 C 4.069 14.091,3.554 14.260,3.160 14.463 C 2.087 15.015,1.339 16.017,1.074 17.260 C 1.003 17.591,1.012 18.472,1.089 18.821 C 1.286 19.707,1.814 20.563,2.500 21.110 C 2.862 21.398,3.485 21.724,3.897 21.840 C 6.272 22.510,8.681 20.890,8.965 18.433 C 9.102 17.244,8.676 16.033,7.822 15.178 C 6.936 14.293,5.707 13.880,4.440 14.044 M4.390 16.333 C 4.473 16.390,4.647 16.546,4.778 16.678 L 5.016 16.919 5.339 16.603 C 5.583 16.365,5.705 16.276,5.836 16.241 C 6.404 16.088,6.912 16.596,6.759 17.164 C 6.724 17.295,6.635 17.417,6.399 17.659 L 6.086 17.980 6.380 18.286 C 6.729 18.650,6.804 18.781,6.806 19.037 C 6.809 19.358,6.640 19.617,6.350 19.738 C 6.001 19.884,5.766 19.801,5.321 19.376 L 4.996 19.066 4.662 19.398 C 4.380 19.678,4.297 19.738,4.123 19.783 C 4.010 19.812,3.895 19.830,3.868 19.821 C 3.842 19.813,3.771 19.796,3.711 19.783 C 3.576 19.753,3.336 19.547,3.256 19.392 C 3.184 19.253,3.175 18.947,3.238 18.784 C 3.263 18.720,3.429 18.518,3.607 18.335 L 3.931 18.003 3.607 17.660 C 3.189 17.219,3.113 16.976,3.277 16.615 C 3.466 16.198,4.000 16.063,4.390 16.333 " fill="#292D32" stroke="none" fill-rule="evenodd"></path></svg>