<svg width="24" height="24" viewBox="0 0 24 24" fill="none" xmlns="http://www.w3.org/2000/svg"><path d="M6.360 4.026 C 4.944 4.171,3.984 4.573,3.256 5.326 C 2.778 5.819,2.459 6.377,2.259 7.067 C 2.039 7.827,2.028 7.967,2.010 10.387 C 1.992 12.864,1.989 12.825,2.237 12.972 C 2.404 13.070,2.590 13.056,2.922 12.919 C 3.296 12.765,3.847 12.617,4.276 12.557 C 4.739 12.491,5.758 12.532,6.200 12.635 C 8.352 13.132,10.029 14.913,10.425 17.120 C 10.500 17.541,10.513 18.484,10.448 18.820 C 10.302 19.571,10.301 19.591,10.371 19.737 C 10.506 20.020,10.274 20.005,14.332 19.990 L 17.980 19.975 18.440 19.872 C 20.451 19.420,21.530 18.285,21.909 16.221 C 21.967 15.907,21.977 15.403,21.991 12.340 C 22.007 8.582,21.992 8.144,21.821 7.390 C 21.458 5.781,20.422 4.676,18.875 4.245 C 18.047 4.014,18.399 4.026,12.200 4.018 C 9.065 4.015,6.437 4.018,6.360 4.026 M18.780 9.316 C 18.966 9.402,19.137 9.573,19.197 9.733 C 19.226 9.807,19.240 10.575,19.240 12.000 C 19.240 13.425,19.226 14.193,19.197 14.267 C 19.104 14.516,18.759 14.758,18.500 14.758 C 18.241 14.758,17.896 14.516,17.803 14.267 C 17.774 14.193,17.760 13.425,17.760 12.000 C 17.760 10.575,17.774 9.807,17.803 9.733 C 17.896 9.484,18.241 9.242,18.500 9.242 C 18.566 9.242,18.692 9.275,18.780 9.316 M12.769 9.627 C 13.482 9.849,14.125 10.474,14.357 11.172 C 14.725 12.278,14.334 13.437,13.378 14.076 C 12.545 14.634,11.455 14.634,10.622 14.076 C 10.293 13.856,10.104 13.662,9.876 13.309 C 9.506 12.736,9.404 11.924,9.618 11.251 C 10.040 9.925,11.427 9.209,12.769 9.627 M4.540 14.027 C 2.904 14.231,1.575 15.384,1.132 16.983 C 1.035 17.334,1.022 17.449,1.022 17.980 C 1.022 18.480,1.037 18.640,1.115 18.940 C 1.209 19.300,1.394 19.746,1.587 20.075 L 1.689 20.250 4.463 17.477 L 7.237 14.703 7.128 14.630 C 6.456 14.171,5.383 13.922,4.540 14.027 M5.524 18.536 L 2.752 21.308 2.926 21.409 C 3.731 21.877,4.547 22.062,5.391 21.968 C 5.928 21.908,6.281 21.809,6.740 21.586 C 8.254 20.855,9.170 19.194,8.965 17.553 C 8.889 16.944,8.660 16.297,8.370 15.872 L 8.297 15.763 5.524 18.536 " fill="#292D32" stroke="none" fill-rule="evenodd"></path></svg>