<svg width="24" height="24" viewBox="0 0 24 24" fill="none" xmlns="http://www.w3.org/2000/svg"><path d="M5.480 3.546 C 4.267 3.672,3.416 4.050,2.750 4.755 C 2.405 5.121,2.164 5.537,1.987 6.072 C 1.728 6.856,1.720 6.981,1.720 10.505 C 1.720 13.913,1.727 14.047,1.938 14.772 C 2.251 15.845,2.938 16.639,3.926 17.067 C 4.285 17.223,4.924 17.377,5.460 17.438 C 5.973 17.497,15.064 17.494,15.608 17.436 C 17.421 17.240,18.620 16.322,19.074 14.780 C 19.299 14.018,19.300 14.001,19.300 10.540 C 19.300 8.105,19.288 7.268,19.248 7.040 C 19.065 5.977,18.772 5.309,18.244 4.749 C 17.690 4.161,17.079 3.839,16.120 3.629 C 15.747 3.547,15.648 3.545,10.680 3.538 C 7.897 3.534,5.557 3.538,5.480 3.546 M20.880 7.720 C 20.802 7.798,20.800 7.853,20.800 10.610 C 20.800 13.594,20.781 14.013,20.615 14.758 C 20.449 15.502,20.163 16.185,19.787 16.739 C 19.592 17.027,19.072 17.575,18.783 17.798 C 18.228 18.226,17.473 18.581,16.740 18.759 C 15.929 18.956,15.856 18.958,10.807 18.959 C 7.320 18.960,6.052 18.972,5.987 19.006 C 5.873 19.066,5.841 19.118,5.841 19.247 C 5.839 19.476,6.554 19.956,7.239 20.185 C 8.098 20.473,7.802 20.460,13.500 20.460 C 19.126 20.460,18.881 20.470,19.685 20.216 C 20.805 19.863,21.635 19.065,22.002 17.989 C 22.264 17.223,22.254 17.383,22.270 13.740 C 22.281 11.411,22.272 10.309,22.240 10.050 C 22.128 9.143,21.795 8.340,21.315 7.819 C 21.131 7.620,21.008 7.592,20.880 7.720 M11.320 7.994 C 12.101 8.247,12.762 8.914,13.011 9.700 C 13.139 10.103,13.139 10.897,13.011 11.300 C 12.573 12.684,11.086 13.444,9.680 13.004 C 8.920 12.765,8.241 12.088,7.994 11.320 C 7.875 10.950,7.849 10.302,7.938 9.904 C 8.146 8.967,8.875 8.211,9.814 7.957 C 10.201 7.852,10.940 7.870,11.320 7.994 M5.124 8.343 C 5.280 8.422,5.473 8.661,5.500 8.809 C 5.513 8.881,5.518 9.690,5.512 10.606 L 5.500 12.273 5.378 12.426 C 5.236 12.604,4.957 12.760,4.780 12.760 C 4.603 12.760,4.324 12.604,4.182 12.426 L 4.060 12.273 4.060 10.503 L 4.060 8.734 4.173 8.586 C 4.235 8.505,4.330 8.409,4.384 8.374 C 4.589 8.239,4.894 8.227,5.124 8.343 M16.560 8.342 C 16.701 8.413,16.826 8.556,16.898 8.729 C 16.951 8.855,16.960 9.125,16.959 10.509 C 16.958 12.005,16.952 12.153,16.885 12.302 C 16.764 12.567,16.468 12.759,16.178 12.760 C 16.004 12.760,15.682 12.558,15.579 12.383 L 15.480 12.213 15.480 10.502 C 15.480 8.810,15.481 8.789,15.568 8.633 C 15.757 8.299,16.212 8.165,16.560 8.342 " fill="#292D32" stroke="none" fill-rule="evenodd"></path></svg>