<svg width="24" height="24" viewBox="0 0 24 24" fill="none" xmlns="http://www.w3.org/2000/svg"><path d="M6.360 4.026 C 4.944 4.171,3.984 4.573,3.256 5.326 C 2.778 5.819,2.459 6.377,2.259 7.067 C 2.039 7.827,2.028 7.967,2.010 10.387 C 1.992 12.864,1.989 12.825,2.237 12.972 C 2.404 13.070,2.590 13.056,2.922 12.919 C 3.296 12.765,3.847 12.617,4.276 12.557 C 4.739 12.491,5.758 12.532,6.200 12.635 C 8.352 13.132,10.029 14.913,10.425 17.120 C 10.500 17.541,10.513 18.484,10.448 18.820 C 10.302 19.571,10.301 19.591,10.371 19.737 C 10.506 20.020,10.274 20.005,14.332 19.990 L 17.980 19.975 18.440 19.872 C 20.451 19.420,21.530 18.285,21.909 16.221 C 21.967 15.907,21.977 15.403,21.991 12.340 C 22.007 8.582,21.992 8.144,21.821 7.390 C 21.458 5.781,20.422 4.676,18.875 4.245 C 18.047 4.014,18.399 4.026,12.200 4.018 C 9.065 4.015,6.437 4.018,6.360 4.026 M18.780 9.316 C 18.966 9.402,19.137 9.573,19.197 9.733 C 19.226 9.807,19.240 10.575,19.240 12.000 C 19.240 13.425,19.226 14.193,19.197 14.267 C 19.104 14.516,18.759 14.758,18.500 14.758 C 18.241 14.758,17.896 14.516,17.803 14.267 C 17.774 14.193,17.760 13.425,17.760 12.000 C 17.760 10.575,17.774 9.807,17.803 9.733 C 17.896 9.484,18.241 9.242,18.500 9.242 C 18.566 9.242,18.692 9.275,18.780 9.316 M12.769 9.627 C 13.482 9.849,14.125 10.474,14.357 11.172 C 14.725 12.278,14.334 13.437,13.378 14.076 C 12.545 14.634,11.455 14.634,10.622 14.076 C 10.293 13.856,10.104 13.662,9.876 13.309 C 9.506 12.736,9.404 11.924,9.618 11.251 C 10.040 9.925,11.427 9.209,12.769 9.627 M4.540 14.024 C 2.847 14.275,1.576 15.378,1.132 16.983 C 1.034 17.337,1.022 17.447,1.022 18.000 C 1.022 18.553,1.034 18.663,1.132 19.017 C 1.475 20.256,2.357 21.252,3.520 21.715 C 5.331 22.436,7.449 21.715,8.442 20.040 C 9.506 18.245,8.984 15.877,7.269 14.712 C 6.917 14.473,6.343 14.214,5.958 14.120 C 5.630 14.040,4.809 13.984,4.540 14.024 M5.511 16.062 C 5.708 16.144,5.835 16.266,5.924 16.460 C 5.986 16.593,5.998 16.723,5.999 17.242 C 6.001 18.430,5.791 18.800,4.768 19.412 C 4.220 19.740,4.062 19.791,3.808 19.722 C 3.347 19.598,3.130 19.062,3.367 18.632 C 3.445 18.489,3.543 18.410,3.939 18.170 C 4.202 18.011,4.439 17.840,4.467 17.790 C 4.500 17.730,4.518 17.510,4.519 17.128 C 4.520 16.640,4.531 16.534,4.599 16.402 C 4.771 16.065,5.165 15.918,5.511 16.062 " fill="#292D32" stroke="none" fill-rule="evenodd"></path></svg>