<svg width="24" height="24" viewBox="0 0 24 24" fill="none" xmlns="http://www.w3.org/2000/svg"><path d="M5.968 3.566 C 5.808 3.587,5.507 3.647,5.299 3.699 C 3.361 4.191,2.290 5.494,2.042 7.662 C 1.986 8.146,1.986 15.854,2.042 16.338 C 2.334 18.889,3.790 20.268,6.416 20.479 C 7.112 20.535,16.888 20.535,17.584 20.479 C 18.929 20.371,19.944 19.965,20.680 19.240 C 21.422 18.510,21.811 17.627,21.958 16.338 C 22.014 15.854,22.014 8.146,21.958 7.662 C 21.698 5.393,20.591 4.127,18.431 3.629 C 18.062 3.543,18.035 3.543,12.160 3.536 C 8.716 3.532,6.139 3.545,5.968 3.566 M8.836 5.340 C 8.910 5.384,9.027 5.489,9.096 5.574 C 9.208 5.712,9.220 5.755,9.220 6.000 C 9.220 6.244,9.207 6.289,9.098 6.426 C 9.030 6.511,8.896 6.620,8.799 6.670 C 8.632 6.756,8.577 6.760,7.702 6.761 C 6.723 6.762,6.542 6.785,6.222 6.945 C 5.804 7.155,5.534 7.457,5.353 7.916 C 5.272 8.121,5.262 8.229,5.242 9.206 L 5.220 10.273 5.098 10.426 C 4.956 10.604,4.677 10.760,4.500 10.760 C 4.323 10.760,4.044 10.604,3.902 10.426 L 3.780 10.272 3.780 9.106 C 3.780 7.794,3.796 7.690,4.080 7.097 C 4.390 6.452,4.874 5.956,5.520 5.623 C 6.157 5.294,6.457 5.245,7.760 5.254 C 8.621 5.259,8.711 5.267,8.836 5.340 M17.811 5.354 C 18.202 5.459,18.746 5.738,19.068 5.999 C 19.542 6.384,19.972 7.053,20.147 7.680 C 20.210 7.904,20.220 8.102,20.220 9.106 L 20.220 10.272 20.098 10.426 C 19.956 10.604,19.677 10.760,19.500 10.760 C 19.323 10.760,19.044 10.604,18.902 10.426 L 18.780 10.273 18.757 9.206 C 18.732 8.092,18.725 8.041,18.525 7.650 C 18.385 7.375,18.073 7.092,17.731 6.929 L 17.420 6.780 16.360 6.760 C 15.171 6.738,15.152 6.733,14.904 6.426 C 14.793 6.288,14.780 6.245,14.780 6.003 C 14.780 5.769,14.795 5.714,14.893 5.586 C 15.025 5.412,15.153 5.322,15.331 5.276 C 15.402 5.258,15.919 5.249,16.480 5.257 C 17.362 5.268,17.542 5.281,17.811 5.354 M12.740 9.093 C 13.662 9.348,14.400 9.992,14.767 10.860 C 14.931 11.248,14.979 11.509,14.979 12.000 C 14.979 12.260,14.955 12.556,14.924 12.680 C 14.687 13.616,14.005 14.419,13.151 14.766 C 11.804 15.315,10.270 14.841,9.501 13.640 C 9.148 13.088,9.021 12.655,9.021 12.000 C 9.021 11.345,9.148 10.911,9.501 10.360 C 9.900 9.739,10.633 9.225,11.322 9.085 C 11.442 9.061,11.576 9.032,11.620 9.022 C 11.767 8.988,12.537 9.037,12.740 9.093 M4.856 13.355 C 4.919 13.391,5.027 13.489,5.096 13.574 L 5.220 13.727 5.242 14.794 C 5.262 15.771,5.272 15.879,5.353 16.084 C 5.546 16.573,5.909 16.949,6.360 17.129 C 6.561 17.208,6.673 17.218,7.640 17.238 C 8.828 17.263,8.848 17.267,9.096 17.574 C 9.208 17.712,9.220 17.755,9.220 18.000 C 9.220 18.244,9.207 18.289,9.098 18.426 C 9.030 18.511,8.895 18.622,8.798 18.672 C 8.623 18.763,8.605 18.765,7.560 18.749 C 6.629 18.735,6.461 18.722,6.182 18.646 C 5.270 18.397,4.517 17.780,4.102 16.940 C 3.795 16.319,3.780 16.223,3.780 14.897 L 3.780 13.734 3.893 13.586 C 3.955 13.505,4.050 13.409,4.104 13.374 C 4.317 13.234,4.629 13.226,4.856 13.355 M19.856 13.355 C 19.919 13.391,20.027 13.489,20.096 13.574 L 20.220 13.728 20.220 14.894 C 20.220 16.224,20.205 16.319,19.898 16.940 C 19.483 17.780,18.730 18.397,17.818 18.646 C 17.539 18.722,17.371 18.735,16.440 18.749 C 15.395 18.765,15.377 18.763,15.202 18.672 C 15.105 18.622,14.970 18.511,14.902 18.426 C 14.793 18.289,14.780 18.244,14.780 18.000 C 14.780 17.755,14.792 17.712,14.904 17.574 C 15.152 17.267,15.172 17.263,16.360 17.238 C 17.313 17.219,17.441 17.208,17.629 17.133 C 18.010 16.979,18.360 16.668,18.537 16.325 C 18.722 15.968,18.732 15.895,18.757 14.797 L 18.780 13.734 18.893 13.586 C 18.955 13.505,19.050 13.409,19.104 13.374 C 19.317 13.234,19.629 13.226,19.856 13.355 " fill="#292D32" stroke="none" fill-rule="evenodd"></path></svg>