<svg width="24" height="24" viewBox="0 0 24 24" fill="none" xmlns="http://www.w3.org/2000/svg"><path d="M6.161 4.046 C 5.669 4.097,5.012 4.255,4.617 4.415 C 4.092 4.630,3.703 4.891,3.276 5.317 C 2.729 5.862,2.424 6.414,2.202 7.262 C 2.026 7.935,2.000 8.355,2.000 10.566 C 2.000 12.410,2.007 12.664,2.065 12.786 C 2.191 13.051,2.481 13.108,2.871 12.944 C 3.631 12.627,4.373 12.498,5.240 12.533 C 6.618 12.590,7.777 13.079,8.755 14.017 C 9.631 14.858,10.216 15.955,10.419 17.135 C 10.498 17.597,10.497 18.518,10.416 18.940 C 10.311 19.487,10.305 19.615,10.376 19.753 C 10.511 20.012,10.321 20.000,14.168 20.000 C 17.073 20.000,17.727 19.989,18.060 19.939 C 19.984 19.649,21.182 18.698,21.712 17.038 C 21.983 16.193,21.975 16.325,21.990 12.228 C 22.001 9.077,21.994 8.445,21.943 8.048 C 21.837 7.239,21.633 6.600,21.295 6.020 C 21.057 5.612,20.459 5.008,20.033 4.745 C 19.426 4.371,18.654 4.131,17.766 4.042 C 17.254 3.990,6.659 3.994,6.161 4.046 M18.856 9.355 C 18.919 9.391,19.027 9.489,19.096 9.574 L 19.220 9.727 19.220 12.000 L 19.220 14.273 19.098 14.426 C 18.956 14.604,18.677 14.760,18.500 14.760 C 18.323 14.760,18.044 14.604,17.902 14.426 L 17.780 14.273 17.780 12.003 L 17.780 9.734 17.893 9.586 C 17.955 9.505,18.050 9.409,18.104 9.374 C 18.317 9.234,18.629 9.226,18.856 9.355 M12.592 9.581 C 13.482 9.790,14.210 10.519,14.420 11.410 C 14.547 11.948,14.475 12.605,14.237 13.095 C 13.810 13.969,12.981 14.485,12.000 14.485 C 11.019 14.485,10.190 13.969,9.763 13.095 C 9.437 12.424,9.436 11.566,9.763 10.908 C 10.095 10.238,10.693 9.752,11.392 9.582 C 11.697 9.508,12.281 9.507,12.592 9.581 M4.378 14.058 C 1.996 14.428,0.467 16.880,1.186 19.175 C 1.758 20.998,3.567 22.188,5.434 21.968 C 7.382 21.740,8.850 20.200,8.986 18.244 C 9.160 15.731,6.889 13.668,4.378 14.058 M4.155 15.422 C 4.278 15.556,4.288 15.586,4.271 15.764 L 4.252 15.960 5.339 15.960 C 6.575 15.960,6.672 15.977,6.980 16.248 C 7.257 16.493,7.374 16.750,7.377 17.129 C 7.380 17.423,7.374 17.444,7.256 17.562 C 7.102 17.717,6.870 17.758,6.687 17.664 C 6.519 17.577,6.446 17.456,6.415 17.217 C 6.402 17.109,6.362 16.997,6.328 16.970 C 6.281 16.933,6.003 16.920,5.259 16.920 L 4.253 16.920 4.272 17.139 C 4.289 17.347,4.282 17.366,4.149 17.499 C 4.033 17.615,3.979 17.640,3.841 17.640 C 3.750 17.640,3.635 17.620,3.587 17.596 C 3.462 17.532,2.725 16.800,2.657 16.672 C 2.585 16.535,2.584 16.321,2.655 16.219 C 2.744 16.093,3.558 15.303,3.632 15.271 C 3.670 15.255,3.772 15.249,3.860 15.258 C 3.981 15.271,4.053 15.311,4.155 15.422 M3.364 18.371 C 3.508 18.468,3.594 18.651,3.598 18.869 C 3.599 18.953,3.626 19.011,3.677 19.039 C 3.725 19.064,4.141 19.080,4.752 19.080 L 5.750 19.080 5.731 18.907 C 5.694 18.580,5.900 18.360,6.243 18.360 C 6.403 18.360,6.431 18.380,6.883 18.830 C 7.576 19.520,7.576 19.566,6.879 20.261 L 6.399 20.740 6.196 20.740 C 6.013 20.740,5.981 20.726,5.853 20.587 C 5.726 20.448,5.714 20.415,5.726 20.237 L 5.740 20.040 4.652 20.040 C 3.656 20.040,3.544 20.033,3.346 19.959 C 3.059 19.851,2.759 19.539,2.662 19.245 C 2.563 18.949,2.590 18.599,2.723 18.456 C 2.906 18.259,3.149 18.227,3.364 18.371 " fill="#292D32" stroke="none" fill-rule="evenodd"></path></svg>