<svg width="24" height="24" viewBox="0 0 24 24" fill="none" xmlns="http://www.w3.org/2000/svg"><path d="M17.807 1.286 C 17.275 1.408,17.085 2.125,17.480 2.520 C 17.696 2.736,17.858 2.760,19.112 2.760 L 20.179 2.760 19.360 3.580 C 18.909 4.031,18.530 4.400,18.518 4.400 C 18.505 4.400,18.370 4.301,18.217 4.179 C 16.067 2.464,13.269 1.714,10.528 2.119 C 6.593 2.699,3.361 5.591,2.342 9.443 C 2.101 10.351,2.026 10.964,2.026 12.000 C 2.026 13.036,2.101 13.649,2.342 14.557 C 3.259 18.025,5.975 20.741,9.443 21.658 C 10.351 21.899,10.964 21.974,12.000 21.974 C 13.036 21.974,13.649 21.899,14.557 21.658 C 18.028 20.740,20.747 18.018,21.660 14.548 C 22.461 11.503,21.775 8.233,19.821 5.783 C 19.699 5.630,19.600 5.495,19.600 5.482 C 19.600 5.470,19.969 5.091,20.420 4.640 L 21.240 3.821 21.240 4.888 C 21.240 5.517,21.258 6.041,21.284 6.162 C 21.424 6.815,22.311 6.943,22.640 6.358 L 22.740 6.180 22.740 4.000 L 22.740 1.820 22.649 1.650 C 22.599 1.557,22.484 1.431,22.392 1.370 L 22.226 1.260 20.103 1.253 C 18.824 1.250,17.911 1.263,17.807 1.286 M18.891 4.761 C 19.079 4.937,19.310 5.172,19.403 5.284 L 19.573 5.487 18.516 6.547 C 17.436 7.633,17.278 7.758,17.000 7.758 C 16.690 7.758,16.365 7.510,16.282 7.209 C 16.230 7.022,16.230 6.978,16.284 6.780 C 16.320 6.647,16.510 6.436,17.413 5.530 C 18.010 4.930,18.509 4.440,18.523 4.440 C 18.537 4.440,18.702 4.584,18.891 4.761 M12.267 6.803 C 12.543 6.907,12.758 7.242,12.759 7.570 L 12.760 7.760 12.938 7.760 C 13.469 7.760,14.074 8.030,14.502 8.459 C 15.101 9.057,15.410 10.064,15.155 10.590 C 14.982 10.947,14.543 11.096,14.180 10.920 C 13.923 10.796,13.803 10.601,13.750 10.220 C 13.675 9.683,13.372 9.329,12.930 9.260 L 12.760 9.233 12.760 10.351 L 12.760 11.470 13.310 11.661 C 14.039 11.915,14.368 12.084,14.641 12.344 C 14.916 12.606,15.056 12.855,15.161 13.263 C 15.376 14.103,15.178 14.959,14.635 15.539 C 14.212 15.992,13.752 16.210,13.115 16.261 L 12.770 16.289 12.749 16.527 C 12.696 17.113,12.115 17.432,11.625 17.145 C 11.392 17.008,11.278 16.818,11.251 16.521 L 11.229 16.283 11.045 16.262 C 10.704 16.222,10.342 16.120,10.080 15.990 C 9.704 15.803,9.223 15.313,9.030 14.920 C 8.757 14.362,8.681 13.747,8.845 13.410 C 9.018 13.053,9.457 12.904,9.820 13.080 C 10.077 13.204,10.197 13.399,10.250 13.780 C 10.325 14.317,10.628 14.671,11.070 14.740 L 11.240 14.767 11.240 13.649 L 11.240 12.530 10.690 12.339 C 9.969 12.088,9.635 11.918,9.370 11.667 C 8.963 11.282,8.803 10.890,8.771 10.200 C 8.737 9.464,8.916 8.941,9.365 8.461 C 9.790 8.006,10.252 7.787,10.888 7.737 L 11.240 7.710 11.240 7.554 C 11.240 7.257,11.443 6.931,11.700 6.817 C 11.846 6.752,12.115 6.745,12.267 6.803 M10.740 9.300 C 10.249 9.472,10.061 10.295,10.440 10.614 C 10.536 10.695,11.102 10.920,11.210 10.920 C 11.227 10.920,11.240 10.542,11.240 10.080 L 11.240 9.240 11.070 9.242 C 10.977 9.243,10.828 9.269,10.740 9.300 M12.760 13.920 L 12.760 14.760 12.910 14.760 C 13.490 14.759,13.833 14.318,13.720 13.722 C 13.698 13.602,13.641 13.464,13.594 13.414 C 13.522 13.337,12.909 13.080,12.798 13.080 C 12.775 13.080,12.760 13.418,12.760 13.920 " fill="#292D32" stroke="none" fill-rule="evenodd"></path></svg>