<svg width="24" height="24" viewBox="0 0 24 24" fill="none" xmlns="http://www.w3.org/2000/svg"><path d="M6.161 4.046 C 5.669 4.097,5.012 4.255,4.617 4.415 C 4.092 4.630,3.703 4.891,3.276 5.317 C 2.729 5.862,2.424 6.414,2.202 7.262 C 2.026 7.935,2.000 8.355,2.000 10.566 C 2.000 12.410,2.007 12.664,2.065 12.786 C 2.191 13.051,2.481 13.108,2.871 12.944 C 3.631 12.627,4.373 12.498,5.240 12.533 C 6.618 12.590,7.777 13.079,8.755 14.017 C 9.631 14.858,10.216 15.955,10.419 17.135 C 10.498 17.597,10.497 18.518,10.416 18.940 C 10.311 19.487,10.305 19.615,10.376 19.753 C 10.511 20.012,10.321 20.000,14.168 20.000 C 17.073 20.000,17.727 19.989,18.060 19.939 C 19.984 19.649,21.182 18.698,21.712 17.038 C 21.983 16.193,21.975 16.325,21.990 12.228 C 22.001 9.077,21.994 8.445,21.943 8.048 C 21.837 7.239,21.633 6.600,21.295 6.020 C 21.057 5.612,20.459 5.008,20.033 4.745 C 19.426 4.371,18.654 4.131,17.766 4.042 C 17.254 3.990,6.659 3.994,6.161 4.046 M18.856 9.355 C 18.919 9.391,19.027 9.489,19.096 9.574 L 19.220 9.727 19.220 12.000 L 19.220 14.273 19.098 14.426 C 18.956 14.604,18.677 14.760,18.500 14.760 C 18.323 14.760,18.044 14.604,17.902 14.426 L 17.780 14.273 17.780 12.003 L 17.780 9.734 17.893 9.586 C 17.955 9.505,18.050 9.409,18.104 9.374 C 18.317 9.234,18.629 9.226,18.856 9.355 M12.592 9.581 C 13.482 9.790,14.210 10.519,14.420 11.410 C 14.547 11.948,14.475 12.605,14.237 13.095 C 13.810 13.969,12.981 14.485,12.000 14.485 C 11.019 14.485,10.190 13.969,9.763 13.095 C 9.437 12.424,9.436 11.566,9.763 10.908 C 10.095 10.238,10.693 9.752,11.392 9.582 C 11.697 9.508,12.281 9.507,12.592 9.581 M4.420 14.044 C 4.288 14.063,4.027 14.126,3.841 14.183 C 2.768 14.515,1.931 15.222,1.430 16.220 C 0.445 18.181,1.250 20.585,3.220 21.563 C 3.703 21.803,4.041 21.903,4.587 21.966 C 5.571 22.081,6.598 21.791,7.426 21.166 C 8.510 20.348,9.116 18.942,8.968 17.589 C 8.793 15.982,7.720 14.674,6.178 14.188 C 5.622 14.013,4.998 13.961,4.420 14.044 M6.740 16.435 C 6.947 16.529,7.149 16.760,7.183 16.942 C 7.221 17.142,7.180 17.394,7.090 17.517 C 6.989 17.653,4.942 19.567,4.751 19.704 C 4.573 19.830,4.310 19.869,4.095 19.799 C 3.910 19.740,2.799 18.669,2.677 18.432 C 2.542 18.171,2.591 17.818,2.795 17.586 C 2.979 17.376,3.398 17.297,3.652 17.424 C 3.722 17.459,3.909 17.615,4.066 17.769 L 4.353 18.051 5.178 17.282 C 6.189 16.343,6.348 16.256,6.740 16.435 " fill="#292D32" stroke="none" fill-rule="evenodd"></path></svg>