<svg width="24" height="24" viewBox="0 0 24 24" fill="none" xmlns="http://www.w3.org/2000/svg"><path d="M21.660 1.346 C 21.594 1.380,20.862 2.084,20.033 2.911 L 18.525 4.414 18.193 4.160 C 18.010 4.020,17.838 3.889,17.810 3.868 C 17.770 3.838,17.760 3.971,17.760 4.504 L 17.760 5.178 18.137 4.803 L 18.514 4.428 18.707 4.591 C 18.885 4.741,19.171 5.030,19.459 5.351 L 19.577 5.482 19.199 5.861 L 18.822 6.240 19.496 6.240 L 20.169 6.240 20.058 6.090 C 19.997 6.008,19.868 5.847,19.773 5.734 C 19.678 5.620,19.600 5.513,19.600 5.495 C 19.600 5.477,20.291 4.769,21.136 3.921 C 22.601 2.450,22.673 2.371,22.711 2.189 C 22.815 1.686,22.497 1.280,22.000 1.282 C 21.879 1.283,21.726 1.311,21.660 1.346 M11.300 2.024 C 9.536 2.205,8.190 2.631,6.870 3.426 C 4.628 4.776,3.006 6.932,2.342 9.443 C 2.101 10.351,2.026 10.964,2.026 12.000 C 2.026 12.726,2.043 13.008,2.113 13.460 C 2.450 15.630,3.409 17.532,4.939 19.061 C 6.468 20.591,8.370 21.550,10.540 21.887 C 11.338 22.011,12.662 22.011,13.460 21.887 C 15.630 21.550,17.532 20.591,19.061 19.061 C 20.591 17.531,21.552 15.627,21.887 13.460 C 21.991 12.790,22.010 11.420,21.925 10.800 C 21.799 9.884,21.486 8.743,21.165 8.030 L 21.043 7.760 18.952 7.759 C 17.004 7.758,16.849 7.753,16.700 7.684 C 16.506 7.595,16.384 7.468,16.302 7.271 C 16.249 7.143,16.240 6.829,16.240 5.040 L 16.240 2.957 15.970 2.835 C 15.280 2.524,14.208 2.223,13.340 2.097 C 12.945 2.040,11.611 1.992,11.300 2.024 M16.854 2.280 C 16.654 2.325,16.464 2.463,16.368 2.633 C 16.219 2.900,16.236 2.929,16.670 3.162 C 16.884 3.277,17.209 3.467,17.391 3.585 C 17.574 3.703,17.731 3.800,17.741 3.800 C 17.779 3.800,17.758 2.974,17.716 2.820 C 17.610 2.431,17.232 2.194,16.854 2.280 M20.200 6.256 C 20.200 6.265,20.306 6.441,20.436 6.647 C 20.566 6.854,20.750 7.179,20.845 7.371 C 20.992 7.667,21.033 7.720,21.115 7.720 C 21.242 7.720,21.531 7.550,21.611 7.428 C 21.901 6.985,21.669 6.393,21.162 6.284 C 20.971 6.243,20.200 6.220,20.200 6.256 M12.267 6.803 C 12.543 6.907,12.758 7.242,12.759 7.570 L 12.760 7.760 12.938 7.760 C 13.469 7.760,14.074 8.030,14.502 8.459 C 15.101 9.057,15.410 10.064,15.155 10.590 C 14.982 10.947,14.543 11.096,14.180 10.920 C 13.923 10.796,13.803 10.601,13.750 10.220 C 13.675 9.683,13.372 9.329,12.930 9.260 L 12.760 9.233 12.760 10.351 L 12.760 11.470 13.310 11.661 C 14.065 11.924,14.337 12.062,14.621 12.327 C 14.911 12.598,15.054 12.846,15.161 13.263 C 15.376 14.103,15.178 14.959,14.635 15.539 C 14.212 15.992,13.752 16.210,13.115 16.261 L 12.770 16.289 12.749 16.527 C 12.696 17.113,12.115 17.432,11.625 17.145 C 11.392 17.008,11.278 16.818,11.251 16.521 L 11.229 16.283 11.045 16.262 C 10.704 16.222,10.342 16.120,10.080 15.990 C 9.704 15.803,9.223 15.313,9.030 14.920 C 8.757 14.362,8.681 13.747,8.845 13.410 C 9.018 13.053,9.457 12.904,9.820 13.080 C 10.077 13.204,10.197 13.399,10.250 13.780 C 10.325 14.317,10.628 14.671,11.070 14.740 L 11.240 14.767 11.240 13.649 L 11.240 12.530 10.690 12.339 C 9.944 12.079,9.665 11.939,9.390 11.684 C 8.967 11.293,8.803 10.901,8.771 10.200 C 8.737 9.464,8.916 8.941,9.365 8.461 C 9.790 8.006,10.252 7.787,10.888 7.737 L 11.240 7.710 11.240 7.554 C 11.240 7.257,11.443 6.931,11.700 6.817 C 11.846 6.752,12.115 6.745,12.267 6.803 M10.805 9.280 C 10.417 9.372,10.185 9.814,10.274 10.292 C 10.294 10.398,10.351 10.528,10.400 10.580 C 10.477 10.662,11.087 10.920,11.202 10.920 C 11.225 10.920,11.240 10.582,11.240 10.080 L 11.240 9.240 11.090 9.244 C 11.008 9.246,10.879 9.263,10.805 9.280 M12.760 13.920 L 12.760 14.760 12.910 14.760 C 13.490 14.759,13.833 14.318,13.720 13.722 C 13.698 13.602,13.641 13.464,13.594 13.414 C 13.522 13.337,12.909 13.080,12.798 13.080 C 12.775 13.080,12.760 13.418,12.760 13.920 " fill="#292D32" stroke="none" fill-rule="evenodd"></path></svg>