<svg width="24" height="24" viewBox="0 0 24 24" fill="none" xmlns="http://www.w3.org/2000/svg"><path d="M14.299 1.112 C 13.636 1.341,13.169 1.872,13.041 2.540 C 13.009 2.707,12.999 3.365,13.009 4.700 C 13.022 6.556,13.025 6.628,13.109 6.851 C 13.285 7.318,13.569 7.597,14.042 7.766 C 14.299 7.859,14.309 7.859,16.693 7.872 C 18.270 7.881,19.185 7.870,19.373 7.842 C 19.952 7.755,20.438 7.390,20.689 6.854 C 20.797 6.623,20.816 6.530,20.832 6.173 C 20.842 5.946,20.862 5.760,20.877 5.760 C 20.891 5.760,21.136 5.924,21.421 6.123 C 22.145 6.630,22.240 6.682,22.455 6.686 C 22.671 6.691,22.809 6.613,22.909 6.430 C 22.973 6.312,22.981 6.135,22.992 4.530 C 23.004 2.617,22.995 2.509,22.800 2.314 C 22.709 2.222,22.651 2.200,22.506 2.200 C 22.247 2.200,22.170 2.238,21.535 2.682 C 21.221 2.901,20.937 3.092,20.902 3.105 C 20.849 3.125,20.840 3.078,20.840 2.771 C 20.840 2.252,20.717 1.927,20.384 1.566 C 20.203 1.370,19.949 1.206,19.693 1.118 C 19.479 1.044,19.340 1.040,16.984 1.041 C 14.733 1.042,14.481 1.049,14.299 1.112 M5.540 3.057 C 5.089 3.129,4.796 3.221,4.374 3.422 C 3.277 3.948,2.463 4.936,2.126 6.155 L 2.020 6.540 2.020 10.380 L 2.020 14.220 2.130 14.617 C 2.540 16.105,3.667 17.228,5.155 17.632 L 5.540 17.736 7.800 17.759 C 9.043 17.771,10.096 17.797,10.140 17.817 C 10.361 17.917,10.553 18.090,10.662 18.286 C 10.779 18.499,10.780 18.503,10.780 19.160 C 10.780 19.887,10.757 19.984,10.523 20.250 C 10.454 20.330,10.312 20.436,10.208 20.487 C 10.025 20.577,9.980 20.581,8.620 20.603 C 7.850 20.615,7.216 20.629,7.211 20.633 C 6.974 20.834,6.914 20.912,6.864 21.080 C 6.771 21.393,6.879 21.696,7.151 21.882 L 7.294 21.980 11.500 21.980 L 15.706 21.980 15.849 21.882 C 16.121 21.696,16.229 21.393,16.136 21.080 C 16.086 20.912,16.026 20.834,15.789 20.633 C 15.784 20.629,15.150 20.615,14.380 20.603 C 13.020 20.581,12.975 20.577,12.792 20.487 C 12.688 20.436,12.546 20.330,12.477 20.250 C 12.243 19.984,12.220 19.887,12.220 19.160 C 12.220 18.503,12.221 18.499,12.338 18.286 C 12.447 18.090,12.639 17.917,12.860 17.817 C 12.904 17.797,13.948 17.771,15.180 17.759 L 17.420 17.736 17.808 17.631 C 19.231 17.245,20.339 16.194,20.771 14.820 C 20.952 14.243,20.966 14.032,20.952 11.977 L 20.940 10.054 20.819 9.857 C 20.682 9.636,20.377 9.426,20.131 9.386 C 20.048 9.372,18.711 9.361,17.160 9.360 C 15.380 9.360,14.244 9.344,14.080 9.317 C 13.006 9.143,12.133 8.467,11.761 7.522 C 11.553 6.995,11.548 6.946,11.523 5.320 C 11.501 3.963,11.490 3.761,11.427 3.620 C 11.338 3.419,11.147 3.219,10.940 3.106 C 10.781 3.021,10.759 3.020,8.320 3.013 C 6.503 3.008,5.776 3.020,5.540 3.057 " fill="#292D32" stroke="none" fill-rule="evenodd"></path></svg>