<svg width="24" height="24" viewBox="0 0 24 24" fill="none" xmlns="http://www.w3.org/2000/svg"><path d="M5.638 2.043 C 5.223 2.098,4.698 2.267,4.283 2.481 C 3.027 3.126,2.204 4.330,2.040 5.760 C 1.989 6.202,1.989 12.504,2.040 12.980 C 2.249 14.946,3.757 16.479,5.719 16.719 C 5.905 16.741,6.837 16.760,7.789 16.760 L 9.521 16.760 9.510 18.670 L 9.500 20.580 8.400 20.600 C 7.140 20.623,7.097 20.633,6.927 20.961 C 6.737 21.330,6.888 21.759,7.266 21.927 C 7.429 21.999,7.526 22.004,8.611 21.992 C 9.725 21.981,9.788 21.976,9.944 21.892 C 10.134 21.790,10.347 21.562,10.425 21.374 C 10.471 21.265,10.480 20.435,10.480 16.511 C 10.480 13.468,10.496 11.617,10.523 11.324 C 10.581 10.708,10.721 10.177,10.945 9.722 C 11.098 9.411,11.192 9.283,11.476 8.998 C 11.845 8.627,12.140 8.439,12.625 8.267 C 13.317 8.021,13.196 8.028,16.880 8.003 C 20.240 7.980,20.261 7.979,20.421 7.894 C 20.839 7.670,20.968 7.409,20.992 6.740 C 21.023 5.835,20.894 5.079,20.600 4.450 C 20.033 3.239,19.036 2.433,17.680 2.090 C 17.445 2.031,16.855 2.024,11.660 2.017 C 8.492 2.013,5.782 2.025,5.638 2.043 M13.532 9.564 C 12.639 9.713,12.169 10.239,12.036 11.240 C 12.011 11.429,12.001 13.175,12.009 15.960 C 12.021 20.059,12.027 20.397,12.093 20.620 C 12.265 21.201,12.481 21.504,12.869 21.711 C 13.386 21.985,13.237 21.974,16.812 21.990 C 19.618 22.002,20.093 21.995,20.412 21.940 C 21.270 21.793,21.686 21.421,21.909 20.600 C 21.975 20.358,21.980 20.013,21.980 15.740 C 21.980 11.458,21.975 11.122,21.909 10.880 C 21.751 10.301,21.491 9.957,21.057 9.753 C 20.568 9.523,20.500 9.520,16.966 9.525 C 15.192 9.527,13.646 9.545,13.532 9.564 M18.189 18.286 C 18.738 18.425,18.922 19.118,18.516 19.524 C 18.288 19.752,18.181 19.767,16.906 19.753 C 15.809 19.740,15.776 19.738,15.631 19.647 C 15.330 19.460,15.203 19.162,15.282 18.831 C 15.341 18.584,15.560 18.349,15.785 18.289 C 16.006 18.231,17.958 18.228,18.189 18.286 " fill="#292D32" stroke="none" fill-rule="evenodd"></path></svg>