<svg width="24" height="24" viewBox="0 0 24 24" fill="none" xmlns="http://www.w3.org/2000/svg"><path d="M5.720 2.061 C 4.502 2.254,3.412 2.960,2.726 4.000 C 2.449 4.420,2.277 4.809,2.126 5.357 L 2.020 5.740 2.020 9.760 L 2.020 13.780 2.126 14.163 C 2.357 14.997,2.732 15.658,3.291 16.216 C 3.867 16.790,4.528 17.167,5.357 17.392 L 5.740 17.496 8.140 17.518 C 10.305 17.538,10.552 17.547,10.665 17.609 C 10.892 17.733,11.050 17.894,11.145 18.098 C 11.233 18.286,11.239 18.349,11.239 19.000 C 11.239 19.649,11.232 19.715,11.146 19.900 C 11.050 20.106,10.831 20.330,10.646 20.412 C 10.575 20.443,10.062 20.465,9.080 20.479 C 7.505 20.502,7.502 20.502,7.292 20.727 C 7.175 20.852,7.080 21.086,7.080 21.250 C 7.080 21.436,7.232 21.713,7.414 21.858 L 7.567 21.980 11.997 21.980 L 16.427 21.980 16.592 21.866 C 16.892 21.658,17.008 21.224,16.846 20.920 C 16.805 20.844,16.704 20.728,16.622 20.661 L 16.473 20.540 15.006 20.520 C 13.386 20.497,13.364 20.494,13.086 20.228 C 12.802 19.956,12.780 19.867,12.780 19.020 C 12.780 18.319,12.787 18.248,12.866 18.099 C 12.975 17.895,13.135 17.735,13.339 17.626 C 13.497 17.542,13.542 17.540,15.900 17.518 C 18.543 17.494,18.433 17.504,19.179 17.222 C 20.373 16.771,21.352 15.733,21.758 14.486 C 21.983 13.794,21.980 13.854,21.980 9.760 C 21.980 6.282,21.974 5.952,21.908 5.628 C 21.658 4.399,20.968 3.376,19.942 2.712 C 19.525 2.443,19.140 2.274,18.603 2.126 L 18.220 2.021 12.140 2.014 C 7.211 2.008,5.996 2.017,5.720 2.061 " fill="#292D32" stroke="none" fill-rule="evenodd"></path></svg>