<svg width="24" height="24" viewBox="0 0 24 24" fill="none" xmlns="http://www.w3.org/2000/svg"><path d="M9.280 2.025 C 8.622 2.149,7.337 2.817,6.409 3.517 C 4.177 5.200,2.737 7.695,2.380 10.492 C 2.301 11.112,2.302 12.336,2.381 12.948 C 2.613 14.728,3.296 16.361,4.435 17.860 C 4.805 18.348,5.817 19.371,6.280 19.727 C 7.859 20.941,9.529 21.645,11.440 21.905 C 12.194 22.008,13.490 21.998,14.234 21.885 C 16.129 21.595,17.902 20.824,19.360 19.654 C 20.113 19.050,21.093 17.970,21.414 17.391 C 21.663 16.941,21.740 16.508,21.632 16.151 C 21.565 15.924,21.284 15.629,21.031 15.518 C 20.746 15.393,20.220 15.368,19.706 15.456 C 18.587 15.647,17.391 15.605,16.317 15.337 C 15.189 15.057,14.126 14.552,13.227 13.872 C 12.819 13.562,12.070 12.837,11.749 12.440 C 11.146 11.696,10.615 10.734,10.321 9.854 C 10.028 8.976,9.920 8.289,9.920 7.301 C 9.920 6.291,10.095 5.309,10.425 4.466 C 10.801 3.505,10.855 3.221,10.739 2.808 C 10.603 2.322,10.216 2.038,9.660 2.017 C 9.506 2.011,9.335 2.015,9.280 2.025 " fill="#292D32" stroke="none" fill-rule="evenodd"></path></svg>