<svg width="24" height="24" viewBox="0 0 24 24" fill="none" xmlns="http://www.w3.org/2000/svg"><path d="M6.960 2.046 C 6.236 2.116,5.358 2.357,4.796 2.641 C 4.426 2.828,3.928 3.183,3.624 3.475 C 2.737 4.332,2.251 5.370,2.062 6.812 C 1.970 7.515,1.969 16.481,2.061 17.188 C 2.239 18.550,2.681 19.544,3.476 20.372 C 4.162 21.084,4.935 21.524,5.956 21.780 C 6.817 21.997,6.896 22.000,11.993 22.000 C 14.960 22.000,16.828 21.985,17.041 21.959 C 19.985 21.603,21.695 19.840,21.962 16.885 C 21.990 16.579,21.999 14.787,21.989 11.660 C 21.974 7.001,21.972 6.891,21.889 6.456 C 21.642 5.171,21.165 4.235,20.369 3.478 C 19.583 2.729,18.652 2.295,17.359 2.076 C 16.995 2.014,7.572 1.987,6.960 2.046 M8.340 11.066 C 8.837 11.235,9.116 11.821,8.939 12.322 C 8.854 12.563,8.709 12.740,8.489 12.869 C 8.328 12.964,8.256 12.980,8.000 12.980 C 7.744 12.980,7.672 12.964,7.511 12.869 C 6.466 12.255,7.193 10.675,8.340 11.066 M12.340 11.066 C 12.837 11.235,13.116 11.821,12.939 12.322 C 12.854 12.563,12.709 12.740,12.489 12.869 C 12.328 12.964,12.256 12.980,12.000 12.980 C 11.744 12.980,11.672 12.964,11.511 12.869 C 10.466 12.255,11.193 10.675,12.340 11.066 M16.340 11.066 C 16.837 11.235,17.116 11.821,16.939 12.322 C 16.854 12.563,16.709 12.740,16.489 12.869 C 16.328 12.964,16.256 12.980,16.000 12.980 C 15.744 12.980,15.672 12.964,15.511 12.869 C 14.466 12.255,15.193 10.675,16.340 11.066 " fill="#292D32" stroke="none" fill-rule="evenodd"></path></svg>