<svg width="24" height="24" viewBox="0 0 24 24" fill="none" xmlns="http://www.w3.org/2000/svg"><path d="M6.960 2.046 C 6.223 2.117,5.358 2.357,4.774 2.653 C 4.332 2.877,3.848 3.242,3.477 3.632 C 2.866 4.273,2.465 5.010,2.237 5.907 C 2.016 6.778,2.020 6.667,2.020 12.040 C 2.020 17.509,2.010 17.258,2.264 18.197 C 2.751 19.994,4.086 21.300,5.907 21.763 C 6.778 21.984,6.667 21.980,12.040 21.980 C 17.006 21.980,17.021 21.980,17.506 21.892 C 20.199 21.401,21.742 19.637,21.959 16.800 C 22.014 16.074,22.014 7.862,21.958 7.180 C 21.826 5.552,21.328 4.391,20.369 3.478 C 19.583 2.729,18.652 2.295,17.359 2.076 C 16.995 2.014,7.572 1.987,6.960 2.046 M12.542 7.816 C 13.365 8.192,13.560 9.280,12.920 9.920 C 12.410 10.430,11.590 10.430,11.080 9.920 C 10.825 9.665,10.703 9.366,10.703 9.000 C 10.705 8.041,11.673 7.418,12.542 7.816 M8.839 13.803 C 9.113 13.921,9.449 14.287,9.543 14.568 C 9.697 15.033,9.600 15.503,9.274 15.859 C 8.991 16.168,8.711 16.298,8.320 16.299 C 8.059 16.300,7.983 16.282,7.751 16.168 C 6.655 15.629,6.791 14.122,7.971 13.736 C 8.194 13.663,8.582 13.693,8.839 13.803 M16.276 13.847 C 17.251 14.346,17.236 15.683,16.249 16.168 C 16.016 16.283,15.943 16.300,15.681 16.297 C 15.273 16.294,15.027 16.183,14.743 15.877 C 14.266 15.361,14.260 14.651,14.729 14.137 C 15.162 13.665,15.715 13.561,16.276 13.847 " fill="#292D32" stroke="none" fill-rule="evenodd"></path></svg>