<svg width="24" height="24" viewBox="0 0 24 24" fill="none" xmlns="http://www.w3.org/2000/svg"><path d="M11.120 2.039 C 8.192 2.332,5.648 3.774,3.923 6.119 C 2.041 8.678,1.501 12.071,2.496 15.094 C 3.849 19.205,7.695 22.000,12.000 22.000 C 17.491 22.000,22.000 17.491,22.000 12.000 C 22.000 7.433,18.865 3.424,14.417 2.302 C 13.472 2.064,12.026 1.949,11.120 2.039 M8.340 11.066 C 8.837 11.235,9.116 11.821,8.939 12.322 C 8.854 12.563,8.709 12.740,8.489 12.869 C 8.328 12.964,8.256 12.980,8.000 12.980 C 7.744 12.980,7.672 12.964,7.511 12.869 C 6.466 12.255,7.193 10.675,8.340 11.066 M12.340 11.066 C 12.837 11.235,13.116 11.821,12.939 12.322 C 12.854 12.563,12.709 12.740,12.489 12.869 C 12.328 12.964,12.256 12.980,12.000 12.980 C 11.744 12.980,11.672 12.964,11.511 12.869 C 10.466 12.255,11.193 10.675,12.340 11.066 M16.340 11.066 C 16.837 11.235,17.116 11.821,16.939 12.322 C 16.854 12.563,16.709 12.740,16.489 12.869 C 16.328 12.964,16.256 12.980,16.000 12.980 C 15.744 12.980,15.672 12.964,15.511 12.869 C 14.466 12.255,15.193 10.675,16.340 11.066 " fill="#292D32" stroke="none" fill-rule="evenodd"></path></svg>