<svg width="24" height="24" viewBox="0 0 24 24" fill="none" xmlns="http://www.w3.org/2000/svg"><path d="M6.721 2.043 C 4.084 2.304,2.408 3.927,2.058 6.559 C 1.975 7.177,1.975 15.823,2.058 16.441 C 2.236 17.784,2.735 18.837,3.563 19.620 C 4.173 20.196,4.867 20.562,5.809 20.802 C 6.534 20.987,6.781 20.998,10.244 20.999 L 13.508 21.000 13.644 20.909 C 13.730 20.851,13.801 20.757,13.837 20.654 C 13.893 20.492,13.890 20.481,13.268 18.476 C 12.925 17.367,12.616 16.343,12.582 16.200 C 12.502 15.860,12.503 15.230,12.584 14.868 C 12.773 14.020,13.372 13.251,14.140 12.868 C 14.535 12.671,14.747 12.607,15.180 12.554 C 15.777 12.480,15.982 12.526,18.300 13.247 C 19.444 13.603,20.444 13.893,20.523 13.892 C 20.706 13.890,20.856 13.792,20.937 13.622 C 20.993 13.503,21.000 13.123,20.999 10.234 C 20.999 7.674,20.986 6.890,20.942 6.559 C 20.646 4.333,19.408 2.823,17.420 2.262 C 16.545 2.016,16.811 2.027,11.720 2.018 C 9.157 2.013,6.908 2.024,6.721 2.043 M14.960 14.128 C 14.803 14.189,14.665 14.288,14.476 14.476 C 14.145 14.808,14.030 15.076,14.028 15.520 C 14.026 15.801,14.087 16.015,14.996 18.938 C 15.530 20.653,16.003 22.127,16.047 22.214 C 16.171 22.456,16.453 22.734,16.709 22.863 C 16.923 22.971,16.973 22.980,17.380 22.980 C 17.784 22.980,17.838 22.971,18.040 22.867 C 18.298 22.735,18.529 22.524,18.661 22.300 C 18.713 22.212,18.909 21.693,19.097 21.146 C 19.285 20.600,19.475 20.093,19.519 20.021 C 19.628 19.846,19.916 19.584,20.106 19.488 C 20.191 19.445,20.689 19.264,21.212 19.085 C 22.210 18.745,22.406 18.646,22.656 18.354 C 22.879 18.093,22.974 17.805,22.977 17.380 C 22.979 17.056,22.967 16.993,22.854 16.754 C 22.707 16.443,22.482 16.203,22.208 16.064 C 22.101 16.010,20.618 15.532,18.913 15.003 C 15.943 14.081,15.799 14.040,15.496 14.042 C 15.275 14.044,15.114 14.070,14.960 14.128 " fill="#292D32" stroke="none" fill-rule="evenodd"></path></svg>