<svg width="24" height="24" viewBox="0 0 24 24" fill="none" xmlns="http://www.w3.org/2000/svg"><path d="M10.820 2.023 C 10.754 2.032,10.529 2.060,10.320 2.083 C 8.298 2.314,6.185 3.380,4.717 4.908 C 2.170 7.560,1.356 11.185,2.534 14.626 C 3.278 16.799,4.869 18.683,6.916 19.815 C 8.504 20.694,10.440 21.113,12.217 20.964 C 12.528 20.937,12.830 20.891,12.899 20.858 C 13.049 20.787,13.160 20.612,13.160 20.447 C 13.160 20.380,12.825 19.249,12.416 17.933 C 11.509 15.012,11.520 15.055,11.520 14.540 C 11.520 12.921,12.756 11.622,14.380 11.534 C 14.665 11.518,14.865 11.530,15.075 11.575 C 15.237 11.609,16.479 11.984,17.835 12.406 C 19.191 12.829,20.367 13.176,20.448 13.177 C 20.616 13.178,20.793 13.067,20.869 12.913 C 20.946 12.756,21.013 11.719,20.984 11.120 C 20.820 7.728,19.009 4.807,16.051 3.166 C 15.123 2.651,14.016 2.282,12.852 2.099 C 12.477 2.040,11.071 1.988,10.820 2.023 M13.968 13.131 C 13.570 13.298,13.247 13.634,13.095 14.040 C 13.053 14.154,13.028 14.338,13.028 14.540 C 13.028 14.846,13.070 14.995,13.994 17.951 C 14.525 19.651,15.003 21.127,15.056 21.232 C 15.173 21.463,15.503 21.779,15.731 21.880 C 16.315 22.136,16.953 22.034,17.403 21.614 C 17.670 21.364,17.739 21.221,18.095 20.170 C 18.428 19.188,18.500 19.027,18.708 18.796 C 18.928 18.553,19.098 18.472,20.140 18.118 C 20.668 17.939,21.173 17.750,21.262 17.699 C 21.487 17.570,21.748 17.275,21.867 17.017 C 22.206 16.276,21.854 15.325,21.127 15.013 C 21.054 14.982,19.605 14.525,17.908 13.998 C 14.946 13.078,14.810 13.040,14.501 13.041 C 14.262 13.042,14.126 13.065,13.968 13.131 " fill="#292D32" stroke="none" fill-rule="evenodd"></path></svg>