<svg width="24" height="24" viewBox="0 0 24 24" fill="none" xmlns="http://www.w3.org/2000/svg"><path d="M11.120 2.039 C 8.336 2.318,5.905 3.624,4.193 5.760 C 1.474 9.155,1.267 13.917,3.682 17.533 C 6.770 22.155,12.946 23.386,17.560 20.299 C 22.155 17.225,23.377 11.041,20.299 6.440 C 18.728 4.092,16.319 2.562,13.493 2.119 C 12.909 2.027,11.660 1.985,11.120 2.039 M12.976 8.793 C 14.756 9.347,16.289 9.836,16.383 9.881 C 16.678 10.024,16.906 10.260,17.069 10.591 C 17.214 10.883,17.220 10.912,17.219 11.298 C 17.217 11.621,17.199 11.745,17.126 11.930 C 17.014 12.211,16.716 12.546,16.448 12.692 C 16.338 12.751,15.792 12.953,15.234 13.141 C 13.687 13.660,13.656 13.691,13.177 15.133 C 12.797 16.276,12.697 16.502,12.458 16.758 C 12.173 17.062,11.840 17.212,11.399 17.233 C 10.719 17.265,10.179 16.960,9.890 16.380 C 9.737 16.075,7.791 9.724,7.770 9.464 C 7.732 8.991,7.917 8.523,8.275 8.189 C 8.624 7.862,8.915 7.755,9.400 7.774 C 9.714 7.787,9.991 7.866,12.976 8.793 " fill="#292D32" stroke="none" fill-rule="evenodd"></path></svg>