<svg width="24" height="24" viewBox="0 0 24 24" fill="none" xmlns="http://www.w3.org/2000/svg"><path d="M10.292 2.201 C 8.934 2.508,7.524 3.319,6.560 4.350 C 5.337 5.656,4.657 7.208,4.521 9.000 C 4.468 9.703,4.468 14.301,4.521 15.000 C 4.702 17.374,5.880 19.401,7.854 20.737 C 10.031 22.211,12.872 22.404,15.266 21.240 C 17.237 20.282,18.733 18.459,19.258 16.375 C 19.487 15.469,19.491 15.401,19.510 12.400 C 19.528 9.479,19.505 8.818,19.360 8.072 C 19.042 6.428,18.141 4.888,16.867 3.806 C 15.962 3.038,14.781 2.440,13.690 2.199 C 13.194 2.089,13.069 2.095,12.911 2.237 L 12.780 2.353 12.769 4.001 L 12.757 5.650 13.153 6.035 C 13.610 6.481,13.774 6.765,13.839 7.220 C 13.890 7.584,13.890 9.419,13.839 9.776 C 13.648 11.091,12.182 11.783,11.023 11.104 C 10.626 10.871,10.252 10.325,10.161 9.844 C 10.094 9.490,10.108 7.342,10.180 7.068 C 10.287 6.654,10.423 6.444,10.845 6.036 L 11.243 5.652 11.231 4.003 L 11.220 2.353 11.089 2.237 C 10.933 2.097,10.783 2.090,10.292 2.201 " fill="#292D32" stroke="none" fill-rule="evenodd"></path></svg>