<svg width="24" height="24" viewBox="0 0 24 24" fill="none" xmlns="http://www.w3.org/2000/svg"><path d="M9.140 1.797 C 8.733 1.899,8.337 2.234,8.144 2.640 L 8.020 2.900 8.007 3.830 L 7.995 4.760 7.366 4.760 C 6.425 4.760,6.087 4.874,5.596 5.359 C 5.221 5.730,5.000 6.237,5.000 6.725 C 5.000 6.859,5.011 6.882,5.070 6.864 C 5.378 6.771,6.067 6.761,12.000 6.761 C 17.933 6.761,18.622 6.771,18.930 6.864 C 18.989 6.882,19.000 6.859,19.000 6.725 C 19.000 6.237,18.779 5.730,18.404 5.359 C 17.913 4.874,17.575 4.760,16.634 4.760 L 16.005 4.760 15.993 3.830 L 15.980 2.900 15.856 2.640 C 15.705 2.323,15.463 2.074,15.142 1.906 L 14.900 1.780 12.080 1.773 C 10.529 1.770,9.206 1.780,9.140 1.797 M5.720 8.265 C 5.122 8.323,4.647 8.465,4.136 8.737 C 3.108 9.283,2.405 10.189,2.110 11.346 L 2.020 11.700 2.020 15.240 C 2.020 18.543,2.025 18.801,2.094 19.100 C 2.461 20.684,3.732 21.905,5.300 22.179 C 5.823 22.270,18.171 22.271,18.694 22.180 C 20.267 21.906,21.539 20.686,21.906 19.100 C 21.975 18.801,21.980 18.543,21.980 15.240 L 21.980 11.700 21.890 11.346 C 21.499 9.810,20.393 8.732,18.800 8.330 C 18.565 8.271,17.924 8.264,12.200 8.258 C 8.713 8.255,5.797 8.258,5.720 8.265 M15.054 10.591 C 15.531 10.814,15.851 11.250,15.956 11.818 C 16.017 12.147,16.017 17.636,15.956 17.928 C 15.876 18.309,15.691 18.636,15.384 18.941 C 14.937 19.383,14.517 19.560,13.919 19.560 C 13.032 19.560,12.223 18.969,11.957 18.126 C 11.842 17.762,11.842 17.238,11.957 16.874 C 12.223 16.031,13.032 15.440,13.918 15.440 C 14.084 15.440,14.279 15.457,14.350 15.477 L 14.480 15.514 14.480 14.897 C 14.480 14.558,14.469 14.280,14.456 14.280 C 14.443 14.280,13.697 14.481,12.799 14.726 L 11.166 15.171 11.151 16.956 C 11.137 18.662,11.132 18.751,11.049 19.003 C 10.643 20.223,9.306 20.798,8.173 20.240 C 7.310 19.815,6.850 18.883,7.044 17.952 C 7.196 17.224,7.820 16.569,8.542 16.381 C 8.800 16.314,9.255 16.302,9.490 16.357 L 9.640 16.392 9.640 14.638 C 9.640 13.485,9.656 12.811,9.685 12.672 C 9.814 12.066,10.268 11.529,10.815 11.334 C 11.001 11.268,13.653 10.532,13.900 10.479 C 13.988 10.459,14.225 10.449,14.426 10.456 C 14.735 10.466,14.832 10.487,15.054 10.591 M13.740 16.980 C 13.230 17.162,13.251 17.889,13.770 18.032 C 14.142 18.135,14.480 17.878,14.480 17.492 C 14.479 17.105,14.108 16.848,13.740 16.980 M8.898 17.842 C 8.466 17.969,8.389 18.608,8.777 18.861 C 8.832 18.898,8.956 18.928,9.054 18.930 C 9.511 18.937,9.787 18.442,9.537 18.061 C 9.416 17.876,9.123 17.776,8.898 17.842 " fill="#292D32" stroke="none" fill-rule="evenodd"></path></svg>