<svg width="24" height="24" viewBox="0 0 24 24" fill="none" xmlns="http://www.w3.org/2000/svg"><path d="M13.320 1.268 C 13.265 1.277,13.130 1.313,13.020 1.348 C 12.165 1.619,11.588 2.246,11.307 3.211 C 11.224 3.497,11.223 3.548,11.210 9.011 L 11.198 14.521 10.921 14.298 C 9.045 12.782,6.337 12.936,4.616 14.656 C 3.703 15.570,3.227 16.716,3.227 18.000 C 3.227 21.080,6.161 23.369,9.128 22.604 C 10.673 22.205,11.950 21.035,12.455 19.554 C 12.711 18.804,12.694 19.206,12.709 13.486 C 12.721 8.886,12.729 8.275,12.782 8.295 C 12.815 8.308,14.092 8.731,15.619 9.236 C 17.370 9.815,18.513 10.172,18.709 10.202 C 19.955 10.392,21.097 9.726,21.521 8.564 C 21.699 8.074,21.731 7.763,21.710 6.698 C 21.694 5.868,21.680 5.701,21.605 5.447 C 21.297 4.407,20.568 3.507,19.660 3.050 C 19.347 2.892,14.893 1.390,14.467 1.298 C 14.218 1.245,13.561 1.227,13.320 1.268 " fill="#292D32" stroke="none" fill-rule="evenodd"></path></svg>