<svg width="24" height="24" viewBox="0 0 24 24" fill="none" xmlns="http://www.w3.org/2000/svg"><path d="M17.740 2.027 C 17.674 2.036,17.494 2.068,17.340 2.099 C 16.967 2.173,11.103 3.776,10.846 3.874 C 10.435 4.030,10.102 4.251,9.755 4.596 C 9.466 4.885,9.381 5.001,9.227 5.320 C 8.880 6.037,8.905 5.623,8.890 10.890 C 8.883 13.459,8.868 15.560,8.856 15.560 C 8.844 15.560,8.777 15.517,8.707 15.464 C 8.499 15.308,7.946 15.048,7.633 14.959 C 7.252 14.851,6.544 14.812,6.139 14.878 C 5.353 15.004,4.675 15.363,4.118 15.946 C 3.692 16.391,3.463 16.777,3.257 17.400 C 3.153 17.714,3.144 17.788,3.142 18.380 C 3.140 19.112,3.202 19.406,3.479 19.980 C 4.224 21.523,6.026 22.334,7.657 21.860 C 8.297 21.674,8.763 21.401,9.224 20.943 C 9.733 20.437,10.072 19.811,10.216 19.112 C 10.272 18.841,10.280 18.282,10.280 14.580 C 10.280 10.596,10.284 10.356,10.350 10.330 C 10.388 10.315,12.454 9.724,14.940 9.017 L 19.460 7.731 19.470 9.206 C 19.476 10.016,19.476 11.345,19.470 12.158 L 19.460 13.636 19.280 13.513 C 19.034 13.344,18.510 13.101,18.220 13.020 C 17.856 12.919,16.975 12.895,16.587 12.975 C 15.284 13.244,14.208 14.241,13.839 15.520 C 13.716 15.948,13.687 16.712,13.778 17.163 C 14.054 18.539,15.098 19.628,16.468 19.968 C 16.957 20.090,17.643 20.090,18.132 19.968 C 19.493 19.630,20.539 18.549,20.817 17.192 C 20.873 16.919,20.880 16.185,20.880 10.767 C 20.880 4.126,20.886 4.314,20.660 3.688 C 20.506 3.261,20.371 3.046,20.058 2.731 C 19.575 2.245,18.922 1.996,18.160 2.007 C 17.995 2.010,17.806 2.019,17.740 2.027 " fill="#292D32" stroke="none" fill-rule="evenodd"></path></svg>