<svg width="24" height="24" viewBox="0 0 24 24" fill="none" xmlns="http://www.w3.org/2000/svg"><path d="M1.785 2.289 C 1.578 2.344,1.337 2.590,1.279 2.804 C 1.193 3.122,1.334 3.463,1.627 3.645 L 1.780 3.740 12.003 3.740 L 22.226 3.740 22.388 3.633 C 22.627 3.475,22.739 3.270,22.739 2.993 C 22.739 2.804,22.718 2.736,22.619 2.596 C 22.554 2.503,22.428 2.390,22.340 2.344 L 22.180 2.260 12.060 2.254 C 5.221 2.250,1.890 2.261,1.785 2.289 M20.160 7.289 C 19.745 7.324,15.077 8.578,14.700 8.755 C 14.172 9.004,13.760 9.415,13.516 9.936 C 13.281 10.438,13.281 10.435,13.281 14.006 L 13.280 17.271 12.970 17.137 C 11.402 16.460,9.608 17.286,9.052 18.940 C 8.956 19.227,8.945 19.318,8.945 19.820 C 8.945 20.320,8.956 20.414,9.051 20.700 C 9.207 21.168,9.415 21.497,9.799 21.881 C 10.377 22.459,11.019 22.725,11.840 22.725 C 13.132 22.725,14.202 21.949,14.630 20.700 L 14.740 20.380 14.751 17.276 L 14.763 14.172 14.911 14.128 C 14.993 14.103,16.419 13.713,18.080 13.260 C 19.741 12.808,21.132 12.428,21.170 12.416 C 21.236 12.396,21.240 12.494,21.240 14.102 C 21.240 15.452,21.230 15.804,21.190 15.787 C 21.163 15.775,21.005 15.712,20.840 15.647 C 19.744 15.215,18.507 15.503,17.686 16.380 C 16.621 17.519,16.651 19.328,17.754 20.430 C 18.310 20.987,19.022 21.279,19.820 21.279 C 20.290 21.279,20.666 21.196,21.060 21.006 C 22.029 20.539,22.607 19.716,22.723 18.640 C 22.750 18.394,22.759 16.683,22.749 13.780 C 22.732 8.768,22.747 9.041,22.441 8.417 C 22.027 7.572,21.265 7.195,20.160 7.289 M1.807 8.287 C 1.568 8.341,1.341 8.572,1.289 8.816 C 1.196 9.250,1.432 9.631,1.847 9.717 C 1.998 9.749,3.395 9.758,6.620 9.751 L 11.180 9.740 11.359 9.639 C 11.702 9.448,11.829 9.010,11.646 8.651 C 11.544 8.452,11.391 8.337,11.156 8.283 C 10.923 8.229,2.049 8.233,1.807 8.287 M1.807 14.287 C 1.568 14.341,1.341 14.572,1.289 14.816 C 1.196 15.251,1.432 15.631,1.849 15.718 C 2.000 15.749,2.980 15.759,5.122 15.751 L 8.180 15.740 8.359 15.639 C 8.702 15.448,8.829 15.010,8.646 14.651 C 8.544 14.452,8.391 14.337,8.156 14.283 C 7.925 14.229,2.047 14.234,1.807 14.287 M20.088 16.965 C 20.398 17.031,20.637 17.165,20.854 17.397 C 21.145 17.709,21.219 17.904,21.220 18.361 C 21.220 18.711,21.209 18.763,21.088 19.009 C 20.938 19.314,20.726 19.519,20.400 19.675 C 20.213 19.764,20.126 19.780,19.820 19.780 C 19.514 19.780,19.427 19.764,19.240 19.675 C 18.914 19.519,18.702 19.314,18.552 19.009 C 18.431 18.763,18.420 18.711,18.420 18.361 C 18.421 17.904,18.495 17.709,18.786 17.398 C 19.000 17.169,19.201 17.050,19.500 16.976 C 19.759 16.912,19.832 16.911,20.088 16.965 M12.363 18.494 C 12.804 18.675,13.108 19.022,13.223 19.479 C 13.387 20.122,13.051 20.824,12.440 21.115 C 12.250 21.206,12.168 21.220,11.840 21.220 C 11.512 21.220,11.430 21.206,11.240 21.115 C 10.807 20.909,10.472 20.438,10.417 19.959 C 10.366 19.519,10.591 18.983,10.946 18.703 C 11.333 18.396,11.917 18.310,12.363 18.494 M1.807 20.287 C 1.275 20.406,1.085 21.125,1.481 21.521 C 1.719 21.759,1.792 21.765,4.125 21.752 L 6.180 21.740 6.359 21.639 C 6.702 21.448,6.829 21.010,6.646 20.651 C 6.544 20.452,6.391 20.337,6.156 20.283 C 5.928 20.230,2.044 20.234,1.807 20.287 " fill="#292D32" stroke="none" fill-rule="evenodd"></path></svg>