<svg width="24" height="24" viewBox="0 0 24 24" fill="none" xmlns="http://www.w3.org/2000/svg"><path d="M6.799 2.079 C 5.338 2.275,4.309 2.756,3.465 3.639 C 2.642 4.501,2.178 5.618,2.042 7.060 C 1.985 7.655,1.985 16.345,2.042 16.940 C 2.178 18.382,2.642 19.499,3.465 20.361 C 4.322 21.257,5.335 21.727,6.832 21.921 C 7.395 21.994,7.684 22.000,10.524 22.000 C 13.886 22.000,13.743 22.010,13.912 21.771 C 14.065 21.554,14.059 21.444,13.864 20.872 C 13.603 20.104,13.511 19.611,13.510 18.980 C 13.508 16.929,14.666 15.047,16.506 14.110 C 17.930 13.384,19.563 13.305,21.040 13.889 C 21.475 14.061,21.738 14.007,21.923 13.708 C 22.001 13.582,22.002 13.515,21.988 10.240 C 21.973 7.042,21.969 6.881,21.888 6.456 C 21.657 5.243,21.212 4.333,20.485 3.586 C 19.747 2.829,18.795 2.351,17.544 2.111 C 17.108 2.027,17.014 2.026,12.220 2.016 C 7.695 2.007,7.301 2.011,6.799 2.079 M13.447 5.107 C 13.932 5.336,14.230 5.708,14.389 6.285 C 14.454 6.519,14.460 6.812,14.460 9.880 C 14.460 13.039,14.456 13.232,14.385 13.440 C 14.122 14.213,13.559 14.769,12.823 14.981 C 12.508 15.072,11.971 15.073,11.660 14.983 C 10.875 14.755,10.258 14.133,10.060 13.372 C 9.983 13.079,9.983 12.561,10.060 12.268 C 10.258 11.507,10.875 10.885,11.660 10.657 C 11.954 10.572,12.503 10.570,12.770 10.653 L 12.960 10.712 12.960 9.876 C 12.960 9.416,12.956 9.040,12.950 9.041 C 12.945 9.041,12.058 9.283,10.980 9.577 L 9.020 10.112 8.998 12.186 C 8.982 13.730,8.963 14.301,8.924 14.420 C 8.389 16.064,6.382 16.577,5.182 15.378 C 4.302 14.498,4.304 13.107,5.185 12.225 C 5.781 11.629,6.606 11.421,7.407 11.663 C 7.470 11.682,7.476 11.529,7.489 9.552 C 7.502 7.639,7.511 7.397,7.575 7.200 C 7.763 6.623,8.227 6.130,8.762 5.939 C 8.897 5.890,10.710 5.386,12.180 4.987 C 12.224 4.975,12.467 4.969,12.720 4.973 C 13.144 4.980,13.201 4.991,13.447 5.107 M11.889 12.165 C 11.654 12.281,11.502 12.542,11.506 12.820 C 11.512 13.245,11.801 13.531,12.223 13.531 C 12.601 13.531,12.909 13.266,12.950 12.905 C 13.016 12.312,12.425 11.899,11.889 12.165 M6.384 13.175 C 5.815 13.520,5.984 14.421,6.635 14.508 C 6.877 14.541,7.066 14.490,7.227 14.349 C 7.488 14.119,7.553 13.776,7.396 13.452 C 7.226 13.101,6.731 12.965,6.384 13.175 M18.540 15.024 C 16.847 15.275,15.576 16.379,15.132 17.983 C 15.035 18.334,15.022 18.449,15.022 18.980 C 15.022 19.694,15.104 20.080,15.383 20.674 C 15.913 21.802,16.888 22.597,18.120 22.905 C 18.537 23.009,19.414 23.009,19.860 22.905 C 21.467 22.530,22.656 21.271,22.941 19.645 C 23.295 17.624,21.962 15.612,19.940 15.116 C 19.629 15.040,18.801 14.985,18.540 15.024 M18.259 17.257 C 18.334 17.288,18.536 17.449,18.707 17.613 L 19.019 17.912 19.344 17.601 C 19.611 17.344,19.702 17.282,19.854 17.249 C 20.426 17.127,20.873 17.574,20.751 18.146 C 20.718 18.298,20.656 18.389,20.399 18.656 L 20.088 18.981 20.387 19.293 C 20.719 19.639,20.800 19.790,20.800 20.060 C 20.800 20.370,20.634 20.620,20.350 20.738 C 20.007 20.882,19.770 20.800,19.340 20.393 L 18.999 20.070 18.645 20.410 C 18.349 20.696,18.262 20.757,18.105 20.791 C 17.815 20.853,17.593 20.785,17.393 20.573 C 17.255 20.428,17.200 20.280,17.200 20.055 C 17.200 19.807,17.281 19.669,17.631 19.313 L 17.933 19.005 17.630 18.683 C 17.278 18.309,17.176 18.097,17.217 17.825 C 17.289 17.344,17.800 17.065,18.259 17.257 " fill="#292D32" stroke="none" fill-rule="evenodd"></path></svg>