<svg width="24" height="24" viewBox="0 0 24 24" fill="none" xmlns="http://www.w3.org/2000/svg"><path d="M6.991 2.044 C 6.252 2.117,5.350 2.362,4.800 2.640 C 4.372 2.856,3.859 3.234,3.515 3.586 C 2.777 4.344,2.333 5.262,2.108 6.497 C 2.020 6.978,2.020 7.001,2.020 12.000 C 2.020 16.999,2.020 17.022,2.108 17.503 C 2.338 18.764,2.786 19.676,3.555 20.445 C 4.324 21.214,5.236 21.662,6.497 21.892 C 6.978 21.980,7.001 21.980,12.000 21.980 L 17.020 21.980 17.515 21.890 C 18.730 21.669,19.674 21.205,20.424 20.461 C 21.225 19.667,21.709 18.645,21.909 17.326 C 21.974 16.900,21.980 16.449,21.980 12.020 C 21.980 6.785,21.981 6.812,21.761 5.939 C 21.514 4.958,21.135 4.265,20.480 3.597 C 19.698 2.799,18.826 2.358,17.544 2.111 C 17.107 2.027,17.018 2.026,12.220 2.017 C 9.536 2.013,7.183 2.025,6.991 2.044 M15.612 6.440 C 16.136 6.602,16.572 7.051,16.770 7.634 L 16.860 7.900 16.871 11.228 C 16.884 14.902,16.889 14.812,16.632 15.349 C 16.455 15.718,15.961 16.218,15.600 16.393 C 14.908 16.727,14.172 16.727,13.480 16.393 C 13.119 16.218,12.625 15.718,12.448 15.349 C 12.095 14.612,12.128 13.804,12.540 13.095 C 12.722 12.781,13.137 12.400,13.485 12.228 C 13.996 11.976,14.445 11.918,15.050 12.024 L 15.200 12.050 15.200 11.365 C 15.200 10.794,15.190 10.680,15.142 10.680 C 15.110 10.680,14.332 10.885,13.412 11.136 C 12.492 11.387,11.663 11.613,11.570 11.638 L 11.400 11.683 11.399 13.632 C 11.399 15.801,11.393 15.857,11.135 16.370 C 10.758 17.120,9.907 17.640,9.060 17.640 C 8.182 17.640,7.330 17.101,6.962 16.314 C 6.638 15.619,6.638 14.981,6.962 14.286 C 7.357 13.441,8.298 12.893,9.217 12.975 C 9.373 12.988,9.550 13.011,9.610 13.025 L 9.720 13.049 9.720 11.013 C 9.720 8.776,9.724 8.728,9.965 8.276 C 10.131 7.965,10.464 7.639,10.791 7.469 C 10.984 7.367,11.493 7.209,12.600 6.905 C 13.447 6.673,14.248 6.457,14.380 6.425 C 14.744 6.337,15.299 6.344,15.612 6.440 M14.248 13.747 C 13.979 13.880,13.832 14.202,13.915 14.478 C 14.016 14.815,14.279 14.989,14.629 14.949 C 14.857 14.923,14.995 14.823,15.112 14.598 C 15.390 14.065,14.794 13.478,14.248 13.747 M8.718 14.770 C 8.303 15.050,8.334 15.664,8.774 15.877 C 8.990 15.982,9.130 15.982,9.346 15.877 C 9.946 15.587,9.730 14.680,9.060 14.680 C 8.910 14.680,8.814 14.705,8.718 14.770 " fill="#292D32" stroke="none" fill-rule="evenodd"></path></svg>