<svg width="24" height="24" viewBox="0 0 24 24" fill="none" xmlns="http://www.w3.org/2000/svg"><path d="M11.520 1.264 C 10.688 1.317,9.883 1.443,9.201 1.626 C 8.720 1.755,8.626 1.805,8.479 2.007 C 8.379 2.146,8.360 2.210,8.360 2.408 C 8.360 2.538,8.385 2.693,8.416 2.752 C 8.481 2.875,8.658 3.049,8.787 3.115 C 8.927 3.187,9.232 3.167,9.614 3.061 C 10.417 2.839,10.901 2.782,11.980 2.781 C 13.071 2.780,13.417 2.819,14.294 3.040 C 15.525 3.351,16.816 4.000,17.820 4.812 C 18.265 5.173,19.042 5.980,19.422 6.477 C 19.836 7.019,19.893 7.060,20.236 7.060 C 20.458 7.060,20.532 7.042,20.651 6.961 C 20.962 6.747,21.070 6.293,20.884 5.977 C 20.494 5.317,19.303 4.057,18.500 3.456 C 16.935 2.285,15.226 1.583,13.358 1.345 C 12.879 1.284,11.896 1.241,11.520 1.264 M5.336 3.598 C 5.079 3.745,4.172 4.617,3.752 5.119 C 3.171 5.815,2.606 6.713,2.231 7.540 C 1.847 8.386,1.773 8.711,1.905 8.972 C 2.055 9.269,2.273 9.411,2.580 9.411 C 2.974 9.411,3.166 9.231,3.401 8.640 C 3.757 7.742,4.265 6.873,4.860 6.140 C 5.122 5.819,5.576 5.356,6.133 4.845 C 6.426 4.575,6.519 4.334,6.441 4.043 C 6.308 3.550,5.786 3.340,5.336 3.598 M14.304 6.224 C 14.174 6.255,13.328 6.481,12.424 6.724 C 10.606 7.214,10.389 7.299,10.026 7.663 C 9.909 7.779,9.757 7.981,9.688 8.111 C 9.447 8.563,9.441 8.632,9.441 11.090 C 9.440 12.317,9.427 13.320,9.410 13.320 C 9.394 13.319,9.281 13.292,9.160 13.260 C 8.900 13.190,8.370 13.182,8.072 13.244 C 7.512 13.360,6.895 13.810,6.589 14.325 C 6.363 14.705,6.274 15.030,6.271 15.480 C 6.266 16.182,6.466 16.671,6.958 17.160 C 7.429 17.628,7.936 17.841,8.578 17.839 C 9.599 17.838,10.438 17.245,10.791 16.279 L 10.900 15.980 10.912 13.650 C 10.918 12.368,10.930 11.320,10.937 11.320 C 10.944 11.320,11.866 11.069,12.985 10.763 C 14.104 10.457,15.070 10.194,15.130 10.179 L 15.240 10.151 15.240 11.212 L 15.240 12.272 15.050 12.210 C 14.763 12.117,14.040 12.120,13.760 12.216 C 13.320 12.367,13.067 12.523,12.760 12.835 C 11.844 13.765,11.845 15.156,12.760 16.084 C 13.570 16.905,14.782 17.024,15.730 16.376 C 16.057 16.153,16.272 15.910,16.456 15.560 C 16.756 14.989,16.740 15.228,16.740 11.300 C 16.740 8.014,16.735 7.763,16.667 7.523 C 16.411 6.620,15.792 6.154,14.862 6.163 C 14.685 6.165,14.434 6.192,14.304 6.224 M21.560 9.544 C 21.265 9.672,21.108 9.906,21.109 10.219 C 21.109 10.330,21.139 10.632,21.175 10.892 C 21.248 11.426,21.261 12.444,21.200 12.961 C 20.939 15.176,19.976 17.140,18.415 18.642 C 16.049 20.918,12.805 21.752,9.560 20.918 C 9.039 20.785,8.874 20.793,8.629 20.968 C 8.341 21.173,8.267 21.719,8.489 22.010 C 8.624 22.186,8.768 22.253,9.328 22.400 C 11.948 23.088,14.895 22.711,17.220 21.390 C 18.161 20.856,18.799 20.366,19.602 19.562 C 21.555 17.608,22.615 15.182,22.744 12.374 C 22.781 11.572,22.643 10.155,22.502 9.884 C 22.329 9.552,21.899 9.397,21.560 9.544 M1.807 11.288 C 1.562 11.342,1.341 11.571,1.286 11.829 C 1.202 12.219,1.355 13.717,1.559 14.518 C 1.697 15.056,1.878 15.608,1.962 15.744 C 2.072 15.921,2.272 16.038,2.514 16.067 C 2.780 16.098,3.043 15.975,3.193 15.748 C 3.351 15.509,3.340 15.227,3.149 14.626 C 2.944 13.977,2.803 13.182,2.764 12.439 C 2.716 11.540,2.612 11.371,2.040 11.261 C 2.007 11.255,1.902 11.267,1.807 11.288 M14.799 13.719 C 15.107 13.876,15.262 14.173,15.231 14.546 C 15.176 15.213,14.368 15.536,13.873 15.089 C 13.489 14.742,13.463 14.270,13.808 13.896 C 14.076 13.605,14.445 13.539,14.799 13.719 M8.947 14.764 C 9.240 14.905,9.440 15.224,9.440 15.547 C 9.440 15.737,9.240 16.086,9.060 16.210 C 8.753 16.423,8.337 16.398,8.054 16.150 C 7.780 15.909,7.682 15.515,7.817 15.195 C 7.996 14.770,8.535 14.564,8.947 14.764 M3.995 17.875 C 3.884 17.945,3.785 18.049,3.739 18.145 C 3.646 18.338,3.643 18.658,3.732 18.827 C 3.875 19.098,4.985 20.168,5.360 20.395 C 5.535 20.501,5.845 20.508,6.037 20.410 C 6.273 20.290,6.412 20.074,6.432 19.799 C 6.443 19.657,6.429 19.510,6.399 19.437 C 6.370 19.368,6.125 19.115,5.837 18.857 C 5.556 18.606,5.230 18.290,5.113 18.156 C 4.854 17.858,4.675 17.760,4.389 17.760 C 4.223 17.760,4.136 17.785,3.995 17.875 " fill="#292D32" stroke="none" fill-rule="evenodd"></path></svg>