<svg width="24" height="24" viewBox="0 0 24 24" fill="none" xmlns="http://www.w3.org/2000/svg"><path d="M9.240 2.036 C 8.949 2.128,8.686 2.361,8.575 2.626 C 8.493 2.823,8.493 21.177,8.575 21.374 C 8.653 21.562,8.866 21.790,9.056 21.892 L 9.220 21.980 13.060 21.980 L 16.900 21.980 17.320 21.887 C 18.540 21.618,19.428 21.138,20.283 20.283 C 21.138 19.428,21.618 18.540,21.887 17.320 L 21.980 16.900 21.980 12.000 L 21.980 7.100 21.887 6.680 C 21.618 5.460,21.138 4.572,20.283 3.717 C 19.435 2.869,18.552 2.388,17.340 2.115 C 16.942 2.025,16.922 2.025,13.140 2.015 C 11.050 2.009,9.295 2.019,9.240 2.036 M5.519 2.352 C 3.678 2.966,2.507 4.367,2.110 6.429 L 2.020 6.900 2.020 11.980 C 2.020 17.610,2.009 17.353,2.285 18.297 C 2.424 18.773,2.805 19.562,3.059 19.900 C 3.327 20.256,3.738 20.664,4.097 20.930 C 4.653 21.343,5.629 21.760,6.037 21.760 C 6.276 21.760,6.599 21.603,6.759 21.409 C 7.018 21.094,7.000 21.796,7.000 11.998 C 7.000 2.274,7.015 2.925,6.778 2.614 C 6.506 2.257,6.074 2.167,5.519 2.352 M18.580 6.994 C 19.041 7.201,19.328 7.518,19.490 7.998 C 19.578 8.258,19.579 8.283,19.591 11.240 C 19.600 13.319,19.590 14.301,19.559 14.488 C 19.428 15.267,18.812 15.935,18.035 16.142 C 17.760 16.215,17.280 16.215,17.005 16.142 C 16.220 15.933,15.614 15.269,15.477 14.468 C 15.302 13.443,15.979 12.411,17.005 12.138 C 17.280 12.065,17.774 12.064,18.014 12.136 L 18.200 12.192 18.200 11.436 C 18.200 10.909,18.187 10.680,18.156 10.680 C 18.131 10.680,17.320 10.896,16.353 11.160 C 15.387 11.424,14.589 11.640,14.581 11.640 C 14.573 11.640,14.559 12.482,14.550 13.510 C 14.533 15.555,14.535 15.535,14.280 16.040 C 13.743 17.101,12.324 17.464,11.325 16.797 C 10.746 16.410,10.400 15.769,10.400 15.081 C 10.400 14.483,10.577 14.063,11.019 13.616 C 11.541 13.089,12.253 12.881,12.920 13.060 C 13.041 13.092,13.145 13.119,13.150 13.120 C 13.155 13.120,13.160 12.225,13.161 11.130 L 13.162 9.140 13.257 8.871 C 13.418 8.413,13.707 8.086,14.140 7.871 C 14.288 7.797,16.544 7.149,17.500 6.905 C 17.544 6.894,17.760 6.889,17.980 6.895 C 18.294 6.902,18.423 6.923,18.580 6.994 M17.305 13.497 C 16.769 13.693,16.676 14.354,17.135 14.698 C 17.221 14.762,17.306 14.780,17.513 14.780 C 17.831 14.780,17.994 14.687,18.125 14.430 C 18.392 13.906,17.856 13.296,17.305 13.497 M12.325 14.402 C 11.894 14.498,11.670 15.001,11.889 15.379 C 12.069 15.689,12.449 15.801,12.777 15.641 C 13.483 15.296,13.093 14.229,12.325 14.402 " fill="#292D32" stroke="none" fill-rule="evenodd"></path></svg>