<svg width="24" height="24" viewBox="0 0 24 24" fill="none" xmlns="http://www.w3.org/2000/svg"><path d="M11.280 2.082 C 10.381 2.136,9.308 2.361,8.440 2.677 C 7.908 2.871,6.946 3.365,6.433 3.708 C 4.933 4.710,3.782 6.034,2.994 7.663 C 2.549 8.583,2.248 9.591,2.075 10.740 C 2.009 11.185,1.977 18.160,2.040 18.640 C 2.137 19.384,2.498 20.151,3.013 20.704 C 3.380 21.099,3.702 21.335,4.180 21.561 C 4.659 21.787,4.929 21.863,5.459 21.922 C 7.084 22.102,8.618 21.274,9.350 19.820 C 9.530 19.462,9.669 18.982,9.717 18.549 C 9.773 18.047,9.772 16.282,9.716 15.820 C 9.532 14.316,8.508 13.085,7.060 12.629 C 5.971 12.285,4.696 12.452,3.755 13.060 L 3.468 13.246 3.493 12.253 C 3.507 11.707,3.537 11.116,3.561 10.940 C 3.735 9.636,4.196 8.379,4.876 7.351 C 5.222 6.828,5.414 6.586,5.839 6.144 C 7.199 4.725,8.909 3.869,10.888 3.618 C 11.584 3.529,12.734 3.555,13.400 3.673 C 17.081 4.331,19.865 7.206,20.418 10.920 C 20.453 11.151,20.492 11.771,20.507 12.297 L 20.533 13.255 20.417 13.172 C 19.627 12.612,18.638 12.363,17.660 12.480 C 15.867 12.694,14.501 14.045,14.284 15.820 C 14.227 16.285,14.227 18.115,14.284 18.580 C 14.540 20.680,16.422 22.157,18.541 21.922 C 19.071 21.863,19.341 21.787,19.820 21.561 C 20.298 21.335,20.620 21.099,20.987 20.704 C 21.502 20.151,21.863 19.384,21.961 18.639 C 21.992 18.402,22.000 17.205,21.988 14.699 C 21.970 10.845,21.976 10.981,21.757 9.940 C 21.436 8.415,20.606 6.773,19.518 5.508 C 18.035 3.785,15.899 2.585,13.631 2.202 C 13.214 2.132,12.044 2.030,11.840 2.047 C 11.807 2.050,11.555 2.065,11.280 2.082 M10.417 6.453 C 10.105 6.602,9.973 6.770,9.530 7.591 L 9.119 8.350 8.690 8.368 C 8.124 8.392,7.930 8.495,7.782 8.849 C 7.616 9.246,7.849 9.716,8.274 9.843 C 8.367 9.871,8.634 9.882,8.963 9.873 C 9.452 9.860,9.522 9.848,9.749 9.744 C 10.076 9.594,10.286 9.362,10.558 8.850 C 10.678 8.625,10.786 8.440,10.798 8.440 C 10.811 8.440,11.149 9.097,11.550 9.900 C 12.322 11.445,12.443 11.632,12.757 11.771 C 12.973 11.867,13.359 11.875,13.566 11.789 C 13.864 11.664,14.001 11.484,14.420 10.664 L 14.820 9.882 15.148 9.881 C 15.630 9.880,15.855 9.820,16.038 9.646 C 16.437 9.266,16.302 8.617,15.782 8.419 C 15.511 8.315,14.457 8.348,14.191 8.469 C 13.863 8.618,13.628 8.878,13.402 9.343 C 13.291 9.572,13.191 9.760,13.180 9.760 C 13.169 9.760,12.834 9.107,12.436 8.310 C 12.038 7.513,11.671 6.806,11.621 6.739 C 11.479 6.551,11.153 6.393,10.865 6.373 C 10.665 6.359,10.583 6.373,10.417 6.453 " fill="#292D32" stroke="none" fill-rule="evenodd"></path></svg>