<svg width="24" height="24" viewBox="0 0 24 24" fill="none" xmlns="http://www.w3.org/2000/svg"><path d="M6.799 2.079 C 5.338 2.275,4.309 2.756,3.465 3.639 C 2.642 4.501,2.178 5.618,2.042 7.060 C 1.985 7.655,1.985 16.345,2.042 16.940 C 2.178 18.382,2.642 19.499,3.465 20.361 C 4.322 21.257,5.335 21.727,6.832 21.921 C 7.395 21.994,7.684 22.000,10.524 22.000 C 13.886 22.000,13.743 22.010,13.912 21.771 C 14.065 21.554,14.059 21.444,13.864 20.872 C 13.603 20.104,13.511 19.611,13.510 18.980 C 13.508 16.929,14.666 15.047,16.506 14.110 C 17.930 13.384,19.563 13.305,21.040 13.889 C 21.475 14.061,21.738 14.007,21.923 13.708 C 22.001 13.582,22.002 13.515,21.988 10.240 C 21.973 7.042,21.969 6.881,21.888 6.456 C 21.657 5.243,21.212 4.333,20.485 3.586 C 19.747 2.829,18.795 2.351,17.544 2.111 C 17.108 2.027,17.014 2.026,12.220 2.016 C 7.695 2.007,7.301 2.011,6.799 2.079 M13.447 5.107 C 13.932 5.336,14.230 5.708,14.389 6.285 C 14.454 6.519,14.460 6.812,14.460 9.880 C 14.460 13.039,14.456 13.232,14.385 13.440 C 14.122 14.213,13.559 14.769,12.823 14.981 C 12.508 15.072,11.971 15.073,11.660 14.983 C 10.875 14.755,10.258 14.133,10.060 13.372 C 9.983 13.079,9.983 12.561,10.060 12.268 C 10.258 11.507,10.875 10.885,11.660 10.657 C 11.954 10.572,12.503 10.570,12.770 10.653 L 12.960 10.712 12.960 9.876 C 12.960 9.416,12.956 9.040,12.950 9.041 C 12.945 9.041,12.058 9.283,10.980 9.577 L 9.020 10.112 8.998 12.186 C 8.982 13.730,8.963 14.301,8.924 14.420 C 8.389 16.064,6.382 16.577,5.182 15.378 C 4.302 14.498,4.304 13.107,5.185 12.225 C 5.781 11.629,6.606 11.421,7.407 11.663 C 7.470 11.682,7.476 11.529,7.489 9.552 C 7.502 7.639,7.511 7.397,7.575 7.200 C 7.763 6.623,8.227 6.130,8.762 5.939 C 8.897 5.890,10.710 5.386,12.180 4.987 C 12.224 4.975,12.467 4.969,12.720 4.973 C 13.144 4.980,13.201 4.991,13.447 5.107 M11.889 12.165 C 11.654 12.281,11.502 12.542,11.506 12.820 C 11.512 13.245,11.801 13.531,12.223 13.531 C 12.601 13.531,12.909 13.266,12.950 12.905 C 13.016 12.312,12.425 11.899,11.889 12.165 M6.384 13.175 C 5.815 13.520,5.984 14.421,6.635 14.508 C 6.877 14.541,7.066 14.490,7.227 14.349 C 7.488 14.119,7.553 13.776,7.396 13.452 C 7.226 13.101,6.731 12.965,6.384 13.175 M18.459 15.039 C 16.862 15.266,15.565 16.407,15.139 17.960 C 14.986 18.520,14.963 19.199,15.079 19.760 C 15.249 20.585,15.601 21.244,16.179 21.821 C 16.889 22.532,17.781 22.932,18.777 22.988 C 20.338 23.076,21.785 22.272,22.521 20.908 C 23.755 18.620,22.499 15.778,19.969 15.136 C 19.542 15.028,18.849 14.983,18.459 15.039 M19.367 16.885 C 19.655 17.029,19.759 17.291,19.760 17.870 L 19.760 18.240 20.207 18.240 C 20.744 18.240,20.941 18.312,21.113 18.572 C 21.200 18.704,21.220 18.780,21.220 18.980 C 21.220 19.180,21.200 19.256,21.113 19.388 C 20.941 19.647,20.743 19.720,20.212 19.720 L 19.770 19.720 19.753 20.210 C 19.739 20.638,19.725 20.723,19.638 20.879 C 19.365 21.374,18.641 21.371,18.361 20.874 C 18.276 20.722,18.261 20.638,18.247 20.210 L 18.230 19.720 17.774 19.720 C 17.168 19.720,16.971 19.627,16.822 19.270 C 16.685 18.943,16.796 18.564,17.084 18.373 C 17.243 18.267,17.284 18.259,17.747 18.247 L 18.240 18.233 18.240 17.867 C 18.241 17.306,18.345 17.032,18.613 16.893 C 18.883 16.752,19.097 16.750,19.367 16.885 " fill="#292D32" stroke="none" fill-rule="evenodd"></path></svg>