<svg width="24" height="24" viewBox="0 0 24 24" fill="none" xmlns="http://www.w3.org/2000/svg"><path d="M8.807 1.287 C 8.568 1.341,8.341 1.572,8.289 1.816 C 8.196 2.251,8.432 2.631,8.849 2.718 C 9.000 2.749,9.980 2.759,12.122 2.751 L 15.180 2.740 15.359 2.639 C 15.702 2.448,15.829 2.010,15.646 1.651 C 15.544 1.452,15.391 1.337,15.156 1.283 C 14.925 1.229,9.047 1.234,8.807 1.287 M5.700 3.823 C 5.436 3.960,5.242 4.248,5.242 4.500 C 5.242 4.759,5.484 5.104,5.733 5.197 C 5.810 5.227,7.750 5.240,12.004 5.240 C 17.086 5.240,18.185 5.231,18.292 5.186 C 18.363 5.156,18.479 5.067,18.549 4.987 C 18.860 4.633,18.806 4.192,18.417 3.895 L 18.266 3.780 12.043 3.770 C 6.461 3.761,5.808 3.767,5.700 3.823 M5.440 7.044 C 5.069 7.091,4.554 7.260,4.160 7.463 C 3.036 8.042,2.218 9.197,2.043 10.455 C 1.984 10.883,1.984 18.117,2.043 18.545 C 2.288 20.305,3.734 21.739,5.486 21.958 C 5.703 21.986,7.960 22.000,12.019 22.000 C 18.730 22.000,18.633 22.002,19.268 21.785 C 20.689 21.298,21.717 20.073,21.942 18.600 C 22.027 18.040,22.027 10.960,21.942 10.400 C 21.675 8.651,20.255 7.260,18.514 7.042 C 18.111 6.991,5.834 6.993,5.440 7.044 M15.085 9.710 C 15.400 9.864,15.685 10.153,15.824 10.458 C 16.041 10.932,16.045 10.999,16.031 14.216 C 16.019 16.950,16.012 17.197,15.945 17.400 C 15.677 18.212,15.091 18.744,14.281 18.912 C 13.239 19.127,12.142 18.423,11.858 17.355 C 11.784 17.075,11.784 16.597,11.860 16.308 C 12.057 15.551,12.644 14.971,13.411 14.774 C 13.661 14.710,14.289 14.714,14.450 14.780 C 14.515 14.807,14.520 14.760,14.520 14.126 C 14.520 13.597,14.509 13.446,14.470 13.459 C 14.443 13.469,13.682 13.676,12.780 13.920 C 11.878 14.165,11.108 14.374,11.070 14.385 C 11.005 14.404,11.000 14.527,11.000 16.246 L 11.000 18.086 10.900 18.384 C 10.730 18.890,10.465 19.236,10.023 19.526 C 9.693 19.742,9.338 19.846,8.920 19.850 C 7.897 19.858,7.029 19.165,6.819 18.171 C 6.747 17.830,6.747 17.650,6.819 17.309 C 6.970 16.597,7.470 16.019,8.161 15.756 C 8.556 15.606,9.074 15.584,9.444 15.701 C 9.518 15.725,9.520 15.675,9.520 13.806 C 9.520 12.039,9.526 11.868,9.595 11.645 C 9.637 11.512,9.716 11.325,9.772 11.231 C 9.907 10.999,10.261 10.671,10.511 10.544 C 10.624 10.487,11.343 10.268,12.108 10.057 C 14.011 9.533,13.880 9.561,14.381 9.571 C 14.788 9.579,14.842 9.590,15.085 9.710 M13.771 16.240 C 13.470 16.309,13.305 16.529,13.309 16.854 C 13.311 17.074,13.390 17.207,13.604 17.354 C 13.877 17.541,14.310 17.410,14.460 17.095 C 14.674 16.644,14.258 16.128,13.771 16.240 M8.727 17.159 C 8.452 17.225,8.261 17.505,8.289 17.802 C 8.363 18.573,9.492 18.511,9.493 17.735 C 9.494 17.345,9.121 17.065,8.727 17.159 " fill="#292D32" stroke="none" fill-rule="evenodd"></path></svg>