<svg width="24" height="24" viewBox="0 0 24 24" fill="none" xmlns="http://www.w3.org/2000/svg"><path d="M5.700 4.745 C 5.253 4.853,4.892 5.065,4.519 5.439 C 4.131 5.828,3.966 6.115,3.839 6.622 C 3.760 6.938,3.758 7.042,3.769 12.122 L 3.780 17.300 3.887 17.593 C 4.177 18.388,4.778 18.967,5.579 19.226 C 5.840 19.310,5.979 19.330,6.320 19.331 C 7.083 19.333,6.533 19.622,14.154 15.218 C 16.237 14.014,16.444 13.868,16.758 13.389 C 16.847 13.253,16.969 12.997,17.030 12.821 C 17.127 12.537,17.140 12.442,17.140 12.000 C 17.139 11.618,17.122 11.448,17.065 11.280 C 16.920 10.854,16.711 10.510,16.420 10.220 C 16.167 9.968,15.973 9.844,14.480 8.982 C 6.780 4.540,7.303 4.833,6.910 4.740 C 6.597 4.666,6.015 4.668,5.700 4.745 M19.940 5.141 C 19.779 5.228,19.646 5.355,19.566 5.500 C 19.505 5.610,19.500 6.138,19.500 12.000 C 19.500 18.308,19.501 18.382,19.580 18.516 C 19.624 18.590,19.729 18.707,19.814 18.776 C 19.952 18.888,19.995 18.900,20.240 18.900 C 20.485 18.900,20.528 18.888,20.666 18.776 C 20.751 18.707,20.856 18.590,20.900 18.516 C 20.979 18.382,20.980 18.308,20.980 12.000 C 20.980 5.692,20.979 5.618,20.900 5.484 C 20.757 5.241,20.549 5.107,20.289 5.090 C 20.131 5.080,20.023 5.096,19.940 5.141 " fill="#292D32" stroke="none" fill-rule="evenodd"></path></svg>