<svg width="24" height="24" viewBox="0 0 24 24" fill="none" xmlns="http://www.w3.org/2000/svg"><path d="M7.785 1.288 C 7.587 1.342,7.338 1.590,7.283 1.787 C 7.259 1.872,7.240 2.303,7.240 2.748 L 7.240 3.556 7.090 3.579 C 5.705 3.792,4.917 4.150,4.218 4.887 C 3.608 5.529,3.243 6.343,3.073 7.440 C 2.995 7.941,2.996 17.587,3.074 18.079 C 3.259 19.255,3.667 20.113,4.350 20.766 C 5.076 21.459,6.008 21.841,7.260 21.959 C 7.853 22.014,16.147 22.014,16.740 21.959 C 17.989 21.841,18.927 21.456,19.653 20.763 C 20.333 20.113,20.741 19.253,20.926 18.079 C 21.004 17.587,21.005 7.941,20.927 7.440 C 20.757 6.343,20.392 5.529,19.782 4.887 C 19.087 4.155,18.278 3.787,16.913 3.580 L 16.767 3.558 16.753 2.689 C 16.740 1.883,16.733 1.808,16.651 1.653 C 16.332 1.055,15.426 1.177,15.284 1.838 C 15.260 1.951,15.240 2.364,15.240 2.756 L 15.240 3.468 15.890 3.494 C 16.247 3.509,16.590 3.531,16.650 3.545 L 16.760 3.569 16.760 4.315 C 16.760 5.125,16.732 5.292,16.570 5.484 C 16.204 5.919,15.525 5.805,15.302 5.271 C 15.253 5.154,15.240 4.954,15.240 4.321 L 15.240 3.520 12.000 3.520 L 8.760 3.520 8.760 4.290 C 8.760 5.125,8.733 5.291,8.570 5.484 C 8.212 5.910,7.552 5.813,7.316 5.300 C 7.252 5.162,7.242 5.032,7.241 4.350 C 7.240 3.916,7.245 3.558,7.250 3.555 C 7.255 3.552,7.593 3.539,8.000 3.525 L 8.740 3.500 8.740 2.633 L 8.740 1.767 8.620 1.597 C 8.427 1.323,8.099 1.202,7.785 1.288 M16.300 10.316 C 16.494 10.405,16.616 10.532,16.698 10.729 C 16.849 11.090,16.672 11.516,16.302 11.685 C 16.148 11.755,15.930 11.758,12.009 11.759 C 8.369 11.760,7.860 11.753,7.729 11.698 C 7.101 11.436,7.084 10.600,7.700 10.316 C 7.852 10.245,8.059 10.242,12.000 10.242 C 15.941 10.242,16.148 10.245,16.300 10.316 M12.300 15.316 C 12.494 15.405,12.616 15.532,12.698 15.729 C 12.849 16.090,12.672 16.516,12.302 16.685 C 12.151 16.753,11.990 16.758,10.009 16.759 C 8.174 16.760,7.857 16.751,7.729 16.698 C 7.101 16.436,7.084 15.600,7.700 15.316 C 7.849 15.247,8.004 15.242,10.000 15.242 C 11.996 15.242,12.151 15.247,12.300 15.316 " fill="#292D32" stroke="none" fill-rule="evenodd"></path></svg>