<svg width="24" height="24" viewBox="0 0 24 24" fill="none" xmlns="http://www.w3.org/2000/svg"><path d="M12.140 2.584 C 11.763 2.651,11.261 2.809,10.980 2.950 C 9.796 3.544,8.934 4.811,8.417 6.716 C 8.205 7.499,7.205 11.807,7.119 12.308 C 6.935 13.382,6.935 14.377,7.119 15.142 C 7.418 16.386,8.244 17.327,9.611 17.980 C 10.269 18.295,10.876 18.490,12.220 18.821 C 14.248 19.319,14.796 19.407,15.860 19.405 C 18.144 19.402,19.521 18.278,20.357 15.735 C 20.543 15.169,21.616 10.708,21.794 9.760 C 21.988 8.728,22.008 7.589,21.845 6.877 C 21.476 5.265,20.366 4.217,18.311 3.541 C 17.363 3.230,15.076 2.698,14.173 2.580 C 13.607 2.506,12.570 2.508,12.140 2.584 M6.600 5.818 C 5.031 6.350,4.346 6.667,3.640 7.191 C 2.089 8.342,1.649 10.005,2.257 12.417 C 2.437 13.127,3.839 17.449,4.107 18.120 C 4.798 19.843,5.728 20.880,6.938 21.278 C 7.471 21.452,7.755 21.494,8.400 21.494 C 9.398 21.492,10.103 21.334,12.180 20.645 C 13.162 20.319,13.585 20.166,13.513 20.162 C 13.433 20.157,11.086 19.582,10.800 19.497 C 8.330 18.763,6.867 17.568,6.281 15.808 C 6.085 15.216,6.037 14.911,6.012 14.093 C 5.974 12.810,6.022 12.502,6.779 9.260 C 7.310 6.981,7.538 6.089,7.686 5.709 C 7.766 5.501,7.777 5.438,7.730 5.443 C 7.714 5.444,7.205 5.613,6.600 5.818 " fill="#292D32" stroke="none" fill-rule="evenodd"></path></svg>