<svg width="24" height="24" viewBox="0 0 24 24" fill="none" xmlns="http://www.w3.org/2000/svg"><path d="M6.730 2.042 C 4.463 2.267,2.849 3.540,2.266 5.560 C 2.013 6.439,2.020 6.271,2.020 11.500 C 2.020 16.729,2.013 16.561,2.266 17.440 C 2.741 19.086,3.934 20.273,5.580 20.737 C 6.374 20.961,6.461 20.968,8.767 20.988 C 10.725 21.005,10.926 21.001,11.056 20.939 C 11.254 20.845,11.360 20.659,11.360 20.404 C 11.360 19.699,11.531 18.961,11.839 18.340 C 12.079 17.855,12.336 17.509,12.741 17.124 C 13.307 16.587,13.893 16.273,14.727 16.061 C 15.228 15.934,15.356 15.870,15.454 15.700 C 15.486 15.645,15.507 15.110,15.523 13.980 C 15.545 12.451,15.552 12.321,15.632 12.060 C 16.034 10.757,17.000 9.936,18.342 9.758 C 18.816 9.694,19.296 9.756,19.963 9.967 C 20.470 10.127,20.498 10.131,20.654 10.077 C 20.758 10.041,20.852 9.969,20.912 9.880 L 21.007 9.740 20.989 8.200 C 20.970 6.554,20.945 6.296,20.733 5.560 C 20.260 3.915,19.066 2.727,17.420 2.263 C 16.545 2.016,16.811 2.027,11.720 2.018 C 9.157 2.013,6.912 2.024,6.730 2.042 M18.160 11.313 C 18.039 11.353,17.866 11.432,17.776 11.490 C 17.433 11.706,17.126 12.186,17.041 12.636 C 17.016 12.768,17.000 13.809,17.000 15.323 L 17.000 17.795 16.748 17.681 C 16.244 17.452,15.683 17.390,15.128 17.502 C 14.607 17.607,14.118 17.868,13.724 18.250 C 12.442 19.495,12.662 21.664,14.166 22.611 C 14.786 23.001,15.561 23.136,16.293 22.981 C 17.075 22.815,17.839 22.205,18.198 21.460 C 18.460 20.915,18.454 20.989,18.470 18.230 C 18.477 16.849,18.488 15.720,18.493 15.720 C 18.498 15.720,19.037 15.899,19.691 16.117 C 20.345 16.335,21.007 16.533,21.161 16.557 C 21.896 16.672,22.591 16.327,22.909 15.689 C 23.094 15.320,23.131 15.078,23.111 14.364 C 23.097 13.832,23.080 13.704,23.001 13.500 C 22.883 13.196,22.679 12.870,22.466 12.645 C 22.130 12.291,21.922 12.193,20.486 11.714 C 19.203 11.286,19.122 11.265,18.760 11.253 C 18.473 11.243,18.326 11.258,18.160 11.313 " fill="#292D32" stroke="none" fill-rule="evenodd"></path></svg>