<svg width="24" height="24" viewBox="0 0 24 24" fill="none" xmlns="http://www.w3.org/2000/svg"><path d="M2.460 1.066 C 1.770 1.214,1.268 1.691,1.076 2.380 C 0.994 2.672,0.994 6.328,1.076 6.620 C 1.214 7.117,1.538 7.534,1.954 7.751 C 2.390 7.978,2.413 7.980,4.500 7.980 C 6.587 7.980,6.610 7.978,7.046 7.751 C 7.462 7.534,7.786 7.117,7.924 6.620 C 8.006 6.328,8.006 2.672,7.924 2.380 C 7.729 1.678,7.227 1.210,6.512 1.063 C 6.074 0.973,2.884 0.976,2.460 1.066 M10.240 2.037 C 9.981 2.116,9.783 2.275,9.615 2.538 C 9.545 2.649,9.539 2.793,9.517 4.798 C 9.495 6.824,9.489 6.957,9.408 7.251 C 9.120 8.299,8.297 9.122,7.251 9.408 C 6.961 9.487,6.812 9.494,5.057 9.516 L 3.173 9.540 2.978 9.661 C 2.857 9.736,2.736 9.857,2.661 9.978 L 2.540 10.174 2.540 14.057 L 2.540 17.940 2.649 18.328 C 3.216 20.340,4.819 21.731,6.834 21.960 C 7.087 21.989,8.120 22.000,9.840 21.992 C 12.433 21.980,12.462 21.979,12.621 21.894 C 12.825 21.785,12.985 21.625,13.094 21.421 C 13.178 21.264,13.181 21.208,13.203 19.200 C 13.225 17.278,13.233 17.121,13.309 16.860 C 13.731 15.424,14.651 14.427,15.999 13.942 C 16.637 13.713,16.706 13.707,18.820 13.683 C 20.745 13.660,20.783 13.658,20.946 13.571 C 21.151 13.462,21.388 13.190,21.443 13.002 C 21.471 12.907,21.480 11.730,21.472 9.460 L 21.459 6.060 21.350 5.672 C 20.791 3.678,19.201 2.287,17.201 2.042 C 16.808 1.993,10.397 1.989,10.240 2.037 M3.251 2.416 C 3.322 2.447,3.632 2.725,3.939 3.035 L 4.498 3.599 5.099 3.003 C 5.745 2.362,5.820 2.317,6.148 2.379 C 6.345 2.416,6.584 2.655,6.621 2.852 C 6.682 3.178,6.636 3.257,6.017 3.882 C 5.699 4.202,5.440 4.481,5.440 4.502 C 5.440 4.524,5.684 4.784,5.983 5.081 C 6.281 5.377,6.551 5.669,6.583 5.728 C 6.672 5.896,6.656 6.205,6.550 6.360 C 6.377 6.613,6.035 6.709,5.749 6.584 C 5.678 6.553,5.377 6.283,5.081 5.984 C 4.784 5.685,4.523 5.440,4.500 5.440 C 4.477 5.440,4.216 5.684,3.919 5.983 C 3.623 6.281,3.331 6.551,3.272 6.583 C 3.015 6.719,2.617 6.613,2.451 6.364 C 2.344 6.204,2.328 5.897,2.417 5.728 C 2.449 5.669,2.728 5.368,3.037 5.061 L 3.599 4.502 3.003 3.901 C 2.509 3.403,2.402 3.274,2.379 3.150 C 2.281 2.620,2.771 2.207,3.251 2.416 M11.812 11.854 C 11.985 11.926,12.185 12.161,12.246 12.363 C 12.338 12.673,12.180 13.025,11.866 13.205 L 11.700 13.300 8.800 13.300 L 5.900 13.300 5.713 13.190 C 5.282 12.937,5.202 12.428,5.533 12.051 C 5.760 11.792,5.619 11.803,8.791 11.802 C 11.132 11.800,11.707 11.810,11.812 11.854 M17.460 15.202 C 16.802 15.232,16.581 15.284,16.159 15.504 C 15.607 15.793,15.190 16.232,14.920 16.808 C 14.693 17.292,14.681 17.429,14.681 19.554 C 14.680 21.703,14.675 21.661,14.947 21.868 C 15.125 22.004,15.414 22.035,15.613 21.941 C 15.702 21.899,16.852 20.766,18.595 19.004 C 21.683 15.882,21.572 16.011,21.475 15.661 C 21.420 15.460,21.220 15.260,21.018 15.204 C 20.843 15.156,18.482 15.154,17.460 15.202 M9.060 15.584 C 9.277 15.697,9.436 15.931,9.464 16.180 C 9.497 16.463,9.333 16.775,9.083 16.907 C 8.908 17.000,8.899 17.000,7.416 17.000 C 6.460 17.000,5.885 16.985,5.813 16.957 C 5.564 16.863,5.323 16.521,5.321 16.258 C 5.319 15.949,5.610 15.597,5.934 15.517 C 6.003 15.500,6.699 15.489,7.480 15.493 C 8.835 15.500,8.907 15.504,9.060 15.584 " fill="#292D32" stroke="none" fill-rule="evenodd"></path></svg>