<svg width="24" height="24" viewBox="0 0 24 24" fill="none" xmlns="http://www.w3.org/2000/svg"><path d="M6.785 1.288 C 6.587 1.342,6.338 1.590,6.283 1.787 C 6.259 1.872,6.240 2.303,6.240 2.748 L 6.240 3.556 6.090 3.579 C 4.705 3.792,3.917 4.150,3.218 4.887 C 2.608 5.529,2.243 6.343,2.073 7.440 C 1.995 7.941,1.996 17.587,2.074 18.079 C 2.259 19.255,2.667 20.113,3.350 20.766 C 4.076 21.459,5.008 21.841,6.260 21.959 C 6.502 21.981,7.717 22.000,8.963 22.000 C 11.500 22.000,11.491 22.001,11.806 21.724 C 11.905 21.637,12.033 21.466,12.097 21.336 C 12.262 20.998,12.272 20.732,12.141 20.100 C 11.840 18.648,12.037 17.090,12.688 15.780 C 13.654 13.838,15.470 12.475,17.599 12.097 C 17.787 12.063,18.201 12.022,18.521 12.005 C 19.016 11.979,19.135 11.959,19.321 11.874 C 19.574 11.758,19.766 11.581,19.892 11.345 C 19.979 11.182,19.980 11.158,19.980 9.480 C 19.980 8.272,19.965 7.682,19.927 7.440 C 19.757 6.343,19.392 5.529,18.782 4.887 C 18.087 4.155,17.278 3.787,15.913 3.580 L 15.767 3.558 15.753 2.689 C 15.740 1.883,15.733 1.808,15.651 1.653 C 15.332 1.055,14.426 1.177,14.284 1.838 C 14.260 1.951,14.240 2.364,14.240 2.756 L 14.240 3.468 14.890 3.494 C 15.248 3.509,15.590 3.531,15.650 3.545 L 15.760 3.569 15.760 4.315 C 15.760 5.125,15.732 5.292,15.570 5.484 C 15.204 5.919,14.525 5.805,14.302 5.271 C 14.253 5.154,14.240 4.954,14.240 4.321 L 14.240 3.520 11.000 3.520 L 7.760 3.520 7.760 4.290 C 7.760 5.125,7.733 5.291,7.570 5.484 C 7.212 5.910,6.552 5.813,6.316 5.300 C 6.252 5.162,6.242 5.032,6.241 4.350 C 6.240 3.916,6.245 3.558,6.250 3.555 C 6.255 3.552,6.593 3.539,7.000 3.525 L 7.740 3.500 7.740 2.633 L 7.740 1.767 7.620 1.597 C 7.427 1.323,7.099 1.202,6.785 1.288 M12.300 10.316 C 12.494 10.405,12.616 10.532,12.698 10.729 C 12.849 11.090,12.672 11.516,12.302 11.685 C 12.150 11.754,11.975 11.758,9.509 11.759 C 7.223 11.760,6.858 11.752,6.729 11.698 C 6.101 11.436,6.084 10.600,6.700 10.316 C 6.850 10.246,7.018 10.242,9.500 10.242 C 11.982 10.242,12.150 10.246,12.300 10.316 M17.928 14.040 C 16.714 14.211,15.601 14.871,14.859 15.860 C 14.617 16.183,14.304 16.824,14.184 17.244 C 13.465 19.763,15.033 22.353,17.611 22.903 C 19.988 23.411,22.391 21.820,22.904 19.400 C 23.003 18.935,23.002 18.064,22.904 17.600 C 22.532 15.853,21.204 14.501,19.483 14.117 C 19.085 14.028,18.291 13.989,17.928 14.040 M9.271 15.302 C 9.468 15.384,9.595 15.506,9.684 15.700 C 9.805 15.962,9.763 16.256,9.570 16.484 C 9.352 16.743,9.267 16.758,8.009 16.759 C 7.077 16.760,6.851 16.749,6.729 16.698 C 6.101 16.436,6.084 15.600,6.700 15.316 C 6.843 15.249,6.977 15.242,7.991 15.241 C 8.923 15.240,9.149 15.251,9.271 15.302 M18.640 17.092 C 18.756 17.401,18.992 17.751,19.220 17.952 C 19.475 18.176,19.911 18.388,20.260 18.457 C 20.469 18.498,20.504 18.514,20.400 18.517 C 20.049 18.529,19.417 18.836,19.123 19.138 C 18.817 19.451,18.527 20.063,18.516 20.414 C 18.514 20.493,18.492 20.435,18.457 20.260 C 18.343 19.680,17.965 19.122,17.497 18.840 C 17.226 18.678,16.800 18.524,16.600 18.517 C 16.496 18.514,16.531 18.498,16.740 18.457 C 17.611 18.285,18.307 17.587,18.452 16.739 L 18.499 16.462 18.529 16.667 C 18.545 16.780,18.595 16.971,18.640 17.092 " fill="#292D32" stroke="none" fill-rule="evenodd"></path></svg>