<svg width="24" height="24" viewBox="0 0 24 24" fill="none" xmlns="http://www.w3.org/2000/svg"><path d="M12.140 2.584 C 11.763 2.651,11.261 2.809,10.980 2.950 C 9.796 3.544,8.934 4.811,8.417 6.716 C 8.205 7.499,7.205 11.807,7.119 12.308 C 6.935 13.382,6.935 14.377,7.119 15.142 C 7.418 16.386,8.244 17.327,9.611 17.980 C 10.269 18.295,10.876 18.490,12.220 18.821 C 14.248 19.319,14.796 19.407,15.860 19.405 C 18.144 19.402,19.521 18.278,20.357 15.735 C 20.543 15.169,21.616 10.708,21.794 9.760 C 21.988 8.728,22.008 7.589,21.845 6.877 C 21.476 5.265,20.366 4.217,18.311 3.541 C 17.363 3.230,15.076 2.698,14.173 2.580 C 13.607 2.506,12.570 2.508,12.140 2.584 M6.200 5.955 C 5.396 6.227,4.977 6.401,4.440 6.687 C 3.525 7.173,2.862 7.779,2.461 8.496 C 1.917 9.468,1.850 10.819,2.263 12.460 C 2.383 12.939,3.829 17.427,4.029 17.940 C 4.619 19.459,5.394 20.493,6.343 21.023 C 7.313 21.565,8.610 21.643,10.200 21.254 C 10.715 21.128,12.666 20.497,12.790 20.417 C 12.855 20.375,12.880 20.319,12.880 20.220 C 12.880 20.121,12.855 20.066,12.790 20.024 C 12.740 19.992,12.349 19.884,11.920 19.782 C 11.491 19.681,10.987 19.553,10.800 19.497 C 8.650 18.858,7.283 17.894,6.583 16.520 C 6.157 15.684,6.000 14.955,6.000 13.809 C 6.000 12.637,6.055 12.324,6.883 8.820 C 7.175 7.588,7.431 6.497,7.453 6.395 C 7.488 6.238,7.482 6.188,7.413 6.055 C 7.331 5.898,7.182 5.785,7.000 5.742 C 6.934 5.727,6.660 5.800,6.200 5.955 M15.253 8.421 C 16.599 8.763,17.733 9.052,17.773 9.065 C 17.897 9.103,18.121 9.325,18.182 9.471 C 18.307 9.770,18.232 10.093,17.989 10.306 C 17.812 10.462,17.596 10.536,17.405 10.505 C 17.263 10.483,12.866 9.375,12.455 9.259 C 12.094 9.156,11.841 8.780,11.897 8.426 C 11.955 8.061,12.249 7.805,12.613 7.802 C 12.735 7.801,13.704 8.028,15.253 8.421 M13.275 12.043 C 14.144 12.264,14.885 12.462,14.922 12.481 C 15.040 12.544,15.230 12.788,15.280 12.941 C 15.429 13.390,15.056 13.880,14.565 13.880 C 14.380 13.880,11.447 13.146,11.272 13.056 C 11.125 12.980,10.977 12.774,10.923 12.572 C 10.808 12.140,11.161 11.668,11.617 11.644 C 11.659 11.642,12.405 11.821,13.275 12.043 " fill="#292D32" stroke="none" fill-rule="evenodd"></path></svg>