<svg width="24" height="24" viewBox="0 0 24 24" fill="none" xmlns="http://www.w3.org/2000/svg"><path d="M7.978 2.075 C 7.760 2.175,7.616 2.357,7.564 2.601 C 7.537 2.725,7.520 3.337,7.520 4.175 C 7.520 5.265,7.532 5.586,7.579 5.744 C 7.643 5.958,7.826 6.167,8.013 6.238 C 8.323 6.355,8.730 6.224,8.913 5.948 L 9.020 5.786 9.032 4.283 C 9.039 3.456,9.034 2.703,9.020 2.608 C 8.974 2.298,8.613 2.002,8.280 2.002 C 8.203 2.002,8.067 2.035,7.978 2.075 M15.418 2.075 C 15.223 2.164,15.057 2.352,14.999 2.552 C 14.969 2.651,14.959 3.211,14.967 4.243 L 14.980 5.787 15.094 5.952 C 15.384 6.369,15.996 6.382,16.305 5.978 L 16.420 5.826 16.431 4.194 C 16.442 2.649,16.438 2.554,16.366 2.411 C 16.271 2.225,16.180 2.141,15.990 2.062 C 15.796 1.981,15.617 1.985,15.418 2.075 M11.167 3.580 C 10.941 3.680,10.805 3.798,10.690 3.993 C 10.582 4.177,10.580 4.192,10.555 5.060 C 10.534 5.823,10.519 5.974,10.442 6.200 C 10.258 6.739,9.954 7.131,9.484 7.435 C 8.805 7.873,7.990 7.910,7.275 7.535 C 6.941 7.359,6.518 6.929,6.329 6.572 C 6.162 6.257,6.040 5.781,6.040 5.444 C 6.039 5.103,5.987 4.922,5.828 4.711 C 5.573 4.372,5.035 4.221,4.652 4.381 C 4.429 4.474,3.978 4.863,3.671 5.227 C 3.179 5.813,2.859 6.426,2.646 7.197 L 2.540 7.580 2.540 12.760 L 2.540 17.940 2.649 18.328 C 3.212 20.325,4.799 21.713,6.799 21.958 C 7.262 22.015,16.738 22.015,17.201 21.958 C 17.726 21.894,18.258 21.737,18.740 21.505 C 20.035 20.880,20.943 19.774,21.351 18.328 L 21.460 17.940 21.471 12.903 C 21.483 7.356,21.492 7.593,21.236 6.823 C 20.934 5.917,20.233 4.955,19.538 4.493 C 19.037 4.160,18.398 4.307,18.095 4.826 C 18.008 4.974,17.985 5.078,17.957 5.462 C 17.901 6.204,17.713 6.645,17.245 7.132 C 16.092 8.331,14.111 7.830,13.559 6.200 C 13.482 5.975,13.467 5.819,13.445 5.057 L 13.420 4.174 13.299 3.978 C 13.224 3.857,13.103 3.736,12.982 3.661 L 12.787 3.540 12.043 3.530 C 11.459 3.523,11.272 3.533,11.167 3.580 M15.070 12.262 C 15.262 12.342,15.351 12.425,15.449 12.617 C 15.639 12.990,15.492 13.427,15.113 13.616 L 14.904 13.720 11.071 13.720 C 7.701 13.720,7.220 13.713,7.089 13.658 C 6.461 13.396,6.444 12.560,7.060 12.276 C 7.212 12.205,7.412 12.202,11.071 12.201 C 14.448 12.200,14.941 12.208,15.070 12.262 M12.292 15.974 C 12.457 16.043,12.658 16.271,12.720 16.461 C 12.824 16.775,12.658 17.165,12.350 17.329 L 12.180 17.420 9.680 17.420 L 7.180 17.420 6.993 17.310 C 6.562 17.057,6.482 16.548,6.813 16.171 C 7.039 15.914,6.936 15.923,9.671 15.922 C 11.676 15.920,12.188 15.931,12.292 15.974 " fill="#292D32" stroke="none" fill-rule="evenodd"></path></svg>