<svg width="24" height="24" viewBox="0 0 24 24" fill="none" xmlns="http://www.w3.org/2000/svg"><path d="M9.760 2.063 C 9.223 2.179,8.660 2.573,8.357 3.045 C 7.548 4.306,8.191 5.976,9.660 6.426 C 9.880 6.494,10.075 6.500,12.020 6.500 L 14.140 6.499 14.429 6.394 C 14.845 6.242,15.065 6.103,15.360 5.803 C 16.083 5.069,16.201 3.915,15.643 3.045 C 15.460 2.759,15.048 2.389,14.753 2.244 C 14.284 2.013,14.142 2.001,11.980 2.004 C 10.452 2.006,9.963 2.019,9.760 2.063 M5.706 4.698 C 4.830 5.139,4.322 5.893,4.091 7.089 C 4.025 7.434,4.020 7.851,4.020 13.040 C 4.020 19.039,4.017 18.947,4.228 19.619 C 4.615 20.855,5.451 21.580,6.843 21.888 L 7.260 21.980 12.000 21.980 L 16.740 21.980 17.157 21.888 C 18.544 21.581,19.383 20.853,19.772 19.619 C 19.983 18.949,19.980 19.042,19.980 13.040 C 19.980 7.885,19.975 7.432,19.910 7.096 C 19.677 5.887,19.175 5.137,18.305 4.699 C 17.999 4.545,17.848 4.527,17.679 4.627 C 17.535 4.712,17.463 4.852,17.339 5.291 C 16.978 6.568,16.017 7.505,14.680 7.884 L 14.340 7.980 12.000 7.980 C 9.681 7.980,9.657 7.979,9.323 7.888 C 7.983 7.522,6.990 6.528,6.620 5.182 C 6.518 4.815,6.454 4.710,6.272 4.616 C 6.110 4.532,6.007 4.547,5.706 4.698 M12.302 12.315 C 12.855 12.567,12.906 13.290,12.394 13.628 L 12.226 13.740 9.996 13.740 L 7.767 13.740 7.593 13.619 C 7.397 13.483,7.240 13.212,7.240 13.010 C 7.240 12.723,7.426 12.442,7.700 12.316 C 7.849 12.247,8.004 12.242,10.000 12.242 C 11.991 12.242,12.151 12.247,12.302 12.315 M16.302 16.315 C 16.855 16.567,16.906 17.290,16.394 17.628 L 16.226 17.740 11.996 17.740 L 7.767 17.740 7.593 17.619 C 7.397 17.483,7.240 17.212,7.240 17.010 C 7.240 16.723,7.426 16.442,7.700 16.316 C 7.852 16.245,8.059 16.242,12.000 16.242 C 15.931 16.242,16.148 16.245,16.302 16.315 " fill="#292D32" stroke="none" fill-rule="evenodd"></path></svg>