<svg width="24" height="24" viewBox="0 0 24 24" fill="none" xmlns="http://www.w3.org/2000/svg"><path d="M18.503 2.040 C 17.828 2.162,17.156 2.550,16.703 3.080 C 15.987 3.917,15.806 5.100,16.234 6.151 C 16.521 6.857,17.143 7.479,17.849 7.766 C 18.989 8.230,20.251 7.978,21.115 7.115 C 22.238 5.992,22.295 4.212,21.246 3.020 C 20.897 2.624,20.276 2.239,19.756 2.097 C 19.491 2.024,18.770 1.991,18.503 2.040 M6.780 3.061 C 5.288 3.256,4.315 3.683,3.499 4.499 C 2.665 5.333,2.254 6.285,2.058 7.838 C 1.973 8.510,1.973 16.484,2.057 17.162 C 2.249 18.699,2.669 19.672,3.499 20.501 C 4.328 21.331,5.301 21.751,6.838 21.943 C 7.512 22.027,15.488 22.027,16.162 21.943 C 17.699 21.751,18.672 21.331,19.501 20.501 C 20.331 19.672,20.751 18.699,20.943 17.162 C 20.988 16.798,21.000 16.038,21.000 13.499 C 21.000 9.867,21.011 10.009,20.700 9.698 C 20.488 9.486,20.170 9.376,19.884 9.417 C 18.988 9.546,18.436 9.519,17.743 9.313 C 16.968 9.083,16.442 8.765,15.838 8.162 C 15.234 7.557,14.917 7.032,14.686 6.253 C 14.563 5.841,14.465 5.073,14.499 4.800 C 14.508 4.723,14.537 4.497,14.563 4.297 C 14.625 3.818,14.560 3.569,14.304 3.306 C 13.994 2.987,14.153 2.999,10.443 3.004 C 8.009 3.008,7.078 3.022,6.780 3.061 " fill="#292D32" stroke="none" fill-rule="evenodd"></path></svg>