<svg width="24" height="24" viewBox="0 0 24 24" fill="none" xmlns="http://www.w3.org/2000/svg"><path d="M18.503 2.040 C 17.828 2.162,17.156 2.550,16.703 3.080 C 15.987 3.917,15.806 5.100,16.234 6.151 C 16.521 6.857,17.143 7.479,17.849 7.766 C 18.989 8.230,20.251 7.978,21.115 7.115 C 22.238 5.992,22.295 4.212,21.246 3.020 C 20.897 2.624,20.276 2.239,19.756 2.097 C 19.491 2.024,18.770 1.991,18.503 2.040 M6.780 3.061 C 5.288 3.256,4.315 3.683,3.499 4.499 C 2.665 5.333,2.254 6.285,2.058 7.838 C 1.973 8.510,1.973 16.484,2.057 17.162 C 2.249 18.699,2.669 19.672,3.499 20.501 C 4.328 21.331,5.301 21.751,6.838 21.943 C 7.512 22.027,15.488 22.027,16.162 21.943 C 17.699 21.751,18.672 21.331,19.501 20.501 C 20.331 19.672,20.751 18.699,20.943 17.162 C 20.988 16.798,21.000 16.038,21.000 13.499 C 21.000 9.867,21.011 10.009,20.700 9.698 C 20.488 9.486,20.170 9.376,19.884 9.417 C 18.988 9.546,18.436 9.519,17.743 9.313 C 16.968 9.083,16.442 8.765,15.838 8.162 C 15.234 7.557,14.917 7.032,14.686 6.253 C 14.563 5.841,14.465 5.073,14.499 4.800 C 14.508 4.723,14.537 4.497,14.563 4.297 C 14.625 3.818,14.560 3.569,14.304 3.306 C 13.994 2.987,14.153 2.999,10.443 3.004 C 8.009 3.008,7.078 3.022,6.780 3.061 M12.064 12.568 C 12.229 12.658,12.433 12.895,12.463 13.031 C 12.476 13.091,12.493 13.160,12.500 13.185 C 12.528 13.279,12.431 13.584,12.332 13.714 C 12.276 13.788,12.155 13.882,12.065 13.923 C 11.909 13.994,11.752 13.998,9.249 13.999 C 7.081 14.000,6.574 13.990,6.469 13.945 C 6.312 13.877,6.100 13.660,6.042 13.507 C 5.891 13.107,6.155 12.626,6.583 12.524 C 6.674 12.502,7.830 12.489,9.340 12.493 C 11.703 12.499,11.951 12.506,12.064 12.568 M16.064 16.568 C 16.229 16.658,16.433 16.895,16.463 17.031 C 16.476 17.091,16.493 17.160,16.500 17.185 C 16.528 17.279,16.431 17.584,16.332 17.714 C 16.276 17.788,16.155 17.882,16.065 17.923 C 15.907 17.995,15.705 17.998,11.249 17.999 C 7.380 18.000,6.576 17.991,6.469 17.945 C 6.312 17.877,6.100 17.660,6.042 17.507 C 5.891 17.107,6.156 16.626,6.583 16.525 C 6.676 16.502,8.609 16.490,11.340 16.494 C 15.586 16.500,15.950 16.505,16.064 16.568 " fill="#292D32" stroke="none" fill-rule="evenodd"></path></svg>