<svg width="24" height="24" viewBox="0 0 24 24" fill="none" xmlns="http://www.w3.org/2000/svg"><path d="M18.503 2.040 C 17.828 2.162,17.156 2.550,16.703 3.080 C 15.987 3.917,15.806 5.100,16.234 6.151 C 16.521 6.857,17.143 7.479,17.849 7.766 C 18.989 8.230,20.251 7.978,21.115 7.115 C 22.238 5.992,22.295 4.212,21.246 3.020 C 20.897 2.624,20.276 2.239,19.756 2.097 C 19.491 2.024,18.770 1.991,18.503 2.040 M6.780 3.061 C 5.288 3.256,4.315 3.683,3.499 4.499 C 2.665 5.333,2.254 6.285,2.058 7.838 C 1.973 8.510,1.973 16.484,2.057 17.162 C 2.249 18.699,2.669 19.672,3.499 20.501 C 4.328 21.331,5.301 21.751,6.838 21.943 C 7.512 22.027,15.488 22.027,16.162 21.943 C 17.699 21.751,18.672 21.331,19.501 20.501 C 20.331 19.672,20.751 18.699,20.943 17.162 C 20.988 16.798,21.000 16.038,21.000 13.499 C 21.000 9.867,21.011 10.009,20.700 9.698 C 20.444 9.442,20.178 9.372,19.722 9.442 C 19.140 9.532,18.497 9.503,17.940 9.362 C 17.138 9.159,16.498 8.808,15.910 8.246 C 15.474 7.829,15.236 7.501,14.961 6.940 C 14.552 6.105,14.416 5.202,14.558 4.278 C 14.628 3.825,14.561 3.571,14.304 3.306 C 13.994 2.987,14.153 2.999,10.443 3.004 C 8.009 3.008,7.078 3.022,6.780 3.061 M8.723 12.263 C 8.842 12.298,9.017 12.371,9.110 12.425 L 9.281 12.524 9.589 12.372 C 9.894 12.221,9.900 12.220,10.378 12.221 C 10.850 12.221,10.867 12.224,11.170 12.368 C 12.093 12.805,12.577 13.897,12.342 15.009 C 12.271 15.341,12.020 15.886,11.786 16.214 C 11.205 17.027,9.985 17.811,9.300 17.811 C 8.738 17.811,7.803 17.292,7.177 16.632 C 6.831 16.267,6.624 15.956,6.436 15.520 C 6.256 15.100,6.200 14.846,6.200 14.444 C 6.200 13.195,7.074 12.206,8.183 12.201 C 8.364 12.201,8.601 12.228,8.723 12.263 " fill="#292D32" stroke="none" fill-rule="evenodd"></path></svg>