<svg width="24" height="24" viewBox="0 0 24 24" fill="none" xmlns="http://www.w3.org/2000/svg"><path d="M11.620 2.022 C 11.576 2.032,11.441 2.061,11.320 2.085 C 10.656 2.218,9.903 2.741,9.502 3.349 C 9.424 3.467,9.298 3.572,9.085 3.695 C 7.828 4.421,6.850 5.620,6.405 6.983 C 6.135 7.808,6.114 8.001,6.082 10.040 C 6.044 12.382,6.109 12.132,5.112 13.789 C 4.465 14.864,4.357 15.123,4.329 15.680 C 4.307 16.126,4.373 16.443,4.571 16.840 C 4.732 17.164,5.129 17.574,5.480 17.779 C 6.169 18.181,8.260 18.695,10.060 18.906 C 10.815 18.994,13.090 19.006,13.800 18.926 C 15.352 18.751,16.668 18.478,17.847 18.088 C 18.424 17.897,18.696 17.736,19.020 17.393 C 19.442 16.947,19.680 16.356,19.680 15.754 C 19.680 15.119,19.607 14.938,18.846 13.670 C 17.948 12.172,17.996 12.367,17.958 10.040 C 17.926 8.036,17.907 7.848,17.661 7.060 C 17.385 6.176,16.951 5.445,16.301 4.768 C 15.857 4.305,15.425 3.965,14.927 3.687 C 14.656 3.536,14.562 3.457,14.420 3.261 C 13.997 2.673,13.419 2.271,12.748 2.097 C 12.511 2.035,11.774 1.987,11.620 2.022 M9.200 20.042 C 9.200 20.067,9.276 20.235,9.368 20.414 C 9.600 20.863,10.127 21.391,10.580 21.627 C 11.075 21.886,11.450 21.979,12.000 21.977 C 12.862 21.974,13.520 21.699,14.142 21.080 C 14.373 20.851,14.721 20.330,14.781 20.125 C 14.809 20.030,14.807 20.030,14.574 20.052 C 13.173 20.188,12.735 20.208,11.620 20.186 C 10.625 20.167,9.854 20.111,9.330 20.019 C 9.246 20.004,9.200 20.013,9.200 20.042 " fill="#292D32" stroke="none" fill-rule="evenodd"></path></svg>