<svg width="24" height="24" viewBox="0 0 24 24" fill="none" xmlns="http://www.w3.org/2000/svg"><path d="M11.460 2.083 C 10.667 2.150,9.942 2.349,9.209 2.700 C 7.292 3.618,5.980 5.303,5.555 7.391 C 5.478 7.769,5.465 8.005,5.440 9.380 C 5.402 11.487,5.424 11.409,4.384 13.155 C 3.531 14.586,3.458 14.771,3.463 15.500 C 3.466 15.909,3.482 16.023,3.570 16.272 C 3.779 16.862,4.248 17.408,4.791 17.692 C 5.456 18.041,7.578 18.582,9.120 18.795 C 10.273 18.955,10.678 18.980,12.040 18.978 C 13.709 18.976,14.737 18.877,16.240 18.576 C 17.306 18.362,18.727 17.942,19.175 17.709 C 19.547 17.516,19.951 17.138,20.168 16.780 C 20.618 16.038,20.677 15.091,20.322 14.333 C 20.257 14.192,19.925 13.614,19.584 13.047 C 18.616 11.435,18.638 11.513,18.599 9.460 C 18.569 7.878,18.550 7.673,18.377 6.970 C 18.290 6.618,17.989 5.850,17.808 5.520 C 16.540 3.205,14.059 1.861,11.460 2.083 M12.292 6.214 C 12.447 6.279,12.667 6.519,12.709 6.671 C 12.749 6.813,12.749 10.107,12.709 10.249 C 12.662 10.419,12.454 10.628,12.259 10.703 C 11.921 10.832,11.569 10.716,11.356 10.407 L 11.260 10.266 11.249 8.494 C 11.238 6.812,11.242 6.714,11.315 6.571 C 11.400 6.402,11.483 6.320,11.660 6.227 C 11.808 6.148,12.119 6.142,12.292 6.214 M9.200 20.042 C 9.200 20.067,9.276 20.235,9.368 20.414 C 9.600 20.863,10.127 21.391,10.580 21.627 C 11.075 21.886,11.450 21.979,12.000 21.977 C 12.862 21.974,13.520 21.699,14.142 21.080 C 14.373 20.851,14.721 20.330,14.781 20.125 C 14.809 20.030,14.807 20.030,14.574 20.052 C 13.173 20.188,12.735 20.208,11.620 20.186 C 10.625 20.167,9.854 20.111,9.330 20.019 C 9.246 20.004,9.200 20.013,9.200 20.042 " fill="#292D32" stroke="none" fill-rule="evenodd"></path></svg>