<svg width="24" height="24" viewBox="0 0 24 24" fill="none" xmlns="http://www.w3.org/2000/svg"><path d="M11.120 2.039 C 8.336 2.318,5.905 3.624,4.193 5.760 C 1.474 9.155,1.267 13.917,3.682 17.533 C 6.770 22.155,12.946 23.386,17.560 20.299 C 22.155 17.225,23.377 11.041,20.299 6.440 C 18.728 4.092,16.319 2.562,13.493 2.119 C 12.909 2.027,11.660 1.985,11.120 2.039 M13.000 6.345 C 15.396 6.733,17.259 8.709,17.482 11.099 C 17.622 12.603,17.088 14.080,15.942 15.360 L 15.601 15.740 16.437 15.760 L 17.273 15.780 17.426 15.904 C 17.511 15.973,17.614 16.087,17.656 16.158 C 17.750 16.319,17.756 16.654,17.668 16.825 C 17.578 16.999,17.345 17.192,17.191 17.220 C 17.119 17.233,16.285 17.238,15.337 17.232 L 13.614 17.220 13.466 17.108 C 13.188 16.895,13.078 16.485,13.220 16.185 C 13.253 16.116,13.687 15.609,14.184 15.059 C 14.680 14.510,15.164 13.952,15.258 13.820 C 16.017 12.755,16.210 11.370,15.761 10.211 C 15.445 9.394,14.733 8.628,13.900 8.210 C 12.699 7.608,11.301 7.608,10.100 8.210 C 9.268 8.628,8.556 9.393,8.239 10.211 C 8.048 10.702,7.986 11.105,8.011 11.699 C 8.036 12.291,8.142 12.725,8.387 13.226 C 8.611 13.686,8.805 13.936,9.765 15.008 C 10.257 15.557,10.700 16.080,10.750 16.169 C 10.983 16.592,10.734 17.115,10.240 17.239 C 10.117 17.270,9.550 17.281,8.440 17.272 L 6.820 17.260 6.640 17.154 C 6.405 17.016,6.270 16.781,6.266 16.503 C 6.262 16.257,6.351 16.084,6.574 15.904 L 6.727 15.780 7.560 15.760 L 8.394 15.740 8.092 15.400 C 7.301 14.507,6.886 13.766,6.662 12.840 C 6.152 10.740,6.884 8.676,8.596 7.387 C 9.847 6.445,11.379 6.082,13.000 6.345 " fill="#292D32" stroke="none" fill-rule="evenodd"></path></svg>