<svg width="24" height="24" viewBox="0 0 24 24" fill="none" xmlns="http://www.w3.org/2000/svg"><path d="M6.960 2.046 C 6.236 2.116,5.358 2.357,4.796 2.641 C 4.426 2.828,3.928 3.183,3.624 3.475 C 2.737 4.332,2.251 5.370,2.062 6.812 C 1.970 7.515,1.969 16.481,2.061 17.188 C 2.239 18.550,2.681 19.544,3.476 20.372 C 4.162 21.084,4.935 21.524,5.956 21.780 C 6.817 21.997,6.896 22.000,11.993 22.000 C 14.960 22.000,16.828 21.985,17.041 21.959 C 19.985 21.603,21.695 19.840,21.962 16.885 C 21.990 16.579,21.999 14.787,21.989 11.660 C 21.974 7.001,21.972 6.891,21.889 6.456 C 21.642 5.171,21.165 4.235,20.369 3.478 C 19.583 2.729,18.652 2.295,17.359 2.076 C 16.995 2.014,7.572 1.987,6.960 2.046 M13.240 6.633 C 15.164 7.082,16.662 8.419,17.258 10.219 C 17.425 10.724,17.493 11.195,17.490 11.820 C 17.486 12.702,17.315 13.419,16.917 14.213 C 16.664 14.718,16.412 15.081,15.959 15.590 L 15.594 16.000 16.359 16.000 C 17.173 16.000,17.314 16.026,17.513 16.212 C 17.865 16.540,17.787 17.143,17.360 17.394 L 17.180 17.500 15.480 17.500 C 14.545 17.500,13.731 17.486,13.671 17.469 C 13.519 17.427,13.279 17.207,13.214 17.052 C 13.141 16.876,13.146 16.584,13.225 16.428 C 13.293 16.296,13.344 16.236,14.461 15.000 C 14.828 14.593,15.199 14.157,15.285 14.031 C 15.516 13.694,15.743 13.216,15.866 12.814 C 15.963 12.494,15.974 12.397,15.977 11.800 C 15.980 11.042,15.944 10.866,15.653 10.240 C 15.440 9.783,15.117 9.350,14.760 9.043 C 13.157 7.663,10.843 7.663,9.240 9.043 C 8.628 9.570,8.178 10.373,8.035 11.194 C 7.962 11.609,8.012 12.388,8.138 12.820 C 8.264 13.251,8.498 13.739,8.734 14.063 C 8.829 14.193,9.247 14.677,9.663 15.137 C 10.701 16.284,10.699 16.283,10.778 16.436 C 10.830 16.536,10.844 16.636,10.832 16.806 C 10.812 17.081,10.670 17.292,10.417 17.420 C 10.267 17.496,10.181 17.500,8.540 17.500 L 6.820 17.500 6.640 17.394 C 6.213 17.143,6.135 16.540,6.487 16.212 C 6.686 16.026,6.827 16.000,7.641 16.000 L 8.406 16.000 8.040 15.590 C 6.991 14.416,6.508 13.221,6.508 11.800 C 6.507 10.709,6.775 9.825,7.385 8.910 C 8.210 7.670,9.598 6.803,11.141 6.562 C 11.551 6.498,12.849 6.542,13.240 6.633 " fill="#292D32" stroke="none" fill-rule="evenodd"></path></svg>