<svg width="24" height="24" viewBox="0 0 24 24" fill="none" xmlns="http://www.w3.org/2000/svg"><path d="M11.540 2.065 C 11.163 2.144,10.463 2.493,10.020 2.824 C 9.473 3.231,2.158 10.558,1.750 11.107 C 0.658 12.576,0.757 13.755,2.109 15.360 C 2.453 15.769,7.014 20.331,7.533 20.786 C 9.264 22.302,10.547 22.383,12.209 21.080 C 12.519 20.837,18.656 14.774,19.476 13.900 C 20.596 12.706,21.048 11.767,20.987 10.759 C 20.938 9.944,20.552 9.124,19.792 8.220 C 19.400 7.754,14.981 3.357,14.640 3.094 C 13.456 2.179,12.504 1.864,11.540 2.065 M12.803 3.691 C 13.479 4.007,13.973 4.451,16.536 7.043 C 18.516 9.046,18.787 9.341,19.073 9.799 C 19.249 10.082,19.260 10.115,19.260 10.379 C 19.260 10.792,19.075 11.099,18.716 11.282 C 18.446 11.420,18.309 11.416,17.440 11.246 C 16.114 10.987,14.785 10.806,13.220 10.672 C 12.284 10.593,9.150 10.605,8.100 10.693 C 6.634 10.815,5.250 11.003,3.820 11.275 C 3.710 11.296,3.612 11.305,3.602 11.295 C 3.569 11.262,10.488 4.384,10.811 4.129 C 11.421 3.645,11.742 3.508,12.203 3.534 C 12.443 3.548,12.569 3.581,12.803 3.691 M19.080 16.064 C 18.959 16.096,18.763 16.189,18.644 16.270 C 18.425 16.420,17.968 16.953,17.710 17.360 C 16.798 18.799,16.775 20.365,17.654 21.257 C 18.489 22.104,19.938 22.238,20.971 21.563 C 21.324 21.333,21.554 21.073,21.736 20.700 C 21.926 20.308,21.978 20.051,21.976 19.520 C 21.971 18.541,21.593 17.637,20.784 16.670 C 20.307 16.099,19.725 15.892,19.080 16.064 " fill="#292D32" stroke="none" fill-rule="evenodd"></path></svg>