<svg width="24" height="24" viewBox="0 0 24 24" fill="none" xmlns="http://www.w3.org/2000/svg"><path d="M6.960 2.046 C 6.236 2.116,5.358 2.357,4.796 2.641 C 4.426 2.828,3.928 3.183,3.624 3.475 C 2.737 4.332,2.251 5.370,2.062 6.812 C 1.970 7.515,1.969 16.481,2.061 17.188 C 2.239 18.550,2.681 19.544,3.476 20.372 C 4.162 21.084,4.935 21.524,5.956 21.780 C 6.817 21.997,6.896 22.000,11.993 22.000 C 14.960 22.000,16.828 21.985,17.041 21.959 C 19.985 21.603,21.695 19.840,21.962 16.885 C 21.990 16.579,21.999 14.787,21.989 11.660 C 21.974 7.001,21.972 6.891,21.889 6.456 C 21.642 5.171,21.165 4.235,20.369 3.478 C 19.583 2.729,18.652 2.295,17.359 2.076 C 16.995 2.014,7.572 1.987,6.960 2.046 M12.924 5.921 C 14.434 6.229,15.642 7.180,16.308 8.585 C 16.524 9.042,16.665 9.582,16.723 10.175 C 16.782 10.778,16.749 14.062,16.682 14.340 C 16.655 14.450,16.551 14.711,16.451 14.920 C 16.297 15.243,16.217 15.352,15.925 15.642 C 15.366 16.196,14.763 16.449,14.000 16.449 C 13.237 16.449,12.634 16.196,12.075 15.642 C 11.783 15.352,11.703 15.242,11.548 14.920 C 11.276 14.353,11.261 14.240,11.260 12.820 C 11.260 12.138,11.273 11.532,11.290 11.473 C 11.362 11.215,11.708 10.963,11.991 10.961 C 12.153 10.960,12.388 11.055,12.513 11.172 C 12.735 11.379,12.738 11.402,12.760 12.780 C 12.783 14.217,12.781 14.211,13.085 14.541 C 13.180 14.643,13.348 14.775,13.458 14.833 C 13.630 14.923,13.710 14.939,14.000 14.939 C 14.291 14.939,14.369 14.924,14.544 14.832 C 14.657 14.773,14.831 14.633,14.931 14.521 C 15.250 14.167,15.246 14.203,15.231 11.933 C 15.218 9.971,15.217 9.936,15.125 9.660 C 14.824 8.753,14.232 8.058,13.426 7.665 C 12.908 7.412,12.604 7.344,12.000 7.344 C 11.396 7.344,11.092 7.412,10.574 7.665 C 9.768 8.058,9.177 8.752,8.875 9.660 C 8.782 9.937,8.781 9.961,8.769 12.119 C 8.754 14.585,8.758 14.625,9.049 15.211 C 9.287 15.689,9.771 16.168,10.240 16.390 C 10.642 16.580,10.859 16.638,11.329 16.678 C 11.740 16.713,11.950 16.825,12.079 17.078 C 12.168 17.252,12.185 17.530,12.118 17.707 C 12.047 17.895,11.838 18.077,11.621 18.142 C 11.249 18.253,10.337 18.092,9.702 17.804 C 9.254 17.600,8.872 17.324,8.460 16.904 C 7.757 16.187,7.393 15.425,7.279 14.431 C 7.227 13.984,7.230 10.630,7.282 10.123 C 7.498 8.018,8.989 6.356,11.051 5.923 C 11.572 5.814,12.394 5.813,12.924 5.921 " fill="#292D32" stroke="none" fill-rule="evenodd"></path></svg>