<svg width="24" height="24" viewBox="0 0 24 24" fill="none" xmlns="http://www.w3.org/2000/svg"><path d="M6.960 2.046 C 6.236 2.116,5.358 2.357,4.796 2.641 C 4.426 2.828,3.928 3.183,3.624 3.475 C 2.737 4.332,2.251 5.370,2.062 6.812 C 1.970 7.515,1.969 16.481,2.061 17.188 C 2.239 18.550,2.681 19.544,3.476 20.372 C 4.162 21.084,4.935 21.524,5.956 21.780 C 6.817 21.997,6.896 22.000,11.993 22.000 C 14.960 22.000,16.828 21.985,17.041 21.959 C 19.985 21.603,21.695 19.840,21.962 16.885 C 21.990 16.579,21.999 14.787,21.989 11.660 C 21.974 7.001,21.972 6.891,21.889 6.456 C 21.642 5.171,21.165 4.235,20.369 3.478 C 19.583 2.729,18.652 2.295,17.359 2.076 C 16.995 2.014,7.572 1.987,6.960 2.046 M13.995 6.640 C 16.282 7.116,17.888 9.222,17.743 11.555 C 17.683 12.518,17.386 13.340,16.827 14.095 C 16.569 14.442,14.677 16.381,14.100 16.889 C 13.505 17.412,12.933 17.638,12.196 17.639 C 11.159 17.641,10.237 17.070,9.776 16.140 C 9.321 15.220,9.391 14.173,9.965 13.331 C 10.151 13.058,11.627 11.572,11.832 11.451 C 12.129 11.276,12.523 11.326,12.748 11.567 C 12.863 11.689,12.960 11.925,12.960 12.080 C 12.960 12.338,12.841 12.495,12.005 13.340 C 11.036 14.319,10.980 14.404,10.980 14.900 C 10.980 15.169,10.998 15.256,11.091 15.446 C 11.219 15.708,11.450 15.932,11.715 16.054 C 11.987 16.179,12.468 16.174,12.740 16.045 C 13.017 15.912,15.465 13.467,15.727 13.060 C 16.142 12.418,16.330 11.663,16.251 10.965 C 16.092 9.564,15.190 8.510,13.844 8.153 C 13.410 8.038,12.623 8.040,12.180 8.157 C 11.779 8.263,11.419 8.431,11.104 8.657 C 10.970 8.754,10.210 9.487,9.416 10.286 C 8.039 11.672,7.964 11.755,7.809 12.069 C 7.584 12.523,7.505 12.904,7.530 13.415 C 7.564 14.096,7.771 14.595,8.251 15.155 C 8.465 15.404,8.532 15.628,8.473 15.891 C 8.379 16.312,7.978 16.552,7.556 16.440 C 7.333 16.381,7.007 16.056,6.704 15.591 C 5.933 14.409,5.800 12.959,6.343 11.668 C 6.627 10.993,6.749 10.845,8.357 9.227 C 9.183 8.394,10.002 7.606,10.175 7.475 C 10.796 7.004,11.690 6.651,12.480 6.564 C 12.914 6.516,13.554 6.548,13.995 6.640 " fill="#292D32" stroke="none" fill-rule="evenodd"></path></svg>