<svg width="24" height="24" viewBox="0 0 24 24" fill="none" xmlns="http://www.w3.org/2000/svg"><path d="M14.700 2.076 C 14.506 2.165,14.384 2.292,14.302 2.489 C 14.247 2.622,14.240 3.640,14.240 12.000 C 14.240 22.189,14.225 21.508,14.452 21.755 C 14.570 21.884,14.828 21.998,15.000 21.998 C 15.310 21.998,15.635 21.750,15.718 21.449 C 15.741 21.367,15.760 21.009,15.760 20.653 L 15.760 20.005 17.190 19.991 C 18.588 19.976,18.629 19.973,19.011 19.870 C 20.511 19.464,21.608 18.294,21.918 16.769 C 22.001 16.364,22.002 16.289,21.991 11.869 L 21.980 7.380 21.873 6.995 C 21.543 5.797,20.797 4.914,19.663 4.376 C 18.983 4.054,18.821 4.030,17.190 4.010 L 15.760 3.993 15.759 3.307 C 15.758 2.725,15.747 2.596,15.684 2.460 C 15.503 2.068,15.077 1.902,14.700 2.076 M5.943 4.044 C 4.245 4.295,2.897 5.579,2.581 7.248 C 2.490 7.729,2.490 16.271,2.581 16.752 C 2.873 18.294,4.020 19.491,5.588 19.890 C 5.937 19.979,5.965 19.980,8.860 19.980 L 11.780 19.980 11.944 19.892 C 12.134 19.790,12.347 19.562,12.425 19.374 C 12.507 19.178,12.507 4.822,12.425 4.626 C 12.347 4.438,12.134 4.210,11.944 4.108 C 11.780 4.020,11.780 4.020,8.980 4.014 C 7.440 4.011,6.074 4.024,5.943 4.044 M6.271 11.146 C 6.486 11.279,6.698 11.594,6.741 11.843 C 6.779 12.072,6.731 12.285,6.587 12.526 C 6.483 12.699,6.413 12.762,6.200 12.873 C 5.968 12.994,5.914 13.006,5.699 12.989 C 5.408 12.967,5.178 12.856,5.001 12.655 C 4.822 12.451,4.760 12.284,4.761 12.011 C 4.762 11.601,4.969 11.273,5.340 11.093 C 5.620 10.957,5.999 10.978,6.271 11.146 M9.553 11.062 C 10.385 11.309,10.482 12.488,9.703 12.888 C 9.616 12.933,9.441 12.978,9.313 12.990 C 9.108 13.009,9.049 12.996,8.818 12.882 C 8.512 12.731,8.352 12.540,8.279 12.238 C 8.217 11.977,8.254 11.749,8.400 11.493 C 8.637 11.078,9.067 10.917,9.553 11.062 " fill="#292D32" stroke="none" fill-rule="evenodd"></path></svg>