<svg width="24" height="24" viewBox="0 0 24 24" fill="none" xmlns="http://www.w3.org/2000/svg"><path d="M6.960 2.046 C 6.236 2.116,5.358 2.357,4.796 2.641 C 4.426 2.828,3.928 3.183,3.624 3.475 C 2.737 4.332,2.251 5.370,2.062 6.812 C 1.970 7.515,1.969 16.481,2.061 17.188 C 2.239 18.550,2.681 19.544,3.476 20.372 C 4.162 21.084,4.935 21.524,5.956 21.780 C 6.817 21.997,6.896 22.000,11.993 22.000 C 14.960 22.000,16.828 21.985,17.041 21.959 C 19.985 21.603,21.695 19.840,21.962 16.885 C 21.990 16.579,21.999 14.787,21.989 11.660 C 21.974 7.001,21.972 6.891,21.889 6.456 C 21.642 5.171,21.165 4.235,20.369 3.478 C 19.583 2.729,18.652 2.295,17.359 2.076 C 16.995 2.014,7.572 1.987,6.960 2.046 M14.380 6.911 C 14.591 7.002,14.761 7.154,15.772 8.157 C 17.100 9.475,17.169 9.569,17.194 10.126 C 17.225 10.806,17.075 10.992,15.913 11.720 C 15.444 12.014,15.054 12.258,15.047 12.263 C 15.040 12.268,15.074 12.926,15.121 13.726 C 15.215 15.284,15.205 15.557,15.042 15.875 C 14.873 16.207,14.504 16.440,13.960 16.558 C 13.525 16.653,8.462 17.230,8.371 17.196 C 8.270 17.158,8.219 17.009,8.262 16.873 C 8.277 16.822,8.674 16.393,9.143 15.920 C 9.611 15.447,10.016 15.006,10.041 14.940 C 10.268 14.342,9.686 13.756,9.088 13.981 C 8.937 14.039,8.728 14.222,8.016 14.926 C 7.414 15.522,7.105 15.800,7.046 15.800 C 6.952 15.800,6.800 15.670,6.800 15.590 C 6.799 15.413,7.412 10.286,7.461 10.060 C 7.585 9.483,7.809 9.159,8.207 8.980 C 8.424 8.883,8.519 8.866,8.919 8.852 C 9.172 8.844,9.909 8.870,10.556 8.910 L 11.733 8.982 11.978 8.601 C 12.113 8.391,12.357 8.005,12.522 7.742 C 12.686 7.479,12.888 7.197,12.970 7.116 C 13.339 6.754,13.848 6.680,14.380 6.911 " fill="#292D32" stroke="none" fill-rule="evenodd"></path></svg>