<svg width="24" height="24" viewBox="0 0 24 24" fill="none" xmlns="http://www.w3.org/2000/svg"><path d="M14.625 3.063 C 14.496 3.095,14.280 3.178,14.145 3.249 C 13.716 3.475,13.486 3.753,12.707 4.989 C 12.316 5.610,11.959 6.202,11.914 6.305 C 11.815 6.528,11.825 6.853,11.939 7.100 C 12.042 7.324,16.672 11.959,16.913 12.078 C 17.142 12.192,17.416 12.219,17.640 12.150 C 17.865 12.080,19.983 10.748,20.276 10.493 C 20.559 10.246,20.764 9.922,20.877 9.542 C 20.955 9.279,20.966 9.170,20.950 8.806 C 20.938 8.524,20.903 8.292,20.847 8.120 C 20.664 7.559,20.577 7.455,18.681 5.547 C 17.701 4.561,16.792 3.672,16.660 3.571 C 16.034 3.094,15.277 2.906,14.625 3.063 M6.060 6.619 C 4.987 6.817,4.443 7.426,4.180 8.720 C 4.113 9.053,3.040 18.078,3.040 18.312 C 3.040 18.512,3.153 18.722,3.309 18.811 C 3.473 18.906,3.825 18.910,4.006 18.819 C 4.080 18.782,4.770 18.125,5.540 17.358 C 6.996 15.909,7.126 15.802,7.440 15.802 C 7.641 15.802,7.886 15.926,8.031 16.102 C 8.233 16.346,8.268 16.678,8.121 16.961 C 8.093 17.015,7.427 17.708,6.642 18.500 C 5.136 20.019,5.120 20.039,5.120 20.396 C 5.120 20.673,5.305 20.911,5.570 20.975 C 5.684 21.003,14.686 19.967,15.270 19.859 C 16.307 19.666,16.910 19.297,17.223 18.660 C 17.495 18.108,17.526 17.676,17.419 15.934 C 17.349 14.795,17.323 14.645,17.128 14.260 C 16.997 14.002,16.722 13.715,13.563 10.555 C 11.581 8.571,10.047 7.068,9.920 6.984 C 9.561 6.746,9.285 6.682,8.340 6.618 C 7.317 6.549,6.435 6.550,6.060 6.619 " fill="#292D32" stroke="none" fill-rule="evenodd"></path></svg>