<svg width="24" height="24" viewBox="0 0 24 24" fill="none" xmlns="http://www.w3.org/2000/svg"><path d="M10.340 2.635 C 10.274 2.676,10.173 2.762,10.116 2.825 C 9.936 3.023,4.838 9.482,4.579 9.840 C 4.080 10.529,3.880 11.018,3.880 11.551 C 3.880 12.083,4.076 12.523,4.540 13.031 C 4.672 13.176,5.149 13.625,5.600 14.029 C 6.466 14.804,6.743 14.989,7.170 15.078 C 7.317 15.108,8.806 15.118,12.120 15.111 L 16.860 15.100 17.091 15.012 C 17.427 14.883,17.630 14.735,18.449 14.012 C 19.230 13.324,19.478 13.064,19.769 12.630 C 20.037 12.230,20.134 11.891,20.112 11.431 C 20.089 10.960,19.944 10.583,19.567 10.020 C 19.420 9.800,18.072 8.061,16.572 6.156 C 14.390 3.384,13.815 2.677,13.697 2.621 C 13.400 2.480,13.048 2.632,12.884 2.972 C 12.802 3.140,12.800 3.197,12.800 4.971 C 12.800 6.147,12.784 6.869,12.756 7.001 C 12.677 7.370,12.384 7.611,12.017 7.611 C 11.761 7.611,11.512 7.481,11.388 7.282 C 11.301 7.142,11.300 7.114,11.280 5.140 C 11.261 3.287,11.255 3.130,11.185 3.000 C 10.973 2.602,10.630 2.454,10.340 2.635 M8.630 16.377 C 8.335 16.482,8.096 16.722,8.006 17.000 C 7.907 17.309,7.434 19.477,7.413 19.720 C 7.332 20.645,7.979 21.507,9.040 21.886 L 9.300 21.978 11.840 21.991 C 14.471 22.005,14.659 21.996,15.144 21.837 C 15.841 21.610,16.419 20.979,16.562 20.291 C 16.635 19.939,16.590 19.612,16.280 18.240 C 15.978 16.905,15.915 16.732,15.666 16.542 C 15.367 16.314,15.468 16.320,11.985 16.322 C 9.412 16.323,8.750 16.334,8.630 16.377 " fill="#292D32" stroke="none" fill-rule="evenodd"></path></svg>