<svg width="24" height="24" viewBox="0 0 24 24" fill="none" xmlns="http://www.w3.org/2000/svg"><path d="M11.260 2.024 C 9.481 2.206,8.131 2.639,6.786 3.457 C 4.160 5.053,2.465 7.673,2.035 10.800 C 1.967 11.291,1.967 12.709,2.035 13.200 C 2.450 16.218,4.020 18.728,6.528 20.386 C 7.719 21.173,9.126 21.692,10.700 21.926 C 11.243 22.006,12.783 21.996,13.360 21.908 C 14.429 21.745,15.421 21.434,16.380 20.961 C 19.152 19.594,21.123 17.056,21.760 14.034 C 21.984 12.969,22.019 11.454,21.844 10.418 C 21.469 8.200,20.480 6.324,18.873 4.780 C 17.365 3.331,15.503 2.426,13.360 2.102 C 12.956 2.040,11.591 1.990,11.260 2.024 M10.416 8.381 C 10.486 8.414,10.579 8.500,10.622 8.571 C 10.698 8.696,10.700 8.795,10.700 12.000 C 10.700 15.681,10.716 15.472,10.420 15.620 C 10.274 15.693,10.180 15.700,9.340 15.700 C 8.535 15.700,8.404 15.691,8.290 15.629 C 8.002 15.472,8.021 15.711,8.009 12.078 C 7.997 8.486,7.992 8.576,8.236 8.411 C 8.368 8.323,8.398 8.320,9.330 8.320 C 10.103 8.320,10.313 8.332,10.416 8.381 M15.784 8.422 C 16.005 8.587,16.002 8.538,15.991 12.058 C 15.979 15.671,15.995 15.472,15.700 15.620 C 15.554 15.693,15.460 15.700,14.640 15.700 C 13.626 15.700,13.504 15.674,13.373 15.433 C 13.304 15.308,13.300 15.113,13.300 12.000 C 13.300 8.971,13.306 8.690,13.368 8.576 C 13.500 8.335,13.589 8.319,14.687 8.330 C 15.610 8.339,15.681 8.345,15.784 8.422 " fill="#292D32" stroke="none" fill-rule="evenodd"></path></svg>