<svg width="24" height="24" viewBox="0 0 24 24" fill="none" xmlns="http://www.w3.org/2000/svg"><path d="M4.439 3.038 C 3.951 3.103,3.531 3.316,3.324 3.601 C 3.258 3.691,3.163 3.886,3.112 4.033 L 3.020 4.300 3.020 12.000 L 3.020 19.700 3.112 19.967 C 3.283 20.460,3.544 20.710,4.080 20.891 C 4.334 20.977,4.392 20.979,6.674 20.991 C 8.591 21.001,9.063 20.993,9.314 20.945 C 10.058 20.804,10.418 20.475,10.580 19.791 C 10.669 19.413,10.669 4.587,10.580 4.209 C 10.466 3.725,10.248 3.423,9.880 3.238 C 9.455 3.025,9.470 3.026,6.980 3.017 C 5.704 3.012,4.561 3.022,4.439 3.038 M14.769 3.045 C 14.069 3.148,13.651 3.470,13.449 4.060 C 13.385 4.246,13.379 4.802,13.368 11.840 C 13.360 17.202,13.370 19.496,13.401 19.680 C 13.515 20.354,13.852 20.724,14.524 20.909 C 14.756 20.973,15.009 20.980,17.180 20.980 C 19.351 20.980,19.604 20.973,19.836 20.909 C 20.412 20.750,20.728 20.462,20.890 19.947 L 20.980 19.660 20.980 12.000 L 20.980 4.340 20.890 4.053 C 20.730 3.546,20.420 3.258,19.857 3.093 C 19.646 3.032,19.368 3.023,17.320 3.016 C 16.055 3.011,14.907 3.024,14.769 3.045 " fill="#292D32" stroke="none" fill-rule="evenodd"></path></svg>