<svg width="24" height="24" viewBox="0 0 24 24" fill="none" xmlns="http://www.w3.org/2000/svg"><path d="M11.060 1.574 C 10.580 1.729,10.192 2.159,10.071 2.672 L 10.022 2.878 9.801 2.921 C 7.218 3.427,5.019 5.121,3.857 7.501 C 3.448 8.336,3.130 9.439,3.059 10.260 C 3.024 10.665,3.008 10.720,2.926 10.720 C 2.782 10.720,2.366 10.965,2.189 11.155 C 1.814 11.556,1.745 11.827,1.770 12.800 C 1.790 13.588,1.824 13.732,2.072 14.060 C 2.272 14.325,2.599 14.543,2.916 14.623 C 3.117 14.674,3.321 14.684,3.876 14.672 C 4.523 14.659,4.600 14.649,4.828 14.554 C 5.239 14.383,5.540 14.068,5.684 13.657 C 5.758 13.448,5.764 13.347,5.753 12.603 C 5.740 11.810,5.736 11.772,5.635 11.560 C 5.477 11.230,5.276 11.023,4.953 10.862 C 4.797 10.784,4.634 10.720,4.592 10.720 C 4.521 10.720,4.517 10.700,4.540 10.490 C 4.643 9.558,4.864 8.824,5.286 8.000 C 6.054 6.505,7.330 5.360,8.944 4.719 C 9.211 4.612,9.945 4.400,10.045 4.400 C 10.066 4.400,10.100 4.450,10.122 4.510 C 10.261 4.890,10.614 5.256,10.989 5.406 C 11.204 5.492,11.277 5.498,12.020 5.498 C 12.763 5.498,12.836 5.492,13.051 5.406 C 13.374 5.277,13.718 4.950,13.856 4.641 C 13.979 4.368,13.929 4.378,14.460 4.527 C 15.179 4.728,15.973 5.108,16.600 5.551 C 17.085 5.894,17.862 6.670,18.211 7.160 C 18.540 7.623,18.991 8.523,19.155 9.045 C 19.287 9.462,19.418 10.077,19.457 10.461 L 19.482 10.703 19.298 10.752 C 18.902 10.858,18.538 11.178,18.349 11.587 C 18.265 11.768,18.260 11.834,18.260 12.680 L 18.260 13.580 18.370 13.803 C 18.585 14.241,18.984 14.546,19.466 14.640 C 19.820 14.710,21.003 14.674,21.240 14.586 C 21.677 14.424,22.067 13.986,22.183 13.524 C 22.234 13.322,22.244 13.122,22.231 12.564 C 22.212 11.727,22.157 11.534,21.835 11.182 C 21.640 10.968,21.231 10.720,21.074 10.720 C 20.992 10.720,20.975 10.663,20.939 10.260 C 20.926 10.106,20.872 9.764,20.819 9.500 C 20.266 6.729,18.293 4.385,15.640 3.348 C 15.262 3.200,14.431 2.964,14.104 2.912 C 14.050 2.903,14.014 2.840,13.973 2.682 C 13.853 2.213,13.581 1.868,13.160 1.653 C 12.941 1.540,12.936 1.540,12.080 1.531 C 11.465 1.525,11.174 1.537,11.060 1.574 M11.765 10.043 C 11.516 10.092,11.283 10.215,11.096 10.394 C 10.965 10.520,8.286 13.885,7.867 14.450 C 7.806 14.533,7.701 14.718,7.633 14.861 C 7.525 15.093,7.513 15.155,7.526 15.415 C 7.550 15.894,7.651 16.021,8.857 17.090 L 9.883 18.000 12.011 17.998 L 14.140 17.996 15.060 17.179 C 16.300 16.079,16.490 15.833,16.490 15.328 C 16.490 14.894,16.370 14.711,14.661 12.540 C 13.812 11.462,13.037 10.505,12.937 10.412 C 12.604 10.102,12.167 9.964,11.765 10.043 M9.923 18.670 C 9.847 18.709,9.753 18.785,9.713 18.840 C 9.672 18.897,9.562 19.291,9.457 19.760 C 9.313 20.399,9.277 20.631,9.293 20.809 C 9.339 21.352,9.737 21.781,10.338 21.938 C 10.533 21.988,10.845 22.000,12.022 22.000 C 12.930 22.000,13.550 21.983,13.690 21.955 C 14.011 21.891,14.353 21.689,14.525 21.463 C 14.700 21.232,14.760 21.046,14.759 20.735 C 14.758 20.445,14.440 19.007,14.345 18.862 C 14.307 18.804,14.218 18.721,14.148 18.678 C 14.026 18.604,13.932 18.600,12.040 18.600 C 10.234 18.600,10.048 18.606,9.923 18.670 " fill="#292D32" stroke="none" fill-rule="evenodd"></path></svg>