<svg width="24" height="24" viewBox="0 0 24 24" fill="none" xmlns="http://www.w3.org/2000/svg"><path d="M5.900 2.045 C 4.185 2.294,2.785 3.451,2.237 5.070 C 1.815 6.316,1.966 7.653,2.663 8.842 C 2.934 9.304,3.652 10.031,4.117 10.314 C 5.983 11.447,8.267 11.149,9.761 9.576 C 11.840 7.387,11.203 3.822,8.489 2.464 C 7.753 2.095,6.712 1.927,5.900 2.045 M16.760 2.801 C 16.436 2.869,16.076 3.077,15.798 3.357 C 15.603 3.554,15.358 3.904,14.825 4.750 C 14.433 5.371,14.086 5.965,14.054 6.070 C 13.987 6.286,14.006 6.532,14.106 6.753 C 14.148 6.846,15.017 7.747,16.476 9.211 C 18.234 10.974,18.827 11.546,18.978 11.621 C 19.193 11.729,19.543 11.755,19.743 11.679 C 19.803 11.656,20.358 11.319,20.976 10.929 C 22.463 9.991,22.677 9.777,22.864 9.040 C 22.951 8.694,22.924 8.119,22.803 7.760 C 22.605 7.177,22.504 7.057,20.684 5.227 C 18.990 3.524,18.684 3.244,18.301 3.051 C 17.819 2.806,17.208 2.707,16.760 2.801 M6.787 4.123 C 6.849 4.146,6.951 4.213,7.014 4.273 C 7.227 4.474,7.255 4.575,7.273 5.187 L 7.289 5.754 7.861 5.767 L 8.433 5.780 8.586 5.904 C 8.805 6.081,8.891 6.248,8.891 6.494 C 8.891 6.727,8.822 6.888,8.654 7.047 C 8.479 7.212,8.357 7.240,7.802 7.240 L 7.289 7.240 7.273 7.810 C 7.255 8.425,7.227 8.526,7.014 8.727 C 6.873 8.861,6.721 8.920,6.520 8.920 C 6.319 8.920,6.167 8.861,6.026 8.727 C 5.813 8.526,5.785 8.425,5.767 7.810 L 5.751 7.240 5.198 7.240 C 4.603 7.240,4.482 7.214,4.306 7.047 C 4.138 6.888,4.069 6.727,4.069 6.494 C 4.069 6.248,4.155 6.081,4.374 5.904 L 4.527 5.780 5.139 5.767 L 5.751 5.754 5.767 5.187 C 5.785 4.587,5.816 4.470,6.006 4.293 C 6.223 4.091,6.528 4.024,6.787 4.123 M12.440 7.277 C 12.440 7.461,12.331 7.944,12.195 8.360 C 11.608 10.153,10.186 11.595,8.426 12.180 C 7.164 12.599,5.986 12.610,4.686 12.216 C 4.502 12.161,4.344 12.122,4.335 12.132 C 4.326 12.141,4.127 13.740,3.894 15.684 C 3.442 19.448,3.410 19.863,3.533 20.369 C 3.729 21.174,4.228 21.786,4.981 22.146 C 5.337 22.316,5.724 22.398,6.171 22.399 C 6.608 22.400,16.271 21.268,16.800 21.154 C 18.023 20.890,18.670 20.344,18.905 19.377 C 19.008 18.955,18.996 18.209,18.844 15.640 C 18.713 13.411,18.706 13.336,18.615 13.200 C 18.564 13.123,17.194 11.732,15.570 10.110 C 13.424 7.964,12.594 7.160,12.529 7.160 C 12.457 7.160,12.440 7.183,12.440 7.277 " fill="#292D32" stroke="none" fill-rule="evenodd"></path></svg>