<svg width="24" height="24" viewBox="0 0 24 24" fill="none" xmlns="http://www.w3.org/2000/svg"><path d="M11.540 1.294 C 11.188 1.410,11.005 1.544,10.475 2.075 C 9.887 2.663,9.763 2.848,9.675 3.273 C 9.609 3.594,9.668 3.966,9.839 4.297 L 9.963 4.537 7.477 7.023 L 4.991 9.509 4.845 9.476 C 4.583 9.415,3.323 9.433,3.058 9.502 C 2.595 9.623,2.231 9.924,2.024 10.360 L 1.900 10.620 1.900 11.580 L 1.900 12.540 2.018 12.780 C 2.082 12.912,2.230 13.115,2.347 13.232 C 2.721 13.606,3.105 13.719,4.000 13.719 C 4.895 13.719,5.279 13.606,5.653 13.232 C 5.770 13.115,5.918 12.912,5.982 12.780 L 6.100 12.540 6.100 11.530 L 6.100 10.520 8.562 8.058 L 11.024 5.596 11.250 5.715 C 11.732 5.968,12.228 5.969,12.728 5.716 L 12.972 5.593 15.462 8.082 L 17.951 10.570 17.912 10.711 C 17.890 10.788,17.879 11.220,17.887 11.677 L 17.900 12.502 18.028 12.761 C 18.194 13.098,18.473 13.378,18.800 13.535 L 19.060 13.660 19.933 13.673 C 20.718 13.684,20.828 13.678,21.041 13.606 C 21.634 13.406,22.015 12.951,22.117 12.320 C 22.170 11.995,22.172 11.137,22.121 10.825 C 22.013 10.166,21.540 9.639,20.926 9.494 C 20.671 9.434,19.391 9.421,19.155 9.476 L 19.009 9.509 16.521 7.021 L 14.034 4.533 14.158 4.297 C 14.328 3.970,14.387 3.630,14.328 3.313 C 14.246 2.873,14.114 2.669,13.517 2.070 C 12.836 1.385,12.629 1.269,12.060 1.252 C 11.839 1.245,11.638 1.261,11.540 1.294 M11.729 10.041 C 11.483 10.091,11.197 10.259,10.990 10.474 C 10.767 10.706,8.000 14.209,7.774 14.546 C 7.554 14.874,7.466 15.147,7.488 15.434 C 7.523 15.903,7.658 16.068,8.896 17.158 L 9.853 18.000 11.979 18.000 L 14.105 18.000 15.006 17.204 C 15.502 16.766,15.984 16.320,16.078 16.214 C 16.560 15.667,16.594 15.169,16.191 14.560 C 15.971 14.226,13.207 10.722,12.964 10.468 C 12.639 10.129,12.142 9.957,11.729 10.041 M9.879 18.675 C 9.803 18.716,9.709 18.803,9.670 18.868 C 9.564 19.048,9.271 20.374,9.265 20.700 C 9.261 20.932,9.279 21.019,9.372 21.208 C 9.512 21.492,9.809 21.765,10.112 21.888 C 10.337 21.979,10.359 21.980,12.020 21.980 C 13.681 21.980,13.703 21.979,13.928 21.888 C 14.430 21.685,14.737 21.256,14.736 20.760 C 14.735 20.368,14.412 18.981,14.287 18.832 C 14.087 18.594,14.142 18.600,11.991 18.600 C 10.144 18.600,10.010 18.605,9.879 18.675 " fill="#292D32" stroke="none" fill-rule="evenodd"></path></svg>