<svg width="24" height="24" viewBox="0 0 24 24" fill="none" xmlns="http://www.w3.org/2000/svg"><path d="M5.928 2.043 C 4.684 2.204,3.458 2.960,2.776 3.984 C 1.239 6.294,2.103 9.386,4.619 10.578 C 5.756 11.117,7.186 11.126,8.341 10.602 C 8.998 10.304,9.806 9.628,10.194 9.051 C 10.578 8.480,10.839 7.807,10.942 7.120 C 11.380 4.217,8.857 1.662,5.928 2.043 M16.760 2.801 C 16.436 2.869,16.076 3.077,15.798 3.357 C 15.603 3.554,15.358 3.904,14.825 4.750 C 14.433 5.371,14.086 5.965,14.054 6.070 C 13.987 6.286,14.006 6.532,14.106 6.753 C 14.148 6.846,15.017 7.747,16.476 9.211 C 18.234 10.974,18.827 11.546,18.978 11.621 C 19.193 11.729,19.543 11.755,19.743 11.679 C 19.803 11.656,20.358 11.319,20.976 10.929 C 22.463 9.991,22.677 9.777,22.864 9.040 C 22.951 8.694,22.924 8.119,22.803 7.760 C 22.605 7.177,22.504 7.057,20.684 5.227 C 18.990 3.524,18.684 3.244,18.301 3.051 C 17.819 2.806,17.208 2.707,16.760 2.801 M5.621 4.618 C 5.697 4.649,5.930 4.841,6.140 5.044 L 6.522 5.413 6.894 5.048 C 7.297 4.653,7.402 4.593,7.688 4.594 C 7.902 4.596,8.055 4.664,8.205 4.826 C 8.360 4.994,8.404 5.102,8.406 5.312 C 8.407 5.598,8.347 5.703,7.958 6.100 C 7.761 6.301,7.600 6.482,7.600 6.503 C 7.600 6.524,7.763 6.703,7.963 6.901 C 8.380 7.314,8.440 7.408,8.440 7.655 C 8.440 7.983,8.284 8.223,7.980 8.364 C 7.632 8.525,7.425 8.441,6.910 7.929 L 6.520 7.542 6.130 7.927 C 5.658 8.392,5.549 8.455,5.237 8.432 C 4.844 8.404,4.560 8.097,4.560 7.700 C 4.560 7.437,4.639 7.310,5.073 6.870 L 5.458 6.480 5.071 6.090 C 4.569 5.585,4.482 5.384,4.622 5.049 C 4.793 4.639,5.225 4.453,5.621 4.618 M12.389 7.565 C 12.246 8.400,11.814 9.401,11.302 10.083 C 10.792 10.763,9.926 11.495,9.202 11.858 C 7.796 12.564,6.148 12.691,4.672 12.206 L 4.325 12.092 4.302 12.236 C 4.290 12.315,4.089 13.982,3.856 15.940 C 3.396 19.808,3.392 19.870,3.560 20.474 C 3.885 21.640,4.907 22.399,6.160 22.405 C 6.526 22.407,15.694 21.355,16.480 21.221 C 17.907 20.978,18.614 20.448,18.906 19.400 C 19.013 19.015,18.998 18.039,18.847 15.613 C 18.777 14.487,18.720 13.498,18.720 13.415 C 18.720 13.268,18.634 13.177,15.671 10.212 C 13.618 8.157,12.595 7.160,12.540 7.160 C 12.467 7.160,12.450 7.206,12.389 7.565 " fill="#292D32" stroke="none" fill-rule="evenodd"></path></svg>