<svg width="24" height="24" viewBox="0 0 24 24" fill="none" xmlns="http://www.w3.org/2000/svg"><path d="M6.960 2.046 C 6.236 2.116,5.358 2.357,4.796 2.641 C 4.426 2.828,3.928 3.183,3.624 3.475 C 2.737 4.332,2.251 5.370,2.062 6.812 C 1.970 7.515,1.969 16.481,2.061 17.188 C 2.239 18.550,2.681 19.544,3.476 20.372 C 4.162 21.084,4.935 21.524,5.956 21.780 C 6.817 21.997,6.896 22.000,11.993 22.000 C 14.960 22.000,16.828 21.985,17.041 21.959 C 19.985 21.603,21.695 19.840,21.962 16.885 C 21.990 16.579,21.999 14.787,21.989 11.660 C 21.974 7.001,21.972 6.891,21.889 6.456 C 21.642 5.171,21.165 4.235,20.369 3.478 C 19.583 2.729,18.652 2.295,17.359 2.076 C 16.995 2.014,7.572 1.987,6.960 2.046 M9.913 7.839 C 11.157 8.506,10.855 10.349,9.460 10.596 C 9.194 10.643,8.798 10.583,8.557 10.459 C 8.337 10.344,8.038 10.033,7.907 9.781 C 7.793 9.559,7.783 9.508,7.781 9.140 C 7.780 8.766,7.788 8.724,7.907 8.500 C 8.101 8.134,8.354 7.899,8.708 7.757 C 8.861 7.695,8.977 7.682,9.280 7.691 C 9.623 7.702,9.684 7.716,9.913 7.839 M15.720 8.062 C 15.941 8.174,16.121 8.474,16.119 8.729 C 16.119 8.801,16.085 8.932,16.043 9.020 C 15.992 9.130,14.902 10.245,12.574 12.568 C 9.428 15.709,9.168 15.959,9.020 15.982 C 8.814 16.014,8.825 16.014,8.642 15.985 C 8.223 15.918,7.965 15.395,8.142 14.969 C 8.185 14.864,9.192 13.830,11.512 11.508 C 13.331 9.687,14.880 8.158,14.954 8.112 C 15.192 7.963,15.487 7.944,15.720 8.062 M16.400 13.528 C 16.686 13.668,16.937 13.920,17.093 14.220 C 17.207 14.441,17.217 14.492,17.219 14.860 C 17.220 15.219,17.209 15.283,17.107 15.490 C 16.815 16.084,16.154 16.429,15.528 16.315 C 14.390 16.106,13.913 14.763,14.666 13.884 C 14.955 13.547,15.322 13.396,15.820 13.410 C 16.117 13.418,16.218 13.439,16.400 13.528 " fill="#292D32" stroke="none" fill-rule="evenodd"></path></svg>