<svg width="24" height="24" viewBox="0 0 24 24" fill="none" xmlns="http://www.w3.org/2000/svg"><path d="M11.120 2.039 C 8.336 2.318,5.905 3.624,4.193 5.760 C 1.474 9.155,1.267 13.917,3.682 17.533 C 6.770 22.155,12.946 23.386,17.560 20.299 C 22.155 17.225,23.377 11.041,20.299 6.440 C 18.728 4.092,16.319 2.562,13.493 2.119 C 12.909 2.027,11.660 1.985,11.120 2.039 M9.258 7.763 C 9.553 7.873,9.890 8.185,10.052 8.496 C 10.169 8.722,10.178 8.769,10.178 9.140 C 10.178 9.510,10.169 9.558,10.053 9.780 C 9.651 10.554,8.785 10.832,8.027 10.429 C 7.484 10.141,7.179 9.519,7.279 8.905 C 7.368 8.357,7.732 7.929,8.274 7.736 C 8.506 7.653,9.000 7.666,9.258 7.763 M15.254 8.095 C 15.601 8.285,15.711 8.774,15.484 9.122 C 15.327 9.364,8.815 15.854,8.643 15.941 C 8.315 16.105,7.880 15.971,7.691 15.648 C 7.572 15.446,7.556 15.120,7.654 14.934 C 7.754 14.745,14.486 8.047,14.600 8.024 C 14.828 7.976,14.865 7.973,14.980 7.991 C 15.046 8.002,15.169 8.048,15.254 8.095 M15.953 13.559 C 16.517 13.861,16.821 14.469,16.721 15.093 C 16.669 15.416,16.541 15.663,16.302 15.902 C 15.581 16.621,14.402 16.415,13.937 15.488 C 13.834 15.283,13.822 15.219,13.821 14.860 C 13.820 14.486,13.828 14.444,13.947 14.220 C 14.141 13.854,14.394 13.619,14.748 13.477 C 14.901 13.415,15.017 13.402,15.320 13.411 C 15.663 13.422,15.724 13.436,15.953 13.559 " fill="#292D32" stroke="none" fill-rule="evenodd"></path></svg>