<svg width="24" height="24" viewBox="0 0 24 24" fill="none" xmlns="http://www.w3.org/2000/svg"><path d="M5.423 3.044 C 3.942 3.263,2.691 4.298,2.213 5.700 C 1.996 6.336,2.000 6.221,2.000 12.000 C 2.000 17.790,1.996 17.663,2.216 18.309 C 2.562 19.323,3.360 20.199,4.346 20.646 C 4.489 20.710,4.780 20.812,4.993 20.872 L 5.380 20.980 12.000 20.980 L 18.620 20.980 19.007 20.872 C 19.703 20.677,20.242 20.380,20.733 19.920 C 21.378 19.317,21.788 18.558,21.941 17.685 C 22.029 17.184,22.029 6.816,21.941 6.315 C 21.670 4.766,20.555 3.554,19.008 3.127 L 18.620 3.020 12.140 3.014 C 8.576 3.011,5.554 3.025,5.423 3.044 M9.118 7.267 C 9.839 7.466,10.440 8.034,10.687 8.752 C 10.819 9.136,10.819 9.824,10.687 10.208 C 10.521 10.690,10.166 11.143,9.733 11.424 C 9.176 11.786,8.409 11.881,7.787 11.667 C 7.080 11.423,6.551 10.899,6.313 10.208 C 6.237 9.989,6.221 9.856,6.221 9.480 C 6.221 9.104,6.237 8.971,6.313 8.752 C 6.714 7.589,7.938 6.941,9.118 7.267 M19.189 7.286 C 19.577 7.384,19.814 7.790,19.714 8.186 C 19.656 8.416,19.428 8.657,19.213 8.717 C 19.002 8.776,13.998 8.776,13.787 8.717 C 13.572 8.657,13.344 8.416,13.286 8.186 C 13.190 7.806,13.425 7.385,13.785 7.289 C 14.014 7.229,18.948 7.226,19.189 7.286 M19.189 11.286 C 19.577 11.384,19.814 11.790,19.714 12.186 C 19.656 12.416,19.428 12.657,19.213 12.717 C 19.114 12.744,18.328 12.760,17.000 12.760 C 15.672 12.760,14.886 12.744,14.787 12.717 C 14.572 12.657,14.344 12.416,14.286 12.186 C 14.190 11.806,14.425 11.385,14.785 11.289 C 15.013 11.229,18.950 11.226,19.189 11.286 M9.720 13.181 C 10.561 13.365,11.402 13.926,11.880 14.620 C 12.054 14.873,12.307 15.417,12.381 15.700 C 12.416 15.832,12.455 16.066,12.467 16.221 C 12.489 16.484,12.483 16.510,12.383 16.630 C 12.323 16.700,12.209 16.776,12.127 16.799 C 11.925 16.855,5.075 16.855,4.873 16.799 C 4.647 16.736,4.520 16.559,4.520 16.307 C 4.521 15.429,5.175 14.302,6.017 13.722 C 6.461 13.416,7.066 13.191,7.636 13.119 C 8.055 13.065,9.373 13.105,9.720 13.181 M19.189 15.286 C 19.577 15.384,19.814 15.790,19.714 16.186 C 19.656 16.416,19.428 16.657,19.213 16.717 C 19.010 16.773,16.990 16.773,16.787 16.717 C 16.572 16.657,16.344 16.416,16.286 16.186 C 16.190 15.806,16.425 15.385,16.785 15.289 C 17.006 15.231,18.958 15.228,19.189 15.286 " fill="#292D32" stroke="none" fill-rule="evenodd"></path></svg>