<svg width="24" height="24" viewBox="0 0 24 24" fill="none" xmlns="http://www.w3.org/2000/svg"><path d="M9.725 2.059 C 8.972 2.230,8.387 2.589,7.976 3.132 C 6.820 4.656,7.362 6.817,9.095 7.600 C 9.907 7.967,10.976 7.907,11.759 7.451 C 12.105 7.249,12.589 6.766,12.792 6.420 C 13.396 5.388,13.315 4.096,12.584 3.132 C 12.243 2.682,11.646 2.280,11.080 2.120 C 10.688 2.009,10.068 1.981,9.725 2.059 M16.460 4.198 C 15.725 4.358,15.099 4.842,14.764 5.510 C 14.573 5.892,14.509 6.226,14.532 6.720 C 14.556 7.234,14.652 7.532,14.927 7.943 C 15.178 8.318,15.456 8.561,15.860 8.757 C 16.258 8.950,16.506 9.008,16.940 9.008 C 17.374 9.008,17.622 8.950,18.020 8.757 C 18.424 8.561,18.702 8.318,18.953 7.943 C 19.228 7.532,19.324 7.234,19.348 6.720 C 19.371 6.227,19.307 5.893,19.116 5.510 C 18.832 4.940,18.319 4.492,17.707 4.280 C 17.431 4.184,16.736 4.138,16.460 4.198 M3.349 6.180 C 2.505 6.394,1.832 7.048,1.603 7.879 C 1.260 9.120,1.945 10.430,3.152 10.848 C 3.379 10.926,3.500 10.940,3.940 10.940 C 4.380 10.940,4.501 10.926,4.728 10.848 C 5.476 10.589,6.074 9.948,6.283 9.181 C 6.396 8.768,6.378 8.156,6.242 7.760 C 5.996 7.043,5.438 6.485,4.720 6.238 C 4.386 6.123,3.692 6.094,3.349 6.180 M20.044 9.103 C 19.719 9.191,19.447 9.353,19.177 9.620 C 18.419 10.368,18.419 11.588,19.177 12.343 C 20.226 13.388,22.003 12.938,22.417 11.523 C 22.506 11.218,22.499 10.708,22.401 10.394 C 22.101 9.428,21.026 8.839,20.044 9.103 M10.764 9.366 C 7.811 9.674,5.169 11.822,4.227 14.680 C 3.757 16.103,3.742 17.417,4.182 18.640 C 4.810 20.386,6.393 21.657,8.298 21.944 C 8.632 21.995,9.172 22.002,11.638 21.989 C 14.494 21.975,14.591 21.972,14.968 21.887 C 16.036 21.645,16.858 21.214,17.578 20.517 C 18.356 19.765,18.847 18.859,19.069 17.768 C 19.177 17.237,19.164 16.081,19.045 15.520 C 18.732 14.051,18.039 12.796,16.922 11.676 C 15.225 9.975,12.984 9.134,10.764 9.366 " fill="#292D32" stroke="none" fill-rule="evenodd"></path></svg>