<svg width="24" height="24" viewBox="0 0 24 24" fill="none" xmlns="http://www.w3.org/2000/svg"><path d="M7.280 2.027 C 5.884 2.164,4.699 2.730,3.699 3.736 C 2.977 4.463,2.517 5.227,2.244 6.151 C 2.003 6.966,1.996 7.094,2.009 10.567 L 2.020 13.715 2.137 13.836 C 2.372 14.083,2.368 14.083,3.824 13.663 C 10.540 11.726,10.249 11.815,10.390 11.662 C 10.485 11.559,10.520 11.484,10.520 11.380 C 10.520 11.156,8.286 2.273,8.208 2.186 C 8.050 2.013,7.821 1.973,7.280 2.027 M10.212 2.064 C 10.065 2.138,9.982 2.249,9.944 2.424 C 9.923 2.515,10.516 4.943,12.301 12.082 C 13.612 17.327,14.706 21.663,14.732 21.718 C 14.759 21.772,14.843 21.860,14.920 21.912 C 15.060 22.007,15.063 22.008,15.960 21.989 C 16.948 21.968,17.314 21.918,17.950 21.716 C 18.856 21.428,19.585 20.979,20.283 20.282 C 21.137 19.428,21.618 18.540,21.887 17.320 L 21.980 16.900 21.980 12.000 L 21.980 7.100 21.887 6.680 C 21.618 5.460,21.137 4.570,20.283 3.717 C 19.436 2.870,18.550 2.388,17.340 2.115 C 16.946 2.027,16.893 2.025,13.640 2.012 C 10.672 2.001,10.327 2.006,10.212 2.064 M10.440 13.326 C 8.178 13.970,2.415 15.661,2.296 15.717 C 2.039 15.837,1.983 15.996,2.016 16.517 C 2.111 17.994,2.673 19.239,3.717 20.282 C 4.574 21.139,5.560 21.663,6.770 21.906 C 7.253 22.003,12.514 22.037,12.734 21.945 C 12.896 21.878,13.040 21.674,13.040 21.514 C 13.040 21.373,11.139 13.735,11.063 13.572 C 10.959 13.350,10.707 13.250,10.440 13.326 " fill="#292D32" stroke="none" fill-rule="evenodd"></path></svg>