<svg width="24" height="24" viewBox="0 0 24 24" fill="none" xmlns="http://www.w3.org/2000/svg"><path d="M11.180 2.044 C 8.347 2.277,5.756 3.699,4.045 5.960 C 3.250 7.010,2.682 8.161,2.363 9.367 C 1.413 12.952,2.438 16.626,5.105 19.200 C 6.662 20.703,8.671 21.654,10.860 21.924 C 11.768 22.037,13.516 21.949,13.776 21.779 C 13.871 21.717,14.000 21.497,14.000 21.398 C 14.000 21.370,13.920 21.112,13.822 20.824 C 13.584 20.125,13.510 19.680,13.512 18.960 C 13.517 17.471,14.040 16.201,15.079 15.157 C 15.897 14.334,16.811 13.832,17.922 13.596 C 18.258 13.524,18.470 13.507,19.000 13.507 C 19.742 13.507,20.213 13.584,20.808 13.803 C 21.366 14.008,21.413 14.016,21.574 13.940 C 21.777 13.844,21.842 13.717,21.912 13.283 C 21.990 12.797,21.999 11.291,21.927 10.780 C 21.593 8.417,20.627 6.486,18.974 4.878 C 16.863 2.824,14.066 1.807,11.180 2.044 M11.379 8.741 C 11.509 8.775,11.693 8.837,11.788 8.879 C 12.050 8.995,14.465 10.388,14.745 10.585 C 15.539 11.143,15.807 11.914,15.456 12.632 C 15.335 12.879,14.949 13.292,14.680 13.461 C 14.340 13.675,12.180 14.909,11.890 15.055 C 11.288 15.358,10.732 15.395,10.263 15.164 C 9.859 14.965,9.617 14.637,9.480 14.100 C 9.406 13.810,9.400 13.657,9.400 12.019 C 9.400 11.047,9.417 10.162,9.437 10.054 C 9.636 9.008,10.405 8.488,11.379 8.741 M18.420 15.044 C 18.056 15.096,17.538 15.268,17.160 15.463 C 15.255 16.444,14.475 18.737,15.385 20.678 C 15.794 21.550,16.599 22.333,17.443 22.681 C 18.020 22.919,18.318 22.976,19.000 22.976 C 19.551 22.977,19.663 22.965,20.010 22.869 C 22.367 22.219,23.611 19.698,22.684 17.450 C 22.006 15.807,20.204 14.789,18.420 15.044 M18.259 17.257 C 18.334 17.288,18.536 17.449,18.707 17.613 L 19.019 17.912 19.344 17.601 C 19.611 17.344,19.702 17.282,19.854 17.249 C 20.426 17.127,20.873 17.574,20.751 18.146 C 20.718 18.298,20.656 18.389,20.399 18.656 L 20.088 18.981 20.387 19.293 C 20.719 19.639,20.800 19.790,20.800 20.060 C 20.800 20.370,20.634 20.620,20.350 20.738 C 20.007 20.882,19.770 20.800,19.340 20.393 L 18.999 20.070 18.645 20.410 C 18.349 20.696,18.262 20.757,18.105 20.791 C 17.815 20.853,17.593 20.785,17.393 20.573 C 17.255 20.428,17.200 20.280,17.200 20.055 C 17.200 19.807,17.281 19.669,17.631 19.313 L 17.933 19.005 17.630 18.683 C 17.278 18.309,17.176 18.097,17.217 17.825 C 17.289 17.344,17.800 17.065,18.259 17.257 " fill="#292D32" stroke="none" fill-rule="evenodd"></path></svg>