<svg width="24" height="24" viewBox="0 0 24 24" fill="none" xmlns="http://www.w3.org/2000/svg"><path d="M11.480 1.304 C 10.519 1.367,9.645 1.516,8.883 1.745 C 8.330 1.912,8.159 2.015,8.045 2.250 C 7.881 2.589,7.959 2.937,8.254 3.176 C 8.479 3.358,8.710 3.360,9.310 3.185 C 10.380 2.873,11.116 2.781,12.292 2.811 C 13.223 2.834,13.823 2.924,14.580 3.153 C 15.211 3.344,15.517 3.353,15.738 3.185 C 15.915 3.049,16.038 2.804,16.039 2.583 C 16.040 2.364,15.899 2.094,15.725 1.980 C 15.422 1.781,14.113 1.458,13.240 1.365 C 12.797 1.318,11.797 1.284,11.480 1.304 M4.620 4.256 C 4.458 4.326,3.840 4.985,3.453 5.498 C 2.003 7.423,1.280 9.588,1.280 12.000 C 1.280 14.464,2.042 16.693,3.549 18.631 C 3.914 19.101,4.477 19.683,4.629 19.746 C 5.085 19.937,5.597 19.645,5.664 19.155 C 5.700 18.890,5.594 18.686,5.194 18.252 C 3.613 16.538,2.760 14.348,2.760 12.000 C 2.760 9.648,3.612 7.464,5.201 5.740 C 5.594 5.313,5.700 5.108,5.664 4.845 C 5.597 4.354,5.073 4.058,4.620 4.256 M18.740 4.267 C 18.555 4.365,18.475 4.446,18.395 4.620 C 18.233 4.974,18.323 5.223,18.799 5.740 C 20.064 7.113,20.851 8.761,21.149 10.658 C 21.247 11.282,21.245 12.726,21.146 13.359 C 20.854 15.226,20.061 16.884,18.800 18.260 C 18.619 18.458,18.437 18.692,18.396 18.780 C 18.085 19.450,18.885 20.105,19.492 19.677 C 19.562 19.628,19.777 19.415,19.969 19.204 C 20.651 18.453,21.188 17.661,21.640 16.740 C 23.433 13.087,23.014 8.754,20.554 5.495 C 20.179 4.997,19.535 4.322,19.371 4.254 C 19.199 4.182,18.888 4.188,18.740 4.267 M10.081 8.061 C 9.521 8.219,9.112 8.644,8.889 9.300 L 8.781 9.620 8.769 11.884 C 8.755 14.424,8.761 14.501,9.026 15.039 C 9.207 15.407,9.494 15.704,9.820 15.860 C 10.023 15.958,10.121 15.978,10.462 15.992 C 10.943 16.012,11.232 15.949,11.700 15.725 C 12.047 15.558,14.887 13.921,15.193 13.712 C 15.860 13.254,16.240 12.636,16.240 12.009 C 16.240 11.636,16.156 11.380,15.912 11.016 C 15.616 10.573,15.318 10.360,13.620 9.374 C 11.966 8.414,11.650 8.245,11.278 8.121 C 10.934 8.006,10.376 7.979,10.081 8.061 M8.514 20.679 C 8.331 20.734,8.180 20.842,8.078 20.991 C 7.937 21.197,7.937 21.603,8.079 21.811 C 8.211 22.003,8.370 22.087,8.920 22.253 C 10.438 22.711,12.196 22.822,13.774 22.559 C 14.597 22.421,15.550 22.149,15.769 21.988 C 16.166 21.695,16.122 21.025,15.689 20.771 C 15.458 20.636,15.237 20.641,14.740 20.794 C 13.921 21.046,13.243 21.156,12.320 21.187 C 11.227 21.224,10.317 21.105,9.221 20.781 C 8.716 20.633,8.683 20.628,8.514 20.679 " fill="#292D32" stroke="none" fill-rule="evenodd"></path></svg>