<svg width="24" height="24" viewBox="0 0 24 24" fill="none" xmlns="http://www.w3.org/2000/svg"><path d="M8.005 3.365 C 6.733 3.512,5.505 4.256,4.769 5.326 C 4.583 5.598,4.337 6.107,4.221 6.462 C 3.997 7.147,3.996 7.158,4.009 11.860 L 4.020 16.180 4.109 16.346 C 4.349 16.794,4.925 17.029,5.385 16.865 C 5.562 16.802,17.426 9.656,17.640 9.484 C 18.095 9.118,18.109 8.318,17.667 7.937 C 17.483 7.778,10.821 3.935,10.377 3.731 C 9.975 3.547,9.460 3.409,8.997 3.362 C 8.544 3.315,8.429 3.315,8.005 3.365 M18.600 10.651 C 17.985 10.984,5.719 18.372,5.626 18.465 C 5.423 18.668,5.343 18.871,5.341 19.180 C 5.340 19.571,5.465 19.780,5.851 20.030 C 6.495 20.446,7.183 20.650,7.960 20.653 C 8.652 20.657,9.169 20.539,9.760 20.244 C 10.223 20.012,18.102 15.456,18.430 15.230 C 18.953 14.869,19.448 14.267,19.729 13.648 C 20.110 12.805,20.190 11.490,19.888 11.001 C 19.823 10.896,19.697 10.772,19.582 10.701 C 19.418 10.600,19.337 10.578,19.083 10.567 C 18.823 10.556,18.755 10.568,18.600 10.651 " fill="#292D32" stroke="none" fill-rule="evenodd"></path></svg>