<svg width="24" height="24" viewBox="0 0 24 24" fill="none" xmlns="http://www.w3.org/2000/svg"><path d="M11.175 2.040 C 8.831 2.237,6.642 3.247,4.978 4.900 C 4.406 5.468,4.101 5.838,3.659 6.501 C 2.819 7.758,2.307 9.139,2.073 10.780 C 1.995 11.323,2.007 12.793,2.093 13.360 C 2.420 15.498,3.338 17.372,4.812 18.906 C 5.260 19.372,5.831 19.865,6.320 20.208 C 7.561 21.079,9.107 21.684,10.660 21.907 C 11.555 22.035,13.307 21.984,13.709 21.818 C 13.858 21.757,14.000 21.549,14.000 21.393 C 14.000 21.334,13.946 21.152,13.880 20.988 C 13.655 20.424,13.556 19.924,13.532 19.216 C 13.517 18.809,13.527 18.448,13.557 18.236 C 13.809 16.453,14.901 14.927,16.506 14.110 C 17.355 13.678,18.049 13.510,18.980 13.510 C 19.690 13.510,20.156 13.583,20.737 13.785 C 21.405 14.018,21.402 14.018,21.567 13.949 C 21.648 13.915,21.743 13.841,21.780 13.786 C 21.969 13.498,22.058 11.924,21.943 10.920 C 21.671 8.555,20.659 6.510,18.935 4.840 C 17.389 3.342,15.411 2.376,13.321 2.098 C 12.778 2.025,11.692 1.996,11.175 2.040 M11.560 8.798 C 11.783 8.874,13.989 10.102,14.640 10.514 C 14.951 10.711,15.319 11.100,15.460 11.381 C 15.568 11.596,15.580 11.658,15.580 12.000 C 15.580 12.338,15.567 12.405,15.467 12.602 C 15.315 12.902,15.084 13.165,14.786 13.376 C 14.484 13.590,12.246 14.882,11.860 15.065 C 11.233 15.363,10.729 15.394,10.261 15.164 C 9.970 15.020,9.786 14.828,9.624 14.498 C 9.409 14.058,9.394 13.881,9.408 11.862 C 9.421 10.036,9.422 10.018,9.517 9.748 C 9.698 9.233,10.031 8.883,10.475 8.740 C 10.726 8.659,11.226 8.686,11.560 8.798 M18.340 15.064 C 16.752 15.343,15.522 16.488,15.116 18.065 C 15.002 18.509,14.989 19.375,15.089 19.821 C 15.359 21.022,16.140 22.027,17.220 22.563 C 17.943 22.922,18.663 23.054,19.425 22.965 C 22.195 22.643,23.811 19.690,22.570 17.220 C 21.777 15.643,20.051 14.762,18.340 15.064 M19.271 16.822 C 19.641 16.977,19.758 17.213,19.759 17.810 L 19.760 18.240 20.222 18.240 C 20.821 18.240,20.999 18.320,21.175 18.668 C 21.298 18.911,21.241 19.271,21.045 19.494 C 20.892 19.669,20.706 19.720,20.226 19.720 L 19.768 19.720 19.754 20.233 C 19.741 20.718,19.734 20.756,19.629 20.906 C 19.393 21.247,18.971 21.348,18.625 21.145 C 18.321 20.967,18.262 20.825,18.246 20.230 L 18.232 19.720 17.774 19.720 C 17.306 19.720,17.169 19.686,16.986 19.525 C 16.776 19.341,16.697 18.921,16.825 18.668 C 17.001 18.320,17.179 18.240,17.778 18.240 L 18.240 18.240 18.240 17.819 C 18.240 17.230,18.348 16.998,18.700 16.836 C 18.897 16.745,19.076 16.741,19.271 16.822 " fill="#292D32" stroke="none" fill-rule="evenodd"></path></svg>