<svg width="24" height="24" viewBox="0 0 24 24" fill="none" xmlns="http://www.w3.org/2000/svg"><path d="M11.260 2.024 C 9.481 2.206,8.131 2.639,6.786 3.457 C 4.160 5.053,2.465 7.673,2.035 10.800 C 1.967 11.291,1.967 12.709,2.035 13.200 C 2.450 16.218,4.020 18.728,6.528 20.386 C 7.719 21.173,9.126 21.692,10.700 21.926 C 11.243 22.006,12.783 21.996,13.360 21.908 C 14.429 21.745,15.421 21.434,16.380 20.961 C 19.152 19.594,21.123 17.056,21.760 14.034 C 21.984 12.969,22.019 11.454,21.844 10.418 C 21.469 8.200,20.480 6.324,18.873 4.780 C 17.365 3.331,15.503 2.426,13.360 2.102 C 12.956 2.040,11.591 1.990,11.260 2.024 M11.636 8.357 C 11.778 8.406,12.633 8.871,13.536 9.390 C 15.029 10.249,15.206 10.361,15.461 10.618 C 16.038 11.196,16.250 12.000,16.041 12.817 C 15.930 13.252,15.787 13.495,15.441 13.840 C 15.163 14.118,15.020 14.209,13.540 15.058 C 12.660 15.563,11.823 16.021,11.680 16.076 C 11.454 16.163,11.354 16.176,10.920 16.178 C 10.497 16.179,10.383 16.166,10.183 16.090 C 9.444 15.812,8.888 15.214,8.701 14.498 C 8.609 14.143,8.611 10.305,8.703 9.946 C 8.902 9.175,9.592 8.502,10.392 8.300 C 10.716 8.217,11.308 8.245,11.636 8.357 " fill="#292D32" stroke="none" fill-rule="evenodd"></path></svg>