<svg width="24" height="24" viewBox="0 0 24 24" fill="none" xmlns="http://www.w3.org/2000/svg"><path d="M1.785 1.289 C 1.578 1.344,1.337 1.590,1.279 1.804 C 1.193 2.122,1.334 2.463,1.627 2.645 C 1.767 2.732,1.831 2.741,2.390 2.754 L 3.000 2.767 3.000 8.574 C 3.000 14.860,3.000 14.839,3.216 15.412 C 3.464 16.073,3.927 16.536,4.588 16.784 C 5.119 16.984,5.388 17.000,8.430 17.000 L 11.240 17.000 11.240 18.270 L 11.240 19.540 9.381 20.471 C 7.398 21.464,7.368 21.484,7.275 21.821 C 7.134 22.332,7.656 22.856,8.169 22.718 C 8.260 22.693,9.159 22.261,10.167 21.756 L 12.000 20.840 13.833 21.756 C 14.841 22.261,15.740 22.693,15.831 22.718 C 16.344 22.856,16.866 22.332,16.725 21.821 C 16.632 21.484,16.602 21.464,14.619 20.471 L 12.760 19.540 12.760 18.270 L 12.760 17.000 15.570 17.000 C 18.612 17.000,18.881 16.984,19.412 16.784 C 20.073 16.536,20.536 16.073,20.784 15.412 C 21.000 14.839,21.000 14.860,21.000 8.574 L 21.000 2.767 21.613 2.754 C 22.200 2.741,22.233 2.735,22.388 2.633 C 22.627 2.475,22.739 2.270,22.739 1.993 C 22.739 1.804,22.718 1.736,22.619 1.596 C 22.554 1.503,22.428 1.390,22.340 1.344 L 22.180 1.260 12.060 1.254 C 5.221 1.250,1.890 1.261,1.785 1.289 M16.912 7.375 C 17.206 7.578,17.323 7.970,17.185 8.291 C 17.107 8.471,16.978 8.587,15.260 10.022 C 14.260 10.857,13.665 11.326,13.520 11.394 C 13.082 11.598,12.536 11.506,12.187 11.168 C 12.103 11.087,11.782 10.602,11.475 10.090 C 11.167 9.579,10.909 9.160,10.902 9.160 C 10.894 9.160,10.210 9.725,9.381 10.416 C 7.725 11.796,7.686 11.821,7.329 11.726 C 6.975 11.631,6.761 11.360,6.760 11.008 C 6.760 10.891,6.786 10.747,6.817 10.688 C 6.904 10.523,7.101 10.347,8.740 8.978 C 9.745 8.139,10.335 7.674,10.480 7.606 C 10.918 7.402,11.464 7.494,11.813 7.832 C 11.897 7.913,12.218 8.399,12.525 8.910 C 12.833 9.421,13.091 9.840,13.098 9.840 C 13.106 9.840,13.793 9.272,14.626 8.579 C 15.458 7.885,16.194 7.301,16.260 7.280 C 16.464 7.217,16.743 7.258,16.912 7.375 " fill="#292D32" stroke="none" fill-rule="evenodd"></path></svg>