<svg width="24" height="24" viewBox="0 0 24 24" fill="none" xmlns="http://www.w3.org/2000/svg"><path d="M17.071 4.742 C 16.748 4.820,16.621 4.889,13.900 6.458 C 7.545 10.121,7.890 9.916,7.580 10.220 C 6.566 11.216,6.604 12.910,7.663 13.872 C 7.927 14.111,8.017 14.165,13.820 17.509 C 16.987 19.334,16.983 19.332,17.680 19.331 C 18.022 19.330,18.160 19.310,18.420 19.226 C 19.234 18.962,19.819 18.398,20.113 17.593 L 20.220 17.300 20.220 12.000 L 20.220 6.700 20.113 6.407 C 19.955 5.975,19.777 5.706,19.434 5.382 C 19.090 5.058,18.698 4.840,18.280 4.742 C 17.962 4.667,17.379 4.667,17.071 4.742 M3.460 5.141 C 3.299 5.228,3.166 5.355,3.086 5.500 C 3.025 5.610,3.020 6.138,3.020 12.000 C 3.020 18.308,3.021 18.382,3.100 18.516 C 3.144 18.590,3.249 18.707,3.334 18.776 C 3.472 18.888,3.515 18.900,3.760 18.900 C 4.005 18.900,4.048 18.888,4.186 18.776 C 4.271 18.707,4.376 18.590,4.420 18.516 C 4.499 18.382,4.500 18.308,4.500 12.000 C 4.500 5.692,4.499 5.618,4.420 5.484 C 4.277 5.241,4.069 5.107,3.809 5.090 C 3.651 5.080,3.543 5.096,3.460 5.141 " fill="#292D32" stroke="none" fill-rule="evenodd"></path></svg>