<svg width="24" height="24" viewBox="0 0 24 24" fill="none" xmlns="http://www.w3.org/2000/svg"><path d="M21.660 1.346 C 21.594 1.380,20.518 2.428,19.270 3.674 L 17.000 5.940 17.000 5.353 C 17.000 5.010,16.976 4.643,16.943 4.467 C 16.706 3.231,15.769 2.294,14.533 2.057 C 14.095 1.974,9.905 1.974,9.467 2.057 C 8.231 2.294,7.294 3.231,7.057 4.467 C 7.016 4.683,7.000 5.079,7.000 5.884 L 7.000 7.000 6.369 7.000 C 6.022 7.000,5.593 7.018,5.416 7.040 C 4.144 7.200,3.434 7.784,3.110 8.940 C 3.021 9.260,3.020 9.265,3.020 12.500 C 3.020 15.735,3.021 15.740,3.110 16.060 C 3.370 16.986,3.915 17.576,4.740 17.824 C 4.872 17.863,4.988 17.902,4.998 17.909 C 5.008 17.916,4.186 18.754,3.172 19.771 C 1.404 21.544,1.327 21.628,1.289 21.811 C 1.168 22.395,1.624 22.851,2.193 22.715 C 2.371 22.672,2.853 22.197,12.490 12.565 C 18.343 6.715,22.628 2.403,22.665 2.324 C 22.821 1.995,22.687 1.546,22.380 1.372 C 22.188 1.263,21.842 1.251,21.660 1.346 M19.480 7.715 C 19.425 7.733,19.317 7.780,19.240 7.818 C 19.025 7.926,15.388 11.581,15.277 11.800 C 15.017 12.312,15.288 12.989,15.830 13.183 C 15.925 13.217,16.172 13.237,16.503 13.238 C 17.131 13.240,17.418 13.288,17.748 13.444 C 18.628 13.862,18.990 14.855,18.586 15.739 C 18.438 16.060,18.086 16.414,17.763 16.564 C 17.206 16.823,17.173 16.844,17.086 16.998 C 16.970 17.204,16.968 17.567,17.081 17.752 C 17.214 17.971,17.378 18.014,17.980 17.988 C 18.330 17.973,18.596 17.938,18.793 17.882 C 19.636 17.641,20.317 17.071,20.685 16.300 C 20.993 15.657,20.980 15.826,20.980 12.400 C 20.980 9.353,20.980 9.339,20.889 8.985 C 20.727 8.349,20.492 7.949,20.188 7.794 C 20.012 7.704,19.640 7.663,19.480 7.715 M9.189 10.286 C 9.577 10.384,9.814 10.790,9.714 11.186 C 9.656 11.416,9.428 11.657,9.213 11.717 C 9.010 11.773,6.990 11.773,6.787 11.717 C 6.572 11.657,6.344 11.416,6.286 11.186 C 6.190 10.806,6.425 10.385,6.785 10.289 C 7.006 10.231,8.958 10.228,9.189 10.286 M12.808 14.285 C 12.710 14.313,12.157 14.845,10.648 16.363 C 8.857 18.164,8.603 18.435,8.476 18.679 C 8.154 19.297,8.160 20.079,8.492 20.635 C 8.879 21.282,9.657 21.794,10.480 21.943 C 10.913 22.021,13.123 22.021,13.533 21.943 C 14.769 21.706,15.706 20.769,15.943 19.533 C 15.987 19.301,16.000 18.841,16.000 17.501 L 16.000 15.769 16.590 15.754 C 17.129 15.740,17.195 15.730,17.359 15.639 C 17.702 15.449,17.829 15.010,17.646 14.651 C 17.544 14.452,17.391 14.337,17.156 14.283 C 16.930 14.230,12.990 14.233,12.808 14.285 " fill="#292D32" stroke="none" fill-rule="evenodd"></path></svg>