<svg width="24" height="24" viewBox="0 0 24 24" fill="none" xmlns="http://www.w3.org/2000/svg"><path d="M9.620 2.024 C 9.576 2.033,9.442 2.061,9.322 2.085 C 8.648 2.222,7.898 2.743,7.490 3.358 C 7.301 3.642,7.139 4.044,7.062 4.419 C 6.937 5.022,7.009 5.411,7.299 5.701 C 7.616 6.018,7.337 6.000,12.000 6.000 C 16.663 6.000,16.384 6.018,16.701 5.701 C 16.991 5.411,17.063 5.022,16.938 4.419 C 16.704 3.284,15.919 2.451,14.740 2.086 C 14.570 2.034,14.173 2.023,12.120 2.016 C 10.789 2.011,9.664 2.015,9.620 2.024 M5.379 7.041 C 4.122 7.208,3.407 7.821,3.111 8.985 C 3.020 9.339,3.020 9.349,3.020 12.500 C 3.020 15.651,3.020 15.661,3.111 16.015 C 3.377 17.060,3.951 17.634,4.985 17.886 C 5.266 17.954,5.470 17.973,5.967 17.976 C 6.540 17.980,6.603 17.973,6.704 17.898 C 6.908 17.746,6.980 17.612,6.980 17.381 C 6.980 17.047,6.832 16.868,6.363 16.633 C 5.727 16.316,5.373 15.871,5.273 15.268 C 5.123 14.368,5.771 13.451,6.675 13.281 C 6.814 13.254,8.718 13.240,12.015 13.241 C 17.601 13.241,17.440 13.235,17.834 13.466 C 18.479 13.844,18.831 14.537,18.731 15.232 C 18.641 15.855,18.288 16.308,17.637 16.633 C 17.168 16.868,17.020 17.047,17.020 17.381 C 17.020 17.612,17.092 17.746,17.296 17.898 C 17.397 17.973,17.460 17.980,18.033 17.976 C 18.530 17.973,18.734 17.954,19.015 17.886 C 20.049 17.634,20.623 17.060,20.889 16.015 C 20.980 15.661,20.980 15.651,20.980 12.500 C 20.980 9.349,20.980 9.339,20.889 8.985 C 20.626 7.950,20.069 7.388,19.036 7.112 L 18.700 7.022 12.160 7.016 C 8.563 7.012,5.511 7.024,5.379 7.041 M10.300 10.316 C 10.494 10.405,10.616 10.532,10.698 10.729 C 10.849 11.090,10.672 11.516,10.302 11.685 C 10.153 11.752,10.005 11.758,8.509 11.759 C 7.125 11.760,6.855 11.751,6.729 11.698 C 6.101 11.436,6.084 10.600,6.700 10.316 C 6.847 10.248,6.990 10.242,8.500 10.242 C 10.010 10.242,10.153 10.248,10.300 10.316 M6.807 14.287 C 6.276 14.406,6.085 15.125,6.480 15.520 C 6.672 15.712,6.880 15.760,7.522 15.760 L 8.000 15.760 8.000 17.496 C 8.000 18.840,8.013 19.301,8.057 19.533 C 8.294 20.769,9.231 21.706,10.467 21.943 C 10.891 22.024,13.109 22.024,13.533 21.943 C 14.769 21.706,15.706 20.769,15.943 19.533 C 15.987 19.301,16.000 18.841,16.000 17.501 L 16.000 15.769 16.590 15.754 C 17.129 15.740,17.195 15.730,17.359 15.639 C 17.702 15.449,17.829 15.010,17.646 14.651 C 17.544 14.452,17.391 14.337,17.156 14.283 C 16.922 14.229,7.049 14.233,6.807 14.287 " fill="#292D32" stroke="none" fill-rule="evenodd"></path></svg>