<svg width="24" height="24" viewBox="0 0 24 24" fill="none" xmlns="http://www.w3.org/2000/svg"><path d="M8.385 2.045 C 6.376 2.303,4.765 3.815,4.333 5.846 C 4.239 6.288,4.240 7.254,4.334 7.674 C 4.547 8.619,4.954 9.395,5.574 10.035 C 7.005 11.515,9.308 11.910,11.140 10.989 C 13.027 10.041,14.080 7.869,13.655 5.803 C 13.155 3.373,10.849 1.729,8.385 2.045 M16.260 4.070 C 15.903 4.091,15.482 4.175,15.171 4.288 L 14.842 4.407 14.964 4.613 C 15.237 5.076,15.461 5.671,15.563 6.202 C 15.636 6.581,15.627 7.432,15.545 7.852 C 15.378 8.712,14.974 9.501,14.391 10.105 L 14.116 10.391 14.268 10.518 C 14.471 10.687,15.162 11.025,15.460 11.101 C 17.446 11.604,19.355 10.500,19.886 8.540 C 20.008 8.089,20.010 7.197,19.890 6.756 C 19.542 5.488,18.563 4.505,17.320 4.179 C 17.045 4.107,16.528 4.054,16.260 4.070 M15.260 12.547 C 14.971 12.582,14.404 12.685,14.220 12.735 L 14.020 12.790 14.180 12.859 C 14.268 12.897,14.466 12.982,14.620 13.048 C 15.250 13.320,16.005 13.796,16.528 14.251 C 17.159 14.799,17.705 15.669,17.879 16.400 C 18.137 17.489,17.819 18.590,16.977 19.514 L 16.745 19.769 17.223 19.741 C 19.096 19.632,20.620 19.010,21.387 18.042 C 22.353 16.824,22.133 15.218,20.849 14.107 C 19.920 13.302,18.650 12.768,17.219 12.581 C 16.800 12.526,15.600 12.505,15.260 12.547 M7.860 12.819 C 6.360 12.991,4.982 13.462,3.920 14.164 C 3.486 14.451,2.813 15.100,2.585 15.450 C 1.673 16.853,1.777 18.376,2.871 19.665 C 3.665 20.599,5.192 21.419,6.760 21.754 C 7.561 21.925,8.065 21.975,9.000 21.975 C 10.604 21.975,11.879 21.706,13.143 21.102 C 14.634 20.389,15.558 19.437,15.899 18.260 C 16.219 17.155,15.938 16.014,15.106 15.040 C 14.520 14.355,13.357 13.637,12.232 13.266 C 11.731 13.101,11.054 12.944,10.472 12.857 C 9.888 12.771,8.459 12.750,7.860 12.819 " fill="#292D32" stroke="none" fill-rule="evenodd"></path></svg>