<svg width="24" height="24" viewBox="0 0 24 24" fill="none" xmlns="http://www.w3.org/2000/svg"><path d="M14.812 1.278 C 14.642 1.319,14.553 1.389,12.885 2.780 C 11.884 3.614,11.418 4.029,11.354 4.140 C 11.203 4.405,11.241 4.748,11.449 5.002 C 11.520 5.089,14.363 7.455,14.579 7.608 C 14.730 7.714,14.793 7.733,14.993 7.733 C 15.279 7.733,15.474 7.628,15.632 7.389 C 15.768 7.184,15.780 6.851,15.659 6.646 C 15.615 6.572,15.265 6.250,14.880 5.930 C 14.495 5.610,14.153 5.323,14.120 5.292 C 14.068 5.244,14.287 5.238,15.680 5.248 C 17.237 5.260,17.307 5.263,17.485 5.345 C 17.759 5.472,17.997 5.708,18.126 5.980 L 18.240 6.220 18.240 11.165 L 18.240 16.109 17.944 16.217 C 16.616 16.701,15.795 18.144,16.057 19.531 C 16.288 20.756,17.232 21.708,18.443 21.938 C 18.855 22.016,19.145 22.016,19.557 21.938 C 21.242 21.619,22.322 19.924,21.901 18.260 C 21.868 18.128,21.757 17.853,21.655 17.650 C 21.331 17.001,20.731 16.464,20.056 16.217 L 19.760 16.109 19.760 11.325 C 19.760 8.620,19.743 6.401,19.722 6.220 C 19.642 5.537,19.404 5.044,18.920 4.559 C 18.707 4.345,18.528 4.211,18.300 4.093 C 17.693 3.780,17.744 3.786,15.808 3.762 L 14.076 3.740 14.831 3.116 C 15.646 2.442,15.734 2.333,15.735 1.997 C 15.736 1.525,15.274 1.165,14.812 1.278 M4.620 2.022 C 4.576 2.032,4.442 2.061,4.322 2.085 C 3.445 2.263,2.583 2.991,2.234 3.849 C 1.781 4.961,2.000 6.159,2.814 7.029 C 3.168 7.407,3.729 7.759,4.130 7.855 L 4.240 7.882 4.240 11.994 L 4.240 16.107 4.070 16.157 C 3.674 16.274,3.269 16.531,2.900 16.900 C 2.402 17.398,2.200 17.767,2.057 18.440 C 1.906 19.147,2.079 20.023,2.491 20.644 C 3.288 21.845,4.810 22.312,6.151 21.766 C 6.857 21.479,7.479 20.857,7.766 20.151 C 8.219 19.039,8.000 17.841,7.186 16.971 C 6.832 16.593,6.271 16.241,5.870 16.145 L 5.760 16.118 5.760 12.000 L 5.760 7.882 5.870 7.855 C 6.271 7.759,6.832 7.407,7.186 7.029 C 8.000 6.159,8.219 4.961,7.766 3.849 C 7.426 3.012,6.659 2.347,5.740 2.093 C 5.537 2.037,4.767 1.988,4.620 2.022 " fill="#292D32" stroke="none" fill-rule="evenodd"></path></svg>