<svg width="24" height="24" viewBox="0 0 24 24" fill="none" xmlns="http://www.w3.org/2000/svg"><path d="M13.815 1.276 C 13.746 1.294,13.635 1.347,13.569 1.394 C 13.327 1.566,10.468 3.964,10.401 4.051 C 10.314 4.164,10.240 4.380,10.240 4.521 C 10.240 4.582,10.290 4.722,10.350 4.834 C 10.443 5.005,10.703 5.238,12.048 6.356 C 13.805 7.816,13.821 7.826,14.211 7.718 C 14.661 7.593,14.879 7.064,14.658 6.636 C 14.625 6.572,14.279 6.257,13.889 5.935 C 13.499 5.613,13.153 5.324,13.120 5.293 C 13.068 5.244,13.354 5.238,15.180 5.248 L 17.300 5.260 17.526 5.371 C 17.775 5.493,17.987 5.703,18.128 5.968 L 18.220 6.140 18.240 11.130 C 18.258 15.548,18.253 16.120,18.200 16.120 C 18.081 16.121,17.519 16.394,17.272 16.570 C 16.683 16.991,16.311 17.524,16.092 18.260 C 15.994 18.591,15.995 19.398,16.094 19.760 C 16.324 20.595,16.934 21.334,17.692 21.696 C 18.079 21.881,18.385 21.959,18.841 21.987 C 20.608 22.097,22.088 20.618,21.990 18.840 C 21.940 17.941,21.474 17.103,20.730 16.572 C 20.481 16.394,19.920 16.121,19.800 16.120 C 19.747 16.120,19.740 15.534,19.740 11.090 L 19.740 6.060 19.646 5.760 C 19.352 4.817,18.711 4.171,17.760 3.856 C 17.561 3.790,17.324 3.781,15.314 3.761 L 13.087 3.740 13.842 3.110 C 14.268 2.755,14.628 2.424,14.667 2.350 C 14.765 2.166,14.760 1.816,14.657 1.640 C 14.493 1.359,14.123 1.199,13.815 1.276 M4.436 2.060 C 3.225 2.301,2.291 3.247,2.057 4.467 C 1.923 5.171,2.056 5.887,2.446 6.551 C 2.751 7.072,3.481 7.656,4.034 7.821 L 4.260 7.889 4.260 12.895 L 4.260 17.900 4.352 18.222 C 4.572 18.990,5.083 19.608,5.784 19.955 C 6.328 20.224,6.240 20.215,8.692 20.239 L 10.923 20.260 10.168 20.886 C 9.623 21.338,9.392 21.555,9.339 21.666 C 9.106 22.153,9.445 22.728,9.967 22.733 C 10.091 22.734,10.239 22.707,10.320 22.667 C 10.570 22.545,13.530 20.049,13.639 19.869 C 13.798 19.603,13.764 19.258,13.551 18.998 C 13.479 18.910,10.636 16.544,10.417 16.389 C 10.064 16.141,9.591 16.247,9.356 16.627 C 9.227 16.835,9.225 17.162,9.352 17.367 C 9.402 17.448,9.743 17.763,10.110 18.067 C 10.477 18.371,10.814 18.651,10.859 18.690 C 10.936 18.756,10.840 18.759,8.820 18.750 C 6.742 18.740,6.696 18.738,6.513 18.654 C 6.237 18.526,5.987 18.275,5.866 18.006 L 5.761 17.772 5.750 12.831 L 5.740 7.889 5.966 7.821 C 6.519 7.656,7.249 7.072,7.554 6.551 C 8.049 5.707,8.127 4.779,7.777 3.893 C 7.256 2.575,5.817 1.785,4.436 2.060 " fill="#292D32" stroke="none" fill-rule="evenodd"></path></svg>