<svg width="24" height="24" viewBox="0 0 24 24" fill="none" xmlns="http://www.w3.org/2000/svg"><path d="M4.546 3.242 C 3.501 3.417,2.632 4.111,2.235 5.086 C 2.013 5.631,1.993 5.882,2.011 7.952 C 2.028 10.070,2.028 10.067,2.349 10.720 C 2.506 11.040,2.593 11.157,2.898 11.462 C 3.299 11.863,3.664 12.082,4.201 12.246 C 4.496 12.336,4.536 12.338,7.140 12.359 L 9.780 12.380 9.769 12.840 C 9.742 13.897,9.629 14.922,9.463 15.600 C 9.069 17.208,8.312 18.084,6.270 19.298 C 5.804 19.575,5.662 19.711,5.606 19.934 C 5.496 20.371,5.780 20.760,6.234 20.791 C 6.453 20.806,6.474 20.798,6.920 20.531 C 7.962 19.908,8.737 19.341,9.249 18.829 C 10.407 17.671,10.920 16.270,11.127 13.700 C 11.163 13.243,11.178 12.037,11.179 9.480 C 11.180 5.479,11.188 5.607,10.896 4.998 C 10.451 4.069,9.691 3.466,8.711 3.264 C 8.454 3.210,8.104 3.201,6.572 3.205 C 5.564 3.207,4.653 3.224,4.546 3.242 M15.343 3.241 C 14.399 3.405,13.548 4.045,13.140 4.899 C 12.858 5.490,12.860 5.465,12.860 7.800 C 12.860 9.890,12.860 9.901,12.954 10.200 C 13.215 11.038,13.748 11.673,14.500 12.042 C 15.125 12.349,14.988 12.337,17.950 12.350 L 20.600 12.363 20.599 12.491 C 20.599 12.562,20.581 12.944,20.559 13.340 C 20.470 14.984,20.265 15.962,19.837 16.800 C 19.384 17.687,18.700 18.318,17.226 19.210 C 16.937 19.385,16.657 19.567,16.605 19.614 C 16.303 19.886,16.347 20.443,16.689 20.687 C 16.794 20.761,16.872 20.780,17.080 20.780 C 17.334 20.780,17.352 20.773,17.860 20.464 C 20.873 18.635,21.701 17.241,21.959 13.560 C 21.981 13.236,21.999 11.432,22.000 9.468 C 22.000 6.491,21.991 5.912,21.940 5.664 C 21.744 4.718,21.129 3.931,20.256 3.512 C 19.646 3.218,19.722 3.226,17.520 3.216 C 16.431 3.211,15.451 3.222,15.343 3.241 " fill="#292D32" stroke="none" fill-rule="evenodd"></path></svg>