<svg width="24" height="24" viewBox="0 0 24 24" fill="none" xmlns="http://www.w3.org/2000/svg"><path d="M11.120 2.039 C 8.336 2.318,5.905 3.624,4.193 5.760 C 1.474 9.155,1.267 13.917,3.682 17.533 C 6.770 22.155,12.946 23.386,17.560 20.299 C 22.155 17.225,23.377 11.041,20.299 6.440 C 18.728 4.092,16.319 2.562,13.493 2.119 C 12.909 2.027,11.660 1.985,11.120 2.039 M10.492 7.409 C 10.913 7.610,11.230 7.927,11.431 8.348 L 11.580 8.660 11.592 10.560 C 11.600 11.711,11.588 12.673,11.561 13.000 C 11.424 14.670,10.983 15.473,9.754 16.289 C 9.160 16.683,9.002 16.760,8.784 16.760 C 8.560 16.760,8.412 16.705,8.266 16.567 C 8.097 16.407,8.040 16.269,8.040 16.020 C 8.040 15.647,8.142 15.521,8.755 15.140 C 9.164 14.885,9.560 14.542,9.699 14.321 C 9.898 14.003,10.079 13.269,10.080 12.774 L 10.080 12.608 8.970 12.591 C 7.976 12.575,7.833 12.564,7.600 12.488 C 7.087 12.320,6.692 11.978,6.457 11.500 C 6.281 11.139,6.242 10.850,6.242 9.900 C 6.242 8.948,6.280 8.662,6.459 8.296 C 6.690 7.825,7.088 7.480,7.592 7.316 C 7.796 7.249,7.943 7.243,9.000 7.251 L 10.180 7.260 10.492 7.409 M16.649 7.430 C 17.234 7.720,17.630 8.250,17.719 8.864 C 17.770 9.222,17.771 11.827,17.720 12.680 C 17.623 14.284,17.352 15.022,16.592 15.743 C 16.300 16.021,15.692 16.452,15.304 16.657 C 14.639 17.007,13.934 16.383,14.232 15.708 C 14.319 15.513,14.327 15.506,15.044 15.040 C 15.520 14.731,15.786 14.462,15.943 14.130 C 16.059 13.885,16.178 13.345,16.216 12.894 L 16.240 12.608 15.110 12.590 C 14.185 12.575,13.940 12.559,13.760 12.503 C 13.152 12.311,12.659 11.824,12.476 11.236 C 12.409 11.023,12.400 10.860,12.400 9.904 C 12.400 9.027,12.412 8.772,12.463 8.597 C 12.634 8.013,13.128 7.505,13.710 7.317 C 13.916 7.250,14.063 7.243,15.123 7.251 L 16.306 7.260 16.649 7.430 " fill="#292D32" stroke="none" fill-rule="evenodd"></path></svg>