<svg width="24" height="24" viewBox="0 0 24 24" fill="none" xmlns="http://www.w3.org/2000/svg"><path d="M6.960 2.046 C 6.236 2.116,5.358 2.357,4.796 2.641 C 4.426 2.828,3.928 3.183,3.624 3.475 C 2.737 4.332,2.251 5.370,2.062 6.812 C 1.970 7.515,1.969 16.481,2.061 17.188 C 2.239 18.550,2.681 19.544,3.476 20.372 C 4.162 21.084,4.935 21.524,5.956 21.780 C 6.817 21.997,6.896 22.000,11.993 22.000 C 14.960 22.000,16.828 21.985,17.041 21.959 C 19.985 21.603,21.695 19.840,21.962 16.885 C 21.990 16.579,21.999 14.787,21.989 11.660 C 21.974 7.001,21.972 6.891,21.889 6.456 C 21.642 5.171,21.165 4.235,20.369 3.478 C 19.583 2.729,18.652 2.295,17.359 2.076 C 16.995 2.014,7.572 1.987,6.960 2.046 M9.325 7.281 C 9.709 7.387,9.938 7.887,9.778 8.271 C 9.687 8.489,9.587 8.578,9.122 8.852 C 8.618 9.150,8.220 9.524,8.065 9.845 C 7.948 10.086,7.824 10.640,7.781 11.110 L 7.755 11.400 8.728 11.401 C 9.895 11.402,10.166 11.434,10.540 11.617 C 11.020 11.852,11.367 12.255,11.521 12.754 C 11.591 12.979,11.600 13.128,11.600 14.056 C 11.600 14.855,11.586 15.157,11.540 15.332 C 11.372 15.980,10.928 16.456,10.280 16.686 C 10.034 16.773,9.964 16.778,8.960 16.779 C 8.031 16.780,7.869 16.771,7.647 16.704 C 6.946 16.493,6.384 15.848,6.281 15.136 C 6.230 14.778,6.229 12.173,6.280 11.320 C 6.347 10.205,6.513 9.512,6.848 8.940 C 7.077 8.549,7.567 8.078,8.129 7.707 C 8.832 7.242,8.987 7.187,9.325 7.281 M15.647 7.380 C 15.834 7.504,15.958 7.745,15.959 7.987 C 15.961 8.344,15.839 8.494,15.261 8.852 C 14.506 9.318,14.184 9.712,14.024 10.364 C 13.959 10.628,13.881 11.388,13.915 11.422 C 13.925 11.432,14.406 11.440,14.985 11.440 C 15.601 11.440,16.124 11.458,16.248 11.484 C 16.982 11.638,17.610 12.313,17.719 13.064 C 17.770 13.419,17.770 14.777,17.719 15.140 C 17.645 15.667,17.303 16.195,16.850 16.483 C 16.476 16.720,16.229 16.768,15.296 16.790 C 14.779 16.802,14.323 16.792,14.116 16.764 C 13.419 16.671,12.865 16.272,12.569 15.652 L 12.420 15.340 12.420 13.100 C 12.420 11.446,12.434 10.771,12.473 10.520 C 12.648 9.390,13.036 8.637,13.724 8.094 C 14.054 7.834,14.552 7.501,14.836 7.351 C 15.029 7.249,15.090 7.235,15.274 7.254 C 15.411 7.267,15.546 7.313,15.647 7.380 " fill="#292D32" stroke="none" fill-rule="evenodd"></path></svg>