<svg width="24" height="24" viewBox="0 0 24 24" fill="none" xmlns="http://www.w3.org/2000/svg"><path d="M6.378 3.404 C 5.800 3.734,4.810 4.408,4.397 4.754 C 2.842 6.054,2.223 7.591,2.041 10.600 C 2.019 10.963,2.001 12.777,2.000 14.632 C 2.000 17.553,2.008 18.045,2.063 18.312 C 2.317 19.544,3.266 20.489,4.503 20.739 C 4.781 20.795,5.090 20.802,6.743 20.790 C 8.602 20.777,8.669 20.774,8.960 20.685 C 10.051 20.355,10.785 19.601,11.089 18.500 C 11.174 18.190,11.177 18.118,11.177 16.220 C 11.177 14.322,11.174 14.250,11.089 13.940 C 10.838 13.030,10.292 12.350,9.503 11.963 C 8.871 11.653,9.014 11.666,6.045 11.650 L 3.391 11.636 3.417 11.048 C 3.527 8.667,3.844 7.461,4.615 6.498 C 5.044 5.962,5.560 5.549,6.620 4.891 C 7.386 4.416,7.468 4.352,7.545 4.171 C 7.739 3.715,7.408 3.202,6.918 3.201 C 6.773 3.200,6.666 3.240,6.378 3.404 M17.458 3.254 C 17.285 3.333,16.538 3.798,15.999 4.163 C 14.039 5.490,13.232 6.912,12.943 9.544 C 12.831 10.562,12.794 12.163,12.810 15.220 C 12.827 18.445,12.821 18.352,13.063 18.928 C 13.413 19.759,14.110 20.384,15.020 20.683 C 15.294 20.773,15.343 20.775,17.256 20.790 C 18.947 20.803,19.256 20.796,19.536 20.740 C 20.541 20.537,21.326 19.907,21.732 18.977 C 21.949 18.480,21.967 18.312,21.988 16.555 C 22.011 14.716,21.978 14.169,21.819 13.692 C 21.511 12.766,20.761 12.046,19.800 11.754 C 19.504 11.665,19.461 11.663,16.860 11.642 L 14.220 11.620 14.232 11.120 C 14.279 9.205,14.558 7.873,15.104 6.950 C 15.352 6.533,16.068 5.804,16.590 5.439 C 16.917 5.210,17.142 5.066,18.034 4.513 C 18.294 4.352,18.414 4.146,18.409 3.873 C 18.404 3.639,18.321 3.476,18.137 3.335 C 17.967 3.205,17.649 3.167,17.458 3.254 " fill="#292D32" stroke="none" fill-rule="evenodd"></path></svg>