<svg width="24" height="24" viewBox="0 0 24 24" fill="none" xmlns="http://www.w3.org/2000/svg"><path d="M11.120 2.039 C 8.336 2.318,5.905 3.624,4.193 5.760 C 1.474 9.155,1.267 13.917,3.682 17.533 C 6.770 22.155,12.946 23.386,17.560 20.299 C 22.155 17.225,23.377 11.041,20.299 6.440 C 18.728 4.092,16.319 2.562,13.493 2.119 C 12.909 2.027,11.660 1.985,11.120 2.039 M12.539 4.281 C 14.678 4.435,16.555 5.399,17.952 7.060 C 20.333 9.892,20.334 14.093,17.953 16.940 C 16.812 18.306,15.307 19.215,13.583 19.582 C 11.120 20.107,8.514 19.366,6.684 17.621 C 4.576 15.611,3.769 12.673,4.558 9.877 C 4.774 9.108,5.226 8.126,5.451 7.937 C 5.654 7.766,5.946 7.720,6.187 7.820 C 6.266 7.854,7.717 8.677,9.411 9.650 C 11.679 10.954,12.517 11.455,12.591 11.552 C 12.702 11.696,12.748 11.976,12.703 12.220 C 12.639 12.558,12.173 12.825,11.828 12.721 C 11.736 12.693,11.005 12.294,10.204 11.834 C 9.403 11.373,8.733 11.011,8.717 11.028 C 8.653 11.095,8.560 11.692,8.560 12.036 C 8.560 12.910,8.889 13.716,9.514 14.369 C 10.186 15.073,11.038 15.440,12.000 15.440 C 12.962 15.440,13.814 15.073,14.486 14.369 C 15.120 13.706,15.440 12.911,15.440 12.000 C 15.440 10.099,13.901 8.560,12.000 8.560 C 11.552 8.560,11.131 8.644,10.660 8.827 C 10.244 8.988,10.045 8.987,9.792 8.820 C 9.394 8.556,9.373 7.875,9.755 7.603 C 9.945 7.469,10.552 7.251,11.003 7.157 C 11.585 7.036,12.414 7.036,13.000 7.158 C 13.975 7.360,14.837 7.837,15.543 8.567 C 16.476 9.531,16.930 10.653,16.930 12.000 C 16.930 13.409,16.427 14.586,15.403 15.573 C 13.500 17.408,10.500 17.408,8.597 15.573 C 8.029 15.025,7.673 14.498,7.388 13.780 C 6.985 12.767,6.956 11.460,7.313 10.436 L 7.391 10.212 6.831 9.896 C 6.522 9.722,6.259 9.583,6.246 9.587 C 6.198 9.599,6.007 10.187,5.895 10.660 C 5.790 11.109,5.782 11.196,5.782 12.000 C 5.782 12.803,5.790 12.892,5.895 13.337 C 6.189 14.585,6.699 15.502,7.598 16.402 C 8.498 17.301,9.415 17.811,10.663 18.105 C 11.108 18.210,11.197 18.218,12.000 18.218 C 12.803 18.218,12.892 18.210,13.340 18.105 C 14.572 17.816,15.508 17.295,16.402 16.402 C 17.295 15.508,17.816 14.572,18.105 13.340 C 18.210 12.892,18.218 12.803,18.218 12.000 C 18.218 11.197,18.210 11.108,18.105 10.660 C 17.816 9.429,17.296 8.494,16.402 7.597 C 15.494 6.687,14.502 6.148,13.223 5.871 C 12.882 5.798,12.693 5.784,12.000 5.784 C 11.300 5.784,11.119 5.797,10.760 5.874 C 9.928 6.053,9.202 6.361,8.487 6.840 C 8.283 6.976,8.052 7.105,7.973 7.127 C 7.452 7.271,6.942 6.754,7.083 6.228 C 7.154 5.966,7.261 5.851,7.716 5.550 C 8.785 4.841,10.080 4.388,11.328 4.285 C 11.917 4.237,11.923 4.237,12.539 4.281 " fill="#292D32" stroke="none" fill-rule="evenodd"></path></svg>