<svg width="24" height="24" viewBox="0 0 24 24" fill="none" xmlns="http://www.w3.org/2000/svg"><path d="M3.801 5.286 C 3.587 5.349,3.477 5.446,3.227 5.794 C 1.052 8.814,0.648 12.952,2.190 16.391 C 2.571 17.241,3.305 18.418,3.572 18.609 C 3.991 18.907,4.607 18.670,4.714 18.170 C 4.775 17.884,4.725 17.752,4.333 17.169 C 3.290 15.618,2.760 13.876,2.760 12.000 C 2.760 10.124,3.290 8.382,4.333 6.831 C 4.721 6.254,4.776 6.112,4.716 5.844 C 4.622 5.424,4.201 5.167,3.801 5.286 M19.785 5.288 C 19.433 5.384,19.186 5.821,19.284 6.175 C 19.306 6.256,19.478 6.551,19.667 6.831 C 20.710 8.382,21.240 10.124,21.240 12.000 C 21.240 13.876,20.710 15.618,19.667 17.169 C 19.275 17.752,19.225 17.884,19.286 18.170 C 19.393 18.670,20.009 18.907,20.428 18.609 C 20.695 18.418,21.429 17.241,21.810 16.391 C 23.048 13.630,23.051 10.388,21.816 7.624 C 21.385 6.660,20.638 5.496,20.360 5.356 C 20.171 5.261,19.972 5.237,19.785 5.288 M7.015 7.677 C 6.803 7.729,6.653 7.868,6.398 8.250 C 5.067 10.239,4.889 12.747,5.924 14.919 C 6.157 15.409,6.594 16.082,6.751 16.193 C 7.188 16.504,7.805 16.279,7.914 15.770 C 7.973 15.494,7.926 15.355,7.602 14.858 C 6.988 13.915,6.727 12.946,6.771 11.780 C 6.810 10.754,7.059 9.970,7.616 9.120 C 7.758 8.903,7.893 8.658,7.916 8.576 C 7.966 8.395,7.913 8.119,7.798 7.957 C 7.637 7.731,7.295 7.609,7.015 7.677 M16.619 7.676 C 16.343 7.744,16.149 7.951,16.083 8.247 C 16.027 8.496,16.084 8.669,16.344 9.049 C 16.934 9.911,17.240 10.919,17.240 12.002 C 17.240 13.065,16.964 13.995,16.386 14.877 C 16.075 15.351,16.027 15.495,16.086 15.770 C 16.194 16.272,16.812 16.505,17.236 16.203 C 17.302 16.156,17.468 15.952,17.602 15.750 C 18.923 13.775,19.110 11.263,18.096 9.123 C 17.818 8.538,17.400 7.907,17.207 7.782 C 17.042 7.675,16.800 7.632,16.619 7.676 M11.400 9.703 C 10.730 9.880,10.161 10.352,9.862 10.980 C 9.692 11.337,9.629 11.612,9.629 12.000 C 9.629 13.312,10.690 14.374,12.000 14.374 C 13.723 14.374,14.872 12.590,14.161 11.020 C 13.864 10.365,13.202 9.823,12.528 9.684 C 12.236 9.624,11.665 9.633,11.400 9.703 " fill="#292D32" stroke="none" fill-rule="evenodd"></path></svg>