<svg width="24" height="24" viewBox="0 0 24 24" fill="none" xmlns="http://www.w3.org/2000/svg"><path d="M11.120 2.039 C 8.336 2.318,5.905 3.624,4.193 5.760 C 1.474 9.155,1.267 13.917,3.682 17.533 C 6.770 22.155,12.946 23.386,17.560 20.299 C 22.155 17.225,23.377 11.041,20.299 6.440 C 18.728 4.092,16.319 2.562,13.493 2.119 C 12.909 2.027,11.660 1.985,11.120 2.039 M12.539 4.281 C 14.678 4.435,16.555 5.399,17.952 7.060 C 20.333 9.892,20.334 14.093,17.953 16.940 C 16.812 18.306,15.307 19.215,13.583 19.582 C 11.120 20.107,8.514 19.366,6.684 17.621 C 4.576 15.611,3.769 12.673,4.558 9.877 C 4.774 9.108,5.226 8.126,5.451 7.937 C 5.654 7.766,5.946 7.720,6.187 7.820 C 6.266 7.854,7.717 8.677,9.411 9.650 C 11.720 10.977,12.516 11.454,12.594 11.555 C 12.673 11.658,12.701 11.748,12.713 11.940 C 12.739 12.356,12.554 12.618,12.157 12.724 C 12.005 12.764,11.945 12.762,11.797 12.711 C 11.700 12.677,10.423 11.962,8.960 11.122 C 7.497 10.282,6.284 9.592,6.265 9.588 C 6.211 9.576,6.021 10.126,5.895 10.660 C 5.790 11.109,5.782 11.196,5.782 12.000 C 5.782 12.803,5.790 12.892,5.895 13.337 C 6.189 14.585,6.699 15.502,7.598 16.402 C 8.498 17.301,9.415 17.811,10.663 18.105 C 11.108 18.210,11.197 18.218,12.000 18.218 C 12.803 18.218,12.892 18.210,13.340 18.105 C 14.572 17.816,15.508 17.295,16.402 16.402 C 17.295 15.508,17.816 14.572,18.105 13.340 C 18.210 12.892,18.218 12.803,18.218 12.000 C 18.218 11.197,18.210 11.108,18.105 10.660 C 17.816 9.429,17.296 8.494,16.402 7.597 C 15.494 6.687,14.502 6.148,13.223 5.871 C 12.882 5.798,12.693 5.784,12.000 5.784 C 11.300 5.784,11.119 5.797,10.760 5.874 C 9.928 6.053,9.202 6.361,8.487 6.840 C 8.283 6.976,8.052 7.105,7.973 7.127 C 7.452 7.271,6.942 6.754,7.083 6.228 C 7.154 5.966,7.261 5.851,7.716 5.550 C 8.785 4.841,10.080 4.388,11.328 4.285 C 11.917 4.237,11.923 4.237,12.539 4.281 " fill="#292D32" stroke="none" fill-rule="evenodd"></path></svg>