<svg width="24" height="24" viewBox="0 0 24 24" fill="none" xmlns="http://www.w3.org/2000/svg"><path d="M6.785 1.288 C 6.587 1.342,6.338 1.590,6.283 1.787 C 6.256 1.883,6.240 2.523,6.240 3.491 C 6.240 4.698,6.229 5.045,6.190 5.056 C 6.163 5.063,5.984 5.098,5.794 5.135 C 3.829 5.508,2.478 6.898,2.095 8.940 C 2.025 9.315,2.020 9.602,2.020 13.500 C 2.020 17.398,2.025 17.685,2.095 18.060 C 2.487 20.151,3.849 21.513,5.940 21.905 C 6.319 21.976,6.635 21.980,12.000 21.980 C 17.365 21.980,17.681 21.976,18.060 21.905 C 20.151 21.513,21.513 20.151,21.905 18.060 C 21.975 17.685,21.980 17.398,21.980 13.500 C 21.980 9.602,21.975 9.315,21.905 8.940 C 21.519 6.883,20.228 5.562,18.161 5.109 C 17.788 5.027,17.678 5.025,12.772 5.011 L 7.763 4.997 7.752 3.382 L 7.740 1.767 7.620 1.597 C 7.427 1.323,7.099 1.202,6.785 1.288 M18.147 10.803 C 18.396 10.896,18.638 11.241,18.638 11.500 C 18.638 11.759,18.396 12.104,18.147 12.197 C 18.073 12.226,17.305 12.240,15.880 12.240 C 14.455 12.240,13.687 12.226,13.613 12.197 C 13.368 12.105,13.123 11.761,13.121 11.509 C 13.119 11.257,13.340 10.924,13.580 10.817 C 13.735 10.748,17.967 10.734,18.147 10.803 M8.413 11.059 C 9.293 11.246,10.069 11.994,10.301 12.880 C 10.390 13.218,10.390 13.782,10.301 14.120 C 10.128 14.783,9.587 15.449,8.989 15.737 C 8.463 15.990,7.905 16.059,7.347 15.941 C 6.467 15.754,5.691 15.006,5.459 14.120 C 5.370 13.782,5.370 13.218,5.459 12.880 C 5.633 12.216,6.173 11.549,6.769 11.263 C 7.298 11.010,7.854 10.941,8.413 11.059 M14.692 14.825 C 14.874 14.917,14.958 14.999,15.044 15.168 C 15.137 15.350,15.142 15.640,15.055 15.812 C 14.883 16.152,14.696 16.240,14.144 16.240 C 13.914 16.240,13.675 16.221,13.613 16.197 C 13.368 16.105,13.123 15.761,13.121 15.509 C 13.119 15.257,13.340 14.924,13.580 14.817 C 13.761 14.736,14.528 14.742,14.692 14.825 M18.147 14.803 C 18.396 14.896,18.638 15.241,18.638 15.500 C 18.638 15.759,18.396 16.104,18.147 16.197 C 18.085 16.221,17.846 16.240,17.616 16.240 C 17.064 16.240,16.877 16.152,16.705 15.812 C 16.577 15.559,16.656 15.139,16.866 14.955 C 17.047 14.796,17.174 14.763,17.607 14.762 C 17.842 14.761,18.085 14.779,18.147 14.803 " fill="#292D32" stroke="none" fill-rule="evenodd"></path></svg>