<svg width="24" height="24" viewBox="0 0 24 24" fill="none" xmlns="http://www.w3.org/2000/svg"><path d="M8.491 2.059 C 8.420 2.090,8.325 2.175,8.281 2.248 C 8.204 2.374,8.200 2.446,8.201 3.740 C 8.202 5.274,8.210 5.321,8.503 5.545 C 8.637 5.647,8.686 5.660,8.940 5.660 C 9.194 5.660,9.243 5.647,9.378 5.544 C 9.662 5.327,9.673 5.266,9.701 3.738 C 9.728 2.241,9.730 2.257,9.484 2.091 C 9.367 2.012,9.298 2.000,8.984 2.002 C 8.763 2.003,8.569 2.025,8.491 2.059 M11.436 2.091 C 11.198 2.252,11.199 2.245,11.210 3.783 L 11.220 5.186 11.326 5.347 C 11.542 5.672,12.033 5.767,12.354 5.544 C 12.665 5.329,12.674 5.282,12.701 3.740 C 12.728 2.241,12.730 2.257,12.484 2.091 C 12.366 2.012,12.298 2.000,11.960 2.000 C 11.622 2.000,11.554 2.012,11.436 2.091 M14.441 2.088 C 14.364 2.140,14.279 2.227,14.251 2.281 C 14.186 2.410,14.178 4.977,14.243 5.147 C 14.346 5.422,14.634 5.611,14.946 5.611 C 15.192 5.611,15.359 5.525,15.536 5.306 L 15.660 5.153 15.686 4.486 C 15.731 3.336,15.724 2.390,15.669 2.284 C 15.563 2.077,15.426 2.021,14.987 2.007 C 14.614 1.995,14.568 2.002,14.441 2.088 M17.041 2.256 C 16.968 2.280,16.870 2.351,16.824 2.413 C 16.744 2.520,16.739 2.592,16.713 3.833 C 16.689 4.991,16.677 5.170,16.604 5.402 C 16.403 6.042,15.900 6.481,15.225 6.605 C 14.740 6.694,14.150 6.518,13.754 6.166 C 13.511 5.950,13.417 5.952,13.163 6.177 C 12.895 6.415,12.668 6.543,12.382 6.618 C 11.803 6.769,11.210 6.621,10.760 6.215 C 10.516 5.995,10.424 5.999,10.120 6.244 C 9.796 6.504,9.529 6.629,9.197 6.675 C 8.341 6.793,7.527 6.289,7.279 5.488 C 7.207 5.254,7.200 5.115,7.200 3.892 C 7.200 2.714,7.192 2.539,7.133 2.440 C 6.999 2.212,6.759 2.185,6.312 2.345 C 4.746 2.908,3.833 4.106,3.580 5.931 C 3.526 6.327,3.520 7.095,3.531 12.201 C 3.543 17.459,3.551 18.051,3.612 18.346 C 3.818 19.346,4.216 20.146,4.791 20.713 C 5.258 21.174,6.080 21.634,6.503 21.671 C 6.686 21.687,6.716 21.677,6.827 21.567 C 6.894 21.500,6.961 21.387,6.975 21.317 C 6.989 21.247,7.000 20.615,7.000 19.913 C 7.000 18.469,7.024 18.284,7.278 17.740 C 7.644 16.958,8.284 16.399,9.140 16.115 C 9.419 16.022,9.431 16.022,11.838 16.009 C 14.638 15.994,14.630 15.993,15.318 16.327 C 15.685 16.505,15.782 16.575,16.104 16.896 C 16.425 17.218,16.495 17.315,16.673 17.682 C 16.974 18.304,17.000 18.483,17.000 19.953 C 17.000 20.633,17.011 21.246,17.025 21.314 C 17.054 21.462,17.212 21.632,17.354 21.667 C 17.554 21.717,18.136 21.483,18.660 21.141 C 19.251 20.756,19.820 20.028,20.100 19.301 C 20.403 18.513,20.480 17.952,20.480 16.535 C 20.480 15.028,20.460 14.978,19.461 13.960 C 18.503 12.984,18.466 12.869,18.487 10.938 C 18.502 9.657,18.512 9.597,18.772 9.326 C 18.958 9.133,19.179 9.034,19.506 8.997 C 19.857 8.957,20.065 8.857,20.257 8.633 C 20.482 8.370,20.492 8.296,20.468 7.076 C 20.446 5.889,20.399 5.541,20.178 4.897 C 19.743 3.629,18.821 2.710,17.600 2.329 C 17.224 2.211,17.189 2.207,17.041 2.256 M9.505 17.063 C 8.826 17.228,8.266 17.767,8.053 18.460 C 7.988 18.675,7.981 18.829,7.991 19.920 C 8.004 21.292,8.022 21.401,8.270 21.658 C 8.353 21.743,8.501 21.850,8.600 21.896 C 8.778 21.979,8.816 21.980,12.000 21.980 C 15.181 21.980,15.222 21.979,15.400 21.896 C 15.625 21.793,15.829 21.592,15.925 21.381 C 15.991 21.237,15.998 21.097,15.998 20.040 C 15.999 18.716,15.969 18.481,15.753 18.069 C 15.484 17.560,14.927 17.147,14.365 17.041 C 14.234 17.016,13.283 17.001,11.945 17.003 C 10.186 17.006,9.693 17.018,9.505 17.063 " fill="#292D32" stroke="none" fill-rule="evenodd"></path></svg>