<svg width="24" height="24" viewBox="0 0 24 24" fill="none" xmlns="http://www.w3.org/2000/svg"><path d="M7.681 2.043 C 6.815 2.127,5.975 2.401,5.375 2.797 C 4.405 3.435,3.822 4.422,3.574 5.840 C 3.515 6.178,3.506 6.810,3.492 11.540 C 3.475 16.909,3.490 17.716,3.619 18.360 C 3.956 20.053,4.827 21.126,6.282 21.641 C 6.545 21.734,6.545 21.734,6.702 21.657 C 6.994 21.515,7.000 21.482,7.001 19.960 C 7.002 18.414,7.023 18.253,7.297 17.700 C 7.691 16.903,8.317 16.371,9.161 16.114 C 9.455 16.025,9.499 16.023,11.838 16.010 C 14.416 15.995,14.557 16.004,15.091 16.219 C 15.880 16.536,16.544 17.231,16.822 18.030 C 16.961 18.431,16.999 18.884,17.000 20.160 C 17.000 21.452,17.013 21.518,17.290 21.653 C 17.460 21.736,17.523 21.724,18.020 21.510 C 19.052 21.066,19.825 20.187,20.205 19.026 C 20.431 18.333,20.488 17.866,20.494 16.640 C 20.500 15.608,20.495 15.523,20.412 15.260 C 20.281 14.847,20.133 14.642,19.501 14.000 C 18.515 13.001,18.520 13.014,18.520 11.135 C 18.520 9.627,18.521 9.618,18.761 9.345 C 18.941 9.140,19.153 9.041,19.494 9.003 C 19.837 8.965,20.055 8.862,20.248 8.648 C 20.485 8.386,20.501 8.294,20.494 7.220 C 20.487 6.166,20.424 5.654,20.218 4.999 C 19.667 3.248,18.312 2.236,16.257 2.042 C 15.738 1.992,8.195 1.994,7.681 2.043 M14.365 7.155 C 14.600 7.317,14.700 7.504,14.700 7.783 C 14.700 8.090,14.569 8.310,14.310 8.435 C 14.136 8.519,14.113 8.520,10.957 8.520 C 7.389 8.520,7.639 8.541,7.381 8.222 C 7.271 8.086,7.260 8.046,7.260 7.783 C 7.260 7.528,7.273 7.477,7.372 7.347 C 7.434 7.266,7.551 7.164,7.632 7.121 C 7.776 7.045,7.869 7.043,11.003 7.051 L 14.226 7.060 14.365 7.155 M9.510 17.062 C 8.891 17.213,8.374 17.664,8.113 18.284 C 8.025 18.491,8.021 18.551,8.008 19.799 C 7.993 21.268,8.003 21.341,8.254 21.626 C 8.566 21.981,8.305 21.958,12.000 21.958 C 15.072 21.958,15.269 21.954,15.421 21.885 C 15.619 21.795,15.804 21.615,15.904 21.413 C 15.974 21.272,15.980 21.156,15.980 19.960 C 15.980 18.701,15.977 18.651,15.887 18.389 C 15.650 17.706,15.124 17.224,14.436 17.062 C 14.075 16.976,9.863 16.977,9.510 17.062 " fill="#292D32" stroke="none" fill-rule="evenodd"></path></svg>