<svg width="24" height="24" viewBox="0 0 24 24" fill="none" xmlns="http://www.w3.org/2000/svg"><path d="M5.807 1.288 C 5.558 1.343,5.342 1.571,5.284 1.838 C 5.222 2.126,5.222 8.874,5.284 9.162 C 5.424 9.815,6.311 9.943,6.640 9.358 L 6.740 9.180 6.740 5.500 L 6.740 1.820 6.651 1.653 C 6.523 1.415,6.388 1.328,6.040 1.261 C 6.007 1.255,5.902 1.267,5.807 1.288 M11.807 1.288 C 11.558 1.343,11.342 1.571,11.284 1.838 C 11.259 1.956,11.240 2.453,11.240 3.000 C 11.240 3.547,11.259 4.044,11.284 4.162 C 11.424 4.815,12.311 4.943,12.640 4.358 L 12.740 4.180 12.740 3.000 C 12.740 1.856,12.737 1.815,12.651 1.653 C 12.523 1.415,12.388 1.328,12.040 1.261 C 12.007 1.255,11.902 1.267,11.807 1.288 M17.807 1.288 C 17.558 1.343,17.342 1.571,17.284 1.838 C 17.222 2.126,17.222 8.874,17.284 9.162 C 17.424 9.815,18.311 9.943,18.640 9.358 L 18.740 9.180 18.740 5.500 L 18.740 1.820 18.651 1.653 C 18.523 1.415,18.388 1.328,18.040 1.261 C 18.007 1.255,17.902 1.267,17.807 1.288 M11.580 7.154 C 11.419 7.230,11.264 7.349,11.111 7.515 C 10.910 7.732,10.782 7.962,10.081 9.357 C 8.984 11.543,9.176 11.391,7.057 11.755 C 6.287 11.887,5.568 12.025,5.458 12.062 C 5.045 12.202,4.701 12.484,4.574 12.788 C 4.450 13.085,4.516 13.518,4.747 13.919 C 4.805 14.018,5.360 14.613,5.981 15.240 C 6.720 15.986,7.142 16.442,7.201 16.560 C 7.322 16.798,7.399 17.097,7.400 17.326 C 7.400 17.429,7.263 18.104,7.096 18.826 C 6.748 20.332,6.700 20.741,6.819 21.181 C 7.006 21.872,7.619 22.092,8.456 21.767 C 8.624 21.701,9.317 21.322,9.994 20.925 C 10.672 20.527,11.310 20.164,11.412 20.119 C 11.653 20.013,12.041 19.978,12.326 20.037 C 12.565 20.087,12.764 20.195,14.356 21.139 C 15.426 21.772,15.776 21.919,16.220 21.919 C 16.676 21.918,16.939 21.750,17.128 21.340 C 17.207 21.167,17.219 21.077,17.218 20.680 C 17.216 20.251,17.196 20.132,16.908 18.895 C 16.707 18.030,16.600 17.488,16.600 17.332 C 16.600 17.065,16.687 16.729,16.810 16.520 C 16.856 16.443,17.382 15.885,17.980 15.280 C 18.577 14.675,19.126 14.092,19.199 13.984 C 19.485 13.563,19.563 13.099,19.408 12.750 C 19.323 12.558,19.044 12.284,18.814 12.167 C 18.542 12.029,18.246 11.962,16.900 11.737 C 15.409 11.488,15.225 11.429,14.885 11.089 C 14.719 10.922,14.575 10.664,13.899 9.317 C 13.118 7.761,13.104 7.736,12.824 7.459 C 12.385 7.025,12.033 6.939,11.580 7.154 " fill="#292D32" stroke="none" fill-rule="evenodd"></path></svg>