<svg width="24" height="24" viewBox="0 0 24 24" fill="none" xmlns="http://www.w3.org/2000/svg"><path d="M11.837 1.318 C 11.649 1.354,11.422 1.496,11.303 1.654 C 11.251 1.723,11.073 2.051,10.908 2.382 C 10.743 2.713,10.583 3.003,10.554 3.027 C 10.524 3.050,10.225 3.117,9.889 3.174 C 9.239 3.286,9.052 3.356,8.849 3.563 C 8.690 3.726,8.626 3.916,8.649 4.155 C 8.678 4.459,8.793 4.635,9.309 5.166 C 9.579 5.444,9.800 5.693,9.800 5.720 C 9.800 5.746,9.748 5.995,9.685 6.274 C 9.528 6.962,9.510 7.116,9.561 7.343 C 9.672 7.841,10.137 8.075,10.660 7.898 C 10.761 7.864,11.088 7.693,11.386 7.518 C 11.685 7.343,11.965 7.200,12.008 7.200 C 12.052 7.200,12.328 7.344,12.621 7.521 C 12.915 7.697,13.230 7.868,13.322 7.901 C 13.539 7.977,13.804 7.976,13.990 7.898 C 14.452 7.705,14.536 7.311,14.320 6.340 C 14.254 6.043,14.200 5.770,14.200 5.733 C 14.200 5.696,14.421 5.440,14.692 5.163 C 15.261 4.581,15.340 4.449,15.340 4.077 C 15.340 3.861,15.322 3.786,15.236 3.657 C 15.067 3.402,14.822 3.296,14.115 3.175 C 13.777 3.117,13.477 3.051,13.448 3.028 C 13.419 3.005,13.250 2.700,13.073 2.349 C 12.664 1.540,12.519 1.388,12.080 1.309 C 12.025 1.299,11.915 1.303,11.837 1.318 M10.260 10.047 C 9.999 10.097,9.610 10.285,9.393 10.465 C 9.070 10.735,8.853 11.076,8.736 11.500 C 8.654 11.797,8.653 21.178,8.735 21.374 C 8.813 21.562,9.026 21.790,9.216 21.892 C 9.379 21.980,9.393 21.980,11.916 21.991 C 14.706 22.003,14.669 22.006,14.968 21.760 C 15.047 21.694,15.159 21.547,15.216 21.432 L 15.320 21.224 15.320 16.481 C 15.320 12.348,15.312 11.706,15.259 11.501 C 15.071 10.782,14.424 10.175,13.703 10.043 C 13.409 9.990,10.545 9.993,10.260 10.047 M3.680 14.026 C 3.470 14.061,3.092 14.216,2.891 14.349 C 2.471 14.626,2.146 15.103,2.044 15.592 C 2.014 15.734,2.000 16.679,2.000 18.475 C 2.000 21.490,1.991 21.393,2.300 21.702 C 2.603 22.005,2.590 22.004,4.904 21.991 C 6.769 21.981,6.952 21.974,7.084 21.908 C 7.274 21.814,7.466 21.623,7.573 21.422 L 7.660 21.260 7.660 18.000 C 7.660 14.741,7.660 14.740,7.574 14.579 C 7.465 14.375,7.305 14.215,7.101 14.106 C 6.945 14.022,6.895 14.020,5.360 14.015 C 4.491 14.012,3.735 14.017,3.680 14.026 M17.080 17.037 C 16.795 17.124,16.570 17.311,16.426 17.579 C 16.342 17.737,16.340 17.776,16.340 19.500 C 16.340 21.224,16.342 21.263,16.426 21.421 C 16.535 21.625,16.695 21.785,16.899 21.894 C 17.058 21.979,17.088 21.980,19.160 21.980 C 21.157 21.980,21.268 21.976,21.416 21.903 C 21.615 21.804,21.804 21.615,21.903 21.416 C 21.973 21.274,21.981 21.152,21.992 20.071 C 22.006 18.740,21.986 18.561,21.780 18.128 C 21.523 17.586,20.959 17.153,20.365 17.041 C 20.116 16.994,17.233 16.991,17.080 17.037 " fill="#292D32" stroke="none" fill-rule="evenodd"></path></svg>