<svg width="24" height="24" viewBox="0 0 24 24" fill="none" xmlns="http://www.w3.org/2000/svg"><path d="M7.061 2.045 C 5.425 2.170,4.502 2.655,4.027 3.640 C 3.800 4.109,3.665 4.623,3.572 5.368 C 3.505 5.897,3.500 6.429,3.500 12.440 L 3.500 18.940 3.589 19.340 C 3.757 20.099,4.108 20.602,4.562 20.737 C 4.826 20.815,4.884 20.815,5.182 20.738 C 5.652 20.617,6.010 20.382,6.632 19.788 C 6.954 19.481,7.113 19.361,7.352 19.247 C 7.646 19.107,7.679 19.100,8.080 19.100 C 8.469 19.100,8.520 19.109,8.769 19.227 C 9.151 19.409,9.377 19.638,10.020 20.500 C 10.331 20.918,10.684 21.354,10.803 21.469 C 11.409 22.055,12.266 22.139,12.940 21.677 C 13.199 21.500,13.435 21.228,14.051 20.396 C 14.732 19.478,14.941 19.289,15.437 19.144 C 16.113 18.945,16.774 19.168,17.380 19.798 C 17.800 20.235,18.373 20.619,18.755 20.720 C 19.542 20.927,20.098 20.496,20.373 19.467 L 20.460 19.140 20.460 12.380 C 20.460 5.129,20.464 5.293,20.255 4.427 C 19.981 3.291,19.368 2.611,18.320 2.284 C 17.944 2.167,17.456 2.086,16.840 2.040 C 16.189 1.992,7.703 1.996,7.061 2.045 M14.262 7.344 C 14.585 7.500,15.104 8.017,15.262 8.340 C 15.363 8.545,15.380 8.627,15.380 8.900 C 15.380 9.431,15.408 9.395,13.163 11.650 C 11.742 13.077,11.134 13.662,11.010 13.721 C 10.793 13.822,9.293 14.053,9.093 14.016 C 8.931 13.986,8.742 13.838,8.659 13.677 C 8.578 13.521,8.584 13.371,8.704 12.520 C 8.792 11.902,8.829 11.743,8.927 11.557 C 9.019 11.381,9.448 10.930,10.952 9.432 C 12.809 7.581,13.021 7.393,13.394 7.253 C 13.616 7.170,13.980 7.208,14.262 7.344 " fill="#292D32" stroke="none" fill-rule="evenodd"></path></svg>