<svg width="24" height="24" viewBox="0 0 24 24" fill="none" xmlns="http://www.w3.org/2000/svg"><path d="M6.960 2.046 C 6.236 2.116,5.358 2.357,4.796 2.641 C 4.426 2.828,3.928 3.183,3.624 3.475 C 2.737 4.332,2.251 5.370,2.062 6.812 C 1.970 7.515,1.969 16.481,2.061 17.188 C 2.239 18.550,2.681 19.544,3.476 20.372 C 4.162 21.084,4.935 21.524,5.956 21.780 C 6.817 21.997,6.896 22.000,11.993 22.000 C 14.960 22.000,16.828 21.985,17.041 21.959 C 19.985 21.603,21.695 19.840,21.962 16.885 C 21.990 16.579,21.999 14.787,21.989 11.660 C 21.974 7.001,21.972 6.891,21.889 6.456 C 21.642 5.171,21.165 4.235,20.369 3.478 C 19.583 2.729,18.652 2.295,17.359 2.076 C 16.995 2.014,7.572 1.987,6.960 2.046 M12.271 5.822 C 12.448 5.896,12.584 6.017,12.674 6.180 C 12.733 6.288,12.742 6.620,12.760 9.490 L 12.780 12.681 13.660 11.796 C 14.553 10.898,14.728 10.763,14.991 10.761 C 15.252 10.759,15.544 10.938,15.667 11.174 C 15.749 11.332,15.746 11.673,15.661 11.842 C 15.564 12.034,12.540 15.065,12.340 15.170 C 12.246 15.219,12.105 15.254,12.000 15.254 C 11.895 15.254,11.754 15.219,11.660 15.170 C 11.460 15.065,8.436 12.034,8.339 11.842 C 8.254 11.673,8.251 11.332,8.333 11.174 C 8.456 10.938,8.748 10.759,9.009 10.761 C 9.272 10.763,9.447 10.898,10.340 11.796 L 11.220 12.681 11.240 9.490 C 11.258 6.620,11.267 6.288,11.326 6.180 C 11.520 5.828,11.922 5.676,12.271 5.822 M6.564 15.901 C 9.081 16.690,11.854 16.920,14.500 16.557 C 15.509 16.419,16.513 16.195,17.457 15.898 C 17.954 15.741,18.075 15.732,18.302 15.835 C 18.632 15.985,18.806 16.334,18.721 16.673 C 18.628 17.043,18.492 17.146,17.820 17.352 C 15.892 17.945,14.061 18.217,12.000 18.217 C 9.940 18.217,8.133 17.949,6.180 17.353 C 5.655 17.193,5.462 17.080,5.353 16.868 C 5.145 16.467,5.309 16.002,5.720 15.824 C 5.929 15.733,6.069 15.746,6.564 15.901 " fill="#292D32" stroke="none" fill-rule="evenodd"></path></svg>