<svg width="24" height="24" viewBox="0 0 24 24" fill="none" xmlns="http://www.w3.org/2000/svg"><path d="M6.960 2.046 C 6.236 2.116,5.358 2.357,4.796 2.641 C 4.426 2.828,3.928 3.183,3.624 3.475 C 2.737 4.332,2.251 5.370,2.062 6.812 C 1.970 7.515,1.969 16.481,2.061 17.188 C 2.239 18.550,2.681 19.544,3.476 20.372 C 4.162 21.084,4.935 21.524,5.956 21.780 C 6.817 21.997,6.896 22.000,11.993 22.000 C 14.960 22.000,16.828 21.985,17.041 21.959 C 19.985 21.603,21.695 19.840,21.962 16.885 C 21.990 16.579,21.999 14.787,21.989 11.660 C 21.974 7.001,21.972 6.891,21.889 6.456 C 21.642 5.171,21.165 4.235,20.369 3.478 C 19.583 2.729,18.652 2.295,17.359 2.076 C 16.995 2.014,7.572 1.987,6.960 2.046 M9.430 6.982 C 9.508 6.998,10.207 7.671,11.808 9.270 L 14.077 11.536 14.088 10.194 L 14.100 8.853 14.214 8.688 C 14.507 8.266,15.114 8.255,15.428 8.667 L 15.540 8.814 15.540 11.223 L 15.540 13.633 15.417 13.786 C 15.350 13.871,15.224 13.976,15.137 14.020 C 14.987 14.097,14.889 14.100,12.823 14.111 C 11.359 14.119,10.597 14.108,10.452 14.078 C 9.795 13.942,9.620 13.114,10.168 12.734 L 10.333 12.620 11.674 12.608 L 13.016 12.597 10.792 10.368 C 9.569 9.143,8.539 8.082,8.504 8.012 C 8.415 7.834,8.423 7.540,8.523 7.334 C 8.610 7.153,8.800 7.009,9.014 6.959 C 9.136 6.931,9.195 6.934,9.430 6.982 M6.564 15.901 C 9.081 16.690,11.854 16.920,14.500 16.557 C 15.509 16.419,16.513 16.195,17.457 15.898 C 17.954 15.741,18.075 15.732,18.302 15.835 C 18.632 15.985,18.806 16.334,18.721 16.673 C 18.628 17.043,18.492 17.146,17.820 17.352 C 15.892 17.945,14.061 18.217,12.000 18.217 C 9.940 18.217,8.133 17.949,6.180 17.353 C 5.655 17.193,5.462 17.080,5.353 16.868 C 5.145 16.467,5.309 16.002,5.720 15.824 C 5.929 15.733,6.069 15.746,6.564 15.901 " fill="#292D32" stroke="none" fill-rule="evenodd"></path></svg>