<svg width="24" height="24" viewBox="0 0 24 24" fill="none" xmlns="http://www.w3.org/2000/svg"><path d="M7.061 2.045 C 5.425 2.170,4.502 2.655,4.027 3.640 C 3.800 4.109,3.665 4.623,3.572 5.368 C 3.505 5.897,3.500 6.429,3.500 12.440 L 3.500 18.940 3.589 19.340 C 3.757 20.099,4.108 20.602,4.562 20.737 C 4.826 20.815,4.884 20.815,5.182 20.738 C 5.652 20.617,6.010 20.382,6.632 19.788 C 6.954 19.481,7.113 19.361,7.352 19.247 C 7.646 19.107,7.679 19.100,8.080 19.100 C 8.469 19.100,8.520 19.109,8.769 19.227 C 9.151 19.409,9.377 19.638,10.020 20.500 C 10.331 20.918,10.684 21.354,10.803 21.469 C 11.409 22.055,12.266 22.139,12.940 21.677 C 13.199 21.500,13.435 21.228,14.051 20.396 C 14.732 19.478,14.941 19.289,15.437 19.144 C 16.113 18.945,16.774 19.168,17.380 19.798 C 17.800 20.235,18.373 20.619,18.755 20.720 C 19.542 20.927,20.098 20.496,20.373 19.467 L 20.460 19.140 20.460 12.380 C 20.460 5.129,20.464 5.293,20.255 4.427 C 19.981 3.291,19.368 2.611,18.320 2.284 C 17.944 2.167,17.456 2.086,16.840 2.040 C 16.189 1.992,7.703 1.996,7.061 2.045 M16.189 6.286 C 16.577 6.384,16.814 6.790,16.714 7.186 C 16.656 7.416,16.428 7.657,16.213 7.717 C 16.000 7.776,8.000 7.776,7.787 7.717 C 7.572 7.657,7.344 7.416,7.286 7.186 C 7.190 6.806,7.425 6.385,7.785 6.289 C 8.017 6.228,15.946 6.225,16.189 6.286 M15.189 10.286 C 15.577 10.384,15.814 10.790,15.714 11.186 C 15.656 11.416,15.428 11.657,15.213 11.717 C 15.111 11.745,14.032 11.760,12.000 11.760 C 9.968 11.760,8.889 11.745,8.787 11.717 C 8.572 11.657,8.344 11.416,8.286 11.186 C 8.190 10.806,8.425 10.385,8.785 10.289 C 9.015 10.228,14.947 10.226,15.189 10.286 " fill="#292D32" stroke="none" fill-rule="evenodd"></path></svg>