<svg width="24" height="24" viewBox="0 0 24 24" fill="none" xmlns="http://www.w3.org/2000/svg"><path d="M5.460 2.026 C 4.444 2.147,3.816 2.367,3.280 2.789 C 2.595 3.328,2.162 4.215,2.042 5.328 C 2.014 5.586,2.000 8.313,2.000 13.412 C 2.000 21.770,1.988 21.319,2.218 21.621 C 2.276 21.696,2.408 21.808,2.511 21.869 C 2.669 21.962,2.746 21.980,2.980 21.980 C 3.348 21.980,3.405 21.948,4.473 21.145 C 4.953 20.785,5.405 20.459,5.477 20.421 C 5.683 20.315,5.994 20.299,6.245 20.380 C 6.441 20.444,6.550 20.540,7.460 21.443 C 8.107 22.086,8.512 22.458,8.609 22.498 C 8.820 22.586,9.220 22.577,9.436 22.478 C 9.559 22.423,9.907 22.105,10.597 21.421 C 11.654 20.371,11.726 20.319,12.115 20.321 C 12.217 20.321,12.375 20.356,12.466 20.397 C 12.557 20.438,13.029 20.771,13.516 21.137 C 14.586 21.941,14.655 21.980,15.000 21.979 C 15.310 21.977,15.510 21.892,15.728 21.667 C 16.015 21.371,16.000 21.683,16.000 16.055 L 16.000 11.004 17.990 10.990 C 19.743 10.978,20.009 10.968,20.220 10.906 C 21.098 10.650,21.651 10.096,21.906 9.220 C 21.966 9.013,21.978 8.752,21.990 7.318 C 22.004 5.754,22.000 5.631,21.921 5.243 C 21.627 3.802,20.650 2.689,19.260 2.213 C 18.632 1.997,18.735 2.000,11.900 2.006 C 8.424 2.009,5.526 2.018,5.460 2.026 M18.592 3.581 C 19.478 3.790,20.211 4.523,20.420 5.410 C 20.494 5.726,20.507 8.641,20.435 8.900 C 20.379 9.103,20.111 9.375,19.900 9.442 C 19.792 9.476,19.376 9.498,18.630 9.510 L 17.520 9.527 17.520 6.665 L 17.520 3.803 17.661 3.661 C 17.795 3.527,17.817 3.520,18.071 3.521 C 18.219 3.521,18.454 3.548,18.592 3.581 M9.369 6.612 C 9.452 6.657,9.569 6.766,9.629 6.854 L 9.740 7.013 9.752 8.124 L 9.765 9.235 10.876 9.248 L 11.987 9.260 12.146 9.371 C 12.602 9.686,12.602 10.314,12.146 10.629 L 11.987 10.740 10.876 10.752 L 9.765 10.765 9.752 11.876 L 9.740 12.987 9.629 13.146 C 9.312 13.605,8.643 13.596,8.353 13.130 C 8.262 12.984,8.260 12.953,8.248 11.872 L 8.235 10.765 7.124 10.752 L 6.013 10.740 5.854 10.629 C 5.395 10.312,5.404 9.643,5.870 9.353 C 6.016 9.262,6.047 9.260,7.128 9.248 L 8.235 9.235 8.248 8.128 C 8.260 7.052,8.263 7.016,8.352 6.872 C 8.505 6.626,8.834 6.467,9.100 6.511 C 9.166 6.522,9.287 6.567,9.369 6.612 " fill="#292D32" stroke="none" fill-rule="evenodd"></path></svg>