<svg width="24" height="24" viewBox="0 0 24 24" fill="none" xmlns="http://www.w3.org/2000/svg"><path d="M6.960 2.046 C 6.236 2.116,5.358 2.357,4.796 2.641 C 4.426 2.828,3.928 3.183,3.624 3.475 C 2.737 4.332,2.251 5.370,2.062 6.812 C 1.970 7.515,1.969 16.481,2.061 17.188 C 2.239 18.550,2.681 19.544,3.476 20.372 C 4.162 21.084,4.935 21.524,5.956 21.780 C 6.817 21.997,6.896 22.000,11.993 22.000 C 14.960 22.000,16.828 21.985,17.041 21.959 C 19.985 21.603,21.695 19.840,21.962 16.885 C 21.990 16.579,21.999 14.787,21.989 11.660 C 21.974 7.001,21.972 6.891,21.889 6.456 C 21.642 5.171,21.165 4.235,20.369 3.478 C 19.583 2.729,18.652 2.295,17.359 2.076 C 16.995 2.014,7.572 1.987,6.960 2.046 M15.436 6.213 C 16.441 6.435,16.839 6.961,16.958 8.220 C 17.015 8.820,17.014 15.889,16.957 16.240 C 16.828 17.038,16.375 17.353,15.778 17.061 C 15.658 17.002,15.412 16.818,15.230 16.651 C 14.833 16.286,14.631 16.186,14.298 16.188 C 13.864 16.191,13.667 16.336,13.159 17.021 C 12.645 17.716,12.430 17.875,12.000 17.878 C 11.620 17.881,11.330 17.661,10.840 17.000 C 10.331 16.313,10.149 16.182,9.700 16.182 C 9.345 16.182,9.187 16.262,8.755 16.660 C 8.387 16.999,8.152 17.127,7.859 17.152 C 7.601 17.173,7.441 17.096,7.279 16.872 C 7.010 16.501,7.023 16.700,7.008 12.500 C 6.995 8.635,7.011 8.059,7.145 7.540 C 7.369 6.673,7.863 6.291,8.922 6.164 C 9.086 6.144,10.552 6.132,12.180 6.138 C 14.751 6.146,15.179 6.156,15.436 6.213 " fill="#292D32" stroke="none" fill-rule="evenodd"></path></svg>