<svg width="24" height="24" viewBox="0 0 24 24" fill="none" xmlns="http://www.w3.org/2000/svg"><path d="M7.061 2.045 C 5.425 2.170,4.502 2.655,4.027 3.640 C 3.800 4.109,3.665 4.623,3.572 5.368 C 3.505 5.897,3.500 6.429,3.500 12.440 L 3.500 18.940 3.589 19.340 C 3.757 20.099,4.108 20.602,4.562 20.737 C 4.826 20.815,4.884 20.815,5.182 20.738 C 5.652 20.617,6.010 20.382,6.632 19.788 C 6.954 19.481,7.113 19.361,7.352 19.247 C 7.646 19.107,7.679 19.100,8.080 19.100 C 8.469 19.100,8.520 19.109,8.769 19.227 C 9.151 19.409,9.377 19.638,10.020 20.500 C 10.331 20.918,10.684 21.354,10.803 21.469 C 11.409 22.055,12.266 22.139,12.940 21.677 C 13.199 21.500,13.435 21.228,14.051 20.396 C 14.732 19.478,14.941 19.289,15.437 19.144 C 16.113 18.945,16.774 19.168,17.380 19.798 C 17.800 20.235,18.373 20.619,18.755 20.720 C 19.542 20.927,20.098 20.496,20.373 19.467 L 20.460 19.140 20.460 12.380 C 20.460 5.129,20.464 5.293,20.255 4.427 C 19.981 3.291,19.368 2.611,18.320 2.284 C 17.944 2.167,17.456 2.086,16.840 2.040 C 16.189 1.992,7.703 1.996,7.061 2.045 M15.703 6.401 C 16.018 6.554,16.176 6.921,16.081 7.282 C 16.038 7.444,15.736 7.758,12.607 10.893 C 10.722 12.781,9.103 14.371,9.009 14.427 C 8.516 14.720,7.906 14.361,7.911 13.782 C 7.912 13.665,7.941 13.517,7.974 13.454 C 8.075 13.264,14.922 6.451,15.080 6.383 C 15.276 6.299,15.506 6.306,15.703 6.401 M9.340 7.066 C 9.837 7.235,10.116 7.821,9.939 8.322 C 9.854 8.563,9.709 8.740,9.489 8.869 C 9.328 8.964,9.256 8.980,9.000 8.980 C 8.744 8.980,8.672 8.964,8.511 8.869 C 7.466 8.255,8.193 6.675,9.340 7.066 M15.340 12.066 C 15.837 12.235,16.116 12.821,15.939 13.322 C 15.854 13.563,15.709 13.740,15.489 13.869 C 15.328 13.964,15.256 13.980,15.000 13.980 C 14.744 13.980,14.672 13.964,14.511 13.869 C 13.466 13.255,14.193 11.675,15.340 12.066 " fill="#292D32" stroke="none" fill-rule="evenodd"></path></svg>