<svg width="24" height="24" viewBox="0 0 24 24" fill="none" xmlns="http://www.w3.org/2000/svg"><path d="M5.440 2.026 C 4.269 2.141,3.428 2.525,2.852 3.207 C 2.497 3.626,2.251 4.172,2.093 4.888 C 2.024 5.203,2.020 5.624,2.020 13.260 L 2.020 21.300 2.108 21.465 C 2.332 21.883,2.823 22.088,3.290 21.958 C 3.380 21.933,3.829 21.626,4.403 21.197 C 4.933 20.802,5.423 20.448,5.493 20.411 C 5.673 20.314,6.129 20.318,6.340 20.418 C 6.437 20.465,6.891 20.882,7.500 21.484 C 8.459 22.432,8.510 22.475,8.733 22.540 C 8.883 22.583,9.019 22.598,9.113 22.581 C 9.465 22.516,9.594 22.416,10.575 21.445 C 11.106 20.919,11.603 20.456,11.680 20.416 C 11.867 20.317,12.329 20.314,12.507 20.411 C 12.577 20.448,13.064 20.800,13.590 21.192 C 14.608 21.952,14.754 22.029,15.101 21.990 C 15.486 21.947,15.861 21.640,15.958 21.289 C 15.986 21.190,16.000 19.440,16.000 16.072 L 16.000 11.005 17.990 10.990 C 19.742 10.976,20.009 10.966,20.220 10.904 C 20.920 10.699,21.427 10.291,21.715 9.702 C 21.963 9.196,21.971 9.124,21.990 7.440 C 22.001 6.397,21.991 5.777,21.959 5.520 C 21.770 4.003,20.747 2.728,19.320 2.232 C 18.684 2.012,19.129 2.025,12.080 2.018 C 8.505 2.015,5.517 2.018,5.440 2.026 M18.700 3.606 C 19.492 3.833,20.117 4.444,20.388 5.255 L 20.497 5.580 20.498 7.160 C 20.500 8.943,20.494 8.990,20.203 9.253 C 19.943 9.487,19.862 9.500,18.620 9.500 L 17.500 9.500 17.488 6.820 C 17.482 5.346,17.488 4.064,17.501 3.970 C 17.530 3.765,17.681 3.574,17.853 3.524 C 18.023 3.476,18.358 3.508,18.700 3.606 M6.454 8.152 C 6.912 8.401,7.088 8.944,6.865 9.422 C 6.530 10.141,5.538 10.201,5.134 9.528 C 4.888 9.118,4.933 8.671,5.253 8.332 C 5.573 7.993,6.036 7.924,6.454 8.152 M12.377 8.376 C 12.787 8.616,12.858 9.226,12.513 9.548 C 12.292 9.755,12.243 9.760,10.500 9.760 C 8.757 9.760,8.708 9.755,8.487 9.548 C 8.144 9.228,8.212 8.621,8.619 8.377 L 8.780 8.281 10.496 8.280 L 12.213 8.280 12.377 8.376 M6.454 12.152 C 6.912 12.401,7.088 12.944,6.865 13.422 C 6.530 14.141,5.538 14.201,5.134 13.528 C 4.888 13.118,4.933 12.671,5.253 12.332 C 5.573 11.993,6.036 11.924,6.454 12.152 M12.377 12.376 C 12.787 12.616,12.858 13.226,12.513 13.548 C 12.292 13.755,12.243 13.760,10.500 13.760 C 8.757 13.760,8.708 13.755,8.487 13.548 C 8.144 13.228,8.212 12.621,8.619 12.377 L 8.780 12.281 10.496 12.280 L 12.213 12.280 12.377 12.376 " fill="#292D32" stroke="none" fill-rule="evenodd"></path></svg>