<svg width="24" height="24" viewBox="0 0 24 24" fill="none" xmlns="http://www.w3.org/2000/svg"><path d="M11.081 2.064 C 10.565 2.203,10.349 2.401,9.499 3.522 C 9.134 4.003,8.769 4.449,8.688 4.513 C 8.254 4.854,7.697 4.991,7.204 4.878 C 6.853 4.797,6.604 4.639,6.148 4.212 C 5.389 3.501,4.909 3.233,4.380 3.226 C 4.142 3.223,4.068 3.240,3.887 3.340 C 3.537 3.531,3.423 3.724,3.238 4.437 C 3.022 5.273,3.026 5.145,3.010 11.620 C 2.994 17.719,3.005 18.309,3.144 19.120 C 3.215 19.534,3.409 20.173,3.518 20.349 C 3.717 20.671,4.184 20.853,4.591 20.768 C 5.092 20.663,5.513 20.397,6.162 19.776 C 6.764 19.200,7.266 19.005,7.862 19.114 C 8.458 19.224,8.698 19.420,9.448 20.412 C 9.784 20.857,10.137 21.305,10.233 21.408 C 10.568 21.770,11.061 22.000,11.500 22.000 C 11.928 22.000,12.412 21.779,12.745 21.432 C 12.835 21.337,13.193 20.886,13.540 20.429 C 14.011 19.807,14.226 19.557,14.390 19.440 C 14.957 19.034,15.604 18.980,16.217 19.289 C 16.362 19.362,16.601 19.549,16.838 19.776 C 17.323 20.241,17.590 20.442,17.930 20.601 C 18.515 20.875,18.990 20.844,19.335 20.509 C 19.591 20.260,19.778 19.699,19.911 18.780 C 19.974 18.341,19.980 17.765,19.980 12.060 C 19.980 5.287,19.981 5.336,19.758 4.449 C 19.570 3.700,19.449 3.506,19.040 3.298 C 18.841 3.198,18.407 3.207,18.112 3.318 C 17.759 3.452,17.342 3.746,16.855 4.207 C 16.401 4.636,16.201 4.764,15.830 4.863 C 15.329 4.996,14.749 4.860,14.307 4.505 C 14.222 4.436,13.855 3.989,13.491 3.511 C 13.128 3.032,12.755 2.572,12.663 2.487 C 12.207 2.066,11.638 1.914,11.081 2.064 M16.377 9.616 C 16.787 9.856,16.858 10.466,16.513 10.788 C 16.277 11.009,16.468 11.000,12.000 11.000 C 7.532 11.000,7.723 11.009,7.487 10.788 C 7.144 10.468,7.212 9.861,7.619 9.617 L 7.780 9.521 11.996 9.520 L 16.213 9.520 16.377 9.616 M14.271 13.062 C 14.574 13.189,14.731 13.422,14.731 13.743 C 14.731 14.020,14.597 14.255,14.360 14.394 L 14.180 14.500 11.000 14.500 L 7.820 14.500 7.646 14.400 C 7.216 14.154,7.134 13.542,7.486 13.212 C 7.717 12.997,7.612 13.003,10.991 13.002 C 13.729 13.000,14.141 13.008,14.271 13.062 " fill="#292D32" stroke="none" fill-rule="evenodd"></path></svg>