<svg width="24" height="24" viewBox="0 0 24 24" fill="none" xmlns="http://www.w3.org/2000/svg"><path d="M18.720 2.802 C 18.665 2.825,15.727 5.736,12.190 9.271 L 5.760 15.700 5.760 11.440 C 5.760 8.633,5.745 7.129,5.718 7.031 C 5.635 6.730,5.310 6.482,5.000 6.482 C 4.828 6.482,4.570 6.596,4.452 6.725 C 4.229 6.968,4.240 6.669,4.240 12.371 L 4.240 17.624 4.339 17.822 C 4.397 17.937,4.501 18.062,4.586 18.120 L 4.734 18.220 10.140 18.220 L 15.546 18.220 15.694 18.107 C 15.967 17.899,16.063 17.633,15.980 17.307 C 15.925 17.091,15.805 16.946,15.592 16.836 C 15.448 16.763,15.291 16.760,11.132 16.760 L 6.820 16.760 13.206 10.370 C 16.719 6.855,19.624 3.917,19.664 3.840 C 19.761 3.650,19.758 3.333,19.659 3.163 C 19.615 3.089,19.512 2.974,19.429 2.907 C 19.308 2.808,19.235 2.783,19.049 2.773 C 18.923 2.766,18.775 2.779,18.720 2.802 M3.331 21.279 C 3.155 21.321,3.026 21.411,2.893 21.586 C 2.795 21.714,2.780 21.769,2.780 22.003 C 2.780 22.245,2.793 22.288,2.904 22.426 C 2.973 22.511,3.090 22.616,3.164 22.660 C 3.299 22.739,3.372 22.740,12.000 22.740 C 20.628 22.740,20.701 22.739,20.836 22.660 C 20.910 22.616,21.027 22.511,21.096 22.426 C 21.208 22.288,21.220 22.245,21.220 22.000 C 21.220 21.755,21.208 21.712,21.096 21.574 C 21.027 21.489,20.910 21.384,20.836 21.340 C 20.701 21.261,20.622 21.260,12.080 21.254 C 7.339 21.250,3.402 21.262,3.331 21.279 " fill="#292D32" stroke="none" fill-rule="evenodd"></path></svg>