<svg width="24" height="24" viewBox="0 0 24 24" fill="none" xmlns="http://www.w3.org/2000/svg"><path d="M5.440 2.026 C 4.269 2.141,3.428 2.525,2.852 3.207 C 2.497 3.626,2.251 4.172,2.093 4.888 C 2.024 5.203,2.020 5.624,2.020 13.260 L 2.020 21.300 2.108 21.465 C 2.332 21.883,2.823 22.088,3.290 21.958 C 3.380 21.933,3.829 21.626,4.403 21.197 C 4.933 20.802,5.423 20.448,5.493 20.411 C 5.673 20.314,6.129 20.318,6.340 20.418 C 6.437 20.465,6.891 20.882,7.500 21.484 C 8.459 22.432,8.510 22.475,8.733 22.540 C 8.883 22.583,9.019 22.598,9.113 22.581 C 9.465 22.516,9.594 22.416,10.575 21.445 C 11.106 20.919,11.603 20.456,11.680 20.416 C 11.867 20.317,12.329 20.314,12.507 20.411 C 12.577 20.448,13.064 20.800,13.590 21.192 C 14.608 21.952,14.754 22.029,15.101 21.990 C 15.486 21.947,15.861 21.640,15.958 21.289 C 15.986 21.190,16.000 19.440,16.000 16.072 L 16.000 11.005 17.990 10.990 C 19.742 10.976,20.009 10.966,20.220 10.904 C 20.920 10.699,21.427 10.291,21.715 9.702 C 21.963 9.196,21.971 9.124,21.990 7.440 C 22.001 6.397,21.991 5.777,21.959 5.520 C 21.770 4.003,20.747 2.728,19.320 2.232 C 18.684 2.012,19.129 2.025,12.080 2.018 C 8.505 2.015,5.517 2.018,5.440 2.026 M18.700 3.606 C 19.492 3.833,20.117 4.444,20.388 5.255 L 20.497 5.580 20.498 7.160 C 20.500 8.943,20.494 8.990,20.203 9.253 C 19.943 9.487,19.862 9.500,18.620 9.500 L 17.500 9.500 17.488 6.820 C 17.482 5.346,17.488 4.064,17.501 3.970 C 17.530 3.765,17.681 3.574,17.853 3.524 C 18.023 3.476,18.358 3.508,18.700 3.606 M12.022 7.595 C 12.421 7.777,12.585 8.251,12.382 8.634 C 12.351 8.692,11.051 10.012,9.493 11.567 C 7.051 14.004,6.637 14.400,6.494 14.442 C 5.858 14.627,5.308 13.951,5.619 13.366 C 5.650 13.308,6.941 11.995,8.490 10.448 C 11.416 7.525,11.415 7.525,11.740 7.523 C 11.806 7.522,11.933 7.555,12.022 7.595 M6.960 8.123 C 7.487 8.362,7.709 8.965,7.456 9.472 C 7.050 10.287,5.873 10.177,5.618 9.300 C 5.386 8.503,6.207 7.783,6.960 8.123 M11.863 12.192 C 12.223 12.375,12.414 12.684,12.414 13.080 C 12.414 13.475,12.205 13.809,11.844 13.988 C 11.635 14.092,11.191 14.084,10.980 13.972 C 10.211 13.565,10.287 12.441,11.105 12.136 C 11.306 12.062,11.659 12.087,11.863 12.192 " fill="#292D32" stroke="none" fill-rule="evenodd"></path></svg>