<svg width="24" height="24" viewBox="0 0 24 24" fill="none" xmlns="http://www.w3.org/2000/svg"><path d="M7.061 2.045 C 5.425 2.170,4.502 2.655,4.027 3.640 C 3.800 4.109,3.665 4.623,3.572 5.368 C 3.505 5.897,3.500 6.429,3.500 12.440 L 3.500 18.940 3.589 19.340 C 3.757 20.099,4.108 20.602,4.562 20.737 C 4.826 20.815,4.884 20.815,5.182 20.738 C 5.652 20.617,6.010 20.382,6.632 19.788 C 6.954 19.481,7.113 19.361,7.352 19.247 C 7.646 19.107,7.679 19.100,8.080 19.100 C 8.469 19.100,8.520 19.109,8.769 19.227 C 9.151 19.409,9.377 19.638,10.020 20.500 C 10.331 20.918,10.684 21.354,10.803 21.469 C 11.409 22.055,12.266 22.139,12.940 21.677 C 13.199 21.500,13.435 21.228,14.051 20.396 C 14.732 19.478,14.941 19.289,15.437 19.144 C 16.113 18.945,16.774 19.168,17.380 19.798 C 17.800 20.235,18.373 20.619,18.755 20.720 C 19.542 20.927,20.098 20.496,20.373 19.467 L 20.460 19.140 20.460 12.380 C 20.460 5.129,20.464 5.293,20.255 4.427 C 19.981 3.291,19.368 2.611,18.320 2.284 C 17.944 2.167,17.456 2.086,16.840 2.040 C 16.189 1.992,7.703 1.996,7.061 2.045 M8.227 6.113 C 8.413 6.208,8.626 6.436,8.705 6.626 C 8.735 6.698,8.760 6.867,8.760 7.000 C 8.760 7.133,8.735 7.302,8.705 7.374 C 8.559 7.725,8.152 7.999,7.780 7.999 C 7.408 7.999,7.001 7.725,6.855 7.374 C 6.825 7.302,6.800 7.133,6.800 7.000 C 6.800 6.716,6.861 6.550,7.041 6.345 C 7.170 6.198,7.322 6.100,7.520 6.035 C 7.679 5.983,8.051 6.024,8.227 6.113 M16.600 6.366 C 17.110 6.665,17.083 7.392,16.553 7.656 L 16.344 7.760 13.498 7.760 C 11.444 7.760,10.614 7.747,10.516 7.714 C 10.194 7.604,10.001 7.338,10.000 7.005 C 10.000 6.643,10.220 6.364,10.574 6.278 C 10.643 6.261,11.987 6.250,13.560 6.253 L 16.420 6.260 16.600 6.366 M8.227 10.113 C 8.413 10.208,8.626 10.436,8.705 10.626 C 8.735 10.698,8.760 10.867,8.760 11.000 C 8.760 11.133,8.735 11.302,8.705 11.374 C 8.559 11.725,8.152 11.999,7.780 11.999 C 7.408 11.999,7.001 11.725,6.855 11.374 C 6.825 11.302,6.800 11.133,6.800 11.000 C 6.800 10.716,6.861 10.550,7.041 10.345 C 7.170 10.198,7.322 10.100,7.520 10.035 C 7.679 9.983,8.051 10.024,8.227 10.113 M16.600 10.366 C 17.110 10.665,17.083 11.392,16.553 11.656 L 16.344 11.760 13.498 11.760 C 11.444 11.760,10.614 11.747,10.516 11.714 C 10.194 11.604,10.001 11.338,10.000 11.005 C 10.000 10.643,10.220 10.364,10.574 10.278 C 10.643 10.261,11.987 10.250,13.560 10.253 L 16.420 10.260 16.600 10.366 " fill="#292D32" stroke="none" fill-rule="evenodd"></path></svg>