<svg width="24" height="24" viewBox="0 0 24 24" fill="none" xmlns="http://www.w3.org/2000/svg"><path d="M11.260 3.025 C 10.384 3.116,9.440 3.330,8.798 3.582 C 5.956 4.696,3.864 7.111,3.223 10.017 C 3.049 10.806,3.022 11.067,3.022 11.980 C 3.022 12.621,3.041 12.979,3.092 13.300 C 3.270 14.424,3.736 15.744,4.223 16.507 C 4.454 16.868,4.893 17.052,5.285 16.952 C 5.444 16.911,7.297 15.818,12.420 12.746 C 16.226 10.463,19.401 8.538,19.475 8.468 C 19.785 8.175,19.863 7.697,19.665 7.314 C 19.354 6.715,18.370 5.585,17.660 5.012 C 16.420 4.012,14.912 3.344,13.340 3.099 C 12.955 3.039,11.590 2.990,11.260 3.025 M19.615 10.432 C 19.337 10.546,7.005 17.812,6.875 17.938 C 6.534 18.269,6.479 18.809,6.744 19.212 C 6.939 19.508,8.135 20.187,8.980 20.481 C 10.018 20.841,10.828 20.975,11.980 20.977 C 12.902 20.979,13.328 20.928,14.168 20.718 C 15.917 20.281,17.605 19.238,18.784 17.867 C 19.932 16.533,20.652 14.976,20.905 13.280 C 20.994 12.688,21.006 11.349,20.925 11.072 C 20.768 10.531,20.131 10.220,19.615 10.432 " fill="#292D32" stroke="none" fill-rule="evenodd"></path></svg>