<svg width="24" height="24" viewBox="0 0 24 24" fill="none" xmlns="http://www.w3.org/2000/svg"><path d="M8.387 1.280 C 4.986 1.541,2.112 4.079,1.418 7.434 C 1.295 8.027,1.229 8.905,1.287 9.173 C 1.423 9.809,2.318 9.937,2.634 9.367 C 2.711 9.227,2.733 9.106,2.762 8.669 C 2.825 7.736,3.015 7.007,3.394 6.248 C 3.734 5.568,3.978 5.224,4.518 4.666 C 5.110 4.053,5.707 3.630,6.461 3.291 C 6.839 3.121,7.509 2.896,7.542 2.929 C 7.552 2.939,7.484 3.080,7.391 3.242 C 7.244 3.496,7.220 3.568,7.221 3.763 C 7.222 3.941,7.246 4.025,7.331 4.154 C 7.590 4.544,8.175 4.595,8.484 4.255 C 8.653 4.069,9.681 2.322,9.714 2.164 C 9.784 1.835,9.621 1.476,9.342 1.344 C 9.157 1.256,8.917 1.240,8.387 1.280 M11.840 5.045 C 10.584 5.190,9.795 5.741,9.459 6.709 C 9.351 7.019,9.256 7.549,9.226 8.006 L 9.207 8.312 10.773 8.331 C 12.187 8.348,12.378 8.358,12.730 8.436 C 14.411 8.807,15.251 9.680,15.582 11.400 C 15.633 11.662,15.652 12.086,15.668 13.250 L 15.689 14.760 15.954 14.760 C 16.100 14.760,16.382 14.733,16.580 14.701 C 17.749 14.510,18.396 14.025,18.735 13.085 C 18.948 12.497,18.966 12.289,18.988 10.273 C 19.016 7.676,18.959 7.105,18.600 6.373 C 18.219 5.598,17.489 5.175,16.305 5.043 C 15.852 4.992,12.282 4.994,11.840 5.045 M7.640 9.244 C 6.852 9.333,6.207 9.599,5.805 10.001 C 5.390 10.417,5.138 11.042,5.043 11.895 C 4.987 12.394,4.987 15.806,5.043 16.305 C 5.232 18.006,6.018 18.783,7.725 18.959 C 8.249 19.012,11.551 19.012,12.075 18.959 C 13.782 18.783,14.568 18.006,14.757 16.305 C 14.813 15.806,14.813 12.394,14.757 11.895 C 14.570 10.215,13.785 9.424,12.128 9.244 C 11.648 9.193,8.099 9.192,7.640 9.244 M21.695 14.317 C 21.385 14.458,21.243 14.757,21.241 15.275 C 21.240 15.415,21.212 15.717,21.178 15.946 C 20.887 17.907,19.574 19.698,17.780 20.579 C 17.344 20.793,16.494 21.107,16.454 21.068 C 16.448 21.062,16.516 20.934,16.606 20.785 C 16.855 20.368,16.864 20.041,16.632 19.777 C 16.463 19.584,16.300 19.509,16.054 19.509 C 15.904 19.509,15.799 19.537,15.672 19.611 C 15.516 19.702,15.433 19.821,14.892 20.726 C 14.559 21.284,14.274 21.800,14.259 21.874 C 14.190 22.216,14.456 22.618,14.819 22.720 C 14.978 22.764,15.112 22.765,15.576 22.725 C 18.027 22.515,20.142 21.262,21.490 19.220 C 22.131 18.250,22.590 16.969,22.718 15.792 C 22.804 14.999,22.765 14.698,22.550 14.490 C 22.295 14.243,21.993 14.182,21.695 14.317 " fill="#292D32" stroke="none" fill-rule="evenodd"></path></svg>