<svg width="24" height="24" viewBox="0 0 24 24" fill="none" xmlns="http://www.w3.org/2000/svg"><path d="M11.260 2.024 C 9.481 2.206,8.131 2.639,6.786 3.457 C 4.160 5.053,2.465 7.673,2.035 10.800 C 1.967 11.291,1.967 12.709,2.035 13.200 C 2.450 16.218,4.020 18.728,6.528 20.386 C 7.719 21.173,9.126 21.692,10.700 21.926 C 11.243 22.006,12.783 21.996,13.360 21.908 C 14.429 21.745,15.421 21.434,16.380 20.961 C 19.152 19.594,21.123 17.056,21.760 14.034 C 21.984 12.969,22.019 11.454,21.844 10.418 C 21.469 8.200,20.480 6.324,18.873 4.780 C 17.365 3.331,15.503 2.426,13.360 2.102 C 12.956 2.040,11.591 1.990,11.260 2.024 M12.440 7.801 C 13.128 7.873,13.817 8.126,14.405 8.522 C 14.732 8.742,15.258 9.268,15.478 9.595 C 16.321 10.847,16.454 12.452,15.826 13.779 C 15.586 14.285,15.365 14.601,14.983 14.985 C 13.557 16.417,11.362 16.635,9.640 15.514 C 9.317 15.304,8.748 14.741,8.529 14.416 C 7.394 12.728,7.556 10.565,8.927 9.099 C 9.578 8.403,10.574 7.902,11.500 7.804 C 11.952 7.757,12.014 7.757,12.440 7.801 " fill="#292D32" stroke="none" fill-rule="evenodd"></path></svg>