<svg width="24" height="24" viewBox="0 0 24 24" fill="none" xmlns="http://www.w3.org/2000/svg"><path d="M6.960 2.046 C 6.236 2.116,5.358 2.357,4.796 2.641 C 4.426 2.828,3.928 3.183,3.624 3.475 C 2.737 4.332,2.251 5.370,2.062 6.812 C 1.970 7.515,1.969 16.481,2.061 17.188 C 2.239 18.550,2.681 19.544,3.476 20.372 C 4.162 21.084,4.935 21.524,5.956 21.780 C 6.817 21.997,6.896 22.000,11.993 22.000 C 14.960 22.000,16.828 21.985,17.041 21.959 C 19.985 21.603,21.695 19.840,21.962 16.885 C 21.990 16.579,21.999 14.787,21.989 11.660 C 21.974 7.001,21.972 6.891,21.889 6.456 C 21.642 5.171,21.165 4.235,20.369 3.478 C 19.583 2.729,18.652 2.295,17.359 2.076 C 16.995 2.014,7.572 1.987,6.960 2.046 M15.820 7.502 C 16.026 7.620,17.569 9.176,17.661 9.358 C 17.746 9.528,17.749 9.869,17.666 10.026 C 17.576 10.195,15.839 11.909,15.707 11.958 C 15.405 12.071,15.006 11.949,14.826 11.689 C 14.608 11.373,14.649 11.025,14.942 10.690 L 15.126 10.480 12.490 10.480 C 10.807 10.480,9.769 10.495,9.617 10.522 C 9.487 10.546,9.229 10.639,9.045 10.729 C 8.248 11.120,7.759 11.913,7.761 12.812 C 7.762 13.659,8.245 14.463,8.984 14.850 C 9.501 15.120,9.483 15.119,12.392 15.119 C 14.238 15.120,15.059 15.134,15.189 15.166 C 15.577 15.264,15.814 15.670,15.714 16.066 C 15.656 16.296,15.428 16.537,15.213 16.597 C 15.002 16.656,9.996 16.655,9.575 16.597 C 8.737 16.480,7.977 16.101,7.379 15.502 C 5.885 14.007,5.885 11.592,7.379 10.099 C 7.847 9.630,8.482 9.263,9.106 9.100 C 9.565 8.980,10.052 8.961,12.619 8.960 L 15.217 8.960 15.010 8.750 C 14.683 8.418,14.608 8.143,14.755 7.818 C 14.836 7.641,15.037 7.450,15.173 7.422 C 15.382 7.377,15.427 7.373,15.540 7.391 C 15.606 7.401,15.732 7.451,15.820 7.502 " fill="#292D32" stroke="none" fill-rule="evenodd"></path></svg>