<svg width="24" height="24" viewBox="0 0 24 24" fill="none" xmlns="http://www.w3.org/2000/svg"><path d="M11.120 2.039 C 8.336 2.318,5.905 3.624,4.193 5.760 C 1.474 9.155,1.267 13.917,3.682 17.533 C 6.770 22.155,12.946 23.386,17.560 20.299 C 22.155 17.225,23.377 11.041,20.299 6.440 C 18.728 4.092,16.319 2.562,13.493 2.119 C 12.909 2.027,11.660 1.985,11.120 2.039 M16.568 6.198 C 16.643 6.249,16.748 6.356,16.802 6.435 L 16.900 6.580 16.911 8.100 C 16.922 9.613,16.922 9.621,16.831 9.798 C 16.781 9.895,16.671 10.030,16.586 10.098 L 16.433 10.220 14.843 10.220 L 13.254 10.220 13.113 10.124 C 12.666 9.817,12.643 9.215,13.066 8.892 C 13.206 8.785,13.238 8.779,13.707 8.767 C 13.978 8.759,14.200 8.739,14.200 8.721 C 14.200 8.656,13.292 8.238,12.960 8.151 C 12.464 8.020,11.489 8.021,11.000 8.152 C 10.570 8.268,9.937 8.574,9.600 8.830 C 8.780 9.453,8.346 10.185,8.063 11.419 C 8.012 11.640,7.968 11.730,7.850 11.850 C 7.498 12.211,6.902 12.119,6.685 11.670 C 6.576 11.446,6.578 11.278,6.696 10.760 C 7.116 8.917,8.483 7.408,10.260 6.826 C 10.799 6.650,11.114 6.598,11.780 6.574 C 12.729 6.541,13.483 6.688,14.263 7.057 C 14.638 7.234,15.235 7.598,15.321 7.702 C 15.348 7.734,15.384 7.760,15.402 7.760 C 15.420 7.760,15.440 7.484,15.447 7.147 C 15.460 6.545,15.462 6.531,15.572 6.387 C 15.634 6.306,15.751 6.204,15.832 6.159 C 16.034 6.050,16.379 6.068,16.568 6.198 M16.997 11.990 C 17.213 12.100,17.368 12.324,17.391 12.556 C 17.449 13.164,16.956 14.498,16.391 15.260 C 15.920 15.894,15.149 16.543,14.442 16.899 C 14.072 17.085,13.543 17.265,13.068 17.366 C 12.482 17.491,11.546 17.490,10.962 17.365 C 10.210 17.204,9.580 16.935,8.943 16.503 L 8.566 16.247 8.553 16.837 C 8.541 17.383,8.533 17.437,8.444 17.567 C 8.280 17.805,8.102 17.900,7.820 17.900 C 7.614 17.900,7.546 17.881,7.408 17.786 C 7.314 17.720,7.208 17.599,7.161 17.503 C 7.084 17.343,7.080 17.263,7.081 15.837 C 7.082 14.466,7.088 14.326,7.156 14.177 C 7.242 13.987,7.392 13.857,7.595 13.798 C 7.689 13.770,8.267 13.760,9.243 13.768 L 10.746 13.780 10.885 13.875 C 11.120 14.037,11.220 14.224,11.218 14.500 C 11.217 14.693,11.196 14.772,11.109 14.901 C 10.928 15.172,10.811 15.217,10.240 15.240 L 9.740 15.260 10.018 15.418 C 10.361 15.613,10.667 15.738,11.070 15.848 C 11.536 15.975,12.488 15.975,12.957 15.847 C 14.514 15.424,15.565 14.296,15.899 12.688 C 15.988 12.259,16.074 12.122,16.340 11.983 C 16.500 11.900,16.827 11.903,16.997 11.990 " fill="#292D32" stroke="none" fill-rule="evenodd"></path></svg>