<svg width="24" height="24" viewBox="0 0 24 24" fill="none" xmlns="http://www.w3.org/2000/svg"><path d="M6.960 2.046 C 6.236 2.116,5.358 2.357,4.796 2.641 C 4.426 2.828,3.928 3.183,3.624 3.475 C 2.737 4.332,2.251 5.370,2.062 6.812 C 1.970 7.515,1.969 16.481,2.061 17.188 C 2.239 18.550,2.681 19.544,3.476 20.372 C 4.162 21.084,4.935 21.524,5.956 21.780 C 6.817 21.997,6.896 22.000,11.993 22.000 C 14.960 22.000,16.828 21.985,17.041 21.959 C 19.985 21.603,21.695 19.840,21.962 16.885 C 21.990 16.579,21.999 14.787,21.989 11.660 C 21.974 7.001,21.972 6.891,21.889 6.456 C 21.642 5.171,21.165 4.235,20.369 3.478 C 19.583 2.729,18.652 2.295,17.359 2.076 C 16.995 2.014,7.572 1.987,6.960 2.046 M12.934 5.820 C 14.229 5.990,15.512 6.548,16.520 7.379 L 16.740 7.561 16.760 7.070 C 16.783 6.517,16.826 6.396,17.067 6.212 C 17.196 6.113,17.248 6.100,17.500 6.100 C 17.752 6.100,17.804 6.113,17.933 6.212 C 18.014 6.274,18.117 6.395,18.160 6.481 C 18.236 6.629,18.240 6.718,18.240 8.176 C 18.240 9.166,18.225 9.755,18.197 9.827 C 18.137 9.987,17.966 10.158,17.780 10.244 C 17.635 10.312,17.499 10.318,16.289 10.319 C 14.861 10.320,14.786 10.311,14.565 10.108 C 14.439 9.992,14.322 9.733,14.321 9.569 C 14.320 9.407,14.415 9.172,14.532 9.047 C 14.701 8.865,14.834 8.827,15.368 8.803 L 15.877 8.780 15.628 8.575 C 13.830 7.098,11.416 6.837,9.593 7.924 C 8.760 8.420,8.016 9.262,7.670 10.100 C 7.419 10.707,7.327 11.092,7.283 11.723 C 7.246 12.261,7.179 12.437,6.952 12.601 C 6.566 12.881,6.057 12.746,5.833 12.306 C 5.757 12.157,5.751 12.096,5.772 11.661 C 5.825 10.541,6.178 9.485,6.829 8.501 C 7.180 7.971,7.957 7.190,8.478 6.844 C 9.324 6.282,10.266 5.920,11.180 5.805 C 11.632 5.749,12.441 5.755,12.934 5.820 M17.856 11.355 C 17.919 11.391,18.027 11.489,18.096 11.574 L 18.220 11.728 18.215 12.274 C 18.201 13.791,17.563 15.244,16.403 16.402 C 15.503 17.299,14.555 17.825,13.340 18.102 C 12.692 18.249,11.763 18.283,11.154 18.181 C 10.138 18.011,9.168 17.554,8.255 16.815 C 8.054 16.653,7.878 16.520,7.865 16.520 C 7.851 16.520,7.840 16.708,7.840 16.937 C 7.840 17.409,7.808 17.525,7.629 17.711 C 7.278 18.075,6.668 17.970,6.444 17.508 C 6.363 17.341,6.360 17.279,6.361 15.817 C 6.362 14.432,6.368 14.286,6.435 14.138 C 6.518 13.957,6.713 13.775,6.873 13.730 C 6.932 13.713,7.610 13.700,8.380 13.700 L 9.780 13.700 9.960 13.806 C 10.197 13.945,10.320 14.163,10.320 14.440 C 10.320 14.717,10.197 14.935,9.960 15.074 C 9.796 15.171,9.733 15.182,9.240 15.200 L 8.700 15.220 9.020 15.495 C 9.688 16.067,10.361 16.440,11.069 16.628 C 11.404 16.717,11.543 16.732,12.040 16.732 C 12.658 16.732,12.951 16.685,13.514 16.497 C 14.230 16.257,14.771 15.916,15.344 15.344 C 15.933 14.754,16.268 14.213,16.513 13.458 C 16.656 13.018,16.713 12.707,16.755 12.152 C 16.783 11.775,16.800 11.708,16.896 11.581 C 17.143 11.258,17.525 11.167,17.856 11.355 " fill="#292D32" stroke="none" fill-rule="evenodd"></path></svg>