<svg width="24" height="24" viewBox="0 0 24 24" fill="none" xmlns="http://www.w3.org/2000/svg"><path d="M11.193 1.282 C 8.262 1.459,5.489 2.716,3.272 4.873 L 2.764 5.368 2.752 4.067 L 2.740 2.767 2.620 2.597 C 2.307 2.154,1.693 2.154,1.380 2.597 L 1.260 2.767 1.249 5.189 C 1.239 7.328,1.245 7.635,1.302 7.806 C 1.378 8.033,1.570 8.210,1.814 8.278 C 1.932 8.310,2.652 8.320,4.300 8.312 C 6.564 8.300,6.624 8.298,6.780 8.216 C 7.006 8.098,7.169 7.824,7.169 7.563 C 7.169 7.303,7.059 7.093,6.843 6.940 L 6.673 6.820 5.087 6.800 L 3.500 6.780 4.120 6.156 C 5.120 5.151,6.100 4.433,7.254 3.864 C 8.813 3.095,10.244 2.760,11.968 2.760 C 13.449 2.760,14.756 3.056,16.020 3.677 C 16.960 4.140,17.640 4.615,18.386 5.333 C 19.929 6.816,20.844 8.623,21.165 10.820 C 21.244 11.361,21.233 12.711,21.144 13.300 C 20.604 16.889,18.111 19.796,14.680 20.840 C 14.165 20.997,13.996 21.101,13.885 21.330 C 13.668 21.777,13.913 22.286,14.397 22.395 C 14.603 22.441,15.048 22.340,15.706 22.097 C 19.467 20.706,22.109 17.390,22.666 13.360 C 22.771 12.604,22.761 11.239,22.645 10.486 C 22.363 8.648,21.676 7.003,20.575 5.530 C 20.170 4.988,19.147 3.943,18.640 3.552 C 17.137 2.395,15.450 1.661,13.657 1.383 C 13.274 1.324,12.075 1.234,11.820 1.246 C 11.754 1.249,11.472 1.266,11.193 1.282 M11.420 8.044 C 10.618 8.159,9.768 8.588,9.178 9.178 C 7.622 10.734,7.622 13.266,9.178 14.822 C 10.733 16.377,13.267 16.377,14.822 14.822 C 16.377 13.267,16.377 10.733,14.822 9.178 C 13.936 8.292,12.660 7.867,11.420 8.044 M1.807 11.288 C 1.559 11.342,1.342 11.571,1.285 11.835 C 1.157 12.432,1.512 14.794,1.811 15.337 C 2.043 15.756,2.730 15.806,3.019 15.424 C 3.213 15.167,3.219 15.019,3.063 14.389 C 2.876 13.636,2.801 13.146,2.763 12.419 C 2.716 11.542,2.609 11.371,2.040 11.261 C 2.007 11.255,1.902 11.267,1.807 11.288 M3.420 16.983 C 3.130 17.134,2.983 17.390,3.008 17.698 C 3.028 17.932,3.162 18.151,3.679 18.793 C 4.218 19.463,5.217 20.413,5.495 20.518 C 5.637 20.572,5.923 20.572,6.067 20.517 C 6.319 20.422,6.517 20.116,6.519 19.823 C 6.521 19.573,6.386 19.350,6.088 19.108 C 5.684 18.781,5.105 18.188,4.752 17.740 C 4.216 17.059,4.191 17.032,4.055 16.975 C 3.879 16.902,3.569 16.905,3.420 16.983 M8.214 20.598 C 7.543 20.760,7.422 21.643,8.027 21.968 C 8.630 22.292,10.329 22.684,11.182 22.695 C 11.507 22.699,11.560 22.690,11.693 22.600 C 11.909 22.455,12.059 22.136,12.025 21.894 C 11.965 21.451,11.746 21.293,11.087 21.213 C 10.388 21.129,9.700 20.980,9.107 20.785 C 8.481 20.579,8.381 20.558,8.214 20.598 " fill="#292D32" stroke="none" fill-rule="evenodd"></path></svg>