<svg width="24" height="24" viewBox="0 0 24 24" fill="none" xmlns="http://www.w3.org/2000/svg"><path d="M6.960 2.046 C 6.236 2.116,5.358 2.357,4.796 2.641 C 4.426 2.828,3.928 3.183,3.624 3.475 C 2.737 4.332,2.251 5.370,2.062 6.812 C 1.970 7.515,1.969 16.481,2.061 17.188 C 2.239 18.550,2.681 19.544,3.476 20.372 C 4.162 21.084,4.935 21.524,5.956 21.780 C 6.817 21.997,6.896 22.000,11.993 22.000 C 14.960 22.000,16.828 21.985,17.041 21.959 C 19.985 21.603,21.695 19.840,21.962 16.885 C 21.990 16.579,21.999 14.787,21.989 11.660 C 21.974 7.001,21.972 6.891,21.889 6.456 C 21.642 5.171,21.165 4.235,20.369 3.478 C 19.583 2.729,18.652 2.295,17.359 2.076 C 16.995 2.014,7.572 1.987,6.960 2.046 M13.197 5.364 C 14.454 5.576,15.717 6.220,16.670 7.135 L 16.880 7.337 16.880 6.804 C 16.880 6.326,16.889 6.254,16.970 6.112 C 17.203 5.696,17.824 5.620,18.148 5.967 C 18.352 6.186,18.360 6.251,18.360 7.810 C 18.360 9.238,18.358 9.266,18.270 9.439 C 18.221 9.536,18.111 9.670,18.026 9.738 L 17.873 9.860 16.386 9.873 C 14.801 9.886,14.697 9.876,14.480 9.694 C 14.101 9.375,14.155 8.747,14.583 8.496 C 14.733 8.408,14.791 8.400,15.254 8.400 C 15.541 8.400,15.760 8.384,15.760 8.363 C 15.760 8.342,15.642 8.221,15.497 8.093 C 14.796 7.473,13.958 7.051,13.028 6.851 C 12.569 6.752,11.431 6.752,10.972 6.851 C 9.941 7.073,9.045 7.555,8.317 8.279 C 7.380 9.210,6.875 10.325,6.764 11.704 C 6.735 12.061,6.710 12.176,6.636 12.289 C 6.313 12.782,5.608 12.747,5.330 12.224 C 5.177 11.937,5.315 10.721,5.597 9.879 C 6.172 8.160,7.370 6.776,8.984 5.968 C 10.280 5.319,11.708 5.114,13.197 5.364 M18.292 11.334 C 18.469 11.408,18.670 11.648,18.704 11.825 C 18.749 12.069,18.693 12.913,18.601 13.360 C 18.043 16.080,15.878 18.167,13.100 18.663 C 12.549 18.761,11.450 18.761,10.900 18.663 C 9.545 18.420,8.393 17.851,7.406 16.937 L 7.120 16.673 7.120 17.174 C 7.120 17.730,7.093 17.840,6.909 18.031 C 6.557 18.396,5.948 18.290,5.723 17.826 C 5.639 17.653,5.638 17.612,5.649 16.131 L 5.660 14.613 5.774 14.448 C 5.840 14.353,5.962 14.248,6.060 14.200 C 6.225 14.120,6.283 14.118,7.772 14.129 L 9.313 14.140 9.466 14.264 C 9.685 14.441,9.771 14.608,9.771 14.854 C 9.771 15.087,9.702 15.248,9.534 15.407 C 9.361 15.571,9.237 15.600,8.717 15.600 C 8.455 15.600,8.240 15.616,8.240 15.636 C 8.240 15.697,8.799 16.161,9.140 16.382 C 9.725 16.763,10.298 16.998,11.000 17.147 C 11.474 17.248,12.526 17.248,13.000 17.147 C 15.127 16.696,16.709 15.119,17.140 13.020 C 17.176 12.844,17.219 12.490,17.235 12.233 C 17.261 11.822,17.277 11.748,17.372 11.604 C 17.431 11.515,17.547 11.406,17.630 11.363 C 17.806 11.270,18.106 11.257,18.292 11.334 " fill="#292D32" stroke="none" fill-rule="evenodd"></path></svg>