<svg width="24" height="24" viewBox="0 0 24 24" fill="none" xmlns="http://www.w3.org/2000/svg"><path d="M6.960 2.046 C 6.236 2.116,5.358 2.357,4.796 2.641 C 4.426 2.828,3.928 3.183,3.624 3.475 C 2.737 4.332,2.251 5.370,2.062 6.812 C 1.970 7.515,1.969 16.481,2.061 17.188 C 2.239 18.550,2.681 19.544,3.476 20.372 C 4.162 21.084,4.935 21.524,5.956 21.780 C 6.817 21.997,6.896 22.000,11.993 22.000 C 14.960 22.000,16.828 21.985,17.041 21.959 C 19.985 21.603,21.695 19.840,21.962 16.885 C 21.990 16.579,21.999 14.787,21.989 11.660 C 21.974 7.001,21.972 6.891,21.889 6.456 C 21.642 5.171,21.165 4.235,20.369 3.478 C 19.583 2.729,18.652 2.295,17.359 2.076 C 16.995 2.014,7.572 1.987,6.960 2.046 M11.632 5.076 C 11.815 5.169,11.899 5.260,11.978 5.450 C 12.105 5.753,12.042 6.014,11.766 6.333 C 11.675 6.439,11.600 6.528,11.600 6.532 C 11.600 6.537,11.830 6.541,12.110 6.541 C 13.594 6.545,14.976 7.132,16.062 8.218 C 16.910 9.066,17.435 10.057,17.663 11.240 C 17.771 11.802,17.763 12.840,17.646 13.388 C 17.394 14.572,16.839 15.571,15.969 16.406 C 15.163 17.179,14.253 17.658,13.120 17.905 C 12.635 18.011,11.365 18.011,10.880 17.905 C 8.522 17.391,6.753 15.573,6.338 13.237 C 6.212 12.532,6.255 11.542,6.443 10.794 C 6.610 10.129,7.140 9.065,7.394 8.884 C 7.891 8.530,8.574 8.873,8.573 9.476 C 8.572 9.672,8.547 9.744,8.369 10.053 C 7.965 10.756,7.804 11.298,7.771 12.069 C 7.745 12.681,7.792 13.047,7.966 13.580 C 8.428 14.995,9.576 16.039,11.077 16.410 C 11.563 16.530,12.437 16.530,12.923 16.410 C 13.791 16.195,14.505 15.785,15.090 15.164 C 16.164 14.026,16.522 12.390,16.022 10.900 C 15.741 10.060,15.131 9.256,14.398 8.759 C 14.068 8.534,13.490 8.264,13.123 8.163 C 12.734 8.056,12.090 7.995,11.740 8.032 L 11.460 8.061 11.760 8.285 C 12.214 8.625,12.286 8.729,12.289 9.056 C 12.291 9.353,12.136 9.606,11.863 9.748 C 11.710 9.828,11.406 9.826,11.236 9.743 C 10.987 9.623,9.114 8.210,9.011 8.067 C 8.880 7.881,8.849 7.612,8.935 7.387 C 9.022 7.159,10.761 5.170,10.960 5.070 C 11.144 4.978,11.445 4.981,11.632 5.076 " fill="#292D32" stroke="none" fill-rule="evenodd"></path></svg>