<svg width="24" height="24" viewBox="0 0 24 24" fill="none" xmlns="http://www.w3.org/2000/svg"><path d="M6.960 2.046 C 6.236 2.116,5.358 2.357,4.796 2.641 C 4.426 2.828,3.928 3.183,3.624 3.475 C 2.737 4.332,2.251 5.370,2.062 6.812 C 1.970 7.515,1.969 16.481,2.061 17.188 C 2.239 18.550,2.681 19.544,3.476 20.372 C 4.162 21.084,4.935 21.524,5.956 21.780 C 6.817 21.997,6.896 22.000,11.993 22.000 C 14.960 22.000,16.828 21.985,17.041 21.959 C 19.985 21.603,21.695 19.840,21.962 16.885 C 21.990 16.579,21.999 14.787,21.989 11.660 C 21.974 7.001,21.972 6.891,21.889 6.456 C 21.642 5.171,21.165 4.235,20.369 3.478 C 19.583 2.729,18.652 2.295,17.359 2.076 C 16.995 2.014,7.572 1.987,6.960 2.046 M13.058 5.067 C 13.269 5.168,14.989 7.152,15.069 7.388 C 15.147 7.617,15.118 7.880,14.995 8.060 C 14.908 8.188,13.089 9.560,12.784 9.728 C 12.633 9.812,12.323 9.820,12.149 9.745 C 11.993 9.678,11.820 9.501,11.763 9.347 C 11.702 9.188,11.710 8.855,11.777 8.728 C 11.845 8.597,12.026 8.426,12.319 8.217 L 12.538 8.060 12.259 8.031 C 12.106 8.015,11.799 8.020,11.577 8.042 C 10.167 8.180,8.926 9.014,8.246 10.280 C 7.921 10.885,7.760 11.542,7.760 12.260 C 7.760 14.255,9.090 15.919,11.077 16.410 C 11.563 16.530,12.437 16.530,12.923 16.410 C 14.251 16.081,15.310 15.224,15.857 14.032 C 16.126 13.449,16.240 12.910,16.238 12.240 C 16.236 11.514,16.075 10.878,15.732 10.240 C 15.631 10.053,15.522 9.849,15.490 9.787 C 15.404 9.622,15.416 9.325,15.515 9.129 C 15.699 8.769,16.224 8.633,16.564 8.858 C 16.958 9.118,17.525 10.386,17.684 11.360 C 17.764 11.847,17.754 12.769,17.664 13.260 C 17.444 14.454,16.918 15.448,16.043 16.323 C 15.220 17.145,14.284 17.652,13.120 17.905 C 12.635 18.011,11.365 18.011,10.880 17.905 C 8.522 17.391,6.756 15.575,6.337 13.237 C 6.247 12.732,6.247 11.788,6.337 11.283 C 6.668 9.437,7.879 7.853,9.562 7.066 C 10.337 6.703,10.907 6.566,11.788 6.532 L 12.395 6.509 12.218 6.292 C 12.019 6.047,11.942 5.823,11.981 5.597 C 12.014 5.399,12.192 5.153,12.365 5.068 C 12.540 4.982,12.879 4.982,13.058 5.067 " fill="#292D32" stroke="none" fill-rule="evenodd"></path></svg>