<svg width="24" height="24" viewBox="0 0 24 24" fill="none" xmlns="http://www.w3.org/2000/svg"><path d="M13.815 2.277 C 13.396 2.380,13.144 2.858,13.297 3.259 C 13.350 3.397,13.495 3.559,13.943 3.983 C 14.260 4.284,14.520 4.545,14.520 4.563 C 14.520 4.582,13.130 4.586,11.430 4.573 C 8.092 4.547,7.753 4.559,6.923 4.745 C 3.159 5.586,0.705 9.244,1.357 13.041 C 1.597 14.436,2.213 15.690,3.176 16.742 C 3.442 17.033,3.513 17.087,3.692 17.139 C 4.188 17.280,4.640 16.948,4.640 16.443 C 4.640 16.190,4.576 16.060,4.307 15.767 C 3.572 14.965,3.108 14.074,2.870 13.009 C 2.745 12.445,2.745 11.235,2.870 10.671 C 2.995 10.113,3.136 9.724,3.406 9.198 C 3.706 8.613,4.044 8.163,4.545 7.680 C 5.334 6.921,6.223 6.446,7.340 6.187 C 7.690 6.106,7.824 6.103,12.203 6.082 L 16.706 6.060 16.867 5.954 C 17.040 5.839,17.157 5.637,17.189 5.400 C 17.231 5.090,17.141 4.981,15.768 3.661 C 15.062 2.982,14.434 2.396,14.372 2.358 C 14.235 2.272,13.983 2.236,13.815 2.277 M19.953 6.841 C 19.766 6.873,19.634 6.961,19.493 7.146 C 19.396 7.273,19.380 7.330,19.380 7.557 C 19.380 7.855,19.413 7.916,19.814 8.358 C 20.157 8.737,20.383 9.071,20.638 9.573 C 21.446 11.168,21.469 13.003,20.702 14.627 C 19.938 16.241,18.542 17.358,16.720 17.811 C 16.387 17.894,16.288 17.896,11.880 17.918 C 7.590 17.939,7.373 17.943,7.230 18.015 C 6.849 18.204,6.711 18.628,6.905 19.009 C 6.982 19.159,9.485 21.562,9.661 21.655 C 10.099 21.885,10.682 21.578,10.749 21.083 C 10.790 20.774,10.690 20.618,10.058 20.004 C 9.740 19.696,9.480 19.432,9.480 19.416 C 9.480 19.400,10.853 19.398,12.530 19.410 C 14.229 19.423,15.793 19.417,16.060 19.397 C 17.791 19.266,19.383 18.534,20.622 17.301 C 22.548 15.383,23.237 12.519,22.396 9.932 C 22.194 9.311,21.773 8.471,21.410 7.963 C 21.125 7.565,20.606 6.988,20.464 6.911 C 20.338 6.844,20.118 6.813,19.953 6.841 M12.035 8.606 C 11.836 8.660,11.751 8.741,10.886 9.709 C 10.356 10.302,10.107 10.612,10.059 10.737 C 9.878 11.210,10.224 11.718,10.727 11.719 C 10.987 11.720,11.110 11.665,11.330 11.449 L 11.520 11.263 11.520 13.049 C 11.520 14.213,11.535 14.874,11.563 14.947 C 11.766 15.485,12.547 15.560,12.870 15.072 L 12.980 14.906 12.980 12.003 C 12.980 9.149,12.979 9.098,12.898 8.961 C 12.729 8.673,12.355 8.519,12.035 8.606 " fill="#292D32" stroke="none" fill-rule="evenodd"></path></svg>