<svg width="24" height="24" viewBox="0 0 24 24" fill="none" xmlns="http://www.w3.org/2000/svg"><path d="M11.120 2.039 C 8.336 2.318,5.905 3.624,4.193 5.760 C 1.474 9.155,1.267 13.917,3.682 17.533 C 6.770 22.155,12.946 23.386,17.560 20.299 C 22.155 17.225,23.377 11.041,20.299 6.440 C 18.728 4.092,16.319 2.562,13.493 2.119 C 12.909 2.027,11.660 1.985,11.120 2.039 M9.491 5.975 C 9.760 6.090,9.920 6.347,9.920 6.665 C 9.920 6.903,9.840 7.051,9.547 7.350 L 9.302 7.600 12.241 7.601 C 15.476 7.601,15.440 7.599,15.958 7.850 C 16.317 8.024,16.816 8.523,16.991 8.883 C 17.221 9.358,17.245 9.554,17.232 10.840 L 17.220 11.993 17.098 12.146 C 16.956 12.324,16.677 12.480,16.500 12.480 C 16.323 12.480,16.044 12.324,15.902 12.146 L 15.780 11.993 15.759 10.866 C 15.745 10.075,15.723 9.704,15.687 9.620 C 15.617 9.458,15.451 9.289,15.272 9.196 C 15.130 9.123,14.998 9.120,12.233 9.120 L 9.343 9.120 9.567 9.350 C 9.840 9.630,9.920 9.780,9.920 10.015 C 9.920 10.525,9.511 10.856,9.011 10.751 C 8.832 10.713,8.758 10.649,7.865 9.765 C 7.252 9.158,6.884 8.763,6.836 8.660 C 6.741 8.456,6.741 8.223,6.837 8.020 C 6.921 7.839,8.663 6.088,8.860 5.986 C 9.010 5.908,9.321 5.902,9.491 5.975 M7.856 11.635 C 7.919 11.671,8.027 11.769,8.096 11.854 L 8.220 12.007 8.240 13.134 C 8.263 14.404,8.270 14.443,8.559 14.690 C 8.669 14.784,8.799 14.850,8.926 14.878 C 9.055 14.905,10.100 14.920,11.908 14.920 L 14.693 14.920 14.452 14.670 C 14.152 14.357,14.080 14.219,14.080 13.957 C 14.080 13.537,14.395 13.228,14.818 13.231 C 14.935 13.232,15.083 13.261,15.146 13.294 C 15.306 13.379,17.098 15.192,17.176 15.348 C 17.257 15.510,17.258 15.760,17.178 15.951 C 17.095 16.151,15.360 17.893,15.137 18.001 C 14.559 18.282,13.974 17.798,14.097 17.140 C 14.117 17.036,14.203 16.913,14.406 16.699 L 14.687 16.403 11.654 16.391 L 8.620 16.380 8.350 16.275 C 7.746 16.040,7.307 15.660,7.030 15.134 C 6.780 14.657,6.755 14.471,6.768 13.163 L 6.780 12.014 6.893 11.866 C 6.955 11.785,7.050 11.689,7.104 11.654 C 7.317 11.514,7.629 11.506,7.856 11.635 " fill="#292D32" stroke="none" fill-rule="evenodd"></path></svg>