<svg width="24" height="24" viewBox="0 0 24 24" fill="none" xmlns="http://www.w3.org/2000/svg"><path d="M13.815 2.277 C 13.396 2.380,13.144 2.858,13.297 3.259 C 13.350 3.397,13.495 3.559,13.943 3.983 C 14.260 4.284,14.520 4.545,14.520 4.563 C 14.520 4.582,13.130 4.586,11.430 4.573 C 8.092 4.547,7.753 4.559,6.923 4.745 C 3.159 5.586,0.705 9.244,1.357 13.041 C 1.597 14.436,2.213 15.690,3.176 16.742 C 3.442 17.033,3.513 17.087,3.692 17.139 C 4.188 17.280,4.640 16.948,4.640 16.443 C 4.640 16.190,4.576 16.060,4.307 15.767 C 3.572 14.965,3.108 14.074,2.870 13.009 C 2.745 12.445,2.745 11.235,2.870 10.671 C 2.995 10.113,3.136 9.724,3.406 9.198 C 3.706 8.613,4.044 8.163,4.545 7.680 C 5.334 6.921,6.223 6.446,7.340 6.187 C 7.690 6.106,7.824 6.103,12.203 6.082 L 16.706 6.060 16.867 5.954 C 17.040 5.839,17.157 5.637,17.189 5.400 C 17.231 5.090,17.141 4.981,15.768 3.661 C 15.062 2.982,14.434 2.396,14.372 2.358 C 14.235 2.272,13.983 2.236,13.815 2.277 M19.953 6.841 C 19.766 6.873,19.634 6.961,19.493 7.146 C 19.396 7.273,19.380 7.330,19.380 7.557 C 19.380 7.855,19.413 7.916,19.814 8.358 C 20.157 8.737,20.383 9.071,20.638 9.573 C 21.446 11.168,21.469 13.003,20.702 14.627 C 19.938 16.241,18.543 17.358,16.720 17.811 C 16.387 17.894,16.289 17.896,11.837 17.918 L 7.294 17.940 7.149 18.039 C 6.852 18.243,6.733 18.685,6.893 18.989 C 6.980 19.155,9.474 21.556,9.661 21.655 C 10.099 21.885,10.682 21.578,10.749 21.083 C 10.790 20.774,10.690 20.618,10.058 20.004 C 9.740 19.696,9.480 19.432,9.480 19.416 C 9.480 19.400,10.853 19.398,12.530 19.410 C 14.229 19.423,15.793 19.417,16.060 19.397 C 17.791 19.266,19.383 18.534,20.622 17.301 C 22.548 15.383,23.237 12.519,22.396 9.932 C 22.194 9.311,21.773 8.471,21.410 7.963 C 21.125 7.565,20.606 6.988,20.464 6.911 C 20.338 6.844,20.118 6.813,19.953 6.841 M8.260 8.586 C 7.256 8.803,6.378 9.478,5.902 10.400 C 5.609 10.968,5.540 11.272,5.540 12.000 C 5.540 12.525,5.554 12.668,5.630 12.932 C 5.728 13.268,5.936 13.711,6.133 14.000 C 6.559 14.624,7.295 15.145,8.068 15.370 L 8.380 15.460 12.000 15.460 C 16.062 15.460,15.787 15.479,16.473 15.158 C 17.399 14.725,18.083 13.923,18.370 12.932 C 18.489 12.518,18.499 11.528,18.387 11.120 C 18.282 10.738,17.953 10.097,17.710 9.801 C 17.274 9.270,16.628 8.839,15.958 8.633 L 15.660 8.542 12.100 8.533 C 9.051 8.526,8.500 8.534,8.260 8.586 " fill="#292D32" stroke="none" fill-rule="evenodd"></path></svg>