<svg width="24" height="24" viewBox="0 0 24 24" fill="none" xmlns="http://www.w3.org/2000/svg"><path d="M6.592 1.282 C 6.510 1.296,6.375 1.354,6.292 1.412 C 6.208 1.470,5.425 2.233,4.552 3.109 C 3.481 4.182,2.944 4.748,2.902 4.849 C 2.818 5.051,2.824 5.302,2.919 5.497 C 3.039 5.745,6.204 8.891,6.440 8.997 C 6.663 9.098,6.814 9.100,7.020 9.004 C 7.400 8.828,7.577 8.425,7.438 8.053 C 7.415 7.991,6.943 7.486,6.388 6.930 L 5.381 5.920 11.528 5.920 C 15.834 5.920,17.740 5.933,17.888 5.964 C 18.659 6.123,19.316 6.742,19.583 7.560 C 19.647 7.756,19.656 7.982,19.668 9.660 C 19.675 10.694,19.690 11.599,19.702 11.671 C 19.746 11.934,20.130 12.238,20.420 12.238 C 20.709 12.238,21.091 11.937,21.140 11.671 C 21.154 11.599,21.158 10.631,21.151 9.520 C 21.137 7.563,21.134 7.491,21.047 7.205 C 20.834 6.505,20.565 6.041,20.089 5.552 C 19.456 4.901,18.700 4.534,17.797 4.442 C 17.536 4.415,15.255 4.400,11.386 4.400 L 5.381 4.400 6.388 3.390 C 6.943 2.834,7.415 2.329,7.438 2.267 C 7.534 2.009,7.473 1.703,7.287 1.507 C 7.099 1.308,6.872 1.234,6.592 1.282 M3.420 11.797 C 3.354 11.813,3.262 11.847,3.215 11.872 C 3.075 11.947,2.885 12.190,2.859 12.329 C 2.846 12.401,2.842 13.369,2.850 14.480 C 2.864 16.433,2.867 16.510,2.953 16.795 C 3.093 17.254,3.230 17.553,3.461 17.902 C 4.087 18.847,5.046 19.427,6.200 19.560 C 6.407 19.584,8.898 19.599,12.558 19.600 L 18.576 19.600 17.609 20.572 C 16.994 21.191,16.620 21.598,16.581 21.691 C 16.424 22.068,16.574 22.479,16.939 22.669 C 17.093 22.749,17.429 22.749,17.581 22.668 C 17.754 22.577,21.068 19.241,21.118 19.107 C 21.141 19.045,21.160 18.925,21.160 18.840 C 21.160 18.755,21.141 18.635,21.118 18.573 C 21.069 18.442,17.756 15.104,17.586 15.014 C 17.436 14.935,17.087 14.933,16.938 15.011 C 16.574 15.201,16.424 15.613,16.581 15.989 C 16.620 16.082,16.994 16.489,17.609 17.108 L 18.576 18.080 12.417 18.080 C 5.600 18.080,6.053 18.097,5.523 17.819 C 5.043 17.566,4.607 17.050,4.431 16.523 C 4.346 16.270,4.342 16.186,4.321 14.254 L 4.300 12.247 4.176 12.094 C 3.971 11.840,3.693 11.732,3.420 11.797 " fill="#292D32" stroke="none" fill-rule="evenodd"></path></svg>