<svg width="24" height="24" viewBox="0 0 24 24" fill="none" xmlns="http://www.w3.org/2000/svg"><path d="M11.660 2.025 C 10.662 2.179,9.819 2.946,9.575 3.919 C 9.527 4.111,9.516 4.293,9.530 4.619 C 9.541 4.862,9.561 5.088,9.576 5.122 C 9.597 5.171,9.532 5.200,9.239 5.272 C 8.493 5.453,7.589 5.856,6.886 6.319 C 5.265 7.386,4.075 9.019,3.561 10.880 C 3.346 11.658,3.310 11.991,3.290 13.334 C 3.276 14.273,3.285 14.654,3.321 14.784 C 3.383 15.005,3.645 15.308,3.858 15.405 C 4.013 15.475,4.346 15.478,11.991 15.479 C 18.666 15.480,19.984 15.471,20.094 15.425 C 20.282 15.347,20.510 15.134,20.612 14.944 C 20.697 14.786,20.700 14.739,20.700 13.560 C 20.700 12.191,20.665 11.824,20.460 11.018 C 19.947 9.011,18.704 7.318,16.920 6.199 C 16.276 5.795,15.302 5.386,14.632 5.238 C 14.405 5.188,14.404 5.188,14.432 5.064 C 14.447 4.996,14.459 4.715,14.458 4.440 C 14.456 4.007,14.442 3.902,14.353 3.653 C 14.226 3.298,13.937 2.857,13.689 2.638 C 13.442 2.422,13.086 2.227,12.743 2.123 C 12.471 2.040,11.899 1.988,11.660 2.025 M15.302 10.315 C 15.934 10.602,15.872 11.534,15.209 11.718 C 15.005 11.775,8.995 11.775,8.791 11.718 C 8.372 11.602,8.136 11.125,8.302 10.729 C 8.384 10.532,8.506 10.405,8.700 10.316 C 8.851 10.246,9.032 10.242,12.000 10.242 C 14.961 10.242,15.149 10.246,15.302 10.315 M2.669 17.057 C 2.332 17.178,2.086 17.440,1.994 17.780 C 1.929 18.021,1.975 20.063,2.054 20.407 C 2.272 21.362,2.920 21.832,4.197 21.962 C 4.487 21.991,7.021 22.000,12.260 21.990 C 19.151 21.977,19.927 21.969,20.180 21.911 C 21.191 21.675,21.636 21.302,21.865 20.500 C 21.921 20.304,21.936 20.035,21.949 19.020 L 21.965 17.780 21.852 17.560 C 21.727 17.316,21.485 17.107,21.249 17.042 C 21.148 17.014,18.138 17.001,11.960 17.002 C 4.393 17.003,2.794 17.013,2.669 17.057 " fill="#292D32" stroke="none" fill-rule="evenodd"></path></svg>