<svg width="24" height="24" viewBox="0 0 24 24" fill="none" xmlns="http://www.w3.org/2000/svg"><path d="M6.960 2.046 C 6.236 2.116,5.358 2.357,4.796 2.641 C 4.426 2.828,3.928 3.183,3.624 3.475 C 2.737 4.332,2.251 5.370,2.062 6.812 C 1.970 7.515,1.969 16.481,2.061 17.188 C 2.239 18.550,2.681 19.544,3.476 20.372 C 4.162 21.084,4.935 21.524,5.956 21.780 C 6.817 21.997,6.896 22.000,11.993 22.000 C 14.960 22.000,16.828 21.985,17.041 21.959 C 19.985 21.603,21.695 19.840,21.962 16.885 C 21.990 16.579,21.999 14.787,21.989 11.660 C 21.974 7.001,21.972 6.891,21.889 6.456 C 21.642 5.171,21.165 4.235,20.369 3.478 C 19.583 2.729,18.652 2.295,17.359 2.076 C 16.995 2.014,7.572 1.987,6.960 2.046 M12.430 5.569 C 12.626 5.698,12.735 5.918,12.735 6.180 C 12.735 6.414,12.670 6.551,12.422 6.842 C 12.322 6.959,12.240 7.067,12.240 7.082 C 12.240 7.096,12.388 7.120,12.570 7.134 C 13.004 7.168,13.661 7.321,14.060 7.479 C 15.963 8.237,17.266 9.806,17.665 11.821 C 17.771 12.357,17.762 13.404,17.646 13.948 C 17.142 16.316,15.307 18.091,12.940 18.501 C 12.416 18.592,11.588 18.593,11.060 18.502 C 10.586 18.421,9.841 18.182,9.453 17.986 C 8.197 17.354,7.148 16.202,6.644 14.900 C 6.065 13.407,6.142 11.728,6.854 10.289 C 7.214 9.563,7.417 9.355,7.796 9.328 C 8.102 9.306,8.321 9.419,8.472 9.678 C 8.641 9.965,8.621 10.194,8.392 10.588 C 7.704 11.772,7.576 13.025,8.016 14.257 C 8.307 15.070,8.799 15.729,9.520 16.268 C 10.020 16.642,10.779 16.948,11.437 17.043 C 12.211 17.154,13.124 17.003,13.859 16.644 C 15.719 15.733,16.658 13.652,16.096 11.686 C 15.673 10.206,14.500 9.069,13.020 8.706 C 12.750 8.639,12.360 8.583,12.360 8.610 C 12.360 8.620,12.467 8.703,12.597 8.795 C 12.873 8.988,12.990 9.157,13.025 9.414 C 13.058 9.653,12.908 9.975,12.698 10.117 C 12.511 10.243,12.184 10.274,11.996 10.184 C 11.921 10.148,11.393 9.778,10.823 9.362 C 10.078 8.819,9.759 8.562,9.693 8.453 C 9.567 8.245,9.566 7.918,9.691 7.713 C 9.870 7.418,11.483 5.622,11.653 5.527 C 11.878 5.401,12.204 5.419,12.430 5.569 " fill="#292D32" stroke="none" fill-rule="evenodd"></path></svg>