<svg width="24" height="24" viewBox="0 0 24 24" fill="none" xmlns="http://www.w3.org/2000/svg"><path d="M8.960 2.045 C 5.615 2.388,2.840 4.902,2.164 8.201 C 2.067 8.673,1.983 9.534,2.009 9.799 C 2.047 10.191,2.357 10.480,2.740 10.480 C 2.982 10.480,3.153 10.404,3.309 10.227 C 3.453 10.063,3.463 10.017,3.519 9.309 C 3.590 8.422,3.764 7.785,4.157 6.980 C 4.469 6.341,4.808 5.872,5.340 5.340 C 5.850 4.830,6.305 4.496,6.918 4.183 C 7.352 3.961,8.156 3.664,8.259 3.688 C 8.298 3.696,8.266 3.779,8.151 3.972 C 7.942 4.321,7.912 4.555,8.040 4.820 C 8.245 5.242,8.805 5.368,9.177 5.075 C 9.322 4.961,10.444 3.075,10.477 2.890 C 10.522 2.640,10.453 2.413,10.280 2.240 C 10.039 1.999,9.782 1.961,8.960 2.045 M11.264 7.044 C 10.474 7.109,9.636 7.318,9.120 7.580 C 7.875 8.210,7.228 9.348,7.041 11.234 C 6.987 11.781,6.987 17.219,7.041 17.766 C 7.309 20.476,8.524 21.691,11.234 21.959 C 11.781 22.013,17.219 22.013,17.766 21.959 C 20.476 21.691,21.691 20.476,21.959 17.766 C 22.013 17.219,22.013 11.781,21.959 11.234 C 21.821 9.843,21.449 8.898,20.775 8.226 C 20.075 7.527,19.105 7.159,17.660 7.042 C 17.062 6.993,11.859 6.995,11.264 7.044 " fill="#292D32" stroke="none" fill-rule="evenodd"></path></svg>