<svg width="24" height="24" viewBox="0 0 24 24" fill="none" xmlns="http://www.w3.org/2000/svg"><path d="M6.960 2.046 C 6.236 2.116,5.358 2.357,4.796 2.641 C 4.426 2.828,3.928 3.183,3.624 3.475 C 2.737 4.332,2.251 5.370,2.062 6.812 C 1.970 7.515,1.969 16.481,2.061 17.188 C 2.239 18.550,2.681 19.544,3.476 20.372 C 4.162 21.084,4.935 21.524,5.956 21.780 C 6.817 21.997,6.896 22.000,11.993 22.000 C 14.960 22.000,16.828 21.985,17.041 21.959 C 19.985 21.603,21.695 19.840,21.962 16.885 C 21.990 16.579,21.999 14.787,21.989 11.660 C 21.974 7.001,21.972 6.891,21.889 6.456 C 21.642 5.171,21.165 4.235,20.369 3.478 C 19.583 2.729,18.652 2.295,17.359 2.076 C 16.995 2.014,7.572 1.987,6.960 2.046 M12.361 5.500 C 12.508 5.577,14.267 7.571,14.344 7.749 C 14.466 8.031,14.392 8.406,14.175 8.606 C 13.960 8.804,12.181 10.091,12.020 10.165 C 11.709 10.308,11.395 10.242,11.171 9.986 C 10.839 9.608,10.940 9.112,11.416 8.784 C 11.539 8.700,11.640 8.622,11.640 8.611 C 11.640 8.583,11.254 8.638,10.980 8.706 C 9.350 9.106,8.107 10.440,7.796 12.120 C 7.727 12.493,7.739 13.278,7.819 13.660 C 8.221 15.569,9.848 16.967,11.783 17.068 C 12.339 17.097,12.772 17.037,13.320 16.855 C 14.002 16.629,14.569 16.273,15.045 15.772 C 15.526 15.264,15.800 14.809,16.015 14.160 C 16.197 13.612,16.257 13.179,16.228 12.623 C 16.194 11.960,16.061 11.500,15.695 10.769 C 15.410 10.199,15.391 10.146,15.415 9.974 C 15.468 9.583,15.768 9.320,16.158 9.320 C 16.451 9.320,16.631 9.431,16.829 9.734 C 17.810 11.233,18.012 13.208,17.356 14.900 C 16.732 16.512,15.376 17.783,13.720 18.311 C 12.900 18.572,11.892 18.645,11.060 18.502 C 10.586 18.421,9.841 18.182,9.453 17.986 C 8.488 17.500,7.599 16.666,7.034 15.715 C 6.210 14.328,6.031 12.489,6.569 10.960 C 7.120 9.399,8.317 8.135,9.840 7.507 C 10.353 7.295,11.314 7.081,11.755 7.080 C 11.786 7.080,11.731 6.988,11.630 6.870 C 11.344 6.535,11.280 6.407,11.280 6.166 C 11.280 5.697,11.622 5.374,12.071 5.421 C 12.165 5.431,12.295 5.466,12.361 5.500 " fill="#292D32" stroke="none" fill-rule="evenodd"></path></svg>