<svg width="24" height="24" viewBox="0 0 24 24" fill="none" xmlns="http://www.w3.org/2000/svg"><path d="M14.008 2.045 C 13.687 2.138,13.459 2.534,13.523 2.890 C 13.556 3.075,14.678 4.961,14.823 5.075 C 15.195 5.368,15.755 5.242,15.960 4.820 C 16.088 4.555,16.058 4.321,15.849 3.972 C 15.734 3.779,15.702 3.696,15.741 3.688 C 15.844 3.664,16.648 3.961,17.082 4.183 C 17.695 4.496,18.150 4.830,18.660 5.340 C 19.192 5.872,19.531 6.341,19.843 6.980 C 20.236 7.785,20.410 8.422,20.481 9.309 C 20.537 10.017,20.547 10.063,20.691 10.227 C 21.126 10.722,21.928 10.459,21.991 9.799 C 22.017 9.534,21.933 8.673,21.836 8.201 C 21.216 5.176,18.819 2.779,15.800 2.164 C 15.098 2.021,14.280 1.967,14.008 2.045 M6.264 7.044 C 5.474 7.109,4.636 7.318,4.120 7.580 C 2.875 8.210,2.228 9.348,2.041 11.234 C 1.987 11.781,1.987 17.219,2.041 17.766 C 2.309 20.476,3.524 21.691,6.234 21.959 C 6.781 22.013,12.219 22.013,12.766 21.959 C 15.476 21.691,16.691 20.476,16.959 17.766 C 17.013 17.219,17.013 11.781,16.959 11.234 C 16.821 9.843,16.449 8.898,15.775 8.226 C 15.075 7.527,14.105 7.159,12.660 7.042 C 12.062 6.993,6.859 6.995,6.264 7.044 " fill="#292D32" stroke="none" fill-rule="evenodd"></path></svg>