<svg width="24" height="24" viewBox="0 0 24 24" fill="none" xmlns="http://www.w3.org/2000/svg"><path d="M6.960 2.046 C 6.236 2.116,5.358 2.357,4.796 2.641 C 4.426 2.828,3.928 3.183,3.624 3.475 C 2.737 4.332,2.251 5.370,2.062 6.812 C 1.970 7.515,1.969 16.481,2.061 17.188 C 2.239 18.550,2.681 19.544,3.476 20.372 C 4.162 21.084,4.935 21.524,5.956 21.780 C 6.817 21.997,6.896 22.000,11.993 22.000 C 14.960 22.000,16.828 21.985,17.041 21.959 C 19.985 21.603,21.695 19.840,21.962 16.885 C 21.990 16.579,21.999 14.787,21.989 11.660 C 21.974 7.001,21.972 6.891,21.889 6.456 C 21.642 5.171,21.165 4.235,20.369 3.478 C 19.583 2.729,18.652 2.295,17.359 2.076 C 16.995 2.014,7.572 1.987,6.960 2.046 M15.978 6.621 C 16.668 6.801,17.200 7.334,17.380 8.028 C 17.460 8.335,17.455 8.608,17.363 8.964 C 17.285 9.266,15.146 16.183,14.996 16.620 C 14.641 17.654,13.557 18.190,12.534 17.838 C 12.084 17.683,11.701 17.356,11.494 16.948 C 11.441 16.843,11.219 16.236,11.002 15.599 C 10.784 14.963,10.565 14.357,10.513 14.253 C 10.387 13.996,10.026 13.635,9.764 13.502 C 9.645 13.442,8.999 13.205,8.327 12.975 C 7.080 12.549,6.935 12.485,6.667 12.243 C 5.734 11.401,5.925 9.743,7.022 9.154 C 7.189 9.064,14.646 6.712,15.104 6.605 C 15.349 6.547,15.722 6.554,15.978 6.621 " fill="#292D32" stroke="none" fill-rule="evenodd"></path></svg>