<svg width="24" height="24" viewBox="0 0 24 24" fill="none" xmlns="http://www.w3.org/2000/svg"><path d="M4.929 2.043 C 4.249 2.148,3.548 2.503,3.040 3.000 C 2.699 3.333,2.549 3.538,2.345 3.946 C 1.406 5.826,2.353 8.137,4.334 8.803 C 6.049 9.379,7.876 8.594,8.636 6.954 C 8.880 6.429,8.938 6.147,8.938 5.500 C 8.938 4.853,8.880 4.571,8.636 4.046 C 8.072 2.828,6.935 2.070,5.600 2.020 C 5.369 2.011,5.067 2.022,4.929 2.043 M11.811 4.279 C 11.513 4.350,11.243 4.687,11.241 4.991 C 11.240 5.153,11.335 5.388,11.452 5.513 C 11.664 5.741,11.647 5.738,13.420 5.760 C 15.034 5.780,15.063 5.781,15.232 5.872 C 15.464 5.996,15.686 6.226,15.803 6.463 C 15.883 6.625,15.900 6.721,15.900 7.000 C 15.900 7.373,15.823 7.591,15.614 7.816 C 15.554 7.880,13.650 9.558,11.383 11.546 C 9.115 13.533,7.218 15.213,7.167 15.279 C 6.674 15.918,6.468 16.742,6.618 17.482 C 6.800 18.382,7.321 19.082,8.089 19.457 C 8.646 19.729,8.689 19.734,10.439 19.750 C 12.208 19.767,12.281 19.759,12.520 19.520 C 12.880 19.160,12.795 18.589,12.347 18.349 C 12.184 18.262,12.139 18.259,10.560 18.240 L 8.940 18.220 8.725 18.101 C 8.331 17.883,8.080 17.458,8.080 17.010 C 8.081 16.706,8.135 16.524,8.291 16.304 C 8.366 16.198,10.136 14.622,12.520 12.538 C 15.115 10.270,16.696 8.860,16.828 8.697 C 17.236 8.192,17.415 7.667,17.414 6.980 C 17.414 6.590,17.399 6.497,17.285 6.162 C 17.120 5.677,16.928 5.364,16.598 5.040 C 16.158 4.609,15.644 4.360,15.031 4.280 C 14.687 4.236,11.998 4.234,11.811 4.279 M5.920 4.586 C 6.250 4.723,6.519 5.134,6.519 5.500 C 6.519 5.887,6.214 6.321,5.855 6.443 C 5.337 6.619,4.789 6.366,4.574 5.852 C 4.474 5.613,4.514 5.216,4.662 4.975 C 4.788 4.772,5.109 4.541,5.315 4.507 C 5.468 4.481,5.759 4.519,5.920 4.586 M16.680 15.027 C 16.475 15.059,16.093 15.215,15.893 15.347 C 15.541 15.579,15.294 15.895,15.117 16.340 C 15.021 16.579,15.021 16.590,15.008 18.349 C 15.000 19.486,15.011 20.200,15.038 20.349 C 15.184 21.138,15.851 21.812,16.635 21.959 C 16.920 22.013,20.080 22.013,20.365 21.959 C 21.141 21.813,21.813 21.141,21.959 20.365 C 22.013 20.080,22.013 16.920,21.959 16.635 C 21.813 15.859,21.141 15.187,20.365 15.041 C 20.162 15.002,16.910 14.990,16.680 15.027 M18.920 17.586 C 19.250 17.723,19.519 18.134,19.519 18.500 C 19.519 18.760,19.381 19.057,19.172 19.245 C 18.768 19.609,18.176 19.580,17.784 19.176 C 17.482 18.865,17.430 18.351,17.663 17.974 C 17.788 17.772,18.109 17.541,18.315 17.507 C 18.468 17.481,18.759 17.519,18.920 17.586 " fill="#292D32" stroke="none" fill-rule="evenodd"></path></svg>