<svg width="24" height="24" viewBox="0 0 24 24" fill="none" xmlns="http://www.w3.org/2000/svg"><path d="M4.900 2.042 C 4.382 2.122,3.795 2.355,3.366 2.649 C 2.594 3.178,2.126 4.007,1.997 5.073 C 1.850 6.289,2.384 7.637,3.519 8.912 C 4.093 9.556,4.461 9.811,5.007 9.939 C 5.665 10.094,6.366 9.914,6.888 9.454 C 7.919 8.548,8.721 7.223,8.920 6.096 C 8.993 5.687,8.952 4.823,8.844 4.460 C 8.647 3.802,8.284 3.235,7.789 2.812 C 7.471 2.541,6.838 2.225,6.400 2.120 C 6.007 2.025,5.256 1.986,4.900 2.042 M5.804 4.246 C 6.050 4.330,6.259 4.504,6.380 4.726 C 6.758 5.421,6.201 6.269,5.419 6.188 C 4.595 6.103,4.224 5.106,4.792 4.506 C 5.043 4.242,5.470 4.132,5.804 4.246 M11.807 4.285 C 11.572 4.340,11.348 4.568,11.285 4.816 C 11.200 5.154,11.361 5.512,11.668 5.664 C 11.807 5.734,11.955 5.742,13.440 5.760 L 15.060 5.780 15.275 5.899 C 15.669 6.117,15.920 6.542,15.920 6.990 C 15.919 7.294,15.865 7.476,15.709 7.696 C 15.634 7.803,13.874 9.368,11.480 11.459 C 8.594 13.980,7.319 15.118,7.175 15.304 C 6.767 15.826,6.591 16.332,6.588 16.980 C 6.586 17.458,6.660 17.772,6.877 18.220 C 7.241 18.969,7.849 19.461,8.671 19.670 C 8.903 19.729,9.162 19.739,10.560 19.739 L 12.180 19.740 12.359 19.639 C 12.852 19.364,12.852 18.636,12.359 18.361 L 12.180 18.260 10.560 18.240 L 8.940 18.220 8.727 18.102 C 8.332 17.883,8.118 17.547,8.089 17.100 C 8.067 16.757,8.121 16.543,8.291 16.304 C 8.366 16.197,10.108 14.647,12.500 12.558 C 14.744 10.597,16.631 8.937,16.693 8.867 C 16.989 8.533,17.245 8.049,17.364 7.600 C 17.435 7.330,17.425 6.665,17.346 6.360 C 17.255 6.009,17.006 5.508,16.789 5.237 C 16.456 4.823,15.911 4.480,15.350 4.334 C 15.144 4.280,14.824 4.267,13.540 4.257 C 12.585 4.250,11.913 4.261,11.807 4.285 M17.953 14.043 C 17.041 14.177,16.170 14.662,15.687 15.305 C 14.758 16.542,14.752 18.246,15.671 19.764 C 16.043 20.379,16.667 21.126,17.104 21.480 C 17.863 22.096,18.862 22.155,19.669 21.633 C 20.131 21.334,20.902 20.449,21.337 19.717 C 22.143 18.362,22.210 16.804,21.515 15.625 C 21.302 15.263,20.785 14.748,20.418 14.528 C 19.712 14.108,18.773 13.923,17.953 14.043 M18.940 16.295 C 19.050 16.347,19.188 16.442,19.248 16.505 C 19.698 16.986,19.565 17.789,18.985 18.087 C 18.328 18.425,17.546 17.943,17.541 17.199 C 17.537 16.463,18.280 15.983,18.940 16.295 " fill="#292D32" stroke="none" fill-rule="evenodd"></path></svg>