<svg width="24" height="24" viewBox="0 0 24 24" fill="none" xmlns="http://www.w3.org/2000/svg"><path d="M3.542 2.044 C 2.744 2.162,2.328 2.516,2.111 3.265 C 2.020 3.579,2.020 3.589,2.020 6.240 C 2.020 8.636,2.027 8.927,2.090 9.170 C 2.274 9.887,2.668 10.277,3.355 10.422 C 3.751 10.506,20.249 10.506,20.645 10.422 C 21.332 10.277,21.726 9.887,21.910 9.170 C 21.973 8.927,21.980 8.636,21.980 6.240 C 21.980 3.589,21.980 3.579,21.889 3.265 C 21.697 2.604,21.384 2.287,20.731 2.090 C 20.515 2.025,19.957 2.020,12.140 2.015 C 7.524 2.012,3.673 2.025,3.542 2.044 M3.305 13.583 C 2.996 13.658,2.628 13.858,2.473 14.034 C 2.404 14.112,2.295 14.289,2.231 14.427 C 2.007 14.906,1.995 15.093,2.009 17.929 C 2.022 20.494,2.022 20.501,2.114 20.780 C 2.342 21.468,2.704 21.792,3.408 21.937 C 3.684 21.993,4.600 22.000,12.000 22.000 C 19.400 22.000,20.316 21.993,20.592 21.937 C 21.296 21.792,21.658 21.468,21.885 20.780 C 21.978 20.501,21.978 20.491,21.991 17.930 C 22.002 15.814,21.994 15.301,21.946 15.022 C 21.805 14.205,21.408 13.754,20.676 13.582 C 20.302 13.493,3.670 13.495,3.305 13.583 " fill="#292D32" stroke="none" fill-rule="evenodd"></path></svg>