<svg width="24" height="24" viewBox="0 0 24 24" fill="none" xmlns="http://www.w3.org/2000/svg"><path d="M3.640 2.038 C 2.757 2.158,2.301 2.526,2.089 3.290 C 2.025 3.523,2.020 4.105,2.020 12.000 C 2.020 19.895,2.025 20.477,2.089 20.710 C 2.272 21.371,2.595 21.695,3.265 21.889 C 3.579 21.980,3.589 21.980,6.240 21.980 C 8.636 21.980,8.927 21.973,9.170 21.910 C 9.887 21.726,10.277 21.332,10.422 20.645 C 10.506 20.249,10.506 3.751,10.422 3.355 C 10.279 2.676,9.892 2.280,9.191 2.092 C 8.970 2.033,8.632 2.024,6.400 2.017 C 5.003 2.012,3.761 2.022,3.640 2.038 M15.200 2.028 C 14.269 2.142,13.795 2.514,13.586 3.296 L 13.500 3.620 13.500 12.000 L 13.500 20.380 13.586 20.704 C 13.736 21.263,13.979 21.565,14.458 21.784 C 14.912 21.992,15.126 22.005,17.929 21.991 C 20.494 21.978,20.501 21.978,20.780 21.886 C 21.468 21.658,21.792 21.296,21.937 20.592 C 21.993 20.316,22.000 19.400,22.000 12.000 C 22.000 2.926,22.012 3.384,21.769 2.889 C 21.647 2.640,21.347 2.345,21.106 2.239 C 20.617 2.022,20.654 2.025,17.900 2.017 C 16.492 2.014,15.277 2.018,15.200 2.028 " fill="#292D32" stroke="none" fill-rule="evenodd"></path></svg>