<svg width="24" height="24" viewBox="0 0 24 24" fill="none" xmlns="http://www.w3.org/2000/svg"><path d="M5.010 2.042 C 4.303 2.168,3.589 2.586,3.191 3.107 C 2.691 3.761,2.518 4.352,2.523 5.380 C 2.525 5.862,2.575 6.027,2.756 6.149 L 2.892 6.240 5.476 6.239 C 7.463 6.239,8.083 6.227,8.159 6.189 C 8.213 6.161,8.300 6.076,8.353 5.999 C 8.446 5.863,8.447 5.847,8.428 5.160 C 8.406 4.371,8.341 4.063,8.095 3.596 C 7.715 2.873,7.001 2.302,6.220 2.098 C 5.924 2.020,5.292 1.991,5.010 2.042 M13.920 2.061 C 13.349 2.185,12.646 2.633,12.238 3.131 C 11.766 3.709,11.382 4.807,11.571 5.040 C 11.722 5.226,11.628 5.219,14.216 5.240 L 16.660 5.260 16.840 5.366 C 17.393 5.691,17.299 6.504,16.684 6.714 C 16.587 6.747,15.874 6.760,14.190 6.760 C 11.600 6.760,11.693 6.752,11.545 7.002 C 11.449 7.165,11.448 8.834,11.545 8.997 C 11.675 9.219,11.675 9.218,13.120 9.240 C 14.639 9.263,14.668 9.268,14.897 9.592 C 14.994 9.730,15.013 9.797,15.013 9.993 C 15.013 10.279,14.908 10.474,14.668 10.633 L 14.506 10.740 13.143 10.760 C 11.673 10.782,11.676 10.781,11.545 11.003 C 11.490 11.095,11.480 11.254,11.480 11.995 L 11.480 12.877 11.602 13.016 C 11.669 13.092,11.778 13.166,11.845 13.181 C 11.912 13.196,13.022 13.219,14.313 13.234 L 16.660 13.260 16.840 13.366 C 17.079 13.506,17.200 13.722,17.200 14.008 C 17.200 14.283,17.044 14.550,16.815 14.663 C 16.666 14.737,16.567 14.739,14.259 14.724 C 11.605 14.707,11.674 14.701,11.541 14.959 C 11.449 15.137,11.452 16.840,11.545 16.997 C 11.679 17.225,11.625 17.218,13.680 17.240 C 15.739 17.262,15.693 17.257,15.908 17.487 C 16.272 17.876,16.131 18.489,15.631 18.698 C 15.504 18.751,15.214 18.760,13.650 18.760 C 11.687 18.760,11.731 18.756,11.571 18.958 C 11.445 19.119,11.554 19.635,11.839 20.220 C 12.237 21.038,12.912 21.636,13.720 21.887 L 14.020 21.980 16.500 21.980 L 18.980 21.980 19.280 21.886 C 19.825 21.716,20.182 21.501,20.582 21.102 C 20.888 20.796,20.973 20.681,21.130 20.360 C 21.492 19.620,21.460 20.432,21.460 12.000 C 21.460 3.568,21.492 4.380,21.130 3.640 C 20.973 3.319,20.888 3.204,20.582 2.898 C 20.280 2.597,20.157 2.506,19.840 2.348 C 19.159 2.010,19.291 2.024,16.580 2.014 C 14.635 2.006,14.131 2.015,13.920 2.061 M2.756 7.851 C 2.678 7.904,2.600 8.002,2.572 8.081 C 2.508 8.269,2.499 17.763,2.563 18.227 C 2.637 18.761,2.782 19.116,3.253 19.915 C 3.846 20.922,4.027 21.182,4.325 21.458 C 5.061 22.140,5.981 22.126,6.697 21.423 C 6.953 21.172,7.026 21.065,7.649 20.034 C 8.170 19.172,8.310 18.844,8.399 18.280 C 8.425 18.114,8.440 16.239,8.440 13.076 L 8.440 8.132 8.349 7.996 C 8.299 7.922,8.213 7.839,8.159 7.811 C 8.083 7.773,7.463 7.761,5.476 7.761 L 2.892 7.760 2.756 7.851 " fill="#292D32" stroke="none" fill-rule="evenodd"></path></svg>