<svg width="24" height="24" viewBox="0 0 24 24" fill="none" xmlns="http://www.w3.org/2000/svg"><path d="M4.620 7.025 C 4.203 7.107,4.071 7.143,3.862 7.232 C 2.921 7.631,2.267 8.426,2.062 9.419 C 1.971 9.859,1.971 14.141,2.062 14.581 C 2.310 15.785,3.215 16.690,4.419 16.938 C 4.680 16.993,5.600 17.000,12.000 17.000 C 18.400 17.000,19.320 16.993,19.581 16.938 C 20.785 16.690,21.690 15.785,21.938 14.581 C 22.029 14.141,22.029 9.859,21.938 9.419 C 21.666 8.101,20.588 7.137,19.251 7.015 C 19.019 6.994,18.943 7.002,18.862 7.055 L 18.762 7.120 18.751 9.650 C 18.740 12.127,18.738 12.183,18.656 12.340 C 18.610 12.428,18.497 12.554,18.404 12.619 C 18.263 12.719,18.196 12.739,18.000 12.739 C 17.804 12.739,17.737 12.719,17.596 12.619 C 17.503 12.554,17.390 12.428,17.344 12.340 C 17.262 12.183,17.260 12.128,17.250 9.660 C 17.240 7.153,17.239 7.140,17.155 7.070 C 17.080 7.007,16.961 7.000,16.000 7.000 C 15.038 7.000,14.920 7.007,14.845 7.070 C 14.764 7.138,14.762 7.177,14.751 8.460 C 14.739 9.960,14.733 9.987,14.404 10.219 C 14.263 10.319,14.196 10.339,14.000 10.339 C 13.804 10.339,13.737 10.319,13.596 10.219 C 13.267 9.987,13.261 9.960,13.249 8.460 C 13.238 7.177,13.236 7.138,13.155 7.070 C 13.080 7.007,12.963 7.000,12.020 7.000 C 11.049 7.000,10.962 7.006,10.876 7.076 L 10.782 7.151 10.761 9.686 C 10.742 11.978,10.733 12.232,10.671 12.345 C 10.538 12.589,10.243 12.761,9.960 12.759 C 9.715 12.757,9.405 12.523,9.300 12.260 C 9.282 12.216,9.272 11.044,9.278 9.655 L 9.287 7.130 9.195 7.065 C 9.115 7.009,8.953 7.000,8.016 7.000 C 7.039 7.000,6.920 7.007,6.845 7.070 C 6.762 7.139,6.761 7.165,6.750 9.060 C 6.740 10.919,6.737 10.985,6.656 11.140 C 6.610 11.228,6.497 11.354,6.404 11.419 C 6.263 11.519,6.196 11.539,6.000 11.539 C 5.804 11.539,5.737 11.519,5.596 11.419 C 5.503 11.354,5.390 11.228,5.344 11.140 C 5.263 10.985,5.260 10.919,5.250 9.060 C 5.239 7.165,5.238 7.139,5.155 7.070 C 5.075 7.003,4.833 6.983,4.620 7.025 " fill="#292D32" stroke="none" fill-rule="evenodd"></path></svg>