<svg width="24" height="24" viewBox="0 0 24 24" fill="none" xmlns="http://www.w3.org/2000/svg"><path d="M10.685 2.482 C 10.111 2.632,9.937 2.759,6.316 5.656 C 3.361 8.020,2.843 8.449,2.676 8.676 C 2.287 9.204,2.058 9.817,2.016 10.440 C 1.995 10.751,2.049 11.113,2.657 14.753 C 3.022 16.939,3.358 18.838,3.403 18.973 C 3.537 19.376,3.784 19.752,4.156 20.122 C 4.449 20.413,4.562 20.494,4.920 20.670 C 5.620 21.014,5.419 21.000,9.739 21.000 L 13.521 21.000 13.323 20.606 C 13.074 20.109,12.863 19.510,12.730 18.920 C 12.630 18.473,12.626 18.413,12.610 16.753 C 12.592 14.826,12.595 14.796,12.884 14.207 C 13.071 13.825,13.436 13.411,13.793 13.173 C 14.056 12.998,16.919 11.806,17.434 11.657 C 18.069 11.473,18.950 11.465,19.580 11.639 C 19.734 11.681,20.063 11.796,20.310 11.894 C 20.751 12.068,20.761 12.070,20.780 11.986 C 20.790 11.939,20.835 11.682,20.880 11.416 C 20.982 10.798,20.982 10.355,20.879 9.920 C 20.777 9.490,20.461 8.847,20.211 8.562 C 20.061 8.390,14.243 3.697,13.280 2.972 C 12.981 2.746,12.616 2.571,12.251 2.478 C 11.837 2.372,11.098 2.374,10.685 2.482 M18.100 13.040 C 17.819 13.091,17.716 13.130,16.107 13.788 C 14.517 14.439,14.414 14.500,14.212 14.911 L 14.100 15.140 14.087 16.420 C 14.074 17.799,14.106 18.257,14.259 18.859 C 14.655 20.419,15.829 21.857,17.314 22.598 C 17.745 22.813,18.318 23.000,18.548 23.000 C 18.772 23.000,19.330 22.816,19.768 22.597 C 21.118 21.923,22.186 20.728,22.679 19.340 C 22.957 18.556,22.970 18.453,22.989 16.789 C 23.010 15.014,23.004 14.976,22.663 14.612 C 22.461 14.397,22.450 14.392,21.000 13.797 C 20.197 13.468,19.423 13.162,19.280 13.117 C 18.983 13.025,18.396 12.986,18.100 13.040 " fill="#292D32" stroke="none" fill-rule="evenodd"></path></svg>