<svg width="24" height="24" viewBox="0 0 24 24" fill="none" xmlns="http://www.w3.org/2000/svg"><path d="M11.800 2.287 C 11.245 2.446,11.068 3.118,11.475 3.524 C 11.556 3.605,11.693 3.691,11.781 3.715 C 11.892 3.746,13.042 3.760,15.560 3.760 L 19.180 3.760 15.590 7.350 L 12.001 10.939 9.490 8.434 C 7.073 6.020,6.973 5.927,6.790 5.889 C 6.210 5.769,5.769 6.210,5.889 6.790 C 5.927 6.973,6.020 7.073,8.434 9.490 L 10.939 12.000 6.632 16.310 C 2.720 20.226,2.322 20.636,2.280 20.795 C 2.131 21.366,2.634 21.869,3.205 21.720 C 3.364 21.678,3.774 21.280,7.690 17.368 L 12.000 13.061 14.510 15.566 C 16.934 17.986,17.027 18.073,17.211 18.111 C 17.438 18.158,17.680 18.114,17.847 17.995 C 18.099 17.816,18.204 17.363,18.060 17.075 C 18.023 17.001,16.883 15.828,15.526 14.470 L 13.060 12.000 16.650 8.410 L 20.240 4.820 20.240 8.440 C 20.240 10.958,20.254 12.108,20.285 12.219 C 20.377 12.553,20.773 12.799,21.123 12.739 C 21.329 12.705,21.569 12.525,21.663 12.335 C 21.738 12.185,21.740 12.033,21.740 7.473 L 21.740 2.767 21.619 2.595 C 21.553 2.501,21.436 2.387,21.359 2.342 C 21.221 2.261,21.178 2.260,16.580 2.253 C 13.570 2.249,11.891 2.261,11.800 2.287 " fill="#292D32" stroke="none" fill-rule="evenodd"></path></svg>