<svg width="24" height="24" viewBox="0 0 24 24" fill="none" xmlns="http://www.w3.org/2000/svg"><path d="M10.633 2.040 C 9.704 2.200,8.890 2.762,8.426 3.564 C 8.306 3.771,8.292 3.949,8.381 4.121 C 8.503 4.358,8.447 4.352,11.062 4.371 C 13.083 4.386,13.507 4.399,13.759 4.454 C 14.203 4.551,14.536 4.670,14.960 4.881 C 16.209 5.506,17.084 6.640,17.412 8.060 C 17.492 8.408,17.496 8.555,17.517 12.462 C 17.538 16.098,17.547 16.513,17.605 16.602 C 17.681 16.716,19.772 17.894,20.115 18.015 C 20.452 18.134,20.959 18.129,21.214 18.004 C 21.604 17.813,21.871 17.412,21.958 16.886 C 21.990 16.697,21.999 14.872,21.991 10.600 L 21.979 4.580 21.889 4.287 C 21.556 3.211,20.789 2.442,19.719 2.113 L 19.420 2.022 15.120 2.015 C 12.755 2.011,10.736 2.023,10.633 2.040 M4.520 5.940 C 3.396 6.172,2.539 6.933,2.152 8.042 L 2.020 8.420 2.020 14.620 L 2.020 20.820 2.110 21.080 C 2.238 21.449,2.450 21.712,2.739 21.859 C 2.951 21.968,3.012 21.980,3.337 21.979 C 3.639 21.978,3.743 21.960,3.957 21.871 C 4.098 21.812,5.151 21.242,6.297 20.604 C 7.822 19.754,8.439 19.431,8.599 19.397 C 8.856 19.341,9.408 19.368,9.580 19.444 C 9.646 19.474,10.627 20.013,11.760 20.643 C 12.893 21.272,13.928 21.830,14.060 21.881 C 14.395 22.011,14.939 22.017,15.206 21.894 C 15.438 21.787,15.680 21.548,15.792 21.317 C 16.011 20.862,16.002 21.166,15.991 14.536 L 15.980 8.420 15.848 8.042 C 15.549 7.184,15.011 6.574,14.220 6.195 C 13.562 5.880,13.933 5.902,9.100 5.894 C 5.621 5.888,4.729 5.897,4.520 5.940 " fill="#292D32" stroke="none" fill-rule="evenodd"></path></svg>