<svg width="24" height="24" viewBox="0 0 24 24" fill="none" xmlns="http://www.w3.org/2000/svg"><path d="M10.633 2.040 C 9.715 2.198,8.924 2.733,8.455 3.512 C 8.254 3.845,8.287 4.127,8.548 4.304 C 8.654 4.376,8.790 4.381,11.160 4.401 L 13.660 4.423 14.051 4.529 C 15.654 4.966,16.911 6.222,17.351 7.829 L 17.458 8.220 17.479 12.347 C 17.500 16.437,17.501 16.475,17.582 16.585 C 17.732 16.785,19.875 17.959,20.279 18.063 C 20.925 18.228,21.531 17.977,21.792 17.437 C 22.012 16.981,22.003 17.287,21.991 10.656 L 21.980 4.540 21.848 4.162 C 21.549 3.304,21.011 2.694,20.220 2.315 C 19.563 2.001,19.930 2.022,15.120 2.015 C 12.755 2.011,10.736 2.023,10.633 2.040 M4.540 5.939 C 3.380 6.160,2.475 6.990,2.111 8.167 L 2.021 8.460 2.009 14.480 C 2.001 18.752,2.010 20.577,2.042 20.766 C 2.129 21.292,2.396 21.693,2.786 21.884 C 3.050 22.014,3.550 22.015,3.900 21.887 C 4.031 21.839,5.080 21.276,6.230 20.636 C 7.380 19.996,8.404 19.447,8.507 19.416 C 8.746 19.344,9.254 19.344,9.493 19.416 C 9.596 19.447,10.620 19.996,11.770 20.636 C 12.919 21.276,13.968 21.839,14.100 21.887 C 14.450 22.015,14.950 22.013,15.214 21.884 C 15.604 21.693,15.871 21.292,15.958 20.766 C 15.990 20.577,15.999 18.752,15.991 14.480 L 15.979 8.460 15.887 8.161 C 15.611 7.265,15.034 6.585,14.220 6.195 C 13.563 5.881,13.930 5.902,9.120 5.894 C 5.680 5.888,4.764 5.897,4.540 5.939 M11.302 11.315 C 11.855 11.567,11.906 12.290,11.395 12.628 L 11.226 12.740 9.092 12.751 C 7.680 12.759,6.905 12.748,6.801 12.720 C 6.374 12.605,6.135 12.130,6.302 11.729 C 6.384 11.532,6.506 11.405,6.700 11.316 C 6.849 11.247,7.004 11.242,9.000 11.242 C 10.991 11.242,11.151 11.247,11.302 11.315 " fill="#292D32" stroke="none" fill-rule="evenodd"></path></svg>