<svg width="24" height="24" viewBox="0 0 24 24" fill="none" xmlns="http://www.w3.org/2000/svg"><path d="M6.287 2.043 C 4.400 2.288,2.799 3.639,2.224 5.473 C 2.029 6.093,2.000 6.417,2.001 7.960 C 2.002 9.251,2.008 9.395,2.075 9.542 C 2.335 10.114,3.110 10.151,3.430 9.607 L 3.540 9.420 3.564 7.840 C 3.584 6.505,3.598 6.223,3.657 6.021 C 3.991 4.880,4.882 3.990,6.021 3.657 C 6.223 3.599,6.507 3.584,7.840 3.564 L 9.420 3.540 9.607 3.430 C 10.151 3.110,10.114 2.335,9.542 2.075 C 9.394 2.008,9.258 2.002,7.960 2.006 C 7.179 2.008,6.426 2.025,6.287 2.043 M14.458 2.073 C 13.913 2.328,13.850 3.085,14.349 3.401 L 14.523 3.512 16.052 3.530 C 17.465 3.546,17.604 3.554,17.900 3.635 C 18.871 3.899,19.679 4.554,20.102 5.420 C 20.434 6.099,20.450 6.208,20.470 7.948 L 20.488 9.477 20.599 9.651 C 20.936 10.184,21.779 10.059,21.962 9.449 C 22.035 9.206,21.988 6.347,21.905 5.961 C 21.481 3.995,20.006 2.520,18.039 2.095 C 17.802 2.044,17.419 2.027,16.180 2.014 C 14.717 1.999,14.610 2.003,14.458 2.073 M9.552 6.760 C 8.369 6.905,7.432 7.679,7.039 8.840 C 6.916 9.203,6.876 10.110,6.978 10.212 C 7.041 10.275,7.396 10.280,12.000 10.280 C 16.606 10.280,16.959 10.275,17.022 10.212 C 17.123 10.111,17.084 9.249,16.960 8.860 C 16.638 7.849,15.875 7.116,14.845 6.830 C 14.552 6.748,14.448 6.744,12.180 6.736 C 10.882 6.732,9.700 6.742,9.552 6.760 M5.240 11.304 C 4.939 11.434,4.787 11.668,4.787 12.000 C 4.787 12.337,4.941 12.569,5.249 12.698 C 5.381 12.753,6.131 12.760,12.009 12.759 C 18.379 12.758,18.626 12.756,18.785 12.683 C 19.356 12.424,19.356 11.576,18.785 11.317 C 18.626 11.244,18.381 11.242,12.000 11.242 C 6.176 11.243,5.363 11.250,5.240 11.304 M6.978 13.787 C 6.876 13.890,6.916 14.796,7.039 15.160 C 7.387 16.186,8.110 16.872,9.160 17.172 C 9.452 17.256,9.527 17.258,11.960 17.259 C 14.801 17.260,14.792 17.261,15.432 16.938 C 16.195 16.555,16.699 15.962,16.960 15.140 C 17.060 14.824,17.118 13.909,17.044 13.800 C 17.008 13.747,16.397 13.739,12.025 13.730 C 7.377 13.720,7.042 13.724,6.978 13.787 M2.458 14.073 C 2.262 14.165,2.097 14.352,2.037 14.553 C 1.965 14.794,2.012 17.656,2.095 18.039 C 2.519 20.005,3.995 21.481,5.961 21.905 C 6.347 21.988,9.206 22.035,9.449 21.962 C 10.059 21.779,10.184 20.936,9.651 20.599 L 9.477 20.488 7.948 20.470 C 6.535 20.454,6.396 20.446,6.100 20.365 C 4.886 20.035,3.963 19.112,3.635 17.900 C 3.556 17.607,3.547 17.448,3.524 16.040 C 3.502 14.600,3.495 14.491,3.421 14.369 C 3.231 14.055,2.787 13.918,2.458 14.073 M20.985 14.977 C 20.780 15.053,20.567 15.264,20.520 15.439 C 20.499 15.516,20.475 16.030,20.466 16.580 C 20.447 17.734,20.405 17.969,20.103 18.580 C 19.673 19.451,18.864 20.106,17.900 20.364 C 17.623 20.438,17.437 20.452,16.520 20.468 C 15.493 20.487,15.455 20.491,15.294 20.583 C 15.114 20.687,14.920 21.006,14.920 21.198 C 14.921 21.523,15.127 21.830,15.420 21.942 C 15.575 22.001,15.726 22.007,16.668 21.988 C 17.418 21.973,17.830 21.948,18.039 21.904 C 19.033 21.694,19.916 21.207,20.613 20.482 C 21.278 19.792,21.696 19.001,21.905 18.040 C 21.966 17.755,21.979 17.517,21.979 16.574 L 21.980 15.447 21.860 15.277 C 21.658 14.991,21.290 14.865,20.985 14.977 " fill="#292D32" stroke="none" fill-rule="evenodd"></path></svg>