<svg width="24" height="24" viewBox="0 0 24 24" fill="none" xmlns="http://www.w3.org/2000/svg"><path d="M6.000 1.279 C 5.123 1.367,4.333 1.650,3.600 2.138 C 2.599 2.804,1.889 3.738,1.506 4.892 C 1.276 5.582,1.260 5.756,1.260 7.560 L 1.260 9.220 1.355 9.373 C 1.661 9.866,2.339 9.866,2.645 9.373 L 2.740 9.220 2.763 7.540 C 2.783 5.989,2.792 5.836,2.870 5.552 C 3.233 4.242,4.242 3.233,5.552 2.870 C 5.836 2.792,5.989 2.783,7.543 2.763 L 9.226 2.740 9.388 2.633 C 9.627 2.475,9.739 2.270,9.739 1.993 C 9.739 1.804,9.718 1.736,9.619 1.596 C 9.554 1.503,9.428 1.390,9.340 1.344 C 9.187 1.264,9.117 1.260,7.740 1.255 C 6.948 1.252,6.165 1.263,6.000 1.279 M14.807 1.285 C 14.170 1.435,14.076 2.370,14.668 2.664 C 14.807 2.734,14.959 2.742,16.500 2.762 L 18.180 2.785 18.532 2.893 C 19.802 3.283,20.717 4.198,21.107 5.468 L 21.215 5.820 21.238 7.500 C 21.258 9.041,21.266 9.193,21.336 9.332 C 21.594 9.852,22.354 9.867,22.640 9.358 L 22.740 9.180 22.739 7.580 C 22.738 5.843,22.717 5.613,22.497 4.919 C 21.998 3.337,20.723 2.043,19.151 1.523 C 18.452 1.292,18.258 1.272,16.560 1.258 C 15.575 1.249,14.915 1.260,14.807 1.285 M6.600 5.286 C 6.272 5.333,5.897 5.506,5.701 5.701 C 5.495 5.908,5.334 6.274,5.282 6.653 C 5.228 7.058,5.228 8.942,5.282 9.347 C 5.391 10.151,5.849 10.609,6.653 10.718 C 6.825 10.741,7.431 10.760,8.000 10.760 C 9.188 10.760,9.560 10.721,9.904 10.563 C 10.366 10.349,10.637 9.945,10.718 9.347 C 10.741 9.175,10.760 8.569,10.760 8.000 C 10.760 7.431,10.741 6.825,10.718 6.653 C 10.609 5.849,10.151 5.391,9.347 5.282 C 8.973 5.232,6.968 5.235,6.600 5.286 M14.600 5.286 C 14.272 5.333,13.897 5.506,13.701 5.701 C 13.495 5.908,13.334 6.274,13.282 6.653 C 13.259 6.825,13.240 7.431,13.240 8.000 C 13.240 9.188,13.279 9.560,13.437 9.904 C 13.651 10.366,14.055 10.637,14.653 10.718 C 14.825 10.741,15.431 10.760,16.000 10.760 C 16.569 10.760,17.175 10.741,17.347 10.718 C 17.945 10.637,18.349 10.366,18.563 9.904 C 18.721 9.560,18.760 9.188,18.760 8.000 C 18.760 7.431,18.741 6.825,18.718 6.653 C 18.609 5.849,18.151 5.391,17.347 5.282 C 16.973 5.232,14.968 5.235,14.600 5.286 M6.600 13.286 C 6.272 13.333,5.897 13.506,5.701 13.701 C 5.495 13.908,5.334 14.274,5.282 14.653 C 5.228 15.058,5.228 16.942,5.282 17.347 C 5.363 17.945,5.634 18.349,6.096 18.563 C 6.440 18.721,6.812 18.760,8.000 18.760 C 8.569 18.760,9.175 18.741,9.347 18.718 C 10.151 18.609,10.609 18.151,10.718 17.347 C 10.741 17.175,10.760 16.569,10.760 16.000 C 10.760 14.812,10.721 14.440,10.563 14.096 C 10.349 13.634,9.945 13.363,9.347 13.282 C 8.973 13.232,6.968 13.235,6.600 13.286 M14.600 13.286 C 14.272 13.333,13.897 13.506,13.701 13.701 C 13.495 13.908,13.334 14.274,13.282 14.653 C 13.259 14.825,13.240 15.431,13.240 16.000 C 13.240 17.188,13.279 17.560,13.437 17.904 C 13.651 18.366,14.055 18.637,14.653 18.718 C 14.825 18.741,15.431 18.760,16.000 18.760 C 16.569 18.760,17.175 18.741,17.347 18.718 C 17.945 18.637,18.349 18.366,18.563 17.904 C 18.721 17.560,18.760 17.188,18.760 16.000 C 18.760 14.812,18.721 14.440,18.563 14.096 C 18.349 13.634,17.945 13.363,17.347 13.282 C 16.973 13.232,14.968 13.235,14.600 13.286 M1.807 14.288 C 1.692 14.313,1.583 14.377,1.481 14.479 C 1.242 14.718,1.228 14.846,1.251 16.618 C 1.273 18.247,1.296 18.465,1.523 19.151 C 2.043 20.723,3.337 21.998,4.919 22.497 C 5.617 22.718,5.843 22.738,7.580 22.739 L 9.180 22.740 9.359 22.639 C 9.896 22.339,9.838 21.551,9.260 21.298 C 9.216 21.279,8.424 21.252,7.500 21.239 C 5.821 21.215,5.820 21.215,5.468 21.107 C 4.198 20.717,3.283 19.802,2.893 18.532 L 2.785 18.180 2.762 16.500 C 2.741 14.861,2.738 14.816,2.651 14.653 C 2.523 14.415,2.388 14.328,2.040 14.261 C 2.007 14.255,1.902 14.267,1.807 14.288 M21.823 15.285 C 21.615 15.333,21.429 15.480,21.336 15.668 C 21.270 15.802,21.259 15.959,21.237 17.000 C 21.214 18.127,21.208 18.196,21.106 18.532 C 20.722 19.798,19.798 20.722,18.532 21.106 C 18.196 21.208,18.127 21.214,17.000 21.237 C 15.959 21.259,15.802 21.270,15.668 21.336 C 15.226 21.554,15.129 22.169,15.481 22.521 C 15.707 22.747,15.897 22.774,17.080 22.749 C 18.127 22.727,18.504 22.679,19.082 22.497 C 20.687 21.990,21.989 20.691,22.494 19.090 C 22.704 18.426,22.736 18.147,22.738 16.940 C 22.740 15.856,22.737 15.815,22.651 15.653 C 22.523 15.415,22.391 15.330,22.040 15.261 C 22.007 15.254,21.909 15.265,21.823 15.285 " fill="#292D32" stroke="none" fill-rule="evenodd"></path></svg>