<svg width="24" height="24" viewBox="0 0 24 24" fill="none" xmlns="http://www.w3.org/2000/svg"><path d="M6.000 1.279 C 5.123 1.367,4.333 1.650,3.600 2.138 C 2.599 2.804,1.889 3.738,1.506 4.892 C 1.276 5.582,1.260 5.756,1.260 7.560 L 1.260 9.220 1.355 9.373 C 1.661 9.866,2.339 9.866,2.645 9.373 L 2.740 9.220 2.763 7.540 C 2.783 5.989,2.792 5.836,2.870 5.552 C 3.233 4.242,4.242 3.233,5.552 2.870 C 5.836 2.792,5.989 2.783,7.543 2.763 L 9.226 2.740 9.388 2.633 C 9.627 2.475,9.739 2.270,9.739 1.993 C 9.739 1.804,9.718 1.736,9.619 1.596 C 9.554 1.503,9.428 1.390,9.340 1.344 C 9.187 1.264,9.117 1.260,7.740 1.255 C 6.948 1.252,6.165 1.263,6.000 1.279 M14.807 1.285 C 14.170 1.435,14.076 2.370,14.668 2.664 C 14.807 2.734,14.959 2.742,16.500 2.762 L 18.180 2.785 18.532 2.893 C 19.802 3.283,20.717 4.198,21.107 5.468 L 21.215 5.820 21.238 7.500 C 21.258 9.041,21.266 9.193,21.336 9.332 C 21.594 9.852,22.354 9.867,22.640 9.358 L 22.740 9.180 22.739 7.580 C 22.738 5.843,22.717 5.613,22.497 4.919 C 21.998 3.337,20.723 2.043,19.151 1.523 C 18.452 1.292,18.258 1.272,16.560 1.258 C 15.575 1.249,14.915 1.260,14.807 1.285 M7.842 5.702 C 7.700 5.733,7.412 5.843,7.202 5.947 C 6.886 6.103,6.761 6.195,6.478 6.478 C 5.914 7.042,5.641 7.700,5.641 8.500 C 5.641 8.992,5.726 9.350,5.948 9.799 C 6.103 10.114,6.195 10.239,6.478 10.521 C 7.048 11.090,7.696 11.359,8.500 11.359 C 8.995 11.359,9.353 11.275,9.800 11.054 C 10.114 10.899,10.239 10.807,10.523 10.523 C 11.089 9.957,11.359 9.305,11.359 8.500 C 11.359 8.001,11.275 7.645,11.053 7.200 C 10.897 6.889,10.801 6.758,10.521 6.478 C 9.951 5.907,9.294 5.639,8.480 5.644 C 8.271 5.645,7.984 5.672,7.842 5.702 M16.025 5.682 C 15.533 5.805,15.063 6.201,14.817 6.698 C 14.661 7.015,14.660 7.018,14.660 7.498 C 14.660 7.972,14.663 7.985,14.809 8.291 C 15.006 8.705,15.295 8.994,15.709 9.191 C 16.014 9.337,16.029 9.340,16.500 9.340 C 16.971 9.340,16.986 9.337,17.291 9.191 C 17.705 8.994,17.994 8.705,18.191 8.291 C 18.337 7.986,18.340 7.971,18.340 7.500 C 18.340 7.029,18.337 7.014,18.191 6.709 C 17.994 6.296,17.704 6.006,17.296 5.812 C 17.016 5.679,16.956 5.665,16.585 5.655 C 16.362 5.648,16.110 5.661,16.025 5.682 M14.842 12.702 C 14.700 12.733,14.412 12.843,14.202 12.947 C 13.886 13.103,13.761 13.195,13.478 13.478 C 12.914 14.042,12.641 14.700,12.641 15.500 C 12.641 15.992,12.726 16.350,12.948 16.799 C 13.103 17.114,13.195 17.239,13.478 17.521 C 14.048 18.090,14.696 18.359,15.500 18.359 C 15.995 18.359,16.353 18.275,16.800 18.054 C 17.114 17.899,17.239 17.807,17.523 17.523 C 18.089 16.957,18.359 16.305,18.359 15.500 C 18.359 15.001,18.275 14.645,18.053 14.200 C 17.897 13.889,17.801 13.758,17.521 13.478 C 16.951 12.907,16.294 12.639,15.480 12.644 C 15.271 12.645,14.984 12.672,14.842 12.702 M1.807 14.288 C 1.692 14.313,1.583 14.377,1.481 14.479 C 1.242 14.718,1.228 14.846,1.251 16.618 C 1.273 18.247,1.296 18.465,1.523 19.151 C 2.043 20.723,3.337 21.998,4.919 22.497 C 5.617 22.718,5.843 22.738,7.580 22.739 L 9.180 22.740 9.359 22.639 C 9.896 22.339,9.838 21.551,9.260 21.298 C 9.216 21.279,8.424 21.252,7.500 21.239 C 5.821 21.215,5.820 21.215,5.468 21.107 C 4.198 20.717,3.283 19.802,2.893 18.532 L 2.785 18.180 2.762 16.500 C 2.741 14.861,2.738 14.816,2.651 14.653 C 2.523 14.415,2.388 14.328,2.040 14.261 C 2.007 14.255,1.902 14.267,1.807 14.288 M7.025 14.682 C 6.533 14.805,6.063 15.201,5.817 15.698 C 5.661 16.015,5.660 16.018,5.660 16.498 C 5.660 16.972,5.663 16.985,5.809 17.291 C 6.006 17.705,6.295 17.994,6.709 18.191 C 7.014 18.337,7.029 18.340,7.500 18.340 C 7.971 18.340,7.986 18.337,8.291 18.191 C 8.498 18.093,8.677 17.969,8.823 17.823 C 8.969 17.677,9.093 17.498,9.191 17.291 C 9.337 16.986,9.340 16.971,9.340 16.500 C 9.340 16.029,9.337 16.014,9.191 15.709 C 8.994 15.296,8.704 15.006,8.296 14.812 C 8.016 14.679,7.956 14.665,7.585 14.655 C 7.362 14.648,7.110 14.661,7.025 14.682 M21.823 15.285 C 21.615 15.333,21.429 15.480,21.336 15.668 C 21.270 15.802,21.259 15.959,21.237 17.000 C 21.214 18.127,21.208 18.196,21.106 18.532 C 20.722 19.798,19.798 20.722,18.532 21.106 C 18.196 21.208,18.127 21.214,17.000 21.237 C 15.959 21.259,15.802 21.270,15.668 21.336 C 15.226 21.554,15.129 22.169,15.481 22.521 C 15.707 22.747,15.897 22.774,17.080 22.749 C 18.127 22.727,18.504 22.679,19.082 22.497 C 20.687 21.990,21.989 20.691,22.494 19.090 C 22.704 18.426,22.736 18.147,22.738 16.940 C 22.740 15.856,22.737 15.815,22.651 15.653 C 22.523 15.415,22.391 15.330,22.040 15.261 C 22.007 15.254,21.909 15.265,21.823 15.285 " fill="#292D32" stroke="none" fill-rule="evenodd"></path></svg>