<svg width="24" height="24" viewBox="0 0 24 24" fill="none" xmlns="http://www.w3.org/2000/svg"><path d="M6.388 1.284 C 3.799 1.497,1.936 3.092,1.398 5.557 C 1.272 6.137,1.234 6.757,1.247 8.020 C 1.260 9.203,1.261 9.222,1.355 9.373 C 1.661 9.866,2.339 9.866,2.645 9.373 C 2.739 9.221,2.740 9.210,2.764 7.700 C 2.788 6.228,2.792 6.167,2.895 5.760 C 3.032 5.218,3.362 4.545,3.671 4.177 C 4.197 3.551,4.930 3.104,5.780 2.891 L 6.220 2.780 12.000 2.780 L 17.780 2.780 18.215 2.890 C 19.780 3.288,20.775 4.318,21.142 5.920 C 21.197 6.162,21.215 6.513,21.235 7.723 L 21.260 9.226 21.367 9.388 C 21.682 9.864,22.318 9.864,22.633 9.388 L 22.740 9.226 22.753 8.023 C 22.770 6.396,22.699 5.727,22.420 4.897 C 21.881 3.287,20.673 2.092,19.051 1.563 C 18.587 1.412,18.152 1.331,17.540 1.281 C 16.963 1.233,6.964 1.236,6.388 1.284 M8.117 5.054 C 7.704 5.167,7.320 5.500,7.126 5.913 L 7.020 6.140 7.007 7.367 C 6.993 8.729,7.000 8.768,7.252 8.922 C 7.377 8.998,7.488 9.000,12.000 9.000 C 16.512 9.000,16.623 8.998,16.748 8.922 C 17.001 8.768,17.007 8.729,16.993 7.366 L 16.980 6.138 16.850 5.875 C 16.694 5.558,16.408 5.277,16.089 5.127 L 15.860 5.020 12.080 5.012 C 9.169 5.006,8.258 5.016,8.117 5.054 M1.807 11.287 C 1.568 11.341,1.341 11.572,1.289 11.816 C 1.196 12.250,1.432 12.631,1.846 12.717 C 2.000 12.749,4.901 12.758,12.120 12.751 L 22.180 12.740 22.359 12.639 C 22.702 12.448,22.829 12.010,22.646 11.651 C 22.544 11.452,22.391 11.337,22.156 11.283 C 21.920 11.228,2.051 11.233,1.807 11.287 M1.807 14.288 C 1.546 14.345,1.340 14.571,1.279 14.866 C 1.220 15.149,1.250 17.542,1.317 17.980 C 1.724 20.610,3.431 22.300,6.070 22.689 C 6.579 22.763,17.421 22.763,17.930 22.689 C 20.588 22.297,22.305 20.580,22.687 17.930 C 22.720 17.703,22.738 17.094,22.739 16.200 C 22.740 14.849,22.738 14.817,22.651 14.653 C 22.372 14.132,21.597 14.140,21.336 14.668 C 21.267 14.806,21.258 14.961,21.236 16.340 C 21.213 17.810,21.209 17.873,21.109 18.250 C 20.900 19.031,20.609 19.549,20.079 20.079 C 19.552 20.606,19.043 20.893,18.250 21.112 L 17.860 21.220 12.000 21.220 L 6.140 21.220 5.750 21.112 C 4.956 20.893,4.444 20.604,3.920 20.080 C 3.392 19.552,3.100 19.031,2.891 18.250 C 2.791 17.873,2.787 17.810,2.763 16.340 C 2.740 14.872,2.736 14.814,2.650 14.653 C 2.524 14.415,2.388 14.328,2.040 14.261 C 2.007 14.255,1.902 14.267,1.807 14.288 M7.252 15.078 C 7.000 15.232,6.993 15.271,7.007 16.633 L 7.020 17.860 7.127 18.089 C 7.277 18.408,7.558 18.694,7.875 18.850 L 8.138 18.980 11.859 18.993 C 14.584 19.002,15.639 18.993,15.800 18.958 C 16.260 18.861,16.665 18.532,16.873 18.089 L 16.980 17.860 16.993 16.633 C 17.007 15.271,17.000 15.232,16.748 15.078 C 16.623 15.002,16.512 15.000,12.000 15.000 C 7.488 15.000,7.377 15.002,7.252 15.078 " fill="#292D32" stroke="none" fill-rule="evenodd"></path></svg>