<svg width="24" height="24" viewBox="0 0 24 24" fill="none" xmlns="http://www.w3.org/2000/svg"><path d="M4.875 3.062 C 3.568 3.299,2.533 4.237,2.133 5.548 C 2.038 5.863,2.026 5.963,2.026 6.500 C 2.026 7.037,2.038 7.137,2.133 7.452 C 2.501 8.656,3.344 9.499,4.548 9.867 C 4.863 9.962,4.963 9.974,5.500 9.974 C 6.037 9.974,6.137 9.962,6.452 9.867 C 7.095 9.671,7.586 9.371,8.035 8.903 L 8.289 8.638 10.501 10.289 C 11.718 11.197,12.714 11.958,12.714 11.980 C 12.715 12.015,8.371 15.281,8.282 15.312 C 8.263 15.319,8.160 15.231,8.054 15.116 C 7.626 14.657,7.002 14.284,6.378 14.114 C 5.931 13.992,5.075 13.991,4.636 14.111 C 3.391 14.451,2.451 15.388,2.114 16.622 C 1.992 17.069,1.991 17.925,2.111 18.364 C 2.451 19.609,3.388 20.549,4.622 20.886 C 5.076 21.009,5.924 21.009,6.378 20.886 C 7.640 20.542,8.620 19.532,8.907 18.280 C 8.981 17.959,9.002 17.285,8.949 16.930 L 8.917 16.721 11.458 14.818 L 13.998 12.915 17.795 15.758 C 19.884 17.322,21.657 18.628,21.735 18.660 C 22.139 18.829,22.597 18.585,22.715 18.140 C 22.762 17.959,22.728 17.754,22.619 17.569 C 22.574 17.492,21.196 16.438,18.916 14.733 C 16.918 13.241,15.285 12.002,15.285 11.980 C 15.285 11.958,16.914 10.725,18.906 9.240 C 20.898 7.755,22.561 6.493,22.602 6.436 C 22.643 6.379,22.695 6.253,22.716 6.156 C 22.836 5.625,22.351 5.150,21.825 5.283 C 21.689 5.317,20.806 5.959,17.835 8.183 C 15.737 9.754,14.004 11.034,13.984 11.028 C 13.964 11.021,12.818 10.171,11.436 9.138 L 8.924 7.260 8.952 7.100 C 8.967 7.012,8.978 6.706,8.975 6.420 C 8.971 5.983,8.954 5.844,8.865 5.548 C 8.668 4.890,8.362 4.396,7.868 3.936 C 7.071 3.193,5.954 2.867,4.875 3.062 " fill="#292D32" stroke="none" fill-rule="evenodd"></path></svg>