<svg width="24" height="24" viewBox="0 0 24 24" fill="none" xmlns="http://www.w3.org/2000/svg"><path d="M6.960 2.046 C 6.236 2.116,5.358 2.357,4.796 2.641 C 4.426 2.828,3.928 3.183,3.624 3.475 C 2.737 4.332,2.251 5.370,2.062 6.812 C 1.970 7.515,1.969 16.481,2.061 17.188 C 2.239 18.550,2.681 19.544,3.476 20.372 C 4.162 21.084,4.935 21.524,5.956 21.780 C 6.817 21.997,6.896 22.000,11.993 22.000 C 14.960 22.000,16.828 21.985,17.041 21.959 C 19.985 21.603,21.695 19.840,21.962 16.885 C 21.990 16.579,21.999 14.787,21.989 11.660 C 21.974 7.001,21.972 6.891,21.889 6.456 C 21.642 5.171,21.165 4.235,20.369 3.478 C 19.583 2.729,18.652 2.295,17.359 2.076 C 16.995 2.014,7.572 1.987,6.960 2.046 M8.756 6.741 C 9.380 6.889,9.978 7.360,10.256 7.925 C 10.428 8.274,10.533 8.736,10.510 9.034 L 10.493 9.249 11.688 10.146 C 12.405 10.684,12.901 11.031,12.930 11.014 C 12.955 10.998,13.867 10.321,14.956 9.509 C 16.044 8.697,16.978 8.016,17.030 7.996 C 17.323 7.885,17.735 8.023,17.913 8.292 C 18.055 8.507,18.064 8.868,17.932 9.081 C 17.873 9.176,17.242 9.672,16.002 10.600 C 14.989 11.357,14.161 11.987,14.162 11.999 C 14.164 12.010,14.993 12.632,16.005 13.380 C 18.028 14.875,18.040 14.886,18.040 15.275 C 18.040 15.779,17.600 16.129,17.128 16.002 C 17.011 15.971,16.368 15.514,14.934 14.444 L 12.906 12.930 11.713 13.825 L 10.520 14.721 10.519 15.011 C 10.518 15.654,10.300 16.179,9.840 16.644 C 9.385 17.105,8.872 17.320,8.227 17.320 C 7.463 17.320,6.772 16.957,6.345 16.331 C 5.595 15.230,5.919 13.745,7.060 13.061 C 7.856 12.584,8.922 12.652,9.630 13.227 C 9.733 13.311,9.819 13.353,9.850 13.335 C 10.100 13.184,11.640 11.985,11.614 11.961 C 11.501 11.858,9.832 10.640,9.804 10.640 C 9.785 10.640,9.745 10.670,9.715 10.707 C 9.611 10.833,9.245 11.039,8.933 11.147 C 8.498 11.298,7.917 11.298,7.494 11.149 C 6.791 10.900,6.263 10.365,6.036 9.673 C 5.911 9.292,5.902 8.657,6.015 8.320 C 6.284 7.526,6.912 6.926,7.666 6.743 C 7.977 6.668,8.441 6.667,8.756 6.741 " fill="#292D32" stroke="none" fill-rule="evenodd"></path></svg>