<svg width="24" height="24" viewBox="0 0 24 24" fill="none" xmlns="http://www.w3.org/2000/svg"><path d="M6.960 2.046 C 6.236 2.116,5.358 2.357,4.796 2.641 C 4.426 2.828,3.928 3.183,3.624 3.475 C 2.737 4.332,2.251 5.370,2.062 6.812 C 1.970 7.515,1.969 16.481,2.061 17.188 C 2.239 18.550,2.681 19.544,3.476 20.372 C 4.162 21.084,4.935 21.524,5.956 21.780 C 6.817 21.997,6.896 22.000,11.993 22.000 C 14.960 22.000,16.828 21.985,17.041 21.959 C 19.985 21.603,21.695 19.840,21.962 16.885 C 21.990 16.579,21.999 14.787,21.989 11.660 C 21.974 7.001,21.972 6.891,21.889 6.456 C 21.642 5.171,21.165 4.235,20.369 3.478 C 19.583 2.729,18.652 2.295,17.359 2.076 C 16.995 2.014,7.572 1.987,6.960 2.046 M17.165 12.578 C 17.682 12.687,18.026 12.925,18.236 13.318 C 18.455 13.730,18.479 13.941,18.479 15.500 C 18.479 17.019,18.455 17.256,18.263 17.634 C 18.047 18.059,17.787 18.260,17.257 18.409 C 16.946 18.496,16.897 18.498,14.520 18.499 C 11.919 18.500,11.859 18.496,11.379 18.284 C 10.988 18.111,10.690 17.694,10.578 17.165 C 10.497 16.783,10.497 14.213,10.579 13.830 C 10.727 13.128,11.120 12.731,11.814 12.580 C 12.182 12.500,16.790 12.498,17.165 12.578 " fill="#292D32" stroke="none" fill-rule="evenodd"></path></svg>