<svg width="24" height="24" viewBox="0 0 24 24" fill="none" xmlns="http://www.w3.org/2000/svg"><path d="M10.140 2.042 C 7.431 2.320,5.015 3.772,3.508 6.028 C 0.494 10.539,2.172 16.717,7.060 19.103 C 8.308 19.712,9.585 20.005,11.000 20.007 C 14.413 20.011,17.466 18.146,19.038 15.096 C 19.976 13.277,20.252 11.079,19.801 9.040 C 19.520 7.772,18.879 6.435,18.049 5.383 C 17.717 4.962,16.912 4.179,16.480 3.856 C 15.216 2.911,13.840 2.331,12.320 2.101 C 11.807 2.024,10.629 1.992,10.140 2.042 M19.660 18.028 C 19.247 18.083,18.684 18.378,18.446 18.664 C 17.971 19.236,17.883 20.011,18.199 20.832 C 18.441 21.459,18.804 21.899,19.271 22.129 C 19.515 22.249,19.569 22.260,19.899 22.257 C 20.300 22.255,20.541 22.179,20.875 21.951 C 21.412 21.584,21.986 20.740,22.115 20.128 C 22.335 19.088,21.732 18.258,20.611 18.058 C 20.316 18.006,19.923 17.993,19.660 18.028 " fill="#292D32" stroke="none" fill-rule="evenodd"></path></svg>