<svg width="24" height="24" viewBox="0 0 24 24" fill="none" xmlns="http://www.w3.org/2000/svg"><path d="M10.140 2.042 C 7.983 2.264,6.051 3.204,4.538 4.768 C 3.099 6.254,2.244 8.099,2.041 10.154 C 1.825 12.340,2.468 14.624,3.798 16.401 C 5.249 18.339,7.384 19.591,9.840 19.945 C 10.476 20.037,11.608 20.027,12.302 19.924 C 13.642 19.725,14.915 19.233,16.019 18.488 C 16.568 18.118,16.755 17.965,17.274 17.462 C 18.464 16.306,19.265 14.956,19.703 13.362 C 20.078 12.001,20.113 10.451,19.801 9.040 C 19.435 7.389,18.471 5.674,17.268 4.532 C 15.890 3.224,14.173 2.381,12.320 2.101 C 11.807 2.024,10.629 1.992,10.140 2.042 M13.836 10.340 C 13.910 10.384,14.027 10.489,14.096 10.574 C 14.208 10.712,14.220 10.755,14.220 11.000 C 14.220 11.244,14.207 11.289,14.098 11.426 C 14.030 11.511,13.896 11.620,13.799 11.670 L 13.623 11.760 11.000 11.760 L 8.377 11.760 8.201 11.670 C 8.104 11.620,7.970 11.511,7.902 11.426 C 7.793 11.289,7.780 11.243,7.780 11.003 C 7.780 10.769,7.795 10.714,7.893 10.586 C 8.026 10.411,8.154 10.321,8.331 10.278 C 8.402 10.261,9.639 10.250,11.080 10.253 C 13.622 10.260,13.704 10.262,13.836 10.340 M19.660 18.028 C 19.247 18.083,18.684 18.378,18.446 18.664 C 17.971 19.236,17.883 20.011,18.199 20.832 C 18.441 21.459,18.804 21.899,19.271 22.129 C 19.515 22.249,19.569 22.260,19.899 22.257 C 20.300 22.255,20.541 22.179,20.875 21.951 C 21.412 21.584,21.986 20.740,22.115 20.128 C 22.335 19.088,21.732 18.258,20.611 18.058 C 20.316 18.006,19.923 17.993,19.660 18.028 " fill="#292D32" stroke="none" fill-rule="evenodd"></path></svg>