<svg width="24" height="24" viewBox="0 0 24 24" fill="none" xmlns="http://www.w3.org/2000/svg"><path d="M10.640 2.041 C 8.430 2.271,6.470 3.172,4.905 4.678 C 3.629 5.906,2.672 7.583,2.267 9.300 C 2.077 10.107,2.023 10.593,2.023 11.500 C 2.023 13.050,2.310 14.298,2.979 15.665 C 3.920 17.586,5.414 19.078,7.340 20.023 C 8.700 20.690,9.951 20.977,11.500 20.977 C 13.049 20.977,14.300 20.690,15.660 20.023 C 17.586 19.078,19.080 17.586,20.021 15.665 C 20.690 14.298,20.977 13.050,20.977 11.500 C 20.977 9.950,20.690 8.702,20.021 7.335 C 19.080 5.414,17.586 3.922,15.660 2.977 C 14.750 2.531,13.860 2.254,12.840 2.101 C 12.336 2.025,11.112 1.991,10.640 2.041 M10.886 8.880 C 11.026 8.924,11.219 9.005,11.317 9.061 L 11.493 9.163 11.757 9.026 C 12.115 8.841,12.379 8.785,12.795 8.809 C 13.323 8.840,13.688 9.006,14.084 9.397 C 14.579 9.887,14.800 10.443,14.800 11.200 C 14.800 12.102,14.427 12.893,13.646 13.649 C 13.212 14.069,12.841 14.330,12.352 14.559 C 11.717 14.856,11.381 14.871,10.785 14.628 C 9.833 14.240,8.972 13.455,8.539 12.580 C 7.964 11.418,8.120 10.140,8.931 9.375 C 9.479 8.858,10.219 8.671,10.886 8.880 M19.127 18.827 C 18.837 18.970,18.687 19.358,18.796 19.688 C 18.828 19.784,19.156 20.138,19.911 20.889 C 20.933 21.906,20.988 21.954,21.163 21.980 C 21.410 22.017,21.637 21.948,21.789 21.791 C 21.992 21.580,22.054 21.311,21.958 21.053 C 21.902 20.903,19.896 18.888,19.731 18.816 C 19.560 18.742,19.291 18.747,19.127 18.827 " fill="#292D32" stroke="none" fill-rule="evenodd"></path></svg>