<svg width="24" height="24" viewBox="0 0 24 24" fill="none" xmlns="http://www.w3.org/2000/svg"><path d="M10.640 2.041 C 8.430 2.271,6.470 3.172,4.905 4.678 C 3.629 5.906,2.672 7.583,2.267 9.300 C 2.077 10.107,2.023 10.593,2.023 11.500 C 2.023 13.050,2.310 14.298,2.979 15.665 C 3.920 17.586,5.414 19.078,7.340 20.023 C 8.700 20.690,9.951 20.977,11.500 20.977 C 13.049 20.977,14.300 20.690,15.660 20.023 C 17.586 19.078,19.080 17.586,20.021 15.665 C 20.690 14.298,20.977 13.050,20.977 11.500 C 20.977 9.950,20.690 8.702,20.021 7.335 C 19.080 5.414,17.586 3.922,15.660 2.977 C 14.750 2.531,13.860 2.254,12.840 2.101 C 12.336 2.025,11.112 1.991,10.640 2.041 M11.951 8.502 C 12.108 8.568,12.296 8.727,12.373 8.860 C 12.404 8.912,12.427 9.287,12.440 9.940 L 12.460 10.940 13.460 10.960 C 14.113 10.973,14.488 10.996,14.540 11.027 C 14.756 11.152,14.960 11.480,14.960 11.700 C 14.960 11.920,14.756 12.248,14.540 12.373 C 14.488 12.404,14.113 12.427,13.460 12.440 L 12.460 12.460 12.440 13.460 C 12.427 14.113,12.404 14.488,12.373 14.540 C 12.248 14.756,11.920 14.960,11.700 14.960 C 11.480 14.960,11.152 14.756,11.027 14.540 C 10.996 14.488,10.973 14.113,10.960 13.460 L 10.940 12.460 9.940 12.440 C 9.287 12.427,8.912 12.404,8.860 12.373 C 8.644 12.248,8.440 11.920,8.440 11.700 C 8.440 11.480,8.644 11.152,8.860 11.027 C 8.912 10.996,9.287 10.973,9.940 10.960 L 10.940 10.940 10.960 9.940 C 10.981 8.885,10.985 8.864,11.187 8.672 C 11.418 8.452,11.688 8.392,11.951 8.502 M19.127 18.827 C 18.837 18.970,18.687 19.358,18.796 19.688 C 18.828 19.784,19.156 20.138,19.911 20.889 C 20.933 21.906,20.988 21.954,21.163 21.980 C 21.410 22.017,21.637 21.948,21.789 21.791 C 21.992 21.580,22.054 21.311,21.958 21.053 C 21.902 20.903,19.896 18.888,19.731 18.816 C 19.560 18.742,19.291 18.747,19.127 18.827 " fill="#292D32" stroke="none" fill-rule="evenodd"></path></svg>