<svg width="24" height="24" viewBox="0 0 24 24" fill="none" xmlns="http://www.w3.org/2000/svg"><path d="M10.840 2.023 C 10.763 2.032,10.529 2.059,10.320 2.083 C 8.265 2.317,6.177 3.358,4.699 4.885 C 3.278 6.352,2.442 8.040,2.094 10.140 C 1.992 10.757,1.992 12.235,2.095 12.860 C 2.380 14.601,3.025 16.089,4.065 17.410 C 4.359 17.783,5.217 18.641,5.590 18.935 C 6.918 19.981,8.441 20.638,10.160 20.906 C 10.802 21.006,12.198 21.006,12.840 20.906 C 14.559 20.638,16.082 19.981,17.410 18.935 C 17.783 18.641,18.641 17.783,18.935 17.410 C 19.981 16.082,20.638 14.559,20.906 12.840 C 20.959 12.501,20.978 12.149,20.978 11.500 C 20.978 10.589,20.927 10.099,20.758 9.371 C 19.867 5.547,16.725 2.668,12.820 2.097 C 12.429 2.040,11.118 1.991,10.840 2.023 M14.836 9.340 C 14.910 9.384,15.027 9.489,15.096 9.574 C 15.208 9.712,15.220 9.755,15.220 10.000 C 15.220 10.244,15.207 10.289,15.098 10.426 C 15.030 10.511,14.896 10.620,14.799 10.670 L 14.623 10.760 11.500 10.760 L 8.377 10.760 8.201 10.670 C 8.104 10.620,7.970 10.511,7.902 10.426 C 7.793 10.289,7.780 10.243,7.780 10.003 C 7.780 9.769,7.795 9.714,7.893 9.586 C 8.026 9.411,8.155 9.321,8.331 9.278 C 8.402 9.261,9.864 9.250,11.580 9.254 C 14.622 9.260,14.703 9.262,14.836 9.340 M11.836 12.340 C 11.910 12.384,12.027 12.489,12.096 12.574 C 12.208 12.712,12.220 12.755,12.220 13.000 C 12.220 13.244,12.207 13.289,12.098 13.426 C 12.030 13.511,11.896 13.620,11.799 13.670 C 11.625 13.759,11.604 13.760,10.000 13.760 C 8.396 13.760,8.375 13.759,8.201 13.670 C 8.104 13.620,7.970 13.511,7.902 13.426 C 7.793 13.289,7.780 13.243,7.780 13.003 C 7.780 12.769,7.795 12.714,7.893 12.586 C 8.026 12.412,8.154 12.321,8.331 12.278 C 8.402 12.260,9.189 12.249,10.080 12.253 C 11.621 12.260,11.707 12.264,11.836 12.340 M19.101 18.851 C 18.818 19.012,18.684 19.394,18.802 19.707 C 18.865 19.874,20.825 21.832,21.020 21.924 C 21.222 22.018,21.376 22.018,21.585 21.923 C 21.883 21.788,22.035 21.489,21.979 21.149 C 21.953 20.994,21.866 20.895,20.908 19.931 C 20.335 19.354,19.808 18.855,19.737 18.821 C 19.550 18.733,19.289 18.745,19.101 18.851 " fill="#292D32" stroke="none" fill-rule="evenodd"></path></svg>