<svg width="24" height="24" viewBox="0 0 24 24" fill="none" xmlns="http://www.w3.org/2000/svg"><path d="M9.900 2.059 C 7.874 2.317,6.095 3.190,4.638 4.640 C 2.478 6.791,1.570 9.830,2.183 12.859 C 2.543 14.637,3.609 16.483,4.969 17.683 C 6.706 19.217,8.743 20.000,11.000 20.000 C 14.215 20.000,17.111 18.339,18.770 15.544 C 19.582 14.176,19.997 12.646,19.999 11.012 C 20.002 8.581,19.078 6.349,17.362 4.640 C 15.980 3.264,14.290 2.402,12.380 2.097 C 11.822 2.008,10.465 1.988,9.900 2.059 M14.267 8.803 C 14.540 8.905,14.731 9.193,14.731 9.500 C 14.731 9.807,14.540 10.095,14.267 10.197 C 14.191 10.226,13.132 10.240,11.000 10.240 C 8.868 10.240,7.809 10.226,7.733 10.197 C 7.460 10.095,7.269 9.807,7.269 9.500 C 7.269 9.200,7.458 8.909,7.720 8.805 C 7.863 8.748,14.117 8.746,14.267 8.803 M11.267 11.803 C 11.540 11.905,11.731 12.193,11.731 12.500 C 11.731 12.807,11.540 13.095,11.267 13.197 C 11.194 13.225,10.572 13.240,9.500 13.240 C 8.428 13.240,7.806 13.225,7.733 13.197 C 7.460 13.095,7.269 12.807,7.269 12.500 C 7.269 12.200,7.458 11.909,7.720 11.805 C 7.861 11.749,11.120 11.747,11.267 11.803 M19.660 18.028 C 19.247 18.083,18.684 18.378,18.446 18.664 C 17.971 19.236,17.883 20.011,18.199 20.832 C 18.441 21.459,18.804 21.899,19.271 22.129 C 19.515 22.249,19.569 22.260,19.899 22.257 C 20.300 22.255,20.541 22.179,20.875 21.951 C 21.412 21.584,21.986 20.740,22.115 20.128 C 22.335 19.088,21.732 18.258,20.611 18.058 C 20.316 18.006,19.923 17.993,19.660 18.028 " fill="#292D32" stroke="none" fill-rule="evenodd"></path></svg>