<svg width="24" height="24" viewBox="0 0 24 24" fill="none" xmlns="http://www.w3.org/2000/svg"><path d="M10.620 2.042 C 8.277 2.285,6.263 3.263,4.640 4.945 C 3.271 6.364,2.430 8.080,2.093 10.140 C 1.992 10.760,1.992 12.240,2.093 12.860 C 2.367 14.537,2.943 15.912,3.925 17.230 C 4.309 17.746,5.275 18.708,5.800 19.097 C 7.099 20.060,8.484 20.637,10.140 20.906 C 10.759 21.007,12.241 21.007,12.860 20.906 C 14.516 20.637,15.901 20.060,17.200 19.097 C 17.739 18.697,18.697 17.739,19.097 17.200 C 20.057 15.906,20.638 14.510,20.906 12.860 C 20.960 12.529,20.978 12.192,20.978 11.500 C 20.978 10.808,20.960 10.471,20.906 10.140 C 20.695 8.837,20.303 7.729,19.685 6.686 C 18.204 4.188,15.709 2.519,12.824 2.097 C 12.318 2.023,11.097 1.993,10.620 2.042 M19.101 18.851 C 18.818 19.012,18.684 19.394,18.802 19.707 C 18.865 19.874,20.825 21.832,21.020 21.924 C 21.222 22.018,21.376 22.018,21.585 21.923 C 21.883 21.788,22.035 21.489,21.979 21.149 C 21.953 20.994,21.866 20.895,20.908 19.931 C 20.335 19.354,19.808 18.855,19.737 18.821 C 19.550 18.733,19.289 18.745,19.101 18.851 " fill="#292D32" stroke="none" fill-rule="evenodd"></path></svg>