<svg width="24" height="24" viewBox="0 0 24 24" fill="none" xmlns="http://www.w3.org/2000/svg"><path d="M9.900 2.059 C 7.874 2.317,6.095 3.190,4.638 4.640 C 2.478 6.791,1.570 9.830,2.183 12.859 C 2.543 14.637,3.609 16.483,4.969 17.683 C 6.706 19.217,8.743 20.000,11.000 20.000 C 14.215 20.000,17.111 18.339,18.770 15.544 C 19.582 14.176,19.997 12.646,19.999 11.012 C 20.002 8.581,19.078 6.349,17.362 4.640 C 15.980 3.264,14.290 2.402,12.380 2.097 C 11.822 2.008,10.465 1.988,9.900 2.059 M10.440 8.402 C 10.583 8.443,10.767 8.523,10.849 8.580 L 10.999 8.682 11.149 8.583 C 11.856 8.116,12.918 8.247,13.579 8.882 C 14.055 9.339,14.291 9.940,14.292 10.700 C 14.294 11.568,13.973 12.292,13.252 13.042 C 12.627 13.693,11.758 14.203,11.110 14.301 C 10.653 14.369,9.735 13.945,9.027 13.339 C 8.459 12.853,7.930 12.026,7.774 11.380 C 7.684 11.012,7.686 10.347,7.778 10.003 C 7.984 9.226,8.527 8.620,9.216 8.400 C 9.616 8.272,9.996 8.272,10.440 8.402 M19.660 18.028 C 19.247 18.083,18.684 18.378,18.446 18.664 C 17.971 19.236,17.883 20.011,18.199 20.832 C 18.441 21.459,18.804 21.899,19.271 22.129 C 19.515 22.249,19.569 22.260,19.899 22.257 C 20.300 22.255,20.541 22.179,20.875 21.951 C 21.412 21.584,21.986 20.740,22.115 20.128 C 22.335 19.088,21.732 18.258,20.611 18.058 C 20.316 18.006,19.923 17.993,19.660 18.028 " fill="#292D32" stroke="none" fill-rule="evenodd"></path></svg>