<svg width="24" height="24" viewBox="0 0 24 24" fill="none" xmlns="http://www.w3.org/2000/svg"><path d="M11.418 2.044 C 11.242 2.063,10.924 2.122,10.712 2.176 C 10.281 2.285,4.562 4.604,4.205 4.814 C 3.905 4.991,3.519 5.420,3.347 5.769 C 3.070 6.330,3.072 6.299,3.090 9.339 C 3.105 11.862,3.113 12.098,3.190 12.583 C 3.575 14.984,4.632 17.082,6.339 18.836 C 7.686 20.220,9.183 21.167,10.980 21.774 C 11.550 21.966,11.601 21.976,12.000 21.976 C 12.399 21.976,12.450 21.966,13.020 21.774 C 14.839 21.160,16.324 20.214,17.698 18.795 C 19.410 17.026,20.486 14.842,20.828 12.440 C 20.891 11.999,20.900 11.614,20.900 9.180 L 20.900 6.420 20.804 6.127 C 20.642 5.632,20.272 5.135,19.864 4.864 C 19.580 4.676,13.766 2.300,13.291 2.178 C 12.670 2.018,12.071 1.976,11.418 2.044 M12.680 8.102 C 13.126 8.238,13.407 8.406,13.745 8.742 C 14.007 9.001,14.102 9.131,14.232 9.402 C 14.426 9.809,14.480 10.051,14.480 10.514 C 14.480 10.939,14.407 11.244,14.210 11.640 C 14.006 12.050,13.570 12.490,13.165 12.692 C 13.002 12.774,12.846 12.840,12.817 12.840 C 12.775 12.840,12.762 13.125,12.752 14.270 C 12.739 15.833,12.742 15.813,12.494 16.047 C 12.217 16.309,11.783 16.309,11.506 16.047 C 11.258 15.813,11.261 15.833,11.248 14.270 C 11.238 13.125,11.225 12.840,11.183 12.840 C 11.066 12.840,10.566 12.551,10.352 12.361 C 10.070 12.109,9.759 11.652,9.641 11.314 C 9.529 10.996,9.489 10.349,9.558 9.990 C 9.703 9.234,10.326 8.483,11.044 8.198 C 11.563 7.992,12.195 7.955,12.680 8.102 " fill="#292D32" stroke="none" fill-rule="evenodd"></path></svg>