<svg width="24" height="24" viewBox="0 0 24 24" fill="none" xmlns="http://www.w3.org/2000/svg"><path d="M11.404 2.046 C 11.219 2.065,10.959 2.109,10.826 2.144 C 10.496 2.229,5.520 4.096,5.220 4.247 C 4.462 4.628,3.852 5.378,3.535 6.320 L 3.420 6.660 3.420 10.820 C 3.420 15.393,3.407 15.130,3.665 15.847 C 3.881 16.449,4.276 17.119,4.680 17.569 C 4.809 17.713,5.522 18.275,6.593 19.075 C 9.415 21.185,9.648 21.354,9.960 21.516 C 11.292 22.207,13.134 22.138,14.349 21.350 C 14.498 21.253,15.619 20.427,16.840 19.514 C 18.385 18.359,19.139 17.769,19.321 17.576 C 19.899 16.960,20.358 16.065,20.540 15.202 C 20.591 14.957,20.600 14.322,20.600 10.864 C 20.600 6.238,20.621 6.537,20.241 5.780 C 19.906 5.115,19.353 4.531,18.794 4.253 C 18.477 4.096,13.504 2.229,13.178 2.145 C 12.908 2.076,12.205 1.997,11.926 2.005 C 11.824 2.008,11.589 2.026,11.404 2.046 M12.436 7.102 C 13.753 7.412,14.441 8.886,13.840 10.107 C 13.064 11.683,10.816 11.683,10.040 10.107 C 9.444 8.896,10.102 7.454,11.411 7.102 C 11.688 7.027,12.120 7.027,12.436 7.102 M12.435 12.843 C 13.493 12.942,14.371 13.371,14.790 13.994 C 15.017 14.332,15.096 14.615,15.068 14.985 C 15.002 15.861,14.215 16.563,12.956 16.868 C 12.731 16.923,12.498 16.940,11.980 16.940 C 11.175 16.940,10.806 16.864,10.220 16.578 C 9.762 16.354,9.528 16.179,9.300 15.890 C 9.040 15.559,8.946 15.295,8.943 14.880 C 8.941 14.579,8.955 14.510,9.065 14.280 C 9.302 13.784,9.634 13.473,10.230 13.192 C 10.711 12.965,11.083 12.880,11.920 12.806 C 11.953 12.803,12.185 12.819,12.435 12.843 " fill="#292D32" stroke="none" fill-rule="evenodd"></path></svg>