<svg width="24" height="24" viewBox="0 0 24 24" fill="none" xmlns="http://www.w3.org/2000/svg"><path d="M11.640 2.026 C 11.585 2.034,11.438 2.059,11.313 2.082 C 10.978 2.142,5.348 4.258,5.065 4.429 C 4.345 4.866,3.740 5.749,3.600 6.568 C 3.570 6.741,3.560 8.198,3.568 11.200 L 3.580 15.580 3.704 15.928 C 3.872 16.399,4.132 16.840,4.420 17.146 C 4.709 17.453,10.204 21.569,10.600 21.776 C 11.458 22.222,12.722 22.194,13.520 21.709 C 13.641 21.636,15.028 20.612,16.603 19.434 C 19.736 17.091,19.710 17.114,20.057 16.440 C 20.153 16.253,20.274 15.974,20.326 15.820 L 20.420 15.540 20.433 11.240 C 20.443 8.127,20.433 6.850,20.400 6.615 C 20.343 6.217,20.159 5.753,19.908 5.374 C 19.687 5.041,19.228 4.595,18.918 4.411 C 18.798 4.340,17.377 3.788,15.760 3.184 C 13.426 2.313,12.755 2.077,12.507 2.043 C 12.206 2.002,11.849 1.995,11.640 2.026 M16.691 5.850 C 17.127 5.957,17.415 6.106,17.640 6.343 C 18.029 6.755,18.121 7.114,18.149 8.323 C 18.166 9.107,18.161 9.243,18.104 9.352 C 17.967 9.617,18.398 9.600,11.998 9.600 C 6.598 9.600,6.184 9.595,6.077 9.532 C 5.873 9.411,5.840 9.277,5.840 8.573 C 5.840 7.017,6.090 6.365,6.819 6.023 C 7.012 5.932,7.466 5.818,7.760 5.786 C 7.837 5.778,9.817 5.774,12.160 5.778 C 15.967 5.784,16.449 5.791,16.691 5.850 M17.807 10.721 C 17.889 10.744,18.002 10.819,18.060 10.887 L 18.165 11.012 18.150 12.796 C 18.137 14.486,18.131 14.597,18.048 14.897 C 17.847 15.621,17.473 15.963,16.682 16.149 C 16.403 16.215,16.052 16.220,12.000 16.220 C 8.006 16.220,7.594 16.214,7.327 16.151 C 6.512 15.961,6.122 15.575,5.932 14.771 C 5.881 14.552,5.865 14.170,5.851 12.794 C 5.835 11.290,5.841 11.074,5.897 10.966 C 5.962 10.840,6.053 10.774,6.238 10.718 C 6.398 10.669,17.632 10.673,17.807 10.721 M7.916 13.460 C 7.575 13.645,7.580 14.204,7.924 14.382 C 8.011 14.427,8.217 14.440,8.843 14.440 L 9.649 14.440 9.805 14.285 C 9.941 14.148,9.960 14.107,9.960 13.941 C 9.960 13.723,9.876 13.559,9.718 13.465 C 9.566 13.376,8.079 13.371,7.916 13.460 M10.715 13.467 C 10.382 13.674,10.393 14.177,10.735 14.385 C 10.849 14.454,10.969 14.461,12.148 14.472 C 13.548 14.485,13.697 14.469,13.883 14.283 C 14.106 14.060,14.067 13.669,13.803 13.491 C 13.669 13.401,13.658 13.400,12.244 13.401 C 10.998 13.402,10.807 13.410,10.715 13.467 " fill="#292D32" stroke="none" fill-rule="evenodd"></path></svg>