<svg width="24" height="24" viewBox="0 0 24 24" fill="none" xmlns="http://www.w3.org/2000/svg"><path d="M11.520 2.026 C 11.465 2.034,11.285 2.060,11.120 2.084 C 10.955 2.109,10.676 2.174,10.500 2.229 C 10.113 2.350,4.500 4.643,4.228 4.791 C 3.961 4.936,3.529 5.405,3.353 5.740 C 3.076 6.270,3.080 6.221,3.080 9.072 C 3.080 11.595,3.098 12.074,3.223 12.820 C 3.465 14.258,4.079 15.803,4.905 17.049 C 5.188 17.476,5.346 17.601,5.704 17.684 C 5.872 17.723,5.944 17.719,6.142 17.662 L 6.380 17.595 12.414 11.567 C 17.008 6.979,18.468 5.498,18.528 5.365 C 18.701 4.987,18.591 4.496,18.273 4.223 C 18.154 4.122,17.564 3.864,15.888 3.181 C 14.662 2.682,13.498 2.231,13.300 2.178 C 12.753 2.032,11.945 1.963,11.520 2.026 M19.680 6.837 C 19.473 6.900,19.306 7.014,18.890 7.372 C 17.120 8.898,14.306 11.611,10.167 15.781 C 8.355 17.606,7.436 18.560,7.357 18.697 C 7.259 18.869,7.241 18.943,7.241 19.180 C 7.242 19.589,7.361 19.785,7.807 20.120 C 8.560 20.684,9.494 21.202,10.400 21.557 C 11.843 22.123,12.162 22.122,13.617 21.551 C 15.058 20.986,16.343 20.139,17.484 19.002 C 17.828 18.660,18.247 18.207,18.415 17.995 C 19.479 16.656,20.310 14.938,20.656 13.360 C 20.876 12.359,20.895 12.075,20.898 9.760 C 20.900 7.790,20.894 7.605,20.828 7.433 C 20.662 7.004,20.097 6.710,19.680 6.837 " fill="#292D32" stroke="none" fill-rule="evenodd"></path></svg>