<svg width="24" height="24" viewBox="0 0 24 24" fill="none" xmlns="http://www.w3.org/2000/svg"><path d="M11.423 2.002 C 11.315 2.021,11.135 2.065,11.023 2.102 C 10.572 2.249,5.378 4.210,5.201 4.300 C 4.487 4.661,3.860 5.480,3.641 6.336 C 3.562 6.644,3.560 6.767,3.560 10.980 C 3.560 15.113,3.563 15.321,3.637 15.607 C 3.778 16.160,4.057 16.703,4.404 17.098 C 4.479 17.184,5.683 18.109,7.080 19.154 C 10.223 21.505,10.448 21.668,10.715 21.788 C 11.495 22.136,12.585 22.122,13.338 21.755 C 13.491 21.680,14.805 20.726,16.546 19.424 C 19.822 16.975,19.733 17.053,20.100 16.300 C 20.444 15.594,20.420 15.991,20.420 10.960 L 20.420 6.500 20.326 6.201 C 20.067 5.376,19.498 4.669,18.800 4.304 C 18.345 4.067,12.895 2.054,12.572 2.004 C 12.247 1.954,11.716 1.953,11.423 2.002 M12.805 6.819 C 13.777 6.988,14.641 7.438,15.340 8.139 C 15.976 8.777,16.382 9.485,16.609 10.351 C 16.722 10.782,16.732 10.873,16.733 11.480 C 16.733 11.956,16.715 12.222,16.667 12.434 C 16.384 13.674,15.711 14.694,14.709 15.401 C 13.340 16.367,11.489 16.514,9.940 15.779 C 9.252 15.452,8.526 14.829,8.087 14.189 C 6.794 12.302,7.024 9.782,8.638 8.159 C 8.826 7.970,9.097 7.733,9.240 7.631 C 9.774 7.253,10.522 6.938,11.160 6.822 C 11.564 6.748,12.392 6.747,12.805 6.819 M11.568 8.281 C 10.509 8.427,9.561 9.110,9.098 10.060 C 8.193 11.917,9.187 14.105,11.182 14.645 C 11.428 14.712,11.613 14.732,12.000 14.732 C 12.387 14.732,12.572 14.712,12.818 14.645 C 14.250 14.257,15.239 12.972,15.239 11.500 C 15.239 9.776,13.905 8.367,12.178 8.266 C 11.981 8.255,11.706 8.262,11.568 8.281 M12.650 9.639 C 12.725 9.690,12.831 9.796,12.884 9.873 C 12.974 10.004,12.981 10.055,12.993 10.637 C 13.009 11.374,12.966 11.639,12.771 12.011 C 12.590 12.356,12.377 12.547,11.754 12.922 C 11.273 13.212,11.253 13.220,10.997 13.220 C 10.779 13.220,10.707 13.202,10.573 13.114 C 10.299 12.932,10.180 12.567,10.297 12.263 C 10.388 12.025,10.495 11.927,10.980 11.640 C 11.208 11.505,11.412 11.373,11.433 11.347 C 11.454 11.321,11.479 11.021,11.487 10.680 C 11.504 10.022,11.531 9.914,11.726 9.733 C 11.904 9.567,12.047 9.515,12.286 9.530 C 12.441 9.540,12.556 9.574,12.650 9.639 " fill="#292D32" stroke="none" fill-rule="evenodd"></path></svg>