<svg width="24" height="24" viewBox="0 0 24 24" fill="none" xmlns="http://www.w3.org/2000/svg"><path d="M6.960 2.046 C 6.236 2.116,5.358 2.357,4.796 2.641 C 4.426 2.828,3.928 3.183,3.624 3.475 C 2.737 4.332,2.251 5.370,2.062 6.812 C 1.970 7.515,1.969 16.481,2.061 17.188 C 2.239 18.550,2.681 19.544,3.476 20.372 C 4.162 21.084,4.935 21.524,5.956 21.780 C 6.817 21.997,6.896 22.000,11.993 22.000 C 14.960 22.000,16.828 21.985,17.041 21.959 C 19.985 21.603,21.695 19.840,21.962 16.885 C 21.990 16.579,21.999 14.787,21.989 11.660 C 21.974 7.001,21.972 6.891,21.889 6.456 C 21.642 5.171,21.165 4.235,20.369 3.478 C 19.583 2.729,18.652 2.295,17.359 2.076 C 16.995 2.014,7.572 1.987,6.960 2.046 M12.271 5.821 C 12.456 5.897,15.528 8.947,15.643 9.168 C 15.783 9.438,15.734 9.795,15.527 10.013 C 15.327 10.225,15.105 10.292,14.811 10.231 C 14.633 10.193,14.559 10.130,13.698 9.275 C 13.191 8.772,12.764 8.360,12.748 8.360 C 12.733 8.360,12.720 9.781,12.720 11.517 C 12.720 13.647,12.706 14.711,12.678 14.787 C 12.609 14.969,12.398 15.157,12.195 15.218 C 11.842 15.323,11.486 15.164,11.324 14.828 C 11.241 14.656,11.240 14.624,11.240 11.499 L 11.240 8.344 10.347 9.231 C 9.413 10.159,9.295 10.247,8.976 10.247 C 8.424 10.247,8.082 9.660,8.343 9.160 C 8.434 8.985,11.568 5.888,11.720 5.823 C 11.901 5.745,12.086 5.745,12.271 5.821 M6.564 15.901 C 9.081 16.690,11.854 16.920,14.500 16.557 C 15.509 16.419,16.513 16.195,17.457 15.898 C 17.954 15.741,18.075 15.732,18.302 15.835 C 18.632 15.985,18.806 16.334,18.721 16.673 C 18.628 17.043,18.492 17.146,17.820 17.352 C 15.892 17.945,14.061 18.217,12.000 18.217 C 9.940 18.217,8.133 17.949,6.180 17.353 C 5.655 17.193,5.462 17.080,5.353 16.868 C 5.145 16.467,5.309 16.002,5.720 15.824 C 5.929 15.733,6.069 15.746,6.564 15.901 " fill="#292D32" stroke="none" fill-rule="evenodd"></path></svg>