<svg width="24" height="24" viewBox="0 0 24 24" fill="none" xmlns="http://www.w3.org/2000/svg"><path d="M6.960 2.046 C 6.236 2.116,5.358 2.357,4.796 2.641 C 4.426 2.828,3.928 3.183,3.624 3.475 C 2.737 4.332,2.251 5.370,2.062 6.812 C 1.970 7.515,1.969 16.481,2.061 17.188 C 2.239 18.550,2.681 19.544,3.476 20.372 C 4.162 21.084,4.935 21.524,5.956 21.780 C 6.817 21.997,6.896 22.000,11.993 22.000 C 14.960 22.000,16.828 21.985,17.041 21.959 C 19.985 21.603,21.695 19.840,21.962 16.885 C 21.990 16.579,21.999 14.787,21.989 11.660 C 21.974 7.001,21.972 6.891,21.889 6.456 C 21.642 5.171,21.165 4.235,20.369 3.478 C 19.583 2.729,18.652 2.295,17.359 2.076 C 16.995 2.014,7.572 1.987,6.960 2.046 M15.200 7.046 C 15.312 7.111,15.419 7.219,15.480 7.326 L 15.580 7.500 15.580 9.780 C 15.580 11.034,15.567 12.108,15.550 12.167 C 15.478 12.425,15.132 12.677,14.849 12.679 C 14.687 12.680,14.452 12.585,14.327 12.468 C 14.103 12.259,14.101 12.245,14.087 10.823 L 14.075 9.506 11.847 11.731 C 10.308 13.269,9.574 13.976,9.471 14.018 C 9.018 14.206,8.503 13.927,8.451 13.465 C 8.402 13.039,8.277 13.189,10.752 10.710 L 13.018 8.440 11.748 8.440 C 10.387 8.440,10.304 8.430,10.085 8.228 C 9.956 8.110,9.842 7.852,9.842 7.680 C 9.842 7.387,10.099 7.032,10.353 6.976 C 10.412 6.964,10.478 6.947,10.500 6.939 C 10.522 6.931,11.548 6.928,12.780 6.932 L 15.020 6.940 15.200 7.046 M6.564 15.901 C 9.081 16.690,11.854 16.920,14.500 16.557 C 15.509 16.419,16.513 16.195,17.457 15.898 C 17.954 15.741,18.075 15.732,18.302 15.835 C 18.632 15.985,18.806 16.334,18.721 16.673 C 18.628 17.043,18.492 17.146,17.820 17.352 C 15.892 17.945,14.061 18.217,12.000 18.217 C 9.940 18.217,8.133 17.949,6.180 17.353 C 5.655 17.193,5.462 17.080,5.353 16.868 C 5.145 16.467,5.309 16.002,5.720 15.824 C 5.929 15.733,6.069 15.746,6.564 15.901 " fill="#292D32" stroke="none" fill-rule="evenodd"></path></svg>