<svg width="24" height="24" viewBox="0 0 24 24" fill="none" xmlns="http://www.w3.org/2000/svg"><path d="M4.699 2.816 C 4.535 2.887,4.333 3.126,4.282 3.309 C 4.222 3.525,4.224 13.720,4.284 13.940 C 4.411 14.405,4.880 14.636,5.305 14.443 C 5.498 14.356,5.655 14.164,5.716 13.940 C 5.746 13.829,5.760 12.487,5.760 9.560 L 5.760 5.341 12.150 11.729 C 16.690 16.268,18.583 18.135,18.689 18.178 C 19.066 18.335,19.478 18.186,19.666 17.826 C 19.746 17.674,19.742 17.319,19.659 17.154 C 19.622 17.080,16.718 14.145,13.206 10.630 L 6.821 4.240 11.120 4.239 C 15.233 4.238,15.427 4.235,15.585 4.163 C 15.675 4.122,15.801 4.021,15.865 3.937 C 15.967 3.803,15.980 3.754,15.980 3.500 C 15.980 3.246,15.967 3.197,15.865 3.063 C 15.801 2.979,15.675 2.878,15.585 2.837 C 15.426 2.765,15.212 2.762,10.120 2.762 C 5.829 2.763,4.797 2.773,4.699 2.816 M3.420 21.259 C 3.398 21.267,3.331 21.284,3.271 21.297 C 3.211 21.310,3.095 21.379,3.015 21.450 C 2.595 21.818,2.699 22.443,3.220 22.684 C 3.374 22.756,3.694 22.758,12.000 22.758 C 20.306 22.758,20.626 22.756,20.780 22.684 C 21.075 22.547,21.240 22.303,21.240 22.000 C 21.240 21.717,21.089 21.475,20.820 21.326 C 20.709 21.265,20.030 21.259,12.080 21.253 C 7.339 21.249,3.442 21.252,3.420 21.259 " fill="#292D32" stroke="none" fill-rule="evenodd"></path></svg>