<svg width="24" height="24" viewBox="0 0 24 24" fill="none" xmlns="http://www.w3.org/2000/svg"><path d="M4.899 3.040 C 3.958 3.178,3.374 3.694,3.132 4.600 C 3.041 4.940,3.041 5.763,3.132 6.262 C 3.319 7.293,3.673 8.220,4.608 10.127 L 5.288 11.514 5.309 11.848 C 5.321 12.038,5.310 12.278,5.284 12.402 C 5.256 12.533,5.002 13.089,4.645 13.800 C 3.809 15.469,3.476 16.285,3.240 17.249 C 2.748 19.254,3.221 20.522,4.603 20.905 C 4.957 21.004,5.884 21.004,6.374 20.907 C 6.907 20.800,7.610 20.588,8.206 20.355 C 9.032 20.031,18.440 15.318,18.976 14.959 C 20.366 14.030,21.096 12.798,20.924 11.672 C 20.769 10.664,20.149 9.829,18.964 9.034 C 18.666 8.834,17.188 8.075,13.764 6.362 C 11.133 5.046,8.800 3.893,8.580 3.799 C 7.102 3.169,5.819 2.904,4.899 3.040 M15.243 11.380 C 15.336 11.446,15.448 11.568,15.491 11.651 C 15.647 11.953,15.550 12.408,15.291 12.592 C 15.053 12.761,14.985 12.765,12.060 12.752 C 9.310 12.740,9.257 12.739,9.100 12.656 C 9.012 12.610,8.888 12.499,8.823 12.408 C 8.538 12.004,8.770 11.395,9.255 11.277 C 9.324 11.261,10.661 11.250,12.227 11.253 L 15.073 11.260 15.243 11.380 " fill="#292D32" stroke="none" fill-rule="evenodd"></path></svg>