<svg width="24" height="24" viewBox="0 0 24 24" fill="none" xmlns="http://www.w3.org/2000/svg"><path d="M17.688 2.601 C 17.528 2.622,17.202 2.682,16.964 2.736 C 16.423 2.857,6.950 5.995,6.156 6.315 C 3.520 7.379,2.263 8.723,2.621 10.098 C 2.857 11.003,3.771 11.847,5.329 12.599 C 6.058 12.950,6.864 13.251,8.601 13.818 L 9.782 14.204 10.176 15.392 C 10.785 17.232,11.059 17.965,11.402 18.673 C 12.081 20.075,12.818 20.937,13.640 21.289 C 13.914 21.407,13.976 21.418,14.360 21.418 C 14.744 21.418,14.806 21.407,15.080 21.289 C 16.045 20.876,16.934 19.703,17.680 17.860 C 17.963 17.160,21.049 7.916,21.219 7.260 C 21.397 6.569,21.456 6.062,21.429 5.465 C 21.388 4.582,21.124 3.924,20.599 3.396 C 20.250 3.045,19.829 2.813,19.300 2.678 C 18.926 2.584,18.131 2.546,17.688 2.601 M16.299 7.171 C 16.618 7.352,16.751 7.724,16.619 8.069 C 16.559 8.224,16.221 8.583,14.571 10.244 C 13.416 11.407,12.536 12.261,12.453 12.301 C 12.280 12.383,11.964 12.385,11.812 12.306 C 11.663 12.228,11.495 12.047,11.443 11.907 C 11.380 11.741,11.394 11.438,11.472 11.293 C 11.568 11.113,15.472 7.200,15.619 7.136 C 15.811 7.052,16.116 7.068,16.299 7.171 " fill="#292D32" stroke="none" fill-rule="evenodd"></path></svg>