<svg width="24" height="24" viewBox="0 0 24 24" fill="none" xmlns="http://www.w3.org/2000/svg"><path d="M8.453 2.599 C 8.241 2.644,8.211 2.660,7.062 3.314 C 6.005 3.917,5.730 4.131,5.527 4.512 C 5.386 4.777,5.281 5.171,5.281 5.442 C 5.280 5.717,5.382 6.057,5.599 6.500 C 5.859 7.030,5.934 7.331,5.909 7.742 C 5.885 8.151,5.755 8.439,5.478 8.698 C 5.125 9.029,4.698 9.173,3.890 9.234 C 3.451 9.268,3.367 9.287,3.097 9.415 C 2.575 9.663,2.205 10.110,2.060 10.668 C 1.974 10.997,1.974 13.003,2.060 13.332 C 2.228 13.980,2.707 14.492,3.323 14.684 C 3.456 14.726,3.785 14.777,4.053 14.798 C 4.596 14.840,4.883 14.912,5.180 15.081 C 5.632 15.338,5.877 15.734,5.910 16.255 C 5.936 16.677,5.863 16.963,5.575 17.568 C 5.215 18.326,5.196 18.822,5.504 19.436 C 5.719 19.867,5.966 20.068,7.023 20.671 C 8.308 21.404,8.340 21.418,8.780 21.419 C 9.497 21.421,9.859 21.191,10.375 20.407 C 10.845 19.694,11.164 19.425,11.697 19.294 C 12.021 19.213,12.326 19.255,12.677 19.427 C 12.976 19.573,13.413 20.021,13.648 20.423 C 13.752 20.600,13.930 20.838,14.044 20.952 C 14.465 21.374,15.088 21.539,15.643 21.376 C 15.862 21.312,17.508 20.399,17.925 20.111 C 18.552 19.677,18.855 18.855,18.661 18.111 C 18.629 17.987,18.523 17.727,18.426 17.533 C 18.157 16.994,18.102 16.796,18.101 16.360 C 18.101 16.034,18.116 15.949,18.204 15.760 C 18.489 15.153,19.009 14.867,19.958 14.796 C 20.682 14.742,20.989 14.630,21.371 14.281 C 21.644 14.032,21.825 13.755,21.924 13.436 C 21.991 13.221,22.000 13.059,22.000 12.024 C 22.000 10.763,21.985 10.645,21.771 10.222 C 21.617 9.919,21.256 9.583,20.903 9.415 C 20.633 9.287,20.549 9.268,20.110 9.234 C 19.302 9.172,18.875 9.029,18.522 8.698 C 18.231 8.426,18.108 8.150,18.088 7.723 C 18.068 7.298,18.141 6.997,18.377 6.524 C 18.691 5.895,18.760 5.547,18.663 5.080 C 18.501 4.305,18.262 4.065,16.860 3.271 C 15.572 2.543,15.350 2.473,14.778 2.622 C 14.315 2.743,13.981 3.005,13.692 3.475 C 13.393 3.961,13.167 4.235,12.911 4.424 C 12.647 4.618,12.251 4.760,11.975 4.760 C 11.749 4.760,11.355 4.628,11.140 4.480 C 10.887 4.306,10.550 3.921,10.325 3.549 C 9.953 2.933,9.494 2.617,8.919 2.582 C 8.754 2.572,8.545 2.580,8.453 2.599 M12.820 8.858 C 13.914 9.153,14.773 9.997,15.126 11.121 C 15.206 11.377,15.220 11.503,15.220 12.000 C 15.220 12.676,15.157 12.938,14.848 13.540 C 14.701 13.826,14.589 13.975,14.301 14.264 C 13.880 14.689,13.526 14.912,12.991 15.093 C 12.639 15.212,12.589 15.218,12.000 15.218 C 11.411 15.218,11.361 15.212,11.009 15.093 C 10.474 14.912,10.120 14.689,9.699 14.264 C 9.411 13.975,9.299 13.826,9.152 13.540 C 8.843 12.938,8.780 12.676,8.780 12.000 C 8.780 11.503,8.794 11.377,8.874 11.121 C 9.251 9.919,10.163 9.074,11.360 8.818 C 11.692 8.747,12.491 8.769,12.820 8.858 " fill="#292D32" stroke="none" fill-rule="evenodd"></path></svg>