<svg width="24" height="24" viewBox="0 0 24 24" fill="none" xmlns="http://www.w3.org/2000/svg"><path d="M11.173 7.579 C 10.760 7.654,10.394 7.783,9.953 8.007 C 8.728 8.631,7.875 9.754,7.582 11.130 L 7.558 11.240 4.801 11.240 C 2.939 11.240,1.977 11.254,1.838 11.284 C 1.080 11.447,1.080 12.553,1.838 12.716 C 1.977 12.746,2.939 12.760,4.801 12.760 L 7.558 12.760 7.582 12.870 C 8.037 15.003,9.858 16.496,12.000 16.492 C 14.152 16.488,15.964 15.003,16.418 12.871 L 16.441 12.763 19.310 12.751 L 22.180 12.740 22.359 12.639 C 22.702 12.448,22.829 12.010,22.646 11.651 C 22.544 11.452,22.391 11.337,22.156 11.283 C 22.046 11.257,20.937 11.242,19.211 11.241 L 16.442 11.240 16.418 11.130 C 16.029 9.305,14.591 7.892,12.805 7.579 C 12.398 7.508,11.567 7.508,11.173 7.579 " fill="#292D32" stroke="none" fill-rule="evenodd"></path></svg>