<svg width="24" height="24" viewBox="0 0 24 24" fill="none" xmlns="http://www.w3.org/2000/svg"><path d="M11.360 2.058 C 10.839 2.144,10.497 2.288,9.623 2.790 C 4.657 5.644,4.162 5.952,3.540 6.578 C 3.190 6.930,3.045 7.179,2.930 7.627 C 2.866 7.878,2.860 8.225,2.860 12.000 C 2.860 16.554,2.850 16.367,3.127 16.888 C 3.356 17.317,3.702 17.640,4.600 18.267 C 5.048 18.579,10.091 21.518,10.501 21.706 C 11.272 22.059,12.479 22.090,13.308 21.779 C 13.705 21.629,18.956 18.590,19.580 18.148 C 20.226 17.691,20.744 17.187,20.893 16.872 C 21.149 16.328,21.140 16.514,21.140 12.000 C 21.140 8.239,21.134 7.878,21.071 7.630 C 20.975 7.257,20.802 6.933,20.556 6.664 C 20.337 6.424,19.692 5.923,19.120 5.549 C 18.664 5.251,13.683 2.376,13.446 2.274 C 12.921 2.049,11.997 1.953,11.360 2.058 M12.820 8.858 C 13.914 9.153,14.773 9.997,15.126 11.121 C 15.206 11.377,15.220 11.503,15.220 12.000 C 15.220 12.676,15.157 12.938,14.848 13.540 C 14.701 13.826,14.589 13.975,14.301 14.264 C 13.880 14.689,13.526 14.912,12.991 15.093 C 12.639 15.212,12.589 15.218,12.000 15.218 C 11.411 15.218,11.361 15.212,11.009 15.093 C 10.474 14.912,10.120 14.689,9.699 14.264 C 9.411 13.975,9.299 13.826,9.152 13.540 C 8.843 12.938,8.780 12.676,8.780 12.000 C 8.780 11.503,8.794 11.377,8.874 11.121 C 9.251 9.919,10.163 9.074,11.360 8.818 C 11.692 8.747,12.491 8.769,12.820 8.858 " fill="#292D32" stroke="none" fill-rule="evenodd"></path></svg>