<svg width="24" height="24" viewBox="0 0 24 24" fill="none" xmlns="http://www.w3.org/2000/svg"><path d="M6.960 2.046 C 6.236 2.116,5.358 2.357,4.796 2.641 C 4.426 2.828,3.928 3.183,3.624 3.475 C 2.737 4.332,2.251 5.370,2.062 6.812 C 1.970 7.515,1.969 16.481,2.061 17.188 C 2.239 18.550,2.681 19.544,3.476 20.372 C 4.162 21.084,4.935 21.524,5.956 21.780 C 6.817 21.997,6.896 22.000,11.993 22.000 C 14.960 22.000,16.828 21.985,17.041 21.959 C 19.985 21.603,21.695 19.840,21.962 16.885 C 21.990 16.579,21.999 14.787,21.989 11.660 C 21.974 7.001,21.972 6.891,21.889 6.456 C 21.642 5.171,21.165 4.235,20.369 3.478 C 19.583 2.729,18.652 2.295,17.359 2.076 C 16.995 2.014,7.572 1.987,6.960 2.046 M8.743 4.836 C 8.934 4.922,9.063 5.072,9.122 5.275 C 9.150 5.371,9.160 6.140,9.152 7.546 L 9.140 9.673 9.018 9.826 C 8.876 10.004,8.597 10.160,8.420 10.160 C 8.243 10.160,7.964 10.004,7.822 9.826 L 7.700 9.673 7.688 7.546 C 7.680 6.140,7.690 5.371,7.718 5.275 C 7.806 4.971,8.093 4.762,8.420 4.762 C 8.508 4.762,8.653 4.795,8.743 4.836 M15.870 4.822 C 16.050 4.897,16.148 4.982,16.234 5.140 C 16.289 5.239,16.303 5.432,16.320 6.247 C 16.344 7.409,16.323 7.352,16.835 7.646 C 17.425 7.986,17.780 8.356,18.038 8.902 C 18.388 9.643,18.362 10.591,17.971 11.334 C 17.743 11.766,17.240 12.254,16.797 12.472 C 16.016 12.858,15.159 12.859,14.369 12.477 C 14.094 12.344,13.959 12.244,13.679 11.966 C 13.381 11.671,13.303 11.564,13.148 11.240 C 12.936 10.797,12.869 10.510,12.867 10.040 C 12.866 9.577,12.934 9.288,13.148 8.843 C 13.386 8.347,13.812 7.908,14.317 7.640 C 14.835 7.363,14.816 7.414,14.840 6.247 C 14.857 5.432,14.871 5.239,14.926 5.140 C 15.106 4.812,15.516 4.674,15.870 4.822 M9.089 11.317 C 10.054 11.564,10.809 12.316,11.061 13.280 C 11.150 13.623,11.153 14.257,11.065 14.600 C 10.871 15.365,10.394 15.958,9.635 16.380 C 9.169 16.639,9.183 16.598,9.160 17.753 C 9.143 18.568,9.129 18.761,9.074 18.860 C 8.894 19.187,8.483 19.326,8.130 19.178 C 7.932 19.096,7.843 19.010,7.755 18.820 C 7.691 18.680,7.682 18.547,7.681 17.760 C 7.680 16.599,7.704 16.656,7.035 16.280 C 6.525 15.994,6.039 15.394,5.837 14.800 C 5.713 14.436,5.686 13.759,5.778 13.342 C 5.890 12.842,6.119 12.436,6.517 12.038 C 6.904 11.651,7.250 11.446,7.729 11.321 C 8.123 11.217,8.693 11.216,9.089 11.317 M15.936 13.955 C 15.999 13.991,16.107 14.089,16.176 14.174 L 16.300 14.327 16.312 16.454 C 16.320 17.860,16.310 18.629,16.282 18.725 C 16.158 19.149,15.678 19.355,15.257 19.164 C 15.066 19.078,14.937 18.928,14.878 18.725 C 14.850 18.629,14.840 17.861,14.848 16.457 L 14.860 14.334 14.973 14.186 C 15.035 14.105,15.130 14.009,15.184 13.974 C 15.397 13.834,15.709 13.826,15.936 13.955 " fill="#292D32" stroke="none" fill-rule="evenodd"></path></svg>