<svg width="24" height="24" viewBox="0 0 24 24" fill="none" xmlns="http://www.w3.org/2000/svg"><path d="M5.187 1.856 C 4.949 1.944,4.801 2.085,4.679 2.340 C 4.605 2.493,4.602 2.617,4.601 5.025 L 4.600 7.551 4.712 7.765 C 4.973 8.266,5.647 8.397,6.066 8.030 C 6.142 7.962,6.244 7.834,6.292 7.744 C 6.380 7.580,6.380 7.578,6.380 5.020 C 6.380 2.597,6.376 2.452,6.305 2.320 C 6.264 2.243,6.192 2.138,6.145 2.086 C 5.935 1.855,5.482 1.746,5.187 1.856 M11.715 1.853 C 11.503 1.932,11.338 2.062,11.233 2.231 L 11.140 2.380 11.120 7.200 L 11.100 12.020 10.480 12.040 C 9.813 12.062,9.726 12.085,9.505 12.305 C 9.320 12.491,9.263 12.636,9.263 12.920 C 9.263 13.306,9.418 13.563,9.760 13.745 C 9.892 13.816,10.027 13.820,12.000 13.820 C 13.973 13.820,14.108 13.816,14.240 13.745 C 14.582 13.563,14.737 13.306,14.737 12.920 C 14.737 12.636,14.680 12.491,14.495 12.305 C 14.274 12.085,14.187 12.062,13.520 12.040 L 12.900 12.020 12.880 7.197 L 12.860 2.374 12.751 2.209 C 12.540 1.890,12.058 1.725,11.715 1.853 M18.160 1.883 C 17.936 1.985,17.817 2.094,17.706 2.300 C 17.621 2.458,17.620 2.491,17.607 4.900 C 17.599 6.595,17.608 7.403,17.640 7.547 C 17.697 7.812,17.931 8.087,18.179 8.182 C 18.580 8.335,19.033 8.190,19.270 7.833 L 19.380 7.666 19.391 5.085 L 19.402 2.504 19.300 2.297 C 19.091 1.870,18.591 1.688,18.160 1.883 M3.393 10.215 C 2.722 10.399,2.517 11.245,3.026 11.728 C 3.234 11.925,3.384 11.960,4.019 11.960 L 4.600 11.960 4.600 16.735 L 4.600 21.511 4.712 21.725 C 5.041 22.356,5.949 22.345,6.291 21.706 L 6.380 21.540 6.391 16.750 L 6.402 11.960 6.955 11.960 C 7.262 11.960,7.569 11.940,7.644 11.914 C 7.867 11.840,8.043 11.682,8.144 11.465 C 8.359 11.004,8.193 10.508,7.745 10.268 C 7.582 10.181,7.558 10.180,5.580 10.172 C 4.052 10.165,3.536 10.175,3.393 10.215 M16.480 10.197 C 15.908 10.313,15.603 10.909,15.843 11.439 C 15.953 11.681,16.025 11.755,16.260 11.865 C 16.440 11.950,16.516 11.959,17.029 11.960 L 17.598 11.960 17.609 16.750 L 17.620 21.540 17.709 21.706 C 18.051 22.345,18.959 22.356,19.288 21.725 L 19.400 21.511 19.400 16.735 L 19.400 11.960 19.981 11.960 C 20.616 11.960,20.766 11.925,20.974 11.728 C 21.499 11.229,21.260 10.354,20.556 10.203 C 20.332 10.155,16.715 10.150,16.480 10.197 M11.687 15.806 C 11.507 15.857,11.216 16.156,11.161 16.346 C 11.129 16.455,11.119 17.256,11.128 19.063 L 11.140 21.626 11.249 21.791 C 11.596 22.314,12.404 22.314,12.751 21.791 L 12.860 21.626 12.872 19.063 C 12.881 17.256,12.871 16.455,12.839 16.346 C 12.780 16.144,12.505 15.872,12.295 15.809 C 12.105 15.752,11.877 15.751,11.687 15.806 " fill="#292D32" stroke="none" fill-rule="evenodd"></path></svg>