<svg width="24" height="24" viewBox="0 0 24 24" fill="none" xmlns="http://www.w3.org/2000/svg"><path d="M15.840 2.041 C 14.132 2.279,12.753 3.160,11.860 4.583 C 11.739 4.775,11.640 4.979,11.640 5.036 C 11.640 5.173,11.777 5.392,11.890 5.438 C 11.939 5.458,12.259 5.494,12.600 5.518 C 12.941 5.542,13.375 5.596,13.564 5.638 C 15.954 6.165,17.826 8.036,18.363 10.436 C 18.406 10.625,18.462 11.077,18.488 11.440 C 18.533 12.073,18.539 12.104,18.642 12.208 C 18.765 12.331,18.915 12.380,19.058 12.344 C 19.113 12.330,19.351 12.190,19.588 12.031 C 20.545 11.392,21.293 10.430,21.675 9.348 C 22.031 8.339,22.086 7.229,21.833 6.162 C 21.426 4.442,20.113 2.977,18.400 2.331 C 17.749 2.085,16.521 1.946,15.840 2.041 M6.340 7.045 C 4.463 7.291,2.833 8.652,2.247 10.461 C 2.017 11.172,2.020 11.116,2.020 14.500 C 2.020 17.875,2.018 17.830,2.243 18.526 C 2.787 20.205,4.107 21.423,5.869 21.871 L 6.300 21.980 9.500 21.980 L 12.700 21.980 13.131 21.871 C 14.084 21.628,14.791 21.240,15.473 20.584 C 16.160 19.922,16.609 19.139,16.868 18.152 L 16.976 17.740 16.990 14.840 C 17.005 11.757,16.996 11.556,16.815 10.884 C 16.302 8.978,14.808 7.566,12.820 7.108 C 12.475 7.029,12.334 7.025,9.540 7.017 C 7.934 7.012,6.494 7.025,6.340 7.045 " fill="#292D32" stroke="none" fill-rule="evenodd"></path></svg>