<svg width="24" height="24" viewBox="0 0 24 24" fill="none" xmlns="http://www.w3.org/2000/svg"><path d="M8.580 2.028 C 7.906 2.117,7.218 2.567,6.872 3.144 C 6.396 3.935,2.209 11.630,2.128 11.860 C 1.676 13.151,2.482 14.585,3.858 14.939 C 4.066 14.992,4.717 15.000,8.902 15.000 C 13.556 15.000,13.717 14.998,14.016 14.921 C 14.822 14.715,15.455 14.123,15.702 13.345 C 15.900 12.721,15.863 12.161,15.586 11.581 C 15.512 11.427,14.724 9.977,13.833 8.360 C 12.943 6.743,11.919 4.881,11.557 4.221 C 10.949 3.111,10.878 3.000,10.600 2.720 C 10.062 2.178,9.333 1.928,8.580 2.028 M17.113 9.716 C 16.987 9.816,16.902 10.041,16.942 10.169 C 16.958 10.219,17.120 10.539,17.304 10.880 C 17.846 11.888,17.971 12.307,17.971 13.120 C 17.972 14.618,17.141 15.941,15.786 16.600 C 15.021 16.972,15.031 16.971,12.420 16.997 C 9.961 17.022,10.016 17.017,9.900 17.239 C 9.811 17.412,9.825 17.550,9.978 18.018 C 10.702 20.225,12.539 21.865,14.854 22.368 C 15.203 22.444,15.384 22.457,16.140 22.458 C 16.910 22.458,17.072 22.447,17.440 22.367 C 18.052 22.233,18.517 22.070,19.060 21.798 C 20.867 20.894,22.125 19.236,22.528 17.229 C 22.659 16.576,22.659 15.414,22.529 14.769 C 22.052 12.417,20.399 10.551,18.140 9.818 C 17.563 9.630,17.259 9.600,17.113 9.716 " fill="#292D32" stroke="none" fill-rule="evenodd"></path></svg>