<svg width="24" height="24" viewBox="0 0 24 24" fill="none" xmlns="http://www.w3.org/2000/svg"><path d="M11.734 2.043 C 10.653 2.151,9.725 2.911,9.372 3.979 C 9.280 4.257,9.265 4.369,9.263 4.820 C 9.260 5.257,9.275 5.388,9.353 5.640 C 9.635 6.549,10.331 7.245,11.240 7.527 C 11.489 7.604,11.628 7.620,12.060 7.620 C 12.645 7.620,12.901 7.557,13.420 7.288 C 13.753 7.114,14.272 6.614,14.473 6.273 C 14.959 5.446,14.984 4.376,14.536 3.520 C 14.004 2.501,12.911 1.925,11.734 2.043 M16.490 5.404 C 16.305 5.496,16.199 5.622,16.126 5.836 C 16.000 6.207,16.111 6.415,16.665 6.842 C 18.280 8.088,19.274 9.766,19.597 11.796 C 19.664 12.216,19.693 12.314,19.791 12.436 C 19.942 12.625,20.136 12.720,20.372 12.720 C 20.590 12.720,20.732 12.658,20.887 12.494 C 21.104 12.265,21.124 12.065,21.002 11.354 C 20.816 10.266,20.358 9.065,19.777 8.140 C 19.225 7.261,18.408 6.351,17.640 5.761 C 17.048 5.305,16.828 5.237,16.490 5.404 M6.970 5.419 C 6.617 5.573,5.613 6.466,5.102 7.080 C 4.049 8.346,3.360 9.847,3.102 11.441 C 2.987 12.150,3.034 12.420,3.310 12.631 C 3.498 12.773,3.873 12.801,4.080 12.688 C 4.330 12.552,4.430 12.355,4.501 11.860 C 4.790 9.842,5.781 8.148,7.445 6.830 C 7.850 6.508,7.961 6.345,7.959 6.069 C 7.958 5.915,7.842 5.647,7.734 5.552 C 7.532 5.372,7.208 5.316,6.970 5.419 M4.456 13.937 C 3.766 14.094,3.122 14.534,2.720 15.122 C 1.978 16.206,2.115 17.713,3.039 18.644 C 3.525 19.134,4.045 19.393,4.709 19.476 C 5.886 19.624,7.028 19.014,7.564 17.952 C 7.914 17.258,7.949 16.360,7.653 15.630 C 7.345 14.869,6.696 14.272,5.900 14.015 C 5.503 13.887,4.834 13.851,4.456 13.937 M18.380 13.937 C 17.633 14.110,17.016 14.524,16.623 15.117 C 16.287 15.623,16.148 16.098,16.152 16.720 C 16.163 18.404,17.623 19.685,19.293 19.476 C 19.964 19.392,20.441 19.156,20.941 18.660 C 21.206 18.397,21.297 18.272,21.450 17.960 C 22.229 16.371,21.449 14.519,19.780 14.000 C 19.421 13.888,18.726 13.857,18.380 13.937 M8.066 19.697 C 7.754 19.811,7.589 20.055,7.592 20.394 C 7.595 20.811,7.799 20.982,8.741 21.356 C 9.439 21.633,10.201 21.826,10.980 21.923 C 11.517 21.989,12.697 21.979,13.273 21.902 C 14.408 21.751,15.950 21.234,16.220 20.913 C 16.520 20.556,16.405 20.006,15.987 19.803 C 15.761 19.694,15.592 19.699,15.300 19.825 C 14.785 20.046,14.049 20.286,13.586 20.383 C 12.990 20.509,11.764 20.560,11.180 20.483 C 10.358 20.375,9.617 20.170,8.904 19.855 C 8.442 19.650,8.277 19.619,8.066 19.697 " fill="#292D32" stroke="none" fill-rule="evenodd"></path></svg>