<svg width="24" height="24" viewBox="0 0 24 24" fill="none" xmlns="http://www.w3.org/2000/svg"><path d="M11.220 1.997 C 10.716 2.126,5.361 4.154,5.062 4.330 C 4.367 4.738,3.753 5.616,3.601 6.420 C 3.569 6.592,3.559 7.905,3.568 11.080 L 3.580 15.500 3.686 15.786 C 3.846 16.216,4.034 16.573,4.259 16.871 C 4.440 17.112,4.748 17.355,7.220 19.211 C 8.738 20.350,10.125 21.379,10.301 21.499 C 10.506 21.637,10.760 21.763,11.001 21.847 C 11.363 21.972,11.408 21.978,11.980 21.979 C 12.650 21.980,12.951 21.915,13.420 21.666 C 13.728 21.502,19.144 17.461,19.454 17.164 C 19.847 16.787,20.158 16.261,20.345 15.660 C 20.416 15.432,20.420 15.200,20.420 10.920 L 20.420 6.420 20.327 6.140 C 20.219 5.817,20.048 5.465,19.870 5.203 C 19.689 4.936,19.211 4.480,18.948 4.325 C 18.674 4.163,13.089 2.058,12.720 1.978 C 12.351 1.898,11.571 1.908,11.220 1.997 M15.227 8.483 C 15.367 8.535,15.548 8.704,15.626 8.854 C 15.706 9.006,15.702 9.361,15.618 9.526 C 15.545 9.672,11.308 13.941,11.078 14.101 C 11.001 14.155,10.852 14.211,10.748 14.225 C 10.393 14.274,10.301 14.208,9.324 13.221 C 8.793 12.684,8.414 12.267,8.379 12.183 C 8.185 11.720,8.462 11.210,8.945 11.137 C 9.269 11.089,9.430 11.186,10.091 11.835 L 10.684 12.416 12.612 10.490 C 13.672 9.430,14.594 8.536,14.660 8.502 C 14.799 8.431,15.066 8.421,15.227 8.483 " fill="#292D32" stroke="none" fill-rule="evenodd"></path></svg>