<svg width="24" height="24" viewBox="0 0 24 24" fill="none" xmlns="http://www.w3.org/2000/svg"><path d="M11.260 1.980 C 10.894 2.062,5.311 4.172,5.054 4.325 C 4.562 4.619,4.027 5.253,3.784 5.830 C 3.554 6.378,3.561 6.204,3.561 10.946 L 3.560 15.311 3.660 15.657 C 3.878 16.407,4.291 17.023,4.859 17.444 L 5.201 17.697 3.685 19.218 C 2.851 20.055,2.142 20.795,2.108 20.861 C 1.947 21.181,1.995 21.524,2.235 21.764 C 2.467 21.996,2.777 22.056,3.060 21.923 C 3.172 21.871,6.039 19.026,12.566 12.494 C 20.262 4.791,21.920 3.113,21.960 2.985 C 22.165 2.337,21.432 1.776,20.839 2.128 C 20.741 2.187,20.222 2.674,19.686 3.211 L 18.713 4.188 15.846 3.111 C 14.270 2.519,12.863 2.009,12.720 1.978 C 12.394 1.907,11.581 1.908,11.260 1.980 M19.200 7.995 C 19.145 8.013,19.037 8.059,18.960 8.098 C 18.784 8.186,8.449 18.505,8.253 18.788 C 8.131 18.965,8.107 19.037,8.090 19.277 C 8.072 19.526,8.082 19.583,8.180 19.784 C 8.285 19.999,8.344 20.050,9.335 20.791 C 10.418 21.600,10.740 21.791,11.207 21.898 C 12.033 22.088,12.938 21.967,13.555 21.586 C 13.929 21.354,19.329 17.308,19.516 17.120 C 19.896 16.736,20.265 16.040,20.382 15.486 C 20.428 15.270,20.438 14.618,20.438 12.000 C 20.436 8.540,20.441 8.627,20.229 8.349 C 20.028 8.085,19.490 7.900,19.200 7.995 " fill="#292D32" stroke="none" fill-rule="evenodd"></path></svg>