<svg width="24" height="24" viewBox="0 0 24 24" fill="none" xmlns="http://www.w3.org/2000/svg"><path d="M10.312 2.018 C 9.904 2.103,4.392 4.178,4.065 4.369 C 3.422 4.745,2.890 5.449,2.629 6.269 C 2.543 6.538,2.542 6.570,2.529 10.760 C 2.519 13.707,2.529 15.073,2.560 15.289 C 2.663 16.006,3.040 16.761,3.526 17.226 C 3.858 17.543,9.328 21.595,9.517 21.664 C 9.756 21.751,10.695 21.788,11.012 21.722 C 11.515 21.617,11.855 21.213,11.851 20.727 C 11.848 20.444,11.760 20.256,11.481 19.938 C 10.420 18.725,9.885 17.075,10.034 15.480 C 10.165 14.076,10.731 12.934,11.837 11.840 C 12.742 10.945,13.801 10.345,14.880 10.117 C 15.214 10.046,15.435 10.028,15.960 10.027 C 16.719 10.026,17.178 10.093,17.853 10.304 C 18.356 10.462,18.515 10.471,18.817 10.358 C 19.075 10.261,19.320 10.010,19.393 9.768 C 19.425 9.660,19.440 9.146,19.440 8.118 C 19.440 6.466,19.428 6.356,19.179 5.813 C 18.885 5.169,18.343 4.575,17.799 4.300 C 17.570 4.183,12.251 2.181,11.880 2.071 C 11.534 1.969,10.686 1.940,10.312 2.018 M15.249 11.577 C 14.289 11.760,13.495 12.174,12.837 12.835 C 12.258 13.417,11.858 14.101,11.649 14.872 C 11.552 15.228,11.544 15.322,11.545 16.020 C 11.546 16.669,11.558 16.825,11.631 17.088 C 11.961 18.284,12.648 19.219,13.657 19.842 C 15.082 20.723,16.918 20.723,18.343 19.842 C 19.352 19.219,20.039 18.284,20.369 17.088 C 20.442 16.825,20.454 16.669,20.455 16.020 C 20.456 15.317,20.448 15.230,20.348 14.861 C 20.058 13.789,19.364 12.842,18.424 12.234 C 17.703 11.767,17.018 11.560,16.120 11.537 C 15.733 11.527,15.443 11.540,15.249 11.577 M20.694 20.055 C 20.446 20.136,20.291 20.263,20.160 20.493 C 19.948 20.864,19.962 21.235,20.201 21.582 C 20.511 22.032,21.140 22.122,21.605 21.782 C 22.162 21.374,22.097 20.479,21.486 20.147 C 21.239 20.013,20.932 19.977,20.694 20.055 " fill="#292D32" stroke="none" fill-rule="evenodd"></path></svg>