<svg width="24" height="24" viewBox="0 0 24 24" fill="none" xmlns="http://www.w3.org/2000/svg"><path d="M11.420 2.003 C 11.310 2.022,11.139 2.062,11.040 2.093 C 10.678 2.206,5.386 4.206,5.201 4.300 C 4.691 4.558,4.171 5.109,3.882 5.700 C 3.539 6.399,3.560 6.062,3.560 10.986 C 3.560 15.940,3.539 15.613,3.900 16.342 C 4.246 17.040,4.228 17.024,7.435 19.426 C 9.206 20.751,10.449 21.655,10.620 21.740 C 11.443 22.152,12.547 22.155,13.359 21.748 C 13.566 21.644,18.660 17.886,19.349 17.329 C 19.754 17.001,20.201 16.246,20.360 15.624 C 20.438 15.316,20.440 15.183,20.440 10.980 C 20.440 6.789,20.437 6.643,20.360 6.336 C 20.136 5.447,19.515 4.658,18.740 4.279 C 18.202 4.016,12.975 2.078,12.640 2.017 C 12.309 1.957,11.730 1.951,11.420 2.003 M12.680 8.102 C 13.122 8.236,13.407 8.407,13.745 8.740 C 14.009 9.000,14.100 9.124,14.231 9.400 C 14.425 9.807,14.480 10.052,14.480 10.500 C 14.480 10.953,14.424 11.197,14.228 11.600 C 13.996 12.079,13.587 12.486,13.109 12.718 L 12.765 12.885 12.752 14.292 C 12.739 15.831,12.741 15.813,12.494 16.047 C 12.217 16.309,11.783 16.309,11.506 16.047 C 11.258 15.813,11.261 15.833,11.248 14.270 C 11.238 13.125,11.225 12.840,11.183 12.840 C 11.066 12.840,10.566 12.551,10.352 12.361 C 10.070 12.109,9.759 11.652,9.641 11.314 C 9.529 10.996,9.489 10.349,9.558 9.990 C 9.702 9.239,10.304 8.511,11.036 8.203 C 11.536 7.993,12.190 7.953,12.680 8.102 " fill="#292D32" stroke="none" fill-rule="evenodd"></path></svg>