<svg width="24" height="24" viewBox="0 0 24 24" fill="none" xmlns="http://www.w3.org/2000/svg"><path d="M11.220 1.997 C 10.716 2.126,5.361 4.154,5.062 4.330 C 4.367 4.738,3.753 5.616,3.601 6.420 C 3.569 6.592,3.559 7.905,3.568 11.080 L 3.580 15.500 3.686 15.786 C 3.846 16.216,4.034 16.573,4.259 16.871 C 4.440 17.112,4.748 17.355,7.220 19.211 C 8.738 20.350,10.125 21.379,10.301 21.499 C 10.506 21.637,10.760 21.763,11.001 21.847 C 11.363 21.972,11.408 21.978,11.980 21.979 C 12.650 21.980,12.951 21.915,13.420 21.666 C 13.728 21.502,19.144 17.461,19.454 17.164 C 19.847 16.787,20.158 16.261,20.345 15.660 C 20.416 15.432,20.420 15.200,20.420 10.920 L 20.420 6.420 20.327 6.140 C 20.219 5.817,20.048 5.465,19.870 5.203 C 19.689 4.936,19.211 4.480,18.948 4.325 C 18.674 4.163,13.089 2.058,12.720 1.978 C 12.351 1.898,11.571 1.908,11.220 1.997 M10.293 8.557 C 10.363 8.600,10.779 8.997,11.218 9.437 L 12.017 10.238 12.860 9.403 C 13.776 8.496,13.858 8.441,14.218 8.498 C 14.701 8.574,14.985 9.124,14.763 9.552 C 14.720 9.633,14.324 10.060,13.883 10.499 L 13.081 11.298 13.916 12.139 C 14.375 12.602,14.780 13.038,14.815 13.108 C 14.956 13.387,14.847 13.864,14.602 14.038 C 14.541 14.082,14.410 14.139,14.309 14.166 C 13.953 14.261,13.883 14.215,12.910 13.247 L 12.040 12.382 11.170 13.249 C 10.614 13.803,10.246 14.138,10.151 14.178 C 9.699 14.367,9.185 14.069,9.131 13.585 C 9.092 13.241,9.143 13.167,10.094 12.210 L 10.978 11.319 10.131 10.470 C 9.258 9.595,9.160 9.464,9.160 9.174 C 9.160 8.880,9.390 8.569,9.675 8.476 C 9.832 8.425,10.149 8.466,10.293 8.557 " fill="#292D32" stroke="none" fill-rule="evenodd"></path></svg>