<svg width="24" height="24" viewBox="0 0 24 24" fill="none" xmlns="http://www.w3.org/2000/svg"><path d="M10.240 2.037 C 10.046 2.097,9.891 2.197,9.761 2.345 C 9.526 2.613,9.520 2.650,9.520 3.875 L 9.520 4.993 8.510 5.010 C 7.361 5.029,7.167 5.066,6.580 5.373 C 6.135 5.605,5.605 6.135,5.373 6.580 C 5.068 7.162,5.030 7.364,5.010 8.479 C 4.998 9.134,5.007 9.507,5.037 9.607 C 5.097 9.805,5.280 9.934,5.496 9.931 C 5.613 9.929,6.313 9.664,7.940 9.009 C 9.250 8.481,10.390 8.046,10.620 7.986 C 11.503 7.756,12.490 7.754,13.380 7.979 C 13.624 8.040,14.676 8.440,16.070 9.000 C 17.579 9.606,18.408 9.920,18.504 9.920 C 18.694 9.920,18.864 9.815,18.943 9.647 C 18.999 9.530,19.005 9.374,18.990 8.506 C 18.969 7.361,18.932 7.163,18.627 6.580 C 18.395 6.135,17.865 5.605,17.420 5.373 C 16.833 5.066,16.639 5.029,15.490 5.010 L 14.480 4.993 14.480 3.875 C 14.480 3.017,14.467 2.727,14.425 2.626 C 14.347 2.438,14.134 2.210,13.944 2.108 C 13.783 2.022,13.746 2.020,12.060 2.013 C 11.114 2.009,10.295 2.019,10.240 2.037 M11.440 9.344 C 10.982 9.427,10.339 9.667,7.180 10.929 C 5.200 11.720,3.493 12.415,3.386 12.472 C 2.804 12.787,2.392 13.439,2.335 14.134 C 2.314 14.389,2.341 14.551,2.578 15.618 C 2.885 16.996,3.042 17.517,3.346 18.159 C 3.695 18.896,4.095 19.462,4.677 20.041 C 5.573 20.932,6.499 21.458,7.709 21.764 C 8.596 21.988,8.812 22.000,11.964 22.000 C 15.000 22.000,15.301 21.986,16.077 21.814 C 17.380 21.525,18.391 20.973,19.322 20.042 C 20.108 19.257,20.667 18.337,21.013 17.260 C 21.173 16.759,21.631 14.742,21.666 14.378 C 21.696 14.071,21.574 13.565,21.393 13.247 C 21.231 12.962,20.882 12.612,20.620 12.473 C 20.295 12.300,13.245 9.498,12.940 9.420 C 12.669 9.351,11.678 9.301,11.440 9.344 " fill="#292D32" stroke="none" fill-rule="evenodd"></path></svg>