<svg width="24" height="24" viewBox="0 0 24 24" fill="none" xmlns="http://www.w3.org/2000/svg"><path d="M6.360 1.867 C 3.986 2.004,2.819 3.067,2.362 5.511 C 2.318 5.747,2.217 6.606,2.137 7.420 C 1.976 9.070,1.976 9.378,2.136 10.008 C 2.478 11.355,3.520 12.407,4.869 12.765 C 5.270 12.872,6.085 12.910,6.510 12.841 C 7.351 12.705,8.158 12.263,8.770 11.602 L 9.031 11.320 9.102 11.430 C 9.229 11.624,9.653 12.044,9.900 12.220 C 10.352 12.541,10.870 12.754,11.416 12.842 C 11.846 12.911,12.658 12.871,13.040 12.761 C 13.700 12.571,14.387 12.132,14.787 11.642 L 15.002 11.378 15.393 11.759 C 16.169 12.516,17.055 12.880,18.119 12.880 C 19.673 12.880,20.982 12.043,21.639 10.629 C 22.030 9.788,22.059 9.241,21.824 7.100 C 21.666 5.656,21.551 5.010,21.354 4.447 C 20.770 2.785,19.710 2.030,17.750 1.881 C 17.277 1.845,6.967 1.833,6.360 1.867 M13.832 6.316 C 14.123 6.464,14.256 6.708,14.232 7.046 C 14.219 7.229,14.190 7.310,14.096 7.425 C 13.852 7.728,13.906 7.720,12.000 7.720 C 10.094 7.720,10.148 7.728,9.904 7.425 C 9.686 7.156,9.727 6.662,9.986 6.435 C 10.206 6.242,10.197 6.243,11.992 6.242 C 13.574 6.240,13.693 6.245,13.832 6.316 M8.805 12.867 C 8.576 13.047,8.054 13.347,7.741 13.477 C 6.740 13.894,5.668 13.962,4.577 13.678 C 3.790 13.473,3.456 13.547,3.141 13.995 L 3.020 14.167 3.009 15.969 C 3.000 17.433,3.009 17.836,3.058 18.121 C 3.232 19.128,3.673 19.988,4.380 20.702 C 5.085 21.412,5.820 21.819,6.820 22.052 C 7.172 22.135,7.276 22.137,11.760 22.150 C 16.618 22.165,16.797 22.160,17.486 21.977 C 17.939 21.857,18.722 21.478,19.081 21.206 C 19.419 20.948,19.977 20.368,20.197 20.045 C 20.449 19.674,20.742 19.035,20.856 18.606 C 21.020 17.993,21.046 17.591,21.032 15.840 C 21.020 14.255,21.018 14.216,20.931 14.054 C 20.811 13.830,20.585 13.650,20.325 13.574 C 20.088 13.505,20.053 13.509,19.348 13.695 C 17.979 14.056,16.525 13.794,15.352 12.976 L 15.044 12.761 14.732 12.986 C 13.623 13.788,12.177 14.050,10.813 13.698 C 10.340 13.575,9.642 13.247,9.261 12.966 C 9.107 12.852,8.972 12.760,8.961 12.760 C 8.949 12.761,8.879 12.809,8.805 12.867 " fill="#292D32" stroke="none" fill-rule="evenodd"></path></svg>