<svg width="24" height="24" viewBox="0 0 24 24" fill="none" xmlns="http://www.w3.org/2000/svg"><path d="M1.807 1.287 C 1.276 1.406,1.085 2.125,1.480 2.520 C 1.692 2.732,1.866 2.760,2.997 2.760 C 4.045 2.760,4.161 2.779,4.441 3.001 C 4.652 3.168,4.840 3.551,4.840 3.812 C 4.840 3.922,4.793 4.580,4.736 5.274 C 4.621 6.668,4.625 6.729,4.844 6.978 C 5.094 7.263,4.432 7.243,13.163 7.231 L 21.026 7.220 21.192 7.110 C 21.284 7.049,21.399 6.923,21.449 6.830 C 21.529 6.681,21.539 6.606,21.536 6.220 C 21.531 5.715,21.461 5.399,21.258 4.976 C 20.906 4.238,20.299 3.718,19.460 3.435 L 19.180 3.340 12.725 3.320 L 6.271 3.300 6.203 3.080 C 5.896 2.089,5.080 1.413,4.034 1.282 C 3.625 1.230,2.043 1.234,1.807 1.287 M4.797 8.853 C 4.683 8.913,4.579 9.012,4.505 9.132 L 4.390 9.318 4.193 11.649 C 4.062 13.193,4.003 14.082,4.018 14.282 C 4.095 15.322,4.701 16.230,5.620 16.682 C 6.274 17.004,5.727 16.980,12.480 16.980 L 18.500 16.980 18.800 16.886 C 19.853 16.558,20.626 15.758,20.879 14.736 C 20.937 14.501,20.999 13.828,21.119 12.120 C 21.208 10.855,21.280 9.707,21.280 9.568 C 21.280 9.251,21.178 9.039,20.952 8.890 L 20.786 8.780 12.880 8.770 L 4.974 8.759 4.797 8.853 M7.882 19.044 C 7.397 19.139,6.927 19.513,6.690 19.992 C 6.543 20.290,6.540 20.304,6.540 20.758 C 6.540 21.200,6.546 21.232,6.673 21.492 C 6.845 21.845,7.155 22.155,7.508 22.327 C 7.768 22.454,7.800 22.460,8.242 22.460 C 8.696 22.460,8.710 22.457,9.008 22.310 C 9.702 21.967,10.103 21.200,9.969 20.475 C 9.782 19.474,8.872 18.850,7.882 19.044 M15.810 19.062 C 15.394 19.174,15.045 19.423,14.794 19.789 C 14.337 20.453,14.433 21.399,15.017 21.983 C 15.601 22.567,16.547 22.663,17.211 22.206 C 18.128 21.576,18.265 20.322,17.504 19.542 C 17.063 19.091,16.400 18.903,15.810 19.062 " fill="#292D32" stroke="none" fill-rule="evenodd"></path></svg>