<svg width="24" height="24" viewBox="0 0 24 24" fill="none" xmlns="http://www.w3.org/2000/svg"><path d="M5.899 1.281 C 4.137 1.421,3.032 2.114,2.417 3.465 C 2.064 4.237,1.921 4.926,1.732 6.740 C 1.516 8.828,1.531 9.314,1.840 10.166 C 2.192 11.140,3.095 12.073,4.037 12.436 C 5.213 12.890,6.340 12.850,7.416 12.315 C 7.834 12.108,8.202 11.831,8.570 11.446 L 8.871 11.130 9.095 11.404 C 9.819 12.291,11.092 12.831,12.250 12.744 C 12.658 12.713,13.241 12.573,13.569 12.427 C 14.081 12.200,14.717 11.700,14.983 11.316 L 15.092 11.159 15.417 11.491 C 15.974 12.060,16.669 12.458,17.440 12.651 C 17.953 12.779,18.793 12.768,19.340 12.626 C 20.071 12.436,20.813 12.003,21.275 11.498 C 21.906 10.807,22.281 9.963,22.354 9.064 C 22.392 8.588,22.396 8.640,22.217 6.900 C 22.064 5.403,22.005 4.997,21.862 4.460 C 21.496 3.083,20.927 2.281,19.962 1.784 C 19.536 1.564,19.222 1.460,18.660 1.351 C 18.224 1.267,18.160 1.266,12.260 1.258 C 8.982 1.253,6.119 1.264,5.899 1.281 M8.549 12.799 C 8.399 12.906,8.120 13.074,7.929 13.173 C 6.759 13.774,5.573 13.899,4.255 13.559 C 3.546 13.376,3.233 13.413,2.928 13.718 C 2.647 13.999,2.660 13.881,2.661 16.120 L 2.662 18.140 2.788 18.609 C 3.168 20.026,4.097 21.181,5.372 21.825 C 6.041 22.163,6.805 22.360,7.443 22.360 C 7.794 22.360,7.926 22.316,8.029 22.164 C 8.093 22.070,8.102 21.893,8.122 20.300 L 8.145 18.540 8.254 18.182 C 8.549 17.223,9.187 16.456,10.052 16.023 C 10.603 15.747,10.931 15.675,11.747 15.650 C 12.704 15.622,13.274 15.714,13.905 16.000 C 14.622 16.324,15.256 16.982,15.559 17.718 C 15.835 18.386,15.878 18.768,15.879 20.514 C 15.880 22.113,15.889 22.181,16.123 22.302 C 16.376 22.433,17.264 22.342,17.936 22.117 C 19.626 21.551,20.832 20.209,21.266 18.413 C 21.321 18.184,21.334 17.823,21.348 16.160 L 21.364 14.180 21.252 13.960 C 21.113 13.687,20.877 13.503,20.582 13.437 C 20.349 13.385,20.385 13.379,19.580 13.596 C 19.183 13.703,18.442 13.774,18.040 13.743 C 17.103 13.673,16.136 13.325,15.416 12.800 L 15.154 12.609 14.869 12.823 C 14.343 13.219,13.543 13.558,12.840 13.685 C 12.409 13.762,11.499 13.751,11.080 13.662 C 10.374 13.514,9.656 13.198,9.118 12.799 C 8.971 12.689,8.843 12.601,8.835 12.602 C 8.827 12.604,8.698 12.692,8.549 12.799 M11.340 16.665 C 10.908 16.750,10.788 16.784,10.580 16.879 C 9.855 17.210,9.327 17.884,9.177 18.669 C 9.095 19.100,9.094 21.902,9.177 22.099 C 9.290 22.368,9.198 22.360,12.015 22.360 L 14.554 22.360 14.676 22.257 C 14.743 22.201,14.816 22.089,14.839 22.007 C 14.891 21.817,14.892 19.685,14.840 19.092 C 14.777 18.383,14.544 17.781,14.187 17.406 C 13.865 17.067,13.327 16.800,12.760 16.697 C 12.488 16.648,11.536 16.626,11.340 16.665 " fill="#292D32" stroke="none" fill-rule="evenodd"></path></svg>