<svg width="24" height="24" viewBox="0 0 24 24" fill="none" xmlns="http://www.w3.org/2000/svg"><path d="M6.360 1.867 C 3.986 2.004,2.819 3.067,2.362 5.511 C 2.229 6.223,1.989 8.837,2.017 9.267 C 2.128 10.948,3.246 12.320,4.869 12.769 C 5.292 12.885,6.404 12.898,6.794 12.790 C 7.541 12.583,8.241 12.168,8.724 11.646 L 9.014 11.333 9.223 11.593 C 9.733 12.228,10.571 12.706,11.416 12.842 C 11.846 12.911,12.658 12.871,13.040 12.761 C 13.701 12.571,14.387 12.132,14.788 11.640 L 15.005 11.375 15.352 11.722 C 15.878 12.247,16.438 12.579,17.116 12.766 C 17.548 12.886,18.376 12.912,18.859 12.821 C 20.328 12.546,21.503 11.427,21.884 9.940 C 21.960 9.645,21.976 9.478,21.975 9.020 C 21.973 8.331,21.719 5.949,21.576 5.267 C 21.168 3.335,20.250 2.331,18.570 1.981 C 17.962 1.855,17.226 1.840,11.900 1.847 C 8.974 1.852,6.481 1.860,6.360 1.867 M12.404 4.898 C 12.674 5.077,12.738 5.236,12.754 5.770 L 12.768 6.240 13.226 6.240 C 13.824 6.240,13.999 6.320,14.180 6.676 C 14.287 6.888,14.248 7.238,14.096 7.425 C 13.893 7.676,13.765 7.720,13.235 7.720 L 12.768 7.720 12.754 8.233 C 12.741 8.714,12.733 8.756,12.630 8.912 C 12.335 9.358,11.665 9.358,11.370 8.912 C 11.267 8.756,11.259 8.714,11.246 8.233 L 11.232 7.720 10.765 7.720 C 10.235 7.720,10.107 7.676,9.904 7.425 C 9.752 7.238,9.713 6.888,9.820 6.676 C 10.002 6.319,10.175 6.240,10.778 6.240 L 11.240 6.240 11.241 5.810 C 11.242 5.339,11.300 5.142,11.491 4.967 C 11.732 4.744,12.127 4.715,12.404 4.898 M8.805 12.867 C 8.576 13.047,8.054 13.347,7.741 13.477 C 6.740 13.894,5.668 13.962,4.577 13.678 C 3.790 13.473,3.456 13.547,3.141 13.995 L 3.020 14.167 3.009 15.969 C 3.000 17.433,3.009 17.836,3.058 18.121 C 3.232 19.128,3.673 19.988,4.380 20.702 C 5.085 21.412,5.820 21.819,6.820 22.052 C 7.172 22.135,7.276 22.137,11.760 22.150 C 16.618 22.165,16.797 22.160,17.486 21.977 C 17.939 21.857,18.722 21.478,19.081 21.206 C 19.419 20.948,19.977 20.368,20.197 20.045 C 20.449 19.674,20.742 19.035,20.856 18.606 C 21.020 17.993,21.046 17.591,21.032 15.840 C 21.020 14.255,21.018 14.216,20.931 14.054 C 20.811 13.830,20.585 13.650,20.325 13.574 C 20.088 13.505,20.053 13.509,19.348 13.695 C 17.979 14.056,16.525 13.794,15.352 12.976 L 15.044 12.761 14.732 12.986 C 13.623 13.788,12.177 14.050,10.813 13.698 C 10.340 13.575,9.642 13.247,9.261 12.966 C 9.107 12.852,8.972 12.760,8.961 12.760 C 8.949 12.761,8.879 12.809,8.805 12.867 " fill="#292D32" stroke="none" fill-rule="evenodd"></path></svg>