<svg width="24" height="24" viewBox="0 0 24 24" fill="none" xmlns="http://www.w3.org/2000/svg"><path d="M10.061 1.284 C 8.893 1.407,7.921 2.123,7.507 3.165 C 7.283 3.728,7.269 3.842,7.251 5.265 L 7.234 6.591 7.030 6.618 C 6.711 6.660,6.125 6.863,5.845 7.029 C 5.181 7.421,4.786 8.055,4.581 9.060 C 4.481 9.546,3.520 17.588,3.492 18.164 C 3.382 20.488,4.503 21.760,6.840 21.962 C 7.177 21.991,8.971 22.000,12.360 21.990 C 17.898 21.973,17.611 21.986,18.419 21.717 C 19.724 21.283,20.441 20.252,20.509 18.712 C 20.534 18.146,20.503 18.010,20.319 17.880 C 20.211 17.803,20.093 17.801,14.015 17.791 L 7.820 17.780 7.654 17.685 C 7.448 17.567,7.335 17.419,7.273 17.186 C 7.186 16.860,7.368 16.505,7.698 16.355 C 7.853 16.285,8.125 16.282,13.854 16.281 C 20.434 16.280,20.023 16.295,20.172 16.043 C 20.209 15.980,20.240 15.848,20.240 15.750 C 20.240 15.474,19.527 9.599,19.436 9.131 C 19.233 8.075,18.842 7.434,18.156 7.029 C 17.875 6.863,17.288 6.660,16.970 6.618 L 16.767 6.591 16.749 5.265 C 16.735 4.206,16.718 3.889,16.665 3.685 C 16.300 2.282,15.311 1.429,13.877 1.282 C 13.404 1.233,10.528 1.235,10.061 1.284 M13.968 2.804 C 14.597 2.936,15.063 3.401,15.195 4.032 C 15.222 4.159,15.240 4.698,15.240 5.382 L 15.240 6.520 12.000 6.520 L 8.760 6.520 8.760 5.382 C 8.760 4.704,8.778 4.158,8.804 4.032 C 8.932 3.419,9.373 2.963,9.980 2.816 C 10.248 2.750,13.663 2.741,13.968 2.804 " fill="#292D32" stroke="none" fill-rule="evenodd"></path></svg>