<svg width="24" height="24" viewBox="0 0 24 24" fill="none" xmlns="http://www.w3.org/2000/svg"><path d="M18.700 3.356 C 18.479 3.457,18.358 3.602,18.298 3.834 C 18.202 4.203,18.277 4.363,18.793 4.890 L 19.175 5.280 17.590 5.280 C 15.853 5.280,15.694 5.295,15.133 5.520 C 14.727 5.683,14.314 5.957,13.997 6.275 C 13.788 6.485,13.043 7.574,10.411 11.520 C 8.030 15.089,7.028 16.559,6.874 16.708 C 6.646 16.929,6.282 17.131,5.995 17.198 C 5.895 17.221,5.186 17.238,4.333 17.239 C 3.381 17.240,2.805 17.255,2.733 17.283 C 2.458 17.386,2.269 17.674,2.269 17.986 C 2.269 18.232,2.355 18.399,2.574 18.576 L 2.727 18.700 4.454 18.700 C 6.136 18.700,6.188 18.698,6.497 18.608 C 7.167 18.414,7.825 17.983,8.226 17.476 C 8.338 17.335,9.887 15.033,11.670 12.360 C 13.452 9.687,14.986 7.423,15.078 7.329 C 15.272 7.130,15.476 6.994,15.770 6.869 C 15.978 6.781,16.000 6.780,18.626 6.760 L 21.273 6.740 21.426 6.616 C 21.511 6.547,21.613 6.435,21.653 6.366 C 21.746 6.209,21.753 5.859,21.668 5.698 C 21.562 5.499,19.439 3.411,19.271 3.341 C 19.076 3.261,18.896 3.265,18.700 3.356 M2.700 5.343 C 2.410 5.494,2.269 5.718,2.269 6.026 C 2.269 6.272,2.355 6.439,2.574 6.616 L 2.727 6.740 4.394 6.761 C 6.003 6.781,6.068 6.785,6.284 6.871 C 6.803 7.080,6.967 7.241,7.697 8.260 C 8.462 9.329,8.520 9.380,8.941 9.353 C 9.243 9.333,9.429 9.211,9.556 8.948 C 9.656 8.742,9.662 8.571,9.579 8.370 C 9.491 8.161,8.386 6.631,8.104 6.330 C 7.656 5.850,6.988 5.483,6.312 5.343 C 5.858 5.250,2.879 5.250,2.700 5.343 M12.660 14.706 C 12.301 14.896,12.150 15.221,12.256 15.574 C 12.305 15.735,13.159 16.887,13.751 17.589 C 14.124 18.031,14.751 18.420,15.423 18.626 L 15.780 18.736 17.475 18.751 L 19.169 18.766 18.746 19.195 C 18.382 19.565,18.320 19.648,18.297 19.791 C 18.264 19.994,18.265 19.967,18.295 20.160 C 18.325 20.347,18.522 20.588,18.708 20.666 C 18.892 20.743,19.148 20.733,19.338 20.641 C 19.442 20.591,19.897 20.164,20.587 19.471 C 21.486 18.567,21.679 18.353,21.716 18.220 C 21.770 18.022,21.770 17.978,21.718 17.789 C 21.673 17.630,21.487 17.390,21.345 17.308 C 21.282 17.272,20.570 17.255,18.560 17.240 C 15.869 17.220,15.859 17.220,15.636 17.129 C 15.180 16.945,15.026 16.797,14.232 15.779 C 13.413 14.729,13.312 14.639,12.964 14.642 C 12.863 14.642,12.726 14.672,12.660 14.706 " fill="#292D32" stroke="none" fill-rule="evenodd"></path></svg>