<svg width="24" height="24" viewBox="0 0 24 24" fill="none" xmlns="http://www.w3.org/2000/svg"><path d="M6.940 2.047 C 4.153 2.328,2.351 4.124,2.043 6.928 C 2.015 7.182,2.000 8.952,2.000 12.016 C 2.000 17.056,2.004 17.172,2.207 18.000 C 2.689 19.969,4.031 21.311,6.000 21.793 C 6.815 21.993,7.003 22.000,11.282 22.000 L 15.280 22.000 15.280 12.000 L 15.280 2.000 11.290 2.005 C 9.095 2.008,7.138 2.027,6.940 2.047 M16.800 12.001 L 16.800 21.971 17.089 21.945 C 18.435 21.820,19.695 21.243,20.520 20.374 C 21.232 19.625,21.674 18.701,21.892 17.506 C 21.980 17.021,21.980 17.007,21.980 12.000 C 21.980 7.001,21.980 6.978,21.892 6.497 C 21.672 5.287,21.233 4.368,20.523 3.628 C 19.677 2.747,18.476 2.201,17.070 2.058 L 16.800 2.031 16.800 12.001 M9.380 8.790 C 9.540 8.868,12.057 11.371,12.205 11.598 C 12.367 11.848,12.367 12.151,12.205 12.402 C 12.142 12.500,11.489 13.175,10.755 13.903 C 9.377 15.268,9.313 15.320,9.004 15.320 C 8.882 15.320,8.639 15.212,8.525 15.108 C 8.399 14.992,8.282 14.733,8.281 14.569 C 8.279 14.291,8.384 14.159,9.470 13.071 L 10.538 12.001 9.471 10.931 C 8.385 9.841,8.279 9.708,8.281 9.431 C 8.283 9.156,8.544 8.790,8.773 8.742 C 8.983 8.697,9.027 8.694,9.140 8.712 C 9.206 8.723,9.314 8.758,9.380 8.790 " fill="#292D32" stroke="none" fill-rule="evenodd"></path></svg>