<svg width="24" height="24" viewBox="0 0 24 24" fill="none" xmlns="http://www.w3.org/2000/svg"><path d="M6.991 2.044 C 6.258 2.115,5.352 2.361,4.800 2.640 C 4.372 2.856,3.859 3.234,3.515 3.586 C 2.788 4.332,2.344 5.240,2.112 6.456 C 2.029 6.888,2.026 7.017,2.011 11.090 L 1.996 15.280 11.998 15.280 L 22.000 15.280 22.000 11.390 C 22.000 9.013,21.984 7.329,21.958 7.060 C 21.817 5.564,21.336 4.453,20.442 3.558 C 19.554 2.671,18.459 2.193,16.966 2.042 C 16.466 1.991,7.517 1.994,6.991 2.044 M9.707 8.322 C 9.769 8.346,10.311 8.854,10.910 9.452 L 12.001 10.539 13.090 9.451 C 13.690 8.853,14.231 8.345,14.293 8.322 C 14.437 8.268,14.684 8.268,14.827 8.323 C 15.076 8.416,15.318 8.760,15.319 9.020 C 15.320 9.318,15.175 9.494,13.794 10.866 C 13.060 11.595,12.398 12.222,12.323 12.260 C 12.119 12.363,11.837 12.350,11.631 12.228 C 11.537 12.172,10.854 11.517,10.114 10.773 C 8.986 9.639,8.761 9.394,8.724 9.260 C 8.663 9.037,8.670 8.925,8.756 8.740 C 8.928 8.366,9.341 8.185,9.707 8.322 M2.045 17.080 C 2.123 17.804,2.348 18.620,2.620 19.160 C 3.249 20.409,4.350 21.317,5.720 21.717 C 6.651 21.988,6.322 21.973,11.700 21.990 C 15.028 22.000,16.714 21.991,17.000 21.962 C 18.410 21.816,19.504 21.353,20.356 20.541 C 20.983 19.943,21.379 19.303,21.659 18.437 C 21.800 18.002,21.960 17.203,21.960 16.936 L 21.960 16.800 11.988 16.800 L 2.015 16.800 2.045 17.080 " fill="#292D32" stroke="none" fill-rule="evenodd"></path></svg>