<svg width="24" height="24" viewBox="0 0 24 24" fill="none" xmlns="http://www.w3.org/2000/svg"><path d="M6.960 2.047 C 6.227 2.116,5.359 2.356,4.774 2.653 C 4.110 2.989,3.348 3.663,2.948 4.268 C 2.477 4.978,2.132 6.008,2.054 6.938 L 2.028 7.240 12.000 7.240 L 21.972 7.240 21.947 6.910 C 21.877 6.002,21.545 5.026,21.052 4.286 C 20.188 2.988,18.793 2.219,16.983 2.043 C 16.445 1.990,7.520 1.994,6.960 2.047 M2.011 12.910 C 2.026 16.994,2.028 17.111,2.112 17.547 C 2.348 18.781,2.798 19.681,3.559 20.441 C 4.331 21.214,5.241 21.664,6.494 21.892 C 6.979 21.980,6.993 21.980,12.000 21.980 C 16.999 21.980,17.022 21.980,17.503 21.892 C 18.764 21.662,19.676 21.214,20.445 20.445 C 21.202 19.688,21.651 18.786,21.888 17.544 C 21.971 17.112,21.974 16.983,21.989 12.910 L 22.004 8.720 12.000 8.720 L 1.996 8.720 2.011 12.910 M12.360 11.763 C 12.437 11.802,13.115 12.452,13.866 13.207 C 15.289 14.637,15.321 14.677,15.319 15.000 C 15.318 15.137,15.191 15.401,15.075 15.508 C 14.950 15.623,14.714 15.720,14.560 15.720 C 14.291 15.720,14.151 15.609,13.070 14.529 L 12.000 13.461 10.930 14.529 C 9.841 15.617,9.709 15.721,9.431 15.719 C 9.128 15.717,8.804 15.466,8.722 15.169 C 8.606 14.753,8.648 14.696,10.172 13.167 C 10.902 12.434,11.554 11.806,11.620 11.771 C 11.878 11.633,12.100 11.631,12.360 11.763 " fill="#292D32" stroke="none" fill-rule="evenodd"></path></svg>