<svg width="24" height="24" viewBox="0 0 24 24" fill="none" xmlns="http://www.w3.org/2000/svg"><path d="M8.720 12.002 L 8.720 22.004 12.910 21.989 C 16.983 21.974,17.112 21.971,17.544 21.888 C 18.793 21.649,19.747 21.171,20.485 20.414 C 21.212 19.668,21.655 18.762,21.889 17.544 C 21.972 17.109,21.974 16.999,21.989 12.320 C 22.000 9.034,21.991 7.396,21.961 7.080 C 21.815 5.559,21.339 4.452,20.443 3.557 C 19.559 2.672,18.458 2.193,16.966 2.042 C 16.708 2.016,15.075 2.000,12.636 2.000 L 8.720 2.000 8.720 12.002 M6.840 2.066 C 5.341 2.293,4.425 2.698,3.607 3.495 C 2.726 4.353,2.248 5.383,2.060 6.827 C 2.005 7.251,1.999 7.928,2.011 12.246 C 2.027 17.639,2.014 17.343,2.263 18.213 C 2.665 19.624,3.576 20.743,4.840 21.380 C 5.387 21.656,6.411 21.929,7.040 21.967 L 7.220 21.978 7.230 12.009 L 7.240 2.040 7.090 2.045 C 7.008 2.048,6.895 2.058,6.840 2.066 M15.169 8.722 C 15.466 8.804,15.717 9.128,15.719 9.431 C 15.721 9.706,15.613 9.843,14.558 10.903 C 13.987 11.477,13.520 11.970,13.520 12.000 C 13.520 12.030,13.987 12.523,14.558 13.097 C 15.613 14.157,15.721 14.294,15.719 14.569 C 15.718 14.733,15.601 14.992,15.475 15.108 C 15.360 15.214,15.117 15.320,14.991 15.320 C 14.677 15.319,14.627 15.279,13.245 13.906 C 12.511 13.177,11.859 12.500,11.795 12.402 C 11.703 12.260,11.680 12.179,11.680 12.000 C 11.680 11.821,11.703 11.740,11.795 11.598 C 11.859 11.500,12.511 10.823,13.245 10.093 C 14.735 8.613,14.746 8.604,15.169 8.722 " fill="#292D32" stroke="none" fill-rule="evenodd"></path></svg>