<svg width="24" height="24" viewBox="0 0 24 24" fill="none" xmlns="http://www.w3.org/2000/svg"><path d="M8.530 2.062 C 8.184 2.155,8.048 2.245,7.012 3.065 C 5.719 4.089,5.529 4.252,5.351 4.488 C 4.939 5.034,4.939 5.951,5.350 6.516 C 5.451 6.655,5.880 7.027,6.670 7.661 C 7.987 8.720,8.118 8.811,8.474 8.921 C 8.704 8.992,8.849 9.000,9.984 9.000 L 11.240 9.000 11.240 10.500 L 11.240 12.000 8.942 12.000 C 7.392 12.000,6.575 12.015,6.432 12.045 C 5.757 12.188,5.211 12.750,5.081 13.436 C 5.027 13.722,5.027 17.278,5.081 17.564 C 5.208 18.233,5.709 18.766,6.380 18.946 C 6.536 18.987,7.092 18.999,8.910 19.000 L 11.240 19.000 11.240 20.120 L 11.240 21.240 10.118 21.240 C 8.847 21.240,8.706 21.260,8.480 21.476 C 8.126 21.812,8.198 22.378,8.627 22.645 L 8.780 22.740 11.912 22.751 C 14.056 22.758,15.095 22.748,15.204 22.719 C 15.422 22.660,15.652 22.422,15.718 22.187 C 15.825 21.805,15.578 21.384,15.189 21.286 C 15.071 21.257,14.600 21.240,13.882 21.240 L 12.760 21.240 12.760 20.120 L 12.760 19.000 14.012 19.000 C 15.378 19.000,15.565 18.977,15.927 18.768 C 16.245 18.584,18.469 16.772,18.637 16.560 C 18.890 16.240,18.975 15.971,18.975 15.500 C 18.975 15.029,18.890 14.760,18.636 14.440 C 18.440 14.191,16.150 12.350,15.842 12.193 C 15.720 12.131,15.523 12.062,15.405 12.040 C 15.286 12.018,14.643 12.000,13.975 12.000 L 12.760 12.000 12.760 10.500 L 12.760 9.000 15.092 9.000 C 17.070 9.000,17.459 8.991,17.662 8.938 C 18.156 8.809,18.562 8.473,18.792 8.003 L 18.940 7.700 18.940 5.500 L 18.940 3.300 18.791 2.995 C 18.549 2.499,18.085 2.139,17.565 2.041 C 17.427 2.015,15.797 2.001,13.045 2.003 C 9.467 2.005,8.705 2.015,8.530 2.062 " fill="#292D32" stroke="none" fill-rule="evenodd"></path></svg>