<svg width="24" height="24" viewBox="0 0 24 24" fill="none" xmlns="http://www.w3.org/2000/svg"><path d="M7.280 2.043 C 6.295 2.158,5.418 2.514,4.702 3.092 C 3.781 3.834,3.214 4.921,3.040 6.280 C 3.010 6.516,3.001 8.338,3.010 12.220 L 3.023 17.820 3.112 18.210 C 3.576 20.233,4.872 21.498,6.900 21.907 C 7.236 21.975,7.580 21.980,12.000 21.980 C 16.420 21.980,16.764 21.975,17.100 21.907 C 19.127 21.499,20.427 20.229,20.887 18.210 C 20.975 17.823,20.976 17.785,20.990 13.800 C 20.999 11.089,20.990 9.674,20.961 9.454 C 20.868 8.750,20.609 8.020,20.235 7.410 C 20.047 7.103,19.780 6.819,18.083 5.112 C 16.841 3.862,16.038 3.085,15.843 2.946 C 15.301 2.557,14.638 2.264,13.920 2.096 C 13.650 2.033,13.321 2.025,10.600 2.017 C 8.939 2.012,7.445 2.024,7.280 2.043 M11.344 9.656 L 11.480 9.792 11.480 11.591 C 11.480 13.216,11.474 13.396,11.414 13.445 C 11.360 13.490,10.987 13.500,9.364 13.500 C 7.141 13.500,7.199 13.507,7.060 13.214 C 6.999 13.086,6.993 12.990,7.012 12.523 C 7.039 11.900,7.101 11.631,7.323 11.177 C 7.625 10.561,8.088 10.109,8.741 9.794 C 9.212 9.566,9.453 9.527,10.394 9.523 L 11.208 9.520 11.344 9.656 M14.660 9.581 C 15.495 9.757,16.289 10.385,16.677 11.177 C 16.899 11.631,16.961 11.900,16.988 12.523 C 17.007 12.990,17.001 13.086,16.940 13.214 C 16.801 13.507,16.859 13.500,14.636 13.500 C 13.013 13.500,12.640 13.490,12.586 13.445 C 12.526 13.396,12.520 13.216,12.520 11.591 L 12.520 9.792 12.656 9.656 L 12.792 9.520 13.586 9.521 C 14.132 9.521,14.467 9.540,14.660 9.581 M11.432 14.568 C 11.468 14.604,11.480 15.067,11.480 16.405 L 11.480 18.194 11.377 18.316 C 11.220 18.502,11.040 18.533,10.260 18.507 C 9.767 18.491,9.495 18.463,9.270 18.404 C 8.414 18.181,7.708 17.607,7.323 16.823 C 7.101 16.369,7.039 16.100,7.012 15.477 C 6.987 14.871,7.032 14.691,7.235 14.580 C 7.377 14.503,11.355 14.491,11.432 14.568 M16.757 14.578 C 16.968 14.688,17.014 14.865,16.988 15.477 C 16.961 16.100,16.899 16.369,16.677 16.823 C 16.292 17.607,15.586 18.181,14.730 18.404 C 14.505 18.463,14.233 18.491,13.740 18.507 C 12.960 18.533,12.780 18.502,12.623 18.316 L 12.520 18.194 12.520 16.405 C 12.520 15.067,12.532 14.604,12.568 14.568 C 12.604 14.532,13.117 14.520,14.630 14.520 C 16.315 14.520,16.662 14.530,16.757 14.578 " fill="#292D32" stroke="none" fill-rule="evenodd"></path></svg>