<svg width="24" height="24" viewBox="0 0 24 24" fill="none" xmlns="http://www.w3.org/2000/svg"><path d="M7.280 2.043 C 6.295 2.158,5.418 2.514,4.702 3.092 C 3.781 3.834,3.214 4.921,3.040 6.280 C 3.010 6.516,3.001 8.338,3.010 12.220 L 3.023 17.820 3.112 18.210 C 3.576 20.233,4.872 21.498,6.900 21.907 C 7.236 21.975,7.580 21.980,12.000 21.980 C 16.420 21.980,16.764 21.975,17.100 21.907 C 19.127 21.499,20.427 20.229,20.887 18.210 C 20.975 17.823,20.976 17.785,20.990 13.800 C 20.999 11.089,20.990 9.674,20.961 9.454 C 20.868 8.750,20.609 8.020,20.235 7.410 C 20.047 7.103,19.780 6.819,18.083 5.112 C 16.841 3.862,16.038 3.085,15.843 2.946 C 15.301 2.557,14.638 2.264,13.920 2.096 C 13.650 2.033,13.321 2.025,10.600 2.017 C 8.939 2.012,7.445 2.024,7.280 2.043 M9.840 13.342 C 9.977 13.412,10.146 13.597,10.197 13.733 C 10.260 13.898,10.249 14.148,10.173 14.314 C 10.136 14.394,9.763 14.806,9.345 15.230 L 8.585 15.999 9.366 16.790 C 10.212 17.645,10.265 17.725,10.231 18.083 C 10.200 18.397,9.930 18.684,9.606 18.745 C 9.291 18.805,9.217 18.749,8.006 17.546 C 7.382 16.927,6.846 16.362,6.816 16.291 C 6.785 16.220,6.760 16.089,6.760 16.000 C 6.760 15.911,6.785 15.780,6.816 15.709 C 6.902 15.510,9.112 13.332,9.260 13.299 C 9.326 13.285,9.398 13.267,9.420 13.260 C 9.485 13.238,9.732 13.287,9.840 13.342 M14.860 13.350 C 15.002 13.421,16.954 15.350,17.108 15.571 C 17.248 15.773,17.278 16.087,17.177 16.304 C 17.094 16.486,15.196 18.421,14.924 18.602 C 14.603 18.815,14.297 18.798,14.013 18.549 C 13.766 18.331,13.691 18.002,13.821 17.692 C 13.858 17.603,14.183 17.243,14.660 16.762 L 15.438 15.978 14.655 15.199 C 14.224 14.770,13.847 14.362,13.816 14.291 C 13.745 14.128,13.744 13.875,13.814 13.708 C 13.881 13.548,14.124 13.329,14.271 13.297 C 14.331 13.284,14.398 13.267,14.420 13.260 C 14.488 13.237,14.734 13.288,14.860 13.350 " fill="#292D32" stroke="none" fill-rule="evenodd"></path></svg>