<svg width="24" height="24" viewBox="0 0 24 24" fill="none" xmlns="http://www.w3.org/2000/svg"><path d="M11.340 2.003 C 10.211 2.127,9.247 2.688,8.644 3.573 C 8.362 3.987,8.114 4.657,8.057 5.159 L 8.031 5.390 9.165 5.411 C 10.117 5.429,10.363 5.446,10.690 5.517 C 11.382 5.667,11.875 5.875,12.480 6.272 C 12.746 6.446,13.142 6.814,14.294 7.957 C 15.154 8.811,15.874 9.561,16.023 9.759 C 16.319 10.152,16.629 10.758,16.777 11.233 C 16.990 11.916,17.000 12.084,17.000 14.910 L 17.000 17.520 17.750 17.520 C 18.989 17.520,19.649 17.363,20.367 16.898 C 21.270 16.314,21.823 15.369,21.960 14.176 C 21.991 13.902,22.000 12.833,21.990 10.720 C 21.976 7.704,21.975 7.655,21.887 7.322 C 21.777 6.906,21.504 6.321,21.254 5.966 C 20.976 5.571,18.288 2.899,17.940 2.672 C 17.450 2.353,17.072 2.187,16.520 2.052 C 16.300 1.998,15.903 1.987,13.960 1.978 C 12.695 1.972,11.516 1.984,11.340 2.003 M5.220 6.467 C 4.877 6.516,4.393 6.658,4.100 6.795 C 3.060 7.283,2.410 8.091,2.110 9.268 L 2.020 9.620 2.020 14.200 L 2.020 18.780 2.109 19.127 C 2.498 20.653,3.546 21.634,5.075 21.901 C 5.572 21.988,12.428 21.988,12.925 21.901 C 13.760 21.755,14.440 21.403,14.985 20.833 C 15.412 20.387,15.674 19.907,15.870 19.211 L 15.980 18.820 15.980 15.460 L 15.980 12.100 15.888 11.763 C 15.837 11.577,15.742 11.299,15.676 11.145 C 15.426 10.557,15.213 10.306,13.613 8.717 C 12.020 7.134,11.838 6.982,11.236 6.734 C 10.551 6.451,10.688 6.463,7.880 6.456 C 6.483 6.453,5.286 6.458,5.220 6.467 " fill="#292D32" stroke="none" fill-rule="evenodd"></path></svg>