<svg width="24" height="24" viewBox="0 0 24 24" fill="none" xmlns="http://www.w3.org/2000/svg"><path d="M13.826 2.063 C 12.907 2.232,12.002 2.852,11.502 3.655 C 11.289 3.996,11.060 4.608,11.018 4.946 C 10.997 5.110,11.006 5.183,11.056 5.259 C 11.193 5.468,11.283 5.494,11.995 5.525 C 12.406 5.543,12.813 5.586,13.060 5.638 C 15.266 6.099,17.069 7.580,17.943 9.650 C 18.263 10.410,18.415 11.133,18.465 12.143 L 18.493 12.700 18.622 12.830 C 18.723 12.931,18.786 12.960,18.903 12.960 C 19.270 12.960,19.982 12.695,20.449 12.385 C 20.954 12.051,21.498 11.371,21.717 10.802 C 21.955 10.184,21.960 10.111,21.960 7.500 C 21.960 5.479,21.950 5.070,21.896 4.808 C 21.630 3.516,20.722 2.538,19.412 2.132 L 19.060 2.023 16.600 2.014 C 14.597 2.007,14.082 2.016,13.826 2.063 M6.480 7.027 C 4.845 7.214,3.470 8.102,2.648 9.500 C 2.299 10.094,2.070 10.818,2.001 11.552 C 1.948 12.110,1.948 16.890,2.001 17.448 C 2.212 19.679,3.819 21.459,6.029 21.909 C 6.348 21.974,6.661 21.980,9.480 21.980 C 12.327 21.980,12.608 21.974,12.920 21.907 C 13.963 21.684,14.741 21.264,15.485 20.523 C 16.105 19.906,16.485 19.288,16.737 18.484 C 16.959 17.778,16.965 17.648,16.949 14.420 C 16.932 11.178,16.943 11.340,16.681 10.555 C 16.174 9.044,14.924 7.796,13.400 7.279 C 13.257 7.231,12.978 7.154,12.780 7.108 C 12.435 7.029,12.297 7.025,9.520 7.018 C 7.925 7.014,6.557 7.018,6.480 7.027 " fill="#292D32" stroke="none" fill-rule="evenodd"></path></svg>