<svg width="24" height="24" viewBox="0 0 24 24" fill="none" xmlns="http://www.w3.org/2000/svg"><path d="M11.120 2.039 C 8.339 2.316,5.905 3.624,4.193 5.760 C 1.485 9.141,1.268 13.913,3.661 17.500 C 3.822 17.742,4.055 18.065,4.178 18.218 L 4.401 18.496 3.286 19.618 C 2.672 20.235,2.137 20.803,2.097 20.880 C 1.991 21.083,2.001 21.428,2.119 21.618 C 2.299 21.910,2.675 22.058,2.986 21.960 C 3.113 21.920,4.808 20.245,12.494 12.566 C 19.026 6.039,21.871 3.172,21.923 3.060 C 21.964 2.972,21.999 2.836,21.999 2.758 C 22.000 2.550,21.847 2.280,21.648 2.141 C 21.504 2.042,21.436 2.022,21.248 2.023 C 21.109 2.024,20.965 2.052,20.880 2.096 C 20.803 2.136,20.233 2.673,19.614 3.289 L 18.488 4.410 18.252 4.213 C 16.909 3.095,15.084 2.318,13.240 2.079 C 12.786 2.021,11.544 1.997,11.120 2.039 M19.844 7.317 C 19.640 7.388,19.302 7.718,13.530 13.486 C 9.176 17.837,7.410 19.626,7.358 19.742 C 7.188 20.113,7.239 20.540,7.487 20.822 C 7.830 21.213,9.378 21.728,10.800 21.925 C 11.291 21.993,12.708 21.993,13.200 21.925 C 14.991 21.679,16.601 21.021,18.036 19.949 C 18.530 19.580,19.580 18.530,19.949 18.036 C 21.021 16.601,21.676 14.998,21.926 13.200 C 22.011 12.585,21.991 11.215,21.887 10.540 C 21.685 9.233,21.178 7.786,20.816 7.487 C 20.657 7.355,20.348 7.239,20.163 7.241 C 20.106 7.242,19.963 7.276,19.844 7.317 " fill="#292D32" stroke="none" fill-rule="evenodd"></path></svg>