<svg width="24" height="24" viewBox="0 0 24 24" fill="none" xmlns="http://www.w3.org/2000/svg"><path d="M8.300 2.058 C 6.720 2.305,5.551 3.334,5.162 4.820 C 5.005 5.423,4.996 5.714,5.008 9.820 L 5.020 13.780 5.108 13.944 C 5.210 14.134,5.438 14.347,5.626 14.425 C 5.822 14.507,18.178 14.507,18.374 14.425 C 18.562 14.347,18.790 14.134,18.892 13.944 L 18.980 13.780 18.992 9.820 C 19.000 7.277,18.989 5.731,18.963 5.500 C 18.821 4.263,18.241 3.273,17.300 2.658 C 16.778 2.317,16.233 2.124,15.561 2.041 C 15.049 1.979,8.714 1.993,8.300 2.058 M2.807 3.288 C 2.558 3.343,2.342 3.571,2.284 3.838 C 2.222 4.130,2.222 19.870,2.284 20.162 C 2.424 20.815,3.311 20.943,3.640 20.358 L 3.740 20.180 3.740 12.000 L 3.740 3.820 3.651 3.653 C 3.523 3.415,3.388 3.328,3.040 3.261 C 3.007 3.255,2.902 3.267,2.807 3.288 M20.807 3.288 C 20.558 3.343,20.342 3.571,20.284 3.838 C 20.222 4.130,20.222 19.870,20.284 20.162 C 20.424 20.815,21.311 20.943,21.640 20.358 L 21.740 20.180 21.740 12.000 L 21.740 3.820 21.651 3.653 C 21.523 3.415,21.388 3.328,21.040 3.261 C 21.007 3.255,20.902 3.267,20.807 3.288 M5.800 16.037 C 5.584 16.081,5.424 16.181,5.250 16.378 C 5.010 16.651,4.988 16.779,5.010 17.807 C 5.027 18.610,5.039 18.740,5.134 19.100 C 5.510 20.520,6.462 21.483,7.880 21.875 L 8.260 21.980 12.000 21.980 L 15.740 21.980 16.120 21.875 C 17.538 21.483,18.490 20.520,18.866 19.100 C 18.961 18.740,18.973 18.610,18.990 17.807 C 19.004 17.167,18.995 16.864,18.959 16.737 C 18.899 16.522,18.650 16.229,18.425 16.108 L 18.260 16.020 12.100 16.014 C 8.712 16.011,5.877 16.021,5.800 16.037 " fill="#292D32" stroke="none" fill-rule="evenodd"></path></svg>