<svg width="24" height="24" viewBox="0 0 24 24" fill="none" xmlns="http://www.w3.org/2000/svg"><path d="M7.745 2.043 C 6.504 2.153,5.848 2.573,5.563 3.442 C 5.439 3.819,5.417 4.079,5.496 4.232 C 5.633 4.498,5.160 4.480,12.008 4.479 C 16.983 4.477,18.238 4.467,18.312 4.426 C 18.442 4.354,18.559 4.162,18.560 4.023 C 18.560 3.815,18.435 3.387,18.293 3.115 C 17.947 2.449,17.351 2.142,16.210 2.042 C 15.660 1.994,8.290 1.994,7.745 2.043 M4.620 6.025 C 4.576 6.034,4.442 6.061,4.322 6.085 C 3.445 6.263,2.583 6.991,2.234 7.849 C 2.000 8.424,2.000 8.416,2.000 12.000 C 2.000 15.584,2.000 15.576,2.234 16.151 C 2.521 16.857,3.143 17.479,3.849 17.766 C 4.453 18.012,4.024 18.000,12.000 18.000 C 18.400 18.000,19.320 17.993,19.581 17.938 C 20.785 17.690,21.690 16.785,21.938 15.581 C 22.030 15.136,22.030 8.864,21.938 8.419 C 21.704 7.284,20.929 6.461,19.740 6.085 C 19.561 6.028,18.762 6.021,12.120 6.015 C 8.039 6.012,4.664 6.016,4.620 6.025 M5.657 19.595 C 5.415 19.743,5.388 20.025,5.564 20.563 C 5.731 21.071,6.049 21.443,6.500 21.659 C 6.842 21.822,7.208 21.906,7.805 21.959 C 8.417 22.013,15.591 22.012,16.210 21.958 C 17.576 21.838,18.243 21.371,18.495 20.357 C 18.576 20.031,18.577 19.908,18.499 19.759 C 18.367 19.503,18.817 19.520,11.992 19.520 C 5.985 19.520,5.776 19.523,5.657 19.595 " fill="#292D32" stroke="none" fill-rule="evenodd"></path></svg>