<svg width="24" height="24" viewBox="0 0 24 24" fill="none" xmlns="http://www.w3.org/2000/svg"><path d="M4.800 2.053 C 4.568 2.174,4.479 2.256,4.397 2.426 C 4.217 2.798,4.366 3.229,4.743 3.420 C 4.898 3.499,4.979 3.500,12.000 3.500 C 19.021 3.500,19.102 3.499,19.257 3.420 C 19.774 3.158,19.825 2.462,19.352 2.134 L 19.187 2.020 12.043 2.010 C 6.216 2.002,4.882 2.010,4.800 2.053 M5.250 5.044 C 4.143 5.229,3.217 6.053,2.873 7.160 L 2.780 7.460 2.780 12.000 L 2.780 16.540 2.873 16.840 C 3.222 17.964,4.142 18.773,5.284 18.958 C 5.638 19.015,18.362 19.015,18.716 18.958 C 19.858 18.773,20.778 17.964,21.127 16.840 L 21.220 16.540 21.220 12.000 L 21.220 7.460 21.127 7.160 C 20.778 6.036,19.858 5.227,18.716 5.042 C 18.398 4.991,5.560 4.993,5.250 5.044 M4.740 20.583 C 4.553 20.680,4.448 20.797,4.376 20.986 C 4.248 21.321,4.365 21.672,4.675 21.882 L 4.820 21.980 12.000 21.980 L 19.180 21.980 19.325 21.882 C 19.767 21.583,19.794 20.973,19.378 20.656 L 19.226 20.540 12.043 20.530 C 5.591 20.521,4.848 20.527,4.740 20.583 " fill="#292D32" stroke="none" fill-rule="evenodd"></path></svg>