<svg width="24" height="24" viewBox="0 0 24 24" fill="none" xmlns="http://www.w3.org/2000/svg"><path d="M7.471 2.801 C 7.181 2.850,6.886 2.955,6.603 3.108 C 5.753 3.566,5.194 4.345,5.042 5.284 C 4.985 5.638,4.985 18.362,5.042 18.716 C 5.227 19.858,6.036 20.778,7.160 21.127 L 7.460 21.220 12.000 21.220 L 16.540 21.220 16.840 21.127 C 17.964 20.778,18.773 19.858,18.958 18.716 C 19.015 18.362,19.015 5.638,18.958 5.284 C 18.774 4.152,17.989 3.250,16.860 2.873 L 16.580 2.780 12.120 2.774 C 9.667 2.771,7.575 2.783,7.471 2.801 M2.407 4.406 C 2.305 4.456,2.189 4.558,2.127 4.653 L 2.020 4.814 2.020 12.000 L 2.020 19.187 2.134 19.352 C 2.462 19.825,3.158 19.774,3.420 19.257 C 3.499 19.102,3.500 19.010,3.511 12.120 C 3.518 7.202,3.508 5.078,3.478 4.930 C 3.374 4.431,2.862 4.180,2.407 4.406 M20.912 4.399 C 20.831 4.444,20.714 4.546,20.652 4.627 L 20.540 4.774 20.540 12.000 L 20.540 19.226 20.656 19.378 C 20.810 19.580,21.072 19.695,21.325 19.671 C 21.585 19.646,21.779 19.507,21.902 19.259 L 22.001 19.057 21.990 11.939 L 21.980 4.820 21.882 4.675 C 21.731 4.452,21.548 4.347,21.286 4.332 C 21.117 4.322,21.023 4.339,20.912 4.399 " fill="#292D32" stroke="none" fill-rule="evenodd"></path></svg>