<svg width="24" height="24" viewBox="0 0 24 24" fill="none" xmlns="http://www.w3.org/2000/svg"><path d="M8.620 2.024 C 8.576 2.033,8.442 2.061,8.322 2.085 C 7.445 2.263,6.583 2.991,6.234 3.849 C 5.988 4.453,6.000 4.024,6.000 12.000 C 6.000 18.400,6.007 19.320,6.062 19.581 C 6.310 20.785,7.215 21.690,8.419 21.938 C 8.864 22.030,15.136 22.030,15.581 21.938 C 16.785 21.690,17.690 20.785,17.938 19.581 C 17.993 19.320,18.000 18.400,18.000 12.000 C 18.000 4.024,18.012 4.453,17.766 3.849 C 17.426 3.013,16.708 2.388,15.740 2.086 C 15.566 2.032,15.092 2.022,12.120 2.016 C 10.239 2.011,8.664 2.015,8.620 2.024 M3.780 5.467 C 3.069 5.625,2.598 5.963,2.341 6.500 C 2.021 7.171,2.001 7.504,2.001 12.000 C 2.001 15.855,2.019 16.428,2.162 16.990 C 2.372 17.817,2.846 18.299,3.643 18.495 C 3.969 18.576,4.092 18.577,4.241 18.499 C 4.496 18.367,4.480 18.816,4.480 12.000 C 4.480 5.184,4.496 5.633,4.241 5.501 C 4.129 5.442,3.950 5.429,3.780 5.467 M19.751 5.500 C 19.505 5.639,19.520 5.206,19.520 12.000 C 19.520 18.816,19.504 18.367,19.759 18.499 C 19.823 18.533,19.925 18.560,19.985 18.560 C 20.187 18.560,20.617 18.432,20.885 18.293 C 21.551 17.947,21.858 17.351,21.958 16.210 C 22.012 15.591,22.013 8.417,21.959 7.805 C 21.862 6.709,21.604 6.154,21.017 5.777 C 20.614 5.518,19.968 5.377,19.751 5.500 " fill="#292D32" stroke="none" fill-rule="evenodd"></path></svg>