<svg width="24" height="24" viewBox="0 0 24 24" fill="none" xmlns="http://www.w3.org/2000/svg"><path d="M7.080 2.043 C 5.603 2.183,4.466 2.658,3.607 3.495 C 2.728 4.351,2.248 5.383,2.061 6.812 C 2.009 7.213,2.000 7.988,2.000 11.984 C 2.000 15.048,2.015 16.818,2.043 17.072 C 2.263 19.073,3.249 20.585,4.860 21.390 C 5.397 21.659,6.217 21.880,6.967 21.959 C 7.189 21.983,9.241 21.999,12.028 21.999 C 16.029 22.000,16.785 21.991,17.188 21.938 C 18.550 21.760,19.532 21.326,20.356 20.541 C 21.258 19.681,21.748 18.643,21.938 17.188 C 21.991 16.785,22.000 16.025,22.000 12.008 C 21.999 9.043,21.984 7.167,21.958 6.940 C 21.802 5.574,21.336 4.484,20.553 3.657 C 19.676 2.730,18.479 2.188,16.983 2.043 C 16.468 1.992,7.611 1.993,7.080 2.043 M14.193 6.507 C 14.690 6.711,15.083 7.148,15.218 7.649 C 15.272 7.847,15.283 8.031,15.273 8.526 L 15.260 9.153 15.138 9.306 C 14.996 9.484,14.717 9.640,14.540 9.640 C 14.363 9.640,14.084 9.484,13.942 9.306 C 13.822 9.155,13.820 9.145,13.800 8.586 C 13.789 8.275,13.765 7.998,13.748 7.970 C 13.723 7.932,13.400 7.920,12.357 7.920 L 11.000 7.920 11.010 11.150 L 11.020 14.380 11.340 14.402 C 11.516 14.414,11.696 14.444,11.740 14.468 C 11.863 14.537,12.030 14.727,12.077 14.853 C 12.178 15.118,12.091 15.509,11.893 15.688 C 11.690 15.872,11.610 15.880,9.960 15.880 C 8.282 15.880,8.227 15.874,8.007 15.668 C 7.660 15.344,7.736 14.723,8.152 14.490 C 8.297 14.408,8.363 14.400,8.915 14.400 L 9.520 14.400 9.520 11.160 L 9.520 7.920 8.185 7.920 C 7.165 7.920,6.840 7.932,6.809 7.970 C 6.787 7.998,6.761 8.263,6.752 8.560 C 6.734 9.153,6.698 9.270,6.480 9.454 C 6.134 9.745,5.630 9.664,5.374 9.278 C 5.273 9.126,5.263 9.072,5.247 8.646 C 5.228 8.096,5.287 7.661,5.420 7.370 C 5.540 7.107,5.858 6.766,6.114 6.627 C 6.535 6.398,6.424 6.404,10.360 6.412 C 13.978 6.420,13.980 6.420,14.193 6.507 M17.887 10.526 C 18.502 10.815,18.811 11.405,18.747 12.170 C 18.706 12.667,18.423 12.969,18.000 12.969 C 17.583 12.969,17.299 12.671,17.253 12.185 L 17.228 11.920 16.454 11.920 L 15.679 11.920 15.690 14.010 L 15.700 16.100 16.000 16.121 C 16.358 16.145,16.522 16.224,16.666 16.442 C 16.886 16.775,16.805 17.188,16.466 17.458 L 16.313 17.580 15.046 17.593 C 13.727 17.606,13.583 17.592,13.384 17.436 C 13.157 17.258,13.055 16.858,13.163 16.573 C 13.220 16.419,13.393 16.242,13.549 16.175 C 13.620 16.145,13.795 16.120,13.939 16.120 L 14.200 16.120 14.200 14.026 L 14.200 11.931 13.864 11.910 C 13.612 11.895,13.485 11.865,13.360 11.795 C 12.936 11.557,12.856 10.939,13.206 10.612 C 13.434 10.399,13.420 10.401,15.620 10.411 L 17.660 10.420 17.887 10.526 " fill="#292D32" stroke="none" fill-rule="evenodd"></path></svg>