<svg width="24" height="24" viewBox="0 0 24 24" fill="none" xmlns="http://www.w3.org/2000/svg"><path d="M16.264 1.375 C 16.043 1.509,15.920 1.729,15.920 1.994 C 15.920 2.430,16.157 2.679,16.651 2.761 C 17.728 2.941,18.632 3.425,19.482 4.277 C 20.196 4.994,20.666 5.750,20.979 6.690 C 21.258 7.529,21.325 8.480,21.160 9.280 C 21.063 9.752,21.071 9.932,21.202 10.144 C 21.298 10.298,21.617 10.479,21.795 10.480 C 22.135 10.481,22.438 10.249,22.540 9.910 C 22.749 9.212,22.778 7.843,22.602 7.020 C 22.056 4.476,20.188 2.312,17.876 1.544 C 17.040 1.266,16.532 1.213,16.264 1.375 M16.040 4.594 C 15.718 4.767,15.564 5.149,15.678 5.493 C 15.786 5.822,15.989 5.957,16.445 6.003 C 16.819 6.040,17.090 6.169,17.387 6.450 C 17.948 6.980,18.219 7.734,18.053 8.300 C 18.014 8.432,17.982 8.640,17.981 8.763 C 17.979 9.172,18.290 9.477,18.711 9.479 C 19.087 9.481,19.329 9.268,19.483 8.797 C 19.568 8.535,19.580 8.431,19.577 7.920 C 19.575 7.398,19.563 7.306,19.463 7.000 C 18.987 5.548,17.752 4.520,16.483 4.520 C 16.263 4.520,16.140 4.541,16.040 4.594 M6.673 7.521 C 5.912 7.649,5.332 7.991,4.983 8.516 C 4.722 8.908,4.582 9.319,4.363 10.340 L 4.174 11.220 3.690 11.240 C 3.243 11.258,3.198 11.268,3.099 11.360 C 2.867 11.577,2.825 11.792,2.967 12.043 C 3.136 12.344,2.545 12.322,10.054 12.310 L 16.794 12.300 16.901 12.200 C 17.188 11.931,17.188 11.629,16.901 11.360 C 16.801 11.267,16.761 11.259,16.319 11.247 C 15.916 11.235,15.840 11.223,15.824 11.167 C 15.814 11.130,15.732 10.757,15.643 10.337 C 15.462 9.490,15.370 9.176,15.196 8.820 C 14.850 8.113,14.197 7.658,13.332 7.525 C 12.998 7.473,6.978 7.470,6.673 7.521 M4.395 13.518 C 3.500 13.707,2.948 14.211,2.724 15.041 C 2.617 15.440,2.597 15.611,2.354 18.290 C 2.163 20.391,2.148 20.626,2.193 20.886 C 2.318 21.617,2.838 22.213,3.554 22.446 C 3.784 22.521,3.938 22.535,4.703 22.550 C 5.684 22.570,6.064 22.532,6.380 22.381 C 6.778 22.190,6.911 21.999,7.181 21.237 C 7.299 20.903,7.436 20.587,7.485 20.535 C 7.534 20.483,7.638 20.422,7.717 20.400 C 7.804 20.376,8.724 20.360,10.051 20.360 C 12.409 20.360,12.442 20.363,12.574 20.567 C 12.608 20.618,12.726 20.921,12.837 21.240 C 13.057 21.871,13.172 22.069,13.433 22.268 C 13.723 22.489,13.920 22.527,14.884 22.550 C 15.939 22.574,16.308 22.532,16.700 22.346 C 17.434 21.996,17.847 21.352,17.847 20.560 C 17.846 20.207,17.429 15.791,17.358 15.393 C 17.249 14.781,17.053 14.374,16.714 14.061 C 16.415 13.784,16.070 13.617,15.598 13.519 C 15.234 13.444,15.025 13.441,9.980 13.443 C 5.071 13.445,4.718 13.450,4.395 13.518 M8.039 16.390 C 8.340 16.541,8.446 16.899,8.269 17.164 C 8.091 17.431,8.039 17.440,6.708 17.440 C 5.399 17.440,5.386 17.438,5.180 17.193 C 5.085 17.079,5.074 17.038,5.089 16.852 C 5.102 16.699,5.134 16.610,5.203 16.535 C 5.390 16.332,5.452 16.323,6.720 16.322 C 7.766 16.320,7.916 16.328,8.039 16.390 M14.571 16.375 C 14.787 16.467,14.891 16.613,14.911 16.852 C 14.926 17.038,14.915 17.079,14.820 17.193 C 14.614 17.438,14.601 17.440,13.292 17.440 C 11.961 17.440,11.909 17.431,11.731 17.164 C 11.554 16.899,11.660 16.541,11.961 16.390 C 12.084 16.328,12.236 16.320,13.271 16.320 C 14.174 16.320,14.472 16.333,14.571 16.375 " fill="#292D32" stroke="none" fill-rule="evenodd"></path></svg>