<svg width="24" height="24" viewBox="0 0 24 24" fill="none" xmlns="http://www.w3.org/2000/svg"><path d="M11.164 2.482 C 10.810 2.575,10.520 2.703,10.254 2.885 C 9.836 3.171,3.049 8.639,2.858 8.844 C 2.373 9.364,2.054 10.139,2.013 10.900 C 1.993 11.282,2.023 11.485,2.678 15.380 C 3.056 17.624,3.382 19.538,3.403 19.633 C 3.643 20.706,4.691 21.698,5.840 21.940 C 6.273 22.031,17.697 22.030,18.139 21.939 C 19.281 21.703,20.278 20.786,20.572 19.700 C 20.608 19.568,20.946 17.615,21.322 15.360 C 21.957 11.563,22.006 11.233,21.986 10.900 C 21.941 10.148,21.594 9.328,21.106 8.819 C 20.939 8.645,19.351 7.348,17.280 5.695 C 14.139 3.188,13.699 2.850,13.380 2.699 C 13.182 2.605,12.890 2.499,12.732 2.464 C 12.321 2.373,11.548 2.381,11.164 2.482 M10.360 9.701 C 11.215 9.823,12.097 10.120,12.813 10.528 C 14.430 11.450,15.581 13.054,15.958 14.913 C 16.061 15.417,16.136 16.200,16.106 16.453 C 16.047 16.955,15.550 17.251,15.090 17.058 C 14.749 16.916,14.661 16.736,14.604 16.067 C 14.554 15.490,14.479 15.086,14.333 14.626 C 13.698 12.615,11.907 11.273,9.680 11.138 C 9.449 11.125,9.201 11.095,9.129 11.073 C 8.952 11.019,8.761 10.852,8.695 10.693 C 8.624 10.524,8.625 10.185,8.696 10.048 C 8.769 9.909,8.952 9.736,9.080 9.685 C 9.230 9.625,9.885 9.634,10.360 9.701 M10.360 12.759 C 11.974 13.176,13.081 14.584,13.096 16.243 C 13.100 16.594,13.091 16.639,12.993 16.788 C 12.718 17.204,12.085 17.223,11.781 16.824 C 11.696 16.713,11.662 16.609,11.632 16.370 C 11.574 15.898,11.451 15.449,11.315 15.212 C 10.958 14.587,10.325 14.205,9.532 14.137 C 9.051 14.095,8.861 13.996,8.716 13.712 C 8.625 13.535,8.616 13.202,8.696 13.048 C 8.768 12.911,8.950 12.737,9.080 12.682 C 9.238 12.615,9.973 12.659,10.360 12.759 M9.903 15.542 C 10.023 15.616,10.144 15.737,10.219 15.858 C 10.328 16.034,10.340 16.087,10.340 16.380 C 10.340 16.673,10.328 16.726,10.219 16.903 C 10.080 17.127,9.775 17.335,9.523 17.375 C 8.945 17.467,8.400 16.990,8.400 16.392 C 8.400 15.986,8.584 15.676,8.929 15.502 C 9.110 15.410,9.180 15.397,9.424 15.408 C 9.656 15.419,9.743 15.443,9.903 15.542 " fill="#292D32" stroke="none" fill-rule="evenodd"></path></svg>