<svg width="24" height="24" viewBox="0 0 24 24" fill="none" xmlns="http://www.w3.org/2000/svg"><path d="M3.620 1.024 C 3.576 1.033,3.442 1.061,3.322 1.085 C 2.442 1.264,1.584 1.989,1.234 2.849 C 1.000 3.424,1.000 3.416,1.000 7.000 C 1.000 10.584,1.000 10.576,1.234 11.151 C 1.523 11.861,2.139 12.477,2.849 12.766 C 3.407 12.993,3.499 13.000,6.118 13.000 L 8.520 13.000 8.520 12.765 C 8.520 12.035,8.827 11.140,9.325 10.417 C 9.557 10.080,10.126 9.517,10.460 9.292 C 11.163 8.820,12.058 8.520,12.765 8.520 L 13.000 8.520 13.000 6.118 C 13.000 3.499,12.993 3.407,12.766 2.849 C 12.426 2.013,11.708 1.388,10.740 1.086 C 10.566 1.032,10.092 1.022,7.120 1.016 C 5.239 1.011,3.664 1.015,3.620 1.024 M5.718 3.947 C 6.141 4.064,6.505 4.298,6.625 4.529 C 6.659 4.595,6.687 4.742,6.689 4.856 C 6.691 5.143,6.570 5.367,6.339 5.503 C 6.085 5.652,5.850 5.646,5.529 5.485 C 5.194 5.315,4.972 5.316,4.656 5.488 C 4.225 5.721,3.837 5.650,3.585 5.291 C 3.492 5.158,3.469 5.083,3.469 4.912 C 3.469 4.603,3.590 4.391,3.868 4.213 C 4.407 3.869,5.085 3.771,5.718 3.947 M9.718 3.947 C 10.141 4.064,10.505 4.298,10.625 4.529 C 10.659 4.595,10.687 4.742,10.689 4.856 C 10.691 5.143,10.570 5.367,10.339 5.503 C 10.085 5.652,9.850 5.646,9.529 5.485 C 9.194 5.315,8.972 5.316,8.656 5.488 C 8.225 5.721,7.837 5.650,7.585 5.291 C 7.492 5.158,7.469 5.083,7.469 4.912 C 7.469 4.603,7.590 4.391,7.868 4.213 C 8.407 3.869,9.085 3.771,9.718 3.947 M7.908 6.557 C 8.301 6.669,8.596 6.805,8.927 7.024 C 9.349 7.305,9.498 7.596,9.402 7.954 C 9.347 8.155,9.149 8.392,8.972 8.466 C 8.731 8.567,8.520 8.536,8.237 8.359 C 7.844 8.112,7.582 8.003,7.278 7.960 C 6.903 7.907,6.501 7.967,6.164 8.127 C 5.641 8.376,5.164 8.988,5.094 9.499 L 5.070 9.677 6.251 9.688 L 7.433 9.700 7.586 9.824 C 7.805 10.001,7.891 10.168,7.891 10.414 C 7.891 10.726,7.702 11.014,7.427 11.117 C 7.356 11.144,6.820 11.160,5.959 11.160 C 4.669 11.160,4.592 11.156,4.373 11.074 C 3.871 10.886,3.560 10.405,3.560 9.817 C 3.560 8.256,4.716 6.858,6.301 6.504 C 6.690 6.417,7.514 6.444,7.908 6.557 M12.424 10.065 C 11.790 10.203,11.340 10.450,10.880 10.916 C 10.493 11.308,10.264 11.697,10.113 12.220 L 10.020 12.540 10.020 16.000 L 10.020 19.460 10.113 19.780 C 10.268 20.317,10.491 20.691,10.900 21.100 C 11.309 21.509,11.683 21.732,12.220 21.887 L 12.540 21.980 16.000 21.980 L 19.460 21.980 19.780 21.887 C 20.317 21.732,20.691 21.509,21.100 21.100 C 21.509 20.691,21.732 20.317,21.887 19.780 L 21.980 19.460 21.980 16.000 L 21.980 12.540 21.887 12.220 C 21.732 11.683,21.509 11.309,21.100 10.900 C 20.700 10.500,20.330 10.276,19.800 10.114 L 19.500 10.022 16.100 10.014 C 13.210 10.006,12.659 10.014,12.424 10.065 M13.665 12.999 C 13.972 13.163,14.219 13.164,14.520 13.002 C 14.883 12.806,15.298 12.853,15.511 13.115 C 15.611 13.237,15.718 13.500,15.719 13.622 C 15.721 13.831,15.543 14.126,15.328 14.272 C 14.868 14.583,14.139 14.714,13.585 14.583 C 13.242 14.503,12.797 14.273,12.641 14.095 C 12.293 13.699,12.451 13.080,12.947 12.896 C 13.154 12.819,13.392 12.853,13.665 12.999 M17.640 12.980 C 18.031 13.157,18.184 13.158,18.521 12.991 C 19.012 12.745,19.420 12.857,19.623 13.293 C 19.731 13.525,19.738 13.594,19.678 13.811 C 19.615 14.035,19.427 14.222,19.106 14.380 C 18.553 14.652,17.970 14.701,17.398 14.522 C 16.691 14.300,16.349 13.886,16.478 13.406 C 16.562 13.095,16.881 12.843,17.195 12.841 C 17.269 12.840,17.469 12.903,17.640 12.980 M18.712 15.552 C 18.963 15.686,19.169 15.887,19.302 16.128 C 19.416 16.333,19.420 16.357,19.417 16.860 C 19.415 17.332,19.403 17.415,19.288 17.760 C 19.104 18.314,18.854 18.714,18.424 19.144 C 17.995 19.573,17.596 19.823,17.040 20.009 C 16.674 20.132,16.636 20.137,16.000 20.137 C 15.364 20.137,15.326 20.132,14.960 20.009 C 14.404 19.823,14.005 19.573,13.576 19.144 C 13.146 18.714,12.896 18.314,12.712 17.760 C 12.597 17.415,12.585 17.332,12.583 16.860 C 12.580 16.394,12.589 16.323,12.670 16.171 C 12.846 15.842,13.103 15.615,13.435 15.495 C 13.550 15.453,14.100 15.444,16.060 15.451 L 18.540 15.460 18.712 15.552 M13.892 16.600 C 13.844 16.620,13.775 16.693,13.739 16.762 C 13.680 16.876,13.679 16.914,13.735 17.186 C 13.965 18.316,14.993 19.106,16.136 19.029 C 17.201 18.957,18.054 18.222,18.264 17.194 C 18.321 16.913,18.320 16.877,18.261 16.762 C 18.225 16.693,18.151 16.619,18.095 16.598 C 17.968 16.550,14.013 16.552,13.892 16.600 " fill="#292D32" stroke="none" fill-rule="evenodd"></path></svg>