<svg width="24" height="24" viewBox="0 0 24 24" fill="none" xmlns="http://www.w3.org/2000/svg"><path d="M6.161 3.046 C 5.346 3.131,4.552 3.384,3.967 3.745 C 3.541 4.008,2.943 4.612,2.705 5.020 C 2.367 5.599,2.163 6.239,2.058 7.043 C 2.007 7.438,1.999 8.183,2.009 12.063 C 2.021 16.611,2.021 16.621,2.108 16.928 C 2.336 17.731,2.636 18.272,3.151 18.807 C 3.879 19.563,4.730 19.973,5.790 20.081 C 6.074 20.110,7.305 20.121,9.420 20.112 L 12.620 20.100 12.849 19.987 C 13.309 19.762,13.448 19.459,13.412 18.768 C 13.332 17.251,13.930 15.755,15.080 14.599 C 15.830 13.845,16.607 13.417,17.661 13.180 C 18.597 12.970,19.563 13.004,20.520 13.283 C 20.975 13.415,21.124 13.415,21.418 13.284 C 21.637 13.187,21.865 12.943,21.939 12.725 C 22.028 12.464,22.029 7.708,21.941 7.032 C 21.836 6.237,21.631 5.596,21.295 5.020 C 21.057 4.612,20.459 4.008,20.033 3.745 C 19.426 3.371,18.654 3.131,17.766 3.042 C 17.254 2.990,6.659 2.994,6.161 3.046 M7.204 7.280 C 7.299 7.307,7.923 7.781,9.024 8.661 C 10.727 10.024,10.957 10.181,11.418 10.299 C 11.912 10.425,12.636 10.346,13.084 10.118 C 13.169 10.074,14.003 9.429,14.935 8.684 C 15.955 7.869,16.690 7.310,16.779 7.280 C 17.063 7.187,17.397 7.297,17.588 7.547 C 17.688 7.678,17.700 7.726,17.700 7.997 C 17.700 8.234,17.683 8.326,17.620 8.419 C 17.554 8.517,14.951 10.625,14.198 11.191 C 13.896 11.418,13.364 11.661,12.935 11.768 C 12.429 11.895,11.571 11.895,11.065 11.768 C 10.636 11.661,10.104 11.418,9.802 11.191 C 9.109 10.671,6.471 8.539,6.403 8.444 C 6.124 8.053,6.300 7.454,6.740 7.300 C 6.934 7.232,7.016 7.228,7.204 7.280 M18.300 14.906 C 16.952 15.119,15.908 15.881,15.360 17.051 C 14.621 18.628,15.093 20.557,16.476 21.607 C 16.790 21.846,17.445 22.172,17.780 22.256 C 18.708 22.491,19.676 22.379,20.505 21.941 L 20.831 21.770 21.244 22.185 C 21.703 22.645,21.824 22.720,22.103 22.720 C 22.534 22.720,22.858 22.402,22.856 21.982 C 22.855 21.703,22.773 21.569,22.312 21.095 L 21.913 20.686 22.054 20.433 C 22.132 20.294,22.249 20.018,22.315 19.820 C 22.835 18.261,22.279 16.545,20.940 15.575 C 20.641 15.359,20.060 15.093,19.678 14.999 C 19.347 14.918,18.560 14.864,18.300 14.906 " fill="#292D32" stroke="none" fill-rule="evenodd"></path></svg>