<svg width="24" height="24" viewBox="0 0 24 24" fill="none" xmlns="http://www.w3.org/2000/svg"><path d="M6.161 3.046 C 5.346 3.131,4.552 3.384,3.967 3.745 C 3.541 4.008,2.943 4.612,2.705 5.020 C 2.369 5.596,2.164 6.237,2.059 7.032 C 1.972 7.700,1.972 15.300,2.059 15.968 C 2.212 17.136,2.575 17.966,3.226 18.642 C 3.889 19.329,4.616 19.691,5.780 19.912 C 6.094 19.971,6.441 19.980,8.500 19.980 C 10.852 19.980,10.861 19.980,11.024 19.892 C 11.204 19.796,11.421 19.569,11.490 19.406 C 11.518 19.338,11.535 18.908,11.537 18.200 C 11.541 16.990,11.581 16.690,11.845 15.901 C 12.364 14.346,13.658 12.882,15.160 12.152 C 16.755 11.377,18.683 11.294,20.320 11.930 C 20.550 12.020,20.823 12.102,20.925 12.111 C 21.296 12.147,21.712 11.920,21.891 11.586 C 21.979 11.422,21.980 11.397,21.991 9.466 C 22.001 7.898,21.991 7.419,21.942 7.046 C 21.837 6.239,21.633 5.600,21.295 5.020 C 21.057 4.612,20.459 4.008,20.033 3.745 C 19.426 3.371,18.654 3.131,17.766 3.042 C 17.254 2.990,6.659 2.994,6.161 3.046 M7.204 7.280 C 7.299 7.307,7.923 7.781,9.024 8.661 C 10.727 10.024,10.957 10.181,11.418 10.299 C 11.912 10.425,12.636 10.346,13.084 10.118 C 13.169 10.074,14.003 9.429,14.935 8.684 C 15.955 7.869,16.690 7.310,16.779 7.280 C 17.063 7.187,17.397 7.297,17.588 7.547 C 17.688 7.678,17.700 7.726,17.700 7.997 C 17.700 8.234,17.683 8.326,17.620 8.419 C 17.554 8.517,14.951 10.625,14.198 11.191 C 13.896 11.418,13.364 11.661,12.935 11.768 C 12.429 11.895,11.571 11.895,11.065 11.768 C 10.636 11.661,10.104 11.418,9.802 11.191 C 9.109 10.671,6.471 8.539,6.403 8.444 C 6.124 8.053,6.300 7.454,6.740 7.300 C 6.934 7.232,7.016 7.228,7.204 7.280 M17.380 13.041 C 16.640 13.135,15.826 13.446,15.176 13.881 C 14.771 14.152,14.152 14.771,13.881 15.176 C 12.713 16.920,12.717 19.086,13.892 20.840 C 14.150 21.225,14.775 21.850,15.160 22.108 C 16.913 23.282,19.081 23.286,20.824 22.119 C 21.229 21.848,21.848 21.229,22.119 20.824 C 22.909 19.644,23.172 18.245,22.862 16.871 C 22.433 14.973,20.914 13.496,18.984 13.101 C 18.601 13.023,17.764 12.991,17.380 13.041 M19.592 15.640 C 19.781 15.726,20.199 16.104,20.319 16.299 C 20.453 16.516,20.487 16.762,20.415 17.006 C 20.356 17.209,20.275 17.298,18.867 18.710 C 17.714 19.867,17.346 20.213,17.221 20.259 C 17.040 20.325,16.221 20.449,15.987 20.447 C 15.790 20.444,15.649 20.351,15.575 20.174 C 15.522 20.048,15.525 19.974,15.601 19.447 C 15.648 19.124,15.719 18.788,15.759 18.700 C 15.866 18.462,18.598 15.752,18.840 15.643 C 19.069 15.540,19.368 15.538,19.592 15.640 " fill="#292D32" stroke="none" fill-rule="evenodd"></path></svg>