<svg width="24" height="24" viewBox="0 0 24 24" fill="none" xmlns="http://www.w3.org/2000/svg"><path d="M19.000 3.041 C 18.014 3.248,17.208 4.081,17.035 5.072 C 16.969 5.452,17.012 5.959,17.142 6.320 C 17.404 7.052,17.933 7.582,18.680 7.862 C 18.948 7.962,19.033 7.975,19.480 7.977 C 19.869 7.979,20.029 7.963,20.200 7.905 C 21.044 7.617,21.618 7.044,21.905 6.200 C 21.962 6.033,21.980 5.864,21.980 5.500 C 21.980 4.968,21.935 4.781,21.693 4.316 C 21.418 3.785,20.918 3.357,20.320 3.141 C 20.083 3.055,19.932 3.029,19.600 3.018 C 19.369 3.010,19.099 3.021,19.000 3.041 M6.120 3.548 C 5.792 3.583,5.278 3.694,4.941 3.802 C 3.360 4.310,2.412 5.468,2.094 7.280 C 2.025 7.671,2.020 8.000,2.020 12.000 C 2.020 16.000,2.025 16.329,2.094 16.720 C 2.457 18.787,3.608 19.970,5.661 20.387 C 5.999 20.456,6.372 20.460,12.000 20.460 C 17.628 20.460,18.001 20.456,18.339 20.387 C 20.291 19.990,21.422 18.909,21.839 17.040 C 21.985 16.386,22.006 15.820,21.993 12.840 C 21.980 9.985,21.980 9.980,21.892 9.816 C 21.790 9.626,21.562 9.413,21.374 9.335 C 21.189 9.258,20.905 9.267,20.536 9.361 C 19.343 9.669,18.038 9.427,17.120 8.729 C 15.965 7.851,15.368 6.489,15.527 5.100 C 15.614 4.338,15.580 4.122,15.323 3.830 C 15.254 3.750,15.120 3.648,15.026 3.603 C 14.856 3.521,14.827 3.520,10.557 3.526 C 8.194 3.530,6.197 3.540,6.120 3.548 M7.254 8.295 C 7.327 8.325,8.104 8.923,8.982 9.624 C 9.859 10.324,10.665 10.956,10.772 11.028 C 11.335 11.407,12.341 11.460,13.006 11.145 C 13.124 11.089,13.526 10.799,13.900 10.501 C 14.274 10.202,14.652 9.923,14.740 9.880 C 15.317 9.598,15.962 10.185,15.754 10.804 C 15.689 11.001,15.617 11.071,14.820 11.709 C 14.021 12.350,13.577 12.603,12.960 12.767 C 12.469 12.898,11.531 12.898,11.040 12.767 C 10.296 12.569,10.063 12.418,8.169 10.903 C 7.217 10.142,6.403 9.462,6.361 9.393 C 5.998 8.795,6.621 8.030,7.254 8.295 " fill="#292D32" stroke="none" fill-rule="evenodd"></path></svg>