<svg width="24" height="24" viewBox="0 0 24 24" fill="none" xmlns="http://www.w3.org/2000/svg"><path d="M18.244 2.046 C 17.993 2.118,17.685 2.485,17.384 3.070 C 17.022 3.775,16.862 3.905,16.217 4.017 C 15.721 4.104,15.498 4.192,15.276 4.391 C 15.057 4.588,14.983 4.767,15.009 5.039 C 15.037 5.331,15.180 5.576,15.558 5.978 C 15.749 6.181,15.947 6.435,15.997 6.543 C 16.122 6.808,16.145 7.120,16.065 7.471 C 15.991 7.794,15.980 8.268,16.042 8.489 C 16.064 8.571,16.131 8.695,16.190 8.764 C 16.487 9.118,16.987 9.075,17.772 8.629 L 18.139 8.420 18.500 8.420 L 18.860 8.420 19.228 8.629 C 19.865 8.991,20.251 9.075,20.584 8.924 C 20.760 8.844,20.880 8.701,20.954 8.484 C 21.020 8.290,21.011 7.803,20.935 7.471 C 20.856 7.122,20.878 6.808,21.001 6.547 C 21.051 6.441,21.249 6.187,21.443 5.981 C 21.847 5.552,21.961 5.356,21.989 5.041 C 22.038 4.505,21.645 4.174,20.783 4.024 C 20.392 3.956,20.086 3.809,19.926 3.614 C 19.868 3.543,19.715 3.278,19.586 3.024 C 19.311 2.481,19.100 2.224,18.822 2.095 C 18.608 1.995,18.464 1.983,18.244 2.046 M6.120 3.548 C 5.792 3.583,5.278 3.694,4.941 3.802 C 3.360 4.310,2.412 5.468,2.094 7.280 C 2.025 7.671,2.020 8.000,2.020 12.000 C 2.020 16.000,2.025 16.329,2.094 16.720 C 2.457 18.787,3.608 19.970,5.661 20.387 C 5.999 20.456,6.372 20.460,12.000 20.460 C 17.628 20.460,18.001 20.456,18.339 20.387 C 20.550 19.938,21.731 18.587,21.960 16.246 C 21.982 16.011,22.000 14.612,22.000 13.019 C 22.000 10.567,21.992 10.198,21.940 10.145 C 21.815 10.020,21.723 10.029,21.387 10.196 C 20.973 10.403,20.668 10.480,20.262 10.479 C 19.846 10.478,19.485 10.400,19.050 10.216 C 18.553 10.007,18.464 10.003,18.067 10.174 C 17.542 10.399,17.152 10.493,16.739 10.492 C 15.588 10.489,14.737 9.737,14.536 8.544 C 14.478 8.203,14.475 8.086,14.516 7.702 C 14.573 7.174,14.566 7.150,14.259 6.751 C 14.000 6.414,13.712 5.846,13.624 5.500 C 13.514 5.065,13.504 4.828,13.581 4.421 C 13.666 3.971,13.632 3.788,13.436 3.623 L 13.314 3.520 9.787 3.526 C 7.847 3.530,6.197 3.540,6.120 3.548 M7.231 8.283 C 7.299 8.307,8.107 8.928,9.027 9.663 C 10.001 10.442,10.800 11.050,10.940 11.120 C 11.660 11.481,12.643 11.419,13.302 10.972 C 13.582 10.783,13.675 10.749,13.906 10.754 C 14.440 10.764,14.784 11.361,14.537 11.845 C 14.383 12.145,13.621 12.591,12.960 12.767 C 12.469 12.898,11.531 12.898,11.040 12.767 C 10.296 12.569,10.063 12.418,8.169 10.903 C 7.217 10.142,6.403 9.462,6.361 9.393 C 6.005 8.806,6.590 8.059,7.231 8.283 " fill="#292D32" stroke="none" fill-rule="evenodd"></path></svg>