<svg width="24" height="24" viewBox="0 0 24 24" fill="none" xmlns="http://www.w3.org/2000/svg"><path d="M6.360 3.026 C 4.944 3.171,3.984 3.573,3.256 4.326 C 2.633 4.969,2.282 5.716,2.090 6.800 C 2.032 7.124,2.022 7.494,2.021 9.300 C 2.020 11.293,2.024 11.428,2.095 11.560 C 2.273 11.896,2.555 12.079,2.939 12.110 C 3.146 12.126,3.231 12.109,3.540 11.990 C 4.472 11.629,5.044 11.518,5.982 11.515 C 7.139 11.513,8.000 11.723,9.032 12.261 C 9.629 12.571,10.037 12.877,10.580 13.420 C 11.139 13.979,11.460 14.417,11.800 15.083 C 12.355 16.171,12.578 17.318,12.477 18.550 C 12.440 19.003,12.440 19.158,12.480 19.301 C 12.548 19.544,12.789 19.808,13.042 19.917 L 13.248 20.006 15.614 19.990 C 17.977 19.973,17.981 19.973,18.440 19.871 C 20.447 19.425,21.528 18.287,21.909 16.221 C 21.968 15.903,21.978 15.378,21.991 11.840 C 22.007 7.560,21.994 7.153,21.821 6.390 C 21.458 4.781,20.422 3.676,18.875 3.245 C 18.047 3.014,18.399 3.026,12.200 3.018 C 9.065 3.015,6.437 3.018,6.360 3.026 M7.231 7.283 C 7.299 7.307,8.107 7.928,9.027 8.663 C 10.001 9.442,10.800 10.050,10.940 10.120 C 11.654 10.478,12.678 10.416,13.288 9.978 C 13.403 9.895,14.195 9.272,15.047 8.593 C 15.899 7.913,16.659 7.331,16.737 7.299 C 17.374 7.033,18.002 7.795,17.639 8.393 C 17.597 8.462,16.783 9.142,15.831 9.903 C 13.937 11.418,13.704 11.569,12.960 11.767 C 12.469 11.898,11.531 11.898,11.040 11.767 C 10.296 11.569,10.063 11.418,8.169 9.903 C 7.217 9.142,6.403 8.462,6.361 8.393 C 6.005 7.806,6.590 7.059,7.231 7.283 M5.340 13.046 C 4.850 13.108,4.317 13.273,3.818 13.517 C 2.372 14.224,1.391 15.506,1.075 17.100 C 1.002 17.468,1.002 18.532,1.075 18.900 C 1.438 20.729,2.744 22.213,4.468 22.753 C 5.104 22.952,5.289 22.979,6.020 22.978 C 6.623 22.977,6.749 22.965,7.131 22.869 C 9.032 22.393,10.393 21.032,10.869 19.131 C 10.965 18.749,10.977 18.623,10.978 18.020 C 10.979 17.289,10.952 17.104,10.753 16.468 C 10.507 15.682,10.075 14.994,9.456 14.402 C 9.023 13.988,8.673 13.748,8.113 13.481 C 7.270 13.078,6.291 12.925,5.340 13.046 M6.252 16.014 C 6.427 16.087,6.630 16.327,6.662 16.499 C 6.721 16.810,6.541 17.145,6.252 17.266 C 6.066 17.344,3.894 17.344,3.708 17.266 C 3.419 17.145,3.239 16.810,3.298 16.499 C 3.329 16.332,3.530 16.089,3.699 16.016 C 3.875 15.939,6.069 15.938,6.252 16.014 M8.348 18.764 C 8.837 19.001,8.837 19.719,8.348 19.956 C 8.179 20.038,8.126 20.040,6.006 20.040 C 3.614 20.040,3.679 20.046,3.451 19.787 C 3.228 19.532,3.228 19.188,3.451 18.933 C 3.677 18.676,3.603 18.683,5.997 18.682 C 8.128 18.680,8.178 18.682,8.348 18.764 " fill="#292D32" stroke="none" fill-rule="evenodd"></path></svg>