<svg width="24" height="24" viewBox="0 0 24 24" fill="none" xmlns="http://www.w3.org/2000/svg"><path d="M5.968 3.566 C 5.808 3.587,5.507 3.647,5.299 3.699 C 3.361 4.191,2.290 5.494,2.042 7.662 C 1.986 8.146,1.986 15.854,2.042 16.338 C 2.334 18.889,3.790 20.268,6.416 20.479 C 7.112 20.535,16.888 20.535,17.584 20.479 C 18.929 20.371,19.944 19.965,20.680 19.240 C 21.422 18.510,21.811 17.627,21.958 16.338 C 22.014 15.854,22.014 8.146,21.958 7.662 C 21.698 5.393,20.591 4.127,18.431 3.629 C 18.062 3.543,18.035 3.543,12.160 3.536 C 8.716 3.532,6.139 3.545,5.968 3.566 M7.204 8.280 C 7.299 8.307,7.923 8.781,9.024 9.661 C 10.727 11.024,10.957 11.181,11.418 11.299 C 11.912 11.425,12.636 11.346,13.084 11.118 C 13.169 11.074,14.003 10.429,14.935 9.684 C 15.955 8.869,16.690 8.310,16.779 8.280 C 17.063 8.187,17.397 8.297,17.588 8.547 C 17.688 8.678,17.700 8.726,17.700 8.997 C 17.700 9.234,17.683 9.326,17.620 9.419 C 17.554 9.517,14.951 11.625,14.198 12.191 C 13.896 12.418,13.364 12.661,12.935 12.768 C 12.428 12.895,11.572 12.895,11.060 12.767 C 10.396 12.602,10.018 12.377,8.860 11.455 C 6.186 9.326,6.269 9.405,6.269 8.981 C 6.269 8.659,6.446 8.405,6.747 8.298 C 6.933 8.232,7.017 8.229,7.204 8.280 " fill="#292D32" stroke="none" fill-rule="evenodd"></path></svg>