<svg width="24" height="24" viewBox="0 0 24 24" fill="none" xmlns="http://www.w3.org/2000/svg"><path d="M6.960 2.046 C 6.236 2.116,5.358 2.357,4.796 2.641 C 4.426 2.828,3.928 3.183,3.624 3.475 C 2.737 4.332,2.251 5.370,2.062 6.812 C 1.970 7.515,1.969 16.481,2.061 17.188 C 2.239 18.550,2.681 19.544,3.476 20.372 C 4.162 21.084,4.935 21.524,5.956 21.780 C 6.817 21.997,6.896 22.000,11.993 22.000 C 14.960 22.000,16.828 21.985,17.041 21.959 C 19.985 21.603,21.695 19.840,21.962 16.885 C 21.990 16.579,21.999 14.787,21.989 11.660 C 21.974 7.001,21.972 6.891,21.889 6.456 C 21.642 5.171,21.165 4.235,20.369 3.478 C 19.583 2.729,18.652 2.295,17.359 2.076 C 16.995 2.014,7.572 1.987,6.960 2.046 M18.271 7.062 C 18.575 7.189,18.731 7.422,18.731 7.746 C 18.731 8.020,18.590 8.265,18.354 8.400 L 18.180 8.500 12.000 8.500 L 5.820 8.500 5.646 8.400 C 5.216 8.154,5.134 7.542,5.486 7.212 C 5.723 6.991,5.345 7.003,11.991 7.002 C 17.437 7.000,18.139 7.007,18.271 7.062 M16.189 11.286 C 16.577 11.384,16.814 11.790,16.714 12.186 C 16.656 12.416,16.428 12.657,16.213 12.717 C 16.000 12.776,8.000 12.776,7.787 12.717 C 7.572 12.657,7.344 12.416,7.286 12.186 C 7.190 11.806,7.425 11.385,7.785 11.289 C 8.017 11.228,15.946 11.225,16.189 11.286 M13.682 15.601 C 13.874 15.699,14.039 15.937,14.069 16.157 C 14.117 16.516,13.817 16.929,13.473 16.979 C 13.378 16.993,12.650 16.999,11.857 16.992 L 10.413 16.980 10.248 16.866 C 9.776 16.538,9.825 15.852,10.340 15.583 C 10.443 15.530,10.681 15.520,11.992 15.520 C 13.450 15.520,13.531 15.524,13.682 15.601 " fill="#292D32" stroke="none" fill-rule="evenodd"></path></svg>