<svg width="24" height="24" viewBox="0 0 24 24" fill="none" xmlns="http://www.w3.org/2000/svg"><path d="M11.649 2.602 C 11.534 2.661,11.442 2.750,11.369 2.875 L 11.260 3.060 11.260 12.000 L 11.260 20.940 11.352 21.101 C 11.500 21.358,11.684 21.460,12.000 21.460 C 12.316 21.460,12.500 21.358,12.648 21.101 L 12.740 20.940 12.740 12.000 L 12.740 3.060 12.648 2.899 C 12.449 2.552,12.006 2.421,11.649 2.602 M7.300 5.032 C 7.135 5.090,6.973 5.212,6.878 5.351 L 6.780 5.494 6.780 12.000 L 6.780 18.506 6.875 18.645 C 7.034 18.877,7.223 18.977,7.500 18.977 C 7.777 18.977,7.966 18.877,8.125 18.645 L 8.220 18.506 8.220 12.000 L 8.220 5.494 8.125 5.355 C 8.072 5.278,7.967 5.175,7.892 5.126 C 7.749 5.032,7.439 4.983,7.300 5.032 M16.300 5.032 C 16.135 5.090,15.973 5.212,15.878 5.351 L 15.780 5.494 15.780 12.000 L 15.780 18.506 15.875 18.645 C 16.034 18.877,16.223 18.977,16.500 18.977 C 16.777 18.977,16.966 18.877,17.125 18.645 L 17.220 18.506 17.220 12.000 L 17.220 5.494 17.125 5.355 C 17.072 5.278,16.967 5.175,16.892 5.126 C 16.749 5.032,16.439 4.983,16.300 5.032 M2.633 7.610 C 2.458 7.717,2.350 7.850,2.286 8.036 C 2.220 8.231,2.220 15.771,2.287 15.964 C 2.449 16.433,2.958 16.630,3.375 16.385 C 3.504 16.309,3.580 16.225,3.656 16.073 L 3.760 15.864 3.760 12.000 L 3.760 8.136 3.656 7.927 C 3.520 7.654,3.303 7.520,2.996 7.520 C 2.843 7.520,2.737 7.546,2.633 7.610 M20.649 7.602 C 20.534 7.661,20.442 7.750,20.369 7.875 L 20.260 8.060 20.260 12.000 L 20.260 15.940 20.352 16.101 C 20.500 16.358,20.684 16.460,21.000 16.460 C 21.316 16.460,21.500 16.358,21.648 16.101 L 21.740 15.940 21.740 12.000 L 21.740 8.060 21.648 7.899 C 21.449 7.552,21.006 7.421,20.649 7.602 " fill="#292D32" stroke="none" fill-rule="evenodd"></path></svg>