<svg width="24" height="24" viewBox="0 0 24 24" fill="none" xmlns="http://www.w3.org/2000/svg"><path d="M7.743 1.702 C 5.714 1.979,4.812 3.024,4.642 5.300 C 4.585 6.062,4.585 17.938,4.642 18.700 C 4.826 21.166,5.834 22.174,8.300 22.358 C 9.037 22.413,14.963 22.413,15.700 22.358 C 17.861 22.196,18.871 21.410,19.240 19.600 C 19.393 18.850,19.406 18.170,19.390 11.520 C 19.374 4.523,19.385 4.828,19.135 3.967 C 18.742 2.612,17.843 1.914,16.213 1.700 C 15.577 1.617,8.358 1.619,7.743 1.702 M12.520 6.099 C 12.917 6.239,13.243 6.570,13.402 6.994 C 13.523 7.316,13.501 7.809,13.353 8.127 C 13.204 8.446,12.958 8.697,12.644 8.850 C 12.404 8.967,12.346 8.979,12.000 8.979 C 11.672 8.979,11.589 8.965,11.393 8.873 C 11.090 8.732,10.841 8.494,10.676 8.190 C 10.545 7.949,10.540 7.924,10.540 7.500 C 10.540 7.097,10.549 7.042,10.650 6.851 C 10.864 6.446,11.187 6.178,11.601 6.061 C 11.859 5.989,12.254 6.006,12.520 6.099 M12.544 12.062 C 13.211 12.178,13.893 12.585,14.330 13.127 C 14.617 13.484,14.862 14.018,14.938 14.456 C 15.015 14.898,15.016 15.099,14.940 15.531 C 14.769 16.513,14.078 17.381,13.163 17.764 C 11.477 18.469,9.582 17.529,9.092 15.744 C 9.007 15.433,8.997 14.629,9.076 14.323 C 9.271 13.562,9.736 12.902,10.360 12.501 C 11.039 12.065,11.745 11.923,12.544 12.062 " fill="#292D32" stroke="none" fill-rule="evenodd"></path></svg>