<svg width="24" height="24" viewBox="0 0 24 24" fill="none" xmlns="http://www.w3.org/2000/svg"><path d="M10.940 1.803 C 7.697 2.139,4.804 3.895,3.010 6.615 C 2.686 7.106,2.222 7.998,2.003 8.550 C 0.621 12.034,1.167 15.997,3.441 19.000 C 3.782 19.450,4.348 20.072,4.477 20.139 C 4.874 20.344,5.342 20.184,5.525 19.782 C 5.670 19.462,5.602 19.212,5.272 18.848 C 4.026 17.477,3.278 16.030,2.941 14.340 C 2.346 11.358,3.224 8.332,5.334 6.094 C 6.430 4.931,8.049 3.981,9.657 3.557 C 11.119 3.171,12.881 3.171,14.343 3.557 C 16.955 4.245,19.082 5.992,20.299 8.447 C 21.957 11.791,21.401 15.838,18.895 18.654 C 18.722 18.848,18.540 19.073,18.491 19.154 C 18.392 19.315,18.371 19.598,18.443 19.787 C 18.587 20.167,19.102 20.353,19.480 20.160 C 19.646 20.075,20.172 19.509,20.572 18.984 C 22.497 16.457,23.194 13.159,22.464 10.040 C 21.924 7.734,20.572 5.599,18.714 4.118 C 17.195 2.906,15.483 2.162,13.520 1.860 C 13.018 1.782,11.466 1.748,10.940 1.803 M15.480 8.579 C 14.723 8.797,14.167 9.407,14.040 10.158 C 14.011 10.333,13.998 10.673,14.008 11.014 C 14.023 11.533,14.033 11.597,14.132 11.789 C 14.269 12.052,14.458 12.242,14.706 12.364 C 14.882 12.451,14.960 12.461,15.560 12.473 C 16.447 12.492,16.754 12.419,17.191 12.090 C 18.253 11.290,18.251 9.708,17.188 8.907 C 16.828 8.637,16.459 8.519,15.980 8.524 C 15.804 8.526,15.579 8.551,15.480 8.579 M11.420 14.282 C 9.855 14.526,8.601 15.695,8.212 17.271 C 8.121 17.640,8.121 18.555,8.212 18.950 C 8.437 19.926,9.030 20.789,9.851 21.335 C 10.251 21.602,10.637 21.771,11.109 21.888 C 11.603 22.011,12.397 22.011,12.891 21.888 C 14.329 21.532,15.412 20.449,15.768 19.011 C 15.891 18.515,15.891 17.724,15.767 17.226 C 15.409 15.781,14.312 14.687,12.870 14.339 C 12.560 14.264,11.741 14.231,11.420 14.282 " fill="#292D32" stroke="none" fill-rule="evenodd"></path></svg>