<svg width="24" height="24" viewBox="0 0 24 24" fill="none" xmlns="http://www.w3.org/2000/svg"><path d="M13.629 4.138 C 13.407 4.217,13.126 4.448,12.909 4.731 C 12.790 4.885,12.406 5.598,11.901 6.604 C 10.764 8.865,10.953 8.716,8.760 9.080 C 6.922 9.385,6.704 9.453,6.321 9.836 C 5.952 10.205,5.906 10.671,6.183 11.236 C 6.320 11.516,6.428 11.637,7.564 12.782 C 8.649 13.876,8.812 14.056,8.918 14.283 C 9.043 14.549,9.120 14.867,9.120 15.112 C 9.120 15.190,8.972 15.885,8.791 16.657 C 8.466 18.045,8.462 18.066,8.461 18.600 C 8.460 19.084,8.470 19.162,8.555 19.350 C 8.677 19.619,8.899 19.819,9.165 19.898 C 9.438 19.979,9.564 19.976,9.929 19.883 C 10.330 19.780,10.605 19.637,11.996 18.810 C 13.518 17.904,13.519 17.904,14.000 17.907 C 14.242 17.909,14.442 17.933,14.550 17.973 C 14.644 18.008,15.319 18.392,16.050 18.827 C 16.782 19.261,17.514 19.675,17.677 19.746 C 18.651 20.170,19.348 19.923,19.546 19.086 C 19.656 18.616,19.626 18.398,19.186 16.500 C 19.044 15.884,18.915 15.299,18.901 15.200 C 18.869 14.980,18.959 14.518,19.082 14.274 C 19.138 14.164,19.584 13.681,20.297 12.960 C 21.572 11.670,21.668 11.560,21.842 11.188 C 22.199 10.426,21.919 9.798,21.067 9.452 C 20.894 9.381,20.377 9.278,19.311 9.102 C 17.024 8.723,17.225 8.881,16.035 6.508 L 15.188 4.820 14.884 4.516 C 14.657 4.290,14.530 4.196,14.383 4.146 C 14.147 4.067,13.837 4.063,13.629 4.138 M1.807 4.287 C 1.568 4.341,1.341 4.572,1.289 4.816 C 1.196 5.251,1.432 5.631,1.849 5.718 C 2.000 5.749,2.980 5.759,5.122 5.751 L 8.180 5.740 8.359 5.639 C 8.702 5.448,8.829 5.010,8.646 4.651 C 8.544 4.452,8.391 4.337,8.156 4.283 C 7.925 4.229,2.047 4.234,1.807 4.287 M1.807 11.287 C 1.275 11.406,1.085 12.125,1.481 12.521 C 1.685 12.725,1.927 12.773,2.637 12.753 C 3.125 12.740,3.198 12.728,3.359 12.639 C 3.702 12.449,3.829 12.010,3.646 11.651 C 3.544 11.452,3.391 11.337,3.156 11.283 C 2.937 11.232,2.040 11.235,1.807 11.287 M1.807 18.287 C 1.275 18.406,1.085 19.125,1.481 19.521 C 1.713 19.753,1.834 19.766,3.627 19.752 L 5.180 19.740 5.359 19.639 C 5.702 19.448,5.829 19.010,5.646 18.651 C 5.544 18.452,5.391 18.337,5.156 18.283 C 4.931 18.231,2.042 18.235,1.807 18.287 " fill="#292D32" stroke="none" fill-rule="evenodd"></path></svg>