<svg width="24" height="24" viewBox="0 0 24 24" fill="none" xmlns="http://www.w3.org/2000/svg"><path d="M11.601 2.062 C 11.162 2.185,10.704 2.552,10.382 3.039 C 10.287 3.182,9.776 4.165,9.247 5.223 C 8.292 7.132,8.283 7.148,8.026 7.388 C 7.586 7.800,7.546 7.813,5.581 8.143 C 4.627 8.304,3.768 8.455,3.673 8.480 C 2.205 8.859,1.601 9.935,2.195 11.110 C 2.413 11.541,2.693 11.860,4.082 13.260 C 4.913 14.098,5.503 14.724,5.551 14.820 C 5.813 15.342,5.818 15.673,5.580 16.712 L 5.400 17.498 3.784 19.119 C 2.896 20.011,2.137 20.803,2.097 20.880 C 1.991 21.083,2.002 21.429,2.119 21.618 C 2.299 21.910,2.675 22.058,2.986 21.960 C 3.113 21.920,4.808 20.245,12.494 12.566 C 19.026 6.039,21.871 3.172,21.923 3.060 C 21.964 2.972,21.999 2.836,21.999 2.758 C 22.000 2.550,21.847 2.280,21.648 2.141 C 21.504 2.042,21.436 2.022,21.248 2.023 C 21.109 2.024,20.965 2.052,20.880 2.096 C 20.803 2.136,19.612 3.294,18.234 4.670 L 15.727 7.172 14.705 5.136 C 13.610 2.956,13.500 2.777,13.020 2.390 C 12.606 2.056,12.066 1.931,11.601 2.062 M18.985 8.402 C 18.900 8.423,18.702 8.507,18.545 8.587 C 18.278 8.724,17.845 9.148,11.848 15.137 L 5.436 21.540 5.568 21.651 C 5.741 21.797,6.146 21.920,6.454 21.920 C 6.815 21.919,7.326 21.782,7.780 21.564 C 8.000 21.459,8.881 20.955,9.739 20.445 C 10.596 19.936,11.370 19.497,11.459 19.470 C 11.724 19.390,12.385 19.410,12.620 19.506 C 12.730 19.550,13.441 19.955,14.200 20.407 C 16.084 21.527,16.106 21.539,16.443 21.673 C 18.023 22.299,19.081 21.653,19.080 20.065 C 19.079 19.618,19.049 19.452,18.618 17.556 C 18.391 16.557,18.240 15.804,18.240 15.674 C 18.240 15.399,18.332 15.044,18.470 14.783 C 18.546 14.640,19.019 14.134,20.059 13.080 C 21.579 11.540,21.689 11.409,21.913 10.871 C 21.999 10.662,22.017 10.556,22.018 10.240 C 22.020 9.893,22.009 9.836,21.891 9.587 C 21.649 9.076,21.099 8.683,20.340 8.478 C 19.979 8.380,19.237 8.339,18.985 8.402 " fill="#292D32" stroke="none" fill-rule="evenodd"></path></svg>