<svg width="24" height="24" viewBox="0 0 24 24" fill="none" xmlns="http://www.w3.org/2000/svg"><path d="M11.601 2.064 C 11.156 2.184,10.710 2.546,10.351 3.079 C 10.240 3.245,9.729 4.228,9.217 5.263 C 7.907 7.910,8.157 7.711,5.587 8.142 C 3.598 8.476,3.455 8.508,3.012 8.726 C 2.584 8.935,2.281 9.225,2.109 9.587 C 1.991 9.837,1.980 9.892,1.983 10.240 C 1.985 10.553,2.004 10.668,2.093 10.894 C 2.297 11.418,2.508 11.669,4.024 13.200 C 4.892 14.077,5.502 14.725,5.552 14.822 C 5.668 15.052,5.760 15.435,5.760 15.686 C 5.759 15.807,5.639 16.424,5.481 17.110 C 5.328 17.775,5.212 18.344,5.223 18.374 C 5.235 18.404,5.292 18.451,5.349 18.477 C 5.453 18.524,5.549 18.430,10.884 13.096 L 16.314 7.667 16.167 7.560 C 15.793 7.287,15.702 7.136,14.760 5.226 C 14.259 4.210,13.759 3.245,13.648 3.079 C 13.285 2.537,12.843 2.182,12.382 2.062 C 12.091 1.986,11.888 1.987,11.601 2.064 M18.320 8.228 C 18.129 8.260,17.819 8.370,17.640 8.469 C 17.455 8.572,5.080 20.899,5.080 20.980 C 5.080 21.067,5.255 21.348,5.409 21.507 C 5.498 21.599,5.681 21.724,5.815 21.786 C 6.033 21.886,6.104 21.899,6.460 21.897 C 7.221 21.894,7.531 21.757,9.738 20.445 C 10.595 19.935,11.369 19.497,11.458 19.471 C 11.667 19.408,12.333 19.408,12.543 19.471 C 12.632 19.497,13.406 19.936,14.263 20.445 C 16.472 21.758,16.779 21.894,17.540 21.897 C 17.897 21.899,17.966 21.887,18.189 21.784 C 18.766 21.519,19.078 20.923,19.079 20.080 C 19.080 19.653,19.015 19.304,18.600 17.500 C 18.252 15.985,18.233 15.881,18.251 15.551 C 18.267 15.258,18.292 15.157,18.410 14.911 C 18.539 14.644,18.668 14.500,20.005 13.140 C 20.819 12.313,21.531 11.554,21.619 11.420 C 22.423 10.202,21.999 9.052,20.560 8.552 C 20.292 8.459,18.802 8.198,18.580 8.206 C 18.492 8.209,18.375 8.218,18.320 8.228 " fill="#292D32" stroke="none" fill-rule="evenodd"></path></svg>