<svg width="24" height="24" viewBox="0 0 24 24" fill="none" xmlns="http://www.w3.org/2000/svg"><path d="M11.300 1.280 C 9.440 1.399,7.672 1.983,6.120 2.990 C 4.872 3.801,3.696 4.994,2.899 6.260 C 2.364 7.109,1.833 8.363,1.579 9.378 C 1.452 9.886,1.457 10.232,1.596 10.600 C 1.760 11.033,2.152 11.428,2.600 11.610 L 2.820 11.700 12.000 11.700 L 21.180 11.700 21.414 11.606 C 21.850 11.430,22.234 11.045,22.404 10.611 C 22.478 10.425,22.495 10.303,22.495 9.980 C 22.494 9.637,22.473 9.510,22.349 9.093 C 22.128 8.351,21.944 7.878,21.621 7.220 C 21.075 6.105,20.488 5.286,19.602 4.398 C 17.896 2.691,15.723 1.628,13.360 1.345 C 12.709 1.267,11.900 1.242,11.300 1.280 M3.379 14.311 C 2.767 14.525,2.350 14.992,2.200 15.635 C 2.142 15.881,2.167 16.217,2.263 16.505 C 2.412 16.953,3.115 18.092,3.654 18.760 C 4.011 19.201,4.883 20.064,5.327 20.413 C 6.483 21.325,8.149 22.171,8.902 22.229 C 9.376 22.265,9.816 22.101,10.188 21.749 C 10.452 21.499,10.619 21.214,10.698 20.877 C 10.789 20.492,10.789 15.889,10.699 15.541 C 10.566 15.031,10.221 14.621,9.730 14.388 L 9.460 14.260 6.520 14.251 C 3.811 14.242,3.564 14.247,3.379 14.311 M14.500 14.336 C 13.825 14.550,13.364 15.109,13.270 15.827 C 13.243 16.036,13.241 16.934,13.265 18.540 L 13.300 20.940 13.428 21.210 C 13.606 21.586,13.902 21.887,14.275 22.071 C 14.565 22.215,14.591 22.220,14.998 22.220 C 15.410 22.219,15.432 22.215,15.900 22.025 C 18.215 21.089,20.112 19.453,21.320 17.353 C 21.728 16.645,21.780 16.492,21.780 16.000 C 21.780 15.613,21.770 15.560,21.656 15.320 C 21.502 14.996,21.220 14.680,20.946 14.523 C 20.517 14.278,20.540 14.280,17.462 14.283 C 15.316 14.285,14.623 14.297,14.500 14.336 " fill="#292D32" stroke="none" fill-rule="evenodd"></path></svg>