<svg width="24" height="24" viewBox="0 0 24 24" fill="none" xmlns="http://www.w3.org/2000/svg"><path d="M6.960 2.046 C 6.236 2.116,5.358 2.357,4.796 2.641 C 4.426 2.828,3.928 3.183,3.624 3.475 C 2.737 4.332,2.251 5.370,2.062 6.812 C 1.970 7.515,1.969 16.481,2.061 17.188 C 2.239 18.550,2.681 19.544,3.476 20.372 C 4.162 21.084,4.935 21.524,5.956 21.780 C 6.817 21.997,6.896 22.000,11.993 22.000 C 14.960 22.000,16.828 21.985,17.041 21.959 C 19.985 21.603,21.695 19.840,21.962 16.885 C 21.990 16.579,21.999 14.787,21.989 11.660 C 21.974 7.001,21.972 6.891,21.889 6.456 C 21.642 5.171,21.165 4.235,20.369 3.478 C 19.583 2.729,18.652 2.295,17.359 2.076 C 16.995 2.014,7.572 1.987,6.960 2.046 M17.525 5.221 C 17.619 5.287,17.733 5.404,17.778 5.481 C 17.857 5.615,17.860 5.679,17.860 7.260 C 17.860 8.162,17.847 8.948,17.830 9.007 C 17.758 9.265,17.412 9.517,17.129 9.519 C 16.967 9.520,16.732 9.425,16.607 9.308 C 16.416 9.130,16.385 9.014,16.367 8.413 L 16.351 7.845 15.746 8.408 C 13.313 10.667,10.447 12.269,7.420 13.061 C 6.869 13.206,6.762 13.206,6.492 13.066 C 6.353 12.994,6.184 12.737,6.141 12.533 C 6.087 12.272,6.267 11.910,6.515 11.783 C 6.573 11.753,6.917 11.644,7.280 11.540 C 10.117 10.731,12.535 9.345,14.800 7.233 L 15.457 6.620 14.718 6.600 C 14.034 6.581,13.969 6.573,13.831 6.487 C 13.405 6.223,13.334 5.666,13.681 5.319 C 13.763 5.237,13.899 5.151,13.985 5.128 C 14.084 5.101,14.719 5.088,15.747 5.093 L 17.353 5.100 17.525 5.221 M17.488 11.290 C 17.583 11.343,17.691 11.453,17.754 11.560 L 17.860 11.740 17.860 15.040 L 17.860 18.340 17.754 18.520 C 17.465 19.012,16.775 19.012,16.486 18.520 L 16.380 18.340 16.380 15.040 L 16.380 11.740 16.479 11.567 C 16.679 11.217,17.136 11.092,17.488 11.290 M12.352 13.349 C 12.524 13.430,12.663 13.615,12.719 13.840 C 12.750 13.965,12.760 14.678,12.752 16.180 L 12.740 18.340 12.634 18.520 C 12.345 19.012,11.655 19.012,11.366 18.520 L 11.260 18.340 11.247 16.200 C 11.233 13.781,11.238 13.722,11.478 13.482 C 11.716 13.244,12.029 13.197,12.352 13.349 M7.232 15.429 C 7.405 15.510,7.543 15.695,7.600 15.923 C 7.631 16.045,7.642 16.473,7.633 17.223 C 7.620 18.329,7.619 18.342,7.520 18.514 C 7.235 19.012,6.525 19.012,6.240 18.514 C 6.141 18.342,6.140 18.327,6.126 17.240 C 6.111 15.946,6.133 15.787,6.358 15.562 C 6.596 15.324,6.909 15.277,7.232 15.429 " fill="#292D32" stroke="none" fill-rule="evenodd"></path></svg>