<svg width="24" height="24" viewBox="0 0 24 24" fill="none" xmlns="http://www.w3.org/2000/svg"><path d="M7.978 2.075 C 7.760 2.175,7.616 2.357,7.564 2.601 C 7.537 2.725,7.520 3.337,7.520 4.175 C 7.520 5.265,7.532 5.586,7.579 5.744 C 7.643 5.958,7.826 6.167,8.013 6.238 C 8.323 6.355,8.730 6.224,8.913 5.948 L 9.020 5.786 9.032 4.283 C 9.039 3.456,9.034 2.703,9.020 2.608 C 8.974 2.298,8.613 2.002,8.280 2.002 C 8.203 2.002,8.067 2.035,7.978 2.075 M15.418 2.075 C 15.223 2.164,15.057 2.352,14.999 2.552 C 14.969 2.651,14.959 3.211,14.967 4.243 L 14.980 5.787 15.094 5.952 C 15.384 6.369,15.996 6.382,16.305 5.978 L 16.420 5.826 16.431 4.194 C 16.442 2.649,16.438 2.554,16.366 2.411 C 16.271 2.225,16.180 2.141,15.990 2.062 C 15.796 1.981,15.617 1.985,15.418 2.075 M11.167 3.580 C 10.941 3.680,10.805 3.798,10.690 3.993 C 10.583 4.175,10.579 4.200,10.555 4.980 C 10.542 5.420,10.508 5.870,10.480 5.980 C 10.339 6.536,9.986 7.063,9.544 7.379 C 8.646 8.019,7.498 7.909,6.697 7.104 C 6.254 6.660,6.040 6.138,6.040 5.502 C 6.040 5.325,6.021 5.113,5.998 5.031 C 5.887 4.631,5.464 4.320,5.032 4.320 C 4.736 4.320,4.575 4.388,4.258 4.644 C 3.614 5.167,3.035 6.010,2.764 6.822 C 2.510 7.581,2.517 7.400,2.529 12.924 L 2.540 17.940 2.649 18.328 C 3.216 20.340,4.819 21.731,6.834 21.960 C 7.087 21.989,8.120 22.000,9.840 21.992 C 12.433 21.980,12.462 21.979,12.621 21.894 C 12.825 21.785,12.985 21.625,13.094 21.421 C 13.178 21.264,13.181 21.208,13.203 19.200 C 13.225 17.278,13.233 17.121,13.309 16.860 C 13.731 15.424,14.651 14.427,15.999 13.942 C 16.637 13.713,16.706 13.707,18.820 13.683 C 20.739 13.660,20.783 13.658,20.944 13.572 C 21.134 13.470,21.347 13.242,21.425 13.054 C 21.470 12.947,21.480 12.446,21.480 10.378 C 21.480 7.984,21.475 7.809,21.399 7.437 C 21.301 6.954,21.164 6.562,20.947 6.141 C 20.624 5.517,20.027 4.818,19.538 4.493 C 19.037 4.160,18.398 4.307,18.095 4.826 C 18.008 4.974,17.985 5.078,17.957 5.462 C 17.901 6.204,17.713 6.645,17.245 7.132 C 16.092 8.331,14.111 7.830,13.559 6.200 C 13.482 5.975,13.467 5.819,13.445 5.057 L 13.420 4.174 13.299 3.978 C 13.224 3.857,13.103 3.736,12.982 3.661 L 12.787 3.540 12.043 3.530 C 11.459 3.523,11.272 3.533,11.167 3.580 M13.467 11.242 C 13.620 11.300,13.837 11.512,13.905 11.669 C 14.059 12.029,13.876 12.471,13.500 12.644 C 13.349 12.714,13.163 12.718,10.040 12.719 C 7.834 12.719,6.689 12.705,6.587 12.677 C 6.185 12.565,5.936 12.081,6.082 11.693 C 6.138 11.545,6.349 11.324,6.500 11.257 C 6.597 11.213,7.258 11.203,9.987 11.202 C 12.268 11.201,13.391 11.214,13.467 11.242 M10.744 14.984 C 11.076 15.142,11.255 15.553,11.138 15.887 C 11.070 16.079,10.921 16.253,10.740 16.354 C 10.634 16.412,10.401 16.422,8.740 16.433 C 6.710 16.447,6.534 16.434,6.314 16.249 C 5.926 15.922,5.967 15.306,6.394 15.035 L 6.576 14.920 8.592 14.920 C 10.363 14.920,10.624 14.928,10.744 14.984 M17.460 15.202 C 16.802 15.232,16.581 15.284,16.159 15.504 C 15.607 15.793,15.190 16.232,14.920 16.808 C 14.693 17.292,14.681 17.429,14.681 19.554 C 14.680 21.703,14.675 21.661,14.947 21.868 C 15.125 22.004,15.414 22.035,15.613 21.941 C 15.702 21.899,16.852 20.766,18.595 19.004 C 21.683 15.882,21.572 16.011,21.475 15.661 C 21.420 15.460,21.220 15.260,21.018 15.204 C 20.843 15.156,18.482 15.154,17.460 15.202 " fill="#292D32" stroke="none" fill-rule="evenodd"></path></svg>