<svg width="24" height="24" viewBox="0 0 24 24" fill="none" xmlns="http://www.w3.org/2000/svg"><path d="M11.060 2.041 C 9.379 2.210,7.820 2.757,6.473 3.652 C 5.837 4.075,5.415 4.422,4.860 4.979 C 3.586 6.256,2.700 7.833,2.265 9.600 C 2.047 10.484,1.985 11.010,1.983 11.980 C 1.982 12.867,2.021 13.270,2.182 14.073 C 2.386 15.084,2.899 16.376,3.438 17.240 C 5.080 19.866,7.847 21.634,10.760 21.917 C 11.556 21.995,11.606 21.998,11.593 21.967 C 11.586 21.951,11.467 21.719,11.329 21.451 C 10.885 20.587,10.658 19.868,10.535 18.941 C 10.458 18.364,10.479 17.296,10.578 16.740 C 11.161 13.449,13.777 10.967,17.093 10.558 C 17.666 10.487,18.823 10.528,19.378 10.639 C 20.156 10.794,21.047 11.126,21.680 11.497 C 21.817 11.577,21.940 11.633,21.952 11.621 C 21.988 11.585,21.883 10.581,21.796 10.121 C 21.069 6.288,18.091 3.161,14.324 2.276 C 13.402 2.059,11.934 1.953,11.060 2.041 M17.440 12.027 C 15.513 12.217,13.852 13.260,12.827 14.924 C 11.796 16.596,11.704 18.869,12.594 20.645 C 12.792 21.039,13.070 21.477,13.276 21.720 L 13.395 21.860 17.598 17.660 C 19.909 15.350,21.800 13.441,21.800 13.417 C 21.800 13.358,21.256 12.973,20.860 12.750 C 19.868 12.194,18.557 11.916,17.440 12.027 " fill="#292D32" stroke="none" fill-rule="evenodd"></path></svg>