<svg width="24" height="24" viewBox="0 0 24 24" fill="none" xmlns="http://www.w3.org/2000/svg"><path d="M11.260 2.024 C 9.481 2.206,8.131 2.639,6.786 3.457 C 4.160 5.053,2.465 7.673,2.035 10.800 C 1.967 11.291,1.967 12.709,2.035 13.200 C 2.450 16.218,4.020 18.728,6.528 20.386 C 7.719 21.173,9.126 21.692,10.700 21.926 C 11.243 22.006,12.783 21.996,13.360 21.908 C 14.429 21.745,15.421 21.434,16.380 20.961 C 19.152 19.594,21.123 17.056,21.760 14.034 C 21.984 12.969,22.019 11.454,21.844 10.418 C 21.469 8.200,20.480 6.324,18.873 4.780 C 17.365 3.331,15.503 2.426,13.360 2.102 C 12.956 2.040,11.591 1.990,11.260 2.024 M13.561 7.800 C 14.976 7.962,16.035 9.033,16.199 10.470 C 16.251 10.923,16.251 13.077,16.199 13.530 C 16.047 14.856,15.188 15.824,13.860 16.168 C 13.712 16.207,13.225 16.220,11.980 16.220 C 10.474 16.220,10.273 16.212,10.042 16.147 C 8.931 15.832,8.129 15.020,7.850 13.929 C 7.790 13.696,7.781 13.440,7.781 12.000 C 7.781 10.173,7.790 10.085,8.038 9.537 C 8.461 8.604,9.383 7.919,10.369 7.804 C 10.781 7.756,13.153 7.753,13.561 7.800 " fill="#292D32" stroke="none" fill-rule="evenodd"></path></svg>