<svg width="24" height="24" viewBox="0 0 24 24" fill="none" xmlns="http://www.w3.org/2000/svg"><path d="M7.280 3.044 C 6.298 3.157,5.419 3.514,4.702 4.092 C 3.781 4.834,3.214 5.921,3.040 7.280 C 3.010 7.513,3.000 9.048,3.008 12.140 C 3.020 16.628,3.021 16.661,3.104 16.840 C 3.293 17.248,3.769 17.496,4.193 17.407 C 4.366 17.371,5.906 16.462,12.352 12.591 C 16.722 9.967,20.370 7.766,20.457 7.699 C 20.679 7.531,20.840 7.210,20.840 6.937 C 20.840 6.649,20.585 5.879,20.315 5.354 C 19.657 4.072,18.685 3.369,17.187 3.091 C 16.856 3.030,16.363 3.022,12.200 3.016 C 9.659 3.012,7.445 3.025,7.280 3.044 M19.733 10.122 C 19.551 10.178,5.441 18.650,5.303 18.787 C 4.939 19.146,4.930 19.804,5.284 20.158 C 5.443 20.317,6.034 20.610,6.483 20.753 C 7.275 21.005,7.264 21.005,12.260 20.989 C 16.667 20.975,16.790 20.973,17.161 20.891 C 19.227 20.439,20.519 19.117,20.905 17.060 C 20.974 16.692,20.980 16.426,20.980 13.740 C 20.980 10.953,20.977 10.813,20.904 10.667 C 20.808 10.474,20.634 10.299,20.438 10.199 C 20.256 10.106,19.909 10.068,19.733 10.122 " fill="#292D32" stroke="none" fill-rule="evenodd"></path></svg>