<svg width="24" height="24" viewBox="0 0 24 24" fill="none" xmlns="http://www.w3.org/2000/svg"><path d="M11.240 1.642 C 9.447 1.766,7.638 2.375,6.160 3.351 C 5.243 3.957,5.121 4.090,5.120 4.475 C 5.120 4.906,5.439 5.220,5.871 5.214 C 6.058 5.211,6.119 5.188,6.333 5.037 C 7.579 4.159,8.581 3.675,9.757 3.383 C 10.591 3.175,10.914 3.140,12.000 3.141 C 12.892 3.141,13.085 3.153,13.540 3.234 C 14.894 3.477,16.016 3.932,17.167 4.705 C 17.468 4.907,17.779 5.093,17.859 5.120 C 18.133 5.210,18.450 5.096,18.635 4.840 C 18.858 4.532,18.830 4.150,18.564 3.884 C 18.371 3.691,17.624 3.194,17.092 2.905 C 15.334 1.950,13.260 1.503,11.240 1.642 M11.314 6.163 C 8.909 6.418,6.852 8.082,6.077 10.399 C 5.827 11.147,5.746 11.719,5.773 12.560 C 5.796 13.321,5.864 13.720,6.081 14.371 C 6.594 15.914,7.747 17.233,9.235 17.978 C 9.588 18.155,10.342 18.411,10.762 18.496 C 11.850 18.717,12.900 18.647,14.005 18.280 C 15.840 17.671,17.302 16.210,17.920 14.367 C 18.135 13.724,18.204 13.322,18.227 12.560 C 18.246 11.962,18.237 11.788,18.164 11.364 C 17.601 8.065,14.633 5.811,11.314 6.163 M1.848 10.405 C 1.655 10.461,1.421 10.714,1.368 10.925 C 1.294 11.217,1.231 12.346,1.260 12.860 C 1.387 15.146,2.091 17.083,3.449 18.888 C 4.482 20.261,5.950 21.434,7.510 22.135 C 8.048 22.377,8.198 22.414,8.410 22.357 C 8.837 22.242,9.057 21.872,8.951 21.444 C 8.889 21.194,8.685 21.007,8.300 20.846 C 6.636 20.155,5.093 18.819,4.111 17.217 C 3.503 16.226,3.082 15.112,2.880 13.960 C 2.771 13.337,2.729 12.125,2.794 11.496 C 2.849 10.969,2.815 10.805,2.605 10.595 C 2.397 10.388,2.136 10.322,1.848 10.405 M21.483 10.523 C 21.375 10.601,21.283 10.713,21.231 10.832 C 21.153 11.007,21.151 11.044,21.195 11.499 C 21.460 14.262,20.520 16.910,18.580 18.864 C 17.708 19.742,16.890 20.308,15.760 20.817 C 15.288 21.029,15.182 21.110,15.076 21.340 C 14.910 21.699,15.061 22.123,15.420 22.310 C 15.646 22.428,15.935 22.391,16.400 22.183 C 18.656 21.176,20.502 19.406,21.597 17.199 C 22.184 16.015,22.511 14.923,22.660 13.651 C 22.761 12.792,22.727 11.253,22.598 10.857 C 22.551 10.710,22.344 10.501,22.187 10.442 C 22.125 10.419,21.980 10.400,21.863 10.400 C 21.691 10.400,21.621 10.423,21.483 10.523 " fill="#292D32" stroke="none" fill-rule="evenodd"></path></svg>