<svg width="24" height="24" viewBox="0 0 24 24" fill="none" xmlns="http://www.w3.org/2000/svg"><path d="M7.112 2.045 C 5.798 2.199,4.556 2.827,3.611 3.815 C 2.846 4.615,2.360 5.542,2.119 6.660 C 1.998 7.219,1.955 9.104,2.055 9.448 C 2.128 9.701,2.332 9.938,2.582 10.062 C 2.735 10.137,2.854 10.140,6.202 10.151 L 9.664 10.162 9.717 9.957 C 9.923 9.151,10.645 8.449,11.465 8.257 C 11.821 8.173,12.398 8.199,12.763 8.315 C 13.322 8.493,13.856 8.958,14.126 9.502 C 14.214 9.680,14.296 9.901,14.308 9.993 L 14.331 10.162 17.795 10.151 C 21.130 10.140,21.266 10.137,21.416 10.063 C 21.615 9.964,21.804 9.775,21.903 9.576 C 21.974 9.432,21.980 9.330,21.978 8.260 C 21.975 7.213,21.966 7.059,21.885 6.680 C 21.626 5.474,21.139 4.574,20.283 3.717 C 19.435 2.869,18.554 2.390,17.340 2.115 L 16.940 2.024 12.180 2.016 C 9.558 2.012,7.282 2.025,7.112 2.045 M2.617 11.737 C 2.415 11.825,2.193 12.046,2.094 12.260 L 2.001 12.460 2.000 14.535 C 2.000 16.823,2.020 17.089,2.244 17.851 C 2.521 18.786,2.978 19.541,3.719 20.281 C 4.459 21.022,5.214 21.479,6.149 21.756 C 6.984 22.002,6.938 22.000,11.966 22.000 C 14.930 22.000,16.662 21.985,16.881 21.958 C 17.899 21.831,18.903 21.422,19.718 20.801 C 20.135 20.484,20.734 19.847,21.015 19.423 C 21.491 18.707,21.813 17.869,21.938 17.026 C 21.988 16.692,22.000 16.200,22.000 14.535 L 21.999 12.460 21.906 12.260 C 21.804 12.042,21.581 11.822,21.374 11.735 C 21.266 11.690,20.610 11.680,17.668 11.680 L 14.093 11.680 13.941 11.901 C 13.791 12.120,13.348 12.560,13.279 12.560 C 13.259 12.560,13.238 13.072,13.232 13.730 C 13.220 14.880,13.218 14.903,13.122 15.099 C 12.663 16.031,11.337 16.031,10.878 15.099 C 10.782 14.903,10.780 14.880,10.768 13.730 C 10.762 13.072,10.741 12.560,10.721 12.560 C 10.652 12.560,10.209 12.120,10.059 11.901 L 9.907 11.680 6.323 11.682 C 3.419 11.683,2.717 11.693,2.617 11.737 " fill="#292D32" stroke="none" fill-rule="evenodd"></path></svg>