<svg width="24" height="24" viewBox="0 0 24 24" fill="none" xmlns="http://www.w3.org/2000/svg"><path d="M6.960 2.046 C 6.236 2.116,5.358 2.357,4.796 2.641 C 4.426 2.828,3.928 3.183,3.624 3.475 C 2.737 4.332,2.251 5.370,2.062 6.812 C 1.970 7.515,1.969 16.481,2.061 17.188 C 2.239 18.550,2.681 19.544,3.476 20.372 C 4.162 21.084,4.935 21.524,5.956 21.780 C 6.817 21.997,6.896 22.000,11.993 22.000 C 14.960 22.000,16.828 21.985,17.041 21.959 C 19.985 21.603,21.695 19.840,21.962 16.885 C 21.990 16.579,21.999 14.787,21.989 11.660 C 21.974 7.001,21.972 6.891,21.889 6.456 C 21.642 5.171,21.165 4.235,20.369 3.478 C 19.583 2.729,18.652 2.295,17.359 2.076 C 16.995 2.014,7.572 1.987,6.960 2.046 M9.634 12.680 C 10.148 12.974,10.125 13.711,9.593 13.976 L 9.384 14.080 7.881 14.080 C 6.400 14.080,6.374 14.079,6.201 13.990 C 6.104 13.941,5.970 13.831,5.902 13.746 C 5.793 13.609,5.780 13.563,5.780 13.323 C 5.780 13.089,5.795 13.034,5.893 12.906 C 6.026 12.732,6.154 12.641,6.331 12.598 C 6.402 12.580,7.135 12.569,7.960 12.573 L 9.460 12.580 9.634 12.680 M17.836 12.660 C 17.910 12.704,18.027 12.809,18.096 12.894 C 18.208 13.032,18.220 13.075,18.220 13.320 C 18.220 13.564,18.207 13.609,18.098 13.746 C 18.030 13.831,17.896 13.941,17.799 13.990 L 17.623 14.080 14.757 14.080 C 12.688 14.080,11.854 14.067,11.756 14.034 C 11.434 13.924,11.241 13.658,11.240 13.325 C 11.240 12.963,11.460 12.684,11.814 12.598 C 11.883 12.581,13.236 12.570,14.820 12.573 C 17.622 12.580,17.704 12.582,17.836 12.660 M13.300 16.406 C 13.463 16.496,13.584 16.632,13.658 16.809 C 13.812 17.177,13.640 17.589,13.260 17.764 C 13.109 17.834,12.921 17.838,9.738 17.839 L 6.377 17.840 6.201 17.750 C 6.104 17.701,5.970 17.591,5.902 17.506 C 5.793 17.369,5.780 17.323,5.780 17.083 C 5.780 16.849,5.795 16.794,5.893 16.666 C 6.026 16.491,6.155 16.401,6.331 16.358 C 6.402 16.341,7.972 16.330,9.820 16.334 C 12.864 16.339,13.191 16.346,13.300 16.406 M17.836 16.420 C 17.910 16.464,18.027 16.569,18.096 16.654 C 18.208 16.792,18.220 16.835,18.220 17.080 C 18.220 17.324,18.207 17.369,18.098 17.506 C 18.030 17.591,17.896 17.701,17.799 17.750 C 17.630 17.836,17.582 17.840,16.597 17.840 C 15.541 17.840,15.399 17.823,15.200 17.671 C 14.813 17.374,14.831 16.721,15.233 16.472 C 15.453 16.336,15.568 16.325,16.660 16.333 C 17.621 16.339,17.710 16.346,17.836 16.420 " fill="#292D32" stroke="none" fill-rule="evenodd"></path></svg>