<svg width="24" height="24" viewBox="0 0 24 24" fill="none" xmlns="http://www.w3.org/2000/svg"><path d="M11.673 1.061 C 11.401 1.148,11.138 1.424,11.055 1.710 C 10.908 2.215,11.102 2.702,11.540 2.931 C 11.768 3.050,12.199 3.050,12.426 2.930 C 12.658 2.808,12.871 2.543,12.946 2.285 C 13.171 1.511,12.446 0.813,11.673 1.061 M4.407 3.984 C 4.065 4.154,3.879 4.467,3.881 4.869 C 3.882 5.136,3.969 5.357,4.160 5.574 C 4.676 6.161,5.507 6.098,5.848 5.445 C 6.309 4.563,5.299 3.540,4.407 3.984 M18.831 3.920 C 18.555 4.003,18.276 4.256,18.113 4.571 C 17.994 4.802,17.992 5.196,18.110 5.423 C 18.218 5.632,18.467 5.856,18.665 5.923 C 19.469 6.197,20.307 5.395,20.078 4.571 C 20.009 4.326,19.693 3.999,19.455 3.929 C 19.271 3.874,18.995 3.870,18.831 3.920 M11.260 5.044 C 9.282 5.252,7.463 6.316,6.292 7.952 C 5.998 8.362,5.616 9.084,5.440 9.561 C 4.200 12.921,5.676 16.657,8.875 18.258 C 10.847 19.245,13.153 19.245,15.125 18.258 C 18.584 16.527,19.987 12.325,18.258 8.875 C 16.949 6.262,14.166 4.739,11.260 5.044 M1.673 11.063 C 1.312 11.174,1.000 11.609,1.000 12.000 C 1.000 12.216,1.120 12.510,1.272 12.667 C 1.502 12.904,1.687 12.979,2.040 12.978 C 2.471 12.978,2.752 12.810,2.943 12.440 C 3.050 12.231,3.044 11.789,2.930 11.574 C 2.812 11.350,2.545 11.131,2.304 11.059 C 2.062 10.987,1.917 10.988,1.673 11.063 M21.593 11.063 C 21.232 11.174,20.920 11.609,20.920 12.000 C 20.920 12.216,21.040 12.510,21.192 12.667 C 21.422 12.904,21.607 12.979,21.960 12.978 C 22.391 12.978,22.672 12.810,22.863 12.440 C 22.970 12.231,22.964 11.789,22.850 11.574 C 22.732 11.350,22.465 11.131,22.224 11.059 C 21.982 10.987,21.837 10.988,21.593 11.063 M4.533 18.140 C 4.287 18.264,4.062 18.501,3.951 18.750 C 3.832 19.019,3.862 19.405,4.022 19.664 C 4.196 19.946,4.454 20.094,4.806 20.114 C 5.041 20.127,5.112 20.114,5.297 20.023 C 5.549 19.900,5.776 19.664,5.889 19.410 C 6.008 19.141,5.978 18.755,5.818 18.496 C 5.640 18.209,5.384 18.064,5.024 18.048 C 4.781 18.037,4.710 18.050,4.533 18.140 M18.569 18.125 C 18.213 18.301,17.962 18.762,18.020 19.131 C 18.061 19.388,18.185 19.616,18.384 19.800 C 18.631 20.027,18.847 20.118,19.142 20.119 C 19.821 20.122,20.272 19.495,20.072 18.828 C 20.010 18.624,19.635 18.212,19.420 18.115 C 19.192 18.011,18.790 18.015,18.569 18.125 M11.673 20.981 C 11.401 21.068,11.138 21.344,11.055 21.630 C 10.908 22.135,11.102 22.622,11.540 22.851 C 11.768 22.970,12.199 22.970,12.426 22.850 C 12.658 22.728,12.871 22.463,12.946 22.205 C 13.171 21.431,12.446 20.733,11.673 20.981 " fill="#292D32" stroke="none" fill-rule="evenodd"></path></svg>