<svg width="24" height="24" viewBox="0 0 24 24" fill="none" xmlns="http://www.w3.org/2000/svg"><path d="M11.673 1.061 C 11.401 1.148,11.138 1.424,11.055 1.710 C 10.908 2.215,11.102 2.702,11.540 2.931 C 11.768 3.050,12.199 3.050,12.426 2.930 C 12.658 2.808,12.871 2.543,12.946 2.285 C 13.171 1.511,12.446 0.813,11.673 1.061 M4.407 3.984 C 4.065 4.154,3.879 4.467,3.881 4.869 C 3.882 5.136,3.969 5.357,4.160 5.574 C 4.676 6.161,5.507 6.098,5.848 5.445 C 6.309 4.563,5.299 3.540,4.407 3.984 M18.831 3.920 C 18.555 4.003,18.276 4.256,18.113 4.571 C 17.994 4.802,17.992 5.196,18.110 5.423 C 18.218 5.632,18.467 5.856,18.665 5.923 C 19.469 6.197,20.307 5.395,20.078 4.571 C 20.009 4.326,19.693 3.999,19.455 3.929 C 19.271 3.874,18.995 3.870,18.831 3.920 M11.386 5.284 C 8.753 5.501,6.405 7.274,5.462 9.757 C 5.139 10.607,4.943 11.744,5.076 11.992 C 5.103 12.043,5.182 12.119,5.253 12.162 C 5.377 12.238,5.515 12.240,12.000 12.240 C 18.569 12.240,18.621 12.239,18.752 12.159 C 18.975 12.023,19.010 11.878,18.942 11.363 C 18.633 9.010,17.197 7.011,15.060 5.961 C 14.285 5.580,13.453 5.356,12.536 5.281 C 11.982 5.236,11.961 5.236,11.386 5.284 M1.673 11.063 C 1.312 11.174,1.000 11.609,1.000 12.000 C 1.000 12.216,1.120 12.510,1.272 12.667 C 1.502 12.904,1.687 12.979,2.040 12.978 C 2.471 12.978,2.752 12.810,2.943 12.440 C 3.050 12.231,3.044 11.789,2.930 11.574 C 2.812 11.350,2.545 11.131,2.304 11.059 C 2.062 10.987,1.917 10.988,1.673 11.063 M21.593 11.063 C 21.232 11.174,20.920 11.609,20.920 12.000 C 20.920 12.216,21.040 12.510,21.192 12.667 C 21.422 12.904,21.607 12.979,21.960 12.978 C 22.391 12.978,22.672 12.810,22.863 12.440 C 22.970 12.231,22.964 11.789,22.850 11.574 C 22.732 11.350,22.465 11.131,22.224 11.059 C 21.982 10.987,21.837 10.988,21.593 11.063 M3.807 14.287 C 3.568 14.341,3.341 14.572,3.289 14.816 C 3.196 15.250,3.432 15.631,3.846 15.717 C 3.999 15.749,6.354 15.758,12.120 15.751 L 20.180 15.740 20.359 15.639 C 20.702 15.448,20.829 15.010,20.646 14.651 C 20.544 14.452,20.391 14.337,20.156 14.283 C 19.921 14.228,4.050 14.233,3.807 14.287 M5.807 17.287 C 5.568 17.341,5.341 17.572,5.289 17.816 C 5.196 18.250,5.432 18.631,5.846 18.717 C 5.998 18.749,7.807 18.758,12.120 18.751 L 18.180 18.740 18.359 18.639 C 18.702 18.448,18.829 18.010,18.646 17.651 C 18.544 17.452,18.391 17.337,18.156 17.283 C 17.922 17.228,6.050 17.233,5.807 17.287 M8.807 20.287 C 8.568 20.341,8.341 20.572,8.289 20.816 C 8.196 21.251,8.432 21.631,8.849 21.718 C 9.000 21.749,9.980 21.759,12.122 21.751 L 15.180 21.740 15.359 21.639 C 15.702 21.448,15.829 21.010,15.646 20.651 C 15.544 20.452,15.391 20.337,15.156 20.283 C 14.925 20.229,9.047 20.234,8.807 20.287 " fill="#292D32" stroke="none" fill-rule="evenodd"></path></svg>