<svg width="24" height="24" viewBox="0 0 24 24" fill="none" xmlns="http://www.w3.org/2000/svg"><path d="M9.785 2.289 C 9.578 2.344,9.336 2.591,9.279 2.804 C 9.193 3.122,9.334 3.463,9.627 3.645 C 9.771 3.734,9.823 3.741,10.510 3.753 L 11.240 3.766 11.240 6.177 L 11.240 8.587 10.997 8.654 C 10.527 8.785,9.963 9.115,9.578 9.485 L 9.416 9.641 7.346 8.445 C 6.207 7.787,5.266 7.240,5.255 7.228 C 5.244 7.217,5.392 6.932,5.586 6.595 C 5.901 6.045,5.937 5.961,5.936 5.781 C 5.934 5.351,5.630 5.040,5.211 5.040 C 4.920 5.040,4.721 5.148,4.570 5.388 C 4.398 5.661,2.667 8.666,2.565 8.868 C 2.304 9.386,2.638 9.960,3.202 9.960 C 3.570 9.960,3.693 9.854,4.062 9.220 C 4.237 8.920,4.407 8.640,4.440 8.598 C 4.497 8.526,4.595 8.577,6.584 9.729 L 8.669 10.935 8.605 11.157 C 8.516 11.469,8.516 12.532,8.605 12.844 L 8.669 13.068 6.607 14.264 C 5.473 14.922,4.525 15.464,4.502 15.469 C 4.479 15.475,4.325 15.242,4.160 14.952 C 3.800 14.318,3.691 14.186,3.458 14.097 C 3.227 14.009,2.995 14.040,2.788 14.187 C 2.573 14.339,2.480 14.525,2.481 14.799 C 2.481 15.015,2.506 15.063,3.556 16.880 C 4.785 19.007,4.764 18.980,5.220 18.980 C 5.443 18.980,5.491 18.965,5.626 18.856 C 5.846 18.678,5.937 18.503,5.937 18.257 C 5.937 18.073,5.901 17.986,5.585 17.421 C 5.392 17.075,5.248 16.778,5.267 16.761 C 5.285 16.745,6.225 16.197,7.356 15.544 L 9.413 14.356 9.576 14.513 C 9.963 14.885,10.526 15.215,10.997 15.346 L 11.240 15.413 11.240 17.827 L 11.240 20.240 10.642 20.240 C 10.313 20.240,9.951 20.260,9.838 20.284 C 9.071 20.449,9.081 21.558,9.851 21.718 C 10.002 21.749,10.706 21.760,12.125 21.752 L 14.180 21.740 14.359 21.639 C 14.702 21.448,14.829 21.010,14.646 20.651 C 14.473 20.313,14.253 20.242,13.370 20.241 L 12.760 20.240 12.760 17.827 L 12.760 15.413 13.003 15.346 C 13.475 15.214,14.037 14.885,14.425 14.512 L 14.590 14.353 16.675 15.560 C 18.437 16.581,18.754 16.777,18.723 16.834 C 18.704 16.870,18.562 17.119,18.408 17.386 C 18.077 17.962,18.022 18.111,18.057 18.334 C 18.135 18.824,18.680 19.105,19.118 18.881 C 19.203 18.837,19.309 18.752,19.352 18.691 C 19.396 18.630,19.895 17.779,20.462 16.800 C 21.379 15.215,21.494 14.997,21.511 14.810 C 21.534 14.549,21.476 14.402,21.276 14.221 C 21.093 14.056,20.989 14.024,20.700 14.048 C 20.382 14.075,20.279 14.177,19.877 14.862 C 19.685 15.191,19.515 15.457,19.501 15.454 C 19.487 15.451,18.543 14.913,17.403 14.258 L 15.331 13.067 15.395 12.844 C 15.483 12.533,15.484 11.469,15.395 11.159 L 15.332 10.938 17.381 9.751 C 18.508 9.098,19.449 8.558,19.474 8.552 C 19.498 8.545,19.685 8.819,19.889 9.160 C 20.316 9.873,20.413 9.958,20.800 9.959 C 21.059 9.960,21.216 9.878,21.385 9.657 C 21.485 9.526,21.500 9.471,21.500 9.243 L 21.500 8.980 20.483 7.220 C 19.924 6.252,19.424 5.401,19.371 5.330 C 18.995 4.818,18.157 5.032,18.057 5.666 C 18.021 5.895,18.077 6.039,18.448 6.666 C 18.624 6.964,18.753 7.222,18.734 7.239 C 18.715 7.255,17.774 7.803,16.643 8.456 L 14.586 9.643 14.423 9.486 C 14.037 9.115,13.474 8.785,13.003 8.654 L 12.760 8.587 12.760 6.177 L 12.760 3.766 13.490 3.753 C 14.177 3.741,14.229 3.734,14.373 3.645 C 14.747 3.412,14.859 2.935,14.619 2.596 C 14.554 2.503,14.428 2.390,14.340 2.344 C 14.184 2.262,14.126 2.260,12.060 2.253 C 10.692 2.249,9.885 2.262,9.785 2.289 " fill="#292D32" stroke="none" fill-rule="evenodd"></path></svg>