<svg width="24" height="24" viewBox="0 0 24 24" fill="none" xmlns="http://www.w3.org/2000/svg"><path d="M3.640 3.177 C 3.057 3.339,2.468 3.834,2.224 4.366 C 2.150 4.528,2.069 4.755,2.045 4.872 C 1.952 5.311,2.019 5.882,2.205 6.251 C 2.251 6.344,2.938 7.462,3.731 8.736 C 4.523 10.009,5.209 11.143,5.255 11.256 C 5.324 11.427,5.338 11.547,5.339 12.000 C 5.340 12.492,5.331 12.561,5.237 12.780 C 5.181 12.912,4.491 14.051,3.705 15.310 C 2.918 16.570,2.237 17.686,2.191 17.790 C 1.919 18.407,1.937 19.080,2.243 19.685 C 2.480 20.154,2.773 20.367,3.191 20.371 C 3.672 20.375,3.161 20.857,10.925 13.089 C 17.481 6.530,18.035 5.965,18.095 5.783 C 18.180 5.525,18.176 5.219,18.085 5.020 C 17.927 4.671,17.411 3.936,17.180 3.730 C 16.927 3.505,16.411 3.228,16.120 3.163 C 15.836 3.098,3.873 3.112,3.640 3.177 M18.680 7.452 C 18.507 7.506,16.163 9.807,10.555 15.427 C 6.250 19.740,6.492 19.470,6.528 19.949 C 6.557 20.343,6.764 20.653,7.099 20.805 C 7.251 20.874,7.468 20.878,11.102 20.879 C 15.280 20.880,15.152 20.886,15.611 20.655 C 16.202 20.357,16.083 20.499,18.990 16.626 C 20.474 14.649,21.731 12.946,21.783 12.841 C 22.015 12.379,22.059 11.679,21.886 11.188 C 21.775 10.871,19.817 7.738,19.650 7.610 C 19.393 7.413,19.006 7.350,18.680 7.452 " fill="#292D32" stroke="none" fill-rule="evenodd"></path></svg>