<svg width="24" height="24" viewBox="0 0 24 24" fill="none" xmlns="http://www.w3.org/2000/svg"><path d="M9.194 2.900 C 7.750 2.971,6.463 3.043,6.334 3.059 C 5.049 3.220,3.815 4.164,3.315 5.371 C 3.036 6.045,3.031 6.094,2.855 9.793 C 2.752 11.977,2.750 12.108,2.811 12.540 C 2.922 13.335,3.240 14.130,3.692 14.746 C 3.996 15.160,8.911 20.062,9.280 20.319 C 9.894 20.746,10.673 21.062,11.355 21.162 C 11.875 21.238,12.770 21.192,13.240 21.066 C 13.952 20.876,14.516 20.594,15.049 20.162 C 15.209 20.032,16.439 18.823,17.782 17.473 C 19.549 15.698,20.274 14.943,20.407 14.740 C 21.360 13.283,21.492 11.604,20.776 10.045 C 20.452 9.340,20.344 9.218,17.724 6.587 C 16.369 5.226,15.116 3.997,14.940 3.855 C 14.155 3.221,13.332 2.891,12.316 2.801 C 12.065 2.779,11.851 2.763,11.840 2.765 C 11.829 2.768,10.638 2.828,9.194 2.900 M10.218 6.719 C 11.202 6.971,12.029 7.798,12.281 8.782 C 12.388 9.201,12.388 9.799,12.281 10.218 C 12.153 10.715,11.914 11.126,11.520 11.521 C 10.951 12.093,10.301 12.364,9.500 12.364 C 8.700 12.364,8.051 12.094,7.479 11.521 C 6.910 10.953,6.641 10.304,6.641 9.500 C 6.641 9.001,6.725 8.645,6.947 8.200 C 7.302 7.490,8.001 6.922,8.766 6.721 C 9.173 6.615,9.805 6.614,10.218 6.719 M17.352 12.351 C 17.633 12.479,17.785 12.834,17.711 13.189 C 17.673 13.373,17.592 13.460,15.566 15.493 C 14.408 16.655,13.414 17.630,13.359 17.659 C 12.783 17.964,12.154 17.466,12.289 16.810 C 12.326 16.627,12.411 16.537,14.474 14.473 C 16.493 12.453,16.631 12.324,16.800 12.289 C 17.006 12.246,17.163 12.264,17.352 12.351 " fill="#292D32" stroke="none" fill-rule="evenodd"></path></svg>