<svg width="24" height="24" viewBox="0 0 24 24" fill="none" xmlns="http://www.w3.org/2000/svg"><path d="M9.457 3.822 C 8.512 3.983,7.589 4.435,6.920 5.066 C 6.601 5.366,3.185 9.100,2.845 9.520 C 2.588 9.837,2.278 10.456,2.133 10.940 C 2.034 11.272,2.025 11.355,2.025 12.000 C 2.025 12.645,2.034 12.728,2.133 13.060 C 2.278 13.544,2.588 14.163,2.845 14.480 C 3.185 14.900,6.601 18.634,6.920 18.934 C 7.431 19.416,8.086 19.794,8.793 20.016 C 9.510 20.241,9.486 20.240,13.640 20.240 C 17.798 20.240,17.807 20.240,18.500 20.015 C 19.306 19.755,19.898 19.389,20.525 18.764 C 21.281 18.011,21.710 17.201,21.928 16.120 C 22.004 15.741,22.004 8.259,21.928 7.880 C 21.710 6.800,21.281 5.991,20.525 5.235 C 19.805 4.515,19.054 4.098,18.040 3.856 C 17.763 3.789,17.430 3.783,13.760 3.775 C 10.541 3.768,9.718 3.777,9.457 3.822 M11.347 8.842 C 11.409 8.866,11.923 9.347,12.490 9.911 L 13.520 10.938 14.530 9.933 C 15.085 9.381,15.598 8.900,15.668 8.864 C 15.997 8.699,16.455 8.839,16.636 9.161 C 16.741 9.349,16.762 9.683,16.679 9.846 C 16.653 9.898,16.170 10.403,15.606 10.970 L 14.581 12.000 15.606 13.030 C 16.170 13.597,16.653 14.102,16.679 14.154 C 16.762 14.317,16.741 14.651,16.636 14.839 C 16.451 15.167,16.007 15.306,15.677 15.140 C 15.602 15.102,15.085 14.619,14.530 14.067 L 13.520 13.062 12.470 14.109 C 11.478 15.099,11.410 15.158,11.240 15.185 C 11.141 15.201,11.060 15.213,11.060 15.213 C 11.060 15.213,10.985 15.201,10.893 15.187 C 10.463 15.118,10.202 14.599,10.382 14.169 C 10.422 14.072,10.795 13.668,11.451 13.010 L 12.458 12.000 11.451 10.990 C 10.795 10.332,10.422 9.928,10.382 9.831 C 10.175 9.334,10.518 8.801,11.047 8.800 C 11.150 8.800,11.285 8.819,11.347 8.842 " fill="#292D32" stroke="none" fill-rule="evenodd"></path></svg>