<svg width="24" height="24" viewBox="0 0 24 24" fill="none" xmlns="http://www.w3.org/2000/svg"><path d="M5.580 2.028 C 4.635 2.162,3.745 2.797,3.320 3.640 C 3.259 3.761,3.167 3.986,3.115 4.140 L 3.020 4.420 3.009 10.280 C 2.996 16.936,2.975 16.473,3.325 17.195 C 3.495 17.545,3.577 17.661,3.853 17.939 C 4.559 18.649,5.227 18.878,6.600 18.880 C 7.383 18.882,7.860 19.006,8.392 19.346 C 8.512 19.422,9.116 19.975,9.735 20.575 C 10.928 21.730,11.033 21.809,11.538 21.939 C 11.842 22.017,12.158 22.017,12.462 21.939 C 12.966 21.809,13.069 21.732,14.281 20.559 C 15.518 19.363,15.711 19.215,16.300 19.017 C 16.593 18.918,16.697 18.906,17.520 18.877 C 18.715 18.834,19.071 18.745,19.681 18.339 C 20.238 17.969,20.669 17.376,20.886 16.680 L 20.980 16.380 20.980 10.420 L 20.980 4.460 20.886 4.161 C 20.566 3.141,19.815 2.404,18.780 2.094 C 18.554 2.026,18.174 2.022,12.120 2.017 C 8.589 2.014,5.646 2.019,5.580 2.028 M12.499 5.621 C 13.666 5.925,14.270 7.243,13.744 8.340 C 13.577 8.689,13.388 8.908,13.075 9.117 C 12.289 9.642,11.217 9.521,10.581 8.834 C 10.169 8.389,9.982 7.806,10.069 7.241 C 10.188 6.469,10.758 5.819,11.484 5.623 C 11.770 5.546,12.208 5.546,12.499 5.621 M12.880 10.779 C 13.430 10.863,13.807 10.978,14.260 11.198 C 15.116 11.614,15.625 12.187,15.713 12.835 C 15.868 13.969,14.865 14.950,13.160 15.331 C 12.609 15.455,11.391 15.455,10.840 15.331 C 8.628 14.836,7.651 13.329,8.673 11.989 C 9.103 11.425,10.079 10.937,11.100 10.778 C 11.544 10.709,12.425 10.709,12.880 10.779 " fill="#292D32" stroke="none" fill-rule="evenodd"></path></svg>