<svg width="24" height="24" viewBox="0 0 24 24" fill="none" xmlns="http://www.w3.org/2000/svg"><path d="M9.194 2.900 C 7.750 2.971,6.463 3.043,6.334 3.059 C 5.049 3.220,3.815 4.164,3.315 5.371 C 3.036 6.045,3.031 6.094,2.855 9.793 C 2.752 11.977,2.750 12.108,2.811 12.540 C 2.922 13.335,3.240 14.130,3.692 14.746 C 3.996 15.160,8.911 20.062,9.280 20.319 C 9.894 20.746,10.673 21.062,11.355 21.162 C 11.875 21.238,12.770 21.192,13.240 21.066 C 13.952 20.876,14.516 20.594,15.049 20.162 C 15.209 20.032,16.439 18.823,17.782 17.473 C 19.549 15.698,20.274 14.943,20.407 14.740 C 21.360 13.283,21.492 11.604,20.776 10.045 C 20.452 9.340,20.344 9.218,17.724 6.587 C 16.369 5.226,15.116 3.997,14.940 3.855 C 14.155 3.221,13.332 2.891,12.316 2.801 C 12.065 2.779,11.851 2.763,11.840 2.765 C 11.829 2.768,10.638 2.828,9.194 2.900 M10.215 6.719 C 11.209 6.973,12.027 7.791,12.281 8.785 C 12.387 9.200,12.387 9.800,12.281 10.215 C 12.027 11.210,11.213 12.023,10.211 12.283 C 9.543 12.457,8.794 12.366,8.149 12.033 C 7.657 11.779,7.195 11.306,6.946 10.800 C 6.523 9.943,6.530 8.994,6.967 8.149 C 7.312 7.482,8.027 6.915,8.769 6.721 C 9.172 6.615,9.806 6.614,10.215 6.719 " fill="#292D32" stroke="none" fill-rule="evenodd"></path></svg>