<svg width="24" height="24" viewBox="0 0 24 24" fill="none" xmlns="http://www.w3.org/2000/svg"><path d="M6.960 2.046 C 6.236 2.116,5.358 2.357,4.796 2.641 C 4.426 2.828,3.928 3.183,3.624 3.475 C 2.737 4.332,2.251 5.370,2.062 6.812 C 1.969 7.517,1.969 16.483,2.062 17.188 C 2.252 18.643,2.742 19.681,3.644 20.541 C 4.468 21.326,5.450 21.760,6.812 21.938 C 7.517 22.031,16.483 22.031,17.188 21.938 C 18.550 21.760,19.532 21.326,20.356 20.541 C 21.258 19.681,21.748 18.643,21.938 17.188 C 22.031 16.483,22.031 7.517,21.938 6.812 C 21.746 5.341,21.253 4.307,20.332 3.440 C 19.574 2.726,18.626 2.291,17.359 2.076 C 16.995 2.014,7.572 1.987,6.960 2.046 M9.788 6.724 C 10.117 6.883,10.278 7.381,10.106 7.706 C 10.016 7.876,7.598 10.269,7.467 10.318 C 7.291 10.384,7.041 10.367,6.857 10.278 C 6.757 10.230,6.498 10.001,6.227 9.722 C 5.687 9.166,5.622 9.031,5.722 8.671 C 5.777 8.472,5.941 8.285,6.138 8.195 C 6.445 8.056,6.738 8.124,7.021 8.401 L 7.182 8.559 8.021 7.715 C 8.482 7.251,8.940 6.819,9.038 6.756 C 9.260 6.611,9.531 6.600,9.788 6.724 M17.831 8.182 C 18.134 8.309,18.291 8.542,18.291 8.863 C 18.291 9.140,18.157 9.375,17.920 9.514 L 17.740 9.620 14.940 9.620 C 12.178 9.620,12.138 9.619,11.980 9.536 C 11.422 9.245,11.444 8.456,12.018 8.195 C 12.170 8.126,12.349 8.122,14.931 8.121 C 17.325 8.120,17.702 8.128,17.831 8.182 M9.788 13.724 C 10.117 13.883,10.278 14.381,10.106 14.706 C 10.016 14.876,7.598 17.269,7.467 17.318 C 7.291 17.384,7.041 17.367,6.857 17.278 C 6.757 17.230,6.498 17.001,6.227 16.722 C 5.687 16.166,5.622 16.031,5.722 15.671 C 5.777 15.472,5.941 15.285,6.138 15.195 C 6.445 15.056,6.738 15.124,7.021 15.401 L 7.182 15.559 8.021 14.715 C 8.482 14.251,8.940 13.819,9.038 13.756 C 9.260 13.611,9.531 13.600,9.788 13.724 M17.831 15.182 C 18.134 15.309,18.291 15.542,18.291 15.863 C 18.291 16.140,18.157 16.375,17.920 16.514 L 17.740 16.620 14.940 16.620 C 12.178 16.620,12.138 16.619,11.980 16.536 C 11.422 16.245,11.444 15.456,12.018 15.195 C 12.170 15.126,12.349 15.122,14.931 15.121 C 17.325 15.120,17.702 15.128,17.831 15.182 " fill="#292D32" stroke="none" fill-rule="evenodd"></path></svg>