<svg width="24" height="24" viewBox="0 0 24 24" fill="none" xmlns="http://www.w3.org/2000/svg"><path d="M7.320 3.741 C 7.238 3.777,6.708 4.274,6.051 4.931 L 4.921 6.058 4.711 5.851 C 4.475 5.620,4.211 5.482,4.000 5.481 C 3.923 5.481,3.767 5.524,3.653 5.577 C 3.385 5.702,3.233 5.921,3.209 6.218 C 3.178 6.584,3.238 6.686,3.835 7.293 C 4.545 8.014,4.717 8.104,5.149 7.980 C 5.374 7.915,5.416 7.877,6.828 6.467 C 8.370 4.927,8.437 4.843,8.439 4.476 C 8.440 4.235,8.300 3.973,8.093 3.827 C 7.891 3.685,7.535 3.645,7.320 3.741 M10.557 5.133 C 10.054 5.398,9.975 6.071,10.401 6.456 C 10.487 6.534,10.608 6.612,10.669 6.629 C 10.730 6.646,12.905 6.660,15.503 6.660 L 20.226 6.660 20.420 6.540 C 20.923 6.228,20.937 5.526,20.446 5.182 L 20.273 5.060 15.504 5.050 L 10.734 5.039 10.557 5.133 M7.460 9.997 C 7.394 10.013,7.295 10.049,7.240 10.077 C 7.185 10.105,6.642 10.624,6.033 11.230 L 4.927 12.333 4.697 12.128 C 4.378 11.843,4.246 11.788,3.935 11.808 C 3.656 11.825,3.545 11.886,3.347 12.131 C 3.262 12.235,3.223 12.334,3.209 12.476 C 3.171 12.881,3.194 12.923,3.833 13.573 C 4.190 13.936,4.483 14.199,4.580 14.244 C 4.776 14.335,5.033 14.340,5.231 14.258 C 5.433 14.174,8.251 11.365,8.361 11.137 C 8.572 10.703,8.329 10.157,7.864 10.019 C 7.648 9.955,7.637 9.954,7.460 9.997 M10.820 11.339 C 10.798 11.347,10.730 11.364,10.669 11.378 C 10.608 11.391,10.487 11.466,10.401 11.544 C 9.975 11.929,10.054 12.602,10.557 12.867 L 10.734 12.961 15.504 12.950 L 20.273 12.940 20.446 12.818 C 20.937 12.474,20.923 11.772,20.420 11.460 L 20.226 11.340 15.543 11.333 C 12.967 11.329,10.842 11.332,10.820 11.339 M7.460 15.997 C 7.394 16.013,7.295 16.049,7.240 16.077 C 7.185 16.105,6.642 16.624,6.033 17.230 L 4.927 18.333 4.697 18.128 C 4.378 17.843,4.246 17.788,3.935 17.808 C 3.656 17.825,3.545 17.886,3.347 18.131 C 3.262 18.235,3.223 18.334,3.209 18.476 C 3.171 18.881,3.194 18.923,3.833 19.573 C 4.190 19.936,4.483 20.199,4.580 20.244 C 4.776 20.335,5.033 20.340,5.231 20.258 C 5.433 20.174,8.251 17.365,8.361 17.137 C 8.572 16.703,8.329 16.157,7.864 16.019 C 7.648 15.955,7.637 15.954,7.460 15.997 M10.580 17.706 C 10.283 17.863,10.120 18.123,10.120 18.440 C 10.120 18.810,10.383 19.146,10.743 19.236 C 10.862 19.267,12.320 19.280,15.470 19.280 C 19.382 19.280,20.054 19.272,20.225 19.221 C 20.495 19.141,20.704 18.928,20.784 18.652 C 20.840 18.461,20.840 18.419,20.783 18.225 C 20.718 17.999,20.501 17.756,20.295 17.678 C 20.233 17.655,18.372 17.641,15.447 17.642 C 11.198 17.643,10.687 17.650,10.580 17.706 " fill="#292D32" stroke="none" fill-rule="evenodd"></path></svg>