<svg width="24" height="24" viewBox="0 0 24 24" fill="none" xmlns="http://www.w3.org/2000/svg"><path d="M11.433 2.040 C 11.072 2.098,10.725 2.197,10.452 2.321 C 10.200 2.435,4.182 6.339,3.755 6.665 C 3.031 7.218,2.600 8.146,2.600 9.148 C 2.601 10.025,2.952 10.848,3.572 11.425 C 3.829 11.666,9.920 15.664,10.360 15.882 C 11.295 16.346,12.671 16.356,13.620 15.906 C 13.774 15.833,15.196 14.922,16.780 13.882 C 18.364 12.842,19.682 11.982,19.709 11.972 C 19.746 11.957,19.760 12.328,19.769 13.613 L 19.780 15.273 19.904 15.426 C 20.085 15.650,20.246 15.731,20.503 15.729 C 20.761 15.726,20.918 15.646,21.096 15.426 L 21.220 15.273 21.242 12.606 C 21.260 10.535,21.277 9.900,21.319 9.760 C 21.400 9.489,21.391 8.684,21.303 8.340 C 21.148 7.739,20.766 7.102,20.346 6.744 C 20.034 6.478,13.942 2.489,13.613 2.335 C 13.190 2.137,12.742 2.040,12.160 2.021 C 11.885 2.012,11.558 2.020,11.433 2.040 M6.315 15.519 C 6.003 15.613,5.717 15.938,5.643 16.284 C 5.590 16.529,5.587 17.583,5.638 18.024 C 5.760 19.083,6.473 20.135,7.395 20.613 C 7.541 20.689,8.488 21.027,9.500 21.365 L 11.340 21.979 12.000 21.978 L 12.660 21.977 14.440 21.387 C 15.419 21.062,16.346 20.737,16.500 20.664 C 17.481 20.200,18.228 19.137,18.366 18.009 C 18.389 17.821,18.400 17.351,18.392 16.964 C 18.373 16.140,18.336 16.014,18.040 15.747 C 17.739 15.477,17.349 15.405,17.012 15.558 C 16.919 15.600,16.370 15.945,15.792 16.324 C 15.213 16.703,14.611 17.083,14.454 17.168 C 13.127 17.886,11.331 17.950,9.892 17.330 C 9.674 17.235,9.064 16.869,8.288 16.366 C 7.600 15.919,6.979 15.537,6.909 15.517 C 6.757 15.473,6.462 15.474,6.315 15.519 " fill="#292D32" stroke="none" fill-rule="evenodd"></path></svg>