<svg width="24" height="24" viewBox="0 0 24 24" fill="none" xmlns="http://www.w3.org/2000/svg"><path d="M2.700 3.823 C 2.436 3.961,2.242 4.248,2.242 4.500 C 2.242 4.759,2.484 5.104,2.733 5.197 C 2.810 5.227,4.310 5.240,7.504 5.240 C 12.629 5.240,12.312 5.256,12.549 4.987 C 12.860 4.633,12.806 4.192,12.417 3.895 L 12.266 3.780 7.543 3.770 C 3.320 3.761,2.807 3.767,2.700 3.823 M2.700 8.823 C 2.410 8.974,2.269 9.198,2.269 9.506 C 2.269 9.752,2.355 9.919,2.574 10.096 L 2.727 10.220 7.500 10.220 L 12.273 10.220 12.426 10.096 C 12.647 9.917,12.731 9.752,12.731 9.500 C 12.731 9.248,12.647 9.083,12.426 8.904 L 12.273 8.780 7.546 8.770 C 3.320 8.761,2.807 8.767,2.700 8.823 M2.700 13.823 C 2.410 13.974,2.269 14.198,2.269 14.506 C 2.269 14.752,2.355 14.919,2.574 15.096 L 2.727 15.220 12.000 15.220 L 21.273 15.220 21.426 15.096 C 21.647 14.917,21.731 14.752,21.731 14.500 C 21.731 14.248,21.647 14.083,21.426 13.904 L 21.273 13.780 12.046 13.770 C 3.743 13.761,2.808 13.766,2.700 13.823 M2.700 18.823 C 2.410 18.974,2.269 19.198,2.269 19.506 C 2.269 19.752,2.355 19.919,2.574 20.096 L 2.727 20.220 12.000 20.220 L 21.273 20.220 21.426 20.096 C 21.647 19.917,21.731 19.752,21.731 19.500 C 21.731 19.248,21.647 19.083,21.426 18.904 L 21.273 18.780 12.046 18.770 C 3.743 18.761,2.808 18.766,2.700 18.823 " fill="#292D32" stroke="none" fill-rule="evenodd"></path></svg>