<svg width="24" height="24" viewBox="0 0 24 24" fill="none" xmlns="http://www.w3.org/2000/svg"><path d="M7.080 2.043 C 5.603 2.183,4.466 2.658,3.607 3.495 C 2.728 4.351,2.248 5.383,2.061 6.812 C 2.009 7.213,2.000 7.988,2.000 11.984 C 2.000 15.048,2.015 16.818,2.043 17.072 C 2.263 19.073,3.249 20.585,4.860 21.390 C 5.397 21.659,6.217 21.880,6.967 21.959 C 7.189 21.983,9.241 21.999,12.028 21.999 C 16.029 22.000,16.785 21.991,17.188 21.938 C 18.550 21.760,19.532 21.326,20.356 20.541 C 21.258 19.681,21.748 18.643,21.938 17.188 C 21.991 16.785,22.000 16.025,22.000 12.008 C 21.999 9.043,21.984 7.167,21.958 6.940 C 21.802 5.574,21.336 4.484,20.553 3.657 C 19.676 2.730,18.479 2.188,16.983 2.043 C 16.468 1.992,7.611 1.993,7.080 2.043 M7.431 5.102 C 7.628 5.184,7.755 5.306,7.844 5.500 C 7.914 5.650,7.918 5.819,7.919 8.305 C 7.920 11.126,7.931 11.315,8.125 11.891 C 8.531 13.100,9.488 14.070,10.674 14.476 C 11.526 14.767,12.474 14.767,13.326 14.476 C 14.512 14.070,15.469 13.100,15.875 11.891 C 16.069 11.315,16.080 11.126,16.081 8.305 C 16.082 5.825,16.086 5.650,16.155 5.498 C 16.412 4.932,17.204 4.899,17.481 5.442 C 17.563 5.602,17.564 5.637,17.550 8.552 L 17.536 11.500 17.431 11.903 C 17.164 12.917,16.737 13.708,16.071 14.420 C 13.855 16.789,10.174 16.794,7.939 14.433 C 7.277 13.734,6.836 12.919,6.569 11.903 L 6.464 11.500 6.450 8.552 C 6.436 5.657,6.438 5.601,6.517 5.446 C 6.691 5.105,7.084 4.957,7.431 5.102 M17.208 17.570 C 17.624 17.803,17.700 18.424,17.353 18.748 C 17.115 18.971,17.384 18.960,12.000 18.960 C 6.677 18.960,6.887 18.968,6.667 18.768 C 6.469 18.589,6.382 18.198,6.483 17.933 C 6.539 17.784,6.711 17.603,6.860 17.537 C 6.958 17.493,7.897 17.483,12.015 17.482 L 17.049 17.480 17.208 17.570 " fill="#292D32" stroke="none" fill-rule="evenodd"></path></svg>