<svg width="24" height="24" viewBox="0 0 24 24" fill="none" xmlns="http://www.w3.org/2000/svg"><path d="M7.060 2.044 C 5.608 2.180,4.456 2.667,3.586 3.515 C 2.829 4.253,2.351 5.205,2.111 6.456 C 2.028 6.891,2.026 7.001,2.011 11.680 C 1.994 16.643,2.003 16.986,2.161 17.764 C 2.600 19.924,4.075 21.399,6.237 21.839 C 7.002 21.995,7.400 22.005,12.340 21.989 C 16.999 21.974,17.109 21.972,17.544 21.889 C 18.790 21.650,19.750 21.168,20.485 20.414 C 21.209 19.671,21.656 18.757,21.889 17.544 C 21.972 17.109,21.974 16.999,21.989 12.340 C 21.999 9.123,21.990 7.425,21.961 7.101 C 21.823 5.575,21.346 4.462,20.442 3.558 C 19.554 2.671,18.459 2.193,16.966 2.042 C 16.467 1.991,7.604 1.994,7.060 2.044 M12.747 5.283 C 13.187 5.345,13.722 5.526,14.120 5.749 C 14.523 5.975,15.219 6.643,15.433 7.007 C 16.125 8.188,16.181 9.478,15.591 10.669 C 15.501 10.851,15.340 11.108,15.235 11.239 L 15.042 11.477 15.371 11.643 C 15.834 11.875,16.138 12.103,16.496 12.483 C 18.212 14.307,17.650 17.267,15.380 18.366 C 14.589 18.749,14.729 18.735,11.595 18.751 C 9.209 18.762,8.814 18.756,8.579 18.701 C 7.831 18.528,7.255 17.964,7.060 17.212 C 6.970 16.868,6.970 7.132,7.060 6.788 C 7.251 6.053,7.827 5.477,8.545 5.303 C 8.843 5.231,12.256 5.215,12.747 5.283 M8.743 6.837 C 8.518 6.987,8.523 6.932,8.521 9.172 L 8.520 11.244 10.630 11.232 L 12.740 11.220 13.001 11.118 C 13.710 10.842,14.232 10.269,14.421 9.558 C 14.495 9.278,14.495 8.722,14.421 8.442 C 14.232 7.731,13.709 7.157,13.001 6.882 L 12.740 6.781 10.800 6.769 C 8.928 6.758,8.856 6.761,8.743 6.837 M8.489 14.810 C 8.499 16.681,8.506 16.871,8.571 16.989 C 8.715 17.253,8.597 17.244,11.571 17.231 L 14.260 17.220 14.540 17.104 C 15.109 16.868,15.514 16.495,15.759 15.982 C 15.933 15.618,16.000 15.344,16.000 15.000 C 16.000 14.198,15.520 13.401,14.812 13.029 C 14.297 12.759,14.332 12.761,11.249 12.761 L 8.477 12.760 8.489 14.810 " fill="#292D32" stroke="none" fill-rule="evenodd"></path></svg>