<svg width="24" height="24" viewBox="0 0 24 24" fill="none" xmlns="http://www.w3.org/2000/svg"><path d="M2.700 3.823 C 2.436 3.960,2.242 4.248,2.242 4.500 C 2.242 4.759,2.484 5.104,2.733 5.197 C 2.811 5.227,5.630 5.240,12.004 5.240 C 22.074 5.240,21.309 5.260,21.549 4.987 C 21.860 4.633,21.806 4.192,21.417 3.895 L 21.266 3.780 12.043 3.770 C 3.743 3.761,2.808 3.766,2.700 3.823 M6.927 8.846 C 6.669 8.974,6.540 9.192,6.540 9.500 C 6.540 9.811,6.670 10.029,6.930 10.155 L 7.105 10.240 12.000 10.240 L 16.895 10.240 17.070 10.155 C 17.330 10.029,17.460 9.811,17.460 9.500 C 17.460 9.218,17.365 9.040,17.127 8.876 L 16.986 8.780 12.043 8.770 L 7.100 8.760 6.927 8.846 M2.700 13.823 C 2.410 13.974,2.269 14.198,2.269 14.506 C 2.269 14.752,2.355 14.919,2.574 15.096 L 2.727 15.220 12.000 15.220 L 21.273 15.220 21.426 15.096 C 21.647 14.917,21.731 14.752,21.731 14.500 C 21.731 14.248,21.647 14.083,21.426 13.904 L 21.273 13.780 12.046 13.770 C 3.743 13.761,2.808 13.766,2.700 13.823 M6.927 18.846 C 6.669 18.974,6.540 19.192,6.540 19.500 C 6.540 19.811,6.670 20.029,6.930 20.155 L 7.105 20.240 12.000 20.240 L 16.895 20.240 17.070 20.155 C 17.330 20.029,17.460 19.811,17.460 19.500 C 17.460 19.218,17.365 19.040,17.127 18.876 L 16.986 18.780 12.043 18.770 L 7.100 18.760 6.927 18.846 " fill="#292D32" stroke="none" fill-rule="evenodd"></path></svg>