<svg width="24" height="24" viewBox="0 0 24 24" fill="none" xmlns="http://www.w3.org/2000/svg"><path d="M6.960 2.046 C 6.236 2.116,5.358 2.357,4.796 2.641 C 4.426 2.828,3.928 3.183,3.624 3.475 C 2.737 4.332,2.251 5.370,2.062 6.812 C 1.970 7.515,1.969 16.481,2.061 17.188 C 2.239 18.550,2.681 19.544,3.476 20.372 C 4.162 21.084,4.935 21.524,5.956 21.780 C 6.817 21.997,6.896 22.000,11.993 22.000 C 14.960 22.000,16.828 21.985,17.041 21.959 C 19.985 21.603,21.695 19.840,21.962 16.885 C 21.990 16.579,21.999 14.787,21.989 11.660 C 21.974 7.001,21.972 6.891,21.889 6.456 C 21.642 5.171,21.165 4.235,20.369 3.478 C 19.583 2.729,18.652 2.295,17.359 2.076 C 16.995 2.014,7.572 1.987,6.960 2.046 M13.520 7.059 C 14.790 7.228,16.023 7.590,17.129 8.117 C 17.498 8.293,17.632 8.422,17.716 8.685 C 17.856 9.122,17.468 9.638,17.000 9.638 C 16.862 9.638,16.790 9.611,16.040 9.284 C 15.590 9.087,15.054 8.911,14.492 8.775 C 14.064 8.672,13.112 8.521,12.891 8.520 L 12.762 8.520 12.751 12.510 C 12.741 16.135,12.734 16.511,12.674 16.620 C 12.540 16.862,12.255 17.040,12.000 17.040 C 11.745 17.040,11.460 16.862,11.326 16.620 C 11.266 16.511,11.259 16.135,11.249 12.510 L 11.238 8.520 11.109 8.520 C 10.888 8.521,9.936 8.672,9.508 8.775 C 8.946 8.911,8.410 9.087,7.960 9.284 C 7.226 9.605,7.139 9.638,7.040 9.639 C 6.568 9.642,6.184 9.208,6.261 8.757 C 6.309 8.470,6.476 8.302,6.930 8.086 C 8.199 7.480,9.567 7.127,11.200 6.984 C 11.571 6.951,13.077 7.000,13.520 7.059 " fill="#292D32" stroke="none" fill-rule="evenodd"></path></svg>