<svg width="24" height="24" viewBox="0 0 24 24" fill="none" xmlns="http://www.w3.org/2000/svg"><path d="M2.700 3.823 C 2.436 3.960,2.242 4.248,2.242 4.500 C 2.242 4.759,2.484 5.104,2.733 5.197 C 2.811 5.227,5.630 5.240,12.004 5.240 C 22.074 5.240,21.309 5.260,21.549 4.987 C 21.860 4.633,21.806 4.192,21.417 3.895 L 21.266 3.780 12.043 3.770 C 3.743 3.761,2.808 3.766,2.700 3.823 M2.700 8.823 C 2.410 8.974,2.269 9.198,2.269 9.506 C 2.269 9.752,2.355 9.919,2.574 10.096 L 2.727 10.220 7.667 10.230 C 12.439 10.241,12.612 10.238,12.778 10.165 C 12.872 10.124,13.001 10.021,13.064 9.938 C 13.167 9.803,13.180 9.754,13.180 9.500 C 13.180 9.246,13.167 9.197,13.065 9.063 C 13.001 8.979,12.875 8.878,12.785 8.837 C 12.627 8.765,12.420 8.762,7.720 8.761 C 3.357 8.761,2.807 8.767,2.700 8.823 M2.700 13.823 C 2.410 13.974,2.269 14.198,2.269 14.506 C 2.269 14.752,2.355 14.919,2.574 15.096 L 2.727 15.220 12.000 15.220 L 21.273 15.220 21.426 15.096 C 21.647 14.917,21.731 14.752,21.731 14.500 C 21.731 14.248,21.647 14.083,21.426 13.904 L 21.273 13.780 12.046 13.770 C 3.743 13.761,2.808 13.766,2.700 13.823 M2.700 18.823 C 2.410 18.974,2.269 19.198,2.269 19.506 C 2.269 19.752,2.355 19.919,2.574 20.096 L 2.727 20.220 7.667 20.230 C 12.439 20.241,12.612 20.238,12.778 20.165 C 12.872 20.124,13.001 20.021,13.064 19.938 C 13.167 19.803,13.180 19.754,13.180 19.500 C 13.180 19.246,13.167 19.197,13.065 19.063 C 13.001 18.979,12.875 18.878,12.785 18.837 C 12.627 18.765,12.420 18.762,7.720 18.761 C 3.357 18.761,2.807 18.767,2.700 18.823 " fill="#292D32" stroke="none" fill-rule="evenodd"></path></svg>