<svg width="24" height="24" viewBox="0 0 24 24" fill="none" xmlns="http://www.w3.org/2000/svg"><path d="M7.080 2.043 C 5.603 2.183,4.466 2.658,3.607 3.495 C 2.728 4.351,2.248 5.383,2.061 6.812 C 2.009 7.213,2.000 7.988,2.000 11.984 C 2.000 15.048,2.015 16.818,2.043 17.072 C 2.263 19.073,3.249 20.585,4.860 21.390 C 5.397 21.659,6.217 21.880,6.967 21.959 C 7.189 21.983,9.241 21.999,12.028 21.999 C 16.029 22.000,16.785 21.991,17.188 21.938 C 18.550 21.760,19.532 21.326,20.356 20.541 C 21.258 19.681,21.748 18.643,21.938 17.188 C 21.991 16.785,22.000 16.025,22.000 12.008 C 21.999 9.043,21.984 7.167,21.958 6.940 C 21.802 5.574,21.336 4.484,20.553 3.657 C 19.676 2.730,18.479 2.188,16.983 2.043 C 16.468 1.992,7.611 1.993,7.080 2.043 M17.340 5.751 C 17.981 5.994,18.467 6.513,18.655 7.152 C 18.745 7.459,18.755 9.058,18.667 9.225 C 18.433 9.673,17.861 9.783,17.506 9.447 C 17.281 9.234,17.265 9.165,17.242 8.300 C 17.218 7.432,17.207 7.390,16.972 7.235 C 16.867 7.165,16.737 7.161,14.810 7.160 L 12.760 7.160 12.760 12.020 L 12.760 16.880 13.742 16.880 C 14.860 16.880,14.946 16.900,15.146 17.202 C 15.366 17.535,15.285 17.948,14.946 18.218 L 14.793 18.340 12.000 18.340 L 9.207 18.340 9.054 18.218 C 8.715 17.948,8.634 17.535,8.854 17.202 C 9.054 16.900,9.140 16.880,10.258 16.880 L 11.240 16.880 11.240 12.020 L 11.240 7.160 9.190 7.160 C 6.570 7.161,6.792 7.056,6.758 8.300 C 6.735 9.165,6.719 9.234,6.494 9.447 C 6.217 9.709,5.783 9.709,5.506 9.447 C 5.268 9.222,5.260 9.181,5.261 8.220 C 5.263 7.378,5.267 7.328,5.365 7.056 C 5.493 6.702,5.712 6.368,5.954 6.158 C 6.180 5.962,6.629 5.738,6.900 5.686 C 7.022 5.663,9.052 5.650,12.100 5.654 L 17.100 5.660 17.340 5.751 " fill="#292D32" stroke="none" fill-rule="evenodd"></path></svg>