<svg width="24" height="24" viewBox="0 0 24 24" fill="none" xmlns="http://www.w3.org/2000/svg"><path d="M7.080 2.043 C 5.603 2.183,4.466 2.658,3.607 3.495 C 2.728 4.351,2.248 5.383,2.061 6.812 C 2.009 7.213,2.000 7.988,2.000 11.984 C 2.000 15.048,2.015 16.818,2.043 17.072 C 2.263 19.073,3.249 20.585,4.860 21.390 C 5.397 21.659,6.217 21.880,6.967 21.959 C 7.189 21.983,9.241 21.999,12.028 21.999 C 16.029 22.000,16.785 21.991,17.188 21.938 C 18.550 21.760,19.532 21.326,20.356 20.541 C 21.258 19.681,21.748 18.643,21.938 17.188 C 21.991 16.785,22.000 16.025,22.000 12.008 C 21.999 9.043,21.984 7.167,21.958 6.940 C 21.802 5.574,21.336 4.484,20.553 3.657 C 19.676 2.730,18.479 2.188,16.983 2.043 C 16.468 1.992,7.611 1.993,7.080 2.043 M16.196 6.100 C 16.270 6.144,16.387 6.249,16.456 6.334 C 16.567 6.472,16.580 6.515,16.580 6.757 C 16.580 7.095,16.472 7.275,16.182 7.421 C 15.987 7.519,15.971 7.520,14.954 7.520 L 13.923 7.520 13.883 7.670 C 13.862 7.753,13.365 9.737,12.780 12.080 C 12.195 14.423,11.707 16.371,11.696 16.410 C 11.676 16.475,11.740 16.480,12.659 16.480 C 13.710 16.480,13.825 16.498,14.033 16.692 C 14.385 17.020,14.307 17.623,13.880 17.874 L 13.700 17.980 10.960 17.993 C 7.959 18.007,7.897 18.003,7.652 17.787 C 7.283 17.464,7.321 16.879,7.728 16.610 L 7.894 16.500 9.015 16.480 L 10.135 16.460 11.246 12.020 C 11.858 9.578,12.358 7.566,12.359 7.550 C 12.359 7.534,11.923 7.520,11.390 7.520 C 10.831 7.520,10.355 7.502,10.267 7.477 C 10.052 7.417,9.824 7.176,9.766 6.946 C 9.670 6.566,9.904 6.146,10.265 6.049 C 10.367 6.021,11.388 6.009,13.240 6.013 C 15.982 6.020,16.064 6.022,16.196 6.100 " fill="#292D32" stroke="none" fill-rule="evenodd"></path></svg>