<svg width="24" height="24" viewBox="0 0 24 24" fill="none" xmlns="http://www.w3.org/2000/svg"><path d="M2.700 3.823 C 2.436 3.960,2.242 4.248,2.242 4.500 C 2.242 4.759,2.484 5.104,2.733 5.197 C 2.811 5.227,5.630 5.240,12.004 5.240 C 22.074 5.240,21.309 5.260,21.549 4.987 C 21.860 4.633,21.806 4.192,21.417 3.895 L 21.266 3.780 12.043 3.770 C 3.743 3.761,2.808 3.766,2.700 3.823 M2.700 8.823 C 2.410 8.974,2.269 9.198,2.269 9.506 C 2.269 9.752,2.355 9.919,2.574 10.096 L 2.727 10.220 12.000 10.220 L 21.273 10.220 21.426 10.096 C 21.647 9.917,21.731 9.752,21.731 9.500 C 21.731 9.248,21.647 9.083,21.426 8.904 L 21.273 8.780 12.046 8.770 C 3.743 8.761,2.808 8.766,2.700 8.823 M2.700 13.823 C 2.410 13.974,2.269 14.198,2.269 14.506 C 2.269 14.752,2.355 14.919,2.574 15.096 L 2.727 15.220 12.000 15.220 L 21.273 15.220 21.426 15.096 C 21.647 14.917,21.731 14.752,21.731 14.500 C 21.731 14.248,21.647 14.083,21.426 13.904 L 21.273 13.780 12.046 13.770 C 3.743 13.761,2.808 13.766,2.700 13.823 M2.700 18.823 C 2.410 18.974,2.269 19.198,2.269 19.506 C 2.269 19.752,2.355 19.919,2.574 20.096 L 2.727 20.220 12.000 20.220 L 21.273 20.220 21.426 20.096 C 21.647 19.917,21.731 19.752,21.731 19.500 C 21.731 19.248,21.647 19.083,21.426 18.904 L 21.273 18.780 12.046 18.770 C 3.743 18.761,2.808 18.766,2.700 18.823 " fill="#292D32" stroke="none" fill-rule="evenodd"></path></svg>