<svg width="24" height="24" viewBox="0 0 24 24" fill="none" xmlns="http://www.w3.org/2000/svg"><path d="M6.960 2.046 C 6.236 2.116,5.358 2.357,4.796 2.641 C 4.426 2.828,3.928 3.183,3.624 3.475 C 2.737 4.332,2.251 5.370,2.062 6.812 C 1.970 7.515,1.969 16.481,2.061 17.188 C 2.239 18.550,2.681 19.544,3.476 20.372 C 4.162 21.084,4.935 21.524,5.956 21.780 C 6.817 21.997,6.896 22.000,11.993 22.000 C 14.960 22.000,16.828 21.985,17.041 21.959 C 19.985 21.603,21.695 19.840,21.962 16.885 C 21.990 16.579,21.999 14.787,21.989 11.660 C 21.974 7.001,21.972 6.891,21.889 6.456 C 21.642 5.171,21.165 4.235,20.369 3.478 C 19.583 2.729,18.652 2.295,17.359 2.076 C 16.995 2.014,7.572 1.987,6.960 2.046 M16.619 8.531 C 16.938 8.712,17.070 9.082,16.940 9.432 C 16.879 9.594,16.474 10.016,14.025 12.472 C 12.460 14.041,11.101 15.377,11.004 15.441 C 10.784 15.588,10.599 15.624,10.386 15.562 C 10.245 15.521,9.983 15.277,8.670 13.967 C 6.988 12.290,6.964 12.260,7.017 11.905 C 7.090 11.418,7.600 11.145,8.070 11.342 C 8.167 11.382,8.629 11.813,9.410 12.591 L 10.601 13.778 13.231 11.151 C 14.677 9.706,15.905 8.506,15.960 8.484 C 16.143 8.413,16.448 8.435,16.619 8.531 " fill="#292D32" stroke="none" fill-rule="evenodd"></path></svg>