<svg width="24" height="24" viewBox="0 0 24 24" fill="none" xmlns="http://www.w3.org/2000/svg"><path d="M6.660 4.503 C 4.602 5.354,3.926 5.697,3.227 6.248 C 2.676 6.682,2.313 7.200,2.114 7.840 C 2.033 8.099,2.020 8.219,2.023 8.720 C 2.026 9.394,2.123 9.892,2.420 10.753 C 2.769 11.763,2.966 12.202,3.128 12.332 C 3.318 12.484,3.602 12.520,3.844 12.423 C 4.405 12.199,5.140 12.384,5.539 12.849 C 6.172 13.589,5.941 14.748,5.074 15.182 C 4.523 15.458,4.437 15.739,4.701 16.407 C 4.950 17.038,5.430 17.997,5.708 18.419 C 6.027 18.902,6.594 19.478,6.960 19.691 C 7.103 19.774,7.364 19.890,7.540 19.949 C 7.853 20.054,7.886 20.057,9.047 20.071 L 10.233 20.086 10.247 19.193 C 10.259 18.386,10.268 18.287,10.340 18.164 C 10.593 17.735,11.112 17.636,11.482 17.948 C 11.725 18.152,11.738 18.214,11.753 19.192 L 11.767 20.085 15.093 20.069 C 18.300 20.053,18.436 20.050,18.874 19.967 C 20.934 19.574,21.740 18.596,21.959 16.220 C 22.012 15.648,22.011 14.995,21.957 14.853 C 21.855 14.582,21.628 14.443,21.209 14.396 C 20.678 14.337,20.276 14.077,20.045 13.643 C 19.733 13.058,19.826 12.372,20.279 11.918 C 20.533 11.663,20.827 11.530,21.234 11.485 C 21.510 11.454,21.592 11.428,21.709 11.333 C 21.984 11.111,22.000 11.043,22.000 10.101 C 21.998 6.547,21.162 5.355,18.420 4.998 C 18.180 4.966,16.899 4.945,14.570 4.932 L 11.080 4.913 11.078 6.987 C 11.077 8.885,11.072 9.050,11.015 8.945 C 10.980 8.882,10.476 7.793,9.894 6.526 C 9.312 5.258,8.797 4.179,8.748 4.127 C 8.613 3.982,8.462 3.920,8.252 3.922 C 8.099 3.924,7.777 4.041,6.660 4.503 M11.209 9.122 C 11.388 9.172,11.578 9.325,11.671 9.495 C 11.734 9.609,11.740 9.825,11.740 11.960 C 11.740 13.247,11.727 14.348,11.710 14.407 C 11.638 14.665,11.292 14.917,11.009 14.919 C 10.747 14.921,10.462 14.746,10.326 14.500 C 10.267 14.393,10.259 14.132,10.248 12.100 C 10.239 10.541,10.249 9.773,10.279 9.672 C 10.354 9.414,10.575 9.210,10.880 9.117 C 11.020 9.075,11.041 9.075,11.209 9.122 " fill="#292D32" stroke="none" fill-rule="evenodd"></path></svg>