<svg width="24" height="24" viewBox="0 0 24 24" fill="none" xmlns="http://www.w3.org/2000/svg"><path d="M11.120 2.039 C 8.192 2.332,5.648 3.774,3.923 6.119 C 2.041 8.678,1.501 12.071,2.496 15.094 C 3.849 19.205,7.695 22.000,12.000 22.000 C 17.491 22.000,22.000 17.491,22.000 12.000 C 22.000 7.433,18.865 3.424,14.417 2.302 C 13.472 2.064,12.026 1.949,11.120 2.039 M16.619 8.531 C 16.938 8.712,17.070 9.082,16.940 9.432 C 16.879 9.594,16.474 10.016,14.025 12.472 C 12.460 14.041,11.101 15.377,11.004 15.441 C 10.784 15.588,10.599 15.624,10.386 15.562 C 10.245 15.521,9.983 15.277,8.670 13.967 C 6.988 12.290,6.964 12.260,7.017 11.905 C 7.090 11.418,7.600 11.145,8.070 11.342 C 8.167 11.382,8.629 11.813,9.410 12.591 L 10.601 13.778 13.231 11.151 C 14.677 9.706,15.905 8.506,15.960 8.484 C 16.143 8.413,16.448 8.435,16.619 8.531 " fill="#292D32" stroke="none" fill-rule="evenodd"></path></svg>