<svg width="24" height="24" viewBox="0 0 24 24" fill="none" xmlns="http://www.w3.org/2000/svg"><path d="M6.040 3.281 C 4.606 3.359,3.562 3.649,2.825 4.175 C 2.066 4.716,1.590 5.635,1.383 6.960 C 1.237 7.889,1.191 9.485,1.302 9.751 C 1.368 9.908,1.530 10.100,1.654 10.167 C 1.694 10.189,1.904 10.232,2.119 10.262 C 2.627 10.333,2.908 10.465,3.222 10.778 C 3.918 11.474,3.918 12.524,3.222 13.223 C 2.862 13.584,2.643 13.672,1.819 13.784 C 1.653 13.806,1.405 14.020,1.316 14.217 C 1.255 14.351,1.242 14.482,1.241 14.960 C 1.240 16.045,1.347 17.060,1.540 17.790 C 1.922 19.235,2.765 20.078,4.210 20.460 C 5.073 20.688,5.936 20.759,7.867 20.760 L 9.235 20.760 9.247 19.530 C 9.262 18.149,9.260 18.158,9.574 17.904 C 9.712 17.792,9.755 17.780,10.000 17.780 C 10.245 17.780,10.288 17.792,10.426 17.904 C 10.740 18.158,10.738 18.149,10.753 19.530 L 10.765 20.760 14.133 20.760 C 16.015 20.759,17.756 20.741,18.080 20.718 C 20.086 20.577,21.219 20.085,21.901 19.060 C 22.409 18.297,22.635 17.426,22.727 15.880 C 22.780 14.986,22.761 14.789,22.603 14.570 C 22.457 14.368,22.276 14.285,21.888 14.241 C 21.316 14.176,20.896 13.944,20.600 13.531 C 20.356 13.189,20.271 12.925,20.271 12.500 C 20.271 12.067,20.360 11.798,20.617 11.449 C 20.911 11.048,21.326 10.827,21.906 10.762 C 22.305 10.716,22.493 10.617,22.645 10.373 C 22.735 10.228,22.741 10.178,22.754 9.460 C 22.769 8.619,22.710 7.530,22.618 6.955 C 22.405 5.626,21.932 4.715,21.175 4.175 C 20.627 3.784,19.885 3.515,18.982 3.381 C 18.227 3.269,17.245 3.242,13.973 3.241 L 10.765 3.240 10.753 4.470 C 10.739 5.812,10.738 5.816,10.494 6.047 C 10.353 6.181,10.201 6.240,10.000 6.240 C 9.799 6.240,9.647 6.181,9.506 6.047 C 9.262 5.816,9.261 5.812,9.247 4.470 L 9.235 3.240 7.907 3.246 C 7.177 3.249,6.337 3.265,6.040 3.281 M10.302 9.155 C 10.483 9.238,10.665 9.433,10.710 9.593 C 10.749 9.733,10.749 14.267,10.710 14.407 C 10.637 14.669,10.290 14.918,10.000 14.918 C 9.710 14.918,9.363 14.669,9.290 14.407 C 9.251 14.267,9.251 9.733,9.290 9.593 C 9.363 9.331,9.710 9.082,10.000 9.082 C 10.077 9.082,10.213 9.115,10.302 9.155 " fill="#292D32" stroke="none" fill-rule="evenodd"></path></svg>