<svg width="24" height="24" viewBox="0 0 24 24" fill="none" xmlns="http://www.w3.org/2000/svg"><path d="M6.140 3.905 C 6.074 3.913,5.849 3.940,5.640 3.964 C 3.975 4.156,2.940 4.846,2.439 6.096 C 2.149 6.820,2.024 7.686,2.022 8.983 L 2.020 9.905 2.126 10.066 C 2.262 10.271,2.420 10.345,2.836 10.397 C 3.024 10.421,3.265 10.482,3.384 10.537 C 3.636 10.652,3.958 10.941,4.095 11.175 C 4.467 11.811,4.360 12.653,3.842 13.158 C 3.524 13.468,3.304 13.553,2.528 13.665 C 2.356 13.690,2.098 13.924,2.037 14.110 C 1.970 14.311,2.014 16.001,2.100 16.560 C 2.286 17.763,2.618 18.514,3.212 19.067 C 3.807 19.622,4.605 19.927,5.880 20.087 C 6.492 20.164,17.508 20.164,18.120 20.087 C 20.221 19.823,21.239 19.088,21.699 17.501 C 21.883 16.866,21.999 15.932,22.000 15.078 C 22.000 14.373,21.850 14.190,21.185 14.091 C 20.741 14.026,20.465 13.904,20.203 13.659 C 19.827 13.307,19.658 12.882,19.688 12.360 C 19.721 11.792,20.065 11.270,20.567 11.025 C 20.766 10.927,20.920 10.892,21.471 10.814 C 21.631 10.792,21.873 10.587,21.946 10.412 C 22.012 10.253,22.020 8.750,21.959 8.020 C 21.765 5.726,20.981 4.595,19.269 4.139 C 18.353 3.896,18.691 3.907,12.200 3.899 C 8.933 3.894,6.206 3.897,6.140 3.905 M15.631 8.262 C 15.828 8.344,15.955 8.466,16.044 8.660 C 16.130 8.845,16.137 8.957,16.076 9.180 C 16.039 9.318,15.558 9.816,12.567 12.813 C 10.660 14.723,9.054 16.310,8.999 16.339 C 8.423 16.645,7.794 16.145,7.929 15.490 C 7.966 15.306,8.079 15.188,11.434 11.826 C 13.817 9.437,14.950 8.328,15.060 8.277 C 15.256 8.185,15.435 8.180,15.631 8.262 M9.340 8.946 C 9.838 9.116,10.117 9.700,9.939 10.202 C 9.625 11.093,8.356 11.092,8.060 10.201 C 7.794 9.400,8.536 8.672,9.340 8.946 M15.423 13.992 C 15.939 14.255,16.131 14.855,15.859 15.355 C 15.366 16.260,14.000 15.903,14.000 14.868 C 14.000 14.472,14.280 14.080,14.665 13.936 C 14.866 13.862,15.219 13.887,15.423 13.992 " fill="#292D32" stroke="none" fill-rule="evenodd"></path></svg>