<svg width="24" height="24" viewBox="0 0 24 24" fill="none" xmlns="http://www.w3.org/2000/svg"><path d="M12.540 2.064 C 12.143 2.152,11.753 2.324,11.339 2.593 C 10.831 2.922,10.494 3.214,9.555 4.143 L 8.729 4.959 12.935 4.970 C 15.248 4.975,17.155 4.969,17.173 4.955 C 17.191 4.941,17.184 4.856,17.157 4.766 C 17.117 4.633,16.963 4.460,16.344 3.849 C 15.924 3.435,15.418 2.976,15.220 2.828 C 14.814 2.526,14.178 2.195,13.820 2.100 C 13.462 2.006,12.875 1.989,12.540 2.064 M6.676 6.482 C 5.155 6.574,4.249 6.883,3.578 7.540 C 2.845 8.257,2.533 9.282,2.491 11.106 C 2.479 11.615,2.482 12.096,2.496 12.174 C 2.527 12.339,2.680 12.537,2.839 12.619 C 2.899 12.651,3.091 12.694,3.266 12.716 C 3.682 12.768,3.914 12.872,4.186 13.129 C 4.829 13.737,4.841 14.668,4.215 15.291 C 3.955 15.550,3.688 15.673,3.237 15.740 C 2.850 15.799,2.732 15.856,2.582 16.056 C 2.504 16.161,2.500 16.217,2.502 17.173 C 2.504 18.270,2.558 18.782,2.742 19.431 C 3.105 20.709,3.915 21.464,5.267 21.781 C 6.092 21.975,6.058 21.974,11.560 21.990 C 15.161 22.001,16.935 21.992,17.380 21.961 C 20.199 21.762,21.233 20.766,21.483 18.011 C 21.507 17.742,21.521 17.317,21.513 17.067 C 21.501 16.642,21.493 16.604,21.388 16.467 C 21.237 16.269,21.111 16.211,20.723 16.163 C 20.198 16.097,19.830 15.886,19.583 15.510 C 19.112 14.792,19.309 13.869,20.033 13.405 C 20.237 13.274,20.612 13.160,20.840 13.160 C 21.059 13.160,21.325 13.007,21.429 12.820 C 21.515 12.666,21.519 12.621,21.519 11.640 C 21.521 9.382,21.199 8.235,20.345 7.453 C 19.705 6.867,18.792 6.578,17.277 6.482 C 16.523 6.434,7.471 6.434,6.676 6.482 M10.428 8.964 C 10.548 9.022,10.635 9.105,10.711 9.234 L 10.820 9.420 10.820 10.900 C 10.820 11.714,10.807 12.428,10.790 12.487 C 10.750 12.630,10.579 12.828,10.428 12.906 C 10.273 12.986,9.969 12.987,9.817 12.908 C 9.664 12.828,9.496 12.648,9.443 12.507 C 9.415 12.435,9.400 11.869,9.401 10.927 C 9.402 9.589,9.408 9.446,9.475 9.300 C 9.648 8.923,10.050 8.781,10.428 8.964 M10.438 15.559 C 10.621 15.652,10.734 15.798,10.795 16.020 C 10.856 16.238,10.856 18.802,10.795 19.020 C 10.734 19.242,10.621 19.388,10.438 19.481 C 10.126 19.640,9.774 19.556,9.543 19.266 L 9.420 19.113 9.408 17.626 C 9.401 16.809,9.407 16.081,9.420 16.009 C 9.449 15.851,9.654 15.608,9.819 15.536 C 9.996 15.459,10.261 15.469,10.438 15.559 " fill="#292D32" stroke="none" fill-rule="evenodd"></path></svg>