<svg width="24" height="24" viewBox="0 0 24 24" fill="none" xmlns="http://www.w3.org/2000/svg"><path d="M6.140 3.906 C 5.159 4.018,4.663 4.125,4.173 4.332 C 2.762 4.928,2.156 6.067,2.016 8.382 C 1.993 8.775,1.999 8.846,2.070 9.007 C 2.199 9.299,2.365 9.397,2.806 9.442 C 3.545 9.518,4.011 9.728,4.483 10.198 C 4.999 10.711,5.241 11.286,5.239 11.996 C 5.238 12.717,5.009 13.272,4.501 13.782 C 4.278 14.006,4.092 14.150,3.892 14.253 C 3.559 14.426,3.076 14.560,2.784 14.561 C 2.564 14.562,2.302 14.662,2.192 14.786 C 2.028 14.970,1.989 15.157,2.017 15.620 C 2.112 17.216,2.428 18.223,3.046 18.899 C 3.745 19.664,4.803 20.024,6.636 20.123 C 7.067 20.146,7.663 20.159,7.960 20.152 L 8.500 20.140 8.520 18.520 C 8.542 16.728,8.540 16.745,8.808 16.555 C 9.002 16.416,9.375 16.402,9.556 16.526 C 9.736 16.650,9.837 16.792,9.882 16.983 C 9.902 17.069,9.919 17.820,9.919 18.650 L 9.920 20.160 13.350 20.159 C 16.807 20.159,17.810 20.132,18.515 20.019 C 20.662 19.677,21.568 18.735,21.908 16.492 C 21.974 16.062,21.980 15.662,21.980 12.000 C 21.980 7.613,21.979 7.579,21.741 6.668 C 21.288 4.932,20.210 4.136,18.023 3.923 C 17.748 3.896,16.167 3.880,13.753 3.880 L 9.920 3.880 9.919 5.370 C 9.919 6.190,9.902 6.931,9.882 7.017 C 9.788 7.420,9.427 7.641,9.028 7.540 C 8.809 7.484,8.701 7.397,8.596 7.192 C 8.525 7.053,8.520 6.935,8.520 5.462 L 8.520 3.880 7.390 3.886 C 6.769 3.889,6.206 3.898,6.140 3.906 M15.961 9.201 C 16.063 9.273,16.165 9.444,16.404 9.940 C 16.574 10.295,16.738 10.604,16.767 10.626 C 16.796 10.648,17.108 10.707,17.460 10.756 C 17.812 10.805,18.158 10.863,18.228 10.885 C 18.394 10.937,18.589 11.161,18.622 11.339 C 18.681 11.653,18.634 11.732,18.033 12.319 C 17.602 12.739,17.476 12.885,17.492 12.944 C 17.578 13.243,17.728 14.325,17.703 14.459 C 17.646 14.762,17.262 15.007,16.973 14.924 C 16.906 14.905,16.569 14.742,16.223 14.563 L 15.595 14.237 14.929 14.585 C 14.403 14.860,14.228 14.933,14.097 14.933 C 13.770 14.933,13.479 14.655,13.481 14.344 C 13.481 14.254,13.534 13.892,13.597 13.540 C 13.695 12.994,13.704 12.888,13.659 12.816 C 13.630 12.770,13.406 12.545,13.161 12.317 C 12.916 12.089,12.681 11.846,12.638 11.777 C 12.480 11.521,12.567 11.102,12.810 10.943 C 12.863 10.908,13.202 10.836,13.582 10.779 C 13.955 10.724,14.301 10.669,14.350 10.658 C 14.421 10.643,14.514 10.491,14.776 9.969 C 14.960 9.601,15.145 9.269,15.186 9.232 C 15.383 9.055,15.737 9.041,15.961 9.201 " fill="#292D32" stroke="none" fill-rule="evenodd"></path></svg>