<svg width="24" height="24" viewBox="0 0 24 24" fill="none" xmlns="http://www.w3.org/2000/svg"><path d="M8.815 2.077 C 8.387 2.271,8.263 2.836,8.571 3.187 C 8.804 3.451,8.650 3.440,11.996 3.440 C 14.046 3.440,15.071 3.426,15.147 3.397 C 15.410 3.298,15.600 3.015,15.600 2.724 C 15.600 2.419,15.462 2.206,15.180 2.076 C 15.029 2.006,14.852 2.002,12.000 2.002 C 9.136 2.002,8.972 2.006,8.815 2.077 M11.340 4.679 C 8.249 4.923,5.542 6.780,4.195 9.580 C 3.618 10.780,3.354 11.947,3.352 13.300 C 3.348 15.299,3.934 17.023,5.173 18.658 C 5.466 19.046,6.191 19.782,6.588 20.094 C 8.305 21.445,10.510 22.135,12.573 21.967 C 13.095 21.925,13.899 21.790,14.287 21.680 L 14.435 21.638 14.319 21.405 C 14.256 21.276,14.163 21.038,14.114 20.876 C 14.027 20.590,14.023 20.516,14.010 18.636 C 13.997 16.825,14.001 16.666,14.075 16.305 C 14.262 15.387,14.811 14.674,15.620 14.298 C 16.223 14.017,16.189 14.020,18.525 14.020 L 20.629 14.020 20.651 13.652 C 20.680 13.171,20.622 12.332,20.522 11.777 C 19.984 8.805,17.911 6.311,15.066 5.212 C 13.995 4.799,12.511 4.586,11.340 4.679 M12.302 7.315 C 12.498 7.404,12.663 7.592,12.721 7.792 C 12.751 7.893,12.761 8.772,12.752 10.583 L 12.740 13.226 12.633 13.388 C 12.390 13.754,11.933 13.856,11.592 13.619 C 11.492 13.549,11.382 13.425,11.330 13.321 L 11.240 13.143 11.240 10.510 C 11.240 7.667,11.236 7.720,11.452 7.485 C 11.570 7.356,11.828 7.242,12.000 7.242 C 12.077 7.242,12.213 7.275,12.302 7.315 M16.580 15.042 C 15.951 15.151,15.448 15.511,15.216 16.018 C 15.009 16.470,14.994 16.662,15.009 18.639 C 15.022 20.363,15.027 20.473,15.107 20.709 C 15.223 21.051,15.359 21.270,15.591 21.488 C 15.816 21.699,16.000 21.801,16.341 21.906 C 16.559 21.974,16.748 21.980,18.500 21.980 C 20.369 21.980,20.427 21.978,20.700 21.892 C 21.318 21.697,21.697 21.318,21.892 20.700 C 21.978 20.427,21.980 20.369,21.980 18.500 C 21.980 16.631,21.978 16.573,21.892 16.300 C 21.700 15.692,21.327 15.313,20.720 15.110 C 20.470 15.026,20.392 15.023,18.620 15.015 C 17.608 15.010,16.690 15.023,16.580 15.042 M17.673 16.467 C 17.919 16.648,17.920 16.655,17.920 18.500 C 17.920 20.020,17.913 20.193,17.850 20.317 C 17.752 20.508,17.599 20.608,17.373 20.628 C 17.144 20.648,16.964 20.554,16.840 20.350 C 16.764 20.226,16.760 20.146,16.760 18.500 C 16.760 16.854,16.764 16.774,16.840 16.650 C 16.964 16.446,17.144 16.352,17.373 16.372 C 17.479 16.381,17.614 16.424,17.673 16.467 M19.950 16.440 C 20.022 16.484,20.116 16.578,20.160 16.650 C 20.236 16.774,20.240 16.854,20.240 18.500 C 20.240 20.146,20.236 20.226,20.160 20.350 C 20.036 20.554,19.856 20.648,19.627 20.628 C 19.401 20.608,19.248 20.509,19.149 20.317 C 19.085 20.191,19.080 20.037,19.089 18.453 C 19.100 16.778,19.102 16.722,19.183 16.613 C 19.360 16.371,19.709 16.292,19.950 16.440 " fill="#292D32" stroke="none" fill-rule="evenodd"></path></svg>