<svg width="24" height="24" viewBox="0 0 24 24" fill="none" xmlns="http://www.w3.org/2000/svg"><path d="M8.509 2.043 C 7.607 2.178,6.725 2.692,6.181 3.399 C 5.124 4.772,5.169 6.686,6.288 7.986 C 6.405 8.122,7.418 9.064,8.540 10.081 C 9.662 11.098,10.595 11.944,10.614 11.961 C 10.633 11.978,9.679 12.873,8.494 13.951 C 7.024 15.288,6.274 15.997,6.133 16.185 C 5.870 16.535,5.673 16.931,5.535 17.383 C 5.438 17.703,5.427 17.803,5.426 18.340 C 5.425 18.835,5.441 18.996,5.513 19.260 C 5.893 20.646,6.953 21.641,8.353 21.927 C 8.706 21.999,8.911 22.002,12.133 21.991 C 15.519 21.978,15.542 21.978,15.860 21.889 C 17.418 21.454,18.471 20.160,18.584 18.540 C 18.626 17.945,18.473 17.254,18.172 16.673 C 17.914 16.176,17.559 15.815,15.460 13.916 C 14.338 12.901,13.405 12.056,13.386 12.039 C 13.368 12.022,14.322 11.125,15.506 10.046 C 16.875 8.798,17.728 7.992,17.847 7.832 C 18.359 7.145,18.577 6.481,18.575 5.620 C 18.571 3.957,17.504 2.579,15.860 2.113 L 15.540 2.022 12.140 2.015 C 10.270 2.011,8.636 2.024,8.509 2.043 M14.160 5.970 C 14.627 6.288,14.599 6.918,14.107 7.157 C 13.940 7.238,13.880 7.240,12.000 7.240 C 10.110 7.240,10.061 7.238,9.890 7.155 C 9.788 7.106,9.672 7.006,9.613 6.916 C 9.389 6.578,9.545 6.075,9.920 5.925 C 9.981 5.900,10.792 5.884,12.024 5.883 L 14.028 5.880 14.160 5.970 M14.163 16.891 C 14.378 17.036,14.480 17.219,14.480 17.460 C 14.480 17.821,14.219 18.092,13.828 18.140 C 13.714 18.154,12.810 18.160,11.820 18.153 L 10.020 18.140 9.855 18.045 C 9.412 17.792,9.403 17.184,9.837 16.891 L 9.972 16.800 12.000 16.800 L 14.028 16.800 14.163 16.891 " fill="#292D32" stroke="none" fill-rule="evenodd"></path></svg>