<svg width="24" height="24" viewBox="0 0 24 24" fill="none" xmlns="http://www.w3.org/2000/svg"><path d="M8.820 2.075 C 8.630 2.163,8.544 2.252,8.462 2.450 C 8.347 2.725,8.394 3.003,8.593 3.215 C 8.810 3.448,8.692 3.440,12.009 3.440 C 15.435 3.440,15.202 3.460,15.459 3.142 C 15.567 3.009,15.580 2.963,15.580 2.723 C 15.580 2.488,15.565 2.435,15.465 2.303 C 15.401 2.219,15.275 2.118,15.185 2.077 C 15.028 2.006,14.864 2.002,12.000 2.002 C 9.154 2.002,8.971 2.006,8.820 2.075 M11.320 4.680 C 8.151 4.928,5.316 6.948,4.059 9.853 C 2.626 13.165,3.345 16.919,5.898 19.460 C 7.311 20.866,9.058 21.710,11.032 21.941 C 14.039 22.292,17.089 20.976,18.926 18.532 C 20.503 16.434,21.054 13.687,20.399 11.180 C 20.088 9.990,19.487 8.803,18.708 7.844 C 17.365 6.188,15.341 5.040,13.240 4.745 C 12.691 4.667,11.846 4.639,11.320 4.680 M12.405 7.381 C 12.485 7.432,12.593 7.543,12.645 7.627 L 12.740 7.780 12.740 10.480 L 12.740 13.180 12.651 13.347 C 12.410 13.797,11.840 13.880,11.476 13.516 C 11.235 13.275,11.233 13.251,11.247 10.360 L 11.260 7.780 11.353 7.631 C 11.586 7.256,12.044 7.147,12.405 7.381 " fill="#292D32" stroke="none" fill-rule="evenodd"></path></svg>