<svg width="24" height="24" viewBox="0 0 24 24" fill="none" xmlns="http://www.w3.org/2000/svg"><path d="M8.815 2.077 C 8.387 2.271,8.263 2.836,8.571 3.187 C 8.804 3.451,8.650 3.440,11.996 3.440 C 14.046 3.440,15.071 3.426,15.147 3.397 C 15.410 3.298,15.600 3.015,15.600 2.724 C 15.600 2.419,15.462 2.206,15.180 2.076 C 15.029 2.006,14.852 2.002,12.000 2.002 C 9.136 2.002,8.972 2.006,8.815 2.077 M11.340 4.679 C 8.249 4.923,5.542 6.780,4.195 9.580 C 3.618 10.780,3.354 11.947,3.352 13.300 C 3.348 15.299,3.934 17.023,5.173 18.658 C 5.466 19.046,6.191 19.782,6.588 20.094 C 8.305 21.445,10.510 22.135,12.573 21.967 C 13.095 21.925,13.899 21.790,14.287 21.680 L 14.435 21.638 14.319 21.405 C 14.256 21.276,14.163 21.038,14.114 20.876 C 14.027 20.590,14.023 20.516,14.010 18.636 C 13.997 16.825,14.001 16.666,14.075 16.305 C 14.262 15.387,14.811 14.674,15.620 14.298 C 16.223 14.017,16.189 14.020,18.525 14.020 L 20.629 14.020 20.651 13.652 C 20.680 13.171,20.622 12.332,20.522 11.777 C 19.984 8.805,17.911 6.311,15.066 5.212 C 13.995 4.799,12.511 4.586,11.340 4.679 M12.302 7.315 C 12.498 7.404,12.663 7.592,12.721 7.792 C 12.751 7.893,12.761 8.772,12.752 10.583 L 12.740 13.226 12.633 13.388 C 12.390 13.754,11.933 13.856,11.592 13.619 C 11.492 13.549,11.382 13.425,11.330 13.321 L 11.240 13.143 11.240 10.510 C 11.240 7.667,11.236 7.720,11.452 7.485 C 11.570 7.356,11.828 7.242,12.000 7.242 C 12.077 7.242,12.213 7.275,12.302 7.315 M16.591 15.040 C 15.746 15.188,15.231 15.685,15.057 16.519 C 15.005 16.771,14.997 17.108,15.009 18.639 C 15.022 20.383,15.027 20.471,15.110 20.720 C 15.313 21.327,15.692 21.700,16.300 21.892 C 16.573 21.978,16.631 21.980,18.500 21.980 C 20.369 21.980,20.427 21.978,20.700 21.892 C 21.318 21.697,21.697 21.318,21.892 20.700 C 21.978 20.427,21.980 20.369,21.980 18.500 C 21.980 16.631,21.978 16.573,21.892 16.300 C 21.700 15.692,21.327 15.313,20.720 15.110 C 20.470 15.026,20.392 15.023,18.620 15.015 C 17.608 15.011,16.695 15.022,16.591 15.040 M18.262 16.742 C 18.574 16.870,19.774 17.583,19.967 17.755 C 20.235 17.995,20.336 18.199,20.336 18.500 C 20.336 18.986,20.112 19.223,19.102 19.804 C 18.148 20.354,17.934 20.423,17.540 20.316 C 17.311 20.253,16.993 19.918,16.918 19.659 C 16.837 19.379,16.836 17.624,16.916 17.346 C 16.987 17.102,17.278 16.778,17.500 16.697 C 17.691 16.627,18.031 16.647,18.262 16.742 " fill="#292D32" stroke="none" fill-rule="evenodd"></path></svg>