<svg width="24" height="24" viewBox="0 0 24 24" fill="none" xmlns="http://www.w3.org/2000/svg"><path d="M9.016 3.942 C 5.930 4.392,3.394 6.507,2.423 9.440 C 1.856 11.152,1.856 12.848,2.423 14.560 C 3.302 17.216,5.461 19.212,8.200 19.901 C 9.106 20.128,9.290 20.140,12.000 20.140 C 14.710 20.140,14.894 20.128,15.800 19.901 C 18.160 19.308,20.103 17.742,21.163 15.580 C 22.273 13.315,22.273 10.687,21.163 8.420 C 19.973 5.990,17.666 4.326,14.952 3.940 C 14.385 3.860,9.570 3.861,9.016 3.942 M14.670 7.660 C 16.202 7.951,17.472 9.026,18.003 10.482 C 18.994 13.196,17.144 16.126,14.267 16.398 C 12.286 16.584,10.401 15.391,9.717 13.518 C 9.513 12.960,9.467 12.681,9.467 12.000 C 9.467 11.319,9.513 11.040,9.717 10.482 C 10.245 9.036,11.502 7.965,13.025 7.662 C 13.405 7.587,14.276 7.586,14.670 7.660 " fill="#292D32" stroke="none" fill-rule="evenodd"></path></svg>