<svg width="24" height="24" viewBox="0 0 24 24" fill="none" xmlns="http://www.w3.org/2000/svg"><path d="M6.140 3.905 C 6.074 3.913,5.849 3.940,5.640 3.964 C 5.120 4.024,4.438 4.202,4.064 4.374 C 2.900 4.912,2.340 5.815,2.075 7.580 C 2.007 8.036,1.977 15.122,2.040 15.920 C 2.274 18.886,3.402 19.937,6.545 20.120 C 7.424 20.171,16.576 20.171,17.455 20.120 C 20.575 19.939,21.712 18.893,21.959 15.980 C 22.012 15.346,22.012 8.654,21.959 8.020 C 21.765 5.726,20.981 4.595,19.269 4.139 C 18.353 3.896,18.691 3.907,12.200 3.899 C 8.933 3.894,6.206 3.897,6.140 3.905 M11.640 7.658 C 13.040 7.872,13.808 8.640,14.022 10.040 C 14.105 10.585,14.104 13.419,14.020 13.972 C 13.868 14.981,13.417 15.671,12.669 16.039 C 11.967 16.384,11.289 16.461,9.240 16.427 C 7.540 16.399,7.168 16.333,6.506 15.942 C 6.123 15.716,5.837 15.394,5.623 14.947 C 5.316 14.308,5.310 14.256,5.290 12.240 C 5.272 10.364,5.293 9.989,5.449 9.480 C 5.761 8.457,6.511 7.843,7.671 7.662 C 8.185 7.582,11.122 7.579,11.640 7.658 " fill="#292D32" stroke="none" fill-rule="evenodd"></path></svg>