<svg width="24" height="24" viewBox="0 0 24 24" fill="none" xmlns="http://www.w3.org/2000/svg"><path d="M6.140 3.905 C 6.074 3.913,5.849 3.940,5.640 3.964 C 5.120 4.024,4.438 4.202,4.064 4.374 C 2.900 4.912,2.340 5.815,2.075 7.580 C 2.007 8.036,1.977 15.122,2.040 15.920 C 2.274 18.886,3.402 19.937,6.545 20.120 C 7.424 20.171,16.576 20.171,17.455 20.120 C 20.575 19.939,21.712 18.893,21.959 15.980 C 22.012 15.346,22.012 8.654,21.959 8.020 C 21.765 5.726,20.981 4.595,19.269 4.139 C 18.353 3.896,18.691 3.907,12.200 3.899 C 8.933 3.894,6.206 3.897,6.140 3.905 M16.292 7.660 C 17.709 7.873,18.487 8.668,18.679 10.100 C 18.713 10.354,18.722 10.984,18.710 12.240 C 18.690 14.256,18.684 14.308,18.377 14.947 C 18.163 15.394,17.877 15.716,17.494 15.942 C 16.832 16.333,16.460 16.399,14.760 16.427 C 12.706 16.461,12.034 16.384,11.325 16.036 C 10.580 15.670,10.132 14.982,9.980 13.972 C 9.896 13.419,9.895 10.585,9.978 10.040 C 10.190 8.655,10.954 7.879,12.320 7.662 C 12.827 7.581,15.762 7.580,16.292 7.660 " fill="#292D32" stroke="none" fill-rule="evenodd"></path></svg>