<svg width="24" height="24" viewBox="0 0 24 24" fill="none" xmlns="http://www.w3.org/2000/svg"><path d="M2.673 2.063 C 2.552 2.100,2.421 2.185,2.303 2.303 C 2.003 2.603,1.994 2.667,2.008 4.387 C 2.021 6.014,2.021 6.015,2.291 6.284 C 2.579 6.572,3.070 6.667,3.420 6.503 C 3.647 6.396,6.361 3.682,6.481 3.442 C 6.591 3.221,6.599 2.856,6.500 2.610 C 6.408 2.382,6.094 2.103,5.864 2.045 C 5.581 1.974,2.914 1.989,2.673 2.063 M14.814 2.041 C 11.947 2.343,9.619 4.522,9.107 7.384 L 9.084 7.508 9.492 7.558 C 11.436 7.800,13.337 8.840,14.606 10.356 C 15.639 11.591,16.304 13.130,16.461 14.648 L 16.489 14.916 16.614 14.894 C 19.065 14.453,21.050 12.676,21.736 10.309 C 22.027 9.305,22.068 8.218,21.855 7.160 C 21.698 6.379,21.286 5.435,20.810 4.760 C 20.466 4.273,19.727 3.534,19.240 3.190 C 17.978 2.299,16.358 1.878,14.814 2.041 M7.814 9.038 C 6.298 9.213,4.998 9.840,3.917 10.918 C 2.949 11.883,2.345 13.030,2.094 14.380 C 1.991 14.937,1.991 16.063,2.094 16.620 C 2.345 17.968,2.947 19.112,3.918 20.082 C 4.888 21.053,6.032 21.655,7.380 21.906 C 7.937 22.009,9.063 22.009,9.620 21.906 C 10.968 21.655,12.112 21.053,13.082 20.082 C 14.053 19.112,14.655 17.968,14.906 16.620 C 15.009 16.063,15.009 14.937,14.906 14.380 C 14.657 13.042,14.051 11.886,13.102 10.939 C 12.837 10.675,12.507 10.378,12.370 10.279 C 11.514 9.667,10.591 9.273,9.601 9.096 C 9.194 9.024,8.214 8.992,7.814 9.038 M20.723 17.444 C 20.475 17.520,20.274 17.699,18.934 19.047 C 18.047 19.939,17.579 20.439,17.519 20.558 C 17.338 20.920,17.425 21.422,17.720 21.708 C 18.004 21.985,17.971 21.980,19.700 21.980 C 21.435 21.980,21.415 21.983,21.699 21.699 C 21.983 21.415,21.980 21.435,21.980 19.700 C 21.980 17.973,21.982 17.988,21.709 17.716 C 21.463 17.469,21.032 17.351,20.723 17.444 " fill="#292D32" stroke="none" fill-rule="evenodd"></path></svg>