<svg width="24" height="24" viewBox="0 0 24 24" fill="none" xmlns="http://www.w3.org/2000/svg"><path d="M14.787 1.289 C 14.450 1.378,14.201 1.771,14.260 2.120 C 14.276 2.212,14.524 2.667,14.895 3.284 C 15.455 4.214,15.519 4.304,15.682 4.391 C 15.825 4.467,15.905 4.483,16.086 4.471 C 16.510 4.442,16.774 4.160,16.776 3.736 C 16.777 3.568,16.747 3.480,16.608 3.240 C 16.515 3.079,16.447 2.940,16.457 2.930 C 16.496 2.891,17.286 3.169,17.680 3.361 C 18.419 3.722,18.922 4.086,19.482 4.666 C 19.997 5.198,20.265 5.574,20.579 6.198 C 20.970 6.976,21.181 7.766,21.235 8.652 C 21.258 9.024,21.289 9.227,21.339 9.333 C 21.585 9.851,22.357 9.866,22.638 9.358 C 22.729 9.195,22.736 9.144,22.727 8.720 C 22.692 6.913,21.916 5.057,20.622 3.688 C 19.487 2.485,18.039 1.698,16.380 1.381 C 16.125 1.332,15.045 1.228,14.960 1.244 C 14.949 1.247,14.871 1.267,14.787 1.289 M4.379 2.042 C 3.187 2.197,2.445 2.796,2.148 3.840 C 2.007 4.335,1.994 4.652,2.010 7.200 C 2.028 9.993,2.024 9.952,2.319 10.580 C 2.639 11.263,3.082 11.616,3.913 11.852 C 4.215 11.937,4.267 11.939,6.960 11.939 C 9.679 11.940,9.703 11.939,10.057 11.849 C 10.588 11.714,10.893 11.550,11.223 11.221 C 11.549 10.898,11.712 10.592,11.852 10.047 C 11.939 9.705,11.940 9.657,11.939 6.960 C 11.939 4.245,11.938 4.217,11.849 3.900 C 11.533 2.770,10.828 2.201,9.544 2.040 C 9.167 1.993,4.742 1.994,4.379 2.042 M7.318 4.519 C 7.493 4.608,7.606 4.750,7.678 4.970 L 7.726 5.120 8.468 5.120 C 9.161 5.120,9.219 5.126,9.368 5.210 C 9.783 5.443,9.861 6.071,9.514 6.385 C 9.357 6.528,9.232 6.574,8.945 6.598 L 8.671 6.620 8.575 6.951 C 8.523 7.133,8.408 7.426,8.319 7.602 C 8.230 7.779,8.169 7.942,8.184 7.966 C 8.242 8.060,8.699 8.236,8.954 8.262 C 9.291 8.298,9.492 8.399,9.626 8.602 C 9.846 8.935,9.765 9.348,9.426 9.618 C 9.280 9.734,9.255 9.740,8.906 9.739 C 8.356 9.737,7.762 9.530,7.308 9.184 L 7.123 9.043 6.835 9.220 C 6.292 9.555,5.699 9.732,5.097 9.737 C 4.716 9.740,4.685 9.734,4.528 9.626 C 4.110 9.336,4.095 8.727,4.498 8.419 C 4.610 8.333,4.716 8.302,5.048 8.259 C 5.275 8.229,5.533 8.178,5.623 8.146 C 6.258 7.921,6.800 7.408,7.037 6.807 L 7.118 6.603 5.905 6.592 L 4.693 6.580 4.528 6.466 C 4.106 6.173,4.095 5.566,4.506 5.252 C 4.653 5.140,4.654 5.140,5.433 5.120 L 6.213 5.100 6.257 4.970 C 6.319 4.786,6.507 4.562,6.655 4.498 C 6.839 4.417,7.138 4.427,7.318 4.519 M16.420 11.883 C 14.339 12.077,12.545 13.606,12.017 15.636 C 11.557 17.405,12.049 19.222,13.335 20.504 C 14.003 21.170,14.769 21.611,15.669 21.850 C 16.119 21.969,16.174 21.974,16.920 21.974 C 17.666 21.974,17.721 21.969,18.171 21.850 C 20.090 21.342,21.492 19.851,21.906 17.880 C 22.002 17.422,22.003 16.475,21.907 15.993 C 21.657 14.731,20.991 13.650,20.007 12.910 C 18.958 12.120,17.710 11.763,16.420 11.883 M17.212 13.694 C 17.283 13.724,17.400 13.816,17.473 13.898 C 17.548 13.983,18.078 14.997,18.702 16.245 C 19.741 18.325,19.800 18.454,19.800 18.663 C 19.800 18.910,19.742 19.050,19.574 19.205 C 19.402 19.364,19.284 19.411,19.061 19.411 C 18.728 19.411,18.495 19.238,18.307 18.851 L 18.224 18.680 16.919 18.680 L 15.614 18.680 15.521 18.878 C 15.352 19.238,15.117 19.400,14.764 19.400 C 14.391 19.400,14.089 19.096,14.049 18.680 C 14.033 18.509,14.095 18.371,15.171 16.220 C 15.798 14.966,16.354 13.900,16.406 13.852 C 16.619 13.655,16.958 13.588,17.212 13.694 M1.807 14.288 C 1.563 14.342,1.341 14.571,1.287 14.827 C 1.232 15.080,1.292 15.949,1.402 16.495 C 1.966 19.309,4.083 21.636,6.796 22.423 C 7.618 22.662,8.817 22.807,9.191 22.713 C 9.548 22.623,9.804 22.238,9.741 21.884 C 9.710 21.712,8.616 19.866,8.453 19.713 C 8.111 19.388,7.503 19.489,7.298 19.905 C 7.168 20.168,7.196 20.421,7.393 20.761 C 7.485 20.921,7.552 21.061,7.542 21.072 C 7.496 21.118,6.678 20.816,6.203 20.579 C 5.601 20.277,5.159 19.962,4.666 19.484 C 4.090 18.925,3.747 18.459,3.394 17.752 C 3.016 16.995,2.825 16.264,2.763 15.336 C 2.710 14.544,2.591 14.367,2.040 14.261 C 2.007 14.255,1.902 14.267,1.807 14.288 M16.649 16.620 C 16.512 16.896,16.400 17.130,16.400 17.140 C 16.400 17.151,16.634 17.160,16.920 17.160 C 17.206 17.160,17.440 17.151,17.440 17.140 C 17.440 17.100,16.941 16.120,16.920 16.120 C 16.908 16.120,16.786 16.345,16.649 16.620 " fill="#292D32" stroke="none" fill-rule="evenodd"></path></svg>