<svg width="24" height="24" viewBox="0 0 24 24" fill="none" xmlns="http://www.w3.org/2000/svg"><path d="M10.147 1.282 C 9.026 1.407,8.402 1.881,8.124 2.820 C 8.079 2.974,7.977 3.486,7.899 3.959 C 7.820 4.431,7.752 4.819,7.748 4.822 C 7.744 4.824,7.191 4.865,6.520 4.912 C 4.479 5.057,2.849 5.231,2.650 5.326 C 2.341 5.474,2.183 5.834,2.278 6.174 C 2.344 6.409,2.606 6.662,2.825 6.704 C 2.910 6.720,3.290 6.701,3.679 6.663 C 7.510 6.285,7.982 6.261,11.580 6.262 C 15.082 6.262,16.369 6.319,19.720 6.624 C 20.347 6.681,20.953 6.720,21.068 6.711 C 21.496 6.676,21.795 6.323,21.746 5.910 C 21.733 5.796,21.679 5.642,21.624 5.559 C 21.455 5.303,21.291 5.254,20.300 5.163 C 19.316 5.072,17.526 4.937,16.752 4.896 L 16.243 4.868 16.203 4.664 C 16.181 4.552,16.107 4.131,16.039 3.730 C 15.908 2.961,15.795 2.562,15.622 2.268 C 15.464 1.997,15.118 1.694,14.791 1.539 C 14.254 1.285,14.133 1.272,12.200 1.259 C 11.243 1.252,10.319 1.263,10.147 1.282 M5.296 7.816 C 4.891 7.944,4.560 8.311,4.472 8.729 C 4.434 8.912,4.476 9.776,4.735 14.084 C 5.077 19.777,5.092 19.979,5.201 20.520 C 5.400 21.510,5.987 22.185,6.924 22.497 C 7.665 22.743,7.593 22.740,12.000 22.740 C 15.683 22.740,16.052 22.734,16.396 22.669 C 17.930 22.379,18.641 21.666,18.856 20.200 C 18.933 19.678,19.573 9.230,19.548 8.900 C 19.515 8.456,19.257 8.074,18.857 7.877 L 18.660 7.780 12.060 7.772 C 6.764 7.766,5.428 7.775,5.296 7.816 M14.780 12.316 C 15.075 12.453,15.240 12.697,15.240 13.000 C 15.240 13.303,15.075 13.547,14.780 13.684 C 14.629 13.754,14.466 13.758,12.000 13.758 C 9.534 13.758,9.371 13.754,9.220 13.684 C 8.925 13.547,8.760 13.303,8.760 13.000 C 8.760 12.697,8.925 12.453,9.220 12.316 C 9.371 12.246,9.534 12.242,12.000 12.242 C 14.466 12.242,14.629 12.246,14.780 12.316 M13.940 16.316 C 14.460 16.557,14.565 17.182,14.147 17.549 C 14.067 17.619,13.934 17.696,13.851 17.721 C 13.748 17.751,13.132 17.761,11.900 17.752 L 10.100 17.740 9.950 17.647 C 9.408 17.310,9.512 16.462,10.117 16.278 C 10.173 16.261,11.021 16.246,12.000 16.244 C 13.651 16.242,13.792 16.247,13.940 16.316 " fill="#292D32" stroke="none" fill-rule="evenodd"></path></svg>