<svg width="24" height="24" viewBox="0 0 24 24" fill="none" xmlns="http://www.w3.org/2000/svg"><path d="M11.620 2.035 C 11.532 2.075,11.399 2.159,11.325 2.221 C 11.164 2.358,6.897 8.330,6.741 8.639 C 6.613 8.890,6.568 9.242,6.637 9.451 C 6.704 9.653,6.988 9.901,7.246 9.982 C 7.405 10.032,7.684 10.056,8.322 10.075 L 9.184 10.100 7.149 12.960 C 6.029 14.533,5.052 15.941,4.977 16.089 C 4.494 17.039,4.888 17.783,5.969 17.959 C 6.120 17.983,7.216 18.000,8.730 18.000 L 11.240 18.000 11.240 19.978 C 11.240 21.272,11.255 22.027,11.284 22.162 C 11.424 22.815,12.311 22.943,12.640 22.358 L 12.740 22.180 12.752 20.090 L 12.763 18.000 15.272 18.000 C 16.784 18.000,17.880 17.983,18.031 17.959 C 18.440 17.892,18.714 17.770,18.925 17.559 C 19.288 17.196,19.322 16.716,19.027 16.105 C 18.947 15.941,18.026 14.609,16.851 12.960 L 14.813 10.100 15.677 10.076 C 16.420 10.056,16.573 10.040,16.777 9.967 C 17.047 9.869,17.211 9.731,17.329 9.502 C 17.439 9.287,17.412 8.939,17.260 8.639 C 17.139 8.401,12.946 2.503,12.746 2.289 C 12.459 1.984,11.972 1.874,11.620 2.035 " fill="#292D32" stroke="none" fill-rule="evenodd"></path></svg>