<svg width="24" height="24" viewBox="0 0 24 24" fill="none" xmlns="http://www.w3.org/2000/svg"><path d="M6.960 2.046 C 6.236 2.116,5.358 2.357,4.796 2.641 C 4.426 2.828,3.928 3.183,3.624 3.475 C 2.737 4.332,2.251 5.370,2.062 6.812 C 1.970 7.515,1.969 16.481,2.061 17.188 C 2.239 18.550,2.681 19.544,3.476 20.372 C 4.162 21.084,4.935 21.524,5.956 21.780 C 6.817 21.997,6.896 22.000,11.993 22.000 C 14.960 22.000,16.828 21.985,17.041 21.959 C 19.985 21.603,21.695 19.840,21.962 16.885 C 21.990 16.579,21.999 14.787,21.989 11.660 C 21.974 7.001,21.972 6.891,21.889 6.456 C 21.642 5.171,21.165 4.235,20.369 3.478 C 19.583 2.729,18.652 2.295,17.359 2.076 C 16.995 2.014,7.572 1.987,6.960 2.046 M16.528 9.072 C 16.609 9.123,16.717 9.231,16.768 9.312 C 16.857 9.455,16.860 9.494,16.872 10.538 C 16.883 11.459,16.875 11.641,16.820 11.787 C 16.661 12.203,16.168 12.357,15.794 12.109 C 15.627 11.997,15.480 11.714,15.480 11.502 L 15.480 11.340 14.070 12.749 C 13.117 13.701,12.612 14.177,12.511 14.219 C 12.317 14.299,12.177 14.295,11.975 14.203 C 11.830 14.138,11.740 14.024,11.238 13.281 L 10.666 12.434 9.423 13.673 C 8.739 14.354,8.137 14.934,8.084 14.960 C 7.951 15.028,7.638 15.022,7.497 14.948 C 7.152 14.769,7.019 14.352,7.197 14.008 C 7.240 13.927,7.982 13.155,8.847 12.293 C 10.229 10.917,10.441 10.721,10.591 10.681 C 10.789 10.629,10.980 10.657,11.154 10.762 C 11.234 10.811,11.474 11.132,11.827 11.661 L 12.375 12.484 13.429 11.432 C 14.392 10.470,14.472 10.379,14.371 10.369 C 13.999 10.334,13.821 10.233,13.693 9.986 C 13.544 9.699,13.649 9.268,13.910 9.097 C 14.094 8.977,14.226 8.965,15.320 8.973 C 16.350 8.980,16.384 8.983,16.528 9.072 " fill="#292D32" stroke="none" fill-rule="evenodd"></path></svg>