<svg width="24" height="24" viewBox="0 0 24 24" fill="none" xmlns="http://www.w3.org/2000/svg"><path d="M6.960 2.046 C 6.236 2.116,5.358 2.357,4.796 2.641 C 4.426 2.828,3.928 3.183,3.624 3.475 C 2.737 4.332,2.251 5.370,2.062 6.812 C 1.970 7.515,1.969 16.481,2.061 17.188 C 2.239 18.550,2.681 19.544,3.476 20.372 C 4.162 21.084,4.935 21.524,5.956 21.780 C 6.817 21.997,6.896 22.000,11.993 22.000 C 14.960 22.000,16.828 21.985,17.041 21.959 C 19.985 21.603,21.695 19.840,21.962 16.885 C 21.990 16.579,21.999 14.787,21.989 11.660 C 21.974 7.001,21.972 6.891,21.889 6.456 C 21.642 5.171,21.165 4.235,20.369 3.478 C 19.583 2.729,18.652 2.295,17.359 2.076 C 16.995 2.014,7.572 1.987,6.960 2.046 M8.180 9.102 C 8.268 9.153,8.870 9.726,9.518 10.375 L 10.695 11.556 11.238 10.748 C 11.583 10.234,11.829 9.908,11.914 9.851 C 12.094 9.732,12.271 9.704,12.484 9.760 C 12.640 9.802,12.818 9.964,14.061 11.204 C 14.832 11.972,15.475 12.600,15.491 12.600 C 15.507 12.600,15.520 12.526,15.520 12.435 C 15.520 11.775,16.469 11.540,16.795 12.120 C 16.876 12.263,16.880 12.325,16.880 13.357 C 16.880 14.243,16.869 14.470,16.818 14.590 C 16.736 14.788,16.650 14.877,16.460 14.965 C 16.317 15.030,16.187 15.038,15.260 15.036 C 14.023 15.034,13.921 15.009,13.719 14.668 C 13.606 14.476,13.620 14.100,13.746 13.929 C 13.869 13.764,14.112 13.641,14.320 13.641 L 14.499 13.640 13.442 12.582 L 12.385 11.524 11.842 12.332 C 11.285 13.162,11.161 13.294,10.892 13.344 C 10.559 13.407,10.535 13.387,8.849 11.706 C 7.825 10.686,7.250 10.083,7.199 9.977 C 7.096 9.765,7.099 9.578,7.210 9.361 C 7.405 8.979,7.789 8.876,8.180 9.102 " fill="#292D32" stroke="none" fill-rule="evenodd"></path></svg>