<svg width="24" height="24" viewBox="0 0 24 24" fill="none" xmlns="http://www.w3.org/2000/svg"><path d="M10.000 2.915 C 9.679 3.020,9.430 3.260,9.060 3.822 C 8.788 4.234,2.730 15.128,2.499 15.620 C 2.148 16.365,1.976 17.126,2.013 17.760 C 2.045 18.295,2.091 18.424,2.334 18.661 C 2.640 18.959,3.065 19.047,3.420 18.885 C 3.577 18.813,10.531 13.965,10.875 13.688 C 10.979 13.604,11.088 13.464,11.145 13.343 L 11.239 13.140 11.240 8.409 C 11.240 3.267,11.252 3.561,11.024 3.261 C 10.828 3.005,10.286 2.822,10.000 2.915 M13.533 2.916 C 13.166 3.009,12.828 3.359,12.780 3.694 C 12.767 3.785,12.762 5.967,12.768 8.543 L 12.780 13.226 12.901 13.423 C 13.011 13.602,13.361 13.858,16.661 16.173 C 18.663 17.577,20.377 18.772,20.472 18.828 C 20.723 18.977,21.077 18.998,21.353 18.879 C 21.599 18.773,21.846 18.514,21.911 18.292 C 22.093 17.669,21.953 16.638,21.565 15.760 C 21.369 15.314,15.264 4.333,14.939 3.840 C 14.623 3.361,14.392 3.098,14.201 3.000 C 14.025 2.911,13.712 2.871,13.533 2.916 M11.660 14.936 C 11.572 14.963,10.010 15.979,8.189 17.194 C 4.730 19.501,4.475 19.690,4.287 20.083 C 4.239 20.183,4.200 20.335,4.200 20.419 C 4.200 20.549,4.228 20.600,4.370 20.737 C 4.564 20.922,4.825 21.019,5.285 21.079 C 5.703 21.134,18.320 21.133,18.754 21.078 C 19.175 21.026,19.504 20.903,19.670 20.738 C 19.780 20.628,19.800 20.579,19.800 20.420 C 19.800 20.154,19.705 19.981,19.382 19.656 C 19.150 19.423,18.512 18.981,15.794 17.169 C 13.929 15.926,12.421 14.947,12.334 14.923 C 12.134 14.868,11.861 14.873,11.660 14.936 " fill="#292D32" stroke="none" fill-rule="evenodd"></path></svg>