<svg width="24" height="24" viewBox="0 0 24 24" fill="none" xmlns="http://www.w3.org/2000/svg"><path d="M5.140 2.044 C 4.640 2.117,4.040 2.354,3.600 2.653 C 3.306 2.852,2.845 3.320,2.631 3.634 C 2.399 3.977,2.279 4.235,2.129 4.714 L 2.021 5.060 2.009 8.635 C 1.996 12.671,1.981 12.463,2.298 12.780 C 2.618 13.100,2.261 13.080,7.617 13.080 C 12.731 13.079,12.552 13.086,12.990 12.876 C 13.235 12.759,13.679 12.315,13.796 12.070 C 14.005 11.634,13.999 11.776,14.000 7.125 C 14.000 3.991,13.987 2.747,13.954 2.637 C 13.894 2.434,13.710 2.218,13.506 2.109 L 13.340 2.020 9.360 2.015 C 7.171 2.011,5.272 2.025,5.140 2.044 M15.673 5.061 C 15.555 5.099,15.418 5.188,15.304 5.303 C 14.989 5.617,15.000 5.493,15.000 8.841 C 15.000 11.642,14.996 11.802,14.921 12.096 C 14.688 13.005,14.005 13.688,13.096 13.921 C 12.797 13.998,12.633 14.000,7.841 14.000 C 2.262 14.000,2.626 13.980,2.303 14.303 C 2.018 14.589,2.000 14.691,2.000 16.064 C 2.000 16.914,2.016 17.315,2.057 17.533 C 2.294 18.769,3.231 19.706,4.467 19.943 C 4.632 19.974,4.819 20.000,4.884 20.000 C 4.990 20.000,5.000 19.988,5.000 19.858 C 5.000 19.438,5.236 18.736,5.513 18.333 C 5.700 18.061,6.099 17.665,6.371 17.483 C 6.977 17.076,7.848 16.910,8.579 17.061 C 9.357 17.222,10.069 17.703,10.517 18.371 C 10.767 18.743,11.000 19.462,11.000 19.858 L 11.000 20.000 12.000 20.000 L 13.000 20.000 13.000 19.858 C 13.000 19.462,13.233 18.743,13.483 18.371 C 14.171 17.345,15.411 16.820,16.579 17.061 C 17.357 17.222,18.069 17.703,18.517 18.371 C 18.767 18.743,19.000 19.462,19.000 19.858 C 19.000 19.988,19.010 20.000,19.116 20.000 C 19.181 20.000,19.368 19.974,19.533 19.943 C 20.769 19.706,21.706 18.769,21.943 17.533 C 22.027 17.094,22.022 15.957,21.935 15.774 C 21.816 15.525,21.788 15.520,20.332 15.519 C 18.936 15.517,18.571 15.490,18.167 15.356 C 17.866 15.256,17.389 14.946,17.182 14.717 C 16.937 14.446,16.726 14.086,16.610 13.743 L 16.501 13.420 16.501 11.500 L 16.501 9.580 16.612 9.251 C 16.940 8.279,17.736 7.635,18.758 7.516 C 19.120 7.475,19.240 7.410,19.240 7.258 C 19.240 7.132,18.534 5.908,18.329 5.678 C 18.122 5.445,17.820 5.242,17.500 5.119 C 17.289 5.038,17.177 5.025,16.560 5.014 C 16.021 5.004,15.817 5.015,15.673 5.061 M18.673 9.063 C 18.553 9.100,18.420 9.186,18.304 9.303 C 18.006 9.600,18.000 9.644,18.000 11.500 C 18.000 13.317,18.010 13.397,18.272 13.667 C 18.581 13.985,18.537 13.979,20.370 13.992 L 22.000 14.003 21.999 13.172 C 21.999 11.940,22.040 12.061,20.951 10.160 L 20.297 9.020 19.579 9.012 C 19.045 9.007,18.812 9.020,18.673 9.063 M7.620 18.039 C 6.906 18.197,6.359 18.674,6.110 19.356 C 5.993 19.675,5.994 20.327,6.112 20.650 C 6.323 21.228,6.774 21.678,7.356 21.890 C 7.529 21.953,7.676 21.972,8.000 21.972 C 8.324 21.972,8.471 21.953,8.644 21.890 C 9.226 21.678,9.677 21.228,9.888 20.650 C 9.954 20.471,9.972 20.327,9.972 20.000 C 9.972 19.673,9.954 19.529,9.888 19.350 C 9.677 18.770,9.216 18.312,8.644 18.114 C 8.389 18.025,7.858 17.986,7.620 18.039 M15.620 18.039 C 14.906 18.197,14.359 18.674,14.110 19.356 C 13.993 19.675,13.994 20.327,14.112 20.650 C 14.323 21.228,14.774 21.678,15.356 21.890 C 15.529 21.953,15.676 21.972,16.000 21.972 C 16.324 21.972,16.471 21.953,16.644 21.890 C 17.226 21.678,17.677 21.228,17.888 20.650 C 17.954 20.471,17.972 20.327,17.972 20.000 C 17.972 19.673,17.954 19.529,17.888 19.350 C 17.677 18.770,17.216 18.312,16.644 18.114 C 16.389 18.025,15.858 17.986,15.620 18.039 " fill="#292D32" stroke="none" fill-rule="evenodd"></path></svg>