<svg width="24" height="24" viewBox="0 0 24 24" fill="none" xmlns="http://www.w3.org/2000/svg"><path d="M5.140 2.044 C 4.640 2.117,4.040 2.354,3.600 2.653 C 3.334 2.833,2.896 3.266,2.697 3.543 C 2.469 3.861,2.223 4.381,2.111 4.780 C 2.022 5.098,2.022 5.117,2.009 8.634 C 1.995 12.595,1.986 12.452,2.271 12.746 C 2.355 12.832,2.495 12.938,2.582 12.982 C 2.736 13.058,2.862 13.060,7.497 13.071 C 10.611 13.078,12.331 13.067,12.476 13.040 C 13.213 12.904,13.828 12.290,13.961 11.557 C 13.987 11.413,13.998 9.795,13.991 6.997 L 13.980 2.660 13.894 2.500 C 13.794 2.315,13.677 2.200,13.480 2.095 C 13.346 2.023,13.163 2.020,9.360 2.015 C 7.171 2.011,5.272 2.025,5.140 2.044 M15.659 5.061 C 15.427 5.147,15.221 5.331,15.114 5.550 L 15.020 5.740 14.999 8.860 C 14.979 11.947,14.978 11.983,14.891 12.240 C 14.672 12.883,14.198 13.439,13.630 13.719 C 13.036 14.012,13.310 13.999,7.797 13.999 C 2.242 14.000,2.618 13.980,2.299 14.299 C 2.016 14.582,2.000 14.677,2.000 16.069 C 2.000 17.397,2.028 17.645,2.234 18.151 C 2.521 18.857,3.143 19.479,3.849 19.766 C 4.145 19.887,4.634 20.000,4.858 20.000 C 4.988 20.000,5.000 19.990,5.000 19.884 C 5.000 19.570,5.132 19.083,5.327 18.682 C 5.505 18.315,5.575 18.218,5.896 17.896 C 6.218 17.575,6.315 17.505,6.682 17.327 C 7.129 17.110,7.573 17.000,8.000 17.000 C 8.427 17.000,8.871 17.110,9.318 17.327 C 9.685 17.505,9.782 17.575,10.104 17.896 C 10.425 18.218,10.495 18.315,10.673 18.682 C 10.868 19.083,11.000 19.570,11.000 19.884 L 11.000 20.000 12.000 20.000 L 13.000 20.000 13.000 19.884 C 13.000 19.570,13.132 19.083,13.327 18.682 C 13.505 18.315,13.575 18.218,13.896 17.896 C 14.218 17.575,14.315 17.505,14.682 17.327 C 15.579 16.892,16.421 16.892,17.318 17.327 C 17.685 17.505,17.782 17.575,18.104 17.896 C 18.425 18.218,18.495 18.315,18.673 18.682 C 18.868 19.083,19.000 19.570,19.000 19.884 C 19.000 19.990,19.012 20.000,19.142 20.000 C 19.220 20.000,19.417 19.972,19.581 19.938 C 20.785 19.690,21.690 18.785,21.938 17.581 C 22.021 17.180,22.025 15.976,21.943 15.781 C 21.839 15.532,21.819 15.529,20.139 15.510 C 18.865 15.496,18.581 15.482,18.380 15.424 C 17.468 15.165,16.788 14.472,16.580 13.590 C 16.493 13.222,16.494 9.776,16.581 9.408 C 16.700 8.902,17.034 8.372,17.427 8.063 C 17.839 7.740,18.408 7.522,18.845 7.521 C 19.067 7.520,19.240 7.404,19.240 7.255 C 19.240 7.120,18.542 5.915,18.320 5.667 C 18.110 5.432,17.835 5.249,17.500 5.119 C 17.287 5.037,17.180 5.025,16.540 5.014 C 15.978 5.005,15.785 5.015,15.659 5.061 M8.964 5.744 C 9.103 5.813,9.312 6.055,9.349 6.191 C 9.366 6.251,9.380 6.705,9.380 7.200 C 9.380 8.392,9.428 8.305,8.440 8.898 C 7.631 9.384,7.596 9.400,7.380 9.400 C 6.931 9.400,6.615 9.053,6.648 8.597 C 6.672 8.269,6.785 8.142,7.370 7.790 L 7.860 7.495 7.880 6.838 C 7.902 6.109,7.932 6.007,8.173 5.823 C 8.400 5.650,8.714 5.618,8.964 5.744 M18.673 9.063 C 18.553 9.100,18.420 9.186,18.304 9.303 C 18.006 9.600,18.000 9.644,18.000 11.500 C 18.000 13.317,18.010 13.397,18.272 13.667 C 18.581 13.985,18.537 13.979,20.370 13.992 L 22.000 14.003 21.999 13.172 C 21.999 11.940,22.040 12.061,20.951 10.160 L 20.297 9.020 19.579 9.012 C 19.045 9.007,18.812 9.020,18.673 9.063 M7.620 18.039 C 6.906 18.197,6.359 18.674,6.110 19.356 C 5.993 19.675,5.994 20.327,6.112 20.650 C 6.323 21.228,6.774 21.678,7.356 21.890 C 7.529 21.953,7.676 21.972,8.000 21.972 C 8.324 21.972,8.471 21.953,8.644 21.890 C 9.226 21.678,9.677 21.228,9.888 20.650 C 9.954 20.471,9.972 20.327,9.972 20.000 C 9.972 19.673,9.954 19.529,9.888 19.350 C 9.677 18.770,9.216 18.312,8.644 18.114 C 8.389 18.025,7.858 17.986,7.620 18.039 M15.620 18.039 C 14.906 18.197,14.359 18.674,14.110 19.356 C 13.993 19.675,13.994 20.327,14.112 20.650 C 14.323 21.228,14.774 21.678,15.356 21.890 C 15.529 21.953,15.676 21.972,16.000 21.972 C 16.324 21.972,16.471 21.953,16.644 21.890 C 17.226 21.678,17.677 21.228,17.888 20.650 C 17.954 20.471,17.972 20.327,17.972 20.000 C 17.972 19.673,17.954 19.529,17.888 19.350 C 17.677 18.770,17.216 18.312,16.644 18.114 C 16.389 18.025,15.858 17.986,15.620 18.039 " fill="#292D32" stroke="none" fill-rule="evenodd"></path></svg>