<svg width="24" height="24" viewBox="0 0 24 24" fill="none" xmlns="http://www.w3.org/2000/svg"><path d="M6.960 2.046 C 6.236 2.116,5.358 2.357,4.796 2.641 C 4.426 2.828,3.928 3.183,3.624 3.475 C 2.737 4.332,2.251 5.370,2.062 6.812 C 1.970 7.515,1.969 16.481,2.061 17.188 C 2.239 18.550,2.681 19.544,3.476 20.372 C 4.162 21.084,4.935 21.524,5.956 21.780 C 6.817 21.997,6.896 22.000,11.993 22.000 C 14.960 22.000,16.828 21.985,17.041 21.959 C 19.985 21.603,21.695 19.840,21.962 16.885 C 21.990 16.579,21.999 14.787,21.989 11.660 C 21.974 7.001,21.972 6.891,21.889 6.456 C 21.642 5.171,21.165 4.235,20.369 3.478 C 19.583 2.729,18.652 2.295,17.359 2.076 C 16.995 2.014,7.572 1.987,6.960 2.046 M13.031 6.359 C 13.635 6.428,14.045 6.697,14.256 7.160 C 14.311 7.281,14.389 7.578,14.429 7.820 L 14.502 8.260 14.761 8.289 C 14.903 8.305,15.463 8.353,16.004 8.395 C 17.025 8.474,17.132 8.498,17.307 8.686 C 17.502 8.895,17.540 9.260,17.390 9.480 C 17.190 9.774,16.958 9.854,16.463 9.799 C 15.045 9.643,12.625 9.543,11.000 9.573 C 9.686 9.597,9.249 9.624,7.933 9.759 C 7.023 9.852,6.875 9.826,6.652 9.533 C 6.559 9.411,6.541 9.349,6.541 9.141 C 6.540 8.932,6.557 8.872,6.652 8.747 C 6.714 8.666,6.818 8.572,6.883 8.538 C 7.002 8.477,8.077 8.353,9.040 8.290 L 9.500 8.260 9.572 7.847 C 9.611 7.619,9.679 7.338,9.723 7.221 C 9.895 6.762,10.345 6.435,10.900 6.365 C 11.287 6.317,12.630 6.313,13.031 6.359 M15.435 10.862 C 15.713 10.945,15.935 11.166,16.017 11.443 C 16.075 11.638,16.068 11.784,15.898 13.955 C 15.797 15.246,15.691 16.365,15.657 16.500 C 15.486 17.176,15.062 17.513,14.215 17.641 C 14.028 17.670,13.203 17.680,11.815 17.670 C 9.949 17.658,9.672 17.648,9.460 17.586 C 8.806 17.396,8.491 17.087,8.340 16.490 C 8.309 16.363,8.201 15.223,8.102 13.956 C 7.931 11.781,7.924 11.641,7.983 11.444 C 8.062 11.176,8.288 10.945,8.548 10.864 C 8.844 10.774,15.129 10.771,15.435 10.862 " fill="#292D32" stroke="none" fill-rule="evenodd"></path></svg>