<svg width="24" height="24" viewBox="0 0 24 24" fill="none" xmlns="http://www.w3.org/2000/svg"><path d="M6.960 2.046 C 6.236 2.116,5.358 2.357,4.796 2.641 C 4.426 2.828,3.928 3.183,3.624 3.475 C 2.737 4.332,2.251 5.370,2.062 6.812 C 1.970 7.515,1.969 16.481,2.061 17.188 C 2.239 18.550,2.681 19.544,3.476 20.372 C 4.162 21.084,4.935 21.524,5.956 21.780 C 6.817 21.997,6.896 22.000,11.993 22.000 C 14.960 22.000,16.828 21.985,17.041 21.959 C 19.985 21.603,21.695 19.840,21.962 16.885 C 21.990 16.579,21.999 14.787,21.989 11.660 C 21.974 7.001,21.972 6.891,21.889 6.456 C 21.642 5.171,21.165 4.235,20.369 3.478 C 19.583 2.729,18.652 2.295,17.359 2.076 C 16.995 2.014,7.572 1.987,6.960 2.046 M8.936 7.475 C 9.115 7.576,9.284 7.811,9.308 7.993 C 9.347 8.284,9.294 8.422,9.038 8.696 C 8.907 8.836,8.800 8.961,8.800 8.975 C 8.800 8.989,10.048 9.000,11.573 9.000 C 14.427 9.000,14.582 9.007,15.080 9.168 C 17.073 9.809,18.195 11.958,17.571 13.940 C 17.124 15.361,15.905 16.391,14.425 16.597 C 14.004 16.655,8.998 16.656,8.787 16.597 C 8.572 16.537,8.344 16.296,8.286 16.066 C 8.186 15.670,8.423 15.264,8.811 15.166 C 8.941 15.134,9.757 15.120,11.596 15.120 C 13.316 15.120,14.268 15.105,14.408 15.076 C 14.525 15.052,14.771 14.961,14.955 14.873 C 15.738 14.499,16.240 13.689,16.240 12.800 C 16.240 12.413,16.178 12.152,15.993 11.765 C 15.695 11.141,15.049 10.643,14.383 10.523 C 14.230 10.495,13.204 10.480,11.504 10.480 L 8.863 10.480 9.030 10.650 C 9.220 10.845,9.320 11.054,9.320 11.260 C 9.320 11.421,9.231 11.660,9.128 11.773 C 8.937 11.985,8.523 12.063,8.268 11.936 C 8.091 11.848,6.452 10.214,6.357 10.032 C 6.266 9.857,6.257 9.571,6.336 9.389 C 6.421 9.192,8.192 7.452,8.340 7.419 C 8.406 7.405,8.478 7.387,8.500 7.380 C 8.574 7.355,8.819 7.408,8.936 7.475 " fill="#292D32" stroke="none" fill-rule="evenodd"></path></svg>