<svg width="24" height="24" viewBox="0 0 24 24" fill="none" xmlns="http://www.w3.org/2000/svg"><path d="M5.720 6.739 C 4.604 6.924,3.595 7.442,2.798 8.238 C 2.049 8.988,1.563 9.893,1.331 10.974 C 1.231 11.438,1.233 12.531,1.335 13.000 C 1.798 15.125,3.381 16.714,5.491 17.167 C 6.021 17.281,7.046 17.290,7.540 17.185 C 8.730 16.932,9.643 16.444,10.461 15.623 C 10.703 15.379,10.993 15.045,11.105 14.880 C 11.217 14.715,11.925 13.554,12.678 12.300 C 13.432 11.046,14.116 9.930,14.198 9.819 C 14.734 9.104,15.575 8.550,16.491 8.311 C 16.979 8.183,17.923 8.184,18.400 8.312 C 19.725 8.669,20.764 9.704,21.129 11.032 C 21.199 11.288,21.214 11.452,21.214 12.000 C 21.214 12.606,21.205 12.690,21.105 13.017 C 20.714 14.298,19.814 15.223,18.579 15.612 C 17.668 15.899,16.745 15.839,15.886 15.438 C 15.409 15.215,15.120 14.993,14.620 14.468 C 14.250 14.080,14.152 13.999,14.004 13.960 C 13.379 13.795,12.861 14.463,13.170 15.034 C 13.418 15.492,14.167 16.200,14.799 16.575 C 16.609 17.649,18.919 17.517,20.631 16.243 C 21.014 15.958,21.598 15.349,21.850 14.971 C 22.246 14.379,22.547 13.647,22.685 12.940 C 22.757 12.572,22.757 11.468,22.685 11.100 C 22.261 8.931,20.658 7.294,18.509 6.834 C 17.971 6.718,16.997 6.710,16.461 6.815 C 15.699 6.965,14.964 7.269,14.322 7.700 C 13.949 7.949,13.314 8.554,13.025 8.933 C 12.905 9.091,12.168 10.286,11.386 11.588 C 10.605 12.891,9.895 14.052,9.808 14.168 C 9.429 14.681,8.750 15.213,8.159 15.463 C 7.567 15.712,7.212 15.780,6.520 15.777 C 5.967 15.773,5.861 15.761,5.540 15.665 C 5.342 15.605,5.069 15.505,4.933 15.442 C 3.945 14.983,3.167 14.043,2.872 12.953 C 2.750 12.500,2.742 11.571,2.856 11.120 C 3.144 9.986,3.849 9.113,4.892 8.601 C 5.339 8.381,5.593 8.305,6.115 8.236 C 7.340 8.073,8.621 8.593,9.443 9.587 C 9.578 9.750,9.756 9.917,9.842 9.961 C 10.293 10.191,10.853 9.890,10.909 9.385 C 10.938 9.134,10.865 8.955,10.595 8.620 C 9.850 7.694,8.780 7.037,7.600 6.781 C 7.180 6.690,6.154 6.667,5.720 6.739 M6.030 10.062 C 5.410 10.213,4.892 10.666,4.633 11.284 C 4.556 11.469,4.543 11.571,4.543 12.000 C 4.543 12.429,4.556 12.531,4.633 12.716 C 4.919 13.400,5.492 13.855,6.208 13.966 C 7.122 14.108,8.038 13.571,8.369 12.700 C 8.446 12.497,8.460 12.386,8.458 11.980 C 8.457 11.576,8.442 11.466,8.366 11.284 C 7.973 10.340,6.995 9.828,6.030 10.062 M17.030 10.062 C 16.410 10.213,15.892 10.666,15.633 11.284 C 15.556 11.469,15.543 11.571,15.543 12.000 C 15.543 12.429,15.556 12.531,15.633 12.716 C 15.919 13.400,16.492 13.855,17.208 13.966 C 18.122 14.108,19.038 13.571,19.369 12.700 C 19.446 12.497,19.460 12.386,19.458 11.980 C 19.457 11.576,19.442 11.466,19.366 11.284 C 18.973 10.340,17.995 9.828,17.030 10.062 " fill="#292D32" stroke="none" fill-rule="evenodd"></path></svg>