<svg width="24" height="24" viewBox="0 0 24 24" fill="none" xmlns="http://www.w3.org/2000/svg"><path d="M11.220 2.025 C 7.920 2.300,6.251 3.752,5.819 6.723 C 5.776 7.016,5.743 7.603,5.726 8.358 L 5.700 9.537 5.380 9.586 C 4.546 9.716,3.723 10.064,3.271 10.478 C 2.501 11.184,2.158 12.112,2.038 13.814 C 1.972 14.742,2.009 17.741,2.094 18.325 C 2.394 20.413,3.211 21.384,5.000 21.782 C 5.891 21.980,5.881 21.980,12.000 21.980 C 18.119 21.980,18.109 21.980,19.000 21.782 C 20.838 21.374,21.681 20.322,21.927 18.129 C 22.000 17.479,22.001 13.867,21.928 13.280 C 21.660 11.126,20.848 10.093,19.094 9.676 C 18.194 9.463,18.307 9.466,12.505 9.451 L 7.111 9.436 7.132 8.288 C 7.161 6.720,7.264 6.136,7.648 5.360 C 7.827 4.999,7.907 4.889,8.218 4.576 C 8.590 4.202,8.869 4.016,9.366 3.814 C 10.655 3.289,13.083 3.256,14.544 3.745 C 16.039 4.244,16.785 5.270,16.863 6.934 C 16.893 7.556,16.907 7.623,17.051 7.787 C 17.336 8.112,17.760 8.129,18.071 7.829 C 18.255 7.651,18.294 7.465,18.261 6.920 C 18.139 4.888,17.352 3.559,15.797 2.760 C 15.150 2.428,14.338 2.197,13.400 2.079 C 13.040 2.034,11.557 1.997,11.220 2.025 M12.660 12.784 C 13.668 12.995,14.551 13.795,14.864 14.780 C 15.122 15.594,15.034 16.479,14.619 17.227 C 14.418 17.589,13.869 18.138,13.507 18.339 C 12.568 18.860,11.385 18.857,10.480 18.331 C 10.146 18.137,9.583 17.574,9.389 17.240 C 8.862 16.333,8.862 15.107,9.389 14.200 C 9.583 13.866,10.146 13.303,10.480 13.109 C 11.126 12.734,11.883 12.621,12.660 12.784 M11.711 14.121 C 10.871 14.263,10.239 15.144,10.391 15.962 C 10.559 16.868,11.400 17.486,12.250 17.328 C 12.966 17.194,13.475 16.683,13.609 15.962 C 13.764 15.127,13.131 14.262,12.260 14.120 C 11.993 14.076,11.979 14.076,11.711 14.121 " fill="#292D32" stroke="none" fill-rule="evenodd"></path></svg>