<svg width="24" height="24" viewBox="0 0 24 24" fill="none" xmlns="http://www.w3.org/2000/svg"><path d="M6.960 2.046 C 6.236 2.116,5.358 2.357,4.796 2.641 C 3.495 3.298,2.577 4.490,2.207 6.000 C 2.004 6.828,2.000 6.946,2.000 11.964 C 2.000 14.998,2.015 16.780,2.043 17.032 C 2.258 19.002,3.133 20.429,4.640 21.268 C 5.199 21.580,6.036 21.838,6.812 21.939 C 7.516 22.030,16.484 22.030,17.188 21.939 C 18.499 21.769,19.563 21.296,20.369 20.527 C 21.045 19.880,21.482 19.131,21.745 18.164 C 21.983 17.292,21.972 17.558,21.989 12.260 C 22.000 8.831,21.991 7.261,21.960 6.980 C 21.787 5.435,21.280 4.332,20.332 3.440 C 19.574 2.726,18.626 2.291,17.359 2.076 C 16.995 2.014,7.572 1.987,6.960 2.046 M17.100 3.561 C 17.603 3.633,18.053 3.764,18.460 3.957 C 19.493 4.447,20.102 5.272,20.387 6.568 C 20.456 6.880,20.460 7.211,20.460 12.000 C 20.460 16.789,20.456 17.120,20.387 17.432 C 20.092 18.774,19.420 19.638,18.307 20.108 C 18.135 20.181,17.986 20.240,17.978 20.240 C 17.969 20.240,17.918 20.154,17.865 20.050 C 17.565 19.459,16.812 18.662,16.102 18.185 C 13.616 16.514,9.996 16.593,7.634 18.371 C 7.057 18.805,6.384 19.558,6.136 20.047 C 6.022 20.273,6.039 20.272,5.575 20.060 C 5.165 19.873,4.860 19.653,4.535 19.310 C 3.998 18.744,3.691 18.050,3.563 17.107 C 3.506 16.693,3.505 7.296,3.561 6.900 C 3.718 5.801,4.166 4.931,4.865 4.368 C 5.347 3.980,6.107 3.674,6.861 3.565 C 7.203 3.515,16.751 3.512,17.100 3.561 M11.449 8.043 C 10.455 8.197,9.478 8.846,8.967 9.694 C 8.607 10.289,8.440 10.888,8.440 11.580 C 8.440 13.152,9.392 14.474,10.891 14.984 C 11.461 15.178,12.288 15.209,12.880 15.059 C 13.259 14.963,13.899 14.641,14.236 14.378 C 14.777 13.955,15.245 13.248,15.442 12.560 C 15.565 12.130,15.593 11.329,15.502 10.877 C 15.231 9.533,14.213 8.458,12.891 8.117 C 12.527 8.023,11.814 7.987,11.449 8.043 " fill="#292D32" stroke="none" fill-rule="evenodd"></path></svg>