<svg width="24" height="24" viewBox="0 0 24 24" fill="none" xmlns="http://www.w3.org/2000/svg"><path d="M11.340 2.046 C 10.849 2.108,10.317 2.273,9.820 2.517 C 8.374 3.226,7.390 4.510,7.075 6.100 C 7.002 6.468,7.002 7.532,7.075 7.900 C 7.482 9.953,9.047 11.518,11.100 11.925 C 11.468 11.998,12.532 11.998,12.900 11.925 C 14.723 11.564,16.191 10.273,16.753 8.539 C 16.940 7.961,16.980 7.680,16.978 6.960 C 16.976 6.381,16.963 6.247,16.869 5.869 C 16.678 5.104,16.374 4.473,15.926 3.912 C 14.822 2.527,13.090 1.823,11.340 2.046 M10.720 14.580 C 7.527 14.967,4.823 16.702,3.607 19.144 C 3.270 19.821,3.077 20.440,2.979 21.160 C 2.903 21.713,2.904 22.093,2.981 22.241 C 3.114 22.499,2.410 22.480,12.000 22.480 C 21.590 22.480,20.886 22.499,21.019 22.241 C 21.096 22.093,21.097 21.713,21.021 21.160 C 20.824 19.709,20.146 18.387,19.021 17.257 C 17.553 15.781,15.540 14.849,13.240 14.579 C 12.634 14.507,11.310 14.508,10.720 14.580 " fill="#292D32" stroke="none" fill-rule="evenodd"></path></svg>