<svg width="24" height="24" viewBox="0 0 24 24" fill="none" xmlns="http://www.w3.org/2000/svg"><path d="M11.340 2.046 C 10.886 2.104,10.328 2.270,9.896 2.476 C 8.407 3.188,7.395 4.488,7.075 6.100 C 7.002 6.468,7.002 7.532,7.075 7.900 C 7.468 9.879,8.896 11.374,10.869 11.869 C 11.502 12.028,12.498 12.028,13.131 11.869 C 14.120 11.621,14.913 11.169,15.584 10.473 C 16.241 9.790,16.631 9.079,16.869 8.131 C 16.966 7.744,16.977 7.628,16.977 7.000 C 16.977 6.372,16.966 6.256,16.869 5.869 C 16.738 5.345,16.534 4.841,16.292 4.440 C 15.258 2.731,13.320 1.793,11.340 2.046 M13.713 4.480 C 13.808 4.523,13.999 4.668,14.138 4.801 C 14.605 5.249,14.713 5.709,14.457 6.152 C 14.393 6.262,13.744 6.946,12.884 7.809 C 11.767 8.929,11.377 9.296,11.240 9.356 C 10.980 9.470,9.890 9.617,9.737 9.559 C 9.574 9.497,9.449 9.370,9.420 9.238 C 9.384 9.076,9.557 7.929,9.646 7.737 C 9.697 7.628,10.208 7.091,11.212 6.090 C 12.443 4.862,12.740 4.587,12.921 4.503 C 13.189 4.378,13.470 4.370,13.713 4.480 M11.080 14.041 C 9.714 14.171,8.527 14.497,7.380 15.058 C 4.707 16.364,2.971 18.773,2.945 21.209 L 2.940 21.718 3.071 21.849 L 3.202 21.980 12.000 21.980 L 20.798 21.980 20.929 21.849 L 21.060 21.718 21.055 21.209 C 21.036 19.425,20.067 17.579,18.433 16.214 C 17.122 15.120,15.293 14.348,13.420 14.099 C 12.840 14.022,11.603 13.992,11.080 14.041 " fill="#292D32" stroke="none" fill-rule="evenodd"></path></svg>