<svg width="24" height="24" viewBox="0 0 24 24" fill="none" xmlns="http://www.w3.org/2000/svg"><path d="M11.520 2.022 C 11.465 2.032,11.294 2.060,11.140 2.084 C 10.986 2.109,10.689 2.183,10.480 2.249 C 8.628 2.836,7.282 4.471,7.044 6.420 C 6.984 6.909,6.989 7.213,7.062 7.715 C 7.337 9.584,8.688 11.179,10.483 11.753 C 11.749 12.157,13.108 12.043,14.282 11.434 C 16.705 10.175,17.684 7.200,16.470 4.780 C 16.216 4.274,15.937 3.890,15.524 3.476 C 14.819 2.772,14.025 2.337,13.040 2.117 C 12.715 2.044,11.744 1.984,11.520 2.022 M14.360 4.922 C 14.835 5.163,15.018 5.733,14.770 6.197 C 14.683 6.358,14.358 6.680,13.240 7.707 C 12.406 8.474,11.754 9.043,11.660 9.085 C 11.450 9.181,11.107 9.180,10.900 9.083 C 10.683 8.982,9.264 7.552,9.181 7.351 C 8.863 6.581,9.714 5.775,10.454 6.145 C 10.523 6.180,10.743 6.369,10.942 6.566 L 11.305 6.923 12.316 5.992 C 12.872 5.479,13.400 5.016,13.489 4.963 C 13.774 4.791,14.075 4.777,14.360 4.922 M11.300 14.024 C 10.553 14.099,10.275 14.138,9.840 14.224 C 8.575 14.476,7.395 14.954,6.360 15.632 C 5.813 15.991,5.507 16.239,5.026 16.712 C 3.735 17.983,3.009 19.521,2.933 21.144 L 2.908 21.669 3.051 21.824 L 3.194 21.980 12.000 21.980 L 20.806 21.980 20.949 21.824 L 21.092 21.669 21.067 21.144 C 20.991 19.521,20.265 17.983,18.974 16.712 C 18.493 16.239,18.187 15.991,17.640 15.632 C 16.405 14.823,14.993 14.310,13.418 14.099 C 12.958 14.038,11.630 13.990,11.300 14.024 " fill="#292D32" stroke="none" fill-rule="evenodd"></path></svg>