<svg width="24" height="24" viewBox="0 0 24 24" fill="none" xmlns="http://www.w3.org/2000/svg"><path d="M11.280 2.025 C 9.378 2.266,7.807 3.540,7.242 5.300 C 7.059 5.872,7.023 6.126,7.027 6.820 C 7.030 7.400,7.042 7.505,7.155 7.939 C 7.509 9.304,8.448 10.455,9.700 11.060 C 11.155 11.762,12.933 11.661,14.310 10.797 C 14.396 10.743,14.423 10.764,14.950 11.286 C 15.252 11.587,15.554 11.858,15.620 11.891 C 16.060 12.106,16.609 11.931,16.865 11.495 C 17.005 11.256,17.021 10.870,16.901 10.620 C 16.859 10.532,16.587 10.217,16.296 9.920 L 15.768 9.380 15.929 9.100 C 16.670 7.807,16.738 6.116,16.103 4.776 C 15.441 3.378,14.226 2.416,12.720 2.098 C 12.422 2.035,11.548 1.991,11.280 2.025 M11.300 14.024 C 10.553 14.099,10.275 14.138,9.840 14.224 C 8.575 14.476,7.395 14.954,6.360 15.632 C 5.813 15.991,5.507 16.239,5.026 16.712 C 3.735 17.983,3.009 19.521,2.933 21.144 L 2.908 21.669 3.051 21.824 L 3.194 21.980 12.000 21.980 L 20.806 21.980 20.949 21.824 L 21.092 21.669 21.067 21.144 C 20.991 19.521,20.265 17.983,18.974 16.712 C 18.493 16.239,18.187 15.991,17.640 15.632 C 16.405 14.823,14.993 14.310,13.418 14.099 C 12.958 14.038,11.630 13.990,11.300 14.024 " fill="#292D32" stroke="none" fill-rule="evenodd"></path></svg>