<svg width="24" height="24" viewBox="0 0 24 24" fill="none" xmlns="http://www.w3.org/2000/svg"><path d="M18.540 1.024 C 17.400 1.193,16.467 1.726,15.800 2.590 L 15.700 2.719 15.337 2.582 C 14.921 2.423,14.185 2.231,13.660 2.144 C 9.937 1.523,6.181 3.050,3.946 6.092 C 1.483 9.445,1.361 14.001,3.642 17.455 C 4.034 18.048,4.398 18.492,4.984 19.089 C 6.443 20.576,8.387 21.555,10.540 21.887 C 11.216 21.991,12.631 22.011,13.220 21.925 C 15.585 21.579,17.513 20.622,19.091 19.012 C 20.640 17.432,21.566 15.564,21.907 13.332 C 22.009 12.666,21.999 11.266,21.887 10.540 C 21.763 9.744,21.555 8.966,21.303 8.358 C 21.285 8.313,21.368 8.219,21.594 8.030 C 22.411 7.346,22.932 6.274,22.987 5.160 C 23.080 3.286,21.786 1.569,19.940 1.116 C 19.629 1.040,18.801 0.985,18.540 1.024 M19.352 2.869 C 19.642 3.005,19.759 3.294,19.760 3.867 L 19.760 4.233 20.253 4.247 C 20.807 4.262,20.929 4.311,21.122 4.595 C 21.265 4.807,21.261 5.164,21.113 5.388 C 20.941 5.647,20.743 5.720,20.212 5.720 L 19.770 5.720 19.753 6.210 C 19.739 6.638,19.724 6.722,19.639 6.874 C 19.358 7.372,18.642 7.372,18.361 6.874 C 18.276 6.722,18.261 6.638,18.247 6.210 L 18.230 5.720 17.788 5.720 C 17.260 5.720,17.075 5.652,16.894 5.392 C 16.799 5.254,16.780 5.186,16.780 4.980 C 16.780 4.774,16.799 4.706,16.894 4.568 C 17.075 4.307,17.259 4.240,17.793 4.240 L 18.240 4.240 18.240 3.878 C 18.240 3.392,18.297 3.183,18.481 2.999 C 18.716 2.764,19.031 2.717,19.352 2.869 M12.560 3.522 C 13.259 3.571,13.964 3.708,14.619 3.921 L 15.105 4.079 15.050 4.390 C 14.975 4.804,15.008 5.513,15.121 5.960 C 15.438 7.206,16.344 8.230,17.577 8.737 C 18.125 8.962,19.018 9.056,19.609 8.950 L 19.917 8.895 20.017 9.178 C 20.773 11.318,20.630 13.692,19.620 15.742 C 19.255 16.484,18.876 17.036,18.211 17.793 L 18.059 17.965 17.680 17.592 C 16.661 16.590,15.093 15.919,13.200 15.674 C 12.570 15.592,11.200 15.614,10.528 15.716 C 8.748 15.986,7.295 16.633,6.320 17.592 L 5.941 17.965 5.789 17.793 C 5.124 17.036,4.745 16.484,4.380 15.742 C 2.927 12.793,3.303 9.296,5.351 6.703 C 5.661 6.310,6.397 5.585,6.781 5.294 C 7.758 4.552,8.736 4.071,9.850 3.783 C 10.488 3.618,10.843 3.558,11.400 3.520 C 11.631 3.505,11.856 3.490,11.900 3.486 C 11.944 3.483,12.241 3.499,12.560 3.522 M11.660 6.945 C 10.031 7.109,8.717 8.270,8.339 9.880 C 8.229 10.351,8.244 11.114,8.374 11.611 C 8.722 12.944,9.721 13.932,11.100 14.304 C 11.324 14.365,11.513 14.379,12.040 14.377 C 12.639 14.375,12.732 14.365,13.052 14.267 C 15.251 13.593,16.356 11.177,15.400 9.132 C 14.968 8.207,14.287 7.559,13.360 7.193 C 12.883 7.004,12.145 6.896,11.660 6.945 " fill="#292D32" stroke="none" fill-rule="evenodd"></path></svg>