<svg width="24" height="24" viewBox="0 0 24 24" fill="none" xmlns="http://www.w3.org/2000/svg"><path d="M11.400 2.038 C 10.220 2.190,9.218 2.694,8.396 3.548 C 7.644 4.330,7.164 5.352,7.040 6.435 C 6.985 6.917,6.990 7.223,7.062 7.715 C 7.322 9.484,8.578 11.042,10.252 11.671 C 11.303 12.066,12.448 12.095,13.517 11.753 C 15.917 10.986,17.370 8.531,16.898 6.043 C 16.525 4.078,14.925 2.480,12.950 2.100 C 12.554 2.023,11.760 1.992,11.400 2.038 M14.262 6.135 C 14.611 6.297,14.800 6.594,14.800 6.980 C 14.800 7.366,14.611 7.663,14.262 7.825 L 14.060 7.919 12.000 7.919 L 9.940 7.919 9.738 7.825 C 9.389 7.663,9.200 7.366,9.200 6.980 C 9.200 6.594,9.389 6.297,9.738 6.135 L 9.940 6.041 12.000 6.041 L 14.060 6.041 14.262 6.135 M11.300 14.024 C 10.553 14.099,10.275 14.138,9.840 14.224 C 8.575 14.476,7.395 14.954,6.360 15.632 C 5.813 15.991,5.507 16.239,5.026 16.712 C 3.735 17.983,3.009 19.521,2.933 21.144 L 2.908 21.669 3.051 21.824 L 3.194 21.980 12.000 21.980 L 20.806 21.980 20.949 21.824 L 21.092 21.669 21.067 21.144 C 20.991 19.521,20.265 17.983,18.974 16.712 C 18.493 16.239,18.187 15.991,17.640 15.632 C 16.405 14.823,14.993 14.310,13.418 14.099 C 12.958 14.038,11.630 13.990,11.300 14.024 " fill="#292D32" stroke="none" fill-rule="evenodd"></path></svg>