<svg width="24" height="24" viewBox="0 0 24 24" fill="none" xmlns="http://www.w3.org/2000/svg"><path d="M5.580 2.028 C 4.635 2.162,3.745 2.797,3.320 3.640 C 3.259 3.761,3.167 3.986,3.115 4.140 L 3.020 4.420 3.009 10.289 C 2.998 16.650,2.990 16.406,3.213 16.958 C 3.564 17.827,4.219 18.426,5.140 18.720 C 5.377 18.796,5.557 18.815,6.320 18.843 C 7.331 18.879,7.635 18.936,8.107 19.174 C 8.515 19.379,8.718 19.553,9.824 20.646 C 10.737 21.548,10.854 21.651,11.125 21.779 C 11.542 21.977,11.955 22.034,12.365 21.950 C 12.938 21.832,13.032 21.764,14.260 20.578 C 15.430 19.448,15.599 19.308,16.023 19.116 C 16.447 18.923,16.744 18.875,17.700 18.841 C 18.442 18.815,18.624 18.796,18.860 18.721 C 19.859 18.404,20.573 17.685,20.886 16.680 L 20.980 16.380 20.980 10.420 L 20.980 4.460 20.886 4.161 C 20.566 3.141,19.815 2.404,18.780 2.094 C 18.554 2.026,18.174 2.022,12.120 2.017 C 8.589 2.014,5.646 2.019,5.580 2.028 M12.463 5.803 C 12.861 5.875,13.330 6.128,13.641 6.439 C 14.545 7.342,14.545 8.818,13.641 9.721 C 13.342 10.021,12.878 10.276,12.488 10.356 C 11.720 10.514,10.902 10.270,10.361 9.721 C 9.455 8.802,9.453 7.345,10.356 6.441 C 10.649 6.149,11.066 5.911,11.449 5.818 C 11.714 5.754,12.154 5.747,12.463 5.803 M12.715 11.863 C 13.850 12.030,14.868 12.601,15.420 13.380 C 15.634 13.682,15.696 13.873,15.668 14.141 C 15.641 14.406,15.528 14.627,15.328 14.808 C 15.040 15.068,15.151 15.060,12.000 15.060 C 8.849 15.060,8.960 15.068,8.672 14.808 C 8.381 14.546,8.251 14.114,8.360 13.776 C 8.472 13.428,8.939 12.899,9.420 12.573 C 10.359 11.938,11.522 11.687,12.715 11.863 " fill="#292D32" stroke="none" fill-rule="evenodd"></path></svg>