<svg width="24" height="24" viewBox="0 0 24 24" fill="none" xmlns="http://www.w3.org/2000/svg"><path d="M11.404 2.042 C 9.475 2.282,7.838 3.636,7.248 5.481 C 6.861 6.690,6.944 7.990,7.479 9.110 C 7.736 9.648,7.989 10.020,8.376 10.429 C 9.770 11.903,12.001 12.385,13.894 11.621 C 15.233 11.081,16.309 9.912,16.751 8.520 C 16.926 7.967,16.979 7.610,16.976 6.980 C 16.973 5.934,16.728 5.133,16.137 4.228 C 15.561 3.349,14.693 2.666,13.689 2.306 C 13.053 2.077,12.053 1.962,11.404 2.042 M13.793 4.868 C 14.048 5.026,14.210 5.297,14.232 5.603 C 14.257 5.943,14.134 6.169,13.683 6.617 L 13.324 6.975 13.736 7.402 C 14.261 7.945,14.345 8.146,14.233 8.590 C 14.200 8.724,14.130 8.833,13.983 8.983 C 13.726 9.245,13.479 9.319,13.125 9.241 C 12.916 9.194,12.868 9.160,12.449 8.747 L 11.999 8.303 11.609 8.690 C 11.373 8.924,11.149 9.108,11.040 9.157 C 10.590 9.360,10.071 9.165,9.829 8.703 C 9.719 8.493,9.713 8.119,9.816 7.920 C 9.856 7.843,10.061 7.605,10.272 7.391 L 10.657 7.002 10.253 6.591 C 9.827 6.158,9.760 6.037,9.760 5.700 C 9.760 5.419,9.838 5.231,10.035 5.035 C 10.235 4.834,10.419 4.761,10.722 4.760 C 11.011 4.760,11.276 4.918,11.631 5.304 C 11.801 5.488,11.956 5.640,11.976 5.640 C 11.997 5.640,12.204 5.455,12.436 5.228 C 12.698 4.974,12.914 4.798,13.000 4.770 C 13.231 4.693,13.580 4.736,13.793 4.868 M11.300 14.024 C 10.553 14.099,10.275 14.138,9.840 14.224 C 8.575 14.476,7.395 14.954,6.360 15.632 C 5.813 15.991,5.507 16.239,5.026 16.712 C 3.735 17.983,3.009 19.521,2.933 21.144 L 2.908 21.669 3.051 21.824 L 3.194 21.980 12.000 21.980 L 20.806 21.980 20.949 21.824 L 21.092 21.669 21.067 21.144 C 20.991 19.521,20.265 17.983,18.974 16.712 C 18.493 16.239,18.187 15.991,17.640 15.632 C 16.405 14.823,14.993 14.310,13.418 14.099 C 12.958 14.038,11.630 13.990,11.300 14.024 " fill="#292D32" stroke="none" fill-rule="evenodd"></path></svg>