<svg width="24" height="24" viewBox="0 0 24 24" fill="none" xmlns="http://www.w3.org/2000/svg"><path d="M11.400 2.038 C 10.220 2.190,9.218 2.694,8.396 3.548 C 7.644 4.330,7.164 5.352,7.040 6.435 C 6.985 6.917,6.990 7.223,7.062 7.715 C 7.322 9.484,8.578 11.042,10.252 11.671 C 11.303 12.066,12.448 12.095,13.517 11.753 C 15.917 10.986,17.370 8.531,16.898 6.043 C 16.525 4.078,14.925 2.480,12.950 2.100 C 12.554 2.023,11.760 1.992,11.400 2.038 M12.429 4.314 C 12.822 4.515,12.960 4.840,12.960 5.567 L 12.960 6.040 13.510 6.040 C 14.003 6.041,14.081 6.051,14.262 6.135 C 14.611 6.297,14.800 6.594,14.800 6.980 C 14.800 7.366,14.611 7.663,14.262 7.825 C 14.081 7.909,14.003 7.919,13.510 7.920 L 12.960 7.920 12.960 8.433 C 12.960 9.206,12.832 9.516,12.424 9.731 C 12.197 9.850,11.803 9.850,11.576 9.731 C 11.168 9.516,11.040 9.206,11.040 8.433 L 11.040 7.920 10.490 7.920 C 9.997 7.919,9.919 7.909,9.738 7.825 C 9.389 7.663,9.200 7.366,9.200 6.980 C 9.200 6.594,9.389 6.297,9.738 6.135 C 9.919 6.051,9.997 6.041,10.490 6.040 L 11.040 6.040 11.040 5.567 C 11.040 5.015,11.105 4.746,11.288 4.537 C 11.575 4.210,12.044 4.118,12.429 4.314 M11.300 15.024 C 10.553 15.099,10.275 15.138,9.840 15.224 C 8.575 15.476,7.395 15.954,6.360 16.632 C 5.813 16.991,5.507 17.239,5.026 17.712 C 3.735 18.983,3.009 20.521,2.933 22.144 L 2.908 22.669 3.051 22.824 L 3.194 22.980 12.000 22.980 L 20.806 22.980 20.949 22.824 L 21.092 22.669 21.067 22.144 C 20.991 20.521,20.265 18.983,18.974 17.712 C 18.493 17.239,18.187 16.991,17.640 16.632 C 16.405 15.823,14.993 15.310,13.418 15.099 C 12.958 15.038,11.630 14.990,11.300 15.024 " fill="#292D32" stroke="none" fill-rule="evenodd"></path></svg>