<svg width="24" height="24" viewBox="0 0 24 24" fill="none" xmlns="http://www.w3.org/2000/svg"><path d="M11.560 2.044 C 11.165 2.120,10.855 2.329,9.960 3.120 C 8.686 4.247,8.605 4.278,6.978 4.279 C 6.186 4.280,5.882 4.294,5.708 4.340 C 5.071 4.506,4.585 4.952,4.354 5.583 C 4.274 5.800,4.265 5.925,4.241 7.060 C 4.207 8.736,4.255 8.613,3.084 9.992 C 2.324 10.888,2.215 11.043,2.095 11.400 C 1.995 11.701,1.995 12.299,2.095 12.600 C 2.215 12.958,2.330 13.122,3.068 13.988 C 3.877 14.936,3.978 15.077,4.115 15.437 C 4.212 15.690,4.216 15.745,4.241 16.940 C 4.265 18.075,4.274 18.200,4.354 18.417 C 4.580 19.036,5.040 19.466,5.677 19.656 C 5.852 19.708,6.096 19.720,6.937 19.721 C 8.592 19.722,8.628 19.735,9.936 20.859 C 10.436 21.288,10.927 21.688,11.028 21.747 C 11.432 21.983,12.028 22.061,12.498 21.939 C 12.896 21.835,13.148 21.665,14.040 20.896 C 14.960 20.104,15.103 20.002,15.515 19.846 C 15.770 19.750,15.825 19.745,17.020 19.721 C 18.426 19.693,18.495 19.679,18.951 19.344 C 19.236 19.134,19.404 18.927,19.559 18.594 C 19.723 18.244,19.758 17.932,19.760 16.820 C 19.761 16.292,19.781 15.779,19.803 15.680 C 19.900 15.259,20.095 14.967,20.897 14.040 C 21.708 13.104,21.870 12.860,21.956 12.448 C 22.052 11.988,21.988 11.490,21.780 11.080 C 21.725 10.971,21.327 10.472,20.896 9.971 C 20.034 8.968,19.840 8.659,19.762 8.160 C 19.739 8.017,19.720 7.447,19.720 6.894 C 19.720 6.008,19.711 5.858,19.641 5.634 C 19.449 5.010,18.923 4.504,18.299 4.342 C 18.116 4.294,17.830 4.280,17.020 4.280 C 15.427 4.280,15.365 4.256,14.015 3.092 C 13.046 2.258,12.840 2.124,12.399 2.040 C 12.153 1.993,11.813 1.995,11.560 2.044 M15.952 8.916 C 16.131 9.008,16.260 9.141,16.317 9.293 C 16.372 9.436,16.372 9.722,16.318 9.867 C 16.255 10.036,11.298 14.990,11.100 15.083 C 10.904 15.175,10.725 15.180,10.529 15.099 C 10.325 15.014,7.821 12.522,7.717 12.300 C 7.502 11.843,7.785 11.324,8.286 11.256 C 8.640 11.207,8.697 11.248,9.791 12.334 L 10.801 13.338 12.991 11.151 C 14.378 9.765,15.231 8.941,15.320 8.903 C 15.513 8.820,15.775 8.825,15.952 8.916 " fill="#292D32" stroke="none" fill-rule="evenodd"></path></svg>