<svg width="24" height="24" viewBox="0 0 24 24" fill="none" xmlns="http://www.w3.org/2000/svg"><path d="M5.740 3.282 C 4.026 3.398,2.935 3.954,2.345 5.009 C 2.169 5.324,1.949 5.983,1.854 6.480 C 1.787 6.831,1.781 7.226,1.769 11.680 C 1.756 17.004,1.752 16.913,2.008 17.720 C 2.520 19.334,3.629 20.297,5.400 20.666 C 5.707 20.730,6.078 20.738,9.260 20.751 C 12.947 20.766,13.529 20.748,14.227 20.596 C 16.143 20.181,16.988 19.143,17.211 16.929 L 17.260 16.437 18.080 17.018 C 18.965 17.644,19.392 17.883,19.800 17.978 C 20.845 18.222,21.748 17.693,22.110 16.623 L 22.220 16.300 22.220 12.000 L 22.220 7.700 22.110 7.377 C 21.732 6.261,20.766 5.741,19.675 6.065 C 19.286 6.181,18.953 6.372,18.101 6.973 L 17.260 7.566 17.211 7.073 C 17.064 5.612,16.645 4.682,15.874 4.102 C 15.217 3.608,14.419 3.363,13.200 3.280 C 12.535 3.235,6.403 3.237,5.740 3.282 M11.556 7.716 C 12.491 8.007,13.061 9.009,12.819 9.938 C 12.573 10.880,11.679 11.490,10.739 11.357 C 9.663 11.205,8.911 10.101,9.180 9.068 C 9.348 8.423,9.820 7.913,10.430 7.718 C 10.742 7.618,11.240 7.617,11.556 7.716 " fill="#292D32" stroke="none" fill-rule="evenodd"></path></svg>