<svg width="24" height="24" viewBox="0 0 24 24" fill="none" xmlns="http://www.w3.org/2000/svg"><path d="M11.120 2.039 C 8.336 2.318,5.905 3.624,4.193 5.760 C 1.474 9.155,1.267 13.917,3.682 17.533 C 6.770 22.155,12.946 23.386,17.560 20.299 C 22.155 17.225,23.377 11.041,20.299 6.440 C 18.728 4.092,16.319 2.562,13.493 2.119 C 12.909 2.027,11.660 1.985,11.120 2.039 M11.302 8.462 C 11.433 8.495,11.648 8.574,11.781 8.635 C 12.116 8.791,14.646 10.254,14.940 10.461 C 15.272 10.695,15.568 11.020,15.726 11.324 C 15.853 11.567,15.860 11.601,15.860 12.000 C 15.860 12.399,15.853 12.433,15.726 12.676 C 15.568 12.980,15.273 13.304,14.940 13.540 C 14.687 13.720,12.310 15.104,11.899 15.311 C 11.466 15.529,11.127 15.609,10.709 15.594 C 10.386 15.582,10.303 15.563,10.071 15.449 C 9.629 15.231,9.351 14.848,9.197 14.250 C 9.126 13.971,9.120 13.794,9.120 12.000 C 9.120 10.206,9.126 10.029,9.197 9.750 C 9.375 9.056,9.734 8.632,10.291 8.458 C 10.523 8.386,11.014 8.387,11.302 8.462 " fill="#292D32" stroke="none" fill-rule="evenodd"></path></svg>