<svg width="24" height="24" viewBox="0 0 24 24" fill="none" xmlns="http://www.w3.org/2000/svg"><path d="M7.880 6.620 L 7.880 11.240 12.120 11.240 L 16.360 11.240 16.360 6.620 L 16.360 2.000 12.120 2.000 L 7.880 2.000 7.880 6.620 M5.920 2.236 C 4.155 2.698,2.941 3.802,2.373 5.460 C 2.294 5.691,2.160 6.196,2.160 6.262 C 2.160 6.272,3.105 6.280,4.260 6.280 L 6.360 6.280 6.360 4.200 C 6.360 3.056,6.355 2.121,6.350 2.123 C 6.345 2.124,6.151 2.175,5.920 2.236 M17.880 4.237 L 17.880 6.280 19.860 6.280 C 20.949 6.280,21.840 6.266,21.840 6.250 C 21.840 6.234,21.795 6.053,21.740 5.849 C 21.279 4.125,20.144 2.909,18.488 2.362 C 18.297 2.299,18.082 2.235,18.010 2.221 L 17.880 2.194 17.880 4.237 M2.000 9.520 L 2.000 11.240 4.180 11.240 L 6.360 11.240 6.360 9.520 L 6.360 7.800 4.180 7.800 L 2.000 7.800 2.000 9.520 M17.880 9.520 L 17.880 11.240 19.940 11.240 L 22.000 11.240 22.000 9.520 L 22.000 7.800 19.940 7.800 L 17.880 7.800 17.880 9.520 M2.000 14.519 L 2.000 16.279 4.180 16.289 L 6.360 16.300 6.360 14.530 L 6.360 12.760 4.180 12.760 L 2.000 12.760 2.000 14.519 M7.880 17.380 L 7.880 22.000 12.120 22.000 L 16.360 22.000 16.360 17.380 L 16.360 12.760 12.120 12.760 L 7.880 12.760 7.880 17.380 M17.880 14.520 L 17.880 16.280 19.940 16.280 L 22.000 16.280 22.000 14.520 L 22.000 12.760 19.940 12.760 L 17.880 12.760 17.880 14.520 M4.235 17.790 L 2.171 17.801 2.226 18.040 C 2.298 18.349,2.455 18.787,2.623 19.141 C 3.258 20.486,4.524 21.456,6.110 21.813 L 6.360 21.869 6.360 19.815 C 6.360 18.685,6.346 17.764,6.330 17.770 C 6.314 17.775,5.371 17.784,4.235 17.790 M17.880 19.803 L 17.880 21.806 18.010 21.779 C 18.511 21.676,19.331 21.319,19.800 21.000 C 20.130 20.776,20.635 20.292,20.880 19.965 C 21.269 19.445,21.627 18.677,21.772 18.050 L 21.829 17.800 19.855 17.800 L 17.880 17.800 17.880 19.803 " fill="#292D32" stroke="none" fill-rule="evenodd"></path></svg>