<svg width="24" height="24" viewBox="0 0 24 24" fill="none" xmlns="http://www.w3.org/2000/svg"><path d="M7.720 4.180 L 7.720 6.360 9.480 6.360 L 11.240 6.360 11.240 4.180 L 11.240 2.000 9.480 2.000 L 7.720 2.000 7.720 4.180 M12.760 4.180 L 12.760 6.360 14.480 6.360 L 16.200 6.360 16.200 4.180 L 16.200 2.000 14.480 2.000 L 12.760 2.000 12.760 4.180 M5.831 2.265 C 3.936 2.768,2.629 4.148,2.187 6.110 L 2.131 6.360 4.175 6.360 L 6.220 6.360 6.210 4.830 C 6.204 3.989,6.195 3.046,6.190 2.736 L 6.180 2.172 5.831 2.265 M17.720 4.260 L 17.720 6.360 19.795 6.360 L 21.870 6.360 21.796 6.044 C 21.406 4.367,20.341 3.086,18.834 2.483 C 18.572 2.378,17.841 2.160,17.750 2.160 C 17.733 2.160,17.720 3.105,17.720 4.260 M2.000 12.120 L 2.000 16.360 6.620 16.360 L 11.240 16.360 11.240 12.120 L 11.240 7.880 6.620 7.880 L 2.000 7.880 2.000 12.120 M12.760 12.120 L 12.760 16.360 17.380 16.360 L 22.000 16.360 22.000 12.120 L 22.000 7.880 17.380 7.880 L 12.760 7.880 12.760 12.120 M2.221 18.010 C 2.278 18.289,2.490 18.867,2.661 19.211 C 3.297 20.491,4.520 21.441,5.960 21.774 L 6.200 21.829 6.200 19.855 L 6.200 17.880 4.197 17.880 L 2.194 17.880 2.221 18.010 M7.720 19.940 L 7.720 22.000 9.480 22.000 L 11.240 22.000 11.240 19.940 L 11.240 17.880 9.480 17.880 L 7.720 17.880 7.720 19.940 M12.760 19.940 L 12.760 22.000 14.480 22.000 L 16.200 22.000 16.200 19.940 L 16.200 17.880 14.480 17.880 L 12.760 17.880 12.760 19.940 M17.720 19.860 C 17.720 20.949,17.733 21.840,17.750 21.840 C 17.767 21.840,17.947 21.795,18.151 21.740 C 19.604 21.351,20.713 20.471,21.340 19.209 C 21.510 18.867,21.722 18.289,21.779 18.010 L 21.806 17.880 19.763 17.880 L 17.720 17.880 17.720 19.860 " fill="#292D32" stroke="none" fill-rule="evenodd"></path></svg>