<svg width="24" height="24" viewBox="0 0 24 24" fill="none" xmlns="http://www.w3.org/2000/svg"><path d="M9.580 2.038 C 9.536 2.056,9.455 2.120,9.400 2.179 L 9.300 2.286 9.300 4.182 L 9.300 6.078 9.431 6.209 L 9.562 6.340 11.953 6.351 L 14.345 6.362 14.482 6.270 C 14.557 6.219,14.641 6.133,14.669 6.079 C 14.707 6.004,14.719 5.541,14.719 4.180 C 14.719 2.819,14.707 2.356,14.669 2.281 C 14.641 2.227,14.558 2.141,14.484 2.091 L 14.348 2.000 12.004 2.003 C 10.715 2.004,9.624 2.020,9.580 2.038 M16.531 2.059 C 16.460 2.090,16.365 2.175,16.321 2.248 C 16.243 2.375,16.240 2.446,16.240 4.184 L 16.240 5.988 16.331 6.124 C 16.384 6.202,16.482 6.280,16.561 6.308 C 16.759 6.376,21.201 6.376,21.399 6.308 C 21.568 6.249,21.720 6.036,21.720 5.857 C 21.720 5.785,21.664 5.567,21.595 5.373 C 20.974 3.613,19.557 2.461,17.600 2.125 C 16.914 2.007,16.681 1.993,16.531 2.059 M6.780 2.067 C 6.184 2.141,5.270 2.403,4.822 2.628 C 3.675 3.205,2.798 4.219,2.375 5.457 C 2.239 5.853,2.248 6.006,2.417 6.191 L 2.554 6.340 4.970 6.351 L 7.385 6.362 7.522 6.270 C 7.597 6.219,7.681 6.133,7.709 6.079 C 7.747 6.004,7.759 5.541,7.759 4.188 C 7.760 2.222,7.760 2.224,7.521 2.101 C 7.410 2.043,7.088 2.029,6.780 2.067 M2.235 7.940 C 2.178 7.971,2.100 8.061,2.064 8.138 C 2.002 8.268,1.998 8.626,2.010 12.610 C 2.024 16.939,2.024 16.940,2.115 17.340 C 2.389 18.553,2.869 19.435,3.717 20.283 C 4.565 21.131,5.451 21.611,6.675 21.887 C 7.047 21.971,7.160 21.975,9.936 21.989 C 12.098 22.001,12.840 21.993,12.927 21.957 C 13.083 21.892,13.225 21.715,13.257 21.543 C 13.278 21.427,13.247 21.309,13.087 20.910 C 12.498 19.441,12.373 18.466,12.621 17.273 C 12.990 15.489,14.180 13.949,15.809 13.144 C 17.495 12.312,19.337 12.284,21.044 13.064 C 21.256 13.161,21.459 13.240,21.496 13.240 C 21.636 13.240,21.841 13.120,21.919 12.992 C 21.997 12.864,22.000 12.796,22.000 10.566 C 22.000 8.042,22.002 8.065,21.757 7.938 C 21.589 7.851,2.395 7.853,2.235 7.940 M17.915 14.043 C 15.565 14.388,13.899 16.376,14.012 18.698 C 14.068 19.844,14.496 20.815,15.299 21.623 C 16.151 22.481,17.130 22.928,18.282 22.988 C 20.839 23.119,23.000 21.047,23.000 18.462 C 23.000 16.567,21.696 14.795,19.880 14.222 C 19.258 14.026,18.500 13.957,17.915 14.043 M20.511 16.702 C 20.803 16.824,21.000 17.099,21.000 17.384 C 21.000 17.701,20.929 17.784,19.629 18.988 C 18.945 19.622,18.332 20.180,18.267 20.228 C 18.112 20.344,17.838 20.384,17.626 20.321 C 17.494 20.282,17.326 20.140,16.805 19.626 C 16.127 18.956,16.002 18.784,16.001 18.509 C 16.000 18.341,16.086 18.104,16.192 17.986 C 16.292 17.873,16.558 17.762,16.731 17.761 C 16.981 17.759,17.162 17.866,17.526 18.227 L 17.872 18.571 18.837 17.675 C 19.368 17.183,19.869 16.749,19.951 16.711 C 20.137 16.625,20.319 16.622,20.511 16.702 " fill="#292D32" stroke="none" fill-rule="evenodd"></path></svg>