<svg width="24" height="24" viewBox="0 0 24 24" fill="none" xmlns="http://www.w3.org/2000/svg"><path d="M9.577 2.038 C 9.531 2.057,9.445 2.130,9.387 2.199 L 9.280 2.326 9.280 4.184 L 9.280 6.041 9.417 6.191 L 9.554 6.340 12.000 6.340 L 14.446 6.340 14.583 6.191 L 14.720 6.041 14.720 4.180 L 14.720 2.319 14.583 2.169 L 14.446 2.020 12.053 2.012 C 10.737 2.008,9.623 2.019,9.577 2.038 M16.531 2.059 C 16.460 2.090,16.365 2.175,16.321 2.248 C 16.243 2.375,16.240 2.446,16.240 4.184 L 16.240 5.988 16.331 6.124 C 16.384 6.202,16.482 6.280,16.561 6.308 C 16.759 6.376,21.201 6.376,21.399 6.308 C 21.568 6.249,21.720 6.036,21.720 5.857 C 21.720 5.785,21.664 5.567,21.595 5.373 C 20.974 3.613,19.557 2.461,17.600 2.125 C 16.914 2.007,16.681 1.993,16.531 2.059 M6.780 2.067 C 6.184 2.141,5.270 2.403,4.822 2.628 C 3.675 3.205,2.798 4.219,2.375 5.457 C 2.239 5.853,2.248 6.006,2.417 6.191 L 2.554 6.340 4.970 6.351 L 7.385 6.362 7.522 6.270 C 7.597 6.219,7.681 6.133,7.709 6.079 C 7.747 6.004,7.759 5.541,7.759 4.188 C 7.760 2.222,7.760 2.224,7.521 2.101 C 7.410 2.043,7.088 2.029,6.780 2.067 M2.235 7.940 C 2.178 7.971,2.100 8.061,2.064 8.138 C 2.002 8.268,1.998 8.626,2.010 12.610 C 2.024 16.939,2.024 16.940,2.115 17.340 C 2.389 18.553,2.869 19.435,3.717 20.283 C 4.565 21.131,5.451 21.611,6.675 21.887 C 7.047 21.971,7.160 21.975,9.936 21.989 C 12.098 22.001,12.840 21.993,12.927 21.957 C 13.083 21.892,13.225 21.715,13.257 21.543 C 13.278 21.427,13.247 21.309,13.087 20.910 C 12.498 19.441,12.373 18.466,12.621 17.273 C 12.990 15.489,14.180 13.949,15.809 13.144 C 17.495 12.312,19.337 12.284,21.044 13.064 C 21.256 13.161,21.459 13.240,21.496 13.240 C 21.636 13.240,21.841 13.120,21.919 12.992 C 21.997 12.864,22.000 12.796,22.000 10.566 C 22.000 8.042,22.002 8.065,21.757 7.938 C 21.589 7.851,2.395 7.853,2.235 7.940 M17.900 14.045 C 17.746 14.064,17.461 14.125,17.266 14.181 C 14.950 14.839,13.570 17.204,14.138 19.543 C 14.463 20.883,15.299 21.909,16.580 22.540 C 17.994 23.236,19.650 23.122,21.000 22.233 C 21.357 21.998,21.912 21.455,22.157 21.101 C 22.777 20.204,23.079 19.075,22.968 18.074 C 22.904 17.488,22.789 17.086,22.542 16.580 C 21.664 14.780,19.868 13.799,17.900 14.045 M18.780 16.156 C 18.966 16.242,19.137 16.413,19.197 16.573 C 19.221 16.635,19.240 16.918,19.240 17.203 L 19.240 17.720 19.770 17.721 C 20.196 17.722,20.331 17.736,20.460 17.795 C 20.667 17.889,20.869 18.120,20.903 18.302 C 20.972 18.668,20.823 18.980,20.502 19.141 C 20.321 19.232,20.259 19.240,19.772 19.240 L 19.240 19.240 19.240 19.797 C 19.240 20.104,19.221 20.405,19.197 20.467 C 19.104 20.716,18.759 20.958,18.500 20.958 C 18.241 20.958,17.896 20.716,17.803 20.467 C 17.779 20.405,17.760 20.104,17.760 19.797 L 17.760 19.240 17.230 19.239 C 16.643 19.238,16.475 19.192,16.273 18.975 C 15.922 18.600,16.053 18.021,16.540 17.796 C 16.670 17.736,16.800 17.722,17.230 17.721 L 17.760 17.720 17.760 17.203 C 17.760 16.918,17.779 16.635,17.803 16.573 C 17.896 16.324,18.241 16.082,18.500 16.082 C 18.566 16.082,18.692 16.115,18.780 16.156 " fill="#292D32" stroke="none" fill-rule="evenodd"></path></svg>