<svg width="24" height="24" viewBox="0 0 24 24" fill="none" xmlns="http://www.w3.org/2000/svg"><path d="M9.580 2.038 C 9.536 2.056,9.455 2.120,9.400 2.179 L 9.300 2.286 9.300 4.182 L 9.300 6.078 9.431 6.209 L 9.562 6.340 11.953 6.351 L 14.345 6.362 14.482 6.270 C 14.557 6.219,14.641 6.133,14.669 6.079 C 14.707 6.004,14.719 5.541,14.719 4.180 C 14.719 2.819,14.707 2.356,14.669 2.281 C 14.641 2.227,14.558 2.141,14.484 2.091 L 14.348 2.000 12.004 2.003 C 10.715 2.004,9.624 2.020,9.580 2.038 M16.531 2.059 C 16.460 2.090,16.365 2.175,16.321 2.248 C 16.243 2.375,16.240 2.446,16.240 4.184 L 16.240 5.988 16.331 6.124 C 16.384 6.202,16.482 6.280,16.561 6.308 C 16.759 6.376,21.201 6.376,21.399 6.308 C 21.568 6.249,21.720 6.036,21.720 5.857 C 21.720 5.785,21.664 5.567,21.595 5.373 C 20.974 3.613,19.557 2.461,17.600 2.125 C 16.914 2.007,16.681 1.993,16.531 2.059 M6.780 2.067 C 6.184 2.141,5.270 2.403,4.822 2.628 C 3.675 3.205,2.798 4.219,2.375 5.457 C 2.239 5.853,2.248 6.006,2.417 6.191 L 2.554 6.340 4.970 6.351 L 7.385 6.362 7.522 6.270 C 7.597 6.219,7.681 6.133,7.709 6.079 C 7.747 6.004,7.759 5.541,7.759 4.188 C 7.760 2.222,7.760 2.224,7.521 2.101 C 7.410 2.043,7.088 2.029,6.780 2.067 M2.235 7.940 C 2.178 7.971,2.100 8.061,2.064 8.138 C 2.002 8.268,1.998 8.626,2.010 12.610 C 2.024 16.939,2.024 16.940,2.115 17.340 C 2.389 18.553,2.869 19.435,3.717 20.283 C 4.565 21.131,5.451 21.611,6.675 21.887 C 7.047 21.971,7.160 21.975,9.936 21.989 C 12.098 22.001,12.840 21.993,12.927 21.957 C 13.083 21.892,13.225 21.715,13.257 21.543 C 13.278 21.427,13.247 21.309,13.087 20.910 C 12.498 19.441,12.373 18.466,12.621 17.273 C 12.990 15.489,14.180 13.949,15.809 13.144 C 17.495 12.312,19.337 12.284,21.044 13.064 C 21.256 13.161,21.459 13.240,21.496 13.240 C 21.636 13.240,21.841 13.120,21.919 12.992 C 21.997 12.864,22.000 12.796,22.000 10.566 C 22.000 8.042,22.002 8.065,21.757 7.938 C 21.589 7.851,2.395 7.853,2.235 7.940 M17.791 14.059 C 16.121 14.333,14.749 15.504,14.227 17.100 C 13.717 18.658,14.098 20.374,15.213 21.549 C 16.543 22.948,18.494 23.373,20.246 22.643 C 21.182 22.253,22.072 21.417,22.508 20.516 C 23.117 19.261,23.157 17.948,22.625 16.720 C 22.187 15.709,21.244 14.772,20.246 14.357 C 19.507 14.049,18.556 13.934,17.791 14.059 M17.634 16.629 C 17.714 16.667,17.947 16.859,18.152 17.056 L 18.523 17.415 18.872 17.072 C 19.270 16.679,19.402 16.600,19.659 16.600 C 20.099 16.600,20.400 16.902,20.400 17.345 C 20.400 17.598,20.319 17.732,19.928 18.128 L 19.585 18.477 19.955 18.859 C 20.347 19.265,20.440 19.421,20.440 19.676 C 20.440 19.983,20.277 20.227,19.980 20.364 C 19.632 20.525,19.425 20.441,18.911 19.931 L 18.523 19.544 18.089 19.967 C 17.712 20.335,17.631 20.395,17.466 20.431 C 17.175 20.493,16.953 20.425,16.753 20.213 C 16.615 20.068,16.560 19.920,16.560 19.695 C 16.560 19.438,16.640 19.308,17.073 18.870 L 17.458 18.480 17.074 18.090 C 16.862 17.875,16.666 17.656,16.639 17.602 C 16.569 17.466,16.576 17.122,16.651 16.979 C 16.728 16.830,16.909 16.657,17.040 16.605 C 17.197 16.542,17.474 16.554,17.634 16.629 " fill="#292D32" stroke="none" fill-rule="evenodd"></path></svg>