<svg width="24" height="24" viewBox="0 0 24 24" fill="none" xmlns="http://www.w3.org/2000/svg"><path d="M6.964 2.046 C 4.424 2.311,2.725 3.756,2.185 6.110 L 2.127 6.360 4.944 6.360 L 7.760 6.360 7.760 4.180 L 7.760 2.000 7.530 2.005 C 7.404 2.008,7.149 2.026,6.964 2.046 M9.280 4.180 L 9.280 6.360 12.000 6.360 L 14.720 6.360 14.720 4.180 L 14.720 2.000 12.000 2.000 L 9.280 2.000 9.280 4.180 M16.240 4.174 L 16.240 6.360 19.056 6.360 L 21.873 6.360 21.815 6.110 C 21.569 5.036,21.089 4.164,20.369 3.478 C 19.430 2.583,18.259 2.123,16.650 2.016 L 16.240 1.989 16.240 4.174 M2.011 12.490 C 2.026 16.996,2.028 17.110,2.111 17.544 C 2.350 18.790,2.832 19.750,3.586 20.485 C 4.342 21.221,5.266 21.668,6.497 21.892 C 6.978 21.980,7.001 21.980,12.000 21.980 C 16.999 21.980,17.022 21.980,17.503 21.892 C 18.764 21.662,19.676 21.214,20.445 20.445 C 21.202 19.688,21.650 18.787,21.889 17.544 C 21.972 17.110,21.974 16.996,21.989 12.490 L 22.004 7.880 12.000 7.880 L 1.996 7.880 2.011 12.490 M11.610 11.223 C 11.951 11.311,12.143 11.410,13.516 12.200 C 14.554 12.798,14.774 12.941,15.021 13.180 C 15.348 13.497,15.526 13.806,15.601 14.190 C 15.723 14.810,15.422 15.466,14.800 15.933 C 14.532 16.135,12.472 17.333,12.080 17.516 C 11.273 17.892,10.532 17.826,9.999 17.332 C 9.701 17.057,9.500 16.670,9.420 16.219 C 9.340 15.771,9.339 13.154,9.418 12.709 C 9.549 11.977,10.005 11.408,10.611 11.218 C 10.844 11.145,11.320 11.148,11.610 11.223 " fill="#292D32" stroke="none" fill-rule="evenodd"></path></svg>