<svg width="24" height="24" viewBox="0 0 24 24" fill="none" xmlns="http://www.w3.org/2000/svg"><path d="M11.420 2.056 C 10.991 2.140,10.679 2.275,9.959 2.690 C 6.391 4.746,4.272 5.987,4.091 6.127 C 3.773 6.372,3.458 6.771,3.260 7.180 C 2.918 7.883,2.940 7.558,2.940 11.980 C 2.940 15.701,2.944 15.914,3.016 16.180 C 3.215 16.918,3.685 17.604,4.262 18.001 C 4.643 18.263,10.600 21.675,10.855 21.776 C 11.269 21.942,11.711 22.013,12.180 21.990 C 12.936 21.952,12.987 21.927,16.532 19.880 C 18.266 18.879,19.792 17.973,19.924 17.867 C 20.447 17.445,20.844 16.813,21.000 16.152 C 21.081 15.810,21.082 15.721,21.071 11.892 L 21.060 7.980 20.965 7.700 C 20.722 6.980,20.291 6.378,19.756 6.012 C 19.531 5.857,13.701 2.491,13.373 2.326 C 12.824 2.050,12.021 1.939,11.420 2.056 M11.563 9.144 C 11.860 9.233,12.010 9.311,13.338 10.074 C 14.605 10.802,14.883 11.018,15.104 11.440 C 15.204 11.632,15.219 11.703,15.219 12.000 C 15.219 12.377,15.156 12.545,14.891 12.872 C 14.675 13.138,14.432 13.300,13.140 14.044 C 11.839 14.793,11.542 14.920,11.100 14.920 C 10.611 14.920,10.185 14.654,9.964 14.211 C 9.780 13.843,9.761 13.638,9.761 12.000 C 9.761 10.339,9.779 10.157,9.978 9.765 C 10.106 9.512,10.437 9.216,10.674 9.143 C 10.925 9.066,11.299 9.066,11.563 9.144 " fill="#292D32" stroke="none" fill-rule="evenodd"></path></svg>