<svg width="24" height="24" viewBox="0 0 24 24" fill="none" xmlns="http://www.w3.org/2000/svg"><path d="M20.600 2.045 C 20.493 2.076,20.049 2.496,18.740 3.800 L 17.020 5.513 16.850 5.164 C 16.351 4.140,15.450 3.568,13.972 3.336 C 13.599 3.277,13.075 3.266,10.120 3.250 C 6.423 3.231,5.666 3.255,4.880 3.416 C 3.682 3.661,2.909 4.193,2.433 5.100 C 2.267 5.418,2.112 5.880,2.024 6.320 C 1.888 7.001,1.875 7.588,1.889 12.220 C 1.904 16.754,1.905 16.782,1.992 17.168 C 2.180 17.992,2.490 18.674,2.905 19.177 L 3.112 19.429 2.436 20.104 C 1.689 20.849,1.615 20.965,1.649 21.318 C 1.674 21.582,1.811 21.777,2.058 21.901 C 2.276 22.010,2.381 22.021,2.620 21.957 C 2.760 21.919,3.970 20.724,12.130 12.567 C 17.273 7.426,21.507 3.163,21.540 3.094 C 21.631 2.904,21.617 2.581,21.510 2.392 C 21.350 2.106,20.932 1.946,20.600 2.045 M13.264 13.353 L 5.909 20.711 6.364 20.739 C 6.615 20.755,8.341 20.759,10.200 20.748 C 12.943 20.732,13.648 20.717,13.940 20.669 C 14.465 20.581,14.780 20.501,15.135 20.364 C 16.491 19.842,17.148 18.811,17.323 16.927 C 17.347 16.670,17.372 16.455,17.378 16.449 C 17.384 16.442,17.766 16.701,18.225 17.024 C 19.167 17.687,19.558 17.895,20.039 17.989 C 20.897 18.158,21.712 17.749,22.093 16.957 C 22.368 16.386,22.360 16.528,22.360 12.000 C 22.360 7.472,22.368 7.614,22.093 7.043 C 21.839 6.515,21.279 6.067,20.807 6.015 L 20.620 5.994 13.264 13.353 " fill="#292D32" stroke="none" fill-rule="evenodd"></path></svg>