<svg width="24" height="24" viewBox="0 0 24 24" fill="none" xmlns="http://www.w3.org/2000/svg"><path d="M6.960 2.046 C 6.236 2.116,5.358 2.357,4.796 2.641 C 4.426 2.828,3.928 3.183,3.624 3.475 C 2.737 4.332,2.251 5.370,2.062 6.812 C 1.970 7.515,1.969 16.481,2.061 17.188 C 2.239 18.550,2.681 19.544,3.476 20.372 C 4.162 21.084,4.935 21.524,5.956 21.780 C 6.817 21.997,6.896 22.000,11.993 22.000 C 14.960 22.000,16.828 21.985,17.041 21.959 C 19.985 21.603,21.695 19.840,21.962 16.885 C 21.990 16.579,21.999 14.787,21.989 11.660 C 21.974 7.001,21.972 6.891,21.889 6.456 C 21.642 5.171,21.165 4.235,20.369 3.478 C 19.583 2.729,18.652 2.295,17.359 2.076 C 16.995 2.014,7.572 1.987,6.960 2.046 M12.352 6.349 C 12.525 6.430,12.663 6.616,12.718 6.840 C 12.750 6.968,12.760 8.477,12.751 12.100 C 12.740 17.163,12.740 17.181,12.656 17.340 C 12.610 17.428,12.497 17.554,12.404 17.619 C 12.263 17.719,12.196 17.739,12.000 17.739 C 11.804 17.739,11.737 17.719,11.596 17.619 C 11.503 17.554,11.390 17.428,11.344 17.340 C 11.260 17.181,11.260 17.162,11.248 12.120 C 11.239 8.414,11.248 7.003,11.281 6.846 C 11.386 6.359,11.884 6.128,12.352 6.349 M9.302 7.755 C 9.483 7.838,9.665 8.033,9.710 8.193 C 9.749 8.333,9.749 15.667,9.710 15.807 C 9.637 16.069,9.290 16.318,9.000 16.318 C 8.710 16.318,8.363 16.069,8.290 15.807 C 8.251 15.667,8.251 8.333,8.290 8.193 C 8.363 7.931,8.710 7.682,9.000 7.682 C 9.077 7.682,9.213 7.715,9.302 7.755 M15.302 7.755 C 15.483 7.838,15.665 8.033,15.710 8.193 C 15.749 8.333,15.749 15.667,15.710 15.807 C 15.637 16.069,15.290 16.318,15.000 16.318 C 14.710 16.318,14.363 16.069,14.290 15.807 C 14.251 15.667,14.251 8.333,14.290 8.193 C 14.363 7.931,14.710 7.682,15.000 7.682 C 15.077 7.682,15.213 7.715,15.302 7.755 M6.429 9.267 C 6.512 9.334,6.616 9.450,6.660 9.524 C 6.737 9.656,6.740 9.732,6.740 11.960 C 6.740 13.225,6.726 14.309,6.709 14.369 C 6.667 14.521,6.447 14.761,6.292 14.826 C 6.127 14.895,5.873 14.895,5.708 14.826 C 5.553 14.761,5.333 14.521,5.291 14.369 C 5.274 14.309,5.260 13.225,5.260 11.960 C 5.260 9.455,5.252 9.551,5.486 9.333 C 5.665 9.166,5.807 9.115,6.049 9.130 C 6.233 9.142,6.309 9.170,6.429 9.267 M18.429 9.267 C 18.512 9.334,18.616 9.450,18.660 9.524 C 18.737 9.656,18.740 9.732,18.740 11.960 C 18.740 13.225,18.726 14.309,18.709 14.369 C 18.667 14.521,18.447 14.761,18.292 14.826 C 18.127 14.895,17.873 14.895,17.708 14.826 C 17.553 14.761,17.333 14.521,17.291 14.369 C 17.274 14.309,17.260 13.225,17.260 11.960 C 17.260 9.455,17.252 9.551,17.486 9.333 C 17.665 9.166,17.807 9.115,18.049 9.130 C 18.233 9.142,18.309 9.170,18.429 9.267 " fill="#292D32" stroke="none" fill-rule="evenodd"></path></svg>