<svg width="24" height="24" viewBox="0 0 24 24" fill="none" xmlns="http://www.w3.org/2000/svg"><path d="M20.980 2.059 C 20.892 2.092,20.812 2.119,20.801 2.119 C 20.791 2.120,19.644 3.258,18.251 4.649 C 15.817 7.082,15.720 7.173,15.720 7.039 C 15.719 6.784,15.600 6.106,15.496 5.761 C 14.910 3.831,13.203 2.993,11.216 3.660 C 10.709 3.830,10.292 4.062,8.690 5.064 C 7.859 5.584,7.090 6.055,6.980 6.113 C 6.781 6.217,6.773 6.218,5.560 6.245 C 4.226 6.275,3.925 6.313,3.334 6.527 C 2.949 6.666,2.482 6.956,2.219 7.219 C 1.795 7.643,1.469 8.314,1.329 9.054 C 1.268 9.377,1.260 9.720,1.260 12.000 C 1.260 14.280,1.268 14.623,1.329 14.946 C 1.523 15.970,1.995 16.717,2.742 17.182 C 3.268 17.510,3.878 17.679,4.774 17.743 L 5.129 17.768 3.609 19.294 C 2.008 20.900,1.999 20.911,2.001 21.260 C 2.003 21.552,2.259 21.877,2.551 21.958 C 2.762 22.017,2.877 22.009,3.060 21.923 C 3.172 21.871,6.039 19.026,12.566 12.494 C 20.262 4.791,21.920 3.113,21.960 2.985 C 22.142 2.411,21.546 1.848,20.980 2.059 M21.060 7.060 C 21.038 7.067,20.972 7.084,20.913 7.096 C 20.664 7.151,20.403 7.505,20.401 7.790 C 20.400 7.861,20.471 8.107,20.559 8.337 C 20.848 9.097,21.015 9.747,21.167 10.700 C 21.247 11.199,21.235 12.833,21.148 13.400 C 20.899 15.019,20.374 16.364,19.463 17.719 C 19.104 18.252,19.100 18.261,19.100 18.502 C 19.100 18.700,19.120 18.777,19.207 18.908 C 19.403 19.203,19.832 19.324,20.150 19.173 C 20.515 18.999,21.453 17.456,21.932 16.240 C 22.457 14.906,22.720 13.486,22.720 11.980 C 22.720 10.591,22.494 9.287,22.036 8.030 C 21.825 7.452,21.724 7.279,21.534 7.174 C 21.384 7.092,21.141 7.033,21.060 7.060 M18.500 8.746 C 18.212 8.898,18.068 9.129,18.073 9.435 C 18.074 9.515,18.131 9.733,18.201 9.920 C 18.437 10.556,18.524 11.027,18.548 11.800 C 18.566 12.397,18.557 12.573,18.485 12.993 C 18.338 13.855,18.060 14.550,17.553 15.327 C 17.278 15.750,17.261 15.788,17.261 16.002 C 17.261 16.504,17.717 16.850,18.205 16.719 C 18.431 16.659,18.639 16.442,18.941 15.955 C 19.468 15.105,19.819 14.159,20.006 13.080 C 20.076 12.676,20.076 11.310,20.005 10.920 C 19.867 10.149,19.600 9.272,19.420 8.995 C 19.242 8.721,18.783 8.597,18.500 8.746 M14.340 12.755 C 14.097 12.866,9.131 17.857,9.011 18.111 C 8.833 18.486,8.914 18.952,9.205 19.228 C 9.408 19.420,10.387 20.008,10.819 20.197 C 12.930 21.123,14.833 20.359,15.493 18.319 C 15.706 17.662,15.730 17.396,15.750 15.476 C 15.763 14.199,15.755 13.627,15.721 13.465 C 15.625 13.003,15.222 12.679,14.745 12.681 C 14.594 12.681,14.438 12.710,14.340 12.755 " fill="#292D32" stroke="none" fill-rule="evenodd"></path></svg>