<svg width="24" height="24" viewBox="0 0 24 24" fill="none" xmlns="http://www.w3.org/2000/svg"><path d="M15.620 3.442 C 15.178 3.492,14.653 3.649,14.180 3.875 C 13.960 3.980,13.051 4.522,12.160 5.080 C 11.269 5.638,10.454 6.127,10.350 6.167 C 10.187 6.229,10.032 6.240,9.290 6.241 C 7.786 6.244,7.191 6.337,6.500 6.680 C 5.632 7.109,5.104 7.822,4.854 8.900 C 4.786 9.196,4.780 9.435,4.780 12.040 L 4.781 14.860 4.890 15.257 C 5.258 16.596,6.039 17.335,7.420 17.649 C 7.722 17.718,7.978 17.735,9.020 17.757 C 10.020 17.778,10.287 17.795,10.400 17.846 C 10.477 17.881,11.246 18.352,12.109 18.894 C 12.972 19.436,13.854 19.968,14.069 20.076 C 14.796 20.440,15.586 20.627,16.220 20.586 C 17.805 20.482,18.906 19.342,19.182 17.520 C 19.267 16.958,19.267 7.045,19.182 6.480 C 19.031 5.475,18.590 4.610,17.967 4.096 C 17.330 3.571,16.513 3.343,15.620 3.442 " fill="#292D32" stroke="none" fill-rule="evenodd"></path></svg>