<svg width="24" height="24" viewBox="0 0 24 24" fill="none" xmlns="http://www.w3.org/2000/svg"><path d="M12.147 3.442 C 11.605 3.502,10.884 3.736,10.400 4.010 C 10.279 4.079,9.461 4.584,8.582 5.133 C 7.703 5.682,6.911 6.154,6.822 6.182 C 6.711 6.218,6.297 6.240,5.520 6.253 C 4.263 6.274,3.907 6.318,3.356 6.519 C 2.255 6.921,1.571 7.776,1.329 9.054 C 1.268 9.377,1.260 9.720,1.260 12.000 C 1.260 14.284,1.268 14.622,1.330 14.948 C 1.620 16.481,2.489 17.358,4.020 17.664 C 4.246 17.709,4.700 17.736,5.560 17.755 C 6.773 17.783,6.781 17.783,6.980 17.887 C 7.090 17.945,7.837 18.404,8.640 18.908 C 10.306 19.954,10.499 20.066,10.940 20.244 C 12.364 20.817,13.659 20.655,14.586 19.788 C 15.136 19.274,15.471 18.606,15.665 17.640 C 15.726 17.334,15.735 16.816,15.749 12.420 C 15.760 9.172,15.751 7.353,15.723 6.980 C 15.625 5.708,15.264 4.840,14.563 4.191 C 13.934 3.609,13.071 3.341,12.147 3.442 M17.738 9.315 C 17.439 9.451,17.241 9.804,17.301 10.093 C 17.352 10.336,17.519 10.545,18.237 11.259 L 18.959 11.978 18.143 12.799 C 17.444 13.502,17.320 13.645,17.281 13.793 C 17.122 14.393,17.776 14.937,18.323 14.660 C 18.398 14.622,18.811 14.242,19.241 13.816 L 20.022 13.041 20.741 13.763 C 21.136 14.160,21.537 14.531,21.631 14.587 C 22.194 14.922,22.892 14.393,22.721 13.760 C 22.679 13.604,22.567 13.474,21.877 12.779 L 21.081 11.978 21.783 11.279 C 22.169 10.895,22.531 10.503,22.587 10.409 C 22.880 9.916,22.521 9.306,21.942 9.311 C 21.825 9.312,21.677 9.341,21.614 9.374 C 21.551 9.407,21.167 9.769,20.760 10.177 L 20.021 10.920 19.240 10.142 C 18.743 9.645,18.406 9.341,18.311 9.301 C 18.116 9.221,17.937 9.225,17.738 9.315 " fill="#292D32" stroke="none" fill-rule="evenodd"></path></svg>