<svg width="24" height="24" viewBox="0 0 24 24" fill="none" xmlns="http://www.w3.org/2000/svg"><path d="M12.147 3.442 C 11.605 3.502,10.884 3.736,10.400 4.010 C 10.279 4.079,9.461 4.584,8.582 5.133 C 7.703 5.682,6.911 6.154,6.822 6.182 C 6.711 6.218,6.297 6.240,5.520 6.253 C 4.263 6.274,3.907 6.318,3.356 6.519 C 2.255 6.921,1.571 7.776,1.329 9.054 C 1.268 9.377,1.260 9.720,1.260 12.000 C 1.260 14.284,1.268 14.622,1.330 14.948 C 1.620 16.481,2.489 17.358,4.020 17.664 C 4.246 17.709,4.700 17.736,5.560 17.755 C 6.773 17.783,6.781 17.783,6.980 17.887 C 7.090 17.945,7.837 18.404,8.640 18.908 C 10.306 19.954,10.499 20.066,10.940 20.244 C 12.364 20.817,13.659 20.655,14.586 19.788 C 15.136 19.274,15.471 18.606,15.665 17.640 C 15.726 17.334,15.735 16.816,15.749 12.420 C 15.760 9.172,15.751 7.353,15.723 6.980 C 15.625 5.708,15.264 4.840,14.563 4.191 C 13.934 3.609,13.071 3.341,12.147 3.442 M19.487 4.846 C 19.229 4.973,19.100 5.192,19.100 5.500 C 19.100 5.743,19.103 5.749,19.485 6.322 C 20.088 7.226,20.428 7.918,20.738 8.880 C 21.083 9.947,21.215 10.812,21.215 12.000 C 21.215 14.143,20.642 15.992,19.425 17.776 C 19.105 18.245,19.100 18.257,19.100 18.499 C 19.100 18.700,19.120 18.776,19.207 18.908 C 19.432 19.248,19.943 19.344,20.256 19.106 C 20.527 18.899,21.162 17.902,21.579 17.030 C 22.113 15.911,22.433 14.845,22.626 13.540 C 22.727 12.861,22.727 11.139,22.626 10.460 C 22.489 9.536,22.289 8.737,21.994 7.940 C 21.525 6.671,20.565 5.047,20.163 4.841 C 19.957 4.736,19.705 4.738,19.487 4.846 M17.815 7.277 C 17.433 7.371,17.171 7.804,17.273 8.173 C 17.295 8.252,17.423 8.482,17.558 8.684 C 17.988 9.326,18.294 10.055,18.465 10.840 C 18.523 11.109,18.539 11.352,18.539 12.000 C 18.539 12.648,18.523 12.891,18.465 13.160 C 18.292 13.955,17.999 14.647,17.534 15.358 C 17.278 15.749,17.261 15.789,17.261 16.001 C 17.261 16.498,17.717 16.850,18.194 16.722 C 18.420 16.661,18.552 16.537,18.823 16.131 C 19.725 14.782,20.184 13.025,20.047 11.450 C 19.931 10.118,19.539 8.962,18.846 7.912 C 18.664 7.635,18.510 7.449,18.412 7.385 C 18.241 7.275,18.001 7.231,17.815 7.277 " fill="#292D32" stroke="none" fill-rule="evenodd"></path></svg>