<svg width="24" height="24" viewBox="0 0 24 24" fill="none" xmlns="http://www.w3.org/2000/svg"><path d="M12.147 3.442 C 11.605 3.502,10.884 3.736,10.400 4.010 C 10.279 4.079,9.461 4.584,8.582 5.133 C 7.703 5.682,6.911 6.154,6.822 6.182 C 6.711 6.218,6.297 6.240,5.520 6.253 C 4.263 6.274,3.907 6.318,3.356 6.519 C 2.255 6.921,1.571 7.776,1.329 9.054 C 1.268 9.377,1.260 9.720,1.260 12.000 C 1.260 14.284,1.268 14.622,1.330 14.948 C 1.620 16.481,2.489 17.358,4.020 17.664 C 4.246 17.709,4.700 17.736,5.560 17.755 C 6.773 17.783,6.781 17.783,6.980 17.887 C 7.090 17.945,7.837 18.404,8.640 18.908 C 10.306 19.954,10.499 20.066,10.940 20.244 C 12.364 20.817,13.659 20.655,14.586 19.788 C 15.136 19.274,15.471 18.606,15.665 17.640 C 15.726 17.334,15.735 16.816,15.749 12.420 C 15.760 9.172,15.751 7.353,15.723 6.980 C 15.625 5.708,15.264 4.840,14.563 4.191 C 13.934 3.609,13.071 3.341,12.147 3.442 M17.785 11.289 C 17.578 11.344,17.336 11.591,17.279 11.804 C 17.193 12.122,17.334 12.463,17.627 12.645 L 17.780 12.740 20.000 12.740 L 22.220 12.740 22.373 12.645 C 22.747 12.412,22.859 11.935,22.619 11.596 C 22.554 11.503,22.428 11.390,22.340 11.344 C 22.184 11.262,22.126 11.260,20.060 11.253 C 18.692 11.249,17.885 11.262,17.785 11.289 " fill="#292D32" stroke="none" fill-rule="evenodd"></path></svg>