<svg width="24" height="24" viewBox="0 0 24 24" fill="none" xmlns="http://www.w3.org/2000/svg"><path d="M5.948 3.603 C 3.915 3.960,2.585 5.241,2.107 7.300 C 2.026 7.650,2.024 7.770,2.010 11.760 C 1.995 16.325,1.992 16.268,2.262 17.073 C 2.769 18.588,3.950 19.763,5.460 20.253 C 6.255 20.511,5.990 20.500,11.560 20.500 C 16.280 20.500,16.645 20.495,16.997 20.427 C 19.019 20.039,20.337 18.832,20.827 16.920 C 20.964 16.385,20.993 15.928,20.900 15.785 C 20.762 15.576,20.681 15.560,19.725 15.560 C 18.691 15.560,18.357 15.522,17.830 15.343 C 16.666 14.948,15.786 14.007,15.470 12.820 C 15.352 12.377,15.355 11.599,15.475 11.140 C 15.780 9.978,16.672 9.014,17.782 8.643 C 18.258 8.484,18.679 8.441,19.732 8.440 C 20.673 8.440,20.763 8.423,20.894 8.223 C 21.079 7.941,20.810 6.703,20.394 5.920 C 19.839 4.877,18.846 4.086,17.660 3.741 C 16.893 3.518,16.969 3.520,11.460 3.523 C 6.654 3.526,6.357 3.531,5.948 3.603 M18.404 10.022 C 17.672 10.222,17.070 10.857,16.918 11.589 C 16.861 11.864,16.888 12.335,16.979 12.629 C 17.166 13.243,17.820 13.812,18.527 13.979 C 18.850 14.055,21.069 14.067,21.284 13.994 C 21.528 13.910,21.739 13.736,21.862 13.514 L 21.980 13.300 21.980 12.000 C 21.980 10.556,21.977 10.540,21.699 10.261 C 21.421 9.984,21.404 9.981,19.940 9.972 C 18.884 9.965,18.577 9.975,18.404 10.022 " fill="#292D32" stroke="none" fill-rule="evenodd"></path></svg>