<svg width="24" height="24" viewBox="0 0 24 24" fill="none" xmlns="http://www.w3.org/2000/svg"><path d="M11.306 2.399 C 10.776 2.496,10.121 2.769,9.705 3.067 C 9.446 3.254,7.493 5.183,7.417 5.328 C 7.386 5.387,7.360 5.518,7.360 5.619 C 7.360 5.771,7.383 5.826,7.497 5.951 L 7.634 6.100 12.000 6.111 L 16.367 6.121 16.503 5.985 C 16.616 5.872,16.640 5.818,16.640 5.677 C 16.640 5.506,16.637 5.503,15.510 4.370 C 14.110 2.962,13.835 2.762,12.940 2.498 C 12.648 2.412,12.478 2.390,12.040 2.378 C 11.743 2.370,11.413 2.380,11.306 2.399 M6.314 7.060 C 5.135 7.223,4.072 7.740,3.378 8.489 C 2.731 9.187,2.291 10.176,2.164 11.220 C 2.140 11.418,2.120 12.037,2.120 12.595 C 2.120 13.543,2.125 13.619,2.201 13.741 C 2.290 13.886,2.494 14.000,2.662 14.000 C 2.723 14.000,3.008 13.920,3.296 13.821 C 3.977 13.589,4.442 13.509,5.120 13.509 C 5.759 13.509,6.252 13.587,6.826 13.779 C 8.697 14.405,10.068 15.940,10.501 17.890 C 10.587 18.279,10.624 19.308,10.564 19.664 C 10.488 20.111,10.359 20.595,10.215 20.973 C 10.141 21.168,10.080 21.384,10.080 21.454 C 10.080 21.635,10.203 21.841,10.363 21.928 C 10.494 21.999,10.659 22.001,14.160 21.989 C 18.190 21.975,18.078 21.982,18.898 21.718 C 20.139 21.319,21.144 20.413,21.650 19.235 C 21.927 18.590,21.942 18.352,21.717 18.137 L 21.595 18.020 20.087 17.997 C 18.373 17.970,18.263 17.954,17.580 17.620 C 16.657 17.168,16.032 16.435,15.736 15.458 C 15.641 15.143,15.627 15.030,15.624 14.520 C 15.620 13.853,15.674 13.584,15.920 13.053 C 16.110 12.644,16.269 12.409,16.578 12.085 C 17.096 11.540,17.781 11.176,18.537 11.042 C 18.672 11.018,19.363 11.000,20.141 11.000 C 21.498 11.000,21.509 10.999,21.644 10.909 C 21.912 10.728,21.940 10.526,21.761 10.037 C 21.187 8.463,19.957 7.458,18.160 7.094 C 17.849 7.031,17.341 7.024,12.260 7.016 C 7.818 7.009,6.622 7.018,6.314 7.060 M18.480 12.579 C 18.199 12.660,18.031 12.742,17.812 12.907 C 16.747 13.710,16.747 15.290,17.812 16.093 C 18.037 16.262,18.203 16.342,18.500 16.424 C 18.799 16.507,21.596 16.505,21.757 16.422 C 21.993 16.299,22.000 16.247,22.000 14.500 C 22.000 12.753,21.993 12.701,21.757 12.578 C 21.602 12.498,18.758 12.499,18.480 12.579 M4.540 15.024 C 2.847 15.275,1.576 16.379,1.132 17.983 C 1.035 18.334,1.022 18.449,1.022 18.980 C 1.022 19.704,1.105 20.084,1.397 20.700 C 1.935 21.832,2.913 22.619,4.140 22.905 C 4.581 23.008,5.419 23.008,5.860 22.905 C 7.274 22.575,8.377 21.556,8.812 20.179 C 9.334 18.522,8.699 16.684,7.269 15.712 C 6.917 15.473,6.343 15.214,5.958 15.120 C 5.630 15.040,4.809 14.984,4.540 15.024 M5.352 16.869 C 5.642 17.005,5.759 17.294,5.760 17.867 L 5.760 18.233 6.253 18.247 C 6.807 18.262,6.929 18.311,7.122 18.595 C 7.265 18.807,7.261 19.164,7.113 19.388 C 6.941 19.647,6.743 19.720,6.212 19.720 L 5.770 19.720 5.753 20.210 C 5.734 20.792,5.657 20.980,5.369 21.149 C 5.015 21.356,4.563 21.233,4.361 20.874 C 4.276 20.722,4.261 20.638,4.247 20.210 L 4.230 19.720 3.788 19.720 C 3.260 19.720,3.075 19.652,2.894 19.392 C 2.799 19.254,2.780 19.186,2.780 18.980 C 2.780 18.774,2.799 18.706,2.894 18.568 C 3.075 18.307,3.259 18.240,3.793 18.240 L 4.240 18.240 4.240 17.878 C 4.240 17.392,4.297 17.183,4.481 16.999 C 4.716 16.764,5.031 16.717,5.352 16.869 " fill="#292D32" stroke="none" fill-rule="evenodd"></path></svg>