<svg width="24" height="24" viewBox="0 0 24 24" fill="none" xmlns="http://www.w3.org/2000/svg"><path d="M11.306 2.399 C 10.776 2.496,10.121 2.769,9.705 3.067 C 9.446 3.254,7.493 5.183,7.417 5.328 C 7.386 5.387,7.360 5.518,7.360 5.619 C 7.360 5.771,7.383 5.826,7.497 5.951 L 7.634 6.100 12.000 6.111 L 16.367 6.121 16.503 5.985 C 16.616 5.872,16.640 5.818,16.640 5.677 C 16.640 5.506,16.637 5.503,15.510 4.370 C 14.110 2.962,13.835 2.762,12.940 2.498 C 12.648 2.412,12.478 2.390,12.040 2.378 C 11.743 2.370,11.413 2.380,11.306 2.399 M6.314 7.060 C 5.135 7.223,4.072 7.740,3.378 8.489 C 2.731 9.187,2.291 10.176,2.164 11.220 C 2.140 11.418,2.120 12.037,2.120 12.595 C 2.120 13.543,2.125 13.619,2.201 13.741 C 2.290 13.886,2.494 14.000,2.662 14.000 C 2.723 14.000,3.008 13.920,3.296 13.821 C 3.977 13.589,4.442 13.509,5.120 13.509 C 5.759 13.509,6.252 13.587,6.826 13.779 C 8.697 14.405,10.068 15.940,10.501 17.890 C 10.587 18.279,10.624 19.308,10.564 19.664 C 10.488 20.111,10.359 20.595,10.215 20.973 C 10.141 21.168,10.080 21.384,10.080 21.454 C 10.080 21.635,10.203 21.841,10.363 21.928 C 10.494 21.999,10.659 22.001,14.160 21.989 C 18.190 21.975,18.078 21.982,18.898 21.718 C 20.139 21.319,21.144 20.413,21.650 19.235 C 21.927 18.590,21.942 18.352,21.717 18.137 L 21.595 18.020 20.087 17.997 C 18.373 17.970,18.263 17.954,17.580 17.620 C 16.657 17.168,16.032 16.435,15.736 15.458 C 15.641 15.143,15.627 15.030,15.624 14.520 C 15.620 13.853,15.674 13.584,15.920 13.053 C 16.110 12.644,16.269 12.409,16.578 12.085 C 17.096 11.540,17.781 11.176,18.537 11.042 C 18.672 11.018,19.363 11.000,20.141 11.000 C 21.498 11.000,21.509 10.999,21.644 10.909 C 21.912 10.728,21.940 10.526,21.761 10.037 C 21.187 8.463,19.957 7.458,18.160 7.094 C 17.849 7.031,17.341 7.024,12.260 7.016 C 7.818 7.009,6.622 7.018,6.314 7.060 M18.480 12.577 C 17.769 12.781,17.245 13.316,17.060 14.028 C 16.797 15.036,17.423 16.109,18.460 16.427 C 18.674 16.492,18.857 16.500,20.160 16.500 C 21.796 16.500,21.828 16.495,21.943 16.219 C 22.027 16.019,22.027 12.981,21.943 12.781 C 21.835 12.523,21.813 12.520,20.152 12.523 C 19.059 12.525,18.612 12.539,18.480 12.577 M4.440 15.044 C 4.069 15.091,3.554 15.260,3.160 15.463 C 2.087 16.015,1.339 17.017,1.074 18.260 C 1.003 18.591,1.012 19.472,1.089 19.821 C 1.286 20.707,1.814 21.563,2.500 22.110 C 2.862 22.398,3.485 22.724,3.897 22.840 C 6.272 23.510,8.681 21.890,8.965 19.433 C 9.102 18.244,8.676 17.033,7.822 16.178 C 6.936 15.293,5.707 14.880,4.440 15.044 M4.390 17.333 C 4.473 17.390,4.647 17.546,4.778 17.678 L 5.016 17.919 5.339 17.603 C 5.583 17.365,5.705 17.276,5.836 17.241 C 6.404 17.088,6.912 17.596,6.759 18.164 C 6.724 18.295,6.635 18.417,6.399 18.659 L 6.086 18.980 6.380 19.286 C 6.729 19.650,6.804 19.781,6.806 20.037 C 6.809 20.358,6.640 20.617,6.350 20.738 C 6.001 20.884,5.766 20.801,5.321 20.376 L 4.996 20.066 4.662 20.398 C 4.380 20.678,4.297 20.738,4.123 20.783 C 4.010 20.812,3.895 20.830,3.868 20.821 C 3.842 20.813,3.771 20.796,3.711 20.783 C 3.576 20.753,3.336 20.547,3.256 20.392 C 3.184 20.253,3.175 19.947,3.238 19.784 C 3.263 19.720,3.429 19.518,3.607 19.335 L 3.931 19.003 3.607 18.660 C 3.189 18.219,3.113 17.976,3.277 17.615 C 3.466 17.198,4.000 17.063,4.390 17.333 " fill="#292D32" stroke="none" fill-rule="evenodd"></path></svg>