<svg width="24" height="24" viewBox="0 0 24 24" fill="none" xmlns="http://www.w3.org/2000/svg"><path d="M10.160 2.039 C 9.041 2.180,8.138 3.000,7.384 4.560 C 7.180 4.983,6.647 6.233,5.970 7.875 C 5.952 7.920,5.975 7.925,6.084 7.901 C 6.159 7.885,6.965 7.860,7.875 7.846 L 9.530 7.820 10.730 5.029 C 11.391 3.494,11.921 2.228,11.910 2.217 C 11.898 2.205,11.727 2.162,11.529 2.122 C 11.085 2.031,10.505 1.996,10.160 2.039 M11.780 5.125 C 11.164 6.557,10.654 7.745,10.647 7.765 C 10.639 7.785,11.950 7.800,13.729 7.800 C 17.011 7.800,17.601 7.823,18.284 7.978 C 18.513 8.030,18.712 8.061,18.727 8.046 C 18.794 7.982,18.842 7.202,18.800 6.861 C 18.634 5.524,17.847 4.669,16.007 3.825 C 15.672 3.672,12.935 2.519,12.909 2.521 C 12.904 2.521,12.396 3.693,11.780 5.125 M6.480 9.364 C 5.809 9.442,5.056 9.728,4.445 10.135 C 3.954 10.464,3.622 10.766,3.305 11.175 C 2.854 11.756,2.575 12.314,2.403 12.980 C 2.267 13.504,2.243 13.837,2.241 15.145 C 2.240 16.457,2.295 17.238,2.439 17.936 C 2.727 19.329,3.370 20.363,4.358 21.021 C 5.166 21.558,5.955 21.803,7.320 21.939 C 7.901 21.997,8.511 22.004,12.420 21.990 C 16.310 21.977,16.911 21.966,17.269 21.908 C 18.644 21.686,19.562 21.256,20.320 20.480 C 21.043 19.740,21.468 18.785,21.667 17.452 C 21.773 16.741,21.773 13.775,21.667 13.280 C 21.449 12.260,21.013 11.451,20.301 10.740 C 19.634 10.076,18.905 9.674,17.920 9.428 C 17.583 9.345,17.532 9.344,12.180 9.337 C 9.210 9.332,6.645 9.345,6.480 9.364 M12.244 11.822 C 12.407 11.906,12.520 12.104,12.520 12.308 L 12.520 12.475 12.710 12.499 C 13.528 12.602,14.099 13.093,14.300 13.868 C 14.419 14.322,14.344 14.624,14.078 14.767 C 13.909 14.857,13.792 14.859,13.613 14.774 C 13.427 14.686,13.352 14.560,13.313 14.270 C 13.257 13.860,13.034 13.608,12.696 13.569 L 12.520 13.550 12.520 14.389 L 12.520 15.229 12.950 15.380 C 13.519 15.579,13.733 15.691,13.934 15.892 C 14.393 16.351,14.496 17.175,14.175 17.818 C 13.909 18.353,13.289 18.720,12.653 18.720 C 12.524 18.720,12.520 18.725,12.520 18.882 C 12.520 19.091,12.429 19.263,12.268 19.362 C 11.914 19.578,11.480 19.317,11.480 18.887 L 11.480 18.730 11.198 18.688 C 10.465 18.579,9.887 18.061,9.694 17.340 C 9.572 16.881,9.656 16.558,9.931 16.427 C 10.107 16.343,10.211 16.343,10.382 16.423 C 10.561 16.509,10.637 16.637,10.685 16.932 C 10.752 17.350,10.967 17.593,11.304 17.631 L 11.480 17.650 11.480 16.811 L 11.480 15.971 11.050 15.821 C 10.241 15.538,9.936 15.309,9.754 14.846 C 9.622 14.513,9.623 13.837,9.755 13.507 C 9.876 13.205,10.252 12.798,10.533 12.665 C 10.747 12.564,11.117 12.480,11.347 12.480 C 11.476 12.480,11.480 12.475,11.480 12.318 C 11.480 11.897,11.882 11.635,12.244 11.822 M10.949 13.631 C 10.781 13.735,10.666 14.003,10.689 14.240 C 10.699 14.348,10.737 14.480,10.773 14.534 C 10.832 14.624,11.104 14.754,11.378 14.823 L 11.480 14.849 11.480 14.204 L 11.480 13.560 11.270 13.561 C 11.143 13.562,11.016 13.589,10.949 13.631 M12.520 16.985 L 12.520 17.640 12.737 17.640 C 12.914 17.640,12.977 17.620,13.082 17.532 C 13.309 17.341,13.381 17.024,13.263 16.742 C 13.200 16.589,13.157 16.561,12.784 16.426 L 12.520 16.330 12.520 16.985 " fill="#292D32" stroke="none" fill-rule="evenodd"></path></svg>