<svg width="24" height="24" viewBox="0 0 24 24" fill="none" xmlns="http://www.w3.org/2000/svg"><path d="M5.300 2.884 C 4.103 3.009,2.993 3.781,2.445 4.869 C 2.281 5.195,2.281 5.360,2.443 5.496 C 2.651 5.671,2.838 5.643,3.344 5.361 C 4.018 4.986,4.698 4.768,5.460 4.682 C 5.682 4.656,7.395 4.641,9.934 4.640 L 14.048 4.640 14.184 4.504 C 14.377 4.311,14.369 4.171,14.151 3.934 C 13.635 3.375,12.721 2.971,11.768 2.881 C 11.257 2.832,5.769 2.835,5.300 2.884 M5.265 6.222 C 3.721 6.531,2.546 7.627,2.130 9.145 L 2.021 9.540 2.008 13.400 C 1.999 16.167,2.008 17.368,2.041 17.640 C 2.270 19.503,3.746 20.937,5.624 21.119 C 6.132 21.169,15.899 21.171,16.366 21.122 C 17.777 20.974,18.939 20.180,19.560 18.940 C 19.751 18.558,19.960 17.881,19.960 17.645 C 19.960 17.482,19.823 17.293,19.673 17.247 C 19.600 17.225,19.288 17.198,18.980 17.187 C 18.327 17.164,17.968 17.082,17.455 16.842 C 16.711 16.493,16.095 15.904,15.740 15.200 C 15.168 14.068,15.263 12.725,15.993 11.651 C 16.196 11.351,16.658 10.889,16.943 10.700 C 17.557 10.292,18.130 10.127,19.054 10.092 C 19.648 10.069,19.696 10.062,19.803 9.971 C 19.958 9.841,19.983 9.667,19.900 9.291 C 19.573 7.816,18.492 6.702,16.967 6.268 L 16.660 6.180 11.100 6.174 C 6.515 6.168,5.492 6.176,5.265 6.222 M13.312 10.476 C 13.574 10.611,13.760 10.891,13.760 11.151 C 13.760 11.362,13.570 11.671,13.366 11.791 L 13.180 11.900 10.000 11.900 L 6.820 11.900 6.633 11.790 C 6.095 11.474,6.131 10.758,6.700 10.463 C 6.806 10.408,7.199 10.400,9.992 10.400 C 13.031 10.400,13.169 10.403,13.312 10.476 M18.500 11.646 C 17.991 11.746,17.376 12.205,17.127 12.672 C 16.494 13.861,17.102 15.207,18.462 15.627 C 18.672 15.691,18.851 15.700,19.960 15.700 C 21.066 15.700,21.238 15.692,21.365 15.631 C 21.579 15.531,21.748 15.375,21.871 15.166 L 21.980 14.980 21.992 13.721 C 22.003 12.616,21.996 12.441,21.936 12.285 C 21.852 12.064,21.636 11.821,21.423 11.707 C 21.266 11.623,21.212 11.620,19.980 11.613 C 19.276 11.610,18.610 11.625,18.500 11.646 " fill="#292D32" stroke="none" fill-rule="evenodd"></path></svg>