<svg width="24" height="24" viewBox="0 0 24 24" fill="none" xmlns="http://www.w3.org/2000/svg"><path d="M10.160 2.039 C 9.041 2.180,8.138 3.000,7.384 4.560 C 7.180 4.983,6.647 6.233,5.970 7.875 C 5.952 7.920,5.975 7.925,6.084 7.901 C 6.159 7.885,6.965 7.860,7.875 7.846 L 9.530 7.820 10.730 5.029 C 11.391 3.494,11.921 2.228,11.910 2.217 C 11.898 2.205,11.727 2.162,11.529 2.122 C 11.085 2.031,10.505 1.996,10.160 2.039 M11.780 5.125 C 11.164 6.557,10.654 7.745,10.647 7.765 C 10.639 7.785,11.950 7.800,13.729 7.800 C 17.011 7.800,17.601 7.823,18.284 7.978 C 18.513 8.030,18.712 8.061,18.727 8.046 C 18.794 7.982,18.842 7.202,18.800 6.861 C 18.634 5.524,17.847 4.669,16.007 3.825 C 15.672 3.672,12.935 2.519,12.909 2.521 C 12.904 2.521,12.396 3.693,11.780 5.125 M6.480 9.364 C 5.809 9.442,5.056 9.728,4.445 10.135 C 3.954 10.464,3.622 10.766,3.305 11.175 C 2.854 11.756,2.575 12.314,2.403 12.980 C 2.267 13.504,2.243 13.837,2.241 15.145 C 2.240 16.457,2.295 17.238,2.439 17.936 C 2.727 19.329,3.370 20.363,4.358 21.021 C 5.166 21.558,5.955 21.803,7.320 21.939 C 7.901 21.997,8.511 22.004,12.420 21.990 C 16.310 21.977,16.911 21.966,17.269 21.908 C 18.644 21.686,19.562 21.256,20.320 20.480 C 21.043 19.740,21.468 18.785,21.667 17.452 C 21.773 16.741,21.773 13.775,21.667 13.280 C 21.449 12.260,21.013 11.451,20.301 10.740 C 19.634 10.076,18.905 9.674,17.920 9.428 C 17.583 9.345,17.532 9.344,12.180 9.337 C 9.210 9.332,6.645 9.345,6.480 9.364 M14.780 15.316 C 15.075 15.453,15.240 15.697,15.240 16.000 C 15.240 16.303,15.075 16.547,14.780 16.684 C 14.629 16.754,14.466 16.758,12.000 16.758 C 9.534 16.758,9.371 16.754,9.220 16.684 C 8.925 16.547,8.760 16.303,8.760 16.000 C 8.760 15.697,8.925 15.453,9.220 15.316 C 9.371 15.246,9.534 15.242,12.000 15.242 C 14.466 15.242,14.629 15.246,14.780 15.316 " fill="#292D32" stroke="none" fill-rule="evenodd"></path></svg>