<svg width="24" height="24" viewBox="0 0 24 24" fill="none" xmlns="http://www.w3.org/2000/svg"><path d="M5.948 3.603 C 3.736 3.992,2.289 5.560,2.044 7.832 C 1.985 8.378,1.983 15.604,2.042 16.081 C 2.310 18.274,3.980 20.042,6.135 20.418 C 6.654 20.508,16.386 20.511,16.941 20.421 C 19.026 20.083,20.454 18.737,20.865 16.721 C 20.975 16.183,20.983 15.961,20.899 15.799 C 20.786 15.579,20.693 15.560,19.725 15.560 C 18.691 15.560,18.357 15.522,17.830 15.343 C 16.676 14.952,15.807 14.036,15.473 12.860 C 15.354 12.440,15.345 11.602,15.455 11.200 C 15.822 9.863,16.750 8.907,18.020 8.556 C 18.306 8.478,18.463 8.466,19.480 8.450 C 20.722 8.430,20.787 8.419,20.899 8.201 C 20.980 8.045,20.976 7.846,20.880 7.348 C 20.486 5.309,19.091 3.954,17.020 3.600 C 16.568 3.523,16.378 3.520,11.466 3.523 C 6.654 3.526,6.357 3.531,5.948 3.603 M13.300 8.316 C 13.494 8.405,13.616 8.532,13.698 8.729 C 13.849 9.090,13.672 9.516,13.302 9.685 C 13.149 9.754,12.960 9.758,10.009 9.759 C 7.272 9.760,6.859 9.752,6.729 9.698 C 6.101 9.436,6.084 8.600,6.700 8.316 C 6.851 8.246,7.032 8.242,10.000 8.242 C 12.968 8.242,13.149 8.246,13.300 8.316 M18.420 10.016 C 17.533 10.237,16.880 11.075,16.880 11.993 C 16.880 12.936,17.523 13.724,18.501 13.979 C 18.688 14.027,18.988 14.040,19.941 14.040 C 21.327 14.040,21.408 14.026,21.698 13.736 C 21.992 13.442,22.005 13.362,21.992 11.935 C 21.980 10.735,21.977 10.695,21.887 10.511 C 21.784 10.301,21.552 10.096,21.327 10.016 C 21.125 9.944,18.711 9.944,18.420 10.016 " fill="#292D32" stroke="none" fill-rule="evenodd"></path></svg>