<svg width="24" height="24" viewBox="0 0 24 24" fill="none" xmlns="http://www.w3.org/2000/svg"><path d="M11.334 2.056 C 10.796 2.159,10.369 2.337,9.900 2.653 C 9.666 2.810,8.071 4.351,7.834 4.649 C 7.769 4.730,7.705 4.859,7.693 4.933 C 7.665 5.107,7.774 5.345,7.915 5.418 C 8.001 5.462,8.756 5.474,12.020 5.486 C 15.818 5.499,16.025 5.496,16.126 5.428 C 16.260 5.337,16.337 5.154,16.302 5.011 C 16.284 4.939,15.913 4.537,15.247 3.867 C 13.942 2.554,13.614 2.324,12.722 2.099 C 12.367 2.009,11.689 1.989,11.334 2.056 M5.820 6.920 C 5.052 7.003,4.359 7.305,3.743 7.826 C 3.378 8.134,3.080 8.529,2.840 9.020 C 2.624 9.462,2.545 9.731,2.482 10.239 C 2.424 10.705,2.425 17.335,2.483 17.820 C 2.645 19.169,3.547 20.349,4.809 20.861 C 5.491 21.137,5.093 21.124,12.080 21.111 L 18.380 21.100 18.732 20.990 C 20.034 20.581,20.991 19.594,21.322 18.316 C 21.446 17.839,21.476 17.105,21.381 16.856 C 21.285 16.605,21.100 16.406,20.860 16.294 C 20.677 16.209,20.605 16.201,20.020 16.200 C 19.615 16.199,19.277 16.177,19.100 16.140 C 18.436 16.000,17.847 15.556,17.581 14.995 C 17.203 14.196,17.357 13.340,17.994 12.702 C 18.296 12.398,18.674 12.192,19.057 12.123 C 19.188 12.099,19.602 12.080,19.977 12.080 C 20.608 12.079,20.675 12.072,20.860 11.986 C 21.100 11.874,21.285 11.675,21.380 11.424 C 21.478 11.169,21.446 10.164,21.326 9.712 C 20.971 8.376,19.935 7.360,18.552 6.991 L 18.220 6.903 12.160 6.896 C 8.827 6.893,5.974 6.903,5.820 6.920 M19.040 13.224 C 18.858 13.302,18.655 13.499,18.548 13.700 C 18.484 13.819,18.462 13.932,18.461 14.143 C 18.460 14.390,18.476 14.452,18.581 14.623 C 18.728 14.861,19.006 15.058,19.281 15.117 C 19.558 15.176,20.940 15.169,21.119 15.108 C 21.198 15.080,21.296 15.002,21.349 14.924 C 21.434 14.797,21.440 14.748,21.440 14.152 C 21.440 13.138,21.468 13.159,20.132 13.162 C 19.373 13.163,19.152 13.175,19.040 13.224 " fill="#292D32" stroke="none" fill-rule="evenodd"></path></svg>