<svg width="24" height="24" viewBox="0 0 24 24" fill="none" xmlns="http://www.w3.org/2000/svg"><path d="M11.420 2.056 C 11.266 2.086,11.020 2.157,10.873 2.213 C 10.558 2.332,4.465 5.847,4.112 6.113 C 3.777 6.364,3.466 6.754,3.259 7.180 C 2.921 7.879,2.945 7.541,2.930 11.860 C 2.916 16.114,2.912 16.029,3.174 16.640 C 3.405 17.179,3.814 17.693,4.249 17.992 C 4.384 18.085,8.808 20.652,10.500 21.619 C 10.956 21.879,11.627 22.024,12.213 21.989 C 12.940 21.946,13.006 21.914,16.529 19.879 C 18.317 18.847,19.809 17.959,19.949 17.844 C 20.404 17.473,20.712 17.019,20.928 16.399 L 21.060 16.020 21.060 12.020 L 21.060 8.020 20.966 7.722 C 20.772 7.103,20.426 6.572,19.961 6.178 C 19.813 6.052,18.550 5.299,16.631 4.192 C 14.931 3.211,13.447 2.362,13.334 2.305 C 12.822 2.050,12.000 1.943,11.420 2.056 M12.302 7.075 C 12.483 7.158,12.665 7.353,12.710 7.513 C 12.727 7.572,12.740 8.871,12.740 10.400 C 12.740 13.142,12.739 13.182,12.656 13.340 C 12.610 13.428,12.497 13.554,12.404 13.619 C 12.263 13.719,12.196 13.739,12.000 13.739 C 11.804 13.739,11.737 13.719,11.596 13.619 C 11.503 13.554,11.390 13.428,11.344 13.340 C 11.261 13.182,11.260 13.142,11.260 10.400 C 11.260 8.871,11.273 7.572,11.290 7.513 C 11.363 7.251,11.710 7.002,12.000 7.002 C 12.077 7.002,12.213 7.035,12.302 7.075 M12.497 15.394 C 12.778 15.545,12.999 15.919,13.000 16.243 C 13.000 16.483,12.875 16.769,12.687 16.956 C 11.985 17.655,10.798 16.976,11.037 16.012 C 11.129 15.642,11.371 15.400,11.758 15.293 C 11.996 15.227,12.253 15.262,12.497 15.394 " fill="#292D32" stroke="none" fill-rule="evenodd"></path></svg>