<svg width="24" height="24" viewBox="0 0 24 24" fill="none" xmlns="http://www.w3.org/2000/svg"><path d="M7.785 2.289 C 7.578 2.344,7.336 2.590,7.279 2.804 C 7.193 3.122,7.334 3.463,7.627 3.645 L 7.780 3.740 12.000 3.740 L 16.220 3.740 16.373 3.645 C 16.747 3.412,16.859 2.935,16.619 2.596 C 16.554 2.503,16.428 2.390,16.340 2.344 C 16.181 2.261,16.155 2.260,12.060 2.254 C 9.325 2.250,7.888 2.261,7.785 2.289 M7.780 5.045 C 7.381 5.095,6.830 5.260,6.522 5.422 C 5.678 5.865,5.186 6.663,5.044 7.820 C 4.989 8.274,4.985 15.723,5.040 16.160 C 5.130 16.872,5.383 17.534,5.715 17.932 C 6.189 18.498,6.898 18.843,7.820 18.956 C 8.317 19.017,15.683 19.017,16.180 18.956 C 17.846 18.751,18.771 17.816,18.957 16.147 C 19.013 15.651,19.015 8.358,18.960 7.878 C 18.765 6.177,17.855 5.250,16.180 5.044 C 15.744 4.991,8.208 4.992,7.780 5.045 M12.271 9.302 C 12.468 9.384,12.595 9.506,12.684 9.700 C 12.753 9.849,12.758 10.004,12.759 11.960 C 12.759 13.284,12.744 14.115,12.718 14.209 C 12.602 14.628,12.125 14.864,11.729 14.698 C 11.532 14.616,11.405 14.494,11.316 14.300 C 11.247 14.151,11.242 13.995,11.241 12.009 C 11.240 10.174,11.249 9.857,11.302 9.729 C 11.384 9.532,11.506 9.405,11.700 9.316 C 11.897 9.225,12.076 9.221,12.271 9.302 M15.271 11.302 C 15.468 11.384,15.595 11.506,15.684 11.700 C 15.750 11.843,15.758 11.976,15.759 12.960 C 15.759 13.596,15.742 14.123,15.718 14.209 C 15.663 14.408,15.499 14.595,15.302 14.685 C 14.912 14.862,14.473 14.680,14.302 14.271 C 14.211 14.052,14.211 11.948,14.302 11.729 C 14.384 11.532,14.506 11.405,14.700 11.316 C 14.897 11.225,15.076 11.221,15.271 11.302 M9.271 12.302 C 9.468 12.384,9.595 12.506,9.684 12.700 C 9.746 12.833,9.758 12.962,9.759 13.460 C 9.760 14.124,9.728 14.297,9.570 14.484 C 9.212 14.910,8.552 14.813,8.316 14.300 C 8.254 14.166,8.242 14.037,8.241 13.509 C 8.240 12.690,8.316 12.493,8.700 12.316 C 8.897 12.225,9.076 12.221,9.271 12.302 M7.807 20.287 C 7.568 20.341,7.341 20.572,7.289 20.816 C 7.196 21.251,7.432 21.631,7.847 21.717 C 7.999 21.749,9.256 21.759,12.121 21.751 L 16.180 21.740 16.359 21.639 C 16.702 21.448,16.829 21.010,16.646 20.651 C 16.544 20.452,16.391 20.337,16.156 20.283 C 15.923 20.229,8.048 20.233,7.807 20.287 " fill="#292D32" stroke="none" fill-rule="evenodd"></path></svg>