<svg width="24" height="24" viewBox="0 0 24 24" fill="none" xmlns="http://www.w3.org/2000/svg"><path d="M7.785 2.289 C 7.578 2.344,7.336 2.590,7.279 2.804 C 7.193 3.122,7.334 3.463,7.627 3.645 L 7.780 3.740 12.000 3.740 L 16.220 3.740 16.373 3.645 C 16.747 3.412,16.859 2.935,16.619 2.596 C 16.554 2.503,16.428 2.390,16.340 2.344 C 16.181 2.261,16.155 2.260,12.060 2.254 C 9.325 2.250,7.888 2.261,7.785 2.289 M7.780 5.045 C 7.381 5.095,6.830 5.260,6.522 5.422 C 5.678 5.865,5.186 6.663,5.044 7.820 C 4.989 8.274,4.985 15.723,5.040 16.160 C 5.130 16.872,5.383 17.534,5.715 17.932 C 6.189 18.498,6.898 18.843,7.820 18.956 C 8.317 19.017,15.683 19.017,16.180 18.956 C 17.846 18.751,18.771 17.816,18.957 16.147 C 19.013 15.651,19.015 8.358,18.960 7.878 C 18.765 6.177,17.855 5.250,16.180 5.044 C 15.744 4.991,8.208 4.992,7.780 5.045 M11.812 8.825 C 11.984 8.912,12.075 8.996,12.154 9.140 C 12.210 9.242,12.223 9.449,12.240 10.500 L 12.260 11.740 13.500 11.760 C 14.551 11.777,14.758 11.790,14.860 11.846 C 15.277 12.075,15.368 12.647,15.045 13.014 C 15.009 13.055,14.913 13.123,14.832 13.164 C 14.693 13.235,14.573 13.240,13.000 13.240 C 11.527 13.240,11.300 13.232,11.188 13.175 C 11.006 13.083,10.922 13.001,10.836 12.832 C 10.765 12.693,10.760 12.573,10.760 11.000 C 10.760 9.427,10.765 9.307,10.836 9.168 C 10.970 8.905,11.198 8.764,11.492 8.762 C 11.598 8.761,11.742 8.789,11.812 8.825 M7.807 20.287 C 7.568 20.341,7.341 20.572,7.289 20.816 C 7.196 21.251,7.432 21.631,7.847 21.717 C 7.999 21.749,9.256 21.759,12.121 21.751 L 16.180 21.740 16.359 21.639 C 16.702 21.448,16.829 21.010,16.646 20.651 C 16.544 20.452,16.391 20.337,16.156 20.283 C 15.923 20.229,8.048 20.233,7.807 20.287 " fill="#292D32" stroke="none" fill-rule="evenodd"></path></svg>