<svg width="24" height="24" viewBox="0 0 24 24" fill="none" xmlns="http://www.w3.org/2000/svg"><path d="M6.240 5.284 C 4.456 5.455,3.395 6.431,3.142 8.133 C 3.050 8.754,3.050 15.246,3.142 15.867 C 3.327 17.111,3.952 17.982,4.968 18.409 C 6.031 18.855,7.609 18.855,8.672 18.409 C 9.688 17.982,10.313 17.111,10.498 15.867 C 10.544 15.554,10.560 15.113,10.560 14.105 L 10.560 12.760 11.997 12.760 L 13.434 12.760 13.449 14.330 C 13.465 15.879,13.467 15.905,13.572 16.295 C 13.972 17.782,14.971 18.566,16.673 18.728 C 17.051 18.764,17.286 18.765,17.673 18.729 C 19.528 18.558,20.581 17.628,20.859 15.917 C 20.949 15.356,20.949 8.644,20.859 8.083 C 20.658 6.845,20.022 5.987,19.001 5.574 C 17.779 5.081,15.951 5.173,14.944 5.779 C 14.239 6.204,13.816 6.800,13.569 7.715 C 13.467 8.092,13.465 8.131,13.449 9.670 L 13.434 11.240 11.997 11.240 L 10.560 11.240 10.560 9.895 C 10.560 8.887,10.544 8.446,10.498 8.133 C 10.308 6.855,9.651 5.969,8.589 5.559 C 8.179 5.400,7.872 5.332,7.340 5.282 C 6.853 5.236,6.736 5.236,6.240 5.284 M1.167 8.844 C 1.068 8.894,0.948 9.001,0.887 9.093 L 0.780 9.254 0.769 11.953 C 0.758 14.640,0.759 14.652,0.844 14.828 C 0.971 15.090,1.189 15.220,1.500 15.220 C 1.811 15.220,2.029 15.090,2.155 14.830 C 2.239 14.657,2.240 14.624,2.240 12.000 C 2.240 9.376,2.239 9.343,2.155 9.170 C 1.982 8.812,1.525 8.661,1.167 8.844 M22.167 8.844 C 22.068 8.894,21.948 9.001,21.887 9.093 L 21.780 9.254 21.769 11.953 C 21.758 14.640,21.759 14.652,21.844 14.828 C 21.971 15.090,22.189 15.220,22.500 15.220 C 22.811 15.220,23.029 15.090,23.155 14.830 C 23.239 14.657,23.240 14.624,23.240 12.000 C 23.240 9.376,23.239 9.343,23.155 9.170 C 22.982 8.812,22.525 8.661,22.167 8.844 " fill="#292D32" stroke="none" fill-rule="evenodd"></path></svg>