<svg width="24" height="24" viewBox="0 0 24 24" fill="none" xmlns="http://www.w3.org/2000/svg"><path d="M7.280 2.043 C 6.297 2.157,5.419 2.514,4.702 3.092 C 3.781 3.834,3.214 4.921,3.040 6.280 C 3.010 6.516,3.001 8.338,3.010 12.220 L 3.023 17.820 3.112 18.210 C 3.576 20.233,4.872 21.498,6.900 21.907 C 7.236 21.975,7.580 21.980,12.000 21.980 C 16.420 21.980,16.764 21.975,17.100 21.907 C 19.127 21.499,20.424 20.232,20.888 18.210 L 20.977 17.820 20.990 12.220 C 20.999 8.338,20.990 6.516,20.960 6.280 C 20.673 4.042,19.289 2.535,17.119 2.095 C 16.812 2.032,16.351 2.025,12.180 2.017 C 9.650 2.013,7.445 2.024,7.280 2.043 M13.340 6.019 C 14.818 6.290,16.052 6.839,17.157 7.720 C 17.606 8.077,17.689 8.209,17.591 8.414 C 17.494 8.617,15.401 11.971,15.316 12.059 C 15.200 12.179,14.963 12.165,14.795 12.028 C 14.288 11.612,13.663 11.285,13.082 11.129 C 12.750 11.040,12.614 11.027,12.040 11.023 C 11.536 11.021,11.311 11.037,11.089 11.091 C 10.466 11.242,9.933 11.495,9.420 11.881 C 9.059 12.153,8.967 12.189,8.806 12.122 C 8.649 12.058,6.400 8.462,6.400 8.277 C 6.400 8.096,6.448 8.032,6.789 7.757 C 7.805 6.938,9.135 6.313,10.359 6.078 C 10.606 6.031,10.927 5.978,11.074 5.959 C 11.497 5.906,12.926 5.943,13.340 6.019 " fill="#292D32" stroke="none" fill-rule="evenodd"></path></svg>