<svg width="24" height="24" viewBox="0 0 24 24" fill="none" xmlns="http://www.w3.org/2000/svg"><path d="M11.039 4.123 C 7.806 4.309,4.660 5.477,1.872 7.529 C 1.308 7.944,1.182 8.157,1.282 8.526 C 1.379 8.889,1.631 9.081,2.008 9.079 C 2.256 9.079,2.309 9.050,3.018 8.540 C 5.132 7.018,7.599 6.040,10.200 5.692 C 10.974 5.589,13.031 5.589,13.800 5.693 C 16.527 6.061,18.998 7.067,21.237 8.720 C 21.721 9.077,21.906 9.145,22.196 9.072 C 22.437 9.011,22.653 8.790,22.716 8.541 C 22.815 8.148,22.699 7.949,22.120 7.522 C 19.694 5.731,16.867 4.576,14.040 4.222 C 13.031 4.096,12.067 4.064,11.039 4.123 M11.080 8.626 C 8.871 8.838,7.077 9.473,5.220 10.700 C 4.569 11.131,4.291 11.365,4.215 11.547 C 4.046 11.951,4.293 12.445,4.722 12.561 C 4.936 12.618,5.130 12.576,5.354 12.422 C 5.456 12.351,5.711 12.176,5.920 12.032 C 7.254 11.114,8.742 10.507,10.320 10.236 C 10.948 10.129,12.458 10.086,13.087 10.158 C 14.989 10.376,16.765 11.073,18.345 12.223 C 18.583 12.396,18.822 12.537,18.925 12.564 C 19.550 12.728,20.071 11.974,19.706 11.432 C 19.601 11.276,18.888 10.758,18.246 10.370 C 16.618 9.387,14.928 8.823,13.063 8.642 C 12.665 8.604,11.420 8.594,11.080 8.626 M11.160 12.945 C 9.439 13.150,7.962 13.723,6.575 14.723 C 6.218 14.981,6.143 15.072,6.075 15.328 C 5.947 15.816,6.413 16.306,6.924 16.219 C 7.022 16.203,7.214 16.098,7.442 15.937 C 8.134 15.447,8.697 15.145,9.440 14.868 C 11.344 14.158,13.470 14.278,15.339 15.201 C 15.773 15.416,15.963 15.532,16.732 16.056 C 17.028 16.258,17.260 16.286,17.519 16.153 C 17.997 15.906,18.080 15.310,17.690 14.938 C 17.516 14.773,16.617 14.186,16.200 13.966 C 15.382 13.534,14.420 13.206,13.480 13.039 C 13.092 12.971,12.791 12.948,12.140 12.939 C 11.678 12.933,11.237 12.936,11.160 12.945 M11.520 17.505 C 10.693 17.610,9.992 17.867,9.272 18.328 C 8.750 18.662,8.579 18.946,8.676 19.316 C 8.778 19.701,9.052 19.901,9.437 19.871 C 9.626 19.857,9.713 19.820,10.010 19.625 C 10.699 19.172,11.259 18.995,11.997 18.995 C 12.716 18.995,13.268 19.170,13.968 19.619 C 14.344 19.861,14.390 19.880,14.597 19.880 C 14.997 19.880,15.283 19.609,15.312 19.203 C 15.336 18.866,15.236 18.696,14.850 18.422 C 14.284 18.020,13.551 17.704,12.884 17.575 C 12.571 17.515,11.769 17.473,11.520 17.505 " fill="#292D32" stroke="none" fill-rule="evenodd"></path></svg>