<svg width="24" height="24" viewBox="0 0 24 24" fill="none" xmlns="http://www.w3.org/2000/svg"><path d="M6.960 2.046 C 6.236 2.116,5.358 2.357,4.796 2.641 C 4.426 2.828,3.928 3.183,3.624 3.475 C 2.737 4.332,2.251 5.370,2.062 6.812 C 1.970 7.515,1.969 16.481,2.061 17.188 C 2.239 18.550,2.681 19.544,3.476 20.372 C 4.162 21.084,4.935 21.524,5.956 21.780 C 6.817 21.997,6.896 22.000,11.993 22.000 C 14.960 22.000,16.828 21.985,17.041 21.959 C 19.985 21.603,21.695 19.840,21.962 16.885 C 21.990 16.579,21.999 14.787,21.989 11.660 C 21.974 7.001,21.972 6.891,21.889 6.456 C 21.642 5.171,21.165 4.235,20.369 3.478 C 19.583 2.729,18.652 2.295,17.359 2.076 C 16.995 2.014,7.572 1.987,6.960 2.046 M13.622 7.234 C 15.268 7.519,16.740 8.139,18.126 9.130 C 18.612 9.478,18.737 9.642,18.737 9.936 C 18.737 10.203,18.622 10.425,18.404 10.579 C 18.263 10.679,18.196 10.699,18.000 10.699 C 17.787 10.699,17.741 10.682,17.512 10.522 C 16.456 9.784,15.654 9.359,14.760 9.063 C 12.022 8.155,9.189 8.612,6.720 10.361 C 6.253 10.691,6.105 10.746,5.847 10.681 C 5.476 10.588,5.280 10.339,5.280 9.960 C 5.280 9.636,5.367 9.504,5.788 9.192 C 7.163 8.172,8.915 7.437,10.480 7.224 C 10.733 7.189,10.985 7.153,11.040 7.144 C 11.095 7.134,11.590 7.132,12.140 7.138 C 12.934 7.148,13.239 7.167,13.622 7.234 M12.820 10.802 C 13.738 10.907,14.513 11.136,15.380 11.558 C 15.946 11.834,16.627 12.261,16.875 12.493 C 17.018 12.628,17.158 12.887,17.159 13.020 C 17.161 13.296,16.938 13.643,16.692 13.746 C 16.387 13.874,16.210 13.815,15.552 13.367 C 15.097 13.057,14.429 12.729,13.920 12.565 C 12.057 11.968,10.088 12.262,8.429 13.387 C 7.917 13.733,7.781 13.800,7.580 13.800 C 7.157 13.800,6.790 13.368,6.857 12.948 C 6.896 12.706,7.011 12.549,7.312 12.327 C 8.907 11.147,10.932 10.586,12.820 10.802 M12.627 14.683 C 13.418 14.791,14.596 15.368,14.837 15.765 C 15.010 16.049,14.972 16.378,14.735 16.640 C 14.452 16.953,14.085 16.961,13.641 16.664 C 12.543 15.927,11.457 15.940,10.269 16.705 C 9.694 17.074,9.067 16.781,9.062 16.141 C 9.060 15.851,9.167 15.668,9.455 15.462 C 10.387 14.797,11.488 14.527,12.627 14.683 " fill="#292D32" stroke="none" fill-rule="evenodd"></path></svg>