<svg width="24" height="24" viewBox="0 0 24 24" fill="none" xmlns="http://www.w3.org/2000/svg"><path d="M1.700 3.221 C 1.409 3.378,1.269 3.598,1.269 3.900 C 1.269 4.127,1.339 4.290,1.506 4.447 C 1.641 4.573,4.040 6.019,4.494 6.247 C 4.869 6.436,5.492 6.648,5.960 6.747 C 6.213 6.800,6.480 6.819,7.000 6.819 C 8.078 6.819,8.715 6.650,9.872 6.060 C 10.858 5.557,11.466 5.417,12.367 5.486 C 12.971 5.533,13.302 5.641,14.180 6.077 C 15.419 6.693,15.903 6.820,17.000 6.819 C 17.982 6.818,18.673 6.664,19.460 6.271 C 20.045 5.978,22.524 4.466,22.606 4.352 C 22.649 4.292,22.704 4.145,22.729 4.026 C 22.771 3.824,22.767 3.796,22.665 3.587 C 22.593 3.440,22.507 3.334,22.413 3.276 C 22.227 3.161,21.941 3.133,21.751 3.213 C 21.670 3.247,21.002 3.635,20.266 4.076 C 19.530 4.517,18.822 4.924,18.694 4.982 C 18.052 5.267,17.250 5.398,16.609 5.323 C 15.978 5.249,15.640 5.138,14.893 4.755 C 13.687 4.139,13.108 3.985,12.000 3.985 C 11.425 3.985,11.225 4.001,10.880 4.075 C 10.339 4.192,9.731 4.422,9.237 4.698 C 8.539 5.088,8.083 5.243,7.398 5.322 C 6.713 5.402,5.958 5.272,5.293 4.961 C 5.113 4.877,4.357 4.443,3.613 3.996 C 2.350 3.238,2.245 3.183,2.040 3.170 C 1.891 3.160,1.781 3.177,1.700 3.221 M6.380 10.185 C 5.673 10.292,5.075 10.463,4.620 10.688 C 4.488 10.753,3.731 11.194,2.937 11.669 C 1.421 12.574,1.356 12.625,1.273 12.952 C 1.192 13.269,1.431 13.698,1.747 13.802 C 2.084 13.913,2.175 13.875,3.664 12.981 C 5.723 11.747,5.849 11.699,7.040 11.702 C 7.731 11.704,7.804 11.712,8.140 11.814 C 8.342 11.876,8.784 12.073,9.148 12.263 C 10.265 12.846,10.921 13.020,12.000 13.020 C 13.096 13.020,13.580 12.892,14.820 12.278 C 15.895 11.745,16.072 11.699,17.040 11.702 C 18.188 11.705,18.278 11.741,20.397 13.011 C 21.828 13.869,21.925 13.911,22.248 13.804 C 22.562 13.700,22.807 13.281,22.745 12.953 C 22.689 12.651,22.602 12.584,21.220 11.750 C 19.743 10.860,19.274 10.610,18.768 10.441 C 18.135 10.230,17.808 10.182,17.020 10.181 C 15.890 10.181,15.341 10.324,14.160 10.925 C 13.762 11.128,13.305 11.328,13.100 11.389 C 12.766 11.489,12.687 11.496,12.000 11.496 C 11.310 11.496,11.235 11.489,10.900 11.388 C 10.700 11.328,10.225 11.119,9.831 10.919 C 8.702 10.346,8.169 10.199,7.140 10.179 C 6.788 10.172,6.446 10.175,6.380 10.185 M6.380 17.184 C 5.723 17.281,5.159 17.443,4.653 17.679 C 4.256 17.865,1.666 19.409,1.506 19.556 C 1.337 19.711,1.280 19.850,1.280 20.108 C 1.280 20.379,1.359 20.534,1.583 20.705 C 1.714 20.805,1.769 20.820,1.997 20.820 L 2.260 20.820 3.613 20.006 C 4.357 19.558,5.113 19.123,5.293 19.039 C 6.451 18.497,7.733 18.529,8.900 19.130 C 10.351 19.877,10.849 20.019,12.020 20.016 C 13.095 20.013,13.737 19.844,14.820 19.279 C 15.522 18.912,15.888 18.781,16.450 18.695 C 17.146 18.589,17.934 18.697,18.629 18.992 C 18.785 19.059,19.549 19.495,20.326 19.961 C 21.772 20.828,21.881 20.879,22.179 20.823 C 22.383 20.785,22.659 20.509,22.719 20.285 C 22.780 20.058,22.713 19.763,22.566 19.607 C 22.449 19.484,19.969 17.984,19.460 17.729 C 18.673 17.336,17.982 17.182,17.000 17.181 C 15.908 17.180,15.369 17.321,14.180 17.919 C 13.151 18.437,12.907 18.501,11.960 18.497 C 11.322 18.495,11.228 18.485,10.900 18.388 C 10.695 18.327,10.239 18.128,9.840 17.925 C 8.708 17.350,8.179 17.204,7.140 17.181 C 6.788 17.173,6.446 17.175,6.380 17.184 " fill="#292D32" stroke="none" fill-rule="evenodd"></path></svg>