<svg width="24" height="24" viewBox="0 0 24 24" fill="none" xmlns="http://www.w3.org/2000/svg"><path d="M8.727 2.925 C 7.681 3.099,6.712 3.822,6.241 4.780 C 5.992 5.286,5.915 5.615,5.891 6.267 C 5.871 6.796,5.876 6.847,5.960 7.020 C 6.091 7.290,6.305 7.420,6.617 7.419 C 6.896 7.417,7.086 7.317,7.243 7.087 C 7.325 6.968,7.341 6.883,7.365 6.445 C 7.406 5.700,7.538 5.362,7.953 4.943 C 9.164 3.720,11.240 4.591,11.240 6.323 C 11.240 7.135,10.750 7.833,9.959 8.149 C 9.793 8.215,9.497 8.221,5.800 8.240 L 1.820 8.260 1.642 8.360 C 1.053 8.691,1.186 9.575,1.846 9.719 C 2.003 9.753,3.091 9.762,5.940 9.752 C 9.816 9.738,9.820 9.738,10.140 9.648 C 11.195 9.353,11.966 8.710,12.422 7.748 C 12.640 7.288,12.726 6.894,12.730 6.340 C 12.734 5.564,12.552 4.969,12.117 4.340 C 11.487 3.429,10.410 2.872,9.300 2.885 C 9.102 2.887,8.844 2.905,8.727 2.925 M18.000 4.282 C 16.313 4.489,14.898 5.696,14.423 7.334 C 14.258 7.902,14.194 8.743,14.284 9.162 C 14.424 9.812,15.314 9.943,15.637 9.361 C 15.722 9.207,15.737 9.116,15.763 8.563 C 15.803 7.717,15.939 7.312,16.362 6.779 C 17.439 5.420,19.577 5.424,20.646 6.787 C 21.881 8.360,21.102 10.668,19.169 11.163 C 18.875 11.238,18.637 11.240,10.456 11.240 C 4.464 11.240,1.985 11.253,1.838 11.284 C 1.073 11.448,1.081 12.558,1.848 12.717 C 2.002 12.750,4.425 12.758,10.561 12.749 C 18.571 12.737,19.077 12.733,19.360 12.665 C 21.070 12.256,22.307 11.010,22.661 9.340 C 22.752 8.911,22.752 8.089,22.661 7.660 C 22.252 5.731,20.652 4.367,18.680 4.265 C 18.471 4.254,18.165 4.262,18.000 4.282 M1.785 14.289 C 1.578 14.344,1.337 14.590,1.279 14.804 C 1.193 15.122,1.334 15.463,1.627 15.645 L 1.780 15.740 10.420 15.760 L 19.060 15.780 19.320 15.873 C 20.093 16.151,20.627 16.616,20.963 17.305 C 21.724 18.861,20.854 20.732,19.169 21.163 C 17.967 21.470,16.667 20.896,16.084 19.800 C 15.849 19.359,15.792 19.113,15.763 18.410 C 15.736 17.776,15.733 17.757,15.618 17.594 C 15.307 17.153,14.692 17.155,14.380 17.597 L 14.260 17.767 14.261 18.394 C 14.263 19.052,14.298 19.290,14.468 19.820 C 14.877 21.088,15.912 22.123,17.180 22.532 C 17.695 22.698,17.948 22.737,18.500 22.737 C 19.052 22.737,19.305 22.698,19.820 22.532 C 21.088 22.123,22.123 21.088,22.532 19.820 C 22.698 19.305,22.737 19.052,22.737 18.500 C 22.737 17.578,22.491 16.798,21.963 16.051 C 21.268 15.066,20.164 14.418,18.947 14.283 C 18.425 14.225,2.006 14.231,1.785 14.289 " fill="#292D32" stroke="none" fill-rule="evenodd"></path></svg>