<svg width="24" height="24" viewBox="0 0 24 24" fill="none" xmlns="http://www.w3.org/2000/svg"><path d="M11.260 2.044 C 10.412 2.133,9.674 2.353,8.860 2.760 C 8.130 3.124,7.651 3.470,7.061 4.060 C 6.010 5.109,5.364 6.346,5.096 7.820 C 4.994 8.380,4.994 9.620,5.096 10.180 C 5.650 13.228,7.976 15.471,11.070 15.941 L 11.240 15.967 11.240 17.101 L 11.240 18.236 10.030 18.248 C 8.654 18.262,8.610 18.271,8.381 18.596 C 8.282 18.736,8.261 18.804,8.261 18.993 C 8.261 19.270,8.373 19.475,8.612 19.633 L 8.774 19.740 10.005 19.752 L 11.236 19.764 11.248 20.995 L 11.260 22.226 11.367 22.388 C 11.682 22.864,12.318 22.864,12.633 22.388 L 12.740 22.226 12.752 20.995 L 12.764 19.764 13.995 19.752 L 15.226 19.740 15.388 19.633 C 15.627 19.475,15.739 19.270,15.739 18.993 C 15.739 18.804,15.718 18.736,15.619 18.596 C 15.390 18.271,15.346 18.262,13.970 18.248 L 12.760 18.236 12.760 17.101 L 12.760 15.967 12.930 15.941 C 14.032 15.774,15.004 15.405,15.877 14.824 C 17.474 13.761,18.555 12.103,18.904 10.180 C 19.007 9.619,19.006 8.379,18.904 7.820 C 18.709 6.751,18.316 5.819,17.680 4.911 C 17.348 4.438,16.569 3.658,16.080 3.310 C 15.628 2.988,14.725 2.529,14.210 2.359 C 13.286 2.055,12.232 1.942,11.260 2.044 " fill="#292D32" stroke="none" fill-rule="evenodd"></path></svg>