<svg width="24" height="24" viewBox="0 0 24 24" fill="none" xmlns="http://www.w3.org/2000/svg"><path d="M5.611 1.281 C 4.146 1.438,2.917 2.419,2.455 3.799 C 2.252 4.403,2.207 5.075,2.350 5.341 C 2.458 5.541,2.765 5.720,3.000 5.720 C 3.155 5.720,3.391 5.623,3.513 5.508 C 3.668 5.363,3.720 5.219,3.757 4.830 C 3.818 4.183,4.009 3.788,4.465 3.361 C 4.749 3.095,5.077 2.911,5.428 2.820 C 5.773 2.730,18.227 2.730,18.572 2.820 C 18.923 2.911,19.251 3.095,19.535 3.361 C 19.858 3.664,20.022 3.916,20.144 4.302 L 20.240 4.603 20.240 10.412 C 20.240 15.948,20.237 16.234,20.166 16.489 C 19.979 17.161,19.364 17.790,18.683 18.004 C 18.466 18.072,18.254 18.092,17.480 18.119 C 16.641 18.149,16.502 18.163,16.188 18.256 C 15.388 18.494,15.091 18.707,13.808 19.970 C 12.588 21.172,12.518 21.220,11.980 21.220 C 11.475 21.220,11.420 21.181,10.200 19.981 C 9.076 18.875,8.798 18.653,8.237 18.416 C 7.685 18.184,7.534 18.158,6.520 18.121 C 5.749 18.092,5.533 18.071,5.317 18.004 C 4.837 17.853,4.376 17.490,4.073 17.023 C 3.764 16.548,3.783 16.821,3.761 12.620 C 3.742 9.221,3.734 8.848,3.674 8.740 C 3.538 8.494,3.253 8.319,2.991 8.321 C 2.708 8.323,2.362 8.575,2.290 8.833 C 2.273 8.892,2.260 10.605,2.260 12.640 C 2.260 16.006,2.267 16.367,2.330 16.638 C 2.666 18.084,3.718 19.149,5.160 19.501 C 5.330 19.543,5.733 19.576,6.320 19.596 C 7.313 19.631,7.533 19.676,7.940 19.932 C 8.050 20.001,8.617 20.527,9.200 21.100 C 9.783 21.673,10.367 22.213,10.498 22.299 C 11.248 22.791,12.362 22.860,13.184 22.464 C 13.582 22.273,13.785 22.100,14.900 20.999 C 16.275 19.643,16.265 19.648,17.660 19.598 C 18.258 19.576,18.671 19.543,18.840 19.501 C 20.450 19.108,21.565 17.828,21.721 16.193 C 21.751 15.884,21.761 13.947,21.752 10.100 L 21.738 4.460 21.634 4.080 C 21.498 3.589,21.369 3.302,21.103 2.903 C 20.588 2.131,19.755 1.563,18.800 1.335 C 18.519 1.268,18.098 1.263,12.200 1.257 C 8.735 1.253,5.770 1.264,5.611 1.281 M8.160 6.780 C 7.705 6.882,7.339 7.093,6.980 7.456 C 6.488 7.954,6.280 8.430,6.267 9.086 C 6.262 9.369,6.271 9.409,6.381 9.564 C 6.597 9.870,7.001 9.978,7.336 9.819 C 7.568 9.709,7.677 9.532,7.742 9.162 C 7.807 8.789,7.862 8.668,8.047 8.494 C 8.248 8.305,8.424 8.232,8.684 8.229 C 9.242 8.224,9.698 8.733,9.624 9.277 C 9.565 9.703,9.296 9.989,8.296 10.688 C 7.261 11.410,6.874 11.806,6.550 12.476 C 6.407 12.770,6.382 12.862,6.368 13.145 C 6.353 13.431,6.363 13.499,6.452 13.693 C 6.587 13.989,6.840 14.254,7.114 14.389 L 7.340 14.500 8.983 14.500 L 10.627 14.500 10.792 14.386 C 11.186 14.112,11.226 13.540,10.874 13.213 C 10.699 13.050,10.603 13.040,9.257 13.040 C 8.504 13.040,7.960 13.025,7.960 13.004 C 7.960 12.984,8.031 12.877,8.118 12.767 C 8.281 12.561,8.690 12.227,9.280 11.819 C 10.185 11.194,10.595 10.791,10.858 10.270 C 11.233 9.527,11.195 8.558,10.764 7.891 C 10.437 7.385,10.010 7.039,9.488 6.857 C 9.117 6.728,8.537 6.694,8.160 6.780 M15.053 6.792 C 14.766 6.894,14.542 7.051,14.396 7.251 C 14.214 7.501,12.204 10.864,12.084 11.120 C 11.996 11.306,11.980 11.396,11.980 11.700 C 11.980 12.012,11.995 12.090,12.091 12.286 C 12.226 12.561,12.490 12.811,12.793 12.953 C 13.019 13.059,13.024 13.060,14.145 13.074 L 15.270 13.087 15.287 13.536 C 15.302 13.914,15.319 14.009,15.395 14.132 C 15.748 14.704,16.617 14.570,16.756 13.922 C 16.780 13.809,16.800 13.573,16.800 13.398 C 16.800 13.109,16.807 13.080,16.878 13.080 C 17.292 13.080,17.639 12.840,17.711 12.504 C 17.821 11.988,17.454 11.560,16.902 11.560 L 16.800 11.560 16.800 9.830 C 16.800 8.827,16.782 7.991,16.758 7.840 C 16.709 7.533,16.528 7.206,16.313 7.035 C 15.954 6.750,15.446 6.651,15.053 6.792 M15.280 10.120 L 15.280 11.560 14.420 11.560 C 13.947 11.560,13.560 11.551,13.560 11.540 C 13.560 11.498,15.245 8.680,15.270 8.680 C 15.275 8.680,15.280 9.328,15.280 10.120 " stroke="none" fill-rule="evenodd" fill="black"></path></svg>