<svg width="24" height="24" viewBox="0 0 24 24" fill="none" xmlns="http://www.w3.org/2000/svg"><path d="M6.458 1.283 C 5.614 1.345,4.881 1.543,4.186 1.896 C 3.639 2.174,3.292 2.425,2.859 2.859 C 2.425 3.292,2.174 3.639,1.896 4.186 C 1.373 5.216,1.219 6.178,1.247 8.240 C 1.260 9.184,1.263 9.226,1.353 9.369 C 1.664 9.870,2.408 9.849,2.664 9.332 C 2.733 9.194,2.742 9.042,2.763 7.680 C 2.788 6.073,2.804 5.931,3.021 5.319 C 3.406 4.239,4.239 3.406,5.320 3.021 C 6.000 2.780,5.845 2.789,9.560 2.763 C 12.639 2.742,12.992 2.733,13.100 2.674 C 13.342 2.540,13.520 2.255,13.520 2.000 C 13.520 1.745,13.342 1.460,13.100 1.326 C 12.992 1.266,12.688 1.260,9.940 1.255 C 8.268 1.252,6.701 1.265,6.458 1.283 M16.815 1.279 C 16.332 1.391,16.098 2.004,16.383 2.408 C 16.563 2.662,16.715 2.720,17.313 2.762 C 17.908 2.805,18.257 2.871,18.681 3.021 C 19.761 3.406,20.594 4.239,20.979 5.319 C 21.197 5.933,21.212 6.071,21.237 7.700 C 21.260 9.201,21.261 9.222,21.353 9.369 C 21.710 9.943,22.576 9.812,22.716 9.162 C 22.741 9.045,22.760 8.556,22.760 8.028 C 22.759 6.042,22.613 5.188,22.104 4.186 C 21.826 3.639,21.575 3.292,21.141 2.859 C 20.443 2.160,19.622 1.699,18.648 1.458 C 18.081 1.318,17.072 1.219,16.815 1.279 M11.580 5.281 C 11.212 5.319,10.837 5.425,10.540 5.572 C 10.153 5.764,7.157 7.439,6.960 7.573 C 6.332 8.001,5.741 8.913,5.554 9.740 C 5.476 10.086,5.476 13.961,5.554 14.280 C 5.774 15.180,6.353 16.050,7.015 16.474 C 7.408 16.726,10.410 18.386,10.666 18.494 C 11.178 18.709,11.785 18.787,12.409 18.720 C 13.057 18.650,13.315 18.538,15.043 17.581 C 16.809 16.602,17.174 16.377,17.454 16.095 C 17.865 15.682,18.241 15.037,18.407 14.460 C 18.499 14.143,18.500 14.117,18.500 12.000 C 18.500 9.605,18.506 9.667,18.202 9.017 C 17.890 8.347,17.435 7.805,16.920 7.490 C 16.553 7.264,13.921 5.802,13.538 5.610 C 13.136 5.408,12.865 5.330,12.394 5.281 C 11.985 5.238,11.985 5.238,11.580 5.281 M12.512 6.804 C 12.711 6.851,16.036 8.665,16.244 8.840 L 16.362 8.940 14.204 10.190 C 13.017 10.877,12.025 11.440,11.999 11.440 C 11.973 11.440,10.981 10.877,9.794 10.190 L 7.636 8.940 7.730 8.858 C 7.896 8.715,11.249 6.870,11.438 6.817 C 11.669 6.754,12.267 6.746,12.512 6.804 M16.997 13.896 C 16.935 14.269,16.693 14.731,16.415 15.009 C 16.233 15.191,15.917 15.382,14.489 16.175 L 12.780 17.123 12.770 14.954 C 12.763 13.575,12.774 12.770,12.799 12.745 C 12.820 12.724,13.779 12.161,14.929 11.494 L 17.020 10.283 17.031 11.951 C 17.039 13.068,17.027 13.711,16.997 13.896 M9.089 11.505 C 10.217 12.157,11.163 12.711,11.190 12.737 C 11.230 12.774,11.238 13.250,11.230 14.952 L 11.220 17.120 9.520 16.178 C 7.957 15.313,7.800 15.216,7.573 14.981 C 7.410 14.813,7.273 14.618,7.173 14.412 L 7.020 14.100 7.009 12.210 C 7.002 11.171,7.006 10.320,7.018 10.320 C 7.030 10.320,7.962 10.853,9.089 11.505 M1.815 14.278 C 1.639 14.320,1.462 14.455,1.353 14.631 C 1.263 14.774,1.260 14.816,1.247 15.760 C 1.219 17.822,1.373 18.784,1.896 19.814 C 2.174 20.361,2.425 20.708,2.859 21.141 C 3.813 22.096,5.005 22.611,6.497 22.715 C 7.133 22.760,7.315 22.725,7.520 22.520 C 7.871 22.169,7.773 21.548,7.334 21.340 C 7.232 21.291,7.023 21.258,6.681 21.236 C 6.405 21.218,6.053 21.176,5.899 21.144 C 4.528 20.856,3.474 19.954,3.021 18.681 C 2.804 18.069,2.788 17.927,2.763 16.320 C 2.742 14.958,2.733 14.806,2.664 14.668 C 2.573 14.484,2.395 14.343,2.180 14.284 C 2.003 14.236,1.993 14.236,1.815 14.278 M21.823 14.285 C 21.615 14.334,21.429 14.480,21.336 14.668 C 21.267 14.806,21.258 14.958,21.237 16.320 C 21.212 17.927,21.196 18.069,20.979 18.681 C 20.594 19.761,19.761 20.594,18.680 20.979 C 18.003 21.220,18.142 21.211,14.560 21.236 C 11.592 21.258,11.248 21.267,11.140 21.326 C 10.898 21.460,10.720 21.745,10.720 22.000 C 10.720 22.255,10.898 22.540,11.140 22.674 C 11.248 22.733,11.540 22.741,14.000 22.752 C 15.672 22.760,16.990 22.748,17.380 22.722 C 18.401 22.653,19.065 22.485,19.814 22.104 C 20.361 21.826,20.708 21.575,21.141 21.141 C 21.575 20.708,21.826 20.361,22.104 19.814 C 22.627 18.784,22.781 17.822,22.753 15.760 C 22.740 14.810,22.737 14.775,22.645 14.627 C 22.468 14.343,22.147 14.209,21.823 14.285 " stroke="none" fill-rule="evenodd" fill="black"></path></svg>