<svg width="24" height="24" viewBox="0 0 24 24" fill="none" xmlns="http://www.w3.org/2000/svg"><path d="M8.393 1.282 C 6.328 1.431,4.327 2.476,3.001 4.099 C 2.224 5.050,1.632 6.308,1.403 7.495 C 1.303 8.014,1.230 8.965,1.275 9.162 C 1.450 9.921,2.553 9.921,2.716 9.162 C 2.740 9.049,2.760 8.844,2.761 8.708 C 2.762 8.219,2.905 7.499,3.119 6.896 C 3.439 5.996,3.925 5.241,4.626 4.552 C 5.170 4.017,5.580 3.724,6.240 3.399 C 6.731 3.158,7.592 2.862,7.554 2.948 C 7.546 2.966,7.472 3.100,7.388 3.248 C 7.304 3.395,7.226 3.576,7.214 3.649 C 7.187 3.818,7.255 4.078,7.364 4.216 C 7.626 4.549,8.200 4.569,8.484 4.255 C 8.639 4.084,9.669 2.345,9.716 2.175 C 9.845 1.707,9.419 1.214,8.912 1.246 C 8.862 1.249,8.628 1.265,8.393 1.282 M11.520 5.285 C 10.922 5.354,10.717 5.446,8.911 6.448 C 7.968 6.971,7.094 7.469,6.968 7.555 C 6.135 8.122,5.517 9.240,5.505 10.203 C 5.500 10.519,5.509 10.559,5.614 10.712 C 5.818 11.005,6.233 11.123,6.544 10.976 C 6.739 10.883,6.915 10.665,6.945 10.479 C 6.959 10.392,6.987 10.320,7.007 10.320 C 7.051 10.320,11.118 12.670,11.190 12.737 C 11.230 12.774,11.238 13.249,11.230 14.950 L 11.220 17.116 9.540 16.183 C 8.550 15.633,7.781 15.180,7.668 15.080 C 7.563 14.987,7.405 14.806,7.319 14.678 C 7.107 14.367,6.961 14.268,6.679 14.248 C 6.203 14.213,5.850 14.560,5.889 15.025 C 5.903 15.195,5.944 15.294,6.100 15.528 C 6.348 15.902,6.639 16.208,6.938 16.412 C 7.182 16.578,9.937 18.127,10.427 18.374 C 10.930 18.626,11.195 18.689,11.860 18.709 C 12.500 18.728,12.808 18.687,13.240 18.524 C 13.522 18.418,16.781 16.608,17.105 16.377 C 17.704 15.951,18.218 15.159,18.430 14.333 C 18.492 14.089,18.500 13.834,18.499 11.960 L 18.498 9.860 18.388 9.508 C 18.131 8.680,17.588 7.912,16.985 7.526 C 16.660 7.318,13.632 5.635,13.394 5.530 C 13.102 5.401,12.807 5.326,12.419 5.282 C 12.017 5.236,11.945 5.236,11.520 5.285 M12.578 6.817 C 12.794 6.883,16.058 8.682,16.243 8.838 L 16.364 8.940 14.205 10.190 C 13.017 10.877,12.025 11.440,12.000 11.440 C 11.975 11.440,10.984 10.878,9.797 10.191 L 7.640 8.941 7.730 8.852 C 7.854 8.729,11.177 6.890,11.400 6.821 C 11.642 6.747,12.335 6.744,12.578 6.817 M16.991 12.190 L 16.980 14.060 16.816 14.402 C 16.516 15.027,16.460 15.068,14.500 16.157 L 12.780 17.112 12.770 14.948 C 12.763 13.648,12.774 12.770,12.797 12.747 C 12.846 12.698,16.931 10.325,16.971 10.322 C 16.989 10.321,16.998 11.162,16.991 12.190 M21.815 14.277 C 21.641 14.320,21.462 14.456,21.359 14.622 C 21.288 14.737,21.266 14.858,21.237 15.291 C 21.187 16.062,21.106 16.471,20.880 17.107 C 20.567 17.988,20.063 18.771,19.374 19.449 C 18.843 19.971,18.438 20.260,17.769 20.594 C 17.278 20.839,16.407 21.140,16.446 21.052 C 16.454 21.034,16.528 20.900,16.612 20.752 C 16.696 20.605,16.774 20.424,16.786 20.351 C 16.813 20.182,16.745 19.922,16.636 19.784 C 16.374 19.451,15.800 19.431,15.516 19.745 C 15.355 19.922,14.328 21.660,14.281 21.835 C 14.175 22.230,14.425 22.622,14.844 22.716 C 15.090 22.772,15.988 22.701,16.567 22.582 C 17.737 22.340,18.931 21.782,19.837 21.054 C 20.159 20.795,20.733 20.225,21.000 19.900 C 21.995 18.685,22.604 17.146,22.717 15.559 C 22.760 14.954,22.731 14.735,22.580 14.536 C 22.421 14.327,22.078 14.211,21.815 14.277 " stroke="none" fill-rule="evenodd" fill="black"></path></svg>