<svg width="24" height="24" viewBox="0 0 24 24" fill="none" xmlns="http://www.w3.org/2000/svg"><path d="M8.080 1.282 C 4.042 1.493,1.931 3.265,1.398 6.891 C 1.310 7.494,1.225 8.895,1.264 9.113 C 1.278 9.194,1.325 9.318,1.368 9.389 C 1.658 9.870,2.422 9.836,2.661 9.332 C 2.718 9.212,2.740 9.022,2.765 8.423 C 2.900 5.187,3.905 3.654,6.288 3.044 C 7.337 2.776,7.247 2.780,12.000 2.780 C 15.936 2.780,16.339 2.786,16.760 2.852 C 19.558 3.288,20.712 4.442,21.148 7.240 C 21.214 7.661,21.220 8.064,21.220 12.000 C 21.220 15.936,21.214 16.339,21.148 16.760 C 20.712 19.558,19.558 20.712,16.760 21.148 C 16.339 21.214,15.936 21.220,12.000 21.220 C 8.064 21.220,7.661 21.214,7.240 21.148 C 4.756 20.761,3.576 19.795,3.044 17.712 C 2.844 16.928,2.793 16.449,2.764 15.080 C 2.735 13.687,2.722 13.616,2.464 13.421 C 2.095 13.142,1.598 13.236,1.353 13.631 C 1.271 13.763,1.259 13.841,1.246 14.325 C 1.226 15.057,1.302 16.458,1.398 17.107 C 1.885 20.415,3.654 22.148,7.027 22.622 C 7.786 22.728,8.902 22.759,12.000 22.759 C 15.098 22.759,16.214 22.728,16.973 22.622 C 19.443 22.275,20.996 21.288,21.897 19.490 C 22.379 18.530,22.638 17.369,22.720 15.807 C 22.771 14.838,22.771 9.162,22.720 8.193 C 22.657 6.998,22.521 6.191,22.242 5.356 C 21.632 3.531,20.469 2.367,18.650 1.760 C 17.788 1.473,17.023 1.344,15.806 1.280 C 14.952 1.235,8.952 1.237,8.080 1.282 M11.560 5.281 C 10.977 5.347,10.716 5.464,8.885 6.480 C 7.931 7.010,7.067 7.500,6.965 7.569 C 6.332 8.002,5.741 8.910,5.554 9.740 C 5.476 10.086,5.476 13.961,5.554 14.280 C 5.774 15.180,6.353 16.050,7.015 16.474 C 7.408 16.726,10.410 18.386,10.666 18.494 C 11.178 18.709,11.785 18.787,12.409 18.720 C 13.057 18.650,13.315 18.538,15.043 17.581 C 16.809 16.602,17.174 16.377,17.454 16.095 C 17.865 15.682,18.241 15.037,18.407 14.460 C 18.499 14.143,18.500 14.117,18.500 12.000 C 18.500 9.908,18.498 9.853,18.411 9.554 C 18.170 8.723,17.660 7.983,17.036 7.558 C 16.709 7.335,13.584 5.604,13.302 5.489 C 12.836 5.300,12.132 5.216,11.560 5.281 M12.583 6.819 C 12.813 6.887,16.137 8.720,16.269 8.852 L 16.359 8.941 14.202 10.190 C 13.016 10.878,12.025 11.440,12.000 11.440 C 11.975 11.440,10.983 10.877,9.795 10.190 L 7.636 8.940 7.731 8.858 C 7.896 8.716,11.249 6.870,11.438 6.817 C 11.694 6.747,12.343 6.747,12.583 6.819 M16.997 13.896 C 16.935 14.269,16.693 14.731,16.415 15.009 C 16.233 15.191,15.917 15.382,14.489 16.175 L 12.780 17.123 12.770 14.954 C 12.763 13.643,12.774 12.770,12.797 12.747 C 12.817 12.727,13.776 12.164,14.927 11.497 L 17.020 10.284 17.031 11.952 C 17.039 13.068,17.027 13.711,16.997 13.896 M9.092 11.505 C 10.218 12.157,11.163 12.711,11.190 12.737 C 11.230 12.774,11.238 13.250,11.230 14.952 L 11.220 17.120 9.520 16.178 C 7.957 15.313,7.800 15.216,7.573 14.981 C 7.410 14.813,7.273 14.618,7.173 14.412 L 7.020 14.100 7.009 12.210 C 7.002 11.171,7.008 10.320,7.020 10.320 C 7.033 10.320,7.965 10.853,9.092 11.505 " stroke="none" fill-rule="evenodd" fill="black"></path></svg>