<svg width="24" height="24" viewBox="0 0 24 24" fill="none" xmlns="http://www.w3.org/2000/svg"><path d="M11.480 1.340 C 11.337 1.369,11.129 1.428,11.019 1.472 C 10.777 1.568,4.250 5.083,4.016 5.243 C 3.080 5.885,3.009 7.392,3.878 8.170 C 4.008 8.286,5.133 8.914,7.438 10.156 C 9.291 11.155,10.910 12.013,11.034 12.064 C 11.550 12.271,12.291 12.292,12.822 12.114 C 12.976 12.062,13.701 11.697,14.435 11.302 C 15.926 10.500,15.957 10.475,15.991 10.065 C 16.013 9.804,15.909 9.577,15.693 9.412 C 15.564 9.314,15.512 9.300,15.263 9.300 L 14.980 9.300 13.703 9.994 C 12.309 10.751,12.157 10.809,11.786 10.732 C 11.531 10.678,4.995 7.176,4.850 7.015 C 4.728 6.880,4.728 6.639,4.850 6.507 C 4.991 6.355,11.540 2.851,11.790 2.794 C 11.953 2.757,12.047 2.757,12.210 2.794 C 12.460 2.851,19.009 6.355,19.150 6.507 C 19.213 6.575,19.240 6.654,19.240 6.767 C 19.240 6.914,19.216 6.953,19.004 7.156 C 18.681 7.466,18.607 7.735,18.755 8.062 C 19.015 8.635,19.702 8.639,20.226 8.070 C 21.008 7.222,20.869 5.839,19.940 5.212 C 19.725 5.067,13.190 1.555,12.982 1.473 C 12.521 1.291,11.968 1.242,11.480 1.340 M2.514 9.373 C 1.853 9.598,1.376 10.174,1.282 10.860 C 1.207 11.404,1.396 11.736,1.836 11.835 C 2.255 11.929,2.635 11.678,2.719 11.254 C 2.744 11.125,2.783 10.981,2.806 10.934 C 2.853 10.841,2.999 10.760,3.122 10.760 C 3.166 10.760,4.620 11.470,6.353 12.337 C 9.489 13.905,9.507 13.915,9.730 14.156 C 9.866 14.303,9.989 14.487,10.047 14.629 L 10.140 14.860 10.152 17.840 C 10.161 19.808,10.151 20.868,10.124 20.961 C 10.082 21.101,9.914 21.240,9.784 21.240 C 9.749 21.240,8.302 20.531,6.570 19.664 C 4.244 18.501,3.371 18.045,3.231 17.922 C 3.113 17.818,2.994 17.656,2.911 17.489 L 2.780 17.222 2.760 16.001 C 2.737 14.616,2.727 14.569,2.408 14.343 C 2.270 14.246,2.203 14.227,2.003 14.227 C 1.718 14.227,1.506 14.345,1.355 14.587 L 1.260 14.740 1.263 16.020 C 1.267 17.295,1.267 17.302,1.376 17.658 C 1.584 18.344,2.038 18.954,2.620 19.330 C 3.073 19.622,9.114 22.623,9.354 22.675 C 9.612 22.730,9.962 22.731,10.196 22.678 C 10.872 22.522,11.455 21.919,11.599 21.225 C 11.630 21.074,11.640 20.069,11.630 17.835 C 11.616 14.312,11.630 14.503,11.342 13.893 C 11.164 13.514,10.947 13.227,10.613 12.925 C 10.360 12.696,10.107 12.561,7.120 11.056 C 5.349 10.165,3.797 9.400,3.671 9.357 C 3.347 9.248,2.862 9.254,2.514 9.373 M20.309 9.362 C 20.182 9.406,18.630 10.172,16.861 11.064 C 13.871 12.572,13.626 12.703,13.378 12.930 C 13.049 13.232,12.834 13.519,12.658 13.893 C 12.368 14.506,12.380 14.331,12.380 17.960 L 12.380 21.220 12.471 21.480 C 12.773 22.346,13.708 22.870,14.617 22.681 C 14.789 22.645,15.730 22.194,17.997 21.059 C 19.726 20.195,21.257 19.411,21.400 19.318 C 21.935 18.970,22.414 18.340,22.596 17.746 C 22.642 17.595,22.698 17.316,22.720 17.126 C 22.772 16.671,22.771 11.231,22.719 10.860 C 22.621 10.163,22.115 9.565,21.449 9.360 C 21.106 9.253,20.622 9.255,20.309 9.362 M21.054 10.804 C 21.107 10.829,21.172 10.887,21.197 10.934 C 21.230 10.997,21.239 11.859,21.231 14.121 L 21.220 17.222 21.089 17.489 C 21.006 17.656,20.887 17.818,20.769 17.922 C 20.630 18.044,19.748 18.505,17.431 19.664 C 15.698 20.531,14.253 21.240,14.219 21.240 C 14.076 21.240,13.923 21.118,13.879 20.970 C 13.848 20.865,13.839 19.925,13.848 17.840 L 13.860 14.860 13.953 14.629 C 14.011 14.487,14.134 14.303,14.270 14.156 C 14.493 13.916,14.514 13.904,17.637 12.339 C 19.366 11.473,20.820 10.763,20.868 10.762 C 20.917 10.761,21.000 10.780,21.054 10.804 " stroke="none" fill-rule="evenodd" fill="black"></path></svg>