<svg width="24" height="24" viewBox="0 0 24 24" fill="none" xmlns="http://www.w3.org/2000/svg"><path d="M14.100 1.280 C 13.180 1.362,12.594 1.601,12.098 2.098 C 11.687 2.509,11.504 2.871,11.355 3.569 C 11.291 3.868,11.271 4.161,11.252 5.084 L 11.229 6.229 10.084 6.252 C 8.897 6.277,8.487 6.326,8.009 6.505 C 7.323 6.760,6.760 7.323,6.505 8.009 C 6.326 8.487,6.277 8.897,6.252 10.084 L 6.229 11.229 5.084 11.252 C 3.877 11.277,3.491 11.326,2.981 11.516 C 2.295 11.773,1.734 12.355,1.489 13.064 C 1.263 13.715,1.260 13.774,1.260 17.000 C 1.260 20.247,1.262 20.288,1.499 20.965 C 1.746 21.671,2.328 22.254,3.032 22.500 C 3.713 22.738,3.748 22.740,7.020 22.740 C 9.995 22.739,10.023 22.738,10.440 22.648 C 11.273 22.466,11.908 22.051,12.264 21.454 C 12.631 20.838,12.719 20.375,12.749 18.896 L 12.772 17.772 13.916 17.748 C 15.291 17.718,15.641 17.662,16.240 17.372 C 16.770 17.116,17.116 16.770,17.372 16.240 C 17.662 15.641,17.718 15.291,17.748 13.916 L 17.772 12.772 18.916 12.748 C 20.291 12.718,20.641 12.662,21.240 12.372 C 22.191 11.913,22.697 10.977,22.729 9.617 C 22.738 9.207,22.733 9.168,22.633 8.999 C 22.352 8.520,21.651 8.514,21.373 8.988 C 21.290 9.129,21.268 9.236,21.241 9.631 C 21.222 9.891,21.186 10.184,21.160 10.282 C 21.015 10.818,20.691 11.094,20.080 11.199 C 19.900 11.230,18.914 11.240,16.860 11.232 L 13.900 11.220 13.631 11.125 C 13.141 10.951,12.928 10.679,12.815 10.079 C 12.767 9.824,12.759 9.267,12.769 6.816 C 12.780 4.162,12.788 3.840,12.849 3.660 C 12.994 3.233,13.233 2.994,13.660 2.849 C 13.840 2.788,14.164 2.780,16.840 2.769 C 18.907 2.760,19.900 2.770,20.080 2.801 C 20.690 2.906,21.015 3.182,21.160 3.718 C 21.186 3.816,21.222 4.106,21.240 4.363 C 21.275 4.860,21.318 4.989,21.506 5.167 C 21.783 5.429,22.217 5.429,22.494 5.167 C 22.704 4.969,22.737 4.860,22.728 4.400 C 22.696 2.699,21.936 1.680,20.460 1.356 C 20.072 1.271,19.974 1.268,17.260 1.258 C 15.720 1.253,14.298 1.262,14.100 1.280 M11.251 8.950 C 11.273 10.207,11.302 10.448,11.498 10.986 C 11.759 11.704,12.296 12.241,13.014 12.502 C 13.552 12.698,13.793 12.727,15.050 12.749 L 16.240 12.769 16.239 13.835 C 16.239 14.960,16.203 15.282,16.046 15.586 C 15.876 15.916,15.561 16.116,15.080 16.199 C 14.900 16.230,13.914 16.240,11.860 16.232 L 8.900 16.220 8.631 16.125 C 8.144 15.952,7.930 15.680,7.817 15.090 C 7.734 14.656,7.735 9.226,7.818 8.834 C 7.914 8.382,8.093 8.116,8.415 7.952 C 8.717 7.798,9.007 7.767,10.145 7.763 L 11.231 7.760 11.251 8.950 M6.251 13.950 C 6.267 14.856,6.288 15.211,6.339 15.436 C 6.627 16.711,7.289 17.373,8.564 17.661 C 8.789 17.712,9.144 17.733,10.050 17.749 L 11.240 17.769 11.239 18.835 C 11.239 19.960,11.203 20.282,11.046 20.586 C 10.876 20.916,10.561 21.117,10.080 21.199 C 9.900 21.230,8.907 21.240,6.840 21.231 C 4.164 21.220,3.840 21.212,3.660 21.151 C 3.233 21.006,2.994 20.767,2.849 20.340 C 2.788 20.160,2.780 19.836,2.769 17.160 C 2.760 15.093,2.770 14.100,2.801 13.920 C 2.884 13.439,3.084 13.124,3.416 12.953 C 3.715 12.798,4.006 12.767,5.145 12.763 L 6.231 12.760 6.251 13.950 " stroke="none" fill-rule="evenodd" fill="black"></path></svg>