<svg width="24" height="24" viewBox="0 0 24 24" fill="none" xmlns="http://www.w3.org/2000/svg"><path d="M8.080 1.282 C 4.042 1.493,1.931 3.265,1.398 6.891 C 1.310 7.494,1.225 8.895,1.264 9.113 C 1.278 9.194,1.325 9.318,1.368 9.389 C 1.658 9.870,2.422 9.836,2.661 9.332 C 2.718 9.212,2.740 9.022,2.765 8.423 C 2.900 5.187,3.905 3.654,6.288 3.044 C 7.337 2.776,7.247 2.780,12.000 2.780 C 15.936 2.780,16.339 2.786,16.760 2.852 C 19.558 3.288,20.712 4.442,21.148 7.240 C 21.214 7.661,21.220 8.064,21.220 12.000 C 21.220 15.936,21.214 16.339,21.148 16.760 C 20.712 19.558,19.558 20.712,16.760 21.148 C 16.339 21.214,15.936 21.220,12.000 21.220 C 8.064 21.220,7.661 21.214,7.240 21.148 C 4.756 20.761,3.576 19.795,3.044 17.712 C 2.821 16.838,2.790 16.492,2.764 14.600 C 2.742 13.003,2.734 12.847,2.664 12.708 C 2.405 12.184,1.668 12.163,1.353 12.671 C 1.263 12.815,1.260 12.853,1.247 13.860 C 1.223 15.666,1.335 17.079,1.575 18.027 C 2.267 20.757,3.971 22.193,7.027 22.622 C 7.786 22.728,8.902 22.759,12.000 22.759 C 15.098 22.759,16.214 22.728,16.973 22.622 C 19.443 22.275,20.996 21.288,21.897 19.490 C 22.379 18.530,22.638 17.369,22.720 15.807 C 22.771 14.838,22.771 9.162,22.720 8.193 C 22.657 6.998,22.521 6.191,22.242 5.356 C 21.632 3.531,20.469 2.367,18.650 1.760 C 17.788 1.473,17.023 1.344,15.806 1.280 C 14.952 1.235,8.952 1.237,8.080 1.282 M11.815 7.277 C 11.638 7.321,11.461 7.456,11.353 7.631 L 11.260 7.780 11.248 9.508 L 11.236 11.236 9.505 11.248 L 7.774 11.260 7.612 11.367 C 7.372 11.526,7.267 11.721,7.267 12.007 C 7.267 12.203,7.286 12.270,7.383 12.408 C 7.447 12.499,7.572 12.610,7.660 12.656 C 7.814 12.737,7.886 12.740,9.528 12.752 L 11.236 12.764 11.248 14.492 L 11.260 16.220 11.353 16.369 C 11.710 16.943,12.576 16.812,12.716 16.162 C 12.775 15.885,12.776 8.098,12.717 7.841 C 12.623 7.432,12.215 7.177,11.815 7.277 M14.805 11.280 C 14.547 11.341,14.307 11.597,14.257 11.864 C 14.185 12.245,14.441 12.633,14.823 12.722 C 15.043 12.773,15.915 12.769,16.162 12.716 C 16.905 12.556,16.925 11.472,16.189 11.286 C 15.984 11.235,15.015 11.230,14.805 11.280 " stroke="none" fill-rule="evenodd" fill="black"></path></svg>