<svg width="24" height="24" viewBox="0 0 24 24" fill="none" xmlns="http://www.w3.org/2000/svg"><path d="M11.700 5.316 C 11.506 5.405,11.384 5.532,11.302 5.729 C 11.248 5.858,11.240 6.229,11.240 8.557 L 11.240 11.237 8.507 11.249 L 5.774 11.260 5.612 11.367 C 5.372 11.526,5.267 11.721,5.267 12.007 C 5.267 12.203,5.286 12.270,5.383 12.408 C 5.447 12.499,5.572 12.610,5.660 12.656 C 5.817 12.738,5.870 12.740,8.530 12.751 L 11.240 12.763 11.240 15.443 C 11.240 17.771,11.248 18.142,11.302 18.271 C 11.569 18.911,12.431 18.911,12.698 18.271 C 12.753 18.139,12.760 17.436,12.759 11.991 C 12.758 6.116,12.755 5.853,12.684 5.700 C 12.503 5.308,12.077 5.142,11.700 5.316 M15.815 11.278 C 15.331 11.393,15.098 12.004,15.383 12.408 C 15.605 12.722,15.676 12.738,16.869 12.753 C 18.122 12.768,18.296 12.744,18.519 12.521 C 18.918 12.122,18.731 11.423,18.189 11.286 C 17.983 11.235,16.025 11.228,15.815 11.278 " stroke="none" fill-rule="evenodd" fill="black"></path></svg>