<svg width="24" height="24" viewBox="0 0 24 24" fill="none" xmlns="http://www.w3.org/2000/svg"><path d="M4.882 1.282 C 2.982 1.435,1.774 2.424,1.386 4.144 C 1.303 4.511,1.237 5.389,1.278 5.572 C 1.427 6.232,2.291 6.385,2.627 5.812 C 2.710 5.669,2.732 5.563,2.762 5.137 C 2.855 3.816,3.287 3.190,4.326 2.872 C 4.617 2.783,4.645 2.783,7.566 2.770 C 10.354 2.757,10.532 2.761,10.892 2.834 C 12.042 3.069,12.597 3.784,12.665 5.120 C 12.690 5.588,12.726 5.746,12.846 5.899 C 13.029 6.132,13.440 6.228,13.732 6.106 C 13.910 6.032,14.110 5.792,14.144 5.614 C 14.187 5.383,14.129 4.535,14.044 4.160 C 13.902 3.529,13.711 3.102,13.366 2.644 C 12.978 2.128,12.316 1.681,11.640 1.480 C 10.951 1.276,10.877 1.271,8.000 1.259 C 6.515 1.253,5.112 1.263,4.882 1.282 M13.460 7.283 C 12.203 7.383,11.229 7.852,10.634 8.644 C 10.295 9.094,10.112 9.500,9.948 10.160 C 9.866 10.493,9.864 10.587,9.850 14.780 C 9.836 19.230,9.840 19.389,10.006 20.046 C 10.311 21.256,11.180 22.169,12.360 22.520 C 13.036 22.720,13.148 22.728,15.820 22.748 C 19.057 22.773,19.658 22.733,20.461 22.438 C 21.360 22.107,22.128 21.329,22.451 20.420 C 22.603 19.991,22.674 19.624,22.719 19.037 C 22.773 18.330,22.773 11.670,22.719 10.963 C 22.628 9.768,22.316 8.996,21.660 8.340 C 21.004 7.684,20.232 7.372,19.037 7.281 C 18.419 7.234,14.058 7.236,13.460 7.283 M19.674 8.872 C 20.485 9.121,20.894 9.534,21.128 10.341 L 21.220 10.660 21.220 15.000 L 21.220 19.340 21.128 19.659 C 20.894 20.466,20.485 20.879,19.674 21.128 C 19.383 21.217,19.355 21.217,16.434 21.230 C 13.646 21.243,13.468 21.239,13.108 21.166 C 12.363 21.013,11.892 20.681,11.621 20.116 C 11.329 19.507,11.340 19.711,11.340 15.000 C 11.340 11.089,11.345 10.758,11.411 10.476 C 11.629 9.547,12.150 9.035,13.075 8.838 C 13.395 8.769,13.636 8.765,16.400 8.773 C 19.361 8.783,19.382 8.783,19.674 8.872 M1.720 9.285 C 1.591 9.336,1.411 9.508,1.326 9.660 C 1.269 9.763,1.258 9.959,1.247 11.060 C 1.223 13.391,1.337 14.158,1.835 15.020 C 2.079 15.441,2.557 15.920,2.980 16.166 C 3.557 16.500,4.107 16.654,4.963 16.719 C 5.690 16.774,7.899 16.772,8.162 16.716 C 8.828 16.573,8.943 15.639,8.332 15.336 C 8.192 15.266,8.038 15.258,6.400 15.237 C 4.719 15.215,4.604 15.209,4.326 15.126 C 3.527 14.886,3.113 14.473,2.876 13.680 C 2.791 13.395,2.785 13.291,2.763 11.580 C 2.743 10.006,2.732 9.765,2.674 9.660 C 2.586 9.501,2.407 9.335,2.267 9.283 C 2.129 9.230,1.854 9.231,1.720 9.285 M16.163 12.710 C 16.087 12.749,15.970 12.849,15.903 12.934 C 15.780 13.087,15.780 13.089,15.767 13.659 L 15.754 14.231 15.207 14.248 C 14.628 14.265,14.508 14.298,14.332 14.487 C 14.217 14.609,14.120 14.845,14.120 15.000 C 14.120 15.155,14.217 15.391,14.332 15.513 C 14.508 15.702,14.628 15.735,15.207 15.752 L 15.754 15.769 15.767 16.341 C 15.780 16.911,15.780 16.913,15.903 17.066 C 16.061 17.264,16.252 17.360,16.487 17.360 C 16.814 17.360,17.017 17.238,17.164 16.952 C 17.227 16.828,17.240 16.716,17.240 16.286 L 17.240 15.769 17.790 15.753 C 18.372 15.735,18.491 15.703,18.668 15.513 C 18.783 15.391,18.880 15.155,18.880 15.000 C 18.880 14.845,18.783 14.609,18.668 14.487 C 18.491 14.297,18.372 14.265,17.790 14.247 L 17.240 14.231 17.240 13.714 C 17.240 13.157,17.198 13.002,16.994 12.813 C 16.797 12.630,16.413 12.582,16.163 12.710 " stroke="none" fill-rule="evenodd" fill="black"></path></svg>