<svg width="24" height="24" viewBox="0 0 24 24" fill="none" xmlns="http://www.w3.org/2000/svg"><path d="M11.815 1.278 C 11.331 1.395,11.098 2.004,11.383 2.408 C 11.571 2.674,11.714 2.724,12.391 2.763 C 13.564 2.830,14.597 3.098,15.577 3.589 C 19.522 5.566,21.151 10.316,19.240 14.271 C 18.843 15.095,18.424 15.688,17.733 16.405 C 17.333 16.820,17.280 16.911,17.280 17.180 C 17.280 17.618,17.583 17.920,18.020 17.920 C 18.291 17.920,18.461 17.811,18.888 17.366 C 20.074 16.131,20.959 14.477,21.316 12.828 C 21.565 11.678,21.589 10.211,21.377 9.060 C 21.100 7.555,20.413 6.049,19.440 4.820 C 19.301 4.644,18.969 4.283,18.704 4.019 C 17.311 2.632,15.492 1.701,13.560 1.384 C 12.953 1.285,12.021 1.228,11.815 1.278 M7.400 2.454 C 6.999 2.600,6.005 3.319,5.405 3.899 C 3.893 5.359,2.956 7.134,2.596 9.220 C 2.490 9.838,2.451 11.079,2.517 11.743 C 2.728 13.852,3.640 15.828,5.110 17.363 C 5.561 17.835,5.747 17.958,6.011 17.959 C 6.179 17.960,6.416 17.874,6.534 17.768 C 6.647 17.668,6.758 17.402,6.759 17.229 C 6.761 16.976,6.657 16.807,6.230 16.364 C 5.565 15.676,5.158 15.097,4.760 14.271 C 4.181 13.074,3.925 11.849,3.972 10.500 C 4.042 8.491,4.819 6.660,6.219 5.206 C 6.705 4.702,7.066 4.407,7.720 3.979 C 8.234 3.643,8.310 3.560,8.377 3.253 C 8.440 2.966,8.241 2.611,7.942 2.475 C 7.753 2.390,7.595 2.383,7.400 2.454 M11.240 4.600 C 10.579 4.691,9.766 4.934,9.247 5.197 C 6.374 6.647,5.059 9.949,6.156 12.956 C 6.318 13.400,6.668 14.054,6.946 14.432 C 7.460 15.129,7.646 15.279,7.996 15.280 C 8.421 15.280,8.731 14.969,8.731 14.542 C 8.731 14.298,8.691 14.212,8.441 13.920 C 7.849 13.230,7.460 12.401,7.317 11.526 C 7.244 11.084,7.263 10.313,7.356 9.856 C 7.844 7.476,10.079 5.822,12.463 6.077 C 14.761 6.322,16.540 8.135,16.717 10.410 C 16.821 11.744,16.442 12.878,15.538 13.944 C 15.308 14.215,15.261 14.324,15.265 14.580 C 15.273 15.116,15.889 15.460,16.363 15.193 C 16.656 15.029,17.257 14.207,17.602 13.500 C 18.529 11.598,18.412 9.256,17.301 7.520 C 16.329 6.000,14.955 5.044,13.220 4.680 C 12.765 4.585,11.674 4.541,11.240 4.600 M11.440 7.897 C 10.741 8.052,10.164 8.395,9.746 8.901 C 9.275 9.472,9.076 10.039,9.075 10.813 C 9.071 12.404,10.375 13.717,11.963 13.719 C 12.642 13.721,13.009 13.596,13.178 13.307 C 13.388 12.948,13.280 12.497,12.935 12.295 C 12.779 12.203,12.712 12.189,12.505 12.199 C 11.808 12.233,11.668 12.221,11.416 12.106 C 11.123 11.972,10.848 11.704,10.693 11.400 C 10.591 11.202,10.580 11.140,10.580 10.780 C 10.580 10.424,10.592 10.355,10.691 10.155 C 10.812 9.907,11.103 9.611,11.344 9.488 C 11.884 9.214,12.527 9.307,12.981 9.725 C 13.225 9.950,13.350 10.171,13.436 10.532 C 13.521 10.891,13.625 11.046,13.853 11.157 C 14.065 11.259,14.288 11.262,14.505 11.163 C 15.009 10.934,15.051 10.331,14.621 9.456 C 14.325 8.852,13.748 8.312,13.131 8.061 C 12.625 7.856,11.930 7.788,11.440 7.897 M11.696 15.124 C 11.109 15.179,10.510 15.440,10.081 15.828 C 9.860 16.028,8.634 17.507,8.212 18.082 C 7.610 18.903,7.476 19.984,7.860 20.929 C 8.113 21.550,8.656 22.130,9.258 22.421 C 9.865 22.714,9.921 22.720,11.981 22.720 C 13.125 22.720,13.874 22.704,14.008 22.677 C 14.911 22.492,15.668 21.899,16.064 21.065 C 16.249 20.676,16.315 20.419,16.345 19.980 C 16.386 19.381,16.233 18.769,15.922 18.288 C 15.750 18.021,14.362 16.278,14.104 16.006 C 13.494 15.359,12.618 15.038,11.696 15.124 M12.505 16.685 C 12.631 16.732,12.810 16.842,12.904 16.928 C 13.198 17.199,14.637 19.024,14.751 19.271 C 15.050 19.916,14.728 20.760,14.053 21.102 L 13.820 21.220 12.000 21.220 C 10.201 21.220,10.178 21.219,9.988 21.131 C 9.359 20.838,8.997 20.090,9.178 19.457 C 9.266 19.150,9.318 19.073,10.108 18.088 C 11.214 16.709,11.338 16.611,11.988 16.603 C 12.192 16.601,12.344 16.625,12.505 16.685 " stroke="none" fill-rule="evenodd" fill="black"></path></svg>