<svg width="24" height="24" viewBox="0 0 24 24" fill="none" xmlns="http://www.w3.org/2000/svg"><path d="M7.760 1.282 C 6.267 1.353,5.290 1.558,4.420 1.981 C 3.226 2.563,2.496 3.564,2.161 5.080 C 1.937 6.093,1.880 6.941,1.880 9.257 C 1.880 11.089,1.882 11.139,1.965 11.310 C 2.091 11.570,2.309 11.700,2.620 11.700 C 2.826 11.700,2.894 11.681,3.032 11.586 C 3.322 11.384,3.360 11.249,3.360 10.407 L 3.360 9.680 4.793 9.680 L 6.225 9.680 6.293 9.894 C 6.507 10.575,7.293 11.332,8.051 11.589 L 8.380 11.700 11.800 11.713 C 15.436 11.726,15.584 11.720,16.074 11.536 C 16.772 11.274,17.465 10.574,17.705 9.890 L 17.779 9.680 19.212 9.680 L 20.646 9.680 20.629 13.410 C 20.614 16.548,20.601 17.219,20.546 17.640 C 20.268 19.778,19.678 20.581,18.091 20.978 C 17.114 21.223,17.186 21.220,12.020 21.220 C 7.697 21.220,7.258 21.214,6.800 21.148 C 4.593 20.832,3.840 20.116,3.524 18.034 C 3.417 17.326,3.361 16.504,3.360 15.600 C 3.358 14.967,3.348 14.837,3.284 14.700 C 3.150 14.409,2.942 14.280,2.607 14.280 C 2.372 14.280,2.181 14.376,2.023 14.574 L 1.900 14.728 1.904 15.974 C 1.908 17.324,1.976 18.073,2.176 18.960 C 2.516 20.461,3.225 21.427,4.420 22.016 C 5.306 22.453,6.239 22.643,7.877 22.720 C 8.944 22.770,15.056 22.770,16.123 22.720 C 17.755 22.643,18.684 22.455,19.580 22.019 C 20.819 21.415,21.554 20.366,21.876 18.740 C 22.102 17.599,22.100 17.657,22.100 11.980 C 22.100 6.299,22.104 6.413,21.876 5.260 C 21.654 4.135,21.157 3.152,20.534 2.603 C 19.582 1.765,18.325 1.386,16.147 1.281 C 15.228 1.236,8.700 1.237,7.760 1.282 M17.140 2.835 C 19.508 3.197,20.222 3.911,20.517 6.212 C 20.559 6.546,20.607 7.122,20.623 7.490 L 20.651 8.160 19.205 8.160 C 17.974 8.160,17.760 8.151,17.760 8.102 C 17.760 8.071,17.675 7.877,17.570 7.672 C 17.225 6.994,16.550 6.432,15.820 6.215 C 15.599 6.149,15.303 6.143,12.160 6.130 C 8.611 6.116,8.472 6.121,7.972 6.284 C 7.291 6.507,6.500 7.289,6.294 7.944 L 6.225 8.160 4.787 8.160 L 3.349 8.160 3.376 7.510 C 3.440 6.002,3.646 4.966,4.012 4.312 C 4.472 3.490,5.291 3.058,6.760 2.863 C 7.460 2.770,7.322 2.772,12.220 2.779 C 15.610 2.785,16.904 2.799,17.140 2.835 M15.565 7.725 C 15.873 7.870,16.095 8.082,16.239 8.370 C 16.340 8.573,16.360 8.660,16.360 8.899 C 16.360 9.320,16.273 9.533,15.983 9.824 C 15.560 10.247,15.831 10.220,12.000 10.220 C 8.912 10.220,8.687 10.215,8.491 10.147 C 8.242 10.060,7.921 9.784,7.769 9.525 C 7.669 9.355,7.660 9.305,7.660 8.920 C 7.660 8.537,7.669 8.484,7.767 8.318 C 7.981 7.953,8.326 7.708,8.720 7.639 C 8.819 7.622,10.349 7.611,12.120 7.614 L 15.340 7.620 15.565 7.725 " stroke="none" fill-rule="evenodd" fill="black"></path></svg>