<svg width="24" height="24" viewBox="0 0 24 24" fill="none" xmlns="http://www.w3.org/2000/svg"><path d="M8.080 1.282 C 4.042 1.493,1.931 3.265,1.398 6.891 C 1.310 7.494,1.225 8.895,1.264 9.113 C 1.278 9.194,1.325 9.318,1.368 9.389 C 1.658 9.870,2.422 9.836,2.661 9.332 C 2.718 9.212,2.740 9.022,2.765 8.423 C 2.900 5.187,3.905 3.654,6.288 3.044 C 7.337 2.776,7.247 2.780,12.000 2.780 C 15.936 2.780,16.339 2.786,16.760 2.852 C 19.558 3.288,20.712 4.442,21.148 7.240 C 21.214 7.661,21.220 8.064,21.220 12.000 C 21.220 15.936,21.214 16.339,21.148 16.760 C 20.712 19.558,19.558 20.712,16.760 21.148 C 16.339 21.214,15.936 21.220,12.000 21.220 C 8.064 21.220,7.661 21.214,7.240 21.148 C 4.756 20.761,3.576 19.795,3.044 17.712 C 2.819 16.830,2.790 16.498,2.764 14.540 C 2.738 12.593,2.742 12.625,2.513 12.412 C 2.391 12.297,2.155 12.200,2.000 12.200 C 1.745 12.200,1.460 12.378,1.326 12.620 C 1.180 12.885,1.229 15.959,1.398 17.107 C 1.885 20.415,3.654 22.148,7.027 22.622 C 7.786 22.728,8.902 22.759,12.000 22.759 C 15.098 22.759,16.214 22.728,16.973 22.622 C 19.443 22.275,20.996 21.288,21.897 19.490 C 22.379 18.530,22.638 17.369,22.720 15.807 C 22.771 14.838,22.771 9.162,22.720 8.193 C 22.657 6.998,22.521 6.191,22.242 5.356 C 21.632 3.531,20.469 2.367,18.650 1.760 C 17.788 1.473,17.023 1.344,15.806 1.280 C 14.952 1.235,8.952 1.237,8.080 1.282 M11.756 4.200 C 11.051 4.321,10.290 5.082,9.956 6.000 C 9.866 6.248,9.861 6.315,9.848 7.467 C 9.839 8.336,9.821 8.685,9.787 8.711 C 9.761 8.731,8.912 9.104,7.900 9.539 C 6.888 9.974,5.996 10.363,5.917 10.402 C 5.645 10.539,5.369 10.796,5.166 11.099 C 4.872 11.538,4.797 11.811,4.771 12.540 C 4.729 13.714,4.910 14.188,5.527 14.523 C 5.765 14.652,5.802 14.660,6.160 14.659 L 6.540 14.659 8.180 13.955 L 9.820 13.252 9.833 13.976 L 9.845 14.700 8.987 15.540 C 8.516 16.002,8.084 16.443,8.028 16.520 C 7.880 16.725,7.760 17.119,7.760 17.401 C 7.760 17.583,7.807 17.790,7.945 18.212 C 8.266 19.194,8.411 19.422,8.852 19.638 C 9.313 19.864,9.770 19.879,10.160 19.679 C 10.237 19.640,10.684 19.283,11.154 18.887 L 12.008 18.166 12.854 18.890 C 13.837 19.730,13.984 19.816,14.440 19.813 C 14.952 19.809,15.392 19.585,15.665 19.188 C 15.748 19.067,15.879 18.744,16.023 18.308 C 16.240 17.649,16.249 17.607,16.228 17.306 C 16.191 16.758,16.089 16.605,15.072 15.576 L 14.198 14.692 14.209 13.973 L 14.220 13.255 15.740 13.909 C 16.576 14.268,17.358 14.591,17.477 14.626 C 18.118 14.814,18.830 14.492,19.114 13.886 C 19.216 13.669,19.221 13.627,19.234 12.860 C 19.242 12.341,19.231 11.983,19.200 11.840 C 19.095 11.354,18.720 10.805,18.304 10.529 C 18.166 10.437,17.226 10.008,16.130 9.536 L 14.200 8.705 14.200 7.635 C 14.200 6.315,14.151 6.039,13.815 5.465 C 13.286 4.563,12.490 4.074,11.756 4.200 M12.156 5.777 C 12.311 5.891,12.447 6.067,12.593 6.340 L 12.700 6.540 12.720 7.880 C 12.739 9.181,12.743 9.225,12.832 9.392 C 12.958 9.629,13.185 9.871,13.368 9.964 C 13.453 10.007,14.372 10.409,15.411 10.857 C 16.450 11.305,17.350 11.694,17.411 11.722 C 17.472 11.750,17.575 11.855,17.641 11.954 C 17.757 12.129,17.760 12.146,17.760 12.632 C 17.760 13.087,17.754 13.128,17.690 13.109 C 17.652 13.098,16.900 12.780,16.020 12.402 C 15.140 12.023,14.313 11.686,14.181 11.652 C 13.895 11.579,13.633 11.602,13.393 11.722 C 13.172 11.832,12.937 12.056,12.827 12.260 C 12.743 12.415,12.740 12.462,12.740 13.760 L 12.740 15.100 12.850 15.334 C 12.939 15.525,13.128 15.740,13.858 16.481 L 14.757 17.394 14.625 17.787 C 14.552 18.003,14.485 18.205,14.475 18.235 C 14.463 18.270,14.180 18.053,13.678 17.624 C 12.774 16.850,12.551 16.718,12.106 16.689 C 11.757 16.667,11.461 16.741,11.199 16.917 C 11.101 16.984,10.688 17.319,10.281 17.662 L 9.543 18.287 9.392 17.836 L 9.241 17.385 10.140 16.503 C 10.953 15.704,11.051 15.593,11.169 15.340 L 11.300 15.060 11.300 13.780 C 11.300 12.519,11.299 12.497,11.205 12.290 C 11.101 12.059,10.895 11.852,10.632 11.712 C 10.495 11.640,10.395 11.621,10.140 11.621 L 9.820 11.620 8.076 12.370 C 7.117 12.783,6.321 13.120,6.306 13.120 C 6.292 13.120,6.280 12.901,6.280 12.634 C 6.280 12.181,6.287 12.134,6.384 11.969 C 6.509 11.757,6.398 11.811,8.927 10.722 C 10.164 10.189,10.762 9.912,10.870 9.819 C 10.956 9.746,11.087 9.572,11.163 9.433 L 11.300 9.180 11.320 7.859 L 11.340 6.538 11.471 6.271 C 11.586 6.038,11.905 5.680,11.998 5.680 C 12.012 5.680,12.083 5.724,12.156 5.777 " stroke="none" fill-rule="evenodd" fill="black"></path></svg>