<svg width="24" height="24" viewBox="0 0 24 24" fill="none" xmlns="http://www.w3.org/2000/svg"><path d="M11.675 1.479 C 10.752 1.645,9.748 2.722,9.373 3.949 C 9.266 4.299,9.266 4.303,9.243 5.974 L 9.220 7.649 6.520 8.817 C 5.035 9.459,3.739 10.027,3.641 10.078 C 3.062 10.378,2.621 10.915,2.373 11.620 C 2.261 11.940,2.261 11.941,2.260 13.000 C 2.260 14.176,2.279 14.291,2.539 14.700 C 2.944 15.336,3.731 15.585,4.500 15.320 C 4.685 15.256,9.012 13.398,9.170 13.314 C 9.236 13.279,9.240 13.352,9.240 14.582 L 9.240 15.887 7.985 17.153 C 6.624 18.527,6.565 18.603,6.454 19.135 C 6.370 19.532,6.404 19.730,6.708 20.660 C 7.080 21.794,7.176 21.963,7.613 22.245 C 7.913 22.439,8.224 22.530,8.600 22.535 C 9.145 22.541,9.237 22.486,10.569 21.365 C 11.859 20.278,11.908 20.240,12.006 20.240 C 12.043 20.240,12.620 20.701,13.287 21.264 C 14.025 21.887,14.581 22.326,14.707 22.386 C 15.459 22.740,16.423 22.453,16.876 21.740 C 17.023 21.508,17.542 19.959,17.580 19.640 C 17.613 19.363,17.525 18.927,17.378 18.635 C 17.296 18.471,16.976 18.123,16.036 17.176 C 15.357 16.491,14.784 15.882,14.761 15.823 C 14.736 15.758,14.720 15.239,14.720 14.513 L 14.720 13.311 14.810 13.330 C 14.860 13.341,15.899 13.782,17.120 14.310 C 18.341 14.838,19.430 15.302,19.540 15.340 C 19.838 15.445,20.394 15.436,20.690 15.322 C 21.150 15.146,21.471 14.799,21.648 14.286 C 21.734 14.037,21.740 13.959,21.740 13.040 C 21.740 11.915,21.722 11.803,21.448 11.240 C 21.294 10.921,21.209 10.805,20.922 10.520 C 20.288 9.889,19.768 9.751,19.386 10.113 C 19.219 10.271,19.149 10.433,19.149 10.660 C 19.149 10.979,19.304 11.202,19.665 11.399 C 19.756 11.449,19.894 11.573,19.971 11.675 C 20.227 12.012,20.240 12.077,20.240 13.023 C 20.240 13.986,20.236 13.997,19.962 13.901 C 19.884 13.873,18.705 13.369,17.343 12.782 C 15.830 12.128,14.777 11.696,14.635 11.670 C 14.032 11.557,13.411 11.967,13.283 12.561 C 13.224 12.837,13.225 15.803,13.284 16.088 C 13.308 16.205,13.384 16.417,13.453 16.560 C 13.562 16.787,13.736 16.980,14.829 18.083 C 15.904 19.169,16.080 19.362,16.080 19.464 C 16.080 19.623,15.660 20.872,15.575 20.966 C 15.538 21.007,15.470 21.039,15.424 21.038 C 15.374 21.037,14.867 20.638,14.180 20.059 C 13.542 19.521,12.921 19.029,12.800 18.965 C 12.269 18.684,11.608 18.697,11.120 18.996 C 10.991 19.075,10.378 19.567,9.758 20.090 C 9.138 20.612,8.598 21.040,8.558 21.040 C 8.518 21.040,8.459 21.013,8.426 20.981 C 8.350 20.904,7.920 19.616,7.920 19.462 C 7.920 19.362,8.097 19.166,9.154 18.102 C 10.865 16.379,10.774 16.606,10.753 14.130 L 10.740 12.578 10.606 12.307 C 10.352 11.790,9.805 11.537,9.260 11.684 C 9.172 11.707,7.957 12.219,6.560 12.820 C 5.163 13.421,3.976 13.919,3.922 13.927 C 3.741 13.951,3.716 13.826,3.729 12.960 C 3.740 12.212,3.744 12.171,3.846 11.954 C 4.061 11.496,3.968 11.546,7.120 10.185 C 8.693 9.506,10.030 8.924,10.092 8.893 C 10.259 8.808,10.503 8.541,10.608 8.328 C 10.699 8.142,10.700 8.120,10.721 6.320 C 10.742 4.570,10.746 4.491,10.831 4.263 C 11.069 3.621,11.658 2.960,11.992 2.960 C 12.234 2.960,12.676 3.353,12.936 3.800 C 13.233 4.309,13.217 4.184,13.240 6.220 C 13.262 8.230,13.255 8.164,13.510 8.533 C 13.674 8.772,13.861 8.876,15.021 9.375 C 15.807 9.713,16.145 9.840,16.261 9.839 C 16.484 9.838,16.729 9.715,16.865 9.537 C 16.967 9.403,16.980 9.354,16.980 9.096 C 16.980 8.611,16.934 8.573,15.697 8.040 L 14.780 7.644 14.757 6.012 C 14.731 4.240,14.721 4.145,14.484 3.563 C 14.189 2.838,13.575 2.099,12.980 1.753 C 12.804 1.650,12.588 1.548,12.500 1.525 C 12.256 1.463,11.881 1.442,11.675 1.479 " stroke="none" fill-rule="evenodd" fill="black"></path></svg>