<svg width="24" height="24" viewBox="0 0 24 24" fill="none" xmlns="http://www.w3.org/2000/svg"><path d="M11.815 1.277 C 11.638 1.321,11.461 1.456,11.353 1.631 C 11.265 1.772,11.260 1.816,11.260 2.500 C 11.260 3.184,11.265 3.228,11.353 3.369 C 11.710 3.943,12.576 3.812,12.716 3.162 C 12.771 2.904,12.772 2.080,12.717 1.841 C 12.623 1.432,12.215 1.177,11.815 1.277 M3.815 3.277 C 3.640 3.320,3.462 3.456,3.356 3.626 C 3.235 3.822,3.232 4.173,3.350 4.364 C 3.397 4.439,3.701 4.763,4.027 5.085 C 4.562 5.612,4.639 5.673,4.810 5.710 C 5.388 5.833,5.833 5.388,5.710 4.810 C 5.673 4.639,5.612 4.562,5.085 4.027 C 4.763 3.701,4.446 3.401,4.380 3.361 C 4.234 3.273,3.984 3.236,3.815 3.277 M19.900 3.259 C 19.878 3.267,19.807 3.285,19.743 3.299 C 19.613 3.328,18.496 4.400,18.350 4.636 C 18.232 4.827,18.235 5.178,18.356 5.374 C 18.532 5.659,18.840 5.784,19.189 5.711 C 19.364 5.674,19.433 5.618,20.026 5.026 C 20.618 4.433,20.674 4.364,20.711 4.189 C 20.782 3.848,20.658 3.530,20.389 3.367 C 20.265 3.292,19.983 3.229,19.900 3.259 M11.336 5.282 C 9.294 5.415,7.297 6.227,5.700 7.571 C 3.980 9.019,2.774 11.124,2.403 13.320 C 2.266 14.134,2.242 14.857,2.241 18.124 L 2.240 21.229 1.995 21.254 C 1.534 21.302,1.267 21.578,1.267 22.003 C 1.267 22.203,1.286 22.270,1.383 22.408 C 1.448 22.499,1.572 22.610,1.660 22.656 L 1.820 22.740 11.880 22.751 C 19.099 22.758,22.000 22.749,22.154 22.717 C 22.568 22.631,22.804 22.250,22.711 21.816 C 22.639 21.480,22.296 21.240,21.886 21.240 L 21.768 21.240 21.754 20.510 C 21.741 19.818,21.735 19.771,21.640 19.606 C 21.359 19.114,20.641 19.114,20.360 19.606 C 20.265 19.771,20.259 19.818,20.246 20.510 L 20.232 21.240 11.996 21.240 L 3.760 21.240 3.760 17.790 C 3.760 14.538,3.765 14.308,3.841 13.790 C 4.233 11.124,5.908 8.826,8.340 7.619 C 9.540 7.023,10.666 6.760,12.013 6.760 C 13.331 6.760,14.470 7.025,15.642 7.605 C 17.732 8.639,19.255 10.449,19.921 12.689 C 20.154 13.474,20.206 13.876,20.235 15.100 C 20.261 16.194,20.264 16.224,20.360 16.394 C 20.640 16.886,21.359 16.886,21.640 16.394 C 21.740 16.221,21.740 16.217,21.734 15.220 C 21.725 13.613,21.536 12.582,21.018 11.312 C 19.433 7.430,15.543 5.007,11.336 5.282 " stroke="none" fill-rule="evenodd" fill="black"></path></svg>