<svg width="24" height="24" viewBox="0 0 24 24" fill="none" xmlns="http://www.w3.org/2000/svg"><path d="M11.815 1.277 C 11.638 1.321,11.461 1.456,11.353 1.631 C 11.261 1.778,11.260 1.797,11.248 3.150 L 11.235 4.520 9.688 4.520 C 8.800 4.520,8.029 4.539,7.880 4.563 C 7.029 4.700,6.379 5.163,6.054 5.864 C 5.831 6.345,5.790 6.621,5.770 7.759 C 5.743 9.305,5.839 9.853,6.247 10.463 C 6.583 10.966,7.052 11.261,7.740 11.404 C 8.056 11.470,8.292 11.479,9.670 11.479 L 11.240 11.480 11.240 12.238 L 11.240 12.996 8.590 13.009 C 5.999 13.023,5.933 13.025,5.620 13.112 C 4.875 13.318,4.383 13.706,4.089 14.320 C 3.811 14.901,3.780 15.123,3.780 16.500 C 3.780 17.877,3.811 18.098,4.089 18.680 C 4.380 19.291,4.873 19.678,5.626 19.889 C 5.932 19.975,6.005 19.977,8.587 19.991 L 11.234 20.004 11.247 21.112 C 11.260 22.190,11.262 22.224,11.353 22.369 C 11.710 22.943,12.576 22.812,12.716 22.162 C 12.741 22.044,12.760 21.542,12.760 20.980 L 12.760 20.004 15.410 19.990 C 18.301 19.973,18.250 19.977,18.838 19.732 C 19.071 19.634,19.457 19.364,19.592 19.202 C 19.902 18.833,20.120 18.295,20.198 17.707 C 20.252 17.303,20.252 15.697,20.198 15.293 C 20.120 14.705,19.902 14.167,19.592 13.798 C 19.457 13.636,19.071 13.366,18.838 13.268 C 18.250 13.023,18.301 13.027,15.410 13.010 L 12.760 12.996 12.760 12.238 L 12.760 11.480 14.330 11.479 C 15.708 11.479,15.944 11.470,16.260 11.404 C 17.370 11.173,17.987 10.495,18.183 9.291 C 18.250 8.875,18.257 8.410,18.197 8.253 C 18.095 7.980,17.807 7.789,17.500 7.789 C 17.273 7.789,17.111 7.859,16.953 8.026 C 16.809 8.178,16.760 8.320,16.759 8.593 C 16.757 8.868,16.667 9.393,16.599 9.525 C 16.507 9.703,16.348 9.838,16.144 9.909 C 15.954 9.975,15.672 9.980,12.000 9.980 C 8.297 9.980,8.047 9.976,7.852 9.907 C 7.590 9.816,7.425 9.632,7.331 9.330 C 7.270 9.133,7.260 8.941,7.260 8.000 C 7.260 6.773,7.292 6.566,7.522 6.304 C 7.781 6.009,7.577 6.023,11.820 6.001 C 15.257 5.982,15.631 5.974,15.740 5.914 C 16.000 5.770,16.131 5.550,16.131 5.258 C 16.131 4.988,15.997 4.745,15.777 4.616 L 15.613 4.520 14.186 4.520 L 12.760 4.520 12.759 3.270 C 12.758 1.950,12.737 1.742,12.580 1.536 C 12.421 1.327,12.078 1.211,11.815 1.277 M18.105 14.575 C 18.641 14.769,18.759 15.118,18.759 16.500 C 18.759 17.882,18.641 18.231,18.105 18.425 C 17.909 18.497,17.646 18.501,12.240 18.512 C 8.622 18.519,6.461 18.509,6.249 18.483 C 5.776 18.425,5.569 18.313,5.431 18.037 C 5.279 17.735,5.241 17.425,5.241 16.500 C 5.241 15.575,5.279 15.265,5.431 14.963 C 5.519 14.787,5.577 14.727,5.731 14.650 C 5.837 14.598,6.035 14.540,6.171 14.522 C 6.308 14.504,9.003 14.491,12.160 14.494 C 17.653 14.500,17.909 14.503,18.105 14.575 " stroke="none" fill-rule="evenodd" fill="black"></path></svg>