<svg width="24" height="24" viewBox="0 0 24 24" fill="none" xmlns="http://www.w3.org/2000/svg"><path d="M6.380 3.787 C 6.017 3.832,5.621 3.945,5.320 4.089 C 4.706 4.383,4.318 4.875,4.112 5.620 C 4.025 5.933,4.023 5.999,4.009 8.587 L 3.996 11.234 2.885 11.247 L 1.774 11.260 1.612 11.367 C 1.372 11.526,1.267 11.721,1.267 12.007 C 1.267 12.203,1.286 12.270,1.383 12.408 C 1.607 12.724,1.671 12.738,2.908 12.753 L 3.996 12.766 4.009 15.413 C 4.023 18.001,4.025 18.067,4.112 18.380 C 4.317 19.121,4.711 19.621,5.320 19.911 C 5.869 20.172,6.110 20.212,7.289 20.231 C 8.432 20.250,8.837 20.215,9.352 20.053 C 9.638 19.964,9.981 19.778,10.202 19.592 C 10.364 19.457,10.634 19.071,10.732 18.838 C 10.977 18.250,10.973 18.301,10.990 15.410 L 11.004 12.760 11.762 12.760 L 12.520 12.760 12.520 14.310 C 12.520 15.162,12.538 15.968,12.559 16.100 C 12.738 17.210,13.393 17.907,14.480 18.144 C 14.808 18.216,15.461 18.260,15.654 18.224 C 15.823 18.192,16.055 18.005,16.148 17.825 C 16.230 17.667,16.230 17.333,16.148 17.175 C 16.056 16.998,15.823 16.807,15.671 16.784 C 15.599 16.773,15.383 16.753,15.190 16.740 C 14.524 16.694,14.227 16.534,14.093 16.148 C 14.024 15.953,14.020 15.703,14.020 12.000 C 14.020 8.297,14.024 8.047,14.093 7.852 C 14.184 7.590,14.368 7.425,14.670 7.331 C 14.867 7.270,15.059 7.260,16.000 7.260 C 17.227 7.260,17.434 7.292,17.696 7.522 C 17.991 7.781,17.977 7.577,17.999 11.820 C 18.018 15.257,18.026 15.631,18.086 15.740 C 18.230 16.001,18.450 16.131,18.745 16.131 C 19.014 16.131,19.266 15.989,19.390 15.768 C 19.479 15.612,19.480 15.586,19.480 14.187 L 19.480 12.765 20.830 12.752 C 22.108 12.741,22.188 12.736,22.340 12.656 C 22.428 12.610,22.553 12.499,22.617 12.408 C 22.714 12.270,22.733 12.203,22.733 12.003 C 22.733 11.718,22.615 11.506,22.373 11.355 C 22.221 11.261,22.212 11.260,20.853 11.248 L 19.485 11.235 19.470 9.528 C 19.456 7.893,19.451 7.807,19.365 7.520 C 19.157 6.833,18.775 6.364,18.194 6.086 C 17.618 5.811,17.397 5.780,16.000 5.780 C 15.008 5.781,14.728 5.793,14.500 5.847 C 13.373 6.112,12.739 6.783,12.559 7.900 C 12.538 8.032,12.520 8.838,12.520 9.690 L 12.520 11.240 11.762 11.240 L 11.004 11.240 10.989 8.590 C 10.976 6.198,10.967 5.913,10.902 5.660 C 10.626 4.586,9.949 3.991,8.808 3.819 C 8.450 3.765,6.737 3.742,6.380 3.787 M8.560 5.283 C 9.073 5.366,9.300 5.532,9.426 5.916 C 9.497 6.129,9.500 6.414,9.500 12.000 C 9.500 17.586,9.497 17.871,9.426 18.084 C 9.244 18.638,8.899 18.759,7.500 18.759 C 6.575 18.759,6.265 18.721,5.963 18.569 C 5.696 18.435,5.577 18.226,5.520 17.792 C 5.470 17.403,5.470 6.597,5.520 6.208 C 5.577 5.775,5.696 5.565,5.963 5.430 C 6.082 5.370,6.279 5.304,6.400 5.285 C 6.714 5.234,8.252 5.233,8.560 5.283 " stroke="none" fill-rule="evenodd" fill="black"></path></svg>