<svg width="24" height="24" viewBox="0 0 24 24" fill="none" xmlns="http://www.w3.org/2000/svg"><path d="M18.720 1.304 C 18.550 1.378,18.414 1.500,18.326 1.660 C 18.269 1.764,18.258 1.966,18.248 3.150 L 18.235 4.520 15.068 4.520 C 12.131 4.520,11.890 4.525,11.763 4.590 C 11.266 4.844,11.225 5.544,11.688 5.866 L 11.853 5.980 15.047 5.991 L 18.240 6.002 18.240 8.001 L 18.240 10.000 15.002 10.000 C 12.783 10.000,11.697 9.986,11.552 9.956 C 11.274 9.897,11.054 9.773,10.960 9.619 C 10.852 9.445,10.760 9.065,10.760 8.794 C 10.760 8.403,10.690 8.170,10.522 8.002 C 10.108 7.588,9.406 7.785,9.277 8.353 C 9.234 8.540,9.297 9.299,9.383 9.640 C 9.561 10.345,9.995 10.909,10.566 11.179 C 11.191 11.473,10.954 11.457,14.790 11.470 L 18.240 11.483 18.240 12.241 L 18.240 13.000 12.543 13.000 C 8.728 13.000,6.742 13.014,6.533 13.043 C 5.381 13.200,4.688 13.771,4.402 14.801 C 4.187 15.575,4.187 17.425,4.402 18.199 C 4.688 19.229,5.381 19.800,6.533 19.957 C 6.742 19.986,8.728 20.000,12.540 20.000 L 18.234 20.000 18.247 21.090 L 18.260 22.180 18.366 22.360 C 18.652 22.846,19.348 22.846,19.634 22.360 L 19.740 22.180 19.740 12.020 C 19.740 6.432,19.727 1.812,19.710 1.753 C 19.636 1.491,19.289 1.241,19.000 1.242 C 18.923 1.243,18.797 1.270,18.720 1.304 M18.240 16.500 L 18.240 18.520 12.630 18.519 C 9.248 18.518,6.901 18.502,6.721 18.479 C 6.204 18.412,5.953 18.227,5.830 17.824 C 5.760 17.594,5.760 15.406,5.830 15.176 C 5.949 14.784,6.211 14.585,6.685 14.523 C 6.825 14.505,9.482 14.488,12.590 14.485 L 18.240 14.480 18.240 16.500 " stroke="none" fill-rule="evenodd" fill="black"></path></svg>