<svg width="24" height="24" viewBox="0 0 24 24" fill="none" xmlns="http://www.w3.org/2000/svg"><path d="M1.815 4.278 C 1.331 4.393,1.098 5.004,1.383 5.408 C 1.448 5.499,1.572 5.610,1.660 5.656 C 1.812 5.736,1.892 5.741,3.170 5.752 L 4.520 5.765 4.521 8.912 C 4.522 11.881,4.526 12.069,4.595 12.220 C 4.683 12.410,4.772 12.496,4.970 12.578 C 5.158 12.657,5.362 12.657,5.550 12.578 C 5.748 12.496,5.837 12.410,5.925 12.220 C 5.994 12.069,5.998 11.881,5.999 8.910 L 6.000 5.760 8.000 5.760 L 10.000 5.760 10.000 9.032 C 10.000 11.829,9.991 12.337,9.939 12.537 C 9.806 13.047,9.594 13.174,8.770 13.239 C 8.239 13.281,8.047 13.366,7.896 13.623 C 7.704 13.951,7.806 14.418,8.111 14.607 C 8.317 14.734,8.496 14.758,8.961 14.720 C 9.804 14.651,10.331 14.438,10.781 13.984 C 11.105 13.658,11.271 13.352,11.406 12.838 C 11.493 12.505,11.494 12.452,11.510 9.130 L 11.525 5.760 12.263 5.760 L 13.000 5.760 13.001 11.350 C 13.002 14.551,13.018 17.102,13.040 17.320 C 13.173 18.656,13.803 19.387,15.060 19.664 C 15.324 19.722,15.580 19.734,16.520 19.734 C 17.545 19.734,17.698 19.726,18.034 19.648 C 19.043 19.415,19.627 18.863,19.905 17.880 C 19.974 17.634,19.979 17.301,19.990 11.690 L 20.002 5.760 20.979 5.760 C 22.135 5.760,22.307 5.733,22.520 5.520 C 22.918 5.122,22.730 4.423,22.189 4.286 C 21.978 4.233,2.036 4.225,1.815 4.278 M18.511 11.590 C 18.498 18.157,18.521 17.696,18.200 17.971 C 17.937 18.195,17.846 18.211,16.661 18.230 C 15.024 18.256,14.766 18.173,14.584 17.563 C 14.526 17.367,14.520 16.764,14.520 11.553 L 14.520 5.760 16.521 5.760 L 18.522 5.760 18.511 11.590 " stroke="none" fill-rule="evenodd" fill="black"></path></svg>