<svg width="24" height="24" viewBox="0 0 24 24" fill="none" xmlns="http://www.w3.org/2000/svg"><path d="M4.698 1.315 C 4.517 1.398,4.335 1.593,4.290 1.753 C 4.273 1.812,4.260 6.432,4.260 12.020 L 4.260 22.180 4.366 22.360 C 4.652 22.846,5.348 22.846,5.634 22.360 L 5.740 22.180 5.753 21.090 L 5.766 20.000 11.460 20.000 C 15.272 20.000,17.258 19.986,17.467 19.957 C 18.619 19.800,19.311 19.229,19.598 18.199 C 19.810 17.438,19.810 15.562,19.598 14.801 C 19.311 13.771,18.619 13.200,17.467 13.043 C 17.258 13.014,15.272 13.000,11.457 13.000 L 5.760 13.000 5.760 12.241 L 5.760 11.483 9.210 11.470 C 13.046 11.457,12.826 11.472,13.426 11.179 C 14.073 10.863,14.461 10.322,14.661 9.460 C 14.722 9.194,14.753 8.536,14.713 8.346 C 14.607 7.849,13.986 7.616,13.566 7.916 C 13.339 8.077,13.278 8.232,13.239 8.749 C 13.175 9.596,13.017 9.836,12.448 9.956 C 12.303 9.986,11.217 10.000,8.998 10.000 L 5.760 10.000 5.760 8.001 L 5.760 6.002 8.953 5.991 L 12.147 5.980 12.312 5.866 C 12.509 5.729,12.640 5.481,12.640 5.246 C 12.640 4.961,12.439 4.658,12.187 4.563 C 12.111 4.534,11.057 4.520,8.920 4.520 L 5.765 4.520 5.752 3.150 C 5.742 1.966,5.731 1.764,5.674 1.660 C 5.474 1.297,5.060 1.151,4.698 1.315 M17.279 14.521 C 17.796 14.588,18.047 14.773,18.170 15.176 C 18.240 15.406,18.240 17.594,18.170 17.824 C 18.047 18.227,17.796 18.412,17.279 18.479 C 17.099 18.502,14.752 18.518,11.370 18.519 L 5.760 18.520 5.760 16.500 L 5.760 14.480 11.370 14.481 C 14.752 14.482,17.099 14.498,17.279 14.521 " stroke="none" fill-rule="evenodd" fill="black"></path></svg>