<svg width="24" height="24" viewBox="0 0 24 24" fill="none" xmlns="http://www.w3.org/2000/svg"><path d="M11.393 1.281 C 9.318 1.436,7.327 2.476,6.001 4.099 C 5.224 5.050,4.632 6.308,4.403 7.495 C 4.303 8.014,4.230 8.965,4.275 9.162 C 4.450 9.921,5.553 9.921,5.716 9.162 C 5.740 9.049,5.760 8.844,5.761 8.708 C 5.763 7.822,6.163 6.532,6.699 5.680 C 7.155 4.956,7.954 4.157,8.680 3.700 C 9.146 3.406,9.911 3.082,10.480 2.938 C 11.187 2.759,12.193 2.708,12.900 2.817 C 15.658 3.239,17.761 5.342,18.183 8.100 C 18.254 8.562,18.254 9.438,18.183 9.900 C 17.976 11.254,17.399 12.409,16.449 13.374 C 15.928 13.903,15.448 14.255,14.804 14.578 C 13.973 14.995,13.025 15.236,12.200 15.240 C 11.700 15.243,11.448 15.380,11.302 15.729 C 11.251 15.852,11.240 16.083,11.240 17.056 L 11.240 18.235 10.007 18.247 L 8.774 18.260 8.612 18.367 C 8.372 18.526,8.267 18.721,8.267 19.007 C 8.267 19.203,8.286 19.270,8.383 19.408 C 8.610 19.729,8.656 19.738,10.027 19.753 L 11.235 19.765 11.247 20.993 C 11.260 22.196,11.262 22.223,11.353 22.369 C 11.710 22.943,12.576 22.812,12.716 22.162 C 12.742 22.040,12.760 21.509,12.760 20.858 L 12.760 19.760 13.858 19.760 C 15.144 19.760,15.303 19.737,15.520 19.520 C 15.918 19.122,15.730 18.423,15.189 18.286 C 15.071 18.257,14.600 18.240,13.882 18.240 L 12.760 18.240 12.760 17.484 C 12.760 16.662,12.755 16.680,12.993 16.680 C 13.052 16.680,13.311 16.636,13.568 16.582 C 15.570 16.166,17.308 14.991,18.459 13.277 C 18.584 13.092,18.801 12.706,18.942 12.420 C 20.663 8.929,19.524 4.708,16.277 2.542 C 14.871 1.604,13.121 1.152,11.393 1.281 " stroke="none" fill-rule="evenodd" fill="black"></path></svg>