<svg width="24" height="24" viewBox="0 0 24 24" fill="none" xmlns="http://www.w3.org/2000/svg"><path d="M6.732 1.284 C 5.471 1.396,4.282 2.065,3.514 3.093 C 2.963 3.832,2.682 4.560,2.604 5.451 C 2.555 6.016,2.595 6.189,2.827 6.407 C 3.103 6.669,3.537 6.669,3.814 6.407 C 3.996 6.235,4.041 6.105,4.083 5.630 C 4.127 5.127,4.266 4.664,4.485 4.290 C 4.668 3.977,5.318 3.336,5.640 3.149 C 5.783 3.066,6.044 2.949,6.220 2.889 L 6.540 2.780 12.000 2.780 L 17.460 2.780 17.767 2.885 C 18.286 3.062,18.582 3.253,19.022 3.696 C 19.367 4.043,19.450 4.154,19.611 4.480 C 19.970 5.209,19.940 4.446,19.940 12.880 C 19.940 19.828,19.935 20.355,19.871 20.563 C 19.777 20.866,19.650 21.042,19.442 21.157 C 19.220 21.279,18.911 21.283,18.588 21.168 C 18.461 21.122,17.185 20.434,15.754 19.639 C 14.322 18.843,13.054 18.159,12.934 18.118 C 12.448 17.951,11.771 17.929,11.253 18.064 C 10.959 18.140,10.822 18.212,8.057 19.748 C 6.713 20.494,5.512 21.137,5.388 21.176 C 4.958 21.311,4.630 21.256,4.389 21.009 C 4.079 20.691,4.102 21.137,4.080 15.160 C 4.062 10.282,4.054 9.810,3.994 9.700 C 3.741 9.244,3.183 9.136,2.826 9.473 C 2.561 9.724,2.581 9.302,2.569 14.840 C 2.561 18.052,2.572 20.009,2.598 20.272 C 2.681 21.104,2.887 21.603,3.340 22.064 C 4.066 22.804,5.115 22.943,6.220 22.445 C 6.396 22.366,7.638 21.691,8.980 20.945 C 10.322 20.199,11.482 19.563,11.557 19.531 C 11.765 19.443,12.267 19.453,12.485 19.549 C 12.583 19.593,13.734 20.223,15.042 20.949 C 16.350 21.676,17.519 22.320,17.640 22.381 C 18.220 22.673,18.869 22.801,19.381 22.725 C 20.187 22.605,20.775 22.164,21.122 21.420 C 21.442 20.736,21.415 21.432,21.431 13.180 C 21.440 8.070,21.431 5.689,21.401 5.390 C 21.291 4.300,20.790 3.292,19.976 2.520 C 19.192 1.776,18.302 1.379,17.196 1.281 C 16.648 1.233,7.279 1.235,6.732 1.284 M14.780 7.822 C 14.714 7.856,13.859 8.684,12.880 9.662 L 11.099 11.440 10.620 10.957 C 10.049 10.383,9.877 10.269,9.586 10.269 C 9.262 10.269,9.029 10.425,8.902 10.729 C 8.820 10.924,8.825 11.104,8.916 11.300 C 9.007 11.494,10.646 13.135,10.813 13.197 C 10.986 13.263,11.238 13.248,11.417 13.161 C 11.525 13.109,12.283 12.378,13.666 10.991 C 15.551 9.102,15.757 8.883,15.800 8.722 C 15.896 8.361,15.738 7.994,15.423 7.841 C 15.223 7.745,14.947 7.736,14.780 7.822 " stroke="none" fill-rule="evenodd" fill="black"></path></svg>