<svg width="24" height="24" viewBox="0 0 24 24" fill="none" xmlns="http://www.w3.org/2000/svg"><path d="M6.732 1.284 C 5.471 1.396,4.282 2.065,3.514 3.093 C 2.963 3.832,2.682 4.560,2.604 5.451 C 2.555 6.016,2.595 6.189,2.827 6.407 C 3.103 6.669,3.537 6.669,3.814 6.407 C 3.996 6.235,4.041 6.105,4.083 5.630 C 4.127 5.127,4.266 4.664,4.485 4.290 C 4.668 3.977,5.318 3.336,5.640 3.149 C 5.783 3.066,6.044 2.949,6.220 2.889 L 6.540 2.780 12.000 2.780 L 17.460 2.780 17.767 2.885 C 18.286 3.062,18.582 3.253,19.022 3.696 C 19.367 4.043,19.450 4.154,19.611 4.480 C 19.967 5.203,19.935 4.449,19.950 12.640 C 19.959 17.444,19.949 20.015,19.922 20.239 C 19.869 20.674,19.732 20.965,19.509 21.112 C 19.365 21.207,19.306 21.220,19.023 21.220 C 18.745 21.220,18.664 21.203,18.438 21.096 C 18.294 21.028,17.079 20.363,15.738 19.619 C 14.397 18.876,13.209 18.225,13.098 18.174 C 12.770 18.024,12.315 17.947,11.881 17.970 C 11.177 18.007,11.174 18.008,8.507 19.491 C 7.161 20.239,5.894 20.932,5.690 21.031 C 4.943 21.394,4.463 21.288,4.192 20.700 L 4.100 20.500 4.080 15.160 L 4.060 9.820 3.954 9.640 C 3.815 9.403,3.597 9.280,3.320 9.280 C 3.043 9.280,2.825 9.403,2.686 9.640 L 2.580 9.820 2.580 15.100 C 2.580 21.087,2.561 20.722,2.905 21.434 C 3.218 22.081,3.811 22.564,4.435 22.680 C 4.975 22.780,5.682 22.687,6.209 22.448 C 6.347 22.385,7.531 21.739,8.840 21.012 C 11.678 19.437,11.579 19.488,11.851 19.456 C 12.270 19.407,12.336 19.437,15.053 20.948 C 16.465 21.733,17.737 22.423,17.880 22.482 C 18.307 22.657,18.664 22.730,19.080 22.728 C 20.203 22.722,21.027 22.027,21.344 20.820 C 21.413 20.554,21.418 20.168,21.431 13.180 C 21.440 8.070,21.431 5.689,21.401 5.390 C 21.291 4.300,20.790 3.292,19.976 2.520 C 19.192 1.776,18.302 1.379,17.196 1.281 C 16.648 1.233,7.279 1.235,6.732 1.284 M9.163 9.990 C 8.666 10.244,8.625 10.944,9.088 11.266 L 9.253 11.380 12.000 11.380 L 14.747 11.380 14.912 11.266 C 15.109 11.129,15.240 10.881,15.240 10.646 C 15.240 10.361,15.039 10.058,14.787 9.963 C 14.712 9.934,13.794 9.920,11.987 9.920 C 9.508 9.920,9.289 9.926,9.163 9.990 " stroke="none" fill-rule="evenodd" fill="black"></path></svg>