<svg width="24" height="24" viewBox="0 0 24 24" fill="none" xmlns="http://www.w3.org/2000/svg"><path d="M7.400 1.282 C 4.652 1.459,2.905 2.910,2.403 5.434 C 2.307 5.914,2.231 6.962,2.277 7.166 C 2.394 7.686,3.033 7.909,3.464 7.580 C 3.673 7.420,3.724 7.254,3.765 6.606 C 3.861 5.065,4.351 4.052,5.307 3.415 C 5.810 3.080,6.611 2.833,7.383 2.777 L 7.758 2.749 7.769 6.485 L 7.780 10.220 7.872 10.392 C 8.165 10.940,8.726 11.205,9.289 11.061 C 9.425 11.026,9.590 10.964,9.654 10.923 C 9.719 10.882,10.268 10.392,10.873 9.834 C 11.478 9.276,11.985 8.820,12.000 8.820 C 12.015 8.820,12.524 9.279,13.131 9.840 C 14.382 10.995,14.521 11.091,14.956 11.093 C 15.465 11.096,15.861 10.869,16.101 10.434 L 16.220 10.220 16.231 8.025 C 16.242 5.876,16.241 5.827,16.160 5.660 C 15.986 5.301,15.539 5.146,15.181 5.320 C 15.065 5.376,14.954 5.471,14.887 5.572 L 14.780 5.734 14.760 7.509 L 14.740 9.285 13.740 8.362 C 12.583 7.293,12.479 7.225,12.000 7.225 C 11.527 7.225,11.411 7.299,10.336 8.289 C 9.828 8.757,9.374 9.174,9.326 9.216 L 9.240 9.292 9.240 6.025 L 9.240 2.757 13.110 2.770 L 16.980 2.784 17.405 2.889 C 18.196 3.084,18.718 3.358,19.180 3.820 C 19.648 4.288,19.921 4.812,20.113 5.615 L 20.220 6.060 20.220 12.000 L 20.220 17.940 20.113 18.385 C 19.921 19.188,19.648 19.712,19.180 20.180 C 18.712 20.648,18.188 20.921,17.385 21.113 L 16.940 21.220 12.000 21.220 L 7.060 21.220 6.615 21.113 C 5.091 20.748,4.262 19.924,3.889 18.405 L 3.785 17.980 3.763 14.360 C 3.742 11.093,3.734 10.728,3.674 10.620 C 3.540 10.378,3.255 10.200,3.000 10.200 C 2.745 10.200,2.460 10.378,2.326 10.620 C 2.267 10.728,2.259 11.038,2.248 13.740 C 2.235 16.939,2.264 17.872,2.402 18.562 C 2.660 19.857,3.283 20.936,4.155 21.594 C 5.105 22.312,6.030 22.625,7.480 22.720 C 8.235 22.770,15.765 22.770,16.520 22.720 C 16.839 22.700,17.253 22.656,17.441 22.623 C 19.703 22.226,21.146 20.813,21.599 18.555 C 21.740 17.850,21.760 17.062,21.760 12.000 C 21.760 6.926,21.741 6.153,21.597 5.434 C 21.340 4.143,20.715 3.063,19.845 2.406 C 18.895 1.688,17.970 1.375,16.520 1.280 C 15.849 1.236,8.086 1.237,7.400 1.282 M13.094 13.277 C 12.436 13.439,12.303 14.307,12.886 14.640 L 13.060 14.740 15.340 14.740 C 16.594 14.740,17.669 14.726,17.729 14.709 C 17.881 14.667,18.121 14.447,18.186 14.292 C 18.297 14.027,18.241 13.711,18.047 13.506 C 17.804 13.249,17.920 13.261,15.460 13.253 C 14.228 13.250,13.163 13.260,13.094 13.277 M8.815 17.278 C 8.330 17.395,8.098 18.004,8.383 18.408 C 8.447 18.499,8.572 18.610,8.660 18.656 C 8.819 18.740,8.835 18.740,13.220 18.740 C 15.640 18.740,17.669 18.726,17.729 18.709 C 17.881 18.667,18.121 18.447,18.186 18.292 C 18.297 18.027,18.241 17.711,18.047 17.506 C 17.797 17.242,18.151 17.261,13.320 17.254 C 10.911 17.250,8.884 17.261,8.815 17.278 " stroke="none" fill-rule="evenodd" fill="black"></path></svg>