<svg width="24" height="24" viewBox="0 0 24 24" fill="none" xmlns="http://www.w3.org/2000/svg"><path d="M6.732 1.284 C 5.471 1.396,4.282 2.065,3.514 3.093 C 2.963 3.832,2.682 4.560,2.604 5.451 C 2.555 6.016,2.595 6.189,2.827 6.407 C 3.103 6.669,3.537 6.669,3.814 6.407 C 3.996 6.235,4.041 6.105,4.083 5.630 C 4.127 5.127,4.266 4.664,4.485 4.290 C 4.668 3.977,5.318 3.336,5.640 3.149 C 5.783 3.066,6.044 2.949,6.220 2.889 L 6.540 2.780 12.000 2.780 L 17.460 2.780 17.767 2.885 C 18.286 3.062,18.582 3.253,19.022 3.696 C 19.367 4.043,19.450 4.154,19.611 4.480 C 19.970 5.209,19.940 4.446,19.940 12.880 C 19.940 19.828,19.935 20.355,19.871 20.563 C 19.777 20.866,19.650 21.042,19.442 21.157 C 19.220 21.279,18.911 21.283,18.588 21.168 C 18.461 21.122,17.185 20.434,15.754 19.639 C 14.322 18.843,13.054 18.159,12.934 18.118 C 12.448 17.951,11.771 17.929,11.253 18.064 C 10.959 18.140,10.822 18.212,8.057 19.748 C 6.713 20.494,5.512 21.137,5.388 21.176 C 4.958 21.311,4.630 21.256,4.389 21.009 C 4.079 20.691,4.102 21.137,4.080 15.160 C 4.061 10.025,4.057 9.814,3.984 9.668 C 3.679 9.053,2.748 9.168,2.604 9.838 C 2.547 10.107,2.543 19.770,2.601 20.315 C 2.685 21.112,2.896 21.612,3.340 22.064 C 4.066 22.804,5.115 22.943,6.220 22.445 C 6.396 22.366,7.638 21.691,8.980 20.945 C 10.322 20.199,11.482 19.563,11.557 19.531 C 11.765 19.443,12.267 19.453,12.485 19.549 C 12.583 19.593,13.734 20.223,15.042 20.949 C 16.350 21.676,17.519 22.320,17.640 22.381 C 18.220 22.673,18.869 22.801,19.381 22.725 C 20.187 22.605,20.775 22.164,21.122 21.420 C 21.442 20.736,21.415 21.432,21.431 13.180 C 21.440 8.070,21.431 5.689,21.401 5.390 C 21.291 4.300,20.790 3.292,19.976 2.520 C 19.192 1.776,18.302 1.379,17.196 1.281 C 16.648 1.233,7.279 1.235,6.732 1.284 M8.940 8.377 C 8.791 8.443,8.619 8.624,8.563 8.773 C 8.495 8.950,8.512 9.228,8.601 9.402 C 8.709 9.613,8.900 9.729,9.380 9.875 C 10.321 10.160,10.989 10.258,12.000 10.258 C 12.790 10.258,13.197 10.218,13.860 10.074 C 14.400 9.957,15.001 9.766,15.169 9.657 C 15.545 9.413,15.589 8.825,15.255 8.513 C 15.011 8.284,14.755 8.266,14.209 8.439 C 13.678 8.606,13.139 8.710,12.530 8.761 C 11.659 8.834,10.681 8.719,9.791 8.439 C 9.389 8.312,9.128 8.293,8.940 8.377 " stroke="none" fill-rule="evenodd" fill="black"></path></svg>