<svg width="24" height="24" viewBox="0 0 24 24" fill="none" xmlns="http://www.w3.org/2000/svg"><path d="M11.560 1.267 C 10.326 1.322,9.152 1.571,8.041 2.012 C 7.427 2.256,7.240 2.454,7.240 2.860 C 7.240 3.229,7.525 3.548,7.892 3.589 C 8.032 3.605,8.152 3.574,8.523 3.428 C 9.718 2.955,10.735 2.760,12.006 2.760 C 13.464 2.760,14.754 3.058,16.060 3.698 C 17.024 4.170,17.648 4.611,18.434 5.378 C 19.273 6.195,19.814 6.937,20.303 7.940 C 20.944 9.253,21.240 10.537,21.240 12.000 C 21.240 13.465,20.943 14.752,20.302 16.060 C 19.830 17.024,19.389 17.648,18.622 18.434 C 17.805 19.273,17.063 19.814,16.060 20.303 C 14.747 20.944,13.463 21.240,12.000 21.240 C 10.537 21.240,9.253 20.944,7.940 20.303 C 6.937 19.814,6.195 19.273,5.378 18.434 C 4.611 17.648,4.170 17.024,3.698 16.060 C 3.058 14.754,2.760 13.464,2.760 12.005 C 2.760 10.060,3.331 8.256,4.457 6.648 C 4.701 6.298,4.770 6.095,4.724 5.855 C 4.656 5.497,4.372 5.267,4.000 5.267 C 3.678 5.267,3.534 5.369,3.222 5.816 C 1.432 8.383,0.834 11.537,1.564 14.550 C 1.904 15.951,2.529 17.268,3.424 18.470 C 3.880 19.083,4.909 20.111,5.530 20.575 C 7.606 22.126,10.070 22.870,12.627 22.717 C 14.790 22.588,16.724 21.879,18.470 20.575 C 19.087 20.115,20.115 19.087,20.575 18.470 C 22.127 16.391,22.870 13.930,22.717 11.373 C 22.588 9.210,21.879 7.276,20.575 5.530 C 20.115 4.913,19.087 3.885,18.470 3.425 C 17.047 2.362,15.454 1.679,13.742 1.398 C 13.325 1.330,12.055 1.227,11.880 1.248 C 11.847 1.252,11.703 1.261,11.560 1.267 M13.660 6.117 C 13.594 6.133,13.502 6.167,13.455 6.192 C 13.314 6.268,13.125 6.511,13.100 6.649 C 13.087 6.721,13.082 8.493,13.088 10.586 L 13.100 14.393 13.223 14.546 C 13.383 14.747,13.572 14.840,13.820 14.840 C 14.068 14.840,14.257 14.747,14.417 14.546 L 14.540 14.393 14.551 11.530 L 14.562 8.667 15.512 9.609 C 16.544 10.633,16.612 10.680,16.978 10.622 C 17.428 10.551,17.719 10.043,17.558 9.613 C 17.511 9.487,14.318 6.265,14.160 6.183 C 14.023 6.111,13.804 6.083,13.660 6.117 M9.843 6.190 C 9.767 6.229,9.650 6.329,9.583 6.414 L 9.460 6.567 9.449 10.951 L 9.439 15.335 8.489 14.392 C 7.458 13.366,7.390 13.320,7.022 13.378 C 6.555 13.452,6.259 14.001,6.464 14.412 C 6.543 14.570,9.694 17.741,9.859 17.828 C 10.011 17.909,10.347 17.910,10.501 17.829 C 10.656 17.748,10.824 17.569,10.877 17.427 C 10.907 17.350,10.920 15.657,10.920 11.996 C 10.920 6.846,10.918 6.672,10.844 6.528 C 10.752 6.349,10.619 6.220,10.467 6.163 C 10.298 6.098,9.997 6.111,9.843 6.190 M13.595 15.916 C 13.415 15.975,13.243 16.128,13.157 16.307 C 13.084 16.458,13.075 16.538,13.087 16.956 C 13.100 17.419,13.103 17.437,13.223 17.586 C 13.383 17.787,13.572 17.880,13.820 17.880 C 14.068 17.880,14.257 17.787,14.417 17.586 C 14.537 17.437,14.540 17.419,14.553 16.956 C 14.565 16.535,14.557 16.459,14.482 16.304 C 14.371 16.076,14.150 15.923,13.896 15.900 C 13.788 15.890,13.653 15.898,13.595 15.916 " stroke="none" fill-rule="evenodd" fill="black"></path></svg>