<svg width="24" height="24" viewBox="0 0 24 24" fill="none" xmlns="http://www.w3.org/2000/svg"><path d="M8.080 1.282 C 4.042 1.493,1.931 3.265,1.398 6.891 C 1.310 7.494,1.225 8.895,1.264 9.113 C 1.278 9.194,1.325 9.318,1.368 9.389 C 1.658 9.870,2.422 9.836,2.661 9.332 C 2.718 9.212,2.740 9.022,2.765 8.423 C 2.900 5.187,3.905 3.654,6.288 3.044 C 7.337 2.776,7.247 2.780,12.000 2.780 C 15.936 2.780,16.339 2.786,16.760 2.852 C 19.558 3.288,20.712 4.442,21.148 7.240 C 21.214 7.661,21.220 8.064,21.220 12.000 C 21.220 15.936,21.214 16.339,21.148 16.760 C 20.712 19.558,19.558 20.712,16.760 21.148 C 16.339 21.214,15.936 21.220,12.000 21.220 C 8.064 21.220,7.661 21.214,7.240 21.148 C 4.756 20.761,3.576 19.795,3.044 17.712 C 2.844 16.928,2.793 16.449,2.764 15.080 C 2.735 13.687,2.722 13.616,2.464 13.421 C 2.095 13.142,1.598 13.236,1.353 13.631 C 1.271 13.763,1.259 13.841,1.246 14.325 C 1.226 15.057,1.302 16.458,1.398 17.107 C 1.885 20.415,3.654 22.148,7.027 22.622 C 7.786 22.728,8.902 22.759,12.000 22.759 C 15.098 22.759,16.214 22.728,16.973 22.622 C 19.443 22.275,20.996 21.288,21.897 19.490 C 22.379 18.530,22.638 17.369,22.720 15.807 C 22.771 14.838,22.771 9.162,22.720 8.193 C 22.657 6.998,22.521 6.191,22.242 5.356 C 21.632 3.531,20.469 2.367,18.650 1.760 C 17.788 1.473,17.023 1.344,15.806 1.280 C 14.952 1.235,8.952 1.237,8.080 1.282 M13.660 6.117 C 13.594 6.133,13.502 6.167,13.455 6.192 C 13.314 6.268,13.125 6.511,13.100 6.649 C 13.088 6.721,13.082 9.177,13.089 12.106 L 13.100 17.433 13.223 17.586 C 13.383 17.787,13.572 17.880,13.820 17.880 C 14.068 17.880,14.257 17.787,14.417 17.586 L 14.540 17.433 14.551 13.049 L 14.561 8.666 15.512 9.609 C 16.544 10.633,16.612 10.680,16.978 10.622 C 17.428 10.551,17.719 10.043,17.558 9.613 C 17.511 9.487,14.318 6.265,14.160 6.183 C 14.023 6.111,13.804 6.083,13.660 6.117 M9.843 6.190 C 9.767 6.229,9.650 6.329,9.583 6.414 L 9.460 6.567 9.449 10.951 L 9.439 15.335 8.489 14.392 C 7.458 13.366,7.390 13.320,7.022 13.378 C 6.555 13.452,6.259 14.001,6.464 14.412 C 6.543 14.570,9.694 17.741,9.859 17.828 C 10.011 17.909,10.347 17.910,10.501 17.829 C 10.656 17.748,10.824 17.569,10.877 17.427 C 10.907 17.350,10.920 15.657,10.920 11.996 C 10.920 6.846,10.918 6.672,10.844 6.528 C 10.752 6.349,10.619 6.220,10.467 6.163 C 10.298 6.098,9.997 6.111,9.843 6.190 " stroke="none" fill-rule="evenodd" fill="black"></path></svg>