<svg width="24" height="24" viewBox="0 0 24 24" fill="none" xmlns="http://www.w3.org/2000/svg"><path d="M8.080 1.282 C 4.042 1.493,1.931 3.265,1.398 6.891 C 1.310 7.494,1.225 8.895,1.264 9.113 C 1.278 9.194,1.325 9.318,1.368 9.389 C 1.658 9.870,2.422 9.836,2.661 9.332 C 2.718 9.212,2.740 9.022,2.765 8.423 C 2.900 5.187,3.905 3.654,6.288 3.044 C 7.337 2.776,7.247 2.780,12.000 2.780 C 15.936 2.780,16.339 2.786,16.760 2.852 C 19.558 3.288,20.712 4.442,21.148 7.240 C 21.214 7.661,21.220 8.064,21.220 12.000 C 21.220 15.936,21.214 16.339,21.148 16.760 C 20.712 19.558,19.558 20.712,16.760 21.148 C 16.339 21.214,15.936 21.220,12.000 21.220 C 8.064 21.220,7.661 21.214,7.240 21.148 C 4.756 20.761,3.576 19.795,3.044 17.712 C 2.844 16.928,2.793 16.449,2.764 15.080 C 2.735 13.687,2.722 13.616,2.464 13.421 C 2.095 13.142,1.598 13.236,1.353 13.631 C 1.271 13.763,1.259 13.841,1.246 14.325 C 1.226 15.057,1.302 16.458,1.398 17.107 C 1.885 20.415,3.654 22.148,7.027 22.622 C 7.786 22.728,8.902 22.759,12.000 22.759 C 15.098 22.759,16.214 22.728,16.973 22.622 C 19.443 22.275,20.996 21.288,21.897 19.490 C 22.379 18.530,22.638 17.369,22.720 15.807 C 22.771 14.838,22.771 9.162,22.720 8.193 C 22.657 6.998,22.521 6.191,22.242 5.356 C 21.632 3.531,20.469 2.367,18.650 1.760 C 17.788 1.473,17.023 1.344,15.806 1.280 C 14.952 1.235,8.952 1.237,8.080 1.282 M9.580 6.462 C 9.426 6.541,6.255 9.701,6.172 9.859 C 6.091 10.011,6.090 10.347,6.171 10.501 C 6.252 10.656,6.431 10.824,6.573 10.877 C 6.650 10.907,8.343 10.920,12.004 10.920 C 17.154 10.920,17.328 10.918,17.472 10.844 C 17.754 10.699,17.880 10.494,17.880 10.180 C 17.880 9.866,17.754 9.661,17.472 9.516 C 17.328 9.443,17.171 9.440,12.994 9.440 L 8.665 9.440 9.609 8.489 C 10.633 7.456,10.680 7.389,10.622 7.022 C 10.548 6.557,9.985 6.254,9.580 6.462 M6.540 13.143 C 6.253 13.292,6.120 13.509,6.120 13.829 C 6.120 14.068,6.215 14.259,6.414 14.417 L 6.567 14.540 10.951 14.551 L 15.335 14.561 14.393 15.511 C 13.381 16.531,13.332 16.600,13.371 16.945 C 13.425 17.429,13.987 17.748,14.412 17.536 C 14.570 17.457,17.741 14.306,17.828 14.141 C 17.909 13.989,17.910 13.653,17.829 13.499 C 17.748 13.344,17.569 13.176,17.427 13.123 C 17.350 13.093,15.655 13.080,11.987 13.080 C 7.239 13.080,6.647 13.087,6.540 13.143 " stroke="none" fill-rule="evenodd" fill="black"></path></svg>