<svg width="24" height="24" viewBox="0 0 24 24" fill="none" xmlns="http://www.w3.org/2000/svg"><path d="M11.296 1.283 C 10.684 1.320,9.802 1.456,9.648 1.537 C 9.503 1.612,9.335 1.795,9.283 1.933 C 9.186 2.189,9.246 2.497,9.433 2.694 C 9.655 2.928,9.877 2.981,10.310 2.901 C 10.837 2.804,11.371 2.760,12.036 2.760 C 13.462 2.760,14.764 3.063,16.060 3.698 C 17.024 4.170,17.648 4.611,18.434 5.378 C 19.273 6.195,19.814 6.937,20.303 7.940 C 20.944 9.253,21.240 10.537,21.240 12.000 C 21.240 13.465,20.943 14.752,20.302 16.060 C 19.830 17.024,19.389 17.648,18.622 18.434 C 17.805 19.273,17.063 19.814,16.060 20.303 C 14.747 20.944,13.463 21.240,12.000 21.240 C 10.537 21.240,9.253 20.944,7.940 20.303 C 6.937 19.814,6.195 19.273,5.378 18.434 C 4.611 17.648,4.170 17.024,3.698 16.060 C 3.058 14.754,2.760 13.464,2.760 12.006 C 2.760 10.550,3.046 9.284,3.665 8.000 C 4.090 7.118,4.519 6.481,5.162 5.780 C 5.528 5.381,5.600 5.249,5.600 4.980 C 5.600 4.513,5.210 4.188,4.734 4.258 C 4.554 4.285,4.511 4.316,4.140 4.694 C 2.188 6.683,1.102 9.695,1.281 12.630 C 1.412 14.788,2.122 16.722,3.424 18.470 C 3.880 19.083,4.909 20.111,5.530 20.575 C 7.606 22.126,10.070 22.870,12.627 22.717 C 14.790 22.588,16.724 21.879,18.470 20.575 C 19.087 20.115,20.115 19.087,20.575 18.470 C 22.127 16.391,22.870 13.930,22.717 11.373 C 22.588 9.210,21.879 7.276,20.575 5.530 C 20.115 4.913,19.087 3.885,18.470 3.425 C 17.047 2.362,15.454 1.679,13.742 1.398 C 13.336 1.331,12.078 1.229,11.880 1.246 C 11.847 1.249,11.584 1.266,11.296 1.283 M10.515 7.756 C 10.109 7.888,9.880 8.403,10.064 8.772 C 10.099 8.842,10.823 9.597,11.673 10.450 L 13.219 12.000 11.652 13.570 C 10.790 14.433,10.065 15.191,10.042 15.253 C 9.926 15.563,10.051 15.954,10.328 16.146 C 10.466 16.241,10.534 16.260,10.740 16.260 C 10.943 16.260,11.014 16.241,11.143 16.151 C 11.432 15.952,14.872 12.470,14.938 12.310 C 15.017 12.122,15.017 11.878,14.938 11.689 C 14.896 11.588,14.304 10.967,13.088 9.749 C 12.105 8.764,11.235 7.912,11.156 7.858 C 10.999 7.748,10.690 7.700,10.515 7.756 " stroke="none" fill-rule="evenodd" fill="black"></path></svg>