<svg width="24" height="24" viewBox="0 0 24 24" fill="none" xmlns="http://www.w3.org/2000/svg"><path d="M8.160 4.941 C 6.632 5.253,5.603 6.502,5.312 8.400 C 5.272 8.659,5.260 9.527,5.260 12.040 C 5.260 15.644,5.259 15.625,5.501 16.460 C 5.684 17.091,6.057 17.742,6.478 18.162 C 7.428 19.112,8.841 19.377,10.379 18.892 C 10.930 18.718,11.350 18.495,13.820 17.063 C 16.687 15.401,17.012 15.192,17.521 14.682 C 18.345 13.855,18.726 13.017,18.730 12.020 C 18.734 11.124,18.472 10.442,17.812 9.632 C 17.437 9.171,16.523 8.460,16.099 8.297 C 15.630 8.118,15.122 8.466,15.121 8.967 C 15.119 9.328,15.215 9.462,15.700 9.780 C 16.724 10.450,17.238 11.200,17.240 12.024 C 17.241 12.820,16.674 13.621,15.660 14.256 C 15.143 14.579,10.896 17.031,10.562 17.199 C 9.829 17.568,9.036 17.721,8.471 17.603 C 7.597 17.420,7.021 16.696,6.819 15.525 C 6.766 15.217,6.759 14.701,6.771 11.834 C 6.783 8.773,6.790 8.477,6.857 8.225 C 7.196 6.931,7.955 6.297,9.071 6.374 C 9.523 6.405,9.936 6.526,10.480 6.788 C 10.733 6.910,11.009 7.026,11.093 7.045 C 11.298 7.094,11.524 7.029,11.706 6.869 C 12.024 6.590,12.052 6.126,11.768 5.828 C 11.461 5.506,10.382 5.067,9.543 4.921 C 9.220 4.865,8.478 4.876,8.160 4.941 " stroke="none" fill-rule="evenodd" fill="black"></path></svg>