<svg width="24" height="24" viewBox="0 0 24 24" fill="none" xmlns="http://www.w3.org/2000/svg"><path d="M8.080 1.282 C 4.042 1.493,1.931 3.265,1.398 6.891 C 1.310 7.494,1.225 8.895,1.264 9.113 C 1.278 9.194,1.325 9.318,1.368 9.389 C 1.658 9.870,2.422 9.836,2.661 9.332 C 2.718 9.212,2.740 9.022,2.765 8.423 C 2.900 5.187,3.905 3.654,6.288 3.044 C 7.337 2.776,7.247 2.780,12.000 2.780 C 15.936 2.780,16.339 2.786,16.760 2.852 C 19.558 3.288,20.712 4.442,21.148 7.240 C 21.214 7.661,21.220 8.064,21.220 12.000 C 21.220 15.936,21.214 16.339,21.148 16.760 C 20.712 19.558,19.558 20.712,16.760 21.148 C 16.339 21.214,15.936 21.220,12.000 21.220 C 8.064 21.220,7.661 21.214,7.240 21.148 C 4.756 20.761,3.576 19.795,3.044 17.712 C 2.821 16.838,2.790 16.492,2.764 14.600 C 2.742 13.003,2.734 12.847,2.664 12.708 C 2.405 12.184,1.668 12.163,1.353 12.671 C 1.263 12.815,1.260 12.853,1.247 13.860 C 1.223 15.666,1.335 17.079,1.575 18.027 C 2.267 20.757,3.971 22.193,7.027 22.622 C 7.786 22.728,8.902 22.759,12.000 22.759 C 15.098 22.759,16.214 22.728,16.973 22.622 C 19.443 22.275,20.996 21.288,21.897 19.490 C 22.379 18.530,22.638 17.369,22.720 15.807 C 22.771 14.838,22.771 9.162,22.720 8.193 C 22.657 6.998,22.521 6.191,22.242 5.356 C 21.632 3.531,20.469 2.367,18.650 1.760 C 17.788 1.473,17.023 1.344,15.806 1.280 C 14.952 1.235,8.952 1.237,8.080 1.282 M11.681 9.264 C 11.529 9.329,8.035 12.787,7.849 13.057 C 7.759 13.186,7.740 13.257,7.740 13.460 C 7.740 13.666,7.759 13.734,7.854 13.872 C 8.057 14.164,8.475 14.284,8.772 14.136 C 8.842 14.101,9.598 13.377,10.450 12.526 L 12.000 10.980 13.550 12.526 C 14.402 13.377,15.158 14.101,15.228 14.136 C 15.298 14.171,15.432 14.200,15.525 14.200 C 16.064 14.200,16.436 13.627,16.206 13.153 C 16.091 12.915,12.522 9.350,12.311 9.262 C 12.125 9.184,11.862 9.185,11.681 9.264 " stroke="none" fill-rule="evenodd" fill="black"></path></svg>