<svg width="24" height="24" viewBox="0 0 24 24" fill="none" xmlns="http://www.w3.org/2000/svg"><path d="M3.900 1.259 C 3.878 1.267,3.806 1.285,3.740 1.300 C 3.578 1.336,1.424 3.469,1.316 3.700 C 1.222 3.903,1.222 4.097,1.316 4.300 C 1.365 4.404,1.779 4.845,2.505 5.565 C 3.552 6.604,3.632 6.673,3.810 6.711 C 4.389 6.832,4.833 6.388,4.710 5.812 C 4.675 5.649,4.614 5.567,4.249 5.192 L 3.827 4.760 4.392 4.760 C 5.121 4.760,5.323 4.717,5.520 4.520 C 5.918 4.122,5.730 3.423,5.189 3.286 C 5.087 3.261,4.740 3.240,4.416 3.240 L 3.827 3.240 4.249 2.808 C 4.615 2.432,4.675 2.351,4.711 2.186 C 4.783 1.849,4.658 1.530,4.389 1.367 C 4.265 1.292,3.983 1.229,3.900 1.259 M19.815 1.277 C 19.640 1.320,19.462 1.456,19.356 1.626 C 19.253 1.794,19.233 2.156,19.319 2.320 C 19.348 2.375,19.552 2.604,19.773 2.830 L 20.175 3.240 19.598 3.240 C 18.814 3.241,18.014 3.303,17.495 3.403 C 16.308 3.632,15.050 4.224,14.099 5.001 C 13.326 5.632,12.593 6.524,12.169 7.350 C 12.087 7.509,12.011 7.639,12.000 7.639 C 11.989 7.638,11.885 7.463,11.769 7.249 C 11.653 7.035,11.437 6.689,11.290 6.480 C 10.993 6.058,10.019 5.052,9.801 4.940 C 9.617 4.845,9.300 4.845,9.105 4.939 C 8.875 5.050,8.720 5.315,8.720 5.598 C 8.720 5.745,8.746 5.861,8.795 5.940 C 8.836 6.006,9.110 6.303,9.405 6.600 C 10.152 7.352,10.598 8.059,10.920 9.000 C 11.205 9.832,11.210 9.882,11.236 12.160 C 11.262 14.394,11.256 14.332,11.487 14.548 C 11.876 14.912,12.489 14.771,12.698 14.271 C 12.751 14.144,12.760 13.853,12.761 12.291 C 12.762 10.115,12.794 9.810,13.119 8.896 C 13.430 8.021,13.878 7.311,14.552 6.626 C 15.241 5.925,15.996 5.439,16.896 5.119 C 17.682 4.839,18.207 4.762,19.318 4.761 L 20.175 4.760 19.773 5.170 C 19.552 5.395,19.348 5.625,19.319 5.680 C 19.290 5.735,19.267 5.881,19.267 6.004 C 19.267 6.499,19.682 6.817,20.189 6.711 C 20.369 6.673,20.445 6.607,21.495 5.565 C 22.637 4.433,22.758 4.282,22.758 4.000 C 22.758 3.719,22.635 3.566,21.514 2.455 C 20.912 1.858,20.384 1.351,20.340 1.329 C 20.219 1.269,19.956 1.243,19.815 1.277 M11.815 15.277 C 11.638 15.321,11.461 15.456,11.353 15.631 C 11.261 15.778,11.260 15.793,11.260 17.000 C 11.260 18.207,11.261 18.222,11.353 18.369 C 11.710 18.943,12.576 18.812,12.716 18.162 C 12.772 17.901,12.773 16.083,12.717 15.841 C 12.623 15.432,12.215 15.177,11.815 15.277 M11.815 19.277 C 11.638 19.321,11.461 19.456,11.353 19.631 C 11.261 19.778,11.260 19.793,11.260 21.000 C 11.260 22.207,11.261 22.222,11.353 22.369 C 11.710 22.943,12.576 22.812,12.716 22.162 C 12.772 21.901,12.773 20.083,12.717 19.841 C 12.623 19.432,12.215 19.177,11.815 19.277 " stroke="none" fill-rule="evenodd" fill="black"></path></svg>