<svg width="24" height="24" viewBox="0 0 24 24" fill="none" xmlns="http://www.w3.org/2000/svg"><path d="M8.700 2.823 C 8.634 2.857,8.537 2.925,8.485 2.973 C 8.282 3.159,8.280 3.177,8.280 5.263 C 8.280 7.204,8.280 7.210,8.370 7.368 C 8.493 7.589,8.747 7.731,9.014 7.731 C 9.354 7.731,9.627 7.530,9.721 7.208 C 9.751 7.108,9.761 6.444,9.752 5.157 L 9.740 3.253 9.626 3.088 C 9.424 2.797,8.989 2.673,8.700 2.823 M14.660 2.827 C 14.475 2.925,14.395 3.006,14.315 3.180 C 14.245 3.332,14.242 3.570,14.241 8.205 C 14.240 10.881,14.252 13.130,14.267 13.204 C 14.283 13.287,14.365 13.408,14.482 13.525 C 14.634 13.678,14.706 13.719,14.859 13.742 C 15.199 13.793,15.493 13.648,15.641 13.358 C 15.718 13.207,15.720 13.106,15.720 9.253 L 15.720 5.302 17.630 7.209 C 18.935 8.512,19.587 9.136,19.689 9.178 C 20.000 9.308,20.405 9.218,20.594 8.979 C 20.797 8.721,20.804 8.341,20.610 8.085 C 20.402 7.811,15.380 2.845,15.267 2.803 C 15.105 2.741,14.799 2.753,14.660 2.827 M8.721 10.301 C 8.537 10.384,8.447 10.470,8.356 10.648 C 8.283 10.791,8.280 10.950,8.280 14.747 L 8.280 18.698 6.370 16.791 C 5.065 15.488,4.413 14.864,4.311 14.822 C 4.000 14.692,3.595 14.782,3.406 15.021 C 3.202 15.280,3.196 15.660,3.391 15.915 C 3.608 16.197,8.622 21.156,8.733 21.198 C 9.137 21.349,9.606 21.125,9.722 20.725 C 9.750 20.626,9.760 19.004,9.752 15.657 L 9.740 10.734 9.630 10.590 C 9.570 10.510,9.466 10.407,9.400 10.360 C 9.240 10.246,8.907 10.217,8.721 10.301 M14.900 16.260 C 14.878 16.267,14.811 16.284,14.751 16.297 C 14.589 16.333,14.374 16.541,14.301 16.732 C 14.245 16.879,14.238 17.136,14.248 18.823 L 14.260 20.747 14.374 20.912 C 14.511 21.109,14.759 21.240,14.994 21.240 C 15.279 21.240,15.582 21.039,15.677 20.787 C 15.705 20.713,15.720 20.011,15.720 18.731 L 15.720 16.787 15.624 16.623 C 15.571 16.532,15.459 16.422,15.374 16.374 C 15.224 16.292,14.981 16.233,14.900 16.260 " stroke="none" fill-rule="evenodd" fill="black"></path></svg>