<svg width="24" height="24" viewBox="0 0 24 24" fill="none" xmlns="http://www.w3.org/2000/svg"><path d="M14.300 4.945 C 13.847 5.026,13.212 5.251,12.707 5.509 C 12.201 5.767,12.078 5.907,12.049 6.255 C 12.014 6.672,12.299 7.002,12.719 7.032 C 12.934 7.048,12.983 7.033,13.405 6.828 C 13.918 6.579,14.264 6.457,14.618 6.400 C 15.999 6.176,16.912 6.915,17.181 8.475 C 17.234 8.783,17.241 9.299,17.229 12.166 C 17.214 15.838,17.225 15.678,16.958 16.324 C 16.411 17.650,15.153 17.993,13.580 17.242 C 13.170 17.047,8.712 14.475,8.211 14.145 C 7.674 13.791,7.204 13.295,6.978 12.844 C 6.660 12.210,6.694 11.592,7.080 10.940 C 7.285 10.596,7.799 10.095,8.260 9.792 C 8.809 9.431,8.889 9.329,8.894 8.980 C 8.900 8.552,8.586 8.240,8.148 8.240 C 7.962 8.240,7.889 8.266,7.615 8.431 C 6.443 9.135,5.610 10.159,5.362 11.200 C 5.252 11.661,5.252 12.300,5.362 12.758 C 5.588 13.701,6.289 14.639,7.265 15.307 C 7.573 15.518,11.419 17.769,12.483 18.362 C 13.632 19.003,14.815 19.252,15.800 19.062 C 17.358 18.762,18.393 17.521,18.688 15.600 C 18.728 15.341,18.740 14.474,18.740 11.960 C 18.739 9.028,18.732 8.618,18.671 8.280 C 18.338 6.422,17.354 5.258,15.845 4.941 C 15.483 4.865,14.733 4.867,14.300 4.945 " stroke="none" fill-rule="evenodd" fill="black"></path></svg>