<svg width="24" height="24" viewBox="0 0 24 24" fill="none" xmlns="http://www.w3.org/2000/svg"><path d="M16.899 2.377 C 16.591 2.562,16.450 3.035,16.612 3.341 C 16.646 3.406,17.234 4.018,17.917 4.700 C 18.601 5.382,19.160 5.953,19.160 5.970 C 19.160 5.986,17.062 6.000,14.499 6.000 C 10.630 6.000,9.816 6.009,9.709 6.055 C 9.553 6.122,9.380 6.299,9.323 6.453 C 9.222 6.718,9.309 7.109,9.507 7.288 C 9.727 7.487,9.543 7.480,14.528 7.480 L 19.178 7.480 17.934 8.730 C 17.249 9.418,16.657 10.043,16.619 10.119 C 16.532 10.291,16.528 10.622,16.610 10.781 C 16.797 11.140,17.224 11.290,17.580 11.123 C 17.805 11.018,21.614 7.196,21.699 6.991 C 21.780 6.795,21.775 6.616,21.683 6.420 C 21.595 6.230,17.814 2.445,17.612 2.344 C 17.417 2.246,17.092 2.262,16.899 2.377 M2.619 6.097 C 2.212 6.341,2.144 6.948,2.487 7.268 C 2.708 7.475,2.757 7.480,4.500 7.480 C 6.215 7.480,6.289 7.473,6.493 7.288 C 6.700 7.101,6.781 6.699,6.665 6.429 C 6.598 6.273,6.421 6.100,6.267 6.043 C 6.194 6.015,5.563 6.000,4.467 6.000 L 2.780 6.001 2.619 6.097 M6.420 12.877 C 6.312 12.927,5.613 13.601,4.273 14.946 C 2.301 16.925,2.286 16.941,2.258 17.134 C 2.198 17.543,2.147 17.480,4.233 19.574 C 5.282 20.627,6.220 21.541,6.318 21.604 C 6.812 21.926,7.451 21.577,7.451 20.986 C 7.451 20.872,7.423 20.725,7.388 20.659 C 7.354 20.594,6.766 19.982,6.083 19.300 C 5.399 18.618,4.840 18.047,4.840 18.030 C 4.840 18.014,6.965 18.000,9.562 18.000 C 14.182 18.000,14.287 17.998,14.438 17.921 C 14.728 17.773,14.873 17.479,14.822 17.139 C 14.799 16.986,14.758 16.914,14.605 16.762 C 14.488 16.645,14.367 16.563,14.284 16.547 C 14.210 16.532,12.051 16.520,9.486 16.520 L 4.822 16.520 6.066 15.270 C 6.751 14.582,7.343 13.957,7.381 13.881 C 7.468 13.709,7.472 13.378,7.390 13.219 C 7.203 12.860,6.777 12.710,6.420 12.877 M17.805 16.549 C 17.752 16.559,17.623 16.653,17.518 16.758 C 17.362 16.914,17.321 16.985,17.298 17.139 C 17.247 17.479,17.392 17.773,17.682 17.921 C 17.829 17.996,17.924 18.000,19.525 18.000 L 21.213 18.000 21.377 17.904 C 21.785 17.665,21.856 17.052,21.513 16.732 C 21.291 16.524,21.245 16.520,19.511 16.525 C 18.625 16.528,17.857 16.539,17.805 16.549 " stroke="none" fill-rule="evenodd" fill="black"></path></svg>