<svg width="24" height="24" viewBox="0 0 24 24" fill="none" xmlns="http://www.w3.org/2000/svg"><path d="M14.100 5.264 C 13.660 5.504,13.556 5.989,13.858 6.394 C 13.933 6.496,15.041 7.624,16.318 8.900 L 18.640 11.220 14.730 11.240 L 10.820 11.260 10.646 11.360 C 10.154 11.641,10.154 12.359,10.646 12.640 L 10.820 12.740 14.730 12.760 L 18.640 12.780 16.318 15.100 C 15.041 16.376,13.933 17.504,13.858 17.606 C 13.559 18.008,13.662 18.507,14.091 18.725 C 14.317 18.841,14.654 18.817,14.867 18.669 C 14.951 18.610,16.392 17.189,18.068 15.511 C 20.191 13.386,21.135 12.415,21.178 12.311 C 21.257 12.122,21.257 11.878,21.178 11.689 C 21.135 11.585,20.191 10.614,18.068 8.489 C 16.392 6.811,14.951 5.389,14.866 5.330 C 14.671 5.195,14.287 5.162,14.100 5.264 M3.420 11.259 C 3.398 11.267,3.331 11.284,3.271 11.297 C 3.124 11.329,2.881 11.548,2.814 11.708 C 2.691 12.002,2.771 12.336,3.015 12.550 C 3.095 12.621,3.211 12.693,3.271 12.709 C 3.412 12.749,7.066 12.750,7.207 12.710 C 7.465 12.638,7.717 12.292,7.719 12.009 C 7.721 11.747,7.546 11.462,7.300 11.326 C 7.194 11.268,6.966 11.259,5.320 11.252 C 4.297 11.248,3.442 11.251,3.420 11.259 " stroke="none" fill-rule="evenodd" fill="black"></path></svg>