<svg width="24" height="24" viewBox="0 0 24 24" fill="none" xmlns="http://www.w3.org/2000/svg"><path d="M3.800 8.264 C 3.505 8.392,3.349 8.626,3.349 8.940 C 3.349 9.052,3.380 9.204,3.418 9.281 C 3.496 9.435,10.072 16.045,10.364 16.262 C 10.847 16.620,11.337 16.774,12.000 16.777 C 12.370 16.778,12.519 16.760,12.760 16.686 C 13.099 16.582,13.415 16.418,13.680 16.208 C 13.951 15.994,16.425 13.528,16.583 13.314 C 17.059 12.671,16.429 11.873,15.689 12.182 C 15.590 12.223,15.061 12.721,14.100 13.678 C 13.308 14.466,12.603 15.140,12.534 15.174 C 12.246 15.319,11.768 15.320,11.454 15.178 C 11.350 15.130,10.203 14.013,7.900 11.715 C 5.517 9.338,4.456 8.305,4.351 8.262 C 4.165 8.185,3.981 8.185,3.800 8.264 M19.640 8.263 C 19.481 8.332,18.307 9.478,18.212 9.659 C 18.116 9.840,18.131 10.157,18.244 10.358 C 18.448 10.721,18.926 10.835,19.282 10.605 C 19.514 10.455,20.489 9.461,20.581 9.281 C 20.668 9.109,20.673 8.779,20.590 8.619 C 20.409 8.272,19.988 8.114,19.640 8.263 " stroke="none" fill-rule="evenodd" fill="black"></path></svg>