<svg width="24" height="24" viewBox="0 0 24 24" fill="none" xmlns="http://www.w3.org/2000/svg"><path d="M8.815 3.318 C 8.640 3.360,8.462 3.495,8.356 3.666 C 8.235 3.862,8.232 4.213,8.350 4.404 C 8.397 4.479,8.710 4.812,9.047 5.145 C 9.602 5.692,9.678 5.753,9.850 5.790 C 10.428 5.913,10.873 5.469,10.750 4.890 C 10.713 4.718,10.652 4.642,10.089 4.072 C 9.748 3.727,9.413 3.418,9.345 3.387 C 9.176 3.309,8.966 3.282,8.815 3.318 M12.580 7.275 C 12.390 7.363,12.304 7.452,12.222 7.650 C 12.143 7.838,12.143 8.042,12.222 8.231 C 12.263 8.331,12.754 8.852,13.720 9.820 C 15.337 11.442,15.334 11.438,15.334 11.960 C 15.334 12.512,15.534 12.281,11.763 16.060 C 9.896 17.930,8.346 19.504,8.319 19.558 C 8.235 19.722,8.256 20.047,8.364 20.238 C 8.568 20.602,9.047 20.715,9.402 20.484 C 9.500 20.421,11.094 18.850,12.945 16.994 C 16.601 13.328,16.525 13.414,16.727 12.760 C 16.860 12.330,16.860 11.590,16.727 11.160 C 16.541 10.559,16.433 10.425,14.844 8.826 C 13.871 7.845,13.326 7.326,13.220 7.276 C 13.017 7.182,12.785 7.181,12.580 7.275 " stroke="none" fill-rule="evenodd" fill="black"></path></svg>