<svg width="24" height="24" viewBox="0 0 24 24" fill="none" xmlns="http://www.w3.org/2000/svg"><path d="M11.296 1.283 C 10.684 1.320,9.802 1.456,9.648 1.537 C 9.503 1.612,9.335 1.795,9.283 1.933 C 9.186 2.189,9.246 2.497,9.433 2.694 C 9.655 2.928,9.877 2.981,10.310 2.901 C 10.837 2.804,11.371 2.760,12.036 2.760 C 13.462 2.760,14.764 3.063,16.060 3.698 C 17.024 4.170,17.648 4.611,18.434 5.378 C 19.273 6.195,19.814 6.937,20.303 7.940 C 20.944 9.253,21.240 10.537,21.240 12.000 C 21.240 13.465,20.943 14.752,20.302 16.060 C 19.830 17.024,19.389 17.648,18.622 18.434 C 17.805 19.273,17.063 19.814,16.060 20.303 C 14.747 20.944,13.463 21.240,12.000 21.240 C 10.537 21.240,9.253 20.944,7.940 20.303 C 6.937 19.814,6.195 19.273,5.378 18.434 C 4.611 17.648,4.170 17.024,3.698 16.060 C 3.058 14.754,2.760 13.464,2.760 12.006 C 2.760 10.550,3.046 9.284,3.665 8.000 C 4.090 7.118,4.519 6.481,5.162 5.780 C 5.528 5.381,5.600 5.249,5.600 4.980 C 5.600 4.513,5.210 4.188,4.734 4.258 C 4.554 4.285,4.511 4.316,4.140 4.694 C 2.188 6.683,1.102 9.695,1.281 12.630 C 1.412 14.788,2.122 16.722,3.424 18.470 C 3.880 19.083,4.909 20.111,5.530 20.575 C 7.606 22.126,10.070 22.870,12.627 22.717 C 14.790 22.588,16.724 21.879,18.470 20.575 C 19.087 20.115,20.115 19.087,20.575 18.470 C 22.127 16.391,22.870 13.930,22.717 11.373 C 22.588 9.210,21.879 7.276,20.575 5.530 C 20.115 4.913,19.087 3.885,18.470 3.425 C 17.047 2.362,15.454 1.679,13.742 1.398 C 13.336 1.331,12.078 1.229,11.880 1.246 C 11.847 1.249,11.584 1.266,11.296 1.283 M8.134 10.082 C 8.042 10.128,7.917 10.238,7.854 10.329 C 7.759 10.466,7.740 10.534,7.740 10.740 C 7.740 10.944,7.759 11.014,7.849 11.144 C 8.048 11.431,11.533 14.873,11.691 14.939 C 11.878 15.017,12.122 15.017,12.311 14.938 C 12.522 14.850,16.091 11.285,16.206 11.047 C 16.315 10.823,16.293 10.544,16.149 10.326 C 15.960 10.041,15.523 9.917,15.228 10.064 C 15.158 10.099,14.403 10.823,13.550 11.673 L 12.000 13.219 10.430 11.652 C 9.567 10.790,8.809 10.065,8.747 10.042 C 8.571 9.976,8.315 9.993,8.134 10.082 " stroke="none" fill-rule="evenodd" fill="black"></path></svg>