<svg width="24" height="24" viewBox="0 0 24 24" fill="none" xmlns="http://www.w3.org/2000/svg"><path d="M8.740 5.280 C 7.207 5.415,6.062 6.009,5.409 7.009 C 5.040 7.576,4.882 8.135,4.881 8.880 C 4.880 9.735,5.061 10.423,5.528 11.333 C 5.766 11.796,5.916 11.923,6.255 11.951 C 6.674 11.986,7.002 11.701,7.032 11.278 C 7.048 11.058,7.035 11.014,6.827 10.591 C 6.581 10.092,6.459 9.747,6.400 9.382 C 6.176 8.005,6.913 7.091,8.463 6.821 C 8.976 6.731,15.021 6.731,15.533 6.820 C 16.201 6.936,16.658 7.146,17.050 7.515 C 17.747 8.172,17.823 9.183,17.266 10.374 C 17.091 10.747,14.464 15.305,14.139 15.797 C 13.546 16.697,12.735 17.239,11.980 17.239 C 11.221 17.239,10.411 16.683,9.787 15.733 C 9.495 15.288,9.386 15.181,9.160 15.120 C 8.972 15.069,8.787 15.103,8.570 15.227 C 8.352 15.351,8.240 15.563,8.240 15.852 C 8.240 16.038,8.266 16.111,8.431 16.385 C 9.135 17.557,10.159 18.390,11.200 18.638 C 11.661 18.748,12.300 18.748,12.758 18.638 C 13.701 18.412,14.640 17.711,15.307 16.735 C 15.534 16.402,17.916 12.328,18.387 11.466 C 18.932 10.470,19.153 9.618,19.109 8.685 C 19.083 8.143,18.990 7.777,18.762 7.325 C 18.231 6.268,17.235 5.611,15.743 5.331 C 15.475 5.280,14.881 5.268,12.260 5.259 C 10.522 5.253,8.938 5.263,8.740 5.280 " stroke="none" fill-rule="evenodd" fill="black"></path></svg>