<svg width="24" height="24" viewBox="0 0 24 24" fill="none" xmlns="http://www.w3.org/2000/svg"><path d="M8.300 3.269 C 8.256 3.280,8.157 3.337,8.080 3.395 C 7.810 3.599,2.845 8.621,2.803 8.733 C 2.702 8.998,2.789 9.389,2.987 9.568 C 3.207 9.767,3.006 9.760,8.214 9.760 C 10.885 9.760,13.130 9.748,13.204 9.733 C 13.287 9.717,13.408 9.635,13.525 9.518 C 13.678 9.366,13.719 9.294,13.742 9.141 C 13.793 8.801,13.648 8.507,13.358 8.359 C 13.207 8.282,13.106 8.280,9.253 8.280 L 5.302 8.280 7.209 6.370 C 8.512 5.065,9.136 4.413,9.178 4.311 C 9.300 4.019,9.226 3.624,9.013 3.432 C 8.842 3.277,8.543 3.209,8.300 3.269 M16.619 8.377 C 16.195 8.632,16.143 9.257,16.520 9.574 C 16.741 9.760,16.819 9.766,18.843 9.752 L 20.747 9.740 20.912 9.626 C 21.109 9.489,21.240 9.241,21.240 9.006 C 21.240 8.721,21.039 8.418,20.787 8.323 C 20.713 8.295,20.011 8.280,18.727 8.280 L 16.780 8.281 16.619 8.377 M3.272 14.280 C 2.802 14.421,2.602 15.050,2.906 15.430 C 3.145 15.730,3.067 15.720,5.255 15.720 C 7.205 15.720,7.209 15.720,7.368 15.630 C 7.784 15.397,7.860 14.776,7.513 14.452 C 7.288 14.242,7.267 14.240,5.251 14.243 C 4.222 14.245,3.331 14.262,3.272 14.280 M10.765 14.269 C 10.712 14.279,10.583 14.373,10.478 14.478 C 10.322 14.634,10.281 14.705,10.258 14.859 C 10.207 15.199,10.352 15.493,10.642 15.641 C 10.793 15.718,10.894 15.720,14.747 15.720 L 18.698 15.720 16.791 17.630 C 15.488 18.935,14.864 19.587,14.822 19.689 C 14.692 20.000,14.782 20.405,15.021 20.594 C 15.280 20.797,15.660 20.804,15.915 20.609 C 16.194 20.396,21.155 15.379,21.198 15.267 C 21.298 15.002,21.211 14.611,21.013 14.432 C 20.792 14.232,21.000 14.240,15.751 14.245 C 13.061 14.248,10.817 14.259,10.765 14.269 " stroke="none" fill-rule="evenodd" fill="black"></path></svg>