<svg width="24" height="24" viewBox="0 0 24 24" fill="none" xmlns="http://www.w3.org/2000/svg"><path d="M11.660 7.222 C 11.616 7.232,11.481 7.261,11.360 7.285 C 11.097 7.338,10.718 7.504,10.453 7.682 C 10.187 7.860,3.579 14.459,3.452 14.673 C 3.331 14.877,3.312 15.192,3.410 15.381 C 3.591 15.728,4.001 15.883,4.351 15.738 C 4.455 15.695,5.519 14.660,7.900 12.285 C 11.684 8.510,11.450 8.713,12.004 8.713 C 12.521 8.713,12.556 8.740,14.168 10.352 C 14.953 11.137,15.646 11.802,15.708 11.828 C 15.881 11.903,16.183 11.890,16.358 11.801 C 16.777 11.587,16.879 11.085,16.583 10.686 C 16.385 10.418,13.776 7.836,13.549 7.683 C 13.309 7.522,12.975 7.368,12.706 7.295 C 12.495 7.237,11.803 7.189,11.660 7.222 M18.499 13.377 C 18.191 13.562,18.050 14.035,18.212 14.341 C 18.313 14.534,19.481 15.669,19.649 15.738 C 19.999 15.883,20.409 15.728,20.590 15.381 C 20.673 15.221,20.668 14.891,20.581 14.719 C 20.489 14.539,19.514 13.545,19.282 13.395 C 19.046 13.242,18.736 13.235,18.499 13.377 " stroke="none" fill-rule="evenodd" fill="black"></path></svg>