<svg width="24" height="24" viewBox="0 0 24 24" fill="none" xmlns="http://www.w3.org/2000/svg"><path d="M11.699 2.816 C 11.550 2.881,11.332 3.124,11.291 3.271 C 11.274 3.331,11.260 4.469,11.260 5.800 L 11.260 8.220 11.366 8.400 C 11.652 8.886,12.348 8.886,12.634 8.400 L 12.740 8.220 12.740 5.800 C 12.740 4.469,12.726 3.331,12.709 3.271 C 12.667 3.119,12.447 2.879,12.292 2.814 C 12.130 2.746,11.857 2.747,11.699 2.816 M11.815 11.277 C 11.638 11.321,11.461 11.456,11.353 11.631 L 11.260 11.780 11.240 15.210 L 11.220 18.640 8.900 16.318 C 7.624 15.041,6.496 13.933,6.394 13.858 C 5.992 13.559,5.493 13.662,5.275 14.091 C 5.159 14.317,5.183 14.654,5.331 14.867 C 5.390 14.951,6.811 16.392,8.489 18.068 C 10.614 20.191,11.585 21.135,11.689 21.178 C 11.878 21.257,12.122 21.257,12.311 21.178 C 12.415 21.135,13.386 20.191,15.511 18.068 C 17.189 16.392,18.610 14.951,18.669 14.867 C 18.883 14.558,18.821 14.068,18.539 13.846 C 18.295 13.654,17.915 13.637,17.667 13.806 C 17.597 13.853,16.465 14.965,15.150 16.275 L 12.760 18.659 12.759 15.340 C 12.758 13.203,12.743 11.956,12.717 11.841 C 12.623 11.432,12.215 11.177,11.815 11.277 " stroke="none" fill-rule="evenodd" fill="black"></path></svg>