<svg width="24" height="24" viewBox="0 0 24 24" fill="none" xmlns="http://www.w3.org/2000/svg"><path d="M9.240 5.263 C 9.071 5.336,3.050 11.329,2.876 11.598 C 2.713 11.849,2.713 12.151,2.876 12.402 C 3.062 12.689,9.073 18.665,9.249 18.738 C 9.990 19.046,10.620 18.248,10.142 17.606 C 10.067 17.504,8.959 16.376,7.682 15.100 L 5.360 12.780 9.190 12.760 C 13.407 12.738,13.119 12.756,13.367 12.494 C 13.501 12.353,13.560 12.201,13.560 12.000 C 13.560 11.799,13.501 11.647,13.367 11.506 C 13.119 11.244,13.407 11.262,9.190 11.240 L 5.360 11.220 7.682 8.900 C 8.959 7.624,10.067 6.496,10.142 6.394 C 10.439 5.996,10.338 5.493,9.918 5.279 C 9.733 5.185,9.439 5.178,9.240 5.263 M16.694 11.277 C 16.036 11.439,15.903 12.307,16.486 12.640 L 16.660 12.740 18.560 12.740 C 19.605 12.740,20.508 12.727,20.567 12.710 C 20.825 12.638,21.077 12.292,21.079 12.009 C 21.081 11.747,20.906 11.462,20.660 11.326 C 20.554 11.268,20.327 11.259,18.680 11.253 C 17.657 11.249,16.763 11.260,16.694 11.277 " stroke="none" fill-rule="evenodd" fill="black"></path></svg>