<svg width="24" height="24" viewBox="0 0 24 24" fill="none" xmlns="http://www.w3.org/2000/svg"><path d="M11.560 1.267 C 10.326 1.322,9.152 1.571,8.041 2.012 C 7.427 2.256,7.240 2.454,7.240 2.860 C 7.240 3.229,7.525 3.548,7.892 3.589 C 8.032 3.605,8.152 3.574,8.523 3.428 C 9.718 2.955,10.735 2.760,12.006 2.760 C 13.464 2.760,14.754 3.058,16.060 3.698 C 17.024 4.170,17.648 4.611,18.434 5.378 C 19.273 6.195,19.814 6.937,20.303 7.940 C 20.944 9.253,21.240 10.537,21.240 12.000 C 21.240 13.465,20.943 14.752,20.302 16.060 C 19.830 17.024,19.389 17.648,18.622 18.434 C 17.805 19.273,17.063 19.814,16.060 20.303 C 14.747 20.944,13.463 21.240,12.000 21.240 C 10.537 21.240,9.253 20.944,7.940 20.303 C 6.937 19.814,6.195 19.273,5.378 18.434 C 4.611 17.648,4.170 17.024,3.698 16.060 C 3.058 14.754,2.760 13.464,2.760 12.005 C 2.760 10.060,3.331 8.256,4.457 6.648 C 4.701 6.298,4.770 6.095,4.724 5.855 C 4.656 5.497,4.372 5.267,4.000 5.267 C 3.678 5.267,3.534 5.369,3.222 5.816 C 1.432 8.383,0.834 11.537,1.564 14.550 C 1.904 15.951,2.529 17.268,3.424 18.470 C 3.880 19.083,4.909 20.111,5.530 20.575 C 7.606 22.126,10.070 22.870,12.627 22.717 C 14.790 22.588,16.724 21.879,18.470 20.575 C 19.087 20.115,20.115 19.087,20.575 18.470 C 22.127 16.391,22.870 13.930,22.717 11.373 C 22.588 9.210,21.879 7.276,20.575 5.530 C 20.115 4.913,19.087 3.885,18.470 3.425 C 17.047 2.362,15.454 1.679,13.742 1.398 C 13.325 1.330,12.055 1.227,11.880 1.248 C 11.847 1.252,11.703 1.261,11.560 1.267 M12.420 8.260 C 12.398 8.267,12.331 8.284,12.271 8.297 C 12.124 8.329,11.881 8.548,11.814 8.708 C 11.743 8.878,11.745 9.128,11.820 9.306 C 11.857 9.394,12.222 9.795,12.766 10.343 L 13.652 11.237 10.976 11.249 C 8.035 11.261,8.198 11.247,7.953 11.506 C 7.691 11.783,7.691 12.217,7.953 12.494 C 8.198 12.753,8.034 12.739,10.977 12.751 L 13.653 12.763 12.768 13.654 C 12.212 14.213,11.859 14.600,11.821 14.691 C 11.664 15.068,11.814 15.479,12.179 15.669 C 12.338 15.752,12.668 15.748,12.841 15.662 C 13.051 15.556,16.102 12.493,16.178 12.311 C 16.212 12.229,16.240 12.089,16.240 12.000 C 16.240 11.911,16.212 11.771,16.178 11.689 C 16.105 11.515,13.054 8.444,12.860 8.349 C 12.733 8.287,12.488 8.237,12.420 8.260 " stroke="none" fill-rule="evenodd" fill="black"></path></svg>