<svg width="24" height="24" viewBox="0 0 24 24" fill="none" xmlns="http://www.w3.org/2000/svg"><path d="M11.296 1.283 C 10.684 1.320,9.802 1.456,9.648 1.537 C 9.503 1.612,9.335 1.795,9.283 1.933 C 9.186 2.189,9.246 2.497,9.433 2.694 C 9.655 2.928,9.877 2.981,10.310 2.901 C 10.837 2.804,11.371 2.760,12.036 2.760 C 13.462 2.760,14.764 3.063,16.060 3.698 C 17.024 4.170,17.648 4.611,18.434 5.378 C 19.273 6.195,19.814 6.937,20.303 7.940 C 20.944 9.253,21.240 10.537,21.240 12.000 C 21.240 13.465,20.943 14.752,20.302 16.060 C 19.830 17.024,19.389 17.648,18.622 18.434 C 17.805 19.273,17.063 19.814,16.060 20.303 C 14.747 20.944,13.463 21.240,12.000 21.240 C 10.537 21.240,9.253 20.944,7.940 20.303 C 6.937 19.814,6.195 19.273,5.378 18.434 C 4.611 17.648,4.170 17.024,3.698 16.060 C 3.058 14.754,2.760 13.464,2.760 12.006 C 2.760 10.550,3.046 9.284,3.665 8.000 C 4.090 7.118,4.519 6.481,5.162 5.780 C 5.528 5.381,5.600 5.249,5.600 4.980 C 5.600 4.513,5.210 4.188,4.734 4.258 C 4.554 4.285,4.511 4.316,4.140 4.694 C 2.188 6.683,1.102 9.695,1.281 12.630 C 1.412 14.788,2.122 16.722,3.424 18.470 C 3.880 19.083,4.909 20.111,5.530 20.575 C 7.606 22.126,10.070 22.870,12.627 22.717 C 14.790 22.588,16.724 21.879,18.470 20.575 C 19.087 20.115,20.115 19.087,20.575 18.470 C 22.127 16.391,22.870 13.930,22.717 11.373 C 22.588 9.210,21.879 7.276,20.575 5.530 C 20.115 4.913,19.087 3.885,18.470 3.425 C 17.047 2.362,15.454 1.679,13.742 1.398 C 13.336 1.331,12.078 1.229,11.880 1.246 C 11.847 1.249,11.584 1.266,11.296 1.283 M11.681 9.064 C 11.529 9.129,8.035 12.587,7.849 12.857 C 7.759 12.986,7.740 13.057,7.740 13.260 C 7.740 13.466,7.759 13.534,7.854 13.672 C 8.046 13.949,8.437 14.074,8.747 13.958 C 8.809 13.935,9.567 13.210,10.430 12.348 L 12.000 10.781 13.550 12.327 C 14.403 13.177,15.158 13.901,15.228 13.936 C 15.523 14.083,15.960 13.959,16.149 13.674 C 16.293 13.456,16.315 13.177,16.206 12.953 C 16.091 12.715,12.522 9.150,12.311 9.062 C 12.125 8.984,11.862 8.985,11.681 9.064 " stroke="none" fill-rule="evenodd" fill="black"></path></svg>