<svg width="24" height="24" viewBox="0 0 24 24" fill="none" xmlns="http://www.w3.org/2000/svg"><path d="M11.680 2.823 C 11.529 2.888,5.523 8.858,5.331 9.133 C 5.183 9.346,5.159 9.682,5.275 9.909 C 5.493 10.338,5.992 10.441,6.394 10.142 C 6.496 10.067,7.624 8.959,8.900 7.682 L 11.220 5.360 11.240 8.790 L 11.260 12.220 11.353 12.369 C 11.710 12.943,12.576 12.812,12.716 12.162 C 12.746 12.021,12.760 10.913,12.760 8.648 L 12.760 5.341 15.150 7.725 C 16.465 9.035,17.597 10.147,17.667 10.194 C 17.915 10.363,18.295 10.346,18.539 10.154 C 18.821 9.932,18.883 9.442,18.669 9.133 C 18.610 9.049,17.189 7.608,15.511 5.932 C 13.386 3.809,12.415 2.865,12.311 2.822 C 12.125 2.744,11.862 2.745,11.680 2.823 M11.619 15.337 C 11.529 15.391,11.415 15.510,11.359 15.607 L 11.260 15.780 11.260 18.200 C 11.260 19.531,11.274 20.669,11.291 20.729 C 11.333 20.881,11.553 21.121,11.708 21.186 C 11.873 21.255,12.127 21.255,12.292 21.186 C 12.447 21.121,12.667 20.881,12.709 20.729 C 12.726 20.669,12.740 19.531,12.740 18.200 L 12.740 15.780 12.634 15.600 C 12.427 15.248,11.967 15.129,11.619 15.337 " stroke="none" fill-rule="evenodd" fill="black"></path></svg>