<svg width="24" height="24" viewBox="0 0 24 24" fill="none" xmlns="http://www.w3.org/2000/svg"><path d="M8.080 1.282 C 4.042 1.493,1.931 3.265,1.398 6.891 C 1.310 7.494,1.225 8.895,1.264 9.113 C 1.278 9.194,1.325 9.318,1.368 9.389 C 1.658 9.870,2.422 9.836,2.661 9.332 C 2.718 9.212,2.740 9.022,2.765 8.423 C 2.900 5.187,3.905 3.654,6.288 3.044 C 7.337 2.776,7.247 2.780,12.000 2.780 C 15.936 2.780,16.339 2.786,16.760 2.852 C 19.558 3.288,20.712 4.442,21.148 7.240 C 21.214 7.661,21.220 8.064,21.220 12.000 C 21.220 15.936,21.214 16.339,21.148 16.760 C 20.712 19.558,19.558 20.712,16.760 21.148 C 16.339 21.214,15.936 21.220,12.000 21.220 C 8.064 21.220,7.661 21.214,7.240 21.148 C 4.756 20.761,3.576 19.795,3.044 17.712 C 2.820 16.835,2.790 16.494,2.764 14.580 L 2.740 12.820 2.640 12.646 C 2.359 12.154,1.641 12.154,1.360 12.646 C 1.262 12.817,1.260 12.837,1.247 13.860 C 1.223 15.666,1.335 17.079,1.575 18.027 C 2.267 20.757,3.971 22.193,7.027 22.622 C 7.786 22.728,8.902 22.759,12.000 22.759 C 15.098 22.759,16.214 22.728,16.973 22.622 C 19.443 22.275,20.996 21.288,21.897 19.490 C 22.379 18.530,22.638 17.369,22.720 15.807 C 22.771 14.838,22.771 9.162,22.720 8.193 C 22.657 6.998,22.521 6.191,22.242 5.356 C 21.632 3.531,20.469 2.367,18.650 1.760 C 17.788 1.473,17.023 1.344,15.806 1.280 C 14.952 1.235,8.952 1.237,8.080 1.282 M10.515 7.756 C 10.109 7.888,9.880 8.403,10.064 8.772 C 10.099 8.842,10.823 9.597,11.673 10.450 L 13.219 12.000 11.652 13.570 C 10.790 14.433,10.065 15.191,10.042 15.253 C 9.926 15.563,10.051 15.954,10.328 16.146 C 10.466 16.241,10.534 16.260,10.740 16.260 C 10.943 16.260,11.014 16.241,11.143 16.151 C 11.432 15.952,14.872 12.470,14.938 12.310 C 15.017 12.122,15.017 11.878,14.938 11.689 C 14.896 11.588,14.304 10.967,13.088 9.749 C 12.105 8.764,11.235 7.912,11.156 7.858 C 10.999 7.748,10.690 7.700,10.515 7.756 " stroke="none" fill-rule="evenodd" fill="black"></path></svg>