<svg width="24" height="24" viewBox="0 0 24 24" fill="none" xmlns="http://www.w3.org/2000/svg"><path d="M14.934 3.318 C 14.865 3.335,14.748 3.386,14.674 3.432 C 14.487 3.548,13.464 4.592,13.385 4.748 C 13.290 4.935,13.301 5.255,13.410 5.448 C 13.587 5.764,14.070 5.913,14.381 5.748 C 14.574 5.647,15.709 4.479,15.778 4.311 C 15.857 4.122,15.856 3.957,15.778 3.769 C 15.633 3.421,15.284 3.235,14.934 3.318 M10.859 7.280 C 10.668 7.374,7.920 10.119,7.722 10.413 C 7.400 10.891,7.261 11.356,7.261 11.960 C 7.261 12.563,7.399 13.027,7.722 13.507 C 7.900 13.773,14.499 20.381,14.713 20.508 C 14.917 20.629,15.232 20.648,15.421 20.550 C 15.768 20.369,15.923 19.959,15.778 19.609 C 15.735 19.505,14.700 18.441,12.325 16.060 C 8.550 12.276,8.753 12.510,8.753 11.956 C 8.753 11.441,8.780 11.405,10.400 9.780 C 11.190 8.988,11.855 8.289,11.878 8.227 C 11.932 8.082,11.932 7.797,11.877 7.653 C 11.734 7.274,11.237 7.092,10.859 7.280 " stroke="none" fill-rule="evenodd" fill="black"></path></svg>