<svg width="24" height="24" viewBox="0 0 24 24" fill="none" xmlns="http://www.w3.org/2000/svg"><path d="M8.080 1.282 C 4.042 1.493,1.931 3.265,1.398 6.891 C 1.310 7.494,1.225 8.895,1.264 9.113 C 1.278 9.194,1.325 9.318,1.368 9.389 C 1.658 9.870,2.422 9.836,2.661 9.332 C 2.718 9.212,2.740 9.022,2.765 8.423 C 2.900 5.187,3.905 3.654,6.288 3.044 C 7.337 2.776,7.247 2.780,12.000 2.780 C 15.936 2.780,16.339 2.786,16.760 2.852 C 19.558 3.288,20.712 4.442,21.148 7.240 C 21.214 7.661,21.220 8.064,21.220 12.000 C 21.220 15.936,21.214 16.339,21.148 16.760 C 20.712 19.558,19.558 20.712,16.760 21.148 C 16.339 21.214,15.936 21.220,12.000 21.220 C 8.064 21.220,7.661 21.214,7.240 21.148 C 4.756 20.761,3.576 19.795,3.044 17.712 C 2.820 16.836,2.790 16.494,2.764 14.580 C 2.737 12.657,2.744 12.710,2.494 12.473 C 2.217 12.211,1.783 12.211,1.506 12.473 C 1.266 12.700,1.261 12.728,1.247 13.860 C 1.223 15.666,1.335 17.079,1.575 18.027 C 2.267 20.757,3.971 22.193,7.027 22.622 C 7.786 22.728,8.902 22.759,12.000 22.759 C 15.098 22.759,16.214 22.728,16.973 22.622 C 19.443 22.275,20.996 21.288,21.897 19.490 C 22.379 18.530,22.638 17.369,22.720 15.807 C 22.771 14.838,22.771 9.162,22.720 8.193 C 22.657 6.998,22.521 6.191,22.242 5.356 C 21.632 3.531,20.469 2.367,18.650 1.760 C 17.788 1.473,17.023 1.344,15.806 1.280 C 14.952 1.235,8.952 1.237,8.080 1.282 M6.880 6.045 C 6.696 6.100,4.797 7.979,4.679 8.222 C 4.592 8.402,4.577 8.653,4.642 8.827 C 4.699 8.978,6.665 10.954,6.829 11.024 C 6.982 11.091,7.270 11.097,7.427 11.037 C 7.789 10.900,7.977 10.430,7.820 10.054 C 7.787 9.976,7.622 9.769,7.453 9.596 L 7.146 9.280 7.329 9.280 C 9.285 9.280,10.785 10.382,11.290 12.191 C 11.373 12.488,11.377 12.598,11.398 15.000 L 11.420 17.500 11.513 17.630 C 11.866 18.125,12.539 18.112,12.798 17.604 C 12.868 17.466,12.875 17.300,12.899 14.998 C 12.919 13.047,12.937 12.486,12.984 12.280 C 13.363 10.611,14.761 9.423,16.499 9.295 L 16.860 9.268 16.535 9.608 C 16.176 9.984,16.100 10.140,16.130 10.446 C 16.152 10.676,16.308 10.900,16.523 11.010 C 16.676 11.088,16.976 11.102,17.147 11.038 C 17.279 10.989,19.256 9.035,19.346 8.865 C 19.421 8.725,19.429 8.469,19.365 8.276 C 19.331 8.172,19.038 7.855,18.289 7.111 C 17.385 6.214,17.237 6.082,17.080 6.040 C 16.585 5.907,16.120 6.251,16.120 6.750 C 16.120 7.005,16.178 7.107,16.529 7.466 L 16.854 7.800 16.587 7.800 C 16.292 7.800,15.651 7.889,15.340 7.974 C 14.105 8.310,13.059 9.050,12.333 10.105 L 12.138 10.389 11.992 10.164 C 11.639 9.617,11.126 9.108,10.525 8.706 C 9.686 8.144,8.807 7.867,7.700 7.814 L 7.154 7.787 7.453 7.484 C 7.796 7.135,7.880 6.992,7.880 6.755 C 7.880 6.251,7.379 5.895,6.880 6.045 " stroke="none" fill-rule="evenodd" fill="black"></path></svg>