<svg width="24" height="24" viewBox="0 0 24 24" fill="none" xmlns="http://www.w3.org/2000/svg"><path d="M8.080 1.282 C 4.042 1.493,1.931 3.265,1.398 6.891 C 1.310 7.494,1.225 8.895,1.264 9.113 C 1.278 9.194,1.325 9.318,1.368 9.389 C 1.658 9.870,2.422 9.836,2.661 9.332 C 2.718 9.212,2.740 9.022,2.765 8.423 C 2.900 5.187,3.905 3.654,6.288 3.044 C 7.337 2.776,7.247 2.780,12.000 2.780 C 15.936 2.780,16.339 2.786,16.760 2.852 C 19.558 3.288,20.712 4.442,21.148 7.240 C 21.214 7.661,21.220 8.064,21.220 12.000 C 21.220 15.936,21.214 16.339,21.148 16.760 C 20.712 19.558,19.558 20.712,16.760 21.148 C 16.339 21.214,15.936 21.220,12.000 21.220 C 8.064 21.220,7.661 21.214,7.240 21.148 C 4.756 20.761,3.576 19.795,3.044 17.712 C 2.820 16.833,2.790 16.496,2.764 14.560 C 2.738 12.635,2.741 12.665,2.513 12.452 C 2.391 12.337,2.155 12.240,2.000 12.240 C 1.745 12.240,1.460 12.418,1.326 12.660 C 1.180 12.925,1.229 15.959,1.398 17.107 C 1.885 20.415,3.654 22.148,7.027 22.622 C 7.786 22.728,8.902 22.759,12.000 22.759 C 15.098 22.759,16.214 22.728,16.973 22.622 C 19.443 22.275,20.996 21.288,21.897 19.490 C 22.379 18.530,22.638 17.369,22.720 15.807 C 22.771 14.838,22.771 9.162,22.720 8.193 C 22.657 6.998,22.521 6.191,22.242 5.356 C 21.632 3.531,20.469 2.367,18.650 1.760 C 17.788 1.473,17.023 1.344,15.806 1.280 C 14.952 1.235,8.952 1.237,8.080 1.282 M8.380 9.900 C 8.358 9.907,8.292 9.924,8.233 9.936 C 7.979 9.992,7.722 10.347,7.722 10.640 C 7.722 10.717,7.755 10.852,7.796 10.940 C 7.847 11.048,8.485 11.711,9.746 12.966 C 11.538 14.750,11.628 14.833,11.810 14.871 C 11.934 14.897,12.066 14.897,12.190 14.871 C 12.372 14.833,12.462 14.750,14.254 12.966 C 15.515 11.711,16.153 11.048,16.204 10.940 C 16.370 10.583,16.220 10.157,15.861 9.970 C 15.702 9.888,15.371 9.892,15.199 9.979 C 15.123 10.017,14.372 10.735,13.530 11.574 L 12.000 13.099 10.470 11.574 C 9.629 10.735,8.886 10.022,8.820 9.990 C 8.694 9.928,8.448 9.877,8.380 9.900 " stroke="none" fill-rule="evenodd" fill="black"></path></svg>