<svg width="24" height="24" viewBox="0 0 24 24" fill="none" xmlns="http://www.w3.org/2000/svg"><path d="M8.080 1.282 C 4.042 1.493,1.931 3.265,1.398 6.891 C 1.310 7.494,1.225 8.895,1.264 9.113 C 1.278 9.194,1.325 9.318,1.368 9.389 C 1.658 9.870,2.422 9.836,2.661 9.332 C 2.718 9.212,2.740 9.022,2.765 8.423 C 2.900 5.187,3.905 3.654,6.288 3.044 C 7.337 2.776,7.247 2.780,12.000 2.780 C 15.936 2.780,16.339 2.786,16.760 2.852 C 19.558 3.288,20.712 4.442,21.148 7.240 C 21.214 7.661,21.220 8.064,21.220 12.000 C 21.220 15.936,21.214 16.339,21.148 16.760 C 20.712 19.558,19.558 20.712,16.760 21.148 C 16.339 21.214,15.936 21.220,12.000 21.220 C 8.064 21.220,7.661 21.214,7.240 21.148 C 4.756 20.761,3.576 19.795,3.044 17.712 C 2.820 16.836,2.790 16.494,2.764 14.580 C 2.737 12.657,2.744 12.710,2.494 12.473 C 2.217 12.211,1.783 12.211,1.506 12.473 C 1.266 12.700,1.261 12.728,1.247 13.860 C 1.223 15.666,1.335 17.079,1.575 18.027 C 2.267 20.757,3.971 22.193,7.027 22.622 C 7.786 22.728,8.902 22.759,12.000 22.759 C 15.098 22.759,16.214 22.728,16.973 22.622 C 19.443 22.275,20.996 21.288,21.897 19.490 C 22.379 18.530,22.638 17.369,22.720 15.807 C 22.771 14.838,22.771 9.162,22.720 8.193 C 22.657 6.998,22.521 6.191,22.242 5.356 C 21.632 3.531,20.469 2.367,18.650 1.760 C 17.788 1.473,17.023 1.344,15.806 1.280 C 14.952 1.235,8.952 1.237,8.080 1.282 M12.560 6.264 C 11.961 6.338,11.419 6.493,10.945 6.726 C 10.201 7.091,9.798 7.437,8.107 9.163 C 6.680 10.618,6.441 10.953,6.184 11.846 C 5.790 13.220,6.100 14.632,7.039 15.740 C 7.310 16.059,7.481 16.160,7.755 16.160 C 8.180 16.160,8.491 15.850,8.491 15.425 C 8.491 15.175,8.455 15.102,8.158 14.748 C 7.709 14.214,7.520 13.702,7.520 13.017 C 7.520 12.745,7.546 12.511,7.599 12.304 C 7.758 11.684,7.784 11.650,9.537 9.894 L 11.140 8.288 11.560 8.085 C 12.082 7.833,12.438 7.753,13.040 7.754 C 13.964 7.756,14.759 8.097,15.364 8.750 C 15.966 9.400,16.242 10.083,16.248 10.940 C 16.251 11.464,16.195 11.796,16.035 12.197 C 15.817 12.745,15.618 12.986,14.262 14.348 C 12.792 15.826,12.745 15.860,12.200 15.859 C 11.974 15.858,11.851 15.836,11.700 15.767 C 11.099 15.493,10.811 14.798,11.042 14.180 C 11.123 13.963,11.214 13.857,11.980 13.080 C 12.447 12.607,12.852 12.175,12.881 12.120 C 12.968 11.955,12.947 11.594,12.842 11.423 C 12.640 11.097,12.216 10.970,11.875 11.134 C 11.646 11.245,10.010 12.929,9.829 13.240 C 9.590 13.652,9.512 13.946,9.490 14.522 C 9.468 15.110,9.542 15.460,9.791 15.938 C 10.010 16.359,10.518 16.851,10.960 17.072 C 11.729 17.456,12.658 17.460,13.420 17.083 C 13.843 16.874,14.210 16.546,15.560 15.175 C 16.426 14.296,16.717 13.974,16.927 13.659 C 17.380 12.983,17.630 12.301,17.720 11.500 C 17.880 10.081,17.379 8.657,16.361 7.639 C 15.695 6.973,14.870 6.531,13.940 6.341 C 13.621 6.275,12.827 6.232,12.560 6.264 " stroke="none" fill-rule="evenodd" fill="black"></path></svg>