<svg width="24" height="24" viewBox="0 0 24 24" fill="none" xmlns="http://www.w3.org/2000/svg"><path d="M11.560 1.267 C 10.326 1.322,9.152 1.571,8.041 2.012 C 7.427 2.256,7.240 2.454,7.240 2.860 C 7.240 3.229,7.525 3.548,7.892 3.589 C 8.032 3.605,8.152 3.574,8.523 3.428 C 9.718 2.955,10.735 2.760,12.006 2.760 C 13.464 2.760,14.754 3.058,16.060 3.698 C 17.024 4.170,17.648 4.611,18.434 5.378 C 19.273 6.195,19.814 6.937,20.303 7.940 C 20.944 9.253,21.240 10.537,21.240 12.000 C 21.240 13.465,20.943 14.752,20.302 16.060 C 19.830 17.024,19.389 17.648,18.622 18.434 C 17.805 19.273,17.063 19.814,16.060 20.303 C 14.747 20.944,13.463 21.240,12.000 21.240 C 10.537 21.240,9.253 20.944,7.940 20.303 C 6.937 19.814,6.195 19.273,5.378 18.434 C 4.611 17.648,4.170 17.024,3.698 16.060 C 3.058 14.754,2.760 13.464,2.760 12.005 C 2.760 10.060,3.331 8.256,4.457 6.648 C 4.701 6.298,4.770 6.095,4.724 5.855 C 4.656 5.497,4.372 5.267,4.000 5.267 C 3.678 5.267,3.534 5.369,3.222 5.816 C 1.432 8.383,0.834 11.537,1.564 14.550 C 1.904 15.951,2.529 17.268,3.424 18.470 C 3.880 19.083,4.909 20.111,5.530 20.575 C 7.606 22.126,10.070 22.870,12.627 22.717 C 14.790 22.588,16.724 21.879,18.470 20.575 C 19.087 20.115,20.115 19.087,20.575 18.470 C 22.127 16.391,22.870 13.930,22.717 11.373 C 22.588 9.210,21.879 7.276,20.575 5.530 C 20.115 4.913,19.087 3.885,18.470 3.425 C 17.047 2.362,15.454 1.679,13.742 1.398 C 13.325 1.330,12.055 1.227,11.880 1.248 C 11.847 1.252,11.703 1.261,11.560 1.267 M12.560 6.264 C 11.961 6.338,11.419 6.493,10.945 6.726 C 10.201 7.091,9.798 7.437,8.107 9.163 C 6.680 10.618,6.441 10.953,6.184 11.846 C 5.790 13.220,6.100 14.632,7.039 15.740 C 7.310 16.059,7.481 16.160,7.755 16.160 C 8.180 16.160,8.491 15.850,8.491 15.425 C 8.491 15.175,8.455 15.102,8.158 14.748 C 7.709 14.214,7.520 13.702,7.520 13.017 C 7.520 12.745,7.546 12.511,7.599 12.304 C 7.758 11.684,7.784 11.650,9.537 9.894 L 11.140 8.288 11.560 8.085 C 12.082 7.833,12.438 7.753,13.040 7.754 C 13.964 7.756,14.759 8.097,15.364 8.750 C 15.966 9.400,16.242 10.083,16.248 10.940 C 16.251 11.464,16.195 11.796,16.035 12.197 C 15.817 12.745,15.618 12.986,14.262 14.348 C 12.792 15.826,12.745 15.860,12.200 15.859 C 11.974 15.858,11.851 15.836,11.700 15.767 C 11.099 15.493,10.811 14.798,11.042 14.180 C 11.123 13.963,11.214 13.857,11.980 13.080 C 12.447 12.607,12.852 12.175,12.881 12.120 C 12.968 11.955,12.947 11.594,12.842 11.423 C 12.640 11.097,12.216 10.970,11.875 11.134 C 11.646 11.245,10.010 12.929,9.829 13.240 C 9.590 13.652,9.512 13.946,9.490 14.522 C 9.468 15.110,9.542 15.460,9.791 15.938 C 10.010 16.359,10.518 16.851,10.960 17.072 C 11.729 17.456,12.658 17.460,13.420 17.083 C 13.843 16.874,14.210 16.546,15.560 15.175 C 16.426 14.296,16.717 13.974,16.927 13.659 C 17.380 12.983,17.630 12.301,17.720 11.500 C 17.880 10.081,17.379 8.657,16.361 7.639 C 15.695 6.973,14.870 6.531,13.940 6.341 C 13.621 6.275,12.827 6.232,12.560 6.264 " stroke="none" fill-rule="evenodd" fill="black"></path></svg>