<svg width="24" height="24" viewBox="0 0 24 24" fill="none" xmlns="http://www.w3.org/2000/svg"><path d="M8.080 1.282 C 4.042 1.493,1.931 3.265,1.398 6.891 C 1.310 7.494,1.225 8.895,1.264 9.113 C 1.278 9.194,1.325 9.318,1.368 9.389 C 1.658 9.870,2.422 9.836,2.661 9.332 C 2.718 9.212,2.740 9.022,2.765 8.423 C 2.900 5.187,3.905 3.654,6.288 3.044 C 7.337 2.776,7.247 2.780,12.000 2.780 C 15.936 2.780,16.339 2.786,16.760 2.852 C 19.558 3.288,20.712 4.442,21.148 7.240 C 21.214 7.661,21.220 8.064,21.220 12.000 C 21.220 15.936,21.214 16.339,21.148 16.760 C 20.712 19.558,19.558 20.712,16.760 21.148 C 16.339 21.214,15.936 21.220,12.000 21.220 C 8.064 21.220,7.661 21.214,7.240 21.148 C 4.756 20.761,3.576 19.795,3.044 17.712 C 2.820 16.833,2.790 16.496,2.764 14.560 C 2.738 12.635,2.741 12.665,2.513 12.452 C 2.391 12.337,2.155 12.240,2.000 12.240 C 1.745 12.240,1.460 12.418,1.326 12.660 C 1.180 12.925,1.229 15.959,1.398 17.107 C 1.885 20.415,3.654 22.148,7.027 22.622 C 7.786 22.728,8.902 22.759,12.000 22.759 C 15.098 22.759,16.214 22.728,16.973 22.622 C 19.443 22.275,20.996 21.288,21.897 19.490 C 22.379 18.530,22.638 17.369,22.720 15.807 C 22.771 14.838,22.771 9.162,22.720 8.193 C 22.657 6.998,22.521 6.191,22.242 5.356 C 21.632 3.531,20.469 2.367,18.650 1.760 C 17.788 1.473,17.023 1.344,15.806 1.280 C 14.952 1.235,8.952 1.237,8.080 1.282 M12.177 6.031 C 11.578 6.244,11.173 6.703,11.045 7.312 C 11.014 7.455,11.000 8.355,11.000 10.082 C 11.000 11.489,10.993 12.640,10.985 12.640 C 10.977 12.640,10.871 12.596,10.750 12.543 C 10.043 12.230,9.098 12.253,8.380 12.600 C 6.957 13.287,6.355 15.003,7.040 16.420 C 8.081 18.575,11.159 18.575,12.200 16.420 C 12.475 15.851,12.480 15.791,12.480 12.997 C 12.480 11.025,12.490 10.515,12.530 10.530 C 13.101 10.743,15.092 11.368,15.293 11.396 C 16.195 11.524,17.035 10.928,17.200 10.045 C 17.253 9.757,17.251 8.817,17.196 8.552 C 17.098 8.078,16.705 7.456,16.329 7.181 C 16.032 6.963,15.827 6.880,14.440 6.418 C 13.209 6.008,13.120 5.985,12.760 5.972 C 12.468 5.961,12.333 5.975,12.177 6.031 M14.060 7.865 C 15.284 8.272,15.347 8.298,15.501 8.457 C 15.704 8.666,15.760 8.853,15.759 9.325 C 15.759 9.768,15.711 9.895,15.539 9.911 C 15.468 9.918,14.909 9.751,14.161 9.500 C 12.506 8.945,12.502 8.941,12.501 8.067 C 12.500 7.605,12.508 7.548,12.578 7.497 C 12.620 7.466,12.683 7.440,12.718 7.440 C 12.752 7.440,13.356 7.631,14.060 7.865 M10.188 13.939 C 10.457 14.062,10.740 14.347,10.867 14.625 C 11.015 14.947,11.016 15.411,10.871 15.728 C 10.738 16.018,10.459 16.297,10.168 16.431 C 9.844 16.580,9.396 16.580,9.072 16.431 C 8.782 16.298,8.503 16.019,8.368 15.728 C 8.219 15.407,8.219 14.959,8.369 14.632 C 8.549 14.240,8.934 13.923,9.334 13.840 C 9.578 13.788,9.951 13.832,10.188 13.939 " stroke="none" fill-rule="evenodd" fill="black"></path></svg>