<svg width="24" height="24" viewBox="0 0 24 24" fill="none" xmlns="http://www.w3.org/2000/svg"><path d="M8.988 1.284 C 7.154 1.435,6.033 2.489,5.801 4.280 C 5.780 4.445,5.761 5.192,5.760 5.940 L 5.757 7.300 5.257 7.634 C 4.324 8.257,3.958 8.610,3.739 9.100 C 3.539 9.549,3.540 9.522,3.540 13.540 C 3.540 17.066,3.545 17.316,3.613 17.560 C 3.791 18.188,4.146 18.609,5.010 19.211 C 5.427 19.502,9.882 22.115,10.480 22.419 C 10.986 22.677,11.754 22.797,12.408 22.721 C 13.007 22.651,13.337 22.530,14.060 22.115 C 15.252 21.431,15.367 21.354,15.457 21.180 C 15.580 20.943,15.569 20.618,15.431 20.410 C 15.304 20.218,15.043 20.080,14.806 20.080 C 14.612 20.080,14.520 20.123,13.700 20.600 C 12.653 21.209,12.553 21.247,11.980 21.245 C 11.720 21.245,11.542 21.221,11.376 21.165 C 11.099 21.072,6.553 18.459,5.975 18.061 C 5.431 17.687,5.161 17.451,5.085 17.282 C 5.027 17.155,5.020 16.774,5.020 13.540 C 5.020 10.155,5.024 9.929,5.093 9.751 C 5.173 9.543,5.314 9.412,5.900 8.997 C 6.422 8.627,11.090 5.931,11.373 5.836 C 11.704 5.724,12.295 5.724,12.624 5.834 C 12.906 5.930,17.439 8.537,18.040 8.950 C 18.649 9.368,18.868 9.571,18.929 9.772 C 18.969 9.903,18.980 10.732,18.980 13.500 C 18.980 17.641,19.014 17.298,18.566 17.654 C 18.420 17.771,18.129 17.984,17.920 18.129 C 17.373 18.507,17.280 18.628,17.280 18.964 C 17.280 19.423,17.723 19.783,18.165 19.683 C 18.350 19.642,19.182 19.097,19.596 18.746 C 20.034 18.375,20.282 17.973,20.412 17.424 C 20.448 17.272,20.460 16.256,20.460 13.460 C 20.460 9.934,20.455 9.684,20.387 9.440 C 20.212 8.821,19.870 8.411,19.040 7.825 C 18.765 7.631,18.473 7.433,18.390 7.386 L 18.241 7.300 18.239 5.940 C 18.238 5.192,18.220 4.445,18.199 4.280 C 18.036 3.022,17.449 2.138,16.460 1.660 C 16.014 1.445,15.562 1.332,14.940 1.281 C 14.375 1.234,9.558 1.237,8.988 1.284 M15.272 2.824 C 15.893 2.952,16.272 3.221,16.496 3.694 C 16.702 4.127,16.726 4.288,16.748 5.416 L 16.769 6.452 16.634 6.370 C 16.137 6.068,13.582 4.609,13.416 4.533 C 12.994 4.339,12.624 4.271,12.000 4.271 C 11.375 4.271,11.007 4.339,10.581 4.534 C 10.467 4.586,9.683 5.030,8.837 5.520 C 7.992 6.010,7.285 6.419,7.266 6.430 C 7.214 6.460,7.264 4.414,7.321 4.180 C 7.457 3.622,7.753 3.213,8.170 3.008 C 8.659 2.769,8.686 2.767,11.972 2.763 C 14.560 2.760,15.005 2.769,15.272 2.824 M11.548 9.935 C 11.162 10.079,10.925 10.321,10.469 11.040 L 10.177 11.500 9.558 11.662 C 9.218 11.751,8.852 11.868,8.745 11.922 C 8.349 12.120,8.087 12.481,8.003 12.945 C 7.914 13.435,8.061 13.788,8.660 14.516 L 9.020 14.954 9.020 15.787 C 9.020 16.602,9.022 16.625,9.124 16.840 C 9.391 17.402,9.983 17.707,10.607 17.604 C 10.758 17.579,11.110 17.467,11.391 17.355 C 11.848 17.171,11.933 17.150,12.226 17.145 C 12.528 17.140,12.564 17.131,12.706 17.016 C 12.926 16.839,13.011 16.672,13.011 16.425 C 13.011 15.930,12.638 15.640,11.999 15.640 C 11.712 15.640,11.494 15.701,10.875 15.953 L 10.490 16.110 10.495 15.345 C 10.501 14.388,10.499 14.382,9.785 13.521 C 9.655 13.365,9.559 13.228,9.572 13.215 C 9.584 13.203,9.828 13.134,10.113 13.062 C 10.399 12.990,10.720 12.889,10.826 12.837 C 11.105 12.703,11.379 12.405,11.700 11.890 C 11.854 11.643,11.990 11.440,12.003 11.440 C 12.016 11.440,12.159 11.652,12.322 11.910 C 12.649 12.430,12.892 12.693,13.171 12.832 C 13.273 12.882,13.609 12.989,13.919 13.068 C 14.423 13.197,14.476 13.219,14.427 13.276 C 13.692 14.139,13.527 14.424,13.492 14.890 C 13.460 15.312,13.593 15.558,13.930 15.698 C 14.376 15.885,14.874 15.609,14.947 15.136 C 14.965 15.021,15.051 14.883,15.276 14.608 C 15.754 14.024,15.874 13.839,15.965 13.546 C 16.164 12.905,15.851 12.199,15.240 11.912 C 15.119 11.855,14.754 11.741,14.430 11.658 L 13.840 11.508 13.496 10.975 C 12.933 10.102,12.685 9.915,12.060 9.892 C 11.819 9.883,11.650 9.898,11.548 9.935 " stroke="none" fill-rule="evenodd" fill="black"></path></svg>