<svg width="24" height="24" viewBox="0 0 24 24" fill="none" xmlns="http://www.w3.org/2000/svg"><path d="M9.740 5.702 C 9.581 5.733,9.313 5.831,9.120 5.928 C 8.830 6.075,8.767 6.126,8.682 6.280 C 8.469 6.667,8.605 7.108,9.001 7.313 C 9.225 7.429,9.440 7.412,9.780 7.253 C 10.391 6.968,11.132 7.240,11.404 7.851 L 11.498 8.060 11.498 12.000 L 11.498 15.940 11.404 16.149 C 11.234 16.531,10.817 16.825,10.387 16.866 C 10.003 16.903,10.349 17.085,5.600 14.349 C 4.379 13.646,3.308 13.018,3.221 12.954 C 3.035 12.819,2.858 12.570,2.801 12.365 C 2.741 12.150,2.752 11.799,2.824 11.587 C 2.945 11.232,3.121 11.097,4.480 10.316 C 5.173 9.917,5.796 9.549,5.864 9.498 C 6.031 9.373,6.120 9.172,6.120 8.922 C 6.120 8.690,6.060 8.550,5.894 8.393 C 5.746 8.253,5.600 8.200,5.362 8.200 C 5.186 8.200,5.064 8.261,3.893 8.932 C 2.447 9.762,2.295 9.860,2.029 10.132 C 1.529 10.644,1.280 11.271,1.280 12.020 C 1.280 12.507,1.346 12.788,1.567 13.240 C 1.698 13.511,1.798 13.645,2.056 13.900 C 2.340 14.181,2.490 14.284,3.280 14.738 C 3.775 15.023,5.242 15.867,6.540 16.614 C 7.838 17.361,9.030 18.035,9.190 18.110 C 9.615 18.313,10.121 18.391,10.607 18.330 C 11.579 18.206,12.358 17.633,12.760 16.746 C 12.935 16.360,12.969 16.170,12.996 15.414 L 13.020 14.728 13.400 14.949 C 15.885 16.389,18.645 17.964,18.900 18.086 C 20.028 18.629,21.363 18.315,22.171 17.316 C 22.392 17.043,22.583 16.648,22.666 16.294 C 22.735 16.000,22.740 15.725,22.740 12.000 C 22.740 7.550,22.748 7.690,22.456 7.130 C 22.218 6.672,21.945 6.375,21.490 6.077 C 20.815 5.634,19.913 5.533,19.146 5.814 C 18.921 5.897,17.826 6.515,14.310 8.546 C 13.611 8.950,13.030 9.280,13.020 9.280 C 13.009 9.280,12.999 9.024,12.999 8.710 C 12.997 8.030,12.933 7.636,12.766 7.266 C 12.228 6.081,11.015 5.453,9.740 5.702 M20.543 7.258 C 20.801 7.374,21.022 7.595,21.144 7.856 L 21.239 8.060 21.240 11.983 C 21.240 16.325,21.253 16.111,20.981 16.428 C 20.907 16.515,20.736 16.644,20.602 16.716 C 20.285 16.885,20.016 16.914,19.720 16.813 C 19.521 16.745,18.274 16.039,14.340 13.767 L 13.020 13.005 13.009 12.023 L 12.999 11.042 13.149 10.945 C 13.302 10.847,15.869 9.366,18.311 7.967 C 19.043 7.547,19.718 7.187,19.811 7.165 C 20.036 7.113,20.295 7.145,20.543 7.258 " stroke="none" fill-rule="evenodd" fill="black"></path></svg>