<svg width="24" height="24" viewBox="0 0 24 24" fill="none" xmlns="http://www.w3.org/2000/svg"><path d="M11.820 1.276 C 11.754 1.293,11.657 1.332,11.605 1.363 C 11.505 1.423,9.472 3.924,9.350 4.136 C 9.271 4.274,9.258 4.576,9.323 4.747 C 9.370 4.873,9.538 5.064,9.660 5.130 C 9.817 5.216,10.050 5.233,10.271 5.176 C 12.452 4.607,15.182 5.228,17.040 6.714 C 17.389 6.993,18.037 7.635,18.323 7.984 C 18.888 8.674,19.462 9.723,19.735 10.561 C 20.664 13.415,19.965 16.532,17.910 18.704 C 16.623 20.063,14.940 20.923,13.060 21.183 C 12.411 21.272,11.174 21.244,10.537 21.125 C 8.919 20.822,7.529 20.098,6.306 18.921 C 5.720 18.358,5.287 17.778,4.816 16.927 C 4.588 16.515,4.517 16.418,4.382 16.342 C 4.145 16.207,4.019 16.189,3.785 16.257 C 3.553 16.324,3.395 16.466,3.302 16.689 C 3.198 16.939,3.223 17.080,3.458 17.547 C 4.610 19.842,6.824 21.655,9.354 22.377 C 10.804 22.790,12.513 22.849,14.000 22.536 C 16.420 22.028,18.617 20.542,19.998 18.481 C 21.544 16.175,22.016 13.358,21.313 10.640 C 20.996 9.415,20.323 8.085,19.502 7.060 C 19.191 6.671,18.569 6.044,18.140 5.686 C 16.512 4.328,14.213 3.480,12.156 3.480 C 11.960 3.480,11.800 3.471,11.800 3.459 C 11.800 3.448,11.996 3.195,12.235 2.899 C 12.723 2.294,12.798 2.129,12.717 1.829 C 12.692 1.736,12.637 1.612,12.595 1.553 C 12.438 1.332,12.092 1.209,11.820 1.276 M4.731 7.078 C 4.660 7.095,4.557 7.139,4.501 7.176 C 4.365 7.265,4.062 7.683,3.731 8.240 C 2.899 9.638,2.470 11.063,2.377 12.740 C 2.349 13.247,2.386 13.430,2.552 13.613 C 2.731 13.811,3.122 13.898,3.387 13.798 C 3.544 13.739,3.751 13.530,3.798 13.383 C 3.820 13.315,3.856 12.989,3.878 12.657 C 3.979 11.136,4.423 9.856,5.311 8.527 C 5.625 8.057,5.640 8.025,5.640 7.811 C 5.640 7.322,5.195 6.963,4.731 7.078 M9.220 9.915 C 9.104 9.968,8.846 10.227,8.288 10.851 C 7.350 11.900,7.378 11.865,7.324 12.066 C 7.226 12.430,7.408 12.787,7.769 12.938 C 8.055 13.057,8.329 12.989,8.605 12.731 L 8.800 12.549 8.800 14.312 C 8.800 15.460,8.815 16.114,8.843 16.187 C 8.945 16.460,9.233 16.651,9.540 16.651 C 9.847 16.651,10.135 16.460,10.237 16.187 C 10.266 16.112,10.280 15.150,10.279 13.247 C 10.278 10.590,10.274 10.410,10.205 10.260 C 10.117 10.070,10.028 9.984,9.830 9.902 C 9.635 9.820,9.417 9.825,9.220 9.915 M13.387 9.902 C 12.589 10.081,11.899 10.633,11.540 11.380 C 11.282 11.915,11.260 12.063,11.261 13.280 C 11.261 14.160,11.273 14.384,11.331 14.600 C 11.604 15.617,12.439 16.413,13.448 16.618 C 14.882 16.908,16.286 16.028,16.669 14.600 C 16.727 14.384,16.739 14.160,16.739 13.280 C 16.740 12.057,16.718 11.911,16.455 11.374 C 16.133 10.715,15.539 10.192,14.869 9.977 C 14.450 9.843,13.800 9.810,13.387 9.902 M14.546 11.462 C 14.797 11.584,15.016 11.818,15.147 12.104 C 15.244 12.316,15.245 12.330,15.233 13.309 C 15.218 14.428,15.208 14.472,14.874 14.806 C 14.275 15.405,13.282 15.240,12.872 14.472 C 12.783 14.305,12.780 14.267,12.780 13.260 C 12.780 12.248,12.783 12.215,12.873 12.040 C 13.201 11.409,13.926 11.159,14.546 11.462 " stroke="none" fill-rule="evenodd" fill="black"></path></svg>