<svg width="24" height="24" viewBox="0 0 24 24" fill="none" xmlns="http://www.w3.org/2000/svg"><path d="M11.820 1.276 C 11.754 1.293,11.657 1.332,11.605 1.363 C 11.505 1.423,9.472 3.924,9.350 4.136 C 9.271 4.274,9.258 4.576,9.323 4.747 C 9.370 4.873,9.538 5.064,9.660 5.130 C 9.817 5.216,10.050 5.233,10.271 5.176 C 12.452 4.607,15.182 5.228,17.040 6.714 C 17.389 6.993,18.037 7.635,18.323 7.984 C 18.888 8.674,19.462 9.723,19.735 10.561 C 20.664 13.415,19.965 16.532,17.910 18.704 C 16.623 20.063,14.940 20.923,13.060 21.183 C 12.411 21.272,11.174 21.244,10.537 21.125 C 8.919 20.822,7.529 20.098,6.306 18.921 C 5.720 18.358,5.287 17.778,4.816 16.927 C 4.588 16.515,4.517 16.418,4.382 16.342 C 4.145 16.207,4.019 16.189,3.785 16.257 C 3.553 16.324,3.395 16.466,3.302 16.689 C 3.198 16.939,3.223 17.080,3.458 17.547 C 4.610 19.842,6.824 21.655,9.354 22.377 C 10.804 22.790,12.513 22.849,14.000 22.536 C 16.420 22.028,18.617 20.542,19.998 18.481 C 21.544 16.175,22.016 13.358,21.313 10.640 C 20.996 9.415,20.323 8.085,19.502 7.060 C 19.191 6.671,18.569 6.044,18.140 5.686 C 16.512 4.328,14.213 3.480,12.156 3.480 C 11.960 3.480,11.800 3.471,11.800 3.459 C 11.800 3.448,11.996 3.195,12.235 2.899 C 12.723 2.294,12.798 2.129,12.717 1.829 C 12.692 1.736,12.637 1.612,12.595 1.553 C 12.438 1.332,12.092 1.209,11.820 1.276 M4.731 7.078 C 4.660 7.095,4.557 7.139,4.501 7.176 C 4.365 7.265,4.062 7.683,3.731 8.240 C 2.899 9.638,2.470 11.063,2.377 12.740 C 2.349 13.247,2.386 13.430,2.552 13.613 C 2.731 13.811,3.122 13.898,3.387 13.798 C 3.544 13.739,3.751 13.530,3.798 13.383 C 3.820 13.315,3.856 12.987,3.878 12.654 C 3.978 11.145,4.425 9.850,5.297 8.546 C 5.625 8.055,5.640 8.023,5.640 7.810 C 5.640 7.322,5.195 6.963,4.731 7.078 M9.300 10.121 C 9.234 10.142,9.132 10.199,9.074 10.249 C 8.880 10.414,7.443 12.038,7.373 12.170 C 7.288 12.331,7.287 12.661,7.371 12.821 C 7.508 13.085,7.756 13.240,8.040 13.240 C 8.261 13.240,8.376 13.186,8.601 12.975 L 8.800 12.789 8.800 14.562 C 8.800 16.287,8.802 16.339,8.885 16.510 C 9.011 16.770,9.229 16.900,9.540 16.900 C 9.746 16.900,9.814 16.881,9.952 16.786 C 10.046 16.720,10.152 16.599,10.199 16.503 C 10.278 16.339,10.280 16.269,10.280 13.500 C 10.280 10.731,10.278 10.661,10.199 10.497 C 10.048 10.187,9.637 10.014,9.300 10.121 M12.650 10.125 C 12.579 10.145,12.459 10.223,12.385 10.298 C 12.265 10.418,12.197 10.590,11.820 11.721 C 11.334 13.178,11.320 13.269,11.549 13.552 C 11.800 13.862,11.774 13.858,13.323 13.880 C 14.704 13.900,14.706 13.900,14.847 13.996 C 15.269 14.286,15.321 14.885,14.953 15.228 C 14.737 15.430,14.655 15.440,13.280 15.440 C 12.216 15.440,11.972 15.450,11.850 15.502 C 11.652 15.584,11.563 15.670,11.475 15.860 C 11.284 16.276,11.491 16.757,11.915 16.883 C 12.011 16.911,12.548 16.921,13.500 16.912 C 14.926 16.898,14.943 16.897,15.201 16.797 C 15.881 16.535,16.385 16.005,16.604 15.320 C 16.720 14.957,16.721 14.324,16.604 13.957 C 16.395 13.295,15.787 12.687,15.123 12.475 C 14.903 12.405,14.723 12.388,14.030 12.370 C 13.573 12.359,13.200 12.338,13.200 12.325 C 13.200 12.311,13.255 12.134,13.323 11.930 L 13.447 11.560 14.810 11.560 L 16.173 11.560 16.337 11.464 C 16.747 11.224,16.818 10.614,16.473 10.292 C 16.251 10.084,16.207 10.080,14.431 10.084 C 13.523 10.086,12.722 10.104,12.650 10.125 " stroke="none" fill-rule="evenodd" fill="black"></path></svg>