<svg width="24" height="24" viewBox="0 0 24 24" fill="none" xmlns="http://www.w3.org/2000/svg"><path d="M11.820 1.276 C 11.754 1.293,11.657 1.332,11.605 1.363 C 11.505 1.423,9.472 3.924,9.350 4.136 C 9.271 4.274,9.258 4.576,9.323 4.747 C 9.370 4.873,9.538 5.064,9.660 5.130 C 9.817 5.216,10.050 5.233,10.271 5.176 C 12.452 4.607,15.182 5.228,17.040 6.714 C 17.389 6.993,18.037 7.635,18.323 7.984 C 18.888 8.674,19.462 9.723,19.735 10.561 C 20.664 13.415,19.965 16.532,17.910 18.704 C 16.623 20.063,14.940 20.923,13.060 21.183 C 12.411 21.272,11.174 21.244,10.537 21.125 C 8.919 20.822,7.529 20.098,6.306 18.921 C 5.720 18.358,5.287 17.778,4.816 16.927 C 4.588 16.515,4.517 16.418,4.382 16.342 C 4.145 16.207,4.019 16.189,3.785 16.257 C 3.553 16.324,3.395 16.466,3.302 16.689 C 3.198 16.939,3.223 17.080,3.458 17.547 C 4.610 19.842,6.824 21.655,9.354 22.377 C 10.804 22.790,12.513 22.849,14.000 22.536 C 16.420 22.028,18.617 20.542,19.998 18.481 C 21.544 16.175,22.016 13.358,21.313 10.640 C 20.996 9.415,20.323 8.085,19.502 7.060 C 19.191 6.671,18.569 6.044,18.140 5.686 C 16.512 4.328,14.213 3.480,12.156 3.480 C 11.960 3.480,11.800 3.471,11.800 3.459 C 11.800 3.448,11.996 3.195,12.235 2.899 C 12.723 2.294,12.798 2.129,12.717 1.829 C 12.692 1.736,12.637 1.612,12.595 1.553 C 12.438 1.332,12.092 1.209,11.820 1.276 M4.731 7.078 C 4.660 7.095,4.557 7.139,4.501 7.176 C 4.365 7.265,4.062 7.683,3.731 8.240 C 2.899 9.638,2.470 11.063,2.377 12.740 C 2.349 13.247,2.386 13.430,2.552 13.613 C 2.731 13.811,3.122 13.898,3.387 13.798 C 3.544 13.739,3.751 13.530,3.798 13.383 C 3.820 13.315,3.856 12.989,3.878 12.657 C 3.979 11.136,4.423 9.856,5.311 8.527 C 5.625 8.057,5.640 8.025,5.640 7.811 C 5.640 7.322,5.195 6.963,4.731 7.078 M10.608 10.125 C 10.536 10.146,10.410 10.231,10.328 10.313 C 10.193 10.449,10.143 10.575,9.770 11.702 C 9.475 12.595,9.360 12.996,9.360 13.137 C 9.360 13.400,9.507 13.650,9.732 13.770 C 9.894 13.857,9.945 13.861,11.280 13.880 C 12.255 13.894,12.685 13.914,12.745 13.948 C 12.881 14.027,13.068 14.262,13.120 14.421 C 13.227 14.746,13.077 15.136,12.773 15.325 C 12.621 15.419,12.608 15.420,11.214 15.440 L 9.807 15.460 9.654 15.583 C 9.453 15.743,9.360 15.932,9.360 16.180 C 9.360 16.428,9.453 16.617,9.654 16.777 L 9.807 16.900 11.221 16.911 C 12.754 16.924,12.942 16.906,13.372 16.702 C 13.859 16.472,14.367 15.904,14.537 15.400 C 14.631 15.122,14.665 14.455,14.601 14.146 C 14.443 13.385,13.763 12.674,12.980 12.451 C 12.852 12.414,12.484 12.386,11.955 12.372 L 11.129 12.350 11.258 11.965 L 11.387 11.580 12.784 11.560 C 13.739 11.546,14.205 11.525,14.260 11.493 C 14.385 11.421,14.551 11.231,14.597 11.107 C 14.698 10.842,14.611 10.451,14.413 10.272 C 14.208 10.086,14.139 10.080,12.391 10.084 C 11.482 10.086,10.681 10.104,10.608 10.125 " stroke="none" fill-rule="evenodd" fill="black"></path></svg>