<svg width="24" height="24" viewBox="0 0 24 24" fill="none" xmlns="http://www.w3.org/2000/svg"><path d="M15.800 1.264 C 14.577 1.342,13.810 1.626,13.218 2.218 C 12.561 2.875,12.315 3.626,12.256 5.157 L 12.228 5.871 10.784 5.893 C 8.961 5.919,8.647 5.970,8.386 6.280 C 8.097 6.623,8.192 7.155,8.583 7.384 C 8.781 7.500,8.862 7.502,9.700 7.402 C 9.876 7.381,10.517 7.363,11.124 7.362 L 12.228 7.360 12.253 8.030 C 12.292 9.076,12.468 9.767,12.840 10.335 C 13.454 11.270,14.392 11.692,15.990 11.749 L 16.640 11.772 16.640 12.845 C 16.640 14.053,16.595 14.586,16.453 15.079 C 16.325 15.521,16.194 15.757,15.940 15.996 C 15.690 16.233,15.508 16.329,15.073 16.455 C 14.586 16.595,14.049 16.640,12.838 16.640 L 11.760 16.640 11.760 16.238 C 11.760 15.144,11.538 14.214,11.134 13.620 C 10.523 12.721,9.578 12.307,8.010 12.251 L 7.360 12.228 7.359 11.224 C 7.358 10.336,7.350 10.202,7.285 10.060 C 7.197 9.870,7.108 9.784,6.910 9.702 C 6.637 9.588,6.251 9.663,6.072 9.866 C 5.898 10.061,5.880 10.192,5.880 11.233 L 5.880 12.228 5.162 12.256 C 3.626 12.315,2.875 12.560,2.218 13.218 C 1.723 13.712,1.454 14.311,1.315 15.220 C 1.237 15.732,1.237 19.268,1.315 19.780 C 1.454 20.689,1.723 21.288,2.218 21.782 C 2.712 22.277,3.311 22.546,4.220 22.685 C 4.732 22.763,8.268 22.763,8.780 22.685 C 9.689 22.546,10.288 22.277,10.782 21.782 C 11.439 21.125,11.685 20.374,11.744 18.842 L 11.772 18.128 13.176 18.109 C 14.271 18.095,14.658 18.076,14.935 18.023 C 16.744 17.678,17.684 16.738,18.023 14.940 C 18.075 14.661,18.095 14.264,18.109 13.176 L 18.128 11.772 18.842 11.744 C 19.622 11.714,20.113 11.648,20.542 11.517 C 21.550 11.208,22.238 10.504,22.533 9.478 C 22.721 8.823,22.740 8.555,22.740 6.500 C 22.740 4.445,22.721 4.177,22.533 3.522 C 22.238 2.496,21.550 1.792,20.542 1.483 C 19.928 1.295,19.644 1.272,17.780 1.261 C 16.812 1.255,15.921 1.256,15.800 1.264 M19.726 2.816 C 20.224 2.912,20.474 3.028,20.723 3.277 C 20.882 3.436,20.973 3.570,21.038 3.740 C 21.220 4.223,21.237 4.455,21.237 6.500 C 21.237 8.545,21.220 8.777,21.038 9.260 C 20.914 9.588,20.588 9.914,20.260 10.038 C 19.751 10.230,19.508 10.246,17.347 10.230 C 15.165 10.213,15.098 10.207,14.620 9.970 C 14.235 9.780,13.996 9.449,13.853 8.910 C 13.756 8.547,13.724 4.760,13.814 4.290 C 13.911 3.778,14.025 3.529,14.277 3.277 C 14.520 3.033,14.771 2.915,15.240 2.820 C 15.630 2.741,19.321 2.738,19.726 2.816 M8.920 13.858 C 9.637 14.059,9.942 14.364,10.142 15.080 C 10.207 15.312,10.216 15.559,10.230 17.347 C 10.246 19.508,10.230 19.751,10.038 20.260 C 9.914 20.588,9.588 20.914,9.260 21.038 C 8.777 21.220,8.545 21.237,6.500 21.237 C 4.455 21.237,4.223 21.220,3.740 21.038 C 3.412 20.913,3.086 20.588,2.963 20.260 C 2.775 19.758,2.760 19.560,2.760 17.500 C 2.760 15.440,2.775 15.242,2.963 14.740 C 3.086 14.412,3.412 14.086,3.740 13.963 C 4.246 13.772,4.365 13.764,6.580 13.775 C 8.450 13.784,8.686 13.792,8.920 13.858 " stroke="none" fill-rule="evenodd" fill="black"></path></svg>