<svg width="24" height="24" viewBox="0 0 24 24" fill="none" xmlns="http://www.w3.org/2000/svg"><path d="M8.660 1.277 C 8.594 1.293,8.495 1.329,8.440 1.358 C 8.385 1.386,7.503 2.242,6.480 3.261 L 4.620 5.113 3.920 5.132 C 3.140 5.154,2.908 5.199,2.456 5.420 C 1.585 5.845,1.165 6.869,1.280 8.288 C 1.379 9.505,1.828 10.203,2.690 10.478 C 2.772 10.505,2.840 10.541,2.840 10.558 C 2.840 10.651,3.445 14.323,3.481 14.451 C 3.577 14.791,3.951 15.037,4.289 14.983 C 4.655 14.926,4.920 14.623,4.920 14.265 C 4.920 14.168,4.793 13.310,4.638 12.359 C 4.484 11.408,4.364 10.623,4.372 10.615 C 4.380 10.607,7.815 10.604,12.004 10.610 L 19.622 10.620 18.816 14.820 C 18.372 17.130,17.962 19.199,17.904 19.417 C 17.600 20.557,17.098 20.995,15.880 21.181 C 15.311 21.268,8.469 21.267,7.932 21.180 C 6.619 20.967,5.988 20.288,5.698 18.773 C 5.613 18.333,5.501 18.129,5.274 18.001 C 4.874 17.776,4.401 17.941,4.222 18.369 C 4.139 18.568,4.144 18.664,4.260 19.179 C 4.621 20.769,5.225 21.666,6.305 22.215 C 6.894 22.514,7.485 22.658,8.380 22.720 C 9.105 22.770,14.638 22.770,15.420 22.720 C 16.298 22.663,16.876 22.537,17.425 22.281 C 18.452 21.803,19.018 21.064,19.358 19.757 C 19.424 19.506,19.848 17.365,20.301 15.000 C 20.754 12.635,21.134 10.660,21.146 10.612 C 21.160 10.554,21.218 10.508,21.314 10.477 C 21.979 10.265,22.427 9.753,22.617 8.988 C 22.717 8.585,22.760 7.925,22.717 7.435 C 22.628 6.409,22.228 5.739,21.500 5.396 C 21.081 5.199,20.835 5.153,20.080 5.132 L 19.380 5.113 17.520 3.260 C 16.497 2.242,15.597 1.377,15.521 1.338 C 15.349 1.252,15.018 1.248,14.859 1.330 C 14.618 1.456,14.439 1.746,14.441 2.009 C 14.443 2.285,14.571 2.439,15.896 3.760 C 16.613 4.475,17.200 5.073,17.200 5.090 C 17.200 5.106,14.860 5.120,12.000 5.120 C 9.140 5.120,6.800 5.106,6.800 5.090 C 6.800 5.073,7.387 4.475,8.104 3.760 C 8.955 2.912,9.434 2.404,9.483 2.300 C 9.738 1.758,9.239 1.138,8.660 1.277 M20.567 6.658 C 20.908 6.730,21.014 6.802,21.127 7.033 C 21.203 7.190,21.220 7.303,21.234 7.738 C 21.254 8.384,21.194 8.761,21.046 8.925 C 20.956 9.024,20.895 9.047,20.640 9.079 C 20.237 9.131,3.763 9.131,3.360 9.079 C 3.105 9.047,3.044 9.024,2.954 8.925 C 2.806 8.761,2.746 8.384,2.766 7.738 C 2.791 6.960,2.905 6.771,3.414 6.660 C 3.791 6.578,20.180 6.576,20.567 6.658 M8.163 13.590 C 8.087 13.629,7.970 13.729,7.903 13.814 C 7.781 13.967,7.780 13.971,7.785 14.434 C 7.801 16.075,8.920 17.616,10.540 18.228 C 10.969 18.390,11.273 18.446,11.840 18.467 C 12.335 18.485,12.482 18.475,12.840 18.402 C 13.343 18.298,13.546 18.190,13.679 17.954 C 13.913 17.538,13.714 17.030,13.256 16.879 C 13.102 16.828,12.991 16.837,12.540 16.937 C 11.334 17.203,10.073 16.570,9.522 15.420 C 9.341 15.042,9.285 14.827,9.253 14.386 C 9.219 13.930,9.072 13.671,8.787 13.563 C 8.618 13.498,8.317 13.511,8.163 13.590 M15.163 13.590 C 15.087 13.629,14.973 13.726,14.909 13.807 C 14.809 13.931,14.786 14.006,14.755 14.307 C 14.735 14.501,14.690 14.783,14.654 14.932 C 14.569 15.293,14.598 15.525,14.750 15.713 C 14.923 15.928,15.100 16.018,15.339 16.014 C 15.581 16.011,15.745 15.933,15.910 15.745 C 16.062 15.572,16.198 15.033,16.229 14.479 C 16.248 14.148,16.240 14.077,16.169 13.939 C 16.072 13.750,15.942 13.621,15.787 13.563 C 15.618 13.498,15.317 13.511,15.163 13.590 " stroke="none" fill-rule="evenodd" fill="black"></path></svg>