<svg width="24" height="24" viewBox="0 0 24 24" fill="none" xmlns="http://www.w3.org/2000/svg"><path d="M11.102 1.342 C 8.949 1.748,7.193 3.633,6.819 5.939 C 6.787 6.137,6.760 6.528,6.760 6.806 L 6.760 7.312 6.550 7.340 C 5.200 7.519,4.096 8.016,3.459 8.731 C 2.783 9.489,2.494 10.457,2.531 11.842 C 2.552 12.649,2.602 12.826,2.862 13.024 C 2.997 13.127,3.046 13.140,3.300 13.140 C 3.552 13.140,3.604 13.127,3.733 13.028 C 4.007 12.819,4.019 12.766,4.022 11.780 C 4.025 10.822,4.065 10.583,4.306 10.108 C 4.541 9.645,5.091 9.244,5.794 9.024 C 6.596 8.772,6.398 8.780,12.000 8.780 C 17.602 8.780,17.404 8.772,18.206 9.024 C 18.910 9.244,19.459 9.645,19.694 10.109 C 19.921 10.557,19.980 10.875,19.977 11.640 C 19.974 12.281,19.940 12.609,19.566 15.560 C 19.341 17.331,19.120 18.939,19.074 19.134 C 18.778 20.404,17.912 21.007,16.112 21.199 C 15.588 21.254,8.412 21.254,7.888 21.199 C 6.413 21.041,5.559 20.599,5.159 19.785 C 4.934 19.327,4.868 19.019,4.703 17.679 C 4.541 16.356,4.520 16.254,4.374 16.080 C 3.938 15.561,3.081 15.867,3.080 16.541 C 3.080 16.889,3.358 19.001,3.461 19.433 C 3.857 21.091,4.849 22.061,6.580 22.482 C 7.563 22.721,8.295 22.758,12.000 22.758 C 15.705 22.758,16.437 22.721,17.420 22.482 C 19.094 22.075,20.109 21.115,20.507 19.562 C 20.570 19.314,20.752 18.012,21.025 15.860 C 21.480 12.268,21.535 11.600,21.441 10.855 C 21.186 8.823,19.865 7.660,17.450 7.340 L 17.240 7.312 17.240 6.726 C 17.239 5.372,16.910 4.323,16.182 3.356 C 15.461 2.396,14.446 1.726,13.240 1.413 C 12.746 1.284,11.608 1.247,11.102 1.342 M12.748 2.837 C 13.138 2.917,13.617 3.106,13.992 3.327 C 14.344 3.534,15.026 4.239,15.237 4.614 C 15.599 5.257,15.760 5.933,15.760 6.809 L 15.760 7.240 12.000 7.240 L 8.240 7.240 8.240 6.883 C 8.240 5.931,8.529 5.046,9.080 4.315 C 9.335 3.975,9.884 3.458,10.171 3.287 C 10.503 3.089,10.983 2.893,11.300 2.826 C 11.700 2.741,12.307 2.746,12.748 2.837 M8.240 11.035 C 7.943 11.132,7.688 11.355,7.582 11.609 C 7.548 11.691,7.520 11.867,7.520 12.000 C 7.520 12.286,7.596 12.490,7.772 12.674 C 7.985 12.896,8.181 12.978,8.500 12.978 C 8.819 12.978,9.015 12.896,9.228 12.674 C 9.404 12.490,9.480 12.286,9.480 12.000 C 9.480 11.600,9.294 11.293,8.943 11.112 C 8.771 11.024,8.399 10.983,8.240 11.035 M15.240 11.035 C 14.943 11.132,14.688 11.355,14.582 11.609 C 14.548 11.691,14.520 11.867,14.520 12.000 C 14.520 12.286,14.596 12.490,14.772 12.674 C 14.985 12.896,15.181 12.978,15.500 12.978 C 15.819 12.978,16.015 12.896,16.228 12.674 C 16.404 12.490,16.480 12.286,16.480 12.000 C 16.480 11.600,16.294 11.293,15.943 11.112 C 15.771 11.024,15.399 10.983,15.240 11.035 " stroke="none" fill-rule="evenodd" fill="black"></path></svg>