<svg width="24" height="24" viewBox="0 0 24 24" fill="none" xmlns="http://www.w3.org/2000/svg"><path d="M11.102 1.342 C 8.949 1.748,7.193 3.633,6.819 5.939 C 6.787 6.137,6.760 6.528,6.760 6.806 L 6.760 7.312 6.550 7.340 C 5.200 7.519,4.096 8.016,3.459 8.731 C 2.783 9.489,2.494 10.457,2.531 11.842 C 2.552 12.649,2.602 12.826,2.862 13.024 C 2.997 13.127,3.046 13.140,3.300 13.140 C 3.552 13.140,3.604 13.127,3.733 13.028 C 4.007 12.819,4.019 12.766,4.022 11.780 C 4.025 10.822,4.065 10.583,4.306 10.108 C 4.541 9.645,5.091 9.244,5.794 9.024 C 6.596 8.772,6.398 8.780,12.000 8.780 C 17.602 8.780,17.404 8.772,18.206 9.024 C 18.910 9.244,19.459 9.645,19.694 10.109 C 19.921 10.557,19.980 10.875,19.977 11.640 C 19.974 12.281,19.940 12.609,19.566 15.560 C 19.341 17.331,19.120 18.939,19.074 19.134 C 18.778 20.404,17.912 21.007,16.112 21.199 C 15.588 21.254,8.412 21.254,7.888 21.199 C 6.413 21.041,5.559 20.599,5.159 19.785 C 4.934 19.327,4.868 19.019,4.703 17.679 C 4.541 16.356,4.520 16.254,4.374 16.080 C 3.938 15.561,3.081 15.867,3.080 16.541 C 3.080 16.889,3.358 19.001,3.461 19.433 C 3.857 21.091,4.849 22.061,6.580 22.482 C 7.563 22.721,8.295 22.758,12.000 22.758 C 15.705 22.758,16.437 22.721,17.420 22.482 C 19.094 22.075,20.109 21.115,20.507 19.562 C 20.570 19.314,20.752 18.012,21.025 15.860 C 21.480 12.268,21.535 11.600,21.441 10.855 C 21.186 8.823,19.865 7.660,17.450 7.340 L 17.240 7.312 17.240 6.726 C 17.239 5.372,16.910 4.323,16.182 3.356 C 15.461 2.396,14.446 1.726,13.240 1.413 C 12.746 1.284,11.608 1.247,11.102 1.342 M12.748 2.837 C 13.138 2.917,13.617 3.106,13.992 3.327 C 14.344 3.534,15.026 4.239,15.237 4.614 C 15.599 5.257,15.760 5.933,15.760 6.809 L 15.760 7.240 12.000 7.240 L 8.240 7.240 8.240 6.883 C 8.240 5.931,8.529 5.046,9.080 4.315 C 9.335 3.975,9.884 3.458,10.171 3.287 C 10.503 3.089,10.983 2.893,11.300 2.826 C 11.700 2.741,12.307 2.746,12.748 2.837 M11.579 10.280 C 9.750 10.440,8.200 11.632,7.540 13.384 C 7.182 14.335,7.182 15.665,7.540 16.616 C 8.042 17.949,9.049 18.958,10.376 19.457 C 11.340 19.820,12.660 19.820,13.624 19.457 C 14.951 18.958,15.958 17.949,16.460 16.616 C 16.819 15.661,16.818 14.336,16.457 13.376 C 15.695 11.348,13.716 10.092,11.579 10.280 M12.980 11.894 C 13.508 12.068,13.854 12.286,14.284 12.716 C 14.712 13.143,14.928 13.485,15.108 14.020 C 15.209 14.316,15.217 14.389,15.217 15.000 C 15.217 15.611,15.209 15.684,15.108 15.980 C 14.928 16.515,14.712 16.857,14.284 17.284 C 13.857 17.712,13.515 17.928,12.980 18.108 C 12.684 18.209,12.611 18.217,12.000 18.217 C 11.389 18.217,11.316 18.209,11.020 18.108 C 10.485 17.928,10.143 17.712,9.716 17.284 C 9.288 16.857,9.072 16.515,8.892 15.980 C 8.791 15.684,8.783 15.611,8.783 15.000 C 8.783 14.389,8.791 14.316,8.892 14.020 C 9.072 13.485,9.288 13.143,9.716 12.716 C 10.433 11.999,11.066 11.750,12.100 11.775 C 12.572 11.787,12.710 11.806,12.980 11.894 M10.860 13.260 C 10.838 13.267,10.772 13.284,10.713 13.296 C 10.459 13.352,10.202 13.707,10.202 14.000 C 10.202 14.225,10.330 14.439,10.656 14.759 L 10.960 15.058 10.622 15.399 C 10.255 15.769,10.200 15.868,10.200 16.153 C 10.200 16.524,10.476 16.836,10.834 16.870 C 11.143 16.900,11.297 16.825,11.680 16.456 L 12.025 16.123 12.303 16.405 C 12.630 16.736,12.810 16.840,13.060 16.840 C 13.499 16.840,13.800 16.538,13.800 16.096 C 13.800 15.850,13.695 15.668,13.365 15.343 L 13.084 15.066 13.401 14.732 C 13.747 14.366,13.828 14.191,13.782 13.902 C 13.727 13.556,13.402 13.280,13.050 13.280 C 12.795 13.280,12.693 13.338,12.342 13.681 L 12.016 13.998 11.758 13.736 C 11.616 13.592,11.428 13.432,11.340 13.381 C 11.187 13.293,10.945 13.232,10.860 13.260 " stroke="none" fill-rule="evenodd" fill="black"></path></svg>