<svg width="24" height="24" viewBox="0 0 24 24" fill="none" xmlns="http://www.w3.org/2000/svg"><path d="M11.102 1.342 C 8.949 1.748,7.193 3.633,6.819 5.939 C 6.787 6.137,6.760 6.528,6.760 6.806 L 6.760 7.312 6.550 7.340 C 5.200 7.519,4.096 8.016,3.459 8.731 C 2.783 9.489,2.494 10.457,2.531 11.842 C 2.552 12.649,2.602 12.826,2.862 13.024 C 2.997 13.127,3.046 13.140,3.300 13.140 C 3.552 13.140,3.604 13.127,3.733 13.028 C 4.007 12.819,4.019 12.766,4.022 11.780 C 4.025 10.822,4.065 10.583,4.306 10.108 C 4.541 9.645,5.091 9.244,5.794 9.024 C 6.596 8.772,6.398 8.780,12.000 8.780 C 17.602 8.780,17.404 8.772,18.206 9.024 C 18.910 9.244,19.459 9.645,19.694 10.109 C 19.921 10.557,19.980 10.875,19.977 11.640 C 19.974 12.281,19.940 12.609,19.566 15.560 C 19.341 17.331,19.120 18.939,19.074 19.134 C 18.778 20.404,17.912 21.007,16.112 21.199 C 15.588 21.254,8.412 21.254,7.888 21.199 C 6.413 21.041,5.559 20.599,5.159 19.785 C 4.934 19.327,4.868 19.019,4.703 17.679 C 4.541 16.356,4.520 16.254,4.374 16.080 C 3.938 15.561,3.081 15.867,3.080 16.541 C 3.080 16.889,3.358 19.001,3.461 19.433 C 3.857 21.091,4.849 22.061,6.580 22.482 C 7.563 22.721,8.295 22.758,12.000 22.758 C 15.705 22.758,16.437 22.721,17.420 22.482 C 19.094 22.075,20.109 21.115,20.507 19.562 C 20.570 19.314,20.752 18.012,21.025 15.860 C 21.480 12.268,21.535 11.600,21.441 10.855 C 21.186 8.823,19.865 7.660,17.450 7.340 L 17.240 7.312 17.240 6.726 C 17.239 5.372,16.910 4.323,16.182 3.356 C 15.461 2.396,14.446 1.726,13.240 1.413 C 12.746 1.284,11.608 1.247,11.102 1.342 M12.748 2.837 C 13.138 2.917,13.617 3.106,13.992 3.327 C 14.344 3.534,15.026 4.239,15.237 4.614 C 15.599 5.257,15.760 5.933,15.760 6.809 L 15.760 7.240 12.000 7.240 L 8.240 7.240 8.240 6.883 C 8.240 5.931,8.529 5.046,9.080 4.315 C 9.335 3.975,9.884 3.458,10.171 3.287 C 10.503 3.089,10.983 2.893,11.300 2.826 C 11.700 2.741,12.307 2.746,12.748 2.837 M11.579 10.280 C 9.750 10.440,8.200 11.632,7.540 13.384 C 7.182 14.335,7.182 15.665,7.540 16.616 C 8.042 17.949,9.049 18.958,10.376 19.457 C 11.340 19.820,12.660 19.820,13.624 19.457 C 14.951 18.958,15.958 17.949,16.460 16.616 C 16.819 15.661,16.818 14.336,16.457 13.376 C 15.695 11.348,13.716 10.092,11.579 10.280 M12.980 11.894 C 13.508 12.068,13.854 12.286,14.284 12.716 C 14.712 13.143,14.928 13.485,15.108 14.020 C 15.209 14.316,15.217 14.389,15.217 15.000 C 15.217 15.611,15.209 15.684,15.108 15.980 C 14.928 16.515,14.712 16.857,14.284 17.284 C 13.857 17.712,13.515 17.928,12.980 18.108 C 12.684 18.209,12.611 18.217,12.000 18.217 C 11.389 18.217,11.316 18.209,11.020 18.108 C 10.485 17.928,10.143 17.712,9.716 17.284 C 9.288 16.857,9.072 16.515,8.892 15.980 C 8.791 15.684,8.783 15.611,8.783 15.000 C 8.783 14.389,8.791 14.316,8.892 14.020 C 9.072 13.485,9.288 13.143,9.716 12.716 C 10.433 11.999,11.066 11.750,12.100 11.775 C 12.572 11.787,12.710 11.806,12.980 11.894 M11.961 13.061 C 11.595 13.226,11.520 13.404,11.519 14.108 C 11.519 14.412,11.508 14.700,11.495 14.749 C 11.479 14.809,11.309 14.937,10.977 15.141 C 10.455 15.461,10.356 15.559,10.284 15.825 C 10.144 16.345,10.617 16.837,11.144 16.719 C 11.378 16.667,12.273 16.120,12.497 15.892 C 12.713 15.674,12.896 15.327,12.961 15.016 C 12.988 14.883,13.001 14.535,12.993 14.147 C 12.981 13.546,12.973 13.491,12.887 13.370 C 12.659 13.050,12.272 12.921,11.961 13.061 " stroke="none" fill-rule="evenodd" fill="black"></path></svg>