<svg width="24" height="24" viewBox="0 0 24 24" fill="none" xmlns="http://www.w3.org/2000/svg"><path d="M8.660 1.277 C 8.594 1.293,8.495 1.329,8.440 1.358 C 8.385 1.386,7.503 2.242,6.480 3.261 L 4.620 5.113 3.920 5.132 C 3.140 5.154,2.908 5.199,2.456 5.420 C 1.585 5.845,1.165 6.869,1.280 8.288 C 1.379 9.502,1.829 10.203,2.685 10.477 L 2.830 10.523 3.159 12.531 C 3.340 13.636,3.515 14.602,3.546 14.679 C 3.624 14.868,3.711 14.958,3.900 15.045 C 4.339 15.246,4.858 14.989,4.946 14.526 C 4.965 14.424,4.881 13.814,4.667 12.503 C 4.498 11.471,4.366 10.621,4.373 10.613 C 4.381 10.606,7.815 10.604,12.004 10.610 L 19.622 10.620 18.816 14.820 C 18.372 17.130,17.962 19.199,17.904 19.417 C 17.600 20.557,17.098 20.995,15.880 21.181 C 15.311 21.268,8.469 21.267,7.932 21.180 C 6.619 20.967,5.988 20.288,5.698 18.773 C 5.613 18.333,5.501 18.129,5.274 18.001 C 4.874 17.776,4.401 17.941,4.222 18.369 C 4.139 18.568,4.144 18.664,4.260 19.179 C 4.621 20.769,5.225 21.666,6.305 22.215 C 6.894 22.514,7.485 22.658,8.380 22.720 C 9.105 22.770,14.638 22.770,15.420 22.720 C 16.298 22.663,16.876 22.537,17.425 22.281 C 18.452 21.803,19.018 21.064,19.358 19.757 C 19.424 19.506,19.848 17.365,20.301 15.000 C 20.754 12.635,21.134 10.660,21.146 10.612 C 21.160 10.554,21.218 10.508,21.314 10.477 C 21.979 10.265,22.427 9.753,22.617 8.988 C 22.717 8.585,22.760 7.925,22.717 7.435 C 22.628 6.409,22.228 5.739,21.500 5.396 C 21.081 5.199,20.835 5.153,20.080 5.132 L 19.380 5.113 17.520 3.260 C 16.497 2.242,15.597 1.377,15.521 1.338 C 15.349 1.252,15.018 1.248,14.859 1.330 C 14.618 1.456,14.439 1.746,14.441 2.009 C 14.443 2.285,14.571 2.439,15.896 3.760 C 16.613 4.475,17.200 5.073,17.200 5.090 C 17.200 5.106,14.860 5.120,12.000 5.120 C 9.140 5.120,6.800 5.106,6.800 5.090 C 6.800 5.073,7.387 4.475,8.104 3.760 C 8.955 2.912,9.434 2.404,9.483 2.300 C 9.738 1.758,9.239 1.138,8.660 1.277 M20.567 6.658 C 20.908 6.730,21.014 6.802,21.127 7.033 C 21.203 7.190,21.220 7.303,21.234 7.738 C 21.254 8.384,21.194 8.761,21.046 8.925 C 20.956 9.024,20.895 9.047,20.640 9.079 C 20.237 9.131,3.763 9.131,3.360 9.079 C 3.105 9.047,3.044 9.024,2.954 8.925 C 2.806 8.761,2.746 8.384,2.766 7.738 C 2.791 6.960,2.905 6.771,3.414 6.660 C 3.791 6.578,20.180 6.576,20.567 6.658 M9.575 13.278 C 9.399 13.320,9.222 13.455,9.113 13.631 L 9.020 13.780 9.020 15.760 L 9.020 17.740 9.120 17.914 C 9.401 18.406,10.119 18.406,10.400 17.914 L 10.500 17.740 10.512 15.903 C 10.525 13.950,10.511 13.760,10.341 13.538 C 10.183 13.331,9.841 13.215,9.575 13.278 M14.175 13.278 C 13.999 13.320,13.822 13.455,13.713 13.631 L 13.620 13.780 13.620 15.760 L 13.620 17.740 13.720 17.914 C 14.001 18.406,14.719 18.406,15.000 17.914 L 15.100 17.740 15.112 15.903 C 15.125 13.950,15.111 13.760,14.941 13.538 C 14.783 13.331,14.441 13.215,14.175 13.278 " stroke="none" fill-rule="evenodd" fill="black"></path></svg>