<svg width="24" height="24" viewBox="0 0 24 24" fill="none" xmlns="http://www.w3.org/2000/svg"><path d="M11.440 1.434 C 11.126 1.540,6.617 3.350,6.433 3.443 C 6.239 3.543,6.076 3.787,6.050 4.018 C 6.034 4.160,6.053 4.245,6.136 4.416 C 6.226 4.599,6.277 4.651,6.449 4.737 C 6.563 4.794,6.715 4.840,6.788 4.840 C 6.867 4.840,7.921 4.440,9.420 3.840 C 10.795 3.290,11.956 2.840,12.000 2.840 C 12.144 2.840,21.095 6.439,21.170 6.527 C 21.234 6.602,21.240 6.750,21.240 8.358 C 21.240 10.002,21.236 10.112,21.167 10.174 C 21.099 10.235,20.405 10.240,11.993 10.240 C 3.227 10.240,2.890 10.237,2.826 10.167 C 2.767 10.101,2.760 9.916,2.760 8.345 L 2.760 6.596 2.858 6.508 C 2.912 6.460,3.023 6.366,3.104 6.301 C 3.598 5.903,3.343 5.082,2.703 5.010 C 2.302 4.965,1.711 5.396,1.451 5.924 C 1.249 6.333,1.232 6.557,1.250 8.549 C 1.268 10.527,1.267 10.519,1.532 10.928 C 1.862 11.435,2.285 11.678,2.950 11.741 L 3.240 11.768 3.240 14.500 L 3.240 17.232 2.950 17.259 C 2.285 17.322,1.862 17.565,1.532 18.072 C 1.281 18.460,1.270 18.528,1.251 19.945 L 1.233 21.229 0.988 21.255 C 0.533 21.302,0.267 21.580,0.267 22.007 C 0.267 22.203,0.286 22.270,0.383 22.408 C 0.448 22.499,0.572 22.610,0.660 22.656 L 0.820 22.740 11.880 22.751 C 19.826 22.758,23.000 22.749,23.154 22.717 C 23.568 22.631,23.804 22.250,23.711 21.816 C 23.639 21.480,23.296 21.240,22.886 21.240 L 22.768 21.240 22.749 19.950 C 22.728 18.527,22.718 18.458,22.468 18.072 C 22.138 17.565,21.715 17.322,21.050 17.259 L 20.760 17.232 20.760 14.500 L 20.760 11.768 21.050 11.741 C 21.715 11.678,22.138 11.435,22.468 10.928 C 22.732 10.521,22.731 10.526,22.750 8.551 C 22.761 7.345,22.752 6.667,22.722 6.472 C 22.633 5.900,22.260 5.371,21.778 5.131 C 21.647 5.066,19.497 4.196,17.000 3.198 L 12.460 1.383 12.060 1.371 C 11.753 1.363,11.609 1.377,11.440 1.434 M11.500 4.807 C 10.919 4.916,10.270 5.430,9.992 6.000 C 9.560 6.885,9.726 7.888,10.419 8.581 C 10.903 9.065,11.483 9.278,12.177 9.227 C 14.081 9.089,14.934 6.773,13.581 5.419 C 13.031 4.870,12.304 4.655,11.500 4.807 M12.271 6.302 C 12.911 6.569,12.911 7.431,12.271 7.698 C 12.083 7.777,11.917 7.777,11.729 7.698 C 11.101 7.436,11.084 6.600,11.700 6.316 C 11.897 6.225,12.076 6.221,12.271 6.302 M7.240 14.500 L 7.240 17.240 6.000 17.240 L 4.760 17.240 4.760 14.500 L 4.760 11.760 6.000 11.760 L 7.240 11.760 7.240 14.500 M11.240 14.500 L 11.240 17.240 10.000 17.240 L 8.760 17.240 8.760 14.500 L 8.760 11.760 10.000 11.760 L 11.240 11.760 11.240 14.500 M15.240 14.500 L 15.240 17.240 14.000 17.240 L 12.760 17.240 12.760 14.500 L 12.760 11.760 14.000 11.760 L 15.240 11.760 15.240 14.500 M19.240 14.500 L 19.240 17.240 18.000 17.240 L 16.760 17.240 16.760 14.500 L 16.760 11.760 18.000 11.760 L 19.240 11.760 19.240 14.500 M21.167 18.826 C 21.235 18.887,21.240 18.980,21.240 20.066 L 21.240 21.240 12.000 21.240 L 2.760 21.240 2.760 20.073 C 2.760 19.044,2.768 18.898,2.826 18.833 C 2.890 18.763,3.227 18.760,11.993 18.760 C 20.405 18.760,21.099 18.765,21.167 18.826 " stroke="none" fill-rule="evenodd" fill="black"></path></svg>