<svg width="24" height="24" viewBox="0 0 24 24" fill="none" xmlns="http://www.w3.org/2000/svg"><path d="M5.928 2.822 C 4.640 2.987,3.639 3.428,2.847 4.177 C 2.092 4.890,1.597 5.857,1.381 7.040 C 1.303 7.468,1.238 8.475,1.278 8.650 C 1.406 9.219,2.080 9.439,2.494 9.047 C 2.693 8.859,2.727 8.744,2.763 8.143 C 2.801 7.506,2.877 7.061,3.017 6.648 C 3.495 5.243,4.566 4.469,6.288 4.282 C 6.821 4.224,17.179 4.224,17.712 4.282 C 19.751 4.503,20.891 5.558,21.177 7.489 C 21.271 8.119,21.271 15.881,21.177 16.511 C 20.889 18.451,19.735 19.512,17.686 19.718 C 17.120 19.775,6.880 19.775,6.314 19.718 C 4.356 19.521,3.249 18.574,2.854 16.759 C 2.802 16.515,2.785 16.083,2.765 14.420 C 2.738 12.209,2.744 12.268,2.513 12.052 C 2.391 11.937,2.155 11.840,2.000 11.840 C 1.845 11.840,1.609 11.937,1.487 12.052 C 1.262 12.262,1.261 12.266,1.247 13.800 C 1.223 16.461,1.345 17.387,1.860 18.461 C 2.607 20.019,3.994 20.935,5.975 21.180 C 6.694 21.269,17.306 21.269,18.025 21.180 C 20.006 20.935,21.393 20.019,22.140 18.461 C 22.490 17.731,22.654 17.044,22.720 16.020 C 22.770 15.240,22.770 8.760,22.720 7.980 C 22.654 6.956,22.490 6.269,22.140 5.539 C 21.393 3.981,20.006 3.065,18.025 2.820 C 17.354 2.737,6.576 2.739,5.928 2.822 M5.815 7.277 C 5.638 7.321,5.461 7.456,5.353 7.631 L 5.260 7.780 5.260 12.000 L 5.260 16.220 5.353 16.369 C 5.710 16.943,6.576 16.812,6.716 16.162 C 6.775 15.885,6.776 8.098,6.717 7.841 C 6.623 7.432,6.215 7.177,5.815 7.277 M8.815 7.277 C 8.638 7.321,8.461 7.456,8.353 7.631 L 8.260 7.780 8.260 10.000 L 8.260 12.220 8.353 12.369 C 8.710 12.943,9.576 12.812,9.716 12.162 C 9.774 11.891,9.775 8.093,9.717 7.841 C 9.623 7.432,9.215 7.177,8.815 7.277 M11.815 7.277 C 11.638 7.321,11.461 7.456,11.353 7.631 L 11.260 7.780 11.260 12.000 L 11.260 16.220 11.353 16.369 C 11.710 16.943,12.576 16.812,12.716 16.162 C 12.775 15.885,12.776 8.098,12.717 7.841 C 12.623 7.432,12.215 7.177,11.815 7.277 M14.815 7.277 C 14.638 7.321,14.461 7.456,14.353 7.631 C 14.265 7.772,14.260 7.816,14.260 8.500 C 14.260 9.184,14.265 9.228,14.353 9.369 C 14.710 9.943,15.576 9.812,15.716 9.162 C 15.771 8.904,15.772 8.080,15.717 7.841 C 15.623 7.432,15.215 7.177,14.815 7.277 M17.815 7.277 C 17.638 7.321,17.461 7.456,17.353 7.631 L 17.260 7.780 17.260 12.000 L 17.260 16.220 17.353 16.369 C 17.710 16.943,18.576 16.812,18.716 16.162 C 18.775 15.885,18.776 8.098,18.717 7.841 C 18.623 7.432,18.215 7.177,17.815 7.277 M14.815 11.277 C 14.638 11.321,14.461 11.456,14.353 11.631 L 14.260 11.780 14.260 14.000 L 14.260 16.220 14.353 16.369 C 14.710 16.943,15.576 16.812,15.716 16.162 C 15.774 15.891,15.775 12.093,15.717 11.841 C 15.623 11.432,15.215 11.177,14.815 11.277 M8.815 14.277 C 8.638 14.321,8.461 14.456,8.353 14.631 C 8.265 14.772,8.260 14.816,8.260 15.500 C 8.260 16.184,8.265 16.228,8.353 16.369 C 8.710 16.943,9.576 16.812,9.716 16.162 C 9.771 15.904,9.772 15.080,9.717 14.841 C 9.623 14.432,9.215 14.177,8.815 14.277 " stroke="none" fill-rule="evenodd" fill="black"></path></svg>