<svg width="24" height="24" viewBox="0 0 24 24" fill="none" xmlns="http://www.w3.org/2000/svg"><path d="M6.009 4.283 C 4.610 4.359,3.703 4.597,2.971 5.079 C 1.806 5.847,1.303 7.177,1.269 9.580 C 1.260 10.188,1.265 10.227,1.353 10.369 C 1.664 10.870,2.415 10.848,2.661 10.332 C 2.720 10.209,2.740 10.026,2.764 9.380 C 2.811 8.136,2.966 7.384,3.284 6.860 C 3.724 6.134,4.578 5.831,6.380 5.764 C 7.026 5.740,7.209 5.720,7.332 5.661 C 7.771 5.452,7.871 4.831,7.522 4.482 C 7.277 4.237,7.153 4.221,6.009 4.283 M12.815 4.276 C 12.329 4.399,12.098 5.004,12.383 5.408 C 12.588 5.698,12.700 5.730,13.616 5.764 C 14.849 5.810,15.600 5.961,16.110 6.267 C 16.539 6.524,16.766 6.830,16.961 7.411 C 17.214 8.162,17.220 8.273,17.220 12.000 C 17.220 15.090,17.214 15.417,17.147 15.815 C 16.960 16.922,16.615 17.499,15.951 17.814 C 15.377 18.086,14.789 18.191,13.594 18.236 C 12.792 18.265,12.759 18.270,12.607 18.370 C 12.372 18.526,12.267 18.723,12.267 19.007 C 12.267 19.203,12.286 19.270,12.383 19.408 C 12.590 19.701,12.723 19.741,13.440 19.731 C 15.476 19.701,16.702 19.336,17.519 18.519 C 18.188 17.851,18.531 16.956,18.687 15.480 C 18.762 14.771,18.762 9.229,18.687 8.520 C 18.531 7.044,18.188 6.149,17.519 5.481 C 16.854 4.815,15.901 4.448,14.520 4.325 C 13.851 4.265,12.959 4.240,12.815 4.276 M9.810 7.278 C 9.738 7.296,9.625 7.353,9.559 7.405 C 9.356 7.564,7.452 10.114,7.351 10.360 C 7.277 10.541,7.262 10.658,7.261 11.021 C 7.260 11.439,7.267 11.476,7.391 11.727 C 7.580 12.111,7.830 12.371,8.174 12.541 C 8.646 12.774,9.137 12.801,9.397 12.609 C 9.954 12.196,9.731 11.355,9.039 11.260 C 8.835 11.232,8.720 11.137,8.720 10.997 C 8.720 10.961,9.154 10.357,9.684 9.656 C 10.215 8.954,10.667 8.335,10.690 8.280 C 10.761 8.107,10.735 7.774,10.638 7.617 C 10.472 7.347,10.118 7.203,9.810 7.278 M20.180 8.835 C 19.990 8.923,19.904 9.012,19.822 9.210 C 19.655 9.608,19.860 10.075,20.252 10.194 C 20.323 10.215,20.537 10.243,20.729 10.254 C 21.296 10.289,21.240 10.098,21.240 12.000 C 21.240 13.902,21.296 13.711,20.729 13.746 C 20.537 13.757,20.323 13.785,20.252 13.806 C 19.848 13.929,19.648 14.413,19.835 14.820 C 19.976 15.126,20.204 15.241,20.669 15.239 C 21.775 15.234,22.442 14.820,22.669 13.999 C 22.732 13.769,22.740 13.548,22.740 12.000 C 22.740 10.452,22.732 10.231,22.669 10.001 C 22.536 9.522,22.280 9.204,21.859 8.996 C 21.403 8.772,20.505 8.686,20.180 8.835 M11.085 11.280 C 10.915 11.320,10.766 11.430,10.651 11.598 C 10.341 12.054,10.634 12.662,11.201 12.740 C 11.406 12.768,11.520 12.863,11.520 13.006 C 11.520 13.043,11.059 13.611,10.495 14.267 C 9.932 14.923,9.424 15.530,9.367 15.615 C 9.159 15.925,9.261 16.383,9.591 16.615 C 9.789 16.756,10.095 16.776,10.327 16.664 C 10.538 16.563,12.721 14.012,12.872 13.691 C 12.970 13.482,12.980 13.417,12.980 12.999 C 12.980 12.559,12.974 12.526,12.849 12.273 C 12.560 11.684,12.054 11.329,11.420 11.268 C 11.310 11.257,11.159 11.263,11.085 11.280 M1.815 13.278 C 1.639 13.320,1.462 13.455,1.353 13.631 C 1.265 13.773,1.260 13.812,1.269 14.420 C 1.317 17.798,2.335 19.226,4.974 19.618 C 5.615 19.713,6.890 19.772,7.150 19.718 C 7.683 19.607,7.913 18.974,7.580 18.536 C 7.401 18.302,7.265 18.268,6.380 18.235 C 5.135 18.189,4.385 18.034,3.860 17.716 C 3.134 17.276,2.831 16.422,2.764 14.620 C 2.740 13.974,2.720 13.791,2.661 13.668 C 2.574 13.485,2.397 13.343,2.180 13.284 C 2.003 13.236,1.993 13.236,1.815 13.278 " stroke="none" fill-rule="evenodd" fill="black"></path></svg>