<svg width="24" height="24" viewBox="0 0 24 24" fill="none" xmlns="http://www.w3.org/2000/svg"><path d="M15.720 1.805 C 15.665 1.827,15.570 1.893,15.508 1.951 C 15.447 2.010,13.111 5.679,10.317 10.104 L 5.237 18.150 4.964 18.098 C 4.542 18.018,4.364 17.963,4.050 17.819 C 3.191 17.423,2.841 16.552,2.765 14.620 C 2.730 13.736,2.695 13.596,2.464 13.421 C 2.023 13.087,1.398 13.304,1.276 13.833 C 1.232 14.025,1.302 15.509,1.378 16.010 C 1.674 17.942,2.542 19.020,4.140 19.440 C 4.250 19.469,4.347 19.498,4.355 19.505 C 4.363 19.511,4.139 19.882,3.857 20.328 C 3.298 21.215,3.224 21.372,3.264 21.594 C 3.376 22.217,4.113 22.462,4.526 22.015 C 4.621 21.913,6.124 19.542,12.898 8.812 L 14.772 5.844 14.896 5.866 C 16.195 6.089,16.765 6.573,17.034 7.680 C 17.216 8.430,17.220 8.529,17.220 12.040 C 17.220 15.723,17.213 15.839,16.961 16.589 C 16.766 17.170,16.539 17.476,16.110 17.733 C 15.597 18.041,14.854 18.189,13.594 18.236 C 12.792 18.265,12.759 18.270,12.607 18.370 C 12.372 18.526,12.267 18.723,12.267 19.007 C 12.267 19.203,12.286 19.270,12.383 19.408 C 12.590 19.701,12.723 19.741,13.440 19.731 C 16.982 19.678,18.339 18.594,18.683 15.540 C 18.747 14.967,18.778 10.432,18.725 9.300 C 18.680 8.341,18.617 7.822,18.481 7.275 C 18.318 6.619,18.003 6.000,17.605 5.553 C 17.265 5.171,16.575 4.764,15.980 4.595 C 15.804 4.544,15.653 4.499,15.645 4.494 C 15.637 4.488,15.868 4.106,16.159 3.645 C 16.450 3.183,16.703 2.737,16.721 2.655 C 16.825 2.195,16.462 1.755,15.985 1.763 C 15.894 1.764,15.775 1.783,15.720 1.805 M6.009 4.283 C 4.610 4.359,3.703 4.597,2.971 5.079 C 1.806 5.847,1.303 7.177,1.269 9.580 C 1.260 10.188,1.265 10.227,1.353 10.369 C 1.664 10.870,2.415 10.848,2.661 10.332 C 2.720 10.209,2.740 10.026,2.764 9.380 C 2.811 8.136,2.966 7.384,3.284 6.860 C 3.724 6.134,4.578 5.831,6.380 5.764 C 7.026 5.740,7.209 5.720,7.332 5.661 C 7.771 5.452,7.871 4.831,7.522 4.482 C 7.277 4.237,7.153 4.221,6.009 4.283 M20.180 8.835 C 19.990 8.923,19.904 9.012,19.822 9.210 C 19.655 9.608,19.860 10.075,20.252 10.194 C 20.323 10.215,20.537 10.243,20.729 10.254 C 21.296 10.289,21.240 10.098,21.240 12.000 C 21.240 13.902,21.296 13.711,20.729 13.746 C 20.537 13.757,20.323 13.785,20.252 13.806 C 19.848 13.929,19.648 14.413,19.835 14.820 C 19.976 15.126,20.204 15.241,20.669 15.239 C 21.775 15.234,22.442 14.820,22.669 13.999 C 22.732 13.769,22.740 13.548,22.740 12.000 C 22.740 10.452,22.732 10.231,22.669 10.001 C 22.536 9.522,22.280 9.204,21.859 8.996 C 21.403 8.772,20.505 8.686,20.180 8.835 " stroke="none" fill-rule="evenodd" fill="black"></path></svg>