<svg width="24" height="24" viewBox="0 0 24 24" fill="none" xmlns="http://www.w3.org/2000/svg"><path d="M6.009 4.283 C 4.610 4.359,3.703 4.597,2.971 5.079 C 1.987 5.727,1.501 6.736,1.313 8.520 C 1.238 9.229,1.238 14.770,1.313 15.480 C 1.469 16.956,1.812 17.851,2.481 18.519 C 3.149 19.188,4.044 19.531,5.520 19.687 C 5.899 19.727,6.984 19.740,10.000 19.740 C 13.016 19.740,14.101 19.727,14.480 19.687 C 15.956 19.531,16.851 19.188,17.519 18.519 C 18.188 17.851,18.531 16.956,18.687 15.480 C 18.762 14.771,18.762 9.229,18.687 8.520 C 18.531 7.044,18.188 6.149,17.519 5.481 C 16.850 4.811,15.939 4.462,14.480 4.315 C 14.176 4.285,13.353 4.264,12.380 4.263 L 10.780 4.260 10.600 4.366 C 10.112 4.653,10.116 5.360,10.606 5.640 L 10.780 5.740 12.620 5.765 C 14.603 5.791,14.887 5.817,15.550 6.026 C 15.905 6.137,16.266 6.334,16.461 6.522 C 16.768 6.818,17.019 7.424,17.146 8.180 C 17.214 8.584,17.220 8.896,17.220 12.000 C 17.220 15.090,17.214 15.417,17.147 15.815 C 17.011 16.619,16.805 17.112,16.458 17.458 C 16.112 17.805,15.619 18.011,14.815 18.147 C 14.412 18.215,14.060 18.220,10.000 18.220 C 5.923 18.220,5.590 18.215,5.180 18.146 C 4.397 18.014,3.795 17.759,3.501 17.435 C 3.193 17.096,2.979 16.560,2.854 15.820 C 2.786 15.416,2.780 15.104,2.780 12.000 C 2.780 8.896,2.786 8.584,2.854 8.180 C 2.981 7.424,3.232 6.818,3.539 6.522 C 4.030 6.049,4.889 5.820,6.380 5.764 C 7.026 5.740,7.209 5.720,7.332 5.661 C 7.771 5.452,7.871 4.831,7.522 4.482 C 7.277 4.237,7.153 4.221,6.009 4.283 M20.180 8.832 C 19.989 8.924,19.904 9.013,19.822 9.210 C 19.655 9.608,19.860 10.075,20.252 10.194 C 20.323 10.215,20.537 10.243,20.729 10.254 C 21.296 10.289,21.240 10.098,21.240 12.000 C 21.240 13.902,21.296 13.711,20.729 13.746 C 20.537 13.757,20.323 13.785,20.252 13.806 C 19.848 13.929,19.648 14.413,19.835 14.820 C 19.976 15.126,20.204 15.241,20.669 15.239 C 21.775 15.234,22.442 14.820,22.669 13.999 C 22.732 13.769,22.740 13.548,22.740 12.000 C 22.740 10.109,22.725 9.961,22.503 9.581 C 22.194 9.056,21.688 8.816,20.800 8.776 C 20.402 8.758,20.318 8.766,20.180 8.832 " stroke="none" fill-rule="evenodd" fill="black"></path></svg>