<svg width="24" height="24" viewBox="0 0 24 24" fill="none" xmlns="http://www.w3.org/2000/svg"><path d="M1.720 1.805 C 1.458 1.909,1.269 2.200,1.269 2.500 C 1.269 2.727,1.339 2.889,1.506 3.047 C 1.682 3.213,1.803 3.240,2.380 3.240 L 2.916 3.240 2.928 4.750 C 2.940 6.250,2.941 6.261,3.033 6.409 C 3.390 6.983,4.256 6.852,4.396 6.202 C 4.423 6.074,4.440 5.473,4.440 4.618 L 4.440 3.240 12.020 3.240 L 19.600 3.240 19.599 8.950 C 19.599 13.808,19.590 14.702,19.540 14.940 C 19.463 15.309,19.209 15.810,18.971 16.063 C 18.723 16.327,13.397 20.320,13.080 20.480 C 12.748 20.647,12.406 20.728,12.020 20.730 C 11.617 20.732,11.342 20.670,10.980 20.498 C 10.595 20.314,5.439 16.461,5.075 16.085 C 4.917 15.921,4.760 15.709,4.684 15.554 C 4.425 15.028,4.428 15.060,4.410 12.803 C 4.395 10.879,4.389 10.736,4.318 10.596 C 4.173 10.312,3.876 10.168,3.539 10.218 C 3.386 10.241,3.314 10.282,3.162 10.435 C 3.045 10.552,2.963 10.673,2.947 10.756 C 2.932 10.830,2.920 11.738,2.920 12.775 C 2.920 14.783,2.946 15.146,3.122 15.679 C 3.296 16.204,3.591 16.699,3.980 17.116 C 4.255 17.410,9.584 21.431,10.105 21.737 C 10.912 22.210,11.976 22.353,12.960 22.119 C 13.657 21.954,13.860 21.820,16.920 19.528 C 18.471 18.366,19.828 17.326,19.934 17.217 C 20.496 16.648,20.844 15.997,21.005 15.221 C 21.075 14.879,21.079 14.557,21.079 9.050 L 21.080 3.240 21.617 3.240 C 22.197 3.240,22.318 3.213,22.494 3.047 C 22.661 2.889,22.731 2.727,22.731 2.500 C 22.731 2.193,22.540 1.905,22.267 1.803 C 22.116 1.745,1.864 1.747,1.720 1.805 M7.815 7.278 C 7.331 7.393,7.098 8.004,7.383 8.408 C 7.447 8.499,7.572 8.610,7.660 8.656 C 7.819 8.739,7.851 8.740,11.879 8.751 C 14.744 8.759,16.001 8.749,16.153 8.717 C 16.902 8.562,16.930 7.473,16.189 7.286 C 15.979 7.234,8.034 7.226,7.815 7.278 M7.815 12.278 C 7.331 12.393,7.098 13.004,7.383 13.408 C 7.447 13.499,7.572 13.610,7.660 13.656 C 7.815 13.738,7.880 13.740,9.875 13.752 C 12.208 13.765,12.281 13.759,12.519 13.521 C 12.918 13.122,12.731 12.423,12.189 12.286 C 11.980 12.234,8.031 12.226,7.815 12.278 M14.815 12.278 C 14.331 12.393,14.098 13.004,14.383 13.408 C 14.576 13.681,14.733 13.736,15.363 13.754 C 16.073 13.773,16.316 13.724,16.519 13.521 C 16.918 13.122,16.731 12.423,16.189 12.286 C 15.988 12.236,15.016 12.230,14.815 12.278 " stroke="none" fill-rule="evenodd" fill="black"></path></svg>