<svg width="24" height="24" viewBox="0 0 24 24" fill="none" xmlns="http://www.w3.org/2000/svg"><path d="M18.575 1.278 C 18.401 1.319,18.222 1.455,18.118 1.624 C 18.051 1.732,18.025 1.850,18.010 2.118 L 17.989 2.470 16.885 2.499 C 15.623 2.532,15.561 2.547,15.370 2.873 C 15.065 3.393,15.436 4.000,16.059 4.000 L 16.240 4.000 16.240 5.760 L 16.240 7.520 16.015 7.520 C 15.857 7.520,15.744 7.546,15.632 7.610 C 15.216 7.843,15.140 8.464,15.487 8.788 C 15.697 8.984,15.804 9.000,16.933 9.000 L 17.989 9.000 18.009 9.351 C 18.030 9.729,18.084 9.875,18.266 10.047 C 18.543 10.309,18.977 10.309,19.254 10.047 C 19.436 9.875,19.490 9.729,19.511 9.351 L 19.531 9.000 20.156 8.999 C 20.846 8.999,21.193 8.944,21.552 8.780 C 22.046 8.553,22.473 8.098,22.645 7.614 C 22.759 7.290,22.760 6.712,22.646 6.391 C 22.544 6.103,22.362 5.832,22.116 5.600 L 21.926 5.420 22.008 5.180 C 22.305 4.320,22.005 3.426,21.226 2.853 C 20.886 2.603,20.581 2.520,19.996 2.520 L 19.520 2.520 19.519 2.270 C 19.518 1.939,19.457 1.690,19.340 1.536 C 19.183 1.331,18.840 1.215,18.575 1.278 M5.380 2.786 C 3.346 2.951,2.323 3.511,1.737 4.778 C 1.461 5.376,1.341 5.999,1.275 7.180 C 1.223 8.114,1.241 8.649,1.330 8.820 C 1.412 8.976,1.591 9.144,1.733 9.197 C 1.891 9.257,13.109 9.257,13.267 9.197 C 13.540 9.095,13.731 8.807,13.731 8.500 C 13.731 8.193,13.540 7.905,13.267 7.803 C 13.190 7.773,11.532 7.760,7.957 7.760 L 2.760 7.760 2.760 7.398 C 2.760 6.928,2.824 6.345,2.923 5.923 C 3.153 4.939,3.630 4.543,4.840 4.335 C 5.171 4.278,5.746 4.267,9.280 4.254 C 11.513 4.246,13.399 4.230,13.471 4.218 C 13.624 4.192,13.857 4.000,13.948 3.825 C 14.029 3.668,14.030 3.333,13.949 3.179 C 13.868 3.024,13.689 2.856,13.547 2.803 C 13.470 2.773,12.195 2.762,9.487 2.767 C 7.316 2.770,5.468 2.779,5.380 2.786 M20.462 4.168 C 20.536 4.249,20.609 4.363,20.624 4.420 C 20.662 4.573,20.557 4.805,20.403 4.909 C 20.270 4.999,20.251 5.000,19.014 5.000 L 17.760 5.000 17.760 4.498 L 17.760 3.997 19.043 4.008 L 20.326 4.020 20.462 4.168 M20.960 6.600 C 21.156 6.700,21.240 6.820,21.240 7.000 C 21.240 7.182,21.157 7.298,20.947 7.411 C 20.787 7.496,20.735 7.500,19.680 7.507 C 19.075 7.511,18.395 7.503,18.170 7.491 L 17.760 7.468 17.760 6.994 L 17.760 6.521 19.070 6.508 C 20.634 6.492,20.761 6.498,20.960 6.600 M21.619 10.697 C 21.529 10.751,21.415 10.870,21.359 10.967 L 21.260 11.140 21.238 14.280 C 21.214 17.649,21.209 17.740,20.996 18.372 C 20.725 19.177,20.213 19.511,18.980 19.688 C 18.454 19.764,5.546 19.764,5.020 19.688 C 3.787 19.511,3.275 19.177,3.004 18.372 C 2.803 17.776,2.788 17.565,2.763 15.140 L 2.740 12.860 2.634 12.680 C 2.348 12.194,1.652 12.194,1.366 12.680 L 1.260 12.860 1.247 14.460 C 1.225 17.284,1.334 18.350,1.737 19.222 C 2.270 20.376,3.187 20.947,4.860 21.167 C 5.445 21.244,18.555 21.244,19.140 21.167 C 20.810 20.947,21.731 20.374,22.263 19.222 C 22.692 18.292,22.772 17.384,22.752 13.600 L 22.740 11.140 22.634 10.960 C 22.427 10.608,21.967 10.489,21.619 10.697 M5.720 15.805 C 5.458 15.909,5.269 16.200,5.269 16.500 C 5.269 16.807,5.460 17.095,5.733 17.197 C 5.803 17.224,6.281 17.240,7.000 17.240 C 7.719 17.240,8.197 17.224,8.267 17.197 C 8.540 17.095,8.731 16.807,8.731 16.500 C 8.731 16.193,8.540 15.905,8.267 15.803 C 8.122 15.748,5.859 15.750,5.720 15.805 M10.180 15.835 C 9.990 15.923,9.904 16.012,9.822 16.210 C 9.708 16.483,9.783 16.869,9.986 17.048 C 10.199 17.238,10.224 17.240,12.509 17.239 C 14.510 17.238,14.671 17.233,14.820 17.165 C 15.010 17.077,15.096 16.988,15.178 16.790 C 15.287 16.530,15.232 16.193,15.048 15.986 C 15.011 15.943,14.908 15.876,14.820 15.835 C 14.671 15.767,14.511 15.762,12.500 15.762 C 10.489 15.762,10.329 15.767,10.180 15.835 " stroke="none" fill-rule="evenodd" fill="black"></path></svg>