<svg width="24" height="24" viewBox="0 0 24 24" fill="none" xmlns="http://www.w3.org/2000/svg"><path d="M11.180 2.027 C 9.205 2.190,7.258 2.972,5.700 4.227 C 5.242 4.596,4.361 5.489,4.169 5.778 C 3.933 6.135,4.009 6.573,4.348 6.813 C 4.435 6.875,4.580 6.936,4.669 6.948 C 4.981 6.989,5.081 6.921,5.876 6.123 C 6.663 5.333,7.029 5.044,7.800 4.603 C 9.006 3.913,10.569 3.484,11.887 3.481 C 12.199 3.480,12.337 3.436,12.494 3.287 C 12.661 3.129,12.731 2.967,12.731 2.740 C 12.731 2.433,12.540 2.145,12.267 2.043 C 12.164 2.004,11.566 1.995,11.180 2.027 M15.785 2.928 C 15.430 3.025,15.187 3.453,15.283 3.812 C 15.356 4.086,15.482 4.210,15.926 4.443 C 18.234 5.655,19.890 7.878,20.358 10.391 C 20.454 10.908,20.520 11.605,20.520 12.115 L 20.520 12.490 20.225 12.210 C 19.896 11.897,19.729 11.821,19.434 11.850 C 19.204 11.872,18.980 12.028,18.870 12.243 C 18.790 12.401,18.780 12.727,18.852 12.890 C 18.902 13.003,20.687 14.820,20.900 14.973 C 21.068 15.095,21.444 15.094,21.640 14.973 C 21.717 14.925,22.206 14.456,22.726 13.932 C 23.549 13.102,23.678 12.955,23.720 12.801 C 23.851 12.313,23.502 11.840,23.010 11.840 C 22.757 11.840,22.654 11.898,22.314 12.228 L 22.000 12.534 22.000 11.977 C 21.999 10.490,21.687 9.085,21.075 7.800 C 20.070 5.695,18.557 4.115,16.580 3.106 C 16.181 2.902,16.015 2.865,15.785 2.928 M11.520 6.064 C 11.443 6.097,11.338 6.164,11.286 6.212 C 11.092 6.394,11.064 6.503,11.047 7.150 L 11.031 7.760 9.934 7.760 C 9.104 7.760,8.806 7.773,8.708 7.814 C 8.553 7.879,8.333 8.119,8.291 8.271 C 8.251 8.413,8.251 15.587,8.291 15.729 C 8.333 15.881,8.553 16.121,8.708 16.186 C 8.806 16.227,9.104 16.240,9.934 16.240 L 11.031 16.240 11.047 16.850 C 11.064 17.497,11.092 17.606,11.287 17.788 C 11.409 17.903,11.645 18.000,11.800 18.000 C 11.955 18.000,12.191 17.903,12.313 17.788 C 12.508 17.606,12.536 17.497,12.553 16.850 L 12.569 16.240 13.446 16.240 C 14.432 16.240,14.772 16.193,15.196 15.997 C 15.939 15.653,16.489 15.039,16.664 14.355 C 16.743 14.047,16.752 13.501,16.682 13.200 C 16.563 12.689,16.202 12.161,15.740 11.821 C 15.595 11.715,15.482 11.618,15.489 11.604 C 15.495 11.591,15.548 11.489,15.607 11.378 C 15.793 11.025,15.857 10.740,15.858 10.260 C 15.859 9.900,15.841 9.766,15.762 9.522 C 15.560 8.904,15.015 8.284,14.420 7.999 C 14.018 7.806,13.762 7.760,13.097 7.760 L 12.569 7.760 12.553 7.150 C 12.541 6.688,12.521 6.511,12.472 6.420 C 12.284 6.070,11.867 5.914,11.520 6.064 M2.418 8.998 C 2.220 9.099,0.440 10.881,0.339 11.079 C 0.252 11.251,0.247 11.581,0.331 11.741 C 0.468 12.005,0.716 12.160,1.000 12.160 C 1.246 12.160,1.360 12.096,1.690 11.769 L 2.000 11.462 2.000 12.021 C 2.001 12.853,2.114 13.755,2.319 14.557 C 2.635 15.796,3.364 17.218,4.256 18.335 C 5.031 19.308,6.208 20.267,7.338 20.847 C 7.662 21.014,7.773 21.051,7.939 21.051 C 8.481 21.051,8.829 20.511,8.604 20.017 C 8.512 19.813,8.420 19.742,7.800 19.394 C 5.936 18.345,4.513 16.585,3.864 14.526 C 3.634 13.795,3.481 12.746,3.480 11.883 L 3.480 11.507 3.757 11.774 C 3.909 11.921,4.098 12.068,4.176 12.101 C 4.550 12.257,5.020 12.069,5.157 11.707 C 5.213 11.559,5.209 11.248,5.148 11.110 C 5.100 11.000,3.315 9.182,3.110 9.034 C 2.942 8.913,2.617 8.896,2.418 8.998 M13.783 9.347 C 13.981 9.453,14.226 9.718,14.309 9.914 C 14.497 10.362,14.247 10.953,13.781 11.165 C 13.632 11.233,13.473 11.238,11.690 11.239 L 9.760 11.240 9.760 10.239 L 9.760 9.237 11.690 9.249 C 13.585 9.260,13.623 9.262,13.783 9.347 M14.666 12.914 C 14.913 13.048,15.126 13.265,15.200 13.460 C 15.262 13.623,15.246 13.924,15.165 14.100 C 15.074 14.302,14.849 14.501,14.562 14.636 L 14.340 14.740 12.050 14.752 L 9.760 14.763 9.760 13.760 L 9.760 12.758 12.090 12.769 L 14.420 12.780 14.666 12.914 M18.940 17.117 C 18.841 17.164,18.590 17.394,18.280 17.723 C 17.666 18.376,17.316 18.678,16.714 19.078 C 15.417 19.939,13.952 20.422,12.398 20.501 C 11.762 20.533,11.697 20.547,11.537 20.688 C 11.345 20.856,11.269 21.020,11.269 21.260 C 11.269 21.500,11.345 21.664,11.537 21.832 C 11.721 21.994,11.866 22.017,12.505 21.986 C 14.612 21.885,16.641 21.110,18.303 19.770 C 18.754 19.407,19.642 18.505,19.838 18.212 C 19.956 18.036,19.965 17.998,19.952 17.756 C 19.935 17.438,19.818 17.255,19.548 17.124 C 19.335 17.021,19.149 17.018,18.940 17.117 " stroke="none" fill-rule="evenodd" fill="black"></path></svg>