<svg width="24" height="24" viewBox="0 0 24 24" fill="none" xmlns="http://www.w3.org/2000/svg"><path d="M6.900 0.303 C 3.241 0.868,0.537 3.776,0.282 7.420 C 0.233 8.116,0.269 8.304,0.487 8.508 C 0.702 8.709,1.008 8.768,1.271 8.658 C 1.633 8.507,1.719 8.332,1.763 7.664 C 1.800 7.095,1.837 6.841,1.939 6.440 C 2.484 4.294,4.183 2.547,6.293 1.959 C 6.443 1.918,6.560 1.896,6.553 1.912 C 6.546 1.927,6.471 2.062,6.386 2.211 C 6.211 2.518,6.169 2.726,6.239 2.936 C 6.390 3.395,6.896 3.593,7.317 3.359 C 7.478 3.269,7.550 3.168,8.113 2.231 C 8.707 1.243,8.731 1.193,8.731 0.987 C 8.731 0.708,8.600 0.467,8.377 0.336 C 8.227 0.248,8.171 0.240,7.736 0.244 C 7.474 0.246,7.098 0.273,6.900 0.303 M14.420 1.820 C 11.875 2.181,9.794 3.823,8.876 6.195 C 8.650 6.779,8.462 7.634,8.431 8.220 L 8.420 8.420 8.220 8.431 C 7.884 8.449,7.239 8.558,6.860 8.661 C 5.717 8.970,4.681 9.567,3.839 10.400 C 2.687 11.540,2.030 12.858,1.822 14.452 C 1.698 15.396,1.755 15.715,2.088 15.946 C 2.226 16.041,2.294 16.060,2.500 16.060 C 2.704 16.060,2.774 16.041,2.904 15.951 C 3.163 15.771,3.205 15.660,3.266 14.990 C 3.342 14.156,3.503 13.552,3.823 12.912 C 4.623 11.310,6.154 10.216,7.956 9.957 C 8.413 9.892,9.395 9.932,9.840 10.035 C 11.640 10.450,13.103 11.717,13.736 13.411 C 14.541 15.563,13.964 17.894,12.253 19.407 C 10.455 20.996,7.833 21.206,5.798 19.924 C 5.152 19.518,4.861 19.239,4.119 18.314 C 3.742 17.843,2.971 18.037,2.836 18.636 C 2.764 18.956,2.875 19.177,3.452 19.865 C 4.047 20.574,4.950 21.246,5.851 21.649 C 7.241 22.272,8.864 22.411,10.380 22.037 C 12.568 21.496,14.405 19.834,15.173 17.700 C 15.403 17.060,15.558 16.337,15.559 15.893 C 15.560 15.584,15.578 15.560,15.805 15.560 C 15.913 15.560,16.176 15.532,16.390 15.498 C 19.455 15.010,21.776 12.623,22.178 9.548 C 22.302 8.604,22.245 8.285,21.912 8.054 C 21.774 7.959,21.706 7.940,21.500 7.940 C 21.296 7.940,21.226 7.959,21.096 8.049 C 20.837 8.229,20.795 8.340,20.734 9.010 C 20.658 9.844,20.497 10.448,20.177 11.088 C 19.595 12.254,18.587 13.189,17.383 13.681 C 16.820 13.911,16.084 14.080,15.648 14.080 L 15.490 14.080 15.442 13.830 C 15.370 13.452,15.139 12.788,14.925 12.340 C 14.560 11.578,14.099 10.941,13.475 10.340 C 12.580 9.477,11.479 8.870,10.310 8.596 L 9.920 8.504 9.920 8.350 C 9.920 7.916,10.090 7.178,10.319 6.617 C 11.417 3.929,14.480 2.580,17.198 3.586 C 17.928 3.856,18.415 4.162,19.040 4.740 C 19.271 4.954,19.518 5.154,19.589 5.184 C 20.073 5.394,20.611 5.034,20.611 4.500 C 20.611 4.233,20.524 4.075,20.204 3.760 C 19.198 2.769,17.944 2.121,16.516 1.856 C 16.043 1.768,14.920 1.749,14.420 1.820 M8.192 11.237 C 7.861 11.344,7.680 11.631,7.680 12.050 L 7.680 12.315 7.027 12.327 C 6.395 12.340,6.368 12.344,6.212 12.447 C 6.114 12.512,6.016 12.625,5.964 12.732 C 5.879 12.908,5.878 12.924,5.889 15.388 L 5.900 17.866 6.013 18.014 C 6.218 18.284,6.264 18.298,6.998 18.320 L 7.660 18.340 7.682 18.640 C 7.714 19.068,7.826 19.251,8.130 19.378 C 8.318 19.457,8.522 19.457,8.710 19.378 C 9.014 19.251,9.126 19.068,9.158 18.640 L 9.180 18.340 9.760 18.316 C 10.374 18.290,10.446 18.275,10.818 18.099 C 11.124 17.954,11.551 17.534,11.697 17.233 C 11.847 16.922,11.905 16.522,11.849 16.183 C 11.788 15.814,11.651 15.539,11.381 15.248 L 11.148 14.997 11.198 14.829 C 11.419 14.093,11.259 13.413,10.742 12.895 C 10.362 12.514,9.902 12.320,9.378 12.320 L 9.160 12.320 9.160 12.053 C 9.160 11.721,9.058 11.491,8.845 11.343 C 8.678 11.228,8.374 11.178,8.192 11.237 M9.683 13.951 C 9.836 14.122,9.841 14.309,9.695 14.455 L 9.589 14.560 8.475 14.560 L 7.360 14.560 7.360 14.207 C 7.360 14.012,7.372 13.842,7.386 13.828 C 7.400 13.813,7.896 13.806,8.489 13.811 L 9.567 13.820 9.683 13.951 M22.619 15.337 C 22.353 15.497,22.277 15.683,22.238 16.273 C 22.200 16.840,22.165 17.072,22.045 17.542 C 21.587 19.330,20.311 20.862,18.632 21.637 C 18.132 21.867,17.402 22.100,17.449 22.014 C 17.459 21.995,17.537 21.863,17.622 21.720 C 17.752 21.504,17.778 21.424,17.779 21.240 C 17.781 20.813,17.521 20.523,17.105 20.489 C 16.851 20.468,16.617 20.570,16.466 20.770 C 16.266 21.033,15.319 22.655,15.279 22.803 C 15.174 23.193,15.460 23.627,15.874 23.706 C 16.077 23.744,17.063 23.658,17.542 23.560 C 19.861 23.084,21.798 21.617,22.876 19.520 C 23.369 18.561,23.641 17.592,23.717 16.517 C 23.758 15.942,23.738 15.763,23.607 15.551 C 23.418 15.245,22.944 15.143,22.619 15.337 M10.112 16.136 C 10.363 16.266,10.441 16.483,10.295 16.647 C 10.133 16.829,10.040 16.840,8.661 16.840 L 7.360 16.840 7.360 16.460 L 7.360 16.080 8.682 16.080 C 9.736 16.080,10.026 16.091,10.112 16.136 " stroke="none" fill-rule="evenodd" fill="black"></path></svg>