<svg width="24" height="24" viewBox="0 0 24 24" fill="none" xmlns="http://www.w3.org/2000/svg"><path d="M7.500 5.282 C 5.883 5.393,4.380 6.073,3.232 7.214 C 1.933 8.504,1.238 10.177,1.241 12.010 C 1.243 13.568,1.759 15.023,2.744 16.241 C 2.998 16.556,3.174 16.656,3.466 16.653 C 3.810 16.650,4.062 16.444,4.158 16.089 C 4.232 15.813,4.179 15.672,3.820 15.193 C 2.822 13.860,2.489 12.272,2.883 10.714 C 3.256 9.233,4.292 7.959,5.658 7.300 C 6.528 6.881,6.977 6.780,7.980 6.780 C 8.731 6.780,9.010 6.819,9.600 7.008 C 10.305 7.234,11.057 7.700,11.620 8.257 C 12.107 8.741,12.357 9.083,12.640 9.660 C 13.071 10.537,13.180 11.010,13.180 12.000 C 13.180 12.990,13.071 13.463,12.640 14.340 C 12.357 14.917,12.107 15.259,11.620 15.743 C 10.700 16.654,9.598 17.144,8.249 17.239 C 7.837 17.268,7.730 17.290,7.588 17.373 C 7.115 17.651,7.120 18.353,7.598 18.632 C 7.762 18.729,7.809 18.736,8.178 18.729 C 9.413 18.703,10.753 18.274,11.722 17.595 C 11.844 17.510,11.955 17.440,11.969 17.440 C 11.983 17.440,12.140 17.537,12.318 17.656 C 13.820 18.662,15.846 18.991,17.660 18.525 C 19.789 17.978,21.557 16.364,22.312 14.280 C 22.584 13.530,22.696 12.864,22.696 12.000 C 22.696 11.136,22.584 10.470,22.312 9.720 C 21.557 7.636,19.789 6.022,17.660 5.475 C 15.847 5.009,13.821 5.338,12.322 6.341 C 12.142 6.461,11.983 6.560,11.969 6.560 C 11.955 6.560,11.844 6.490,11.722 6.405 C 11.428 6.199,10.815 5.875,10.429 5.720 C 9.571 5.378,8.479 5.215,7.500 5.282 M17.240 6.911 C 19.455 7.490,20.999 9.309,21.196 11.570 C 21.332 13.142,20.751 14.669,19.595 15.779 C 18.634 16.702,17.505 17.181,16.179 17.229 C 15.454 17.255,14.948 17.186,14.324 16.977 C 13.926 16.844,13.239 16.515,13.160 16.420 C 13.136 16.391,13.206 16.266,13.362 16.058 C 15.174 13.647,15.174 10.353,13.362 7.942 C 13.206 7.734,13.136 7.609,13.160 7.580 C 13.239 7.485,13.926 7.156,14.325 7.022 C 14.962 6.809,15.310 6.761,16.100 6.777 C 16.701 6.789,16.833 6.804,17.240 6.911 " stroke="none" fill-rule="evenodd" fill="black"></path></svg>