<svg width="24" height="24" viewBox="0 0 24 24" fill="none" xmlns="http://www.w3.org/2000/svg"><path d="M8.814 1.280 C 8.165 1.423,8.023 2.311,8.598 2.634 C 8.736 2.711,8.855 2.733,9.301 2.763 C 10.806 2.863,12.064 3.388,13.149 4.367 C 14.481 5.570,15.202 7.208,15.199 9.025 C 15.197 10.417,14.764 11.693,13.918 12.800 C 13.640 13.164,13.074 13.727,12.720 13.991 C 10.988 15.283,8.689 15.591,6.667 14.801 C 5.861 14.486,5.189 14.038,4.539 13.384 C 3.747 12.587,3.224 11.686,2.936 10.620 C 2.581 9.306,2.672 7.902,3.197 6.620 C 3.482 5.926,3.850 5.352,4.412 4.728 C 4.708 4.399,4.778 4.239,4.750 3.954 C 4.716 3.594,4.404 3.320,4.029 3.320 C 3.744 3.320,3.609 3.396,3.292 3.735 C 2.352 4.742,1.677 6.042,1.399 7.380 C 1.087 8.879,1.231 10.543,1.789 11.900 C 2.505 13.641,3.777 15.021,5.461 15.887 C 5.961 16.144,6.700 16.419,7.162 16.520 L 7.384 16.569 7.478 16.935 C 8.034 19.105,9.555 20.970,11.569 21.953 C 13.391 22.842,15.501 22.980,17.431 22.337 C 20.185 21.418,22.128 19.115,22.625 16.180 C 22.709 15.687,22.719 14.499,22.644 13.980 C 22.319 11.731,21.122 9.809,19.280 8.579 C 18.546 8.089,17.870 7.780,17.004 7.540 L 16.548 7.414 16.453 7.047 C 15.883 4.839,14.358 2.994,12.293 2.013 C 11.735 1.747,11.290 1.592,10.720 1.462 C 10.058 1.312,9.091 1.219,8.814 1.280 M17.215 9.176 C 19.274 9.959,20.789 11.835,21.144 14.040 C 21.217 14.492,21.225 15.425,21.160 15.865 C 20.884 17.735,19.837 19.332,18.235 20.325 C 17.264 20.928,16.158 21.238,14.974 21.239 C 12.758 21.242,10.743 20.097,9.589 18.178 C 9.375 17.821,9.000 16.959,9.000 16.823 C 9.000 16.790,9.181 16.759,9.570 16.726 C 9.883 16.699,10.219 16.659,10.316 16.637 L 10.493 16.597 10.996 17.093 C 11.273 17.366,11.563 17.622,11.639 17.661 C 11.718 17.701,11.866 17.731,11.980 17.731 C 12.298 17.731,12.532 17.573,12.658 17.271 C 12.792 16.950,12.698 16.666,12.346 16.323 L 12.123 16.105 12.525 15.892 C 12.912 15.686,13.392 15.381,13.750 15.113 L 13.921 14.985 14.410 15.465 C 14.680 15.730,14.957 15.985,15.027 16.033 C 15.273 16.203,15.654 16.186,15.899 15.994 C 16.133 15.810,16.229 15.396,16.104 15.109 C 16.073 15.038,15.812 14.746,15.524 14.461 C 15.236 14.175,15.000 13.928,15.000 13.912 C 15.000 13.897,15.091 13.761,15.203 13.612 C 15.445 13.289,15.742 12.803,15.924 12.431 L 16.056 12.163 16.279 12.376 C 16.566 12.649,16.728 12.731,16.980 12.731 C 17.298 12.731,17.532 12.573,17.658 12.271 C 17.813 11.899,17.722 11.705,17.091 11.072 L 16.585 10.564 16.635 10.192 C 16.662 9.987,16.695 9.638,16.708 9.414 L 16.732 9.009 16.836 9.040 C 16.893 9.057,17.064 9.118,17.215 9.176 " stroke="none" fill-rule="evenodd" fill="black"></path></svg>