<svg width="24" height="24" viewBox="0 0 24 24" fill="none" xmlns="http://www.w3.org/2000/svg"><path d="M11.560 1.267 C 10.326 1.322,9.152 1.571,8.041 2.012 C 7.427 2.256,7.240 2.454,7.240 2.860 C 7.240 3.229,7.525 3.548,7.892 3.589 C 8.032 3.605,8.152 3.574,8.523 3.428 C 9.718 2.955,10.735 2.760,12.006 2.760 C 13.464 2.760,14.754 3.058,16.060 3.698 C 17.024 4.170,17.648 4.611,18.434 5.378 C 19.273 6.195,19.814 6.937,20.303 7.940 C 20.944 9.253,21.240 10.537,21.240 12.000 C 21.240 13.465,20.943 14.752,20.302 16.060 C 19.830 17.024,19.389 17.648,18.622 18.434 C 17.805 19.273,17.063 19.814,16.060 20.303 C 14.747 20.944,13.463 21.240,12.000 21.240 C 10.537 21.240,9.253 20.944,7.940 20.303 C 6.937 19.814,6.195 19.273,5.378 18.434 C 4.611 17.648,4.170 17.024,3.698 16.060 C 3.058 14.754,2.760 13.464,2.760 12.005 C 2.760 10.060,3.331 8.256,4.457 6.648 C 4.701 6.298,4.770 6.095,4.724 5.855 C 4.656 5.497,4.372 5.267,4.000 5.267 C 3.678 5.267,3.534 5.369,3.222 5.816 C 1.432 8.383,0.834 11.537,1.564 14.550 C 1.904 15.951,2.529 17.268,3.424 18.470 C 3.880 19.083,4.909 20.111,5.530 20.575 C 7.606 22.126,10.070 22.870,12.627 22.717 C 14.790 22.588,16.724 21.879,18.470 20.575 C 19.087 20.115,20.115 19.087,20.575 18.470 C 22.127 16.391,22.870 13.930,22.717 11.373 C 22.588 9.210,21.879 7.276,20.575 5.530 C 20.115 4.913,19.087 3.885,18.470 3.425 C 17.047 2.362,15.454 1.679,13.742 1.398 C 13.325 1.330,12.055 1.227,11.880 1.248 C 11.847 1.252,11.703 1.261,11.560 1.267 M12.420 5.921 C 12.084 5.989,11.849 6.141,11.670 6.408 C 11.440 6.751,11.427 6.846,11.403 8.486 L 11.380 9.991 10.186 8.898 C 9.394 8.171,8.946 7.788,8.852 7.757 C 8.632 7.685,8.310 7.728,8.147 7.852 C 7.985 7.976,7.840 8.250,7.840 8.434 C 7.840 8.594,7.935 8.828,8.052 8.955 C 8.100 9.007,8.864 9.715,9.748 10.527 L 11.357 12.004 9.665 13.558 C 7.894 15.183,7.840 15.242,7.840 15.562 C 7.840 15.715,7.938 15.951,8.052 16.073 C 8.275 16.312,8.670 16.366,8.954 16.196 C 9.041 16.143,9.628 15.627,10.257 15.049 L 11.400 13.998 11.401 15.349 C 11.401 16.092,11.418 16.812,11.438 16.950 C 11.541 17.661,11.984 18.090,12.624 18.095 C 13.084 18.100,13.308 17.963,14.580 16.900 C 15.174 16.403,15.726 15.925,15.806 15.838 C 16.199 15.410,16.263 14.757,15.960 14.272 C 15.889 14.159,15.397 13.676,14.721 13.055 C 14.103 12.488,13.603 12.011,13.609 11.995 C 13.615 11.978,13.998 11.619,14.460 11.197 C 15.980 9.810,16.098 9.670,16.147 9.194 C 16.175 8.924,16.082 8.541,15.934 8.317 C 15.815 8.139,13.605 6.275,13.314 6.108 C 13.013 5.936,12.686 5.868,12.420 5.921 M14.560 9.059 C 14.560 9.068,13.878 9.697,13.090 10.415 L 12.920 10.570 12.920 9.124 L 12.920 7.678 13.740 8.363 C 14.191 8.739,14.560 9.052,14.560 9.059 M14.413 14.803 L 14.574 14.945 13.838 15.563 C 13.433 15.902,13.061 16.213,13.011 16.253 L 12.920 16.326 12.920 14.880 L 12.920 13.434 13.586 14.047 C 13.953 14.384,14.325 14.724,14.413 14.803 " stroke="none" fill-rule="evenodd" fill="black"></path></svg>