<svg width="24" height="24" viewBox="0 0 24 24" fill="none" xmlns="http://www.w3.org/2000/svg"><path d="M8.458 1.283 C 7.617 1.344,6.882 1.542,6.186 1.896 C 5.639 2.174,5.292 2.425,4.859 2.859 C 3.901 3.817,3.391 4.999,3.284 6.512 C 3.245 7.061,3.263 7.236,3.379 7.413 C 3.677 7.867,4.428 7.824,4.658 7.339 C 4.703 7.244,4.739 7.018,4.763 6.682 C 4.783 6.400,4.825 6.045,4.857 5.894 C 5.194 4.294,6.354 3.158,7.980 2.836 C 8.392 2.754,15.608 2.754,16.020 2.836 C 17.674 3.164,18.836 4.326,19.164 5.980 C 19.247 6.395,19.247 17.605,19.164 18.020 C 18.836 19.674,17.674 20.836,16.020 21.164 C 15.608 21.246,8.392 21.246,7.980 21.164 C 6.563 20.883,5.482 19.975,5.021 18.680 C 4.779 17.999,4.789 18.165,4.763 14.340 C 4.742 11.167,4.733 10.808,4.674 10.700 C 4.540 10.458,4.255 10.280,4.000 10.280 C 3.745 10.280,3.460 10.458,3.326 10.700 C 3.267 10.808,3.259 11.115,3.248 13.780 C 3.240 15.605,3.252 16.985,3.278 17.380 C 3.347 18.401,3.515 19.065,3.896 19.814 C 4.174 20.361,4.425 20.708,4.859 21.141 C 5.825 22.107,6.993 22.607,8.545 22.719 C 9.266 22.771,14.734 22.771,15.455 22.719 C 16.406 22.651,17.088 22.473,17.814 22.104 C 18.361 21.826,18.708 21.575,19.141 21.141 C 20.107 20.175,20.607 19.007,20.719 17.455 C 20.772 16.718,20.772 7.282,20.719 6.545 C 20.651 5.594,20.473 4.912,20.104 4.186 C 19.826 3.639,19.575 3.292,19.141 2.859 C 18.175 1.893,17.007 1.393,15.455 1.281 C 14.808 1.234,9.111 1.236,8.458 1.283 M12.420 5.921 C 12.084 5.989,11.849 6.141,11.670 6.408 C 11.440 6.751,11.427 6.846,11.403 8.486 L 11.380 9.991 10.186 8.898 C 9.394 8.171,8.946 7.788,8.852 7.757 C 8.632 7.685,8.310 7.728,8.147 7.852 C 7.985 7.976,7.840 8.250,7.840 8.434 C 7.840 8.594,7.935 8.828,8.052 8.955 C 8.100 9.007,8.864 9.715,9.748 10.527 L 11.357 12.004 9.665 13.558 C 7.894 15.183,7.840 15.242,7.840 15.562 C 7.840 15.715,7.938 15.951,8.052 16.073 C 8.275 16.312,8.670 16.366,8.954 16.196 C 9.041 16.143,9.628 15.627,10.257 15.049 L 11.400 13.998 11.401 15.349 C 11.401 16.092,11.418 16.812,11.438 16.950 C 11.541 17.661,11.984 18.090,12.624 18.095 C 13.084 18.100,13.308 17.963,14.580 16.900 C 15.174 16.403,15.726 15.925,15.806 15.838 C 16.199 15.410,16.263 14.757,15.960 14.272 C 15.889 14.159,15.397 13.676,14.721 13.055 C 14.103 12.488,13.603 12.011,13.609 11.995 C 13.615 11.978,13.998 11.619,14.460 11.197 C 15.980 9.810,16.098 9.670,16.147 9.194 C 16.175 8.924,16.082 8.541,15.934 8.317 C 15.815 8.139,13.605 6.275,13.314 6.108 C 13.013 5.936,12.686 5.868,12.420 5.921 M14.560 9.059 C 14.560 9.068,13.878 9.697,13.090 10.415 L 12.920 10.570 12.920 9.124 L 12.920 7.678 13.740 8.363 C 14.191 8.739,14.560 9.052,14.560 9.059 M14.413 14.803 L 14.574 14.945 13.838 15.563 C 13.433 15.902,13.061 16.213,13.011 16.253 L 12.920 16.326 12.920 14.880 L 12.920 13.434 13.586 14.047 C 13.953 14.384,14.325 14.724,14.413 14.803 " stroke="none" fill-rule="evenodd" fill="black"></path></svg>