<svg width="24" height="24" viewBox="0 0 24 24" fill="none" xmlns="http://www.w3.org/2000/svg"><path d="M12.519 1.294 C 11.959 1.416,11.538 1.861,11.336 2.542 C 11.272 2.759,11.263 3.093,11.243 6.247 L 11.220 9.715 8.560 7.274 C 7.097 5.931,5.832 4.787,5.750 4.731 C 5.439 4.520,4.977 4.621,4.745 4.951 C 4.604 5.149,4.584 5.455,4.695 5.686 C 4.743 5.786,5.788 6.769,8.003 8.799 L 11.240 11.767 11.240 12.000 L 11.240 12.233 8.003 15.201 C 5.788 17.231,4.743 18.214,4.695 18.314 C 4.584 18.545,4.604 18.851,4.745 19.049 C 4.977 19.379,5.439 19.480,5.750 19.269 C 5.832 19.213,7.097 18.069,8.560 16.726 L 11.220 14.285 11.243 17.753 C 11.263 20.910,11.272 21.241,11.336 21.460 C 11.505 22.032,11.868 22.473,12.310 22.643 C 12.770 22.819,13.395 22.728,13.900 22.412 C 14.190 22.231,18.157 18.941,18.370 18.706 C 18.977 18.035,18.969 16.946,18.352 16.273 C 18.257 16.169,17.181 15.171,15.960 14.055 C 14.739 12.938,13.740 12.013,13.740 12.000 C 13.740 11.987,14.739 11.062,15.960 9.945 C 17.181 8.829,18.257 7.831,18.352 7.727 C 18.823 7.213,18.958 6.399,18.677 5.764 C 18.561 5.503,18.299 5.180,18.089 5.041 C 17.746 4.814,17.303 4.895,17.067 5.228 C 16.851 5.532,16.884 5.861,17.164 6.184 C 17.360 6.411,17.374 6.582,17.210 6.755 C 17.149 6.819,16.123 7.765,14.929 8.857 L 12.759 10.843 12.769 6.844 C 12.778 3.710,12.791 2.833,12.830 2.794 C 12.916 2.708,13.175 2.874,13.896 3.479 C 14.268 3.791,14.615 4.063,14.668 4.083 C 14.814 4.138,15.150 4.127,15.272 4.064 C 15.395 3.999,15.569 3.822,15.635 3.693 C 15.701 3.564,15.690 3.213,15.615 3.054 C 15.541 2.900,14.352 1.880,13.923 1.604 C 13.487 1.324,12.937 1.202,12.519 1.294 M17.210 17.245 C 17.330 17.372,17.358 17.576,17.270 17.689 C 17.159 17.833,13.208 21.094,13.050 21.172 C 12.914 21.239,12.870 21.246,12.830 21.206 C 12.791 21.167,12.778 20.290,12.769 17.156 L 12.759 13.157 14.929 15.143 C 16.123 16.235,17.149 17.181,17.210 17.245 " stroke="none" fill-rule="evenodd" fill="black"></path></svg>