<svg width="24" height="24" viewBox="0 0 24 24" fill="none" xmlns="http://www.w3.org/2000/svg"><path d="M11.842 1.283 C 11.250 1.402,10.798 1.875,10.612 2.569 C 10.553 2.791,10.543 3.214,10.523 6.267 L 10.500 9.715 7.840 7.274 C 6.377 5.931,5.112 4.787,5.030 4.731 C 4.721 4.521,4.257 4.621,4.027 4.947 C 3.888 5.143,3.866 5.459,3.975 5.686 C 4.023 5.786,5.060 6.762,7.283 8.799 L 10.520 11.767 10.520 12.000 L 10.520 12.233 7.283 15.201 C 5.060 17.238,4.023 18.214,3.975 18.314 C 3.866 18.541,3.888 18.857,4.027 19.053 C 4.257 19.379,4.721 19.479,5.030 19.269 C 5.112 19.213,6.377 18.069,7.840 16.726 L 10.500 14.285 10.523 17.733 C 10.543 20.786,10.553 21.209,10.612 21.431 C 10.803 22.143,11.253 22.602,11.875 22.719 C 12.278 22.795,12.831 22.650,13.280 22.351 C 13.722 22.057,17.576 18.802,17.747 18.579 C 17.995 18.254,18.089 17.973,18.094 17.540 C 18.098 17.090,18.017 16.807,17.789 16.480 C 17.671 16.310,16.930 15.605,15.320 14.131 C 14.055 12.972,13.020 12.014,13.020 12.000 C 13.020 11.986,14.055 11.028,15.320 9.869 C 17.738 7.655,17.893 7.494,18.028 7.048 C 18.129 6.717,18.117 6.169,18.002 5.870 C 17.887 5.568,17.604 5.196,17.372 5.043 C 17.035 4.820,16.587 4.893,16.357 5.210 C 16.133 5.520,16.163 5.860,16.444 6.184 C 16.640 6.411,16.654 6.582,16.490 6.755 C 16.430 6.819,15.403 7.765,14.209 8.857 L 12.038 10.843 12.049 6.844 C 12.058 3.710,12.071 2.833,12.110 2.794 C 12.196 2.708,12.454 2.873,13.161 3.466 C 13.524 3.771,13.871 4.043,13.933 4.070 C 14.081 4.137,14.418 4.133,14.552 4.064 C 14.675 3.999,14.849 3.822,14.915 3.693 C 14.981 3.564,14.970 3.213,14.894 3.053 C 14.837 2.932,14.083 2.261,13.460 1.775 C 12.962 1.388,12.308 1.188,11.842 1.283 M4.840 10.270 C 4.155 10.326,3.529 10.835,3.331 11.495 C 3.253 11.758,3.253 12.242,3.331 12.505 C 3.447 12.892,3.709 13.232,4.073 13.468 C 4.355 13.651,4.625 13.726,5.000 13.726 C 5.375 13.726,5.645 13.651,5.927 13.468 C 6.459 13.123,6.726 12.632,6.726 12.000 C 6.726 11.646,6.654 11.366,6.499 11.115 C 6.138 10.532,5.514 10.214,4.840 10.270 M18.840 10.270 C 18.155 10.326,17.529 10.835,17.331 11.495 C 17.298 11.608,17.270 11.835,17.270 12.000 C 17.270 12.625,17.544 13.125,18.073 13.468 C 18.355 13.651,18.625 13.726,19.000 13.726 C 19.375 13.726,19.645 13.651,19.927 13.468 C 20.459 13.123,20.726 12.632,20.726 12.000 C 20.726 11.646,20.654 11.366,20.499 11.115 C 20.138 10.532,19.514 10.214,18.840 10.270 M5.167 11.826 C 5.319 11.964,5.212 12.240,5.007 12.240 C 4.793 12.240,4.683 11.992,4.826 11.833 C 4.909 11.742,5.070 11.739,5.167 11.826 M19.167 11.826 C 19.258 11.909,19.261 12.070,19.174 12.167 C 19.036 12.319,18.760 12.212,18.760 12.007 C 18.760 11.793,19.008 11.683,19.167 11.826 M16.490 17.245 C 16.610 17.372,16.638 17.576,16.550 17.689 C 16.439 17.833,12.488 21.094,12.330 21.172 C 12.194 21.239,12.150 21.246,12.110 21.206 C 12.071 21.167,12.058 20.290,12.049 17.156 L 12.038 13.157 14.209 15.143 C 15.403 16.235,16.430 17.181,16.490 17.245 " stroke="none" fill-rule="evenodd" fill="black"></path></svg>