<svg width="24" height="24" viewBox="0 0 24 24" fill="none" xmlns="http://www.w3.org/2000/svg"><path d="M11.640 1.296 C 11.291 1.375,11.082 1.497,10.493 1.968 C 8.217 3.788,6.392 5.764,5.117 7.788 C 4.662 8.511,4.560 8.725,4.560 8.960 C 4.560 9.380,4.873 9.691,5.297 9.691 C 5.649 9.691,5.797 9.576,6.081 9.080 C 7.094 7.312,8.805 5.339,10.770 3.673 L 11.240 3.275 11.240 12.243 L 11.240 21.211 11.012 21.184 C 10.369 21.109,9.657 20.899,8.954 20.578 C 7.414 19.876,6.182 18.678,5.404 17.128 C 4.995 16.314,4.747 15.390,4.675 14.420 C 4.652 14.112,4.626 13.804,4.616 13.734 C 4.554 13.300,4.010 13.038,3.580 13.235 C 3.177 13.420,3.099 13.738,3.201 14.766 C 3.309 15.844,3.585 16.812,4.062 17.785 C 5.353 20.420,7.824 22.213,10.780 22.661 C 11.374 22.751,12.622 22.751,13.220 22.662 C 15.496 22.321,17.507 21.180,18.891 19.444 C 20.944 16.868,21.400 13.507,20.135 10.267 C 19.074 7.550,16.761 4.632,13.646 2.080 C 12.975 1.531,12.665 1.347,12.297 1.283 C 12.002 1.231,11.923 1.233,11.640 1.296 M13.153 3.614 C 13.978 4.314,15.271 5.581,15.735 6.144 L 15.837 6.268 15.248 6.549 C 14.925 6.704,14.232 7.039,13.710 7.293 L 12.760 7.756 12.760 5.538 C 12.760 4.318,12.770 3.320,12.783 3.320 C 12.796 3.320,12.962 3.452,13.153 3.614 M17.157 7.930 C 17.332 8.178,17.601 8.587,17.754 8.840 C 18.020 9.279,18.410 10.005,18.389 10.023 C 18.384 10.028,17.129 10.639,15.600 11.380 C 14.071 12.122,12.807 12.737,12.790 12.747 C 12.773 12.757,12.760 12.012,12.760 11.092 L 12.760 9.419 14.750 8.451 C 15.845 7.918,16.762 7.481,16.789 7.481 C 16.816 7.480,16.981 7.683,17.157 7.930 M19.047 11.720 C 19.257 12.461,19.384 13.475,19.349 14.152 C 19.338 14.379,19.322 14.570,19.314 14.576 C 19.300 14.587,14.990 16.680,13.530 17.384 L 12.760 17.756 12.760 16.088 L 12.760 14.420 15.810 12.933 C 17.488 12.116,18.885 11.450,18.916 11.453 C 18.949 11.457,19.003 11.567,19.047 11.720 M18.663 16.985 C 18.235 17.875,17.847 18.429,17.190 19.086 C 16.747 19.529,16.202 19.954,15.700 20.248 C 14.898 20.718,13.837 21.084,12.988 21.184 L 12.760 21.211 12.760 20.316 L 12.761 19.420 15.810 17.938 C 17.488 17.123,18.866 16.471,18.873 16.489 C 18.881 16.506,18.786 16.730,18.663 16.985 " stroke="none" fill-rule="evenodd" fill="black"></path></svg>