<svg width="24" height="24" viewBox="0 0 24 24" fill="none" xmlns="http://www.w3.org/2000/svg"><path d="M8.080 1.282 C 4.008 1.495,1.895 3.296,1.383 6.991 C 1.270 7.803,1.242 8.816,1.242 12.000 C 1.242 15.184,1.270 16.197,1.383 17.009 C 1.767 19.784,3.048 21.470,5.356 22.242 C 6.191 22.521,6.998 22.657,8.193 22.720 C 9.162 22.771,14.838 22.771,15.807 22.720 C 17.002 22.657,17.809 22.521,18.644 22.242 C 20.962 21.467,22.219 19.805,22.621 16.986 C 22.710 16.363,22.768 14.972,22.753 13.820 L 22.740 12.780 22.634 12.600 C 22.347 12.112,21.640 12.116,21.360 12.606 L 21.260 12.780 21.235 14.580 C 21.207 16.526,21.184 16.785,20.960 17.688 C 20.504 19.519,19.520 20.504,17.688 20.960 C 16.622 21.226,16.745 21.220,12.000 21.220 C 8.064 21.220,7.661 21.214,7.240 21.148 C 4.450 20.713,3.283 19.551,2.854 16.780 C 2.785 16.335,2.780 15.989,2.780 12.000 C 2.780 8.011,2.785 7.665,2.854 7.220 C 3.208 4.932,4.089 3.744,5.861 3.166 L 6.220 3.049 6.240 4.115 C 6.260 5.159,6.262 5.183,6.360 5.354 C 6.641 5.846,7.359 5.846,7.640 5.354 C 7.739 5.181,7.740 5.174,7.753 3.995 L 7.765 2.810 7.948 2.785 C 8.189 2.752,15.814 2.752,16.054 2.785 L 16.240 2.811 16.240 7.817 C 16.240 13.296,16.248 13.113,16.008 13.459 C 15.787 13.778,15.475 13.890,15.047 13.804 C 14.738 13.743,14.397 13.572,13.492 13.030 C 12.655 12.528,12.487 12.464,12.000 12.464 C 11.513 12.464,11.345 12.528,10.508 13.030 C 9.261 13.778,8.938 13.901,8.488 13.801 C 8.306 13.761,8.227 13.717,8.095 13.581 C 7.782 13.256,7.786 13.289,7.762 10.920 C 7.741 8.890,7.737 8.815,7.656 8.660 C 7.610 8.572,7.499 8.447,7.408 8.383 C 7.270 8.286,7.203 8.267,7.007 8.267 C 6.721 8.267,6.526 8.372,6.367 8.612 L 6.260 8.774 6.247 10.497 C 6.230 12.911,6.276 13.359,6.612 14.038 C 6.919 14.655,7.485 15.108,8.145 15.264 C 8.496 15.346,9.102 15.319,9.513 15.202 C 9.920 15.085,10.262 14.916,11.120 14.403 C 11.686 14.065,11.893 13.961,12.000 13.961 C 12.108 13.961,12.335 14.077,12.980 14.462 C 14.188 15.181,14.681 15.349,15.461 15.310 C 16.576 15.253,17.369 14.521,17.664 13.276 C 17.729 13.005,17.737 12.561,17.757 8.015 L 17.780 3.049 18.139 3.166 C 20.201 3.838,21.113 5.392,21.235 8.442 C 21.264 9.156,21.275 9.243,21.356 9.374 C 21.708 9.943,22.577 9.809,22.716 9.163 C 22.768 8.919,22.714 7.680,22.622 7.027 C 22.359 5.157,21.686 3.740,20.641 2.857 C 19.477 1.874,18.011 1.396,15.806 1.280 C 14.952 1.235,8.952 1.237,8.080 1.282 " stroke="none" fill-rule="evenodd" fill="black"></path></svg>