<svg width="24" height="24" viewBox="0 0 24 24" fill="none" xmlns="http://www.w3.org/2000/svg"><path d="M3.380 1.976 C 2.454 2.190,1.666 2.899,1.396 3.760 C 1.352 3.903,1.298 4.173,1.276 4.360 C 1.253 4.569,1.243 7.104,1.250 10.940 C 1.262 16.828,1.267 17.194,1.335 17.420 C 1.595 18.282,2.270 19.021,3.070 19.320 C 3.189 19.365,3.625 19.454,4.038 19.519 C 5.278 19.712,6.373 19.992,7.868 20.497 C 8.971 20.870,9.668 21.152,10.604 21.606 C 11.518 22.048,11.746 22.113,12.213 22.063 C 12.439 22.038,12.589 21.982,13.093 21.732 C 15.249 20.664,17.887 19.816,20.023 19.504 C 20.398 19.449,20.805 19.367,20.926 19.322 C 21.740 19.017,22.427 18.256,22.666 17.397 C 22.726 17.179,22.737 16.965,22.738 15.980 C 22.740 14.711,22.739 14.705,22.494 14.473 C 22.353 14.339,22.201 14.280,22.000 14.280 C 21.799 14.280,21.647 14.339,21.506 14.473 C 21.267 14.700,21.262 14.722,21.240 15.940 C 21.216 17.218,21.216 17.221,20.879 17.577 C 20.609 17.863,20.430 17.940,19.857 18.019 C 17.931 18.285,15.194 19.108,13.203 20.021 C 12.988 20.119,12.800 20.200,12.786 20.200 C 12.772 20.200,12.760 16.980,12.760 13.044 L 12.760 5.887 13.235 5.603 C 14.918 4.597,17.775 3.636,19.647 3.446 C 20.261 3.383,20.607 3.485,20.915 3.819 C 21.242 4.174,21.218 3.884,21.240 7.740 L 21.260 11.180 21.366 11.360 C 21.652 11.846,22.348 11.846,22.634 11.360 L 22.740 11.180 22.752 7.980 C 22.765 4.577,22.749 4.191,22.583 3.714 C 22.325 2.972,21.639 2.309,20.865 2.053 C 20.207 1.836,19.049 1.933,17.460 2.340 C 15.545 2.831,13.713 3.563,12.383 4.368 C 12.209 4.474,12.039 4.560,12.005 4.560 C 11.971 4.560,11.726 4.435,11.460 4.281 C 10.093 3.494,8.331 2.798,6.553 2.343 C 5.196 1.997,3.927 1.850,3.380 1.976 M4.380 3.442 C 6.348 3.673,9.059 4.595,10.790 5.621 L 11.240 5.887 11.240 13.061 L 11.240 20.235 10.750 20.012 C 8.837 19.143,6.239 18.350,4.340 18.056 C 3.954 17.996,3.587 17.916,3.490 17.871 C 3.258 17.762,2.905 17.373,2.825 17.136 C 2.766 16.964,2.760 16.347,2.760 10.673 C 2.760 4.655,2.763 4.393,2.834 4.205 C 2.979 3.824,3.306 3.538,3.704 3.445 C 3.918 3.394,3.969 3.394,4.380 3.442 M5.163 7.830 C 4.666 8.084,4.625 8.784,5.088 9.106 L 5.253 9.220 6.536 9.233 C 7.367 9.241,7.871 9.230,7.965 9.203 C 8.272 9.112,8.480 8.830,8.480 8.504 C 8.480 8.280,8.425 8.132,8.287 7.985 C 8.083 7.766,8.036 7.760,6.611 7.760 C 5.442 7.760,5.285 7.768,5.163 7.830 M5.163 10.830 C 4.666 11.084,4.625 11.784,5.088 12.106 L 5.253 12.220 7.000 12.220 L 8.747 12.220 8.912 12.106 C 9.109 11.969,9.240 11.721,9.240 11.486 C 9.240 11.201,9.039 10.898,8.787 10.803 C 8.714 10.775,8.086 10.760,6.987 10.760 C 5.460 10.760,5.287 10.767,5.163 10.830 " stroke="none" fill-rule="evenodd" fill="black"></path></svg>