<svg width="24" height="24" viewBox="0 0 24 24" fill="none" xmlns="http://www.w3.org/2000/svg"><path d="M8.080 1.282 C 4.042 1.493,1.931 3.265,1.398 6.891 C 1.310 7.494,1.225 8.895,1.264 9.113 C 1.278 9.194,1.325 9.318,1.368 9.389 C 1.658 9.870,2.422 9.836,2.661 9.332 C 2.718 9.212,2.740 9.022,2.765 8.423 C 2.900 5.187,3.905 3.654,6.288 3.044 C 7.337 2.776,7.247 2.780,12.000 2.780 C 15.936 2.780,16.339 2.786,16.760 2.852 C 19.558 3.288,20.712 4.442,21.148 7.240 C 21.214 7.661,21.220 8.064,21.220 12.000 C 21.220 15.936,21.214 16.339,21.148 16.760 C 20.712 19.558,19.558 20.712,16.760 21.148 C 16.339 21.214,15.936 21.220,12.000 21.220 C 8.064 21.220,7.661 21.214,7.240 21.148 C 4.756 20.761,3.576 19.795,3.044 17.712 C 2.820 16.836,2.790 16.494,2.764 14.580 C 2.737 12.657,2.744 12.710,2.494 12.473 C 2.217 12.211,1.783 12.211,1.506 12.473 C 1.266 12.700,1.261 12.728,1.247 13.860 C 1.223 15.666,1.335 17.079,1.575 18.027 C 2.267 20.757,3.971 22.193,7.027 22.622 C 7.786 22.728,8.902 22.759,12.000 22.759 C 15.098 22.759,16.214 22.728,16.973 22.622 C 19.443 22.275,20.996 21.288,21.897 19.490 C 22.379 18.530,22.638 17.369,22.720 15.807 C 22.771 14.838,22.771 9.162,22.720 8.193 C 22.657 6.998,22.521 6.191,22.242 5.356 C 21.632 3.531,20.469 2.367,18.650 1.760 C 17.788 1.473,17.023 1.344,15.806 1.280 C 14.952 1.235,8.952 1.237,8.080 1.282 M6.320 5.621 C 5.655 5.808,5.064 6.439,4.924 7.112 C 4.894 7.258,4.880 8.590,4.880 11.414 C 4.880 15.902,4.871 15.728,5.122 16.197 C 5.364 16.650,5.760 17.002,6.200 17.156 C 6.321 17.198,6.652 17.271,6.935 17.318 C 8.207 17.529,9.747 18.025,10.989 18.625 C 11.883 19.056,12.043 19.057,12.931 18.636 C 14.267 18.003,15.610 17.573,17.039 17.320 C 17.775 17.190,17.908 17.145,18.248 16.914 C 18.631 16.655,18.936 16.210,19.060 15.732 C 19.151 15.384,19.150 7.411,19.059 7.062 C 18.963 6.696,18.775 6.383,18.487 6.114 C 17.815 5.485,17.055 5.417,15.398 5.840 C 14.246 6.133,13.116 6.579,12.190 7.105 L 12.000 7.213 11.810 7.104 C 11.705 7.044,11.368 6.871,11.060 6.721 C 9.415 5.916,7.145 5.390,6.320 5.621 M7.730 7.164 C 8.767 7.371,10.051 7.833,10.870 8.292 L 11.240 8.500 11.240 12.794 C 11.240 16.215,11.230 17.084,11.190 17.066 C 10.117 16.578,8.297 16.023,7.223 15.857 C 6.697 15.775,6.555 15.708,6.434 15.481 C 6.363 15.348,6.360 15.159,6.360 11.401 C 6.360 6.996,6.343 7.261,6.640 7.108 C 6.805 7.023,7.098 7.038,7.730 7.164 M17.309 7.102 C 17.392 7.136,17.496 7.212,17.540 7.272 C 17.619 7.378,17.620 7.451,17.630 11.360 C 17.640 15.089,17.636 15.349,17.570 15.477 C 17.455 15.703,17.346 15.752,16.720 15.861 C 15.654 16.046,14.223 16.459,13.252 16.861 C 13.014 16.959,12.807 17.040,12.790 17.040 C 12.773 17.040,12.760 15.118,12.760 12.770 L 12.761 8.500 13.050 8.335 C 13.961 7.817,15.548 7.270,16.620 7.104 C 17.096 7.030,17.133 7.030,17.309 7.102 " stroke="none" fill-rule="evenodd" fill="black"></path></svg>