<svg width="24" height="24" viewBox="0 0 24 24" fill="none" xmlns="http://www.w3.org/2000/svg"><path d="M9.660 1.265 C 8.151 1.370,7.166 1.968,6.636 3.099 C 6.484 3.424,6.321 3.997,6.320 4.208 C 6.320 4.302,6.297 4.323,6.150 4.361 C 5.557 4.513,5.342 4.582,4.964 4.737 C 3.622 5.289,2.719 6.121,2.106 7.369 C 1.779 8.035,1.578 8.686,1.421 9.591 C 1.345 10.031,1.376 10.205,1.571 10.426 C 1.875 10.772,2.370 10.767,2.678 10.416 C 2.807 10.269,2.828 10.202,2.953 9.537 C 3.266 7.882,4.037 6.800,5.329 6.203 C 5.597 6.079,6.149 5.880,6.224 5.880 C 6.233 5.880,6.240 7.261,6.240 8.950 C 6.240 10.800,6.257 12.203,6.283 12.480 C 6.393 13.675,6.936 14.495,7.859 14.859 C 8.074 14.944,8.229 14.974,8.539 14.990 C 9.324 15.030,9.837 14.852,11.037 14.124 C 11.675 13.738,11.891 13.626,12.000 13.626 C 12.109 13.626,12.327 13.739,12.976 14.132 C 14.169 14.855,14.675 15.030,15.461 14.990 C 16.723 14.926,17.579 13.973,17.717 12.480 C 17.743 12.203,17.760 10.800,17.760 8.950 C 17.760 7.261,17.769 5.880,17.780 5.880 C 17.827 5.880,18.480 6.121,18.697 6.219 C 19.259 6.472,19.871 6.970,20.220 7.460 C 20.672 8.095,20.979 8.980,21.149 10.135 C 21.212 10.564,21.220 10.943,21.220 13.420 C 21.220 15.913,21.212 16.273,21.148 16.700 C 20.723 19.531,19.535 20.729,16.740 21.148 C 16.301 21.214,15.895 21.220,12.000 21.220 C 8.105 21.220,7.699 21.214,7.260 21.148 C 5.778 20.926,4.797 20.493,4.101 19.753 C 3.265 18.865,2.848 17.536,2.765 15.497 C 2.736 14.798,2.725 14.721,2.637 14.563 C 2.362 14.074,1.641 14.075,1.360 14.566 C 1.264 14.733,1.260 14.764,1.270 15.360 C 1.334 19.367,2.841 21.639,5.950 22.416 C 6.414 22.532,6.925 22.617,7.580 22.688 C 8.265 22.762,15.683 22.762,16.400 22.688 C 18.497 22.472,19.804 21.949,20.865 20.900 C 21.709 20.067,22.232 19.012,22.517 17.569 C 22.682 16.737,22.725 16.101,22.748 14.140 C 22.781 11.282,22.695 9.951,22.402 8.793 C 22.272 8.278,22.054 7.667,21.872 7.305 C 21.383 6.332,20.556 5.501,19.564 4.986 C 19.035 4.711,18.610 4.556,17.850 4.361 C 17.701 4.322,17.680 4.303,17.680 4.206 C 17.680 4.015,17.517 3.433,17.380 3.133 C 16.924 2.140,16.176 1.584,14.960 1.334 C 14.713 1.283,14.236 1.270,12.260 1.261 C 10.940 1.256,9.770 1.257,9.660 1.265 M14.773 2.819 C 15.572 2.988,16.014 3.442,16.178 4.260 C 16.235 4.544,16.241 5.041,16.231 8.640 C 16.220 12.595,16.218 12.705,16.140 12.894 C 15.877 13.534,15.321 13.679,14.547 13.309 C 14.389 13.234,13.931 12.973,13.530 12.729 C 12.647 12.194,12.508 12.140,12.000 12.140 C 11.492 12.140,11.353 12.194,10.470 12.729 C 10.069 12.973,9.611 13.234,9.453 13.309 C 8.679 13.679,8.123 13.534,7.860 12.894 C 7.782 12.705,7.780 12.595,7.769 8.640 C 7.759 5.041,7.765 4.544,7.822 4.260 C 7.984 3.451,8.428 2.991,9.208 2.821 C 9.588 2.739,14.385 2.737,14.773 2.819 " stroke="none" fill-rule="evenodd" fill="black"></path></svg>