<svg width="24" height="24" viewBox="0 0 24 24" fill="none" xmlns="http://www.w3.org/2000/svg"><path d="M7.496 1.283 C 5.732 1.379,4.662 1.758,3.913 2.552 C 3.344 3.156,3.035 3.903,2.853 5.120 C 2.791 5.538,2.783 6.189,2.771 12.215 C 2.756 19.384,2.751 19.177,2.964 19.810 C 3.466 21.297,4.635 22.330,6.200 22.667 C 6.520 22.736,6.859 22.740,12.000 22.740 C 17.141 22.740,17.480 22.736,17.800 22.667 C 19.364 22.330,20.534 21.297,21.035 19.811 C 21.238 19.210,21.240 19.159,21.240 14.857 C 21.240 12.120,21.226 10.809,21.197 10.733 C 21.095 10.460,20.807 10.269,20.500 10.269 C 20.193 10.269,19.905 10.460,19.803 10.733 C 19.775 10.806,19.760 11.441,19.760 12.543 L 19.760 14.240 13.084 14.240 C 8.665 14.240,6.268 14.254,5.994 14.282 C 5.490 14.334,4.953 14.504,4.551 14.740 L 4.260 14.911 4.248 10.765 C 4.236 6.589,4.255 5.750,4.380 5.039 C 4.631 3.610,5.240 3.059,6.820 2.832 C 7.342 2.757,16.658 2.757,17.180 2.832 C 19.009 3.095,19.566 3.777,19.720 5.940 C 19.741 6.248,19.759 6.647,19.760 6.827 C 19.760 7.198,19.799 7.331,19.953 7.494 C 20.111 7.661,20.273 7.731,20.500 7.731 C 20.740 7.731,20.904 7.655,21.072 7.463 C 21.238 7.273,21.256 7.143,21.227 6.322 C 21.162 4.450,20.833 3.349,20.109 2.575 C 19.332 1.744,18.310 1.386,16.412 1.281 C 15.590 1.235,8.338 1.237,7.496 1.283 M7.815 6.278 C 7.331 6.393,7.098 7.004,7.383 7.408 C 7.447 7.499,7.572 7.610,7.660 7.656 C 7.819 7.739,7.851 7.740,11.879 7.751 C 14.744 7.759,16.001 7.749,16.153 7.717 C 16.902 7.562,16.930 6.473,16.189 6.286 C 15.979 6.234,8.034 6.226,7.815 6.278 M7.720 9.805 C 7.458 9.909,7.269 10.200,7.269 10.500 C 7.269 10.807,7.460 11.095,7.733 11.197 C 7.808 11.226,8.722 11.240,10.500 11.240 C 12.278 11.240,13.192 11.226,13.267 11.197 C 13.540 11.095,13.731 10.807,13.731 10.500 C 13.731 10.193,13.540 9.905,13.267 9.803 C 13.118 9.746,7.862 9.748,7.720 9.805 M19.750 17.390 L 19.737 19.020 19.620 19.359 C 19.321 20.229,18.562 20.940,17.696 21.161 C 17.396 21.238,17.231 21.240,12.000 21.240 C 6.769 21.240,6.604 21.238,6.304 21.161 C 5.436 20.939,4.671 20.222,4.383 19.359 C 4.289 19.075,4.267 18.932,4.250 18.480 C 4.211 17.418,4.360 16.890,4.835 16.408 C 5.108 16.131,5.354 15.976,5.720 15.851 L 5.980 15.762 12.871 15.761 L 19.763 15.760 19.750 17.390 " stroke="none" fill-rule="evenodd" fill="black"></path></svg>