<svg width="24" height="24" viewBox="0 0 24 24" fill="none" xmlns="http://www.w3.org/2000/svg"><path d="M11.434 1.283 C 10.970 1.322,10.456 1.439,10.064 1.596 C 9.747 1.723,4.350 4.699,3.900 4.995 C 3.486 5.267,2.942 5.830,2.608 6.332 C 2.109 7.081,1.811 7.808,1.700 8.548 C 1.593 9.256,1.620 9.423,1.882 9.685 C 2.034 9.838,2.106 9.879,2.259 9.902 C 2.751 9.976,3.080 9.682,3.137 9.120 C 3.176 8.726,3.246 8.355,3.279 8.368 C 3.295 8.375,5.093 9.413,7.274 10.676 L 11.240 12.973 11.240 17.082 L 11.240 21.191 11.076 21.155 C 10.985 21.134,10.810 21.082,10.687 21.039 C 10.480 20.966,5.294 18.120,4.808 17.812 C 4.367 17.533,3.831 16.899,3.531 16.300 C 3.330 15.900,3.203 15.471,3.156 15.034 C 3.129 14.792,3.080 14.559,3.037 14.474 C 2.893 14.192,2.595 14.048,2.259 14.098 C 2.106 14.121,2.034 14.162,1.882 14.315 C 1.620 14.577,1.593 14.744,1.700 15.452 C 1.811 16.192,2.109 16.919,2.608 17.668 C 2.942 18.170,3.486 18.733,3.900 19.005 C 4.350 19.301,9.747 22.277,10.064 22.404 C 11.215 22.865,12.899 22.847,14.042 22.362 C 14.206 22.293,14.404 22.192,14.483 22.137 C 14.930 21.829,14.900 21.116,14.428 20.873 C 14.182 20.746,13.960 20.760,13.580 20.926 C 13.404 21.004,13.170 21.089,13.060 21.117 C 12.950 21.145,12.838 21.174,12.810 21.183 C 12.770 21.194,12.760 20.356,12.760 17.085 L 12.760 12.972 16.745 10.664 C 18.936 9.395,20.734 8.361,20.740 8.368 C 20.746 8.375,20.773 8.470,20.801 8.580 C 20.836 8.723,20.855 9.369,20.866 10.840 C 20.874 11.973,20.890 12.959,20.902 13.031 C 20.929 13.192,21.135 13.434,21.308 13.506 C 21.601 13.629,22.011 13.532,22.196 13.296 C 22.361 13.086,22.367 12.991,22.351 10.720 L 22.336 8.540 22.232 8.157 C 21.905 6.950,21.177 5.810,20.311 5.147 C 20.003 4.912,14.507 1.839,14.022 1.631 C 13.606 1.452,13.057 1.327,12.493 1.281 C 12.215 1.258,11.950 1.243,11.904 1.246 C 11.858 1.249,11.646 1.266,11.434 1.283 M13.000 2.861 C 13.143 2.899,13.368 2.979,13.500 3.039 C 13.940 3.239,19.177 6.164,19.393 6.330 C 19.664 6.539,20.064 6.993,20.016 7.036 C 19.996 7.054,18.184 8.108,15.990 9.378 L 11.999 11.686 7.991 9.367 C 5.786 8.092,3.977 7.030,3.970 7.009 C 3.949 6.947,4.565 6.341,4.802 6.191 C 5.309 5.870,10.483 3.033,10.701 2.956 C 11.152 2.797,11.424 2.762,12.100 2.777 C 12.544 2.787,12.820 2.812,13.000 2.861 M18.780 14.284 C 17.888 14.378,17.061 14.775,16.418 15.418 C 15.077 16.759,14.884 18.805,15.946 20.430 C 16.139 20.726,16.674 21.261,16.970 21.454 C 18.278 22.309,19.935 22.361,21.212 21.587 L 21.405 21.470 22.012 22.070 C 22.562 22.612,22.638 22.673,22.810 22.710 C 23.388 22.833,23.833 22.388,23.710 21.810 C 23.673 21.638,23.612 21.562,23.070 21.012 L 22.470 20.405 22.587 20.212 C 23.132 19.313,23.279 18.137,22.978 17.097 C 22.788 16.442,22.471 15.907,21.982 15.418 C 21.317 14.754,20.521 14.381,19.557 14.282 C 19.334 14.259,19.140 14.242,19.126 14.245 C 19.112 14.248,18.956 14.266,18.780 14.284 M19.796 15.821 C 20.205 15.918,20.581 16.137,20.922 16.478 C 21.418 16.975,21.639 17.504,21.639 18.200 C 21.639 18.896,21.418 19.425,20.922 19.922 C 20.425 20.418,19.896 20.639,19.200 20.639 C 18.504 20.639,17.975 20.418,17.478 19.922 C 16.982 19.425,16.761 18.896,16.761 18.200 C 16.761 17.504,16.982 16.975,17.478 16.478 C 17.812 16.144,18.195 15.918,18.586 15.823 C 18.898 15.748,19.480 15.747,19.796 15.821 " stroke="none" fill-rule="evenodd" fill="black"></path></svg>