<svg width="24" height="24" viewBox="0 0 24 24" fill="none" xmlns="http://www.w3.org/2000/svg"><path d="M11.434 1.283 C 10.950 1.323,10.438 1.444,10.022 1.615 C 9.548 1.811,4.057 4.873,3.704 5.138 C 2.939 5.714,2.229 6.747,1.881 7.788 C 1.649 8.483,1.640 8.637,1.640 11.951 C 1.640 15.164,1.637 15.118,1.832 15.333 C 2.011 15.531,2.402 15.618,2.667 15.517 C 2.791 15.471,2.981 15.305,3.053 15.180 C 3.087 15.122,3.106 14.240,3.122 11.960 C 3.139 9.534,3.156 8.767,3.198 8.589 C 3.227 8.461,3.264 8.362,3.280 8.369 C 3.295 8.375,5.093 9.413,7.274 10.676 L 11.240 12.973 11.240 17.083 L 11.240 21.193 11.150 21.172 C 10.694 21.071,10.348 20.896,7.844 19.509 C 4.870 17.860,4.873 17.862,4.685 17.826 C 4.240 17.741,3.784 18.191,3.856 18.644 C 3.892 18.868,3.975 19.017,4.130 19.134 C 4.353 19.303,9.760 22.282,10.064 22.404 C 11.228 22.870,12.938 22.846,14.067 22.348 C 14.239 22.272,14.686 22.038,15.060 21.829 L 15.740 21.448 15.860 21.559 C 16.208 21.881,16.834 22.253,17.361 22.451 C 18.322 22.813,19.573 22.827,20.560 22.487 C 21.696 22.096,22.769 21.124,23.282 20.023 C 23.603 19.334,23.728 18.762,23.727 17.982 C 23.726 16.809,23.303 15.680,22.559 14.866 L 22.364 14.653 22.351 11.597 L 22.337 8.540 22.233 8.157 C 21.899 6.935,21.166 5.793,20.294 5.137 C 19.974 4.896,14.498 1.834,14.022 1.631 C 13.606 1.452,13.057 1.327,12.493 1.281 C 12.215 1.258,11.950 1.243,11.904 1.246 C 11.858 1.249,11.646 1.266,11.434 1.283 M13.000 2.861 C 13.143 2.899,13.368 2.979,13.500 3.039 C 13.940 3.239,19.177 6.164,19.393 6.330 C 19.664 6.539,20.064 6.993,20.016 7.036 C 19.996 7.054,18.184 8.108,15.990 9.378 L 11.999 11.686 7.991 9.367 C 5.786 8.092,3.977 7.030,3.970 7.009 C 3.949 6.947,4.565 6.341,4.802 6.191 C 5.309 5.870,10.483 3.033,10.701 2.956 C 11.152 2.797,11.424 2.762,12.100 2.777 C 12.544 2.787,12.820 2.812,13.000 2.861 M20.802 8.590 C 20.865 8.862,20.910 13.600,20.850 13.600 C 20.830 13.600,20.689 13.557,20.537 13.503 C 19.394 13.105,17.973 13.188,16.931 13.715 C 14.609 14.886,13.634 17.563,14.663 19.938 C 14.768 20.179,14.788 20.263,14.750 20.288 C 14.723 20.306,14.421 20.472,14.080 20.657 C 13.480 20.982,13.249 21.082,12.918 21.156 L 12.760 21.191 12.760 17.082 L 12.760 12.972 16.730 10.669 C 18.913 9.402,20.711 8.364,20.724 8.363 C 20.738 8.361,20.773 8.463,20.802 8.590 M20.011 14.921 C 20.986 15.245,21.788 16.049,22.105 17.020 C 22.244 17.448,22.280 18.158,22.185 18.625 C 22.052 19.284,21.774 19.794,21.284 20.282 C 20.771 20.792,20.224 21.086,19.574 21.201 C 19.135 21.278,18.417 21.234,18.020 21.105 C 16.979 20.766,16.144 19.878,15.852 18.800 C 15.753 18.436,15.755 17.561,15.854 17.200 C 16.112 16.269,16.715 15.526,17.557 15.101 C 18.081 14.837,18.461 14.758,19.120 14.776 C 19.555 14.789,19.671 14.808,20.011 14.921 M18.961 16.061 C 18.586 16.230,18.520 16.397,18.520 17.172 C 18.520 17.709,18.511 17.795,18.450 17.848 C 18.412 17.881,18.178 18.028,17.932 18.175 C 17.457 18.459,17.355 18.561,17.284 18.825 C 17.143 19.348,17.643 19.859,18.160 19.720 C 18.379 19.661,19.690 18.868,19.816 18.718 C 19.983 18.519,20.006 18.344,19.993 17.386 C 19.980 16.534,19.976 16.495,19.887 16.370 C 19.659 16.050,19.272 15.921,18.961 16.061 " stroke="none" fill-rule="evenodd" fill="black"></path></svg>