<svg width="24" height="24" viewBox="0 0 24 24" fill="none" xmlns="http://www.w3.org/2000/svg"><path d="M11.434 1.283 C 10.950 1.323,10.438 1.444,10.022 1.615 C 9.548 1.811,4.057 4.873,3.704 5.138 C 2.939 5.714,2.229 6.747,1.881 7.788 C 1.649 8.483,1.640 8.637,1.640 11.951 C 1.640 15.164,1.637 15.118,1.832 15.333 C 2.011 15.531,2.402 15.618,2.667 15.517 C 2.791 15.471,2.981 15.305,3.053 15.180 C 3.087 15.122,3.106 14.240,3.122 11.960 C 3.139 9.534,3.156 8.767,3.198 8.589 C 3.227 8.461,3.264 8.362,3.280 8.369 C 3.295 8.375,5.093 9.413,7.274 10.676 L 11.240 12.973 11.240 17.083 L 11.240 21.193 11.150 21.172 C 10.694 21.071,10.348 20.896,7.844 19.509 C 4.870 17.860,4.873 17.862,4.685 17.826 C 4.240 17.741,3.784 18.191,3.856 18.644 C 3.892 18.868,3.975 19.017,4.130 19.134 C 4.353 19.303,9.760 22.282,10.064 22.404 C 11.180 22.851,12.823 22.850,13.943 22.402 C 14.105 22.337,14.564 22.103,14.963 21.882 C 15.362 21.661,15.704 21.480,15.725 21.480 C 15.745 21.480,15.864 21.564,15.991 21.667 C 16.960 22.457,18.168 22.825,19.430 22.716 C 20.377 22.634,21.078 22.360,21.872 21.761 C 23.678 20.400,24.255 17.905,23.235 15.868 C 23.062 15.523,22.789 15.118,22.559 14.866 L 22.364 14.653 22.351 11.597 L 22.337 8.540 22.233 8.157 C 21.899 6.935,21.166 5.793,20.294 5.137 C 19.974 4.896,14.498 1.834,14.022 1.631 C 13.606 1.452,13.057 1.327,12.493 1.281 C 12.215 1.258,11.950 1.243,11.904 1.246 C 11.858 1.249,11.646 1.266,11.434 1.283 M13.000 2.861 C 13.143 2.899,13.368 2.979,13.500 3.039 C 13.940 3.239,19.177 6.164,19.393 6.330 C 19.664 6.539,20.064 6.993,20.016 7.036 C 19.996 7.054,18.184 8.108,15.990 9.378 L 11.999 11.686 7.991 9.367 C 5.786 8.092,3.977 7.030,3.970 7.009 C 3.949 6.947,4.565 6.341,4.802 6.191 C 5.309 5.870,10.483 3.033,10.701 2.956 C 11.152 2.797,11.424 2.762,12.100 2.777 C 12.544 2.787,12.820 2.812,13.000 2.861 M20.802 8.590 C 20.865 8.862,20.910 13.600,20.850 13.600 C 20.830 13.600,20.689 13.557,20.537 13.503 C 19.394 13.105,17.973 13.188,16.931 13.715 C 14.609 14.886,13.634 17.563,14.663 19.938 C 14.768 20.179,14.788 20.263,14.750 20.288 C 14.723 20.306,14.421 20.472,14.080 20.657 C 13.480 20.982,13.249 21.082,12.918 21.156 L 12.760 21.191 12.760 17.082 L 12.760 12.972 16.730 10.669 C 18.913 9.402,20.711 8.364,20.724 8.363 C 20.738 8.361,20.773 8.463,20.802 8.590 M20.011 14.921 C 20.986 15.245,21.787 16.048,22.105 17.020 C 22.189 17.276,22.214 17.443,22.229 17.860 C 22.253 18.514,22.174 18.875,21.872 19.480 C 21.696 19.832,21.607 19.956,21.321 20.245 C 20.629 20.946,19.937 21.240,18.984 21.240 C 17.138 21.240,15.650 19.641,15.773 17.788 C 15.850 16.627,16.512 15.629,17.557 15.101 C 18.081 14.837,18.461 14.758,19.120 14.776 C 19.555 14.789,19.671 14.808,20.011 14.921 M17.620 16.266 C 17.429 16.367,17.327 16.479,17.256 16.666 C 17.118 17.027,17.271 17.377,17.743 17.781 L 17.967 17.972 17.647 18.296 C 17.279 18.670,17.200 18.805,17.200 19.059 C 17.200 19.499,17.502 19.800,17.945 19.800 C 18.194 19.800,18.332 19.719,18.701 19.356 L 19.022 19.040 19.321 19.343 C 19.679 19.706,19.793 19.771,20.066 19.771 C 20.486 19.771,20.800 19.459,20.800 19.043 C 20.800 18.771,20.728 18.641,20.375 18.278 L 20.082 17.976 20.365 17.698 C 20.780 17.291,20.878 17.025,20.738 16.689 C 20.611 16.385,20.378 16.229,20.054 16.229 C 19.793 16.229,19.588 16.344,19.263 16.675 L 19.027 16.916 18.703 16.612 C 18.526 16.444,18.322 16.283,18.251 16.254 C 18.080 16.182,17.768 16.188,17.620 16.266 " stroke="none" fill-rule="evenodd" fill="black"></path></svg>