<svg width="24" height="24" viewBox="0 0 24 24" fill="none" xmlns="http://www.w3.org/2000/svg"><path d="M11.374 1.283 C 10.906 1.331,10.319 1.480,9.927 1.650 C 9.431 1.866,4.025 4.897,3.700 5.141 C 2.723 5.877,1.888 7.298,1.700 8.548 C 1.593 9.256,1.620 9.423,1.882 9.685 C 2.034 9.838,2.106 9.879,2.259 9.902 C 2.751 9.976,3.080 9.682,3.137 9.120 C 3.176 8.726,3.246 8.355,3.279 8.368 C 3.295 8.375,5.093 9.413,7.274 10.676 L 11.240 12.973 11.240 17.086 C 11.240 19.349,11.235 21.200,11.229 21.200 C 11.134 21.200,10.567 21.004,10.359 20.899 C 10.037 20.738,5.212 18.059,4.866 17.850 C 4.400 17.570,3.843 16.922,3.531 16.300 C 3.200 15.640,3.121 15.179,3.120 13.909 C 3.120 13.003,3.102 12.906,2.895 12.713 C 2.674 12.506,2.319 12.457,2.048 12.596 C 1.865 12.689,1.781 12.780,1.702 12.970 C 1.616 13.175,1.615 14.889,1.700 15.452 C 1.888 16.702,2.723 18.123,3.700 18.859 C 4.025 19.103,9.431 22.134,9.927 22.350 C 11.215 22.910,13.070 22.869,14.290 22.255 C 14.786 22.005,19.892 19.154,20.140 18.988 C 20.272 18.900,20.552 18.655,20.762 18.444 C 21.541 17.660,22.120 16.568,22.298 15.545 C 22.390 15.016,22.390 8.984,22.298 8.455 C 22.120 7.432,21.541 6.340,20.762 5.556 C 20.552 5.345,20.272 5.100,20.140 5.012 C 19.892 4.846,14.786 1.995,14.290 1.745 C 13.519 1.357,12.394 1.179,11.374 1.283 M12.813 2.817 C 12.979 2.849,13.237 2.924,13.387 2.984 C 13.666 3.096,18.777 5.916,19.231 6.209 C 19.459 6.356,20.040 6.924,20.040 6.999 C 20.040 7.016,18.231 8.078,16.020 9.358 L 11.999 11.686 7.991 9.367 C 5.786 8.091,3.977 7.030,3.969 7.008 C 3.947 6.941,4.607 6.308,4.861 6.155 C 5.200 5.949,10.018 3.272,10.350 3.105 C 10.639 2.960,10.960 2.854,11.273 2.801 C 11.595 2.747,12.493 2.756,12.813 2.817 M20.807 8.590 C 20.849 8.770,20.860 9.511,20.860 12.020 C 20.860 15.653,20.877 15.444,20.523 16.185 C 20.181 16.900,19.716 17.478,19.229 17.793 C 18.874 18.022,13.700 20.888,13.460 20.989 C 13.350 21.035,13.179 21.093,13.080 21.119 C 12.981 21.144,12.868 21.174,12.830 21.185 C 12.764 21.204,12.760 20.990,12.760 17.089 L 12.760 12.972 16.730 10.669 C 18.913 9.402,20.712 8.364,20.727 8.363 C 20.742 8.361,20.778 8.463,20.807 8.590 " stroke="none" fill-rule="evenodd" fill="black"></path></svg>