<svg width="24" height="24" viewBox="0 0 24 24" fill="none" xmlns="http://www.w3.org/2000/svg"><path d="M11.434 1.283 C 10.950 1.323,10.438 1.444,10.022 1.615 C 9.548 1.811,4.057 4.873,3.704 5.138 C 2.939 5.714,2.229 6.747,1.881 7.788 C 1.649 8.483,1.640 8.637,1.640 11.951 C 1.640 15.164,1.637 15.118,1.832 15.333 C 2.011 15.531,2.402 15.618,2.667 15.517 C 2.791 15.471,2.981 15.305,3.053 15.180 C 3.087 15.122,3.106 14.240,3.122 11.960 C 3.139 9.534,3.156 8.767,3.198 8.589 C 3.227 8.461,3.264 8.362,3.280 8.369 C 3.295 8.375,5.093 9.413,7.274 10.676 L 11.240 12.973 11.240 17.083 L 11.240 21.193 11.150 21.172 C 10.694 21.071,10.348 20.896,7.844 19.509 C 4.870 17.860,4.873 17.862,4.685 17.826 C 4.240 17.741,3.784 18.191,3.856 18.644 C 3.892 18.868,3.975 19.017,4.130 19.134 C 4.353 19.303,9.760 22.282,10.064 22.404 C 11.180 22.851,12.823 22.850,13.943 22.402 C 14.105 22.337,14.564 22.103,14.963 21.882 C 15.362 21.661,15.710 21.480,15.738 21.480 C 15.765 21.480,15.822 21.518,15.864 21.565 C 15.963 21.675,16.354 21.953,16.666 22.136 C 17.906 22.860,19.636 22.936,20.944 22.323 C 22.248 21.712,23.230 20.546,23.591 19.180 C 23.984 17.697,23.582 16.014,22.565 14.876 L 22.364 14.652 22.351 11.596 L 22.337 8.540 22.233 8.157 C 21.899 6.935,21.166 5.793,20.294 5.137 C 19.974 4.896,14.498 1.834,14.022 1.631 C 13.606 1.452,13.057 1.327,12.493 1.281 C 12.215 1.258,11.950 1.243,11.904 1.246 C 11.858 1.249,11.646 1.266,11.434 1.283 M13.000 2.861 C 13.143 2.899,13.368 2.979,13.500 3.039 C 13.940 3.239,19.177 6.164,19.393 6.330 C 19.664 6.539,20.064 6.993,20.016 7.036 C 19.996 7.054,18.184 8.108,15.990 9.378 L 11.999 11.686 7.991 9.367 C 5.786 8.092,3.977 7.030,3.970 7.009 C 3.949 6.947,4.565 6.341,4.802 6.191 C 5.309 5.870,10.483 3.033,10.701 2.956 C 11.152 2.797,11.424 2.762,12.100 2.777 C 12.544 2.787,12.820 2.812,13.000 2.861 M20.802 8.590 C 20.842 8.764,20.859 9.405,20.870 11.210 C 20.878 12.525,20.872 13.600,20.856 13.600 C 20.839 13.600,20.699 13.556,20.543 13.503 C 19.249 13.060,17.751 13.207,16.614 13.888 C 15.410 14.610,14.630 15.707,14.330 17.098 C 14.280 17.330,14.261 17.593,14.263 18.040 C 14.265 18.570,14.281 18.722,14.371 19.084 C 14.428 19.318,14.548 19.677,14.637 19.883 C 14.757 20.161,14.786 20.265,14.749 20.288 C 14.722 20.306,14.421 20.472,14.080 20.657 C 13.480 20.982,13.249 21.082,12.918 21.156 L 12.760 21.191 12.760 17.082 L 12.760 12.972 16.730 10.669 C 18.913 9.402,20.711 8.364,20.724 8.363 C 20.738 8.361,20.773 8.463,20.802 8.590 M20.011 14.921 C 20.985 15.245,21.778 16.039,22.108 17.020 C 22.206 17.311,22.216 17.396,22.218 17.960 C 22.220 18.502,22.208 18.617,22.126 18.878 C 21.876 19.676,21.377 20.329,20.680 20.769 C 19.850 21.293,18.715 21.390,17.780 21.016 C 16.962 20.688,16.240 19.918,15.939 19.051 C 15.466 17.692,15.976 16.141,17.160 15.333 C 17.779 14.912,18.333 14.754,19.120 14.776 C 19.555 14.789,19.671 14.808,20.011 14.921 M20.220 16.294 C 20.154 16.324,19.736 16.703,19.291 17.135 C 18.845 17.567,18.469 17.920,18.455 17.920 C 18.441 17.920,18.298 17.803,18.138 17.659 C 17.717 17.282,17.490 17.208,17.169 17.342 C 16.742 17.520,16.572 18.005,16.801 18.389 C 16.929 18.603,17.971 19.592,18.144 19.664 C 18.334 19.744,18.617 19.734,18.792 19.641 C 19.004 19.529,21.081 17.512,21.190 17.312 C 21.359 17.003,21.268 16.597,20.980 16.377 C 20.860 16.286,20.782 16.261,20.585 16.251 C 20.436 16.244,20.293 16.260,20.220 16.294 " stroke="none" fill-rule="evenodd" fill="black"></path></svg>