<svg width="24" height="24" viewBox="0 0 24 24" fill="none" xmlns="http://www.w3.org/2000/svg"><path d="M11.434 1.283 C 10.950 1.323,10.438 1.444,10.022 1.615 C 9.548 1.811,4.057 4.873,3.704 5.138 C 2.939 5.714,2.229 6.747,1.881 7.788 C 1.649 8.483,1.640 8.637,1.640 11.951 C 1.640 15.164,1.637 15.118,1.832 15.333 C 2.011 15.531,2.402 15.618,2.667 15.517 C 2.791 15.471,2.981 15.305,3.053 15.180 C 3.087 15.122,3.106 14.240,3.122 11.960 C 3.139 9.534,3.156 8.767,3.198 8.589 C 3.227 8.461,3.264 8.362,3.280 8.369 C 3.295 8.375,5.093 9.413,7.274 10.676 L 11.240 12.973 11.240 17.083 L 11.240 21.193 11.150 21.172 C 10.694 21.071,10.348 20.896,7.844 19.509 C 4.870 17.860,4.873 17.862,4.685 17.826 C 4.240 17.741,3.784 18.191,3.856 18.644 C 3.892 18.868,3.975 19.017,4.130 19.134 C 4.353 19.303,9.760 22.282,10.064 22.404 C 11.228 22.870,12.938 22.846,14.067 22.348 C 14.239 22.272,14.686 22.038,15.060 21.829 L 15.740 21.449 15.900 21.585 C 16.361 21.975,17.001 22.334,17.556 22.516 C 18.181 22.720,19.083 22.787,19.780 22.681 C 21.256 22.456,22.589 21.443,23.283 20.020 C 24.087 18.371,23.796 16.273,22.572 14.886 L 22.364 14.650 22.351 11.595 L 22.337 8.540 22.233 8.157 C 21.899 6.935,21.166 5.793,20.294 5.137 C 19.974 4.896,14.498 1.834,14.022 1.631 C 13.606 1.452,13.057 1.327,12.493 1.281 C 12.215 1.258,11.950 1.243,11.904 1.246 C 11.858 1.249,11.646 1.266,11.434 1.283 M13.000 2.861 C 13.143 2.899,13.368 2.979,13.500 3.039 C 13.940 3.239,19.177 6.164,19.393 6.330 C 19.664 6.539,20.064 6.993,20.016 7.036 C 19.996 7.054,18.184 8.108,15.990 9.378 L 11.999 11.686 7.991 9.367 C 5.786 8.092,3.977 7.030,3.970 7.009 C 3.949 6.947,4.565 6.341,4.802 6.191 C 5.309 5.870,10.483 3.033,10.701 2.956 C 11.152 2.797,11.424 2.762,12.100 2.777 C 12.544 2.787,12.820 2.812,13.000 2.861 M20.802 8.590 C 20.842 8.764,20.859 9.405,20.870 11.210 C 20.878 12.525,20.873 13.600,20.857 13.600 C 20.842 13.600,20.708 13.556,20.559 13.502 C 19.661 13.178,18.471 13.169,17.522 13.479 C 15.915 14.005,14.657 15.429,14.343 17.080 C 14.154 18.069,14.259 19.006,14.663 19.938 C 14.768 20.179,14.788 20.263,14.750 20.288 C 14.723 20.306,14.421 20.472,14.080 20.657 C 13.480 20.982,13.249 21.082,12.918 21.156 L 12.760 21.191 12.760 17.082 L 12.760 12.972 16.730 10.669 C 18.913 9.402,20.711 8.364,20.724 8.363 C 20.738 8.361,20.773 8.463,20.802 8.590 M19.820 14.858 C 20.985 15.173,21.937 16.165,22.180 17.318 C 22.265 17.725,22.257 18.347,22.160 18.740 C 22.117 18.916,21.987 19.249,21.872 19.480 C 21.696 19.832,21.608 19.956,21.321 20.245 C 20.591 20.984,19.852 21.277,18.834 21.231 C 17.857 21.187,17.021 20.741,16.412 19.940 C 15.957 19.340,15.722 18.551,15.773 17.788 C 15.870 16.324,16.911 15.128,18.360 14.818 C 18.692 14.747,19.491 14.769,19.820 14.858 M18.815 15.797 C 18.638 15.841,18.461 15.976,18.355 16.149 C 18.277 16.274,18.261 16.365,18.247 16.768 L 18.230 17.240 17.788 17.240 C 17.257 17.240,17.059 17.313,16.887 17.572 C 16.734 17.803,16.734 18.157,16.887 18.388 C 17.059 18.647,17.257 18.720,17.788 18.720 L 18.230 18.720 18.247 19.210 C 18.261 19.638,18.276 19.722,18.361 19.874 C 18.638 20.366,19.362 20.366,19.639 19.874 C 19.724 19.722,19.739 19.638,19.753 19.210 L 19.770 18.720 20.212 18.720 C 20.740 18.720,20.925 18.652,21.106 18.392 C 21.201 18.254,21.220 18.186,21.220 17.980 C 21.220 17.774,21.201 17.706,21.106 17.568 C 20.925 17.307,20.741 17.240,20.207 17.240 L 19.760 17.240 19.759 16.890 C 19.758 16.463,19.706 16.222,19.580 16.056 C 19.421 15.847,19.078 15.731,18.815 15.797 " stroke="none" fill-rule="evenodd" fill="black"></path></svg>