<svg width="24" height="24" viewBox="0 0 24 24" fill="none" xmlns="http://www.w3.org/2000/svg"><path d="M11.374 1.283 C 10.906 1.331,10.319 1.480,9.927 1.650 C 9.431 1.866,4.025 4.897,3.700 5.141 C 2.723 5.877,1.888 7.298,1.700 8.548 C 1.593 9.256,1.620 9.423,1.882 9.685 C 2.034 9.838,2.106 9.879,2.259 9.902 C 2.751 9.976,3.080 9.682,3.137 9.120 C 3.176 8.726,3.246 8.355,3.279 8.368 C 3.295 8.375,5.093 9.413,7.274 10.676 L 11.240 12.973 11.240 17.066 L 11.240 21.160 11.150 21.159 C 10.868 21.158,10.280 20.861,7.583 19.359 C 5.465 18.180,4.696 17.732,4.501 17.564 C 3.914 17.058,3.398 16.207,3.215 15.440 C 3.178 15.284,3.145 14.900,3.132 14.480 C 3.107 13.669,3.067 13.546,2.767 13.370 C 2.364 13.134,1.883 13.297,1.702 13.729 C 1.620 13.926,1.618 14.914,1.700 15.452 C 1.902 16.797,2.815 18.254,3.940 19.028 C 4.187 19.198,9.778 22.287,10.014 22.383 C 10.543 22.601,11.006 22.686,11.786 22.709 C 12.762 22.738,13.384 22.642,14.049 22.359 C 14.386 22.215,19.622 19.309,20.063 19.020 C 21.045 18.378,21.873 17.180,22.233 15.880 L 22.338 15.500 22.351 12.168 C 22.362 9.273,22.355 8.787,22.300 8.469 C 22.122 7.437,21.545 6.344,20.762 5.556 C 20.552 5.345,20.272 5.100,20.140 5.012 C 19.892 4.846,14.786 1.995,14.290 1.745 C 13.519 1.357,12.394 1.179,11.374 1.283 M12.832 2.823 C 13.001 2.858,13.257 2.933,13.400 2.990 C 13.668 3.096,18.783 5.920,19.231 6.209 C 19.459 6.356,20.040 6.924,20.040 7.000 C 20.040 7.036,17.120 8.734,17.060 8.732 C 17.038 8.732,15.652 7.941,13.980 6.974 C 12.308 6.008,10.459 4.940,9.872 4.601 C 9.285 4.262,8.812 3.973,8.822 3.957 C 8.840 3.928,10.078 3.239,10.422 3.068 C 10.645 2.956,10.987 2.849,11.273 2.801 C 11.615 2.743,12.504 2.756,12.832 2.823 M8.658 5.625 C 15.437 9.533,15.565 9.609,15.491 9.659 C 15.452 9.686,14.651 10.153,13.710 10.697 L 12.000 11.687 8.010 9.379 C 5.816 8.110,4.004 7.057,3.984 7.038 C 3.937 6.994,4.291 6.587,4.574 6.361 C 4.807 6.176,7.138 4.847,7.238 4.842 C 7.269 4.841,7.908 5.193,8.658 5.625 M20.807 8.590 C 20.885 8.928,20.884 15.081,20.806 15.400 C 20.565 16.388,19.916 17.345,19.160 17.826 C 18.897 17.993,13.950 20.745,13.580 20.930 C 13.360 21.040,12.975 21.160,12.844 21.160 L 12.760 21.160 12.760 17.066 L 12.760 12.971 14.490 11.970 L 16.220 10.969 16.240 12.214 C 16.260 13.431,16.262 13.464,16.353 13.609 C 16.664 14.110,17.408 14.089,17.664 13.572 C 17.734 13.432,17.742 13.284,17.760 11.743 L 17.780 10.065 19.240 9.215 C 20.043 8.747,20.712 8.364,20.727 8.362 C 20.742 8.361,20.778 8.463,20.807 8.590 " stroke="none" fill-rule="evenodd" fill="black"></path></svg>