<svg width="24" height="24" viewBox="0 0 24 24" fill="none" xmlns="http://www.w3.org/2000/svg"><path d="M10.589 1.282 C 9.453 1.353,8.669 1.627,8.120 2.145 C 7.531 2.701,7.320 3.324,7.257 4.685 L 7.232 5.231 6.686 5.257 C 5.955 5.293,5.415 5.351,4.980 5.440 C 2.965 5.856,1.850 6.932,1.575 8.728 C 1.473 9.397,1.520 10.161,1.937 14.580 C 2.324 18.682,2.376 19.130,2.524 19.678 C 2.917 21.134,3.955 22.087,5.580 22.482 C 6.603 22.731,7.244 22.758,12.000 22.758 C 16.756 22.758,17.397 22.731,18.420 22.482 C 20.147 22.062,21.165 21.061,21.543 19.410 C 21.683 18.796,21.712 18.300,21.619 18.103 C 21.418 17.679,20.843 17.561,20.478 17.868 C 20.301 18.017,20.239 18.166,20.175 18.595 C 20.045 19.474,19.831 19.970,19.413 20.360 C 18.918 20.823,18.209 21.082,17.112 21.199 C 16.584 21.255,7.416 21.255,6.888 21.199 C 4.913 20.988,4.083 20.311,3.842 18.712 C 3.793 18.385,3.243 12.587,3.260 12.568 C 3.266 12.562,3.367 12.614,3.485 12.684 C 3.833 12.892,4.859 13.393,5.331 13.586 C 6.419 14.032,7.467 14.345,8.600 14.563 L 9.261 14.690 9.327 15.030 C 9.413 15.466,9.583 15.809,9.844 16.068 C 10.078 16.301,10.500 16.530,10.860 16.619 C 11.260 16.718,11.951 16.761,12.450 16.718 C 13.784 16.602,14.460 16.086,14.676 15.017 L 14.748 14.660 14.944 14.629 C 15.676 14.513,16.971 14.170,17.800 13.875 C 18.648 13.572,19.936 12.971,20.610 12.563 C 20.789 12.455,20.781 12.397,20.700 13.180 C 20.611 14.034,20.618 14.190,20.755 14.405 C 20.895 14.627,21.103 14.736,21.381 14.733 C 21.717 14.730,21.991 14.524,22.079 14.208 C 22.102 14.127,22.201 13.195,22.300 12.137 C 22.487 10.139,22.521 9.303,22.436 8.748 C 22.162 6.942,21.042 5.852,19.040 5.444 C 18.584 5.351,18.051 5.293,17.314 5.257 L 16.768 5.231 16.743 4.685 C 16.710 3.972,16.654 3.569,16.538 3.201 C 16.229 2.228,15.449 1.611,14.235 1.377 C 13.592 1.254,11.785 1.206,10.589 1.282 M13.843 2.825 C 14.401 2.920,14.625 3.015,14.862 3.256 C 15.143 3.542,15.201 3.756,15.229 4.590 L 15.250 5.240 12.000 5.240 L 8.750 5.240 8.771 4.590 C 8.799 3.756,8.857 3.542,9.138 3.256 C 9.370 3.020,9.598 2.921,10.121 2.828 C 10.631 2.737,13.319 2.735,13.843 2.825 M18.507 6.851 C 19.909 7.113,20.630 7.651,20.903 8.640 C 20.981 8.923,21.019 9.671,20.982 10.173 L 20.952 10.565 20.766 10.700 C 20.466 10.919,19.493 11.495,19.060 11.711 C 17.835 12.321,16.679 12.730,15.360 13.020 L 14.780 13.148 14.752 12.744 C 14.702 12.018,14.593 11.731,14.279 11.499 C 13.971 11.272,13.857 11.260,12.000 11.260 C 10.149 11.260,10.028 11.272,9.727 11.495 C 9.407 11.731,9.297 12.013,9.256 12.702 C 9.241 12.954,9.215 13.160,9.200 13.160 C 9.101 13.160,8.101 12.936,7.671 12.818 C 6.259 12.428,4.683 11.718,3.432 10.908 C 3.012 10.635,3.025 10.675,3.022 9.660 C 3.020 9.027,3.031 8.902,3.111 8.628 C 3.241 8.177,3.378 7.935,3.655 7.660 C 4.132 7.188,4.898 6.907,6.040 6.786 C 6.117 6.778,8.871 6.774,12.160 6.777 C 17.620 6.782,18.172 6.788,18.507 6.851 M13.233 13.790 C 13.218 14.988,13.209 15.024,12.891 15.146 C 12.611 15.254,11.389 15.254,11.109 15.146 C 10.791 15.024,10.782 14.988,10.767 13.790 L 10.754 12.760 12.000 12.760 L 13.246 12.760 13.233 13.790 " stroke="none" fill-rule="evenodd" fill="black"></path></svg>