<svg width="24" height="24" viewBox="0 0 24 24" fill="none" xmlns="http://www.w3.org/2000/svg"><path d="M10.589 1.282 C 9.453 1.353,8.669 1.627,8.120 2.145 C 7.531 2.701,7.320 3.324,7.257 4.685 L 7.232 5.231 6.686 5.257 C 5.955 5.293,5.415 5.351,4.980 5.440 C 2.965 5.856,1.850 6.932,1.575 8.728 C 1.473 9.397,1.520 10.161,1.937 14.580 C 2.324 18.682,2.376 19.130,2.524 19.678 C 2.917 21.134,3.955 22.087,5.580 22.482 C 6.603 22.731,7.244 22.758,12.000 22.758 C 16.756 22.758,17.397 22.731,18.420 22.482 C 20.147 22.062,21.165 21.061,21.543 19.410 C 21.683 18.796,21.712 18.300,21.619 18.103 C 21.418 17.679,20.843 17.561,20.478 17.868 C 20.301 18.017,20.239 18.166,20.175 18.595 C 20.045 19.474,19.831 19.970,19.413 20.360 C 18.918 20.823,18.209 21.082,17.112 21.199 C 16.584 21.255,7.416 21.255,6.888 21.199 C 4.913 20.988,4.083 20.311,3.842 18.712 C 3.791 18.372,3.243 12.586,3.261 12.567 C 3.267 12.560,3.348 12.602,3.441 12.660 C 3.738 12.848,4.844 13.385,5.408 13.616 C 5.710 13.740,6.241 13.933,6.588 14.047 C 6.936 14.160,7.233 14.273,7.249 14.297 C 7.266 14.320,7.279 14.436,7.279 14.554 C 7.280 14.837,7.414 15.480,7.543 15.824 C 8.042 17.151,9.051 18.158,10.384 18.660 C 11.335 19.018,12.665 19.018,13.616 18.660 C 14.949 18.158,15.958 17.151,16.457 15.824 C 16.583 15.490,16.720 14.839,16.721 14.574 C 16.722 14.220,16.713 14.228,17.293 14.041 C 17.583 13.947,18.046 13.783,18.323 13.675 C 18.811 13.486,20.126 12.852,20.550 12.602 C 20.796 12.457,20.781 12.397,20.700 13.180 C 20.611 14.034,20.618 14.190,20.755 14.405 C 20.895 14.627,21.103 14.736,21.381 14.733 C 21.717 14.730,21.991 14.524,22.079 14.208 C 22.102 14.127,22.201 13.195,22.300 12.137 C 22.487 10.139,22.521 9.303,22.436 8.748 C 22.162 6.942,21.042 5.852,19.040 5.444 C 18.584 5.351,18.051 5.293,17.314 5.257 L 16.768 5.231 16.743 4.685 C 16.710 3.972,16.654 3.569,16.538 3.201 C 16.229 2.228,15.449 1.611,14.235 1.377 C 13.592 1.254,11.785 1.206,10.589 1.282 M13.843 2.825 C 14.401 2.920,14.625 3.015,14.862 3.256 C 15.143 3.542,15.201 3.756,15.229 4.590 L 15.250 5.240 12.000 5.240 L 8.750 5.240 8.771 4.590 C 8.799 3.756,8.857 3.542,9.138 3.256 C 9.370 3.020,9.598 2.921,10.121 2.828 C 10.631 2.737,13.319 2.735,13.843 2.825 M18.507 6.851 C 19.909 7.113,20.625 7.647,20.904 8.640 C 20.978 8.905,21.020 9.903,20.973 10.299 L 20.940 10.577 20.695 10.748 C 20.004 11.230,18.674 11.935,17.840 12.261 C 17.277 12.482,16.554 12.721,16.518 12.699 C 16.500 12.688,16.464 12.612,16.437 12.529 C 16.411 12.447,16.326 12.254,16.250 12.100 C 15.711 11.014,14.777 10.176,13.624 9.743 C 12.660 9.380,11.340 9.380,10.376 9.743 C 9.069 10.234,8.036 11.259,7.557 12.540 C 7.511 12.661,7.468 12.760,7.460 12.760 C 7.452 12.760,7.200 12.678,6.900 12.578 C 5.863 12.231,4.806 11.740,3.809 11.141 C 3.028 10.672,3.077 10.727,3.032 10.258 C 2.978 9.698,3.016 8.967,3.119 8.606 C 3.241 8.178,3.380 7.933,3.655 7.660 C 4.132 7.188,4.898 6.907,6.040 6.786 C 6.117 6.778,8.871 6.774,12.160 6.777 C 17.620 6.782,18.172 6.788,18.507 6.851 M12.980 11.094 C 13.508 11.268,13.854 11.486,14.284 11.916 C 14.712 12.343,14.928 12.685,15.108 13.220 C 15.209 13.516,15.217 13.589,15.217 14.200 C 15.217 14.811,15.209 14.884,15.108 15.180 C 14.928 15.715,14.712 16.057,14.284 16.484 C 13.857 16.912,13.515 17.128,12.980 17.308 C 12.684 17.409,12.611 17.417,12.000 17.417 C 11.389 17.417,11.316 17.409,11.020 17.308 C 10.485 17.128,10.143 16.912,9.716 16.484 C 9.288 16.057,9.072 15.715,8.892 15.180 C 8.791 14.884,8.783 14.811,8.783 14.200 C 8.783 13.589,8.791 13.516,8.892 13.220 C 9.072 12.685,9.288 12.343,9.716 11.916 C 10.433 11.199,11.066 10.950,12.100 10.975 C 12.572 10.987,12.710 11.006,12.980 11.094 M13.371 12.598 C 13.198 12.640,13.109 12.713,12.222 13.532 L 11.463 14.232 11.162 13.950 C 10.830 13.640,10.683 13.560,10.444 13.560 C 10.025 13.560,9.709 13.879,9.709 14.300 C 9.709 14.587,9.794 14.725,10.263 15.191 C 10.779 15.705,10.994 15.819,11.440 15.819 C 11.921 15.819,12.030 15.749,13.167 14.702 C 13.794 14.125,14.180 13.739,14.225 13.646 C 14.334 13.419,14.312 13.103,14.173 12.907 C 13.994 12.654,13.661 12.526,13.371 12.598 " stroke="none" fill-rule="evenodd" fill="black"></path></svg>