<svg width="24" height="24" viewBox="0 0 24 24" fill="none" xmlns="http://www.w3.org/2000/svg"><path d="M6.060 1.455 C 5.485 1.581,4.928 1.902,4.544 2.326 C 4.286 2.611,4.031 3.103,3.935 3.500 C 3.844 3.874,3.844 4.500,3.936 4.837 C 4.031 5.185,4.179 5.464,4.839 6.540 L 5.403 7.460 5.292 7.540 C 4.988 7.760,4.843 8.052,4.897 8.338 C 4.921 8.464,5.216 8.969,6.517 11.108 L 6.887 11.716 6.769 11.888 C 5.896 13.159,5.755 15.050,6.426 16.465 C 6.599 16.828,6.772 16.964,7.095 16.991 C 7.510 17.026,7.842 16.741,7.872 16.326 C 7.885 16.136,7.866 16.046,7.747 15.760 C 7.429 14.989,7.397 14.265,7.647 13.480 C 7.831 12.903,8.223 12.332,8.680 11.977 C 8.980 11.744,12.143 9.825,12.540 9.635 C 13.039 9.396,13.300 9.340,13.900 9.342 C 14.494 9.344,14.844 9.422,15.327 9.661 C 15.680 9.835,15.916 10.009,16.206 10.307 C 16.405 10.511,19.192 14.230,19.402 14.571 C 19.523 14.767,19.640 15.184,19.640 15.416 C 19.640 15.663,19.553 16.019,19.436 16.247 C 19.336 16.443,19.055 16.752,18.885 16.851 C 18.765 16.921,18.763 16.921,18.706 16.831 C 18.674 16.781,18.392 16.317,18.079 15.800 C 17.766 15.283,17.462 14.808,17.405 14.745 C 17.100 14.411,16.507 14.456,16.253 14.834 C 16.140 15.001,16.098 15.273,16.157 15.451 C 16.182 15.527,16.491 16.062,16.843 16.641 C 17.195 17.220,17.469 17.706,17.452 17.722 C 17.434 17.738,17.150 17.916,16.820 18.116 C 16.267 18.452,16.216 18.475,16.168 18.410 C 16.139 18.372,15.853 17.908,15.533 17.380 C 15.212 16.852,14.903 16.368,14.845 16.305 C 14.540 15.971,13.947 16.016,13.693 16.394 C 13.581 16.560,13.538 16.833,13.597 17.010 C 13.621 17.085,13.930 17.619,14.283 18.198 C 14.635 18.776,14.913 19.260,14.900 19.273 C 14.887 19.286,14.603 19.463,14.268 19.666 C 13.806 19.947,13.650 20.024,13.616 19.988 C 13.592 19.962,13.307 19.499,12.981 18.960 C 12.656 18.421,12.343 17.928,12.285 17.865 C 11.980 17.531,11.387 17.576,11.133 17.954 C 11.020 18.121,10.978 18.393,11.037 18.571 C 11.062 18.647,11.371 19.182,11.723 19.761 C 12.206 20.555,12.351 20.822,12.312 20.849 C 12.283 20.869,12.185 20.919,12.093 20.960 C 11.289 21.320,10.389 21.003,9.917 20.194 C 9.830 20.046,9.710 19.890,9.649 19.847 C 9.089 19.447,8.316 19.942,8.479 20.596 C 8.578 20.993,9.088 21.660,9.534 21.976 C 10.140 22.406,10.647 22.569,11.400 22.575 C 11.966 22.579,12.274 22.516,12.740 22.301 C 13.017 22.173,13.184 22.075,15.160 20.875 C 15.721 20.534,16.239 20.220,16.310 20.177 C 16.620 19.993,18.878 18.616,19.060 18.501 C 19.170 18.431,19.368 18.309,19.500 18.229 C 20.240 17.785,20.742 17.152,20.999 16.340 C 21.137 15.905,21.156 15.232,21.043 14.746 C 20.940 14.298,20.732 13.853,20.434 13.440 C 19.442 12.067,17.530 9.528,17.322 9.307 C 16.815 8.770,16.065 8.297,15.347 8.063 C 14.863 7.906,14.372 7.835,13.809 7.843 L 13.307 7.849 12.375 6.315 C 11.862 5.471,11.385 4.710,11.315 4.625 C 11.072 4.331,10.724 4.278,10.346 4.480 C 10.223 4.546,10.115 4.600,10.107 4.600 C 10.099 4.600,9.806 4.128,9.456 3.551 C 8.926 2.675,8.770 2.451,8.519 2.197 C 8.189 1.864,7.761 1.619,7.300 1.498 C 6.969 1.411,6.356 1.390,6.060 1.455 M6.800 2.920 C 7.096 2.976,7.345 3.111,7.515 3.306 C 7.662 3.474,8.800 5.317,8.800 5.384 C 8.799 5.436,6.724 6.687,6.682 6.661 C 6.622 6.624,5.498 4.750,5.427 4.569 C 5.284 4.203,5.386 3.635,5.650 3.335 C 5.799 3.165,6.074 3.000,6.317 2.935 C 6.549 2.872,6.548 2.872,6.800 2.920 M11.176 7.216 C 11.522 7.785,11.790 8.265,11.772 8.282 C 11.755 8.298,10.894 8.826,9.860 9.455 C 8.411 10.336,7.971 10.587,7.936 10.549 C 7.880 10.488,6.733 8.600,6.701 8.517 C 6.685 8.476,6.720 8.436,6.809 8.392 C 7.006 8.297,10.371 6.243,10.438 6.178 C 10.470 6.146,10.508 6.134,10.522 6.150 C 10.536 6.167,10.830 6.646,11.176 7.216 " stroke="none" fill-rule="evenodd" fill="black"></path></svg>