<svg width="24" height="24" viewBox="0 0 24 24" fill="none" xmlns="http://www.w3.org/2000/svg"><path d="M20.148 1.282 C 20.020 1.302,19.750 1.383,19.548 1.463 C 19.042 1.663,17.736 2.299,17.568 2.426 C 17.158 2.739,17.213 3.440,17.666 3.663 C 17.972 3.813,18.144 3.776,18.920 3.393 C 20.237 2.741,20.525 2.657,20.820 2.840 C 20.992 2.946,21.160 3.221,21.160 3.396 C 21.160 3.654,20.460 5.173,19.831 6.280 C 18.670 8.321,16.997 10.624,15.290 12.532 C 15.037 12.814,14.822 13.035,14.811 13.025 C 14.800 13.014,14.742 12.864,14.681 12.692 C 14.508 12.199,14.348 11.876,14.068 11.453 C 13.391 10.432,12.413 9.680,11.240 9.280 C 11.031 9.209,10.856 9.147,10.850 9.143 C 10.831 9.126,11.878 8.198,12.515 7.666 C 12.876 7.365,13.479 6.886,13.856 6.601 C 14.243 6.308,14.576 6.025,14.620 5.951 C 14.743 5.746,14.730 5.379,14.593 5.172 C 14.384 4.857,13.940 4.749,13.616 4.935 C 13.246 5.147,11.769 6.313,10.773 7.180 C 9.999 7.853,8.562 9.292,8.056 9.900 C 7.178 10.954,5.833 12.680,5.791 12.808 C 5.783 12.831,5.677 12.865,5.554 12.884 C 5.184 12.942,4.641 13.115,4.257 13.297 C 2.890 13.943,1.956 15.101,1.621 16.565 C 1.550 16.876,1.240 19.624,1.240 19.944 C 1.240 20.508,1.518 21.261,1.894 21.714 C 2.390 22.313,3.126 22.692,3.900 22.745 C 4.233 22.768,6.446 22.546,7.176 22.417 C 9.206 22.057,10.742 20.505,11.100 18.452 C 11.133 18.263,11.160 18.105,11.160 18.099 C 11.160 18.093,11.243 18.039,11.345 17.979 C 11.536 17.867,13.181 16.567,14.020 15.864 C 16.691 13.626,20.022 9.309,21.772 5.817 C 22.119 5.123,22.503 4.231,22.578 3.940 C 22.710 3.434,22.620 2.778,22.359 2.341 C 21.898 1.572,21.017 1.150,20.148 1.282 M10.420 10.600 C 11.720 10.900,12.818 11.886,13.257 13.145 C 13.374 13.479,13.480 13.980,13.480 14.195 C 13.480 14.384,13.471 14.393,12.005 15.576 L 11.030 16.363 10.932 16.072 C 10.507 14.810,9.408 13.659,8.131 13.137 C 7.894 13.040,7.669 12.961,7.630 12.960 C 7.591 12.960,7.560 12.949,7.560 12.936 C 7.560 12.902,8.827 11.303,9.215 10.847 L 9.533 10.473 9.816 10.500 C 9.972 10.514,10.244 10.559,10.420 10.600 M7.369 14.467 C 8.423 14.837,9.294 15.760,9.566 16.794 C 9.678 17.220,9.688 18.110,9.586 18.480 C 9.260 19.656,8.365 20.568,7.233 20.879 C 7.059 20.927,6.338 21.027,5.509 21.120 C 3.978 21.290,3.813 21.290,3.477 21.119 C 3.115 20.934,2.797 20.484,2.741 20.080 C 2.711 19.863,3.010 17.147,3.104 16.786 C 3.360 15.796,4.087 14.967,5.051 14.566 C 5.519 14.372,5.828 14.321,6.460 14.333 C 6.966 14.344,7.054 14.356,7.369 14.467 " stroke="none" fill-rule="evenodd" fill="black"></path></svg>