<svg width="24" height="24" viewBox="0 0 24 24" fill="none" xmlns="http://www.w3.org/2000/svg"><path d="M5.660 1.278 C 4.576 1.408,3.660 2.195,3.352 3.260 C 3.260 3.579,3.260 3.588,3.260 6.067 L 3.260 8.553 3.380 8.723 C 3.446 8.816,3.572 8.930,3.660 8.976 C 3.820 9.060,3.832 9.060,8.460 9.060 C 11.012 9.060,13.149 9.046,13.209 9.029 C 13.361 8.987,13.601 8.767,13.666 8.612 C 13.777 8.347,13.721 8.031,13.527 7.826 C 13.278 7.562,13.611 7.581,8.970 7.569 L 4.760 7.558 4.760 5.661 C 4.760 3.852,4.764 3.753,4.841 3.546 C 4.950 3.256,5.256 2.950,5.546 2.841 C 5.761 2.761,5.831 2.760,12.000 2.760 C 18.169 2.760,18.239 2.761,18.454 2.841 C 18.744 2.950,19.050 3.256,19.159 3.546 C 19.236 3.753,19.240 3.852,19.240 5.659 L 19.240 7.555 17.990 7.567 C 16.742 7.580,16.740 7.580,16.566 7.680 C 16.330 7.814,16.200 8.043,16.200 8.320 C 16.200 8.597,16.330 8.826,16.566 8.960 C 16.740 9.060,16.741 9.060,18.010 9.073 L 19.280 9.085 19.279 10.573 C 19.279 12.244,19.261 12.402,19.020 12.881 C 18.864 13.189,18.567 13.536,18.300 13.720 C 18.212 13.780,17.452 14.218,16.611 14.692 C 15.770 15.167,15.004 15.608,14.909 15.674 C 14.587 15.896,14.253 16.296,14.062 16.691 C 13.964 16.894,13.862 17.141,13.837 17.240 C 13.808 17.351,13.780 17.978,13.765 18.880 L 13.740 20.340 13.633 20.540 C 13.505 20.781,13.283 21.000,13.040 21.127 C 12.868 21.216,12.823 21.220,12.000 21.220 C 11.180 21.220,11.132 21.216,10.968 21.128 C 10.723 20.997,10.488 20.747,10.366 20.486 L 10.261 20.260 10.237 18.800 C 10.211 17.191,10.207 17.157,9.936 16.640 C 9.746 16.276,9.491 15.965,9.209 15.753 C 9.077 15.654,8.287 15.188,7.454 14.719 C 5.729 13.748,5.555 13.637,5.321 13.372 C 4.984 12.990,4.824 12.607,4.758 12.026 C 4.712 11.612,4.639 11.434,4.464 11.301 C 4.095 11.022,3.598 11.116,3.354 11.509 C 3.276 11.636,3.264 11.705,3.271 11.998 C 3.292 12.951,3.677 13.840,4.366 14.529 C 4.713 14.876,4.870 14.975,6.720 16.019 C 7.567 16.496,8.319 16.944,8.392 17.013 C 8.464 17.082,8.572 17.238,8.632 17.360 L 8.740 17.580 8.764 19.040 C 8.784 20.256,8.800 20.540,8.857 20.738 C 9.128 21.667,9.899 22.417,10.840 22.669 C 11.224 22.771,12.826 22.769,13.199 22.665 C 14.106 22.413,14.855 21.695,15.143 20.800 C 15.203 20.613,15.217 20.360,15.238 19.100 C 15.262 17.675,15.266 17.612,15.354 17.416 C 15.517 17.051,15.711 16.911,17.300 16.017 C 18.114 15.559,18.900 15.108,19.047 15.015 C 19.821 14.521,20.431 13.664,20.670 12.733 C 20.735 12.481,20.740 12.122,20.740 8.020 L 20.740 3.580 20.648 3.260 C 20.387 2.357,19.669 1.631,18.760 1.353 L 18.460 1.262 12.180 1.256 C 8.726 1.252,5.792 1.263,5.660 1.278 " stroke="none" fill-rule="evenodd" fill="black"></path></svg>