<svg width="24" height="24" viewBox="0 0 24 24" fill="none" xmlns="http://www.w3.org/2000/svg"><path d="M8.340 1.266 C 6.267 1.357,4.808 1.770,3.673 2.587 C 3.066 3.025,2.437 3.771,2.081 4.478 C 1.548 5.535,1.240 7.066,1.240 8.656 C 1.240 9.172,1.247 9.225,1.336 9.377 C 1.576 9.787,2.186 9.858,2.508 9.513 C 2.667 9.343,2.720 9.149,2.720 8.731 C 2.721 8.240,2.783 7.495,2.865 7.000 C 3.068 5.780,3.445 4.901,4.037 4.271 C 4.625 3.644,5.284 3.288,6.355 3.020 C 7.146 2.822,7.543 2.789,9.420 2.764 C 11.324 2.738,11.295 2.741,11.508 2.513 C 11.623 2.391,11.720 2.155,11.720 2.000 C 11.720 1.845,11.623 1.609,11.508 1.487 C 11.299 1.262,11.284 1.260,9.900 1.257 C 9.196 1.255,8.494 1.259,8.340 1.266 M20.552 1.282 C 20.427 1.301,20.175 1.375,19.992 1.447 C 19.526 1.629,18.188 2.301,18.036 2.430 C 17.882 2.559,17.762 2.810,17.762 3.000 C 17.762 3.431,18.197 3.810,18.605 3.735 C 18.679 3.722,18.974 3.589,19.260 3.440 C 20.015 3.047,20.684 2.760,20.846 2.760 C 20.996 2.760,21.168 2.902,21.217 3.068 C 21.251 3.178,21.059 3.648,20.642 4.480 C 19.946 5.865,19.019 7.298,17.847 8.800 C 17.411 9.359,16.604 10.310,16.428 10.473 L 16.328 10.567 16.299 10.473 C 16.080 9.748,15.437 8.867,14.757 8.361 C 14.427 8.115,13.841 7.798,13.569 7.717 C 13.475 7.689,13.403 7.653,13.409 7.636 C 13.445 7.537,14.774 6.432,15.690 5.739 C 16.205 5.350,16.320 5.195,16.320 4.886 C 16.320 4.601,16.119 4.298,15.867 4.203 C 15.805 4.179,15.660 4.160,15.544 4.160 C 15.304 4.160,15.240 4.199,14.360 4.875 C 12.965 5.947,11.648 7.168,10.813 8.163 C 10.547 8.480,9.273 10.084,9.028 10.411 C 8.947 10.519,8.886 10.560,8.807 10.560 C 8.637 10.560,8.134 10.711,7.819 10.857 C 7.210 11.138,6.668 11.571,6.278 12.089 C 5.908 12.580,5.666 13.116,5.559 13.680 C 5.456 14.226,5.273 16.151,5.293 16.480 C 5.351 17.428,6.008 18.292,6.907 18.603 C 7.386 18.768,7.603 18.772,8.841 18.641 C 10.139 18.503,10.471 18.445,10.938 18.276 C 12.158 17.835,13.163 16.651,13.428 15.342 C 13.498 14.994,13.505 14.981,13.675 14.862 C 13.924 14.689,15.427 13.490,15.880 13.104 C 18.047 11.258,20.695 7.781,22.067 4.982 C 22.644 3.803,22.779 3.332,22.684 2.821 C 22.497 1.815,21.549 1.131,20.552 1.282 M12.818 9.039 C 13.332 9.171,13.723 9.404,14.164 9.840 C 14.493 10.167,14.573 10.273,14.733 10.600 C 14.915 10.970,15.008 11.268,15.058 11.644 L 15.083 11.828 14.572 12.247 C 14.290 12.477,13.900 12.794,13.704 12.950 L 13.347 13.235 13.220 12.942 C 12.982 12.394,12.723 12.041,12.207 11.556 C 11.824 11.197,11.429 10.938,10.999 10.765 L 10.732 10.658 11.109 10.179 C 11.317 9.915,11.623 9.534,11.790 9.330 L 12.094 8.960 12.300 8.960 C 12.414 8.960,12.647 8.996,12.818 9.039 M10.315 12.131 C 10.835 12.315,11.307 12.687,11.616 13.157 C 12.061 13.832,12.150 14.688,11.853 15.437 C 11.548 16.205,10.851 16.808,10.070 16.978 C 9.737 17.050,8.019 17.240,7.708 17.239 C 7.252 17.237,6.856 16.903,6.783 16.460 C 6.751 16.260,6.979 14.103,7.065 13.800 C 7.296 12.984,8.035 12.270,8.866 12.061 C 9.241 11.966,9.946 12.001,10.315 12.131 M1.660 12.264 C 1.594 12.300,1.497 12.368,1.445 12.415 C 1.246 12.593,1.240 12.645,1.240 14.329 C 1.240 16.322,1.303 17.052,1.564 18.095 C 2.186 20.582,3.788 22.032,6.477 22.542 C 7.379 22.713,7.735 22.728,11.332 22.748 C 15.876 22.773,16.795 22.727,18.075 22.404 C 20.485 21.798,21.941 20.246,22.462 17.726 C 22.648 16.829,22.685 16.357,22.708 14.596 C 22.731 12.810,22.726 12.749,22.532 12.518 C 22.215 12.141,21.586 12.197,21.336 12.623 C 21.241 12.786,21.240 12.794,21.240 13.964 C 21.239 16.543,21.069 17.691,20.521 18.820 C 19.877 20.148,18.764 20.830,16.720 21.148 C 16.299 21.214,15.896 21.220,11.980 21.220 C 8.048 21.220,7.661 21.214,7.221 21.147 C 4.505 20.736,3.294 19.582,2.865 17.000 C 2.754 16.329,2.721 15.692,2.720 14.223 C 2.720 12.840,2.717 12.779,2.635 12.610 C 2.518 12.368,2.297 12.228,2.006 12.212 C 1.851 12.203,1.742 12.219,1.660 12.264 " stroke="none" fill-rule="evenodd" fill="black"></path></svg>