<svg width="24" height="24" viewBox="0 0 24 24" fill="none" xmlns="http://www.w3.org/2000/svg"><path d="M15.300 1.267 C 14.404 1.316,13.458 1.589,12.708 2.016 C 11.219 2.865,10.181 4.293,9.838 5.965 C 9.642 6.926,9.703 8.017,10.007 8.960 C 10.282 9.812,11.034 10.994,11.416 11.175 C 11.594 11.260,11.905 11.258,12.077 11.170 C 12.292 11.060,12.448 10.836,12.470 10.606 C 12.497 10.334,12.437 10.187,12.163 9.843 C 10.743 8.061,10.933 5.517,12.604 3.940 C 13.085 3.485,13.655 3.152,14.301 2.948 C 15.222 2.658,16.324 2.704,17.228 3.073 C 18.479 3.582,19.466 4.695,19.822 6.000 C 19.962 6.511,19.998 7.333,19.905 7.870 C 19.664 9.252,18.770 10.441,17.507 11.059 C 17.022 11.296,16.536 11.430,15.966 11.483 C 15.351 11.539,15.228 11.575,15.060 11.748 C 14.709 12.110,14.814 12.704,15.269 12.924 C 15.432 13.003,15.492 13.009,15.894 12.989 C 17.409 12.913,18.811 12.262,19.869 11.145 C 20.532 10.444,20.986 9.627,21.254 8.653 C 21.379 8.199,21.400 8.073,21.439 7.547 C 21.594 5.449,20.603 3.423,18.848 2.252 C 17.810 1.558,16.519 1.200,15.300 1.267 M6.175 12.558 C 5.691 12.674,5.458 13.284,5.743 13.688 C 5.904 13.916,6.075 13.992,6.529 14.039 C 6.908 14.078,7.317 14.201,7.547 14.345 C 7.978 14.615,8.363 15.076,8.548 15.545 C 8.646 15.793,8.657 15.871,8.658 16.340 C 8.660 16.811,8.650 16.888,8.549 17.161 C 8.329 17.760,7.777 18.318,7.182 18.543 C 6.809 18.685,6.186 18.721,5.800 18.624 C 5.055 18.437,4.428 17.876,4.171 17.167 C 4.120 17.027,4.061 16.741,4.039 16.532 C 4.017 16.323,3.970 16.089,3.934 16.013 C 3.755 15.636,3.200 15.503,2.848 15.754 C 2.577 15.947,2.507 16.184,2.562 16.720 C 2.614 17.228,2.726 17.626,2.940 18.060 C 3.867 19.939,6.168 20.712,8.060 19.780 C 8.908 19.362,9.605 18.592,9.936 17.709 C 10.247 16.876,10.247 15.844,9.936 15.011 C 9.559 14.003,8.720 13.162,7.714 12.784 C 7.257 12.612,6.447 12.493,6.175 12.558 M16.200 16.164 C 15.119 16.292,14.226 16.917,13.682 17.927 C 13.420 18.414,13.342 18.762,13.342 19.440 C 13.342 20.118,13.420 20.466,13.682 20.953 C 13.986 21.517,14.328 21.890,14.862 22.239 C 15.391 22.584,15.906 22.727,16.620 22.727 C 17.335 22.727,17.849 22.584,18.381 22.237 C 19.096 21.770,19.582 21.121,19.809 20.332 C 19.938 19.882,19.938 18.998,19.809 18.548 C 19.474 17.381,18.494 16.449,17.360 16.220 C 16.985 16.144,16.545 16.123,16.200 16.164 M17.373 17.790 C 17.719 17.953,18.100 18.326,18.252 18.652 C 18.587 19.366,18.450 20.151,17.894 20.712 C 17.726 20.881,17.555 21.005,17.372 21.092 C 17.113 21.214,17.077 21.220,16.620 21.220 C 16.163 21.220,16.127 21.214,15.868 21.092 C 15.523 20.929,15.140 20.553,14.988 20.228 C 14.655 19.518,14.790 18.729,15.339 18.176 C 15.750 17.761,16.069 17.636,16.680 17.651 C 17.058 17.661,17.127 17.675,17.373 17.790 " stroke="none" fill-rule="evenodd" fill="black"></path></svg>