<svg width="24" height="24" viewBox="0 0 24 24" fill="none" xmlns="http://www.w3.org/2000/svg"><path d="M8.125 1.229 C 8.072 1.239,7.943 1.333,7.838 1.438 C 7.682 1.594,7.641 1.665,7.618 1.819 C 7.555 2.236,7.303 1.957,11.789 6.446 L 15.892 10.553 15.676 10.575 C 15.363 10.608,3.177 11.129,3.097 11.113 C 2.971 11.088,3.337 10.696,5.664 8.360 C 6.924 7.095,7.974 6.009,7.998 5.947 C 8.064 5.771,8.048 5.492,7.961 5.322 C 7.747 4.903,7.245 4.801,6.846 5.097 C 6.633 5.254,2.430 9.467,2.152 9.800 C 1.746 10.289,1.468 10.803,1.338 11.304 C 1.246 11.660,1.245 12.283,1.336 12.660 C 1.422 13.019,1.699 13.582,1.965 13.940 C 2.236 14.305,6.695 18.764,7.060 19.035 C 7.418 19.301,7.981 19.578,8.340 19.664 C 8.919 19.803,9.643 19.736,10.196 19.491 C 10.838 19.207,10.915 19.137,14.432 15.626 C 18.092 11.972,17.967 12.113,18.031 11.560 C 18.073 11.200,18.032 10.903,17.899 10.599 C 17.792 10.353,17.568 10.121,13.303 5.846 C 10.196 2.731,8.771 1.328,8.660 1.277 C 8.507 1.205,8.332 1.190,8.125 1.229 M12.940 14.995 C 10.081 17.849,10.013 17.913,9.702 18.065 C 9.400 18.212,9.364 18.220,9.002 18.220 C 8.651 18.219,8.600 18.209,8.365 18.089 C 8.225 18.018,8.000 17.871,7.865 17.763 C 7.730 17.655,6.629 16.570,5.417 15.353 C 3.393 13.319,2.854 12.733,2.936 12.651 C 2.961 12.626,14.754 12.093,15.460 12.085 L 15.860 12.081 12.940 14.995 M18.691 14.279 C 18.430 14.341,18.341 14.421,17.808 15.080 C 17.163 15.876,16.611 16.800,16.401 17.433 C 16.224 17.967,16.222 18.592,16.397 19.093 C 16.664 19.861,17.344 20.506,18.140 20.745 C 18.507 20.855,19.210 20.846,19.600 20.726 C 20.742 20.373,21.489 19.317,21.429 18.140 C 21.384 17.258,20.728 16.030,19.610 14.737 C 19.243 14.312,19.020 14.201,18.691 14.279 M19.128 16.543 C 19.428 16.959,19.701 17.421,19.831 17.730 C 20.163 18.522,19.678 19.323,18.863 19.327 C 18.418 19.330,18.044 19.097,17.855 18.700 C 17.620 18.202,17.808 17.628,18.553 16.569 C 18.696 16.365,18.833 16.204,18.857 16.212 C 18.881 16.219,19.003 16.368,19.128 16.543 M2.815 21.278 C 2.331 21.393,2.098 22.004,2.383 22.408 C 2.448 22.499,2.572 22.610,2.660 22.656 C 2.818 22.739,2.858 22.740,6.379 22.751 C 8.882 22.759,10.001 22.749,10.152 22.717 C 10.902 22.562,10.930 21.473,10.189 21.286 C 9.979 21.234,3.034 21.226,2.815 21.278 M12.815 21.278 C 12.331 21.393,12.098 22.004,12.383 22.408 C 12.447 22.499,12.572 22.610,12.660 22.656 C 12.813 22.736,12.888 22.741,14.373 22.752 C 16.166 22.766,16.287 22.753,16.519 22.521 C 16.918 22.122,16.731 21.423,16.189 21.286 C 15.981 21.234,13.029 21.227,12.815 21.278 " stroke="none" fill-rule="evenodd" fill="black"></path></svg>