<svg width="24" height="24" viewBox="0 0 24 24" fill="none" xmlns="http://www.w3.org/2000/svg"><path d="M11.560 1.267 C 10.326 1.322,9.152 1.571,8.041 2.012 C 7.427 2.256,7.240 2.454,7.240 2.860 C 7.240 3.229,7.525 3.548,7.892 3.589 C 8.032 3.605,8.152 3.574,8.523 3.428 C 9.718 2.955,10.735 2.760,12.006 2.760 C 13.464 2.760,14.754 3.058,16.060 3.698 C 17.024 4.170,17.648 4.611,18.434 5.378 C 19.273 6.195,19.814 6.937,20.303 7.940 C 20.944 9.253,21.240 10.537,21.240 12.000 C 21.240 13.465,20.943 14.752,20.302 16.060 C 19.830 17.024,19.389 17.648,18.622 18.434 C 17.805 19.273,17.063 19.814,16.060 20.303 C 14.747 20.944,13.463 21.240,12.000 21.240 C 10.537 21.240,9.253 20.944,7.940 20.303 C 6.937 19.814,6.195 19.273,5.378 18.434 C 4.611 17.648,4.170 17.024,3.698 16.060 C 3.058 14.754,2.760 13.464,2.760 12.005 C 2.760 10.060,3.331 8.256,4.457 6.648 C 4.701 6.298,4.770 6.095,4.724 5.855 C 4.656 5.497,4.372 5.267,4.000 5.267 C 3.678 5.267,3.534 5.369,3.222 5.816 C 1.432 8.383,0.834 11.537,1.564 14.550 C 1.904 15.951,2.529 17.268,3.424 18.470 C 3.880 19.083,4.909 20.111,5.530 20.575 C 7.606 22.126,10.070 22.870,12.627 22.717 C 14.790 22.588,16.724 21.879,18.470 20.575 C 19.087 20.115,20.115 19.087,20.575 18.470 C 22.127 16.391,22.870 13.930,22.717 11.373 C 22.588 9.210,21.879 7.276,20.575 5.530 C 20.115 4.913,19.087 3.885,18.470 3.425 C 17.047 2.362,15.454 1.679,13.742 1.398 C 13.325 1.330,12.055 1.227,11.880 1.248 C 11.847 1.252,11.703 1.261,11.560 1.267 M9.900 5.703 C 9.615 5.851,9.480 6.069,9.480 6.380 C 9.480 6.622,9.556 6.786,9.755 6.978 C 9.846 7.065,9.920 7.155,9.920 7.178 C 9.920 7.201,9.100 8.039,8.098 9.040 C 6.212 10.923,5.982 11.187,5.800 11.668 C 5.690 11.957,5.653 12.459,5.718 12.772 C 5.799 13.161,6.039 13.579,6.432 14.020 C 6.892 14.534,8.913 16.534,9.198 16.757 C 9.471 16.970,9.874 17.173,10.155 17.240 C 10.456 17.311,11.039 17.273,11.326 17.163 C 11.811 16.979,12.005 16.807,14.065 14.752 C 15.411 13.409,16.099 12.694,16.156 12.580 C 16.347 12.197,16.347 11.731,16.157 11.352 C 16.039 11.115,10.765 5.829,10.537 5.719 C 10.342 5.624,10.065 5.617,9.900 5.703 M13.969 11.243 C 13.953 11.256,12.752 11.316,11.300 11.377 C 9.848 11.437,8.453 11.496,8.200 11.507 L 7.740 11.529 9.380 9.885 L 11.020 8.240 12.509 9.729 C 13.328 10.548,13.985 11.229,13.969 11.243 M12.500 14.200 C 11.059 15.642,10.873 15.800,10.619 15.800 C 10.369 15.800,10.214 15.670,8.911 14.370 C 8.191 13.652,7.612 13.055,7.623 13.044 C 7.642 13.024,13.018 12.775,13.640 12.765 L 13.940 12.760 12.500 14.200 M16.126 13.508 C 15.765 13.686,14.891 14.971,14.704 15.597 C 14.550 16.117,14.660 16.750,14.979 17.177 C 15.408 17.749,16.039 18.015,16.740 17.918 C 17.768 17.775,18.488 16.751,18.270 15.743 C 18.233 15.576,18.130 15.291,18.040 15.110 C 17.739 14.504,17.034 13.603,16.774 13.495 C 16.597 13.421,16.290 13.427,16.126 13.508 M16.651 15.670 C 16.847 16.044,16.858 16.186,16.702 16.342 C 16.500 16.544,16.120 16.395,16.120 16.113 C 16.120 15.958,16.401 15.400,16.480 15.400 C 16.496 15.400,16.574 15.522,16.651 15.670 " stroke="none" fill-rule="evenodd" fill="black"></path></svg>