<svg width="24" height="24" viewBox="0 0 24 24" fill="none" xmlns="http://www.w3.org/2000/svg"><path d="M8.080 1.282 C 4.042 1.493,1.931 3.265,1.398 6.891 C 1.310 7.494,1.225 8.895,1.264 9.113 C 1.278 9.194,1.325 9.318,1.368 9.389 C 1.658 9.870,2.422 9.836,2.661 9.332 C 2.718 9.212,2.740 9.022,2.765 8.423 C 2.900 5.187,3.905 3.654,6.288 3.044 C 7.337 2.776,7.247 2.780,12.000 2.780 C 15.936 2.780,16.339 2.786,16.760 2.852 C 19.558 3.288,20.712 4.442,21.148 7.240 C 21.214 7.661,21.220 8.064,21.220 12.000 C 21.220 15.936,21.214 16.339,21.148 16.760 C 20.712 19.558,19.558 20.712,16.760 21.148 C 16.339 21.214,15.936 21.220,12.000 21.220 C 8.064 21.220,7.661 21.214,7.240 21.148 C 4.756 20.761,3.576 19.795,3.044 17.712 C 2.820 16.833,2.790 16.496,2.764 14.560 L 2.740 12.780 2.640 12.606 C 2.359 12.114,1.641 12.114,1.360 12.606 C 1.261 12.777,1.260 12.795,1.247 13.840 C 1.224 15.669,1.334 17.076,1.575 18.027 C 2.267 20.757,3.971 22.193,7.027 22.622 C 7.786 22.728,8.902 22.759,12.000 22.759 C 15.098 22.759,16.214 22.728,16.973 22.622 C 19.443 22.275,20.996 21.288,21.897 19.490 C 22.379 18.530,22.638 17.369,22.720 15.807 C 22.771 14.838,22.771 9.162,22.720 8.193 C 22.657 6.998,22.521 6.191,22.242 5.356 C 21.632 3.531,20.469 2.367,18.650 1.760 C 17.788 1.473,17.023 1.344,15.806 1.280 C 14.952 1.235,8.952 1.237,8.080 1.282 M9.695 4.878 C 9.368 4.956,9.147 5.248,9.147 5.600 C 9.147 5.874,9.217 6.003,9.537 6.318 L 9.760 6.537 7.567 8.738 C 6.311 9.999,5.296 11.051,5.192 11.200 C 4.814 11.740,4.678 12.130,4.678 12.680 C 4.677 13.216,4.838 13.686,5.192 14.180 C 5.387 14.453,8.345 17.427,8.727 17.734 C 9.272 18.173,9.757 18.360,10.353 18.360 C 10.870 18.360,11.282 18.228,11.760 17.909 C 12.009 17.743,16.661 13.098,16.776 12.900 C 16.909 12.671,16.975 12.353,16.946 12.074 C 16.890 11.543,17.043 11.716,13.545 8.210 C 11.783 6.445,10.288 4.976,10.221 4.945 C 10.056 4.869,9.845 4.842,9.695 4.878 M14.661 11.473 C 14.634 11.499,6.670 11.843,6.646 11.819 C 6.633 11.807,7.568 10.853,8.722 9.698 L 10.820 7.600 12.748 9.528 C 13.809 10.589,14.670 11.464,14.661 11.473 M12.760 14.854 C 10.791 16.816,10.715 16.880,10.358 16.880 C 9.973 16.880,9.859 16.787,8.110 15.044 C 7.213 14.151,6.480 13.402,6.480 13.379 C 6.480 13.341,13.141 13.018,14.200 13.006 L 14.620 13.001 12.760 14.854 M16.969 14.146 C 16.811 14.224,16.462 14.613,16.112 15.100 C 15.307 16.222,15.089 16.994,15.357 17.772 C 15.553 18.342,16.046 18.834,16.636 19.050 C 16.954 19.167,17.646 19.167,17.964 19.050 C 18.948 18.690,19.528 17.671,19.304 16.700 C 19.219 16.335,18.867 15.633,18.541 15.180 C 18.144 14.627,17.786 14.221,17.630 14.147 C 17.451 14.063,17.140 14.062,16.969 14.146 M17.603 16.471 C 17.838 16.880,17.891 17.051,17.841 17.235 C 17.762 17.528,17.446 17.717,17.160 17.640 C 16.895 17.569,16.688 17.249,16.747 17.003 C 16.782 16.858,16.981 16.467,17.151 16.211 L 17.295 15.994 17.366 16.087 C 17.405 16.138,17.511 16.311,17.603 16.471 " stroke="none" fill-rule="evenodd" fill="black"></path></svg>