<svg width="24" height="24" viewBox="0 0 24 24" fill="none" xmlns="http://www.w3.org/2000/svg"><path d="M4.300 1.266 C 2.679 1.404,1.552 2.540,1.284 4.308 C 1.227 4.679,1.226 6.079,1.283 6.227 C 1.496 6.792,2.342 6.838,2.633 6.300 C 2.685 6.205,2.704 5.999,2.725 5.300 C 2.744 4.710,2.772 4.351,2.813 4.209 C 2.990 3.591,3.339 3.130,3.797 2.912 C 4.024 2.803,4.115 2.784,4.460 2.769 C 4.939 2.749,5.253 2.813,5.778 3.038 C 5.977 3.123,7.157 3.696,8.400 4.310 C 10.115 5.158,10.707 5.469,10.854 5.600 C 11.246 5.951,11.598 6.542,11.700 7.024 C 11.750 7.260,11.759 8.310,11.759 14.270 L 11.760 21.240 7.782 21.240 C 3.837 21.240,3.801 21.239,3.578 21.156 C 3.264 21.038,2.922 20.698,2.806 20.388 L 2.720 20.157 2.720 15.011 L 2.720 9.865 2.635 9.690 C 2.465 9.337,1.997 9.178,1.652 9.354 C 1.450 9.457,1.290 9.643,1.260 9.811 C 1.247 9.882,1.242 12.325,1.248 15.240 L 1.260 20.540 1.353 20.800 C 1.646 21.622,2.358 22.334,3.149 22.597 C 3.286 22.643,3.574 22.699,3.789 22.722 C 4.053 22.750,6.668 22.759,11.840 22.749 C 18.856 22.736,19.529 22.729,19.840 22.666 C 21.452 22.344,22.304 21.498,22.627 19.900 C 22.693 19.574,22.700 19.296,22.700 16.980 C 22.700 15.063,22.687 14.350,22.648 14.140 C 22.488 13.266,22.085 12.547,21.492 12.076 C 20.820 11.542,20.470 11.421,18.052 10.882 C 15.315 10.273,13.388 9.840,13.313 9.817 C 13.251 9.798,13.244 9.661,13.230 8.308 C 13.216 6.905,13.210 6.803,13.125 6.523 C 12.850 5.611,12.232 4.721,11.544 4.246 C 11.272 4.057,9.440 3.136,7.120 2.020 C 6.218 1.587,5.755 1.412,5.280 1.326 C 5.015 1.278,4.520 1.248,4.300 1.266 M5.420 8.259 C 5.398 8.267,5.331 8.284,5.271 8.297 C 5.124 8.329,4.881 8.548,4.814 8.708 C 4.691 9.002,4.771 9.336,5.015 9.550 C 5.095 9.621,5.211 9.693,5.271 9.709 C 5.412 9.749,9.066 9.750,9.207 9.710 C 9.465 9.638,9.717 9.292,9.719 9.009 C 9.721 8.747,9.546 8.462,9.300 8.326 C 9.194 8.268,8.966 8.259,7.320 8.252 C 6.297 8.248,5.442 8.251,5.420 8.259 M15.250 11.807 L 16.720 12.134 16.720 13.557 C 16.719 15.135,16.711 15.199,16.463 15.573 C 16.300 15.818,16.077 16.009,15.809 16.133 C 15.655 16.204,15.547 16.220,15.220 16.220 C 14.872 16.220,14.791 16.206,14.600 16.116 C 14.352 15.999,14.095 15.766,13.936 15.513 C 13.731 15.189,13.721 15.079,13.720 13.210 C 13.720 12.258,13.733 11.480,13.750 11.479 C 13.767 11.479,14.442 11.626,15.250 11.807 M5.420 12.259 C 5.398 12.267,5.331 12.284,5.271 12.297 C 5.124 12.329,4.881 12.548,4.814 12.708 C 4.691 13.002,4.771 13.336,5.015 13.550 C 5.095 13.621,5.211 13.693,5.271 13.709 C 5.412 13.749,9.066 13.750,9.207 13.710 C 9.465 13.638,9.717 13.292,9.719 13.009 C 9.721 12.747,9.546 12.462,9.300 12.326 C 9.194 12.268,8.966 12.259,7.320 12.252 C 6.297 12.248,5.442 12.251,5.420 12.259 M18.990 12.644 C 20.010 12.880,20.351 13.031,20.694 13.398 C 20.799 13.510,20.928 13.699,20.980 13.816 C 21.094 14.074,21.200 14.563,21.200 14.831 C 21.200 15.357,20.852 15.867,20.325 16.115 C 20.131 16.205,20.047 16.220,19.719 16.220 C 19.370 16.220,19.316 16.209,19.072 16.089 C 18.772 15.941,18.501 15.670,18.353 15.369 C 18.262 15.184,18.260 15.151,18.248 13.830 C 18.242 13.088,18.247 12.480,18.258 12.480 C 18.270 12.480,18.599 12.554,18.990 12.644 M18.040 17.227 C 18.562 17.583,19.045 17.726,19.720 17.726 C 20.231 17.726,20.643 17.641,20.995 17.463 C 21.106 17.406,21.210 17.360,21.225 17.360 C 21.277 17.360,21.207 19.448,21.144 19.729 C 20.979 20.476,20.629 20.878,19.943 21.111 L 19.620 21.220 16.430 21.232 L 13.240 21.243 13.240 19.142 C 13.240 17.986,13.250 17.040,13.262 17.040 C 13.275 17.040,13.369 17.104,13.472 17.183 C 13.949 17.547,14.529 17.728,15.220 17.728 C 15.744 17.728,16.102 17.653,16.508 17.458 C 16.795 17.319,17.388 16.878,17.428 16.773 C 17.443 16.734,17.511 16.775,17.655 16.911 C 17.768 17.017,17.941 17.159,18.040 17.227 " stroke="none" fill-rule="evenodd" fill="black"></path></svg>