<svg width="24" height="24" viewBox="0 0 24 24" fill="none" xmlns="http://www.w3.org/2000/svg"><path d="M12.498 1.280 C 11.499 1.366,10.755 1.685,10.197 2.267 C 9.948 2.526,9.691 2.900,9.605 3.128 L 9.565 3.232 8.053 3.250 C 6.639 3.267,6.520 3.274,6.240 3.357 C 5.349 3.619,4.612 4.357,4.359 5.240 C 4.287 5.491,4.270 5.684,4.251 6.426 L 4.229 7.311 4.025 7.338 C 3.912 7.353,3.658 7.419,3.460 7.484 C 2.078 7.944,1.308 9.109,1.270 10.800 C 1.261 11.179,1.269 11.234,1.353 11.369 C 1.710 11.943,2.576 11.812,2.716 11.162 C 2.740 11.049,2.760 10.853,2.761 10.728 C 2.763 9.935,3.148 9.246,3.738 8.976 C 4.187 8.770,4.315 8.761,6.870 8.761 L 9.240 8.760 9.240 14.031 C 9.240 17.405,9.255 19.424,9.281 19.641 C 9.338 20.109,9.459 20.560,9.622 20.913 C 9.698 21.077,9.760 21.218,9.760 21.226 C 9.760 21.234,8.577 21.240,7.130 21.239 C 4.245 21.239,4.170 21.233,3.696 21.001 C 3.401 20.856,3.112 20.559,2.976 20.262 C 2.772 19.816,2.761 19.674,2.761 17.272 C 2.760 15.798,2.745 14.974,2.716 14.838 C 2.575 14.182,1.713 14.051,1.353 14.631 L 1.260 14.780 1.261 17.180 C 1.261 19.279,1.270 19.626,1.330 19.948 C 1.574 21.250,2.307 22.133,3.460 22.515 C 4.164 22.748,3.848 22.740,12.040 22.740 C 19.038 22.740,19.606 22.735,19.948 22.670 C 21.253 22.423,22.134 21.692,22.515 20.540 C 22.748 19.836,22.740 20.148,22.740 12.000 C 22.740 3.852,22.748 4.164,22.515 3.460 C 22.209 2.535,21.547 1.849,20.644 1.519 C 19.953 1.267,19.995 1.270,16.260 1.259 C 14.390 1.253,12.697 1.263,12.498 1.280 M19.773 2.819 C 20.552 2.984,21.017 3.447,21.180 4.220 C 21.267 4.637,21.269 19.359,21.181 19.773 C 20.974 20.750,20.293 21.237,19.133 21.239 L 18.766 21.240 18.750 19.450 C 18.731 17.509,18.729 17.486,18.499 17.114 C 18.342 16.862,18.131 16.653,17.880 16.503 C 17.496 16.274,17.390 16.260,16.000 16.260 C 14.610 16.260,14.504 16.274,14.120 16.503 C 13.869 16.653,13.658 16.862,13.501 17.114 C 13.270 17.488,13.268 17.508,13.250 19.450 L 13.234 21.240 12.927 21.239 C 12.549 21.237,12.098 21.158,11.780 21.038 C 11.447 20.912,11.087 20.552,10.963 20.220 C 10.753 19.660,10.760 19.953,10.761 11.986 C 10.761 4.868,10.764 4.566,10.837 4.212 C 10.879 4.009,10.963 3.752,11.023 3.641 C 11.246 3.232,11.672 2.938,12.208 2.821 C 12.591 2.738,19.382 2.736,19.773 2.819 M9.240 6.000 L 9.240 7.240 7.500 7.240 L 5.760 7.240 5.760 6.502 C 5.760 5.610,5.803 5.449,6.126 5.126 C 6.476 4.776,6.533 4.765,7.990 4.762 L 9.240 4.760 9.240 6.000 M13.815 7.277 C 13.638 7.321,13.461 7.456,13.353 7.631 L 13.260 7.780 13.260 10.500 L 13.260 13.220 13.353 13.369 C 13.710 13.943,14.576 13.812,14.716 13.162 C 14.775 12.888,14.775 8.095,14.717 7.841 C 14.623 7.432,14.215 7.177,13.815 7.277 M17.815 7.277 C 17.638 7.321,17.461 7.456,17.353 7.631 L 17.260 7.780 17.260 10.500 L 17.260 13.220 17.353 13.369 C 17.710 13.943,18.576 13.812,18.716 13.162 C 18.775 12.888,18.775 8.095,18.717 7.841 C 18.623 7.432,18.215 7.177,17.815 7.277 M5.815 12.277 C 5.638 12.321,5.461 12.456,5.353 12.631 L 5.260 12.780 5.260 15.000 L 5.260 17.220 5.353 17.369 C 5.710 17.943,6.576 17.812,6.716 17.162 C 6.774 16.891,6.775 13.093,6.717 12.841 C 6.623 12.432,6.215 12.177,5.815 12.277 M17.167 17.826 C 17.235 17.888,17.240 17.995,17.240 19.566 L 17.240 21.240 16.000 21.240 L 14.760 21.240 14.760 19.573 C 14.760 18.078,14.767 17.899,14.826 17.833 C 14.887 17.766,14.978 17.760,15.993 17.760 C 16.961 17.760,17.103 17.768,17.167 17.826 " stroke="none" fill-rule="evenodd" fill="black"></path></svg>