<svg width="24" height="24" viewBox="0 0 24 24" fill="none" xmlns="http://www.w3.org/2000/svg"><path d="M3.720 1.280 C 2.177 1.444,1.305 2.405,1.270 3.977 C 1.263 4.298,1.274 4.360,1.361 4.514 C 1.635 4.999,2.362 5.006,2.631 4.527 C 2.697 4.410,2.732 4.255,2.760 3.953 C 2.825 3.263,3.079 2.915,3.601 2.803 C 3.881 2.744,8.719 2.744,8.999 2.803 C 9.311 2.870,9.556 3.057,9.699 3.337 L 9.820 3.574 9.833 4.401 L 9.847 5.227 9.188 5.253 C 7.953 5.302,7.375 5.506,6.773 6.107 C 6.543 6.335,6.449 6.469,6.306 6.767 C 5.962 7.484,5.985 7.087,5.971 12.473 L 5.958 17.245 4.766 17.233 L 3.574 17.220 3.337 17.099 C 3.057 16.956,2.870 16.711,2.803 16.399 C 2.774 16.260,2.760 14.908,2.760 12.140 C 2.760 9.329,2.746 8.021,2.716 7.878 C 2.575 7.222,1.713 7.091,1.353 7.671 L 1.260 7.820 1.260 12.080 C 1.260 15.956,1.266 16.368,1.329 16.647 C 1.575 17.754,2.225 18.415,3.311 18.663 C 3.504 18.707,3.914 18.731,4.766 18.748 L 5.952 18.770 5.969 19.515 C 5.990 20.399,6.049 20.697,6.306 21.233 C 6.591 21.828,7.121 22.306,7.735 22.521 C 8.340 22.734,8.272 22.730,11.678 22.749 C 14.969 22.766,15.525 22.748,16.061 22.608 C 16.854 22.400,17.479 21.884,17.807 21.169 C 18.013 20.718,18.083 20.335,18.108 19.515 L 18.131 18.771 19.275 18.747 C 20.087 18.731,20.498 18.707,20.689 18.663 C 21.774 18.415,22.425 17.754,22.671 16.647 C 22.735 16.364,22.740 15.840,22.740 10.000 C 22.740 4.160,22.735 3.636,22.671 3.353 C 22.421 2.230,21.770 1.579,20.647 1.329 C 20.374 1.268,20.047 1.260,17.700 1.260 C 15.353 1.260,15.026 1.268,14.753 1.329 C 14.015 1.493,13.510 1.810,13.151 2.335 C 12.790 2.862,12.683 3.313,12.651 4.430 L 12.628 5.240 12.000 5.240 L 11.372 5.240 11.349 4.430 C 11.335 3.935,11.302 3.508,11.264 3.331 C 11.072 2.438,10.568 1.809,9.795 1.495 C 9.246 1.272,9.221 1.270,6.520 1.259 C 5.145 1.253,3.885 1.262,3.720 1.280 M20.663 2.901 C 20.943 3.044,21.130 3.289,21.197 3.601 C 21.258 3.886,21.258 16.114,21.197 16.399 C 21.130 16.711,20.943 16.956,20.663 17.099 L 20.426 17.220 19.274 17.233 L 18.123 17.245 18.110 12.493 L 18.097 7.740 18.007 7.401 C 17.775 6.527,17.313 5.940,16.580 5.585 C 16.097 5.351,15.464 5.243,14.567 5.241 L 14.153 5.240 14.167 4.407 L 14.180 3.574 14.301 3.339 C 14.439 3.068,14.650 2.897,14.947 2.817 C 15.099 2.775,15.703 2.766,17.783 2.772 L 20.426 2.780 20.663 2.901 M15.813 6.874 C 16.104 6.992,16.298 7.159,16.417 7.396 C 16.628 7.817,16.620 7.572,16.620 14.000 C 16.620 20.428,16.628 20.183,16.417 20.604 C 16.298 20.841,16.104 21.009,15.813 21.125 C 15.587 21.216,15.540 21.219,14.170 21.232 L 12.760 21.245 12.760 20.144 C 12.760 18.859,12.737 18.697,12.522 18.482 C 12.173 18.133,11.619 18.203,11.353 18.631 C 11.262 18.777,11.260 18.804,11.247 20.012 L 11.235 21.245 9.867 21.232 C 8.540 21.219,8.493 21.216,8.265 21.125 C 7.822 20.947,7.568 20.608,7.482 20.077 C 7.426 19.730,7.425 8.278,7.481 7.932 C 7.556 7.466,7.774 7.116,8.086 6.957 C 8.468 6.762,8.431 6.764,12.120 6.772 L 15.580 6.780 15.813 6.874 M9.815 10.278 C 9.331 10.393,9.098 11.004,9.383 11.408 C 9.447 11.499,9.572 11.610,9.660 11.656 C 9.815 11.738,9.880 11.740,11.875 11.752 C 14.208 11.765,14.281 11.759,14.519 11.521 C 14.918 11.122,14.731 10.423,14.189 10.286 C 13.980 10.234,10.031 10.226,9.815 10.278 M9.815 13.278 C 9.331 13.393,9.098 14.004,9.383 14.408 C 9.447 14.499,9.572 14.610,9.660 14.656 C 9.815 14.738,9.880 14.740,11.875 14.752 C 14.208 14.765,14.281 14.759,14.519 14.521 C 14.918 14.122,14.731 13.423,14.189 13.286 C 13.980 13.234,10.031 13.226,9.815 13.278 " stroke="none" fill-rule="evenodd" fill="black"></path></svg>