<svg width="24" height="24" viewBox="0 0 24 24" fill="none" xmlns="http://www.w3.org/2000/svg"><path d="M4.577 2.280 C 2.620 2.448,1.481 3.650,1.373 5.662 C 1.339 6.286,1.435 6.529,1.777 6.684 C 2.188 6.871,2.671 6.673,2.794 6.268 C 2.815 6.197,2.844 5.968,2.857 5.757 C 2.913 4.854,3.187 4.323,3.748 4.030 C 4.285 3.750,4.187 3.756,8.340 3.769 L 12.060 3.780 12.320 3.873 C 12.973 4.107,13.251 4.414,13.468 5.140 C 13.535 5.366,13.540 5.829,13.550 13.310 L 13.562 21.240 11.281 21.240 L 9.000 21.240 9.000 19.679 C 9.000 18.030,8.992 17.950,8.808 17.747 C 8.621 17.540,8.219 17.459,7.949 17.575 C 7.793 17.642,7.620 17.819,7.563 17.973 C 7.535 18.045,7.520 18.645,7.520 19.663 L 7.520 21.240 5.180 21.240 L 2.840 21.240 2.840 15.538 C 2.840 10.013,2.838 9.832,2.764 9.688 C 2.617 9.402,2.414 9.280,2.087 9.280 C 1.852 9.280,1.661 9.376,1.503 9.574 L 1.380 9.727 1.370 15.478 L 1.359 21.229 1.056 21.251 C 0.540 21.290,0.267 21.552,0.267 22.007 C 0.267 22.203,0.286 22.270,0.383 22.408 C 0.448 22.499,0.572 22.610,0.660 22.656 L 0.820 22.740 11.880 22.751 C 19.826 22.758,23.000 22.749,23.154 22.717 C 23.722 22.600,23.933 21.893,23.522 21.482 C 23.297 21.257,23.175 21.240,21.762 21.240 L 20.519 21.240 20.530 19.734 L 20.540 18.228 20.740 18.160 C 21.685 17.838,22.442 17.010,22.667 16.051 C 22.731 15.778,22.740 15.553,22.739 14.200 C 22.738 12.533,22.725 12.404,22.504 11.905 C 22.183 11.179,21.484 10.538,20.745 10.292 C 20.449 10.194,20.365 10.184,19.800 10.183 C 19.229 10.182,19.154 10.191,18.855 10.291 C 17.963 10.591,17.205 11.392,16.952 12.303 C 16.869 12.604,16.864 12.698,16.862 14.180 C 16.860 15.950,16.879 16.109,17.161 16.671 C 17.508 17.364,18.190 17.958,18.870 18.162 L 19.040 18.213 19.040 19.726 L 19.040 21.240 17.041 21.240 L 15.042 21.240 15.029 13.210 C 15.017 5.943,15.010 5.155,14.951 4.920 C 14.587 3.470,13.785 2.671,12.379 2.356 C 11.984 2.268,11.942 2.267,8.460 2.258 C 6.524 2.253,4.777 2.263,4.577 2.280 M5.419 7.617 C 5.012 7.861,4.944 8.468,5.287 8.788 C 5.517 9.003,5.470 9.000,8.280 9.000 C 11.052 9.000,11.040 9.001,11.253 8.808 C 11.460 8.621,11.541 8.219,11.425 7.949 C 11.358 7.793,11.181 7.620,11.027 7.563 C 10.952 7.534,10.036 7.520,8.247 7.520 L 5.580 7.521 5.419 7.617 M5.607 11.287 C 5.368 11.341,5.141 11.573,5.089 11.816 C 4.996 12.252,5.232 12.631,5.650 12.718 C 5.801 12.749,6.637 12.759,8.403 12.751 L 10.940 12.740 11.120 12.634 C 11.606 12.348,11.606 11.652,11.120 11.366 L 10.940 11.260 8.360 11.254 C 6.788 11.250,5.712 11.263,5.607 11.287 M20.223 11.703 C 20.626 11.820,21.007 12.180,21.160 12.589 C 21.239 12.801,21.242 12.876,21.231 14.275 L 21.220 15.740 21.113 15.968 C 20.977 16.259,20.699 16.537,20.408 16.673 C 20.211 16.765,20.128 16.780,19.800 16.780 C 19.472 16.780,19.389 16.765,19.192 16.673 C 18.901 16.537,18.623 16.259,18.487 15.968 L 18.380 15.740 18.369 14.275 C 18.358 12.876,18.361 12.801,18.440 12.589 C 18.708 11.873,19.484 11.488,20.223 11.703 " stroke="none" fill-rule="evenodd" fill="black"></path></svg>