<svg width="24" height="24" viewBox="0 0 24 24" fill="none" xmlns="http://www.w3.org/2000/svg"><path d="M6.676 1.284 C 5.193 1.427,3.891 2.512,3.425 3.992 C 3.246 4.560,3.236 4.905,3.248 10.220 L 3.260 15.180 3.353 15.329 C 3.710 15.903,4.576 15.772,4.716 15.122 C 4.740 15.009,4.760 14.627,4.760 14.273 L 4.760 13.631 4.850 13.656 C 5.178 13.749,5.866 13.762,9.900 13.751 L 14.220 13.740 14.400 13.634 C 14.886 13.348,14.886 12.652,14.400 12.366 L 14.220 12.260 9.714 12.240 L 5.207 12.220 5.058 12.099 C 4.757 11.855,4.757 11.855,4.769 10.454 L 4.780 9.207 4.901 9.058 C 4.968 8.976,5.084 8.875,5.160 8.834 C 5.294 8.763,5.549 8.760,12.000 8.760 C 18.451 8.760,18.706 8.763,18.840 8.834 C 18.916 8.875,19.032 8.976,19.099 9.058 L 19.220 9.207 19.231 10.454 C 19.241 11.610,19.237 11.710,19.167 11.839 C 19.040 12.074,18.848 12.198,18.537 12.246 C 18.219 12.295,18.104 12.347,17.953 12.506 C 17.691 12.783,17.691 13.217,17.953 13.493 C 18.083 13.631,18.174 13.682,18.358 13.724 C 18.488 13.753,18.942 13.714,19.150 13.656 L 19.240 13.631 19.240 16.440 C 19.240 19.535,19.243 19.491,18.988 19.980 C 18.823 20.296,18.296 20.823,17.980 20.988 C 17.471 21.254,17.792 21.240,12.000 21.240 C 6.208 21.240,6.529 21.254,6.020 20.988 C 5.694 20.818,5.167 20.292,5.010 19.980 C 4.849 19.661,4.803 19.491,4.759 19.050 C 4.719 18.650,4.669 18.519,4.494 18.353 C 4.217 18.091,3.783 18.091,3.507 18.353 C 3.277 18.570,3.234 18.750,3.284 19.284 C 3.454 21.089,4.917 22.542,6.743 22.719 C 7.269 22.770,16.731 22.770,17.257 22.719 C 19.095 22.541,20.541 21.095,20.719 19.257 C 20.771 18.726,20.771 5.274,20.719 4.743 C 20.541 2.905,19.095 1.459,17.257 1.281 C 16.771 1.233,7.168 1.237,6.676 1.284 M17.494 2.823 C 17.629 2.858,17.848 2.943,17.980 3.012 C 18.296 3.177,18.823 3.704,18.988 4.020 C 19.222 4.468,19.240 4.614,19.240 6.060 L 19.240 7.369 19.130 7.340 C 18.799 7.254,17.951 7.243,12.000 7.243 C 6.049 7.243,5.201 7.254,4.870 7.340 L 4.760 7.369 4.760 6.060 C 4.760 4.620,4.777 4.483,5.008 4.023 C 5.165 3.713,5.697 3.173,6.000 3.018 C 6.525 2.750,6.144 2.766,11.974 2.763 C 16.663 2.760,17.276 2.767,17.494 2.823 M9.420 4.259 C 9.398 4.267,9.331 4.284,9.271 4.297 C 9.124 4.329,8.881 4.548,8.814 4.708 C 8.691 5.002,8.771 5.336,9.015 5.550 C 9.095 5.621,9.211 5.693,9.271 5.709 C 9.413 5.749,14.587 5.749,14.729 5.709 C 14.881 5.667,15.121 5.447,15.186 5.292 C 15.297 5.027,15.241 4.711,15.047 4.506 C 14.802 4.247,14.961 4.261,12.080 4.252 C 10.639 4.248,9.442 4.251,9.420 4.259 M8.276 16.482 C 7.604 16.591,7.147 17.258,7.280 17.935 C 7.397 18.533,7.886 18.929,8.506 18.929 C 9.207 18.929,9.733 18.402,9.733 17.700 C 9.733 16.919,9.058 16.354,8.276 16.482 M15.276 16.482 C 14.604 16.591,14.147 17.258,14.280 17.935 C 14.397 18.533,14.886 18.929,15.506 18.929 C 16.207 18.929,16.733 18.402,16.733 17.700 C 16.733 16.919,16.058 16.354,15.276 16.482 " stroke="none" fill-rule="evenodd" fill="black"></path></svg>