<svg width="24" height="24" viewBox="0 0 24 24" fill="none" xmlns="http://www.w3.org/2000/svg"><path d="M11.815 1.277 C 11.638 1.321,11.461 1.456,11.353 1.631 C 11.262 1.777,11.260 1.804,11.247 3.010 L 11.235 4.240 9.997 4.240 L 8.760 4.240 8.760 3.642 C 8.760 2.881,8.718 2.678,8.522 2.482 C 8.173 2.133,7.619 2.203,7.353 2.631 C 7.266 2.770,7.259 2.833,7.240 3.554 L 7.220 4.328 6.940 4.417 C 6.396 4.591,5.982 4.856,5.573 5.294 C 5.258 5.632,5.047 6.000,4.917 6.441 C 4.835 6.718,4.827 6.844,4.810 8.152 L 4.792 9.563 4.506 9.707 C 3.482 10.222,2.772 11.072,2.471 12.140 L 2.381 12.460 2.369 16.844 L 2.357 21.229 2.055 21.252 C 1.540 21.290,1.267 21.553,1.267 22.007 C 1.267 22.203,1.286 22.270,1.383 22.408 C 1.447 22.499,1.572 22.610,1.660 22.656 L 1.820 22.740 11.880 22.751 C 19.099 22.758,22.000 22.749,22.154 22.717 C 22.722 22.600,22.933 21.893,22.522 21.482 C 22.359 21.319,22.131 21.240,21.824 21.240 L 21.643 21.240 21.631 16.850 L 21.619 12.460 21.529 12.140 C 21.228 11.072,20.518 10.222,19.494 9.707 L 19.208 9.563 19.190 8.152 C 19.169 6.571,19.160 6.507,18.876 5.927 C 18.540 5.240,17.782 4.615,17.027 4.403 L 16.780 4.333 16.759 3.576 C 16.736 2.737,16.701 2.600,16.464 2.421 C 16.095 2.142,15.599 2.235,15.353 2.631 C 15.266 2.770,15.259 2.829,15.246 3.510 L 15.232 4.240 13.996 4.240 L 12.760 4.240 12.759 3.130 C 12.758 1.954,12.734 1.738,12.580 1.536 C 12.421 1.327,12.078 1.211,11.815 1.277 M16.808 5.930 C 17.024 6.037,17.175 6.149,17.331 6.317 C 17.670 6.684,17.680 6.733,17.680 8.082 L 17.680 9.230 17.437 9.277 C 16.993 9.365,16.753 9.735,16.849 10.184 C 16.927 10.548,17.264 10.759,17.772 10.761 C 18.070 10.762,18.491 10.874,18.837 11.044 C 19.091 11.170,19.248 11.284,19.481 11.515 C 19.896 11.927,20.065 12.266,20.127 12.811 C 20.152 13.026,20.164 13.209,20.156 13.217 C 20.147 13.225,19.979 13.252,19.782 13.276 C 19.314 13.332,18.926 13.513,18.599 13.824 C 18.126 14.275,17.964 14.652,17.931 15.372 C 17.913 15.764,17.894 15.866,17.824 15.969 C 17.683 16.176,17.552 16.249,17.320 16.249 C 17.088 16.249,16.957 16.176,16.816 15.969 C 16.746 15.866,16.727 15.764,16.709 15.372 C 16.676 14.652,16.514 14.275,16.041 13.824 C 15.254 13.073,13.986 13.073,13.199 13.824 C 12.726 14.275,12.564 14.652,12.531 15.372 C 12.507 15.882,12.463 16.002,12.234 16.171 C 12.089 16.278,11.751 16.278,11.606 16.171 C 11.378 16.002,11.320 15.860,11.319 15.464 C 11.318 14.735,11.161 14.323,10.715 13.870 C 10.244 13.393,9.653 13.195,8.960 13.283 C 8.220 13.376,7.526 13.945,7.280 14.661 C 7.174 14.968,7.136 15.386,7.197 15.571 C 7.299 15.880,7.573 16.080,7.896 16.080 C 8.128 16.080,8.270 16.024,8.429 15.870 C 8.569 15.736,8.620 15.611,8.664 15.302 C 8.685 15.151,8.727 15.067,8.843 14.942 C 8.990 14.785,9.002 14.780,9.254 14.780 C 9.475 14.780,9.530 14.795,9.622 14.880 C 9.792 15.037,9.840 15.198,9.840 15.610 C 9.840 16.274,10.002 16.681,10.445 17.130 C 11.265 17.961,12.575 17.961,13.395 17.130 C 13.821 16.698,13.999 16.273,14.001 15.682 C 14.002 15.258,14.050 15.091,14.218 14.923 C 14.353 14.788,14.377 14.780,14.620 14.780 C 14.863 14.780,14.887 14.788,15.022 14.923 C 15.190 15.091,15.238 15.258,15.239 15.682 C 15.241 16.273,15.419 16.698,15.845 17.130 C 16.665 17.961,17.975 17.961,18.795 17.130 C 19.221 16.698,19.399 16.273,19.401 15.682 C 19.402 15.262,19.450 15.091,19.613 14.928 C 19.726 14.815,19.791 14.785,19.956 14.769 L 20.160 14.750 20.160 17.995 L 20.160 21.240 12.000 21.240 L 3.840 21.240 3.850 17.990 L 3.860 14.740 3.980 14.752 C 4.130 14.768,4.273 14.868,4.390 15.040 C 4.466 15.151,4.480 15.226,4.481 15.516 C 4.481 15.705,4.507 15.982,4.539 16.131 C 4.723 17.000,5.499 17.681,6.383 17.749 C 6.832 17.783,7.102 17.656,7.244 17.343 C 7.444 16.904,7.183 16.370,6.736 16.301 C 6.661 16.289,6.534 16.270,6.453 16.257 C 6.266 16.227,6.063 16.029,6.004 15.818 C 5.980 15.731,5.960 15.515,5.960 15.338 C 5.960 14.965,5.882 14.630,5.729 14.343 C 5.597 14.094,5.166 13.655,4.910 13.507 C 4.703 13.387,4.187 13.240,3.974 13.240 C 3.849 13.240,3.840 13.231,3.841 13.110 C 3.847 12.083,4.528 11.210,5.600 10.855 C 5.805 10.787,6.084 10.780,9.660 10.761 C 13.888 10.738,13.599 10.756,13.847 10.494 C 14.109 10.217,14.109 9.783,13.847 9.506 C 13.599 9.244,13.864 9.261,9.910 9.249 L 6.320 9.238 6.320 8.086 C 6.320 6.748,6.332 6.685,6.650 6.337 C 6.870 6.096,7.106 5.941,7.417 5.835 C 7.606 5.770,7.933 5.765,12.062 5.772 L 16.504 5.780 16.808 5.930 " stroke="none" fill-rule="evenodd" fill="black"></path></svg>