<svg width="24" height="24" viewBox="0 0 24 24" fill="none" xmlns="http://www.w3.org/2000/svg"><path d="M9.080 1.282 C 5.042 1.493,2.931 3.265,2.398 6.891 C 2.310 7.494,2.225 8.895,2.264 9.113 C 2.278 9.194,2.325 9.318,2.368 9.389 C 2.658 9.870,3.422 9.836,3.661 9.332 C 3.718 9.212,3.740 9.022,3.765 8.423 C 3.900 5.187,4.905 3.654,7.288 3.044 C 8.309 2.783,8.361 2.780,12.000 2.780 C 14.975 2.780,15.345 2.787,15.760 2.852 C 18.558 3.288,19.712 4.442,20.148 7.240 C 20.214 7.661,20.220 8.064,20.220 12.000 C 20.220 15.936,20.214 16.339,20.148 16.760 C 19.712 19.558,18.558 20.712,15.760 21.148 C 15.345 21.213,14.975 21.220,12.000 21.220 C 8.366 21.220,8.353 21.219,7.312 20.960 C 5.489 20.506,4.509 19.532,4.044 17.712 C 3.820 16.833,3.790 16.496,3.764 14.560 L 3.740 12.780 3.640 12.606 C 3.359 12.114,2.641 12.114,2.360 12.606 C 2.261 12.777,2.260 12.795,2.247 13.840 C 2.224 15.669,2.334 17.076,2.575 18.027 C 3.267 20.757,4.971 22.193,8.027 22.622 C 8.731 22.721,9.846 22.759,12.000 22.759 C 15.375 22.759,16.369 22.668,17.644 22.242 C 19.966 21.466,21.225 19.797,21.622 16.973 C 21.728 16.214,21.759 15.098,21.759 12.000 C 21.759 8.902,21.728 7.786,21.622 7.027 C 21.359 5.157,20.686 3.741,19.641 2.857 C 18.477 1.874,17.011 1.396,14.806 1.280 C 13.955 1.235,9.952 1.237,9.080 1.282 M8.679 5.358 C 7.801 5.475,7.025 6.181,6.820 7.050 C 6.738 7.397,6.738 8.763,6.820 9.110 C 6.993 9.842,7.611 10.503,8.338 10.731 C 8.620 10.820,8.622 10.820,12.000 10.820 C 15.378 10.820,15.380 10.820,15.662 10.731 C 16.389 10.503,17.007 9.842,17.180 9.110 C 17.262 8.762,17.262 7.397,17.180 7.049 C 17.007 6.316,16.417 5.678,15.683 5.430 C 15.421 5.342,15.411 5.342,12.160 5.335 C 10.367 5.331,8.801 5.342,8.679 5.358 M15.405 6.955 C 15.482 7.008,15.588 7.116,15.642 7.195 C 15.734 7.332,15.741 7.378,15.754 7.995 C 15.765 8.530,15.755 8.681,15.701 8.822 C 15.621 9.033,15.371 9.267,15.192 9.299 C 15.120 9.313,13.635 9.318,11.893 9.312 C 8.764 9.300,8.724 9.299,8.615 9.217 C 8.554 9.172,8.450 9.067,8.382 8.984 L 8.260 8.833 8.246 8.231 C 8.239 7.900,8.244 7.553,8.258 7.460 C 8.288 7.262,8.508 6.979,8.697 6.896 C 8.797 6.852,9.418 6.844,12.043 6.851 L 15.266 6.860 15.405 6.955 M7.880 13.035 C 7.583 13.132,7.328 13.355,7.222 13.609 C 7.188 13.691,7.160 13.867,7.160 14.000 C 7.160 14.286,7.236 14.490,7.412 14.674 C 7.625 14.896,7.821 14.978,8.140 14.978 C 8.459 14.978,8.655 14.896,8.868 14.674 C 9.041 14.493,9.128 14.268,9.128 14.000 C 9.128 13.615,8.929 13.290,8.583 13.112 C 8.411 13.024,8.039 12.983,7.880 13.035 M11.689 13.056 C 11.452 13.134,11.262 13.289,11.131 13.511 C 11.036 13.672,11.020 13.744,11.020 14.000 C 11.020 14.257,11.036 14.327,11.133 14.492 C 11.356 14.871,11.789 15.060,12.217 14.964 C 12.929 14.805,13.232 13.975,12.789 13.394 C 12.549 13.080,12.069 12.932,11.689 13.056 M15.600 13.035 C 15.303 13.132,15.048 13.355,14.942 13.609 C 14.908 13.691,14.880 13.867,14.880 14.000 C 14.880 14.286,14.956 14.490,15.132 14.674 C 15.345 14.896,15.541 14.978,15.860 14.978 C 16.179 14.978,16.375 14.896,16.588 14.674 C 16.764 14.490,16.840 14.286,16.840 14.000 C 16.840 13.600,16.654 13.293,16.303 13.112 C 16.131 13.024,15.759 12.983,15.600 13.035 M7.686 16.623 C 7.320 16.808,7.139 17.141,7.167 17.580 C 7.188 17.907,7.344 18.169,7.618 18.339 C 7.794 18.448,7.847 18.460,8.140 18.460 C 8.434 18.460,8.486 18.448,8.662 18.339 C 9.289 17.951,9.290 17.049,8.663 16.662 C 8.503 16.563,8.416 16.539,8.184 16.528 C 7.939 16.517,7.870 16.530,7.686 16.623 M11.600 16.584 C 11.267 16.728,11.001 17.135,11.001 17.500 C 11.001 17.870,11.270 18.277,11.609 18.418 C 11.691 18.452,11.867 18.480,12.000 18.480 C 12.419 18.480,12.722 18.286,12.905 17.900 C 13.009 17.679,13.026 17.436,12.953 17.192 C 12.891 16.987,12.625 16.688,12.422 16.595 C 12.222 16.504,11.797 16.498,11.600 16.584 M15.397 16.631 C 15.256 16.704,15.136 16.809,15.042 16.940 C 14.904 17.131,14.900 17.148,14.900 17.500 C 14.900 17.852,14.904 17.869,15.042 18.060 C 15.443 18.619,16.273 18.625,16.670 18.071 C 17.137 17.421,16.667 16.520,15.860 16.520 C 15.663 16.520,15.563 16.544,15.397 16.631 " stroke="none" fill-rule="evenodd" fill="black"></path></svg>