<svg width="24" height="24" viewBox="0 0 24 24" fill="none" xmlns="http://www.w3.org/2000/svg"><path d="M7.815 1.277 C 7.638 1.321,7.461 1.456,7.354 1.630 C 7.274 1.759,7.260 1.843,7.247 2.284 L 7.231 2.791 6.985 2.817 C 4.811 3.046,3.215 4.278,2.584 6.212 C 2.290 7.113,2.230 7.964,2.247 11.040 C 2.261 13.521,2.250 13.405,2.506 13.647 C 2.647 13.781,2.799 13.840,3.000 13.840 C 3.201 13.840,3.353 13.781,3.494 13.647 C 3.746 13.409,3.739 13.464,3.752 11.570 L 3.764 9.840 12.002 9.840 L 20.240 9.840 20.240 12.320 C 20.240 13.684,20.230 14.800,20.219 14.800 C 20.207 14.800,20.157 14.775,20.109 14.744 C 20.060 14.713,19.849 14.624,19.640 14.547 C 17.900 13.903,15.957 14.329,14.643 15.643 C 13.255 17.032,12.865 19.101,13.651 20.912 L 13.796 21.244 10.408 21.230 L 7.020 21.216 6.595 21.111 C 5.805 20.916,5.282 20.642,4.820 20.180 C 4.170 19.530,3.845 18.672,3.765 17.394 C 3.724 16.747,3.672 16.579,3.464 16.421 C 3.024 16.088,2.396 16.304,2.278 16.830 C 2.231 17.037,2.306 18.082,2.403 18.566 C 2.660 19.857,3.284 20.937,4.155 21.594 C 4.726 22.026,5.206 22.269,5.861 22.459 C 6.806 22.733,7.285 22.758,11.592 22.759 L 15.123 22.760 15.342 22.922 C 15.745 23.219,16.430 23.521,16.967 23.638 C 17.333 23.718,18.014 23.755,18.432 23.719 C 20.686 23.522,22.522 21.686,22.719 19.432 C 22.776 18.777,22.688 18.025,22.487 17.440 C 22.387 17.151,22.125 16.640,21.922 16.340 L 21.760 16.100 21.759 12.340 C 21.758 7.845,21.735 7.361,21.475 6.413 C 20.920 4.386,19.268 3.055,17.010 2.816 L 16.760 2.790 16.760 2.417 C 16.760 1.884,16.704 1.664,16.522 1.482 C 16.173 1.133,15.618 1.203,15.354 1.629 C 15.275 1.757,15.261 1.844,15.247 2.268 L 15.230 2.760 11.995 2.760 L 8.760 2.760 8.759 2.390 C 8.758 1.944,8.707 1.704,8.580 1.536 C 8.421 1.327,8.078 1.211,7.815 1.277 M15.247 4.732 C 15.261 5.156,15.275 5.243,15.354 5.371 C 15.708 5.944,16.577 5.811,16.716 5.162 C 16.740 5.049,16.760 4.804,16.760 4.618 L 16.760 4.279 16.930 4.303 C 18.820 4.574,19.902 5.636,20.177 7.489 C 20.212 7.721,20.240 8.011,20.240 8.135 L 20.240 8.360 12.000 8.360 L 3.760 8.360 3.760 8.135 C 3.760 7.797,3.872 7.109,3.987 6.744 C 4.308 5.718,4.994 4.960,5.923 4.601 C 6.235 4.481,6.732 4.352,7.065 4.304 L 7.230 4.281 7.247 4.752 C 7.261 5.155,7.277 5.246,7.355 5.371 C 7.708 5.944,8.577 5.810,8.716 5.162 C 8.740 5.049,8.760 4.795,8.760 4.598 L 8.760 4.240 11.995 4.240 L 15.230 4.240 15.247 4.732 M7.842 12.828 C 7.697 12.904,7.576 13.008,7.482 13.140 C 7.346 13.329,7.340 13.351,7.340 13.682 C 7.340 13.995,7.351 14.044,7.461 14.222 C 7.536 14.344,7.656 14.464,7.778 14.539 C 7.954 14.648,8.007 14.660,8.300 14.660 C 8.593 14.660,8.646 14.648,8.822 14.539 C 8.943 14.464,9.064 14.343,9.139 14.222 C 9.248 14.046,9.260 13.993,9.260 13.700 C 9.260 13.407,9.248 13.354,9.139 13.178 C 8.961 12.889,8.705 12.745,8.344 12.727 C 8.094 12.715,8.034 12.727,7.842 12.828 M11.600 12.784 C 11.267 12.928,11.001 13.335,11.001 13.700 C 11.001 14.070,11.270 14.477,11.609 14.618 C 11.691 14.652,11.867 14.680,12.000 14.680 C 12.419 14.680,12.722 14.486,12.905 14.100 C 13.134 13.615,12.891 12.990,12.391 12.782 C 12.203 12.703,11.783 12.704,11.600 12.784 M7.842 15.828 C 7.697 15.904,7.576 16.008,7.482 16.140 C 7.346 16.329,7.340 16.351,7.340 16.682 C 7.340 16.995,7.351 17.044,7.461 17.222 C 7.536 17.344,7.656 17.464,7.778 17.539 C 7.954 17.648,8.007 17.660,8.300 17.660 C 8.593 17.660,8.646 17.648,8.822 17.539 C 8.943 17.464,9.064 17.343,9.139 17.222 C 9.248 17.046,9.260 16.993,9.260 16.700 C 9.260 16.407,9.248 16.354,9.139 16.178 C 8.961 15.889,8.705 15.745,8.344 15.727 C 8.094 15.715,8.034 15.727,7.842 15.828 M18.820 15.860 C 19.696 16.098,20.522 16.774,20.918 17.577 C 21.142 18.031,21.207 18.303,21.229 18.880 C 21.245 19.300,21.234 19.435,21.163 19.720 C 20.923 20.685,20.310 21.465,19.465 21.881 C 18.934 22.143,18.543 22.240,18.016 22.240 C 17.083 22.240,16.395 21.955,15.725 21.290 C 14.668 20.242,14.455 18.617,15.207 17.341 C 15.422 16.977,15.977 16.422,16.341 16.207 C 16.651 16.025,17.086 15.860,17.410 15.802 C 17.709 15.748,18.535 15.782,18.820 15.860 M19.256 17.337 C 19.188 17.367,18.756 17.741,18.295 18.170 L 17.456 18.950 17.137 18.642 C 16.883 18.397,16.778 18.324,16.629 18.286 C 16.296 18.203,15.978 18.332,15.796 18.626 C 15.693 18.794,15.673 19.156,15.759 19.320 C 15.845 19.486,16.928 20.561,17.097 20.648 C 17.319 20.762,17.657 20.735,17.867 20.586 C 18.134 20.396,20.132 18.506,20.214 18.367 C 20.309 18.202,20.317 17.867,20.229 17.699 C 20.148 17.544,19.969 17.376,19.827 17.323 C 19.675 17.265,19.407 17.272,19.256 17.337 " stroke="none" fill-rule="evenodd" fill="black"></path></svg>