<svg width="24" height="24" viewBox="0 0 24 24" fill="none" xmlns="http://www.w3.org/2000/svg"><path d="M7.815 1.277 C 7.638 1.321,7.461 1.456,7.354 1.630 C 7.274 1.759,7.260 1.843,7.247 2.284 L 7.231 2.791 6.985 2.817 C 4.811 3.046,3.215 4.278,2.584 6.212 C 2.290 7.113,2.230 7.964,2.247 11.040 L 2.260 13.300 2.353 13.449 C 2.710 14.023,3.576 13.892,3.716 13.242 C 3.744 13.111,3.760 12.454,3.760 11.438 L 3.760 9.840 11.997 9.840 L 20.235 9.840 20.247 11.030 C 20.260 12.194,20.262 12.223,20.353 12.369 C 20.710 12.943,21.576 12.812,21.716 12.162 C 21.771 11.903,21.774 8.826,21.720 7.980 C 21.615 6.357,21.185 5.251,20.298 4.323 C 19.501 3.489,18.340 2.957,17.010 2.816 L 16.760 2.790 16.760 2.417 C 16.760 1.884,16.704 1.664,16.522 1.482 C 16.173 1.133,15.618 1.203,15.354 1.629 C 15.275 1.757,15.261 1.844,15.247 2.268 L 15.230 2.760 11.995 2.760 L 8.760 2.760 8.759 2.390 C 8.758 1.944,8.707 1.704,8.580 1.536 C 8.421 1.327,8.078 1.211,7.815 1.277 M15.247 4.732 C 15.261 5.156,15.275 5.243,15.354 5.371 C 15.708 5.944,16.577 5.811,16.716 5.162 C 16.740 5.049,16.760 4.804,16.760 4.618 L 16.760 4.279 16.930 4.303 C 18.820 4.574,19.902 5.636,20.177 7.489 C 20.212 7.721,20.240 8.011,20.240 8.135 L 20.240 8.360 12.000 8.360 L 3.760 8.360 3.760 8.135 C 3.760 7.797,3.872 7.109,3.987 6.744 C 4.308 5.718,4.994 4.960,5.923 4.601 C 6.235 4.481,6.732 4.352,7.065 4.304 L 7.230 4.281 7.247 4.752 C 7.261 5.155,7.277 5.246,7.355 5.371 C 7.708 5.944,8.577 5.810,8.716 5.162 C 8.740 5.049,8.760 4.795,8.760 4.598 L 8.760 4.240 11.995 4.240 L 15.230 4.240 15.247 4.732 M7.842 12.828 C 7.697 12.904,7.576 13.008,7.482 13.140 C 7.346 13.329,7.340 13.351,7.340 13.682 C 7.340 13.995,7.351 14.044,7.461 14.222 C 7.536 14.344,7.656 14.464,7.778 14.539 C 7.954 14.648,8.007 14.660,8.300 14.660 C 8.593 14.660,8.646 14.648,8.822 14.539 C 8.943 14.464,9.064 14.343,9.139 14.222 C 9.248 14.046,9.260 13.993,9.260 13.700 C 9.260 13.407,9.248 13.354,9.139 13.178 C 8.961 12.889,8.705 12.745,8.344 12.727 C 8.094 12.715,8.034 12.727,7.842 12.828 M11.600 12.784 C 11.267 12.928,11.001 13.335,11.001 13.700 C 11.001 14.070,11.270 14.477,11.609 14.618 C 11.691 14.652,11.867 14.680,12.000 14.680 C 12.419 14.680,12.722 14.486,12.905 14.100 C 13.134 13.615,12.891 12.990,12.391 12.782 C 12.203 12.703,11.783 12.704,11.600 12.784 M19.931 14.500 C 19.794 14.530,19.552 14.623,19.392 14.707 C 19.049 14.887,18.875 15.051,16.574 17.365 C 14.814 19.135,14.777 19.180,14.663 19.690 C 14.553 20.175,14.430 21.241,14.449 21.533 C 14.479 22.003,14.745 22.398,15.178 22.617 C 15.504 22.782,15.770 22.790,16.685 22.661 C 17.547 22.539,17.840 22.458,18.138 22.259 C 18.456 22.047,22.195 18.271,22.395 17.960 C 22.616 17.616,22.720 17.272,22.720 16.883 C 22.720 16.267,22.499 15.810,21.924 15.237 C 21.610 14.924,21.476 14.822,21.200 14.686 C 20.885 14.531,20.527 14.436,20.280 14.443 C 20.225 14.445,20.068 14.471,19.931 14.500 M7.842 15.828 C 7.697 15.904,7.576 16.008,7.482 16.140 C 7.346 16.329,7.340 16.351,7.340 16.682 C 7.340 16.995,7.351 17.044,7.461 17.222 C 7.536 17.344,7.656 17.464,7.778 17.539 C 7.954 17.648,8.007 17.660,8.300 17.660 C 8.593 17.660,8.646 17.648,8.822 17.539 C 8.943 17.464,9.064 17.343,9.139 17.222 C 9.248 17.046,9.260 16.993,9.260 16.700 C 9.260 16.407,9.248 16.354,9.139 16.178 C 8.961 15.889,8.705 15.745,8.344 15.727 C 8.094 15.715,8.034 15.727,7.842 15.828 M20.624 16.073 C 20.891 16.267,21.194 16.628,21.224 16.789 C 21.259 16.974,21.148 17.197,20.897 17.443 L 20.718 17.619 20.529 17.521 C 20.286 17.394,19.806 16.914,19.680 16.671 L 19.582 16.483 19.721 16.336 C 20.099 15.939,20.342 15.868,20.624 16.073 M2.819 16.277 C 2.557 16.340,2.338 16.564,2.278 16.830 C 2.231 17.037,2.306 18.082,2.403 18.566 C 2.660 19.857,3.284 20.937,4.155 21.594 C 5.105 22.312,6.030 22.625,7.480 22.720 C 8.310 22.775,11.904 22.771,12.162 22.716 C 12.828 22.573,12.943 21.639,12.332 21.336 C 12.189 21.265,12.023 21.259,9.600 21.237 L 7.020 21.214 6.595 21.110 C 5.808 20.918,5.283 20.643,4.820 20.180 C 4.170 19.530,3.845 18.672,3.765 17.394 C 3.724 16.747,3.672 16.579,3.464 16.422 C 3.350 16.336,3.076 16.235,2.980 16.244 C 2.958 16.246,2.886 16.261,2.819 16.277 M18.520 17.634 C 18.520 17.653,18.635 17.802,18.775 17.966 C 18.980 18.206,19.220 18.424,19.598 18.709 C 19.625 18.730,17.310 21.038,17.240 21.060 C 17.160 21.084,16.095 21.240,16.005 21.240 C 15.937 21.240,15.939 21.204,16.027 20.590 L 16.121 19.940 17.290 18.770 C 17.933 18.127,18.473 17.600,18.490 17.600 C 18.506 17.600,18.520 17.615,18.520 17.634 " stroke="none" fill-rule="evenodd" fill="black"></path></svg>