<svg width="24" height="24" viewBox="0 0 24 24" fill="none" xmlns="http://www.w3.org/2000/svg"><path d="M7.815 1.277 C 7.638 1.321,7.461 1.456,7.354 1.630 C 7.274 1.759,7.260 1.843,7.247 2.284 L 7.231 2.791 6.985 2.817 C 4.811 3.046,3.215 4.278,2.584 6.212 C 2.291 7.111,2.230 7.968,2.247 11.000 C 2.261 13.414,2.253 13.330,2.487 13.548 C 2.609 13.663,2.845 13.760,3.000 13.760 C 3.155 13.760,3.391 13.663,3.513 13.548 C 3.742 13.334,3.739 13.361,3.752 11.530 L 3.764 9.840 12.002 9.840 L 20.240 9.840 20.240 12.320 C 20.240 13.684,20.226 14.800,20.208 14.800 C 20.190 14.800,20.159 14.783,20.138 14.763 C 20.081 14.707,19.513 14.489,19.197 14.402 C 19.044 14.359,18.703 14.303,18.440 14.277 C 17.473 14.180,16.492 14.388,15.660 14.867 C 13.519 16.101,12.676 18.658,13.660 20.932 L 13.796 21.244 10.408 21.230 L 7.020 21.216 6.595 21.111 C 5.805 20.916,5.282 20.642,4.820 20.180 C 4.170 19.530,3.845 18.672,3.765 17.394 C 3.724 16.747,3.672 16.579,3.464 16.421 C 3.024 16.088,2.396 16.304,2.278 16.830 C 2.231 17.037,2.306 18.082,2.403 18.566 C 2.660 19.857,3.284 20.937,4.155 21.594 C 4.726 22.026,5.206 22.269,5.861 22.459 C 6.806 22.733,7.286 22.758,11.575 22.759 L 15.089 22.760 15.355 22.935 C 16.179 23.480,17.005 23.727,18.000 23.727 C 19.260 23.727,20.358 23.293,21.256 22.441 C 22.224 21.522,22.727 20.344,22.727 19.000 C 22.727 18.005,22.480 17.179,21.935 16.355 L 21.760 16.089 21.759 12.335 C 21.758 7.845,21.735 7.361,21.475 6.413 C 20.920 4.386,19.268 3.055,17.010 2.816 L 16.760 2.790 16.760 2.417 C 16.760 1.884,16.704 1.664,16.522 1.482 C 16.173 1.133,15.618 1.203,15.354 1.629 C 15.275 1.757,15.261 1.844,15.247 2.268 L 15.230 2.760 11.995 2.760 L 8.760 2.760 8.759 2.390 C 8.758 1.944,8.707 1.704,8.580 1.536 C 8.421 1.327,8.078 1.211,7.815 1.277 M15.247 4.732 C 15.261 5.156,15.275 5.243,15.354 5.371 C 15.708 5.944,16.577 5.811,16.716 5.162 C 16.740 5.049,16.760 4.804,16.760 4.618 L 16.760 4.279 16.930 4.303 C 18.820 4.574,19.902 5.636,20.177 7.489 C 20.212 7.721,20.240 8.011,20.240 8.135 L 20.240 8.360 12.000 8.360 L 3.760 8.360 3.760 8.135 C 3.760 7.797,3.872 7.109,3.987 6.744 C 4.308 5.718,4.994 4.960,5.923 4.601 C 6.235 4.481,6.732 4.352,7.065 4.304 L 7.230 4.281 7.247 4.752 C 7.261 5.155,7.277 5.246,7.355 5.371 C 7.708 5.944,8.577 5.810,8.716 5.162 C 8.740 5.049,8.760 4.795,8.760 4.598 L 8.760 4.240 11.995 4.240 L 15.230 4.240 15.247 4.732 M7.842 12.828 C 7.697 12.904,7.576 13.008,7.482 13.140 C 7.346 13.329,7.340 13.351,7.340 13.682 C 7.340 13.995,7.351 14.044,7.461 14.222 C 7.536 14.344,7.656 14.464,7.778 14.539 C 7.954 14.648,8.007 14.660,8.300 14.660 C 8.593 14.660,8.646 14.648,8.822 14.539 C 8.943 14.464,9.064 14.343,9.139 14.222 C 9.248 14.046,9.260 13.993,9.260 13.700 C 9.260 13.407,9.248 13.354,9.139 13.178 C 8.961 12.889,8.705 12.745,8.344 12.727 C 8.094 12.715,8.034 12.727,7.842 12.828 M11.600 12.784 C 11.267 12.928,11.001 13.335,11.001 13.700 C 11.001 14.070,11.270 14.477,11.609 14.618 C 11.691 14.652,11.867 14.680,12.000 14.680 C 12.419 14.680,12.722 14.486,12.905 14.100 C 13.134 13.615,12.891 12.990,12.391 12.782 C 12.203 12.703,11.783 12.704,11.600 12.784 M7.842 15.828 C 7.697 15.904,7.576 16.008,7.482 16.140 C 7.346 16.329,7.340 16.351,7.340 16.682 C 7.340 16.995,7.351 17.044,7.461 17.222 C 7.536 17.344,7.656 17.464,7.778 17.539 C 7.954 17.648,8.007 17.660,8.300 17.660 C 8.593 17.660,8.646 17.648,8.822 17.539 C 8.943 17.464,9.064 17.343,9.139 17.222 C 9.248 17.046,9.260 16.993,9.260 16.700 C 9.260 16.407,9.248 16.354,9.139 16.178 C 8.961 15.889,8.705 15.745,8.344 15.727 C 8.094 15.715,8.034 15.727,7.842 15.828 M18.820 15.858 C 19.875 16.143,20.755 16.974,21.108 18.020 C 21.209 18.316,21.217 18.389,21.217 19.000 C 21.217 19.611,21.209 19.684,21.108 19.980 C 20.928 20.515,20.712 20.857,20.284 21.284 C 19.857 21.712,19.515 21.928,18.980 22.108 C 18.684 22.209,18.611 22.217,18.000 22.217 C 17.389 22.217,17.316 22.209,17.020 22.108 C 16.150 21.815,15.458 21.195,15.062 20.356 C 14.873 19.954,14.799 19.654,14.772 19.180 C 14.718 18.203,15.022 17.411,15.716 16.716 C 16.211 16.222,16.781 15.914,17.410 15.802 C 17.710 15.748,18.536 15.781,18.820 15.858 M17.720 16.904 C 17.364 17.058,17.270 17.246,17.248 17.850 L 17.230 18.320 16.773 18.320 C 16.398 18.320,16.289 18.334,16.162 18.399 C 15.872 18.547,15.727 18.841,15.778 19.181 C 15.801 19.334,15.842 19.406,15.995 19.558 C 16.213 19.777,16.294 19.800,16.840 19.800 L 17.230 19.800 17.248 20.290 C 17.266 20.818,17.302 20.934,17.506 21.127 C 17.647 21.261,17.799 21.320,18.000 21.320 C 18.201 21.320,18.353 21.261,18.494 21.127 C 18.698 20.934,18.734 20.818,18.752 20.290 L 18.770 19.800 19.160 19.800 C 19.706 19.800,19.787 19.777,20.005 19.558 C 20.158 19.406,20.199 19.334,20.222 19.181 C 20.273 18.841,20.128 18.547,19.838 18.399 C 19.711 18.334,19.602 18.320,19.227 18.320 L 18.770 18.320 18.752 17.850 C 18.740 17.527,18.715 17.343,18.671 17.260 C 18.486 16.911,18.067 16.753,17.720 16.904 " stroke="none" fill-rule="evenodd" fill="black"></path></svg>