<svg width="24" height="24" viewBox="0 0 24 24" fill="none" xmlns="http://www.w3.org/2000/svg"><path d="M7.815 1.277 C 7.638 1.321,7.461 1.456,7.354 1.630 C 7.274 1.759,7.260 1.843,7.247 2.284 L 7.231 2.791 6.985 2.817 C 4.811 3.046,3.215 4.278,2.584 6.212 C 2.291 7.111,2.230 7.968,2.247 11.000 C 2.261 13.414,2.253 13.330,2.487 13.548 C 2.609 13.663,2.845 13.760,3.000 13.760 C 3.155 13.760,3.391 13.663,3.513 13.548 C 3.742 13.334,3.739 13.361,3.752 11.530 L 3.764 9.840 12.004 9.840 L 20.243 9.840 20.230 13.910 L 20.216 17.980 20.111 18.405 C 19.916 19.196,19.642 19.719,19.180 20.180 C 18.712 20.648,18.188 20.921,17.385 21.113 L 16.940 21.220 12.000 21.220 L 7.060 21.220 6.615 21.113 C 5.812 20.921,5.288 20.648,4.820 20.180 C 4.170 19.530,3.845 18.672,3.765 17.394 C 3.724 16.747,3.672 16.579,3.464 16.421 C 3.024 16.088,2.396 16.304,2.278 16.830 C 2.231 17.037,2.306 18.082,2.403 18.566 C 2.660 19.857,3.284 20.937,4.155 21.594 C 5.105 22.312,6.030 22.625,7.480 22.720 C 8.235 22.770,15.765 22.770,16.520 22.720 C 17.970 22.625,18.895 22.312,19.845 21.594 C 20.196 21.329,20.486 21.019,20.759 20.619 C 21.342 19.762,21.638 18.811,21.720 17.526 C 21.771 16.722,21.771 8.775,21.720 7.980 C 21.615 6.357,21.185 5.251,20.298 4.323 C 19.501 3.489,18.340 2.957,17.010 2.816 L 16.760 2.790 16.760 2.417 C 16.760 1.884,16.704 1.664,16.522 1.482 C 16.173 1.133,15.618 1.203,15.354 1.629 C 15.275 1.757,15.261 1.844,15.247 2.268 L 15.230 2.760 11.995 2.760 L 8.760 2.760 8.759 2.390 C 8.758 1.944,8.707 1.704,8.580 1.536 C 8.421 1.327,8.078 1.211,7.815 1.277 M15.247 4.732 C 15.261 5.156,15.275 5.243,15.354 5.371 C 15.708 5.944,16.577 5.811,16.716 5.162 C 16.740 5.049,16.760 4.804,16.760 4.618 L 16.760 4.279 16.930 4.303 C 18.820 4.574,19.902 5.636,20.177 7.489 C 20.212 7.721,20.240 8.011,20.240 8.135 L 20.240 8.360 12.000 8.360 L 3.760 8.360 3.760 8.135 C 3.760 7.797,3.872 7.109,3.987 6.744 C 4.308 5.718,4.994 4.960,5.923 4.601 C 6.235 4.481,6.732 4.352,7.065 4.304 L 7.230 4.281 7.247 4.752 C 7.261 5.155,7.277 5.246,7.355 5.371 C 7.708 5.944,8.577 5.810,8.716 5.162 C 8.740 5.049,8.760 4.795,8.760 4.598 L 8.760 4.240 11.995 4.240 L 15.230 4.240 15.247 4.732 M7.842 12.828 C 7.697 12.904,7.576 13.008,7.482 13.140 C 7.346 13.329,7.340 13.351,7.340 13.682 C 7.340 13.995,7.351 14.044,7.461 14.222 C 7.536 14.344,7.656 14.464,7.778 14.539 C 7.954 14.648,8.007 14.660,8.300 14.660 C 8.593 14.660,8.646 14.648,8.822 14.539 C 8.943 14.464,9.064 14.343,9.139 14.222 C 9.248 14.046,9.260 13.993,9.260 13.700 C 9.260 13.407,9.248 13.354,9.139 13.178 C 8.961 12.889,8.705 12.745,8.344 12.727 C 8.094 12.715,8.034 12.727,7.842 12.828 M11.600 12.784 C 11.267 12.928,11.001 13.335,11.001 13.700 C 11.001 14.070,11.270 14.477,11.609 14.618 C 11.691 14.652,11.867 14.680,12.000 14.680 C 12.419 14.680,12.722 14.486,12.905 14.100 C 13.134 13.615,12.891 12.990,12.391 12.782 C 12.203 12.703,11.783 12.704,11.600 12.784 M7.842 15.828 C 7.697 15.904,7.576 16.008,7.482 16.140 C 7.346 16.329,7.340 16.351,7.340 16.682 C 7.340 16.995,7.351 17.044,7.461 17.222 C 7.536 17.344,7.656 17.464,7.778 17.539 C 7.954 17.648,8.007 17.660,8.300 17.660 C 8.593 17.660,8.646 17.648,8.822 17.539 C 8.943 17.464,9.064 17.343,9.139 17.222 C 9.248 17.046,9.260 16.993,9.260 16.700 C 9.260 16.407,9.248 16.354,9.139 16.178 C 8.961 15.889,8.705 15.745,8.344 15.727 C 8.094 15.715,8.034 15.727,7.842 15.828 " stroke="none" fill-rule="evenodd" fill="black"></path></svg>