<svg width="24" height="24" viewBox="0 0 24 24" fill="none" xmlns="http://www.w3.org/2000/svg"><path d="M11.560 1.267 C 10.326 1.322,9.152 1.571,8.041 2.012 C 7.427 2.256,7.240 2.454,7.240 2.860 C 7.240 3.229,7.525 3.548,7.892 3.589 C 8.032 3.605,8.152 3.574,8.523 3.428 C 9.718 2.955,10.735 2.760,12.006 2.760 C 13.464 2.760,14.754 3.058,16.060 3.698 C 17.024 4.170,17.648 4.611,18.434 5.378 C 19.273 6.195,19.814 6.937,20.303 7.940 C 20.944 9.253,21.240 10.537,21.240 12.000 C 21.240 13.465,20.943 14.752,20.302 16.060 C 19.830 17.024,19.389 17.648,18.622 18.434 C 17.805 19.273,17.063 19.814,16.060 20.303 C 14.747 20.944,13.463 21.240,12.000 21.240 C 10.537 21.240,9.253 20.944,7.940 20.303 C 6.937 19.814,6.195 19.273,5.378 18.434 C 4.611 17.648,4.170 17.024,3.698 16.060 C 3.058 14.754,2.760 13.464,2.760 12.005 C 2.760 10.060,3.331 8.256,4.457 6.648 C 4.701 6.298,4.770 6.095,4.724 5.855 C 4.656 5.497,4.372 5.267,4.000 5.267 C 3.678 5.267,3.534 5.369,3.222 5.816 C 1.432 8.383,0.834 11.537,1.564 14.550 C 1.904 15.951,2.529 17.268,3.424 18.470 C 3.880 19.083,4.909 20.111,5.530 20.575 C 7.606 22.126,10.070 22.870,12.627 22.717 C 14.790 22.588,16.724 21.879,18.470 20.575 C 19.087 20.115,20.115 19.087,20.575 18.470 C 22.127 16.391,22.870 13.930,22.717 11.373 C 22.588 9.210,21.879 7.276,20.575 5.530 C 20.115 4.913,19.087 3.885,18.470 3.425 C 17.047 2.362,15.454 1.679,13.742 1.398 C 13.325 1.330,12.055 1.227,11.880 1.248 C 11.847 1.252,11.703 1.261,11.560 1.267 M9.601 5.143 C 9.314 5.268,9.192 5.460,9.161 5.834 L 9.140 6.087 8.807 6.202 C 7.393 6.691,6.381 7.771,5.958 9.239 C 5.771 9.891,5.752 10.198,5.770 12.400 C 5.785 14.285,5.792 14.444,5.871 14.780 C 6.327 16.720,7.677 18.008,9.597 18.336 C 10.152 18.430,13.848 18.430,14.403 18.336 C 16.130 18.041,17.471 16.900,17.993 15.280 C 18.213 14.595,18.220 14.504,18.220 12.180 C 18.220 10.493,18.208 9.959,18.164 9.740 C 17.988 8.854,17.637 8.103,17.103 7.466 C 16.681 6.965,15.898 6.446,15.193 6.202 L 14.860 6.087 14.839 5.834 C 14.827 5.694,14.787 5.523,14.750 5.454 C 14.607 5.189,14.304 5.049,13.979 5.098 C 13.825 5.121,13.754 5.162,13.597 5.319 C 13.432 5.484,13.400 5.543,13.377 5.716 L 13.350 5.920 12.000 5.920 L 10.650 5.920 10.623 5.716 C 10.600 5.543,10.567 5.484,10.407 5.323 C 10.159 5.075,9.895 5.016,9.601 5.143 M13.360 7.681 C 13.360 8.106,13.476 8.335,13.768 8.484 C 14.257 8.734,14.840 8.384,14.840 7.841 C 14.840 7.753,14.859 7.680,14.881 7.680 C 14.959 7.680,15.300 7.871,15.548 8.054 C 15.932 8.337,16.385 8.936,16.498 9.310 L 16.525 9.400 12.003 9.400 C 8.731 9.400,7.480 9.388,7.480 9.356 C 7.480 9.257,7.778 8.753,7.985 8.503 C 8.106 8.356,8.316 8.154,8.452 8.054 C 8.700 7.871,9.041 7.680,9.119 7.680 C 9.141 7.680,9.160 7.753,9.160 7.841 C 9.160 8.259,9.472 8.560,9.904 8.560 C 10.366 8.560,10.640 8.233,10.640 7.681 L 10.640 7.400 12.000 7.400 L 13.360 7.400 13.360 7.681 M16.749 12.580 C 16.734 14.186,16.727 14.320,16.647 14.603 C 16.468 15.239,16.213 15.667,15.764 16.088 C 15.403 16.425,15.048 16.628,14.540 16.787 L 14.180 16.900 12.000 16.900 L 9.820 16.900 9.461 16.788 C 8.943 16.625,8.596 16.428,8.238 16.091 C 7.786 15.666,7.532 15.239,7.353 14.603 C 7.273 14.320,7.266 14.186,7.251 12.580 L 7.234 10.860 12.000 10.860 L 16.766 10.860 16.749 12.580 " stroke="none" fill-rule="evenodd" fill="black"></path></svg>