<svg width="24" height="24" viewBox="0 0 24 24" fill="none" xmlns="http://www.w3.org/2000/svg"><path d="M5.211 1.281 C 3.950 1.415,2.628 2.447,1.883 3.880 C 0.970 5.633,1.075 7.980,2.173 10.403 C 3.011 12.253,4.273 14.097,6.072 16.103 L 6.434 16.507 3.935 19.003 C 2.561 20.376,1.398 21.561,1.352 21.636 C 1.232 21.826,1.234 22.177,1.356 22.374 C 1.532 22.658,1.839 22.783,2.189 22.712 C 2.376 22.674,2.592 22.460,12.490 12.566 C 18.342 6.717,22.628 2.403,22.665 2.324 C 22.886 1.859,22.552 1.280,22.055 1.267 C 21.948 1.265,21.806 1.276,21.740 1.293 C 21.653 1.316,20.121 2.823,16.194 6.748 L 10.767 12.172 10.549 11.936 C 9.894 11.226,9.354 10.565,9.105 10.168 L 8.997 9.996 9.501 9.468 C 10.374 8.555,10.658 8.022,10.658 7.300 C 10.658 6.853,10.528 6.440,10.235 5.952 C 9.894 5.383,9.711 5.254,9.298 5.288 C 8.958 5.317,8.726 5.535,8.660 5.888 C 8.620 6.099,8.659 6.225,8.882 6.603 C 9.151 7.058,9.215 7.275,9.143 7.485 C 9.060 7.726,8.934 7.885,8.299 8.556 C 7.978 8.894,7.682 9.239,7.640 9.321 C 7.462 9.668,7.468 10.211,7.652 10.614 C 7.857 11.062,8.438 11.834,9.233 12.715 C 9.479 12.988,9.680 13.222,9.680 13.236 C 9.680 13.249,9.188 13.752,8.586 14.354 L 7.493 15.447 7.055 14.953 C 5.063 12.711,3.753 10.646,3.137 8.778 C 2.857 7.926,2.781 7.467,2.781 6.600 C 2.780 5.754,2.829 5.471,3.080 4.854 C 3.277 4.372,3.529 3.998,3.934 3.586 C 4.321 3.191,4.610 2.991,4.984 2.859 C 5.563 2.655,6.097 2.760,6.436 3.145 C 6.722 3.470,7.045 3.559,7.380 3.404 C 7.669 3.271,7.800 3.062,7.800 2.733 C 7.800 2.501,7.725 2.346,7.478 2.070 C 6.953 1.480,6.107 1.185,5.211 1.281 M16.320 13.326 C 15.981 13.373,15.423 13.648,15.066 13.943 C 14.917 14.065,14.610 14.344,14.384 14.562 L 13.973 14.958 13.756 14.822 C 13.637 14.747,13.463 14.637,13.370 14.579 C 13.067 14.389,12.740 14.408,12.478 14.628 C 12.307 14.772,12.229 14.946,12.229 15.183 C 12.229 15.520,12.349 15.683,12.834 16.004 C 13.465 16.420,13.846 16.533,14.303 16.440 C 14.630 16.374,14.756 16.290,15.240 15.821 C 16.130 14.960,16.353 14.800,16.671 14.800 C 16.943 14.800,17.350 15.048,19.000 16.219 C 20.984 17.626,21.018 17.652,21.097 17.820 C 21.317 18.284,21.217 18.894,20.821 19.500 C 20.621 19.805,20.052 20.379,19.740 20.588 C 19.430 20.796,18.926 21.016,18.510 21.125 C 18.092 21.234,17.243 21.270,16.691 21.201 C 16.176 21.137,15.367 20.928,14.820 20.717 C 13.854 20.345,12.463 19.577,11.400 18.829 C 10.522 18.211,10.575 18.240,10.329 18.240 C 9.899 18.240,9.580 18.557,9.586 18.981 C 9.591 19.374,9.664 19.448,10.840 20.261 C 11.829 20.944,13.352 21.758,14.341 22.132 C 16.146 22.815,17.907 22.920,19.340 22.431 C 20.684 21.973,21.815 20.968,22.396 19.716 C 22.686 19.090,22.780 18.429,22.664 17.838 C 22.575 17.386,22.336 16.901,22.068 16.629 C 21.842 16.400,18.502 14.011,17.980 13.706 C 17.425 13.380,16.856 13.250,16.320 13.326 " stroke="none" fill-rule="evenodd" fill="black"></path></svg>