<svg width="24" height="24" viewBox="0 0 24 24" fill="none" xmlns="http://www.w3.org/2000/svg"><path d="M5.320 1.268 C 4.135 1.357,2.834 2.268,2.073 3.540 C 1.291 4.847,1.075 6.376,1.425 8.135 C 2.118 11.627,5.494 16.211,9.800 19.508 C 11.631 20.911,13.710 22.021,15.281 22.435 C 16.808 22.838,18.151 22.837,19.340 22.431 C 20.684 21.973,21.815 20.968,22.396 19.716 C 22.686 19.090,22.780 18.429,22.664 17.838 C 22.576 17.386,22.336 16.901,22.068 16.628 C 21.838 16.395,18.333 13.893,17.917 13.665 C 17.117 13.226,16.420 13.187,15.698 13.542 C 15.297 13.739,14.996 13.972,14.384 14.562 L 13.972 14.958 13.744 14.821 C 12.617 14.142,9.945 11.470,9.132 10.209 L 8.996 9.997 9.501 9.469 C 10.374 8.555,10.658 8.022,10.658 7.300 C 10.658 6.853,10.528 6.440,10.235 5.952 C 9.894 5.383,9.711 5.254,9.298 5.288 C 8.958 5.317,8.726 5.535,8.660 5.888 C 8.620 6.099,8.659 6.225,8.882 6.603 C 9.151 7.058,9.215 7.275,9.143 7.485 C 9.060 7.726,8.934 7.885,8.299 8.556 C 7.978 8.894,7.682 9.239,7.640 9.321 C 7.462 9.668,7.468 10.211,7.652 10.614 C 8.157 11.716,10.887 14.622,12.514 15.788 C 13.322 16.368,13.755 16.532,14.253 16.446 C 14.622 16.383,14.736 16.310,15.260 15.801 C 15.907 15.174,16.132 14.982,16.336 14.886 C 16.593 14.765,16.774 14.777,17.101 14.935 C 17.420 15.088,20.846 17.501,21.004 17.683 C 21.302 18.026,21.271 18.735,20.933 19.317 C 20.541 19.992,19.858 20.601,19.156 20.902 C 18.632 21.126,18.249 21.209,17.631 21.231 C 16.280 21.279,14.952 20.898,13.220 19.965 C 10.051 18.259,6.421 14.763,4.454 11.520 C 3.626 10.155,3.097 8.910,2.873 7.798 C 2.750 7.183,2.740 6.031,2.854 5.543 C 2.958 5.101,3.197 4.536,3.425 4.191 C 3.671 3.821,4.229 3.261,4.540 3.072 C 5.274 2.628,6.006 2.656,6.436 3.145 C 6.722 3.470,7.045 3.559,7.380 3.404 C 7.669 3.271,7.800 3.062,7.800 2.733 C 7.800 2.476,7.702 2.300,7.381 1.980 C 6.864 1.465,6.118 1.207,5.320 1.268 M16.005 3.509 C 15.952 3.519,15.823 3.613,15.718 3.718 C 15.562 3.874,15.521 3.945,15.498 4.099 C 15.438 4.502,15.389 4.442,17.473 6.527 C 19.558 8.611,19.498 8.562,19.901 8.502 C 20.055 8.479,20.126 8.438,20.282 8.282 C 20.438 8.126,20.479 8.055,20.502 7.901 C 20.556 7.538,20.500 7.449,19.748 6.690 L 19.063 6.000 19.748 5.310 C 20.500 4.551,20.556 4.462,20.502 4.099 C 20.479 3.945,20.438 3.874,20.282 3.718 C 20.126 3.562,20.055 3.521,19.901 3.498 C 19.538 3.444,19.449 3.500,18.689 4.253 L 17.999 4.938 17.329 4.271 C 16.547 3.490,16.437 3.427,16.005 3.509 M16.380 6.636 C 16.144 6.745,15.581 7.341,15.519 7.547 C 15.434 7.832,15.495 8.059,15.718 8.282 C 15.941 8.505,16.168 8.566,16.453 8.481 C 16.659 8.419,17.255 7.856,17.364 7.620 C 17.494 7.338,17.426 6.939,17.214 6.752 C 16.998 6.560,16.649 6.511,16.380 6.636 " stroke="none" fill-rule="evenodd" fill="black"></path></svg>