<svg width="24" height="24" viewBox="0 0 24 24" fill="none" xmlns="http://www.w3.org/2000/svg"><path d="M10.540 1.278 C 10.007 1.335,9.565 1.488,9.007 1.807 C 8.169 2.285,7.823 2.692,7.193 3.940 C 6.949 4.424,6.717 4.866,6.677 4.922 C 6.531 5.131,6.266 5.227,5.705 5.276 C 5.422 5.301,5.051 5.356,4.881 5.400 C 3.309 5.801,2.081 7.016,1.652 8.596 C 1.490 9.192,1.488 9.799,1.640 12.199 C 1.774 14.331,1.782 14.383,1.987 14.568 C 2.105 14.675,2.341 14.760,2.520 14.760 C 2.868 14.760,3.191 14.464,3.228 14.111 C 3.237 14.017,3.190 13.065,3.123 11.995 C 3.055 10.926,3.000 9.900,3.000 9.715 C 3.001 8.647,3.616 7.626,4.558 7.127 C 5.000 6.893,5.314 6.804,5.859 6.759 C 6.471 6.708,6.661 6.668,6.970 6.526 C 7.319 6.365,7.657 6.102,7.862 5.829 C 7.958 5.701,8.245 5.185,8.499 4.682 C 8.889 3.910,8.996 3.732,9.185 3.540 C 9.451 3.270,9.776 3.052,10.149 2.895 L 10.420 2.780 12.000 2.780 L 13.580 2.780 13.831 2.886 C 14.220 3.050,14.505 3.237,14.783 3.511 C 15.014 3.739,15.081 3.849,15.496 4.673 C 15.981 5.637,16.170 5.932,16.456 6.163 L 16.633 6.307 10.162 12.778 L 3.690 19.250 3.628 18.955 C 3.593 18.793,3.546 18.508,3.522 18.322 C 3.472 17.922,3.361 17.723,3.122 17.601 C 2.938 17.507,2.656 17.496,2.468 17.574 C 2.313 17.639,2.091 17.881,2.055 18.026 C 1.973 18.354,2.161 19.462,2.403 20.074 L 2.533 20.404 1.952 20.992 C 1.632 21.315,1.347 21.625,1.319 21.680 C 1.290 21.735,1.267 21.881,1.267 22.004 C 1.267 22.498,1.681 22.816,2.189 22.712 C 2.376 22.674,2.592 22.460,12.490 12.566 C 18.342 6.717,22.628 2.403,22.665 2.324 C 22.753 2.138,22.747 1.837,22.651 1.651 C 22.608 1.568,22.499 1.448,22.408 1.383 C 22.271 1.287,22.202 1.267,22.011 1.267 C 21.884 1.267,21.735 1.290,21.680 1.318 C 21.625 1.346,20.714 2.233,19.656 3.288 L 17.731 5.208 17.616 5.148 C 17.383 5.028,17.281 4.875,16.826 3.976 C 16.294 2.926,16.049 2.581,15.558 2.188 C 15.064 1.793,14.533 1.522,13.920 1.354 C 13.648 1.279,13.488 1.270,12.220 1.259 C 11.450 1.253,10.694 1.261,10.540 1.278 M20.766 6.803 C 20.454 6.928,20.280 7.188,20.280 7.532 C 20.280 7.717,20.304 7.784,20.446 8.004 C 20.837 8.607,20.998 9.104,20.999 9.715 C 21.000 10.178,20.490 18.272,20.437 18.632 C 20.274 19.742,19.778 20.499,18.956 20.893 C 18.220 21.245,18.797 21.215,12.297 21.239 L 6.534 21.260 6.372 21.367 C 6.132 21.526,6.027 21.721,6.027 22.007 C 6.027 22.203,6.046 22.270,6.143 22.408 C 6.208 22.499,6.332 22.610,6.420 22.656 C 6.580 22.740,6.595 22.740,11.780 22.752 C 17.527 22.765,17.983 22.753,18.743 22.561 C 20.477 22.123,21.594 20.840,21.895 18.940 C 21.968 18.477,22.483 10.456,22.485 9.740 C 22.487 9.167,22.436 8.820,22.279 8.351 C 22.095 7.800,21.750 7.186,21.495 6.955 C 21.300 6.779,20.989 6.714,20.766 6.803 M5.815 9.278 C 5.331 9.393,5.098 10.004,5.383 10.408 C 5.447 10.499,5.572 10.610,5.660 10.656 C 5.813 10.736,5.888 10.741,7.373 10.752 C 9.166 10.766,9.287 10.753,9.519 10.521 C 9.918 10.122,9.731 9.423,9.189 9.286 C 8.981 9.234,6.029 9.227,5.815 9.278 M14.407 12.366 C 14.158 12.489,14.023 12.709,14.021 12.995 C 14.020 13.183,14.050 13.282,14.206 13.600 C 14.436 14.068,14.492 14.304,14.488 14.796 C 14.483 15.560,14.190 16.158,13.551 16.704 C 12.811 17.336,11.588 17.419,10.740 16.895 C 10.159 16.535,10.004 16.497,9.695 16.637 C 9.375 16.782,9.197 17.154,9.283 17.496 C 9.337 17.708,9.462 17.851,9.796 18.077 C 10.904 18.829,12.389 18.944,13.672 18.376 C 14.018 18.223,14.514 17.873,14.813 17.571 C 15.336 17.041,15.679 16.442,15.868 15.728 C 15.956 15.395,15.971 15.255,15.972 14.740 C 15.972 14.216,15.959 14.089,15.866 13.742 C 15.666 12.990,15.275 12.369,14.963 12.307 C 14.735 12.261,14.586 12.277,14.407 12.366 " stroke="none" fill-rule="evenodd" fill="black"></path></svg>