<svg width="24" height="24" viewBox="0 0 24 24" fill="none" xmlns="http://www.w3.org/2000/svg"><path d="M10.540 1.278 C 10.007 1.335,9.565 1.488,9.007 1.807 C 8.169 2.285,7.823 2.692,7.193 3.940 C 6.949 4.424,6.717 4.866,6.677 4.922 C 6.531 5.131,6.266 5.227,5.705 5.276 C 5.422 5.301,5.051 5.356,4.881 5.400 C 3.309 5.801,2.081 7.016,1.652 8.596 C 1.492 9.187,1.489 9.802,1.637 12.120 C 1.704 13.187,1.770 14.123,1.783 14.200 C 1.867 14.719,2.541 14.983,2.946 14.656 C 3.162 14.481,3.240 14.307,3.240 14.001 C 3.239 13.857,3.186 12.921,3.120 11.920 C 3.055 10.919,3.001 9.938,3.001 9.740 C 3.000 8.648,3.605 7.632,4.558 7.127 C 5.000 6.893,5.314 6.804,5.859 6.759 C 6.471 6.708,6.661 6.668,6.970 6.526 C 7.319 6.365,7.657 6.102,7.862 5.829 C 7.958 5.701,8.245 5.185,8.499 4.682 C 8.889 3.910,8.996 3.732,9.185 3.540 C 9.451 3.270,9.776 3.052,10.149 2.895 L 10.420 2.780 12.000 2.780 L 13.580 2.780 13.831 2.886 C 14.220 3.050,14.505 3.237,14.783 3.511 C 15.014 3.739,15.081 3.849,15.496 4.673 C 15.747 5.174,16.034 5.691,16.133 5.822 C 16.343 6.101,16.678 6.364,17.030 6.526 C 17.339 6.668,17.529 6.708,18.141 6.759 C 18.688 6.804,19.004 6.894,19.440 7.127 C 20.389 7.635,20.999 8.647,21.000 9.717 C 21.000 10.187,20.490 18.274,20.437 18.632 C 20.324 19.400,20.061 19.978,19.621 20.425 C 19.394 20.655,19.267 20.744,18.960 20.891 C 18.214 21.248,18.808 21.220,12.000 21.220 L 5.980 21.220 5.640 21.128 C 5.076 20.974,4.742 20.791,4.397 20.444 C 4.231 20.277,4.038 20.041,3.970 19.919 C 3.774 19.573,3.613 19.031,3.542 18.481 C 3.469 17.909,3.387 17.736,3.122 17.601 C 2.948 17.512,2.670 17.495,2.493 17.563 C 2.355 17.615,2.172 17.783,2.096 17.928 C 1.980 18.151,2.056 18.952,2.260 19.657 C 2.585 20.778,3.262 21.638,4.240 22.174 C 4.821 22.492,5.449 22.658,6.309 22.720 C 7.054 22.773,16.960 22.772,17.711 22.718 C 20.086 22.548,21.593 21.154,21.916 18.828 C 21.940 18.660,22.077 16.654,22.222 14.371 C 22.520 9.672,22.529 9.263,22.348 8.596 C 21.918 7.016,20.691 5.801,19.119 5.400 C 18.949 5.356,18.578 5.300,18.295 5.275 C 17.759 5.228,17.595 5.176,17.395 4.990 C 17.337 4.937,17.081 4.480,16.826 3.976 C 16.294 2.926,16.049 2.581,15.558 2.188 C 15.064 1.793,14.533 1.522,13.920 1.354 C 13.648 1.279,13.488 1.270,12.220 1.259 C 11.450 1.253,10.694 1.261,10.540 1.278 M10.420 7.259 C 10.398 7.267,10.331 7.284,10.271 7.297 C 10.124 7.329,9.881 7.548,9.814 7.708 C 9.691 8.002,9.771 8.336,10.015 8.550 C 10.095 8.621,10.211 8.693,10.271 8.709 C 10.413 8.749,13.587 8.749,13.729 8.709 C 13.881 8.667,14.121 8.447,14.186 8.292 C 14.297 8.027,14.241 7.711,14.047 7.506 C 13.810 7.255,13.854 7.261,12.080 7.252 C 11.189 7.248,10.442 7.251,10.420 7.259 M11.361 10.803 C 10.513 10.954,9.777 11.336,9.180 11.938 C 8.553 12.568,8.190 13.290,8.054 14.176 C 7.760 16.094,8.956 17.988,10.820 18.556 C 11.985 18.911,13.213 18.732,14.217 18.063 C 15.486 17.216,16.174 15.669,15.946 14.176 C 15.699 12.562,14.573 11.310,12.980 10.880 C 12.612 10.780,11.725 10.738,11.361 10.803 M12.807 12.389 C 13.227 12.534,13.533 12.734,13.836 13.065 C 14.289 13.560,14.486 14.072,14.486 14.760 C 14.487 15.463,14.258 16.015,13.756 16.516 C 13.225 17.046,12.626 17.271,11.849 17.231 C 11.204 17.197,10.722 16.985,10.264 16.533 C 9.744 16.020,9.513 15.474,9.514 14.760 C 9.514 14.269,9.580 13.985,9.786 13.595 C 10.362 12.497,11.641 11.987,12.807 12.389 " stroke="none" fill-rule="evenodd" fill="black"></path></svg>