<svg width="24" height="24" viewBox="0 0 24 24" fill="none" xmlns="http://www.w3.org/2000/svg"><path d="M10.370 2.804 C 9.674 2.920,9.110 3.257,8.745 3.774 C 8.439 4.206,8.307 4.639,8.257 5.370 L 8.230 5.760 5.038 5.760 C 2.879 5.760,1.809 5.774,1.733 5.803 C 1.460 5.905,1.269 6.193,1.269 6.500 C 1.269 6.807,1.460 7.095,1.733 7.197 C 1.809 7.226,2.879 7.240,5.038 7.240 L 8.230 7.240 8.258 7.630 C 8.299 8.206,8.379 8.540,8.564 8.917 C 8.865 9.527,9.393 9.944,10.120 10.147 C 10.362 10.215,10.624 10.220,14.000 10.220 C 17.376 10.220,17.638 10.215,17.880 10.147 C 18.602 9.945,19.137 9.523,19.435 8.918 C 19.621 8.540,19.701 8.206,19.742 7.630 L 19.770 7.240 20.962 7.240 C 21.708 7.240,22.197 7.224,22.267 7.197 C 22.540 7.095,22.731 6.807,22.731 6.500 C 22.731 6.193,22.540 5.905,22.267 5.803 C 22.197 5.776,21.708 5.760,20.962 5.760 L 19.770 5.760 19.742 5.370 C 19.701 4.794,19.621 4.460,19.435 4.082 C 19.051 3.304,18.301 2.843,17.301 2.772 C 16.875 2.742,16.710 2.776,16.537 2.928 C 16.345 3.096,16.269 3.260,16.269 3.500 C 16.269 3.740,16.345 3.904,16.537 4.072 C 16.681 4.198,16.753 4.219,17.180 4.257 C 17.686 4.303,17.918 4.430,18.100 4.761 L 18.220 4.980 18.220 6.500 L 18.220 8.020 18.100 8.239 C 17.970 8.475,17.803 8.611,17.544 8.690 C 17.307 8.762,10.693 8.762,10.456 8.690 C 10.197 8.611,10.030 8.475,9.900 8.239 L 9.780 8.020 9.780 6.500 L 9.780 4.980 9.900 4.761 C 10.026 4.532,10.192 4.393,10.435 4.313 C 10.529 4.283,11.056 4.258,11.920 4.243 C 13.063 4.223,13.278 4.210,13.380 4.154 C 13.637 4.012,13.760 3.801,13.760 3.500 C 13.760 3.186,13.634 2.981,13.352 2.836 C 13.214 2.766,13.108 2.760,11.892 2.765 C 11.170 2.767,10.485 2.785,10.370 2.804 M6.370 13.804 C 5.670 13.923,5.110 14.257,4.745 14.774 C 4.439 15.206,4.307 15.639,4.257 16.370 L 4.230 16.760 3.038 16.760 C 2.292 16.760,1.803 16.776,1.733 16.803 C 1.460 16.905,1.269 17.193,1.269 17.500 C 1.269 17.807,1.460 18.095,1.733 18.197 C 1.803 18.224,2.292 18.240,3.038 18.240 L 4.230 18.240 4.258 18.630 C 4.299 19.206,4.379 19.540,4.564 19.917 C 4.865 20.527,5.393 20.944,6.120 21.147 C 6.362 21.215,6.624 21.220,10.000 21.220 C 13.376 21.220,13.638 21.215,13.880 21.147 C 14.602 20.945,15.137 20.523,15.435 19.918 C 15.621 19.540,15.701 19.206,15.742 18.630 L 15.770 18.240 18.962 18.240 C 21.121 18.240,22.191 18.226,22.267 18.197 C 22.540 18.095,22.731 17.807,22.731 17.500 C 22.731 17.193,22.540 16.905,22.267 16.803 C 22.191 16.774,21.121 16.760,18.962 16.760 L 15.770 16.760 15.742 16.370 C 15.701 15.794,15.621 15.460,15.435 15.082 C 15.141 14.485,14.617 14.067,13.900 13.855 C 13.679 13.789,13.380 13.783,10.120 13.776 C 8.173 13.771,6.485 13.784,6.370 13.804 M13.565 15.311 C 13.811 15.396,13.975 15.533,14.100 15.761 L 14.220 15.980 14.220 17.500 L 14.220 19.020 14.100 19.239 C 13.970 19.475,13.803 19.611,13.544 19.690 C 13.307 19.762,6.693 19.762,6.456 19.690 C 6.197 19.611,6.030 19.475,5.900 19.239 L 5.780 19.020 5.780 17.500 L 5.780 15.980 5.875 15.800 C 6.040 15.485,6.168 15.389,6.540 15.296 C 6.825 15.224,13.353 15.239,13.565 15.311 " stroke="none" fill-rule="evenodd" fill="black"></path></svg>