<svg width="24" height="24" viewBox="0 0 24 24" fill="none" xmlns="http://www.w3.org/2000/svg"><path d="M6.420 1.260 C 6.398 1.267,6.331 1.284,6.271 1.297 C 6.124 1.329,5.881 1.548,5.814 1.708 C 5.773 1.807,5.760 2.119,5.760 3.034 L 5.760 4.230 5.370 4.258 C 4.794 4.299,4.460 4.379,4.083 4.564 C 3.473 4.865,3.056 5.393,2.853 6.120 C 2.785 6.362,2.780 6.624,2.780 10.000 C 2.780 13.376,2.785 13.638,2.853 13.880 C 3.056 14.607,3.473 15.135,4.083 15.436 C 4.460 15.621,4.794 15.701,5.370 15.742 L 5.760 15.770 5.760 18.962 C 5.760 21.121,5.774 22.191,5.803 22.267 C 5.905 22.540,6.193 22.731,6.500 22.731 C 6.807 22.731,7.095 22.540,7.197 22.267 C 7.226 22.191,7.240 21.121,7.240 18.962 L 7.240 15.770 7.630 15.742 C 8.206 15.701,8.540 15.621,8.918 15.435 C 9.516 15.140,9.940 14.609,10.143 13.900 C 10.201 13.701,10.215 13.430,10.229 12.300 C 10.241 11.391,10.232 10.892,10.203 10.795 C 10.020 10.184,9.155 10.098,8.846 10.660 C 8.790 10.762,8.777 10.977,8.759 12.100 C 8.739 13.344,8.732 13.433,8.648 13.643 C 8.548 13.894,8.461 13.989,8.200 14.125 L 8.020 14.220 6.500 14.220 L 4.980 14.220 4.761 14.100 C 4.525 13.970,4.389 13.803,4.310 13.544 C 4.238 13.307,4.238 6.693,4.310 6.456 C 4.389 6.197,4.525 6.030,4.761 5.900 L 4.980 5.780 6.500 5.780 L 8.020 5.780 8.239 5.900 C 8.570 6.082,8.697 6.314,8.743 6.820 C 8.781 7.247,8.802 7.319,8.928 7.463 C 9.096 7.655,9.260 7.731,9.500 7.731 C 9.740 7.731,9.904 7.655,10.072 7.463 C 10.224 7.290,10.258 7.125,10.228 6.699 C 10.157 5.699,9.696 4.949,8.918 4.565 C 8.540 4.379,8.206 4.299,7.630 4.258 L 7.240 4.230 7.240 3.038 C 7.240 2.292,7.224 1.803,7.197 1.733 C 7.146 1.597,6.977 1.412,6.840 1.342 C 6.732 1.287,6.485 1.238,6.420 1.260 M17.420 1.260 C 17.398 1.267,17.331 1.284,17.271 1.297 C 17.124 1.329,16.881 1.548,16.814 1.708 C 16.770 1.813,16.760 2.440,16.760 5.034 L 16.760 8.230 16.370 8.258 C 15.794 8.299,15.460 8.379,15.083 8.564 C 14.473 8.865,14.056 9.393,13.853 10.120 C 13.785 10.362,13.780 10.624,13.780 14.000 C 13.780 17.376,13.785 17.638,13.853 17.880 C 14.056 18.607,14.473 19.135,15.083 19.436 C 15.460 19.621,15.794 19.701,16.370 19.742 L 16.760 19.770 16.760 20.962 C 16.760 21.708,16.776 22.197,16.803 22.267 C 16.905 22.540,17.193 22.731,17.500 22.731 C 17.807 22.731,18.095 22.540,18.197 22.267 C 18.224 22.197,18.240 21.708,18.240 20.962 L 18.240 19.770 18.630 19.742 C 19.206 19.701,19.540 19.621,19.918 19.435 C 20.523 19.137,20.945 18.602,21.147 17.880 C 21.215 17.638,21.220 17.376,21.220 14.000 C 21.220 10.624,21.215 10.362,21.147 10.120 C 20.945 9.398,20.523 8.863,19.918 8.565 C 19.540 8.379,19.206 8.299,18.630 8.258 L 18.240 8.230 18.240 5.038 C 18.240 2.879,18.226 1.809,18.197 1.733 C 18.146 1.597,17.977 1.412,17.840 1.342 C 17.732 1.287,17.485 1.238,17.420 1.260 M19.239 9.900 C 19.475 10.030,19.611 10.197,19.690 10.456 C 19.728 10.582,19.740 11.413,19.740 14.000 C 19.740 17.160,19.735 17.394,19.668 17.588 C 19.571 17.865,19.473 17.981,19.226 18.111 L 19.020 18.220 17.500 18.220 L 15.980 18.220 15.761 18.100 C 15.525 17.970,15.389 17.803,15.310 17.544 C 15.238 17.307,15.238 10.693,15.310 10.456 C 15.412 10.120,15.666 9.884,16.016 9.797 C 16.084 9.780,16.788 9.769,17.580 9.773 L 19.020 9.780 19.239 9.900 " stroke="none" fill-rule="evenodd" fill="black"></path></svg>