<svg width="24" height="24" viewBox="0 0 24 24" fill="none" xmlns="http://www.w3.org/2000/svg"><path d="M7.740 2.126 C 6.615 2.251,5.700 2.727,5.184 3.454 C 4.760 4.051,4.582 4.565,4.257 6.126 L 4.026 7.232 3.400 7.246 C 2.799 7.259,2.768 7.264,2.612 7.367 C 2.372 7.526,2.267 7.721,2.267 8.007 C 2.267 8.203,2.286 8.270,2.383 8.408 C 2.565 8.665,2.737 8.732,3.259 8.752 L 3.703 8.769 3.499 9.752 L 3.295 10.735 3.007 10.949 C 2.414 11.388,2.090 11.996,1.918 12.994 C 1.777 13.812,1.832 14.128,2.151 14.338 C 2.439 14.528,2.783 14.510,3.042 14.292 C 3.221 14.142,3.281 13.994,3.343 13.554 C 3.481 12.570,3.672 12.204,4.160 11.987 C 4.652 11.769,4.155 11.783,11.820 11.770 C 16.631 11.762,18.988 11.771,19.174 11.800 C 19.713 11.883,20.126 12.085,20.308 12.355 C 20.448 12.563,20.557 12.895,20.622 13.314 C 20.692 13.770,21.240 19.704,21.240 20.013 C 21.240 20.130,21.211 20.311,21.176 20.414 C 21.094 20.654,20.788 20.991,20.535 21.121 C 20.341 21.220,20.335 21.220,19.042 21.232 C 17.709 21.244,17.557 21.229,17.499 21.086 C 17.484 21.050,17.374 20.732,17.254 20.380 C 17.134 20.028,16.974 19.612,16.899 19.456 C 16.556 18.740,15.976 18.382,15.000 18.282 C 14.473 18.228,9.603 18.226,9.036 18.280 C 8.206 18.359,7.665 18.627,7.299 19.140 C 7.092 19.430,6.969 19.713,6.703 20.511 C 6.508 21.096,6.459 21.184,6.306 21.222 C 6.257 21.234,5.642 21.239,4.939 21.232 C 3.667 21.220,3.659 21.219,3.465 21.121 C 3.212 20.991,2.906 20.654,2.824 20.414 C 2.739 20.164,2.743 19.965,2.857 18.755 C 2.920 18.092,2.942 17.679,2.921 17.584 C 2.811 17.098,2.196 16.858,1.791 17.145 C 1.513 17.341,1.484 17.439,1.375 18.569 C 1.214 20.234,1.238 20.566,1.567 21.240 C 1.698 21.511,1.798 21.645,2.056 21.900 C 2.575 22.412,3.044 22.637,3.775 22.724 C 4.264 22.781,6.329 22.748,6.620 22.678 C 7.111 22.559,7.484 22.299,7.743 21.896 C 7.815 21.784,7.985 21.370,8.121 20.976 C 8.412 20.130,8.503 19.958,8.709 19.855 C 8.853 19.784,9.007 19.780,12.000 19.780 C 15.060 19.780,15.144 19.782,15.299 19.860 C 15.507 19.965,15.566 20.075,15.844 20.881 C 15.972 21.253,16.125 21.651,16.183 21.765 C 16.336 22.069,16.651 22.382,16.937 22.517 C 17.369 22.722,17.540 22.740,19.000 22.740 C 20.524 22.739,20.647 22.722,21.240 22.430 C 21.726 22.191,22.203 21.716,22.434 21.240 C 22.656 20.784,22.731 20.465,22.728 20.000 C 22.725 19.639,22.205 13.835,22.119 13.200 C 21.960 12.033,21.589 11.350,20.822 10.812 C 20.709 10.733,20.696 10.690,20.500 9.745 L 20.295 8.760 20.626 8.760 C 21.118 8.760,21.339 8.701,21.520 8.520 C 21.918 8.122,21.730 7.423,21.189 7.286 C 21.087 7.261,20.773 7.240,20.490 7.240 L 19.975 7.240 19.762 6.210 C 19.519 5.033,19.340 4.398,19.134 3.987 C 18.573 2.865,17.646 2.278,16.192 2.122 C 15.713 2.070,8.206 2.074,7.740 2.126 M11.240 3.895 L 11.240 4.230 10.770 4.248 C 10.263 4.267,10.143 4.305,9.953 4.506 C 9.759 4.711,9.703 5.027,9.814 5.292 C 9.879 5.447,10.119 5.667,10.271 5.709 C 10.413 5.749,13.587 5.749,13.729 5.709 C 13.881 5.667,14.121 5.447,14.186 5.292 C 14.297 5.027,14.241 4.711,14.047 4.506 C 13.857 4.305,13.737 4.267,13.230 4.248 L 12.760 4.230 12.760 3.891 L 12.760 3.551 14.450 3.571 C 16.295 3.594,16.488 3.614,16.985 3.839 C 17.338 3.999,17.570 4.230,17.759 4.608 C 17.990 5.069,18.037 5.254,18.563 7.774 C 18.825 9.031,19.049 10.101,19.060 10.150 L 19.082 10.240 12.000 10.240 L 4.918 10.240 4.940 10.150 C 4.951 10.101,5.175 9.031,5.437 7.774 C 5.963 5.254,6.010 5.069,6.241 4.608 C 6.430 4.230,6.663 3.998,7.014 3.841 C 7.543 3.604,7.850 3.573,9.790 3.566 L 11.240 3.560 11.240 3.895 M5.815 14.278 C 5.331 14.393,5.098 15.004,5.383 15.408 C 5.447 15.499,5.572 15.610,5.660 15.656 C 5.813 15.736,5.888 15.741,7.373 15.752 C 9.166 15.766,9.287 15.753,9.519 15.521 C 9.918 15.122,9.731 14.423,9.189 14.286 C 8.981 14.234,6.029 14.227,5.815 14.278 M14.815 14.278 C 14.331 14.393,14.098 15.004,14.383 15.408 C 14.447 15.499,14.572 15.610,14.660 15.656 C 14.813 15.736,14.888 15.741,16.373 15.752 C 18.166 15.766,18.287 15.753,18.519 15.521 C 18.918 15.122,18.731 14.423,18.189 14.286 C 17.981 14.234,15.029 14.227,14.815 14.278 " stroke="none" fill-rule="evenodd" fill="black"></path></svg>