<svg width="24" height="24" viewBox="0 0 24 24" fill="none" xmlns="http://www.w3.org/2000/svg"><path d="M5.260 2.803 C 3.136 2.978,2.038 3.706,1.547 5.266 C 1.261 6.171,1.240 6.634,1.240 12.020 C 1.240 17.516,1.257 17.856,1.584 18.840 C 1.964 19.984,2.742 20.689,3.970 21.003 C 4.769 21.207,4.882 21.212,8.407 21.229 C 11.631 21.245,11.717 21.243,11.867 21.166 C 12.158 21.017,12.280 20.816,12.280 20.487 C 12.280 20.252,12.184 20.061,11.986 19.903 L 11.833 19.780 8.546 19.756 C 5.710 19.736,5.204 19.723,4.848 19.664 C 3.642 19.464,3.164 19.075,2.920 18.095 C 2.877 17.922,2.821 17.636,2.795 17.460 C 2.731 17.023,2.698 8.320,2.756 7.272 C 2.876 5.115,3.293 4.571,5.020 4.315 C 5.456 4.250,17.222 4.216,18.271 4.277 C 20.157 4.385,20.786 4.758,21.078 5.941 C 21.202 6.444,21.240 6.955,21.240 8.138 L 21.240 9.239 13.510 9.250 L 5.780 9.260 5.627 9.355 C 5.385 9.506,5.267 9.718,5.267 10.003 C 5.267 10.203,5.286 10.270,5.383 10.408 C 5.447 10.499,5.572 10.610,5.660 10.656 L 5.820 10.740 13.527 10.750 L 21.233 10.761 21.247 11.630 C 21.260 12.488,21.261 12.502,21.366 12.680 C 21.652 13.166,22.348 13.166,22.634 12.680 L 22.740 12.500 22.753 10.220 C 22.771 6.982,22.711 6.097,22.415 5.200 C 21.951 3.798,21.038 3.123,19.240 2.854 C 18.821 2.791,18.198 2.784,12.220 2.777 C 8.612 2.773,5.480 2.785,5.260 2.803 M17.579 13.280 C 15.757 13.440,14.199 14.633,13.546 16.369 C 13.129 17.475,13.182 18.886,13.678 19.945 C 14.166 20.987,14.931 21.771,15.938 22.262 C 16.469 22.521,16.991 22.667,17.570 22.719 C 19.588 22.898,21.447 21.813,22.322 19.945 C 22.820 18.883,22.871 17.476,22.451 16.361 C 21.695 14.349,19.709 13.093,17.579 13.280 M18.980 14.894 C 19.508 15.068,19.854 15.286,20.284 15.716 C 20.937 16.368,21.196 16.956,21.229 17.860 C 21.245 18.300,21.235 18.432,21.163 18.720 C 20.922 19.685,20.310 20.465,19.465 20.881 C 18.928 21.146,18.544 21.240,18.000 21.240 C 17.456 21.240,17.072 21.146,16.535 20.881 C 15.690 20.465,15.078 19.685,14.837 18.720 C 14.765 18.432,14.755 18.300,14.771 17.860 C 14.804 16.956,15.063 16.368,15.716 15.716 C 16.433 14.999,17.066 14.750,18.100 14.775 C 18.572 14.787,18.710 14.806,18.980 14.894 M5.815 15.278 C 5.331 15.393,5.098 16.004,5.383 16.408 C 5.447 16.499,5.572 16.610,5.660 16.656 C 5.815 16.738,5.880 16.740,7.875 16.752 C 10.208 16.765,10.281 16.759,10.519 16.521 C 10.918 16.122,10.731 15.423,10.189 15.286 C 9.980 15.234,6.031 15.226,5.815 15.278 M19.256 16.337 C 19.188 16.367,18.756 16.741,18.295 17.170 L 17.456 17.950 17.137 17.642 C 16.883 17.397,16.778 17.324,16.629 17.286 C 16.296 17.203,15.978 17.332,15.796 17.626 C 15.693 17.794,15.673 18.156,15.759 18.320 C 15.845 18.486,16.928 19.561,17.097 19.648 C 17.319 19.762,17.657 19.735,17.867 19.586 C 18.134 19.396,20.132 17.506,20.214 17.367 C 20.309 17.202,20.317 16.867,20.229 16.699 C 20.148 16.544,19.969 16.376,19.827 16.323 C 19.675 16.265,19.407 16.272,19.256 16.337 " stroke="none" fill-rule="evenodd" fill="black"></path></svg>