<svg width="24" height="24" viewBox="0 0 24 24" fill="none" xmlns="http://www.w3.org/2000/svg"><path d="M8.393 1.282 C 6.328 1.431,4.327 2.476,3.001 4.099 C 2.224 5.050,1.632 6.308,1.403 7.495 C 1.303 8.014,1.230 8.965,1.275 9.162 C 1.450 9.921,2.553 9.921,2.716 9.162 C 2.740 9.049,2.760 8.844,2.761 8.708 C 2.762 8.219,2.905 7.499,3.119 6.896 C 3.439 5.996,3.925 5.241,4.626 4.552 C 5.170 4.017,5.580 3.724,6.240 3.399 C 6.731 3.158,7.592 2.862,7.554 2.948 C 7.546 2.966,7.472 3.100,7.388 3.248 C 7.304 3.395,7.226 3.576,7.214 3.649 C 7.187 3.818,7.255 4.078,7.364 4.216 C 7.626 4.549,8.200 4.569,8.484 4.255 C 8.639 4.084,9.669 2.345,9.716 2.175 C 9.845 1.707,9.419 1.214,8.912 1.246 C 8.862 1.249,8.628 1.265,8.393 1.282 M18.020 1.285 C 15.514 1.490,13.485 3.533,13.286 6.052 C 13.204 7.082,13.450 8.329,13.804 8.683 C 14.207 9.087,14.903 8.890,15.036 8.335 C 15.079 8.157,15.073 8.106,14.962 7.747 C 14.784 7.168,14.747 6.894,14.771 6.324 C 14.786 5.942,14.817 5.735,14.896 5.468 C 15.273 4.201,16.186 3.287,17.468 2.892 C 17.792 2.793,17.874 2.784,18.500 2.784 C 19.126 2.784,19.208 2.793,19.532 2.892 C 20.802 3.283,21.717 4.198,22.108 5.468 C 22.207 5.792,22.216 5.874,22.216 6.500 C 22.216 7.126,22.207 7.208,22.108 7.532 C 21.629 9.087,20.359 10.106,18.734 10.239 C 18.487 10.259,18.234 10.302,18.172 10.334 C 17.542 10.663,17.657 11.566,18.349 11.722 C 18.422 11.738,18.686 11.735,18.938 11.715 C 20.662 11.577,22.186 10.608,23.053 9.100 C 23.959 7.522,23.959 5.475,23.052 3.900 C 22.020 2.106,20.110 1.113,18.020 1.285 M3.340 12.805 C 2.271 12.943,1.636 13.473,1.380 14.440 C 1.288 14.789,1.253 16.410,1.283 18.900 C 1.305 20.660,1.312 20.800,1.392 21.093 C 1.617 21.909,2.132 22.421,2.924 22.616 C 3.564 22.773,5.763 22.814,6.020 22.673 C 6.262 22.541,6.440 22.255,6.440 22.000 C 6.440 21.845,6.343 21.609,6.228 21.487 C 6.024 21.268,5.993 21.263,4.640 21.236 C 3.305 21.210,3.139 21.188,2.980 21.016 C 2.809 20.832,2.789 20.658,2.771 19.190 L 2.754 17.800 7.007 17.810 L 11.260 17.820 11.258 19.120 C 11.255 20.500,11.227 20.784,11.071 20.982 C 10.941 21.147,10.765 21.198,10.169 21.244 C 9.849 21.269,9.556 21.313,9.467 21.350 C 9.170 21.475,9.006 21.793,9.058 22.141 C 9.081 22.295,9.122 22.366,9.278 22.522 C 9.509 22.753,9.646 22.784,10.253 22.742 C 11.711 22.643,12.416 22.111,12.668 20.920 C 12.733 20.611,12.740 20.322,12.740 17.780 C 12.740 14.786,12.733 14.653,12.537 14.130 C 12.292 13.475,11.837 13.087,11.060 12.871 C 10.741 12.783,10.726 12.782,7.180 12.775 C 5.222 12.771,3.494 12.785,3.340 12.805 M10.448 14.280 C 10.878 14.343,11.037 14.423,11.126 14.625 C 11.215 14.825,11.291 15.544,11.272 16.000 L 11.260 16.300 7.010 16.310 L 2.760 16.320 2.760 15.770 C 2.761 15.153,2.811 14.758,2.913 14.580 C 3.002 14.425,3.211 14.324,3.528 14.283 C 3.892 14.236,10.123 14.233,10.448 14.280 M21.815 14.277 C 21.641 14.320,21.462 14.456,21.359 14.622 C 21.288 14.737,21.266 14.858,21.237 15.291 C 21.187 16.062,21.106 16.471,20.880 17.107 C 20.567 17.988,20.063 18.771,19.374 19.449 C 18.843 19.971,18.438 20.260,17.769 20.594 C 17.278 20.839,16.407 21.140,16.446 21.052 C 16.454 21.034,16.528 20.900,16.612 20.752 C 16.696 20.605,16.774 20.424,16.786 20.351 C 16.813 20.182,16.745 19.922,16.636 19.784 C 16.374 19.451,15.800 19.431,15.516 19.745 C 15.355 19.922,14.328 21.660,14.281 21.835 C 14.175 22.230,14.425 22.622,14.844 22.716 C 15.090 22.772,15.988 22.701,16.567 22.582 C 17.737 22.340,18.931 21.782,19.837 21.054 C 20.159 20.795,20.733 20.225,21.000 19.900 C 21.995 18.685,22.604 17.146,22.717 15.559 C 22.760 14.954,22.731 14.735,22.580 14.536 C 22.421 14.327,22.078 14.211,21.815 14.277 " stroke="none" fill-rule="evenodd" fill="black"></path></svg>