<svg width="24" height="24" viewBox="0 0 24 24" fill="none" xmlns="http://www.w3.org/2000/svg"><path d="M5.380 2.786 C 3.346 2.951,2.323 3.511,1.737 4.778 C 1.332 5.654,1.225 6.708,1.247 9.600 C 1.261 11.417,1.255 11.370,1.506 11.607 C 1.647 11.741,1.799 11.800,2.000 11.800 C 2.201 11.800,2.353 11.741,2.494 11.607 C 2.733 11.381,2.739 11.349,2.753 10.250 L 2.766 9.240 8.713 9.239 C 14.398 9.238,14.667 9.235,14.820 9.165 C 15.010 9.077,15.096 8.988,15.178 8.790 C 15.257 8.602,15.257 8.398,15.178 8.210 C 15.096 8.012,15.010 7.923,14.820 7.835 C 14.667 7.765,14.398 7.762,8.710 7.761 L 2.760 7.760 2.760 7.398 C 2.760 6.612,2.908 5.777,3.126 5.334 C 3.400 4.778,3.886 4.497,4.860 4.333 C 5.214 4.273,5.804 4.263,10.000 4.243 C 14.300 4.222,14.751 4.214,14.860 4.154 C 15.187 3.974,15.326 3.563,15.178 3.210 C 15.096 3.012,15.010 2.923,14.820 2.835 C 14.667 2.765,14.447 2.762,10.100 2.768 C 7.592 2.771,5.468 2.779,5.380 2.786 M19.720 2.805 C 19.591 2.856,19.411 3.028,19.326 3.180 C 19.267 3.287,19.259 3.537,19.248 5.473 L 19.237 7.647 18.833 7.259 C 18.611 7.046,18.369 6.846,18.296 6.816 C 17.802 6.609,17.269 6.964,17.269 7.500 C 17.269 7.614,17.299 7.762,17.339 7.841 C 17.430 8.018,19.361 9.972,19.598 10.125 C 19.817 10.267,20.092 10.280,20.338 10.161 C 20.536 10.065,22.555 8.048,22.661 7.841 C 22.748 7.669,22.753 7.339,22.669 7.179 C 22.480 6.817,22.068 6.664,21.699 6.818 C 21.622 6.850,21.381 7.050,21.162 7.262 L 20.763 7.649 20.752 5.474 C 20.741 3.537,20.733 3.287,20.674 3.180 C 20.586 3.021,20.407 2.855,20.267 2.803 C 20.129 2.750,19.854 2.751,19.720 2.805 M21.720 13.344 C 21.550 13.418,21.414 13.540,21.326 13.700 C 21.268 13.805,21.257 14.050,21.236 15.620 C 21.211 17.521,21.186 17.808,20.996 18.372 C 20.725 19.177,20.213 19.511,18.980 19.688 C 18.454 19.764,5.546 19.764,5.020 19.688 C 3.787 19.511,3.275 19.177,3.004 18.372 C 2.833 17.863,2.792 17.478,2.764 16.120 C 2.736 14.724,2.731 14.696,2.513 14.492 C 2.391 14.377,2.155 14.280,2.000 14.280 C 1.744 14.280,1.457 14.459,1.328 14.700 C 1.198 14.941,1.231 17.083,1.379 17.980 C 1.706 19.965,2.709 20.884,4.860 21.167 C 5.445 21.244,18.555 21.244,19.140 21.167 C 20.810 20.947,21.731 20.374,22.263 19.222 C 22.645 18.394,22.780 17.219,22.753 14.940 C 22.742 13.990,22.730 13.802,22.674 13.700 C 22.480 13.348,22.066 13.194,21.720 13.344 M5.720 15.805 C 5.458 15.909,5.269 16.200,5.269 16.500 C 5.269 16.807,5.460 17.095,5.733 17.197 C 5.803 17.224,6.281 17.240,7.000 17.240 C 7.719 17.240,8.197 17.224,8.267 17.197 C 8.540 17.095,8.731 16.807,8.731 16.500 C 8.731 16.193,8.540 15.905,8.267 15.803 C 8.122 15.748,5.859 15.750,5.720 15.805 M10.180 15.835 C 9.990 15.923,9.904 16.012,9.822 16.210 C 9.708 16.483,9.783 16.869,9.986 17.048 C 10.199 17.238,10.224 17.240,12.509 17.239 C 14.510 17.238,14.671 17.233,14.820 17.165 C 15.010 17.077,15.096 16.988,15.178 16.790 C 15.287 16.530,15.232 16.193,15.048 15.986 C 15.011 15.943,14.908 15.876,14.820 15.835 C 14.671 15.767,14.511 15.762,12.500 15.762 C 10.489 15.762,10.329 15.767,10.180 15.835 " stroke="none" fill-rule="evenodd" fill="black"></path></svg>