<svg width="24" height="24" viewBox="0 0 24 24" fill="none" xmlns="http://www.w3.org/2000/svg"><path d="M8.000 2.281 C 7.057 2.335,6.427 2.478,5.876 2.764 C 4.972 3.235,4.478 4.089,4.319 5.460 C 4.293 5.680,4.264 5.873,4.254 5.890 C 4.244 5.907,4.194 5.920,4.143 5.920 C 4.092 5.920,3.878 5.964,3.667 6.017 C 2.406 6.337,1.675 7.129,1.402 8.472 C 1.271 9.115,1.241 10.087,1.241 13.760 C 1.242 17.282,1.269 18.343,1.377 18.948 C 1.682 20.657,2.569 21.436,4.500 21.687 C 4.947 21.745,10.770 21.765,10.969 21.709 C 11.121 21.667,11.361 21.447,11.426 21.292 C 11.537 21.027,11.481 20.711,11.287 20.506 C 11.041 20.246,11.255 20.262,7.760 20.236 C 5.080 20.216,4.536 20.202,4.300 20.150 C 3.347 19.936,3.059 19.663,2.857 18.780 C 2.790 18.491,2.782 18.210,2.769 15.910 L 2.756 13.360 10.500 13.360 L 18.245 13.360 18.229 15.910 C 18.213 18.647,18.211 18.670,17.995 19.252 C 17.746 19.922,17.175 20.167,15.700 20.236 C 14.970 20.270,14.872 20.296,14.673 20.506 C 14.539 20.647,14.480 20.799,14.480 21.000 C 14.480 21.201,14.539 21.353,14.673 21.494 C 14.887 21.721,14.964 21.740,15.620 21.729 C 18.281 21.685,19.415 20.795,19.680 18.540 C 19.706 18.320,19.735 18.132,19.745 18.122 C 19.755 18.112,19.929 18.070,20.131 18.029 C 21.512 17.750,22.310 16.941,22.598 15.528 C 22.729 14.885,22.759 13.913,22.759 10.240 C 22.758 5.909,22.727 5.265,22.479 4.451 C 22.162 3.410,21.449 2.750,20.331 2.462 C 19.568 2.266,19.614 2.268,13.900 2.259 C 10.952 2.254,8.297 2.264,8.000 2.281 M19.321 3.802 C 20.319 3.924,20.790 4.189,20.997 4.742 C 21.227 5.357,21.220 5.174,21.220 10.200 C 21.220 14.498,21.215 14.843,21.148 15.154 C 20.960 16.027,20.714 16.315,19.972 16.533 L 19.765 16.594 19.750 12.887 C 19.733 8.842,19.729 8.775,19.493 8.024 C 19.122 6.848,18.344 6.187,17.040 5.939 C 16.373 5.812,15.820 5.800,10.830 5.800 L 5.800 5.800 5.801 5.670 C 5.803 5.239,6.028 4.586,6.265 4.322 C 6.514 4.046,7.011 3.868,7.760 3.788 C 8.115 3.750,19.005 3.763,19.321 3.802 M16.321 7.362 C 17.281 7.479,17.746 7.725,17.967 8.233 C 18.166 8.690,18.207 9.052,18.229 10.510 L 18.249 11.880 10.501 11.880 L 2.752 11.880 2.772 10.490 C 2.786 9.456,2.807 9.028,2.852 8.820 C 3.058 7.871,3.408 7.552,4.433 7.380 C 4.830 7.313,15.788 7.296,16.321 7.362 M4.940 17.137 C 4.791 17.203,4.619 17.384,4.563 17.533 C 4.462 17.798,4.549 18.189,4.747 18.368 C 4.937 18.540,5.074 18.560,6.074 18.560 C 6.600 18.560,7.090 18.548,7.164 18.533 C 7.247 18.517,7.368 18.435,7.485 18.318 C 7.638 18.166,7.679 18.094,7.702 17.941 C 7.753 17.601,7.608 17.307,7.318 17.159 C 7.175 17.086,7.081 17.080,6.112 17.082 C 5.322 17.083,5.030 17.096,4.940 17.137 M8.754 17.161 C 8.470 17.311,8.328 17.606,8.378 17.941 C 8.401 18.094,8.442 18.166,8.595 18.318 C 8.712 18.435,8.833 18.517,8.916 18.533 C 8.990 18.548,9.867 18.560,10.866 18.560 C 12.790 18.560,12.847 18.555,13.053 18.368 C 13.260 18.181,13.341 17.779,13.225 17.509 C 13.158 17.353,12.981 17.180,12.827 17.123 C 12.753 17.095,12.062 17.081,10.807 17.082 C 9.001 17.083,8.892 17.088,8.754 17.161 " stroke="none" fill-rule="evenodd" fill="black"></path></svg>