<svg width="24" height="24" viewBox="0 0 24 24" fill="none" xmlns="http://www.w3.org/2000/svg"><path d="M5.380 2.786 C 3.346 2.951,2.323 3.511,1.737 4.778 C 1.333 5.653,1.225 6.711,1.247 9.580 L 1.260 11.220 1.366 11.400 C 1.652 11.886,2.348 11.886,2.634 11.400 C 2.740 11.220,2.740 11.218,2.753 10.230 L 2.766 9.240 7.213 9.239 C 11.443 9.238,11.668 9.235,11.820 9.165 C 12.010 9.077,12.096 8.988,12.178 8.790 C 12.292 8.517,12.217 8.131,12.014 7.952 C 11.791 7.753,11.961 7.760,7.201 7.760 L 2.760 7.760 2.760 7.398 C 2.760 6.612,2.908 5.777,3.126 5.334 C 3.400 4.778,3.886 4.497,4.860 4.333 C 5.214 4.273,5.804 4.263,10.000 4.243 C 14.300 4.222,14.751 4.214,14.860 4.154 C 15.187 3.974,15.326 3.563,15.178 3.210 C 15.096 3.012,15.010 2.923,14.820 2.835 C 14.667 2.765,14.447 2.762,10.100 2.768 C 7.592 2.771,5.468 2.779,5.380 2.786 M19.672 2.875 C 19.388 2.969,19.130 3.116,18.820 3.363 C 18.466 3.645,14.747 7.391,14.624 7.590 C 14.431 7.903,14.354 8.174,14.237 8.960 C 14.097 9.906,14.090 10.236,14.203 10.538 C 14.317 10.843,14.614 11.159,14.911 11.293 C 15.283 11.459,15.474 11.463,16.458 11.321 C 17.350 11.192,17.571 11.134,17.910 10.938 C 18.110 10.823,21.635 7.348,22.107 6.801 C 22.605 6.224,22.819 5.609,22.724 5.030 C 22.589 4.201,21.817 3.289,20.947 2.930 C 20.608 2.791,20.006 2.764,19.672 2.875 M20.452 4.346 C 20.844 4.548,21.240 5.026,21.240 5.297 C 21.240 5.489,21.166 5.621,20.892 5.918 L 20.692 6.137 20.459 5.998 C 20.138 5.808,19.685 5.348,19.540 5.066 L 19.420 4.834 19.634 4.636 C 20.002 4.295,20.210 4.221,20.452 4.346 M18.452 6.137 C 18.603 6.376,19.048 6.827,19.350 7.046 L 19.596 7.226 18.348 8.468 C 17.585 9.227,17.061 9.719,17.000 9.732 C 16.822 9.772,15.635 9.928,15.623 9.914 C 15.606 9.895,15.783 8.638,15.819 8.518 C 15.845 8.433,18.262 5.960,18.319 5.960 C 18.331 5.960,18.390 6.040,18.452 6.137 M21.720 11.344 C 21.550 11.418,21.414 11.540,21.326 11.700 C 21.267 11.807,21.258 12.116,21.238 14.620 C 21.214 17.615,21.205 17.752,20.996 18.372 C 20.725 19.177,20.213 19.511,18.980 19.688 C 18.454 19.764,5.546 19.764,5.020 19.688 C 3.673 19.495,3.163 19.102,2.923 18.077 C 2.800 17.551,2.760 17.042,2.760 16.004 C 2.760 14.869,2.732 14.692,2.522 14.482 C 2.173 14.133,1.619 14.203,1.353 14.631 C 1.268 14.767,1.259 14.834,1.246 15.407 C 1.229 16.161,1.297 17.484,1.379 17.980 C 1.706 19.965,2.709 20.884,4.860 21.167 C 5.445 21.244,18.555 21.244,19.140 21.167 C 20.810 20.947,21.731 20.374,22.263 19.222 C 22.683 18.313,22.773 17.343,22.753 13.940 C 22.741 12.057,22.733 11.807,22.674 11.700 C 22.480 11.348,22.066 11.194,21.720 11.344 M5.720 15.805 C 5.458 15.909,5.269 16.200,5.269 16.500 C 5.269 16.807,5.460 17.095,5.733 17.197 C 5.803 17.224,6.281 17.240,7.000 17.240 C 7.719 17.240,8.197 17.224,8.267 17.197 C 8.540 17.095,8.731 16.807,8.731 16.500 C 8.731 16.193,8.540 15.905,8.267 15.803 C 8.122 15.748,5.859 15.750,5.720 15.805 M10.180 15.835 C 9.990 15.923,9.904 16.012,9.822 16.210 C 9.708 16.483,9.783 16.869,9.986 17.048 C 10.199 17.238,10.224 17.240,12.509 17.239 C 14.510 17.238,14.671 17.233,14.820 17.165 C 15.010 17.077,15.096 16.988,15.178 16.790 C 15.287 16.530,15.232 16.193,15.048 15.986 C 15.011 15.943,14.908 15.876,14.820 15.835 C 14.671 15.767,14.511 15.762,12.500 15.762 C 10.489 15.762,10.329 15.767,10.180 15.835 " stroke="none" fill-rule="evenodd" fill="black"></path></svg>