<svg width="24" height="24" viewBox="0 0 24 24" fill="none" xmlns="http://www.w3.org/2000/svg"><path d="M12.600 1.285 C 12.123 1.334,11.565 1.563,11.060 1.917 C 10.502 2.308,10.008 2.784,6.357 6.436 C 2.301 10.494,2.079 10.731,1.679 11.436 C 1.063 12.524,1.142 13.596,1.924 14.748 C 2.248 15.225,2.751 15.756,5.395 18.409 L 8.215 21.238 4.994 21.249 L 1.774 21.260 1.612 21.367 C 1.372 21.526,1.267 21.721,1.267 22.007 C 1.267 22.203,1.286 22.270,1.383 22.408 C 1.447 22.499,1.572 22.610,1.660 22.656 L 1.820 22.740 11.880 22.751 C 19.099 22.758,22.000 22.749,22.154 22.717 C 22.902 22.562,22.929 21.473,22.189 21.286 C 22.055 21.253,20.901 21.240,17.993 21.240 L 13.981 21.240 17.724 17.490 C 19.783 15.428,21.575 13.605,21.707 13.440 C 22.057 13.001,22.271 12.671,22.442 12.305 C 22.646 11.868,22.726 11.535,22.726 11.122 C 22.726 10.246,22.345 9.476,21.379 8.397 C 20.913 7.876,20.725 7.749,20.426 7.749 C 20.102 7.749,19.869 7.905,19.742 8.209 C 19.598 8.554,19.680 8.761,20.175 9.296 C 20.658 9.818,20.942 10.196,21.096 10.520 C 21.203 10.744,21.220 10.824,21.219 11.100 C 21.218 11.382,21.202 11.452,21.085 11.686 C 20.783 12.288,20.534 12.554,16.544 16.544 C 12.554 20.534,12.288 20.783,11.686 21.085 C 11.451 21.203,11.383 21.218,11.100 21.218 C 10.817 21.218,10.749 21.203,10.514 21.085 C 9.958 20.806,9.584 20.469,7.260 18.153 L 4.980 15.882 10.430 10.431 L 15.880 4.981 16.450 5.548 C 16.763 5.861,17.071 6.135,17.133 6.158 C 17.278 6.212,17.564 6.212,17.707 6.157 C 18.082 6.015,18.264 5.520,18.080 5.140 C 18.001 4.976,15.967 2.922,15.400 2.434 C 14.371 1.546,13.507 1.192,12.600 1.285 M13.486 2.908 C 13.772 3.043,14.188 3.346,14.561 3.694 L 14.813 3.927 9.368 9.372 L 3.923 14.817 3.692 14.563 C 3.335 14.171,3.040 13.766,2.904 13.480 C 2.797 13.256,2.780 13.176,2.781 12.900 C 2.781 12.610,2.796 12.553,2.932 12.285 C 3.015 12.123,3.184 11.853,3.308 11.685 C 3.612 11.274,11.272 3.613,11.683 3.309 C 11.978 3.092,12.378 2.867,12.594 2.797 C 12.801 2.729,13.216 2.781,13.486 2.908 M16.020 12.477 C 15.954 12.493,15.855 12.530,15.800 12.558 C 15.667 12.628,13.392 14.888,13.217 15.126 C 12.996 15.425,12.991 15.786,13.206 16.059 C 13.390 16.293,13.804 16.389,14.091 16.264 C 14.256 16.192,16.822 13.617,16.878 13.467 C 16.932 13.323,16.932 13.076,16.877 12.933 C 16.756 12.611,16.353 12.397,16.020 12.477 M12.129 16.359 C 12.057 16.376,11.929 16.438,11.845 16.496 C 11.589 16.674,10.485 17.819,10.420 17.974 C 10.264 18.348,10.415 18.759,10.779 18.949 C 10.938 19.032,11.268 19.028,11.441 18.941 C 11.642 18.840,12.906 17.563,12.980 17.387 C 13.173 16.923,12.895 16.424,12.400 16.350 C 12.323 16.338,12.201 16.342,12.129 16.359 " stroke="none" fill-rule="evenodd" fill="black"></path></svg>