<svg width="24" height="24" viewBox="0 0 24 24" fill="none" xmlns="http://www.w3.org/2000/svg"><path d="M5.200 2.825 C 3.557 2.987,2.683 3.352,2.055 4.137 C 1.559 4.759,1.303 5.538,1.201 6.740 C 1.147 7.383,1.147 16.702,1.201 17.320 C 1.385 19.407,2.113 20.489,3.660 20.972 C 4.535 21.244,5.284 21.288,8.843 21.272 L 11.707 21.260 11.872 21.146 C 12.313 20.840,12.301 20.186,11.849 19.889 C 11.752 19.826,11.485 19.818,8.542 19.796 C 5.865 19.777,5.264 19.762,4.876 19.707 C 3.618 19.527,3.099 19.140,2.842 18.192 C 2.671 17.560,2.667 17.453,2.651 12.460 C 2.634 7.446,2.648 6.828,2.802 6.080 C 2.903 5.582,3.140 5.095,3.371 4.905 C 3.700 4.636,4.121 4.479,4.846 4.355 C 5.252 4.286,17.537 4.254,18.418 4.320 C 20.249 4.457,20.810 4.884,21.065 6.331 C 21.112 6.599,21.135 7.054,21.149 7.990 L 21.169 9.280 13.523 9.280 C 5.209 9.280,5.728 9.266,5.487 9.492 C 5.140 9.816,5.216 10.437,5.632 10.670 L 5.791 10.760 13.473 10.760 L 21.155 10.760 21.167 11.674 L 21.180 12.587 21.294 12.752 C 21.431 12.949,21.679 13.080,21.914 13.080 C 22.199 13.080,22.502 12.879,22.598 12.626 C 22.656 12.474,22.657 7.215,22.599 6.637 C 22.491 5.555,22.308 4.955,21.893 4.330 C 21.389 3.568,20.545 3.111,19.240 2.893 C 18.852 2.829,18.299 2.823,12.080 2.817 C 8.373 2.814,5.277 2.818,5.200 2.825 M17.343 13.323 C 15.512 13.535,13.941 14.831,13.387 16.585 C 12.884 18.177,13.237 19.894,14.324 21.142 C 16.041 23.113,19.050 23.316,21.024 21.593 C 22.442 20.356,22.985 18.397,22.413 16.585 C 21.736 14.440,19.594 13.062,17.343 13.323 M18.720 14.886 C 20.535 15.343,21.594 17.318,20.977 19.095 C 20.637 20.074,19.782 20.879,18.778 21.167 C 18.320 21.298,17.480 21.298,17.020 21.166 C 16.049 20.889,15.179 20.085,14.846 19.160 C 14.698 18.746,14.660 18.507,14.663 18.000 C 14.666 17.436,14.748 17.061,14.965 16.628 C 15.678 15.205,17.193 14.503,18.720 14.886 M5.675 15.318 C 5.384 15.408,5.160 15.720,5.160 16.034 C 5.160 16.319,5.361 16.622,5.613 16.717 C 5.687 16.746,6.460 16.760,7.913 16.760 C 10.361 16.760,10.253 16.772,10.494 16.470 C 10.747 16.154,10.656 15.638,10.308 15.407 L 10.146 15.300 7.963 15.293 C 6.762 15.289,5.733 15.300,5.675 15.318 M16.527 16.366 C 16.227 16.514,16.070 16.860,16.138 17.222 C 16.159 17.333,16.248 17.454,16.509 17.725 L 16.853 18.082 16.511 18.431 C 16.126 18.824,16.050 18.984,16.098 19.301 C 16.121 19.455,16.162 19.526,16.318 19.682 C 16.474 19.838,16.545 19.879,16.699 19.902 C 17.016 19.950,17.176 19.874,17.570 19.488 L 17.920 19.145 18.213 19.452 C 18.533 19.786,18.701 19.880,18.980 19.880 C 19.433 19.880,19.766 19.499,19.705 19.052 C 19.676 18.840,19.592 18.712,19.244 18.349 L 18.984 18.077 19.290 17.769 C 19.625 17.431,19.680 17.328,19.680 17.047 C 19.680 16.676,19.404 16.364,19.046 16.330 C 18.745 16.301,18.584 16.376,18.235 16.710 L 17.921 17.010 17.580 16.686 C 17.133 16.263,16.886 16.188,16.527 16.366 " stroke="none" fill-rule="evenodd" fill="black"></path></svg>