<svg width="24" height="24" viewBox="0 0 24 24" fill="none" xmlns="http://www.w3.org/2000/svg"><path d="M21.900 1.259 C 21.878 1.267,21.806 1.285,21.741 1.300 C 21.657 1.318,21.376 1.570,20.794 2.148 L 19.966 2.969 19.613 2.906 C 18.832 2.764,18.297 2.755,11.640 2.770 C 4.568 2.785,4.830 2.777,3.971 2.997 C 2.469 3.382,1.658 4.328,1.379 6.020 C 1.280 6.621,1.234 7.857,1.247 9.540 C 1.261 11.291,1.256 11.250,1.506 11.487 C 1.647 11.621,1.799 11.680,2.000 11.680 C 2.201 11.680,2.353 11.621,2.494 11.487 C 2.731 11.263,2.739 11.223,2.753 10.190 L 2.766 9.240 8.233 9.240 L 13.700 9.240 10.440 12.500 L 7.180 15.760 6.513 15.760 C 5.801 15.760,5.687 15.782,5.506 15.953 C 5.339 16.111,5.269 16.273,5.269 16.500 C 5.269 16.747,5.348 16.910,5.557 17.088 L 5.716 17.224 4.682 18.258 L 3.648 19.292 3.453 19.096 C 3.125 18.767,2.962 18.394,2.837 17.680 C 2.812 17.537,2.780 16.826,2.766 16.100 C 2.740 14.790,2.739 14.779,2.640 14.606 C 2.359 14.114,1.640 14.114,1.360 14.606 C 1.269 14.766,1.260 14.830,1.246 15.386 C 1.238 15.719,1.251 16.350,1.276 16.790 C 1.372 18.545,1.649 19.403,2.354 20.130 L 2.577 20.360 1.974 20.970 C 1.642 21.305,1.347 21.625,1.319 21.680 C 1.290 21.735,1.267 21.881,1.267 22.004 C 1.267 22.498,1.681 22.816,2.189 22.712 C 2.376 22.674,2.592 22.460,12.490 12.566 C 18.342 6.717,22.628 2.403,22.665 2.324 C 22.816 2.006,22.705 1.590,22.416 1.393 C 22.274 1.295,21.999 1.224,21.900 1.259 M18.374 4.266 L 18.647 4.292 16.914 6.026 L 15.180 7.760 8.970 7.760 L 2.760 7.760 2.760 7.398 C 2.760 6.612,2.908 5.777,3.126 5.334 C 3.454 4.668,4.189 4.346,5.560 4.267 C 5.999 4.242,18.107 4.241,18.374 4.266 M21.619 6.257 C 21.529 6.311,21.415 6.430,21.359 6.527 L 21.260 6.700 21.237 12.080 C 21.216 16.916,21.207 17.494,21.146 17.793 C 20.893 19.043,20.465 19.443,19.140 19.668 C 18.782 19.728,18.163 19.738,13.240 19.758 C 8.234 19.778,7.729 19.786,7.620 19.846 C 7.058 20.154,7.144 21.023,7.755 21.202 C 7.855 21.232,9.600 21.240,13.400 21.230 C 19.347 21.214,19.199 21.219,20.057 20.998 C 21.528 20.618,22.349 19.651,22.621 17.981 C 22.742 17.243,22.764 16.098,22.752 11.380 L 22.740 6.700 22.640 6.526 C 22.438 6.172,21.968 6.048,21.619 6.257 M10.720 15.805 C 10.458 15.909,10.269 16.200,10.269 16.500 C 10.269 16.807,10.460 17.095,10.733 17.197 C 10.807 17.225,11.500 17.240,12.753 17.239 C 14.518 17.238,14.672 17.233,14.820 17.165 C 15.010 17.077,15.096 16.988,15.178 16.790 C 15.287 16.530,15.232 16.193,15.048 15.986 C 15.011 15.943,14.908 15.876,14.820 15.835 C 14.672 15.767,14.520 15.762,12.740 15.763 C 11.566 15.764,10.781 15.781,10.720 15.805 " stroke="none" fill-rule="evenodd" fill="black"></path></svg>