<svg width="24" height="24" viewBox="0 0 24 24" fill="none" xmlns="http://www.w3.org/2000/svg"><path d="M5.380 2.786 C 3.911 2.911,3.079 3.194,2.437 3.789 C 1.707 4.465,1.377 5.400,1.280 7.065 C 1.229 7.943,1.229 16.057,1.280 16.935 C 1.342 18.002,1.471 18.646,1.737 19.222 C 2.269 20.374,3.190 20.947,4.860 21.167 C 5.445 21.244,18.555 21.244,19.140 21.167 C 21.291 20.884,22.294 19.965,22.621 17.980 C 22.769 17.082,22.803 14.901,22.672 14.660 C 22.542 14.419,22.255 14.240,22.000 14.240 C 21.845 14.240,21.609 14.337,21.487 14.452 C 21.268 14.656,21.264 14.682,21.236 16.100 C 21.209 17.480,21.168 17.860,20.996 18.372 C 20.725 19.177,20.213 19.511,18.980 19.688 C 18.454 19.764,5.546 19.764,5.020 19.688 C 3.451 19.463,2.977 18.963,2.802 17.352 C 2.776 17.107,2.760 15.533,2.760 13.102 L 2.760 9.240 11.997 9.240 L 21.234 9.240 21.247 10.210 C 21.261 11.265,21.268 11.302,21.506 11.527 C 21.783 11.789,22.217 11.789,22.494 11.527 C 22.744 11.290,22.739 11.333,22.753 9.560 C 22.775 6.704,22.667 5.652,22.259 4.769 C 21.751 3.671,20.887 3.107,19.320 2.852 C 18.937 2.790,18.312 2.784,12.220 2.778 C 8.546 2.775,5.468 2.778,5.380 2.786 M19.020 4.313 C 20.086 4.482,20.593 4.763,20.874 5.340 C 21.095 5.794,21.240 6.608,21.240 7.398 L 21.240 7.760 12.000 7.760 L 2.760 7.760 2.760 7.398 C 2.760 6.612,2.908 5.777,3.126 5.334 C 3.454 4.668,4.177 4.351,5.560 4.267 C 5.681 4.259,8.696 4.257,12.260 4.261 C 16.775 4.267,18.825 4.283,19.020 4.313 M5.720 15.805 C 5.458 15.909,5.269 16.200,5.269 16.500 C 5.269 16.807,5.460 17.095,5.733 17.197 C 5.803 17.224,6.281 17.240,7.000 17.240 C 7.719 17.240,8.197 17.224,8.267 17.197 C 8.540 17.095,8.731 16.807,8.731 16.500 C 8.731 16.193,8.540 15.905,8.267 15.803 C 8.122 15.748,5.859 15.750,5.720 15.805 M10.180 15.835 C 9.990 15.923,9.904 16.012,9.822 16.210 C 9.708 16.483,9.783 16.869,9.986 17.048 C 10.199 17.238,10.224 17.240,12.509 17.239 C 14.510 17.238,14.671 17.233,14.820 17.165 C 15.010 17.077,15.096 16.988,15.178 16.790 C 15.287 16.530,15.232 16.193,15.048 15.986 C 15.011 15.943,14.908 15.876,14.820 15.835 C 14.671 15.767,14.511 15.762,12.500 15.762 C 10.489 15.762,10.329 15.767,10.180 15.835 " stroke="none" fill-rule="evenodd" fill="black"></path></svg>