<svg width="24" height="24" viewBox="0 0 24 24" fill="none" xmlns="http://www.w3.org/2000/svg"><path d="M5.579 1.280 C 3.750 1.440,2.200 2.632,1.540 4.384 C 1.182 5.335,1.182 6.665,1.540 7.616 C 2.042 8.949,3.049 9.958,4.376 10.457 C 5.340 10.820,6.660 10.820,7.624 10.457 C 8.951 9.958,9.958 8.949,10.460 7.616 C 10.819 6.661,10.818 5.336,10.457 4.376 C 9.695 2.348,7.716 1.092,5.579 1.280 M16.498 1.281 C 15.002 1.404,13.968 2.126,13.517 3.362 C 13.287 3.991,13.262 4.255,13.262 6.000 C 13.262 7.324,13.273 7.640,13.331 7.948 C 13.613 9.462,14.538 10.387,16.052 10.669 C 16.360 10.727,16.676 10.738,18.000 10.738 C 19.324 10.738,19.640 10.727,19.948 10.669 C 21.210 10.434,22.083 9.735,22.483 8.639 C 22.686 8.081,22.726 7.742,22.749 6.360 C 22.774 4.876,22.754 4.714,22.523 4.483 C 22.173 4.133,21.619 4.203,21.353 4.631 C 21.261 4.778,21.260 4.801,21.237 6.260 C 21.217 7.614,21.208 7.761,21.132 7.989 C 20.909 8.658,20.485 9.030,19.773 9.181 C 19.376 9.265,16.621 9.264,16.220 9.180 C 15.447 9.017,14.984 8.552,14.819 7.773 C 14.736 7.380,14.736 4.620,14.819 4.227 C 14.984 3.448,15.447 2.983,16.220 2.820 C 16.431 2.776,16.801 2.761,17.728 2.761 C 19.153 2.760,19.300 2.740,19.520 2.520 C 19.918 2.122,19.730 1.423,19.189 1.286 C 18.983 1.235,17.107 1.231,16.498 1.281 M6.980 2.894 C 7.508 3.068,7.854 3.286,8.284 3.716 C 8.712 4.143,8.928 4.485,9.108 5.020 C 9.209 5.316,9.217 5.389,9.217 6.000 C 9.217 6.611,9.209 6.684,9.108 6.980 C 8.928 7.515,8.712 7.857,8.284 8.284 C 7.857 8.712,7.515 8.928,6.980 9.108 C 6.684 9.209,6.611 9.217,6.000 9.217 C 5.389 9.217,5.316 9.209,5.020 9.108 C 4.485 8.928,4.143 8.712,3.716 8.284 C 3.288 7.857,3.072 7.515,2.892 6.980 C 2.791 6.684,2.783 6.611,2.783 6.000 C 2.783 5.389,2.791 5.316,2.892 5.020 C 3.072 4.485,3.288 4.143,3.716 3.716 C 4.433 2.999,5.066 2.750,6.100 2.775 C 6.572 2.787,6.710 2.806,6.980 2.894 M4.498 13.279 C 2.988 13.413,1.968 14.126,1.517 15.362 C 1.297 15.965,1.265 16.272,1.262 17.820 C 1.260 19.217,1.260 19.220,1.353 19.369 C 1.710 19.943,2.576 19.812,2.716 19.162 C 2.743 19.037,2.760 18.471,2.761 17.728 C 2.761 16.811,2.776 16.431,2.819 16.227 C 2.984 15.448,3.447 14.983,4.220 14.820 C 4.624 14.735,7.376 14.735,7.780 14.820 C 8.553 14.983,9.016 15.448,9.181 16.227 C 9.264 16.620,9.264 19.380,9.181 19.773 C 9.030 20.485,8.658 20.909,7.989 21.132 C 7.761 21.208,7.614 21.217,6.257 21.237 L 4.774 21.260 4.612 21.367 C 4.372 21.526,4.267 21.721,4.267 22.007 C 4.267 22.203,4.286 22.270,4.383 22.408 C 4.447 22.499,4.572 22.610,4.660 22.656 C 4.814 22.737,4.876 22.740,6.200 22.738 C 7.729 22.735,8.037 22.703,8.643 22.481 C 9.514 22.163,10.164 21.512,10.483 20.638 C 10.713 20.009,10.738 19.745,10.738 18.000 C 10.738 16.255,10.713 15.991,10.483 15.362 C 10.085 14.272,9.208 13.564,7.969 13.336 C 7.570 13.262,5.135 13.222,4.498 13.279 M17.579 13.280 C 15.750 13.440,14.200 14.632,13.540 16.384 C 13.182 17.335,13.182 18.665,13.540 19.616 C 14.042 20.949,15.049 21.958,16.376 22.457 C 17.340 22.820,18.660 22.820,19.624 22.457 C 20.951 21.958,21.958 20.949,22.460 19.616 C 22.819 18.661,22.818 17.336,22.457 16.376 C 21.695 14.348,19.716 13.092,17.579 13.280 M18.980 14.894 C 19.508 15.068,19.854 15.286,20.284 15.716 C 20.712 16.143,20.928 16.485,21.108 17.020 C 21.209 17.316,21.217 17.389,21.217 18.000 C 21.217 18.611,21.209 18.684,21.108 18.980 C 20.928 19.515,20.712 19.857,20.284 20.284 C 19.857 20.712,19.515 20.928,18.980 21.108 C 18.684 21.209,18.611 21.217,18.000 21.217 C 17.389 21.217,17.316 21.209,17.020 21.108 C 16.485 20.928,16.143 20.712,15.716 20.284 C 15.288 19.857,15.072 19.515,14.892 18.980 C 14.791 18.684,14.783 18.611,14.783 18.000 C 14.783 17.389,14.791 17.316,14.892 17.020 C 15.072 16.485,15.288 16.143,15.716 15.716 C 16.433 14.999,17.066 14.750,18.100 14.775 C 18.572 14.787,18.710 14.806,18.980 14.894 " stroke="none" fill-rule="evenodd" fill="black"></path></svg>