<svg width="24" height="24" viewBox="0 0 24 24" fill="none" xmlns="http://www.w3.org/2000/svg"><path d="M4.498 1.279 C 2.988 1.413,1.968 2.126,1.517 3.362 C 1.287 3.991,1.262 4.255,1.262 6.000 C 1.262 7.324,1.273 7.640,1.331 7.948 C 1.613 9.462,2.538 10.387,4.052 10.669 C 4.360 10.727,4.676 10.738,6.000 10.738 C 7.324 10.738,7.640 10.727,7.948 10.669 C 9.211 10.433,10.083 9.735,10.483 8.638 C 10.713 8.009,10.738 7.745,10.738 6.000 C 10.738 4.255,10.713 3.991,10.483 3.362 C 10.085 2.272,9.208 1.564,7.969 1.336 C 7.570 1.262,5.135 1.222,4.498 1.279 M16.498 1.281 C 15.002 1.404,13.968 2.126,13.517 3.362 C 13.287 3.991,13.262 4.255,13.262 6.000 C 13.262 7.324,13.273 7.640,13.331 7.948 C 13.613 9.462,14.538 10.387,16.052 10.669 C 16.360 10.727,16.676 10.738,18.000 10.738 C 19.324 10.738,19.640 10.727,19.948 10.669 C 21.210 10.434,22.083 9.735,22.483 8.639 C 22.686 8.081,22.726 7.742,22.749 6.360 C 22.774 4.876,22.754 4.714,22.523 4.483 C 22.173 4.133,21.619 4.203,21.353 4.631 C 21.261 4.778,21.260 4.801,21.237 6.260 C 21.217 7.614,21.208 7.761,21.132 7.989 C 20.909 8.658,20.485 9.030,19.773 9.181 C 19.376 9.265,16.621 9.264,16.220 9.180 C 15.447 9.017,14.984 8.552,14.819 7.773 C 14.736 7.380,14.736 4.620,14.819 4.227 C 14.984 3.448,15.447 2.983,16.220 2.820 C 16.431 2.776,16.801 2.761,17.728 2.761 C 19.153 2.760,19.300 2.740,19.520 2.520 C 19.918 2.122,19.730 1.423,19.189 1.286 C 18.983 1.235,17.107 1.231,16.498 1.281 M7.780 2.820 C 8.553 2.983,9.016 3.448,9.181 4.227 C 9.265 4.624,9.264 7.379,9.180 7.780 C 9.017 8.553,8.552 9.016,7.773 9.181 C 7.380 9.264,4.620 9.264,4.227 9.181 C 3.448 9.016,2.983 8.553,2.820 7.780 C 2.736 7.379,2.735 4.624,2.819 4.227 C 2.982 3.457,3.445 2.986,4.200 2.823 C 4.585 2.739,7.387 2.738,7.780 2.820 M4.498 13.279 C 2.988 13.413,1.968 14.126,1.517 15.362 C 1.297 15.965,1.265 16.272,1.262 17.820 C 1.260 19.217,1.260 19.220,1.353 19.369 C 1.710 19.943,2.576 19.812,2.716 19.162 C 2.743 19.037,2.760 18.471,2.761 17.728 C 2.761 16.811,2.776 16.431,2.819 16.227 C 2.984 15.448,3.447 14.983,4.220 14.820 C 4.624 14.735,7.376 14.735,7.780 14.820 C 8.553 14.983,9.016 15.448,9.181 16.227 C 9.264 16.620,9.264 19.380,9.181 19.773 C 9.030 20.485,8.658 20.909,7.989 21.132 C 7.761 21.208,7.614 21.217,6.257 21.237 L 4.774 21.260 4.612 21.367 C 4.372 21.526,4.267 21.721,4.267 22.007 C 4.267 22.203,4.286 22.270,4.383 22.408 C 4.447 22.499,4.572 22.610,4.660 22.656 C 4.814 22.737,4.876 22.740,6.200 22.738 C 7.729 22.735,8.037 22.703,8.643 22.481 C 9.514 22.163,10.164 21.512,10.483 20.638 C 10.713 20.009,10.738 19.745,10.738 18.000 C 10.738 16.255,10.713 15.991,10.483 15.362 C 10.085 14.272,9.208 13.564,7.969 13.336 C 7.570 13.262,5.135 13.222,4.498 13.279 M16.498 13.279 C 14.988 13.413,13.968 14.126,13.517 15.362 C 13.287 15.991,13.262 16.255,13.262 18.000 C 13.262 19.324,13.273 19.640,13.331 19.948 C 13.613 21.462,14.538 22.387,16.052 22.669 C 16.360 22.727,16.676 22.738,18.000 22.738 C 19.324 22.738,19.640 22.727,19.948 22.669 C 21.211 22.433,22.083 21.735,22.483 20.638 C 22.713 20.009,22.738 19.745,22.738 18.000 C 22.738 16.255,22.713 15.991,22.483 15.362 C 22.085 14.272,21.208 13.564,19.969 13.336 C 19.570 13.262,17.135 13.222,16.498 13.279 M19.780 14.820 C 20.553 14.983,21.016 15.448,21.181 16.227 C 21.265 16.624,21.264 19.379,21.180 19.780 C 21.017 20.553,20.552 21.016,19.773 21.181 C 19.563 21.225,19.157 21.239,18.000 21.239 C 16.843 21.239,16.437 21.225,16.227 21.181 C 15.448 21.016,14.983 20.553,14.820 19.780 C 14.736 19.379,14.735 16.624,14.819 16.227 C 14.982 15.457,15.445 14.986,16.200 14.823 C 16.585 14.739,19.387 14.738,19.780 14.820 " stroke="none" fill-rule="evenodd" fill="black"></path></svg>