<svg width="24" height="24" viewBox="0 0 24 24" fill="none" xmlns="http://www.w3.org/2000/svg"><path d="M11.560 1.267 C 10.326 1.322,9.152 1.571,8.041 2.012 C 7.427 2.256,7.240 2.454,7.240 2.860 C 7.240 3.229,7.525 3.548,7.892 3.589 C 8.032 3.605,8.152 3.574,8.523 3.428 C 9.718 2.955,10.735 2.760,12.006 2.760 C 13.464 2.760,14.754 3.058,16.060 3.698 C 17.024 4.170,17.648 4.611,18.434 5.378 C 19.273 6.195,19.814 6.937,20.303 7.940 C 20.944 9.253,21.240 10.537,21.240 12.000 C 21.240 13.465,20.943 14.752,20.302 16.060 C 19.830 17.024,19.389 17.648,18.622 18.434 C 17.805 19.273,17.063 19.814,16.060 20.303 C 14.747 20.944,13.463 21.240,12.000 21.240 C 10.537 21.240,9.253 20.944,7.940 20.303 C 6.937 19.814,6.195 19.273,5.378 18.434 C 4.611 17.648,4.170 17.024,3.698 16.060 C 3.058 14.754,2.760 13.464,2.760 12.005 C 2.760 10.060,3.331 8.256,4.457 6.648 C 4.701 6.298,4.770 6.095,4.724 5.855 C 4.656 5.497,4.372 5.267,4.000 5.267 C 3.678 5.267,3.534 5.369,3.222 5.816 C 1.432 8.383,0.834 11.537,1.564 14.550 C 1.904 15.951,2.529 17.268,3.424 18.470 C 3.880 19.083,4.909 20.111,5.530 20.575 C 7.606 22.126,10.070 22.870,12.627 22.717 C 14.790 22.588,16.724 21.879,18.470 20.575 C 19.087 20.115,20.115 19.087,20.575 18.470 C 22.127 16.391,22.870 13.930,22.717 11.373 C 22.588 9.210,21.879 7.276,20.575 5.530 C 20.115 4.913,19.087 3.885,18.470 3.425 C 17.047 2.362,15.454 1.679,13.742 1.398 C 13.325 1.330,12.055 1.227,11.880 1.248 C 11.847 1.252,11.703 1.261,11.560 1.267 M11.660 9.278 C 10.789 9.383,10.031 9.901,9.580 10.700 C 9.162 11.441,9.162 12.558,9.580 13.300 C 9.930 13.921,10.548 14.437,11.160 14.619 C 11.496 14.718,11.949 14.761,12.174 14.713 C 12.435 14.657,12.657 14.439,12.711 14.184 C 12.823 13.660,12.455 13.240,11.884 13.240 C 11.496 13.240,10.994 12.861,10.841 12.454 C 10.533 11.631,11.129 10.760,12.000 10.760 C 12.332 10.760,12.626 10.880,12.861 11.111 C 13.098 11.344,13.198 11.563,13.247 11.955 C 13.303 12.409,13.477 12.634,13.833 12.714 C 14.234 12.804,14.631 12.561,14.713 12.174 C 14.794 11.793,14.663 11.135,14.419 10.700 C 13.856 9.696,12.784 9.143,11.660 9.278 " stroke="none" fill-rule="evenodd" fill="black"></path></svg>