<svg width="24" height="24" viewBox="0 0 24 24" fill="none" xmlns="http://www.w3.org/2000/svg"><path d="M18.160 1.280 C 17.858 1.326,17.723 1.372,17.517 1.500 C 17.135 1.736,16.830 2.133,16.716 2.540 C 16.669 2.708,16.660 3.979,16.660 10.500 C 16.660 19.011,16.644 18.446,16.903 18.880 C 17.127 19.254,17.486 19.541,17.895 19.673 C 18.197 19.771,20.203 19.771,20.505 19.673 C 20.914 19.541,21.273 19.254,21.497 18.880 C 21.754 18.450,21.740 18.807,21.740 12.600 L 21.740 6.940 21.634 6.760 C 21.348 6.274,20.652 6.274,20.366 6.760 L 20.260 6.940 20.249 12.518 C 20.240 17.619,20.233 18.101,20.173 18.168 C 20.114 18.233,20.025 18.240,19.200 18.240 C 18.372 18.240,18.287 18.234,18.226 18.167 C 18.165 18.099,18.160 17.509,18.160 10.493 C 18.160 3.180,18.163 2.890,18.233 2.826 C 18.297 2.769,18.425 2.760,19.207 2.760 C 20.242 2.760,20.200 2.745,20.279 3.134 C 20.417 3.808,21.282 3.959,21.645 3.372 C 21.810 3.104,21.741 2.505,21.499 2.115 C 21.275 1.754,20.907 1.457,20.528 1.333 C 20.310 1.262,18.537 1.222,18.160 1.280 M10.864 4.482 C 10.549 4.535,10.200 4.731,9.945 4.998 C 9.665 5.292,9.533 5.570,9.478 5.984 C 9.450 6.195,9.441 8.290,9.449 12.320 C 9.461 17.782,9.468 18.357,9.528 18.526 C 9.723 19.076,10.201 19.534,10.740 19.684 C 11.024 19.764,12.976 19.764,13.260 19.684 C 13.827 19.526,14.317 19.034,14.482 18.460 C 14.567 18.166,14.569 6.044,14.484 5.740 C 14.305 5.097,13.740 4.585,13.093 4.479 C 12.814 4.433,11.142 4.436,10.864 4.482 M12.893 5.966 C 12.941 5.991,12.993 6.032,13.009 6.056 C 13.026 6.080,13.039 8.799,13.039 12.097 C 13.040 17.621,13.035 18.099,12.974 18.167 C 12.913 18.234,12.829 18.240,12.007 18.240 C 11.225 18.240,11.097 18.231,11.033 18.174 C 10.963 18.110,10.960 17.870,10.961 12.104 C 10.961 8.802,10.974 6.080,10.991 6.057 C 11.069 5.940,11.202 5.922,11.993 5.921 C 12.530 5.920,12.835 5.936,12.893 5.966 M3.540 7.700 C 2.893 7.875,2.376 8.463,2.284 9.127 C 2.230 9.514,2.288 9.720,2.507 9.927 C 2.647 10.061,2.799 10.120,3.000 10.120 C 3.386 10.120,3.671 9.860,3.740 9.446 C 3.793 9.122,3.799 9.120,4.800 9.120 C 5.627 9.120,5.685 9.125,5.760 9.200 C 5.839 9.279,5.840 9.333,5.840 13.694 C 5.840 17.919,5.837 18.110,5.767 18.174 C 5.703 18.231,5.575 18.240,4.793 18.240 C 3.978 18.240,3.886 18.233,3.828 18.168 C 3.769 18.104,3.762 17.824,3.751 15.458 C 3.740 12.872,3.738 12.817,3.656 12.660 C 3.610 12.572,3.499 12.447,3.408 12.383 C 3.270 12.286,3.203 12.267,3.003 12.267 C 2.718 12.267,2.506 12.385,2.355 12.627 L 2.260 12.780 2.260 15.520 C 2.260 18.526,2.256 18.466,2.503 18.880 C 2.727 19.255,3.086 19.542,3.495 19.673 C 3.773 19.763,5.749 19.771,6.060 19.684 C 6.466 19.571,6.864 19.265,7.099 18.886 C 7.350 18.479,7.335 18.766,7.350 13.920 C 7.359 10.982,7.350 9.393,7.322 9.180 C 7.227 8.455,6.727 7.876,6.042 7.697 C 5.741 7.619,3.831 7.620,3.540 7.700 M1.815 21.278 C 1.331 21.393,1.098 22.004,1.383 22.408 C 1.448 22.499,1.572 22.610,1.660 22.656 C 1.815 22.738,1.880 22.740,3.875 22.752 C 6.208 22.765,6.281 22.759,6.519 22.521 C 6.918 22.122,6.731 21.423,6.189 21.286 C 5.980 21.234,2.031 21.226,1.815 21.278 M8.815 21.278 C 8.331 21.393,8.098 22.004,8.383 22.408 C 8.447 22.499,8.572 22.610,8.660 22.656 C 8.820 22.740,8.822 22.740,14.880 22.751 C 19.193 22.758,21.002 22.749,21.154 22.717 C 21.902 22.562,21.929 21.473,21.189 21.286 C 20.979 21.233,9.035 21.226,8.815 21.278 " stroke="none" fill-rule="evenodd" fill="black"></path></svg>