<svg width="24" height="24" viewBox="0 0 24 24" fill="none" xmlns="http://www.w3.org/2000/svg"><path d="M8.080 1.282 C 4.042 1.493,1.931 3.265,1.398 6.891 C 1.310 7.494,1.225 8.895,1.264 9.113 C 1.278 9.194,1.325 9.318,1.368 9.389 C 1.658 9.870,2.422 9.836,2.661 9.332 C 2.718 9.212,2.740 9.022,2.765 8.423 C 2.900 5.187,3.905 3.654,6.288 3.044 C 7.337 2.776,7.247 2.780,12.000 2.780 C 15.936 2.780,16.339 2.786,16.760 2.852 C 19.558 3.288,20.712 4.442,21.148 7.240 C 21.214 7.661,21.220 8.064,21.220 12.000 C 21.220 15.936,21.214 16.339,21.148 16.760 C 20.712 19.558,19.558 20.712,16.760 21.148 C 16.339 21.214,15.936 21.220,12.000 21.220 C 8.064 21.220,7.661 21.214,7.240 21.148 C 4.756 20.761,3.576 19.795,3.044 17.712 C 2.820 16.833,2.790 16.496,2.764 14.560 C 2.737 12.615,2.744 12.670,2.494 12.433 C 2.217 12.171,1.783 12.171,1.506 12.433 C 1.266 12.660,1.261 12.686,1.247 13.840 C 1.224 15.669,1.334 17.076,1.575 18.027 C 2.267 20.757,3.971 22.193,7.027 22.622 C 7.786 22.728,8.902 22.759,12.000 22.759 C 15.098 22.759,16.214 22.728,16.973 22.622 C 19.443 22.275,20.996 21.288,21.897 19.490 C 22.379 18.530,22.638 17.369,22.720 15.807 C 22.771 14.838,22.771 9.162,22.720 8.193 C 22.657 6.998,22.521 6.191,22.242 5.356 C 21.632 3.531,20.469 2.367,18.650 1.760 C 17.788 1.473,17.023 1.344,15.806 1.280 C 14.952 1.235,8.952 1.237,8.080 1.282 M11.815 8.277 C 11.638 8.321,11.461 8.456,11.353 8.631 C 11.265 8.772,11.260 8.816,11.260 9.500 C 11.260 10.273,11.277 10.352,11.487 10.548 C 11.609 10.663,11.845 10.760,12.000 10.760 C 12.155 10.760,12.391 10.663,12.513 10.548 C 12.704 10.370,12.735 10.254,12.752 9.655 C 12.771 9.018,12.726 8.728,12.581 8.538 C 12.421 8.327,12.079 8.211,11.815 8.277 M6.699 10.056 C 6.550 10.121,6.332 10.364,6.291 10.511 C 6.251 10.653,6.251 14.027,6.291 14.169 C 6.333 14.321,6.553 14.561,6.708 14.626 C 7.002 14.749,7.336 14.669,7.550 14.425 C 7.621 14.345,7.693 14.229,7.709 14.169 C 7.749 14.027,7.749 10.653,7.709 10.511 C 7.667 10.359,7.447 10.119,7.292 10.054 C 7.130 9.986,6.857 9.987,6.699 10.056 M16.699 10.056 C 16.550 10.121,16.332 10.364,16.291 10.511 C 16.251 10.653,16.251 14.027,16.291 14.169 C 16.333 14.321,16.553 14.561,16.708 14.626 C 17.002 14.749,17.336 14.669,17.550 14.425 C 17.621 14.345,17.693 14.229,17.709 14.169 C 17.749 14.027,17.749 10.653,17.709 10.511 C 17.667 10.359,17.447 10.119,17.292 10.054 C 17.130 9.986,16.857 9.987,16.699 10.056 M11.815 12.037 C 11.638 12.081,11.461 12.216,11.353 12.391 L 11.260 12.540 11.260 14.220 L 11.260 15.900 11.353 16.049 C 11.710 16.623,12.576 16.492,12.716 15.842 C 12.773 15.575,12.774 12.849,12.717 12.601 C 12.623 12.192,12.215 11.937,11.815 12.037 " stroke="none" fill-rule="evenodd" fill="black"></path></svg>