<svg width="24" height="24" viewBox="0 0 24 24" fill="none" xmlns="http://www.w3.org/2000/svg"><path d="M11.156 1.283 C 9.987 1.407,9.215 2.200,9.043 3.453 C 9.013 3.668,9.000 6.497,9.000 12.503 L 9.000 21.240 8.381 21.240 L 7.762 21.240 7.751 17.510 C 7.741 14.127,7.734 13.769,7.674 13.660 C 7.540 13.418,7.255 13.240,7.000 13.240 C 6.745 13.240,6.460 13.418,6.326 13.660 C 6.266 13.769,6.259 14.127,6.249 17.510 L 6.238 21.240 4.999 21.240 L 3.760 21.240 3.760 15.428 C 3.760 9.203,3.757 9.311,3.954 9.042 C 4.132 8.799,4.193 8.781,4.891 8.767 C 5.658 8.752,5.760 8.767,5.938 8.923 C 6.114 9.078,6.195 9.320,6.240 9.833 C 6.268 10.136,6.300 10.283,6.362 10.383 C 6.708 10.943,7.578 10.803,7.715 10.164 C 7.774 9.892,7.708 9.251,7.579 8.846 C 7.325 8.045,6.767 7.504,6.000 7.315 C 5.698 7.241,4.302 7.241,4.000 7.315 C 3.357 7.474,2.856 7.882,2.569 8.480 C 2.244 9.156,2.266 8.690,2.251 15.324 L 2.237 21.229 1.990 21.255 C 1.533 21.302,1.267 21.579,1.267 22.007 C 1.267 22.203,1.286 22.270,1.383 22.408 C 1.447 22.499,1.572 22.610,1.660 22.656 L 1.820 22.740 11.880 22.751 C 19.099 22.758,22.000 22.749,22.154 22.717 C 22.568 22.631,22.804 22.250,22.711 21.816 C 22.639 21.479,22.296 21.240,21.882 21.240 L 21.760 21.240 21.760 18.104 C 21.760 16.206,21.743 14.807,21.718 14.560 C 21.594 13.349,20.989 12.559,20.000 12.315 C 19.853 12.279,19.522 12.261,19.000 12.261 C 18.478 12.261,18.147 12.279,18.000 12.315 C 17.357 12.474,16.856 12.882,16.569 13.480 C 16.259 14.126,16.268 13.998,16.251 17.830 L 16.235 21.240 15.618 21.240 L 15.001 21.240 14.991 12.310 L 14.980 3.380 14.891 3.068 C 14.585 1.993,13.883 1.396,12.790 1.280 C 12.361 1.235,11.594 1.236,11.156 1.283 M13.078 2.900 C 13.317 3.062,13.431 3.295,13.480 3.721 C 13.505 3.931,13.520 7.333,13.520 12.650 L 13.520 21.240 11.999 21.240 L 10.478 21.240 10.489 12.410 C 10.499 4.020,10.504 3.569,10.572 3.368 C 10.656 3.121,10.893 2.862,11.088 2.804 C 11.161 2.782,11.598 2.768,12.060 2.772 L 12.900 2.780 13.078 2.900 M19.865 13.862 C 20.034 13.989,20.112 14.118,20.179 14.378 C 20.231 14.583,20.240 15.089,20.240 17.928 L 20.240 21.240 18.999 21.240 L 17.758 21.240 17.769 17.830 C 17.779 14.667,17.785 14.407,17.851 14.241 C 17.891 14.143,17.963 14.019,18.011 13.966 C 18.183 13.780,18.288 13.760,19.047 13.770 C 19.690 13.779,19.764 13.787,19.865 13.862 " stroke="none" fill-rule="evenodd" fill="black"></path></svg>