<svg width="24" height="24" viewBox="0 0 24 24" fill="none" xmlns="http://www.w3.org/2000/svg"><path d="M8.080 1.282 C 4.042 1.493,1.931 3.265,1.398 6.891 C 1.310 7.494,1.225 8.895,1.264 9.113 C 1.278 9.194,1.325 9.318,1.368 9.389 C 1.658 9.870,2.422 9.836,2.661 9.332 C 2.718 9.212,2.740 9.022,2.765 8.423 C 2.900 5.187,3.905 3.654,6.288 3.044 C 7.337 2.776,7.247 2.780,12.000 2.780 C 15.936 2.780,16.339 2.786,16.760 2.852 C 19.558 3.288,20.712 4.442,21.148 7.240 C 21.214 7.661,21.220 8.064,21.220 12.000 C 21.220 15.936,21.214 16.339,21.148 16.760 C 20.712 19.558,19.558 20.712,16.760 21.148 C 16.339 21.214,15.936 21.220,12.000 21.220 C 8.064 21.220,7.661 21.214,7.240 21.148 C 4.756 20.761,3.576 19.795,3.044 17.712 C 2.817 16.822,2.789 16.504,2.764 14.480 C 2.738 12.466,2.743 12.506,2.513 12.292 C 2.391 12.177,2.155 12.080,2.000 12.080 C 1.745 12.080,1.460 12.258,1.326 12.500 C 1.179 12.767,1.229 15.956,1.398 17.107 C 1.885 20.415,3.654 22.148,7.027 22.622 C 7.786 22.728,8.902 22.759,12.000 22.759 C 15.098 22.759,16.214 22.728,16.973 22.622 C 19.443 22.275,20.996 21.288,21.897 19.490 C 22.379 18.530,22.638 17.369,22.720 15.807 C 22.771 14.838,22.771 9.162,22.720 8.193 C 22.657 6.998,22.521 6.191,22.242 5.356 C 21.632 3.531,20.469 2.367,18.650 1.760 C 17.788 1.473,17.023 1.344,15.806 1.280 C 14.952 1.235,8.952 1.237,8.080 1.282 M10.907 5.882 C 10.403 5.960,9.839 6.364,9.591 6.824 C 9.376 7.225,9.360 7.368,9.360 8.948 L 9.360 10.400 8.318 10.400 C 7.103 10.400,6.861 10.437,6.492 10.676 C 6.082 10.942,5.827 11.256,5.673 11.683 L 5.580 11.940 5.580 14.740 C 5.580 16.280,5.594 17.589,5.611 17.649 C 5.657 17.816,5.865 18.028,6.052 18.099 C 6.203 18.156,6.798 18.161,12.060 18.151 C 18.461 18.139,18.001 18.157,18.228 17.913 C 18.438 17.689,18.440 17.663,18.440 15.679 C 18.440 13.614,18.426 13.472,18.175 13.054 C 17.915 12.619,17.564 12.335,17.116 12.196 C 16.902 12.129,16.740 12.120,15.756 12.120 L 14.640 12.120 14.639 9.850 C 14.639 7.348,14.628 7.219,14.400 6.819 C 14.168 6.414,13.808 6.112,13.364 5.950 C 13.165 5.877,13.029 5.867,12.140 5.857 C 11.590 5.851,11.035 5.862,10.907 5.882 M13.010 7.461 C 13.065 7.516,13.121 7.617,13.135 7.686 C 13.167 7.847,13.167 10.136,13.133 13.753 L 13.107 16.640 12.000 16.640 L 10.893 16.640 10.865 12.187 C 10.845 8.999,10.849 7.701,10.880 7.617 C 10.973 7.370,11.008 7.362,12.005 7.361 L 12.909 7.360 13.010 7.461 M9.340 14.280 L 9.340 16.660 8.210 16.671 L 7.080 16.681 7.080 14.406 L 7.080 12.131 7.183 12.028 C 7.240 11.971,7.325 11.917,7.373 11.907 C 7.421 11.898,7.883 11.892,8.400 11.895 L 9.340 11.900 9.340 14.280 M16.755 13.665 C 16.947 13.800,16.960 13.901,16.960 15.319 L 16.960 16.640 15.800 16.640 L 14.640 16.640 14.640 15.120 L 14.640 13.600 15.651 13.600 C 16.521 13.600,16.675 13.609,16.755 13.665 " stroke="none" fill-rule="evenodd" fill="black"></path></svg>