<svg width="24" height="24" viewBox="0 0 24 24" fill="none" xmlns="http://www.w3.org/2000/svg"><path d="M8.080 1.282 C 4.042 1.493,1.931 3.265,1.398 6.891 C 1.310 7.494,1.225 8.895,1.264 9.113 C 1.278 9.194,1.325 9.318,1.368 9.389 C 1.658 9.870,2.422 9.836,2.661 9.332 C 2.718 9.212,2.740 9.022,2.765 8.423 C 2.900 5.187,3.905 3.654,6.288 3.044 C 7.337 2.776,7.247 2.780,12.000 2.780 C 15.936 2.780,16.339 2.786,16.760 2.852 C 19.558 3.288,20.712 4.442,21.148 7.240 C 21.214 7.661,21.220 8.064,21.220 12.000 C 21.220 15.936,21.214 16.339,21.148 16.760 C 20.712 19.558,19.558 20.712,16.760 21.148 C 16.339 21.214,15.936 21.220,12.000 21.220 C 8.064 21.220,7.661 21.214,7.240 21.148 C 4.756 20.761,3.576 19.795,3.044 17.712 C 2.820 16.835,2.790 16.494,2.764 14.580 L 2.740 12.820 2.640 12.646 C 2.359 12.154,1.641 12.154,1.360 12.646 C 1.262 12.817,1.260 12.837,1.247 13.860 C 1.223 15.666,1.335 17.079,1.575 18.027 C 2.267 20.757,3.971 22.193,7.027 22.622 C 7.786 22.728,8.902 22.759,12.000 22.759 C 15.098 22.759,16.214 22.728,16.973 22.622 C 19.443 22.275,20.996 21.288,21.897 19.490 C 22.379 18.530,22.638 17.369,22.720 15.807 C 22.771 14.838,22.771 9.162,22.720 8.193 C 22.657 6.998,22.521 6.191,22.242 5.356 C 21.632 3.531,20.469 2.367,18.650 1.760 C 17.788 1.473,17.023 1.344,15.806 1.280 C 14.952 1.235,8.952 1.237,8.080 1.282 M14.880 4.822 C 13.913 5.030,13.024 5.927,12.820 6.900 C 12.732 7.318,12.732 16.682,12.820 17.100 C 12.981 17.868,13.560 18.598,14.300 18.963 C 15.652 19.631,17.283 19.068,17.963 17.700 C 18.239 17.144,18.239 17.146,18.239 14.108 C 18.240 11.521,18.237 11.390,18.164 11.248 C 18.017 10.962,17.814 10.840,17.487 10.840 C 17.252 10.840,17.061 10.936,16.903 11.134 L 16.780 11.287 16.758 14.034 C 16.746 15.544,16.721 16.825,16.702 16.880 C 16.628 17.095,16.388 17.400,16.187 17.534 C 15.544 17.961,14.704 17.715,14.365 17.000 L 14.260 16.780 14.260 12.000 L 14.260 7.220 14.365 7.000 C 14.584 6.537,15.007 6.263,15.500 6.263 C 16.142 6.263,16.667 6.744,16.741 7.398 C 16.755 7.520,16.784 7.677,16.805 7.748 C 16.930 8.153,17.413 8.351,17.820 8.165 C 18.106 8.033,18.240 7.792,18.239 7.411 C 18.236 6.227,17.278 5.066,16.100 4.820 C 15.753 4.747,15.224 4.748,14.880 4.822 M8.144 10.282 C 7.133 10.401,6.224 11.147,5.892 12.131 L 5.781 12.460 5.769 14.623 C 5.755 17.068,5.761 17.144,6.037 17.700 C 6.321 18.271,6.729 18.679,7.300 18.963 C 8.645 19.630,10.289 19.064,10.963 17.700 C 11.239 17.143,11.245 17.067,11.231 14.623 L 11.219 12.460 11.108 12.131 C 10.693 10.900,9.456 10.128,8.144 10.282 M9.030 11.881 C 9.307 12.020,9.530 12.246,9.655 12.515 C 9.738 12.696,9.740 12.741,9.740 14.740 L 9.740 16.780 9.635 17.000 C 9.208 17.899,8.007 18.003,7.467 17.188 C 7.241 16.847,7.233 16.746,7.247 14.620 C 7.260 12.757,7.263 12.694,7.345 12.515 C 7.650 11.857,8.410 11.571,9.030 11.881 " stroke="none" fill-rule="evenodd" fill="black"></path></svg>