<svg width="24" height="24" viewBox="0 0 24 24" fill="none" xmlns="http://www.w3.org/2000/svg"><path d="M8.080 1.282 C 4.042 1.493,1.931 3.265,1.398 6.891 C 1.310 7.494,1.225 8.895,1.264 9.113 C 1.278 9.194,1.325 9.318,1.368 9.389 C 1.658 9.870,2.422 9.836,2.661 9.332 C 2.718 9.212,2.740 9.022,2.765 8.423 C 2.900 5.187,3.905 3.654,6.288 3.044 C 7.337 2.776,7.247 2.780,12.000 2.780 C 16.745 2.780,16.622 2.774,17.688 3.040 C 19.520 3.496,20.504 4.481,20.960 6.312 C 21.206 7.301,21.211 7.370,21.236 10.420 L 21.260 13.220 21.353 13.369 C 21.710 13.943,22.576 13.812,22.716 13.162 C 22.772 12.900,22.775 9.241,22.720 8.193 C 22.657 6.998,22.521 6.191,22.242 5.356 C 21.632 3.531,20.469 2.367,18.650 1.760 C 17.788 1.473,17.023 1.344,15.806 1.280 C 14.952 1.235,8.952 1.237,8.080 1.282 M6.699 9.816 C 6.550 9.881,6.332 10.124,6.291 10.271 C 6.251 10.413,6.251 13.587,6.291 13.729 C 6.333 13.881,6.553 14.121,6.708 14.186 C 6.873 14.255,7.127 14.255,7.292 14.186 C 7.447 14.121,7.667 13.881,7.709 13.729 C 7.749 13.587,7.749 10.413,7.709 10.271 C 7.667 10.119,7.447 9.879,7.292 9.814 C 7.130 9.746,6.857 9.747,6.699 9.816 M11.699 9.816 C 11.550 9.881,11.332 10.124,11.291 10.271 C 11.251 10.413,11.251 13.587,11.291 13.729 C 11.333 13.881,11.553 14.121,11.708 14.186 C 11.873 14.255,12.127 14.255,12.292 14.186 C 12.447 14.121,12.667 13.881,12.709 13.729 C 12.749 13.587,12.749 10.413,12.709 10.271 C 12.667 10.119,12.447 9.879,12.292 9.814 C 12.130 9.746,11.857 9.747,11.699 9.816 M16.699 9.816 C 16.550 9.881,16.332 10.124,16.291 10.271 C 16.251 10.413,16.251 13.587,16.291 13.729 C 16.333 13.881,16.553 14.121,16.708 14.186 C 16.873 14.255,17.127 14.255,17.292 14.186 C 17.447 14.121,17.667 13.881,17.709 13.729 C 17.749 13.587,17.749 10.413,17.709 10.271 C 17.667 10.119,17.447 9.879,17.292 9.814 C 17.130 9.746,16.857 9.747,16.699 9.816 M1.815 12.278 C 1.639 12.320,1.462 12.455,1.353 12.631 C 1.263 12.775,1.260 12.812,1.247 13.840 C 1.224 15.669,1.334 17.076,1.575 18.027 C 2.132 20.224,3.337 21.567,5.356 22.242 C 6.191 22.521,6.998 22.657,8.193 22.720 C 9.241 22.775,12.900 22.772,13.162 22.716 C 13.828 22.573,13.943 21.639,13.332 21.336 C 13.189 21.264,13.019 21.259,10.400 21.236 C 7.371 21.211,7.302 21.206,6.312 20.960 C 4.489 20.506,3.509 19.532,3.044 17.712 C 2.820 16.835,2.790 16.494,2.764 14.580 C 2.742 12.963,2.734 12.808,2.664 12.668 C 2.573 12.484,2.395 12.343,2.180 12.284 C 2.003 12.236,1.993 12.236,1.815 12.278 M17.005 16.509 C 16.952 16.519,16.823 16.613,16.718 16.718 C 16.562 16.874,16.521 16.945,16.498 17.099 C 16.444 17.462,16.500 17.551,17.252 18.310 L 17.937 19.000 17.252 19.690 C 16.500 20.449,16.444 20.538,16.498 20.901 C 16.521 21.055,16.562 21.126,16.718 21.282 C 16.874 21.438,16.945 21.479,17.099 21.502 C 17.462 21.556,17.551 21.500,18.310 20.748 L 19.000 20.063 19.690 20.748 C 20.449 21.500,20.538 21.556,20.901 21.502 C 21.055 21.479,21.126 21.438,21.282 21.282 C 21.438 21.126,21.479 21.055,21.502 20.901 C 21.556 20.538,21.500 20.449,20.748 19.690 L 20.063 19.000 20.748 18.310 C 21.500 17.551,21.556 17.462,21.502 17.099 C 21.479 16.945,21.438 16.874,21.282 16.718 C 21.126 16.562,21.055 16.521,20.901 16.498 C 20.538 16.444,20.449 16.500,19.689 17.253 L 18.999 17.938 18.329 17.271 C 17.547 16.490,17.437 16.427,17.005 16.509 " stroke="none" fill-rule="evenodd" fill="black"></path></svg>