<svg width="24" height="24" viewBox="0 0 24 24" fill="none" xmlns="http://www.w3.org/2000/svg"><path d="M11.815 1.277 C 11.330 1.395,11.098 2.004,11.383 2.408 C 11.574 2.678,11.713 2.725,12.420 2.762 C 13.804 2.835,14.991 3.150,16.209 3.767 C 17.066 4.202,17.695 4.657,18.434 5.378 C 19.273 6.195,19.814 6.937,20.303 7.940 C 20.944 9.253,21.240 10.537,21.240 12.000 C 21.240 13.465,20.943 14.752,20.302 16.060 C 19.830 17.024,19.389 17.648,18.622 18.434 C 17.805 19.273,17.063 19.814,16.060 20.303 C 14.747 20.944,13.463 21.240,12.000 21.240 C 10.537 21.240,9.253 20.944,7.940 20.303 C 6.937 19.814,6.195 19.273,5.378 18.434 C 4.611 17.648,4.170 17.024,3.698 16.060 C 3.058 14.754,2.760 13.464,2.760 12.006 C 2.760 10.085,3.286 8.388,4.389 6.751 C 4.676 6.324,4.735 6.210,4.750 6.047 C 4.790 5.634,4.504 5.282,4.102 5.248 C 3.697 5.215,3.578 5.296,3.172 5.880 C 2.223 7.248,1.568 8.929,1.357 10.540 C 0.985 13.392,1.707 16.165,3.424 18.470 C 3.880 19.083,4.909 20.111,5.530 20.575 C 7.606 22.126,10.070 22.870,12.627 22.717 C 14.790 22.588,16.724 21.879,18.470 20.575 C 19.087 20.115,20.115 19.087,20.575 18.470 C 22.127 16.391,22.870 13.930,22.717 11.373 C 22.588 9.210,21.879 7.276,20.575 5.530 C 20.115 4.913,19.087 3.885,18.470 3.425 C 17.051 2.366,15.448 1.677,13.758 1.401 C 13.100 1.294,12.027 1.226,11.815 1.277 M11.815 4.278 C 11.331 4.394,11.098 5.004,11.383 5.408 C 11.563 5.662,11.718 5.721,12.309 5.762 C 13.067 5.815,13.480 5.897,14.100 6.117 C 16.271 6.890,17.829 8.792,18.183 11.100 C 18.254 11.562,18.254 12.438,18.183 12.900 C 17.976 14.254,17.399 15.409,16.449 16.374 C 15.928 16.903,15.448 17.255,14.804 17.578 C 13.273 18.347,11.513 18.456,9.900 17.883 C 8.148 17.259,6.741 15.854,6.119 14.104 C 5.905 13.501,5.762 12.781,5.761 12.292 C 5.760 11.882,5.692 11.652,5.522 11.482 C 5.108 11.068,4.407 11.265,4.276 11.833 C 4.230 12.035,4.301 12.980,4.403 13.505 C 4.578 14.413,5.033 15.520,5.541 16.277 C 6.322 17.440,7.334 18.328,8.580 18.942 C 11.584 20.423,15.187 19.808,17.527 17.415 C 18.161 16.767,18.544 16.226,18.942 15.420 C 20.663 11.929,19.524 7.708,16.277 5.542 C 15.604 5.094,14.745 4.710,13.947 4.503 C 13.288 4.332,12.110 4.207,11.815 4.278 M11.815 7.279 C 11.332 7.391,11.098 8.004,11.383 8.408 C 11.553 8.648,11.716 8.716,12.232 8.761 C 13.096 8.837,13.674 9.106,14.284 9.716 C 14.712 10.143,14.928 10.485,15.108 11.020 C 15.209 11.316,15.217 11.389,15.217 12.000 C 15.217 12.611,15.209 12.684,15.108 12.980 C 14.928 13.515,14.712 13.857,14.284 14.284 C 13.667 14.902,13.089 15.167,12.210 15.239 C 11.688 15.282,11.523 15.356,11.358 15.623 C 11.218 15.849,11.229 16.190,11.383 16.408 C 11.567 16.668,11.746 16.739,12.193 16.728 C 14.072 16.685,15.771 15.446,16.460 13.616 C 16.819 12.661,16.818 11.336,16.457 10.376 C 15.946 9.017,14.875 7.971,13.520 7.508 C 13.005 7.332,12.105 7.211,11.815 7.279 " stroke="none" fill-rule="evenodd" fill="black"></path></svg>