<svg width="24" height="24" viewBox="0 0 24 24" fill="none" xmlns="http://www.w3.org/2000/svg"><path d="M14.815 1.277 C 14.638 1.321,14.461 1.456,14.353 1.631 L 14.260 1.780 14.260 12.000 L 14.260 22.220 14.353 22.369 C 14.710 22.943,15.576 22.812,15.716 22.162 C 15.740 22.048,15.760 21.575,15.760 21.104 L 15.760 20.251 16.830 20.229 C 18.437 20.195,19.344 20.032,20.140 19.637 C 20.821 19.299,21.223 18.914,21.587 18.250 C 22.050 17.408,22.240 16.260,22.240 14.305 C 22.240 13.259,22.213 13.143,21.925 12.943 C 21.583 12.706,21.113 12.792,20.887 13.132 L 20.780 13.294 20.754 14.457 C 20.673 18.093,20.143 18.659,16.730 18.747 L 15.760 18.772 15.760 12.000 L 15.760 5.228 16.730 5.253 C 19.991 5.336,20.624 5.920,20.741 8.960 C 20.755 9.323,20.784 9.677,20.806 9.748 C 20.925 10.140,21.392 10.345,21.790 10.178 C 22.142 10.031,22.238 9.826,22.239 9.218 C 22.240 8.975,22.221 8.534,22.199 8.238 C 21.940 4.890,20.514 3.763,16.530 3.760 L 15.760 3.760 15.759 2.890 C 15.758 1.954,15.729 1.731,15.580 1.536 C 15.421 1.327,15.078 1.211,14.815 1.277 M6.163 3.804 C 3.192 4.068,2.024 5.255,1.801 8.240 C 1.748 8.944,1.748 15.056,1.801 15.760 C 1.904 17.132,2.212 18.104,2.763 18.792 C 3.288 19.447,4.143 19.883,5.280 20.077 C 6.089 20.214,6.649 20.239,8.940 20.239 C 11.028 20.238,11.191 20.233,11.340 20.165 C 11.530 20.077,11.616 19.988,11.698 19.790 C 11.846 19.437,11.707 19.026,11.380 18.846 C 11.274 18.788,10.978 18.777,8.780 18.755 C 6.818 18.736,6.209 18.717,5.865 18.666 C 4.094 18.407,3.588 17.894,3.329 16.100 C 3.268 15.673,3.260 15.221,3.260 12.000 C 3.260 8.779,3.268 8.327,3.329 7.900 C 3.588 6.103,4.090 5.595,5.865 5.333 C 6.215 5.282,6.763 5.266,8.660 5.254 C 9.958 5.246,11.079 5.229,11.151 5.217 C 11.304 5.192,11.537 5.001,11.628 4.825 C 11.709 4.668,11.710 4.333,11.629 4.179 C 11.548 4.024,11.369 3.856,11.227 3.803 C 11.092 3.751,6.742 3.753,6.163 3.804 M7.699 7.816 C 7.550 7.881,7.332 8.124,7.291 8.271 C 7.251 8.413,7.251 15.587,7.291 15.729 C 7.333 15.881,7.553 16.121,7.708 16.186 C 7.873 16.255,8.127 16.255,8.292 16.186 C 8.447 16.121,8.667 15.881,8.709 15.729 C 8.749 15.587,8.749 8.413,8.709 8.271 C 8.667 8.119,8.447 7.879,8.292 7.814 C 8.130 7.746,7.857 7.747,7.699 7.816 " stroke="none" fill-rule="evenodd" fill="black"></path></svg>