<svg width="24" height="24" viewBox="0 0 24 24" fill="none" xmlns="http://www.w3.org/2000/svg"><path d="M9.320 1.283 C 8.449 1.363,7.861 1.747,7.544 2.441 C 7.435 2.679,7.320 3.083,7.320 3.227 C 7.320 3.297,7.292 3.321,7.190 3.338 C 7.119 3.349,6.889 3.386,6.680 3.420 C 5.379 3.632,4.467 4.079,3.714 4.874 C 3.024 5.602,2.585 6.640,2.381 8.025 C 2.305 8.541,2.228 9.888,2.262 10.099 C 2.361 10.706,3.090 10.950,3.520 10.520 C 3.704 10.336,3.760 10.119,3.760 9.588 C 3.760 9.386,3.778 9.027,3.801 8.791 C 4.009 6.600,4.690 5.532,6.180 5.062 C 6.521 4.955,7.265 4.812,7.300 4.847 C 7.312 4.858,7.348 4.974,7.381 5.104 C 7.477 5.481,7.704 5.902,7.935 6.133 C 8.191 6.388,8.459 6.536,8.867 6.648 C 9.167 6.730,9.279 6.734,11.515 6.750 C 14.555 6.772,14.972 6.738,15.633 6.416 C 16.149 6.164,16.525 5.686,16.644 5.129 C 16.671 5.003,16.707 4.884,16.724 4.865 C 16.764 4.818,17.458 4.944,17.840 5.067 C 19.209 5.509,19.828 6.366,20.146 8.260 C 20.203 8.602,20.216 9.132,20.236 11.940 L 20.260 15.220 20.353 15.369 C 20.710 15.943,21.576 15.812,21.716 15.162 C 21.772 14.899,21.775 10.154,21.719 9.148 C 21.583 6.701,20.947 5.219,19.634 4.290 C 19.014 3.852,18.051 3.507,17.100 3.383 C 16.716 3.333,16.680 3.320,16.680 3.225 C 16.680 3.055,16.558 2.658,16.416 2.367 C 16.052 1.622,15.407 1.287,14.300 1.269 C 13.814 1.261,13.770 1.266,13.627 1.355 C 13.385 1.506,13.267 1.718,13.267 2.003 C 13.267 2.203,13.286 2.270,13.383 2.408 C 13.563 2.661,13.719 2.722,14.294 2.760 C 14.893 2.799,15.011 2.849,15.134 3.113 C 15.212 3.283,15.220 3.366,15.220 4.040 C 15.220 4.910,15.195 4.991,14.887 5.134 C 14.701 5.220,14.684 5.220,11.960 5.220 C 8.840 5.220,9.030 5.240,8.866 4.887 C 8.788 4.718,8.780 4.633,8.780 4.000 C 8.780 3.367,8.788 3.282,8.866 3.113 C 9.010 2.801,9.066 2.787,10.180 2.760 C 11.004 2.741,11.162 2.727,11.292 2.663 C 11.888 2.372,11.792 1.448,11.149 1.286 C 10.944 1.235,9.861 1.233,9.320 1.283 M2.619 13.377 C 2.529 13.431,2.415 13.550,2.359 13.647 C 2.262 13.817,2.260 13.837,2.247 14.880 C 2.232 16.057,2.290 17.439,2.381 18.080 C 2.656 20.030,3.466 21.288,4.900 21.996 C 5.786 22.433,6.692 22.633,8.164 22.719 C 9.138 22.775,13.897 22.773,14.162 22.716 C 14.904 22.557,14.924 21.471,14.189 21.286 C 14.058 21.253,13.167 21.240,11.092 21.240 C 8.111 21.240,7.631 21.222,6.869 21.078 C 5.947 20.905,5.340 20.619,4.835 20.121 C 4.382 19.674,4.172 19.275,3.982 18.506 C 3.815 17.826,3.789 17.494,3.764 15.620 L 3.740 13.820 3.634 13.640 C 3.427 13.288,2.967 13.169,2.619 13.377 M14.815 15.277 C 14.640 15.320,14.462 15.456,14.356 15.626 C 14.253 15.793,14.233 16.155,14.318 16.320 C 14.346 16.375,15.449 17.503,16.770 18.826 L 19.171 21.232 18.475 21.246 C 17.826 21.259,17.770 21.266,17.627 21.355 C 17.385 21.506,17.267 21.718,17.267 22.003 C 17.267 22.203,17.286 22.270,17.383 22.408 C 17.448 22.499,17.572 22.610,17.660 22.656 C 17.813 22.736,17.888 22.741,19.373 22.752 C 21.166 22.766,21.287 22.753,21.519 22.521 C 21.631 22.409,21.683 22.313,21.716 22.162 C 21.776 21.883,21.776 19.117,21.716 18.838 C 21.575 18.182,20.713 18.051,20.353 18.631 C 20.267 18.769,20.259 18.831,20.246 19.475 L 20.232 20.171 17.826 17.770 C 16.503 16.449,15.384 15.351,15.340 15.329 C 15.219 15.269,14.955 15.243,14.815 15.277 " stroke="none" fill-rule="evenodd" fill="black"></path></svg>