<svg width="24" height="24" viewBox="0 0 24 24" fill="none" xmlns="http://www.w3.org/2000/svg"><path d="M9.360 1.283 C 8.489 1.363,7.901 1.747,7.584 2.441 C 7.476 2.678,7.360 3.083,7.360 3.225 C 7.360 3.298,7.331 3.317,7.190 3.339 C 5.394 3.613,4.559 3.981,3.714 4.874 C 3.024 5.602,2.585 6.640,2.381 8.025 C 2.305 8.541,2.228 9.888,2.262 10.099 C 2.361 10.706,3.090 10.950,3.520 10.520 C 3.704 10.336,3.760 10.119,3.760 9.588 C 3.760 9.386,3.778 9.027,3.801 8.791 C 4.008 6.605,4.684 5.542,6.169 5.064 C 6.499 4.958,7.301 4.808,7.339 4.845 C 7.351 4.858,7.388 4.974,7.421 5.104 C 7.517 5.481,7.744 5.902,7.975 6.133 C 8.231 6.388,8.499 6.536,8.907 6.648 C 9.207 6.730,9.319 6.734,11.555 6.750 C 14.587 6.772,15.013 6.738,15.666 6.419 C 16.184 6.166,16.565 5.683,16.684 5.129 C 16.711 5.003,16.746 4.885,16.761 4.867 C 16.799 4.823,17.465 4.947,17.840 5.068 C 19.208 5.508,19.828 6.366,20.146 8.260 C 20.203 8.602,20.216 9.132,20.236 11.940 L 20.260 15.220 20.353 15.369 C 20.710 15.943,21.576 15.812,21.716 15.162 C 21.772 14.899,21.775 10.154,21.719 9.148 C 21.583 6.701,20.947 5.219,19.634 4.290 C 19.009 3.848,18.022 3.497,17.080 3.381 C 16.760 3.342,16.720 3.325,16.720 3.226 C 16.720 3.055,16.598 2.658,16.456 2.367 C 16.092 1.622,15.447 1.287,14.340 1.269 C 13.854 1.261,13.810 1.266,13.667 1.355 C 13.183 1.656,13.178 2.342,13.659 2.639 C 13.778 2.713,13.890 2.734,14.315 2.760 C 14.933 2.798,15.050 2.846,15.173 3.113 C 15.251 3.283,15.259 3.369,15.259 4.040 C 15.260 4.910,15.236 4.991,14.927 5.134 C 14.741 5.220,14.724 5.220,12.000 5.220 C 8.880 5.220,9.070 5.240,8.906 4.887 C 8.828 4.718,8.820 4.633,8.820 4.000 C 8.820 3.367,8.828 3.282,8.906 3.113 C 9.050 2.801,9.106 2.787,10.220 2.760 C 11.044 2.741,11.202 2.727,11.332 2.663 C 11.943 2.365,11.828 1.427,11.162 1.284 C 10.933 1.235,9.885 1.234,9.360 1.283 M2.815 13.277 C 2.638 13.321,2.461 13.456,2.353 13.631 C 2.263 13.776,2.260 13.811,2.247 14.860 C 2.232 16.056,2.290 17.436,2.381 18.080 C 2.656 20.030,3.466 21.288,4.900 21.996 C 5.786 22.433,6.692 22.633,8.164 22.719 C 9.138 22.775,13.897 22.773,14.162 22.716 C 14.904 22.557,14.924 21.471,14.189 21.286 C 14.058 21.253,13.167 21.240,11.092 21.240 C 8.111 21.240,7.631 21.222,6.869 21.078 C 5.947 20.905,5.340 20.619,4.835 20.121 C 4.383 19.675,4.174 19.279,3.981 18.506 C 3.812 17.829,3.761 17.141,3.759 15.500 C 3.759 14.630,3.741 13.946,3.717 13.841 C 3.623 13.432,3.215 13.177,2.815 13.277 M14.815 15.278 C 14.639 15.320,14.462 15.455,14.353 15.631 L 14.260 15.780 14.260 17.500 L 14.260 19.220 14.353 19.369 C 14.710 19.943,15.576 19.812,15.716 19.162 C 15.740 19.049,15.760 18.701,15.760 18.389 L 15.760 17.822 18.190 20.247 C 20.529 22.581,20.627 22.673,20.810 22.711 C 21.390 22.831,21.831 22.390,21.711 21.810 C 21.673 21.627,21.581 21.529,19.247 19.190 L 16.822 16.760 17.389 16.760 C 18.121 16.760,18.323 16.717,18.520 16.520 C 18.918 16.122,18.730 15.423,18.189 15.286 C 17.981 15.234,15.029 15.227,14.815 15.278 " stroke="none" fill-rule="evenodd" fill="black"></path></svg>