<svg width="24" height="24" viewBox="0 0 24 24" fill="none" xmlns="http://www.w3.org/2000/svg"><path d="M10.980 1.283 C 9.440 1.417,8.417 2.275,7.905 3.860 C 7.848 4.036,7.701 4.684,7.577 5.300 L 7.352 6.420 7.044 6.706 C 6.626 7.094,6.298 7.504,6.244 7.705 C 6.146 8.070,6.328 8.427,6.689 8.578 C 6.865 8.651,6.964 8.655,7.180 8.595 C 7.305 8.561,7.442 8.448,7.800 8.085 C 8.894 6.976,10.091 6.399,11.539 6.282 C 13.077 6.158,14.560 6.643,15.766 7.665 C 17.141 8.831,17.917 10.777,17.723 12.573 C 17.511 14.535,16.356 16.216,14.602 17.117 C 13.912 17.471,13.272 17.650,12.462 17.715 C 11.125 17.822,9.892 17.497,8.762 16.739 C 7.289 15.750,6.373 14.139,6.261 12.340 C 6.225 11.760,6.209 11.693,6.072 11.537 C 5.904 11.345,5.740 11.269,5.500 11.269 C 5.193 11.269,4.905 11.460,4.803 11.733 C 4.652 12.130,4.879 13.683,5.214 14.550 C 5.621 15.603,6.370 16.711,7.107 17.349 L 7.348 17.558 7.476 18.209 C 7.872 20.216,8.016 20.661,8.491 21.351 C 8.737 21.709,9.074 22.025,9.438 22.241 C 10.040 22.599,10.521 22.710,11.620 22.745 C 12.944 22.786,13.695 22.681,14.340 22.363 C 15.142 21.967,15.737 21.232,16.078 20.212 C 16.146 20.010,16.308 19.327,16.438 18.694 L 16.674 17.544 16.903 17.344 C 17.239 17.049,17.690 16.519,18.007 16.044 C 19.956 13.129,19.570 9.317,17.075 6.843 L 16.671 6.443 16.436 5.299 C 16.175 4.027,16.043 3.588,15.767 3.064 C 15.200 1.987,14.276 1.394,12.984 1.280 C 12.477 1.235,11.511 1.236,10.980 1.283 M13.294 2.838 C 13.668 2.934,13.896 3.063,14.129 3.312 C 14.464 3.670,14.664 4.119,14.824 4.870 C 14.877 5.118,14.920 5.327,14.920 5.335 C 14.920 5.342,14.753 5.286,14.550 5.210 C 13.641 4.867,12.823 4.739,11.755 4.770 C 10.847 4.797,10.093 4.945,9.365 5.237 C 9.246 5.284,9.141 5.314,9.130 5.303 C 9.093 5.266,9.250 4.546,9.367 4.211 C 9.643 3.419,10.039 3.011,10.699 2.838 C 10.935 2.776,11.142 2.764,11.984 2.762 C 12.854 2.760,13.028 2.770,13.294 2.838 M11.699 8.976 C 11.550 9.041,11.332 9.284,11.291 9.431 C 11.249 9.578,11.251 12.549,11.293 12.700 C 11.338 12.864,12.882 14.422,13.100 14.524 C 13.457 14.690,13.883 14.540,14.070 14.181 C 14.153 14.021,14.148 13.691,14.061 13.519 C 14.022 13.443,13.714 13.101,13.377 12.760 L 12.764 12.140 12.752 10.800 C 12.739 9.336,12.740 9.346,12.494 9.113 C 12.290 8.920,11.959 8.863,11.699 8.976 M9.399 18.777 C 9.740 18.915,10.280 19.067,10.720 19.149 C 11.267 19.250,12.741 19.248,13.296 19.146 C 13.730 19.065,14.192 18.935,14.612 18.775 C 14.762 18.718,14.891 18.678,14.900 18.687 C 14.931 18.718,14.725 19.589,14.622 19.860 C 14.425 20.380,14.128 20.774,13.776 20.980 C 13.415 21.192,13.087 21.240,12.000 21.240 C 10.915 21.240,10.614 21.196,10.235 20.983 C 9.741 20.705,9.390 20.089,9.198 19.166 C 9.117 18.777,9.106 18.680,9.141 18.680 C 9.152 18.680,9.269 18.723,9.399 18.777 " stroke="none" fill-rule="evenodd" fill="black"></path></svg>