<svg width="24" height="24" viewBox="0 0 24 24" fill="none" xmlns="http://www.w3.org/2000/svg"><path d="M11.560 1.267 C 10.326 1.322,9.152 1.571,8.041 2.012 C 7.427 2.256,7.240 2.454,7.240 2.860 C 7.240 3.229,7.525 3.548,7.892 3.589 C 8.032 3.605,8.152 3.574,8.523 3.428 C 9.718 2.955,10.735 2.760,12.006 2.760 C 13.464 2.760,14.754 3.058,16.060 3.698 C 17.024 4.170,17.648 4.611,18.434 5.378 C 19.273 6.195,19.814 6.937,20.303 7.940 C 20.944 9.253,21.240 10.537,21.240 12.000 C 21.240 13.465,20.943 14.752,20.302 16.060 C 19.830 17.024,19.389 17.648,18.622 18.434 C 17.805 19.273,17.063 19.814,16.060 20.303 C 14.747 20.944,13.463 21.240,12.000 21.240 C 10.537 21.240,9.253 20.944,7.940 20.303 C 6.937 19.814,6.195 19.273,5.378 18.434 C 4.611 17.648,4.170 17.024,3.698 16.060 C 3.058 14.754,2.760 13.464,2.760 12.005 C 2.760 10.060,3.331 8.256,4.457 6.648 C 4.701 6.298,4.770 6.095,4.724 5.855 C 4.656 5.497,4.372 5.267,4.000 5.267 C 3.678 5.267,3.534 5.369,3.222 5.816 C 1.432 8.383,0.834 11.537,1.564 14.550 C 1.904 15.951,2.529 17.268,3.424 18.470 C 3.880 19.083,4.909 20.111,5.530 20.575 C 7.606 22.126,10.070 22.870,12.627 22.717 C 14.790 22.588,16.724 21.879,18.470 20.575 C 19.087 20.115,20.115 19.087,20.575 18.470 C 22.127 16.391,22.870 13.930,22.717 11.373 C 22.588 9.210,21.879 7.276,20.575 5.530 C 20.115 4.913,19.087 3.885,18.470 3.425 C 17.047 2.362,15.454 1.679,13.742 1.398 C 13.325 1.330,12.055 1.227,11.880 1.248 C 11.847 1.252,11.703 1.261,11.560 1.267 M11.405 6.789 C 11.262 6.816,10.938 7.159,10.907 7.316 C 10.892 7.390,10.881 8.415,10.881 9.595 C 10.883 12.104,10.889 12.165,11.196 12.780 C 11.427 13.243,11.685 13.570,12.010 13.810 C 12.136 13.904,12.961 14.411,13.844 14.937 C 15.290 15.799,15.469 15.896,15.657 15.911 C 15.915 15.933,16.144 15.828,16.308 15.613 C 16.407 15.484,16.420 15.432,16.420 15.180 C 16.420 14.727,16.447 14.750,14.523 13.602 C 12.725 12.529,12.705 12.514,12.489 12.053 L 12.380 11.820 12.360 9.540 C 12.342 7.522,12.332 7.246,12.274 7.140 C 12.110 6.842,11.796 6.715,11.405 6.789 " stroke="none" fill-rule="evenodd" fill="black"></path></svg>