<svg width="24" height="24" viewBox="0 0 24 24" fill="none" xmlns="http://www.w3.org/2000/svg"><path d="M8.080 1.282 C 4.042 1.493,1.931 3.265,1.398 6.891 C 1.310 7.494,1.225 8.895,1.264 9.113 C 1.278 9.194,1.325 9.318,1.368 9.389 C 1.658 9.870,2.422 9.836,2.661 9.332 C 2.718 9.212,2.740 9.022,2.765 8.423 C 2.900 5.187,3.905 3.654,6.288 3.044 C 7.337 2.776,7.247 2.780,12.000 2.780 C 15.936 2.780,16.339 2.786,16.760 2.852 C 19.558 3.288,20.712 4.442,21.148 7.240 C 21.214 7.661,21.220 8.064,21.220 12.000 C 21.220 15.936,21.214 16.339,21.148 16.760 C 20.712 19.558,19.558 20.712,16.760 21.148 C 16.339 21.214,15.936 21.220,12.000 21.220 C 8.064 21.220,7.661 21.214,7.240 21.148 C 4.756 20.761,3.576 19.795,3.044 17.712 C 2.820 16.833,2.790 16.496,2.764 14.560 C 2.742 12.923,2.734 12.768,2.664 12.628 C 2.404 12.104,1.668 12.083,1.353 12.591 C 1.263 12.736,1.260 12.771,1.247 13.820 C 1.224 15.671,1.333 17.073,1.575 18.027 C 2.267 20.757,3.971 22.193,7.027 22.622 C 7.786 22.728,8.902 22.759,12.000 22.759 C 15.098 22.759,16.214 22.728,16.973 22.622 C 19.443 22.275,20.996 21.288,21.897 19.490 C 22.379 18.530,22.638 17.369,22.720 15.807 C 22.771 14.838,22.771 9.162,22.720 8.193 C 22.657 6.998,22.521 6.191,22.242 5.356 C 21.632 3.531,20.469 2.367,18.650 1.760 C 17.788 1.473,17.023 1.344,15.806 1.280 C 14.952 1.235,8.952 1.237,8.080 1.282 M8.860 8.497 C 8.711 8.563,8.539 8.744,8.483 8.893 C 8.420 9.057,8.431 9.345,8.504 9.492 C 8.539 9.562,9.101 10.155,9.754 10.810 L 10.939 12.000 9.754 13.190 C 9.101 13.845,8.539 14.438,8.504 14.508 C 8.431 14.655,8.420 14.943,8.483 15.107 C 8.540 15.261,8.713 15.438,8.869 15.505 C 9.041 15.579,9.335 15.575,9.492 15.496 C 9.562 15.461,10.155 14.899,10.810 14.246 L 12.000 13.061 13.190 14.246 C 13.845 14.899,14.438 15.461,14.508 15.496 C 14.665 15.575,14.959 15.579,15.131 15.505 C 15.287 15.438,15.460 15.261,15.517 15.107 C 15.580 14.943,15.569 14.655,15.496 14.508 C 15.408 14.331,9.696 8.613,9.512 8.517 C 9.339 8.427,9.037 8.418,8.860 8.497 M14.480 8.518 C 14.403 8.560,14.112 8.824,13.834 9.107 C 13.274 9.675,13.206 9.797,13.258 10.141 C 13.281 10.295,13.322 10.366,13.478 10.522 C 13.634 10.678,13.705 10.719,13.859 10.742 C 14.203 10.794,14.325 10.726,14.893 10.166 C 15.452 9.615,15.560 9.457,15.560 9.184 C 15.560 8.738,15.257 8.438,14.811 8.442 C 14.704 8.443,14.558 8.476,14.480 8.518 " stroke="none" fill-rule="evenodd" fill="black"></path></svg>