<svg width="24" height="24" viewBox="0 0 24 24" fill="none" xmlns="http://www.w3.org/2000/svg"><path d="M11.560 1.267 C 10.326 1.322,9.152 1.571,8.041 2.012 C 7.427 2.256,7.240 2.454,7.240 2.860 C 7.240 3.229,7.525 3.548,7.892 3.589 C 8.032 3.605,8.152 3.574,8.523 3.428 C 9.718 2.955,10.735 2.760,12.006 2.760 C 13.464 2.760,14.754 3.058,16.060 3.698 C 17.024 4.170,17.648 4.611,18.434 5.378 C 19.273 6.195,19.814 6.937,20.303 7.940 C 20.944 9.253,21.240 10.537,21.240 12.000 C 21.240 13.465,20.943 14.752,20.302 16.060 C 19.830 17.024,19.389 17.648,18.622 18.434 C 17.805 19.273,17.063 19.814,16.060 20.303 C 14.747 20.944,13.463 21.240,12.000 21.240 C 10.537 21.240,9.253 20.944,7.940 20.303 C 6.937 19.814,6.195 19.273,5.378 18.434 C 4.611 17.648,4.170 17.024,3.698 16.060 C 3.058 14.754,2.760 13.464,2.760 12.005 C 2.760 10.060,3.331 8.256,4.457 6.648 C 4.701 6.298,4.770 6.095,4.724 5.855 C 4.656 5.497,4.372 5.267,4.000 5.267 C 3.678 5.267,3.534 5.369,3.222 5.816 C 1.432 8.383,0.834 11.537,1.564 14.550 C 1.904 15.951,2.529 17.268,3.424 18.470 C 3.880 19.083,4.909 20.111,5.530 20.575 C 7.606 22.126,10.070 22.870,12.627 22.717 C 14.790 22.588,16.724 21.879,18.470 20.575 C 19.087 20.115,20.115 19.087,20.575 18.470 C 22.127 16.391,22.870 13.930,22.717 11.373 C 22.588 9.210,21.879 7.276,20.575 5.530 C 20.115 4.913,19.087 3.885,18.470 3.425 C 17.047 2.362,15.454 1.679,13.742 1.398 C 13.325 1.330,12.055 1.227,11.880 1.248 C 11.847 1.252,11.703 1.261,11.560 1.267 M8.860 8.497 C 8.711 8.563,8.539 8.744,8.483 8.893 C 8.420 9.057,8.431 9.345,8.504 9.492 C 8.539 9.562,9.101 10.155,9.754 10.810 L 10.939 12.000 9.754 13.190 C 9.101 13.845,8.539 14.438,8.504 14.508 C 8.431 14.655,8.420 14.943,8.483 15.107 C 8.540 15.261,8.713 15.438,8.869 15.505 C 9.041 15.579,9.335 15.575,9.492 15.496 C 9.562 15.461,10.155 14.899,10.810 14.246 L 12.000 13.061 13.190 14.246 C 13.845 14.899,14.438 15.461,14.508 15.496 C 14.665 15.575,14.959 15.579,15.131 15.505 C 15.287 15.438,15.460 15.261,15.517 15.107 C 15.580 14.943,15.569 14.655,15.496 14.508 C 15.408 14.331,9.696 8.613,9.512 8.517 C 9.339 8.427,9.037 8.418,8.860 8.497 M14.480 8.518 C 14.403 8.560,14.112 8.824,13.834 9.107 C 13.274 9.675,13.206 9.797,13.258 10.141 C 13.281 10.295,13.322 10.366,13.478 10.522 C 13.634 10.678,13.705 10.719,13.859 10.742 C 14.203 10.794,14.325 10.726,14.893 10.166 C 15.452 9.615,15.560 9.457,15.560 9.184 C 15.560 8.738,15.257 8.438,14.811 8.442 C 14.704 8.443,14.558 8.476,14.480 8.518 " stroke="none" fill-rule="evenodd" fill="black"></path></svg>