<svg width="24" height="24" viewBox="0 0 24 24" fill="none" xmlns="http://www.w3.org/2000/svg"><path d="M10.900 3.160 C 8.301 3.369,6.045 4.846,5.001 7.020 C 4.361 8.355,4.202 9.840,4.525 11.473 C 4.570 11.701,4.600 11.891,4.593 11.897 C 4.586 11.902,4.409 11.965,4.200 12.037 C 1.487 12.964,0.423 16.351,2.062 18.839 C 2.565 19.602,3.361 20.202,4.255 20.495 C 4.979 20.731,4.771 20.725,11.440 20.710 L 17.540 20.697 17.920 20.608 C 19.004 20.354,19.881 19.907,20.724 19.178 C 21.954 18.115,22.638 16.681,22.709 15.016 C 22.766 13.675,22.395 12.362,21.631 11.208 C 21.281 10.679,20.539 9.926,20.036 9.591 C 19.596 9.297,18.957 8.992,18.507 8.863 C 18.312 8.807,18.140 8.752,18.124 8.742 C 18.107 8.732,18.070 8.619,18.042 8.492 C 17.942 8.044,17.629 7.215,17.372 6.717 C 17.078 6.147,16.648 5.524,16.424 5.342 C 16.286 5.231,16.246 5.220,15.983 5.220 C 15.728 5.220,15.677 5.233,15.547 5.332 C 15.272 5.542,15.166 5.915,15.297 6.211 C 15.328 6.282,15.472 6.502,15.616 6.700 C 15.760 6.898,15.967 7.240,16.076 7.460 C 16.258 7.828,16.560 8.623,16.560 8.736 C 16.560 8.762,16.402 8.835,16.210 8.897 C 15.470 9.137,15.234 9.301,15.120 9.654 C 15.017 9.978,15.194 10.413,15.492 10.567 C 15.732 10.691,15.954 10.676,16.380 10.509 C 16.852 10.324,17.130 10.270,17.640 10.265 C 18.039 10.260,18.078 10.267,18.413 10.408 C 18.971 10.641,19.336 10.890,19.805 11.357 C 20.278 11.826,20.553 12.221,20.798 12.781 C 21.469 14.309,21.347 15.960,20.467 17.260 C 20.265 17.558,19.751 18.074,19.380 18.350 C 19.049 18.597,18.411 18.920,18.022 19.038 C 17.348 19.242,17.441 19.240,11.234 19.240 C 5.021 19.240,5.173 19.245,4.622 19.038 C 4.046 18.821,3.492 18.358,3.189 17.839 C 2.875 17.301,2.730 16.577,2.800 15.900 C 2.876 15.172,3.132 14.627,3.639 14.117 C 4.161 13.592,4.738 13.336,5.500 13.293 C 5.935 13.268,6.265 13.331,6.799 13.540 C 7.212 13.701,7.346 13.707,7.618 13.578 C 8.043 13.377,8.122 12.690,7.755 12.382 C 7.540 12.201,7.009 11.992,6.483 11.883 L 6.145 11.813 6.075 11.564 C 5.888 10.902,5.809 10.022,5.878 9.381 C 6.015 8.108,6.464 7.167,7.357 6.279 C 7.972 5.667,8.692 5.233,9.580 4.938 C 10.251 4.715,10.511 4.674,11.380 4.652 C 12.280 4.628,12.384 4.601,12.588 4.333 C 12.687 4.204,12.700 4.152,12.700 3.900 C 12.700 3.648,12.687 3.596,12.588 3.467 C 12.410 3.233,12.244 3.171,11.739 3.148 C 11.498 3.137,11.120 3.142,10.900 3.160 " stroke="none" fill-rule="evenodd" fill="black"></path></svg>