<svg width="24" height="24" viewBox="0 0 24 24" fill="none" xmlns="http://www.w3.org/2000/svg"><path d="M10.880 3.239 C 7.649 3.520,5.103 5.678,4.518 8.629 C 4.351 9.471,4.369 10.642,4.563 11.538 C 4.605 11.735,4.640 11.909,4.640 11.924 C 4.640 11.939,4.495 11.999,4.318 12.056 C 3.219 12.410,2.334 13.174,1.811 14.221 C 1.448 14.947,1.279 15.887,1.361 16.720 C 1.562 18.737,2.905 20.266,4.820 20.655 C 5.332 20.759,5.649 20.774,5.823 20.701 C 6.294 20.504,6.454 19.972,6.163 19.570 C 6.016 19.367,5.861 19.299,5.420 19.241 C 4.654 19.142,4.112 18.875,3.624 18.357 C 3.390 18.108,3.275 17.944,3.142 17.665 C 2.893 17.148,2.825 16.797,2.849 16.145 C 2.865 15.693,2.884 15.571,2.989 15.270 C 3.386 14.126,4.313 13.424,5.543 13.333 C 5.934 13.304,6.342 13.384,6.828 13.585 C 7.213 13.744,7.359 13.752,7.601 13.630 C 7.999 13.428,8.133 12.974,7.907 12.589 C 7.812 12.426,7.753 12.380,7.469 12.245 C 7.114 12.077,6.798 11.974,6.422 11.904 L 6.185 11.860 6.114 11.620 C 5.894 10.880,5.830 9.667,5.973 8.949 C 6.340 7.108,7.675 5.651,9.574 5.020 C 10.241 4.799,10.512 4.755,11.320 4.735 C 12.238 4.713,12.289 4.705,12.463 4.552 C 12.704 4.341,12.795 4.077,12.721 3.803 C 12.668 3.606,12.468 3.368,12.297 3.296 C 12.135 3.228,11.363 3.197,10.880 3.239 M15.659 5.336 C 15.380 5.457,15.168 5.848,15.222 6.139 C 15.249 6.279,15.286 6.342,15.675 6.902 C 16.023 7.403,16.567 8.639,16.512 8.804 C 16.504 8.828,16.345 8.897,16.159 8.959 C 15.474 9.184,15.249 9.330,15.138 9.621 C 15.004 9.971,15.153 10.392,15.462 10.538 C 15.733 10.667,15.869 10.661,16.281 10.501 C 16.972 10.234,17.346 10.186,17.835 10.301 C 19.743 10.751,21.169 12.675,21.169 14.800 C 21.169 15.916,20.794 16.922,20.097 17.677 C 19.203 18.645,18.190 19.140,16.908 19.237 C 16.478 19.269,16.368 19.291,16.227 19.374 C 15.655 19.709,15.809 20.573,16.468 20.722 C 16.649 20.763,17.453 20.703,17.865 20.618 C 18.659 20.454,19.515 20.078,20.183 19.600 C 20.632 19.278,21.398 18.514,21.668 18.118 C 22.744 16.540,22.964 14.466,22.256 12.571 C 22.057 12.039,21.897 11.729,21.554 11.216 C 21.028 10.431,20.187 9.690,19.340 9.269 C 19.027 9.113,18.459 8.905,18.231 8.864 C 18.097 8.839,18.078 8.820,18.039 8.668 C 17.769 7.602,17.372 6.699,16.857 5.975 C 16.568 5.569,16.411 5.404,16.251 5.335 C 16.091 5.266,15.818 5.267,15.659 5.336 M9.814 15.278 C 9.745 15.295,9.628 15.346,9.554 15.392 C 9.361 15.512,7.381 17.515,7.304 17.668 C 7.210 17.856,7.221 18.176,7.330 18.368 C 7.507 18.684,7.990 18.833,8.301 18.668 C 8.501 18.562,10.589 16.439,10.659 16.271 C 10.737 16.082,10.736 15.917,10.658 15.729 C 10.513 15.381,10.164 15.195,9.814 15.278 M13.814 15.278 C 13.745 15.295,13.628 15.346,13.554 15.392 C 13.361 15.512,11.381 17.515,11.304 17.668 C 11.210 17.856,11.221 18.176,11.330 18.368 C 11.507 18.684,11.990 18.833,12.301 18.668 C 12.501 18.562,14.589 16.439,14.659 16.271 C 14.737 16.082,14.736 15.917,14.658 15.729 C 14.513 15.381,14.164 15.195,13.814 15.278 M9.814 19.278 C 9.745 19.295,9.628 19.346,9.554 19.392 C 9.361 19.512,7.381 21.515,7.304 21.668 C 7.210 21.856,7.221 22.176,7.330 22.368 C 7.507 22.684,7.990 22.833,8.301 22.668 C 8.501 22.562,10.589 20.439,10.659 20.271 C 10.737 20.082,10.736 19.917,10.658 19.729 C 10.513 19.381,10.164 19.195,9.814 19.278 M13.814 19.278 C 13.745 19.295,13.628 19.346,13.554 19.392 C 13.361 19.512,11.381 21.515,11.304 21.668 C 11.210 21.856,11.221 22.176,11.330 22.368 C 11.507 22.684,11.990 22.833,12.301 22.668 C 12.501 22.562,14.589 20.439,14.659 20.271 C 14.737 20.082,14.736 19.917,14.658 19.729 C 14.513 19.381,14.164 19.195,13.814 19.278 " stroke="none" fill-rule="evenodd" fill="black"></path></svg>