<svg width="24" height="24" viewBox="0 0 24 24" fill="none" xmlns="http://www.w3.org/2000/svg"><path d="M10.948 1.280 C 9.012 1.464,7.236 2.478,6.228 3.977 C 5.783 4.640,5.525 5.250,5.355 6.040 C 5.279 6.392,5.265 6.582,5.265 7.220 C 5.264 7.937,5.284 8.134,5.421 8.783 C 5.446 8.900,5.439 8.908,5.274 8.956 C 4.301 9.243,3.383 10.053,2.937 11.018 C 2.392 12.198,2.463 13.710,3.114 14.814 C 3.684 15.779,4.500 16.374,5.632 16.649 C 5.964 16.730,6.098 16.734,8.610 16.749 L 11.240 16.765 11.240 17.557 L 11.240 18.349 11.010 18.434 C 10.357 18.674,9.674 19.356,9.434 20.008 L 9.351 20.236 7.562 20.248 L 5.774 20.260 5.612 20.367 C 5.372 20.526,5.267 20.721,5.267 21.007 C 5.267 21.203,5.286 21.270,5.383 21.408 C 5.447 21.499,5.572 21.610,5.660 21.656 C 5.815 21.738,5.880 21.740,7.940 21.752 C 9.386 21.761,10.107 21.751,10.208 21.721 C 10.530 21.627,10.757 21.309,10.759 20.952 C 10.761 20.495,11.109 20.005,11.546 19.841 C 12.369 19.533,13.240 20.129,13.240 21.000 C 13.240 21.332,13.120 21.626,12.889 21.861 C 12.656 22.098,12.437 22.198,12.045 22.247 C 11.866 22.269,11.688 22.318,11.608 22.367 C 11.257 22.584,11.150 23.078,11.383 23.408 C 11.558 23.655,11.750 23.738,12.131 23.730 C 13.062 23.710,13.940 23.161,14.418 22.300 C 14.491 22.168,14.572 21.992,14.599 21.910 L 14.646 21.760 16.301 21.760 C 17.359 21.760,18.030 21.744,18.162 21.716 C 18.904 21.557,18.924 20.471,18.189 20.286 C 18.064 20.255,17.466 20.240,16.328 20.240 L 14.651 20.240 14.566 20.010 C 14.326 19.356,13.644 18.674,12.990 18.434 L 12.760 18.349 12.760 17.557 L 12.760 16.764 14.490 16.752 L 16.220 16.740 16.400 16.634 C 16.886 16.348,16.886 15.652,16.400 15.366 L 16.220 15.260 11.100 15.240 L 5.980 15.220 5.691 15.114 C 5.274 14.962,5.055 14.823,4.755 14.519 C 4.298 14.057,4.079 13.493,4.077 12.775 C 4.075 12.038,4.281 11.493,4.750 10.995 C 5.140 10.582,5.626 10.355,6.279 10.280 C 6.661 10.237,6.886 10.129,7.020 9.928 C 7.180 9.685,7.186 9.480,7.046 9.040 C 6.498 7.325,6.671 5.858,7.558 4.678 C 8.281 3.716,9.435 3.031,10.695 2.818 C 11.271 2.720,12.161 2.753,12.691 2.893 C 13.909 3.213,14.866 3.989,15.453 5.132 C 15.656 5.528,15.884 6.212,15.982 6.720 C 16.094 7.299,16.231 7.438,16.808 7.561 C 17.308 7.668,17.524 7.741,17.884 7.926 C 18.819 8.407,19.552 9.406,19.846 10.600 C 19.880 10.739,19.900 11.055,19.900 11.460 C 19.899 12.331,19.794 12.711,19.341 13.479 C 19.171 13.769,19.143 13.845,19.146 14.019 C 19.153 14.493,19.530 14.812,20.009 14.748 C 20.298 14.709,20.526 14.465,20.853 13.846 C 21.237 13.117,21.410 12.370,21.412 11.440 C 21.412 10.759,21.340 10.300,21.135 9.687 C 20.849 8.833,20.432 8.151,19.821 7.538 C 19.208 6.923,18.569 6.527,17.765 6.263 L 17.389 6.140 17.312 5.841 C 16.991 4.602,16.264 3.390,15.408 2.670 C 14.576 1.970,13.686 1.549,12.645 1.363 C 12.124 1.270,11.417 1.236,10.948 1.280 " stroke="none" fill-rule="evenodd" fill="black"></path></svg>