<svg width="24" height="24" viewBox="0 0 24 24" fill="none" xmlns="http://www.w3.org/2000/svg"><path d="M9.160 2.299 C 7.056 2.606,5.227 3.716,4.150 5.340 C 3.336 6.569,2.993 7.899,3.084 9.480 C 3.135 10.371,3.468 11.754,3.706 12.070 C 4.097 12.587,4.938 12.363,5.023 11.719 C 5.041 11.579,5.015 11.441,4.903 11.088 C 4.629 10.219,4.583 9.915,4.584 9.000 C 4.586 8.212,4.591 8.162,4.710 7.709 C 4.846 7.196,5.131 6.556,5.399 6.161 C 6.213 4.963,7.532 4.127,9.101 3.814 C 9.597 3.716,10.681 3.715,11.174 3.813 C 12.816 4.141,14.070 5.109,14.798 6.613 C 14.978 6.985,15.280 7.766,15.280 7.859 C 15.280 7.865,15.124 7.919,14.934 7.978 C 14.532 8.104,14.143 8.285,14.013 8.406 C 13.679 8.720,13.775 9.385,14.182 9.578 C 14.456 9.708,14.585 9.701,15.040 9.528 C 15.967 9.175,16.465 9.198,17.380 9.636 C 17.868 9.870,18.162 10.089,18.593 10.537 C 18.949 10.908,19.179 11.239,19.432 11.743 C 19.681 12.240,19.921 12.403,20.325 12.348 C 20.628 12.308,20.878 12.052,20.940 11.718 C 20.975 11.528,20.863 11.216,20.584 10.724 C 19.850 9.429,18.708 8.462,17.393 8.022 C 17.160 7.944,16.942 7.880,16.907 7.880 C 16.822 7.880,16.808 7.850,16.695 7.429 C 15.960 4.670,14.048 2.832,11.396 2.335 C 10.928 2.248,9.653 2.227,9.160 2.299 M3.720 14.344 C 3.423 14.473,3.269 14.706,3.269 15.026 C 3.269 15.293,3.411 15.547,3.632 15.670 L 3.791 15.760 9.500 15.760 L 15.209 15.760 15.368 15.670 C 15.784 15.437,15.860 14.816,15.513 14.492 C 15.274 14.268,15.606 14.280,9.491 14.282 C 4.552 14.283,3.843 14.291,3.720 14.344 M17.720 14.344 C 17.423 14.473,17.269 14.706,17.269 15.026 C 17.269 15.293,17.411 15.547,17.632 15.670 C 17.787 15.758,17.822 15.760,19.000 15.760 C 20.178 15.760,20.213 15.758,20.368 15.670 C 20.784 15.437,20.860 14.816,20.513 14.492 C 20.301 14.293,20.203 14.280,18.991 14.282 C 18.072 14.283,17.834 14.294,17.720 14.344 M5.720 17.344 C 5.423 17.473,5.269 17.706,5.269 18.026 C 5.269 18.293,5.411 18.547,5.632 18.670 L 5.791 18.760 12.000 18.760 L 18.209 18.760 18.368 18.670 C 18.784 18.437,18.860 17.816,18.513 17.492 C 18.273 17.268,18.652 17.280,11.991 17.282 C 6.605 17.283,5.843 17.290,5.720 17.344 M8.720 20.344 C 8.423 20.473,8.269 20.706,8.269 21.026 C 8.269 21.293,8.411 21.547,8.632 21.670 L 8.791 21.760 12.002 21.760 L 15.213 21.760 15.377 21.664 C 15.787 21.424,15.858 20.814,15.513 20.492 C 15.280 20.274,15.378 20.280,11.991 20.282 C 9.285 20.283,8.841 20.291,8.720 20.344 " stroke="none" fill-rule="evenodd" fill="black"></path></svg>