<svg width="24" height="24" viewBox="0 0 24 24" fill="none" xmlns="http://www.w3.org/2000/svg"><path d="M14.815 1.278 C 14.433 1.369,14.180 1.790,14.281 2.165 C 14.328 2.340,15.355 4.078,15.516 4.255 C 15.800 4.569,16.374 4.549,16.636 4.216 C 16.745 4.078,16.813 3.818,16.786 3.649 C 16.774 3.576,16.696 3.395,16.612 3.248 C 16.528 3.100,16.454 2.966,16.446 2.948 C 16.410 2.865,17.261 3.154,17.739 3.388 C 18.977 3.993,19.960 4.966,20.582 6.203 C 20.991 7.019,21.172 7.709,21.237 8.709 C 21.266 9.142,21.288 9.263,21.359 9.378 C 21.612 9.787,22.183 9.857,22.520 9.520 C 22.731 9.309,22.765 9.119,22.717 8.441 C 22.547 6.048,21.284 3.881,19.277 2.542 C 18.604 2.094,17.745 1.710,16.947 1.503 C 16.288 1.332,15.110 1.207,14.815 1.278 M10.824 5.984 C 9.090 6.297,7.746 7.473,7.256 9.104 C 7.159 9.427,7.149 9.525,7.145 10.160 C 7.142 10.545,7.154 10.950,7.170 11.061 L 7.200 11.261 6.927 11.388 C 6.152 11.749,5.548 12.492,5.338 13.340 C 5.234 13.761,5.242 14.489,5.356 14.899 C 5.659 15.989,6.430 16.748,7.489 17.000 C 7.830 17.081,7.913 17.082,11.669 17.071 C 15.481 17.059,15.502 17.059,15.811 16.971 C 16.914 16.658,17.882 15.870,18.353 14.900 C 18.606 14.380,18.720 13.875,18.720 13.276 C 18.720 12.772,18.679 12.637,18.467 12.451 C 18.223 12.237,17.798 12.220,17.544 12.414 C 17.324 12.582,17.240 12.805,17.240 13.224 C 17.240 13.897,17.045 14.365,16.565 14.843 C 16.205 15.201,15.854 15.409,15.420 15.520 C 15.119 15.597,14.975 15.600,11.582 15.600 C 7.647 15.600,7.765 15.608,7.361 15.326 C 6.930 15.024,6.739 14.598,6.768 14.004 C 6.780 13.746,6.810 13.605,6.886 13.438 C 7.119 12.932,7.472 12.696,8.134 12.603 C 8.476 12.555,8.680 12.428,8.795 12.190 C 8.909 11.956,8.902 11.817,8.756 11.320 C 8.581 10.730,8.550 10.043,8.677 9.582 C 8.977 8.489,9.831 7.721,11.017 7.476 C 11.718 7.331,12.325 7.402,12.940 7.699 C 13.765 8.098,14.266 8.806,14.519 9.933 C 14.617 10.364,14.725 10.536,14.976 10.656 C 15.295 10.807,15.726 10.680,15.900 10.383 C 16.043 10.140,16.058 10.004,15.981 9.652 C 15.861 9.100,15.721 8.694,15.506 8.270 C 14.863 7.004,13.816 6.222,12.440 5.980 C 12.020 5.906,11.246 5.908,10.824 5.984 M1.819 14.276 C 1.554 14.342,1.338 14.564,1.276 14.833 C 1.257 14.916,1.260 15.220,1.281 15.527 C 1.452 17.954,2.695 20.097,4.723 21.459 C 5.480 21.968,6.587 22.422,7.496 22.597 C 8.076 22.709,8.920 22.768,9.173 22.713 C 9.561 22.630,9.821 22.204,9.716 21.825 C 9.669 21.655,8.639 19.916,8.484 19.745 C 8.200 19.431,7.626 19.451,7.364 19.784 C 7.255 19.922,7.187 20.182,7.214 20.351 C 7.226 20.424,7.304 20.605,7.388 20.752 C 7.472 20.900,7.546 21.034,7.554 21.052 C 7.592 21.138,6.730 20.842,6.240 20.600 C 5.202 20.088,4.311 19.284,3.689 18.298 C 3.156 17.452,2.766 16.185,2.760 15.280 C 2.758 14.939,2.698 14.691,2.580 14.536 C 2.422 14.329,2.078 14.211,1.819 14.276 " stroke="none" fill-rule="evenodd" fill="black"></path></svg>