<svg width="24" height="24" viewBox="0 0 24 24" fill="none" xmlns="http://www.w3.org/2000/svg"><path d="M10.820 3.244 C 9.735 3.333,8.533 3.723,7.610 4.286 C 7.037 4.635,6.691 4.913,6.603 5.093 C 6.442 5.427,6.532 5.803,6.827 6.028 C 6.956 6.127,7.008 6.140,7.260 6.140 L 7.545 6.140 7.883 5.897 C 8.634 5.357,9.302 5.053,10.220 4.835 C 10.572 4.752,10.717 4.740,11.420 4.740 C 12.288 4.740,12.538 4.773,13.140 4.967 C 14.695 5.468,15.836 6.665,16.424 8.413 C 16.499 8.635,16.560 8.828,16.560 8.844 C 16.560 8.859,16.430 8.912,16.270 8.960 C 16.110 9.008,15.833 9.115,15.654 9.199 C 15.377 9.328,15.313 9.377,15.224 9.529 C 14.929 10.032,15.271 10.656,15.840 10.653 C 15.947 10.652,16.147 10.600,16.335 10.524 C 17.115 10.209,17.641 10.205,18.428 10.510 C 19.343 10.864,20.196 11.676,20.690 12.660 C 21.467 14.211,21.383 15.983,20.467 17.340 C 20.261 17.645,19.658 18.247,19.320 18.486 C 18.984 18.723,18.547 18.942,18.120 19.087 C 17.409 19.328,17.655 19.320,11.225 19.320 C 5.448 19.319,5.334 19.318,5.001 19.238 C 3.931 18.982,3.157 18.215,2.878 17.135 C 2.764 16.698,2.765 15.982,2.878 15.544 C 3.160 14.455,3.923 13.700,5.000 13.442 C 5.605 13.297,6.056 13.340,6.760 13.608 C 7.215 13.781,7.344 13.788,7.618 13.658 C 8.043 13.457,8.122 12.770,7.755 12.462 C 7.539 12.281,7.009 12.072,6.481 11.962 L 6.141 11.892 6.070 11.616 C 5.868 10.832,5.856 10.648,5.894 8.957 C 5.899 8.724,5.887 8.676,5.785 8.543 C 5.488 8.154,5.034 8.105,4.680 8.425 C 4.493 8.594,4.458 8.694,4.396 9.240 C 4.317 9.944,4.385 10.905,4.581 11.861 C 4.606 11.981,4.606 11.982,4.273 12.090 C 2.890 12.541,1.844 13.654,1.461 15.084 C 0.832 17.427,2.018 19.803,4.198 20.568 C 4.320 20.610,4.591 20.684,4.800 20.731 C 5.176 20.815,5.237 20.816,10.820 20.830 C 16.682 20.845,17.277 20.833,17.953 20.681 C 20.165 20.184,21.909 18.567,22.500 16.463 C 22.683 15.809,22.758 14.903,22.683 14.240 C 22.574 13.269,22.229 12.240,21.772 11.525 L 21.635 11.310 21.732 11.205 C 21.904 11.020,22.157 10.618,22.317 10.274 C 23.149 8.486,22.616 6.324,21.051 5.142 C 20.394 4.645,19.645 4.352,18.864 4.284 C 18.377 4.242,17.776 4.290,17.360 4.405 C 17.044 4.492,16.400 4.778,16.201 4.919 L 16.083 5.003 15.792 4.758 C 14.755 3.886,13.504 3.378,12.060 3.242 C 11.573 3.196,11.407 3.196,10.820 3.244 M19.320 5.873 C 19.463 5.920,19.697 6.026,19.840 6.109 C 20.158 6.294,20.653 6.783,20.835 7.091 C 21.342 7.952,21.342 9.030,20.836 9.889 L 20.677 10.159 20.449 9.972 C 19.870 9.500,19.188 9.140,18.483 8.936 C 18.295 8.882,18.130 8.824,18.116 8.809 C 18.102 8.793,18.051 8.619,18.003 8.422 C 17.849 7.795,17.387 6.696,17.121 6.321 C 17.076 6.259,17.040 6.191,17.040 6.170 C 17.040 6.115,17.539 5.893,17.821 5.822 C 18.171 5.734,18.976 5.762,19.320 5.873 " stroke="none" fill-rule="evenodd" fill="black"></path></svg>