<svg width="24" height="24" viewBox="0 0 24 24" fill="none" xmlns="http://www.w3.org/2000/svg"><path d="M10.880 3.239 C 7.649 3.520,5.103 5.678,4.518 8.629 C 4.351 9.471,4.369 10.642,4.563 11.538 C 4.605 11.735,4.640 11.909,4.640 11.924 C 4.640 11.939,4.495 11.999,4.318 12.056 C 3.219 12.410,2.334 13.174,1.811 14.221 C 1.448 14.947,1.279 15.887,1.361 16.720 C 1.562 18.737,2.905 20.266,4.820 20.655 C 5.332 20.759,5.649 20.774,5.823 20.701 C 6.294 20.504,6.454 19.972,6.163 19.570 C 6.016 19.367,5.861 19.299,5.420 19.241 C 4.654 19.142,4.112 18.875,3.624 18.357 C 3.390 18.108,3.275 17.944,3.142 17.665 C 2.893 17.148,2.825 16.797,2.849 16.145 C 2.865 15.693,2.884 15.571,2.989 15.270 C 3.386 14.126,4.313 13.424,5.543 13.333 C 5.934 13.304,6.342 13.384,6.828 13.585 C 7.213 13.744,7.359 13.752,7.601 13.630 C 7.999 13.428,8.133 12.974,7.907 12.589 C 7.812 12.426,7.753 12.380,7.469 12.245 C 7.114 12.077,6.798 11.974,6.422 11.904 L 6.185 11.860 6.114 11.620 C 5.894 10.880,5.830 9.667,5.973 8.949 C 6.340 7.108,7.675 5.651,9.574 5.020 C 10.241 4.799,10.512 4.755,11.320 4.735 C 12.238 4.713,12.289 4.705,12.463 4.552 C 12.704 4.341,12.795 4.077,12.721 3.803 C 12.668 3.606,12.468 3.368,12.297 3.296 C 12.135 3.228,11.363 3.197,10.880 3.239 M15.659 5.336 C 15.380 5.457,15.168 5.848,15.222 6.139 C 15.249 6.279,15.286 6.342,15.675 6.902 C 16.023 7.403,16.567 8.639,16.512 8.804 C 16.504 8.828,16.345 8.897,16.159 8.959 C 15.474 9.184,15.249 9.330,15.138 9.621 C 15.004 9.971,15.153 10.392,15.462 10.538 C 15.733 10.667,15.869 10.661,16.281 10.501 C 16.972 10.234,17.346 10.186,17.835 10.301 C 19.743 10.751,21.169 12.675,21.169 14.800 C 21.169 15.916,20.794 16.922,20.097 17.677 C 19.203 18.645,18.190 19.140,16.908 19.237 C 16.478 19.269,16.368 19.291,16.227 19.374 C 15.655 19.709,15.809 20.573,16.468 20.722 C 16.649 20.763,17.453 20.703,17.865 20.618 C 18.659 20.454,19.515 20.078,20.183 19.600 C 20.632 19.278,21.398 18.514,21.668 18.118 C 22.744 16.540,22.964 14.466,22.256 12.571 C 22.057 12.039,21.897 11.729,21.554 11.216 C 21.028 10.431,20.187 9.690,19.340 9.269 C 19.027 9.113,18.459 8.905,18.231 8.864 C 18.097 8.839,18.078 8.820,18.039 8.668 C 17.769 7.602,17.372 6.699,16.857 5.975 C 16.568 5.569,16.411 5.404,16.251 5.335 C 16.091 5.266,15.818 5.267,15.659 5.336 M9.280 17.904 C 9.108 17.978,8.972 18.103,8.890 18.259 C 8.807 18.419,8.812 18.749,8.899 18.921 C 8.938 18.997,9.179 19.271,9.433 19.530 L 9.896 20.000 9.433 20.470 C 9.179 20.729,8.938 21.003,8.899 21.079 C 8.812 21.251,8.807 21.581,8.890 21.741 C 9.014 21.979,9.304 22.160,9.560 22.160 C 9.798 22.160,9.977 22.040,10.469 21.550 L 10.958 21.063 11.409 21.504 C 11.950 22.034,12.059 22.113,12.292 22.145 C 12.739 22.206,13.120 21.873,13.120 21.420 C 13.120 21.118,13.031 20.981,12.510 20.475 L 12.020 20.000 12.511 19.522 C 13.032 19.016,13.120 18.879,13.120 18.580 C 13.120 18.127,12.739 17.794,12.292 17.855 C 12.059 17.887,11.950 17.966,11.409 18.496 L 10.958 18.937 10.469 18.450 C 9.857 17.840,9.648 17.744,9.280 17.904 " stroke="none" fill-rule="evenodd" fill="black"></path></svg>