<svg width="24" height="24" viewBox="0 0 24 24" fill="none" xmlns="http://www.w3.org/2000/svg"><path d="M10.920 3.225 C 10.865 3.233,10.658 3.260,10.460 3.285 C 9.293 3.430,8.072 3.913,7.130 4.601 C 6.361 5.163,6.189 5.372,6.189 5.740 C 6.189 6.058,6.347 6.292,6.649 6.418 C 6.976 6.555,7.166 6.490,7.679 6.065 C 8.750 5.178,10.025 4.718,11.420 4.713 C 12.033 4.712,12.326 4.749,12.956 4.908 C 13.325 5.001,13.393 5.008,13.552 4.965 C 13.799 4.899,13.938 4.790,14.037 4.587 C 14.194 4.261,14.108 3.876,13.830 3.666 C 13.452 3.381,11.691 3.114,10.920 3.225 M18.024 4.285 C 16.447 4.436,15.039 5.542,14.482 7.069 C 14.095 8.129,14.170 9.387,14.679 10.400 C 14.985 11.007,15.557 11.660,16.092 12.014 C 16.416 12.228,17.004 12.497,17.360 12.595 C 18.269 12.845,19.387 12.755,20.220 12.364 C 21.885 11.584,22.891 9.829,22.686 8.063 C 22.620 7.493,22.514 7.133,22.260 6.619 C 21.475 5.027,19.818 4.115,18.024 4.285 M19.176 5.839 C 20.110 6.078,20.905 6.885,21.144 7.839 C 21.228 8.173,21.228 8.780,21.144 9.136 C 20.914 10.106,20.084 10.942,19.117 11.176 C 18.750 11.265,18.166 11.259,17.784 11.161 C 17.283 11.033,16.950 10.836,16.539 10.422 C 15.994 9.875,15.778 9.409,15.733 8.680 C 15.702 8.162,15.786 7.731,16.008 7.283 C 16.232 6.831,16.756 6.292,17.189 6.067 C 17.779 5.761,18.532 5.674,19.176 5.839 M4.767 8.966 C 4.665 9.016,4.549 9.118,4.487 9.213 C 4.390 9.359,4.379 9.416,4.366 9.831 C 4.349 10.355,4.407 10.987,4.525 11.565 C 4.570 11.786,4.601 11.972,4.593 11.978 C 4.586 11.984,4.435 12.037,4.257 12.095 C 2.883 12.548,1.842 13.661,1.461 15.084 C 0.833 17.430,2.018 19.803,4.198 20.568 C 4.320 20.610,4.591 20.684,4.800 20.731 C 5.176 20.815,5.237 20.816,10.820 20.830 C 16.682 20.845,17.277 20.833,17.953 20.681 C 19.215 20.398,20.321 19.760,21.203 18.807 C 22.305 17.616,22.869 15.879,22.684 14.240 C 22.622 13.694,22.587 13.594,22.400 13.425 C 22.049 13.108,21.591 13.154,21.300 13.537 C 21.163 13.716,21.139 13.914,21.195 14.376 C 21.292 15.167,21.110 16.161,20.737 16.880 C 20.212 17.891,19.251 18.704,18.134 19.082 C 17.407 19.329,17.668 19.320,11.225 19.320 C 5.448 19.319,5.334 19.318,5.001 19.238 C 3.931 18.982,3.157 18.215,2.878 17.135 C 2.764 16.698,2.765 15.982,2.878 15.544 C 3.160 14.455,3.923 13.700,5.000 13.442 C 5.605 13.297,6.056 13.340,6.760 13.608 C 7.215 13.781,7.344 13.788,7.618 13.658 C 8.043 13.457,8.122 12.770,7.755 12.462 C 7.539 12.280,7.008 12.072,6.480 11.962 L 6.140 11.892 6.072 11.643 C 5.950 11.192,5.873 10.629,5.845 9.973 C 5.818 9.330,5.817 9.324,5.698 9.177 C 5.457 8.879,5.104 8.799,4.767 8.966 " stroke="none" fill-rule="evenodd" fill="black"></path></svg>