<svg width="24" height="24" viewBox="0 0 24 24" fill="none" xmlns="http://www.w3.org/2000/svg"><path d="M10.700 1.764 C 9.068 1.931,7.527 2.636,6.355 3.751 C 5.394 4.666,4.798 5.738,4.496 7.100 C 4.309 7.944,4.329 9.367,4.541 10.161 C 4.631 10.501,4.637 10.491,4.253 10.617 C 1.510 11.510,0.411 14.933,2.062 17.439 C 2.567 18.205,3.370 18.809,4.264 19.096 C 4.811 19.272,5.215 19.320,6.140 19.320 L 6.989 19.320 7.187 19.630 C 7.764 20.532,8.507 21.199,9.467 21.676 C 9.934 21.908,10.346 22.050,10.896 22.167 C 11.473 22.291,12.527 22.291,13.104 22.167 C 14.690 21.828,15.963 20.958,16.809 19.635 L 17.004 19.331 17.272 19.304 C 18.520 19.177,19.700 18.659,20.700 17.800 C 21.731 16.913,22.356 15.816,22.626 14.420 C 22.724 13.917,22.723 12.796,22.625 12.300 C 22.257 10.436,21.291 8.973,19.820 8.050 C 19.079 7.585,17.746 7.177,17.303 7.279 C 16.800 7.394,16.565 7.979,16.852 8.405 C 16.997 8.620,17.153 8.697,17.643 8.794 C 18.471 8.957,19.100 9.280,19.708 9.853 C 20.682 10.773,21.213 12.011,21.213 13.360 C 21.213 14.376,20.938 15.226,20.362 15.990 C 19.945 16.544,19.317 17.057,18.671 17.371 C 18.275 17.564,17.701 17.755,17.655 17.709 C 17.641 17.694,17.651 17.543,17.679 17.373 C 17.747 16.949,17.739 16.061,17.663 15.592 C 17.589 15.131,17.345 14.368,17.148 13.976 C 16.605 12.897,15.620 11.915,14.563 11.396 C 13.700 10.974,12.958 10.801,12.000 10.801 C 10.420 10.801,9.072 11.360,7.957 12.476 C 7.255 13.179,6.851 13.828,6.555 14.730 C 6.240 15.690,6.182 16.711,6.384 17.730 L 6.406 17.840 5.927 17.840 C 4.909 17.840,4.206 17.579,3.620 16.982 C 3.142 16.496,2.873 15.912,2.798 15.200 C 2.697 14.230,2.987 13.373,3.639 12.717 C 4.144 12.209,4.677 11.966,5.465 11.884 C 5.863 11.843,6.088 11.729,6.224 11.497 C 6.357 11.270,6.347 11.054,6.182 10.527 C 5.610 8.702,5.775 7.071,6.674 5.680 C 6.805 5.476,7.063 5.170,7.319 4.914 C 7.974 4.259,8.694 3.818,9.596 3.520 C 10.226 3.311,10.733 3.232,11.440 3.232 C 12.627 3.231,13.502 3.493,14.456 4.135 C 14.898 4.432,14.967 4.459,15.223 4.430 C 15.819 4.363,16.088 3.610,15.667 3.190 C 15.315 2.839,14.375 2.315,13.678 2.081 C 12.779 1.780,11.683 1.663,10.700 1.764 M13.048 12.414 C 13.767 12.600,14.358 12.929,14.896 13.440 C 15.293 13.818,15.545 14.148,15.773 14.592 C 16.128 15.284,16.263 15.908,16.229 16.709 C 16.204 17.312,16.116 17.682,15.867 18.237 C 14.772 20.676,11.828 21.530,9.630 20.047 C 8.805 19.490,8.143 18.541,7.874 17.528 C 7.768 17.130,7.731 16.314,7.799 15.889 C 7.895 15.291,8.135 14.676,8.475 14.160 C 8.658 13.882,9.150 13.364,9.450 13.132 C 9.930 12.763,10.615 12.464,11.266 12.341 C 11.739 12.252,12.552 12.285,13.048 12.414 M13.260 14.876 C 13.172 14.917,12.731 15.293,12.280 15.711 L 11.460 16.473 11.180 16.202 C 10.839 15.873,10.705 15.800,10.437 15.800 C 10.021 15.800,9.709 16.114,9.709 16.534 C 9.709 16.648,9.737 16.795,9.772 16.861 C 9.847 17.004,10.979 18.130,11.118 18.201 C 11.284 18.286,11.614 18.264,11.793 18.156 C 12.034 18.011,14.086 16.096,14.195 15.915 C 14.364 15.634,14.310 15.233,14.073 15.012 C 13.849 14.803,13.532 14.750,13.260 14.876 " stroke="none" fill-rule="evenodd" fill="black"></path></svg>