<svg width="24" height="24" viewBox="0 0 24 24" fill="none" xmlns="http://www.w3.org/2000/svg"><path d="M8.080 1.282 C 4.042 1.493,1.931 3.265,1.398 6.891 C 1.310 7.494,1.225 8.895,1.264 9.113 C 1.278 9.194,1.325 9.318,1.368 9.389 C 1.658 9.870,2.422 9.836,2.661 9.332 C 2.718 9.212,2.740 9.022,2.765 8.423 C 2.900 5.187,3.905 3.654,6.288 3.044 C 7.337 2.776,7.247 2.780,12.000 2.780 C 15.936 2.780,16.339 2.786,16.760 2.852 C 19.558 3.288,20.712 4.442,21.148 7.240 C 21.214 7.661,21.220 8.064,21.220 12.000 C 21.220 15.936,21.214 16.339,21.148 16.760 C 20.712 19.558,19.558 20.712,16.760 21.148 C 16.339 21.214,15.936 21.220,12.000 21.220 C 8.064 21.220,7.661 21.214,7.240 21.148 C 4.756 20.761,3.576 19.795,3.044 17.712 C 2.821 16.838,2.790 16.492,2.764 14.600 C 2.742 13.003,2.734 12.847,2.664 12.708 C 2.405 12.184,1.668 12.163,1.353 12.671 C 1.263 12.815,1.260 12.853,1.247 13.860 C 1.223 15.666,1.335 17.079,1.575 18.027 C 2.267 20.757,3.971 22.193,7.027 22.622 C 7.786 22.728,8.902 22.759,12.000 22.759 C 15.098 22.759,16.214 22.728,16.973 22.622 C 19.443 22.275,20.996 21.288,21.897 19.490 C 22.379 18.530,22.638 17.369,22.720 15.807 C 22.771 14.838,22.771 9.162,22.720 8.193 C 22.657 6.998,22.521 6.191,22.242 5.356 C 21.632 3.531,20.469 2.367,18.650 1.760 C 17.788 1.473,17.023 1.344,15.806 1.280 C 14.952 1.235,8.952 1.237,8.080 1.282 M6.711 8.279 C 6.362 8.387,6.160 8.653,6.160 9.002 C 6.160 9.346,6.286 9.513,6.730 9.762 C 7.387 10.130,7.859 10.518,8.324 11.076 C 8.956 11.831,8.982 12.092,8.492 12.731 C 8.037 13.325,7.421 13.851,6.730 14.238 C 6.434 14.404,6.341 14.479,6.260 14.616 C 5.919 15.198,6.455 15.896,7.096 15.703 C 7.374 15.619,8.059 15.197,8.542 14.810 C 9.400 14.123,10.145 13.125,10.276 12.488 C 10.378 11.995,10.304 11.439,10.079 10.993 C 9.702 10.248,8.835 9.337,7.948 8.754 C 7.321 8.343,6.955 8.202,6.711 8.279 M12.815 14.278 C 12.331 14.393,12.098 15.004,12.383 15.408 C 12.447 15.499,12.572 15.610,12.660 15.656 C 12.815 15.738,12.880 15.740,14.875 15.752 C 17.208 15.765,17.281 15.759,17.519 15.521 C 17.918 15.122,17.731 14.423,17.189 14.286 C 16.980 14.234,13.031 14.226,12.815 14.278 " stroke="none" fill-rule="evenodd" fill="black"></path></svg>