<svg width="24" height="24" viewBox="0 0 24 24" fill="none" xmlns="http://www.w3.org/2000/svg"><path d="M8.080 1.282 C 4.041 1.493,1.931 3.265,1.398 6.892 C 1.298 7.572,1.224 8.931,1.274 9.155 C 1.352 9.501,1.640 9.729,2.000 9.729 C 2.411 9.729,2.662 9.494,2.734 9.040 L 2.778 8.760 12.011 8.760 L 21.244 8.760 21.230 12.570 C 21.214 16.751,21.219 16.644,20.960 17.688 C 20.504 19.519,19.520 20.504,17.688 20.960 C 16.622 21.226,16.745 21.220,12.000 21.220 C 8.064 21.220,7.661 21.214,7.240 21.148 C 4.756 20.761,3.576 19.795,3.044 17.712 C 2.820 16.835,2.790 16.494,2.764 14.580 C 2.742 12.963,2.734 12.808,2.664 12.668 C 2.404 12.144,1.668 12.123,1.353 12.631 C 1.263 12.775,1.260 12.812,1.247 13.840 C 1.224 15.669,1.334 17.076,1.575 18.027 C 2.267 20.757,3.971 22.193,7.027 22.622 C 7.786 22.728,8.902 22.759,12.000 22.759 C 15.098 22.759,16.214 22.728,16.973 22.622 C 19.443 22.275,20.996 21.288,21.897 19.490 C 22.379 18.530,22.638 17.369,22.720 15.807 C 22.771 14.838,22.771 9.162,22.720 8.193 C 22.657 6.998,22.521 6.191,22.242 5.356 C 21.632 3.531,20.469 2.367,18.650 1.760 C 17.788 1.473,17.023 1.344,15.806 1.280 C 14.952 1.235,8.952 1.237,8.080 1.282 M16.800 2.854 C 18.961 3.213,20.062 3.957,20.696 5.487 C 20.850 5.859,21.009 6.434,21.094 6.925 L 21.147 7.230 12.037 7.260 C 7.027 7.276,2.910 7.279,2.889 7.265 C 2.864 7.250,2.876 7.097,2.920 6.851 C 3.348 4.467,4.537 3.305,6.960 2.900 C 7.690 2.777,8.048 2.769,12.200 2.777 C 15.963 2.784,16.422 2.791,16.800 2.854 M8.780 12.295 C 8.433 12.409,7.800 12.842,7.407 13.236 C 7.057 13.586,6.778 13.957,6.624 14.280 C 6.507 14.524,6.500 14.568,6.500 15.002 C 6.500 15.454,6.503 15.471,6.647 15.762 C 7.027 16.528,8.149 17.534,8.828 17.717 C 9.348 17.857,9.857 17.348,9.717 16.829 C 9.647 16.570,9.540 16.452,9.186 16.250 C 8.952 16.115,8.740 15.943,8.432 15.635 C 8.001 15.205,7.929 15.088,7.977 14.897 C 8.023 14.716,8.819 13.961,9.186 13.750 C 9.540 13.547,9.647 13.430,9.717 13.170 C 9.863 12.629,9.316 12.119,8.780 12.295 M15.031 12.279 C 14.682 12.387,14.480 12.653,14.480 13.002 C 14.480 13.326,14.608 13.510,14.989 13.734 C 15.410 13.981,15.735 14.250,15.989 14.561 C 16.317 14.962,16.317 15.038,15.989 15.439 C 15.735 15.750,15.410 16.019,14.989 16.266 C 14.607 16.490,14.480 16.674,14.480 17.000 C 14.480 17.563,15.028 17.891,15.566 17.651 C 16.375 17.290,17.398 16.270,17.645 15.580 C 17.761 15.254,17.763 14.750,17.648 14.430 C 17.454 13.888,16.769 13.104,16.106 12.666 C 15.568 12.310,15.272 12.203,15.031 12.279 " stroke="none" fill-rule="evenodd" fill="black"></path></svg>