<svg width="24" height="24" viewBox="0 0 24 24" fill="none" xmlns="http://www.w3.org/2000/svg"><path d="M11.560 1.267 C 10.326 1.322,9.152 1.571,8.041 2.012 C 7.427 2.256,7.240 2.454,7.240 2.860 C 7.240 3.229,7.525 3.548,7.892 3.589 C 8.032 3.605,8.152 3.574,8.523 3.428 C 9.718 2.955,10.735 2.760,12.006 2.760 C 13.464 2.760,14.754 3.058,16.060 3.698 C 17.024 4.170,17.648 4.611,18.434 5.378 C 19.273 6.195,19.814 6.937,20.303 7.940 C 20.944 9.253,21.240 10.537,21.240 12.000 C 21.240 13.465,20.943 14.752,20.302 16.060 C 19.830 17.024,19.389 17.648,18.622 18.434 C 17.805 19.273,17.063 19.814,16.060 20.303 C 14.747 20.944,13.463 21.240,12.000 21.240 C 10.537 21.240,9.253 20.944,7.940 20.303 C 6.937 19.814,6.195 19.273,5.378 18.434 C 4.611 17.648,4.170 17.024,3.698 16.060 C 3.058 14.754,2.760 13.464,2.760 12.005 C 2.760 10.060,3.331 8.256,4.457 6.648 C 4.701 6.298,4.770 6.095,4.724 5.855 C 4.656 5.497,4.372 5.267,4.000 5.267 C 3.678 5.267,3.534 5.369,3.222 5.816 C 1.432 8.383,0.834 11.537,1.564 14.550 C 1.904 15.951,2.529 17.268,3.424 18.470 C 3.880 19.083,4.909 20.111,5.530 20.575 C 7.606 22.126,10.070 22.870,12.627 22.717 C 14.790 22.588,16.724 21.879,18.470 20.575 C 19.087 20.115,20.115 19.087,20.575 18.470 C 22.127 16.391,22.870 13.930,22.717 11.373 C 22.588 9.210,21.879 7.276,20.575 5.530 C 20.115 4.913,19.087 3.885,18.470 3.425 C 17.047 2.362,15.454 1.679,13.742 1.398 C 13.325 1.330,12.055 1.227,11.880 1.248 C 11.847 1.252,11.703 1.261,11.560 1.267 M12.720 8.984 C 12.643 9.017,12.531 9.091,12.472 9.148 C 12.397 9.220,12.047 9.989,11.315 11.696 C 10.397 13.834,10.266 14.165,10.267 14.341 C 10.270 14.660,10.428 14.892,10.729 15.018 C 11.000 15.131,11.303 15.068,11.528 14.852 C 11.603 14.780,11.953 14.011,12.685 12.304 C 13.603 10.166,13.734 9.835,13.733 9.659 C 13.730 9.340,13.572 9.108,13.271 8.982 C 13.086 8.905,12.901 8.905,12.720 8.984 M7.900 9.260 C 7.878 9.267,7.806 9.285,7.740 9.300 C 7.653 9.319,7.315 9.630,6.528 10.413 C 5.927 11.011,5.397 11.561,5.351 11.636 C 5.235 11.822,5.235 12.178,5.351 12.364 C 5.397 12.439,5.927 12.988,6.528 13.585 C 7.553 14.605,7.632 14.673,7.810 14.711 C 8.390 14.832,8.832 14.389,8.710 13.810 C 8.673 13.634,8.609 13.559,7.867 12.810 L 7.064 12.000 7.867 11.190 C 8.611 10.439,8.673 10.366,8.711 10.189 C 8.785 9.835,8.633 9.480,8.352 9.350 C 8.213 9.286,7.968 9.237,7.900 9.260 M15.815 9.278 C 15.640 9.320,15.462 9.455,15.356 9.626 C 15.253 9.793,15.233 10.156,15.318 10.320 C 15.347 10.375,15.723 10.775,16.154 11.210 L 16.937 12.000 16.154 12.790 C 15.723 13.225,15.347 13.625,15.318 13.680 C 15.290 13.735,15.267 13.884,15.267 14.011 C 15.267 14.202,15.287 14.271,15.383 14.408 C 15.447 14.499,15.568 14.608,15.651 14.651 C 15.838 14.747,16.139 14.753,16.327 14.664 C 16.403 14.627,16.962 14.099,17.568 13.489 C 18.605 12.447,18.673 12.369,18.711 12.190 C 18.737 12.064,18.737 11.936,18.711 11.810 C 18.673 11.631,18.605 11.553,17.568 10.511 C 16.962 9.901,16.410 9.377,16.343 9.346 C 16.176 9.269,15.966 9.242,15.815 9.278 " stroke="none" fill-rule="evenodd" fill="black"></path></svg>