<svg width="24" height="24" viewBox="0 0 24 24" fill="none" xmlns="http://www.w3.org/2000/svg"><path d="M5.163 1.590 C 5.087 1.629,4.970 1.729,4.903 1.814 L 4.780 1.967 4.768 3.014 C 4.761 3.589,4.766 4.119,4.780 4.191 C 4.808 4.345,5.001 4.578,5.175 4.668 C 5.332 4.749,5.667 4.750,5.821 4.669 C 5.976 4.588,6.144 4.409,6.197 4.267 C 6.224 4.198,6.240 3.753,6.240 3.116 C 6.240 2.173,6.233 2.063,6.164 1.928 C 6.072 1.749,5.939 1.620,5.787 1.563 C 5.618 1.498,5.317 1.511,5.163 1.590 M9.163 1.590 C 9.087 1.629,8.970 1.729,8.903 1.814 L 8.780 1.967 8.768 3.014 C 8.761 3.589,8.766 4.119,8.780 4.191 C 8.808 4.345,9.001 4.578,9.175 4.668 C 9.332 4.749,9.667 4.750,9.821 4.669 C 9.976 4.588,10.144 4.409,10.197 4.267 C 10.224 4.198,10.240 3.753,10.240 3.116 C 10.240 2.173,10.233 2.063,10.164 1.928 C 10.072 1.749,9.939 1.620,9.787 1.563 C 9.618 1.498,9.317 1.511,9.163 1.590 M13.163 1.590 C 13.087 1.629,12.970 1.729,12.903 1.814 L 12.780 1.967 12.768 3.014 C 12.761 3.589,12.766 4.119,12.780 4.191 C 12.808 4.345,13.001 4.578,13.175 4.668 C 13.332 4.749,13.667 4.750,13.821 4.669 C 13.976 4.588,14.144 4.409,14.197 4.267 C 14.224 4.198,14.240 3.753,14.240 3.116 C 14.240 2.173,14.233 2.063,14.164 1.928 C 14.072 1.749,13.939 1.620,13.787 1.563 C 13.618 1.498,13.317 1.511,13.163 1.590 M5.640 5.546 C 4.907 5.667,4.470 5.802,3.943 6.072 C 2.889 6.613,2.046 7.538,1.615 8.626 C 1.289 9.453,1.229 10.028,1.247 12.200 L 1.260 13.740 1.366 13.920 C 1.651 14.405,2.349 14.406,2.632 13.923 C 2.726 13.762,2.739 13.694,2.753 13.252 L 2.770 12.760 9.907 12.760 L 17.044 12.760 17.030 15.590 C 17.017 18.374,17.016 18.425,16.929 18.708 C 16.535 19.994,15.556 20.913,14.295 21.180 C 13.867 21.271,5.974 21.268,5.528 21.177 C 4.268 20.920,3.256 19.987,2.885 18.739 C 2.839 18.584,2.784 18.256,2.763 18.010 C 2.711 17.424,2.614 17.246,2.271 17.102 C 1.922 16.956,1.515 17.111,1.328 17.460 C 1.184 17.728,1.306 18.790,1.560 19.486 C 2.071 20.886,3.224 22.010,4.631 22.479 C 5.444 22.749,5.253 22.740,9.920 22.740 L 14.140 22.740 14.548 22.650 C 16.698 22.174,18.183 20.574,18.493 18.401 L 18.540 18.072 18.980 17.961 C 19.934 17.719,20.692 17.274,21.381 16.555 C 22.260 15.637,22.728 14.458,22.726 13.165 C 22.725 12.327,22.584 11.715,22.221 10.975 C 21.470 9.447,20.049 8.446,18.344 8.244 C 18.148 8.220,17.985 8.197,17.981 8.191 C 17.977 8.185,17.923 8.090,17.861 7.980 C 17.310 7.004,16.310 6.175,15.237 5.804 C 14.442 5.529,14.750 5.544,10.020 5.537 C 7.666 5.533,5.695 5.537,5.640 5.546 M14.460 7.111 C 15.586 7.429,16.479 8.262,16.858 9.348 C 16.997 9.744,17.039 10.059,17.040 10.690 L 17.040 11.240 9.895 11.240 L 2.750 11.240 2.768 10.510 C 2.785 9.800,2.790 9.769,2.927 9.372 C 3.086 8.913,3.244 8.629,3.548 8.263 C 3.937 7.794,4.572 7.354,5.114 7.180 C 5.649 7.008,5.705 7.006,10.020 7.014 L 14.140 7.021 14.460 7.111 M19.108 9.955 C 20.058 10.347,20.839 11.224,21.128 12.223 C 21.208 12.497,21.220 12.626,21.217 13.180 C 21.215 13.788,21.208 13.839,21.088 14.200 C 20.770 15.158,20.017 15.978,19.116 16.350 C 18.953 16.417,18.762 16.484,18.690 16.499 L 18.560 16.526 18.560 13.469 C 18.560 11.788,18.548 10.272,18.534 10.100 L 18.507 9.788 18.666 9.813 C 18.754 9.827,18.953 9.891,19.108 9.955 " stroke="none" fill-rule="evenodd" fill="black"></path></svg>