<svg width="24" height="24" viewBox="0 0 24 24" fill="none" xmlns="http://www.w3.org/2000/svg"><path d="M11.260 1.284 C 8.099 1.543,5.474 3.688,4.854 6.520 C 4.784 6.842,4.780 7.136,4.780 11.960 C 4.780 17.576,4.768 17.273,5.027 18.095 C 5.262 18.842,5.798 19.760,6.347 20.357 C 6.672 20.711,7.283 21.229,7.467 21.305 C 7.915 21.493,8.432 21.182,8.472 20.702 C 8.498 20.382,8.429 20.230,8.150 19.989 C 7.551 19.475,7.232 19.131,6.953 18.697 C 6.676 18.266,6.413 17.605,6.326 17.120 C 6.277 16.847,6.239 16.480,6.259 16.480 C 6.268 16.480,6.379 16.581,6.507 16.705 C 7.149 17.324,8.103 17.910,9.000 18.235 C 10.876 18.916,13.185 18.915,15.000 18.232 C 15.959 17.871,16.843 17.330,17.495 16.702 C 17.624 16.578,17.735 16.482,17.741 16.488 C 17.748 16.495,17.738 16.642,17.718 16.815 C 17.568 18.155,16.747 19.421,15.507 20.226 C 14.919 20.608,14.170 20.926,13.500 21.078 C 13.053 21.179,12.894 21.201,12.288 21.239 C 11.817 21.269,11.738 21.284,11.603 21.374 C 11.372 21.526,11.267 21.724,11.267 22.007 C 11.267 22.203,11.286 22.270,11.383 22.408 C 11.574 22.678,11.739 22.738,12.259 22.728 C 13.338 22.707,14.446 22.442,15.467 21.960 C 17.341 21.076,18.708 19.418,19.128 17.518 L 19.220 17.100 19.220 11.980 C 19.220 7.137,19.216 6.842,19.146 6.520 C 18.794 4.913,17.801 3.492,16.360 2.534 C 15.283 1.818,14.021 1.390,12.664 1.281 C 12.091 1.235,11.848 1.236,11.260 1.284 M12.883 2.819 C 14.264 3.012,15.467 3.583,16.340 4.459 C 16.759 4.879,17.006 5.213,17.252 5.692 C 17.590 6.347,17.730 6.946,17.728 7.720 C 17.726 8.294,17.658 8.658,17.459 9.143 C 17.208 9.753,16.922 10.160,16.386 10.668 C 15.646 11.368,14.658 11.859,13.487 12.109 C 13.014 12.210,12.914 12.217,12.000 12.217 C 11.086 12.217,10.986 12.210,10.513 12.109 C 9.342 11.859,8.354 11.368,7.614 10.668 C 6.925 10.015,6.531 9.351,6.341 8.520 C 6.255 8.139,6.250 7.298,6.333 6.880 C 6.712 4.968,8.304 3.452,10.480 2.933 C 11.204 2.761,12.150 2.716,12.883 2.819 M7.411 12.417 C 8.422 13.090,9.558 13.500,10.920 13.683 C 11.107 13.708,11.593 13.729,12.000 13.729 C 12.768 13.729,13.129 13.695,13.840 13.554 C 15.145 13.298,16.524 12.608,17.401 11.772 L 17.760 11.431 17.759 12.005 C 17.756 13.145,17.653 13.730,17.340 14.383 C 16.842 15.420,15.808 16.318,14.580 16.780 C 12.712 17.482,10.432 17.362,8.762 16.473 C 7.788 15.955,7.074 15.245,6.660 14.383 C 6.347 13.730,6.244 13.145,6.241 12.005 L 6.240 11.431 6.600 11.774 C 6.798 11.962,7.163 12.252,7.411 12.417 " stroke="none" fill-rule="evenodd" fill="black"></path></svg>