<svg width="24" height="24" viewBox="0 0 24 24" fill="none" xmlns="http://www.w3.org/2000/svg"><path d="M9.380 1.282 C 8.608 1.333,7.883 1.477,7.140 1.727 C 6.593 1.911,5.585 2.412,5.490 2.548 C 5.207 2.951,5.319 3.476,5.730 3.675 C 6.017 3.814,6.164 3.790,6.764 3.506 C 7.992 2.923,8.933 2.727,10.292 2.772 C 11.578 2.813,12.713 3.161,13.820 3.851 C 14.718 4.410,15.641 5.342,16.173 6.226 C 17.721 8.800,17.556 11.983,15.750 14.372 C 15.447 14.771,14.771 15.447,14.372 15.750 C 12.205 17.388,9.330 17.692,6.926 16.539 C 6.109 16.147,5.604 15.797,4.965 15.181 C 3.882 14.137,3.185 12.863,2.875 11.360 C 2.791 10.952,2.780 10.796,2.781 9.980 C 2.783 9.134,2.792 9.019,2.891 8.553 C 2.998 8.052,3.209 7.407,3.420 6.940 C 3.684 6.354,3.366 5.818,2.755 5.821 C 2.411 5.823,2.244 5.952,2.045 6.370 C 1.704 7.084,1.418 8.095,1.317 8.940 C 1.248 9.520,1.258 10.610,1.338 11.178 C 1.780 14.336,3.872 16.978,6.847 18.137 C 9.147 19.033,11.875 18.880,14.040 17.732 C 17.037 16.144,18.828 13.054,18.708 9.680 C 18.626 7.363,17.704 5.308,16.015 3.676 C 14.263 1.984,11.863 1.118,9.380 1.282 M9.616 5.779 C 9.453 5.877,9.307 6.102,9.262 6.327 C 9.242 6.424,9.219 6.437,9.010 6.460 C 8.527 6.515,8.165 6.686,7.843 7.012 C 7.439 7.423,7.270 7.837,7.271 8.420 C 7.272 9.035,7.422 9.451,7.768 9.796 C 8.053 10.081,8.309 10.199,9.740 10.701 C 10.454 10.952,11.075 11.176,11.119 11.199 C 11.220 11.254,11.256 11.393,11.229 11.631 C 11.213 11.774,11.179 11.843,11.083 11.929 L 10.959 12.040 10.069 12.040 C 9.258 12.040,9.169 12.033,9.052 11.962 C 8.870 11.851,8.810 11.739,8.742 11.384 C 8.646 10.883,8.409 10.662,7.970 10.667 C 7.717 10.669,7.497 10.798,7.356 11.027 C 7.274 11.158,7.262 11.226,7.268 11.507 C 7.289 12.476,8.078 13.398,8.982 13.511 C 9.200 13.538,9.221 13.549,9.253 13.660 C 9.383 14.110,9.620 14.320,9.998 14.320 C 10.143 14.320,10.259 14.292,10.368 14.230 C 10.531 14.139,10.720 13.875,10.721 13.736 C 10.722 13.598,10.780 13.563,11.082 13.520 C 11.718 13.430,12.260 13.023,12.547 12.418 C 12.679 12.142,12.695 12.069,12.712 11.705 C 12.722 11.471,12.710 11.202,12.682 11.071 C 12.576 10.559,12.220 10.093,11.757 9.858 C 11.638 9.798,10.960 9.545,10.251 9.296 C 9.541 9.047,8.927 8.825,8.885 8.803 C 8.786 8.750,8.760 8.675,8.760 8.446 C 8.760 8.261,8.827 8.115,8.958 8.011 C 9.056 7.934,10.767 7.941,10.919 8.019 C 11.097 8.112,11.201 8.292,11.247 8.590 C 11.312 9.017,11.490 9.237,11.833 9.314 C 12.235 9.404,12.630 9.161,12.714 8.772 C 12.822 8.268,12.560 7.520,12.123 7.083 C 11.771 6.731,11.260 6.480,10.895 6.480 C 10.775 6.480,10.761 6.467,10.737 6.330 C 10.642 5.785,10.073 5.505,9.616 5.779 M19.820 12.258 C 19.798 12.266,19.732 12.284,19.673 12.296 C 19.518 12.331,19.320 12.512,19.235 12.698 C 19.078 13.044,19.179 13.356,19.545 13.660 C 20.341 14.322,20.780 14.949,21.053 15.820 C 21.217 16.342,21.269 17.256,21.164 17.800 C 20.887 19.240,19.855 20.453,18.462 20.978 C 18.013 21.147,17.624 21.212,17.060 21.212 C 16.308 21.213,15.825 21.107,15.200 20.803 C 14.609 20.516,14.191 20.182,13.740 19.637 C 13.594 19.460,13.419 19.282,13.352 19.241 C 13.071 19.070,12.741 19.109,12.480 19.345 C 12.165 19.630,12.158 19.996,12.460 20.426 C 12.745 20.832,13.368 21.428,13.825 21.732 C 14.760 22.354,15.671 22.656,16.767 22.707 C 19.035 22.812,21.123 21.582,22.127 19.550 C 22.565 18.663,22.753 17.764,22.707 16.767 C 22.656 15.669,22.350 14.749,21.726 13.815 C 21.345 13.246,20.649 12.550,20.259 12.349 C 20.131 12.284,19.888 12.233,19.820 12.258 " stroke="none" fill-rule="evenodd" fill="black"></path></svg>