<svg width="24" height="24" viewBox="0 0 24 24" fill="none" xmlns="http://www.w3.org/2000/svg"><path d="M8.080 1.282 C 4.042 1.493,1.931 3.265,1.398 6.891 C 1.310 7.494,1.225 8.895,1.264 9.113 C 1.278 9.194,1.325 9.318,1.368 9.389 C 1.658 9.870,2.422 9.836,2.661 9.332 C 2.718 9.212,2.740 9.022,2.765 8.423 C 2.900 5.187,3.905 3.654,6.288 3.044 C 7.337 2.776,7.247 2.780,12.000 2.780 C 15.936 2.780,16.339 2.786,16.760 2.852 C 19.558 3.288,20.712 4.442,21.148 7.240 C 21.214 7.661,21.220 8.064,21.220 12.000 C 21.220 15.936,21.214 16.339,21.148 16.760 C 20.712 19.558,19.558 20.712,16.760 21.148 C 16.339 21.214,15.936 21.220,12.000 21.220 C 8.064 21.220,7.661 21.214,7.240 21.148 C 4.756 20.761,3.576 19.795,3.044 17.712 C 2.824 16.850,2.790 16.485,2.764 14.680 C 2.737 12.840,2.735 12.826,2.464 12.621 C 2.095 12.342,1.599 12.435,1.353 12.831 C 1.264 12.974,1.259 13.017,1.247 13.940 C 1.222 15.655,1.338 17.091,1.575 18.027 C 2.267 20.757,3.971 22.193,7.027 22.622 C 7.786 22.728,8.902 22.759,12.000 22.759 C 15.098 22.759,16.214 22.728,16.973 22.622 C 19.443 22.275,20.996 21.288,21.897 19.490 C 22.379 18.530,22.638 17.369,22.720 15.807 C 22.771 14.838,22.771 9.162,22.720 8.193 C 22.657 6.998,22.521 6.191,22.242 5.356 C 21.632 3.531,20.469 2.367,18.650 1.760 C 17.788 1.473,17.023 1.344,15.806 1.280 C 14.952 1.235,8.952 1.237,8.080 1.282 M11.540 5.284 C 10.059 5.428,8.691 6.405,8.060 7.772 C 7.757 8.428,7.612 9.265,7.681 9.960 C 7.700 10.147,7.716 10.338,7.717 10.383 C 7.719 10.447,7.634 10.518,7.359 10.681 C 6.534 11.169,5.807 12.062,5.498 12.965 C 5.359 13.370,5.321 13.557,5.281 14.012 C 5.045 16.721,7.281 18.954,9.994 18.719 C 10.598 18.666,10.999 18.552,11.549 18.278 L 12.038 18.033 12.156 18.117 C 12.552 18.399,13.355 18.662,13.988 18.717 C 16.719 18.954,18.956 16.730,18.719 14.012 C 18.679 13.557,18.641 13.370,18.502 12.965 C 18.169 11.989,17.336 11.015,16.450 10.565 C 16.260 10.468,16.266 10.494,16.319 9.960 C 16.363 9.514,16.301 8.842,16.176 8.409 C 15.585 6.371,13.667 5.078,11.540 5.284 M12.568 6.803 C 13.110 6.914,13.530 7.135,13.946 7.531 C 14.565 8.118,14.836 8.749,14.838 9.600 C 14.839 10.090,14.762 10.410,14.530 10.880 C 14.375 11.195,14.285 11.317,14.000 11.600 C 13.435 12.160,12.769 12.441,12.006 12.439 C 11.210 12.438,10.566 12.169,9.999 11.601 C 9.435 11.037,9.160 10.387,9.160 9.616 C 9.160 8.811,9.392 8.222,9.931 7.654 C 10.356 7.206,10.810 6.941,11.360 6.817 C 11.640 6.755,12.293 6.747,12.568 6.803 M8.383 12.026 C 8.493 12.217,9.008 12.780,9.260 12.984 C 10.040 13.615,11.015 13.960,12.021 13.960 C 12.453 13.960,12.440 13.947,12.440 14.385 C 12.440 15.911,11.266 17.160,9.765 17.231 C 8.841 17.275,8.156 17.004,7.531 16.346 C 6.992 15.778,6.760 15.189,6.760 14.384 C 6.760 13.672,7.024 13.003,7.514 12.473 C 7.737 12.232,8.191 11.879,8.276 11.880 C 8.289 11.881,8.337 11.946,8.383 12.026 M15.982 12.023 C 16.309 12.240,16.724 12.709,16.916 13.077 C 17.138 13.503,17.240 13.916,17.240 14.384 C 17.240 15.189,17.008 15.778,16.469 16.346 C 15.881 16.965,15.253 17.235,14.396 17.239 C 14.010 17.240,13.593 17.160,13.269 17.022 L 13.118 16.958 13.243 16.776 C 13.425 16.511,13.700 15.906,13.795 15.560 C 13.952 14.990,13.990 14.280,13.894 13.675 C 13.872 13.531,13.875 13.527,14.106 13.404 C 14.611 13.134,15.304 12.508,15.581 12.071 C 15.646 11.968,15.715 11.882,15.733 11.881 C 15.751 11.881,15.864 11.944,15.982 12.023 " stroke="none" fill-rule="evenodd" fill="black"></path></svg>