<svg width="24" height="24" viewBox="0 0 24 24" fill="none" xmlns="http://www.w3.org/2000/svg"><path d="M4.091 1.279 C 3.502 1.345,3.086 1.488,2.640 1.779 C 1.793 2.330,1.292 3.264,1.271 4.332 C 1.263 4.735,1.302 4.854,1.506 5.047 C 1.783 5.309,2.217 5.309,2.494 5.047 C 2.670 4.881,2.719 4.750,2.757 4.350 C 2.830 3.588,3.148 3.116,3.754 2.871 C 3.979 2.780,3.988 2.780,6.000 2.780 C 8.012 2.780,8.021 2.780,8.246 2.871 C 8.655 3.037,8.963 3.345,9.128 3.754 L 9.220 3.980 9.220 11.260 C 9.220 19.465,9.249 18.718,8.902 19.420 C 8.576 20.081,8.070 20.585,7.420 20.901 C 6.876 21.164,6.635 21.218,5.980 21.219 C 5.502 21.220,5.376 21.206,5.121 21.126 C 4.015 20.779,3.255 20.026,2.875 18.900 L 2.780 18.620 2.760 13.500 L 2.740 8.380 2.634 8.200 C 2.348 7.714,1.652 7.714,1.366 8.200 L 1.260 8.380 1.248 13.120 C 1.236 17.923,1.249 18.484,1.384 19.096 C 1.573 19.950,1.984 20.692,2.630 21.347 C 3.265 21.992,4.041 22.425,4.900 22.615 C 5.547 22.758,5.969 22.765,13.060 22.750 C 19.592 22.737,20.038 22.732,20.320 22.664 C 21.543 22.371,22.405 21.495,22.667 20.278 C 22.732 19.977,22.740 19.726,22.740 18.000 C 22.740 16.274,22.732 16.023,22.667 15.722 C 22.405 14.504,21.525 13.611,20.320 13.340 C 20.087 13.288,19.735 13.268,18.746 13.251 L 17.472 13.230 18.350 12.345 C 18.833 11.858,19.282 11.379,19.349 11.280 C 19.731 10.710,19.889 10.193,19.889 9.520 C 19.889 8.799,19.706 8.252,19.259 7.640 C 19.012 7.302,16.698 4.988,16.360 4.741 C 15.749 4.295,15.191 4.107,14.480 4.107 C 13.950 4.107,13.569 4.194,13.128 4.416 C 12.697 4.634,12.390 4.885,11.556 5.708 L 10.770 6.483 10.748 5.232 C 10.732 4.265,10.712 3.912,10.660 3.680 C 10.394 2.494,9.512 1.612,8.320 1.339 C 8.064 1.280,7.752 1.268,6.200 1.258 C 5.199 1.252,4.250 1.262,4.091 1.279 M14.943 5.666 C 15.051 5.703,15.230 5.791,15.340 5.862 C 15.584 6.020,18.033 8.477,18.169 8.700 C 18.490 9.226,18.478 9.855,18.138 10.380 C 18.066 10.490,16.377 12.209,14.384 14.200 L 10.760 17.820 10.760 13.218 L 10.760 8.615 12.070 7.313 C 13.363 6.028,13.634 5.797,14.000 5.669 C 14.241 5.585,14.697 5.583,14.943 5.666 M20.246 14.871 C 20.655 15.037,20.963 15.345,21.128 15.754 C 21.220 15.979,21.220 15.988,21.220 18.000 C 21.220 20.012,21.220 20.021,21.128 20.246 C 20.963 20.655,20.655 20.963,20.246 21.129 L 20.020 21.220 14.758 21.231 L 9.496 21.241 12.738 18.000 L 15.980 14.759 18.000 14.769 C 20.000 14.780,20.022 14.781,20.246 14.871 M5.840 16.270 C 5.155 16.326,4.529 16.835,4.331 17.495 C 4.253 17.758,4.253 18.242,4.331 18.505 C 4.447 18.892,4.709 19.232,5.073 19.468 C 5.355 19.651,5.625 19.726,6.000 19.726 C 6.375 19.726,6.645 19.651,6.927 19.468 C 7.459 19.123,7.726 18.632,7.726 18.000 C 7.726 17.646,7.654 17.366,7.499 17.115 C 7.138 16.532,6.514 16.214,5.840 16.270 M6.167 17.826 C 6.319 17.964,6.212 18.240,6.007 18.240 C 5.793 18.240,5.683 17.992,5.826 17.833 C 5.909 17.742,6.070 17.739,6.167 17.826 " stroke="none" fill-rule="evenodd" fill="black"></path></svg>