<svg width="24" height="24" viewBox="0 0 24 24" fill="none" xmlns="http://www.w3.org/2000/svg"><path d="M11.420 1.282 C 11.200 1.299,10.804 1.361,10.540 1.420 C 9.286 1.700,8.184 2.301,7.277 3.200 C 6.915 3.558,6.846 3.648,6.807 3.807 C 6.710 4.199,6.881 4.544,7.249 4.698 C 7.591 4.841,7.797 4.761,8.291 4.293 C 8.805 3.807,9.152 3.562,9.700 3.298 C 10.552 2.887,11.028 2.780,12.000 2.780 C 12.526 2.780,12.785 2.798,13.040 2.853 C 14.065 3.072,14.963 3.560,15.701 4.299 C 16.439 5.036,16.925 5.932,17.147 6.961 C 17.259 7.480,17.248 8.651,17.127 9.140 C 16.588 11.315,14.926 12.848,12.740 13.186 C 12.238 13.264,11.412 13.236,10.900 13.125 C 9.713 12.866,8.624 12.189,7.908 11.267 C 7.210 10.366,6.840 9.411,6.762 8.306 C 6.723 7.750,6.662 7.571,6.464 7.421 C 6.095 7.142,5.598 7.236,5.353 7.631 C 5.270 7.765,5.262 7.822,5.270 8.200 C 5.281 8.669,5.338 9.140,5.427 9.499 C 5.470 9.669,5.474 9.742,5.442 9.753 C 5.258 9.814,4.535 10.200,4.252 10.389 C 2.834 11.332,1.754 12.924,1.402 14.586 C 1.292 15.108,1.242 15.890,1.283 16.473 C 1.541 20.185,4.758 22.980,8.470 22.717 C 9.620 22.635,10.704 22.275,11.650 21.660 L 12.000 21.432 12.350 21.660 C 14.998 23.382,18.517 23.006,20.762 20.762 C 22.369 19.155,23.058 16.846,22.600 14.601 C 22.264 12.951,21.170 11.335,19.748 10.389 C 19.464 10.200,18.742 9.814,18.557 9.752 C 18.524 9.741,18.525 9.692,18.559 9.563 C 18.769 8.783,18.786 7.556,18.600 6.637 C 18.036 3.861,15.726 1.700,12.920 1.325 C 12.463 1.264,11.864 1.247,11.420 1.282 M6.172 11.418 C 6.712 12.358,7.683 13.308,8.700 13.895 C 9.814 14.536,11.368 14.864,12.636 14.725 C 12.865 14.700,13.059 14.686,13.067 14.694 C 13.119 14.745,13.207 15.337,13.227 15.760 C 13.277 16.830,13.005 17.869,12.434 18.786 C 12.176 19.201,11.500 19.925,11.075 20.241 C 10.523 20.651,9.741 20.996,8.980 21.165 C 8.604 21.248,7.382 21.238,6.960 21.147 C 5.935 20.928,5.037 20.440,4.299 19.701 C 3.573 18.976,3.082 18.081,2.860 17.080 C 2.757 16.616,2.736 15.653,2.818 15.152 C 2.891 14.705,3.103 14.032,3.282 13.677 C 3.772 12.705,4.761 11.718,5.680 11.283 C 5.823 11.215,5.959 11.160,5.981 11.160 C 6.004 11.160,6.090 11.276,6.172 11.418 M18.320 11.283 C 18.774 11.498,19.246 11.843,19.682 12.278 C 20.509 13.105,20.999 14.045,21.182 15.152 C 21.264 15.655,21.244 16.616,21.140 17.080 C 20.915 18.086,20.426 18.977,19.701 19.701 C 18.964 20.439,18.068 20.925,17.039 21.147 C 16.618 21.238,15.397 21.248,15.020 21.165 C 14.420 21.032,13.701 20.751,13.247 20.472 L 13.115 20.390 13.212 20.285 C 13.527 19.943,13.979 19.198,14.221 18.619 C 14.417 18.152,14.605 17.490,14.686 16.980 C 14.789 16.337,14.737 15.103,14.580 14.488 L 14.527 14.276 14.853 14.125 C 15.234 13.949,15.741 13.641,16.092 13.371 C 16.724 12.888,17.459 12.061,17.828 11.418 C 17.910 11.276,17.996 11.160,18.019 11.160 C 18.041 11.160,18.177 11.215,18.320 11.283 " stroke="none" fill-rule="evenodd" fill="black"></path></svg>