<svg width="24" height="24" viewBox="0 0 24 24" fill="none" xmlns="http://www.w3.org/2000/svg"><path d="M8.080 1.282 C 4.042 1.493,1.931 3.265,1.398 6.891 C 1.310 7.494,1.225 8.895,1.264 9.113 C 1.278 9.194,1.325 9.318,1.368 9.389 C 1.658 9.870,2.422 9.836,2.661 9.332 C 2.718 9.212,2.740 9.022,2.765 8.423 C 2.900 5.187,3.905 3.654,6.288 3.044 C 7.337 2.776,7.247 2.780,12.000 2.780 C 15.936 2.780,16.339 2.786,16.760 2.852 C 19.558 3.288,20.712 4.442,21.148 7.240 C 21.214 7.661,21.220 8.064,21.220 12.000 C 21.220 15.936,21.214 16.339,21.148 16.760 C 20.712 19.558,19.558 20.712,16.760 21.148 C 16.339 21.214,15.936 21.220,12.000 21.220 C 8.064 21.220,7.661 21.214,7.240 21.148 C 4.756 20.761,3.576 19.795,3.044 17.712 C 2.820 16.836,2.790 16.494,2.764 14.580 C 2.737 12.657,2.744 12.710,2.494 12.473 C 2.217 12.211,1.783 12.211,1.506 12.473 C 1.266 12.700,1.261 12.728,1.247 13.860 C 1.223 15.666,1.335 17.079,1.575 18.027 C 2.267 20.757,3.971 22.193,7.027 22.622 C 7.786 22.728,8.902 22.759,12.000 22.759 C 15.098 22.759,16.214 22.728,16.973 22.622 C 19.443 22.275,20.996 21.288,21.897 19.490 C 22.379 18.530,22.638 17.369,22.720 15.807 C 22.771 14.838,22.771 9.162,22.720 8.193 C 22.657 6.998,22.521 6.191,22.242 5.356 C 21.632 3.531,20.469 2.367,18.650 1.760 C 17.788 1.473,17.023 1.344,15.806 1.280 C 14.952 1.235,8.952 1.237,8.080 1.282 M7.440 5.281 C 6.525 5.391,5.667 6.113,5.375 7.020 C 5.290 7.286,5.272 7.418,5.271 7.801 C 5.270 8.208,5.283 8.301,5.387 8.602 C 5.523 8.996,5.714 9.303,6.006 9.594 C 6.584 10.172,7.153 10.360,8.329 10.360 L 8.840 10.360 8.840 11.994 L 8.840 13.628 8.090 13.650 C 7.432 13.670,7.301 13.685,7.020 13.775 C 6.264 14.018,5.619 14.664,5.375 15.420 C 5.290 15.686,5.272 15.818,5.271 16.201 C 5.270 16.608,5.283 16.701,5.387 17.002 C 5.789 18.168,6.908 18.870,8.124 18.717 C 8.751 18.639,9.208 18.398,9.672 17.901 C 10.180 17.356,10.316 16.953,10.349 15.890 L 10.371 15.160 12.000 15.160 L 13.629 15.160 13.651 15.890 C 13.684 16.953,13.820 17.356,14.328 17.901 C 14.792 18.398,15.249 18.639,15.876 18.717 C 17.092 18.870,18.233 18.150,18.620 16.988 C 18.714 16.706,18.729 16.595,18.728 16.200 C 18.728 15.816,18.711 15.687,18.625 15.420 C 18.382 14.667,17.773 14.053,17.004 13.788 C 16.689 13.679,16.610 13.669,15.912 13.649 L 15.160 13.628 15.160 11.994 L 15.160 10.360 15.671 10.360 C 16.847 10.360,17.416 10.172,17.994 9.594 C 18.286 9.303,18.477 8.996,18.613 8.602 C 18.717 8.301,18.730 8.208,18.729 7.801 C 18.728 7.418,18.710 7.286,18.625 7.020 C 18.382 6.266,17.773 5.653,17.002 5.387 C 16.702 5.284,16.606 5.270,16.200 5.270 C 15.794 5.270,15.698 5.284,15.398 5.387 C 14.964 5.537,14.673 5.731,14.328 6.099 C 13.820 6.644,13.684 7.047,13.651 8.110 L 13.629 8.840 11.994 8.840 L 10.360 8.840 10.360 8.329 C 10.360 7.153,10.172 6.584,9.594 6.006 C 9.028 5.439,8.263 5.182,7.440 5.281 M8.260 6.850 C 8.411 6.929,8.667 7.183,8.754 7.340 C 8.806 7.435,8.823 7.603,8.833 8.153 L 8.847 8.847 8.153 8.833 C 7.603 8.823,7.435 8.806,7.340 8.754 C 7.183 8.667,6.929 8.411,6.851 8.262 C 6.770 8.105,6.740 7.701,6.795 7.497 C 6.870 7.220,7.151 6.919,7.433 6.813 C 7.619 6.744,8.097 6.765,8.260 6.850 M16.660 6.850 C 16.811 6.929,17.067 7.183,17.153 7.340 C 17.200 7.425,17.219 7.560,17.219 7.800 C 17.219 8.184,17.178 8.289,16.934 8.534 C 16.662 8.806,16.616 8.818,15.850 8.833 L 15.160 8.847 15.162 8.213 C 15.163 7.797,15.181 7.530,15.216 7.433 C 15.307 7.177,15.572 6.911,15.833 6.813 C 16.019 6.744,16.497 6.765,16.660 6.850 M13.640 12.000 L 13.640 13.640 12.000 13.640 L 10.360 13.640 10.360 12.000 L 10.360 10.360 12.000 10.360 L 13.640 10.360 13.640 12.000 M8.833 15.855 L 8.820 16.549 8.684 16.749 C 8.609 16.858,8.458 17.009,8.348 17.084 C 8.160 17.213,8.131 17.220,7.805 17.220 C 7.416 17.219,7.311 17.179,7.066 16.934 C 6.858 16.725,6.793 16.587,6.770 16.302 C 6.738 15.901,6.858 15.621,7.170 15.364 C 7.376 15.195,7.537 15.164,8.213 15.162 L 8.847 15.160 8.833 15.855 M16.660 15.246 C 16.814 15.331,17.069 15.586,17.153 15.740 C 17.200 15.825,17.219 15.960,17.219 16.200 C 17.219 16.584,17.178 16.689,16.934 16.934 C 16.689 17.178,16.584 17.219,16.200 17.219 C 15.816 17.219,15.711 17.178,15.466 16.934 C 15.194 16.662,15.182 16.617,15.167 15.847 L 15.153 15.153 15.847 15.167 C 16.397 15.177,16.565 15.194,16.660 15.246 " stroke="none" fill-rule="evenodd" fill="black"></path></svg>