<svg width="24" height="24" viewBox="0 0 24 24" fill="none" xmlns="http://www.w3.org/2000/svg"><path d="M11.213 1.339 C 10.615 1.448,10.099 1.660,9.560 2.021 C 9.228 2.243,8.744 2.711,5.715 5.747 C 3.627 7.841,2.179 9.323,2.069 9.480 C 1.688 10.025,1.412 10.714,1.318 11.354 C 1.249 11.828,1.287 12.654,1.396 13.073 C 1.590 13.816,1.917 14.402,2.498 15.049 C 3.063 15.678,6.252 18.827,6.399 18.901 C 6.572 18.988,6.902 18.992,7.061 18.909 C 7.426 18.719,7.576 18.308,7.419 17.930 C 7.377 17.831,6.691 17.114,5.304 15.722 C 3.594 14.004,3.228 13.617,3.109 13.400 C 2.662 12.581,2.645 11.577,3.064 10.720 L 3.249 10.340 6.715 6.868 C 9.108 4.469,10.260 3.342,10.440 3.223 C 11.312 2.645,12.504 2.608,13.440 3.128 C 13.607 3.221,14.514 4.104,17.226 6.815 L 20.792 10.380 20.957 10.725 C 21.160 11.150,21.239 11.505,21.239 12.000 C 21.239 12.630,21.090 13.134,20.757 13.629 C 20.615 13.840,14.359 20.134,13.881 20.547 C 13.334 21.019,12.743 21.238,12.012 21.239 C 11.218 21.241,10.737 21.050,9.975 20.431 C 9.634 20.154,9.281 20.130,8.984 20.364 C 8.748 20.550,8.651 20.962,8.776 21.251 C 8.884 21.501,9.499 22.006,10.015 22.267 C 10.968 22.751,12.168 22.868,13.195 22.577 C 13.635 22.452,14.261 22.145,14.620 21.878 C 14.985 21.606,21.606 14.985,21.878 14.620 C 22.145 14.261,22.452 13.635,22.577 13.195 C 22.852 12.225,22.759 11.060,22.336 10.161 C 21.992 9.430,21.968 9.404,18.342 5.774 C 16.080 3.509,14.832 2.290,14.619 2.133 C 14.070 1.732,13.422 1.454,12.765 1.339 C 12.360 1.268,11.606 1.268,11.213 1.339 " stroke="none" fill-rule="evenodd" fill="black"></path></svg>