<svg width="24" height="24" viewBox="0 0 24 24" fill="none" xmlns="http://www.w3.org/2000/svg"><path d="M8.340 1.267 C 4.825 1.407,2.773 2.608,1.817 5.083 C 1.462 6.002,1.240 7.376,1.240 8.656 C 1.240 9.172,1.247 9.225,1.336 9.377 C 1.576 9.787,2.186 9.858,2.508 9.513 C 2.667 9.343,2.720 9.149,2.720 8.731 C 2.721 8.240,2.783 7.495,2.865 7.000 C 3.068 5.780,3.445 4.901,4.037 4.271 C 4.744 3.517,5.625 3.114,7.100 2.870 C 7.603 2.787,7.751 2.783,11.640 2.769 C 15.814 2.754,16.257 2.766,17.115 2.921 C 17.580 3.005,18.118 3.151,18.390 3.267 L 18.561 3.340 10.926 10.975 L 3.291 18.609 3.145 18.155 C 2.812 17.111,2.755 16.617,2.735 14.600 C 2.726 13.664,2.701 12.875,2.678 12.792 C 2.592 12.474,2.316 12.269,1.974 12.269 C 1.707 12.269,1.453 12.411,1.330 12.632 C 1.241 12.789,1.240 12.810,1.240 14.345 C 1.240 16.321,1.303 17.054,1.564 18.095 C 2.186 20.582,3.788 22.032,6.477 22.542 C 7.380 22.713,7.733 22.728,11.359 22.748 C 15.083 22.769,16.117 22.742,17.092 22.598 C 20.130 22.153,21.871 20.573,22.462 17.728 C 22.696 16.600,22.700 16.509,22.700 12.000 C 22.700 7.491,22.696 7.400,22.462 6.272 C 22.135 4.698,21.406 3.440,20.370 2.662 C 19.236 1.811,17.862 1.394,15.820 1.281 C 15.200 1.247,9.134 1.235,8.340 1.267 M20.078 4.450 C 20.460 4.926,20.819 5.759,21.000 6.591 C 21.199 7.502,21.209 7.720,21.229 11.454 C 21.250 15.633,21.215 16.482,20.977 17.520 C 20.810 18.251,20.474 19.027,20.127 19.484 C 19.455 20.368,18.392 20.888,16.720 21.148 C 16.299 21.214,15.896 21.220,11.980 21.220 C 8.048 21.220,7.661 21.214,7.221 21.147 C 5.902 20.947,4.929 20.566,4.309 20.005 L 4.154 19.866 11.987 12.033 C 16.295 7.725,19.833 4.200,19.849 4.200 C 19.865 4.200,19.968 4.313,20.078 4.450 M5.180 6.835 C 4.990 6.923,4.904 7.012,4.822 7.210 C 4.708 7.483,4.783 7.869,4.986 8.048 C 5.203 8.241,5.184 8.240,8.009 8.239 C 10.496 8.238,10.670 8.234,10.820 8.165 C 11.010 8.077,11.096 7.988,11.178 7.790 C 11.257 7.602,11.257 7.398,11.178 7.210 C 11.096 7.012,11.010 6.923,10.820 6.835 C 10.670 6.766,10.496 6.762,8.000 6.762 C 5.504 6.762,5.330 6.766,5.180 6.835 M15.980 12.260 C 15.958 12.267,15.891 12.284,15.831 12.297 C 15.684 12.329,15.441 12.548,15.374 12.708 C 15.334 12.805,15.320 13.082,15.320 13.799 L 15.320 14.760 14.330 14.761 C 13.455 14.762,13.321 14.770,13.180 14.835 C 12.990 14.923,12.904 15.012,12.822 15.210 C 12.708 15.483,12.783 15.869,12.986 16.048 C 13.180 16.221,13.313 16.240,14.339 16.240 L 15.320 16.240 15.320 17.197 C 15.320 18.213,15.334 18.304,15.513 18.494 C 15.671 18.661,15.833 18.731,16.060 18.731 C 16.287 18.731,16.449 18.661,16.607 18.494 C 16.786 18.304,16.800 18.213,16.800 17.197 L 16.800 16.240 17.721 16.240 C 18.857 16.240,18.990 16.201,19.165 15.820 C 19.258 15.616,19.258 15.384,19.165 15.180 C 18.990 14.799,18.857 14.760,17.721 14.760 L 16.800 14.760 16.800 13.803 C 16.800 13.223,16.783 12.801,16.757 12.733 C 16.706 12.597,16.537 12.412,16.400 12.342 C 16.292 12.287,16.045 12.238,15.980 12.260 " stroke="none" fill-rule="evenodd" fill="black"></path></svg>