<svg width="24" height="24" viewBox="0 0 24 24" fill="none" xmlns="http://www.w3.org/2000/svg"><path d="M8.393 1.282 C 6.328 1.431,4.327 2.476,3.001 4.099 C 2.224 5.050,1.632 6.308,1.403 7.495 C 1.303 8.014,1.230 8.965,1.275 9.162 C 1.450 9.921,2.553 9.921,2.716 9.162 C 2.740 9.049,2.760 8.844,2.761 8.708 C 2.762 8.219,2.905 7.499,3.119 6.896 C 3.439 5.996,3.925 5.241,4.626 4.552 C 5.170 4.017,5.580 3.724,6.240 3.399 C 6.731 3.158,7.592 2.862,7.554 2.948 C 7.546 2.966,7.472 3.100,7.388 3.248 C 7.304 3.395,7.226 3.576,7.214 3.649 C 7.187 3.818,7.255 4.078,7.364 4.216 C 7.626 4.549,8.200 4.569,8.484 4.255 C 8.639 4.084,9.669 2.345,9.716 2.175 C 9.845 1.707,9.419 1.214,8.912 1.246 C 8.862 1.249,8.628 1.265,8.393 1.282 M17.020 1.285 C 15.839 1.381,14.663 1.934,13.798 2.798 C 11.755 4.842,11.755 8.158,13.798 10.202 C 15.842 12.245,19.158 12.245,21.202 10.202 C 23.245 8.158,23.245 4.842,21.202 2.798 C 20.095 1.692,18.609 1.154,17.020 1.285 M18.532 2.895 C 19.783 3.270,20.721 4.204,21.105 5.460 C 21.207 5.793,21.216 5.871,21.216 6.500 C 21.216 7.126,21.207 7.208,21.108 7.532 C 20.719 8.794,19.795 9.721,18.540 10.105 C 18.207 10.207,18.129 10.216,17.500 10.216 C 16.871 10.216,16.793 10.207,16.460 10.105 C 15.205 9.721,14.281 8.794,13.892 7.532 C 13.793 7.208,13.784 7.126,13.784 6.500 C 13.784 5.871,13.793 5.793,13.895 5.460 C 14.211 4.427,14.902 3.608,15.860 3.131 C 16.430 2.847,16.866 2.758,17.600 2.776 C 18.084 2.788,18.238 2.807,18.532 2.895 M4.800 12.264 C 4.349 12.293,3.850 12.372,3.522 12.467 C 2.469 12.771,1.770 13.470,1.467 14.522 C 1.284 15.159,1.262 15.459,1.261 17.320 C 1.260 18.865,1.267 19.073,1.326 19.180 C 1.460 19.422,1.745 19.600,2.000 19.600 C 2.155 19.600,2.391 19.503,2.513 19.388 C 2.743 19.174,2.738 19.216,2.763 17.180 C 2.782 15.572,2.795 15.265,2.854 15.060 C 3.070 14.303,3.443 13.976,4.274 13.816 C 4.501 13.773,5.001 13.760,6.500 13.760 C 8.560 13.760,8.758 13.775,9.260 13.963 C 9.588 14.086,9.913 14.412,10.038 14.740 C 10.220 15.223,10.237 15.455,10.237 17.500 C 10.237 18.946,10.224 19.494,10.183 19.720 C 10.033 20.547,9.698 20.930,8.940 21.146 C 8.735 21.204,8.422 21.217,6.820 21.237 C 4.784 21.262,4.826 21.257,4.612 21.487 C 4.497 21.609,4.400 21.845,4.400 22.000 C 4.400 22.255,4.578 22.540,4.820 22.674 C 4.927 22.733,5.135 22.740,6.680 22.739 C 8.541 22.738,8.841 22.716,9.478 22.533 C 10.530 22.230,11.230 21.530,11.533 20.478 C 11.721 19.823,11.740 19.555,11.740 17.500 C 11.740 15.445,11.721 15.177,11.533 14.522 C 11.238 13.496,10.550 12.792,9.542 12.483 C 8.928 12.295,8.644 12.272,6.780 12.261 C 5.812 12.255,4.921 12.256,4.800 12.264 M21.815 14.277 C 21.641 14.320,21.462 14.456,21.359 14.622 C 21.288 14.737,21.266 14.858,21.237 15.291 C 21.187 16.062,21.106 16.471,20.880 17.107 C 20.567 17.988,20.063 18.771,19.374 19.449 C 18.843 19.971,18.438 20.260,17.769 20.594 C 17.278 20.839,16.407 21.140,16.446 21.052 C 16.454 21.034,16.528 20.900,16.612 20.752 C 16.696 20.605,16.774 20.424,16.786 20.351 C 16.813 20.182,16.745 19.922,16.636 19.784 C 16.374 19.451,15.800 19.431,15.516 19.745 C 15.355 19.922,14.328 21.660,14.281 21.835 C 14.175 22.230,14.425 22.622,14.844 22.716 C 15.090 22.772,15.988 22.701,16.567 22.582 C 17.737 22.340,18.931 21.782,19.837 21.054 C 20.159 20.795,20.733 20.225,21.000 19.900 C 21.995 18.685,22.604 17.146,22.717 15.559 C 22.760 14.954,22.731 14.735,22.580 14.536 C 22.421 14.327,22.078 14.211,21.815 14.277 " stroke="none" fill-rule="evenodd" fill="black"></path></svg>