<svg width="24" height="24" viewBox="0 0 24 24" fill="none" xmlns="http://www.w3.org/2000/svg"><path d="M11.320 1.281 C 9.259 1.398,7.250 2.142,5.530 3.424 C 4.912 3.884,3.884 4.912,3.424 5.530 C 1.875 7.608,1.136 10.050,1.281 12.610 C 1.402 14.759,2.118 16.717,3.424 18.470 C 3.880 19.083,4.909 20.111,5.530 20.575 C 7.606 22.126,10.070 22.870,12.627 22.717 C 14.790 22.588,16.724 21.879,18.470 20.575 C 19.087 20.115,20.115 19.087,20.575 18.470 C 22.446 15.964,23.139 12.874,22.514 9.820 C 22.224 8.402,21.637 7.048,20.778 5.816 C 20.466 5.369,20.322 5.267,20.000 5.267 C 19.632 5.267,19.355 5.488,19.274 5.846 C 19.221 6.083,19.294 6.291,19.575 6.700 C 20.691 8.325,21.240 10.075,21.240 12.005 C 21.240 13.463,20.943 14.749,20.303 16.060 C 19.824 17.043,19.289 17.780,18.463 18.600 L 17.999 19.059 14.050 15.114 C 11.877 12.944,10.056 11.146,10.002 11.118 C 9.710 10.970,9.232 11.122,9.058 11.420 L 8.965 11.580 8.952 14.060 L 8.940 16.540 9.040 16.714 C 9.320 17.204,10.027 17.208,10.314 16.720 L 10.420 16.540 10.440 15.090 L 10.460 13.640 13.616 16.795 L 16.771 19.951 16.116 20.274 C 14.760 20.942,13.489 21.240,12.000 21.240 C 10.537 21.240,9.253 20.944,7.940 20.303 C 6.937 19.814,6.195 19.273,5.378 18.434 C 4.611 17.648,4.170 17.024,3.698 16.060 C 3.057 14.752,2.760 13.465,2.760 12.000 C 2.760 10.538,3.060 9.239,3.696 7.940 C 4.178 6.955,4.712 6.219,5.537 5.400 L 6.001 4.941 9.950 8.886 C 12.123 11.056,13.944 12.854,13.998 12.882 C 14.052 12.909,14.190 12.931,14.305 12.931 C 14.590 12.931,14.843 12.783,14.953 12.551 C 15.031 12.386,15.034 12.288,15.047 9.920 L 15.060 7.460 14.954 7.280 C 14.668 6.794,13.972 6.794,13.686 7.280 L 13.580 7.460 13.560 8.910 L 13.540 10.360 10.384 7.205 L 7.229 4.049 7.884 3.725 C 9.226 3.062,10.512 2.760,11.994 2.760 C 13.265 2.760,14.282 2.955,15.477 3.428 C 16.002 3.635,16.172 3.642,16.440 3.465 C 16.825 3.210,16.873 2.629,16.535 2.312 C 16.244 2.040,14.828 1.575,13.758 1.401 C 13.334 1.333,12.069 1.228,11.880 1.247 C 11.847 1.250,11.595 1.265,11.320 1.281 " stroke="none" fill-rule="evenodd" fill="black"></path></svg>