<svg width="24" height="24" viewBox="0 0 24 24" fill="none" xmlns="http://www.w3.org/2000/svg"><path d="M8.393 1.282 C 6.328 1.431,4.327 2.476,3.001 4.099 C 2.224 5.050,1.632 6.308,1.403 7.495 C 1.303 8.014,1.230 8.965,1.275 9.162 C 1.450 9.921,2.553 9.921,2.716 9.162 C 2.740 9.049,2.760 8.844,2.761 8.708 C 2.762 8.219,2.905 7.499,3.119 6.896 C 3.439 5.996,3.925 5.241,4.626 4.552 C 5.170 4.017,5.580 3.724,6.240 3.399 C 6.731 3.158,7.592 2.862,7.554 2.948 C 7.546 2.966,7.472 3.100,7.388 3.248 C 7.304 3.395,7.226 3.576,7.214 3.649 C 7.187 3.818,7.255 4.078,7.364 4.216 C 7.626 4.549,8.200 4.569,8.484 4.255 C 8.639 4.084,9.669 2.345,9.716 2.175 C 9.845 1.707,9.419 1.214,8.912 1.246 C 8.862 1.249,8.628 1.265,8.393 1.282 M15.800 1.265 C 14.598 1.335,13.810 1.626,13.218 2.218 C 12.723 2.712,12.454 3.311,12.315 4.220 C 12.236 4.738,12.236 9.262,12.315 9.780 C 12.454 10.689,12.723 11.288,13.218 11.782 C 13.712 12.277,14.311 12.546,15.220 12.685 C 15.732 12.763,19.268 12.763,19.780 12.685 C 20.689 12.546,21.288 12.277,21.782 11.782 C 22.262 11.303,22.515 10.763,22.665 9.902 C 22.750 9.414,22.795 6.180,22.721 5.826 C 22.580 5.144,21.722 4.997,21.353 5.591 L 21.260 5.740 21.237 7.720 C 21.217 9.420,21.205 9.734,21.146 9.940 C 20.930 10.699,20.547 11.033,19.720 11.183 C 19.494 11.224,18.946 11.237,17.500 11.237 C 15.455 11.237,15.223 11.220,14.740 11.038 C 14.412 10.913,14.086 10.588,13.963 10.260 C 13.769 9.744,13.760 9.597,13.760 7.000 C 13.760 5.070,13.772 4.506,13.816 4.274 C 13.976 3.443,14.303 3.070,15.060 2.854 C 15.265 2.795,15.572 2.782,17.180 2.763 C 19.216 2.738,19.174 2.743,19.388 2.513 C 19.503 2.391,19.600 2.155,19.600 2.000 C 19.600 1.845,19.503 1.609,19.388 1.487 C 19.175 1.259,19.187 1.260,17.540 1.256 C 16.704 1.254,15.921 1.258,15.800 1.265 M4.800 11.264 C 4.349 11.293,3.850 11.372,3.522 11.467 C 2.469 11.771,1.770 12.470,1.467 13.522 C 1.280 14.173,1.261 14.447,1.260 16.480 L 1.260 18.380 1.353 18.529 C 1.710 19.103,2.576 18.972,2.716 18.322 C 2.744 18.189,2.760 17.486,2.760 16.342 C 2.760 14.451,2.777 14.236,2.963 13.740 C 3.086 13.412,3.412 13.086,3.740 12.963 C 4.242 12.775,4.440 12.760,6.500 12.760 C 8.560 12.760,8.758 12.775,9.260 12.963 C 9.588 13.086,9.913 13.412,10.038 13.740 C 10.226 14.238,10.237 14.421,10.237 17.000 C 10.237 18.867,10.225 19.489,10.183 19.720 C 10.033 20.547,9.698 20.930,8.940 21.146 C 8.735 21.204,8.422 21.217,6.820 21.237 C 4.784 21.262,4.826 21.257,4.612 21.487 C 4.497 21.609,4.400 21.845,4.400 22.000 C 4.400 22.255,4.578 22.540,4.820 22.674 C 4.927 22.733,5.135 22.740,6.680 22.739 C 8.541 22.738,8.841 22.716,9.478 22.533 C 10.530 22.230,11.230 21.530,11.533 20.478 C 11.727 19.802,11.740 19.591,11.740 17.000 C 11.740 14.409,11.727 14.198,11.533 13.522 C 11.238 12.496,10.550 11.792,9.542 11.483 C 8.928 11.295,8.644 11.272,6.780 11.261 C 5.812 11.255,4.921 11.256,4.800 11.264 M21.815 14.277 C 21.641 14.320,21.462 14.456,21.359 14.622 C 21.288 14.737,21.266 14.858,21.237 15.291 C 21.187 16.062,21.106 16.471,20.880 17.107 C 20.567 17.988,20.063 18.771,19.374 19.449 C 18.843 19.971,18.438 20.260,17.769 20.594 C 17.278 20.839,16.407 21.140,16.446 21.052 C 16.454 21.034,16.528 20.900,16.612 20.752 C 16.696 20.605,16.774 20.424,16.786 20.351 C 16.813 20.182,16.745 19.922,16.636 19.784 C 16.374 19.451,15.800 19.431,15.516 19.745 C 15.355 19.922,14.328 21.660,14.281 21.835 C 14.175 22.230,14.425 22.622,14.844 22.716 C 15.090 22.772,15.988 22.701,16.567 22.582 C 17.737 22.340,18.931 21.782,19.837 21.054 C 20.159 20.795,20.733 20.225,21.000 19.900 C 21.995 18.685,22.604 17.146,22.717 15.559 C 22.760 14.954,22.731 14.735,22.580 14.536 C 22.421 14.327,22.078 14.211,21.815 14.277 " stroke="none" fill-rule="evenodd" fill="black"></path></svg>