<svg width="24" height="24" viewBox="0 0 24 24" fill="none" xmlns="http://www.w3.org/2000/svg"><path d="M8.393 1.282 C 6.328 1.431,4.327 2.476,3.001 4.099 C 2.224 5.050,1.632 6.308,1.403 7.495 C 1.303 8.014,1.230 8.965,1.275 9.162 C 1.450 9.921,2.553 9.921,2.716 9.162 C 2.740 9.049,2.760 8.844,2.761 8.708 C 2.762 8.219,2.905 7.499,3.119 6.896 C 3.439 5.996,3.925 5.241,4.626 4.552 C 5.170 4.017,5.580 3.724,6.240 3.399 C 6.731 3.158,7.592 2.862,7.554 2.948 C 7.546 2.966,7.472 3.100,7.388 3.248 C 7.304 3.395,7.226 3.576,7.214 3.649 C 7.187 3.818,7.255 4.078,7.364 4.216 C 7.626 4.549,8.200 4.569,8.484 4.255 C 8.639 4.084,9.669 2.345,9.716 2.175 C 9.845 1.707,9.419 1.214,8.912 1.246 C 8.862 1.249,8.628 1.265,8.393 1.282 M17.293 1.284 C 17.135 1.302,16.893 1.355,16.756 1.401 C 16.447 1.505,13.982 2.863,13.680 3.095 C 13.208 3.458,12.772 4.175,12.659 4.774 C 12.588 5.150,12.575 7.698,12.642 8.120 C 12.751 8.811,13.220 9.575,13.765 9.949 C 14.117 10.192,16.507 11.497,16.780 11.596 C 17.032 11.688,17.119 11.698,17.660 11.699 C 18.499 11.700,18.377 11.747,20.298 10.686 C 21.675 9.926,21.898 9.765,22.209 9.307 C 22.407 9.016,22.612 8.574,22.685 8.280 C 22.727 8.112,22.740 7.687,22.740 6.480 C 22.740 5.097,22.731 4.868,22.670 4.640 C 22.513 4.063,22.090 3.405,21.681 3.104 C 21.461 2.942,19.458 1.808,18.900 1.530 C 18.463 1.312,17.856 1.219,17.293 1.284 M19.353 3.476 C 20.043 3.857,20.592 4.182,20.573 4.199 C 20.555 4.215,19.896 4.601,19.109 5.058 L 17.678 5.888 16.234 5.052 C 15.440 4.592,14.793 4.199,14.796 4.178 C 14.802 4.140,16.109 3.397,16.918 2.971 L 17.336 2.751 17.718 2.767 L 18.100 2.783 19.353 3.476 M15.524 6.366 L 16.920 7.172 16.920 8.590 C 16.920 9.369,16.905 10.001,16.887 9.993 C 16.869 9.986,16.337 9.694,15.705 9.343 C 14.479 8.664,14.435 8.630,14.211 8.196 L 14.100 7.980 14.087 6.770 C 14.080 6.105,14.087 5.560,14.101 5.560 C 14.116 5.560,14.756 5.923,15.524 6.366 M21.240 6.738 C 21.240 8.488,21.264 8.447,19.700 9.314 C 19.150 9.618,18.642 9.898,18.570 9.935 L 18.440 10.002 18.440 8.587 L 18.440 7.171 19.810 6.370 C 20.564 5.929,21.194 5.566,21.210 5.564 C 21.227 5.562,21.240 6.090,21.240 6.738 M5.973 12.287 C 5.793 12.305,5.531 12.361,5.392 12.411 C 5.128 12.507,2.867 13.742,2.480 14.002 C 2.080 14.270,1.805 14.595,1.546 15.103 C 1.282 15.620,1.270 15.710,1.250 17.234 C 1.230 18.766,1.262 19.198,1.426 19.643 C 1.627 20.184,2.058 20.737,2.495 21.014 C 2.957 21.308,5.156 22.503,5.389 22.587 C 5.896 22.772,6.748 22.770,7.260 22.584 C 7.402 22.533,8.116 22.159,8.845 21.755 C 10.324 20.936,10.358 20.908,10.391 20.505 C 10.413 20.244,10.309 20.017,10.093 19.852 C 9.964 19.753,9.912 19.740,9.663 19.741 L 9.380 19.741 8.253 20.371 C 7.633 20.717,7.115 21.000,7.103 21.000 C 7.090 21.000,7.080 20.364,7.080 19.586 L 7.080 18.172 8.506 17.345 L 9.931 16.519 10.073 16.685 C 10.243 16.883,10.411 16.960,10.669 16.959 C 11.013 16.958,11.322 16.703,11.385 16.369 C 11.399 16.291,11.384 16.060,11.350 15.856 C 11.235 15.147,10.773 14.405,10.216 14.032 C 9.960 13.860,7.951 12.735,7.500 12.510 C 7.100 12.311,6.552 12.231,5.973 12.287 M7.992 14.478 C 8.681 14.859,9.230 15.185,9.212 15.201 C 9.195 15.218,8.536 15.604,7.749 16.059 L 6.318 16.887 4.889 16.060 C 4.103 15.605,3.446 15.219,3.430 15.204 C 3.403 15.178,5.532 13.977,5.880 13.821 C 5.983 13.775,6.116 13.762,6.380 13.772 L 6.740 13.785 7.992 14.478 M21.815 14.277 C 21.641 14.320,21.462 14.456,21.359 14.622 C 21.288 14.737,21.266 14.858,21.237 15.291 C 21.187 16.062,21.106 16.471,20.880 17.107 C 20.567 17.988,20.063 18.771,19.374 19.449 C 18.843 19.971,18.438 20.260,17.769 20.594 C 17.278 20.839,16.407 21.140,16.446 21.052 C 16.454 21.034,16.528 20.900,16.612 20.752 C 16.696 20.605,16.774 20.424,16.786 20.351 C 16.813 20.182,16.745 19.922,16.636 19.784 C 16.374 19.451,15.800 19.431,15.516 19.745 C 15.355 19.922,14.328 21.660,14.281 21.835 C 14.175 22.230,14.425 22.622,14.844 22.716 C 15.090 22.772,15.988 22.701,16.567 22.582 C 17.737 22.340,18.931 21.782,19.837 21.054 C 20.159 20.795,20.733 20.225,21.000 19.900 C 21.995 18.685,22.604 17.146,22.717 15.559 C 22.760 14.954,22.731 14.735,22.580 14.536 C 22.421 14.327,22.078 14.211,21.815 14.277 M4.290 17.438 L 5.560 18.173 5.560 19.590 C 5.560 20.409,5.545 21.001,5.524 20.993 C 5.504 20.986,4.997 20.710,4.397 20.380 C 3.735 20.016,3.245 19.720,3.150 19.627 C 3.064 19.543,2.941 19.363,2.877 19.227 L 2.760 18.980 2.760 17.766 L 2.760 16.552 2.890 16.628 C 2.962 16.669,3.591 17.034,4.290 17.438 " stroke="none" fill-rule="evenodd" fill="black"></path></svg>