<svg width="24" height="24" viewBox="0 0 24 24" fill="none" xmlns="http://www.w3.org/2000/svg"><path d="M12.173 1.284 C 11.277 1.336,10.242 1.577,9.660 1.870 C 8.693 2.358,8.011 3.154,7.647 4.220 C 7.439 4.828,7.326 5.498,7.276 6.403 C 7.252 6.852,7.229 7.223,7.226 7.226 C 7.223 7.229,6.852 7.252,6.403 7.276 C 4.609 7.374,3.450 7.784,2.617 8.617 C 2.015 9.220,1.644 9.983,1.423 11.080 C 1.314 11.622,1.225 12.816,1.277 13.047 C 1.406 13.619,2.079 13.840,2.494 13.447 C 2.698 13.254,2.728 13.146,2.763 12.489 C 2.819 11.434,2.947 10.848,3.251 10.262 C 3.690 9.416,4.562 8.939,5.920 8.801 C 6.242 8.768,7.237 8.759,9.240 8.770 C 12.387 8.787,12.466 8.792,13.219 9.044 C 14.155 9.357,14.643 9.845,14.956 10.781 C 15.208 11.534,15.213 11.613,15.230 14.760 C 15.241 16.763,15.232 17.758,15.199 18.080 C 15.097 19.085,14.800 19.843,14.321 20.321 C 13.853 20.790,13.096 21.091,12.128 21.196 C 11.571 21.256,6.429 21.256,5.872 21.196 C 4.550 21.053,3.684 20.571,3.251 19.738 C 2.947 19.152,2.819 18.566,2.763 17.511 C 2.728 16.854,2.698 16.746,2.494 16.553 C 2.217 16.291,1.783 16.291,1.507 16.553 C 1.263 16.783,1.237 16.924,1.284 17.754 C 1.327 18.501,1.455 19.218,1.647 19.780 C 2.083 21.057,2.943 21.917,4.220 22.353 C 5.206 22.690,6.021 22.759,9.000 22.759 C 11.979 22.759,12.794 22.690,13.780 22.353 C 15.057 21.917,15.917 21.057,16.353 19.780 C 16.559 19.178,16.672 18.509,16.723 17.600 C 16.748 17.149,16.771 16.777,16.774 16.774 C 16.777 16.771,17.149 16.748,17.600 16.723 C 19.402 16.622,20.550 16.215,21.383 15.383 C 21.986 14.779,22.357 14.014,22.576 12.920 C 22.685 12.377,22.774 11.181,22.723 10.954 C 22.642 10.593,22.358 10.360,22.000 10.360 C 21.799 10.360,21.647 10.419,21.506 10.553 C 21.302 10.746,21.272 10.854,21.237 11.511 C 21.181 12.566,21.053 13.152,20.749 13.738 C 20.226 14.744,19.068 15.240,17.238 15.240 L 16.760 15.240 16.759 13.910 C 16.759 12.150,16.707 11.514,16.497 10.680 C 16.068 8.972,15.028 7.932,13.320 7.503 C 12.486 7.293,11.850 7.241,10.090 7.241 L 8.760 7.240 8.760 6.762 C 8.760 5.336,9.073 4.284,9.679 3.679 C 10.147 3.210,10.904 2.909,11.872 2.804 C 12.429 2.744,17.571 2.744,18.128 2.804 C 19.450 2.947,20.316 3.429,20.749 4.262 C 21.053 4.848,21.181 5.434,21.237 6.489 C 21.272 7.146,21.302 7.254,21.506 7.447 C 21.783 7.709,22.217 7.709,22.493 7.447 C 22.737 7.217,22.763 7.074,22.715 6.245 C 22.672 5.498,22.542 4.774,22.353 4.220 C 21.917 2.943,21.057 2.083,19.780 1.647 C 19.211 1.452,18.502 1.327,17.720 1.282 C 16.907 1.235,13.006 1.237,12.173 1.284 M11.518 12.436 C 11.420 12.499,10.593 13.300,9.681 14.215 L 8.021 15.879 7.261 15.124 C 6.842 14.710,6.455 14.347,6.400 14.318 C 6.345 14.290,6.198 14.267,6.072 14.267 C 5.801 14.267,5.583 14.389,5.438 14.623 C 5.333 14.793,5.312 15.154,5.398 15.320 C 5.481 15.481,7.525 17.518,7.688 17.603 C 7.863 17.693,8.148 17.703,8.331 17.625 C 8.476 17.564,12.505 13.543,12.595 13.371 C 12.626 13.311,12.651 13.169,12.651 13.055 C 12.651 12.463,12.012 12.114,11.518 12.436 " stroke="none" fill-rule="evenodd" fill="black"></path></svg>