<svg width="24" height="24" viewBox="0 0 24 24" fill="none" xmlns="http://www.w3.org/2000/svg"><path d="M11.560 1.267 C 10.326 1.322,9.152 1.571,8.041 2.012 C 7.427 2.256,7.240 2.454,7.240 2.860 C 7.240 3.229,7.525 3.548,7.892 3.589 C 8.032 3.605,8.152 3.574,8.523 3.428 C 9.718 2.955,10.735 2.760,12.006 2.760 C 13.464 2.760,14.754 3.058,16.060 3.698 C 17.024 4.170,17.648 4.611,18.434 5.378 C 19.273 6.195,19.814 6.937,20.303 7.940 C 20.944 9.253,21.240 10.537,21.240 12.000 C 21.240 13.465,20.943 14.752,20.302 16.060 C 19.830 17.024,19.389 17.648,18.622 18.434 C 17.805 19.273,17.063 19.814,16.060 20.303 C 14.747 20.944,13.463 21.240,12.000 21.240 C 10.537 21.240,9.253 20.944,7.940 20.303 C 6.937 19.814,6.195 19.273,5.378 18.434 C 4.611 17.648,4.170 17.024,3.698 16.060 C 3.058 14.754,2.760 13.464,2.760 12.005 C 2.760 10.060,3.331 8.256,4.457 6.648 C 4.701 6.298,4.770 6.095,4.724 5.855 C 4.656 5.497,4.372 5.267,4.000 5.267 C 3.678 5.267,3.534 5.369,3.222 5.816 C 1.432 8.383,0.834 11.537,1.564 14.550 C 1.904 15.951,2.529 17.268,3.424 18.470 C 3.880 19.083,4.909 20.111,5.530 20.575 C 7.606 22.126,10.070 22.870,12.627 22.717 C 14.790 22.588,16.724 21.879,18.470 20.575 C 19.087 20.115,20.115 19.087,20.575 18.470 C 22.127 16.391,22.870 13.930,22.717 11.373 C 22.588 9.210,21.879 7.276,20.575 5.530 C 20.115 4.913,19.087 3.885,18.470 3.425 C 17.047 2.362,15.454 1.679,13.742 1.398 C 13.325 1.330,12.055 1.227,11.880 1.248 C 11.847 1.252,11.703 1.261,11.560 1.267 M11.819 7.280 C 9.990 7.440,8.440 8.632,7.780 10.384 C 7.422 11.335,7.422 12.665,7.780 13.616 C 8.279 14.943,9.290 15.959,10.601 16.451 C 11.568 16.815,12.812 16.827,13.813 16.482 C 14.318 16.309,15.057 15.865,15.380 15.542 C 15.881 15.041,15.554 14.260,14.848 14.267 C 14.668 14.269,14.604 14.292,14.419 14.424 C 13.864 14.822,13.762 14.886,13.491 15.000 C 13.034 15.192,12.661 15.253,12.080 15.230 C 11.195 15.194,10.602 14.930,9.956 14.284 C 9.528 13.857,9.312 13.515,9.132 12.980 C 9.031 12.684,9.023 12.611,9.023 12.000 C 9.023 11.389,9.031 11.316,9.132 11.020 C 9.312 10.485,9.528 10.143,9.956 9.716 C 10.602 9.070,11.195 8.806,12.080 8.770 C 12.661 8.747,13.034 8.808,13.491 9.000 C 13.762 9.114,13.864 9.178,14.419 9.576 C 14.604 9.708,14.668 9.731,14.848 9.733 C 15.554 9.740,15.881 8.959,15.380 8.458 C 15.215 8.293,14.786 7.989,14.440 7.793 C 13.964 7.523,13.327 7.342,12.637 7.281 C 12.386 7.259,12.171 7.243,12.160 7.246 C 12.149 7.249,11.996 7.264,11.819 7.280 " stroke="none" fill-rule="evenodd" fill="black"></path></svg>