<svg width="24" height="24" viewBox="0 0 24 24" fill="none" xmlns="http://www.w3.org/2000/svg"><path d="M7.854 1.278 C 7.665 1.323,7.469 1.459,7.380 1.607 C 7.308 1.726,7.298 1.832,7.280 2.616 L 7.260 3.492 6.940 3.581 C 5.256 4.049,4.200 5.038,3.666 6.648 C 3.610 6.818,3.553 7.019,3.538 7.095 L 3.512 7.233 2.643 7.247 C 1.777 7.260,1.773 7.260,1.612 7.367 C 1.372 7.526,1.267 7.721,1.267 8.007 C 1.267 8.203,1.286 8.270,1.383 8.408 C 1.591 8.702,1.713 8.738,2.556 8.754 L 3.291 8.768 3.266 9.130 C 3.252 9.329,3.240 9.884,3.240 10.362 L 3.240 11.232 2.507 11.246 C 1.790 11.260,1.771 11.262,1.612 11.367 C 1.372 11.526,1.267 11.721,1.267 12.007 C 1.267 12.203,1.286 12.270,1.383 12.408 C 1.590 12.700,1.715 12.738,2.530 12.754 L 3.240 12.768 3.240 13.638 C 3.240 14.116,3.252 14.671,3.266 14.870 L 3.291 15.232 2.533 15.246 C 1.787 15.260,1.771 15.262,1.612 15.367 C 1.372 15.526,1.267 15.721,1.267 16.007 C 1.267 16.203,1.286 16.270,1.383 16.408 C 1.597 16.710,1.700 16.738,2.666 16.753 L 3.512 16.767 3.538 16.905 C 3.553 16.981,3.610 17.182,3.666 17.352 C 4.200 18.962,5.256 19.951,6.940 20.419 L 7.260 20.508 7.280 21.384 C 7.299 22.198,7.306 22.270,7.388 22.402 C 7.629 22.789,8.236 22.848,8.548 22.513 C 8.732 22.317,8.760 22.169,8.760 21.416 L 8.760 20.709 9.152 20.736 C 9.682 20.772,9.921 20.719,10.120 20.520 C 10.471 20.169,10.373 19.549,9.932 19.339 C 9.815 19.283,9.626 19.259,9.112 19.234 C 7.965 19.180,7.278 19.028,6.561 18.671 C 6.220 18.501,6.087 18.407,5.840 18.160 C 5.356 17.676,5.034 16.948,4.849 15.920 C 4.787 15.580,4.780 15.168,4.780 12.000 C 4.780 8.832,4.787 8.420,4.849 8.080 C 4.957 7.476,5.104 7.012,5.329 6.561 C 5.499 6.220,5.593 6.087,5.840 5.840 C 6.324 5.356,7.052 5.034,8.080 4.849 C 8.420 4.787,8.832 4.780,12.000 4.780 C 15.168 4.780,15.580 4.787,15.920 4.849 C 17.382 5.112,18.205 5.625,18.674 6.567 C 19.031 7.283,19.179 7.961,19.235 9.135 C 19.265 9.750,19.279 9.849,19.357 9.976 C 19.710 10.547,20.577 10.407,20.717 9.756 C 20.746 9.623,20.753 9.399,20.736 9.152 L 20.709 8.760 21.332 8.760 C 22.122 8.760,22.320 8.720,22.520 8.520 C 22.918 8.122,22.730 7.423,22.189 7.286 C 22.081 7.259,21.689 7.240,21.247 7.240 L 20.489 7.240 20.462 7.098 C 20.418 6.864,20.241 6.361,20.081 6.017 C 19.647 5.080,18.920 4.353,17.983 3.919 C 17.639 3.759,17.136 3.582,16.902 3.538 L 16.760 3.511 16.760 2.778 C 16.760 1.879,16.724 1.684,16.522 1.482 C 16.173 1.133,15.619 1.203,15.353 1.631 C 15.266 1.771,15.259 1.828,15.246 2.536 L 15.232 3.291 14.870 3.266 C 14.671 3.252,14.114 3.240,13.634 3.240 L 12.760 3.240 12.760 2.642 C 12.760 1.881,12.718 1.678,12.522 1.482 C 12.173 1.133,11.619 1.203,11.353 1.631 C 11.266 1.770,11.259 1.829,11.246 2.510 L 11.232 3.240 10.362 3.240 C 9.884 3.240,9.328 3.252,9.126 3.266 L 8.760 3.292 8.760 2.585 C 8.760 1.831,8.732 1.683,8.548 1.487 C 8.379 1.306,8.096 1.221,7.854 1.278 M10.120 6.264 C 8.760 6.353,7.872 6.682,7.256 7.326 C 6.745 7.859,6.455 8.540,6.312 9.540 C 6.239 10.048,6.239 13.956,6.312 14.453 C 6.467 15.511,6.794 16.237,7.354 16.771 C 7.629 17.033,7.727 17.080,8.005 17.080 C 8.231 17.080,8.373 17.018,8.525 16.854 C 8.681 16.685,8.720 16.587,8.720 16.361 C 8.720 16.105,8.648 15.961,8.374 15.672 C 8.124 15.408,7.951 15.067,7.851 14.642 C 7.787 14.371,7.780 14.100,7.780 12.000 C 7.780 9.411,7.785 9.346,8.043 8.798 C 8.267 8.324,8.630 8.049,9.274 7.869 C 9.567 7.787,9.676 7.783,11.799 7.769 C 14.278 7.754,14.549 7.773,15.106 8.005 C 15.330 8.098,15.481 8.199,15.701 8.404 C 16.008 8.688,16.111 8.739,16.380 8.735 C 16.944 8.727,17.276 8.084,16.967 7.598 C 16.836 7.391,16.508 7.086,16.215 6.898 C 15.790 6.627,15.207 6.429,14.500 6.317 C 14.235 6.275,10.624 6.232,10.120 6.264 M14.600 11.304 C 14.368 11.367,13.406 11.902,13.051 12.166 C 12.693 12.432,12.458 12.888,12.413 13.404 C 12.385 13.721,12.445 14.009,12.608 14.333 C 12.796 14.709,12.744 14.782,12.280 14.796 C 11.615 14.815,10.945 15.349,10.741 16.023 C 10.696 16.169,10.681 16.425,10.680 17.004 C 10.680 17.670,10.691 17.821,10.756 18.008 C 10.999 18.715,11.649 19.198,12.358 19.201 C 12.762 19.202,12.794 19.263,12.601 19.670 C 12.343 20.217,12.344 20.755,12.603 21.266 C 12.786 21.626,13.077 21.877,13.770 22.273 C 14.474 22.676,14.655 22.736,15.103 22.712 C 15.383 22.697,15.481 22.672,15.728 22.550 C 16.058 22.386,16.158 22.294,16.430 21.899 C 16.556 21.715,16.648 21.620,16.699 21.620 C 16.749 21.620,16.832 21.700,16.929 21.840 C 17.196 22.227,17.284 22.324,17.498 22.460 C 17.894 22.714,18.484 22.799,18.880 22.661 C 19.196 22.550,20.204 21.949,20.446 21.726 C 20.738 21.458,20.912 21.120,20.972 20.702 C 21.025 20.339,20.978 20.059,20.799 19.665 C 20.612 19.252,20.638 19.202,21.040 19.200 C 21.743 19.196,22.412 18.689,22.655 17.977 C 22.745 17.713,22.748 16.316,22.659 16.023 C 22.455 15.349,21.785 14.815,21.120 14.796 C 20.656 14.782,20.604 14.709,20.792 14.333 C 20.955 14.009,21.015 13.721,20.987 13.404 C 20.938 12.836,20.671 12.378,20.213 12.073 C 19.880 11.852,19.124 11.415,18.971 11.356 C 18.583 11.207,18.069 11.242,17.655 11.445 C 17.376 11.583,17.203 11.749,16.951 12.120 C 16.840 12.283,16.747 12.380,16.700 12.380 C 16.653 12.380,16.560 12.283,16.449 12.120 C 16.199 11.751,16.026 11.585,15.745 11.444 C 15.345 11.242,14.991 11.199,14.600 11.304 M15.293 13.074 C 15.414 13.247,15.584 13.444,15.671 13.513 C 16.194 13.927,16.825 14.012,17.366 13.741 C 17.683 13.581,17.867 13.416,18.107 13.074 C 18.232 12.895,18.355 12.760,18.393 12.760 C 18.508 12.760,19.472 13.352,19.500 13.438 C 19.516 13.489,19.473 13.634,19.385 13.829 C 19.040 14.595,19.131 15.302,19.638 15.793 C 19.916 16.063,20.485 16.277,20.930 16.279 C 21.026 16.280,21.109 16.309,21.160 16.360 C 21.232 16.432,21.240 16.493,21.240 16.998 C 21.240 17.521,21.234 17.562,21.152 17.638 C 21.091 17.696,21.010 17.720,20.882 17.721 C 20.634 17.721,20.238 17.819,20.009 17.936 C 19.575 18.158,19.294 18.537,19.198 19.032 C 19.133 19.368,19.195 19.746,19.386 20.163 C 19.524 20.464,19.527 20.483,19.465 20.578 C 19.397 20.682,18.488 21.240,18.386 21.240 C 18.353 21.240,18.243 21.115,18.141 20.962 C 17.913 20.618,17.667 20.398,17.325 20.229 C 17.087 20.112,17.027 20.100,16.700 20.100 C 16.373 20.100,16.313 20.112,16.075 20.229 C 15.731 20.399,15.489 20.617,15.262 20.961 C 15.161 21.114,15.051 21.240,15.017 21.240 C 14.913 21.240,14.004 20.683,13.935 20.578 C 13.873 20.483,13.876 20.464,14.014 20.163 C 14.205 19.746,14.267 19.368,14.202 19.032 C 14.106 18.537,13.825 18.158,13.391 17.936 C 13.159 17.818,12.765 17.721,12.510 17.721 C 12.187 17.720,12.160 17.665,12.160 17.000 C 12.160 16.493,12.168 16.432,12.240 16.360 C 12.291 16.309,12.374 16.280,12.470 16.279 C 12.915 16.277,13.484 16.063,13.762 15.793 C 14.270 15.301,14.360 14.595,14.013 13.825 C 13.900 13.575,13.880 13.493,13.911 13.423 C 13.954 13.329,14.892 12.762,15.007 12.761 C 15.045 12.760,15.167 12.893,15.293 13.074 M16.060 14.752 C 15.713 14.855,15.418 15.027,15.134 15.293 C 14.623 15.768,14.392 16.294,14.389 16.980 C 14.387 17.674,14.586 18.157,15.075 18.641 C 15.602 19.162,16.070 19.341,16.820 19.310 C 17.350 19.287,17.663 19.185,18.052 18.907 C 19.370 17.967,19.370 16.033,18.052 15.093 C 17.645 14.802,17.353 14.711,16.780 14.695 C 16.406 14.684,16.247 14.697,16.060 14.752 M17.170 16.303 C 17.370 16.441,17.560 16.781,17.560 17.000 C 17.560 17.218,17.370 17.559,17.173 17.695 C 16.838 17.927,16.383 17.868,16.101 17.556 C 15.923 17.359,15.880 17.250,15.880 17.000 C 15.880 16.752,15.933 16.614,16.092 16.445 C 16.388 16.133,16.839 16.073,17.170 16.303 " stroke="none" fill-rule="evenodd" fill="black"></path></svg>