<svg width="24" height="24" viewBox="0 0 24 24" fill="none" xmlns="http://www.w3.org/2000/svg"><path d="M11.560 1.267 C 10.326 1.322,9.152 1.571,8.041 2.012 C 7.427 2.256,7.240 2.454,7.240 2.860 C 7.240 3.229,7.525 3.548,7.892 3.589 C 8.032 3.605,8.152 3.574,8.523 3.428 C 9.718 2.955,10.735 2.760,12.006 2.760 C 13.464 2.760,14.754 3.058,16.060 3.698 C 17.024 4.170,17.648 4.611,18.434 5.378 C 19.273 6.195,19.814 6.937,20.303 7.940 C 20.944 9.253,21.240 10.537,21.240 12.000 C 21.240 13.465,20.943 14.752,20.302 16.060 C 19.830 17.024,19.389 17.648,18.622 18.434 C 17.805 19.273,17.063 19.814,16.060 20.303 C 14.747 20.944,13.463 21.240,12.000 21.240 C 10.537 21.240,9.253 20.944,7.940 20.303 C 6.937 19.814,6.195 19.273,5.378 18.434 C 4.611 17.648,4.170 17.024,3.698 16.060 C 3.058 14.754,2.760 13.464,2.760 12.005 C 2.760 10.060,3.331 8.256,4.457 6.648 C 4.701 6.298,4.770 6.095,4.724 5.855 C 4.656 5.497,4.372 5.267,4.000 5.267 C 3.678 5.267,3.534 5.369,3.222 5.816 C 1.432 8.383,0.834 11.537,1.564 14.550 C 1.904 15.951,2.529 17.268,3.424 18.470 C 3.880 19.083,4.909 20.111,5.530 20.575 C 7.606 22.126,10.070 22.870,12.627 22.717 C 14.790 22.588,16.724 21.879,18.470 20.575 C 19.087 20.115,20.115 19.087,20.575 18.470 C 22.127 16.391,22.870 13.930,22.717 11.373 C 22.588 9.210,21.879 7.276,20.575 5.530 C 20.115 4.913,19.087 3.885,18.470 3.425 C 17.047 2.362,15.454 1.679,13.742 1.398 C 13.325 1.330,12.055 1.227,11.880 1.248 C 11.847 1.252,11.703 1.261,11.560 1.267 M8.330 8.442 C 7.798 8.537,7.155 8.839,6.693 9.210 C 5.153 10.449,4.940 12.811,6.231 14.329 C 6.647 14.817,7.250 15.224,7.866 15.433 C 8.581 15.676,9.533 15.656,10.260 15.382 C 10.766 15.191,11.399 14.752,11.531 14.500 C 11.771 14.042,11.489 13.494,10.974 13.417 C 10.754 13.384,10.587 13.443,10.293 13.657 C 9.975 13.888,9.795 13.976,9.477 14.055 C 8.378 14.328,7.276 13.678,6.944 12.563 C 6.866 12.298,6.861 11.736,6.934 11.460 C 7.031 11.098,7.209 10.791,7.483 10.516 C 8.257 9.738,9.472 9.664,10.303 10.345 C 10.486 10.495,10.712 10.600,10.849 10.600 C 11.125 10.599,11.425 10.423,11.545 10.191 C 11.628 10.029,11.627 9.689,11.541 9.518 C 11.374 9.181,10.645 8.715,9.975 8.515 C 9.659 8.421,8.689 8.378,8.330 8.442 M15.330 8.442 C 14.798 8.537,14.155 8.839,13.693 9.210 C 12.153 10.449,11.940 12.811,13.231 14.329 C 13.647 14.817,14.250 15.224,14.866 15.433 C 15.581 15.676,16.533 15.656,17.260 15.382 C 17.766 15.191,18.399 14.752,18.531 14.500 C 18.771 14.042,18.489 13.494,17.974 13.417 C 17.754 13.384,17.587 13.443,17.293 13.657 C 16.975 13.888,16.795 13.976,16.477 14.055 C 15.378 14.328,14.276 13.678,13.944 12.563 C 13.866 12.298,13.861 11.736,13.934 11.460 C 14.031 11.098,14.209 10.791,14.483 10.516 C 15.257 9.738,16.472 9.664,17.303 10.345 C 17.486 10.495,17.712 10.600,17.849 10.600 C 18.125 10.599,18.425 10.423,18.545 10.191 C 18.628 10.029,18.627 9.689,18.541 9.518 C 18.374 9.181,17.645 8.715,16.975 8.515 C 16.659 8.421,15.689 8.378,15.330 8.442 " stroke="none" fill-rule="evenodd" fill="black"></path></svg>