<svg width="24" height="24" viewBox="0 0 24 24" fill="none" xmlns="http://www.w3.org/2000/svg"><path d="M11.644 3.003 C 11.548 3.022,11.350 3.093,11.206 3.161 C 10.966 3.273,10.774 3.452,9.020 5.202 C 7.550 6.668,7.074 7.120,7.000 7.120 C 6.927 7.120,6.552 6.770,5.442 5.667 C 4.484 4.715,3.890 4.157,3.720 4.046 C 2.687 3.377,1.670 3.767,1.333 4.960 C 1.265 5.202,1.260 5.431,1.260 8.200 L 1.260 11.180 1.366 11.360 C 1.653 11.848,2.360 11.844,2.640 11.354 L 2.740 11.180 2.750 8.300 C 2.755 6.716,2.769 5.379,2.781 5.329 C 2.799 5.249,2.813 5.244,2.891 5.284 C 2.940 5.310,3.646 5.992,4.460 6.800 C 5.274 7.609,6.019 8.319,6.115 8.379 C 6.435 8.577,6.903 8.665,7.300 8.601 C 7.822 8.517,7.879 8.469,9.954 6.393 C 11.002 5.345,11.902 4.475,11.953 4.460 C 12.036 4.436,12.274 4.659,13.993 6.368 C 15.714 8.078,15.970 8.318,16.200 8.431 C 16.711 8.684,17.379 8.677,17.834 8.416 C 17.942 8.354,18.646 7.687,19.520 6.820 C 20.345 6.001,21.060 5.310,21.109 5.284 C 21.187 5.244,21.201 5.249,21.220 5.329 C 21.233 5.379,21.237 7.841,21.230 10.800 L 21.217 16.180 21.112 16.568 C 20.910 17.307,20.568 17.911,20.075 18.399 C 19.608 18.862,19.053 19.185,18.421 19.364 C 17.746 19.555,17.637 19.558,12.079 19.559 C 8.717 19.560,6.737 19.545,6.519 19.519 C 5.518 19.396,4.723 19.006,3.997 18.282 C 3.242 17.530,2.853 16.672,2.763 15.559 C 2.742 15.294,2.699 15.036,2.666 14.973 C 2.337 14.343,1.434 14.457,1.278 15.148 C 1.228 15.372,1.313 16.202,1.436 16.692 C 1.978 18.836,3.623 20.422,5.829 20.928 L 6.220 21.017 11.780 21.031 C 17.577 21.046,17.798 21.041,18.501 20.876 C 20.754 20.349,22.225 18.771,22.652 16.423 C 22.740 15.941,22.740 15.929,22.740 10.600 C 22.740 5.622,22.735 5.241,22.669 4.984 C 22.360 3.780,21.321 3.373,20.280 4.046 C 20.110 4.157,19.516 4.715,18.558 5.667 C 17.451 6.767,17.072 7.120,17.000 7.120 C 16.927 7.120,16.446 6.664,14.982 5.208 C 13.394 3.629,13.018 3.275,12.820 3.173 C 12.438 2.976,12.061 2.921,11.644 3.003 " stroke="none" fill-rule="evenodd" fill="black"></path></svg>