<svg width="24" height="24" viewBox="0 0 24 24" fill="none" xmlns="http://www.w3.org/2000/svg"><path d="M11.621 1.304 C 11.142 1.457,10.767 1.831,10.460 2.460 C 10.364 2.658,9.904 3.837,9.439 5.080 C 8.974 6.323,8.558 7.423,8.514 7.525 C 8.418 7.748,8.295 7.827,8.133 7.770 C 8.071 7.748,7.061 7.043,5.888 6.205 C 3.648 4.602,3.279 4.375,2.769 4.277 C 2.285 4.185,1.849 4.314,1.544 4.640 C 1.341 4.857,1.265 5.015,1.197 5.360 C 1.139 5.655,1.194 6.152,1.336 6.623 C 1.577 7.422,5.615 18.639,5.732 18.835 C 5.901 19.117,6.191 19.370,6.558 19.552 L 6.856 19.700 12.000 19.700 L 17.144 19.700 17.442 19.552 C 17.810 19.369,18.100 19.117,18.267 18.835 C 18.403 18.606,22.497 7.191,22.620 6.700 C 22.779 6.060,22.773 5.523,22.603 5.137 C 22.343 4.550,21.673 4.248,20.999 4.415 C 20.691 4.491,20.021 4.819,19.740 5.030 C 19.384 5.298,19.273 5.674,19.445 6.030 C 19.570 6.289,19.790 6.420,20.097 6.419 C 20.325 6.419,20.364 6.404,20.736 6.169 C 20.954 6.032,21.157 5.920,21.186 5.920 C 21.259 5.920,21.254 6.053,21.167 6.361 C 21.127 6.503,20.179 9.185,19.059 12.320 C 17.439 16.855,17.001 18.042,16.915 18.130 L 16.806 18.240 12.004 18.240 L 7.201 18.240 7.085 18.130 C 6.986 18.036,6.657 17.145,4.888 12.180 C 2.832 6.414,2.661 5.918,2.688 5.837 C 2.708 5.776,3.031 5.995,5.220 7.560 C 6.320 8.347,7.310 9.035,7.420 9.090 C 8.270 9.512,9.328 9.191,9.766 8.377 C 9.825 8.269,10.299 7.046,10.820 5.660 C 11.751 3.182,11.920 2.781,12.013 2.810 C 12.114 2.842,12.305 3.305,13.173 5.620 C 14.218 8.406,14.182 8.317,14.389 8.592 C 14.751 9.071,15.284 9.309,15.917 9.272 C 16.295 9.250,16.604 9.116,17.112 8.754 C 17.716 8.325,17.811 8.203,17.811 7.860 C 17.811 7.440,17.495 7.120,17.080 7.120 C 16.859 7.120,16.763 7.165,16.323 7.480 C 15.859 7.811,15.740 7.849,15.607 7.707 C 15.547 7.644,15.210 6.799,14.676 5.374 C 13.470 2.152,13.488 2.194,13.083 1.751 C 12.698 1.330,12.106 1.149,11.621 1.304 M9.420 13.259 C 9.398 13.267,9.331 13.284,9.271 13.297 C 9.124 13.329,8.881 13.548,8.814 13.708 C 8.691 14.002,8.771 14.336,9.015 14.550 C 9.095 14.621,9.211 14.693,9.271 14.709 C 9.413 14.749,14.587 14.749,14.729 14.709 C 14.881 14.667,15.121 14.447,15.186 14.292 C 15.297 14.027,15.241 13.711,15.047 13.506 C 14.802 13.247,14.961 13.261,12.080 13.252 C 10.639 13.248,9.442 13.251,9.420 13.259 M6.420 21.259 C 6.398 21.267,6.331 21.284,6.271 21.297 C 6.124 21.329,5.881 21.548,5.814 21.708 C 5.691 22.002,5.771 22.336,6.015 22.550 C 6.095 22.621,6.211 22.693,6.271 22.709 C 6.414 22.749,17.586 22.749,17.729 22.709 C 17.881 22.667,18.121 22.447,18.186 22.292 C 18.297 22.027,18.241 21.711,18.047 21.506 C 17.795 21.240,18.285 21.261,12.080 21.253 C 8.989 21.249,6.442 21.252,6.420 21.259 " stroke="none" fill-rule="evenodd" fill="black"></path></svg>