<svg width="24" height="24" viewBox="0 0 24 24" fill="none" xmlns="http://www.w3.org/2000/svg"><path d="M8.579 1.278 C 7.416 1.385,6.366 1.895,5.559 2.744 C 5.393 2.918,5.180 3.179,5.084 3.325 L 4.910 3.589 4.445 3.612 C 3.911 3.638,3.480 3.739,3.114 3.922 C 2.240 4.360,1.642 5.092,1.397 6.024 C 1.292 6.422,1.283 7.202,1.376 7.769 C 1.545 8.799,2.041 9.825,2.813 10.744 C 3.261 11.278,3.842 11.723,4.537 12.066 L 4.974 12.281 5.171 12.650 C 5.824 13.871,6.799 14.903,7.956 15.598 C 8.238 15.767,8.325 15.800,8.488 15.800 C 8.595 15.800,8.741 15.776,8.812 15.746 C 8.966 15.682,9.189 15.439,9.224 15.297 C 9.266 15.132,9.220 14.788,9.141 14.667 C 9.100 14.605,8.867 14.421,8.623 14.259 C 7.176 13.295,6.241 11.939,5.870 10.268 C 5.782 9.871,5.780 9.799,5.780 7.600 L 5.780 5.340 5.890 5.020 C 6.074 4.482,6.290 4.142,6.716 3.716 C 7.142 3.290,7.482 3.074,8.020 2.890 L 8.340 2.780 12.000 2.780 L 15.660 2.780 15.980 2.890 C 16.518 3.074,16.858 3.290,17.284 3.716 C 17.711 4.142,17.926 4.483,18.110 5.020 L 18.219 5.340 18.233 7.380 C 18.247 9.504,18.231 9.825,18.075 10.460 C 17.790 11.623,17.231 12.607,16.374 13.449 C 15.851 13.963,15.441 14.258,14.800 14.580 C 13.973 14.995,13.295 15.173,12.288 15.238 C 11.818 15.268,11.737 15.284,11.603 15.374 C 11.373 15.525,11.267 15.725,11.267 16.002 C 11.267 16.151,11.291 16.270,11.333 16.335 C 11.391 16.423,11.400 16.564,11.400 17.334 L 11.400 18.231 10.050 18.250 C 8.560 18.271,8.457 18.285,7.940 18.538 C 7.024 18.987,6.400 19.981,6.400 20.993 L 6.400 21.229 6.159 21.254 C 5.893 21.282,5.745 21.345,5.612 21.487 C 5.495 21.612,5.400 21.847,5.401 22.009 C 5.403 22.292,5.655 22.638,5.913 22.710 C 5.972 22.727,8.792 22.740,12.180 22.740 L 18.340 22.740 18.514 22.640 C 18.749 22.506,18.880 22.277,18.880 22.002 C 18.880 21.580,18.601 21.304,18.127 21.254 L 17.880 21.229 17.880 20.921 C 17.880 19.759,17.031 18.674,15.860 18.339 C 15.662 18.282,15.382 18.267,14.249 18.251 L 12.878 18.231 12.889 17.469 L 12.900 16.707 13.420 16.612 C 14.910 16.340,16.321 15.604,17.414 14.528 C 18.002 13.950,18.464 13.332,18.853 12.604 L 19.026 12.281 19.463 12.066 C 20.150 11.727,20.768 11.251,21.207 10.720 C 22.205 9.515,22.684 8.272,22.685 6.880 C 22.685 6.236,22.606 5.867,22.360 5.380 C 22.055 4.776,21.564 4.280,20.951 3.959 C 20.541 3.744,20.122 3.640,19.555 3.612 L 19.090 3.589 18.916 3.325 C 18.285 2.365,17.179 1.626,15.964 1.353 C 15.589 1.269,15.501 1.266,12.240 1.258 C 10.403 1.253,8.756 1.262,8.579 1.278 M4.180 7.370 C 4.180 8.607,4.193 9.716,4.208 9.833 C 4.246 10.112,4.207 10.096,3.880 9.692 C 3.174 8.819,2.801 7.862,2.801 6.920 C 2.801 6.338,2.930 5.997,3.291 5.627 C 3.506 5.407,3.731 5.268,4.020 5.176 C 4.108 5.148,4.180 5.124,4.180 5.123 C 4.180 5.121,4.180 6.132,4.180 7.370 M20.290 5.305 C 20.534 5.429,20.893 5.789,21.013 6.030 C 21.179 6.365,21.213 6.563,21.189 7.071 C 21.145 8.010,20.810 8.824,20.103 9.707 C 19.804 10.081,19.756 10.100,19.792 9.828 C 19.807 9.714,19.820 8.610,19.820 7.376 L 19.820 5.132 19.960 5.171 C 20.037 5.192,20.185 5.252,20.290 5.305 M15.573 19.824 C 15.675 19.859,15.851 19.969,15.962 20.069 C 16.238 20.317,16.367 20.583,16.392 20.950 L 16.411 21.240 12.141 21.240 L 7.871 21.240 7.899 20.970 C 7.944 20.534,8.129 20.195,8.439 19.981 C 8.763 19.756,8.639 19.764,12.143 19.762 C 15.007 19.760,15.408 19.767,15.573 19.824 " stroke="none" fill-rule="evenodd" fill="black"></path></svg>