<svg width="24" height="24" viewBox="0 0 24 24" fill="none" xmlns="http://www.w3.org/2000/svg"><path d="M11.500 1.882 C 10.271 2.074,9.138 2.944,8.271 4.360 C 7.885 4.991,1.902 15.797,1.759 16.122 C 1.408 16.919,1.271 17.532,1.272 18.300 C 1.272 18.767,1.289 18.924,1.372 19.243 C 1.760 20.733,2.944 21.719,4.760 22.066 C 5.115 22.134,5.564 22.139,11.700 22.151 C 16.244 22.160,18.401 22.151,18.719 22.120 C 20.619 21.939,21.939 21.072,22.502 19.636 C 22.879 18.673,22.786 17.358,22.255 16.151 C 22.043 15.669,20.865 13.580,20.736 13.455 C 20.336 13.073,19.653 13.285,19.522 13.833 C 19.483 13.995,19.483 14.068,19.523 14.188 C 19.550 14.271,19.856 14.848,20.203 15.471 C 21.022 16.939,21.181 17.349,21.226 18.100 C 21.255 18.594,21.203 18.887,21.019 19.275 C 20.648 20.057,19.744 20.541,18.469 20.640 C 17.819 20.691,6.176 20.690,5.524 20.640 C 4.555 20.564,3.864 20.301,3.377 19.820 C 2.904 19.353,2.735 18.884,2.772 18.140 C 2.812 17.334,2.942 17.010,3.982 15.130 C 6.465 10.639,9.521 5.174,9.714 4.880 C 9.839 4.690,10.107 4.373,10.321 4.160 C 10.887 3.600,11.403 3.352,12.000 3.352 C 12.735 3.352,13.457 3.786,14.076 4.600 C 14.391 5.014,14.391 5.014,16.051 8.000 C 16.864 9.463,17.563 10.707,17.604 10.765 C 17.710 10.915,17.946 11.019,18.180 11.019 C 18.748 11.019,19.075 10.483,18.831 9.954 C 18.660 9.585,15.763 4.400,15.549 4.082 C 14.790 2.950,13.872 2.228,12.855 1.961 C 12.490 1.865,11.846 1.828,11.500 1.882 M11.815 8.277 C 11.638 8.321,11.461 8.456,11.353 8.631 L 11.260 8.780 11.260 11.500 L 11.260 14.220 11.353 14.369 C 11.710 14.943,12.576 14.812,12.716 14.162 C 12.775 13.888,12.775 9.095,12.717 8.841 C 12.623 8.432,12.215 8.177,11.815 8.277 M11.689 16.059 C 11.041 16.261,10.794 17.059,11.211 17.606 C 11.569 18.074,12.274 18.119,12.693 17.701 C 13.098 17.296,13.098 16.705,12.694 16.300 C 12.422 16.028,12.063 15.942,11.689 16.059 " stroke="none" fill-rule="evenodd" fill="black"></path></svg>