<svg width="24" height="24" viewBox="0 0 24 24" fill="none" xmlns="http://www.w3.org/2000/svg"><path d="M19.660 1.278 C 18.776 1.385,18.018 1.907,17.570 2.720 C 17.503 2.841,17.428 3.006,17.403 3.086 L 17.357 3.232 15.348 3.252 C 13.157 3.274,12.986 3.289,12.361 3.517 C 11.264 3.918,10.556 4.803,10.334 6.052 C 10.238 6.592,10.233 8.131,10.326 8.300 C 10.579 8.756,11.137 8.864,11.494 8.527 C 11.724 8.309,11.734 8.259,11.763 7.220 C 11.784 6.412,11.801 6.221,11.870 6.011 C 12.087 5.346,12.514 4.970,13.227 4.819 C 13.443 4.773,13.899 4.761,15.427 4.761 L 17.354 4.760 17.401 4.910 C 17.526 5.305,17.916 5.851,18.273 6.131 C 18.818 6.558,19.315 6.731,20.000 6.731 C 21.047 6.731,21.906 6.219,22.432 5.280 C 22.832 4.566,22.832 3.434,22.432 2.720 C 21.857 1.694,20.796 1.142,19.660 1.278 M20.454 2.841 C 20.912 3.013,21.240 3.496,21.240 4.000 C 21.240 4.504,20.912 4.987,20.454 5.159 C 19.810 5.400,19.075 5.076,18.837 4.445 C 18.728 4.157,18.743 3.704,18.870 3.458 C 19.019 3.169,19.349 2.886,19.640 2.797 C 19.838 2.737,20.232 2.758,20.454 2.841 M3.660 9.278 C 2.776 9.385,2.027 9.901,1.568 10.720 C 1.168 11.434,1.168 12.566,1.568 13.280 C 2.094 14.219,2.953 14.731,4.000 14.731 C 4.685 14.731,5.182 14.558,5.727 14.131 C 6.084 13.851,6.474 13.305,6.599 12.910 L 6.646 12.760 8.439 12.760 L 10.233 12.760 10.252 15.210 C 10.272 17.887,10.280 17.990,10.517 18.639 C 10.836 19.512,11.486 20.164,12.356 20.481 C 12.987 20.711,13.154 20.726,15.348 20.748 L 17.357 20.768 17.403 20.914 C 17.581 21.481,18.111 22.090,18.720 22.432 C 19.434 22.832,20.566 22.832,21.280 22.432 C 22.219 21.906,22.731 21.047,22.731 20.000 C 22.731 18.953,22.219 18.094,21.280 17.568 C 20.566 17.168,19.434 17.168,18.720 17.568 C 18.109 17.911,17.582 18.519,17.401 19.090 L 17.354 19.240 15.427 19.239 C 13.308 19.239,13.153 19.225,12.696 19.001 C 12.401 18.856,12.112 18.559,11.976 18.262 C 11.770 17.813,11.761 17.685,11.761 15.130 L 11.760 12.760 14.557 12.760 L 17.354 12.760 17.401 12.910 C 17.582 13.481,18.109 14.089,18.720 14.432 C 19.434 14.832,20.566 14.832,21.280 14.432 C 22.219 13.906,22.731 13.047,22.731 12.000 C 22.731 10.953,22.219 10.094,21.280 9.568 C 20.566 9.168,19.434 9.168,18.720 9.568 C 18.109 9.911,17.582 10.519,17.401 11.090 L 17.354 11.240 12.000 11.240 L 6.646 11.240 6.599 11.090 C 6.573 11.008,6.497 10.841,6.430 10.720 C 5.867 9.700,4.796 9.142,3.660 9.278 M4.454 10.841 C 4.744 10.950,5.050 11.256,5.159 11.546 C 5.467 12.369,4.871 13.240,4.000 13.240 C 3.492 13.240,3.014 12.913,2.837 12.445 C 2.728 12.157,2.743 11.704,2.870 11.458 C 3.019 11.169,3.349 10.886,3.640 10.797 C 3.838 10.737,4.232 10.758,4.454 10.841 M20.454 10.841 C 20.744 10.950,21.050 11.256,21.159 11.546 C 21.335 12.017,21.227 12.521,20.874 12.874 C 20.381 13.368,19.619 13.368,19.126 12.874 C 18.847 12.596,18.746 12.325,18.769 11.920 C 18.790 11.567,18.876 11.373,19.124 11.125 C 19.397 10.853,19.597 10.769,19.988 10.763 C 20.148 10.761,20.315 10.789,20.454 10.841 M20.454 18.841 C 20.744 18.950,21.050 19.256,21.159 19.546 C 21.335 20.017,21.227 20.521,20.874 20.874 C 20.629 21.120,20.342 21.240,20.000 21.240 C 19.492 21.240,19.014 20.913,18.837 20.445 C 18.728 20.157,18.743 19.704,18.870 19.458 C 19.019 19.169,19.349 18.886,19.640 18.797 C 19.838 18.737,20.232 18.758,20.454 18.841 " stroke="none" fill-rule="evenodd" fill="black"></path></svg>