<svg width="24" height="24" viewBox="0 0 24 24" fill="none" xmlns="http://www.w3.org/2000/svg"><path d="M7.920 1.281 C 7.168 1.370,6.491 1.718,5.719 2.411 C 5.255 2.827,2.485 5.615,2.232 5.920 C 1.780 6.465,1.451 7.100,1.333 7.655 C 1.248 8.056,1.280 8.802,1.400 9.180 C 1.574 9.727,1.862 10.216,2.336 10.770 C 2.634 11.117,2.832 11.240,3.096 11.240 C 3.538 11.240,3.840 10.939,3.840 10.499 C 3.840 10.269,3.765 10.123,3.492 9.821 C 3.216 9.515,3.010 9.205,2.882 8.900 C 2.743 8.571,2.740 8.010,2.876 7.681 C 3.074 7.200,3.305 6.930,4.898 5.325 C 6.757 3.450,7.060 3.175,7.517 2.948 C 7.849 2.783,7.860 2.780,8.277 2.780 C 8.681 2.780,8.714 2.787,9.000 2.924 C 9.342 3.089,9.690 3.342,9.979 3.637 L 10.178 3.841 8.595 5.430 C 7.724 6.305,6.973 7.077,6.926 7.147 C 6.757 7.394,6.774 7.775,6.966 8.019 C 7.155 8.258,7.560 8.348,7.871 8.218 C 8.034 8.150,11.571 4.655,11.828 4.308 C 12.002 4.072,12.040 3.838,11.945 3.588 C 11.863 3.373,10.862 2.370,10.364 2.004 C 9.593 1.436,8.739 1.183,7.920 1.281 M20.300 1.267 C 19.906 1.301,19.239 1.560,18.157 2.102 C 17.475 2.443,17.335 2.569,17.262 2.907 C 17.202 3.187,17.425 3.588,17.708 3.706 C 17.979 3.819,18.131 3.782,18.858 3.425 C 20.249 2.742,20.528 2.660,20.826 2.843 C 20.992 2.947,21.160 3.224,21.160 3.396 C 21.160 3.654,20.460 5.173,19.831 6.280 C 18.670 8.321,16.997 10.624,15.290 12.532 C 15.037 12.814,14.822 13.035,14.811 13.025 C 14.800 13.014,14.742 12.864,14.681 12.692 C 14.508 12.199,14.348 11.876,14.068 11.453 C 13.388 10.426,12.407 9.675,11.225 9.275 L 10.829 9.142 11.065 8.927 C 12.116 7.970,13.215 7.068,14.300 6.271 C 15.055 5.717,15.158 5.596,15.159 5.269 C 15.160 5.019,15.086 4.848,14.907 4.691 C 14.745 4.549,14.561 4.500,14.300 4.530 C 14.154 4.546,14.015 4.629,13.472 5.024 C 12.693 5.592,11.597 6.465,10.800 7.155 C 10.109 7.753,8.630 9.219,8.153 9.780 C 7.445 10.612,5.834 12.677,5.791 12.808 C 5.783 12.831,5.677 12.865,5.554 12.884 C 5.184 12.942,4.641 13.115,4.257 13.297 C 2.890 13.943,1.956 15.101,1.621 16.565 C 1.550 16.876,1.240 19.624,1.240 19.944 C 1.240 20.508,1.518 21.261,1.894 21.714 C 2.390 22.313,3.126 22.692,3.900 22.745 C 4.233 22.768,6.446 22.546,7.176 22.417 C 9.206 22.057,10.742 20.505,11.100 18.452 C 11.133 18.263,11.160 18.105,11.160 18.099 C 11.160 18.093,11.243 18.039,11.345 17.979 C 11.536 17.867,13.181 16.567,14.020 15.864 C 16.691 13.626,20.022 9.309,21.772 5.817 C 22.119 5.123,22.503 4.231,22.578 3.940 C 22.710 3.434,22.620 2.778,22.359 2.341 C 21.926 1.619,21.118 1.197,20.300 1.267 M10.420 10.600 C 11.720 10.900,12.818 11.886,13.257 13.145 C 13.374 13.479,13.480 13.980,13.480 14.195 C 13.480 14.384,13.471 14.393,12.005 15.576 L 11.030 16.363 10.932 16.072 C 10.507 14.810,9.408 13.659,8.131 13.137 C 7.894 13.040,7.669 12.961,7.630 12.960 C 7.591 12.960,7.560 12.949,7.560 12.936 C 7.560 12.901,8.833 11.294,9.214 10.847 L 9.533 10.473 9.816 10.500 C 9.972 10.514,10.244 10.559,10.420 10.600 M19.900 12.007 C 19.763 12.043,19.504 12.285,18.114 13.675 C 16.560 15.227,16.486 15.308,16.449 15.490 C 16.329 16.070,16.771 16.511,17.350 16.391 C 17.530 16.353,17.610 16.281,18.833 15.066 L 20.126 13.780 20.417 14.086 C 20.759 14.447,20.969 14.752,21.110 15.093 C 21.249 15.427,21.256 15.915,21.126 16.246 C 20.933 16.737,20.765 16.928,18.807 18.881 C 17.122 20.561,16.865 20.802,16.596 20.952 C 15.755 21.422,15.023 21.273,14.111 20.447 C 13.805 20.170,13.620 20.096,13.339 20.138 C 13.185 20.161,13.114 20.202,12.958 20.358 C 12.735 20.581,12.674 20.807,12.758 21.094 C 12.894 21.554,14.124 22.418,14.940 22.624 C 15.324 22.722,16.045 22.722,16.420 22.625 C 16.823 22.522,17.447 22.205,17.840 21.906 C 18.335 21.528,21.766 18.066,22.030 17.677 C 22.307 17.268,22.498 16.878,22.608 16.497 C 22.726 16.086,22.735 15.319,22.626 14.920 C 22.528 14.559,22.204 13.914,21.954 13.580 C 21.677 13.211,20.624 12.141,20.465 12.065 C 20.284 11.980,20.083 11.960,19.900 12.007 M7.369 14.467 C 8.423 14.837,9.294 15.760,9.566 16.794 C 9.678 17.220,9.688 18.110,9.586 18.480 C 9.260 19.656,8.365 20.568,7.233 20.879 C 7.059 20.927,6.338 21.027,5.509 21.120 C 3.978 21.290,3.813 21.290,3.477 21.119 C 3.115 20.934,2.797 20.484,2.741 20.080 C 2.711 19.863,3.010 17.147,3.104 16.786 C 3.360 15.796,4.087 14.967,5.051 14.566 C 5.519 14.372,5.828 14.321,6.460 14.333 C 6.966 14.344,7.054 14.356,7.369 14.467 " stroke="none" fill-rule="evenodd" fill="black"></path></svg>