<svg width="24" height="24" viewBox="0 0 24 24" fill="none" xmlns="http://www.w3.org/2000/svg"><path d="M5.180 1.282 C 2.827 1.405,1.720 2.261,1.380 4.220 C 1.308 4.633,1.231 5.939,1.266 6.131 C 1.412 6.911,2.550 6.936,2.716 6.162 C 2.740 6.049,2.760 5.778,2.760 5.560 C 2.760 4.775,2.917 3.965,3.143 3.579 C 3.393 3.153,3.846 2.933,4.710 2.820 C 5.391 2.730,16.613 2.731,17.294 2.820 C 18.887 3.029,19.240 3.621,19.240 6.080 L 19.240 6.996 16.550 7.011 C 14.152 7.024,13.827 7.033,13.560 7.096 C 12.340 7.384,11.647 8.077,11.380 9.280 C 11.337 9.475,11.306 9.856,11.292 10.370 L 11.270 11.160 7.019 11.160 L 2.768 11.160 2.754 10.510 C 2.741 9.891,2.735 9.851,2.634 9.680 C 2.348 9.194,1.652 9.194,1.366 9.680 L 1.260 9.860 1.263 11.220 C 1.265 12.616,1.300 13.119,1.440 13.768 C 1.770 15.296,2.715 16.105,4.471 16.363 C 4.644 16.389,5.542 16.417,6.510 16.428 L 8.240 16.448 8.240 17.841 L 8.240 19.235 6.990 19.247 C 5.642 19.261,5.620 19.264,5.412 19.487 C 5.297 19.609,5.200 19.845,5.200 20.000 C 5.200 20.255,5.378 20.540,5.620 20.674 C 5.728 20.733,6.028 20.741,8.600 20.752 L 11.460 20.763 11.554 21.012 C 11.858 21.813,12.491 22.356,13.388 22.583 C 13.959 22.728,14.611 22.759,17.020 22.758 C 19.245 22.758,19.966 22.729,20.474 22.622 C 21.340 22.438,21.968 21.997,22.311 21.328 C 22.505 20.952,22.577 20.733,22.669 20.240 C 22.735 19.889,22.740 19.479,22.740 14.880 C 22.740 10.282,22.735 9.871,22.669 9.520 C 22.519 8.714,22.315 8.275,21.900 7.859 C 21.625 7.584,21.252 7.351,20.910 7.242 L 20.760 7.194 20.759 6.607 C 20.757 5.751,20.692 4.634,20.620 4.220 C 20.329 2.545,19.455 1.670,17.780 1.380 C 17.582 1.345,17.105 1.300,16.720 1.280 C 15.911 1.236,6.017 1.238,5.180 1.282 M19.639 8.521 C 20.726 8.605,21.060 8.878,21.202 9.797 C 21.228 9.968,21.238 11.809,21.231 15.040 C 21.220 19.666,21.214 20.037,21.148 20.260 C 21.000 20.762,20.760 21.001,20.260 21.147 C 20.043 21.210,19.743 21.219,17.182 21.230 C 15.370 21.239,14.247 21.229,14.078 21.202 C 13.208 21.067,12.907 20.737,12.799 19.797 C 12.746 19.336,12.748 10.632,12.801 10.071 C 12.866 9.381,13.018 8.999,13.304 8.803 C 13.492 8.674,13.884 8.562,14.278 8.524 C 14.765 8.477,19.042 8.474,19.639 8.521 M16.500 9.896 C 16.090 10.026,15.680 10.344,15.444 10.715 C 15.105 11.248,15.105 12.072,15.444 12.605 C 15.623 12.886,15.968 13.189,16.270 13.330 C 16.636 13.502,17.137 13.531,17.553 13.405 C 18.302 13.178,18.839 12.448,18.839 11.660 C 18.839 10.881,18.304 10.146,17.572 9.920 C 17.271 9.828,16.753 9.816,16.500 9.896 M17.222 11.458 C 17.276 11.512,17.320 11.603,17.320 11.660 C 17.320 11.717,17.276 11.808,17.222 11.862 C 17.026 12.057,16.720 11.934,16.720 11.660 C 16.720 11.386,17.026 11.263,17.222 11.458 M11.280 13.800 L 11.280 14.960 8.410 14.960 C 5.016 14.959,4.566 14.933,3.888 14.693 C 3.506 14.559,3.216 14.301,3.062 13.958 C 2.941 13.688,2.801 13.075,2.801 12.810 L 2.800 12.640 7.040 12.640 L 11.280 12.640 11.280 13.800 M16.420 14.177 C 15.487 14.392,14.750 14.994,14.358 15.858 C 14.011 16.624,14.054 17.647,14.466 18.391 C 15.044 19.434,16.158 20.012,17.336 19.878 C 18.047 19.797,18.510 19.570,19.040 19.040 C 19.567 18.513,19.799 18.045,19.877 17.345 C 20.031 15.976,19.196 14.671,17.900 14.254 C 17.503 14.126,16.797 14.089,16.420 14.177 M17.498 15.723 C 17.769 15.824,18.108 16.124,18.231 16.371 C 18.505 16.919,18.406 17.556,17.981 17.981 C 17.423 18.539,16.554 18.522,16.005 17.941 C 15.731 17.652,15.627 17.358,15.650 16.940 C 15.671 16.542,15.780 16.298,16.060 16.016 C 16.422 15.652,16.996 15.535,17.498 15.723 M11.280 17.840 L 11.280 19.240 10.520 19.240 L 9.760 19.240 9.760 17.840 L 9.760 16.440 10.520 16.440 L 11.280 16.440 11.280 17.840 " stroke="none" fill-rule="evenodd" fill="black"></path></svg>