<svg width="24" height="24" viewBox="0 0 24 24" fill="none" xmlns="http://www.w3.org/2000/svg"><path d="M11.740 1.284 C 11.099 1.341,10.415 1.584,9.880 1.942 C 9.537 2.173,9.068 2.657,8.866 2.990 L 8.714 3.240 7.647 3.241 C 5.563 3.242,4.758 3.359,3.815 3.798 C 2.541 4.392,1.692 5.545,1.383 7.100 C 1.303 7.501,1.237 8.470,1.277 8.648 C 1.406 9.219,2.079 9.440,2.494 9.047 C 2.692 8.860,2.726 8.744,2.764 8.140 C 2.808 7.430,2.934 6.910,3.186 6.401 C 3.450 5.866,3.866 5.450,4.401 5.186 C 4.609 5.083,4.960 4.951,5.180 4.892 C 5.567 4.790,5.625 4.786,6.920 4.770 L 8.260 4.753 8.260 7.226 C 8.260 9.944,8.264 10.004,8.503 10.674 C 8.792 11.488,9.344 12.161,10.086 12.605 C 10.381 12.782,11.003 13.018,11.285 13.060 L 11.469 13.087 11.490 13.600 C 11.507 14.035,11.525 14.145,11.612 14.333 C 11.754 14.643,12.001 14.896,12.314 15.050 C 12.548 15.165,12.615 15.180,12.899 15.178 C 13.156 15.176,13.265 15.155,13.445 15.072 C 13.569 15.015,14.277 14.563,15.019 14.066 L 16.368 13.164 17.804 13.152 L 19.240 13.140 19.239 13.800 C 19.239 14.163,19.220 14.586,19.198 14.740 C 18.981 16.256,18.236 17.124,16.820 17.511 L 16.420 17.620 11.000 17.620 L 5.580 17.620 5.180 17.511 C 3.764 17.124,3.019 16.256,2.802 14.740 C 2.780 14.586,2.761 14.006,2.761 13.452 C 2.760 12.266,2.734 12.094,2.522 11.882 C 2.173 11.533,1.619 11.603,1.353 12.031 C 1.266 12.170,1.259 12.229,1.246 12.909 C 1.213 14.645,1.369 15.675,1.801 16.582 C 2.320 17.669,3.222 18.454,4.390 18.834 C 5.215 19.103,5.905 19.159,8.410 19.159 L 10.240 19.160 10.240 20.200 L 10.240 21.240 8.842 21.240 C 7.972 21.240,7.366 21.257,7.238 21.284 C 6.473 21.448,6.481 22.558,7.248 22.717 C 7.399 22.749,8.546 22.759,11.121 22.751 C 14.744 22.740,14.782 22.739,14.940 22.656 C 15.028 22.610,15.152 22.499,15.217 22.408 C 15.314 22.270,15.333 22.203,15.333 22.007 C 15.333 21.721,15.228 21.526,14.988 21.367 L 14.826 21.260 13.293 21.248 L 11.760 21.236 11.760 20.198 L 11.760 19.160 13.590 19.159 C 16.095 19.159,16.785 19.103,17.610 18.834 C 19.211 18.313,20.265 17.075,20.617 15.300 C 20.696 14.902,20.759 14.000,20.759 13.253 L 20.760 12.686 21.008 12.535 C 21.534 12.216,22.095 11.571,22.365 10.976 C 22.701 10.235,22.843 9.138,22.650 8.779 C 22.542 8.579,22.235 8.400,22.000 8.400 C 21.748 8.400,21.454 8.581,21.335 8.811 C 21.303 8.872,21.260 9.116,21.239 9.352 C 21.175 10.078,21.003 10.503,20.595 10.939 C 20.408 11.139,20.273 11.239,20.025 11.359 C 19.494 11.618,19.298 11.640,17.560 11.640 C 16.358 11.640,16.010 11.652,15.906 11.695 C 15.833 11.725,15.151 12.166,14.389 12.674 L 13.005 13.597 12.992 12.861 C 12.979 12.044,12.976 12.035,12.671 11.789 C 12.542 11.684,12.487 11.669,12.094 11.637 C 11.296 11.572,10.870 11.399,10.430 10.959 C 10.237 10.766,10.120 10.603,10.019 10.392 C 9.764 9.854,9.755 9.736,9.770 7.054 C 9.786 4.439,9.780 4.502,10.030 3.967 C 10.187 3.630,10.634 3.197,11.006 3.020 C 11.562 2.756,11.468 2.761,15.524 2.761 C 19.025 2.760,19.201 2.763,19.492 2.838 C 19.915 2.946,20.216 3.103,20.495 3.360 C 20.956 3.786,21.179 4.289,21.240 5.042 C 21.286 5.612,21.387 5.795,21.729 5.938 C 21.992 6.048,22.298 5.989,22.513 5.788 C 22.724 5.591,22.767 5.391,22.717 4.822 C 22.590 3.367,21.848 2.248,20.620 1.661 C 20.163 1.442,19.741 1.333,19.160 1.281 C 18.615 1.233,12.275 1.235,11.740 1.284 M12.579 6.576 C 12.409 6.650,12.209 6.892,12.177 7.062 C 12.110 7.422,12.270 7.770,12.570 7.915 C 13.144 8.193,13.744 7.707,13.623 7.062 C 13.590 6.888,13.388 6.648,13.212 6.574 C 13.049 6.506,12.737 6.507,12.579 6.576 M15.380 6.577 C 14.868 6.805,14.811 7.555,15.282 7.866 C 15.853 8.244,16.552 7.751,16.423 7.062 C 16.390 6.888,16.188 6.648,16.012 6.574 C 15.848 6.506,15.536 6.507,15.380 6.577 M18.179 6.576 C 18.009 6.650,17.809 6.892,17.777 7.062 C 17.710 7.422,17.870 7.770,18.170 7.915 C 18.744 8.193,19.344 7.707,19.223 7.062 C 19.190 6.888,18.988 6.648,18.812 6.574 C 18.649 6.506,18.337 6.507,18.179 6.576 " stroke="none" fill-rule="evenodd" fill="black"></path></svg>