<svg width="24" height="24" viewBox="0 0 24 24" fill="none" xmlns="http://www.w3.org/2000/svg"><path d="M11.789 2.682 C 11.068 2.801,10.654 3.638,10.983 4.310 C 11.339 5.038,12.378 5.150,12.881 4.514 C 12.967 4.405,13.056 4.250,13.078 4.168 C 13.134 3.967,13.128 3.571,13.065 3.396 C 12.947 3.066,12.584 2.749,12.268 2.700 C 12.176 2.686,12.073 2.669,12.040 2.662 C 12.007 2.656,11.894 2.665,11.789 2.682 M12.082 3.742 C 12.124 3.793,12.122 3.816,12.067 3.871 C 12.004 3.933,11.996 3.933,11.933 3.871 C 11.878 3.816,11.876 3.793,11.918 3.742 C 11.947 3.708,11.983 3.680,12.000 3.680 C 12.017 3.680,12.053 3.708,12.082 3.742 M4.801 5.549 C 4.554 5.637,4.233 5.965,4.147 6.217 C 3.956 6.778,4.182 7.363,4.694 7.631 C 4.974 7.777,5.451 7.786,5.709 7.649 C 6.118 7.432,6.333 7.078,6.333 6.620 C 6.333 6.282,6.238 6.041,6.019 5.822 C 5.702 5.504,5.229 5.399,4.801 5.549 M18.337 5.575 C 17.906 5.776,17.668 6.147,17.666 6.620 C 17.664 7.081,17.906 7.466,18.317 7.655 C 18.590 7.779,19.035 7.773,19.295 7.640 C 19.991 7.285,20.136 6.370,19.583 5.817 C 19.242 5.476,18.753 5.382,18.337 5.575 M5.240 6.562 C 5.240 6.586,5.258 6.594,5.280 6.580 C 5.302 6.566,5.320 6.584,5.320 6.619 C 5.320 6.705,5.213 6.741,5.139 6.679 C 5.093 6.641,5.090 6.616,5.124 6.575 C 5.178 6.510,5.240 6.503,5.240 6.562 M18.872 6.611 C 18.888 6.693,18.773 6.749,18.712 6.688 C 18.651 6.627,18.707 6.512,18.789 6.528 C 18.828 6.535,18.865 6.572,18.872 6.611 M18.720 6.575 C 18.720 6.583,18.752 6.615,18.790 6.645 C 18.853 6.695,18.855 6.693,18.805 6.630 C 18.753 6.563,18.720 6.542,18.720 6.575 M11.380 7.428 C 9.910 7.619,8.741 8.179,7.758 9.162 C 6.826 10.094,6.243 11.260,6.043 12.588 C 5.953 13.189,6.007 14.258,6.158 14.840 C 6.676 16.846,8.101 18.410,10.020 19.079 C 10.574 19.272,10.975 19.354,11.580 19.397 C 12.817 19.485,14.077 19.185,15.110 18.555 C 16.424 17.753,17.429 16.406,17.805 14.942 C 17.982 14.254,18.055 13.390,17.957 13.133 C 17.905 12.995,17.737 12.812,17.592 12.736 C 17.452 12.663,17.067 12.664,16.924 12.738 C 16.758 12.824,16.567 13.060,16.543 13.209 C 16.531 13.281,16.501 13.555,16.477 13.817 C 16.377 14.903,15.955 15.804,15.181 16.582 C 13.452 18.319,10.733 18.370,8.928 16.699 C 7.726 15.586,7.209 13.802,7.640 12.251 C 8.005 10.933,8.957 9.825,10.189 9.285 C 11.711 8.617,13.559 8.856,14.782 9.879 C 15.333 10.340,15.423 10.399,15.613 10.425 C 16.233 10.510,16.678 9.832,16.355 9.295 C 16.252 9.124,15.734 8.682,15.300 8.394 C 14.299 7.730,13.144 7.390,11.947 7.406 C 11.701 7.409,11.446 7.419,11.380 7.428 M2.018 12.333 C 1.467 12.545,1.179 13.053,1.284 13.625 C 1.419 14.354,2.221 14.754,2.891 14.426 C 3.151 14.299,3.293 14.147,3.431 13.846 C 3.515 13.663,3.527 13.589,3.511 13.346 C 3.482 12.894,3.244 12.545,2.840 12.363 C 2.636 12.271,2.219 12.256,2.018 12.333 M21.216 12.331 C 20.426 12.641,20.210 13.699,20.826 14.240 C 21.168 14.540,21.660 14.621,22.061 14.444 C 22.473 14.261,22.685 13.948,22.712 13.479 C 22.727 13.210,22.716 13.139,22.630 12.952 C 22.519 12.707,22.306 12.481,22.087 12.375 C 21.907 12.287,21.394 12.261,21.216 12.331 M11.660 12.746 C 11.485 12.837,9.848 14.474,9.757 14.648 C 9.586 14.977,9.698 15.425,10.002 15.626 C 10.197 15.755,10.546 15.776,10.740 15.671 C 10.806 15.635,11.268 15.195,11.767 14.693 C 12.554 13.900,12.679 13.757,12.720 13.604 C 12.849 13.116,12.503 12.678,11.992 12.682 C 11.875 12.682,11.726 12.711,11.660 12.746 M21.678 13.356 C 21.739 13.469,21.622 13.559,21.531 13.469 C 21.478 13.415,21.476 13.393,21.518 13.342 C 21.586 13.260,21.629 13.264,21.678 13.356 M2.466 13.380 C 2.484 13.436,2.410 13.543,2.376 13.510 C 2.361 13.494,2.374 13.450,2.404 13.411 C 2.455 13.346,2.454 13.345,2.389 13.396 C 2.312 13.456,2.255 13.433,2.300 13.360 C 2.332 13.308,2.448 13.322,2.466 13.380 M4.985 19.083 C 4.607 19.145,4.221 19.507,4.115 19.898 C 4.055 20.120,4.092 20.509,4.193 20.707 C 4.389 21.090,4.778 21.325,5.216 21.325 C 5.857 21.325,6.332 20.846,6.332 20.200 C 6.332 19.470,5.720 18.962,4.985 19.083 M18.574 19.083 C 17.958 19.200,17.562 19.794,17.680 20.420 C 17.734 20.701,17.875 20.927,18.113 21.108 C 18.330 21.273,18.550 21.332,18.879 21.312 C 19.472 21.276,19.871 20.867,19.911 20.254 C 19.927 20.011,19.915 19.937,19.831 19.752 C 19.601 19.250,19.099 18.982,18.574 19.083 M5.240 20.112 C 5.240 20.130,5.218 20.169,5.190 20.200 C 5.147 20.248,5.150 20.248,5.211 20.202 C 5.300 20.135,5.349 20.177,5.279 20.261 C 5.233 20.316,5.220 20.317,5.168 20.265 C 5.107 20.204,5.127 20.080,5.199 20.080 C 5.221 20.080,5.240 20.094,5.240 20.112 M18.867 20.143 C 18.880 20.178,18.864 20.233,18.832 20.265 C 18.780 20.317,18.767 20.316,18.721 20.261 C 18.651 20.177,18.700 20.135,18.789 20.202 C 18.850 20.248,18.853 20.248,18.810 20.200 C 18.782 20.169,18.760 20.130,18.760 20.112 C 18.760 20.055,18.842 20.078,18.867 20.143 " stroke="none" fill-rule="evenodd" fill="black"></path></svg>