<svg width="24" height="24" viewBox="0 0 24 24" fill="none" xmlns="http://www.w3.org/2000/svg"><path d="M1.815 1.277 C 1.638 1.321,1.461 1.456,1.353 1.631 L 1.260 1.780 1.249 10.340 C 1.237 18.980,1.244 19.427,1.382 19.972 C 1.468 20.313,1.792 20.967,2.031 21.281 C 2.501 21.901,3.288 22.427,4.028 22.617 C 4.546 22.751,5.056 22.763,9.640 22.751 C 14.646 22.739,14.277 22.758,14.527 22.494 C 14.789 22.217,14.789 21.783,14.527 21.506 C 14.277 21.242,14.678 21.262,9.320 21.240 L 4.460 21.220 4.234 21.129 C 3.713 20.918,3.258 20.518,3.010 20.054 C 2.742 19.549,2.760 20.235,2.759 10.682 C 2.758 4.873,2.744 1.961,2.717 1.841 C 2.623 1.432,2.215 1.177,1.815 1.277 M20.795 6.286 C 20.595 6.341,20.483 6.447,19.862 7.177 C 19.283 7.857,19.210 7.993,19.258 8.298 C 19.335 8.785,19.882 9.064,20.321 8.840 C 20.424 8.787,20.661 8.547,21.004 8.150 C 21.689 7.355,21.730 7.292,21.734 7.029 C 21.741 6.519,21.280 6.154,20.795 6.286 M10.500 10.266 C 10.115 10.347,9.627 10.592,9.342 10.847 C 9.101 11.062,4.559 16.328,4.367 16.615 C 4.159 16.925,4.261 17.383,4.591 17.615 C 4.789 17.756,5.095 17.776,5.327 17.664 C 5.435 17.612,6.066 16.903,7.706 14.987 C 10.192 12.084,10.318 11.943,10.529 11.836 C 10.897 11.648,11.395 11.655,11.720 11.852 C 11.797 11.899,12.184 12.253,12.580 12.639 C 13.220 13.264,13.338 13.360,13.640 13.512 C 14.041 13.713,14.412 13.799,14.880 13.799 C 15.583 13.799,16.227 13.557,16.700 13.114 C 16.994 12.839,18.104 11.544,18.212 11.350 C 18.323 11.151,18.291 10.774,18.146 10.584 C 17.919 10.287,17.525 10.197,17.206 10.370 C 17.096 10.430,16.865 10.668,16.517 11.080 C 15.587 12.180,15.441 12.290,14.900 12.297 C 14.420 12.302,14.314 12.239,13.540 11.482 C 13.166 11.116,12.774 10.758,12.669 10.686 C 12.046 10.259,11.256 10.106,10.500 10.266 M17.814 21.277 C 17.156 21.439,17.023 22.307,17.606 22.640 L 17.780 22.740 19.980 22.740 C 22.134 22.740,22.183 22.738,22.340 22.656 C 22.428 22.610,22.553 22.499,22.617 22.408 C 22.714 22.270,22.733 22.203,22.733 22.003 C 22.733 21.718,22.615 21.506,22.373 21.355 L 22.220 21.260 20.080 21.253 C 18.903 21.250,17.883 21.260,17.814 21.277 " stroke="none" fill-rule="evenodd" fill="black"></path></svg>