<svg width="24" height="24" viewBox="0 0 24 24" fill="none" xmlns="http://www.w3.org/2000/svg"><path d="M7.060 1.444 C 5.881 1.595,4.993 2.179,4.391 3.200 C 4.182 3.554,1.549 9.452,1.417 9.861 C 1.063 10.960,1.323 12.533,2.010 13.446 C 2.270 13.791,9.219 21.417,9.454 21.614 C 9.901 21.989,10.389 22.256,10.948 22.428 C 11.272 22.527,11.355 22.536,12.000 22.538 C 12.575 22.539,12.746 22.525,12.960 22.463 C 13.627 22.266,14.154 21.978,14.610 21.560 C 14.966 21.234,18.961 16.830,19.048 16.667 C 19.126 16.522,19.140 16.219,19.077 16.053 C 19.025 15.915,18.857 15.732,18.712 15.656 C 18.568 15.581,18.224 15.585,18.060 15.663 C 17.977 15.702,17.225 16.500,16.054 17.793 C 15.023 18.929,14.018 20.028,13.820 20.234 C 13.395 20.676,13.067 20.886,12.622 20.999 C 11.874 21.191,11.128 21.037,10.536 20.569 C 10.283 20.369,3.352 12.755,3.151 12.456 C 3.069 12.334,2.953 12.087,2.892 11.907 C 2.794 11.612,2.783 11.523,2.782 11.000 L 2.780 10.420 2.997 9.920 C 3.116 9.645,3.282 9.271,3.365 9.090 L 3.516 8.760 12.003 8.770 L 20.490 8.780 20.807 9.495 C 21.179 10.336,21.240 10.545,21.240 10.986 C 21.240 11.586,21.072 12.158,20.781 12.555 C 20.535 12.888,20.480 13.010,20.480 13.219 C 20.480 13.660,20.782 13.960,21.227 13.960 C 21.481 13.960,21.657 13.863,21.864 13.609 C 22.439 12.903,22.735 11.992,22.730 10.940 C 22.729 10.521,22.710 10.350,22.631 10.060 C 22.508 9.599,19.840 3.587,19.551 3.118 C 19.148 2.461,18.536 1.935,17.888 1.686 C 17.171 1.410,17.496 1.425,12.160 1.416 C 9.509 1.412,7.214 1.425,7.060 1.444 M16.980 2.958 C 17.556 3.107,18.037 3.468,18.313 3.959 C 18.393 4.103,18.760 4.895,19.128 5.720 L 19.797 7.220 12.012 7.230 C 7.730 7.236,4.221 7.234,4.213 7.226 C 4.183 7.197,5.606 4.055,5.741 3.851 C 6.119 3.282,6.595 3.001,7.316 2.922 C 7.483 2.904,9.681 2.893,12.200 2.897 C 15.791 2.904,16.823 2.917,16.980 2.958 " stroke="none" fill-rule="evenodd" fill="black"></path></svg>