<svg width="24" height="24" viewBox="0 0 24 24" fill="none" xmlns="http://www.w3.org/2000/svg"><path d="M8.080 1.282 C 4.041 1.493,1.932 3.264,1.398 6.893 C 1.267 7.783,1.234 8.922,1.248 12.160 L 1.260 15.220 1.353 15.369 C 1.710 15.943,2.576 15.812,2.716 15.162 C 2.740 15.049,2.760 14.686,2.760 14.356 L 2.760 13.757 4.450 13.768 L 6.140 13.780 6.353 13.898 C 6.470 13.963,6.619 14.076,6.684 14.151 C 6.749 14.225,7.029 14.739,7.306 15.293 C 7.582 15.847,7.889 16.421,7.986 16.568 C 8.338 17.099,8.904 17.504,9.520 17.664 C 9.741 17.722,10.065 17.734,11.693 17.749 C 14.121 17.771,14.511 17.732,15.080 17.406 C 15.761 17.016,15.941 16.784,16.644 15.390 C 16.951 14.779,17.258 14.217,17.325 14.141 C 17.392 14.064,17.566 13.943,17.712 13.871 L 17.978 13.740 19.613 13.728 L 21.249 13.715 21.229 15.028 C 21.213 16.087,21.194 16.440,21.127 16.860 C 20.697 19.571,19.534 20.713,16.760 21.148 C 16.338 21.214,15.946 21.220,12.000 21.220 C 8.067 21.220,7.660 21.214,7.227 21.148 C 6.260 21.001,5.442 20.740,4.868 20.393 C 4.322 20.063,3.719 19.400,3.421 18.800 C 3.226 18.409,3.038 18.270,2.701 18.267 C 2.270 18.263,1.959 18.573,1.961 19.004 C 1.961 19.186,1.993 19.280,2.161 19.596 C 2.984 21.146,4.352 22.100,6.323 22.498 C 7.418 22.719,7.624 22.729,11.367 22.749 C 16.346 22.776,17.231 22.714,18.644 22.242 C 20.471 21.631,21.631 20.471,22.242 18.644 C 22.523 17.802,22.654 17.020,22.718 15.798 C 22.775 14.718,22.773 10.105,22.716 9.838 C 22.576 9.184,21.712 9.053,21.353 9.631 C 21.262 9.777,21.260 9.804,21.247 11.010 L 21.235 12.240 19.647 12.241 C 17.602 12.243,17.347 12.286,16.686 12.738 C 16.180 13.083,16.000 13.336,15.359 14.605 C 15.049 15.220,14.743 15.782,14.680 15.854 C 14.617 15.926,14.470 16.037,14.353 16.102 L 14.140 16.220 12.064 16.231 C 9.730 16.244,9.755 16.247,9.425 15.956 C 9.269 15.819,9.160 15.632,8.663 14.648 C 8.045 13.424,7.832 13.104,7.455 12.836 C 6.972 12.492,6.596 12.343,6.052 12.281 C 5.858 12.259,5.037 12.241,4.227 12.240 L 2.754 12.240 2.770 9.930 C 2.784 8.010,2.799 7.549,2.855 7.200 C 3.300 4.441,4.439 3.303,7.200 2.855 C 7.561 2.796,8.078 2.783,10.900 2.763 C 14.010 2.741,14.188 2.736,14.332 2.664 C 14.928 2.368,14.832 1.448,14.189 1.286 C 13.979 1.234,9.077 1.230,8.080 1.282 M18.595 1.281 C 17.580 1.395,16.634 1.925,16.031 2.719 C 15.793 3.032,15.468 3.687,15.382 4.025 C 15.231 4.624,15.231 5.376,15.382 5.975 C 15.468 6.313,15.793 6.968,16.031 7.281 C 16.397 7.763,16.848 8.118,17.452 8.400 C 18.040 8.675,18.707 8.785,19.365 8.717 C 19.846 8.668,20.150 8.586,20.548 8.400 C 21.403 8.001,21.954 7.460,22.361 6.620 C 22.584 6.161,22.664 5.879,22.717 5.368 C 22.779 4.774,22.655 3.911,22.467 3.625 C 22.284 3.347,21.903 3.213,21.587 3.318 C 21.401 3.379,21.176 3.632,21.119 3.844 C 21.081 3.986,21.087 4.066,21.157 4.345 C 21.377 5.224,21.183 5.980,20.581 6.581 C 20.121 7.041,19.644 7.240,19.000 7.240 C 18.356 7.240,17.879 7.041,17.419 6.581 C 16.959 6.121,16.760 5.644,16.760 5.000 C 16.760 4.355,16.960 3.871,17.416 3.416 C 17.813 3.018,18.361 2.760,18.806 2.760 C 19.294 2.760,19.634 2.543,19.711 2.183 C 19.786 1.835,19.633 1.482,19.350 1.347 C 19.165 1.260,18.955 1.241,18.595 1.281 " stroke="none" fill-rule="evenodd" fill="black"></path></svg>