<svg width="24" height="24" viewBox="0 0 24 24" fill="none" xmlns="http://www.w3.org/2000/svg"><path d="M11.815 1.277 C 11.638 1.321,11.461 1.456,11.353 1.631 L 11.260 1.780 11.249 4.476 L 11.237 7.173 10.829 6.772 C 10.604 6.552,10.375 6.348,10.320 6.319 C 10.155 6.232,9.794 6.253,9.623 6.358 C 9.389 6.503,9.267 6.721,9.267 6.992 C 9.267 7.118,9.290 7.265,9.318 7.320 C 9.413 7.504,11.529 9.604,11.700 9.684 C 11.903 9.778,12.097 9.778,12.300 9.684 C 12.404 9.635,12.845 9.221,13.565 8.495 C 14.607 7.445,14.673 7.369,14.711 7.189 C 14.817 6.682,14.499 6.267,14.004 6.267 C 13.881 6.267,13.735 6.290,13.680 6.319 C 13.625 6.348,13.396 6.552,13.170 6.773 L 12.760 7.175 12.759 4.598 C 12.758 2.972,12.743 1.954,12.717 1.841 C 12.623 1.432,12.215 1.177,11.815 1.277 M6.280 3.507 C 4.914 3.803,3.932 4.302,3.116 5.117 C 2.637 5.595,2.357 5.989,2.076 6.576 C 1.387 8.020,1.222 9.357,1.247 13.280 L 1.260 15.220 1.353 15.369 C 1.710 15.943,2.576 15.812,2.716 15.162 C 2.740 15.049,2.760 14.687,2.760 14.358 L 2.760 13.759 4.650 13.770 L 6.540 13.780 7.220 15.114 C 7.594 15.847,7.973 16.545,8.063 16.665 C 8.293 16.972,8.647 17.259,9.020 17.442 C 9.612 17.733,9.601 17.732,11.713 17.750 C 14.118 17.771,14.510 17.731,15.080 17.407 C 15.771 17.013,15.908 16.829,16.760 15.155 L 17.460 13.780 19.354 13.770 L 21.249 13.759 21.229 15.050 C 21.208 16.440,21.152 16.972,20.945 17.760 C 20.380 19.907,19.048 20.904,16.372 21.184 C 15.895 21.234,15.133 21.241,11.711 21.229 C 8.068 21.216,7.572 21.207,7.186 21.145 C 6.234 20.993,5.429 20.732,4.868 20.393 C 4.322 20.063,3.719 19.400,3.421 18.800 C 3.226 18.409,3.038 18.270,2.701 18.267 C 2.270 18.263,1.959 18.573,1.961 19.004 C 1.961 19.186,1.993 19.280,2.161 19.596 C 3.119 21.400,4.738 22.354,7.373 22.666 C 8.069 22.748,14.371 22.792,15.707 22.723 C 17.012 22.657,17.780 22.531,18.644 22.242 C 20.962 21.467,22.226 19.796,22.620 16.984 C 22.717 16.295,22.759 15.106,22.759 13.080 C 22.758 9.868,22.683 8.917,22.331 7.660 C 22.034 6.601,21.585 5.812,20.886 5.118 C 20.051 4.291,19.065 3.793,17.689 3.503 C 17.034 3.365,16.827 3.367,16.595 3.515 C 16.373 3.656,16.264 3.863,16.267 4.142 C 16.269 4.356,16.317 4.481,16.455 4.634 C 16.589 4.782,16.712 4.828,17.264 4.940 C 19.560 5.404,20.677 6.557,21.081 8.878 C 21.202 9.574,21.239 10.122,21.240 11.230 L 21.240 12.240 19.450 12.241 C 18.465 12.241,17.534 12.259,17.380 12.281 C 16.999 12.335,16.631 12.521,16.371 12.791 C 16.195 12.975,16.058 13.216,15.479 14.365 C 15.103 15.111,14.744 15.781,14.681 15.853 C 14.617 15.925,14.470 16.037,14.353 16.102 L 14.140 16.220 12.075 16.231 C 10.062 16.242,10.005 16.241,9.786 16.159 C 9.367 16.002,9.282 15.881,8.518 14.356 C 7.912 13.149,7.804 12.959,7.616 12.771 C 7.363 12.518,7.010 12.341,6.640 12.282 C 6.489 12.258,5.622 12.240,4.565 12.240 L 2.750 12.240 2.772 10.930 C 2.796 9.535,2.836 9.123,3.024 8.360 C 3.266 7.382,3.610 6.717,4.152 6.185 C 4.806 5.542,5.565 5.177,6.736 4.940 C 7.021 4.882,7.300 4.811,7.356 4.781 C 7.719 4.593,7.845 4.120,7.630 3.753 C 7.414 3.384,7.105 3.328,6.280 3.507 " stroke="none" fill-rule="evenodd" fill="black"></path></svg>