<svg width="24" height="24" viewBox="0 0 24 24" fill="none" xmlns="http://www.w3.org/2000/svg"><path d="M8.080 1.282 C 4.041 1.493,1.932 3.264,1.398 6.893 C 1.267 7.783,1.234 8.922,1.248 12.160 L 1.260 15.220 1.353 15.369 C 1.710 15.943,2.576 15.812,2.716 15.162 C 2.740 15.049,2.760 14.687,2.760 14.358 L 2.760 13.760 4.378 13.760 C 6.670 13.760,6.485 13.656,7.383 15.445 L 7.972 16.619 8.316 16.961 C 8.575 17.219,8.734 17.339,8.960 17.450 C 9.523 17.726,9.563 17.730,11.693 17.749 C 14.121 17.771,14.511 17.732,15.080 17.406 C 15.761 17.016,15.941 16.784,16.644 15.390 C 16.951 14.779,17.258 14.217,17.325 14.141 C 17.392 14.064,17.566 13.943,17.712 13.871 L 17.978 13.740 19.614 13.728 L 21.249 13.715 21.229 15.048 C 21.207 16.487,21.171 16.838,20.960 17.688 C 20.504 19.519,19.520 20.504,17.688 20.960 C 16.622 21.226,16.745 21.220,12.000 21.220 C 8.067 21.220,7.660 21.214,7.227 21.148 C 6.275 21.004,5.450 20.742,4.884 20.405 C 4.367 20.097,3.849 19.566,3.559 19.046 C 3.465 18.878,3.346 18.673,3.294 18.591 C 3.058 18.216,2.465 18.171,2.153 18.505 C 1.900 18.775,1.892 19.082,2.126 19.537 C 3.073 21.379,4.677 22.337,7.363 22.665 C 7.809 22.719,8.485 22.734,11.367 22.749 C 16.346 22.776,17.231 22.714,18.644 22.242 C 20.966 21.466,22.225 19.797,22.622 16.973 C 22.728 16.214,22.759 15.098,22.759 12.000 C 22.759 8.902,22.728 7.786,22.622 7.027 C 22.359 5.157,21.686 3.741,20.641 2.857 C 19.477 1.874,18.011 1.396,15.806 1.280 C 14.952 1.235,8.952 1.237,8.080 1.282 M16.800 2.854 C 19.574 3.314,20.695 4.436,21.145 7.200 C 21.202 7.551,21.216 8.001,21.230 9.930 L 21.246 12.240 19.653 12.241 C 17.601 12.243,17.348 12.286,16.686 12.738 C 16.180 13.083,16.000 13.336,15.359 14.605 C 15.049 15.220,14.743 15.782,14.680 15.854 C 14.617 15.926,14.470 16.037,14.353 16.102 L 14.140 16.220 12.055 16.231 C 10.031 16.242,9.964 16.240,9.749 16.160 C 9.369 16.018,9.227 15.823,8.638 14.630 C 8.352 14.052,8.040 13.475,7.944 13.347 C 7.703 13.026,7.359 12.744,6.980 12.558 C 6.397 12.271,6.379 12.269,4.467 12.250 L 2.754 12.233 2.771 9.926 C 2.789 7.443,2.800 7.288,3.025 6.360 C 3.521 4.315,4.702 3.277,6.960 2.900 C 7.690 2.777,8.048 2.769,12.200 2.777 C 15.963 2.784,16.422 2.791,16.800 2.854 M10.260 6.259 C 10.238 6.267,10.171 6.284,10.111 6.297 C 9.964 6.329,9.721 6.548,9.654 6.708 C 9.531 7.002,9.611 7.336,9.855 7.550 C 9.935 7.621,10.051 7.693,10.111 7.709 C 10.171 7.726,11.039 7.740,12.040 7.740 L 13.860 7.740 14.034 7.640 C 14.524 7.360,14.528 6.653,14.040 6.366 L 13.860 6.260 12.080 6.252 C 11.101 6.248,10.282 6.251,10.260 6.259 M9.420 9.260 C 9.398 9.267,9.331 9.284,9.271 9.297 C 9.124 9.329,8.881 9.548,8.814 9.708 C 8.703 9.973,8.759 10.289,8.953 10.494 C 9.173 10.726,9.227 10.738,10.147 10.753 C 11.183 10.770,11.382 10.738,11.599 10.521 C 11.998 10.122,11.811 9.423,11.269 9.286 C 11.105 9.245,9.532 9.222,9.420 9.260 M13.580 9.257 C 13.558 9.266,13.491 9.284,13.431 9.297 C 13.284 9.329,13.041 9.548,12.974 9.708 C 12.851 10.002,12.931 10.336,13.175 10.550 C 13.372 10.723,13.452 10.740,14.080 10.740 C 14.708 10.740,14.788 10.723,14.985 10.550 C 15.305 10.269,15.332 9.808,15.047 9.506 C 14.847 9.294,14.744 9.265,14.160 9.253 C 13.863 9.247,13.602 9.249,13.580 9.257 " stroke="none" fill-rule="evenodd" fill="black"></path></svg>