<svg width="24" height="24" viewBox="0 0 24 24" fill="none" xmlns="http://www.w3.org/2000/svg"><path d="M5.878 1.966 C 4.978 2.035,4.194 2.390,3.505 3.042 C 2.385 4.102,1.984 5.625,2.445 7.067 C 2.517 7.294,2.911 8.135,3.475 9.267 C 3.977 10.275,4.422 11.199,4.463 11.320 C 4.571 11.630,4.571 12.370,4.463 12.680 C 4.422 12.801,3.977 13.725,3.475 14.733 C 2.911 15.865,2.517 16.706,2.445 16.933 C 2.009 18.297,2.344 19.738,3.340 20.794 C 4.072 21.570,4.966 21.983,6.013 22.029 C 6.717 22.060,7.145 21.984,7.764 21.717 C 8.198 21.529,19.759 15.431,20.040 15.241 C 20.882 14.673,21.473 13.760,21.681 12.706 C 21.741 12.404,21.741 11.596,21.681 11.294 C 21.473 10.241,20.882 9.327,20.042 8.760 C 19.827 8.615,12.938 4.964,12.588 4.809 C 12.319 4.691,11.980 4.775,11.771 5.014 C 11.472 5.354,11.522 5.818,11.887 6.090 C 11.960 6.145,13.586 7.014,15.500 8.020 C 17.414 9.027,19.074 9.912,19.188 9.988 C 19.647 10.291,20.035 10.852,20.179 11.418 C 20.257 11.724,20.257 12.276,20.179 12.582 C 20.035 13.148,19.647 13.709,19.188 14.012 C 18.805 14.266,7.224 20.339,6.940 20.435 C 6.564 20.562,6.070 20.589,5.700 20.502 C 4.804 20.292,4.024 19.533,3.821 18.676 C 3.742 18.338,3.744 17.860,3.827 17.529 C 3.871 17.353,4.226 16.595,4.859 15.321 C 5.998 13.030,6.020 12.967,6.020 12.000 C 6.020 11.033,5.998 10.970,4.859 8.679 C 3.829 6.607,3.760 6.431,3.761 5.892 C 3.762 5.212,3.988 4.686,4.498 4.180 C 4.859 3.820,5.149 3.648,5.599 3.523 C 6.143 3.372,6.653 3.422,7.252 3.685 C 7.487 3.788,7.571 3.806,7.763 3.792 C 8.181 3.762,8.466 3.431,8.431 3.015 C 8.405 2.700,8.266 2.517,7.932 2.359 C 7.224 2.023,6.628 1.909,5.878 1.966 " stroke="none" fill-rule="evenodd" fill="black"></path></svg>