<svg width="24" height="24" viewBox="0 0 24 24" fill="none" xmlns="http://www.w3.org/2000/svg"><path d="M11.815 1.277 C 11.638 1.321,11.461 1.456,11.353 1.631 L 11.260 1.780 11.248 3.975 L 11.237 6.170 10.808 5.752 C 10.448 5.401,10.350 5.327,10.191 5.287 C 9.702 5.164,9.267 5.498,9.267 5.996 C 9.267 6.119,9.290 6.265,9.318 6.320 C 9.413 6.504,11.529 8.604,11.700 8.684 C 11.903 8.778,12.097 8.778,12.300 8.684 C 12.404 8.635,12.845 8.221,13.565 7.495 C 14.604 6.448,14.673 6.368,14.711 6.190 C 14.770 5.907,14.705 5.665,14.522 5.482 C 14.296 5.256,13.936 5.193,13.660 5.331 C 13.616 5.353,13.396 5.552,13.170 5.773 L 12.760 6.175 12.759 4.098 C 12.758 2.815,12.742 1.951,12.717 1.841 C 12.623 1.432,12.215 1.177,11.815 1.277 M7.580 3.341 C 5.794 3.612,4.784 4.406,4.426 5.820 C 4.289 6.359,4.273 6.676,4.252 9.172 L 4.230 11.684 4.025 11.787 C 3.040 12.285,2.500 13.110,2.322 14.386 C 2.199 15.263,2.239 18.492,2.382 19.297 C 2.684 20.997,3.632 22.000,5.374 22.461 C 5.884 22.596,6.454 22.675,7.255 22.721 C 8.108 22.771,8.300 22.740,8.519 22.521 C 8.871 22.169,8.773 21.550,8.332 21.338 C 8.212 21.281,8.032 21.259,7.480 21.236 C 5.947 21.172,5.001 20.893,4.460 20.344 C 4.187 20.067,4.032 19.779,3.917 19.328 C 3.778 18.790,3.754 18.290,3.770 16.351 C 3.784 14.595,3.789 14.484,3.872 14.183 C 3.921 14.009,4.004 13.792,4.058 13.700 C 4.439 13.050,5.481 12.727,7.067 12.766 C 7.867 12.785,7.960 12.830,8.619 13.519 C 9.785 14.738,10.077 14.948,10.994 15.229 C 11.308 15.325,11.400 15.334,12.000 15.334 C 12.603 15.334,12.691 15.325,13.012 15.227 C 13.438 15.097,13.849 14.898,14.176 14.664 C 14.310 14.568,14.744 14.158,15.140 13.752 C 16.069 12.800,16.095 12.786,16.933 12.766 C 18.519 12.727,19.561 13.050,19.942 13.700 C 19.996 13.792,20.080 14.009,20.129 14.183 C 20.214 14.487,20.217 14.568,20.219 16.220 C 20.220 18.050,20.209 18.200,20.013 18.877 C 19.647 20.149,18.851 20.823,17.334 21.147 C 17.065 21.204,16.641 21.217,14.397 21.237 L 11.774 21.260 11.612 21.367 C 11.372 21.526,11.267 21.721,11.267 22.007 C 11.267 22.203,11.286 22.270,11.383 22.408 C 11.447 22.499,11.572 22.610,11.660 22.656 C 11.815 22.737,11.883 22.740,13.760 22.753 C 15.901 22.767,17.017 22.722,17.668 22.597 C 18.165 22.501,18.829 22.287,19.178 22.111 C 19.817 21.789,20.414 21.272,20.787 20.720 C 21.554 19.583,21.807 18.253,21.744 15.705 C 21.729 15.135,21.699 14.535,21.676 14.370 C 21.501 13.112,20.955 12.283,19.975 11.787 L 19.770 11.684 19.748 9.172 C 19.727 6.676,19.711 6.359,19.574 5.820 C 19.213 4.392,18.187 3.596,16.380 3.340 C 16.127 3.304,15.926 3.296,15.833 3.317 C 15.267 3.445,15.068 4.148,15.481 4.561 C 15.638 4.718,15.733 4.749,16.320 4.839 C 17.118 4.962,17.686 5.263,17.942 5.700 C 17.996 5.792,18.080 6.009,18.128 6.183 C 18.214 6.491,18.217 6.569,18.231 8.913 L 18.245 11.326 18.012 11.297 C 17.885 11.280,17.474 11.268,17.100 11.269 C 15.676 11.274,15.257 11.475,14.027 12.743 C 13.370 13.422,13.289 13.491,12.987 13.640 C 12.224 14.016,11.337 13.934,10.645 13.423 C 10.543 13.348,10.201 13.006,9.884 12.664 C 9.090 11.807,8.594 11.475,7.897 11.335 C 7.554 11.266,6.406 11.243,5.988 11.297 L 5.755 11.326 5.769 8.913 C 5.783 6.569,5.786 6.491,5.872 6.183 C 5.920 6.009,6.004 5.792,6.058 5.700 C 6.314 5.263,6.882 4.962,7.680 4.839 C 8.267 4.749,8.362 4.718,8.519 4.561 C 8.953 4.127,8.706 3.386,8.100 3.308 C 8.012 3.296,7.778 3.311,7.580 3.341 " stroke="none" fill-rule="evenodd" fill="black"></path></svg>