<svg width="24" height="24" viewBox="0 0 24 24" fill="none" xmlns="http://www.w3.org/2000/svg"><path d="M11.700 1.316 C 11.529 1.396,9.413 3.496,9.318 3.680 C 9.290 3.735,9.267 3.881,9.267 4.004 C 9.267 4.498,9.683 4.818,10.186 4.711 C 10.351 4.675,10.432 4.615,10.806 4.250 L 11.237 3.830 11.248 6.025 L 11.260 8.220 11.353 8.369 C 11.710 8.943,12.576 8.812,12.716 8.162 C 12.745 8.027,12.760 7.248,12.760 5.892 L 12.760 3.827 13.192 4.249 C 13.567 4.614,13.649 4.675,13.812 4.710 C 14.388 4.833,14.832 4.389,14.711 3.810 C 14.673 3.632,14.604 3.552,13.565 2.505 C 12.845 1.779,12.404 1.365,12.300 1.316 C 12.097 1.222,11.903 1.222,11.700 1.316 M7.580 5.341 C 5.794 5.612,4.784 6.406,4.426 7.820 C 4.307 8.290,4.278 8.679,4.253 10.173 L 4.227 11.685 4.024 11.788 C 3.040 12.285,2.499 13.111,2.322 14.386 C 2.199 15.263,2.239 18.492,2.382 19.297 C 2.684 20.997,3.632 22.000,5.374 22.461 C 5.884 22.596,6.454 22.675,7.255 22.721 C 8.108 22.771,8.300 22.740,8.519 22.521 C 8.871 22.169,8.773 21.550,8.332 21.338 C 8.212 21.281,8.032 21.259,7.480 21.236 C 5.947 21.172,5.001 20.893,4.460 20.344 C 4.187 20.067,4.032 19.779,3.917 19.328 C 3.778 18.790,3.754 18.290,3.770 16.351 C 3.784 14.595,3.789 14.484,3.872 14.183 C 3.921 14.009,4.004 13.792,4.058 13.700 C 4.439 13.050,5.481 12.727,7.067 12.766 C 7.867 12.785,7.960 12.830,8.619 13.519 C 9.785 14.738,10.077 14.948,10.994 15.229 C 11.308 15.325,11.400 15.334,12.000 15.334 C 12.603 15.334,12.691 15.325,13.012 15.227 C 13.438 15.097,13.849 14.898,14.176 14.664 C 14.310 14.568,14.744 14.158,15.140 13.752 C 16.069 12.800,16.095 12.786,16.933 12.766 C 18.519 12.727,19.561 13.050,19.942 13.700 C 19.996 13.792,20.080 14.009,20.129 14.183 C 20.214 14.487,20.217 14.568,20.219 16.220 C 20.220 18.050,20.209 18.200,20.013 18.877 C 19.647 20.149,18.851 20.823,17.334 21.147 C 17.065 21.204,16.641 21.217,14.397 21.237 L 11.774 21.260 11.612 21.367 C 11.372 21.526,11.267 21.721,11.267 22.007 C 11.267 22.203,11.286 22.270,11.383 22.408 C 11.447 22.499,11.572 22.610,11.660 22.656 C 11.815 22.737,11.883 22.740,13.760 22.753 C 15.901 22.767,17.017 22.722,17.668 22.597 C 18.165 22.501,18.829 22.287,19.178 22.111 C 19.817 21.789,20.414 21.272,20.787 20.720 C 21.554 19.583,21.807 18.253,21.744 15.705 C 21.729 15.135,21.699 14.535,21.676 14.370 C 21.501 13.113,20.955 12.283,19.976 11.788 L 19.773 11.685 19.747 10.173 C 19.722 8.679,19.693 8.290,19.574 7.820 C 19.213 6.392,18.187 5.596,16.380 5.340 C 16.127 5.304,15.926 5.296,15.833 5.317 C 15.267 5.445,15.068 6.148,15.481 6.561 C 15.638 6.718,15.733 6.749,16.320 6.839 C 17.118 6.962,17.686 7.263,17.942 7.700 C 17.996 7.792,18.079 8.009,18.127 8.183 C 18.206 8.474,18.215 8.617,18.230 9.913 L 18.247 11.327 18.014 11.297 C 17.885 11.280,17.474 11.268,17.100 11.269 C 15.676 11.274,15.257 11.475,14.027 12.743 C 13.370 13.422,13.289 13.491,12.987 13.640 C 12.224 14.016,11.337 13.934,10.645 13.423 C 10.543 13.348,10.201 13.006,9.884 12.664 C 9.090 11.807,8.594 11.475,7.897 11.335 C 7.554 11.266,6.406 11.243,5.986 11.297 L 5.753 11.327 5.770 9.913 C 5.785 8.617,5.794 8.474,5.873 8.183 C 5.921 8.009,6.004 7.792,6.058 7.700 C 6.314 7.263,6.882 6.962,7.680 6.839 C 8.267 6.749,8.362 6.718,8.519 6.561 C 8.953 6.127,8.706 5.386,8.100 5.308 C 8.012 5.296,7.778 5.311,7.580 5.341 " stroke="none" fill-rule="evenodd" fill="black"></path></svg>