<svg width="24" height="24" viewBox="0 0 24 24" fill="none" xmlns="http://www.w3.org/2000/svg"><path d="M17.460 1.966 C 16.963 2.006,16.591 2.111,16.068 2.359 C 15.734 2.517,15.595 2.700,15.569 3.015 C 15.534 3.431,15.819 3.762,16.237 3.792 C 16.429 3.806,16.513 3.788,16.748 3.685 C 17.347 3.422,17.857 3.372,18.401 3.523 C 18.851 3.648,19.141 3.820,19.502 4.180 C 20.012 4.686,20.238 5.212,20.239 5.892 C 20.240 6.431,20.170 6.609,19.156 8.647 C 18.634 9.696,18.176 10.659,18.138 10.787 C 17.898 11.599,17.898 12.401,18.138 13.213 C 18.176 13.341,18.634 14.304,19.156 15.353 C 19.781 16.609,20.128 17.352,20.173 17.528 C 20.256 17.860,20.258 18.337,20.179 18.676 C 19.976 19.533,19.196 20.292,18.300 20.502 C 17.930 20.589,17.436 20.562,17.060 20.435 C 16.776 20.339,5.195 14.266,4.812 14.012 C 4.353 13.709,3.965 13.148,3.821 12.582 C 3.743 12.276,3.743 11.724,3.821 11.418 C 3.965 10.852,4.353 10.291,4.812 9.988 C 4.926 9.912,6.586 9.027,8.500 8.020 C 10.414 7.014,12.040 6.145,12.113 6.090 C 12.478 5.818,12.528 5.354,12.229 5.014 C 12.020 4.775,11.681 4.691,11.412 4.809 C 11.111 4.941,4.177 8.611,3.974 8.745 C 3.141 9.297,2.527 10.242,2.319 11.294 C 2.219 11.797,2.268 12.629,2.427 13.140 C 2.698 14.011,3.242 14.756,3.960 15.241 C 4.241 15.431,15.802 21.529,16.236 21.717 C 16.855 21.984,17.283 22.060,17.987 22.029 C 19.034 21.983,19.928 21.570,20.660 20.794 C 21.460 19.946,21.858 18.782,21.721 17.687 C 21.639 17.036,21.498 16.686,20.525 14.733 C 20.023 13.725,19.578 12.801,19.537 12.680 C 19.479 12.513,19.461 12.348,19.461 12.000 C 19.461 11.652,19.479 11.487,19.537 11.320 C 19.578 11.199,20.023 10.275,20.525 9.267 C 21.089 8.135,21.483 7.294,21.555 7.067 C 21.725 6.535,21.781 6.024,21.722 5.525 C 21.605 4.517,21.264 3.814,20.544 3.098 C 19.697 2.257,18.645 1.871,17.460 1.966 " stroke="none" fill-rule="evenodd" fill="black"></path></svg>