<svg width="24" height="24" viewBox="0 0 24 24" fill="none" xmlns="http://www.w3.org/2000/svg"><path d="M11.700 1.316 C 11.529 1.396,9.413 3.496,9.318 3.680 C 9.290 3.735,9.267 3.881,9.267 4.004 C 9.267 4.498,9.683 4.818,10.186 4.711 C 10.351 4.675,10.432 4.615,10.807 4.250 L 11.237 3.830 11.249 6.525 L 11.260 9.220 11.353 9.369 C 11.710 9.943,12.576 9.812,12.716 9.162 C 12.745 9.024,12.760 8.113,12.760 6.392 L 12.760 3.827 13.192 4.249 C 13.567 4.614,13.649 4.675,13.812 4.710 C 14.388 4.833,14.832 4.389,14.711 3.810 C 14.673 3.632,14.604 3.552,13.565 2.505 C 12.845 1.779,12.404 1.365,12.300 1.316 C 12.097 1.222,11.903 1.222,11.700 1.316 M6.280 4.507 C 4.914 4.803,3.932 5.302,3.116 6.117 C 2.637 6.595,2.357 6.989,2.076 7.576 C 1.414 8.965,1.217 10.435,1.247 13.780 C 1.260 15.206,1.261 15.221,1.353 15.369 C 1.710 15.943,2.576 15.812,2.716 15.162 C 2.740 15.049,2.760 14.687,2.760 14.358 L 2.760 13.759 4.650 13.770 L 6.540 13.780 7.220 15.114 C 7.594 15.847,7.973 16.545,8.063 16.665 C 8.293 16.972,8.647 17.259,9.020 17.442 C 9.612 17.733,9.601 17.732,11.713 17.750 C 14.118 17.771,14.510 17.731,15.080 17.407 C 15.771 17.013,15.908 16.829,16.760 15.155 L 17.460 13.780 19.354 13.770 L 21.249 13.759 21.229 15.050 C 21.208 16.440,21.152 16.972,20.945 17.760 C 20.380 19.907,19.048 20.904,16.372 21.184 C 15.895 21.234,15.133 21.241,11.711 21.229 C 8.068 21.216,7.572 21.207,7.186 21.145 C 6.234 20.993,5.429 20.732,4.868 20.393 C 4.322 20.063,3.719 19.400,3.421 18.800 C 3.226 18.409,3.038 18.270,2.701 18.267 C 2.270 18.263,1.959 18.573,1.961 19.004 C 1.961 19.186,1.993 19.280,2.161 19.596 C 3.119 21.400,4.738 22.354,7.373 22.666 C 8.069 22.748,14.371 22.792,15.707 22.723 C 17.012 22.657,17.780 22.531,18.644 22.242 C 20.962 21.467,22.226 19.796,22.620 16.984 C 22.807 15.651,22.807 11.409,22.620 10.060 C 22.372 8.271,21.842 7.066,20.886 6.118 C 20.051 5.291,19.065 4.793,17.689 4.503 C 17.034 4.365,16.827 4.367,16.595 4.515 C 16.373 4.656,16.264 4.863,16.267 5.142 C 16.269 5.356,16.317 5.481,16.455 5.634 C 16.589 5.782,16.712 5.828,17.264 5.940 C 19.560 6.404,20.677 7.557,21.081 9.878 C 21.186 10.480,21.239 11.102,21.240 11.730 L 21.240 12.240 19.450 12.241 C 18.465 12.241,17.534 12.259,17.380 12.281 C 16.999 12.335,16.631 12.521,16.371 12.791 C 16.195 12.975,16.058 13.216,15.479 14.365 C 15.103 15.111,14.744 15.781,14.681 15.853 C 14.617 15.925,14.470 16.037,14.353 16.102 L 14.140 16.220 12.075 16.231 C 10.062 16.242,10.005 16.241,9.786 16.159 C 9.367 16.002,9.282 15.881,8.518 14.356 C 7.912 13.149,7.804 12.959,7.616 12.771 C 7.363 12.518,7.010 12.341,6.640 12.282 C 6.489 12.258,5.622 12.240,4.564 12.240 L 2.748 12.240 2.772 11.450 C 2.799 10.554,2.876 9.939,3.041 9.298 C 3.288 8.336,3.617 7.711,4.152 7.185 C 4.806 6.542,5.565 6.177,6.736 5.940 C 7.021 5.882,7.300 5.811,7.356 5.781 C 7.719 5.593,7.845 5.120,7.630 4.753 C 7.414 4.384,7.105 4.328,6.280 4.507 " stroke="none" fill-rule="evenodd" fill="black"></path></svg>