<svg width="24" height="24" viewBox="0 0 24 24" fill="none" xmlns="http://www.w3.org/2000/svg"><path d="M8.212 1.282 C 5.786 1.445,4.591 2.399,4.322 4.388 C 4.299 4.559,4.275 5.042,4.270 5.460 C 4.260 6.194,4.263 6.225,4.353 6.369 C 4.664 6.870,5.414 6.848,5.662 6.332 C 5.722 6.207,5.740 6.029,5.764 5.340 C 5.806 4.157,5.924 3.743,6.323 3.382 C 6.644 3.092,7.234 2.885,7.975 2.803 C 8.495 2.745,15.505 2.745,16.025 2.803 C 17.010 2.912,17.659 3.216,17.942 3.700 C 17.996 3.792,18.080 4.009,18.129 4.183 C 18.217 4.498,18.218 4.526,18.231 7.913 L 18.243 11.326 18.012 11.296 C 17.884 11.280,17.474 11.268,17.100 11.269 C 15.676 11.274,15.257 11.475,14.027 12.743 C 13.370 13.422,13.289 13.491,12.987 13.640 C 12.224 14.016,11.337 13.934,10.645 13.423 C 10.543 13.348,10.201 13.006,9.884 12.664 C 9.090 11.807,8.594 11.475,7.897 11.335 C 7.556 11.267,6.406 11.243,5.994 11.296 L 5.767 11.325 5.754 10.552 C 5.738 9.668,5.705 9.553,5.408 9.343 C 5.270 9.246,5.203 9.227,5.003 9.227 C 4.718 9.227,4.506 9.345,4.355 9.587 C 4.263 9.735,4.260 9.770,4.247 10.711 L 4.234 11.682 4.027 11.786 C 3.040 12.286,2.500 13.109,2.322 14.386 C 2.199 15.263,2.239 18.492,2.382 19.297 C 2.537 20.173,2.869 20.866,3.380 21.383 C 4.201 22.215,5.342 22.610,7.235 22.720 C 8.125 22.772,15.715 22.770,16.574 22.718 C 18.252 22.617,19.438 22.166,20.302 21.302 C 20.790 20.814,21.128 20.251,21.374 19.516 C 21.574 18.917,21.672 18.352,21.724 17.492 C 21.774 16.673,21.746 14.873,21.676 14.370 C 21.501 13.112,20.955 12.283,19.974 11.787 L 19.768 11.683 19.749 8.171 C 19.736 5.738,19.715 4.570,19.682 4.366 C 19.464 3.017,18.915 2.224,17.862 1.737 C 17.317 1.485,16.657 1.345,15.717 1.281 C 15.056 1.235,8.887 1.236,8.212 1.282 M9.420 5.460 C 9.398 5.467,9.331 5.484,9.271 5.497 C 9.124 5.529,8.881 5.748,8.814 5.908 C 8.703 6.173,8.759 6.489,8.953 6.694 C 9.173 6.927,9.226 6.938,10.160 6.954 C 11.196 6.971,11.379 6.941,11.600 6.720 C 12.009 6.311,11.805 5.605,11.242 5.484 C 11.061 5.445,9.525 5.425,9.420 5.460 M13.580 5.457 C 13.558 5.466,13.491 5.484,13.431 5.497 C 13.284 5.529,13.041 5.748,12.974 5.908 C 12.851 6.202,12.931 6.536,13.175 6.750 C 13.372 6.923,13.452 6.940,14.080 6.940 C 14.708 6.940,14.788 6.923,14.985 6.750 C 15.305 6.469,15.332 6.008,15.047 5.706 C 14.847 5.494,14.744 5.465,14.160 5.453 C 13.863 5.447,13.602 5.449,13.580 5.457 M10.174 8.477 C 9.516 8.639,9.383 9.507,9.966 9.840 L 10.140 9.940 11.960 9.940 C 12.961 9.940,13.829 9.926,13.889 9.909 C 14.041 9.867,14.281 9.647,14.346 9.492 C 14.457 9.227,14.401 8.911,14.207 8.706 C 13.968 8.453,14.031 8.461,12.080 8.453 C 11.101 8.449,10.243 8.460,10.174 8.477 M7.900 12.899 C 8.084 12.991,8.252 13.135,8.619 13.519 C 9.785 14.738,10.077 14.948,10.994 15.229 C 11.308 15.325,11.400 15.334,12.000 15.334 C 12.603 15.334,12.691 15.325,13.012 15.227 C 13.438 15.097,13.849 14.898,14.176 14.664 C 14.310 14.568,14.744 14.158,15.140 13.752 C 16.069 12.800,16.095 12.786,16.933 12.766 C 18.519 12.727,19.561 13.050,19.942 13.700 C 19.996 13.792,20.080 14.009,20.129 14.183 C 20.214 14.487,20.217 14.568,20.219 16.220 C 20.220 18.050,20.209 18.200,20.013 18.877 C 19.639 20.178,18.802 20.863,17.220 21.166 C 16.995 21.209,15.944 21.220,11.880 21.220 C 7.183 21.220,6.789 21.215,6.391 21.148 C 5.440 20.987,4.854 20.744,4.460 20.344 C 4.187 20.067,4.032 19.779,3.917 19.328 C 3.778 18.790,3.754 18.290,3.770 16.351 C 3.784 14.595,3.789 14.484,3.872 14.183 C 4.025 13.633,4.265 13.336,4.736 13.116 C 5.285 12.859,5.899 12.764,6.940 12.773 C 7.653 12.780,7.662 12.781,7.900 12.899 " stroke="none" fill-rule="evenodd" fill="black"></path></svg>