<svg width="24" height="24" viewBox="0 0 24 24" fill="none" xmlns="http://www.w3.org/2000/svg"><path d="M11.620 2.281 C 10.506 2.377,9.391 3.023,8.763 3.935 C 8.517 4.293,4.791 11.416,4.770 11.567 C 4.739 11.795,4.792 11.988,4.928 12.143 C 5.095 12.333,5.258 12.411,5.501 12.414 C 5.739 12.418,5.920 12.326,6.081 12.120 C 6.141 12.043,7.014 10.414,8.021 8.500 C 9.027 6.586,9.912 4.926,9.988 4.812 C 10.291 4.353,10.851 3.965,11.418 3.821 C 11.550 3.787,11.811 3.760,12.000 3.760 C 12.189 3.760,12.450 3.787,12.582 3.821 C 13.149 3.965,13.710 4.354,14.012 4.812 C 14.262 5.192,20.329 16.764,20.431 17.055 C 20.560 17.427,20.588 17.884,20.505 18.275 C 20.316 19.164,19.566 19.952,18.694 20.177 C 18.384 20.257,17.849 20.258,17.538 20.180 C 17.402 20.145,16.452 19.701,15.320 19.142 C 13.088 18.040,12.992 18.004,12.163 17.970 C 11.182 17.930,11.003 17.990,8.640 19.160 C 7.525 19.712,6.599 20.145,6.462 20.180 C 6.330 20.213,6.072 20.240,5.887 20.240 C 5.214 20.240,4.689 20.013,4.179 19.502 C 3.811 19.134,3.637 18.836,3.519 18.376 C 3.377 17.822,3.424 17.369,3.684 16.756 C 3.843 16.383,3.837 16.088,3.665 15.864 C 3.370 15.476,2.745 15.468,2.475 15.847 C 2.241 16.175,2.009 16.916,1.962 17.480 C 1.869 18.613,2.250 19.667,3.060 20.515 C 4.050 21.551,5.500 21.974,6.853 21.620 C 7.245 21.518,7.692 21.314,9.429 20.446 C 10.348 19.987,11.199 19.578,11.320 19.536 C 11.630 19.430,12.370 19.430,12.680 19.536 C 12.801 19.578,13.665 19.993,14.600 20.460 C 16.417 21.368,16.853 21.560,17.322 21.663 C 17.723 21.751,18.482 21.751,18.900 21.661 C 20.321 21.358,21.471 20.286,21.904 18.860 C 22.004 18.531,22.014 18.442,22.017 17.820 C 22.020 17.089,21.990 16.909,21.773 16.367 C 21.624 15.992,15.456 4.277,15.241 3.960 C 14.451 2.793,13.078 2.156,11.620 2.281 " stroke="none" fill-rule="evenodd" fill="black"></path></svg>