<svg width="24" height="24" viewBox="0 0 24 24" fill="none" xmlns="http://www.w3.org/2000/svg"><path d="M5.420 2.284 C 4.261 2.440,3.207 3.107,2.575 4.084 C 1.869 5.175,1.753 6.522,2.261 7.727 C 2.430 8.130,2.525 8.256,2.733 8.357 C 3.218 8.592,3.754 8.292,3.792 7.764 C 3.806 7.575,3.787 7.486,3.684 7.244 C 3.424 6.631,3.377 6.178,3.519 5.624 C 3.637 5.164,3.811 4.866,4.179 4.498 C 4.689 3.987,5.214 3.760,5.887 3.760 C 6.072 3.760,6.330 3.787,6.462 3.820 C 6.599 3.855,7.524 4.288,8.640 4.841 C 9.707 5.369,10.670 5.828,10.780 5.861 C 11.568 6.099,12.448 6.098,13.219 5.858 C 13.330 5.823,14.293 5.364,15.360 4.838 C 16.468 4.291,17.402 3.854,17.538 3.820 C 17.849 3.742,18.384 3.743,18.694 3.823 C 19.337 3.989,19.998 4.528,20.292 5.125 C 20.583 5.717,20.632 6.365,20.431 6.945 C 20.329 7.236,14.262 18.808,14.012 19.188 C 13.710 19.646,13.149 20.035,12.582 20.179 C 12.276 20.257,11.724 20.257,11.418 20.179 C 10.851 20.035,10.291 19.647,9.988 19.188 C 9.912 19.074,9.027 17.414,8.021 15.500 C 7.014 13.586,6.141 11.957,6.081 11.880 C 5.920 11.674,5.739 11.582,5.501 11.586 C 5.034 11.592,4.708 11.971,4.770 12.433 C 4.791 12.584,8.517 19.707,8.763 20.065 C 9.216 20.723,9.913 21.244,10.720 21.527 C 11.493 21.798,12.501 21.798,13.280 21.528 C 14.091 21.246,14.778 20.724,15.241 20.040 C 15.456 19.723,21.624 8.008,21.773 7.633 C 21.990 7.091,22.020 6.911,22.017 6.180 C 22.014 5.558,22.004 5.469,21.904 5.140 C 21.471 3.714,20.324 2.645,18.900 2.338 C 18.519 2.256,17.767 2.245,17.420 2.316 C 16.903 2.422,16.483 2.603,14.724 3.479 C 13.721 3.979,12.801 4.422,12.680 4.463 C 12.371 4.570,11.631 4.571,11.320 4.464 C 11.199 4.422,10.335 4.007,9.400 3.540 C 7.587 2.635,7.138 2.436,6.698 2.344 C 6.316 2.265,5.756 2.238,5.420 2.284 " stroke="none" fill-rule="evenodd" fill="black"></path></svg>