<svg width="24" height="24" viewBox="0 0 24 24" fill="none" xmlns="http://www.w3.org/2000/svg"><path d="M11.247 1.382 C 11.085 1.437,10.851 1.547,10.727 1.626 C 10.408 1.828,8.782 3.449,8.675 3.671 C 8.501 4.029,8.649 4.469,9.003 4.650 C 9.157 4.728,9.457 4.742,9.627 4.678 C 9.689 4.655,10.136 4.242,10.620 3.760 C 11.183 3.200,11.554 2.862,11.649 2.822 C 11.839 2.743,12.121 2.743,12.311 2.822 C 12.404 2.861,12.798 3.218,13.379 3.792 C 14.347 4.747,14.524 4.882,15.047 5.072 C 15.338 5.178,15.348 5.179,16.740 5.200 C 17.650 5.214,18.176 5.237,18.242 5.267 C 18.418 5.345,18.608 5.530,18.685 5.698 C 18.751 5.843,18.758 5.983,18.760 7.040 C 18.762 8.340,18.790 8.640,18.946 9.034 C 19.129 9.494,19.305 9.715,20.227 10.644 C 21.021 11.444,21.131 11.571,21.184 11.744 C 21.249 11.959,21.230 12.182,21.130 12.380 C 21.097 12.446,20.653 12.923,20.143 13.440 C 19.154 14.443,19.063 14.566,18.877 15.140 C 18.793 15.402,18.785 15.511,18.763 16.823 L 18.740 18.226 18.629 18.372 C 18.432 18.630,18.273 18.722,17.952 18.766 C 17.441 18.835,17.187 19.088,17.187 19.527 C 17.187 19.723,17.206 19.790,17.303 19.928 C 17.474 20.170,17.671 20.258,18.029 20.251 C 18.616 20.240,19.111 20.018,19.565 19.565 C 19.879 19.250,20.050 18.972,20.181 18.560 C 20.240 18.375,20.255 18.118,20.276 16.940 C 20.298 15.680,20.307 15.526,20.375 15.400 C 20.416 15.323,20.841 14.864,21.320 14.380 C 21.836 13.858,22.258 13.395,22.356 13.243 C 22.784 12.577,22.831 11.665,22.473 10.929 C 22.362 10.698,22.208 10.523,21.397 9.700 C 20.876 9.172,20.417 8.677,20.375 8.600 C 20.307 8.473,20.298 8.327,20.275 7.060 C 20.248 5.503,20.232 5.390,19.971 4.920 C 19.702 4.436,19.125 3.970,18.580 3.797 C 18.470 3.762,17.975 3.739,17.000 3.723 C 15.607 3.700,15.577 3.698,15.400 3.605 C 15.292 3.549,14.845 3.141,14.280 2.584 C 13.275 1.594,13.112 1.472,12.614 1.343 C 12.222 1.242,11.606 1.260,11.247 1.382 M5.760 3.757 C 5.241 3.828,4.835 4.036,4.435 4.435 C 4.121 4.750,3.950 5.028,3.819 5.440 C 3.760 5.625,3.745 5.882,3.724 7.060 C 3.702 8.320,3.693 8.474,3.625 8.600 C 3.584 8.677,3.159 9.136,2.680 9.620 C 2.164 10.142,1.742 10.605,1.644 10.757 C 1.215 11.425,1.168 12.333,1.527 13.071 C 1.638 13.302,1.792 13.477,2.603 14.300 C 3.124 14.828,3.583 15.323,3.625 15.400 C 3.693 15.527,3.702 15.673,3.725 16.940 C 3.752 18.497,3.768 18.610,4.029 19.080 C 4.298 19.564,4.875 20.030,5.420 20.203 C 5.530 20.238,6.025 20.261,7.000 20.277 C 8.393 20.300,8.423 20.302,8.600 20.395 C 8.708 20.451,9.155 20.859,9.720 21.416 C 10.725 22.406,10.888 22.528,11.386 22.657 C 11.532 22.694,11.797 22.720,12.039 22.720 C 12.515 22.720,12.898 22.613,13.273 22.374 C 13.592 22.172,15.218 20.551,15.325 20.329 C 15.499 19.971,15.351 19.531,14.997 19.350 C 14.843 19.272,14.543 19.258,14.373 19.322 C 14.311 19.345,13.864 19.758,13.380 20.240 C 12.817 20.800,12.446 21.138,12.351 21.178 C 12.161 21.257,11.879 21.257,11.689 21.178 C 11.596 21.139,11.202 20.782,10.621 20.208 C 9.653 19.253,9.476 19.118,8.953 18.928 C 8.662 18.822,8.652 18.821,7.260 18.800 C 6.350 18.786,5.824 18.763,5.758 18.733 C 5.582 18.655,5.392 18.470,5.315 18.302 C 5.249 18.157,5.242 18.017,5.240 16.960 C 5.238 15.660,5.210 15.360,5.054 14.966 C 4.871 14.506,4.695 14.285,3.773 13.356 C 2.979 12.556,2.869 12.429,2.816 12.256 C 2.751 12.041,2.770 11.818,2.870 11.620 C 2.903 11.554,3.347 11.077,3.857 10.560 C 4.846 9.557,4.937 9.434,5.123 8.860 C 5.207 8.598,5.215 8.489,5.237 7.177 L 5.260 5.774 5.371 5.628 C 5.565 5.374,5.719 5.285,6.072 5.224 C 6.590 5.133,6.813 4.910,6.813 4.480 C 6.813 3.950,6.405 3.670,5.760 3.757 M14.900 8.260 C 14.878 8.267,14.806 8.285,14.740 8.299 C 14.650 8.319,13.852 9.091,11.528 11.413 C 9.827 13.111,8.398 14.561,8.351 14.636 C 8.218 14.848,8.233 15.195,8.383 15.408 C 8.447 15.499,8.568 15.608,8.651 15.651 C 8.837 15.747,9.139 15.753,9.325 15.664 C 9.403 15.628,10.805 14.255,12.567 12.490 C 15.576 9.476,15.673 9.374,15.712 9.189 C 15.785 8.834,15.633 8.480,15.352 8.350 C 15.213 8.286,14.968 8.237,14.900 8.260 M9.042 8.628 C 8.331 9.001,8.339 10.029,9.055 10.379 C 9.249 10.474,9.317 10.487,9.554 10.474 C 9.907 10.454,10.164 10.306,10.339 10.022 C 10.448 9.846,10.460 9.793,10.460 9.500 C 10.460 9.207,10.448 9.154,10.339 8.978 C 10.161 8.689,9.905 8.545,9.544 8.527 C 9.294 8.515,9.234 8.527,9.042 8.628 M14.042 13.628 C 13.331 14.001,13.339 15.029,14.055 15.379 C 14.249 15.474,14.317 15.487,14.554 15.474 C 14.907 15.454,15.164 15.306,15.339 15.022 C 15.448 14.846,15.460 14.793,15.460 14.500 C 15.460 14.207,15.448 14.154,15.339 13.978 C 15.161 13.689,14.905 13.545,14.544 13.527 C 14.294 13.515,14.234 13.527,14.042 13.628 " stroke="none" fill-rule="evenodd" fill="black"></path></svg>