<svg width="24" height="24" viewBox="0 0 24 24" fill="none" xmlns="http://www.w3.org/2000/svg"><path d="M11.560 1.267 C 10.326 1.322,9.152 1.571,8.041 2.012 C 7.427 2.256,7.240 2.454,7.240 2.860 C 7.240 3.229,7.525 3.548,7.892 3.589 C 8.032 3.605,8.152 3.574,8.523 3.428 C 9.718 2.955,10.735 2.760,12.006 2.760 C 13.464 2.760,14.754 3.058,16.060 3.698 C 17.024 4.170,17.648 4.611,18.434 5.378 C 19.273 6.195,19.814 6.937,20.303 7.940 C 20.944 9.253,21.240 10.537,21.240 12.000 C 21.240 13.465,20.943 14.752,20.302 16.060 C 19.830 17.024,19.389 17.648,18.622 18.434 C 17.805 19.273,17.063 19.814,16.060 20.303 C 14.747 20.944,13.463 21.240,12.000 21.240 C 10.537 21.240,9.253 20.944,7.940 20.303 C 6.937 19.814,6.195 19.273,5.378 18.434 C 4.611 17.648,4.170 17.024,3.698 16.060 C 3.058 14.754,2.760 13.464,2.760 12.005 C 2.760 10.060,3.331 8.256,4.457 6.648 C 4.701 6.298,4.770 6.095,4.724 5.855 C 4.656 5.497,4.372 5.267,4.000 5.267 C 3.678 5.267,3.534 5.369,3.222 5.816 C 1.432 8.383,0.834 11.537,1.564 14.550 C 1.904 15.951,2.529 17.268,3.424 18.470 C 3.880 19.083,4.909 20.111,5.530 20.575 C 7.606 22.126,10.070 22.870,12.627 22.717 C 14.790 22.588,16.724 21.879,18.470 20.575 C 19.087 20.115,20.115 19.087,20.575 18.470 C 22.127 16.391,22.870 13.930,22.717 11.373 C 22.588 9.210,21.879 7.276,20.575 5.530 C 20.115 4.913,19.087 3.885,18.470 3.425 C 17.047 2.362,15.454 1.679,13.742 1.398 C 13.325 1.330,12.055 1.227,11.880 1.248 C 11.847 1.252,11.703 1.261,11.560 1.267 M13.200 7.266 C 9.900 7.437,7.287 10.151,7.274 13.420 C 7.271 14.026,7.341 14.391,7.544 14.834 C 8.061 15.963,9.169 16.705,10.373 16.729 C 10.732 16.736,10.861 16.691,11.047 16.494 C 11.181 16.353,11.240 16.201,11.240 16.000 C 11.240 15.799,11.181 15.647,11.047 15.506 C 10.885 15.334,10.760 15.285,10.374 15.242 C 9.709 15.167,9.187 14.800,8.908 14.210 C 8.781 13.942,8.780 13.936,8.784 13.340 C 8.789 12.650,8.873 12.254,9.149 11.614 C 9.896 9.886,11.712 8.703,13.520 8.767 C 13.892 8.780,13.971 8.796,14.212 8.910 C 14.574 9.080,14.919 9.425,15.091 9.788 C 15.218 10.056,15.220 10.068,15.219 10.640 C 15.216 11.640,14.959 12.413,14.341 13.272 C 14.194 13.477,14.047 13.710,14.013 13.791 C 13.885 14.097,14.051 14.522,14.358 14.679 C 14.547 14.776,14.873 14.786,15.037 14.701 C 15.411 14.508,16.183 13.251,16.438 12.420 C 16.670 11.664,16.780 10.773,16.717 10.152 C 16.638 9.378,16.301 8.694,15.735 8.158 C 15.044 7.504,14.217 7.214,13.200 7.266 " stroke="none" fill-rule="evenodd" fill="black"></path></svg>