<svg width="24" height="24" viewBox="0 0 24 24" fill="none" xmlns="http://www.w3.org/2000/svg"><path d="M11.560 1.267 C 10.326 1.322,9.152 1.571,8.041 2.012 C 7.427 2.256,7.240 2.454,7.240 2.860 C 7.240 3.229,7.525 3.548,7.892 3.589 C 8.032 3.605,8.152 3.574,8.523 3.428 C 9.718 2.955,10.735 2.760,12.006 2.760 C 13.464 2.760,14.754 3.058,16.060 3.698 C 17.024 4.170,17.648 4.611,18.434 5.378 C 19.273 6.195,19.814 6.937,20.303 7.940 C 20.944 9.253,21.240 10.537,21.240 12.000 C 21.240 13.465,20.943 14.752,20.302 16.060 C 19.830 17.024,19.389 17.648,18.622 18.434 C 17.805 19.273,17.063 19.814,16.060 20.303 C 14.747 20.944,13.463 21.240,12.000 21.240 C 10.537 21.240,9.253 20.944,7.940 20.303 C 6.937 19.814,6.195 19.273,5.378 18.434 C 4.611 17.648,4.170 17.024,3.698 16.060 C 3.058 14.754,2.760 13.464,2.760 12.005 C 2.760 10.060,3.331 8.256,4.457 6.648 C 4.701 6.298,4.770 6.095,4.724 5.855 C 4.656 5.497,4.372 5.267,4.000 5.267 C 3.678 5.267,3.534 5.369,3.222 5.816 C 1.432 8.383,0.834 11.537,1.564 14.550 C 1.904 15.951,2.529 17.268,3.424 18.470 C 3.880 19.083,4.909 20.111,5.530 20.575 C 7.606 22.126,10.070 22.870,12.627 22.717 C 14.790 22.588,16.724 21.879,18.470 20.575 C 19.087 20.115,20.115 19.087,20.575 18.470 C 22.127 16.391,22.870 13.930,22.717 11.373 C 22.588 9.210,21.879 7.276,20.575 5.530 C 20.115 4.913,19.087 3.885,18.470 3.425 C 17.047 2.362,15.454 1.679,13.742 1.398 C 13.325 1.330,12.055 1.227,11.880 1.248 C 11.847 1.252,11.703 1.261,11.560 1.267 M14.900 8.260 C 14.878 8.267,14.806 8.285,14.740 8.299 C 14.650 8.319,13.852 9.091,11.528 11.413 C 9.827 13.111,8.398 14.561,8.351 14.636 C 8.218 14.848,8.233 15.195,8.383 15.408 C 8.447 15.499,8.568 15.608,8.651 15.651 C 8.837 15.747,9.139 15.753,9.325 15.664 C 9.403 15.628,10.805 14.255,12.567 12.490 C 15.576 9.476,15.673 9.374,15.712 9.189 C 15.785 8.834,15.633 8.480,15.352 8.350 C 15.213 8.286,14.968 8.237,14.900 8.260 M9.042 8.628 C 8.331 9.001,8.339 10.029,9.055 10.379 C 9.249 10.474,9.317 10.487,9.554 10.474 C 9.907 10.454,10.164 10.306,10.339 10.022 C 10.448 9.846,10.460 9.793,10.460 9.500 C 10.460 9.207,10.448 9.154,10.339 8.978 C 10.161 8.689,9.905 8.545,9.544 8.527 C 9.294 8.515,9.234 8.527,9.042 8.628 M14.042 13.628 C 13.331 14.001,13.339 15.029,14.055 15.379 C 14.249 15.474,14.317 15.487,14.554 15.474 C 14.907 15.454,15.164 15.306,15.339 15.022 C 15.448 14.846,15.460 14.793,15.460 14.500 C 15.460 14.207,15.448 14.154,15.339 13.978 C 15.161 13.689,14.905 13.545,14.544 13.527 C 14.294 13.515,14.234 13.527,14.042 13.628 " stroke="none" fill-rule="evenodd" fill="black"></path></svg>