<svg width="24" height="24" viewBox="0 0 24 24" fill="none" xmlns="http://www.w3.org/2000/svg"><path d="M18.200 1.259 C 18.013 1.290,16.699 1.605,15.280 1.959 C 12.486 2.657,12.527 2.643,12.352 2.961 C 12.237 3.170,12.266 3.542,12.414 3.736 C 12.548 3.911,12.787 4.040,12.979 4.040 C 13.057 4.040,14.268 3.754,15.670 3.404 C 17.073 3.053,18.349 2.747,18.508 2.724 C 19.884 2.515,20.928 3.070,21.222 4.165 C 21.311 4.494,21.336 5.017,21.283 5.420 C 21.240 5.744,18.912 15.150,18.660 16.017 C 18.486 16.615,18.168 17.118,17.622 17.660 C 17.108 18.170,16.665 18.457,16.120 18.633 C 15.723 18.762,5.976 21.190,5.578 21.259 C 4.155 21.507,3.080 20.961,2.778 19.835 C 2.689 19.505,2.664 18.983,2.718 18.580 C 2.744 18.382,3.267 16.213,3.880 13.760 C 5.238 8.327,5.375 7.802,5.500 7.528 C 5.823 6.824,6.577 6.023,7.296 5.621 C 7.437 5.542,7.710 5.424,7.904 5.359 C 8.415 5.186,8.600 4.979,8.600 4.580 C 8.600 4.211,8.330 3.906,7.959 3.857 C 7.647 3.816,6.875 4.107,6.270 4.495 C 5.255 5.146,4.351 6.249,3.995 7.273 C 3.903 7.536,1.443 17.302,1.318 17.900 C 1.196 18.480,1.170 19.314,1.257 19.835 C 1.339 20.325,1.422 20.576,1.637 20.989 C 1.840 21.378,2.129 21.738,2.451 22.002 C 2.772 22.264,3.407 22.575,3.840 22.681 C 4.283 22.790,5.100 22.827,5.626 22.762 C 6.126 22.700,16.456 20.124,16.877 19.956 C 18.206 19.428,19.551 18.039,20.005 16.727 C 20.090 16.482,22.588 6.563,22.706 6.000 C 22.760 5.745,22.778 5.480,22.777 4.940 C 22.777 4.071,22.705 3.718,22.402 3.100 C 22.054 2.392,21.608 1.946,20.900 1.599 C 20.327 1.317,19.961 1.236,19.180 1.218 C 18.752 1.208,18.428 1.221,18.200 1.259 M11.169 7.841 C 9.547 8.192,8.313 9.359,7.892 10.940 C 7.796 11.297,7.785 11.412,7.785 12.000 C 7.785 12.591,7.796 12.702,7.892 13.059 C 8.297 14.558,9.444 15.706,10.941 16.107 C 11.297 16.203,11.411 16.214,12.000 16.214 C 12.589 16.214,12.703 16.203,13.059 16.107 C 14.556 15.706,15.706 14.556,16.107 13.059 C 16.203 12.703,16.214 12.589,16.214 12.000 C 16.214 11.411,16.203 11.297,16.107 10.941 C 15.705 9.443,14.547 8.286,13.059 7.895 C 12.501 7.749,11.701 7.726,11.169 7.841 M12.720 9.338 C 13.462 9.539,14.136 10.107,14.478 10.820 C 14.683 11.247,14.739 11.498,14.739 12.000 C 14.739 12.502,14.683 12.753,14.478 13.180 C 14.204 13.751,13.752 14.204,13.180 14.478 C 12.753 14.683,12.502 14.739,12.000 14.739 C 11.498 14.739,11.247 14.683,10.820 14.478 C 10.248 14.204,9.796 13.751,9.522 13.180 C 9.317 12.753,9.261 12.502,9.261 12.000 C 9.261 11.498,9.317 11.247,9.522 10.820 C 9.879 10.076,10.621 9.472,11.360 9.325 C 11.481 9.301,11.616 9.272,11.660 9.262 C 11.807 9.228,12.497 9.278,12.720 9.338 " stroke="none" fill-rule="evenodd" fill="black"></path></svg>