<svg width="24" height="24" viewBox="0 0 24 24" fill="none" xmlns="http://www.w3.org/2000/svg"><path d="M7.000 1.982 C 5.964 2.205,4.964 2.944,4.488 3.840 C 4.283 4.225,3.040 8.004,3.040 8.241 C 3.040 8.415,3.144 8.657,3.267 8.768 C 3.383 8.873,3.621 8.960,3.789 8.959 C 3.985 8.958,4.243 8.839,4.354 8.699 C 4.405 8.634,4.706 7.784,5.076 6.661 C 5.426 5.601,5.756 4.646,5.811 4.537 C 6.054 4.058,6.719 3.576,7.320 3.442 C 7.427 3.418,8.360 3.402,9.632 3.401 C 11.919 3.400,12.113 3.414,12.585 3.613 C 12.710 3.666,13.390 4.166,14.335 4.900 L 15.880 6.100 15.880 10.083 L 15.880 14.065 13.839 17.102 C 12.716 18.772,11.741 20.197,11.673 20.267 C 11.471 20.476,11.192 20.578,10.820 20.579 C 10.539 20.580,10.474 20.566,10.285 20.461 C 10.065 20.339,9.863 20.125,9.741 19.884 C 9.603 19.614,9.619 19.387,9.901 17.600 C 10.220 15.573,10.228 15.356,10.001 14.896 C 9.826 14.541,9.538 14.253,9.181 14.077 L 8.902 13.940 6.481 13.919 C 4.143 13.899,4.053 13.896,3.855 13.815 C 3.564 13.696,3.389 13.551,3.265 13.322 C 3.109 13.036,3.092 12.796,3.196 12.386 C 3.288 12.026,3.282 11.927,3.154 11.672 C 2.987 11.338,2.487 11.214,2.136 11.420 C 1.700 11.676,1.504 12.799,1.756 13.601 C 1.974 14.297,2.540 14.887,3.271 15.183 C 3.761 15.381,4.038 15.400,6.365 15.400 C 8.467 15.400,8.522 15.402,8.600 15.480 C 8.644 15.524,8.680 15.604,8.680 15.657 C 8.680 15.710,8.560 16.507,8.414 17.427 C 8.102 19.395,8.085 19.677,8.257 20.180 C 8.445 20.732,8.802 21.243,9.212 21.548 C 10.144 22.240,11.320 22.271,12.348 21.630 C 12.714 21.402,12.899 21.174,13.757 19.897 C 14.185 19.261,14.865 18.250,15.270 17.650 L 16.005 16.560 16.166 16.883 C 16.443 17.437,16.856 17.766,17.520 17.963 C 17.792 18.044,17.927 18.054,18.960 18.070 C 19.981 18.085,20.140 18.078,20.486 18.007 C 21.442 17.811,22.016 17.281,22.269 16.360 C 22.336 16.116,22.340 15.752,22.340 10.560 C 22.340 5.381,22.335 5.002,22.269 4.743 C 22.040 3.851,21.471 3.308,20.540 3.094 C 20.070 2.985,18.170 2.985,17.700 3.094 C 17.010 3.252,16.424 3.664,16.197 4.148 C 16.144 4.263,16.088 4.353,16.073 4.348 C 16.058 4.344,15.513 3.926,14.862 3.420 C 14.211 2.914,13.575 2.442,13.449 2.370 C 13.163 2.209,12.694 2.050,12.290 1.978 C 11.839 1.898,7.377 1.901,7.000 1.982 M20.347 4.576 C 20.577 4.649,20.723 4.792,20.807 5.029 C 20.850 5.152,20.860 6.167,20.860 10.520 C 20.860 16.332,20.868 16.126,20.637 16.357 C 20.442 16.552,20.246 16.580,19.100 16.580 C 17.733 16.580,17.602 16.539,17.436 16.060 C 17.355 15.827,17.353 5.258,17.433 5.029 C 17.601 4.556,17.876 4.477,19.280 4.498 C 19.932 4.508,20.190 4.527,20.347 4.576 " stroke="none" fill-rule="evenodd" fill="black"></path></svg>