<svg width="24" height="24" viewBox="0 0 24 24" fill="none" xmlns="http://www.w3.org/2000/svg"><path d="M8.080 1.282 C 4.042 1.493,1.931 3.265,1.398 6.891 C 1.310 7.494,1.225 8.895,1.264 9.113 C 1.278 9.194,1.325 9.318,1.368 9.389 C 1.658 9.870,2.422 9.836,2.661 9.332 C 2.718 9.212,2.740 9.022,2.765 8.423 C 2.901 5.162,3.931 3.615,6.360 3.025 C 7.319 2.792,7.390 2.787,10.430 2.770 L 13.240 2.755 13.240 4.367 C 13.241 6.111,13.283 7.072,13.382 7.603 C 13.711 9.369,14.636 10.291,16.407 10.619 C 16.891 10.709,17.930 10.764,18.174 10.712 C 18.723 10.597,18.924 9.884,18.522 9.482 C 18.339 9.299,18.129 9.240,17.657 9.240 C 16.958 9.240,16.106 9.056,15.698 8.817 C 15.213 8.533,14.919 7.933,14.801 6.988 C 14.778 6.809,14.760 6.023,14.760 5.241 L 14.760 3.820 18.002 7.060 L 21.243 10.300 21.229 13.340 C 21.213 16.665,21.212 16.672,20.960 17.688 C 20.504 19.519,19.520 20.504,17.688 20.960 C 16.622 21.226,16.745 21.220,12.000 21.220 C 8.064 21.220,7.661 21.214,7.240 21.148 C 4.756 20.761,3.576 19.795,3.044 17.712 C 2.820 16.833,2.790 16.496,2.764 14.560 C 2.737 12.615,2.744 12.670,2.494 12.433 C 2.217 12.171,1.783 12.171,1.506 12.433 C 1.266 12.660,1.261 12.686,1.247 13.840 C 1.224 15.669,1.334 17.076,1.575 18.027 C 2.132 20.224,3.337 21.567,5.356 22.242 C 6.191 22.521,6.998 22.657,8.193 22.720 C 9.162 22.771,14.838 22.771,15.807 22.720 C 17.002 22.657,17.809 22.521,18.644 22.242 C 20.966 21.466,22.225 19.797,22.622 16.973 C 22.726 16.235,22.759 15.121,22.759 12.460 C 22.758 10.001,22.754 9.851,22.683 9.700 C 22.576 9.472,14.478 1.387,14.271 1.301 C 14.142 1.248,13.764 1.241,11.391 1.246 C 9.889 1.249,8.399 1.266,8.080 1.282 M10.815 12.278 C 10.640 12.320,10.462 12.455,10.356 12.626 C 10.253 12.794,10.233 13.156,10.319 13.320 C 10.348 13.375,10.550 13.602,10.769 13.825 L 11.166 14.230 10.653 14.248 C 10.111 14.266,9.985 14.302,9.812 14.487 C 9.697 14.609,9.600 14.845,9.600 15.000 C 9.600 15.155,9.697 15.391,9.812 15.513 C 9.985 15.698,10.111 15.734,10.653 15.752 L 11.166 15.770 10.769 16.175 C 10.550 16.398,10.348 16.625,10.319 16.680 C 10.290 16.735,10.267 16.881,10.267 17.004 C 10.267 17.499,10.682 17.817,11.189 17.711 C 11.369 17.673,11.445 17.607,12.495 16.565 C 13.637 15.433,13.758 15.282,13.758 15.000 C 13.758 14.718,13.637 14.567,12.495 13.436 C 11.475 12.426,11.364 12.328,11.192 12.286 C 10.986 12.235,10.993 12.236,10.815 12.278 M6.815 14.278 C 6.331 14.393,6.098 15.004,6.383 15.408 C 6.576 15.681,6.733 15.736,7.363 15.754 C 8.073 15.773,8.316 15.724,8.519 15.521 C 8.918 15.122,8.731 14.423,8.189 14.286 C 7.988 14.236,7.016 14.230,6.815 14.278 " stroke="none" fill-rule="evenodd" fill="black"></path></svg>