<svg width="24" height="24" viewBox="0 0 24 24" fill="none" xmlns="http://www.w3.org/2000/svg"><path d="M7.400 1.282 C 4.650 1.459,2.880 2.935,2.397 5.454 C 2.261 6.163,2.235 7.088,2.248 10.740 L 2.260 14.220 2.353 14.369 C 2.664 14.870,3.408 14.849,3.664 14.332 C 3.737 14.187,3.741 13.996,3.762 10.100 L 3.785 6.020 3.889 5.595 C 4.083 4.805,4.358 4.282,4.820 3.820 C 5.288 3.352,5.812 3.079,6.615 2.887 L 7.060 2.780 12.000 2.780 L 16.940 2.780 17.385 2.887 C 18.909 3.252,19.738 4.076,20.111 5.595 L 20.215 6.020 20.237 9.620 L 20.260 13.220 20.366 13.400 C 20.653 13.888,21.360 13.884,21.640 13.394 L 21.740 13.220 21.752 10.240 C 21.766 7.061,21.736 6.127,21.598 5.438 C 21.340 4.143,20.717 3.064,19.845 2.406 C 18.895 1.688,17.970 1.375,16.520 1.280 C 15.849 1.236,8.086 1.237,7.400 1.282 M14.180 3.835 C 13.990 3.923,13.904 4.012,13.822 4.210 C 13.734 4.419,13.733 6.684,13.820 7.100 C 13.981 7.868,14.560 8.598,15.300 8.963 C 15.805 9.213,16.002 9.239,17.420 9.238 C 18.538 9.238,18.676 9.231,18.820 9.165 C 19.010 9.077,19.096 8.988,19.178 8.790 C 19.326 8.437,19.187 8.026,18.860 7.846 C 18.758 7.790,18.549 7.777,17.480 7.760 C 16.224 7.740,16.219 7.740,16.000 7.635 C 15.720 7.503,15.497 7.280,15.365 7.000 C 15.260 6.781,15.260 6.776,15.240 5.520 C 15.223 4.451,15.210 4.242,15.154 4.140 C 14.969 3.802,14.543 3.669,14.180 3.835 M3.900 16.259 C 3.878 16.267,3.806 16.285,3.740 16.300 C 3.653 16.319,3.315 16.630,2.528 17.413 C 1.927 18.011,1.397 18.561,1.351 18.636 C 1.235 18.822,1.235 19.178,1.351 19.364 C 1.397 19.439,1.927 19.988,2.528 20.585 C 3.553 21.605,3.632 21.673,3.810 21.711 C 4.390 21.832,4.832 21.389,4.710 20.810 C 4.673 20.634,4.609 20.559,3.867 19.810 L 3.064 19.000 3.867 18.190 C 4.611 17.439,4.673 17.366,4.711 17.189 C 4.782 16.848,4.658 16.530,4.389 16.367 C 4.265 16.292,3.983 16.229,3.900 16.259 M6.815 16.277 C 6.640 16.320,6.462 16.456,6.356 16.626 C 6.253 16.793,6.233 17.156,6.318 17.320 C 6.347 17.375,6.723 17.776,7.154 18.210 L 7.937 19.000 7.154 19.790 C 6.723 20.225,6.347 20.625,6.318 20.680 C 6.290 20.735,6.267 20.884,6.267 21.011 C 6.267 21.202,6.287 21.271,6.383 21.408 C 6.447 21.499,6.568 21.608,6.651 21.651 C 6.838 21.747,7.139 21.753,7.327 21.664 C 7.403 21.627,7.962 21.099,8.568 20.489 C 9.605 19.447,9.673 19.369,9.711 19.190 C 9.737 19.064,9.737 18.936,9.711 18.810 C 9.673 18.632,9.605 18.553,8.585 17.528 C 7.988 16.927,7.446 16.402,7.380 16.362 C 7.235 16.273,6.985 16.236,6.815 16.277 M20.815 16.277 C 20.640 16.320,20.462 16.456,20.359 16.622 C 20.285 16.742,20.266 16.856,20.236 17.367 C 20.159 18.664,19.836 19.524,19.180 20.180 C 18.718 20.643,18.193 20.918,17.405 21.110 L 16.980 21.214 13.880 21.237 L 10.780 21.260 10.627 21.355 C 10.385 21.506,10.267 21.718,10.267 22.003 C 10.267 22.203,10.286 22.270,10.383 22.408 C 10.447 22.499,10.572 22.610,10.660 22.656 C 10.816 22.738,10.875 22.740,13.300 22.752 C 15.808 22.764,16.816 22.733,17.441 22.623 C 20.034 22.166,21.541 20.387,21.717 17.571 C 21.756 16.939,21.729 16.731,21.580 16.536 C 21.421 16.327,21.078 16.211,20.815 16.277 " stroke="none" fill-rule="evenodd" fill="black"></path></svg>