<svg width="24" height="24" viewBox="0 0 24 24" fill="none" xmlns="http://www.w3.org/2000/svg"><path d="M8.080 1.282 C 4.042 1.493,1.931 3.265,1.398 6.891 C 1.310 7.494,1.225 8.895,1.264 9.113 C 1.278 9.194,1.325 9.318,1.368 9.389 C 1.658 9.870,2.422 9.836,2.661 9.332 C 2.718 9.212,2.740 9.022,2.765 8.423 C 2.901 5.162,3.931 3.615,6.360 3.025 C 7.319 2.792,7.390 2.787,10.430 2.770 L 13.240 2.755 13.240 4.367 C 13.241 6.111,13.283 7.072,13.382 7.603 C 13.711 9.369,14.636 10.291,16.407 10.619 C 16.891 10.709,17.930 10.764,18.174 10.712 C 18.723 10.597,18.924 9.884,18.522 9.482 C 18.339 9.299,18.129 9.240,17.657 9.240 C 16.958 9.240,16.106 9.056,15.698 8.817 C 15.213 8.533,14.919 7.933,14.801 6.988 C 14.778 6.809,14.760 6.023,14.760 5.241 L 14.760 3.820 18.002 7.060 L 21.243 10.300 21.229 13.340 C 21.213 16.665,21.212 16.672,20.960 17.688 C 20.504 19.519,19.520 20.504,17.688 20.960 C 16.622 21.226,16.745 21.220,12.000 21.220 C 8.064 21.220,7.661 21.214,7.240 21.148 C 4.756 20.761,3.576 19.795,3.044 17.712 C 2.820 16.833,2.790 16.496,2.764 14.560 C 2.737 12.615,2.744 12.670,2.494 12.433 C 2.217 12.171,1.783 12.171,1.506 12.433 C 1.266 12.660,1.261 12.686,1.247 13.840 C 1.224 15.669,1.334 17.076,1.575 18.027 C 2.132 20.224,3.337 21.567,5.356 22.242 C 6.191 22.521,6.998 22.657,8.193 22.720 C 9.162 22.771,14.838 22.771,15.807 22.720 C 17.002 22.657,17.809 22.521,18.644 22.242 C 20.966 21.466,22.225 19.797,22.622 16.973 C 22.726 16.235,22.759 15.121,22.759 12.460 C 22.758 10.001,22.754 9.851,22.683 9.700 C 22.576 9.472,14.478 1.387,14.271 1.301 C 14.142 1.248,13.764 1.241,11.391 1.246 C 9.889 1.249,8.399 1.266,8.080 1.282 M7.895 12.278 C 7.037 12.411,6.357 12.955,6.001 13.792 C 5.347 15.329,6.080 17.187,7.780 18.301 C 8.592 18.833,9.377 19.061,9.740 18.870 C 10.193 18.632,10.304 18.063,9.967 17.706 C 9.829 17.560,9.703 17.496,9.480 17.460 C 9.227 17.419,8.638 17.107,8.295 16.831 C 7.613 16.282,7.184 15.457,7.261 14.841 C 7.342 14.188,7.718 13.760,8.210 13.760 C 8.469 13.760,8.590 13.816,8.820 14.040 C 9.049 14.264,9.171 14.320,9.427 14.320 C 9.664 14.320,9.852 14.227,10.005 14.034 C 10.167 13.829,10.320 13.754,10.580 13.754 C 10.950 13.754,11.249 13.966,11.436 14.360 C 11.526 14.551,11.540 14.629,11.536 14.960 C 11.534 15.169,11.519 15.469,11.501 15.628 C 11.472 15.895,11.477 15.928,11.573 16.092 C 11.746 16.387,12.056 16.521,12.370 16.438 C 12.763 16.333,12.916 16.104,13.026 15.456 C 13.250 14.130,12.541 12.805,11.391 12.400 C 10.753 12.176,10.105 12.214,9.532 12.510 C 9.410 12.573,9.395 12.572,9.232 12.491 C 8.855 12.305,8.296 12.216,7.895 12.278 " stroke="none" fill-rule="evenodd" fill="black"></path></svg>