<svg width="24" height="24" viewBox="0 0 24 24" fill="none" xmlns="http://www.w3.org/2000/svg"><path d="M9.595 1.282 C 9.168 1.329,8.834 1.421,8.452 1.600 C 7.597 1.999,7.046 2.540,6.639 3.380 C 6.414 3.842,6.336 4.121,6.282 4.645 C 6.237 5.076,6.268 5.264,6.414 5.455 C 6.691 5.819,7.308 5.820,7.584 5.458 C 7.681 5.332,7.698 5.262,7.795 4.587 C 7.910 3.785,8.604 3.034,9.428 2.820 C 9.620 2.770,10.104 2.760,12.443 2.760 L 15.229 2.760 15.253 4.290 C 15.279 5.879,15.307 6.190,15.475 6.734 C 15.746 7.611,16.324 8.202,17.205 8.502 C 17.758 8.690,18.109 8.725,19.730 8.749 L 21.240 8.771 21.240 11.637 C 21.240 14.793,21.243 14.756,20.992 15.195 C 20.839 15.462,20.485 15.823,20.229 15.973 C 19.948 16.137,19.745 16.198,19.330 16.241 C 18.820 16.294,18.639 16.400,18.502 16.729 C 18.356 17.078,18.511 17.486,18.860 17.671 C 19.000 17.746,19.459 17.749,19.850 17.678 C 21.034 17.464,22.095 16.572,22.518 15.435 C 22.737 14.847,22.733 14.921,22.749 11.282 C 22.763 8.306,22.757 7.884,22.703 7.742 C 22.654 7.615,21.959 6.899,19.510 4.454 C 16.427 1.374,16.377 1.327,16.180 1.287 C 15.937 1.238,10.045 1.233,9.595 1.282 M19.310 7.231 C 17.444 7.256,16.985 7.001,16.802 5.840 C 16.779 5.697,16.760 5.184,16.760 4.700 L 16.760 3.820 18.460 5.520 L 20.160 7.220 19.310 7.231 M6.765 6.283 C 4.103 6.453,2.479 7.468,1.747 9.420 C 1.487 10.115,1.344 10.864,1.279 11.880 C 1.233 12.602,1.248 12.794,1.367 12.989 C 1.659 13.469,2.422 13.437,2.660 12.935 C 2.714 12.821,2.739 12.619,2.765 12.108 C 2.824 10.948,2.972 10.277,3.329 9.561 C 3.622 8.974,3.974 8.622,4.561 8.329 C 4.792 8.214,5.141 8.075,5.339 8.019 C 6.082 7.809,6.301 7.789,8.125 7.770 L 9.829 7.753 9.851 9.386 C 9.874 11.105,9.903 11.438,10.084 12.022 C 10.422 13.120,11.170 13.768,12.394 14.022 C 12.827 14.112,13.733 14.164,13.974 14.113 C 14.524 13.996,14.724 13.284,14.320 12.880 C 14.143 12.703,13.918 12.640,13.463 12.640 C 12.774 12.640,12.127 12.449,11.839 12.161 C 11.468 11.790,11.360 11.264,11.360 9.825 L 11.360 8.820 13.802 11.260 L 16.244 13.700 16.229 15.640 C 16.212 17.723,16.197 17.896,15.981 18.661 C 15.925 18.859,15.787 19.206,15.674 19.434 C 15.384 20.016,15.016 20.384,14.434 20.674 C 13.987 20.896,13.522 21.043,12.920 21.151 C 12.583 21.212,12.196 21.220,9.500 21.220 C 6.804 21.220,6.417 21.212,6.080 21.151 C 5.476 21.043,5.012 20.896,4.561 20.671 C 3.974 20.378,3.622 20.026,3.329 19.439 C 2.972 18.722,2.824 18.052,2.765 16.887 C 2.726 16.107,2.684 15.978,2.408 15.783 C 2.078 15.551,1.582 15.658,1.369 16.007 C 1.248 16.206,1.233 16.395,1.279 17.120 C 1.328 17.882,1.401 18.384,1.542 18.920 C 2.137 21.183,3.546 22.321,6.181 22.667 C 6.677 22.732,7.052 22.740,9.500 22.740 C 11.948 22.740,12.323 22.732,12.819 22.667 C 15.454 22.321,16.863 21.183,17.458 18.920 C 17.697 18.012,17.760 17.161,17.759 14.880 C 17.758 13.380,17.753 13.248,17.683 13.100 C 17.577 12.873,11.078 6.387,10.871 6.301 C 10.745 6.249,10.466 6.241,8.991 6.246 C 8.039 6.249,7.037 6.266,6.765 6.283 " stroke="none" fill-rule="evenodd" fill="black"></path></svg>