<svg width="24" height="24" viewBox="0 0 24 24" fill="none" xmlns="http://www.w3.org/2000/svg"><path d="M8.080 1.282 C 4.042 1.493,1.931 3.265,1.398 6.891 C 1.310 7.494,1.225 8.895,1.264 9.113 C 1.278 9.194,1.325 9.318,1.368 9.389 C 1.658 9.870,2.422 9.836,2.661 9.332 C 2.718 9.212,2.740 9.022,2.765 8.423 C 2.901 5.162,3.931 3.615,6.360 3.025 C 7.319 2.792,7.390 2.787,10.430 2.770 L 13.240 2.755 13.240 4.367 C 13.241 6.111,13.283 7.072,13.382 7.603 C 13.711 9.369,14.636 10.291,16.407 10.619 C 16.891 10.709,17.930 10.764,18.174 10.712 C 18.723 10.597,18.924 9.884,18.522 9.482 C 18.339 9.299,18.129 9.240,17.657 9.240 C 16.958 9.240,16.106 9.056,15.698 8.817 C 15.213 8.533,14.919 7.933,14.801 6.988 C 14.778 6.809,14.760 6.023,14.760 5.241 L 14.760 3.820 18.002 7.060 L 21.243 10.300 21.229 13.340 C 21.213 16.665,21.212 16.672,20.960 17.688 C 20.504 19.519,19.520 20.504,17.688 20.960 C 16.622 21.226,16.745 21.220,12.000 21.220 C 8.064 21.220,7.661 21.214,7.240 21.148 C 4.756 20.761,3.576 19.795,3.044 17.712 C 2.820 16.833,2.790 16.496,2.764 14.560 C 2.737 12.615,2.744 12.670,2.494 12.433 C 2.217 12.171,1.783 12.171,1.506 12.433 C 1.266 12.660,1.261 12.686,1.247 13.840 C 1.224 15.669,1.334 17.076,1.575 18.027 C 2.132 20.224,3.337 21.567,5.356 22.242 C 6.191 22.521,6.998 22.657,8.193 22.720 C 9.162 22.771,14.838 22.771,15.807 22.720 C 17.002 22.657,17.809 22.521,18.644 22.242 C 20.966 21.466,22.225 19.797,22.622 16.973 C 22.726 16.235,22.759 15.121,22.759 12.460 C 22.758 10.001,22.754 9.851,22.683 9.700 C 22.576 9.472,14.478 1.387,14.271 1.301 C 14.142 1.248,13.764 1.241,11.391 1.246 C 9.889 1.249,8.399 1.266,8.080 1.282 M8.900 12.258 C 8.878 12.266,8.806 12.285,8.740 12.300 C 8.578 12.336,6.424 14.469,6.316 14.700 C 6.222 14.903,6.222 15.097,6.316 15.300 C 6.365 15.404,6.779 15.845,7.505 16.565 C 8.552 17.604,8.632 17.673,8.810 17.711 C 9.389 17.832,9.833 17.388,9.710 16.812 C 9.676 16.649,9.614 16.567,9.253 16.197 L 8.837 15.770 9.348 15.752 C 9.889 15.734,10.015 15.698,10.188 15.513 C 10.303 15.391,10.400 15.155,10.400 15.000 C 10.400 14.845,10.303 14.609,10.188 14.487 C 10.015 14.302,9.889 14.266,9.348 14.248 L 8.837 14.230 9.253 13.803 C 9.615 13.432,9.675 13.351,9.711 13.186 C 9.785 12.836,9.634 12.482,9.352 12.349 C 9.212 12.283,8.967 12.234,8.900 12.258 M11.815 14.278 C 11.331 14.393,11.098 15.004,11.383 15.408 C 11.576 15.681,11.733 15.736,12.363 15.754 C 13.073 15.773,13.316 15.724,13.519 15.521 C 13.918 15.122,13.731 14.423,13.189 14.286 C 12.988 14.236,12.016 14.230,11.815 14.278 " stroke="none" fill-rule="evenodd" fill="black"></path></svg>