<svg width="24" height="24" viewBox="0 0 24 24" fill="none" xmlns="http://www.w3.org/2000/svg"><path d="M8.080 1.282 C 4.042 1.493,1.931 3.265,1.398 6.891 C 1.310 7.494,1.225 8.895,1.264 9.113 C 1.278 9.194,1.325 9.318,1.368 9.389 C 1.658 9.870,2.422 9.836,2.661 9.332 C 2.718 9.212,2.740 9.022,2.765 8.423 C 2.901 5.162,3.931 3.615,6.360 3.025 C 7.319 2.792,7.390 2.787,10.430 2.770 L 13.240 2.755 13.240 4.367 C 13.241 6.111,13.283 7.072,13.382 7.603 C 13.711 9.369,14.636 10.291,16.407 10.619 C 16.891 10.709,17.930 10.764,18.174 10.712 C 18.723 10.597,18.924 9.884,18.522 9.482 C 18.339 9.299,18.129 9.240,17.657 9.240 C 16.958 9.240,16.106 9.056,15.698 8.817 C 15.213 8.533,14.919 7.933,14.801 6.988 C 14.778 6.809,14.760 6.023,14.760 5.241 L 14.760 3.820 18.002 7.060 L 21.243 10.300 21.229 13.340 C 21.213 16.665,21.212 16.672,20.960 17.688 C 20.504 19.519,19.520 20.504,17.688 20.960 C 16.622 21.226,16.745 21.220,12.000 21.220 C 8.064 21.220,7.661 21.214,7.240 21.148 C 4.756 20.761,3.576 19.795,3.044 17.712 C 2.820 16.833,2.790 16.496,2.764 14.560 C 2.737 12.615,2.744 12.670,2.494 12.433 C 2.217 12.171,1.783 12.171,1.506 12.433 C 1.266 12.660,1.261 12.686,1.247 13.840 C 1.224 15.669,1.334 17.076,1.575 18.027 C 2.132 20.224,3.337 21.567,5.356 22.242 C 6.191 22.521,6.998 22.657,8.193 22.720 C 9.162 22.771,14.838 22.771,15.807 22.720 C 17.002 22.657,17.809 22.521,18.644 22.242 C 20.966 21.466,22.225 19.797,22.622 16.973 C 22.726 16.235,22.759 15.121,22.759 12.460 C 22.758 10.001,22.754 9.851,22.683 9.700 C 22.576 9.472,14.478 1.387,14.271 1.301 C 14.142 1.248,13.764 1.241,11.391 1.246 C 9.889 1.249,8.399 1.266,8.080 1.282 M8.700 10.316 C 8.529 10.396,6.413 12.496,6.318 12.680 C 6.290 12.735,6.267 12.881,6.267 13.004 C 6.267 13.498,6.683 13.818,7.186 13.711 C 7.351 13.675,7.432 13.615,7.803 13.253 L 8.230 12.837 8.248 13.348 C 8.266 13.889,8.302 14.015,8.487 14.188 C 8.609 14.303,8.845 14.400,9.000 14.400 C 9.155 14.400,9.391 14.303,9.513 14.188 C 9.698 14.015,9.734 13.889,9.752 13.348 L 9.770 12.837 10.197 13.253 C 10.567 13.614,10.649 13.676,10.812 13.710 C 11.388 13.833,11.832 13.389,11.711 12.810 C 11.673 12.632,11.604 12.552,10.565 11.505 C 9.845 10.779,9.404 10.365,9.300 10.316 C 9.097 10.222,8.903 10.222,8.700 10.316 M8.815 15.277 C 8.638 15.321,8.461 15.456,8.353 15.631 C 8.265 15.772,8.260 15.816,8.260 16.500 C 8.260 17.184,8.265 17.228,8.353 17.369 C 8.710 17.943,9.576 17.812,9.716 17.162 C 9.771 16.904,9.772 16.080,9.717 15.841 C 9.623 15.432,9.215 15.177,8.815 15.277 " stroke="none" fill-rule="evenodd" fill="black"></path></svg>