<svg width="24" height="24" viewBox="0 0 24 24" fill="none" xmlns="http://www.w3.org/2000/svg"><path d="M8.080 1.282 C 4.042 1.493,1.931 3.265,1.398 6.891 C 1.310 7.494,1.225 8.895,1.264 9.113 C 1.278 9.194,1.325 9.318,1.368 9.389 C 1.658 9.870,2.422 9.836,2.661 9.332 C 2.718 9.212,2.740 9.022,2.765 8.423 C 2.901 5.162,3.931 3.615,6.360 3.025 C 7.319 2.792,7.390 2.787,10.430 2.770 L 13.240 2.755 13.240 4.367 C 13.241 6.111,13.283 7.072,13.382 7.603 C 13.711 9.369,14.636 10.291,16.407 10.619 C 16.891 10.709,17.930 10.764,18.174 10.712 C 18.723 10.597,18.924 9.884,18.522 9.482 C 18.339 9.299,18.129 9.240,17.657 9.240 C 16.958 9.240,16.106 9.056,15.698 8.817 C 15.213 8.533,14.919 7.933,14.801 6.988 C 14.778 6.809,14.760 6.023,14.760 5.241 L 14.760 3.820 18.002 7.060 L 21.243 10.300 21.229 13.340 C 21.213 16.665,21.212 16.672,20.960 17.688 C 20.504 19.519,19.520 20.504,17.688 20.960 C 16.622 21.226,16.745 21.220,12.000 21.220 C 8.064 21.220,7.661 21.214,7.240 21.148 C 4.756 20.761,3.576 19.795,3.044 17.712 C 2.820 16.833,2.790 16.496,2.764 14.560 C 2.737 12.615,2.744 12.670,2.494 12.433 C 2.217 12.171,1.783 12.171,1.506 12.433 C 1.266 12.660,1.261 12.686,1.247 13.840 C 1.224 15.669,1.334 17.076,1.575 18.027 C 2.132 20.224,3.337 21.567,5.356 22.242 C 6.191 22.521,6.998 22.657,8.193 22.720 C 9.162 22.771,14.838 22.771,15.807 22.720 C 17.002 22.657,17.809 22.521,18.644 22.242 C 20.966 21.466,22.225 19.797,22.622 16.973 C 22.726 16.235,22.759 15.121,22.759 12.460 C 22.758 10.001,22.754 9.851,22.683 9.700 C 22.576 9.472,14.478 1.387,14.271 1.301 C 14.142 1.248,13.764 1.241,11.391 1.246 C 9.889 1.249,8.399 1.266,8.080 1.282 M8.069 11.282 C 7.758 11.334,7.380 11.534,7.149 11.770 C 6.856 12.069,5.706 13.839,5.624 14.117 C 5.493 14.562,5.570 15.115,5.815 15.492 C 5.890 15.606,6.569 16.315,7.326 17.068 C 8.495 18.231,8.735 18.451,8.930 18.541 C 9.564 18.831,10.323 18.708,10.792 18.239 C 11.070 17.961,11.110 17.584,10.894 17.271 C 10.671 16.949,10.168 16.862,9.866 17.093 C 9.788 17.152,9.693 17.200,9.652 17.200 C 9.564 17.200,7.040 14.687,7.040 14.599 C 7.040 14.565,7.305 14.143,7.630 13.659 L 8.220 12.780 9.615 12.769 C 10.693 12.761,11.025 12.770,11.072 12.809 C 11.171 12.890,12.240 14.522,12.240 14.592 C 12.240 14.627,12.193 14.723,12.137 14.805 C 11.877 15.180,12.007 15.697,12.415 15.908 C 12.573 15.989,12.907 15.990,13.064 15.908 C 13.242 15.816,13.474 15.543,13.593 15.285 C 13.729 14.990,13.761 14.443,13.663 14.106 C 13.581 13.822,12.340 11.940,12.075 11.697 C 11.847 11.488,11.522 11.335,11.197 11.282 C 10.899 11.234,8.355 11.233,8.069 11.282 " stroke="none" fill-rule="evenodd" fill="black"></path></svg>