<svg width="24" height="24" viewBox="0 0 24 24" fill="none" xmlns="http://www.w3.org/2000/svg"><path d="M8.080 1.282 C 4.042 1.493,1.931 3.265,1.398 6.891 C 1.310 7.494,1.225 8.895,1.264 9.113 C 1.278 9.194,1.325 9.318,1.368 9.389 C 1.658 9.870,2.422 9.836,2.661 9.332 C 2.718 9.212,2.740 9.022,2.765 8.423 C 2.901 5.162,3.931 3.615,6.360 3.025 C 7.319 2.792,7.390 2.787,10.430 2.770 L 13.240 2.755 13.240 4.367 C 13.241 6.111,13.283 7.072,13.382 7.603 C 13.711 9.366,14.632 10.287,16.400 10.618 C 16.921 10.716,17.905 10.759,19.647 10.759 L 21.235 10.760 21.247 11.990 C 21.260 13.196,21.262 13.223,21.353 13.369 C 21.710 13.943,22.576 13.812,22.716 13.162 C 22.744 13.031,22.760 12.391,22.759 11.408 C 22.758 9.978,22.752 9.848,22.683 9.700 C 22.576 9.472,14.478 1.387,14.271 1.301 C 14.142 1.248,13.764 1.241,11.391 1.246 C 9.889 1.249,8.399 1.266,8.080 1.282 M18.750 9.231 C 17.625 9.240,17.251 9.229,16.900 9.178 C 15.671 9.001,15.172 8.607,14.919 7.615 C 14.786 7.097,14.760 6.705,14.760 5.241 L 14.760 3.820 17.460 6.520 L 20.160 9.220 18.750 9.231 M1.815 12.278 C 1.639 12.320,1.462 12.455,1.353 12.631 C 1.263 12.775,1.260 12.812,1.247 13.840 C 1.224 15.669,1.334 17.076,1.575 18.027 C 2.267 20.757,3.971 22.193,7.027 22.622 C 7.680 22.714,8.919 22.768,9.163 22.716 C 9.827 22.573,9.943 21.631,9.332 21.338 C 9.210 21.280,9.029 21.259,8.420 21.235 C 5.201 21.106,3.652 20.091,3.044 17.712 C 2.820 16.835,2.790 16.494,2.764 14.580 C 2.742 12.963,2.734 12.808,2.664 12.668 C 2.573 12.484,2.395 12.343,2.180 12.284 C 2.003 12.236,1.993 12.236,1.815 12.278 M16.143 13.242 C 14.638 13.478,13.445 14.431,12.988 15.760 C 12.827 16.228,12.786 16.553,12.810 17.163 L 12.832 17.708 12.650 17.797 C 12.195 18.017,11.759 18.460,11.522 18.941 C 11.340 19.312,11.268 19.643,11.267 20.120 C 11.266 20.614,11.337 20.930,11.546 21.358 C 11.751 21.777,12.227 22.254,12.640 22.454 C 13.248 22.748,13.094 22.735,16.320 22.750 C 18.130 22.759,19.374 22.748,19.631 22.723 C 21.137 22.571,22.371 21.504,22.658 20.106 C 22.693 19.933,22.723 19.600,22.725 19.366 C 22.732 17.952,21.858 16.639,20.589 16.156 C 20.364 16.070,20.358 16.064,20.294 15.847 C 19.934 14.607,18.916 13.625,17.673 13.318 C 17.290 13.223,16.507 13.184,16.143 13.242 M17.230 14.740 C 18.113 14.948,18.714 15.601,18.959 16.616 C 19.006 16.812,19.071 17.023,19.102 17.084 C 19.197 17.267,19.398 17.388,19.754 17.476 C 20.193 17.585,20.438 17.724,20.710 18.017 C 21.295 18.650,21.410 19.610,20.986 20.333 C 20.853 20.560,20.485 20.896,20.224 21.028 C 19.804 21.242,19.848 21.239,16.600 21.239 C 13.649 21.238,13.576 21.236,13.400 21.157 C 12.998 20.975,12.761 20.605,12.761 20.160 C 12.760 19.822,12.813 19.641,12.973 19.431 C 13.147 19.203,13.373 19.085,13.767 19.016 C 14.141 18.951,14.316 18.843,14.440 18.599 C 14.545 18.395,14.540 18.213,14.420 17.803 C 14.154 16.899,14.304 16.095,14.850 15.496 C 15.425 14.866,16.421 14.549,17.230 14.740 " stroke="none" fill-rule="evenodd" fill="black"></path></svg>