<svg width="24" height="24" viewBox="0 0 24 24" fill="none" xmlns="http://www.w3.org/2000/svg"><path d="M7.400 1.282 C 4.652 1.459,2.905 2.910,2.403 5.434 C 2.307 5.914,2.231 6.962,2.277 7.166 C 2.394 7.686,3.033 7.909,3.464 7.580 C 3.673 7.420,3.724 7.254,3.765 6.606 C 3.845 5.328,4.170 4.470,4.820 3.820 C 5.288 3.352,5.812 3.079,6.615 2.887 L 7.060 2.780 12.000 2.780 L 16.940 2.780 17.385 2.887 C 18.188 3.079,18.712 3.352,19.180 3.820 C 19.648 4.288,19.921 4.812,20.113 5.615 L 20.220 6.060 20.220 12.000 L 20.220 17.940 20.113 18.385 C 19.921 19.188,19.648 19.712,19.180 20.180 C 18.712 20.648,18.188 20.921,17.385 21.113 L 16.940 21.220 12.000 21.220 L 7.060 21.220 6.615 21.113 C 5.091 20.748,4.262 19.924,3.889 18.405 L 3.785 17.980 3.763 14.400 C 3.738 10.461,3.756 10.720,3.494 10.473 C 3.353 10.339,3.201 10.280,3.000 10.280 C 2.799 10.280,2.647 10.339,2.506 10.473 C 2.246 10.719,2.261 10.524,2.248 13.780 C 2.234 16.939,2.265 17.873,2.402 18.562 C 2.660 19.857,3.283 20.936,4.155 21.594 C 5.105 22.312,6.030 22.625,7.480 22.720 C 8.235 22.770,15.765 22.770,16.520 22.720 C 16.839 22.700,17.253 22.656,17.441 22.623 C 19.703 22.226,21.146 20.813,21.599 18.555 C 21.740 17.850,21.760 17.062,21.760 12.000 C 21.760 6.926,21.741 6.153,21.597 5.434 C 21.340 4.143,20.715 3.063,19.845 2.406 C 18.895 1.688,17.970 1.375,16.520 1.280 C 15.849 1.236,8.086 1.237,7.400 1.282 M14.180 3.835 C 13.990 3.923,13.904 4.012,13.822 4.210 C 13.734 4.419,13.733 6.684,13.820 7.100 C 13.981 7.868,14.560 8.598,15.300 8.963 C 15.805 9.213,16.002 9.239,17.420 9.238 C 18.538 9.238,18.676 9.231,18.820 9.165 C 19.010 9.077,19.096 8.988,19.178 8.790 C 19.326 8.437,19.187 8.026,18.860 7.846 C 18.758 7.790,18.549 7.777,17.480 7.760 C 16.224 7.740,16.219 7.740,16.000 7.635 C 15.720 7.503,15.497 7.280,15.365 7.000 C 15.260 6.781,15.260 6.776,15.240 5.520 C 15.223 4.451,15.210 4.242,15.154 4.140 C 14.969 3.802,14.543 3.669,14.180 3.835 M9.900 12.258 C 9.878 12.266,9.806 12.285,9.740 12.300 C 9.653 12.319,9.315 12.630,8.528 13.413 C 7.927 14.011,7.397 14.561,7.351 14.636 C 7.235 14.822,7.235 15.178,7.351 15.364 C 7.397 15.439,7.927 15.988,8.528 16.585 C 9.553 17.605,9.632 17.673,9.810 17.711 C 10.390 17.832,10.832 17.389,10.710 16.810 C 10.673 16.634,10.609 16.559,9.867 15.810 L 9.064 15.000 9.867 14.190 C 10.611 13.439,10.673 13.366,10.711 13.189 C 10.785 12.835,10.634 12.482,10.352 12.349 C 10.212 12.283,9.967 12.234,9.900 12.258 M13.815 12.277 C 13.639 12.320,13.461 12.456,13.356 12.626 C 13.253 12.793,13.233 13.156,13.318 13.320 C 13.347 13.375,13.723 13.775,14.154 14.210 L 14.937 15.000 14.154 15.790 C 13.723 16.224,13.347 16.625,13.318 16.680 C 13.290 16.735,13.267 16.884,13.267 17.011 C 13.267 17.202,13.287 17.271,13.383 17.408 C 13.447 17.499,13.568 17.608,13.651 17.651 C 13.838 17.747,14.139 17.753,14.327 17.664 C 14.403 17.627,14.962 17.099,15.568 16.489 C 16.605 15.447,16.673 15.369,16.711 15.190 C 16.737 15.064,16.737 14.936,16.711 14.810 C 16.673 14.631,16.605 14.553,15.568 13.511 C 14.962 12.901,14.410 12.376,14.343 12.344 C 14.177 12.266,13.966 12.239,13.815 12.277 " stroke="none" fill-rule="evenodd" fill="black"></path></svg>