<svg width="24" height="24" viewBox="0 0 24 24" fill="none" xmlns="http://www.w3.org/2000/svg"><path d="M3.000 1.287 C 2.247 1.394,1.570 2.016,1.341 2.809 C 1.284 3.005,1.277 3.215,1.288 4.249 L 1.301 5.460 1.433 5.788 C 1.656 6.345,1.879 6.624,3.259 8.077 C 3.978 8.834,4.607 9.509,4.656 9.577 C 4.706 9.644,4.790 9.799,4.843 9.920 L 4.940 10.140 4.963 12.260 C 4.989 14.650,4.980 14.583,5.305 15.107 C 5.714 15.769,6.393 16.110,7.220 16.070 C 7.730 16.045,7.883 15.984,8.655 15.492 C 9.507 14.950,9.774 14.654,10.005 14.000 C 10.094 13.748,10.098 13.687,10.119 11.939 L 10.140 10.138 10.270 9.874 C 10.393 9.624,10.473 9.546,11.910 8.283 C 12.781 7.516,13.510 6.843,13.633 6.690 C 13.870 6.395,14.161 5.826,14.261 5.460 C 14.350 5.137,14.390 3.607,14.323 3.099 C 14.197 2.150,13.473 1.410,12.547 1.283 C 12.154 1.229,3.380 1.233,3.000 1.287 M16.706 1.538 C 16.423 1.639,16.203 1.941,16.201 2.231 C 16.199 2.485,16.378 2.784,16.600 2.899 C 16.655 2.928,16.961 2.999,17.280 3.057 C 18.764 3.327,19.320 3.589,19.994 4.333 C 20.773 5.194,21.158 6.467,21.235 8.444 C 21.270 9.328,21.301 9.427,21.602 9.626 C 21.893 9.819,22.369 9.740,22.580 9.464 C 22.734 9.262,22.756 9.064,22.718 8.247 C 22.600 5.724,21.969 4.065,20.680 2.892 C 20.401 2.639,19.754 2.221,19.428 2.086 C 19.058 1.932,18.224 1.713,17.507 1.581 C 16.871 1.465,16.907 1.467,16.706 1.538 M12.550 2.840 C 12.622 2.884,12.716 2.978,12.760 3.050 C 12.833 3.170,12.840 3.253,12.840 4.106 C 12.840 5.149,12.817 5.262,12.528 5.667 C 12.440 5.790,11.755 6.424,10.840 7.232 C 9.040 8.819,8.975 8.897,8.711 9.778 C 8.633 10.041,8.626 10.175,8.610 11.804 C 8.590 13.885,8.630 13.720,8.040 14.112 C 7.427 14.519,7.274 14.599,7.108 14.600 C 6.907 14.600,6.655 14.467,6.559 14.308 C 6.484 14.186,6.480 14.096,6.480 12.339 C 6.480 11.326,6.462 10.352,6.439 10.174 C 6.370 9.617,6.103 8.975,5.774 8.571 C 5.699 8.479,5.051 7.786,4.334 7.031 C 3.202 5.840,3.013 5.623,2.896 5.381 L 2.760 5.102 2.760 4.170 C 2.760 3.310,2.766 3.224,2.842 3.077 C 2.887 2.989,2.981 2.882,3.052 2.839 C 3.177 2.762,3.284 2.760,7.800 2.760 C 12.340 2.760,12.422 2.762,12.550 2.840 M1.815 11.278 C 1.639 11.320,1.462 11.455,1.353 11.631 C 1.261 11.779,1.260 11.788,1.247 13.340 C 1.227 15.720,1.318 17.012,1.575 18.027 C 2.132 20.224,3.337 21.567,5.356 22.242 C 6.191 22.521,6.998 22.657,8.193 22.720 C 9.162 22.771,14.838 22.771,15.807 22.720 C 17.002 22.657,17.809 22.521,18.644 22.242 C 20.966 21.466,22.225 19.797,22.622 16.973 C 22.749 16.066,22.812 13.287,22.716 12.838 C 22.575 12.182,21.713 12.051,21.353 12.631 C 21.260 12.779,21.260 12.788,21.235 14.580 C 21.207 16.526,21.184 16.785,20.960 17.688 C 20.504 19.519,19.520 20.504,17.688 20.960 C 16.622 21.226,16.745 21.220,12.000 21.220 C 8.064 21.220,7.661 21.214,7.240 21.148 C 4.756 20.761,3.576 19.795,3.044 17.712 C 2.806 16.780,2.788 16.545,2.763 14.080 C 2.742 11.970,2.735 11.810,2.664 11.668 C 2.573 11.484,2.395 11.343,2.180 11.284 C 2.003 11.236,1.993 11.236,1.815 11.278 M12.815 12.278 C 12.331 12.393,12.098 13.004,12.383 13.408 C 12.447 13.499,12.572 13.610,12.660 13.656 C 12.817 13.738,12.873 13.740,15.377 13.751 C 17.157 13.759,17.999 13.749,18.150 13.718 C 18.902 13.562,18.931 12.473,18.189 12.286 C 17.980 12.234,13.032 12.226,12.815 12.278 M10.815 16.278 C 10.331 16.393,10.098 17.004,10.383 17.408 C 10.447 17.499,10.572 17.610,10.660 17.656 C 10.818 17.739,10.858 17.740,14.379 17.751 C 16.882 17.759,18.001 17.749,18.152 17.717 C 18.902 17.562,18.930 16.473,18.189 16.286 C 17.979 16.234,11.034 16.226,10.815 16.278 " stroke="none" fill-rule="evenodd" fill="black"></path></svg>