<svg width="24" height="24" viewBox="0 0 24 24" fill="none" xmlns="http://www.w3.org/2000/svg"><path d="M8.080 1.282 C 4.042 1.493,1.931 3.265,1.398 6.891 C 1.310 7.494,1.225 8.895,1.264 9.113 C 1.278 9.194,1.325 9.318,1.368 9.389 C 1.658 9.870,2.422 9.836,2.661 9.332 C 2.718 9.212,2.740 9.022,2.765 8.423 C 2.900 5.187,3.905 3.654,6.288 3.044 C 7.337 2.776,7.247 2.780,12.000 2.780 C 15.936 2.780,16.339 2.786,16.760 2.852 C 19.558 3.288,20.712 4.442,21.148 7.240 C 21.214 7.661,21.220 8.064,21.220 12.000 C 21.220 15.936,21.214 16.339,21.148 16.760 C 20.712 19.558,19.558 20.712,16.760 21.148 C 16.339 21.214,15.936 21.220,12.000 21.220 C 8.064 21.220,7.661 21.214,7.240 21.148 C 4.756 20.761,3.576 19.795,3.044 17.712 C 2.820 16.833,2.790 16.496,2.764 14.560 C 2.737 12.615,2.744 12.670,2.494 12.433 C 2.217 12.171,1.783 12.171,1.506 12.433 C 1.266 12.660,1.261 12.686,1.247 13.840 C 1.224 15.669,1.334 17.076,1.575 18.027 C 2.267 20.757,3.971 22.193,7.027 22.622 C 7.786 22.728,8.902 22.759,12.000 22.759 C 15.098 22.759,16.214 22.728,16.973 22.622 C 19.443 22.275,20.996 21.288,21.897 19.490 C 22.379 18.530,22.638 17.369,22.720 15.807 C 22.771 14.838,22.771 9.162,22.720 8.193 C 22.657 6.998,22.521 6.191,22.242 5.356 C 21.632 3.531,20.469 2.367,18.650 1.760 C 17.788 1.473,17.023 1.344,15.806 1.280 C 14.952 1.235,8.952 1.237,8.080 1.282 M8.094 8.278 C 7.436 8.437,7.303 9.307,7.886 9.640 L 8.060 9.740 12.000 9.740 L 15.940 9.740 16.120 9.634 C 16.606 9.348,16.606 8.652,16.120 8.366 L 15.940 8.260 12.080 8.254 C 9.957 8.250,8.163 8.261,8.094 8.278 M8.094 14.278 C 7.436 14.437,7.303 15.307,7.886 15.640 L 8.060 15.740 12.000 15.740 L 15.940 15.740 16.120 15.634 C 16.606 15.348,16.606 14.652,16.120 14.366 L 15.940 14.260 12.080 14.254 C 9.957 14.250,8.163 14.261,8.094 14.278 " stroke="none" fill-rule="evenodd" fill="black"></path></svg>