<svg width="24" height="24" viewBox="0 0 24 24" fill="none" xmlns="http://www.w3.org/2000/svg"><path d="M9.320 1.283 C 8.449 1.363,7.861 1.747,7.544 2.441 C 7.435 2.679,7.320 3.083,7.320 3.227 C 7.320 3.297,7.292 3.321,7.190 3.338 C 7.119 3.349,6.889 3.386,6.680 3.420 C 5.379 3.632,4.467 4.079,3.714 4.874 C 3.024 5.602,2.585 6.640,2.381 8.025 C 2.305 8.541,2.228 9.888,2.262 10.099 C 2.361 10.706,3.090 10.950,3.520 10.520 C 3.704 10.336,3.760 10.119,3.760 9.588 C 3.760 9.386,3.778 9.027,3.801 8.791 C 4.009 6.600,4.690 5.532,6.180 5.062 C 6.521 4.955,7.265 4.812,7.300 4.847 C 7.312 4.858,7.348 4.974,7.381 5.104 C 7.477 5.481,7.704 5.902,7.935 6.133 C 8.191 6.388,8.459 6.536,8.867 6.648 C 9.167 6.730,9.279 6.734,11.515 6.750 C 14.555 6.772,14.972 6.738,15.633 6.416 C 16.149 6.164,16.525 5.686,16.644 5.129 C 16.671 5.003,16.707 4.884,16.724 4.865 C 16.741 4.845,16.924 4.860,17.147 4.900 C 19.145 5.258,19.976 6.329,20.203 8.838 C 20.230 9.136,20.239 10.745,20.230 13.380 C 20.217 16.972,20.207 17.510,20.147 17.878 C 20.046 18.506,19.932 18.896,19.714 19.358 C 19.540 19.729,19.478 19.814,19.169 20.118 C 18.530 20.747,17.655 21.072,16.260 21.200 C 15.675 21.253,8.325 21.253,7.740 21.200 C 6.346 21.072,5.468 20.746,4.835 20.121 C 4.382 19.674,4.172 19.275,3.982 18.506 C 3.813 17.820,3.789 17.498,3.764 15.560 C 3.738 13.546,3.743 13.586,3.513 13.372 C 3.391 13.257,3.155 13.160,3.000 13.160 C 2.745 13.160,2.460 13.338,2.326 13.580 C 2.189 13.828,2.227 16.996,2.381 18.080 C 2.656 20.030,3.466 21.288,4.900 21.996 C 5.786 22.433,6.692 22.633,8.164 22.719 C 9.058 22.770,14.879 22.771,15.811 22.719 C 17.751 22.611,19.022 22.222,19.950 21.450 C 21.097 20.497,21.598 19.205,21.720 16.887 C 21.771 15.918,21.770 10.072,21.719 9.148 C 21.583 6.701,20.947 5.219,19.634 4.290 C 19.014 3.852,18.051 3.507,17.100 3.383 C 16.716 3.333,16.680 3.320,16.680 3.225 C 16.680 3.055,16.558 2.658,16.416 2.367 C 16.052 1.622,15.407 1.287,14.300 1.269 C 13.814 1.261,13.770 1.266,13.627 1.355 C 13.385 1.506,13.267 1.718,13.267 2.003 C 13.267 2.203,13.286 2.270,13.383 2.408 C 13.563 2.661,13.719 2.722,14.294 2.760 C 14.893 2.799,15.011 2.849,15.134 3.113 C 15.212 3.283,15.220 3.366,15.220 4.040 C 15.220 4.910,15.195 4.991,14.887 5.134 C 14.701 5.220,14.684 5.220,11.960 5.220 C 8.840 5.220,9.030 5.240,8.866 4.887 C 8.788 4.718,8.780 4.633,8.780 4.000 C 8.780 3.367,8.788 3.282,8.866 3.113 C 9.010 2.801,9.066 2.787,10.180 2.760 C 11.004 2.741,11.162 2.727,11.292 2.663 C 11.888 2.372,11.792 1.448,11.149 1.286 C 10.944 1.235,9.861 1.233,9.320 1.283 " stroke="none" fill-rule="evenodd" fill="black"></path></svg>