<svg width="24" height="24" viewBox="0 0 24 24" fill="none" xmlns="http://www.w3.org/2000/svg"><path d="M8.080 1.282 C 4.042 1.493,1.931 3.265,1.398 6.891 C 1.310 7.494,1.225 8.895,1.264 9.113 C 1.278 9.194,1.325 9.318,1.368 9.389 C 1.658 9.870,2.422 9.836,2.661 9.332 C 2.718 9.212,2.740 9.022,2.765 8.423 C 2.901 5.162,3.931 3.615,6.360 3.025 C 7.319 2.792,7.390 2.787,10.430 2.770 L 13.240 2.755 13.240 4.367 C 13.241 6.111,13.283 7.072,13.382 7.603 C 13.711 9.369,14.636 10.291,16.407 10.619 C 16.891 10.709,17.930 10.764,18.174 10.712 C 18.723 10.597,18.924 9.884,18.522 9.482 C 18.339 9.299,18.129 9.240,17.657 9.240 C 16.958 9.240,16.106 9.056,15.698 8.817 C 15.213 8.533,14.919 7.933,14.801 6.988 C 14.778 6.809,14.760 6.023,14.760 5.241 L 14.760 3.820 18.002 7.060 L 21.243 10.300 21.229 13.340 C 21.213 16.665,21.212 16.672,20.960 17.688 C 20.504 19.519,19.520 20.504,17.688 20.960 C 16.622 21.226,16.745 21.220,12.000 21.220 C 8.064 21.220,7.661 21.214,7.240 21.148 C 4.756 20.761,3.576 19.795,3.044 17.712 C 2.820 16.833,2.790 16.496,2.764 14.560 C 2.737 12.615,2.744 12.670,2.494 12.433 C 2.217 12.171,1.783 12.171,1.506 12.433 C 1.266 12.660,1.261 12.686,1.247 13.840 C 1.224 15.669,1.334 17.076,1.575 18.027 C 2.132 20.224,3.337 21.567,5.356 22.242 C 6.191 22.521,6.998 22.657,8.193 22.720 C 9.162 22.771,14.838 22.771,15.807 22.720 C 17.002 22.657,17.809 22.521,18.644 22.242 C 20.966 21.466,22.225 19.797,22.622 16.973 C 22.726 16.235,22.759 15.121,22.759 12.460 C 22.758 10.001,22.754 9.851,22.683 9.700 C 22.576 9.472,14.478 1.387,14.271 1.301 C 14.142 1.248,13.764 1.241,11.391 1.246 C 9.889 1.249,8.399 1.266,8.080 1.282 M6.815 12.277 C 6.329 12.397,6.098 13.004,6.383 13.408 C 6.447 13.499,6.572 13.610,6.660 13.656 C 6.813 13.736,6.878 13.740,8.200 13.740 C 8.959 13.740,9.628 13.727,9.687 13.710 C 9.945 13.638,10.197 13.292,10.199 13.009 C 10.201 12.747,10.026 12.462,9.780 12.326 C 9.676 12.269,9.482 12.259,8.300 12.253 C 7.552 12.249,6.884 12.260,6.815 12.277 M11.815 12.278 C 11.331 12.393,11.098 13.004,11.383 13.408 C 11.576 13.681,11.733 13.736,12.363 13.754 C 13.073 13.773,13.316 13.724,13.519 13.521 C 13.918 13.122,13.731 12.423,13.189 12.286 C 12.988 12.236,12.016 12.230,11.815 12.278 M6.815 16.278 C 6.331 16.393,6.098 17.004,6.383 17.408 C 6.447 17.499,6.572 17.610,6.660 17.656 C 6.815 17.738,6.880 17.740,8.875 17.752 C 11.208 17.765,11.281 17.759,11.519 17.521 C 11.918 17.122,11.731 16.423,11.189 16.286 C 10.980 16.234,7.031 16.226,6.815 16.278 " stroke="none" fill-rule="evenodd" fill="black"></path></svg>