<svg width="24" height="24" viewBox="0 0 24 24" fill="none" xmlns="http://www.w3.org/2000/svg"><path d="M8.080 1.282 C 4.042 1.493,1.931 3.265,1.398 6.891 C 1.310 7.494,1.225 8.895,1.264 9.113 C 1.278 9.194,1.325 9.318,1.368 9.389 C 1.658 9.870,2.422 9.836,2.661 9.332 C 2.718 9.212,2.740 9.022,2.765 8.423 C 2.900 5.187,3.905 3.654,6.288 3.044 C 7.337 2.776,7.247 2.780,12.000 2.780 C 15.936 2.780,16.339 2.786,16.760 2.852 C 19.558 3.288,20.712 4.442,21.148 7.240 C 21.214 7.661,21.220 8.064,21.220 12.000 C 21.220 15.936,21.214 16.339,21.148 16.760 C 20.712 19.558,19.558 20.712,16.760 21.148 C 16.339 21.214,15.936 21.220,12.000 21.220 C 8.064 21.220,7.661 21.214,7.240 21.148 C 4.756 20.761,3.576 19.795,3.044 17.712 C 2.820 16.836,2.790 16.494,2.764 14.580 C 2.738 12.677,2.741 12.705,2.513 12.492 C 2.391 12.377,2.155 12.280,2.000 12.280 C 1.745 12.280,1.460 12.458,1.326 12.700 C 1.180 12.964,1.229 15.960,1.398 17.107 C 1.885 20.415,3.654 22.148,7.027 22.622 C 7.786 22.728,8.902 22.759,12.000 22.759 C 15.098 22.759,16.214 22.728,16.973 22.622 C 19.443 22.275,20.996 21.288,21.897 19.490 C 22.379 18.530,22.638 17.369,22.720 15.807 C 22.771 14.838,22.771 9.162,22.720 8.193 C 22.657 6.998,22.521 6.191,22.242 5.356 C 21.632 3.531,20.469 2.367,18.650 1.760 C 17.788 1.473,17.023 1.344,15.806 1.280 C 14.952 1.235,8.952 1.237,8.080 1.282 M11.815 5.277 C 11.639 5.320,11.461 5.456,11.356 5.626 C 11.283 5.745,11.263 5.847,11.248 6.181 L 11.230 6.590 10.645 6.609 C 9.979 6.630,9.727 6.695,9.273 6.962 C 8.321 7.524,7.813 8.615,7.952 9.801 C 8.046 10.603,8.321 11.127,8.866 11.542 C 9.197 11.795,9.359 11.865,10.870 12.399 L 11.240 12.530 11.240 14.225 L 11.240 15.920 11.045 15.920 C 10.553 15.920,10.219 15.790,9.893 15.471 C 9.627 15.211,9.489 14.904,9.422 14.424 C 9.364 14.014,9.339 13.949,9.173 13.793 C 8.954 13.585,8.600 13.537,8.322 13.679 C 8.006 13.840,7.897 14.094,7.934 14.577 C 7.989 15.282,8.265 15.925,8.728 16.420 C 9.345 17.081,9.901 17.345,10.765 17.388 L 11.230 17.411 11.248 17.820 C 11.263 18.153,11.283 18.255,11.356 18.374 C 11.708 18.944,12.577 18.809,12.716 18.162 C 12.740 18.049,12.760 17.831,12.760 17.678 L 12.760 17.400 13.230 17.399 C 13.758 17.399,14.141 17.331,14.468 17.181 C 15.459 16.728,16.083 15.722,16.079 14.586 C 16.075 13.691,15.767 12.943,15.231 12.527 C 14.821 12.208,14.575 12.095,13.430 11.701 L 12.760 11.471 12.760 9.775 L 12.760 8.080 12.992 8.080 C 13.645 8.080,14.199 8.427,14.449 8.991 C 14.495 9.095,14.556 9.358,14.584 9.576 C 14.627 9.908,14.654 9.995,14.751 10.116 C 14.901 10.304,15.095 10.400,15.327 10.400 C 15.789 10.400,16.080 10.095,16.080 9.612 C 16.078 8.586,15.546 7.621,14.665 7.046 C 14.224 6.758,13.826 6.637,13.230 6.610 L 12.760 6.589 12.759 6.305 C 12.758 5.941,12.700 5.694,12.580 5.536 C 12.421 5.327,12.078 5.211,11.815 5.277 M11.240 9.500 C 11.240 10.344,11.225 10.920,11.203 10.920 C 11.183 10.920,10.905 10.828,10.585 10.716 C 9.863 10.463,9.663 10.342,9.553 10.093 C 9.384 9.712,9.387 9.099,9.558 8.763 C 9.647 8.590,9.928 8.298,10.086 8.217 C 10.266 8.124,10.476 8.088,10.870 8.084 L 11.240 8.080 11.240 9.500 M13.365 13.263 C 13.659 13.364,13.988 13.494,14.095 13.552 C 14.451 13.745,14.577 14.015,14.578 14.580 C 14.579 14.884,14.563 14.974,14.475 15.162 C 14.333 15.468,14.155 15.657,13.887 15.788 C 13.688 15.886,13.604 15.901,13.210 15.914 L 12.760 15.929 12.760 14.504 C 12.760 13.715,12.776 13.080,12.795 13.080 C 12.814 13.080,13.071 13.162,13.365 13.263 " stroke="none" fill-rule="evenodd" fill="black"></path></svg>