<svg width="24" height="24" viewBox="0 0 24 24" fill="none" xmlns="http://www.w3.org/2000/svg"><path d="M8.080 1.282 C 4.042 1.493,1.931 3.265,1.398 6.891 C 1.310 7.494,1.225 8.895,1.264 9.113 C 1.278 9.194,1.325 9.318,1.368 9.389 C 1.658 9.870,2.422 9.836,2.661 9.332 C 2.718 9.212,2.740 9.022,2.765 8.423 C 2.900 5.187,3.905 3.654,6.288 3.044 C 7.337 2.776,7.247 2.780,12.000 2.780 C 15.936 2.780,16.339 2.786,16.760 2.852 C 19.558 3.288,20.712 4.442,21.148 7.240 C 21.214 7.661,21.220 8.064,21.220 12.000 C 21.220 15.936,21.214 16.339,21.148 16.760 C 20.712 19.558,19.558 20.712,16.760 21.148 C 16.339 21.214,15.936 21.220,12.000 21.220 C 8.064 21.220,7.661 21.214,7.240 21.148 C 4.456 20.714,3.296 19.565,2.856 16.800 C 2.803 16.468,2.785 15.999,2.771 14.570 L 2.752 12.760 10.354 12.760 C 15.755 12.760,18.016 12.747,18.162 12.716 C 18.926 12.552,18.919 11.446,18.154 11.281 C 17.996 11.247,15.835 11.239,9.860 11.248 L 1.780 11.260 1.627 11.355 C 1.543 11.407,1.426 11.523,1.367 11.612 L 1.260 11.774 1.247 13.337 C 1.227 15.720,1.318 17.011,1.575 18.027 C 2.267 20.757,3.971 22.193,7.027 22.622 C 7.786 22.728,8.902 22.759,12.000 22.759 C 15.098 22.759,16.214 22.728,16.973 22.622 C 19.443 22.275,20.996 21.288,21.897 19.490 C 22.379 18.530,22.638 17.369,22.720 15.807 C 22.771 14.838,22.771 9.162,22.720 8.193 C 22.657 6.998,22.521 6.191,22.242 5.356 C 21.632 3.531,20.469 2.367,18.650 1.760 C 17.788 1.473,17.023 1.344,15.806 1.280 C 14.952 1.235,8.952 1.237,8.080 1.282 M5.619 5.617 C 5.529 5.671,5.415 5.790,5.359 5.887 L 5.260 6.060 5.260 7.220 C 5.260 7.858,5.273 8.428,5.290 8.487 C 5.363 8.749,5.710 8.998,6.000 8.998 C 6.290 8.998,6.637 8.749,6.710 8.487 C 6.727 8.428,6.740 7.858,6.740 7.220 L 6.740 6.060 6.634 5.880 C 6.427 5.528,5.967 5.409,5.619 5.617 M9.619 5.617 C 9.529 5.671,9.415 5.790,9.359 5.887 L 9.260 6.060 9.260 7.220 C 9.260 7.858,9.273 8.428,9.290 8.487 C 9.363 8.749,9.710 8.998,10.000 8.998 C 10.290 8.998,10.637 8.749,10.710 8.487 C 10.727 8.428,10.740 7.858,10.740 7.220 L 10.740 6.060 10.634 5.880 C 10.427 5.528,9.967 5.409,9.619 5.617 M13.619 6.617 C 13.212 6.861,13.144 7.468,13.487 7.788 C 13.714 8.000,13.713 8.000,16.000 8.000 C 18.287 8.000,18.286 8.000,18.513 7.788 C 18.858 7.466,18.787 6.856,18.377 6.616 L 18.213 6.520 15.996 6.520 L 13.780 6.521 13.619 6.617 M5.815 15.277 C 5.638 15.321,5.461 15.456,5.353 15.631 C 5.261 15.778,5.260 15.793,5.260 17.000 C 5.260 18.207,5.261 18.222,5.353 18.369 C 5.710 18.943,6.576 18.812,6.716 18.162 C 6.772 17.901,6.773 16.083,6.717 15.841 C 6.623 15.432,6.215 15.177,5.815 15.277 M9.815 15.277 C 9.638 15.321,9.461 15.456,9.353 15.631 C 9.261 15.778,9.260 15.793,9.260 17.000 C 9.260 18.207,9.261 18.222,9.353 18.369 C 9.710 18.943,10.576 18.812,10.716 18.162 C 10.772 17.901,10.773 16.083,10.717 15.841 C 10.623 15.432,10.215 15.177,9.815 15.277 M13.815 16.278 C 13.331 16.393,13.098 17.004,13.383 17.408 C 13.447 17.499,13.572 17.610,13.660 17.656 C 13.815 17.738,13.880 17.740,15.875 17.752 C 18.208 17.765,18.281 17.759,18.519 17.521 C 18.918 17.122,18.731 16.423,18.189 16.286 C 17.980 16.234,14.031 16.226,13.815 16.278 " stroke="none" fill-rule="evenodd" fill="black"></path></svg>