<svg width="24" height="24" viewBox="0 0 24 24" fill="none" xmlns="http://www.w3.org/2000/svg"><path d="M8.980 1.280 C 8.191 1.356,7.596 1.603,7.167 2.033 C 6.688 2.512,6.468 3.019,6.210 4.244 L 6.055 4.980 5.632 5.002 C 5.252 5.021,5.195 5.035,5.067 5.132 C 4.866 5.285,4.763 5.446,4.735 5.652 C 4.671 6.117,5.006 6.480,5.498 6.480 C 5.649 6.480,5.720 6.496,5.721 6.530 C 5.721 6.558,5.673 6.809,5.614 7.090 L 5.507 7.600 5.293 7.762 C 4.901 8.058,4.589 8.659,4.483 9.320 C 4.427 9.675,4.000 14.282,4.000 14.538 C 4.000 15.445,4.755 16.359,5.684 16.579 C 6.028 16.660,7.792 16.663,8.126 16.583 C 8.786 16.425,9.069 16.102,9.418 15.108 C 9.502 14.871,9.602 14.637,9.641 14.588 L 9.713 14.500 11.946 14.490 C 13.689 14.482,14.202 14.491,14.279 14.531 C 14.379 14.582,14.424 14.680,14.699 15.453 C 14.908 16.040,15.210 16.370,15.700 16.546 C 15.991 16.650,17.890 16.677,18.297 16.582 C 19.136 16.388,19.840 15.635,19.965 14.800 C 20.019 14.435,19.924 13.281,19.824 13.087 C 19.564 12.584,18.855 12.557,18.537 13.038 C 18.414 13.223,18.409 13.292,18.458 14.081 C 18.494 14.669,18.475 14.760,18.273 14.948 C 18.072 15.136,17.937 15.160,17.071 15.159 C 16.625 15.159,16.236 15.144,16.207 15.125 C 16.178 15.107,16.065 14.843,15.957 14.539 C 15.745 13.946,15.612 13.703,15.372 13.476 C 15.148 13.264,14.966 13.168,14.618 13.080 C 14.325 13.005,14.173 13.000,12.004 13.001 C 9.467 13.001,9.405 13.006,8.954 13.247 C 8.516 13.480,8.294 13.798,8.016 14.586 C 7.916 14.868,7.813 15.112,7.787 15.129 C 7.717 15.173,6.162 15.166,6.002 15.121 C 5.821 15.069,5.569 14.818,5.520 14.642 C 5.491 14.537,5.537 13.906,5.703 12.121 C 5.825 10.811,5.950 9.617,5.981 9.466 C 6.062 9.075,6.139 8.961,6.420 8.820 L 6.660 8.700 11.840 8.688 C 15.567 8.679,17.087 8.689,17.260 8.721 C 17.796 8.822,17.953 9.026,18.063 9.770 C 18.135 10.255,18.230 10.429,18.490 10.555 C 18.826 10.718,19.202 10.629,19.427 10.334 C 19.580 10.134,19.597 9.774,19.483 9.200 C 19.360 8.586,19.162 8.205,18.786 7.853 L 18.492 7.579 18.386 7.085 C 18.328 6.813,18.280 6.566,18.280 6.535 C 18.280 6.495,18.339 6.480,18.502 6.480 C 19.288 6.480,19.560 5.576,18.912 5.114 C 18.805 5.038,18.716 5.020,18.366 5.002 L 17.947 4.980 17.796 4.266 C 17.636 3.512,17.541 3.179,17.382 2.821 C 16.967 1.882,16.183 1.384,14.948 1.277 C 14.413 1.231,14.208 1.277,14.012 1.487 C 13.811 1.702,13.752 2.008,13.862 2.271 C 14.004 2.612,14.188 2.713,14.753 2.761 C 15.428 2.819,15.693 2.932,15.910 3.256 C 16.096 3.533,16.201 3.913,16.539 5.540 C 16.704 6.332,16.848 7.020,16.860 7.070 L 16.882 7.160 11.998 7.160 C 7.366 7.160,7.116 7.156,7.135 7.090 C 7.147 7.051,7.301 6.325,7.478 5.476 C 7.878 3.558,7.963 3.295,8.262 3.049 C 8.556 2.807,8.684 2.787,10.163 2.763 L 11.506 2.740 11.668 2.633 C 11.906 2.475,12.013 2.278,12.013 2.000 C 12.013 1.722,11.906 1.525,11.668 1.367 L 11.506 1.260 10.403 1.254 C 9.796 1.251,9.156 1.263,8.980 1.280 M7.361 10.142 C 7.084 10.265,6.920 10.515,6.920 10.816 C 6.920 11.040,6.975 11.188,7.113 11.335 C 7.316 11.553,7.367 11.560,8.749 11.560 C 9.880 11.560,10.035 11.552,10.157 11.490 C 10.654 11.236,10.695 10.536,10.232 10.214 L 10.067 10.100 8.784 10.090 C 7.703 10.082,7.478 10.091,7.361 10.142 M13.952 10.120 C 13.482 10.261,13.282 10.890,13.586 11.270 C 13.816 11.558,13.826 11.560,15.251 11.560 C 16.633 11.560,16.684 11.553,16.887 11.335 C 16.947 11.272,17.014 11.169,17.037 11.107 C 17.138 10.842,17.051 10.451,16.853 10.272 C 16.655 10.093,16.546 10.080,15.271 10.083 C 14.605 10.085,14.011 10.102,13.952 10.120 M11.815 16.277 C 11.638 16.321,11.461 16.456,11.353 16.631 C 11.265 16.772,11.260 16.816,11.260 17.500 C 11.260 18.184,11.265 18.228,11.353 18.369 C 11.710 18.943,12.576 18.812,12.716 18.162 C 12.771 17.904,12.772 17.080,12.717 16.841 C 12.623 16.432,12.215 16.177,11.815 16.277 M2.800 17.286 C 2.607 17.342,2.423 17.490,2.347 17.650 C 2.312 17.725,2.049 18.726,1.762 19.875 C 1.192 22.157,1.193 22.148,1.401 22.435 C 1.682 22.823,2.297 22.834,2.587 22.455 C 2.733 22.263,3.773 18.117,3.735 17.877 C 3.668 17.459,3.205 17.167,2.800 17.286 M20.801 17.286 C 20.516 17.370,20.316 17.594,20.264 17.885 C 20.224 18.108,21.271 22.268,21.413 22.455 C 21.703 22.834,22.318 22.823,22.599 22.435 C 22.808 22.147,22.810 22.161,22.225 19.821 C 21.650 17.523,21.635 17.482,21.352 17.349 C 21.166 17.261,20.963 17.238,20.801 17.286 M11.815 20.277 C 11.638 20.321,11.461 20.456,11.353 20.631 C 11.265 20.772,11.260 20.816,11.260 21.500 C 11.260 22.184,11.265 22.228,11.353 22.369 C 11.710 22.943,12.576 22.812,12.716 22.162 C 12.771 21.904,12.772 21.080,12.717 20.841 C 12.623 20.432,12.215 20.177,11.815 20.277 " stroke="none" fill-rule="evenodd" fill="black"></path></svg>