<svg width="24" height="24" viewBox="0 0 24 24" fill="none" xmlns="http://www.w3.org/2000/svg"><path d="M11.716 1.283 C 11.371 1.333,11.104 1.483,10.497 1.966 C 9.617 2.667,9.200 3.039,8.286 3.939 C 7.119 5.089,6.332 6.005,5.587 7.080 C 4.985 7.950,4.363 9.028,4.257 9.386 C 4.052 10.082,4.841 10.620,5.422 10.180 C 5.500 10.121,5.648 9.891,5.829 9.547 C 6.346 8.565,6.984 7.628,7.834 6.600 C 8.280 6.061,10.003 4.325,10.580 3.833 C 11.380 3.150,11.897 2.760,12.001 2.760 C 12.195 2.760,13.541 3.902,14.664 5.020 C 18.671 9.007,20.135 12.846,18.955 16.270 C 18.583 17.349,18.008 18.268,17.198 19.078 C 16.043 20.233,14.637 20.942,13.035 21.178 C 12.234 21.295,11.053 21.243,10.300 21.056 C 8.164 20.526,6.398 19.109,5.404 17.128 C 4.995 16.314,4.747 15.390,4.675 14.420 C 4.652 14.112,4.626 13.804,4.616 13.734 C 4.554 13.300,4.010 13.038,3.580 13.235 C 3.177 13.420,3.099 13.738,3.201 14.766 C 3.309 15.844,3.585 16.812,4.062 17.785 C 5.353 20.420,7.824 22.213,10.780 22.661 C 11.374 22.751,12.622 22.751,13.220 22.662 C 15.496 22.321,17.507 21.180,18.891 19.444 C 20.944 16.868,21.400 13.507,20.135 10.267 C 19.205 7.886,17.250 5.268,14.678 2.959 C 14.011 2.360,13.054 1.590,12.827 1.470 C 12.481 1.287,12.111 1.225,11.716 1.283 " stroke="none" fill-rule="evenodd" fill="black"></path></svg>