<svg width="24" height="24" viewBox="0 0 24 24" fill="none" xmlns="http://www.w3.org/2000/svg"><path d="M17.920 1.057 C 17.564 1.136,17.281 1.239,16.940 1.414 C 16.224 1.782,16.039 1.954,11.655 6.337 C 8.982 9.008,7.433 10.586,7.330 10.740 C 7.123 11.052,6.985 11.327,6.881 11.637 C 6.772 11.961,6.320 15.104,6.320 15.539 C 6.320 16.151,6.510 16.628,6.920 17.045 C 7.339 17.470,7.851 17.680,8.468 17.680 C 8.854 17.680,12.026 17.231,12.302 17.137 C 13.126 16.858,13.242 16.763,15.473 14.543 C 16.558 13.463,17.508 12.496,17.583 12.394 C 18.059 11.751,17.429 10.953,16.689 11.262 C 16.587 11.305,15.883 11.979,14.460 13.398 C 12.386 15.466,12.282 15.558,11.874 15.702 C 11.632 15.788,8.608 16.210,8.387 16.189 C 8.066 16.159,7.841 15.934,7.811 15.613 C 7.800 15.497,7.884 14.778,8.020 13.820 C 8.222 12.402,8.262 12.188,8.371 11.940 C 8.490 11.668,8.584 11.569,11.555 8.592 L 14.616 5.523 14.825 5.921 C 15.776 7.739,17.555 9.197,19.504 9.758 C 19.885 9.868,20.026 9.853,20.294 9.675 C 20.551 9.506,21.787 8.220,22.123 7.775 C 23.470 5.987,23.267 4.265,21.501 2.499 C 20.702 1.700,19.924 1.229,19.122 1.060 C 18.785 0.989,18.231 0.988,17.920 1.057 M8.080 1.282 C 4.042 1.493,1.931 3.265,1.398 6.891 C 1.310 7.494,1.225 8.895,1.264 9.113 C 1.278 9.194,1.325 9.318,1.368 9.389 C 1.658 9.870,2.422 9.836,2.661 9.332 C 2.718 9.212,2.740 9.022,2.765 8.423 C 2.900 5.188,3.905 3.653,6.288 3.044 C 7.165 2.820,7.506 2.790,9.420 2.764 C 11.037 2.742,11.192 2.734,11.332 2.664 C 11.928 2.369,11.832 1.448,11.189 1.286 C 10.982 1.234,9.049 1.232,8.080 1.282 M19.051 2.601 C 19.914 2.866,21.126 4.085,21.408 4.969 C 21.525 5.339,21.518 5.750,21.387 6.091 C 21.211 6.549,20.949 6.899,20.270 7.587 L 19.630 8.235 19.425 8.155 C 17.896 7.556,16.555 6.255,15.919 4.752 L 15.762 4.380 16.411 3.735 C 17.568 2.586,18.166 2.329,19.051 2.601 M21.815 12.277 C 21.638 12.321,21.461 12.456,21.353 12.631 C 21.260 12.779,21.260 12.788,21.235 14.580 C 21.207 16.526,21.184 16.785,20.960 17.688 C 20.504 19.519,19.520 20.504,17.688 20.960 C 16.622 21.226,16.745 21.220,12.000 21.220 C 8.064 21.220,7.661 21.214,7.240 21.148 C 4.756 20.761,3.576 19.795,3.044 17.712 C 2.830 16.874,2.791 16.472,2.764 14.820 C 2.736 13.137,2.731 13.103,2.464 12.901 C 2.095 12.622,1.599 12.715,1.353 13.111 C 1.265 13.252,1.259 13.304,1.246 14.079 C 1.220 15.632,1.344 17.115,1.575 18.027 C 2.132 20.224,3.337 21.567,5.356 22.242 C 6.191 22.521,6.998 22.657,8.193 22.720 C 9.162 22.771,14.838 22.771,15.807 22.720 C 17.002 22.657,17.809 22.521,18.644 22.242 C 20.966 21.466,22.225 19.797,22.622 16.973 C 22.747 16.082,22.812 13.254,22.717 12.841 C 22.623 12.432,22.215 12.177,21.815 12.277 " stroke="none" fill-rule="evenodd" fill="black"></path></svg>