<svg width="24" height="24" viewBox="0 0 24 24" fill="none" xmlns="http://www.w3.org/2000/svg"><path d="M15.571 1.442 C 14.764 1.525,13.907 1.968,13.105 2.718 C 12.403 3.374,4.395 11.886,4.208 12.175 C 3.987 12.515,3.780 12.986,3.703 13.324 C 3.671 13.465,3.553 14.380,3.441 15.358 C 3.230 17.207,3.224 17.362,3.347 17.857 C 3.536 18.616,4.149 19.225,4.925 19.425 C 5.391 19.545,5.757 19.514,7.560 19.203 C 8.473 19.046,9.328 18.890,9.460 18.857 C 9.791 18.775,10.369 18.487,10.680 18.248 C 10.964 18.031,15.016 13.760,15.112 13.576 C 15.272 13.272,15.126 12.797,14.817 12.616 C 14.565 12.468,14.264 12.481,14.025 12.650 C 13.924 12.722,12.928 13.748,11.813 14.932 L 9.786 17.084 9.423 17.260 C 9.065 17.433,9.037 17.440,7.395 17.718 C 6.479 17.873,5.637 18.000,5.524 18.000 C 5.276 18.000,5.097 17.930,4.953 17.775 C 4.807 17.619,4.760 17.479,4.760 17.197 C 4.760 16.898,5.106 13.839,5.165 13.623 C 5.188 13.535,5.269 13.341,5.343 13.193 C 5.461 12.961,5.857 12.524,8.284 9.952 C 11.822 6.205,11.515 6.516,11.547 6.637 C 11.602 6.845,11.963 7.522,12.242 7.940 C 12.605 8.484,13.441 9.336,14.000 9.732 C 14.209 9.880,14.614 10.116,14.900 10.257 C 15.617 10.609,16.144 10.774,16.960 10.898 C 17.371 10.961,17.558 10.941,17.752 10.814 C 17.944 10.688,19.470 9.043,19.796 8.611 C 20.775 7.313,20.988 6.065,20.452 4.780 C 20.060 3.840,19.055 2.736,17.974 2.057 C 17.193 1.567,16.380 1.359,15.571 1.442 M16.412 2.979 C 16.937 3.116,17.558 3.519,18.156 4.112 C 19.073 5.022,19.408 5.853,19.176 6.643 C 19.091 6.930,18.843 7.403,18.620 7.699 C 18.369 8.032,17.081 9.400,17.017 9.400 C 16.988 9.400,16.847 9.373,16.702 9.339 C 15.929 9.160,15.054 8.716,14.478 8.213 C 13.899 7.706,13.424 7.100,13.117 6.479 C 12.946 6.132,12.720 5.491,12.720 5.351 C 12.720 5.213,14.058 3.812,14.520 3.466 C 15.171 2.978,15.792 2.818,16.412 2.979 M2.815 21.278 C 2.331 21.393,2.098 22.004,2.383 22.408 C 2.448 22.499,2.572 22.610,2.660 22.656 C 2.820 22.740,2.829 22.740,8.380 22.751 C 12.330 22.758,14.002 22.749,14.154 22.717 C 14.902 22.562,14.929 21.473,14.189 21.286 C 13.979 21.233,3.035 21.226,2.815 21.278 M17.815 21.278 C 17.331 21.393,17.098 22.004,17.383 22.408 C 17.448 22.499,17.572 22.610,17.660 22.656 C 17.813 22.736,17.888 22.741,19.373 22.752 C 21.166 22.766,21.287 22.753,21.519 22.521 C 21.918 22.122,21.731 21.423,21.189 21.286 C 20.981 21.234,18.029 21.227,17.815 21.278 " stroke="none" fill-rule="evenodd" fill="black"></path></svg>