<svg width="24" height="24" viewBox="0 0 24 24" fill="none" xmlns="http://www.w3.org/2000/svg"><path d="M9.420 1.260 C 9.398 1.267,9.331 1.284,9.271 1.297 C 9.124 1.329,8.881 1.548,8.814 1.708 C 8.773 1.807,8.760 2.119,8.760 3.031 L 8.760 4.224 8.270 4.270 C 7.677 4.325,7.371 4.423,6.978 4.686 C 6.579 4.954,6.243 5.330,6.045 5.733 C 5.752 6.328,5.753 6.317,5.771 9.704 C 5.789 12.957,5.783 12.875,6.023 13.617 C 6.250 14.320,6.603 14.892,7.136 15.421 C 7.623 15.903,8.066 16.188,8.720 16.437 C 9.238 16.634,10.095 16.760,10.924 16.760 L 11.237 16.760 11.249 19.490 L 11.260 22.220 11.353 22.369 C 11.710 22.943,12.576 22.812,12.716 22.162 C 12.745 22.024,12.760 21.106,12.760 19.364 L 12.760 16.773 13.437 16.746 C 14.725 16.695,15.418 16.496,16.276 15.929 C 17.465 15.143,18.240 13.651,18.240 12.146 C 18.240 11.839,18.226 11.763,18.144 11.623 C 17.894 11.197,17.265 11.141,16.948 11.518 C 16.812 11.679,16.771 11.832,16.746 12.266 C 16.659 13.808,15.639 14.964,14.160 15.199 C 13.947 15.232,13.271 15.242,11.820 15.231 C 9.838 15.216,9.771 15.213,9.481 15.125 C 8.947 14.964,8.580 14.743,8.177 14.342 C 7.869 14.036,7.785 13.922,7.627 13.600 C 7.253 12.837,7.232 12.604,7.248 9.260 L 7.260 6.660 7.352 6.460 C 7.461 6.222,7.679 5.986,7.900 5.867 L 8.060 5.780 11.951 5.769 C 15.813 5.759,15.843 5.759,16.035 5.842 C 16.262 5.939,16.516 6.188,16.646 6.440 C 16.732 6.606,16.741 6.683,16.760 7.420 C 16.782 8.261,16.791 8.304,16.987 8.485 C 17.158 8.644,17.276 8.691,17.499 8.691 C 17.727 8.691,17.889 8.621,18.047 8.454 C 18.221 8.270,18.240 8.163,18.239 7.367 C 18.238 6.479,18.190 6.201,17.955 5.720 C 17.821 5.445,17.723 5.315,17.444 5.039 C 16.913 4.514,16.446 4.312,15.638 4.256 L 15.240 4.229 15.240 3.037 C 15.240 2.292,15.224 1.803,15.197 1.733 C 15.095 1.460,14.807 1.269,14.500 1.269 C 14.193 1.269,13.905 1.460,13.803 1.733 C 13.776 1.803,13.760 2.294,13.760 3.043 L 13.760 4.240 12.000 4.240 L 10.240 4.240 10.240 3.043 C 10.240 2.294,10.224 1.803,10.197 1.733 C 10.146 1.597,9.977 1.412,9.840 1.342 C 9.732 1.287,9.485 1.238,9.420 1.260 " stroke="none" fill-rule="evenodd" fill="black"></path></svg>