<svg width="24" height="24" viewBox="0 0 24 24" fill="none" xmlns="http://www.w3.org/2000/svg"><path d="M3.700 1.284 C 2.634 1.381,1.923 1.798,1.558 2.540 C 1.272 3.121,1.271 3.125,1.251 5.887 C 1.232 8.614,1.255 9.132,1.419 9.619 C 1.730 10.549,2.453 11.063,3.640 11.201 C 3.894 11.231,4.846 11.240,6.520 11.230 C 9.206 11.213,9.257 11.209,9.800 10.993 C 10.494 10.718,10.953 10.181,11.149 9.416 C 11.214 9.164,11.220 8.884,11.220 6.240 C 11.220 3.597,11.214 3.317,11.150 3.080 C 10.848 1.966,10.075 1.394,8.720 1.280 C 8.171 1.234,4.214 1.237,3.700 1.284 M15.240 1.280 C 14.029 1.395,13.261 1.961,12.928 2.983 C 12.768 3.474,12.753 3.813,12.768 6.480 C 12.783 8.955,12.785 9.028,12.872 9.336 C 12.988 9.753,13.110 10.010,13.324 10.290 C 13.635 10.697,14.048 10.955,14.664 11.130 C 14.978 11.219,15.001 11.219,17.760 11.219 C 20.508 11.219,20.544 11.218,20.852 11.131 C 21.374 10.983,21.668 10.819,21.981 10.504 C 22.454 10.027,22.648 9.538,22.725 8.632 C 22.752 8.307,22.761 7.303,22.748 5.852 C 22.728 3.441,22.725 3.410,22.521 2.822 C 22.184 1.850,21.285 1.300,19.988 1.271 C 19.619 1.263,19.563 1.271,19.406 1.361 C 18.920 1.636,18.914 2.362,19.395 2.632 C 19.522 2.704,19.661 2.732,20.023 2.762 C 20.711 2.818,20.949 2.941,21.127 3.334 L 21.220 3.540 21.232 6.133 C 21.242 8.393,21.235 8.757,21.180 8.973 C 21.095 9.304,20.980 9.463,20.740 9.580 C 20.389 9.752,20.132 9.766,17.555 9.751 C 14.838 9.735,14.846 9.736,14.555 9.445 C 14.263 9.153,14.264 9.162,14.249 6.443 C 14.235 3.945,14.250 3.629,14.397 3.298 C 14.555 2.940,14.814 2.815,15.506 2.761 C 16.090 2.715,16.274 2.616,16.418 2.271 C 16.528 2.008,16.469 1.702,16.268 1.487 C 16.072 1.277,15.815 1.225,15.240 1.280 M8.968 2.805 C 9.384 2.893,9.566 3.040,9.684 3.380 C 9.763 3.605,9.767 8.852,9.689 9.108 C 9.575 9.485,9.313 9.652,8.737 9.718 C 8.274 9.772,4.251 9.772,3.780 9.719 C 3.277 9.662,3.017 9.530,2.881 9.261 L 2.780 9.062 2.780 6.241 C 2.780 3.144,2.770 3.281,3.020 3.031 C 3.120 2.931,3.370 2.826,3.600 2.788 C 3.848 2.746,8.765 2.762,8.968 2.805 M3.500 12.802 C 3.129 12.856,2.619 13.035,2.368 13.200 C 1.807 13.567,1.504 14.050,1.332 14.846 C 1.267 15.148,1.260 15.425,1.260 17.740 C 1.260 20.468,1.264 20.541,1.462 21.132 C 1.800 22.140,2.693 22.699,4.012 22.729 C 4.381 22.737,4.437 22.729,4.594 22.639 C 5.080 22.364,5.086 21.638,4.605 21.368 C 4.478 21.296,4.339 21.268,3.977 21.238 C 3.289 21.182,3.051 21.059,2.873 20.666 L 2.780 20.460 2.768 17.867 C 2.758 15.607,2.765 15.243,2.820 15.027 C 2.905 14.696,3.020 14.537,3.260 14.420 C 3.611 14.248,3.868 14.234,6.445 14.249 C 9.162 14.265,9.154 14.264,9.445 14.555 C 9.736 14.846,9.735 14.838,9.751 17.555 C 9.765 20.054,9.750 20.370,9.603 20.702 C 9.445 21.060,9.186 21.185,8.494 21.239 C 8.033 21.275,7.884 21.324,7.732 21.487 C 7.324 21.924,7.557 22.621,8.148 22.733 C 8.324 22.766,9.060 22.698,9.367 22.619 C 10.210 22.403,10.801 21.848,11.072 21.017 C 11.232 20.526,11.247 20.187,11.232 17.520 C 11.217 15.083,11.213 14.968,11.132 14.680 C 10.957 14.056,10.684 13.619,10.280 13.314 C 10.007 13.109,9.746 12.986,9.336 12.872 C 9.026 12.785,8.970 12.783,6.380 12.775 C 4.928 12.771,3.632 12.783,3.500 12.802 M14.720 14.805 C 14.458 14.909,14.269 15.200,14.269 15.500 C 14.269 15.807,14.460 16.095,14.733 16.197 C 14.809 16.226,15.868 16.240,18.000 16.240 C 20.132 16.240,21.191 16.226,21.267 16.197 C 21.540 16.095,21.731 15.807,21.731 15.500 C 21.731 15.193,21.540 14.905,21.267 14.803 C 21.117 14.746,14.863 14.748,14.720 14.805 M14.720 18.805 C 14.458 18.909,14.269 19.200,14.269 19.500 C 14.269 19.807,14.460 20.095,14.733 20.197 C 14.809 20.226,15.868 20.240,18.000 20.240 C 20.132 20.240,21.191 20.226,21.267 20.197 C 21.540 20.095,21.731 19.807,21.731 19.500 C 21.731 19.193,21.540 18.905,21.267 18.803 C 21.117 18.746,14.863 18.748,14.720 18.805 " stroke="none" fill-rule="evenodd" fill="black"></path></svg>