<svg width="24" height="24" viewBox="0 0 24 24" fill="none" xmlns="http://www.w3.org/2000/svg"><path d="M3.700 1.284 C 2.634 1.381,1.923 1.798,1.558 2.540 C 1.272 3.121,1.271 3.125,1.251 5.887 C 1.232 8.614,1.255 9.132,1.419 9.619 C 1.730 10.549,2.453 11.063,3.640 11.201 C 3.894 11.231,4.846 11.240,6.520 11.230 C 9.206 11.213,9.257 11.209,9.800 10.993 C 10.494 10.718,10.953 10.181,11.149 9.416 C 11.214 9.164,11.220 8.884,11.220 6.240 C 11.220 3.597,11.214 3.317,11.150 3.080 C 10.848 1.966,10.075 1.394,8.720 1.280 C 8.171 1.234,4.214 1.237,3.700 1.284 M15.217 1.279 C 14.176 1.370,13.414 1.812,13.065 2.526 C 12.770 3.127,12.780 3.003,12.780 6.240 C 12.780 8.953,12.785 9.158,12.855 9.420 C 13.039 10.104,13.434 10.610,14.001 10.888 C 14.687 11.224,14.983 11.249,18.020 11.230 C 20.154 11.216,20.539 11.204,20.778 11.147 C 21.737 10.918,22.306 10.439,22.577 9.634 C 22.744 9.134,22.768 8.620,22.750 5.894 C 22.734 3.522,22.729 3.406,22.647 3.090 C 22.338 1.902,21.455 1.301,19.974 1.269 C 19.620 1.262,19.563 1.271,19.406 1.360 C 18.919 1.637,18.914 2.362,19.396 2.633 C 19.526 2.706,19.658 2.733,20.022 2.760 C 20.734 2.814,20.988 2.930,21.153 3.278 C 21.214 3.407,21.220 3.685,21.220 6.241 L 21.220 9.062 21.119 9.261 C 21.037 9.424,20.979 9.480,20.799 9.570 C 20.445 9.747,20.049 9.768,17.455 9.751 C 15.196 9.736,15.134 9.733,14.874 9.647 C 14.576 9.549,14.399 9.385,14.314 9.131 C 14.247 8.932,14.215 3.912,14.278 3.570 C 14.355 3.155,14.531 2.939,14.875 2.839 C 14.955 2.815,15.229 2.781,15.485 2.762 C 16.090 2.717,16.272 2.621,16.418 2.271 C 16.528 2.008,16.469 1.702,16.268 1.487 C 16.071 1.276,15.822 1.227,15.217 1.279 M8.968 2.805 C 9.384 2.893,9.566 3.040,9.684 3.380 C 9.763 3.605,9.767 8.852,9.689 9.108 C 9.575 9.485,9.313 9.652,8.737 9.718 C 8.274 9.772,4.251 9.772,3.780 9.719 C 3.277 9.662,3.017 9.530,2.881 9.261 L 2.780 9.062 2.780 6.241 C 2.780 3.144,2.770 3.281,3.020 3.031 C 3.120 2.931,3.370 2.826,3.600 2.788 C 3.848 2.746,8.765 2.762,8.968 2.805 M3.500 12.802 C 3.129 12.856,2.619 13.035,2.368 13.200 C 1.807 13.567,1.504 14.050,1.332 14.846 C 1.267 15.148,1.260 15.425,1.260 17.740 C 1.260 20.468,1.264 20.541,1.462 21.132 C 1.800 22.140,2.693 22.699,4.012 22.729 C 4.381 22.737,4.437 22.729,4.594 22.639 C 5.080 22.364,5.086 21.638,4.605 21.368 C 4.478 21.296,4.339 21.268,3.977 21.238 C 3.289 21.182,3.051 21.059,2.873 20.666 L 2.780 20.460 2.768 17.867 C 2.758 15.607,2.765 15.243,2.820 15.027 C 2.905 14.696,3.020 14.537,3.260 14.420 C 3.611 14.248,3.868 14.234,6.445 14.249 C 9.162 14.265,9.154 14.264,9.445 14.555 C 9.736 14.846,9.735 14.838,9.751 17.555 C 9.765 20.054,9.750 20.370,9.603 20.702 C 9.445 21.060,9.186 21.185,8.494 21.239 C 8.033 21.275,7.884 21.324,7.732 21.487 C 7.324 21.924,7.557 22.621,8.148 22.733 C 8.324 22.766,9.060 22.698,9.367 22.619 C 10.210 22.403,10.801 21.848,11.072 21.017 C 11.232 20.526,11.247 20.187,11.232 17.520 C 11.217 15.083,11.213 14.968,11.132 14.680 C 10.957 14.056,10.684 13.619,10.280 13.314 C 10.007 13.109,9.746 12.986,9.336 12.872 C 9.026 12.785,8.970 12.783,6.380 12.775 C 4.928 12.771,3.632 12.783,3.500 12.802 M15.020 12.804 C 13.744 12.986,12.984 13.758,12.803 15.055 C 12.745 15.475,12.745 20.043,12.803 20.467 C 12.944 21.487,13.469 22.206,14.300 22.517 C 14.879 22.733,14.982 22.740,17.740 22.740 C 19.777 22.740,20.357 22.729,20.580 22.684 C 21.795 22.440,22.378 21.881,22.667 20.680 C 22.718 20.466,22.732 20.021,22.748 18.148 C 22.768 15.811,22.742 15.093,22.617 14.620 C 22.402 13.802,21.852 13.209,21.060 12.940 C 20.573 12.775,20.289 12.760,17.720 12.765 C 16.367 12.768,15.152 12.785,15.020 12.804 M20.280 14.282 C 20.614 14.335,20.916 14.483,21.028 14.649 C 21.238 14.960,21.244 15.063,21.232 17.867 L 21.220 20.460 21.128 20.660 C 21.008 20.921,20.916 21.014,20.666 21.127 L 20.460 21.220 17.867 21.232 C 15.607 21.242,15.243 21.235,15.027 21.180 C 14.696 21.095,14.537 20.980,14.420 20.740 C 14.249 20.390,14.235 20.133,14.249 17.557 C 14.261 15.380,14.270 15.119,14.333 14.929 C 14.461 14.545,14.700 14.363,15.181 14.283 C 15.477 14.233,19.968 14.232,20.280 14.282 " stroke="none" fill-rule="evenodd" fill="black"></path></svg>