<svg width="24" height="24" viewBox="0 0 24 24" fill="none" xmlns="http://www.w3.org/2000/svg"><path d="M8.080 1.282 C 4.042 1.493,1.931 3.265,1.398 6.891 C 1.310 7.494,1.225 8.895,1.264 9.113 C 1.278 9.194,1.325 9.318,1.368 9.389 C 1.658 9.870,2.422 9.836,2.661 9.332 C 2.718 9.212,2.740 9.022,2.765 8.423 C 2.900 5.187,3.905 3.654,6.288 3.044 C 7.337 2.776,7.247 2.780,12.000 2.780 C 15.936 2.780,16.339 2.786,16.760 2.852 C 19.558 3.288,20.712 4.442,21.148 7.240 C 21.214 7.661,21.220 8.064,21.220 12.000 C 21.220 15.936,21.214 16.339,21.148 16.760 C 20.712 19.558,19.558 20.712,16.760 21.148 C 16.339 21.214,15.936 21.220,12.000 21.220 C 8.064 21.220,7.661 21.214,7.240 21.148 C 4.756 20.761,3.576 19.795,3.044 17.712 C 2.820 16.835,2.790 16.494,2.764 14.580 C 2.742 12.963,2.734 12.808,2.664 12.668 C 2.404 12.144,1.668 12.123,1.353 12.631 C 1.263 12.775,1.260 12.812,1.247 13.840 C 1.224 15.669,1.334 17.076,1.575 18.027 C 2.267 20.757,3.971 22.193,7.027 22.622 C 7.786 22.728,8.902 22.759,12.000 22.759 C 15.098 22.759,16.214 22.728,16.973 22.622 C 19.443 22.275,20.996 21.288,21.897 19.490 C 22.379 18.530,22.638 17.369,22.720 15.807 C 22.771 14.838,22.771 9.162,22.720 8.193 C 22.657 6.998,22.521 6.191,22.242 5.356 C 21.632 3.531,20.469 2.367,18.650 1.760 C 17.788 1.473,17.023 1.344,15.806 1.280 C 14.952 1.235,8.952 1.237,8.080 1.282 M8.400 7.283 C 7.770 7.350,7.092 7.655,6.624 8.083 C 6.344 8.340,6.269 8.479,6.269 8.743 C 6.269 9.165,6.580 9.480,6.996 9.480 C 7.238 9.480,7.361 9.424,7.627 9.194 C 7.733 9.102,7.937 8.971,8.080 8.903 C 8.326 8.787,8.367 8.780,8.820 8.780 C 9.273 8.780,9.314 8.787,9.560 8.903 C 9.703 8.971,9.907 9.102,10.013 9.194 C 10.279 9.424,10.402 9.480,10.643 9.480 C 11.059 9.480,11.371 9.166,11.371 8.746 C 11.371 8.500,11.301 8.351,11.093 8.157 C 10.715 7.804,10.269 7.538,9.831 7.405 C 9.612 7.338,8.825 7.225,8.726 7.245 C 8.712 7.248,8.565 7.265,8.400 7.283 M14.760 7.283 C 14.130 7.350,13.452 7.655,12.984 8.083 C 12.704 8.340,12.629 8.479,12.629 8.743 C 12.629 9.165,12.940 9.480,13.356 9.480 C 13.598 9.480,13.721 9.424,13.987 9.194 C 14.093 9.102,14.297 8.971,14.440 8.903 C 14.686 8.787,14.727 8.780,15.180 8.780 C 15.633 8.780,15.674 8.787,15.920 8.903 C 16.063 8.971,16.267 9.102,16.373 9.194 C 16.639 9.424,16.762 9.480,17.003 9.480 C 17.419 9.480,17.731 9.166,17.731 8.746 C 17.731 8.500,17.661 8.351,17.453 8.157 C 17.075 7.804,16.629 7.538,16.191 7.405 C 15.972 7.338,15.185 7.225,15.086 7.245 C 15.072 7.248,14.925 7.265,14.760 7.283 M11.180 11.622 C 10.128 11.800,9.153 12.279,8.401 12.987 C 7.573 13.766,7.009 14.846,6.819 16.019 C 6.710 16.692,6.753 17.196,6.954 17.588 C 7.064 17.803,7.397 18.136,7.612 18.246 C 7.994 18.442,7.936 18.439,12.000 18.439 C 16.064 18.439,16.006 18.442,16.388 18.246 C 16.603 18.136,16.936 17.803,17.046 17.588 C 17.247 17.196,17.290 16.692,17.181 16.019 C 16.995 14.871,16.504 13.902,15.701 13.099 C 14.898 12.296,13.929 11.805,12.781 11.619 C 12.342 11.548,11.613 11.549,11.180 11.622 M12.801 13.135 C 14.210 13.443,15.369 14.603,15.663 15.999 C 15.753 16.425,15.779 16.829,15.721 16.899 C 15.676 16.953,15.232 16.960,12.000 16.960 C 8.768 16.960,8.324 16.953,8.279 16.899 C 8.243 16.855,8.237 16.754,8.257 16.529 C 8.438 14.492,10.125 12.976,12.120 13.060 C 12.351 13.070,12.657 13.104,12.801 13.135 " stroke="none" fill-rule="evenodd" fill="black"></path></svg>