<svg width="24" height="24" viewBox="0 0 24 24" fill="none" xmlns="http://www.w3.org/2000/svg"><path d="M12.257 1.395 C 11.816 1.522,11.620 1.705,11.542 2.067 C 11.480 2.354,11.679 2.709,11.978 2.845 C 12.175 2.934,12.319 2.938,12.576 2.860 C 12.834 2.782,13.099 2.784,13.343 2.867 C 13.587 2.950,13.958 3.308,14.038 3.540 C 14.081 3.664,14.098 4.075,14.110 5.350 L 14.126 7.000 10.113 7.000 C 7.538 7.000,5.971 7.015,5.740 7.043 C 4.903 7.141,4.163 7.446,3.490 7.967 L 3.240 8.161 3.240 7.954 C 3.240 7.166,3.636 6.418,4.246 6.051 C 4.364 5.981,5.412 5.563,6.576 5.123 C 8.140 4.532,8.723 4.294,8.811 4.212 C 9.266 3.784,9.007 3.001,8.387 2.931 C 8.236 2.914,8.048 2.973,7.016 3.361 C 4.212 4.414,3.745 4.601,3.447 4.787 C 2.609 5.309,2.004 6.195,1.822 7.162 C 1.767 7.458,1.760 7.933,1.769 10.927 L 1.780 14.353 1.903 14.506 C 2.061 14.704,2.252 14.800,2.487 14.800 C 2.811 14.800,3.017 14.677,3.160 14.400 C 3.224 14.274,3.233 14.096,3.250 12.620 C 3.267 11.024,3.271 10.971,3.365 10.659 C 3.664 9.675,4.450 8.907,5.480 8.593 L 5.780 8.502 11.700 8.490 C 15.142 8.483,17.779 8.494,18.000 8.515 C 18.745 8.588,19.360 8.881,19.868 9.404 C 20.182 9.729,20.240 9.804,20.413 10.121 C 20.644 10.542,20.724 10.893,20.749 11.586 L 20.770 12.191 19.835 12.210 C 18.801 12.230,18.681 12.252,18.186 12.511 C 17.827 12.699,17.331 13.167,17.103 13.534 C 17.005 13.691,16.875 13.964,16.813 14.140 C 16.711 14.432,16.701 14.508,16.703 15.000 C 16.705 15.480,16.717 15.575,16.814 15.856 C 17.117 16.732,17.793 17.373,18.740 17.682 C 18.988 17.763,19.121 17.775,19.896 17.791 L 20.771 17.808 20.748 18.294 C 20.723 18.789,20.679 19.008,20.522 19.399 C 20.279 20.003,19.684 20.633,19.071 20.932 C 18.398 21.261,18.886 21.240,12.000 21.240 C 5.114 21.240,5.602 21.261,4.929 20.932 C 3.990 20.474,3.338 19.516,3.259 18.480 C 3.222 17.999,3.203 17.926,3.072 17.777 C 2.904 17.585,2.740 17.509,2.500 17.509 C 2.260 17.509,2.096 17.585,1.928 17.777 C 1.774 17.953,1.742 18.114,1.773 18.576 C 1.891 20.357,3.146 21.955,4.866 22.515 C 5.586 22.749,5.287 22.740,12.000 22.740 C 18.713 22.740,18.414 22.749,19.134 22.515 C 20.602 22.037,21.702 20.855,22.108 19.320 C 22.188 19.017,22.213 18.809,22.229 18.296 L 22.250 17.653 22.462 17.526 C 22.819 17.313,23.122 16.913,23.242 16.499 C 23.326 16.211,23.326 13.789,23.242 13.501 C 23.122 13.085,22.819 12.687,22.457 12.471 L 22.240 12.341 22.240 11.736 C 22.240 11.369,22.216 10.991,22.178 10.775 C 21.830 8.779,20.255 7.278,18.260 7.043 C 18.062 7.019,17.383 7.000,16.750 7.000 L 15.600 7.000 15.599 5.390 C 15.597 3.650,15.575 3.389,15.387 2.928 C 15.253 2.600,14.979 2.219,14.695 1.966 C 14.435 1.734,13.928 1.467,13.582 1.380 C 13.255 1.298,12.570 1.306,12.257 1.395 M6.815 11.278 C 6.331 11.393,6.098 12.004,6.383 12.408 C 6.447 12.499,6.572 12.610,6.660 12.656 C 6.818 12.739,6.858 12.740,10.379 12.751 C 12.882 12.759,14.001 12.749,14.152 12.717 C 14.902 12.562,14.930 11.473,14.189 11.286 C 13.979 11.234,7.034 11.226,6.815 11.278 M21.727 13.786 C 21.794 13.847,21.800 13.939,21.800 15.000 C 21.800 16.074,21.795 16.152,21.724 16.216 C 21.656 16.278,21.533 16.283,20.414 16.272 L 19.180 16.260 18.927 16.123 C 18.415 15.845,18.174 15.437,18.209 14.905 C 18.243 14.377,18.565 13.958,19.075 13.775 C 19.181 13.737,19.547 13.723,20.437 13.722 C 21.515 13.720,21.662 13.728,21.727 13.786 " stroke="none" fill-rule="evenodd" fill="black"></path></svg>