<svg width="24" height="24" viewBox="0 0 24 24" fill="none" xmlns="http://www.w3.org/2000/svg"><path d="M12.257 1.395 C 11.816 1.522,11.620 1.705,11.542 2.067 C 11.480 2.354,11.679 2.709,11.978 2.845 C 12.175 2.934,12.319 2.938,12.576 2.860 C 12.834 2.782,13.099 2.784,13.343 2.867 C 13.587 2.950,13.958 3.308,14.038 3.540 C 14.081 3.664,14.098 4.075,14.110 5.350 L 14.126 7.000 10.113 7.000 C 7.538 7.000,5.971 7.015,5.740 7.043 C 4.903 7.141,4.163 7.446,3.490 7.967 L 3.240 8.161 3.240 7.954 C 3.240 7.166,3.636 6.418,4.246 6.051 C 4.364 5.981,5.412 5.563,6.576 5.123 C 8.140 4.532,8.723 4.294,8.811 4.212 C 9.266 3.784,9.007 3.001,8.387 2.931 C 8.236 2.914,8.048 2.973,7.016 3.361 C 4.212 4.414,3.745 4.601,3.447 4.787 C 2.612 5.307,2.006 6.191,1.823 7.154 C 1.768 7.446,1.760 8.007,1.760 11.510 L 1.760 15.530 1.510 15.796 C 0.436 16.940,0.007 18.681,0.419 20.227 C 0.611 20.948,1.035 21.701,1.567 22.263 C 3.167 23.956,5.823 24.230,7.690 22.896 L 7.880 22.760 10.918 22.760 C 12.986 22.760,14.022 22.746,14.162 22.716 C 14.904 22.557,14.924 21.471,14.189 21.286 C 14.059 21.254,13.291 21.240,11.605 21.240 L 9.206 21.240 9.340 20.930 C 10.134 19.097,9.751 17.038,8.357 15.643 C 7.457 14.744,6.228 14.239,4.941 14.240 C 4.509 14.241,3.700 14.392,3.291 14.549 C 3.239 14.569,3.234 14.347,3.249 12.776 C 3.267 11.011,3.269 10.974,3.365 10.659 C 3.665 9.674,4.450 8.907,5.480 8.593 L 5.780 8.502 11.700 8.490 C 15.142 8.483,17.779 8.494,18.000 8.515 C 18.745 8.588,19.360 8.881,19.868 9.404 C 20.182 9.729,20.240 9.804,20.413 10.121 C 20.644 10.542,20.724 10.893,20.749 11.586 L 20.770 12.191 19.835 12.210 C 18.801 12.230,18.681 12.252,18.186 12.511 C 17.827 12.699,17.331 13.167,17.103 13.534 C 17.005 13.691,16.875 13.964,16.813 14.140 C 16.711 14.432,16.701 14.508,16.703 15.000 C 16.705 15.480,16.717 15.575,16.814 15.856 C 17.117 16.732,17.793 17.373,18.740 17.682 C 18.988 17.763,19.121 17.775,19.896 17.791 L 20.771 17.808 20.748 18.294 C 20.723 18.789,20.679 19.008,20.522 19.399 C 20.289 19.980,19.692 20.623,19.114 20.914 C 18.700 21.123,18.454 21.191,17.931 21.239 C 17.706 21.260,17.472 21.303,17.411 21.335 C 16.967 21.567,16.859 22.141,17.193 22.494 C 17.383 22.695,17.505 22.736,17.898 22.728 C 19.588 22.694,21.202 21.597,21.868 20.030 C 22.119 19.439,22.206 19.019,22.229 18.296 L 22.250 17.653 22.462 17.526 C 22.819 17.313,23.122 16.913,23.242 16.499 C 23.326 16.211,23.326 13.789,23.242 13.501 C 23.122 13.085,22.819 12.687,22.457 12.471 L 22.240 12.341 22.240 11.736 C 22.240 11.369,22.216 10.991,22.178 10.775 C 21.830 8.779,20.255 7.278,18.260 7.043 C 18.062 7.019,17.383 7.000,16.750 7.000 L 15.600 7.000 15.599 5.390 C 15.597 3.650,15.575 3.389,15.387 2.928 C 15.253 2.600,14.979 2.219,14.695 1.966 C 14.435 1.734,13.928 1.467,13.582 1.380 C 13.255 1.298,12.570 1.306,12.257 1.395 M6.815 11.278 C 6.331 11.393,6.098 12.004,6.383 12.408 C 6.447 12.499,6.572 12.610,6.660 12.656 C 6.818 12.739,6.858 12.740,10.379 12.751 C 12.882 12.759,14.001 12.749,14.152 12.717 C 14.902 12.562,14.930 11.473,14.189 11.286 C 13.979 11.234,7.034 11.226,6.815 11.278 M21.727 13.786 C 21.794 13.847,21.800 13.939,21.800 15.000 C 21.800 16.074,21.795 16.152,21.724 16.216 C 21.656 16.278,21.533 16.283,20.414 16.272 L 19.180 16.260 18.927 16.123 C 18.415 15.845,18.174 15.437,18.209 14.905 C 18.243 14.377,18.565 13.958,19.075 13.775 C 19.181 13.737,19.547 13.723,20.437 13.722 C 21.515 13.720,21.662 13.728,21.727 13.786 M5.820 15.852 C 6.967 16.178,7.828 17.039,8.147 18.180 C 8.298 18.721,8.244 19.587,8.026 20.145 C 7.699 20.978,6.998 21.704,6.217 22.017 C 5.626 22.253,4.852 22.310,4.256 22.161 C 2.543 21.730,1.470 20.040,1.824 18.328 C 2.081 17.084,3.083 16.092,4.360 15.818 C 4.679 15.750,5.528 15.770,5.820 15.852 M4.815 16.797 C 4.638 16.841,4.461 16.976,4.355 17.149 C 4.277 17.274,4.261 17.365,4.247 17.768 L 4.230 18.240 3.788 18.240 C 3.257 18.240,3.059 18.313,2.887 18.572 C 2.734 18.803,2.734 19.157,2.887 19.388 C 3.059 19.647,3.257 19.720,3.788 19.720 L 4.230 19.720 4.247 20.210 C 4.261 20.638,4.276 20.722,4.361 20.874 C 4.638 21.366,5.362 21.366,5.639 20.874 C 5.724 20.722,5.739 20.638,5.753 20.210 L 5.770 19.720 6.212 19.720 C 6.740 19.720,6.925 19.652,7.106 19.392 C 7.201 19.254,7.220 19.186,7.220 18.980 C 7.220 18.774,7.201 18.706,7.106 18.568 C 6.925 18.307,6.741 18.240,6.207 18.240 L 5.760 18.240 5.759 17.890 C 5.758 17.463,5.706 17.222,5.580 17.056 C 5.421 16.847,5.078 16.731,4.815 16.797 " stroke="none" fill-rule="evenodd" fill="black"></path></svg>