<svg width="24" height="24" viewBox="0 0 24 24" fill="none" xmlns="http://www.w3.org/2000/svg"><path d="M12.257 1.395 C 11.816 1.522,11.620 1.705,11.542 2.067 C 11.480 2.354,11.679 2.709,11.978 2.845 C 12.175 2.934,12.319 2.938,12.576 2.860 C 12.834 2.782,13.099 2.784,13.343 2.867 C 13.587 2.950,13.958 3.308,14.038 3.540 C 14.081 3.664,14.098 4.075,14.110 5.350 L 14.126 7.000 10.113 7.000 C 7.538 7.000,5.971 7.015,5.740 7.043 C 4.903 7.141,4.163 7.446,3.490 7.967 L 3.240 8.161 3.240 7.954 C 3.240 7.166,3.636 6.418,4.246 6.051 C 4.364 5.981,5.412 5.563,6.576 5.123 C 8.140 4.532,8.723 4.294,8.811 4.212 C 9.266 3.784,9.007 3.001,8.387 2.931 C 8.236 2.914,8.048 2.973,7.016 3.361 C 4.212 4.414,3.745 4.601,3.447 4.787 C 2.612 5.307,2.006 6.191,1.823 7.154 C 1.769 7.441,1.760 7.914,1.760 10.442 C 1.760 12.431,1.774 13.432,1.803 13.507 C 1.856 13.649,2.024 13.828,2.179 13.909 C 2.333 13.990,2.668 13.989,2.825 13.908 C 3.001 13.817,3.193 13.583,3.216 13.431 C 3.228 13.359,3.245 12.778,3.254 12.140 C 3.270 11.061,3.278 10.958,3.367 10.659 C 3.659 9.679,4.449 8.907,5.480 8.593 L 5.780 8.502 11.700 8.490 C 15.142 8.483,17.779 8.494,18.000 8.515 C 18.745 8.588,19.360 8.881,19.868 9.404 C 20.182 9.729,20.240 9.804,20.413 10.121 C 20.644 10.542,20.724 10.893,20.749 11.586 L 20.770 12.191 19.835 12.210 C 18.801 12.230,18.681 12.252,18.186 12.511 C 17.827 12.699,17.331 13.167,17.103 13.534 C 17.005 13.691,16.875 13.964,16.813 14.140 C 16.711 14.432,16.701 14.508,16.703 15.000 C 16.705 15.482,16.717 15.574,16.816 15.860 C 17.115 16.728,17.799 17.375,18.740 17.682 C 18.988 17.763,19.121 17.775,19.896 17.791 L 20.771 17.808 20.748 18.294 C 20.723 18.789,20.679 19.008,20.522 19.399 C 20.289 19.980,19.692 20.623,19.114 20.914 C 18.485 21.232,18.711 21.214,15.200 21.238 C 11.748 21.262,11.959 21.246,11.713 21.506 C 11.519 21.711,11.463 22.027,11.574 22.292 C 11.639 22.447,11.879 22.667,12.031 22.709 C 12.091 22.726,13.499 22.740,15.160 22.740 C 18.435 22.740,18.444 22.739,19.134 22.515 C 20.602 22.037,21.702 20.855,22.108 19.320 C 22.188 19.018,22.213 18.809,22.229 18.298 L 22.250 17.657 22.470 17.518 C 22.839 17.286,23.123 16.911,23.242 16.499 C 23.326 16.211,23.326 13.789,23.242 13.501 C 23.122 13.085,22.819 12.687,22.457 12.471 L 22.240 12.341 22.240 11.736 C 22.240 11.369,22.216 10.991,22.178 10.775 C 21.830 8.779,20.255 7.278,18.260 7.043 C 18.062 7.019,17.383 7.000,16.750 7.000 L 15.600 7.000 15.599 5.390 C 15.597 3.650,15.575 3.389,15.387 2.928 C 15.253 2.600,14.979 2.219,14.695 1.966 C 14.435 1.734,13.928 1.467,13.582 1.380 C 13.255 1.298,12.570 1.306,12.257 1.395 M6.815 11.278 C 6.331 11.393,6.098 12.004,6.383 12.408 C 6.447 12.499,6.572 12.610,6.660 12.656 C 6.818 12.739,6.858 12.740,10.379 12.751 C 12.882 12.759,14.001 12.749,14.152 12.717 C 14.902 12.562,14.930 11.473,14.189 11.286 C 13.979 11.234,7.034 11.226,6.815 11.278 M21.727 13.786 C 21.794 13.847,21.800 13.939,21.800 15.000 C 21.800 16.074,21.795 16.152,21.724 16.216 C 21.656 16.278,21.533 16.283,20.414 16.272 L 19.180 16.260 18.927 16.123 C 18.415 15.845,18.174 15.437,18.209 14.905 C 18.243 14.377,18.565 13.958,19.075 13.775 C 19.181 13.737,19.547 13.723,20.437 13.722 C 21.515 13.720,21.662 13.728,21.727 13.786 M4.049 14.559 C 3.838 14.609,3.650 14.765,2.970 15.452 C 2.429 16.000,2.321 16.130,2.281 16.278 C 2.209 16.542,2.259 16.767,2.437 16.989 C 2.678 17.291,3.726 18.301,3.879 18.380 C 4.051 18.468,4.380 18.473,4.541 18.389 C 4.696 18.308,4.864 18.129,4.917 17.987 C 4.983 17.815,4.968 17.553,4.884 17.388 L 4.809 17.240 6.586 17.240 C 8.576 17.240,8.595 17.242,8.701 17.497 C 8.745 17.603,8.760 17.819,8.761 18.369 C 8.762 19.296,8.819 19.455,9.210 19.618 C 9.405 19.700,9.624 19.695,9.820 19.605 C 10.195 19.433,10.240 19.287,10.240 18.250 C 10.240 17.346,10.208 17.130,10.016 16.751 C 9.881 16.486,9.514 16.119,9.249 15.984 C 8.820 15.767,8.740 15.760,6.696 15.760 L 4.809 15.760 4.884 15.612 C 5.021 15.343,4.973 15.004,4.767 14.786 C 4.576 14.584,4.306 14.499,4.049 14.559 M2.720 18.645 C 2.590 18.697,2.410 18.869,2.327 19.020 C 2.244 19.173,2.211 20.359,2.276 20.850 C 2.355 21.450,2.711 21.982,3.240 22.291 C 3.615 22.510,3.730 22.520,5.788 22.520 C 6.829 22.520,7.680 22.530,7.680 22.541 C 7.680 22.553,7.650 22.609,7.613 22.665 C 7.512 22.819,7.524 23.192,7.636 23.374 C 7.817 23.666,8.110 23.787,8.459 23.713 C 8.647 23.673,8.707 23.624,9.395 22.945 C 9.799 22.546,10.154 22.162,10.185 22.091 C 10.256 21.926,10.256 21.634,10.185 21.469 C 10.154 21.398,9.799 21.014,9.395 20.615 C 8.707 19.936,8.647 19.887,8.459 19.847 C 8.110 19.773,7.817 19.894,7.636 20.186 C 7.524 20.368,7.512 20.741,7.613 20.895 C 7.650 20.951,7.680 21.007,7.680 21.020 C 7.680 21.032,6.852 21.037,5.841 21.031 L 4.002 21.020 3.891 20.909 L 3.780 20.798 3.759 19.969 C 3.736 19.072,3.722 19.008,3.494 18.793 C 3.431 18.733,3.329 18.666,3.267 18.643 C 3.129 18.590,2.854 18.591,2.720 18.645 " stroke="none" fill-rule="evenodd" fill="black"></path></svg>