<svg width="24" height="24" viewBox="0 0 24 24" fill="none" xmlns="http://www.w3.org/2000/svg"><path d="M12.257 1.395 C 11.816 1.522,11.620 1.705,11.542 2.067 C 11.480 2.354,11.679 2.709,11.978 2.845 C 12.175 2.934,12.319 2.938,12.576 2.860 C 12.834 2.782,13.099 2.784,13.343 2.867 C 13.587 2.950,13.958 3.308,14.038 3.540 C 14.081 3.664,14.098 4.075,14.110 5.350 L 14.126 7.000 10.113 7.000 C 7.538 7.000,5.971 7.015,5.740 7.043 C 4.903 7.141,4.163 7.446,3.490 7.967 L 3.240 8.161 3.240 7.954 C 3.240 7.166,3.636 6.418,4.246 6.051 C 4.364 5.981,5.412 5.563,6.576 5.123 C 8.140 4.532,8.723 4.294,8.811 4.212 C 9.266 3.784,9.007 3.001,8.387 2.931 C 8.236 2.914,8.048 2.973,7.016 3.361 C 4.212 4.414,3.745 4.601,3.447 4.787 C 2.612 5.307,2.006 6.191,1.823 7.154 C 1.768 7.446,1.760 8.007,1.760 11.510 L 1.760 15.530 1.510 15.796 C 0.474 16.900,0.037 18.560,0.383 20.079 C 0.776 21.807,2.193 23.225,3.919 23.617 C 4.762 23.809,5.770 23.759,6.560 23.487 C 6.849 23.387,7.360 23.125,7.660 22.922 L 7.900 22.760 10.928 22.760 C 12.988 22.760,14.022 22.746,14.162 22.716 C 14.904 22.557,14.924 21.471,14.189 21.286 C 14.059 21.254,13.291 21.240,11.602 21.240 C 10.281 21.240,9.200 21.230,9.200 21.219 C 9.200 21.207,9.225 21.157,9.256 21.109 C 9.354 20.954,9.591 20.271,9.655 19.960 C 9.884 18.840,9.693 17.633,9.133 16.660 C 8.261 15.148,6.686 14.239,4.941 14.240 C 4.509 14.241,3.700 14.392,3.291 14.549 C 3.239 14.569,3.234 14.347,3.249 12.776 C 3.267 11.011,3.269 10.974,3.365 10.659 C 3.665 9.674,4.450 8.907,5.480 8.593 L 5.780 8.502 11.700 8.490 C 15.142 8.483,17.779 8.494,18.000 8.515 C 18.745 8.588,19.360 8.881,19.868 9.404 C 20.182 9.729,20.240 9.804,20.413 10.121 C 20.644 10.542,20.724 10.893,20.749 11.586 L 20.770 12.191 19.835 12.210 C 18.801 12.230,18.681 12.252,18.186 12.511 C 17.827 12.699,17.331 13.167,17.103 13.534 C 17.005 13.691,16.875 13.964,16.813 14.140 C 16.711 14.432,16.701 14.508,16.703 15.000 C 16.705 15.482,16.717 15.574,16.816 15.860 C 17.115 16.728,17.799 17.375,18.740 17.682 C 18.988 17.763,19.121 17.775,19.896 17.791 L 20.771 17.808 20.748 18.294 C 20.723 18.789,20.679 19.008,20.522 19.399 C 20.289 19.980,19.692 20.623,19.114 20.914 C 18.700 21.123,18.454 21.191,17.931 21.239 C 17.706 21.260,17.472 21.303,17.411 21.335 C 16.967 21.567,16.859 22.141,17.193 22.494 C 17.383 22.695,17.505 22.736,17.898 22.728 C 19.588 22.694,21.202 21.597,21.868 20.030 C 22.118 19.440,22.206 19.019,22.229 18.298 L 22.250 17.657 22.470 17.518 C 22.839 17.286,23.123 16.911,23.242 16.499 C 23.326 16.211,23.326 13.789,23.242 13.501 C 23.122 13.085,22.819 12.687,22.457 12.471 L 22.240 12.341 22.240 11.736 C 22.240 11.369,22.216 10.991,22.178 10.775 C 21.830 8.779,20.255 7.278,18.260 7.043 C 18.062 7.019,17.383 7.000,16.750 7.000 L 15.600 7.000 15.599 5.390 C 15.597 3.650,15.575 3.389,15.387 2.928 C 15.253 2.600,14.979 2.219,14.695 1.966 C 14.435 1.734,13.928 1.467,13.582 1.380 C 13.255 1.298,12.570 1.306,12.257 1.395 M6.815 11.278 C 6.331 11.393,6.098 12.004,6.383 12.408 C 6.447 12.499,6.572 12.610,6.660 12.656 C 6.818 12.739,6.858 12.740,10.379 12.751 C 12.882 12.759,14.001 12.749,14.152 12.717 C 14.902 12.562,14.930 11.473,14.189 11.286 C 13.979 11.234,7.034 11.226,6.815 11.278 M21.727 13.786 C 21.794 13.847,21.800 13.939,21.800 15.000 C 21.800 16.074,21.795 16.152,21.724 16.216 C 21.656 16.278,21.533 16.283,20.414 16.272 L 19.180 16.260 18.927 16.123 C 18.415 15.845,18.174 15.437,18.209 14.905 C 18.243 14.377,18.565 13.958,19.075 13.775 C 19.181 13.737,19.547 13.723,20.437 13.722 C 21.515 13.720,21.662 13.728,21.727 13.786 M5.820 15.852 C 6.967 16.178,7.826 17.038,8.147 18.180 C 8.244 18.525,8.261 19.213,8.182 19.601 C 7.914 20.929,6.867 21.973,5.574 22.201 C 5.135 22.278,4.417 22.234,4.020 22.105 C 3.494 21.933,3.146 21.715,2.716 21.284 C 2.285 20.854,2.067 20.507,1.895 19.980 C 1.687 19.341,1.726 18.407,1.987 17.782 C 2.405 16.781,3.292 16.047,4.360 15.818 C 4.679 15.750,5.528 15.770,5.820 15.852 M4.961 17.061 C 4.586 17.230,4.520 17.397,4.520 18.172 C 4.520 18.709,4.511 18.795,4.450 18.848 C 4.412 18.881,4.178 19.028,3.932 19.175 C 3.457 19.459,3.355 19.561,3.284 19.825 C 3.143 20.348,3.643 20.859,4.160 20.720 C 4.379 20.661,5.690 19.868,5.816 19.718 C 5.983 19.519,6.006 19.344,5.993 18.386 C 5.980 17.534,5.976 17.495,5.887 17.370 C 5.659 17.050,5.272 16.921,4.961 17.061 " stroke="none" fill-rule="evenodd" fill="black"></path></svg>