<svg width="24" height="24" viewBox="0 0 24 24" fill="none" xmlns="http://www.w3.org/2000/svg"><path d="M14.979 1.319 C 14.377 1.404,13.779 1.639,13.286 1.985 C 12.968 2.208,2.527 12.615,2.138 13.097 C 1.562 13.811,1.308 14.535,1.307 15.460 C 1.306 16.284,1.522 16.975,1.986 17.634 C 2.210 17.953,5.721 21.495,6.177 21.862 C 6.876 22.426,7.489 22.644,8.580 22.718 C 9.440 22.776,20.889 22.774,21.162 22.716 C 21.904 22.557,21.924 21.471,21.189 21.286 C 21.054 21.253,19.732 21.240,16.293 21.240 L 11.581 21.240 14.986 17.830 C 17.751 15.061,18.400 14.391,18.440 14.265 C 18.598 13.769,18.257 13.280,17.753 13.280 C 17.650 13.280,17.515 13.299,17.453 13.322 C 17.391 13.345,16.786 13.916,16.110 14.592 L 14.880 15.820 11.530 12.469 L 8.180 9.119 11.160 6.147 C 14.353 2.963,14.284 3.024,14.853 2.860 C 14.997 2.818,15.228 2.793,15.460 2.793 C 15.883 2.793,16.174 2.862,16.540 3.051 C 16.740 3.154,17.117 3.511,18.803 5.197 C 20.489 6.883,20.846 7.260,20.949 7.460 C 21.138 7.826,21.207 8.117,21.207 8.540 C 21.207 9.140,21.053 9.554,20.658 10.021 C 20.406 10.318,20.360 10.416,20.360 10.660 C 20.360 10.974,20.486 11.179,20.768 11.324 C 21.136 11.513,21.482 11.381,21.860 10.908 C 22.438 10.186,22.698 9.441,22.696 8.520 C 22.693 7.716,22.472 7.017,22.014 6.366 C 21.790 6.047,18.279 2.505,17.823 2.138 C 17.351 1.757,16.856 1.515,16.276 1.382 C 15.945 1.306,15.295 1.274,14.979 1.319 M7.830 10.890 L 8.520 11.581 5.886 14.214 L 3.251 16.848 3.171 16.734 C 3.043 16.553,2.933 16.316,2.861 16.068 C 2.773 15.766,2.773 15.153,2.861 14.848 C 3.019 14.303,3.048 14.269,5.136 12.170 C 6.214 11.087,7.107 10.200,7.119 10.200 C 7.131 10.200,7.451 10.511,7.830 10.890 M10.470 13.530 C 10.937 13.997,11.320 14.398,11.320 14.420 C 11.320 14.442,10.141 15.639,8.700 17.080 L 6.080 19.700 5.190 18.810 L 4.300 17.920 6.920 15.300 C 8.361 13.859,9.558 12.680,9.580 12.680 C 9.601 12.680,10.002 13.062,10.470 13.530 M11.860 18.835 C 10.647 20.044,9.827 20.831,9.710 20.898 C 8.964 21.328,8.039 21.319,7.341 20.877 L 7.147 20.753 9.783 18.117 L 12.420 15.480 13.120 16.181 L 13.820 16.881 11.860 18.835 " stroke="none" fill-rule="evenodd" fill="black"></path></svg>