<svg width="24" height="24" viewBox="0 0 24 24" fill="none" xmlns="http://www.w3.org/2000/svg"><path d="M8.080 1.282 C 4.042 1.493,1.931 3.265,1.398 6.891 C 1.310 7.494,1.225 8.895,1.264 9.113 C 1.278 9.194,1.325 9.318,1.368 9.389 C 1.658 9.870,2.422 9.836,2.661 9.332 C 2.718 9.212,2.740 9.022,2.765 8.423 C 2.900 5.187,3.905 3.654,6.288 3.044 C 7.337 2.776,7.247 2.780,12.000 2.780 C 15.936 2.780,16.339 2.786,16.760 2.852 C 19.558 3.288,20.712 4.442,21.148 7.240 C 21.214 7.661,21.220 8.064,21.220 12.000 C 21.220 15.936,21.214 16.339,21.148 16.760 C 20.712 19.558,19.558 20.712,16.760 21.148 C 16.339 21.214,15.936 21.220,12.000 21.220 C 8.064 21.220,7.661 21.214,7.240 21.148 C 4.756 20.761,3.576 19.795,3.044 17.712 C 2.821 16.838,2.790 16.492,2.764 14.600 L 2.740 12.860 2.640 12.686 C 2.359 12.194,1.641 12.194,1.360 12.686 C 1.262 12.857,1.260 12.878,1.247 13.880 C 1.223 15.664,1.336 17.082,1.575 18.027 C 2.267 20.757,3.971 22.193,7.027 22.622 C 7.786 22.728,8.902 22.759,12.000 22.759 C 15.098 22.759,16.214 22.728,16.973 22.622 C 19.443 22.275,20.996 21.288,21.897 19.490 C 22.379 18.530,22.638 17.369,22.720 15.807 C 22.771 14.838,22.771 9.162,22.720 8.193 C 22.657 6.998,22.521 6.191,22.242 5.356 C 21.632 3.531,20.469 2.367,18.650 1.760 C 17.788 1.473,17.023 1.344,15.806 1.280 C 14.952 1.235,8.952 1.237,8.080 1.282 M13.471 5.801 C 13.162 5.853,12.901 5.954,12.633 6.126 C 12.266 6.361,6.430 12.189,6.159 12.592 C 5.689 13.289,5.632 14.210,6.010 14.974 C 6.161 15.280,6.244 15.373,7.356 16.494 C 8.533 17.680,8.797 17.908,9.180 18.069 C 9.793 18.326,10.599 18.289,11.210 17.976 C 11.480 17.838,11.723 17.604,14.664 14.664 C 17.604 11.723,17.838 11.480,17.976 11.210 C 18.327 10.525,18.327 9.675,17.975 8.990 C 17.843 8.732,17.687 8.560,16.563 7.435 C 15.392 6.263,15.278 6.160,15.000 6.025 C 14.518 5.791,13.991 5.714,13.471 5.801 M14.320 7.362 C 14.397 7.401,14.957 7.934,15.565 8.547 C 16.635 9.625,16.671 9.667,16.720 9.875 C 16.760 10.047,16.760 10.136,16.721 10.315 L 16.672 10.540 15.127 12.090 L 13.581 13.641 11.971 12.031 L 10.360 10.420 11.810 8.968 C 12.608 8.169,13.313 7.476,13.378 7.429 C 13.635 7.242,14.028 7.214,14.320 7.362 M11.570 15.650 C 11.048 16.173,10.559 16.629,10.485 16.665 C 10.286 16.759,10.066 16.778,9.850 16.719 C 9.678 16.672,9.553 16.561,8.547 15.564 C 7.929 14.951,7.396 14.389,7.349 14.300 C 7.239 14.093,7.233 13.719,7.336 13.520 C 7.376 13.443,7.834 12.952,8.354 12.430 L 9.299 11.479 10.909 13.089 L 12.520 14.700 11.570 15.650 " stroke="none" fill-rule="evenodd" fill="black"></path></svg>