<svg width="24" height="24" viewBox="0 0 24 24" fill="none" xmlns="http://www.w3.org/2000/svg"><path d="M8.080 1.282 C 4.042 1.493,1.931 3.265,1.398 6.891 C 1.310 7.494,1.225 8.895,1.264 9.113 C 1.278 9.194,1.325 9.318,1.368 9.389 C 1.658 9.870,2.422 9.836,2.661 9.332 C 2.718 9.212,2.740 9.022,2.765 8.423 C 2.900 5.188,3.905 3.653,6.288 3.044 C 7.165 2.820,7.506 2.790,9.420 2.764 C 11.037 2.742,11.192 2.734,11.332 2.664 C 11.928 2.369,11.832 1.448,11.189 1.286 C 10.982 1.234,9.049 1.232,8.080 1.282 M17.015 1.278 C 16.542 1.391,16.303 1.989,16.571 2.393 C 16.628 2.479,16.743 2.593,16.827 2.645 L 16.980 2.740 18.577 2.752 L 20.175 2.764 16.250 6.692 C 13.425 9.519,12.316 10.654,12.294 10.740 C 12.134 11.349,12.583 11.836,13.189 11.712 C 13.375 11.673,13.490 11.563,17.308 7.749 L 21.236 3.825 21.248 5.423 C 21.260 7.014,21.260 7.021,21.353 7.169 C 21.712 7.747,22.576 7.616,22.716 6.962 C 22.777 6.677,22.777 2.123,22.716 1.838 C 22.655 1.554,22.446 1.345,22.162 1.284 C 21.927 1.234,17.224 1.228,17.015 1.278 M1.720 12.304 C 1.550 12.378,1.414 12.500,1.326 12.660 C 1.180 12.925,1.229 15.959,1.398 17.107 C 1.798 19.826,3.072 21.478,5.356 22.242 C 6.191 22.521,6.998 22.657,8.193 22.720 C 9.162 22.771,14.838 22.771,15.807 22.720 C 17.002 22.657,17.809 22.521,18.644 22.242 C 20.966 21.466,22.225 19.797,22.622 16.973 C 22.749 16.066,22.812 13.287,22.716 12.838 C 22.575 12.182,21.713 12.051,21.353 12.631 C 21.260 12.779,21.260 12.788,21.235 14.580 C 21.207 16.526,21.184 16.785,20.960 17.688 C 20.504 19.519,19.520 20.504,17.688 20.960 C 16.622 21.226,16.745 21.220,12.000 21.220 C 8.064 21.220,7.661 21.214,7.240 21.148 C 4.756 20.761,3.576 19.795,3.044 17.712 C 2.820 16.833,2.790 16.496,2.764 14.560 C 2.743 13.011,2.731 12.764,2.674 12.660 C 2.480 12.308,2.066 12.154,1.720 12.304 " stroke="none" fill-rule="evenodd" fill="black"></path></svg>