<svg width="24" height="24" viewBox="0 0 24 24" fill="none" xmlns="http://www.w3.org/2000/svg"><path d="M11.681 1.821 C 11.530 1.889,8.231 5.154,8.051 5.413 C 7.903 5.626,7.879 5.963,7.995 6.189 C 8.213 6.618,8.712 6.721,9.114 6.423 C 9.216 6.347,9.732 5.852,10.260 5.322 L 11.220 4.359 11.240 9.790 L 11.260 15.220 11.353 15.369 C 11.710 15.943,12.576 15.812,12.716 15.162 C 12.747 15.018,12.760 13.374,12.760 9.649 L 12.760 4.342 13.790 5.365 C 14.357 5.927,14.877 6.426,14.947 6.474 C 15.194 6.643,15.575 6.626,15.819 6.434 C 16.058 6.245,16.148 5.839,16.018 5.529 C 15.976 5.428,15.412 4.835,14.268 3.689 C 13.340 2.758,12.511 1.950,12.427 1.891 C 12.236 1.759,11.892 1.726,11.681 1.821 M6.980 8.219 C 4.633 8.544,3.121 9.575,2.372 11.360 C 1.999 12.247,1.831 13.102,1.760 14.471 C 1.679 16.047,1.842 17.551,2.209 18.600 C 2.764 20.185,3.822 21.237,5.400 21.774 C 6.205 22.047,7.066 22.189,8.162 22.228 C 8.628 22.245,8.867 22.237,8.969 22.204 C 9.396 22.063,9.595 21.595,9.405 21.180 C 9.251 20.845,9.083 20.778,8.300 20.743 C 6.862 20.677,5.838 20.438,5.097 19.993 C 4.531 19.653,4.171 19.254,3.858 18.620 C 3.413 17.719,3.242 16.768,3.241 15.194 C 3.240 14.285,3.281 13.759,3.401 13.113 C 3.801 10.979,4.944 9.981,7.340 9.676 C 7.755 9.624,7.860 9.579,8.033 9.381 C 8.185 9.209,8.215 9.103,8.192 8.821 C 8.170 8.556,8.035 8.364,7.788 8.244 C 7.595 8.150,7.500 8.147,6.980 8.219 M16.139 8.213 C 15.915 8.316,15.680 8.667,15.680 8.900 C 15.680 9.035,15.785 9.267,15.905 9.401 C 16.071 9.584,16.174 9.621,16.680 9.680 C 17.455 9.770,18.134 9.962,18.693 10.251 C 19.812 10.828,20.392 11.790,20.665 13.520 C 20.777 14.232,20.769 16.140,20.651 16.880 C 20.314 18.994,19.472 20.011,17.670 20.480 C 16.864 20.690,16.427 20.728,14.494 20.755 L 12.727 20.780 12.574 20.903 C 12.373 21.063,12.280 21.252,12.280 21.500 C 12.280 21.748,12.373 21.937,12.574 22.097 L 12.727 22.220 14.254 22.233 C 16.300 22.250,17.167 22.176,18.194 21.900 C 19.960 21.425,21.189 20.297,21.772 18.617 C 21.941 18.130,22.054 17.651,22.148 17.020 C 22.251 16.332,22.251 14.078,22.148 13.380 C 21.850 11.364,21.136 10.055,19.879 9.217 C 19.304 8.835,18.767 8.604,17.980 8.404 C 17.213 8.208,16.346 8.118,16.139 8.213 " stroke="none" fill-rule="evenodd" fill="black"></path></svg>