<svg width="24" height="24" viewBox="0 0 24 24" fill="none" xmlns="http://www.w3.org/2000/svg"><path d="M21.900 1.258 C 21.878 1.266,21.806 1.285,21.740 1.299 C 21.651 1.319,21.146 1.798,19.795 3.147 L 17.971 4.967 17.775 4.828 C 16.219 3.718,14.049 3.000,12.247 3.000 C 11.849 3.000,11.771 3.011,11.632 3.090 C 11.411 3.213,11.269 3.467,11.269 3.734 C 11.269 4.208,11.594 4.480,12.160 4.480 C 13.032 4.480,14.185 4.714,15.090 5.075 C 15.644 5.297,16.880 5.959,16.880 6.035 C 16.880 6.049,16.341 6.599,15.683 7.257 L 14.486 8.453 14.199 8.279 C 13.876 8.084,13.315 7.862,12.922 7.774 C 12.778 7.741,12.443 7.705,12.177 7.692 C 9.648 7.574,7.574 9.648,7.692 12.177 C 7.705 12.443,7.741 12.778,7.774 12.922 C 7.862 13.315,8.084 13.876,8.279 14.199 L 8.453 14.486 7.177 15.766 L 5.900 17.045 5.320 16.450 C 4.529 15.640,3.699 14.562,3.387 13.940 C 3.084 13.334,2.983 12.853,2.982 12.000 C 2.979 10.961,3.134 10.402,3.640 9.625 C 4.601 8.149,5.856 6.853,7.140 6.011 C 7.764 5.601,7.849 5.497,7.854 5.139 C 7.860 4.717,7.545 4.400,7.120 4.400 C 6.876 4.400,6.797 4.438,6.200 4.843 C 4.797 5.795,3.611 7.007,2.562 8.560 C 1.771 9.731,1.539 10.417,1.493 11.721 C 1.457 12.710,1.578 13.506,1.873 14.231 C 2.217 15.074,3.204 16.430,4.268 17.522 L 4.836 18.105 3.136 19.802 C 2.201 20.736,1.398 21.561,1.352 21.636 C 1.218 21.848,1.233 22.194,1.383 22.408 C 1.447 22.499,1.568 22.608,1.651 22.651 C 1.837 22.747,2.138 22.753,2.324 22.665 C 2.403 22.628,6.717 18.342,12.566 12.490 C 22.460 2.592,22.674 2.376,22.712 2.189 C 22.784 1.834,22.633 1.481,22.352 1.349 C 22.212 1.283,21.967 1.234,21.900 1.258 M19.698 7.275 C 19.543 7.369,19.367 7.578,19.335 7.705 C 19.322 7.759,19.318 7.901,19.328 8.020 C 19.345 8.220,19.373 8.272,19.711 8.712 C 20.787 10.117,21.019 10.700,21.018 12.000 C 21.017 13.114,20.841 13.675,20.202 14.597 C 19.596 15.473,19.160 15.994,18.475 16.662 C 16.932 18.166,15.276 19.057,13.378 19.407 C 12.744 19.523,11.359 19.534,10.740 19.427 C 10.197 19.333,9.520 19.150,9.012 18.959 C 8.317 18.698,7.984 18.764,7.756 19.208 C 7.599 19.515,7.712 19.956,7.995 20.139 C 8.335 20.359,9.532 20.727,10.405 20.881 C 11.341 21.045,12.744 21.034,13.740 20.855 C 16.746 20.314,19.547 18.309,21.558 15.260 C 22.008 14.578,22.194 14.171,22.352 13.519 C 22.490 12.950,22.533 12.447,22.508 11.724 C 22.461 10.417,22.192 9.631,21.406 8.504 C 20.869 7.734,20.547 7.342,20.389 7.267 C 20.198 7.176,19.853 7.180,19.698 7.275 M12.725 9.259 C 12.927 9.314,13.400 9.503,13.400 9.530 C 13.400 9.536,12.528 10.412,11.463 11.477 L 9.525 13.414 9.422 13.181 C 9.242 12.774,9.186 12.494,9.184 12.000 C 9.181 11.294,9.350 10.789,9.764 10.269 C 10.233 9.680,10.811 9.334,11.553 9.198 C 11.807 9.152,12.450 9.185,12.725 9.259 M15.170 12.044 C 14.944 12.156,14.850 12.298,14.739 12.692 C 14.573 13.286,14.394 13.599,13.992 14.001 C 13.603 14.391,13.226 14.609,12.710 14.742 C 12.341 14.838,12.177 14.937,12.062 15.133 C 11.851 15.493,11.968 15.958,12.320 16.155 C 12.523 16.269,12.760 16.279,13.113 16.186 C 14.123 15.922,14.989 15.304,15.594 14.414 C 15.976 13.853,16.266 13.035,16.231 12.617 C 16.189 12.108,15.639 11.812,15.170 12.044 " stroke="none" fill-rule="evenodd" fill="black"></path></svg>