<svg width="24" height="24" viewBox="0 0 24 24" fill="none" xmlns="http://www.w3.org/2000/svg"><path d="M11.060 3.028 C 10.972 3.036,10.675 3.079,10.400 3.125 C 7.332 3.629,4.490 5.634,2.442 8.740 C 1.958 9.473,1.768 9.913,1.590 10.713 C 1.515 11.047,1.504 11.224,1.504 12.000 C 1.504 12.780,1.515 12.954,1.592 13.309 C 1.766 14.111,1.976 14.572,2.562 15.440 C 3.669 17.079,4.860 18.274,6.399 19.288 C 8.317 20.552,10.413 21.130,12.590 20.996 C 14.405 20.884,16.038 20.323,17.640 19.263 C 19.147 18.266,20.342 17.063,21.438 15.440 C 22.229 14.267,22.461 13.583,22.508 12.276 C 22.550 11.082,22.366 10.166,21.914 9.320 C 21.651 8.828,21.463 8.680,21.100 8.680 C 20.782 8.680,20.521 8.859,20.418 9.147 C 20.328 9.400,20.350 9.525,20.558 9.947 C 20.924 10.692,21.017 11.107,21.018 12.000 C 21.018 13.044,20.864 13.599,20.360 14.375 C 19.135 16.256,17.531 17.749,15.800 18.619 C 15.106 18.968,14.155 19.280,13.340 19.426 C 12.771 19.529,11.229 19.529,10.660 19.426 C 8.054 18.958,5.783 17.400,3.934 14.810 C 3.343 13.983,3.131 13.509,3.016 12.755 C 2.941 12.269,2.959 11.464,3.055 11.018 C 3.208 10.306,3.366 9.996,4.095 8.980 C 4.675 8.173,5.713 7.083,6.445 6.512 C 8.081 5.238,9.859 4.557,11.727 4.491 C 13.507 4.428,15.200 4.925,16.818 5.987 C 17.296 6.300,17.458 6.356,17.738 6.303 C 17.904 6.272,18.135 6.084,18.228 5.905 C 18.309 5.748,18.310 5.413,18.229 5.259 C 18.134 5.076,17.985 4.955,17.420 4.601 C 15.667 3.500,13.918 2.990,11.960 3.007 C 11.553 3.011,11.148 3.020,11.060 3.028 M11.246 7.742 C 9.935 7.982,8.831 8.782,8.184 9.963 C 7.543 11.134,7.517 12.689,8.119 13.900 C 8.443 14.553,8.637 14.731,9.023 14.731 C 9.442 14.731,9.760 14.420,9.760 14.011 C 9.760 13.844,9.720 13.731,9.526 13.351 C 9.375 13.056,9.272 12.796,9.237 12.617 C 9.160 12.231,9.167 11.599,9.252 11.280 C 9.502 10.339,10.288 9.538,11.220 9.274 C 11.632 9.157,12.327 9.149,12.720 9.256 C 13.693 9.521,14.479 10.307,14.744 11.280 C 14.840 11.633,14.841 12.365,14.745 12.720 C 14.432 13.878,13.423 14.718,12.220 14.820 C 11.753 14.860,11.684 14.879,11.537 15.008 C 11.345 15.176,11.269 15.340,11.269 15.580 C 11.269 15.887,11.460 16.175,11.733 16.277 C 12.010 16.382,12.798 16.290,13.418 16.081 C 14.651 15.664,15.664 14.651,16.081 13.418 C 16.943 10.866,15.368 8.203,12.723 7.740 C 12.310 7.668,11.648 7.669,11.246 7.742 " stroke="none" fill-rule="evenodd" fill="black"></path></svg>