<svg width="24" height="24" viewBox="0 0 24 24" fill="none" xmlns="http://www.w3.org/2000/svg"><path d="M3.660 1.280 C 2.132 1.417,1.307 2.359,1.269 4.011 C 1.261 4.390,1.268 4.433,1.366 4.600 C 1.648 5.080,2.349 5.086,2.626 4.613 C 2.706 4.476,2.732 4.359,2.761 3.992 C 2.825 3.177,2.944 2.971,3.437 2.824 C 3.632 2.767,4.160 2.760,8.500 2.760 C 12.840 2.760,13.368 2.767,13.563 2.824 C 13.840 2.907,13.983 3.009,14.077 3.194 C 14.235 3.505,14.245 3.714,14.231 6.400 C 14.215 9.229,14.222 9.146,13.970 9.441 C 13.699 9.757,14.016 9.740,8.500 9.740 C 3.060 9.740,3.324 9.753,3.051 9.471 C 2.873 9.288,2.802 9.054,2.761 8.514 C 2.715 7.908,2.620 7.728,2.271 7.582 C 2.008 7.472,1.702 7.531,1.487 7.732 C 1.275 7.930,1.232 8.134,1.281 8.700 C 1.329 9.262,1.401 9.538,1.607 9.960 C 1.900 10.561,2.406 10.953,3.140 11.146 C 3.405 11.216,3.689 11.220,8.500 11.220 C 13.311 11.220,13.595 11.216,13.860 11.146 C 15.004 10.845,15.599 10.062,15.720 8.700 C 15.771 8.133,15.771 4.401,15.720 3.800 C 15.626 2.684,15.210 1.944,14.474 1.585 C 14.104 1.404,13.807 1.327,13.300 1.280 C 12.837 1.237,4.140 1.237,3.660 1.280 M3.420 12.804 C 2.274 12.973,1.597 13.626,1.333 14.820 C 1.282 15.049,1.267 15.517,1.252 17.374 C 1.231 19.804,1.258 20.444,1.402 20.959 C 1.592 21.641,1.986 22.152,2.526 22.415 C 2.896 22.596,3.193 22.673,3.700 22.720 C 4.229 22.769,19.771 22.769,20.300 22.720 C 20.807 22.673,21.104 22.596,21.474 22.415 C 22.206 22.058,22.628 21.313,22.718 20.217 C 22.758 19.737,22.735 19.558,22.607 19.351 C 22.421 19.051,21.958 18.946,21.632 19.130 C 21.371 19.276,21.281 19.477,21.239 20.008 C 21.175 20.823,21.056 21.029,20.563 21.176 C 20.366 21.234,19.559 21.240,12.000 21.240 C 4.441 21.240,3.634 21.234,3.437 21.176 C 3.160 21.093,3.017 20.991,2.923 20.806 C 2.765 20.496,2.755 20.285,2.768 17.600 C 2.780 15.237,2.787 15.005,2.852 14.840 C 2.955 14.582,3.139 14.409,3.399 14.328 C 3.605 14.265,4.207 14.260,12.000 14.260 C 19.881 14.260,20.394 14.264,20.607 14.330 C 20.775 14.382,20.870 14.442,20.971 14.560 C 21.146 14.765,21.198 14.946,21.240 15.501 C 21.285 16.090,21.382 16.273,21.729 16.418 C 21.992 16.528,22.298 16.469,22.513 16.268 C 22.725 16.070,22.768 15.866,22.719 15.300 C 22.602 13.950,22.020 13.177,20.880 12.854 C 20.632 12.784,20.238 12.781,12.140 12.775 C 7.416 12.772,3.554 12.785,3.420 12.804 " stroke="none" fill-rule="evenodd" fill="black"></path></svg>