<svg width="24" height="24" viewBox="0 0 24 24" fill="none" xmlns="http://www.w3.org/2000/svg"><path d="M8.080 1.282 C 4.008 1.495,1.895 3.296,1.383 6.991 C 1.270 7.803,1.242 8.816,1.242 12.000 C 1.242 15.184,1.270 16.197,1.383 17.009 C 1.767 19.784,3.048 21.470,5.356 22.242 C 6.191 22.521,6.998 22.657,8.193 22.720 C 9.241 22.775,12.900 22.772,13.162 22.716 C 13.828 22.573,13.943 21.639,13.332 21.336 C 13.189 21.264,13.019 21.259,10.400 21.236 C 7.371 21.211,7.302 21.206,6.312 20.960 C 4.223 20.440,3.236 19.246,2.854 16.780 C 2.785 16.335,2.780 15.989,2.780 12.000 C 2.780 8.011,2.785 7.665,2.854 7.220 C 3.282 4.456,4.456 3.282,7.220 2.854 C 7.665 2.785,8.011 2.780,12.000 2.780 C 16.745 2.780,16.622 2.774,17.688 3.040 C 19.520 3.496,20.504 4.481,20.960 6.312 C 21.206 7.301,21.211 7.370,21.236 10.420 L 21.260 13.220 21.353 13.369 C 21.710 13.943,22.576 13.812,22.716 13.162 C 22.772 12.900,22.775 9.241,22.720 8.193 C 22.657 6.998,22.521 6.191,22.242 5.356 C 21.632 3.531,20.469 2.367,18.650 1.760 C 17.788 1.473,17.023 1.344,15.806 1.280 C 14.952 1.235,8.952 1.237,8.080 1.282 M16.378 8.833 C 16.179 8.926,16.098 9.021,14.880 10.600 C 14.346 11.293,13.853 11.918,13.786 11.990 C 13.573 12.218,13.626 12.247,12.260 11.165 C 11.842 10.834,11.383 10.504,11.240 10.432 C 10.993 10.306,10.958 10.300,10.540 10.300 C 9.989 10.300,9.716 10.391,9.387 10.684 C 9.190 10.860,6.920 13.749,6.690 14.116 C 6.573 14.304,6.568 14.621,6.681 14.842 C 6.849 15.171,7.268 15.320,7.606 15.170 C 7.824 15.074,7.877 15.012,9.159 13.340 C 10.294 11.860,10.379 11.760,10.505 11.760 C 10.560 11.760,10.972 12.058,11.587 12.541 C 12.750 13.455,12.945 13.567,13.417 13.592 C 13.960 13.621,14.352 13.498,14.703 13.189 C 14.870 13.042,17.150 10.149,17.326 9.860 C 17.427 9.695,17.424 9.363,17.319 9.158 C 17.151 8.828,16.712 8.677,16.378 8.833 M18.159 14.292 C 17.577 14.423,17.152 14.845,16.745 15.695 C 16.649 15.896,16.532 16.094,16.485 16.136 C 16.432 16.184,16.231 16.248,15.954 16.305 C 14.964 16.509,14.435 16.948,14.281 17.693 C 14.162 18.272,14.398 18.852,15.028 19.521 C 15.191 19.694,15.340 19.889,15.358 19.953 C 15.380 20.028,15.372 20.156,15.337 20.305 C 15.091 21.366,15.367 22.228,16.068 22.583 C 16.286 22.693,16.329 22.700,16.760 22.698 C 17.284 22.696,17.519 22.626,18.050 22.313 C 18.437 22.085,18.558 22.087,18.981 22.330 C 20.108 22.978,21.128 22.824,21.563 21.940 C 21.791 21.477,21.813 20.779,21.620 20.132 C 21.476 19.650,21.029 19.406,20.610 19.582 C 20.202 19.752,20.088 20.080,20.219 20.700 C 20.297 21.064,20.296 21.196,20.216 21.227 C 20.178 21.242,19.937 21.143,19.626 20.986 C 19.058 20.700,18.871 20.642,18.498 20.641 C 18.146 20.640,17.861 20.728,17.342 20.999 C 17.088 21.132,16.854 21.240,16.821 21.240 C 16.718 21.240,16.710 21.060,16.796 20.619 C 16.895 20.117,16.897 20.027,16.822 19.673 C 16.734 19.258,16.580 18.980,16.241 18.622 C 15.583 17.929,15.591 17.880,16.389 17.742 C 16.818 17.668,16.976 17.607,17.283 17.398 C 17.609 17.176,17.772 16.968,18.063 16.397 C 18.204 16.120,18.356 15.860,18.400 15.820 C 18.479 15.749,18.484 15.749,18.584 15.843 C 18.641 15.897,18.797 16.156,18.931 16.420 C 19.226 17.002,19.543 17.349,19.966 17.557 C 20.475 17.806,20.886 17.756,21.148 17.413 C 21.247 17.283,21.260 17.232,21.260 16.977 C 21.260 16.713,21.249 16.674,21.136 16.534 C 21.059 16.438,20.935 16.349,20.807 16.297 C 20.522 16.182,20.457 16.112,20.251 15.700 C 20.151 15.502,20.009 15.248,19.935 15.136 C 19.498 14.474,18.808 14.147,18.159 14.292 " stroke="none" fill-rule="evenodd" fill="black"></path></svg>