<svg width="24" height="24" viewBox="0 0 24 24" fill="none" xmlns="http://www.w3.org/2000/svg"><path d="M5.174 1.278 C 4.516 1.437,4.383 2.307,4.966 2.640 L 5.140 2.740 12.080 2.760 L 19.020 2.780 19.208 2.873 C 19.430 2.982,19.697 3.238,19.801 3.442 C 19.941 3.716,19.968 4.055,19.952 5.327 C 19.937 6.531,19.936 6.542,19.826 6.860 C 19.697 7.233,19.487 7.632,19.300 7.861 C 19.161 8.033,17.738 9.301,17.689 9.298 C 17.673 9.297,17.471 9.282,17.240 9.264 C 15.195 9.107,13.162 10.199,12.105 12.022 C 11.323 13.372,11.169 15.113,11.701 16.600 C 12.010 17.462,12.657 18.401,13.303 18.926 C 13.550 19.126,13.566 19.149,13.546 19.271 C 13.513 19.476,13.329 19.846,13.188 19.992 C 13.022 20.164,11.574 21.105,11.357 21.181 C 11.112 21.268,10.726 21.256,10.453 21.154 C 10.159 21.044,9.841 20.748,9.714 20.468 L 9.620 20.260 9.598 17.140 C 9.574 13.624,9.598 13.900,9.245 13.083 C 8.986 12.481,8.752 12.153,8.057 11.421 C 7.702 11.046,6.787 10.083,6.024 9.280 C 5.261 8.477,4.571 7.722,4.491 7.603 C 4.281 7.288,4.120 6.876,4.058 6.496 C 3.998 6.121,3.974 6.064,3.813 5.913 C 3.596 5.707,3.240 5.657,2.968 5.796 C 2.783 5.891,2.701 5.980,2.617 6.181 C 2.536 6.374,2.561 6.759,2.683 7.205 C 2.790 7.600,3.146 8.319,3.392 8.640 C 3.502 8.783,4.217 9.557,4.982 10.360 C 7.631 13.142,7.601 13.108,7.788 13.487 C 8.132 14.185,8.120 14.045,8.120 17.246 C 8.120 19.047,8.136 20.187,8.163 20.384 C 8.332 21.600,9.355 22.574,10.610 22.716 C 11.129 22.775,11.723 22.680,12.140 22.471 C 12.469 22.306,13.939 21.337,14.144 21.149 C 14.402 20.913,14.674 20.514,14.822 20.154 L 14.931 19.888 15.155 19.966 C 16.070 20.285,17.288 20.321,18.301 20.059 C 20.259 19.551,21.813 17.911,22.260 15.880 C 22.361 15.419,22.385 14.381,22.305 13.910 C 22.112 12.778,21.604 11.748,20.843 10.945 C 20.574 10.660,20.025 10.229,19.664 10.018 C 19.519 9.933,19.400 9.853,19.400 9.841 C 19.400 9.828,19.616 9.625,19.879 9.389 C 20.558 8.781,20.955 8.179,21.239 7.328 C 21.421 6.782,21.448 6.443,21.431 4.894 C 21.416 3.504,21.416 3.499,21.308 3.180 C 21.006 2.283,20.272 1.585,19.371 1.335 C 19.111 1.263,18.813 1.260,12.200 1.254 C 8.405 1.250,5.243 1.261,5.174 1.278 M17.650 10.840 C 18.530 11.010,19.214 11.392,19.826 12.056 C 20.903 13.224,21.184 14.969,20.523 16.383 C 19.953 17.602,18.928 18.414,17.620 18.684 C 17.311 18.748,16.449 18.748,16.140 18.684 C 15.351 18.522,14.733 18.192,14.107 17.603 C 13.792 17.305,13.379 16.707,13.202 16.292 C 12.635 14.958,12.857 13.405,13.782 12.250 C 14.409 11.466,15.317 10.951,16.360 10.787 C 16.650 10.741,17.270 10.767,17.650 10.840 M16.695 12.278 C 16.519 12.320,16.342 12.455,16.233 12.631 C 16.149 12.766,16.139 12.836,16.126 13.390 L 16.111 14.000 15.514 14.000 C 14.999 14.000,14.896 14.011,14.762 14.079 C 14.472 14.227,14.327 14.521,14.378 14.861 C 14.401 15.014,14.442 15.086,14.595 15.238 C 14.821 15.465,14.883 15.480,15.581 15.480 L 16.113 15.480 16.126 16.110 C 16.139 16.695,16.147 16.752,16.240 16.914 C 16.521 17.406,17.240 17.406,17.520 16.914 C 17.611 16.753,17.620 16.692,17.634 16.113 L 17.648 15.487 18.278 15.473 C 18.895 15.460,18.910 15.458,19.072 15.346 C 19.461 15.076,19.503 14.491,19.155 14.173 C 18.995 14.026,18.858 14.000,18.237 14.000 L 17.640 14.000 17.639 13.510 C 17.638 12.947,17.595 12.713,17.460 12.536 C 17.303 12.331,16.960 12.215,16.695 12.278 " stroke="none" fill-rule="evenodd" fill="black"></path></svg>