<svg width="24" height="24" viewBox="0 0 24 24" fill="none" xmlns="http://www.w3.org/2000/svg"><path d="M5.174 1.278 C 4.516 1.437,4.383 2.307,4.966 2.640 L 5.140 2.740 12.080 2.760 L 19.020 2.780 19.202 2.870 C 19.420 2.977,19.700 3.246,19.802 3.444 C 19.941 3.715,19.968 4.057,19.952 5.327 C 19.937 6.533,19.936 6.542,19.825 6.860 C 19.688 7.255,19.528 7.559,19.320 7.820 C 18.971 8.260,18.947 8.308,18.947 8.557 C 18.947 9.185,19.646 9.519,20.153 9.133 C 20.487 8.878,21.013 8.006,21.236 7.336 C 21.422 6.781,21.448 6.448,21.431 4.894 C 21.416 3.504,21.416 3.499,21.308 3.180 C 21.006 2.283,20.272 1.585,19.371 1.335 C 19.111 1.263,18.813 1.260,12.200 1.254 C 8.405 1.250,5.243 1.261,5.174 1.278 M2.954 5.801 C 2.773 5.897,2.654 6.043,2.593 6.247 C 2.501 6.554,2.693 7.435,2.970 7.980 C 3.121 8.277,3.405 8.677,3.673 8.972 C 3.820 9.133,4.741 10.107,5.720 11.135 C 6.699 12.164,7.568 13.108,7.651 13.233 C 7.808 13.470,8.009 13.946,8.078 14.246 C 8.103 14.353,8.118 15.499,8.119 17.247 C 8.120 20.181,8.135 20.503,8.289 20.914 C 8.809 22.304,10.405 23.070,11.801 22.600 C 12.154 22.481,12.196 22.458,13.120 21.866 C 14.245 21.146,14.550 20.831,14.852 20.076 C 15.054 19.571,15.116 18.976,14.991 18.740 C 14.807 18.391,14.398 18.236,14.049 18.382 C 13.743 18.510,13.625 18.687,13.567 19.111 C 13.521 19.443,13.386 19.762,13.204 19.969 C 13.053 20.141,11.597 21.096,11.357 21.181 C 11.112 21.268,10.726 21.256,10.453 21.154 C 10.159 21.044,9.841 20.748,9.714 20.468 L 9.620 20.260 9.599 17.140 L 9.578 14.020 9.467 13.660 C 9.328 13.212,9.025 12.578,8.795 12.255 C 8.699 12.119,7.711 11.053,6.600 9.884 C 5.264 8.479,4.529 7.676,4.430 7.513 C 4.231 7.185,4.123 6.889,4.058 6.491 C 4.029 6.311,3.987 6.131,3.966 6.091 C 3.904 5.978,3.710 5.809,3.587 5.763 C 3.414 5.697,3.116 5.715,2.954 5.801 M15.659 9.401 C 14.358 9.531,13.200 10.317,12.581 11.490 C 11.627 13.299,12.242 15.578,13.974 16.658 C 14.522 16.999,15.051 17.178,15.691 17.237 C 16.461 17.309,17.244 17.153,17.917 16.795 L 18.293 16.594 18.877 17.173 C 19.197 17.491,19.504 17.774,19.558 17.801 C 19.722 17.885,20.047 17.864,20.238 17.756 C 20.561 17.575,20.702 17.116,20.535 16.788 C 20.499 16.718,20.219 16.406,19.911 16.095 L 19.353 15.529 19.514 15.235 C 19.872 14.579,19.976 14.153,19.978 13.340 C 19.980 12.660,19.932 12.371,19.735 11.868 C 19.100 10.246,17.414 9.227,15.659 9.401 M16.608 10.924 C 17.477 11.102,18.277 11.904,18.460 12.780 C 18.640 13.640,18.406 14.433,17.792 15.047 C 17.298 15.542,16.766 15.760,16.054 15.760 C 15.365 15.760,14.872 15.551,14.355 15.041 C 13.838 14.530,13.627 14.031,13.627 13.320 C 13.627 12.609,13.838 12.110,14.355 11.600 C 14.722 11.238,14.983 11.079,15.414 10.956 C 15.699 10.874,16.291 10.858,16.608 10.924 " stroke="none" fill-rule="evenodd" fill="black"></path></svg>