<svg width="24" height="24" viewBox="0 0 24 24" fill="none" xmlns="http://www.w3.org/2000/svg"><path d="M8.080 1.282 C 4.042 1.493,1.931 3.265,1.398 6.891 C 1.310 7.494,1.225 8.895,1.264 9.113 C 1.278 9.194,1.325 9.318,1.368 9.389 C 1.658 9.870,2.422 9.836,2.661 9.332 C 2.718 9.212,2.740 9.022,2.765 8.423 C 2.900 5.187,3.905 3.654,6.288 3.044 C 7.337 2.776,7.247 2.780,12.000 2.780 C 15.936 2.780,16.339 2.786,16.760 2.852 C 19.558 3.288,20.712 4.442,21.148 7.240 C 21.214 7.661,21.220 8.064,21.220 12.000 C 21.220 15.936,21.214 16.339,21.148 16.760 C 20.712 19.558,19.558 20.712,16.760 21.148 C 16.339 21.214,15.936 21.220,12.000 21.220 C 8.064 21.220,7.661 21.214,7.240 21.148 C 4.756 20.761,3.576 19.795,3.044 17.712 C 2.819 16.830,2.790 16.498,2.764 14.540 C 2.742 12.883,2.734 12.728,2.664 12.588 C 2.404 12.064,1.668 12.043,1.353 12.551 C 1.263 12.696,1.260 12.730,1.247 13.800 C 1.224 15.674,1.332 17.070,1.575 18.027 C 2.267 20.757,3.971 22.193,7.027 22.622 C 7.786 22.728,8.902 22.759,12.000 22.759 C 15.098 22.759,16.214 22.728,16.973 22.622 C 19.443 22.275,20.996 21.288,21.897 19.490 C 22.379 18.530,22.638 17.369,22.720 15.807 C 22.771 14.838,22.771 9.162,22.720 8.193 C 22.657 6.998,22.521 6.191,22.242 5.356 C 21.632 3.531,20.469 2.367,18.650 1.760 C 17.788 1.473,17.023 1.344,15.806 1.280 C 14.952 1.235,8.952 1.237,8.080 1.282 M7.579 5.991 C 7.093 6.161,6.678 6.527,6.460 6.980 C 6.273 7.368,6.225 7.776,6.251 8.759 C 6.274 9.635,6.304 9.779,6.571 10.294 C 6.739 10.620,6.865 10.762,8.555 12.540 C 8.996 13.004,9.236 13.290,9.311 13.440 L 9.420 13.660 9.444 15.500 C 9.460 16.808,9.482 17.386,9.517 17.500 C 9.718 18.137,10.217 18.634,10.837 18.816 C 11.142 18.906,11.651 18.899,11.967 18.801 C 12.197 18.730,13.027 18.245,13.390 17.969 C 13.556 17.843,13.842 17.410,13.964 17.100 C 14.056 16.866,14.059 16.821,14.079 15.280 C 14.099 13.782,14.104 13.691,14.184 13.518 C 14.276 13.319,14.402 13.200,16.041 11.754 C 17.070 10.847,17.258 10.636,17.483 10.139 C 17.701 9.659,17.727 9.452,17.713 8.321 L 17.700 7.300 17.553 6.999 C 17.364 6.613,16.997 6.250,16.612 6.068 L 16.340 5.940 12.060 5.931 C 8.078 5.922,7.766 5.927,7.579 5.991 M16.104 7.536 L 16.240 7.672 16.240 8.471 L 16.240 9.269 16.100 9.549 C 15.966 9.816,15.903 9.879,14.662 10.976 C 13.947 11.608,13.293 12.204,13.206 12.302 C 12.990 12.548,12.773 12.977,12.679 13.344 C 12.608 13.623,12.600 13.790,12.600 15.066 C 12.600 16.800,12.626 16.699,12.103 17.034 C 11.621 17.343,11.507 17.400,11.372 17.400 C 11.221 17.400,11.007 17.263,10.982 17.151 C 10.971 17.101,10.955 16.268,10.947 15.300 C 10.932 13.432,10.934 13.449,10.725 12.928 C 10.561 12.521,10.331 12.238,9.160 11.003 C 8.421 10.223,7.939 9.682,7.870 9.554 L 7.760 9.351 7.761 8.525 C 7.763 7.644,7.779 7.558,7.964 7.456 C 8.042 7.413,8.809 7.403,12.014 7.401 L 15.968 7.400 16.104 7.536 " stroke="none" fill-rule="evenodd" fill="black"></path></svg>