<svg width="24" height="24" viewBox="0 0 24 24" fill="none" xmlns="http://www.w3.org/2000/svg"><path d="M5.174 1.278 C 4.516 1.437,4.383 2.307,4.966 2.640 L 5.140 2.740 12.080 2.760 L 19.020 2.780 19.202 2.870 C 19.420 2.977,19.700 3.246,19.802 3.444 C 19.941 3.715,19.968 4.057,19.952 5.327 C 19.937 6.533,19.936 6.542,19.825 6.860 C 19.688 7.255,19.528 7.559,19.320 7.820 C 18.971 8.260,18.947 8.308,18.947 8.557 C 18.947 9.185,19.646 9.519,20.153 9.133 C 20.487 8.878,21.013 8.006,21.236 7.336 C 21.422 6.781,21.448 6.448,21.431 4.894 C 21.416 3.504,21.416 3.499,21.308 3.180 C 21.006 2.283,20.272 1.585,19.371 1.335 C 19.111 1.263,18.813 1.260,12.200 1.254 C 8.405 1.250,5.243 1.261,5.174 1.278 M2.954 5.801 C 2.773 5.897,2.654 6.043,2.593 6.247 C 2.501 6.554,2.693 7.435,2.970 7.980 C 3.121 8.277,3.405 8.677,3.673 8.972 C 3.820 9.133,4.741 10.107,5.720 11.135 C 6.699 12.164,7.568 13.108,7.651 13.233 C 7.808 13.470,8.009 13.946,8.078 14.246 C 8.103 14.353,8.118 15.499,8.119 17.247 C 8.120 19.042,8.136 20.187,8.163 20.384 C 8.419 22.222,10.526 23.294,12.202 22.439 C 12.378 22.349,13.826 21.418,13.936 21.325 C 14.044 21.232,14.158 20.963,14.158 20.800 C 14.158 20.496,13.921 20.179,13.618 20.079 C 13.334 19.986,13.184 20.047,12.324 20.604 C 11.882 20.889,11.447 21.149,11.355 21.182 C 11.112 21.268,10.725 21.256,10.453 21.154 C 10.159 21.044,9.841 20.748,9.714 20.468 L 9.620 20.260 9.599 17.140 L 9.578 14.020 9.467 13.660 C 9.328 13.212,9.025 12.578,8.795 12.255 C 8.699 12.119,7.711 11.053,6.600 9.884 C 5.264 8.479,4.529 7.676,4.430 7.513 C 4.231 7.185,4.123 6.889,4.058 6.491 C 4.029 6.311,3.987 6.131,3.966 6.091 C 3.904 5.978,3.710 5.809,3.587 5.763 C 3.414 5.697,3.116 5.715,2.954 5.801 M17.860 10.598 C 17.586 10.657,17.306 10.780,17.038 10.958 C 16.661 11.209,12.852 15.032,12.711 15.300 C 12.565 15.579,12.501 15.862,12.382 16.760 C 12.269 17.610,12.277 17.804,12.444 18.147 C 12.558 18.384,12.913 18.697,13.182 18.797 C 13.475 18.907,13.698 18.902,14.670 18.762 C 15.946 18.579,15.697 18.754,18.084 16.365 C 19.384 15.064,20.124 14.294,20.231 14.129 C 20.858 13.169,20.677 12.152,19.723 11.272 C 19.409 10.982,19.082 10.775,18.778 10.673 C 18.524 10.587,18.081 10.551,17.860 10.598 M18.380 12.120 C 18.528 12.176,18.909 12.547,19.029 12.751 C 19.103 12.878,19.123 12.955,19.105 13.046 C 19.079 13.177,18.875 13.477,18.702 13.639 L 18.596 13.738 18.409 13.639 C 18.165 13.510,17.689 13.031,17.551 12.775 L 17.443 12.574 17.591 12.431 C 17.925 12.110,18.135 12.027,18.380 12.120 M16.651 14.072 C 16.811 14.272,17.187 14.620,17.402 14.767 L 17.500 14.834 16.360 15.979 C 15.733 16.609,15.192 17.141,15.157 17.160 C 15.084 17.201,13.848 17.382,13.822 17.355 C 13.805 17.339,13.936 16.339,13.984 16.120 C 13.997 16.058,14.455 15.569,15.173 14.849 L 16.340 13.677 16.411 13.769 C 16.450 13.819,16.558 13.955,16.651 14.072 " stroke="none" fill-rule="evenodd" fill="black"></path></svg>