<svg width="24" height="24" viewBox="0 0 24 24" fill="none" xmlns="http://www.w3.org/2000/svg"><path d="M5.174 1.278 C 4.516 1.437,4.383 2.307,4.966 2.640 L 5.140 2.740 12.080 2.760 L 19.020 2.780 19.208 2.873 C 19.430 2.982,19.697 3.238,19.801 3.442 C 19.941 3.716,19.968 4.055,19.952 5.327 C 19.937 6.527,19.936 6.543,19.828 6.853 C 19.570 7.593,19.408 7.805,18.481 8.627 C 18.052 9.009,17.678 9.312,17.652 9.302 C 17.517 9.251,16.769 9.236,16.371 9.277 C 14.567 9.459,13.010 10.461,12.105 12.022 C 11.323 13.372,11.169 15.113,11.701 16.600 C 12.009 17.459,12.627 18.359,13.281 18.903 C 13.548 19.125,13.565 19.148,13.546 19.271 C 13.513 19.475,13.329 19.846,13.188 19.992 C 13.022 20.164,11.574 21.105,11.357 21.181 C 11.112 21.268,10.726 21.256,10.453 21.154 C 10.159 21.044,9.841 20.748,9.714 20.468 L 9.620 20.260 9.598 17.140 C 9.574 13.624,9.598 13.900,9.245 13.083 C 8.986 12.481,8.752 12.153,8.057 11.421 C 7.702 11.046,6.787 10.083,6.024 9.280 C 5.261 8.477,4.571 7.722,4.491 7.603 C 4.281 7.288,4.120 6.876,4.058 6.496 C 3.998 6.121,3.974 6.064,3.813 5.913 C 3.596 5.707,3.240 5.657,2.968 5.796 C 2.783 5.891,2.701 5.980,2.617 6.181 C 2.536 6.374,2.561 6.759,2.683 7.205 C 2.790 7.600,3.146 8.319,3.392 8.640 C 3.502 8.783,4.217 9.557,4.982 10.360 C 7.631 13.142,7.601 13.108,7.788 13.487 C 8.132 14.185,8.120 14.045,8.120 17.246 C 8.120 19.047,8.136 20.187,8.163 20.384 C 8.332 21.600,9.355 22.574,10.610 22.716 C 11.129 22.775,11.723 22.680,12.140 22.471 C 12.469 22.306,13.939 21.337,14.144 21.149 C 14.402 20.914,14.674 20.515,14.821 20.156 L 14.929 19.892 15.215 19.982 C 16.442 20.372,17.833 20.312,19.010 19.819 C 20.425 19.226,21.555 18.023,22.071 16.560 C 22.297 15.918,22.340 15.623,22.339 14.720 C 22.337 14.001,22.326 13.853,22.244 13.520 C 21.979 12.433,21.411 11.463,20.597 10.707 C 20.283 10.415,19.742 10.022,19.510 9.917 C 19.450 9.890,19.400 9.856,19.400 9.843 C 19.400 9.829,19.616 9.625,19.879 9.389 C 20.558 8.781,20.955 8.179,21.239 7.328 C 21.421 6.782,21.448 6.443,21.431 4.894 C 21.416 3.504,21.416 3.499,21.308 3.180 C 21.006 2.283,20.272 1.585,19.371 1.335 C 19.111 1.263,18.813 1.260,12.200 1.254 C 8.405 1.250,5.243 1.261,5.174 1.278 M17.566 10.822 C 18.478 10.990,19.169 11.359,19.771 11.996 C 20.253 12.508,20.589 13.103,20.765 13.760 C 20.893 14.239,20.896 15.267,20.770 15.726 C 20.456 16.867,19.699 17.806,18.680 18.320 C 17.572 18.879,16.264 18.892,15.184 18.356 C 14.068 17.801,13.277 16.827,12.998 15.661 C 12.601 14.005,13.354 12.218,14.820 11.335 C 15.234 11.086,15.847 10.867,16.360 10.787 C 16.613 10.747,17.263 10.766,17.566 10.822 M18.417 12.902 C 18.350 12.936,17.828 13.394,17.258 13.920 L 16.222 14.877 15.821 14.483 C 15.373 14.043,15.227 13.969,14.899 14.018 C 14.745 14.041,14.674 14.082,14.518 14.238 C 14.362 14.394,14.321 14.465,14.298 14.619 C 14.244 14.981,14.300 15.071,15.051 15.829 C 15.427 16.208,15.799 16.549,15.878 16.587 C 16.093 16.691,16.406 16.674,16.590 16.549 C 16.823 16.390,19.289 14.091,19.380 13.948 C 19.437 13.856,19.460 13.752,19.460 13.577 C 19.460 13.374,19.441 13.306,19.346 13.168 C 19.144 12.878,18.716 12.755,18.417 12.902 " stroke="none" fill-rule="evenodd" fill="black"></path></svg>