<svg width="24" height="24" viewBox="0 0 24 24" fill="none" xmlns="http://www.w3.org/2000/svg"><path d="M6.294 1.278 C 6.092 1.326,5.904 1.464,5.808 1.633 L 5.720 1.791 5.720 12.002 L 5.720 22.213 5.816 22.377 C 6.056 22.787,6.666 22.858,6.988 22.513 C 7.200 22.286,7.200 22.294,7.203 19.911 L 7.206 17.700 8.893 16.869 C 15.350 13.688,15.906 13.407,16.394 13.081 C 17.161 12.568,17.778 11.899,18.048 11.288 C 18.352 10.597,18.359 9.772,18.065 9.108 C 17.714 8.314,16.896 7.568,15.766 7.012 C 15.280 6.773,15.055 6.722,14.824 6.799 C 14.505 6.904,14.320 7.161,14.320 7.496 C 14.320 7.893,14.424 8.008,15.092 8.347 C 15.666 8.639,16.134 8.968,16.396 9.262 C 16.810 9.728,16.895 10.227,16.648 10.730 C 16.484 11.063,16.031 11.533,15.579 11.837 C 15.300 12.025,11.556 13.908,8.290 15.502 L 7.200 16.034 7.200 10.479 L 7.200 4.923 7.510 5.056 C 7.680 5.129,8.603 5.527,9.560 5.940 C 10.524 6.357,11.374 6.700,11.465 6.711 C 12.041 6.776,12.448 6.195,12.204 5.657 C 12.163 5.567,12.084 5.457,12.028 5.413 C 11.971 5.369,10.863 4.875,9.564 4.316 L 7.202 3.300 7.201 2.589 C 7.200 1.831,7.171 1.683,6.988 1.487 C 6.819 1.306,6.536 1.221,6.294 1.278 " stroke="none" fill-rule="evenodd" fill="black"></path></svg>