<svg width="24" height="24" viewBox="0 0 24 24" fill="none" xmlns="http://www.w3.org/2000/svg"><path d="M5.060 1.260 C 5.038 1.267,4.972 1.284,4.913 1.296 C 4.758 1.331,4.560 1.512,4.475 1.698 C 4.405 1.854,4.402 2.249,4.401 11.991 C 4.400 23.020,4.385 22.270,4.612 22.513 C 4.934 22.858,5.544 22.787,5.784 22.377 L 5.880 22.213 5.880 19.486 L 5.880 16.760 11.070 16.760 C 14.246 16.760,16.469 16.744,16.799 16.719 C 17.652 16.654,18.197 16.491,18.707 16.151 C 19.253 15.785,19.519 15.308,19.550 14.640 C 19.572 14.183,19.505 13.887,19.277 13.420 C 19.028 12.912,18.656 12.453,17.722 11.505 C 17.243 11.018,16.829 10.578,16.803 10.527 C 16.667 10.267,16.685 9.769,16.842 9.466 C 16.889 9.374,17.282 8.940,17.716 8.500 C 18.791 7.409,19.042 7.096,19.345 6.464 C 19.800 5.515,19.616 4.505,18.883 3.943 C 18.361 3.542,17.762 3.348,16.840 3.283 C 16.193 3.237,16.012 3.273,15.812 3.487 C 15.611 3.702,15.552 4.008,15.662 4.271 C 15.811 4.629,15.988 4.718,16.635 4.762 C 17.407 4.815,17.895 4.972,18.044 5.215 C 18.136 5.366,18.137 5.408,18.059 5.671 C 17.947 6.047,17.627 6.453,16.677 7.419 C 15.561 8.554,15.407 8.782,15.258 9.518 C 15.138 10.110,15.224 10.698,15.513 11.260 C 15.633 11.494,15.805 11.690,16.561 12.460 C 17.544 13.461,17.747 13.697,17.922 14.045 C 18.221 14.636,18.095 14.892,17.389 15.135 C 17.140 15.220,17.139 15.220,11.510 15.231 L 5.880 15.242 5.880 10.002 L 5.880 4.762 9.030 4.751 C 12.136 4.740,12.182 4.739,12.340 4.656 C 12.428 4.610,12.553 4.499,12.617 4.408 C 12.714 4.270,12.733 4.203,12.733 4.003 C 12.733 3.718,12.615 3.506,12.373 3.355 L 12.220 3.260 9.050 3.249 L 5.880 3.238 5.880 2.512 C 5.880 1.819,5.876 1.780,5.784 1.623 C 5.731 1.532,5.619 1.422,5.534 1.374 C 5.384 1.292,5.141 1.233,5.060 1.260 " stroke="none" fill-rule="evenodd" fill="black"></path></svg>