<svg width="24" height="24" viewBox="0 0 24 24" fill="none" xmlns="http://www.w3.org/2000/svg"><path d="M11.560 1.267 C 10.326 1.322,9.152 1.571,8.041 2.012 C 7.427 2.256,7.240 2.454,7.240 2.860 C 7.240 3.229,7.525 3.548,7.892 3.589 C 8.032 3.605,8.152 3.574,8.523 3.428 C 9.718 2.955,10.735 2.760,12.006 2.760 C 13.464 2.760,14.754 3.058,16.060 3.698 C 17.024 4.170,17.648 4.611,18.434 5.378 C 19.273 6.195,19.814 6.937,20.303 7.940 C 20.944 9.253,21.240 10.537,21.240 12.000 C 21.240 13.465,20.943 14.752,20.302 16.060 C 19.830 17.024,19.389 17.648,18.622 18.434 C 17.805 19.273,17.063 19.814,16.060 20.303 C 14.747 20.944,13.463 21.240,12.000 21.240 C 10.537 21.240,9.253 20.944,7.940 20.303 C 6.937 19.814,6.195 19.273,5.378 18.434 C 4.611 17.648,4.170 17.024,3.698 16.060 C 3.058 14.754,2.760 13.464,2.760 12.005 C 2.760 10.060,3.331 8.256,4.457 6.648 C 4.701 6.298,4.770 6.095,4.724 5.855 C 4.656 5.497,4.372 5.267,4.000 5.267 C 3.678 5.267,3.534 5.369,3.222 5.816 C 1.432 8.383,0.834 11.537,1.564 14.550 C 1.904 15.951,2.529 17.268,3.424 18.470 C 3.880 19.083,4.909 20.111,5.530 20.575 C 7.606 22.126,10.070 22.870,12.627 22.717 C 14.790 22.588,16.724 21.879,18.470 20.575 C 19.087 20.115,20.115 19.087,20.575 18.470 C 22.127 16.391,22.870 13.930,22.717 11.373 C 22.588 9.210,21.879 7.276,20.575 5.530 C 20.115 4.913,19.087 3.885,18.470 3.425 C 17.047 2.362,15.454 1.679,13.742 1.398 C 13.325 1.330,12.055 1.227,11.880 1.248 C 11.847 1.252,11.703 1.261,11.560 1.267 M13.930 6.222 C 13.815 6.253,13.653 6.313,13.570 6.355 C 13.363 6.460,8.025 10.161,7.793 10.359 C 7.670 10.464,7.557 10.618,7.463 10.805 C 7.342 11.048,7.320 11.131,7.320 11.359 C 7.320 11.578,7.342 11.672,7.442 11.871 C 7.664 12.315,7.990 12.511,8.863 12.725 C 9.194 12.806,9.400 12.876,9.400 12.907 C 9.400 12.934,9.219 13.691,8.997 14.588 C 8.646 16.011,8.594 16.266,8.590 16.580 C 8.587 16.871,8.603 16.978,8.675 17.140 C 8.781 17.379,8.955 17.568,9.200 17.713 C 9.357 17.807,9.423 17.820,9.720 17.819 C 10.118 17.818,10.322 17.744,10.800 17.425 C 11.995 16.628,16.096 13.756,16.246 13.611 C 16.859 13.018,16.838 12.164,16.200 11.694 C 15.973 11.526,15.723 11.431,15.098 11.275 C 14.824 11.206,14.600 11.137,14.600 11.121 C 14.600 11.105,14.782 10.356,15.005 9.456 C 15.367 7.992,15.410 7.780,15.414 7.440 C 15.419 6.963,15.325 6.724,15.031 6.459 C 14.719 6.179,14.369 6.104,13.930 6.222 M13.360 9.875 C 12.884 11.801,12.880 11.830,13.056 12.090 C 13.202 12.308,13.366 12.382,14.088 12.560 C 14.469 12.654,14.803 12.743,14.832 12.758 C 14.865 12.775,14.011 13.391,12.560 14.397 C 11.281 15.283,10.227 16.000,10.216 15.989 C 10.206 15.979,10.398 15.152,10.644 14.152 C 11.124 12.201,11.126 12.180,10.948 11.915 C 10.800 11.695,10.650 11.628,9.898 11.445 C 9.503 11.349,9.168 11.259,9.153 11.245 C 9.139 11.231,10.173 10.495,11.453 9.609 C 12.732 8.722,13.785 8.015,13.792 8.036 C 13.799 8.057,13.605 8.884,13.360 9.875 " stroke="none" fill-rule="evenodd" fill="black"></path></svg>