<svg width="24" height="24" viewBox="0 0 24 24" fill="none" xmlns="http://www.w3.org/2000/svg"><path d="M13.720 1.282 C 13.414 1.344,12.917 1.617,12.626 1.883 C 12.381 2.108,5.064 10.383,4.568 10.997 C 3.860 11.873,3.804 12.838,4.426 13.460 C 4.621 13.655,5.056 13.883,5.380 13.960 C 5.505 13.990,6.117 14.015,7.008 14.028 L 8.437 14.049 8.450 17.594 C 8.463 21.138,8.463 21.140,8.552 21.434 C 8.791 22.212,9.168 22.606,9.783 22.717 C 10.363 22.821,10.965 22.550,11.606 21.893 C 12.009 21.481,19.280 13.216,19.536 12.880 C 20.445 11.684,20.043 10.402,18.650 10.051 C 18.416 9.992,18.136 9.983,16.540 9.981 C 15.528 9.981,14.651 9.994,14.591 10.011 C 14.439 10.053,14.199 10.273,14.134 10.428 C 14.023 10.693,14.079 11.009,14.273 11.214 C 14.512 11.466,14.443 11.458,16.500 11.481 C 17.534 11.492,18.412 11.516,18.450 11.535 C 18.540 11.578,18.538 11.648,18.443 11.832 C 18.368 11.977,11.107 20.257,10.551 20.832 C 10.395 20.993,10.219 21.149,10.160 21.180 C 9.944 21.292,9.946 21.329,9.922 16.980 L 9.900 13.020 9.812 12.878 C 9.764 12.801,9.647 12.693,9.552 12.638 L 9.380 12.540 7.520 12.518 C 6.497 12.505,5.619 12.481,5.570 12.463 C 5.450 12.420,5.457 12.332,5.595 12.118 C 5.716 11.932,13.071 3.559,13.484 3.138 C 13.615 3.005,13.773 2.866,13.837 2.828 L 13.952 2.760 14.005 2.890 C 14.045 2.989,14.062 3.524,14.079 5.140 C 14.097 7.007,14.108 7.274,14.166 7.380 C 14.474 7.942,15.342 7.856,15.523 7.245 C 15.552 7.147,15.561 6.404,15.551 4.960 C 15.535 2.614,15.536 2.622,15.281 2.100 C 14.990 1.501,14.335 1.158,13.720 1.282 " stroke="none" fill-rule="evenodd" fill="black"></path></svg>