<svg width="24" height="24" viewBox="0 0 24 24" fill="none" xmlns="http://www.w3.org/2000/svg"><path d="M13.720 1.282 C 13.379 1.351,12.907 1.621,12.564 1.943 C 12.158 2.326,12.069 2.466,12.067 2.734 C 12.061 3.248,12.495 3.598,12.985 3.474 C 13.126 3.439,13.242 3.360,13.479 3.138 C 13.649 2.979,13.826 2.829,13.871 2.805 C 14.052 2.708,14.058 2.803,14.071 5.938 L 14.083 8.857 11.995 10.945 L 9.907 13.034 9.794 12.878 C 9.568 12.566,9.683 12.583,7.602 12.558 C 5.328 12.531,5.328 12.531,5.595 12.118 C 5.658 12.020,6.813 10.689,8.160 9.160 C 9.508 7.631,10.635 6.322,10.665 6.251 C 10.872 5.764,10.514 5.229,9.980 5.229 C 9.699 5.229,9.577 5.305,9.210 5.709 C 8.384 6.617,4.646 10.890,4.476 11.120 C 4.084 11.649,3.914 12.188,3.995 12.646 C 4.105 13.271,4.489 13.678,5.190 13.912 C 5.497 14.015,5.515 14.016,6.970 14.031 L 8.440 14.047 8.440 14.273 L 8.440 14.500 4.938 18.000 C 3.012 19.925,1.398 21.561,1.352 21.636 C 1.232 21.826,1.234 22.177,1.356 22.374 C 1.532 22.658,1.839 22.783,2.189 22.712 C 2.376 22.674,2.592 22.460,12.490 12.566 C 18.342 6.717,22.628 2.403,22.665 2.324 C 22.753 2.138,22.747 1.837,22.651 1.651 C 22.608 1.568,22.499 1.448,22.408 1.383 C 22.271 1.287,22.202 1.267,22.011 1.267 C 21.884 1.267,21.735 1.290,21.680 1.318 C 21.625 1.346,20.226 2.720,18.572 4.372 L 15.564 7.375 15.550 5.097 C 15.535 2.595,15.538 2.627,15.279 2.094 C 14.989 1.498,14.335 1.158,13.720 1.282 M16.814 9.995 C 16.154 10.168,16.023 11.028,16.606 11.360 C 16.769 11.452,16.829 11.460,17.560 11.484 C 17.989 11.497,18.381 11.522,18.430 11.539 C 18.544 11.577,18.544 11.661,18.430 11.848 C 18.321 12.026,10.680 20.714,10.407 20.969 C 10.301 21.068,10.177 21.169,10.131 21.194 C 9.966 21.283,9.946 21.112,9.922 19.380 C 9.907 18.273,9.886 17.755,9.853 17.700 C 9.792 17.594,9.605 17.422,9.482 17.359 C 9.346 17.289,9.003 17.296,8.855 17.372 C 8.681 17.462,8.488 17.695,8.459 17.851 C 8.445 17.924,8.441 18.703,8.450 19.582 C 8.467 21.330,8.475 21.399,8.721 21.906 C 8.934 22.343,9.317 22.638,9.782 22.724 C 10.333 22.826,11.008 22.514,11.625 21.874 C 11.913 21.574,19.157 13.343,19.447 12.985 C 19.995 12.309,20.152 11.532,19.860 10.936 C 19.653 10.513,19.155 10.159,18.600 10.041 C 18.333 9.984,16.989 9.950,16.814 9.995 " stroke="none" fill-rule="evenodd" fill="black"></path></svg>