<svg width="24" height="24" viewBox="0 0 24 24" fill="none" xmlns="http://www.w3.org/2000/svg"><path d="M11.560 1.267 C 10.326 1.322,9.152 1.571,8.041 2.012 C 7.427 2.256,7.240 2.454,7.240 2.860 C 7.240 3.229,7.525 3.548,7.892 3.589 C 8.032 3.605,8.152 3.574,8.523 3.428 C 9.718 2.955,10.735 2.760,12.006 2.760 C 13.464 2.760,14.754 3.058,16.060 3.698 C 17.024 4.170,17.648 4.611,18.434 5.378 C 19.273 6.195,19.814 6.937,20.303 7.940 C 20.944 9.253,21.240 10.537,21.240 12.000 C 21.240 13.465,20.943 14.752,20.302 16.060 C 19.830 17.024,19.389 17.648,18.622 18.434 C 17.805 19.273,17.063 19.814,16.060 20.303 C 14.747 20.944,13.463 21.240,12.000 21.240 C 10.537 21.240,9.253 20.944,7.940 20.303 C 6.937 19.814,6.195 19.273,5.378 18.434 C 4.611 17.648,4.170 17.024,3.698 16.060 C 3.058 14.754,2.760 13.464,2.760 12.005 C 2.760 10.060,3.331 8.256,4.457 6.648 C 4.701 6.298,4.770 6.095,4.724 5.855 C 4.656 5.497,4.372 5.267,4.000 5.267 C 3.678 5.267,3.534 5.369,3.222 5.816 C 1.432 8.383,0.834 11.537,1.564 14.550 C 1.904 15.951,2.529 17.268,3.424 18.470 C 3.880 19.083,4.909 20.111,5.530 20.575 C 7.606 22.126,10.070 22.870,12.627 22.717 C 14.790 22.588,16.724 21.879,18.470 20.575 C 19.087 20.115,20.115 19.087,20.575 18.470 C 22.127 16.391,22.870 13.930,22.717 11.373 C 22.588 9.210,21.879 7.276,20.575 5.530 C 20.115 4.913,19.087 3.885,18.470 3.425 C 17.047 2.362,15.454 1.679,13.742 1.398 C 13.325 1.330,12.055 1.227,11.880 1.248 C 11.847 1.252,11.703 1.261,11.560 1.267 M12.515 5.900 C 12.413 5.933,12.246 6.018,12.144 6.090 C 12.037 6.165,11.025 7.281,9.759 8.720 C 7.258 11.562,7.299 11.506,7.302 12.079 C 7.303 12.370,7.321 12.455,7.419 12.658 C 7.623 13.083,8.002 13.365,8.468 13.442 C 8.596 13.462,8.920 13.480,9.188 13.480 L 9.677 13.480 9.688 15.310 L 9.700 17.140 9.810 17.365 C 9.941 17.631,10.247 17.931,10.511 18.052 C 10.660 18.121,10.776 18.139,11.064 18.139 C 11.401 18.140,11.448 18.130,11.702 18.000 C 11.970 17.864,12.036 17.793,14.230 15.300 C 15.824 13.490,16.515 12.676,16.592 12.520 C 16.685 12.330,16.700 12.250,16.700 11.939 C 16.700 11.613,16.688 11.554,16.568 11.311 C 16.363 10.893,16.011 10.637,15.535 10.559 C 15.406 10.538,15.080 10.520,14.812 10.520 L 14.323 10.520 14.312 8.670 L 14.300 6.820 14.189 6.609 C 13.943 6.143,13.524 5.875,13.006 5.854 C 12.812 5.845,12.632 5.863,12.515 5.900 M12.915 11.600 C 12.996 11.748,13.125 11.879,13.260 11.953 C 13.357 12.006,13.546 12.023,14.233 12.039 L 15.087 12.060 13.133 14.279 L 11.180 16.499 11.160 14.479 C 11.146 13.049,11.126 12.437,11.093 12.380 C 11.033 12.276,10.847 12.104,10.720 12.035 C 10.648 11.996,10.379 11.975,9.772 11.960 L 8.923 11.940 10.872 9.727 L 12.820 7.514 12.840 9.507 C 12.856 11.094,12.871 11.520,12.915 11.600 " stroke="none" fill-rule="evenodd" fill="black"></path></svg>