<svg width="24" height="24" viewBox="0 0 24 24" fill="none" xmlns="http://www.w3.org/2000/svg"><path d="M6.009 1.282 C 4.604 1.361,3.703 1.597,2.971 2.079 C 1.987 2.727,1.500 3.737,1.313 5.520 C 1.274 5.894,1.260 6.921,1.260 9.580 C 1.260 11.538,1.274 13.189,1.291 13.249 C 1.333 13.401,1.553 13.641,1.708 13.706 C 1.973 13.817,2.289 13.761,2.494 13.567 C 2.756 13.319,2.738 13.607,2.762 9.380 C 2.782 6.000,2.793 5.494,2.853 5.160 C 2.986 4.419,3.220 3.852,3.522 3.539 C 3.818 3.232,4.424 2.981,5.180 2.854 C 5.562 2.790,5.853 2.780,7.400 2.780 C 9.504 2.780,9.504 2.780,9.882 3.158 C 10.004 3.280,10.537 3.956,11.066 4.660 C 12.202 6.172,12.427 6.405,12.935 6.586 C 13.298 6.716,13.517 6.728,15.980 6.759 C 18.726 6.794,18.949 6.812,19.633 7.052 C 20.183 7.244,20.482 7.472,20.733 7.890 C 21.040 8.403,21.189 9.146,21.235 10.403 C 21.263 11.159,21.274 11.240,21.356 11.373 C 21.712 11.950,22.581 11.808,22.718 11.150 C 22.772 10.890,22.713 9.615,22.618 8.974 C 22.410 7.570,21.869 6.593,21.005 6.060 L 20.773 5.916 20.747 5.148 C 20.734 4.726,20.695 4.223,20.661 4.031 C 20.446 2.806,19.729 1.915,18.639 1.517 C 17.921 1.255,18.225 1.267,12.120 1.258 C 9.073 1.254,6.323 1.265,6.009 1.282 M17.773 2.819 C 18.552 2.984,19.017 3.447,19.180 4.220 C 19.212 4.374,19.239 4.704,19.239 4.954 L 19.240 5.408 19.050 5.382 C 18.382 5.291,17.948 5.274,15.900 5.256 C 14.013 5.240,13.591 5.226,13.454 5.176 C 13.319 5.128,13.229 5.040,12.970 4.708 C 12.625 4.264,11.594 2.891,11.545 2.810 C 11.498 2.731,17.396 2.739,17.773 2.819 M21.720 14.304 C 21.550 14.378,21.414 14.500,21.326 14.660 C 21.269 14.765,21.257 15.017,21.235 16.620 C 21.205 18.845,21.156 19.230,20.814 19.951 C 20.499 20.615,19.922 20.960,18.815 21.147 C 18.406 21.216,17.998 21.220,12.000 21.220 C 5.977 21.220,5.595 21.216,5.180 21.146 C 4.424 21.019,3.818 20.768,3.522 20.461 C 3.049 19.970,2.820 19.111,2.764 17.620 C 2.731 16.735,2.696 16.597,2.464 16.421 C 2.095 16.142,1.599 16.235,1.353 16.631 C 1.265 16.773,1.260 16.812,1.269 17.420 C 1.298 19.473,1.661 20.699,2.481 21.519 C 3.149 22.188,4.044 22.531,5.520 22.687 C 5.911 22.728,7.328 22.740,12.000 22.740 C 18.284 22.740,18.453 22.736,19.371 22.559 C 20.922 22.261,21.897 21.475,22.347 20.161 C 22.656 19.261,22.734 18.499,22.737 16.380 C 22.740 14.963,22.732 14.766,22.674 14.660 C 22.480 14.308,22.066 14.154,21.720 14.304 " stroke="none" fill-rule="evenodd" fill="black"></path></svg>