<svg width="24" height="24" viewBox="0 0 24 24" fill="none" xmlns="http://www.w3.org/2000/svg"><path d="M6.009 1.280 C 4.592 1.364,3.701 1.598,2.971 2.079 C 1.806 2.847,1.303 4.177,1.269 6.580 C 1.260 7.188,1.265 7.227,1.353 7.369 C 1.664 7.870,2.415 7.848,2.661 7.332 C 2.720 7.209,2.740 7.026,2.764 6.380 C 2.820 4.889,3.049 4.030,3.522 3.539 C 3.818 3.232,4.424 2.981,5.180 2.854 C 5.562 2.790,5.853 2.780,7.400 2.780 C 9.504 2.780,9.504 2.780,9.882 3.158 C 10.004 3.280,10.537 3.956,11.066 4.660 C 12.202 6.172,12.427 6.405,12.935 6.586 C 13.298 6.716,13.517 6.728,15.980 6.759 C 18.232 6.788,18.545 6.800,18.920 6.870 C 19.638 7.005,20.194 7.243,20.478 7.539 C 20.666 7.734,20.863 8.095,20.974 8.450 C 21.182 9.110,21.208 9.398,21.235 11.380 C 21.260 13.214,21.260 13.220,21.353 13.369 C 21.719 13.959,22.580 13.810,22.722 13.134 C 22.780 12.855,22.749 10.106,22.681 9.460 C 22.449 7.285,21.664 6.131,20.068 5.624 C 19.114 5.321,18.611 5.277,15.880 5.255 C 14.007 5.239,13.592 5.226,13.454 5.176 C 13.267 5.109,13.180 5.004,11.919 3.321 C 11.516 2.783,11.113 2.263,11.023 2.166 C 10.647 1.757,10.153 1.484,9.552 1.354 C 9.232 1.285,9.000 1.272,7.880 1.260 C 7.165 1.253,6.323 1.262,6.009 1.280 M1.698 11.355 C 1.517 11.438,1.335 11.633,1.290 11.793 C 1.235 11.989,1.256 17.927,1.313 18.480 C 1.604 21.265,2.713 22.388,5.460 22.681 C 6.106 22.749,8.855 22.780,9.134 22.722 C 9.826 22.577,9.959 21.647,9.332 21.336 C 9.192 21.266,9.035 21.258,7.360 21.235 C 5.399 21.208,5.109 21.182,4.450 20.974 C 4.095 20.863,3.734 20.666,3.539 20.478 C 3.245 20.195,3.007 19.643,2.869 18.920 C 2.793 18.527,2.787 18.283,2.764 15.160 C 2.742 12.156,2.733 11.808,2.674 11.700 C 2.474 11.337,2.060 11.191,1.698 11.355 M16.380 13.282 C 15.733 13.336,15.027 13.576,14.470 13.932 C 14.170 14.124,13.671 14.602,13.460 14.900 C 12.967 15.595,12.776 16.275,12.809 17.209 L 12.829 17.761 12.585 17.889 C 12.434 17.967,12.215 18.141,12.016 18.340 C 11.659 18.697,11.455 19.050,11.333 19.520 C 11.244 19.863,11.245 20.533,11.335 20.877 C 11.585 21.836,12.331 22.542,13.304 22.739 C 13.582 22.795,14.005 22.802,16.780 22.790 C 19.931 22.778,19.941 22.777,20.240 22.687 C 21.165 22.407,21.991 21.742,22.380 20.963 C 22.921 19.880,22.828 18.512,22.144 17.486 C 21.767 16.920,21.175 16.433,20.626 16.236 C 20.370 16.144,20.369 16.143,20.301 15.922 C 20.204 15.608,19.916 15.016,19.746 14.781 C 18.986 13.734,17.725 13.172,16.380 13.282 M17.298 14.821 C 17.686 14.922,18.052 15.140,18.330 15.436 C 18.636 15.763,18.814 16.113,18.948 16.653 C 19.108 17.296,19.217 17.417,19.748 17.534 C 20.132 17.618,20.390 17.754,20.653 18.012 C 21.056 18.405,21.262 18.951,21.231 19.545 C 21.214 19.864,21.192 19.956,21.066 20.220 C 20.801 20.779,20.244 21.187,19.620 21.281 C 19.439 21.308,18.323 21.319,16.460 21.311 L 13.580 21.300 13.340 21.180 C 12.934 20.977,12.760 20.669,12.761 20.160 C 12.763 19.562,13.144 19.155,13.775 19.075 C 14.122 19.032,14.318 18.911,14.435 18.670 C 14.540 18.453,14.542 18.281,14.443 17.954 C 14.263 17.362,14.238 16.938,14.356 16.475 C 14.615 15.463,15.565 14.770,16.702 14.762 C 16.905 14.761,17.166 14.787,17.298 14.821 " stroke="none" fill-rule="evenodd" fill="black"></path></svg>