<svg width="24" height="24" viewBox="0 0 24 24" fill="none" xmlns="http://www.w3.org/2000/svg"><path d="M7.740 1.281 C 5.273 1.416,4.316 2.475,4.271 5.120 C 4.260 5.754,4.280 5.834,4.506 6.047 C 4.647 6.181,4.799 6.240,5.000 6.240 C 5.201 6.240,5.353 6.181,5.494 6.047 C 5.701 5.851,5.730 5.747,5.763 5.060 C 5.798 4.343,5.877 3.886,6.025 3.560 C 6.155 3.274,6.277 3.150,6.554 3.027 C 7.003 2.827,7.285 2.792,8.594 2.771 C 9.262 2.761,9.889 2.764,9.987 2.779 C 10.247 2.818,10.385 2.962,11.201 4.042 C 11.943 5.023,12.086 5.180,12.371 5.326 C 12.748 5.519,12.840 5.528,14.780 5.560 C 16.277 5.585,16.676 5.603,16.920 5.658 C 17.280 5.739,17.621 5.887,17.766 6.026 C 17.912 6.165,18.060 6.513,18.147 6.920 C 18.214 7.232,18.220 7.515,18.220 10.400 C 18.220 13.280,18.214 13.568,18.147 13.880 C 18.064 14.272,17.920 14.614,17.774 14.766 C 17.635 14.912,17.287 15.060,16.880 15.147 C 16.563 15.215,16.239 15.220,12.000 15.220 C 7.761 15.220,7.437 15.215,7.120 15.147 C 6.713 15.060,6.365 14.912,6.226 14.766 C 6.088 14.622,5.940 14.282,5.857 13.920 C 5.798 13.663,5.784 13.296,5.764 11.380 C 5.738 8.925,5.749 9.034,5.494 8.793 C 5.217 8.531,4.783 8.531,4.506 8.793 C 4.249 9.036,4.260 8.930,4.262 11.260 C 4.264 13.469,4.281 13.765,4.446 14.440 C 4.712 15.531,5.393 16.238,6.462 16.533 C 7.054 16.696,7.446 16.725,9.370 16.749 L 11.240 16.771 11.240 17.560 L 11.240 18.349 11.010 18.434 C 10.357 18.674,9.674 19.356,9.434 20.008 L 9.351 20.236 7.562 20.248 L 5.774 20.260 5.612 20.367 C 5.372 20.526,5.267 20.721,5.267 21.007 C 5.267 21.203,5.286 21.270,5.383 21.408 C 5.447 21.499,5.572 21.610,5.660 21.656 C 5.815 21.738,5.880 21.740,7.940 21.752 C 9.386 21.761,10.107 21.751,10.208 21.721 C 10.530 21.627,10.757 21.309,10.759 20.952 C 10.761 20.495,11.109 20.005,11.546 19.841 C 12.369 19.533,13.240 20.129,13.240 21.000 C 13.240 21.332,13.120 21.626,12.889 21.861 C 12.656 22.098,12.437 22.198,12.045 22.247 C 11.866 22.269,11.688 22.318,11.608 22.367 C 11.257 22.584,11.150 23.078,11.383 23.408 C 11.558 23.655,11.750 23.738,12.131 23.730 C 13.062 23.710,13.940 23.161,14.418 22.300 C 14.491 22.168,14.572 21.992,14.599 21.910 L 14.646 21.760 16.301 21.760 C 17.359 21.760,18.030 21.744,18.162 21.716 C 18.904 21.557,18.924 20.471,18.189 20.286 C 18.064 20.255,17.466 20.240,16.328 20.240 L 14.651 20.240 14.566 20.010 C 14.326 19.356,13.644 18.674,12.990 18.434 L 12.760 18.349 12.760 17.560 L 12.760 16.771 14.610 16.748 C 15.627 16.735,16.604 16.705,16.780 16.681 C 18.616 16.433,19.449 15.582,19.687 13.715 C 19.761 13.133,19.763 7.631,19.689 7.080 C 19.503 5.689,19.006 4.891,18.060 4.461 C 17.349 4.138,16.892 4.080,14.800 4.053 C 13.705 4.038,13.081 4.015,13.047 3.988 C 13.018 3.965,12.674 3.521,12.282 3.003 C 11.890 2.484,11.471 1.967,11.351 1.854 C 11.120 1.635,10.827 1.467,10.516 1.375 C 10.094 1.250,8.989 1.212,7.740 1.281 " stroke="none" fill-rule="evenodd" fill="black"></path></svg>