<svg width="24" height="24" viewBox="0 0 24 24" fill="none" xmlns="http://www.w3.org/2000/svg"><path d="M6.009 1.280 C 4.592 1.364,3.701 1.598,2.971 2.079 C 1.987 2.727,1.500 3.737,1.313 5.520 C 1.274 5.894,1.260 6.921,1.260 9.580 C 1.260 11.538,1.274 13.189,1.291 13.249 C 1.333 13.401,1.553 13.641,1.708 13.706 C 1.973 13.817,2.289 13.761,2.494 13.567 C 2.756 13.319,2.738 13.607,2.762 9.380 C 2.782 6.000,2.793 5.494,2.853 5.160 C 2.986 4.419,3.220 3.852,3.522 3.539 C 3.818 3.232,4.424 2.981,5.180 2.854 C 5.562 2.790,5.853 2.780,7.400 2.780 C 9.504 2.780,9.504 2.780,9.882 3.158 C 10.004 3.280,10.537 3.956,11.066 4.660 C 12.202 6.172,12.427 6.405,12.935 6.586 C 13.298 6.716,13.517 6.728,15.980 6.759 C 18.726 6.794,18.949 6.812,19.633 7.052 C 20.183 7.244,20.482 7.472,20.733 7.890 C 21.040 8.403,21.189 9.146,21.235 10.403 C 21.263 11.159,21.274 11.240,21.356 11.373 C 21.612 11.788,22.181 11.859,22.521 11.519 C 22.745 11.295,22.773 11.110,22.721 10.158 C 22.635 8.573,22.424 7.736,21.921 6.971 C 21.283 6.002,20.278 5.511,18.540 5.317 C 18.317 5.293,17.138 5.265,15.880 5.255 C 14.007 5.239,13.592 5.226,13.454 5.176 C 13.267 5.109,13.180 5.004,11.919 3.321 C 11.516 2.783,11.113 2.263,11.023 2.166 C 10.647 1.757,10.153 1.484,9.552 1.354 C 9.232 1.285,9.000 1.272,7.880 1.260 C 7.165 1.253,6.323 1.262,6.009 1.280 M11.740 10.835 C 11.357 11.011,11.320 11.141,11.320 12.296 L 11.320 13.234 10.310 13.247 C 9.211 13.261,9.179 13.267,8.953 13.506 C 8.691 13.783,8.691 14.217,8.953 14.494 C 9.179 14.733,9.211 14.739,10.310 14.753 L 11.320 14.766 11.321 15.713 C 11.322 16.546,11.331 16.679,11.395 16.820 C 11.483 17.010,11.572 17.096,11.770 17.178 C 11.958 17.257,12.162 17.257,12.350 17.178 C 12.548 17.096,12.637 17.010,12.725 16.820 C 12.789 16.679,12.798 16.546,12.799 15.713 L 12.800 14.766 13.750 14.753 C 14.783 14.739,14.823 14.731,15.047 14.494 C 15.181 14.353,15.240 14.201,15.240 14.000 C 15.240 13.799,15.181 13.647,15.047 13.506 C 14.823 13.269,14.783 13.261,13.750 13.247 L 12.800 13.234 12.799 12.287 C 12.798 11.454,12.789 11.321,12.725 11.180 C 12.637 10.990,12.548 10.904,12.350 10.822 C 12.155 10.740,11.936 10.745,11.740 10.835 M21.720 14.304 C 21.550 14.378,21.414 14.500,21.326 14.660 C 21.269 14.765,21.257 15.017,21.235 16.620 C 21.205 18.845,21.156 19.230,20.814 19.951 C 20.499 20.615,19.922 20.960,18.815 21.147 C 18.406 21.216,17.998 21.220,12.000 21.220 C 5.977 21.220,5.595 21.216,5.180 21.146 C 4.424 21.019,3.818 20.768,3.522 20.461 C 3.049 19.970,2.820 19.111,2.764 17.620 C 2.731 16.735,2.696 16.597,2.464 16.421 C 2.095 16.142,1.599 16.235,1.353 16.631 C 1.265 16.773,1.260 16.812,1.269 17.420 C 1.298 19.473,1.661 20.699,2.481 21.519 C 3.149 22.188,4.044 22.531,5.520 22.687 C 5.911 22.728,7.328 22.740,12.000 22.740 C 18.284 22.740,18.453 22.736,19.371 22.559 C 20.922 22.261,21.897 21.475,22.347 20.161 C 22.656 19.261,22.734 18.499,22.737 16.380 C 22.740 14.963,22.732 14.766,22.674 14.660 C 22.480 14.308,22.066 14.154,21.720 14.304 " stroke="none" fill-rule="evenodd" fill="black"></path></svg>