<svg width="24" height="24" viewBox="0 0 24 24" fill="none" xmlns="http://www.w3.org/2000/svg"><path d="M6.642 1.321 C 4.354 1.507,3.253 2.390,2.903 4.320 C 2.780 4.997,2.760 5.568,2.760 8.395 L 2.760 11.249 2.544 11.482 C 1.906 12.172,1.579 13.033,1.587 14.000 C 1.592 14.481,1.956 19.183,2.044 19.880 C 2.265 21.653,3.024 22.429,4.791 22.689 C 5.065 22.729,6.632 22.740,12.040 22.740 C 18.384 22.740,18.973 22.734,19.350 22.671 C 20.490 22.479,21.220 22.013,21.591 21.240 C 21.858 20.686,21.944 20.230,22.060 18.771 C 22.104 18.216,22.112 17.917,22.086 17.822 C 21.963 17.377,21.450 17.151,21.041 17.360 C 20.716 17.525,20.631 17.744,20.580 18.540 C 20.515 19.573,20.395 20.341,20.260 20.598 C 20.191 20.730,19.973 20.934,19.819 21.012 C 19.752 21.045,19.590 21.106,19.459 21.145 C 19.233 21.214,18.844 21.219,12.161 21.230 C 5.832 21.240,5.067 21.235,4.761 21.178 C 4.308 21.093,4.075 20.987,3.884 20.779 C 3.586 20.456,3.551 20.230,3.280 16.834 C 3.062 14.099,3.047 13.726,3.144 13.397 C 3.314 12.825,3.773 12.256,4.263 12.008 C 4.788 11.743,4.273 11.760,12.000 11.760 C 19.726 11.760,19.211 11.743,19.737 12.008 C 20.044 12.162,20.495 12.615,20.666 12.940 C 20.859 13.305,20.920 13.571,20.931 14.087 C 20.941 14.511,20.950 14.561,21.048 14.709 C 21.324 15.127,21.954 15.145,22.259 14.745 C 22.450 14.495,22.483 13.871,22.343 13.199 C 22.217 12.600,21.873 11.942,21.436 11.464 L 21.240 11.249 21.240 10.214 C 21.240 8.008,21.067 7.057,20.506 6.169 C 20.366 5.948,19.972 5.554,19.751 5.414 C 19.097 5.001,18.404 4.807,17.266 4.720 C 16.977 4.698,15.988 4.680,15.069 4.680 C 13.718 4.680,13.371 4.669,13.262 4.623 C 13.155 4.579,12.938 4.315,12.246 3.390 C 11.276 2.095,11.005 1.806,10.552 1.583 C 10.051 1.336,9.862 1.312,8.380 1.299 C 7.654 1.293,6.872 1.303,6.642 1.321 M9.740 2.859 C 9.850 2.897,10.010 2.993,10.095 3.074 C 10.180 3.154,10.616 3.709,11.064 4.306 C 12.125 5.719,12.258 5.854,12.780 6.045 C 13.011 6.130,13.096 6.134,15.100 6.162 C 16.244 6.178,17.342 6.212,17.540 6.237 C 18.598 6.372,19.135 6.666,19.399 7.253 C 19.627 7.760,19.703 8.268,19.745 9.556 L 19.772 10.412 19.657 10.383 C 19.177 10.262,19.036 10.260,12.000 10.260 C 4.972 10.260,4.823 10.262,4.346 10.382 L 4.233 10.410 4.251 7.795 C 4.269 5.180,4.284 4.894,4.425 4.324 C 4.741 3.046,5.539 2.744,8.520 2.778 C 9.358 2.788,9.576 2.802,9.740 2.859 M9.245 16.279 C 9.075 16.320,8.925 16.430,8.811 16.598 C 8.498 17.058,8.799 17.671,9.372 17.740 C 9.486 17.753,10.750 17.759,12.180 17.752 C 14.510 17.741,14.792 17.733,14.900 17.674 C 15.142 17.540,15.320 17.255,15.320 17.000 C 15.320 16.745,15.142 16.460,14.900 16.326 C 14.792 16.267,14.510 16.259,12.080 16.253 C 10.595 16.250,9.319 16.262,9.245 16.279 " stroke="none" fill-rule="evenodd" fill="black"></path></svg>