<svg width="24" height="24" viewBox="0 0 24 24" fill="none" xmlns="http://www.w3.org/2000/svg"><path d="M8.760 1.280 C 7.947 1.380,7.142 1.749,6.491 2.322 C 6.298 2.491,5.248 3.528,4.157 4.625 C 1.937 6.859,1.829 6.991,1.506 7.848 C 1.284 8.438,1.200 9.178,1.329 9.420 C 1.471 9.686,1.716 9.840,2.000 9.840 C 2.201 9.840,2.353 9.781,2.494 9.647 C 2.661 9.489,2.712 9.367,2.756 9.013 C 2.801 8.653,2.873 8.415,3.050 8.040 C 3.163 7.803,3.376 7.577,5.477 5.477 C 7.574 3.380,7.803 3.162,8.040 3.050 C 8.647 2.762,8.381 2.780,12.000 2.780 C 15.620 2.780,15.356 2.762,15.960 3.051 C 16.180 3.157,16.355 3.309,17.111 4.058 L 18.001 4.940 11.470 11.471 L 4.938 18.002 4.057 17.111 C 3.309 16.355,3.157 16.181,3.052 15.960 C 2.783 15.398,2.785 15.410,2.761 14.060 C 2.738 12.710,2.736 12.702,2.494 12.473 C 2.217 12.211,1.783 12.211,1.506 12.473 C 1.259 12.706,1.260 12.703,1.261 14.060 C 1.263 15.193,1.270 15.329,1.349 15.640 C 1.531 16.362,1.847 16.969,2.322 17.509 C 2.491 17.702,3.528 18.752,4.625 19.843 C 6.861 22.065,6.990 22.171,7.851 22.495 C 8.515 22.745,8.426 22.740,12.020 22.740 C 15.260 22.740,15.304 22.739,15.640 22.653 C 16.368 22.466,16.970 22.152,17.509 21.678 C 17.702 21.509,18.752 20.472,19.843 19.375 C 22.065 17.139,22.171 17.010,22.495 16.149 C 22.745 15.485,22.740 15.572,22.740 12.000 C 22.740 8.428,22.745 8.515,22.495 7.851 C 22.171 6.990,22.065 6.861,19.843 4.625 C 18.752 3.528,17.702 2.491,17.509 2.322 C 16.979 1.855,16.380 1.541,15.660 1.350 C 15.348 1.267,15.260 1.265,12.180 1.257 C 10.442 1.252,8.903 1.263,8.760 1.280 M20.949 8.040 C 21.238 8.644,21.220 8.380,21.220 12.000 C 21.220 15.619,21.238 15.353,20.950 15.960 C 20.838 16.197,20.620 16.426,18.523 18.523 C 16.426 20.620,16.197 20.838,15.960 20.950 C 15.353 21.238,15.619 21.220,12.000 21.220 C 8.380 21.220,8.644 21.238,8.040 20.949 C 7.820 20.843,7.643 20.689,6.889 19.943 L 5.998 19.062 12.529 12.530 L 19.060 5.999 19.942 6.889 C 20.691 7.645,20.843 7.820,20.949 8.040 " stroke="none" fill-rule="evenodd" fill="black"></path></svg>