<svg width="24" height="24" viewBox="0 0 24 24" fill="none" xmlns="http://www.w3.org/2000/svg"><path d="M11.819 1.276 C 11.551 1.343,11.361 1.538,11.283 1.829 C 11.203 2.126,11.276 2.288,11.767 2.907 L 12.206 3.460 11.626 3.486 C 10.184 3.552,9.011 3.852,7.740 4.480 C 6.707 4.990,5.954 5.533,5.150 6.346 C 4.914 6.585,4.621 6.906,4.497 7.060 C 3.888 7.821,3.279 8.900,2.943 9.810 C 2.420 11.226,2.241 12.958,2.462 14.474 C 3.076 18.699,6.345 21.988,10.580 22.643 C 11.439 22.775,12.730 22.757,13.666 22.599 C 16.577 22.107,19.232 20.156,20.542 17.547 C 20.777 17.080,20.802 16.939,20.698 16.689 C 20.604 16.465,20.447 16.324,20.213 16.256 C 20.053 16.210,19.969 16.205,19.852 16.237 C 19.556 16.318,19.472 16.405,19.185 16.923 C 18.705 17.792,18.255 18.388,17.629 18.984 C 16.463 20.094,15.027 20.832,13.463 21.125 C 12.826 21.244,11.589 21.272,10.940 21.183 C 7.600 20.722,4.912 18.324,4.099 15.080 C 3.863 14.135,3.798 12.865,3.939 11.941 C 4.405 8.890,6.494 6.382,9.386 5.402 C 10.802 4.923,12.432 4.838,13.729 5.176 C 13.950 5.233,14.183 5.216,14.340 5.130 C 14.462 5.064,14.630 4.873,14.677 4.747 C 14.742 4.576,14.729 4.274,14.650 4.136 C 14.612 4.069,14.110 3.429,13.535 2.714 C 12.792 1.790,12.451 1.395,12.355 1.350 C 12.179 1.267,11.970 1.238,11.819 1.276 M18.920 7.076 C 18.551 7.192,18.360 7.442,18.360 7.810 C 18.360 8.024,18.375 8.056,18.702 8.547 C 19.580 9.867,20.019 11.135,20.119 12.649 C 20.165 13.335,20.191 13.442,20.353 13.615 C 20.567 13.844,20.948 13.909,21.232 13.764 C 21.579 13.587,21.657 13.381,21.620 12.742 C 21.538 11.297,21.248 10.170,20.643 8.940 C 20.358 8.360,19.845 7.526,19.626 7.286 C 19.462 7.108,19.133 7.010,18.920 7.076 M10.528 10.165 C 10.434 10.212,10.314 10.306,10.263 10.375 C 10.121 10.566,9.360 12.893,9.360 13.136 C 9.360 13.400,9.507 13.650,9.732 13.770 C 9.894 13.857,9.945 13.861,11.280 13.880 C 12.255 13.894,12.685 13.914,12.745 13.948 C 12.881 14.027,13.068 14.262,13.120 14.421 C 13.227 14.746,13.077 15.136,12.773 15.325 C 12.621 15.419,12.608 15.420,11.214 15.440 L 9.807 15.460 9.654 15.583 C 9.453 15.743,9.360 15.932,9.360 16.180 C 9.360 16.428,9.453 16.617,9.654 16.777 L 9.807 16.900 11.221 16.911 C 12.754 16.924,12.942 16.906,13.372 16.702 C 13.859 16.471,14.369 15.901,14.536 15.400 C 14.630 15.117,14.665 14.453,14.602 14.149 C 14.443 13.385,13.764 12.674,12.980 12.451 C 12.852 12.414,12.484 12.386,11.955 12.372 L 11.129 12.350 11.258 11.965 L 11.387 11.580 12.784 11.560 C 13.739 11.546,14.205 11.525,14.260 11.493 C 14.385 11.421,14.551 11.231,14.597 11.107 C 14.698 10.842,14.611 10.451,14.413 10.272 C 14.208 10.087,14.138 10.080,12.371 10.080 C 10.747 10.080,10.695 10.082,10.528 10.165 " stroke="none" fill-rule="evenodd" fill="black"></path></svg>