<svg width="24" height="24" viewBox="0 0 24 24" fill="none" xmlns="http://www.w3.org/2000/svg"><path d="M8.080 1.282 C 4.042 1.493,1.931 3.265,1.398 6.891 C 1.310 7.494,1.225 8.895,1.264 9.113 C 1.278 9.194,1.325 9.318,1.368 9.389 C 1.658 9.870,2.422 9.836,2.661 9.332 C 2.718 9.212,2.740 9.022,2.765 8.423 C 2.900 5.187,3.905 3.654,6.288 3.044 C 7.337 2.776,7.247 2.780,12.000 2.780 C 15.936 2.780,16.339 2.786,16.760 2.852 C 19.558 3.288,20.712 4.442,21.148 7.240 C 21.214 7.661,21.220 8.064,21.220 12.000 C 21.220 15.936,21.214 16.339,21.148 16.760 C 20.712 19.558,19.558 20.712,16.760 21.148 C 16.339 21.214,15.936 21.220,12.000 21.220 C 8.064 21.220,7.661 21.214,7.240 21.148 C 4.756 20.761,3.576 19.795,3.044 17.712 C 2.844 16.928,2.793 16.449,2.764 15.080 C 2.735 13.687,2.722 13.616,2.464 13.421 C 2.095 13.142,1.598 13.236,1.353 13.631 C 1.271 13.763,1.259 13.841,1.246 14.325 C 1.226 15.057,1.302 16.458,1.398 17.107 C 1.885 20.415,3.654 22.148,7.027 22.622 C 7.786 22.728,8.902 22.759,12.000 22.759 C 15.098 22.759,16.214 22.728,16.973 22.622 C 19.443 22.275,20.996 21.288,21.897 19.490 C 22.379 18.530,22.638 17.369,22.720 15.807 C 22.771 14.838,22.771 9.162,22.720 8.193 C 22.657 6.998,22.521 6.191,22.242 5.356 C 21.632 3.531,20.469 2.367,18.650 1.760 C 17.788 1.473,17.023 1.344,15.806 1.280 C 14.952 1.235,8.952 1.237,8.080 1.282 M15.087 6.966 C 14.772 7.122,14.608 7.520,14.719 7.857 C 14.746 7.937,14.867 8.111,14.988 8.242 L 15.209 8.480 12.469 8.480 C 9.478 8.480,9.413 8.484,8.758 8.716 C 7.426 9.187,6.416 10.492,6.285 11.911 C 6.098 13.923,7.420 15.682,9.401 16.058 C 9.677 16.110,10.156 16.120,12.442 16.120 C 14.261 16.120,15.192 16.106,15.267 16.077 C 15.540 15.975,15.731 15.687,15.731 15.380 C 15.731 15.073,15.540 14.785,15.267 14.683 C 15.192 14.654,14.279 14.640,12.507 14.639 C 9.596 14.639,9.555 14.636,9.050 14.396 C 8.852 14.302,8.694 14.181,8.459 13.944 C 7.955 13.437,7.760 12.977,7.760 12.300 C 7.760 11.623,7.955 11.163,8.459 10.656 C 8.694 10.419,8.852 10.298,9.050 10.204 C 9.555 9.964,9.595 9.961,12.516 9.961 L 15.172 9.960 14.969 10.174 C 14.732 10.424,14.657 10.627,14.698 10.901 C 14.721 11.055,14.762 11.126,14.918 11.282 C 15.074 11.438,15.145 11.479,15.299 11.502 C 15.672 11.558,15.738 11.514,16.673 10.586 C 17.142 10.121,17.572 9.662,17.629 9.567 C 17.750 9.362,17.768 9.046,17.668 8.859 C 17.582 8.696,15.891 7.023,15.732 6.944 C 15.554 6.855,15.292 6.864,15.087 6.966 " stroke="none" fill-rule="evenodd" fill="black"></path></svg>