<svg width="24" height="24" viewBox="0 0 24 24" fill="none" xmlns="http://www.w3.org/2000/svg"><path d="M3.541 5.685 C 3.038 5.758,2.456 6.040,2.099 6.384 C 1.724 6.744,1.447 7.223,1.334 7.706 C 1.265 8.000,1.260 8.275,1.260 12.000 C 1.260 15.725,1.265 16.000,1.334 16.294 C 1.599 17.425,2.609 18.267,3.794 18.344 C 4.246 18.373,4.682 18.287,5.100 18.086 C 5.355 17.964,8.114 16.390,10.600 14.949 L 10.980 14.728 11.005 15.414 C 11.033 16.174,11.066 16.363,11.240 16.746 C 11.642 17.633,12.421 18.206,13.393 18.330 C 13.880 18.391,14.385 18.313,14.810 18.110 C 14.970 18.034,15.829 17.553,16.720 17.041 C 20.039 15.132,21.464 14.306,21.622 14.198 C 22.073 13.889,22.514 13.237,22.660 12.662 C 22.738 12.352,22.738 11.686,22.659 11.378 C 22.494 10.730,22.108 10.162,21.597 9.811 C 21.389 9.669,19.478 8.557,19.194 8.414 C 18.862 8.246,18.526 8.306,18.291 8.574 C 18.011 8.892,18.034 9.318,18.346 9.604 C 18.409 9.662,18.973 10.002,19.600 10.361 C 20.866 11.086,21.060 11.238,21.180 11.600 C 21.272 11.876,21.247 12.312,21.127 12.548 C 20.948 12.895,21.189 12.745,16.240 15.595 C 15.151 16.222,14.161 16.770,14.040 16.812 C 13.503 16.999,12.839 16.694,12.596 16.149 L 12.502 15.940 12.502 12.000 L 12.502 8.060 12.596 7.851 C 12.867 7.243,13.609 6.968,14.216 7.251 C 14.541 7.403,14.722 7.425,14.939 7.343 C 15.259 7.220,15.477 6.859,15.419 6.547 C 15.364 6.253,15.239 6.111,14.879 5.927 C 13.530 5.241,11.878 5.848,11.234 7.266 C 11.067 7.636,11.003 8.030,11.001 8.710 C 11.001 9.024,10.991 9.280,10.980 9.280 C 10.970 9.280,10.389 8.950,9.690 8.546 C 6.180 6.519,5.079 5.897,4.857 5.815 C 4.616 5.727,4.094 5.635,3.887 5.645 C 3.828 5.648,3.673 5.665,3.541 5.685 M4.160 7.164 C 4.300 7.194,4.775 7.443,5.691 7.968 C 8.131 9.366,10.698 10.847,10.851 10.945 L 11.001 11.042 10.991 12.023 L 10.980 13.005 9.660 13.767 C 5.726 16.039,4.479 16.745,4.280 16.813 C 3.984 16.914,3.715 16.885,3.398 16.716 C 3.264 16.644,3.093 16.515,3.019 16.428 C 2.747 16.111,2.760 16.325,2.760 11.983 L 2.761 8.060 2.856 7.856 C 3.017 7.511,3.336 7.251,3.709 7.164 C 3.918 7.114,3.930 7.114,4.160 7.164 " stroke="none" fill-rule="evenodd" fill="black"></path></svg>