<svg width="24" height="24" viewBox="0 0 24 24" fill="none" xmlns="http://www.w3.org/2000/svg"><path d="M11.819 1.276 C 11.551 1.343,11.361 1.538,11.283 1.829 C 11.203 2.126,11.276 2.288,11.767 2.907 L 12.206 3.460 11.626 3.486 C 10.184 3.552,9.011 3.852,7.740 4.480 C 6.707 4.990,5.954 5.533,5.150 6.346 C 4.914 6.585,4.621 6.906,4.497 7.060 C 3.888 7.821,3.279 8.900,2.943 9.810 C 2.420 11.226,2.241 12.958,2.462 14.474 C 3.076 18.699,6.345 21.988,10.580 22.643 C 11.439 22.775,12.730 22.757,13.666 22.599 C 16.577 22.107,19.232 20.156,20.542 17.547 C 20.777 17.080,20.802 16.939,20.698 16.689 C 20.604 16.465,20.447 16.324,20.213 16.256 C 20.053 16.210,19.969 16.205,19.852 16.237 C 19.556 16.318,19.472 16.405,19.185 16.923 C 18.705 17.792,18.255 18.388,17.629 18.984 C 16.463 20.094,15.027 20.832,13.463 21.125 C 12.826 21.244,11.589 21.272,10.940 21.183 C 7.600 20.722,4.912 18.324,4.099 15.080 C 3.863 14.135,3.798 12.865,3.939 11.941 C 4.405 8.890,6.494 6.382,9.386 5.402 C 10.802 4.923,12.432 4.838,13.729 5.176 C 13.950 5.233,14.183 5.216,14.340 5.130 C 14.462 5.064,14.630 4.873,14.677 4.747 C 14.742 4.576,14.729 4.274,14.650 4.136 C 14.612 4.069,14.110 3.429,13.535 2.714 C 12.792 1.790,12.451 1.395,12.355 1.350 C 12.179 1.267,11.970 1.238,11.819 1.276 M18.920 7.076 C 18.551 7.192,18.360 7.442,18.360 7.810 C 18.360 8.024,18.375 8.056,18.702 8.547 C 19.580 9.867,20.019 11.135,20.119 12.649 C 20.165 13.335,20.191 13.442,20.353 13.615 C 20.567 13.844,20.948 13.909,21.232 13.764 C 21.579 13.587,21.657 13.381,21.620 12.742 C 21.538 11.297,21.248 10.170,20.643 8.940 C 20.358 8.360,19.845 7.526,19.626 7.286 C 19.462 7.108,19.133 7.010,18.920 7.076 M9.300 10.121 C 9.234 10.142,9.132 10.199,9.074 10.249 C 8.880 10.414,7.443 12.038,7.373 12.170 C 7.288 12.331,7.287 12.661,7.371 12.821 C 7.508 13.085,7.756 13.240,8.040 13.240 C 8.261 13.240,8.376 13.186,8.601 12.975 L 8.800 12.789 8.800 14.562 C 8.800 16.287,8.802 16.339,8.885 16.510 C 9.011 16.770,9.229 16.900,9.540 16.900 C 9.746 16.900,9.814 16.881,9.952 16.786 C 10.046 16.720,10.152 16.599,10.199 16.503 C 10.278 16.339,10.280 16.269,10.280 13.500 C 10.280 10.731,10.278 10.661,10.199 10.497 C 10.048 10.187,9.637 10.014,9.300 10.121 M12.650 10.125 C 12.579 10.145,12.459 10.223,12.385 10.298 C 12.265 10.418,12.197 10.590,11.820 11.721 C 11.449 12.834,11.393 13.035,11.409 13.203 C 11.432 13.443,11.564 13.645,11.779 13.768 C 11.936 13.858,11.971 13.860,13.323 13.880 C 14.704 13.900,14.706 13.900,14.847 13.996 C 15.269 14.286,15.321 14.885,14.953 15.228 C 14.737 15.430,14.655 15.440,13.280 15.440 C 12.216 15.440,11.972 15.450,11.850 15.502 C 11.652 15.584,11.563 15.670,11.475 15.860 C 11.284 16.276,11.491 16.757,11.915 16.883 C 12.011 16.911,12.548 16.921,13.500 16.912 C 14.926 16.898,14.943 16.897,15.201 16.797 C 15.707 16.602,16.143 16.234,16.405 15.781 C 16.770 15.148,16.789 14.215,16.449 13.585 C 16.301 13.312,15.911 12.900,15.623 12.713 C 15.209 12.444,14.976 12.394,14.030 12.370 C 13.573 12.359,13.200 12.338,13.200 12.325 C 13.200 12.311,13.255 12.134,13.323 11.930 L 13.447 11.560 14.810 11.560 L 16.173 11.560 16.337 11.464 C 16.745 11.225,16.816 10.612,16.473 10.292 C 16.251 10.084,16.207 10.080,14.431 10.084 C 13.523 10.086,12.722 10.104,12.650 10.125 " stroke="none" fill-rule="evenodd" fill="black"></path></svg>