<svg width="24" height="24" viewBox="0 0 24 24" fill="none" xmlns="http://www.w3.org/2000/svg"><path d="M14.369 1.282 C 12.560 1.413,11.418 2.120,10.873 3.447 C 10.658 3.972,10.480 4.973,10.480 5.664 L 10.480 5.868 9.910 5.892 C 7.304 6.002,5.997 7.308,5.891 9.910 L 5.868 10.480 5.664 10.480 C 4.973 10.480,3.972 10.658,3.447 10.873 C 2.585 11.227,1.961 11.855,1.638 12.692 C 1.293 13.585,1.221 14.421,1.251 17.136 C 1.277 19.483,1.338 19.919,1.759 20.780 C 2.103 21.485,2.515 21.897,3.220 22.241 C 4.081 22.662,4.517 22.723,6.864 22.749 C 9.582 22.780,10.414 22.707,11.312 22.361 C 12.141 22.041,12.775 21.410,13.127 20.553 C 13.342 20.028,13.520 19.027,13.520 18.336 L 13.520 18.132 14.056 18.107 C 16.230 18.002,17.476 17.112,17.920 15.346 C 18.040 14.867,18.120 14.248,18.120 13.798 L 18.120 13.520 18.330 13.520 C 19.027 13.520,20.026 13.343,20.553 13.127 C 21.415 12.773,22.039 12.145,22.362 11.308 C 22.707 10.413,22.779 9.596,22.749 6.890 C 22.723 4.514,22.663 4.084,22.241 3.220 C 21.897 2.515,21.485 2.103,20.780 1.759 C 20.335 1.541,19.975 1.433,19.380 1.336 C 19.056 1.283,18.588 1.269,16.920 1.259 C 15.787 1.252,14.639 1.263,14.369 1.282 M19.225 2.821 C 20.474 3.036,20.964 3.526,21.179 4.775 C 21.266 5.284,21.268 9.444,21.181 9.980 C 20.999 11.102,20.541 11.638,19.556 11.883 C 19.212 11.969,18.204 12.061,18.157 12.011 C 18.141 11.994,18.118 11.377,18.107 10.640 C 18.090 9.501,18.076 9.246,18.008 8.940 C 17.899 8.445,17.785 8.122,17.569 7.700 C 17.420 7.409,17.316 7.271,17.023 6.980 C 16.614 6.575,16.365 6.413,15.846 6.218 C 15.123 5.946,14.268 5.842,12.750 5.841 C 12.316 5.840,11.961 5.827,11.961 5.810 C 12.040 3.784,12.528 3.066,13.993 2.820 C 14.477 2.738,18.749 2.739,19.225 2.821 M14.144 7.400 C 14.776 7.448,15.191 7.549,15.561 7.743 C 16.067 8.009,16.358 8.456,16.523 9.220 C 16.603 9.592,16.610 9.765,16.629 11.710 C 16.643 13.175,16.635 13.939,16.601 14.262 C 16.464 15.598,16.025 16.200,14.987 16.479 C 14.494 16.612,13.981 16.640,12.080 16.640 C 10.128 16.640,10.076 16.644,9.866 16.832 C 9.663 17.011,9.588 17.397,9.702 17.670 C 9.784 17.868,9.870 17.957,10.060 18.045 C 10.200 18.109,10.332 18.118,11.108 18.119 C 11.613 18.120,12.005 18.136,12.018 18.157 C 12.061 18.226,11.963 19.236,11.883 19.556 C 11.638 20.541,11.102 20.999,9.980 21.181 C 9.695 21.228,9.159 21.240,7.400 21.239 C 6.138 21.239,5.059 21.221,4.900 21.198 C 3.573 21.009,3.041 20.504,2.821 19.225 C 2.734 18.716,2.732 14.556,2.819 14.020 C 3.000 12.904,3.456 12.367,4.432 12.117 C 4.737 12.039,5.774 11.939,5.843 11.982 C 5.864 11.995,5.880 12.491,5.880 13.167 C 5.880 14.860,5.968 15.352,6.311 15.578 C 6.628 15.787,7.031 15.737,7.276 15.458 C 7.457 15.252,7.501 15.062,7.438 14.754 C 7.399 14.568,7.381 13.900,7.370 12.260 C 7.351 9.508,7.380 9.166,7.695 8.500 C 7.987 7.880,8.582 7.527,9.540 7.406 C 9.931 7.356,13.508 7.352,14.144 7.400 " stroke="none" fill-rule="evenodd" fill="black"></path></svg>