<svg width="24" height="24" viewBox="0 0 24 24" fill="none" xmlns="http://www.w3.org/2000/svg"><path d="M11.819 1.276 C 11.551 1.343,11.361 1.538,11.283 1.829 C 11.203 2.126,11.276 2.288,11.767 2.907 L 12.206 3.460 11.626 3.486 C 10.184 3.552,9.011 3.852,7.740 4.480 C 6.707 4.990,5.954 5.533,5.150 6.346 C 4.914 6.585,4.621 6.906,4.497 7.060 C 3.888 7.821,3.279 8.900,2.943 9.810 C 2.420 11.226,2.241 12.958,2.462 14.474 C 3.076 18.699,6.345 21.988,10.580 22.643 C 11.439 22.775,12.730 22.757,13.666 22.599 C 16.577 22.107,19.232 20.156,20.542 17.547 C 20.777 17.080,20.802 16.939,20.698 16.689 C 20.604 16.465,20.447 16.324,20.213 16.256 C 20.053 16.210,19.969 16.205,19.852 16.237 C 19.556 16.318,19.472 16.405,19.185 16.923 C 18.705 17.792,18.255 18.388,17.629 18.984 C 16.463 20.094,15.027 20.832,13.463 21.125 C 12.826 21.244,11.589 21.272,10.940 21.183 C 7.600 20.722,4.912 18.324,4.099 15.080 C 3.863 14.135,3.798 12.865,3.939 11.941 C 4.405 8.890,6.494 6.382,9.386 5.402 C 10.802 4.923,12.432 4.838,13.729 5.176 C 13.950 5.233,14.183 5.216,14.340 5.130 C 14.462 5.064,14.630 4.873,14.677 4.747 C 14.742 4.576,14.729 4.274,14.650 4.136 C 14.612 4.069,14.110 3.429,13.535 2.714 C 12.792 1.790,12.451 1.395,12.355 1.350 C 12.179 1.267,11.970 1.238,11.819 1.276 M18.920 7.076 C 18.551 7.192,18.360 7.442,18.360 7.810 C 18.360 8.024,18.375 8.056,18.702 8.547 C 19.580 9.867,20.019 11.135,20.119 12.649 C 20.165 13.335,20.191 13.442,20.353 13.615 C 20.567 13.844,20.948 13.909,21.232 13.764 C 21.579 13.587,21.657 13.381,21.620 12.742 C 21.538 11.297,21.248 10.170,20.643 8.940 C 20.358 8.360,19.845 7.526,19.626 7.286 C 19.462 7.108,19.133 7.010,18.920 7.076 M9.220 9.915 C 9.104 9.968,8.846 10.227,8.288 10.851 C 7.350 11.900,7.378 11.865,7.324 12.066 C 7.226 12.430,7.408 12.787,7.769 12.938 C 8.055 13.057,8.329 12.989,8.605 12.731 L 8.800 12.549 8.800 14.312 C 8.800 15.460,8.815 16.114,8.843 16.187 C 8.945 16.460,9.233 16.651,9.540 16.651 C 9.847 16.651,10.135 16.460,10.237 16.187 C 10.266 16.112,10.280 15.150,10.279 13.247 C 10.278 10.590,10.274 10.410,10.205 10.260 C 10.117 10.070,10.028 9.984,9.830 9.902 C 9.635 9.820,9.417 9.825,9.220 9.915 M13.387 9.902 C 12.589 10.081,11.899 10.633,11.540 11.380 C 11.282 11.915,11.260 12.063,11.261 13.280 C 11.261 14.160,11.273 14.384,11.331 14.600 C 11.604 15.617,12.439 16.413,13.448 16.618 C 14.882 16.908,16.286 16.028,16.669 14.600 C 16.727 14.384,16.739 14.160,16.739 13.280 C 16.740 12.057,16.718 11.911,16.455 11.374 C 16.133 10.715,15.539 10.192,14.869 9.977 C 14.450 9.843,13.800 9.810,13.387 9.902 M14.546 11.462 C 14.797 11.584,15.016 11.818,15.147 12.104 C 15.244 12.316,15.245 12.330,15.233 13.309 C 15.218 14.428,15.208 14.472,14.874 14.806 C 14.275 15.405,13.282 15.240,12.872 14.472 C 12.783 14.305,12.780 14.267,12.780 13.260 C 12.780 12.248,12.783 12.215,12.873 12.040 C 13.201 11.409,13.926 11.159,14.546 11.462 " stroke="none" fill-rule="evenodd" fill="black"></path></svg>