<svg width="24" height="24" viewBox="0 0 24 24" fill="none" xmlns="http://www.w3.org/2000/svg"><path d="M15.474 4.282 C 14.750 4.346,14.112 4.608,13.720 5.001 C 13.329 5.392,13.111 5.929,13.041 6.672 C 13.015 6.938,13.000 9.214,13.000 12.670 L 13.000 18.240 12.261 18.240 L 11.522 18.240 11.511 15.070 C 11.499 11.581,11.515 11.800,11.254 11.553 C 10.977 11.291,10.543 11.291,10.266 11.553 C 10.005 11.800,10.021 11.581,10.009 15.070 L 9.998 18.240 7.998 18.240 L 5.997 18.240 6.009 14.910 C 6.023 11.210,6.015 11.316,6.289 11.051 C 6.472 10.873,6.706 10.802,7.246 10.761 C 7.852 10.715,8.032 10.620,8.178 10.271 C 8.324 9.922,8.170 9.517,7.820 9.328 C 7.727 9.277,7.603 9.265,7.269 9.271 C 5.830 9.300,4.936 9.922,4.614 11.121 C 4.550 11.356,4.543 11.698,4.530 14.808 L 4.517 18.235 3.146 18.248 L 1.774 18.260 1.612 18.367 C 1.372 18.526,1.267 18.721,1.267 19.007 C 1.267 19.203,1.286 19.270,1.383 19.408 C 1.447 19.499,1.572 19.610,1.660 19.656 L 1.820 19.740 11.880 19.751 C 19.099 19.758,22.000 19.749,22.154 19.717 C 22.722 19.600,22.933 18.893,22.522 18.482 C 22.303 18.263,22.157 18.240,21.003 18.240 L 20.002 18.240 19.990 12.310 C 19.979 6.707,19.974 6.366,19.905 6.120 C 19.585 4.981,18.813 4.400,17.460 4.280 C 16.960 4.235,15.987 4.236,15.474 4.282 M17.891 5.841 C 18.137 5.928,18.349 6.138,18.429 6.372 C 18.495 6.567,18.500 6.958,18.511 12.410 L 18.522 18.240 16.521 18.240 L 14.520 18.240 14.520 12.447 C 14.520 7.236,14.526 6.633,14.584 6.437 C 14.698 6.056,14.844 5.921,15.260 5.815 C 15.540 5.743,17.675 5.764,17.891 5.841 " stroke="none" fill-rule="evenodd" fill="black"></path></svg>