<svg width="24" height="24" viewBox="0 0 24 24" fill="none" xmlns="http://www.w3.org/2000/svg"><path d="M11.580 1.280 C 10.872 1.347,10.370 1.490,9.740 1.804 C 8.640 2.354,7.738 3.314,7.243 4.464 C 6.955 5.131,6.832 5.742,6.833 6.500 C 6.835 7.875,7.354 9.114,8.340 10.100 C 9.064 10.824,9.887 11.277,10.880 11.500 C 11.329 11.601,12.331 11.624,12.825 11.546 C 14.486 11.283,15.947 10.194,16.663 8.685 C 17.013 7.949,17.164 7.276,17.166 6.440 C 17.168 5.559,17.021 4.917,16.637 4.140 C 16.286 3.428,16.070 3.223,15.678 3.228 C 15.328 3.233,15.056 3.445,14.964 3.785 C 14.903 4.013,14.943 4.167,15.167 4.560 C 15.514 5.167,15.639 5.588,15.668 6.260 C 15.692 6.787,15.645 7.189,15.515 7.574 C 15.143 8.680,14.245 9.587,13.178 9.935 C 12.107 10.284,10.886 10.133,9.980 9.540 C 9.605 9.295,9.009 8.670,8.805 8.308 C 7.968 6.826,8.221 5.079,9.452 3.829 C 9.760 3.517,10.106 3.278,10.535 3.081 C 10.966 2.883,11.267 2.805,11.782 2.760 C 12.117 2.730,12.245 2.701,12.375 2.625 C 12.837 2.354,12.836 1.630,12.374 1.374 C 12.178 1.265,11.981 1.242,11.580 1.280 M11.060 12.485 C 8.833 12.676,6.866 13.486,5.651 14.713 C 5.141 15.228,4.734 15.920,4.553 16.580 C 4.428 17.037,4.427 17.961,4.552 18.411 C 4.857 19.519,5.657 20.494,6.862 21.225 C 9.598 22.886,13.785 22.993,16.680 21.475 C 18.846 20.339,19.867 18.580,19.460 16.687 C 18.887 14.025,15.115 12.138,11.060 12.485 M13.123 14.003 C 14.881 14.183,16.591 14.945,17.422 15.918 C 18.368 17.026,18.261 18.300,17.134 19.361 C 15.538 20.865,12.291 21.466,9.600 20.755 C 8.718 20.522,8.098 20.253,7.440 19.819 C 5.845 18.765,5.481 17.274,6.510 16.000 C 7.140 15.219,8.227 14.602,9.613 14.238 C 10.709 13.951,11.857 13.874,13.123 14.003 " stroke="none" fill-rule="evenodd" fill="black"></path></svg>