<svg width="24" height="24" viewBox="0 0 24 24" fill="none" xmlns="http://www.w3.org/2000/svg"><path d="M3.714 1.282 C 2.692 1.373,1.931 1.818,1.585 2.526 C 1.404 2.896,1.327 3.193,1.280 3.700 C 1.231 4.229,1.231 19.771,1.280 20.300 C 1.324 20.779,1.402 21.090,1.560 21.417 C 1.958 22.245,2.812 22.702,4.007 22.729 C 4.382 22.737,4.436 22.729,4.594 22.639 C 5.078 22.365,5.088 21.652,4.613 21.374 C 4.476 21.294,4.359 21.268,3.992 21.239 C 3.177 21.175,2.971 21.056,2.824 20.563 C 2.766 20.366,2.760 19.559,2.760 12.000 C 2.760 4.441,2.766 3.634,2.824 3.437 C 2.943 3.039,3.119 2.891,3.581 2.801 C 3.949 2.730,8.926 2.764,9.131 2.839 C 9.393 2.935,9.591 3.138,9.670 3.393 C 9.736 3.606,9.740 4.119,9.740 12.000 C 9.740 19.881,9.736 20.394,9.670 20.607 C 9.618 20.775,9.558 20.870,9.440 20.971 C 9.235 21.146,9.054 21.198,8.499 21.240 C 7.910 21.285,7.727 21.382,7.582 21.729 C 7.472 21.992,7.531 22.298,7.732 22.513 C 7.930 22.725,8.134 22.768,8.700 22.719 C 10.059 22.601,10.844 22.004,11.146 20.860 C 11.217 20.592,11.220 20.213,11.220 12.000 C 11.220 3.787,11.217 3.408,11.146 3.140 C 10.953 2.406,10.561 1.900,9.960 1.607 C 9.539 1.401,9.264 1.330,8.700 1.280 C 8.191 1.235,4.228 1.236,3.714 1.282 M15.217 1.279 C 14.176 1.370,13.414 1.812,13.065 2.526 C 12.770 3.127,12.780 3.003,12.780 6.240 C 12.780 8.953,12.785 9.158,12.855 9.420 C 13.039 10.104,13.434 10.610,14.001 10.888 C 14.687 11.224,14.983 11.249,18.020 11.230 C 20.154 11.216,20.539 11.204,20.778 11.147 C 21.737 10.918,22.306 10.439,22.577 9.634 C 22.744 9.134,22.768 8.620,22.750 5.894 C 22.734 3.522,22.729 3.406,22.647 3.090 C 22.338 1.902,21.455 1.301,19.974 1.269 C 19.620 1.262,19.563 1.271,19.406 1.360 C 18.919 1.637,18.914 2.362,19.396 2.633 C 19.526 2.706,19.658 2.733,20.022 2.760 C 20.734 2.814,20.988 2.930,21.153 3.278 C 21.214 3.407,21.220 3.685,21.220 6.241 L 21.220 9.062 21.119 9.261 C 21.037 9.424,20.979 9.480,20.799 9.570 C 20.445 9.747,20.049 9.768,17.455 9.751 C 15.196 9.736,15.134 9.733,14.874 9.647 C 14.576 9.549,14.399 9.385,14.314 9.131 C 14.247 8.932,14.215 3.912,14.278 3.570 C 14.355 3.155,14.531 2.939,14.875 2.839 C 14.955 2.815,15.229 2.781,15.485 2.762 C 16.090 2.717,16.272 2.621,16.418 2.271 C 16.528 2.008,16.469 1.702,16.268 1.487 C 16.071 1.276,15.822 1.227,15.217 1.279 M15.020 12.804 C 13.744 12.986,12.984 13.758,12.803 15.055 C 12.745 15.475,12.745 20.043,12.803 20.467 C 12.944 21.487,13.469 22.206,14.300 22.517 C 14.879 22.733,14.982 22.740,17.740 22.740 C 19.777 22.740,20.357 22.729,20.580 22.684 C 21.795 22.440,22.378 21.881,22.667 20.680 C 22.718 20.466,22.732 20.021,22.748 18.148 C 22.768 15.811,22.742 15.093,22.617 14.620 C 22.402 13.802,21.852 13.209,21.060 12.940 C 20.573 12.775,20.289 12.760,17.720 12.765 C 16.367 12.768,15.152 12.785,15.020 12.804 M20.280 14.282 C 20.614 14.335,20.916 14.483,21.028 14.649 C 21.238 14.960,21.244 15.063,21.232 17.867 L 21.220 20.460 21.128 20.660 C 21.008 20.921,20.916 21.014,20.666 21.127 L 20.460 21.220 17.867 21.232 C 15.607 21.242,15.243 21.235,15.027 21.180 C 14.696 21.095,14.537 20.980,14.420 20.740 C 14.249 20.390,14.235 20.133,14.249 17.557 C 14.261 15.380,14.270 15.119,14.333 14.929 C 14.461 14.545,14.700 14.363,15.181 14.283 C 15.477 14.233,19.968 14.232,20.280 14.282 " stroke="none" fill-rule="evenodd" fill="black"></path></svg>