<svg width="24" height="24" viewBox="0 0 24 24" fill="none" xmlns="http://www.w3.org/2000/svg"><path d="M11.434 1.283 C 11.222 1.301,10.896 1.351,10.710 1.395 C 10.339 1.483,5.286 3.373,4.900 3.568 C 3.939 4.053,3.140 5.038,2.792 6.167 L 2.701 6.460 2.688 10.680 C 2.679 13.742,2.688 14.982,2.722 15.200 C 2.870 16.162,3.489 17.403,4.176 18.115 C 4.367 18.314,5.109 18.896,6.440 19.892 C 9.579 22.240,9.572 22.236,10.302 22.474 C 10.917 22.675,11.384 22.733,12.193 22.708 C 13.112 22.680,13.577 22.579,14.264 22.256 C 14.656 22.071,14.802 21.967,17.380 20.040 C 19.005 18.825,19.727 18.262,19.892 18.078 C 20.379 17.537,20.858 16.709,21.097 15.993 C 21.331 15.294,21.331 15.299,21.349 13.100 C 21.358 11.978,21.354 10.981,21.340 10.885 C 21.301 10.629,21.005 10.338,20.741 10.298 C 20.401 10.247,20.107 10.392,19.959 10.682 C 19.884 10.829,19.880 10.925,19.880 12.648 C 19.879 13.645,19.861 14.621,19.838 14.817 C 19.745 15.636,19.267 16.591,18.662 17.170 C 18.227 17.586,14.044 20.690,13.660 20.881 C 13.110 21.155,12.809 21.216,12.000 21.215 C 11.205 21.214,10.915 21.157,10.390 20.901 C 10.043 20.732,5.668 17.484,5.309 17.129 C 4.941 16.766,4.546 16.117,4.352 15.560 C 4.158 15.001,4.160 15.045,4.160 10.859 C 4.160 8.175,4.174 6.857,4.204 6.712 C 4.262 6.427,4.514 5.908,4.727 5.635 C 4.996 5.290,5.382 4.975,5.700 4.843 C 6.652 4.448,10.946 2.864,11.194 2.816 C 11.570 2.744,12.429 2.744,12.806 2.816 C 13.098 2.872,18.064 4.709,18.434 4.898 C 18.735 5.051,18.943 5.221,19.177 5.505 C 19.573 5.985,19.838 6.612,19.839 7.071 C 19.842 7.685,20.451 8.052,20.967 7.750 C 21.224 7.599,21.320 7.402,21.320 7.023 C 21.320 5.694,20.342 4.169,19.100 3.559 C 18.648 3.338,13.695 1.492,13.300 1.398 C 13.121 1.355,12.759 1.303,12.497 1.281 C 11.974 1.237,11.987 1.237,11.434 1.283 M11.483 7.804 C 10.637 7.969,9.909 8.530,9.539 9.300 C 9.334 9.727,9.270 10.013,9.270 10.500 C 9.270 10.993,9.334 11.276,9.545 11.706 C 9.843 12.317,10.465 12.890,11.018 13.065 L 11.235 13.133 11.248 14.417 C 11.261 15.818,11.261 15.815,11.506 16.047 C 11.647 16.181,11.799 16.240,12.000 16.240 C 12.201 16.240,12.353 16.181,12.494 16.047 C 12.739 15.815,12.739 15.818,12.752 14.417 L 12.765 13.133 12.982 13.065 C 13.284 12.970,13.750 12.646,14.036 12.335 C 14.312 12.034,14.609 11.469,14.680 11.111 C 14.750 10.758,14.746 10.321,14.671 10.180 C 14.530 9.914,14.284 9.760,14.000 9.760 C 13.799 9.760,13.647 9.819,13.506 9.953 C 13.341 10.109,13.288 10.234,13.247 10.567 C 13.185 11.063,12.938 11.427,12.527 11.628 C 12.339 11.720,12.249 11.739,12.000 11.737 C 11.494 11.735,11.113 11.495,10.881 11.030 C 10.505 10.277,11.008 9.368,11.860 9.262 C 12.271 9.210,12.325 9.193,12.463 9.072 C 12.655 8.904,12.731 8.740,12.731 8.500 C 12.731 8.193,12.540 7.905,12.267 7.803 C 12.136 7.753,11.738 7.754,11.483 7.804 " stroke="none" fill-rule="evenodd" fill="black"></path></svg>