<svg width="24" height="24" viewBox="0 0 24 24" fill="none" xmlns="http://www.w3.org/2000/svg"><path d="M3.714 1.282 C 2.692 1.373,1.931 1.818,1.585 2.526 C 1.404 2.896,1.327 3.193,1.280 3.700 C 1.231 4.229,1.231 19.771,1.280 20.300 C 1.324 20.779,1.402 21.090,1.560 21.417 C 1.958 22.245,2.812 22.702,4.007 22.729 C 4.382 22.737,4.436 22.729,4.594 22.639 C 5.078 22.365,5.088 21.652,4.613 21.374 C 4.476 21.294,4.359 21.268,3.992 21.239 C 3.177 21.175,2.971 21.056,2.824 20.563 C 2.766 20.366,2.760 19.559,2.760 12.000 C 2.760 4.441,2.766 3.634,2.824 3.437 C 2.943 3.039,3.119 2.891,3.581 2.801 C 3.949 2.730,8.926 2.764,9.131 2.839 C 9.393 2.935,9.591 3.138,9.670 3.393 C 9.736 3.606,9.740 4.119,9.740 12.000 C 9.740 19.881,9.736 20.394,9.670 20.607 C 9.618 20.775,9.558 20.870,9.440 20.971 C 9.235 21.146,9.054 21.198,8.499 21.240 C 7.910 21.285,7.727 21.382,7.582 21.729 C 7.472 21.992,7.531 22.298,7.732 22.513 C 7.930 22.725,8.134 22.768,8.700 22.719 C 10.059 22.601,10.844 22.004,11.146 20.860 C 11.217 20.592,11.220 20.213,11.220 12.000 C 11.220 3.787,11.217 3.408,11.146 3.140 C 10.953 2.406,10.561 1.900,9.960 1.607 C 9.539 1.401,9.264 1.330,8.700 1.280 C 8.191 1.235,4.228 1.236,3.714 1.282 M15.236 1.280 C 13.939 1.403,13.149 2.019,12.854 3.140 C 12.784 3.405,12.780 3.689,12.780 8.500 C 12.780 13.311,12.784 13.595,12.854 13.860 C 13.047 14.594,13.439 15.100,14.040 15.393 C 14.461 15.599,14.736 15.670,15.300 15.720 C 15.867 15.771,19.599 15.771,20.200 15.720 C 21.546 15.607,22.341 15.023,22.621 13.940 C 22.742 13.473,22.757 12.854,22.757 8.500 C 22.757 4.146,22.742 3.527,22.621 3.060 C 22.342 1.984,21.550 1.396,20.220 1.281 C 19.744 1.240,19.561 1.263,19.351 1.393 C 19.046 1.582,18.944 2.049,19.136 2.377 C 19.287 2.634,19.479 2.719,20.010 2.761 C 20.823 2.825,21.029 2.945,21.176 3.437 C 21.233 3.632,21.240 4.160,21.240 8.500 C 21.240 12.840,21.233 13.368,21.176 13.563 C 21.093 13.840,20.991 13.983,20.806 14.077 C 20.495 14.235,20.286 14.245,17.600 14.231 C 14.771 14.215,14.854 14.222,14.559 13.970 C 14.243 13.699,14.260 14.016,14.260 8.500 C 14.260 3.060,14.247 3.324,14.529 3.051 C 14.712 2.873,14.946 2.802,15.486 2.761 C 16.092 2.715,16.272 2.620,16.418 2.271 C 16.528 2.008,16.469 1.702,16.268 1.487 C 16.072 1.277,15.815 1.225,15.236 1.280 " stroke="none" fill-rule="evenodd" fill="black"></path></svg>