<svg width="24" height="24" viewBox="0 0 24 24" fill="none" xmlns="http://www.w3.org/2000/svg"><path d="M8.080 1.282 C 4.042 1.493,1.931 3.265,1.398 6.891 C 1.310 7.494,1.225 8.895,1.264 9.113 C 1.278 9.194,1.325 9.318,1.368 9.389 C 1.658 9.870,2.422 9.836,2.661 9.332 C 2.718 9.212,2.740 9.022,2.765 8.423 C 2.900 5.188,3.905 3.653,6.288 3.044 C 7.258 2.796,7.402 2.787,10.420 2.762 C 13.021 2.741,13.189 2.736,13.332 2.664 C 13.928 2.368,13.832 1.448,13.189 1.286 C 12.980 1.234,9.072 1.231,8.080 1.282 M19.960 1.284 C 19.639 1.336,19.143 1.597,18.799 1.893 C 18.635 2.034,17.671 2.985,16.658 4.005 C 14.730 5.946,14.646 6.046,14.522 6.509 C 14.498 6.602,14.423 7.059,14.358 7.524 C 14.228 8.440,14.232 8.610,14.396 8.980 C 14.499 9.213,14.794 9.502,15.048 9.620 C 15.382 9.775,15.640 9.779,16.564 9.644 C 17.470 9.511,17.673 9.457,18.000 9.258 C 18.258 9.101,22.153 5.213,22.357 4.909 C 22.821 4.217,22.870 3.550,22.509 2.826 C 22.375 2.558,22.271 2.425,21.923 2.079 C 21.251 1.410,20.658 1.170,19.960 1.284 M20.512 2.837 C 20.660 2.914,21.049 3.291,21.174 3.479 C 21.259 3.606,21.259 3.874,21.174 4.001 C 21.138 4.055,21.018 4.194,20.907 4.309 L 20.706 4.517 20.503 4.409 C 20.240 4.268,19.731 3.758,19.590 3.494 L 19.479 3.288 19.690 3.098 C 20.084 2.742,20.235 2.694,20.512 2.837 M18.764 4.877 C 18.887 5.022,19.092 5.221,19.218 5.320 C 19.345 5.419,19.483 5.527,19.525 5.560 C 19.598 5.617,19.537 5.685,18.388 6.833 L 17.174 8.045 16.483 8.145 C 16.103 8.200,15.786 8.239,15.778 8.232 C 15.771 8.224,15.808 7.921,15.861 7.559 C 15.914 7.197,15.958 6.883,15.959 6.862 C 15.960 6.840,16.505 6.277,17.170 5.609 L 18.380 4.395 18.460 4.505 C 18.504 4.565,18.641 4.732,18.764 4.877 M8.660 5.277 C 7.784 5.386,7.031 5.901,6.580 6.700 C 6.162 7.441,6.162 8.558,6.580 9.300 C 7.097 10.217,7.965 10.731,9.000 10.731 C 10.035 10.731,10.906 10.216,11.419 9.300 C 11.663 8.865,11.794 8.207,11.713 7.826 C 11.607 7.327,10.989 7.095,10.566 7.396 C 10.378 7.530,10.288 7.712,10.247 8.045 C 10.198 8.437,10.098 8.656,9.861 8.889 C 9.085 9.653,7.760 9.092,7.760 8.000 C 7.760 7.658,7.880 7.371,8.126 7.126 C 8.330 6.921,8.654 6.760,8.860 6.760 C 9.446 6.760,9.828 6.343,9.713 5.829 C 9.615 5.392,9.255 5.203,8.660 5.277 M21.815 9.277 C 21.638 9.321,21.461 9.456,21.353 9.631 C 21.262 9.776,21.260 9.810,21.240 11.012 L 21.220 12.243 20.980 12.038 C 20.324 11.477,19.776 11.267,18.960 11.267 C 18.306 11.267,17.864 11.393,17.340 11.729 C 17.252 11.785,16.192 12.679,14.984 13.715 C 13.776 14.751,12.712 15.636,12.618 15.681 C 12.252 15.858,11.735 15.861,11.351 15.687 C 11.257 15.645,11.063 15.507,10.920 15.381 C 10.229 14.772,9.689 14.555,8.859 14.550 C 8.247 14.547,7.813 14.656,7.340 14.933 C 7.230 14.997,6.245 15.651,5.151 16.386 C 4.057 17.120,3.137 17.732,3.105 17.744 C 3.060 17.761,3.032 17.697,2.983 17.473 C 2.811 16.686,2.791 16.416,2.765 14.540 L 2.740 12.700 2.640 12.526 C 2.359 12.034,1.641 12.034,1.360 12.526 C 1.261 12.698,1.260 12.713,1.247 13.800 C 1.224 15.674,1.332 17.070,1.575 18.027 C 2.267 20.758,3.970 22.193,7.027 22.622 C 7.786 22.728,8.902 22.759,12.000 22.759 C 15.098 22.759,16.214 22.728,16.973 22.622 C 18.843 22.359,20.259 21.686,21.143 20.641 C 22.124 19.479,22.604 18.008,22.720 15.807 C 22.773 14.797,22.771 10.074,22.717 9.841 C 22.623 9.432,22.215 9.177,21.815 9.277 M19.553 12.865 C 19.649 12.907,20.068 13.230,20.485 13.581 L 21.243 14.220 21.225 15.300 C 21.205 16.469,21.159 16.888,20.960 17.688 C 20.504 19.519,19.520 20.504,17.688 20.960 C 16.622 21.226,16.745 21.220,12.000 21.220 C 8.064 21.220,7.661 21.214,7.240 21.148 C 5.604 20.893,4.588 20.405,3.895 19.541 C 3.693 19.290,3.650 19.213,3.690 19.175 C 3.813 19.059,8.079 16.219,8.240 16.146 C 8.514 16.023,9.036 16.008,9.320 16.115 C 9.564 16.207,9.664 16.274,10.061 16.609 C 10.574 17.041,11.131 17.265,11.798 17.308 C 12.431 17.349,13.051 17.194,13.543 16.872 C 13.695 16.772,14.729 15.910,15.841 14.955 C 18.334 12.815,18.203 12.921,18.453 12.832 C 18.725 12.735,19.298 12.752,19.553 12.865 " stroke="none" fill-rule="evenodd" fill="black"></path></svg>