<svg width="24" height="24" viewBox="0 0 24 24" fill="none" xmlns="http://www.w3.org/2000/svg"><path d="M8.080 1.282 C 4.042 1.493,1.931 3.265,1.398 6.891 C 1.310 7.494,1.225 8.895,1.264 9.113 C 1.278 9.194,1.325 9.318,1.368 9.389 C 1.658 9.870,2.422 9.836,2.661 9.332 C 2.718 9.212,2.740 9.022,2.765 8.423 C 2.900 5.188,3.905 3.653,6.288 3.044 C 7.258 2.796,7.402 2.787,10.420 2.762 C 13.021 2.741,13.189 2.736,13.332 2.664 C 13.928 2.368,13.832 1.448,13.189 1.286 C 12.980 1.234,9.072 1.231,8.080 1.282 M21.060 1.877 C 20.954 1.927,20.330 2.523,19.200 3.656 C 18.265 4.593,17.482 5.360,17.460 5.360 C 17.437 5.360,17.203 5.142,16.939 4.876 C 16.321 4.251,16.101 4.147,15.729 4.302 C 15.297 4.483,15.134 4.965,15.371 5.367 C 15.427 5.462,15.831 5.894,16.268 6.326 C 17.072 7.120,17.180 7.200,17.460 7.200 C 17.771 7.200,17.784 7.188,19.873 5.106 C 20.980 4.003,21.932 3.022,21.989 2.927 C 22.109 2.723,22.128 2.408,22.030 2.219 C 21.843 1.860,21.417 1.710,21.060 1.877 M8.660 5.277 C 7.784 5.386,7.031 5.901,6.580 6.700 C 6.162 7.441,6.162 8.558,6.580 9.300 C 7.097 10.217,7.965 10.731,9.000 10.731 C 10.035 10.731,10.906 10.216,11.419 9.300 C 11.663 8.865,11.794 8.207,11.713 7.826 C 11.607 7.327,10.989 7.095,10.566 7.396 C 10.378 7.530,10.288 7.712,10.247 8.045 C 10.198 8.437,10.098 8.656,9.861 8.889 C 9.085 9.653,7.760 9.092,7.760 8.000 C 7.760 7.658,7.880 7.371,8.126 7.126 C 8.330 6.921,8.654 6.760,8.860 6.760 C 9.446 6.760,9.828 6.343,9.713 5.829 C 9.615 5.392,9.255 5.203,8.660 5.277 M21.815 9.277 C 21.638 9.321,21.461 9.456,21.353 9.631 C 21.262 9.776,21.260 9.810,21.240 11.012 L 21.220 12.243 20.980 12.038 C 20.324 11.477,19.776 11.267,18.960 11.267 C 18.306 11.267,17.864 11.393,17.340 11.729 C 17.252 11.785,16.192 12.679,14.984 13.715 C 13.776 14.751,12.712 15.636,12.618 15.681 C 12.252 15.858,11.735 15.861,11.351 15.687 C 11.257 15.645,11.063 15.507,10.920 15.381 C 10.229 14.772,9.689 14.555,8.859 14.550 C 8.247 14.547,7.813 14.656,7.340 14.933 C 7.230 14.997,6.245 15.651,5.151 16.386 C 4.057 17.120,3.137 17.732,3.105 17.744 C 3.060 17.761,3.032 17.697,2.983 17.473 C 2.812 16.690,2.791 16.413,2.765 14.580 L 2.740 12.780 2.640 12.606 C 2.359 12.114,1.641 12.114,1.360 12.606 C 1.261 12.777,1.260 12.795,1.247 13.840 C 1.224 15.669,1.334 17.076,1.575 18.027 C 2.267 20.758,3.970 22.193,7.027 22.622 C 7.786 22.728,8.902 22.759,12.000 22.759 C 15.098 22.759,16.214 22.728,16.973 22.622 C 18.843 22.359,20.259 21.686,21.143 20.641 C 22.124 19.479,22.604 18.008,22.720 15.807 C 22.773 14.797,22.771 10.074,22.717 9.841 C 22.623 9.432,22.215 9.177,21.815 9.277 M19.553 12.865 C 19.649 12.907,20.068 13.230,20.485 13.581 L 21.243 14.220 21.225 15.300 C 21.205 16.469,21.159 16.888,20.960 17.688 C 20.504 19.519,19.520 20.504,17.688 20.960 C 16.622 21.226,16.745 21.220,12.000 21.220 C 8.064 21.220,7.661 21.214,7.240 21.148 C 5.604 20.893,4.588 20.405,3.895 19.541 C 3.693 19.290,3.650 19.213,3.690 19.175 C 3.813 19.059,8.079 16.219,8.240 16.146 C 8.514 16.023,9.036 16.008,9.320 16.115 C 9.564 16.207,9.664 16.274,10.061 16.609 C 10.574 17.041,11.131 17.265,11.798 17.308 C 12.431 17.349,13.051 17.194,13.543 16.872 C 13.695 16.772,14.729 15.910,15.841 14.955 C 18.334 12.815,18.203 12.921,18.453 12.832 C 18.725 12.735,19.298 12.752,19.553 12.865 " stroke="none" fill-rule="evenodd" fill="black"></path></svg>