<svg width="24" height="24" viewBox="0 0 24 24" fill="none" xmlns="http://www.w3.org/2000/svg"><path d="M8.080 1.282 C 4.042 1.493,1.931 3.265,1.398 6.891 C 1.310 7.494,1.225 8.895,1.264 9.113 C 1.278 9.194,1.325 9.318,1.368 9.389 C 1.658 9.870,2.422 9.836,2.661 9.332 C 2.718 9.212,2.740 9.022,2.765 8.423 C 2.900 5.188,3.905 3.653,6.288 3.044 C 7.258 2.796,7.402 2.787,10.420 2.762 C 13.021 2.741,13.189 2.736,13.332 2.664 C 13.928 2.368,13.832 1.448,13.189 1.286 C 12.980 1.234,9.072 1.231,8.080 1.282 M18.163 1.590 C 18.087 1.629,17.970 1.729,17.903 1.814 L 17.780 1.967 17.768 3.101 L 17.757 4.234 16.648 4.247 C 15.456 4.261,15.417 4.267,15.212 4.487 C 15.097 4.609,15.000 4.845,15.000 5.000 C 15.000 5.155,15.097 5.391,15.212 5.513 C 15.417 5.733,15.456 5.739,16.648 5.753 L 17.757 5.766 17.768 6.899 L 17.780 8.033 17.903 8.186 C 18.061 8.384,18.252 8.480,18.487 8.480 C 18.814 8.480,19.017 8.358,19.164 8.072 C 19.233 7.937,19.240 7.826,19.240 6.844 L 19.240 5.766 20.350 5.753 C 21.545 5.739,21.583 5.733,21.788 5.513 C 21.903 5.391,22.000 5.155,22.000 5.000 C 22.000 4.845,21.903 4.609,21.788 4.487 C 21.583 4.267,21.545 4.261,20.350 4.247 L 19.240 4.234 19.240 3.156 C 19.240 2.174,19.233 2.063,19.164 1.928 C 19.072 1.749,18.939 1.620,18.787 1.563 C 18.618 1.498,18.317 1.511,18.163 1.590 M8.660 5.277 C 7.784 5.386,7.031 5.901,6.580 6.700 C 6.162 7.441,6.162 8.558,6.580 9.300 C 7.097 10.217,7.965 10.731,9.000 10.731 C 10.035 10.731,10.906 10.216,11.419 9.300 C 11.663 8.865,11.794 8.207,11.713 7.826 C 11.607 7.327,10.989 7.095,10.566 7.396 C 10.378 7.530,10.288 7.712,10.247 8.045 C 10.198 8.437,10.098 8.656,9.861 8.889 C 9.085 9.653,7.760 9.092,7.760 8.000 C 7.760 7.658,7.880 7.371,8.126 7.126 C 8.330 6.921,8.654 6.760,8.860 6.760 C 9.446 6.760,9.828 6.343,9.713 5.829 C 9.615 5.392,9.255 5.203,8.660 5.277 M21.815 9.277 C 21.638 9.321,21.461 9.456,21.353 9.631 C 21.262 9.776,21.260 9.810,21.240 11.012 L 21.220 12.243 20.980 12.038 C 20.324 11.477,19.776 11.267,18.960 11.267 C 18.306 11.267,17.864 11.393,17.340 11.729 C 17.252 11.785,16.192 12.679,14.984 13.715 C 13.776 14.751,12.712 15.636,12.618 15.681 C 12.252 15.858,11.735 15.861,11.351 15.687 C 11.257 15.645,11.063 15.507,10.920 15.381 C 10.229 14.772,9.689 14.555,8.859 14.550 C 8.247 14.547,7.813 14.656,7.340 14.933 C 7.230 14.997,6.245 15.651,5.151 16.386 C 4.057 17.120,3.137 17.732,3.105 17.744 C 3.060 17.761,3.032 17.697,2.983 17.473 C 2.812 16.691,2.791 16.412,2.765 14.580 C 2.737 12.634,2.741 12.665,2.513 12.452 C 2.391 12.337,2.155 12.240,2.000 12.240 C 1.745 12.240,1.460 12.418,1.326 12.660 C 1.180 12.925,1.229 15.959,1.398 17.107 C 1.885 20.416,3.653 22.148,7.027 22.622 C 7.786 22.728,8.902 22.759,12.000 22.759 C 15.098 22.759,16.214 22.728,16.973 22.622 C 18.843 22.359,20.259 21.686,21.143 20.641 C 22.124 19.479,22.604 18.008,22.720 15.807 C 22.773 14.797,22.771 10.074,22.717 9.841 C 22.623 9.432,22.215 9.177,21.815 9.277 M19.553 12.865 C 19.649 12.907,20.068 13.230,20.485 13.581 L 21.243 14.220 21.225 15.300 C 21.205 16.469,21.159 16.888,20.960 17.688 C 20.504 19.519,19.520 20.504,17.688 20.960 C 16.622 21.226,16.745 21.220,12.000 21.220 C 8.064 21.220,7.661 21.214,7.240 21.148 C 5.604 20.893,4.588 20.405,3.895 19.541 C 3.693 19.290,3.650 19.213,3.690 19.175 C 3.813 19.059,8.079 16.219,8.240 16.146 C 8.514 16.023,9.036 16.008,9.320 16.115 C 9.564 16.207,9.664 16.274,10.061 16.609 C 10.574 17.041,11.131 17.265,11.798 17.308 C 12.431 17.349,13.051 17.194,13.543 16.872 C 13.695 16.772,14.729 15.910,15.841 14.955 C 18.334 12.815,18.203 12.921,18.453 12.832 C 18.725 12.735,19.298 12.752,19.553 12.865 " stroke="none" fill-rule="evenodd" fill="black"></path></svg>