<svg width="24" height="24" viewBox="0 0 24 24" fill="none" xmlns="http://www.w3.org/2000/svg"><path d="M8.080 1.282 C 4.042 1.493,1.931 3.265,1.398 6.891 C 1.310 7.494,1.225 8.895,1.264 9.113 C 1.278 9.194,1.325 9.318,1.368 9.389 C 1.658 9.870,2.422 9.836,2.661 9.332 C 2.718 9.212,2.740 9.022,2.765 8.423 C 2.900 5.187,3.905 3.654,6.288 3.044 C 7.336 2.776,7.250 2.780,11.980 2.780 C 15.921 2.780,16.300 2.786,16.760 2.853 C 17.322 2.936,18.002 3.102,18.420 3.261 C 18.729 3.378,19.240 3.636,19.240 3.675 C 19.240 3.715,3.685 19.259,3.665 19.238 C 3.600 19.173,3.267 18.445,3.180 18.180 C 2.852 17.177,2.793 16.662,2.764 14.560 L 2.740 12.780 2.640 12.606 C 2.359 12.114,1.641 12.114,1.360 12.606 C 1.261 12.778,1.260 12.794,1.247 13.860 C 1.214 16.547,1.447 18.106,2.082 19.435 C 2.191 19.664,2.354 19.958,2.444 20.090 L 2.607 20.330 1.989 20.955 C 1.649 21.299,1.347 21.625,1.319 21.680 C 1.290 21.735,1.267 21.881,1.267 22.004 C 1.267 22.498,1.681 22.816,2.189 22.712 C 2.376 22.674,2.592 22.460,12.490 12.566 C 18.342 6.717,22.628 2.403,22.665 2.324 C 22.753 2.138,22.747 1.837,22.651 1.651 C 22.608 1.568,22.499 1.448,22.408 1.383 C 22.271 1.287,22.202 1.267,22.011 1.267 C 21.884 1.267,21.735 1.290,21.680 1.319 C 21.625 1.347,21.298 1.649,20.954 1.989 L 20.328 2.609 20.079 2.440 C 19.750 2.216,19.111 1.914,18.640 1.759 C 17.794 1.481,16.926 1.340,15.708 1.281 C 14.782 1.236,8.951 1.237,8.080 1.282 M7.660 5.277 C 6.784 5.386,6.031 5.901,5.580 6.700 C 5.162 7.441,5.162 8.558,5.580 9.300 C 6.097 10.217,6.965 10.731,8.000 10.731 C 9.035 10.731,9.906 10.216,10.419 9.300 C 10.663 8.865,10.794 8.207,10.713 7.826 C 10.607 7.327,9.989 7.095,9.566 7.396 C 9.378 7.530,9.288 7.712,9.247 8.045 C 9.198 8.437,9.098 8.656,8.861 8.889 C 8.085 9.653,6.760 9.092,6.760 8.000 C 6.760 7.658,6.880 7.371,7.126 7.126 C 7.330 6.921,7.654 6.760,7.860 6.760 C 8.446 6.760,8.828 6.343,8.713 5.829 C 8.615 5.392,8.255 5.203,7.660 5.277 M21.752 7.280 C 21.575 7.333,21.403 7.476,21.319 7.642 C 21.244 7.789,21.240 7.882,21.240 9.504 L 21.240 11.211 20.930 10.914 C 20.557 10.558,20.248 10.364,19.820 10.215 C 19.532 10.115,19.446 10.104,18.960 10.104 C 18.474 10.104,18.388 10.115,18.100 10.215 C 17.483 10.429,17.484 10.428,14.635 13.270 L 11.969 15.929 11.845 15.837 C 11.759 15.774,11.648 15.740,11.487 15.728 C 10.981 15.692,10.622 16.076,10.697 16.574 C 10.733 16.813,10.987 17.100,11.306 17.261 C 11.521 17.370,11.574 17.380,11.960 17.380 C 12.672 17.380,12.427 17.579,15.520 14.500 C 17.005 13.022,18.283 11.775,18.360 11.730 C 18.719 11.520,19.241 11.534,19.600 11.762 C 19.699 11.825,20.110 12.208,20.514 12.613 L 21.249 13.349 21.229 14.865 C 21.215 16.000,21.193 16.485,21.144 16.800 C 20.755 19.260,19.775 20.441,17.688 20.960 C 16.638 21.221,16.778 21.214,12.320 21.231 C 9.188 21.242,8.141 21.234,7.740 21.193 C 7.454 21.165,7.100 21.141,6.954 21.141 C 6.715 21.140,6.671 21.153,6.534 21.264 C 6.449 21.333,6.346 21.447,6.304 21.518 C 6.216 21.669,6.202 22.013,6.279 22.162 C 6.362 22.323,6.566 22.516,6.697 22.557 C 6.906 22.624,7.443 22.682,8.208 22.720 C 9.182 22.770,14.862 22.770,15.807 22.720 C 17.006 22.657,17.808 22.521,18.653 22.239 C 20.931 21.477,22.203 19.824,22.602 17.107 C 22.741 16.160,22.768 15.128,22.753 11.420 C 22.739 8.158,22.732 7.888,22.667 7.740 C 22.492 7.345,22.133 7.165,21.752 7.280 " stroke="none" fill-rule="evenodd" fill="black"></path></svg>