<svg width="24" height="24" viewBox="0 0 24 24" fill="none" xmlns="http://www.w3.org/2000/svg"><path d="M7.400 1.282 C 4.652 1.459,2.905 2.910,2.403 5.434 C 2.307 5.914,2.231 6.962,2.277 7.166 C 2.394 7.686,3.033 7.909,3.464 7.580 C 3.673 7.420,3.724 7.254,3.765 6.606 C 3.845 5.328,4.170 4.470,4.820 3.820 C 5.288 3.352,5.812 3.079,6.615 2.887 L 7.060 2.780 12.000 2.780 L 16.940 2.780 17.385 2.887 C 18.188 3.079,18.712 3.352,19.180 3.820 C 19.648 4.288,19.921 4.812,20.113 5.615 L 20.220 6.060 20.220 12.000 L 20.220 17.940 20.113 18.385 C 19.921 19.188,19.648 19.712,19.180 20.180 C 18.712 20.648,18.188 20.921,17.385 21.113 L 16.940 21.220 12.000 21.220 L 7.060 21.220 6.615 21.113 C 5.091 20.748,4.262 19.924,3.889 18.405 L 3.785 17.980 3.763 14.400 C 3.741 10.995,3.736 10.813,3.664 10.668 C 3.404 10.144,2.668 10.123,2.353 10.631 L 2.260 10.780 2.248 13.760 C 2.234 16.939,2.264 17.873,2.402 18.562 C 2.660 19.857,3.283 20.936,4.155 21.594 C 5.105 22.312,6.030 22.625,7.480 22.720 C 8.235 22.770,15.765 22.770,16.520 22.720 C 16.839 22.700,17.253 22.656,17.441 22.623 C 19.703 22.226,21.146 20.813,21.599 18.555 C 21.740 17.850,21.760 17.062,21.760 12.000 C 21.760 6.926,21.741 6.153,21.597 5.434 C 21.340 4.143,20.715 3.063,19.845 2.406 C 18.895 1.688,17.970 1.375,16.520 1.280 C 15.849 1.236,8.086 1.237,7.400 1.282 M7.400 4.281 C 6.503 4.390,5.691 5.071,5.372 5.980 L 5.260 6.300 5.260 8.000 L 5.260 9.700 5.372 10.020 C 5.633 10.770,6.228 11.364,6.980 11.628 L 7.300 11.740 11.980 11.740 C 16.375 11.740,16.674 11.736,16.893 11.668 C 17.774 11.396,18.396 10.774,18.668 9.893 C 18.732 9.684,18.740 9.486,18.740 8.000 C 18.740 6.514,18.732 6.316,18.668 6.107 C 18.399 5.236,17.801 4.631,16.916 4.334 C 16.713 4.266,16.425 4.261,12.180 4.255 C 9.694 4.252,7.543 4.263,7.400 4.281 M16.576 5.804 C 16.786 5.862,17.138 6.214,17.196 6.424 C 17.255 6.636,17.255 9.364,17.196 9.576 C 17.138 9.786,16.786 10.138,16.576 10.196 C 16.357 10.257,7.643 10.257,7.424 10.196 C 7.214 10.138,6.862 9.786,6.804 9.576 C 6.776 9.477,6.760 8.898,6.760 8.000 C 6.760 7.102,6.776 6.523,6.804 6.424 C 6.858 6.228,7.216 5.860,7.405 5.806 C 7.602 5.749,16.372 5.747,16.576 5.804 M16.293 14.362 C 15.813 14.457,15.510 14.836,15.510 15.345 C 15.510 15.538,15.534 15.635,15.621 15.796 C 16.112 16.697,17.490 16.363,17.490 15.342 C 17.490 14.689,16.936 14.235,16.293 14.362 M10.129 14.559 C 9.948 14.602,9.748 14.749,9.422 15.078 L 9.144 15.359 8.782 15.004 C 8.375 14.605,8.219 14.530,7.899 14.578 C 7.745 14.601,7.674 14.642,7.518 14.798 C 7.362 14.954,7.321 15.025,7.298 15.179 C 7.250 15.499,7.326 15.655,7.722 16.060 L 8.074 16.420 7.741 16.764 C 7.348 17.170,7.269 17.308,7.269 17.580 C 7.269 18.001,7.585 18.320,8.004 18.320 C 8.254 18.320,8.399 18.236,8.794 17.859 L 9.163 17.508 9.552 17.890 C 9.981 18.312,10.137 18.390,10.449 18.344 C 10.772 18.295,11.077 17.940,11.079 17.609 C 11.081 17.377,10.965 17.188,10.592 16.812 L 10.226 16.445 10.578 16.075 C 10.955 15.679,11.040 15.534,11.040 15.284 C 11.040 14.806,10.592 14.450,10.129 14.559 M14.240 16.517 C 13.782 16.657,13.509 17.023,13.511 17.497 C 13.513 18.056,13.860 18.432,14.409 18.471 C 14.774 18.497,14.983 18.416,15.218 18.154 C 15.501 17.839,15.562 17.438,15.385 17.057 C 15.190 16.639,14.661 16.389,14.240 16.517 " stroke="none" fill-rule="evenodd" fill="black"></path></svg>