<svg width="24" height="24" viewBox="0 0 24 24" fill="none" xmlns="http://www.w3.org/2000/svg"><path d="M12.854 1.278 C 12.653 1.326,12.464 1.464,12.373 1.628 C 12.302 1.757,12.285 1.878,12.262 2.440 C 12.229 3.230,12.235 3.220,11.790 3.274 C 10.890 3.385,10.240 4.112,10.240 5.008 L 10.240 5.240 9.650 5.241 C 8.210 5.242,7.028 5.345,6.125 5.545 C 3.913 6.037,2.445 7.304,1.777 9.299 C 1.621 9.767,1.612 9.875,1.715 10.102 C 1.905 10.519,2.352 10.656,2.772 10.426 C 2.953 10.327,3.051 10.180,3.176 9.813 C 3.426 9.087,3.754 8.567,4.271 8.076 C 4.910 7.470,5.653 7.137,6.848 6.921 C 7.702 6.766,8.144 6.754,12.340 6.769 C 16.776 6.786,16.638 6.779,17.688 7.040 C 19.519 7.496,20.504 8.480,20.960 10.312 C 21.208 11.309,21.220 11.474,21.220 14.000 C 21.220 16.013,21.211 16.357,21.148 16.760 C 20.712 19.558,19.558 20.712,16.760 21.148 C 16.339 21.214,15.936 21.220,12.000 21.220 C 7.255 21.220,7.378 21.226,6.312 20.960 C 3.916 20.363,2.900 18.821,2.765 15.577 C 2.730 14.739,2.692 14.593,2.464 14.421 C 2.004 14.073,1.364 14.322,1.264 14.887 C 1.225 15.105,1.310 16.506,1.398 17.109 C 1.797 19.824,3.072 21.478,5.356 22.242 C 6.191 22.521,6.998 22.657,8.193 22.720 C 9.162 22.771,14.838 22.771,15.807 22.720 C 17.002 22.657,17.809 22.521,18.644 22.242 C 20.966 21.466,22.225 19.797,22.622 16.973 C 22.804 15.675,22.804 12.325,22.622 11.027 C 22.532 10.386,22.416 9.878,22.242 9.356 C 21.632 7.531,20.469 6.367,18.650 5.760 C 17.408 5.346,16.359 5.241,13.470 5.240 C 11.934 5.240,11.877 5.237,11.800 5.160 C 11.705 5.065,11.698 4.969,11.779 4.853 C 11.825 4.788,11.899 4.761,12.089 4.741 C 12.451 4.701,12.685 4.625,12.927 4.468 C 13.281 4.239,13.517 3.939,13.657 3.540 C 13.750 3.278,13.796 2.011,13.722 1.785 C 13.598 1.412,13.221 1.191,12.854 1.278 M15.049 11.142 C 14.702 11.317,14.520 11.626,14.520 12.040 C 14.520 12.325,14.581 12.490,14.761 12.695 C 14.966 12.928,15.171 13.018,15.500 13.018 C 15.838 13.018,16.041 12.925,16.256 12.674 C 16.640 12.225,16.525 11.492,16.023 11.182 C 15.863 11.083,15.776 11.059,15.544 11.048 C 15.300 11.037,15.230 11.050,15.049 11.142 M9.259 11.782 C 9.192 11.815,8.896 12.084,8.600 12.380 L 8.064 12.918 7.535 12.398 C 7.245 12.113,6.943 11.852,6.865 11.819 C 6.559 11.692,6.153 11.784,5.964 12.024 C 5.839 12.183,5.785 12.404,5.819 12.624 C 5.846 12.804,5.882 12.851,6.404 13.381 C 6.710 13.692,6.960 13.963,6.960 13.983 C 6.960 14.004,6.725 14.255,6.437 14.541 C 6.150 14.826,5.886 15.114,5.852 15.179 C 5.687 15.490,5.836 15.973,6.152 16.150 C 6.345 16.259,6.665 16.270,6.852 16.175 C 6.922 16.139,7.224 15.869,7.521 15.576 L 8.062 15.041 8.621 15.605 C 8.929 15.915,9.238 16.193,9.309 16.224 C 9.793 16.434,10.331 16.074,10.331 15.540 C 10.331 15.424,10.301 15.279,10.260 15.199 C 10.220 15.123,9.949 14.817,9.657 14.520 L 9.126 13.980 9.680 13.415 C 10.281 12.802,10.355 12.676,10.302 12.342 C 10.228 11.876,9.672 11.578,9.259 11.782 M13.229 13.055 C 12.865 13.191,12.636 13.451,12.561 13.815 C 12.483 14.193,12.656 14.609,12.978 14.818 C 13.424 15.107,13.954 15.033,14.296 14.634 C 14.510 14.384,14.578 14.030,14.480 13.677 C 14.427 13.489,14.191 13.217,13.989 13.114 C 13.781 13.008,13.428 12.981,13.229 13.055 M17.160 13.061 C 16.914 13.138,16.707 13.319,16.584 13.568 C 16.314 14.109,16.599 14.769,17.177 14.941 C 17.426 15.015,17.535 15.015,17.790 14.939 C 18.168 14.827,18.480 14.402,18.480 14.000 C 18.480 13.598,18.168 13.173,17.790 13.061 C 17.543 12.987,17.398 12.988,17.160 13.061 M15.240 14.995 C 15.034 15.062,14.884 15.163,14.745 15.325 C 14.559 15.543,14.508 15.708,14.527 16.038 C 14.546 16.386,14.695 16.644,14.978 16.819 C 15.154 16.928,15.207 16.940,15.500 16.940 C 15.793 16.940,15.846 16.928,16.022 16.819 C 16.394 16.589,16.567 16.112,16.445 15.657 C 16.389 15.452,16.159 15.182,15.949 15.074 C 15.772 14.984,15.400 14.942,15.240 14.995 " stroke="none" fill-rule="evenodd" fill="black"></path></svg>