<svg width="24" height="24" viewBox="0 0 24 24" fill="none" xmlns="http://www.w3.org/2000/svg"><path d="M6.180 1.266 C 4.512 1.383,3.279 2.362,2.896 3.873 C 2.792 4.282,2.732 4.938,2.776 5.175 C 2.808 5.343,2.995 5.575,3.175 5.668 C 3.333 5.750,3.667 5.750,3.825 5.668 C 4.002 5.576,4.193 5.343,4.216 5.191 C 4.227 5.119,4.246 4.927,4.259 4.765 C 4.289 4.376,4.344 4.156,4.492 3.840 C 4.645 3.511,4.984 3.172,5.327 3.005 C 5.858 2.746,5.610 2.757,10.605 2.769 L 15.140 2.780 15.396 2.876 C 15.998 3.100,16.428 3.538,16.628 4.130 L 16.740 4.460 16.751 12.850 L 16.761 21.240 10.501 21.240 L 4.240 21.240 4.240 15.043 C 4.240 10.761,4.227 8.810,4.197 8.733 C 4.095 8.460,3.807 8.269,3.500 8.269 C 3.193 8.269,2.905 8.460,2.803 8.733 C 2.773 8.810,2.760 10.760,2.760 15.038 L 2.760 21.230 2.265 21.247 C 1.811 21.262,1.756 21.272,1.609 21.369 C 1.372 21.526,1.267 21.722,1.267 22.007 C 1.267 22.203,1.286 22.270,1.383 22.408 C 1.448 22.499,1.572 22.610,1.660 22.656 L 1.820 22.740 10.380 22.751 C 16.509 22.758,19.001 22.749,19.154 22.717 C 19.722 22.600,19.933 21.893,19.522 21.482 C 19.335 21.295,19.129 21.240,18.622 21.240 L 18.240 21.240 18.240 19.000 L 18.240 16.760 20.098 16.760 C 21.304 16.760,22.028 16.744,22.162 16.716 C 22.451 16.654,22.657 16.445,22.718 16.151 C 22.749 16.000,22.759 15.020,22.751 12.878 L 22.740 9.820 22.651 9.653 C 22.602 9.562,22.512 9.451,22.451 9.408 C 22.266 9.277,20.347 8.330,20.169 8.282 C 19.652 8.143,19.144 8.652,19.283 9.172 C 19.369 9.495,19.460 9.567,20.381 10.029 L 21.240 10.460 21.240 12.845 L 21.240 15.230 19.777 15.260 C 18.930 15.277,18.298 15.274,18.278 15.254 C 18.257 15.233,18.237 12.873,18.231 9.739 L 18.220 4.260 18.114 3.877 C 17.786 2.687,16.970 1.819,15.840 1.455 C 15.241 1.262,15.382 1.267,10.740 1.260 C 8.342 1.256,6.290 1.259,6.180 1.266 M7.780 4.299 C 6.799 4.481,6.115 5.093,5.854 6.020 C 5.766 6.332,5.729 8.166,5.800 8.657 C 5.948 9.680,6.608 10.410,7.620 10.668 C 7.875 10.734,8.132 10.740,10.480 10.740 C 12.834 10.740,13.087 10.734,13.370 10.667 C 14.315 10.446,15.007 9.742,15.181 8.826 C 15.265 8.379,15.264 6.561,15.179 6.153 C 15.057 5.570,14.761 5.089,14.320 4.757 C 14.001 4.517,13.669 4.379,13.215 4.300 C 12.747 4.219,8.219 4.218,7.780 4.299 M13.167 5.814 C 13.397 5.902,13.545 6.043,13.656 6.280 C 13.733 6.444,13.741 6.544,13.753 7.411 C 13.763 8.185,13.754 8.402,13.702 8.578 C 13.627 8.837,13.489 9.012,13.265 9.132 C 13.101 9.220,13.091 9.220,10.604 9.231 C 7.849 9.244,7.821 9.241,7.543 8.997 C 7.295 8.779,7.260 8.596,7.260 7.500 C 7.260 6.435,7.283 6.290,7.491 6.054 C 7.641 5.883,7.817 5.800,8.120 5.758 C 8.241 5.742,9.384 5.732,10.660 5.736 C 12.778 5.743,12.996 5.749,13.167 5.814 M6.420 12.259 C 6.398 12.267,6.331 12.284,6.271 12.297 C 6.124 12.329,5.881 12.548,5.814 12.708 C 5.691 13.002,5.771 13.336,6.015 13.550 C 6.095 13.621,6.211 13.693,6.271 13.709 C 6.413 13.749,9.587 13.749,9.729 13.709 C 9.881 13.667,10.121 13.447,10.186 13.292 C 10.297 13.027,10.241 12.711,10.047 12.506 C 9.810 12.255,9.854 12.261,8.080 12.252 C 7.189 12.248,6.442 12.251,6.420 12.259 " stroke="none" fill-rule="evenodd" fill="black"></path></svg>