<svg width="24" height="24" viewBox="0 0 24 24" fill="none" xmlns="http://www.w3.org/2000/svg"><path d="M10.775 1.343 C 7.384 1.754,4.393 3.789,2.668 6.860 C 2.077 7.913,1.597 9.326,1.420 10.537 C 1.335 11.123,1.276 12.145,1.317 12.328 C 1.468 12.998,2.345 13.147,2.676 12.559 C 2.759 12.412,2.774 12.313,2.804 11.757 C 2.857 10.745,2.997 10.012,3.308 9.101 C 4.103 6.776,5.772 4.851,7.947 3.749 C 10.563 2.424,13.517 2.424,16.133 3.749 C 17.181 4.280,17.978 4.891,18.835 5.820 C 20.143 7.238,21.024 9.198,21.238 11.168 C 21.292 11.666,21.295 20.394,21.241 20.479 C 21.192 20.557,21.095 20.485,20.387 19.842 C 19.758 19.271,19.603 19.158,19.286 19.036 C 18.970 18.915,18.430 18.915,18.114 19.036 C 17.771 19.167,17.649 19.264,16.538 20.280 C 15.972 20.797,15.476 21.233,15.435 21.249 C 15.394 21.265,15.326 21.265,15.284 21.249 C 15.243 21.233,14.746 20.797,14.182 20.280 C 13.073 19.265,12.949 19.168,12.606 19.036 C 12.290 18.915,11.750 18.915,11.434 19.036 C 11.091 19.167,10.969 19.264,9.858 20.280 C 9.292 20.797,8.796 21.233,8.755 21.249 C 8.714 21.265,8.646 21.265,8.604 21.249 C 8.562 21.233,8.145 20.869,7.678 20.440 C 7.210 20.011,6.718 19.563,6.584 19.445 C 5.823 18.775,4.863 18.767,4.118 19.426 C 3.998 19.532,3.710 19.792,3.478 20.004 C 3.015 20.425,2.853 20.546,2.809 20.502 C 2.793 20.486,2.771 19.435,2.760 18.167 C 2.742 16.120,2.733 15.846,2.674 15.740 C 2.538 15.494,2.253 15.319,1.991 15.321 C 1.708 15.323,1.362 15.575,1.290 15.833 C 1.273 15.892,1.260 16.975,1.261 18.240 C 1.261 20.337,1.268 20.563,1.334 20.797 C 1.552 21.574,2.008 21.993,2.674 22.031 C 3.270 22.065,3.673 21.848,4.620 20.988 C 5.092 20.559,5.244 20.442,5.334 20.441 C 5.463 20.440,5.391 20.380,6.721 21.594 C 7.741 22.524,7.922 22.646,8.399 22.728 C 8.766 22.791,9.160 22.727,9.489 22.552 C 9.643 22.470,10.050 22.130,10.650 21.583 C 11.951 20.396,11.898 20.440,12.020 20.440 C 12.141 20.440,12.083 20.391,13.401 21.594 C 14.421 22.524,14.602 22.646,15.079 22.728 C 15.446 22.791,15.840 22.727,16.169 22.552 C 16.323 22.470,16.730 22.130,17.330 21.583 C 18.643 20.385,18.577 20.440,18.706 20.441 C 18.796 20.442,18.948 20.559,19.420 20.988 C 20.367 21.848,20.770 22.065,21.366 22.031 C 22.032 21.993,22.486 21.575,22.707 20.797 C 22.776 20.555,22.780 20.273,22.779 15.960 C 22.779 11.003,22.780 11.033,22.554 9.940 C 22.170 8.077,21.220 6.209,19.950 4.818 C 18.150 2.847,15.830 1.641,13.255 1.340 C 12.626 1.267,11.391 1.268,10.775 1.343 M11.660 6.278 C 10.776 6.385,10.027 6.901,9.568 7.720 C 9.168 8.434,9.168 9.566,9.568 10.280 C 10.094 11.219,10.953 11.731,12.000 11.731 C 13.047 11.731,13.906 11.219,14.432 10.280 C 14.832 9.566,14.832 8.434,14.432 7.720 C 13.857 6.694,12.796 6.142,11.660 6.278 M12.454 7.841 C 12.744 7.950,13.050 8.256,13.159 8.546 C 13.467 9.369,12.871 10.240,12.000 10.240 C 11.492 10.240,11.014 9.913,10.837 9.445 C 10.728 9.157,10.743 8.704,10.870 8.458 C 11.019 8.169,11.349 7.886,11.640 7.797 C 11.838 7.737,12.232 7.758,12.454 7.841 M7.811 13.278 C 7.487 13.357,7.263 13.667,7.267 14.030 C 7.270 14.339,7.391 14.493,7.897 14.830 C 8.920 15.513,9.894 15.872,11.120 16.022 C 12.890 16.237,14.610 15.826,16.103 14.830 C 16.608 14.494,16.724 14.347,16.731 14.031 C 16.737 13.757,16.629 13.540,16.408 13.383 C 16.269 13.286,16.203 13.267,16.002 13.267 C 15.771 13.267,15.743 13.278,15.370 13.528 C 14.281 14.259,13.272 14.571,12.000 14.571 C 10.735 14.571,9.733 14.263,8.640 13.538 C 8.242 13.275,8.060 13.217,7.811 13.278 " stroke="none" fill-rule="evenodd" fill="black"></path></svg>