<svg width="24" height="24" viewBox="0 0 24 24" fill="none" xmlns="http://www.w3.org/2000/svg"><path d="M7.983 1.287 C 7.483 1.354,7.310 1.477,6.339 2.452 C 5.424 3.370,5.288 3.546,5.199 3.927 C 5.172 4.044,5.145 4.160,5.139 4.184 C 5.132 4.211,4.906 4.237,4.527 4.254 C 3.513 4.300,2.999 4.484,2.496 4.980 C 2.184 5.288,1.977 5.654,1.850 6.120 C 1.746 6.504,1.746 8.496,1.850 8.880 C 2.030 9.543,2.454 10.110,2.990 10.403 L 3.239 10.540 3.240 12.295 C 3.240 14.037,3.241 14.050,3.330 14.208 C 3.563 14.624,4.184 14.700,4.508 14.353 C 4.715 14.132,4.720 14.082,4.720 12.361 L 4.720 10.760 6.459 10.760 L 8.197 10.760 8.209 13.170 L 8.220 15.580 8.348 15.850 C 8.673 16.537,9.328 16.921,10.083 16.869 C 10.472 16.843,10.650 16.763,11.357 16.301 C 11.653 16.108,11.933 15.950,11.979 15.950 C 12.025 15.950,12.323 16.121,12.641 16.331 C 13.337 16.789,13.497 16.851,13.980 16.853 C 14.409 16.855,14.672 16.768,15.032 16.503 C 15.288 16.315,15.470 16.069,15.609 15.724 C 15.700 15.501,15.700 15.488,15.711 13.130 L 15.723 10.760 17.484 10.760 L 19.246 10.760 19.228 14.810 C 19.213 18.228,19.201 18.911,19.149 19.187 C 19.011 19.921,18.837 20.319,18.530 20.607 C 18.305 20.817,18.133 20.912,17.760 21.033 C 17.175 21.222,17.231 21.220,11.940 21.220 L 6.940 21.220 6.540 21.131 C 6.030 21.018,5.539 20.781,5.338 20.549 C 4.956 20.112,4.720 19.203,4.720 18.174 C 4.720 17.855,4.655 17.644,4.508 17.487 C 4.184 17.140,3.563 17.216,3.330 17.632 C 3.252 17.770,3.240 17.849,3.240 18.231 C 3.240 20.846,4.241 22.241,6.390 22.621 C 7.084 22.744,8.122 22.766,12.524 22.749 C 16.242 22.735,16.920 22.723,17.280 22.668 C 18.337 22.507,19.008 22.222,19.555 21.702 C 20.138 21.148,20.422 20.538,20.629 19.400 C 20.681 19.111,20.693 18.415,20.707 14.800 L 20.724 10.540 20.989 10.400 C 21.581 10.087,22.040 9.425,22.178 8.686 C 22.264 8.222,22.264 6.778,22.178 6.314 C 22.032 5.531,21.574 4.898,20.916 4.568 C 20.498 4.359,20.142 4.284,19.414 4.252 L 18.849 4.228 18.824 4.039 C 18.768 3.621,18.609 3.403,17.683 2.476 C 16.603 1.394,16.411 1.276,15.740 1.278 C 15.371 1.279,15.103 1.351,14.843 1.519 C 14.743 1.584,14.075 2.223,13.360 2.939 C 12.645 3.654,12.034 4.240,12.002 4.240 C 11.969 4.240,11.339 3.640,10.601 2.906 C 9.779 2.089,9.190 1.535,9.079 1.474 C 8.754 1.297,8.380 1.233,7.983 1.287 M9.080 3.500 L 9.819 4.240 8.240 4.240 L 6.661 4.240 7.400 3.500 C 7.968 2.931,8.163 2.760,8.240 2.760 C 8.317 2.760,8.512 2.931,9.080 3.500 M16.560 3.500 L 17.299 4.240 15.740 4.240 L 14.181 4.240 14.920 3.500 C 15.391 3.028,15.688 2.760,15.740 2.760 C 15.792 2.760,16.089 3.028,16.560 3.500 M20.160 5.864 C 20.411 5.979,20.581 6.162,20.667 6.410 C 20.729 6.589,20.740 6.750,20.740 7.500 C 20.740 8.250,20.729 8.411,20.667 8.590 C 20.581 8.838,20.411 9.021,20.160 9.136 L 19.980 9.220 12.000 9.220 C 4.365 9.220,4.012 9.217,3.830 9.147 C 3.597 9.057,3.389 8.824,3.315 8.568 C 3.237 8.302,3.238 6.645,3.315 6.420 C 3.381 6.227,3.529 6.022,3.667 5.932 C 3.927 5.762,3.767 5.765,12.060 5.772 L 19.980 5.780 20.160 5.864 M14.231 12.999 C 14.219 15.410,14.228 15.313,14.014 15.377 C 13.949 15.397,13.796 15.313,13.369 15.026 C 12.663 14.551,12.459 14.469,11.980 14.469 C 11.503 14.469,11.306 14.548,10.588 15.023 C 10.275 15.230,9.985 15.399,9.943 15.400 C 9.900 15.400,9.823 15.361,9.773 15.313 L 9.680 15.226 9.680 12.993 L 9.680 10.760 11.961 10.760 L 14.242 10.760 14.231 12.999 " stroke="none" fill-rule="evenodd" fill="black"></path></svg>