<svg width="24" height="24" viewBox="0 0 24 24" fill="none" xmlns="http://www.w3.org/2000/svg"><path d="M8.200 1.267 C 7.335 1.354,6.730 1.654,6.139 2.289 C 5.814 2.638,5.565 3.079,5.434 3.540 C 5.305 3.994,5.305 4.726,5.433 5.178 C 5.611 5.800,5.992 6.391,6.461 6.772 C 6.759 7.014,7.202 7.263,7.446 7.325 L 7.631 7.373 7.629 7.602 C 7.623 8.249,8.367 8.602,8.839 8.176 C 9.047 7.988,9.480 7.025,9.480 6.749 C 9.480 6.273,9.176 6.000,8.647 6.000 C 8.046 6.000,7.637 5.847,7.292 5.493 C 6.810 5.000,6.694 4.325,6.981 3.685 C 7.116 3.384,7.465 3.040,7.789 2.888 L 8.020 2.780 11.900 2.768 C 15.941 2.756,15.947 2.757,16.285 2.924 C 16.538 3.050,16.869 3.388,17.000 3.653 C 17.564 4.801,16.714 6.000,15.335 6.000 C 15.081 6.000,14.937 6.051,14.786 6.193 C 14.620 6.350,14.549 6.513,14.548 6.739 C 14.547 6.916,14.697 7.281,15.794 9.787 C 16.479 11.353,17.040 12.651,17.040 12.672 C 17.040 12.724,16.404 13.009,15.908 13.178 C 15.034 13.477,14.152 13.597,13.387 13.521 C 12.892 13.472,12.726 13.434,11.880 13.182 C 10.616 12.805,9.325 12.567,7.895 12.447 L 7.091 12.380 7.204 12.100 C 7.267 11.946,7.318 11.761,7.319 11.689 C 7.320 11.539,7.229 11.298,7.128 11.187 C 6.941 10.980,6.539 10.899,6.269 11.015 C 6.047 11.110,5.936 11.279,5.608 12.020 C 4.471 14.592,3.806 16.120,3.650 16.520 C 3.054 18.043,3.008 19.485,3.521 20.547 C 4.091 21.726,5.234 22.424,7.020 22.685 C 7.464 22.750,15.444 22.782,16.370 22.723 C 16.738 22.699,17.217 22.645,17.434 22.603 C 19.424 22.217,20.600 21.067,20.805 19.306 C 20.884 18.625,20.770 17.773,20.482 16.889 C 20.340 16.456,20.210 16.153,18.026 11.160 C 16.456 7.570,16.377 7.378,16.456 7.345 C 17.560 6.875,18.169 6.307,18.475 5.460 C 18.814 4.523,18.703 3.522,18.168 2.700 C 17.632 1.875,16.855 1.391,15.890 1.281 C 15.570 1.244,8.552 1.231,8.200 1.267 M8.260 13.979 C 9.433 14.105,10.331 14.288,11.599 14.660 C 12.506 14.925,12.907 15.000,13.581 15.028 C 14.758 15.079,16.053 14.801,17.293 14.233 C 17.486 14.144,17.654 14.081,17.665 14.092 C 17.689 14.116,18.715 16.454,18.888 16.880 C 19.286 17.856,19.425 18.842,19.257 19.494 C 19.071 20.216,18.536 20.732,17.700 20.996 C 16.965 21.229,17.183 21.220,11.980 21.220 C 7.497 21.220,7.158 21.215,6.840 21.147 C 6.239 21.019,5.888 20.883,5.514 20.634 C 5.127 20.375,4.831 19.947,4.715 19.480 C 4.638 19.170,4.648 18.449,4.734 18.060 C 4.877 17.417,4.971 17.173,5.789 15.320 C 6.085 14.649,6.350 14.046,6.377 13.980 L 6.428 13.860 7.044 13.887 C 7.383 13.902,7.930 13.943,8.260 13.979 " stroke="none" fill-rule="evenodd" fill="black"></path></svg>