<svg width="24" height="24" viewBox="0 0 24 24" fill="none" xmlns="http://www.w3.org/2000/svg"><path d="M11.320 1.281 C 7.041 1.525,3.252 4.409,1.843 8.497 C 1.180 10.418,1.082 12.560,1.564 14.550 C 2.505 18.428,5.572 21.495,9.450 22.436 C 11.106 22.837,12.894 22.837,14.550 22.436 C 18.428 21.495,21.495 18.428,22.436 14.550 C 22.837 12.894,22.837 11.106,22.436 9.450 C 21.425 5.282,17.985 2.095,13.742 1.398 C 13.334 1.331,12.074 1.229,11.880 1.247 C 11.847 1.250,11.595 1.265,11.320 1.281 M13.001 2.801 C 13.187 2.823,13.543 2.879,13.790 2.925 C 14.216 3.004,14.242 3.015,14.265 3.114 C 14.278 3.172,14.366 3.472,14.461 3.780 C 14.750 4.718,15.091 6.077,15.223 6.816 L 15.251 6.973 14.956 6.945 C 14.793 6.930,14.426 6.896,14.140 6.870 C 13.458 6.807,10.542 6.807,9.860 6.870 C 9.574 6.896,9.207 6.930,9.044 6.945 L 8.749 6.973 8.777 6.816 C 8.911 6.064,9.249 4.714,9.538 3.780 C 9.633 3.472,9.722 3.172,9.735 3.114 C 9.758 3.015,9.784 3.004,10.210 2.924 C 10.457 2.878,10.786 2.824,10.940 2.805 C 11.339 2.755,12.601 2.753,13.001 2.801 M16.430 3.881 C 17.933 4.684,19.317 6.070,20.123 7.578 C 20.237 7.790,20.323 7.970,20.315 7.978 C 20.307 7.986,20.039 7.921,19.720 7.834 C 19.064 7.655,17.772 7.361,17.193 7.260 L 16.807 7.192 16.719 6.706 C 16.583 5.953,16.125 4.029,16.013 3.737 C 15.980 3.649,16.025 3.665,16.430 3.881 M7.960 3.770 C 7.960 3.797,7.897 4.054,7.819 4.340 C 7.638 5.012,7.393 6.090,7.281 6.706 L 7.193 7.192 6.807 7.260 C 6.228 7.361,4.936 7.655,4.280 7.834 C 3.961 7.921,3.693 7.986,3.685 7.978 C 3.677 7.970,3.763 7.790,3.877 7.578 C 4.668 6.097,5.992 4.757,7.480 3.931 C 7.872 3.714,7.960 3.684,7.960 3.770 M13.340 8.320 C 14.378 8.375,15.411 8.479,15.465 8.534 C 15.531 8.602,15.633 9.749,15.682 10.980 C 15.705 11.574,15.733 12.119,15.744 12.191 C 15.767 12.343,15.958 12.576,16.135 12.668 C 16.292 12.749,16.627 12.750,16.781 12.669 C 16.936 12.588,17.104 12.409,17.157 12.267 C 17.237 12.056,17.182 10.327,17.055 9.025 L 17.028 8.751 17.204 8.779 C 17.820 8.878,19.231 9.233,20.220 9.538 C 20.528 9.634,20.828 9.722,20.886 9.735 C 20.985 9.758,20.996 9.784,21.075 10.210 C 21.206 10.916,21.240 11.288,21.240 12.000 C 21.240 12.712,21.206 13.084,21.075 13.790 C 20.996 14.216,20.985 14.242,20.886 14.265 C 20.828 14.278,20.528 14.366,20.220 14.461 C 17.150 15.409,13.995 15.825,10.930 15.688 C 9.690 15.633,8.600 15.532,8.535 15.466 C 8.469 15.398,8.364 14.221,8.316 13.007 C 8.293 12.420,8.266 11.881,8.255 11.809 C 8.233 11.657,8.042 11.424,7.865 11.332 C 7.708 11.251,7.373 11.250,7.219 11.331 C 7.064 11.412,6.896 11.591,6.843 11.733 C 6.761 11.948,6.813 13.591,6.944 14.955 L 6.972 15.249 6.796 15.221 C 6.180 15.122,4.769 14.767,3.780 14.462 C 3.472 14.366,3.172 14.278,3.114 14.265 C 3.015 14.242,3.004 14.216,2.925 13.790 C 2.794 13.084,2.760 12.712,2.760 12.000 C 2.760 11.288,2.794 10.916,2.925 10.210 C 3.004 9.784,3.015 9.758,3.114 9.735 C 3.172 9.722,3.472 9.634,3.780 9.539 C 6.935 8.565,10.163 8.154,13.340 8.320 M4.420 16.202 C 5.085 16.382,6.211 16.636,6.807 16.740 L 7.193 16.808 7.281 17.294 C 7.398 17.942,7.603 18.843,7.803 19.594 C 7.907 19.984,7.953 20.223,7.929 20.247 C 7.905 20.271,7.766 20.219,7.550 20.106 C 6.124 19.360,4.695 17.937,3.905 16.476 C 3.711 16.117,3.687 16.040,3.770 16.040 C 3.797 16.040,4.090 16.113,4.420 16.202 M20.261 16.081 C 20.295 16.137,19.968 16.736,19.650 17.200 C 19.009 18.133,18.139 19.003,17.200 19.650 C 16.831 19.904,16.051 20.344,16.022 20.315 C 16.014 20.307,16.087 20.003,16.185 19.640 C 16.381 18.909,16.635 17.788,16.739 17.194 L 16.806 16.808 17.193 16.740 C 17.753 16.642,19.060 16.346,19.640 16.185 C 20.208 16.028,20.226 16.025,20.261 16.081 M9.860 17.130 C 10.542 17.193,13.458 17.193,14.140 17.130 C 14.426 17.104,14.793 17.070,14.955 17.055 L 15.249 17.028 15.220 17.204 C 15.110 17.873,14.795 19.120,14.451 20.247 L 14.223 20.995 13.781 21.076 C 13.084 21.206,12.710 21.240,12.000 21.240 C 11.288 21.240,10.916 21.206,10.210 21.075 L 9.761 20.991 9.718 20.826 C 9.694 20.735,9.605 20.435,9.520 20.160 C 9.235 19.238,8.760 17.312,8.760 17.077 C 8.760 17.041,8.833 17.035,9.050 17.056 C 9.210 17.070,9.574 17.104,9.860 17.130 " stroke="none" fill-rule="evenodd" fill="black"></path></svg>