<svg width="24" height="24" viewBox="0 0 24 24" fill="none" xmlns="http://www.w3.org/2000/svg"><path d="M11.320 1.281 C 9.259 1.398,7.250 2.142,5.530 3.424 C 4.912 3.884,3.884 4.912,3.424 5.530 C 1.875 7.608,1.136 10.050,1.281 12.610 C 1.402 14.759,2.118 16.717,3.424 18.470 C 3.880 19.083,4.909 20.111,5.530 20.575 C 6.967 21.649,8.621 22.350,10.345 22.617 C 10.946 22.710,11.940 22.762,12.174 22.713 C 12.723 22.597,12.924 21.884,12.522 21.482 C 12.340 21.300,12.129 21.240,11.671 21.240 C 11.277 21.240,10.827 21.189,10.210 21.075 C 9.784 20.996,9.758 20.985,9.735 20.886 C 9.722 20.828,9.634 20.528,9.538 20.220 C 9.233 19.231,8.878 17.820,8.779 17.204 L 8.751 17.028 9.025 17.055 C 10.327 17.182,12.056 17.237,12.267 17.157 C 12.409 17.104,12.588 16.936,12.669 16.781 C 12.750 16.627,12.749 16.292,12.668 16.135 C 12.576 15.958,12.343 15.767,12.191 15.744 C 12.119 15.733,11.566 15.705,10.961 15.681 C 10.000 15.642,8.827 15.553,8.577 15.500 C 8.500 15.483,8.489 15.431,8.426 14.771 C 8.279 13.227,8.248 11.977,8.321 10.620 C 8.453 8.204,8.833 6.063,9.538 3.780 C 9.634 3.472,9.722 3.172,9.735 3.114 C 9.758 3.015,9.784 3.004,10.210 2.925 C 10.916 2.794,11.288 2.760,12.000 2.760 C 12.712 2.760,13.084 2.794,13.790 2.925 C 14.216 3.004,14.242 3.015,14.265 3.114 C 14.278 3.172,14.366 3.472,14.461 3.780 C 14.750 4.718,15.091 6.077,15.223 6.816 L 15.251 6.973 14.976 6.946 C 13.673 6.818,11.944 6.763,11.733 6.843 C 11.591 6.896,11.412 7.064,11.331 7.219 C 11.250 7.373,11.251 7.708,11.332 7.865 C 11.424 8.042,11.657 8.233,11.809 8.256 C 11.881 8.266,12.421 8.294,13.009 8.317 C 14.225 8.364,15.398 8.469,15.465 8.535 C 15.531 8.601,15.633 9.748,15.682 10.980 C 15.705 11.574,15.733 12.119,15.744 12.191 C 15.767 12.343,15.958 12.576,16.135 12.668 C 16.292 12.749,16.627 12.750,16.781 12.669 C 16.936 12.588,17.104 12.409,17.157 12.267 C 17.237 12.056,17.182 10.327,17.054 9.024 L 17.027 8.749 17.184 8.777 C 17.936 8.911,19.286 9.249,20.220 9.538 C 20.528 9.633,20.827 9.722,20.884 9.735 C 20.979 9.757,20.995 9.788,21.053 10.089 C 21.172 10.697,21.206 10.976,21.237 11.607 C 21.265 12.149,21.281 12.252,21.357 12.376 C 21.704 12.937,22.579 12.807,22.713 12.174 C 22.762 11.940,22.710 10.946,22.617 10.345 C 22.350 8.621,21.650 6.969,20.575 5.530 C 20.115 4.913,19.087 3.885,18.470 3.425 C 17.047 2.362,15.454 1.679,13.742 1.398 C 13.334 1.331,12.074 1.229,11.880 1.247 C 11.847 1.250,11.595 1.265,11.320 1.281 M16.437 3.885 C 17.678 4.548,18.888 5.665,19.750 6.943 C 19.935 7.217,20.337 7.956,20.314 7.979 C 20.306 7.987,20.075 7.933,19.800 7.858 C 19.110 7.670,17.877 7.386,17.294 7.281 L 16.807 7.193 16.719 6.706 C 16.583 5.953,16.125 4.029,16.013 3.737 C 15.980 3.649,16.025 3.665,16.437 3.885 M7.960 3.770 C 7.960 3.797,7.888 4.083,7.802 4.405 C 7.608 5.125,7.394 6.063,7.279 6.700 C 7.232 6.964,7.189 7.185,7.183 7.190 C 7.178 7.196,6.968 7.237,6.717 7.282 C 6.096 7.393,4.983 7.648,4.282 7.839 C 3.963 7.925,3.696 7.989,3.687 7.980 C 3.678 7.971,3.764 7.789,3.878 7.575 C 4.271 6.841,4.715 6.246,5.378 5.566 C 6.076 4.850,6.710 4.356,7.480 3.930 C 7.872 3.714,7.960 3.684,7.960 3.770 M6.945 9.010 C 6.760 10.740,6.760 13.261,6.945 14.996 L 6.973 15.251 6.816 15.223 C 6.072 15.090,4.697 14.746,3.780 14.462 C 3.472 14.367,3.172 14.278,3.114 14.265 C 3.015 14.242,3.004 14.216,2.925 13.790 C 2.794 13.084,2.760 12.712,2.760 12.000 C 2.760 11.288,2.794 10.916,2.925 10.210 C 3.004 9.784,3.015 9.758,3.114 9.736 C 3.172 9.723,3.472 9.634,3.780 9.539 C 4.701 9.255,6.643 8.771,6.896 8.762 C 6.965 8.760,6.969 8.781,6.945 9.010 M18.430 12.723 C 18.125 12.884,17.967 13.307,18.096 13.616 C 18.131 13.701,18.160 13.774,18.160 13.779 C 18.160 13.784,17.994 13.799,17.790 13.812 C 16.347 13.907,14.887 14.925,14.221 16.300 C 13.943 16.874,13.762 17.654,13.762 18.280 C 13.761 18.873,13.946 19.653,14.221 20.220 C 14.663 21.133,15.495 21.939,16.420 22.351 C 17.743 22.940,19.327 22.843,20.561 22.097 C 21.558 21.494,22.261 20.550,22.590 19.373 C 22.692 19.007,22.699 18.929,22.697 18.240 C 22.695 17.569,22.684 17.463,22.587 17.100 C 22.464 16.639,22.148 15.973,21.933 15.722 C 21.630 15.369,21.190 15.342,20.846 15.655 C 20.705 15.783,20.632 15.951,20.626 16.162 C 20.621 16.320,20.658 16.427,20.851 16.806 C 20.978 17.056,21.112 17.377,21.150 17.520 C 21.245 17.882,21.243 18.687,21.146 19.037 C 20.983 19.621,20.604 20.193,20.124 20.578 C 19.558 21.032,19.113 21.198,18.380 21.228 C 17.766 21.253,17.429 21.185,16.921 20.935 C 16.599 20.776,16.484 20.690,16.157 20.364 C 15.736 19.943,15.580 19.703,15.420 19.224 C 15.137 18.379,15.254 17.376,15.720 16.664 C 16.001 16.235,16.489 15.799,16.933 15.579 C 17.280 15.408,17.719 15.282,17.976 15.281 C 18.085 15.280,18.088 15.284,18.028 15.351 C 17.926 15.463,17.840 15.703,17.841 15.869 C 17.842 16.042,17.953 16.308,18.066 16.408 C 18.267 16.587,18.611 16.647,18.851 16.546 C 18.966 16.498,20.386 15.494,20.576 15.327 C 20.685 15.230,20.798 14.962,20.798 14.800 C 20.798 14.723,20.764 14.588,20.722 14.500 C 20.630 14.307,19.356 12.860,19.164 12.731 C 18.987 12.612,18.647 12.608,18.430 12.723 M4.416 16.199 C 5.204 16.406,6.100 16.609,6.706 16.719 L 7.192 16.807 7.259 17.193 C 7.363 17.792,7.589 18.792,7.787 19.535 C 7.908 19.989,7.953 20.223,7.926 20.250 C 7.852 20.324,7.077 19.870,6.380 19.345 C 5.973 19.038,5.148 18.235,4.814 17.820 C 4.348 17.241,3.720 16.246,3.720 16.087 C 3.720 16.019,3.752 16.024,4.416 16.199 " stroke="none" fill-rule="evenodd" fill="black"></path></svg>