<svg width="24" height="24" viewBox="0 0 24 24" fill="none" xmlns="http://www.w3.org/2000/svg"><path d="M11.815 1.277 C 11.638 1.321,11.461 1.456,11.353 1.631 C 11.263 1.775,11.260 1.815,11.247 2.785 L 11.234 3.789 10.867 3.839 C 9.397 4.036,8.011 4.641,6.796 5.614 C 6.365 5.959,6.256 6.129,6.266 6.443 C 6.276 6.765,6.484 7.033,6.791 7.118 C 7.107 7.206,7.286 7.144,7.698 6.805 C 9.551 5.282,12.008 4.847,14.265 5.644 C 14.911 5.872,15.751 6.334,16.198 6.708 C 16.208 6.716,15.733 7.206,15.143 7.797 L 14.070 8.871 13.785 8.718 C 13.097 8.349,12.387 8.205,11.635 8.283 C 11.121 8.336,10.839 8.416,10.380 8.639 C 9.540 9.046,8.999 9.597,8.600 10.452 C 8.325 11.041,8.215 11.707,8.283 12.367 C 8.341 12.929,8.451 13.288,8.718 13.785 L 8.871 14.070 7.797 15.143 C 7.206 15.733,6.716 16.208,6.708 16.198 C 6.334 15.751,5.872 14.911,5.644 14.265 C 5.366 13.479,5.264 12.866,5.263 11.980 C 5.263 11.321,5.307 10.935,5.446 10.381 C 5.543 9.996,5.522 9.790,5.363 9.570 C 5.224 9.379,5.028 9.280,4.787 9.280 C 4.406 9.280,4.162 9.474,4.039 9.873 C 3.959 10.133,3.800 10.976,3.800 11.142 L 3.800 11.234 2.790 11.247 C 1.808 11.260,1.776 11.263,1.627 11.355 C 1.385 11.506,1.267 11.718,1.267 12.003 C 1.267 12.203,1.286 12.270,1.383 12.408 C 1.603 12.719,1.684 12.738,2.803 12.753 L 3.787 12.766 3.837 13.145 C 3.938 13.921,4.192 14.772,4.542 15.511 C 4.806 16.070,4.970 16.346,5.352 16.874 L 5.651 17.288 3.510 19.434 C 2.332 20.614,1.346 21.625,1.318 21.680 C 1.290 21.735,1.267 21.881,1.267 22.004 C 1.267 22.498,1.681 22.816,2.189 22.712 C 2.376 22.674,2.592 22.460,12.490 12.566 C 18.342 6.717,22.628 2.403,22.665 2.324 C 22.753 2.138,22.747 1.837,22.651 1.651 C 22.608 1.568,22.499 1.448,22.408 1.383 C 22.271 1.287,22.202 1.267,22.011 1.267 C 21.884 1.267,21.735 1.290,21.680 1.318 C 21.625 1.346,20.614 2.333,19.434 3.510 L 17.287 5.652 16.934 5.394 C 16.061 4.758,15.255 4.358,14.281 4.078 C 13.873 3.960,13.051 3.800,12.856 3.800 L 12.760 3.800 12.759 2.910 C 12.758 1.954,12.729 1.732,12.580 1.536 C 12.421 1.327,12.078 1.211,11.815 1.277 M18.665 8.288 C 18.439 8.350,18.221 8.585,18.162 8.832 C 18.116 9.024,18.121 9.055,18.260 9.447 C 18.619 10.459,18.731 11.050,18.734 11.960 C 18.737 12.864,18.618 13.551,18.318 14.366 C 17.660 16.151,16.149 17.660,14.359 18.320 C 13.545 18.620,12.862 18.738,11.960 18.734 C 11.048 18.730,10.456 18.618,9.447 18.260 C 9.055 18.121,9.024 18.116,8.832 18.162 C 8.268 18.297,8.070 18.990,8.479 19.399 C 8.734 19.654,9.946 20.045,10.847 20.163 L 11.234 20.213 11.247 21.217 C 11.260 22.185,11.263 22.225,11.353 22.369 C 11.710 22.943,12.576 22.812,12.716 22.162 C 12.740 22.047,12.760 21.570,12.760 21.083 L 12.760 20.210 13.010 20.183 C 14.758 19.991,16.652 19.051,17.904 17.753 C 19.149 16.463,19.998 14.695,20.183 13.010 L 20.210 12.760 21.083 12.760 C 22.128 12.760,22.310 12.730,22.520 12.520 C 22.918 12.122,22.730 11.423,22.189 11.286 C 22.076 11.258,21.655 11.240,21.109 11.240 L 20.214 11.240 20.163 10.850 C 20.064 10.081,19.683 8.829,19.460 8.537 C 19.291 8.316,18.953 8.210,18.665 8.288 M12.575 9.820 C 13.046 9.943,13.145 9.794,11.478 11.462 C 10.657 12.283,9.972 12.947,9.956 12.938 C 9.815 12.850,9.712 11.926,9.797 11.515 C 9.958 10.740,10.634 10.031,11.411 9.822 C 11.691 9.746,12.288 9.746,12.575 9.820 " stroke="none" fill-rule="evenodd" fill="black"></path></svg>