<svg width="24" height="24" viewBox="0 0 24 24" fill="none" xmlns="http://www.w3.org/2000/svg"><path d="M11.815 1.277 C 11.638 1.321,11.461 1.456,11.353 1.631 C 11.263 1.775,11.260 1.815,11.247 2.783 L 11.234 3.787 10.847 3.837 C 10.079 3.937,9.056 4.251,8.358 4.600 C 8.050 4.754,7.938 4.850,7.836 5.048 C 7.655 5.402,7.797 5.821,8.163 6.013 C 8.442 6.160,8.603 6.141,9.118 5.902 C 10.124 5.435,10.891 5.263,11.960 5.263 C 12.880 5.264,13.543 5.379,14.359 5.680 C 16.153 6.341,17.659 7.847,18.320 9.641 C 18.614 10.438,18.735 11.124,18.735 12.000 C 18.735 12.876,18.614 13.562,18.320 14.359 C 17.659 16.153,16.153 17.659,14.359 18.320 C 13.562 18.614,12.871 18.736,12.000 18.736 C 11.129 18.736,10.438 18.614,9.641 18.320 C 7.847 17.659,6.341 16.153,5.680 14.359 C 5.379 13.543,5.264 12.880,5.263 11.960 C 5.263 10.884,5.435 10.124,5.911 9.100 C 6.139 8.609,6.156 8.397,5.989 8.112 C 5.745 7.696,5.146 7.642,4.814 8.006 C 4.487 8.365,3.962 9.891,3.837 10.847 L 3.787 11.234 2.783 11.247 C 1.808 11.260,1.776 11.263,1.627 11.355 C 1.385 11.506,1.267 11.718,1.267 12.003 C 1.267 12.203,1.286 12.270,1.383 12.408 C 1.603 12.719,1.684 12.738,2.803 12.753 L 3.787 12.766 3.837 13.153 C 4.096 15.134,5.203 17.097,6.794 18.396 C 7.919 19.314,9.447 19.980,10.847 20.163 L 11.234 20.213 11.247 21.217 C 11.260 22.185,11.263 22.225,11.353 22.369 C 11.710 22.943,12.576 22.812,12.716 22.162 C 12.740 22.047,12.760 21.570,12.760 21.083 L 12.760 20.210 13.010 20.183 C 14.424 20.028,16.064 19.331,17.200 18.401 C 18.830 17.068,19.963 15.021,20.183 13.010 L 20.210 12.760 21.083 12.760 C 22.128 12.760,22.310 12.730,22.520 12.520 C 22.918 12.122,22.730 11.423,22.189 11.286 C 22.076 11.258,21.655 11.240,21.109 11.240 L 20.214 11.240 20.163 10.850 C 19.904 8.866,18.799 6.904,17.206 5.604 C 16.080 4.685,14.553 4.020,13.150 3.837 L 12.760 3.786 12.759 2.903 C 12.758 1.954,12.729 1.732,12.580 1.536 C 12.421 1.327,12.078 1.211,11.815 1.277 M11.740 8.266 C 10.415 8.385,9.327 9.085,8.719 10.212 C 8.400 10.803,8.271 11.320,8.271 12.000 C 8.271 12.682,8.400 13.197,8.721 13.792 C 9.078 14.453,9.549 14.923,10.212 15.281 C 10.803 15.600,11.320 15.729,12.000 15.729 C 12.680 15.729,13.197 15.600,13.788 15.281 C 14.451 14.923,14.922 14.453,15.279 13.792 C 15.600 13.197,15.729 12.682,15.729 12.000 C 15.729 11.320,15.600 10.803,15.281 10.212 C 14.832 9.381,14.122 8.779,13.215 8.463 C 12.793 8.316,12.149 8.230,11.740 8.266 M12.578 9.821 C 12.949 9.918,13.274 10.112,13.581 10.419 C 14.041 10.879,14.240 11.356,14.240 12.000 C 14.240 12.644,14.041 13.121,13.581 13.581 C 13.121 14.041,12.644 14.240,12.000 14.240 C 11.356 14.240,10.879 14.041,10.419 13.581 C 9.959 13.121,9.760 12.644,9.760 12.000 C 9.760 11.356,9.959 10.879,10.419 10.419 C 10.719 10.118,11.050 9.919,11.404 9.823 C 11.692 9.746,12.285 9.745,12.578 9.821 " stroke="none" fill-rule="evenodd" fill="black"></path></svg>