<svg width="24" height="24" viewBox="0 0 24 24" fill="none" xmlns="http://www.w3.org/2000/svg"><path d="M13.545 1.944 C 12.595 2.116,11.933 2.681,11.577 3.624 C 11.309 4.332,11.241 5.046,11.241 7.140 C 11.241 9.399,11.315 10.043,11.672 10.860 C 12.097 11.832,12.902 12.442,14.053 12.664 C 14.489 12.748,17.743 12.790,18.740 12.724 C 19.786 12.654,20.426 12.481,20.975 12.119 C 21.425 11.821,21.722 11.453,21.909 10.960 C 22.240 10.091,22.164 8.828,21.693 7.340 C 21.430 6.506,20.718 5.219,20.406 5.011 C 19.971 4.722,19.392 4.961,19.276 5.476 C 19.224 5.711,19.280 5.889,19.527 6.265 C 20.199 7.290,20.610 8.579,20.616 9.680 C 20.618 10.166,20.609 10.241,20.524 10.432 C 20.406 10.693,20.145 10.930,19.854 11.039 C 19.363 11.223,19.091 11.240,16.721 11.240 C 14.632 11.240,14.473 11.235,14.183 11.161 C 13.446 10.972,13.106 10.617,12.868 9.785 C 12.791 9.517,12.785 9.369,12.771 7.292 C 12.758 5.429,12.765 5.028,12.817 4.725 C 12.981 3.776,13.320 3.423,14.118 3.372 C 14.540 3.344,14.950 3.399,15.710 3.583 C 16.225 3.708,16.298 3.717,16.466 3.674 C 17.015 3.536,17.203 2.843,16.800 2.440 C 16.678 2.318,16.588 2.276,16.257 2.187 C 15.159 1.892,14.272 1.813,13.545 1.944 M8.600 3.400 C 6.819 3.882,5.256 4.800,4.012 6.095 C 2.394 7.778,1.468 9.860,1.279 12.240 C 1.222 12.967,1.285 14.152,1.406 14.619 C 1.562 15.215,2.408 15.365,2.724 14.853 C 2.861 14.631,2.875 14.514,2.818 14.035 C 2.747 13.440,2.747 12.369,2.818 11.835 C 3.069 9.948,3.954 8.209,5.330 6.897 C 6.419 5.859,7.595 5.209,9.089 4.820 C 9.662 4.670,9.797 4.593,9.917 4.347 C 10.168 3.828,9.812 3.275,9.232 3.283 C 9.115 3.285,8.831 3.337,8.600 3.400 M19.700 14.026 C 19.404 14.183,19.328 14.306,19.201 14.840 C 18.382 18.272,15.453 20.834,11.927 21.203 C 11.369 21.261,10.334 21.231,9.761 21.140 C 7.775 20.825,6.083 19.869,4.703 18.280 C 4.437 17.974,4.273 17.880,3.998 17.880 C 3.567 17.880,3.266 18.186,3.264 18.627 C 3.263 18.803,3.286 18.868,3.418 19.059 C 3.756 19.550,4.641 20.397,5.340 20.899 C 7.047 22.124,8.935 22.720,11.114 22.720 C 12.242 22.720,13.118 22.582,14.160 22.241 C 17.357 21.194,19.781 18.594,20.624 15.308 C 20.790 14.661,20.762 14.406,20.494 14.153 C 20.284 13.955,19.940 13.900,19.700 14.026 " stroke="none" fill-rule="evenodd" fill="black"></path></svg>