<svg width="24" height="24" viewBox="0 0 24 24" fill="none" xmlns="http://www.w3.org/2000/svg"><path d="M8.815 1.278 C 8.331 1.393,8.098 2.004,8.383 2.408 C 8.610 2.729,8.656 2.738,10.030 2.753 L 11.240 2.765 11.240 7.003 L 11.240 11.240 6.997 11.240 L 2.753 11.240 2.771 9.430 C 2.790 7.528,2.811 7.257,3.005 6.428 C 3.249 5.379,3.601 4.717,4.263 4.057 C 4.565 3.755,4.635 3.662,4.674 3.507 C 4.848 2.815,4.067 2.312,3.489 2.743 C 3.219 2.944,2.782 3.420,2.534 3.783 C 1.762 4.912,1.382 6.245,1.280 8.185 C 1.229 9.159,1.230 14.923,1.281 15.849 C 1.347 17.038,1.477 17.801,1.760 18.650 C 2.532 20.963,4.206 22.226,7.027 22.622 C 7.786 22.728,8.902 22.759,12.000 22.759 C 15.098 22.759,16.214 22.728,16.973 22.622 C 19.443 22.275,20.996 21.288,21.897 19.490 C 22.379 18.530,22.638 17.369,22.720 15.807 C 22.771 14.838,22.771 9.162,22.720 8.193 C 22.657 6.998,22.521 6.191,22.242 5.356 C 21.632 3.531,20.469 2.367,18.650 1.760 C 17.788 1.473,17.023 1.344,15.806 1.280 C 14.947 1.235,9.003 1.233,8.815 1.278 M16.800 2.856 C 19.556 3.299,20.701 4.444,21.144 7.200 C 21.197 7.533,21.215 7.993,21.229 9.430 L 21.248 11.240 17.004 11.240 L 12.760 11.240 12.760 6.996 L 12.760 2.752 14.570 2.771 C 16.007 2.785,16.467 2.803,16.800 2.856 M11.240 17.004 L 11.240 21.248 9.430 21.229 C 7.467 21.210,7.236 21.190,6.312 20.960 C 4.229 20.442,3.248 19.261,2.856 16.800 C 2.803 16.468,2.785 15.999,2.771 14.570 L 2.752 12.760 6.996 12.760 L 11.240 12.760 11.240 17.004 M21.229 14.570 C 21.210 16.533,21.190 16.764,20.960 17.688 C 20.504 19.519,19.519 20.504,17.688 20.960 C 16.764 21.190,16.533 21.210,14.570 21.229 L 12.760 21.248 12.760 17.004 L 12.760 12.760 17.004 12.760 L 21.248 12.760 21.229 14.570 " stroke="none" fill-rule="evenodd" fill="black"></path></svg>