<svg width="24" height="24" viewBox="0 0 24 24" fill="none" xmlns="http://www.w3.org/2000/svg"><path d="M7.940 1.284 C 4.914 1.508,3.114 2.500,2.105 4.501 C 1.630 5.444,1.366 6.611,1.281 8.151 C 1.230 9.071,1.230 14.929,1.281 15.849 C 1.347 17.038,1.477 17.801,1.760 18.650 C 2.711 21.501,5.010 22.759,9.268 22.760 C 9.646 22.760,10.049 22.740,10.162 22.716 C 10.723 22.596,10.929 21.889,10.522 21.482 C 10.335 21.295,10.129 21.240,9.622 21.240 L 9.239 21.240 9.250 18.750 L 9.260 16.260 10.760 16.240 C 11.795 16.226,12.285 16.206,12.340 16.173 C 12.446 16.112,12.618 15.925,12.681 15.802 C 12.746 15.676,12.746 15.324,12.681 15.198 C 12.618 15.075,12.446 14.888,12.340 14.827 C 12.285 14.794,11.795 14.774,10.760 14.760 L 9.260 14.740 9.260 12.000 L 9.260 9.260 12.010 9.250 L 14.760 9.239 14.760 10.681 C 14.760 12.201,14.770 12.292,14.952 12.493 C 15.131 12.691,15.522 12.778,15.787 12.677 C 15.911 12.631,16.101 12.465,16.173 12.340 C 16.206 12.285,16.226 11.795,16.240 10.760 L 16.260 9.260 18.747 9.250 L 21.234 9.239 21.247 10.230 C 21.260 11.185,21.263 11.225,21.353 11.369 C 21.710 11.943,22.576 11.812,22.716 11.162 C 22.813 10.709,22.763 8.185,22.637 7.140 C 22.292 4.302,20.986 2.539,18.650 1.760 C 17.855 1.496,17.123 1.364,15.980 1.281 C 15.320 1.233,8.594 1.235,7.940 1.284 M14.760 5.260 L 14.760 7.761 12.010 7.750 L 9.260 7.740 9.250 5.250 L 9.239 2.760 12.000 2.760 L 14.760 2.760 14.760 5.260 M7.760 5.280 L 7.760 7.760 6.313 7.760 C 4.919 7.760,4.859 7.763,4.690 7.845 C 4.430 7.971,4.300 8.189,4.300 8.500 C 4.300 8.811,4.430 9.029,4.690 9.155 C 4.859 9.237,4.919 9.240,6.313 9.240 L 7.760 9.240 7.760 12.000 L 7.760 14.760 5.258 14.760 L 2.756 14.760 2.770 11.190 C 2.783 8.048,2.793 7.570,2.854 7.200 C 3.214 5.005,3.982 3.896,5.580 3.268 C 6.113 3.059,7.173 2.821,7.650 2.804 L 7.760 2.800 7.760 5.280 M16.795 2.862 C 19.217 3.214,20.441 4.229,20.960 6.312 C 21.063 6.726,21.200 7.516,21.200 7.695 C 21.200 7.755,20.990 7.760,18.730 7.750 L 16.260 7.740 16.250 5.270 C 16.240 3.010,16.245 2.800,16.305 2.800 C 16.340 2.800,16.561 2.828,16.795 2.862 M19.694 13.282 C 19.580 13.302,19.393 13.355,19.278 13.401 C 18.768 13.602,18.573 13.775,16.248 16.094 C 14.959 17.379,13.929 18.439,13.840 18.571 C 13.593 18.938,13.526 19.179,13.370 20.254 C 13.211 21.352,13.215 21.557,13.400 21.941 C 13.514 22.176,13.798 22.457,14.050 22.585 C 14.387 22.756,14.647 22.775,15.336 22.680 C 16.958 22.456,17.166 22.391,17.693 21.937 C 17.851 21.801,18.908 20.756,20.042 19.615 C 22.093 17.551,22.361 17.252,22.546 16.814 C 22.839 16.120,22.761 15.383,22.323 14.716 C 22.083 14.350,21.510 13.796,21.157 13.589 C 20.702 13.321,20.140 13.204,19.694 13.282 M20.336 14.842 C 20.432 14.887,20.639 15.057,20.796 15.218 C 21.083 15.514,21.238 15.774,21.239 15.962 C 21.241 16.139,21.052 16.451,20.780 16.720 L 20.518 16.980 20.304 16.868 C 19.842 16.626,19.339 16.112,19.097 15.634 L 19.002 15.447 19.281 15.185 C 19.736 14.755,19.981 14.676,20.336 14.842 M7.760 18.720 C 7.760 20.980,7.754 21.200,7.695 21.200 C 7.516 21.200,6.726 21.063,6.312 20.960 C 4.143 20.420,3.128 19.116,2.818 16.470 L 2.791 16.240 5.275 16.240 L 7.760 16.240 7.760 18.720 M18.438 17.284 C 18.573 17.435,18.845 17.679,19.043 17.827 L 19.404 18.096 17.972 19.528 C 17.043 20.457,16.498 20.974,16.420 20.998 C 16.301 21.036,14.934 21.240,14.802 21.240 C 14.739 21.240,14.742 21.183,14.842 20.489 C 14.901 20.075,14.963 19.675,14.979 19.599 C 15.003 19.485,15.272 19.195,16.452 18.011 L 17.896 16.563 18.044 16.787 C 18.126 16.910,18.303 17.134,18.438 17.284 " stroke="none" fill-rule="evenodd" fill="black"></path></svg>