<svg width="24" height="24" viewBox="0 0 24 24" fill="none" xmlns="http://www.w3.org/2000/svg"><path d="M7.940 1.284 C 4.914 1.508,3.114 2.500,2.105 4.501 C 1.630 5.444,1.366 6.611,1.281 8.151 C 1.230 9.071,1.230 14.929,1.281 15.849 C 1.347 17.038,1.477 17.801,1.760 18.650 C 2.711 21.501,5.010 22.759,9.268 22.760 C 9.646 22.760,10.049 22.740,10.162 22.716 C 10.723 22.596,10.929 21.889,10.522 21.482 C 10.335 21.295,10.129 21.240,9.622 21.240 L 9.239 21.240 9.250 18.750 L 9.260 16.260 10.760 16.240 C 11.795 16.226,12.285 16.206,12.340 16.173 C 12.446 16.112,12.618 15.925,12.681 15.802 C 12.746 15.676,12.746 15.324,12.681 15.198 C 12.618 15.075,12.446 14.888,12.340 14.827 C 12.285 14.794,11.795 14.774,10.760 14.760 L 9.260 14.740 9.260 12.000 L 9.260 9.260 12.010 9.250 L 14.760 9.239 14.760 10.681 C 14.760 12.201,14.770 12.292,14.952 12.493 C 15.131 12.691,15.522 12.778,15.787 12.677 C 15.911 12.631,16.101 12.465,16.173 12.340 C 16.206 12.285,16.226 11.795,16.240 10.760 L 16.260 9.260 18.747 9.250 L 21.234 9.239 21.247 10.230 C 21.260 11.185,21.263 11.225,21.353 11.369 C 21.710 11.943,22.576 11.812,22.716 11.162 C 22.813 10.709,22.763 8.185,22.637 7.140 C 22.292 4.302,20.986 2.539,18.650 1.760 C 17.855 1.496,17.123 1.364,15.980 1.281 C 15.320 1.233,8.594 1.235,7.940 1.284 M14.760 5.260 L 14.760 7.761 12.010 7.750 L 9.260 7.740 9.250 5.250 L 9.239 2.760 12.000 2.760 L 14.760 2.760 14.760 5.260 M7.760 5.280 L 7.760 7.760 6.313 7.760 C 4.919 7.760,4.859 7.763,4.690 7.845 C 4.430 7.971,4.300 8.189,4.300 8.500 C 4.300 8.811,4.430 9.029,4.690 9.155 C 4.859 9.237,4.919 9.240,6.313 9.240 L 7.760 9.240 7.760 12.000 L 7.760 14.760 5.258 14.760 L 2.756 14.760 2.770 11.190 C 2.783 8.048,2.793 7.570,2.854 7.200 C 3.214 5.005,3.982 3.896,5.580 3.268 C 6.113 3.059,7.173 2.821,7.650 2.804 L 7.760 2.800 7.760 5.280 M16.795 2.862 C 19.217 3.214,20.441 4.229,20.960 6.312 C 21.063 6.726,21.200 7.516,21.200 7.695 C 21.200 7.755,20.990 7.760,18.730 7.750 L 16.260 7.740 16.250 5.270 C 16.240 3.010,16.245 2.800,16.305 2.800 C 16.340 2.800,16.561 2.828,16.795 2.862 M18.720 12.282 C 18.551 12.305,18.348 12.373,18.140 12.476 C 17.829 12.631,17.750 12.706,15.217 15.248 C 12.847 17.626,12.603 17.883,12.490 18.120 C 12.173 18.786,12.223 19.620,12.615 20.210 C 12.692 20.325,13.202 20.863,13.748 21.404 C 14.571 22.220,14.783 22.409,14.991 22.511 C 15.332 22.679,15.621 22.732,16.077 22.711 C 16.499 22.691,16.773 22.606,17.104 22.393 C 17.389 22.209,22.322 17.266,22.456 17.030 C 22.814 16.398,22.835 15.653,22.514 15.000 C 22.356 14.678,22.292 14.606,21.343 13.656 C 20.644 12.955,20.273 12.614,20.120 12.529 C 19.716 12.305,19.213 12.216,18.720 12.282 M19.352 13.817 C 19.512 13.901,21.149 15.565,21.198 15.694 C 21.257 15.851,21.250 16.105,21.183 16.232 C 21.151 16.291,20.606 16.857,19.972 17.490 L 18.819 18.640 17.600 17.420 L 16.381 16.200 17.560 15.017 C 18.209 14.366,18.776 13.818,18.820 13.799 C 18.946 13.745,19.234 13.755,19.352 13.817 M7.760 18.720 C 7.760 20.980,7.754 21.200,7.695 21.200 C 7.516 21.200,6.726 21.063,6.312 20.960 C 4.143 20.420,3.128 19.116,2.818 16.470 L 2.791 16.240 5.275 16.240 L 7.760 16.240 7.760 18.720 M17.010 20.412 C 16.619 20.805,16.251 21.151,16.192 21.183 C 16.055 21.255,15.874 21.256,15.709 21.184 C 15.638 21.154,15.181 20.726,14.694 20.234 C 13.471 19.000,13.478 19.110,14.552 18.029 L 15.298 17.279 16.509 18.489 L 17.720 19.699 17.010 20.412 " stroke="none" fill-rule="evenodd" fill="black"></path></svg>