<svg width="24" height="24" viewBox="0 0 24 24" fill="none" xmlns="http://www.w3.org/2000/svg"><path d="M8.039 1.284 C 7.379 1.320,6.552 1.433,6.005 1.561 C 5.511 1.677,5.303 1.854,5.222 2.227 C 5.161 2.511,5.381 2.901,5.671 3.022 C 5.856 3.099,6.009 3.095,6.407 3.002 C 7.226 2.810,7.495 2.790,9.410 2.771 L 11.240 2.753 11.240 12.000 L 11.240 21.248 9.430 21.229 C 7.993 21.215,7.533 21.197,7.200 21.144 C 4.443 20.701,3.309 19.568,2.854 16.800 C 2.792 16.426,2.783 15.932,2.770 12.280 C 2.758 8.770,2.765 8.094,2.818 7.580 C 2.889 6.901,2.984 6.416,3.143 5.920 C 3.277 5.505,3.283 5.277,3.167 5.052 C 2.920 4.573,2.172 4.548,1.905 5.010 C 1.598 5.542,1.351 6.812,1.280 8.218 C 1.229 9.214,1.230 14.936,1.281 15.849 C 1.347 17.038,1.477 17.801,1.760 18.650 C 2.532 20.963,4.206 22.226,7.027 22.622 C 7.786 22.728,8.902 22.759,12.000 22.759 C 15.098 22.759,16.214 22.728,16.973 22.622 C 19.443 22.275,20.996 21.288,21.897 19.490 C 22.379 18.530,22.638 17.369,22.720 15.807 C 22.771 14.838,22.771 9.162,22.720 8.193 C 22.657 6.998,22.521 6.191,22.242 5.356 C 21.632 3.531,20.469 2.367,18.650 1.760 C 17.788 1.473,17.023 1.344,15.806 1.280 C 14.935 1.234,8.891 1.237,8.039 1.284 M16.800 2.856 C 19.569 3.301,20.714 4.455,21.148 7.240 C 21.214 7.661,21.220 8.064,21.220 12.000 C 21.220 16.745,21.226 16.622,20.960 17.688 C 20.504 19.520,19.519 20.504,17.688 20.960 C 16.764 21.190,16.533 21.210,14.570 21.229 L 12.760 21.248 12.760 12.000 L 12.760 2.752 14.570 2.771 C 16.007 2.785,16.467 2.803,16.800 2.856 " stroke="none" fill-rule="evenodd" fill="black"></path></svg>