<svg width="24" height="24" viewBox="0 0 24 24" fill="none" xmlns="http://www.w3.org/2000/svg"><path d="M7.940 1.284 C 4.914 1.508,3.114 2.500,2.105 4.501 C 1.630 5.444,1.366 6.611,1.281 8.151 C 1.230 9.071,1.230 14.929,1.281 15.849 C 1.347 17.038,1.477 17.801,1.760 18.650 C 2.711 21.501,5.010 22.759,9.268 22.760 C 9.646 22.760,10.049 22.740,10.162 22.716 C 10.723 22.596,10.929 21.889,10.522 21.482 C 10.335 21.295,10.129 21.240,9.622 21.240 L 9.239 21.240 9.250 18.750 L 9.260 16.260 10.760 16.240 C 11.795 16.226,12.285 16.206,12.340 16.173 C 12.446 16.112,12.618 15.925,12.681 15.802 C 12.746 15.676,12.746 15.324,12.681 15.198 C 12.618 15.075,12.446 14.888,12.340 14.827 C 12.285 14.794,11.795 14.774,10.760 14.760 L 9.260 14.740 9.260 12.000 L 9.260 9.260 12.010 9.250 L 14.760 9.239 14.760 10.681 C 14.760 12.201,14.770 12.292,14.952 12.493 C 15.131 12.691,15.522 12.778,15.787 12.677 C 15.911 12.631,16.101 12.465,16.173 12.340 C 16.206 12.285,16.226 11.795,16.240 10.760 L 16.260 9.260 18.747 9.250 L 21.234 9.239 21.247 10.230 C 21.260 11.185,21.263 11.225,21.353 11.369 C 21.710 11.943,22.576 11.812,22.716 11.162 C 22.813 10.709,22.763 8.185,22.637 7.140 C 22.292 4.302,20.986 2.539,18.650 1.760 C 17.855 1.496,17.123 1.364,15.980 1.281 C 15.320 1.233,8.594 1.235,7.940 1.284 M14.760 5.260 L 14.760 7.761 12.010 7.750 L 9.260 7.740 9.250 5.250 L 9.239 2.760 12.000 2.760 L 14.760 2.760 14.760 5.260 M7.760 5.280 L 7.760 7.760 6.313 7.760 C 4.919 7.760,4.859 7.763,4.690 7.845 C 4.430 7.971,4.300 8.189,4.300 8.500 C 4.300 8.811,4.430 9.029,4.690 9.155 C 4.859 9.237,4.919 9.240,6.313 9.240 L 7.760 9.240 7.760 12.000 L 7.760 14.760 5.258 14.760 L 2.756 14.760 2.770 11.190 C 2.783 8.048,2.793 7.570,2.854 7.200 C 3.214 5.005,3.982 3.896,5.580 3.268 C 6.113 3.059,7.173 2.821,7.650 2.804 L 7.760 2.800 7.760 5.280 M16.795 2.862 C 19.217 3.214,20.441 4.229,20.960 6.312 C 21.063 6.726,21.200 7.516,21.200 7.695 C 21.200 7.755,20.990 7.760,18.730 7.750 L 16.260 7.740 16.250 5.270 C 16.240 3.010,16.245 2.800,16.305 2.800 C 16.340 2.800,16.561 2.828,16.795 2.862 M17.500 13.283 C 16.729 13.355,16.142 13.592,15.692 14.014 C 15.168 14.504,14.931 15.117,14.859 16.168 L 14.833 16.556 14.686 16.604 C 14.150 16.777,13.758 17.108,13.538 17.571 C 13.305 18.061,13.267 18.349,13.267 19.600 C 13.267 20.851,13.305 21.139,13.538 21.629 C 13.718 22.008,13.992 22.282,14.371 22.462 C 14.945 22.735,14.986 22.738,18.000 22.738 C 21.014 22.738,21.055 22.735,21.629 22.462 C 22.174 22.204,22.521 21.720,22.667 21.019 C 22.762 20.559,22.762 18.641,22.667 18.181 C 22.497 17.365,22.049 16.842,21.313 16.604 L 21.167 16.556 21.143 16.208 C 21.066 15.099,20.831 14.497,20.277 13.984 C 19.688 13.438,18.648 13.176,17.500 13.283 M18.874 14.857 C 19.348 15.009,19.589 15.394,19.629 16.070 L 19.652 16.440 18.000 16.440 L 16.349 16.440 16.370 16.070 C 16.397 15.588,16.504 15.302,16.738 15.086 C 16.899 14.938,17.017 14.886,17.420 14.785 C 17.610 14.738,18.663 14.790,18.874 14.857 M7.760 18.720 C 7.760 20.980,7.754 21.200,7.695 21.200 C 7.516 21.200,6.726 21.063,6.312 20.960 C 4.143 20.420,3.128 19.116,2.818 16.470 L 2.791 16.240 5.275 16.240 L 7.760 16.240 7.760 18.720 M20.931 18.049 C 21.206 18.173,21.220 18.249,21.220 19.600 C 21.220 20.951,21.206 21.027,20.931 21.151 C 20.793 21.214,20.540 21.220,18.000 21.220 C 15.460 21.220,15.207 21.214,15.069 21.151 C 14.803 21.031,14.783 20.935,14.768 19.731 C 14.754 18.638,14.783 18.319,14.914 18.157 C 15.065 17.971,15.197 17.964,18.080 17.972 C 20.534 17.979,20.794 17.986,20.931 18.049 " stroke="none" fill-rule="evenodd" fill="black"></path></svg>