<svg width="24" height="24" viewBox="0 0 24 24" fill="none" xmlns="http://www.w3.org/2000/svg"><path d="M7.640 1.305 C 6.435 1.432,5.698 1.591,5.495 1.770 C 5.151 2.072,5.121 2.504,5.421 2.835 C 5.666 3.107,5.844 3.126,6.600 2.963 C 6.809 2.917,7.101 2.869,7.250 2.854 L 7.520 2.829 7.520 7.034 L 7.520 11.240 5.140 11.240 L 2.760 11.240 2.760 9.670 C 2.761 7.626,2.829 6.943,3.128 5.980 C 3.276 5.502,3.286 5.281,3.167 5.052 C 2.920 4.573,2.172 4.548,1.905 5.010 C 1.598 5.542,1.351 6.812,1.280 8.218 C 1.229 9.214,1.230 14.936,1.281 15.849 C 1.347 17.038,1.477 17.801,1.760 18.650 C 2.532 20.963,4.206 22.226,7.027 22.622 C 7.807 22.731,8.931 22.760,12.320 22.759 C 15.819 22.757,16.258 22.741,17.280 22.576 C 20.464 22.062,22.157 20.285,22.622 16.973 C 22.728 16.214,22.759 15.098,22.759 12.000 C 22.759 8.902,22.728 7.786,22.622 7.027 C 22.359 5.157,21.686 3.741,20.641 2.857 C 19.478 1.875,18.014 1.397,15.806 1.279 C 14.682 1.220,8.264 1.240,7.640 1.305 M15.000 7.000 L 15.000 11.240 12.000 11.240 L 9.000 11.240 9.000 7.000 L 9.000 2.760 12.000 2.760 L 15.000 2.760 15.000 7.000 M17.369 2.964 C 19.404 3.385,20.482 4.391,20.960 6.312 C 21.190 7.236,21.210 7.467,21.229 9.430 L 21.248 11.240 18.864 11.240 L 16.480 11.240 16.480 7.034 L 16.480 2.829 16.719 2.854 C 16.850 2.867,17.142 2.917,17.369 2.964 M7.520 15.486 L 7.520 18.213 7.616 18.377 C 7.856 18.787,8.466 18.858,8.788 18.513 C 9.004 18.282,9.000 18.337,9.000 15.441 L 9.000 12.760 12.000 12.760 L 15.000 12.760 15.000 17.002 L 15.000 21.244 11.310 21.230 C 7.263 21.214,7.352 21.219,6.312 20.960 C 4.229 20.442,3.248 19.261,2.856 16.800 C 2.803 16.468,2.785 15.999,2.771 14.570 L 2.752 12.760 5.136 12.760 L 7.520 12.760 7.520 15.486 M21.229 14.570 C 21.210 16.533,21.190 16.764,20.960 17.688 C 20.482 19.609,19.404 20.615,17.369 21.036 C 17.142 21.083,16.850 21.133,16.719 21.146 L 16.480 21.171 16.480 16.966 L 16.480 12.760 18.864 12.760 L 21.248 12.760 21.229 14.570 " stroke="none" fill-rule="evenodd" fill="black"></path></svg>