<svg width="24" height="24" viewBox="0 0 24 24" fill="none" xmlns="http://www.w3.org/2000/svg"><path d="M7.940 1.284 C 6.894 1.361,6.118 1.505,5.341 1.764 C 3.071 2.520,1.797 4.178,1.398 6.892 C 1.298 7.572,1.224 8.931,1.274 9.155 C 1.352 9.501,1.640 9.729,2.000 9.729 C 2.255 9.729,2.468 9.620,2.614 9.413 L 2.735 9.240 5.248 9.240 L 7.760 9.240 7.760 12.000 L 7.760 14.760 5.263 14.760 L 2.766 14.760 2.753 13.770 C 2.739 12.693,2.732 12.658,2.494 12.433 C 2.217 12.171,1.783 12.171,1.506 12.433 C 1.266 12.660,1.261 12.686,1.247 13.840 C 1.231 15.094,1.290 16.375,1.398 17.107 C 1.848 20.168,3.448 21.924,6.311 22.499 C 7.473 22.732,8.078 22.760,12.000 22.760 C 15.237 22.760,16.014 22.740,16.860 22.637 C 18.724 22.409,20.228 21.711,21.129 20.656 C 22.085 19.535,22.551 18.167,22.720 15.984 C 22.772 15.310,22.772 8.690,22.720 8.016 C 22.632 6.874,22.495 6.114,22.244 5.362 C 21.632 3.530,20.471 2.368,18.650 1.760 C 17.788 1.473,17.023 1.344,15.806 1.280 C 14.924 1.234,8.576 1.237,7.940 1.284 M16.800 2.854 C 19.282 3.264,20.441 4.228,20.960 6.312 C 21.063 6.726,21.200 7.516,21.200 7.695 C 21.200 7.755,20.990 7.760,18.730 7.750 L 16.260 7.740 16.240 6.740 C 16.221 5.798,16.215 5.732,16.132 5.598 C 15.891 5.211,15.284 5.152,14.972 5.487 C 14.779 5.693,14.760 5.813,14.760 6.819 L 14.760 7.761 12.010 7.750 L 9.260 7.740 9.250 5.248 L 9.239 2.756 12.810 2.770 C 15.964 2.783,16.429 2.793,16.800 2.854 M7.760 5.280 L 7.760 7.760 5.275 7.760 L 2.791 7.760 2.818 7.530 C 3.129 4.869,4.158 3.561,6.360 3.024 C 6.770 2.925,7.429 2.812,7.650 2.804 L 7.760 2.800 7.760 5.280 M14.760 12.000 L 14.760 14.761 12.010 14.750 L 9.260 14.740 9.250 12.040 C 9.244 10.555,9.248 9.318,9.258 9.290 C 9.273 9.251,9.863 9.240,12.019 9.240 L 14.760 9.240 14.760 12.000 M21.240 12.000 L 21.240 14.761 18.750 14.750 L 16.260 14.740 16.250 12.040 C 16.244 10.555,16.248 9.318,16.258 9.290 C 16.273 9.251,16.811 9.240,18.759 9.240 L 21.240 9.240 21.240 12.000 M7.760 18.720 C 7.760 20.980,7.754 21.200,7.695 21.200 C 7.516 21.200,6.726 21.063,6.312 20.960 C 4.143 20.420,3.128 19.116,2.818 16.470 L 2.791 16.240 5.275 16.240 L 7.760 16.240 7.760 18.720 M14.760 18.740 L 14.760 21.240 12.000 21.240 L 9.240 21.240 9.240 18.767 C 9.240 17.406,9.252 16.281,9.267 16.267 C 9.281 16.252,10.523 16.240,12.027 16.240 L 14.760 16.240 14.760 18.740 M21.200 16.305 C 21.200 16.484,21.063 17.274,20.960 17.688 C 20.504 19.519,19.519 20.504,17.688 20.960 C 17.274 21.063,16.484 21.200,16.305 21.200 C 16.246 21.200,16.240 20.983,16.240 18.747 C 16.240 17.397,16.252 16.281,16.267 16.267 C 16.281 16.252,17.397 16.240,18.747 16.240 C 20.983 16.240,21.200 16.246,21.200 16.305 " stroke="none" fill-rule="evenodd" fill="black"></path></svg>