<svg width="24" height="24" viewBox="0 0 24 24" fill="none" xmlns="http://www.w3.org/2000/svg"><path d="M8.080 1.282 C 4.042 1.493,1.931 3.265,1.398 6.891 C 1.310 7.494,1.225 8.895,1.264 9.113 C 1.278 9.194,1.325 9.318,1.368 9.389 C 1.658 9.870,2.422 9.836,2.661 9.332 C 2.718 9.212,2.740 9.022,2.765 8.423 C 2.900 5.187,3.905 3.654,6.288 3.044 C 7.337 2.776,7.247 2.780,12.000 2.780 C 16.745 2.780,16.622 2.774,17.688 3.040 C 19.520 3.496,20.504 4.481,20.960 6.312 C 21.206 7.301,21.211 7.370,21.236 10.420 L 21.260 13.220 21.353 13.369 C 21.710 13.943,22.576 13.812,22.716 13.162 C 22.772 12.900,22.775 9.241,22.720 8.193 C 22.657 6.998,22.521 6.191,22.242 5.356 C 21.632 3.531,20.469 2.367,18.650 1.760 C 17.788 1.473,17.023 1.344,15.806 1.280 C 14.952 1.235,8.952 1.237,8.080 1.282 M9.607 5.606 C 9.267 5.774,9.251 5.826,9.079 7.328 C 8.995 8.061,8.925 8.664,8.923 8.668 C 8.921 8.673,8.319 8.682,7.584 8.688 L 6.247 8.700 6.094 8.823 C 5.893 8.983,5.800 9.172,5.800 9.420 C 5.800 9.668,5.893 9.857,6.094 10.017 L 6.247 10.140 7.504 10.152 L 8.760 10.163 8.757 10.252 C 8.755 10.300,8.714 10.673,8.667 11.080 L 8.580 11.820 7.160 11.840 C 6.186 11.854,5.715 11.875,5.660 11.907 C 5.554 11.968,5.382 12.155,5.319 12.278 C 5.249 12.413,5.256 12.757,5.331 12.901 C 5.412 13.056,5.591 13.224,5.733 13.277 C 5.804 13.304,6.317 13.320,7.123 13.320 C 8.324 13.320,8.400 13.324,8.400 13.392 C 8.400 13.431,8.346 13.949,8.280 14.542 C 8.214 15.135,8.160 15.682,8.160 15.757 C 8.160 15.966,8.307 16.230,8.492 16.353 C 8.723 16.506,9.077 16.506,9.308 16.353 C 9.582 16.171,9.618 16.044,9.757 14.760 C 9.825 14.133,9.891 13.553,9.904 13.470 L 9.927 13.320 10.744 13.320 C 11.370 13.320,11.560 13.332,11.561 13.370 C 11.561 13.398,11.504 13.955,11.434 14.609 C 11.291 15.947,11.295 16.012,11.541 16.259 C 11.889 16.606,12.506 16.508,12.712 16.073 C 12.775 15.940,12.822 15.636,12.917 14.760 C 12.985 14.133,13.051 13.553,13.064 13.470 L 13.087 13.320 14.365 13.320 C 15.543 13.320,15.655 13.314,15.792 13.244 C 16.074 13.099,16.200 12.894,16.200 12.580 C 16.200 12.266,16.074 12.061,15.792 11.916 C 15.655 11.846,15.544 11.840,14.438 11.840 L 13.233 11.840 13.256 11.690 C 13.268 11.607,13.307 11.270,13.341 10.940 C 13.375 10.610,13.412 10.300,13.423 10.250 L 13.442 10.160 14.798 10.160 C 15.659 10.160,16.196 10.144,16.267 10.117 C 16.540 10.015,16.731 9.727,16.731 9.420 C 16.731 9.113,16.540 8.825,16.267 8.723 C 16.196 8.696,15.683 8.680,14.877 8.680 C 14.139 8.680,13.600 8.665,13.600 8.644 C 13.600 8.624,13.656 8.115,13.723 7.514 C 13.867 6.242,13.864 6.032,13.702 5.820 C 13.399 5.422,12.764 5.434,12.493 5.843 C 12.400 5.984,12.379 6.105,12.239 7.328 C 12.155 8.061,12.085 8.665,12.083 8.670 C 12.074 8.700,10.440 8.674,10.440 8.644 C 10.440 8.624,10.496 8.115,10.563 7.514 C 10.707 6.242,10.704 6.032,10.542 5.820 C 10.325 5.535,9.932 5.445,9.607 5.606 M11.917 10.250 C 11.915 10.300,11.874 10.673,11.827 11.080 L 11.740 11.820 10.906 11.831 L 10.073 11.842 10.096 11.691 C 10.108 11.608,10.147 11.270,10.181 10.940 C 10.215 10.610,10.252 10.300,10.263 10.250 C 10.281 10.160,10.283 10.160,11.101 10.160 L 11.920 10.160 11.917 10.250 M1.720 12.264 C 1.550 12.338,1.414 12.460,1.326 12.620 C 1.180 12.885,1.229 15.959,1.398 17.107 C 1.798 19.826,3.072 21.478,5.356 22.242 C 6.191 22.521,6.998 22.657,8.193 22.720 C 9.248 22.775,13.899 22.772,14.162 22.716 C 14.828 22.573,14.943 21.639,14.332 21.336 C 14.188 21.264,14.010 21.259,10.900 21.237 C 7.317 21.212,7.327 21.212,6.312 20.960 C 4.489 20.506,3.509 19.532,3.044 17.712 C 2.819 16.830,2.790 16.498,2.764 14.540 C 2.743 12.971,2.731 12.725,2.674 12.620 C 2.480 12.268,2.066 12.114,1.720 12.264 M18.815 15.277 C 18.638 15.321,18.461 15.456,18.353 15.631 L 18.260 15.780 18.248 17.976 L 18.237 20.172 17.828 19.772 C 17.604 19.552,17.375 19.348,17.320 19.319 C 17.265 19.290,17.118 19.267,16.992 19.267 C 16.721 19.267,16.503 19.389,16.358 19.623 C 16.253 19.793,16.232 20.154,16.318 20.320 C 16.413 20.504,18.529 22.604,18.700 22.684 C 18.903 22.778,19.097 22.778,19.300 22.684 C 19.404 22.635,19.845 22.221,20.565 21.495 C 21.607 20.445,21.673 20.369,21.711 20.189 C 21.817 19.682,21.499 19.267,21.004 19.267 C 20.881 19.267,20.735 19.290,20.680 19.319 C 20.625 19.348,20.395 19.552,20.170 19.773 L 19.760 20.175 19.759 18.098 C 19.758 16.815,19.742 15.951,19.717 15.841 C 19.623 15.432,19.215 15.177,18.815 15.277 " stroke="none" fill-rule="evenodd" fill="black"></path></svg>