<svg width="24" height="24" viewBox="0 0 24 24" fill="none" xmlns="http://www.w3.org/2000/svg"><path d="M8.080 1.282 C 4.042 1.493,1.931 3.265,1.398 6.891 C 1.310 7.494,1.225 8.895,1.264 9.113 C 1.278 9.194,1.325 9.318,1.368 9.389 C 1.658 9.870,2.422 9.836,2.661 9.332 C 2.718 9.212,2.740 9.022,2.765 8.423 C 2.900 5.187,3.905 3.654,6.288 3.044 C 7.337 2.776,7.247 2.780,12.000 2.780 C 15.936 2.780,16.339 2.786,16.760 2.852 C 19.558 3.288,20.712 4.442,21.148 7.240 C 21.214 7.661,21.220 8.064,21.220 12.000 C 21.220 15.936,21.214 16.339,21.148 16.760 C 20.712 19.558,19.558 20.712,16.760 21.148 C 16.339 21.214,15.936 21.220,12.000 21.220 C 8.064 21.220,7.661 21.214,7.240 21.148 C 4.756 20.761,3.576 19.795,3.044 17.712 C 2.820 16.833,2.790 16.496,2.764 14.560 C 2.737 12.615,2.744 12.670,2.494 12.433 C 2.217 12.171,1.783 12.171,1.506 12.433 C 1.266 12.660,1.261 12.686,1.247 13.840 C 1.224 15.669,1.334 17.076,1.575 18.027 C 2.267 20.757,3.971 22.193,7.027 22.622 C 7.786 22.728,8.902 22.759,12.000 22.759 C 15.098 22.759,16.214 22.728,16.973 22.622 C 19.443 22.275,20.996 21.288,21.897 19.490 C 22.379 18.530,22.638 17.369,22.720 15.807 C 22.771 14.838,22.771 9.162,22.720 8.193 C 22.657 6.998,22.521 6.191,22.242 5.356 C 21.632 3.531,20.469 2.367,18.650 1.760 C 17.788 1.473,17.023 1.344,15.806 1.280 C 14.952 1.235,8.952 1.237,8.080 1.282 M9.740 6.267 C 8.005 6.415,6.633 7.646,6.312 9.344 C 6.237 9.740,6.237 14.260,6.312 14.656 C 6.604 16.200,7.800 17.396,9.344 17.688 C 9.740 17.763,14.260 17.763,14.656 17.688 C 15.959 17.441,17.053 16.519,17.518 15.275 C 17.725 14.721,17.731 14.646,17.749 12.292 C 17.769 9.788,17.764 9.724,17.523 9.483 C 17.173 9.133,16.619 9.203,16.353 9.631 C 16.266 9.770,16.259 9.829,16.246 10.510 L 16.232 11.240 14.496 11.240 L 12.760 11.240 12.760 9.500 L 12.760 7.760 13.358 7.760 C 14.121 7.760,14.321 7.719,14.520 7.520 C 14.918 7.122,14.730 6.423,14.189 6.286 C 14.059 6.254,13.396 6.242,11.952 6.247 C 10.824 6.250,9.828 6.260,9.740 6.267 M11.240 9.500 L 11.240 11.240 9.500 11.240 L 7.760 11.240 7.760 10.456 C 7.760 9.579,7.799 9.347,8.013 8.940 C 8.170 8.642,8.627 8.179,8.920 8.022 C 9.330 7.802,9.538 7.766,10.430 7.763 L 11.240 7.760 11.240 9.500 M11.240 14.500 L 11.240 16.240 10.456 16.240 C 9.579 16.240,9.347 16.201,8.940 15.987 C 8.630 15.824,8.176 15.369,8.011 15.057 C 7.796 14.649,7.760 14.436,7.760 13.552 L 7.760 12.760 9.500 12.760 L 11.240 12.760 11.240 14.500 M16.240 13.544 C 16.240 14.678,16.124 15.036,15.580 15.580 C 15.036 16.124,14.678 16.240,13.544 16.240 L 12.760 16.240 12.760 14.500 L 12.760 12.760 14.500 12.760 L 16.240 12.760 16.240 13.544 " stroke="none" fill-rule="evenodd" fill="black"></path></svg>