<svg width="24" height="24" viewBox="0 0 24 24" fill="none" xmlns="http://www.w3.org/2000/svg"><path d="M3.805 1.881 C 3.059 1.985,2.329 2.381,1.749 2.997 C 1.280 3.494,1.226 3.769,1.249 5.560 C 1.266 6.949,1.275 7.005,1.558 7.450 C 1.824 7.870,2.778 8.468,3.460 8.643 C 3.871 8.749,4.542 8.759,4.940 8.664 C 5.323 8.573,5.897 8.282,6.168 8.040 L 6.393 7.840 7.076 7.840 L 7.760 7.840 7.760 9.598 L 7.760 11.356 7.470 11.507 C 6.937 11.786,6.517 12.301,6.334 12.900 C 6.266 13.121,6.260 13.323,6.260 15.500 C 6.260 17.677,6.266 17.879,6.334 18.100 C 6.517 18.699,6.937 19.214,7.470 19.493 L 7.760 19.644 7.760 20.900 C 7.760 21.689,7.776 22.197,7.803 22.267 C 7.905 22.540,8.193 22.731,8.500 22.731 C 8.807 22.731,9.095 22.540,9.197 22.267 C 9.224 22.197,9.240 21.689,9.240 20.900 L 9.240 19.644 9.530 19.493 C 10.063 19.214,10.483 18.699,10.666 18.100 C 10.734 17.879,10.740 17.677,10.740 15.500 C 10.740 13.323,10.734 13.121,10.666 12.900 C 10.483 12.301,10.063 11.786,9.530 11.507 L 9.240 11.356 9.240 9.520 L 9.240 7.685 9.490 7.554 C 9.857 7.362,10.387 6.821,10.571 6.450 C 10.953 5.678,10.922 4.721,10.491 4.009 C 10.181 3.496,9.636 3.057,9.080 2.871 C 8.841 2.792,8.721 2.783,7.620 2.769 L 6.420 2.754 6.240 2.605 C 5.525 2.013,4.672 1.759,3.805 1.881 M19.420 1.862 C 19.376 1.873,19.241 1.900,19.120 1.924 C 18.661 2.015,18.166 2.262,17.761 2.603 L 17.580 2.754 16.380 2.769 C 15.279 2.783,15.159 2.792,14.920 2.871 C 14.364 3.057,13.819 3.496,13.509 4.009 C 13.079 4.719,13.048 5.681,13.429 6.450 C 13.613 6.821,14.143 7.362,14.510 7.554 L 14.760 7.685 14.760 8.920 C 14.760 9.695,14.776 10.197,14.803 10.267 C 14.905 10.540,15.193 10.731,15.500 10.731 C 15.807 10.731,16.095 10.540,16.197 10.267 C 16.224 10.197,16.240 9.718,16.240 8.997 L 16.240 7.840 16.924 7.840 L 17.607 7.840 17.832 8.040 C 18.103 8.282,18.677 8.573,19.060 8.664 C 19.458 8.759,20.129 8.749,20.540 8.643 C 21.264 8.457,22.198 7.856,22.471 7.400 C 22.731 6.967,22.740 6.895,22.740 5.320 L 22.740 3.900 22.626 3.591 C 22.535 3.343,22.461 3.226,22.254 3.002 C 21.786 2.497,21.121 2.092,20.520 1.945 C 20.256 1.881,19.566 1.829,19.420 1.862 M4.784 3.446 C 5.180 3.592,5.497 3.921,5.666 4.362 C 5.722 4.507,5.735 4.680,5.735 5.300 C 5.736 5.999,5.729 6.079,5.645 6.291 C 5.523 6.598,5.185 6.962,4.887 7.107 C 4.683 7.207,4.617 7.218,4.240 7.218 C 3.735 7.218,3.514 7.144,3.071 6.827 L 2.780 6.618 2.769 5.361 L 2.759 4.104 2.929 3.930 C 3.448 3.401,4.159 3.216,4.784 3.446 M20.317 3.446 C 20.592 3.540,20.853 3.708,21.071 3.930 L 21.241 4.104 21.231 5.361 L 21.220 6.618 20.929 6.827 C 20.486 7.144,20.265 7.218,19.760 7.218 C 19.384 7.218,19.316 7.206,19.116 7.109 C 18.846 6.977,18.509 6.635,18.400 6.380 C 18.246 6.020,18.191 5.214,18.282 4.640 C 18.437 3.656,19.356 3.117,20.317 3.446 M8.745 4.350 C 9.135 4.555,9.338 4.880,9.338 5.300 C 9.338 5.618,9.256 5.816,9.033 6.036 C 8.756 6.309,8.653 6.338,7.900 6.353 L 7.220 6.366 7.220 5.299 L 7.220 4.232 7.900 4.247 C 8.504 4.261,8.598 4.272,8.745 4.350 M16.780 5.304 L 16.780 6.368 16.100 6.353 C 15.335 6.336,15.231 6.305,14.954 6.013 C 14.723 5.770,14.661 5.618,14.663 5.300 C 14.666 4.985,14.750 4.776,14.963 4.563 C 15.234 4.292,15.397 4.249,16.180 4.244 L 16.780 4.240 16.780 5.304 M15.420 12.260 C 15.398 12.267,15.331 12.284,15.271 12.297 C 15.124 12.329,14.881 12.548,14.814 12.708 C 14.770 12.814,14.760 13.674,14.760 17.496 C 14.760 20.690,14.773 22.190,14.803 22.267 C 14.905 22.540,15.193 22.731,15.500 22.731 C 15.807 22.731,16.095 22.540,16.197 22.267 C 16.227 22.190,16.240 20.692,16.240 17.500 C 16.240 14.308,16.227 12.810,16.197 12.733 C 16.146 12.597,15.977 12.412,15.840 12.342 C 15.732 12.287,15.485 12.238,15.420 12.260 M8.944 12.903 C 9.254 13.153,9.240 13.032,9.240 15.500 C 9.240 17.970,9.254 17.846,8.942 18.099 C 8.806 18.209,8.766 18.220,8.500 18.220 C 8.234 18.220,8.194 18.209,8.058 18.099 C 7.743 17.844,7.757 17.977,7.769 15.454 L 7.780 13.207 7.901 13.058 C 8.088 12.827,8.255 12.753,8.549 12.769 C 8.752 12.781,8.823 12.805,8.944 12.903 " stroke="none" fill-rule="evenodd" fill="black"></path></svg>