<svg width="24" height="24" viewBox="0 0 24 24" fill="none" xmlns="http://www.w3.org/2000/svg"><path d="M8.340 1.264 C 5.778 1.389,4.163 1.970,3.000 3.186 C 1.991 4.242,1.467 5.602,1.282 7.648 C 1.224 8.289,1.223 15.703,1.281 16.343 C 1.467 18.399,1.989 19.756,3.000 20.814 C 3.848 21.700,4.963 22.255,6.477 22.542 C 7.380 22.713,7.733 22.728,11.359 22.748 C 15.083 22.769,16.117 22.742,17.092 22.598 C 20.130 22.153,21.871 20.573,22.462 17.728 C 22.696 16.600,22.700 16.509,22.700 12.000 C 22.700 7.491,22.696 7.400,22.462 6.272 C 22.135 4.698,21.406 3.440,20.370 2.662 C 18.936 1.587,17.164 1.204,13.820 1.247 L 12.780 1.260 12.600 1.366 C 12.112 1.653,12.116 2.360,12.606 2.640 L 12.780 2.740 14.560 2.765 C 16.448 2.792,16.725 2.816,17.593 3.022 C 18.426 3.220,19.189 3.591,19.693 4.043 C 20.331 4.615,20.781 5.516,21.019 6.700 C 21.200 7.604,21.219 7.973,21.219 10.700 L 21.220 13.260 19.460 13.260 L 17.700 13.260 17.440 13.132 C 17.025 12.929,16.908 12.773,16.298 11.620 C 15.699 10.487,15.587 10.303,15.396 10.143 C 15.147 9.934,14.960 9.862,14.660 9.862 C 14.230 9.862,13.908 10.049,13.660 10.440 C 13.612 10.517,13.098 11.781,12.519 13.250 C 11.939 14.718,11.455 15.920,11.443 15.920 C 11.430 15.920,11.260 15.510,11.064 15.010 C 10.549 13.697,10.446 13.457,10.290 13.227 C 9.990 12.783,9.555 12.422,9.034 12.184 C 8.483 11.933,8.575 11.939,5.510 11.955 L 2.720 11.969 2.720 10.155 C 2.721 9.157,2.739 8.124,2.762 7.860 C 2.903 6.199,3.314 5.040,4.037 4.271 C 4.944 3.304,6.253 2.854,8.420 2.765 C 8.984 2.741,9.211 2.717,9.300 2.670 C 9.648 2.488,9.804 2.078,9.658 1.729 C 9.486 1.316,9.217 1.222,8.340 1.264 M15.178 12.700 C 15.351 13.030,15.560 13.399,15.643 13.520 C 15.926 13.936,16.323 14.256,16.870 14.509 C 17.366 14.738,17.571 14.757,19.510 14.759 L 21.240 14.760 21.240 14.950 C 21.239 15.055,21.222 15.432,21.200 15.789 C 21.118 17.128,20.926 17.985,20.521 18.820 C 19.877 20.148,18.764 20.830,16.720 21.148 C 16.299 21.214,15.896 21.220,11.980 21.220 C 8.048 21.220,7.661 21.214,7.221 21.147 C 4.506 20.736,3.293 19.581,2.865 17.000 C 2.759 16.360,2.721 15.709,2.720 14.549 L 2.720 13.438 5.490 13.449 L 8.260 13.460 8.494 13.578 C 8.625 13.645,8.809 13.786,8.914 13.901 C 9.085 14.089,9.150 14.233,9.714 15.663 C 10.052 16.519,10.373 17.297,10.427 17.392 C 10.681 17.835,11.020 18.050,11.461 18.047 C 11.914 18.045,12.262 17.795,12.511 17.293 C 12.575 17.165,13.092 15.877,13.661 14.431 L 14.695 11.802 14.779 11.951 C 14.826 12.033,15.005 12.370,15.178 12.700 " stroke="none" fill-rule="evenodd" fill="black"></path></svg>