<svg width="24" height="24" viewBox="0 0 24 24" fill="none" xmlns="http://www.w3.org/2000/svg"><path d="M7.280 2.402 C 7.013 2.516,6.829 2.801,6.829 3.100 C 6.829 3.340,6.905 3.504,7.097 3.672 C 7.253 3.809,7.295 3.819,7.963 3.879 C 8.493 3.926,8.921 4.029,9.381 4.219 C 10.128 4.529,10.677 4.943,11.328 5.688 C 11.607 6.008,11.774 6.095,12.062 6.072 C 12.325 6.050,12.416 5.990,12.712 5.647 C 13.021 5.287,13.490 4.854,13.775 4.665 C 15.696 3.390,18.195 3.636,19.819 5.261 C 20.537 5.979,21.008 6.877,21.178 7.855 C 21.335 8.759,21.205 10.254,20.862 11.474 C 20.806 11.673,20.760 11.921,20.760 12.024 C 20.760 12.370,20.996 12.645,21.371 12.735 C 21.612 12.793,22.017 12.599,22.136 12.368 C 22.211 12.221,22.414 11.473,22.517 10.961 C 22.712 9.991,22.789 8.541,22.684 7.820 C 22.312 5.280,20.543 3.263,18.093 2.585 C 17.476 2.414,17.183 2.380,16.380 2.383 C 15.757 2.385,15.547 2.401,15.214 2.473 C 14.127 2.706,13.126 3.203,12.300 3.917 C 12.146 4.051,12.011 4.160,12.000 4.159 C 11.989 4.159,11.854 4.050,11.700 3.918 C 10.865 3.199,9.841 2.693,8.786 2.477 C 8.318 2.381,7.432 2.337,7.280 2.402 M3.058 4.336 C 2.797 4.450,2.213 5.244,1.881 5.937 C 1.390 6.962,1.208 7.997,1.283 9.331 C 1.347 10.464,1.512 11.336,1.859 12.380 C 2.829 15.295,4.958 17.916,7.960 19.891 C 8.954 20.545,9.855 21.020,10.783 21.381 C 11.417 21.627,11.973 21.709,12.267 21.597 C 12.540 21.495,12.731 21.207,12.731 20.900 C 12.731 20.660,12.655 20.496,12.463 20.328 C 12.323 20.205,12.251 20.183,11.860 20.144 C 11.503 20.108,10.371 19.608,9.534 19.115 C 7.845 18.121,6.382 16.872,5.227 15.440 C 4.250 14.227,3.517 12.825,3.116 11.400 C 2.825 10.366,2.682 8.843,2.796 7.989 C 2.898 7.232,3.235 6.401,3.661 5.858 C 4.022 5.396,4.098 5.251,4.094 5.021 C 4.088 4.591,3.772 4.278,3.347 4.282 C 3.255 4.282,3.125 4.307,3.058 4.336 M17.331 13.883 C 15.707 14.038,14.356 15.207,13.913 16.840 C 13.780 17.332,13.780 18.268,13.913 18.760 C 14.361 20.409,15.704 21.560,17.362 21.716 C 18.130 21.788,18.853 21.650,19.543 21.300 L 19.952 21.091 20.506 21.640 C 20.811 21.942,21.123 22.221,21.199 22.260 C 21.371 22.348,21.701 22.353,21.861 22.269 C 22.016 22.188,22.184 22.009,22.237 21.867 C 22.292 21.724,22.292 21.477,22.238 21.333 C 22.215 21.271,21.928 20.950,21.599 20.620 L 21.003 20.020 21.114 19.840 C 21.309 19.525,21.513 18.993,21.598 18.574 C 21.980 16.687,20.923 14.784,19.115 14.104 C 18.601 13.911,17.922 13.827,17.331 13.883 M18.549 15.478 C 19.324 15.753,19.971 16.494,20.140 17.300 C 20.408 18.580,19.600 19.862,18.321 20.184 C 17.963 20.274,17.277 20.243,16.931 20.121 C 16.154 19.847,15.509 19.109,15.340 18.300 C 15.075 17.036,15.860 15.767,17.120 15.421 C 17.448 15.331,18.220 15.362,18.549 15.478 " stroke="none" fill-rule="evenodd" fill="black"></path></svg>