<svg width="24" height="24" viewBox="0 0 24 24" fill="none" xmlns="http://www.w3.org/2000/svg"><path d="M7.280 2.402 C 7.013 2.516,6.829 2.801,6.829 3.101 C 6.829 3.331,6.876 3.444,7.052 3.629 C 7.203 3.789,7.323 3.827,7.780 3.859 C 8.706 3.924,9.502 4.185,10.212 4.656 C 10.519 4.860,11.033 5.330,11.304 5.655 C 11.780 6.225,12.220 6.225,12.696 5.655 C 12.967 5.330,13.481 4.860,13.788 4.656 C 14.741 4.024,15.949 3.743,17.060 3.894 C 18.134 4.041,19.056 4.497,19.819 5.261 C 20.552 5.993,21.011 6.882,21.183 7.900 C 21.238 8.221,21.247 8.449,21.228 9.060 C 21.203 9.887,21.120 10.487,20.924 11.242 C 20.801 11.718,20.508 12.588,20.452 12.644 C 20.434 12.661,20.321 12.612,20.200 12.533 C 19.922 12.354,19.256 12.034,18.935 11.926 C 18.800 11.881,18.503 11.804,18.275 11.756 C 17.685 11.631,16.714 11.631,16.125 11.756 C 13.874 12.232,12.231 13.875,11.756 16.125 C 11.631 16.719,11.629 17.692,11.753 18.268 C 11.867 18.798,12.044 19.298,12.265 19.717 C 12.388 19.951,12.430 20.066,12.401 20.095 C 12.378 20.118,12.211 20.138,12.029 20.139 C 11.732 20.140,11.657 20.123,11.260 19.964 C 9.103 19.103,6.770 17.363,5.251 15.480 C 4.206 14.185,3.375 12.534,3.026 11.060 C 2.861 10.360,2.798 9.873,2.773 9.077 C 2.738 8.001,2.847 7.399,3.219 6.612 C 3.434 6.157,3.608 5.893,3.959 5.486 C 4.293 5.100,4.360 4.976,4.360 4.745 C 4.360 4.302,4.059 4.000,3.620 4.000 C 3.363 4.000,3.176 4.110,2.896 4.426 C 2.400 4.986,2.042 5.548,1.766 6.200 C 1.351 7.179,1.213 8.086,1.284 9.355 C 1.413 11.630,2.140 13.680,3.520 15.662 C 4.838 17.554,6.834 19.320,9.060 20.563 C 9.955 21.063,10.995 21.511,11.461 21.597 C 12.002 21.697,12.602 21.631,13.159 21.409 L 13.458 21.290 13.659 21.460 C 14.365 22.058,15.312 22.499,16.240 22.662 C 17.047 22.804,18.146 22.727,18.918 22.476 C 20.040 22.111,21.121 21.290,21.772 20.309 C 22.520 19.183,22.821 18.053,22.717 16.765 C 22.636 15.767,22.341 14.924,21.773 14.069 L 21.593 13.798 21.782 13.349 C 22.341 12.022,22.640 10.742,22.714 9.360 C 22.747 8.748,22.725 8.042,22.661 7.660 C 22.293 5.457,20.741 3.547,18.693 2.776 C 17.899 2.477,17.324 2.379,16.380 2.383 C 15.757 2.385,15.547 2.401,15.214 2.473 C 14.133 2.705,13.183 3.172,12.330 3.891 L 12.000 4.169 11.670 3.891 C 10.813 3.168,9.843 2.693,8.786 2.477 C 8.318 2.381,7.432 2.337,7.280 2.402 M18.180 13.280 C 18.911 13.477,19.481 13.799,20.014 14.316 C 20.408 14.697,20.632 15.008,20.858 15.486 C 21.157 16.118,21.220 16.426,21.217 17.220 C 21.214 17.986,21.159 18.268,20.904 18.820 C 20.218 20.305,18.790 21.240,17.207 21.240 C 15.705 21.240,14.407 20.466,13.645 19.115 C 13.248 18.412,13.072 17.412,13.202 16.600 C 13.336 15.765,13.687 15.049,14.260 14.445 C 14.887 13.784,15.607 13.389,16.500 13.216 C 16.911 13.137,17.771 13.169,18.180 13.280 M18.729 15.370 C 18.639 15.420,18.136 15.856,17.612 16.340 C 17.089 16.824,16.627 17.246,16.588 17.277 C 16.522 17.329,16.481 17.300,16.128 16.951 C 15.914 16.741,15.696 16.546,15.642 16.519 C 15.478 16.435,15.153 16.456,14.962 16.564 C 14.599 16.768,14.485 17.246,14.715 17.602 C 14.885 17.865,16.035 18.985,16.210 19.058 C 16.409 19.142,16.652 19.136,16.832 19.044 C 17.068 18.922,19.654 16.515,19.738 16.339 C 19.847 16.110,19.810 15.764,19.656 15.575 C 19.415 15.276,19.047 15.195,18.729 15.370 " stroke="none" fill-rule="evenodd" fill="black"></path></svg>