<svg width="24" height="24" viewBox="0 0 24 24" fill="none" xmlns="http://www.w3.org/2000/svg"><path d="M7.280 2.402 C 7.013 2.516,6.829 2.801,6.829 3.100 C 6.829 3.340,6.905 3.504,7.097 3.672 C 7.253 3.809,7.295 3.819,7.963 3.879 C 8.493 3.926,8.921 4.029,9.381 4.219 C 10.128 4.529,10.677 4.943,11.328 5.688 C 11.607 6.008,11.774 6.095,12.062 6.072 C 12.325 6.050,12.416 5.990,12.712 5.647 C 13.021 5.287,13.490 4.854,13.775 4.665 C 15.696 3.390,18.195 3.636,19.819 5.261 C 20.537 5.979,21.008 6.877,21.178 7.855 C 21.335 8.759,21.205 10.254,20.862 11.474 C 20.806 11.673,20.760 11.921,20.760 12.024 C 20.760 12.370,20.996 12.645,21.371 12.735 C 21.612 12.793,22.017 12.599,22.136 12.368 C 22.211 12.221,22.414 11.473,22.517 10.961 C 22.712 9.991,22.789 8.541,22.684 7.820 C 22.312 5.280,20.543 3.263,18.093 2.585 C 17.476 2.414,17.183 2.380,16.380 2.383 C 15.757 2.385,15.547 2.401,15.214 2.473 C 14.127 2.706,13.126 3.203,12.300 3.917 C 12.146 4.051,12.011 4.160,12.000 4.159 C 11.989 4.159,11.854 4.050,11.700 3.918 C 10.865 3.199,9.841 2.693,8.786 2.477 C 8.318 2.381,7.432 2.337,7.280 2.402 M3.100 4.340 C 2.900 4.410,2.679 4.649,2.327 5.175 C 1.504 6.410,1.189 7.670,1.284 9.355 C 1.413 11.631,2.140 13.680,3.520 15.662 C 5.202 18.076,8.049 20.318,10.783 21.381 C 11.417 21.627,11.973 21.709,12.267 21.597 C 12.540 21.495,12.731 21.207,12.731 20.900 C 12.731 20.660,12.655 20.496,12.463 20.328 C 12.323 20.205,12.251 20.183,11.860 20.144 C 11.503 20.108,10.371 19.608,9.534 19.115 C 6.956 17.598,4.960 15.545,3.840 13.260 C 3.319 12.197,3.026 11.285,2.854 10.192 C 2.764 9.618,2.751 8.060,2.833 7.720 C 3.042 6.859,3.310 6.302,3.844 5.620 C 4.051 5.355,4.134 5.122,4.094 4.915 C 4.041 4.636,3.891 4.451,3.631 4.342 C 3.450 4.266,3.310 4.266,3.100 4.340 M19.710 14.534 C 19.561 14.585,19.318 14.710,19.170 14.811 C 18.816 15.054,15.024 18.845,14.870 19.110 C 14.710 19.385,14.657 19.594,14.538 20.411 C 14.370 21.570,14.418 21.902,14.813 22.313 C 15.216 22.732,15.557 22.787,16.737 22.622 C 17.543 22.509,17.824 22.432,18.110 22.246 C 18.209 22.182,19.162 21.259,20.228 20.195 C 22.289 18.137,22.486 17.911,22.639 17.414 C 22.746 17.068,22.746 16.614,22.641 16.271 C 22.424 15.569,21.593 14.737,20.894 14.521 C 20.528 14.408,20.065 14.413,19.710 14.534 M20.602 16.034 C 20.928 16.241,21.240 16.641,21.240 16.850 C 21.240 16.970,21.055 17.257,20.853 17.450 L 20.696 17.600 20.498 17.476 C 20.224 17.305,19.900 16.985,19.714 16.702 L 19.558 16.465 19.749 16.269 C 19.963 16.050,20.170 15.924,20.322 15.922 C 20.378 15.921,20.504 15.971,20.602 16.034 M18.576 17.684 C 18.686 17.870,19.143 18.341,19.375 18.508 C 19.488 18.589,19.588 18.661,19.598 18.669 C 19.623 18.688,17.361 20.954,17.264 21.007 C 17.189 21.048,15.972 21.239,15.947 21.213 C 15.939 21.206,15.976 20.908,16.027 20.550 L 16.121 19.900 17.290 18.730 C 17.933 18.087,18.469 17.560,18.481 17.560 C 18.493 17.560,18.536 17.616,18.576 17.684 " stroke="none" fill-rule="evenodd" fill="black"></path></svg>