<svg width="24" height="24" viewBox="0 0 24 24" fill="none" xmlns="http://www.w3.org/2000/svg"><path d="M11.560 1.267 C 10.326 1.322,9.152 1.571,8.041 2.012 C 7.427 2.256,7.240 2.454,7.240 2.860 C 7.240 3.229,7.525 3.548,7.892 3.589 C 8.032 3.605,8.152 3.574,8.523 3.428 C 9.718 2.955,10.735 2.760,12.006 2.760 C 13.464 2.760,14.754 3.058,16.060 3.698 C 17.024 4.170,17.648 4.611,18.434 5.378 C 19.273 6.195,19.814 6.937,20.303 7.940 C 20.944 9.253,21.240 10.537,21.240 12.000 C 21.240 13.465,20.943 14.752,20.302 16.060 C 19.830 17.024,19.389 17.648,18.622 18.434 C 17.805 19.273,17.063 19.814,16.060 20.303 C 14.747 20.944,13.463 21.240,12.000 21.240 C 10.537 21.240,9.253 20.944,7.940 20.303 C 6.937 19.814,6.195 19.273,5.378 18.434 C 4.611 17.648,4.170 17.024,3.698 16.060 C 3.058 14.754,2.760 13.464,2.760 12.005 C 2.760 10.060,3.331 8.256,4.457 6.648 C 4.701 6.298,4.770 6.095,4.724 5.855 C 4.656 5.497,4.372 5.267,4.000 5.267 C 3.678 5.267,3.534 5.369,3.222 5.816 C 1.432 8.383,0.834 11.537,1.564 14.550 C 1.904 15.951,2.529 17.268,3.424 18.470 C 3.880 19.083,4.909 20.111,5.530 20.575 C 7.606 22.126,10.070 22.870,12.627 22.717 C 14.790 22.588,16.724 21.879,18.470 20.575 C 19.087 20.115,20.115 19.087,20.575 18.470 C 22.127 16.391,22.870 13.930,22.717 11.373 C 22.588 9.210,21.879 7.276,20.575 5.530 C 20.115 4.913,19.087 3.885,18.470 3.425 C 17.047 2.362,15.454 1.679,13.742 1.398 C 13.325 1.330,12.055 1.227,11.880 1.248 C 11.847 1.252,11.703 1.261,11.560 1.267 M8.953 7.199 C 7.541 7.453,6.377 8.514,6.001 9.888 C 5.768 10.739,5.851 12.012,6.207 13.060 C 6.578 14.150,7.154 15.037,8.118 16.003 C 8.892 16.778,9.663 17.334,10.633 17.817 C 11.334 18.166,11.514 18.218,12.000 18.216 C 12.479 18.214,12.709 18.145,13.415 17.792 C 14.339 17.330,15.106 16.774,15.862 16.020 C 16.858 15.028,17.404 14.181,17.806 13.008 C 18.148 12.007,18.228 10.722,17.999 9.888 C 17.677 8.711,16.789 7.763,15.632 7.360 C 15.171 7.199,14.787 7.147,14.221 7.171 C 13.477 7.201,12.956 7.371,12.334 7.783 C 12.154 7.903,12.000 8.000,11.991 8.000 C 11.982 8.000,11.879 7.929,11.763 7.842 C 11.474 7.627,10.966 7.384,10.580 7.278 C 10.228 7.180,9.304 7.136,8.953 7.199 M10.116 8.701 C 10.540 8.801,10.887 9.012,11.275 9.405 C 11.639 9.774,11.749 9.840,12.000 9.840 C 12.248 9.840,12.349 9.779,12.724 9.405 C 13.301 8.828,13.825 8.611,14.540 8.652 C 15.196 8.690,15.786 9.006,16.183 9.531 C 16.518 9.974,16.640 10.360,16.640 10.978 C 16.639 11.942,16.340 12.927,15.785 13.792 C 15.101 14.857,13.883 15.913,12.660 16.499 C 12.090 16.773,12.009 16.789,11.732 16.679 C 10.388 16.145,8.957 14.963,8.187 13.750 C 7.404 12.516,7.133 10.886,7.556 9.943 C 7.757 9.494,8.311 8.967,8.760 8.796 C 9.194 8.632,9.677 8.598,10.116 8.701 " stroke="none" fill-rule="evenodd" fill="black"></path></svg>