<svg width="24" height="24" viewBox="0 0 24 24" fill="none" xmlns="http://www.w3.org/2000/svg"><path d="M7.280 2.402 C 7.013 2.516,6.829 2.801,6.829 3.101 C 6.829 3.331,6.876 3.444,7.052 3.629 C 7.203 3.789,7.323 3.827,7.780 3.859 C 8.706 3.924,9.502 4.185,10.212 4.656 C 10.519 4.860,11.033 5.330,11.304 5.655 C 11.780 6.225,12.220 6.225,12.696 5.655 C 12.967 5.330,13.481 4.860,13.788 4.656 C 14.741 4.024,15.949 3.743,17.060 3.894 C 18.134 4.041,19.056 4.497,19.819 5.261 C 20.552 5.993,21.011 6.882,21.183 7.900 C 21.238 8.221,21.247 8.449,21.228 9.060 C 21.203 9.887,21.120 10.487,20.924 11.242 C 20.801 11.718,20.508 12.588,20.452 12.644 C 20.434 12.661,20.321 12.612,20.200 12.533 C 19.922 12.354,19.256 12.034,18.935 11.926 C 18.800 11.881,18.503 11.804,18.275 11.756 C 17.685 11.631,16.714 11.631,16.125 11.756 C 13.871 12.233,12.233 13.871,11.756 16.125 C 11.632 16.711,11.631 17.686,11.754 18.268 C 11.864 18.785,12.040 19.287,12.263 19.719 C 12.378 19.943,12.425 20.071,12.398 20.098 C 12.377 20.119,12.211 20.138,12.029 20.139 C 11.732 20.140,11.657 20.123,11.260 19.964 C 9.103 19.103,6.770 17.363,5.251 15.480 C 4.206 14.185,3.375 12.534,3.026 11.060 C 2.861 10.360,2.798 9.873,2.773 9.077 C 2.738 8.001,2.847 7.399,3.219 6.612 C 3.434 6.157,3.608 5.893,3.959 5.486 C 4.293 5.100,4.360 4.976,4.360 4.745 C 4.360 4.302,4.059 4.000,3.620 4.000 C 3.363 4.000,3.176 4.110,2.896 4.426 C 2.400 4.986,2.042 5.548,1.766 6.200 C 1.351 7.179,1.213 8.086,1.284 9.355 C 1.413 11.630,2.140 13.680,3.520 15.662 C 4.838 17.554,6.834 19.320,9.060 20.563 C 9.955 21.063,10.995 21.511,11.461 21.597 C 12.004 21.697,12.604 21.630,13.160 21.407 L 13.460 21.287 13.580 21.398 C 13.937 21.728,14.660 22.164,15.177 22.362 C 17.776 23.357,20.655 22.325,22.035 19.903 C 22.815 18.535,22.950 16.783,22.392 15.260 C 22.259 14.894,22.033 14.461,21.773 14.069 L 21.593 13.798 21.782 13.349 C 22.341 12.022,22.640 10.742,22.714 9.360 C 22.747 8.748,22.725 8.042,22.661 7.660 C 22.293 5.457,20.741 3.547,18.693 2.776 C 17.899 2.477,17.324 2.379,16.380 2.383 C 15.757 2.385,15.547 2.401,15.214 2.473 C 14.133 2.705,13.183 3.172,12.330 3.891 L 12.000 4.169 11.670 3.891 C 10.813 3.168,9.843 2.693,8.786 2.477 C 8.318 2.381,7.432 2.337,7.280 2.402 M18.180 13.280 C 18.911 13.477,19.481 13.799,20.014 14.316 C 20.408 14.697,20.632 15.008,20.858 15.486 C 21.153 16.109,21.220 16.428,21.220 17.200 C 21.220 17.972,21.153 18.291,20.858 18.914 C 20.442 19.793,19.793 20.442,18.914 20.858 C 18.291 21.153,17.972 21.220,17.200 21.220 C 16.635 21.220,16.491 21.207,16.200 21.127 C 13.733 20.456,12.480 17.800,13.540 15.492 C 13.889 14.735,14.542 14.043,15.287 13.642 C 15.627 13.460,16.101 13.293,16.500 13.216 C 16.911 13.137,17.771 13.169,18.180 13.280 M16.920 14.824 C 16.843 14.857,16.738 14.924,16.686 14.972 C 16.492 15.154,16.464 15.263,16.447 15.907 L 16.432 16.515 15.779 16.527 L 15.127 16.540 14.974 16.663 C 14.776 16.821,14.680 17.012,14.680 17.247 C 14.680 17.574,14.802 17.777,15.088 17.924 C 15.215 17.989,15.326 18.000,15.834 18.000 L 16.432 18.000 16.447 18.650 C 16.464 19.353,16.486 19.439,16.706 19.647 C 16.983 19.909,17.417 19.909,17.694 19.647 C 17.914 19.439,17.936 19.353,17.953 18.650 L 17.968 18.000 18.566 18.000 C 19.074 18.000,19.185 17.989,19.312 17.924 C 19.598 17.777,19.720 17.574,19.720 17.247 C 19.720 17.012,19.624 16.821,19.426 16.663 L 19.273 16.540 18.621 16.527 L 17.970 16.515 17.952 15.907 C 17.939 15.455,17.919 15.269,17.871 15.180 C 17.686 14.831,17.267 14.674,16.920 14.824 " stroke="none" fill-rule="evenodd" fill="black"></path></svg>