<svg width="24" height="24" viewBox="0 0 24 24" fill="none" xmlns="http://www.w3.org/2000/svg"><path d="M7.280 2.402 C 7.013 2.516,6.829 2.801,6.829 3.101 C 6.829 3.331,6.876 3.444,7.052 3.629 C 7.203 3.789,7.323 3.827,7.780 3.859 C 8.706 3.924,9.502 4.185,10.212 4.656 C 10.519 4.860,11.033 5.330,11.304 5.655 C 11.780 6.225,12.220 6.225,12.696 5.655 C 12.967 5.330,13.481 4.860,13.788 4.656 C 14.741 4.024,15.949 3.743,17.060 3.894 C 18.134 4.041,19.056 4.497,19.819 5.261 C 20.552 5.993,21.011 6.882,21.183 7.900 C 21.238 8.221,21.247 8.449,21.228 9.060 C 21.203 9.887,21.120 10.487,20.924 11.242 C 20.801 11.718,20.508 12.588,20.452 12.644 C 20.434 12.661,20.321 12.612,20.200 12.533 C 19.922 12.354,19.256 12.034,18.935 11.926 C 18.390 11.743,17.896 11.669,17.200 11.668 C 16.671 11.668,16.458 11.685,16.125 11.756 C 14.391 12.123,13.020 13.169,12.239 14.722 C 11.447 16.297,11.460 18.190,12.276 19.746 C 12.384 19.953,12.425 20.071,12.399 20.097 C 12.377 20.119,12.211 20.138,12.029 20.139 C 11.732 20.140,11.657 20.123,11.260 19.964 C 9.103 19.103,6.770 17.363,5.251 15.480 C 4.206 14.185,3.375 12.534,3.026 11.060 C 2.861 10.360,2.798 9.873,2.773 9.077 C 2.738 8.001,2.847 7.399,3.219 6.612 C 3.434 6.157,3.608 5.893,3.959 5.486 C 4.293 5.100,4.360 4.976,4.360 4.745 C 4.360 4.302,4.059 4.000,3.620 4.000 C 3.363 4.000,3.176 4.110,2.896 4.426 C 2.400 4.986,2.042 5.548,1.766 6.200 C 1.351 7.179,1.213 8.086,1.284 9.355 C 1.413 11.630,2.140 13.680,3.520 15.662 C 4.838 17.554,6.834 19.320,9.060 20.563 C 9.955 21.063,10.995 21.511,11.461 21.597 C 12.003 21.697,12.603 21.630,13.160 21.408 L 13.460 21.288 13.660 21.457 C 14.241 21.948,14.946 22.318,15.705 22.531 C 17.627 23.071,19.704 22.528,21.116 21.116 C 22.971 19.261,23.269 16.327,21.823 14.167 C 21.700 13.985,21.600 13.822,21.600 13.806 C 21.600 13.791,21.684 13.580,21.786 13.339 C 22.338 12.032,22.640 10.739,22.714 9.360 C 22.747 8.748,22.725 8.042,22.661 7.660 C 22.293 5.457,20.741 3.547,18.693 2.776 C 17.899 2.477,17.324 2.379,16.380 2.383 C 15.757 2.385,15.547 2.401,15.214 2.473 C 14.133 2.705,13.183 3.172,12.330 3.891 L 12.000 4.169 11.670 3.891 C 10.813 3.168,9.843 2.693,8.786 2.477 C 8.318 2.381,7.432 2.337,7.280 2.402 M17.866 13.217 C 18.699 13.364,19.365 13.701,19.985 14.290 C 20.526 14.804,20.888 15.389,21.104 16.100 C 21.205 16.431,21.214 16.516,21.217 17.160 C 21.220 17.773,21.209 17.902,21.127 18.200 C 20.805 19.386,20.010 20.341,18.914 20.858 C 18.294 21.151,17.973 21.218,17.200 21.219 C 16.418 21.220,16.105 21.153,15.460 20.844 C 14.408 20.340,13.631 19.410,13.300 18.260 C 13.170 17.810,13.127 17.124,13.197 16.642 C 13.451 14.907,14.774 13.536,16.500 13.219 C 16.881 13.149,17.472 13.148,17.866 13.217 M15.860 15.260 C 15.838 15.267,15.772 15.284,15.713 15.296 C 15.459 15.352,15.202 15.707,15.202 16.000 C 15.202 16.237,15.335 16.444,15.755 16.859 L 16.159 17.257 15.745 17.679 C 15.273 18.159,15.189 18.295,15.189 18.580 C 15.189 18.898,15.347 19.132,15.649 19.258 C 16.012 19.410,16.245 19.305,16.799 18.744 L 17.218 18.320 17.619 18.738 C 17.859 18.988,18.080 19.181,18.169 19.218 C 18.679 19.431,19.211 19.084,19.211 18.540 C 19.211 18.264,19.144 18.153,18.685 17.675 L 18.287 17.260 18.699 16.840 C 19.159 16.372,19.232 16.230,19.182 15.899 C 19.159 15.745,19.118 15.674,18.962 15.518 C 18.806 15.362,18.735 15.321,18.581 15.298 C 18.250 15.248,18.108 15.321,17.638 15.784 L 17.217 16.199 16.858 15.836 C 16.661 15.637,16.428 15.433,16.340 15.382 C 16.187 15.293,15.945 15.232,15.860 15.260 " stroke="none" fill-rule="evenodd" fill="black"></path></svg>