<svg width="24" height="24" viewBox="0 0 24 24" fill="none" xmlns="http://www.w3.org/2000/svg"><path d="M6.960 2.383 C 6.905 2.392,6.725 2.420,6.560 2.444 C 4.803 2.697,3.163 3.802,2.175 5.400 C 1.795 6.015,1.464 6.908,1.339 7.660 C 1.235 8.277,1.256 9.572,1.382 10.415 C 1.616 11.981,2.222 13.619,3.071 14.982 C 4.418 17.146,6.338 18.965,8.830 20.437 C 9.692 20.945,10.912 21.490,11.445 21.605 C 11.565 21.630,11.856 21.642,12.136 21.631 C 12.585 21.614,12.654 21.600,13.080 21.441 C 15.246 20.636,17.805 18.842,19.417 17.000 C 20.767 15.457,21.585 14.064,22.162 12.320 C 22.492 11.326,22.653 10.453,22.717 9.322 C 22.794 7.971,22.599 6.915,22.080 5.875 C 21.723 5.157,21.158 4.405,20.892 4.294 C 20.572 4.161,20.163 4.276,19.980 4.552 C 19.766 4.877,19.817 5.217,20.139 5.600 C 20.522 6.055,20.844 6.638,21.013 7.180 C 21.209 7.808,21.220 7.896,21.217 8.860 C 21.215 9.848,21.154 10.354,20.939 11.204 C 20.579 12.624,19.756 14.231,18.750 15.480 C 17.216 17.382,14.741 19.220,12.662 20.001 C 12.094 20.214,11.906 20.214,11.338 20.001 C 9.259 19.220,6.782 17.381,5.251 15.480 C 4.204 14.181,3.375 12.534,3.026 11.060 C 2.859 10.354,2.798 9.871,2.773 9.060 C 2.753 8.446,2.762 8.222,2.817 7.900 C 2.989 6.882,3.448 5.993,4.181 5.261 C 5.322 4.119,6.879 3.643,8.484 3.944 C 9.544 4.143,10.485 4.711,11.275 5.631 C 11.580 5.985,11.670 6.047,11.918 6.071 C 12.224 6.100,12.370 6.028,12.650 5.709 C 13.325 4.941,13.867 4.531,14.619 4.219 C 15.079 4.029,15.507 3.926,16.037 3.879 C 16.705 3.819,16.747 3.809,16.903 3.672 C 17.095 3.504,17.171 3.340,17.171 3.100 C 17.171 2.860,17.095 2.696,16.903 2.528 C 16.723 2.370,16.569 2.343,16.034 2.373 C 14.699 2.450,13.364 3.002,12.300 3.918 C 12.146 4.050,12.011 4.159,12.000 4.159 C 11.989 4.160,11.854 4.051,11.700 3.917 C 10.879 3.207,9.867 2.703,8.806 2.478 C 8.435 2.399,7.224 2.337,6.960 2.383 " stroke="none" fill-rule="evenodd" fill="black"></path></svg>