<svg width="24" height="24" viewBox="0 0 24 24" fill="none" xmlns="http://www.w3.org/2000/svg"><path d="M21.900 1.259 C 21.878 1.267,21.806 1.285,21.740 1.300 C 21.655 1.319,21.343 1.602,20.649 2.292 C 19.745 3.192,19.673 3.255,19.595 3.206 C 19.368 3.065,18.781 2.796,18.460 2.687 C 17.743 2.443,17.348 2.384,16.440 2.384 C 15.745 2.384,15.558 2.398,15.214 2.472 C 14.131 2.706,13.130 3.203,12.300 3.918 C 12.146 4.050,12.011 4.159,12.000 4.159 C 11.989 4.160,11.854 4.050,11.700 3.916 C 10.664 3.012,9.302 2.450,7.966 2.373 C 7.431 2.343,7.277 2.370,7.097 2.528 C 6.905 2.696,6.829 2.860,6.829 3.101 C 6.829 3.331,6.876 3.444,7.052 3.629 C 7.203 3.789,7.324 3.827,7.780 3.859 C 9.222 3.959,10.315 4.513,11.275 5.631 C 11.580 5.985,11.670 6.047,11.918 6.071 C 12.223 6.100,12.370 6.028,12.650 5.711 C 13.342 4.928,13.826 4.560,14.600 4.230 C 15.547 3.826,16.642 3.743,17.633 3.998 C 17.955 4.081,18.560 4.314,18.560 4.355 C 18.560 4.369,15.801 7.139,12.429 10.511 L 6.299 16.641 6.056 16.391 C 4.319 14.600,3.215 12.467,2.859 10.211 C 2.771 9.656,2.737 8.418,2.797 8.001 C 2.865 7.536,3.015 7.044,3.219 6.612 C 3.434 6.157,3.608 5.893,3.959 5.486 C 4.294 5.099,4.360 4.976,4.360 4.741 C 4.360 4.301,4.058 4.000,3.616 4.000 C 3.363 4.000,3.175 4.111,2.896 4.426 C 2.228 5.180,1.775 5.997,1.503 6.934 C 1.155 8.135,1.194 9.858,1.607 11.520 C 2.125 13.607,3.270 15.629,4.918 17.370 L 5.235 17.705 3.336 19.603 C 2.291 20.646,1.398 21.561,1.352 21.636 C 1.232 21.826,1.234 22.177,1.356 22.374 C 1.532 22.658,1.839 22.783,2.189 22.712 C 2.376 22.674,2.592 22.460,12.490 12.566 C 18.342 6.717,22.628 2.403,22.665 2.324 C 22.816 2.006,22.705 1.590,22.416 1.393 C 22.274 1.295,21.999 1.224,21.900 1.259 M21.505 6.298 C 21.216 6.403,21.000 6.692,21.000 6.976 C 21.000 7.054,21.049 7.295,21.109 7.509 C 21.213 7.884,21.217 7.939,21.216 8.840 C 21.215 9.850,21.158 10.341,20.939 11.204 C 20.609 12.506,19.865 14.023,18.997 15.164 C 18.038 16.425,16.701 17.664,15.260 18.627 C 14.031 19.448,12.517 20.160,12.002 20.160 C 11.637 20.160,10.899 19.871,9.989 19.373 C 9.218 18.951,9.215 18.949,8.957 18.968 C 8.539 18.998,8.254 19.329,8.289 19.745 C 8.317 20.086,8.434 20.218,8.984 20.528 C 9.617 20.885,10.387 21.250,10.934 21.453 L 11.380 21.618 12.000 21.618 L 12.620 21.619 13.080 21.445 C 14.687 20.836,16.483 19.726,17.994 18.407 C 20.573 16.155,22.207 13.318,22.622 10.372 C 22.765 9.358,22.763 8.123,22.618 7.432 C 22.468 6.717,22.344 6.472,22.060 6.329 C 21.910 6.254,21.664 6.240,21.505 6.298 " stroke="none" fill-rule="evenodd" fill="black"></path></svg>