<svg width="24" height="24" viewBox="0 0 24 24" fill="none" xmlns="http://www.w3.org/2000/svg"><path d="M8.080 1.282 C 4.042 1.493,1.931 3.265,1.398 6.891 C 1.310 7.494,1.225 8.895,1.264 9.113 C 1.278 9.194,1.325 9.318,1.368 9.389 C 1.658 9.870,2.422 9.836,2.661 9.332 C 2.718 9.212,2.740 9.022,2.765 8.423 C 2.900 5.187,3.905 3.654,6.288 3.044 C 7.337 2.776,7.247 2.780,12.000 2.780 C 15.936 2.780,16.339 2.786,16.760 2.852 C 19.558 3.288,20.712 4.442,21.148 7.240 C 21.214 7.661,21.220 8.064,21.220 12.000 C 21.220 15.936,21.214 16.339,21.148 16.760 C 20.712 19.558,19.558 20.712,16.760 21.148 C 16.339 21.214,15.936 21.220,12.000 21.220 C 8.064 21.220,7.661 21.214,7.240 21.148 C 4.756 20.761,3.576 19.795,3.044 17.712 C 2.820 16.836,2.790 16.494,2.764 14.580 C 2.737 12.657,2.744 12.710,2.494 12.473 C 2.217 12.211,1.783 12.211,1.506 12.473 C 1.266 12.700,1.261 12.728,1.247 13.860 C 1.223 15.666,1.335 17.079,1.575 18.027 C 2.267 20.757,3.971 22.193,7.027 22.622 C 7.786 22.728,8.902 22.759,12.000 22.759 C 15.098 22.759,16.214 22.728,16.973 22.622 C 19.443 22.275,20.996 21.288,21.897 19.490 C 22.379 18.530,22.638 17.369,22.720 15.807 C 22.771 14.838,22.771 9.162,22.720 8.193 C 22.657 6.998,22.521 6.191,22.242 5.356 C 21.632 3.531,20.469 2.367,18.650 1.760 C 17.788 1.473,17.023 1.344,15.806 1.280 C 14.952 1.235,8.952 1.237,8.080 1.282 M7.440 5.281 C 6.518 5.393,5.669 6.108,5.375 7.020 C 5.227 7.479,5.227 8.121,5.375 8.580 C 5.594 9.259,6.207 9.923,6.836 10.162 L 7.020 10.232 7.030 11.866 L 7.039 13.500 6.770 13.628 C 6.224 13.887,5.802 14.317,5.522 14.900 C 5.322 15.315,5.267 15.570,5.269 16.060 C 5.271 16.834,5.494 17.373,6.039 17.924 C 6.603 18.494,7.157 18.729,7.940 18.732 C 8.430 18.733,8.685 18.678,9.100 18.478 C 10.075 18.009,10.642 17.106,10.639 16.026 C 10.638 15.614,10.546 15.229,10.354 14.840 C 10.123 14.372,9.640 13.886,9.180 13.658 C 9.004 13.571,8.853 13.496,8.844 13.491 C 8.836 13.486,8.876 13.421,8.933 13.345 C 9.072 13.164,9.373 12.946,9.642 12.834 C 9.852 12.747,9.917 12.743,11.460 12.718 C 12.927 12.694,13.088 12.685,13.398 12.605 C 14.085 12.427,14.846 11.987,15.385 11.455 C 15.625 11.220,16.113 10.560,16.166 10.401 C 16.174 10.378,16.324 10.342,16.501 10.322 C 17.478 10.211,18.323 9.517,18.625 8.580 C 18.773 8.121,18.773 7.479,18.625 7.020 C 18.381 6.264,17.736 5.619,16.980 5.375 C 16.521 5.227,15.879 5.227,15.420 5.375 C 14.664 5.619,14.019 6.264,13.775 7.020 C 13.627 7.479,13.627 8.121,13.775 8.580 C 13.918 9.024,14.217 9.459,14.595 9.771 L 14.729 9.882 14.624 10.040 C 14.387 10.400,13.865 10.826,13.441 11.008 C 12.989 11.202,12.899 11.212,11.220 11.240 C 9.702 11.265,9.606 11.271,9.340 11.357 C 9.186 11.408,8.955 11.501,8.826 11.564 C 8.697 11.628,8.584 11.680,8.575 11.680 C 8.566 11.680,8.563 11.354,8.569 10.956 L 8.580 10.232 8.764 10.162 C 9.173 10.007,9.663 9.594,9.948 9.165 C 10.466 8.385,10.466 7.215,9.948 6.435 C 9.384 5.585,8.456 5.158,7.440 5.281 M8.269 6.854 C 8.433 6.939,8.657 7.162,8.749 7.331 C 8.845 7.507,8.848 8.088,8.754 8.260 C 8.665 8.422,8.425 8.664,8.268 8.750 C 8.088 8.848,7.511 8.847,7.331 8.749 C 7.165 8.659,6.939 8.433,6.859 8.277 C 6.778 8.122,6.742 7.818,6.777 7.588 C 6.825 7.264,7.140 6.903,7.465 6.799 C 7.637 6.744,8.121 6.777,8.269 6.854 M16.669 6.854 C 16.833 6.939,17.057 7.162,17.149 7.331 C 17.248 7.512,17.248 8.088,17.149 8.269 C 17.059 8.435,16.835 8.659,16.669 8.749 C 16.489 8.847,15.912 8.848,15.732 8.750 C 15.575 8.664,15.333 8.420,15.254 8.268 C 15.178 8.121,15.143 7.813,15.177 7.588 C 15.225 7.264,15.540 6.903,15.865 6.799 C 16.037 6.744,16.521 6.777,16.669 6.854 M8.427 14.959 C 8.681 15.071,8.933 15.323,9.046 15.576 C 9.151 15.812,9.169 16.209,9.085 16.451 C 8.993 16.717,8.749 16.981,8.462 17.122 C 8.220 17.241,8.179 17.249,7.891 17.232 C 7.683 17.219,7.527 17.186,7.420 17.130 C 7.229 17.030,6.956 16.754,6.858 16.560 C 6.754 16.355,6.733 15.883,6.817 15.663 C 7.075 14.987,7.786 14.676,8.427 14.959 " stroke="none" fill-rule="evenodd" fill="black"></path></svg>