<svg width="24" height="24" viewBox="0 0 24 24" fill="none" xmlns="http://www.w3.org/2000/svg"><path d="M4.740 1.266 C 3.415 1.385,2.327 2.085,1.719 3.212 C 1.400 3.803,1.271 4.320,1.271 5.000 C 1.271 5.680,1.400 6.197,1.719 6.788 C 2.236 7.745,2.984 8.313,4.190 8.663 C 4.263 8.684,4.263 15.316,4.190 15.337 C 2.984 15.687,2.236 16.255,1.719 17.212 C 1.400 17.803,1.271 18.320,1.271 19.000 C 1.271 19.682,1.400 20.197,1.721 20.792 C 2.078 21.453,2.549 21.923,3.212 22.281 C 3.803 22.600,4.320 22.729,5.000 22.729 C 5.680 22.729,6.197 22.600,6.788 22.281 C 7.451 21.923,7.922 21.453,8.279 20.792 C 8.600 20.197,8.729 19.682,8.729 19.000 C 8.729 18.320,8.600 17.803,8.281 17.212 C 7.764 16.255,7.016 15.687,5.810 15.337 C 5.771 15.326,5.760 14.932,5.760 13.542 L 5.760 11.761 6.062 11.964 C 6.587 12.316,7.174 12.536,7.940 12.665 C 8.532 12.766,11.322 12.772,11.500 12.674 C 11.742 12.540,11.920 12.255,11.920 12.000 C 11.920 11.845,11.823 11.609,11.708 11.487 C 11.496 11.260,11.510 11.262,9.760 11.237 C 8.268 11.215,8.115 11.207,7.820 11.127 C 6.774 10.844,6.138 10.207,5.880 9.184 C 5.783 8.798,5.777 8.640,5.861 8.640 C 5.977 8.640,6.493 8.440,6.788 8.281 C 7.451 7.923,7.922 7.453,8.279 6.792 C 8.600 6.197,8.729 5.682,8.729 5.000 C 8.729 4.320,8.600 3.803,8.281 3.212 C 7.832 2.381,7.122 1.779,6.215 1.463 C 5.793 1.316,5.149 1.230,4.740 1.266 M5.578 2.821 C 5.949 2.918,6.274 3.112,6.581 3.419 C 7.041 3.879,7.240 4.356,7.240 5.000 C 7.240 5.644,7.041 6.121,6.581 6.581 C 6.121 7.041,5.644 7.240,5.000 7.240 C 4.356 7.240,3.879 7.041,3.419 6.581 C 2.959 6.121,2.760 5.644,2.760 5.000 C 2.760 4.356,2.959 3.879,3.419 3.419 C 3.719 3.118,4.050 2.919,4.404 2.823 C 4.692 2.746,5.285 2.745,5.578 2.821 M18.740 8.266 C 17.415 8.385,16.327 9.085,15.719 10.212 C 15.400 10.803,15.271 11.320,15.271 12.000 C 15.271 12.682,15.400 13.197,15.721 13.792 C 16.078 14.453,16.549 14.923,17.212 15.281 C 17.803 15.600,18.320 15.729,19.000 15.729 C 19.680 15.729,20.197 15.600,20.788 15.281 C 21.451 14.923,21.922 14.453,22.279 13.792 C 22.600 13.197,22.729 12.682,22.729 12.000 C 22.729 11.320,22.600 10.803,22.281 10.212 C 21.832 9.381,21.122 8.779,20.215 8.463 C 19.793 8.316,19.149 8.230,18.740 8.266 M19.578 9.821 C 19.949 9.918,20.274 10.112,20.581 10.419 C 21.041 10.879,21.240 11.356,21.240 12.000 C 21.240 12.644,21.041 13.121,20.581 13.581 C 20.121 14.041,19.644 14.240,19.000 14.240 C 18.356 14.240,17.879 14.041,17.419 13.581 C 16.959 13.121,16.760 12.644,16.760 12.000 C 16.760 11.356,16.959 10.879,17.419 10.419 C 17.719 10.118,18.050 9.919,18.404 9.823 C 18.692 9.746,19.285 9.745,19.578 9.821 M5.578 16.821 C 5.949 16.918,6.274 17.112,6.581 17.419 C 7.041 17.879,7.240 18.356,7.240 19.000 C 7.240 19.644,7.041 20.121,6.581 20.581 C 6.121 21.041,5.644 21.240,5.000 21.240 C 4.356 21.240,3.879 21.041,3.419 20.581 C 2.959 20.121,2.760 19.644,2.760 19.000 C 2.760 18.356,2.959 17.879,3.419 17.419 C 3.719 17.118,4.050 16.919,4.404 16.823 C 4.692 16.746,5.285 16.745,5.578 16.821 " stroke="none" fill-rule="evenodd" fill="black"></path></svg>