<svg width="24" height="24" viewBox="0 0 24 24" fill="none" xmlns="http://www.w3.org/2000/svg"><path d="M8.080 1.282 C 4.042 1.493,1.931 3.265,1.398 6.891 C 1.310 7.494,1.225 8.895,1.264 9.113 C 1.278 9.194,1.325 9.318,1.368 9.389 C 1.658 9.870,2.422 9.836,2.661 9.332 C 2.718 9.212,2.740 9.022,2.765 8.423 C 2.900 5.187,3.905 3.654,6.288 3.044 C 7.337 2.776,7.247 2.780,12.000 2.780 C 15.936 2.780,16.339 2.786,16.760 2.852 C 19.558 3.288,20.712 4.442,21.148 7.240 C 21.214 7.661,21.220 8.064,21.220 12.000 C 21.220 15.936,21.214 16.339,21.148 16.760 C 20.712 19.558,19.558 20.712,16.760 21.148 C 16.339 21.214,15.936 21.220,12.000 21.220 C 8.064 21.220,7.661 21.214,7.240 21.148 C 4.756 20.761,3.576 19.795,3.044 17.712 C 2.820 16.836,2.790 16.494,2.764 14.580 C 2.737 12.657,2.744 12.710,2.494 12.473 C 2.217 12.211,1.783 12.211,1.506 12.473 C 1.266 12.700,1.261 12.728,1.247 13.860 C 1.223 15.666,1.335 17.079,1.575 18.027 C 2.267 20.757,3.971 22.193,7.027 22.622 C 7.786 22.728,8.902 22.759,12.000 22.759 C 15.098 22.759,16.214 22.728,16.973 22.622 C 19.443 22.275,20.996 21.288,21.897 19.490 C 22.379 18.530,22.638 17.369,22.720 15.807 C 22.771 14.838,22.771 9.162,22.720 8.193 C 22.657 6.998,22.521 6.191,22.242 5.356 C 21.632 3.531,20.469 2.367,18.650 1.760 C 17.788 1.473,17.023 1.344,15.806 1.280 C 14.952 1.235,8.952 1.237,8.080 1.282 M7.350 5.282 C 5.962 5.444,4.916 6.717,5.014 8.126 C 5.081 9.077,5.648 9.938,6.477 10.344 L 6.795 10.500 6.797 12.124 L 6.800 13.748 6.550 13.855 C 5.883 14.140,5.329 14.757,5.109 15.460 C 4.986 15.856,4.986 16.544,5.109 16.940 C 5.354 17.724,5.997 18.375,6.771 18.622 C 7.182 18.753,7.791 18.770,8.200 18.662 C 8.882 18.482,9.532 17.946,9.833 17.316 C 10.026 16.910,10.080 16.668,10.080 16.200 C 10.080 15.732,10.026 15.490,9.833 15.084 C 9.706 14.819,9.604 14.680,9.346 14.419 C 9.073 14.143,8.960 14.061,8.651 13.915 L 8.282 13.740 8.291 12.165 L 8.300 10.591 8.526 10.521 C 9.301 10.281,10.014 9.570,10.259 8.794 C 10.862 6.888,9.339 5.050,7.350 5.282 M13.837 5.286 C 13.675 5.330,11.754 6.903,11.620 7.102 C 11.559 7.192,11.540 7.286,11.540 7.500 C 11.540 7.714,11.559 7.808,11.620 7.898 C 11.664 7.963,12.148 8.389,12.695 8.845 C 13.475 9.494,13.728 9.683,13.862 9.716 C 14.237 9.811,14.587 9.633,14.738 9.271 C 14.862 8.973,14.789 8.694,14.516 8.430 L 14.320 8.240 14.916 8.240 C 15.442 8.240,15.522 8.249,15.606 8.316 L 15.700 8.393 15.709 11.066 L 15.719 13.740 15.349 13.915 C 15.040 14.062,14.927 14.143,14.654 14.419 C 14.135 14.944,13.920 15.465,13.920 16.200 C 13.920 16.668,13.974 16.910,14.167 17.316 C 14.468 17.946,15.128 18.489,15.805 18.665 C 16.209 18.771,16.821 18.752,17.229 18.622 C 18.003 18.375,18.646 17.724,18.891 16.940 C 19.014 16.544,19.014 15.856,18.891 15.460 C 18.672 14.758,18.117 14.140,17.452 13.855 L 17.203 13.749 17.191 10.945 C 17.177 7.824,17.191 7.981,16.898 7.540 C 16.715 7.264,16.381 6.991,16.080 6.872 C 15.887 6.795,15.764 6.782,15.094 6.769 L 14.328 6.753 14.520 6.566 C 14.788 6.306,14.862 6.025,14.738 5.729 C 14.586 5.366,14.214 5.183,13.837 5.286 M8.229 6.874 C 8.638 7.084,8.887 7.495,8.887 7.958 C 8.887 8.630,8.378 9.135,7.700 9.135 C 7.027 9.135,6.514 8.631,6.511 7.966 C 6.508 7.441,6.814 6.999,7.308 6.815 C 7.530 6.733,8.014 6.763,8.229 6.874 M7.885 15.201 C 7.965 15.223,8.116 15.317,8.221 15.409 C 8.786 15.906,8.712 16.695,8.060 17.111 C 7.939 17.189,7.832 17.218,7.611 17.232 C 7.357 17.248,7.296 17.237,7.103 17.143 C 6.729 16.960,6.512 16.614,6.512 16.200 C 6.512 15.486,7.175 15.003,7.885 15.201 M16.911 15.263 C 17.529 15.571,17.681 16.368,17.224 16.908 C 17.165 16.978,17.018 17.084,16.897 17.143 C 16.704 17.237,16.643 17.248,16.389 17.232 C 16.168 17.218,16.061 17.189,15.940 17.111 C 15.288 16.694,15.214 15.907,15.780 15.408 C 16.002 15.213,16.126 15.169,16.462 15.164 C 16.647 15.161,16.753 15.184,16.911 15.263 " stroke="none" fill-rule="evenodd" fill="black"></path></svg>