<svg width="24" height="24" viewBox="0 0 24 24" fill="none" xmlns="http://www.w3.org/2000/svg"><path d="M4.740 1.266 C 3.415 1.385,2.327 2.085,1.719 3.212 C 1.400 3.803,1.271 4.320,1.271 5.000 C 1.271 5.680,1.400 6.197,1.719 6.788 C 2.236 7.745,2.984 8.313,4.190 8.663 C 4.229 8.674,4.240 9.332,4.240 11.780 C 4.240 14.700,4.236 14.884,4.170 14.903 C 3.067 15.234,2.174 15.978,1.680 16.980 C 1.445 17.456,1.332 17.850,1.284 18.362 C 1.103 20.288,2.293 22.044,4.141 22.579 C 5.862 23.078,7.674 22.378,8.653 20.835 C 8.867 20.499,9.065 19.987,9.158 19.532 C 9.573 17.496,8.329 15.464,6.330 14.911 C 6.116 14.852,6.001 14.800,6.000 14.763 C 6.000 14.671,6.275 14.196,6.459 13.972 C 6.801 13.554,7.249 13.202,7.694 13.000 C 8.261 12.743,8.193 12.749,10.840 12.720 C 12.823 12.698,13.325 12.681,13.620 12.628 C 14.451 12.476,15.161 12.232,15.403 12.012 C 15.897 11.566,15.566 10.734,14.900 10.747 C 14.781 10.750,14.574 10.800,14.389 10.873 C 13.564 11.194,12.917 11.256,10.760 11.219 C 8.992 11.190,8.397 11.222,7.799 11.382 C 7.166 11.552,6.419 11.947,5.949 12.361 L 5.760 12.527 5.760 10.602 C 5.760 9.097,5.771 8.674,5.810 8.663 C 7.016 8.313,7.764 7.745,8.281 6.788 C 8.600 6.197,8.729 5.680,8.729 5.000 C 8.729 4.320,8.600 3.803,8.281 3.212 C 7.832 2.381,7.122 1.779,6.215 1.463 C 5.793 1.316,5.149 1.230,4.740 1.266 M18.740 1.266 C 17.415 1.385,16.327 2.085,15.719 3.212 C 15.400 3.803,15.271 4.320,15.271 5.000 C 15.271 5.682,15.400 6.197,15.721 6.792 C 16.078 7.453,16.549 7.923,17.212 8.281 C 17.803 8.600,18.320 8.729,19.000 8.729 C 19.680 8.729,20.197 8.600,20.788 8.281 C 21.451 7.923,21.922 7.453,22.279 6.792 C 22.600 6.197,22.729 5.682,22.729 5.000 C 22.729 4.320,22.600 3.803,22.281 3.212 C 21.832 2.381,21.122 1.779,20.215 1.463 C 19.793 1.316,19.149 1.230,18.740 1.266 M5.578 2.821 C 5.949 2.918,6.274 3.112,6.581 3.419 C 7.041 3.879,7.240 4.356,7.240 5.000 C 7.240 5.644,7.041 6.121,6.581 6.581 C 6.121 7.041,5.644 7.240,5.000 7.240 C 4.356 7.240,3.879 7.041,3.419 6.581 C 2.959 6.121,2.760 5.644,2.760 5.000 C 2.760 4.356,2.959 3.879,3.419 3.419 C 3.719 3.118,4.050 2.919,4.404 2.823 C 4.692 2.746,5.285 2.745,5.578 2.821 M19.578 2.821 C 19.949 2.918,20.274 3.112,20.581 3.419 C 21.041 3.879,21.240 4.356,21.240 5.000 C 21.240 5.644,21.041 6.121,20.581 6.581 C 20.121 7.041,19.644 7.240,19.000 7.240 C 18.356 7.240,17.879 7.041,17.419 6.581 C 16.959 6.121,16.760 5.644,16.760 5.000 C 16.760 4.356,16.959 3.879,17.419 3.419 C 17.719 3.118,18.050 2.919,18.404 2.823 C 18.692 2.746,19.285 2.745,19.578 2.821 M6.000 16.357 C 6.729 16.583,7.416 17.268,7.642 17.997 C 7.918 18.887,7.672 19.859,7.002 20.520 C 6.669 20.849,6.281 21.074,5.862 21.180 C 5.559 21.256,4.974 21.256,4.650 21.180 C 3.800 20.979,3.021 20.200,2.820 19.350 C 2.744 19.026,2.744 18.441,2.820 18.138 C 3.045 17.249,3.816 16.503,4.720 16.299 C 5.060 16.223,5.654 16.249,6.000 16.357 " stroke="none" fill-rule="evenodd" fill="black"></path></svg>