<svg width="24" height="24" viewBox="0 0 24 24" fill="none" xmlns="http://www.w3.org/2000/svg"><path d="M4.851 1.283 C 3.734 1.390,2.721 1.969,2.034 2.893 C 1.464 3.658,1.191 4.654,1.283 5.625 C 1.332 6.150,1.443 6.541,1.680 7.020 C 2.174 8.022,3.067 8.766,4.170 9.097 C 4.236 9.116,4.240 9.300,4.240 12.220 C 4.240 14.668,4.229 15.326,4.190 15.337 C 2.984 15.687,2.236 16.255,1.719 17.212 C 1.400 17.803,1.271 18.320,1.271 19.000 C 1.271 19.682,1.400 20.197,1.721 20.792 C 2.078 21.453,2.549 21.923,3.212 22.281 C 3.803 22.600,4.320 22.729,5.000 22.729 C 5.680 22.729,6.197 22.600,6.788 22.281 C 7.451 21.923,7.922 21.453,8.279 20.792 C 8.600 20.197,8.729 19.682,8.729 19.000 C 8.729 18.320,8.600 17.803,8.281 17.212 C 7.764 16.255,7.016 15.687,5.810 15.337 C 5.771 15.326,5.760 14.903,5.760 13.398 L 5.760 11.473 5.949 11.639 C 6.419 12.054,7.166 12.448,7.800 12.618 C 8.366 12.769,8.984 12.802,11.100 12.790 C 13.267 12.779,13.353 12.787,14.257 13.081 C 14.804 13.258,14.947 13.272,15.180 13.165 C 15.370 13.077,15.456 12.988,15.538 12.790 C 15.668 12.481,15.555 12.070,15.293 11.896 C 15.153 11.803,14.603 11.604,14.200 11.499 C 13.529 11.325,13.300 11.311,10.820 11.281 C 8.197 11.251,8.258 11.256,7.694 11.000 C 7.249 10.798,6.815 10.455,6.454 10.020 C 6.275 9.804,6.000 9.329,6.000 9.237 C 6.001 9.200,6.116 9.148,6.330 9.089 C 8.329 8.536,9.573 6.504,9.158 4.468 C 8.744 2.440,6.913 1.086,4.851 1.283 M5.862 2.820 C 6.540 2.992,7.167 3.498,7.474 4.120 C 7.692 4.563,7.775 4.955,7.745 5.403 C 7.701 6.050,7.482 6.531,7.014 7.005 C 6.231 7.798,5.136 7.975,4.120 7.474 C 3.498 7.167,2.992 6.540,2.820 5.862 C 2.744 5.559,2.744 4.974,2.820 4.650 C 3.018 3.810,3.796 3.025,4.632 2.822 C 4.942 2.747,5.568 2.746,5.862 2.820 M18.740 15.266 C 17.415 15.385,16.327 16.085,15.719 17.212 C 15.400 17.803,15.271 18.320,15.271 19.000 C 15.271 19.682,15.400 20.197,15.721 20.792 C 16.078 21.453,16.549 21.923,17.212 22.281 C 17.803 22.600,18.320 22.729,19.000 22.729 C 19.680 22.729,20.197 22.600,20.788 22.281 C 21.451 21.923,21.922 21.453,22.279 20.792 C 22.600 20.197,22.729 19.682,22.729 19.000 C 22.729 18.320,22.600 17.803,22.281 17.212 C 21.832 16.381,21.122 15.779,20.215 15.463 C 19.793 15.316,19.149 15.230,18.740 15.266 M5.578 16.821 C 5.949 16.918,6.274 17.112,6.581 17.419 C 7.041 17.879,7.240 18.356,7.240 19.000 C 7.240 19.644,7.041 20.121,6.581 20.581 C 6.121 21.041,5.644 21.240,5.000 21.240 C 4.356 21.240,3.879 21.041,3.419 20.581 C 2.959 20.121,2.760 19.644,2.760 19.000 C 2.760 18.356,2.959 17.879,3.419 17.419 C 3.719 17.118,4.050 16.919,4.404 16.823 C 4.692 16.746,5.285 16.745,5.578 16.821 M19.578 16.821 C 19.949 16.918,20.274 17.112,20.581 17.419 C 21.041 17.879,21.240 18.356,21.240 19.000 C 21.240 19.644,21.041 20.121,20.581 20.581 C 20.121 21.041,19.644 21.240,19.000 21.240 C 18.356 21.240,17.879 21.041,17.419 20.581 C 16.959 20.121,16.760 19.644,16.760 19.000 C 16.760 18.356,16.959 17.879,17.419 17.419 C 17.719 17.118,18.050 16.919,18.404 16.823 C 18.692 16.746,19.285 16.745,19.578 16.821 " stroke="none" fill-rule="evenodd" fill="black"></path></svg>