<svg width="24" height="24" viewBox="0 0 24 24" fill="none" xmlns="http://www.w3.org/2000/svg"><path d="M11.342 1.482 C 10.872 1.556,10.370 1.737,9.989 1.970 C 9.706 2.143,2.678 7.769,2.397 8.047 C 1.900 8.539,1.481 9.366,1.317 10.180 C 1.290 10.312,1.268 10.637,1.268 10.901 C 1.269 11.450,1.333 11.663,1.556 11.850 C 1.901 12.140,2.450 12.041,2.670 11.649 C 2.749 11.509,2.760 11.434,2.757 11.035 C 2.754 10.536,2.792 10.312,2.945 9.932 C 3.108 9.525,3.243 9.314,3.499 9.071 C 3.632 8.944,5.303 7.590,7.214 6.061 C 9.682 4.085,10.759 3.247,10.934 3.165 C 11.278 3.003,11.559 2.946,12.000 2.946 C 12.445 2.947,12.790 3.027,13.130 3.209 C 13.382 3.343,20.293 8.847,20.578 9.141 C 20.921 9.493,21.196 10.170,21.227 10.740 C 21.246 11.070,21.191 11.437,20.562 15.193 C 20.172 17.522,19.843 19.376,19.798 19.495 C 19.631 19.943,19.279 20.370,18.843 20.655 C 18.482 20.891,18.217 20.994,17.851 21.043 C 17.647 21.069,15.559 21.080,11.780 21.072 L 6.020 21.060 5.760 20.967 C 5.037 20.707,4.447 20.150,4.202 19.496 C 4.156 19.374,3.971 18.374,3.781 17.218 C 3.594 16.084,3.415 15.108,3.384 15.048 C 3.136 14.575,2.520 14.496,2.171 14.894 C 1.926 15.172,1.924 15.131,2.297 17.384 C 2.682 19.708,2.681 19.700,2.843 20.122 C 3.256 21.193,4.343 22.138,5.520 22.450 L 5.860 22.540 12.000 22.540 C 17.722 22.540,18.159 22.535,18.413 22.470 C 19.787 22.117,20.977 20.972,21.298 19.694 C 21.331 19.565,21.666 17.624,22.043 15.380 C 22.774 11.026,22.800 10.816,22.682 10.217 C 22.499 9.294,22.061 8.468,21.460 7.916 C 21.194 7.671,14.489 2.312,14.172 2.090 C 13.839 1.857,13.396 1.658,12.993 1.558 C 12.608 1.464,11.719 1.422,11.342 1.482 M11.619 9.814 C 11.196 10.076,11.143 10.697,11.518 11.012 C 11.680 11.149,11.831 11.189,12.280 11.215 C 13.483 11.284,14.583 11.771,15.578 12.675 C 15.850 12.921,16.009 13.000,16.236 13.000 C 16.524 13.000,16.771 12.846,16.909 12.581 C 16.989 12.428,16.989 12.092,16.910 11.939 C 16.774 11.676,16.041 11.066,15.397 10.678 C 14.401 10.078,13.412 9.773,12.340 9.735 C 11.796 9.715,11.775 9.718,11.619 9.814 M8.365 10.821 C 8.133 10.954,7.595 11.377,7.313 11.648 C 7.059 11.893,6.974 12.103,7.018 12.378 C 7.094 12.858,7.647 13.143,8.072 12.923 C 8.153 12.881,8.337 12.741,8.481 12.613 C 8.625 12.485,8.873 12.283,9.033 12.165 C 9.362 11.921,9.480 11.737,9.480 11.464 C 9.480 11.240,9.425 11.092,9.287 10.945 C 9.057 10.699,8.670 10.647,8.365 10.821 M11.640 12.743 C 11.585 12.753,11.432 12.780,11.300 12.804 C 10.648 12.921,9.975 13.274,9.447 13.776 C 9.219 13.992,9.149 14.135,9.149 14.380 C 9.149 14.801,9.465 15.120,9.884 15.120 C 10.096 15.120,10.262 15.044,10.488 14.843 C 11.408 14.027,12.592 14.027,13.512 14.843 C 13.738 15.044,13.904 15.120,14.116 15.120 C 14.535 15.120,14.851 14.801,14.851 14.380 C 14.851 14.130,14.781 13.992,14.533 13.757 C 14.046 13.294,13.457 12.976,12.800 12.821 C 12.535 12.759,11.822 12.711,11.640 12.743 M11.600 15.584 C 11.267 15.728,11.001 16.135,11.001 16.500 C 11.001 16.870,11.270 17.277,11.609 17.418 C 11.691 17.452,11.867 17.480,12.000 17.480 C 12.419 17.480,12.722 17.286,12.905 16.900 C 13.134 16.415,12.891 15.790,12.391 15.582 C 12.203 15.503,11.783 15.504,11.600 15.584 " stroke="none" fill-rule="evenodd" fill="black"></path></svg>