<svg width="24" height="24" viewBox="0 0 24 24" fill="none" xmlns="http://www.w3.org/2000/svg"><path d="M11.342 1.482 C 10.872 1.556,10.370 1.737,9.989 1.970 C 9.706 2.143,2.678 7.769,2.397 8.047 C 2.007 8.434,1.654 9.041,1.449 9.680 C 1.176 10.528,1.189 10.816,1.615 13.360 C 1.805 14.493,1.980 15.497,2.005 15.590 C 2.091 15.911,2.477 16.156,2.814 16.103 C 3.177 16.045,3.440 15.742,3.440 15.380 C 3.440 15.279,3.286 14.275,3.098 13.149 C 2.909 12.017,2.756 10.983,2.756 10.838 C 2.757 10.202,3.055 9.493,3.499 9.071 C 3.632 8.944,5.302 7.591,7.211 6.063 C 9.700 4.071,10.753 3.252,10.931 3.168 C 11.282 3.004,11.562 2.946,12.000 2.946 C 12.445 2.947,12.790 3.027,13.128 3.208 C 13.390 3.347,20.298 8.852,20.578 9.144 C 20.929 9.510,21.195 10.166,21.227 10.740 C 21.246 11.071,21.191 11.435,20.561 15.195 C 20.175 17.500,19.841 19.380,19.798 19.497 C 19.631 19.943,19.278 20.371,18.843 20.655 C 18.482 20.891,18.217 20.994,17.851 21.043 C 17.647 21.069,15.559 21.080,11.780 21.072 L 6.020 21.060 5.760 20.967 C 5.348 20.819,5.082 20.648,4.759 20.323 C 4.414 19.977,4.244 19.684,4.121 19.223 C 3.981 18.702,3.774 18.507,3.360 18.507 C 2.995 18.507,2.741 18.705,2.644 19.066 C 2.589 19.270,2.659 19.645,2.842 20.118 C 3.256 21.193,4.341 22.138,5.520 22.450 L 5.860 22.540 12.000 22.540 L 18.140 22.540 18.467 22.453 C 19.819 22.092,20.979 20.961,21.298 19.694 C 21.331 19.565,21.666 17.624,22.043 15.380 C 22.774 11.026,22.800 10.816,22.682 10.217 C 22.499 9.294,22.061 8.468,21.460 7.916 C 21.194 7.671,14.489 2.312,14.172 2.090 C 13.839 1.857,13.396 1.658,12.993 1.558 C 12.608 1.464,11.719 1.422,11.342 1.482 M11.405 9.805 C 10.790 9.907,10.216 10.217,9.716 10.716 C 9.065 11.368,8.761 12.095,8.761 13.000 C 8.761 13.905,9.065 14.632,9.716 15.284 C 10.368 15.935,11.095 16.239,12.000 16.239 C 12.905 16.239,13.632 15.935,14.284 15.284 C 14.914 14.653,15.239 13.902,15.240 13.073 C 15.240 12.801,15.192 12.659,15.047 12.506 C 14.889 12.339,14.727 12.269,14.499 12.269 C 14.276 12.269,14.158 12.316,13.987 12.475 C 13.821 12.629,13.798 12.688,13.742 13.118 C 13.678 13.611,13.552 13.890,13.255 14.202 C 12.580 14.910,11.508 14.932,10.798 14.255 C 10.071 13.561,10.071 12.439,10.798 11.745 C 11.110 11.448,11.389 11.322,11.882 11.258 C 12.312 11.202,12.371 11.179,12.525 11.013 C 12.684 10.842,12.731 10.724,12.731 10.501 C 12.731 10.193,12.540 9.906,12.267 9.803 C 12.136 9.753,11.712 9.754,11.405 9.805 " stroke="none" fill-rule="evenodd" fill="black"></path></svg>