<svg width="24" height="24" viewBox="0 0 24 24" fill="none" xmlns="http://www.w3.org/2000/svg"><path d="M10.940 1.305 C 10.043 1.440,9.396 1.680,8.775 2.106 C 8.172 2.520,3.084 6.516,2.799 6.800 C 2.414 7.184,2.167 7.537,1.852 8.155 C 1.592 8.665,1.402 9.208,1.312 9.700 C 1.272 9.917,1.260 10.915,1.260 14.120 C 1.260 17.920,1.266 18.291,1.331 18.637 C 1.679 20.478,3.013 21.980,4.778 22.518 C 5.460 22.725,5.264 22.720,12.000 22.720 C 17.336 22.720,18.320 22.711,18.607 22.661 C 20.309 22.364,21.741 21.213,22.381 19.625 C 22.709 18.814,22.771 18.215,22.753 16.040 C 22.741 14.569,22.736 14.493,22.656 14.340 C 22.610 14.252,22.499 14.127,22.408 14.063 C 22.270 13.966,22.203 13.947,22.003 13.947 C 21.718 13.947,21.506 14.065,21.355 14.307 L 21.260 14.460 21.237 16.440 C 21.211 18.657,21.218 18.596,20.904 19.260 C 20.487 20.141,19.709 20.805,18.740 21.108 L 18.380 21.220 12.000 21.220 L 5.620 21.220 5.260 21.108 C 4.291 20.805,3.531 20.157,3.101 19.266 C 2.759 18.555,2.784 18.944,2.770 14.240 C 2.756 9.613,2.745 9.833,3.016 9.173 C 3.212 8.698,3.502 8.233,3.799 7.919 C 4.035 7.670,9.319 3.515,9.738 3.249 C 9.970 3.102,10.392 2.937,10.748 2.853 C 10.984 2.798,11.206 2.781,11.660 2.784 C 12.356 2.790,12.707 2.864,13.200 3.112 C 13.628 3.327,19.708 7.595,20.063 7.930 C 20.472 8.316,20.841 8.896,21.049 9.480 C 21.166 9.806,21.195 9.942,21.240 10.352 C 21.283 10.755,21.332 10.882,21.506 11.047 C 21.783 11.309,22.217 11.309,22.494 11.047 C 22.694 10.858,22.737 10.733,22.730 10.356 C 22.718 9.725,22.526 9.021,22.179 8.337 C 21.869 7.725,21.622 7.379,21.181 6.939 C 20.819 6.576,20.464 6.317,17.500 4.244 C 15.696 2.983,14.085 1.881,13.920 1.796 C 13.584 1.623,13.159 1.473,12.740 1.379 C 12.466 1.317,11.202 1.265,10.940 1.305 M11.698 14.315 C 11.517 14.398,11.335 14.593,11.290 14.753 C 11.273 14.812,11.260 15.607,11.260 16.520 L 11.260 18.180 11.360 18.354 C 11.494 18.590,11.723 18.720,12.000 18.720 C 12.277 18.720,12.506 18.590,12.640 18.354 L 12.740 18.180 12.740 16.520 C 12.740 15.607,12.727 14.812,12.710 14.753 C 12.637 14.491,12.290 14.242,12.000 14.242 C 11.923 14.242,11.787 14.275,11.698 14.315 " stroke="none" fill-rule="evenodd" fill="black"></path></svg>