<svg width="24" height="24" viewBox="0 0 24 24" fill="none" xmlns="http://www.w3.org/2000/svg"><path d="M11.342 1.482 C 10.872 1.556,10.370 1.737,9.989 1.970 C 9.706 2.143,2.678 7.769,2.397 8.047 C 1.901 8.539,1.483 9.363,1.316 10.180 C 1.194 10.778,1.224 11.021,1.936 15.280 C 2.302 17.469,2.629 19.384,2.662 19.536 C 2.807 20.184,3.118 20.774,3.583 21.277 C 4.075 21.810,4.830 22.267,5.520 22.450 L 5.860 22.540 12.000 22.540 L 18.140 22.540 18.467 22.453 C 19.654 22.136,20.748 21.183,21.164 20.103 C 21.439 19.391,21.437 18.997,21.160 18.720 C 20.836 18.396,20.298 18.437,20.036 18.805 C 19.990 18.871,19.917 19.060,19.876 19.226 C 19.731 19.806,19.365 20.314,18.849 20.651 C 18.482 20.890,18.218 20.994,17.851 21.043 C 17.647 21.069,15.559 21.080,11.780 21.072 L 6.020 21.060 5.760 20.967 C 5.037 20.707,4.447 20.150,4.202 19.496 C 4.154 19.367,3.843 17.619,3.437 15.190 C 2.801 11.388,2.754 11.073,2.772 10.720 C 2.804 10.092,3.063 9.497,3.480 9.092 C 3.623 8.954,5.302 7.590,7.211 6.062 C 9.699 4.072,10.753 3.252,10.931 3.168 C 11.282 3.004,11.562 2.946,12.000 2.946 C 12.445 2.947,12.790 3.027,13.128 3.208 C 13.380 3.342,20.293 8.847,20.578 9.140 C 20.913 9.485,21.193 10.166,21.228 10.720 C 21.247 11.019,21.210 11.297,20.919 13.050 C 20.554 15.236,20.556 15.206,20.786 15.480 C 21.115 15.871,21.778 15.801,21.995 15.351 C 22.051 15.233,22.178 14.574,22.402 13.240 C 22.804 10.842,22.816 10.554,22.553 9.720 C 22.310 8.952,21.961 8.376,21.460 7.916 C 21.194 7.671,14.489 2.312,14.172 2.090 C 13.839 1.857,13.396 1.658,12.993 1.558 C 12.608 1.464,11.719 1.422,11.342 1.482 M11.815 14.277 C 11.638 14.321,11.461 14.456,11.353 14.631 L 11.260 14.780 11.260 16.500 L 11.260 18.220 11.353 18.369 C 11.710 18.943,12.576 18.812,12.716 18.162 C 12.773 17.894,12.774 15.090,12.717 14.841 C 12.623 14.432,12.215 14.177,11.815 14.277 " stroke="none" fill-rule="evenodd" fill="black"></path></svg>