<svg width="24" height="24" viewBox="0 0 24 24" fill="none" xmlns="http://www.w3.org/2000/svg"><path d="M10.940 1.305 C 10.043 1.440,9.396 1.680,8.775 2.106 C 8.172 2.520,3.084 6.516,2.799 6.800 C 2.414 7.184,2.167 7.537,1.852 8.155 C 1.592 8.665,1.402 9.208,1.312 9.700 C 1.272 9.917,1.260 10.915,1.260 14.120 C 1.260 17.920,1.266 18.291,1.331 18.637 C 1.679 20.478,3.013 21.980,4.778 22.518 C 5.460 22.725,5.264 22.720,12.000 22.720 C 17.336 22.720,18.320 22.711,18.607 22.661 C 20.309 22.364,21.741 21.213,22.381 19.625 C 22.709 18.814,22.771 18.215,22.753 16.040 C 22.741 14.569,22.736 14.493,22.656 14.340 C 22.610 14.252,22.499 14.127,22.408 14.063 C 22.270 13.966,22.203 13.947,22.003 13.947 C 21.718 13.947,21.506 14.065,21.355 14.307 L 21.260 14.460 21.237 16.440 C 21.211 18.657,21.218 18.596,20.904 19.260 C 20.487 20.141,19.709 20.805,18.740 21.108 L 18.380 21.220 12.000 21.220 L 5.620 21.220 5.260 21.108 C 4.291 20.805,3.531 20.157,3.101 19.266 C 2.759 18.555,2.784 18.944,2.770 14.240 C 2.756 9.613,2.745 9.833,3.016 9.173 C 3.212 8.698,3.502 8.233,3.799 7.919 C 4.035 7.670,9.319 3.515,9.738 3.249 C 9.970 3.102,10.392 2.937,10.748 2.853 C 10.984 2.798,11.206 2.781,11.660 2.784 C 12.356 2.790,12.707 2.864,13.200 3.112 C 13.628 3.327,19.708 7.595,20.063 7.930 C 20.472 8.316,20.841 8.896,21.049 9.480 C 21.166 9.806,21.195 9.942,21.240 10.352 C 21.283 10.755,21.332 10.882,21.506 11.047 C 21.783 11.309,22.217 11.309,22.494 11.047 C 22.694 10.858,22.737 10.733,22.730 10.356 C 22.718 9.725,22.526 9.021,22.179 8.337 C 21.869 7.725,21.622 7.379,21.181 6.939 C 20.819 6.576,20.464 6.317,17.500 4.244 C 15.696 2.983,14.085 1.881,13.920 1.796 C 13.584 1.623,13.159 1.473,12.740 1.379 C 12.466 1.317,11.202 1.265,10.940 1.305 M7.180 10.835 C 6.990 10.923,6.904 11.012,6.822 11.210 C 6.740 11.406,6.745 11.625,6.837 11.820 C 6.942 12.044,10.204 15.294,10.409 15.379 C 10.617 15.465,10.833 15.455,11.042 15.350 C 11.190 15.275,11.275 15.178,11.548 14.771 C 11.963 14.152,12.010 13.923,11.789 13.598 C 11.537 13.227,11.097 13.153,10.711 13.415 L 10.570 13.511 9.275 12.211 C 8.431 11.364,7.924 10.886,7.820 10.837 C 7.617 10.742,7.385 10.741,7.180 10.835 M13.815 13.278 C 13.640 13.320,13.462 13.455,13.356 13.626 C 13.253 13.793,13.233 14.156,13.318 14.320 C 13.347 14.375,13.669 14.722,14.034 15.090 L 14.697 15.760 14.518 15.761 C 14.321 15.762,14.057 15.867,13.952 15.986 C 13.760 16.201,13.711 16.550,13.835 16.820 C 13.923 17.010,14.012 17.096,14.210 17.178 C 14.415 17.264,16.613 17.270,16.811 17.185 C 16.967 17.118,17.140 16.941,17.197 16.787 C 17.224 16.717,17.240 16.237,17.239 15.507 C 17.238 14.460,17.231 14.323,17.165 14.180 C 17.077 13.990,16.988 13.904,16.790 13.822 C 16.517 13.708,16.131 13.783,15.952 13.986 C 15.843 14.108,15.760 14.343,15.760 14.526 L 15.760 14.695 15.070 14.014 C 14.458 13.410,14.359 13.327,14.192 13.286 C 13.986 13.235,13.993 13.236,13.815 13.278 " stroke="none" fill-rule="evenodd" fill="black"></path></svg>