<svg width="24" height="24" viewBox="0 0 24 24" fill="none" xmlns="http://www.w3.org/2000/svg"><path d="M10.940 1.305 C 10.043 1.440,9.396 1.680,8.775 2.106 C 8.172 2.520,3.084 6.516,2.799 6.800 C 2.414 7.184,2.167 7.537,1.852 8.155 C 1.592 8.665,1.402 9.208,1.312 9.700 C 1.272 9.917,1.260 10.915,1.260 14.120 C 1.260 17.920,1.266 18.291,1.331 18.637 C 1.679 20.478,3.013 21.980,4.778 22.518 C 5.460 22.725,5.264 22.720,12.000 22.720 C 17.336 22.720,18.320 22.711,18.607 22.661 C 20.309 22.364,21.741 21.213,22.381 19.625 C 22.709 18.814,22.771 18.215,22.753 16.040 C 22.741 14.569,22.736 14.493,22.656 14.340 C 22.610 14.252,22.499 14.127,22.408 14.063 C 22.270 13.966,22.203 13.947,22.003 13.947 C 21.718 13.947,21.506 14.065,21.355 14.307 L 21.260 14.460 21.237 16.440 C 21.211 18.657,21.218 18.596,20.904 19.260 C 20.487 20.141,19.709 20.805,18.740 21.108 L 18.380 21.220 12.000 21.220 L 5.620 21.220 5.260 21.108 C 4.291 20.805,3.531 20.157,3.101 19.266 C 2.759 18.555,2.784 18.944,2.770 14.240 C 2.756 9.613,2.745 9.833,3.016 9.173 C 3.212 8.698,3.502 8.233,3.799 7.919 C 4.035 7.670,9.319 3.515,9.738 3.249 C 9.970 3.102,10.392 2.937,10.748 2.853 C 10.984 2.798,11.206 2.781,11.660 2.784 C 12.356 2.790,12.707 2.864,13.200 3.112 C 13.628 3.327,19.708 7.595,20.063 7.930 C 20.472 8.316,20.841 8.896,21.049 9.480 C 21.166 9.806,21.195 9.942,21.240 10.352 C 21.283 10.755,21.332 10.882,21.506 11.047 C 21.783 11.309,22.217 11.309,22.494 11.047 C 22.694 10.858,22.737 10.733,22.730 10.356 C 22.718 9.725,22.526 9.021,22.179 8.337 C 21.869 7.725,21.622 7.379,21.181 6.939 C 20.819 6.576,20.464 6.317,17.500 4.244 C 15.696 2.983,14.085 1.881,13.920 1.796 C 13.584 1.623,13.159 1.473,12.740 1.379 C 12.466 1.317,11.202 1.265,10.940 1.305 M14.180 10.835 C 13.990 10.923,13.904 11.012,13.822 11.210 C 13.708 11.483,13.783 11.869,13.986 12.048 C 14.108 12.157,14.343 12.240,14.527 12.240 L 14.697 12.240 14.034 12.910 C 13.669 13.278,13.347 13.625,13.318 13.680 C 13.290 13.735,13.267 13.881,13.267 14.004 C 13.267 14.499,13.683 14.818,14.189 14.710 C 14.364 14.673,14.438 14.613,15.070 13.987 L 15.760 13.305 15.760 13.474 C 15.760 13.657,15.843 13.892,15.952 14.014 C 16.131 14.217,16.517 14.292,16.790 14.178 C 16.988 14.096,17.077 14.010,17.165 13.820 C 17.231 13.677,17.238 13.540,17.239 12.493 C 17.240 11.763,17.224 11.283,17.197 11.213 C 17.174 11.151,17.107 11.048,17.047 10.985 C 16.845 10.769,16.785 10.760,15.511 10.761 C 14.461 10.762,14.324 10.769,14.180 10.835 M10.380 12.637 C 10.156 12.742,6.906 16.004,6.821 16.209 C 6.743 16.398,6.743 16.603,6.822 16.790 C 6.904 16.988,6.990 17.077,7.180 17.165 C 7.385 17.259,7.617 17.258,7.820 17.163 C 7.924 17.114,8.431 16.636,9.275 15.789 L 10.570 14.490 10.769 14.613 C 11.186 14.872,11.670 14.720,11.858 14.271 C 11.989 13.959,11.920 13.754,11.469 13.100 C 11.276 12.821,11.180 12.720,11.042 12.650 C 10.825 12.541,10.595 12.536,10.380 12.637 " stroke="none" fill-rule="evenodd" fill="black"></path></svg>