<svg width="24" height="24" viewBox="0 0 24 24" fill="none" xmlns="http://www.w3.org/2000/svg"><path d="M6.700 1.267 C 5.352 1.382,4.208 2.152,3.621 3.340 C 3.323 3.942,3.261 4.229,3.261 5.000 C 3.261 5.566,3.274 5.706,3.352 5.980 C 3.744 7.359,4.903 8.428,6.280 8.681 C 6.654 8.749,7.363 8.739,7.740 8.660 C 9.167 8.361,10.291 7.259,10.617 5.840 C 10.709 5.440,10.739 4.957,10.682 4.785 C 10.621 4.601,10.468 4.417,10.306 4.333 C 10.113 4.233,9.799 4.250,9.593 4.370 C 9.350 4.513,9.255 4.704,9.219 5.120 C 9.164 5.769,8.955 6.209,8.494 6.646 C 8.075 7.042,7.566 7.240,6.967 7.240 C 6.001 7.240,5.193 6.677,4.844 5.761 C 4.758 5.534,4.745 5.436,4.745 5.000 C 4.745 4.564,4.758 4.466,4.844 4.239 C 5.111 3.539,5.696 3.001,6.386 2.823 C 6.698 2.743,7.238 2.742,7.521 2.822 C 7.642 2.855,7.814 2.893,7.905 2.906 C 8.473 2.986,8.889 2.396,8.644 1.857 C 8.544 1.635,8.407 1.538,8.027 1.418 C 7.760 1.334,7.050 1.226,6.900 1.248 C 6.878 1.251,6.788 1.260,6.700 1.267 M16.120 7.003 C 15.168 7.113,14.198 7.897,13.584 9.056 C 13.397 9.409,13.477 9.791,13.787 10.028 C 13.916 10.126,13.968 10.140,14.217 10.140 C 14.588 10.140,14.689 10.067,15.015 9.566 C 15.615 8.643,16.220 8.304,16.778 8.577 C 17.088 8.729,17.430 9.117,17.674 9.594 C 17.977 10.187,21.024 17.340,21.117 17.679 C 21.220 18.051,21.228 18.658,21.136 19.037 C 20.935 19.864,20.340 20.602,19.580 20.967 C 18.978 21.255,19.447 21.239,11.956 21.239 C 5.345 21.240,5.207 21.238,4.896 21.160 C 3.903 20.909,3.154 20.183,2.834 19.159 C 2.756 18.909,2.741 18.779,2.744 18.360 C 2.747 17.931,2.763 17.816,2.853 17.552 C 2.993 17.141,4.802 13.527,5.024 13.214 C 5.340 12.768,5.709 12.554,6.160 12.553 C 6.676 12.553,7.070 12.794,7.593 13.434 C 8.292 14.287,8.889 14.719,9.620 14.901 C 9.988 14.992,10.582 14.995,10.920 14.908 C 11.543 14.746,12.228 14.276,12.630 13.733 C 12.889 13.384,13.080 13.024,13.080 12.886 C 13.079 12.385,12.609 11.999,12.152 12.122 C 11.903 12.189,11.826 12.256,11.604 12.598 C 11.188 13.237,10.761 13.503,10.200 13.470 C 9.691 13.441,9.344 13.219,8.855 12.612 C 8.692 12.410,8.445 12.134,8.305 11.999 C 7.210 10.940,5.823 10.756,4.672 11.517 C 4.323 11.748,3.958 12.117,3.699 12.500 C 3.411 12.925,1.586 16.611,1.445 17.050 C 1.084 18.178,1.211 19.476,1.779 20.479 C 2.435 21.636,3.432 22.374,4.740 22.671 C 4.988 22.728,5.765 22.737,11.580 22.750 C 18.369 22.765,18.852 22.756,19.450 22.603 C 21.779 22.006,23.201 19.527,22.540 17.219 C 22.429 16.833,19.258 9.378,18.993 8.880 C 18.277 7.538,17.258 6.871,16.120 7.003 " stroke="none" fill-rule="evenodd" fill="black"></path></svg>