<svg width="24" height="24" viewBox="0 0 24 24" fill="none" xmlns="http://www.w3.org/2000/svg"><path d="M8.080 1.282 C 4.042 1.493,1.931 3.265,1.398 6.891 C 1.310 7.494,1.225 8.895,1.264 9.113 C 1.278 9.194,1.325 9.318,1.368 9.389 C 1.658 9.870,2.422 9.836,2.661 9.332 C 2.718 9.212,2.740 9.022,2.765 8.423 C 2.900 5.188,3.905 3.653,6.288 3.044 C 7.165 2.820,7.506 2.790,9.420 2.764 C 11.037 2.742,11.192 2.734,11.332 2.664 C 11.928 2.369,11.832 1.448,11.189 1.286 C 10.982 1.234,9.049 1.232,8.080 1.282 M21.780 1.288 C 21.640 1.324,21.119 1.829,17.692 5.252 L 13.764 9.175 13.752 7.577 L 13.740 5.980 13.640 5.806 C 13.359 5.314,12.641 5.314,12.360 5.806 L 12.260 5.980 12.260 8.607 L 12.260 11.233 12.380 11.403 C 12.446 11.496,12.572 11.610,12.660 11.656 C 12.817 11.739,12.861 11.740,15.420 11.740 L 18.020 11.740 18.200 11.634 C 18.688 11.347,18.684 10.640,18.194 10.360 L 18.020 10.260 16.423 10.248 L 14.825 10.236 18.750 6.308 C 21.575 3.481,22.684 2.346,22.706 2.260 C 22.868 1.643,22.381 1.133,21.780 1.288 M1.720 12.285 C 1.591 12.336,1.411 12.508,1.326 12.660 C 1.180 12.924,1.229 15.958,1.398 17.107 C 1.798 19.826,3.072 21.478,5.356 22.242 C 6.191 22.521,6.998 22.657,8.193 22.720 C 9.162 22.771,14.838 22.771,15.807 22.720 C 17.002 22.657,17.809 22.521,18.644 22.242 C 20.966 21.466,22.225 19.797,22.622 16.973 C 22.749 16.066,22.812 13.287,22.716 12.838 C 22.575 12.182,21.713 12.051,21.353 12.631 C 21.260 12.779,21.260 12.788,21.235 14.580 C 21.207 16.526,21.184 16.785,20.960 17.688 C 20.504 19.519,19.520 20.504,17.688 20.960 C 16.622 21.226,16.745 21.220,12.000 21.220 C 8.064 21.220,7.661 21.214,7.240 21.148 C 4.756 20.761,3.576 19.795,3.044 17.712 C 2.820 16.833,2.790 16.496,2.764 14.560 C 2.743 13.008,2.731 12.765,2.673 12.660 C 2.586 12.502,2.407 12.335,2.267 12.283 C 2.129 12.230,1.854 12.231,1.720 12.285 " stroke="none" fill-rule="evenodd" fill="black"></path></svg>