<svg width="24" height="24" viewBox="0 0 24 24" fill="none" xmlns="http://www.w3.org/2000/svg"><path d="M11.815 3.277 C 11.638 3.321,11.461 3.456,11.353 3.631 C 11.261 3.778,11.260 3.794,11.260 4.980 C 11.260 6.166,11.261 6.182,11.353 6.329 C 11.710 6.903,12.576 6.772,12.716 6.122 C 12.772 5.861,12.773 4.083,12.717 3.841 C 12.623 3.432,12.215 3.177,11.815 3.277 M11.815 8.277 C 11.638 8.321,11.461 8.456,11.353 8.631 L 11.260 8.780 11.248 10.596 L 11.236 12.411 10.528 11.712 C 9.897 11.088,9.800 11.008,9.631 10.966 C 9.295 10.883,8.978 11.012,8.796 11.306 C 8.675 11.503,8.672 11.854,8.791 12.044 C 8.837 12.119,9.493 12.795,10.248 13.546 C 11.548 14.840,11.630 14.913,11.810 14.951 C 11.934 14.977,12.066 14.977,12.190 14.951 C 12.371 14.914,12.449 14.843,13.806 13.486 C 15.163 12.129,15.234 12.051,15.271 11.870 C 15.358 11.446,15.136 11.064,14.746 10.966 C 14.575 10.923,14.490 10.927,14.260 10.989 C 14.216 11.001,13.861 11.327,13.470 11.713 L 12.760 12.415 12.759 10.718 C 12.758 9.697,12.742 8.949,12.717 8.841 C 12.623 8.432,12.215 8.177,11.815 8.277 M3.815 11.277 C 3.638 11.321,3.461 11.456,3.353 11.631 C 3.266 11.770,3.261 11.816,3.270 12.300 C 3.326 15.258,4.715 17.859,7.048 19.376 C 8.562 20.361,10.564 20.844,12.618 20.720 C 14.542 20.604,16.147 20.032,17.540 18.965 C 18.125 18.518,18.251 18.348,18.251 18.014 C 18.251 17.584,17.945 17.280,17.512 17.280 C 17.268 17.280,17.161 17.336,16.740 17.680 C 15.922 18.348,14.974 18.808,13.927 19.043 C 12.709 19.316,11.130 19.306,9.982 19.017 C 8.606 18.671,7.585 18.088,6.682 17.134 C 6.202 16.627,5.884 16.177,5.582 15.580 C 5.086 14.601,4.762 13.319,4.759 12.323 C 4.758 11.941,4.702 11.696,4.580 11.536 C 4.421 11.327,4.078 11.211,3.815 11.277 M19.815 11.278 C 19.641 11.319,19.462 11.455,19.358 11.624 C 19.282 11.745,19.265 11.852,19.238 12.353 C 19.193 13.197,19.119 13.642,18.896 14.414 C 18.740 14.956,18.734 15.039,18.835 15.262 C 19.030 15.691,19.535 15.840,19.922 15.583 C 20.108 15.460,20.194 15.301,20.335 14.820 C 20.566 14.025,20.666 13.434,20.716 12.542 C 20.751 11.925,20.724 11.726,20.580 11.536 C 20.423 11.331,20.080 11.215,19.815 11.278 " stroke="none" fill-rule="evenodd" fill="black"></path></svg>