<svg width="24" height="24" viewBox="0 0 24 24" fill="none" xmlns="http://www.w3.org/2000/svg"><path d="M12.300 1.697 C 11.978 1.771,11.719 1.887,11.403 2.099 C 11.009 2.363,3.702 9.695,3.509 10.020 C 3.430 10.153,3.316 10.405,3.255 10.580 C 3.156 10.868,3.145 10.954,3.145 11.440 C 3.144 11.919,3.156 12.016,3.252 12.303 C 3.311 12.481,3.433 12.742,3.523 12.883 C 3.638 13.064,4.373 13.827,5.994 15.452 C 7.262 16.724,8.383 17.826,8.484 17.902 C 8.962 18.256,9.457 18.413,10.100 18.414 C 10.867 18.415,11.378 18.216,11.985 17.681 C 12.180 17.509,12.952 16.755,13.699 16.004 L 15.059 14.641 17.299 16.878 C 18.843 18.420,19.586 19.135,19.689 19.178 C 20.000 19.308,20.406 19.218,20.594 18.979 C 20.786 18.735,20.803 18.355,20.634 18.107 C 20.587 18.037,19.557 16.986,18.345 15.771 L 16.142 13.561 17.744 11.951 C 18.712 10.977,19.407 10.246,19.500 10.102 C 19.990 9.348,20.058 8.239,19.664 7.428 C 19.491 7.074,19.213 6.716,18.998 6.574 C 18.782 6.431,18.441 6.423,18.226 6.556 C 17.807 6.815,17.747 7.333,18.088 7.743 C 18.345 8.052,18.419 8.247,18.419 8.620 C 18.420 9.172,18.513 9.061,15.930 11.633 L 13.627 13.927 10.624 10.923 L 7.620 7.919 9.920 5.622 C 12.498 3.046,12.382 3.142,12.940 3.141 C 13.435 3.140,13.518 3.194,14.520 4.182 C 14.993 4.649,15.438 5.060,15.508 5.095 C 15.803 5.245,16.223 5.124,16.426 4.832 C 16.521 4.694,16.540 4.626,16.540 4.420 C 16.540 4.215,16.521 4.146,16.428 4.012 C 16.251 3.757,14.684 2.233,14.422 2.061 C 14.291 1.975,14.030 1.851,13.842 1.785 C 13.549 1.683,13.431 1.664,13.020 1.654 C 12.712 1.646,12.454 1.662,12.300 1.697 M9.570 11.990 L 12.560 14.980 11.670 15.866 C 11.181 16.354,10.717 16.785,10.640 16.826 C 10.438 16.932,9.804 16.931,9.580 16.824 C 9.385 16.731,4.924 12.303,4.778 12.057 C 4.576 11.719,4.573 11.172,4.770 10.840 C 4.846 10.711,6.510 9.000,6.559 9.000 C 6.571 9.000,7.926 10.346,9.570 11.990 M1.815 20.278 C 1.331 20.393,1.098 21.004,1.383 21.408 C 1.448 21.499,1.572 21.610,1.660 21.656 C 1.818 21.739,1.865 21.740,4.878 21.751 C 7.020 21.759,8.000 21.749,8.151 21.718 C 8.902 21.562,8.931 20.473,8.189 20.286 C 7.979 20.234,2.033 20.226,1.815 20.278 " stroke="none" fill-rule="evenodd" fill="black"></path></svg>