<svg width="24" height="24" viewBox="0 0 24 24" fill="none" xmlns="http://www.w3.org/2000/svg"><path d="M8.080 1.282 C 4.042 1.493,1.931 3.265,1.398 6.891 C 1.310 7.494,1.225 8.895,1.264 9.113 C 1.278 9.194,1.325 9.318,1.368 9.389 C 1.658 9.870,2.422 9.836,2.661 9.332 C 2.718 9.212,2.740 9.022,2.765 8.423 C 2.900 5.187,3.905 3.654,6.288 3.044 C 7.337 2.776,7.247 2.780,12.000 2.780 C 15.936 2.780,16.339 2.786,16.760 2.852 C 19.558 3.288,20.712 4.442,21.148 7.240 C 21.214 7.661,21.220 8.064,21.220 12.000 C 21.220 15.936,21.214 16.339,21.148 16.760 C 20.712 19.558,19.558 20.712,16.760 21.148 C 16.339 21.214,15.936 21.220,12.000 21.220 C 8.064 21.220,7.661 21.214,7.240 21.148 C 4.756 20.761,3.576 19.795,3.044 17.712 C 2.820 16.833,2.790 16.496,2.764 14.560 L 2.740 12.780 2.640 12.606 C 2.359 12.114,1.641 12.114,1.360 12.606 C 1.261 12.777,1.260 12.795,1.247 13.840 C 1.224 15.669,1.334 17.076,1.575 18.027 C 2.267 20.757,3.971 22.193,7.027 22.622 C 7.786 22.728,8.902 22.759,12.000 22.759 C 15.098 22.759,16.214 22.728,16.973 22.622 C 19.443 22.275,20.996 21.288,21.897 19.490 C 22.379 18.530,22.638 17.369,22.720 15.807 C 22.771 14.838,22.771 9.162,22.720 8.193 C 22.657 6.998,22.521 6.191,22.242 5.356 C 21.632 3.531,20.469 2.367,18.650 1.760 C 17.788 1.473,17.023 1.344,15.806 1.280 C 14.952 1.235,8.952 1.237,8.080 1.282 M12.980 5.786 C 11.189 5.930,9.629 7.004,8.884 8.604 C 8.500 9.429,8.345 10.513,8.484 11.407 L 8.528 11.690 7.292 12.935 C 5.977 14.259,5.917 14.337,5.800 14.836 C 5.741 15.086,5.759 15.396,5.880 16.240 C 5.976 16.907,6.090 17.202,6.366 17.502 C 6.747 17.915,6.967 18.005,7.923 18.138 C 8.754 18.254,8.939 18.261,9.220 18.186 C 9.710 18.055,9.755 18.019,11.064 16.714 L 12.310 15.472 12.593 15.516 C 12.748 15.540,13.091 15.560,13.356 15.560 C 15.103 15.560,16.659 14.666,17.568 13.140 C 18.156 12.153,18.374 10.841,18.140 9.700 C 17.706 7.585,15.964 6.018,13.806 5.802 C 13.403 5.761,13.314 5.759,12.980 5.786 M14.058 7.340 C 14.211 7.373,14.454 7.445,14.598 7.500 C 15.574 7.876,16.370 8.779,16.643 9.820 C 16.754 10.241,16.762 11.006,16.660 11.437 C 16.371 12.664,15.427 13.631,14.189 13.970 C 13.723 14.098,12.971 14.097,12.451 13.969 C 11.877 13.828,11.820 13.854,11.029 14.634 L 10.438 15.216 10.209 14.990 C 9.958 14.743,9.835 14.680,9.600 14.680 C 9.185 14.680,8.869 15.000,8.869 15.420 C 8.869 15.662,8.933 15.797,9.183 16.075 L 9.372 16.285 9.176 16.486 C 9.068 16.596,8.950 16.702,8.914 16.722 C 8.871 16.746,8.617 16.729,8.214 16.676 C 7.686 16.606,7.566 16.578,7.494 16.506 C 7.422 16.435,7.393 16.314,7.325 15.809 C 7.271 15.413,7.255 15.167,7.278 15.109 C 7.298 15.060,7.892 14.444,8.599 13.740 C 9.305 13.036,9.922 12.399,9.968 12.325 C 10.105 12.107,10.121 11.909,10.034 11.544 C 9.929 11.107,9.896 10.521,9.958 10.176 C 10.215 8.728,11.225 7.643,12.600 7.337 C 12.912 7.268,13.724 7.269,14.058 7.340 M13.000 9.784 C 12.667 9.928,12.401 10.335,12.401 10.700 C 12.401 11.070,12.670 11.477,13.009 11.618 C 13.091 11.652,13.267 11.680,13.400 11.680 C 13.819 11.680,14.122 11.486,14.305 11.100 C 14.534 10.615,14.291 9.990,13.791 9.782 C 13.603 9.703,13.183 9.704,13.000 9.784 " stroke="none" fill-rule="evenodd" fill="black"></path></svg>