<svg width="24" height="24" viewBox="0 0 24 24" fill="none" xmlns="http://www.w3.org/2000/svg"><path d="M13.640 1.301 C 13.607 1.308,13.418 1.335,13.220 1.361 C 13.022 1.388,12.797 1.435,12.720 1.467 C 12.145 1.703,12.086 2.486,12.621 2.789 C 12.811 2.896,12.975 2.901,13.580 2.820 C 15.394 2.578,17.285 3.111,18.725 4.272 C 19.674 5.038,20.397 6.055,20.843 7.251 C 21.374 8.678,21.378 10.399,20.854 11.860 C 20.104 13.950,18.344 15.581,16.239 16.137 C 15.090 16.441,14.059 16.466,12.977 16.216 C 12.089 16.012,12.149 16.018,11.935 16.099 C 11.770 16.160,11.542 16.368,10.459 17.445 L 9.178 18.718 8.279 17.816 C 7.785 17.320,7.313 16.880,7.232 16.837 C 7.057 16.747,6.772 16.737,6.589 16.815 C 6.433 16.882,6.260 17.059,6.203 17.213 C 6.140 17.377,6.151 17.665,6.224 17.812 C 6.259 17.882,6.700 18.354,7.205 18.861 L 8.121 19.782 7.451 20.447 C 6.841 21.052,6.760 21.118,6.563 21.176 C 6.264 21.264,6.210 21.261,4.932 21.082 C 4.139 20.971,3.758 20.900,3.650 20.845 C 3.441 20.739,3.186 20.453,3.107 20.238 C 3.036 20.044,2.760 18.097,2.760 17.792 C 2.760 17.688,2.798 17.499,2.845 17.372 C 2.925 17.153,3.062 17.007,5.382 14.680 C 6.732 13.327,7.855 12.169,7.878 12.107 C 7.944 11.931,7.927 11.692,7.820 11.285 C 7.586 10.396,7.542 9.304,7.701 8.400 C 7.924 7.142,8.490 5.984,9.356 5.013 C 9.754 4.568,9.800 4.485,9.800 4.207 C 9.800 3.667,9.238 3.319,8.750 3.555 C 8.329 3.759,7.360 5.041,6.917 5.980 C 6.397 7.082,6.161 8.104,6.131 9.380 C 6.112 10.196,6.160 10.757,6.298 11.340 L 6.356 11.580 4.102 13.840 C 2.549 15.397,1.798 16.178,1.686 16.352 C 1.408 16.788,1.207 17.555,1.260 17.980 C 1.360 18.773,1.570 20.259,1.609 20.440 C 1.780 21.249,2.470 22.024,3.265 22.300 C 3.605 22.418,5.742 22.720,6.240 22.720 C 6.651 22.720,7.060 22.616,7.459 22.409 C 7.761 22.253,8.150 21.882,10.920 19.099 C 11.591 18.426,12.206 17.821,12.288 17.756 L 12.435 17.637 12.828 17.715 C 14.299 18.007,15.841 17.891,17.280 17.380 C 18.045 17.108,19.033 16.547,19.698 16.006 C 22.194 13.976,23.291 10.624,22.482 7.498 C 21.618 4.162,18.858 1.756,15.396 1.322 C 15.102 1.285,13.800 1.270,13.640 1.301 M14.180 7.281 C 13.086 7.427,12.276 8.360,12.270 9.480 C 12.267 10.129,12.470 10.630,12.920 11.080 C 13.363 11.523,13.868 11.731,14.500 11.731 C 15.132 11.731,15.637 11.523,16.080 11.080 C 16.523 10.637,16.731 10.132,16.731 9.500 C 16.731 8.868,16.523 8.363,16.080 7.920 C 15.575 7.415,14.894 7.186,14.180 7.281 M14.944 8.903 C 15.173 9.088,15.247 9.255,15.231 9.549 C 15.219 9.752,15.195 9.823,15.097 9.944 C 14.912 10.173,14.745 10.247,14.451 10.231 C 14.248 10.219,14.177 10.195,14.056 10.097 C 13.827 9.912,13.753 9.745,13.769 9.451 C 13.781 9.248,13.805 9.177,13.903 9.056 C 14.088 8.827,14.255 8.753,14.549 8.769 C 14.752 8.781,14.823 8.805,14.944 8.903 " stroke="none" fill-rule="evenodd" fill="black"></path></svg>