<svg width="24" height="24" viewBox="0 0 24 24" fill="none" xmlns="http://www.w3.org/2000/svg"><path d="M6.260 1.280 C 4.419 1.380,3.308 1.759,2.520 2.556 C 1.670 3.416,1.303 4.665,1.270 6.800 C 1.259 7.522,1.275 7.588,1.506 7.807 C 1.783 8.069,2.217 8.069,2.494 7.807 C 2.713 7.600,2.731 7.521,2.764 6.660 C 2.828 4.968,3.053 4.140,3.596 3.596 C 4.038 3.155,4.618 2.946,5.740 2.822 C 6.277 2.762,6.959 2.757,12.280 2.770 C 18.723 2.785,18.487 2.777,19.320 3.003 C 20.661 3.367,21.125 4.208,21.240 6.480 C 21.291 7.492,21.291 13.348,21.240 14.360 C 21.125 16.632,20.661 17.473,19.320 17.837 C 18.486 18.063,18.726 18.055,12.260 18.070 C 5.758 18.084,5.681 18.082,4.783 17.857 C 4.213 17.714,3.910 17.557,3.596 17.244 C 3.296 16.943,3.131 16.636,3.003 16.140 C 2.810 15.391,2.790 15.128,2.764 12.960 C 2.738 10.705,2.748 10.793,2.494 10.553 C 2.217 10.291,1.783 10.291,1.506 10.553 C 1.251 10.794,1.260 10.717,1.263 12.760 C 1.267 14.755,1.299 15.291,1.464 16.116 C 1.656 17.076,1.976 17.733,2.520 18.284 C 3.345 19.119,4.401 19.460,6.480 19.563 C 7.036 19.591,9.221 19.600,12.660 19.589 C 17.289 19.574,18.045 19.563,18.480 19.506 C 19.526 19.369,20.246 19.160,20.815 18.826 C 20.979 18.730,21.253 18.508,21.463 18.300 C 21.979 17.791,22.252 17.297,22.461 16.492 C 22.729 15.461,22.759 14.852,22.759 10.420 C 22.759 5.988,22.729 5.379,22.461 4.348 C 22.252 3.543,21.979 3.049,21.463 2.540 C 20.756 1.842,19.987 1.531,18.480 1.334 C 18.040 1.276,17.306 1.267,12.400 1.259 C 9.331 1.254,6.568 1.263,6.260 1.280 M6.800 7.384 C 6.467 7.528,6.201 7.935,6.201 8.300 C 6.201 8.670,6.470 9.077,6.809 9.218 C 7.000 9.298,7.400 9.298,7.591 9.218 C 7.780 9.139,7.983 8.946,8.092 8.740 C 8.212 8.516,8.212 8.084,8.092 7.860 C 7.983 7.654,7.780 7.461,7.591 7.382 C 7.403 7.303,6.983 7.304,6.800 7.384 M10.042 7.428 C 9.331 7.801,9.339 8.829,10.055 9.179 C 10.249 9.274,10.317 9.287,10.554 9.274 C 10.907 9.254,11.164 9.106,11.339 8.822 C 11.448 8.646,11.460 8.593,11.460 8.300 C 11.460 8.007,11.448 7.954,11.339 7.778 C 11.161 7.489,10.905 7.345,10.544 7.327 C 10.294 7.315,10.234 7.327,10.042 7.428 M13.500 7.579 C 13.478 7.587,13.411 7.604,13.351 7.617 C 13.204 7.649,12.961 7.868,12.894 8.028 C 12.771 8.322,12.851 8.656,13.095 8.870 C 13.175 8.941,13.291 9.013,13.351 9.029 C 13.493 9.069,17.347 9.069,17.489 9.029 C 17.641 8.987,17.881 8.767,17.946 8.612 C 18.057 8.347,18.001 8.031,17.807 7.826 C 17.566 7.572,17.650 7.581,15.500 7.572 C 14.422 7.568,13.522 7.571,13.500 7.579 M6.515 13.399 C 6.225 13.486,6.000 13.800,6.000 14.114 C 6.000 14.399,6.201 14.702,6.453 14.797 C 6.530 14.827,8.249 14.840,12.004 14.840 C 16.533 14.840,17.464 14.831,17.571 14.785 C 17.727 14.718,17.900 14.541,17.957 14.387 C 18.058 14.122,17.971 13.731,17.773 13.552 C 17.552 13.352,17.800 13.360,12.011 13.363 C 9.046 13.365,6.573 13.381,6.515 13.399 M6.815 21.278 C 6.331 21.393,6.098 22.004,6.383 22.408 C 6.447 22.499,6.572 22.610,6.660 22.656 C 6.819 22.740,6.836 22.740,11.880 22.751 C 15.467 22.758,17.002 22.749,17.154 22.717 C 17.902 22.562,17.929 21.473,17.189 21.286 C 16.979 21.233,7.035 21.226,6.815 21.278 " stroke="none" fill-rule="evenodd" fill="black"></path></svg>