<svg width="24" height="24" viewBox="0 0 24 24" fill="none" xmlns="http://www.w3.org/2000/svg"><path d="M11.815 1.277 C 11.638 1.321,11.461 1.456,11.353 1.631 C 11.262 1.777,11.260 1.805,11.247 2.979 C 11.238 3.846,11.221 4.187,11.187 4.209 C 11.161 4.225,11.072 4.239,10.990 4.239 C 10.551 4.241,9.472 4.479,8.764 4.731 C 6.881 5.399,5.214 6.690,4.116 8.332 C 3.824 8.768,3.800 8.819,3.800 9.009 C 3.800 9.525,4.251 9.886,4.734 9.756 C 4.934 9.702,5.098 9.537,5.434 9.050 C 6.718 7.189,8.832 5.958,11.157 5.716 C 11.711 5.659,12.828 5.690,13.340 5.776 C 14.719 6.010,16.015 6.592,17.077 7.455 C 18.735 8.803,19.786 10.762,19.997 12.897 C 20.022 13.152,20.040 14.273,20.040 15.587 L 20.040 17.840 12.001 17.840 L 3.962 17.840 3.951 15.604 L 3.940 13.367 3.817 13.214 C 3.659 13.016,3.468 12.920,3.233 12.920 C 2.906 12.920,2.703 13.042,2.556 13.328 C 2.484 13.470,2.480 13.601,2.480 16.120 C 2.480 18.476,2.487 18.778,2.545 18.892 C 2.621 19.043,2.748 19.189,2.860 19.254 C 2.917 19.287,3.621 19.306,5.316 19.320 L 7.693 19.340 7.807 19.679 C 8.480 21.682,10.343 22.907,12.425 22.714 C 14.175 22.552,15.621 21.384,16.198 19.665 L 16.307 19.340 18.685 19.320 C 21.335 19.298,21.155 19.318,21.387 19.014 L 21.500 18.866 21.512 16.063 C 21.521 14.202,21.510 13.092,21.480 12.760 C 21.193 9.583,19.239 6.689,16.406 5.245 C 15.372 4.718,14.221 4.360,13.240 4.262 C 13.097 4.248,12.931 4.226,12.870 4.215 L 12.760 4.194 12.759 3.107 C 12.758 1.955,12.733 1.737,12.580 1.536 C 12.421 1.327,12.078 1.211,11.815 1.277 M14.719 19.390 C 14.717 19.465,14.443 19.941,14.285 20.143 C 13.901 20.634,13.228 21.061,12.647 21.180 C 12.278 21.256,11.703 21.256,11.340 21.180 C 10.772 21.061,10.095 20.629,9.715 20.143 C 9.557 19.941,9.283 19.465,9.281 19.390 C 9.280 19.373,10.504 19.360,12.000 19.360 C 13.496 19.360,14.720 19.373,14.719 19.390 " stroke="none" fill-rule="evenodd" fill="black"></path></svg>