<svg width="24" height="24" viewBox="0 0 24 24" fill="none" xmlns="http://www.w3.org/2000/svg"><path d="M11.500 1.264 C 10.134 1.399,9.262 1.631,8.220 2.136 C 5.824 3.299,4.075 5.550,3.542 8.160 C 3.135 10.153,3.464 12.205,4.470 13.940 C 5.201 15.202,6.066 16.190,7.140 16.992 L 7.540 17.290 7.560 18.055 C 7.580 18.811,7.581 18.822,7.699 19.034 C 7.931 19.454,8.275 19.646,8.931 19.723 C 9.174 19.751,10.307 19.761,12.260 19.751 C 14.974 19.738,15.238 19.731,15.440 19.665 C 15.899 19.515,16.211 19.235,16.371 18.829 C 16.439 18.657,16.456 18.503,16.471 17.953 L 16.489 17.286 16.841 17.024 C 18.612 15.701,19.936 13.688,20.418 11.583 C 20.784 9.992,20.671 8.311,20.097 6.773 C 19.859 6.137,19.662 5.775,19.490 5.662 C 19.095 5.402,18.591 5.548,18.395 5.978 C 18.283 6.225,18.303 6.365,18.518 6.859 C 18.739 7.366,18.921 7.931,19.028 8.440 C 19.085 8.709,19.100 8.968,19.100 9.680 C 19.100 10.473,19.089 10.635,19.005 11.040 C 18.698 12.518,17.944 13.921,16.873 15.005 C 16.413 15.470,16.123 15.712,15.592 16.074 C 15.014 16.467,15.024 16.444,15.000 17.420 L 14.980 18.220 12.010 18.230 L 9.040 18.241 9.040 17.479 C 9.040 16.486,9.035 16.474,8.397 16.049 C 7.501 15.451,6.708 14.650,6.074 13.700 C 5.756 13.224,5.354 12.401,5.185 11.880 C 4.022 8.294,6.112 4.304,9.780 3.108 C 10.563 2.853,11.156 2.760,12.006 2.758 C 13.221 2.757,14.303 3.011,15.380 3.551 C 15.938 3.830,16.235 3.798,16.536 3.426 C 16.648 3.288,16.660 3.245,16.660 3.000 C 16.660 2.755,16.647 2.712,16.537 2.574 C 16.274 2.246,15.081 1.727,14.020 1.479 C 13.323 1.316,12.061 1.208,11.500 1.264 M11.620 7.258 C 11.429 7.374,11.435 7.366,10.748 8.564 C 10.212 9.498,10.080 9.798,10.080 10.080 C 10.080 10.504,10.372 10.947,10.769 11.123 C 10.950 11.204,11.065 11.220,11.587 11.239 L 12.194 11.260 11.729 12.076 C 11.300 12.827,11.263 12.909,11.264 13.096 C 11.267 13.530,11.573 13.840,11.998 13.840 C 12.238 13.840,12.479 13.727,12.589 13.562 C 12.866 13.150,13.841 11.361,13.882 11.193 C 13.978 10.793,13.838 10.352,13.524 10.068 C 13.253 9.824,13.132 9.790,12.430 9.764 L 11.801 9.740 12.269 8.920 C 12.697 8.171,12.737 8.083,12.736 7.900 C 12.733 7.468,12.426 7.160,11.996 7.160 C 11.838 7.161,11.737 7.187,11.620 7.258 M11.220 20.783 C 11.132 20.792,10.862 20.818,10.620 20.841 C 10.072 20.893,9.405 21.010,8.780 21.164 C 8.177 21.313,8.118 21.337,7.968 21.493 C 7.547 21.928,7.784 22.618,8.394 22.734 C 8.482 22.751,8.685 22.720,8.994 22.642 C 10.067 22.373,10.910 22.269,12.000 22.269 C 13.090 22.269,13.933 22.373,15.006 22.642 C 15.596 22.790,15.794 22.762,16.047 22.494 C 16.234 22.297,16.294 21.989,16.198 21.733 C 16.143 21.589,15.940 21.377,15.805 21.324 C 15.460 21.188,14.162 20.922,13.440 20.840 C 13.045 20.795,11.499 20.756,11.220 20.783 " stroke="none" fill-rule="evenodd" fill="black"></path></svg>