<svg width="24" height="24" viewBox="0 0 24 24" fill="none" xmlns="http://www.w3.org/2000/svg"><path d="M7.660 1.278 C 6.603 1.406,5.517 2.236,5.160 3.188 C 5.088 3.380,2.949 11.176,2.806 11.765 C 2.628 12.503,2.753 13.377,3.124 13.991 C 3.520 14.644,3.991 15.014,4.739 15.259 C 5.231 15.419,5.673 15.440,8.544 15.440 L 11.240 15.440 11.240 18.338 L 11.240 21.236 9.507 21.248 L 7.774 21.260 7.612 21.367 C 7.372 21.526,7.267 21.721,7.267 22.007 C 7.267 22.203,7.286 22.270,7.383 22.408 C 7.447 22.499,7.572 22.610,7.660 22.656 C 7.819 22.739,7.851 22.740,11.879 22.751 C 14.744 22.759,16.001 22.749,16.153 22.717 C 16.902 22.562,16.930 21.473,16.189 21.286 C 16.064 21.255,15.479 21.240,14.382 21.240 L 12.760 21.240 12.760 18.343 L 12.760 15.445 15.730 15.429 C 19.053 15.411,18.995 15.416,19.625 15.122 C 20.302 14.806,20.743 14.364,21.039 13.707 C 21.263 13.209,21.343 12.477,21.236 11.897 C 21.212 11.767,20.682 9.783,20.057 7.489 C 18.874 3.143,18.833 3.012,18.499 2.560 C 17.950 1.818,16.977 1.288,16.131 1.270 C 15.856 1.264,15.793 1.277,15.637 1.368 C 15.165 1.645,15.155 2.351,15.620 2.621 C 15.716 2.677,15.904 2.731,16.090 2.757 C 16.292 2.784,16.488 2.843,16.649 2.925 C 16.985 3.094,17.359 3.474,17.471 3.760 C 17.518 3.881,18.056 5.807,18.667 8.040 C 19.772 12.079,19.777 12.102,19.779 12.500 C 19.780 12.828,19.764 12.934,19.693 13.089 C 19.563 13.370,19.279 13.651,18.989 13.785 L 18.740 13.900 12.020 13.900 L 5.300 13.900 5.074 13.809 C 4.755 13.680,4.509 13.448,4.351 13.129 C 4.233 12.888,4.220 12.828,4.223 12.521 C 4.225 12.203,4.301 11.903,5.374 7.984 C 6.134 5.205,6.558 3.721,6.629 3.590 C 6.763 3.344,7.061 3.072,7.378 2.906 L 7.620 2.780 9.380 2.760 C 11.305 2.738,11.249 2.745,11.487 2.494 C 11.621 2.353,11.680 2.201,11.680 2.000 C 11.680 1.799,11.621 1.647,11.487 1.506 C 11.249 1.255,11.295 1.261,9.520 1.254 C 8.629 1.251,7.792 1.262,7.660 1.278 " stroke="none" fill-rule="evenodd" fill="black"></path></svg>