<svg width="24" height="24" viewBox="0 0 24 24" fill="none" xmlns="http://www.w3.org/2000/svg"><path d="M13.210 1.543 C 12.735 1.827,12.754 2.567,13.243 2.821 C 13.299 2.851,13.496 2.913,13.681 2.960 C 14.690 3.218,15.821 3.858,16.499 4.556 L 16.698 4.761 10.111 11.351 C 6.356 15.107,3.506 17.988,3.482 18.053 C 3.416 18.231,3.433 18.480,3.525 18.670 C 3.677 18.984,4.040 19.137,4.402 19.040 C 4.559 18.997,4.719 18.854,5.768 17.809 L 6.957 16.627 7.088 16.734 C 7.161 16.793,7.337 16.932,7.480 17.044 L 7.740 17.246 7.761 17.993 C 7.781 18.685,7.790 18.756,7.885 18.960 C 8.062 19.344,8.384 19.581,8.862 19.680 C 8.996 19.708,10.098 19.719,12.122 19.711 L 15.180 19.700 15.444 19.575 C 15.765 19.423,15.979 19.217,16.108 18.933 C 16.233 18.661,16.278 18.344,16.279 17.733 L 16.280 17.245 16.410 17.155 C 16.714 16.943,17.260 16.451,17.595 16.089 C 19.180 14.374,20.076 12.244,20.148 10.020 C 20.180 9.026,20.093 8.266,19.840 7.329 C 19.729 6.919,19.630 6.766,19.401 6.650 C 19.186 6.541,18.956 6.536,18.740 6.635 C 18.550 6.723,18.464 6.812,18.382 7.010 C 18.297 7.212,18.304 7.360,18.418 7.784 C 18.891 9.551,18.704 11.370,17.875 13.069 C 17.310 14.227,16.439 15.284,15.485 15.972 C 14.989 16.329,14.856 16.474,14.804 16.720 C 14.780 16.832,14.760 17.220,14.760 17.582 L 14.760 18.240 12.020 18.240 L 9.280 18.240 9.279 17.570 C 9.278 16.856,9.244 16.614,9.119 16.439 C 9.076 16.378,8.874 16.210,8.670 16.063 C 8.467 15.917,8.237 15.744,8.161 15.678 L 8.022 15.559 14.327 9.249 C 17.795 5.779,20.661 2.882,20.696 2.812 C 20.790 2.624,20.778 2.304,20.670 2.112 C 20.499 1.807,20.014 1.648,19.718 1.799 C 19.664 1.826,19.203 2.264,18.693 2.771 L 17.766 3.694 17.438 3.386 C 16.513 2.515,15.427 1.901,14.208 1.559 C 13.677 1.409,13.439 1.406,13.210 1.543 M9.180 1.787 C 9.137 1.800,8.903 1.903,8.660 2.018 C 7.062 2.774,5.825 3.961,4.910 5.620 C 3.937 7.382,3.607 9.531,4.005 11.518 C 4.108 12.036,4.364 12.846,4.546 13.229 C 4.661 13.472,4.713 13.536,4.870 13.628 C 5.279 13.868,5.755 13.708,5.938 13.271 C 6.032 13.046,6.016 12.926,5.821 12.402 C 5.308 11.024,5.204 9.758,5.485 8.340 C 5.779 6.864,6.647 5.360,7.787 4.354 C 8.271 3.927,8.881 3.548,9.600 3.229 C 9.850 3.117,9.969 3.004,10.058 2.791 C 10.251 2.329,9.949 1.823,9.456 1.781 C 9.348 1.772,9.224 1.775,9.180 1.787 M11.220 20.783 C 11.132 20.792,10.862 20.818,10.620 20.841 C 10.072 20.893,9.405 21.010,8.780 21.164 C 8.177 21.313,8.118 21.337,7.968 21.493 C 7.547 21.928,7.784 22.618,8.394 22.734 C 8.482 22.751,8.685 22.720,8.994 22.642 C 10.067 22.373,10.910 22.269,12.000 22.269 C 13.090 22.269,13.933 22.373,15.006 22.642 C 15.596 22.790,15.794 22.762,16.047 22.494 C 16.234 22.297,16.294 21.989,16.198 21.733 C 16.143 21.589,15.940 21.377,15.805 21.324 C 15.460 21.188,14.162 20.922,13.440 20.840 C 13.045 20.795,11.499 20.756,11.220 20.783 " stroke="none" fill-rule="evenodd" fill="black"></path></svg>