<svg width="24" height="24" viewBox="0 0 24 24" fill="none" xmlns="http://www.w3.org/2000/svg"><path d="M11.560 1.267 C 10.326 1.322,9.152 1.571,8.041 2.012 C 7.427 2.256,7.240 2.454,7.240 2.860 C 7.240 3.229,7.525 3.548,7.892 3.589 C 8.032 3.605,8.152 3.574,8.523 3.428 C 9.718 2.955,10.735 2.760,12.006 2.760 C 13.464 2.760,14.754 3.058,16.060 3.698 C 17.024 4.170,17.648 4.611,18.434 5.378 C 19.273 6.195,19.814 6.937,20.303 7.940 C 20.944 9.253,21.240 10.537,21.240 12.000 C 21.240 13.465,20.943 14.752,20.302 16.060 C 19.830 17.024,19.389 17.648,18.622 18.434 C 17.805 19.273,17.063 19.814,16.060 20.303 C 14.747 20.944,13.463 21.240,12.000 21.240 C 10.537 21.240,9.253 20.944,7.940 20.303 C 6.937 19.814,6.195 19.273,5.378 18.434 C 4.611 17.648,4.170 17.024,3.698 16.060 C 3.058 14.754,2.760 13.464,2.760 12.005 C 2.760 10.060,3.331 8.256,4.457 6.648 C 4.701 6.298,4.770 6.095,4.724 5.855 C 4.656 5.497,4.372 5.267,4.000 5.267 C 3.678 5.267,3.534 5.369,3.222 5.816 C 1.432 8.383,0.834 11.537,1.564 14.550 C 1.904 15.951,2.529 17.268,3.424 18.470 C 3.880 19.083,4.909 20.111,5.530 20.575 C 7.606 22.126,10.070 22.870,12.627 22.717 C 14.790 22.588,16.724 21.879,18.470 20.575 C 19.087 20.115,20.115 19.087,20.575 18.470 C 22.127 16.391,22.870 13.930,22.717 11.373 C 22.588 9.210,21.879 7.276,20.575 5.530 C 20.115 4.913,19.087 3.885,18.470 3.425 C 17.047 2.362,15.454 1.679,13.742 1.398 C 13.325 1.330,12.055 1.227,11.880 1.248 C 11.847 1.252,11.703 1.261,11.560 1.267 M11.815 6.557 C 11.638 6.601,11.461 6.736,11.353 6.911 C 11.270 7.045,11.259 7.119,11.246 7.628 L 11.231 8.197 9.026 8.208 L 6.820 8.220 6.640 8.326 C 6.403 8.465,6.280 8.683,6.280 8.960 C 6.280 9.237,6.403 9.455,6.640 9.594 L 6.820 9.700 10.272 9.711 C 13.518 9.721,13.724 9.726,13.705 9.791 C 13.695 9.829,13.674 9.959,13.660 10.080 C 13.617 10.444,13.416 11.164,13.225 11.641 C 12.405 13.682,10.709 15.210,8.660 15.752 C 8.200 15.874,7.891 15.920,7.289 15.958 C 6.818 15.987,6.740 16.003,6.604 16.093 C 6.372 16.246,6.267 16.444,6.267 16.727 C 6.267 16.923,6.286 16.990,6.383 17.128 C 6.578 17.403,6.740 17.462,7.279 17.449 C 8.987 17.410,10.703 16.765,12.103 15.634 L 12.425 15.374 12.768 15.701 C 13.593 16.488,14.600 17.047,15.643 17.299 C 16.168 17.425,16.906 17.490,17.174 17.433 C 17.723 17.316,17.924 16.604,17.522 16.202 C 17.354 16.034,17.130 15.960,16.786 15.960 C 16.665 15.960,16.426 15.933,16.254 15.900 C 15.342 15.726,14.511 15.290,13.802 14.615 L 13.448 14.278 13.781 13.779 C 14.507 12.693,15.015 11.349,15.163 10.124 L 15.212 9.726 16.196 9.713 C 17.178 9.700,17.180 9.700,17.360 9.594 C 17.846 9.308,17.846 8.612,17.360 8.326 L 17.180 8.220 14.970 8.208 L 12.760 8.197 12.759 7.748 C 12.758 7.226,12.713 6.990,12.580 6.816 C 12.421 6.607,12.078 6.491,11.815 6.557 " stroke="none" fill-rule="evenodd" fill="black"></path></svg>