<svg width="24" height="24" viewBox="0 0 24 24" fill="none" xmlns="http://www.w3.org/2000/svg"><path d="M11.200 1.985 C 10.818 2.056,10.542 2.132,10.300 2.233 C 9.390 2.613,4.170 4.952,3.920 5.092 C 3.501 5.327,3.001 5.824,2.842 6.163 C 2.416 7.074,2.818 8.071,3.861 8.689 C 4.387 9.000,10.356 11.632,10.800 11.749 C 11.127 11.835,11.267 11.849,11.800 11.849 C 12.334 11.849,12.473 11.835,12.800 11.749 C 13.246 11.631,19.217 8.998,19.739 8.689 C 20.188 8.423,20.551 8.051,20.744 7.659 C 20.881 7.384,20.902 7.302,20.914 7.009 C 20.938 6.456,20.797 6.091,20.396 5.662 C 20.128 5.375,19.756 5.110,19.357 4.922 C 18.942 4.725,18.622 4.768,18.371 5.054 C 18.156 5.299,18.118 5.600,18.265 5.889 C 18.349 6.052,18.471 6.153,18.775 6.307 C 19.122 6.482,19.440 6.772,19.440 6.912 C 19.440 7.056,19.143 7.327,18.795 7.502 C 18.307 7.748,12.752 10.206,12.506 10.285 C 12.181 10.390,11.422 10.390,11.094 10.286 C 10.822 10.200,5.210 7.710,4.751 7.472 C 4.414 7.298,4.160 7.054,4.160 6.905 C 4.160 6.772,4.489 6.477,4.825 6.308 C 4.976 6.232,6.441 5.576,8.080 4.849 C 10.076 3.964,11.138 3.513,11.297 3.483 C 11.600 3.428,12.000 3.428,12.301 3.484 C 12.440 3.509,13.007 3.734,13.675 4.028 C 14.759 4.506,14.823 4.528,15.013 4.506 C 15.530 4.445,15.819 3.930,15.603 3.455 C 15.562 3.365,15.468 3.246,15.394 3.190 C 15.287 3.110,13.741 2.405,13.215 2.196 C 12.838 2.046,12.522 1.994,11.920 1.980 C 11.579 1.972,11.255 1.974,11.200 1.985 M2.819 10.277 C 2.557 10.340,2.338 10.564,2.278 10.830 C 2.193 11.207,2.392 11.990,2.713 12.539 C 2.968 12.977,3.523 13.532,3.900 13.728 C 4.361 13.966,11.007 16.908,11.263 16.987 C 11.595 17.088,12.405 17.088,12.737 16.987 C 12.993 16.908,19.639 13.966,20.100 13.728 C 20.477 13.532,21.032 12.977,21.287 12.539 C 21.621 11.967,21.801 11.238,21.711 10.817 C 21.607 10.327,20.985 10.098,20.566 10.396 C 20.376 10.531,20.288 10.712,20.245 11.057 C 20.190 11.503,19.997 11.879,19.668 12.185 C 19.418 12.418,19.378 12.437,15.858 14.000 L 12.300 15.580 12.000 15.580 L 11.700 15.580 8.142 14.000 C 4.622 12.437,4.582 12.418,4.332 12.185 C 4.012 11.888,3.814 11.507,3.755 11.078 C 3.732 10.914,3.686 10.720,3.651 10.648 C 3.574 10.483,3.390 10.341,3.180 10.284 C 3.003 10.236,2.992 10.236,2.819 10.277 M2.819 15.277 C 2.557 15.340,2.338 15.564,2.278 15.828 C 2.234 16.024,2.302 16.628,2.402 16.930 C 2.668 17.730,3.226 18.390,3.942 18.751 C 4.432 18.998,11.035 21.916,11.263 21.987 C 11.606 22.093,12.446 22.085,12.780 21.974 C 13.159 21.848,19.974 18.807,20.244 18.643 C 21.070 18.144,21.620 17.283,21.716 16.339 C 21.762 15.883,21.715 15.675,21.522 15.482 C 21.179 15.139,20.618 15.203,20.364 15.613 C 20.312 15.698,20.268 15.870,20.243 16.096 C 20.218 16.310,20.164 16.530,20.104 16.662 C 19.988 16.916,19.698 17.239,19.466 17.373 C 19.375 17.426,17.725 18.169,15.800 19.025 L 12.300 20.580 12.000 20.580 L 11.700 20.580 8.200 19.025 C 6.275 18.169,4.625 17.426,4.534 17.373 C 4.302 17.239,4.012 16.916,3.897 16.664 C 3.842 16.545,3.781 16.304,3.757 16.116 C 3.734 15.933,3.687 15.722,3.652 15.649 C 3.573 15.483,3.390 15.341,3.180 15.284 C 3.003 15.236,2.992 15.236,2.819 15.277 " stroke="none" fill-rule="evenodd" fill="black"></path></svg>