<svg width="24" height="24" viewBox="0 0 24 24" fill="none" xmlns="http://www.w3.org/2000/svg"><path d="M11.815 1.278 C 11.331 1.394,11.098 2.004,11.383 2.408 C 11.572 2.675,11.716 2.726,12.392 2.763 C 13.554 2.826,14.527 3.036,15.480 3.429 C 16.681 3.925,17.673 4.594,18.587 5.525 C 19.819 6.780,20.567 8.129,20.999 9.873 C 21.145 10.465,21.225 10.601,21.498 10.725 C 21.834 10.877,22.217 10.773,22.426 10.472 C 22.525 10.327,22.539 10.272,22.534 10.043 C 22.524 9.565,22.176 8.422,21.765 7.520 C 21.191 6.258,20.242 4.956,19.250 4.067 C 17.291 2.311,14.997 1.378,12.360 1.266 C 12.129 1.256,11.884 1.261,11.815 1.278 M7.240 2.374 C 7.043 2.445,6.280 2.888,5.900 3.153 C 3.750 4.652,2.218 6.853,1.599 9.335 C 1.444 9.959,1.448 10.198,1.618 10.421 C 1.834 10.705,2.222 10.794,2.550 10.635 C 2.785 10.521,2.895 10.337,3.000 9.880 C 3.296 8.586,3.953 7.247,4.814 6.177 C 5.114 5.805,5.811 5.110,6.220 4.776 C 6.560 4.498,7.273 4.029,7.675 3.819 C 8.015 3.641,8.182 3.446,8.222 3.180 C 8.270 2.858,8.089 2.535,7.782 2.395 C 7.593 2.310,7.436 2.303,7.240 2.374 M11.500 9.807 C 10.919 9.916,10.270 10.430,9.992 11.000 C 9.560 11.885,9.726 12.888,10.419 13.581 C 10.903 14.065,11.483 14.278,12.177 14.227 C 14.081 14.089,14.934 11.773,13.581 10.419 C 13.031 9.870,12.304 9.655,11.500 9.807 M12.271 11.302 C 12.911 11.569,12.911 12.431,12.271 12.698 C 12.083 12.777,11.917 12.777,11.729 12.698 C 11.101 12.436,11.084 11.600,11.700 11.316 C 11.897 11.225,12.076 11.221,12.271 11.302 M1.899 13.336 C 1.732 13.409,1.532 13.648,1.481 13.837 C 1.448 13.958,1.453 14.064,1.500 14.293 C 1.756 15.531,2.303 16.824,3.038 17.928 C 3.500 18.621,3.840 19.040,4.380 19.581 C 6.064 21.270,8.275 22.354,10.660 22.662 C 11.346 22.751,12.682 22.751,13.335 22.662 C 15.734 22.337,17.784 21.348,19.475 19.701 C 20.928 18.286,21.917 16.589,22.403 14.680 C 22.575 14.002,22.552 13.753,22.295 13.513 C 21.974 13.212,21.418 13.270,21.176 13.629 C 21.129 13.700,21.040 13.960,20.978 14.209 C 20.663 15.487,20.042 16.740,19.199 17.801 C 18.868 18.216,18.102 18.965,17.636 19.328 C 15.292 21.150,12.140 21.717,9.260 20.834 C 6.216 19.900,3.817 17.381,3.036 14.300 C 2.992 14.124,2.938 13.913,2.917 13.832 C 2.807 13.415,2.294 13.164,1.899 13.336 " stroke="none" fill-rule="evenodd" fill="black"></path></svg>