<svg width="24" height="24" viewBox="0 0 24 24" fill="none" xmlns="http://www.w3.org/2000/svg"><path d="M11.814 1.278 C 11.161 1.433,11.023 2.311,11.601 2.636 C 11.747 2.718,11.848 2.735,12.375 2.763 C 13.242 2.810,13.806 2.900,14.510 3.104 C 15.699 3.449,17.009 4.135,17.825 4.841 L 17.951 4.950 16.545 6.355 C 15.772 7.128,15.128 7.760,15.114 7.760 C 15.100 7.760,14.992 7.694,14.874 7.614 C 14.339 7.250,13.521 6.939,12.781 6.819 C 11.564 6.622,10.116 6.941,9.101 7.631 L 8.863 7.793 8.601 7.559 C 8.458 7.430,7.809 6.792,7.160 6.140 L 5.980 4.955 6.120 4.834 C 6.326 4.656,6.862 4.279,7.160 4.102 C 7.578 3.854,7.716 3.700,7.778 3.413 C 7.838 3.133,7.615 2.732,7.332 2.614 C 7.004 2.477,6.769 2.559,5.985 3.085 C 3.646 4.655,1.997 7.105,1.440 9.840 C 1.244 10.803,1.184 12.197,1.297 13.200 C 1.740 17.146,4.323 20.520,8.030 21.996 C 9.270 22.490,10.543 22.727,11.960 22.729 C 12.810 22.730,13.319 22.683,14.064 22.537 C 18.273 21.712,21.653 18.353,22.493 14.160 C 22.661 13.317,22.697 12.944,22.697 12.000 C 22.697 11.056,22.661 10.683,22.493 9.840 C 21.653 5.647,18.276 2.290,14.064 1.463 C 13.308 1.314,12.086 1.214,11.814 1.278 M6.350 7.450 C 7.125 8.225,7.760 8.871,7.760 8.886 C 7.760 8.900,7.694 9.008,7.614 9.126 C 6.942 10.113,6.624 11.577,6.819 12.781 C 6.939 13.521,7.250 14.339,7.614 14.874 C 7.694 14.992,7.760 15.100,7.760 15.114 C 7.760 15.129,7.120 15.779,6.338 16.560 L 4.915 17.980 4.796 17.840 C 4.378 17.348,3.849 16.493,3.549 15.823 C 2.231 12.886,2.499 9.537,4.261 6.897 C 4.588 6.407,4.868 6.040,4.915 6.040 C 4.928 6.040,5.574 6.674,6.350 7.450 M19.238 6.270 C 20.014 7.253,20.628 8.504,20.939 9.738 C 21.135 10.518,21.210 11.140,21.210 12.000 C 21.210 13.496,20.920 14.744,20.259 16.100 C 19.924 16.785,19.147 17.951,19.020 17.958 C 18.998 17.959,18.352 17.332,17.584 16.564 L 16.188 15.168 16.375 14.887 C 17.519 13.167,17.519 10.833,16.375 9.113 L 16.188 8.832 17.584 7.436 C 18.352 6.668,18.998 6.041,19.020 6.042 C 19.042 6.043,19.140 6.146,19.238 6.270 M12.806 8.336 C 14.207 8.642,15.355 9.795,15.669 11.210 C 15.755 11.599,15.756 12.408,15.670 12.786 C 15.511 13.492,15.163 14.121,14.642 14.642 C 14.121 15.163,13.492 15.512,12.786 15.670 C 12.405 15.756,11.595 15.756,11.214 15.670 C 9.783 15.348,8.651 14.219,8.331 12.790 C 8.244 12.405,8.244 11.597,8.330 11.214 C 8.669 9.707,9.864 8.568,11.393 8.297 C 11.755 8.233,12.417 8.251,12.806 8.336 M9.178 16.416 C 10.182 17.076,11.588 17.375,12.781 17.181 C 13.521 17.061,14.339 16.750,14.874 16.386 C 14.992 16.306,15.100 16.240,15.114 16.240 C 15.129 16.240,15.774 16.875,16.549 17.650 L 17.957 19.060 17.675 19.280 C 16.548 20.160,15.154 20.801,13.767 21.076 C 12.451 21.337,10.913 21.287,9.585 20.941 C 8.456 20.646,7.207 20.022,6.270 19.285 C 6.122 19.168,6.000 19.060,6.000 19.045 C 6.000 19.030,6.637 18.382,7.416 17.605 C 8.436 16.587,8.848 16.202,8.886 16.226 C 8.916 16.245,9.047 16.330,9.178 16.416 " stroke="none" fill-rule="evenodd" fill="black"></path></svg>