<svg width="24" height="24" viewBox="0 0 24 24" fill="none" xmlns="http://www.w3.org/2000/svg"><path d="M5.611 1.281 C 4.146 1.438,2.917 2.419,2.455 3.799 C 2.252 4.403,2.207 5.075,2.350 5.341 C 2.458 5.541,2.765 5.720,3.000 5.720 C 3.155 5.720,3.391 5.623,3.513 5.508 C 3.668 5.363,3.720 5.219,3.757 4.830 C 3.818 4.183,4.009 3.788,4.465 3.361 C 4.749 3.095,5.077 2.911,5.428 2.820 C 5.773 2.730,18.227 2.730,18.572 2.820 C 18.923 2.911,19.251 3.095,19.535 3.361 C 19.858 3.664,20.022 3.916,20.144 4.302 L 20.240 4.603 20.240 10.412 C 20.240 15.948,20.237 16.234,20.166 16.489 C 19.979 17.161,19.364 17.790,18.683 18.004 C 18.466 18.072,18.254 18.092,17.480 18.119 C 16.641 18.149,16.502 18.163,16.188 18.256 C 15.388 18.494,15.091 18.707,13.808 19.970 C 12.588 21.172,12.518 21.220,11.980 21.220 C 11.475 21.220,11.420 21.181,10.200 19.981 C 9.076 18.875,8.798 18.653,8.237 18.416 C 7.685 18.184,7.534 18.158,6.520 18.121 C 5.749 18.092,5.533 18.071,5.317 18.004 C 4.837 17.853,4.376 17.490,4.073 17.023 C 3.764 16.548,3.783 16.821,3.761 12.620 C 3.742 9.221,3.734 8.848,3.674 8.740 C 3.538 8.494,3.253 8.319,2.991 8.321 C 2.708 8.323,2.362 8.575,2.290 8.833 C 2.273 8.892,2.260 10.605,2.260 12.640 C 2.260 16.006,2.267 16.367,2.330 16.638 C 2.666 18.084,3.718 19.149,5.160 19.501 C 5.330 19.543,5.733 19.576,6.320 19.596 C 7.313 19.631,7.533 19.676,7.940 19.932 C 8.050 20.001,8.617 20.527,9.200 21.100 C 9.783 21.673,10.367 22.213,10.498 22.299 C 11.248 22.791,12.362 22.860,13.184 22.464 C 13.582 22.273,13.785 22.100,14.900 20.999 C 16.275 19.643,16.265 19.648,17.660 19.598 C 18.258 19.576,18.671 19.543,18.840 19.501 C 20.450 19.108,21.565 17.828,21.721 16.193 C 21.751 15.884,21.761 13.947,21.752 10.100 L 21.738 4.460 21.634 4.080 C 21.498 3.589,21.369 3.302,21.103 2.903 C 20.588 2.131,19.755 1.563,18.800 1.335 C 18.519 1.268,18.098 1.263,12.200 1.257 C 8.735 1.253,5.770 1.264,5.611 1.281 M12.036 5.016 C 11.738 5.119,11.460 5.297,11.303 5.484 C 11.244 5.554,10.915 6.031,10.572 6.544 L 9.948 7.476 9.784 7.341 C 9.537 7.139,9.244 7.041,8.736 6.991 C 8.190 6.938,7.529 6.994,7.194 7.122 C 6.683 7.317,6.360 7.768,6.279 8.400 C 6.250 8.626,6.240 9.663,6.249 11.480 C 6.262 14.187,6.263 14.223,6.351 14.484 C 6.506 14.946,6.824 15.264,7.294 15.428 C 7.467 15.488,7.633 15.500,8.320 15.499 C 9.083 15.499,9.156 15.493,9.370 15.407 C 9.497 15.356,9.688 15.245,9.794 15.161 L 9.989 15.007 10.465 15.378 C 11.322 16.046,11.443 16.081,12.960 16.109 C 14.542 16.137,14.937 16.073,15.490 15.695 C 15.820 15.471,16.090 15.177,16.239 14.882 C 16.301 14.760,16.663 13.715,17.044 12.560 L 17.737 10.460 17.736 10.080 C 17.736 9.792,17.716 9.650,17.654 9.496 C 17.472 9.041,17.126 8.688,16.690 8.514 C 16.473 8.427,16.392 8.420,15.300 8.401 L 14.140 8.380 14.152 8.260 C 14.159 8.194,14.208 7.859,14.262 7.515 C 14.375 6.797,14.384 6.462,14.299 6.183 C 14.008 5.222,12.977 4.690,12.036 5.016 M12.782 6.498 C 12.836 6.552,12.880 6.620,12.880 6.648 C 12.879 6.677,12.817 7.096,12.740 7.580 C 12.664 8.064,12.601 8.533,12.601 8.623 C 12.599 9.008,12.846 9.462,13.170 9.667 C 13.464 9.853,13.677 9.879,14.933 9.879 C 15.601 9.880,16.116 9.896,16.158 9.919 C 16.198 9.940,16.242 9.987,16.256 10.023 C 16.269 10.059,15.980 11.004,15.601 12.155 C 14.987 14.023,14.909 14.234,14.791 14.347 C 14.524 14.600,14.522 14.600,13.212 14.598 C 12.391 14.596,11.981 14.581,11.893 14.548 C 11.824 14.521,11.452 14.257,11.066 13.960 L 10.365 13.420 10.363 11.477 L 10.360 9.533 11.364 8.037 C 11.916 7.214,12.404 6.509,12.449 6.470 C 12.559 6.373,12.666 6.382,12.782 6.498 M8.830 11.250 L 8.820 14.020 8.300 14.020 L 7.780 14.020 7.770 11.250 L 7.759 8.480 8.300 8.480 L 8.841 8.480 8.830 11.250 " stroke="none" fill-rule="evenodd" fill="black"></path></svg>