<svg width="24" height="24" viewBox="0 0 24 24" fill="none" xmlns="http://www.w3.org/2000/svg"><path d="M13.020 1.910 C 12.372 1.948,11.613 2.295,11.212 2.736 C 11.106 2.852,10.670 3.467,10.243 4.103 C 9.815 4.739,9.135 5.750,8.730 6.350 L 7.995 7.440 7.834 7.117 C 7.553 6.556,7.138 6.229,6.459 6.032 C 6.156 5.945,6.077 5.940,4.880 5.940 C 3.683 5.940,3.604 5.945,3.301 6.032 C 2.633 6.226,2.201 6.562,1.944 7.087 C 1.640 7.711,1.662 7.238,1.648 13.240 C 1.640 17.021,1.649 18.712,1.680 18.930 C 1.832 19.997,2.362 20.606,3.380 20.887 C 3.677 20.969,3.786 20.976,4.880 20.976 C 6.192 20.976,6.402 20.945,6.956 20.674 C 7.271 20.520,7.661 20.139,7.800 19.850 C 7.855 19.735,7.912 19.646,7.927 19.651 C 7.942 19.656,8.486 20.074,9.137 20.580 C 9.789 21.086,10.424 21.559,10.551 21.630 C 10.846 21.798,11.413 21.980,11.820 22.039 C 12.042 22.071,12.871 22.080,14.540 22.070 C 17.217 22.054,17.093 22.066,17.749 21.760 C 18.560 21.381,19.215 20.769,19.569 20.060 C 19.656 19.884,20.991 15.874,21.056 15.590 C 21.099 15.405,21.002 15.122,20.840 14.960 C 20.548 14.668,20.092 14.667,19.804 14.957 C 19.671 15.090,19.610 15.252,18.984 17.161 C 18.611 18.293,18.263 19.310,18.208 19.420 C 17.957 19.930,17.289 20.429,16.688 20.555 C 16.547 20.585,15.763 20.600,14.356 20.600 C 12.083 20.600,11.886 20.586,11.415 20.387 C 11.289 20.334,10.611 19.835,9.665 19.101 L 8.120 17.901 8.120 13.918 L 8.120 9.935 10.161 6.898 C 11.284 5.228,12.259 3.803,12.327 3.733 C 12.529 3.524,12.808 3.422,13.180 3.421 C 13.461 3.420,13.526 3.434,13.715 3.539 C 13.935 3.661,14.137 3.875,14.259 4.116 C 14.397 4.386,14.381 4.613,14.099 6.400 C 13.780 8.427,13.772 8.644,13.999 9.104 C 14.174 9.459,14.462 9.747,14.819 9.923 L 15.098 10.060 17.519 10.081 C 19.915 10.101,19.942 10.102,20.165 10.192 C 20.555 10.348,20.821 10.684,20.867 11.080 C 20.883 11.213,20.863 11.381,20.804 11.614 C 20.712 11.974,20.718 12.073,20.846 12.328 C 21.013 12.662,21.513 12.786,21.864 12.580 C 22.300 12.324,22.496 11.201,22.244 10.399 C 22.026 9.703,21.460 9.113,20.729 8.817 C 20.239 8.619,19.962 8.600,17.635 8.600 C 15.533 8.600,15.478 8.598,15.400 8.520 C 15.356 8.476,15.320 8.396,15.320 8.343 C 15.320 8.290,15.440 7.493,15.586 6.573 C 15.898 4.605,15.915 4.323,15.743 3.820 C 15.555 3.268,15.198 2.757,14.788 2.452 C 14.269 2.067,13.637 1.873,13.020 1.910 M6.170 7.496 C 6.274 7.535,6.393 7.615,6.434 7.674 C 6.626 7.947,6.620 7.755,6.620 13.460 C 6.620 19.231,6.629 18.985,6.413 19.241 C 6.229 19.460,5.992 19.500,4.880 19.500 C 3.584 19.500,3.405 19.448,3.212 19.019 C 3.144 18.869,3.139 18.564,3.129 13.604 C 3.122 10.237,3.133 8.270,3.158 8.132 C 3.281 7.466,3.454 7.397,4.960 7.414 C 5.822 7.423,6.009 7.436,6.170 7.496 " stroke="none" fill-rule="evenodd" fill="black"></path></svg>