<svg width="24" height="24" viewBox="0 0 24 24" fill="none" xmlns="http://www.w3.org/2000/svg"><path d="M13.464 1.341 C 12.797 1.524,12.123 2.068,11.877 2.620 C 11.723 2.967,10.311 7.338,10.278 7.572 C 10.174 8.298,10.564 9.058,11.208 9.384 C 11.594 9.579,11.769 9.600,13.048 9.600 L 14.240 9.600 14.240 9.698 C 14.240 9.752,14.196 10.072,14.141 10.408 C 13.971 11.462,13.961 11.565,14.000 11.839 C 14.069 12.331,14.426 12.895,14.829 13.152 C 15.525 13.595,16.495 13.513,17.094 12.961 C 17.186 12.876,17.603 12.301,18.020 11.682 C 18.732 10.626,18.782 10.563,18.839 10.634 C 18.956 10.780,19.255 10.961,19.517 11.045 C 19.844 11.149,20.825 11.194,21.269 11.125 C 21.849 11.034,22.259 10.788,22.493 10.389 C 22.709 10.020,22.739 9.824,22.739 8.760 C 22.740 7.804,22.738 7.776,22.647 7.631 C 22.384 7.207,21.825 7.135,21.480 7.480 C 21.274 7.686,21.240 7.875,21.240 8.823 C 21.240 9.528,21.233 9.605,21.170 9.631 C 21.040 9.685,20.009 9.665,19.952 9.608 C 19.878 9.534,19.875 3.509,19.949 3.435 C 20.010 3.374,20.785 3.342,21.040 3.389 L 21.220 3.422 21.252 3.679 C 21.307 4.129,21.481 4.355,21.831 4.433 C 22.155 4.506,22.471 4.373,22.647 4.089 C 22.819 3.812,22.739 3.072,22.493 2.651 C 22.259 2.252,21.849 2.006,21.269 1.915 C 20.825 1.846,19.844 1.891,19.517 1.995 C 19.250 2.080,18.966 2.254,18.820 2.423 L 18.740 2.515 18.180 2.077 C 17.178 1.294,17.119 1.279,15.107 1.284 C 14.029 1.286,13.610 1.301,13.464 1.341 M16.553 2.802 C 16.685 2.832,16.928 2.998,17.563 3.490 L 18.400 4.138 18.400 6.288 L 18.400 8.438 17.262 10.132 C 16.636 11.064,16.098 11.849,16.066 11.875 C 16.033 11.902,15.943 11.934,15.865 11.947 C 15.745 11.966,15.706 11.952,15.602 11.848 C 15.519 11.765,15.480 11.687,15.480 11.602 C 15.480 11.534,15.544 11.079,15.623 10.589 C 15.804 9.461,15.809 9.219,15.660 8.904 C 15.520 8.607,15.295 8.382,15.006 8.246 L 14.780 8.140 13.354 8.120 C 12.024 8.101,11.923 8.095,11.844 8.024 C 11.794 7.978,11.760 7.899,11.760 7.827 C 11.760 7.675,13.179 3.346,13.285 3.172 C 13.367 3.040,13.565 2.895,13.778 2.813 C 13.933 2.753,16.302 2.744,16.553 2.802 M7.640 10.635 C 7.331 10.735,7.103 10.859,6.914 11.030 C 6.824 11.111,6.407 11.687,5.986 12.310 C 5.269 13.373,5.218 13.437,5.161 13.366 C 5.044 13.220,4.745 13.039,4.483 12.955 C 4.156 12.851,3.175 12.806,2.731 12.875 C 2.151 12.966,1.741 13.212,1.507 13.611 C 1.287 13.987,1.261 14.169,1.260 15.320 C 1.260 16.479,1.263 16.497,1.506 16.727 C 1.783 16.989,2.217 16.989,2.494 16.727 C 2.731 16.503,2.738 16.466,2.760 15.381 L 2.780 14.382 2.960 14.349 C 3.215 14.302,3.990 14.334,4.051 14.395 C 4.122 14.466,4.122 20.494,4.051 20.565 C 3.990 20.626,3.215 20.658,2.960 20.611 L 2.780 20.578 2.748 20.321 C 2.709 20.005,2.626 19.824,2.464 19.701 C 2.095 19.422,1.598 19.516,1.353 19.911 C 1.181 20.188,1.261 20.928,1.507 21.349 C 1.741 21.748,2.151 21.994,2.731 22.085 C 3.175 22.154,4.156 22.109,4.483 22.005 C 4.751 21.920,5.035 21.745,5.180 21.576 L 5.260 21.483 5.820 21.922 C 6.818 22.704,6.882 22.720,8.873 22.720 C 10.434 22.719,10.521 22.709,10.986 22.480 C 11.498 22.228,11.929 21.810,12.123 21.380 C 12.275 21.040,13.688 16.664,13.722 16.429 C 13.825 15.695,13.441 14.945,12.792 14.616 C 12.406 14.421,12.231 14.400,10.952 14.400 L 9.760 14.400 9.760 14.302 C 9.760 14.248,9.804 13.928,9.859 13.592 C 10.029 12.538,10.039 12.435,10.000 12.161 C 9.931 11.669,9.574 11.105,9.171 10.848 C 8.730 10.567,8.116 10.482,7.640 10.635 M8.403 12.157 C 8.481 12.235,8.520 12.314,8.520 12.396 C 8.520 12.463,8.456 12.919,8.378 13.409 C 8.197 14.544,8.191 14.782,8.340 15.095 C 8.477 15.385,8.711 15.620,9.000 15.756 L 9.220 15.860 10.646 15.880 C 11.976 15.899,12.077 15.905,12.156 15.976 C 12.206 16.022,12.240 16.101,12.240 16.173 C 12.240 16.323,10.822 20.653,10.717 20.825 C 10.631 20.963,10.411 21.122,10.204 21.193 C 10.033 21.252,7.699 21.256,7.448 21.198 C 7.318 21.168,7.071 21.000,6.438 20.510 L 5.600 19.861 5.603 17.701 L 5.606 15.540 6.753 13.841 C 7.468 12.782,7.938 12.122,8.000 12.091 C 8.159 12.012,8.277 12.031,8.403 12.157 " stroke="none" fill-rule="evenodd" fill="black"></path></svg>