<svg width="24" height="24" viewBox="0 0 24 24" fill="none" xmlns="http://www.w3.org/2000/svg"><path d="M5.611 1.281 C 4.146 1.438,2.917 2.419,2.455 3.799 C 2.252 4.403,2.207 5.075,2.350 5.341 C 2.458 5.541,2.765 5.720,3.000 5.720 C 3.155 5.720,3.391 5.623,3.513 5.508 C 3.668 5.363,3.720 5.219,3.757 4.830 C 3.818 4.183,4.009 3.788,4.465 3.361 C 4.749 3.095,5.077 2.911,5.428 2.820 C 5.773 2.730,18.227 2.730,18.572 2.820 C 18.923 2.911,19.251 3.095,19.535 3.361 C 19.858 3.664,20.022 3.916,20.144 4.302 L 20.240 4.603 20.240 10.412 C 20.240 15.948,20.237 16.234,20.166 16.489 C 19.979 17.161,19.364 17.790,18.683 18.004 C 18.466 18.072,18.254 18.092,17.480 18.119 C 16.641 18.149,16.502 18.163,16.188 18.256 C 15.388 18.494,15.091 18.707,13.808 19.970 C 12.588 21.172,12.518 21.220,11.980 21.220 C 11.475 21.220,11.420 21.181,10.200 19.981 C 9.076 18.875,8.798 18.653,8.237 18.416 C 7.685 18.184,7.534 18.158,6.520 18.121 C 5.749 18.092,5.533 18.071,5.317 18.004 C 4.837 17.853,4.376 17.490,4.073 17.023 C 3.764 16.548,3.783 16.821,3.761 12.620 C 3.740 8.904,3.739 8.858,3.656 8.700 C 3.610 8.612,3.499 8.488,3.408 8.423 C 3.270 8.326,3.203 8.307,3.007 8.307 C 2.721 8.307,2.526 8.412,2.367 8.652 L 2.260 8.814 2.260 12.577 C 2.260 16.008,2.266 16.366,2.329 16.638 C 2.667 18.085,3.718 19.149,5.160 19.501 C 5.330 19.543,5.733 19.576,6.320 19.596 C 7.313 19.631,7.533 19.676,7.940 19.932 C 8.050 20.001,8.617 20.527,9.200 21.100 C 9.783 21.673,10.367 22.213,10.498 22.299 C 11.248 22.791,12.362 22.860,13.184 22.464 C 13.582 22.273,13.785 22.100,14.900 20.999 C 16.275 19.643,16.265 19.648,17.660 19.598 C 18.258 19.576,18.671 19.543,18.840 19.501 C 20.450 19.108,21.565 17.828,21.721 16.193 C 21.751 15.884,21.761 13.947,21.752 10.100 L 21.738 4.460 21.634 4.080 C 21.498 3.589,21.369 3.302,21.103 2.903 C 20.588 2.131,19.755 1.563,18.800 1.335 C 18.519 1.268,18.098 1.263,12.200 1.257 C 8.735 1.253,5.770 1.264,5.611 1.281 M9.611 6.281 C 8.347 6.414,7.236 7.360,6.878 8.607 C 6.654 9.388,6.767 10.612,7.157 11.623 C 7.784 13.248,9.610 14.985,11.360 15.619 C 12.126 15.896,12.859 15.685,12.994 15.146 C 13.131 14.605,12.703 14.165,12.099 14.228 C 11.914 14.247,11.863 14.230,11.419 14.004 C 9.821 13.188,8.627 11.788,8.347 10.400 C 8.152 9.435,8.272 8.782,8.732 8.310 C 9.136 7.895,9.522 7.742,10.105 7.767 C 10.430 7.782,10.505 7.800,10.775 7.933 C 11.003 8.046,11.131 8.144,11.289 8.324 C 11.578 8.654,11.716 8.733,12.000 8.733 C 12.284 8.733,12.422 8.654,12.711 8.324 C 12.869 8.144,12.997 8.046,13.225 7.933 C 13.495 7.800,13.570 7.782,13.895 7.767 C 14.478 7.742,14.864 7.895,15.268 8.310 C 15.751 8.806,15.869 9.560,15.617 10.553 C 15.520 10.938,15.235 11.569,14.979 11.966 C 14.801 12.242,14.765 12.457,14.857 12.698 C 15.025 13.139,15.551 13.323,15.948 13.081 C 16.181 12.940,16.644 12.156,16.893 11.480 C 17.138 10.815,17.218 10.353,17.219 9.600 C 17.219 9.029,17.207 8.897,17.127 8.620 C 16.831 7.589,15.975 6.704,14.982 6.402 C 14.056 6.121,12.874 6.298,12.173 6.824 C 12.014 6.943,11.986 6.943,11.827 6.824 C 11.642 6.685,11.230 6.487,10.943 6.398 C 10.742 6.336,10.004 6.226,9.920 6.246 C 9.909 6.249,9.770 6.265,9.611 6.281 " stroke="none" fill-rule="evenodd" fill="black"></path></svg>