<svg width="24" height="24" viewBox="0 0 24 24" fill="none" xmlns="http://www.w3.org/2000/svg"><path d="M14.660 2.494 C 14.594 2.525,14.492 2.602,14.433 2.665 C 14.128 2.990,14.189 3.540,14.557 3.783 C 14.684 3.867,14.787 3.892,15.126 3.923 C 16.576 4.054,17.629 4.544,18.592 5.537 C 19.174 6.137,19.579 6.802,19.812 7.541 C 20.396 9.392,19.989 11.264,18.682 12.740 C 18.373 13.089,18.295 13.269,18.338 13.538 C 18.413 14.009,18.957 14.298,19.385 14.095 C 19.742 13.925,20.565 12.832,20.924 12.048 C 21.396 11.017,21.585 10.092,21.550 8.976 C 21.513 7.818,21.257 6.873,20.718 5.902 C 19.755 4.171,18.095 2.953,16.160 2.558 C 15.623 2.449,14.829 2.414,14.660 2.494 M10.411 4.199 C 10.214 4.246,10.109 4.330,9.779 4.708 C 9.071 5.518,8.556 6.496,8.303 7.515 C 8.044 8.559,8.036 9.695,8.283 10.740 C 8.562 11.923,9.253 13.164,10.035 13.889 C 10.233 14.073,10.314 14.120,10.464 14.143 C 10.929 14.212,11.320 13.883,11.320 13.420 C 11.320 13.161,11.249 13.022,10.943 12.682 C 10.257 11.920,9.813 10.992,9.654 9.985 C 9.560 9.393,9.597 8.482,9.738 7.921 C 9.854 7.457,10.093 6.866,10.311 6.500 C 10.469 6.235,10.910 5.651,11.022 5.559 C 11.061 5.526,11.145 5.420,11.207 5.322 C 11.562 4.764,11.054 4.047,10.411 4.199 M4.610 10.266 C 4.368 10.385,3.776 11.085,3.433 11.660 C 2.810 12.699,2.521 13.752,2.521 14.980 C 2.521 16.270,2.822 17.344,3.486 18.430 C 4.340 19.826,5.780 20.883,7.400 21.301 C 8.385 21.555,9.677 21.541,10.700 21.264 C 12.051 20.898,13.348 20.018,14.192 18.895 C 15.756 16.813,15.911 13.950,14.581 11.700 C 14.215 11.080,13.603 10.362,13.358 10.264 C 13.149 10.180,12.938 10.184,12.740 10.275 C 12.550 10.363,12.464 10.452,12.382 10.650 C 12.240 10.989,12.318 11.226,12.722 11.685 C 14.454 13.651,14.416 16.537,12.632 18.421 C 11.707 19.399,10.514 19.940,9.180 19.988 C 8.505 20.012,8.020 19.943,7.400 19.736 C 6.653 19.487,6.126 19.162,5.531 18.585 C 4.536 17.622,4.000 16.367,4.000 15.000 C 4.000 13.742,4.442 12.610,5.318 11.620 C 5.627 11.271,5.705 11.091,5.662 10.822 C 5.587 10.351,5.032 10.058,4.610 10.266 " stroke="none" fill-rule="evenodd" fill="black"></path></svg>