<svg width="24" height="24" viewBox="0 0 24 24" fill="none" xmlns="http://www.w3.org/2000/svg"><path d="M6.708 5.805 C 6.000 5.896,5.021 6.203,4.730 6.425 C 4.215 6.818,4.438 7.655,5.082 7.744 C 5.231 7.764,5.337 7.740,5.701 7.606 C 6.540 7.295,6.920 7.241,8.247 7.240 C 9.210 7.240,9.306 7.225,9.494 7.047 C 9.661 6.889,9.731 6.727,9.731 6.500 C 9.731 6.193,9.540 5.905,9.267 5.803 C 9.132 5.751,7.111 5.753,6.708 5.805 M14.654 5.842 C 14.562 5.888,14.437 5.998,14.374 6.089 C 14.279 6.226,14.260 6.294,14.260 6.500 C 14.260 6.704,14.279 6.774,14.369 6.904 C 14.584 7.215,14.594 7.217,15.920 7.244 C 16.814 7.263,17.177 7.286,17.420 7.338 C 19.663 7.823,21.240 9.746,21.240 11.994 C 21.240 14.415,19.440 16.429,17.020 16.717 C 16.822 16.741,16.247 16.760,15.743 16.760 C 14.690 16.760,14.584 16.785,14.374 17.088 C 14.279 17.226,14.260 17.294,14.260 17.500 C 14.260 17.706,14.279 17.774,14.374 17.912 C 14.442 18.009,14.562 18.112,14.666 18.163 C 14.838 18.246,14.876 18.248,16.071 18.228 C 17.450 18.205,17.686 18.175,18.445 17.921 C 19.400 17.602,20.193 17.116,20.894 16.418 C 22.094 15.223,22.729 13.694,22.729 12.000 C 22.729 11.235,22.620 10.585,22.377 9.907 C 21.761 8.184,20.381 6.789,18.660 6.148 C 17.842 5.843,17.241 5.760,15.848 5.760 C 14.891 5.760,14.808 5.766,14.654 5.842 M2.060 9.337 C 1.863 9.425,1.727 9.606,1.604 9.942 C 1.292 10.799,1.181 12.099,1.341 13.021 C 1.810 15.730,3.975 17.825,6.672 18.180 C 7.213 18.252,9.091 18.264,9.267 18.197 C 9.409 18.144,9.588 17.976,9.669 17.821 C 9.750 17.667,9.749 17.332,9.668 17.175 C 9.577 16.999,9.344 16.807,9.191 16.783 C 9.119 16.772,8.565 16.755,7.960 16.745 C 7.129 16.731,6.787 16.711,6.560 16.660 C 4.320 16.159,2.760 14.246,2.760 12.001 C 2.760 11.449,2.833 10.988,3.005 10.452 C 3.147 10.007,3.143 9.839,2.983 9.598 C 2.797 9.316,2.374 9.197,2.060 9.337 M7.815 11.278 C 7.331 11.393,7.098 12.004,7.383 12.408 C 7.447 12.499,7.572 12.610,7.660 12.656 C 7.819 12.739,7.851 12.740,11.879 12.751 C 14.744 12.759,16.001 12.749,16.153 12.717 C 16.902 12.562,16.930 11.473,16.189 11.286 C 15.979 11.234,8.034 11.226,7.815 11.278 " stroke="none" fill-rule="evenodd" fill="black"></path></svg>