<svg width="24" height="24" viewBox="0 0 24 24" fill="none" xmlns="http://www.w3.org/2000/svg"><path d="M15.480 5.283 C 12.512 5.499,9.994 7.716,9.401 10.636 C 9.301 11.127,9.233 11.974,9.278 12.173 C 9.296 12.250,9.348 12.367,9.394 12.432 C 9.706 12.870,10.431 12.817,10.658 12.339 C 10.702 12.247,10.739 12.024,10.760 11.727 C 10.858 10.356,11.361 9.236,12.299 8.299 C 13.037 7.560,13.935 7.072,14.960 6.853 C 15.438 6.750,16.606 6.750,17.060 6.853 C 17.880 7.038,18.538 7.346,19.230 7.869 L 19.696 8.220 19.981 8.220 C 20.232 8.220,20.284 8.207,20.413 8.108 C 20.705 7.885,20.798 7.507,20.641 7.182 C 20.552 6.998,20.171 6.669,19.666 6.341 C 18.434 5.541,16.980 5.174,15.480 5.283 M6.780 5.580 C 5.405 5.800,4.165 6.424,3.185 7.390 C 1.934 8.624,1.274 10.215,1.274 12.000 C 1.274 13.785,1.934 15.376,3.185 16.610 C 4.420 17.828,6.006 18.477,7.750 18.479 C 10.739 18.483,13.302 16.492,14.042 13.591 C 14.211 12.932,14.290 11.978,14.197 11.733 C 14.095 11.460,13.807 11.269,13.500 11.269 C 13.260 11.269,13.096 11.345,12.928 11.537 C 12.793 11.691,12.775 11.762,12.738 12.300 C 12.583 14.570,10.987 16.415,8.760 16.899 C 8.294 17.001,7.458 17.021,6.980 16.942 C 5.188 16.648,3.699 15.434,3.066 13.752 C 2.840 13.152,2.782 12.793,2.782 12.000 C 2.782 11.356,2.794 11.211,2.877 10.880 C 3.147 9.792,3.647 8.962,4.473 8.229 C 5.302 7.492,6.557 7.001,7.611 7.000 C 8.153 7.000,8.480 6.723,8.480 6.264 C 8.480 5.947,8.320 5.690,8.051 5.575 C 7.890 5.506,7.227 5.509,6.780 5.580 M21.815 11.277 C 21.641 11.320,21.462 11.456,21.359 11.621 C 21.290 11.734,21.266 11.857,21.240 12.251 C 21.147 13.631,20.644 14.759,19.701 15.701 C 18.758 16.645,17.631 17.147,16.247 17.240 C 15.820 17.269,15.734 17.286,15.602 17.374 C 15.167 17.662,15.144 18.303,15.557 18.598 C 15.735 18.724,15.955 18.753,16.470 18.717 C 19.827 18.484,22.484 15.827,22.717 12.470 C 22.755 11.937,22.723 11.724,22.580 11.536 C 22.421 11.327,22.078 11.211,21.815 11.277 " stroke="none" fill-rule="evenodd" fill="black"></path></svg>