<svg width="24" height="24" viewBox="0 0 24 24" fill="none" xmlns="http://www.w3.org/2000/svg"><path d="M11.560 1.267 C 10.326 1.322,9.152 1.571,8.041 2.012 C 7.427 2.256,7.240 2.454,7.240 2.860 C 7.240 3.229,7.525 3.548,7.892 3.589 C 8.032 3.605,8.152 3.574,8.523 3.428 C 9.718 2.955,10.735 2.760,12.006 2.760 C 13.464 2.760,14.754 3.058,16.060 3.698 C 17.024 4.170,17.648 4.611,18.434 5.378 C 19.273 6.195,19.814 6.937,20.303 7.940 C 20.944 9.253,21.240 10.537,21.240 12.000 C 21.240 13.465,20.943 14.752,20.302 16.060 C 19.830 17.024,19.389 17.648,18.622 18.434 C 17.805 19.273,17.063 19.814,16.060 20.303 C 14.747 20.944,13.463 21.240,12.000 21.240 C 10.537 21.240,9.253 20.944,7.940 20.303 C 6.937 19.814,6.195 19.273,5.378 18.434 C 4.611 17.648,4.170 17.024,3.698 16.060 C 3.058 14.754,2.760 13.464,2.760 12.005 C 2.760 10.060,3.331 8.256,4.457 6.648 C 4.701 6.298,4.770 6.095,4.724 5.855 C 4.656 5.497,4.372 5.267,4.000 5.267 C 3.678 5.267,3.534 5.369,3.222 5.816 C 1.432 8.383,0.834 11.537,1.564 14.550 C 1.904 15.951,2.529 17.268,3.424 18.470 C 3.880 19.083,4.909 20.111,5.530 20.575 C 7.606 22.126,10.070 22.870,12.627 22.717 C 14.790 22.588,16.724 21.879,18.470 20.575 C 19.087 20.115,20.115 19.087,20.575 18.470 C 22.127 16.391,22.870 13.930,22.717 11.373 C 22.588 9.210,21.879 7.276,20.575 5.530 C 20.115 4.913,19.087 3.885,18.470 3.425 C 17.047 2.362,15.454 1.679,13.742 1.398 C 13.325 1.330,12.055 1.227,11.880 1.248 C 11.847 1.252,11.703 1.261,11.560 1.267 M10.880 6.345 C 10.516 6.414,10.098 6.547,9.840 6.675 C 9.562 6.814,7.608 8.008,7.060 8.373 C 6.456 8.776,6.000 9.300,5.696 9.940 C 5.039 11.322,5.211 12.934,6.139 14.097 C 6.507 14.558,7.091 14.989,7.609 15.180 C 8.178 15.391,8.725 15.006,8.670 14.435 C 8.640 14.118,8.502 13.957,8.096 13.763 C 7.275 13.371,6.779 12.570,6.791 11.656 C 6.799 10.986,7.046 10.388,7.497 9.943 C 7.732 9.712,8.019 9.516,9.071 8.868 C 9.779 8.433,10.453 8.035,10.569 7.984 C 10.907 7.836,11.180 7.787,11.516 7.813 C 12.075 7.857,12.504 8.053,12.880 8.436 C 13.310 8.874,13.532 9.431,13.527 10.058 C 13.520 10.969,13.135 11.643,12.284 12.237 C 11.869 12.527,11.749 12.702,11.749 13.017 C 11.749 13.338,11.906 13.571,12.209 13.698 C 12.522 13.829,12.696 13.774,13.272 13.365 C 14.718 12.341,15.328 10.679,14.877 9.000 C 14.542 7.756,13.552 6.771,12.300 6.436 C 11.988 6.352,11.132 6.298,10.880 6.345 M15.780 8.784 C 15.592 8.887,15.515 8.967,15.435 9.140 C 15.345 9.337,15.341 9.516,15.422 9.711 C 15.514 9.932,15.624 10.028,16.015 10.230 C 16.587 10.526,16.963 10.979,17.183 11.640 C 17.280 11.931,17.281 12.561,17.184 12.917 C 17.029 13.487,16.668 14.003,16.203 14.317 C 15.827 14.571,13.791 15.823,13.576 15.932 C 13.115 16.165,12.659 16.213,12.143 16.081 C 11.729 15.975,11.470 15.829,11.173 15.534 C 10.899 15.261,10.641 14.784,10.564 14.408 C 10.502 14.109,10.510 13.625,10.582 13.321 C 10.734 12.679,11.088 12.196,11.741 11.741 C 12.140 11.462,12.261 11.313,12.303 11.048 C 12.376 10.591,11.935 10.150,11.468 10.212 C 11.249 10.242,10.592 10.691,10.197 11.080 C 9.696 11.575,9.343 12.183,9.153 12.880 C 9.072 13.177,9.060 13.308,9.062 13.920 C 9.064 14.563,9.073 14.648,9.173 14.972 C 9.596 16.351,10.602 17.288,11.960 17.569 C 12.674 17.717,13.528 17.614,14.180 17.300 C 14.583 17.107,17.011 15.592,17.325 15.339 C 17.470 15.221,17.671 15.029,17.770 14.913 C 19.055 13.399,19.082 11.283,17.836 9.768 C 17.402 9.239,16.608 8.754,16.140 8.731 C 15.974 8.722,15.863 8.739,15.780 8.784 " stroke="none" fill-rule="evenodd" fill="black"></path></svg>