<svg width="24" height="24" viewBox="0 0 24 24" fill="none" xmlns="http://www.w3.org/2000/svg"><path d="M11.335 1.280 C 10.457 1.343,9.446 1.551,8.620 1.840 C 8.148 2.005,7.143 2.497,6.740 2.761 C 6.016 3.235,5.388 3.784,5.296 4.024 C 5.111 4.509,5.462 5.036,5.971 5.039 C 6.200 5.040,6.368 4.952,6.724 4.644 C 7.914 3.614,9.417 2.982,11.124 2.795 C 11.655 2.737,12.901 2.773,13.380 2.860 C 15.231 3.196,16.638 3.925,17.809 5.155 C 18.988 6.394,19.663 7.989,19.842 9.959 C 20.076 12.529,19.031 15.404,16.910 18.020 C 16.165 18.940,15.171 19.974,14.652 20.369 C 14.210 20.705,13.668 20.965,13.061 21.130 C 12.785 21.206,12.635 21.218,12.000 21.219 C 11.314 21.219,11.231 21.211,10.865 21.109 C 9.830 20.821,9.225 20.393,8.039 19.112 C 6.122 17.043,4.924 14.986,4.404 12.875 C 4.075 11.537,4.045 10.326,4.305 8.880 C 4.381 8.456,4.364 8.278,4.229 8.074 C 3.932 7.628,3.174 7.687,2.959 8.174 C 2.868 8.378,2.744 9.052,2.678 9.697 C 2.617 10.295,2.649 11.622,2.739 12.200 C 3.160 14.905,4.580 17.584,6.950 20.143 C 8.347 21.652,9.295 22.278,10.660 22.593 C 12.250 22.960,13.952 22.644,15.317 21.727 C 16.334 21.044,17.994 19.216,19.083 17.580 C 20.232 15.854,20.991 13.975,21.265 12.180 C 21.369 11.504,21.369 9.856,21.267 9.200 C 21.126 8.297,20.921 7.540,20.618 6.800 C 19.261 3.493,16.115 1.406,12.280 1.267 C 12.005 1.257,11.580 1.263,11.335 1.280 M14.660 8.260 C 14.638 8.267,14.566 8.285,14.500 8.299 C 14.411 8.318,13.914 8.790,12.571 10.131 L 10.762 11.936 10.211 11.394 C 9.610 10.803,9.497 10.737,9.154 10.770 C 8.924 10.792,8.700 10.948,8.590 11.163 C 8.512 11.316,8.498 11.616,8.562 11.787 C 8.612 11.921,10.247 13.577,10.419 13.668 C 10.577 13.752,10.908 13.749,11.081 13.662 C 11.255 13.574,15.207 9.644,15.364 9.402 C 15.591 9.054,15.481 8.565,15.134 8.374 C 14.984 8.292,14.741 8.233,14.660 8.260 " stroke="none" fill-rule="evenodd" fill="black"></path></svg>