<svg width="24" height="24" viewBox="0 0 24 24" fill="none" xmlns="http://www.w3.org/2000/svg"><path d="M11.335 1.280 C 10.457 1.343,9.446 1.551,8.620 1.840 C 8.148 2.005,7.143 2.497,6.740 2.761 C 6.016 3.235,5.388 3.784,5.296 4.024 C 5.111 4.509,5.462 5.036,5.971 5.039 C 6.200 5.040,6.368 4.952,6.724 4.644 C 7.914 3.614,9.417 2.982,11.124 2.795 C 11.655 2.737,12.901 2.773,13.380 2.860 C 15.231 3.196,16.638 3.925,17.809 5.155 C 18.988 6.394,19.663 7.989,19.842 9.959 C 20.076 12.529,19.031 15.404,16.910 18.020 C 16.165 18.940,15.171 19.974,14.652 20.369 C 14.210 20.705,13.668 20.965,13.061 21.130 C 12.785 21.206,12.635 21.218,12.000 21.219 C 11.314 21.219,11.231 21.211,10.865 21.109 C 9.830 20.821,9.225 20.393,8.039 19.112 C 6.122 17.043,4.924 14.986,4.404 12.875 C 4.075 11.537,4.045 10.326,4.305 8.880 C 4.381 8.456,4.364 8.278,4.229 8.074 C 3.932 7.628,3.174 7.687,2.959 8.174 C 2.868 8.378,2.744 9.052,2.678 9.697 C 2.617 10.295,2.649 11.622,2.739 12.200 C 3.160 14.905,4.580 17.584,6.950 20.143 C 8.347 21.652,9.295 22.278,10.660 22.593 C 12.250 22.960,13.952 22.644,15.317 21.727 C 16.334 21.044,17.994 19.216,19.083 17.580 C 20.232 15.854,20.991 13.975,21.265 12.180 C 21.369 11.504,21.369 9.856,21.267 9.200 C 21.126 8.297,20.921 7.540,20.618 6.800 C 19.261 3.493,16.115 1.406,12.280 1.267 C 12.005 1.257,11.580 1.263,11.335 1.280 M11.619 7.617 C 11.529 7.671,11.415 7.790,11.359 7.887 C 11.261 8.058,11.260 8.074,11.247 9.147 L 11.234 10.234 10.147 10.247 L 9.060 10.260 8.880 10.366 C 8.392 10.653,8.396 11.360,8.886 11.640 C 9.058 11.739,9.073 11.740,10.147 11.753 L 11.234 11.766 11.247 12.853 L 11.260 13.940 11.366 14.120 C 11.652 14.606,12.348 14.606,12.634 14.120 L 12.740 13.940 12.753 12.853 L 12.766 11.766 13.853 11.753 L 14.940 11.740 15.120 11.634 C 15.606 11.348,15.606 10.652,15.120 10.366 L 14.940 10.260 13.853 10.247 L 12.766 10.234 12.753 9.147 L 12.740 8.060 12.634 7.880 C 12.427 7.528,11.967 7.409,11.619 7.617 " stroke="none" fill-rule="evenodd" fill="black"></path></svg>