<svg width="24" height="24" viewBox="0 0 24 24" fill="none" xmlns="http://www.w3.org/2000/svg"><path d="M11.300 1.283 C 9.685 1.391,8.124 1.892,6.805 2.727 C 6.202 3.108,5.926 3.339,5.838 3.532 C 5.632 3.987,5.895 4.479,6.395 4.574 C 6.617 4.617,6.811 4.535,7.288 4.200 C 8.360 3.446,9.715 2.945,11.087 2.795 C 11.628 2.736,12.947 2.772,13.420 2.858 C 14.974 3.141,16.304 3.765,17.371 4.710 C 17.542 4.861,17.707 5.021,17.738 5.066 C 17.791 5.141,17.711 5.229,16.418 6.522 L 15.042 7.898 14.751 7.610 C 14.377 7.241,14.087 7.036,13.628 6.819 C 12.828 6.440,11.975 6.352,11.100 6.559 C 10.225 6.766,9.372 7.335,8.863 8.053 C 8.129 9.087,7.947 10.443,8.382 11.651 C 8.568 12.171,8.883 12.653,9.303 13.064 L 9.592 13.348 7.882 15.058 L 6.172 16.767 5.965 16.444 C 5.333 15.458,4.793 14.283,4.485 13.220 C 4.390 12.892,4.265 12.280,4.195 11.800 C 4.123 11.306,4.135 9.912,4.215 9.440 C 4.401 8.352,4.399 8.253,4.189 8.013 C 4.119 7.933,4.003 7.844,3.932 7.814 C 3.640 7.692,3.229 7.788,3.046 8.021 C 2.937 8.160,2.897 8.295,2.803 8.843 C 2.407 11.157,2.755 13.423,3.856 15.700 C 4.197 16.405,4.439 16.835,4.851 17.473 L 5.092 17.846 3.231 19.713 C 2.207 20.740,1.346 21.625,1.318 21.680 C 1.290 21.735,1.267 21.881,1.267 22.004 C 1.267 22.498,1.681 22.816,2.189 22.712 C 2.376 22.674,2.592 22.460,12.490 12.566 C 18.342 6.717,22.628 2.403,22.665 2.324 C 22.753 2.138,22.747 1.837,22.651 1.651 C 22.608 1.568,22.499 1.448,22.408 1.383 C 22.194 1.233,21.848 1.218,21.636 1.352 C 21.561 1.398,20.909 2.028,20.187 2.751 L 18.874 4.066 18.587 3.791 C 17.076 2.344,14.975 1.448,12.700 1.281 C 12.087 1.236,12.006 1.237,11.300 1.283 M20.053 7.838 C 19.848 7.931,19.678 8.173,19.651 8.409 C 19.641 8.503,19.669 8.778,19.714 9.020 C 19.814 9.560,19.880 10.221,19.880 10.677 C 19.879 11.082,19.788 11.969,19.700 12.417 C 19.377 14.076,18.516 15.897,17.278 17.540 C 16.395 18.712,15.097 20.076,14.462 20.497 C 13.133 21.379,11.459 21.482,10.015 20.772 C 9.677 20.606,9.482 20.472,8.896 20.003 C 8.710 19.855,8.640 19.823,8.460 19.808 C 7.933 19.765,7.539 20.237,7.677 20.748 C 7.799 21.202,9.126 22.113,10.133 22.436 C 10.765 22.638,11.058 22.685,11.803 22.708 C 12.586 22.732,13.028 22.682,13.660 22.499 C 14.697 22.199,15.529 21.674,16.480 20.721 C 19.204 17.992,20.785 15.159,21.268 12.140 C 21.369 11.512,21.368 9.847,21.267 9.200 C 21.112 8.204,21.032 8.007,20.721 7.850 C 20.504 7.740,20.276 7.736,20.053 7.838 M12.274 7.962 C 12.673 8.012,12.953 8.111,13.266 8.315 C 13.481 8.455,13.854 8.803,13.925 8.931 C 13.946 8.968,13.448 9.492,12.302 10.638 L 10.648 12.292 10.353 11.996 C 9.743 11.383,9.505 10.557,9.700 9.730 C 9.913 8.825,10.747 8.079,11.680 7.959 C 11.801 7.943,11.909 7.928,11.921 7.925 C 11.933 7.922,12.091 7.939,12.274 7.962 " stroke="none" fill-rule="evenodd" fill="black"></path></svg>