<svg width="24" height="24" viewBox="0 0 24 24" fill="none" xmlns="http://www.w3.org/2000/svg"><path d="M11.335 1.280 C 10.457 1.343,9.446 1.551,8.620 1.840 C 8.148 2.005,7.143 2.497,6.740 2.761 C 6.016 3.235,5.388 3.784,5.296 4.024 C 5.111 4.509,5.462 5.036,5.971 5.039 C 6.200 5.040,6.368 4.952,6.724 4.644 C 7.914 3.614,9.417 2.982,11.124 2.795 C 11.655 2.737,12.901 2.773,13.380 2.860 C 15.231 3.196,16.638 3.925,17.809 5.155 C 18.988 6.394,19.663 7.989,19.842 9.959 C 20.076 12.529,19.031 15.404,16.910 18.020 C 16.165 18.940,15.171 19.974,14.652 20.369 C 14.210 20.705,13.668 20.965,13.061 21.130 C 12.785 21.206,12.635 21.218,12.000 21.219 C 11.314 21.219,11.231 21.211,10.865 21.109 C 9.830 20.821,9.225 20.393,8.039 19.112 C 6.122 17.043,4.924 14.986,4.404 12.875 C 4.075 11.537,4.045 10.326,4.305 8.880 C 4.381 8.456,4.364 8.278,4.229 8.074 C 3.932 7.628,3.174 7.687,2.959 8.174 C 2.868 8.378,2.744 9.052,2.678 9.697 C 2.617 10.295,2.649 11.622,2.739 12.200 C 3.160 14.905,4.580 17.584,6.950 20.143 C 8.347 21.652,9.295 22.278,10.660 22.593 C 12.250 22.960,13.952 22.644,15.317 21.727 C 16.334 21.044,17.994 19.216,19.083 17.580 C 20.232 15.854,20.991 13.975,21.265 12.180 C 21.369 11.504,21.369 9.856,21.267 9.200 C 21.126 8.297,20.921 7.540,20.618 6.800 C 19.261 3.493,16.115 1.406,12.280 1.267 C 12.005 1.257,11.580 1.263,11.335 1.280 M11.580 6.464 C 10.929 6.561,10.347 6.776,9.860 7.100 C 8.900 7.739,8.283 8.769,8.166 9.929 C 8.021 11.358,8.673 12.738,9.868 13.532 C 10.206 13.757,10.488 13.886,10.954 14.029 C 11.269 14.126,11.361 14.135,11.980 14.138 C 12.574 14.140,12.700 14.128,12.975 14.049 C 13.886 13.785,14.568 13.325,15.089 12.624 C 15.523 12.040,15.762 11.419,15.838 10.680 C 15.902 10.056,15.788 9.788,15.391 9.622 C 15.203 9.543,15.037 9.543,14.849 9.622 C 14.515 9.761,14.411 9.943,14.361 10.474 C 14.297 11.145,14.066 11.622,13.594 12.060 C 12.886 12.715,11.829 12.864,10.936 12.434 C 10.737 12.338,10.571 12.212,10.340 11.980 C 9.846 11.487,9.639 10.997,9.641 10.322 C 9.642 9.564,9.909 8.992,10.498 8.482 C 10.724 8.286,11.053 8.113,11.381 8.018 C 11.680 7.931,12.247 7.930,12.600 8.016 C 12.949 8.100,13.102 8.096,13.310 7.995 C 13.569 7.870,13.700 7.650,13.700 7.343 C 13.699 6.908,13.500 6.704,12.934 6.558 C 12.628 6.479,11.847 6.425,11.580 6.464 " stroke="none" fill-rule="evenodd" fill="black"></path></svg>