<svg width="24" height="24" viewBox="0 0 24 24" fill="none" xmlns="http://www.w3.org/2000/svg"><path d="M11.560 1.267 C 10.326 1.322,9.152 1.571,8.041 2.012 C 7.427 2.256,7.240 2.454,7.240 2.860 C 7.240 3.229,7.525 3.548,7.892 3.589 C 8.032 3.605,8.152 3.574,8.523 3.428 C 9.718 2.955,10.735 2.760,12.006 2.760 C 13.464 2.760,14.754 3.058,16.060 3.698 C 17.024 4.170,17.648 4.611,18.434 5.378 C 19.273 6.195,19.814 6.937,20.303 7.940 C 20.944 9.253,21.240 10.537,21.240 12.000 C 21.240 13.465,20.943 14.752,20.302 16.060 C 19.830 17.024,19.389 17.648,18.622 18.434 C 17.805 19.273,17.063 19.814,16.060 20.303 C 14.747 20.944,13.463 21.240,12.000 21.240 C 10.537 21.240,9.253 20.944,7.940 20.303 C 6.937 19.814,6.195 19.273,5.378 18.434 C 4.611 17.648,4.170 17.024,3.698 16.060 C 3.058 14.754,2.760 13.464,2.760 12.005 C 2.760 10.060,3.331 8.256,4.457 6.648 C 4.701 6.298,4.770 6.095,4.724 5.855 C 4.656 5.497,4.372 5.267,4.000 5.267 C 3.678 5.267,3.534 5.369,3.222 5.816 C 1.432 8.383,0.834 11.537,1.564 14.550 C 1.904 15.951,2.529 17.268,3.424 18.470 C 3.880 19.083,4.909 20.111,5.530 20.575 C 7.606 22.126,10.070 22.870,12.627 22.717 C 14.790 22.588,16.724 21.879,18.470 20.575 C 19.087 20.115,20.115 19.087,20.575 18.470 C 22.127 16.391,22.870 13.930,22.717 11.373 C 22.588 9.210,21.879 7.276,20.575 5.530 C 20.115 4.913,19.087 3.885,18.470 3.425 C 17.047 2.362,15.454 1.679,13.742 1.398 C 13.325 1.330,12.055 1.227,11.880 1.248 C 11.847 1.252,11.703 1.261,11.560 1.267 M11.457 6.282 C 10.426 6.362,9.637 6.701,9.086 7.303 C 8.566 7.871,8.318 8.624,8.257 9.825 L 8.230 10.350 7.985 10.417 C 7.146 10.650,6.621 11.195,6.399 12.065 C 6.192 12.872,6.191 15.125,6.397 15.929 C 6.655 16.935,7.247 17.457,8.372 17.670 C 8.703 17.733,9.068 17.740,12.000 17.740 C 14.932 17.740,15.297 17.733,15.628 17.670 C 16.847 17.440,17.446 16.840,17.668 15.628 C 17.766 15.095,17.766 12.905,17.668 12.372 C 17.478 11.333,16.991 10.729,16.122 10.454 L 15.768 10.342 15.741 9.821 C 15.680 8.612,15.429 7.858,14.894 7.281 C 14.497 6.851,13.962 6.555,13.302 6.398 C 13.017 6.331,12.112 6.231,11.920 6.247 C 11.887 6.249,11.679 6.265,11.457 6.282 M12.832 7.823 C 13.576 7.974,13.962 8.312,14.147 8.973 C 14.179 9.087,14.215 9.418,14.228 9.710 L 14.251 10.240 12.000 10.240 L 9.749 10.240 9.772 9.710 C 9.805 8.955,9.912 8.613,10.218 8.286 C 10.428 8.062,10.722 7.915,11.140 7.826 C 11.525 7.744,12.437 7.742,12.832 7.823 M15.637 11.854 C 15.918 11.949,16.057 12.093,16.147 12.384 C 16.212 12.593,16.220 12.778,16.220 14.000 C 16.220 15.528,16.193 15.733,15.963 15.963 C 15.902 16.025,15.746 16.107,15.616 16.147 C 15.396 16.215,15.156 16.220,12.000 16.220 C 8.844 16.220,8.604 16.215,8.384 16.147 C 8.092 16.057,7.948 15.917,7.857 15.637 C 7.798 15.455,7.784 15.224,7.770 14.192 C 7.752 12.868,7.781 12.505,7.931 12.200 C 8.035 11.990,8.249 11.864,8.600 11.805 C 8.725 11.784,10.250 11.771,12.120 11.775 C 15.192 11.781,15.435 11.787,15.637 11.854 M11.774 12.683 C 11.358 12.738,10.965 13.045,10.772 13.466 C 10.693 13.638,10.674 13.746,10.674 14.005 C 10.674 14.287,10.690 14.363,10.797 14.580 C 10.942 14.874,11.165 15.090,11.466 15.228 C 11.771 15.367,12.229 15.367,12.534 15.228 C 12.836 15.090,13.058 14.874,13.205 14.577 C 13.314 14.355,13.330 14.282,13.328 14.002 C 13.327 13.749,13.306 13.638,13.228 13.466 C 13.090 13.164,12.873 12.941,12.586 12.804 C 12.317 12.675,12.090 12.642,11.774 12.683 M12.097 13.903 C 12.132 13.937,12.160 13.981,12.160 14.000 C 12.160 14.051,12.041 14.160,11.985 14.160 C 11.958 14.160,11.914 14.138,11.888 14.112 C 11.862 14.086,11.840 14.042,11.840 14.015 C 11.840 13.959,11.949 13.840,12.000 13.840 C 12.019 13.840,12.063 13.868,12.097 13.903 " stroke="none" fill-rule="evenodd" fill="black"></path></svg>