<svg width="24" height="24" viewBox="0 0 24 24" fill="none" xmlns="http://www.w3.org/2000/svg"><path d="M11.169 1.281 C 8.120 1.479,6.292 2.773,5.584 5.233 C 5.364 5.997,5.289 6.675,5.254 8.201 L 5.228 9.341 4.784 9.414 C 3.813 9.572,3.024 9.937,2.481 10.481 C 1.809 11.152,1.468 12.040,1.313 13.520 C 1.241 14.210,1.241 17.789,1.313 18.480 C 1.467 19.952,1.812 20.850,2.480 21.519 C 3.130 22.170,3.988 22.508,5.440 22.684 C 5.964 22.748,16.431 22.781,17.700 22.724 C 18.653 22.680,19.176 22.618,19.716 22.483 C 20.473 22.295,21.206 21.902,21.358 21.604 C 21.503 21.320,21.457 20.970,21.247 20.745 C 21.029 20.512,20.625 20.446,20.359 20.601 C 20.029 20.794,19.637 20.957,19.320 21.034 C 18.551 21.222,18.622 21.220,11.940 21.220 C 5.975 21.220,5.595 21.216,5.180 21.146 C 3.901 20.931,3.356 20.535,3.039 19.589 C 2.798 18.874,2.780 18.621,2.780 16.000 C 2.780 13.379,2.798 13.126,3.039 12.411 C 3.356 11.465,3.901 11.069,5.180 10.854 C 5.595 10.784,5.977 10.780,12.000 10.780 C 18.023 10.780,18.405 10.784,18.820 10.854 C 19.576 10.981,20.182 11.232,20.478 11.539 C 20.666 11.734,20.863 12.095,20.974 12.450 C 21.182 13.110,21.208 13.398,21.235 15.380 C 21.260 17.214,21.260 17.220,21.353 17.369 C 21.719 17.959,22.580 17.810,22.722 17.134 C 22.780 16.855,22.749 14.106,22.681 13.460 C 22.451 11.300,21.686 10.163,20.106 9.635 C 19.860 9.553,19.459 9.453,19.216 9.414 L 18.772 9.341 18.746 8.201 C 18.710 6.668,18.635 5.996,18.416 5.233 C 17.890 3.407,16.798 2.269,15.005 1.680 C 13.968 1.340,12.549 1.192,11.169 1.281 M13.641 2.873 C 15.662 3.236,16.689 4.189,17.074 6.060 C 17.200 6.676,17.240 7.202,17.240 8.264 L 17.240 9.240 12.000 9.240 L 6.760 9.240 6.760 8.264 C 6.760 6.837,6.857 6.086,7.143 5.282 C 7.631 3.916,8.709 3.126,10.441 2.865 C 11.089 2.767,11.079 2.768,12.160 2.779 C 12.981 2.788,13.270 2.806,13.641 2.873 M7.689 15.059 C 7.454 15.132,7.263 15.287,7.131 15.511 C 7.036 15.672,7.020 15.744,7.020 16.000 C 7.020 16.257,7.036 16.327,7.133 16.492 C 7.625 17.329,8.898 17.046,8.991 16.078 C 9.033 15.640,8.729 15.185,8.310 15.061 C 8.065 14.988,7.917 14.987,7.689 15.059 M11.689 15.059 C 11.454 15.132,11.263 15.287,11.131 15.511 C 11.036 15.672,11.020 15.744,11.020 16.000 C 11.020 16.257,11.036 16.327,11.133 16.492 C 11.625 17.329,12.898 17.046,12.991 16.078 C 13.033 15.640,12.729 15.185,12.310 15.061 C 12.065 14.988,11.917 14.987,11.689 15.059 M15.689 15.056 C 15.452 15.134,15.262 15.289,15.131 15.511 C 15.036 15.672,15.020 15.744,15.020 16.000 C 15.020 16.255,15.036 16.328,15.129 16.486 C 15.353 16.867,15.792 17.059,16.217 16.964 C 16.929 16.805,17.232 15.975,16.789 15.394 C 16.549 15.080,16.069 14.932,15.689 15.056 " stroke="none" fill-rule="evenodd" fill="black"></path></svg>