<svg width="24" height="24" viewBox="0 0 24 24" fill="none" xmlns="http://www.w3.org/2000/svg"><path d="M14.000 1.784 C 12.195 1.992,11.207 2.311,10.300 2.980 C 9.119 3.850,8.402 5.285,8.195 7.197 C 8.136 7.737,8.170 7.888,8.398 8.093 C 8.722 8.386,9.148 8.370,9.447 8.054 C 9.587 7.906,9.626 7.797,9.660 7.458 C 9.706 7.003,9.837 6.375,9.966 5.985 C 10.493 4.404,11.499 3.653,13.520 3.335 C 13.886 3.278,14.221 3.263,15.160 3.262 C 16.611 3.260,17.129 3.326,18.060 3.628 C 19.838 4.204,20.625 5.581,20.744 8.322 C 20.765 8.792,20.788 8.974,20.842 9.080 C 20.981 9.356,21.188 9.480,21.513 9.480 C 21.748 9.480,21.940 9.384,22.097 9.186 L 22.220 9.032 22.217 8.306 C 22.206 5.136,20.993 3.065,18.667 2.245 C 17.667 1.892,16.974 1.794,15.380 1.780 C 14.698 1.773,14.077 1.776,14.000 1.784 M12.340 7.977 C 12.191 8.043,12.019 8.224,11.963 8.373 C 11.896 8.548,11.912 8.828,11.997 8.992 C 12.040 9.073,12.544 9.608,13.118 10.180 L 14.161 11.220 7.970 11.240 L 1.780 11.260 1.627 11.355 C 1.385 11.506,1.267 11.718,1.267 12.003 C 1.267 12.203,1.286 12.270,1.383 12.408 C 1.447 12.499,1.572 12.610,1.660 12.656 C 1.820 12.740,1.829 12.740,7.990 12.760 L 14.161 12.780 13.118 13.820 C 12.544 14.392,12.040 14.927,11.997 15.008 C 11.851 15.290,11.915 15.672,12.145 15.887 C 12.366 16.094,12.722 16.143,12.992 16.003 C 13.217 15.886,16.667 12.409,16.705 12.260 C 16.745 12.107,16.745 11.893,16.705 11.740 C 16.667 11.591,13.217 8.114,12.992 7.997 C 12.819 7.907,12.517 7.898,12.340 7.977 M21.340 12.277 C 21.274 12.293,21.182 12.327,21.135 12.352 C 20.992 12.429,20.805 12.672,20.783 12.809 C 20.772 12.881,20.754 13.696,20.745 14.620 C 20.727 16.409,20.693 16.832,20.503 17.600 C 20.249 18.631,19.762 19.424,19.110 19.873 C 18.471 20.312,17.552 20.600,16.400 20.719 C 15.901 20.771,14.494 20.771,13.946 20.719 C 11.215 20.460,10.015 19.319,9.676 16.660 C 9.626 16.262,9.582 16.151,9.414 15.995 C 9.244 15.838,9.147 15.800,8.919 15.800 C 8.558 15.800,8.288 16.001,8.195 16.341 C 8.120 16.610,8.302 17.723,8.541 18.459 C 9.110 20.216,10.208 21.300,11.980 21.854 C 13.522 22.337,16.161 22.400,17.892 21.995 C 19.860 21.536,21.163 20.397,21.774 18.600 C 22.137 17.531,22.206 16.950,22.229 14.747 C 22.239 13.760,22.236 12.891,22.222 12.816 C 22.193 12.662,22.002 12.423,21.844 12.343 C 21.701 12.271,21.484 12.243,21.340 12.277 " stroke="none" fill-rule="evenodd" fill="black"></path></svg>