<svg width="24" height="24" viewBox="0 0 24 24" fill="none" xmlns="http://www.w3.org/2000/svg"><path d="M11.815 3.280 C 11.334 3.387,11.098 4.004,11.383 4.408 C 11.570 4.672,11.717 4.725,12.372 4.762 C 13.229 4.811,13.736 4.897,14.483 5.119 C 14.955 5.259,15.042 5.264,15.262 5.165 C 15.453 5.078,15.615 4.898,15.681 4.697 C 15.781 4.392,15.615 3.990,15.330 3.846 C 15.121 3.741,14.421 3.542,13.920 3.445 C 13.229 3.310,12.081 3.221,11.815 3.280 M17.854 5.758 C 17.496 5.843,17.280 6.118,17.280 6.488 C 17.280 6.732,17.336 6.840,17.681 7.260 C 18.346 8.071,18.807 9.024,19.043 10.073 C 19.316 11.291,19.306 12.870,19.017 14.018 C 18.671 15.394,18.088 16.415,17.134 17.318 C 16.398 18.014,15.581 18.501,14.600 18.828 C 13.799 19.096,13.304 19.186,12.350 19.238 C 11.812 19.267,11.745 19.279,11.605 19.372 C 11.372 19.526,11.267 19.724,11.267 20.007 C 11.267 20.203,11.286 20.270,11.383 20.408 C 11.582 20.689,11.736 20.742,12.320 20.730 C 13.927 20.697,15.595 20.216,16.860 19.420 C 17.405 19.077,17.778 18.785,18.235 18.342 C 20.000 16.631,20.887 14.149,20.720 11.382 C 20.637 10.003,20.349 8.885,19.794 7.784 C 19.383 6.968,18.655 5.970,18.362 5.822 C 18.220 5.750,18.003 5.723,17.854 5.758 M11.495 8.717 C 11.319 8.760,11.141 8.896,11.036 9.066 C 10.933 9.233,10.913 9.596,10.998 9.760 C 11.027 9.815,11.357 10.170,11.732 10.548 L 12.413 11.236 10.594 11.248 L 8.774 11.260 8.612 11.367 C 8.372 11.526,8.267 11.721,8.267 12.007 C 8.267 12.203,8.286 12.270,8.383 12.408 C 8.447 12.499,8.572 12.610,8.660 12.656 C 8.814 12.737,8.884 12.740,10.617 12.752 L 12.413 12.764 11.732 13.452 C 11.357 13.830,11.027 14.185,10.998 14.240 C 10.970 14.295,10.947 14.444,10.947 14.571 C 10.947 14.762,10.967 14.831,11.063 14.968 C 11.127 15.059,11.248 15.168,11.331 15.211 C 11.517 15.307,11.819 15.313,12.006 15.224 C 12.082 15.188,12.767 14.533,13.528 13.769 C 14.840 12.452,14.913 12.370,14.951 12.190 C 14.977 12.065,14.977 11.935,14.951 11.810 C 14.913 11.630,14.840 11.548,13.528 10.231 C 12.767 9.467,12.089 8.816,12.022 8.784 C 11.857 8.706,11.646 8.679,11.495 8.717 M3.815 11.278 C 3.331 11.393,3.098 12.004,3.383 12.408 C 3.605 12.721,3.678 12.738,4.849 12.753 C 6.080 12.768,6.257 12.743,6.479 12.521 C 6.878 12.122,6.691 11.423,6.149 11.286 C 5.943 11.235,4.025 11.228,3.815 11.278 " stroke="none" fill-rule="evenodd" fill="black"></path></svg>