<svg width="24" height="24" viewBox="0 0 24 24" fill="none" xmlns="http://www.w3.org/2000/svg"><path d="M14.000 1.784 C 12.195 1.992,11.207 2.311,10.300 2.980 C 9.119 3.850,8.402 5.285,8.195 7.197 C 8.136 7.737,8.170 7.888,8.398 8.093 C 8.722 8.386,9.148 8.370,9.447 8.054 C 9.587 7.906,9.626 7.797,9.660 7.458 C 9.706 7.003,9.837 6.375,9.966 5.985 C 10.493 4.404,11.499 3.653,13.520 3.335 C 13.886 3.278,14.221 3.263,15.160 3.262 C 16.611 3.260,17.129 3.326,18.060 3.628 C 19.838 4.204,20.625 5.581,20.744 8.322 C 20.765 8.792,20.788 8.974,20.842 9.080 C 20.981 9.356,21.188 9.480,21.513 9.480 C 21.748 9.480,21.940 9.384,22.097 9.186 L 22.220 9.032 22.217 8.306 C 22.206 5.136,20.993 3.065,18.667 2.245 C 17.667 1.892,16.974 1.794,15.380 1.780 C 14.698 1.773,14.077 1.776,14.000 1.784 M5.520 7.984 C 5.370 8.049,2.078 11.304,1.893 11.571 C 1.768 11.751,1.729 12.043,1.801 12.265 C 1.840 12.388,2.208 12.778,3.554 14.131 C 4.491 15.071,5.327 15.889,5.412 15.948 C 5.722 16.163,6.212 16.101,6.434 15.819 C 6.626 15.575,6.643 15.194,6.474 14.947 C 6.426 14.877,5.927 14.357,5.365 13.790 L 4.342 12.760 9.649 12.760 C 13.374 12.760,15.018 12.747,15.162 12.716 C 15.920 12.553,15.920 11.447,15.162 11.284 C 15.018 11.253,13.374 11.240,9.649 11.240 L 4.342 11.240 5.365 10.210 C 5.927 9.644,6.426 9.123,6.474 9.053 C 6.643 8.806,6.626 8.425,6.434 8.181 C 6.245 7.942,5.826 7.851,5.520 7.984 M21.340 12.277 C 21.274 12.293,21.182 12.327,21.135 12.352 C 20.992 12.429,20.805 12.672,20.783 12.809 C 20.772 12.881,20.754 13.696,20.745 14.620 C 20.727 16.409,20.693 16.832,20.503 17.600 C 20.249 18.631,19.762 19.424,19.110 19.873 C 18.471 20.312,17.552 20.600,16.400 20.719 C 15.901 20.771,14.494 20.771,13.946 20.719 C 11.215 20.460,10.015 19.319,9.676 16.660 C 9.626 16.262,9.582 16.151,9.414 15.995 C 9.244 15.838,9.147 15.800,8.919 15.800 C 8.558 15.800,8.288 16.001,8.195 16.341 C 8.120 16.610,8.302 17.723,8.541 18.459 C 9.110 20.216,10.208 21.300,11.980 21.854 C 13.522 22.337,16.161 22.400,17.892 21.995 C 19.860 21.536,21.163 20.397,21.774 18.600 C 22.137 17.531,22.206 16.950,22.229 14.747 C 22.239 13.760,22.236 12.891,22.222 12.816 C 22.193 12.662,22.002 12.423,21.844 12.343 C 21.701 12.271,21.484 12.243,21.340 12.277 " stroke="none" fill-rule="evenodd" fill="black"></path></svg>