<svg width="24" height="24" viewBox="0 0 24 24" fill="none" xmlns="http://www.w3.org/2000/svg"><path d="M11.815 3.280 C 11.334 3.387,11.098 4.004,11.383 4.408 C 11.570 4.672,11.717 4.725,12.372 4.762 C 13.229 4.811,13.736 4.897,14.483 5.119 C 14.955 5.259,15.042 5.264,15.262 5.165 C 15.453 5.078,15.615 4.898,15.681 4.697 C 15.781 4.392,15.615 3.990,15.330 3.846 C 15.121 3.741,14.421 3.542,13.920 3.445 C 13.229 3.310,12.081 3.221,11.815 3.280 M17.854 5.758 C 17.496 5.843,17.280 6.118,17.280 6.488 C 17.280 6.732,17.336 6.840,17.681 7.260 C 18.346 8.071,18.807 9.024,19.043 10.073 C 19.316 11.291,19.306 12.870,19.017 14.018 C 18.671 15.394,18.088 16.415,17.134 17.318 C 16.398 18.014,15.581 18.501,14.600 18.828 C 13.799 19.096,13.304 19.186,12.350 19.238 C 11.812 19.267,11.745 19.279,11.605 19.372 C 11.372 19.526,11.267 19.724,11.267 20.007 C 11.267 20.203,11.286 20.270,11.383 20.408 C 11.582 20.689,11.736 20.742,12.320 20.730 C 13.927 20.697,15.595 20.216,16.860 19.420 C 17.405 19.077,17.778 18.785,18.235 18.342 C 20.000 16.631,20.887 14.149,20.720 11.382 C 20.637 10.003,20.349 8.885,19.794 7.784 C 19.383 6.968,18.655 5.970,18.362 5.822 C 18.220 5.750,18.003 5.723,17.854 5.758 M6.460 8.699 C 6.438 8.707,6.366 8.725,6.300 8.739 C 6.212 8.759,5.810 9.134,4.808 10.133 C 4.053 10.885,3.397 11.561,3.351 11.636 C 3.235 11.822,3.235 12.178,3.351 12.364 C 3.397 12.439,4.053 13.115,4.808 13.866 C 6.108 15.160,6.190 15.233,6.370 15.271 C 6.950 15.391,7.393 14.948,7.270 14.370 C 7.233 14.196,7.171 14.120,6.527 13.470 L 5.825 12.760 7.510 12.760 C 8.590 12.760,9.270 12.744,9.402 12.716 C 10.053 12.576,10.185 11.711,9.609 11.353 L 9.460 11.260 7.644 11.248 L 5.829 11.236 6.529 10.528 C 7.173 9.878,7.233 9.804,7.270 9.629 C 7.342 9.288,7.218 8.971,6.949 8.807 C 6.825 8.732,6.543 8.669,6.460 8.699 M12.095 11.278 C 11.622 11.391,11.383 11.989,11.651 12.393 C 11.708 12.479,11.823 12.593,11.907 12.645 C 12.056 12.738,12.086 12.740,13.107 12.753 C 14.358 12.769,14.536 12.744,14.759 12.521 C 15.169 12.111,14.965 11.405,14.402 11.284 C 14.172 11.235,12.297 11.230,12.095 11.278 " stroke="none" fill-rule="evenodd" fill="black"></path></svg>