<svg width="24" height="24" viewBox="0 0 24 24" fill="none" xmlns="http://www.w3.org/2000/svg"><path d="M6.680 2.402 C 6.413 2.516,6.229 2.801,6.229 3.100 C 6.229 3.340,6.305 3.504,6.497 3.672 C 6.648 3.804,6.719 3.823,7.220 3.861 C 8.402 3.952,9.453 4.482,10.169 5.347 C 10.443 5.679,10.590 5.785,10.832 5.823 C 11.127 5.871,11.303 5.769,11.726 5.311 C 11.932 5.088,12.236 4.805,12.401 4.682 C 13.888 3.578,15.910 3.579,17.405 4.684 C 17.908 5.056,18.368 5.604,18.646 6.165 C 18.933 6.743,19.061 7.233,19.106 7.922 L 19.133 8.331 18.996 8.307 C 17.839 8.101,16.545 8.433,15.548 9.191 L 15.317 9.367 15.104 9.207 C 14.230 8.547,13.398 8.266,12.320 8.267 C 11.520 8.268,10.992 8.398,10.271 8.771 C 8.792 9.536,7.881 11.069,7.880 12.792 C 7.880 14.373,8.369 15.932,9.315 17.360 C 9.439 17.547,9.546 17.715,9.554 17.733 C 9.591 17.816,8.630 17.274,8.020 16.867 C 6.417 15.797,4.904 14.251,4.060 12.820 C 3.152 11.280,2.715 9.635,2.771 7.969 C 2.803 7.010,2.973 6.475,3.503 5.676 C 3.780 5.257,3.800 5.212,3.800 5.012 C 3.800 4.315,3.007 3.989,2.532 4.490 C 2.018 5.033,1.495 6.174,1.339 7.100 C 1.259 7.571,1.249 8.601,1.318 9.240 C 1.626 12.070,3.110 14.729,5.580 16.877 C 6.855 17.986,8.510 19.009,9.851 19.517 C 10.358 19.709,10.744 19.774,11.164 19.739 L 11.469 19.713 11.892 20.026 C 12.719 20.640,13.803 21.246,14.540 21.506 C 14.821 21.605,14.917 21.619,15.320 21.619 C 15.817 21.618,16.002 21.570,16.656 21.271 C 17.393 20.933,18.417 20.296,19.120 19.736 C 19.578 19.371,20.517 18.423,20.858 17.980 C 22.065 16.412,22.695 14.741,22.729 13.017 C 22.739 12.495,22.712 12.399,22.494 12.193 C 22.217 11.931,21.783 11.931,21.506 12.193 C 21.310 12.378,21.272 12.500,21.237 13.058 C 21.172 14.098,20.968 14.870,20.523 15.754 C 19.908 16.978,18.739 18.244,17.380 19.159 C 16.715 19.607,15.703 20.103,15.364 20.148 C 15.012 20.195,13.738 19.538,12.760 18.806 C 11.620 17.952,10.675 16.852,10.123 15.740 C 9.634 14.755,9.448 14.042,9.414 13.020 C 9.387 12.230,9.439 11.940,9.706 11.400 C 9.865 11.076,9.950 10.963,10.277 10.635 C 10.609 10.303,10.713 10.226,11.041 10.068 C 11.981 9.614,12.989 9.663,13.910 10.206 C 14.035 10.280,14.318 10.523,14.539 10.748 C 14.958 11.173,15.064 11.240,15.320 11.240 C 15.577 11.240,15.683 11.173,16.100 10.748 C 16.509 10.331,16.770 10.148,17.202 9.973 C 17.848 9.712,18.567 9.695,19.240 9.923 C 19.656 10.064,19.919 10.084,20.103 9.988 C 20.256 9.908,20.424 9.729,20.477 9.588 C 20.545 9.408,20.580 8.875,20.577 8.080 C 20.574 7.480,20.557 7.262,20.486 6.930 C 19.785 3.645,16.519 1.669,13.300 2.583 C 12.611 2.779,11.678 3.289,11.159 3.754 L 10.940 3.950 10.640 3.700 C 9.890 3.076,9.015 2.655,8.060 2.460 C 7.661 2.379,6.818 2.343,6.680 2.402 " stroke="none" fill-rule="evenodd" fill="black"></path></svg>