<svg width="24" height="24" viewBox="0 0 24 24" fill="none" xmlns="http://www.w3.org/2000/svg"><path d="M6.656 1.656 C 6.468 1.844,6.476 1.987,6.721 2.819 L 6.921 3.499 6.721 4.185 C 6.485 4.991,6.473 5.146,6.631 5.323 C 6.815 5.529,6.980 5.523,7.801 5.283 L 8.501 5.079 9.181 5.279 C 10.013 5.524,10.156 5.532,10.344 5.344 C 10.456 5.232,10.480 5.178,10.480 5.039 C 10.480 4.871,10.080 3.433,9.978 3.235 C 9.919 3.122,9.702 3.000,9.560 3.000 C 9.414 3.000,9.200 3.124,9.138 3.243 C 9.059 3.397,9.065 3.562,9.163 3.911 C 9.209 4.074,9.237 4.216,9.227 4.227 C 9.216 4.237,9.074 4.209,8.911 4.163 C 8.542 4.060,8.458 4.060,8.089 4.163 C 7.926 4.209,7.784 4.237,7.773 4.227 C 7.763 4.216,7.791 4.074,7.837 3.911 C 7.940 3.542,7.940 3.458,7.837 3.089 C 7.791 2.926,7.763 2.784,7.773 2.773 C 7.784 2.763,7.926 2.791,8.089 2.837 C 8.449 2.938,8.611 2.941,8.763 2.852 C 8.887 2.778,9.000 2.583,9.000 2.440 C 9.000 2.298,8.878 2.081,8.765 2.022 C 8.567 1.920,7.129 1.520,6.961 1.520 C 6.822 1.520,6.768 1.544,6.656 1.656 M17.600 3.160 C 17.249 3.203,16.877 3.332,16.540 3.527 C 16.297 3.668,15.354 4.595,9.474 10.475 C 1.967 17.981,2.440 17.475,2.237 18.213 C 2.111 18.671,2.111 19.329,2.237 19.787 C 2.474 20.647,3.226 21.437,4.076 21.720 C 4.451 21.845,4.938 21.890,5.350 21.839 C 5.927 21.767,6.300 21.613,6.760 21.256 C 6.881 21.163,8.811 19.253,11.049 17.013 C 13.922 14.137,15.135 12.896,15.179 12.791 C 15.292 12.516,15.217 12.131,15.014 11.952 C 14.807 11.768,14.470 11.713,14.209 11.822 C 14.104 11.865,12.838 13.103,9.920 16.016 C 6.585 19.345,5.741 20.167,5.580 20.244 C 5.289 20.383,4.822 20.398,4.505 20.279 C 4.187 20.159,3.842 19.816,3.725 19.503 C 3.611 19.201,3.611 18.801,3.725 18.492 C 3.806 18.269,4.034 18.035,9.404 12.660 L 14.999 7.060 15.969 8.030 L 16.939 8.999 16.651 9.290 C 16.343 9.600,16.239 9.787,16.241 10.029 C 16.242 10.202,16.353 10.468,16.466 10.568 C 16.682 10.761,17.032 10.809,17.300 10.684 C 17.506 10.587,20.205 7.873,20.413 7.553 C 20.725 7.072,20.850 6.627,20.850 6.000 C 20.850 5.303,20.687 4.805,20.280 4.268 C 19.657 3.445,18.652 3.029,17.600 3.160 M18.500 4.724 C 18.773 4.826,19.103 5.135,19.242 5.420 C 19.325 5.589,19.340 5.678,19.340 6.000 C 19.340 6.535,19.280 6.643,18.584 7.351 L 18.023 7.923 17.050 6.951 L 16.077 5.980 16.669 5.396 C 17.160 4.913,17.300 4.798,17.481 4.728 C 17.779 4.614,18.201 4.612,18.500 4.724 M2.656 7.656 C 2.468 7.844,2.476 7.987,2.721 8.819 L 2.921 9.499 2.721 10.185 C 2.485 10.991,2.473 11.146,2.631 11.323 C 2.815 11.529,2.980 11.523,3.801 11.283 L 4.501 11.079 5.181 11.279 C 6.013 11.524,6.156 11.532,6.344 11.344 C 6.532 11.156,6.524 11.013,6.279 10.181 L 6.079 9.501 6.279 8.815 C 6.515 8.009,6.527 7.854,6.369 7.677 C 6.185 7.471,6.020 7.477,5.199 7.717 L 4.499 7.921 3.819 7.721 C 2.987 7.476,2.844 7.468,2.656 7.656 M4.100 8.840 C 4.451 8.940,4.544 8.940,4.911 8.837 C 5.074 8.791,5.216 8.763,5.227 8.773 C 5.237 8.784,5.209 8.926,5.163 9.089 C 5.060 9.458,5.060 9.542,5.163 9.911 C 5.209 10.074,5.237 10.216,5.227 10.227 C 5.216 10.237,5.074 10.209,4.911 10.163 C 4.542 10.060,4.458 10.060,4.089 10.163 C 3.926 10.209,3.784 10.237,3.773 10.227 C 3.763 10.216,3.791 10.074,3.837 9.911 C 3.940 9.544,3.940 9.451,3.840 9.100 C 3.751 8.789,3.747 8.760,3.790 8.760 C 3.807 8.760,3.946 8.796,4.100 8.840 M17.656 12.656 C 17.544 12.768,17.520 12.822,17.520 12.961 C 17.520 13.129,17.920 14.567,18.022 14.765 C 18.081 14.878,18.298 15.000,18.440 15.000 C 18.583 15.000,18.778 14.887,18.852 14.763 C 18.941 14.611,18.938 14.449,18.837 14.089 C 18.791 13.926,18.763 13.784,18.773 13.773 C 18.784 13.763,18.926 13.791,19.089 13.837 C 19.458 13.940,19.542 13.940,19.911 13.837 C 20.074 13.791,20.216 13.763,20.227 13.773 C 20.237 13.784,20.209 13.926,20.163 14.089 C 20.060 14.458,20.060 14.542,20.163 14.911 C 20.209 15.074,20.237 15.216,20.227 15.227 C 20.216 15.237,20.074 15.209,19.911 15.163 C 19.562 15.065,19.397 15.059,19.243 15.138 C 19.124 15.200,19.000 15.414,19.000 15.560 C 19.000 15.702,19.122 15.919,19.235 15.978 C 19.433 16.080,20.871 16.480,21.039 16.480 C 21.178 16.480,21.232 16.456,21.344 16.344 C 21.532 16.156,21.524 16.013,21.279 15.181 L 21.079 14.501 21.279 13.815 C 21.515 13.009,21.527 12.854,21.369 12.677 C 21.185 12.471,21.020 12.477,20.199 12.717 L 19.499 12.921 18.819 12.721 C 17.987 12.476,17.844 12.468,17.656 12.656 " stroke="none" fill-rule="evenodd" fill="black"></path></svg>