<svg width="24" height="24" viewBox="0 0 24 24" fill="none" xmlns="http://www.w3.org/2000/svg"><path d="M15.340 1.306 C 15.023 1.373,14.538 1.571,14.222 1.762 C 14.105 1.833,13.265 2.427,12.355 3.083 C 11.197 3.918,10.646 4.291,10.520 4.327 C 10.113 4.443,9.974 4.413,8.280 3.850 C 7.411 3.561,6.565 3.293,6.400 3.254 C 5.995 3.160,5.306 3.159,4.961 3.252 C 3.770 3.576,3.175 4.651,3.420 6.039 C 3.537 6.706,3.654 6.941,3.933 7.077 C 4.264 7.237,4.643 7.148,4.864 6.859 C 5.003 6.676,5.030 6.412,4.947 6.052 C 4.843 5.605,4.831 5.455,4.881 5.213 C 4.972 4.776,5.283 4.608,5.866 4.681 C 6.048 4.704,6.746 4.913,7.787 5.257 C 8.686 5.554,9.557 5.817,9.721 5.843 C 10.259 5.927,10.884 5.829,11.360 5.588 C 11.503 5.515,12.373 4.913,13.293 4.249 C 14.213 3.585,15.077 2.988,15.213 2.921 C 15.875 2.597,16.261 2.723,16.444 3.323 C 16.546 3.661,16.550 3.820,16.507 6.281 C 16.478 7.963,16.481 8.213,16.538 8.461 C 16.632 8.869,16.913 9.416,17.177 9.707 C 17.313 9.857,17.941 10.364,18.771 10.993 C 19.524 11.564,20.233 12.129,20.346 12.248 C 20.608 12.526,20.720 12.745,20.720 12.981 C 20.720 13.147,20.700 13.186,20.520 13.377 C 20.385 13.519,20.231 13.629,20.050 13.712 C 19.901 13.780,18.997 14.080,18.040 14.379 C 16.418 14.886,15.971 15.053,15.720 15.247 C 15.485 15.429,15.137 15.797,14.995 16.014 C 14.777 16.349,14.723 16.514,14.260 18.276 C 13.812 19.983,13.784 20.076,13.620 20.401 C 13.421 20.794,13.208 21.000,13.003 21.000 C 12.781 21.000,12.400 20.706,12.103 20.305 C 11.987 20.148,11.472 19.339,10.960 18.507 C 10.446 17.671,9.941 16.898,9.831 16.778 C 9.584 16.507,9.157 16.221,8.785 16.077 C 8.251 15.870,8.137 15.864,6.314 15.960 C 3.888 16.087,3.556 16.078,3.154 15.876 C 2.917 15.757,2.828 15.613,2.857 15.401 C 2.888 15.173,3.081 14.759,3.276 14.501 C 3.360 14.390,3.901 13.751,4.479 13.080 C 5.058 12.409,5.595 11.761,5.673 11.640 C 5.860 11.351,6.039 10.834,6.039 10.579 C 6.041 10.026,5.482 9.677,4.983 9.919 C 4.766 10.024,4.659 10.163,4.574 10.449 C 4.539 10.565,4.486 10.709,4.455 10.769 C 4.424 10.829,3.953 11.396,3.408 12.029 C 2.167 13.471,2.060 13.605,1.820 14.008 C 1.447 14.635,1.283 15.354,1.395 15.875 C 1.551 16.602,2.128 17.157,2.980 17.401 C 3.564 17.567,3.977 17.577,6.033 17.468 C 7.394 17.396,7.968 17.380,8.073 17.409 C 8.306 17.473,8.569 17.621,8.707 17.766 C 8.777 17.840,9.251 18.575,9.761 19.400 C 10.270 20.225,10.771 21.017,10.873 21.160 C 11.252 21.693,11.787 22.142,12.300 22.359 C 12.510 22.447,12.597 22.460,13.000 22.460 C 13.403 22.460,13.490 22.447,13.700 22.359 C 14.218 22.140,14.640 21.705,14.958 21.060 C 15.179 20.612,15.261 20.347,15.718 18.600 C 15.939 17.753,16.141 17.011,16.165 16.951 C 16.219 16.817,16.564 16.461,16.715 16.383 C 16.776 16.351,17.580 16.089,18.503 15.801 C 19.425 15.512,20.328 15.216,20.508 15.142 C 21.319 14.812,21.949 14.189,22.143 13.524 C 22.227 13.237,22.230 12.684,22.149 12.416 C 21.994 11.901,21.702 11.455,21.243 11.032 C 21.092 10.893,20.375 10.330,19.649 9.781 C 18.258 8.729,18.156 8.631,18.022 8.226 C 17.965 8.051,17.963 7.824,18.002 5.930 C 18.034 4.388,18.034 3.739,18.001 3.493 C 17.875 2.545,17.473 1.864,16.826 1.502 C 16.386 1.256,15.888 1.190,15.340 1.306 M18.499 18.337 C 18.282 18.467,18.149 18.711,18.149 18.978 C 18.149 19.091,18.171 19.228,18.198 19.282 C 18.269 19.421,21.435 22.592,21.579 22.668 C 21.645 22.703,21.792 22.731,21.906 22.731 C 22.497 22.731,22.846 22.092,22.525 21.598 C 22.374 21.366,19.379 18.388,19.212 18.304 C 19.017 18.206,18.692 18.221,18.499 18.337 " stroke="none" fill-rule="evenodd" fill="black"></path></svg>