<svg width="24" height="24" viewBox="0 0 24 24" fill="none" xmlns="http://www.w3.org/2000/svg"><path d="M11.213 1.339 C 10.615 1.448,10.099 1.660,9.560 2.021 C 9.229 2.242,8.741 2.714,5.750 5.707 C 3.547 7.912,2.243 9.247,2.103 9.440 C 1.696 10.003,1.416 10.687,1.318 11.354 C 1.249 11.828,1.287 12.654,1.396 13.073 C 1.590 13.816,1.917 14.402,2.498 15.049 C 3.063 15.678,6.252 18.827,6.399 18.901 C 6.572 18.988,6.902 18.992,7.061 18.909 C 7.216 18.828,7.384 18.649,7.437 18.507 C 7.504 18.332,7.488 18.072,7.399 17.899 L 7.319 17.741 9.659 15.401 L 12.000 13.060 14.350 15.410 L 16.700 17.760 15.440 19.024 C 14.747 19.719,14.045 20.404,13.881 20.547 C 13.335 21.019,12.743 21.238,12.012 21.239 C 11.218 21.241,10.737 21.050,9.975 20.431 C 9.634 20.154,9.281 20.130,8.984 20.364 C 8.748 20.550,8.651 20.962,8.776 21.251 C 8.884 21.501,9.499 22.006,10.015 22.267 C 10.968 22.751,12.168 22.868,13.195 22.577 C 13.635 22.452,14.261 22.145,14.620 21.878 C 14.985 21.606,21.606 14.985,21.878 14.620 C 22.145 14.261,22.452 13.635,22.577 13.195 C 22.852 12.225,22.759 11.060,22.336 10.161 C 21.992 9.430,21.968 9.404,18.342 5.774 C 16.080 3.509,14.832 2.290,14.619 2.133 C 14.070 1.732,13.422 1.454,12.765 1.339 C 12.360 1.268,11.606 1.268,11.213 1.339 M12.900 2.899 C 13.076 2.958,13.319 3.061,13.440 3.128 C 13.607 3.221,14.514 4.104,17.226 6.815 L 20.792 10.380 20.957 10.725 C 21.160 11.150,21.239 11.505,21.239 12.000 C 21.239 12.742,21.022 13.331,20.547 13.881 C 20.404 14.045,19.719 14.747,19.024 15.440 L 17.760 16.700 15.410 14.350 L 13.060 12.000 14.589 10.470 C 15.627 9.430,16.137 8.892,16.179 8.791 C 16.287 8.529,16.232 8.193,16.048 7.986 C 15.948 7.873,15.682 7.762,15.509 7.761 C 15.198 7.759,15.110 7.833,13.530 9.411 L 12.000 10.940 9.660 8.600 L 7.320 6.260 8.750 4.828 C 10.234 3.342,10.469 3.142,10.966 2.946 C 11.339 2.798,11.590 2.762,12.120 2.778 C 12.488 2.789,12.645 2.813,12.900 2.899 M8.600 14.340 L 6.260 16.681 4.755 15.171 C 3.524 13.934,3.225 13.613,3.109 13.400 C 2.661 12.580,2.645 11.575,3.064 10.720 L 3.251 10.340 4.755 8.829 L 6.258 7.318 8.599 9.659 L 10.940 12.000 8.600 14.340 " stroke="none" fill-rule="evenodd" fill="black"></path></svg>