<svg width="24" height="24" viewBox="0 0 24 24" fill="none" xmlns="http://www.w3.org/2000/svg"><path d="M14.720 1.805 C 14.458 1.909,14.269 2.200,14.269 2.500 C 14.269 2.807,14.460 3.095,14.733 3.197 C 14.808 3.226,15.655 3.240,17.272 3.240 L 19.700 3.240 17.703 5.237 L 15.707 7.233 15.404 6.999 C 14.243 6.104,12.792 5.512,11.280 5.317 C 10.745 5.248,9.596 5.259,9.060 5.338 C 5.999 5.793,3.476 7.785,2.345 10.641 C 1.981 11.559,1.734 12.860,1.766 13.684 C 1.779 14.003,1.790 14.046,1.903 14.186 C 2.061 14.384,2.252 14.480,2.487 14.480 C 2.709 14.480,2.865 14.427,2.994 14.307 C 3.172 14.142,3.228 13.966,3.258 13.480 C 3.373 11.582,4.037 10.076,5.323 8.796 C 6.664 7.462,8.367 6.760,10.265 6.760 C 11.716 6.760,13.095 7.196,14.280 8.031 C 14.771 8.376,15.624 9.229,15.969 9.720 C 17.436 11.804,17.654 14.526,16.536 16.811 C 15.754 18.411,14.368 19.682,12.746 20.286 C 10.661 21.064,8.423 20.853,6.567 19.703 C 6.078 19.400,5.701 19.092,5.260 18.636 C 4.667 18.023,4.656 18.013,4.464 17.965 C 4.025 17.855,3.605 18.133,3.538 18.580 C 3.488 18.914,3.641 19.157,4.325 19.829 C 5.891 21.367,8.030 22.238,10.240 22.240 C 14.483 22.242,18.029 19.168,18.661 14.940 C 18.741 14.407,18.752 13.262,18.683 12.720 C 18.490 11.214,17.896 9.758,17.001 8.596 L 16.767 8.293 18.763 6.297 L 20.760 4.300 20.760 6.728 C 20.760 8.345,20.774 9.192,20.803 9.267 C 20.905 9.540,21.193 9.731,21.500 9.731 C 21.807 9.731,22.095 9.540,22.197 9.267 C 22.226 9.191,22.240 8.055,22.240 5.740 C 22.240 3.425,22.226 2.289,22.197 2.213 C 22.140 2.059,21.967 1.882,21.811 1.815 C 21.705 1.770,21.080 1.760,18.251 1.763 C 16.078 1.764,14.783 1.780,14.720 1.805 " stroke="none" fill-rule="evenodd" fill="black"></path></svg>