<svg width="24" height="24" viewBox="0 0 24 24" fill="none" xmlns="http://www.w3.org/2000/svg"><path d="M7.960 2.664 C 7.596 2.742,7.122 2.987,7.012 3.153 C 6.898 3.326,6.858 3.593,6.920 3.780 C 7.024 4.094,7.394 4.354,7.678 4.312 L 7.800 4.294 7.790 10.669 L 7.780 17.044 7.558 17.134 C 7.437 17.184,6.816 17.522,6.178 17.887 C 4.877 18.631,4.587 18.783,4.323 18.863 C 3.705 19.051,3.232 18.740,3.085 18.048 C 3.053 17.897,3.040 16.361,3.040 12.740 C 3.040 7.673,3.040 7.642,3.123 7.420 C 3.225 7.150,3.409 6.900,3.622 6.746 C 3.709 6.683,4.014 6.494,4.300 6.326 C 4.725 6.075,4.836 5.991,4.909 5.860 C 5.007 5.684,5.029 5.401,4.957 5.213 C 4.809 4.820,4.307 4.644,3.908 4.845 C 3.503 5.049,2.691 5.554,2.516 5.712 C 2.176 6.016,1.839 6.543,1.673 7.029 L 1.580 7.300 1.580 12.760 L 1.580 18.220 1.673 18.540 C 2.126 20.107,3.452 20.763,5.021 20.195 C 5.228 20.120,5.877 19.778,6.690 19.314 C 7.421 18.897,8.105 18.527,8.209 18.493 C 8.338 18.451,8.502 18.436,8.723 18.446 L 9.049 18.461 11.854 19.871 C 14.759 21.330,14.815 21.354,15.426 21.418 C 15.733 21.449,16.289 21.383,16.617 21.275 C 16.884 21.187,21.201 18.734,21.603 18.441 C 21.734 18.346,21.931 18.158,22.043 18.024 C 22.271 17.749,22.606 17.091,22.686 16.760 C 22.730 16.582,22.740 15.543,22.740 11.280 C 22.740 6.413,22.735 5.996,22.670 5.695 C 22.501 4.916,22.145 4.346,21.604 3.992 C 21.178 3.714,20.848 3.621,20.300 3.625 C 19.947 3.628,19.790 3.650,19.508 3.735 C 19.067 3.868,18.929 3.937,17.471 4.767 C 16.817 5.139,16.216 5.471,16.136 5.504 C 16.045 5.542,15.862 5.565,15.645 5.566 L 15.300 5.567 12.440 4.144 C 9.282 2.573,9.339 2.596,8.592 2.604 C 8.387 2.606,8.103 2.633,7.960 2.664 M11.959 5.579 C 13.390 6.293,14.659 6.907,14.780 6.942 L 15.000 7.006 15.000 13.383 C 15.000 16.890,14.991 19.760,14.980 19.760 C 14.969 19.760,13.785 19.173,12.350 18.455 C 10.914 17.737,9.650 17.118,9.540 17.081 L 9.340 17.012 9.330 10.646 C 9.324 7.145,9.328 4.280,9.339 4.280 C 9.349 4.280,10.528 4.865,11.959 5.579 M20.738 5.213 C 20.825 5.261,20.946 5.372,21.007 5.460 C 21.250 5.809,21.242 5.605,21.230 11.303 L 21.220 16.500 21.109 16.726 C 20.897 17.158,20.842 17.197,18.700 18.423 C 17.600 19.053,16.651 19.594,16.590 19.625 L 16.480 19.682 16.480 13.326 L 16.480 6.971 16.670 6.900 C 16.774 6.861,17.463 6.487,18.200 6.068 C 18.937 5.650,19.603 5.281,19.680 5.247 C 20.096 5.068,20.452 5.057,20.738 5.213 " stroke="none" fill-rule="evenodd" fill="black"></path></svg>