<svg width="24" height="24" viewBox="0 0 24 24" fill="none" xmlns="http://www.w3.org/2000/svg"><path d="M8.080 1.281 C 4.026 1.504,1.931 3.264,1.398 6.891 C 1.310 7.494,1.225 8.895,1.264 9.113 C 1.278 9.194,1.325 9.318,1.368 9.389 C 1.658 9.870,2.422 9.836,2.661 9.332 C 2.718 9.212,2.740 9.022,2.765 8.423 C 2.901 5.162,3.931 3.615,6.360 3.025 C 7.366 2.780,7.252 2.786,11.711 2.770 C 15.138 2.758,15.895 2.766,16.375 2.816 C 17.994 2.986,19.009 3.373,19.773 4.115 C 20.232 4.560,20.577 5.112,20.806 5.770 L 20.900 6.040 13.480 13.462 C 6.461 20.483,6.054 20.883,5.944 20.862 C 5.765 20.828,5.172 20.564,4.864 20.383 C 4.549 20.197,4.018 19.715,3.802 19.420 C 3.457 18.950,3.216 18.406,3.039 17.700 C 2.818 16.818,2.789 16.487,2.764 14.540 C 2.738 12.572,2.745 12.630,2.494 12.393 C 2.217 12.131,1.783 12.131,1.506 12.393 C 1.254 12.631,1.260 12.588,1.264 14.300 C 1.268 16.332,1.351 17.194,1.641 18.248 C 2.314 20.690,3.970 22.117,6.640 22.557 C 7.615 22.717,7.909 22.729,11.409 22.749 C 14.936 22.768,16.119 22.741,17.000 22.619 C 19.591 22.260,21.239 21.127,22.061 19.139 C 22.466 18.163,22.649 17.211,22.725 15.689 C 22.780 14.587,22.748 8.152,22.684 7.560 C 22.460 5.477,21.894 4.089,20.853 3.068 C 19.850 2.083,18.472 1.536,16.440 1.316 C 15.936 1.261,8.962 1.232,8.080 1.281 M8.394 5.103 C 6.720 5.406,5.563 6.704,5.420 8.441 C 5.343 9.376,5.694 10.497,6.358 11.440 C 6.620 11.812,7.236 12.496,7.520 12.732 C 7.762 12.932,8.167 13.139,8.466 13.217 C 8.788 13.300,9.452 13.300,9.774 13.217 C 10.263 13.091,10.536 12.910,11.100 12.343 C 11.932 11.506,12.443 10.673,12.683 9.760 C 13.000 8.552,12.760 7.289,12.040 6.384 C 11.226 5.359,9.781 4.852,8.394 5.103 M9.720 6.604 C 10.038 6.674,10.469 6.917,10.726 7.169 C 11.115 7.552,11.320 8.089,11.319 8.718 C 11.318 9.551,10.922 10.375,10.120 11.214 C 9.680 11.675,9.467 11.799,9.120 11.799 C 8.789 11.799,8.558 11.671,8.166 11.270 C 7.310 10.394,6.920 9.604,6.920 8.744 C 6.920 8.077,7.117 7.560,7.525 7.158 C 8.063 6.628,8.886 6.421,9.720 6.604 M8.642 7.828 C 7.929 8.202,7.929 9.198,8.642 9.572 C 8.834 9.673,8.894 9.685,9.144 9.673 C 9.505 9.655,9.761 9.511,9.939 9.222 C 10.048 9.046,10.060 8.993,10.060 8.700 C 10.060 8.407,10.048 8.354,9.939 8.178 C 9.761 7.889,9.505 7.745,9.144 7.727 C 8.894 7.715,8.834 7.727,8.642 7.828 M21.230 12.253 C 21.217 15.932,21.208 16.426,21.146 16.800 C 21.048 17.398,20.894 18.003,20.735 18.417 C 20.601 18.766,20.362 19.240,20.321 19.240 C 20.309 19.240,19.121 18.061,17.680 16.620 L 15.060 14.000 18.120 10.940 C 21.162 7.898,21.180 7.880,21.212 8.003 C 21.229 8.070,21.237 9.983,21.230 12.253 M16.638 17.698 C 18.078 19.139,19.248 20.324,19.238 20.333 C 19.228 20.343,19.121 20.405,19.000 20.471 C 18.475 20.759,17.694 20.999,16.800 21.146 C 16.426 21.208,15.932 21.217,12.300 21.230 C 10.056 21.238,8.141 21.233,8.044 21.219 L 7.867 21.193 10.923 18.137 C 12.604 16.455,13.989 15.080,14.000 15.080 C 14.011 15.080,15.198 16.258,16.638 17.698 " stroke="none" fill-rule="evenodd" fill="black"></path></svg>