<svg width="24" height="24" viewBox="0 0 24 24" fill="none" xmlns="http://www.w3.org/2000/svg"><path d="M11.320 1.283 C 9.879 1.366,8.361 1.777,7.140 2.415 C 5.639 3.199,4.382 4.250,3.435 5.511 C 2.905 6.216,2.343 7.183,2.298 7.466 C 2.223 7.933,2.664 8.373,3.135 8.303 C 3.419 8.260,3.593 8.102,3.820 7.679 C 4.787 5.877,6.222 4.513,8.090 3.620 C 9.255 3.064,10.333 2.813,11.722 2.773 C 12.625 2.747,13.071 2.783,13.876 2.944 C 15.198 3.208,16.664 3.891,17.730 4.738 C 17.857 4.839,17.960 4.934,17.960 4.951 C 17.960 5.018,4.967 17.969,4.925 17.943 C 4.859 17.903,4.443 17.348,4.201 16.979 C 3.703 16.221,3.162 14.915,2.965 13.998 C 2.852 13.470,2.760 12.737,2.760 12.360 C 2.760 11.884,2.699 11.659,2.522 11.482 C 2.108 11.068,1.405 11.266,1.277 11.832 C 1.232 12.035,1.303 13.162,1.398 13.742 C 2.148 18.306,5.781 21.911,10.343 22.617 C 11.322 22.769,12.751 22.768,13.680 22.617 C 15.423 22.332,17.041 21.642,18.470 20.575 C 19.083 20.118,20.115 19.086,20.570 18.477 C 22.127 16.391,22.870 13.932,22.717 11.373 C 22.673 10.631,22.597 10.116,22.436 9.450 C 21.426 5.287,17.979 2.094,13.742 1.398 C 13.347 1.333,12.050 1.226,11.900 1.246 C 11.878 1.249,11.617 1.266,11.320 1.283 M19.262 6.270 C 20.304 7.580,21.014 9.320,21.198 11.008 C 21.251 11.498,21.252 12.509,21.199 12.980 C 21.148 13.436,20.999 14.240,20.966 14.240 C 20.952 14.240,19.802 13.102,18.410 11.710 L 15.880 9.180 17.450 7.610 C 18.313 6.747,19.033 6.040,19.049 6.040 C 19.066 6.040,19.161 6.144,19.262 6.270 M20.265 16.149 C 19.886 16.918,19.346 17.685,18.745 18.306 L 18.364 18.700 15.362 15.700 L 12.360 12.700 13.590 11.470 L 14.820 10.240 17.619 13.039 L 20.418 15.838 20.265 16.149 M14.244 16.707 C 15.848 18.306,17.160 19.629,17.160 19.648 C 17.160 19.711,16.663 20.006,16.060 20.302 C 15.417 20.617,14.597 20.910,14.029 21.026 L 13.678 21.098 11.249 18.669 L 8.820 16.240 10.040 15.020 C 10.711 14.349,11.275 13.800,11.294 13.800 C 11.312 13.800,12.640 15.108,14.244 16.707 M9.740 19.280 L 11.700 21.240 11.512 21.240 C 11.249 21.240,10.455 21.132,10.002 21.035 C 9.085 20.838,7.779 20.297,7.021 19.799 C 6.652 19.557,6.097 19.141,6.057 19.075 C 6.034 19.037,7.699 17.320,7.760 17.320 C 7.771 17.320,8.662 18.202,9.740 19.280 " stroke="none" fill-rule="evenodd" fill="black"></path></svg>