<svg width="24" height="24" viewBox="0 0 24 24" fill="none" xmlns="http://www.w3.org/2000/svg"><path d="M11.560 1.267 C 10.326 1.322,9.152 1.571,8.041 2.012 C 7.427 2.256,7.240 2.454,7.240 2.860 C 7.240 3.229,7.525 3.548,7.892 3.589 C 8.032 3.605,8.152 3.574,8.523 3.428 C 9.337 3.106,10.047 2.920,10.830 2.824 L 11.240 2.773 11.240 4.538 L 11.240 6.303 10.873 6.373 C 8.926 6.741,7.237 8.210,6.582 10.105 C 5.986 11.832,6.231 13.693,7.257 15.235 C 8.055 16.435,9.451 17.359,10.873 17.627 L 11.240 17.697 11.240 19.461 L 11.240 21.225 10.930 21.190 C 9.257 21.002,7.520 20.270,6.180 19.187 C 6.004 19.045,5.643 18.706,5.378 18.434 C 4.611 17.648,4.170 17.024,3.698 16.060 C 3.058 14.754,2.760 13.464,2.760 12.005 C 2.760 10.060,3.331 8.256,4.457 6.648 C 4.701 6.298,4.770 6.095,4.724 5.855 C 4.656 5.497,4.372 5.267,4.000 5.267 C 3.678 5.267,3.534 5.369,3.222 5.816 C 1.432 8.383,0.834 11.537,1.564 14.550 C 1.904 15.951,2.529 17.268,3.424 18.470 C 3.880 19.083,4.909 20.111,5.530 20.575 C 7.606 22.126,10.070 22.870,12.627 22.717 C 14.790 22.588,16.724 21.879,18.470 20.575 C 19.087 20.115,20.115 19.087,20.575 18.470 C 22.127 16.391,22.870 13.930,22.717 11.373 C 22.588 9.210,21.879 7.276,20.575 5.530 C 20.115 4.913,19.087 3.885,18.470 3.425 C 17.047 2.362,15.454 1.679,13.742 1.398 C 13.325 1.330,12.055 1.227,11.880 1.248 C 11.847 1.252,11.703 1.261,11.560 1.267 M13.876 2.944 C 15.168 3.202,16.514 3.817,17.619 4.653 C 18.028 4.962,18.852 5.765,19.187 6.180 C 20.059 7.259,20.755 8.698,21.035 10.002 C 21.310 11.286,21.310 12.714,21.035 13.998 C 20.772 15.222,20.148 16.560,19.347 17.619 C 19.038 18.028,18.235 18.852,17.820 19.187 C 16.480 20.270,14.743 21.002,13.070 21.190 L 12.760 21.225 12.760 19.461 L 12.760 17.697 13.127 17.627 C 15.329 17.211,17.168 15.394,17.618 13.188 C 17.712 12.727,17.759 12.040,17.712 11.819 C 17.607 11.327,16.985 11.097,16.566 11.396 C 16.338 11.558,16.279 11.711,16.238 12.239 C 16.204 12.692,16.134 13.064,16.032 13.340 C 15.779 14.024,15.461 14.534,14.998 14.998 C 14.442 15.553,13.813 15.912,13.030 16.120 L 12.760 16.192 12.760 12.000 L 12.760 7.809 12.930 7.846 C 13.248 7.915,13.619 8.050,13.924 8.206 C 14.212 8.355,14.376 8.467,14.904 8.880 C 15.128 9.055,15.142 9.060,15.420 9.060 C 15.674 9.060,15.723 9.047,15.857 8.945 C 16.140 8.729,16.235 8.339,16.081 8.023 C 15.880 7.610,14.701 6.847,13.795 6.543 C 13.628 6.487,13.326 6.410,13.125 6.372 L 12.760 6.303 12.760 4.539 L 12.760 2.775 13.070 2.810 C 13.240 2.829,13.603 2.889,13.876 2.944 M11.240 11.996 L 11.240 16.192 10.970 16.120 C 10.447 15.981,10.087 15.821,9.650 15.532 C 9.018 15.116,8.408 14.396,8.131 13.740 C 7.817 12.999,7.782 12.826,7.782 12.000 C 7.782 11.456,7.798 11.242,7.853 11.040 C 8.076 10.216,8.448 9.557,9.002 9.002 C 9.571 8.434,10.206 8.080,11.080 7.845 C 11.157 7.824,11.225 7.806,11.230 7.804 C 11.236 7.802,11.240 9.688,11.240 11.996 " stroke="none" fill-rule="evenodd" fill="black"></path></svg>