<svg width="24" height="24" viewBox="0 0 24 24" fill="none" xmlns="http://www.w3.org/2000/svg"><path d="M11.560 1.267 C 10.326 1.322,9.152 1.571,8.041 2.012 C 7.427 2.256,7.240 2.454,7.240 2.860 C 7.240 3.229,7.525 3.548,7.892 3.589 C 8.032 3.605,8.152 3.574,8.523 3.428 C 9.718 2.955,10.735 2.760,12.006 2.760 C 13.464 2.760,14.754 3.058,16.060 3.698 C 17.024 4.170,17.648 4.611,18.434 5.378 C 19.273 6.195,19.814 6.937,20.303 7.940 C 20.944 9.253,21.240 10.537,21.240 12.000 C 21.240 13.465,20.943 14.752,20.302 16.060 C 19.830 17.024,19.389 17.648,18.622 18.434 C 17.805 19.273,17.063 19.814,16.060 20.303 C 14.747 20.944,13.463 21.240,12.000 21.240 C 10.537 21.240,9.253 20.944,7.940 20.303 C 6.937 19.814,6.195 19.273,5.378 18.434 C 4.611 17.648,4.170 17.024,3.698 16.060 C 3.058 14.754,2.760 13.464,2.760 12.005 C 2.760 10.060,3.331 8.256,4.457 6.648 C 4.701 6.298,4.770 6.095,4.724 5.855 C 4.656 5.497,4.372 5.267,4.000 5.267 C 3.678 5.267,3.534 5.369,3.222 5.816 C 1.432 8.383,0.834 11.537,1.564 14.550 C 1.904 15.951,2.529 17.268,3.424 18.470 C 3.880 19.083,4.909 20.111,5.530 20.575 C 7.606 22.126,10.070 22.870,12.627 22.717 C 14.790 22.588,16.724 21.879,18.470 20.575 C 19.087 20.115,20.115 19.087,20.575 18.470 C 22.127 16.391,22.870 13.930,22.717 11.373 C 22.588 9.210,21.879 7.276,20.575 5.530 C 20.115 4.913,19.087 3.885,18.470 3.425 C 17.047 2.362,15.454 1.679,13.742 1.398 C 13.325 1.330,12.055 1.227,11.880 1.248 C 11.847 1.252,11.703 1.261,11.560 1.267 M9.906 5.141 C 9.134 5.287,8.013 5.896,7.200 6.611 C 6.170 7.516,5.329 8.900,5.006 10.220 C 4.839 10.904,4.820 11.087,4.820 12.000 C 4.820 12.913,4.839 13.096,5.006 13.780 C 5.313 15.034,6.193 16.506,7.125 17.323 C 7.948 18.044,9.008 18.642,9.788 18.824 C 10.134 18.904,10.748 18.903,11.057 18.821 C 11.834 18.614,12.409 17.999,12.628 17.140 C 12.694 16.885,12.700 16.627,12.700 14.237 L 12.700 11.613 12.586 11.448 C 12.280 11.007,11.626 11.019,11.329 11.471 C 11.266 11.567,11.258 11.800,11.239 14.158 C 11.219 16.490,11.210 16.757,11.147 16.919 C 11.012 17.265,10.802 17.400,10.402 17.400 C 9.826 17.400,8.728 16.797,8.008 16.084 C 6.809 14.898,6.222 13.411,6.294 11.740 C 6.330 10.907,6.487 10.278,6.842 9.540 C 7.412 8.353,8.276 7.478,9.462 6.885 C 9.999 6.617,10.298 6.542,10.586 6.601 C 10.995 6.686,11.164 6.936,11.222 7.540 C 11.238 7.706,11.284 7.883,11.334 7.974 C 11.560 8.383,12.186 8.458,12.508 8.113 C 12.679 7.930,12.731 7.732,12.701 7.384 C 12.637 6.652,12.421 6.139,12.001 5.719 C 11.481 5.200,10.715 4.988,9.906 5.141 " stroke="none" fill-rule="evenodd" fill="black"></path></svg>