<svg width="24" height="24" viewBox="0 0 24 24" fill="none" xmlns="http://www.w3.org/2000/svg"><path d="M17.934 1.278 C 17.732 1.326,17.544 1.464,17.448 1.633 C 17.361 1.788,17.360 1.816,17.360 3.333 L 17.360 4.876 15.790 4.888 C 14.072 4.901,14.109 4.896,13.873 5.146 C 13.739 5.287,13.680 5.439,13.680 5.640 C 13.680 5.841,13.739 5.993,13.873 6.134 C 14.109 6.384,14.072 6.379,15.790 6.392 L 17.360 6.404 17.360 7.923 C 17.360 9.124,17.372 9.470,17.415 9.571 C 17.482 9.727,17.659 9.900,17.813 9.957 C 18.078 10.058,18.469 9.971,18.648 9.773 C 18.845 9.555,18.840 9.665,18.840 5.640 C 18.840 1.565,18.848 1.722,18.628 1.487 C 18.459 1.306,18.176 1.221,17.934 1.278 M2.220 4.899 C 2.198 4.907,2.131 4.924,2.071 4.937 C 1.924 4.969,1.681 5.188,1.614 5.348 C 1.545 5.513,1.545 5.767,1.614 5.932 C 1.679 6.087,1.919 6.307,2.071 6.349 C 2.213 6.389,9.667 6.389,9.809 6.349 C 9.961 6.307,10.201 6.087,10.266 5.932 C 10.377 5.667,10.321 5.351,10.127 5.146 C 9.878 4.883,10.163 4.901,6.020 4.893 C 3.952 4.889,2.242 4.892,2.220 4.899 M20.745 4.927 C 20.522 4.989,20.297 5.229,20.249 5.456 C 20.154 5.899,20.391 6.271,20.826 6.361 C 21.137 6.426,21.860 6.395,22.020 6.310 C 22.286 6.170,22.440 5.924,22.440 5.640 C 22.440 5.356,22.287 5.111,22.020 4.969 C 21.873 4.890,20.982 4.861,20.745 4.927 M2.000 14.045 C 1.646 14.186,1.466 14.656,1.622 15.031 C 1.664 15.132,2.195 15.692,3.271 16.770 L 4.858 18.359 3.270 19.951 C 2.211 21.014,1.663 21.592,1.621 21.690 C 1.464 22.068,1.614 22.479,1.979 22.669 C 2.138 22.752,2.468 22.748,2.641 22.661 C 2.717 22.622,3.491 21.883,4.360 21.017 L 5.940 19.443 7.520 21.016 C 8.389 21.881,9.163 22.621,9.239 22.660 C 9.411 22.748,9.741 22.753,9.901 22.669 C 10.056 22.588,10.224 22.409,10.277 22.267 C 10.337 22.111,10.331 21.863,10.264 21.703 C 10.198 21.545,2.775 14.127,2.607 14.052 C 2.478 13.994,2.138 13.990,2.000 14.045 M9.270 14.052 C 9.160 14.100,7.660 15.567,7.516 15.767 C 7.356 15.989,7.379 16.381,7.566 16.619 C 7.754 16.857,8.161 16.948,8.468 16.819 C 8.672 16.734,10.135 15.277,10.245 15.049 C 10.419 14.691,10.272 14.251,9.917 14.070 C 9.759 13.990,9.433 13.980,9.270 14.052 M14.083 14.670 C 13.586 14.924,13.545 15.624,14.008 15.946 L 14.173 16.060 18.060 16.060 L 21.947 16.060 22.112 15.946 C 22.309 15.809,22.440 15.561,22.440 15.326 C 22.440 15.041,22.239 14.738,21.987 14.643 C 21.910 14.614,20.661 14.600,18.047 14.600 C 14.483 14.600,14.211 14.605,14.083 14.670 M14.087 20.725 C 13.821 20.857,13.700 21.070,13.700 21.403 C 13.700 21.644,13.713 21.689,13.823 21.826 C 14.075 22.142,13.757 22.120,18.047 22.120 C 20.661 22.120,21.910 22.106,21.987 22.077 C 22.239 21.982,22.440 21.679,22.440 21.394 C 22.440 21.159,22.309 20.911,22.112 20.774 L 21.947 20.660 18.103 20.650 L 14.260 20.639 14.087 20.725 " stroke="none" fill-rule="evenodd" fill="black"></path></svg>