<svg width="24" height="24" viewBox="0 0 24 24" fill="none" xmlns="http://www.w3.org/2000/svg"><path d="M8.080 1.282 C 4.042 1.493,1.931 3.265,1.398 6.891 C 1.310 7.494,1.225 8.895,1.264 9.113 C 1.278 9.194,1.325 9.318,1.368 9.389 C 1.658 9.870,2.422 9.836,2.661 9.332 C 2.718 9.212,2.740 9.022,2.765 8.423 C 2.900 5.187,3.905 3.654,6.288 3.044 C 7.337 2.776,7.247 2.780,12.000 2.780 C 15.936 2.780,16.339 2.786,16.760 2.852 C 19.558 3.288,20.712 4.442,21.148 7.240 C 21.214 7.661,21.220 8.064,21.220 12.000 C 21.220 15.936,21.214 16.339,21.148 16.760 C 20.712 19.558,19.558 20.712,16.760 21.148 C 16.339 21.214,15.936 21.220,12.000 21.220 C 8.064 21.220,7.661 21.214,7.240 21.148 C 4.756 20.761,3.576 19.795,3.044 17.712 C 2.820 16.836,2.790 16.494,2.764 14.580 C 2.738 12.677,2.741 12.705,2.513 12.492 C 2.391 12.377,2.155 12.280,2.000 12.280 C 1.745 12.280,1.460 12.458,1.326 12.700 C 1.180 12.964,1.229 15.960,1.398 17.107 C 1.885 20.415,3.654 22.148,7.027 22.622 C 7.786 22.728,8.902 22.759,12.000 22.759 C 15.098 22.759,16.214 22.728,16.973 22.622 C 19.443 22.275,20.996 21.288,21.897 19.490 C 22.379 18.530,22.638 17.369,22.720 15.807 C 22.771 14.838,22.771 9.162,22.720 8.193 C 22.657 6.998,22.521 6.191,22.242 5.356 C 21.632 3.531,20.469 2.367,18.650 1.760 C 17.788 1.473,17.023 1.344,15.806 1.280 C 14.952 1.235,8.952 1.237,8.080 1.282 M13.815 5.278 C 13.331 5.393,13.098 6.004,13.383 6.408 C 13.609 6.727,13.660 6.738,14.997 6.753 L 16.174 6.766 15.291 7.653 C 14.805 8.141,14.379 8.598,14.344 8.668 C 14.271 8.815,14.260 9.103,14.323 9.267 C 14.380 9.421,14.553 9.598,14.709 9.665 C 14.881 9.739,15.175 9.735,15.332 9.656 C 15.402 9.621,15.859 9.195,16.347 8.709 L 17.235 7.826 17.247 9.023 C 17.260 10.195,17.262 10.223,17.353 10.369 C 17.710 10.943,18.576 10.812,18.716 10.162 C 18.745 10.027,18.760 9.255,18.760 7.917 C 18.760 6.167,18.751 5.856,18.698 5.729 C 18.616 5.532,18.494 5.405,18.300 5.316 C 18.151 5.247,18.001 5.242,16.040 5.245 C 14.885 5.247,13.884 5.262,13.815 5.278 M11.900 11.260 C 11.878 11.267,11.806 11.285,11.740 11.299 C 11.650 11.319,11.006 11.938,9.190 13.752 L 6.760 16.178 6.760 15.111 C 6.760 13.861,6.736 13.696,6.522 13.482 C 6.173 13.133,5.619 13.203,5.353 13.631 L 5.260 13.780 5.248 15.920 C 5.239 17.380,5.249 18.107,5.279 18.208 C 5.337 18.408,5.503 18.596,5.698 18.685 C 5.848 18.753,6.008 18.758,7.908 18.759 C 9.256 18.760,10.027 18.745,10.162 18.716 C 10.723 18.596,10.929 17.889,10.522 17.482 C 10.301 17.261,10.163 17.240,8.913 17.240 L 7.822 17.240 10.247 14.810 C 12.587 12.465,12.673 12.373,12.711 12.189 C 12.785 11.834,12.633 11.480,12.352 11.350 C 12.213 11.286,11.968 11.237,11.900 11.260 " stroke="none" fill-rule="evenodd" fill="black"></path></svg>