<svg width="24" height="24" viewBox="0 0 24 24" fill="none" xmlns="http://www.w3.org/2000/svg"><path d="M14.815 2.278 C 14.331 2.393,14.098 3.004,14.383 3.408 C 14.447 3.499,14.572 3.610,14.660 3.656 C 14.816 3.738,14.879 3.740,16.998 3.752 L 19.177 3.763 16.030 6.912 C 13.821 9.122,12.864 10.104,12.821 10.209 C 12.708 10.484,12.783 10.869,12.986 11.048 C 13.193 11.232,13.529 11.287,13.791 11.179 C 13.896 11.136,14.877 10.180,17.084 7.974 L 20.229 4.832 20.257 5.045 C 20.305 5.409,20.504 5.640,20.833 5.714 C 21.240 5.805,21.630 5.562,21.716 5.162 C 21.742 5.042,21.760 4.525,21.760 3.917 C 21.760 3.069,21.749 2.850,21.698 2.729 C 21.616 2.532,21.494 2.405,21.300 2.316 C 21.149 2.246,20.973 2.242,18.040 2.245 C 16.335 2.247,14.884 2.262,14.815 2.278 M20.619 7.337 C 20.529 7.391,20.415 7.510,20.359 7.607 C 20.264 7.774,20.260 7.807,20.260 8.500 C 20.260 9.184,20.265 9.228,20.353 9.369 C 20.613 9.788,21.179 9.861,21.521 9.519 C 21.726 9.314,21.773 9.075,21.753 8.343 C 21.740 7.834,21.729 7.763,21.639 7.606 C 21.439 7.252,20.968 7.128,20.619 7.337 M10.200 12.823 C 10.110 12.862,8.947 13.995,6.918 16.024 L 3.775 19.165 3.729 18.918 C 3.650 18.491,3.385 18.263,2.974 18.267 C 2.720 18.269,2.518 18.384,2.367 18.612 L 2.260 18.774 2.247 19.917 C 2.238 20.672,2.249 21.110,2.278 21.208 C 2.338 21.409,2.503 21.596,2.698 21.685 C 2.851 21.754,3.037 21.758,5.908 21.759 C 7.986 21.760,9.022 21.746,9.162 21.716 C 9.904 21.557,9.924 20.471,9.189 20.286 C 9.061 20.254,8.366 20.240,6.912 20.240 L 4.820 20.240 7.969 17.090 C 10.179 14.879,11.136 13.896,11.179 13.791 C 11.292 13.516,11.217 13.131,11.014 12.952 C 10.808 12.768,10.457 12.713,10.200 12.823 M2.815 14.277 C 2.638 14.321,2.461 14.456,2.353 14.631 C 2.265 14.772,2.260 14.816,2.260 15.500 C 2.260 16.194,2.264 16.226,2.360 16.394 C 2.640 16.884,3.348 16.888,3.634 16.400 C 3.732 16.233,3.740 16.180,3.754 15.655 C 3.771 15.018,3.725 14.727,3.581 14.538 C 3.421 14.327,3.079 14.211,2.815 14.277 " stroke="none" fill-rule="evenodd" fill="black"></path></svg>