<svg width="24" height="24" viewBox="0 0 24 24" fill="none" xmlns="http://www.w3.org/2000/svg"><path d="M8.080 1.282 C 4.041 1.493,1.932 3.264,1.398 6.893 C 1.234 8.005,1.193 10.046,1.329 10.300 C 1.471 10.567,1.716 10.720,2.000 10.720 C 2.201 10.720,2.353 10.661,2.494 10.527 C 2.733 10.301,2.735 10.289,2.764 8.920 C 2.793 7.551,2.844 7.071,3.044 6.288 C 3.575 4.210,4.761 3.234,7.220 2.854 C 7.665 2.785,8.011 2.780,12.000 2.780 C 15.936 2.780,16.339 2.786,16.760 2.852 C 19.558 3.288,20.712 4.442,21.148 7.240 C 21.214 7.661,21.220 8.064,21.220 12.000 C 21.220 16.745,21.226 16.622,20.960 17.688 C 20.504 19.520,19.519 20.504,17.688 20.960 C 16.870 21.163,16.446 21.208,15.057 21.235 L 13.774 21.260 13.612 21.367 C 13.372 21.526,13.267 21.721,13.267 22.007 C 13.267 22.203,13.286 22.270,13.383 22.408 C 13.572 22.675,13.736 22.735,14.319 22.753 C 14.943 22.773,16.445 22.698,16.986 22.621 C 19.452 22.270,20.998 21.284,21.897 19.490 C 22.379 18.530,22.638 17.369,22.720 15.807 C 22.771 14.838,22.771 9.162,22.720 8.193 C 22.657 6.998,22.521 6.191,22.242 5.356 C 21.632 3.531,20.469 2.367,18.650 1.760 C 17.788 1.473,17.023 1.344,15.806 1.280 C 14.952 1.235,8.952 1.237,8.080 1.282 M13.720 5.285 C 13.458 5.389,13.269 5.680,13.269 5.980 C 13.269 6.287,13.460 6.575,13.733 6.677 C 13.803 6.704,14.291 6.720,15.032 6.720 L 16.219 6.720 14.294 8.650 C 13.235 9.712,12.346 10.625,12.318 10.680 C 12.290 10.735,12.267 10.881,12.267 11.004 C 12.267 11.498,12.681 11.816,13.189 11.711 C 13.372 11.673,13.457 11.595,15.330 9.727 L 17.280 7.782 17.280 8.968 C 17.280 9.709,17.296 10.197,17.323 10.267 C 17.425 10.539,17.705 10.720,18.020 10.720 C 18.330 10.720,18.580 10.554,18.698 10.270 C 18.791 10.049,18.791 5.911,18.698 5.690 C 18.619 5.500,18.535 5.409,18.352 5.316 C 18.211 5.244,18.086 5.240,16.012 5.243 C 14.659 5.244,13.782 5.260,13.720 5.285 M4.800 12.264 C 4.349 12.293,3.850 12.372,3.522 12.467 C 2.469 12.771,1.770 13.470,1.467 14.522 C 1.284 15.159,1.262 15.459,1.261 17.320 C 1.260 18.865,1.267 19.073,1.326 19.180 C 1.460 19.422,1.745 19.600,2.000 19.600 C 2.155 19.600,2.391 19.503,2.513 19.388 C 2.743 19.174,2.738 19.216,2.763 17.180 C 2.782 15.572,2.795 15.265,2.854 15.060 C 3.070 14.303,3.443 13.976,4.274 13.816 C 4.501 13.773,5.001 13.760,6.500 13.760 C 8.560 13.760,8.758 13.775,9.260 13.963 C 9.588 14.086,9.913 14.412,10.038 14.740 C 10.220 15.223,10.237 15.455,10.237 17.500 C 10.237 18.946,10.224 19.494,10.183 19.720 C 10.033 20.547,9.698 20.930,8.940 21.146 C 8.735 21.204,8.422 21.217,6.820 21.237 C 4.784 21.262,4.826 21.257,4.612 21.487 C 4.497 21.609,4.400 21.845,4.400 22.000 C 4.400 22.255,4.578 22.540,4.820 22.674 C 4.927 22.733,5.135 22.740,6.680 22.739 C 8.541 22.738,8.841 22.716,9.478 22.533 C 10.530 22.230,11.230 21.530,11.533 20.478 C 11.721 19.823,11.740 19.555,11.740 17.500 C 11.740 15.445,11.721 15.177,11.533 14.522 C 11.238 13.496,10.550 12.792,9.542 12.483 C 8.928 12.295,8.644 12.272,6.780 12.261 C 5.812 12.255,4.921 12.256,4.800 12.264 " stroke="none" fill-rule="evenodd" fill="black"></path></svg>