<svg width="24" height="24" viewBox="0 0 24 24" fill="none" xmlns="http://www.w3.org/2000/svg"><path d="M11.393 1.282 C 8.317 1.503,5.607 3.631,4.643 6.582 C 4.024 8.480,4.166 10.651,5.024 12.373 C 5.121 12.567,5.200 12.746,5.200 12.772 C 5.200 12.798,4.374 13.647,3.364 14.659 C 1.962 16.065,1.505 16.547,1.429 16.700 C 1.006 17.561,1.329 18.594,2.161 19.037 C 2.324 19.124,2.652 19.222,3.247 19.362 C 4.279 19.605,4.346 19.626,4.380 19.712 C 4.396 19.749,4.497 20.149,4.605 20.600 C 4.713 21.051,4.850 21.519,4.908 21.640 C 5.041 21.914,5.398 22.274,5.653 22.393 C 6.282 22.686,6.901 22.649,7.438 22.287 C 7.600 22.178,8.217 21.495,9.811 19.660 C 10.996 18.296,11.981 17.180,12.000 17.180 C 12.018 17.180,12.972 18.260,14.119 19.580 C 15.265 20.900,16.279 22.050,16.372 22.136 C 17.016 22.732,18.128 22.709,18.751 22.085 C 19.058 21.778,19.167 21.520,19.399 20.552 C 19.514 20.074,19.630 19.665,19.657 19.643 C 19.683 19.621,20.127 19.502,20.643 19.381 C 21.158 19.259,21.672 19.114,21.785 19.059 C 22.694 18.616,23.029 17.469,22.507 16.591 C 22.451 16.497,21.587 15.603,20.586 14.604 L 18.768 12.788 18.960 12.404 C 19.406 11.511,19.646 10.606,19.717 9.548 C 19.872 7.213,19.039 5.044,17.371 3.438 C 16.823 2.911,16.631 2.767,16.400 2.716 C 15.762 2.572,15.282 3.289,15.639 3.852 C 15.705 3.955,15.776 4.040,15.797 4.040 C 15.878 4.040,16.768 4.942,17.013 5.272 C 17.635 6.114,18.033 7.072,18.184 8.091 C 18.272 8.689,18.242 9.774,18.122 10.300 C 17.846 11.510,17.301 12.511,16.451 13.373 C 15.253 14.587,13.728 15.220,12.000 15.220 C 11.034 15.220,10.206 15.045,9.396 14.668 C 7.580 13.824,6.326 12.266,5.879 10.300 C 5.771 9.827,5.729 8.749,5.798 8.231 C 5.947 7.105,6.365 6.085,7.042 5.200 C 7.446 4.671,8.125 4.050,8.680 3.700 C 9.529 3.164,10.822 2.763,11.708 2.761 C 11.844 2.760,12.049 2.740,12.162 2.716 C 12.723 2.596,12.929 1.889,12.522 1.482 C 12.374 1.334,12.114 1.233,11.912 1.246 C 11.862 1.249,11.628 1.265,11.393 1.282 M11.628 4.815 C 11.422 4.892,11.177 5.066,11.034 5.238 C 10.969 5.316,10.756 5.696,10.561 6.082 L 10.206 6.785 9.573 6.892 C 8.686 7.044,8.358 7.216,8.091 7.673 C 8.009 7.811,7.982 7.920,7.968 8.166 C 7.937 8.697,8.068 8.940,8.782 9.679 L 9.227 10.140 9.092 10.700 C 8.976 11.182,8.959 11.316,8.970 11.660 C 8.981 12.014,8.996 12.085,9.100 12.274 C 9.338 12.709,9.710 12.907,10.215 12.868 C 10.661 12.834,10.730 12.804,11.841 12.150 L 12.021 12.043 12.501 12.327 C 13.338 12.822,13.437 12.860,13.900 12.860 C 14.207 12.860,14.330 12.844,14.429 12.789 C 14.649 12.669,14.840 12.476,14.950 12.264 C 15.039 12.092,15.058 11.997,15.069 11.660 C 15.081 11.314,15.065 11.184,14.948 10.700 L 14.814 10.140 15.299 9.635 C 15.912 8.996,16.048 8.761,16.072 8.294 C 16.087 8.010,16.077 7.940,15.990 7.751 C 15.763 7.254,15.411 7.056,14.460 6.891 L 13.820 6.780 13.476 6.104 C 13.093 5.351,12.887 5.082,12.559 4.903 C 12.302 4.763,11.875 4.723,11.628 4.815 M12.320 7.121 C 12.741 7.960,13.014 8.172,13.840 8.300 C 14.071 8.336,14.284 8.373,14.314 8.383 C 14.348 8.394,14.220 8.556,13.967 8.821 C 13.309 9.510,13.215 9.832,13.416 10.715 C 13.473 10.966,13.520 11.176,13.520 11.183 C 13.520 11.190,13.335 11.086,13.110 10.951 C 12.559 10.622,12.385 10.560,12.020 10.560 C 11.655 10.560,11.481 10.622,10.930 10.951 C 10.705 11.086,10.520 11.183,10.521 11.168 C 10.521 11.153,10.566 10.951,10.620 10.720 C 10.739 10.213,10.744 9.966,10.644 9.642 C 10.553 9.351,10.454 9.212,10.006 8.751 C 9.782 8.520,9.687 8.396,9.724 8.384 C 9.755 8.373,9.969 8.336,10.200 8.300 C 11.015 8.174,11.308 7.941,11.738 7.084 C 11.882 6.796,12.009 6.560,12.020 6.560 C 12.031 6.560,12.166 6.812,12.320 7.121 M6.974 14.907 C 7.880 15.668,8.935 16.214,10.052 16.502 L 10.483 16.613 10.368 16.736 C 10.304 16.804,9.431 17.807,8.427 18.965 C 7.422 20.123,6.568 21.079,6.529 21.089 C 6.420 21.118,6.284 21.053,6.240 20.951 C 6.218 20.901,6.118 20.509,6.018 20.080 C 5.918 19.651,5.791 19.208,5.737 19.095 C 5.545 18.693,5.154 18.341,4.749 18.204 C 4.634 18.165,4.162 18.045,3.701 17.938 C 2.836 17.736,2.720 17.685,2.720 17.510 C 2.720 17.445,3.186 16.954,4.407 15.733 L 6.094 14.046 6.351 14.323 C 6.492 14.475,6.772 14.738,6.974 14.907 M21.280 17.487 C 21.280 17.522,21.248 17.591,21.208 17.640 C 21.150 17.712,20.962 17.770,20.218 17.945 C 19.191 18.187,18.907 18.301,18.607 18.593 C 18.317 18.876,18.189 19.183,17.963 20.139 C 17.755 21.019,17.726 21.080,17.519 21.080 C 17.429 21.080,17.137 20.764,15.576 18.970 C 14.566 17.810,13.691 16.804,13.631 16.736 L 13.522 16.612 13.933 16.505 C 14.455 16.369,15.001 16.167,15.461 15.940 C 16.224 15.563,17.135 14.888,17.651 14.316 L 17.900 14.041 19.590 15.731 C 20.519 16.661,21.280 17.451,21.280 17.487 " stroke="none" fill-rule="evenodd" fill="black"></path></svg>