<svg width="24" height="24" viewBox="0 0 24 24" fill="none" xmlns="http://www.w3.org/2000/svg"><path d="M11.377 1.282 C 9.001 1.466,6.818 2.781,5.570 4.783 C 4.860 5.921,4.520 7.125,4.520 8.500 C 4.520 10.360,5.140 11.922,6.450 13.360 L 6.759 13.700 6.760 17.420 C 6.761 20.460,6.772 21.188,6.818 21.405 C 7.033 22.421,7.946 22.957,8.940 22.651 C 9.050 22.617,9.763 22.295,10.524 21.935 C 11.286 21.575,11.952 21.280,12.006 21.280 C 12.059 21.280,12.714 21.569,13.460 21.923 C 15.063 22.681,15.181 22.725,15.616 22.725 C 16.392 22.725,16.980 22.262,17.180 21.493 C 17.231 21.297,17.240 20.708,17.240 17.482 L 17.241 13.700 17.550 13.360 C 18.605 12.202,19.216 10.937,19.421 9.490 C 19.514 8.828,19.488 7.768,19.362 7.141 C 19.080 5.738,18.380 4.451,17.341 3.424 C 17.142 3.228,16.908 3.035,16.820 2.995 C 16.352 2.782,15.827 3.074,15.770 3.580 C 15.736 3.880,15.833 4.057,16.262 4.478 C 17.208 5.406,17.751 6.458,17.937 7.725 C 18.194 9.468,17.611 11.178,16.317 12.476 C 15.171 13.625,13.669 14.239,12.000 14.239 C 10.331 14.239,8.829 13.625,7.683 12.476 C 6.070 10.857,5.578 8.606,6.377 6.500 C 6.647 5.790,7.092 5.117,7.683 4.524 C 8.607 3.598,9.756 3.023,11.100 2.817 C 11.298 2.786,11.572 2.761,11.708 2.761 C 12.120 2.760,12.348 2.692,12.520 2.520 C 12.918 2.122,12.730 1.423,12.189 1.286 C 11.990 1.236,11.977 1.236,11.377 1.282 M15.719 21.162 C 15.696 21.205,15.641 21.240,15.597 21.240 C 15.553 21.240,14.883 20.941,14.108 20.575 C 12.539 19.834,12.510 19.822,12.197 19.784 C 11.747 19.728,11.570 19.788,10.023 20.523 C 9.103 20.960,8.530 21.211,8.441 21.214 C 8.318 21.219,8.299 21.207,8.276 21.100 C 8.240 20.936,8.234 18.321,8.266 16.395 L 8.293 14.810 8.716 15.009 C 10.799 15.988,13.305 15.980,15.320 14.987 L 15.740 14.780 15.750 17.932 C 15.757 20.059,15.747 21.110,15.719 21.162 " stroke="none" fill-rule="evenodd" fill="black"></path></svg>