<svg width="24" height="24" viewBox="0 0 24 24" fill="none" xmlns="http://www.w3.org/2000/svg"><path d="M2.815 6.278 C 2.331 6.393,2.098 7.004,2.383 7.408 C 2.448 7.499,2.572 7.610,2.660 7.656 L 2.820 7.740 11.880 7.751 C 18.373 7.758,21.001 7.749,21.154 7.717 C 21.902 7.562,21.929 6.473,21.189 6.286 C 20.978 6.233,3.036 6.225,2.815 6.278 M2.815 11.277 C 2.330 11.397,2.098 12.004,2.383 12.408 C 2.448 12.499,2.572 12.610,2.660 12.656 C 2.815 12.737,2.874 12.740,4.500 12.740 L 6.180 12.740 6.360 12.634 C 6.846 12.348,6.846 11.652,6.360 11.366 L 6.180 11.260 4.560 11.253 C 3.669 11.249,2.884 11.260,2.815 11.277 M9.334 11.278 C 8.677 11.435,8.543 12.307,9.126 12.640 L 9.300 12.740 15.120 12.751 C 19.259 12.758,21.002 12.749,21.154 12.717 C 21.904 12.561,21.931 11.473,21.189 11.286 C 20.978 11.233,9.555 11.226,9.334 11.278 M2.815 16.278 C 2.331 16.393,2.098 17.004,2.383 17.408 C 2.448 17.499,2.572 17.610,2.660 17.656 L 2.820 17.740 11.880 17.751 C 18.373 17.758,21.001 17.749,21.154 17.717 C 21.902 17.562,21.929 16.473,21.189 16.286 C 20.978 16.233,3.036 16.225,2.815 16.278 " stroke="none" fill-rule="evenodd" fill="black"></path></svg>