<svg width="24" height="24" viewBox="0 0 24 24" fill="none" xmlns="http://www.w3.org/2000/svg"><path d="M5.935 2.681 C 4.873 2.873,4.010 3.537,3.541 4.525 C 3.198 5.246,3.174 6.234,3.480 7.050 C 3.743 7.755,4.504 8.524,5.229 8.819 C 5.702 9.011,6.473 9.101,6.747 8.997 C 7.127 8.853,7.306 8.364,7.119 7.977 C 6.993 7.718,6.797 7.605,6.392 7.559 C 5.845 7.497,5.554 7.361,5.213 7.008 C 4.880 6.661,4.740 6.268,4.767 5.749 C 4.815 4.841,5.546 4.151,6.460 4.151 C 7.367 4.151,8.055 4.792,8.162 5.738 C 8.217 6.224,8.326 6.403,8.649 6.538 C 8.998 6.684,9.405 6.529,9.592 6.180 C 9.736 5.910,9.626 5.045,9.382 4.532 C 8.966 3.654,8.259 3.036,7.380 2.780 C 6.978 2.662,6.296 2.616,5.935 2.681 M17.100 2.666 C 15.989 2.845,15.103 3.509,14.621 4.525 C 14.278 5.246,14.254 6.234,14.560 7.050 C 14.822 7.752,15.588 8.526,16.309 8.819 C 17.029 9.111,18.051 9.111,18.771 8.819 C 19.492 8.526,20.258 7.752,20.520 7.050 C 20.737 6.472,20.793 5.720,20.665 5.121 C 20.544 4.557,20.180 3.932,19.730 3.516 C 19.116 2.947,18.491 2.689,17.660 2.661 C 17.418 2.653,17.166 2.655,17.100 2.666 M18.056 4.224 C 18.481 4.344,18.881 4.703,19.092 5.152 C 19.321 5.642,19.284 6.286,19.001 6.732 C 18.403 7.676,17.147 7.839,16.360 7.075 C 15.979 6.706,15.822 6.302,15.848 5.759 C 15.861 5.483,15.887 5.368,15.988 5.152 C 16.366 4.345,17.185 3.978,18.056 4.224 M5.742 15.026 C 4.958 15.194,4.226 15.710,3.760 16.423 C 3.417 16.949,3.272 17.459,3.272 18.140 C 3.271 18.677,3.352 19.077,3.541 19.475 C 3.973 20.386,4.701 20.994,5.680 21.264 C 6.041 21.364,6.879 21.364,7.240 21.264 C 8.219 20.994,8.947 20.386,9.379 19.475 C 9.722 18.754,9.746 17.766,9.440 16.950 C 9.178 16.248,8.412 15.474,7.691 15.181 C 7.159 14.965,6.333 14.899,5.742 15.026 M16.860 15.026 C 16.236 15.159,15.802 15.402,15.297 15.900 C 14.720 16.469,14.441 17.038,14.362 17.807 C 14.317 18.236,14.348 18.425,14.494 18.615 C 14.772 18.980,15.388 18.980,15.666 18.616 C 15.734 18.526,15.779 18.398,15.806 18.212 C 15.902 17.537,16.021 17.266,16.365 16.938 C 17.027 16.307,18.026 16.294,18.684 16.907 C 19.070 17.267,19.240 17.651,19.240 18.160 C 19.240 18.669,19.070 19.053,18.684 19.413 C 18.410 19.669,18.117 19.797,17.662 19.861 C 17.143 19.933,16.990 20.023,16.862 20.330 C 16.748 20.603,16.823 20.989,17.026 21.168 C 17.398 21.499,18.397 21.381,19.190 20.914 C 19.517 20.722,20.115 20.117,20.312 19.780 C 20.878 18.811,20.878 17.509,20.312 16.540 C 20.115 16.203,19.517 15.598,19.190 15.406 C 18.509 15.005,17.632 14.862,16.860 15.026 M6.895 16.500 C 7.459 16.647,7.939 17.115,8.103 17.676 C 8.149 17.833,8.164 18.002,8.152 18.241 C 8.081 19.747,6.227 20.410,5.200 19.295 C 4.729 18.784,4.624 18.000,4.942 17.360 C 5.052 17.138,5.372 16.808,5.614 16.666 C 5.982 16.450,6.464 16.388,6.895 16.500 " stroke="none" fill-rule="evenodd" fill="black"></path></svg>