<svg width="24" height="24" viewBox="0 0 24 24" fill="none" xmlns="http://www.w3.org/2000/svg"><path d="M10.432 1.374 C 10.294 1.436,10.127 1.592,10.061 1.720 C 10.033 1.775,9.944 2.099,9.863 2.440 C 9.781 2.781,9.706 3.090,9.696 3.126 C 9.679 3.185,9.535 3.193,8.329 3.211 C 6.841 3.232,6.713 3.249,6.180 3.501 C 5.487 3.829,4.963 4.384,4.689 5.080 C 4.642 5.201,4.006 7.217,3.276 9.560 C 2.287 12.735,1.949 13.873,1.946 14.029 C 1.943 14.198,1.965 14.269,2.062 14.409 C 2.199 14.607,2.470 14.760,2.678 14.759 C 2.981 14.757,3.303 14.520,3.395 14.231 C 3.418 14.159,4.023 12.210,4.741 9.900 C 5.458 7.590,6.078 5.628,6.117 5.540 C 6.235 5.277,6.498 5.016,6.791 4.871 L 7.058 4.740 8.189 4.728 C 9.106 4.718,9.316 4.725,9.302 4.768 C 9.270 4.866,8.995 6.019,8.958 6.216 C 8.909 6.468,8.965 6.677,9.131 6.866 C 9.420 7.196,9.913 7.208,10.205 6.893 C 10.362 6.724,10.372 6.696,10.619 5.670 L 10.848 4.720 13.404 4.720 C 15.102 4.720,15.960 4.734,15.960 4.760 C 15.960 4.783,15.888 5.136,15.800 5.545 C 15.712 5.954,15.640 6.345,15.641 6.414 C 15.642 6.574,15.761 6.834,15.885 6.947 C 16.184 7.221,16.721 7.163,16.977 6.828 C 17.058 6.722,17.121 6.497,17.290 5.718 L 17.502 4.740 18.821 4.740 L 20.140 4.740 20.367 4.846 C 20.685 4.995,20.936 5.241,21.090 5.554 C 21.210 5.798,21.220 5.848,21.218 6.199 C 21.216 6.564,21.145 6.864,19.510 13.406 C 18.344 18.075,17.772 20.298,17.700 20.440 C 17.560 20.716,17.308 20.961,17.018 21.103 L 16.780 21.220 9.800 21.220 L 2.820 21.220 2.595 21.110 C 2.317 20.973,2.029 20.671,1.887 20.369 C 1.774 20.128,1.763 19.960,1.805 19.117 C 1.819 18.843,1.810 18.800,1.714 18.654 C 1.581 18.453,1.362 18.341,1.100 18.341 C 0.542 18.341,0.270 18.792,0.268 19.720 C 0.267 20.395,0.425 20.901,0.815 21.473 C 1.308 22.197,2.058 22.627,2.995 22.722 C 3.289 22.751,6.167 22.761,12.320 22.752 L 21.220 22.740 21.534 22.650 C 22.394 22.406,23.120 21.785,23.480 20.985 C 23.654 20.598,23.720 20.264,23.719 19.777 C 23.718 19.050,22.734 5.776,22.661 5.500 C 22.411 4.555,21.739 3.783,20.860 3.431 C 20.420 3.254,20.259 3.235,19.027 3.212 L 17.834 3.190 17.860 3.088 C 17.973 2.637,18.077 2.020,18.055 1.929 C 17.932 1.405,17.385 1.157,16.933 1.422 C 16.696 1.561,16.633 1.705,16.457 2.511 L 16.307 3.200 13.759 3.200 L 11.211 3.200 11.329 2.730 C 11.462 2.197,11.479 1.912,11.389 1.739 C 11.308 1.584,11.129 1.416,10.987 1.363 C 10.842 1.308,10.570 1.313,10.432 1.374 M21.943 15.460 C 22.117 17.849,22.238 19.740,22.227 19.901 C 22.200 20.286,22.056 20.579,21.757 20.857 C 21.366 21.218,21.268 21.240,20.034 21.240 C 19.215 21.240,18.996 21.229,19.013 21.190 C 19.026 21.163,19.082 21.028,19.139 20.891 C 19.196 20.754,19.765 18.540,20.403 15.971 C 21.042 13.402,21.576 11.264,21.591 11.220 L 21.617 11.140 21.629 11.220 C 21.635 11.264,21.777 13.172,21.943 15.460 M7.620 11.259 C 7.598 11.267,7.531 11.284,7.471 11.297 C 7.324 11.329,7.081 11.548,7.014 11.708 C 6.891 12.002,6.971 12.336,7.215 12.550 C 7.295 12.621,7.411 12.693,7.471 12.709 C 7.613 12.749,15.787 12.749,15.929 12.709 C 16.081 12.667,16.321 12.447,16.386 12.292 C 16.497 12.027,16.441 11.711,16.247 11.506 C 15.998 11.242,16.322 11.261,11.780 11.253 C 9.514 11.249,7.642 11.252,7.620 11.259 M6.620 15.260 C 6.598 15.267,6.531 15.284,6.471 15.297 C 6.324 15.329,6.081 15.548,6.014 15.708 C 5.903 15.973,5.959 16.289,6.153 16.494 C 6.395 16.750,6.284 16.739,8.716 16.752 C 10.250 16.760,10.999 16.749,11.149 16.718 C 11.919 16.558,11.929 15.449,11.162 15.284 C 10.976 15.244,6.735 15.221,6.620 15.260 M13.815 15.276 C 13.328 15.401,13.098 16.004,13.383 16.408 C 13.582 16.689,13.732 16.740,14.360 16.740 C 14.948 16.740,15.038 16.715,15.247 16.494 C 15.381 16.353,15.440 16.201,15.440 16.000 C 15.440 15.716,15.286 15.471,15.020 15.329 C 14.885 15.257,14.034 15.219,13.815 15.276 " stroke="none" fill-rule="evenodd" fill="black"></path></svg>