<svg width="24" height="24" viewBox="0 0 24 24" fill="none" xmlns="http://www.w3.org/2000/svg"><path d="M7.312 1.283 C 3.951 1.476,1.926 3.182,1.399 6.266 C 1.251 7.132,1.235 8.028,1.249 14.820 C 1.261 20.749,1.268 21.357,1.328 21.526 C 1.466 21.915,1.724 22.242,2.072 22.468 C 2.523 22.760,1.934 22.736,9.180 22.751 C 15.974 22.765,16.867 22.749,17.734 22.601 C 19.952 22.222,21.451 21.074,22.214 19.170 C 22.492 18.476,22.659 17.624,22.719 16.589 C 22.775 15.629,22.772 12.101,22.716 11.838 C 22.575 11.182,21.713 11.051,21.353 11.631 L 21.260 11.780 21.237 14.440 C 21.212 17.280,21.209 17.327,20.993 18.115 C 20.585 19.605,19.605 20.585,18.115 20.993 C 17.243 21.232,17.766 21.217,9.997 21.230 C 3.089 21.242,2.892 21.240,2.826 21.167 C 2.763 21.096,2.759 20.629,2.770 13.996 C 2.783 6.317,2.772 6.743,2.985 5.960 C 3.422 4.357,4.356 3.422,5.960 2.985 C 6.735 2.774,6.545 2.780,12.000 2.780 C 16.716 2.780,17.086 2.785,17.440 2.852 C 18.617 3.077,19.341 3.418,19.969 4.046 C 20.759 4.836,21.154 5.937,21.237 7.580 C 21.265 8.149,21.281 8.252,21.357 8.376 C 21.612 8.787,22.182 8.858,22.520 8.520 C 22.731 8.309,22.759 8.143,22.715 7.362 C 22.608 5.436,22.061 4.024,21.018 2.982 C 19.966 1.929,18.578 1.396,16.589 1.281 C 15.787 1.235,8.129 1.236,7.312 1.283 M8.420 11.260 C 8.398 11.267,8.331 11.284,8.271 11.297 C 8.124 11.329,7.881 11.548,7.814 11.708 C 7.703 11.973,7.759 12.289,7.953 12.494 C 8.192 12.747,8.127 12.739,10.114 12.752 C 12.188 12.766,12.284 12.756,12.519 12.521 C 12.918 12.122,12.731 11.423,12.189 11.286 C 12.062 11.254,11.453 11.241,10.232 11.243 C 9.258 11.245,8.442 11.252,8.420 11.260 M14.420 11.258 C 14.398 11.266,14.331 11.284,14.271 11.297 C 14.124 11.329,13.881 11.548,13.814 11.708 C 13.691 12.002,13.771 12.336,14.015 12.550 C 14.095 12.621,14.211 12.693,14.271 12.709 C 14.331 12.726,14.659 12.740,15.000 12.740 C 15.341 12.740,15.669 12.726,15.729 12.709 C 15.881 12.667,16.121 12.447,16.186 12.292 C 16.297 12.027,16.241 11.711,16.047 11.506 C 15.840 11.287,15.752 11.264,15.080 11.252 C 14.739 11.247,14.442 11.249,14.420 11.258 " stroke="none" fill-rule="evenodd" fill="black"></path></svg>