<svg width="24" height="24" viewBox="0 0 24 24" fill="none" xmlns="http://www.w3.org/2000/svg"><path d="M10.180 1.283 C 8.241 1.408,6.823 2.169,6.029 3.512 C 5.771 3.948,5.627 4.310,5.481 4.889 C 5.414 5.156,5.355 5.377,5.349 5.380 C 5.344 5.383,5.187 5.418,5.000 5.456 C 3.061 5.858,1.735 7.275,1.379 9.323 C 1.298 9.791,1.237 10.751,1.278 10.930 C 1.392 11.436,1.937 11.682,2.377 11.424 C 2.654 11.262,2.724 11.084,2.762 10.447 C 2.803 9.751,2.854 9.442,3.001 8.986 C 3.330 7.970,3.936 7.356,4.944 7.018 C 5.640 6.784,5.530 6.789,9.720 6.771 C 12.453 6.760,13.696 6.768,13.977 6.801 C 14.549 6.866,15.079 7.012,15.512 7.223 C 16.148 7.532,16.647 8.102,16.921 8.830 C 17.200 9.574,17.254 10.344,17.228 13.247 C 17.204 15.973,17.167 16.283,16.764 17.100 C 16.196 18.251,15.141 18.777,13.300 18.826 C 12.471 18.849,12.177 18.913,11.871 19.140 C 11.744 19.233,11.443 19.596,10.961 20.238 C 10.565 20.765,10.206 21.215,10.163 21.238 C 10.041 21.304,9.900 21.288,9.782 21.194 C 9.722 21.147,9.380 20.720,9.023 20.244 C 8.666 19.769,8.304 19.319,8.219 19.244 C 8.133 19.169,7.946 19.053,7.802 18.985 C 7.543 18.864,7.531 18.862,6.660 18.834 C 5.676 18.802,5.235 18.756,4.774 18.639 C 3.618 18.344,3.073 17.651,2.839 16.180 C 2.815 16.026,2.781 15.603,2.763 15.239 C 2.730 14.545,2.700 14.426,2.513 14.252 C 2.391 14.137,2.155 14.040,2.000 14.040 C 1.845 14.040,1.609 14.137,1.487 14.252 C 1.368 14.363,1.298 14.499,1.264 14.688 C 1.229 14.883,1.307 16.114,1.383 16.554 C 1.657 18.146,2.303 19.147,3.423 19.715 C 4.210 20.114,4.966 20.265,6.420 20.314 L 7.220 20.340 7.860 21.189 C 8.637 22.219,8.809 22.399,9.196 22.591 C 9.462 22.723,9.529 22.739,9.880 22.753 C 10.166 22.765,10.332 22.751,10.505 22.701 C 11.032 22.549,11.236 22.360,12.066 21.257 L 12.771 20.320 13.247 20.320 C 15.596 20.320,17.299 19.430,18.107 17.780 C 18.290 17.407,18.485 16.827,18.561 16.432 L 18.605 16.205 18.832 16.160 C 20.029 15.922,21.057 15.315,21.678 14.479 C 22.235 13.728,22.550 12.846,22.678 11.672 C 22.778 10.748,22.714 10.398,22.405 10.183 C 22.065 9.948,21.592 10.032,21.370 10.368 C 21.275 10.511,21.262 10.580,21.233 11.073 C 21.133 12.758,20.612 13.791,19.595 14.320 C 19.286 14.481,18.879 14.640,18.776 14.640 C 18.736 14.640,18.722 14.137,18.708 12.170 C 18.692 9.876,18.685 9.671,18.609 9.291 C 18.173 7.124,16.903 5.826,14.803 5.401 C 14.107 5.260,13.543 5.241,10.192 5.240 L 6.924 5.240 6.986 5.030 C 7.290 4.006,7.953 3.335,8.997 2.998 C 9.735 2.759,9.822 2.755,14.205 2.771 C 17.836 2.783,18.206 2.791,18.480 2.855 C 20.341 3.294,21.098 4.311,21.233 6.550 C 21.264 7.056,21.271 7.086,21.386 7.230 C 21.541 7.424,21.733 7.520,21.967 7.520 C 22.302 7.520,22.510 7.391,22.644 7.100 C 22.765 6.839,22.740 6.147,22.577 5.224 C 22.395 4.199,21.932 3.292,21.254 2.637 C 20.386 1.798,19.305 1.382,17.733 1.280 C 17.040 1.235,10.884 1.237,10.180 1.283 M6.280 12.285 C 6.054 12.328,5.818 12.492,5.662 12.713 C 5.563 12.854,5.540 12.932,5.527 13.164 C 5.502 13.606,5.685 13.951,6.052 14.149 C 6.229 14.245,6.770 14.246,6.946 14.151 C 7.128 14.052,7.321 13.846,7.405 13.661 C 7.493 13.466,7.504 13.054,7.425 12.866 C 7.246 12.437,6.762 12.192,6.280 12.285 M9.789 12.283 C 9.283 12.405,8.960 12.844,9.012 13.340 C 9.113 14.328,10.426 14.579,10.892 13.700 C 11.004 13.489,11.012 13.045,10.908 12.836 C 10.703 12.423,10.212 12.181,9.789 12.283 M13.280 12.285 C 13.054 12.328,12.818 12.492,12.662 12.713 C 12.563 12.854,12.540 12.932,12.527 13.164 C 12.502 13.606,12.685 13.951,13.052 14.149 C 13.229 14.245,13.770 14.246,13.946 14.151 C 14.128 14.052,14.321 13.846,14.405 13.661 C 14.493 13.466,14.504 13.054,14.425 12.866 C 14.246 12.437,13.762 12.192,13.280 12.285 " stroke="none" fill-rule="evenodd" fill="black"></path></svg>