<svg width="24" height="24" viewBox="0 0 24 24" fill="none" xmlns="http://www.w3.org/2000/svg"><path d="M9.420 1.259 C 9.398 1.267,9.331 1.284,9.271 1.297 C 9.124 1.329,8.881 1.548,8.814 1.708 C 8.703 1.973,8.759 2.289,8.953 2.494 C 9.143 2.695,9.254 2.727,9.890 2.764 C 11.197 2.842,12.370 3.224,13.420 3.914 C 14.801 4.822,15.780 6.244,16.126 7.842 C 16.245 8.394,16.256 9.509,16.147 10.054 C 15.758 11.999,14.474 13.627,12.625 14.519 C 11.692 14.969,10.579 15.238,9.647 15.240 C 9.163 15.240,9.112 15.281,8.205 16.380 C 7.762 16.916,7.362 17.367,7.316 17.381 C 7.131 17.440,7.051 17.308,6.376 15.819 C 6.017 15.027,5.691 14.319,5.653 14.245 C 5.613 14.170,5.439 14.003,5.261 13.869 C 4.838 13.551,4.159 12.859,3.865 12.447 C 3.402 11.797,3.031 10.943,2.853 10.119 C 2.750 9.639,2.749 8.364,2.852 7.880 C 3.161 6.434,3.926 5.205,5.100 4.271 C 5.578 3.891,5.680 3.745,5.680 3.444 C 5.680 2.958,5.223 2.595,4.766 2.718 C 4.454 2.802,3.568 3.555,3.046 4.180 C 1.342 6.219,0.822 8.869,1.641 11.331 C 2.088 12.674,2.939 13.894,4.098 14.853 L 4.416 15.116 5.038 16.489 C 5.380 17.244,5.708 17.943,5.767 18.042 C 5.898 18.264,6.213 18.564,6.433 18.676 C 7.099 19.016,7.890 18.912,8.444 18.412 L 8.598 18.272 8.869 18.509 C 10.215 19.687,11.833 20.380,13.665 20.562 L 14.149 20.610 14.855 21.457 C 15.614 22.367,15.816 22.544,16.232 22.665 C 16.523 22.750,16.966 22.751,17.247 22.667 C 17.548 22.577,17.944 22.306,18.126 22.064 C 18.209 21.954,18.568 21.220,18.942 20.395 C 19.567 19.019,19.621 18.917,19.767 18.820 C 19.994 18.670,20.770 17.909,21.047 17.565 C 22.111 16.242,22.697 14.692,22.728 13.113 C 22.738 12.617,22.708 12.516,22.494 12.313 C 22.217 12.051,21.783 12.051,21.506 12.313 C 21.312 12.497,21.275 12.617,21.237 13.184 C 21.198 13.768,21.104 14.260,20.938 14.745 C 20.783 15.199,20.389 15.953,20.109 16.333 C 19.819 16.727,19.237 17.332,18.880 17.611 C 18.377 18.004,18.414 17.943,17.656 19.609 C 16.904 21.261,16.879 21.302,16.661 21.217 C 16.608 21.197,16.206 20.746,15.766 20.216 C 14.889 19.156,14.844 19.120,14.423 19.120 C 13.785 19.120,12.776 18.941,12.123 18.713 C 11.304 18.426,10.404 17.896,9.850 17.374 L 9.559 17.100 9.710 16.928 L 9.860 16.755 10.300 16.716 C 13.874 16.393,16.843 13.896,17.574 10.597 C 17.775 9.691,17.804 8.734,17.659 7.840 C 17.624 7.631,17.586 7.416,17.572 7.363 C 17.549 7.270,17.560 7.272,17.864 7.439 C 18.448 7.758,18.894 8.094,19.442 8.628 C 19.739 8.918,20.033 9.175,20.094 9.198 C 20.575 9.381,21.088 9.023,21.093 8.501 C 21.096 8.236,21.020 8.102,20.647 7.710 C 19.755 6.772,18.547 6.005,17.306 5.587 L 16.803 5.418 16.602 5.088 C 15.745 3.677,14.314 2.497,12.660 1.840 C 11.989 1.573,11.011 1.348,10.320 1.301 C 9.580 1.251,9.459 1.245,9.420 1.259 M6.815 8.278 C 6.331 8.393,6.098 9.004,6.383 9.408 C 6.447 9.499,6.572 9.610,6.660 9.656 C 6.817 9.738,6.873 9.740,9.377 9.751 C 11.157 9.759,11.999 9.749,12.150 9.718 C 12.902 9.562,12.931 8.473,12.189 8.286 C 11.980 8.234,7.032 8.226,6.815 8.278 " stroke="none" fill-rule="evenodd" fill="black"></path></svg>