<svg width="24" height="24" viewBox="0 0 24 24" fill="none" xmlns="http://www.w3.org/2000/svg"><path d="M7.312 1.283 C 3.951 1.476,1.926 3.182,1.399 6.266 C 1.251 7.132,1.235 8.028,1.249 14.820 C 1.261 20.749,1.268 21.357,1.328 21.526 C 1.466 21.915,1.724 22.242,2.072 22.468 C 2.523 22.760,1.934 22.736,9.180 22.751 C 15.974 22.765,16.867 22.749,17.734 22.601 C 19.952 22.222,21.451 21.074,22.214 19.170 C 22.492 18.476,22.659 17.624,22.719 16.589 C 22.775 15.629,22.772 12.101,22.716 11.838 C 22.575 11.182,21.713 11.051,21.353 11.631 L 21.260 11.780 21.237 14.440 C 21.212 17.280,21.209 17.327,20.993 18.115 C 20.585 19.605,19.605 20.585,18.115 20.993 C 17.243 21.232,17.766 21.217,9.997 21.230 C 3.089 21.242,2.892 21.240,2.826 21.167 C 2.763 21.096,2.759 20.629,2.770 13.996 C 2.783 6.317,2.772 6.743,2.985 5.960 C 3.422 4.357,4.356 3.422,5.960 2.985 C 6.735 2.774,6.545 2.780,12.000 2.780 C 16.716 2.780,17.086 2.785,17.440 2.852 C 18.617 3.077,19.341 3.418,19.969 4.046 C 20.759 4.836,21.154 5.937,21.237 7.580 C 21.265 8.149,21.281 8.252,21.357 8.376 C 21.612 8.787,22.182 8.858,22.520 8.520 C 22.731 8.309,22.759 8.143,22.715 7.362 C 22.608 5.436,22.061 4.024,21.018 2.982 C 19.966 1.929,18.578 1.396,16.589 1.281 C 15.787 1.235,8.129 1.236,7.312 1.283 M14.221 6.287 C 13.720 6.355,13.284 6.560,12.791 6.957 C 12.631 7.086,11.256 8.440,9.736 9.966 C 7.775 11.934,6.940 12.798,6.863 12.940 C 6.661 13.310,6.568 13.681,6.417 14.720 C 6.241 15.930,6.228 16.358,6.355 16.686 C 6.525 17.124,6.883 17.481,7.314 17.642 C 7.704 17.788,7.952 17.783,9.214 17.602 C 11.011 17.344,10.938 17.382,12.373 15.962 C 12.964 15.378,13.493 14.822,13.549 14.727 C 13.726 14.427,13.677 14.039,13.433 13.812 C 13.311 13.697,13.075 13.600,12.920 13.600 C 12.653 13.600,12.510 13.714,11.420 14.798 C 10.402 15.809,10.327 15.875,10.120 15.936 C 9.752 16.044,7.926 16.286,7.837 16.238 C 7.730 16.181,7.736 16.060,7.903 14.898 C 7.997 14.245,8.071 13.856,8.120 13.762 C 8.161 13.684,9.029 12.787,10.049 11.769 L 11.903 9.918 12.129 10.269 C 12.784 11.284,13.826 12.095,14.944 12.460 C 15.296 12.575,15.551 12.587,15.740 12.497 C 15.934 12.405,17.030 11.270,17.257 10.926 C 17.563 10.463,17.688 10.100,17.711 9.606 C 17.723 9.351,17.712 9.105,17.681 8.966 C 17.564 8.428,17.107 7.696,16.587 7.212 C 15.819 6.496,15.007 6.179,14.221 6.287 M15.003 7.888 C 15.354 8.063,15.937 8.646,16.112 8.997 C 16.374 9.521,16.251 9.899,15.599 10.575 L 15.210 10.978 15.005 10.882 C 14.254 10.531,13.428 9.699,13.101 8.965 L 13.024 8.791 13.422 8.403 C 14.091 7.751,14.478 7.625,15.003 7.888 " stroke="none" fill-rule="evenodd" fill="black"></path></svg>