<svg width="24" height="24" viewBox="0 0 24 24" fill="none" xmlns="http://www.w3.org/2000/svg"><path d="M11.560 1.267 C 10.326 1.322,9.152 1.571,8.041 2.012 C 7.427 2.256,7.240 2.454,7.240 2.860 C 7.240 3.229,7.525 3.548,7.892 3.589 C 8.032 3.605,8.152 3.574,8.523 3.428 C 9.718 2.955,10.735 2.760,12.006 2.760 C 13.464 2.760,14.754 3.058,16.060 3.698 C 17.024 4.170,17.648 4.611,18.434 5.378 C 19.273 6.195,19.814 6.937,20.303 7.940 C 20.944 9.253,21.240 10.537,21.240 12.000 C 21.240 13.465,20.943 14.752,20.302 16.060 C 19.830 17.024,19.389 17.648,18.622 18.434 C 17.805 19.273,17.063 19.814,16.060 20.303 C 14.747 20.944,13.463 21.240,12.000 21.240 C 10.537 21.240,9.253 20.944,7.940 20.303 C 6.937 19.814,6.195 19.273,5.378 18.434 C 4.611 17.648,4.170 17.024,3.698 16.060 C 3.058 14.754,2.760 13.464,2.760 12.005 C 2.760 10.060,3.331 8.256,4.457 6.648 C 4.701 6.298,4.770 6.095,4.724 5.855 C 4.656 5.497,4.372 5.267,4.000 5.267 C 3.678 5.267,3.534 5.369,3.222 5.816 C 1.432 8.383,0.834 11.537,1.564 14.550 C 1.904 15.951,2.529 17.268,3.424 18.470 C 3.880 19.083,4.909 20.111,5.530 20.575 C 7.606 22.126,10.070 22.870,12.627 22.717 C 14.790 22.588,16.724 21.879,18.470 20.575 C 19.087 20.115,20.115 19.087,20.575 18.470 C 22.127 16.391,22.870 13.930,22.717 11.373 C 22.588 9.210,21.879 7.276,20.575 5.530 C 20.115 4.913,19.087 3.885,18.470 3.425 C 17.047 2.362,15.454 1.679,13.742 1.398 C 13.325 1.330,12.055 1.227,11.880 1.248 C 11.847 1.252,11.703 1.261,11.560 1.267 M9.080 6.339 C 8.606 6.410,8.269 6.505,7.926 6.663 C 6.960 7.109,6.374 7.881,6.110 9.056 C 6.023 9.447,6.020 9.526,6.020 11.520 C 6.020 13.360,6.028 13.623,6.095 13.980 C 6.313 15.153,6.778 15.869,7.585 16.274 C 8.098 16.532,8.584 16.637,9.413 16.668 L 10.047 16.692 10.457 17.236 C 11.119 18.114,11.381 18.293,12.000 18.293 C 12.619 18.293,12.881 18.114,13.543 17.236 L 13.954 16.691 14.447 16.670 C 15.980 16.605,17.053 15.964,17.601 14.785 C 17.953 14.028,18.013 13.464,17.989 11.160 C 17.973 9.596,17.963 9.384,17.890 9.060 C 17.536 7.493,16.538 6.581,14.915 6.343 C 14.561 6.291,14.063 6.281,11.955 6.284 C 10.134 6.288,9.324 6.303,9.080 6.339 M15.006 7.869 C 15.818 8.096,16.238 8.533,16.425 9.344 C 16.509 9.707,16.551 12.445,16.483 13.140 C 16.390 14.099,16.113 14.609,15.517 14.918 C 15.178 15.094,14.845 15.163,14.162 15.200 C 13.524 15.233,13.349 15.270,13.140 15.415 C 12.988 15.521,12.964 15.548,12.453 16.210 C 12.219 16.512,12.015 16.760,11.999 16.760 C 11.984 16.760,11.804 16.540,11.599 16.270 C 10.847 15.278,10.797 15.250,9.700 15.198 C 8.358 15.133,7.948 14.938,7.691 14.240 C 7.517 13.767,7.500 13.525,7.502 11.500 C 7.504 9.669,7.508 9.566,7.588 9.277 C 7.766 8.642,8.040 8.269,8.487 8.054 C 9.064 7.777,9.199 7.767,12.160 7.776 C 14.623 7.783,14.709 7.786,15.006 7.869 " stroke="none" fill-rule="evenodd" fill="black"></path></svg>