<svg width="24" height="24" viewBox="0 0 24 24" fill="none" xmlns="http://www.w3.org/2000/svg"><path d="M6.720 1.301 C 6.104 1.379,5.706 1.464,5.223 1.620 C 3.362 2.223,2.127 3.502,1.585 5.390 C 1.278 6.460,1.226 7.360,1.251 11.173 C 1.270 14.226,1.289 14.568,1.484 15.519 C 1.887 17.484,2.906 18.723,4.577 19.279 C 5.396 19.551,6.241 19.670,7.620 19.706 C 8.303 19.723,8.563 19.744,8.629 19.785 C 8.678 19.816,9.096 20.342,9.557 20.954 C 10.030 21.584,10.478 22.138,10.587 22.229 C 11.023 22.592,11.470 22.760,12.000 22.760 C 12.591 22.760,13.100 22.542,13.543 22.098 C 13.852 21.789,13.931 21.642,13.931 21.377 C 13.931 20.637,13.039 20.370,12.559 20.967 C 12.413 21.149,12.174 21.280,11.992 21.279 C 11.705 21.278,11.583 21.156,10.720 20.011 C 10.269 19.413,9.837 18.858,9.760 18.779 C 9.392 18.401,8.964 18.240,8.326 18.240 C 7.586 18.239,6.409 18.160,5.932 18.079 C 4.857 17.895,4.112 17.513,3.662 16.914 C 3.179 16.272,2.912 15.431,2.800 14.200 C 2.737 13.513,2.767 6.915,2.835 6.600 C 2.960 6.015,3.065 5.632,3.181 5.335 C 3.721 3.958,4.801 3.151,6.534 2.830 L 7.020 2.740 12.000 2.740 L 16.980 2.740 17.466 2.830 C 19.438 3.195,20.576 4.196,21.021 5.959 C 21.216 6.727,21.214 6.689,21.237 10.020 C 21.258 12.858,21.267 13.192,21.326 13.300 C 21.462 13.546,21.747 13.721,22.009 13.719 C 22.292 13.717,22.638 13.465,22.710 13.207 C 22.765 13.011,22.745 7.307,22.687 6.840 C 22.470 5.067,21.969 3.902,21.014 2.947 C 20.079 2.011,18.794 1.463,17.112 1.282 C 16.502 1.216,7.260 1.234,6.720 1.301 M7.689 10.059 C 7.454 10.132,7.263 10.287,7.131 10.511 C 7.036 10.672,7.020 10.744,7.020 11.000 C 7.020 11.257,7.036 11.327,7.133 11.492 C 7.625 12.329,8.898 12.046,8.991 11.078 C 9.033 10.640,8.729 10.185,8.310 10.061 C 8.065 9.988,7.917 9.987,7.689 10.059 M11.689 10.059 C 11.454 10.132,11.263 10.287,11.131 10.511 C 11.036 10.672,11.020 10.744,11.020 11.000 C 11.020 11.257,11.036 11.327,11.133 11.492 C 11.625 12.329,12.898 12.046,12.991 11.078 C 13.033 10.640,12.729 10.185,12.310 10.061 C 12.065 9.988,11.917 9.987,11.689 10.059 M15.689 10.056 C 15.452 10.134,15.262 10.289,15.131 10.511 C 15.036 10.672,15.020 10.744,15.020 11.000 C 15.020 11.255,15.036 11.328,15.129 11.486 C 15.353 11.867,15.792 12.059,16.217 11.964 C 16.929 11.805,17.232 10.975,16.789 10.394 C 16.549 10.080,16.069 9.932,15.689 10.056 M17.762 14.284 C 16.873 14.382,16.063 14.773,15.418 15.418 C 14.259 16.577,13.946 18.258,14.601 19.806 C 14.861 20.422,15.449 21.114,16.034 21.496 C 17.279 22.306,18.980 22.347,20.203 21.594 L 20.405 21.470 21.012 22.070 C 21.562 22.612,21.638 22.673,21.810 22.710 C 22.388 22.833,22.833 22.388,22.710 21.810 C 22.673 21.638,22.612 21.562,22.070 21.012 L 21.470 20.405 21.594 20.203 C 21.970 19.593,22.222 18.534,22.113 18.023 C 22.007 17.527,21.387 17.296,20.966 17.596 C 20.756 17.745,20.683 17.914,20.640 18.346 C 20.593 18.826,20.551 18.979,20.370 19.340 C 20.273 19.532,20.133 19.716,19.925 19.925 C 19.432 20.417,18.896 20.639,18.200 20.639 C 17.504 20.639,16.968 20.417,16.475 19.925 C 15.983 19.432,15.761 18.896,15.761 18.200 C 15.761 17.504,15.983 16.968,16.475 16.475 C 16.910 16.041,17.507 15.763,18.008 15.761 C 18.497 15.759,18.835 15.542,18.911 15.183 C 18.986 14.835,18.833 14.482,18.550 14.347 C 18.361 14.258,18.154 14.241,17.762 14.284 " stroke="none" fill-rule="evenodd" fill="black"></path></svg>