<svg width="24" height="24" viewBox="0 0 24 24" fill="none" xmlns="http://www.w3.org/2000/svg"><path d="M7.312 1.283 C 3.951 1.476,1.926 3.182,1.399 6.266 C 1.251 7.132,1.235 8.028,1.249 14.820 C 1.261 20.749,1.268 21.357,1.328 21.526 C 1.466 21.915,1.724 22.242,2.072 22.468 C 2.523 22.760,1.934 22.736,9.180 22.751 C 15.974 22.765,16.867 22.749,17.734 22.601 C 19.952 22.222,21.451 21.074,22.214 19.170 C 22.492 18.476,22.659 17.624,22.719 16.589 C 22.775 15.629,22.772 12.101,22.716 11.838 C 22.575 11.182,21.713 11.051,21.353 11.631 L 21.260 11.780 21.237 14.440 C 21.212 17.280,21.209 17.327,20.993 18.115 C 20.585 19.605,19.605 20.585,18.115 20.993 C 17.243 21.232,17.766 21.217,9.997 21.230 C 3.089 21.242,2.892 21.240,2.826 21.167 C 2.763 21.096,2.759 20.629,2.770 13.996 C 2.783 6.317,2.772 6.743,2.985 5.960 C 3.422 4.357,4.356 3.422,5.960 2.985 C 6.735 2.774,6.545 2.780,12.000 2.780 C 16.716 2.780,17.086 2.785,17.440 2.852 C 18.617 3.077,19.341 3.418,19.969 4.046 C 20.759 4.836,21.154 5.937,21.237 7.580 C 21.265 8.149,21.281 8.252,21.357 8.376 C 21.612 8.787,22.182 8.858,22.520 8.520 C 22.731 8.309,22.759 8.143,22.715 7.362 C 22.608 5.436,22.061 4.024,21.018 2.982 C 19.966 1.929,18.578 1.396,16.589 1.281 C 15.787 1.235,8.129 1.236,7.312 1.283 M6.720 8.805 C 6.458 8.909,6.269 9.200,6.269 9.500 C 6.269 9.807,6.460 10.095,6.733 10.197 C 6.808 10.226,7.722 10.240,9.500 10.240 C 11.278 10.240,12.192 10.226,12.267 10.197 C 12.540 10.095,12.731 9.807,12.731 9.500 C 12.731 9.193,12.540 8.905,12.267 8.803 C 12.118 8.746,6.862 8.748,6.720 8.805 M14.720 8.805 C 14.458 8.909,14.269 9.200,14.269 9.500 C 14.269 9.807,14.460 10.095,14.733 10.197 C 14.803 10.224,15.281 10.240,16.000 10.240 C 16.719 10.240,17.197 10.224,17.267 10.197 C 17.540 10.095,17.731 9.807,17.731 9.500 C 17.731 9.193,17.540 8.905,17.267 8.803 C 17.122 8.748,14.859 8.750,14.720 8.805 M6.720 13.805 C 6.458 13.909,6.269 14.200,6.269 14.500 C 6.269 14.807,6.460 15.095,6.733 15.197 C 6.809 15.226,8.015 15.240,10.500 15.240 C 12.985 15.240,14.191 15.226,14.267 15.197 C 14.540 15.095,14.731 14.807,14.731 14.500 C 14.731 14.193,14.540 13.905,14.267 13.803 C 14.117 13.746,6.863 13.748,6.720 13.805 " stroke="none" fill-rule="evenodd" fill="black"></path></svg>