<svg width="24" height="24" viewBox="0 0 24 24" fill="none" xmlns="http://www.w3.org/2000/svg"><path d="M7.312 1.283 C 3.953 1.476,1.926 3.183,1.400 6.262 C 1.307 6.805,1.233 7.971,1.278 8.173 C 1.316 8.341,1.441 8.525,1.576 8.614 C 1.829 8.779,2.222 8.764,2.464 8.580 C 2.680 8.415,2.727 8.254,2.764 7.553 C 2.851 5.906,3.238 4.839,4.039 4.039 C 4.658 3.419,5.388 3.076,6.560 2.852 C 6.914 2.785,7.284 2.780,12.000 2.780 C 17.455 2.780,17.265 2.774,18.040 2.985 C 19.610 3.413,20.575 4.361,20.993 5.885 C 21.224 6.728,21.220 6.638,21.220 10.500 C 21.220 14.362,21.224 14.272,20.993 15.115 C 20.646 16.382,19.868 17.302,18.748 17.771 C 17.996 18.086,17.392 18.194,16.140 18.239 C 15.063 18.277,14.919 18.306,14.529 18.557 C 14.312 18.697,14.189 18.842,13.444 19.834 C 12.982 20.450,12.541 21.016,12.464 21.093 C 12.218 21.339,11.942 21.374,11.653 21.196 C 11.568 21.143,11.180 20.664,10.623 19.923 C 9.658 18.641,9.604 18.587,9.068 18.368 C 8.831 18.271,8.770 18.265,7.680 18.235 C 5.960 18.188,5.284 18.061,4.440 17.624 C 4.125 17.461,3.577 16.893,3.393 16.540 C 2.939 15.665,2.760 14.652,2.760 12.958 C 2.760 11.872,2.731 11.691,2.522 11.482 C 2.173 11.133,1.618 11.203,1.353 11.631 C 1.271 11.764,1.259 11.839,1.246 12.343 C 1.229 13.008,1.299 14.375,1.379 14.940 C 1.741 17.498,2.901 18.913,5.080 19.456 C 5.734 19.618,6.252 19.678,7.420 19.724 C 8.014 19.748,8.538 19.774,8.584 19.783 C 8.639 19.793,8.973 20.205,9.549 20.970 C 10.191 21.825,10.488 22.187,10.645 22.307 C 11.507 22.965,12.493 22.966,13.355 22.307 C 13.511 22.188,13.811 21.821,14.460 20.959 L 15.350 19.776 16.325 19.728 C 17.353 19.677,17.947 19.594,18.560 19.418 C 20.545 18.847,21.847 17.545,22.418 15.561 C 22.573 15.021,22.674 14.357,22.719 13.589 C 22.771 12.696,22.771 8.304,22.719 7.411 C 22.604 5.422,22.071 4.034,21.018 2.982 C 19.966 1.929,18.578 1.396,16.589 1.281 C 15.787 1.235,8.129 1.236,7.312 1.283 M6.815 7.277 C 6.330 7.395,6.098 8.004,6.383 8.408 C 6.447 8.499,6.572 8.610,6.660 8.656 C 6.818 8.739,6.856 8.740,9.760 8.740 L 12.700 8.740 12.880 8.634 C 13.366 8.348,13.366 7.652,12.880 7.366 L 12.700 7.260 9.820 7.253 C 8.236 7.250,6.884 7.261,6.815 7.277 M15.805 7.280 C 15.547 7.341,15.307 7.597,15.257 7.864 C 15.185 8.245,15.441 8.633,15.823 8.722 C 16.043 8.773,16.915 8.769,17.162 8.716 C 17.905 8.556,17.925 7.472,17.189 7.286 C 16.984 7.235,16.015 7.230,15.805 7.280 M6.815 12.278 C 6.331 12.393,6.098 13.004,6.383 13.408 C 6.447 13.499,6.572 13.610,6.660 13.656 C 6.818 13.739,6.865 13.740,9.878 13.751 C 12.020 13.759,13.000 13.749,13.151 13.718 C 13.902 13.562,13.931 12.473,13.189 12.286 C 12.979 12.234,7.033 12.226,6.815 12.278 " stroke="none" fill-rule="evenodd" fill="black"></path></svg>