<svg width="24" height="24" viewBox="0 0 24 24" fill="none" xmlns="http://www.w3.org/2000/svg"><path d="M7.312 1.283 C 3.953 1.476,1.926 3.183,1.400 6.262 C 1.307 6.805,1.233 7.971,1.278 8.173 C 1.316 8.341,1.441 8.525,1.576 8.614 C 1.829 8.779,2.222 8.764,2.464 8.580 C 2.680 8.415,2.727 8.254,2.764 7.553 C 2.851 5.906,3.238 4.839,4.039 4.039 C 4.658 3.419,5.388 3.076,6.560 2.852 C 6.914 2.785,7.284 2.780,12.000 2.780 C 17.455 2.780,17.265 2.774,18.040 2.985 C 19.610 3.413,20.575 4.361,20.993 5.885 C 21.224 6.728,21.220 6.638,21.220 10.500 C 21.220 14.362,21.224 14.272,20.993 15.115 C 20.646 16.382,19.868 17.302,18.748 17.771 C 17.996 18.086,17.392 18.194,16.140 18.239 C 15.063 18.277,14.919 18.306,14.529 18.557 C 14.312 18.697,14.189 18.842,13.444 19.834 C 12.982 20.450,12.541 21.016,12.464 21.093 C 12.218 21.339,11.942 21.374,11.653 21.196 C 11.568 21.143,11.180 20.664,10.623 19.923 C 9.658 18.641,9.604 18.587,9.068 18.368 C 8.831 18.271,8.770 18.265,7.680 18.235 C 5.960 18.188,5.284 18.061,4.440 17.624 C 4.125 17.461,3.577 16.893,3.393 16.540 C 2.939 15.665,2.760 14.652,2.760 12.958 C 2.760 11.872,2.731 11.691,2.522 11.482 C 2.173 11.133,1.618 11.203,1.353 11.631 C 1.271 11.764,1.259 11.839,1.246 12.343 C 1.229 13.008,1.299 14.375,1.379 14.940 C 1.741 17.498,2.901 18.913,5.080 19.456 C 5.734 19.618,6.252 19.678,7.420 19.724 C 8.014 19.748,8.538 19.774,8.584 19.783 C 8.639 19.793,8.973 20.205,9.549 20.970 C 10.191 21.825,10.488 22.187,10.645 22.307 C 11.507 22.965,12.493 22.966,13.355 22.307 C 13.511 22.188,13.811 21.821,14.460 20.959 L 15.350 19.776 16.325 19.728 C 17.353 19.677,17.947 19.594,18.560 19.418 C 20.545 18.847,21.847 17.545,22.418 15.561 C 22.573 15.021,22.674 14.357,22.719 13.589 C 22.771 12.696,22.771 8.304,22.719 7.411 C 22.604 5.422,22.071 4.034,21.018 2.982 C 19.966 1.929,18.578 1.396,16.589 1.281 C 15.787 1.235,8.129 1.236,7.312 1.283 M7.689 10.059 C 7.454 10.132,7.263 10.287,7.131 10.511 C 7.036 10.672,7.020 10.744,7.020 11.000 C 7.020 11.257,7.036 11.327,7.133 11.492 C 7.625 12.329,8.898 12.046,8.991 11.078 C 9.033 10.640,8.729 10.185,8.310 10.061 C 8.065 9.988,7.917 9.987,7.689 10.059 M11.689 10.059 C 11.454 10.132,11.263 10.287,11.131 10.511 C 11.036 10.672,11.020 10.744,11.020 11.000 C 11.020 11.257,11.036 11.327,11.133 11.492 C 11.625 12.329,12.898 12.046,12.991 11.078 C 13.033 10.640,12.729 10.185,12.310 10.061 C 12.065 9.988,11.917 9.987,11.689 10.059 M15.689 10.056 C 15.452 10.134,15.262 10.289,15.131 10.511 C 15.036 10.672,15.020 10.744,15.020 11.000 C 15.020 11.255,15.036 11.328,15.129 11.486 C 15.353 11.867,15.792 12.059,16.217 11.964 C 16.929 11.805,17.232 10.975,16.789 10.394 C 16.549 10.080,16.069 9.932,15.689 10.056 " stroke="none" fill-rule="evenodd" fill="black"></path></svg>