<svg width="24" height="24" viewBox="0 0 24 24" fill="none" xmlns="http://www.w3.org/2000/svg"><path d="M6.300 1.725 C 5.339 1.814,4.364 2.154,3.591 2.667 C 3.431 2.773,3.125 3.029,2.911 3.235 C 2.146 3.972,1.633 4.927,1.402 6.041 C 1.303 6.515,1.235 7.380,1.280 7.581 C 1.427 8.232,2.294 8.380,2.627 7.812 C 2.711 7.669,2.732 7.564,2.762 7.132 C 2.804 6.543,2.846 6.305,2.985 5.863 C 3.168 5.286,3.431 4.845,3.856 4.406 C 4.465 3.775,5.134 3.428,6.080 3.251 C 6.432 3.185,6.866 3.180,12.000 3.180 C 17.134 3.180,17.568 3.185,17.920 3.251 C 18.866 3.428,19.535 3.775,20.144 4.406 C 20.659 4.938,20.934 5.463,21.149 6.320 C 21.206 6.549,21.216 7.021,21.229 10.220 C 21.239 12.704,21.230 13.965,21.200 14.191 C 21.065 15.219,20.576 16.137,19.832 16.759 C 19.174 17.310,18.091 17.680,17.136 17.680 C 16.746 17.680,16.483 17.817,16.326 18.100 C 16.270 18.203,16.258 18.396,16.247 19.440 C 16.233 20.796,16.228 20.822,15.981 20.792 C 15.905 20.782,15.033 20.225,13.623 19.283 C 12.392 18.462,11.326 17.765,11.254 17.735 C 11.148 17.691,10.687 17.680,8.864 17.680 C 7.506 17.680,6.481 17.663,6.293 17.638 C 4.761 17.431,3.590 16.559,3.066 15.234 C 2.813 14.595,2.792 14.426,2.765 12.840 C 2.737 11.187,2.734 11.174,2.408 10.943 C 2.270 10.846,2.203 10.827,2.003 10.827 C 1.718 10.827,1.506 10.945,1.355 11.187 C 1.263 11.335,1.260 11.372,1.247 12.272 C 1.232 13.304,1.286 14.276,1.383 14.749 C 1.884 17.182,3.628 18.786,6.133 19.118 C 6.316 19.143,7.339 19.160,8.602 19.160 L 10.758 19.160 12.929 20.607 C 14.123 21.402,15.190 22.094,15.300 22.145 C 16.335 22.617,17.555 21.945,17.719 20.813 C 17.741 20.663,17.759 20.223,17.759 19.835 L 17.760 19.129 17.990 19.101 C 19.154 18.958,20.325 18.391,21.142 17.576 C 22.085 16.635,22.610 15.408,22.719 13.892 C 22.771 13.174,22.771 7.705,22.719 6.986 C 22.653 6.066,22.462 5.320,22.117 4.633 C 21.267 2.942,19.667 1.906,17.620 1.720 C 17.083 1.671,6.825 1.675,6.300 1.725 M8.180 9.835 C 7.990 9.923,7.904 10.012,7.822 10.210 C 7.708 10.483,7.783 10.869,7.986 11.048 C 8.207 11.245,8.103 11.240,12.009 11.239 C 15.466 11.238,15.668 11.234,15.820 11.165 C 16.010 11.077,16.096 10.988,16.178 10.790 C 16.257 10.602,16.257 10.398,16.178 10.210 C 16.096 10.012,16.010 9.923,15.820 9.835 C 15.668 9.766,15.467 9.762,12.000 9.762 C 8.533 9.762,8.332 9.766,8.180 9.835 " stroke="none" fill-rule="evenodd" fill="black"></path></svg>