<svg width="24" height="24" viewBox="0 0 24 24" fill="none" xmlns="http://www.w3.org/2000/svg"><path d="M6.300 1.725 C 5.339 1.814,4.364 2.154,3.591 2.667 C 3.431 2.773,3.125 3.029,2.911 3.235 C 1.933 4.178,1.386 5.433,1.279 6.980 C 1.229 7.696,1.231 13.296,1.281 13.950 L 1.321 14.481 1.101 14.803 C 0.707 15.378,0.429 16.068,0.316 16.754 C 0.250 17.155,0.260 17.967,0.335 18.363 C 0.597 19.743,1.452 20.924,2.713 21.645 C 4.004 22.383,5.663 22.435,7.033 21.779 C 8.034 21.300,8.775 20.558,9.266 19.543 L 9.451 19.160 10.096 19.160 L 10.742 19.160 12.989 20.658 C 14.528 21.684,15.298 22.174,15.433 22.214 C 16.132 22.422,16.727 22.278,17.223 21.783 C 17.668 21.338,17.758 21.011,17.759 19.835 L 17.760 19.129 17.990 19.102 C 18.360 19.058,18.964 18.898,19.366 18.738 C 20.813 18.163,21.912 17.006,22.397 15.547 C 22.685 14.684,22.776 13.834,22.753 12.260 C 22.739 11.260,22.730 11.216,22.494 10.993 C 22.217 10.731,21.783 10.731,21.506 10.993 C 21.260 11.225,21.263 11.207,21.236 12.820 C 21.213 14.150,21.202 14.334,21.125 14.634 C 20.656 16.466,19.290 17.559,17.340 17.664 C 16.832 17.691,16.685 17.728,16.518 17.868 C 16.264 18.081,16.261 18.100,16.247 19.440 C 16.233 20.796,16.228 20.822,15.981 20.792 C 15.905 20.782,15.033 20.225,13.623 19.283 C 12.392 18.462,11.326 17.765,11.254 17.735 C 11.160 17.696,10.929 17.680,10.447 17.680 L 9.772 17.680 9.746 17.276 C 9.665 16.042,9.195 14.992,8.341 14.139 C 7.731 13.529,7.038 13.131,6.168 12.892 C 5.813 12.794,5.716 12.785,5.020 12.783 C 4.364 12.781,4.212 12.793,3.913 12.869 C 3.633 12.940,3.157 13.111,2.808 13.267 C 2.766 13.286,2.759 12.668,2.771 9.935 C 2.784 7.002,2.794 6.547,2.851 6.320 C 3.065 5.464,3.341 4.939,3.856 4.406 C 4.465 3.775,5.134 3.428,6.080 3.251 C 6.432 3.185,6.866 3.180,12.000 3.180 C 17.134 3.180,17.568 3.185,17.920 3.251 C 18.866 3.428,19.535 3.775,20.144 4.406 C 20.569 4.845,20.832 5.286,21.015 5.863 C 21.154 6.305,21.196 6.543,21.238 7.132 C 21.268 7.564,21.289 7.669,21.373 7.812 C 21.636 8.260,22.339 8.282,22.607 7.849 C 22.735 7.642,22.753 7.485,22.715 6.941 C 22.510 3.990,20.555 1.987,17.620 1.720 C 17.083 1.671,6.825 1.675,6.300 1.725 M8.180 9.835 C 7.990 9.923,7.904 10.012,7.822 10.210 C 7.708 10.483,7.783 10.869,7.986 11.048 C 8.207 11.245,8.103 11.240,12.009 11.239 C 15.466 11.238,15.668 11.234,15.820 11.165 C 16.010 11.077,16.096 10.988,16.178 10.790 C 16.257 10.602,16.257 10.398,16.178 10.210 C 16.096 10.012,16.010 9.923,15.820 9.835 C 15.668 9.766,15.467 9.762,12.000 9.762 C 8.533 9.762,8.332 9.766,8.180 9.835 M5.720 14.345 C 5.898 14.381,6.190 14.488,6.437 14.607 C 6.806 14.785,6.898 14.852,7.241 15.194 C 7.663 15.615,7.905 15.979,8.061 16.428 C 8.384 17.359,8.254 18.438,7.720 19.256 C 7.149 20.130,6.254 20.657,5.193 20.742 C 3.607 20.870,2.088 19.666,1.800 18.053 C 1.737 17.701,1.768 16.959,1.861 16.620 C 2.141 15.592,3.009 14.721,4.071 14.400 C 4.595 14.241,5.116 14.224,5.720 14.345 M4.720 15.325 C 4.589 15.377,4.409 15.550,4.329 15.700 C 4.287 15.781,4.260 15.965,4.248 16.265 L 4.230 16.710 3.765 16.728 C 3.162 16.751,2.973 16.847,2.822 17.209 C 2.676 17.558,2.831 17.967,3.180 18.151 C 3.262 18.195,3.446 18.220,3.765 18.232 L 4.231 18.250 4.248 18.735 C 4.260 19.074,4.284 19.256,4.329 19.340 C 4.514 19.689,4.922 19.844,5.271 19.698 C 5.637 19.545,5.730 19.359,5.752 18.735 L 5.769 18.250 6.235 18.232 C 6.554 18.220,6.738 18.195,6.820 18.151 C 7.169 17.967,7.324 17.558,7.178 17.209 C 7.027 16.847,6.838 16.751,6.235 16.728 L 5.770 16.710 5.752 16.265 C 5.740 15.965,5.713 15.781,5.671 15.700 C 5.588 15.544,5.409 15.376,5.267 15.323 C 5.129 15.270,4.854 15.271,4.720 15.325 " stroke="none" fill-rule="evenodd" fill="black"></path></svg>