<svg width="24" height="24" viewBox="0 0 24 24" fill="none" xmlns="http://www.w3.org/2000/svg"><path d="M6.300 1.725 C 5.339 1.814,4.364 2.154,3.591 2.667 C 3.431 2.773,3.125 3.029,2.911 3.235 C 2.146 3.972,1.633 4.927,1.402 6.041 C 1.303 6.515,1.235 7.380,1.280 7.581 C 1.427 8.232,2.294 8.380,2.627 7.812 C 2.711 7.669,2.732 7.564,2.762 7.132 C 2.804 6.543,2.846 6.305,2.985 5.863 C 3.168 5.286,3.431 4.845,3.856 4.406 C 4.465 3.775,5.134 3.428,6.080 3.251 C 6.432 3.185,6.866 3.180,12.000 3.180 C 17.134 3.180,17.568 3.185,17.920 3.251 C 18.866 3.428,19.535 3.775,20.144 4.406 C 20.659 4.938,20.934 5.463,21.149 6.320 C 21.206 6.549,21.216 7.021,21.229 10.220 C 21.239 12.704,21.230 13.965,21.200 14.191 C 21.065 15.219,20.576 16.137,19.832 16.759 C 19.174 17.310,18.091 17.680,17.136 17.680 C 16.746 17.680,16.483 17.817,16.326 18.100 C 16.270 18.203,16.258 18.396,16.247 19.440 C 16.233 20.796,16.228 20.822,15.981 20.792 C 15.905 20.782,15.033 20.225,13.623 19.283 C 12.392 18.462,11.326 17.765,11.254 17.735 C 11.148 17.691,10.687 17.680,8.864 17.680 C 7.506 17.680,6.481 17.663,6.293 17.638 C 4.761 17.431,3.590 16.559,3.066 15.234 C 2.813 14.595,2.792 14.426,2.765 12.840 C 2.737 11.187,2.734 11.174,2.408 10.943 C 2.270 10.846,2.203 10.827,2.003 10.827 C 1.718 10.827,1.506 10.945,1.355 11.187 C 1.263 11.335,1.260 11.372,1.247 12.272 C 1.232 13.304,1.286 14.276,1.383 14.749 C 1.877 17.146,3.586 18.750,6.020 19.101 C 6.328 19.145,6.916 19.159,8.589 19.159 L 10.758 19.160 12.929 20.607 C 14.123 21.402,15.190 22.094,15.300 22.145 C 16.335 22.617,17.555 21.945,17.719 20.813 C 17.741 20.663,17.759 20.223,17.759 19.835 L 17.760 19.129 17.990 19.101 C 19.153 18.959,20.324 18.393,21.142 17.576 C 22.085 16.635,22.610 15.408,22.719 13.892 C 22.771 13.174,22.771 7.705,22.719 6.986 C 22.653 6.066,22.462 5.320,22.117 4.633 C 21.267 2.942,19.667 1.906,17.620 1.720 C 17.083 1.671,6.825 1.675,6.300 1.725 M11.374 6.197 C 11.023 6.292,10.850 6.378,10.531 6.618 C 10.282 6.805,9.979 7.168,9.834 7.452 C 9.644 7.825,9.543 8.525,9.643 8.787 C 9.745 9.060,10.033 9.251,10.340 9.251 C 10.580 9.251,10.744 9.175,10.912 8.983 C 11.032 8.846,11.050 8.791,11.100 8.395 C 11.113 8.294,11.175 8.129,11.239 8.029 C 11.588 7.478,12.411 7.476,12.760 8.027 C 12.986 8.383,12.955 8.713,12.671 8.985 C 12.577 9.075,12.401 9.222,12.280 9.310 C 11.588 9.818,11.274 10.400,11.265 11.195 C 11.261 11.533,11.271 11.598,11.353 11.729 C 11.710 12.303,12.576 12.172,12.716 11.522 C 12.740 11.409,12.760 11.243,12.760 11.153 C 12.760 10.920,12.886 10.728,13.192 10.500 C 13.638 10.167,14.047 9.732,14.188 9.440 C 14.512 8.769,14.453 7.884,14.041 7.247 C 13.732 6.769,13.258 6.393,12.763 6.235 C 12.380 6.112,11.750 6.095,11.374 6.197 M11.698 13.075 C 11.145 13.327,11.098 14.076,11.617 14.380 C 12.190 14.716,12.891 14.196,12.721 13.562 C 12.637 13.252,12.315 13.002,12.000 13.002 C 11.923 13.002,11.787 13.035,11.698 13.075 " stroke="none" fill-rule="evenodd" fill="black"></path></svg>