<svg width="24" height="24" viewBox="0 0 24 24" fill="none" xmlns="http://www.w3.org/2000/svg"><path d="M7.312 1.283 C 3.953 1.476,1.926 3.183,1.400 6.262 C 1.307 6.805,1.233 7.971,1.278 8.173 C 1.316 8.341,1.441 8.525,1.576 8.614 C 1.829 8.779,2.222 8.764,2.464 8.580 C 2.680 8.415,2.727 8.254,2.764 7.553 C 2.851 5.906,3.238 4.839,4.039 4.039 C 4.654 3.423,5.383 3.078,6.540 2.856 C 6.850 2.796,7.266 2.783,9.540 2.763 C 12.022 2.741,12.189 2.735,12.332 2.664 C 12.928 2.368,12.832 1.448,12.189 1.286 C 11.977 1.233,8.229 1.231,7.312 1.283 M16.500 1.282 C 15.681 1.389,15.020 1.868,14.644 2.626 C 14.128 3.666,14.285 4.886,15.071 5.944 C 15.853 6.997,17.395 7.876,18.174 7.712 C 18.723 7.597,18.924 6.884,18.521 6.481 C 18.400 6.360,18.317 6.319,18.088 6.267 C 17.278 6.084,16.401 5.399,16.037 4.663 C 15.891 4.369,15.864 4.275,15.848 4.003 C 15.818 3.483,16.002 3.092,16.378 2.877 C 16.529 2.790,16.632 2.761,16.787 2.760 C 17.065 2.760,17.186 2.811,17.400 3.020 C 17.801 3.412,18.231 3.412,18.600 3.021 C 18.795 2.815,18.919 2.760,19.188 2.760 C 19.899 2.762,20.316 3.503,20.097 4.375 C 20.046 4.578,20.042 4.660,20.079 4.796 C 20.136 5.008,20.361 5.261,20.547 5.322 C 20.877 5.431,21.259 5.287,21.443 4.986 C 21.564 4.787,21.656 4.300,21.654 3.880 C 21.647 2.879,21.112 1.941,20.322 1.542 C 19.657 1.205,18.938 1.171,18.263 1.444 L 17.965 1.564 17.802 1.481 C 17.470 1.312,16.920 1.228,16.500 1.282 M21.815 7.277 C 21.638 7.321,21.461 7.456,21.353 7.631 L 21.260 7.780 21.237 10.940 C 21.213 14.333,21.214 14.307,20.993 15.115 C 20.646 16.382,19.868 17.302,18.748 17.771 C 17.996 18.086,17.392 18.194,16.140 18.239 C 15.063 18.277,14.919 18.306,14.529 18.557 C 14.312 18.697,14.189 18.842,13.444 19.834 C 12.982 20.450,12.541 21.016,12.464 21.093 C 12.218 21.339,11.942 21.374,11.653 21.196 C 11.568 21.143,11.180 20.664,10.623 19.923 C 9.658 18.641,9.604 18.587,9.068 18.368 C 8.831 18.271,8.770 18.265,7.680 18.235 C 5.960 18.188,5.284 18.061,4.440 17.624 C 4.125 17.461,3.577 16.893,3.393 16.540 C 2.939 15.665,2.760 14.652,2.760 12.958 C 2.760 11.872,2.731 11.691,2.522 11.482 C 2.173 11.133,1.618 11.203,1.353 11.631 C 1.271 11.764,1.259 11.839,1.246 12.343 C 1.229 13.008,1.299 14.375,1.379 14.940 C 1.741 17.498,2.901 18.913,5.080 19.456 C 5.734 19.618,6.252 19.678,7.420 19.724 C 8.014 19.748,8.538 19.774,8.584 19.783 C 8.639 19.793,8.973 20.205,9.549 20.970 C 10.465 22.190,10.616 22.349,11.069 22.576 C 11.663 22.873,12.337 22.873,12.931 22.576 C 13.384 22.349,13.533 22.191,14.460 20.959 L 15.350 19.776 16.325 19.728 C 17.353 19.677,17.947 19.594,18.560 19.418 C 20.545 18.847,21.847 17.545,22.418 15.561 C 22.573 15.021,22.674 14.357,22.719 13.589 C 22.773 12.663,22.771 8.075,22.717 7.841 C 22.623 7.432,22.215 7.177,21.815 7.277 M7.689 10.059 C 7.454 10.132,7.263 10.287,7.131 10.511 C 7.036 10.672,7.020 10.744,7.020 11.000 C 7.020 11.257,7.036 11.327,7.133 11.492 C 7.625 12.329,8.898 12.046,8.991 11.078 C 9.033 10.640,8.729 10.185,8.310 10.061 C 8.065 9.988,7.917 9.987,7.689 10.059 M11.689 10.059 C 11.454 10.132,11.263 10.287,11.131 10.511 C 11.036 10.672,11.020 10.744,11.020 11.000 C 11.020 11.257,11.036 11.327,11.133 11.492 C 11.625 12.329,12.898 12.046,12.991 11.078 C 13.033 10.640,12.729 10.185,12.310 10.061 C 12.065 9.988,11.917 9.987,11.689 10.059 M15.689 10.056 C 15.452 10.134,15.262 10.289,15.131 10.511 C 15.036 10.672,15.020 10.744,15.020 11.000 C 15.020 11.255,15.036 11.328,15.129 11.486 C 15.353 11.867,15.792 12.059,16.217 11.964 C 16.929 11.805,17.232 10.975,16.789 10.394 C 16.549 10.080,16.069 9.932,15.689 10.056 " stroke="none" fill-rule="evenodd" fill="black"></path></svg>