<svg width="24" height="24" viewBox="0 0 24 24" fill="none" xmlns="http://www.w3.org/2000/svg"><path d="M7.312 1.283 C 3.953 1.476,1.926 3.183,1.400 6.262 C 1.307 6.805,1.233 7.971,1.278 8.173 C 1.316 8.341,1.441 8.525,1.576 8.614 C 1.829 8.779,2.222 8.764,2.464 8.580 C 2.680 8.415,2.727 8.254,2.764 7.553 C 2.851 5.906,3.238 4.839,4.039 4.039 C 4.654 3.424,5.377 3.081,6.540 2.855 C 6.861 2.792,7.294 2.782,10.540 2.762 C 14.004 2.741,14.187 2.736,14.332 2.664 C 14.928 2.368,14.832 1.448,14.189 1.286 C 13.976 1.233,8.237 1.230,7.312 1.283 M19.140 1.282 C 18.728 1.327,18.503 1.387,18.177 1.537 C 17.446 1.875,16.876 2.445,16.539 3.174 C 16.352 3.579,16.274 3.969,16.274 4.500 C 16.274 5.029,16.352 5.420,16.536 5.820 C 17.068 6.971,18.161 7.705,19.379 7.729 C 19.732 7.736,19.862 7.690,20.047 7.494 C 20.181 7.353,20.240 7.201,20.240 7.000 C 20.240 6.799,20.181 6.647,20.047 6.506 C 19.885 6.335,19.760 6.285,19.378 6.242 C 18.715 6.167,18.214 5.822,17.929 5.245 C 17.784 4.952,17.780 4.932,17.780 4.500 C 17.780 4.068,17.784 4.048,17.929 3.755 C 18.113 3.382,18.414 3.086,18.790 2.908 C 19.043 2.788,19.088 2.780,19.500 2.780 C 19.912 2.780,19.957 2.788,20.210 2.908 C 20.800 3.187,21.167 3.709,21.242 4.374 C 21.285 4.760,21.334 4.885,21.506 5.047 C 21.783 5.309,22.217 5.309,22.494 5.047 C 22.690 4.862,22.736 4.732,22.729 4.379 C 22.720 3.948,22.629 3.538,22.461 3.174 C 21.862 1.878,20.544 1.127,19.140 1.282 M21.815 9.277 C 21.638 9.321,21.461 9.456,21.353 9.631 L 21.260 9.780 21.236 11.940 C 21.211 14.229,21.201 14.355,20.993 15.115 C 20.646 16.382,19.868 17.302,18.748 17.771 C 17.996 18.086,17.392 18.194,16.140 18.239 C 15.063 18.277,14.919 18.306,14.529 18.557 C 14.312 18.697,14.189 18.842,13.444 19.834 C 12.982 20.450,12.541 21.016,12.464 21.093 C 12.218 21.339,11.942 21.374,11.653 21.196 C 11.568 21.143,11.180 20.664,10.623 19.923 C 9.658 18.641,9.604 18.587,9.068 18.368 C 8.831 18.271,8.770 18.265,7.680 18.235 C 5.960 18.188,5.284 18.061,4.440 17.624 C 4.125 17.461,3.577 16.893,3.393 16.540 C 2.939 15.665,2.760 14.652,2.760 12.958 C 2.760 11.872,2.731 11.691,2.522 11.482 C 2.173 11.133,1.618 11.203,1.353 11.631 C 1.271 11.764,1.259 11.839,1.246 12.343 C 1.229 13.008,1.299 14.375,1.379 14.940 C 1.741 17.498,2.901 18.913,5.080 19.456 C 5.734 19.618,6.252 19.678,7.420 19.724 C 8.014 19.748,8.538 19.774,8.584 19.783 C 8.639 19.793,8.973 20.205,9.549 20.970 C 10.465 22.190,10.616 22.349,11.069 22.576 C 11.663 22.873,12.337 22.873,12.931 22.576 C 13.384 22.349,13.533 22.191,14.460 20.959 L 15.350 19.776 16.325 19.728 C 17.353 19.677,17.947 19.594,18.560 19.418 C 20.545 18.847,21.847 17.545,22.418 15.561 C 22.679 14.651,22.759 13.691,22.758 11.460 C 22.758 9.942,22.740 9.746,22.580 9.536 C 22.421 9.327,22.078 9.211,21.815 9.277 M7.689 10.059 C 7.454 10.132,7.263 10.287,7.131 10.511 C 7.036 10.672,7.020 10.744,7.020 11.000 C 7.020 11.257,7.036 11.327,7.133 11.492 C 7.625 12.329,8.898 12.046,8.991 11.078 C 9.033 10.640,8.729 10.185,8.310 10.061 C 8.065 9.988,7.917 9.987,7.689 10.059 M11.689 10.059 C 11.454 10.132,11.263 10.287,11.131 10.511 C 11.036 10.672,11.020 10.744,11.020 11.000 C 11.020 11.257,11.036 11.327,11.133 11.492 C 11.625 12.329,12.898 12.046,12.991 11.078 C 13.033 10.640,12.729 10.185,12.310 10.061 C 12.065 9.988,11.917 9.987,11.689 10.059 M15.689 10.056 C 15.452 10.134,15.262 10.289,15.131 10.511 C 15.036 10.672,15.020 10.744,15.020 11.000 C 15.020 11.255,15.036 11.328,15.129 11.486 C 15.353 11.867,15.792 12.059,16.217 11.964 C 16.929 11.805,17.232 10.975,16.789 10.394 C 16.549 10.080,16.069 9.932,15.689 10.056 " stroke="none" fill-rule="evenodd" fill="black"></path></svg>