<svg width="24" height="24" viewBox="0 0 24 24" fill="none" xmlns="http://www.w3.org/2000/svg"><path d="M12.700 1.265 C 8.673 1.463,5.261 3.939,4.035 7.552 C 3.714 8.498,3.574 9.491,3.612 10.552 C 3.633 11.157,3.642 11.216,3.737 11.378 C 3.863 11.593,4.053 11.716,4.307 11.746 C 4.487 11.767,4.535 11.751,5.000 11.509 C 5.837 11.073,6.437 10.899,7.255 10.857 C 9.397 10.745,11.371 12.021,12.027 13.940 C 12.749 16.054,11.599 18.347,9.360 19.257 C 8.867 19.457,8.194 19.597,7.700 19.601 C 7.546 19.602,7.357 19.626,7.280 19.654 C 7.203 19.682,6.603 20.024,5.946 20.415 C 5.289 20.805,4.746 21.119,4.739 21.112 C 4.732 21.105,4.770 20.758,4.823 20.340 C 4.985 19.068,4.968 18.986,4.474 18.600 C 3.188 17.597,2.588 16.155,2.799 14.580 C 2.844 14.248,2.783 14.023,2.600 13.840 C 2.335 13.575,1.922 13.547,1.625 13.774 C 1.365 13.972,1.273 14.357,1.272 15.260 C 1.269 16.775,1.836 18.118,2.950 19.237 L 3.405 19.694 3.298 20.514 C 3.180 21.417,3.185 21.612,3.334 21.938 C 3.633 22.592,4.390 22.907,5.060 22.656 C 5.104 22.639,5.727 22.278,6.445 21.853 C 7.717 21.100,7.756 21.080,7.971 21.080 C 8.314 21.080,9.058 20.939,9.531 20.784 C 10.373 20.508,11.238 20.009,11.838 19.454 L 12.133 19.181 12.534 19.195 L 12.936 19.208 14.938 20.399 C 16.039 21.053,17.012 21.626,17.100 21.670 C 17.466 21.856,17.970 21.901,18.373 21.784 C 19.069 21.581,19.599 20.875,19.601 20.146 C 19.601 20.011,19.525 19.290,19.433 18.543 L 19.264 17.187 19.482 17.006 C 19.899 16.661,20.667 15.858,20.968 15.454 C 22.267 13.708,22.846 11.789,22.714 9.666 C 22.545 6.954,21.030 4.427,18.638 2.869 C 18.106 2.522,17.697 2.320,17.528 2.321 C 17.057 2.324,16.690 2.783,16.799 3.236 C 16.864 3.505,16.961 3.601,17.500 3.925 C 18.882 4.755,19.876 5.820,20.541 7.180 C 20.995 8.109,21.196 8.931,21.229 9.987 C 21.263 11.060,21.114 11.937,20.743 12.850 C 20.273 14.007,19.410 15.159,18.471 15.884 C 18.289 16.025,18.066 16.212,17.975 16.300 C 17.685 16.581,17.686 16.560,17.917 18.441 C 18.029 19.353,18.121 20.122,18.120 20.150 C 18.120 20.229,17.968 20.360,17.878 20.360 C 17.832 20.360,16.825 19.784,15.640 19.080 C 14.455 18.376,13.461 17.792,13.432 17.783 C 13.404 17.774,13.329 17.755,13.266 17.742 C 13.185 17.724,13.164 17.703,13.192 17.668 C 13.271 17.569,13.519 16.888,13.595 16.560 C 14.063 14.549,13.434 12.489,11.920 11.070 C 10.961 10.170,9.734 9.588,8.400 9.400 C 7.870 9.325,6.900 9.342,6.359 9.436 C 5.979 9.502,5.456 9.640,5.166 9.751 C 5.036 9.801,5.201 8.787,5.445 8.040 C 6.040 6.216,7.468 4.589,9.264 3.686 C 10.413 3.109,11.455 2.834,12.762 2.764 C 13.187 2.741,13.421 2.711,13.502 2.669 C 13.848 2.489,14.004 2.078,13.858 1.729 C 13.692 1.332,13.436 1.229,12.700 1.265 " stroke="none" fill-rule="evenodd" fill="black"></path></svg>