<svg width="24" height="24" viewBox="0 0 24 24" fill="none" xmlns="http://www.w3.org/2000/svg"><path d="M8.694 1.284 C 6.604 1.449,4.949 2.806,4.443 4.768 C 4.292 5.352,4.240 6.018,4.240 7.362 L 4.240 8.384 3.950 8.477 C 2.689 8.881,1.721 9.918,1.402 11.207 C 1.301 11.615,1.232 12.367,1.277 12.566 C 1.447 13.321,2.554 13.319,2.716 12.562 C 2.740 12.449,2.760 12.261,2.760 12.144 C 2.760 11.863,2.891 11.361,3.048 11.040 C 3.220 10.689,3.686 10.224,4.043 10.050 C 4.625 9.766,4.380 9.780,8.780 9.780 C 12.435 9.780,12.760 9.785,13.000 9.850 C 14.015 10.125,14.659 10.874,14.803 11.948 C 14.830 12.147,14.840 13.121,14.830 14.640 C 14.816 16.978,14.814 17.025,14.725 17.319 C 14.462 18.187,13.940 18.729,13.100 19.004 C 12.830 19.092,12.757 19.097,11.040 19.118 L 9.260 19.140 9.060 19.257 C 8.950 19.321,8.257 19.776,7.520 20.267 L 6.180 21.160 6.159 20.410 C 6.136 19.591,6.114 19.503,5.882 19.308 C 5.723 19.174,5.570 19.131,5.155 19.106 C 4.448 19.062,3.915 18.838,3.479 18.401 C 3.032 17.955,2.824 17.459,2.761 16.692 C 2.713 16.107,2.616 15.926,2.271 15.782 C 1.922 15.636,1.515 15.791,1.328 16.140 C 1.253 16.281,1.250 16.800,1.323 17.280 C 1.558 18.841,2.690 20.092,4.208 20.467 L 4.629 20.571 4.650 21.096 C 4.677 21.756,4.756 21.991,5.054 22.294 C 5.293 22.538,5.538 22.668,5.858 22.720 C 6.125 22.763,6.461 22.712,6.696 22.592 C 6.783 22.548,7.499 22.081,8.287 21.556 L 9.719 20.600 11.190 20.600 C 12.781 20.600,13.124 20.570,13.671 20.383 C 14.491 20.104,15.207 19.565,15.639 18.902 C 15.734 18.756,15.822 18.642,15.836 18.649 C 15.849 18.655,16.003 18.732,16.178 18.820 C 16.486 18.975,16.508 18.980,16.898 18.980 C 17.267 18.980,17.322 18.969,17.568 18.853 C 17.909 18.691,18.171 18.429,18.333 18.088 C 18.459 17.823,18.460 17.811,18.480 17.065 L 18.500 16.309 18.940 16.217 C 19.476 16.105,19.748 16.012,20.200 15.787 C 21.042 15.366,21.766 14.641,22.187 13.798 C 22.631 12.911,22.784 12.001,22.754 10.440 C 22.738 9.636,22.699 9.509,22.408 9.303 C 22.270 9.206,22.203 9.187,22.003 9.187 C 21.718 9.187,21.506 9.305,21.355 9.547 C 21.262 9.697,21.259 9.727,21.235 10.920 C 21.212 12.068,21.204 12.160,21.110 12.480 C 20.912 13.147,20.699 13.500,20.222 13.951 C 19.640 14.502,18.978 14.771,18.038 14.837 C 17.511 14.875,17.371 14.917,17.212 15.087 C 17.017 15.295,17.000 15.408,17.000 16.480 C 17.000 17.309,16.990 17.486,16.943 17.504 C 16.912 17.516,16.764 17.444,16.615 17.344 L 16.344 17.162 16.354 14.831 C 16.365 12.279,16.338 11.716,16.176 11.120 C 15.793 9.714,14.698 8.685,13.225 8.348 C 12.872 8.267,12.741 8.264,9.307 8.250 L 5.754 8.236 5.769 6.848 C 5.785 5.469,5.786 5.458,5.895 5.102 C 6.250 3.943,7.045 3.173,8.200 2.869 L 8.540 2.780 13.500 2.780 L 18.460 2.780 18.800 2.869 C 19.734 3.115,20.467 3.695,20.864 4.500 C 21.089 4.958,21.194 5.374,21.238 5.985 C 21.283 6.612,21.376 6.790,21.729 6.938 C 22.078 7.084,22.485 6.929,22.672 6.580 C 22.800 6.340,22.724 5.340,22.524 4.647 C 22.012 2.871,20.602 1.649,18.680 1.315 C 18.358 1.259,9.365 1.231,8.694 1.284 " stroke="none" fill-rule="evenodd" fill="black"></path></svg>