<svg width="24" height="24" viewBox="0 0 24 24" fill="none" xmlns="http://www.w3.org/2000/svg"><path d="M11.579 1.280 C 9.204 1.488,7.326 3.470,7.270 5.827 C 7.262 6.177,7.271 6.236,7.353 6.369 C 7.590 6.753,8.108 6.851,8.464 6.580 C 8.651 6.437,8.719 6.252,8.761 5.763 C 8.837 4.904,9.107 4.325,9.716 3.716 C 10.143 3.288,10.485 3.072,11.020 2.892 C 11.316 2.791,11.389 2.783,12.000 2.783 C 12.611 2.783,12.684 2.791,12.980 2.892 C 13.515 3.072,13.857 3.288,14.284 3.716 C 14.710 4.142,14.926 4.482,15.110 5.020 L 15.220 5.340 15.220 8.720 C 15.220 11.869,15.215 12.118,15.147 12.360 C 14.901 13.237,14.246 14.019,13.420 14.422 C 12.918 14.666,12.607 14.735,12.000 14.735 C 11.393 14.735,11.082 14.666,10.580 14.422 C 9.762 14.023,9.101 13.239,8.858 12.380 C 8.805 12.192,8.785 11.890,8.764 10.980 C 8.736 9.721,8.732 9.698,8.494 9.473 C 8.217 9.211,7.783 9.211,7.506 9.473 C 7.280 9.686,7.263 9.759,7.247 10.551 C 7.209 12.457,7.479 13.434,8.341 14.510 C 9.202 15.584,10.588 16.240,12.000 16.240 C 13.412 16.240,14.798 15.584,15.659 14.510 C 16.313 13.694,16.635 12.881,16.723 11.820 C 16.751 11.483,16.760 10.268,16.749 8.360 C 16.733 5.529,16.730 5.406,16.647 5.036 C 16.113 2.654,13.976 1.069,11.579 1.280 M11.209 5.500 C 10.788 5.576,10.362 5.711,10.191 5.823 C 9.785 6.087,9.779 6.764,10.181 7.036 C 10.400 7.185,10.647 7.190,11.108 7.055 C 11.455 6.954,11.560 6.942,12.020 6.944 C 12.462 6.947,12.593 6.964,12.891 7.054 C 13.427 7.216,13.693 7.186,13.927 6.935 C 14.229 6.612,14.170 6.058,13.809 5.823 C 13.328 5.511,12.035 5.350,11.209 5.500 M11.660 7.726 C 11.075 7.773,10.807 7.865,10.626 8.080 C 10.337 8.423,10.432 8.955,10.823 9.184 C 10.996 9.285,11.022 9.289,11.313 9.258 C 11.704 9.217,12.295 9.217,12.682 9.258 C 12.949 9.287,13.002 9.281,13.151 9.204 C 13.672 8.939,13.674 8.166,13.156 7.898 C 12.887 7.759,12.212 7.681,11.660 7.726 M4.020 8.987 C 3.835 9.085,3.755 9.166,3.675 9.340 C 3.610 9.483,3.602 9.618,3.601 10.580 C 3.600 12.086,3.676 12.782,3.942 13.705 C 4.831 16.782,7.546 19.173,10.680 19.638 C 10.845 19.663,11.037 19.692,11.107 19.703 L 11.235 19.723 11.247 20.971 C 11.260 22.197,11.262 22.223,11.353 22.369 C 11.710 22.943,12.576 22.812,12.716 22.162 C 12.742 22.040,12.760 21.504,12.760 20.840 L 12.760 19.724 12.890 19.703 C 12.962 19.692,13.155 19.663,13.320 19.638 C 16.451 19.173,19.170 16.779,20.058 13.705 C 20.323 12.785,20.400 12.089,20.400 10.589 C 20.400 9.466,20.383 9.341,20.208 9.147 C 20.022 8.940,19.621 8.860,19.348 8.974 C 19.174 9.047,18.969 9.288,18.944 9.449 C 18.933 9.521,18.915 10.129,18.903 10.800 C 18.882 12.089,18.843 12.463,18.659 13.140 C 18.440 13.951,18.033 14.798,17.565 15.420 C 16.201 17.230,14.208 18.240,12.000 18.240 C 9.043 18.240,6.426 16.365,5.468 13.560 C 5.174 12.699,5.084 11.959,5.081 10.373 C 5.081 9.847,5.063 9.439,5.037 9.373 C 4.980 9.219,4.807 9.042,4.651 8.975 C 4.481 8.902,4.169 8.908,4.020 8.987 " stroke="none" fill-rule="evenodd" fill="black"></path></svg>