<svg width="24" height="24" viewBox="0 0 24 24" fill="none" xmlns="http://www.w3.org/2000/svg"><path d="M17.720 1.310 C 17.542 1.343,17.141 1.544,16.991 1.676 C 16.610 2.010,16.711 2.673,17.175 2.883 C 17.400 2.986,17.620 2.978,17.874 2.860 C 17.992 2.805,18.136 2.760,18.194 2.760 C 18.433 2.760,18.535 2.884,19.519 4.358 C 20.549 5.903,20.561 5.927,20.420 6.200 C 20.329 6.375,15.283 9.742,15.218 9.671 C 15.192 9.643,14.657 8.851,14.029 7.911 L 12.886 6.202 13.253 5.947 C 13.455 5.807,13.837 5.548,14.103 5.370 C 14.368 5.193,14.614 5.004,14.649 4.950 C 15.081 4.292,14.372 3.511,13.679 3.880 C 13.397 4.031,11.319 5.448,11.248 5.539 C 11.124 5.697,11.068 5.906,11.094 6.114 L 11.117 6.300 8.989 7.720 C 6.829 9.161,6.680 9.276,6.680 9.506 C 6.680 9.585,6.400 9.786,4.876 10.803 C 3.884 11.464,2.992 12.086,2.893 12.185 C 2.539 12.539,2.347 13.154,2.432 13.666 C 2.494 14.036,2.588 14.208,3.329 15.298 C 4.036 16.338,4.202 16.515,4.626 16.685 C 4.951 16.815,5.645 16.818,5.925 16.691 C 6.027 16.645,6.918 16.069,7.905 15.412 L 9.700 14.217 9.906 14.232 C 10.019 14.240,10.151 14.226,10.199 14.200 C 10.247 14.175,10.294 14.161,10.303 14.169 C 10.311 14.178,9.545 15.874,8.599 17.938 C 7.654 20.002,6.862 21.760,6.839 21.844 C 6.701 22.356,7.214 22.848,7.746 22.714 C 8.115 22.621,8.054 22.736,10.116 18.226 C 11.159 15.945,12.019 14.086,12.028 14.095 C 12.037 14.104,12.887 15.972,13.916 18.246 C 15.948 22.735,15.889 22.622,16.254 22.714 C 16.787 22.849,17.299 22.356,17.161 21.842 C 17.138 21.757,16.182 19.621,15.036 17.094 C 13.891 14.567,12.945 12.481,12.935 12.457 C 12.925 12.433,13.277 12.175,13.716 11.882 L 14.516 11.351 14.691 11.435 C 14.895 11.534,15.107 11.543,15.301 11.462 C 15.567 11.351,21.212 7.546,21.432 7.330 C 21.967 6.803,22.136 5.866,21.820 5.171 C 21.655 4.808,19.697 1.941,19.488 1.757 C 19.117 1.431,18.686 1.277,18.163 1.285 C 17.974 1.288,17.775 1.299,17.720 1.310 M12.823 8.824 C 13.294 9.523,13.667 10.108,13.650 10.123 C 13.564 10.200,10.202 12.440,10.174 12.438 C 10.136 12.437,8.466 9.948,8.468 9.896 C 8.469 9.861,11.931 7.520,11.952 7.540 C 11.959 7.546,12.351 8.124,12.823 8.824 M8.038 12.001 C 8.469 12.642,8.722 13.053,8.698 13.075 C 8.571 13.194,5.353 15.320,5.300 15.320 C 5.154 15.320,5.050 15.196,4.477 14.333 C 3.883 13.441,3.842 13.355,3.954 13.232 C 3.991 13.193,7.296 10.965,7.320 10.964 C 7.331 10.963,7.654 11.430,8.038 12.001 " stroke="none" fill-rule="evenodd" fill="black"></path></svg>