<svg width="24" height="24" viewBox="0 0 24 24" fill="none" xmlns="http://www.w3.org/2000/svg"><path d="M11.480 1.283 C 8.512 1.499,5.994 3.716,5.401 6.636 C 5.301 7.127,5.233 7.974,5.278 8.173 C 5.296 8.250,5.348 8.367,5.394 8.432 C 5.706 8.870,6.431 8.817,6.658 8.339 C 6.702 8.247,6.739 8.024,6.760 7.727 C 6.779 7.470,6.823 7.116,6.860 6.940 C 7.184 5.374,8.242 4.014,9.700 3.290 C 10.468 2.908,11.045 2.780,12.000 2.780 C 12.526 2.780,12.785 2.798,13.040 2.853 C 14.065 3.072,14.963 3.560,15.701 4.299 C 16.439 5.036,16.925 5.932,17.147 6.961 C 17.214 7.273,17.220 7.553,17.220 10.500 C 17.220 13.447,17.214 13.727,17.147 14.039 C 16.925 15.068,16.439 15.964,15.701 16.701 C 14.964 17.439,14.068 17.925,13.039 18.147 C 12.563 18.250,11.438 18.250,10.960 18.147 C 9.357 17.804,8.018 16.765,7.290 15.300 C 6.897 14.510,6.800 14.046,6.765 12.800 C 6.734 11.717,6.710 11.607,6.464 11.421 C 6.096 11.142,5.598 11.236,5.354 11.629 C 5.276 11.756,5.261 11.843,5.247 12.258 C 5.227 12.889,5.299 13.878,5.403 14.380 C 5.940 16.985,8.031 19.070,10.637 19.600 C 12.870 20.053,15.157 19.367,16.762 17.762 C 17.932 16.591,18.598 15.125,18.721 13.444 C 18.769 12.789,18.769 8.211,18.721 7.556 C 18.598 5.875,17.932 4.409,16.762 3.238 C 15.360 1.837,13.473 1.138,11.480 1.283 M11.380 6.264 C 10.281 6.346,8.926 6.665,8.632 6.913 C 8.142 7.325,8.364 8.100,9.005 8.216 C 9.112 8.235,9.269 8.206,9.606 8.103 C 11.168 7.630,12.553 7.630,14.118 8.105 C 14.541 8.233,14.592 8.240,14.771 8.197 C 15.238 8.085,15.480 7.607,15.285 7.178 C 15.244 7.089,15.156 6.970,15.088 6.913 C 14.873 6.732,13.730 6.415,12.960 6.324 C 12.564 6.276,11.669 6.243,11.380 6.264 M11.080 9.524 C 10.768 9.559,10.089 9.688,9.831 9.761 C 9.411 9.880,9.177 10.355,9.342 10.751 C 9.435 10.974,9.593 11.116,9.825 11.183 C 10.012 11.237,10.060 11.237,10.306 11.179 C 11.363 10.932,12.198 10.917,13.161 11.127 C 13.823 11.271,14.034 11.230,14.296 10.906 C 14.407 10.768,14.420 10.725,14.420 10.483 C 14.420 10.249,14.405 10.194,14.307 10.066 C 14.146 9.855,14.043 9.799,13.619 9.697 C 12.819 9.503,11.850 9.437,11.080 9.524 M2.815 10.277 C 2.638 10.321,2.461 10.456,2.353 10.631 L 2.260 10.780 2.264 12.280 C 2.268 13.884,2.300 14.274,2.499 15.160 C 3.315 18.789,6.207 21.686,9.824 22.498 C 11.202 22.807,12.740 22.814,14.100 22.516 C 15.906 22.121,17.546 21.218,18.882 19.882 C 20.406 18.358,21.314 16.551,21.645 14.380 C 21.747 13.712,21.801 11.243,21.722 10.866 C 21.579 10.184,20.722 10.036,20.353 10.631 C 20.261 10.779,20.260 10.795,20.236 12.400 C 20.215 13.821,20.202 14.074,20.127 14.461 C 19.622 17.083,18.002 19.227,15.642 20.395 C 14.465 20.977,13.332 21.240,12.000 21.240 C 11.034 21.240,10.311 21.126,9.416 20.834 C 6.398 19.848,4.196 17.153,3.802 13.961 C 3.779 13.775,3.760 13.037,3.759 12.321 C 3.758 10.948,3.737 10.743,3.580 10.536 C 3.421 10.327,3.078 10.211,2.815 10.277 " stroke="none" fill-rule="evenodd" fill="black"></path></svg>