<svg width="24" height="24" viewBox="0 0 24 24" fill="none" xmlns="http://www.w3.org/2000/svg"><path d="M11.480 1.283 C 8.515 1.497,5.994 3.717,5.401 6.636 C 5.301 7.127,5.233 7.974,5.278 8.173 C 5.296 8.250,5.348 8.367,5.394 8.432 C 5.706 8.870,6.431 8.817,6.658 8.339 C 6.702 8.247,6.739 8.024,6.760 7.727 C 6.799 7.190,6.883 6.749,7.027 6.320 C 7.143 5.978,7.515 5.236,7.660 5.059 L 7.757 4.940 7.759 6.300 C 7.762 7.532,7.769 7.675,7.835 7.820 C 7.923 8.010,8.012 8.096,8.210 8.178 C 8.398 8.257,8.602 8.257,8.790 8.178 C 8.988 8.096,9.077 8.010,9.165 7.820 C 9.233 7.671,9.238 7.513,9.239 5.594 L 9.240 3.528 9.591 3.347 C 9.966 3.153,10.297 3.020,10.605 2.939 L 10.796 2.888 10.808 4.318 L 10.820 5.747 10.934 5.912 C 11.208 6.306,11.780 6.346,12.107 5.994 C 12.271 5.817,12.280 5.729,12.280 4.213 L 12.280 2.751 12.580 2.779 C 14.467 2.956,16.259 4.348,16.920 6.154 L 17.013 6.407 12.298 11.122 L 7.583 15.837 7.510 15.728 C 7.380 15.538,7.174 15.110,7.062 14.800 C 6.828 14.150,6.795 13.931,6.765 12.840 C 6.733 11.713,6.711 11.608,6.464 11.421 C 6.096 11.142,5.598 11.236,5.354 11.629 C 5.276 11.756,5.261 11.843,5.247 12.258 C 5.227 12.884,5.299 13.878,5.400 14.367 C 5.561 15.144,5.891 15.964,6.293 16.590 C 6.396 16.750,6.480 16.894,6.480 16.910 C 6.480 16.925,5.438 17.983,4.165 19.259 C 1.662 21.768,1.731 21.686,1.770 22.086 C 1.792 22.316,1.948 22.540,2.163 22.650 C 2.316 22.728,2.616 22.742,2.787 22.678 C 2.849 22.655,3.458 22.080,4.140 21.400 L 5.380 20.164 5.740 20.466 C 6.908 21.446,8.365 22.169,9.840 22.501 C 11.199 22.807,12.746 22.812,14.100 22.516 C 15.906 22.121,17.546 21.218,18.882 19.882 C 20.425 18.339,21.360 16.453,21.660 14.277 C 21.746 13.652,21.791 11.196,21.722 10.866 C 21.579 10.186,20.721 10.038,20.353 10.631 C 20.261 10.778,20.260 10.796,20.236 12.380 C 20.217 13.581,20.195 14.070,20.147 14.340 C 19.909 15.675,19.401 16.867,18.627 17.908 C 17.269 19.733,15.228 20.918,12.961 21.198 C 12.525 21.252,11.474 21.252,11.039 21.198 C 9.493 21.006,7.998 20.371,6.800 19.398 C 6.625 19.256,6.482 19.122,6.481 19.100 C 6.481 19.078,9.991 15.550,14.283 11.260 C 18.748 6.796,22.118 3.397,22.163 3.312 C 22.456 2.749,21.909 2.112,21.278 2.280 C 21.119 2.323,20.942 2.485,19.635 3.787 L 18.170 5.247 17.982 4.894 C 17.210 3.443,15.966 2.314,14.480 1.718 C 13.619 1.373,12.494 1.210,11.480 1.283 M17.720 9.285 C 17.591 9.336,17.411 9.508,17.326 9.660 C 17.268 9.766,17.257 10.020,17.236 11.780 C 17.211 13.951,17.207 13.993,16.962 14.700 C 16.515 15.992,15.552 17.085,14.320 17.701 C 13.618 18.052,13.014 18.200,12.160 18.228 C 11.470 18.251,11.085 18.203,10.460 18.016 C 9.996 17.877,9.877 17.862,9.702 17.919 C 9.384 18.024,9.190 18.288,9.187 18.619 C 9.185 18.894,9.311 19.128,9.530 19.255 C 9.877 19.457,10.771 19.663,11.530 19.717 C 14.591 19.933,17.403 18.058,18.393 15.140 C 18.697 14.242,18.771 13.455,18.752 11.280 C 18.742 9.972,18.731 9.765,18.674 9.660 C 18.586 9.501,18.407 9.335,18.267 9.283 C 18.129 9.230,17.854 9.231,17.720 9.285 " stroke="none" fill-rule="evenodd" fill="black"></path></svg>