<svg width="24" height="24" viewBox="0 0 24 24" fill="none" xmlns="http://www.w3.org/2000/svg"><path d="M11.579 1.280 C 9.716 1.443,8.116 2.701,7.508 4.480 C 7.262 5.201,7.260 5.229,7.260 8.360 L 7.260 11.220 7.353 11.369 C 7.664 11.870,8.408 11.849,8.664 11.332 C 8.736 11.188,8.741 11.020,8.761 8.260 L 8.781 5.340 8.890 5.020 C 9.079 4.469,9.287 4.144,9.742 3.690 C 9.969 3.465,10.172 3.280,10.195 3.280 C 10.221 3.280,10.240 3.785,10.248 4.750 C 10.260 6.208,10.261 6.221,10.353 6.369 C 10.715 6.952,11.581 6.810,11.719 6.145 C 11.751 5.993,11.761 5.425,11.753 4.336 L 11.740 2.750 12.200 2.770 C 13.046 2.809,13.651 3.083,14.284 3.716 C 14.952 4.383,15.184 4.927,15.241 5.960 L 15.276 6.580 9.302 12.560 C 6.016 15.849,3.299 18.598,3.264 18.668 C 3.191 18.815,3.180 19.103,3.243 19.267 C 3.300 19.421,3.473 19.598,3.629 19.665 C 3.801 19.739,4.095 19.735,4.252 19.656 C 4.322 19.621,4.830 19.145,5.380 18.598 L 6.380 17.603 6.620 17.804 C 7.268 18.348,8.300 18.941,9.118 19.240 C 9.520 19.387,10.261 19.576,10.680 19.638 C 10.845 19.663,11.037 19.692,11.107 19.703 L 11.235 19.723 11.247 20.971 C 11.260 22.197,11.262 22.223,11.353 22.369 C 11.710 22.943,12.576 22.812,12.716 22.162 C 12.742 22.040,12.760 21.504,12.760 20.840 L 12.760 19.724 12.890 19.704 C 13.669 19.583,13.905 19.536,14.313 19.419 C 14.834 19.269,15.574 18.973,15.762 18.839 C 15.999 18.670,16.109 18.267,15.997 17.973 C 15.940 17.819,15.767 17.642,15.611 17.575 C 15.380 17.476,15.151 17.506,14.710 17.694 C 13.857 18.056,13.216 18.195,12.249 18.228 C 11.801 18.243,11.427 18.234,11.189 18.202 C 9.952 18.040,8.808 17.584,7.891 16.889 C 7.724 16.763,7.554 16.634,7.511 16.603 C 7.439 16.550,7.478 16.503,8.162 15.818 L 8.889 15.091 9.174 15.306 C 10.377 16.213,12.048 16.482,13.488 16.000 C 15.024 15.485,16.156 14.279,16.584 12.700 C 16.716 12.213,16.793 11.198,16.722 10.866 C 16.579 10.188,15.720 10.038,15.356 10.627 C 15.276 10.756,15.263 10.848,15.236 11.456 C 15.186 12.565,14.964 13.115,14.294 13.789 C 13.461 14.625,12.334 14.936,11.192 14.643 C 10.830 14.550,10.371 14.343,10.124 14.161 L 9.949 14.031 15.311 8.666 C 18.259 5.715,20.701 3.242,20.736 3.172 C 20.830 2.984,20.818 2.664,20.710 2.472 C 20.539 2.167,20.054 2.008,19.758 2.158 C 19.704 2.186,18.990 2.876,18.172 3.692 C 17.208 4.653,16.677 5.156,16.665 5.118 C 16.655 5.086,16.624 4.961,16.597 4.840 C 16.570 4.719,16.504 4.503,16.451 4.360 C 15.699 2.351,13.708 1.093,11.579 1.280 M4.020 8.987 C 3.835 9.085,3.755 9.166,3.675 9.340 C 3.610 9.483,3.602 9.618,3.601 10.580 C 3.600 11.754,3.641 12.361,3.763 12.980 C 3.867 13.503,4.092 14.227,4.263 14.587 C 4.389 14.851,4.418 14.883,4.621 14.982 C 4.795 15.067,4.880 15.086,5.022 15.070 C 5.389 15.028,5.680 14.711,5.680 14.352 C 5.680 14.254,5.604 13.959,5.502 13.660 C 5.172 12.696,5.084 12.011,5.081 10.373 C 5.081 9.847,5.063 9.439,5.037 9.373 C 4.980 9.219,4.807 9.042,4.651 8.975 C 4.481 8.902,4.169 8.908,4.020 8.987 M19.340 8.977 C 19.191 9.043,19.019 9.224,18.963 9.373 C 18.937 9.440,18.920 9.858,18.919 10.413 C 18.916 12.364,18.770 13.185,18.219 14.348 C 17.968 14.880,17.941 14.982,17.999 15.195 C 18.149 15.754,18.861 15.948,19.248 15.535 C 19.396 15.377,19.805 14.510,19.977 13.990 C 20.296 13.028,20.400 12.195,20.400 10.612 C 20.400 9.464,20.384 9.341,20.208 9.147 C 20.021 8.940,19.605 8.858,19.340 8.977 " stroke="none" fill-rule="evenodd" fill="black"></path></svg>