<svg width="24" height="24" viewBox="0 0 24 24" fill="none" xmlns="http://www.w3.org/2000/svg"><path d="M8.080 1.282 C 4.042 1.493,1.931 3.265,1.398 6.891 C 1.310 7.494,1.225 8.895,1.264 9.113 C 1.278 9.194,1.325 9.318,1.368 9.389 C 1.658 9.870,2.422 9.836,2.661 9.332 C 2.718 9.212,2.740 9.022,2.765 8.423 C 2.900 5.187,3.905 3.654,6.288 3.044 C 7.337 2.776,7.247 2.780,12.000 2.780 C 16.745 2.780,16.622 2.774,17.688 3.040 C 19.520 3.496,20.504 4.481,20.960 6.312 C 21.163 7.129,21.208 7.555,21.235 8.940 C 21.259 10.188,21.262 10.224,21.353 10.369 C 21.710 10.943,22.576 10.812,22.716 10.162 C 22.799 9.775,22.742 7.885,22.622 7.027 C 22.359 5.157,21.686 3.741,20.641 2.857 C 19.477 1.874,18.011 1.396,15.806 1.280 C 14.952 1.235,8.952 1.237,8.080 1.282 M20.720 12.002 C 20.479 12.030,17.605 12.795,17.201 12.939 C 17.103 12.974,16.948 13.046,16.857 13.099 C 16.634 13.230,16.274 13.626,16.161 13.865 C 15.965 14.279,15.961 14.332,15.960 16.474 C 15.960 18.327,15.955 18.487,15.894 18.463 C 15.718 18.396,15.267 18.364,14.988 18.399 C 14.447 18.468,14.007 18.701,13.637 19.114 C 12.749 20.106,12.964 21.659,14.091 22.398 C 14.717 22.809,15.589 22.850,16.279 22.500 C 16.646 22.315,17.041 21.910,17.244 21.512 C 17.434 21.140,17.443 21.021,17.440 18.952 L 17.438 17.004 17.609 16.958 C 18.153 16.813,21.148 15.995,21.190 15.980 C 21.229 15.966,21.240 16.135,21.240 16.738 L 21.240 17.514 21.110 17.475 C 21.038 17.453,20.798 17.433,20.575 17.431 C 20.253 17.428,20.110 17.446,19.880 17.520 C 19.311 17.703,18.731 18.247,18.521 18.795 C 18.339 19.270,18.339 19.928,18.520 20.401 C 18.713 20.905,19.255 21.447,19.759 21.640 C 20.235 21.823,20.926 21.820,21.370 21.634 C 21.867 21.426,22.316 21.000,22.545 20.520 C 22.758 20.072,22.766 19.913,22.750 16.568 C 22.737 13.835,22.728 13.475,22.668 13.269 C 22.398 12.346,21.699 11.891,20.720 12.002 M1.720 12.285 C 1.591 12.336,1.411 12.508,1.326 12.660 C 1.180 12.924,1.229 15.958,1.398 17.107 C 1.885 20.415,3.654 22.148,7.027 22.622 C 7.934 22.749,10.713 22.812,11.162 22.716 C 11.828 22.573,11.943 21.639,11.332 21.336 C 11.192 21.266,11.035 21.258,9.400 21.235 C 7.476 21.208,7.215 21.184,6.312 20.960 C 4.489 20.506,3.509 19.532,3.044 17.712 C 2.820 16.833,2.790 16.496,2.764 14.560 C 2.743 13.008,2.731 12.765,2.673 12.660 C 2.586 12.502,2.407 12.335,2.267 12.283 C 2.129 12.230,1.854 12.231,1.720 12.285 M21.201 13.583 C 21.222 13.639,21.240 13.852,21.240 14.055 L 21.240 14.426 19.370 14.933 C 18.341 15.212,17.487 15.440,17.470 15.440 C 17.419 15.440,17.437 14.668,17.491 14.564 C 17.518 14.511,17.585 14.435,17.640 14.395 C 17.778 14.294,20.731 13.485,20.971 13.482 C 21.140 13.480,21.166 13.492,21.201 13.583 M20.970 19.050 C 21.167 19.200,21.253 19.402,21.231 19.663 C 21.199 20.060,20.901 20.305,20.493 20.271 C 20.059 20.235,19.811 19.882,19.897 19.424 C 19.929 19.253,20.092 19.049,20.258 18.974 C 20.452 18.886,20.804 18.923,20.970 19.050 M15.623 19.979 C 15.815 20.092,15.960 20.342,15.960 20.560 C 15.960 20.778,15.815 21.028,15.623 21.141 C 15.152 21.416,14.591 21.100,14.591 20.560 C 14.591 20.019,15.152 19.704,15.623 19.979 " stroke="none" fill-rule="evenodd" fill="black"></path></svg>