<svg width="24" height="24" viewBox="0 0 24 24" fill="none" xmlns="http://www.w3.org/2000/svg"><path d="M8.080 1.282 C 4.042 1.493,1.931 3.265,1.398 6.891 C 1.310 7.494,1.225 8.895,1.264 9.113 C 1.278 9.194,1.325 9.318,1.368 9.389 C 1.658 9.870,2.422 9.836,2.661 9.332 C 2.718 9.212,2.740 9.022,2.765 8.423 C 2.900 5.187,3.905 3.654,6.288 3.044 C 7.337 2.776,7.247 2.780,12.000 2.780 C 15.936 2.780,16.339 2.786,16.760 2.852 C 19.558 3.288,20.712 4.442,21.148 7.240 C 21.214 7.661,21.220 8.064,21.220 12.000 C 21.220 15.936,21.214 16.339,21.148 16.760 C 20.712 19.558,19.558 20.712,16.760 21.148 C 16.339 21.214,15.936 21.220,12.000 21.220 C 8.064 21.220,7.661 21.214,7.240 21.148 C 4.756 20.761,3.576 19.795,3.044 17.712 C 2.819 16.830,2.790 16.498,2.764 14.540 C 2.738 12.593,2.742 12.625,2.513 12.412 C 2.391 12.297,2.155 12.200,2.000 12.200 C 1.745 12.200,1.460 12.378,1.326 12.620 C 1.180 12.885,1.229 15.959,1.398 17.107 C 1.885 20.415,3.654 22.148,7.027 22.622 C 7.786 22.728,8.902 22.759,12.000 22.759 C 15.098 22.759,16.214 22.728,16.973 22.622 C 19.443 22.275,20.996 21.288,21.897 19.490 C 22.379 18.530,22.638 17.369,22.720 15.807 C 22.771 14.838,22.771 9.162,22.720 8.193 C 22.657 6.998,22.521 6.191,22.242 5.356 C 21.632 3.531,20.469 2.367,18.650 1.760 C 17.788 1.473,17.023 1.344,15.806 1.280 C 14.952 1.235,8.952 1.237,8.080 1.282 M7.815 11.278 C 7.331 11.393,7.098 12.004,7.383 12.408 C 7.447 12.499,7.572 12.610,7.660 12.656 C 7.815 12.738,7.880 12.740,9.875 12.752 C 12.208 12.765,12.281 12.759,12.519 12.521 C 12.918 12.122,12.731 11.423,12.189 11.286 C 11.980 11.234,8.031 11.226,7.815 11.278 M14.805 11.280 C 14.547 11.341,14.307 11.597,14.257 11.864 C 14.185 12.245,14.441 12.633,14.823 12.722 C 15.043 12.773,15.915 12.769,16.162 12.716 C 16.905 12.556,16.925 11.472,16.189 11.286 C 15.984 11.235,15.015 11.230,14.805 11.280 " stroke="none" fill-rule="evenodd" fill="black"></path></svg>