<svg width="24" height="24" viewBox="0 0 24 24" fill="none" xmlns="http://www.w3.org/2000/svg"><path d="M5.815 11.277 C 5.330 11.395,5.098 12.004,5.383 12.408 C 5.447 12.499,5.572 12.610,5.660 12.656 C 5.818 12.739,5.855 12.740,8.800 12.740 C 10.439 12.740,11.829 12.726,11.889 12.709 C 12.041 12.667,12.281 12.447,12.346 12.292 C 12.457 12.027,12.401 11.711,12.207 11.506 C 11.961 11.246,12.158 11.261,8.900 11.253 C 7.272 11.250,5.884 11.261,5.815 11.277 M15.815 11.278 C 15.331 11.393,15.098 12.004,15.383 12.408 C 15.605 12.722,15.676 12.738,16.869 12.753 C 18.122 12.768,18.296 12.744,18.519 12.521 C 18.918 12.122,18.731 11.423,18.189 11.286 C 17.983 11.235,16.025 11.228,15.815 11.278 " stroke="none" fill-rule="evenodd" fill="black"></path></svg>