<svg width="24" height="24" viewBox="0 0 24 24" fill="none" xmlns="http://www.w3.org/2000/svg"><path d="M6.458 2.283 C 5.617 2.344,4.882 2.542,4.186 2.896 C 3.639 3.174,3.292 3.425,2.859 3.859 C 2.107 4.611,1.631 5.505,1.401 6.600 C 1.302 7.073,1.225 8.144,1.247 8.760 C 1.261 9.155,1.277 9.246,1.355 9.371 C 1.663 9.870,2.412 9.847,2.663 9.332 C 2.726 9.202,2.741 9.036,2.763 8.180 C 2.781 7.511,2.811 7.087,2.852 6.899 C 3.215 5.272,4.351 4.159,5.980 3.836 C 6.395 3.753,17.605 3.753,18.020 3.836 C 19.648 4.159,20.806 5.294,21.144 6.897 C 21.176 7.051,21.218 7.415,21.238 7.708 C 21.267 8.142,21.289 8.265,21.359 8.379 C 21.612 8.787,22.183 8.857,22.520 8.520 C 22.725 8.315,22.760 8.133,22.715 7.497 C 22.653 6.604,22.467 5.900,22.104 5.186 C 21.826 4.639,21.575 4.292,21.141 3.859 C 20.175 2.893,19.007 2.393,17.455 2.281 C 16.797 2.233,7.119 2.236,6.458 2.283 M3.446 11.000 C 3.051 11.169,2.857 11.601,3.002 11.987 C 3.117 12.290,3.364 12.423,4.000 12.521 C 4.398 12.582,5.138 12.769,5.560 12.914 C 6.878 13.368,8.014 14.084,9.009 15.088 C 10.366 16.459,11.170 18.100,11.542 20.260 C 11.607 20.637,11.620 20.669,11.776 20.826 C 12.127 21.178,12.598 21.140,12.905 20.736 C 13.012 20.596,13.020 20.562,13.015 20.243 C 13.005 19.646,12.718 18.481,12.351 17.543 C 11.265 14.774,9.100 12.643,6.299 11.586 C 5.314 11.214,3.714 10.886,3.446 11.000 M21.619 11.817 C 21.529 11.871,21.415 11.990,21.359 12.087 L 21.260 12.260 21.236 14.560 C 21.209 17.039,21.210 17.030,20.979 17.680 C 20.594 18.761,19.761 19.594,18.681 19.979 C 18.128 20.175,17.882 20.209,16.797 20.235 L 15.774 20.260 15.612 20.367 C 15.372 20.526,15.267 20.721,15.267 21.007 C 15.267 21.203,15.286 21.270,15.383 21.408 C 15.565 21.665,15.737 21.732,16.259 21.752 C 16.852 21.775,17.929 21.698,18.400 21.599 C 19.157 21.440,19.910 21.117,20.502 20.699 C 20.859 20.447,21.447 19.859,21.699 19.502 C 21.951 19.145,22.282 18.493,22.415 18.093 C 22.706 17.216,22.771 16.435,22.753 14.000 L 22.740 12.260 22.634 12.080 C 22.427 11.728,21.967 11.609,21.619 11.817 M2.392 14.360 C 1.974 14.486,1.758 15.004,1.960 15.399 C 2.094 15.662,2.258 15.755,2.747 15.843 C 3.385 15.958,3.880 16.099,4.357 16.301 C 6.347 17.147,7.782 18.986,8.144 21.154 C 8.225 21.638,8.310 21.838,8.498 21.981 C 8.671 22.113,8.986 22.157,9.215 22.082 C 9.396 22.022,9.630 21.752,9.666 21.563 C 9.699 21.389,9.630 20.889,9.499 20.346 C 9.138 18.858,8.473 17.667,7.403 16.597 C 6.186 15.380,4.761 14.659,3.030 14.382 C 2.601 14.314,2.550 14.312,2.392 14.360 M1.660 18.193 C 1.469 18.284,1.384 18.373,1.302 18.570 C 1.166 18.893,1.275 19.279,1.553 19.466 C 1.626 19.515,1.787 19.575,1.912 19.599 C 2.304 19.674,2.785 19.842,3.044 19.994 C 3.364 20.182,3.819 20.638,4.011 20.964 C 4.165 21.223,4.320 21.673,4.401 22.088 C 4.458 22.383,4.578 22.558,4.799 22.670 C 5.007 22.775,5.223 22.785,5.430 22.698 C 5.622 22.618,5.711 22.535,5.809 22.341 C 5.877 22.209,5.886 22.137,5.866 21.901 C 5.759 20.662,4.926 19.376,3.800 18.711 C 3.033 18.257,2.032 18.015,1.660 18.193 " stroke="none" fill-rule="evenodd" fill="black"></path></svg>