<svg width="24" height="24" viewBox="0 0 24 24" fill="none" xmlns="http://www.w3.org/2000/svg"><path d="M11.815 1.279 C 11.332 1.392,11.098 2.004,11.383 2.408 C 11.569 2.671,11.715 2.723,12.371 2.762 C 14.220 2.872,15.825 3.589,17.118 4.882 C 18.158 5.922,18.832 7.183,19.127 8.640 C 19.208 9.041,19.220 9.216,19.220 10.000 C 19.220 10.784,19.208 10.959,19.127 11.360 C 18.832 12.817,18.158 14.078,17.118 15.118 C 16.078 16.158,14.817 16.832,13.360 17.127 C 12.959 17.208,12.784 17.220,12.000 17.220 C 11.216 17.220,11.041 17.208,10.640 17.127 C 9.183 16.832,7.922 16.158,6.882 15.118 C 5.842 14.078,5.168 12.817,4.873 11.360 C 4.792 10.959,4.780 10.785,4.781 10.000 C 4.781 9.229,4.794 9.036,4.870 8.657 C 5.123 7.404,5.680 6.244,6.482 5.300 C 6.839 4.880,7.012 4.716,7.540 4.292 C 8.054 3.880,8.176 3.699,8.149 3.391 C 8.114 2.995,7.801 2.720,7.386 2.720 C 7.202 2.720,7.134 2.743,6.954 2.864 C 5.517 3.830,4.275 5.504,3.704 7.242 C 3.383 8.221,3.272 8.941,3.273 10.040 C 3.274 11.449,3.542 12.603,4.160 13.860 C 5.027 15.621,6.378 16.972,8.140 17.840 C 9.410 18.465,10.551 18.727,12.000 18.727 C 13.092 18.727,13.912 18.593,14.897 18.254 C 16.082 17.845,17.485 16.947,18.300 16.074 C 19.595 14.690,20.386 13.064,20.661 11.220 C 20.739 10.695,20.751 9.473,20.682 8.940 C 20.398 6.730,19.288 4.681,17.632 3.311 C 16.333 2.237,14.817 1.561,13.220 1.345 C 12.681 1.272,11.984 1.239,11.815 1.279 M5.815 21.278 C 5.331 21.393,5.098 22.004,5.383 22.408 C 5.447 22.499,5.572 22.610,5.660 22.656 C 5.818 22.739,5.858 22.740,9.379 22.751 C 11.882 22.759,13.001 22.749,13.152 22.717 C 13.902 22.562,13.930 21.473,13.189 21.286 C 12.979 21.234,6.034 21.226,5.815 21.278 M15.815 21.278 C 15.331 21.393,15.098 22.004,15.383 22.408 C 15.605 22.722,15.676 22.738,16.869 22.753 C 18.122 22.768,18.296 22.744,18.519 22.521 C 18.918 22.122,18.731 21.423,18.189 21.286 C 17.983 21.235,16.025 21.228,15.815 21.278 " stroke="none" fill-rule="evenodd" fill="black"></path></svg>