<svg width="24" height="24" viewBox="0 0 24 24" fill="none" xmlns="http://www.w3.org/2000/svg"><path d="M8.009 1.281 C 6.599 1.362,5.702 1.598,4.971 2.079 C 3.987 2.727,3.501 3.736,3.313 5.520 C 3.236 6.247,3.236 17.752,3.313 18.480 C 3.469 19.956,3.812 20.851,4.481 21.519 C 5.149 22.188,6.044 22.531,7.520 22.687 C 8.238 22.763,15.762 22.763,16.480 22.687 C 17.956 22.531,18.851 22.188,19.519 21.519 C 20.188 20.851,20.532 19.955,20.687 18.480 C 20.726 18.107,20.740 17.080,20.740 14.440 C 20.740 12.493,20.727 10.852,20.710 10.793 C 20.638 10.535,20.292 10.283,20.009 10.281 C 19.747 10.279,19.462 10.454,19.326 10.700 C 19.266 10.808,19.258 11.187,19.237 14.640 C 19.217 18.022,19.207 18.504,19.146 18.840 C 19.051 19.357,18.977 19.608,18.814 19.951 C 18.499 20.615,17.922 20.960,16.815 21.147 C 16.412 21.215,16.060 21.220,12.000 21.220 C 7.923 21.220,7.590 21.215,7.180 21.146 C 6.440 21.021,5.904 20.807,5.565 20.499 C 5.241 20.205,4.986 19.603,4.854 18.820 C 4.784 18.405,4.780 18.023,4.780 12.000 C 4.780 5.977,4.784 5.595,4.854 5.180 C 4.979 4.440,5.193 3.904,5.501 3.565 C 5.795 3.241,6.397 2.986,7.180 2.854 C 7.590 2.785,7.923 2.780,12.000 2.780 C 16.077 2.780,16.410 2.785,16.820 2.854 C 17.576 2.981,18.182 3.232,18.478 3.539 C 18.788 3.861,19.026 4.449,19.142 5.179 C 19.177 5.398,19.219 5.949,19.235 6.403 C 19.263 7.159,19.274 7.240,19.356 7.373 C 19.612 7.788,20.181 7.859,20.521 7.519 C 20.745 7.295,20.773 7.110,20.721 6.158 C 20.635 4.573,20.424 3.736,19.921 2.971 C 19.283 2.003,18.298 1.520,16.540 1.315 C 16.060 1.259,8.892 1.231,8.009 1.281 M9.720 4.805 C 9.458 4.909,9.269 5.200,9.269 5.500 C 9.269 5.807,9.460 6.095,9.733 6.197 C 9.807 6.226,10.575 6.240,12.000 6.240 C 13.425 6.240,14.193 6.226,14.267 6.197 C 14.540 6.095,14.731 5.807,14.731 5.500 C 14.731 5.193,14.540 4.905,14.267 4.803 C 14.119 4.746,9.862 4.748,9.720 4.805 M11.660 15.281 C 10.785 15.399,10.003 16.093,9.783 16.946 C 9.704 17.255,9.702 17.833,9.780 18.132 C 10.041 19.136,10.962 19.842,12.008 19.839 C 12.646 19.838,13.127 19.634,13.605 19.161 C 14.077 18.694,14.280 18.217,14.280 17.574 C 14.280 16.895,14.079 16.396,13.621 15.940 C 13.089 15.410,12.405 15.180,11.660 15.281 M12.357 16.838 C 12.665 16.995,12.828 17.302,12.787 17.647 C 12.752 17.937,12.598 18.138,12.300 18.281 C 12.083 18.386,11.894 18.379,11.652 18.259 C 10.898 17.883,11.151 16.768,11.992 16.762 C 12.125 16.761,12.260 16.789,12.357 16.838 " stroke="none" fill-rule="evenodd" fill="black"></path></svg>