<svg width="24" height="24" viewBox="0 0 24 24" fill="none" xmlns="http://www.w3.org/2000/svg"><path d="M6.372 3.283 C 3.795 3.447,2.066 4.793,1.477 7.091 C 1.275 7.880,1.270 7.997,1.251 11.660 L 1.233 15.099 1.061 15.360 C 0.596 16.063,0.355 16.762,0.280 17.619 C 0.164 18.946,0.634 20.277,1.567 21.263 C 3.150 22.937,5.714 23.219,7.653 21.932 C 7.979 21.715,8.486 21.246,8.707 20.956 L 8.856 20.760 12.878 20.760 C 15.109 20.760,17.179 20.742,17.526 20.720 C 18.816 20.637,19.759 20.345,20.619 19.759 C 21.503 19.157,22.135 18.257,22.459 17.139 C 22.687 16.354,22.776 15.345,22.753 13.823 C 22.739 12.864,22.728 12.815,22.494 12.593 C 22.353 12.459,22.201 12.400,22.000 12.400 C 21.799 12.400,21.647 12.459,21.506 12.593 C 21.260 12.826,21.263 12.803,21.235 14.460 C 21.211 15.901,21.204 16.002,21.108 16.405 C 20.749 17.906,19.919 18.737,18.405 19.111 L 17.980 19.216 13.790 19.230 C 11.486 19.237,9.600 19.229,9.600 19.212 C 9.600 19.194,9.629 19.045,9.664 18.880 C 9.759 18.432,9.750 17.566,9.644 17.056 C 9.309 15.430,8.191 14.133,6.616 13.540 C 5.506 13.122,3.985 13.197,2.958 13.721 C 2.873 13.764,2.792 13.800,2.779 13.800 C 2.766 13.800,2.762 12.500,2.770 10.910 L 2.785 8.020 2.889 7.595 C 3.083 6.805,3.357 6.282,3.820 5.820 C 4.288 5.352,4.812 5.079,5.615 4.887 L 6.060 4.780 12.000 4.780 L 17.940 4.780 18.385 4.887 C 19.188 5.079,19.712 5.352,20.180 5.820 C 20.836 6.476,21.159 7.336,21.236 8.633 C 21.266 9.144,21.285 9.258,21.359 9.378 C 21.705 9.938,22.581 9.806,22.712 9.174 C 22.751 8.985,22.720 8.167,22.658 7.760 C 22.419 6.192,21.725 4.994,20.619 4.241 C 19.759 3.655,18.816 3.363,17.526 3.280 C 16.793 3.233,7.110 3.236,6.372 3.283 M11.405 8.805 C 10.790 8.907,10.216 9.217,9.716 9.716 C 9.065 10.368,8.761 11.095,8.761 12.000 C 8.761 12.905,9.065 13.632,9.716 14.284 C 10.347 14.914,11.098 15.239,11.927 15.240 C 12.199 15.240,12.341 15.192,12.494 15.047 C 12.661 14.889,12.731 14.727,12.731 14.499 C 12.731 14.276,12.684 14.158,12.525 13.987 C 12.371 13.821,12.312 13.798,11.882 13.742 C 11.389 13.678,11.110 13.552,10.798 13.255 C 10.071 12.561,10.071 11.439,10.798 10.745 C 11.508 10.068,12.580 10.090,13.255 10.798 C 13.552 11.110,13.678 11.389,13.742 11.882 C 13.798 12.312,13.821 12.371,13.987 12.525 C 14.158 12.684,14.276 12.731,14.499 12.731 C 14.727 12.731,14.889 12.661,15.047 12.494 C 15.192 12.341,15.240 12.199,15.240 11.927 C 15.239 11.098,14.914 10.347,14.284 9.716 C 13.619 9.052,12.889 8.753,11.960 8.765 C 11.773 8.767,11.523 8.785,11.405 8.805 M18.180 8.835 C 17.990 8.923,17.904 9.012,17.822 9.210 C 17.768 9.338,17.760 9.712,17.761 12.009 C 17.762 14.496,17.766 14.670,17.835 14.820 C 17.923 15.010,18.012 15.096,18.210 15.178 C 18.398 15.257,18.602 15.257,18.790 15.178 C 18.988 15.096,19.077 15.010,19.165 14.820 C 19.234 14.670,19.238 14.496,19.238 12.000 C 19.238 9.504,19.234 9.330,19.165 9.180 C 19.077 8.990,18.988 8.904,18.790 8.822 C 18.595 8.740,18.376 8.745,18.180 8.835 M5.940 14.880 C 6.245 14.977,6.680 15.183,6.680 15.230 C 6.680 15.265,2.271 19.680,2.236 19.680 C 2.184 19.680,1.917 19.039,1.837 18.720 C 1.765 18.432,1.755 18.301,1.771 17.860 C 1.804 16.956,2.063 16.368,2.716 15.716 C 3.214 15.218,3.665 14.963,4.300 14.817 C 4.675 14.731,5.583 14.765,5.940 14.880 M7.915 16.550 C 8.132 16.981,8.208 17.296,8.229 17.860 C 8.245 18.301,8.235 18.432,8.163 18.720 C 7.922 19.685,7.310 20.465,6.465 20.881 C 6.242 20.991,5.918 21.117,5.744 21.161 C 5.312 21.269,4.684 21.268,4.256 21.159 C 3.956 21.082,3.320 20.814,3.320 20.764 C 3.320 20.729,7.735 16.320,7.769 16.320 C 7.786 16.320,7.851 16.424,7.915 16.550 " stroke="none" fill-rule="evenodd" fill="black"></path></svg>