<svg width="24" height="24" viewBox="0 0 24 24" fill="none" xmlns="http://www.w3.org/2000/svg"><path d="M5.540 2.802 C 2.755 2.990,1.120 4.665,0.973 7.483 C 0.943 8.051,0.969 8.202,1.128 8.383 C 1.296 8.575,1.460 8.651,1.700 8.651 C 1.927 8.651,2.089 8.581,2.247 8.414 C 2.392 8.261,2.440 8.119,2.440 7.847 C 2.441 7.722,2.459 7.458,2.481 7.260 C 2.672 5.558,3.577 4.586,5.200 4.338 C 5.781 4.250,15.307 4.252,15.825 4.341 C 17.374 4.606,18.220 5.455,18.461 6.986 C 18.515 7.325,18.522 7.844,18.511 10.680 L 18.498 13.980 18.394 14.360 C 18.003 15.785,17.124 16.498,15.535 16.679 C 15.256 16.711,13.708 16.720,10.260 16.709 C 5.492 16.695,5.371 16.692,4.980 16.611 C 4.497 16.509,4.302 16.441,3.960 16.254 C 3.108 15.787,2.622 14.960,2.482 13.739 C 2.459 13.542,2.441 13.035,2.440 12.613 C 2.440 12.169,2.422 11.798,2.397 11.733 C 2.344 11.591,2.176 11.412,2.021 11.331 C 1.867 11.250,1.532 11.251,1.375 11.332 C 1.197 11.424,1.008 11.656,0.977 11.821 C 0.927 12.090,0.986 13.955,1.057 14.340 C 1.393 16.163,2.349 17.305,4.054 17.924 C 4.197 17.976,4.217 18.003,4.318 18.280 C 4.816 19.642,5.765 20.528,7.180 20.951 C 7.981 21.191,7.683 21.180,13.520 21.180 L 18.860 21.180 19.288 21.090 C 20.704 20.790,21.659 20.154,22.317 19.069 C 22.835 18.217,23.040 17.263,23.040 15.711 C 23.040 14.930,23.032 14.821,22.964 14.688 C 22.817 14.402,22.614 14.280,22.287 14.280 C 22.052 14.280,21.861 14.376,21.703 14.574 L 21.580 14.727 21.555 15.754 C 21.528 16.852,21.480 17.211,21.293 17.734 C 20.891 18.855,20.009 19.502,18.640 19.679 C 18.238 19.731,8.762 19.731,8.360 19.679 C 7.567 19.576,6.932 19.310,6.479 18.891 C 6.233 18.663,5.960 18.333,5.960 18.263 C 5.960 18.250,7.963 18.239,10.410 18.239 C 14.895 18.237,15.614 18.220,16.264 18.098 C 18.232 17.730,19.489 16.481,19.928 14.458 C 20.011 14.073,20.014 13.956,20.029 10.910 C 20.038 9.099,20.059 7.760,20.080 7.760 C 20.160 7.760,20.633 8.162,20.813 8.383 C 21.268 8.942,21.559 9.904,21.560 10.847 C 21.560 11.119,21.608 11.261,21.753 11.414 C 21.911 11.581,22.073 11.651,22.300 11.651 C 22.607 11.651,22.895 11.460,22.997 11.187 C 23.097 10.924,23.018 9.917,22.842 9.223 C 22.628 8.374,22.241 7.671,21.685 7.117 C 21.228 6.663,20.743 6.361,20.082 6.119 L 19.784 6.010 19.698 5.755 C 19.330 4.666,18.530 3.771,17.501 3.297 C 16.878 3.010,16.253 2.861,15.413 2.801 C 14.777 2.755,6.220 2.756,5.540 2.802 M9.844 7.182 C 9.123 7.338,8.623 7.608,8.116 8.116 C 7.171 9.061,6.883 10.346,7.320 11.661 C 7.604 12.514,8.486 13.396,9.339 13.680 C 10.118 13.939,10.729 13.942,11.014 13.688 C 11.130 13.586,11.238 13.320,11.238 13.140 C 11.238 12.938,11.122 12.679,10.983 12.569 C 10.844 12.460,10.684 12.413,10.348 12.382 C 9.838 12.336,9.452 12.139,9.089 11.742 C 8.704 11.321,8.541 10.766,8.635 10.199 C 8.705 9.776,8.848 9.506,9.177 9.177 C 9.609 8.745,10.103 8.560,10.672 8.617 C 11.589 8.710,12.298 9.427,12.382 10.348 C 12.396 10.498,12.424 10.677,12.446 10.748 C 12.569 11.152,13.053 11.352,13.460 11.165 C 13.839 10.991,13.948 10.643,13.837 9.960 C 13.722 9.249,13.421 8.663,12.900 8.135 C 12.373 7.602,11.889 7.339,11.139 7.181 C 10.794 7.107,10.185 7.108,9.844 7.182 M4.460 7.635 C 4.270 7.723,4.184 7.812,4.102 8.010 C 4.048 8.137,4.040 8.482,4.041 10.509 C 4.042 12.705,4.047 12.871,4.115 13.020 C 4.203 13.210,4.292 13.296,4.490 13.378 C 4.678 13.457,4.882 13.457,5.070 13.378 C 5.268 13.296,5.357 13.210,5.445 13.020 C 5.513 12.870,5.518 12.705,5.518 10.500 C 5.518 8.295,5.513 8.130,5.445 7.980 C 5.357 7.790,5.268 7.704,5.070 7.622 C 4.875 7.540,4.656 7.545,4.460 7.635 M15.900 7.635 C 15.710 7.723,15.624 7.812,15.542 8.010 C 15.488 8.137,15.480 8.482,15.481 10.509 C 15.482 12.705,15.487 12.871,15.555 13.020 C 15.643 13.210,15.732 13.296,15.930 13.378 C 16.118 13.457,16.322 13.457,16.510 13.378 C 16.708 13.296,16.797 13.210,16.885 13.020 C 16.953 12.870,16.958 12.705,16.958 10.500 C 16.958 8.295,16.953 8.130,16.885 7.980 C 16.797 7.790,16.708 7.704,16.510 7.622 C 16.315 7.540,16.096 7.545,15.900 7.635 " stroke="none" fill-rule="evenodd" fill="black"></path></svg>