<svg width="24" height="24" viewBox="0 0 24 24" fill="none" xmlns="http://www.w3.org/2000/svg"><path d="M6.372 3.283 C 4.607 3.395,3.209 4.075,2.340 5.243 C 1.785 5.988,1.463 6.843,1.316 7.960 C 1.284 8.200,1.264 8.870,1.263 9.780 C 1.260 11.219,1.260 11.220,1.353 11.369 C 1.664 11.870,2.408 11.849,2.664 11.332 C 2.733 11.194,2.742 11.036,2.765 9.600 C 2.789 8.093,2.795 8.000,2.892 7.595 C 3.079 6.813,3.355 6.284,3.820 5.820 C 4.288 5.352,4.812 5.079,5.615 4.887 L 6.060 4.780 12.000 4.780 L 17.940 4.780 18.385 4.887 C 19.188 5.079,19.712 5.352,20.180 5.820 C 20.836 6.476,21.159 7.336,21.236 8.633 C 21.266 9.144,21.285 9.258,21.359 9.378 C 21.705 9.938,22.581 9.806,22.712 9.174 C 22.751 8.985,22.720 8.167,22.658 7.760 C 22.419 6.192,21.725 4.994,20.619 4.241 C 19.759 3.655,18.816 3.363,17.526 3.280 C 16.793 3.233,7.110 3.236,6.372 3.283 M11.405 8.805 C 10.790 8.907,10.216 9.217,9.716 9.716 C 9.065 10.368,8.761 11.095,8.761 12.000 C 8.761 12.905,9.065 13.632,9.716 14.284 C 10.347 14.914,11.098 15.239,11.927 15.240 C 12.199 15.240,12.341 15.192,12.494 15.047 C 12.661 14.889,12.731 14.727,12.731 14.499 C 12.731 14.276,12.684 14.158,12.525 13.987 C 12.371 13.821,12.312 13.798,11.882 13.742 C 11.389 13.678,11.110 13.552,10.798 13.255 C 10.071 12.561,10.071 11.439,10.798 10.745 C 11.508 10.068,12.580 10.090,13.255 10.798 C 13.552 11.110,13.678 11.389,13.742 11.882 C 13.798 12.312,13.821 12.371,13.987 12.525 C 14.158 12.684,14.276 12.731,14.499 12.731 C 14.727 12.731,14.889 12.661,15.047 12.494 C 15.192 12.341,15.240 12.199,15.240 11.927 C 15.239 11.098,14.914 10.347,14.284 9.716 C 13.619 9.052,12.889 8.753,11.960 8.765 C 11.773 8.767,11.523 8.785,11.405 8.805 M18.180 8.835 C 17.990 8.923,17.904 9.012,17.822 9.210 C 17.768 9.338,17.760 9.712,17.761 12.009 C 17.762 14.496,17.766 14.670,17.835 14.820 C 17.923 15.010,18.012 15.096,18.210 15.178 C 18.398 15.257,18.602 15.257,18.790 15.178 C 18.988 15.096,19.077 15.010,19.165 14.820 C 19.234 14.670,19.238 14.496,19.238 12.000 C 19.238 9.504,19.234 9.330,19.165 9.180 C 19.077 8.990,18.988 8.904,18.790 8.822 C 18.595 8.740,18.376 8.745,18.180 8.835 M21.720 12.445 C 21.590 12.496,21.410 12.668,21.327 12.820 C 21.270 12.923,21.257 13.157,21.235 14.460 C 21.211 15.901,21.204 16.002,21.108 16.405 C 20.749 17.906,19.915 18.741,18.405 19.110 L 17.980 19.214 14.880 19.237 L 11.780 19.260 11.627 19.355 C 11.385 19.506,11.267 19.718,11.267 20.003 C 11.267 20.203,11.286 20.270,11.383 20.408 C 11.447 20.499,11.572 20.610,11.660 20.656 C 11.816 20.738,11.875 20.740,14.280 20.752 C 16.930 20.766,17.895 20.731,18.562 20.598 C 19.857 20.340,20.936 19.717,21.594 18.845 C 22.147 18.113,22.454 17.396,22.623 16.441 C 22.713 15.932,22.768 14.817,22.753 13.823 C 22.742 13.094,22.728 12.919,22.673 12.820 C 22.586 12.662,22.407 12.495,22.267 12.443 C 22.129 12.390,21.854 12.391,21.720 12.445 M3.049 13.559 C 2.838 13.609,2.650 13.765,1.970 14.452 C 1.429 15.000,1.321 15.130,1.281 15.278 C 1.209 15.542,1.259 15.767,1.437 15.989 C 1.678 16.291,2.726 17.301,2.879 17.380 C 3.051 17.468,3.380 17.473,3.541 17.389 C 3.696 17.308,3.864 17.129,3.917 16.987 C 3.983 16.815,3.968 16.553,3.884 16.388 L 3.809 16.240 5.586 16.240 C 7.576 16.240,7.595 16.242,7.701 16.497 C 7.745 16.603,7.760 16.819,7.761 17.369 C 7.762 18.296,7.819 18.455,8.210 18.618 C 8.405 18.700,8.624 18.695,8.820 18.605 C 9.195 18.433,9.240 18.287,9.240 17.250 C 9.240 16.346,9.208 16.130,9.016 15.751 C 8.881 15.486,8.514 15.119,8.249 14.984 C 7.820 14.767,7.740 14.760,5.696 14.760 L 3.809 14.760 3.884 14.612 C 4.021 14.343,3.973 14.004,3.767 13.786 C 3.576 13.584,3.306 13.499,3.049 13.559 M1.720 17.645 C 1.590 17.697,1.410 17.869,1.327 18.020 C 1.244 18.173,1.211 19.359,1.276 19.850 C 1.355 20.450,1.711 20.982,2.240 21.291 C 2.615 21.510,2.730 21.520,4.788 21.520 C 5.829 21.520,6.680 21.530,6.680 21.541 C 6.680 21.553,6.650 21.609,6.613 21.665 C 6.512 21.819,6.524 22.192,6.636 22.374 C 6.817 22.666,7.110 22.787,7.459 22.713 C 7.647 22.673,7.707 22.624,8.395 21.945 C 8.799 21.546,9.154 21.162,9.185 21.091 C 9.256 20.926,9.256 20.634,9.185 20.469 C 9.154 20.398,8.799 20.014,8.395 19.615 C 7.707 18.936,7.647 18.887,7.459 18.847 C 7.110 18.773,6.817 18.894,6.636 19.186 C 6.524 19.368,6.512 19.741,6.613 19.895 C 6.650 19.951,6.680 20.007,6.680 20.020 C 6.680 20.032,5.852 20.037,4.841 20.031 L 3.002 20.020 2.891 19.909 L 2.780 19.798 2.759 18.969 C 2.736 18.072,2.722 18.008,2.494 17.793 C 2.431 17.733,2.329 17.666,2.267 17.643 C 2.129 17.590,1.854 17.591,1.720 17.645 " stroke="none" fill-rule="evenodd" fill="black"></path></svg>