<svg width="24" height="24" viewBox="0 0 24 24" fill="none" xmlns="http://www.w3.org/2000/svg"><path d="M5.928 2.822 C 4.640 2.987,3.639 3.428,2.847 4.177 C 2.092 4.890,1.597 5.857,1.381 7.040 C 1.303 7.468,1.238 8.475,1.278 8.650 C 1.406 9.219,2.080 9.439,2.494 9.047 C 2.693 8.859,2.727 8.744,2.763 8.143 C 2.801 7.506,2.877 7.061,3.017 6.648 C 3.495 5.243,4.566 4.469,6.288 4.282 C 6.821 4.224,17.179 4.224,17.712 4.282 C 19.751 4.503,20.891 5.558,21.177 7.489 C 21.271 8.119,21.271 15.881,21.177 16.511 C 20.889 18.451,19.735 19.512,17.686 19.718 C 17.120 19.775,6.880 19.775,6.314 19.718 C 4.356 19.521,3.249 18.574,2.854 16.759 C 2.801 16.515,2.785 16.082,2.765 14.400 L 2.740 12.340 2.634 12.160 C 2.348 11.674,1.652 11.674,1.366 12.160 L 1.260 12.340 1.247 13.780 C 1.223 16.463,1.344 17.385,1.860 18.461 C 2.607 20.019,3.994 20.935,5.975 21.180 C 6.694 21.269,17.306 21.269,18.025 21.180 C 20.006 20.935,21.393 20.019,22.140 18.461 C 22.490 17.731,22.654 17.044,22.720 16.020 C 22.770 15.240,22.770 8.760,22.720 7.980 C 22.654 6.956,22.490 6.269,22.140 5.539 C 21.393 3.981,20.006 3.065,18.025 2.820 C 17.354 2.737,6.576 2.739,5.928 2.822 M11.595 8.282 C 10.585 8.392,9.634 8.924,9.031 9.719 C 8.793 10.032,8.468 10.687,8.382 11.025 C 8.231 11.624,8.231 12.376,8.382 12.975 C 8.468 13.313,8.793 13.968,9.031 14.281 C 9.397 14.763,9.848 15.118,10.452 15.400 C 11.039 15.675,11.724 15.788,12.380 15.720 C 13.087 15.646,13.372 15.486,13.480 15.100 C 13.622 14.591,13.227 14.118,12.709 14.176 C 12.167 14.237,11.722 14.246,11.507 14.201 C 10.745 14.043,10.021 13.347,9.821 12.578 C 9.743 12.279,9.743 11.724,9.820 11.428 C 10.018 10.667,10.667 10.018,11.428 9.820 C 11.724 9.743,12.279 9.743,12.578 9.821 C 13.256 9.998,13.868 10.557,14.120 11.230 C 14.166 11.351,14.220 11.630,14.241 11.850 C 14.268 12.134,14.303 12.288,14.362 12.384 C 14.705 12.938,15.580 12.802,15.713 12.174 C 15.760 11.949,15.715 11.407,15.617 11.027 C 15.539 10.724,15.298 10.202,15.097 9.899 C 14.577 9.115,13.683 8.517,12.773 8.344 C 12.347 8.263,11.959 8.243,11.595 8.282 M5.180 8.835 C 4.990 8.923,4.904 9.012,4.822 9.210 C 4.768 9.338,4.760 9.712,4.761 12.009 C 4.762 14.496,4.766 14.670,4.835 14.820 C 4.923 15.010,5.012 15.096,5.210 15.178 C 5.398 15.257,5.602 15.257,5.790 15.178 C 5.988 15.096,6.077 15.010,6.165 14.820 C 6.234 14.670,6.238 14.496,6.238 12.000 C 6.238 9.504,6.234 9.330,6.165 9.180 C 6.077 8.990,5.988 8.904,5.790 8.822 C 5.595 8.740,5.376 8.745,5.180 8.835 M18.180 8.835 C 17.990 8.923,17.904 9.012,17.822 9.210 C 17.768 9.338,17.760 9.712,17.761 12.009 C 17.762 14.496,17.766 14.670,17.835 14.820 C 17.923 15.010,18.012 15.096,18.210 15.178 C 18.398 15.257,18.602 15.257,18.790 15.178 C 18.988 15.096,19.077 15.010,19.165 14.820 C 19.234 14.670,19.238 14.496,19.238 12.000 C 19.238 9.504,19.234 9.330,19.165 9.180 C 19.077 8.990,18.988 8.904,18.790 8.822 C 18.595 8.740,18.376 8.745,18.180 8.835 " stroke="none" fill-rule="evenodd" fill="black"></path></svg>