<svg width="24" height="24" viewBox="0 0 24 24" fill="none" xmlns="http://www.w3.org/2000/svg"><path d="M5.928 2.822 C 4.640 2.987,3.639 3.428,2.847 4.177 C 2.092 4.890,1.597 5.857,1.381 7.040 C 1.303 7.468,1.238 8.475,1.278 8.650 C 1.406 9.219,2.080 9.439,2.494 9.047 C 2.693 8.859,2.727 8.744,2.763 8.143 C 2.801 7.506,2.877 7.061,3.017 6.648 C 3.495 5.243,4.566 4.469,6.288 4.282 C 6.821 4.224,17.179 4.224,17.712 4.282 C 19.751 4.503,20.891 5.558,21.177 7.489 C 21.271 8.119,21.271 15.881,21.177 16.511 C 20.889 18.451,19.735 19.512,17.686 19.718 C 17.120 19.775,6.880 19.775,6.314 19.718 C 4.356 19.521,3.249 18.574,2.854 16.759 C 2.801 16.515,2.785 16.082,2.765 14.400 L 2.740 12.340 2.634 12.160 C 2.348 11.674,1.652 11.674,1.366 12.160 L 1.260 12.340 1.247 13.780 C 1.223 16.463,1.344 17.385,1.860 18.461 C 2.607 20.019,3.994 20.935,5.975 21.180 C 6.694 21.269,17.306 21.269,18.025 21.180 C 20.006 20.935,21.393 20.019,22.140 18.461 C 22.490 17.731,22.654 17.044,22.720 16.020 C 22.770 15.240,22.770 8.760,22.720 7.980 C 22.654 6.956,22.490 6.269,22.140 5.539 C 21.393 3.981,20.006 3.065,18.025 2.820 C 17.354 2.737,6.576 2.739,5.928 2.822 M15.815 6.278 C 15.331 6.393,15.098 7.004,15.383 7.408 C 15.447 7.499,15.572 7.610,15.660 7.656 C 15.813 7.736,15.888 7.741,17.373 7.752 C 19.166 7.766,19.287 7.753,19.519 7.521 C 19.918 7.122,19.731 6.423,19.189 6.286 C 18.981 6.234,16.029 6.227,15.815 6.278 M11.595 8.282 C 10.585 8.392,9.634 8.924,9.031 9.719 C 8.793 10.032,8.468 10.687,8.382 11.025 C 8.231 11.624,8.231 12.376,8.382 12.975 C 8.468 13.313,8.793 13.968,9.031 14.281 C 9.501 14.900,10.288 15.427,11.027 15.617 C 11.407 15.715,11.949 15.760,12.174 15.713 C 12.723 15.597,12.924 14.884,12.522 14.482 C 12.360 14.320,12.131 14.240,11.831 14.240 C 11.361 14.240,10.829 13.992,10.419 13.581 C 9.959 13.121,9.760 12.644,9.760 12.000 C 9.760 11.355,9.960 10.871,10.416 10.416 C 10.871 9.960,11.355 9.760,12.000 9.760 C 12.595 9.760,13.084 9.947,13.514 10.339 C 13.953 10.740,14.180 11.211,14.241 11.850 C 14.268 12.134,14.303 12.288,14.362 12.384 C 14.705 12.938,15.580 12.802,15.713 12.174 C 15.760 11.949,15.715 11.407,15.617 11.027 C 15.539 10.724,15.298 10.202,15.097 9.899 C 14.577 9.115,13.683 8.517,12.773 8.344 C 12.347 8.263,11.959 8.243,11.595 8.282 M4.815 16.278 C 4.331 16.393,4.098 17.004,4.383 17.408 C 4.447 17.499,4.572 17.610,4.660 17.656 C 4.813 17.736,4.888 17.741,6.373 17.752 C 8.166 17.766,8.287 17.753,8.519 17.521 C 8.918 17.122,8.731 16.423,8.189 16.286 C 7.981 16.234,5.029 16.227,4.815 16.278 " stroke="none" fill-rule="evenodd" fill="black"></path></svg>