<svg width="24" height="24" viewBox="0 0 24 24" fill="none" xmlns="http://www.w3.org/2000/svg"><path d="M11.320 1.281 C 9.259 1.398,7.250 2.142,5.530 3.424 C 4.912 3.884,3.884 4.912,3.424 5.530 C 1.870 7.615,1.138 10.039,1.284 12.617 C 1.414 14.926,2.190 16.927,3.679 18.797 C 4.542 19.879,5.727 20.841,7.054 21.535 C 7.565 21.802,7.871 21.783,8.149 21.466 C 8.420 21.157,8.405 20.723,8.114 20.453 C 8.062 20.406,7.804 20.246,7.540 20.099 C 5.047 18.710,3.369 16.352,2.874 13.540 C 2.773 12.965,2.731 11.618,2.797 11.038 C 3.001 9.243,3.700 7.557,4.813 6.180 C 5.148 5.765,5.972 4.962,6.381 4.653 C 7.446 3.847,8.767 3.232,10.002 2.966 C 10.528 2.852,11.262 2.760,11.640 2.760 C 12.118 2.760,12.341 2.699,12.520 2.520 C 12.918 2.122,12.730 1.423,12.189 1.286 C 12.087 1.261,11.963 1.243,11.912 1.246 C 11.862 1.250,11.595 1.265,11.320 1.281 M21.900 1.259 C 21.878 1.267,21.806 1.285,21.740 1.299 C 21.651 1.319,21.122 1.822,19.690 3.252 L 17.760 5.178 17.760 4.111 C 17.760 2.861,17.736 2.696,17.522 2.482 C 17.173 2.133,16.619 2.203,16.353 2.631 L 16.260 2.780 16.248 4.920 C 16.239 6.380,16.249 7.107,16.279 7.208 C 16.337 7.408,16.503 7.596,16.698 7.685 C 16.848 7.753,17.008 7.758,18.908 7.759 C 20.256 7.760,21.027 7.745,21.162 7.716 C 21.723 7.596,21.929 6.889,21.522 6.482 C 21.301 6.261,21.163 6.240,19.913 6.240 L 18.822 6.240 20.747 4.310 C 22.595 2.457,22.673 2.372,22.711 2.189 C 22.782 1.847,22.658 1.530,22.389 1.367 C 22.265 1.292,21.983 1.229,21.900 1.259 M11.720 6.805 C 11.592 6.856,11.409 7.029,11.336 7.169 C 11.305 7.229,11.268 7.386,11.254 7.519 L 11.229 7.760 10.924 7.760 C 10.340 7.761,9.892 7.951,9.456 8.380 C 8.921 8.907,8.695 9.577,8.791 10.351 C 8.843 10.774,8.924 11.027,9.105 11.327 C 9.364 11.755,9.742 11.996,10.660 12.316 L 11.220 12.511 11.231 13.641 L 11.241 14.770 11.077 14.744 C 10.595 14.667,10.240 14.235,10.240 13.725 C 10.240 13.517,10.100 13.265,9.912 13.134 C 9.774 13.039,9.706 13.020,9.500 13.020 C 8.896 13.020,8.643 13.503,8.817 14.324 C 9.041 15.378,10.046 16.235,11.064 16.239 L 11.229 16.240 11.254 16.481 C 11.283 16.756,11.344 16.894,11.506 17.047 C 11.783 17.309,12.217 17.309,12.494 17.047 C 12.656 16.894,12.717 16.756,12.746 16.481 L 12.771 16.240 13.020 16.240 C 13.629 16.240,14.138 16.031,14.557 15.610 C 14.884 15.281,15.056 14.987,15.161 14.578 C 15.310 13.995,15.233 13.276,14.971 12.788 C 14.813 12.496,14.467 12.165,14.140 11.994 C 13.986 11.914,13.613 11.763,13.310 11.659 L 12.760 11.469 12.760 10.355 L 12.760 9.240 12.881 9.240 C 13.300 9.240,13.759 9.736,13.760 10.191 C 13.760 10.390,13.846 10.619,13.972 10.753 C 14.294 11.098,14.904 11.027,15.144 10.617 C 15.222 10.483,15.240 10.398,15.239 10.156 C 15.238 9.495,15.009 8.966,14.502 8.456 C 14.046 7.997,13.523 7.760,12.964 7.760 L 12.771 7.760 12.746 7.519 C 12.696 7.036,12.415 6.756,11.987 6.763 C 11.895 6.764,11.775 6.783,11.720 6.805 M11.240 10.080 C 11.240 10.542,11.224 10.920,11.205 10.920 C 11.155 10.920,10.654 10.729,10.516 10.658 C 10.202 10.495,10.165 9.819,10.453 9.491 C 10.612 9.310,10.766 9.244,11.030 9.242 L 11.240 9.240 11.240 10.080 M21.815 11.277 C 21.640 11.320,21.462 11.456,21.357 11.624 C 21.281 11.748,21.265 11.850,21.238 12.398 C 21.141 14.345,20.512 16.079,19.347 17.619 C 19.038 18.028,18.235 18.852,17.820 19.187 C 16.271 20.439,14.426 21.137,12.398 21.238 C 11.683 21.273,11.563 21.317,11.371 21.607 C 11.167 21.914,11.255 22.383,11.557 22.598 C 11.746 22.733,11.965 22.757,12.632 22.717 C 14.790 22.588,16.726 21.877,18.470 20.575 C 19.087 20.115,20.115 19.087,20.575 18.470 C 21.877 16.726,22.588 14.790,22.717 12.632 C 22.758 11.944,22.732 11.736,22.580 11.536 C 22.421 11.327,22.078 11.211,21.815 11.277 M13.509 13.343 C 13.683 13.455,13.738 13.593,13.739 13.917 C 13.740 14.267,13.674 14.416,13.429 14.614 C 13.303 14.716,13.233 14.739,13.019 14.753 L 12.760 14.769 12.760 13.907 L 12.760 13.046 13.090 13.165 C 13.272 13.231,13.460 13.311,13.509 13.343 " stroke="none" fill-rule="evenodd" fill="black"></path></svg>