<svg width="24" height="24" viewBox="0 0 24 24" fill="none" xmlns="http://www.w3.org/2000/svg"><path d="M5.040 1.826 C 3.655 1.971,2.907 2.258,2.296 2.877 C 1.855 3.323,1.524 4.052,1.384 4.880 C 1.305 5.348,1.227 6.603,1.263 6.820 C 1.365 7.438,2.057 7.701,2.494 7.287 C 2.708 7.084,2.730 6.995,2.765 6.200 C 2.813 5.080,2.949 4.471,3.242 4.063 C 3.554 3.629,4.129 3.408,5.180 3.319 C 5.541 3.288,7.573 3.280,11.840 3.291 C 17.237 3.305,18.020 3.314,18.310 3.370 C 19.359 3.572,19.754 3.884,19.994 4.701 C 20.110 5.094,20.158 5.473,20.194 6.287 C 20.224 6.972,20.229 7.000,20.337 7.156 C 20.618 7.562,21.211 7.584,21.533 7.201 C 21.678 7.029,21.695 6.887,21.668 6.063 C 21.610 4.225,21.161 3.135,20.202 2.503 C 19.756 2.209,19.327 2.049,18.600 1.907 C 18.188 1.826,18.062 1.825,11.680 1.818 C 8.105 1.815,5.117 1.818,5.040 1.826 M14.980 9.108 C 13.319 9.179,12.415 9.718,12.023 10.870 C 11.820 11.469,11.820 11.462,11.820 15.680 C 11.820 19.365,11.825 19.642,11.894 19.960 C 12.184 21.290,12.886 21.930,14.285 22.137 C 14.637 22.189,15.145 22.200,17.246 22.200 C 18.751 22.200,19.920 22.183,20.121 22.159 C 21.246 22.021,21.967 21.581,22.348 20.800 C 22.664 20.149,22.730 19.682,22.735 18.020 C 22.740 16.617,22.742 16.628,22.494 16.393 C 22.217 16.131,21.783 16.131,21.506 16.393 C 21.262 16.623,21.264 16.615,21.236 18.140 C 21.210 19.607,21.189 19.791,21.004 20.151 C 20.908 20.341,20.822 20.417,20.592 20.519 C 20.194 20.695,19.781 20.720,17.260 20.720 C 14.737 20.720,14.326 20.695,13.927 20.519 C 13.682 20.410,13.584 20.313,13.482 20.076 C 13.287 19.622,13.275 19.344,13.290 15.444 C 13.303 12.195,13.311 11.794,13.372 11.569 C 13.542 10.938,13.778 10.750,14.540 10.641 C 14.930 10.586,19.584 10.587,19.987 10.643 C 20.970 10.779,21.164 11.057,21.237 12.427 C 21.265 12.948,21.282 13.054,21.358 13.176 C 21.615 13.593,22.178 13.662,22.520 13.320 C 22.732 13.108,22.763 12.929,22.717 12.164 C 22.651 11.068,22.443 10.456,21.963 9.946 C 21.483 9.437,20.826 9.198,19.700 9.122 C 19.171 9.086,15.725 9.076,14.980 9.108 M1.619 10.217 C 1.529 10.271,1.415 10.390,1.359 10.487 C 1.262 10.657,1.260 10.679,1.247 11.680 C 1.231 12.830,1.288 14.039,1.384 14.602 C 1.652 16.180,2.442 17.091,3.862 17.459 C 4.557 17.640,4.724 17.651,7.030 17.669 L 9.240 17.686 9.240 19.201 L 9.240 20.716 7.866 20.728 L 6.493 20.740 6.328 20.854 C 5.980 21.096,5.894 21.595,6.146 21.910 C 6.380 22.203,6.325 22.196,8.360 22.202 C 9.467 22.205,10.220 22.191,10.282 22.167 C 10.457 22.100,10.632 21.925,10.699 21.749 C 10.755 21.599,10.761 21.302,10.751 19.134 L 10.740 16.687 10.618 16.536 C 10.550 16.453,10.446 16.348,10.385 16.303 C 10.277 16.222,10.220 16.220,7.647 16.196 C 5.936 16.180,4.923 16.155,4.742 16.125 C 3.813 15.968,3.347 15.699,3.099 15.174 C 2.959 14.878,2.845 14.413,2.814 14.012 L 2.788 13.680 6.501 13.680 L 10.213 13.680 10.377 13.584 C 10.787 13.344,10.858 12.734,10.513 12.412 C 10.278 12.192,10.427 12.200,6.445 12.200 L 2.767 12.200 2.754 11.430 C 2.740 10.681,2.737 10.655,2.634 10.480 C 2.427 10.128,1.967 10.009,1.619 10.217 M17.053 17.282 C 16.832 17.325,16.687 17.405,16.534 17.567 C 16.290 17.827,16.208 18.114,16.281 18.463 C 16.408 19.078,17.087 19.413,17.662 19.145 C 18.179 18.904,18.388 18.312,18.135 17.804 C 17.935 17.403,17.504 17.195,17.053 17.282 " stroke="none" fill-rule="evenodd" fill="black"></path></svg>