<svg width="24" height="24" viewBox="0 0 24 24" fill="none" xmlns="http://www.w3.org/2000/svg"><path d="M5.500 1.283 C 2.917 1.437,1.757 2.350,1.383 4.522 C 1.309 4.953,1.227 6.321,1.262 6.537 C 1.361 7.146,2.090 7.390,2.520 6.960 C 2.708 6.772,2.760 6.559,2.760 5.976 C 2.760 5.134,2.902 4.309,3.125 3.857 C 3.432 3.232,4.025 2.926,5.168 2.802 C 5.382 2.779,6.097 2.760,6.756 2.760 C 8.151 2.760,8.300 2.740,8.520 2.520 C 8.918 2.122,8.730 1.423,8.189 1.286 C 7.982 1.234,6.351 1.232,5.500 1.283 M12.521 1.363 C 11.935 1.516,11.300 1.988,10.940 2.538 C 10.855 2.669,10.730 2.930,10.662 3.118 L 10.540 3.460 10.528 5.658 C 10.515 8.128,10.525 8.247,10.789 8.800 C 10.976 9.194,11.424 9.651,11.800 9.833 C 12.363 10.105,12.253 10.096,15.299 10.110 C 18.377 10.125,18.439 10.121,18.980 9.859 C 19.514 9.601,19.981 9.128,20.208 8.618 L 20.297 8.416 20.579 8.587 C 21.087 8.896,21.548 8.947,21.982 8.743 C 22.383 8.555,22.652 8.149,22.720 7.630 C 22.770 7.241,22.769 4.093,22.718 3.741 C 22.558 2.631,21.520 2.183,20.554 2.807 C 20.420 2.893,20.308 2.959,20.303 2.952 C 20.299 2.945,20.234 2.814,20.158 2.660 C 19.980 2.299,19.488 1.792,19.116 1.586 C 18.971 1.506,18.711 1.404,18.540 1.360 C 18.242 1.284,18.099 1.280,15.524 1.282 C 12.974 1.284,12.803 1.289,12.521 1.363 M18.342 2.867 C 18.431 2.914,18.578 3.034,18.670 3.134 C 18.964 3.452,18.965 3.467,18.952 5.786 C 18.940 7.795,18.939 7.822,18.852 7.985 C 18.710 8.250,18.571 8.389,18.328 8.508 L 18.100 8.620 15.460 8.620 C 12.555 8.620,12.594 8.623,12.320 8.375 C 12.017 8.102,12.020 8.124,12.020 5.780 L 12.020 3.700 12.118 3.500 C 12.251 3.229,12.551 2.944,12.810 2.844 C 13.014 2.765,13.090 2.763,15.600 2.771 C 18.161 2.780,18.181 2.781,18.342 2.867 M21.231 6.452 L 21.220 7.230 20.830 6.953 L 20.440 6.676 20.440 5.686 L 20.440 4.695 20.830 4.426 L 21.220 4.158 21.231 4.916 C 21.237 5.333,21.237 6.025,21.231 6.452 M1.720 10.104 C 1.550 10.178,1.414 10.300,1.326 10.460 C 1.179 10.727,1.229 13.781,1.397 14.764 C 1.716 16.627,2.692 17.552,4.668 17.865 C 5.040 17.923,5.527 17.935,8.170 17.949 L 11.240 17.965 11.240 19.601 L 11.240 21.236 9.270 21.248 C 7.110 21.261,7.193 21.252,6.953 21.506 C 6.759 21.711,6.703 22.027,6.814 22.292 C 6.879 22.447,7.119 22.667,7.271 22.709 C 7.414 22.749,16.586 22.749,16.729 22.709 C 16.881 22.667,17.121 22.447,17.186 22.292 C 17.297 22.027,17.241 21.711,17.047 21.506 C 16.807 21.252,16.890 21.261,14.730 21.248 L 12.760 21.236 12.760 19.601 L 12.760 17.965 15.830 17.949 C 18.473 17.935,18.960 17.923,19.332 17.865 C 21.041 17.595,21.978 16.882,22.417 15.520 C 22.492 15.289,22.582 14.915,22.617 14.689 C 22.702 14.151,22.772 12.874,22.753 12.220 C 22.739 11.758,22.727 11.681,22.639 11.526 C 22.364 11.040,21.638 11.034,21.367 11.516 C 21.307 11.622,21.267 11.776,21.252 11.960 L 21.228 12.240 11.998 12.240 L 2.767 12.240 2.753 11.410 C 2.742 10.734,2.727 10.558,2.673 10.460 C 2.481 10.109,2.066 9.954,1.720 10.104 M21.196 14.050 C 21.028 15.787,20.475 16.284,18.540 16.440 C 17.862 16.495,6.133 16.492,5.438 16.438 C 3.551 16.289,2.986 15.784,2.810 14.090 L 2.776 13.760 12.000 13.760 L 21.224 13.760 21.196 14.050 " stroke="none" fill-rule="evenodd" fill="black"></path></svg>