<svg width="24" height="24" viewBox="0 0 24 24" fill="none" xmlns="http://www.w3.org/2000/svg"><path d="M5.500 1.282 C 2.904 1.442,1.748 2.356,1.382 4.540 C 1.270 5.207,1.241 6.246,1.241 9.600 C 1.241 13.086,1.269 14.016,1.398 14.769 C 1.716 16.626,2.694 17.553,4.668 17.865 C 5.040 17.923,5.527 17.935,8.170 17.949 L 11.240 17.965 11.240 19.601 L 11.240 21.236 9.270 21.248 C 7.110 21.261,7.193 21.252,6.953 21.506 C 6.759 21.711,6.703 22.027,6.814 22.292 C 6.879 22.447,7.119 22.667,7.271 22.709 C 7.414 22.749,16.586 22.749,16.729 22.709 C 16.881 22.667,17.121 22.447,17.186 22.292 C 17.297 22.027,17.241 21.711,17.047 21.506 C 16.807 21.252,16.890 21.261,14.730 21.248 L 12.760 21.236 12.760 19.601 L 12.760 17.965 15.830 17.949 C 18.473 17.935,18.960 17.923,19.332 17.865 C 21.041 17.595,21.978 16.882,22.417 15.520 C 22.680 14.705,22.774 13.599,22.753 11.598 C 22.739 10.329,22.734 10.298,22.513 10.092 C 22.391 9.977,22.155 9.880,22.000 9.880 C 21.845 9.880,21.609 9.977,21.487 10.092 C 21.273 10.291,21.261 10.355,21.247 11.330 L 21.233 12.240 11.997 12.240 L 2.760 12.240 2.760 8.898 C 2.760 5.467,2.774 5.080,2.923 4.443 C 3.172 3.378,3.749 2.956,5.168 2.802 C 5.700 2.744,18.294 2.744,18.832 2.802 C 19.643 2.889,20.196 3.081,20.528 3.392 C 20.998 3.831,21.179 4.470,21.235 5.884 C 21.263 6.596,21.275 6.682,21.356 6.813 C 21.712 7.389,22.581 7.248,22.717 6.593 C 22.750 6.436,22.750 6.173,22.719 5.624 C 22.651 4.431,22.527 3.848,22.194 3.162 C 22.016 2.795,21.945 2.698,21.624 2.376 C 21.303 2.056,21.204 1.984,20.837 1.805 C 20.360 1.571,19.842 1.427,19.140 1.332 C 18.716 1.274,17.925 1.266,12.340 1.258 C 8.864 1.254,5.786 1.264,5.500 1.282 M21.196 14.050 C 21.028 15.787,20.475 16.284,18.540 16.440 C 17.862 16.495,6.133 16.492,5.438 16.438 C 3.551 16.289,2.986 15.784,2.810 14.090 L 2.776 13.760 12.000 13.760 L 21.224 13.760 21.196 14.050 " stroke="none" fill-rule="evenodd" fill="black"></path></svg>