<svg width="24" height="24" viewBox="0 0 24 24" fill="none" xmlns="http://www.w3.org/2000/svg"><path d="M8.810 1.284 C 8.513 1.334,8.126 1.468,7.951 1.583 C 7.590 1.818,7.531 2.372,7.833 2.695 C 8.052 2.930,8.396 2.984,8.760 2.840 C 9.006 2.743,9.160 2.736,9.160 2.821 C 9.160 2.855,9.072 3.111,8.964 3.391 C 8.457 4.706,8.240 5.812,8.240 7.083 C 8.240 9.150,8.920 11.195,10.169 12.890 C 11.833 15.146,14.375 16.623,17.145 16.945 C 17.886 17.030,19.149 17.003,19.957 16.883 C 20.326 16.829,20.548 16.812,20.572 16.836 C 20.716 16.980,19.447 18.435,18.570 19.132 C 17.268 20.168,15.659 20.872,13.980 21.142 C 13.346 21.244,11.973 21.264,11.319 21.182 C 10.428 21.070,9.718 20.890,8.920 20.573 C 5.536 19.231,3.162 16.142,2.796 12.604 C 2.731 11.975,2.771 10.756,2.876 10.140 C 3.124 8.681,3.724 7.250,4.560 6.123 C 4.689 5.950,4.822 5.753,4.857 5.686 C 4.973 5.461,4.913 5.073,4.728 4.866 C 4.626 4.750,4.360 4.642,4.180 4.642 C 3.799 4.642,3.630 4.803,3.001 5.762 C 2.216 6.959,1.653 8.420,1.397 9.920 C 1.290 10.548,1.247 12.066,1.316 12.783 C 1.755 17.321,5.191 21.251,9.724 22.400 C 11.577 22.871,13.691 22.849,15.471 22.341 C 16.542 22.036,17.424 21.661,18.280 21.147 C 19.139 20.632,19.701 20.188,20.461 19.424 C 21.389 18.493,21.924 17.728,22.063 17.135 C 22.281 16.211,21.760 15.496,20.765 15.351 C 20.483 15.310,20.363 15.316,19.772 15.396 C 19.402 15.447,18.830 15.497,18.500 15.509 C 15.896 15.598,13.309 14.398,11.609 12.312 C 9.794 10.084,9.248 7.088,10.175 4.444 C 10.273 4.167,10.419 3.753,10.500 3.525 C 10.629 3.164,10.648 3.063,10.649 2.745 C 10.651 2.282,10.548 1.989,10.285 1.708 C 10.061 1.468,9.810 1.336,9.474 1.282 C 9.185 1.235,9.104 1.235,8.810 1.284 " stroke="none" fill-rule="evenodd" fill="black"></path></svg>