<svg width="24" height="24" viewBox="0 0 24 24" fill="none" xmlns="http://www.w3.org/2000/svg"><path d="M11.560 1.267 C 10.326 1.322,9.152 1.571,8.041 2.012 C 7.427 2.256,7.240 2.454,7.240 2.860 C 7.240 3.229,7.525 3.548,7.892 3.589 C 8.032 3.605,8.152 3.574,8.523 3.428 C 9.718 2.955,10.735 2.760,12.006 2.760 C 13.464 2.760,14.754 3.058,16.060 3.698 C 17.024 4.170,17.648 4.611,18.434 5.378 C 19.273 6.195,19.814 6.937,20.303 7.940 C 20.944 9.253,21.240 10.537,21.240 12.000 C 21.240 13.465,20.943 14.752,20.302 16.060 C 19.830 17.024,19.389 17.648,18.622 18.434 C 17.805 19.273,17.063 19.814,16.060 20.303 C 14.747 20.944,13.463 21.240,12.000 21.240 C 10.537 21.240,9.253 20.944,7.940 20.303 C 6.937 19.814,6.195 19.273,5.378 18.434 C 4.611 17.648,4.170 17.024,3.698 16.060 C 3.058 14.754,2.760 13.464,2.760 12.005 C 2.760 10.060,3.331 8.256,4.457 6.648 C 4.701 6.298,4.770 6.095,4.724 5.855 C 4.656 5.497,4.372 5.267,4.000 5.267 C 3.678 5.267,3.534 5.369,3.222 5.816 C 1.432 8.383,0.834 11.537,1.564 14.550 C 1.904 15.951,2.529 17.268,3.424 18.470 C 3.880 19.083,4.909 20.111,5.530 20.575 C 7.606 22.126,10.070 22.870,12.627 22.717 C 14.790 22.588,16.724 21.879,18.470 20.575 C 19.087 20.115,20.115 19.087,20.575 18.470 C 22.127 16.391,22.870 13.930,22.717 11.373 C 22.588 9.210,21.879 7.276,20.575 5.530 C 20.115 4.913,19.087 3.885,18.470 3.425 C 17.047 2.362,15.454 1.679,13.742 1.398 C 13.325 1.330,12.055 1.227,11.880 1.248 C 11.847 1.252,11.703 1.261,11.560 1.267 M7.689 11.059 C 7.454 11.132,7.263 11.287,7.131 11.511 C 7.036 11.672,7.020 11.744,7.020 12.000 C 7.020 12.257,7.036 12.327,7.133 12.492 C 7.625 13.329,8.898 13.046,8.991 12.078 C 9.033 11.640,8.729 11.185,8.310 11.061 C 8.065 10.988,7.917 10.987,7.689 11.059 M11.689 11.059 C 11.454 11.132,11.263 11.287,11.131 11.511 C 11.036 11.672,11.020 11.744,11.020 12.000 C 11.020 12.257,11.036 12.327,11.133 12.492 C 11.625 13.329,12.898 13.046,12.991 12.078 C 13.033 11.640,12.729 11.185,12.310 11.061 C 12.065 10.988,11.917 10.987,11.689 11.059 M15.689 11.056 C 15.452 11.134,15.262 11.289,15.131 11.511 C 15.036 11.672,15.020 11.744,15.020 12.000 C 15.020 12.255,15.036 12.328,15.129 12.486 C 15.353 12.867,15.792 13.059,16.217 12.964 C 16.929 12.805,17.232 11.975,16.789 11.394 C 16.549 11.080,16.069 10.932,15.689 11.056 " stroke="none" fill-rule="evenodd" fill="black"></path></svg>