<svg width="24" height="24" viewBox="0 0 24 24" fill="none" xmlns="http://www.w3.org/2000/svg"><path d="M11.815 4.278 C 11.331 4.394,11.098 5.004,11.383 5.408 C 11.535 5.622,11.709 5.708,12.092 5.755 C 12.500 5.804,12.781 5.944,13.035 6.222 C 13.396 6.617,13.502 7.165,13.314 7.668 C 13.194 7.988,12.828 8.354,12.508 8.474 C 12.198 8.590,11.802 8.590,11.492 8.474 C 11.046 8.307,10.600 7.730,10.600 7.320 C 10.600 7.256,10.580 7.111,10.556 6.998 C 10.422 6.373,9.569 6.212,9.219 6.747 C 9.105 6.921,9.080 7.115,9.123 7.498 C 9.169 7.909,9.297 8.309,9.487 8.633 C 9.658 8.924,10.236 9.502,10.527 9.673 C 11.206 10.071,12.173 10.169,12.934 9.916 C 13.724 9.654,14.494 8.884,14.756 8.094 C 14.938 7.547,14.938 6.773,14.756 6.226 C 14.520 5.516,13.870 4.803,13.180 4.498 C 12.783 4.323,12.093 4.212,11.815 4.278 M6.427 13.961 C 5.307 14.096,4.381 14.870,4.014 15.980 C 3.923 16.253,3.907 16.373,3.904 16.800 C 3.899 17.376,3.945 17.601,4.158 18.060 C 4.514 18.826,5.233 19.436,6.023 19.643 C 6.394 19.739,7.053 19.759,7.410 19.683 C 8.280 19.499,9.045 18.877,9.440 18.032 C 9.762 17.344,9.762 16.336,9.440 15.648 C 8.888 14.468,7.708 13.807,6.427 13.961 M16.824 13.962 C 15.883 14.073,15.039 14.686,14.597 15.580 C 14.402 15.973,14.321 16.343,14.321 16.840 C 14.321 17.337,14.402 17.707,14.597 18.100 C 15.048 19.011,15.881 19.606,16.860 19.718 C 18.118 19.861,19.271 19.230,19.818 18.100 C 20.047 17.627,20.099 17.394,20.099 16.840 C 20.099 16.286,20.047 16.053,19.818 15.580 C 19.269 14.446,18.097 13.813,16.824 13.962 M7.367 15.554 C 7.664 15.697,7.903 15.935,8.049 16.231 C 8.166 16.470,8.180 16.535,8.180 16.840 C 8.180 17.145,8.166 17.210,8.049 17.449 C 7.903 17.744,7.666 17.981,7.366 18.128 C 7.212 18.204,7.116 18.220,6.800 18.220 C 6.474 18.220,6.389 18.205,6.200 18.116 C 5.095 17.595,5.135 16.012,6.265 15.536 C 6.574 15.406,7.078 15.414,7.367 15.554 M17.800 15.565 C 18.089 15.700,18.345 15.961,18.489 16.269 C 18.588 16.479,18.606 16.567,18.606 16.840 C 18.606 17.113,18.588 17.201,18.489 17.411 C 18.345 17.718,18.089 17.980,17.800 18.116 C 17.611 18.205,17.526 18.220,17.200 18.220 C 16.884 18.220,16.788 18.204,16.634 18.128 C 15.835 17.735,15.565 16.777,16.050 16.056 C 16.208 15.821,16.517 15.579,16.760 15.500 C 17.043 15.408,17.531 15.439,17.800 15.565 " stroke="none" fill-rule="evenodd" fill="black"></path></svg>