<svg width="24" height="24" viewBox="0 0 24 24" fill="none" xmlns="http://www.w3.org/2000/svg"><path d="M8.080 1.282 C 4.042 1.493,1.931 3.265,1.398 6.891 C 1.310 7.494,1.225 8.895,1.264 9.113 C 1.278 9.194,1.325 9.318,1.368 9.389 C 1.658 9.870,2.422 9.836,2.661 9.332 C 2.718 9.212,2.740 9.022,2.765 8.423 C 2.900 5.187,3.905 3.654,6.288 3.044 C 7.337 2.776,7.247 2.780,12.000 2.780 C 15.936 2.780,16.339 2.786,16.760 2.852 C 19.558 3.288,20.712 4.442,21.148 7.240 C 21.214 7.661,21.220 8.064,21.220 12.000 C 21.220 15.936,21.214 16.339,21.148 16.760 C 20.712 19.558,19.558 20.712,16.760 21.148 C 16.339 21.214,15.936 21.220,12.000 21.220 C 8.064 21.220,7.661 21.214,7.240 21.148 C 4.756 20.761,3.576 19.795,3.044 17.712 C 2.820 16.833,2.790 16.496,2.764 14.560 C 2.742 12.923,2.734 12.768,2.664 12.628 C 2.404 12.104,1.668 12.083,1.353 12.591 C 1.263 12.736,1.260 12.771,1.247 13.820 C 1.224 15.671,1.333 17.073,1.575 18.027 C 2.267 20.757,3.971 22.193,7.027 22.622 C 7.786 22.728,8.902 22.759,12.000 22.759 C 15.098 22.759,16.214 22.728,16.973 22.622 C 19.443 22.275,20.996 21.288,21.897 19.490 C 22.379 18.530,22.638 17.369,22.720 15.807 C 22.771 14.838,22.771 9.162,22.720 8.193 C 22.657 6.998,22.521 6.191,22.242 5.356 C 21.632 3.531,20.469 2.367,18.650 1.760 C 17.788 1.473,17.023 1.344,15.806 1.280 C 14.952 1.235,8.952 1.237,8.080 1.282 M7.689 11.059 C 7.454 11.132,7.263 11.287,7.131 11.511 C 7.036 11.672,7.020 11.744,7.020 12.000 C 7.020 12.257,7.036 12.327,7.133 12.492 C 7.625 13.329,8.898 13.046,8.991 12.078 C 9.033 11.640,8.729 11.185,8.310 11.061 C 8.065 10.988,7.917 10.987,7.689 11.059 M11.689 11.059 C 11.454 11.132,11.263 11.287,11.131 11.511 C 11.036 11.672,11.020 11.744,11.020 12.000 C 11.020 12.257,11.036 12.327,11.133 12.492 C 11.625 13.329,12.898 13.046,12.991 12.078 C 13.033 11.640,12.729 11.185,12.310 11.061 C 12.065 10.988,11.917 10.987,11.689 11.059 M15.689 11.056 C 15.452 11.134,15.262 11.289,15.131 11.511 C 15.036 11.672,15.020 11.744,15.020 12.000 C 15.020 12.255,15.036 12.328,15.129 12.486 C 15.353 12.867,15.792 13.059,16.217 12.964 C 16.929 12.805,17.232 11.975,16.789 11.394 C 16.549 11.080,16.069 10.932,15.689 11.056 " stroke="none" fill-rule="evenodd" fill="black"></path></svg>