<svg width="24" height="24" viewBox="0 0 24 24" fill="none" xmlns="http://www.w3.org/2000/svg"><path d="M11.560 1.267 C 10.326 1.322,9.152 1.571,8.041 2.012 C 7.427 2.256,7.240 2.454,7.240 2.860 C 7.240 3.229,7.525 3.548,7.892 3.589 C 8.032 3.605,8.152 3.574,8.523 3.428 C 9.718 2.955,10.735 2.760,12.006 2.760 C 13.464 2.760,14.754 3.058,16.060 3.698 C 17.024 4.170,17.648 4.611,18.434 5.378 C 19.273 6.195,19.814 6.937,20.303 7.940 C 20.944 9.253,21.240 10.537,21.240 12.000 C 21.240 13.465,20.943 14.752,20.302 16.060 C 19.830 17.024,19.389 17.648,18.622 18.434 C 17.805 19.273,17.063 19.814,16.060 20.303 C 14.747 20.944,13.463 21.240,12.000 21.240 C 10.537 21.240,9.253 20.944,7.940 20.303 C 6.937 19.814,6.195 19.273,5.378 18.434 C 4.611 17.648,4.170 17.024,3.698 16.060 C 3.058 14.754,2.760 13.464,2.760 12.005 C 2.760 10.060,3.331 8.256,4.457 6.648 C 4.701 6.298,4.770 6.095,4.724 5.855 C 4.656 5.497,4.372 5.267,4.000 5.267 C 3.678 5.267,3.534 5.369,3.222 5.816 C 1.432 8.383,0.834 11.537,1.564 14.550 C 1.904 15.951,2.529 17.268,3.424 18.470 C 3.880 19.083,4.909 20.111,5.530 20.575 C 7.606 22.126,10.070 22.870,12.627 22.717 C 14.790 22.588,16.724 21.879,18.470 20.575 C 19.087 20.115,20.115 19.087,20.575 18.470 C 22.127 16.391,22.870 13.930,22.717 11.373 C 22.588 9.210,21.879 7.276,20.575 5.530 C 20.115 4.913,19.087 3.885,18.470 3.425 C 17.047 2.362,15.454 1.679,13.742 1.398 C 13.325 1.330,12.055 1.227,11.880 1.248 C 11.847 1.252,11.703 1.261,11.560 1.267 M8.774 7.079 C 8.430 7.169,8.258 7.254,7.940 7.489 C 7.261 7.989,6.902 8.902,7.055 9.740 C 7.139 10.205,9.059 16.361,9.231 16.720 C 9.491 17.260,10.046 17.721,10.660 17.905 C 11.019 18.013,11.696 18.002,12.040 17.883 C 12.675 17.663,13.170 17.217,13.439 16.620 C 13.499 16.488,13.688 15.957,13.860 15.440 C 14.276 14.187,14.187 14.276,15.440 13.860 C 15.957 13.688,16.488 13.499,16.620 13.439 C 17.702 12.952,18.234 11.742,17.877 10.580 C 17.704 10.018,17.270 9.505,16.742 9.240 C 16.514 9.126,15.481 8.788,13.200 8.082 C 11.429 7.534,9.873 7.067,9.743 7.043 C 9.405 6.982,9.103 6.993,8.774 7.079 M12.608 9.462 C 14.353 10.002,15.841 10.463,15.917 10.487 C 16.104 10.547,16.386 10.816,16.443 10.990 C 16.469 11.068,16.490 11.231,16.488 11.350 C 16.486 11.610,16.333 11.893,16.131 12.011 C 16.061 12.052,15.532 12.247,14.956 12.445 C 13.188 13.052,13.054 13.186,12.449 14.943 C 11.999 16.251,11.991 16.265,11.700 16.410 C 11.229 16.643,10.694 16.422,10.506 15.916 C 10.469 15.819,10.007 14.345,9.478 12.640 C 8.421 9.237,8.428 9.265,8.619 8.937 C 8.776 8.671,9.056 8.491,9.328 8.483 C 9.388 8.481,10.864 8.922,12.608 9.462 " stroke="none" fill-rule="evenodd" fill="black"></path></svg>