<svg width="24" height="24" viewBox="0 0 24 24" fill="none" xmlns="http://www.w3.org/2000/svg"><path d="M8.080 1.282 C 4.042 1.493,1.931 3.265,1.398 6.891 C 1.310 7.494,1.225 8.895,1.264 9.113 C 1.278 9.194,1.325 9.318,1.368 9.389 C 1.658 9.870,2.422 9.836,2.661 9.332 C 2.718 9.212,2.740 9.022,2.765 8.423 C 2.900 5.187,3.905 3.654,6.288 3.044 C 7.337 2.776,7.247 2.780,12.000 2.780 C 16.745 2.780,16.622 2.774,17.688 3.040 C 19.520 3.496,20.504 4.481,20.960 6.312 C 21.197 7.267,21.209 7.423,21.236 9.920 L 21.260 12.220 21.353 12.369 C 21.710 12.943,22.576 12.812,22.716 12.162 C 22.772 11.902,22.774 9.228,22.720 8.193 C 22.657 6.998,22.521 6.191,22.242 5.356 C 21.632 3.531,20.469 2.367,18.650 1.760 C 17.788 1.473,17.023 1.344,15.806 1.280 C 14.952 1.235,8.952 1.237,8.080 1.282 M1.720 12.325 C 1.591 12.376,1.411 12.548,1.326 12.700 C 1.180 12.964,1.229 15.959,1.398 17.107 C 1.798 19.826,3.072 21.478,5.356 22.242 C 6.191 22.521,6.998 22.657,8.193 22.720 C 9.228 22.774,11.902 22.772,12.162 22.716 C 12.828 22.573,12.943 21.639,12.332 21.336 C 12.190 21.265,12.028 21.258,9.900 21.236 C 7.425 21.209,7.267 21.197,6.312 20.960 C 4.489 20.506,3.509 19.532,3.044 17.712 C 2.820 16.836,2.790 16.494,2.764 14.580 C 2.743 13.047,2.731 12.805,2.673 12.700 C 2.586 12.542,2.407 12.375,2.267 12.323 C 2.129 12.270,1.854 12.271,1.720 12.325 M13.968 12.342 C 13.448 12.482,12.994 12.800,12.684 13.243 C 12.379 13.676,12.299 13.952,12.303 14.560 L 12.305 15.060 13.273 18.160 C 13.879 20.100,14.295 21.369,14.386 21.551 C 14.636 22.049,15.100 22.453,15.645 22.646 C 16.019 22.779,16.750 22.779,17.120 22.646 C 17.475 22.518,17.885 22.237,18.100 21.974 C 18.348 21.669,18.486 21.361,18.822 20.354 C 18.982 19.874,19.152 19.427,19.200 19.360 C 19.318 19.194,19.409 19.153,20.406 18.817 C 20.886 18.656,21.374 18.476,21.492 18.419 C 22.168 18.088,22.635 17.419,22.717 16.661 C 22.824 15.686,22.349 14.791,21.506 14.381 C 21.261 14.263,15.782 12.532,15.054 12.344 C 14.754 12.266,14.254 12.265,13.968 12.342 M17.460 14.641 C 19.022 15.125,20.436 15.567,20.603 15.622 C 21.065 15.774,21.241 15.993,21.239 16.413 C 21.239 16.646,21.126 16.883,20.958 17.008 C 20.901 17.050,20.392 17.243,19.827 17.437 C 18.723 17.815,18.501 17.928,18.158 18.286 C 17.884 18.571,17.758 18.840,17.397 19.905 C 17.217 20.435,17.029 20.918,16.974 20.990 C 16.656 21.412,15.931 21.343,15.708 20.870 C 15.564 20.566,13.760 14.667,13.760 14.502 C 13.760 14.157,14.156 13.760,14.499 13.760 C 14.566 13.760,15.898 14.156,17.460 14.641 " stroke="none" fill-rule="evenodd" fill="black"></path></svg>