<svg width="24" height="24" viewBox="0 0 24 24" fill="none" xmlns="http://www.w3.org/2000/svg"><path d="M11.360 1.282 C 8.892 1.455,6.553 2.832,5.138 4.944 C 4.419 6.017,3.946 7.328,3.802 8.648 C 3.692 9.659,3.783 10.000,4.210 10.178 C 4.405 10.260,4.624 10.255,4.820 10.165 C 5.130 10.022,5.219 9.834,5.257 9.240 C 5.321 8.208,5.480 7.558,5.889 6.660 C 6.610 5.079,8.043 3.758,9.680 3.168 C 10.159 2.996,10.960 2.800,11.187 2.800 C 11.230 2.800,11.240 3.052,11.240 4.100 C 11.240 5.149,11.230 5.400,11.187 5.400 C 11.081 5.400,10.631 5.707,10.401 5.936 C 10.127 6.208,9.908 6.597,9.821 6.964 C 9.735 7.330,9.734 9.666,9.820 10.031 C 9.994 10.767,10.596 11.416,11.317 11.644 C 11.684 11.760,12.316 11.760,12.683 11.644 C 13.391 11.420,14.009 10.753,14.180 10.030 C 14.225 9.837,14.239 9.489,14.239 8.500 C 14.239 7.085,14.218 6.912,13.995 6.470 C 13.823 6.128,13.342 5.652,13.012 5.497 L 12.764 5.380 12.762 4.090 C 12.760 3.049,12.770 2.800,12.813 2.800 C 13.040 2.800,13.841 2.996,14.320 3.168 C 15.208 3.488,15.940 3.952,16.675 4.659 C 17.768 5.711,18.450 7.033,18.687 8.560 C 18.763 9.050,18.763 14.950,18.687 15.440 C 18.398 17.308,17.405 18.917,15.860 20.020 C 14.288 21.142,12.252 21.517,10.340 21.036 C 8.202 20.498,6.412 18.867,5.648 16.760 C 5.367 15.986,5.282 15.464,5.254 14.340 C 5.229 13.330,5.198 13.213,4.912 13.014 C 4.774 12.919,4.706 12.900,4.500 12.900 C 4.185 12.900,3.971 13.029,3.840 13.300 C 3.753 13.481,3.751 13.511,3.771 14.453 C 3.793 15.498,3.840 15.869,4.044 16.639 C 4.590 18.694,5.956 20.486,7.828 21.601 C 10.372 23.116,13.628 23.116,16.172 21.601 C 18.002 20.511,19.359 18.762,19.923 16.765 C 20.217 15.727,20.211 15.804,20.229 12.300 C 20.241 10.100,20.232 9.003,20.200 8.689 C 19.949 6.222,18.631 4.033,16.557 2.638 C 15.058 1.630,13.222 1.151,11.360 1.282 M12.388 6.865 C 12.447 6.909,12.550 7.013,12.618 7.096 L 12.740 7.247 12.740 8.500 L 12.740 9.753 12.618 9.904 C 12.402 10.170,12.305 10.220,12.004 10.220 C 11.694 10.220,11.526 10.133,11.358 9.885 C 11.260 9.741,11.260 9.734,11.248 8.593 C 11.240 7.885,11.251 7.386,11.277 7.291 C 11.324 7.117,11.520 6.896,11.700 6.814 C 11.871 6.736,12.253 6.764,12.388 6.865 " stroke="none" fill-rule="evenodd" fill="black"></path></svg>