<svg width="24" height="24" viewBox="0 0 24 24" fill="none" xmlns="http://www.w3.org/2000/svg"><path d="M11.289 1.284 C 10.313 1.343,9.288 1.557,8.343 1.900 C 7.486 2.210,7.225 2.356,7.105 2.591 C 6.958 2.880,6.996 3.181,7.211 3.426 C 7.479 3.731,7.752 3.753,8.312 3.515 C 9.534 2.994,10.691 2.760,12.036 2.760 C 14.054 2.760,15.982 3.414,17.619 4.653 C 18.028 4.962,18.852 5.765,19.187 6.180 C 20.439 7.729,21.128 9.548,21.236 11.589 C 21.265 12.147,21.282 12.254,21.358 12.376 C 21.705 12.937,22.579 12.807,22.713 12.174 C 22.762 11.940,22.710 10.946,22.617 10.345 C 22.350 8.621,21.650 6.969,20.575 5.530 C 20.115 4.913,19.087 3.885,18.470 3.425 C 17.032 2.351,15.378 1.650,13.657 1.383 C 13.304 1.328,12.043 1.231,11.880 1.246 C 11.847 1.249,11.581 1.266,11.289 1.284 M3.759 5.315 C 3.556 5.381,3.468 5.468,3.182 5.880 C 1.800 7.876,1.146 10.199,1.282 12.635 C 1.401 14.753,2.124 16.725,3.424 18.470 C 3.880 19.083,4.909 20.111,5.530 20.575 C 6.967 21.649,8.621 22.350,10.345 22.617 C 10.946 22.710,11.940 22.762,12.174 22.713 C 12.723 22.597,12.924 21.884,12.522 21.482 C 12.339 21.299,12.129 21.240,11.664 21.240 C 10.552 21.240,9.123 20.881,7.940 20.303 C 6.937 19.814,6.195 19.273,5.378 18.434 C 4.611 17.648,4.170 17.024,3.698 16.060 C 2.678 13.976,2.479 11.673,3.124 9.414 C 3.393 8.474,3.788 7.648,4.413 6.722 C 4.654 6.364,4.697 6.274,4.712 6.095 C 4.735 5.823,4.612 5.555,4.401 5.416 C 4.240 5.309,3.927 5.260,3.759 5.315 M13.968 12.342 C 13.448 12.482,12.994 12.800,12.684 13.243 C 12.379 13.676,12.299 13.952,12.303 14.560 L 12.305 15.060 13.273 18.160 C 13.879 20.100,14.295 21.369,14.386 21.551 C 14.636 22.049,15.100 22.453,15.645 22.646 C 16.019 22.779,16.750 22.779,17.120 22.646 C 17.475 22.518,17.885 22.237,18.100 21.974 C 18.348 21.669,18.486 21.361,18.822 20.354 C 18.982 19.874,19.152 19.427,19.200 19.360 C 19.318 19.194,19.409 19.153,20.406 18.817 C 20.886 18.656,21.374 18.476,21.492 18.419 C 22.168 18.088,22.635 17.419,22.717 16.661 C 22.824 15.686,22.349 14.791,21.506 14.381 C 21.261 14.263,15.782 12.532,15.054 12.344 C 14.754 12.266,14.254 12.265,13.968 12.342 M17.460 14.641 C 19.022 15.125,20.436 15.567,20.603 15.622 C 21.065 15.774,21.241 15.993,21.239 16.413 C 21.239 16.646,21.126 16.883,20.958 17.008 C 20.901 17.050,20.392 17.243,19.827 17.437 C 18.723 17.815,18.501 17.928,18.158 18.286 C 17.884 18.571,17.758 18.840,17.397 19.905 C 17.217 20.435,17.029 20.918,16.974 20.990 C 16.656 21.412,15.931 21.343,15.708 20.870 C 15.564 20.566,13.760 14.667,13.760 14.502 C 13.760 14.157,14.156 13.760,14.499 13.760 C 14.566 13.760,15.898 14.156,17.460 14.641 " stroke="none" fill-rule="evenodd" fill="black"></path></svg>