<svg width="24" height="24" viewBox="0 0 24 24" fill="none" xmlns="http://www.w3.org/2000/svg"><path d="M7.760 1.282 C 4.596 1.456,2.710 2.611,1.818 4.919 C 1.524 5.681,1.347 6.654,1.279 7.877 C 1.238 8.622,1.249 8.819,1.342 9.000 C 1.452 9.217,1.753 9.400,2.000 9.400 C 2.155 9.400,2.391 9.303,2.513 9.188 C 2.706 9.008,2.731 8.901,2.764 8.120 C 2.894 5.028,3.840 3.590,6.116 3.020 C 7.081 2.778,7.045 2.780,11.500 2.780 C 15.231 2.780,15.619 2.786,16.040 2.852 C 18.647 3.260,19.714 4.317,20.145 6.920 C 20.206 7.289,20.217 7.734,20.230 10.567 L 20.244 13.793 19.932 13.659 C 18.094 12.867,16.036 13.251,14.643 14.643 C 13.255 16.032,12.865 18.101,13.652 19.912 L 13.796 20.244 10.568 20.230 C 7.073 20.214,7.046 20.212,6.116 19.980 C 4.375 19.545,3.455 18.625,3.020 16.884 C 2.830 16.122,2.793 15.739,2.766 14.220 C 2.740 12.781,2.740 12.780,2.640 12.606 C 2.359 12.114,1.641 12.114,1.360 12.606 C 1.265 12.771,1.259 12.819,1.246 13.506 C 1.219 14.944,1.346 16.399,1.580 17.320 C 2.130 19.491,3.509 20.870,5.680 21.420 C 6.848 21.716,7.737 21.765,11.847 21.757 L 15.075 21.750 15.354 21.936 C 16.766 22.875,18.553 22.998,20.062 22.262 C 21.832 21.399,22.889 19.553,22.720 17.619 C 22.645 16.756,22.404 16.064,21.930 15.347 L 21.750 15.075 21.756 11.827 C 21.762 8.434,21.735 7.525,21.601 6.607 C 21.243 4.154,20.099 2.598,18.082 1.819 C 17.329 1.528,16.349 1.347,15.160 1.281 C 14.361 1.236,8.577 1.237,7.760 1.282 M12.000 4.404 C 11.316 4.560,8.695 5.305,8.500 5.400 C 8.012 5.637,7.662 6.060,7.514 6.591 C 7.445 6.837,7.439 7.030,7.439 8.874 C 7.439 10.753,7.434 10.886,7.371 10.862 C 7.202 10.797,6.703 10.764,6.426 10.799 C 5.158 10.960,4.308 12.176,4.578 13.445 C 4.729 14.161,5.326 14.821,6.040 15.065 C 6.378 15.180,7.135 15.167,7.460 15.041 C 7.974 14.841,8.448 14.420,8.684 13.951 C 8.906 13.513,8.919 13.366,8.919 11.293 L 8.920 9.406 9.050 9.365 C 9.121 9.342,9.954 9.114,10.900 8.857 C 11.846 8.600,12.643 8.381,12.670 8.370 C 12.709 8.356,12.720 8.523,12.720 9.129 L 12.720 9.906 12.470 9.854 C 11.411 9.632,10.365 10.218,9.958 11.260 C 9.878 11.466,9.865 11.571,9.865 12.000 C 9.865 12.429,9.878 12.534,9.958 12.740 C 10.094 13.089,10.273 13.349,10.557 13.611 C 11.727 14.692,13.581 14.209,14.127 12.680 L 14.220 12.420 14.220 9.160 C 14.220 6.120,14.215 5.882,14.147 5.640 C 13.993 5.097,13.696 4.737,13.213 4.511 C 12.985 4.404,12.896 4.386,12.564 4.375 C 12.353 4.369,12.099 4.382,12.000 4.404 M12.661 5.935 C 12.709 6.009,12.720 6.120,12.712 6.424 L 12.700 6.818 10.840 7.327 C 9.817 7.608,8.966 7.838,8.950 7.839 C 8.934 7.839,8.920 7.668,8.920 7.459 C 8.920 7.035,8.978 6.837,9.127 6.755 C 9.265 6.680,12.318 5.846,12.469 5.843 C 12.563 5.841,12.615 5.866,12.661 5.935 M12.360 11.382 C 12.586 11.496,12.720 11.726,12.720 12.000 C 12.720 12.697,11.838 12.952,11.439 12.371 C 11.300 12.168,11.300 11.833,11.438 11.631 C 11.648 11.324,12.037 11.219,12.360 11.382 M7.111 12.386 C 7.308 12.533,7.400 12.711,7.400 12.948 C 7.400 13.202,7.336 13.342,7.143 13.512 C 6.819 13.796,6.337 13.698,6.115 13.302 C 5.916 12.948,6.072 12.477,6.440 12.323 C 6.599 12.256,6.984 12.293,7.111 12.386 M18.543 14.802 C 19.737 15.014,20.729 15.872,21.105 17.020 C 21.258 17.485,21.283 18.240,21.163 18.720 C 20.922 19.685,20.310 20.465,19.465 20.881 C 18.928 21.146,18.544 21.240,18.000 21.240 C 15.507 21.240,13.940 18.491,15.207 16.341 C 15.422 15.977,15.977 15.422,16.341 15.207 C 16.655 15.022,17.093 14.857,17.410 14.804 C 17.711 14.754,18.266 14.753,18.543 14.802 M17.815 15.797 C 17.638 15.841,17.461 15.976,17.355 16.149 C 17.277 16.274,17.261 16.365,17.247 16.768 L 17.230 17.240 16.788 17.240 C 16.257 17.240,16.059 17.313,15.887 17.572 C 15.734 17.803,15.734 18.157,15.887 18.388 C 16.059 18.647,16.257 18.720,16.788 18.720 L 17.230 18.720 17.247 19.210 C 17.261 19.638,17.276 19.722,17.361 19.874 C 17.638 20.366,18.362 20.366,18.639 19.874 C 18.724 19.722,18.739 19.638,18.753 19.210 L 18.770 18.720 19.212 18.720 C 19.740 18.720,19.925 18.652,20.106 18.392 C 20.201 18.254,20.220 18.186,20.220 17.980 C 20.220 17.774,20.201 17.706,20.106 17.568 C 19.925 17.307,19.741 17.240,19.207 17.240 L 18.760 17.240 18.759 16.890 C 18.758 16.463,18.706 16.222,18.580 16.056 C 18.421 15.847,18.078 15.731,17.815 15.797 " stroke="none" fill-rule="evenodd" fill="black"></path></svg>