<svg width="24" height="24" viewBox="0 0 24 24" fill="none" xmlns="http://www.w3.org/2000/svg"><path d="M13.260 1.281 C 12.783 1.377,12.304 1.651,11.955 2.030 C 11.604 2.410,11.420 2.779,11.297 3.344 C 11.235 3.634,11.230 4.102,11.238 9.090 C 11.243 12.347,11.232 14.520,11.210 14.520 C 11.190 14.520,11.130 14.473,11.077 14.416 C 10.904 14.231,10.230 13.811,9.840 13.646 C 8.908 13.252,7.864 13.159,6.880 13.383 C 6.644 13.436,6.564 13.476,6.438 13.602 C 6.288 13.752,6.200 13.960,6.201 14.160 C 6.202 14.315,6.335 14.572,6.476 14.691 C 6.695 14.875,6.858 14.901,7.305 14.820 C 7.819 14.727,8.498 14.753,8.900 14.881 C 9.990 15.226,10.847 16.113,11.119 17.176 C 11.179 17.412,11.200 17.622,11.200 18.000 C 11.200 18.843,10.972 19.488,10.470 20.069 C 9.820 20.822,9.082 21.189,8.140 21.229 C 7.406 21.260,6.866 21.134,6.290 20.794 C 5.964 20.602,5.366 19.997,5.168 19.660 C 4.778 18.993,4.633 18.163,4.780 17.427 C 4.902 16.814,4.805 16.506,4.431 16.315 C 4.096 16.144,3.617 16.296,3.462 16.621 C 3.423 16.703,3.356 16.943,3.312 17.155 C 3.200 17.697,3.227 18.610,3.371 19.160 C 3.718 20.480,4.560 21.548,5.765 22.197 C 6.530 22.609,7.471 22.794,8.395 22.715 C 10.397 22.543,12.115 21.072,12.573 19.140 C 12.712 18.555,12.720 18.211,12.720 13.126 L 12.720 8.070 12.810 8.134 C 13.171 8.391,13.514 8.523,15.900 9.318 C 18.713 10.255,18.865 10.292,19.488 10.201 C 20.620 10.036,21.419 9.266,21.657 8.112 C 21.741 7.699,21.746 6.101,21.663 5.674 C 21.515 4.904,20.997 4.027,20.386 3.512 C 19.886 3.091,19.710 3.017,17.147 2.163 C 15.820 1.721,14.610 1.332,14.457 1.300 C 14.163 1.238,13.526 1.227,13.260 1.281 M16.440 3.498 C 17.683 3.910,18.827 4.308,18.983 4.382 C 19.465 4.611,19.914 5.128,20.130 5.703 C 20.213 5.923,20.219 6.006,20.220 6.880 C 20.220 7.674,20.209 7.851,20.150 8.021 C 19.992 8.472,19.613 8.732,19.118 8.727 C 18.863 8.725,18.615 8.651,16.422 7.920 C 14.513 7.285,13.957 7.084,13.773 6.965 C 13.279 6.646,12.856 6.010,12.760 5.441 C 12.729 5.257,12.717 4.870,12.727 4.367 C 12.741 3.663,12.752 3.560,12.830 3.388 C 13.051 2.903,13.358 2.711,13.880 2.735 C 14.143 2.747,14.461 2.842,16.440 3.498 " stroke="none" fill-rule="evenodd" fill="black"></path></svg>