<svg width="24" height="24" viewBox="0 0 24 24" fill="none" xmlns="http://www.w3.org/2000/svg"><path d="M8.080 1.282 C 4.042 1.493,1.931 3.265,1.398 6.891 C 1.310 7.494,1.225 8.895,1.264 9.113 C 1.278 9.194,1.325 9.318,1.368 9.389 C 1.658 9.870,2.422 9.836,2.661 9.332 C 2.718 9.212,2.740 9.022,2.765 8.423 C 2.842 6.564,3.202 5.322,3.928 4.410 C 4.340 3.892,5.065 3.426,5.861 3.166 L 6.220 3.049 6.230 7.525 C 6.236 9.986,6.236 14.014,6.230 16.475 L 6.220 20.951 5.861 20.834 C 4.338 20.337,3.469 19.374,3.044 17.712 C 2.832 16.881,2.791 16.468,2.764 14.860 C 2.736 13.266,2.736 13.259,2.513 13.052 C 2.391 12.937,2.155 12.840,2.000 12.840 C 1.745 12.840,1.459 13.019,1.327 13.260 C 1.186 13.518,1.232 15.977,1.398 17.107 C 1.885 20.415,3.654 22.148,7.027 22.622 C 7.786 22.728,8.902 22.759,12.000 22.759 C 15.098 22.759,16.214 22.728,16.973 22.622 C 19.443 22.275,20.996 21.288,21.897 19.490 C 22.379 18.530,22.638 17.369,22.720 15.807 C 22.771 14.838,22.771 9.162,22.720 8.193 C 22.657 6.998,22.521 6.191,22.242 5.356 C 21.632 3.531,20.469 2.367,18.650 1.760 C 17.788 1.473,17.023 1.344,15.806 1.280 C 14.952 1.235,8.952 1.237,8.080 1.282 M16.800 2.854 C 19.586 3.316,20.714 4.454,21.148 7.240 C 21.214 7.661,21.220 8.064,21.220 12.000 C 21.220 16.745,21.226 16.622,20.960 17.688 C 20.504 19.520,19.519 20.504,17.688 20.960 C 16.638 21.221,16.778 21.214,12.320 21.231 C 10.087 21.239,8.148 21.234,8.010 21.220 L 7.760 21.194 7.760 11.999 L 7.760 2.805 7.890 2.788 C 7.962 2.779,9.901 2.774,12.200 2.778 C 15.966 2.784,16.422 2.791,16.800 2.854 M17.100 6.485 C 16.833 6.515,13.897 7.291,13.520 7.431 C 12.906 7.659,12.475 8.114,12.289 8.734 C 12.237 8.906,12.224 9.293,12.210 11.068 L 12.194 13.196 12.087 13.154 C 12.028 13.131,11.809 13.103,11.600 13.092 C 10.902 13.054,10.391 13.249,9.900 13.740 C 9.415 14.225,9.215 14.742,9.251 15.420 C 9.291 16.182,9.642 16.785,10.289 17.203 C 10.642 17.431,10.979 17.526,11.440 17.528 C 11.890 17.530,12.128 17.480,12.480 17.308 C 12.838 17.133,13.296 16.673,13.474 16.307 C 13.699 15.848,13.717 15.638,13.719 13.512 L 13.720 11.603 13.890 11.558 C 14.438 11.412,17.331 10.626,17.490 10.580 L 17.680 10.524 17.680 11.357 L 17.680 12.189 17.430 12.131 C 17.095 12.052,16.542 12.082,16.205 12.197 C 15.554 12.420,15.000 12.986,14.797 13.637 C 14.702 13.941,14.682 14.550,14.757 14.840 C 14.962 15.637,15.622 16.302,16.388 16.484 C 16.701 16.559,17.300 16.539,17.603 16.444 C 18.370 16.203,18.973 15.529,19.124 14.744 C 19.147 14.622,19.163 13.246,19.162 11.311 C 19.162 8.567,19.153 8.043,19.102 7.821 C 18.974 7.271,18.689 6.890,18.235 6.663 C 17.990 6.540,17.882 6.512,17.480 6.465 C 17.425 6.459,17.254 6.468,17.100 6.485 M17.605 8.026 C 17.642 8.071,17.664 8.237,17.674 8.536 L 17.688 8.980 15.734 9.511 C 14.659 9.803,13.767 10.041,13.750 10.041 C 13.733 10.040,13.720 9.841,13.720 9.598 C 13.720 9.121,13.766 8.963,13.930 8.874 C 14.101 8.781,17.179 7.964,17.365 7.962 C 17.490 7.961,17.568 7.981,17.605 8.026 M17.191 13.622 C 17.388 13.704,17.515 13.826,17.604 14.020 C 17.702 14.231,17.699 14.416,17.594 14.632 C 17.374 15.086,16.737 15.183,16.393 14.815 C 15.866 14.252,16.485 13.327,17.191 13.622 M11.863 14.682 C 12.243 14.917,12.315 15.486,12.007 15.815 C 11.597 16.254,10.827 16.013,10.738 15.417 C 10.646 14.807,11.336 14.356,11.863 14.682 " stroke="none" fill-rule="evenodd" fill="black"></path></svg>