<svg width="24" height="24" viewBox="0 0 24 24" fill="none" xmlns="http://www.w3.org/2000/svg"><path d="M10.800 1.365 C 8.355 1.614,5.977 2.779,4.252 4.575 C 2.373 6.531,1.280 9.219,1.280 11.886 C 1.280 12.531,1.364 12.730,1.700 12.885 C 2.107 13.072,2.591 12.872,2.714 12.468 C 2.735 12.397,2.763 12.070,2.775 11.740 C 2.827 10.328,3.126 9.118,3.726 7.895 C 5.032 5.232,7.597 3.359,10.564 2.901 C 11.157 2.810,12.238 2.779,12.840 2.838 C 15.104 3.056,17.128 4.041,18.703 5.690 C 20.077 7.129,20.937 8.945,21.207 10.980 C 21.248 11.288,21.260 12.232,21.260 15.080 L 21.260 18.780 21.151 19.100 C 20.903 19.833,20.365 20.456,19.686 20.798 C 18.912 21.187,17.916 21.176,17.146 20.771 C 16.722 20.547,16.152 19.966,15.933 19.534 C 15.646 18.969,15.635 18.864,15.648 16.860 C 15.661 14.900,15.648 14.994,15.947 14.696 C 16.371 14.272,17.069 14.272,17.493 14.696 C 17.791 14.994,17.778 14.898,17.800 16.900 C 17.822 18.849,17.818 18.814,18.047 19.028 C 18.169 19.143,18.405 19.240,18.560 19.240 C 18.715 19.240,18.951 19.143,19.073 19.028 C 19.301 18.816,19.299 18.828,19.312 17.140 C 19.326 15.490,19.295 14.973,19.162 14.587 C 18.914 13.864,18.251 13.227,17.500 12.989 C 17.099 12.862,16.341 12.862,15.940 12.989 C 14.980 13.293,14.287 14.125,14.162 15.125 C 14.108 15.552,14.107 18.087,14.161 18.648 C 14.386 21.028,16.482 22.773,18.852 22.555 C 20.697 22.385,22.233 21.025,22.665 19.179 C 22.736 18.879,22.740 18.628,22.740 14.980 C 22.740 11.441,22.734 11.060,22.668 10.640 C 22.442 9.193,21.998 7.885,21.357 6.771 C 20.819 5.836,20.332 5.204,19.564 4.439 C 17.824 2.707,15.664 1.667,13.219 1.381 C 12.657 1.315,11.375 1.307,10.800 1.365 M10.580 6.395 C 10.360 6.452,10.158 6.569,10.049 6.703 C 9.989 6.775,9.756 7.176,9.530 7.592 L 9.120 8.350 8.690 8.368 C 8.124 8.392,7.930 8.495,7.782 8.849 C 7.636 9.198,7.789 9.600,8.140 9.794 C 8.237 9.847,8.378 9.860,8.881 9.860 C 9.501 9.860,9.502 9.860,9.767 9.730 C 10.103 9.564,10.254 9.395,10.538 8.866 C 10.663 8.632,10.778 8.441,10.793 8.442 C 10.808 8.444,10.874 8.519,10.940 8.608 C 11.116 8.848,11.286 8.928,11.585 8.911 C 11.882 8.894,12.088 8.758,12.203 8.505 C 12.337 8.212,12.309 8.068,11.999 7.441 C 11.844 7.128,11.673 6.814,11.619 6.742 C 11.414 6.473,10.917 6.307,10.580 6.395 M14.472 8.399 C 14.223 8.444,13.908 8.619,13.737 8.808 C 13.661 8.892,13.460 9.240,13.290 9.581 C 12.996 10.170,12.975 10.200,12.863 10.200 C 12.699 10.200,12.416 10.345,12.322 10.478 C 11.792 11.221,12.773 12.165,13.631 11.737 C 13.745 11.680,13.885 11.578,13.942 11.510 C 14.000 11.442,14.215 11.049,14.421 10.638 L 14.795 9.890 15.268 9.872 C 15.878 9.849,16.066 9.754,16.218 9.391 C 16.364 9.042,16.209 8.635,15.860 8.448 C 15.722 8.374,14.793 8.341,14.472 8.399 M6.613 13.080 C 6.274 13.168,6.143 13.232,5.818 13.461 C 5.371 13.778,5.030 14.242,4.851 14.777 L 4.744 15.100 4.742 16.860 C 4.741 17.828,4.753 18.668,4.770 18.727 C 4.842 18.985,5.188 19.237,5.471 19.239 C 5.633 19.240,5.868 19.145,5.993 19.028 C 6.222 18.815,6.218 18.843,6.240 16.960 L 6.260 15.220 6.370 15.033 C 6.574 14.686,6.927 14.480,7.320 14.480 C 7.713 14.480,8.066 14.686,8.270 15.033 L 8.380 15.220 8.380 17.100 L 8.380 18.980 8.269 19.280 C 8.103 19.727,7.936 19.982,7.560 20.363 C 7.276 20.650,7.157 20.738,6.840 20.894 C 6.347 21.138,5.985 21.214,5.460 21.187 C 4.698 21.148,4.186 20.914,3.617 20.344 C 3.218 19.944,3.063 19.702,2.894 19.220 L 2.783 18.900 2.761 17.340 C 2.743 15.990,2.731 15.764,2.674 15.660 C 2.530 15.399,2.321 15.280,2.007 15.280 C 1.772 15.280,1.581 15.376,1.423 15.574 L 1.300 15.727 1.289 17.228 C 1.279 18.435,1.289 18.798,1.339 19.084 C 1.623 20.732,2.863 22.097,4.480 22.542 C 4.998 22.684,5.820 22.720,6.338 22.622 C 7.894 22.328,9.151 21.250,9.662 19.770 C 9.872 19.162,9.889 18.992,9.909 17.294 C 9.936 15.103,9.885 14.745,9.462 14.123 C 9.107 13.601,8.533 13.198,7.950 13.060 C 7.599 12.977,6.967 12.987,6.613 13.080 " stroke="none" fill-rule="evenodd" fill="black"></path></svg>