<svg width="24" height="24" viewBox="0 0 24 24" fill="none" xmlns="http://www.w3.org/2000/svg"><path d="M9.180 1.280 C 8.333 1.395,7.593 2.039,7.342 2.880 C 7.302 3.013,7.267 3.325,7.252 3.666 L 7.228 4.232 6.884 4.258 C 6.041 4.324,5.388 4.650,4.881 5.260 C 4.443 5.788,4.289 6.252,4.252 7.153 L 4.227 7.765 3.924 7.919 C 2.246 8.765,1.316 10.454,1.270 12.740 C 1.261 13.182,1.267 13.232,1.353 13.369 C 1.710 13.943,2.576 13.812,2.716 13.162 C 2.740 13.049,2.760 12.826,2.760 12.668 C 2.761 11.961,2.988 11.051,3.299 10.504 C 3.803 9.619,4.494 9.156,5.740 8.867 C 6.094 8.785,6.189 8.783,11.700 8.769 C 15.574 8.759,17.433 8.768,17.731 8.799 C 19.439 8.973,20.514 9.753,20.985 11.159 C 21.234 11.901,21.246 12.106,21.230 15.204 L 21.215 17.980 21.111 18.405 C 20.917 19.194,20.643 19.718,20.180 20.180 C 19.712 20.648,19.188 20.921,18.385 21.113 L 17.940 21.220 12.000 21.220 L 6.060 21.220 5.615 21.113 C 4.812 20.921,4.288 20.648,3.820 20.180 C 3.170 19.530,2.845 18.672,2.765 17.394 C 2.724 16.747,2.672 16.579,2.464 16.421 C 2.024 16.088,1.396 16.304,1.278 16.830 C 1.237 17.009,1.298 17.987,1.377 18.441 C 1.633 19.897,2.322 21.038,3.381 21.759 C 4.241 22.345,5.184 22.637,6.474 22.720 C 7.300 22.772,16.700 22.772,17.526 22.720 C 18.816 22.637,19.759 22.345,20.619 21.759 C 21.503 21.157,22.135 20.257,22.459 19.139 C 22.726 18.220,22.774 17.436,22.748 14.460 C 22.728 12.097,22.709 11.821,22.519 11.077 C 22.149 9.626,21.301 8.535,20.056 7.908 L 19.773 7.765 19.748 7.153 C 19.711 6.252,19.557 5.788,19.119 5.260 C 18.612 4.650,17.959 4.324,17.116 4.258 L 16.772 4.232 16.748 3.666 C 16.733 3.325,16.698 3.013,16.658 2.880 C 16.443 2.159,15.866 1.580,15.120 1.335 C 14.918 1.269,14.680 1.263,12.160 1.256 C 10.653 1.251,9.312 1.263,9.180 1.280 M14.865 2.861 C 14.967 2.920,15.080 3.033,15.139 3.135 C 15.231 3.292,15.240 3.347,15.240 3.774 L 15.240 4.240 12.000 4.240 L 8.760 4.240 8.760 3.778 C 8.760 3.184,8.838 3.007,9.180 2.827 C 9.286 2.771,9.614 2.763,11.996 2.762 L 14.693 2.760 14.865 2.861 M17.454 5.841 C 17.744 5.950,18.050 6.256,18.159 6.546 C 18.212 6.688,18.240 6.860,18.240 7.043 L 18.240 7.323 17.870 7.291 C 17.387 7.250,6.613 7.250,6.130 7.291 L 5.760 7.323 5.760 7.043 C 5.760 6.655,5.868 6.383,6.126 6.126 C 6.251 6.000,6.408 5.892,6.535 5.843 C 6.735 5.766,6.861 5.764,11.988 5.762 C 17.167 5.760,17.240 5.761,17.454 5.841 M13.860 10.259 C 13.381 10.364,10.908 11.048,10.730 11.124 C 10.287 11.314,9.908 11.734,9.746 12.214 C 9.668 12.445,9.663 12.568,9.649 14.280 L 9.634 16.100 9.087 16.101 C 8.612 16.102,8.512 16.114,8.325 16.192 C 7.173 16.676,6.688 17.951,7.230 19.073 C 7.375 19.372,7.828 19.825,8.127 19.970 C 9.064 20.423,10.108 20.176,10.728 19.356 C 11.126 18.828,11.160 18.606,11.160 16.564 C 11.160 14.958,11.162 14.925,11.240 14.900 C 11.627 14.777,14.484 14.017,14.500 14.033 C 14.511 14.044,14.520 14.318,14.520 14.641 L 14.520 15.229 14.065 15.209 C 13.679 15.192,13.568 15.202,13.335 15.273 C 12.677 15.473,12.153 15.996,11.954 16.652 C 11.884 16.882,11.873 16.997,11.889 17.354 C 11.911 17.824,11.986 18.069,12.210 18.395 C 12.812 19.272,13.906 19.557,14.873 19.090 C 15.175 18.944,15.625 18.492,15.773 18.187 C 16.001 17.715,16.004 17.664,15.991 14.485 C 15.980 11.605,15.979 11.578,15.891 11.320 C 15.597 10.459,14.814 10.049,13.860 10.259 M14.467 11.790 C 14.482 11.851,14.496 12.026,14.497 12.180 L 14.500 12.460 12.860 12.908 C 11.958 13.155,11.207 13.357,11.190 13.358 C 11.173 13.359,11.160 13.199,11.160 13.002 C 11.160 12.591,11.206 12.513,11.498 12.436 C 11.587 12.412,12.209 12.243,12.880 12.060 C 14.296 11.675,14.234 11.691,14.349 11.685 C 14.415 11.681,14.446 11.709,14.467 11.790 M14.183 16.744 C 14.374 16.835,14.480 17.024,14.480 17.273 C 14.480 17.444,14.460 17.500,14.356 17.618 C 14.003 18.020,13.360 17.772,13.360 17.234 C 13.360 16.960,13.640 16.680,13.914 16.680 C 13.988 16.680,14.109 16.709,14.183 16.744 M9.350 17.640 C 9.858 17.949,9.643 18.699,9.049 18.690 C 8.746 18.685,8.507 18.446,8.507 18.147 C 8.507 17.699,8.981 17.414,9.350 17.640 " stroke="none" fill-rule="evenodd" fill="black"></path></svg>