<svg width="24" height="24" viewBox="0 0 24 24" fill="none" xmlns="http://www.w3.org/2000/svg"><path d="M8.080 1.282 C 4.042 1.493,1.931 3.265,1.398 6.891 C 1.310 7.494,1.225 8.895,1.264 9.113 C 1.278 9.194,1.325 9.318,1.368 9.389 C 1.658 9.870,2.422 9.836,2.661 9.332 C 2.718 9.212,2.740 9.022,2.765 8.423 C 2.900 5.187,3.905 3.654,6.288 3.044 C 7.337 2.776,7.247 2.780,12.000 2.780 C 15.936 2.780,16.339 2.786,16.760 2.852 C 19.558 3.288,20.712 4.442,21.148 7.240 C 21.214 7.661,21.220 8.064,21.220 12.000 C 21.220 15.936,21.214 16.339,21.148 16.760 C 20.712 19.558,19.558 20.712,16.760 21.148 C 16.339 21.214,15.936 21.220,12.000 21.220 C 8.064 21.220,7.661 21.214,7.240 21.148 C 4.756 20.761,3.576 19.795,3.044 17.712 C 2.820 16.833,2.790 16.496,2.764 14.560 C 2.738 12.635,2.741 12.665,2.513 12.452 C 2.391 12.337,2.155 12.240,2.000 12.240 C 1.745 12.240,1.460 12.418,1.326 12.660 C 1.180 12.925,1.229 15.959,1.398 17.107 C 1.885 20.415,3.654 22.148,7.027 22.622 C 7.786 22.728,8.902 22.759,12.000 22.759 C 15.098 22.759,16.214 22.728,16.973 22.622 C 19.443 22.275,20.996 21.288,21.897 19.490 C 22.379 18.530,22.638 17.369,22.720 15.807 C 22.771 14.838,22.771 9.162,22.720 8.193 C 22.657 6.998,22.521 6.191,22.242 5.356 C 21.632 3.531,20.469 2.367,18.650 1.760 C 17.788 1.473,17.023 1.344,15.806 1.280 C 14.952 1.235,8.952 1.237,8.080 1.282 M14.380 6.285 C 14.131 6.313,11.006 7.143,10.568 7.297 C 10.080 7.469,9.586 7.952,9.400 8.438 C 9.261 8.802,9.243 9.127,9.241 11.293 L 9.240 13.365 9.150 13.337 C 8.796 13.223,8.187 13.206,7.828 13.300 C 7.046 13.503,6.383 14.166,6.180 14.948 C 6.103 15.242,6.103 15.838,6.180 16.132 C 6.383 16.914,7.046 17.577,7.828 17.780 C 7.954 17.813,8.220 17.840,8.420 17.840 C 9.095 17.840,9.555 17.647,10.041 17.161 C 10.363 16.839,10.546 16.540,10.664 16.140 C 10.727 15.927,10.736 15.662,10.750 13.751 L 10.764 11.602 10.932 11.557 C 11.483 11.410,14.909 10.475,14.950 10.460 C 14.989 10.446,15.000 10.646,15.000 11.375 L 15.000 12.308 14.790 12.250 C 14.464 12.160,13.799 12.174,13.472 12.277 C 13.110 12.392,12.644 12.711,12.404 13.007 C 12.033 13.465,11.880 13.899,11.880 14.493 C 11.880 15.114,12.059 15.586,12.464 16.034 C 12.895 16.510,13.401 16.753,14.040 16.789 C 14.498 16.815,14.956 16.716,15.313 16.514 C 15.615 16.344,16.069 15.879,16.229 15.576 C 16.490 15.083,16.487 15.145,16.484 11.370 C 16.481 7.669,16.479 7.632,16.260 7.200 C 16.103 6.889,15.831 6.621,15.514 6.462 C 15.270 6.340,15.162 6.312,14.760 6.265 C 14.705 6.259,14.534 6.268,14.380 6.285 M14.904 7.844 C 14.968 7.915,14.982 8.005,14.994 8.414 L 15.007 8.900 12.974 9.452 C 11.855 9.756,10.900 10.015,10.850 10.027 C 10.760 10.049,10.760 10.048,10.760 9.547 C 10.760 8.986,10.791 8.877,10.980 8.760 C 11.154 8.652,14.414 7.765,14.644 7.762 C 14.782 7.761,14.847 7.781,14.904 7.844 M14.558 13.770 C 15.061 14.036,15.144 14.712,14.720 15.095 C 14.397 15.387,13.963 15.387,13.640 15.095 C 13.215 14.711,13.295 14.038,13.796 13.773 C 14.031 13.649,14.327 13.648,14.558 13.770 M8.711 14.782 C 9.271 15.016,9.409 15.721,8.975 16.128 C 8.559 16.518,7.919 16.386,7.676 15.860 C 7.542 15.572,7.584 15.280,7.792 15.036 C 8.041 14.746,8.393 14.649,8.711 14.782 " stroke="none" fill-rule="evenodd" fill="black"></path></svg>