<svg width="24" height="24" viewBox="0 0 24 24" fill="none" xmlns="http://www.w3.org/2000/svg"><path d="M8.815 1.278 C 8.331 1.393,8.098 2.004,8.383 2.408 C 8.447 2.499,8.572 2.610,8.660 2.656 C 8.818 2.739,8.865 2.740,11.878 2.751 C 14.020 2.759,15.000 2.749,15.151 2.718 C 15.902 2.562,15.931 1.473,15.189 1.286 C 14.979 1.234,9.033 1.226,8.815 1.278 M5.720 3.805 C 5.458 3.909,5.269 4.200,5.269 4.500 C 5.269 4.807,5.460 5.095,5.733 5.197 C 5.809 5.226,7.041 5.240,9.590 5.240 C 13.275 5.240,13.337 5.239,13.503 5.159 C 13.599 5.112,13.720 5.006,13.786 4.912 C 13.881 4.774,13.900 4.706,13.900 4.500 C 13.900 4.294,13.881 4.226,13.786 4.088 C 13.720 3.994,13.599 3.888,13.503 3.841 C 13.337 3.761,13.277 3.760,9.577 3.763 C 7.188 3.764,5.784 3.780,5.720 3.805 M15.720 3.805 C 15.458 3.909,15.269 4.200,15.269 4.500 C 15.269 4.807,15.460 5.095,15.733 5.197 C 15.803 5.224,16.281 5.240,17.000 5.240 C 17.719 5.240,18.197 5.224,18.267 5.197 C 18.540 5.095,18.731 4.807,18.731 4.500 C 18.731 4.193,18.540 3.905,18.267 3.803 C 18.122 3.748,15.859 3.750,15.720 3.805 M6.372 6.283 C 4.607 6.395,3.209 7.075,2.341 8.242 C 1.650 9.169,1.303 10.299,1.271 11.722 C 1.261 12.184,1.267 12.231,1.353 12.369 C 1.591 12.753,2.108 12.851,2.464 12.580 C 2.673 12.420,2.724 12.254,2.765 11.606 C 2.845 10.328,3.170 9.470,3.820 8.820 C 4.288 8.352,4.812 8.079,5.615 7.887 L 6.060 7.780 12.000 7.780 L 17.940 7.780 18.385 7.887 C 19.188 8.079,19.712 8.352,20.180 8.820 C 20.648 9.288,20.921 9.812,21.113 10.615 L 21.220 11.060 21.220 14.500 L 21.220 17.940 21.113 18.385 C 20.921 19.188,20.648 19.712,20.180 20.180 C 19.712 20.648,19.188 20.921,18.385 21.113 L 17.940 21.220 12.000 21.220 L 6.060 21.220 5.615 21.113 C 4.090 20.748,3.246 19.908,2.894 18.405 C 2.808 18.039,2.791 17.840,2.766 16.979 C 2.738 15.994,2.736 15.975,2.633 15.798 C 2.351 15.317,1.651 15.314,1.370 15.794 C 1.284 15.939,1.264 16.033,1.249 16.354 C 1.227 16.835,1.297 17.988,1.377 18.441 C 1.634 19.899,2.322 21.038,3.381 21.759 C 4.241 22.345,5.184 22.637,6.474 22.720 C 7.300 22.772,16.700 22.772,17.526 22.720 C 18.816 22.637,19.759 22.345,20.619 21.759 C 21.503 21.157,22.135 20.257,22.459 19.139 C 22.734 18.190,22.773 17.484,22.747 13.940 C 22.725 11.084,22.717 10.922,22.543 10.180 C 22.246 8.907,21.587 7.900,20.619 7.241 C 19.759 6.655,18.816 6.363,17.526 6.280 C 16.793 6.233,7.110 6.236,6.372 6.283 M13.840 9.618 C 13.215 9.751,10.758 10.453,10.528 10.565 C 10.079 10.783,9.708 11.238,9.576 11.734 C 9.533 11.895,9.521 12.356,9.520 13.826 L 9.520 15.712 9.370 15.677 C 9.124 15.620,8.554 15.634,8.317 15.704 C 7.630 15.906,7.046 16.476,6.860 17.127 C 6.764 17.463,6.764 18.017,6.860 18.353 C 7.046 19.004,7.630 19.574,8.317 19.776 C 8.776 19.911,9.470 19.837,9.897 19.609 C 10.181 19.457,10.636 18.990,10.770 18.713 C 10.993 18.250,11.000 18.180,11.000 16.214 L 11.000 14.406 11.210 14.346 C 11.325 14.313,12.095 14.102,12.920 13.878 C 13.745 13.653,14.443 13.461,14.470 13.450 C 14.509 13.436,14.520 13.586,14.520 14.120 C 14.520 14.760,14.515 14.807,14.450 14.780 C 14.312 14.724,13.699 14.710,13.469 14.758 C 13.109 14.833,12.699 15.060,12.423 15.336 C 12.008 15.752,11.798 16.262,11.802 16.838 C 11.807 17.457,12.020 17.941,12.477 18.369 C 13.625 19.446,15.482 18.938,15.947 17.420 C 16.015 17.196,16.020 16.976,16.020 14.140 C 16.020 11.293,16.015 11.081,15.945 10.806 C 15.855 10.457,15.619 10.082,15.371 9.894 C 14.996 9.611,14.389 9.501,13.840 9.618 M14.480 11.120 C 14.504 11.165,14.518 11.353,14.512 11.549 L 14.500 11.898 12.860 12.347 C 11.958 12.594,11.171 12.807,11.110 12.821 L 11.000 12.846 11.000 12.501 C 11.000 12.105,11.056 11.956,11.235 11.882 C 11.435 11.799,14.213 11.046,14.329 11.043 C 14.398 11.041,14.453 11.069,14.480 11.120 M14.235 16.309 C 14.618 16.593,14.615 17.121,14.230 17.363 C 14.128 17.427,14.050 17.441,13.870 17.430 C 13.672 17.417,13.619 17.395,13.500 17.280 C 13.251 17.039,13.218 16.721,13.415 16.463 C 13.616 16.200,13.991 16.129,14.235 16.309 M9.231 17.227 C 9.423 17.370,9.489 17.497,9.495 17.733 C 9.500 17.970,9.434 18.101,9.232 18.252 C 9.083 18.363,8.804 18.385,8.623 18.299 C 8.172 18.085,8.163 17.412,8.607 17.185 C 8.776 17.099,9.087 17.120,9.231 17.227 " stroke="none" fill-rule="evenodd" fill="black"></path></svg>