<svg width="24" height="24" viewBox="0 0 24 24" fill="none" xmlns="http://www.w3.org/2000/svg"><path d="M1.815 2.278 C 1.331 2.393,1.098 3.004,1.383 3.408 C 1.448 3.499,1.572 3.610,1.660 3.656 C 1.813 3.736,1.888 3.741,3.373 3.752 C 5.166 3.766,5.287 3.753,5.519 3.521 C 5.918 3.122,5.731 2.423,5.189 2.286 C 4.981 2.234,2.029 2.227,1.815 2.278 M7.815 2.278 C 7.331 2.393,7.098 3.004,7.383 3.408 C 7.447 3.499,7.572 3.610,7.660 3.656 L 7.820 3.740 14.880 3.751 C 19.920 3.758,22.001 3.749,22.154 3.717 C 22.902 3.562,22.929 2.473,22.189 2.286 C 21.978 2.233,8.035 2.225,7.815 2.278 M20.012 7.283 C 19.687 7.333,15.128 8.580,14.833 8.700 C 14.168 8.970,13.623 9.551,13.389 10.239 C 13.300 10.499,13.300 10.511,13.289 13.870 C 13.283 15.723,13.268 17.240,13.257 17.240 C 13.246 17.240,13.164 17.203,13.075 17.158 C 12.583 16.907,11.681 16.835,11.063 16.997 C 10.285 17.201,9.600 17.774,9.218 18.540 C 8.521 19.938,9.072 21.636,10.474 22.410 C 11.256 22.841,12.424 22.841,13.206 22.410 C 13.758 22.105,14.181 21.664,14.462 21.100 C 14.762 20.499,14.760 20.525,14.760 17.143 L 14.760 14.173 15.690 13.920 C 16.202 13.782,16.665 13.646,16.720 13.618 C 16.925 13.515,17.120 13.208,17.120 12.991 C 17.119 12.650,16.870 12.327,16.544 12.245 C 16.336 12.193,16.372 12.187,15.496 12.425 C 15.142 12.521,14.831 12.600,14.806 12.600 C 14.734 12.600,14.743 10.948,14.817 10.705 C 14.895 10.446,15.049 10.257,15.279 10.141 C 15.386 10.087,16.531 9.753,17.823 9.400 C 19.745 8.875,20.224 8.757,20.446 8.755 C 20.820 8.752,20.989 8.838,21.120 9.100 C 21.215 9.289,21.221 9.341,21.233 10.080 L 21.245 10.860 20.665 11.015 C 20.334 11.103,20.023 11.211,19.942 11.266 C 19.588 11.507,19.534 12.056,19.833 12.375 C 20.064 12.623,20.336 12.655,20.890 12.502 L 21.240 12.405 21.240 14.100 L 21.240 15.796 21.030 15.700 C 20.357 15.392,19.464 15.369,18.748 15.640 C 18.227 15.836,17.617 16.358,17.304 16.874 C 16.803 17.699,16.770 18.854,17.223 19.720 C 17.509 20.266,18.012 20.748,18.581 21.022 C 19.308 21.371,20.335 21.370,21.066 21.018 C 21.827 20.653,22.393 19.984,22.648 19.153 L 22.737 18.860 22.751 14.460 C 22.765 9.984,22.748 9.286,22.617 8.840 C 22.334 7.875,21.626 7.319,20.611 7.264 C 20.418 7.253,20.148 7.262,20.012 7.283 M1.815 8.278 C 1.331 8.393,1.098 9.004,1.383 9.408 C 1.448 9.499,1.572 9.610,1.660 9.656 C 1.819 9.740,1.843 9.740,6.380 9.751 C 9.605 9.758,11.002 9.749,11.153 9.717 C 11.902 9.562,11.929 8.473,11.189 8.286 C 10.979 8.234,2.034 8.226,1.815 8.278 M1.815 14.278 C 1.331 14.393,1.098 15.004,1.383 15.408 C 1.448 15.499,1.572 15.610,1.660 15.656 C 1.818 15.739,1.865 15.740,4.878 15.751 C 7.020 15.759,8.000 15.749,8.151 15.718 C 8.902 15.562,8.931 14.473,8.189 14.286 C 7.979 14.234,2.033 14.226,1.815 14.278 M20.360 17.052 C 20.671 17.166,21.035 17.536,21.157 17.860 C 21.282 18.193,21.263 18.643,21.112 18.969 C 20.980 19.252,20.690 19.540,20.400 19.677 C 20.214 19.764,20.124 19.780,19.820 19.780 C 19.516 19.780,19.426 19.764,19.240 19.677 C 18.950 19.540,18.660 19.252,18.527 18.969 C 18.434 18.771,18.420 18.689,18.420 18.360 C 18.421 17.905,18.495 17.709,18.782 17.402 C 19.193 16.962,19.769 16.835,20.360 17.052 M12.440 18.525 C 12.701 18.649,12.991 18.930,13.116 19.181 C 13.304 19.557,13.303 20.085,13.113 20.465 C 12.991 20.710,12.699 20.992,12.440 21.115 C 12.251 21.205,12.167 21.220,11.840 21.220 C 11.513 21.220,11.429 21.205,11.240 21.115 C 10.118 20.581,10.158 18.978,11.305 18.497 C 11.631 18.360,12.116 18.372,12.440 18.525 M1.815 20.278 C 1.331 20.393,1.098 21.004,1.383 21.408 C 1.448 21.499,1.572 21.610,1.660 21.656 C 1.815 21.738,1.880 21.740,3.875 21.752 C 6.208 21.765,6.281 21.759,6.519 21.521 C 6.918 21.122,6.731 20.423,6.189 20.286 C 5.980 20.234,2.031 20.226,1.815 20.278 " stroke="none" fill-rule="evenodd" fill="black"></path></svg>