<svg width="24" height="24" viewBox="0 0 24 24" fill="none" xmlns="http://www.w3.org/2000/svg"><path d="M11.560 1.267 C 10.539 1.307,9.016 1.600,8.671 1.823 C 8.476 1.950,8.360 2.180,8.360 2.440 C 8.360 2.670,8.420 2.810,8.586 2.967 C 8.828 3.196,9.048 3.211,9.692 3.044 C 10.545 2.823,10.924 2.780,12.020 2.781 C 13.110 2.782,13.450 2.820,14.291 3.038 C 14.966 3.213,15.397 3.374,16.060 3.700 C 17.310 4.314,18.368 5.161,19.206 6.220 C 19.728 6.880,19.809 6.968,19.946 7.025 C 20.297 7.172,20.729 7.008,20.910 6.661 C 20.985 6.517,20.991 6.173,20.920 6.038 C 20.892 5.984,20.778 5.814,20.666 5.660 C 19.004 3.374,16.460 1.822,13.653 1.383 C 13.309 1.329,11.942 1.226,11.880 1.249 C 11.869 1.253,11.725 1.261,11.560 1.267 M5.444 3.542 C 5.124 3.681,4.066 4.703,3.548 5.374 C 2.881 6.238,2.403 7.078,2.015 8.067 C 1.909 8.338,1.840 8.579,1.840 8.679 C 1.840 9.025,2.124 9.352,2.458 9.390 C 2.931 9.443,3.143 9.271,3.401 8.620 C 3.997 7.121,4.686 6.171,6.146 4.839 C 6.349 4.654,6.395 4.586,6.437 4.414 C 6.502 4.143,6.443 3.929,6.248 3.725 C 6.029 3.495,5.717 3.424,5.444 3.542 M14.760 6.150 C 14.461 6.172,14.085 6.262,12.540 6.685 C 10.548 7.231,10.515 7.243,10.126 7.556 C 9.949 7.699,9.675 8.066,9.595 8.268 C 9.444 8.649,9.440 8.731,9.439 11.050 C 9.439 12.298,9.431 13.320,9.421 13.320 C 9.412 13.320,9.300 13.293,9.174 13.260 C 9.047 13.227,8.783 13.200,8.587 13.200 C 7.913 13.200,7.444 13.395,6.955 13.879 C 6.473 14.356,6.268 14.845,6.268 15.520 C 6.268 16.195,6.473 16.684,6.955 17.161 C 7.482 17.682,7.950 17.861,8.700 17.830 C 9.230 17.807,9.543 17.705,9.932 17.427 C 10.252 17.199,10.476 16.942,10.659 16.596 C 10.915 16.110,10.919 16.067,10.919 13.577 L 10.920 11.333 13.010 10.760 C 14.160 10.445,15.132 10.179,15.170 10.169 C 15.235 10.152,15.240 10.221,15.240 11.211 L 15.240 12.272 15.050 12.214 C 14.741 12.120,14.260 12.104,13.920 12.176 C 13.146 12.339,12.454 12.955,12.193 13.712 C 12.060 14.098,12.060 14.822,12.193 15.208 C 12.380 15.750,12.855 16.294,13.368 16.554 C 14.648 17.201,16.240 16.499,16.667 15.100 C 16.735 14.875,16.740 14.636,16.740 11.340 C 16.740 7.434,16.747 7.547,16.474 7.035 C 16.163 6.451,15.480 6.098,14.760 6.150 M15.144 7.724 C 15.208 7.795,15.220 7.871,15.220 8.209 L 15.220 8.611 13.120 9.184 C 11.965 9.500,10.998 9.759,10.970 9.759 C 10.933 9.760,10.920 9.652,10.920 9.350 C 10.920 8.870,10.985 8.715,11.230 8.613 C 11.312 8.579,12.117 8.348,13.019 8.099 C 14.770 7.616,15.008 7.574,15.144 7.724 M21.625 9.528 C 21.412 9.586,21.184 9.823,21.128 10.045 C 21.093 10.184,21.097 10.304,21.145 10.601 C 21.230 11.127,21.261 12.368,21.203 12.927 C 21.020 14.706,20.308 16.433,19.187 17.820 C 18.852 18.235,18.028 19.038,17.619 19.347 C 16.560 20.148,15.222 20.772,13.998 21.035 C 12.560 21.344,10.921 21.302,9.561 20.923 C 9.076 20.788,8.813 20.818,8.586 21.033 C 8.420 21.190,8.360 21.330,8.360 21.560 C 8.360 21.820,8.476 22.050,8.671 22.177 C 8.840 22.287,9.379 22.437,10.023 22.554 C 10.663 22.670,10.761 22.681,11.420 22.719 C 13.955 22.862,16.404 22.118,18.470 20.575 C 19.087 20.115,20.115 19.087,20.575 18.470 C 22.120 16.402,22.870 13.928,22.719 11.403 C 22.676 10.678,22.582 10.068,22.485 9.880 C 22.337 9.593,21.958 9.438,21.625 9.528 M1.815 11.277 C 1.548 11.343,1.318 11.592,1.266 11.870 C 1.229 12.067,1.311 13.198,1.401 13.734 C 1.563 14.705,1.857 15.655,2.057 15.854 C 2.408 16.205,3.023 16.109,3.235 15.670 C 3.351 15.431,3.343 15.285,3.182 14.755 C 2.927 13.911,2.761 12.966,2.759 12.342 C 2.758 11.942,2.704 11.699,2.580 11.536 C 2.421 11.327,2.078 11.211,1.815 11.277 M14.800 13.722 C 15.077 13.861,15.240 14.134,15.240 14.460 C 15.240 15.047,14.684 15.433,14.113 15.244 C 13.918 15.180,13.657 14.891,13.599 14.675 C 13.412 13.982,14.151 13.395,14.800 13.722 M8.961 14.772 C 9.235 14.917,9.365 15.108,9.397 15.413 C 9.427 15.708,9.388 15.860,9.232 16.056 C 8.916 16.451,8.311 16.454,7.967 16.062 C 7.801 15.873,7.760 15.765,7.760 15.520 C 7.760 15.275,7.801 15.167,7.967 14.978 C 8.227 14.682,8.632 14.598,8.961 14.772 M4.010 17.863 C 3.704 18.046,3.566 18.514,3.728 18.820 C 3.874 19.095,4.985 20.167,5.360 20.395 C 5.559 20.516,5.880 20.511,6.097 20.384 C 6.414 20.198,6.553 19.734,6.387 19.414 C 6.352 19.345,6.125 19.116,5.884 18.904 C 5.643 18.692,5.326 18.388,5.179 18.229 C 4.829 17.849,4.681 17.760,4.400 17.761 C 4.235 17.761,4.137 17.787,4.010 17.863 " stroke="none" fill-rule="evenodd" fill="black"></path></svg>