<svg width="24" height="24" viewBox="0 0 24 24" fill="none" xmlns="http://www.w3.org/2000/svg"><path d="M18.280 1.203 C 18.093 1.219,17.814 1.262,17.660 1.298 C 16.910 1.473,10.872 3.144,10.630 3.244 C 9.869 3.558,9.205 4.230,8.893 5.001 C 8.655 5.590,8.666 5.333,8.642 10.788 L 8.620 15.796 8.440 15.673 C 8.341 15.605,8.116 15.481,7.939 15.397 C 6.424 14.677,4.603 15.022,3.460 16.245 C 1.696 18.133,2.262 21.218,4.580 22.342 C 6.758 23.398,9.368 22.230,9.998 19.916 C 10.149 19.359,10.159 19.018,10.160 14.492 L 10.160 10.083 10.330 10.038 C 10.423 10.013,12.639 9.409,15.253 8.696 C 17.867 7.983,20.023 7.400,20.043 7.400 C 20.063 7.400,20.080 7.516,20.080 7.658 C 20.080 7.800,20.100 8.009,20.124 8.122 C 20.264 8.772,21.130 8.903,21.487 8.329 L 21.580 8.180 21.579 6.100 C 21.577 4.311,21.567 3.968,21.509 3.650 C 21.366 2.881,21.138 2.414,20.683 1.956 C 20.090 1.361,19.302 1.114,18.280 1.203 M19.198 2.743 C 19.469 2.824,19.760 3.089,19.879 3.366 C 20.040 3.742,20.079 4.046,20.079 4.968 L 20.080 5.837 19.910 5.882 C 19.817 5.907,17.601 6.511,14.987 7.224 C 12.373 7.937,10.217 8.520,10.197 8.520 C 10.134 8.520,10.151 6.018,10.216 5.774 C 10.342 5.301,10.713 4.850,11.137 4.656 C 11.335 4.565,17.902 2.751,18.181 2.710 C 18.475 2.666,18.997 2.683,19.198 2.743 M20.655 11.278 C 20.479 11.320,20.302 11.455,20.193 11.631 C 20.104 11.773,20.099 11.823,20.080 12.748 L 20.060 13.717 19.880 13.593 C 18.813 12.861,17.298 12.743,16.097 13.298 C 13.623 14.440,13.093 17.758,15.085 19.620 C 16.614 21.049,19.046 20.990,20.488 19.489 C 21.107 18.843,21.456 18.092,21.559 17.180 C 21.613 16.696,21.612 12.079,21.557 11.841 C 21.534 11.742,21.473 11.605,21.420 11.536 C 21.263 11.331,20.920 11.215,20.655 11.278 M18.248 14.484 C 18.658 14.569,19.032 14.783,19.384 15.136 C 19.874 15.627,20.080 16.119,20.080 16.800 C 20.080 17.481,19.874 17.973,19.384 18.464 C 18.893 18.954,18.401 19.160,17.720 19.160 C 17.039 19.160,16.547 18.954,16.056 18.464 C 15.561 17.970,15.360 17.489,15.360 16.800 C 15.360 16.626,15.380 16.389,15.404 16.272 C 15.570 15.471,16.327 14.692,17.131 14.497 C 17.395 14.434,17.971 14.427,18.248 14.484 M6.808 16.564 C 7.440 16.695,8.128 17.243,8.410 17.840 C 8.584 18.207,8.640 18.464,8.640 18.894 C 8.640 19.560,8.431 20.057,7.944 20.544 C 7.453 21.034,6.961 21.240,6.280 21.240 C 5.599 21.240,5.107 21.034,4.616 20.544 C 4.267 20.194,4.092 19.895,3.981 19.462 C 3.910 19.182,3.901 18.653,3.964 18.352 C 4.130 17.551,4.887 16.772,5.691 16.577 C 5.955 16.514,6.531 16.507,6.808 16.564 " stroke="none" fill-rule="evenodd" fill="black"></path></svg>