<svg width="24" height="24" viewBox="0 0 24 24" fill="none" xmlns="http://www.w3.org/2000/svg"><path d="M5.640 3.978 C 4.393 4.244,3.443 5.154,3.110 6.401 L 3.020 6.740 3.020 12.000 L 3.020 17.260 3.110 17.600 C 3.411 18.739,4.324 19.656,5.469 19.967 C 5.879 20.079,6.696 20.089,7.075 19.987 C 7.617 19.842,7.582 19.862,14.350 15.947 C 15.456 15.307,16.482 14.693,16.629 14.582 C 17.133 14.203,17.554 13.591,17.761 12.940 C 17.883 12.554,17.916 11.699,17.824 11.305 C 17.621 10.443,17.104 9.691,16.407 9.246 C 16.094 9.046,15.867 9.003,15.620 9.098 C 15.031 9.323,14.970 10.087,15.513 10.436 C 15.757 10.592,16.085 10.934,16.191 11.143 C 16.480 11.711,16.463 12.392,16.146 12.933 C 15.955 13.260,15.656 13.474,14.295 14.257 C 13.572 14.674,11.702 15.752,10.140 16.654 C 8.578 17.555,7.190 18.344,7.055 18.407 C 6.544 18.648,6.005 18.637,5.483 18.376 C 4.955 18.112,4.601 17.599,4.518 16.979 C 4.490 16.766,4.480 15.038,4.488 11.760 C 4.500 6.887,4.501 6.859,4.585 6.640 C 4.702 6.333,4.806 6.173,5.047 5.929 C 5.526 5.445,6.283 5.274,6.902 5.510 C 7.011 5.551,8.081 6.150,9.280 6.841 C 11.319 8.015,11.475 8.097,11.685 8.112 C 11.968 8.133,12.167 8.045,12.323 7.830 C 12.539 7.531,12.508 7.116,12.249 6.869 C 12.123 6.748,8.178 4.465,7.700 4.235 C 7.524 4.151,7.272 4.052,7.140 4.016 C 6.815 3.927,5.980 3.906,5.640 3.978 M19.960 5.125 C 19.831 5.176,19.651 5.348,19.566 5.500 C 19.506 5.609,19.499 5.991,19.489 9.779 C 19.481 12.716,19.491 14.002,19.523 14.153 C 19.683 14.925,20.792 14.925,20.959 14.154 C 20.992 13.998,21.002 12.816,20.992 9.780 C 20.981 5.993,20.974 5.609,20.914 5.500 C 20.826 5.341,20.647 5.175,20.507 5.123 C 20.369 5.070,20.094 5.071,19.960 5.125 M20.047 16.287 C 19.787 16.346,19.580 16.571,19.520 16.862 C 19.449 17.203,19.482 18.343,19.568 18.500 C 19.713 18.768,19.957 18.920,20.240 18.920 C 20.523 18.920,20.767 18.768,20.912 18.500 C 20.996 18.346,21.031 17.196,20.963 16.875 C 20.866 16.424,20.496 16.186,20.047 16.287 " stroke="none" fill-rule="evenodd" fill="black"></path></svg>