<svg width="24" height="24" viewBox="0 0 24 24" fill="none" xmlns="http://www.w3.org/2000/svg"><path d="M7.815 1.277 C 7.638 1.321,7.461 1.456,7.354 1.630 C 7.274 1.759,7.260 1.843,7.247 2.284 L 7.231 2.791 6.985 2.817 C 4.527 3.076,2.857 4.580,2.401 6.944 C 2.308 7.426,2.234 8.454,2.278 8.650 C 2.406 9.219,3.080 9.439,3.494 9.047 C 3.693 8.859,3.727 8.744,3.763 8.143 C 3.838 6.887,4.134 6.056,4.735 5.411 C 5.292 4.814,6.065 4.447,7.065 4.304 L 7.230 4.281 7.247 4.752 C 7.261 5.155,7.277 5.246,7.355 5.371 C 7.708 5.944,8.577 5.810,8.716 5.162 C 8.740 5.049,8.760 4.795,8.760 4.598 L 8.760 4.240 11.995 4.240 L 15.230 4.240 15.247 4.732 C 15.261 5.156,15.275 5.243,15.354 5.371 C 15.708 5.944,16.577 5.811,16.716 5.162 C 16.740 5.049,16.760 4.804,16.760 4.618 L 16.760 4.279 16.930 4.303 C 18.826 4.574,19.907 5.639,20.179 7.506 C 20.235 7.888,20.241 8.538,20.230 12.960 L 20.217 17.980 20.112 18.405 C 19.916 19.197,19.642 19.719,19.180 20.180 C 18.712 20.648,18.188 20.921,17.385 21.113 L 16.940 21.220 12.000 21.220 L 7.060 21.220 6.615 21.113 C 5.091 20.748,4.260 19.922,3.890 18.405 L 3.786 17.980 3.763 15.260 C 3.738 12.300,3.749 12.432,3.513 12.212 C 3.391 12.097,3.155 12.000,3.000 12.000 C 2.845 12.000,2.609 12.097,2.487 12.212 C 2.254 12.429,2.261 12.358,2.247 14.640 C 2.234 16.924,2.273 17.914,2.402 18.562 C 2.660 19.857,3.283 20.936,4.155 21.594 C 5.105 22.312,6.030 22.625,7.480 22.720 C 8.235 22.770,15.765 22.770,16.520 22.720 C 17.970 22.625,18.895 22.312,19.845 21.594 C 20.196 21.329,20.486 21.019,20.759 20.619 C 21.342 19.762,21.638 18.811,21.720 17.526 C 21.771 16.722,21.771 8.775,21.720 7.980 C 21.615 6.357,21.185 5.251,20.298 4.323 C 19.501 3.489,18.340 2.957,17.010 2.816 L 16.760 2.790 16.760 2.417 C 16.760 1.884,16.704 1.664,16.522 1.482 C 16.173 1.133,15.618 1.203,15.354 1.629 C 15.275 1.757,15.261 1.844,15.247 2.268 L 15.230 2.760 11.995 2.760 L 8.760 2.760 8.759 2.390 C 8.758 1.944,8.707 1.704,8.580 1.536 C 8.421 1.327,8.078 1.211,7.815 1.277 M7.815 10.278 C 7.331 10.393,7.098 11.004,7.383 11.408 C 7.447 11.499,7.572 11.610,7.660 11.656 C 7.819 11.739,7.851 11.740,11.879 11.751 C 14.744 11.759,16.001 11.749,16.153 11.717 C 16.902 11.562,16.930 10.473,16.189 10.286 C 15.979 10.234,8.034 10.226,7.815 10.278 M7.815 15.278 C 7.331 15.393,7.098 16.004,7.383 16.408 C 7.447 16.499,7.572 16.610,7.660 16.656 C 7.815 16.738,7.880 16.740,9.875 16.752 C 12.208 16.765,12.281 16.759,12.519 16.521 C 12.918 16.122,12.731 15.423,12.189 15.286 C 11.980 15.234,8.031 15.226,7.815 15.278 " stroke="none" fill-rule="evenodd" fill="black"></path></svg>