<svg width="24" height="24" viewBox="0 0 24 24" fill="none" xmlns="http://www.w3.org/2000/svg"><path d="M12.460 1.786 C 10.772 1.989,9.663 2.660,8.766 4.020 C 8.621 4.240,8.501 4.424,8.499 4.429 C 8.497 4.434,8.334 4.484,8.138 4.541 C 7.475 4.730,5.343 5.450,4.921 5.627 C 3.115 6.384,1.969 7.463,1.497 8.850 C 1.130 9.927,1.175 11.390,1.620 12.940 C 1.722 13.296,2.707 16.359,3.080 17.482 C 4.052 20.407,5.433 21.863,7.540 22.186 C 7.831 22.231,8.115 22.242,8.580 22.227 C 9.644 22.193,10.371 22.028,12.331 21.378 C 13.673 20.933,14.390 20.647,14.919 20.348 L 15.231 20.171 15.966 20.149 C 16.373 20.137,16.834 20.100,17.000 20.066 C 18.652 19.730,19.786 18.808,20.598 17.140 C 21.048 16.216,21.179 15.765,21.920 12.600 C 22.671 9.393,22.696 9.251,22.695 8.060 C 22.695 7.216,22.642 6.830,22.439 6.200 C 22.257 5.637,21.803 4.876,21.455 4.553 C 20.985 4.115,20.229 4.453,20.229 5.101 C 20.229 5.335,20.261 5.406,20.529 5.755 C 21.019 6.395,21.215 7.067,21.214 8.100 C 21.212 9.029,21.174 9.242,20.496 12.140 C 19.724 15.436,19.642 15.723,19.222 16.560 C 18.955 17.093,18.752 17.377,18.363 17.760 C 17.764 18.351,17.057 18.622,16.000 18.666 C 15.126 18.703,14.373 18.581,12.260 18.059 C 10.511 17.628,9.690 17.283,8.908 16.653 C 7.781 15.744,7.480 14.260,7.956 11.960 C 8.061 11.454,8.887 7.923,9.060 7.240 C 9.562 5.262,10.268 4.142,11.340 3.622 C 11.991 3.307,12.678 3.201,13.594 3.275 C 14.287 3.332,14.756 3.416,16.072 3.720 C 16.645 3.852,17.137 3.960,17.167 3.960 C 17.582 3.958,17.963 3.525,17.909 3.117 C 17.880 2.900,17.714 2.659,17.530 2.566 C 17.387 2.493,15.634 2.074,14.920 1.941 C 14.139 1.795,12.988 1.723,12.460 1.786 M7.744 6.305 C 7.638 6.580,6.467 11.619,6.364 12.240 C 5.982 14.546,6.353 16.195,7.529 17.427 C 8.223 18.152,9.108 18.679,10.340 19.099 C 10.582 19.182,11.194 19.352,11.700 19.478 L 12.620 19.707 11.580 20.051 C 9.753 20.656,8.877 20.818,7.951 20.722 C 7.137 20.638,6.572 20.376,6.040 19.835 C 5.641 19.430,5.344 18.985,5.024 18.315 C 4.709 17.656,4.605 17.364,3.804 14.880 C 2.842 11.895,2.805 11.745,2.771 10.717 C 2.748 9.977,2.801 9.585,2.987 9.144 C 3.360 8.258,4.226 7.536,5.602 6.964 C 5.936 6.826,7.628 6.248,7.714 6.243 C 7.748 6.241,7.759 6.264,7.744 6.305 M12.250 7.903 C 12.076 8.007,11.953 8.192,11.902 8.427 C 11.846 8.687,12.027 9.049,12.276 9.178 C 12.474 9.280,17.289 10.490,17.501 10.491 C 18.025 10.492,18.379 9.969,18.178 9.489 C 18.103 9.309,17.948 9.141,17.805 9.084 C 17.525 8.971,12.785 7.800,12.612 7.800 C 12.478 7.801,12.369 7.832,12.250 7.903 M11.580 11.660 C 11.558 11.667,11.491 11.684,11.431 11.697 C 11.371 11.710,11.255 11.779,11.175 11.850 C 10.707 12.260,10.898 12.954,11.527 13.133 C 12.238 13.335,14.460 13.880,14.574 13.880 C 15.036 13.880,15.399 13.403,15.278 12.954 C 15.236 12.798,15.048 12.548,14.921 12.480 C 14.846 12.441,11.718 11.638,11.657 11.643 C 11.637 11.645,11.602 11.652,11.580 11.660 " stroke="none" fill-rule="evenodd" fill="black"></path></svg>