<svg width="24" height="24" viewBox="0 0 24 24" fill="none" xmlns="http://www.w3.org/2000/svg"><path d="M8.080 1.282 C 4.042 1.493,1.931 3.265,1.398 6.891 C 1.310 7.494,1.225 8.895,1.264 9.113 C 1.278 9.194,1.325 9.318,1.368 9.389 C 1.658 9.870,2.422 9.836,2.661 9.332 C 2.718 9.212,2.740 9.022,2.765 8.423 C 2.900 5.187,3.905 3.654,6.288 3.044 C 7.337 2.776,7.247 2.780,12.000 2.780 C 16.745 2.780,16.622 2.774,17.688 3.040 C 19.520 3.496,20.504 4.481,20.960 6.312 C 21.163 7.129,21.208 7.555,21.235 8.940 C 21.259 10.188,21.262 10.224,21.353 10.369 C 21.710 10.943,22.576 10.812,22.716 10.162 C 22.799 9.775,22.742 7.885,22.622 7.027 C 22.359 5.157,21.686 3.741,20.641 2.857 C 19.477 1.874,18.011 1.396,15.806 1.280 C 14.952 1.235,8.952 1.237,8.080 1.282 M18.080 11.295 C 17.417 11.440,16.927 11.948,16.804 12.617 C 16.775 12.772,16.760 13.672,16.760 15.192 C 16.760 17.401,16.756 17.527,16.690 17.502 C 16.152 17.294,15.685 17.225,15.193 17.281 C 14.234 17.390,13.462 17.942,13.038 18.820 C 12.674 19.575,12.674 20.425,13.038 21.180 C 13.559 22.259,14.645 22.856,15.838 22.720 C 16.500 22.645,17.038 22.368,17.515 21.857 C 17.833 21.516,18.050 21.128,18.164 20.692 C 18.243 20.393,18.246 20.281,18.241 18.025 C 18.237 16.104,18.245 15.673,18.288 15.690 C 18.317 15.700,18.867 15.883,19.512 16.096 C 20.860 16.541,21.116 16.586,21.544 16.450 C 22.231 16.231,22.632 15.731,22.726 14.974 C 22.778 14.550,22.746 13.904,22.658 13.600 C 22.471 12.960,21.957 12.388,21.340 12.132 C 20.922 11.959,18.928 11.322,18.680 11.282 C 18.372 11.233,18.362 11.233,18.080 11.295 M1.619 12.377 C 1.529 12.431,1.415 12.550,1.359 12.647 C 1.262 12.817,1.260 12.838,1.247 13.860 C 1.223 15.666,1.335 17.079,1.575 18.027 C 2.267 20.757,3.971 22.193,7.027 22.622 C 7.934 22.749,10.713 22.812,11.162 22.716 C 11.828 22.573,11.943 21.639,11.332 21.336 C 11.192 21.266,11.035 21.258,9.400 21.235 C 7.476 21.208,7.215 21.184,6.312 20.960 C 4.489 20.506,3.509 19.532,3.044 17.712 C 2.820 16.835,2.790 16.494,2.764 14.580 L 2.740 12.820 2.634 12.640 C 2.427 12.288,1.967 12.169,1.619 12.377 M19.720 13.156 C 21.227 13.667,21.240 13.678,21.240 14.473 C 21.240 14.970,21.201 15.061,21.007 15.014 C 20.757 14.954,18.656 14.226,18.571 14.170 C 18.519 14.136,18.432 14.033,18.378 13.941 C 18.289 13.788,18.280 13.731,18.280 13.293 C 18.280 13.029,18.292 12.801,18.307 12.787 C 18.374 12.719,18.631 12.787,19.720 13.156 M15.934 18.824 C 16.174 18.906,16.511 19.212,16.641 19.465 C 16.723 19.628,16.740 19.717,16.740 20.000 C 16.740 20.419,16.644 20.635,16.331 20.921 C 16.057 21.171,15.809 21.256,15.422 21.231 C 14.080 21.145,13.837 19.271,15.108 18.818 C 15.316 18.744,15.707 18.747,15.934 18.824 " stroke="none" fill-rule="evenodd" fill="black"></path></svg>