<svg width="24" height="24" viewBox="0 0 24 24" fill="none" xmlns="http://www.w3.org/2000/svg"><path d="M7.815 1.277 C 7.638 1.321,7.461 1.456,7.353 1.631 C 7.271 1.763,7.259 1.841,7.246 2.329 L 7.231 2.878 7.085 2.902 C 6.032 3.073,5.478 3.232,4.858 3.541 C 3.038 4.451,2.201 6.278,2.200 9.341 C 2.200 10.109,2.225 10.198,2.498 10.419 C 2.634 10.529,2.674 10.540,2.937 10.540 C 3.194 10.540,3.243 10.527,3.377 10.425 C 3.620 10.240,3.678 10.061,3.679 9.500 C 3.681 8.820,3.747 8.012,3.842 7.506 C 4.195 5.636,5.007 4.802,6.810 4.461 C 6.985 4.427,7.151 4.400,7.179 4.400 C 7.215 4.400,7.235 4.518,7.248 4.814 C 7.263 5.153,7.283 5.255,7.356 5.374 C 7.708 5.944,8.577 5.809,8.716 5.162 C 8.740 5.049,8.760 4.815,8.760 4.642 L 8.760 4.327 9.090 4.304 C 9.271 4.292,10.626 4.263,12.100 4.240 C 13.574 4.217,14.881 4.190,15.005 4.180 L 15.231 4.162 15.246 4.692 C 15.260 5.158,15.273 5.239,15.354 5.370 C 15.708 5.944,16.577 5.811,16.716 5.162 C 16.740 5.049,16.760 4.793,16.760 4.594 C 16.760 4.238,16.762 4.232,16.850 4.253 C 16.899 4.265,17.053 4.295,17.191 4.319 C 17.975 4.459,18.723 4.855,19.138 5.351 C 19.708 6.033,20.060 7.234,20.158 8.840 C 20.222 9.868,20.332 15.643,20.307 16.580 C 20.274 17.801,20.134 18.567,19.824 19.220 C 19.230 20.472,17.946 21.062,15.560 21.179 C 14.556 21.228,8.709 21.327,8.240 21.302 C 6.206 21.196,5.056 20.662,4.481 19.557 C 4.004 18.640,3.860 17.693,3.807 15.120 C 3.778 13.711,3.777 13.699,3.679 13.526 C 3.349 12.942,2.469 13.078,2.321 13.735 C 2.283 13.905,2.343 16.652,2.399 17.286 C 2.623 19.821,3.438 21.292,5.077 22.118 C 5.884 22.525,6.970 22.745,8.380 22.786 C 9.307 22.813,15.330 22.697,16.100 22.637 C 19.325 22.386,21.008 21.167,21.580 18.669 C 21.725 18.035,21.768 17.569,21.788 16.400 C 21.811 15.086,21.702 9.414,21.637 8.540 C 21.536 7.177,21.290 6.135,20.872 5.303 C 20.641 4.844,20.431 4.546,20.083 4.186 C 19.359 3.437,18.486 3.020,17.210 2.813 L 16.760 2.740 16.760 2.392 C 16.760 1.884,16.702 1.662,16.522 1.482 C 16.174 1.134,15.618 1.203,15.355 1.628 C 15.279 1.751,15.262 1.845,15.247 2.227 C 15.238 2.476,15.219 2.680,15.205 2.681 C 14.851 2.695,9.697 2.798,9.310 2.799 L 8.760 2.800 8.759 2.410 C 8.758 1.945,8.709 1.705,8.580 1.536 C 8.421 1.327,8.078 1.211,7.815 1.277 M9.367 12.287 C 9.118 12.343,8.901 12.571,8.844 12.838 C 8.820 12.952,8.800 13.426,8.800 13.902 L 8.800 14.760 7.823 14.760 C 7.229 14.760,6.801 14.777,6.733 14.803 C 6.460 14.905,6.269 15.193,6.269 15.500 C 6.269 15.807,6.460 16.095,6.733 16.197 C 6.801 16.223,7.229 16.240,7.823 16.240 L 8.800 16.240 8.800 17.098 C 8.800 17.574,8.820 18.048,8.844 18.162 C 8.984 18.812,9.850 18.943,10.207 18.369 C 10.297 18.225,10.300 18.185,10.313 17.230 L 10.326 16.240 11.240 16.240 C 12.211 16.240,12.305 16.225,12.494 16.047 C 12.661 15.889,12.731 15.727,12.731 15.500 C 12.731 15.273,12.661 15.111,12.494 14.953 C 12.305 14.775,12.211 14.760,11.240 14.760 L 10.326 14.760 10.313 13.770 C 10.300 12.809,10.297 12.776,10.205 12.627 C 10.025 12.338,9.711 12.211,9.367 12.287 " stroke="none" fill-rule="evenodd" fill="black"></path></svg>