<svg width="24" height="24" viewBox="0 0 24 24" fill="none" xmlns="http://www.w3.org/2000/svg"><path d="M11.320 1.281 C 9.259 1.398,7.250 2.142,5.530 3.424 C 4.912 3.884,3.884 4.912,3.424 5.530 C 2.361 6.956,1.679 8.547,1.398 10.258 C 1.303 10.838,1.232 11.965,1.277 12.168 C 1.447 12.922,2.554 12.917,2.716 12.162 C 2.740 12.049,2.760 11.814,2.760 11.640 C 2.760 11.262,2.852 10.528,2.966 10.002 C 3.249 8.688,3.936 7.265,4.813 6.180 C 5.148 5.765,5.972 4.962,6.381 4.653 C 7.446 3.847,8.767 3.232,10.002 2.966 C 11.169 2.714,12.548 2.690,13.690 2.901 C 14.123 2.981,14.345 2.928,14.567 2.694 C 14.701 2.553,14.760 2.401,14.760 2.200 C 14.760 1.999,14.701 1.847,14.567 1.706 C 14.402 1.531,14.284 1.487,13.752 1.401 C 13.333 1.333,12.068 1.228,11.880 1.247 C 11.847 1.250,11.595 1.265,11.320 1.281 M18.595 1.281 C 17.580 1.395,16.634 1.925,16.031 2.719 C 15.793 3.032,15.468 3.687,15.382 4.025 C 15.231 4.624,15.231 5.376,15.382 5.975 C 15.468 6.313,15.793 6.968,16.031 7.281 C 16.501 7.900,17.288 8.427,18.025 8.617 C 18.619 8.770,19.381 8.770,19.975 8.617 C 20.712 8.427,21.499 7.900,21.969 7.281 C 22.207 6.968,22.532 6.313,22.618 5.975 C 22.846 5.071,22.708 3.831,22.338 3.461 C 21.990 3.113,21.377 3.211,21.165 3.650 C 21.059 3.868,21.058 4.024,21.160 4.380 C 21.258 4.721,21.266 5.244,21.179 5.578 C 21.082 5.949,20.888 6.274,20.581 6.581 C 20.121 7.041,19.644 7.240,19.000 7.240 C 18.356 7.240,17.879 7.041,17.419 6.581 C 16.959 6.121,16.760 5.644,16.760 5.000 C 16.760 4.355,16.960 3.871,17.416 3.416 C 17.813 3.018,18.361 2.760,18.806 2.760 C 19.294 2.760,19.634 2.543,19.711 2.183 C 19.786 1.835,19.633 1.482,19.350 1.347 C 19.165 1.260,18.955 1.241,18.595 1.281 M21.420 9.377 C 21.332 9.430,21.227 9.530,21.187 9.598 C 21.045 9.840,21.038 9.946,21.124 10.456 C 21.229 11.076,21.269 12.295,21.204 12.924 C 21.031 14.596,20.417 16.173,19.409 17.534 C 19.023 18.055,18.055 19.023,17.534 19.409 C 16.173 20.417,14.596 21.031,12.925 21.204 C 12.309 21.267,11.037 21.227,10.460 21.126 C 8.678 20.813,7.081 20.029,5.725 18.803 C 5.038 18.182,4.291 17.209,3.824 16.328 C 3.716 16.124,3.567 15.905,3.494 15.840 C 2.981 15.390,2.198 15.829,2.290 16.516 C 2.314 16.692,2.698 17.411,3.070 17.975 C 4.684 20.423,7.323 22.124,10.245 22.599 C 13.157 23.072,16.093 22.350,18.470 20.575 C 19.083 20.118,20.115 19.086,20.570 18.477 C 21.883 16.719,22.590 14.785,22.718 12.601 C 22.750 12.063,22.720 11.065,22.659 10.640 C 22.582 10.107,22.503 9.763,22.427 9.626 C 22.241 9.293,21.758 9.174,21.420 9.377 " stroke="none" fill-rule="evenodd" fill="black"></path></svg>