<svg width="24" height="24" viewBox="0 0 24 24" fill="none" xmlns="http://www.w3.org/2000/svg"><path d="M8.080 1.282 C 4.041 1.493,1.932 3.264,1.398 6.893 C 1.290 7.625,1.231 8.906,1.247 10.160 C 1.260 11.188,1.263 11.225,1.353 11.369 C 1.664 11.870,2.408 11.849,2.664 11.332 C 2.734 11.192,2.742 11.037,2.764 9.420 C 2.790 7.506,2.820 7.165,3.044 6.288 C 3.574 4.215,4.737 3.254,7.200 2.855 C 7.561 2.796,8.078 2.783,10.900 2.763 C 14.010 2.741,14.188 2.736,14.332 2.664 C 14.928 2.368,14.832 1.448,14.189 1.286 C 13.979 1.234,9.077 1.230,8.080 1.282 M18.595 1.281 C 17.580 1.395,16.634 1.925,16.031 2.719 C 15.793 3.032,15.468 3.687,15.382 4.025 C 15.231 4.624,15.231 5.376,15.382 5.975 C 15.468 6.313,15.793 6.968,16.031 7.281 C 16.501 7.900,17.288 8.427,18.025 8.617 C 18.619 8.770,19.381 8.770,19.975 8.617 C 20.712 8.427,21.499 7.900,21.969 7.281 C 22.207 6.968,22.532 6.313,22.618 5.975 C 22.846 5.071,22.708 3.831,22.338 3.461 C 21.990 3.113,21.377 3.211,21.165 3.650 C 21.059 3.868,21.058 4.024,21.160 4.380 C 21.258 4.721,21.266 5.244,21.179 5.578 C 21.082 5.949,20.888 6.274,20.581 6.581 C 20.121 7.041,19.644 7.240,19.000 7.240 C 18.356 7.240,17.879 7.041,17.419 6.581 C 16.959 6.121,16.760 5.644,16.760 5.000 C 16.760 4.355,16.960 3.871,17.416 3.416 C 17.813 3.018,18.361 2.760,18.806 2.760 C 19.294 2.760,19.634 2.543,19.711 2.183 C 19.786 1.835,19.633 1.482,19.350 1.347 C 19.165 1.260,18.955 1.241,18.595 1.281 M21.815 9.277 C 21.638 9.321,21.461 9.456,21.353 9.631 L 21.260 9.780 21.237 13.080 C 21.211 16.685,21.212 16.674,20.960 17.688 C 20.504 19.519,19.520 20.504,17.688 20.960 C 16.622 21.226,16.745 21.220,12.000 21.220 C 8.064 21.220,7.661 21.214,7.240 21.148 C 4.756 20.761,3.577 19.796,3.044 17.712 C 2.881 17.075,2.800 16.449,2.764 15.549 C 2.735 14.813,2.727 14.760,2.631 14.594 C 2.277 13.991,1.389 14.181,1.264 14.887 C 1.225 15.105,1.310 16.506,1.398 17.109 C 1.883 20.414,3.655 22.149,7.027 22.622 C 7.786 22.728,8.902 22.759,12.000 22.759 C 15.098 22.759,16.214 22.728,16.973 22.622 C 18.843 22.359,20.259 21.686,21.143 20.641 C 22.124 19.479,22.604 18.008,22.720 15.807 C 22.773 14.797,22.771 10.074,22.717 9.841 C 22.623 9.432,22.215 9.177,21.815 9.277 M8.060 11.309 C 7.367 11.476,6.789 11.879,6.428 12.446 C 5.700 13.589,5.806 15.075,6.707 16.356 C 7.104 16.920,7.973 17.646,8.660 17.989 C 9.530 18.423,10.104 18.422,10.976 17.985 C 12.397 17.272,13.386 16.050,13.643 14.689 C 13.713 14.320,13.670 13.570,13.559 13.220 C 13.301 12.404,12.811 11.823,12.109 11.502 C 11.747 11.335,11.486 11.280,11.066 11.280 C 10.688 11.280,10.357 11.354,10.036 11.511 L 9.811 11.621 9.536 11.494 C 9.385 11.424,9.163 11.348,9.044 11.324 C 8.829 11.281,8.215 11.271,8.060 11.309 M8.819 12.805 C 8.926 12.834,9.053 12.925,9.209 13.082 C 9.626 13.505,10.020 13.510,10.414 13.099 C 10.729 12.769,11.022 12.686,11.399 12.820 C 11.868 12.985,12.200 13.548,12.200 14.177 C 12.200 14.446,12.033 14.960,11.840 15.285 C 11.638 15.625,11.172 16.108,10.810 16.353 C 10.506 16.559,9.935 16.840,9.820 16.840 C 9.774 16.840,9.588 16.769,9.408 16.681 C 7.984 15.993,7.187 14.706,7.520 13.631 C 7.722 12.977,8.244 12.645,8.819 12.805 " stroke="none" fill-rule="evenodd" fill="black"></path></svg>