<svg width="24" height="24" viewBox="0 0 24 24" fill="none" xmlns="http://www.w3.org/2000/svg"><path d="M11.394 1.284 C 9.110 1.460,6.932 2.800,5.725 4.772 C 5.196 5.635,4.854 6.559,4.697 7.540 C 4.651 7.829,4.625 8.411,4.602 9.640 C 4.571 11.313,4.569 11.346,4.464 11.720 C 4.315 12.254,4.175 12.530,3.399 13.822 C 2.643 15.080,2.552 15.263,2.438 15.735 C 2.283 16.384,2.362 17.053,2.669 17.678 C 2.852 18.049,3.404 18.623,3.796 18.849 C 4.280 19.127,5.946 19.617,7.378 19.901 C 7.773 19.979,8.100 20.047,8.104 20.051 C 8.108 20.056,8.158 20.174,8.215 20.314 C 8.704 21.522,9.714 22.414,10.988 22.763 C 11.457 22.892,12.298 22.913,12.801 22.809 C 14.156 22.529,15.287 21.583,15.785 20.315 L 15.889 20.049 16.374 19.960 C 17.562 19.740,19.094 19.334,19.835 19.042 C 20.298 18.860,20.836 18.424,21.131 17.994 C 21.703 17.159,21.800 16.002,21.374 15.080 C 21.153 14.601,20.951 14.439,20.571 14.441 C 20.042 14.442,19.705 14.967,19.918 15.456 C 20.186 16.069,20.220 16.346,20.077 16.768 C 19.936 17.186,19.720 17.439,19.340 17.628 C 19.157 17.720,18.319 17.979,17.630 18.157 C 14.742 18.902,11.576 19.058,8.595 18.601 C 7.516 18.435,6.423 18.183,5.374 17.857 C 4.455 17.572,4.212 17.416,3.992 16.970 C 3.876 16.734,3.860 16.663,3.860 16.381 C 3.860 15.967,3.908 15.865,4.807 14.369 C 5.549 13.134,5.733 12.746,5.919 12.024 C 6.083 11.389,6.120 10.910,6.121 9.420 C 6.121 8.075,6.153 7.706,6.316 7.120 C 6.612 6.061,7.123 5.199,7.906 4.436 C 8.336 4.018,8.627 3.796,9.099 3.525 C 9.983 3.018,10.970 2.760,12.022 2.760 C 12.968 2.760,13.771 2.948,14.626 3.371 C 16.375 4.235,17.582 5.904,17.877 7.868 C 17.901 8.027,17.920 8.721,17.920 9.428 C 17.920 10.705,17.965 11.497,18.046 11.655 C 18.111 11.782,18.286 11.960,18.408 12.024 C 18.567 12.106,18.895 12.095,19.082 11.999 C 19.169 11.955,19.288 11.846,19.347 11.757 L 19.454 11.595 19.445 10.148 C 19.440 9.351,19.419 8.453,19.398 8.150 C 19.273 6.355,18.527 4.725,17.241 3.439 C 15.965 2.163,14.353 1.419,12.560 1.281 C 12.006 1.238,11.997 1.238,11.394 1.284 M11.815 5.717 C 11.638 5.760,11.462 5.896,11.353 6.071 L 11.260 6.220 11.260 8.060 C 11.260 9.072,11.273 9.948,11.290 10.007 C 11.363 10.269,11.710 10.518,12.000 10.518 C 12.290 10.518,12.637 10.269,12.710 10.007 C 12.727 9.948,12.740 9.081,12.740 8.080 C 12.740 6.312,12.738 6.255,12.656 6.100 C 12.503 5.807,12.134 5.639,11.815 5.717 M11.500 20.346 C 12.000 20.361,12.694 20.352,13.214 20.323 C 13.694 20.296,14.095 20.282,14.105 20.292 C 14.141 20.328,13.702 20.769,13.464 20.936 C 12.674 21.489,11.663 21.551,10.801 21.098 C 10.517 20.948,10.107 20.607,9.954 20.391 L 9.865 20.267 10.263 20.294 C 10.481 20.309,11.038 20.333,11.500 20.346 " stroke="none" fill-rule="evenodd" fill="black"></path></svg>