<svg width="24" height="24" viewBox="0 0 24 24" fill="none" xmlns="http://www.w3.org/2000/svg"><path d="M8.080 1.282 C 4.041 1.493,1.932 3.264,1.398 6.893 C 1.290 7.625,1.231 8.906,1.247 10.160 C 1.260 11.188,1.263 11.225,1.353 11.369 C 1.664 11.870,2.408 11.849,2.664 11.332 C 2.734 11.192,2.742 11.037,2.764 9.420 C 2.790 7.506,2.820 7.165,3.044 6.288 C 3.574 4.215,4.737 3.254,7.200 2.855 C 7.561 2.796,8.078 2.783,10.900 2.763 C 14.010 2.741,14.188 2.736,14.332 2.664 C 14.928 2.368,14.832 1.448,14.189 1.286 C 13.979 1.234,9.077 1.230,8.080 1.282 M18.595 1.281 C 17.580 1.395,16.634 1.925,16.031 2.719 C 15.793 3.032,15.468 3.687,15.382 4.025 C 15.231 4.624,15.231 5.376,15.382 5.975 C 15.468 6.313,15.793 6.968,16.031 7.281 C 16.397 7.763,16.848 8.118,17.452 8.400 C 18.040 8.675,18.707 8.785,19.365 8.717 C 19.846 8.668,20.150 8.586,20.548 8.400 C 21.403 8.001,21.954 7.460,22.361 6.620 C 22.584 6.161,22.664 5.879,22.717 5.366 C 22.789 4.675,22.616 3.748,22.370 3.500 C 22.045 3.172,21.468 3.218,21.222 3.591 C 21.074 3.814,21.058 4.016,21.156 4.374 C 21.383 5.202,21.180 5.983,20.581 6.581 C 20.121 7.041,19.644 7.240,19.000 7.240 C 18.356 7.240,17.879 7.041,17.419 6.581 C 16.959 6.121,16.760 5.644,16.760 5.000 C 16.760 4.355,16.960 3.871,17.416 3.416 C 17.813 3.018,18.361 2.760,18.806 2.760 C 19.294 2.760,19.634 2.543,19.711 2.183 C 19.786 1.835,19.633 1.482,19.350 1.347 C 19.165 1.260,18.955 1.241,18.595 1.281 M21.815 9.277 C 21.638 9.321,21.461 9.456,21.353 9.631 L 21.260 9.780 21.237 13.080 C 21.211 16.685,21.212 16.674,20.960 17.688 C 20.504 19.519,19.520 20.504,17.688 20.960 C 16.622 21.226,16.745 21.220,12.000 21.220 C 8.064 21.220,7.661 21.214,7.240 21.148 C 4.756 20.761,3.577 19.796,3.044 17.712 C 2.881 17.075,2.800 16.449,2.764 15.549 C 2.735 14.813,2.727 14.760,2.631 14.594 C 2.277 13.991,1.389 14.181,1.264 14.887 C 1.225 15.105,1.310 16.506,1.398 17.109 C 1.883 20.414,3.655 22.149,7.027 22.622 C 7.786 22.728,8.902 22.759,12.000 22.759 C 15.098 22.759,16.214 22.728,16.973 22.622 C 18.843 22.359,20.259 21.686,21.143 20.641 C 22.124 19.479,22.604 18.008,22.720 15.807 C 22.773 14.797,22.771 10.074,22.717 9.841 C 22.623 9.432,22.215 9.177,21.815 9.277 " stroke="none" fill-rule="evenodd" fill="black"></path></svg>