<svg width="24" height="24" viewBox="0 0 24 24" fill="none" xmlns="http://www.w3.org/2000/svg"><path d="M11.420 1.266 C 10.753 1.407,10.142 1.834,9.725 2.450 C 9.654 2.554,9.577 2.640,9.554 2.640 C 9.531 2.640,9.356 2.713,9.166 2.802 C 7.374 3.642,5.978 5.316,5.499 7.199 C 5.318 7.912,5.309 8.033,5.281 10.160 C 5.246 12.857,5.296 12.660,4.192 14.501 C 3.382 15.854,3.281 16.094,3.249 16.751 C 3.225 17.246,3.297 17.596,3.512 18.040 C 3.717 18.462,4.217 18.963,4.660 19.189 C 5.188 19.459,6.598 19.872,7.760 20.098 C 8.057 20.156,8.339 20.212,8.387 20.222 C 8.445 20.234,8.489 20.289,8.521 20.390 C 8.648 20.791,9.097 21.461,9.462 21.795 C 9.914 22.208,10.389 22.473,11.020 22.665 C 11.348 22.764,11.437 22.774,12.020 22.774 C 12.599 22.774,12.694 22.764,13.020 22.667 C 14.164 22.325,15.118 21.465,15.501 20.429 C 15.549 20.300,15.599 20.233,15.656 20.220 C 15.702 20.210,16.017 20.146,16.356 20.078 C 17.428 19.863,18.847 19.459,19.254 19.253 C 20.146 18.801,20.759 17.815,20.760 16.828 C 20.760 16.218,20.473 15.401,20.179 15.177 C 19.922 14.980,19.499 14.996,19.253 15.211 C 18.969 15.461,18.925 15.786,19.119 16.217 C 19.289 16.598,19.309 16.812,19.203 17.160 C 19.101 17.494,18.890 17.753,18.602 17.899 C 18.017 18.194,16.012 18.679,14.640 18.858 C 13.336 19.028,11.466 19.074,10.320 18.965 C 8.686 18.809,6.844 18.428,5.694 18.008 C 5.073 17.780,4.794 17.485,4.736 16.990 C 4.694 16.633,4.785 16.422,5.483 15.256 C 6.224 14.021,6.310 13.858,6.458 13.420 C 6.727 12.622,6.728 12.610,6.760 10.360 C 6.777 9.108,6.807 8.203,6.835 8.053 C 7.150 6.358,8.197 4.955,9.695 4.219 C 10.470 3.838,11.089 3.702,12.040 3.704 C 13.636 3.707,14.911 4.281,15.974 5.476 C 16.563 6.138,17.020 7.088,17.204 8.036 C 17.230 8.168,17.255 8.995,17.265 10.060 C 17.274 11.050,17.291 11.919,17.303 11.991 C 17.328 12.144,17.519 12.377,17.695 12.468 C 17.852 12.549,18.187 12.550,18.341 12.469 C 18.496 12.388,18.664 12.209,18.717 12.067 C 18.773 11.919,18.774 8.668,18.718 8.182 C 18.657 7.645,18.573 7.272,18.394 6.742 C 17.805 4.995,16.477 3.530,14.800 2.775 C 14.479 2.630,14.401 2.577,14.300 2.428 C 13.647 1.472,12.545 1.027,11.420 1.266 M12.020 20.512 C 12.526 20.512,13.120 20.499,13.340 20.484 C 13.560 20.468,13.749 20.463,13.760 20.472 C 13.771 20.481,13.669 20.591,13.533 20.716 C 12.680 21.504,11.382 21.510,10.522 20.732 C 10.389 20.612,10.280 20.501,10.280 20.487 C 10.280 20.472,10.464 20.472,10.690 20.486 C 10.915 20.500,11.514 20.512,12.020 20.512 " stroke="none" fill-rule="evenodd" fill="black"></path></svg>