<svg width="24" height="24" viewBox="0 0 24 24" fill="none" xmlns="http://www.w3.org/2000/svg"><path d="M11.560 1.267 C 10.326 1.322,9.152 1.571,8.041 2.012 C 7.427 2.256,7.240 2.454,7.240 2.860 C 7.240 3.229,7.525 3.548,7.892 3.589 C 8.032 3.605,8.152 3.574,8.523 3.428 C 9.718 2.955,10.735 2.760,12.006 2.760 C 13.464 2.760,14.754 3.058,16.060 3.698 C 17.024 4.170,17.648 4.611,18.434 5.378 C 19.273 6.195,19.814 6.937,20.303 7.940 C 20.944 9.253,21.240 10.537,21.240 12.000 C 21.240 13.465,20.943 14.752,20.302 16.060 C 19.830 17.024,19.389 17.648,18.622 18.434 C 17.805 19.273,17.063 19.814,16.060 20.303 C 14.747 20.944,13.463 21.240,12.000 21.240 C 10.537 21.240,9.253 20.944,7.940 20.303 C 6.937 19.814,6.195 19.273,5.378 18.434 C 4.611 17.648,4.170 17.024,3.698 16.060 C 3.058 14.754,2.760 13.464,2.760 12.005 C 2.760 10.060,3.331 8.256,4.457 6.648 C 4.701 6.298,4.770 6.095,4.724 5.855 C 4.656 5.497,4.372 5.267,4.000 5.267 C 3.678 5.267,3.534 5.369,3.222 5.816 C 1.432 8.383,0.834 11.537,1.564 14.550 C 1.904 15.951,2.529 17.268,3.424 18.470 C 3.880 19.083,4.909 20.111,5.530 20.575 C 7.606 22.126,10.070 22.870,12.627 22.717 C 14.790 22.588,16.724 21.879,18.470 20.575 C 19.087 20.115,20.115 19.087,20.575 18.470 C 22.127 16.391,22.870 13.930,22.717 11.373 C 22.588 9.210,21.879 7.276,20.575 5.530 C 20.115 4.913,19.087 3.885,18.470 3.425 C 17.047 2.362,15.454 1.679,13.742 1.398 C 13.325 1.330,12.055 1.227,11.880 1.248 C 11.847 1.252,11.703 1.261,11.560 1.267 M11.540 6.281 C 9.212 6.471,7.269 8.038,6.679 10.200 C 6.555 10.655,6.513 11.006,6.514 11.560 C 6.518 12.982,7.007 14.186,8.058 15.360 L 8.399 15.740 7.569 15.760 C 7.047 15.773,6.710 15.797,6.660 15.827 C 6.554 15.888,6.382 16.075,6.319 16.198 C 6.249 16.334,6.256 16.677,6.332 16.825 C 6.422 16.999,6.655 17.192,6.809 17.220 C 6.881 17.233,7.706 17.238,8.643 17.232 L 10.346 17.220 10.516 17.107 C 10.824 16.904,10.926 16.491,10.750 16.167 C 10.700 16.076,10.453 15.773,10.200 15.494 C 8.670 13.804,8.655 13.786,8.386 13.252 C 8.306 13.093,8.192 12.805,8.133 12.612 C 8.036 12.292,8.026 12.198,8.023 11.580 C 8.020 10.796,8.057 10.610,8.343 10.005 C 8.831 8.970,9.711 8.245,10.900 7.898 C 11.331 7.772,12.162 7.722,12.628 7.795 C 14.215 8.043,15.467 9.131,15.904 10.640 C 15.965 10.851,15.979 11.028,15.977 11.580 C 15.974 12.200,15.965 12.291,15.867 12.611 C 15.755 12.979,15.529 13.455,15.323 13.760 C 15.256 13.859,14.773 14.414,14.250 14.993 C 13.728 15.572,13.269 16.112,13.231 16.193 C 13.145 16.376,13.141 16.598,13.222 16.790 C 13.304 16.988,13.390 17.077,13.580 17.165 C 13.727 17.232,13.876 17.238,15.447 17.239 C 16.559 17.240,17.194 17.225,17.267 17.197 C 17.540 17.095,17.731 16.807,17.731 16.500 C 17.731 16.273,17.661 16.111,17.494 15.953 C 17.309 15.778,17.204 15.760,16.372 15.760 L 15.590 15.760 15.775 15.550 C 16.382 14.864,16.666 14.468,16.937 13.926 C 17.494 12.817,17.640 11.452,17.332 10.240 C 16.703 7.768,14.208 6.064,11.540 6.281 " stroke="none" fill-rule="evenodd" fill="black"></path></svg>