<svg width="24" height="24" viewBox="0 0 24 24" fill="none" xmlns="http://www.w3.org/2000/svg"><path d="M8.080 1.282 C 4.042 1.493,1.931 3.265,1.398 6.891 C 1.310 7.494,1.225 8.895,1.264 9.113 C 1.278 9.194,1.325 9.318,1.368 9.389 C 1.658 9.870,2.422 9.836,2.661 9.332 C 2.718 9.212,2.740 9.022,2.765 8.423 C 2.900 5.187,3.905 3.654,6.288 3.044 C 7.337 2.776,7.247 2.780,12.000 2.780 C 15.936 2.780,16.339 2.786,16.760 2.852 C 19.558 3.288,20.712 4.442,21.148 7.240 C 21.214 7.661,21.220 8.064,21.220 12.000 C 21.220 15.936,21.214 16.339,21.148 16.760 C 20.712 19.558,19.558 20.712,16.760 21.148 C 16.339 21.214,15.936 21.220,12.000 21.220 C 8.064 21.220,7.661 21.214,7.240 21.148 C 4.756 20.761,3.576 19.795,3.044 17.712 C 2.820 16.833,2.790 16.496,2.764 14.560 L 2.740 12.780 2.640 12.606 C 2.359 12.114,1.641 12.114,1.360 12.606 C 1.261 12.777,1.260 12.795,1.247 13.840 C 1.224 15.669,1.334 17.076,1.575 18.027 C 2.267 20.757,3.971 22.193,7.027 22.622 C 7.786 22.728,8.902 22.759,12.000 22.759 C 15.098 22.759,16.214 22.728,16.973 22.622 C 19.443 22.275,20.996 21.288,21.897 19.490 C 22.379 18.530,22.638 17.369,22.720 15.807 C 22.771 14.838,22.771 9.162,22.720 8.193 C 22.657 6.998,22.521 6.191,22.242 5.356 C 21.632 3.531,20.469 2.367,18.650 1.760 C 17.788 1.473,17.023 1.344,15.806 1.280 C 14.952 1.235,8.952 1.237,8.080 1.282 M10.997 6.598 C 8.827 6.994,7.124 8.564,6.638 10.617 C 6.405 11.601,6.493 12.794,6.867 13.740 C 7.139 14.428,7.443 14.906,8.043 15.590 L 8.403 16.000 7.640 16.000 C 6.827 16.000,6.686 16.026,6.487 16.212 C 6.142 16.534,6.213 17.144,6.623 17.384 L 6.787 17.480 8.544 17.480 C 10.179 17.480,10.311 17.475,10.440 17.406 C 10.805 17.210,10.947 16.760,10.753 16.413 C 10.702 16.321,10.273 15.820,9.800 15.299 C 9.327 14.778,8.850 14.232,8.740 14.086 C 8.491 13.755,8.275 13.318,8.134 12.855 C 8.035 12.531,8.026 12.441,8.023 11.820 C 8.020 11.179,8.027 11.120,8.134 10.781 C 8.471 9.721,9.157 8.921,10.137 8.445 C 10.836 8.105,11.433 7.979,12.180 8.012 C 13.922 8.091,15.357 9.168,15.866 10.780 C 15.973 11.119,15.980 11.179,15.977 11.820 C 15.974 12.439,15.965 12.532,15.867 12.851 C 15.738 13.274,15.467 13.818,15.232 14.126 C 15.137 14.250,14.673 14.778,14.200 15.299 C 13.727 15.820,13.298 16.321,13.247 16.413 C 13.113 16.653,13.138 16.979,13.305 17.189 C 13.543 17.487,13.489 17.480,15.456 17.480 L 17.213 17.480 17.377 17.384 C 17.787 17.144,17.858 16.534,17.513 16.212 C 17.314 16.026,17.173 16.000,16.359 16.000 L 15.595 16.000 15.922 15.631 C 16.901 14.522,17.374 13.481,17.475 12.212 C 17.687 9.554,15.882 7.216,13.160 6.620 C 12.676 6.514,11.523 6.503,10.997 6.598 " stroke="none" fill-rule="evenodd" fill="black"></path></svg>