<svg width="24" height="24" viewBox="0 0 24 24" fill="none" xmlns="http://www.w3.org/2000/svg"><path d="M11.643 1.923 C 10.980 2.054,10.379 2.386,9.625 3.042 C 9.084 3.511,2.446 10.173,2.113 10.580 C 0.968 11.980,0.870 13.061,1.769 14.393 C 2.135 14.936,2.686 15.532,4.637 17.495 C 6.795 19.666,7.507 20.345,8.076 20.773 C 9.461 21.815,10.662 21.816,12.040 20.775 C 12.654 20.311,13.332 19.658,16.504 16.475 C 19.883 13.084,20.179 12.750,20.556 11.913 C 20.774 11.428,20.817 11.223,20.817 10.640 C 20.818 10.124,20.812 10.082,20.678 9.699 C 20.438 9.015,20.075 8.453,19.364 7.661 C 18.881 7.123,18.709 7.016,18.390 7.054 C 18.006 7.099,17.720 7.415,17.720 7.795 C 17.720 8.031,17.798 8.160,18.232 8.640 C 19.232 9.746,19.514 10.444,19.253 11.169 C 19.215 11.274,19.161 11.360,19.133 11.360 C 19.105 11.360,18.816 11.298,18.491 11.223 C 13.853 10.144,9.043 10.041,4.426 10.923 C 4.077 10.989,3.775 11.038,3.755 11.032 C 3.699 11.013,10.540 4.201,10.892 3.926 C 11.233 3.658,11.689 3.422,11.940 3.382 C 12.181 3.345,12.504 3.421,12.860 3.600 C 13.253 3.798,13.593 4.051,14.162 4.567 C 14.731 5.085,14.924 5.163,15.271 5.018 C 15.706 4.836,15.866 4.356,15.627 3.948 C 15.434 3.620,14.359 2.717,13.736 2.360 C 13.042 1.963,12.266 1.801,11.643 1.923 M11.709 11.840 C 13.823 11.913,15.402 12.098,17.375 12.504 C 17.749 12.581,18.078 12.657,18.107 12.674 C 18.169 12.708,11.996 18.887,11.440 19.348 C 10.805 19.874,10.437 20.061,10.041 20.058 C 9.576 20.054,9.131 19.775,8.172 18.884 C 7.214 17.993,3.633 14.359,3.284 13.922 C 2.987 13.551,2.680 13.028,2.680 12.894 C 2.680 12.831,2.948 12.755,3.850 12.561 C 5.748 12.153,7.680 11.909,9.542 11.844 C 10.025 11.826,10.456 11.810,10.500 11.807 C 10.544 11.804,11.088 11.819,11.709 11.840 M19.670 15.478 C 19.369 15.574,19.082 15.762,18.862 16.006 C 18.675 16.215,17.979 17.326,17.746 17.788 C 17.451 18.374,17.333 19.070,17.438 19.607 C 17.646 20.678,18.589 21.364,19.940 21.428 C 21.128 21.483,22.028 21.107,22.543 20.340 C 22.747 20.037,22.845 19.716,22.868 19.280 C 22.905 18.560,22.747 18.106,22.062 16.974 C 21.554 16.134,21.382 15.915,21.057 15.700 C 20.620 15.410,20.129 15.331,19.670 15.478 M20.374 17.091 C 20.590 17.379,21.266 18.554,21.331 18.755 C 21.422 19.037,21.418 19.287,21.321 19.478 C 21.154 19.805,20.819 19.935,20.140 19.935 C 19.461 19.935,19.126 19.805,18.959 19.478 C 18.858 19.280,18.858 19.020,18.960 18.729 C 19.061 18.442,19.810 17.185,19.985 17.008 C 20.137 16.855,20.208 16.870,20.374 17.091 " stroke="none" fill-rule="evenodd" fill="black"></path></svg>