<svg width="24" height="24" viewBox="0 0 24 24" fill="none" xmlns="http://www.w3.org/2000/svg"><path d="M11.360 2.282 C 8.895 2.461,6.652 3.846,5.335 6.004 C 4.652 7.122,4.240 8.557,4.240 9.815 C 4.240 10.163,4.252 10.234,4.336 10.377 C 4.465 10.597,4.708 10.731,4.977 10.731 C 5.436 10.731,5.719 10.404,5.721 9.871 C 5.722 9.528,5.816 8.847,5.918 8.448 C 6.362 6.708,7.577 5.209,9.180 4.422 C 10.112 3.964,10.739 3.806,11.757 3.771 C 12.473 3.747,12.845 3.784,13.481 3.942 C 14.897 4.294,16.101 5.100,17.005 6.300 C 17.575 7.057,17.944 7.936,18.149 9.020 C 18.198 9.281,18.213 9.896,18.228 12.354 C 18.240 14.348,18.232 15.500,18.204 15.760 C 18.128 16.455,17.895 16.943,17.400 17.439 C 16.864 17.976,16.367 18.196,15.614 18.230 C 15.059 18.255,14.692 18.181,14.229 17.951 C 13.800 17.739,13.252 17.202,13.033 16.780 C 12.737 16.210,12.747 16.297,12.722 13.920 C 12.698 11.598,12.705 11.664,12.474 11.455 C 12.320 11.315,12.195 11.269,11.978 11.269 C 11.708 11.269,11.465 11.403,11.336 11.623 L 11.240 11.787 11.240 13.869 C 11.240 15.560,11.251 16.011,11.300 16.270 C 11.469 17.156,11.887 17.930,12.534 18.548 C 12.921 18.919,13.196 19.107,13.692 19.340 C 14.161 19.560,14.556 19.668,15.060 19.714 C 16.974 19.889,18.710 18.819,19.426 17.023 C 19.700 16.334,19.693 16.433,19.710 12.960 C 19.727 9.679,19.710 9.189,19.556 8.442 C 18.932 5.408,16.556 3.029,13.541 2.420 C 13.110 2.332,12.141 2.231,11.880 2.246 C 11.825 2.249,11.591 2.265,11.360 2.282 M4.814 13.278 C 4.612 13.326,4.424 13.464,4.328 13.633 C 4.242 13.787,4.240 13.821,4.240 15.176 C 4.240 16.216,4.255 16.662,4.301 16.969 C 4.742 19.903,7.005 22.193,9.923 22.657 C 10.476 22.745,11.148 22.752,11.300 22.671 C 11.649 22.486,11.804 22.078,11.658 21.729 C 11.510 21.375,11.332 21.283,10.704 21.239 C 9.866 21.179,9.395 21.055,8.658 20.700 C 7.292 20.041,6.256 18.767,5.883 17.286 C 5.747 16.751,5.720 16.384,5.720 15.116 C 5.720 13.789,5.709 13.701,5.508 13.487 C 5.339 13.306,5.056 13.221,4.814 13.278 " stroke="none" fill-rule="evenodd" fill="black"></path></svg>