<svg width="24" height="24" viewBox="0 0 24 24" fill="none" xmlns="http://www.w3.org/2000/svg"><path d="M12.600 3.078 C 11.025 3.322,9.588 4.012,8.498 5.047 C 8.139 5.388,8.069 5.509,8.069 5.780 C 8.069 6.201,8.385 6.520,8.804 6.520 C 9.044 6.520,9.188 6.441,9.560 6.102 C 11.252 4.564,13.667 4.077,15.820 4.840 C 16.736 5.164,17.473 5.630,18.162 6.318 C 20.393 8.550,20.615 12.014,18.689 14.560 C 18.449 14.877,14.878 18.499,14.254 19.058 C 13.642 19.606,13.070 19.840,12.340 19.840 C 11.309 19.840,10.370 19.272,9.880 18.354 C 9.588 17.805,9.508 16.963,9.689 16.339 C 9.876 15.697,9.953 15.600,11.542 14.000 C 13.127 12.405,13.121 12.412,13.062 12.019 C 13.039 11.865,12.998 11.794,12.842 11.638 C 12.686 11.482,12.615 11.441,12.461 11.418 C 12.069 11.359,12.064 11.363,10.608 12.813 C 9.875 13.543,9.176 14.260,9.055 14.407 C 8.170 15.483,7.876 16.923,8.266 18.278 C 8.744 19.945,10.229 21.170,11.940 21.312 C 13.054 21.404,14.031 21.123,14.940 20.446 C 15.260 20.208,19.436 16.027,19.759 15.620 C 20.893 14.196,21.480 12.531,21.480 10.740 C 21.480 6.408,18.027 2.979,13.689 3.004 C 13.303 3.006,12.882 3.035,12.600 3.078 M5.358 8.194 C 5.122 8.345,3.733 9.769,3.453 10.147 C 2.502 11.434,2.067 12.724,2.067 14.260 C 2.067 15.994,2.635 17.471,3.817 18.814 C 4.095 19.129,4.282 19.240,4.536 19.240 C 4.978 19.240,5.280 18.939,5.280 18.499 C 5.280 18.261,5.209 18.130,4.871 17.747 C 4.280 17.077,3.909 16.355,3.672 15.419 C 3.593 15.105,3.581 14.959,3.581 14.260 C 3.581 13.561,3.593 13.415,3.672 13.101 C 3.862 12.348,4.160 11.703,4.574 11.144 C 4.706 10.966,5.168 10.461,5.601 10.020 C 6.035 9.580,6.412 9.176,6.440 9.122 C 6.468 9.068,6.491 8.930,6.491 8.815 C 6.491 8.224,5.856 7.876,5.358 8.194 " stroke="none" fill-rule="evenodd" fill="black"></path></svg>