<svg width="24" height="24" viewBox="0 0 24 24" fill="none" xmlns="http://www.w3.org/2000/svg"><path d="M11.605 1.283 C 10.907 1.374,10.240 1.724,9.694 2.287 C 9.382 2.609,4.140 9.268,3.851 9.710 C 3.587 10.113,3.350 10.611,3.257 10.960 C 3.169 11.285,3.158 11.943,3.236 12.220 C 3.371 12.699,3.693 13.238,4.116 13.694 C 4.217 13.803,4.948 14.469,5.740 15.172 C 6.532 15.876,7.223 16.492,7.276 16.542 L 7.371 16.633 7.056 18.027 C 6.754 19.360,6.740 19.441,6.742 19.900 C 6.744 20.311,6.760 20.427,6.854 20.709 C 7.112 21.487,7.836 22.221,8.640 22.516 C 9.226 22.732,9.217 22.731,11.700 22.749 C 14.630 22.771,15.057 22.733,15.733 22.394 C 16.539 21.991,17.036 21.386,17.246 20.555 C 17.388 19.995,17.348 19.645,16.942 17.840 C 16.752 16.993,16.578 16.233,16.557 16.152 C 16.505 15.955,16.340 15.765,16.142 15.675 C 15.989 15.606,15.779 15.602,12.220 15.599 L 8.460 15.596 7.000 14.299 C 6.197 13.586,5.402 12.859,5.233 12.685 C 4.545 11.976,4.498 11.490,5.037 10.636 C 5.362 10.120,10.591 3.495,10.903 3.203 C 11.046 3.070,11.189 2.960,11.221 2.960 C 11.272 2.960,11.280 3.244,11.280 5.062 C 11.280 7.074,11.283 7.170,11.359 7.318 C 11.507 7.608,11.801 7.753,12.141 7.702 C 12.294 7.679,12.366 7.638,12.518 7.485 C 12.635 7.368,12.717 7.247,12.733 7.164 C 12.748 7.090,12.760 6.114,12.760 4.995 C 12.760 3.876,12.775 2.960,12.794 2.960 C 12.899 2.960,13.251 3.309,13.635 3.791 C 15.987 6.748,18.837 10.393,18.967 10.610 C 19.218 11.029,19.318 11.305,19.319 11.585 C 19.321 11.973,19.139 12.289,18.577 12.878 C 18.325 13.142,18.101 13.405,18.079 13.462 C 18.018 13.623,18.033 13.926,18.110 14.077 C 18.220 14.292,18.444 14.448,18.674 14.470 C 18.981 14.500,19.136 14.424,19.511 14.065 C 21.081 12.558,21.235 11.202,20.026 9.510 C 19.767 9.147,14.973 3.054,14.512 2.501 C 13.943 1.820,13.253 1.414,12.460 1.295 C 12.066 1.235,11.983 1.234,11.605 1.283 M15.260 17.170 C 15.666 18.904,15.845 19.802,15.829 20.021 C 15.787 20.570,15.395 20.993,14.756 21.178 C 14.558 21.235,14.231 21.241,11.956 21.231 L 9.380 21.220 9.149 21.127 C 8.859 21.010,8.470 20.657,8.334 20.388 C 8.154 20.033,8.163 19.912,8.476 18.520 C 8.632 17.827,8.769 17.220,8.780 17.170 L 8.802 17.080 12.020 17.080 L 15.238 17.080 15.260 17.170 " stroke="none" fill-rule="evenodd" fill="black"></path></svg>