<svg width="24" height="24" viewBox="0 0 24 24" fill="none" xmlns="http://www.w3.org/2000/svg"><path d="M8.080 1.282 C 4.042 1.493,1.931 3.265,1.398 6.891 C 1.310 7.494,1.225 8.895,1.264 9.113 C 1.278 9.194,1.325 9.318,1.368 9.389 C 1.658 9.870,2.422 9.836,2.661 9.332 C 2.718 9.212,2.740 9.022,2.765 8.423 C 2.900 5.187,3.905 3.654,6.288 3.044 C 7.337 2.776,7.247 2.780,12.000 2.780 C 15.936 2.780,16.339 2.786,16.760 2.852 C 19.558 3.288,20.712 4.442,21.148 7.240 C 21.214 7.661,21.220 8.064,21.220 12.000 C 21.220 15.936,21.214 16.339,21.148 16.760 C 20.712 19.558,19.558 20.712,16.760 21.148 C 16.339 21.214,15.936 21.220,12.000 21.220 C 8.064 21.220,7.661 21.214,7.240 21.148 C 4.756 20.761,3.576 19.795,3.044 17.712 C 2.820 16.836,2.790 16.494,2.764 14.580 C 2.738 12.677,2.741 12.705,2.513 12.492 C 2.391 12.377,2.155 12.280,2.000 12.280 C 1.745 12.280,1.460 12.458,1.326 12.700 C 1.180 12.964,1.229 15.960,1.398 17.107 C 1.885 20.415,3.654 22.148,7.027 22.622 C 7.786 22.728,8.902 22.759,12.000 22.759 C 15.098 22.759,16.214 22.728,16.973 22.622 C 19.443 22.275,20.996 21.288,21.897 19.490 C 22.379 18.530,22.638 17.369,22.720 15.807 C 22.771 14.838,22.771 9.162,22.720 8.193 C 22.657 6.998,22.521 6.191,22.242 5.356 C 21.632 3.531,20.469 2.367,18.650 1.760 C 17.788 1.473,17.023 1.344,15.806 1.280 C 14.952 1.235,8.952 1.237,8.080 1.282 M13.305 6.082 C 13.040 6.148,12.670 6.369,12.439 6.599 C 12.305 6.732,12.045 7.094,11.784 7.510 C 11.393 8.133,11.340 8.200,11.240 8.200 C 11.179 8.200,10.672 8.171,10.114 8.136 C 9.556 8.101,8.965 8.084,8.800 8.098 C 7.624 8.199,7.021 8.708,6.759 9.820 C 6.676 10.170,6.039 15.456,6.041 15.780 C 6.043 16.297,6.259 16.868,6.597 17.246 C 7.022 17.722,7.563 17.960,8.218 17.960 C 8.562 17.960,13.312 17.426,13.940 17.316 C 15.178 17.101,15.795 16.508,15.918 15.416 C 15.944 15.192,15.932 14.744,15.879 13.881 C 15.838 13.211,15.808 12.660,15.812 12.657 C 15.817 12.654,16.138 12.450,16.527 12.204 C 16.916 11.959,17.317 11.674,17.418 11.571 C 18.054 10.927,18.135 9.839,17.610 9.000 C 17.529 8.871,17.001 8.309,16.326 7.636 C 15.153 6.466,14.951 6.300,14.491 6.136 C 14.268 6.056,13.544 6.023,13.305 6.082 M14.192 7.655 C 14.277 7.713,14.806 8.224,15.369 8.791 C 16.259 9.688,16.398 9.844,16.439 9.997 C 16.501 10.227,16.463 10.412,16.329 10.537 C 16.269 10.593,15.977 10.791,15.680 10.978 L 15.140 11.318 13.930 10.109 C 13.264 9.444,12.720 8.885,12.720 8.865 C 12.720 8.796,13.378 7.778,13.509 7.645 C 13.632 7.520,13.657 7.511,13.840 7.529 C 13.966 7.541,14.095 7.587,14.192 7.655 M10.214 9.636 L 11.408 9.708 12.861 11.164 L 14.314 12.620 14.377 13.680 C 14.483 15.455,14.469 15.579,14.151 15.719 C 14.057 15.760,13.872 15.813,13.740 15.836 C 13.488 15.881,8.812 16.440,8.691 16.440 C 8.648 16.440,8.878 16.181,9.286 15.770 C 9.653 15.402,9.981 15.042,10.016 14.972 C 10.221 14.562,9.925 14.012,9.458 13.938 C 9.110 13.883,9.006 13.948,8.250 14.693 C 7.601 15.332,7.555 15.370,7.577 15.240 C 7.591 15.163,7.727 14.034,7.881 12.730 C 8.034 11.427,8.179 10.275,8.202 10.172 C 8.225 10.068,8.283 9.915,8.330 9.831 C 8.428 9.656,8.517 9.620,8.980 9.567 C 9.002 9.565,9.557 9.596,10.214 9.636 " stroke="none" fill-rule="evenodd" fill="black"></path></svg>