<svg width="24" height="24" viewBox="0 0 24 24" fill="none" xmlns="http://www.w3.org/2000/svg"><path d="M11.560 1.267 C 10.326 1.322,9.152 1.571,8.041 2.012 C 7.427 2.256,7.240 2.454,7.240 2.860 C 7.240 3.229,7.525 3.548,7.892 3.589 C 8.032 3.605,8.152 3.574,8.523 3.428 C 9.718 2.955,10.735 2.760,12.006 2.760 C 13.464 2.760,14.754 3.058,16.060 3.698 C 17.024 4.170,17.648 4.611,18.434 5.378 C 19.273 6.195,19.814 6.937,20.303 7.940 C 20.944 9.253,21.240 10.537,21.240 12.000 C 21.240 13.465,20.943 14.752,20.302 16.060 C 19.830 17.024,19.389 17.648,18.622 18.434 C 17.805 19.273,17.063 19.814,16.060 20.303 C 14.747 20.944,13.463 21.240,12.000 21.240 C 10.537 21.240,9.253 20.944,7.940 20.303 C 6.937 19.814,6.195 19.273,5.378 18.434 C 4.611 17.648,4.170 17.024,3.698 16.060 C 3.058 14.754,2.760 13.464,2.760 12.005 C 2.760 10.060,3.331 8.256,4.457 6.648 C 4.701 6.298,4.770 6.095,4.724 5.855 C 4.656 5.497,4.372 5.267,4.000 5.267 C 3.678 5.267,3.534 5.369,3.222 5.816 C 1.432 8.383,0.834 11.537,1.564 14.550 C 1.904 15.951,2.529 17.268,3.424 18.470 C 3.880 19.083,4.909 20.111,5.530 20.575 C 7.606 22.126,10.070 22.870,12.627 22.717 C 14.790 22.588,16.724 21.879,18.470 20.575 C 19.087 20.115,20.115 19.087,20.575 18.470 C 22.127 16.391,22.870 13.930,22.717 11.373 C 22.588 9.210,21.879 7.276,20.575 5.530 C 20.115 4.913,19.087 3.885,18.470 3.425 C 17.047 2.362,15.454 1.679,13.742 1.398 C 13.325 1.330,12.055 1.227,11.880 1.248 C 11.847 1.252,11.703 1.261,11.560 1.267 M8.176 8.040 C 7.707 8.192,7.397 8.579,7.321 9.109 C 7.298 9.263,7.282 10.463,7.282 11.900 C 7.282 13.337,7.298 14.537,7.321 14.691 C 7.400 15.238,7.709 15.614,8.204 15.764 C 8.452 15.839,8.558 15.845,9.487 15.833 C 10.481 15.820,10.504 15.818,10.722 15.716 C 11.028 15.572,11.217 15.395,11.348 15.127 L 11.460 14.900 11.460 11.900 L 11.460 8.900 11.348 8.673 C 11.217 8.405,11.028 8.228,10.722 8.084 C 10.503 7.981,10.487 7.980,9.460 7.971 C 8.519 7.962,8.397 7.969,8.176 8.040 M13.456 8.040 C 12.978 8.195,12.671 8.587,12.600 9.131 C 12.551 9.507,12.551 14.293,12.600 14.669 C 12.673 15.232,12.981 15.611,13.488 15.765 C 13.890 15.887,14.261 15.861,14.468 15.696 C 14.551 15.629,14.651 15.513,14.690 15.437 C 14.774 15.273,14.781 14.967,14.705 14.786 C 14.635 14.618,14.381 14.408,14.211 14.376 L 14.080 14.351 14.080 11.896 L 14.080 9.440 14.680 9.440 L 15.280 9.440 15.280 12.001 C 15.280 14.728,15.279 14.720,15.472 14.933 C 15.658 15.140,16.059 15.220,16.332 15.106 C 16.504 15.034,16.710 14.794,16.740 14.631 C 16.753 14.559,16.758 13.240,16.752 11.700 L 16.740 8.900 16.628 8.673 C 16.497 8.405,16.308 8.228,16.002 8.084 C 15.783 7.981,15.767 7.980,14.740 7.971 C 13.799 7.962,13.677 7.969,13.456 8.040 M10.000 11.900 L 10.000 14.360 9.400 14.360 L 8.800 14.360 8.800 11.900 L 8.800 9.440 9.400 9.440 L 10.000 9.440 10.000 11.900 " stroke="none" fill-rule="evenodd" fill="black"></path></svg>