<svg width="24" height="24" viewBox="0 0 24 24" fill="none" xmlns="http://www.w3.org/2000/svg"><path d="M4.540 2.278 C 3.811 2.348,3.318 2.554,2.919 2.957 C 2.624 3.255,2.477 3.526,2.347 4.013 L 2.260 4.340 2.260 11.980 C 2.260 19.173,2.264 19.638,2.331 19.924 C 2.551 20.858,3.090 21.399,4.044 21.645 C 4.362 21.726,4.493 21.732,6.440 21.749 C 8.549 21.768,9.239 21.741,9.700 21.621 C 10.529 21.405,11.090 20.832,11.309 19.976 C 11.376 19.717,11.380 19.236,11.380 12.000 C 11.380 4.764,11.376 4.283,11.309 4.024 C 11.090 3.168,10.528 2.595,9.700 2.379 C 9.375 2.295,8.655 2.235,8.473 2.276 C 8.125 2.357,7.907 2.638,7.907 3.007 C 7.907 3.203,7.926 3.270,8.023 3.408 C 8.195 3.651,8.357 3.718,8.883 3.760 C 9.638 3.822,9.807 3.965,9.881 4.605 C 9.932 5.052,9.933 18.944,9.881 19.392 C 9.821 19.917,9.697 20.077,9.260 20.196 C 9.153 20.225,8.339 20.240,6.817 20.240 C 4.322 20.240,4.227 20.232,3.989 20.008 C 3.748 19.780,3.760 20.207,3.760 12.000 C 3.760 3.793,3.748 4.218,3.989 3.994 C 4.147 3.848,4.320 3.798,4.806 3.760 C 5.368 3.716,5.555 3.613,5.698 3.271 C 5.808 3.008,5.749 2.702,5.548 2.487 C 5.354 2.279,5.095 2.225,4.540 2.278 M14.868 2.281 C 13.556 2.404,12.803 3.107,12.641 4.360 C 12.610 4.600,12.601 6.905,12.610 12.220 C 12.621 19.228,12.627 19.757,12.692 19.996 C 12.923 20.844,13.481 21.408,14.300 21.621 C 14.660 21.714,15.304 21.762,15.534 21.713 C 16.044 21.604,16.265 20.963,15.940 20.536 C 15.795 20.346,15.611 20.280,15.112 20.239 C 14.376 20.180,14.199 20.036,14.121 19.437 C 14.069 19.040,14.069 4.963,14.121 4.567 C 14.161 4.254,14.272 4.009,14.412 3.922 C 14.652 3.772,14.842 3.761,17.177 3.760 C 19.165 3.760,19.484 3.768,19.688 3.825 C 19.979 3.907,20.134 4.070,20.196 4.359 C 20.258 4.647,20.258 19.351,20.196 19.639 C 20.109 20.047,19.870 20.190,19.194 20.241 C 18.633 20.284,18.445 20.386,18.302 20.729 C 18.156 21.078,18.310 21.483,18.660 21.672 C 18.752 21.722,18.876 21.735,19.194 21.729 C 20.554 21.702,21.395 21.089,21.669 19.924 C 21.736 19.638,21.740 19.174,21.740 12.000 C 21.740 4.826,21.736 4.362,21.669 4.076 C 21.449 3.142,20.911 2.601,19.956 2.355 C 19.634 2.272,19.528 2.268,17.420 2.258 C 16.210 2.252,15.061 2.262,14.868 2.281 " stroke="none" fill-rule="evenodd" fill="black"></path></svg>