<svg width="24" height="24" viewBox="0 0 24 24" fill="none" xmlns="http://www.w3.org/2000/svg"><path d="M5.994 1.283 C 4.268 1.426,2.652 2.524,1.838 4.107 C 0.615 6.487,1.393 9.409,3.643 10.887 C 3.829 11.009,4.038 11.139,4.110 11.175 C 4.181 11.212,4.240 11.267,4.240 11.297 C 4.240 11.327,4.031 13.104,3.777 15.246 C 3.353 18.805,3.315 19.181,3.335 19.620 C 3.360 20.171,3.425 20.448,3.638 20.905 C 4.181 22.067,5.282 22.737,6.640 22.733 C 7.222 22.731,11.464 22.231,11.629 22.145 C 11.859 22.026,12.040 21.732,12.040 21.480 C 12.040 21.245,11.861 20.938,11.661 20.830 C 11.454 20.719,11.286 20.729,9.125 20.985 C 7.417 21.187,6.846 21.241,6.511 21.231 C 6.256 21.224,6.064 21.200,6.036 21.172 C 6.001 21.137,6.368 20.745,7.553 19.550 C 8.413 18.684,9.135 17.925,9.158 17.865 C 9.273 17.563,9.143 17.149,8.878 16.974 C 8.689 16.849,8.473 16.817,8.239 16.880 C 8.078 16.923,7.897 17.090,6.475 18.507 C 4.714 20.262,4.865 20.159,4.815 19.640 C 4.796 19.440,4.895 18.493,5.241 15.560 C 5.489 13.459,5.702 11.728,5.716 11.714 C 5.729 11.700,5.911 11.703,6.120 11.721 C 7.239 11.818,8.433 11.516,9.340 10.908 C 10.162 10.357,10.755 9.686,11.196 8.809 L 11.362 8.478 11.791 8.503 L 12.220 8.529 14.872 11.176 L 17.524 13.824 17.654 16.062 C 17.790 18.397,17.791 18.766,17.659 19.162 C 17.485 19.688,16.959 19.995,15.941 20.165 C 15.379 20.259,15.213 20.346,15.085 20.610 C 14.859 21.077,15.145 21.623,15.640 21.671 C 16.110 21.716,17.074 21.489,17.680 21.191 C 18.030 21.018,18.154 20.930,18.425 20.662 C 18.921 20.170,19.140 19.657,19.243 18.740 C 19.268 18.520,19.277 18.178,19.263 17.980 C 19.201 17.071,19.041 14.239,19.042 14.060 L 19.043 13.860 20.189 13.140 C 21.672 12.208,21.837 12.090,22.098 11.774 C 22.547 11.229,22.733 10.689,22.736 9.920 C 22.738 9.336,22.656 8.983,22.398 8.458 C 22.202 8.059,21.783 7.530,21.570 7.410 C 21.073 7.131,20.469 7.486,20.469 8.055 C 20.469 8.302,20.504 8.377,20.780 8.701 C 20.894 8.836,21.035 9.045,21.091 9.166 C 21.379 9.773,21.293 10.500,20.889 10.889 C 20.807 10.968,20.209 11.367,19.560 11.776 L 18.380 12.519 15.965 10.104 L 13.549 7.689 14.304 6.494 C 14.719 5.838,15.117 5.236,15.187 5.158 C 15.258 5.079,15.411 4.962,15.528 4.898 C 15.723 4.789,15.772 4.780,16.142 4.780 C 16.525 4.780,16.558 4.787,16.842 4.928 C 17.006 5.009,17.242 5.167,17.368 5.279 C 17.724 5.597,17.992 5.671,18.310 5.538 C 18.508 5.456,18.597 5.370,18.685 5.180 C 18.778 4.976,18.778 4.744,18.685 4.538 C 18.513 4.160,17.584 3.539,16.926 3.362 C 15.826 3.066,14.642 3.439,13.965 4.296 C 13.858 4.430,13.416 5.103,12.982 5.790 C 12.119 7.158,12.188 7.084,11.841 7.014 L 11.711 6.988 11.731 6.764 C 11.742 6.641,11.735 6.329,11.715 6.072 C 11.581 4.360,10.628 2.841,9.140 1.968 C 8.225 1.432,7.116 1.190,5.994 1.283 M7.532 2.895 C 8.793 3.273,9.728 4.209,10.104 5.468 C 10.257 5.981,10.283 6.755,10.163 7.260 C 9.919 8.292,9.422 9.035,8.600 9.598 C 7.954 10.041,7.294 10.241,6.483 10.239 C 5.878 10.238,5.320 10.102,4.751 9.817 C 3.797 9.337,3.050 8.325,2.820 7.199 C 2.727 6.746,2.755 5.952,2.878 5.520 C 2.996 5.108,3.318 4.471,3.560 4.171 C 3.976 3.656,4.659 3.169,5.267 2.956 C 5.713 2.800,5.991 2.762,6.600 2.776 C 7.085 2.788,7.238 2.807,7.532 2.895 M6.240 4.125 C 6.185 4.147,6.089 4.213,6.026 4.272 C 5.813 4.474,5.785 4.575,5.767 5.190 L 5.751 5.760 5.198 5.760 C 4.603 5.760,4.482 5.786,4.306 5.953 C 4.139 6.111,4.069 6.273,4.069 6.500 C 4.069 6.727,4.139 6.889,4.306 7.047 C 4.482 7.214,4.603 7.240,5.198 7.240 L 5.751 7.240 5.767 7.810 C 5.785 8.425,5.813 8.526,6.026 8.727 C 6.167 8.861,6.319 8.920,6.520 8.920 C 6.721 8.920,6.873 8.861,7.014 8.727 C 7.227 8.526,7.255 8.425,7.273 7.810 L 7.289 7.240 7.802 7.240 C 8.357 7.240,8.479 7.212,8.654 7.047 C 8.821 6.889,8.891 6.727,8.891 6.500 C 8.891 6.273,8.821 6.111,8.654 5.953 C 8.479 5.788,8.357 5.760,7.802 5.760 L 7.289 5.760 7.273 5.190 C 7.255 4.575,7.227 4.474,7.014 4.273 C 6.951 4.213,6.849 4.146,6.787 4.123 C 6.649 4.070,6.374 4.071,6.240 4.125 " stroke="none" fill-rule="evenodd" fill="black"></path></svg>