<svg width="24" height="24" viewBox="0 0 24 24" fill="none" xmlns="http://www.w3.org/2000/svg"><path d="M11.484 0.903 C 11.365 0.935,11.176 1.010,11.064 1.069 C 10.788 1.214,9.655 2.347,9.510 2.623 C 9.206 3.199,9.206 3.921,9.510 4.497 C 9.578 4.626,9.842 4.927,10.238 5.324 C 10.910 5.998,11.128 6.146,11.591 6.242 C 12.064 6.341,12.665 6.233,13.044 5.982 C 13.129 5.926,13.212 5.880,13.229 5.880 C 13.246 5.880,14.245 6.865,15.448 8.070 L 17.636 10.260 17.576 10.480 C 17.529 10.653,17.519 10.906,17.528 11.662 L 17.540 12.624 17.694 12.937 C 17.899 13.351,18.209 13.661,18.624 13.866 L 18.936 14.020 20.000 14.020 L 21.064 14.020 21.376 13.866 C 21.791 13.661,22.101 13.351,22.306 12.936 L 22.460 12.624 22.460 11.560 L 22.460 10.496 22.306 10.184 C 22.101 9.769,21.791 9.459,21.377 9.254 L 21.064 9.100 20.102 9.088 C 19.346 9.079,19.093 9.089,18.920 9.136 L 18.700 9.196 16.510 7.008 C 15.306 5.805,14.320 4.806,14.320 4.789 C 14.320 4.772,14.366 4.689,14.422 4.604 C 14.673 4.225,14.781 3.624,14.682 3.151 C 14.586 2.688,14.438 2.470,13.764 1.798 C 13.107 1.144,12.920 1.011,12.499 0.901 C 12.208 0.826,11.770 0.826,11.484 0.903 M12.192 2.377 C 12.365 2.467,13.191 3.329,13.221 3.451 C 13.274 3.659,13.203 3.772,12.707 4.267 C 12.212 4.763,12.100 4.833,11.890 4.782 C 11.743 4.745,10.815 3.817,10.778 3.670 C 10.729 3.468,10.800 3.348,11.233 2.906 C 11.815 2.311,11.938 2.244,12.192 2.377 M7.780 6.786 C 7.714 6.820,7.129 7.376,6.480 8.022 L 5.300 9.196 5.080 9.136 C 4.907 9.089,4.653 9.079,3.898 9.088 L 2.936 9.100 2.623 9.254 C 2.209 9.459,1.899 9.769,1.694 10.184 L 1.540 10.496 1.540 11.560 L 1.540 12.624 1.694 12.936 C 1.899 13.351,2.209 13.661,2.624 13.866 L 2.936 14.020 4.000 14.020 L 5.064 14.020 5.376 13.866 C 5.791 13.661,6.101 13.351,6.306 12.937 L 6.460 12.624 6.472 11.662 C 6.481 10.907,6.471 10.653,6.424 10.480 L 6.364 10.260 7.538 9.080 C 8.184 8.431,8.741 7.842,8.776 7.772 C 8.849 7.625,8.860 7.337,8.797 7.173 C 8.740 7.019,8.567 6.842,8.411 6.775 C 8.241 6.702,7.930 6.708,7.780 6.786 M11.444 10.063 C 11.110 10.153,10.764 10.357,10.500 10.620 C 10.273 10.847,7.357 14.519,7.025 14.997 C 6.636 15.557,6.444 16.171,6.516 16.631 C 6.565 16.945,6.739 17.328,6.968 17.623 C 7.102 17.796,8.709 19.285,8.894 19.407 C 8.919 19.424,8.878 19.683,8.779 20.127 C 8.694 20.508,8.613 20.919,8.598 21.040 C 8.509 21.773,8.926 22.563,9.609 22.954 C 10.068 23.216,10.268 23.240,12.016 23.239 C 13.776 23.239,13.936 23.221,14.400 22.977 C 14.880 22.725,15.282 22.217,15.398 21.716 C 15.473 21.389,15.444 21.051,15.277 20.291 C 15.187 19.884,15.105 19.528,15.095 19.501 C 15.084 19.472,15.446 19.120,15.935 18.684 C 17.085 17.657,17.390 17.249,17.490 16.607 C 17.568 16.099,17.366 15.482,16.921 14.876 C 16.693 14.565,16.517 14.464,16.210 14.467 C 16.052 14.468,15.961 14.495,15.839 14.576 C 15.438 14.841,15.379 15.311,15.694 15.724 C 16.019 16.149,16.070 16.394,15.890 16.655 C 15.830 16.743,15.370 17.180,14.869 17.627 L 13.957 18.440 12.006 18.440 L 10.054 18.440 9.097 17.586 C 8.571 17.117,8.109 16.677,8.070 16.610 C 7.967 16.431,7.984 16.282,8.134 16.033 C 8.259 15.826,10.980 12.337,11.186 12.121 L 11.280 12.022 11.280 12.933 C 11.280 13.975,11.303 14.068,11.608 14.270 C 11.744 14.360,11.819 14.380,12.018 14.379 C 12.293 14.379,12.440 14.300,12.630 14.050 L 12.740 13.906 12.753 12.971 L 12.765 12.035 13.236 12.628 C 13.495 12.955,13.759 13.258,13.823 13.301 C 13.912 13.361,14.007 13.380,14.223 13.380 C 14.474 13.380,14.524 13.367,14.657 13.265 C 14.933 13.054,15.037 12.648,14.889 12.358 C 14.771 12.129,13.650 10.736,13.413 10.524 C 13.158 10.297,12.793 10.107,12.488 10.044 C 12.199 9.984,11.705 9.993,11.444 10.063 M4.761 10.621 C 4.970 10.729,5.000 10.847,5.000 11.560 C 5.000 12.543,4.983 12.560,4.000 12.560 C 3.017 12.560,3.000 12.543,3.000 11.560 C 3.000 10.577,3.013 10.564,3.992 10.562 C 4.499 10.560,4.670 10.573,4.761 10.621 M20.761 10.621 C 20.970 10.729,21.000 10.847,21.000 11.560 C 21.000 12.543,20.983 12.560,20.000 12.560 C 19.503 12.560,19.329 12.546,19.239 12.499 C 19.030 12.391,19.000 12.273,19.000 11.560 C 19.000 10.577,19.013 10.564,19.992 10.562 C 20.499 10.560,20.670 10.573,20.761 10.621 M13.813 20.571 C 13.894 20.930,13.960 21.264,13.960 21.315 C 13.960 21.443,13.729 21.663,13.538 21.716 C 13.329 21.774,10.717 21.775,10.509 21.718 C 10.303 21.660,10.080 21.432,10.080 21.278 C 10.080 21.177,10.280 20.200,10.344 19.990 C 10.364 19.925,10.479 19.920,12.015 19.920 L 13.665 19.920 13.813 20.571 " stroke="none" fill-rule="evenodd" fill="black"></path></svg>