<svg width="24" height="24" viewBox="0 0 24 24" fill="none" xmlns="http://www.w3.org/2000/svg"><path d="M11.340 1.264 C 10.768 1.347,10.316 1.639,10.021 2.114 C 9.895 2.318,9.801 2.606,9.800 2.789 C 9.800 2.898,9.782 2.922,9.690 2.942 C 9.419 3.002,8.719 3.202,8.513 3.279 C 8.220 3.388,8.087 3.496,7.996 3.697 C 7.818 4.088,8.000 4.527,8.409 4.698 C 8.620 4.786,8.719 4.777,9.196 4.625 C 9.844 4.419,9.834 4.420,9.864 4.549 C 9.935 4.850,10.288 5.284,10.635 5.499 C 10.971 5.707,11.148 5.738,12.020 5.738 C 12.892 5.738,13.069 5.707,13.405 5.499 C 13.751 5.285,14.105 4.850,14.175 4.553 L 14.200 4.445 14.470 4.520 C 16.807 5.171,18.686 7.103,19.284 9.470 C 19.347 9.717,19.410 10.035,19.424 10.177 L 19.451 10.435 19.231 10.498 C 18.694 10.655,18.215 11.134,18.058 11.672 C 18.007 11.850,17.997 12.055,18.007 12.756 L 18.020 13.620 18.144 13.880 C 18.387 14.390,18.828 14.751,19.343 14.860 C 19.663 14.928,20.654 14.940,21.015 14.881 C 21.723 14.765,22.305 14.194,22.439 13.484 C 22.491 13.211,22.492 12.175,22.441 11.862 C 22.336 11.223,21.793 10.640,21.152 10.479 L 20.974 10.434 20.905 9.967 C 20.627 8.096,19.744 6.386,18.392 5.100 C 17.260 4.024,16.062 3.380,14.410 2.960 C 14.254 2.921,14.240 2.906,14.240 2.788 C 14.239 2.479,14.000 1.999,13.715 1.735 C 13.528 1.561,13.266 1.405,13.046 1.334 C 12.863 1.276,11.612 1.224,11.340 1.264 M12.687 2.826 C 12.752 2.885,12.760 2.962,12.760 3.493 C 12.760 3.996,12.749 4.106,12.694 4.167 C 12.635 4.232,12.558 4.240,12.027 4.240 C 11.524 4.240,11.414 4.229,11.353 4.174 C 11.288 4.115,11.280 4.038,11.280 3.507 C 11.280 3.004,11.291 2.894,11.346 2.833 C 11.405 2.768,11.482 2.760,12.013 2.760 C 12.516 2.760,12.626 2.771,12.687 2.826 M5.367 5.387 C 5.065 5.536,4.274 6.645,3.859 7.500 C 3.453 8.336,3.184 9.215,3.079 10.051 L 3.031 10.433 2.846 10.479 C 2.202 10.641,1.665 11.219,1.559 11.862 C 1.508 12.175,1.509 13.211,1.561 13.484 C 1.697 14.200,2.271 14.764,2.985 14.881 C 3.346 14.940,4.337 14.928,4.657 14.860 C 5.172 14.751,5.613 14.390,5.856 13.880 L 5.980 13.620 5.993 12.749 C 6.005 11.943,5.999 11.858,5.919 11.618 C 5.739 11.075,5.270 10.633,4.717 10.483 L 4.534 10.434 4.583 10.107 C 4.760 8.928,5.278 7.763,6.047 6.818 C 6.374 6.417,6.440 6.291,6.440 6.065 C 6.440 5.618,6.138 5.319,5.691 5.321 C 5.586 5.321,5.440 5.351,5.367 5.387 M11.444 10.063 C 11.110 10.153,10.764 10.357,10.500 10.620 C 10.273 10.847,7.357 14.519,7.025 14.997 C 6.636 15.557,6.444 16.171,6.516 16.631 C 6.565 16.945,6.739 17.328,6.968 17.623 C 7.102 17.796,8.709 19.285,8.894 19.407 C 8.919 19.424,8.878 19.683,8.779 20.127 C 8.694 20.508,8.613 20.919,8.598 21.040 C 8.509 21.773,8.926 22.563,9.609 22.954 C 10.068 23.216,10.268 23.240,12.016 23.239 C 13.776 23.239,13.936 23.221,14.400 22.977 C 14.880 22.725,15.282 22.217,15.398 21.716 C 15.473 21.389,15.444 21.051,15.277 20.291 C 15.187 19.884,15.105 19.528,15.095 19.501 C 15.084 19.472,15.446 19.120,15.935 18.684 C 17.085 17.657,17.390 17.249,17.490 16.607 C 17.568 16.099,17.366 15.482,16.921 14.876 C 16.693 14.565,16.517 14.464,16.210 14.467 C 16.052 14.468,15.961 14.495,15.839 14.576 C 15.438 14.841,15.379 15.311,15.694 15.724 C 16.019 16.149,16.070 16.394,15.890 16.655 C 15.830 16.743,15.370 17.180,14.869 17.627 L 13.957 18.440 12.006 18.440 L 10.054 18.440 9.097 17.586 C 8.571 17.117,8.109 16.677,8.070 16.610 C 7.967 16.431,7.984 16.282,8.134 16.033 C 8.259 15.826,10.980 12.337,11.186 12.121 L 11.280 12.022 11.280 12.933 C 11.280 13.975,11.303 14.068,11.608 14.270 C 11.744 14.360,11.819 14.380,12.018 14.379 C 12.293 14.379,12.440 14.300,12.630 14.050 L 12.740 13.906 12.753 12.971 L 12.765 12.035 13.236 12.628 C 13.495 12.955,13.759 13.258,13.823 13.301 C 13.912 13.361,14.007 13.380,14.223 13.380 C 14.474 13.380,14.524 13.367,14.657 13.265 C 14.933 13.054,15.037 12.648,14.889 12.358 C 14.771 12.129,13.650 10.736,13.413 10.524 C 13.158 10.297,12.793 10.107,12.488 10.044 C 12.199 9.984,11.705 9.993,11.444 10.063 M4.440 12.000 C 4.513 12.073,4.520 12.133,4.520 12.674 C 4.520 13.457,4.558 13.420,3.757 13.420 C 2.977 13.420,3.020 13.463,3.020 12.683 C 3.020 11.882,2.983 11.920,3.766 11.920 C 4.307 11.920,4.367 11.927,4.440 12.000 M20.904 12.004 C 20.972 12.079,20.980 12.154,20.980 12.683 C 20.980 13.463,21.023 13.420,20.243 13.420 C 19.442 13.420,19.480 13.457,19.480 12.674 C 19.480 12.133,19.487 12.073,19.560 12.000 C 19.633 11.927,19.693 11.920,20.234 11.920 C 20.787 11.920,20.833 11.926,20.904 12.004 M13.813 20.571 C 13.894 20.930,13.960 21.264,13.960 21.315 C 13.960 21.443,13.729 21.663,13.538 21.716 C 13.329 21.774,10.717 21.775,10.509 21.718 C 10.303 21.660,10.080 21.432,10.080 21.278 C 10.080 21.177,10.280 20.200,10.344 19.990 C 10.364 19.925,10.479 19.920,12.015 19.920 L 13.665 19.920 13.813 20.571 " stroke="none" fill-rule="evenodd" fill="black"></path></svg>