<svg width="24" height="24" viewBox="0 0 24 24" fill="none" xmlns="http://www.w3.org/2000/svg"><path d="M5.660 1.284 C 4.917 1.362,4.279 1.674,3.717 2.237 C 3.143 2.811,2.841 3.435,2.760 4.218 C 2.693 4.862,2.806 5.509,3.079 6.050 C 3.598 7.079,4.548 7.747,5.680 7.879 C 6.306 7.952,7.014 7.834,7.540 7.571 C 8.153 7.264,8.750 6.659,9.071 6.020 C 9.403 5.360,9.466 4.303,9.219 3.526 C 8.923 2.594,8.047 1.717,7.114 1.421 C 6.880 1.347,6.021 1.213,5.986 1.245 C 5.983 1.248,5.836 1.266,5.660 1.284 M17.505 1.284 C 16.546 1.385,15.684 1.916,15.141 2.740 C 14.757 3.322,14.601 3.854,14.601 4.580 C 14.601 5.540,14.915 6.291,15.595 6.960 C 16.306 7.660,17.273 7.994,18.265 7.882 C 19.052 7.793,19.623 7.527,20.195 6.982 C 20.648 6.551,20.921 6.105,21.105 5.492 C 21.198 5.184,21.212 5.070,21.212 4.580 C 21.213 4.134,21.196 3.957,21.129 3.714 C 20.879 2.800,20.171 1.962,19.309 1.558 C 18.799 1.320,18.130 1.218,17.505 1.284 M6.845 2.929 C 7.225 3.117,7.552 3.449,7.730 3.828 C 7.837 4.056,7.860 4.159,7.873 4.464 C 7.898 5.042,7.763 5.419,7.384 5.829 C 7.002 6.241,6.545 6.422,5.964 6.390 C 5.378 6.358,4.958 6.132,4.594 5.652 C 4.322 5.293,4.227 4.973,4.247 4.486 C 4.260 4.155,4.281 4.061,4.389 3.830 C 4.534 3.522,4.851 3.164,5.119 3.007 C 5.465 2.804,5.663 2.757,6.123 2.770 C 6.519 2.780,6.565 2.790,6.845 2.929 M18.650 2.909 C 18.941 3.046,19.309 3.363,19.469 3.615 C 19.897 4.289,19.803 5.198,19.241 5.811 C 18.881 6.205,18.436 6.400,17.900 6.400 C 16.704 6.400,15.839 5.267,16.142 4.098 C 16.268 3.609,16.673 3.130,17.140 2.917 C 17.455 2.774,17.508 2.765,17.980 2.774 C 18.337 2.781,18.409 2.796,18.650 2.909 M11.267 8.781 C 9.982 9.024,8.917 10.080,8.656 11.369 C 8.576 11.761,8.597 12.567,8.696 12.940 C 8.862 13.567,9.361 14.300,9.890 14.695 C 10.497 15.148,10.983 15.320,11.743 15.350 C 12.769 15.390,13.484 15.130,14.196 14.458 C 14.650 14.030,14.959 13.511,15.126 12.896 C 15.249 12.446,15.248 11.633,15.126 11.182 C 14.821 10.062,13.884 9.126,12.778 8.838 C 12.356 8.728,11.680 8.703,11.267 8.781 M5.040 8.821 C 4.331 8.927,3.815 9.078,3.260 9.344 C 2.076 9.910,1.393 10.737,1.283 11.740 C 1.149 12.946,1.885 14.026,3.296 14.696 C 4.201 15.127,5.419 15.333,6.502 15.240 C 7.190 15.181,7.340 15.140,7.520 14.960 C 7.861 14.619,7.790 14.053,7.374 13.796 C 7.215 13.698,7.098 13.692,6.380 13.749 C 5.592 13.810,4.669 13.676,4.061 13.411 C 3.928 13.354,3.672 13.210,3.492 13.092 C 2.986 12.761,2.797 12.489,2.768 12.050 C 2.753 11.839,2.767 11.766,2.857 11.583 C 3.059 11.169,3.616 10.766,4.340 10.509 C 4.969 10.286,5.814 10.213,6.802 10.295 C 7.269 10.335,7.363 10.310,7.567 10.094 C 7.889 9.754,7.797 9.145,7.393 8.936 C 7.086 8.778,5.764 8.713,5.040 8.821 M17.043 8.823 C 16.593 8.889,16.410 8.992,16.285 9.250 C 16.128 9.573,16.215 9.965,16.489 10.174 C 16.685 10.324,16.812 10.337,17.443 10.278 C 19.361 10.098,21.200 10.940,21.205 12.000 C 21.207 12.427,20.983 12.765,20.474 13.104 C 19.740 13.592,18.660 13.833,17.580 13.749 C 16.832 13.691,16.792 13.694,16.598 13.807 C 16.014 14.150,16.168 15.017,16.840 15.173 C 17.151 15.245,18.013 15.281,18.492 15.242 C 19.622 15.150,20.485 14.874,21.297 14.345 C 22.895 13.304,23.169 11.509,21.931 10.196 C 20.923 9.128,18.885 8.555,17.043 8.823 M12.465 10.302 C 12.902 10.424,13.375 10.846,13.585 11.301 C 13.749 11.656,13.775 12.211,13.648 12.621 C 13.533 12.994,13.194 13.413,12.834 13.628 C 12.132 14.049,11.210 13.929,10.621 13.339 C 9.927 12.645,9.897 11.531,10.554 10.829 C 11.072 10.275,11.726 10.095,12.465 10.302 M11.360 16.262 C 11.305 16.272,11.107 16.300,10.920 16.325 C 9.842 16.469,8.695 17.013,8.070 17.675 C 7.018 18.790,7.040 20.280,8.122 21.362 C 8.702 21.942,9.654 22.415,10.655 22.619 C 11.167 22.723,11.938 22.766,12.515 22.722 C 13.371 22.657,13.959 22.511,14.627 22.199 C 15.424 21.826,15.640 21.613,15.640 21.198 C 15.640 20.770,15.327 20.463,14.895 20.467 C 14.723 20.469,14.631 20.502,14.335 20.672 C 13.641 21.068,12.934 21.240,12.000 21.240 C 11.092 21.240,10.297 21.049,9.683 20.684 C 9.077 20.325,8.792 19.940,8.795 19.486 C 8.796 19.159,8.925 18.915,9.260 18.608 C 10.129 17.813,11.871 17.512,13.351 17.901 C 13.713 17.996,14.078 18.152,14.516 18.399 C 14.768 18.541,14.981 18.555,15.220 18.444 C 15.508 18.311,15.640 18.102,15.640 17.776 C 15.640 17.377,15.471 17.201,14.740 16.839 C 13.926 16.436,13.241 16.283,12.160 16.260 C 11.775 16.252,11.415 16.253,11.360 16.262 " stroke="none" fill-rule="evenodd" fill="black"></path></svg>