<svg width="24" height="24" viewBox="0 0 24 24" fill="none" xmlns="http://www.w3.org/2000/svg"><path d="M11.560 1.267 C 10.326 1.322,9.152 1.571,8.041 2.012 C 7.427 2.256,7.240 2.454,7.240 2.860 C 7.240 3.229,7.525 3.548,7.892 3.589 C 8.032 3.605,8.152 3.574,8.523 3.428 C 9.718 2.955,10.735 2.760,12.006 2.760 C 13.464 2.760,14.754 3.058,16.060 3.698 C 17.024 4.170,17.648 4.611,18.434 5.378 C 19.273 6.195,19.814 6.937,20.303 7.940 C 20.944 9.253,21.240 10.537,21.240 12.000 C 21.240 13.465,20.943 14.752,20.302 16.060 C 19.830 17.024,19.389 17.648,18.622 18.434 C 17.805 19.273,17.063 19.814,16.060 20.303 C 14.747 20.944,13.463 21.240,12.000 21.240 C 10.537 21.240,9.253 20.944,7.940 20.303 C 6.937 19.814,6.195 19.273,5.378 18.434 C 4.611 17.648,4.170 17.024,3.698 16.060 C 3.058 14.754,2.760 13.464,2.760 12.005 C 2.760 10.060,3.331 8.256,4.457 6.648 C 4.701 6.298,4.770 6.095,4.724 5.855 C 4.656 5.497,4.372 5.267,4.000 5.267 C 3.678 5.267,3.534 5.369,3.222 5.816 C 1.432 8.383,0.834 11.537,1.564 14.550 C 1.904 15.951,2.529 17.268,3.424 18.470 C 3.880 19.083,4.909 20.111,5.530 20.575 C 7.606 22.126,10.070 22.870,12.627 22.717 C 14.790 22.588,16.724 21.879,18.470 20.575 C 19.087 20.115,20.115 19.087,20.575 18.470 C 22.127 16.391,22.870 13.930,22.717 11.373 C 22.588 9.210,21.879 7.276,20.575 5.530 C 20.115 4.913,19.087 3.885,18.470 3.425 C 17.047 2.362,15.454 1.679,13.742 1.398 C 13.325 1.330,12.055 1.227,11.880 1.248 C 11.847 1.252,11.703 1.261,11.560 1.267 M8.400 7.187 C 8.170 7.223,7.804 7.381,7.580 7.540 C 7.053 7.914,6.760 8.486,6.760 9.140 C 6.760 10.367,7.852 11.288,9.065 11.084 C 9.775 10.964,10.391 10.432,10.608 9.750 C 10.716 9.410,10.716 8.870,10.608 8.530 C 10.401 7.880,9.829 7.358,9.171 7.219 C 8.913 7.164,8.619 7.152,8.400 7.187 M14.560 8.044 C 14.434 8.093,7.738 14.777,7.652 14.939 C 7.617 15.005,7.589 15.152,7.589 15.266 C 7.589 15.857,8.228 16.206,8.722 15.884 C 8.820 15.821,10.387 14.277,12.206 12.454 C 14.886 9.766,15.520 9.111,15.560 8.985 C 15.674 8.625,15.519 8.234,15.197 8.070 C 15.048 7.994,14.723 7.981,14.560 8.044 M8.895 8.695 C 9.201 8.823,9.302 9.192,9.097 9.436 C 8.757 9.840,8.125 9.502,8.276 8.997 C 8.332 8.809,8.501 8.679,8.731 8.645 C 8.748 8.642,8.822 8.665,8.895 8.695 M14.760 12.950 C 14.132 13.121,13.618 13.601,13.396 14.223 C 13.332 14.404,13.312 14.555,13.312 14.860 C 13.312 15.479,13.499 15.910,13.945 16.318 C 15.204 17.468,17.239 16.568,17.239 14.860 C 17.239 14.023,16.729 13.293,15.940 13.002 C 15.607 12.879,15.102 12.857,14.760 12.950 M15.567 14.486 C 15.696 14.577,15.776 14.796,15.740 14.960 C 15.707 15.111,15.518 15.303,15.377 15.330 C 15.081 15.387,14.800 15.159,14.800 14.862 C 14.800 14.459,15.230 14.248,15.567 14.486 " stroke="none" fill-rule="evenodd" fill="black"></path></svg>