<svg width="24" height="24" viewBox="0 0 24 24" fill="none" xmlns="http://www.w3.org/2000/svg"><path d="M8.080 1.282 C 4.042 1.493,1.931 3.265,1.398 6.891 C 1.310 7.494,1.225 8.895,1.264 9.113 C 1.278 9.194,1.325 9.318,1.368 9.389 C 1.658 9.870,2.422 9.836,2.661 9.332 C 2.718 9.212,2.740 9.022,2.765 8.423 C 2.900 5.187,3.905 3.654,6.288 3.044 C 7.337 2.776,7.247 2.780,12.000 2.780 C 15.936 2.780,16.339 2.786,16.760 2.852 C 19.558 3.288,20.712 4.442,21.148 7.240 C 21.214 7.661,21.220 8.064,21.220 12.000 C 21.220 15.936,21.214 16.339,21.148 16.760 C 20.712 19.558,19.558 20.712,16.760 21.148 C 16.339 21.214,15.936 21.220,12.000 21.220 C 8.064 21.220,7.661 21.214,7.240 21.148 C 4.756 20.761,3.576 19.795,3.044 17.712 C 2.821 16.838,2.790 16.492,2.764 14.600 L 2.740 12.860 2.640 12.686 C 2.359 12.194,1.641 12.194,1.360 12.686 C 1.262 12.857,1.260 12.878,1.247 13.880 C 1.223 15.664,1.336 17.082,1.575 18.027 C 2.267 20.757,3.971 22.193,7.027 22.622 C 7.786 22.728,8.902 22.759,12.000 22.759 C 15.098 22.759,16.214 22.728,16.973 22.622 C 19.443 22.275,20.996 21.288,21.897 19.490 C 22.379 18.530,22.638 17.369,22.720 15.807 C 22.771 14.838,22.771 9.162,22.720 8.193 C 22.657 6.998,22.521 6.191,22.242 5.356 C 21.632 3.531,20.469 2.367,18.650 1.760 C 17.788 1.473,17.023 1.344,15.806 1.280 C 14.952 1.235,8.952 1.237,8.080 1.282 M8.400 7.187 C 8.170 7.223,7.804 7.381,7.580 7.540 C 7.053 7.914,6.760 8.486,6.760 9.140 C 6.760 10.367,7.852 11.288,9.065 11.084 C 9.775 10.964,10.391 10.432,10.608 9.750 C 10.716 9.410,10.716 8.870,10.608 8.530 C 10.401 7.880,9.829 7.358,9.171 7.219 C 8.913 7.164,8.619 7.152,8.400 7.187 M14.560 8.044 C 14.434 8.093,7.738 14.777,7.652 14.939 C 7.617 15.005,7.589 15.152,7.589 15.266 C 7.589 15.857,8.228 16.206,8.722 15.884 C 8.820 15.821,10.387 14.277,12.206 12.454 C 14.886 9.766,15.520 9.111,15.560 8.985 C 15.674 8.625,15.519 8.234,15.197 8.070 C 15.048 7.994,14.723 7.981,14.560 8.044 M8.895 8.695 C 9.201 8.823,9.302 9.192,9.097 9.436 C 8.757 9.840,8.125 9.502,8.276 8.997 C 8.332 8.809,8.501 8.679,8.731 8.645 C 8.748 8.642,8.822 8.665,8.895 8.695 M14.760 12.950 C 14.132 13.121,13.618 13.601,13.396 14.223 C 13.332 14.404,13.312 14.555,13.312 14.860 C 13.312 15.479,13.499 15.910,13.945 16.318 C 15.204 17.468,17.239 16.568,17.239 14.860 C 17.239 14.023,16.729 13.293,15.940 13.002 C 15.607 12.879,15.102 12.857,14.760 12.950 M15.567 14.486 C 15.696 14.577,15.776 14.796,15.740 14.960 C 15.707 15.111,15.518 15.303,15.377 15.330 C 15.081 15.387,14.800 15.159,14.800 14.862 C 14.800 14.459,15.230 14.248,15.567 14.486 " stroke="none" fill-rule="evenodd" fill="black"></path></svg>