<svg width="24" height="24" viewBox="0 0 24 24" fill="none" xmlns="http://www.w3.org/2000/svg"><path d="M6.009 2.282 C 4.602 2.361,3.702 2.597,2.971 3.079 C 1.806 3.847,1.303 5.177,1.269 7.580 C 1.260 8.188,1.265 8.227,1.353 8.369 C 1.664 8.870,2.415 8.848,2.661 8.332 C 2.720 8.209,2.740 8.026,2.764 7.380 C 2.820 5.889,3.049 5.030,3.522 4.539 C 3.818 4.232,4.424 3.981,5.180 3.854 C 5.595 3.784,5.977 3.780,12.000 3.780 C 18.023 3.780,18.405 3.784,18.820 3.854 C 19.560 3.979,20.096 4.193,20.435 4.501 C 20.759 4.795,21.014 5.397,21.146 6.180 C 21.215 6.593,21.220 6.950,21.220 12.000 C 21.220 17.029,21.215 17.408,21.147 17.815 C 21.011 18.619,20.805 19.112,20.458 19.458 C 20.112 19.805,19.619 20.011,18.815 20.147 C 18.406 20.216,17.998 20.220,12.000 20.220 C 5.977 20.220,5.595 20.216,5.180 20.146 C 4.424 20.019,3.818 19.768,3.522 19.461 C 3.220 19.147,2.985 18.577,2.854 17.840 C 2.798 17.520,2.783 17.043,2.763 14.840 C 2.741 12.378,2.735 12.211,2.664 12.068 C 2.404 11.544,1.668 11.523,1.353 12.031 L 1.260 12.180 1.261 14.580 C 1.262 16.249,1.278 17.132,1.314 17.480 C 1.466 18.949,1.812 19.850,2.481 20.519 C 3.149 21.188,4.044 21.531,5.520 21.687 C 6.247 21.764,17.753 21.764,18.480 21.687 C 19.956 21.531,20.851 21.188,21.519 20.519 C 22.188 19.851,22.531 18.956,22.687 17.480 C 22.764 16.756,22.764 7.244,22.687 6.520 C 22.532 5.045,22.188 4.150,21.520 3.481 C 20.870 2.830,20.013 2.492,18.560 2.315 C 18.107 2.260,6.921 2.230,6.009 2.282 M7.940 6.983 C 7.467 7.088,7.106 7.292,6.715 7.679 C 6.431 7.960,6.342 8.080,6.209 8.360 C 6.013 8.771,5.960 9.012,5.960 9.480 C 5.960 9.948,6.013 10.189,6.209 10.600 C 6.425 11.056,6.912 11.550,7.360 11.769 C 7.962 12.063,8.649 12.110,9.300 11.903 C 9.925 11.705,10.509 11.190,10.799 10.582 C 10.986 10.189,11.040 9.945,11.040 9.480 C 11.040 9.013,10.986 8.770,10.795 8.369 C 10.610 7.981,10.243 7.567,9.865 7.319 C 9.355 6.984,8.561 6.846,7.940 6.983 M13.815 7.278 C 13.331 7.393,13.098 8.004,13.383 8.408 C 13.447 8.499,13.572 8.610,13.660 8.656 C 13.817 8.738,13.873 8.740,16.377 8.751 C 18.157 8.759,18.999 8.749,19.150 8.718 C 19.902 8.562,19.931 7.473,19.189 7.286 C 18.980 7.234,14.032 7.226,13.815 7.278 M8.877 8.489 C 9.070 8.548,9.356 8.825,9.466 9.060 C 9.651 9.457,9.552 9.925,9.215 10.248 C 9.010 10.444,8.793 10.530,8.500 10.530 C 8.207 10.530,7.990 10.444,7.785 10.248 C 7.341 9.823,7.327 9.188,7.752 8.747 C 8.057 8.430,8.417 8.348,8.877 8.489 M14.815 11.278 C 14.331 11.393,14.098 12.004,14.383 12.408 C 14.447 12.499,14.572 12.610,14.660 12.656 C 14.815 12.738,14.880 12.740,16.875 12.752 C 19.208 12.765,19.281 12.759,19.519 12.521 C 19.918 12.122,19.731 11.423,19.189 11.286 C 18.980 11.234,15.031 11.226,14.815 11.278 M7.460 12.896 C 6.602 13.036,5.955 13.363,5.357 13.958 C 4.841 14.472,4.529 15.017,4.360 15.699 C 4.311 15.896,4.268 16.167,4.265 16.302 C 4.261 16.507,4.278 16.573,4.372 16.714 C 4.578 17.027,4.930 17.148,5.260 17.022 C 5.448 16.950,5.665 16.736,5.700 16.589 C 5.711 16.540,5.747 16.365,5.780 16.200 C 5.954 15.337,6.609 14.642,7.460 14.418 C 7.796 14.330,8.701 14.298,9.174 14.357 C 9.386 14.384,9.666 14.448,9.797 14.499 C 10.527 14.785,11.064 15.427,11.220 16.200 C 11.253 16.365,11.289 16.540,11.300 16.589 C 11.335 16.736,11.552 16.950,11.740 17.022 C 12.070 17.148,12.422 17.027,12.628 16.714 C 12.722 16.573,12.739 16.507,12.735 16.302 C 12.732 16.167,12.689 15.896,12.640 15.699 C 12.472 15.019,12.161 14.476,11.643 13.955 C 11.123 13.433,10.482 13.081,9.782 12.933 C 9.388 12.850,7.886 12.826,7.460 12.896 M16.815 15.278 C 16.331 15.393,16.098 16.004,16.383 16.408 C 16.605 16.722,16.676 16.738,17.869 16.753 C 19.122 16.768,19.296 16.744,19.519 16.521 C 19.918 16.122,19.731 15.423,19.189 15.286 C 18.983 15.235,17.025 15.228,16.815 15.278 " stroke="none" fill-rule="evenodd" fill="black"></path></svg>