<svg width="24" height="24" viewBox="0 0 24 24" fill="none" xmlns="http://www.w3.org/2000/svg"><path d="M9.906 1.799 C 8.722 2.015,7.766 2.852,7.372 4.020 C 7.271 4.316,7.263 4.389,7.263 5.000 C 7.263 5.611,7.271 5.684,7.372 5.980 C 7.725 7.027,8.555 7.834,9.580 8.126 C 9.843 8.201,10.000 8.218,10.460 8.219 C 10.815 8.220,11.100 8.199,11.240 8.164 C 12.380 7.871,13.285 6.988,13.608 5.852 C 13.734 5.406,13.734 4.594,13.608 4.148 C 13.286 3.016,12.422 2.167,11.260 1.840 C 11.051 1.781,10.154 1.754,9.906 1.799 M10.849 3.298 C 11.352 3.405,11.823 3.783,12.046 4.261 C 12.533 5.300,11.887 6.529,10.753 6.722 C 9.709 6.899,8.721 6.061,8.721 5.000 C 8.721 4.059,9.496 3.278,10.460 3.245 C 10.526 3.243,10.701 3.267,10.849 3.298 M16.680 4.022 C 16.351 4.093,15.843 4.344,15.566 4.574 C 14.924 5.105,14.561 5.873,14.561 6.700 C 14.561 7.758,15.142 8.687,16.100 9.163 C 17.449 9.832,19.083 9.269,19.763 7.900 C 20.323 6.772,20.020 5.390,19.034 4.574 C 18.750 4.338,18.246 4.092,17.900 4.020 C 17.553 3.947,17.024 3.948,16.680 4.022 M17.592 5.486 C 18.228 5.642,18.661 6.322,18.522 6.946 C 18.373 7.616,17.724 8.050,17.065 7.920 C 16.386 7.787,15.942 7.124,16.082 6.452 C 16.224 5.764,16.918 5.320,17.592 5.486 M3.380 6.019 C 2.431 6.227,1.638 6.946,1.349 7.860 C 1.220 8.266,1.220 9.134,1.349 9.540 C 1.475 9.938,1.697 10.295,2.020 10.621 C 2.541 11.145,3.104 11.395,3.840 11.429 C 4.676 11.467,5.293 11.230,5.882 10.644 C 6.475 10.054,6.699 9.522,6.699 8.700 C 6.699 7.878,6.475 7.346,5.882 6.756 C 5.328 6.205,4.730 5.958,3.960 5.964 C 3.773 5.965,3.512 5.990,3.380 6.019 M4.474 7.562 C 4.697 7.660,4.976 7.921,5.086 8.135 C 5.253 8.458,5.250 8.949,5.080 9.279 C 4.974 9.483,4.691 9.742,4.460 9.846 C 4.185 9.970,3.738 9.971,3.469 9.850 C 3.203 9.730,2.905 9.412,2.803 9.139 C 2.485 8.290,3.159 7.386,4.054 7.460 C 4.182 7.471,4.371 7.517,4.474 7.562 M20.449 9.018 C 19.662 9.209,18.943 9.959,18.803 10.737 C 18.659 11.535,18.869 12.231,19.419 12.781 C 19.903 13.265,20.483 13.478,21.177 13.427 C 23.081 13.289,23.934 10.973,22.581 9.619 C 22.272 9.310,21.866 9.081,21.488 9.004 C 21.212 8.947,20.715 8.954,20.449 9.018 M11.153 9.282 C 9.279 9.416,7.405 10.298,6.020 11.699 C 5.423 12.303,5.270 12.518,5.248 12.781 C 5.225 13.063,5.255 13.169,5.407 13.341 C 5.576 13.534,5.717 13.600,5.960 13.600 C 6.257 13.600,6.416 13.497,6.807 13.048 C 7.774 11.939,9.144 11.143,10.586 10.853 C 11.091 10.751,12.363 10.751,12.840 10.852 C 13.632 11.021,14.648 11.440,15.252 11.847 C 16.611 12.763,17.658 14.124,18.077 15.520 C 18.245 16.078,18.289 16.351,18.308 16.940 C 18.323 17.436,18.313 17.611,18.246 17.950 C 18.086 18.756,17.727 19.438,17.163 20.005 C 16.605 20.566,16.050 20.880,15.203 21.114 L 14.820 21.220 11.680 21.220 C 8.553 21.220,8.539 21.220,8.216 21.131 C 7.801 21.016,7.375 20.843,7.093 20.673 C 6.524 20.331,5.918 19.694,5.628 19.130 C 5.281 18.458,5.155 17.929,5.157 17.146 C 5.157 16.774,5.141 16.591,5.097 16.486 C 4.906 16.030,4.380 15.870,3.987 16.147 C 3.702 16.349,3.661 16.483,3.666 17.220 C 3.673 18.396,3.966 19.368,4.597 20.307 C 5.265 21.301,6.239 22.045,7.380 22.432 C 8.280 22.738,8.790 22.772,12.100 22.749 C 14.811 22.730,14.935 22.723,15.634 22.542 C 18.153 21.889,19.814 19.729,19.804 17.117 C 19.800 15.994,19.575 15.032,19.082 14.020 C 17.979 11.759,15.907 10.079,13.458 9.463 C 12.835 9.306,11.876 9.231,11.153 9.282 M21.271 10.502 C 21.468 10.584,21.595 10.706,21.684 10.900 C 21.863 11.286,21.680 11.727,21.271 11.898 C 21.083 11.977,20.917 11.977,20.729 11.898 C 20.101 11.636,20.084 10.800,20.700 10.516 C 20.897 10.425,21.076 10.421,21.271 10.502 " stroke="none" fill-rule="evenodd" fill="black"></path></svg>