<svg width="24" height="24" viewBox="0 0 24 24" fill="none" xmlns="http://www.w3.org/2000/svg"><path d="M2.815 1.278 C 2.331 1.393,2.098 2.004,2.383 2.408 C 2.448 2.499,2.572 2.610,2.660 2.656 L 2.820 2.740 11.880 2.751 C 18.373 2.758,21.001 2.749,21.154 2.717 C 21.902 2.562,21.929 1.473,21.189 1.286 C 20.978 1.233,3.036 1.225,2.815 1.278 M11.598 4.275 C 11.366 4.426,8.588 7.221,8.504 7.388 C 8.339 7.718,8.479 8.175,8.802 8.356 C 8.993 8.464,9.318 8.485,9.482 8.401 C 9.536 8.374,9.954 7.980,10.410 7.526 L 11.240 6.701 11.240 11.800 L 11.240 16.899 10.430 16.094 C 9.985 15.650,9.562 15.259,9.492 15.224 C 9.345 15.151,9.057 15.140,8.893 15.203 C 8.739 15.260,8.562 15.433,8.495 15.589 C 8.417 15.771,8.427 16.057,8.517 16.232 C 8.559 16.313,9.275 17.058,10.107 17.886 C 11.545 19.317,11.629 19.393,11.810 19.431 C 11.935 19.457,12.065 19.457,12.190 19.431 C 12.371 19.393,12.455 19.317,13.893 17.886 C 14.725 17.058,15.441 16.313,15.483 16.232 C 15.573 16.057,15.583 15.771,15.505 15.589 C 15.438 15.433,15.261 15.260,15.107 15.203 C 14.943 15.140,14.655 15.151,14.508 15.224 C 14.438 15.259,14.015 15.650,13.570 16.094 L 12.760 16.899 12.760 11.800 L 12.760 6.701 13.590 7.526 C 14.047 7.980,14.464 8.374,14.518 8.401 C 14.814 8.552,15.299 8.393,15.470 8.088 C 15.579 7.896,15.590 7.576,15.496 7.388 C 15.412 7.221,12.634 4.426,12.402 4.275 C 12.151 4.113,11.849 4.113,11.598 4.275 M2.815 21.277 C 2.330 21.397,2.098 22.004,2.383 22.408 C 2.448 22.499,2.572 22.610,2.660 22.656 C 2.815 22.737,2.874 22.740,4.460 22.740 C 5.362 22.740,6.149 22.726,6.209 22.709 C 6.361 22.667,6.601 22.447,6.666 22.292 C 6.777 22.027,6.721 21.711,6.527 21.506 C 6.289 21.255,6.334 21.261,4.560 21.253 C 3.669 21.249,2.884 21.260,2.815 21.277 M9.894 21.278 C 9.236 21.437,9.103 22.307,9.686 22.640 L 9.860 22.740 15.520 22.740 L 21.180 22.740 21.340 22.656 C 21.428 22.610,21.553 22.499,21.617 22.408 C 21.714 22.270,21.733 22.203,21.733 22.003 C 21.733 21.718,21.615 21.506,21.373 21.355 L 21.220 21.260 15.620 21.254 C 12.540 21.250,9.963 21.261,9.894 21.278 " stroke="none" fill-rule="evenodd" fill="black"></path></svg>