<svg width="24" height="24" viewBox="0 0 24 24" fill="none" xmlns="http://www.w3.org/2000/svg"><path d="M8.080 1.282 C 4.008 1.495,1.895 3.296,1.383 6.991 C 1.270 7.803,1.242 8.816,1.242 12.000 C 1.242 15.184,1.270 16.197,1.383 17.009 C 1.767 19.784,3.048 21.470,5.356 22.242 C 6.191 22.521,6.998 22.657,8.193 22.720 C 9.162 22.771,14.838 22.771,15.807 22.720 C 17.002 22.657,17.809 22.521,18.644 22.242 C 20.966 21.466,22.225 19.797,22.622 16.973 C 22.714 16.320,22.768 15.081,22.716 14.837 C 22.576 14.185,21.711 14.051,21.356 14.626 C 21.275 14.757,21.264 14.844,21.235 15.558 C 21.104 18.814,20.087 20.363,17.688 20.960 C 16.947 21.144,16.455 21.203,15.455 21.228 L 14.530 21.251 14.241 20.076 C 14.082 19.429,13.558 17.307,13.076 15.360 C 12.594 13.413,11.704 9.813,11.097 7.360 C 10.491 4.907,9.986 2.867,9.974 2.828 C 9.954 2.758,10.081 2.756,13.167 2.770 C 16.684 2.787,16.665 2.786,17.688 3.040 C 19.519 3.496,20.504 4.481,20.960 6.312 C 21.184 7.215,21.207 7.474,21.235 9.420 C 21.260 11.212,21.260 11.221,21.353 11.369 C 21.710 11.943,22.576 11.812,22.716 11.162 C 22.812 10.713,22.749 7.934,22.622 7.027 C 22.359 5.157,21.686 3.741,20.641 2.857 C 19.477 1.874,18.011 1.396,15.806 1.280 C 14.952 1.235,8.952 1.237,8.080 1.282 M9.515 7.190 C 10.118 9.627,10.618 11.638,10.626 11.661 C 10.635 11.684,8.960 12.192,6.751 12.836 C 4.611 13.460,2.836 13.979,2.808 13.990 C 2.765 14.007,2.758 13.438,2.770 10.815 C 2.784 8.036,2.794 7.565,2.854 7.200 C 3.205 5.051,3.958 3.936,5.480 3.308 C 6.198 3.011,7.317 2.790,8.220 2.765 L 8.420 2.760 9.515 7.190 M11.880 16.750 C 12.368 18.725,12.818 20.544,12.880 20.793 L 12.993 21.245 10.306 21.230 C 7.374 21.212,7.309 21.208,6.312 20.960 C 4.489 20.506,3.510 19.533,3.044 17.712 C 2.902 17.156,2.803 16.468,2.790 15.945 L 2.780 15.551 6.860 14.358 C 9.104 13.701,10.952 13.163,10.966 13.162 C 10.980 13.161,11.392 14.775,11.880 16.750 " stroke="none" fill-rule="evenodd" fill="black"></path></svg>