<svg width="24" height="24" viewBox="0 0 24 24" fill="none" xmlns="http://www.w3.org/2000/svg"><path d="M11.296 1.283 C 10.715 1.319,9.916 1.439,9.422 1.564 C 8.588 1.777,7.655 2.134,7.465 2.312 C 7.127 2.629,7.175 3.210,7.560 3.465 C 7.828 3.642,7.998 3.635,8.523 3.428 C 9.718 2.955,10.735 2.760,12.006 2.760 C 13.463 2.760,14.763 3.061,16.066 3.699 C 17.071 4.191,17.805 4.727,18.622 5.566 C 19.166 6.125,19.310 6.300,19.698 6.874 C 20.491 8.048,21.034 9.550,21.203 11.036 C 21.309 11.974,21.201 13.417,20.955 14.328 L 20.872 14.636 20.626 14.544 C 19.647 14.175,18.345 14.175,17.367 14.544 C 15.631 15.197,14.430 16.782,14.282 18.612 C 14.226 19.320,14.329 20.094,14.559 20.677 L 14.635 20.870 14.387 20.935 C 13.558 21.153,12.881 21.240,12.000 21.240 C 10.537 21.240,9.253 20.944,7.940 20.303 C 6.937 19.814,6.195 19.273,5.378 18.434 C 4.611 17.648,4.170 17.024,3.698 16.060 C 3.058 14.754,2.760 13.464,2.760 12.005 C 2.760 10.060,3.331 8.256,4.457 6.648 C 4.701 6.298,4.770 6.095,4.724 5.855 C 4.656 5.497,4.372 5.267,4.000 5.267 C 3.678 5.267,3.534 5.369,3.222 5.816 C 1.432 8.383,0.834 11.537,1.564 14.550 C 1.904 15.951,2.529 17.268,3.424 18.470 C 3.880 19.083,4.909 20.111,5.530 20.575 C 7.593 22.116,10.055 22.865,12.586 22.720 C 13.508 22.667,14.364 22.513,15.226 22.246 L 15.472 22.170 15.666 22.370 C 16.164 22.884,17.039 23.388,17.768 23.581 C 18.950 23.893,20.292 23.730,21.289 23.153 C 23.575 21.831,24.390 19.094,23.188 16.781 C 22.991 16.403,22.648 15.936,22.369 15.665 L 22.167 15.470 22.226 15.305 C 22.462 14.646,22.663 13.555,22.719 12.630 C 22.874 10.083,22.128 7.612,20.576 5.530 C 20.116 4.912,19.088 3.884,18.470 3.424 C 17.044 2.361,15.453 1.679,13.742 1.398 C 13.336 1.331,12.078 1.229,11.880 1.246 C 11.847 1.249,11.584 1.266,11.296 1.283 M19.940 15.880 C 20.953 16.204,21.777 17.018,22.105 18.020 C 22.189 18.276,22.214 18.443,22.229 18.860 C 22.253 19.514,22.174 19.875,21.872 20.480 C 21.696 20.832,21.607 20.956,21.321 21.245 C 20.629 21.946,19.937 22.240,18.984 22.240 C 17.232 22.240,15.763 20.777,15.761 19.028 C 15.759 18.106,16.087 17.316,16.727 16.696 C 17.193 16.244,17.642 15.989,18.237 15.838 C 18.666 15.729,19.536 15.750,19.940 15.880 M18.815 16.797 C 18.638 16.841,18.461 16.976,18.355 17.149 C 18.277 17.274,18.261 17.365,18.247 17.768 L 18.230 18.240 17.788 18.240 C 17.257 18.240,17.059 18.313,16.887 18.572 C 16.734 18.803,16.734 19.157,16.887 19.388 C 17.059 19.647,17.257 19.720,17.788 19.720 L 18.230 19.720 18.247 20.210 C 18.261 20.638,18.276 20.722,18.361 20.874 C 18.494 21.109,18.722 21.240,19.000 21.240 C 19.278 21.240,19.506 21.109,19.639 20.874 C 19.724 20.722,19.739 20.638,19.753 20.210 L 19.770 19.720 20.212 19.720 C 20.740 19.720,20.925 19.652,21.106 19.392 C 21.201 19.254,21.220 19.186,21.220 18.980 C 21.220 18.774,21.201 18.706,21.106 18.568 C 20.925 18.307,20.741 18.240,20.207 18.240 L 19.760 18.240 19.759 17.890 C 19.758 17.463,19.706 17.222,19.580 17.056 C 19.421 16.847,19.078 16.731,18.815 16.797 " stroke="none" fill-rule="evenodd" fill="black"></path></svg>