<svg width="24" height="24" viewBox="0 0 24 24" fill="none" xmlns="http://www.w3.org/2000/svg"><path d="M11.300 1.320 C 10.448 1.375,9.627 1.525,8.760 1.784 C 8.328 1.913,8.152 2.028,8.045 2.250 C 7.815 2.725,8.108 3.269,8.616 3.311 C 8.777 3.325,8.945 3.295,9.324 3.185 C 10.280 2.908,11.030 2.800,12.000 2.800 C 12.970 2.800,13.720 2.908,14.676 3.185 C 15.277 3.359,15.510 3.358,15.742 3.181 C 16.172 2.853,16.112 2.155,15.633 1.931 C 15.411 1.826,14.688 1.619,14.200 1.520 C 13.316 1.340,12.193 1.263,11.300 1.320 M4.620 4.256 C 4.453 4.328,3.819 5.008,3.412 5.550 C 0.436 9.512,0.556 15.017,3.702 18.820 C 4.110 19.314,4.504 19.702,4.653 19.758 C 4.937 19.864,5.338 19.763,5.514 19.539 C 5.792 19.185,5.695 18.720,5.258 18.320 C 5.046 18.126,4.542 17.495,4.268 17.080 C 3.932 16.571,3.457 15.611,3.260 15.040 C 2.917 14.049,2.760 13.101,2.760 12.020 C 2.760 10.933,2.896 10.073,3.227 9.080 C 3.632 7.861,4.327 6.676,5.164 5.779 C 5.559 5.355,5.636 5.240,5.665 5.028 C 5.709 4.710,5.560 4.423,5.278 4.279 C 5.099 4.188,4.799 4.177,4.620 4.256 M18.740 4.266 C 18.441 4.424,18.291 4.705,18.334 5.023 C 18.364 5.237,18.442 5.358,18.800 5.740 C 20.078 7.103,20.934 8.929,21.179 10.812 C 21.250 11.360,21.259 12.469,21.197 13.032 C 20.987 14.941,20.102 16.872,18.800 18.260 C 18.444 18.640,18.364 18.763,18.335 18.972 C 18.274 19.419,18.607 19.800,19.060 19.800 C 19.346 19.800,19.473 19.721,19.876 19.296 C 23.226 15.755,23.690 10.209,20.979 6.100 C 20.447 5.294,19.641 4.368,19.371 4.254 C 19.200 4.182,18.889 4.188,18.740 4.266 M10.182 7.282 C 9.652 7.364,9.207 7.591,8.830 7.972 C 8.615 8.188,8.518 8.329,8.363 8.652 C 8.134 9.127,8.041 9.501,8.011 10.066 C 7.991 10.427,7.998 10.492,8.076 10.651 C 8.128 10.758,8.230 10.877,8.328 10.946 C 8.466 11.041,8.534 11.060,8.740 11.060 C 8.946 11.060,9.014 11.041,9.152 10.946 C 9.375 10.791,9.466 10.582,9.496 10.155 C 9.542 9.492,9.763 9.030,10.119 8.850 C 10.366 8.725,10.764 8.728,11.132 8.858 C 11.282 8.911,12.158 9.390,13.087 9.927 C 14.900 10.976,15.185 11.179,15.390 11.575 C 15.651 12.080,15.445 12.618,14.822 13.058 C 14.400 13.357,11.444 15.048,11.172 15.147 C 10.638 15.341,10.241 15.309,9.955 15.050 C 9.665 14.789,9.541 14.460,9.486 13.805 C 9.455 13.439,9.439 13.382,9.333 13.249 C 9.177 13.053,8.986 12.960,8.740 12.960 C 8.492 12.960,8.303 13.053,8.143 13.254 C 8.021 13.407,8.020 13.412,8.023 13.874 C 8.030 14.778,8.303 15.504,8.839 16.042 C 9.376 16.581,9.914 16.785,10.703 16.748 C 11.195 16.725,11.644 16.600,12.148 16.345 C 12.520 16.158,15.274 14.556,15.619 14.327 C 16.197 13.944,16.660 13.368,16.866 12.778 C 16.963 12.501,16.977 12.400,16.977 12.000 C 16.977 11.469,16.906 11.209,16.631 10.740 C 16.440 10.414,15.968 9.927,15.609 9.685 C 15.206 9.413,12.415 7.805,12.020 7.617 C 11.402 7.323,10.722 7.199,10.182 7.282 M8.380 20.743 C 8.200 20.837,8.116 20.923,8.035 21.100 C 7.886 21.425,7.993 21.836,8.275 22.020 C 8.441 22.129,9.021 22.308,9.684 22.454 C 11.089 22.765,12.733 22.773,14.200 22.476 C 14.697 22.376,15.415 22.172,15.633 22.069 C 16.112 21.845,16.172 21.147,15.742 20.819 C 15.518 20.648,15.267 20.642,14.754 20.793 C 12.934 21.333,11.105 21.340,9.323 20.816 C 8.817 20.667,8.563 20.647,8.380 20.743 " stroke="none" fill-rule="evenodd" fill="black"></path></svg>