<svg width="24" height="24" viewBox="0 0 24 24" fill="none" xmlns="http://www.w3.org/2000/svg"><path d="M11.560 1.267 C 10.326 1.322,9.152 1.571,8.041 2.012 C 7.427 2.256,7.240 2.454,7.240 2.860 C 7.240 3.229,7.525 3.548,7.892 3.589 C 8.032 3.605,8.152 3.574,8.523 3.428 C 9.718 2.955,10.735 2.760,12.006 2.760 C 13.464 2.760,14.754 3.058,16.060 3.698 C 17.024 4.170,17.648 4.611,18.434 5.378 C 19.273 6.195,19.814 6.937,20.303 7.940 C 20.944 9.253,21.240 10.537,21.240 12.000 C 21.240 13.465,20.943 14.752,20.302 16.060 C 19.830 17.024,19.389 17.648,18.622 18.434 C 17.805 19.273,17.063 19.814,16.060 20.303 C 14.747 20.944,13.463 21.240,12.000 21.240 C 10.537 21.240,9.253 20.944,7.940 20.303 C 6.937 19.814,6.195 19.273,5.378 18.434 C 4.611 17.648,4.170 17.024,3.698 16.060 C 3.058 14.754,2.760 13.464,2.760 12.005 C 2.760 10.060,3.331 8.256,4.457 6.648 C 4.701 6.298,4.770 6.095,4.724 5.855 C 4.656 5.497,4.372 5.267,4.000 5.267 C 3.678 5.267,3.534 5.369,3.222 5.816 C 1.432 8.383,0.834 11.537,1.564 14.550 C 1.904 15.951,2.529 17.268,3.424 18.470 C 3.880 19.083,4.909 20.111,5.530 20.575 C 7.606 22.126,10.070 22.870,12.627 22.717 C 14.790 22.588,16.724 21.879,18.470 20.575 C 19.087 20.115,20.115 19.087,20.575 18.470 C 22.127 16.391,22.870 13.930,22.717 11.373 C 22.588 9.210,21.879 7.276,20.575 5.530 C 20.115 4.913,19.087 3.885,18.470 3.425 C 17.047 2.362,15.454 1.679,13.742 1.398 C 13.325 1.330,12.055 1.227,11.880 1.248 C 11.847 1.252,11.703 1.261,11.560 1.267 M9.946 7.541 C 9.300 7.704,8.677 8.219,8.370 8.840 C 8.278 9.027,8.161 9.342,8.111 9.540 C 8.021 9.895,8.020 9.934,8.021 12.260 C 8.022 14.575,8.023 14.626,8.111 14.940 C 8.404 15.996,9.085 16.693,10.026 16.903 C 10.566 17.023,11.255 16.941,11.494 16.728 C 11.610 16.626,11.718 16.360,11.718 16.180 C 11.718 16.000,11.610 15.734,11.494 15.632 C 11.322 15.479,11.121 15.430,10.777 15.459 C 10.318 15.497,10.150 15.444,9.893 15.180 C 9.733 15.016,9.665 14.905,9.594 14.694 C 9.504 14.426,9.502 14.379,9.489 12.405 C 9.480 11.069,9.490 10.295,9.519 10.107 C 9.608 9.537,9.910 9.100,10.286 8.998 C 10.511 8.937,10.841 8.973,11.172 9.093 C 11.444 9.192,14.400 10.883,14.822 11.182 C 15.269 11.497,15.497 11.849,15.496 12.220 C 15.496 12.640,15.230 13.010,14.640 13.409 C 14.336 13.615,14.214 13.777,14.177 14.025 C 14.104 14.512,14.566 14.951,15.039 14.845 C 15.381 14.768,16.005 14.306,16.377 13.855 C 17.276 12.765,17.182 11.370,16.141 10.339 C 15.818 10.019,15.600 9.878,13.880 8.880 C 12.182 7.894,12.002 7.799,11.509 7.634 C 11.198 7.530,11.066 7.508,10.660 7.496 C 10.324 7.486,10.110 7.499,9.946 7.541 " stroke="none" fill-rule="evenodd" fill="black"></path></svg>