<svg width="24" height="24" viewBox="0 0 24 24" fill="none" xmlns="http://www.w3.org/2000/svg"><path d="M7.280 2.765 C 5.867 2.926,4.664 3.793,3.965 5.155 C 3.571 5.922,3.353 6.772,3.282 7.827 C 3.229 8.600,3.229 15.400,3.282 16.173 C 3.353 17.228,3.571 18.078,3.965 18.845 C 5.205 21.260,7.826 21.933,10.660 20.565 C 11.085 20.360,16.994 16.981,17.820 16.471 C 18.915 15.794,19.806 14.866,20.290 13.897 C 20.607 13.262,20.729 12.737,20.729 12.000 C 20.729 11.436,20.677 11.106,20.516 10.634 C 20.112 9.454,19.104 8.314,17.708 7.458 C 17.201 7.146,16.815 7.175,16.532 7.547 C 16.434 7.676,16.420 7.728,16.420 7.977 C 16.420 8.359,16.482 8.437,17.124 8.861 C 18.019 9.453,18.722 10.213,19.012 10.902 C 19.337 11.674,19.318 12.485,18.957 13.212 C 18.641 13.849,18.005 14.544,17.299 15.024 C 16.991 15.234,11.181 18.603,10.320 19.071 C 9.520 19.506,8.808 19.717,8.040 19.747 C 7.377 19.773,7.042 19.711,6.567 19.477 C 5.642 19.021,5.029 18.020,4.822 16.627 C 4.729 16.003,4.729 7.997,4.822 7.373 C 4.981 6.300,5.341 5.529,5.952 4.953 C 6.284 4.640,6.757 4.389,7.180 4.300 C 7.537 4.225,8.228 4.224,8.606 4.297 C 9.409 4.452,9.936 4.690,11.560 5.628 C 12.209 6.003,12.794 6.336,12.860 6.369 C 13.265 6.570,13.703 6.422,13.885 6.022 C 14.003 5.761,13.963 5.464,13.778 5.245 C 13.670 5.117,11.406 3.790,10.721 3.454 C 9.974 3.087,9.163 2.846,8.392 2.762 C 7.953 2.715,7.713 2.715,7.280 2.765 " stroke="none" fill-rule="evenodd" fill="black"></path></svg>