<svg width="24" height="24" viewBox="0 0 24 24" fill="none" xmlns="http://www.w3.org/2000/svg"><path d="M17.040 3.975 C 16.712 4.051,16.528 4.117,16.240 4.261 C 15.740 4.511,11.859 6.766,11.751 6.869 C 11.492 7.116,11.461 7.531,11.677 7.830 C 11.833 8.045,12.032 8.133,12.316 8.113 C 12.527 8.097,12.679 8.017,14.721 6.841 C 15.919 6.150,16.989 5.551,17.098 5.509 C 17.706 5.278,18.460 5.442,18.935 5.908 C 19.183 6.151,19.294 6.319,19.409 6.620 L 19.500 6.860 19.511 11.800 C 19.519 15.166,19.509 16.829,19.480 17.020 C 19.298 18.208,18.047 18.914,16.984 18.427 C 16.785 18.336,14.570 17.067,10.280 14.587 C 9.235 13.983,8.291 13.411,8.183 13.315 C 7.581 12.783,7.428 11.891,7.809 11.143 C 7.915 10.934,8.243 10.592,8.487 10.436 C 8.901 10.170,8.987 9.656,8.676 9.302 C 8.404 8.991,8.022 8.971,7.593 9.246 C 6.896 9.691,6.379 10.443,6.176 11.305 C 6.084 11.699,6.117 12.554,6.239 12.940 C 6.446 13.591,6.867 14.203,7.371 14.582 C 7.628 14.776,8.958 15.554,13.940 18.423 C 16.235 19.745,16.458 19.862,16.925 19.987 C 17.304 20.089,18.121 20.079,18.531 19.967 C 19.676 19.656,20.589 18.739,20.890 17.600 L 20.980 17.260 20.980 12.000 L 20.980 6.740 20.890 6.401 C 20.623 5.401,20.005 4.660,19.068 4.218 C 18.909 4.144,18.672 4.053,18.540 4.017 C 18.222 3.931,17.335 3.906,17.040 3.975 M3.459 5.136 C 3.310 5.201,3.092 5.444,3.051 5.591 C 3.034 5.651,3.020 7.617,3.020 9.960 L 3.020 14.220 3.113 14.369 C 3.473 14.948,4.341 14.811,4.477 14.153 C 4.509 14.002,4.519 12.716,4.511 9.779 C 4.499 5.195,4.518 5.522,4.254 5.273 C 4.050 5.080,3.719 5.023,3.459 5.136 M3.575 16.278 C 3.399 16.320,3.222 16.455,3.113 16.631 C 3.024 16.773,3.020 16.815,3.020 17.540 C 3.020 17.958,3.034 18.349,3.051 18.409 C 3.093 18.561,3.313 18.801,3.468 18.866 C 3.733 18.977,4.049 18.921,4.254 18.727 C 4.474 18.519,4.496 18.433,4.513 17.733 C 4.530 17.013,4.490 16.733,4.341 16.538 C 4.183 16.331,3.841 16.215,3.575 16.278 " stroke="none" fill-rule="evenodd" fill="black"></path></svg>