<svg width="24" height="24" viewBox="0 0 24 24" fill="none" xmlns="http://www.w3.org/2000/svg"><path d="M9.697 1.282 C 7.873 1.423,6.834 2.339,6.579 4.030 C 6.541 4.285,6.520 4.733,6.520 5.324 L 6.520 6.228 5.930 6.257 C 5.212 6.292,4.785 6.363,4.361 6.517 C 3.265 6.917,2.569 7.786,2.330 9.052 C 2.267 9.382,2.260 9.741,2.260 12.500 C 2.260 15.898,2.263 15.941,2.517 16.638 C 2.915 17.729,3.801 18.443,5.031 18.662 C 5.240 18.700,5.751 18.734,6.307 18.748 L 7.233 18.772 7.259 19.196 C 7.334 20.423,7.633 21.195,8.267 21.803 C 8.741 22.257,9.301 22.529,10.052 22.669 C 10.594 22.771,13.406 22.771,13.948 22.669 C 14.699 22.529,15.259 22.257,15.733 21.803 C 16.367 21.195,16.666 20.423,16.741 19.196 L 16.767 18.772 17.693 18.748 C 18.249 18.734,18.760 18.700,18.969 18.662 C 20.199 18.443,21.085 17.729,21.483 16.638 C 21.737 15.941,21.740 15.898,21.740 12.500 C 21.740 9.741,21.733 9.382,21.670 9.052 C 21.431 7.786,20.735 6.917,19.639 6.517 C 19.215 6.363,18.788 6.292,18.070 6.257 L 17.480 6.228 17.480 5.324 C 17.480 4.320,17.425 3.830,17.259 3.330 C 16.837 2.064,15.867 1.407,14.233 1.280 C 13.657 1.235,10.286 1.237,9.697 1.282 M14.898 2.892 C 15.426 3.079,15.678 3.320,15.836 3.789 C 15.965 4.170,15.998 4.506,15.999 5.410 L 16.000 6.240 12.000 6.240 L 8.000 6.240 8.001 5.410 C 8.002 4.506,8.035 4.170,8.164 3.789 C 8.350 3.236,8.763 2.922,9.461 2.802 C 9.570 2.783,10.767 2.770,12.120 2.774 L 14.580 2.780 14.898 2.892 M18.773 7.819 C 19.552 7.984,20.017 8.447,20.180 9.220 C 20.267 9.635,20.267 15.365,20.180 15.780 C 20.017 16.553,19.552 17.016,18.773 17.181 C 18.583 17.221,18.235 17.239,17.630 17.239 L 16.760 17.240 16.760 16.500 L 16.760 15.760 16.858 15.760 C 16.912 15.760,17.049 15.740,17.162 15.716 C 17.926 15.552,17.919 14.446,17.154 14.281 C 16.997 14.247,15.586 14.239,11.860 14.248 L 6.780 14.260 6.627 14.355 C 6.387 14.504,6.267 14.719,6.267 14.997 C 6.267 15.417,6.497 15.661,6.964 15.734 L 7.240 15.778 7.240 16.509 L 7.240 17.240 6.370 17.239 C 5.758 17.239,5.417 17.221,5.220 17.180 C 4.447 17.017,3.984 16.552,3.819 15.773 C 3.734 15.369,3.734 9.631,3.819 9.227 C 3.982 8.457,4.445 7.986,5.200 7.823 C 5.595 7.737,18.371 7.734,18.773 7.819 M6.815 10.278 C 6.331 10.393,6.098 11.004,6.383 11.408 C 6.447 11.499,6.572 11.610,6.660 11.656 C 6.813 11.736,6.888 11.741,8.373 11.752 C 10.166 11.766,10.287 11.753,10.519 11.521 C 10.918 11.122,10.731 10.423,10.189 10.286 C 9.981 10.234,7.029 10.227,6.815 10.278 M15.239 17.630 C 15.239 19.108,15.226 19.557,15.181 19.773 C 15.016 20.552,14.553 21.017,13.780 21.180 C 13.379 21.264,10.624 21.265,10.227 21.181 C 9.448 21.016,8.983 20.553,8.820 19.780 C 8.773 19.556,8.761 19.124,8.761 17.630 L 8.760 15.760 12.000 15.760 L 15.240 15.760 15.239 17.630 " stroke="none" fill-rule="evenodd" fill="black"></path></svg>