<svg width="24" height="24" viewBox="0 0 24 24" fill="none" xmlns="http://www.w3.org/2000/svg"><path d="M9.697 1.282 C 7.873 1.423,6.834 2.339,6.579 4.030 C 6.541 4.285,6.520 4.733,6.520 5.324 L 6.520 6.228 5.930 6.257 C 5.212 6.292,4.785 6.363,4.361 6.517 C 3.265 6.917,2.569 7.786,2.330 9.052 C 2.267 9.382,2.260 9.741,2.260 12.500 C 2.260 15.259,2.267 15.618,2.330 15.948 C 2.478 16.729,2.787 17.342,3.267 17.803 C 3.541 18.067,3.971 18.347,4.250 18.444 C 4.333 18.473,4.400 18.506,4.400 18.518 C 4.400 18.530,3.733 19.206,2.918 20.020 C 2.103 20.834,1.398 21.561,1.352 21.636 C 1.232 21.826,1.234 22.177,1.356 22.374 C 1.532 22.658,1.839 22.783,2.189 22.712 C 2.376 22.674,2.592 22.460,12.490 12.566 C 18.342 6.717,22.628 2.403,22.665 2.324 C 22.753 2.138,22.747 1.837,22.651 1.651 C 22.608 1.568,22.499 1.448,22.408 1.383 C 22.271 1.287,22.202 1.267,22.011 1.267 C 21.884 1.267,21.735 1.290,21.680 1.318 C 21.625 1.346,20.657 2.289,19.530 3.414 L 17.480 5.459 17.480 4.939 C 17.479 2.615,16.447 1.452,14.233 1.280 C 13.657 1.235,10.286 1.237,9.697 1.282 M14.898 2.892 C 15.426 3.079,15.678 3.320,15.836 3.789 C 15.965 4.170,15.998 4.506,15.999 5.410 L 16.000 6.240 12.000 6.240 L 8.000 6.240 8.001 5.410 C 8.002 4.506,8.035 4.170,8.164 3.789 C 8.350 3.236,8.763 2.922,9.461 2.802 C 9.570 2.783,10.767 2.770,12.120 2.774 L 14.580 2.780 14.898 2.892 M19.791 6.798 C 19.448 6.907,19.240 7.174,19.240 7.507 C 19.240 7.769,19.338 7.946,19.633 8.220 C 20.016 8.574,20.237 9.126,20.239 9.728 C 20.240 9.853,20.260 10.049,20.284 10.162 C 20.447 10.921,21.551 10.924,21.723 10.167 C 21.801 9.825,21.650 8.787,21.441 8.232 C 21.263 7.756,20.682 7.048,20.314 6.857 C 20.172 6.783,19.925 6.756,19.791 6.798 M10.440 12.500 C 6.655 16.285,5.680 17.240,5.600 17.239 C 5.545 17.239,5.374 17.212,5.220 17.180 C 4.447 17.017,3.984 16.552,3.819 15.773 C 3.734 15.369,3.734 9.631,3.819 9.227 C 3.982 8.457,4.445 7.986,5.200 7.823 C 5.415 7.776,6.301 7.766,10.320 7.763 L 15.180 7.760 10.440 12.500 M6.815 10.278 C 6.331 10.393,6.098 11.004,6.383 11.408 C 6.605 11.722,6.676 11.738,7.869 11.753 C 9.122 11.768,9.296 11.744,9.519 11.521 C 9.918 11.122,9.731 10.423,9.189 10.286 C 8.983 10.235,7.025 10.228,6.815 10.278 M20.815 13.277 C 20.638 13.321,20.461 13.456,20.353 13.631 C 20.265 13.773,20.259 13.827,20.236 14.760 C 20.215 15.592,20.199 15.777,20.130 15.989 C 19.913 16.655,19.486 17.030,18.773 17.181 C 18.583 17.221,18.235 17.239,17.630 17.239 L 16.760 17.240 16.760 16.500 L 16.760 15.760 16.858 15.760 C 16.912 15.760,17.049 15.740,17.162 15.716 C 17.928 15.552,17.919 14.442,17.151 14.282 C 17.002 14.251,16.276 14.241,14.837 14.249 L 12.740 14.260 12.577 14.371 C 12.123 14.679,12.123 15.321,12.577 15.629 L 12.740 15.740 13.990 15.752 L 15.240 15.764 15.239 17.632 C 15.239 19.108,15.226 19.557,15.181 19.773 C 15.016 20.552,14.553 21.017,13.780 21.180 C 13.381 21.264,10.624 21.265,10.229 21.181 C 9.813 21.093,9.509 20.939,9.286 20.702 C 9.044 20.446,8.953 20.273,8.827 19.823 C 8.718 19.439,8.626 19.309,8.380 19.196 C 7.944 18.994,7.409 19.267,7.334 19.728 C 7.283 20.042,7.541 20.838,7.843 21.301 C 8.313 22.020,9.025 22.466,10.027 22.667 C 10.544 22.771,13.398 22.773,13.948 22.670 C 14.727 22.524,15.343 22.213,15.803 21.733 C 16.402 21.108,16.668 20.390,16.741 19.196 L 16.767 18.772 17.693 18.748 C 18.249 18.734,18.760 18.700,18.969 18.662 C 20.198 18.443,21.085 17.729,21.483 16.639 C 21.652 16.176,21.719 15.723,21.747 14.860 C 21.774 14.017,21.740 13.746,21.581 13.538 C 21.421 13.327,21.079 13.211,20.815 13.277 " stroke="none" fill-rule="evenodd" fill="black"></path></svg>