<svg width="24" height="24" viewBox="0 0 24 24" fill="none" xmlns="http://www.w3.org/2000/svg"><path d="M8.530 1.282 C 5.683 1.547,3.601 4.036,3.845 6.881 C 3.980 8.450,4.783 9.831,6.074 10.713 C 6.520 11.018,6.830 11.172,7.333 11.340 C 7.887 11.524,8.364 11.600,8.972 11.600 C 9.991 11.600,10.793 11.388,11.626 10.897 C 12.937 10.126,13.831 8.838,14.103 7.327 C 14.185 6.875,14.185 5.968,14.104 5.520 C 13.986 4.863,13.637 4.008,13.304 3.557 C 13.067 3.235,12.677 3.138,12.331 3.314 C 12.131 3.417,12.016 3.570,11.963 3.807 C 11.912 4.035,11.954 4.193,12.162 4.548 C 12.388 4.934,12.541 5.327,12.621 5.720 C 12.714 6.178,12.684 7.007,12.560 7.440 C 12.303 8.336,11.656 9.160,10.824 9.649 C 9.686 10.317,8.059 10.267,6.975 9.530 C 6.217 9.015,5.678 8.277,5.433 7.420 C 5.353 7.143,5.341 7.011,5.343 6.440 C 5.344 5.839,5.354 5.749,5.452 5.428 C 5.925 3.892,7.152 2.902,8.755 2.762 C 9.285 2.716,9.446 2.650,9.617 2.408 C 9.771 2.190,9.782 1.849,9.642 1.623 C 9.445 1.304,9.178 1.222,8.530 1.282 M16.254 3.279 C 15.764 3.393,15.523 3.945,15.776 4.377 C 15.919 4.620,16.118 4.714,16.587 4.759 C 17.373 4.835,17.785 5.025,18.323 5.560 C 18.887 6.121,19.101 6.578,19.147 7.320 C 19.178 7.838,19.093 8.276,18.875 8.719 C 18.740 8.992,18.637 9.128,18.344 9.421 C 17.783 9.981,17.341 10.181,16.530 10.239 C 15.971 10.279,15.828 10.339,15.651 10.607 C 15.569 10.731,15.547 10.813,15.547 10.997 C 15.547 11.279,15.653 11.474,15.892 11.633 C 16.046 11.734,16.078 11.740,16.497 11.733 C 17.615 11.716,18.664 11.260,19.443 10.454 C 20.245 9.624,20.640 8.641,20.640 7.479 C 20.640 5.648,19.481 4.057,17.716 3.464 C 17.280 3.318,16.509 3.220,16.254 3.279 M8.220 12.485 C 6.075 12.667,4.092 13.468,2.904 14.631 C 1.939 15.576,1.483 16.770,1.638 17.941 C 1.760 18.867,2.212 19.706,2.979 20.432 C 4.954 22.302,8.691 23.040,11.933 22.201 C 13.709 21.742,15.151 20.859,15.966 19.731 C 16.439 19.077,16.672 18.420,16.709 17.638 C 16.796 15.774,15.433 14.088,13.093 13.167 C 11.612 12.584,9.892 12.343,8.220 12.485 M18.214 13.278 C 17.714 13.397,17.482 13.943,17.742 14.387 C 17.856 14.582,18.021 14.682,18.386 14.776 C 19.118 14.966,19.767 15.327,20.205 15.787 C 20.983 16.605,20.874 17.682,19.934 18.458 C 19.512 18.806,18.998 19.049,18.227 19.263 C 17.833 19.372,17.600 19.645,17.600 19.996 C 17.600 20.201,17.659 20.352,17.793 20.494 C 18.056 20.772,18.349 20.798,19.000 20.601 C 20.670 20.097,21.867 18.960,22.145 17.613 C 22.233 17.191,22.203 16.491,22.081 16.100 C 21.676 14.805,20.487 13.807,18.798 13.344 C 18.392 13.232,18.402 13.233,18.214 13.278 M10.300 14.004 C 11.947 14.179,13.542 14.852,14.420 15.743 C 14.771 16.100,14.956 16.379,15.113 16.790 C 15.255 17.163,15.260 17.774,15.125 18.160 C 14.721 19.313,13.382 20.285,11.542 20.762 C 7.437 21.826,2.735 19.839,3.121 17.204 C 3.281 16.111,4.344 15.091,5.937 14.501 C 7.272 14.006,8.739 13.839,10.300 14.004 " stroke="none" fill-rule="evenodd" fill="black"></path></svg>