<svg width="24" height="24" viewBox="0 0 24 24" fill="none" xmlns="http://www.w3.org/2000/svg"><path d="M11.560 1.267 C 10.326 1.322,9.152 1.571,8.041 2.012 C 7.427 2.256,7.240 2.454,7.240 2.860 C 7.240 3.229,7.525 3.548,7.892 3.589 C 8.032 3.605,8.152 3.574,8.523 3.428 C 9.718 2.955,10.735 2.760,12.006 2.760 C 13.464 2.760,14.754 3.058,16.060 3.698 C 17.024 4.170,17.648 4.611,18.434 5.378 C 19.273 6.195,19.814 6.937,20.303 7.940 C 20.944 9.253,21.240 10.537,21.240 12.000 C 21.240 13.465,20.943 14.752,20.302 16.060 C 19.830 17.024,19.389 17.648,18.622 18.434 C 17.805 19.273,17.063 19.814,16.060 20.303 C 14.747 20.944,13.463 21.240,12.000 21.240 C 10.537 21.240,9.253 20.944,7.940 20.303 C 6.937 19.814,6.195 19.273,5.378 18.434 C 4.611 17.648,4.170 17.024,3.698 16.060 C 3.058 14.754,2.760 13.464,2.760 12.005 C 2.760 10.060,3.331 8.256,4.457 6.648 C 4.701 6.298,4.770 6.095,4.724 5.855 C 4.656 5.497,4.372 5.267,4.000 5.267 C 3.678 5.267,3.534 5.369,3.222 5.816 C 1.432 8.383,0.834 11.537,1.564 14.550 C 1.904 15.951,2.529 17.268,3.424 18.470 C 3.880 19.083,4.909 20.111,5.530 20.575 C 7.606 22.126,10.070 22.870,12.627 22.717 C 14.790 22.588,16.724 21.879,18.470 20.575 C 19.087 20.115,20.115 19.087,20.575 18.470 C 22.127 16.391,22.870 13.930,22.717 11.373 C 22.588 9.210,21.879 7.276,20.575 5.530 C 20.115 4.913,19.087 3.885,18.470 3.425 C 17.047 2.362,15.454 1.679,13.742 1.398 C 13.325 1.330,12.055 1.227,11.880 1.248 C 11.847 1.252,11.703 1.261,11.560 1.267 M7.640 7.293 C 7.325 7.381,7.070 7.533,6.821 7.780 C 6.323 8.273,6.241 8.575,6.241 9.920 C 6.241 10.945,6.275 11.195,6.465 11.570 C 6.617 11.870,7.005 12.240,7.327 12.394 C 7.683 12.564,7.979 12.597,9.136 12.599 L 10.092 12.600 10.065 12.944 C 10.007 13.702,9.833 14.221,9.519 14.573 C 9.422 14.683,9.100 14.930,8.780 15.141 C 8.468 15.346,8.180 15.565,8.139 15.627 C 8.060 15.748,8.014 16.092,8.056 16.257 C 8.091 16.399,8.314 16.642,8.468 16.706 C 8.660 16.786,8.938 16.773,9.132 16.674 C 9.224 16.627,9.471 16.477,9.680 16.342 C 10.714 15.671,11.184 15.030,11.422 13.965 C 11.567 13.312,11.599 12.736,11.600 10.738 C 11.600 8.709,11.592 8.625,11.353 8.208 C 11.169 7.886,10.838 7.582,10.484 7.409 L 10.180 7.260 9.000 7.251 C 8.150 7.245,7.770 7.257,7.640 7.293 M13.712 7.317 C 13.586 7.357,13.406 7.436,13.311 7.491 C 13.100 7.615,12.771 7.958,12.631 8.200 C 12.422 8.562,12.400 8.722,12.400 9.903 C 12.400 10.872,12.409 11.019,12.479 11.246 C 12.634 11.749,12.975 12.145,13.453 12.379 C 13.835 12.566,14.099 12.598,15.273 12.599 L 16.246 12.600 16.221 12.830 C 16.071 14.204,15.894 14.513,14.880 15.172 C 14.370 15.502,14.311 15.557,14.222 15.770 C 14.138 15.971,14.144 16.142,14.244 16.348 C 14.371 16.610,14.558 16.734,14.855 16.752 C 15.139 16.769,15.247 16.721,15.897 16.290 C 17.038 15.533,17.508 14.740,17.681 13.280 C 17.747 12.723,17.782 9.342,17.726 8.927 C 17.649 8.358,17.390 7.929,16.908 7.574 C 16.494 7.270,16.326 7.240,15.046 7.242 C 14.090 7.244,13.909 7.254,13.712 7.317 M9.881 8.781 C 10.105 8.897,10.120 8.976,10.120 10.078 L 10.120 11.080 9.065 11.080 C 7.640 11.080,7.705 11.141,7.727 9.818 C 7.738 9.126,7.750 9.001,7.812 8.906 C 7.852 8.845,7.924 8.780,7.972 8.760 C 8.021 8.741,8.443 8.724,8.912 8.723 C 9.599 8.720,9.787 8.732,9.881 8.781 M16.104 8.856 L 16.240 8.992 16.240 10.036 L 16.240 11.080 15.197 11.080 C 14.559 11.080,14.125 11.064,14.078 11.039 C 13.902 10.945,13.880 10.816,13.880 9.878 L 13.880 8.992 14.016 8.856 L 14.152 8.720 15.060 8.720 L 15.968 8.720 16.104 8.856 " stroke="none" fill-rule="evenodd" fill="black"></path></svg>