<svg width="24" height="24" viewBox="0 0 24 24" fill="none" xmlns="http://www.w3.org/2000/svg"><path d="M11.560 1.267 C 10.326 1.322,9.152 1.571,8.041 2.012 C 7.427 2.256,7.240 2.454,7.240 2.860 C 7.240 3.229,7.525 3.548,7.892 3.589 C 8.032 3.605,8.152 3.574,8.523 3.428 C 9.718 2.955,10.735 2.760,12.006 2.760 C 13.464 2.760,14.754 3.058,16.060 3.698 C 17.024 4.170,17.648 4.611,18.434 5.378 C 19.273 6.195,19.814 6.937,20.303 7.940 C 20.944 9.253,21.240 10.537,21.240 12.000 C 21.240 13.465,20.943 14.752,20.302 16.060 C 19.830 17.024,19.389 17.648,18.622 18.434 C 17.805 19.273,17.063 19.814,16.060 20.303 C 14.747 20.944,13.463 21.240,12.000 21.240 C 10.537 21.240,9.253 20.944,7.940 20.303 C 6.937 19.814,6.195 19.273,5.378 18.434 C 4.611 17.648,4.170 17.024,3.698 16.060 C 3.058 14.754,2.760 13.464,2.760 12.005 C 2.760 10.060,3.331 8.256,4.457 6.648 C 4.701 6.298,4.770 6.095,4.724 5.855 C 4.656 5.497,4.372 5.267,4.000 5.267 C 3.678 5.267,3.534 5.369,3.222 5.816 C 1.432 8.383,0.834 11.537,1.564 14.550 C 1.904 15.951,2.529 17.268,3.424 18.470 C 3.880 19.083,4.909 20.111,5.530 20.575 C 7.606 22.126,10.070 22.870,12.627 22.717 C 14.790 22.588,16.724 21.879,18.470 20.575 C 19.087 20.115,20.115 19.087,20.575 18.470 C 22.127 16.391,22.870 13.930,22.717 11.373 C 22.588 9.210,21.879 7.276,20.575 5.530 C 20.115 4.913,19.087 3.885,18.470 3.425 C 17.047 2.362,15.454 1.679,13.742 1.398 C 13.325 1.330,12.055 1.227,11.880 1.248 C 11.847 1.252,11.703 1.261,11.560 1.267 M8.696 7.344 C 8.288 7.560,7.716 7.964,7.422 8.243 C 6.766 8.867,6.457 9.561,6.319 10.720 C 6.253 11.277,6.218 14.658,6.274 15.073 C 6.351 15.642,6.610 16.071,7.092 16.426 C 7.504 16.729,7.677 16.760,8.937 16.760 C 10.088 16.760,10.246 16.740,10.617 16.551 C 10.826 16.445,11.168 16.118,11.323 15.875 C 11.574 15.485,11.600 15.316,11.600 14.101 C 11.600 13.120,11.592 12.982,11.520 12.748 C 11.346 12.187,10.881 11.708,10.322 11.516 C 10.080 11.432,9.974 11.424,8.908 11.409 L 7.755 11.392 7.780 11.166 C 7.929 9.795,8.106 9.486,9.126 8.825 C 9.382 8.659,9.629 8.476,9.674 8.419 C 9.877 8.161,9.880 7.803,9.683 7.530 C 9.463 7.227,9.060 7.151,8.696 7.344 M14.860 7.328 C 14.772 7.374,14.529 7.523,14.320 7.658 C 13.286 8.329,12.816 8.970,12.578 10.035 C 12.433 10.688,12.401 11.264,12.400 13.262 C 12.400 14.791,12.410 15.143,12.462 15.339 C 12.625 15.969,13.132 16.491,13.766 16.684 C 14.012 16.759,14.120 16.765,15.186 16.753 L 16.340 16.740 16.652 16.591 C 17.199 16.330,17.581 15.856,17.701 15.291 C 17.783 14.906,17.782 13.237,17.700 12.889 C 17.522 12.137,16.889 11.550,16.136 11.441 C 15.984 11.420,15.421 11.401,14.884 11.401 L 13.908 11.400 13.935 11.056 C 13.993 10.298,14.167 9.779,14.481 9.427 C 14.578 9.317,14.900 9.070,15.220 8.859 C 15.532 8.654,15.820 8.435,15.861 8.373 C 15.940 8.252,15.986 7.908,15.944 7.743 C 15.909 7.601,15.686 7.358,15.532 7.294 C 15.342 7.215,15.047 7.230,14.860 7.328 M9.922 12.961 C 10.098 13.055,10.120 13.184,10.120 14.122 L 10.120 15.008 9.984 15.144 L 9.848 15.280 8.940 15.280 L 8.032 15.280 7.896 15.144 L 7.760 15.008 7.760 13.964 L 7.760 12.920 8.803 12.920 C 9.441 12.920,9.875 12.936,9.922 12.961 M16.075 12.985 C 16.253 13.110,16.280 13.258,16.280 14.109 C 16.280 14.782,16.269 14.921,16.210 15.039 C 16.097 15.265,16.033 15.279,15.088 15.279 C 13.820 15.280,13.880 15.348,13.880 13.922 L 13.880 12.920 14.931 12.920 C 15.838 12.920,15.995 12.929,16.075 12.985 " stroke="none" fill-rule="evenodd" fill="black"></path></svg>