<svg width="24" height="24" viewBox="0 0 24 24" fill="none" xmlns="http://www.w3.org/2000/svg"><path d="M8.080 1.282 C 4.042 1.493,1.931 3.265,1.398 6.891 C 1.310 7.494,1.225 8.895,1.264 9.113 C 1.278 9.194,1.325 9.318,1.368 9.389 C 1.658 9.870,2.422 9.836,2.661 9.332 C 2.718 9.212,2.740 9.022,2.765 8.423 C 2.900 5.187,3.905 3.654,6.288 3.044 C 7.337 2.776,7.247 2.780,12.000 2.780 C 15.936 2.780,16.339 2.786,16.760 2.852 C 19.558 3.288,20.712 4.442,21.148 7.240 C 21.214 7.661,21.220 8.064,21.220 12.000 C 21.220 15.936,21.214 16.339,21.148 16.760 C 20.712 19.558,19.558 20.712,16.760 21.148 C 16.339 21.214,15.936 21.220,12.000 21.220 C 8.064 21.220,7.661 21.214,7.240 21.148 C 4.756 20.761,3.576 19.795,3.044 17.712 C 2.817 16.822,2.789 16.504,2.764 14.480 C 2.738 12.466,2.743 12.506,2.513 12.292 C 2.391 12.177,2.155 12.080,2.000 12.080 C 1.745 12.080,1.460 12.258,1.326 12.500 C 1.179 12.767,1.229 15.956,1.398 17.107 C 1.885 20.415,3.654 22.148,7.027 22.622 C 7.786 22.728,8.902 22.759,12.000 22.759 C 15.098 22.759,16.214 22.728,16.973 22.622 C 19.443 22.275,20.996 21.288,21.897 19.490 C 22.379 18.530,22.638 17.369,22.720 15.807 C 22.771 14.838,22.771 9.162,22.720 8.193 C 22.657 6.998,22.521 6.191,22.242 5.356 C 21.632 3.531,20.469 2.367,18.650 1.760 C 17.788 1.473,17.023 1.344,15.806 1.280 C 14.952 1.235,8.952 1.237,8.080 1.282 M7.640 7.293 C 7.325 7.381,7.070 7.533,6.821 7.780 C 6.323 8.273,6.241 8.575,6.241 9.920 C 6.241 10.945,6.275 11.195,6.465 11.570 C 6.617 11.870,7.005 12.240,7.327 12.394 C 7.683 12.564,7.979 12.597,9.136 12.599 L 10.092 12.600 10.065 12.944 C 10.007 13.702,9.833 14.221,9.519 14.573 C 9.422 14.683,9.100 14.930,8.780 15.141 C 8.468 15.346,8.180 15.565,8.139 15.627 C 8.060 15.748,8.014 16.092,8.056 16.257 C 8.091 16.399,8.314 16.642,8.468 16.706 C 8.660 16.786,8.938 16.773,9.132 16.674 C 9.224 16.627,9.471 16.477,9.680 16.342 C 10.714 15.671,11.184 15.030,11.422 13.965 C 11.567 13.312,11.599 12.736,11.600 10.738 C 11.600 8.709,11.592 8.625,11.353 8.208 C 11.169 7.886,10.838 7.582,10.484 7.409 L 10.180 7.260 9.000 7.251 C 8.150 7.245,7.770 7.257,7.640 7.293 M13.712 7.317 C 13.586 7.357,13.406 7.436,13.311 7.491 C 13.100 7.615,12.771 7.958,12.631 8.200 C 12.422 8.562,12.400 8.722,12.400 9.903 C 12.400 10.872,12.409 11.019,12.479 11.246 C 12.634 11.749,12.975 12.145,13.453 12.379 C 13.835 12.566,14.099 12.598,15.273 12.599 L 16.246 12.600 16.221 12.830 C 16.071 14.204,15.894 14.513,14.880 15.172 C 14.370 15.502,14.311 15.557,14.222 15.770 C 14.138 15.971,14.144 16.142,14.244 16.348 C 14.371 16.610,14.558 16.734,14.855 16.752 C 15.139 16.769,15.247 16.721,15.897 16.290 C 17.038 15.533,17.508 14.740,17.681 13.280 C 17.747 12.723,17.782 9.342,17.726 8.927 C 17.649 8.358,17.390 7.929,16.908 7.574 C 16.494 7.270,16.326 7.240,15.046 7.242 C 14.090 7.244,13.909 7.254,13.712 7.317 M9.881 8.781 C 10.105 8.897,10.120 8.976,10.120 10.078 L 10.120 11.080 9.065 11.080 C 7.640 11.080,7.705 11.141,7.727 9.818 C 7.738 9.126,7.750 9.001,7.812 8.906 C 7.852 8.845,7.924 8.780,7.972 8.760 C 8.021 8.741,8.443 8.724,8.912 8.723 C 9.599 8.720,9.787 8.732,9.881 8.781 M16.104 8.856 L 16.240 8.992 16.240 10.036 L 16.240 11.080 15.197 11.080 C 14.559 11.080,14.125 11.064,14.078 11.039 C 13.902 10.945,13.880 10.816,13.880 9.878 L 13.880 8.992 14.016 8.856 L 14.152 8.720 15.060 8.720 L 15.968 8.720 16.104 8.856 " stroke="none" fill-rule="evenodd" fill="black"></path></svg>