<svg width="24" height="24" viewBox="0 0 24 24" fill="none" xmlns="http://www.w3.org/2000/svg"><path d="M8.080 1.282 C 4.042 1.493,1.931 3.265,1.398 6.891 C 1.310 7.494,1.225 8.895,1.264 9.113 C 1.278 9.194,1.325 9.318,1.368 9.389 C 1.658 9.870,2.422 9.836,2.661 9.332 C 2.718 9.212,2.740 9.022,2.765 8.423 C 2.900 5.187,3.905 3.654,6.288 3.044 C 7.337 2.776,7.247 2.780,12.000 2.780 C 15.936 2.780,16.339 2.786,16.760 2.852 C 19.558 3.288,20.712 4.442,21.148 7.240 C 21.214 7.661,21.220 8.064,21.220 12.000 C 21.220 15.936,21.214 16.339,21.148 16.760 C 20.712 19.558,19.558 20.712,16.760 21.148 C 16.339 21.214,15.936 21.220,12.000 21.220 C 8.064 21.220,7.661 21.214,7.240 21.148 C 4.756 20.761,3.576 19.795,3.044 17.712 C 2.817 16.822,2.789 16.504,2.764 14.480 C 2.738 12.466,2.743 12.506,2.513 12.292 C 2.391 12.177,2.155 12.080,2.000 12.080 C 1.745 12.080,1.460 12.258,1.326 12.500 C 1.179 12.767,1.229 15.956,1.398 17.107 C 1.885 20.415,3.654 22.148,7.027 22.622 C 7.786 22.728,8.902 22.759,12.000 22.759 C 15.098 22.759,16.214 22.728,16.973 22.622 C 19.443 22.275,20.996 21.288,21.897 19.490 C 22.379 18.530,22.638 17.369,22.720 15.807 C 22.771 14.838,22.771 9.162,22.720 8.193 C 22.657 6.998,22.521 6.191,22.242 5.356 C 21.632 3.531,20.469 2.367,18.650 1.760 C 17.788 1.473,17.023 1.344,15.806 1.280 C 14.952 1.235,8.952 1.237,8.080 1.282 M8.696 7.344 C 8.288 7.560,7.716 7.964,7.422 8.243 C 6.766 8.867,6.457 9.561,6.319 10.720 C 6.253 11.277,6.218 14.658,6.274 15.073 C 6.351 15.642,6.610 16.071,7.092 16.426 C 7.504 16.729,7.677 16.760,8.937 16.760 C 10.088 16.760,10.246 16.740,10.617 16.551 C 10.826 16.445,11.168 16.118,11.323 15.875 C 11.574 15.485,11.600 15.316,11.600 14.101 C 11.600 13.120,11.592 12.982,11.520 12.748 C 11.346 12.187,10.881 11.708,10.322 11.516 C 10.080 11.432,9.974 11.424,8.908 11.409 L 7.755 11.392 7.780 11.166 C 7.929 9.795,8.106 9.486,9.126 8.825 C 9.382 8.659,9.629 8.476,9.674 8.419 C 9.877 8.161,9.880 7.803,9.683 7.530 C 9.463 7.227,9.060 7.151,8.696 7.344 M14.860 7.328 C 14.772 7.374,14.529 7.523,14.320 7.658 C 13.286 8.329,12.816 8.970,12.578 10.035 C 12.433 10.688,12.401 11.264,12.400 13.262 C 12.400 14.791,12.410 15.143,12.462 15.339 C 12.625 15.969,13.132 16.491,13.766 16.684 C 14.012 16.759,14.120 16.765,15.186 16.753 L 16.340 16.740 16.652 16.591 C 17.199 16.330,17.581 15.856,17.701 15.291 C 17.783 14.906,17.782 13.237,17.700 12.889 C 17.522 12.137,16.889 11.550,16.136 11.441 C 15.984 11.420,15.421 11.401,14.884 11.401 L 13.908 11.400 13.935 11.056 C 13.993 10.298,14.167 9.779,14.481 9.427 C 14.578 9.317,14.900 9.070,15.220 8.859 C 15.532 8.654,15.820 8.435,15.861 8.373 C 15.940 8.252,15.986 7.908,15.944 7.743 C 15.909 7.601,15.686 7.358,15.532 7.294 C 15.342 7.215,15.047 7.230,14.860 7.328 M9.922 12.961 C 10.098 13.055,10.120 13.184,10.120 14.122 L 10.120 15.008 9.984 15.144 L 9.848 15.280 8.940 15.280 L 8.032 15.280 7.896 15.144 L 7.760 15.008 7.760 13.964 L 7.760 12.920 8.803 12.920 C 9.441 12.920,9.875 12.936,9.922 12.961 M16.075 12.985 C 16.253 13.110,16.280 13.258,16.280 14.109 C 16.280 14.782,16.269 14.921,16.210 15.039 C 16.097 15.265,16.033 15.279,15.088 15.279 C 13.820 15.280,13.880 15.348,13.880 13.922 L 13.880 12.920 14.931 12.920 C 15.838 12.920,15.995 12.929,16.075 12.985 " stroke="none" fill-rule="evenodd" fill="black"></path></svg>