<svg width="47" height="46" viewBox="0 0 47 46" fill="none" xmlns="http://www.w3.org/2000/svg"><path d="M2.545 0.687 C 1.282 1.131,0.501 2.058,0.317 3.332 C 0.215 4.038,0.215 6.851,0.317 7.557 C 0.533 9.054,1.639 10.146,3.133 10.338 C 3.456 10.379,4.828 10.415,6.180 10.416 L 8.640 10.418 8.586 11.446 C 8.457 13.884,8.003 15.253,6.987 16.270 C 6.714 16.543,6.061 17.044,5.536 17.383 C 4.267 18.204,4.152 18.316,4.152 18.720 C 4.152 19.151,4.417 19.427,4.830 19.427 C 5.052 19.427,5.297 19.318,5.832 18.981 C 8.311 17.421,9.185 16.353,9.703 14.248 C 10.039 12.880,10.066 12.396,10.066 7.594 L 10.066 3.008 9.774 2.417 C 9.417 1.695,8.896 1.184,8.164 0.837 L 7.638 0.588 5.288 0.568 C 3.213 0.551,2.892 0.565,2.545 0.687 M14.296 0.662 C 12.939 1.037,11.907 2.350,11.907 3.699 C 11.907 4.142,12.063 4.422,12.369 4.529 C 12.909 4.717,13.292 4.407,13.392 3.702 C 13.499 2.947,13.834 2.468,14.453 2.184 C 14.730 2.056,14.995 2.040,16.785 2.038 C 19.016 2.036,19.160 2.061,19.649 2.530 C 19.793 2.668,19.987 2.922,20.080 3.094 C 20.244 3.398,20.249 3.488,20.249 6.149 L 20.249 8.891 17.547 8.891 C 14.430 8.891,14.430 8.891,13.810 8.256 C 13.587 8.026,13.313 7.816,13.202 7.788 C 12.712 7.665,12.237 8.147,12.334 8.667 C 12.404 9.037,13.152 9.783,13.722 10.052 C 14.379 10.361,14.977 10.415,17.742 10.417 L 20.249 10.418 20.192 11.553 C 20.161 12.178,20.061 13.049,19.972 13.490 C 19.574 15.442,18.873 16.353,16.764 17.658 C 15.883 18.203,15.745 18.354,15.745 18.772 C 15.745 19.061,16.142 19.427,16.457 19.427 C 16.934 19.427,18.815 18.179,19.709 17.270 C 20.778 16.183,21.334 14.850,21.586 12.768 C 21.745 11.464,21.836 4.586,21.709 3.564 C 21.551 2.291,20.897 1.377,19.760 0.838 L 19.231 0.588 16.959 0.570 C 15.222 0.557,14.595 0.579,14.296 0.662 M7.503 2.158 C 7.888 2.319,8.288 2.707,8.468 3.094 C 8.601 3.380,8.613 3.646,8.615 6.174 L 8.617 8.941 5.855 8.916 C 2.777 8.888,2.809 8.893,2.238 8.322 C 1.763 7.847,1.707 7.508,1.737 5.266 C 1.761 3.458,1.774 3.308,1.932 3.016 C 2.143 2.625,2.464 2.316,2.820 2.162 C 3.228 1.985,7.081 1.982,7.503 2.158 " stroke="none" fill-rule="evenodd" fill="black"></path></svg>