<svg width="24" height="24" viewBox="0 0 24 24" fill="none" xmlns="http://www.w3.org/2000/svg"><path d="M6.373 2.558 C 6.143 2.613,5.012 3.310,4.261 3.860 C 2.773 4.949,1.953 6.241,1.583 8.080 C 1.313 9.425,1.275 10.154,1.252 14.500 C 1.230 18.655,1.232 18.697,1.461 19.308 C 1.850 20.342,2.756 21.126,3.865 21.386 C 4.150 21.453,4.377 21.460,6.220 21.459 C 7.981 21.459,8.299 21.450,8.547 21.392 C 9.145 21.253,9.605 21.012,10.047 20.604 C 10.719 19.985,11.081 19.195,11.094 18.317 C 11.100 17.912,11.095 17.887,10.986 17.728 C 10.683 17.292,10.026 17.298,9.736 17.741 C 9.701 17.794,9.648 18.024,9.618 18.253 C 9.537 18.868,9.413 19.140,9.054 19.488 C 8.947 19.591,8.734 19.735,8.580 19.808 L 8.300 19.940 6.200 19.940 L 4.100 19.940 3.831 19.813 C 3.368 19.593,3.013 19.203,2.835 18.720 L 2.740 18.460 2.740 15.780 L 2.740 13.100 5.440 13.100 L 8.140 13.100 8.423 13.193 C 8.767 13.305,9.033 13.501,9.279 13.820 C 9.471 14.070,9.730 14.240,9.918 14.240 C 10.207 14.239,10.503 14.067,10.627 13.826 C 10.711 13.665,10.712 13.333,10.631 13.178 C 10.307 12.564,9.576 11.988,8.833 11.762 C 8.351 11.615,8.022 11.600,5.357 11.600 L 2.760 11.600 2.760 11.270 C 2.761 10.473,2.876 9.278,3.026 8.501 C 3.394 6.596,4.086 5.686,6.147 4.395 C 6.441 4.211,6.766 4.006,6.869 3.940 C 7.100 3.792,7.228 3.610,7.263 3.375 C 7.315 3.027,7.073 2.657,6.731 2.562 C 6.563 2.516,6.553 2.516,6.373 2.558 M17.967 2.564 C 17.673 2.652,16.049 3.709,15.480 4.183 C 14.058 5.368,13.361 6.753,13.064 8.980 C 12.915 10.095,12.900 10.624,12.900 14.700 L 12.900 18.700 13.010 19.052 C 13.195 19.641,13.439 20.054,13.850 20.475 C 14.257 20.890,14.710 21.162,15.308 21.349 L 15.660 21.459 17.840 21.459 C 19.976 21.459,20.026 21.457,20.338 21.369 C 21.462 21.052,22.330 20.181,22.652 19.048 C 22.737 18.748,22.739 18.681,22.739 16.540 C 22.739 14.399,22.737 14.332,22.652 14.032 C 22.330 12.899,21.461 12.027,20.338 11.711 C 20.025 11.624,19.975 11.622,17.204 11.609 L 14.387 11.596 14.414 10.848 C 14.465 9.372,14.649 8.202,14.961 7.367 C 15.420 6.138,16.146 5.396,18.024 4.237 C 18.386 4.013,18.715 3.783,18.757 3.725 C 18.863 3.576,18.928 3.303,18.897 3.139 C 18.822 2.738,18.354 2.449,17.967 2.564 M20.026 13.172 C 20.542 13.345,20.986 13.788,21.167 14.310 C 21.259 14.579,21.260 14.591,21.260 16.540 C 21.260 18.490,21.260 18.501,21.167 18.771 C 21.044 19.126,20.777 19.475,20.474 19.678 C 20.031 19.973,20.034 19.973,18.063 19.990 C 16.954 20.000,16.190 19.990,15.990 19.963 C 15.558 19.905,15.239 19.746,14.926 19.434 C 14.628 19.135,14.458 18.805,14.401 18.416 C 14.356 18.101,14.344 13.149,14.389 13.105 C 14.404 13.089,15.633 13.082,17.119 13.089 C 19.546 13.102,19.841 13.110,20.026 13.172 " stroke="none" fill-rule="evenodd" fill="black"></path></svg>