<svg width="24" height="24" viewBox="0 0 24 24" fill="none" xmlns="http://www.w3.org/2000/svg"><path d="M3.819 5.276 C 3.753 5.293,3.649 5.338,3.589 5.378 C 3.320 5.554,2.396 7.036,2.280 7.477 C 2.144 7.992,2.654 8.495,3.172 8.357 C 3.446 8.284,3.570 8.158,3.803 7.713 C 3.922 7.486,4.168 7.079,4.348 6.810 C 4.706 6.277,4.772 6.108,4.724 5.855 C 4.646 5.447,4.224 5.176,3.819 5.276 M19.815 5.277 C 19.431 5.371,19.180 5.790,19.282 6.169 C 19.306 6.255,19.472 6.545,19.652 6.813 C 20.713 8.390,21.240 10.112,21.240 12.000 C 21.240 13.888,20.713 15.610,19.652 17.187 C 19.472 17.455,19.305 17.746,19.282 17.834 C 19.200 18.137,19.340 18.467,19.626 18.644 C 19.827 18.768,20.173 18.768,20.373 18.644 C 20.628 18.487,21.329 17.415,21.704 16.610 C 22.408 15.102,22.725 13.669,22.725 12.000 C 22.725 10.331,22.408 8.898,21.704 7.390 C 21.340 6.608,20.627 5.511,20.389 5.367 C 20.235 5.273,19.988 5.235,19.815 5.277 M7.019 7.676 C 6.953 7.693,6.849 7.739,6.788 7.778 C 6.515 7.957,5.877 9.060,5.626 9.786 C 5.143 11.182,5.144 12.819,5.627 14.216 C 5.894 14.991,6.526 16.058,6.826 16.244 C 7.027 16.368,7.373 16.368,7.574 16.244 C 7.857 16.069,7.996 15.736,7.916 15.428 C 7.894 15.345,7.760 15.099,7.617 14.882 C 7.027 13.981,6.760 13.083,6.760 12.000 C 6.760 10.917,7.027 10.019,7.617 9.118 C 7.906 8.677,7.970 8.498,7.924 8.255 C 7.846 7.847,7.424 7.576,7.019 7.676 M16.619 7.676 C 16.231 7.772,15.984 8.186,16.084 8.572 C 16.106 8.655,16.240 8.901,16.383 9.118 C 16.973 10.019,17.240 10.917,17.240 12.000 C 17.240 13.083,16.973 13.981,16.383 14.882 C 16.094 15.323,16.030 15.502,16.076 15.745 C 16.144 16.104,16.427 16.333,16.803 16.333 C 16.987 16.333,17.069 16.311,17.195 16.228 C 17.505 16.023,18.158 14.890,18.414 14.113 C 18.840 12.819,18.840 11.181,18.414 9.887 C 18.164 9.127,17.500 7.971,17.203 7.779 C 17.041 7.675,16.798 7.632,16.619 7.676 M11.660 9.277 C 10.784 9.386,10.031 9.901,9.580 10.700 C 9.162 11.441,9.162 12.558,9.580 13.300 C 10.097 14.217,10.965 14.731,12.000 14.731 C 13.035 14.731,13.906 14.216,14.419 13.300 C 14.663 12.865,14.794 12.207,14.713 11.826 C 14.607 11.327,13.989 11.095,13.566 11.396 C 13.378 11.530,13.288 11.712,13.247 12.045 C 13.198 12.437,13.098 12.656,12.861 12.889 C 12.085 13.653,10.760 13.092,10.760 12.000 C 10.760 11.658,10.880 11.371,11.126 11.126 C 11.330 10.921,11.654 10.760,11.860 10.760 C 12.446 10.760,12.828 10.343,12.713 9.829 C 12.615 9.392,12.255 9.203,11.660 9.277 M1.721 10.703 C 1.536 10.784,1.448 10.868,1.349 11.060 C 1.275 11.206,1.268 11.288,1.271 12.000 C 1.282 14.297,1.925 16.345,3.209 18.167 C 3.538 18.634,3.677 18.733,4.000 18.733 C 4.372 18.733,4.656 18.503,4.724 18.145 C 4.772 17.890,4.703 17.715,4.339 17.175 C 3.738 16.283,3.233 15.137,2.997 14.129 C 2.842 13.464,2.792 13.020,2.766 12.077 L 2.740 11.134 2.627 10.964 C 2.437 10.676,2.044 10.563,1.721 10.703 " stroke="none" fill-rule="evenodd" fill="black"></path></svg>