<svg width="24" height="24" viewBox="0 0 24 24" fill="none" xmlns="http://www.w3.org/2000/svg"><path d="M11.400 1.280 C 9.368 1.398,7.501 2.047,5.816 3.222 C 5.382 3.525,5.270 3.677,5.266 3.975 C 5.262 4.241,5.375 4.463,5.592 4.617 C 5.731 4.715,5.796 4.733,6.000 4.733 C 6.236 4.733,6.255 4.725,6.691 4.431 C 7.469 3.908,7.936 3.659,8.659 3.380 C 9.874 2.912,10.932 2.734,12.268 2.771 C 13.800 2.814,14.848 3.086,16.271 3.809 C 17.036 4.197,17.160 4.225,17.463 4.079 C 17.713 3.958,17.857 3.727,17.859 3.445 C 17.861 2.990,17.691 2.830,16.658 2.324 C 15.500 1.756,14.093 1.374,12.899 1.302 C 12.112 1.255,11.893 1.251,11.400 1.280 M11.420 5.282 C 10.504 5.355,9.238 5.739,8.926 6.040 C 8.611 6.343,8.667 6.938,9.032 7.180 C 9.293 7.352,9.490 7.352,9.924 7.178 C 10.393 6.990,10.839 6.866,11.282 6.800 C 11.712 6.736,12.664 6.768,13.080 6.860 C 14.079 7.081,14.975 7.572,15.701 8.299 C 16.439 9.036,16.925 9.932,17.147 10.961 C 17.250 11.438,17.250 12.562,17.147 13.039 C 16.925 14.068,16.439 14.964,15.701 15.701 C 14.964 16.439,14.068 16.925,13.039 17.147 C 12.563 17.250,11.438 17.250,10.960 17.147 C 9.357 16.804,8.018 15.765,7.290 14.300 C 6.943 13.603,6.801 13.021,6.772 12.172 C 6.755 11.704,6.766 11.470,6.819 11.152 C 6.891 10.719,7.057 10.139,7.119 10.101 C 7.139 10.088,8.172 10.663,9.415 11.377 C 10.658 12.091,11.748 12.695,11.836 12.719 C 12.192 12.815,12.603 12.574,12.714 12.205 C 12.780 11.983,12.720 11.703,12.567 11.525 C 12.499 11.446,11.560 10.883,10.000 9.988 C 8.647 9.211,7.455 8.511,7.352 8.432 C 7.248 8.352,7.096 8.265,7.013 8.238 C 6.930 8.210,6.125 7.764,5.224 7.247 C 3.777 6.415,3.563 6.304,3.380 6.288 C 3.131 6.268,2.896 6.372,2.746 6.570 C 2.612 6.746,2.162 7.656,1.989 8.100 C 1.574 9.166,1.350 10.207,1.283 11.386 C 1.138 13.961,1.870 16.384,3.424 18.470 C 3.880 19.083,4.909 20.111,5.530 20.575 C 7.606 22.126,10.070 22.870,12.627 22.717 C 14.790 22.588,16.724 21.879,18.470 20.575 C 19.087 20.115,20.115 19.087,20.575 18.470 C 22.386 16.045,23.097 13.058,22.574 10.080 C 22.392 9.044,22.006 7.921,21.532 7.045 C 21.272 6.565,20.970 6.081,20.845 5.945 C 20.574 5.649,20.125 5.645,19.806 5.935 C 19.658 6.069,19.589 6.241,19.589 6.469 C 19.589 6.660,19.616 6.725,19.872 7.150 C 20.815 8.710,21.240 10.220,21.240 12.007 C 21.240 13.464,20.942 14.754,20.302 16.060 C 19.830 17.024,19.389 17.648,18.622 18.434 C 17.805 19.273,17.063 19.814,16.060 20.303 C 14.747 20.944,13.463 21.240,12.000 21.240 C 10.537 21.240,9.253 20.944,7.940 20.303 C 6.937 19.814,6.195 19.273,5.378 18.434 C 4.611 17.648,4.170 17.024,3.698 16.060 C 3.062 14.760,2.759 13.459,2.761 12.028 C 2.762 10.957,2.894 10.086,3.195 9.171 C 3.369 8.643,3.601 8.080,3.646 8.080 C 3.670 8.080,5.756 9.264,5.790 9.297 C 5.795 9.302,5.730 9.503,5.644 9.743 C 5.155 11.116,5.141 12.766,5.607 14.140 C 6.486 16.731,8.811 18.529,11.527 18.717 C 15.619 19.002,19.002 15.619,18.717 11.527 C 18.604 9.890,17.925 8.401,16.762 7.238 C 15.351 5.828,13.426 5.123,11.420 5.282 " stroke="none" fill-rule="evenodd" fill="black"></path></svg>