<svg width="24" height="24" viewBox="0 0 24 24" fill="none" xmlns="http://www.w3.org/2000/svg"><path d="M11.400 1.280 C 9.368 1.398,7.501 2.047,5.816 3.222 C 5.382 3.525,5.270 3.677,5.266 3.975 C 5.262 4.241,5.375 4.463,5.592 4.617 C 5.731 4.715,5.796 4.733,6.000 4.733 C 6.236 4.733,6.255 4.725,6.691 4.431 C 7.469 3.908,7.936 3.659,8.659 3.380 C 9.889 2.906,10.933 2.733,12.309 2.773 C 13.952 2.820,15.222 3.184,16.680 4.023 C 17.050 4.236,17.255 4.276,17.499 4.183 C 17.949 4.011,18.130 3.464,17.866 3.073 C 17.664 2.772,16.217 2.042,15.240 1.748 C 13.961 1.362,12.678 1.206,11.400 1.280 M20.020 5.786 C 19.680 5.966,19.522 6.276,19.599 6.614 C 19.617 6.697,19.752 6.960,19.898 7.199 C 20.799 8.678,21.240 10.255,21.240 12.000 C 21.240 13.463,20.944 14.747,20.303 16.060 C 19.814 17.063,19.273 17.805,18.434 18.622 C 17.648 19.389,17.024 19.830,16.060 20.302 C 14.752 20.943,13.465 21.240,12.000 21.240 C 9.944 21.240,8.030 20.595,6.381 19.347 C 5.972 19.038,5.148 18.235,4.813 17.820 C 3.905 16.696,3.218 15.247,2.944 13.876 C 2.783 13.072,2.747 12.621,2.772 11.720 C 2.795 10.883,2.861 10.377,3.036 9.693 C 3.182 9.123,3.575 8.080,3.644 8.080 C 3.662 8.080,5.476 9.114,7.676 10.378 C 9.877 11.642,11.748 12.695,11.836 12.719 C 12.192 12.815,12.603 12.574,12.714 12.205 C 12.785 11.968,12.716 11.683,12.546 11.506 C 12.472 11.430,10.578 10.319,8.003 8.841 C 4.007 6.547,3.566 6.304,3.380 6.288 C 3.131 6.268,2.896 6.372,2.746 6.570 C 2.601 6.760,2.183 7.598,2.001 8.063 C 1.569 9.165,1.352 10.172,1.283 11.388 C 1.138 13.961,1.871 16.385,3.424 18.470 C 3.880 19.083,4.909 20.111,5.530 20.575 C 7.606 22.126,10.070 22.870,12.627 22.717 C 14.790 22.588,16.724 21.879,18.470 20.575 C 19.087 20.115,20.115 19.087,20.575 18.470 C 22.118 16.403,22.865 13.947,22.718 11.420 C 22.644 10.144,22.430 9.157,21.988 8.040 C 21.704 7.321,21.111 6.235,20.845 5.945 C 20.644 5.725,20.272 5.654,20.020 5.786 " stroke="none" fill-rule="evenodd" fill="black"></path></svg>