<svg width="24" height="24" viewBox="0 0 24 24" fill="none" xmlns="http://www.w3.org/2000/svg"><path d="M6.815 1.277 C 6.638 1.321,6.461 1.456,6.353 1.631 C 6.262 1.777,6.260 1.802,6.247 3.050 L 6.235 4.320 6.107 4.321 C 5.921 4.322,5.267 4.465,4.907 4.585 C 4.507 4.718,3.855 5.049,3.498 5.301 C 3.345 5.409,3.057 5.660,2.859 5.859 C 1.901 6.817,1.391 7.999,1.284 9.512 C 1.244 10.075,1.265 10.250,1.394 10.432 C 1.706 10.870,2.431 10.817,2.658 10.339 C 2.703 10.244,2.739 10.018,2.763 9.682 C 2.805 9.092,2.871 8.742,3.021 8.319 C 3.482 7.025,4.563 6.117,5.980 5.836 C 6.395 5.753,17.605 5.753,18.020 5.836 C 19.674 6.164,20.836 7.326,21.164 8.980 C 21.246 9.393,21.246 17.607,21.164 18.020 C 20.836 19.674,19.674 20.836,18.020 21.164 C 17.605 21.247,6.395 21.247,5.980 21.164 C 4.563 20.883,3.482 19.975,3.021 18.680 C 2.795 18.043,2.792 18.009,2.765 15.860 L 2.740 13.860 2.640 13.686 C 2.359 13.194,1.641 13.194,1.360 13.686 L 1.260 13.860 1.247 15.300 C 1.224 17.890,1.344 18.728,1.896 19.814 C 2.174 20.361,2.425 20.708,2.859 21.141 C 3.825 22.107,4.993 22.607,6.545 22.719 C 7.282 22.772,16.718 22.772,17.455 22.719 C 18.406 22.651,19.088 22.473,19.814 22.104 C 20.361 21.826,20.708 21.575,21.141 21.141 C 22.107 20.175,22.607 19.007,22.719 17.455 C 22.771 16.733,22.771 10.267,22.719 9.545 C 22.651 8.594,22.473 7.912,22.104 7.186 C 21.826 6.639,21.575 6.292,21.141 5.859 C 20.175 4.893,19.007 4.393,17.455 4.281 C 17.133 4.258,14.978 4.241,12.330 4.240 L 7.760 4.240 7.759 3.130 C 7.758 1.954,7.734 1.738,7.580 1.536 C 7.421 1.327,7.078 1.211,6.815 1.277 M8.140 10.282 C 7.728 10.327,7.503 10.387,7.177 10.537 C 6.446 10.875,5.876 11.445,5.539 12.174 C 5.352 12.579,5.274 12.969,5.274 13.500 C 5.274 14.029,5.352 14.420,5.536 14.820 C 6.068 15.971,7.161 16.705,8.379 16.729 C 8.732 16.736,8.862 16.690,9.047 16.494 C 9.181 16.353,9.240 16.201,9.240 16.000 C 9.240 15.799,9.181 15.647,9.047 15.506 C 8.885 15.335,8.760 15.285,8.378 15.242 C 7.715 15.167,7.214 14.822,6.929 14.245 C 6.784 13.952,6.780 13.932,6.780 13.500 C 6.780 13.068,6.784 13.048,6.929 12.755 C 7.113 12.382,7.414 12.086,7.790 11.908 C 8.043 11.788,8.088 11.780,8.500 11.780 C 8.912 11.780,8.957 11.788,9.210 11.908 C 9.800 12.187,10.167 12.709,10.242 13.374 C 10.285 13.760,10.334 13.885,10.506 14.047 C 10.647 14.181,10.799 14.240,11.000 14.240 C 11.284 14.240,11.529 14.086,11.671 13.820 C 11.814 13.551,11.706 12.705,11.461 12.174 C 10.862 10.878,9.544 10.127,8.140 10.282 M14.420 10.259 C 14.398 10.267,14.331 10.284,14.271 10.297 C 14.124 10.329,13.881 10.548,13.814 10.708 C 13.691 11.002,13.771 11.336,14.015 11.550 C 14.095 11.621,14.211 11.693,14.271 11.709 C 14.413 11.749,18.587 11.749,18.729 11.709 C 18.881 11.667,19.121 11.447,19.186 11.292 C 19.297 11.027,19.241 10.711,19.047 10.506 C 18.805 10.250,18.907 10.261,16.580 10.252 C 15.414 10.248,14.442 10.251,14.420 10.259 M14.420 14.260 C 14.398 14.267,14.331 14.284,14.271 14.297 C 14.124 14.329,13.881 14.548,13.814 14.708 C 13.703 14.973,13.759 15.289,13.953 15.494 C 14.118 15.668,14.265 15.727,14.596 15.749 C 15.044 15.780,15.331 15.709,15.519 15.521 C 15.918 15.122,15.731 14.423,15.189 14.286 C 15.022 14.244,14.518 14.227,14.420 14.260 M17.815 14.276 C 17.481 14.362,17.267 14.648,17.267 15.007 C 17.267 15.203,17.286 15.270,17.383 15.408 C 17.573 15.676,17.742 15.740,18.260 15.740 C 18.739 15.739,18.847 15.705,19.047 15.494 C 19.181 15.353,19.240 15.201,19.240 15.000 C 19.240 14.716,19.085 14.469,18.820 14.330 C 18.684 14.259,18.019 14.223,17.815 14.276 " stroke="none" fill-rule="evenodd" fill="black"></path></svg>