<svg width="24" height="24" viewBox="0 0 24 24" fill="none" xmlns="http://www.w3.org/2000/svg"><path d="M7.900 1.282 C 5.328 1.443,3.665 2.675,3.018 4.900 C 2.869 5.412,2.798 5.896,2.772 6.566 C 2.749 7.186,2.749 7.195,2.850 7.367 C 3.106 7.803,3.731 7.864,4.052 7.482 C 4.196 7.311,4.230 7.165,4.256 6.600 C 4.364 4.234,5.582 2.949,7.880 2.776 L 8.231 2.749 8.226 3.990 L 8.220 5.232 8.343 5.386 C 8.525 5.614,8.690 5.687,8.989 5.670 C 9.193 5.659,9.263 5.635,9.386 5.536 C 9.664 5.310,9.671 5.277,9.703 3.950 L 9.731 2.760 10.481 2.760 L 11.231 2.760 11.226 3.996 L 11.220 5.232 11.343 5.386 C 11.525 5.614,11.690 5.687,11.989 5.670 C 12.193 5.659,12.263 5.635,12.386 5.536 C 12.664 5.310,12.671 5.277,12.703 3.950 L 12.731 2.760 13.484 2.760 L 14.238 2.760 14.213 3.851 C 14.199 4.451,14.200 5.009,14.216 5.092 C 14.248 5.263,14.434 5.494,14.615 5.588 C 14.772 5.669,15.107 5.670,15.261 5.589 C 15.412 5.510,15.584 5.330,15.634 5.197 C 15.655 5.141,15.686 4.569,15.702 3.927 L 15.731 2.760 15.877 2.760 C 16.133 2.760,16.690 2.840,17.019 2.924 C 18.553 3.315,19.422 4.331,19.678 6.034 C 19.750 6.517,19.781 7.932,19.723 8.074 C 19.663 8.217,19.625 8.234,19.271 8.279 C 18.594 8.364,18.018 8.853,17.817 9.515 C 17.736 9.783,17.736 12.475,17.818 12.820 C 17.957 13.411,18.164 13.722,18.948 14.522 C 19.753 15.344,19.734 15.302,19.753 16.340 C 19.776 17.600,19.679 18.350,19.399 19.078 C 19.039 20.009,18.282 20.692,17.248 21.016 C 16.720 21.181,16.777 21.311,16.747 19.868 C 16.717 18.456,16.681 18.223,16.416 17.717 C 16.123 17.161,15.499 16.616,14.926 16.417 C 14.453 16.252,14.076 16.233,11.723 16.251 C 9.853 16.265,9.504 16.277,9.288 16.334 C 8.309 16.591,7.498 17.438,7.302 18.408 C 7.254 18.647,7.240 18.989,7.240 19.918 C 7.240 21.296,7.289 21.171,6.803 21.036 C 5.658 20.717,4.874 19.961,4.501 18.818 C 4.265 18.096,4.267 18.126,4.242 14.280 C 4.226 11.696,4.207 10.718,4.173 10.660 C 4.112 10.554,3.925 10.382,3.802 10.319 C 3.667 10.249,3.323 10.256,3.179 10.331 C 3.024 10.412,2.856 10.591,2.803 10.733 C 2.746 10.882,2.744 17.405,2.800 17.881 C 2.989 19.484,3.497 20.585,4.429 21.411 C 5.351 22.228,6.414 22.619,7.990 22.720 C 8.809 22.772,15.192 22.772,16.010 22.719 C 17.054 22.653,17.826 22.463,18.543 22.097 C 20.048 21.330,20.942 19.949,21.180 18.027 C 21.261 17.369,21.262 15.611,21.180 15.220 C 21.148 15.066,21.045 14.787,20.951 14.600 C 20.801 14.301,20.700 14.177,20.118 13.578 C 19.681 13.129,19.422 12.829,19.358 12.698 C 19.261 12.502,19.260 12.485,19.248 11.216 C 19.235 9.690,19.206 9.787,19.700 9.722 C 20.468 9.621,21.079 9.039,21.201 8.293 C 21.288 7.763,21.231 6.203,21.098 5.500 C 20.852 4.191,20.241 3.119,19.345 2.425 C 18.412 1.701,17.460 1.375,16.000 1.280 C 15.326 1.236,8.611 1.238,7.900 1.282 M14.413 17.824 C 14.795 17.954,15.179 18.424,15.219 18.810 C 15.229 18.904,15.247 19.488,15.259 20.110 L 15.281 21.240 11.998 21.240 L 8.715 21.240 8.727 19.970 C 8.740 18.743,8.743 18.693,8.832 18.500 C 8.977 18.184,9.233 17.949,9.580 17.813 C 9.667 17.779,10.329 17.765,11.963 17.763 C 13.933 17.760,14.250 17.768,14.413 17.824 " stroke="none" fill-rule="evenodd" fill="black"></path></svg>