<svg width="24" height="24" viewBox="0 0 24 24" fill="none" xmlns="http://www.w3.org/2000/svg"><path d="M5.815 1.277 C 5.638 1.321,5.461 1.456,5.353 1.631 L 5.260 1.780 5.260 5.500 L 5.260 9.220 5.353 9.369 C 5.710 9.943,6.576 9.812,6.716 9.162 C 6.775 8.886,6.776 2.098,6.717 1.841 C 6.623 1.432,6.215 1.177,5.815 1.277 M11.815 1.277 C 11.638 1.321,11.461 1.456,11.353 1.631 C 11.261 1.778,11.260 1.793,11.260 3.000 C 11.260 4.207,11.261 4.222,11.353 4.369 C 11.710 4.943,12.576 4.812,12.716 4.162 C 12.772 3.901,12.773 2.083,12.717 1.841 C 12.623 1.432,12.215 1.177,11.815 1.277 M17.815 1.277 C 17.638 1.321,17.461 1.456,17.353 1.631 L 17.260 1.780 17.260 5.500 L 17.260 9.220 17.353 9.369 C 17.710 9.943,18.576 9.812,18.716 9.162 C 18.775 8.886,18.776 2.098,18.717 1.841 C 18.623 1.432,18.215 1.177,17.815 1.277 M11.722 6.324 C 11.446 6.372,11.159 6.504,10.889 6.708 C 10.434 7.053,10.276 7.301,9.382 9.073 C 8.710 10.406,8.627 10.551,8.478 10.655 C 8.328 10.760,8.192 10.791,6.930 11.006 C 5.515 11.248,5.102 11.353,4.727 11.568 C 4.254 11.838,3.898 12.328,3.794 12.852 C 3.706 13.298,3.852 13.879,4.179 14.380 C 4.267 14.515,4.831 15.121,5.463 15.760 C 6.580 16.889,6.591 16.902,6.641 17.126 C 6.690 17.348,6.685 17.381,6.381 18.706 C 6.112 19.876,6.068 20.125,6.051 20.540 C 6.037 20.895,6.048 21.090,6.095 21.290 C 6.369 22.455,7.406 22.940,8.659 22.491 C 9.051 22.350,9.112 22.317,10.463 21.517 C 11.134 21.119,11.740 20.787,11.831 20.766 C 12.137 20.698,12.285 20.761,13.460 21.462 C 15.166 22.480,15.471 22.617,16.023 22.619 C 16.318 22.620,16.359 22.610,16.497 22.505 C 16.784 22.286,16.875 21.900,16.717 21.573 C 16.607 21.347,16.459 21.247,16.100 21.158 C 15.723 21.063,15.661 21.031,14.200 20.163 C 13.414 19.696,12.889 19.410,12.725 19.359 C 12.182 19.190,11.560 19.221,11.091 19.439 C 10.955 19.502,10.442 19.793,9.951 20.084 C 8.261 21.090,8.082 21.178,7.778 21.153 C 7.425 21.124,7.436 20.764,7.842 19.020 C 8.185 17.553,8.218 17.234,8.082 16.739 C 7.917 16.138,7.847 16.045,6.594 14.779 C 5.398 13.571,5.223 13.348,5.270 13.099 C 5.321 12.832,5.623 12.736,7.249 12.465 C 7.990 12.341,8.695 12.203,8.814 12.159 C 9.134 12.039,9.470 11.807,9.729 11.526 C 9.929 11.309,10.058 11.078,10.739 9.723 C 11.362 8.481,11.555 8.132,11.698 7.984 C 11.935 7.741,12.054 7.737,12.303 7.967 C 12.459 8.111,12.595 8.354,13.280 9.717 C 13.871 10.894,14.123 11.353,14.259 11.508 C 14.477 11.755,14.957 12.086,15.227 12.176 C 15.333 12.211,16.050 12.347,16.820 12.477 C 17.590 12.608,18.285 12.742,18.365 12.776 C 18.585 12.869,18.760 13.032,18.760 13.145 C 18.760 13.370,18.568 13.603,17.442 14.740 C 16.350 15.843,16.285 15.917,16.126 16.240 C 15.752 17.000,15.763 17.900,16.150 18.186 C 16.541 18.475,17.076 18.362,17.276 17.949 C 17.342 17.811,17.360 17.704,17.356 17.456 C 17.354 17.274,17.374 17.089,17.404 17.020 C 17.433 16.954,17.944 16.405,18.539 15.800 C 19.604 14.719,19.899 14.364,20.072 13.957 C 20.206 13.643,20.252 13.368,20.229 13.009 C 20.211 12.719,20.186 12.626,20.058 12.373 C 19.814 11.892,19.381 11.548,18.760 11.340 C 18.595 11.285,17.833 11.134,17.067 11.004 C 15.761 10.784,15.664 10.761,15.527 10.652 C 15.406 10.557,15.245 10.270,14.620 9.036 C 14.202 8.211,13.777 7.420,13.675 7.278 C 13.146 6.540,12.450 6.200,11.722 6.324 " stroke="none" fill-rule="evenodd" fill="black"></path></svg>