<svg width="24" height="24" viewBox="0 0 24 24" fill="none" xmlns="http://www.w3.org/2000/svg"><path d="M8.080 1.282 C 4.042 1.493,1.931 3.265,1.398 6.891 C 1.310 7.494,1.225 8.895,1.264 9.113 C 1.278 9.194,1.325 9.318,1.368 9.389 C 1.658 9.870,2.422 9.836,2.661 9.332 C 2.718 9.212,2.740 9.022,2.765 8.423 C 2.900 5.187,3.905 3.654,6.288 3.044 C 7.337 2.776,7.247 2.780,12.000 2.780 C 15.936 2.780,16.339 2.786,16.760 2.852 C 19.558 3.288,20.712 4.442,21.148 7.240 C 21.214 7.661,21.220 8.064,21.220 12.000 C 21.220 15.936,21.214 16.339,21.148 16.760 C 20.712 19.558,19.558 20.712,16.760 21.148 C 16.339 21.214,15.936 21.220,12.000 21.220 C 8.064 21.220,7.661 21.214,7.240 21.148 C 4.756 20.761,3.576 19.795,3.044 17.712 C 2.821 16.838,2.790 16.492,2.764 14.600 L 2.740 12.860 2.640 12.686 C 2.359 12.194,1.641 12.194,1.360 12.686 C 1.262 12.857,1.260 12.878,1.247 13.880 C 1.223 15.664,1.336 17.082,1.575 18.027 C 2.267 20.757,3.971 22.193,7.027 22.622 C 7.786 22.728,8.902 22.759,12.000 22.759 C 15.098 22.759,16.214 22.728,16.973 22.622 C 19.443 22.275,20.996 21.288,21.897 19.490 C 22.379 18.530,22.638 17.369,22.720 15.807 C 22.771 14.838,22.771 9.162,22.720 8.193 C 22.657 6.998,22.521 6.191,22.242 5.356 C 21.632 3.531,20.469 2.367,18.650 1.760 C 17.788 1.473,17.023 1.344,15.806 1.280 C 14.952 1.235,8.952 1.237,8.080 1.282 M9.014 6.958 C 8.665 7.041,8.440 7.323,8.440 7.677 C 8.440 7.791,8.469 7.942,8.504 8.012 C 8.539 8.082,9.570 9.143,10.794 10.370 L 13.019 12.600 11.722 12.600 C 10.482 12.600,10.418 12.604,10.250 12.685 C 9.989 12.811,9.860 13.030,9.861 13.342 C 9.861 13.547,9.880 13.616,9.975 13.753 C 10.040 13.846,10.162 13.952,10.257 13.999 C 10.420 14.078,10.494 14.080,12.710 14.080 C 14.227 14.080,15.033 14.066,15.107 14.037 C 15.169 14.014,15.271 13.947,15.334 13.887 C 15.577 13.657,15.567 13.764,15.562 11.234 C 15.559 9.758,15.542 8.878,15.516 8.808 C 15.459 8.659,15.329 8.527,15.143 8.432 C 14.803 8.258,14.334 8.420,14.165 8.770 C 14.084 8.938,14.080 9.002,14.080 10.242 L 14.080 11.540 11.830 9.294 C 10.592 8.059,9.544 7.031,9.500 7.009 C 9.376 6.949,9.153 6.925,9.014 6.958 M5.698 15.835 C 5.496 15.927,5.335 16.115,5.279 16.325 C 5.202 16.609,5.339 16.971,5.579 17.119 C 5.751 17.226,6.407 17.432,7.240 17.640 C 10.342 18.418,13.658 18.418,16.760 17.640 C 17.593 17.432,18.249 17.226,18.421 17.119 C 18.661 16.971,18.798 16.609,18.721 16.325 C 18.639 16.020,18.318 15.763,18.017 15.761 C 17.949 15.760,17.696 15.822,17.455 15.899 C 16.215 16.291,14.816 16.565,13.460 16.679 C 12.404 16.768,10.702 16.723,9.600 16.578 C 8.636 16.450,7.465 16.190,6.545 15.899 C 6.047 15.741,5.926 15.732,5.698 15.835 " stroke="none" fill-rule="evenodd" fill="black"></path></svg>