<svg width="24" height="24" viewBox="0 0 24 24" fill="none" xmlns="http://www.w3.org/2000/svg"><path d="M7.540 1.266 C 7.027 1.289,6.344 1.366,5.974 1.442 C 4.203 1.804,3.239 2.834,2.919 4.706 C 2.765 5.606,2.754 6.182,2.769 12.800 C 2.782 18.744,2.788 19.200,2.854 19.480 C 3.057 20.334,3.338 20.837,3.807 21.182 C 4.370 21.597,5.115 21.635,5.858 21.287 C 6.243 21.107,6.543 20.888,7.045 20.420 C 7.556 19.945,7.741 19.836,8.051 19.829 C 8.518 19.818,8.656 19.932,9.462 21.001 C 9.828 21.487,10.221 21.963,10.343 22.069 C 11.366 22.957,12.755 22.928,13.717 22.000 C 13.843 21.879,14.194 21.447,14.498 21.040 C 15.134 20.188,15.279 20.025,15.500 19.910 C 15.718 19.797,16.079 19.795,16.320 19.906 C 16.419 19.952,16.692 20.169,16.927 20.390 C 17.826 21.232,18.495 21.555,19.240 21.509 C 20.221 21.448,20.889 20.710,21.147 19.400 C 21.206 19.099,21.216 18.594,21.229 15.000 C 21.240 12.144,21.232 10.896,21.201 10.792 C 21.107 10.471,20.834 10.269,20.497 10.269 C 20.230 10.269,19.985 10.403,19.858 10.620 L 19.765 10.780 19.749 14.860 C 19.734 18.499,19.725 18.970,19.666 19.215 C 19.552 19.683,19.394 19.958,19.203 20.019 C 18.969 20.093,18.514 19.830,17.921 19.277 C 17.410 18.801,17.199 18.652,16.831 18.505 C 16.145 18.232,15.495 18.261,14.824 18.594 C 14.646 18.682,14.395 18.849,14.267 18.964 C 14.138 19.078,13.738 19.564,13.378 20.042 C 12.995 20.549,12.652 20.963,12.555 21.034 C 12.312 21.213,12.031 21.267,11.757 21.186 C 11.638 21.151,11.471 21.066,11.388 20.997 C 11.304 20.927,10.940 20.478,10.578 19.999 C 10.214 19.516,9.827 19.047,9.710 18.948 C 8.957 18.306,7.952 18.152,7.078 18.544 C 6.752 18.691,6.558 18.834,6.102 19.268 C 5.561 19.781,5.147 20.040,4.864 20.040 C 4.655 20.040,4.472 19.771,4.335 19.260 C 4.263 18.991,4.260 18.714,4.260 12.440 C 4.260 5.518,4.260 5.518,4.447 4.700 C 4.541 4.290,4.740 3.825,4.913 3.616 C 5.221 3.242,5.754 2.989,6.521 2.854 C 6.914 2.785,7.256 2.780,12.000 2.780 C 16.744 2.780,17.086 2.785,17.479 2.854 C 18.246 2.989,18.779 3.242,19.087 3.616 C 19.481 4.094,19.691 5.000,19.741 6.440 C 19.771 7.284,19.779 7.334,19.928 7.503 C 20.096 7.695,20.260 7.771,20.500 7.771 C 20.807 7.771,21.095 7.580,21.197 7.307 C 21.279 7.093,21.232 5.734,21.117 4.920 C 21.023 4.266,20.790 3.523,20.549 3.111 C 20.045 2.252,19.225 1.696,18.106 1.456 C 17.253 1.273,17.141 1.269,12.360 1.261 C 9.863 1.256,7.694 1.259,7.540 1.266 M7.840 6.035 C 7.543 6.132,7.288 6.355,7.182 6.609 C 7.148 6.691,7.120 6.867,7.120 7.000 C 7.120 7.400,7.303 7.702,7.660 7.892 C 7.884 8.012,8.316 8.012,8.540 7.892 C 8.897 7.702,9.080 7.400,9.080 7.000 C 9.080 6.600,8.894 6.293,8.543 6.112 C 8.371 6.024,7.999 5.983,7.840 6.035 M10.574 6.278 C 9.916 6.438,9.783 7.307,10.366 7.640 L 10.540 7.740 13.480 7.740 L 16.420 7.740 16.600 7.634 C 17.086 7.348,17.086 6.652,16.600 6.366 L 16.420 6.260 13.560 6.253 C 11.987 6.250,10.643 6.261,10.574 6.278 M7.840 10.035 C 7.543 10.132,7.288 10.355,7.182 10.609 C 7.148 10.691,7.120 10.867,7.120 11.000 C 7.120 11.286,7.196 11.490,7.372 11.674 C 7.585 11.896,7.781 11.978,8.100 11.978 C 8.419 11.978,8.615 11.896,8.828 11.674 C 9.004 11.490,9.080 11.286,9.080 11.000 C 9.080 10.600,8.894 10.293,8.543 10.112 C 8.371 10.024,7.999 9.983,7.840 10.035 M10.574 10.278 C 9.916 10.438,9.783 11.307,10.366 11.640 L 10.540 11.740 13.480 11.740 L 16.420 11.740 16.600 11.634 C 17.086 11.348,17.086 10.652,16.600 10.366 L 16.420 10.260 13.560 10.253 C 11.987 10.250,10.643 10.261,10.574 10.278 " stroke="none" fill-rule="evenodd" fill="black"></path></svg>