<svg width="24" height="24" viewBox="0 0 24 24" fill="none" xmlns="http://www.w3.org/2000/svg"><path d="M8.080 1.282 C 4.042 1.493,1.931 3.265,1.398 6.891 C 1.310 7.494,1.225 8.895,1.264 9.113 C 1.278 9.194,1.325 9.318,1.368 9.389 C 1.658 9.870,2.422 9.836,2.661 9.332 C 2.718 9.212,2.740 9.022,2.765 8.423 C 2.900 5.187,3.905 3.654,6.288 3.044 C 7.337 2.776,7.247 2.780,12.000 2.780 C 15.936 2.780,16.339 2.786,16.760 2.852 C 19.558 3.288,20.712 4.442,21.148 7.240 C 21.214 7.661,21.220 8.064,21.220 12.000 C 21.220 15.936,21.214 16.339,21.148 16.760 C 20.712 19.558,19.558 20.712,16.760 21.148 C 16.339 21.214,15.936 21.220,12.000 21.220 C 8.064 21.220,7.661 21.214,7.240 21.148 C 4.756 20.761,3.576 19.795,3.044 17.712 C 2.819 16.830,2.790 16.498,2.764 14.540 C 2.738 12.572,2.745 12.630,2.494 12.393 C 2.217 12.131,1.783 12.131,1.506 12.393 C 1.265 12.621,1.261 12.644,1.247 13.820 C 1.224 15.671,1.333 17.073,1.575 18.027 C 2.267 20.757,3.971 22.193,7.027 22.622 C 7.786 22.728,8.902 22.759,12.000 22.759 C 15.098 22.759,16.214 22.728,16.973 22.622 C 19.443 22.275,20.996 21.288,21.897 19.490 C 22.379 18.530,22.638 17.369,22.720 15.807 C 22.771 14.838,22.771 9.162,22.720 8.193 C 22.657 6.998,22.521 6.191,22.242 5.356 C 21.632 3.531,20.469 2.367,18.650 1.760 C 17.788 1.473,17.023 1.344,15.806 1.280 C 14.952 1.235,8.952 1.237,8.080 1.282 M9.109 5.403 C 8.614 5.437,8.085 5.550,7.768 5.689 C 6.932 6.057,6.470 6.786,6.321 7.972 C 6.296 8.174,6.280 9.791,6.280 12.225 C 6.280 16.581,6.277 16.533,6.538 17.062 C 6.792 17.580,7.201 17.874,7.718 17.911 C 8.237 17.948,8.723 17.727,9.310 17.187 C 9.470 17.040,9.634 16.920,9.675 16.920 C 9.799 16.920,9.948 17.068,10.318 17.558 C 10.715 18.084,10.953 18.311,11.260 18.462 C 11.686 18.670,12.314 18.670,12.740 18.462 C 13.049 18.310,13.285 18.083,13.692 17.543 C 13.893 17.277,14.094 17.029,14.138 16.991 C 14.296 16.859,14.403 16.901,14.782 17.242 C 15.508 17.896,16.152 18.064,16.784 17.764 C 17.200 17.567,17.484 17.173,17.648 16.566 C 17.724 16.288,17.733 16.118,17.750 14.697 C 17.772 12.885,17.758 12.758,17.521 12.521 C 17.175 12.175,16.617 12.246,16.353 12.671 C 16.261 12.819,16.260 12.830,16.237 14.520 C 16.216 16.055,16.197 16.400,16.129 16.400 C 16.091 16.400,15.827 16.187,15.550 15.933 C 15.402 15.797,15.182 15.640,15.063 15.583 C 14.773 15.446,14.366 15.391,14.037 15.444 C 13.482 15.533,13.175 15.752,12.676 16.412 C 12.194 17.050,12.127 17.120,12.000 17.120 C 11.873 17.120,11.806 17.050,11.322 16.409 C 10.736 15.634,10.339 15.414,9.583 15.447 C 9.262 15.461,9.175 15.481,8.941 15.597 C 8.779 15.676,8.554 15.838,8.385 15.998 C 8.104 16.262,7.929 16.400,7.874 16.400 C 7.859 16.400,7.827 16.309,7.803 16.198 C 7.745 15.927,7.743 8.675,7.801 8.199 C 7.911 7.296,8.104 7.065,8.855 6.935 C 9.138 6.886,9.693 6.879,12.187 6.890 C 15.423 6.905,15.362 6.901,15.757 7.123 C 16.066 7.297,16.205 7.753,16.260 8.780 C 16.283 9.202,16.304 9.329,16.374 9.454 C 16.601 9.864,17.226 9.938,17.548 9.593 C 17.764 9.362,17.794 9.114,17.718 8.220 C 17.635 7.241,17.409 6.647,16.942 6.176 C 16.452 5.683,15.876 5.472,14.833 5.400 C 14.163 5.355,9.797 5.357,9.109 5.403 " stroke="none" fill-rule="evenodd" fill="black"></path></svg>