<svg width="24" height="24" viewBox="0 0 24 24" fill="none" xmlns="http://www.w3.org/2000/svg"><path d="M7.540 1.266 C 7.027 1.289,6.344 1.366,5.974 1.442 C 4.203 1.804,3.239 2.834,2.919 4.706 C 2.765 5.606,2.754 6.182,2.769 12.800 C 2.782 18.744,2.788 19.200,2.854 19.480 C 3.057 20.334,3.338 20.837,3.807 21.182 C 4.370 21.597,5.115 21.635,5.858 21.287 C 6.243 21.107,6.543 20.888,7.045 20.420 C 7.556 19.945,7.741 19.836,8.051 19.829 C 8.518 19.818,8.656 19.932,9.462 21.001 C 9.828 21.487,10.221 21.963,10.343 22.069 C 11.366 22.957,12.755 22.928,13.717 22.000 C 13.843 21.879,14.194 21.447,14.498 21.040 C 15.134 20.188,15.279 20.025,15.500 19.910 C 15.718 19.797,16.079 19.795,16.320 19.906 C 16.419 19.952,16.692 20.169,16.927 20.390 C 17.826 21.232,18.495 21.555,19.240 21.509 C 20.237 21.447,20.912 20.686,21.146 19.360 C 21.215 18.969,21.220 18.654,21.220 14.857 L 21.220 10.773 21.106 10.608 C 20.800 10.167,20.146 10.179,19.849 10.631 C 19.785 10.729,19.778 11.042,19.756 14.838 C 19.735 18.472,19.724 18.971,19.666 19.215 C 19.553 19.683,19.394 19.958,19.203 20.019 C 18.969 20.093,18.514 19.830,17.921 19.277 C 17.410 18.801,17.199 18.652,16.831 18.505 C 16.145 18.232,15.495 18.261,14.824 18.594 C 14.646 18.682,14.395 18.849,14.267 18.964 C 14.138 19.078,13.738 19.564,13.378 20.042 C 12.995 20.549,12.652 20.963,12.555 21.034 C 12.312 21.213,12.031 21.267,11.757 21.186 C 11.638 21.151,11.471 21.066,11.388 20.997 C 11.304 20.927,10.940 20.478,10.578 19.999 C 10.214 19.516,9.827 19.047,9.710 18.948 C 8.957 18.306,7.952 18.152,7.078 18.544 C 6.752 18.691,6.558 18.834,6.102 19.268 C 5.561 19.781,5.147 20.040,4.864 20.040 C 4.655 20.040,4.472 19.771,4.335 19.260 C 4.263 18.991,4.260 18.714,4.260 12.440 C 4.260 5.518,4.260 5.518,4.447 4.700 C 4.541 4.290,4.740 3.825,4.913 3.616 C 5.221 3.242,5.754 2.989,6.521 2.854 C 6.914 2.785,7.256 2.780,12.000 2.780 C 16.744 2.780,17.086 2.785,17.479 2.854 C 18.246 2.989,18.779 3.242,19.087 3.616 C 19.481 4.094,19.691 5.000,19.741 6.440 C 19.771 7.284,19.779 7.334,19.928 7.503 C 20.096 7.695,20.260 7.771,20.500 7.771 C 20.807 7.771,21.095 7.580,21.197 7.307 C 21.279 7.093,21.232 5.734,21.117 4.920 C 21.023 4.266,20.790 3.523,20.549 3.111 C 20.045 2.252,19.225 1.696,18.106 1.456 C 17.253 1.273,17.141 1.269,12.360 1.261 C 9.863 1.256,7.694 1.259,7.540 1.266 M14.900 6.260 C 14.878 6.267,14.806 6.285,14.740 6.299 C 14.650 6.319,13.852 7.091,11.528 9.413 C 9.827 11.111,8.401 12.557,8.357 12.626 C 8.314 12.696,8.271 12.837,8.263 12.940 C 8.252 13.083,8.220 13.157,8.126 13.254 C 7.892 13.496,7.825 13.792,7.942 14.071 C 8.123 14.504,8.607 14.666,9.007 14.428 C 9.231 14.295,15.930 7.584,16.022 7.401 C 16.108 7.228,16.112 6.898,16.030 6.739 C 15.897 6.485,15.725 6.383,15.292 6.300 C 14.969 6.238,14.966 6.238,14.900 6.260 M8.600 6.584 C 8.267 6.728,8.001 7.135,8.001 7.500 C 8.001 7.870,8.270 8.277,8.609 8.418 C 8.800 8.498,9.200 8.498,9.391 8.418 C 9.730 8.277,9.999 7.870,9.999 7.500 C 9.999 7.130,9.730 6.723,9.391 6.582 C 9.203 6.503,8.783 6.504,8.600 6.584 M14.689 12.059 C 14.454 12.132,14.263 12.287,14.131 12.511 C 14.036 12.672,14.020 12.744,14.020 13.000 C 14.020 13.257,14.036 13.327,14.133 13.492 C 14.625 14.329,15.898 14.046,15.991 13.078 C 16.033 12.640,15.729 12.185,15.310 12.061 C 15.065 11.988,14.917 11.987,14.689 12.059 " stroke="none" fill-rule="evenodd" fill="black"></path></svg>