<svg width="24" height="24" viewBox="0 0 24 24" fill="none" xmlns="http://www.w3.org/2000/svg"><path d="M5.458 1.281 C 3.263 1.432,1.847 2.590,1.398 4.600 C 1.302 5.030,1.226 6.105,1.247 6.738 C 1.261 7.156,1.276 7.244,1.354 7.371 C 1.663 7.870,2.412 7.848,2.663 7.332 C 2.726 7.202,2.741 7.036,2.764 6.160 C 2.794 4.994,2.839 4.745,3.126 4.160 C 3.316 3.773,3.684 3.371,4.020 3.184 C 4.304 3.026,4.846 2.853,5.213 2.803 C 5.421 2.774,7.198 2.760,10.527 2.760 C 15.275 2.760,15.527 2.764,15.500 2.830 C 15.394 3.087,15.318 3.342,15.282 3.564 C 15.254 3.735,15.241 6.671,15.240 12.464 C 15.240 20.787,15.237 21.110,15.167 21.174 C 15.016 21.310,14.920 21.260,13.959 20.539 C 13.444 20.153,12.933 19.794,12.822 19.740 C 12.371 19.523,11.821 19.529,11.331 19.759 C 11.106 19.864,10.939 20.011,10.082 20.860 C 9.360 21.574,9.067 21.840,8.999 21.840 C 8.932 21.840,8.634 21.571,7.903 20.849 C 6.822 19.781,6.742 19.722,6.235 19.616 C 5.883 19.543,5.490 19.589,5.178 19.740 C 5.067 19.794,4.556 20.153,4.041 20.539 C 3.069 21.268,2.966 21.321,2.826 21.167 C 2.765 21.100,2.760 20.688,2.760 16.069 C 2.760 12.550,2.747 10.982,2.716 10.838 C 2.575 10.182,1.713 10.051,1.353 10.631 L 1.260 10.780 1.248 15.840 C 1.241 19.128,1.251 21.009,1.278 21.211 C 1.330 21.605,1.469 21.900,1.742 22.196 C 2.235 22.727,3.019 22.893,3.686 22.606 C 3.782 22.564,4.285 22.215,4.806 21.829 C 5.834 21.066,5.871 21.042,5.960 21.070 C 5.993 21.081,6.452 21.517,6.980 22.039 C 7.508 22.561,8.021 23.034,8.120 23.091 C 8.717 23.431,9.487 23.388,10.026 22.984 C 10.155 22.888,10.647 22.420,11.120 21.944 C 11.788 21.272,12.002 21.080,12.081 21.080 C 12.149 21.080,12.501 21.316,13.172 21.813 C 14.376 22.704,14.615 22.809,15.239 22.720 C 15.995 22.613,16.611 22.002,16.719 21.253 C 16.743 21.086,16.759 19.189,16.759 16.374 L 16.760 11.769 18.370 11.749 C 20.058 11.728,20.197 11.715,20.736 11.525 C 21.544 11.240,22.263 10.506,22.542 9.682 C 22.726 9.138,22.740 8.961,22.739 7.180 C 22.739 5.720,22.729 5.453,22.667 5.142 C 22.269 3.173,20.834 1.739,18.850 1.329 C 18.574 1.272,17.840 1.264,12.220 1.258 C 8.744 1.254,5.701 1.264,5.458 1.281 M18.980 2.896 C 19.506 3.066,19.853 3.285,20.284 3.716 C 20.710 4.142,20.926 4.482,21.110 5.020 L 21.220 5.340 21.220 7.160 C 21.220 8.974,21.220 8.981,21.127 9.211 C 20.951 9.647,20.647 9.951,20.211 10.126 C 19.984 10.218,19.949 10.220,18.369 10.232 L 16.758 10.244 16.769 6.952 L 16.780 3.660 16.887 3.460 C 17.032 3.186,17.262 2.975,17.544 2.856 C 17.759 2.765,17.818 2.758,18.220 2.774 C 18.549 2.787,18.741 2.818,18.980 2.896 M5.800 7.584 C 5.467 7.728,5.201 8.135,5.201 8.500 C 5.201 8.870,5.470 9.277,5.809 9.418 C 6.000 9.498,6.400 9.498,6.591 9.418 C 6.780 9.339,6.983 9.146,7.092 8.940 C 7.212 8.716,7.212 8.284,7.092 8.060 C 6.983 7.854,6.780 7.661,6.591 7.582 C 6.403 7.503,5.983 7.504,5.800 7.584 M11.440 7.583 C 11.264 7.659,10.421 8.489,10.317 8.688 C 10.177 8.958,10.226 9.314,10.433 9.535 C 10.647 9.765,11.029 9.829,11.312 9.683 C 11.393 9.641,11.670 9.394,11.926 9.133 C 12.443 8.608,12.513 8.478,12.462 8.139 C 12.439 7.986,12.398 7.914,12.245 7.762 C 11.999 7.515,11.735 7.457,11.440 7.583 M8.815 10.277 C 8.746 10.294,8.638 10.345,8.575 10.391 C 8.512 10.437,7.818 11.119,7.033 11.907 C 5.474 13.473,5.479 13.467,5.538 13.861 C 5.561 14.015,5.602 14.086,5.758 14.242 C 5.914 14.398,5.985 14.439,6.139 14.462 C 6.536 14.522,6.519 14.535,8.166 12.887 C 9.604 11.448,9.674 11.371,9.711 11.189 C 9.785 10.834,9.634 10.482,9.352 10.349 C 9.177 10.266,8.969 10.239,8.815 10.277 M11.568 12.565 C 11.351 12.628,11.058 12.945,10.984 13.197 C 10.949 13.317,10.920 13.453,10.920 13.500 C 10.920 13.734,11.051 14.023,11.241 14.207 C 11.456 14.416,11.626 14.480,11.960 14.479 C 12.319 14.478,12.653 14.273,12.831 13.946 C 12.925 13.771,12.925 13.229,12.831 13.054 C 12.732 12.872,12.526 12.679,12.341 12.595 C 12.165 12.515,11.792 12.501,11.568 12.565 " stroke="none" fill-rule="evenodd" fill="black"></path></svg>