<svg width="24" height="24" viewBox="0 0 24 24" fill="none" xmlns="http://www.w3.org/2000/svg"><path d="M11.163 1.287 C 10.813 1.337,10.438 1.492,10.091 1.730 C 9.757 1.960,9.643 2.088,8.914 3.060 C 8.183 4.033,8.027 4.161,7.565 4.159 C 7.236 4.158,7.067 4.061,6.567 3.588 C 5.680 2.750,5.048 2.449,4.255 2.487 C 3.961 2.501,3.852 2.526,3.628 2.630 C 3.233 2.815,2.915 3.133,2.765 3.494 C 2.495 4.144,2.340 5.016,2.280 6.228 C 2.237 7.082,2.248 7.231,2.368 7.429 C 2.658 7.910,3.421 7.876,3.661 7.372 C 3.719 7.250,3.740 7.064,3.765 6.419 C 3.812 5.202,3.981 4.255,4.190 4.047 C 4.407 3.829,4.866 4.037,5.498 4.642 C 6.118 5.233,6.452 5.448,6.963 5.581 C 7.275 5.663,7.821 5.673,8.120 5.604 C 8.463 5.524,8.965 5.260,9.231 5.019 C 9.363 4.899,9.745 4.440,10.079 3.998 C 10.414 3.557,10.751 3.131,10.830 3.053 C 11.219 2.664,11.782 2.665,12.172 3.055 C 12.251 3.134,12.586 3.557,12.916 3.994 C 13.562 4.849,13.825 5.121,14.213 5.336 C 14.738 5.627,15.416 5.729,15.965 5.600 C 16.484 5.478,16.875 5.239,17.443 4.695 C 17.878 4.279,18.188 4.064,18.459 3.992 C 18.808 3.898,18.919 4.049,19.077 4.830 C 19.238 5.624,19.246 6.007,19.229 12.360 C 19.215 17.825,19.206 18.499,19.147 18.837 C 19.052 19.374,18.924 19.825,18.833 19.940 C 18.633 20.194,18.133 19.965,17.443 19.305 C 17.231 19.102,16.971 18.877,16.866 18.804 C 16.060 18.250,15.057 18.197,14.213 18.664 C 13.825 18.879,13.562 19.151,12.916 20.006 C 12.586 20.443,12.251 20.866,12.172 20.945 C 11.782 21.335,11.219 21.336,10.830 20.947 C 10.751 20.869,10.414 20.443,10.079 20.002 C 9.745 19.560,9.363 19.101,9.231 18.981 C 8.965 18.740,8.463 18.476,8.120 18.396 C 7.821 18.327,7.275 18.337,6.963 18.419 C 6.450 18.553,6.117 18.767,5.494 19.363 C 5.029 19.808,4.745 19.988,4.446 20.028 C 4.219 20.059,4.117 19.944,4.007 19.537 C 3.788 18.725,3.787 18.710,3.763 14.600 L 3.740 10.780 3.634 10.600 C 3.347 10.112,2.640 10.116,2.360 10.606 L 2.260 10.780 2.248 13.780 C 2.231 17.772,2.280 18.764,2.546 19.820 C 2.709 20.468,2.847 20.756,3.120 21.017 C 3.464 21.344,3.800 21.492,4.255 21.513 C 5.057 21.552,5.686 21.249,6.591 20.389 C 6.822 20.171,7.084 19.958,7.175 19.917 C 7.376 19.825,7.736 19.817,7.934 19.900 C 8.175 20.001,8.350 20.189,8.973 21.017 C 9.634 21.897,9.791 22.070,10.142 22.307 C 10.982 22.875,12.018 22.875,12.858 22.307 C 13.206 22.072,13.367 21.896,13.979 21.078 C 14.282 20.672,14.596 20.270,14.675 20.185 C 14.984 19.855,15.451 19.751,15.829 19.929 C 15.936 19.979,16.199 20.190,16.439 20.419 C 17.252 21.195,17.904 21.520,18.645 21.520 C 19.370 21.520,19.973 21.135,20.235 20.505 C 20.506 19.855,20.662 18.974,20.720 17.768 C 20.770 16.743,20.770 7.257,20.720 6.232 C 20.662 5.026,20.506 4.145,20.235 3.494 C 20.085 3.133,19.767 2.815,19.372 2.630 C 19.144 2.524,19.041 2.500,18.738 2.487 C 17.943 2.452,17.292 2.765,16.420 3.599 C 16.193 3.817,15.938 4.020,15.830 4.071 C 15.451 4.249,14.985 4.146,14.675 3.815 C 14.596 3.730,14.282 3.328,13.979 2.922 C 13.675 2.517,13.352 2.110,13.261 2.019 C 12.871 1.628,12.329 1.358,11.787 1.283 C 11.615 1.259,11.462 1.242,11.447 1.245 C 11.432 1.248,11.304 1.266,11.163 1.287 M7.619 9.617 C 7.212 9.861,7.144 10.468,7.487 10.788 C 7.714 11.000,7.713 11.000,10.000 11.000 C 12.287 11.000,12.286 11.000,12.513 10.788 C 12.858 10.466,12.787 9.856,12.377 9.616 L 12.213 9.520 9.996 9.520 L 7.780 9.521 7.619 9.617 M14.619 9.617 C 14.212 9.861,14.144 10.468,14.487 10.788 C 14.678 10.967,14.837 11.000,15.500 11.000 C 16.163 11.000,16.322 10.967,16.513 10.788 C 16.860 10.464,16.784 9.843,16.368 9.610 C 16.220 9.526,16.161 9.520,15.495 9.520 C 14.811 9.521,14.773 9.525,14.619 9.617 M7.720 13.064 C 7.423 13.193,7.269 13.426,7.269 13.746 C 7.269 14.013,7.411 14.267,7.632 14.390 L 7.791 14.480 11.002 14.480 L 14.213 14.480 14.377 14.384 C 14.787 14.144,14.858 13.534,14.513 13.212 C 14.280 12.994,14.378 13.000,10.991 13.002 C 8.285 13.003,7.841 13.011,7.720 13.064 " stroke="none" fill-rule="evenodd" fill="black"></path></svg>