<svg width="24" height="24" viewBox="0 0 24 24" fill="none" xmlns="http://www.w3.org/2000/svg"><path d="M7.540 1.266 C 7.027 1.289,6.344 1.366,5.974 1.442 C 4.206 1.803,3.239 2.835,2.920 4.699 C 2.778 5.530,2.709 7.060,2.803 7.307 C 2.905 7.580,3.193 7.771,3.500 7.771 C 3.740 7.771,3.904 7.695,4.072 7.503 C 4.221 7.334,4.229 7.284,4.259 6.440 C 4.309 5.000,4.519 4.094,4.913 3.616 C 5.221 3.242,5.754 2.989,6.521 2.854 C 6.914 2.785,7.256 2.780,12.000 2.780 C 16.744 2.780,17.086 2.785,17.479 2.854 C 18.246 2.989,18.779 3.242,19.087 3.616 C 19.242 3.804,19.452 4.273,19.538 4.620 C 19.717 5.350,19.730 5.611,19.746 8.560 C 19.755 10.256,19.776 11.438,19.800 11.525 C 19.916 11.946,20.403 12.156,20.820 11.965 C 21.010 11.877,21.096 11.788,21.178 11.590 C 21.232 11.462,21.240 11.092,21.240 8.847 C 21.240 5.774,21.204 5.140,20.978 4.236 C 20.685 3.065,20.115 2.298,19.200 1.841 C 18.660 1.571,18.217 1.449,17.360 1.331 C 16.967 1.278,16.238 1.267,12.360 1.261 C 9.863 1.256,7.694 1.259,7.540 1.266 M7.815 6.277 C 7.330 6.396,7.098 7.004,7.383 7.408 C 7.447 7.499,7.572 7.610,7.660 7.656 C 7.817 7.738,7.864 7.740,10.220 7.740 C 11.540 7.740,12.669 7.726,12.729 7.709 C 12.881 7.667,13.121 7.447,13.186 7.292 C 13.297 7.027,13.241 6.711,13.047 6.506 C 12.803 6.248,12.935 6.261,10.320 6.253 C 9.011 6.250,7.884 6.260,7.815 6.277 M14.815 6.278 C 14.331 6.393,14.098 7.004,14.383 7.408 C 14.605 7.722,14.676 7.738,15.869 7.753 C 17.122 7.768,17.296 7.744,17.519 7.521 C 17.918 7.122,17.731 6.423,17.189 6.286 C 16.983 6.235,15.025 6.228,14.815 6.278 M3.340 10.277 C 3.274 10.293,3.182 10.327,3.135 10.352 C 2.994 10.427,2.805 10.670,2.780 10.809 C 2.767 10.881,2.762 12.794,2.770 15.060 C 2.783 18.824,2.791 19.206,2.855 19.480 C 3.055 20.330,3.338 20.837,3.807 21.182 C 4.370 21.597,5.115 21.635,5.858 21.287 C 6.243 21.107,6.543 20.888,7.045 20.420 C 7.295 20.188,7.577 19.960,7.671 19.915 C 8.011 19.750,8.511 19.837,8.765 20.104 C 8.817 20.159,9.121 20.550,9.440 20.972 C 9.919 21.606,10.051 21.756,10.198 21.830 C 10.757 22.111,11.364 21.655,11.259 21.034 C 11.237 20.905,11.090 20.682,10.578 20.000 C 10.208 19.508,9.833 19.052,9.713 18.950 C 8.956 18.306,7.953 18.151,7.078 18.544 C 6.752 18.691,6.558 18.834,6.102 19.268 C 5.561 19.781,5.147 20.040,4.864 20.040 C 4.659 20.040,4.478 19.779,4.337 19.280 C 4.268 19.038,4.262 18.741,4.242 14.880 C 4.226 11.838,4.208 10.719,4.173 10.660 C 4.115 10.559,3.925 10.382,3.820 10.330 C 3.698 10.270,3.474 10.245,3.340 10.277 M8.815 10.278 C 8.331 10.393,8.098 11.004,8.383 11.408 C 8.447 11.499,8.572 11.610,8.660 11.656 C 8.818 11.739,8.865 11.740,11.878 11.751 C 14.020 11.759,15.000 11.749,15.151 11.718 C 15.902 11.562,15.931 10.473,15.189 10.286 C 14.979 10.234,9.033 10.226,8.815 10.278 M18.936 13.499 C 18.638 13.564,18.287 13.737,17.998 13.963 C 17.728 14.172,14.485 17.391,14.139 17.791 C 13.731 18.265,13.688 18.395,13.498 19.720 C 13.413 20.309,13.434 20.757,13.556 20.994 C 13.690 21.253,13.941 21.505,14.187 21.625 C 14.516 21.786,14.822 21.790,15.800 21.644 C 17.072 21.454,16.815 21.636,19.224 19.225 C 20.484 17.964,21.284 17.133,21.379 16.985 C 21.717 16.463,21.810 15.861,21.640 15.309 C 21.391 14.502,20.401 13.605,19.620 13.479 C 19.321 13.431,19.240 13.433,18.936 13.499 M19.561 15.026 C 19.898 15.250,20.240 15.685,20.240 15.891 C 20.240 16.009,20.056 16.297,19.864 16.479 L 19.717 16.618 19.529 16.520 C 19.282 16.392,18.808 15.915,18.670 15.656 L 18.561 15.451 18.791 15.252 C 18.917 15.143,19.056 15.033,19.100 15.008 C 19.217 14.941,19.447 14.950,19.561 15.026 M17.807 17.003 C 17.988 17.216,18.230 17.431,18.598 17.709 C 18.625 17.730,16.310 20.038,16.240 20.060 C 16.161 20.084,15.096 20.240,15.005 20.240 C 14.939 20.240,14.941 20.202,15.026 19.590 C 15.076 19.233,15.118 18.932,15.119 18.923 C 15.119 18.913,15.647 18.377,16.290 17.731 C 17.443 16.573,17.461 16.557,17.520 16.647 C 17.553 16.698,17.682 16.858,17.807 17.003 " stroke="none" fill-rule="evenodd" fill="black"></path></svg>