<svg width="24" height="24" viewBox="0 0 24 24" fill="none" xmlns="http://www.w3.org/2000/svg"><path d="M11.560 2.267 C 10.860 2.300,9.817 2.468,9.600 2.581 C 9.462 2.652,9.294 2.837,9.243 2.973 C 9.146 3.229,9.206 3.537,9.393 3.734 C 9.615 3.969,9.846 4.023,10.251 3.937 C 11.049 3.767,12.208 3.709,12.961 3.802 C 15.364 4.099,17.500 5.406,18.855 7.410 C 19.549 8.437,20.040 9.764,20.198 11.039 C 20.252 11.475,20.252 12.525,20.198 12.961 C 20.040 14.236,19.549 15.563,18.855 16.590 C 17.500 18.594,15.364 19.901,12.961 20.198 C 12.525 20.252,11.475 20.252,11.039 20.198 C 8.636 19.901,6.500 18.594,5.145 16.590 C 4.602 15.788,4.111 14.622,3.923 13.691 C 3.799 13.079,3.760 12.672,3.760 11.998 C 3.760 10.679,4.016 9.577,4.599 8.380 C 4.913 7.736,5.168 7.330,5.584 6.817 C 5.989 6.318,6.049 6.159,5.958 5.831 C 5.837 5.395,5.356 5.184,4.926 5.378 C 4.727 5.467,4.301 5.971,3.864 6.633 C 1.717 9.890,1.727 14.165,3.890 17.398 C 5.467 19.755,7.895 21.267,10.740 21.662 C 11.386 21.752,12.616 21.752,13.260 21.662 C 15.465 21.355,17.333 20.431,18.882 18.882 C 20.218 17.546,21.121 15.906,21.516 14.100 C 21.806 12.774,21.806 11.226,21.516 9.900 C 20.646 5.919,17.318 2.867,13.280 2.345 C 12.793 2.282,11.994 2.246,11.560 2.267 " stroke="none" fill-rule="evenodd" fill="black"></path></svg>