<svg width="24" height="24" viewBox="0 0 24 24" fill="none" xmlns="http://www.w3.org/2000/svg"><path d="M8.393 1.282 C 6.328 1.431,4.327 2.476,3.001 4.099 C 2.224 5.050,1.632 6.308,1.403 7.495 C 1.303 8.014,1.230 8.965,1.275 9.162 C 1.450 9.921,2.553 9.921,2.716 9.162 C 2.740 9.049,2.760 8.844,2.761 8.708 C 2.762 8.219,2.905 7.499,3.119 6.896 C 3.439 5.996,3.925 5.241,4.626 4.552 C 5.170 4.017,5.580 3.724,6.240 3.399 C 6.731 3.158,7.592 2.862,7.554 2.948 C 7.546 2.966,7.472 3.100,7.388 3.248 C 7.304 3.395,7.226 3.576,7.214 3.649 C 7.187 3.818,7.255 4.078,7.364 4.216 C 7.626 4.549,8.200 4.569,8.484 4.255 C 8.639 4.084,9.669 2.345,9.716 2.175 C 9.845 1.707,9.419 1.214,8.912 1.246 C 8.862 1.249,8.628 1.265,8.393 1.282 M11.900 4.784 C 10.449 4.965,9.615 5.449,9.125 6.397 C 8.858 6.912,8.734 7.411,8.683 8.169 C 8.667 8.406,8.643 8.610,8.629 8.624 C 8.616 8.638,8.410 8.663,8.172 8.681 C 7.392 8.739,6.909 8.860,6.390 9.128 C 5.808 9.430,5.305 10.006,5.063 10.648 C 4.929 11.004,4.800 11.652,4.800 11.968 C 4.800 12.435,5.094 12.738,5.541 12.733 C 5.652 12.732,5.798 12.702,5.866 12.667 C 6.106 12.543,6.278 12.249,6.280 11.960 C 6.281 11.905,6.307 11.738,6.339 11.589 C 6.513 10.767,6.930 10.375,7.800 10.217 C 8.178 10.149,11.669 10.137,12.142 10.203 C 13.040 10.328,13.473 10.640,13.681 11.313 C 13.819 11.760,13.836 12.034,13.844 14.020 C 13.852 15.713,13.844 15.978,13.783 16.260 C 13.576 17.213,13.133 17.588,12.060 17.717 C 11.605 17.771,8.545 17.773,8.060 17.719 C 6.916 17.592,6.472 17.181,6.298 16.088 C 6.224 15.626,6.124 15.448,5.870 15.325 C 5.387 15.091,4.851 15.384,4.808 15.905 C 4.773 16.331,4.934 17.032,5.183 17.531 C 5.666 18.498,6.454 19.002,7.760 19.181 C 8.265 19.250,11.644 19.264,12.220 19.199 C 12.971 19.115,13.617 18.886,14.081 18.542 C 14.856 17.967,15.241 17.108,15.343 15.733 C 15.374 15.314,15.366 15.322,15.780 15.320 C 16.120 15.319,16.721 15.215,17.077 15.096 C 17.532 14.943,17.892 14.737,18.195 14.456 C 18.678 14.010,18.943 13.503,19.126 12.680 C 19.218 12.267,19.220 12.221,19.220 10.040 C 19.220 7.867,19.218 7.811,19.127 7.401 C 18.921 6.466,18.526 5.824,17.901 5.406 C 17.529 5.157,17.120 4.988,16.619 4.876 C 16.237 4.791,16.129 4.787,14.120 4.778 C 12.965 4.773,11.966 4.776,11.900 4.784 M16.340 6.335 C 17.128 6.520,17.489 6.891,17.669 7.702 C 17.732 7.983,17.740 8.255,17.740 10.060 C 17.740 12.290,17.731 12.399,17.497 12.920 C 17.386 13.167,17.117 13.457,16.891 13.574 C 16.659 13.695,16.177 13.803,15.770 13.828 L 15.360 13.852 15.360 12.995 C 15.360 11.669,15.260 11.084,14.912 10.360 C 14.738 10.000,14.663 9.894,14.385 9.618 C 14.029 9.265,13.646 9.038,13.140 8.881 C 12.590 8.711,12.258 8.672,11.184 8.651 L 10.148 8.630 10.173 8.225 C 10.248 6.962,10.711 6.441,11.900 6.284 C 12.054 6.264,13.053 6.252,14.120 6.258 C 15.751 6.268,16.105 6.280,16.340 6.335 M21.815 14.277 C 21.641 14.320,21.462 14.456,21.359 14.622 C 21.288 14.737,21.266 14.858,21.237 15.291 C 21.187 16.062,21.106 16.471,20.880 17.107 C 20.567 17.988,20.063 18.771,19.374 19.449 C 18.843 19.971,18.438 20.260,17.769 20.594 C 17.278 20.839,16.407 21.140,16.446 21.052 C 16.454 21.034,16.528 20.900,16.612 20.752 C 16.696 20.605,16.774 20.424,16.786 20.351 C 16.813 20.182,16.745 19.922,16.636 19.784 C 16.374 19.451,15.800 19.431,15.516 19.745 C 15.355 19.922,14.328 21.660,14.281 21.835 C 14.175 22.230,14.425 22.622,14.844 22.716 C 15.090 22.772,15.988 22.701,16.567 22.582 C 17.737 22.340,18.931 21.782,19.837 21.054 C 20.159 20.795,20.733 20.225,21.000 19.900 C 21.995 18.685,22.604 17.146,22.717 15.559 C 22.760 14.954,22.731 14.735,22.580 14.536 C 22.421 14.327,22.078 14.211,21.815 14.277 " stroke="none" fill-rule="evenodd" fill="black"></path></svg>