<svg width="24" height="24" viewBox="0 0 24 24" fill="none" xmlns="http://www.w3.org/2000/svg"><path d="M11.560 1.267 C 10.326 1.322,9.152 1.571,8.041 2.012 C 7.427 2.256,7.240 2.454,7.240 2.860 C 7.240 3.229,7.525 3.548,7.892 3.589 C 8.032 3.605,8.152 3.574,8.523 3.428 C 9.718 2.955,10.735 2.760,12.006 2.760 C 13.464 2.760,14.754 3.058,16.060 3.698 C 17.024 4.170,17.648 4.611,18.434 5.378 C 19.273 6.195,19.814 6.937,20.303 7.940 C 20.944 9.253,21.240 10.537,21.240 12.000 C 21.240 13.465,20.943 14.752,20.302 16.060 C 19.830 17.024,19.389 17.648,18.622 18.434 C 17.805 19.273,17.063 19.814,16.060 20.303 C 14.747 20.944,13.463 21.240,12.000 21.240 C 10.537 21.240,9.253 20.944,7.940 20.303 C 6.937 19.814,6.195 19.273,5.378 18.434 C 4.611 17.648,4.170 17.024,3.698 16.060 C 3.058 14.754,2.760 13.464,2.760 12.005 C 2.760 10.060,3.331 8.256,4.457 6.648 C 4.701 6.298,4.770 6.095,4.724 5.855 C 4.656 5.497,4.372 5.267,4.000 5.267 C 3.678 5.267,3.534 5.369,3.222 5.816 C 1.432 8.383,0.834 11.537,1.564 14.550 C 1.904 15.951,2.529 17.268,3.424 18.470 C 3.880 19.083,4.909 20.111,5.530 20.575 C 7.606 22.126,10.070 22.870,12.627 22.717 C 14.790 22.588,16.724 21.879,18.470 20.575 C 19.087 20.115,20.115 19.087,20.575 18.470 C 22.127 16.391,22.870 13.930,22.717 11.373 C 22.588 9.210,21.879 7.276,20.575 5.530 C 20.115 4.913,19.087 3.885,18.470 3.425 C 17.047 2.362,15.454 1.679,13.742 1.398 C 13.325 1.330,12.055 1.227,11.880 1.248 C 11.847 1.252,11.703 1.261,11.560 1.267 M11.137 7.102 C 9.113 7.443,7.455 9.102,7.103 11.140 C 7.023 11.601,7.023 12.399,7.103 12.860 C 7.458 14.916,9.122 16.568,11.173 16.900 C 12.229 17.071,13.722 16.838,14.121 16.439 C 14.527 16.033,14.332 15.337,13.775 15.204 C 13.597 15.161,13.546 15.167,13.186 15.278 C 12.492 15.492,11.984 15.531,11.355 15.421 C 10.572 15.284,9.908 14.892,9.322 14.220 C 8.251 12.991,8.253 11.006,9.327 9.776 C 9.913 9.104,10.571 8.716,11.355 8.579 C 12.413 8.393,13.469 8.669,14.225 9.327 C 15.001 10.003,15.397 10.775,15.463 11.740 C 15.492 12.172,15.534 12.323,15.668 12.482 C 15.987 12.861,16.628 12.800,16.870 12.368 C 16.974 12.185,16.991 11.765,16.917 11.268 C 16.596 9.137,14.932 7.441,12.827 7.100 C 12.381 7.028,11.575 7.029,11.137 7.102 " stroke="none" fill-rule="evenodd" fill="black"></path></svg>