<svg width="24" height="24" viewBox="0 0 24 24" fill="none" xmlns="http://www.w3.org/2000/svg"><path d="M17.260 5.017 C 17.111 5.083,16.939 5.264,16.883 5.413 C 16.820 5.577,16.831 5.865,16.904 6.012 C 16.939 6.082,17.285 6.460,17.674 6.850 L 18.379 7.560 15.622 7.560 C 12.895 7.560,12.863 7.561,12.690 7.645 C 12.423 7.774,12.300 7.988,12.300 8.323 C 12.300 8.564,12.313 8.609,12.423 8.746 C 12.671 9.057,12.492 9.040,15.537 9.040 L 18.255 9.040 17.608 9.695 C 17.228 10.079,16.935 10.409,16.900 10.494 C 16.772 10.799,16.863 11.207,17.101 11.394 C 17.345 11.586,17.726 11.603,17.973 11.434 C 18.157 11.309,20.540 8.934,20.703 8.714 C 20.864 8.497,20.914 8.246,20.840 8.015 C 20.801 7.893,20.501 7.569,19.425 6.487 C 18.674 5.732,17.993 5.079,17.912 5.037 C 17.739 4.947,17.437 4.938,17.260 5.017 M8.260 7.604 C 6.509 7.783,4.963 8.756,3.988 10.289 C 3.104 11.679,2.889 13.520,3.424 15.120 C 4.030 16.932,5.499 18.329,7.340 18.843 C 8.040 19.039,8.056 19.040,12.687 19.040 C 15.662 19.040,17.070 19.027,17.147 18.997 C 17.712 18.784,17.758 17.941,17.220 17.646 C 17.111 17.586,16.684 17.578,12.660 17.560 L 8.220 17.539 7.820 17.430 C 6.333 17.023,5.205 15.921,4.782 14.463 C 4.225 12.541,5.152 10.428,6.950 9.525 C 7.480 9.258,7.925 9.135,8.571 9.077 C 8.818 9.055,9.075 9.019,9.143 8.997 C 9.289 8.951,9.498 8.744,9.558 8.587 C 9.658 8.322,9.571 7.931,9.373 7.752 C 9.169 7.567,8.928 7.535,8.260 7.604 " stroke="none" fill-rule="evenodd" fill="black"></path></svg>