<svg width="24" height="24" viewBox="0 0 24 24" fill="none" xmlns="http://www.w3.org/2000/svg"><path d="M11.560 1.267 C 10.326 1.322,9.152 1.571,8.041 2.012 C 7.427 2.256,7.240 2.454,7.240 2.860 C 7.240 3.229,7.525 3.548,7.892 3.589 C 8.032 3.605,8.152 3.574,8.523 3.428 C 9.718 2.955,10.735 2.760,12.006 2.760 C 13.464 2.760,14.754 3.058,16.060 3.698 C 17.024 4.170,17.648 4.611,18.434 5.378 C 19.273 6.195,19.814 6.937,20.303 7.940 C 20.944 9.253,21.240 10.537,21.240 12.000 C 21.240 13.465,20.943 14.752,20.302 16.060 C 19.830 17.024,19.389 17.648,18.622 18.434 C 17.805 19.273,17.063 19.814,16.060 20.303 C 14.747 20.944,13.463 21.240,12.000 21.240 C 10.537 21.240,9.253 20.944,7.940 20.303 C 6.937 19.814,6.195 19.273,5.378 18.434 C 4.611 17.648,4.170 17.024,3.698 16.060 C 3.058 14.754,2.760 13.464,2.760 12.005 C 2.760 10.060,3.331 8.256,4.457 6.648 C 4.701 6.298,4.770 6.095,4.724 5.855 C 4.656 5.497,4.372 5.267,4.000 5.267 C 3.678 5.267,3.534 5.369,3.222 5.816 C 1.432 8.383,0.834 11.537,1.564 14.550 C 1.904 15.951,2.529 17.268,3.424 18.470 C 3.880 19.083,4.909 20.111,5.530 20.575 C 7.606 22.126,10.070 22.870,12.627 22.717 C 14.790 22.588,16.724 21.879,18.470 20.575 C 19.087 20.115,20.115 19.087,20.575 18.470 C 22.127 16.391,22.870 13.930,22.717 11.373 C 22.588 9.210,21.879 7.276,20.575 5.530 C 20.115 4.913,19.087 3.885,18.470 3.425 C 17.047 2.362,15.454 1.679,13.742 1.398 C 13.325 1.330,12.055 1.227,11.880 1.248 C 11.847 1.252,11.703 1.261,11.560 1.267 M15.860 6.155 C 15.517 6.313,15.440 6.505,15.440 7.199 C 15.440 7.485,15.429 7.720,15.416 7.720 C 15.402 7.720,15.326 7.668,15.246 7.605 C 14.876 7.314,14.221 6.979,13.680 6.805 C 12.551 6.442,11.255 6.462,10.154 6.860 C 8.722 7.376,7.528 8.502,6.977 9.855 C 6.805 10.275,6.646 10.868,6.614 11.206 C 6.593 11.433,6.603 11.500,6.679 11.659 C 6.811 11.930,7.024 12.060,7.337 12.060 C 7.778 12.059,7.998 11.841,8.101 11.301 C 8.266 10.441,8.609 9.782,9.198 9.198 C 9.796 8.603,10.425 8.271,11.280 8.098 C 11.767 7.999,12.568 8.034,13.060 8.176 C 13.426 8.282,14.118 8.601,14.203 8.704 C 14.243 8.752,14.180 8.760,13.783 8.760 C 13.398 8.760,13.290 8.774,13.162 8.839 C 12.872 8.987,12.727 9.281,12.778 9.621 C 12.818 9.885,13.109 10.182,13.365 10.219 C 13.461 10.233,14.190 10.239,14.983 10.232 L 16.427 10.220 16.592 10.106 C 16.686 10.040,16.792 9.918,16.839 9.823 C 16.916 9.663,16.920 9.583,16.919 8.157 C 16.918 6.790,16.912 6.646,16.845 6.500 C 16.757 6.310,16.668 6.224,16.470 6.142 C 16.275 6.060,16.056 6.065,15.860 6.155 M16.437 11.956 C 16.113 12.061,15.999 12.235,15.867 12.825 C 15.812 13.069,15.709 13.407,15.639 13.576 C 15.193 14.647,14.235 15.482,13.060 15.823 C 12.569 15.966,11.769 16.001,11.280 15.902 C 10.723 15.790,10.095 15.538,9.840 15.326 L 9.740 15.243 10.212 15.241 C 10.600 15.240,10.710 15.226,10.838 15.161 C 11.128 15.013,11.273 14.719,11.222 14.379 C 11.182 14.115,10.891 13.818,10.635 13.781 C 10.539 13.767,9.810 13.761,9.017 13.768 L 7.573 13.780 7.408 13.894 C 7.314 13.960,7.208 14.082,7.161 14.177 C 7.084 14.337,7.080 14.418,7.080 15.834 C 7.080 17.404,7.089 17.488,7.272 17.694 C 7.374 17.810,7.640 17.918,7.820 17.918 C 8.000 17.918,8.266 17.810,8.368 17.694 C 8.520 17.523,8.560 17.339,8.560 16.801 C 8.560 16.515,8.571 16.280,8.584 16.280 C 8.598 16.280,8.674 16.332,8.754 16.395 C 9.469 16.958,10.534 17.354,11.554 17.436 C 13.540 17.596,15.427 16.688,16.554 15.031 C 16.733 14.767,17.054 14.111,17.155 13.800 C 17.272 13.442,17.398 12.852,17.399 12.663 C 17.400 12.443,17.259 12.174,17.081 12.056 C 16.919 11.949,16.607 11.901,16.437 11.956 " stroke="none" fill-rule="evenodd" fill="black"></path></svg>