<svg width="24" height="24" viewBox="0 0 24 24" fill="none" xmlns="http://www.w3.org/2000/svg"><path d="M8.080 1.282 C 4.042 1.493,1.931 3.265,1.398 6.891 C 1.310 7.494,1.225 8.895,1.264 9.113 C 1.278 9.194,1.325 9.318,1.368 9.389 C 1.658 9.870,2.422 9.836,2.661 9.332 C 2.718 9.212,2.740 9.022,2.765 8.423 C 2.900 5.187,3.905 3.654,6.288 3.044 C 7.337 2.776,7.247 2.780,12.000 2.780 C 15.936 2.780,16.339 2.786,16.760 2.852 C 19.558 3.288,20.712 4.442,21.148 7.240 C 21.214 7.661,21.220 8.064,21.220 12.000 C 21.220 15.936,21.214 16.339,21.148 16.760 C 20.712 19.558,19.558 20.712,16.760 21.148 C 16.339 21.214,15.936 21.220,12.000 21.220 C 8.064 21.220,7.661 21.214,7.240 21.148 C 4.756 20.761,3.576 19.795,3.044 17.712 C 2.844 16.928,2.793 16.449,2.764 15.080 C 2.735 13.687,2.722 13.616,2.464 13.421 C 2.095 13.142,1.598 13.236,1.353 13.631 C 1.271 13.763,1.259 13.841,1.246 14.325 C 1.226 15.057,1.302 16.458,1.398 17.107 C 1.885 20.415,3.654 22.148,7.027 22.622 C 7.786 22.728,8.902 22.759,12.000 22.759 C 15.098 22.759,16.214 22.728,16.973 22.622 C 19.443 22.275,20.996 21.288,21.897 19.490 C 22.379 18.530,22.638 17.369,22.720 15.807 C 22.771 14.838,22.771 9.162,22.720 8.193 C 22.657 6.998,22.521 6.191,22.242 5.356 C 21.632 3.531,20.469 2.367,18.650 1.760 C 17.788 1.473,17.023 1.344,15.806 1.280 C 14.952 1.235,8.952 1.237,8.080 1.282 M10.980 5.057 C 10.833 5.123,10.686 5.277,9.780 6.318 C 8.887 7.342,8.880 7.352,8.880 7.630 C 8.880 7.890,8.967 8.091,9.136 8.222 C 9.437 8.454,10.997 9.585,11.158 9.687 C 11.663 10.008,12.305 9.647,12.291 9.049 C 12.284 8.754,12.193 8.621,11.791 8.320 C 11.459 8.072,11.449 8.059,11.552 8.035 C 11.883 7.957,12.733 8.039,13.244 8.198 C 13.931 8.411,14.459 8.735,15.003 9.278 C 15.559 9.832,15.913 10.446,16.129 11.233 C 16.199 11.488,16.214 11.658,16.217 12.240 C 16.220 13.009,16.168 13.299,15.917 13.902 C 15.618 14.619,14.975 15.394,14.330 15.813 C 13.518 16.341,12.495 16.592,11.586 16.486 C 10.530 16.363,9.741 15.985,8.997 15.242 C 8.438 14.685,8.077 14.057,7.874 13.287 C 7.769 12.886,7.730 12.036,7.799 11.611 C 7.888 11.052,8.121 10.433,8.421 9.958 C 8.696 9.523,8.596 9.042,8.189 8.834 C 7.843 8.658,7.453 8.755,7.215 9.077 C 7.040 9.314,6.675 10.057,6.547 10.440 C 6.220 11.414,6.178 12.629,6.436 13.652 C 6.980 15.805,8.654 17.412,10.850 17.887 C 11.191 17.961,11.385 17.976,12.000 17.976 C 12.836 17.976,13.258 17.908,13.932 17.664 C 16.072 16.889,17.552 14.952,17.716 12.710 C 17.906 10.102,16.382 7.743,13.932 6.856 C 13.378 6.656,12.861 6.559,12.192 6.532 L 11.605 6.509 11.758 6.324 C 11.971 6.067,12.011 5.974,12.011 5.741 C 12.011 5.314,11.693 4.998,11.267 5.002 C 11.175 5.002,11.046 5.027,10.980 5.057 " stroke="none" fill-rule="evenodd" fill="black"></path></svg>