<svg width="24" height="24" viewBox="0 0 24 24" fill="none" xmlns="http://www.w3.org/2000/svg"><path d="M11.600 1.268 C 9.569 1.338,7.600 1.988,5.913 3.147 C 5.461 3.458,5.340 3.599,5.297 3.868 C 5.222 4.336,5.675 4.783,6.147 4.707 C 6.232 4.693,6.462 4.571,6.693 4.417 C 7.283 4.025,7.651 3.814,8.120 3.602 C 9.431 3.008,10.581 2.761,12.040 2.760 C 13.749 2.760,15.268 3.118,16.780 3.879 C 17.915 4.450,18.914 5.187,19.899 6.177 L 20.498 6.780 18.919 6.800 C 17.343 6.820,17.340 6.820,17.187 6.915 C 16.945 7.066,16.827 7.278,16.827 7.563 C 16.827 7.763,16.846 7.830,16.943 7.968 C 17.008 8.059,17.132 8.170,17.220 8.216 C 17.376 8.298,17.438 8.300,19.660 8.313 C 21.288 8.322,22.001 8.312,22.154 8.279 C 22.429 8.219,22.647 8.013,22.714 7.749 C 22.777 7.497,22.779 2.692,22.716 2.398 C 22.575 1.742,21.713 1.611,21.353 2.191 C 21.261 2.339,21.260 2.350,21.248 3.852 L 21.236 5.364 20.794 4.942 C 19.162 3.377,17.343 2.301,15.360 1.726 C 14.234 1.399,12.812 1.226,11.600 1.268 M3.160 6.277 C 2.833 6.377,2.722 6.511,2.349 7.260 C 1.722 8.519,1.368 9.885,1.284 11.366 C 1.245 12.060,1.261 12.232,1.379 12.413 C 1.678 12.870,2.428 12.824,2.660 12.335 C 2.712 12.225,2.739 12.022,2.763 11.563 C 2.843 10.057,3.144 8.976,3.879 7.549 C 3.989 7.334,4.080 7.109,4.080 7.049 C 4.079 6.694,3.867 6.395,3.549 6.300 C 3.326 6.234,3.306 6.233,3.160 6.277 M21.815 11.277 C 21.640 11.320,21.462 11.456,21.358 11.624 C 21.281 11.747,21.265 11.853,21.235 12.433 C 21.160 13.855,20.837 15.042,20.180 16.310 C 19.907 16.837,19.867 17.015,19.963 17.267 C 20.089 17.602,20.501 17.811,20.848 17.718 C 21.119 17.645,21.275 17.458,21.588 16.834 C 22.287 15.440,22.630 14.158,22.716 12.619 C 22.755 11.934,22.729 11.732,22.580 11.536 C 22.421 11.327,22.078 11.211,21.815 11.277 M3.020 15.699 C 2.998 15.707,2.932 15.724,2.873 15.736 C 2.718 15.771,2.520 15.952,2.435 16.138 C 2.366 16.290,2.362 16.465,2.361 18.931 C 2.360 21.773,2.356 21.722,2.572 21.953 C 2.894 22.298,3.504 22.227,3.744 21.817 L 3.840 21.653 3.840 20.166 C 3.840 19.349,3.847 18.680,3.856 18.680 C 3.864 18.680,4.103 18.911,4.386 19.193 C 5.530 20.335,6.628 21.140,7.860 21.741 C 9.302 22.444,10.472 22.722,12.000 22.725 C 13.628 22.727,15.062 22.414,16.540 21.732 C 17.342 21.362,18.487 20.627,18.635 20.388 C 18.896 19.966,18.674 19.403,18.198 19.276 C 17.932 19.205,17.774 19.253,17.377 19.526 C 15.684 20.688,13.953 21.241,12.023 21.239 C 10.734 21.238,9.707 20.993,8.500 20.401 C 7.282 19.803,6.025 18.820,4.995 17.660 L 4.604 17.220 6.212 17.200 L 7.820 17.180 8.000 17.074 C 8.486 16.788,8.486 16.092,8.000 15.806 L 7.820 15.700 5.440 15.692 C 4.131 15.688,3.042 15.691,3.020 15.699 " stroke="none" fill-rule="evenodd" fill="black"></path></svg>