<svg width="24" height="24" viewBox="0 0 24 24" fill="none" xmlns="http://www.w3.org/2000/svg"><path d="M8.080 1.282 C 4.042 1.493,1.931 3.265,1.398 6.891 C 1.310 7.494,1.225 8.895,1.264 9.113 C 1.278 9.194,1.325 9.318,1.368 9.389 C 1.658 9.870,2.422 9.836,2.661 9.332 C 2.718 9.212,2.740 9.022,2.765 8.423 C 2.900 5.187,3.905 3.654,6.288 3.044 C 7.337 2.776,7.247 2.780,12.000 2.780 C 15.936 2.780,16.339 2.786,16.760 2.852 C 19.558 3.288,20.712 4.442,21.148 7.240 C 21.214 7.661,21.220 8.064,21.220 12.000 C 21.220 15.936,21.214 16.339,21.148 16.760 C 20.712 19.558,19.558 20.712,16.760 21.148 C 16.339 21.214,15.936 21.220,12.000 21.220 C 8.064 21.220,7.661 21.214,7.240 21.148 C 4.756 20.761,3.576 19.795,3.044 17.712 C 2.844 16.928,2.793 16.449,2.764 15.080 C 2.735 13.687,2.722 13.616,2.464 13.421 C 2.095 13.142,1.598 13.236,1.353 13.631 C 1.271 13.763,1.259 13.841,1.246 14.325 C 1.226 15.057,1.302 16.458,1.398 17.107 C 1.885 20.415,3.654 22.148,7.027 22.622 C 7.786 22.728,8.902 22.759,12.000 22.759 C 15.098 22.759,16.214 22.728,16.973 22.622 C 19.443 22.275,20.996 21.288,21.897 19.490 C 22.379 18.530,22.638 17.369,22.720 15.807 C 22.771 14.838,22.771 9.162,22.720 8.193 C 22.657 6.998,22.521 6.191,22.242 5.356 C 21.632 3.531,20.469 2.367,18.650 1.760 C 17.788 1.473,17.023 1.344,15.806 1.280 C 14.952 1.235,8.952 1.237,8.080 1.282 M11.380 5.787 C 9.857 5.974,8.601 6.569,7.585 7.585 C 6.501 8.669,5.871 10.074,5.774 11.623 C 5.742 12.127,5.771 12.284,5.928 12.463 C 6.096 12.655,6.260 12.731,6.500 12.731 C 6.727 12.731,6.889 12.661,7.047 12.494 C 7.186 12.347,7.240 12.201,7.241 11.967 C 7.245 11.052,7.611 9.943,8.150 9.217 C 9.189 7.817,10.780 7.106,12.492 7.275 C 13.245 7.350,13.695 7.472,14.344 7.779 C 14.823 8.005,15.142 8.206,15.580 8.556 L 15.860 8.780 15.360 8.803 C 14.823 8.828,14.703 8.865,14.513 9.066 C 14.319 9.271,14.263 9.587,14.374 9.852 C 14.439 10.007,14.679 10.227,14.831 10.269 C 14.973 10.309,17.587 10.309,17.729 10.269 C 17.881 10.227,18.121 10.007,18.186 9.852 C 18.228 9.751,18.240 9.385,18.240 8.180 C 18.240 6.742,18.235 6.627,18.164 6.488 C 18.017 6.202,17.814 6.080,17.487 6.080 C 17.252 6.080,17.061 6.176,16.903 6.374 C 16.783 6.523,16.780 6.540,16.760 7.047 L 16.740 7.566 16.400 7.300 C 15.341 6.470,14.213 5.991,12.917 5.820 C 12.510 5.766,11.692 5.748,11.380 5.787 M17.340 11.277 C 17.162 11.320,17.065 11.381,16.927 11.538 C 16.791 11.693,16.784 11.724,16.719 12.436 C 16.637 13.344,16.319 14.169,15.777 14.880 C 15.548 15.181,14.951 15.747,14.660 15.939 C 14.033 16.353,13.326 16.613,12.560 16.710 C 12.139 16.764,11.992 16.766,11.629 16.726 C 10.683 16.621,9.762 16.175,8.923 15.416 L 8.705 15.220 9.245 15.198 C 9.733 15.179,9.802 15.167,9.963 15.072 C 10.446 14.789,10.445 14.091,9.960 13.806 L 9.780 13.700 8.380 13.700 C 7.610 13.700,6.932 13.713,6.873 13.730 C 6.713 13.775,6.518 13.957,6.435 14.138 C 6.368 14.286,6.362 14.432,6.361 15.811 C 6.360 17.407,6.368 17.490,6.552 17.693 C 6.731 17.891,7.122 17.978,7.387 17.877 C 7.511 17.831,7.701 17.665,7.773 17.540 C 7.799 17.496,7.829 17.241,7.840 16.973 L 7.860 16.487 8.200 16.765 C 9.500 17.827,10.786 18.292,12.252 18.229 C 14.564 18.130,16.558 16.829,17.615 14.731 C 17.931 14.102,18.179 13.151,18.226 12.389 C 18.258 11.872,18.229 11.716,18.072 11.537 C 17.874 11.312,17.601 11.215,17.340 11.277 " stroke="none" fill-rule="evenodd" fill="black"></path></svg>