<svg width="24" height="24" viewBox="0 0 24 24" fill="none" xmlns="http://www.w3.org/2000/svg"><path d="M11.560 1.267 C 10.326 1.322,9.152 1.571,8.041 2.012 C 7.427 2.256,7.240 2.454,7.240 2.860 C 7.240 3.229,7.525 3.548,7.892 3.589 C 8.032 3.605,8.152 3.574,8.523 3.428 C 9.718 2.955,10.735 2.760,12.006 2.760 C 13.464 2.760,14.754 3.058,16.060 3.698 C 17.024 4.170,17.648 4.611,18.434 5.378 C 19.273 6.195,19.814 6.937,20.303 7.940 C 20.944 9.253,21.240 10.537,21.240 12.000 C 21.240 13.465,20.943 14.752,20.302 16.060 C 19.830 17.024,19.389 17.648,18.622 18.434 C 17.805 19.273,17.063 19.814,16.060 20.303 C 14.747 20.944,13.463 21.240,12.000 21.240 C 10.537 21.240,9.253 20.944,7.940 20.303 C 6.937 19.814,6.195 19.273,5.378 18.434 C 4.611 17.648,4.170 17.024,3.698 16.060 C 3.058 14.754,2.760 13.464,2.760 12.005 C 2.760 10.060,3.331 8.256,4.457 6.648 C 4.701 6.298,4.770 6.095,4.724 5.855 C 4.656 5.497,4.372 5.267,4.000 5.267 C 3.678 5.267,3.534 5.369,3.222 5.816 C 1.432 8.383,0.834 11.537,1.564 14.550 C 1.904 15.951,2.529 17.268,3.424 18.470 C 3.880 19.083,4.909 20.111,5.530 20.575 C 7.606 22.126,10.070 22.870,12.627 22.717 C 14.790 22.588,16.724 21.879,18.470 20.575 C 19.087 20.115,20.115 19.087,20.575 18.470 C 22.127 16.391,22.870 13.930,22.717 11.373 C 22.588 9.210,21.879 7.276,20.575 5.530 C 20.115 4.913,19.087 3.885,18.470 3.425 C 17.047 2.362,15.454 1.679,13.742 1.398 C 13.325 1.330,12.055 1.227,11.880 1.248 C 11.847 1.252,11.703 1.261,11.560 1.267 M8.880 5.982 C 8.700 6.062,6.890 7.858,6.816 8.029 C 6.750 8.181,6.743 8.469,6.802 8.627 C 6.857 8.775,8.657 10.583,8.848 10.683 C 9.012 10.768,9.292 10.784,9.467 10.717 C 9.739 10.615,9.920 10.335,9.920 10.019 C 9.920 9.777,9.841 9.630,9.547 9.330 L 9.302 9.080 12.181 9.081 C 14.888 9.082,15.070 9.086,15.220 9.155 C 15.308 9.196,15.431 9.280,15.494 9.343 C 15.736 9.588,15.738 9.600,15.760 10.846 L 15.780 11.993 15.903 12.146 C 16.061 12.344,16.252 12.440,16.487 12.440 C 16.817 12.440,17.017 12.318,17.167 12.026 C 17.242 11.880,17.245 11.805,17.230 10.646 C 17.216 9.493,17.209 9.405,17.124 9.171 C 16.883 8.508,16.339 7.967,15.657 7.710 C 15.420 7.620,15.418 7.620,12.362 7.609 L 9.305 7.597 9.570 7.329 C 9.865 7.031,9.920 6.923,9.920 6.647 C 9.920 6.413,9.824 6.221,9.629 6.065 C 9.445 5.918,9.106 5.880,8.880 5.982 M7.163 11.630 C 7.087 11.669,6.970 11.769,6.903 11.854 L 6.780 12.008 6.780 13.274 C 6.780 14.493,6.783 14.550,6.872 14.808 C 7.102 15.473,7.657 16.035,8.331 16.286 L 8.580 16.379 11.638 16.391 L 14.695 16.403 14.430 16.671 C 14.284 16.819,14.145 16.991,14.122 17.053 C 14.068 17.198,14.068 17.483,14.123 17.627 C 14.261 17.992,14.730 18.177,15.111 18.018 C 15.297 17.940,17.104 16.156,17.184 15.971 C 17.250 15.819,17.257 15.531,17.198 15.373 C 17.143 15.225,15.343 13.417,15.152 13.317 C 14.988 13.232,14.708 13.216,14.533 13.283 C 14.261 13.385,14.080 13.665,14.080 13.981 C 14.080 14.224,14.159 14.370,14.454 14.671 L 14.700 14.922 11.780 14.911 C 8.569 14.899,8.767 14.914,8.503 14.654 C 8.257 14.409,8.242 14.326,8.241 13.168 C 8.240 12.214,8.233 12.103,8.164 11.968 C 8.072 11.789,7.939 11.660,7.787 11.603 C 7.618 11.538,7.317 11.551,7.163 11.630 " stroke="none" fill-rule="evenodd" fill="black"></path></svg>