<svg width="24" height="24" viewBox="0 0 24 24" fill="none" xmlns="http://www.w3.org/2000/svg"><path d="M13.740 1.995 C 13.652 2.036,13.549 2.103,13.512 2.146 C 13.409 2.262,13.320 2.500,13.320 2.660 C 13.320 2.938,13.420 3.081,14.030 3.668 L 14.620 4.237 13.775 4.238 C 13.310 4.239,12.870 4.252,12.796 4.267 C 12.713 4.283,12.592 4.365,12.475 4.482 C 12.322 4.634,12.281 4.706,12.258 4.859 C 12.208 5.196,12.352 5.493,12.636 5.638 C 12.774 5.708,12.916 5.714,14.742 5.727 C 16.924 5.742,16.817 5.754,17.072 5.463 C 17.269 5.239,17.296 4.830,17.130 4.603 C 16.953 4.364,14.531 2.068,14.380 1.997 C 14.178 1.902,13.945 1.901,13.740 1.995 M7.860 4.266 C 6.067 4.483,4.530 5.236,3.348 6.478 C 1.054 8.889,0.663 12.439,2.381 15.267 C 2.754 15.883,3.386 16.630,3.642 16.761 C 4.090 16.989,4.653 16.685,4.709 16.185 C 4.740 15.918,4.664 15.757,4.336 15.393 C 3.020 13.934,2.524 12.008,2.979 10.131 C 3.380 8.479,4.525 7.069,6.100 6.290 C 6.688 5.999,7.535 5.785,8.280 5.739 C 8.796 5.708,8.912 5.674,9.068 5.509 C 9.244 5.324,9.291 5.211,9.291 4.981 C 9.291 4.673,9.100 4.386,8.827 4.283 C 8.723 4.243,8.135 4.233,7.860 4.266 M20.020 6.820 C 19.998 6.827,19.931 6.844,19.871 6.857 C 19.724 6.889,19.481 7.108,19.414 7.268 C 19.345 7.434,19.345 7.687,19.415 7.851 C 19.445 7.922,19.576 8.097,19.707 8.240 C 20.737 9.368,21.247 10.668,21.247 12.160 C 21.247 12.828,21.168 13.333,20.965 13.951 C 20.671 14.846,20.227 15.566,19.556 16.235 C 18.738 17.050,17.853 17.531,16.620 17.828 C 16.368 17.889,15.880 17.898,11.814 17.918 L 7.287 17.940 7.134 18.064 C 7.049 18.133,6.946 18.247,6.904 18.318 C 6.802 18.492,6.803 18.829,6.906 19.007 C 6.996 19.159,9.383 21.475,9.610 21.629 C 9.722 21.705,9.814 21.732,9.970 21.733 C 10.490 21.739,10.835 21.310,10.715 20.809 C 10.675 20.639,10.607 20.558,10.045 20.006 L 9.420 19.393 12.461 19.416 C 14.386 19.431,15.701 19.424,16.041 19.399 C 17.768 19.267,19.387 18.523,20.615 17.295 C 22.117 15.792,22.906 13.669,22.727 11.610 C 22.621 10.386,22.307 9.418,21.681 8.381 C 21.317 7.780,20.689 7.031,20.440 6.902 C 20.332 6.847,20.085 6.798,20.020 6.820 M8.815 11.278 C 8.331 11.393,8.098 12.004,8.383 12.408 C 8.447 12.499,8.572 12.610,8.660 12.656 C 8.818 12.739,8.865 12.740,11.878 12.751 C 14.020 12.759,15.000 12.749,15.151 12.718 C 15.902 12.562,15.931 11.473,15.189 11.286 C 14.979 11.234,9.033 11.226,8.815 11.278 " stroke="none" fill-rule="evenodd" fill="black"></path></svg>