<svg width="24" height="24" viewBox="0 0 24 24" fill="none" xmlns="http://www.w3.org/2000/svg"><path d="M13.801 2.286 C 13.400 2.404,13.186 2.779,13.285 3.193 C 13.325 3.361,13.395 3.443,13.955 3.989 L 14.580 4.599 13.673 4.599 C 13.130 4.600,12.720 4.617,12.653 4.643 C 12.021 4.881,12.064 5.852,12.715 6.042 C 12.811 6.070,13.518 6.080,14.786 6.072 L 16.713 6.060 16.866 5.936 C 16.951 5.867,17.054 5.753,17.096 5.682 C 17.198 5.508,17.197 5.171,17.094 4.993 C 17.005 4.842,14.614 2.522,14.400 2.380 C 14.232 2.268,13.991 2.231,13.801 2.286 M7.900 4.600 C 4.601 4.875,1.845 7.456,1.338 10.745 C 1.249 11.324,1.249 12.356,1.338 12.935 C 1.555 14.343,2.213 15.699,3.200 16.772 C 3.499 17.097,3.631 17.171,3.906 17.171 C 4.326 17.171,4.640 16.859,4.640 16.443 C 4.640 16.188,4.576 16.060,4.298 15.758 C 3.509 14.899,2.989 13.826,2.816 12.700 C 2.746 12.239,2.746 11.441,2.816 10.980 C 3.097 9.148,4.301 7.497,5.952 6.681 C 6.737 6.294,7.291 6.148,8.224 6.082 C 8.739 6.046,8.867 6.004,9.047 5.814 C 9.181 5.673,9.240 5.521,9.240 5.320 C 9.240 5.119,9.181 4.967,9.047 4.826 C 8.823 4.589,8.589 4.543,7.900 4.600 M20.020 6.820 C 19.998 6.827,19.931 6.844,19.871 6.857 C 19.724 6.889,19.481 7.108,19.414 7.268 C 19.345 7.434,19.345 7.687,19.415 7.851 C 19.445 7.922,19.576 8.097,19.707 8.240 C 20.737 9.368,21.247 10.668,21.247 12.160 C 21.247 12.828,21.168 13.333,20.965 13.951 C 20.672 14.841,20.236 15.553,19.578 16.214 C 18.752 17.043,17.863 17.528,16.620 17.828 C 16.368 17.889,15.880 17.898,11.814 17.918 L 7.287 17.940 7.134 18.064 C 7.049 18.133,6.946 18.247,6.904 18.318 C 6.802 18.492,6.803 18.829,6.906 19.007 C 6.996 19.159,9.383 21.475,9.610 21.629 C 9.722 21.705,9.814 21.732,9.970 21.733 C 10.490 21.739,10.835 21.310,10.715 20.809 C 10.675 20.639,10.607 20.558,10.045 20.006 L 9.420 19.393 12.461 19.416 C 14.386 19.431,15.701 19.424,16.041 19.399 C 17.771 19.267,19.385 18.525,20.615 17.295 C 22.119 15.791,22.906 13.671,22.727 11.610 C 22.621 10.386,22.307 9.418,21.681 8.381 C 21.317 7.780,20.689 7.031,20.440 6.902 C 20.332 6.847,20.085 6.798,20.020 6.820 M11.938 8.656 C 11.748 8.739,10.199 10.440,10.077 10.700 C 9.910 11.056,10.060 11.483,10.419 11.669 C 10.702 11.817,11.173 11.702,11.359 11.441 C 11.407 11.374,11.462 11.320,11.483 11.320 C 11.505 11.320,11.520 12.018,11.520 13.077 C 11.520 14.222,11.535 14.874,11.563 14.947 C 11.620 15.101,11.793 15.278,11.949 15.345 C 12.219 15.461,12.621 15.380,12.808 15.173 C 13.002 14.959,13.000 14.988,13.000 12.000 C 13.000 9.012,13.002 9.041,12.808 8.827 C 12.621 8.620,12.208 8.539,11.938 8.656 " stroke="none" fill-rule="evenodd" fill="black"></path></svg>