<svg width="24" height="24" viewBox="0 0 24 24" fill="none" xmlns="http://www.w3.org/2000/svg"><path d="M11.611 1.281 C 10.537 1.394,9.551 2.102,9.075 3.100 C 8.880 3.509,8.801 3.809,8.772 4.262 L 8.749 4.624 8.345 4.761 C 7.173 5.157,5.772 6.072,4.901 7.009 C 4.560 7.377,4.062 8.020,3.952 8.236 C 3.819 8.497,3.869 8.839,4.073 9.054 C 4.344 9.341,4.766 9.384,5.057 9.156 C 5.115 9.109,5.301 8.891,5.468 8.670 C 6.676 7.075,8.381 6.080,10.352 5.820 C 10.892 5.748,12.914 5.737,13.512 5.802 C 15.702 6.040,17.692 7.288,18.872 9.162 C 19.244 9.753,19.620 10.658,19.782 11.353 C 19.938 12.021,19.959 12.372,19.959 14.330 L 19.960 16.240 11.980 16.240 L 4.000 16.240 4.000 14.515 C 4.000 12.804,3.999 12.790,3.910 12.632 C 3.677 12.216,3.056 12.140,2.732 12.487 C 2.524 12.709,2.520 12.749,2.520 14.590 L 2.520 16.302 2.258 16.416 C 1.946 16.552,1.570 16.902,1.428 17.188 C 1.241 17.565,1.231 17.665,1.250 19.045 C 1.265 20.214,1.275 20.371,1.353 20.660 C 1.671 21.836,2.450 22.445,3.942 22.686 C 4.332 22.749,18.480 22.782,19.400 22.722 C 19.763 22.698,20.213 22.645,20.400 22.603 C 21.852 22.280,22.541 21.508,22.679 20.047 C 22.731 19.508,22.732 18.015,22.681 17.707 C 22.596 17.184,22.215 16.671,21.738 16.436 L 21.490 16.314 21.468 14.287 C 21.446 12.176,21.425 11.879,21.243 11.060 C 20.834 9.223,19.734 7.443,18.266 6.245 C 17.524 5.639,16.485 5.052,15.635 4.759 L 15.251 4.626 15.228 4.263 C 15.185 3.593,14.958 3.013,14.530 2.475 C 13.830 1.596,12.763 1.160,11.611 1.281 M12.503 2.823 C 12.779 2.903,13.150 3.150,13.337 3.379 C 13.501 3.579,13.674 3.930,13.706 4.129 L 13.727 4.260 12.000 4.260 L 10.273 4.260 10.294 4.129 C 10.380 3.599,10.891 3.028,11.447 2.838 C 11.717 2.746,12.215 2.739,12.503 2.823 M8.815 10.278 C 8.331 10.393,8.098 11.004,8.383 11.408 C 8.447 11.499,8.572 11.610,8.660 11.656 C 8.818 11.739,8.865 11.740,11.878 11.751 C 14.020 11.759,15.000 11.749,15.151 11.718 C 15.902 11.562,15.931 10.473,15.189 10.286 C 14.979 10.234,9.033 10.226,8.815 10.278 M21.104 17.791 C 21.217 17.866,21.240 18.014,21.239 18.647 C 21.238 19.479,21.183 20.191,21.101 20.438 C 21.033 20.643,20.831 20.881,20.643 20.978 C 20.581 21.011,20.397 21.078,20.235 21.128 L 19.940 21.220 12.142 21.230 C 5.241 21.240,4.302 21.234,3.984 21.179 C 3.298 21.061,2.961 20.826,2.820 20.369 C 2.715 20.028,2.680 18.007,2.777 17.859 L 2.842 17.760 11.951 17.761 C 16.961 17.761,21.080 17.774,21.104 17.791 " stroke="none" fill-rule="evenodd" fill="black"></path></svg>