<svg width="24" height="24" viewBox="0 0 24 24" fill="none" xmlns="http://www.w3.org/2000/svg"><path d="M12.051 1.278 C 11.732 1.356,11.505 1.665,11.504 2.023 C 11.503 2.284,11.526 2.319,12.290 3.196 C 12.637 3.594,12.920 3.924,12.920 3.930 C 12.920 3.935,12.592 3.934,12.190 3.927 C 11.364 3.912,10.801 3.959,10.089 4.102 C 7.581 4.607,5.256 6.244,3.978 8.406 C 3.795 8.717,3.760 8.807,3.760 8.969 C 3.760 9.221,3.834 9.392,4.013 9.549 C 4.174 9.690,4.359 9.740,4.615 9.711 C 4.872 9.682,4.988 9.581,5.271 9.141 C 5.932 8.117,6.655 7.372,7.595 6.743 C 9.202 5.670,11.104 5.222,13.039 5.462 C 13.313 5.495,13.541 5.528,13.547 5.534 C 13.553 5.539,13.077 5.894,12.489 6.322 C 11.902 6.750,11.361 7.152,11.288 7.216 C 10.952 7.510,10.926 7.949,11.225 8.280 C 11.485 8.568,11.873 8.599,12.223 8.358 C 12.640 8.072,15.546 5.944,15.655 5.845 C 15.866 5.653,15.943 5.289,15.828 5.032 C 15.743 4.841,12.730 1.414,12.589 1.348 C 12.416 1.266,12.208 1.239,12.051 1.278 M18.992 7.800 C 18.661 7.899,18.462 8.200,18.488 8.561 C 18.501 8.744,18.539 8.845,18.687 9.084 C 19.481 10.374,19.854 11.583,19.908 13.040 C 20.043 16.763,17.579 20.072,13.978 21.000 C 12.731 21.322,11.269 21.322,10.022 21.000 C 7.437 20.334,5.327 18.365,4.489 15.836 C 4.236 15.073,4.080 14.173,4.080 13.480 C 4.080 12.925,3.807 12.600,3.340 12.600 C 3.098 12.600,2.927 12.676,2.771 12.853 C 2.605 13.042,2.584 13.180,2.612 13.857 C 2.793 18.121,6.019 21.795,10.272 22.581 C 15.444 23.538,20.369 20.110,21.280 14.920 C 21.392 14.281,21.433 13.006,21.362 12.352 C 21.244 11.265,20.955 10.236,20.509 9.309 C 20.230 8.731,19.861 8.111,19.713 7.972 C 19.520 7.791,19.241 7.724,18.992 7.800 " stroke="none" fill-rule="evenodd" fill="black"></path></svg>