<svg width="24" height="24" viewBox="0 0 24 24" fill="none" xmlns="http://www.w3.org/2000/svg"><path d="M8.393 1.282 C 6.328 1.431,4.327 2.476,3.001 4.099 C 2.224 5.050,1.632 6.308,1.403 7.495 C 1.303 8.014,1.230 8.965,1.275 9.162 C 1.450 9.921,2.553 9.921,2.716 9.162 C 2.740 9.049,2.760 8.844,2.761 8.708 C 2.762 8.219,2.905 7.499,3.119 6.896 C 3.439 5.996,3.925 5.241,4.626 4.552 C 5.170 4.017,5.580 3.724,6.240 3.399 C 6.731 3.158,7.592 2.862,7.554 2.948 C 7.546 2.966,7.472 3.100,7.388 3.248 C 7.304 3.395,7.226 3.576,7.214 3.649 C 7.187 3.818,7.255 4.078,7.364 4.216 C 7.626 4.549,8.200 4.569,8.484 4.255 C 8.639 4.084,9.669 2.345,9.716 2.175 C 9.845 1.707,9.419 1.214,8.912 1.246 C 8.862 1.249,8.628 1.265,8.393 1.282 M11.556 6.282 C 9.829 6.375,8.559 6.842,7.701 7.701 C 6.820 8.581,6.383 9.797,6.280 11.651 C 6.230 12.543,6.230 16.457,6.280 17.349 C 6.383 19.203,6.820 20.419,7.701 21.299 C 8.581 22.180,9.797 22.617,11.651 22.720 C 12.543 22.770,16.457 22.770,17.349 22.720 C 19.203 22.617,20.419 22.180,21.299 21.299 C 22.175 20.424,22.620 19.194,22.718 17.381 C 22.752 16.745,22.738 16.543,22.650 16.379 C 22.542 16.179,22.235 16.000,22.000 16.000 C 21.845 16.000,21.609 16.097,21.487 16.212 C 21.300 16.386,21.271 16.504,21.235 17.214 C 21.105 19.784,20.322 20.778,18.120 21.167 C 17.685 21.244,11.315 21.244,10.880 21.167 C 8.938 20.824,8.176 20.062,7.833 18.120 C 7.756 17.685,7.756 11.315,7.833 10.880 C 8.176 8.938,8.938 8.176,10.880 7.833 C 11.315 7.756,17.685 7.756,18.120 7.833 C 19.555 8.086,20.301 8.558,20.760 9.500 C 21.046 10.087,21.182 10.745,21.235 11.786 C 21.271 12.496,21.300 12.614,21.487 12.788 C 21.609 12.903,21.845 13.000,22.000 13.000 C 22.235 13.000,22.542 12.821,22.650 12.621 C 22.738 12.457,22.752 12.255,22.718 11.619 C 22.620 9.806,22.175 8.576,21.299 7.701 C 20.419 6.820,19.203 6.383,17.349 6.280 C 16.562 6.236,12.374 6.237,11.556 6.282 " stroke="none" fill-rule="evenodd" fill="black"></path></svg>