<svg width="24" height="24" viewBox="0 0 24 24" fill="none" xmlns="http://www.w3.org/2000/svg"><path d="M10.620 1.268 C 10.364 1.332,10.217 1.481,8.750 3.167 C 7.909 4.133,7.198 4.973,7.172 5.032 C 7.107 5.178,7.108 5.454,7.175 5.614 C 7.205 5.686,7.309 5.812,7.405 5.893 C 7.677 6.123,10.763 8.366,10.918 8.447 C 11.073 8.529,11.337 8.542,11.507 8.477 C 11.649 8.424,11.828 8.256,11.909 8.101 C 11.989 7.948,11.989 7.612,11.909 7.459 C 11.818 7.285,11.718 7.202,10.648 6.421 C 10.113 6.031,9.681 5.706,9.688 5.698 C 9.695 5.691,9.890 5.647,10.121 5.600 C 12.066 5.202,13.825 5.400,15.462 6.201 C 16.817 6.864,17.871 7.813,18.729 9.141 C 19.012 9.581,19.128 9.682,19.385 9.711 C 19.641 9.740,19.826 9.690,19.987 9.549 C 20.166 9.392,20.240 9.221,20.240 8.969 C 20.240 8.807,20.205 8.717,20.022 8.406 C 18.744 6.244,16.415 4.604,13.911 4.103 C 13.641 4.049,13.245 3.985,13.032 3.962 C 12.232 3.875,10.907 3.927,10.140 4.075 C 10.030 4.096,9.937 4.110,9.933 4.106 C 9.928 4.102,10.247 3.730,10.641 3.279 C 11.034 2.829,11.386 2.399,11.423 2.324 C 11.516 2.134,11.512 1.847,11.414 1.657 C 11.274 1.386,10.892 1.199,10.620 1.268 M4.498 7.833 C 4.302 7.925,4.188 8.056,3.920 8.500 C 3.230 9.642,2.788 10.971,2.638 12.352 C 2.567 13.006,2.608 14.281,2.720 14.920 C 3.405 18.821,6.407 21.867,10.272 22.581 C 15.442 23.537,20.389 20.094,21.278 14.920 C 21.370 14.384,21.429 13.389,21.384 13.146 C 21.350 12.968,21.150 12.728,20.972 12.654 C 20.699 12.540,20.298 12.620,20.112 12.827 C 19.986 12.966,19.920 13.191,19.920 13.480 C 19.920 14.169,19.764 15.076,19.516 15.820 C 18.668 18.374,16.575 20.331,13.978 21.000 C 12.731 21.322,11.269 21.322,10.022 21.000 C 7.437 20.334,5.327 18.365,4.489 15.836 C 3.742 13.584,4.019 11.206,5.265 9.160 C 5.544 8.703,5.589 8.452,5.444 8.167 C 5.273 7.833,4.831 7.677,4.498 7.833 " stroke="none" fill-rule="evenodd" fill="black"></path></svg>