<svg width="24" height="24" viewBox="0 0 24 24" fill="none" xmlns="http://www.w3.org/2000/svg"><path d="M8.080 1.282 C 4.042 1.493,1.931 3.265,1.398 6.891 C 1.310 7.494,1.225 8.895,1.264 9.113 C 1.278 9.194,1.325 9.318,1.368 9.389 C 1.658 9.870,2.422 9.836,2.661 9.332 C 2.718 9.212,2.740 9.022,2.765 8.423 C 2.900 5.187,3.905 3.654,6.288 3.044 C 7.337 2.776,7.247 2.780,12.000 2.780 C 15.936 2.780,16.339 2.786,16.760 2.852 C 19.558 3.288,20.712 4.442,21.148 7.240 C 21.214 7.661,21.220 8.064,21.220 12.000 C 21.220 15.936,21.214 16.339,21.148 16.760 C 20.712 19.558,19.558 20.712,16.760 21.148 C 16.339 21.214,15.936 21.220,12.000 21.220 C 8.064 21.220,7.661 21.214,7.240 21.148 C 4.756 20.761,3.576 19.795,3.044 17.712 C 2.821 16.838,2.790 16.492,2.764 14.600 L 2.740 12.860 2.640 12.686 C 2.359 12.194,1.641 12.194,1.360 12.686 C 1.262 12.857,1.260 12.878,1.247 13.880 C 1.223 15.664,1.336 17.082,1.575 18.027 C 2.267 20.757,3.971 22.193,7.027 22.622 C 7.786 22.728,8.902 22.759,12.000 22.759 C 15.098 22.759,16.214 22.728,16.973 22.622 C 19.443 22.275,20.996 21.288,21.897 19.490 C 22.379 18.530,22.638 17.369,22.720 15.807 C 22.771 14.838,22.771 9.162,22.720 8.193 C 22.657 6.998,22.521 6.191,22.242 5.356 C 21.632 3.531,20.469 2.367,18.650 1.760 C 17.788 1.473,17.023 1.344,15.806 1.280 C 14.952 1.235,8.952 1.237,8.080 1.282 M15.260 5.825 C 15.194 5.835,15.051 5.860,14.943 5.882 C 14.689 5.934,7.096 8.299,6.859 8.401 C 6.389 8.602,5.918 9.036,5.652 9.512 C 5.210 10.302,5.203 11.349,5.635 12.120 C 5.897 12.590,6.265 12.949,6.715 13.177 C 6.830 13.236,7.477 13.473,8.153 13.705 C 8.828 13.936,9.446 14.170,9.527 14.226 C 9.608 14.281,9.719 14.392,9.774 14.473 C 9.864 14.605,10.207 15.541,10.560 16.620 C 10.873 17.574,11.273 18.068,12.027 18.429 C 12.411 18.612,12.705 18.677,13.160 18.678 C 13.635 18.679,13.969 18.602,14.385 18.397 C 14.909 18.138,15.402 17.620,15.617 17.102 C 15.686 16.936,17.942 9.690,18.089 9.163 C 18.194 8.784,18.202 8.213,18.106 7.840 C 17.863 6.896,17.118 6.143,16.187 5.903 C 15.933 5.838,15.451 5.797,15.260 5.825 M16.067 7.444 C 16.288 7.550,16.537 7.834,16.617 8.069 C 16.752 8.466,16.764 8.420,15.475 12.575 C 14.813 14.712,14.245 16.509,14.214 16.569 C 13.903 17.178,13.032 17.388,12.487 16.985 C 12.223 16.790,12.138 16.612,11.719 15.379 C 11.495 14.719,11.247 14.054,11.168 13.900 C 10.972 13.519,10.480 13.027,10.100 12.833 C 9.946 12.755,9.274 12.505,8.607 12.279 C 7.759 11.991,7.352 11.833,7.251 11.753 C 6.724 11.334,6.648 10.560,7.085 10.064 C 7.175 9.961,7.315 9.844,7.395 9.803 C 7.588 9.706,15.129 7.358,15.360 7.324 C 15.582 7.290,15.842 7.334,16.067 7.444 " stroke="none" fill-rule="evenodd" fill="black"></path></svg>