<svg width="24" height="24" viewBox="0 0 24 24" fill="none" xmlns="http://www.w3.org/2000/svg"><path d="M5.024 1.285 C 3.617 1.419,2.328 2.311,1.679 3.600 C 1.382 4.190,1.240 4.806,1.240 5.500 C 1.240 6.616,1.628 7.602,2.380 8.395 C 3.304 9.370,4.523 9.832,5.864 9.716 C 7.697 9.557,9.244 8.177,9.626 6.360 C 9.723 5.902,9.723 5.098,9.626 4.640 C 9.178 2.507,7.216 1.077,5.024 1.285 M6.320 2.873 C 6.716 3.002,7.066 3.227,7.423 3.580 C 7.679 3.834,7.781 3.972,7.913 4.240 C 8.144 4.712,8.205 4.977,8.205 5.500 C 8.205 6.023,8.144 6.288,7.913 6.760 C 7.781 7.028,7.679 7.166,7.423 7.420 C 6.860 7.978,6.374 8.196,5.614 8.230 C 4.748 8.269,4.149 8.036,3.536 7.424 C 3.240 7.128,3.141 6.996,3.005 6.720 C 2.779 6.259,2.706 5.893,2.734 5.360 C 2.774 4.596,2.982 4.133,3.538 3.578 C 3.944 3.172,4.279 2.971,4.769 2.838 C 5.165 2.732,5.937 2.749,6.320 2.873 M11.807 4.287 C 11.316 4.397,11.102 5.047,11.420 5.464 C 11.627 5.736,11.643 5.738,13.440 5.760 L 15.060 5.780 15.264 5.887 C 15.734 6.136,16.029 6.735,15.920 7.222 C 15.815 7.688,15.948 7.561,11.555 11.405 C 9.296 13.381,7.358 15.099,7.247 15.223 C 6.831 15.691,6.641 16.180,6.611 16.861 C 6.593 17.270,6.603 17.392,6.676 17.675 C 6.901 18.540,7.464 19.198,8.270 19.535 C 8.730 19.728,8.872 19.740,10.603 19.740 L 12.226 19.740 12.388 19.633 C 12.626 19.475,12.733 19.279,12.733 19.000 C 12.733 18.722,12.626 18.525,12.388 18.367 L 12.226 18.260 10.583 18.240 C 8.966 18.220,8.937 18.219,8.768 18.128 C 8.081 17.761,7.862 16.829,8.330 16.261 C 8.401 16.175,10.322 14.473,12.599 12.480 C 16.825 8.780,16.904 8.706,17.151 8.220 C 17.335 7.856,17.418 7.482,17.417 7.020 C 17.415 5.572,16.391 4.428,14.961 4.277 C 14.511 4.230,12.028 4.238,11.807 4.287 M5.182 4.549 C 5.033 4.587,4.799 4.762,4.683 4.923 C 4.352 5.379,4.485 6.040,4.968 6.345 C 5.191 6.486,5.599 6.522,5.856 6.424 C 6.232 6.280,6.478 5.915,6.478 5.500 C 6.478 4.935,6.058 4.517,5.500 4.526 C 5.368 4.528,5.225 4.538,5.182 4.549 M16.620 14.278 C 15.523 14.418,14.592 15.238,14.319 16.304 C 14.246 16.590,14.240 16.753,14.240 18.500 C 14.240 20.247,14.246 20.410,14.319 20.696 C 14.557 21.629,15.323 22.397,16.281 22.666 C 16.513 22.731,16.724 22.738,18.320 22.739 C 19.299 22.740,20.148 22.727,20.207 22.710 C 20.465 22.638,20.717 22.292,20.719 22.009 C 20.720 21.847,20.625 21.612,20.508 21.487 C 20.294 21.258,20.327 21.262,18.400 21.240 C 16.632 21.220,16.619 21.219,16.440 21.127 C 16.197 21.000,15.975 20.781,15.847 20.540 L 15.740 20.340 15.740 18.500 L 15.740 16.660 15.847 16.460 C 15.975 16.219,16.197 16.000,16.440 15.873 L 16.620 15.780 18.480 15.780 C 20.222 15.780,20.349 15.785,20.480 15.855 C 20.766 16.008,20.954 16.198,21.088 16.470 L 21.220 16.738 21.233 17.979 C 21.246 19.194,21.248 19.223,21.339 19.380 C 21.575 19.787,22.188 19.856,22.508 19.513 C 22.707 19.300,22.720 19.206,22.720 17.940 C 22.720 16.575,22.687 16.322,22.440 15.820 C 22.151 15.230,21.744 14.817,21.180 14.539 C 20.635 14.271,20.611 14.268,18.640 14.257 C 17.661 14.252,16.752 14.261,16.620 14.278 M18.182 17.549 C 18.033 17.587,17.799 17.762,17.683 17.923 C 17.352 18.379,17.485 19.040,17.968 19.345 C 18.191 19.486,18.599 19.522,18.856 19.424 C 19.232 19.280,19.478 18.915,19.478 18.500 C 19.478 17.935,19.058 17.517,18.500 17.526 C 18.368 17.528,18.225 17.538,18.182 17.549 " stroke="none" fill-rule="evenodd" fill="black"></path></svg>