<svg width="24" height="24" viewBox="0 0 24 24" fill="none" xmlns="http://www.w3.org/2000/svg"><path d="M4.585 1.340 C 3.099 1.648,1.935 2.636,1.479 3.978 C 1.162 4.908,1.158 5.948,1.467 6.937 C 1.756 7.866,2.518 9.015,3.406 9.864 C 3.960 10.393,4.446 10.634,5.133 10.719 C 5.724 10.793,6.390 10.669,6.860 10.398 C 7.577 9.985,7.818 9.565,7.605 9.100 C 7.517 8.910,7.428 8.824,7.230 8.742 C 6.936 8.619,6.659 8.681,6.341 8.942 C 5.972 9.244,5.440 9.327,4.972 9.155 C 4.773 9.083,4.672 9.001,4.260 8.584 C 3.550 7.865,3.109 7.194,2.886 6.496 C 2.254 4.516,3.475 2.760,5.485 2.760 C 5.968 2.760,6.344 2.849,6.799 3.071 C 7.477 3.403,7.924 3.955,8.126 4.708 C 8.192 4.954,8.210 5.151,8.215 5.643 C 8.220 6.264,8.220 6.267,8.335 6.417 C 8.626 6.799,9.079 6.854,9.426 6.549 C 9.628 6.372,9.678 6.224,9.706 5.729 C 9.759 4.796,9.513 3.834,9.032 3.097 C 8.506 2.291,7.634 1.676,6.620 1.398 C 6.204 1.284,5.018 1.250,4.585 1.340 M11.700 4.314 C 11.506 4.406,11.384 4.533,11.302 4.729 C 11.156 5.078,11.309 5.480,11.660 5.674 C 11.764 5.731,11.992 5.743,13.400 5.760 C 14.951 5.779,15.028 5.784,15.206 5.866 C 15.771 6.127,16.067 6.860,15.843 7.440 C 15.796 7.561,15.700 7.725,15.629 7.805 C 15.558 7.884,13.700 9.523,11.500 11.447 C 9.300 13.371,7.387 15.068,7.249 15.220 C 6.796 15.715,6.582 16.289,6.584 17.000 C 6.587 18.253,7.388 19.307,8.609 19.669 C 8.780 19.720,9.127 19.735,10.439 19.749 C 11.563 19.762,12.104 19.753,12.207 19.722 C 12.508 19.632,12.757 19.311,12.759 19.009 C 12.760 18.847,12.665 18.612,12.548 18.487 C 12.336 18.260,12.351 18.262,10.600 18.240 C 9.018 18.220,8.976 18.218,8.796 18.129 C 8.545 18.006,8.330 17.784,8.205 17.520 C 8.119 17.340,8.100 17.242,8.100 16.980 C 8.100 16.393,7.799 16.694,12.519 12.560 C 14.818 10.547,16.767 8.810,16.852 8.700 C 17.045 8.447,17.248 8.050,17.343 7.740 C 17.397 7.561,17.416 7.372,17.415 7.000 C 17.415 6.567,17.400 6.457,17.308 6.180 C 17.074 5.474,16.576 4.880,15.957 4.567 C 15.365 4.268,15.378 4.270,13.520 4.253 C 11.957 4.239,11.851 4.243,11.700 4.314 M5.182 4.549 C 5.033 4.587,4.799 4.762,4.683 4.923 C 4.352 5.379,4.485 6.040,4.968 6.345 C 5.191 6.486,5.599 6.522,5.856 6.424 C 6.232 6.280,6.478 5.915,6.478 5.500 C 6.478 4.935,6.058 4.517,5.500 4.526 C 5.368 4.528,5.225 4.538,5.182 4.549 M17.620 13.339 C 16.153 13.608,14.937 14.629,14.479 15.976 C 14.162 16.909,14.158 17.952,14.467 18.937 C 14.853 20.163,16.120 21.832,17.088 22.390 C 17.544 22.652,18.252 22.788,18.821 22.721 C 19.549 22.636,19.969 22.425,20.575 21.840 C 21.307 21.133,21.817 20.459,22.193 19.700 C 22.598 18.883,22.733 18.320,22.733 17.460 C 22.732 16.811,22.684 16.512,22.485 15.936 C 22.038 14.638,20.871 13.652,19.437 13.359 C 18.979 13.266,18.072 13.256,17.620 13.339 M19.407 14.890 C 20.571 15.268,21.243 16.199,21.249 17.440 C 21.253 18.488,20.778 19.478,19.768 20.526 C 19.163 21.153,19.041 21.220,18.500 21.220 C 17.962 21.220,17.823 21.151,17.299 20.624 C 16.783 20.105,16.418 19.611,16.142 19.060 C 15.869 18.514,15.761 18.135,15.732 17.618 C 15.654 16.241,16.489 15.119,17.816 14.817 C 18.208 14.728,19.024 14.765,19.407 14.890 M18.182 16.549 C 18.033 16.587,17.799 16.762,17.683 16.923 C 17.352 17.379,17.485 18.040,17.968 18.345 C 18.191 18.486,18.599 18.522,18.856 18.424 C 19.232 18.280,19.478 17.915,19.478 17.500 C 19.478 16.935,19.058 16.517,18.500 16.526 C 18.368 16.528,18.225 16.538,18.182 16.549 " stroke="none" fill-rule="evenodd" fill="black"></path></svg>