<svg width="24" height="24" viewBox="0 0 24 24" fill="none" xmlns="http://www.w3.org/2000/svg"><path d="M3.660 1.280 C 2.377 1.395,1.621 2.047,1.338 3.280 C 1.279 3.539,1.267 3.892,1.251 5.854 C 1.227 8.872,1.259 9.248,1.607 9.960 C 1.900 10.561,2.406 10.953,3.140 11.146 C 3.408 11.217,3.787 11.220,12.000 11.220 C 20.213 11.220,20.592 11.217,20.860 11.146 C 22.004 10.844,22.601 10.059,22.719 8.700 C 22.768 8.134,22.725 7.930,22.513 7.732 C 22.298 7.531,21.992 7.472,21.729 7.582 C 21.382 7.727,21.285 7.910,21.240 8.499 C 21.198 9.054,21.146 9.235,20.971 9.440 C 20.870 9.558,20.775 9.618,20.607 9.670 C 20.394 9.736,19.881 9.740,12.000 9.740 C 4.207 9.740,3.605 9.735,3.399 9.672 C 3.139 9.591,2.955 9.418,2.852 9.160 C 2.787 8.995,2.780 8.763,2.768 6.400 C 2.755 3.715,2.765 3.504,2.923 3.194 C 3.017 3.009,3.160 2.907,3.437 2.824 C 3.634 2.766,4.441 2.760,12.000 2.760 C 19.559 2.760,20.366 2.766,20.563 2.824 C 21.056 2.971,21.175 3.177,21.239 3.992 C 21.281 4.523,21.371 4.724,21.632 4.870 C 21.958 5.054,22.421 4.949,22.607 4.649 C 22.735 4.442,22.758 4.263,22.718 3.783 C 22.628 2.687,22.206 1.942,21.474 1.585 C 21.104 1.404,20.807 1.327,20.300 1.280 C 19.833 1.236,4.144 1.237,3.660 1.280 M3.420 12.804 C 2.046 13.006,1.301 13.957,1.270 15.546 C 1.265 15.844,1.279 15.969,1.328 16.060 C 1.517 16.410,1.922 16.564,2.271 16.418 C 2.620 16.272,2.715 16.092,2.761 15.486 C 2.781 15.230,2.825 14.939,2.860 14.840 C 2.949 14.587,3.135 14.410,3.399 14.328 C 3.605 14.265,4.207 14.260,12.000 14.260 C 19.881 14.260,20.394 14.264,20.607 14.330 C 20.862 14.409,21.065 14.607,21.161 14.869 C 21.236 15.074,21.270 20.051,21.199 20.419 C 21.109 20.881,20.961 21.057,20.563 21.176 C 20.366 21.234,19.559 21.240,12.000 21.240 C 4.441 21.240,3.634 21.234,3.437 21.176 C 2.944 21.029,2.825 20.823,2.761 20.008 C 2.719 19.477,2.629 19.276,2.368 19.130 C 2.042 18.946,1.579 19.051,1.393 19.351 C 1.263 19.561,1.240 19.744,1.281 20.220 C 1.376 21.320,1.795 22.058,2.526 22.415 C 2.896 22.596,3.193 22.673,3.700 22.720 C 4.229 22.769,19.771 22.769,20.300 22.720 C 20.807 22.673,21.104 22.596,21.474 22.415 C 22.210 22.056,22.626 21.316,22.720 20.200 C 22.771 19.599,22.771 15.867,22.720 15.300 C 22.600 13.947,22.020 13.177,20.880 12.854 C 20.632 12.784,20.238 12.781,12.140 12.775 C 7.416 12.772,3.554 12.785,3.420 12.804 " stroke="none" fill-rule="evenodd" fill="black"></path></svg>