<svg width="24" height="24" viewBox="0 0 24 24" fill="none" xmlns="http://www.w3.org/2000/svg"><path d="M4.498 6.281 C 2.998 6.407,1.968 7.126,1.517 8.362 C 1.268 9.045,1.260 9.155,1.260 12.000 C 1.260 14.284,1.268 14.622,1.330 14.948 C 1.577 16.253,2.308 17.134,3.460 17.515 C 4.164 17.748,3.852 17.740,12.000 17.740 C 18.017 17.740,19.567 17.730,19.840 17.687 C 21.315 17.458,22.299 16.570,22.622 15.176 C 22.712 14.789,22.761 14.054,22.713 13.826 C 22.607 13.327,21.989 13.095,21.566 13.396 C 21.335 13.560,21.277 13.712,21.239 14.250 C 21.185 15.006,21.027 15.417,20.660 15.756 C 20.437 15.962,20.143 16.102,19.773 16.181 C 19.359 16.269,4.637 16.267,4.220 16.180 C 3.447 16.017,2.984 15.552,2.819 14.773 C 2.734 14.372,2.734 9.628,2.819 9.227 C 3.026 8.250,3.707 7.763,4.868 7.761 L 5.236 7.760 5.248 9.490 L 5.260 11.220 5.353 11.369 C 5.710 11.943,6.576 11.812,6.716 11.162 C 6.744 11.031,6.760 10.374,6.760 9.358 L 6.760 7.760 8.023 7.760 L 9.287 7.760 9.275 9.992 L 9.263 12.224 9.354 12.371 C 9.709 12.945,10.576 12.812,10.716 12.162 C 10.744 12.032,10.760 11.387,10.760 10.404 C 10.760 9.551,10.772 8.607,10.786 8.306 L 10.812 7.760 12.024 7.760 L 13.235 7.760 13.247 8.990 C 13.260 10.196,13.262 10.223,13.353 10.369 C 13.710 10.943,14.576 10.812,14.716 10.162 C 14.742 10.040,14.760 9.509,14.760 8.858 L 14.760 7.760 15.998 7.760 L 17.237 7.760 17.248 9.990 L 17.260 12.220 17.353 12.369 C 17.710 12.943,18.576 12.812,18.716 12.162 C 18.745 12.027,18.760 11.239,18.760 9.858 L 18.760 7.760 19.130 7.761 C 19.797 7.762,20.314 7.925,20.660 8.244 C 21.027 8.583,21.185 8.994,21.239 9.750 C 21.267 10.141,21.291 10.269,21.360 10.380 C 21.705 10.938,22.579 10.805,22.713 10.174 C 22.761 9.946,22.712 9.211,22.622 8.824 C 22.362 7.703,21.665 6.892,20.639 6.517 C 19.907 6.250,20.432 6.266,12.260 6.258 C 8.190 6.253,4.697 6.264,4.498 6.281 " stroke="none" fill-rule="evenodd" fill="black"></path></svg>