<svg width="24" height="24" viewBox="0 0 24 24" fill="none" xmlns="http://www.w3.org/2000/svg"><path d="M5.120 1.281 C 3.528 1.433,2.187 2.643,1.861 4.221 C 1.807 4.481,1.797 4.887,1.797 6.867 C 1.797 9.037,1.802 9.217,1.868 9.351 C 2.119 9.854,2.822 9.899,3.146 9.432 L 3.260 9.267 3.273 8.514 L 3.286 7.760 5.484 7.760 L 7.681 7.760 7.671 13.050 L 7.660 18.340 7.558 18.626 C 7.415 19.028,6.516 20.515,6.229 20.824 C 5.744 21.345,5.204 21.342,4.722 20.815 C 4.442 20.509,3.533 18.984,3.404 18.603 L 3.301 18.300 3.281 16.000 L 3.260 13.700 3.167 13.570 C 2.843 13.116,2.255 13.084,1.936 13.502 L 1.820 13.654 1.820 16.097 L 1.820 18.540 1.932 18.900 C 1.993 19.098,2.103 19.386,2.175 19.540 C 2.308 19.820,2.990 20.968,3.293 21.420 C 3.649 21.952,4.234 22.411,4.800 22.603 C 5.158 22.724,5.787 22.726,6.160 22.606 C 6.657 22.446,7.194 22.055,7.549 21.593 C 7.765 21.313,8.698 19.772,8.826 19.485 C 8.990 19.114,9.115 18.625,9.161 18.170 C 9.192 17.871,9.201 15.721,9.191 11.100 C 9.177 5.028,9.170 4.436,9.108 4.182 C 8.855 3.142,8.234 2.289,7.351 1.770 C 6.679 1.375,5.907 1.205,5.120 1.281 M13.948 1.282 C 12.087 1.442,10.987 2.505,10.761 4.359 C 10.704 4.826,10.704 19.174,10.761 19.641 C 10.926 20.992,11.549 21.920,12.614 22.397 C 12.982 22.563,13.468 22.674,14.020 22.719 C 14.634 22.770,18.314 22.771,18.920 22.721 C 20.526 22.588,21.576 21.835,21.996 20.517 C 22.207 19.857,22.200 20.134,22.200 12.000 C 22.200 3.866,22.207 4.143,21.996 3.483 C 21.576 2.165,20.522 1.410,18.920 1.280 C 18.331 1.233,18.130 1.275,17.932 1.487 C 17.731 1.702,17.672 2.008,17.782 2.271 C 17.930 2.625,18.108 2.717,18.735 2.761 C 19.938 2.847,20.465 3.273,20.664 4.320 C 20.713 4.575,20.720 5.766,20.711 12.160 L 20.700 19.700 20.606 19.980 C 20.482 20.353,20.364 20.550,20.140 20.756 C 19.917 20.962,19.623 21.102,19.253 21.181 C 18.849 21.266,14.108 21.266,13.704 21.180 C 12.717 20.971,12.308 20.413,12.218 19.152 L 12.191 18.764 13.925 18.752 L 15.660 18.740 15.840 18.634 C 16.326 18.348,16.326 17.652,15.840 17.366 L 15.660 17.260 13.930 17.248 L 12.200 17.236 12.200 15.975 L 12.200 14.713 14.432 14.725 L 16.664 14.737 16.842 14.632 C 17.326 14.349,17.325 13.651,16.840 13.366 L 16.660 13.260 14.560 13.235 C 13.405 13.221,12.402 13.207,12.330 13.205 L 12.200 13.200 12.200 11.983 L 12.200 10.765 13.430 10.753 C 14.657 10.740,14.660 10.740,14.834 10.640 C 15.326 10.359,15.326 9.641,14.834 9.360 C 14.660 9.260,14.657 9.260,13.430 9.247 L 12.200 9.235 12.200 7.999 L 12.200 6.763 14.430 6.752 L 16.660 6.740 16.834 6.640 C 17.326 6.359,17.326 5.641,16.834 5.360 L 16.660 5.260 14.425 5.248 L 12.191 5.237 12.218 4.848 C 12.273 4.076,12.426 3.625,12.742 3.301 C 13.058 2.975,13.489 2.817,14.212 2.761 C 14.601 2.731,14.715 2.707,14.853 2.626 C 15.315 2.355,15.320 1.645,14.860 1.379 C 14.659 1.262,14.444 1.239,13.948 1.282 M6.061 2.822 C 6.755 3.003,7.412 3.653,7.606 4.351 C 7.667 4.571,7.680 4.762,7.680 5.429 L 7.680 6.240 5.480 6.240 L 3.280 6.240 3.280 5.485 C 3.280 4.588,3.309 4.402,3.519 3.976 C 3.785 3.434,4.333 2.978,4.908 2.820 C 5.177 2.746,5.774 2.747,6.061 2.822 " stroke="none" fill-rule="evenodd" fill="black"></path></svg>