<svg width="24" height="24" viewBox="0 0 24 24" fill="none" xmlns="http://www.w3.org/2000/svg"><path d="M10.740 1.699 C 10.359 1.769,9.990 1.898,9.687 2.067 C 9.399 2.226,2.796 7.476,2.407 7.854 C 1.642 8.597,1.159 9.909,1.277 10.920 C 1.321 11.301,1.360 11.396,1.533 11.548 C 1.904 11.874,2.433 11.795,2.669 11.379 C 2.747 11.240,2.759 11.163,2.759 10.758 C 2.760 10.472,2.784 10.206,2.822 10.058 C 2.912 9.713,3.143 9.257,3.334 9.048 C 3.425 8.948,5.029 7.643,6.897 6.148 C 9.274 4.245,10.361 3.400,10.517 3.331 C 11.149 3.051,11.902 3.061,12.500 3.359 C 12.652 3.435,13.997 4.484,16.179 6.229 C 19.924 9.226,19.791 9.105,20.038 9.727 C 20.273 10.322,20.278 10.468,20.099 11.563 C 19.969 12.362,19.932 12.522,19.881 12.507 C 19.848 12.497,19.658 12.439,19.460 12.378 C 19.145 12.281,19.032 12.267,18.560 12.265 C 18.112 12.262,17.966 12.277,17.702 12.353 C 17.382 12.445,14.711 13.523,14.340 13.710 C 13.883 13.941,13.447 14.569,13.361 15.120 C 13.308 15.460,13.308 17.326,13.362 17.982 C 13.422 18.726,13.580 19.361,13.878 20.056 L 13.957 20.240 9.915 20.240 C 6.301 20.240,5.848 20.233,5.646 20.175 C 4.921 19.966,4.275 19.340,4.084 18.660 C 4.059 18.572,3.913 17.744,3.759 16.820 C 3.415 14.753,3.456 14.941,3.310 14.775 C 3.012 14.435,2.584 14.401,2.254 14.691 C 2.085 14.839,2.000 15.017,2.000 15.223 C 2.000 15.494,2.598 18.941,2.694 19.223 C 2.957 19.996,3.468 20.641,4.207 21.132 C 4.581 21.382,4.887 21.520,5.359 21.653 C 5.657 21.737,5.708 21.738,10.321 21.751 L 14.981 21.763 15.331 22.099 C 15.888 22.634,16.573 23.096,17.233 23.382 C 18.153 23.780,18.614 23.824,19.340 23.581 C 20.130 23.316,20.939 22.838,21.603 22.243 C 21.988 21.898,22.086 21.742,22.088 21.470 C 22.092 21.085,21.873 20.795,21.520 20.716 C 21.252 20.655,21.028 20.737,20.745 20.999 C 20.169 21.533,19.762 21.804,19.155 22.055 C 18.673 22.255,18.550 22.268,18.196 22.156 C 16.520 21.627,15.127 19.925,14.882 18.107 C 14.859 17.935,14.840 17.236,14.840 16.553 C 14.840 15.180,14.846 15.143,15.098 15.024 C 15.482 14.842,17.903 13.873,18.101 13.821 C 18.404 13.742,18.729 13.743,19.003 13.824 C 19.228 13.890,21.796 14.914,21.994 15.017 C 22.223 15.135,22.218 15.109,22.240 16.496 C 22.260 17.752,22.262 17.783,22.353 17.929 C 22.710 18.503,23.576 18.372,23.716 17.722 C 23.771 17.463,23.773 15.523,23.718 15.140 C 23.645 14.633,23.317 14.095,22.916 13.825 C 22.805 13.750,22.413 13.566,22.047 13.417 C 21.680 13.268,21.374 13.142,21.366 13.136 C 21.358 13.130,21.430 12.670,21.525 12.113 C 21.795 10.536,21.767 9.964,21.378 9.064 C 21.181 8.610,20.899 8.177,20.619 7.900 C 20.329 7.613,13.881 2.463,13.470 2.190 C 12.912 1.819,12.244 1.637,11.466 1.644 C 11.221 1.646,10.894 1.670,10.740 1.699 " stroke="none" fill-rule="evenodd" fill="black"></path></svg>