<svg width="24" height="24" viewBox="0 0 24 24" fill="none" xmlns="http://www.w3.org/2000/svg"><path d="M11.815 2.278 C 11.331 2.393,11.098 3.004,11.383 3.408 C 11.447 3.499,11.572 3.610,11.660 3.656 C 11.818 3.739,11.865 3.740,15.490 3.760 L 19.160 3.780 15.580 7.360 L 12.001 10.939 9.490 8.434 C 7.024 5.972,6.976 5.927,6.779 5.886 C 6.429 5.814,6.136 5.935,5.956 6.226 C 5.853 6.393,5.833 6.755,5.918 6.920 C 5.946 6.975,7.087 8.140,8.453 9.509 L 10.937 11.998 10.593 12.349 C 10.206 12.744,10.130 12.903,10.178 13.221 C 10.201 13.375,10.242 13.446,10.398 13.602 C 10.554 13.758,10.625 13.799,10.779 13.822 C 11.097 13.870,11.256 13.794,11.651 13.407 L 12.002 13.064 14.511 15.568 C 16.927 17.980,17.027 18.073,17.210 18.111 C 17.790 18.231,18.231 17.790,18.111 17.210 C 18.073 17.027,17.980 16.927,15.566 14.510 L 13.061 11.999 16.640 8.420 L 20.220 4.840 20.240 8.530 L 20.260 12.220 20.353 12.369 C 20.710 12.943,21.576 12.812,21.716 12.162 C 21.747 12.019,21.760 10.581,21.760 7.417 C 21.760 3.410,21.753 2.860,21.698 2.729 C 21.616 2.532,21.494 2.405,21.300 2.316 C 21.147 2.245,20.932 2.242,16.540 2.245 C 14.010 2.247,11.884 2.262,11.815 2.278 M7.700 15.306 C 7.552 15.383,2.469 20.448,2.352 20.636 C 2.232 20.826,2.234 21.177,2.356 21.374 C 2.532 21.659,2.840 21.783,3.189 21.711 C 3.374 21.673,3.469 21.584,5.993 19.066 C 7.447 17.616,8.640 16.394,8.683 16.312 C 8.768 16.148,8.784 15.867,8.717 15.693 C 8.660 15.539,8.487 15.362,8.331 15.295 C 8.162 15.222,7.850 15.228,7.700 15.306 " stroke="none" fill-rule="evenodd" fill="black"></path></svg>