<svg width="24" height="24" viewBox="0 0 24 24" fill="none" xmlns="http://www.w3.org/2000/svg"><path d="M10.700 1.284 C 9.424 1.419,8.312 2.177,7.700 3.330 C 7.501 3.704,7.336 4.231,7.301 4.606 C 7.287 4.746,7.267 4.918,7.256 4.990 L 7.236 5.120 6.202 5.120 C 5.008 5.120,4.498 5.163,4.009 5.304 C 2.783 5.658,1.779 6.665,1.421 7.901 C 1.251 8.487,1.235 8.909,1.248 12.420 L 1.260 15.700 1.360 15.874 C 1.641 16.366,2.359 16.366,2.640 15.874 L 2.740 15.700 2.760 12.080 L 2.780 8.460 2.870 8.223 C 3.156 7.464,3.859 6.836,4.592 6.684 C 4.738 6.654,6.106 6.640,8.992 6.641 C 13.632 6.641,13.424 6.630,13.970 6.905 C 14.362 7.102,14.778 7.518,14.975 7.910 C 15.255 8.465,15.239 8.059,15.239 14.680 C 15.239 18.899,15.227 20.707,15.196 20.818 C 15.172 20.905,15.092 21.036,15.020 21.108 C 14.903 21.225,14.863 21.240,14.673 21.240 C 14.388 21.240,14.306 21.199,11.959 19.890 C 10.891 19.294,9.901 18.766,9.759 18.715 C 9.384 18.583,8.616 18.583,8.241 18.715 C 8.099 18.766,7.109 19.294,6.041 19.890 C 3.709 21.190,3.610 21.240,3.337 21.240 C 2.966 21.240,2.816 21.042,2.757 20.475 C 2.706 19.981,2.597 19.798,2.271 19.662 C 1.922 19.516,1.515 19.671,1.328 20.020 C 1.240 20.184,1.254 20.729,1.356 21.126 C 1.699 22.458,2.837 23.045,4.178 22.579 C 4.331 22.526,5.417 21.947,6.593 21.293 L 8.730 20.103 9.005 20.106 L 9.279 20.108 11.412 21.296 C 12.585 21.948,13.669 22.526,13.822 22.579 C 14.601 22.849,15.316 22.774,15.858 22.365 C 16.253 22.067,16.495 21.688,16.650 21.126 C 16.728 20.840,16.735 20.699,16.750 18.950 C 16.759 17.921,16.777 17.080,16.789 17.080 C 16.802 17.080,17.427 17.423,18.178 17.841 C 18.929 18.260,19.669 18.646,19.822 18.699 C 20.601 18.969,21.316 18.894,21.858 18.485 C 22.251 18.188,22.491 17.814,22.652 17.246 L 22.739 16.940 22.752 11.100 C 22.760 7.168,22.750 5.114,22.722 4.813 C 22.538 2.886,21.148 1.478,19.237 1.282 C 18.749 1.232,11.179 1.234,10.700 1.284 M19.408 2.804 C 20.232 2.974,21.026 3.768,21.196 4.592 C 21.258 4.891,21.258 16.715,21.196 16.938 C 21.172 17.025,21.092 17.156,21.020 17.228 C 20.904 17.344,20.863 17.360,20.674 17.360 C 20.393 17.360,20.289 17.309,18.352 16.227 L 16.763 15.340 16.750 11.880 C 16.737 8.490,16.735 8.413,16.651 8.100 C 16.261 6.646,15.230 5.615,13.780 5.230 C 13.475 5.149,13.353 5.144,11.110 5.130 L 8.760 5.115 8.760 4.960 C 8.760 4.044,9.585 3.047,10.531 2.817 C 10.811 2.750,19.084 2.737,19.408 2.804 " stroke="none" fill-rule="evenodd" fill="black"></path></svg>