<svg width="24" height="24" viewBox="0 0 24 24" fill="none" xmlns="http://www.w3.org/2000/svg"><path d="M6.020 1.284 C 4.095 1.444,2.352 2.737,1.638 4.537 C 1.307 5.369,1.227 6.078,1.247 7.980 C 1.260 9.196,1.262 9.223,1.353 9.369 C 1.664 9.870,2.408 9.849,2.664 9.332 C 2.734 9.193,2.742 9.041,2.762 7.500 L 2.785 5.820 2.893 5.468 C 3.285 4.189,4.189 3.285,5.468 2.893 L 5.820 2.785 7.500 2.762 C 9.041 2.742,9.193 2.734,9.332 2.664 C 9.928 2.368,9.832 1.448,9.189 1.286 C 8.975 1.233,6.662 1.231,6.020 1.284 M14.815 1.278 C 14.331 1.393,14.098 2.004,14.383 2.408 C 14.447 2.499,14.572 2.610,14.660 2.656 C 14.813 2.736,14.897 2.741,16.500 2.762 L 18.180 2.785 18.532 2.893 C 19.801 3.282,20.718 4.199,21.107 5.468 L 21.215 5.820 21.238 7.520 C 21.260 9.210,21.261 9.221,21.353 9.369 C 21.710 9.943,22.576 9.812,22.716 9.162 C 22.772 8.899,22.774 6.789,22.719 6.107 C 22.596 4.597,21.900 3.285,20.740 2.381 C 19.899 1.725,18.978 1.369,17.893 1.281 C 17.322 1.235,15.006 1.232,14.815 1.278 M8.140 5.281 C 7.726 5.328,7.502 5.388,7.177 5.537 C 6.446 5.875,5.876 6.445,5.539 7.174 C 5.352 7.579,5.274 7.969,5.274 8.500 C 5.274 8.750,5.301 9.066,5.337 9.233 C 5.586 10.387,6.613 11.414,7.767 11.663 C 8.146 11.745,8.854 11.745,9.233 11.663 C 10.386 11.414,11.420 10.380,11.661 9.234 C 11.747 8.825,11.752 8.332,11.671 8.180 C 11.529 7.914,11.284 7.760,11.000 7.760 C 10.799 7.760,10.647 7.819,10.506 7.953 C 10.334 8.115,10.285 8.240,10.242 8.626 C 10.167 9.291,9.800 9.813,9.210 10.092 C 8.957 10.212,8.912 10.220,8.500 10.220 C 8.088 10.220,8.043 10.212,7.790 10.092 C 7.414 9.914,7.113 9.618,6.929 9.245 C 6.784 8.952,6.780 8.932,6.780 8.500 C 6.780 8.068,6.784 8.048,6.929 7.755 C 7.214 7.178,7.715 6.833,8.378 6.758 C 8.760 6.715,8.885 6.665,9.047 6.494 C 9.461 6.057,9.190 5.346,8.580 5.269 C 8.492 5.258,8.294 5.263,8.140 5.281 M16.180 5.281 C 15.086 5.427,14.276 6.360,14.270 7.480 C 14.267 8.129,14.470 8.630,14.920 9.080 C 15.363 9.523,15.868 9.731,16.500 9.731 C 17.132 9.731,17.637 9.523,18.080 9.080 C 18.523 8.637,18.731 8.132,18.731 7.500 C 18.731 6.868,18.523 6.363,18.080 5.920 C 17.575 5.415,16.894 5.186,16.180 5.281 M16.944 6.903 C 17.173 7.088,17.247 7.255,17.231 7.549 C 17.219 7.752,17.195 7.823,17.097 7.944 C 16.912 8.173,16.745 8.247,16.451 8.231 C 16.248 8.219,16.177 8.195,16.056 8.097 C 15.827 7.912,15.753 7.745,15.769 7.451 C 15.781 7.248,15.805 7.177,15.903 7.056 C 16.088 6.827,16.255 6.753,16.549 6.769 C 16.752 6.781,16.823 6.805,16.944 6.903 M15.131 12.281 C 13.562 12.446,12.303 13.802,12.272 15.359 C 12.264 15.733,12.307 15.859,12.506 16.047 C 12.647 16.181,12.799 16.240,13.000 16.240 C 13.201 16.240,13.353 16.181,13.494 16.047 C 13.664 15.886,13.714 15.761,13.757 15.394 C 13.818 14.867,13.922 14.635,14.256 14.288 C 14.632 13.897,15.036 13.740,15.597 13.767 C 15.878 13.781,15.991 13.807,16.211 13.910 C 16.585 14.085,16.886 14.381,17.071 14.755 C 17.216 15.048,17.220 15.068,17.220 15.500 C 17.220 15.932,17.216 15.952,17.071 16.245 C 16.786 16.822,16.285 17.167,15.622 17.242 C 15.240 17.285,15.115 17.335,14.953 17.506 C 14.819 17.647,14.760 17.799,14.760 18.000 C 14.760 18.201,14.819 18.353,14.953 18.494 C 15.138 18.690,15.268 18.736,15.621 18.729 C 16.839 18.705,17.932 17.971,18.464 16.820 C 18.648 16.420,18.726 16.029,18.726 15.500 C 18.726 14.969,18.648 14.579,18.461 14.174 C 17.861 12.875,16.553 12.132,15.131 12.281 M1.815 14.278 C 1.639 14.320,1.462 14.455,1.353 14.631 C 1.262 14.777,1.260 14.804,1.247 16.020 C 1.227 17.922,1.307 18.631,1.638 19.463 C 1.890 20.099,2.379 20.823,2.865 21.281 C 3.778 22.142,4.849 22.617,6.107 22.719 C 6.789 22.774,8.899 22.772,9.162 22.716 C 9.828 22.573,9.943 21.639,9.332 21.336 C 9.193 21.266,9.041 21.258,7.500 21.238 L 5.820 21.216 5.468 21.107 C 4.195 20.716,3.283 19.804,2.893 18.532 L 2.785 18.180 2.762 16.500 C 2.742 14.959,2.734 14.807,2.664 14.668 C 2.573 14.484,2.395 14.343,2.180 14.284 C 2.003 14.236,1.993 14.236,1.815 14.278 M7.180 14.281 C 6.086 14.427,5.276 15.360,5.270 16.480 C 5.267 17.129,5.470 17.630,5.920 18.080 C 6.363 18.523,6.868 18.731,7.500 18.731 C 8.132 18.731,8.637 18.523,9.080 18.080 C 9.523 17.637,9.731 17.132,9.731 16.500 C 9.731 15.868,9.523 15.363,9.080 14.920 C 8.575 14.415,7.894 14.186,7.180 14.281 M21.815 15.277 C 21.638 15.321,21.461 15.456,21.353 15.631 C 21.263 15.776,21.259 15.815,21.236 16.980 C 21.214 18.137,21.209 18.193,21.104 18.540 C 20.726 19.790,19.789 20.724,18.532 21.106 C 18.194 21.209,18.131 21.214,16.977 21.236 L 15.774 21.260 15.612 21.367 C 15.372 21.526,15.267 21.721,15.267 22.007 C 15.267 22.203,15.286 22.270,15.383 22.408 C 15.590 22.700,15.715 22.738,16.535 22.754 C 18.189 22.786,19.156 22.596,20.100 22.052 C 21.628 21.173,22.575 19.669,22.719 17.893 C 22.772 17.247,22.770 16.073,22.717 15.841 C 22.623 15.432,22.215 15.177,21.815 15.277 M7.944 15.903 C 8.173 16.088,8.247 16.255,8.231 16.549 C 8.219 16.752,8.195 16.823,8.097 16.944 C 7.912 17.173,7.745 17.247,7.451 17.231 C 7.248 17.219,7.177 17.195,7.056 17.097 C 6.827 16.912,6.753 16.745,6.769 16.451 C 6.781 16.248,6.805 16.177,6.903 16.056 C 7.088 15.827,7.255 15.753,7.549 15.769 C 7.752 15.781,7.823 15.805,7.944 15.903 " stroke="none" fill-rule="evenodd" fill="black"></path></svg>