<svg width="24" height="24" viewBox="0 0 24 24" fill="none" xmlns="http://www.w3.org/2000/svg"><path d="M6.020 1.284 C 4.095 1.444,2.352 2.737,1.638 4.537 C 1.307 5.369,1.227 6.078,1.247 7.980 C 1.260 9.196,1.262 9.223,1.353 9.369 C 1.664 9.870,2.408 9.849,2.664 9.332 C 2.734 9.193,2.742 9.041,2.762 7.500 L 2.785 5.820 2.893 5.468 C 3.285 4.189,4.189 3.285,5.468 2.893 L 5.820 2.785 7.500 2.762 C 9.041 2.742,9.193 2.734,9.332 2.664 C 9.928 2.368,9.832 1.448,9.189 1.286 C 8.975 1.233,6.662 1.231,6.020 1.284 M14.815 1.278 C 14.331 1.393,14.098 2.004,14.383 2.408 C 14.447 2.499,14.572 2.610,14.660 2.656 C 14.813 2.736,14.897 2.741,16.500 2.762 L 18.180 2.785 18.532 2.893 C 19.801 3.282,20.718 4.199,21.107 5.468 L 21.215 5.820 21.238 7.520 C 21.260 9.210,21.261 9.221,21.353 9.369 C 21.710 9.943,22.576 9.812,22.716 9.162 C 22.772 8.899,22.774 6.789,22.719 6.107 C 22.596 4.597,21.900 3.285,20.740 2.381 C 19.899 1.725,18.978 1.369,17.893 1.281 C 17.322 1.235,15.006 1.232,14.815 1.278 M9.248 5.803 C 8.030 5.961,7.131 6.564,6.660 7.540 C 6.338 8.208,6.242 8.859,6.241 10.386 L 6.240 11.232 5.510 11.246 C 4.824 11.259,4.771 11.266,4.627 11.355 C 4.385 11.506,4.267 11.718,4.267 12.003 C 4.267 12.203,4.286 12.270,4.383 12.408 C 4.590 12.700,4.715 12.738,5.530 12.754 L 6.240 12.768 6.241 13.614 C 6.242 15.141,6.338 15.792,6.660 16.460 C 7.138 17.449,8.022 18.036,9.280 18.199 C 9.671 18.249,14.329 18.249,14.720 18.199 C 15.978 18.036,16.862 17.449,17.340 16.460 C 17.662 15.792,17.758 15.141,17.759 13.610 L 17.760 12.760 18.358 12.760 C 19.121 12.760,19.321 12.719,19.520 12.520 C 19.918 12.122,19.730 11.423,19.189 11.286 C 19.087 11.261,18.726 11.240,18.385 11.240 L 17.766 11.240 17.753 10.270 C 17.739 9.215,17.732 9.178,17.494 8.953 C 17.217 8.691,16.783 8.691,16.506 8.953 C 16.268 9.178,16.261 9.215,16.247 10.270 L 16.234 11.240 11.997 11.240 L 7.760 11.240 7.760 10.138 C 7.760 8.903,7.798 8.600,8.009 8.170 C 8.158 7.864,8.407 7.628,8.734 7.481 C 9.199 7.271,9.216 7.270,11.820 7.244 C 13.564 7.227,14.283 7.207,14.340 7.173 C 14.446 7.112,14.618 6.925,14.681 6.802 C 14.751 6.667,14.744 6.323,14.669 6.179 C 14.588 6.024,14.409 5.856,14.267 5.803 C 14.133 5.752,9.640 5.752,9.248 5.803 M16.240 13.862 C 16.240 15.066,16.203 15.383,16.013 15.783 C 15.794 16.246,15.374 16.554,14.780 16.686 C 14.432 16.764,9.568 16.764,9.220 16.686 C 8.629 16.554,8.198 16.240,7.985 15.785 C 7.793 15.374,7.760 15.096,7.760 13.882 L 7.760 12.760 12.000 12.760 L 16.240 12.760 16.240 13.862 M1.815 14.278 C 1.639 14.320,1.462 14.455,1.353 14.631 C 1.262 14.777,1.260 14.804,1.247 16.020 C 1.227 17.922,1.307 18.631,1.638 19.463 C 1.890 20.099,2.379 20.823,2.865 21.281 C 3.778 22.142,4.849 22.617,6.107 22.719 C 6.789 22.774,8.899 22.772,9.162 22.716 C 9.828 22.573,9.943 21.639,9.332 21.336 C 9.193 21.266,9.041 21.258,7.500 21.238 L 5.820 21.216 5.468 21.107 C 4.195 20.716,3.283 19.804,2.893 18.532 L 2.785 18.180 2.762 16.500 C 2.742 14.959,2.734 14.807,2.664 14.668 C 2.573 14.484,2.395 14.343,2.180 14.284 C 2.003 14.236,1.993 14.236,1.815 14.278 M21.815 15.277 C 21.638 15.321,21.461 15.456,21.353 15.631 C 21.263 15.776,21.259 15.815,21.236 16.980 C 21.214 18.137,21.209 18.193,21.104 18.540 C 20.726 19.790,19.789 20.724,18.532 21.106 C 18.194 21.209,18.131 21.214,16.977 21.236 L 15.774 21.260 15.612 21.367 C 15.372 21.526,15.267 21.721,15.267 22.007 C 15.267 22.203,15.286 22.270,15.383 22.408 C 15.590 22.700,15.715 22.738,16.535 22.754 C 18.189 22.786,19.156 22.596,20.100 22.052 C 21.628 21.173,22.575 19.669,22.719 17.893 C 22.772 17.247,22.770 16.073,22.717 15.841 C 22.623 15.432,22.215 15.177,21.815 15.277 " stroke="none" fill-rule="evenodd" fill="black"></path></svg>