<svg width="24" height="24" viewBox="0 0 24 24" fill="none" xmlns="http://www.w3.org/2000/svg"><path d="M6.458 1.282 C 5.610 1.346,4.880 1.544,4.186 1.896 C 3.639 2.174,3.292 2.425,2.859 2.859 C 2.425 3.292,2.174 3.639,1.896 4.186 C 1.373 5.216,1.219 6.178,1.247 8.240 C 1.260 9.184,1.263 9.226,1.353 9.369 C 1.664 9.870,2.408 9.849,2.664 9.332 C 2.733 9.194,2.742 9.042,2.763 7.680 C 2.788 6.073,2.804 5.931,3.021 5.319 C 3.406 4.239,4.239 3.406,5.319 3.021 C 5.742 2.871,6.092 2.805,6.682 2.763 C 7.251 2.722,7.427 2.664,7.580 2.464 C 7.854 2.104,7.736 1.530,7.350 1.347 C 7.160 1.257,6.966 1.243,6.458 1.282 M10.940 1.260 C 10.918 1.267,10.852 1.284,10.793 1.296 C 10.543 1.351,10.283 1.705,10.281 1.991 C 10.279 2.253,10.454 2.538,10.700 2.674 C 10.808 2.733,11.167 2.742,14.340 2.763 C 18.165 2.789,17.999 2.779,18.680 3.021 C 19.727 3.393,20.558 4.202,20.942 5.221 C 21.194 5.892,21.209 6.011,21.235 7.680 C 21.260 9.211,21.261 9.221,21.355 9.373 C 21.499 9.604,21.710 9.726,21.970 9.728 C 22.361 9.732,22.632 9.525,22.717 9.159 C 22.770 8.930,22.771 7.267,22.719 6.547 C 22.652 5.612,22.468 4.902,22.110 4.197 C 21.826 3.639,21.577 3.294,21.141 2.859 C 20.175 1.893,19.007 1.393,17.455 1.281 C 16.963 1.245,11.041 1.226,10.940 1.260 M1.815 11.278 C 1.331 11.393,1.098 12.004,1.383 12.408 C 1.448 12.499,1.572 12.610,1.660 12.656 C 1.818 12.739,1.865 12.740,4.878 12.751 C 7.020 12.759,8.000 12.749,8.151 12.718 C 8.902 12.562,8.931 11.473,8.189 11.286 C 7.979 11.234,2.033 11.226,1.815 11.278 M10.815 11.278 C 10.331 11.393,10.098 12.004,10.383 12.408 C 10.447 12.499,10.572 12.610,10.660 12.656 C 10.820 12.740,10.829 12.740,16.380 12.751 C 20.330 12.758,22.002 12.749,22.154 12.717 C 22.902 12.562,22.929 11.473,22.189 11.286 C 21.979 11.233,11.035 11.226,10.815 11.278 M1.815 14.278 C 1.639 14.320,1.462 14.455,1.353 14.631 C 1.263 14.774,1.260 14.816,1.247 15.760 C 1.219 17.822,1.373 18.784,1.896 19.814 C 2.174 20.361,2.425 20.708,2.859 21.141 C 3.825 22.107,4.993 22.607,6.545 22.719 C 7.282 22.772,16.718 22.772,17.455 22.719 C 18.406 22.651,19.088 22.473,19.814 22.104 C 20.361 21.826,20.708 21.575,21.141 21.141 C 22.107 20.175,22.607 19.007,22.719 17.455 C 22.773 16.707,22.771 15.096,22.716 14.838 C 22.575 14.182,21.713 14.051,21.353 14.631 C 21.261 14.778,21.260 14.799,21.237 16.300 C 21.219 17.486,21.199 17.882,21.149 18.101 C 20.823 19.525,19.943 20.539,18.640 20.991 C 17.950 21.230,18.248 21.220,12.000 21.220 C 5.752 21.220,6.050 21.230,5.360 20.991 C 4.249 20.605,3.412 19.779,3.021 18.681 C 2.804 18.069,2.788 17.927,2.763 16.320 C 2.742 14.958,2.733 14.806,2.664 14.668 C 2.573 14.484,2.395 14.343,2.180 14.284 C 2.003 14.236,1.993 14.236,1.815 14.278 " stroke="none" fill-rule="evenodd" fill="black"></path></svg>