<svg width="24" height="24" viewBox="0 0 24 24" fill="none" xmlns="http://www.w3.org/2000/svg"><path d="M5.420 2.259 C 5.398 2.267,5.331 2.284,5.271 2.297 C 5.124 2.329,4.881 2.548,4.814 2.708 C 4.703 2.973,4.759 3.289,4.953 3.494 C 5.122 3.673,5.251 3.719,5.701 3.762 C 6.331 3.822,6.741 3.981,7.187 4.339 C 7.846 4.867,8.189 5.521,8.229 6.323 C 8.258 6.883,8.197 7.210,7.981 7.659 C 7.631 8.387,7.065 8.883,6.280 9.146 C 5.966 9.252,5.034 9.252,4.720 9.146 C 4.153 8.956,3.707 8.646,3.339 8.187 C 2.981 7.741,2.822 7.331,2.762 6.701 C 2.740 6.470,2.696 6.230,2.665 6.170 C 2.433 5.727,1.858 5.619,1.507 5.953 C 1.275 6.172,1.234 6.348,1.286 6.907 C 1.378 7.902,1.793 8.781,2.506 9.494 C 3.217 10.205,4.099 10.622,5.085 10.713 C 6.496 10.843,7.779 10.328,8.730 9.250 L 8.880 9.080 10.800 10.520 C 11.856 11.312,12.720 11.969,12.720 11.980 C 12.720 11.991,11.855 12.649,10.797 13.442 L 8.874 14.885 8.538 14.546 C 7.806 13.806,6.917 13.379,5.915 13.287 C 4.623 13.168,3.404 13.602,2.503 14.503 C 1.801 15.205,1.377 16.105,1.287 17.085 C 1.168 18.377,1.602 19.596,2.503 20.497 C 3.404 21.398,4.623 21.832,5.915 21.713 C 7.640 21.554,9.090 20.348,9.577 18.666 C 9.763 18.025,9.779 17.095,9.616 16.466 C 9.583 16.337,9.561 16.227,9.568 16.222 C 9.574 16.217,10.574 15.471,11.789 14.563 L 13.999 12.914 17.799 15.759 C 19.889 17.323,21.661 18.630,21.738 18.662 C 21.992 18.768,22.301 18.706,22.513 18.508 C 22.786 18.253,22.813 17.762,22.568 17.497 C 22.509 17.432,20.837 16.165,18.853 14.681 L 15.246 11.983 18.913 9.238 C 21.477 7.319,22.603 6.454,22.656 6.361 C 22.832 6.051,22.719 5.603,22.408 5.383 C 22.270 5.286,22.203 5.267,22.004 5.267 C 21.842 5.267,21.731 5.290,21.653 5.340 C 21.562 5.399,16.313 9.314,14.451 10.711 L 14.002 11.048 11.791 9.398 C 10.575 8.491,9.576 7.746,9.572 7.743 C 9.567 7.739,9.589 7.638,9.620 7.518 C 9.838 6.684,9.733 5.556,9.360 4.733 C 8.775 3.442,7.393 2.425,6.060 2.303 C 5.906 2.289,5.708 2.270,5.620 2.261 C 5.532 2.253,5.442 2.252,5.420 2.259 M6.360 14.877 C 6.756 15.011,7.135 15.256,7.465 15.589 C 7.708 15.834,7.800 15.966,7.960 16.295 C 8.199 16.787,8.259 17.094,8.230 17.677 C 8.195 18.385,7.953 18.924,7.439 19.439 C 7.124 19.754,6.801 19.961,6.392 20.110 C 6.124 20.208,6.051 20.217,5.500 20.217 C 4.978 20.217,4.866 20.205,4.640 20.126 C 3.836 19.843,3.144 19.151,2.878 18.360 C 2.758 18.005,2.728 17.295,2.815 16.885 C 3.020 15.922,3.892 15.036,4.847 14.819 C 5.227 14.732,6.024 14.763,6.360 14.877 " stroke="none" fill-rule="evenodd" fill="black"></path></svg>