<svg width="24" height="24" viewBox="0 0 24 24" fill="none" xmlns="http://www.w3.org/2000/svg"><path d="M10.340 1.280 C 7.323 1.481,4.583 3.071,2.890 5.602 C 1.878 7.114,1.305 8.919,1.270 10.700 C 1.261 11.184,1.266 11.230,1.353 11.369 C 1.710 11.943,2.576 11.812,2.716 11.162 C 2.740 11.049,2.760 10.826,2.760 10.667 C 2.760 9.693,3.081 8.427,3.596 7.374 C 4.826 4.860,7.237 3.148,10.039 2.802 C 10.225 2.779,10.508 2.760,10.667 2.760 C 10.826 2.760,11.049 2.740,11.162 2.716 C 11.800 2.579,11.944 1.709,11.387 1.364 C 11.220 1.261,10.949 1.239,10.340 1.280 M14.632 2.539 C 13.734 2.786,13.065 3.459,12.761 4.420 C 12.650 4.770,12.607 5.520,12.677 5.889 C 12.936 7.258,13.960 8.513,15.380 9.202 C 16.245 9.621,16.735 9.625,17.588 9.221 C 18.647 8.720,19.607 7.783,20.038 6.830 C 20.720 5.322,20.318 3.615,19.103 2.862 C 18.685 2.602,18.379 2.509,17.877 2.489 C 17.399 2.469,17.087 2.529,16.714 2.712 L 16.488 2.823 16.275 2.714 C 16.159 2.654,15.951 2.577,15.813 2.543 C 15.514 2.468,14.898 2.466,14.632 2.539 M15.551 4.022 C 15.633 4.056,15.799 4.179,15.920 4.297 C 16.243 4.610,16.503 4.673,16.824 4.518 C 16.917 4.473,17.058 4.357,17.137 4.261 C 17.324 4.033,17.558 3.940,17.866 3.972 C 18.598 4.048,19.048 4.919,18.817 5.814 C 18.670 6.382,18.217 7.012,17.644 7.446 C 17.347 7.671,16.639 8.040,16.504 8.040 C 16.385 8.040,15.819 7.763,15.510 7.553 C 15.152 7.311,14.682 6.825,14.490 6.500 C 14.072 5.789,14.018 5.136,14.330 4.548 C 14.584 4.070,15.115 3.841,15.551 4.022 M19.815 10.278 C 19.641 10.319,19.462 10.455,19.358 10.624 C 19.282 10.746,19.265 10.852,19.238 11.373 C 19.172 12.634,18.906 13.639,18.348 14.740 C 17.539 16.334,16.263 17.593,14.642 18.395 C 13.794 18.814,12.901 19.082,11.961 19.198 C 11.529 19.251,10.527 19.252,10.060 19.198 C 7.360 18.890,4.949 17.230,3.677 14.803 C 3.455 14.381,3.267 14.240,2.926 14.240 C 2.490 14.240,2.183 14.549,2.187 14.986 C 2.189 15.206,2.343 15.530,2.773 16.220 C 3.800 17.865,5.466 19.267,7.280 20.010 C 8.323 20.437,9.265 20.649,10.436 20.718 C 13.238 20.885,15.888 19.876,17.882 17.882 C 19.600 16.164,20.568 14.018,20.718 11.595 C 20.758 10.945,20.730 10.734,20.580 10.536 C 20.423 10.331,20.080 10.215,19.815 10.278 M20.180 18.280 C 19.234 18.393,18.516 18.988,18.296 19.841 C 18.202 20.208,18.237 20.836,18.374 21.229 C 18.778 22.391,19.513 23.032,20.420 23.013 C 21.098 22.999,21.686 22.647,22.211 21.941 C 22.695 21.289,22.904 20.708,22.870 20.101 C 22.830 19.375,22.461 18.838,21.782 18.515 C 21.371 18.320,20.688 18.220,20.180 18.280 M20.983 19.805 C 21.082 19.830,21.218 19.902,21.286 19.966 C 21.398 20.071,21.408 20.099,21.390 20.264 C 21.359 20.536,21.133 20.945,20.857 21.227 C 20.498 21.594,20.298 21.610,20.055 21.291 C 19.837 21.005,19.675 20.466,19.735 20.226 C 19.770 20.086,19.953 19.879,20.098 19.816 C 20.249 19.751,20.743 19.744,20.983 19.805 " stroke="none" fill-rule="evenodd" fill="black"></path></svg>