<svg width="24" height="24" viewBox="0 0 24 24" fill="none" xmlns="http://www.w3.org/2000/svg"><path d="M11.040 1.264 C 10.250 1.304,9.281 1.468,8.557 1.683 C 7.353 2.041,6.021 2.747,5.010 3.565 C 4.612 3.888,3.888 4.612,3.565 5.010 C 2.550 6.265,1.798 7.834,1.483 9.357 C 1.278 10.344,1.200 11.586,1.327 11.820 C 1.575 12.275,2.137 12.384,2.494 12.047 C 2.698 11.854,2.728 11.747,2.764 11.082 C 2.884 8.842,3.751 6.886,5.319 5.319 C 6.886 3.751,8.842 2.884,11.082 2.764 C 11.747 2.728,11.854 2.698,12.047 2.494 C 12.181 2.353,12.240 2.201,12.240 2.000 C 12.240 1.799,12.181 1.647,12.047 1.506 C 11.840 1.287,11.623 1.235,11.040 1.264 M13.815 4.278 C 13.331 4.393,13.098 5.004,13.383 5.408 C 13.447 5.499,13.572 5.610,13.660 5.656 C 13.818 5.739,13.865 5.740,16.878 5.751 C 19.020 5.759,20.000 5.749,20.151 5.718 C 20.902 5.562,20.931 4.473,20.189 4.286 C 19.979 4.234,14.033 4.226,13.815 4.278 M13.815 7.278 C 13.331 7.393,13.098 8.004,13.383 8.408 C 13.447 8.499,13.572 8.610,13.660 8.656 C 13.813 8.736,13.888 8.741,15.373 8.752 C 17.166 8.766,17.287 8.753,17.519 8.521 C 17.918 8.122,17.731 7.423,17.189 7.286 C 16.981 7.234,14.029 7.227,13.815 7.278 M20.720 10.805 C 20.589 10.857,20.408 11.030,20.331 11.178 C 20.289 11.259,20.259 11.491,20.236 11.918 C 20.116 14.158,19.248 16.115,17.681 17.681 C 16.276 19.085,14.549 19.933,12.590 20.183 C 11.950 20.264,10.679 20.244,10.080 20.142 C 7.400 19.687,5.088 18.037,3.800 15.660 C 3.556 15.209,3.494 15.129,3.318 15.039 C 3.041 14.897,2.688 14.944,2.465 15.153 C 2.186 15.413,2.167 15.738,2.404 16.207 C 3.469 18.326,5.390 20.075,7.680 21.010 C 9.499 21.753,11.635 21.933,13.655 21.515 C 15.165 21.202,16.739 20.447,17.990 19.435 C 18.388 19.112,19.112 18.388,19.435 17.990 C 20.090 17.180,20.784 15.958,21.139 14.990 C 21.454 14.129,21.659 13.117,21.719 12.123 C 21.755 11.521,21.740 11.305,21.650 11.139 C 21.584 11.018,21.393 10.850,21.267 10.803 C 21.129 10.750,20.854 10.751,20.720 10.805 M19.815 19.277 C 19.640 19.320,19.462 19.456,19.356 19.626 C 19.235 19.823,19.232 20.174,19.351 20.364 C 19.397 20.439,19.927 20.988,20.528 21.585 C 21.553 22.605,21.632 22.673,21.810 22.711 C 22.389 22.832,22.832 22.389,22.711 21.810 C 22.673 21.632,22.605 21.553,21.585 20.528 C 20.988 19.927,20.446 19.402,20.380 19.362 C 20.235 19.273,19.985 19.236,19.815 19.277 " stroke="none" fill-rule="evenodd" fill="black"></path></svg>