<svg width="24" height="24" viewBox="0 0 24 24" fill="none" xmlns="http://www.w3.org/2000/svg"><path d="M11.420 1.260 C 11.398 1.267,11.331 1.284,11.271 1.297 C 11.124 1.329,10.881 1.548,10.814 1.708 C 10.703 1.973,10.759 2.289,10.953 2.494 C 11.145 2.697,11.255 2.728,11.898 2.763 C 14.163 2.882,16.101 3.739,17.681 5.319 C 19.358 6.996,20.240 9.126,20.240 11.500 C 20.240 13.874,19.358 16.004,17.681 17.681 C 16.004 19.358,13.874 20.240,11.500 20.240 C 9.126 20.240,6.996 19.358,5.319 17.681 C 3.920 16.282,3.065 14.544,2.818 12.600 C 2.736 11.950,2.756 10.682,2.858 10.080 C 3.063 8.871,3.493 7.770,4.159 6.746 C 4.976 5.491,5.942 4.594,7.314 3.816 C 7.657 3.621,7.745 3.551,7.832 3.403 C 8.055 3.023,7.918 2.571,7.521 2.370 C 7.248 2.232,7.096 2.251,6.661 2.479 C 4.416 3.657,2.644 5.741,1.795 8.200 C 1.175 9.995,1.095 12.132,1.577 14.045 C 1.758 14.763,1.940 15.249,2.322 16.030 C 2.831 17.069,3.443 17.926,4.258 18.742 C 5.025 19.509,5.880 20.132,6.820 20.609 C 8.370 21.396,9.753 21.726,11.500 21.726 C 13.243 21.726,14.634 21.394,16.180 20.609 C 17.120 20.132,17.975 19.509,18.742 18.742 C 20.358 17.126,21.344 15.116,21.664 12.786 C 21.746 12.189,21.746 10.811,21.664 10.214 C 21.396 8.259,20.644 6.505,19.435 5.010 C 19.112 4.612,18.388 3.888,17.990 3.565 C 16.458 2.326,14.544 1.524,12.640 1.323 C 12.211 1.278,11.481 1.240,11.420 1.260 M8.720 11.005 C 8.458 11.109,8.269 11.400,8.269 11.700 C 8.269 12.007,8.460 12.295,8.733 12.397 C 8.808 12.426,9.722 12.440,11.500 12.440 C 13.278 12.440,14.192 12.426,14.267 12.397 C 14.540 12.295,14.731 12.007,14.731 11.700 C 14.731 11.393,14.540 11.105,14.267 11.003 C 14.118 10.946,8.862 10.948,8.720 11.005 M19.815 19.277 C 19.640 19.320,19.462 19.456,19.356 19.626 C 19.235 19.823,19.232 20.174,19.351 20.364 C 19.397 20.439,19.927 20.988,20.528 21.585 C 21.553 22.605,21.632 22.673,21.810 22.711 C 22.389 22.832,22.832 22.389,22.711 21.810 C 22.673 21.632,22.605 21.553,21.585 20.528 C 20.988 19.927,20.446 19.402,20.380 19.362 C 20.235 19.273,19.985 19.236,19.815 19.277 " stroke="none" fill-rule="evenodd" fill="black"></path></svg>