<svg width="24" height="24" viewBox="0 0 24 24" fill="none" xmlns="http://www.w3.org/2000/svg"><path d="M10.340 1.280 C 7.323 1.481,4.583 3.071,2.890 5.602 C 1.878 7.114,1.305 8.919,1.270 10.700 C 1.261 11.184,1.266 11.230,1.353 11.369 C 1.710 11.943,2.576 11.812,2.716 11.162 C 2.740 11.049,2.760 10.826,2.760 10.667 C 2.760 9.693,3.081 8.427,3.596 7.374 C 4.826 4.860,7.237 3.148,10.039 2.802 C 10.225 2.779,10.508 2.760,10.667 2.760 C 10.826 2.760,11.049 2.740,11.162 2.716 C 11.800 2.579,11.944 1.709,11.387 1.364 C 11.220 1.261,10.949 1.239,10.340 1.280 M13.815 4.278 C 13.331 4.393,13.098 5.004,13.383 5.408 C 13.447 5.499,13.572 5.610,13.660 5.656 C 13.818 5.739,13.865 5.740,16.878 5.751 C 19.020 5.759,20.000 5.749,20.151 5.718 C 20.902 5.562,20.931 4.473,20.189 4.286 C 19.979 4.234,14.033 4.226,13.815 4.278 M13.815 7.278 C 13.331 7.393,13.098 8.004,13.383 8.408 C 13.447 8.499,13.572 8.610,13.660 8.656 C 13.813 8.736,13.888 8.741,15.373 8.752 C 17.166 8.766,17.287 8.753,17.519 8.521 C 17.918 8.122,17.731 7.423,17.189 7.286 C 16.981 7.234,14.029 7.227,13.815 7.278 M19.815 10.278 C 19.641 10.319,19.462 10.455,19.358 10.624 C 19.282 10.746,19.265 10.852,19.238 11.373 C 19.172 12.634,18.906 13.639,18.348 14.740 C 17.539 16.334,16.263 17.593,14.642 18.395 C 13.794 18.814,12.901 19.082,11.961 19.198 C 11.529 19.251,10.527 19.252,10.060 19.198 C 7.360 18.890,4.949 17.230,3.677 14.803 C 3.455 14.381,3.267 14.240,2.926 14.240 C 2.490 14.240,2.183 14.549,2.187 14.986 C 2.189 15.206,2.343 15.530,2.773 16.220 C 3.800 17.865,5.466 19.267,7.280 20.010 C 8.323 20.437,9.265 20.649,10.436 20.718 C 13.238 20.885,15.888 19.876,17.882 17.882 C 19.600 16.164,20.568 14.018,20.718 11.595 C 20.758 10.945,20.730 10.734,20.580 10.536 C 20.423 10.331,20.080 10.215,19.815 10.278 M20.180 18.280 C 19.234 18.393,18.516 18.988,18.296 19.841 C 18.202 20.208,18.237 20.836,18.374 21.229 C 18.778 22.391,19.513 23.032,20.420 23.013 C 21.098 22.999,21.686 22.647,22.211 21.941 C 22.695 21.289,22.904 20.708,22.870 20.101 C 22.830 19.375,22.461 18.838,21.782 18.515 C 21.371 18.320,20.688 18.220,20.180 18.280 M20.983 19.805 C 21.082 19.830,21.218 19.902,21.286 19.966 C 21.398 20.071,21.408 20.099,21.390 20.264 C 21.359 20.536,21.133 20.945,20.857 21.227 C 20.498 21.594,20.298 21.610,20.055 21.291 C 19.837 21.005,19.675 20.466,19.735 20.226 C 19.770 20.086,19.953 19.879,20.098 19.816 C 20.249 19.751,20.743 19.744,20.983 19.805 " stroke="none" fill-rule="evenodd" fill="black"></path></svg>