<svg width="24" height="24" viewBox="0 0 24 24" fill="none" xmlns="http://www.w3.org/2000/svg"><path d="M11.040 1.264 C 10.250 1.304,9.281 1.468,8.557 1.683 C 7.353 2.041,6.021 2.747,5.010 3.565 C 4.612 3.888,3.888 4.612,3.565 5.010 C 2.550 6.265,1.798 7.834,1.483 9.357 C 1.278 10.344,1.200 11.586,1.327 11.820 C 1.575 12.275,2.137 12.384,2.494 12.047 C 2.698 11.854,2.728 11.747,2.764 11.082 C 2.884 8.842,3.751 6.886,5.319 5.319 C 6.886 3.751,8.842 2.884,11.082 2.764 C 11.747 2.728,11.854 2.698,12.047 2.494 C 12.181 2.353,12.240 2.201,12.240 2.000 C 12.240 1.799,12.181 1.647,12.047 1.506 C 11.840 1.287,11.623 1.235,11.040 1.264 M15.632 2.539 C 14.734 2.786,14.065 3.459,13.761 4.420 C 13.650 4.770,13.607 5.520,13.677 5.889 C 13.936 7.258,14.960 8.513,16.380 9.202 C 17.245 9.621,17.735 9.625,18.588 9.221 C 19.647 8.720,20.607 7.783,21.038 6.830 C 21.720 5.322,21.318 3.615,20.103 2.862 C 19.685 2.602,19.379 2.509,18.877 2.489 C 18.399 2.469,18.087 2.529,17.714 2.712 L 17.488 2.823 17.275 2.714 C 17.159 2.654,16.951 2.577,16.813 2.543 C 16.514 2.468,15.898 2.466,15.632 2.539 M16.551 4.022 C 16.633 4.056,16.799 4.179,16.920 4.297 C 17.243 4.610,17.503 4.673,17.824 4.518 C 17.917 4.473,18.058 4.357,18.137 4.261 C 18.324 4.033,18.558 3.940,18.866 3.972 C 19.598 4.048,20.048 4.919,19.817 5.814 C 19.670 6.382,19.217 7.012,18.644 7.446 C 18.347 7.671,17.639 8.040,17.504 8.040 C 17.385 8.040,16.819 7.763,16.510 7.553 C 16.152 7.311,15.682 6.825,15.490 6.500 C 15.072 5.789,15.018 5.136,15.330 4.548 C 15.584 4.070,16.115 3.841,16.551 4.022 M20.720 10.805 C 20.589 10.857,20.408 11.030,20.331 11.178 C 20.289 11.259,20.259 11.491,20.236 11.918 C 20.116 14.158,19.248 16.115,17.681 17.681 C 16.276 19.085,14.549 19.933,12.590 20.183 C 11.950 20.264,10.679 20.244,10.080 20.142 C 7.400 19.687,5.088 18.037,3.800 15.660 C 3.556 15.209,3.494 15.129,3.318 15.039 C 3.041 14.897,2.688 14.944,2.465 15.153 C 2.186 15.413,2.167 15.738,2.404 16.207 C 3.469 18.326,5.390 20.075,7.680 21.010 C 9.499 21.753,11.635 21.933,13.655 21.515 C 15.165 21.202,16.739 20.447,17.990 19.435 C 18.388 19.112,19.112 18.388,19.435 17.990 C 20.090 17.180,20.784 15.958,21.139 14.990 C 21.454 14.129,21.659 13.117,21.719 12.123 C 21.755 11.521,21.740 11.305,21.650 11.139 C 21.584 11.018,21.393 10.850,21.267 10.803 C 21.129 10.750,20.854 10.751,20.720 10.805 M19.815 19.277 C 19.640 19.320,19.462 19.456,19.356 19.626 C 19.235 19.823,19.232 20.174,19.351 20.364 C 19.397 20.439,19.927 20.988,20.528 21.585 C 21.553 22.605,21.632 22.673,21.810 22.711 C 22.389 22.832,22.832 22.389,22.711 21.810 C 22.673 21.632,22.605 21.553,21.585 20.528 C 20.988 19.927,20.446 19.402,20.380 19.362 C 20.235 19.273,19.985 19.236,19.815 19.277 " stroke="none" fill-rule="evenodd" fill="black"></path></svg>