<svg width="24" height="24" viewBox="0 0 24 24" fill="none" xmlns="http://www.w3.org/2000/svg"><path d="M10.815 1.279 C 10.332 1.391,10.098 2.004,10.383 2.408 C 10.572 2.675,10.714 2.724,11.395 2.762 C 12.646 2.832,13.647 3.098,14.740 3.652 C 16.334 4.461,17.593 5.737,18.395 7.358 C 18.977 8.535,19.240 9.668,19.240 11.000 C 19.240 12.332,18.977 13.465,18.395 14.642 C 17.574 16.301,16.301 17.574,14.642 18.395 C 13.465 18.977,12.332 19.240,11.000 19.240 C 10.658 19.240,10.225 19.221,10.039 19.198 C 7.636 18.901,5.500 17.594,4.145 15.590 C 3.451 14.563,2.960 13.236,2.802 11.961 C 2.749 11.529,2.748 10.527,2.802 10.060 C 3.098 7.462,4.646 5.125,6.930 3.827 C 7.416 3.550,7.537 3.444,7.624 3.214 C 7.805 2.742,7.444 2.240,6.925 2.240 C 6.768 2.240,6.657 2.277,6.379 2.424 C 4.257 3.543,2.575 5.530,1.775 7.860 C 1.110 9.797,1.091 12.009,1.721 13.977 C 2.766 17.238,5.505 19.752,8.824 20.498 C 10.202 20.807,11.740 20.814,13.100 20.516 C 14.906 20.121,16.546 19.218,17.882 17.882 C 19.431 16.333,20.355 14.465,20.662 12.260 C 20.798 11.285,20.738 9.915,20.516 8.900 C 19.646 4.919,16.317 1.866,12.280 1.345 C 11.718 1.273,10.984 1.239,10.815 1.279 M20.180 18.280 C 19.234 18.393,18.516 18.988,18.296 19.841 C 18.202 20.208,18.237 20.836,18.374 21.229 C 18.778 22.391,19.513 23.032,20.420 23.013 C 21.098 22.999,21.686 22.647,22.211 21.941 C 22.695 21.289,22.904 20.708,22.870 20.101 C 22.830 19.375,22.461 18.838,21.782 18.515 C 21.371 18.320,20.688 18.220,20.180 18.280 M20.983 19.805 C 21.082 19.830,21.218 19.902,21.286 19.966 C 21.398 20.071,21.408 20.099,21.390 20.264 C 21.359 20.536,21.133 20.945,20.857 21.227 C 20.498 21.594,20.298 21.610,20.055 21.291 C 19.837 21.005,19.675 20.466,19.735 20.226 C 19.770 20.086,19.953 19.879,20.098 19.816 C 20.249 19.751,20.743 19.744,20.983 19.805 " stroke="none" fill-rule="evenodd" fill="black"></path></svg>