<svg width="24" height="24" viewBox="0 0 24 24" fill="none" xmlns="http://www.w3.org/2000/svg"><path d="M11.160 1.325 C 10.750 1.391,10.261 1.519,9.900 1.655 C 9.117 1.949,4.203 3.976,3.947 4.110 C 3.072 4.568,2.360 5.703,2.360 6.637 C 2.360 7.197,2.696 7.533,3.188 7.465 C 3.558 7.414,3.783 7.152,3.840 6.703 C 3.861 6.533,3.916 6.311,3.961 6.209 C 4.074 5.953,4.318 5.640,4.504 5.511 C 4.653 5.408,9.909 3.233,10.581 2.996 C 11.340 2.729,12.303 2.689,13.080 2.893 C 13.404 2.978,18.970 5.218,19.366 5.423 C 19.562 5.525,19.846 5.838,20.001 6.123 L 20.140 6.380 20.153 9.020 C 20.167 11.833,20.155 12.100,19.973 13.000 C 19.674 14.485,19.054 15.883,18.145 17.120 C 16.784 18.974,14.958 20.327,12.860 21.037 C 12.156 21.275,11.981 21.288,11.472 21.140 C 8.767 20.356,6.261 18.230,4.938 15.596 C 4.293 14.311,3.939 12.956,3.858 11.460 C 3.827 10.883,3.804 10.791,3.647 10.626 C 3.489 10.459,3.327 10.389,3.100 10.389 C 2.860 10.389,2.696 10.465,2.528 10.657 C 2.366 10.842,2.343 10.985,2.373 11.647 C 2.504 14.528,3.801 17.364,5.982 19.541 C 7.338 20.895,9.227 22.031,10.993 22.556 C 11.831 22.805,12.282 22.793,13.205 22.496 C 14.299 22.143,15.177 21.714,16.200 21.034 C 18.775 19.319,20.646 16.657,21.354 13.700 C 21.643 12.490,21.692 11.716,21.669 8.640 C 21.651 6.061,21.655 6.106,21.353 5.496 C 21.028 4.839,20.557 4.357,19.940 4.050 C 19.688 3.924,14.721 1.884,14.102 1.652 C 13.655 1.485,13.360 1.407,12.900 1.337 C 12.504 1.276,11.506 1.269,11.160 1.325 M11.387 7.825 C 10.598 7.994,9.900 8.552,9.540 9.300 C 9.334 9.727,9.270 10.013,9.270 10.500 C 9.270 10.991,9.334 11.273,9.548 11.717 C 9.699 12.032,9.783 12.149,10.054 12.417 C 10.392 12.752,10.760 12.996,11.061 13.085 L 11.235 13.136 11.248 14.418 C 11.261 15.817,11.261 15.815,11.506 16.047 C 11.647 16.181,11.799 16.240,12.000 16.240 C 12.201 16.240,12.353 16.181,12.494 16.047 C 12.739 15.815,12.739 15.817,12.752 14.418 L 12.765 13.136 12.939 13.085 C 13.240 12.996,13.608 12.752,13.946 12.417 C 14.217 12.149,14.301 12.032,14.452 11.717 C 14.666 11.273,14.730 10.991,14.730 10.500 C 14.730 10.013,14.666 9.727,14.460 9.300 C 14.187 8.731,13.675 8.233,13.110 7.983 C 12.629 7.770,11.938 7.707,11.387 7.825 M12.499 9.355 C 13.131 9.635,13.420 10.400,13.126 11.020 C 12.908 11.481,12.507 11.736,12.000 11.736 C 11.485 11.736,11.073 11.469,10.861 10.996 C 10.766 10.784,10.754 10.712,10.766 10.446 C 10.787 10.003,10.987 9.659,11.358 9.429 C 11.678 9.231,12.149 9.200,12.499 9.355 " stroke="none" fill-rule="evenodd" fill="black"></path></svg>