<svg width="24" height="24" viewBox="0 0 24 24" fill="none" xmlns="http://www.w3.org/2000/svg"><path d="M11.160 1.205 C 10.750 1.271,10.261 1.399,9.900 1.535 C 9.117 1.829,4.203 3.856,3.947 3.990 C 3.072 4.448,2.360 5.583,2.360 6.517 C 2.360 7.077,2.696 7.413,3.188 7.345 C 3.558 7.294,3.783 7.032,3.840 6.583 C 3.861 6.413,3.916 6.191,3.961 6.089 C 4.074 5.833,4.318 5.520,4.504 5.391 C 4.653 5.288,9.909 3.113,10.581 2.876 C 11.340 2.609,12.303 2.569,13.080 2.773 C 13.472 2.875,19.117 5.161,19.431 5.345 C 19.622 5.456,19.872 5.752,20.033 6.058 L 20.140 6.260 20.152 8.940 C 20.162 11.232,20.154 11.692,20.099 12.120 C 19.865 13.914,19.214 15.541,18.144 17.000 C 16.783 18.857,14.956 20.209,12.844 20.922 C 12.274 21.114,12.207 21.128,11.944 21.110 C 11.612 21.087,10.895 20.857,10.232 20.560 C 7.731 19.440,5.606 17.235,4.596 14.711 C 4.146 13.588,3.925 12.578,3.858 11.340 C 3.827 10.763,3.804 10.671,3.647 10.506 C 3.489 10.339,3.327 10.269,3.100 10.269 C 2.860 10.269,2.696 10.345,2.528 10.537 C 2.366 10.722,2.343 10.865,2.373 11.527 C 2.504 14.408,3.801 17.244,5.982 19.421 C 7.338 20.775,9.227 21.911,10.993 22.436 C 11.831 22.685,12.282 22.673,13.205 22.376 C 14.299 22.023,15.177 21.594,16.200 20.914 C 18.775 19.199,20.646 16.537,21.354 13.580 C 21.643 12.370,21.692 11.596,21.669 8.520 C 21.651 5.941,21.655 5.986,21.353 5.376 C 21.032 4.728,20.559 4.240,19.960 3.939 C 19.730 3.823,14.609 1.718,14.071 1.518 C 13.380 1.260,12.776 1.160,11.960 1.165 C 11.641 1.168,11.281 1.185,11.160 1.205 " stroke="none" fill-rule="evenodd" fill="black"></path></svg>