<svg width="24" height="24" viewBox="0 0 24 24" fill="none" xmlns="http://www.w3.org/2000/svg"><path d="M9.993 1.322 C 9.371 1.377,9.054 1.472,7.386 2.097 C 3.220 3.658,3.284 3.631,2.804 4.035 C 1.953 4.751,1.384 5.775,1.281 6.774 C 1.230 7.273,1.278 7.471,1.507 7.687 C 1.647 7.821,1.799 7.880,2.000 7.880 C 2.201 7.880,2.353 7.821,2.494 7.687 C 2.664 7.526,2.714 7.401,2.757 7.034 C 2.808 6.601,2.882 6.368,3.086 6.000 C 3.279 5.651,3.806 5.099,4.076 4.962 C 4.448 4.773,9.469 2.911,9.754 2.856 C 10.136 2.783,11.021 2.785,11.373 2.859 C 11.697 2.928,16.676 4.792,17.011 4.970 C 17.234 5.088,17.715 5.522,17.801 5.682 C 17.842 5.759,17.799 5.760,14.451 5.761 C 10.918 5.762,10.605 5.774,9.980 5.940 C 9.299 6.121,8.699 6.593,8.425 7.165 C 8.244 7.543,8.135 7.962,8.081 8.485 C 8.026 9.026,8.026 15.233,8.082 15.752 C 8.247 17.297,8.913 18.103,10.251 18.377 C 10.765 18.483,11.603 18.519,13.557 18.519 L 15.414 18.520 13.937 19.627 C 12.115 20.992,11.877 21.117,10.938 21.196 C 10.046 21.271,9.158 21.076,8.571 20.675 C 8.466 20.603,7.390 19.804,6.180 18.900 C 4.043 17.302,3.761 17.068,3.474 16.651 C 3.296 16.392,2.978 15.732,2.885 15.430 C 2.745 14.972,2.720 14.565,2.720 12.765 L 2.720 11.027 2.624 10.863 C 2.384 10.453,1.774 10.382,1.452 10.727 C 1.243 10.951,1.240 10.978,1.240 12.949 C 1.240 14.363,1.254 14.870,1.300 15.174 C 1.466 16.275,2.154 17.594,2.932 18.299 C 3.090 18.443,4.246 19.326,5.500 20.261 C 7.953 22.091,8.199 22.249,8.940 22.473 C 9.542 22.656,9.867 22.699,10.600 22.695 C 11.116 22.692,11.351 22.672,11.680 22.603 C 12.243 22.484,12.823 22.252,13.260 21.969 C 13.458 21.841,14.596 21.003,15.790 20.108 L 17.959 18.480 18.801 18.480 C 20.485 18.480,21.281 18.288,21.875 17.738 C 22.172 17.464,22.328 17.222,22.481 16.804 C 22.725 16.135,22.731 16.047,22.750 12.625 C 22.768 9.261,22.741 8.418,22.596 7.839 C 22.276 6.569,21.449 5.931,19.961 5.811 L 19.583 5.780 19.438 5.496 C 18.963 4.567,18.254 3.870,17.413 3.505 C 16.829 3.251,12.181 1.522,11.867 1.442 C 11.694 1.398,11.327 1.343,11.051 1.321 C 10.506 1.277,10.504 1.277,9.993 1.322 M20.115 7.340 C 20.305 7.371,20.547 7.444,20.675 7.507 C 20.868 7.604,20.916 7.652,21.012 7.845 C 21.186 8.193,21.237 8.583,21.239 9.590 L 21.240 10.480 15.400 10.480 L 9.560 10.480 9.560 9.650 C 9.561 8.304,9.687 7.756,10.046 7.546 C 10.477 7.294,10.281 7.304,14.960 7.281 C 19.582 7.258,19.621 7.259,20.115 7.340 M21.240 13.750 C 21.240 14.776,21.222 15.651,21.198 15.800 C 21.083 16.528,20.889 16.755,20.246 16.910 C 20.013 16.967,19.473 16.977,15.860 16.990 C 13.162 17.000,11.545 16.991,11.174 16.963 C 10.216 16.890,9.879 16.731,9.722 16.277 C 9.588 15.892,9.560 15.440,9.560 13.671 L 9.560 11.960 15.400 11.960 L 21.240 11.960 21.240 13.750 M11.040 14.565 C 10.778 14.669,10.589 14.960,10.589 15.260 C 10.589 15.487,10.659 15.649,10.826 15.807 C 11.012 15.983,11.114 16.000,11.990 16.000 C 12.940 16.000,13.060 15.969,13.266 15.672 C 13.361 15.534,13.380 15.466,13.380 15.260 C 13.380 15.054,13.361 14.986,13.266 14.848 C 13.058 14.549,12.941 14.520,11.977 14.523 C 11.517 14.524,11.095 14.543,11.040 14.565 M14.414 14.602 C 14.322 14.648,14.197 14.758,14.134 14.849 C 14.039 14.986,14.020 15.054,14.020 15.260 C 14.020 15.571,14.150 15.789,14.410 15.915 C 14.581 15.998,14.632 16.000,16.383 15.999 C 18.041 15.998,18.192 15.993,18.340 15.925 C 18.530 15.837,18.616 15.748,18.698 15.550 C 18.777 15.362,18.777 15.158,18.698 14.970 C 18.616 14.772,18.530 14.683,18.340 14.595 C 18.192 14.527,18.041 14.522,16.380 14.521 C 14.643 14.520,14.574 14.523,14.414 14.602 " stroke="none" fill-rule="evenodd" fill="black"></path></svg>