<svg width="24" height="24" viewBox="0 0 24 24" fill="none" xmlns="http://www.w3.org/2000/svg"><path d="M11.426 1.284 C 11.210 1.301,10.893 1.351,10.723 1.395 C 10.332 1.493,5.318 3.361,4.940 3.549 C 4.548 3.743,4.227 3.982,3.897 4.326 C 3.193 5.058,2.773 5.946,2.696 6.864 C 2.666 7.229,2.709 7.413,2.868 7.602 C 3.095 7.873,3.492 7.935,3.807 7.750 C 4.036 7.615,4.146 7.412,4.179 7.060 C 4.237 6.438,4.494 5.887,4.953 5.396 C 5.106 5.233,5.328 5.043,5.446 4.973 C 5.717 4.812,10.825 2.896,11.189 2.819 C 11.351 2.785,11.686 2.761,12.020 2.761 C 12.354 2.761,12.689 2.785,12.851 2.819 C 13.215 2.896,18.323 4.812,18.594 4.973 C 19.052 5.244,19.563 5.917,19.770 6.520 L 19.859 6.780 19.872 10.580 C 19.880 13.044,19.870 14.517,19.842 14.769 C 19.751 15.622,19.280 16.579,18.662 17.170 C 18.227 17.586,14.044 20.690,13.660 20.881 C 13.110 21.155,12.809 21.216,12.000 21.215 C 11.205 21.214,10.915 21.157,10.390 20.901 C 10.043 20.732,5.668 17.484,5.309 17.129 C 4.941 16.766,4.546 16.117,4.352 15.560 C 4.172 15.040,4.160 14.884,4.160 13.016 C 4.160 11.133,4.155 11.073,3.968 10.867 C 3.781 10.660,3.379 10.579,3.109 10.695 C 2.953 10.762,2.780 10.939,2.723 11.093 C 2.695 11.166,2.680 11.858,2.680 13.099 C 2.680 15.147,2.691 15.290,2.905 15.940 C 3.164 16.723,3.671 17.591,4.176 18.115 C 4.367 18.314,5.109 18.896,6.440 19.892 C 9.579 22.240,9.572 22.236,10.302 22.474 C 10.917 22.675,11.384 22.733,12.193 22.708 C 13.112 22.680,13.577 22.579,14.264 22.256 C 14.655 22.072,14.799 21.969,17.380 20.040 C 19.005 18.826,19.727 18.262,19.892 18.078 C 20.379 17.537,20.858 16.709,21.097 15.993 C 21.347 15.245,21.333 15.522,21.349 11.026 C 21.364 6.591,21.363 6.559,21.154 5.950 C 20.808 4.939,20.002 3.996,19.100 3.549 C 18.714 3.357,13.711 1.495,13.322 1.398 C 13.028 1.325,12.210 1.235,11.940 1.246 C 11.874 1.249,11.643 1.266,11.426 1.284 M11.205 6.824 C 9.089 7.179,7.470 8.939,7.285 11.085 C 7.095 13.290,8.412 15.296,10.512 16.000 C 11.647 16.380,12.923 16.304,14.007 15.793 C 14.517 15.553,14.680 15.355,14.680 14.976 C 14.680 14.572,14.370 14.263,13.965 14.262 C 13.785 14.262,13.668 14.296,13.377 14.430 C 12.870 14.664,12.556 14.733,11.980 14.734 C 11.395 14.735,11.078 14.665,10.580 14.422 C 9.753 14.019,9.095 13.233,8.854 12.360 C 8.752 11.993,8.752 11.007,8.854 10.640 C 9.095 9.767,9.753 8.981,10.580 8.578 C 11.082 8.334,11.393 8.265,12.000 8.265 C 12.607 8.265,12.918 8.334,13.420 8.578 C 14.247 8.981,14.923 9.790,15.139 10.633 C 15.174 10.772,15.220 11.073,15.240 11.301 C 15.260 11.530,15.303 11.768,15.335 11.829 C 15.664 12.459,16.566 12.342,16.723 11.649 C 16.765 11.461,16.694 10.729,16.596 10.345 C 15.987 7.947,13.642 6.416,11.205 6.824 M11.940 9.577 C 11.791 9.643,11.619 9.824,11.563 9.973 C 11.539 10.035,11.520 10.332,11.519 10.633 C 11.519 10.987,11.501 11.214,11.469 11.278 C 11.441 11.333,11.241 11.483,11.008 11.623 C 10.781 11.759,10.550 11.913,10.494 11.965 C 10.198 12.242,10.179 12.677,10.451 12.986 C 10.602 13.158,10.778 13.240,10.997 13.240 C 11.203 13.240,11.280 13.205,11.887 12.831 C 12.438 12.492,12.656 12.283,12.820 11.935 C 12.965 11.630,13.000 11.391,13.000 10.713 C 13.000 10.097,12.965 9.920,12.808 9.747 C 12.621 9.540,12.205 9.458,11.940 9.577 " stroke="none" fill-rule="evenodd" fill="black"></path></svg>