<svg width="24" height="24" viewBox="0 0 24 24" fill="none" xmlns="http://www.w3.org/2000/svg"><path d="M11.220 1.305 C 10.757 1.372,10.196 1.561,7.820 2.449 C 6.346 3.000,5.032 3.504,4.900 3.570 C 4.534 3.752,4.211 3.998,3.879 4.345 C 3.373 4.876,2.977 5.557,2.791 6.220 L 2.701 6.540 2.689 10.716 C 2.679 14.357,2.686 14.939,2.740 15.255 C 2.916 16.272,3.494 17.407,4.211 18.144 C 4.670 18.615,9.088 21.913,9.640 22.196 C 10.385 22.579,11.068 22.733,12.020 22.733 C 13.317 22.733,14.208 22.432,15.260 21.638 C 15.880 21.171,15.981 21.069,16.041 20.858 C 16.177 20.370,15.827 19.920,15.312 19.920 C 15.064 19.920,15.026 19.941,14.404 20.411 C 13.592 21.027,13.126 21.197,12.175 21.229 C 11.702 21.245,11.498 21.235,11.236 21.182 C 10.773 21.088,10.343 20.914,10.017 20.688 C 9.354 20.229,5.560 17.373,5.366 17.186 C 4.976 16.810,4.652 16.301,4.403 15.669 C 4.160 15.055,4.160 15.049,4.160 10.865 C 4.160 8.433,4.176 6.968,4.202 6.805 C 4.320 6.078,4.957 5.200,5.580 4.905 C 5.711 4.843,6.988 4.354,8.419 3.819 C 10.670 2.976,11.068 2.838,11.380 2.797 C 11.818 2.739,12.650 2.770,12.967 2.856 C 13.338 2.956,18.240 4.798,18.499 4.934 C 18.962 5.177,19.448 5.761,19.704 6.380 L 19.820 6.660 19.831 10.778 C 19.841 14.783,19.839 14.905,19.761 15.213 C 19.569 15.974,19.182 16.655,18.631 17.201 C 18.125 17.702,18.035 17.918,18.182 18.271 C 18.356 18.688,18.824 18.859,19.220 18.650 C 19.896 18.293,20.746 17.062,21.117 15.904 C 21.346 15.188,21.340 15.323,21.340 10.820 L 21.340 6.660 21.246 6.300 C 20.958 5.192,20.169 4.146,19.229 3.625 C 19.015 3.506,14.782 1.891,13.800 1.553 C 13.199 1.347,12.994 1.315,12.140 1.301 C 11.700 1.293,11.286 1.295,11.220 1.305 M11.600 6.681 C 11.127 6.737,10.719 6.919,10.329 7.248 C 9.299 8.115,9.140 9.637,9.969 10.711 C 10.282 11.118,10.788 11.454,11.280 11.582 C 11.596 11.665,12.216 11.674,12.520 11.602 C 14.035 11.240,14.868 9.537,14.218 8.128 C 13.749 7.112,12.726 6.546,11.600 6.681 M12.343 8.236 C 12.538 8.325,12.766 8.550,12.866 8.753 C 12.983 8.993,12.965 9.373,12.823 9.630 C 12.467 10.276,11.582 10.351,11.141 9.773 C 10.730 9.235,10.957 8.458,11.600 8.205 C 11.769 8.138,12.164 8.155,12.343 8.236 M11.226 12.482 C 10.182 12.645,9.284 13.166,8.839 13.868 C 8.562 14.305,8.482 14.939,8.639 15.449 C 8.910 16.324,9.856 17.023,11.096 17.262 C 11.532 17.346,12.473 17.345,12.915 17.260 C 14.903 16.877,15.940 15.363,15.189 13.943 C 14.942 13.478,14.322 12.977,13.680 12.726 C 13.170 12.527,12.851 12.471,12.140 12.458 C 11.766 12.451,11.355 12.461,11.226 12.482 M12.820 14.017 C 12.952 14.053,13.172 14.138,13.309 14.206 C 13.984 14.544,14.125 14.929,13.712 15.303 C 13.497 15.497,13.039 15.705,12.653 15.785 C 12.275 15.863,11.500 15.842,11.140 15.743 C 10.574 15.589,10.040 15.188,10.040 14.920 C 10.040 14.516,10.581 14.135,11.380 13.977 C 11.731 13.908,12.489 13.929,12.820 14.017 " stroke="none" fill-rule="evenodd" fill="black"></path></svg>