<svg width="24" height="24" viewBox="0 0 24 24" fill="none" xmlns="http://www.w3.org/2000/svg"><path d="M8.080 1.282 C 4.042 1.493,1.931 3.265,1.398 6.891 C 1.310 7.494,1.225 8.895,1.264 9.113 C 1.278 9.194,1.325 9.318,1.368 9.389 C 1.658 9.870,2.422 9.836,2.661 9.332 C 2.718 9.212,2.740 9.022,2.765 8.423 C 2.900 5.187,3.905 3.654,6.288 3.044 C 7.337 2.776,7.247 2.780,12.000 2.780 C 15.936 2.780,16.339 2.786,16.760 2.852 C 19.558 3.288,20.712 4.442,21.148 7.240 C 21.214 7.661,21.220 8.064,21.220 12.000 C 21.220 15.936,21.214 16.339,21.148 16.760 C 20.712 19.558,19.558 20.712,16.760 21.148 C 16.339 21.214,15.936 21.220,12.000 21.220 C 8.064 21.220,7.661 21.214,7.240 21.148 C 4.756 20.761,3.576 19.795,3.044 17.712 C 2.821 16.838,2.790 16.492,2.764 14.600 L 2.740 12.860 2.640 12.686 C 2.359 12.194,1.641 12.194,1.360 12.686 C 1.262 12.857,1.260 12.878,1.247 13.880 C 1.223 15.664,1.336 17.082,1.575 18.027 C 2.267 20.757,3.971 22.193,7.027 22.622 C 7.786 22.728,8.902 22.759,12.000 22.759 C 15.098 22.759,16.214 22.728,16.973 22.622 C 19.443 22.275,20.996 21.288,21.897 19.490 C 22.379 18.530,22.638 17.369,22.720 15.807 C 22.771 14.838,22.771 9.162,22.720 8.193 C 22.657 6.998,22.521 6.191,22.242 5.356 C 21.632 3.531,20.469 2.367,18.650 1.760 C 17.788 1.473,17.023 1.344,15.806 1.280 C 14.952 1.235,8.952 1.237,8.080 1.282 M10.405 6.960 C 10.147 7.021,9.907 7.277,9.857 7.544 C 9.785 7.925,10.041 8.313,10.423 8.402 C 10.509 8.422,11.129 8.439,11.800 8.439 L 13.020 8.440 10.772 10.690 C 9.528 11.934,8.505 12.990,8.482 13.053 C 8.428 13.198,8.428 13.484,8.483 13.627 C 8.621 13.992,9.089 14.177,9.471 14.018 C 9.574 13.976,10.309 13.268,11.850 11.729 L 14.080 9.501 14.080 10.745 C 14.080 11.430,14.092 12.050,14.107 12.124 C 14.123 12.207,14.205 12.328,14.322 12.445 C 14.474 12.598,14.546 12.639,14.699 12.662 C 15.037 12.713,15.333 12.568,15.480 12.280 C 15.554 12.136,15.558 12.021,15.561 9.814 C 15.564 8.541,15.553 7.464,15.537 7.420 C 15.478 7.257,15.304 7.069,15.145 6.997 C 14.990 6.926,14.847 6.922,12.760 6.925 C 11.539 6.927,10.479 6.943,10.405 6.960 M5.698 15.835 C 5.496 15.927,5.335 16.115,5.279 16.325 C 5.202 16.609,5.339 16.971,5.579 17.119 C 5.751 17.226,6.407 17.432,7.240 17.640 C 10.342 18.418,13.658 18.418,16.760 17.640 C 17.593 17.432,18.249 17.226,18.421 17.119 C 18.661 16.971,18.798 16.609,18.721 16.325 C 18.639 16.020,18.318 15.763,18.017 15.761 C 17.949 15.760,17.696 15.822,17.455 15.899 C 16.215 16.291,14.816 16.565,13.460 16.679 C 12.404 16.768,10.702 16.723,9.600 16.578 C 8.636 16.450,7.465 16.190,6.545 15.899 C 6.047 15.741,5.926 15.732,5.698 15.835 " stroke="none" fill-rule="evenodd" fill="black"></path></svg>