<svg width="24" height="24" viewBox="0 0 24 24" fill="none" xmlns="http://www.w3.org/2000/svg"><path d="M4.720 2.805 C 4.589 2.857,4.408 3.030,4.331 3.179 C 4.247 3.339,4.252 3.669,4.339 3.841 C 4.419 3.997,6.736 6.344,6.973 6.509 C 7.186 6.657,7.523 6.681,7.749 6.565 C 8.177 6.347,8.281 5.849,7.983 5.446 C 7.743 5.121,5.467 2.887,5.308 2.821 C 5.145 2.752,4.870 2.745,4.720 2.805 M18.720 6.544 C 18.550 6.618,18.414 6.740,18.326 6.900 C 18.266 7.009,18.258 7.419,18.240 11.350 L 18.220 15.680 14.640 12.098 C 12.671 10.127,11.006 8.486,10.941 8.452 C 10.789 8.371,10.453 8.370,10.299 8.451 C 9.933 8.642,9.784 9.051,9.942 9.431 C 9.985 9.536,11.073 10.650,13.591 13.170 L 17.179 16.760 12.868 16.760 C 8.709 16.760,8.552 16.763,8.408 16.836 C 8.126 16.981,8.000 17.186,8.000 17.500 C 8.000 17.814,8.126 18.019,8.408 18.164 C 8.552 18.238,8.726 18.240,13.883 18.240 L 19.209 18.240 19.364 18.153 C 19.449 18.105,19.569 17.994,19.629 17.906 L 19.740 17.747 19.740 12.423 C 19.740 9.496,19.727 7.052,19.710 6.993 C 19.636 6.731,19.289 6.481,19.000 6.482 C 18.923 6.483,18.797 6.510,18.720 6.544 M3.420 21.259 C 3.398 21.267,3.331 21.284,3.271 21.297 C 3.211 21.310,3.095 21.379,3.015 21.450 C 2.669 21.753,2.669 22.247,3.015 22.550 C 3.095 22.621,3.211 22.693,3.271 22.709 C 3.414 22.749,20.586 22.749,20.729 22.709 C 20.881 22.667,21.121 22.447,21.186 22.292 C 21.251 22.137,21.256 21.887,21.197 21.733 C 21.145 21.593,20.979 21.414,20.820 21.326 C 20.709 21.265,20.030 21.259,12.080 21.253 C 7.339 21.249,3.442 21.252,3.420 21.259 " stroke="none" fill-rule="evenodd" fill="black"></path></svg>