<svg width="24" height="24" viewBox="0 0 24 24" fill="none" xmlns="http://www.w3.org/2000/svg"><path d="M17.580 2.388 C 16.958 2.429,15.765 2.698,15.493 2.859 C 15.063 3.113,15.051 3.821,15.471 4.098 C 15.717 4.260,15.888 4.265,16.383 4.123 C 17.596 3.775,18.607 3.795,19.242 4.181 C 19.617 4.409,19.845 4.717,20.024 5.240 C 20.129 5.546,20.132 6.550,20.028 7.040 C 19.924 7.533,16.758 17.004,16.499 17.596 C 15.964 18.820,15.310 19.699,14.711 19.998 C 14.123 20.292,13.576 20.079,12.943 19.311 C 12.593 18.888,12.222 18.249,11.929 17.567 C 11.808 17.288,11.487 16.395,11.215 15.582 L 10.720 14.103 12.536 12.282 C 14.170 10.643,14.357 10.442,14.400 10.282 C 14.560 9.680,13.988 9.147,13.413 9.362 C 13.351 9.385,12.454 10.250,11.419 11.283 L 9.538 13.161 8.239 12.725 C 6.293 12.073,5.427 11.666,4.689 11.057 C 3.941 10.441,3.717 9.892,3.981 9.325 C 4.209 8.834,5.034 8.162,5.963 7.709 C 6.660 7.370,6.865 7.295,9.670 6.358 C 11.106 5.879,12.344 5.447,12.421 5.399 C 12.661 5.251,12.798 4.889,12.721 4.605 C 12.640 4.303,12.319 4.043,12.024 4.041 C 11.876 4.040,6.901 5.685,6.216 5.962 C 3.538 7.044,2.185 8.507,2.401 10.087 C 2.532 11.047,3.112 11.825,4.277 12.607 C 5.120 13.172,6.025 13.567,7.980 14.222 C 8.684 14.458,9.280 14.671,9.304 14.696 C 9.329 14.720,9.542 15.316,9.778 16.020 C 10.434 17.977,10.805 18.830,11.381 19.700 C 12.321 21.120,13.357 21.743,14.537 21.595 C 15.892 21.427,17.096 20.116,18.040 17.780 C 18.234 17.301,20.748 9.832,21.200 8.392 C 21.309 8.047,21.434 7.587,21.478 7.370 C 22.040 4.613,20.862 2.670,18.467 2.403 C 18.095 2.361,18.003 2.360,17.580 2.388 " stroke="none" fill-rule="evenodd" fill="black"></path></svg>