<svg width="24" height="24" viewBox="0 0 24 24" fill="none" xmlns="http://www.w3.org/2000/svg"><path d="M4.980 2.280 C 3.583 2.406,2.629 3.253,2.376 4.592 C 2.288 5.062,2.317 6.013,2.438 6.593 C 2.663 7.678,2.954 8.432,3.852 10.256 L 4.540 11.653 4.538 12.016 L 4.537 12.380 3.877 13.700 C 2.993 15.466,2.667 16.308,2.432 17.429 C 2.310 18.007,2.300 19.232,2.414 19.638 C 2.696 20.645,3.418 21.373,4.380 21.621 C 5.433 21.893,6.838 21.693,8.510 21.033 C 9.220 20.754,18.465 16.157,19.088 15.774 C 20.806 14.719,21.680 13.446,21.680 12.000 C 21.680 10.554,20.790 9.259,19.079 8.217 C 18.325 7.758,18.096 7.691,17.778 7.835 C 17.471 7.975,17.290 8.298,17.338 8.620 C 17.378 8.887,17.545 9.081,17.885 9.257 C 18.444 9.547,18.969 9.924,19.360 10.318 C 19.968 10.930,20.173 11.353,20.173 12.000 C 20.173 12.429,20.102 12.684,19.876 13.066 C 19.678 13.401,19.046 14.021,18.600 14.318 C 18.101 14.649,8.626 19.387,7.887 19.675 C 6.092 20.373,4.736 20.431,4.174 19.834 C 3.778 19.412,3.696 18.619,3.939 17.546 C 4.153 16.601,4.381 16.033,5.331 14.092 L 5.980 12.764 8.388 12.762 C 9.988 12.761,10.865 12.745,11.002 12.716 C 11.565 12.595,11.769 11.889,11.360 11.480 C 11.249 11.369,11.153 11.317,11.002 11.284 C 10.865 11.255,9.989 11.239,8.388 11.238 L 5.980 11.237 5.331 9.908 C 4.387 7.977,4.148 7.386,3.941 6.459 C 3.640 5.119,3.830 4.260,4.500 3.930 C 5.038 3.664,6.087 3.717,7.180 4.066 C 7.817 4.268,8.493 4.580,11.013 5.832 C 13.607 7.121,13.821 7.220,14.013 7.219 C 14.411 7.218,14.707 6.961,14.750 6.580 C 14.776 6.347,14.675 6.077,14.510 5.938 C 14.333 5.789,9.472 3.365,8.736 3.059 C 7.660 2.611,6.741 2.361,5.880 2.282 C 5.627 2.259,5.393 2.243,5.360 2.246 C 5.327 2.249,5.156 2.264,4.980 2.280 " stroke="none" fill-rule="evenodd" fill="black"></path></svg>