<svg width="24" height="24" viewBox="0 0 24 24" fill="none" xmlns="http://www.w3.org/2000/svg"><path d="M8.455 1.838 C 8.343 1.856,8.160 1.900,8.049 1.937 C 7.822 2.012,5.867 3.114,5.559 3.341 C 4.941 3.794,4.562 4.576,4.552 5.420 C 4.546 5.902,4.603 6.128,4.883 6.720 C 5.261 7.520,5.279 7.841,4.966 8.154 C 4.767 8.353,4.482 8.438,3.870 8.482 C 3.289 8.524,3.106 8.564,2.771 8.724 C 2.249 8.973,1.774 9.451,1.521 9.980 C 1.272 10.501,1.260 10.594,1.260 12.000 C 1.260 13.406,1.272 13.499,1.521 14.020 C 1.774 14.549,2.249 15.027,2.771 15.276 C 3.106 15.436,3.289 15.476,3.870 15.518 C 4.482 15.562,4.767 15.647,4.966 15.846 C 5.259 16.139,5.262 16.461,4.976 17.084 C 4.778 17.517,4.755 17.715,4.876 17.952 C 5.024 18.243,5.268 18.376,5.606 18.352 C 5.928 18.329,6.090 18.192,6.306 17.767 C 6.549 17.285,6.656 16.865,6.658 16.380 C 6.660 15.951,6.608 15.703,6.449 15.380 C 6.051 14.571,5.277 14.132,4.089 14.042 C 3.536 14.000,3.343 13.933,3.105 13.699 C 3.020 13.615,2.907 13.455,2.855 13.343 C 2.763 13.144,2.761 13.115,2.761 12.000 C 2.761 10.885,2.763 10.856,2.855 10.657 C 2.907 10.545,3.020 10.385,3.105 10.301 C 3.343 10.067,3.536 10.000,4.089 9.958 C 5.277 9.868,6.051 9.429,6.449 8.620 C 6.609 8.295,6.660 8.049,6.657 7.620 C 6.654 7.118,6.552 6.737,6.267 6.162 C 6.069 5.761,6.060 5.730,6.061 5.422 C 6.062 5.152,6.080 5.067,6.170 4.894 C 6.229 4.781,6.340 4.636,6.417 4.573 C 6.555 4.459,8.269 3.466,8.492 3.370 C 8.653 3.301,8.972 3.307,9.151 3.382 C 9.362 3.470,9.457 3.570,9.738 4.000 C 10.062 4.494,10.285 4.756,10.576 4.980 C 11.021 5.323,11.480 5.486,12.000 5.486 C 12.650 5.486,13.133 5.270,13.663 4.742 C 14.135 4.271,14.378 3.874,14.374 3.581 C 14.368 3.160,14.048 2.840,13.634 2.840 C 13.321 2.840,13.175 2.950,12.830 3.443 C 12.560 3.829,12.303 4.000,11.991 4.000 C 11.626 4.000,11.324 3.745,10.950 3.122 C 10.568 2.484,10.045 2.064,9.439 1.907 C 9.145 1.830,8.706 1.800,8.455 1.838 M16.745 2.609 C 16.392 2.703,16.146 3.128,16.240 3.483 C 16.316 3.768,16.435 3.880,17.000 4.200 C 17.760 4.630,17.960 4.892,17.960 5.455 C 17.960 5.667,17.931 5.759,17.723 6.198 C 17.354 6.979,17.260 7.486,17.379 8.053 C 17.478 8.525,17.652 8.853,17.980 9.182 C 18.462 9.667,19.028 9.893,19.922 9.956 C 20.463 9.995,20.670 10.070,20.920 10.320 C 21.249 10.649,21.260 10.703,21.260 12.000 C 21.260 13.297,21.249 13.351,20.920 13.680 C 20.670 13.930,20.463 14.005,19.922 14.044 C 19.089 14.103,18.498 14.322,18.047 14.740 C 17.570 15.181,17.353 15.681,17.356 16.327 C 17.358 16.857,17.447 17.213,17.724 17.802 C 17.930 18.241,17.960 18.334,17.960 18.545 C 17.960 18.677,17.931 18.870,17.896 18.973 C 17.782 19.309,17.580 19.473,16.580 20.043 C 15.506 20.655,15.451 20.680,15.200 20.680 C 14.820 20.680,14.602 20.528,14.292 20.044 C 13.948 19.507,13.766 19.289,13.468 19.056 C 12.987 18.680,12.538 18.514,12.000 18.514 C 11.681 18.514,11.407 18.568,11.130 18.685 C 10.665 18.882,10.123 19.388,9.784 19.940 C 9.436 20.507,9.212 20.677,8.809 20.679 C 8.573 20.680,8.432 20.618,7.700 20.193 C 7.144 19.871,7.072 19.840,6.877 19.840 C 6.658 19.840,6.482 19.922,6.331 20.094 C 6.034 20.432,6.085 20.898,6.449 21.174 C 6.670 21.341,7.829 21.989,8.030 22.058 C 8.534 22.230,9.146 22.215,9.677 22.016 C 10.218 21.813,10.582 21.488,10.968 20.862 C 11.354 20.237,11.639 20.000,12.006 20.000 C 12.365 20.000,12.653 20.233,13.008 20.810 C 13.142 21.028,13.340 21.303,13.448 21.421 C 14.085 22.118,15.184 22.372,16.051 22.022 C 16.183 21.968,16.759 21.658,17.329 21.332 C 18.492 20.669,18.765 20.456,19.055 19.988 C 19.586 19.132,19.603 18.129,19.101 17.223 C 18.842 16.753,18.762 16.305,18.894 16.054 C 19.005 15.840,19.266 15.648,19.534 15.584 C 19.596 15.569,19.875 15.540,20.154 15.520 C 20.450 15.499,20.768 15.450,20.920 15.403 C 21.704 15.159,22.395 14.453,22.647 13.640 C 22.736 13.351,22.740 13.289,22.740 12.000 C 22.740 10.711,22.736 10.649,22.647 10.360 C 22.394 9.544,21.706 8.842,20.920 8.597 C 20.770 8.550,20.449 8.501,20.160 8.480 C 19.553 8.435,19.284 8.360,19.082 8.177 C 18.873 7.988,18.825 7.854,18.849 7.523 C 18.865 7.293,18.905 7.174,19.091 6.794 C 19.213 6.544,19.341 6.246,19.374 6.131 C 19.638 5.225,19.338 4.152,18.638 3.504 C 18.383 3.269,17.395 2.675,17.140 2.605 C 16.957 2.554,16.953 2.554,16.745 2.609 M11.595 8.282 C 10.585 8.392,9.634 8.924,9.031 9.719 C 8.793 10.032,8.468 10.687,8.382 11.025 C 8.231 11.624,8.231 12.376,8.382 12.975 C 8.468 13.313,8.793 13.968,9.031 14.281 C 9.397 14.763,9.848 15.118,10.452 15.400 C 10.850 15.586,11.154 15.668,11.635 15.717 C 12.389 15.795,13.410 15.583,13.691 15.289 C 14.124 14.837,13.893 14.136,13.274 14.024 C 13.168 14.005,13.043 14.027,12.814 14.104 C 12.440 14.231,11.858 14.274,11.507 14.201 C 10.745 14.043,10.021 13.347,9.821 12.578 C 9.743 12.279,9.743 11.724,9.820 11.428 C 10.018 10.667,10.667 10.018,11.428 9.820 C 11.724 9.743,12.279 9.743,12.578 9.821 C 13.256 9.998,13.868 10.557,14.120 11.230 C 14.166 11.351,14.220 11.630,14.241 11.850 C 14.268 12.134,14.303 12.288,14.362 12.384 C 14.705 12.938,15.580 12.802,15.713 12.174 C 15.760 11.949,15.715 11.407,15.617 11.027 C 15.539 10.724,15.298 10.202,15.097 9.899 C 14.577 9.115,13.683 8.517,12.773 8.344 C 12.347 8.263,11.959 8.243,11.595 8.282 " stroke="none" fill-rule="evenodd" fill="black"></path></svg>