<svg width="24" height="24" viewBox="0 0 24 24" fill="none" xmlns="http://www.w3.org/2000/svg"><path d="M11.180 6.822 C 9.003 7.190,7.292 8.825,6.869 10.940 L 6.813 11.220 4.297 11.240 L 1.780 11.260 1.627 11.355 C 1.385 11.506,1.267 11.718,1.267 12.003 C 1.267 12.203,1.286 12.270,1.383 12.408 C 1.447 12.499,1.572 12.610,1.660 12.656 C 1.816 12.738,1.882 12.740,4.317 12.760 L 6.813 12.780 6.869 13.060 C 7.351 15.472,9.521 17.240,12.000 17.240 C 13.391 17.240,14.709 16.691,15.700 15.700 C 16.439 14.961,16.933 14.049,17.131 13.060 L 17.187 12.780 19.683 12.760 C 22.029 12.741,22.189 12.735,22.332 12.664 C 22.863 12.401,22.863 11.599,22.332 11.336 C 22.189 11.265,22.029 11.259,19.682 11.240 L 17.185 11.220 17.136 10.958 C 17.077 10.634,16.876 10.029,16.740 9.761 C 16.446 9.179,15.663 9.190,15.395 9.778 C 15.293 10.002,15.302 10.152,15.435 10.489 C 15.760 11.312,15.829 12.016,15.663 12.801 C 15.365 14.208,14.221 15.347,12.781 15.671 C 12.408 15.755,11.592 15.755,11.219 15.671 C 9.770 15.345,8.657 14.232,8.328 12.781 C 8.242 12.399,8.244 11.550,8.332 11.191 C 8.740 9.529,10.073 8.389,11.760 8.259 C 12.242 8.222,12.314 8.203,12.463 8.072 C 12.655 7.904,12.731 7.740,12.731 7.500 C 12.731 7.193,12.540 6.905,12.267 6.803 C 12.117 6.746,11.575 6.755,11.180 6.822 " stroke="none" fill-rule="evenodd" fill="black"></path></svg>