<svg width="24" height="24" viewBox="0 0 24 24" fill="none" xmlns="http://www.w3.org/2000/svg"><path d="M11.476 1.401 C 11.122 1.443,10.767 1.537,10.446 1.674 C 10.124 1.811,4.816 4.880,4.280 5.239 C 2.648 6.330,2.362 6.749,2.274 8.178 C 2.225 8.994,2.246 9.275,2.376 9.497 C 2.652 9.968,3.368 9.955,3.639 9.474 C 3.731 9.311,3.739 9.249,3.762 8.520 C 3.782 7.908,3.802 7.703,3.858 7.570 C 3.950 7.350,4.261 7.065,4.882 6.635 C 5.440 6.249,10.767 3.156,11.120 3.014 C 11.592 2.823,12.408 2.823,12.880 3.014 C 13.233 3.156,18.560 6.249,19.118 6.635 C 19.392 6.825,19.719 7.075,19.845 7.192 C 20.252 7.567,20.220 7.160,20.220 12.000 C 20.220 16.840,20.252 16.433,19.845 16.808 C 19.719 16.925,19.392 17.175,19.118 17.365 C 18.560 17.751,13.233 20.844,12.880 20.986 C 12.408 21.177,11.592 21.177,11.120 20.986 C 10.767 20.844,5.440 17.751,4.882 17.365 C 4.608 17.175,4.282 16.925,4.156 16.810 C 3.775 16.457,3.785 16.515,3.761 14.580 C 3.742 13.037,3.734 12.888,3.664 12.748 C 3.404 12.224,2.668 12.203,2.353 12.711 C 2.263 12.856,2.260 12.890,2.247 13.955 C 2.229 15.469,2.284 16.404,2.416 16.820 C 2.637 17.518,3.046 17.940,4.320 18.787 C 4.984 19.227,10.229 22.243,10.549 22.368 C 11.124 22.592,11.809 22.675,12.479 22.601 C 13.288 22.511,13.330 22.490,16.480 20.669 C 18.053 19.760,19.511 18.901,19.720 18.762 C 21.334 17.682,21.641 17.239,21.721 15.880 C 21.768 15.074,21.768 8.926,21.721 8.120 C 21.641 6.761,21.334 6.318,19.720 5.238 C 19.511 5.099,18.053 4.240,16.480 3.331 C 13.348 1.520,13.285 1.490,12.511 1.403 C 12.083 1.356,11.871 1.355,11.476 1.401 M11.595 8.282 C 10.585 8.392,9.634 8.924,9.031 9.719 C 8.793 10.032,8.468 10.687,8.382 11.025 C 8.231 11.624,8.231 12.376,8.382 12.975 C 8.468 13.313,8.793 13.968,9.031 14.281 C 9.397 14.763,9.848 15.118,10.452 15.400 C 10.850 15.586,11.154 15.668,11.635 15.717 C 12.389 15.795,13.410 15.583,13.691 15.289 C 14.124 14.837,13.893 14.136,13.274 14.024 C 13.168 14.005,13.043 14.027,12.814 14.104 C 12.440 14.231,11.858 14.274,11.507 14.201 C 10.745 14.043,10.021 13.347,9.821 12.578 C 9.743 12.279,9.743 11.724,9.820 11.428 C 10.018 10.667,10.667 10.018,11.428 9.820 C 11.724 9.743,12.279 9.743,12.578 9.821 C 13.256 9.998,13.868 10.557,14.120 11.230 C 14.166 11.351,14.220 11.630,14.241 11.850 C 14.268 12.134,14.303 12.288,14.362 12.384 C 14.705 12.938,15.580 12.802,15.713 12.174 C 15.760 11.949,15.715 11.407,15.617 11.027 C 15.539 10.724,15.298 10.202,15.097 9.899 C 14.577 9.115,13.683 8.517,12.773 8.344 C 12.347 8.263,11.959 8.243,11.595 8.282 " stroke="none" fill-rule="evenodd" fill="black"></path></svg>