<svg width="24" height="24" viewBox="0 0 24 24" fill="none" xmlns="http://www.w3.org/2000/svg"><path d="M9.579 2.281 C 7.795 2.460,6.337 3.721,5.882 5.480 L 5.815 5.740 3.777 5.760 C 2.333 5.774,1.717 5.794,1.660 5.827 C 1.554 5.888,1.382 6.075,1.319 6.198 C 1.291 6.252,1.269 6.388,1.269 6.500 C 1.269 6.612,1.291 6.748,1.319 6.802 C 1.382 6.925,1.554 7.112,1.660 7.173 C 1.717 7.206,2.333 7.226,3.777 7.240 L 5.815 7.260 5.882 7.520 C 6.302 9.140,7.534 10.314,9.180 10.660 C 9.605 10.749,10.395 10.749,10.820 10.660 C 12.572 10.293,13.876 8.955,14.180 7.216 C 14.321 6.407,14.220 6.019,13.820 5.835 C 13.413 5.648,12.929 5.848,12.806 6.252 C 12.785 6.323,12.756 6.531,12.742 6.716 C 12.657 7.859,11.805 8.878,10.696 9.161 C 10.283 9.267,9.717 9.267,9.304 9.161 C 8.437 8.939,7.677 8.227,7.381 7.359 C 7.277 7.053,7.265 6.969,7.265 6.500 C 7.265 6.031,7.277 5.947,7.381 5.641 C 7.677 4.773,8.437 4.061,9.304 3.839 C 9.684 3.742,10.196 3.736,10.623 3.824 C 10.999 3.902,11.194 3.881,11.406 3.741 C 11.855 3.444,11.796 2.694,11.307 2.480 C 10.930 2.314,10.147 2.224,9.579 2.281 M15.720 5.805 C 15.458 5.909,15.269 6.200,15.269 6.500 C 15.269 6.807,15.460 7.095,15.733 7.197 C 15.809 7.226,16.868 7.240,19.000 7.240 C 21.132 7.240,22.191 7.226,22.267 7.197 C 22.540 7.095,22.731 6.807,22.731 6.500 C 22.731 6.193,22.540 5.905,22.267 5.803 C 22.117 5.746,15.863 5.748,15.720 5.805 M13.579 13.282 C 11.937 13.443,10.522 14.562,9.987 16.122 C 9.397 17.843,9.995 19.809,11.434 20.876 C 12.215 21.454,13.038 21.727,14.000 21.727 C 15.194 21.727,16.280 21.263,17.086 20.409 C 17.598 19.866,17.916 19.283,18.117 18.520 L 18.185 18.260 20.223 18.240 C 21.667 18.226,22.283 18.206,22.340 18.173 C 22.446 18.112,22.618 17.925,22.681 17.802 C 22.746 17.676,22.746 17.324,22.681 17.198 C 22.618 17.075,22.446 16.888,22.340 16.827 C 22.283 16.794,21.667 16.774,20.223 16.760 L 18.185 16.740 18.119 16.480 C 17.602 14.433,15.675 13.076,13.579 13.282 M14.696 14.839 C 15.179 14.962,15.529 15.168,15.923 15.559 C 16.303 15.936,16.459 16.181,16.625 16.660 C 16.723 16.946,16.735 17.036,16.735 17.500 C 16.735 17.964,16.723 18.054,16.625 18.340 C 16.459 18.819,16.303 19.064,15.923 19.441 C 15.361 19.999,14.780 20.240,14.000 20.240 C 13.220 20.240,12.639 19.999,12.077 19.441 C 11.697 19.064,11.541 18.819,11.375 18.340 C 11.277 18.054,11.265 17.964,11.265 17.500 C 11.265 17.036,11.277 16.946,11.375 16.660 C 11.541 16.181,11.697 15.936,12.077 15.559 C 12.466 15.173,12.819 14.964,13.289 14.841 C 13.689 14.736,14.289 14.735,14.696 14.839 M1.720 16.805 C 1.458 16.909,1.269 17.200,1.269 17.500 C 1.269 17.807,1.460 18.095,1.733 18.197 C 1.809 18.226,2.868 18.240,5.000 18.240 C 7.132 18.240,8.191 18.226,8.267 18.197 C 8.540 18.095,8.731 17.807,8.731 17.500 C 8.731 17.193,8.540 16.905,8.267 16.803 C 8.117 16.746,1.863 16.748,1.720 16.805 " stroke="none" fill-rule="evenodd" fill="black"></path></svg>