<svg width="24" height="24" viewBox="0 0 24 24" fill="none" xmlns="http://www.w3.org/2000/svg"><path d="M8.080 1.282 C 4.042 1.493,1.931 3.265,1.398 6.891 C 1.310 7.494,1.225 8.895,1.264 9.113 C 1.278 9.194,1.325 9.318,1.368 9.389 C 1.658 9.870,2.422 9.836,2.661 9.332 C 2.718 9.212,2.740 9.022,2.765 8.423 C 2.900 5.187,3.905 3.654,6.288 3.044 C 7.337 2.776,7.247 2.780,12.000 2.780 C 15.936 2.780,16.339 2.786,16.760 2.852 C 19.558 3.288,20.712 4.442,21.148 7.240 C 21.214 7.661,21.220 8.064,21.220 12.000 C 21.220 15.936,21.214 16.339,21.148 16.760 C 20.712 19.558,19.558 20.712,16.760 21.148 C 16.339 21.214,15.936 21.220,12.000 21.220 C 8.064 21.220,7.661 21.214,7.240 21.148 C 4.756 20.761,3.576 19.795,3.044 17.712 C 2.820 16.835,2.790 16.494,2.764 14.580 L 2.740 12.820 2.640 12.646 C 2.359 12.154,1.641 12.154,1.360 12.646 C 1.262 12.817,1.260 12.837,1.247 13.860 C 1.223 15.666,1.335 17.079,1.575 18.027 C 2.267 20.757,3.971 22.193,7.027 22.622 C 7.786 22.728,8.902 22.759,12.000 22.759 C 15.098 22.759,16.214 22.728,16.973 22.622 C 19.443 22.275,20.996 21.288,21.897 19.490 C 22.379 18.530,22.638 17.369,22.720 15.807 C 22.771 14.838,22.771 9.162,22.720 8.193 C 22.657 6.998,22.521 6.191,22.242 5.356 C 21.632 3.531,20.469 2.367,18.650 1.760 C 17.788 1.473,17.023 1.344,15.806 1.280 C 14.952 1.235,8.952 1.237,8.080 1.282 M8.087 4.846 C 7.985 4.896,7.869 4.998,7.807 5.093 L 7.700 5.254 7.688 7.357 C 7.680 8.780,7.690 9.508,7.719 9.608 C 7.812 9.928,8.086 10.131,8.423 10.131 C 8.692 10.131,8.935 9.997,9.064 9.777 L 9.160 9.613 9.160 7.469 C 9.160 6.048,9.146 5.287,9.117 5.213 C 8.972 4.829,8.477 4.653,8.087 4.846 M15.260 4.823 C 15.118 4.897,14.971 5.029,14.906 5.140 C 14.878 5.189,14.852 5.517,14.840 5.994 L 14.820 6.769 14.456 6.899 C 13.452 7.257,12.644 8.116,12.360 9.127 C 12.314 9.288,12.266 9.593,12.253 9.805 C 12.231 10.150,12.238 10.210,12.316 10.371 C 12.536 10.826,13.130 10.931,13.492 10.580 C 13.651 10.425,13.692 10.305,13.755 9.811 C 13.780 9.614,13.839 9.393,13.902 9.259 C 14.034 8.980,14.366 8.619,14.646 8.452 C 15.169 8.138,15.891 8.120,16.451 8.406 C 16.701 8.533,17.128 8.981,17.253 9.247 C 17.790 10.389,17.064 11.718,15.815 11.880 C 15.288 11.948,15.247 11.960,15.119 12.067 C 14.734 12.391,14.758 12.982,15.168 13.266 C 15.325 13.374,15.354 13.380,15.737 13.374 C 17.274 13.352,18.642 12.143,18.884 10.593 C 18.946 10.199,18.906 9.497,18.801 9.127 C 18.512 8.106,17.663 7.210,16.688 6.896 L 16.327 6.780 16.314 6.017 C 16.300 5.267,16.298 5.251,16.193 5.092 C 16.001 4.802,15.550 4.672,15.260 4.823 M7.833 10.660 C 7.178 10.784,6.617 11.072,6.133 11.532 C 4.874 12.728,4.741 14.638,5.820 16.040 C 6.172 16.498,6.811 16.942,7.372 17.120 L 7.680 17.218 7.680 17.936 C 7.680 18.587,7.688 18.671,7.765 18.830 C 7.981 19.276,8.572 19.373,8.954 19.025 C 9.127 18.868,9.139 18.805,9.160 18.000 L 9.180 17.220 9.440 17.136 C 10.500 16.794,11.337 15.934,11.642 14.873 C 11.749 14.501,11.789 13.760,11.723 13.378 C 11.453 11.828,10.138 10.681,8.560 10.618 C 8.291 10.608,8.030 10.623,7.833 10.660 M8.987 12.183 C 9.271 12.262,9.663 12.536,9.879 12.807 C 10.328 13.370,10.404 14.138,10.078 14.792 C 9.931 15.085,9.523 15.485,9.233 15.620 C 8.775 15.832,8.191 15.853,7.747 15.674 C 7.260 15.478,6.796 14.974,6.654 14.487 C 6.514 14.007,6.599 13.356,6.852 12.980 C 7.346 12.244,8.137 11.949,8.987 12.183 M15.414 13.878 C 15.212 13.926,15.024 14.064,14.928 14.233 C 14.840 14.390,14.840 14.397,14.840 16.533 C 14.840 17.953,14.854 18.713,14.883 18.787 C 14.978 19.039,15.281 19.240,15.566 19.240 C 15.801 19.240,16.049 19.109,16.186 18.912 L 16.300 18.747 16.312 16.643 C 16.321 15.215,16.311 14.492,16.281 14.392 C 16.173 14.021,15.784 13.791,15.414 13.878 " stroke="none" fill-rule="evenodd" fill="black"></path></svg>