<svg width="24" height="24" viewBox="0 0 24 24" fill="none" xmlns="http://www.w3.org/2000/svg"><path d="M15.980 1.283 C 13.279 1.490,11.044 3.406,10.398 6.070 L 10.357 6.240 8.828 6.241 C 6.597 6.241,5.716 6.304,4.860 6.523 C 2.499 7.127,1.353 8.784,1.252 11.741 C 1.230 12.380,1.234 12.432,1.313 12.587 C 1.467 12.889,1.756 13.034,2.101 12.982 C 2.255 12.959,2.326 12.918,2.482 12.762 C 2.700 12.543,2.702 12.535,2.739 11.703 C 2.806 10.196,3.192 9.177,3.925 8.576 C 4.317 8.254,4.991 7.987,5.754 7.849 C 6.100 7.787,6.482 7.780,9.440 7.780 C 12.381 7.780,12.781 7.787,13.120 7.849 C 15.000 8.187,15.760 8.925,16.102 10.746 C 16.252 11.545,16.282 17.115,16.141 18.052 C 16.053 18.640,15.914 19.108,15.694 19.560 C 15.356 20.254,14.753 20.732,13.907 20.977 C 13.053 21.224,13.132 21.220,9.480 21.220 C 5.824 21.220,5.807 21.219,5.034 20.976 C 4.132 20.693,3.624 20.293,3.248 19.571 C 2.897 18.896,2.763 18.192,2.735 16.860 C 2.723 16.332,2.696 15.843,2.675 15.772 C 2.554 15.379,2.067 15.167,1.668 15.334 C 1.492 15.408,1.290 15.648,1.257 15.821 C 1.242 15.900,1.240 16.409,1.251 16.952 C 1.278 18.224,1.377 18.858,1.680 19.709 C 2.195 21.150,3.245 22.064,4.860 22.477 C 5.841 22.727,6.768 22.776,10.080 22.748 C 11.529 22.735,12.766 22.707,12.960 22.683 C 14.808 22.447,16.008 21.822,16.759 20.703 C 17.034 20.294,17.202 19.926,17.373 19.358 C 17.657 18.414,17.720 17.689,17.720 15.337 L 17.720 13.606 17.950 13.558 C 18.538 13.436,19.305 13.098,19.927 12.685 C 20.922 12.025,21.691 11.111,22.187 10.000 C 22.798 8.630,22.867 6.995,22.376 5.520 C 21.471 2.796,18.854 1.063,15.980 1.283 M17.200 2.799 C 18.981 3.057,20.563 4.461,21.031 6.200 C 21.210 6.867,21.261 7.643,21.163 8.246 C 20.886 9.954,19.691 11.385,18.048 11.975 C 17.887 12.033,17.747 12.080,17.738 12.080 C 17.728 12.080,17.720 11.983,17.720 11.864 C 17.720 11.282,17.575 10.307,17.395 9.680 C 17.019 8.367,16.231 7.402,15.109 6.881 C 14.311 6.511,13.584 6.352,12.254 6.258 L 11.887 6.232 11.980 5.959 C 12.214 5.273,12.575 4.700,13.119 4.155 C 13.830 3.442,14.672 2.997,15.649 2.820 C 15.994 2.757,16.834 2.746,17.200 2.799 " stroke="none" fill-rule="evenodd" fill="black"></path></svg>