<svg width="24" height="24" viewBox="0 0 24 24" fill="none" xmlns="http://www.w3.org/2000/svg"><path d="M8.594 1.284 C 7.629 1.365,6.739 1.923,6.237 2.762 C 6.107 2.980,6.080 3.061,6.080 3.239 C 6.080 3.659,6.390 3.968,6.817 3.974 C 7.075 3.978,7.253 3.880,7.427 3.638 C 7.910 2.964,8.334 2.732,9.016 2.768 C 9.517 2.794,9.918 3.006,10.213 3.399 C 10.334 3.560,12.010 6.586,14.192 10.580 C 14.949 11.966,15.080 12.264,15.080 12.600 C 15.080 12.808,14.973 13.184,14.851 13.410 C 14.703 13.682,14.334 14.013,14.051 14.127 L 13.820 14.220 8.898 14.220 L 3.976 14.220 3.671 14.069 C 3.309 13.891,3.085 13.660,2.906 13.281 C 2.745 12.939,2.712 12.456,2.827 12.120 C 2.869 11.999,3.417 10.964,4.046 9.820 C 4.675 8.676,5.228 7.664,5.275 7.572 C 5.538 7.051,5.195 6.480,4.620 6.480 C 4.401 6.480,4.157 6.595,4.048 6.749 C 3.951 6.887,1.830 10.741,1.611 11.180 C 1.406 11.589,1.326 11.871,1.283 12.328 C 1.220 13.013,1.376 13.679,1.734 14.253 C 2.169 14.951,2.809 15.423,3.624 15.647 C 3.927 15.730,4.032 15.735,6.104 15.750 L 8.268 15.766 8.292 16.153 C 8.323 16.651,8.442 17.217,8.636 17.797 C 9.356 19.949,11.052 21.645,13.198 22.363 C 17.017 23.639,21.122 21.573,22.382 17.740 C 22.957 15.991,22.821 13.960,22.021 12.360 C 21.618 11.553,21.202 10.967,20.616 10.381 C 19.621 9.386,18.318 8.683,16.942 8.400 C 16.507 8.311,15.633 8.244,15.027 8.254 L 14.633 8.260 13.155 5.580 C 12.342 4.106,11.603 2.787,11.513 2.649 C 10.890 1.692,9.802 1.184,8.594 1.284 M16.620 9.859 C 18.639 10.276,20.281 11.715,20.933 13.640 C 21.175 14.353,21.220 14.645,21.220 15.500 C 21.220 16.355,21.175 16.647,20.933 17.360 C 20.364 19.038,19.038 20.364,17.360 20.933 C 16.647 21.175,16.355 21.220,15.500 21.220 C 14.645 21.220,14.353 21.175,13.640 20.933 C 11.959 20.363,10.636 19.040,10.067 17.360 C 9.908 16.890,9.814 16.469,9.775 16.048 L 9.749 15.765 11.844 15.749 C 14.167 15.732,14.157 15.733,14.753 15.458 C 15.954 14.903,16.678 13.647,16.557 12.328 C 16.500 11.710,16.398 11.450,15.764 10.305 C 15.608 10.022,15.480 9.782,15.480 9.770 C 15.480 9.729,16.302 9.793,16.620 9.859 " stroke="none" fill-rule="evenodd" fill="black"></path></svg>