<svg width="24" height="24" viewBox="0 0 24 24" fill="none" xmlns="http://www.w3.org/2000/svg"><path d="M11.740 1.472 C 11.549 1.564,11.464 1.653,11.382 1.850 C 11.268 2.123,11.343 2.509,11.546 2.688 C 11.668 2.797,11.903 2.880,12.089 2.881 C 12.578 2.882,13.139 3.127,13.500 3.497 C 13.904 3.910,14.080 4.343,14.080 4.920 C 14.080 5.497,13.904 5.930,13.500 6.343 C 12.706 7.155,11.435 7.156,10.623 6.344 C 10.233 5.954,10.122 5.689,10.005 4.868 C 9.941 4.415,9.683 4.182,9.250 4.187 C 8.997 4.189,8.777 4.318,8.635 4.547 C 8.553 4.681,8.542 4.744,8.549 5.050 C 8.592 6.916,10.170 8.440,12.060 8.440 C 13.715 8.440,15.165 7.269,15.500 5.660 C 15.845 4.005,14.966 2.309,13.436 1.679 C 13.005 1.501,12.744 1.441,12.300 1.417 C 11.960 1.399,11.876 1.407,11.740 1.472 M16.579 5.537 C 16.255 5.731,16.122 6.211,16.306 6.525 C 16.348 6.598,16.580 6.811,16.821 6.998 C 17.602 7.605,18.268 8.344,18.771 9.161 C 19.309 10.033,19.745 11.272,19.862 12.260 C 19.898 12.565,19.939 12.673,20.073 12.814 C 20.230 12.980,20.392 13.051,20.621 13.054 C 20.863 13.058,21.037 12.967,21.216 12.746 C 21.333 12.601,21.340 12.573,21.337 12.266 C 21.332 11.737,21.128 10.817,20.834 10.000 C 20.534 9.165,19.893 8.052,19.277 7.296 C 18.777 6.682,17.937 5.914,17.382 5.565 C 17.124 5.402,16.822 5.392,16.579 5.537 M6.700 5.595 C 6.185 5.900,5.310 6.710,4.792 7.360 C 3.754 8.663,3.112 10.081,2.838 11.674 C 2.701 12.473,2.745 12.742,3.050 12.963 C 3.334 13.168,3.696 13.156,3.962 12.932 C 4.146 12.778,4.199 12.637,4.284 12.086 C 4.594 10.058,5.670 8.239,7.287 7.008 C 7.704 6.690,7.793 6.571,7.827 6.284 C 7.876 5.866,7.569 5.518,7.126 5.490 C 6.932 5.478,6.871 5.493,6.700 5.595 M4.460 13.641 C 3.043 13.794,1.894 14.744,1.460 16.120 C 1.331 16.530,1.284 17.251,1.356 17.713 C 1.620 19.401,3.095 20.651,4.820 20.648 C 5.522 20.647,6.072 20.499,6.658 20.154 C 7.030 19.934,7.616 19.347,7.837 18.971 C 8.525 17.804,8.525 16.476,7.837 15.309 C 7.616 14.933,7.030 14.346,6.658 14.126 C 5.994 13.735,5.204 13.561,4.460 13.641 M18.780 13.641 C 18.358 13.687,18.019 13.786,17.613 13.982 C 16.190 14.668,15.406 16.237,15.703 17.801 C 16.008 19.410,17.414 20.614,19.030 20.651 C 19.336 20.658,19.399 20.647,19.533 20.565 C 20.014 20.267,20.022 19.578,19.547 19.284 C 19.449 19.224,19.300 19.188,19.034 19.163 C 18.582 19.120,18.279 19.012,17.968 18.783 C 16.822 17.939,16.862 16.233,18.045 15.443 C 18.702 15.005,19.619 15.005,20.275 15.443 C 20.827 15.811,21.195 16.479,21.200 17.120 C 21.202 17.319,21.307 17.583,21.426 17.688 C 21.642 17.880,21.989 17.928,22.263 17.804 C 22.588 17.656,22.702 17.398,22.669 16.881 C 22.541 14.916,20.752 13.425,18.780 13.641 M5.555 15.235 C 5.939 15.391,6.376 15.760,6.590 16.110 C 6.934 16.673,6.934 17.607,6.590 18.170 C 6.376 18.520,5.939 18.889,5.555 19.044 C 5.227 19.176,4.614 19.196,4.252 19.086 C 3.571 18.880,3.012 18.297,2.862 17.638 C 2.619 16.567,3.167 15.570,4.199 15.209 C 4.425 15.129,4.519 15.119,4.900 15.133 C 5.232 15.145,5.393 15.170,5.555 15.235 M7.847 20.286 C 7.589 20.413,7.460 20.632,7.460 20.940 C 7.460 21.316,7.580 21.469,8.050 21.698 C 8.804 22.064,9.623 22.321,10.560 22.486 C 10.975 22.559,11.219 22.574,12.000 22.577 C 12.996 22.580,13.338 22.548,14.112 22.376 C 14.868 22.207,15.935 21.817,16.248 21.594 C 16.588 21.353,16.612 20.769,16.295 20.473 C 16.032 20.226,15.734 20.216,15.245 20.435 C 13.205 21.350,10.857 21.336,8.791 20.395 C 8.302 20.173,8.118 20.151,7.847 20.286 " stroke="none" fill-rule="evenodd" fill="black"></path></svg>