<svg width="24" height="24" viewBox="0 0 24 24" fill="none" xmlns="http://www.w3.org/2000/svg"><path d="M11.428 1.282 C 11.212 1.301,10.880 1.355,10.690 1.402 C 10.299 1.500,5.269 3.382,4.900 3.568 C 4.286 3.878,3.809 4.313,3.386 4.948 C 2.920 5.647,2.729 6.181,2.692 6.885 C 2.671 7.281,2.676 7.321,2.764 7.479 C 3.003 7.904,3.620 7.984,3.948 7.633 C 4.071 7.501,4.160 7.271,4.160 7.083 C 4.160 6.669,4.401 6.054,4.727 5.635 C 4.961 5.335,5.337 5.009,5.580 4.897 C 6.055 4.676,10.911 2.877,11.180 2.821 C 11.556 2.744,12.414 2.741,12.806 2.816 C 13.042 2.862,17.894 4.634,18.105 4.752 C 18.142 4.773,16.240 6.700,11.862 11.078 L 5.567 17.373 5.433 17.261 C 4.900 16.812,4.396 15.902,4.218 15.067 C 4.172 14.851,4.160 14.398,4.160 12.856 C 4.160 10.769,4.158 10.752,3.948 10.527 C 3.624 10.180,3.003 10.256,2.770 10.672 C 2.680 10.831,2.680 10.831,2.680 12.911 C 2.680 14.613,2.691 15.050,2.741 15.315 C 2.929 16.303,3.526 17.467,4.200 18.158 L 4.487 18.451 2.928 20.016 C 2.071 20.876,1.346 21.625,1.318 21.680 C 1.290 21.735,1.267 21.881,1.267 22.004 C 1.267 22.498,1.681 22.816,2.189 22.712 C 2.376 22.674,2.592 22.460,12.490 12.566 C 18.342 6.717,22.628 2.403,22.665 2.324 C 22.753 2.138,22.747 1.837,22.651 1.651 C 22.608 1.568,22.499 1.448,22.408 1.383 C 22.271 1.287,22.202 1.267,22.011 1.267 C 21.884 1.267,21.735 1.290,21.680 1.318 C 21.625 1.346,21.065 1.882,20.436 2.508 L 19.291 3.647 19.090 3.545 C 18.900 3.449,14.014 1.606,13.580 1.466 C 13.070 1.303,12.121 1.221,11.428 1.282 M20.415 6.398 C 20.239 6.440,20.062 6.575,19.953 6.751 L 19.860 6.900 19.840 11.000 L 19.820 15.100 19.691 15.469 C 19.440 16.189,19.100 16.752,18.667 17.167 C 18.278 17.540,14.057 20.679,13.678 20.878 C 13.135 21.162,12.850 21.220,12.000 21.220 C 10.810 21.220,10.580 21.127,9.139 20.059 C 8.615 19.671,8.143 19.336,8.090 19.316 C 7.572 19.119,6.995 19.622,7.116 20.164 C 7.137 20.257,7.188 20.380,7.229 20.437 C 7.345 20.598,9.233 22.000,9.585 22.187 C 9.982 22.398,10.514 22.578,11.002 22.665 C 11.462 22.747,12.442 22.756,12.900 22.683 C 13.597 22.571,14.285 22.305,14.817 21.941 C 15.223 21.663,19.353 18.577,19.591 18.374 C 20.168 17.881,20.791 16.889,21.094 15.978 C 21.346 15.221,21.333 15.469,21.349 11.145 C 21.360 8.397,21.351 7.127,21.321 6.987 C 21.297 6.875,21.234 6.727,21.181 6.658 C 21.023 6.451,20.681 6.335,20.415 6.398 " stroke="none" fill-rule="evenodd" fill="black"></path></svg>