<svg width="24" height="24" viewBox="0 0 24 24" fill="none" xmlns="http://www.w3.org/2000/svg"><path d="M11.434 1.283 C 11.222 1.301,10.896 1.351,10.710 1.395 C 10.339 1.483,5.286 3.373,4.900 3.568 C 4.286 3.878,3.809 4.313,3.386 4.948 C 2.920 5.647,2.729 6.181,2.692 6.885 C 2.671 7.281,2.676 7.321,2.764 7.479 C 3.003 7.904,3.620 7.984,3.948 7.633 C 4.071 7.501,4.160 7.271,4.160 7.083 C 4.160 6.669,4.401 6.054,4.727 5.635 C 4.996 5.290,5.382 4.975,5.700 4.843 C 6.652 4.448,10.946 2.864,11.194 2.816 C 11.570 2.744,12.429 2.744,12.806 2.816 C 13.098 2.872,18.064 4.709,18.434 4.898 C 18.889 5.130,19.274 5.535,19.558 6.081 C 19.833 6.609,19.839 6.664,19.839 8.791 C 19.840 10.795,19.844 10.846,20.032 11.053 C 20.219 11.260,20.621 11.341,20.891 11.225 C 21.047 11.158,21.220 10.981,21.277 10.827 C 21.305 10.753,21.320 10.031,21.320 8.716 C 21.320 7.045,21.310 6.666,21.256 6.408 C 21.014 5.232,20.131 4.065,19.100 3.559 C 18.648 3.338,13.695 1.492,13.300 1.398 C 13.121 1.355,12.759 1.303,12.497 1.281 C 11.974 1.237,11.987 1.237,11.434 1.283 M3.100 10.343 C 2.926 10.434,2.797 10.562,2.735 10.709 C 2.650 10.908,2.656 14.862,2.741 15.315 C 2.930 16.311,3.537 17.488,4.211 18.166 C 4.493 18.450,8.658 21.595,9.308 22.015 C 9.912 22.406,10.678 22.649,11.521 22.717 C 12.112 22.765,12.315 22.725,12.518 22.522 C 12.809 22.231,12.811 21.771,12.522 21.482 C 12.351 21.311,12.130 21.240,11.766 21.240 C 11.309 21.240,10.684 21.077,10.258 20.846 C 9.942 20.674,5.559 17.390,5.297 17.128 C 4.907 16.738,4.512 16.066,4.329 15.480 C 4.284 15.337,4.233 15.175,4.216 15.120 C 4.199 15.065,4.175 14.064,4.163 12.897 L 4.140 10.773 4.026 10.608 C 3.824 10.317,3.389 10.193,3.100 10.343 M15.126 11.342 C 14.187 11.514,13.362 11.953,12.657 12.658 C 11.948 13.366,11.538 14.125,11.338 15.100 C 11.241 15.572,11.249 16.430,11.356 16.944 C 11.691 18.566,12.811 19.869,14.376 20.457 C 15.340 20.820,16.660 20.820,17.624 20.457 C 19.135 19.889,20.269 18.609,20.617 17.081 C 20.715 16.652,20.760 16.046,20.712 15.820 C 20.607 15.327,19.986 15.097,19.566 15.396 C 19.343 15.555,19.280 15.712,19.239 16.213 C 19.168 17.089,18.901 17.668,18.284 18.284 C 17.857 18.712,17.515 18.928,16.980 19.108 C 16.684 19.209,16.611 19.217,16.000 19.217 C 15.389 19.217,15.316 19.209,15.020 19.108 C 14.485 18.928,14.143 18.712,13.716 18.284 C 13.285 17.854,13.067 17.506,12.895 16.980 C 12.766 16.582,12.721 15.864,12.800 15.426 C 12.975 14.443,13.639 13.560,14.533 13.120 C 15.021 12.880,15.299 12.803,15.788 12.772 C 16.250 12.742,16.663 12.807,17.155 12.984 C 17.368 13.062,17.606 13.120,17.706 13.120 C 18.329 13.120,18.653 12.395,18.247 11.912 C 18.073 11.705,17.432 11.454,16.780 11.337 C 16.386 11.267,15.525 11.269,15.126 11.342 M20.689 20.056 C 20.452 20.134,20.262 20.289,20.131 20.511 C 20.036 20.672,20.020 20.744,20.020 21.000 C 20.020 21.257,20.036 21.327,20.133 21.492 C 20.356 21.871,20.789 22.060,21.217 21.964 C 21.929 21.805,22.232 20.975,21.789 20.394 C 21.549 20.080,21.069 19.932,20.689 20.056 " stroke="none" fill-rule="evenodd" fill="black"></path></svg>