<svg width="24" height="24" viewBox="0 0 24 24" fill="none" xmlns="http://www.w3.org/2000/svg"><path d="M11.434 1.283 C 11.222 1.301,10.896 1.351,10.710 1.395 C 10.339 1.483,5.286 3.373,4.900 3.568 C 3.939 4.053,3.140 5.038,2.792 6.167 L 2.701 6.460 2.688 10.680 C 2.679 13.742,2.688 14.982,2.722 15.200 C 2.870 16.162,3.489 17.403,4.176 18.115 C 4.367 18.314,5.109 18.896,6.440 19.892 C 9.579 22.240,9.572 22.236,10.302 22.474 C 10.917 22.675,11.384 22.733,12.193 22.708 C 13.112 22.680,13.577 22.579,14.264 22.256 C 14.656 22.071,14.802 21.967,17.380 20.040 C 19.005 18.825,19.727 18.262,19.892 18.078 C 20.379 17.537,20.858 16.709,21.097 15.993 C 21.331 15.294,21.331 15.299,21.349 13.100 C 21.358 11.978,21.354 10.981,21.340 10.885 C 21.301 10.629,21.005 10.338,20.741 10.298 C 20.401 10.247,20.107 10.392,19.959 10.682 C 19.884 10.829,19.880 10.925,19.880 12.648 C 19.879 13.645,19.861 14.621,19.838 14.817 C 19.745 15.636,19.267 16.591,18.662 17.170 C 18.227 17.586,14.044 20.690,13.660 20.881 C 13.110 21.155,12.809 21.216,12.000 21.215 C 11.205 21.214,10.915 21.157,10.390 20.901 C 10.043 20.732,5.668 17.484,5.309 17.129 C 4.941 16.766,4.546 16.117,4.352 15.560 C 4.158 15.001,4.160 15.045,4.160 10.859 C 4.160 8.175,4.174 6.857,4.204 6.712 C 4.262 6.427,4.514 5.908,4.727 5.635 C 4.996 5.290,5.382 4.975,5.700 4.843 C 6.652 4.448,10.946 2.864,11.194 2.816 C 11.570 2.744,12.429 2.744,12.806 2.816 C 13.098 2.872,18.064 4.709,18.434 4.898 C 18.735 5.051,18.943 5.221,19.177 5.505 C 19.573 5.985,19.838 6.612,19.839 7.071 C 19.842 7.685,20.451 8.052,20.967 7.750 C 21.224 7.599,21.320 7.402,21.320 7.023 C 21.320 5.694,20.342 4.169,19.100 3.559 C 18.648 3.338,13.695 1.492,13.300 1.398 C 13.121 1.355,12.759 1.303,12.497 1.281 C 11.974 1.237,11.987 1.237,11.434 1.283 M14.680 8.484 C 14.625 8.506,13.703 9.400,12.631 10.471 L 10.682 12.418 10.131 11.876 C 9.828 11.578,9.523 11.295,9.453 11.247 C 9.207 11.077,8.826 11.094,8.581 11.286 C 8.358 11.462,8.256 11.862,8.362 12.147 C 8.412 12.281,10.167 14.057,10.339 14.148 C 10.497 14.232,10.828 14.229,11.001 14.142 C 11.182 14.050,15.530 9.702,15.622 9.521 C 15.708 9.348,15.712 9.018,15.629 8.859 C 15.548 8.704,15.369 8.536,15.227 8.483 C 15.090 8.431,14.815 8.431,14.680 8.484 " stroke="none" fill-rule="evenodd" fill="black"></path></svg>