<svg width="24" height="24" viewBox="0 0 24 24" fill="none" xmlns="http://www.w3.org/2000/svg"><path d="M11.434 1.283 C 11.222 1.301,10.896 1.351,10.710 1.395 C 10.339 1.483,5.286 3.373,4.900 3.568 C 3.939 4.053,3.140 5.038,2.792 6.167 L 2.701 6.460 2.688 10.680 C 2.679 13.742,2.688 14.982,2.722 15.200 C 2.870 16.162,3.489 17.403,4.176 18.115 C 4.367 18.314,5.109 18.896,6.440 19.892 C 9.579 22.240,9.572 22.236,10.302 22.474 C 10.917 22.675,11.384 22.733,12.193 22.708 C 13.112 22.680,13.577 22.579,14.264 22.256 C 14.656 22.071,14.802 21.967,17.380 20.040 C 19.005 18.825,19.727 18.262,19.892 18.078 C 20.379 17.537,20.858 16.709,21.097 15.993 C 21.331 15.294,21.331 15.299,21.349 13.100 C 21.358 11.978,21.354 10.981,21.340 10.885 C 21.301 10.629,21.005 10.338,20.741 10.298 C 20.401 10.247,20.107 10.392,19.959 10.682 C 19.884 10.829,19.880 10.925,19.880 12.648 C 19.879 13.645,19.861 14.621,19.838 14.817 C 19.745 15.636,19.267 16.591,18.662 17.170 C 18.227 17.586,14.044 20.690,13.660 20.881 C 13.110 21.155,12.809 21.216,12.000 21.215 C 11.205 21.214,10.915 21.157,10.390 20.901 C 10.043 20.732,5.668 17.484,5.309 17.129 C 4.941 16.766,4.546 16.117,4.352 15.560 C 4.158 15.001,4.160 15.045,4.160 10.859 C 4.160 8.175,4.174 6.857,4.204 6.712 C 4.262 6.427,4.514 5.908,4.727 5.635 C 4.996 5.290,5.382 4.975,5.700 4.843 C 6.652 4.448,10.946 2.864,11.194 2.816 C 11.570 2.744,12.429 2.744,12.806 2.816 C 13.098 2.872,18.064 4.709,18.434 4.898 C 18.735 5.051,18.943 5.221,19.177 5.505 C 19.573 5.985,19.838 6.612,19.839 7.071 C 19.842 7.685,20.451 8.052,20.967 7.750 C 21.224 7.599,21.320 7.402,21.320 7.023 C 21.320 5.694,20.342 4.169,19.100 3.559 C 18.648 3.338,13.695 1.492,13.300 1.398 C 13.121 1.355,12.759 1.303,12.497 1.281 C 11.974 1.237,11.987 1.237,11.434 1.283 M9.675 8.479 C 9.260 8.604,9.038 9.128,9.237 9.512 C 9.280 9.593,9.684 10.028,10.136 10.479 L 10.958 11.298 10.100 12.162 C 9.564 12.701,9.219 13.080,9.181 13.172 C 9.052 13.479,9.143 13.886,9.381 14.074 C 9.626 14.266,10.006 14.283,10.253 14.114 C 10.323 14.066,10.754 13.657,11.210 13.204 L 12.041 12.382 12.890 13.227 C 13.358 13.691,13.784 14.094,13.838 14.121 C 14.002 14.205,14.327 14.184,14.518 14.076 C 14.841 13.895,14.981 13.437,14.815 13.108 C 14.780 13.038,14.380 12.607,13.927 12.151 L 13.104 11.322 13.913 10.505 C 14.398 10.014,14.745 9.631,14.780 9.545 C 14.936 9.172,14.784 8.760,14.421 8.571 C 14.261 8.487,13.931 8.492,13.759 8.580 C 13.683 8.619,13.259 9.008,12.819 9.444 L 12.018 10.238 11.199 9.418 C 10.705 8.924,10.315 8.567,10.217 8.519 C 10.050 8.437,9.858 8.423,9.675 8.479 " stroke="none" fill-rule="evenodd" fill="black"></path></svg>