<svg width="24" height="24" viewBox="0 0 24 24" fill="none" xmlns="http://www.w3.org/2000/svg"><path d="M10.220 1.285 C 9.739 1.354,9.226 1.712,8.982 2.147 C 8.798 2.476,8.760 2.708,8.760 3.502 L 8.760 4.227 8.130 4.254 C 7.475 4.281,7.102 4.341,6.734 4.479 C 5.503 4.939,4.637 5.931,4.333 7.225 C 4.281 7.451,4.266 7.841,4.251 9.400 L 4.233 11.300 3.746 11.497 C 3.098 11.759,2.943 11.838,2.651 12.058 C 2.350 12.284,2.080 12.633,1.875 13.060 C 1.507 13.828,1.508 14.271,1.879 15.920 C 2.158 17.154,2.376 17.863,2.667 18.481 C 2.909 18.992,3.282 19.590,3.613 19.997 C 3.964 20.428,4.584 21.025,4.779 21.120 C 5.226 21.336,5.777 21.054,5.830 20.582 C 5.871 20.217,5.834 20.149,5.307 19.622 C 4.743 19.057,4.399 18.593,4.099 17.996 C 3.782 17.366,3.631 16.887,3.337 15.572 C 3.117 14.591,3.074 14.343,3.092 14.150 C 3.129 13.738,3.417 13.294,3.757 13.122 C 3.961 13.020,10.998 10.209,11.130 10.178 L 11.240 10.151 11.240 15.692 L 11.240 21.233 10.330 21.247 C 9.341 21.261,9.296 21.271,9.073 21.506 C 8.879 21.711,8.823 22.027,8.934 22.292 C 8.999 22.447,9.239 22.667,9.391 22.709 C 9.592 22.766,14.933 22.745,15.400 22.687 C 17.769 22.388,19.690 21.200,20.890 19.291 C 21.453 18.395,21.736 17.618,22.125 15.900 C 22.492 14.275,22.492 13.826,22.125 13.060 C 21.920 12.633,21.650 12.284,21.349 12.058 C 21.050 11.833,20.886 11.750,20.254 11.501 L 19.767 11.309 19.749 9.404 C 19.734 7.842,19.719 7.451,19.667 7.225 C 19.323 5.757,18.210 4.647,16.775 4.339 C 16.624 4.306,16.216 4.268,15.870 4.254 L 15.240 4.227 15.240 3.502 C 15.240 3.003,15.222 2.709,15.183 2.558 C 15.009 1.892,14.429 1.379,13.740 1.281 C 13.400 1.233,10.556 1.236,10.220 1.285 M13.680 2.840 C 13.754 2.914,13.760 2.973,13.760 3.580 L 13.760 4.240 12.000 4.240 L 10.240 4.240 10.240 3.580 C 10.240 2.973,10.246 2.914,10.320 2.840 C 10.397 2.763,10.453 2.760,12.000 2.760 C 13.547 2.760,13.603 2.763,13.680 2.840 M16.574 5.823 C 16.709 5.858,16.928 5.944,17.060 6.013 C 17.369 6.176,17.824 6.631,17.987 6.940 C 18.230 7.401,18.242 7.513,18.230 9.174 L 18.220 10.673 16.080 9.814 C 12.960 8.560,13.026 8.580,12.000 8.580 C 10.974 8.580,11.033 8.562,7.920 9.813 L 5.780 10.674 5.770 9.175 C 5.758 7.513,5.770 7.401,6.013 6.940 C 6.177 6.629,6.631 6.176,6.944 6.010 C 7.430 5.754,7.195 5.766,11.974 5.763 C 15.823 5.760,16.357 5.767,16.574 5.823 M16.540 11.627 C 18.498 12.410,20.164 13.083,20.243 13.122 C 20.583 13.294,20.871 13.738,20.908 14.150 C 20.926 14.343,20.883 14.591,20.663 15.572 C 20.517 16.226,20.333 16.945,20.256 17.170 C 19.627 18.989,18.295 20.327,16.523 20.921 C 15.765 21.175,15.510 21.207,14.070 21.228 L 12.760 21.248 12.760 15.700 L 12.760 10.151 12.870 10.178 C 12.931 10.192,14.582 10.845,16.540 11.627 " stroke="none" fill-rule="evenodd" fill="black"></path></svg>