<svg width="24" height="24" viewBox="0 0 24 24" fill="none" xmlns="http://www.w3.org/2000/svg"><path d="M5.957 1.281 C 4.904 1.359,4.027 1.639,3.811 1.966 C 3.607 2.275,3.656 2.696,3.926 2.947 C 4.156 3.161,4.420 3.170,4.974 2.982 C 5.197 2.907,5.521 2.826,5.693 2.802 C 5.865 2.779,6.645 2.760,7.425 2.760 L 8.845 2.760 8.822 2.930 C 8.809 3.024,8.663 4.459,8.498 6.120 C 8.331 7.809,8.171 9.236,8.136 9.358 C 7.890 10.213,7.126 10.950,6.251 11.177 C 5.942 11.257,5.339 11.257,5.000 11.178 C 4.160 10.980,3.431 10.284,3.184 9.444 C 3.060 9.022,3.067 8.700,3.234 7.094 C 3.414 5.372,3.412 5.332,3.160 5.080 C 2.804 4.724,2.192 4.820,1.981 5.264 C 1.868 5.501,1.590 8.272,1.615 8.900 C 1.644 9.608,1.822 10.214,2.185 10.833 L 2.287 11.006 2.283 13.053 L 2.279 15.100 2.129 15.219 C 1.042 16.086,0.389 17.287,0.282 18.612 C 0.169 20.029,0.649 21.331,1.659 22.341 C 2.572 23.254,3.697 23.724,4.975 23.728 C 6.034 23.731,6.855 23.480,7.680 22.903 L 7.989 22.686 8.605 22.722 C 9.443 22.770,14.520 22.769,15.460 22.719 C 18.049 22.583,19.655 21.846,20.670 20.328 C 20.941 19.923,21.002 19.710,20.920 19.460 C 20.807 19.119,20.444 18.884,20.112 18.937 C 19.848 18.979,19.695 19.101,19.459 19.460 C 19.216 19.829,18.767 20.270,18.428 20.473 C 17.922 20.776,17.243 21.005,16.438 21.146 C 16.113 21.203,15.583 21.214,12.630 21.228 C 10.743 21.237,9.200 21.237,9.200 21.228 C 9.200 21.219,9.263 21.074,9.341 20.907 C 9.651 20.235,9.787 19.389,9.716 18.568 C 9.545 16.597,8.079 14.875,6.167 14.399 C 5.537 14.243,4.498 14.224,4.000 14.361 C 3.923 14.382,3.846 14.400,3.830 14.400 C 3.814 14.400,3.800 13.933,3.800 13.363 L 3.800 12.326 4.038 12.423 C 4.813 12.737,5.747 12.817,6.560 12.638 C 7.230 12.490,8.020 12.032,8.566 11.476 L 8.912 11.124 9.019 11.278 C 9.188 11.522,9.634 11.932,9.970 12.151 C 10.325 12.383,10.780 12.568,11.228 12.661 C 11.642 12.748,12.402 12.747,12.820 12.660 C 13.664 12.483,14.464 12.009,14.940 11.404 L 15.131 11.161 15.367 11.418 C 15.931 12.033,16.735 12.491,17.551 12.662 C 17.915 12.738,18.656 12.748,19.060 12.682 C 19.363 12.632,20.011 12.424,20.139 12.335 C 20.182 12.305,20.232 12.280,20.249 12.280 C 20.266 12.280,20.280 13.089,20.280 14.077 C 20.280 15.250,20.295 15.914,20.323 15.987 C 20.380 16.141,20.553 16.318,20.709 16.385 C 20.979 16.501,21.381 16.420,21.568 16.213 C 21.763 15.997,21.763 16.001,21.758 13.380 L 21.754 10.924 21.863 10.739 C 22.225 10.121,22.441 9.175,22.382 8.460 C 22.290 7.326,22.061 5.304,21.980 4.900 C 21.696 3.489,21.151 2.533,20.316 1.977 C 19.974 1.750,19.709 1.630,19.260 1.500 C 18.427 1.259,18.720 1.269,12.280 1.259 C 9.035 1.254,6.190 1.264,5.957 1.281 M13.655 2.870 C 13.667 2.931,13.816 4.397,13.987 6.129 C 14.335 9.663,14.332 9.474,14.055 10.037 C 13.776 10.604,13.179 11.070,12.568 11.196 C 12.265 11.259,11.696 11.250,11.422 11.179 C 11.026 11.076,10.670 10.861,10.371 10.545 C 9.949 10.099,9.760 9.634,9.760 9.042 C 9.760 8.876,9.895 7.408,10.060 5.780 C 10.225 4.152,10.360 2.806,10.360 2.790 C 10.360 2.774,11.097 2.760,11.997 2.760 L 13.634 2.760 13.655 2.870 M18.340 2.819 C 18.993 2.925,19.437 3.121,19.753 3.445 C 20.108 3.806,20.386 4.456,20.538 5.275 C 20.636 5.802,20.889 8.338,20.887 8.780 C 20.885 9.737,20.365 10.564,19.503 10.981 C 19.062 11.194,18.731 11.257,18.185 11.231 C 17.859 11.216,17.720 11.188,17.472 11.091 C 16.728 10.799,16.055 10.090,15.866 9.400 C 15.833 9.279,15.795 9.018,15.781 8.820 C 15.767 8.622,15.630 7.216,15.478 5.696 C 15.325 4.176,15.200 2.894,15.200 2.846 L 15.200 2.760 16.590 2.760 C 17.618 2.760,18.074 2.776,18.340 2.819 M5.674 15.819 C 6.272 15.945,6.748 16.201,7.235 16.661 C 7.905 17.293,8.241 18.078,8.239 19.013 C 8.239 19.546,8.139 19.945,7.872 20.480 C 7.696 20.832,7.608 20.956,7.321 21.245 C 6.591 21.984,5.852 22.277,4.834 22.231 C 3.914 22.189,3.149 21.808,2.519 21.076 C 2.228 20.737,1.958 20.208,1.840 19.744 C 1.692 19.158,1.753 18.343,1.987 17.780 C 2.402 16.783,3.345 16.011,4.403 15.803 C 4.690 15.747,5.373 15.755,5.674 15.819 M4.815 16.797 C 4.638 16.841,4.461 16.976,4.355 17.149 C 4.277 17.274,4.261 17.365,4.247 17.768 L 4.230 18.240 3.788 18.240 C 3.257 18.240,3.059 18.313,2.887 18.572 C 2.734 18.803,2.734 19.157,2.887 19.388 C 3.059 19.647,3.257 19.720,3.788 19.720 L 4.230 19.720 4.247 20.210 C 4.261 20.638,4.276 20.722,4.361 20.874 C 4.638 21.366,5.362 21.366,5.639 20.874 C 5.724 20.722,5.739 20.638,5.753 20.210 L 5.770 19.720 6.212 19.720 C 6.740 19.720,6.925 19.652,7.106 19.392 C 7.201 19.254,7.220 19.186,7.220 18.980 C 7.220 18.774,7.201 18.706,7.106 18.568 C 6.925 18.307,6.741 18.240,6.207 18.240 L 5.760 18.240 5.759 17.890 C 5.758 17.463,5.706 17.222,5.580 17.056 C 5.421 16.847,5.078 16.731,4.815 16.797 " stroke="none" fill-rule="evenodd" fill="black"></path></svg>