<svg width="24" height="24" viewBox="0 0 24 24" fill="none" xmlns="http://www.w3.org/2000/svg"><path d="M10.091 1.279 C 9.082 1.392,8.284 1.862,7.779 2.640 C 7.369 3.273,7.283 3.641,7.252 4.885 L 7.228 5.831 6.924 5.881 C 6.526 5.948,5.969 6.128,5.620 6.305 C 4.670 6.785,4.103 7.616,3.841 8.912 C 3.768 9.272,3.368 12.409,3.296 13.186 C 3.261 13.560,3.297 13.731,3.448 13.903 C 3.617 14.095,3.758 14.160,4.009 14.160 C 4.274 14.160,4.463 14.064,4.613 13.852 C 4.737 13.678,4.697 13.941,5.120 10.480 C 5.271 9.244,5.355 8.839,5.546 8.431 C 5.797 7.898,6.218 7.584,6.921 7.405 L 7.220 7.329 7.243 7.779 C 7.262 8.149,7.282 8.254,7.356 8.374 C 7.708 8.944,8.577 8.809,8.716 8.162 C 8.740 8.049,8.760 7.795,8.760 7.598 L 8.760 7.240 11.995 7.240 L 15.230 7.240 15.247 7.732 C 15.261 8.156,15.275 8.243,15.354 8.371 C 15.708 8.944,16.577 8.811,16.716 8.162 C 16.740 8.049,16.760 7.815,16.760 7.642 L 16.760 7.328 17.070 7.407 C 17.880 7.614,18.276 7.954,18.532 8.665 C 18.688 9.098,18.736 9.422,19.140 12.804 C 19.349 14.551,19.531 16.047,19.543 16.130 L 19.567 16.279 11.471 16.290 L 3.374 16.300 3.212 16.407 C 2.998 16.549,2.900 16.765,2.826 17.260 C 2.639 18.502,2.749 19.663,3.131 20.490 C 3.694 21.707,4.738 22.410,6.369 22.669 C 6.785 22.734,7.221 22.740,12.000 22.740 C 16.779 22.740,17.215 22.734,17.631 22.669 C 19.677 22.344,20.852 21.282,21.181 19.458 C 21.264 19.000,21.265 18.001,21.184 17.300 C 20.994 15.657,20.268 9.680,20.219 9.357 C 19.972 7.706,19.405 6.810,18.257 6.258 C 17.909 6.091,17.346 5.918,16.956 5.860 L 16.771 5.833 16.748 4.906 C 16.732 4.273,16.703 3.885,16.658 3.680 C 16.399 2.500,15.513 1.613,14.320 1.339 C 14.064 1.280,13.752 1.268,12.200 1.258 C 11.199 1.252,10.250 1.262,10.091 1.279 M14.246 2.871 C 14.656 3.037,14.965 3.346,15.127 3.754 C 15.210 3.960,15.219 4.057,15.232 4.870 L 15.245 5.760 12.003 5.760 L 8.760 5.760 8.760 4.947 C 8.760 3.888,8.834 3.612,9.223 3.224 C 9.431 3.015,9.560 2.939,9.880 2.835 C 10.081 2.769,10.270 2.764,12.060 2.771 C 13.999 2.780,14.022 2.781,14.246 2.871 M19.744 17.863 C 19.792 18.051,19.730 19.205,19.660 19.457 C 19.416 20.332,18.872 20.830,17.855 21.111 L 17.460 21.220 12.060 21.220 C 6.244 21.220,6.434 21.226,5.820 21.011 C 4.944 20.703,4.471 20.154,4.295 19.243 C 4.237 18.945,4.212 17.877,4.261 17.799 C 4.276 17.774,7.076 17.760,12.002 17.760 L 19.718 17.760 19.744 17.863 " stroke="none" fill-rule="evenodd" fill="black"></path></svg>