<svg width="24" height="24" viewBox="0 0 24 24" fill="none" xmlns="http://www.w3.org/2000/svg"><path d="M5.972 1.281 C 3.655 1.442,2.459 2.525,1.981 4.894 C 1.901 5.291,1.649 7.590,1.589 8.480 C 1.566 8.814,1.633 9.464,1.724 9.800 C 1.830 10.189,2.144 10.837,2.376 11.146 C 3.047 12.039,4.084 12.609,5.233 12.716 C 6.489 12.833,7.663 12.389,8.554 11.462 L 8.872 11.131 9.094 11.403 C 10.532 13.163,13.457 13.173,14.891 11.422 L 15.099 11.168 15.399 11.475 C 16.286 12.380,17.458 12.824,18.685 12.718 C 19.204 12.673,19.758 12.527,20.123 12.338 L 20.240 12.278 20.240 14.149 C 20.240 16.801,20.178 17.496,19.852 18.500 C 19.585 19.323,19.173 19.918,18.580 20.340 C 17.903 20.821,16.871 21.127,15.614 21.221 L 15.248 21.248 15.230 19.994 C 15.215 18.870,15.204 18.707,15.127 18.420 C 14.821 17.284,14.075 16.588,12.898 16.339 C 12.466 16.248,11.534 16.248,11.102 16.339 C 9.925 16.588,9.179 17.284,8.873 18.420 C 8.796 18.707,8.785 18.870,8.770 19.994 L 8.752 21.248 8.386 21.222 C 8.185 21.207,7.796 21.159,7.522 21.114 C 6.376 20.927,5.576 20.572,5.005 19.997 C 4.224 19.209,3.849 18.037,3.764 16.118 C 3.736 15.473,3.731 15.441,3.627 15.306 C 3.475 15.106,3.314 15.003,3.108 14.975 C 2.786 14.931,2.503 15.080,2.353 15.373 C 2.273 15.530,2.270 15.579,2.292 16.319 C 2.351 18.326,2.803 19.744,3.728 20.829 C 4.425 21.647,5.530 22.249,6.830 22.516 C 7.801 22.717,8.024 22.728,11.392 22.748 C 15.886 22.776,16.698 22.718,18.005 22.281 C 18.856 21.997,19.462 21.629,20.043 21.045 C 20.916 20.166,21.373 19.125,21.625 17.438 C 21.684 17.044,21.696 16.559,21.708 13.967 L 21.722 10.954 21.841 10.747 C 22.163 10.187,22.359 9.437,22.359 8.755 C 22.360 8.225,22.069 5.400,21.958 4.860 C 21.853 4.350,21.643 3.720,21.440 3.305 C 20.903 2.206,19.991 1.591,18.520 1.334 C 18.179 1.275,17.532 1.267,12.280 1.259 C 9.057 1.254,6.218 1.264,5.972 1.281 M8.800 2.843 C 8.800 3.027,8.199 8.957,8.158 9.180 C 8.133 9.312,8.043 9.571,7.956 9.756 C 7.825 10.038,7.741 10.150,7.430 10.460 C 6.871 11.016,6.351 11.240,5.618 11.240 C 4.879 11.240,4.337 11.018,3.816 10.501 C 3.308 9.999,3.080 9.457,3.080 8.755 C 3.080 8.351,3.337 5.733,3.421 5.279 C 3.630 4.156,4.045 3.418,4.636 3.123 C 5.258 2.812,5.582 2.769,7.350 2.764 C 8.792 2.760,8.800 2.760,8.800 2.843 M13.640 2.823 C 13.640 2.858,13.776 4.239,13.941 5.893 C 14.107 7.547,14.244 9.026,14.245 9.180 C 14.251 10.078,13.521 10.960,12.590 11.180 C 12.453 11.212,12.187 11.239,12.000 11.239 C 11.316 11.239,10.830 11.042,10.375 10.580 C 10.038 10.239,9.862 9.906,9.769 9.433 C 9.707 9.116,9.707 9.112,10.017 5.988 C 10.188 4.267,10.334 2.837,10.342 2.810 C 10.354 2.771,10.720 2.760,11.999 2.760 C 13.465 2.760,13.640 2.767,13.640 2.823 M18.220 2.802 C 19.225 2.945,19.783 3.299,20.119 4.007 C 20.304 4.397,20.455 4.901,20.540 5.414 C 20.623 5.913,20.880 8.457,20.879 8.769 C 20.878 9.129,20.785 9.519,20.616 9.871 C 20.433 10.252,19.948 10.753,19.573 10.952 C 19.060 11.222,18.305 11.315,17.730 11.180 C 16.823 10.966,15.949 10.076,15.804 9.220 C 15.782 9.088,15.636 7.639,15.479 6.000 C 15.323 4.361,15.185 2.962,15.173 2.890 L 15.151 2.760 16.546 2.761 C 17.312 2.761,18.066 2.780,18.220 2.802 M12.671 17.820 C 13.146 17.932,13.396 18.126,13.577 18.521 C 13.723 18.841,13.758 19.180,13.759 20.270 L 13.760 21.240 11.996 21.240 L 10.233 21.240 10.249 20.090 C 10.264 19.010,10.270 18.923,10.358 18.669 C 10.519 18.204,10.812 17.943,11.310 17.822 C 11.620 17.747,12.357 17.746,12.671 17.820 " stroke="none" fill-rule="evenodd" fill="black"></path></svg>