<svg width="24" height="24" viewBox="0 0 24 24" fill="none" xmlns="http://www.w3.org/2000/svg"><path d="M1.815 1.278 C 1.331 1.393,1.098 2.004,1.383 2.408 C 1.606 2.723,1.668 2.737,2.940 2.760 C 4.185 2.782,4.204 2.786,4.495 3.068 C 4.686 3.254,4.799 3.474,4.825 3.713 C 4.836 3.816,4.728 5.299,4.585 7.008 C 4.382 9.444,4.335 10.149,4.367 10.267 C 4.446 10.551,4.792 10.799,5.111 10.800 C 5.238 10.800,5.480 10.694,5.593 10.588 C 5.795 10.400,5.798 10.382,6.022 7.666 C 6.141 6.232,6.249 4.966,6.262 4.850 L 6.286 4.640 12.674 4.640 C 18.208 4.640,19.094 4.648,19.292 4.700 C 19.977 4.878,20.551 5.446,20.727 6.117 C 20.796 6.383,20.821 6.887,20.775 7.114 L 20.750 7.239 14.762 7.249 L 8.774 7.260 8.612 7.367 C 8.372 7.526,8.267 7.721,8.267 8.007 C 8.267 8.203,8.286 8.270,8.383 8.408 C 8.447 8.499,8.572 8.610,8.660 8.656 C 8.820 8.740,8.824 8.740,14.730 8.751 L 20.640 8.761 20.640 8.893 C 20.640 9.258,20.234 14.562,20.196 14.700 C 20.014 15.349,19.417 15.960,18.769 16.161 C 18.517 16.238,18.385 16.240,12.866 16.240 C 6.729 16.239,7.038 16.250,6.576 16.016 C 6.309 15.881,5.848 15.412,5.705 15.131 C 5.559 14.842,5.481 14.481,5.481 14.087 C 5.480 13.734,5.453 13.647,5.285 13.466 C 5.132 13.301,4.990 13.240,4.760 13.240 C 4.495 13.240,4.270 13.356,4.132 13.565 C 4.040 13.704,4.022 13.780,4.007 14.087 C 3.959 15.101,4.362 16.065,5.135 16.788 C 5.727 17.341,6.406 17.641,7.240 17.721 C 7.556 17.751,9.418 17.760,13.200 17.750 C 18.352 17.737,18.717 17.731,18.975 17.663 C 20.286 17.319,21.322 16.301,21.644 15.044 C 21.704 14.809,21.785 13.865,22.001 10.875 C 22.154 8.749,22.280 6.838,22.280 6.628 C 22.280 5.296,21.542 4.111,20.345 3.523 C 19.883 3.295,19.607 3.217,19.075 3.161 C 18.845 3.137,16.284 3.121,12.469 3.121 C 6.570 3.120,6.236 3.116,6.215 3.050 C 6.117 2.745,5.881 2.360,5.631 2.096 C 5.156 1.596,4.679 1.353,4.024 1.278 C 3.645 1.234,1.998 1.234,1.815 1.278 M7.724 18.821 C 7.131 18.987,6.572 19.497,6.377 20.048 C 5.808 21.661,7.339 23.192,8.952 22.623 C 9.539 22.416,10.072 21.796,10.202 21.169 C 10.264 20.870,10.230 20.360,10.129 20.073 C 9.940 19.539,9.463 19.062,8.927 18.871 C 8.625 18.763,8.021 18.738,7.724 18.821 M15.724 18.821 C 15.437 18.901,15.149 19.062,14.917 19.271 C 14.068 20.033,14.035 21.348,14.843 22.157 C 15.652 22.965,16.967 22.932,17.729 22.083 C 18.162 21.602,18.332 20.955,18.195 20.313 C 18.057 19.672,17.549 19.093,16.929 18.871 C 16.625 18.763,16.022 18.737,15.724 18.821 M8.478 20.313 C 8.625 20.392,8.760 20.602,8.760 20.751 C 8.760 20.997,8.518 21.240,8.273 21.240 C 7.959 21.240,7.760 21.042,7.760 20.731 C 7.760 20.552,7.839 20.424,8.015 20.317 C 8.172 20.221,8.303 20.220,8.478 20.313 M16.478 20.313 C 16.625 20.392,16.760 20.602,16.760 20.751 C 16.760 20.997,16.518 21.240,16.273 21.240 C 15.959 21.240,15.760 21.042,15.760 20.731 C 15.760 20.552,15.839 20.424,16.015 20.317 C 16.172 20.221,16.303 20.220,16.478 20.313 " stroke="none" fill-rule="evenodd" fill="black"></path></svg>