<svg width="24" height="24" viewBox="0 0 24 24" fill="none" xmlns="http://www.w3.org/2000/svg"><path d="M18.720 3.325 C 18.458 3.429,18.269 3.720,18.269 4.020 C 18.269 4.299,18.349 4.431,18.794 4.890 L 19.178 5.286 17.719 5.273 L 16.260 5.260 16.086 5.360 C 15.594 5.641,15.594 6.359,16.086 6.640 L 16.260 6.740 18.732 6.751 L 21.204 6.763 21.361 6.674 C 21.448 6.626,21.569 6.514,21.629 6.426 C 21.721 6.294,21.740 6.224,21.740 6.020 C 21.740 5.816,21.721 5.746,21.630 5.614 C 21.439 5.338,19.465 3.406,19.307 3.340 C 19.144 3.272,18.870 3.265,18.720 3.325 M3.500 5.278 C 2.808 5.298,2.727 5.308,2.598 5.388 C 2.211 5.629,2.152 6.236,2.487 6.548 C 2.707 6.754,2.763 6.760,4.420 6.760 C 5.877 6.760,5.976 6.765,6.210 6.843 C 6.757 7.028,6.996 7.256,7.740 8.300 C 8.358 9.168,8.378 9.191,8.580 9.284 C 9.132 9.539,9.722 9.082,9.620 8.478 C 9.600 8.359,9.432 8.095,8.953 7.429 C 8.109 6.255,7.788 5.934,7.140 5.609 C 6.431 5.255,5.929 5.209,3.500 5.278 M13.485 7.280 C 13.411 7.298,13.303 7.346,13.245 7.388 C 13.187 7.429,11.771 9.513,10.099 12.018 C 6.894 16.817,6.911 16.794,6.460 17.015 C 6.026 17.227,5.903 17.240,4.314 17.240 C 3.374 17.240,2.805 17.255,2.733 17.283 C 2.460 17.385,2.269 17.673,2.269 17.980 C 2.269 18.287,2.460 18.575,2.733 18.677 C 2.917 18.747,5.888 18.734,6.229 18.662 C 6.638 18.576,7.006 18.432,7.368 18.214 C 8.021 17.822,7.943 17.929,11.314 12.870 L 14.400 8.240 14.400 8.013 C 14.400 7.520,13.961 7.168,13.485 7.280 M12.632 14.722 C 12.390 14.850,12.266 15.049,12.249 15.335 C 12.239 15.517,12.254 15.613,12.308 15.710 C 12.432 15.933,13.688 17.526,13.919 17.753 C 14.477 18.303,15.197 18.635,16.011 18.720 C 16.274 18.747,16.913 18.753,17.800 18.735 L 19.180 18.709 18.795 19.107 C 18.348 19.569,18.269 19.702,18.269 19.980 C 18.269 20.522,18.802 20.871,19.307 20.660 C 19.507 20.576,21.573 18.521,21.680 18.299 C 21.845 17.958,21.730 17.561,21.406 17.355 L 21.224 17.240 18.642 17.239 C 17.017 17.238,15.993 17.223,15.880 17.197 C 15.646 17.143,15.292 16.966,15.082 16.797 C 14.990 16.723,14.588 16.243,14.190 15.731 C 13.401 14.719,13.310 14.638,12.957 14.642 C 12.860 14.643,12.713 14.679,12.632 14.722 " stroke="none" fill-rule="evenodd" fill="black"></path></svg>