<svg width="24" height="24" viewBox="0 0 24 24" fill="none" xmlns="http://www.w3.org/2000/svg"><path d="M8.340 1.267 C 5.848 1.366,4.160 1.973,3.000 3.186 C 1.990 4.243,1.467 5.603,1.280 7.660 C 1.225 8.263,1.227 11.161,1.283 11.307 C 1.341 11.461,1.470 11.592,1.657 11.688 C 1.997 11.862,2.466 11.700,2.635 11.350 C 2.717 11.182,2.720 11.120,2.720 9.757 C 2.721 8.978,2.739 8.124,2.762 7.860 C 2.903 6.199,3.314 5.040,4.037 4.271 C 4.758 3.502,5.708 3.078,7.220 2.852 C 7.659 2.786,8.065 2.780,11.980 2.780 C 15.896 2.780,16.299 2.786,16.720 2.852 C 18.075 3.063,19.025 3.443,19.693 4.043 C 20.331 4.615,20.781 5.516,21.019 6.700 C 21.208 7.644,21.220 7.921,21.220 11.440 L 21.220 14.740 11.951 14.750 L 2.683 14.760 2.636 14.670 C 2.611 14.621,2.552 14.538,2.505 14.486 C 2.191 14.139,1.563 14.217,1.330 14.632 C 1.249 14.775,1.240 14.845,1.240 15.345 C 1.240 16.624,1.462 17.999,1.817 18.917 C 2.589 20.917,4.097 22.090,6.477 22.542 C 7.380 22.713,7.733 22.728,11.359 22.748 C 15.083 22.769,16.117 22.742,17.092 22.598 C 20.359 22.119,22.110 20.351,22.577 17.060 C 22.704 16.166,22.720 15.620,22.719 12.080 C 22.718 8.539,22.696 7.740,22.576 6.920 C 22.097 3.635,20.350 1.877,17.092 1.402 C 16.788 1.357,16.216 1.303,15.820 1.281 C 15.200 1.247,9.134 1.235,8.340 1.267 M9.160 7.805 C 9.029 7.857,8.848 8.030,8.771 8.179 C 8.687 8.339,8.692 8.669,8.779 8.841 C 8.858 8.996,11.334 11.503,11.571 11.667 C 11.751 11.792,12.044 11.831,12.265 11.759 C 12.387 11.720,12.713 11.416,13.786 10.345 C 14.537 9.594,15.184 8.917,15.222 8.841 C 15.308 8.668,15.312 8.338,15.229 8.179 C 15.039 7.814,14.628 7.664,14.250 7.821 C 14.156 7.861,13.729 8.255,13.052 8.929 L 12.001 9.976 10.946 8.928 C 10.279 8.266,9.839 7.859,9.747 7.820 C 9.584 7.752,9.310 7.745,9.160 7.805 M21.160 16.340 C 21.160 16.486,21.047 17.217,20.977 17.520 C 20.810 18.251,20.474 19.027,20.127 19.484 C 19.455 20.368,18.392 20.888,16.720 21.148 C 16.299 21.214,15.896 21.220,11.980 21.220 C 8.048 21.220,7.661 21.214,7.221 21.147 C 4.659 20.759,3.448 19.715,2.954 17.467 C 2.863 17.048,2.760 16.315,2.787 16.270 C 2.797 16.253,6.935 16.240,11.982 16.240 L 21.160 16.240 21.160 16.340 " stroke="none" fill-rule="evenodd" fill="black"></path></svg>