<svg width="24" height="24" viewBox="0 0 24 24" fill="none" xmlns="http://www.w3.org/2000/svg"><path d="M8.340 1.267 C 4.825 1.407,2.773 2.608,1.817 5.083 C 1.462 6.002,1.240 7.376,1.240 8.656 C 1.240 9.172,1.247 9.225,1.336 9.377 C 1.576 9.787,2.186 9.858,2.508 9.513 C 2.667 9.343,2.720 9.149,2.720 8.731 C 2.721 8.240,2.783 7.495,2.865 7.000 C 3.068 5.780,3.445 4.901,4.037 4.271 C 4.745 3.516,5.627 3.113,7.100 2.870 C 7.596 2.789,7.773 2.784,10.930 2.770 L 14.240 2.756 14.240 12.000 L 14.240 21.244 10.930 21.229 C 7.446 21.213,7.351 21.209,6.506 21.019 C 4.324 20.528,3.254 19.347,2.865 17.000 C 2.754 16.330,2.721 15.693,2.720 14.243 C 2.720 12.880,2.717 12.818,2.635 12.650 C 2.413 12.191,1.768 12.104,1.413 12.486 C 1.248 12.663,1.240 12.747,1.240 14.353 C 1.240 16.321,1.304 17.055,1.564 18.095 C 2.186 20.582,3.788 22.032,6.477 22.542 C 7.380 22.713,7.733 22.728,11.359 22.748 C 15.083 22.769,16.117 22.742,17.092 22.598 C 20.130 22.153,21.871 20.573,22.462 17.728 C 22.696 16.600,22.700 16.509,22.700 12.000 C 22.700 7.491,22.696 7.400,22.462 6.272 C 22.135 4.698,21.406 3.440,20.370 2.662 C 19.236 1.811,17.862 1.394,15.820 1.281 C 15.200 1.247,9.134 1.235,8.340 1.267 M16.740 2.864 C 18.003 3.034,19.022 3.441,19.693 4.043 C 20.305 4.592,20.756 5.470,21.000 6.591 C 21.199 7.502,21.209 7.720,21.229 11.454 C 21.250 15.633,21.215 16.482,20.977 17.520 C 20.810 18.251,20.474 19.027,20.127 19.484 C 19.361 20.493,18.047 21.047,16.010 21.220 L 15.720 21.245 15.720 12.000 L 15.720 2.755 16.010 2.780 C 16.169 2.793,16.498 2.831,16.740 2.864 M7.814 8.718 C 7.465 8.801,7.240 9.083,7.240 9.437 C 7.240 9.551,7.269 9.702,7.304 9.772 C 7.340 9.842,7.839 10.373,8.413 10.950 L 9.458 12.000 8.413 13.050 C 7.839 13.627,7.340 14.158,7.304 14.228 C 7.207 14.422,7.221 14.740,7.336 14.937 C 7.519 15.249,7.993 15.392,8.301 15.228 C 8.366 15.194,9.036 14.548,9.789 13.793 C 11.174 12.403,11.280 12.276,11.280 12.000 C 11.280 11.724,11.174 11.597,9.789 10.207 C 9.036 9.452,8.375 8.811,8.320 8.783 C 8.181 8.711,7.964 8.683,7.814 8.718 " stroke="none" fill-rule="evenodd" fill="black"></path></svg>