<svg width="24" height="24" viewBox="0 0 24 24" fill="none" xmlns="http://www.w3.org/2000/svg"><path d="M8.340 1.267 C 4.825 1.407,2.773 2.608,1.817 5.083 C 1.462 6.002,1.240 7.376,1.240 8.656 C 1.240 9.172,1.247 9.225,1.336 9.377 C 1.465 9.597,1.708 9.731,1.978 9.731 C 2.268 9.731,2.497 9.596,2.625 9.350 L 2.682 9.240 11.951 9.250 L 21.220 9.260 21.232 12.100 C 21.247 15.586,21.202 16.539,20.977 17.520 C 20.810 18.251,20.474 19.027,20.127 19.484 C 19.455 20.368,18.392 20.888,16.720 21.148 C 16.299 21.214,15.896 21.220,11.980 21.220 C 8.048 21.220,7.661 21.214,7.221 21.147 C 4.506 20.736,3.293 19.581,2.865 17.000 C 2.754 16.330,2.721 15.693,2.720 14.243 C 2.720 12.880,2.717 12.818,2.635 12.650 C 2.413 12.191,1.768 12.104,1.413 12.486 C 1.248 12.663,1.240 12.747,1.240 14.353 C 1.240 16.321,1.304 17.055,1.564 18.095 C 2.186 20.582,3.788 22.032,6.477 22.542 C 7.380 22.713,7.733 22.728,11.359 22.748 C 15.083 22.769,16.117 22.742,17.092 22.598 C 20.130 22.153,21.874 20.571,22.462 17.727 C 22.687 16.636,22.693 16.526,22.717 12.360 C 22.730 10.237,22.727 8.374,22.710 8.220 C 22.694 8.066,22.653 7.670,22.620 7.340 C 22.368 4.837,21.400 3.157,19.664 2.207 C 18.662 1.659,17.476 1.373,15.820 1.281 C 15.200 1.247,9.134 1.235,8.340 1.267 M16.760 2.854 C 18.429 3.131,19.462 3.641,20.127 4.516 C 20.361 4.825,20.672 5.446,20.819 5.900 C 20.943 6.284,21.105 7.069,21.143 7.470 L 21.170 7.760 11.966 7.760 L 2.762 7.760 2.784 7.570 C 2.967 6.029,3.362 4.990,4.037 4.271 C 4.381 3.904,4.691 3.673,5.140 3.450 C 5.827 3.109,6.693 2.895,7.820 2.787 C 7.908 2.778,9.861 2.774,12.160 2.778 C 15.926 2.784,16.382 2.791,16.760 2.854 M11.680 12.263 C 11.506 12.338,8.878 14.961,8.779 15.159 C 8.692 15.332,8.688 15.662,8.771 15.821 C 8.852 15.976,9.031 16.144,9.173 16.197 C 9.329 16.257,9.578 16.251,9.731 16.184 C 9.802 16.153,10.337 15.650,10.919 15.065 L 11.978 14.001 13.041 15.059 C 13.727 15.742,14.155 16.139,14.250 16.179 C 14.628 16.336,15.039 16.186,15.229 15.821 C 15.312 15.662,15.308 15.332,15.222 15.159 C 15.117 14.950,12.492 12.338,12.311 12.262 C 12.125 12.184,11.862 12.185,11.680 12.263 " stroke="none" fill-rule="evenodd" fill="black"></path></svg>