<svg width="24" height="24" viewBox="0 0 24 24" fill="none" xmlns="http://www.w3.org/2000/svg"><path d="M7.911 1.262 C 7.905 1.268,7.648 1.302,7.340 1.338 C 4.062 1.725,2.291 3.149,1.575 5.973 C 1.429 6.551,1.327 7.315,1.279 8.191 C 1.234 9.023,1.247 9.188,1.368 9.389 C 1.658 9.870,2.422 9.836,2.661 9.332 C 2.718 9.212,2.740 9.022,2.765 8.423 C 2.871 5.885,3.532 4.387,4.900 3.588 C 5.420 3.284,6.381 2.967,6.991 2.898 L 7.240 2.870 7.240 12.000 L 7.240 21.130 7.005 21.104 C 6.876 21.089,6.562 21.024,6.306 20.960 C 4.482 20.499,3.509 19.530,3.044 17.712 C 2.820 16.835,2.790 16.494,2.764 14.580 C 2.742 12.963,2.734 12.808,2.664 12.668 C 2.404 12.144,1.668 12.123,1.353 12.631 C 1.263 12.775,1.260 12.812,1.247 13.840 C 1.224 15.669,1.334 17.076,1.575 18.027 C 2.132 20.224,3.337 21.567,5.356 22.242 C 5.914 22.428,6.401 22.536,7.200 22.649 C 7.740 22.725,8.023 22.732,11.318 22.749 C 16.369 22.775,17.229 22.715,18.644 22.242 C 20.966 21.466,22.225 19.797,22.622 16.973 C 22.728 16.214,22.759 15.098,22.759 12.000 C 22.759 8.902,22.728 7.786,22.622 7.027 C 22.359 5.157,21.686 3.741,20.641 2.857 C 19.474 1.871,18.018 1.398,15.786 1.278 C 15.148 1.244,7.945 1.229,7.911 1.262 M16.800 2.854 C 19.585 3.315,20.714 4.454,21.148 7.240 C 21.214 7.661,21.220 8.064,21.220 12.000 C 21.220 16.745,21.226 16.622,20.960 17.688 C 20.504 19.520,19.519 20.504,17.688 20.960 C 16.644 21.220,16.753 21.214,12.550 21.230 L 8.720 21.244 8.720 12.000 L 8.720 2.756 12.550 2.770 C 15.956 2.783,16.427 2.792,16.800 2.854 M14.814 8.718 C 14.745 8.735,14.628 8.786,14.554 8.832 C 14.360 8.953,11.821 11.516,11.744 11.668 C 11.638 11.879,11.660 12.194,11.795 12.402 C 11.951 12.642,14.464 15.133,14.639 15.221 C 14.811 15.308,15.142 15.312,15.301 15.230 C 15.539 15.106,15.720 14.816,15.720 14.560 C 15.720 14.291,15.609 14.151,14.529 13.070 L 13.461 12.000 14.529 10.930 C 15.609 9.849,15.720 9.709,15.720 9.440 C 15.720 9.193,15.537 8.892,15.320 8.782 C 15.180 8.710,14.962 8.683,14.814 8.718 " stroke="none" fill-rule="evenodd" fill="black"></path></svg>