<svg width="24" height="24" viewBox="0 0 24 24" fill="none" xmlns="http://www.w3.org/2000/svg"><path d="M8.760 1.265 C 8.321 1.309,7.904 1.458,7.564 1.690 C 7.288 1.880,5.206 3.544,5.007 3.735 C 4.776 3.956,4.507 4.396,4.393 4.740 C 4.269 5.114,4.260 5.862,4.376 6.200 C 4.484 6.516,4.626 6.789,4.808 7.033 C 5.014 7.309,7.508 9.310,7.858 9.480 C 8.318 9.704,8.451 9.720,9.908 9.720 L 11.240 9.720 11.240 10.477 L 11.240 11.235 8.790 11.249 C 6.063 11.266,6.198 11.253,5.620 11.553 C 5.243 11.749,4.789 12.204,4.590 12.585 C 4.318 13.105,4.315 13.140,4.329 15.613 C 4.342 17.818,4.342 17.820,4.436 18.074 C 4.552 18.386,4.862 18.859,5.083 19.058 C 5.325 19.277,5.688 19.501,5.971 19.606 L 6.220 19.699 8.730 19.711 L 11.240 19.723 11.240 20.479 L 11.240 21.235 10.007 21.247 L 8.774 21.260 8.612 21.367 C 8.372 21.526,8.267 21.721,8.267 22.007 C 8.267 22.203,8.286 22.270,8.383 22.408 C 8.447 22.499,8.572 22.610,8.660 22.656 C 8.818 22.739,8.865 22.740,11.878 22.751 C 14.020 22.759,15.000 22.749,15.151 22.718 C 15.722 22.599,15.934 21.894,15.522 21.482 C 15.300 21.260,15.166 21.240,13.882 21.240 L 12.760 21.240 12.760 20.480 L 12.760 19.720 14.090 19.719 C 15.578 19.719,15.741 19.699,16.196 19.459 C 16.509 19.295,18.859 17.425,19.124 17.130 C 19.513 16.696,19.729 16.116,19.730 15.500 C 19.731 14.907,19.567 14.424,19.208 13.963 C 18.971 13.658,16.615 11.761,16.211 11.549 C 15.712 11.287,15.608 11.273,14.110 11.251 L 12.760 11.231 12.760 10.476 L 12.760 9.720 15.170 9.719 C 17.853 9.719,17.859 9.718,18.376 9.451 C 18.773 9.246,19.249 8.763,19.451 8.360 C 19.714 7.837,19.727 7.687,19.711 5.331 C 19.698 3.467,19.689 3.238,19.624 3.040 C 19.402 2.361,18.945 1.815,18.358 1.525 C 17.747 1.224,17.123 1.161,16.808 1.370 C 16.471 1.593,16.377 2.105,16.616 2.418 C 16.776 2.628,16.871 2.676,17.254 2.738 C 17.806 2.827,18.115 3.101,18.203 3.578 C 18.229 3.718,18.240 4.488,18.232 5.631 C 18.221 7.310,18.214 7.474,18.145 7.630 C 18.048 7.853,17.732 8.135,17.512 8.196 C 17.383 8.231,16.248 8.240,13.000 8.232 L 8.660 8.220 8.480 8.113 C 8.381 8.053,7.779 7.585,7.141 7.073 C 5.818 6.007,5.777 5.960,5.783 5.481 C 5.786 5.181,5.876 4.972,6.086 4.775 C 6.329 4.549,8.418 2.901,8.540 2.840 C 8.641 2.790,9.022 2.777,10.940 2.760 L 13.220 2.740 13.394 2.640 C 13.884 2.360,13.888 1.653,13.400 1.366 L 13.220 1.260 11.060 1.256 C 9.872 1.253,8.837 1.258,8.760 1.265 M15.483 12.850 C 15.644 12.933,17.705 14.563,17.975 14.822 C 18.146 14.986,18.238 15.223,18.238 15.500 C 18.238 15.793,18.147 16.005,17.935 16.207 C 17.666 16.463,15.626 18.077,15.480 18.150 C 15.350 18.215,15.040 18.221,11.006 18.231 C 8.180 18.237,6.620 18.227,6.522 18.201 C 6.302 18.141,6.061 17.950,5.933 17.732 L 5.820 17.540 5.809 15.551 C 5.797 13.584,5.798 13.559,5.884 13.359 C 5.982 13.132,6.263 12.859,6.456 12.803 C 6.526 12.783,8.493 12.766,10.943 12.764 L 15.306 12.760 15.483 12.850 " stroke="none" fill-rule="evenodd" fill="black"></path></svg>