<svg width="24" height="24" viewBox="0 0 24 24" fill="none" xmlns="http://www.w3.org/2000/svg"><path d="M7.458 1.282 C 6.610 1.346,5.880 1.544,5.186 1.896 C 4.639 2.174,4.292 2.425,3.859 2.859 C 2.901 3.817,2.391 4.999,2.284 6.512 C 2.245 7.061,2.263 7.236,2.379 7.413 C 2.677 7.867,3.428 7.824,3.658 7.339 C 3.703 7.244,3.739 7.018,3.763 6.682 C 3.783 6.400,3.825 6.045,3.857 5.894 C 4.148 4.509,5.058 3.461,6.360 3.009 C 7.027 2.778,6.984 2.780,10.440 2.780 L 13.620 2.780 14.011 2.889 C 14.501 3.026,14.918 3.217,15.335 3.497 C 15.787 3.799,19.254 7.278,19.541 7.716 C 19.774 8.072,20.004 8.593,20.128 9.047 L 20.220 9.380 20.220 13.560 C 20.220 18.106,20.227 17.961,19.991 18.640 C 19.531 19.965,18.455 20.880,17.020 21.164 C 16.606 21.247,7.394 21.247,6.980 21.164 C 5.563 20.883,4.482 19.975,4.021 18.680 C 3.779 17.999,3.789 18.165,3.763 14.340 C 3.741 10.994,3.736 10.812,3.664 10.668 C 3.404 10.144,2.668 10.123,2.353 10.631 L 2.260 10.780 2.248 13.760 C 2.240 15.599,2.252 16.985,2.278 17.380 C 2.347 18.401,2.515 19.065,2.896 19.814 C 3.174 20.361,3.425 20.708,3.859 21.141 C 4.825 22.107,5.993 22.607,7.545 22.719 C 8.273 22.772,15.727 22.772,16.455 22.719 C 17.406 22.651,18.088 22.473,18.814 22.104 C 19.361 21.826,19.708 21.575,20.141 21.141 C 21.107 20.175,21.607 19.007,21.719 17.455 C 21.771 16.742,21.771 10.290,21.720 9.671 C 21.622 8.491,21.251 7.498,20.566 6.580 C 20.315 6.243,16.889 2.807,16.500 2.502 C 15.724 1.892,14.926 1.536,13.890 1.335 C 13.585 1.276,13.182 1.266,10.720 1.258 C 9.169 1.252,7.701 1.263,7.458 1.282 M9.329 13.279 C 9.257 13.296,9.131 13.357,9.048 13.414 C 8.776 13.603,6.887 15.534,6.821 15.691 C 6.743 15.878,6.743 16.122,6.822 16.310 C 6.897 16.490,8.952 18.557,9.159 18.662 C 9.332 18.748,9.662 18.752,9.821 18.669 C 10.184 18.480,10.336 18.068,10.181 17.695 C 10.145 17.611,9.809 17.238,9.354 16.777 L 8.586 16.000 9.354 15.223 C 10.144 14.424,10.240 14.291,10.240 14.004 C 10.240 13.526,9.792 13.170,9.329 13.279 M14.420 13.260 C 14.398 13.267,14.331 13.284,14.271 13.297 C 14.124 13.329,13.881 13.548,13.814 13.708 C 13.743 13.878,13.745 14.128,13.819 14.305 C 13.855 14.389,14.191 14.762,14.647 15.224 L 15.415 16.001 14.648 16.774 C 14.180 17.246,13.858 17.604,13.821 17.692 C 13.664 18.068,13.815 18.479,14.179 18.669 C 14.338 18.752,14.668 18.748,14.841 18.662 C 15.048 18.557,17.103 16.490,17.178 16.310 C 17.212 16.229,17.240 16.089,17.240 16.000 C 17.240 15.911,17.212 15.771,17.178 15.690 C 17.107 15.518,15.051 13.443,14.860 13.350 C 14.734 13.288,14.488 13.237,14.420 13.260 " stroke="none" fill-rule="evenodd" fill="black"></path></svg>