<svg width="24" height="24" viewBox="0 0 24 24" fill="none" xmlns="http://www.w3.org/2000/svg"><path d="M11.180 1.268 C 9.001 1.550,7.464 3.142,7.289 5.300 L 7.260 5.660 6.200 5.684 C 5.075 5.709,4.759 5.750,4.197 5.941 C 2.937 6.369,1.946 7.360,1.522 8.613 C 1.275 9.344,1.262 9.512,1.261 11.980 L 1.260 14.220 1.360 14.394 C 1.641 14.886,2.359 14.886,2.640 14.394 L 2.740 14.220 2.762 11.900 C 2.788 9.288,2.776 9.394,3.105 8.724 C 3.253 8.422,3.350 8.288,3.595 8.044 C 3.950 7.691,4.229 7.515,4.690 7.358 C 5.243 7.168,5.509 7.153,7.944 7.170 C 10.478 7.187,10.478 7.187,11.153 7.526 C 11.557 7.729,12.078 8.201,13.581 9.725 C 14.769 10.929,14.945 11.172,15.148 11.887 C 15.215 12.121,15.220 12.385,15.220 15.460 C 15.220 19.160,15.234 18.950,14.938 19.593 C 14.601 20.322,13.909 20.889,13.100 21.100 C 12.642 21.219,12.084 21.238,9.000 21.238 C 5.916 21.238,5.358 21.219,4.900 21.100 C 4.325 20.950,3.753 20.585,3.402 20.141 C 3.010 19.648,2.826 19.131,2.762 18.346 C 2.717 17.795,2.654 17.637,2.408 17.463 C 2.270 17.366,2.203 17.347,2.007 17.347 C 1.639 17.347,1.355 17.565,1.278 17.908 C 1.229 18.125,1.308 18.984,1.417 19.412 C 1.854 21.136,3.217 22.366,5.000 22.646 C 5.494 22.724,12.506 22.724,13.000 22.646 C 14.785 22.366,16.145 21.137,16.585 19.407 C 16.639 19.194,16.694 18.856,16.707 18.655 L 16.731 18.289 17.756 18.270 C 18.887 18.248,19.241 18.201,19.825 17.997 C 21.101 17.552,22.100 16.532,22.502 15.266 C 22.727 14.555,22.729 14.533,22.748 11.383 C 22.768 8.333,22.745 7.678,22.604 7.134 C 22.435 6.482,22.141 5.886,21.733 5.372 C 21.597 5.200,20.850 4.429,20.073 3.657 C 18.584 2.179,18.338 1.974,17.679 1.664 C 17.348 1.508,16.806 1.342,16.427 1.281 C 16.195 1.243,11.460 1.231,11.180 1.268 M16.352 2.783 C 16.713 2.857,17.032 2.979,17.351 3.165 C 17.513 3.260,18.029 3.748,19.121 4.839 C 20.711 6.429,20.811 6.547,21.027 7.081 C 21.238 7.603,21.239 7.622,21.239 10.980 C 21.239 13.898,21.234 14.124,21.162 14.471 C 20.939 15.553,20.159 16.381,19.100 16.659 C 18.751 16.751,18.192 16.798,17.433 16.799 L 16.765 16.800 16.749 14.430 C 16.735 12.347,16.725 12.024,16.663 11.760 C 16.506 11.090,16.252 10.516,15.884 9.998 C 15.518 9.485,12.778 6.772,12.319 6.469 C 11.885 6.183,11.474 5.990,11.027 5.862 C 10.495 5.710,10.247 5.681,9.470 5.680 L 8.760 5.680 8.760 5.544 C 8.760 5.326,8.864 4.843,8.973 4.555 C 9.205 3.939,9.695 3.385,10.270 3.089 C 10.957 2.736,11.032 2.728,13.752 2.724 C 15.692 2.721,16.091 2.730,16.352 2.783 " stroke="none" fill-rule="evenodd" fill="black"></path></svg>