<svg width="24" height="24" viewBox="0 0 24 24" fill="none" xmlns="http://www.w3.org/2000/svg"><path d="M14.170 1.282 C 13.552 1.327,12.844 1.484,12.400 1.676 C 11.988 1.854,11.496 2.185,11.272 2.437 C 10.599 3.192,10.295 4.113,10.251 5.530 L 10.229 6.240 8.765 6.241 C 6.599 6.241,5.710 6.306,4.860 6.523 C 2.499 7.127,1.353 8.784,1.252 11.741 C 1.230 12.380,1.234 12.432,1.313 12.587 C 1.467 12.889,1.756 13.034,2.101 12.982 C 2.255 12.959,2.326 12.918,2.482 12.762 C 2.700 12.543,2.702 12.535,2.739 11.703 C 2.806 10.196,3.192 9.177,3.925 8.576 C 4.317 8.254,4.991 7.987,5.754 7.849 C 6.100 7.787,6.482 7.780,9.440 7.780 C 12.381 7.780,12.781 7.787,13.120 7.849 C 15.000 8.187,15.759 8.925,16.102 10.746 C 16.251 11.542,16.281 17.116,16.141 18.052 C 16.053 18.639,15.914 19.108,15.694 19.560 C 15.356 20.254,14.753 20.732,13.907 20.977 C 13.053 21.224,13.132 21.220,9.480 21.220 C 5.824 21.220,5.807 21.219,5.034 20.976 C 4.132 20.693,3.624 20.293,3.248 19.571 C 2.897 18.896,2.763 18.192,2.735 16.860 C 2.723 16.332,2.696 15.843,2.675 15.772 C 2.554 15.379,2.067 15.167,1.668 15.334 C 1.492 15.408,1.290 15.648,1.257 15.821 C 1.242 15.900,1.240 16.409,1.251 16.952 C 1.278 18.224,1.377 18.858,1.680 19.709 C 2.195 21.150,3.245 22.064,4.860 22.477 C 5.841 22.727,6.768 22.776,10.080 22.748 C 11.529 22.735,12.766 22.707,12.960 22.683 C 14.808 22.447,16.008 21.822,16.759 20.703 C 17.034 20.294,17.202 19.926,17.373 19.358 C 17.655 18.422,17.720 17.684,17.720 15.418 L 17.720 13.768 18.310 13.741 C 19.368 13.692,20.018 13.563,20.625 13.281 C 21.771 12.748,22.359 11.897,22.629 10.380 C 22.692 10.025,22.700 9.701,22.700 7.500 C 22.700 4.794,22.691 4.660,22.455 3.880 C 22.006 2.402,21.034 1.618,19.299 1.336 C 18.975 1.283,18.499 1.269,16.780 1.259 C 15.614 1.252,14.439 1.263,14.170 1.282 M19.490 2.889 C 20.210 3.085,20.618 3.385,20.865 3.900 C 21.180 4.558,21.240 5.132,21.240 7.500 C 21.240 9.868,21.180 10.442,20.865 11.100 C 20.617 11.617,20.202 11.921,19.490 12.106 C 19.173 12.189,18.971 12.212,18.410 12.229 L 17.720 12.251 17.720 11.927 C 17.720 11.749,17.701 11.418,17.677 11.192 C 17.448 8.975,16.643 7.614,15.140 6.899 C 14.313 6.506,13.528 6.335,12.190 6.257 L 11.720 6.229 11.720 5.825 C 11.721 5.020,11.846 4.343,12.080 3.880 C 12.307 3.430,12.592 3.190,13.132 2.993 C 13.729 2.775,13.901 2.765,16.620 2.774 L 19.100 2.783 19.490 2.889 " stroke="none" fill-rule="evenodd" fill="black"></path></svg>