<svg width="24" height="24" viewBox="0 0 24 24" fill="none" xmlns="http://www.w3.org/2000/svg"><path d="M11.560 1.267 C 10.326 1.322,9.152 1.571,8.041 2.012 C 7.427 2.256,7.240 2.454,7.240 2.860 C 7.240 3.229,7.525 3.548,7.892 3.589 C 8.032 3.605,8.152 3.574,8.523 3.428 C 9.718 2.955,10.735 2.760,12.006 2.760 C 14.054 2.760,15.986 3.412,17.614 4.650 L 17.929 4.891 11.415 11.405 C 7.832 14.988,4.896 17.920,4.892 17.920 C 4.870 17.920,4.386 17.261,4.201 16.979 C 3.703 16.221,3.162 14.915,2.965 13.998 C 2.698 12.754,2.690 11.304,2.944 10.120 C 3.214 8.860,3.718 7.703,4.457 6.648 C 4.701 6.298,4.770 6.095,4.724 5.855 C 4.656 5.497,4.372 5.267,4.000 5.267 C 3.678 5.267,3.534 5.369,3.222 5.816 C 1.432 8.383,0.834 11.537,1.564 14.550 C 1.904 15.951,2.529 17.268,3.424 18.470 C 3.880 19.083,4.909 20.111,5.530 20.575 C 7.606 22.126,10.070 22.870,12.627 22.717 C 14.790 22.588,16.724 21.879,18.470 20.575 C 19.087 20.115,20.115 19.087,20.575 18.470 C 22.127 16.391,22.870 13.930,22.717 11.373 C 22.588 9.210,21.879 7.276,20.575 5.530 C 20.115 4.913,19.087 3.885,18.470 3.425 C 17.047 2.362,15.454 1.679,13.742 1.398 C 13.325 1.330,12.055 1.227,11.880 1.248 C 11.847 1.252,11.703 1.261,11.560 1.267 M19.407 6.460 C 19.749 6.912,20.009 7.340,20.302 7.940 C 20.943 9.248,21.240 10.535,21.240 12.000 C 21.240 13.463,20.944 14.747,20.303 16.060 C 19.814 17.063,19.273 17.805,18.434 18.622 C 17.648 19.389,17.024 19.830,16.060 20.302 C 14.752 20.943,13.465 21.240,12.000 21.240 C 9.888 21.240,7.930 20.560,6.244 19.240 L 5.963 19.020 12.487 12.495 L 19.011 5.969 19.118 6.095 C 19.177 6.164,19.307 6.328,19.407 6.460 " stroke="none" fill-rule="evenodd" fill="black"></path></svg>