<svg width="24" height="24" viewBox="0 0 24 24" fill="none" xmlns="http://www.w3.org/2000/svg"><path d="M7.920 1.281 C 6.795 1.350,6.085 1.589,5.548 2.080 C 4.941 2.635,4.658 3.454,4.605 4.814 L 4.580 5.448 4.205 5.545 C 3.744 5.664,3.510 5.760,3.112 5.993 C 2.044 6.617,1.520 7.633,1.314 9.480 C 1.243 10.117,1.243 13.883,1.314 14.520 C 1.520 16.367,2.044 17.383,3.112 18.007 C 3.510 18.240,3.744 18.336,4.205 18.455 L 4.580 18.552 4.605 19.186 C 4.634 19.935,4.715 20.434,4.879 20.884 C 5.177 21.701,5.733 22.228,6.580 22.495 C 7.332 22.732,7.856 22.758,12.000 22.758 C 16.144 22.758,16.668 22.732,17.420 22.495 C 18.267 22.228,18.823 21.701,19.121 20.884 C 19.285 20.434,19.366 19.935,19.395 19.186 L 19.420 18.552 19.780 18.458 C 21.358 18.046,22.219 17.091,22.556 15.380 C 22.713 14.578,22.737 14.140,22.737 12.000 C 22.737 10.591,22.721 9.795,22.686 9.480 C 22.480 7.633,21.956 6.617,20.888 5.993 C 20.490 5.760,20.256 5.664,19.795 5.545 L 19.420 5.448 19.395 4.814 C 19.341 3.436,19.058 2.629,18.429 2.060 C 17.852 1.537,17.013 1.297,15.680 1.271 C 15.159 1.260,15.134 1.264,14.960 1.366 C 14.478 1.649,14.474 2.349,14.952 2.629 C 15.109 2.721,15.186 2.734,15.753 2.763 C 16.708 2.813,17.151 2.924,17.440 3.185 C 17.710 3.429,17.861 3.947,17.906 4.790 L 17.931 5.260 12.000 5.260 L 6.069 5.260 6.094 4.790 C 6.153 3.702,6.360 3.210,6.850 3.000 C 7.294 2.808,7.480 2.791,9.320 2.765 L 11.060 2.740 11.234 2.640 C 11.726 2.359,11.726 1.641,11.234 1.360 L 11.060 1.260 9.740 1.255 C 9.014 1.252,8.195 1.264,7.920 1.281 M18.367 6.819 C 20.316 7.008,20.889 7.528,21.168 9.360 C 21.242 9.842,21.242 14.158,21.168 14.640 C 20.889 16.472,20.316 16.992,18.367 17.181 C 17.503 17.265,6.497 17.265,5.633 17.181 C 3.681 16.992,3.115 16.479,2.832 14.640 C 2.758 14.157,2.758 9.843,2.832 9.360 C 3.112 7.539,3.686 7.009,5.579 6.821 C 6.379 6.741,17.551 6.739,18.367 6.819 M17.906 19.210 C 17.844 20.356,17.627 20.824,17.058 21.037 C 16.538 21.232,16.349 21.240,12.000 21.240 C 7.651 21.240,7.462 21.232,6.942 21.037 C 6.373 20.824,6.156 20.356,6.094 19.210 L 6.069 18.740 12.000 18.740 L 17.931 18.740 17.906 19.210 " stroke="none" fill-rule="evenodd" fill="black"></path></svg>