<svg width="24" height="24" viewBox="0 0 24 24" fill="none" xmlns="http://www.w3.org/2000/svg"><path d="M8.538 1.280 C 7.333 1.384,6.223 1.897,5.505 2.683 C 4.788 3.467,4.373 4.450,4.281 5.587 C 4.227 6.253,4.227 17.763,4.281 18.415 C 4.467 20.670,5.886 22.253,8.095 22.671 C 8.424 22.733,8.811 22.740,12.000 22.740 C 15.189 22.740,15.576 22.733,15.905 22.671 C 18.114 22.253,19.533 20.670,19.719 18.415 C 19.772 17.780,19.772 6.220,19.719 5.585 C 19.511 3.064,17.687 1.330,15.182 1.270 C 14.798 1.261,14.764 1.267,14.612 1.368 C 14.372 1.526,14.267 1.721,14.267 2.007 C 14.267 2.203,14.286 2.270,14.383 2.408 C 14.555 2.651,14.717 2.717,15.246 2.761 C 15.496 2.781,15.841 2.834,16.014 2.878 C 16.895 3.104,17.672 3.802,18.009 4.670 C 18.246 5.281,18.240 5.126,18.240 10.424 L 18.240 15.280 12.000 15.280 L 5.760 15.280 5.760 10.424 C 5.760 5.126,5.754 5.281,5.991 4.670 C 6.323 3.815,7.062 3.142,7.960 2.877 C 8.237 2.795,8.370 2.786,9.720 2.764 C 11.312 2.737,11.295 2.740,11.527 2.494 C 11.661 2.353,11.720 2.201,11.720 2.000 C 11.720 1.799,11.661 1.647,11.527 1.506 C 11.297 1.263,11.285 1.261,10.040 1.254 C 9.413 1.251,8.737 1.263,8.538 1.280 M1.815 3.277 C 1.638 3.321,1.461 3.456,1.353 3.631 L 1.260 3.780 1.260 12.000 L 1.260 20.220 1.353 20.369 C 1.710 20.943,2.576 20.812,2.716 20.162 C 2.776 19.882,2.777 4.101,2.717 3.841 C 2.623 3.432,2.215 3.177,1.815 3.277 M21.815 3.277 C 21.638 3.321,21.461 3.456,21.353 3.631 L 21.260 3.780 21.260 12.000 L 21.260 20.220 21.353 20.369 C 21.710 20.943,22.576 20.812,22.716 20.162 C 22.776 19.882,22.777 4.101,22.717 3.841 C 22.623 3.432,22.215 3.177,21.815 3.277 M18.240 17.596 C 18.240 18.526,18.198 18.844,18.009 19.330 C 17.647 20.262,16.819 20.961,15.840 21.161 C 15.481 21.235,15.268 21.239,12.000 21.239 C 8.732 21.239,8.519 21.235,8.160 21.161 C 7.181 20.961,6.353 20.262,5.991 19.330 C 5.802 18.844,5.760 18.526,5.760 17.596 L 5.760 16.760 12.000 16.760 L 18.240 16.760 18.240 17.596 " stroke="none" fill-rule="evenodd" fill="black"></path></svg>