<svg width="24" height="24" viewBox="0 0 24 24" fill="none" xmlns="http://www.w3.org/2000/svg"><path d="M4.420 1.259 C 4.398 1.267,4.331 1.284,4.271 1.297 C 4.124 1.329,3.881 1.548,3.814 1.708 C 3.691 2.002,3.771 2.336,4.015 2.550 C 4.095 2.621,4.211 2.693,4.271 2.709 C 4.414 2.749,19.586 2.749,19.729 2.709 C 19.881 2.667,20.121 2.447,20.186 2.292 C 20.251 2.137,20.256 1.887,20.197 1.733 C 20.145 1.593,19.979 1.414,19.820 1.326 C 19.709 1.265,19.098 1.259,12.080 1.253 C 7.889 1.249,4.442 1.252,4.420 1.259 M6.560 4.279 C 4.823 4.383,3.809 4.711,3.055 5.413 C 2.360 6.061,2.012 6.888,1.833 8.320 C 1.757 8.922,1.757 15.078,1.833 15.680 C 2.012 17.112,2.360 17.939,3.055 18.587 C 3.829 19.308,4.816 19.618,6.660 19.721 C 7.545 19.770,16.455 19.770,17.340 19.721 C 19.164 19.619,20.166 19.308,20.923 18.608 C 21.635 17.951,21.987 17.122,22.167 15.680 C 22.243 15.078,22.243 8.922,22.167 8.320 C 22.027 7.200,21.767 6.421,21.337 5.836 C 20.994 5.368,20.428 4.950,19.824 4.716 C 18.768 4.309,17.766 4.229,13.900 4.248 C 11.608 4.259,11.327 4.267,11.220 4.326 C 10.978 4.460,10.800 4.745,10.800 5.000 C 10.800 5.255,10.978 5.540,11.220 5.674 C 11.328 5.733,11.671 5.742,14.620 5.763 C 17.996 5.787,18.092 5.792,18.809 5.956 C 19.771 6.177,20.277 6.669,20.520 7.620 C 20.728 8.434,20.740 8.671,20.740 12.000 C 20.740 14.726,20.732 15.158,20.671 15.580 C 20.534 16.530,20.348 17.044,20.013 17.404 C 19.623 17.823,19.154 18.013,18.140 18.166 C 17.610 18.246,6.390 18.246,5.860 18.166 C 4.851 18.014,4.377 17.822,3.994 17.411 C 3.573 16.960,3.370 16.263,3.279 14.960 C 3.207 13.929,3.248 8.959,3.334 8.379 C 3.473 7.434,3.659 6.942,4.021 6.562 C 4.513 6.047,5.320 5.825,6.940 5.763 C 7.758 5.731,7.842 5.711,8.047 5.494 C 8.181 5.353,8.240 5.201,8.240 5.000 C 8.240 4.717,8.085 4.468,7.824 4.332 C 7.677 4.256,7.254 4.238,6.560 4.279 M4.815 21.278 C 4.331 21.393,4.098 22.004,4.383 22.408 C 4.447 22.499,4.572 22.610,4.660 22.656 L 4.820 22.740 12.380 22.751 C 17.783 22.758,20.001 22.749,20.154 22.717 C 20.902 22.562,20.929 21.473,20.189 21.286 C 19.978 21.233,5.036 21.225,4.815 21.278 " stroke="none" fill-rule="evenodd" fill="black"></path></svg>