<svg width="24" height="24" viewBox="0 0 24 24" fill="none" xmlns="http://www.w3.org/2000/svg"><path d="M10.060 1.280 C 7.881 1.392,6.682 1.932,5.993 3.112 C 5.760 3.510,5.664 3.744,5.545 4.205 L 5.448 4.580 4.814 4.605 C 4.065 4.634,3.566 4.715,3.116 4.879 C 1.859 5.338,1.308 6.353,1.271 8.280 C 1.260 8.845,1.263 8.865,1.366 9.040 C 1.651 9.525,2.363 9.524,2.636 9.039 C 2.719 8.890,2.735 8.793,2.764 8.245 C 2.813 7.292,2.924 6.848,3.185 6.560 C 3.429 6.290,3.947 6.139,4.790 6.094 L 5.260 6.069 5.260 12.000 L 5.260 17.931 4.790 17.906 C 3.698 17.847,3.219 17.644,3.000 17.149 C 2.810 16.719,2.791 16.520,2.765 14.680 L 2.740 12.940 2.640 12.766 C 2.360 12.276,1.653 12.272,1.366 12.760 L 1.260 12.940 1.263 14.580 C 1.266 15.908,1.279 16.305,1.334 16.668 C 1.534 17.988,2.084 18.744,3.116 19.121 C 3.566 19.285,4.065 19.366,4.814 19.395 L 5.448 19.420 5.545 19.795 C 5.950 21.358,6.909 22.219,8.620 22.556 C 9.422 22.713,9.860 22.737,12.000 22.737 C 14.140 22.737,14.578 22.713,15.380 22.556 C 17.093 22.219,18.046 21.359,18.458 19.780 L 18.552 19.420 19.186 19.395 C 19.935 19.366,20.434 19.285,20.884 19.121 C 21.701 18.823,22.228 18.266,22.495 17.420 C 22.639 16.964,22.676 16.715,22.724 15.897 C 22.782 14.914,22.748 7.864,22.684 7.420 C 22.484 6.044,21.930 5.261,20.884 4.879 C 20.434 4.715,19.935 4.634,19.186 4.605 L 18.552 4.580 18.455 4.205 C 18.336 3.744,18.240 3.510,18.007 3.112 C 17.399 2.071,16.418 1.546,14.691 1.338 C 14.087 1.265,11.077 1.227,10.060 1.280 M14.908 2.874 C 15.711 3.025,16.130 3.205,16.469 3.544 C 16.866 3.941,17.077 4.560,17.181 5.633 C 17.265 6.497,17.265 17.503,17.181 18.367 C 16.992 20.316,16.472 20.889,14.640 21.168 C 14.158 21.242,9.842 21.242,9.360 21.168 C 7.528 20.889,7.008 20.316,6.819 18.367 C 6.735 17.503,6.735 6.497,6.819 5.633 C 6.993 3.836,7.467 3.208,8.865 2.923 C 9.562 2.781,9.882 2.767,12.200 2.778 C 14.305 2.788,14.491 2.795,14.908 2.874 M19.990 6.183 C 20.609 6.310,20.873 6.502,21.037 6.942 C 21.232 7.462,21.240 7.651,21.240 12.000 C 21.240 16.349,21.232 16.538,21.037 17.058 C 20.824 17.627,20.356 17.844,19.210 17.906 L 18.740 17.931 18.740 12.000 L 18.740 6.069 19.210 6.094 C 19.469 6.108,19.820 6.148,19.990 6.183 " stroke="none" fill-rule="evenodd" fill="black"></path></svg>