<svg width="24" height="24" viewBox="0 0 24 24" fill="none" xmlns="http://www.w3.org/2000/svg"><path d="M10.091 1.864 C 9.890 1.915,9.744 2.039,9.636 2.248 C 9.562 2.393,9.560 2.603,9.560 9.878 L 9.560 17.360 8.150 17.361 C 6.868 17.362,6.726 17.368,6.580 17.435 C 6.390 17.523,6.304 17.612,6.222 17.810 C 6.143 17.998,6.143 18.202,6.222 18.390 C 6.304 18.588,6.390 18.677,6.580 18.765 C 6.731 18.834,6.913 18.838,9.687 18.839 C 11.675 18.840,12.671 18.826,12.747 18.797 C 13.020 18.695,13.211 18.407,13.211 18.100 C 13.211 17.873,13.141 17.711,12.974 17.553 C 12.789 17.378,12.685 17.360,11.837 17.360 L 11.040 17.360 11.040 10.340 L 11.040 3.320 13.985 3.320 C 16.059 3.320,16.975 3.333,17.082 3.365 C 17.335 3.441,17.605 3.677,17.739 3.938 L 17.860 4.174 17.874 5.156 C 17.886 6.021,17.896 6.155,17.963 6.285 C 18.107 6.568,18.405 6.712,18.741 6.662 C 18.894 6.639,18.966 6.598,19.118 6.445 C 19.235 6.328,19.317 6.207,19.333 6.124 C 19.389 5.845,19.363 4.210,19.297 3.894 C 19.136 3.111,18.635 2.460,17.916 2.098 C 17.399 1.837,17.492 1.843,13.701 1.831 C 11.294 1.823,10.213 1.833,10.091 1.864 M3.192 1.902 C 2.660 2.031,2.071 2.435,1.742 2.895 C 1.325 3.480,1.240 3.851,1.240 5.093 C 1.240 5.586,1.252 6.050,1.267 6.124 C 1.283 6.207,1.365 6.328,1.482 6.445 C 1.634 6.598,1.706 6.639,1.859 6.662 C 2.195 6.712,2.493 6.568,2.637 6.285 C 2.704 6.155,2.714 6.021,2.726 5.156 L 2.740 4.174 2.861 3.938 C 2.995 3.677,3.265 3.441,3.518 3.365 C 3.619 3.335,4.177 3.320,5.196 3.320 C 6.807 3.320,6.890 3.312,7.093 3.128 C 7.300 2.941,7.381 2.539,7.265 2.269 C 7.198 2.113,7.021 1.940,6.867 1.883 C 6.688 1.815,3.481 1.832,3.192 1.902 M13.400 9.645 C 13.138 9.749,12.949 10.040,12.949 10.340 C 12.949 10.567,13.019 10.729,13.186 10.887 C 13.374 11.065,13.470 11.080,14.423 11.080 L 15.320 11.080 15.320 15.880 L 15.320 20.680 14.553 20.680 C 13.852 20.680,13.770 20.687,13.610 20.765 C 13.343 20.894,13.220 21.108,13.220 21.443 C 13.220 21.684,13.233 21.729,13.343 21.866 C 13.589 22.175,13.468 22.162,16.070 22.162 C 17.654 22.162,18.425 22.148,18.504 22.119 C 18.667 22.057,18.798 21.926,18.884 21.740 C 19.038 21.408,18.933 21.023,18.632 20.814 L 18.467 20.700 17.654 20.687 L 16.840 20.674 16.840 15.876 L 16.840 11.078 18.857 11.089 C 20.823 11.100,20.877 11.102,20.985 11.182 C 21.239 11.373,21.258 11.430,21.280 12.114 C 21.296 12.619,21.314 12.765,21.369 12.849 C 21.666 13.302,22.320 13.313,22.626 12.872 L 22.740 12.707 22.738 11.963 C 22.735 11.301,22.726 11.194,22.647 10.983 C 22.476 10.519,22.147 10.129,21.706 9.865 C 21.256 9.595,21.340 9.600,17.212 9.603 C 14.852 9.604,13.464 9.620,13.400 9.645 " stroke="none" fill-rule="evenodd" fill="black"></path></svg>