<svg width="24" height="24" viewBox="0 0 24 24" fill="none" xmlns="http://www.w3.org/2000/svg"><path d="M11.342 1.482 C 10.872 1.556,10.370 1.737,9.989 1.970 C 9.702 2.145,2.662 7.780,2.392 8.050 C 2.005 8.437,1.652 9.046,1.449 9.680 C 1.211 10.419,1.208 10.935,1.431 12.245 C 1.520 12.765,1.621 13.244,1.655 13.310 C 1.791 13.573,2.145 13.754,2.413 13.699 C 2.781 13.622,3.040 13.326,3.040 12.981 C 3.040 12.878,2.976 12.412,2.897 11.947 C 2.704 10.799,2.711 10.516,2.945 9.932 C 3.108 9.525,3.243 9.314,3.499 9.070 C 3.632 8.944,5.303 7.590,7.213 6.061 C 9.683 4.084,10.758 3.247,10.933 3.165 C 11.278 3.003,11.559 2.946,12.000 2.946 C 12.445 2.947,12.790 3.027,13.130 3.209 C 13.382 3.343,20.293 8.847,20.578 9.141 C 20.772 9.340,20.964 9.684,21.107 10.090 C 21.192 10.329,21.214 10.483,21.235 10.960 C 21.264 11.629,21.312 11.753,21.608 11.920 C 22.010 12.147,22.480 11.978,22.662 11.541 C 22.743 11.349,22.754 10.584,22.682 10.220 C 22.499 9.293,22.062 8.469,21.460 7.916 C 21.194 7.671,14.489 2.312,14.172 2.090 C 13.839 1.857,13.396 1.658,12.993 1.558 C 12.608 1.464,11.719 1.422,11.342 1.482 M20.927 14.846 C 20.595 15.010,20.598 15.002,20.220 17.241 C 20.033 18.351,19.853 19.340,19.820 19.439 C 19.558 20.222,18.718 20.920,17.893 21.039 C 17.732 21.062,16.306 21.079,14.405 21.079 L 11.191 21.080 11.032 21.170 C 10.811 21.293,10.669 21.547,10.669 21.814 C 10.669 22.154,10.870 22.427,11.192 22.521 C 11.295 22.552,12.380 22.561,14.760 22.552 C 18.163 22.538,18.182 22.538,18.500 22.449 C 19.914 22.052,21.056 20.872,21.341 19.513 C 21.520 18.664,22.005 15.601,21.990 15.413 C 21.951 14.908,21.398 14.613,20.927 14.846 M1.811 15.280 C 1.338 15.388,1.103 16.011,1.385 16.409 C 1.562 16.661,1.725 16.725,2.296 16.764 C 2.567 16.783,2.918 16.826,3.077 16.859 C 3.452 16.938,3.624 16.935,3.820 16.845 C 4.010 16.757,4.096 16.668,4.178 16.470 C 4.263 16.267,4.256 16.057,4.157 15.853 C 4.004 15.538,3.795 15.444,3.025 15.344 C 2.440 15.268,1.971 15.243,1.811 15.280 M6.050 17.263 C 5.830 17.395,5.705 17.628,5.707 17.902 C 5.709 18.144,5.744 18.216,6.040 18.580 C 6.367 18.982,6.505 19.198,6.701 19.613 C 7.021 20.292,7.181 20.926,7.239 21.749 C 7.267 22.141,7.291 22.269,7.360 22.380 C 7.597 22.764,8.099 22.855,8.464 22.579 C 8.675 22.420,8.735 22.236,8.726 21.784 C 8.701 20.504,8.282 19.188,7.561 18.120 C 7.273 17.694,6.963 17.336,6.801 17.245 C 6.582 17.122,6.272 17.130,6.050 17.263 M1.811 18.281 C 1.339 18.387,1.103 19.011,1.385 19.409 C 1.542 19.632,1.726 19.717,2.146 19.761 C 2.822 19.831,3.207 19.999,3.604 20.396 C 4.001 20.793,4.169 21.178,4.239 21.854 C 4.260 22.054,4.309 22.270,4.352 22.354 C 4.602 22.838,5.292 22.868,5.617 22.408 C 5.726 22.253,5.733 22.220,5.728 21.885 C 5.701 20.151,4.519 18.699,2.860 18.361 C 2.432 18.274,1.990 18.240,1.811 18.281 M1.689 21.056 C 1.452 21.134,1.262 21.289,1.131 21.511 C 1.036 21.672,1.020 21.744,1.020 22.000 C 1.020 22.257,1.036 22.327,1.133 22.492 C 1.356 22.871,1.789 23.060,2.217 22.964 C 2.929 22.805,3.232 21.975,2.789 21.394 C 2.549 21.080,2.069 20.932,1.689 21.056 " stroke="none" fill-rule="evenodd" fill="black"></path></svg>