<svg width="24" height="24" viewBox="0 0 24 24" fill="none" xmlns="http://www.w3.org/2000/svg"><path d="M16.459 1.276 C 15.903 1.414,15.714 2.114,16.123 2.523 C 16.239 2.639,16.325 2.683,16.506 2.721 C 17.052 2.833,17.398 2.934,17.805 3.102 C 18.042 3.200,18.301 3.280,18.380 3.280 C 18.541 3.280,18.779 3.191,18.893 3.088 C 19.112 2.890,19.178 2.511,19.045 2.220 C 18.948 2.010,18.875 1.949,18.512 1.782 C 17.798 1.452,16.771 1.199,16.459 1.276 M20.540 4.106 C 20.349 4.207,20.247 4.319,20.176 4.506 C 20.082 4.751,20.123 4.978,20.318 5.297 C 20.694 5.911,20.961 6.543,21.122 7.200 C 21.245 7.703,21.272 8.620,21.178 9.120 C 21.063 9.734,21.061 9.855,21.160 10.059 C 21.456 10.672,22.341 10.579,22.538 9.913 C 22.706 9.349,22.783 8.501,22.724 7.857 C 22.621 6.710,22.271 5.637,21.685 4.669 C 21.467 4.308,21.320 4.148,21.147 4.083 C 20.985 4.021,20.679 4.033,20.540 4.106 M16.059 4.576 C 15.912 4.640,15.690 4.885,15.656 5.023 C 15.604 5.228,15.661 5.547,15.775 5.697 C 15.923 5.891,16.082 5.965,16.438 6.004 C 16.861 6.052,17.165 6.210,17.485 6.551 C 17.772 6.855,17.968 7.194,18.059 7.542 C 18.141 7.859,18.136 8.060,18.036 8.384 C 17.976 8.578,17.959 8.709,17.976 8.837 C 18.045 9.336,18.560 9.614,19.025 9.403 C 19.243 9.304,19.373 9.123,19.486 8.760 C 19.614 8.350,19.616 7.572,19.490 7.115 C 19.157 5.908,18.162 4.882,17.049 4.597 C 16.703 4.509,16.236 4.499,16.059 4.576 M6.140 6.924 C 4.977 7.092,4.187 7.746,3.818 8.847 C 3.762 9.015,3.640 9.510,3.547 9.947 L 3.379 10.740 2.939 10.760 C 2.437 10.783,2.273 10.853,2.112 11.112 C 1.972 11.338,1.982 11.692,2.134 11.912 C 2.284 12.127,2.517 12.240,2.813 12.240 C 2.968 12.240,3.040 12.256,3.040 12.290 C 3.041 12.318,2.992 12.580,2.932 12.873 L 2.823 13.406 2.627 13.549 C 2.138 13.908,1.846 14.494,1.723 15.360 C 1.616 16.117,1.236 20.515,1.258 20.746 C 1.340 21.604,1.974 22.365,2.840 22.645 C 3.058 22.715,3.234 22.732,3.920 22.749 C 5.904 22.799,6.345 22.574,6.761 21.300 C 6.922 20.804,7.015 20.617,7.130 20.551 C 7.200 20.511,7.714 20.500,9.480 20.500 C 10.723 20.500,11.787 20.513,11.845 20.529 C 11.964 20.563,12.025 20.687,12.277 21.400 C 12.694 22.584,13.138 22.798,15.080 22.749 C 15.978 22.727,16.214 22.680,16.620 22.445 C 17.224 22.095,17.657 21.443,17.740 20.760 C 17.774 20.476,17.655 19.151,17.576 18.932 C 17.411 18.476,16.848 18.309,16.450 18.597 C 16.183 18.790,16.143 18.930,16.185 19.517 C 16.204 19.794,16.220 20.192,16.220 20.403 C 16.220 20.762,16.213 20.796,16.108 20.934 C 15.885 21.225,15.804 21.243,14.735 21.231 L 13.791 21.220 13.604 20.680 C 13.296 19.792,13.077 19.482,12.585 19.240 C 12.117 19.009,11.906 18.994,9.330 19.010 C 6.851 19.026,6.864 19.025,6.421 19.240 C 6.163 19.364,5.864 19.649,5.713 19.912 C 5.641 20.037,5.499 20.383,5.396 20.680 L 5.209 21.220 4.264 21.231 C 3.454 21.240,3.300 21.232,3.189 21.176 C 2.879 21.019,2.760 20.826,2.760 20.480 C 2.760 20.195,3.138 16.003,3.204 15.560 C 3.266 15.141,3.380 14.860,3.533 14.743 C 3.842 14.509,3.597 14.518,9.582 14.529 L 15.060 14.540 15.271 14.635 C 15.599 14.783,15.716 15.011,15.803 15.665 C 15.854 16.059,15.899 16.170,16.066 16.325 C 16.236 16.482,16.333 16.520,16.561 16.520 C 16.826 16.520,17.020 16.427,17.161 16.232 C 17.307 16.030,17.335 15.845,17.281 15.435 C 17.161 14.532,16.863 13.932,16.331 13.520 C 16.209 13.426,16.194 13.384,16.081 12.844 C 16.014 12.527,15.960 12.261,15.960 12.254 C 15.960 12.246,16.062 12.240,16.187 12.240 C 16.483 12.240,16.716 12.127,16.866 11.912 C 16.961 11.774,16.980 11.706,16.980 11.500 C 16.980 11.294,16.961 11.226,16.866 11.088 C 16.692 10.838,16.495 10.760,16.032 10.760 C 15.668 10.760,15.648 10.756,15.627 10.670 C 15.615 10.620,15.539 10.265,15.458 9.880 C 15.201 8.664,14.985 8.174,14.484 7.680 C 13.978 7.181,13.370 6.945,12.455 6.893 C 12.045 6.870,11.995 6.875,11.822 6.959 C 11.315 7.204,11.261 7.921,11.726 8.229 C 11.855 8.314,11.952 8.338,12.291 8.365 C 12.953 8.419,13.226 8.512,13.466 8.766 C 13.746 9.065,13.802 9.249,14.233 11.301 L 14.586 12.980 9.526 12.990 C 6.744 12.996,4.460 12.993,4.451 12.985 C 4.424 12.957,5.153 9.553,5.240 9.300 C 5.400 8.835,5.617 8.612,6.049 8.469 C 6.274 8.394,6.419 8.384,7.439 8.369 C 8.438 8.354,8.595 8.344,8.719 8.280 C 8.994 8.139,9.120 7.931,9.120 7.620 C 9.120 7.306,8.994 7.101,8.712 6.956 C 8.576 6.886,8.472 6.880,7.472 6.885 C 6.871 6.888,6.272 6.905,6.140 6.924 M4.720 16.064 C 4.423 16.193,4.269 16.426,4.269 16.746 C 4.269 17.013,4.411 17.267,4.632 17.390 C 4.788 17.478,4.818 17.480,6.117 17.480 C 7.358 17.480,7.453 17.475,7.598 17.401 C 7.888 17.253,8.033 16.959,7.982 16.619 C 7.959 16.466,7.918 16.394,7.765 16.242 C 7.648 16.125,7.527 16.043,7.444 16.027 C 7.370 16.012,6.759 16.001,6.085 16.002 C 5.082 16.003,4.835 16.014,4.720 16.064 M11.525 16.029 C 11.472 16.039,11.343 16.133,11.238 16.238 C 11.082 16.394,11.041 16.465,11.018 16.619 C 10.967 16.959,11.112 17.253,11.402 17.401 C 11.547 17.475,11.642 17.480,12.883 17.480 C 14.182 17.480,14.212 17.478,14.368 17.390 C 14.784 17.157,14.860 16.536,14.513 16.212 C 14.297 16.010,14.214 16.000,12.871 16.005 C 12.183 16.008,11.577 16.019,11.525 16.029 " stroke="none" fill-rule="evenodd" fill="black"></path></svg>