<svg width="24" height="24" viewBox="0 0 24 24" fill="none" xmlns="http://www.w3.org/2000/svg"><path d="M5.543 1.285 C 4.724 1.337,3.873 1.540,3.340 1.810 C 3.082 1.941,2.716 2.201,2.493 2.411 C 2.280 2.612,1.953 3.056,1.810 3.340 C 1.666 3.625,1.483 4.194,1.401 4.612 C 1.307 5.086,1.231 6.163,1.277 6.366 C 1.447 7.121,2.554 7.119,2.716 6.362 C 2.740 6.249,2.760 6.017,2.760 5.848 C 2.761 5.219,2.926 4.464,3.168 3.984 C 3.488 3.350,4.130 2.974,5.160 2.818 C 5.712 2.734,10.288 2.734,10.840 2.818 C 12.106 3.010,12.726 3.484,13.038 4.500 C 13.216 5.077,13.240 5.422,13.240 7.409 L 13.240 9.278 13.150 9.294 C 11.946 9.507,11.491 9.664,10.881 10.080 C 10.110 10.605,9.585 11.515,9.378 12.685 C 9.342 12.891,9.304 13.101,9.295 13.150 L 9.278 13.240 7.409 13.240 C 5.420 13.240,5.075 13.216,4.500 13.038 C 3.660 12.777,3.219 12.336,2.962 11.500 C 2.850 11.135,2.761 10.539,2.760 10.152 C 2.760 9.683,2.698 9.458,2.522 9.282 C 2.109 8.869,1.405 9.066,1.278 9.630 C 1.237 9.812,1.299 10.813,1.381 11.287 C 1.712 13.195,2.805 14.288,4.713 14.619 C 5.288 14.719,6.149 14.758,7.750 14.759 L 9.240 14.760 9.241 16.250 C 9.242 18.414,9.308 19.216,9.546 19.974 C 9.956 21.274,10.726 22.044,12.026 22.454 C 12.806 22.699,13.578 22.758,16.000 22.758 C 17.836 22.758,18.692 22.722,19.287 22.619 C 21.196 22.288,22.288 21.195,22.619 19.285 C 22.707 18.780,22.761 17.842,22.715 17.635 C 22.634 17.276,22.370 17.067,21.997 17.067 C 21.721 17.067,21.504 17.187,21.360 17.420 C 21.282 17.546,21.266 17.647,21.238 18.173 C 21.132 20.158,20.520 20.927,18.840 21.182 C 18.288 21.266,13.712 21.266,13.160 21.182 C 11.671 20.956,11.044 20.329,10.818 18.840 C 10.745 18.360,10.734 13.873,10.804 13.300 C 11.003 11.681,11.681 11.003,13.300 10.804 C 13.873 10.734,18.360 10.745,18.840 10.818 C 20.520 11.073,21.132 11.842,21.238 13.827 C 21.265 14.348,21.282 14.454,21.358 14.576 C 21.702 15.134,22.578 15.007,22.712 14.380 C 22.761 14.152,22.710 13.237,22.619 12.715 C 22.288 10.805,21.196 9.712,19.287 9.381 C 18.712 9.281,17.851 9.242,16.250 9.241 L 14.760 9.240 14.759 7.750 C 14.758 5.586,14.692 4.784,14.454 4.026 C 14.044 2.726,13.274 1.956,11.974 1.546 C 11.526 1.406,11.032 1.325,10.332 1.280 C 9.629 1.234,6.280 1.238,5.543 1.285 M5.800 4.885 C 5.477 4.919,5.159 5.037,4.851 5.236 C 4.570 5.418,4.464 5.602,4.467 5.901 C 4.470 6.220,4.629 6.452,4.929 6.578 C 5.154 6.672,5.317 6.654,5.622 6.500 C 5.983 6.318,6.191 6.314,6.520 6.480 C 7.109 6.777,7.694 6.468,7.689 5.862 C 7.685 5.498,7.528 5.302,7.069 5.086 C 6.670 4.899,6.264 4.835,5.800 4.885 M9.800 4.885 C 9.477 4.919,9.159 5.037,8.851 5.236 C 8.570 5.418,8.464 5.602,8.467 5.901 C 8.470 6.220,8.629 6.452,8.929 6.578 C 9.154 6.672,9.317 6.654,9.622 6.500 C 9.983 6.318,10.191 6.314,10.520 6.480 C 11.109 6.777,11.694 6.468,11.689 5.862 C 11.685 5.498,11.528 5.302,11.069 5.086 C 10.670 4.899,10.264 4.835,9.800 4.885 M7.500 7.466 C 6.136 7.685,5.025 8.691,4.657 10.040 C 4.624 10.161,4.587 10.449,4.574 10.680 C 4.554 11.053,4.561 11.127,4.642 11.339 C 4.763 11.659,5.059 11.957,5.373 12.074 C 5.592 12.156,5.669 12.160,6.959 12.160 C 7.820 12.160,8.356 12.144,8.427 12.117 C 8.700 12.015,8.891 11.727,8.891 11.420 C 8.891 11.113,8.700 10.825,8.427 10.723 C 8.358 10.696,7.888 10.680,7.192 10.680 L 6.070 10.680 6.090 10.497 C 6.124 10.194,6.362 9.769,6.656 9.487 C 7.114 9.047,7.675 8.861,8.269 8.954 C 8.615 9.007,8.838 9.098,9.188 9.326 C 9.575 9.577,9.885 9.574,10.181 9.314 C 10.456 9.072,10.507 8.667,10.301 8.355 C 10.122 8.084,9.423 7.684,8.880 7.543 C 8.623 7.476,7.744 7.427,7.500 7.466 M13.011 12.878 C 12.689 12.957,12.463 13.267,12.467 13.626 C 12.469 13.896,12.589 14.088,12.863 14.264 C 13.522 14.685,14.332 14.741,15.040 14.415 C 15.517 14.194,15.691 13.981,15.691 13.620 C 15.691 13.393,15.621 13.231,15.454 13.073 C 15.211 12.843,14.933 12.822,14.544 13.004 C 14.193 13.168,13.954 13.169,13.667 13.007 C 13.435 12.876,13.204 12.831,13.011 12.878 M17.011 12.878 C 16.689 12.957,16.463 13.267,16.467 13.626 C 16.469 13.896,16.589 14.088,16.863 14.264 C 17.522 14.685,18.332 14.741,19.040 14.415 C 19.517 14.194,19.691 13.981,19.691 13.620 C 19.691 13.393,19.621 13.231,19.454 13.073 C 19.211 12.843,18.933 12.822,18.544 13.004 C 18.193 13.168,17.954 13.169,17.667 13.007 C 17.435 12.876,17.204 12.831,17.011 12.878 M13.361 15.528 C 13.060 15.644,12.760 15.949,12.642 16.261 C 12.561 16.473,12.554 16.547,12.574 16.920 C 12.610 17.573,12.771 18.054,13.142 18.620 C 13.608 19.330,14.384 19.872,15.240 20.085 C 15.569 20.167,16.511 20.155,16.840 20.064 C 17.471 19.891,18.038 19.558,18.468 19.108 C 19.073 18.475,19.380 17.773,19.426 16.920 C 19.446 16.547,19.439 16.473,19.358 16.261 C 19.237 15.941,18.941 15.643,18.627 15.526 C 18.401 15.441,18.359 15.440,15.988 15.442 C 13.641 15.444,13.574 15.446,13.361 15.528 M17.910 17.097 C 17.855 17.588,17.379 18.208,16.859 18.465 C 16.106 18.837,15.271 18.703,14.656 18.113 C 14.364 17.833,14.136 17.426,14.094 17.110 L 14.069 16.920 16.000 16.920 L 17.930 16.920 17.910 17.097 " stroke="none" fill-rule="evenodd" fill="black"></path></svg>