<svg width="24" height="24" viewBox="0 0 24 24" fill="none" xmlns="http://www.w3.org/2000/svg"><path d="M18.268 1.288 C 17.976 1.325,17.633 1.505,17.382 1.752 C 17.133 1.997,17.014 2.174,16.769 2.660 C 16.507 3.181,16.455 3.227,16.038 3.300 C 15.217 3.445,14.711 3.748,14.434 4.263 C 14.059 4.961,14.262 5.737,15.027 6.524 C 15.373 6.881,15.413 6.981,15.336 7.305 C 15.248 7.677,15.224 8.155,15.277 8.461 C 15.439 9.391,16.172 9.893,17.101 9.708 C 17.327 9.663,17.560 9.573,17.900 9.401 C 18.175 9.262,18.431 9.158,18.500 9.159 C 18.566 9.159,18.836 9.268,19.100 9.401 C 19.694 9.701,20.068 9.786,20.497 9.720 C 21.490 9.566,21.939 8.644,21.664 7.322 C 21.630 7.159,21.623 7.020,21.644 6.946 C 21.663 6.881,21.811 6.691,21.973 6.524 C 22.729 5.747,22.928 5.010,22.577 4.290 C 22.323 3.770,21.797 3.447,20.962 3.300 C 20.545 3.227,20.493 3.181,20.231 2.660 C 19.986 2.174,19.867 1.997,19.618 1.752 C 19.241 1.382,18.777 1.222,18.268 1.288 M5.928 2.822 C 4.640 2.987,3.639 3.428,2.847 4.177 C 2.092 4.890,1.597 5.857,1.381 7.040 C 1.303 7.468,1.238 8.475,1.278 8.650 C 1.406 9.219,2.080 9.439,2.494 9.047 C 2.693 8.859,2.727 8.744,2.763 8.143 C 2.801 7.506,2.877 7.061,3.017 6.648 C 3.495 5.243,4.566 4.469,6.288 4.282 C 6.522 4.257,7.771 4.240,9.416 4.240 C 11.254 4.240,12.192 4.226,12.267 4.197 C 12.540 4.095,12.731 3.807,12.731 3.500 C 12.731 3.193,12.540 2.905,12.267 2.803 C 12.092 2.736,6.460 2.754,5.928 2.822 M18.623 2.867 C 18.678 2.926,18.825 3.183,18.951 3.437 C 19.340 4.227,19.819 4.614,20.563 4.742 C 20.999 4.816,21.240 4.906,21.240 4.994 C 21.240 5.093,21.145 5.219,20.790 5.592 C 20.411 5.991,20.225 6.346,20.154 6.810 C 20.116 7.051,20.116 7.174,20.155 7.370 C 20.312 8.177,20.307 8.263,20.111 8.224 C 20.044 8.211,19.831 8.109,19.638 7.999 C 19.174 7.733,18.944 7.666,18.500 7.666 C 18.040 7.667,17.869 7.716,17.389 7.986 C 17.175 8.106,16.936 8.215,16.859 8.228 C 16.726 8.250,16.720 8.245,16.720 8.129 C 16.720 8.063,16.759 7.813,16.806 7.574 C 16.882 7.190,16.886 7.103,16.846 6.821 C 16.779 6.350,16.597 5.999,16.210 5.592 C 15.855 5.219,15.760 5.093,15.760 4.994 C 15.760 4.906,16.001 4.816,16.437 4.742 C 16.863 4.669,17.212 4.499,17.519 4.215 C 17.707 4.040,17.802 3.904,17.983 3.548 C 18.206 3.108,18.429 2.764,18.492 2.761 C 18.509 2.761,18.569 2.808,18.623 2.867 M6.811 8.278 C 6.500 8.354,6.266 8.665,6.266 9.000 C 6.266 9.369,6.287 9.391,8.050 10.796 C 9.867 12.246,10.123 12.429,10.558 12.596 C 11.081 12.797,11.457 12.852,12.159 12.830 C 12.681 12.814,12.837 12.793,13.140 12.703 C 13.730 12.526,14.348 12.153,14.521 11.869 C 14.690 11.591,14.650 11.259,14.415 11.000 C 14.142 10.698,13.769 10.681,13.352 10.952 C 12.881 11.257,12.534 11.361,11.988 11.359 C 11.590 11.357,11.266 11.284,10.943 11.123 C 10.797 11.051,10.070 10.498,9.120 9.736 C 8.251 9.040,7.477 8.429,7.400 8.378 C 7.239 8.273,6.998 8.232,6.811 8.278 M21.720 10.805 C 21.591 10.856,21.411 11.028,21.326 11.180 C 21.267 11.287,21.257 11.579,21.236 13.880 C 21.216 16.059,21.202 16.506,21.146 16.759 C 20.747 18.578,19.644 19.521,17.686 19.718 C 17.120 19.775,6.880 19.775,6.314 19.718 C 4.356 19.521,3.246 18.572,2.855 16.759 C 2.803 16.520,2.785 16.090,2.765 14.620 C 2.738 12.608,2.745 12.671,2.494 12.433 C 2.353 12.299,2.201 12.240,2.000 12.240 C 1.799 12.240,1.647 12.299,1.506 12.433 C 1.262 12.664,1.261 12.669,1.247 14.000 C 1.221 16.431,1.355 17.409,1.860 18.461 C 2.490 19.773,3.580 20.635,5.097 21.020 C 5.959 21.239,5.992 21.240,12.000 21.240 C 18.008 21.240,18.041 21.239,18.903 21.020 C 20.943 20.503,22.223 19.105,22.619 16.961 C 22.726 16.380,22.766 15.292,22.753 13.260 C 22.741 11.524,22.732 11.286,22.674 11.180 C 22.586 11.021,22.407 10.855,22.267 10.803 C 22.129 10.750,21.854 10.751,21.720 10.805 " stroke="none" fill-rule="evenodd" fill="black"></path></svg>