<svg width="24" height="24" viewBox="0 0 24 24" fill="none" xmlns="http://www.w3.org/2000/svg"><path d="M5.928 2.822 C 4.640 2.987,3.639 3.428,2.847 4.177 C 2.092 4.890,1.597 5.857,1.381 7.040 C 1.303 7.468,1.238 8.475,1.278 8.650 C 1.406 9.219,2.080 9.439,2.494 9.047 C 2.693 8.859,2.727 8.744,2.763 8.143 C 2.801 7.506,2.877 7.061,3.017 6.648 C 3.495 5.243,4.566 4.469,6.288 4.282 C 6.821 4.224,17.179 4.224,17.712 4.282 C 19.661 4.493,20.753 5.435,21.146 7.241 C 21.199 7.486,21.215 7.919,21.235 9.620 C 21.262 11.897,21.252 11.807,21.506 12.047 C 21.647 12.181,21.799 12.240,22.000 12.240 C 22.201 12.240,22.353 12.181,22.494 12.047 C 22.742 11.812,22.739 11.836,22.753 10.240 C 22.777 7.534,22.657 6.617,22.140 5.539 C 21.393 3.981,20.006 3.065,18.025 2.820 C 17.354 2.737,6.576 2.739,5.928 2.822 M6.785 8.288 C 6.699 8.312,6.563 8.397,6.481 8.479 C 6.208 8.752,6.187 9.190,6.434 9.475 C 6.646 9.721,9.882 12.266,10.195 12.432 C 10.716 12.710,11.120 12.808,11.841 12.830 C 12.328 12.845,12.534 12.834,12.801 12.780 C 13.249 12.690,13.683 12.520,14.002 12.311 C 14.374 12.066,17.540 9.537,17.613 9.426 C 17.978 8.867,17.484 8.131,16.840 8.276 C 16.647 8.319,16.658 8.311,14.780 9.816 C 13.898 10.523,13.202 11.051,13.057 11.123 C 12.731 11.285,12.409 11.357,12.000 11.358 C 11.581 11.359,11.222 11.278,10.907 11.110 C 10.776 11.040,9.933 10.393,9.035 9.673 C 8.138 8.953,7.371 8.348,7.332 8.327 C 7.210 8.263,6.947 8.245,6.785 8.288 M1.720 11.784 C 1.550 11.858,1.414 11.980,1.326 12.140 C 1.269 12.244,1.258 12.454,1.247 13.740 C 1.223 16.469,1.342 17.381,1.860 18.461 C 2.490 19.773,3.580 20.635,5.097 21.020 C 5.896 21.223,6.223 21.240,9.306 21.240 C 11.222 21.240,12.192 21.226,12.267 21.197 C 12.540 21.095,12.731 20.807,12.731 20.500 C 12.731 20.193,12.540 19.905,12.267 19.803 C 12.192 19.774,11.261 19.760,9.442 19.760 C 7.850 19.760,6.557 19.743,6.314 19.718 C 4.356 19.521,3.249 18.574,2.854 16.759 C 2.801 16.514,2.785 16.080,2.765 14.360 C 2.743 12.511,2.732 12.246,2.674 12.140 C 2.480 11.788,2.066 11.634,1.720 11.784 M19.936 13.499 C 19.638 13.564,19.287 13.737,18.998 13.963 C 18.728 14.172,15.485 17.391,15.139 17.791 C 14.731 18.265,14.688 18.395,14.498 19.720 C 14.413 20.309,14.434 20.757,14.556 20.994 C 14.690 21.253,14.941 21.505,15.187 21.625 C 15.516 21.786,15.822 21.790,16.800 21.644 C 18.072 21.454,17.815 21.636,20.224 19.225 C 21.484 17.964,22.284 17.133,22.379 16.985 C 22.717 16.463,22.810 15.861,22.640 15.309 C 22.391 14.502,21.401 13.605,20.620 13.479 C 20.321 13.431,20.240 13.433,19.936 13.499 M20.561 15.026 C 20.898 15.250,21.240 15.685,21.240 15.891 C 21.240 16.009,21.056 16.297,20.864 16.479 L 20.717 16.618 20.529 16.520 C 20.282 16.392,19.808 15.915,19.670 15.656 L 19.561 15.451 19.791 15.252 C 19.917 15.143,20.056 15.033,20.100 15.008 C 20.217 14.941,20.447 14.950,20.561 15.026 M18.807 17.003 C 18.988 17.216,19.230 17.431,19.598 17.709 C 19.625 17.730,17.310 20.038,17.240 20.060 C 17.161 20.084,16.096 20.240,16.005 20.240 C 15.939 20.240,15.941 20.202,16.026 19.590 C 16.076 19.233,16.118 18.932,16.119 18.923 C 16.119 18.913,16.646 18.377,17.290 17.731 C 18.443 16.573,18.461 16.557,18.520 16.647 C 18.553 16.698,18.682 16.858,18.807 17.003 " stroke="none" fill-rule="evenodd" fill="black"></path></svg>