<svg width="24" height="24" viewBox="0 0 24 24" fill="none" xmlns="http://www.w3.org/2000/svg"><path d="M5.928 2.822 C 4.640 2.987,3.639 3.428,2.847 4.177 C 2.092 4.890,1.597 5.858,1.381 7.040 C 1.267 7.667,1.242 8.560,1.242 12.000 C 1.242 15.440,1.267 16.333,1.381 16.960 C 1.597 18.144,2.092 19.110,2.848 19.825 C 3.652 20.585,4.645 21.016,5.975 21.180 C 6.694 21.269,17.306 21.269,18.025 21.180 C 20.006 20.935,21.393 20.019,22.140 18.461 C 22.645 17.409,22.779 16.431,22.753 14.000 C 22.739 12.669,22.738 12.664,22.494 12.433 C 22.353 12.299,22.201 12.240,22.000 12.240 C 21.799 12.240,21.647 12.299,21.506 12.433 C 21.255 12.671,21.262 12.608,21.235 14.620 C 21.215 16.090,21.197 16.520,21.145 16.759 C 20.754 18.572,19.644 19.521,17.686 19.718 C 17.120 19.775,6.880 19.775,6.314 19.718 C 4.265 19.512,3.111 18.451,2.823 16.511 C 2.729 15.881,2.729 8.119,2.823 7.489 C 3.109 5.558,4.249 4.503,6.288 4.282 C 6.821 4.224,17.179 4.224,17.712 4.282 C 19.434 4.469,20.505 5.243,20.983 6.648 C 21.123 7.061,21.199 7.506,21.237 8.143 C 21.273 8.744,21.307 8.859,21.506 9.047 C 21.920 9.439,22.594 9.219,22.722 8.650 C 22.762 8.475,22.697 7.468,22.619 7.040 C 22.403 5.856,21.908 4.890,21.152 4.175 C 20.348 3.415,19.355 2.984,18.025 2.820 C 17.354 2.737,6.576 2.739,5.928 2.822 M6.785 8.288 C 6.699 8.312,6.563 8.397,6.481 8.479 C 6.208 8.752,6.187 9.190,6.434 9.475 C 6.646 9.721,9.882 12.266,10.195 12.432 C 10.716 12.710,11.120 12.808,11.841 12.830 C 12.328 12.845,12.534 12.834,12.801 12.780 C 13.249 12.690,13.683 12.520,14.002 12.311 C 14.374 12.066,17.540 9.537,17.613 9.426 C 17.978 8.867,17.484 8.131,16.840 8.276 C 16.647 8.319,16.658 8.311,14.780 9.816 C 13.898 10.523,13.202 11.051,13.057 11.123 C 12.731 11.285,12.409 11.357,12.000 11.358 C 11.581 11.359,11.222 11.278,10.907 11.110 C 10.776 11.040,9.933 10.393,9.035 9.673 C 8.138 8.953,7.371 8.348,7.332 8.327 C 7.210 8.263,6.947 8.245,6.785 8.288 " stroke="none" fill-rule="evenodd" fill="black"></path></svg>