<svg width="24" height="24" viewBox="0 0 24 24" fill="none" xmlns="http://www.w3.org/2000/svg"><path d="M2.815 6.278 C 2.331 6.393,2.098 7.004,2.383 7.408 C 2.448 7.499,2.572 7.610,2.660 7.656 C 2.813 7.736,2.888 7.741,4.373 7.752 C 6.166 7.766,6.287 7.753,6.519 7.521 C 6.918 7.122,6.731 6.423,6.189 6.286 C 5.981 6.234,3.029 6.227,2.815 6.278 M9.815 6.278 C 9.331 6.393,9.098 7.004,9.383 7.408 C 9.447 7.499,9.572 7.610,9.660 7.656 C 9.820 7.740,9.829 7.740,15.380 7.751 C 19.330 7.758,21.002 7.749,21.154 7.717 C 21.902 7.562,21.929 6.473,21.189 6.286 C 20.979 6.233,10.035 6.226,9.815 6.278 M5.815 11.278 C 5.331 11.393,5.098 12.004,5.383 12.408 C 5.447 12.499,5.572 12.610,5.660 12.656 C 5.820 12.740,5.822 12.740,11.880 12.751 C 16.193 12.758,18.002 12.749,18.154 12.717 C 18.902 12.562,18.929 11.473,18.189 11.286 C 17.979 11.233,6.035 11.226,5.815 11.278 M9.815 16.278 C 9.331 16.393,9.098 17.004,9.383 17.408 C 9.447 17.499,9.572 17.610,9.660 17.656 C 9.815 17.738,9.880 17.740,11.875 17.752 C 14.208 17.765,14.281 17.759,14.519 17.521 C 14.918 17.122,14.731 16.423,14.189 16.286 C 13.980 16.234,10.031 16.226,9.815 16.278 " stroke="none" fill-rule="evenodd" fill="black"></path></svg>