<svg width="24" height="24" viewBox="0 0 24 24" fill="none" xmlns="http://www.w3.org/2000/svg"><path d="M8.300 1.282 C 5.953 1.416,4.762 2.363,4.381 4.400 C 4.262 5.038,4.236 6.150,4.248 10.200 L 4.260 14.180 4.360 14.354 C 4.641 14.846,5.359 14.846,5.640 14.354 L 5.740 14.180 5.763 9.540 C 5.785 5.004,5.787 4.892,5.869 4.560 C 6.122 3.535,6.476 3.151,7.385 2.919 C 7.965 2.770,8.264 2.760,12.000 2.760 C 15.736 2.760,16.035 2.770,16.615 2.919 C 17.603 3.171,17.998 3.668,18.177 4.885 C 18.232 5.258,18.240 6.130,18.240 12.000 C 18.240 19.292,18.244 19.152,18.014 19.840 C 17.794 20.498,17.497 20.794,16.836 21.016 C 16.190 21.232,16.008 21.240,12.000 21.240 C 8.855 21.240,8.247 21.231,7.885 21.177 C 6.899 21.032,6.382 20.732,6.105 20.146 C 5.900 19.714,5.760 18.985,5.760 18.353 C 5.760 17.884,5.698 17.658,5.522 17.482 C 5.108 17.068,4.407 17.265,4.276 17.833 C 4.233 18.024,4.301 19.168,4.382 19.603 C 4.711 21.366,5.632 22.287,7.400 22.618 C 7.989 22.729,8.973 22.759,12.000 22.759 C 15.775 22.759,16.402 22.723,17.244 22.460 C 18.583 22.042,19.355 21.106,19.621 19.580 C 19.740 18.892,19.757 17.947,19.758 12.020 C 19.759 6.073,19.740 5.050,19.619 4.400 C 19.289 2.636,18.366 1.713,16.600 1.382 C 16.413 1.347,15.963 1.301,15.600 1.279 C 14.842 1.235,9.080 1.237,8.300 1.282 M11.660 5.281 C 10.590 5.426,9.761 6.394,9.761 7.500 C 9.761 8.280,10.130 8.948,10.816 9.410 C 11.181 9.656,11.798 9.794,12.174 9.713 C 12.684 9.604,12.905 8.963,12.580 8.536 C 12.459 8.378,12.285 8.295,11.963 8.244 C 11.505 8.170,11.263 7.913,11.261 7.497 C 11.260 7.218,11.355 7.040,11.593 6.876 C 11.794 6.739,12.205 6.738,12.405 6.875 C 12.607 7.014,12.715 7.204,12.756 7.494 C 12.813 7.892,12.923 8.059,13.210 8.178 C 13.405 8.260,13.624 8.255,13.820 8.165 C 14.205 7.988,14.325 7.587,14.180 6.969 C 13.916 5.852,12.827 5.122,11.660 5.281 M11.740 11.266 C 10.415 11.385,9.327 12.085,8.719 13.212 C 8.400 13.803,8.271 14.320,8.271 15.000 C 8.271 15.682,8.400 16.197,8.721 16.792 C 9.078 17.453,9.549 17.923,10.212 18.281 C 10.803 18.600,11.320 18.729,12.000 18.729 C 12.680 18.729,13.197 18.600,13.788 18.281 C 14.451 17.923,14.922 17.453,15.279 16.792 C 15.600 16.197,15.729 15.682,15.729 15.000 C 15.729 14.320,15.600 13.803,15.281 13.212 C 14.832 12.381,14.122 11.779,13.215 11.463 C 12.793 11.316,12.149 11.230,11.740 11.266 M12.578 12.821 C 12.949 12.918,13.274 13.112,13.581 13.419 C 14.041 13.879,14.240 14.356,14.240 15.000 C 14.240 15.644,14.041 16.121,13.581 16.581 C 13.121 17.041,12.644 17.240,12.000 17.240 C 11.356 17.240,10.879 17.041,10.419 16.581 C 9.959 16.121,9.760 15.644,9.760 15.000 C 9.760 14.356,9.959 13.879,10.419 13.419 C 10.719 13.118,11.050 12.919,11.404 12.823 C 11.692 12.746,12.285 12.745,12.578 12.821 " stroke="none" fill-rule="evenodd" fill="black"></path></svg>