<svg width="24" height="24" viewBox="0 0 24 24" fill="none" xmlns="http://www.w3.org/2000/svg"><path d="M11.720 1.805 C 11.458 1.909,11.269 2.200,11.269 2.500 C 11.269 2.740,11.345 2.904,11.537 3.072 C 11.698 3.214,11.762 3.227,12.420 3.259 C 16.522 3.460,19.977 6.293,20.981 10.278 C 21.184 11.085,21.217 11.393,21.217 12.500 C 21.217 13.612,21.185 13.912,20.977 14.740 C 20.602 16.230,19.860 17.609,18.825 18.741 C 18.399 19.206,18.317 19.444,18.462 19.790 C 18.544 19.988,18.630 20.077,18.820 20.165 C 19.216 20.347,19.501 20.232,19.975 19.700 C 21.503 17.983,22.418 15.948,22.681 13.680 C 22.742 13.145,22.744 11.860,22.683 11.340 C 22.390 8.844,21.328 6.638,19.583 4.898 C 17.792 3.112,15.493 2.033,12.980 1.801 C 12.434 1.750,11.852 1.752,11.720 1.805 M7.700 2.640 C 7.449 2.719,6.604 3.178,6.116 3.501 C 4.462 4.594,3.247 5.971,2.357 7.760 C 1.313 9.857,1.001 12.329,1.482 14.688 C 1.810 16.298,2.558 17.890,3.606 19.205 C 4.116 19.846,4.425 20.138,4.649 20.194 C 5.150 20.318,5.573 19.975,5.568 19.451 C 5.566 19.198,5.530 19.135,5.143 18.707 C 3.942 17.381,3.141 15.708,2.856 13.935 C 2.770 13.397,2.738 12.120,2.797 11.553 C 3.017 9.414,3.971 7.429,5.507 5.911 C 6.237 5.189,6.940 4.682,7.835 4.232 C 8.443 3.926,8.503 3.882,8.605 3.660 C 8.820 3.191,8.523 2.665,8.016 2.620 C 7.908 2.611,7.766 2.620,7.700 2.640 M15.679 8.278 C 15.163 8.347,14.735 8.578,14.349 8.997 C 13.872 9.513,13.747 9.929,13.767 10.940 C 13.779 11.592,13.785 11.630,13.896 11.871 C 14.044 12.193,14.385 12.517,14.709 12.644 C 14.918 12.727,15.007 12.736,15.660 12.737 C 16.491 12.739,16.761 12.681,17.182 12.408 C 18.380 11.632,18.599 10.021,17.646 8.992 C 17.131 8.436,16.423 8.179,15.679 8.278 M16.292 9.814 C 16.363 9.844,16.478 9.932,16.546 10.011 C 16.812 10.313,16.821 10.668,16.571 10.960 C 16.364 11.201,16.243 11.240,15.701 11.240 L 15.240 11.240 15.240 10.845 C 15.240 10.628,15.251 10.395,15.265 10.327 C 15.296 10.171,15.537 9.886,15.697 9.817 C 15.857 9.747,16.129 9.746,16.292 9.814 M11.480 14.024 C 10.767 14.155,10.232 14.353,9.760 14.660 C 9.404 14.892,8.797 15.487,8.586 15.810 C 8.075 16.592,7.851 17.399,7.893 18.300 C 7.944 19.389,8.325 20.250,9.098 21.022 C 9.668 21.592,10.274 21.939,11.040 22.132 C 11.527 22.254,12.473 22.254,12.960 22.132 C 14.243 21.808,15.315 20.893,15.800 19.706 C 16.037 19.125,16.100 18.791,16.100 18.120 C 16.100 17.448,16.037 17.115,15.799 16.532 C 15.410 15.579,14.588 14.746,13.637 14.338 C 13.118 14.116,12.739 14.037,12.120 14.020 C 11.823 14.012,11.535 14.014,11.480 14.024 M12.760 15.598 C 13.270 15.759,13.678 16.037,14.042 16.469 C 14.262 16.731,14.413 17.014,14.529 17.380 C 14.646 17.747,14.654 18.458,14.545 18.818 C 14.278 19.702,13.620 20.369,12.740 20.649 C 12.373 20.766,11.662 20.774,11.302 20.665 C 10.824 20.521,10.523 20.334,10.140 19.945 C 9.580 19.377,9.383 18.903,9.383 18.120 C 9.383 17.611,9.440 17.356,9.649 16.942 C 9.796 16.650,9.857 16.569,10.151 16.268 C 10.531 15.879,11.023 15.612,11.526 15.522 C 11.846 15.465,12.458 15.503,12.760 15.598 " stroke="none" fill-rule="evenodd" fill="black"></path></svg>