<svg width="24" height="24" viewBox="0 0 24 24" fill="none" xmlns="http://www.w3.org/2000/svg"><path d="M11.720 1.362 C 11.309 1.421,11.058 1.531,10.659 1.826 C 10.087 2.248,9.952 2.464,8.741 4.881 C 7.893 6.572,7.745 6.844,7.588 6.988 C 7.261 7.290,7.206 7.305,5.323 7.621 C 3.365 7.949,3.306 7.961,2.935 8.100 C 2.194 8.379,1.663 8.854,1.407 9.466 C 1.298 9.728,1.241 10.230,1.285 10.551 C 1.304 10.688,1.373 10.940,1.439 11.111 C 1.673 11.718,1.864 11.949,3.442 13.540 C 4.250 14.354,4.940 15.078,4.976 15.148 C 5.011 15.219,5.067 15.393,5.100 15.534 C 5.171 15.841,5.196 15.699,4.725 17.740 C 4.299 19.588,4.263 19.812,4.290 20.454 C 4.323 21.237,4.526 21.738,4.976 22.150 C 5.390 22.527,5.816 22.662,6.496 22.630 C 7.324 22.590,7.617 22.459,9.888 21.112 C 11.439 20.192,11.669 20.080,12.000 20.080 C 12.331 20.080,12.561 20.193,14.105 21.107 C 15.756 22.086,16.130 22.289,16.585 22.452 C 17.112 22.641,17.740 22.700,18.180 22.600 C 18.656 22.493,19.147 22.141,19.383 21.738 C 19.596 21.374,19.688 21.020,19.710 20.476 C 19.738 19.813,19.703 19.596,19.275 17.740 C 19.077 16.882,18.899 16.097,18.880 15.996 C 18.840 15.788,18.909 15.376,19.022 15.153 C 19.059 15.080,19.741 14.363,20.538 13.560 C 22.218 11.868,22.421 11.611,22.649 10.887 C 22.766 10.515,22.763 9.958,22.642 9.600 C 22.413 8.923,21.865 8.402,21.067 8.101 C 20.673 7.953,20.257 7.869,20.017 7.889 C 19.509 7.931,19.214 8.474,19.443 8.947 C 19.558 9.184,19.700 9.272,20.140 9.381 C 21.152 9.632,21.443 10.032,21.111 10.715 C 20.997 10.950,20.806 11.159,19.440 12.540 C 17.993 14.003,17.886 14.120,17.727 14.429 C 17.489 14.889,17.392 15.284,17.387 15.800 C 17.384 16.199,17.404 16.306,17.799 17.980 C 18.208 19.709,18.215 19.749,18.218 20.240 C 18.220 20.788,18.184 20.912,17.971 21.081 C 17.874 21.157,17.824 21.166,17.580 21.151 C 17.135 21.122,16.754 20.938,15.011 19.908 C 14.127 19.385,13.288 18.903,13.148 18.838 C 12.473 18.522,11.528 18.522,10.854 18.837 C 10.715 18.902,9.945 19.344,9.143 19.818 C 8.340 20.293,7.552 20.752,7.392 20.837 C 6.778 21.166,6.202 21.248,5.979 21.039 C 5.769 20.842,5.706 20.320,5.817 19.700 C 5.849 19.524,6.042 18.669,6.245 17.800 C 6.591 16.326,6.616 16.192,6.615 15.800 C 6.613 15.293,6.514 14.897,6.271 14.422 C 6.117 14.122,6.005 13.998,4.619 12.600 C 3.801 11.775,3.079 11.019,3.013 10.920 C 2.647 10.367,2.678 9.951,3.108 9.679 C 3.454 9.460,3.714 9.397,5.530 9.097 C 6.514 8.934,7.432 8.763,7.570 8.717 C 8.102 8.540,8.703 8.077,9.015 7.607 C 9.112 7.460,9.623 6.476,10.151 5.419 C 11.160 3.400,11.320 3.137,11.655 2.941 C 11.991 2.744,12.260 2.819,12.627 3.213 C 12.857 3.458,12.951 3.630,13.920 5.561 C 14.911 7.536,14.978 7.658,15.225 7.920 C 15.368 8.071,15.562 8.233,15.655 8.278 C 16.289 8.584,16.941 7.939,16.644 7.300 C 16.603 7.212,16.494 7.068,16.401 6.980 C 16.263 6.848,16.066 6.487,15.280 4.920 C 14.756 3.875,14.234 2.878,14.121 2.705 C 13.477 1.719,12.608 1.233,11.720 1.362 " stroke="none" fill-rule="evenodd" fill="black"></path></svg>