<svg width="24" height="24" viewBox="0 0 24 24" fill="none" xmlns="http://www.w3.org/2000/svg"><path d="M21.900 1.259 C 21.878 1.267,21.806 1.285,21.740 1.299 C 21.650 1.319,20.942 2.002,18.911 4.031 C 17.422 5.519,16.195 6.728,16.186 6.718 C 16.176 6.708,15.751 5.863,15.240 4.840 C 14.071 2.500,13.912 2.248,13.341 1.826 C 12.886 1.489,12.521 1.355,12.049 1.350 C 11.376 1.343,10.831 1.598,10.292 2.170 C 9.942 2.542,9.708 2.950,8.720 4.920 C 7.776 6.802,7.765 6.822,7.506 7.066 C 7.216 7.340,7.133 7.531,7.178 7.818 C 7.254 8.303,7.802 8.584,8.236 8.362 C 8.469 8.243,8.817 7.905,9.014 7.607 C 9.111 7.460,9.625 6.471,10.157 5.409 C 11.051 3.625,11.143 3.459,11.372 3.213 C 11.741 2.819,12.009 2.744,12.345 2.941 C 12.680 3.137,12.838 3.397,13.880 5.478 C 14.426 6.568,14.916 7.523,14.968 7.600 C 15.021 7.677,15.075 7.759,15.089 7.782 C 15.104 7.806,13.210 9.730,10.867 12.073 L 6.619 16.321 6.617 15.850 C 6.615 15.290,6.524 14.916,6.271 14.422 C 6.117 14.122,6.005 13.998,4.619 12.600 C 3.801 11.775,3.079 11.019,3.013 10.920 C 2.767 10.550,2.697 10.198,2.820 9.960 C 2.942 9.724,3.317 9.515,3.865 9.380 C 4.300 9.272,4.442 9.183,4.557 8.947 C 4.786 8.474,4.491 7.931,3.983 7.889 C 3.623 7.859,2.916 8.059,2.460 8.320 C 1.968 8.602,1.603 8.999,1.407 9.466 C 1.298 9.728,1.241 10.230,1.285 10.551 C 1.304 10.688,1.373 10.940,1.439 11.111 C 1.673 11.718,1.864 11.949,3.442 13.540 C 4.250 14.354,4.940 15.078,4.976 15.148 C 5.011 15.219,5.067 15.393,5.100 15.534 C 5.170 15.835,5.180 15.771,4.839 17.261 L 4.592 18.340 2.980 19.960 C 2.094 20.851,1.346 21.625,1.318 21.680 C 1.290 21.735,1.267 21.881,1.267 22.004 C 1.267 22.498,1.681 22.816,2.189 22.712 C 2.376 22.674,2.592 22.460,12.490 12.566 C 18.342 6.717,22.628 2.403,22.665 2.324 C 22.816 2.006,22.705 1.590,22.416 1.393 C 22.274 1.295,21.999 1.224,21.900 1.259 M19.780 7.943 C 19.600 8.037,19.516 8.123,19.435 8.300 C 19.338 8.511,19.341 8.736,19.443 8.947 C 19.557 9.182,19.699 9.272,20.132 9.380 C 20.573 9.491,20.726 9.554,20.949 9.716 C 21.177 9.882,21.253 10.040,21.232 10.302 C 21.195 10.744,21.109 10.852,19.439 12.540 C 18.001 13.994,17.884 14.122,17.730 14.422 C 17.486 14.896,17.387 15.292,17.385 15.800 C 17.384 16.192,17.409 16.329,17.771 17.880 C 18.231 19.855,18.256 19.997,18.230 20.419 C 18.186 21.126,17.873 21.307,17.127 21.058 C 16.747 20.931,16.641 20.873,14.849 19.813 C 14.052 19.341,13.285 18.902,13.146 18.837 C 12.471 18.521,11.527 18.522,10.849 18.839 C 10.707 18.906,9.898 19.370,9.050 19.870 C 7.344 20.878,7.322 20.896,7.289 21.295 C 7.267 21.554,7.371 21.783,7.583 21.945 C 7.755 22.076,8.088 22.119,8.288 22.037 C 8.359 22.007,9.107 21.574,9.951 21.074 C 11.488 20.164,11.663 20.080,12.013 20.080 C 12.326 20.080,12.574 20.202,14.110 21.112 C 14.972 21.622,15.818 22.111,15.992 22.198 C 17.082 22.748,18.133 22.794,18.815 22.323 C 19.424 21.902,19.720 21.229,19.720 20.267 C 19.720 19.740,19.646 19.323,19.241 17.580 C 18.810 15.726,18.829 15.840,18.900 15.534 C 18.933 15.393,18.989 15.219,19.024 15.148 C 19.060 15.078,19.741 14.363,20.537 13.560 C 21.333 12.757,22.049 12.010,22.128 11.900 C 22.543 11.320,22.730 10.804,22.729 10.240 C 22.727 9.270,22.131 8.502,21.070 8.102 C 20.498 7.887,20.004 7.826,19.780 7.943 " stroke="none" fill-rule="evenodd" fill="black"></path></svg>