<svg width="24" height="24" viewBox="0 0 24 24" fill="none" xmlns="http://www.w3.org/2000/svg"><path d="M13.516 3.378 C 13.059 3.504,12.575 3.888,12.239 4.389 C 12.127 4.557,11.686 5.390,11.260 6.242 C 10.455 7.847,10.397 7.938,10.091 8.066 C 10.020 8.096,9.318 8.228,8.530 8.359 C 7.062 8.605,6.686 8.699,6.301 8.920 C 5.322 9.480,5.009 10.540,5.521 11.560 C 5.725 11.966,6.008 12.294,7.142 13.440 C 8.338 14.647,8.359 14.675,8.360 15.047 C 8.360 15.128,8.226 15.773,8.062 16.481 C 7.708 18.007,7.663 18.284,7.689 18.794 C 7.714 19.264,7.794 19.549,7.997 19.885 C 8.505 20.727,9.589 20.916,10.744 20.364 C 10.923 20.279,11.652 19.860,12.364 19.434 L 13.660 18.660 14.000 18.660 L 14.340 18.660 15.600 19.416 C 17.355 20.468,17.693 20.620,18.382 20.668 C 19.539 20.748,20.321 19.927,20.320 18.632 C 20.320 18.449,20.301 18.183,20.278 18.040 C 20.205 17.586,19.643 15.187,19.571 15.024 C 19.436 14.718,19.021 14.534,18.702 14.639 C 18.419 14.733,18.163 15.053,18.161 15.317 C 18.160 15.370,18.305 16.045,18.483 16.817 C 18.822 18.289,18.879 18.669,18.803 18.949 C 18.746 19.161,18.650 19.216,18.405 19.180 C 18.085 19.134,17.738 18.957,16.400 18.159 C 15.685 17.733,15.001 17.344,14.880 17.295 C 14.376 17.090,13.625 17.089,13.126 17.292 C 13.001 17.343,12.297 17.743,11.560 18.181 C 10.191 18.994,9.900 19.142,9.589 19.185 C 9.353 19.217,9.253 19.158,9.197 18.949 C 9.120 18.666,9.178 18.282,9.522 16.800 C 9.886 15.232,9.917 14.952,9.782 14.440 C 9.622 13.831,9.573 13.767,8.222 12.400 C 6.938 11.101,6.760 10.880,6.760 10.588 C 6.760 10.428,6.965 10.233,7.240 10.131 C 7.361 10.086,8.121 9.939,8.930 9.805 C 9.738 9.670,10.476 9.529,10.570 9.492 C 10.891 9.365,11.216 9.147,11.483 8.880 C 11.741 8.621,11.776 8.560,12.597 6.924 C 13.444 5.237,13.595 4.987,13.850 4.855 C 14.028 4.763,14.172 4.818,14.397 5.064 C 14.559 5.242,14.755 5.597,15.437 6.952 C 15.997 8.064,16.331 8.683,16.441 8.809 C 16.620 9.016,17.160 9.390,17.432 9.494 C 17.526 9.531,18.264 9.670,19.072 9.805 C 19.879 9.939,20.636 10.085,20.753 10.128 C 21.060 10.243,21.240 10.413,21.240 10.586 C 21.240 10.766,21.115 11.009,20.882 11.280 C 20.630 11.573,20.589 11.659,20.586 11.900 C 20.577 12.471,21.202 12.834,21.696 12.544 C 22.004 12.363,22.460 11.720,22.628 11.228 C 22.739 10.903,22.762 10.426,22.681 10.119 C 22.561 9.666,22.172 9.189,21.710 8.927 C 21.301 8.696,20.958 8.609,19.472 8.360 C 17.940 8.103,17.766 8.054,17.577 7.830 C 17.520 7.761,17.131 7.020,16.712 6.183 C 16.294 5.345,15.873 4.542,15.778 4.399 C 15.460 3.918,15.001 3.549,14.528 3.393 C 14.271 3.308,13.795 3.301,13.516 3.378 M1.815 4.278 C 1.331 4.393,1.098 5.004,1.383 5.408 C 1.448 5.499,1.572 5.610,1.660 5.656 C 1.818 5.739,1.865 5.740,4.878 5.751 C 7.020 5.759,8.000 5.749,8.151 5.718 C 8.902 5.562,8.931 4.473,8.189 4.286 C 7.979 4.234,2.033 4.226,1.815 4.278 M1.815 11.278 C 1.331 11.393,1.098 12.004,1.383 12.408 C 1.576 12.681,1.733 12.736,2.363 12.754 C 3.073 12.773,3.316 12.724,3.519 12.521 C 3.918 12.122,3.731 11.423,3.189 11.286 C 2.988 11.236,2.016 11.230,1.815 11.278 M1.815 18.278 C 1.331 18.393,1.098 19.004,1.383 19.408 C 1.448 19.499,1.572 19.610,1.660 19.656 C 1.813 19.736,1.888 19.741,3.373 19.752 C 5.166 19.766,5.287 19.753,5.519 19.521 C 5.918 19.122,5.731 18.423,5.189 18.286 C 4.981 18.234,2.029 18.227,1.815 18.278 " stroke="none" fill-rule="evenodd" fill="black"></path></svg>