<svg width="24" height="24" viewBox="0 0 24 24" fill="none" xmlns="http://www.w3.org/2000/svg"><path d="M11.300 1.280 C 6.279 1.595,2.153 5.378,1.379 10.376 C 1.289 10.954,1.310 11.227,1.458 11.420 C 1.674 11.705,2.062 11.794,2.390 11.635 C 2.666 11.501,2.744 11.344,2.838 10.726 C 3.002 9.650,3.234 8.892,3.680 7.970 C 4.595 6.079,6.079 4.595,7.970 3.680 C 9.272 3.050,10.541 2.760,12.000 2.760 C 13.478 2.760,14.734 3.050,16.066 3.700 C 18.856 5.060,20.740 7.683,21.179 10.818 C 21.251 11.334,21.341 11.505,21.610 11.635 C 22.096 11.870,22.634 11.570,22.672 11.042 C 22.716 10.435,22.380 9.006,21.937 7.913 C 20.867 5.272,18.659 3.084,16.000 2.027 C 14.514 1.437,12.894 1.180,11.300 1.280 M2.140 14.287 C 2.013 14.357,1.838 14.531,1.776 14.648 C 1.649 14.892,1.736 15.305,2.100 16.180 C 2.642 17.483,3.444 18.651,4.505 19.681 C 5.478 20.626,6.504 21.325,7.675 21.838 C 8.418 22.164,9.626 22.520,9.992 22.520 C 10.535 22.520,10.878 21.952,10.637 21.453 C 10.591 21.358,10.500 21.243,10.436 21.197 C 10.371 21.151,10.051 21.044,9.725 20.959 C 8.078 20.529,6.801 19.817,5.604 18.661 C 4.741 17.827,4.201 17.091,3.698 16.060 C 3.537 15.730,3.341 15.274,3.263 15.046 C 3.096 14.562,3.009 14.427,2.798 14.319 C 2.626 14.231,2.272 14.214,2.140 14.287 M21.199 14.370 C 20.985 14.478,20.875 14.634,20.758 14.992 C 20.710 15.139,20.606 15.411,20.528 15.596 C 19.380 18.303,16.990 20.326,14.142 21.002 C 13.666 21.115,13.506 21.201,13.382 21.413 C 13.184 21.751,13.282 22.216,13.591 22.407 C 13.834 22.557,13.980 22.565,14.457 22.458 C 15.656 22.188,16.854 21.674,17.890 20.986 C 19.897 19.653,21.398 17.733,22.144 15.542 C 22.298 15.091,22.310 14.929,22.205 14.700 C 22.117 14.510,22.028 14.424,21.830 14.342 C 21.623 14.255,21.407 14.265,21.199 14.370 " stroke="none" fill-rule="evenodd" fill="black"></path></svg>