<svg width="24" height="24" viewBox="0 0 24 24" fill="none" xmlns="http://www.w3.org/2000/svg"><path d="M8.080 1.282 C 4.042 1.493,1.931 3.265,1.398 6.891 C 1.310 7.494,1.225 8.895,1.264 9.113 C 1.278 9.194,1.325 9.318,1.368 9.389 C 1.658 9.870,2.422 9.836,2.661 9.332 C 2.718 9.212,2.740 9.022,2.765 8.423 C 2.900 5.187,3.905 3.654,6.288 3.044 C 7.337 2.776,7.247 2.780,12.000 2.780 C 15.936 2.780,16.339 2.786,16.760 2.852 C 19.558 3.288,20.712 4.442,21.148 7.240 C 21.214 7.661,21.220 8.064,21.220 12.000 C 21.220 15.936,21.214 16.339,21.148 16.760 C 20.712 19.558,19.558 20.712,16.760 21.148 C 16.339 21.214,15.936 21.220,12.000 21.220 C 8.064 21.220,7.661 21.214,7.240 21.148 C 4.756 20.761,3.576 19.795,3.044 17.712 C 2.820 16.833,2.790 16.496,2.764 14.560 L 2.740 12.780 2.640 12.606 C 2.359 12.114,1.641 12.114,1.360 12.606 C 1.261 12.777,1.260 12.795,1.247 13.840 C 1.224 15.669,1.334 17.076,1.575 18.027 C 2.267 20.757,3.971 22.193,7.027 22.622 C 7.786 22.728,8.902 22.759,12.000 22.759 C 15.098 22.759,16.214 22.728,16.973 22.622 C 19.443 22.275,20.996 21.288,21.897 19.490 C 22.379 18.530,22.638 17.369,22.720 15.807 C 22.771 14.838,22.771 9.162,22.720 8.193 C 22.657 6.998,22.521 6.191,22.242 5.356 C 21.632 3.531,20.469 2.367,18.650 1.760 C 17.788 1.473,17.023 1.344,15.806 1.280 C 14.952 1.235,8.952 1.237,8.080 1.282 M15.480 5.117 C 14.123 5.137,13.925 5.148,13.814 5.209 C 13.549 5.354,13.409 5.656,13.458 5.981 C 13.481 6.134,13.522 6.206,13.675 6.358 C 13.792 6.475,13.913 6.557,13.996 6.573 C 14.070 6.588,14.429 6.600,14.794 6.600 L 15.458 6.600 15.119 6.944 C 13.896 8.184,12.333 9.329,10.701 10.182 C 9.473 10.824,8.560 11.176,6.812 11.679 C 6.352 11.812,6.149 12.038,6.149 12.419 C 6.149 12.846,6.453 13.160,6.867 13.160 C 7.081 13.160,7.981 12.915,8.767 12.643 C 11.373 11.742,13.890 10.205,15.858 8.314 L 16.351 7.840 16.367 8.410 C 16.385 9.014,16.415 9.129,16.607 9.308 C 16.732 9.425,16.967 9.520,17.129 9.519 C 17.412 9.517,17.758 9.265,17.830 9.007 C 17.847 8.948,17.860 8.159,17.860 7.253 L 17.860 5.607 17.740 5.437 C 17.602 5.242,17.410 5.130,17.180 5.109 C 17.092 5.101,16.327 5.105,15.480 5.117 M16.739 11.297 C 16.649 11.351,16.535 11.470,16.479 11.567 L 16.380 11.740 16.380 15.040 L 16.380 18.340 16.486 18.520 C 16.772 19.006,17.468 19.006,17.754 18.520 L 17.860 18.340 17.860 15.040 L 17.860 11.740 17.754 11.560 C 17.547 11.208,17.087 11.089,16.739 11.297 M11.619 13.377 C 11.529 13.431,11.415 13.550,11.359 13.647 L 11.260 13.820 11.260 16.080 L 11.260 18.340 11.366 18.520 C 11.652 19.006,12.348 19.006,12.634 18.520 L 12.740 18.340 12.740 16.080 L 12.740 13.820 12.634 13.640 C 12.427 13.288,11.967 13.169,11.619 13.377 M6.687 15.367 C 6.572 15.393,6.462 15.458,6.361 15.559 C 6.135 15.785,6.112 15.953,6.127 17.250 C 6.140 18.327,6.141 18.342,6.240 18.514 C 6.521 19.006,7.239 19.006,7.520 18.514 L 7.620 18.340 7.620 17.100 C 7.620 15.865,7.620 15.859,7.525 15.707 C 7.345 15.418,7.031 15.291,6.687 15.367 " stroke="none" fill-rule="evenodd" fill="black"></path></svg>