<svg width="24" height="24" viewBox="0 0 24 24" fill="none" xmlns="http://www.w3.org/2000/svg"><path d="M11.280 1.278 C 9.373 1.408,7.607 2.002,6.055 3.036 C 3.474 4.755,1.814 7.357,1.332 10.440 C 1.276 10.799,1.260 11.138,1.260 11.980 C 1.260 13.076,1.280 13.311,1.445 14.160 C 1.965 16.839,3.594 19.286,5.920 20.884 C 7.254 21.801,8.782 22.396,10.422 22.637 C 11.271 22.762,12.687 22.763,13.334 22.639 C 13.825 22.545,14.406 22.271,14.860 21.919 C 14.970 21.833,16.593 20.228,18.466 18.352 C 22.128 14.684,22.112 14.701,22.411 13.988 C 22.630 13.466,22.693 13.014,22.694 11.980 C 22.694 11.357,22.674 10.954,22.625 10.600 C 22.534 9.954,22.507 9.874,22.320 9.705 C 21.978 9.396,21.539 9.430,21.244 9.788 C 21.074 9.994,21.060 10.122,21.134 10.774 C 21.170 11.085,21.204 11.507,21.210 11.710 C 21.219 12.049,21.201 12.139,21.143 12.044 C 21.100 11.975,20.294 11.648,19.860 11.523 C 19.618 11.454,19.249 11.368,19.040 11.333 C 18.567 11.253,17.512 11.244,17.020 11.315 C 14.775 11.640,12.820 13.089,11.858 15.140 C 11.014 16.939,11.015 19.059,11.861 20.869 L 12.035 21.240 11.659 21.240 C 11.238 21.240,10.555 21.159,9.995 21.042 C 7.670 20.557,5.521 19.069,4.192 17.023 C 2.823 14.915,2.374 12.170,2.999 9.724 C 3.654 7.160,5.415 4.955,7.760 3.764 C 9.105 3.080,10.445 2.760,11.960 2.760 C 14.519 2.760,16.727 3.684,18.569 5.527 C 19.018 5.976,19.150 6.085,19.288 6.122 C 19.917 6.291,20.430 5.683,20.160 5.089 C 20.062 4.871,19.242 4.045,18.692 3.609 C 16.566 1.925,13.935 1.098,11.280 1.278 M18.667 12.803 C 19.464 12.911,20.220 13.196,20.875 13.634 C 20.919 13.664,20.907 13.705,20.808 13.845 C 20.628 14.103,13.837 20.866,13.724 20.900 C 13.598 20.938,13.540 20.863,13.263 20.300 C 12.885 19.532,12.746 18.928,12.745 18.040 C 12.743 17.151,12.879 16.527,13.241 15.767 C 13.848 14.493,14.822 13.601,16.180 13.076 C 16.879 12.805,17.880 12.695,18.667 12.803 " stroke="none" fill-rule="evenodd" fill="black"></path></svg>