<svg width="24" height="24" viewBox="0 0 24 24" fill="none" xmlns="http://www.w3.org/2000/svg"><path d="M11.560 1.267 C 10.326 1.322,9.152 1.571,8.041 2.012 C 7.427 2.256,7.240 2.454,7.240 2.860 C 7.240 3.229,7.525 3.548,7.892 3.589 C 8.032 3.605,8.152 3.574,8.523 3.428 C 9.718 2.955,10.735 2.760,12.006 2.760 C 13.464 2.760,14.754 3.058,16.060 3.698 C 17.024 4.170,17.648 4.611,18.434 5.378 C 19.273 6.195,19.814 6.937,20.303 7.940 C 20.944 9.253,21.240 10.537,21.240 12.000 C 21.240 13.465,20.943 14.752,20.302 16.060 C 19.830 17.024,19.389 17.648,18.622 18.434 C 17.805 19.273,17.063 19.814,16.060 20.303 C 14.747 20.944,13.463 21.240,12.000 21.240 C 10.537 21.240,9.253 20.944,7.940 20.303 C 6.937 19.814,6.195 19.273,5.378 18.434 C 4.611 17.648,4.170 17.024,3.698 16.060 C 3.058 14.754,2.760 13.464,2.760 12.005 C 2.760 10.060,3.331 8.256,4.457 6.648 C 4.701 6.298,4.770 6.095,4.724 5.855 C 4.656 5.497,4.372 5.267,4.000 5.267 C 3.678 5.267,3.534 5.369,3.222 5.816 C 1.432 8.383,0.834 11.537,1.564 14.550 C 1.904 15.951,2.529 17.268,3.424 18.470 C 3.880 19.083,4.909 20.111,5.530 20.575 C 7.606 22.126,10.070 22.870,12.627 22.717 C 14.790 22.588,16.724 21.879,18.470 20.575 C 19.087 20.115,20.115 19.087,20.575 18.470 C 22.127 16.391,22.870 13.930,22.717 11.373 C 22.588 9.210,21.879 7.276,20.575 5.530 C 20.115 4.913,19.087 3.885,18.470 3.425 C 17.047 2.362,15.454 1.679,13.742 1.398 C 13.325 1.330,12.055 1.227,11.880 1.248 C 11.847 1.252,11.703 1.261,11.560 1.267 M10.000 7.060 C 9.967 7.067,9.805 7.095,9.640 7.122 C 8.246 7.348,7.401 8.184,7.116 9.620 C 7.035 10.025,7.035 13.975,7.116 14.380 C 7.356 15.587,7.984 16.365,9.004 16.718 C 9.569 16.914,9.711 16.929,11.175 16.948 C 11.942 16.959,12.631 16.956,12.706 16.942 C 12.873 16.910,13.114 16.705,13.186 16.532 C 13.295 16.270,13.236 15.923,13.045 15.706 C 12.871 15.508,12.826 15.502,11.340 15.475 C 10.192 15.455,9.897 15.438,9.702 15.382 C 9.065 15.199,8.797 14.927,8.613 14.277 C 8.547 14.044,8.540 13.834,8.540 12.000 C 8.540 10.166,8.547 9.956,8.613 9.723 C 8.799 9.066,9.066 8.799,9.722 8.613 C 9.956 8.547,10.165 8.540,12.000 8.540 C 13.834 8.540,14.044 8.547,14.277 8.613 C 14.810 8.764,15.077 8.968,15.256 9.360 C 15.447 9.779,15.480 10.145,15.480 11.847 C 15.480 13.490,15.488 13.570,15.672 13.773 C 15.858 13.980,16.259 14.060,16.532 13.946 C 16.704 13.874,16.910 13.634,16.941 13.469 C 16.955 13.395,16.960 12.544,16.952 11.578 C 16.935 9.541,16.916 9.397,16.553 8.645 C 16.389 8.303,16.302 8.178,16.062 7.938 C 15.822 7.698,15.697 7.611,15.355 7.447 C 15.123 7.335,14.772 7.206,14.560 7.154 C 14.190 7.063,14.126 7.061,12.120 7.054 C 10.987 7.050,10.033 7.053,10.000 7.060 " stroke="none" fill-rule="evenodd" fill="black"></path></svg>