<svg width="24" height="24" viewBox="0 0 24 24" fill="none" xmlns="http://www.w3.org/2000/svg"><path d="M8.417 2.280 C 7.762 2.320,7.103 2.414,6.560 2.547 C 3.723 3.238,2.331 5.293,2.270 8.880 C 2.259 9.558,2.277 9.630,2.506 9.847 C 2.783 10.109,3.217 10.109,3.494 9.847 C 3.707 9.646,3.730 9.554,3.766 8.762 C 3.825 7.486,4.000 6.665,4.378 5.900 C 4.746 5.155,5.155 4.746,5.900 4.378 C 6.401 4.131,6.842 3.995,7.560 3.868 C 8.053 3.781,8.114 3.780,12.000 3.780 C 15.886 3.780,15.947 3.781,16.440 3.868 C 17.158 3.995,17.599 4.131,18.100 4.378 C 18.845 4.746,19.254 5.155,19.622 5.900 C 19.869 6.401,20.005 6.842,20.132 7.560 C 20.219 8.053,20.220 8.114,20.220 12.000 C 20.220 15.886,20.219 15.947,20.132 16.440 C 20.005 17.158,19.869 17.599,19.622 18.100 C 19.254 18.845,18.845 19.254,18.100 19.622 C 17.599 19.869,17.158 20.005,16.440 20.132 C 15.947 20.219,15.886 20.220,12.000 20.220 C 8.114 20.220,8.053 20.219,7.560 20.132 C 6.842 20.005,6.401 19.869,5.900 19.622 C 5.155 19.254,4.746 18.845,4.378 18.100 C 3.952 17.238,3.809 16.483,3.765 14.880 C 3.734 13.705,3.724 13.648,3.513 13.452 C 3.391 13.337,3.155 13.240,3.000 13.240 C 2.745 13.240,2.460 13.418,2.326 13.660 C 2.269 13.763,2.261 13.913,2.267 14.740 C 2.277 16.127,2.405 17.078,2.702 17.988 C 3.325 19.893,4.712 21.078,6.830 21.516 C 7.878 21.733,8.015 21.739,12.000 21.739 C 15.985 21.739,16.122 21.733,17.170 21.516 C 18.283 21.286,19.255 20.816,19.972 20.160 C 20.679 19.514,21.267 18.376,21.516 17.170 C 21.733 16.122,21.739 15.985,21.739 12.000 C 21.739 8.015,21.733 7.878,21.516 6.830 C 21.019 4.426,19.574 2.981,17.170 2.484 C 16.178 2.279,16.010 2.271,12.360 2.259 C 10.479 2.253,8.705 2.263,8.417 2.280 " stroke="none" fill-rule="evenodd" fill="black"></path></svg>