<svg width="24" height="24" viewBox="0 0 24 24" fill="none" xmlns="http://www.w3.org/2000/svg"><path d="M11.280 1.640 C 9.250 1.770,7.253 2.510,5.559 3.761 C 5.236 4.000,5.120 4.192,5.120 4.485 C 5.121 4.834,5.330 5.106,5.669 5.197 C 5.923 5.265,6.109 5.201,6.547 4.895 C 6.762 4.744,7.083 4.532,7.259 4.425 C 9.225 3.233,11.608 2.836,13.920 3.315 C 14.915 3.521,16.261 4.093,17.080 4.657 C 17.746 5.115,17.796 5.140,18.041 5.139 C 18.313 5.137,18.494 5.041,18.655 4.811 C 18.807 4.594,18.817 4.292,18.679 4.047 C 18.581 3.872,18.067 3.488,17.400 3.091 C 15.598 2.019,13.424 1.504,11.280 1.640 M11.466 5.403 C 9.798 5.522,8.190 6.267,7.025 7.458 C 5.970 8.537,5.312 9.862,5.077 11.380 C 5.011 11.801,5.011 12.887,5.076 13.340 C 5.613 17.082,9.009 19.727,12.752 19.317 C 17.426 18.806,20.269 13.928,18.416 9.600 C 18.190 9.074,17.941 8.647,17.575 8.160 C 17.162 7.610,16.838 7.293,16.631 7.238 C 16.139 7.105,15.680 7.456,15.680 7.963 C 15.680 8.186,15.756 8.327,16.062 8.669 C 16.428 9.078,16.622 9.359,16.879 9.852 C 18.098 12.190,17.468 15.070,15.380 16.699 C 12.953 18.594,9.454 18.127,7.595 15.660 C 6.681 14.447,6.320 12.869,6.600 11.318 C 6.726 10.624,7.129 9.708,7.574 9.106 C 8.075 8.429,8.853 7.787,9.615 7.422 C 10.420 7.036,10.941 6.921,12.000 6.893 C 12.768 6.874,12.830 6.866,12.984 6.778 C 13.178 6.666,13.261 6.552,13.322 6.310 C 13.411 5.955,13.167 5.535,12.820 5.448 C 12.582 5.388,11.958 5.367,11.466 5.403 M1.740 10.473 C 1.436 10.667,1.377 10.799,1.315 11.431 C 1.214 12.461,1.320 13.914,1.573 14.963 C 2.190 17.522,3.814 19.829,6.040 21.313 C 6.546 21.650,7.680 22.241,8.008 22.339 C 8.418 22.461,8.777 22.295,8.938 21.911 C 9.019 21.716,9.015 21.537,8.924 21.340 C 8.818 21.110,8.709 21.026,8.253 20.824 C 7.161 20.340,6.323 19.763,5.459 18.900 C 3.522 16.968,2.567 14.344,2.798 11.590 C 2.846 11.013,2.845 10.996,2.760 10.819 C 2.625 10.541,2.445 10.425,2.124 10.409 C 1.916 10.399,1.834 10.412,1.740 10.473 M21.550 10.483 C 21.467 10.526,21.350 10.637,21.290 10.728 C 21.183 10.890,21.181 10.908,21.200 11.317 C 21.295 13.324,21.129 14.480,20.537 15.920 C 20.080 17.035,19.413 18.031,18.541 18.900 C 17.677 19.763,16.839 20.340,15.747 20.824 C 15.291 21.026,15.182 21.110,15.076 21.340 C 14.869 21.787,15.141 22.284,15.642 22.375 C 15.847 22.412,16.096 22.325,16.822 21.965 C 18.524 21.119,19.853 19.947,20.919 18.351 C 21.820 17.003,22.344 15.671,22.606 14.063 C 22.752 13.169,22.746 11.247,22.597 10.851 C 22.545 10.714,22.376 10.532,22.232 10.456 C 22.076 10.375,21.729 10.388,21.550 10.483 " stroke="none" fill-rule="evenodd" fill="black"></path></svg>