<svg width="24" height="24" viewBox="0 0 24 24" fill="none" xmlns="http://www.w3.org/2000/svg"><path d="M8.080 1.282 C 4.041 1.493,1.932 3.264,1.398 6.893 C 1.291 7.617,1.231 8.906,1.247 10.100 C 1.260 11.080,1.262 11.103,1.360 11.274 C 1.418 11.375,1.528 11.488,1.623 11.544 L 1.787 11.640 5.424 11.640 L 9.060 11.640 9.194 11.920 C 9.347 12.237,9.640 12.641,9.855 12.830 L 10.000 12.958 10.001 13.849 C 10.002 15.150,10.085 15.443,10.599 15.963 C 11.063 16.431,11.657 16.628,12.305 16.527 C 13.123 16.400,13.811 15.740,13.957 14.943 C 13.980 14.812,14.000 14.313,14.000 13.833 L 14.000 12.962 14.182 12.794 C 14.378 12.614,14.739 12.088,14.859 11.810 L 14.932 11.640 16.573 11.640 L 18.213 11.640 18.377 11.544 C 18.787 11.304,18.858 10.694,18.513 10.372 C 18.293 10.166,18.235 10.160,16.601 10.160 L 15.080 10.160 15.080 10.060 C 15.080 10.006,15.026 9.793,14.960 9.587 C 14.639 8.585,13.834 7.835,12.780 7.557 C 12.354 7.445,11.657 7.436,11.260 7.537 C 10.366 7.766,9.597 8.383,9.198 9.192 C 9.066 9.458,8.920 9.920,8.920 10.070 L 8.920 10.160 5.835 10.160 L 2.750 10.160 2.771 8.890 C 2.785 8.004,2.811 7.493,2.857 7.200 C 3.286 4.453,4.463 3.281,7.220 2.854 C 7.665 2.785,8.011 2.780,12.000 2.780 C 15.936 2.780,16.339 2.786,16.760 2.852 C 19.558 3.288,20.712 4.442,21.148 7.240 C 21.214 7.661,21.220 8.064,21.220 12.000 C 21.220 15.936,21.214 16.339,21.148 16.760 C 20.712 19.558,19.558 20.712,16.760 21.148 C 16.339 21.214,15.936 21.220,12.000 21.220 C 7.255 21.220,7.378 21.226,6.312 20.960 C 3.916 20.363,2.900 18.821,2.765 15.577 C 2.730 14.739,2.692 14.593,2.464 14.421 C 2.004 14.073,1.364 14.322,1.264 14.887 C 1.225 15.105,1.310 16.506,1.398 17.109 C 1.883 20.414,3.655 22.149,7.027 22.622 C 7.786 22.728,8.902 22.759,12.000 22.759 C 15.098 22.759,16.214 22.728,16.973 22.622 C 19.443 22.275,20.996 21.288,21.897 19.490 C 22.379 18.530,22.638 17.369,22.720 15.807 C 22.771 14.838,22.771 9.162,22.720 8.193 C 22.657 6.998,22.521 6.191,22.242 5.356 C 21.632 3.531,20.469 2.367,18.650 1.760 C 17.788 1.473,17.023 1.344,15.806 1.280 C 14.952 1.235,8.952 1.237,8.080 1.282 M12.460 9.008 C 13.202 9.191,13.726 10.005,13.605 10.784 C 13.524 11.305,13.272 11.676,12.792 11.985 L 12.524 12.157 12.512 13.430 C 12.499 14.818,12.497 14.828,12.258 14.985 C 12.120 15.075,11.859 15.069,11.727 14.973 C 11.490 14.799,11.480 14.738,11.480 13.390 L 11.480 12.159 11.210 11.984 C 10.704 11.657,10.477 11.324,10.394 10.789 C 10.312 10.262,10.457 9.820,10.838 9.437 C 11.275 8.999,11.831 8.852,12.460 9.008 " stroke="none" fill-rule="evenodd" fill="black"></path></svg>