<svg width="24" height="24" viewBox="0 0 24 24" fill="none" xmlns="http://www.w3.org/2000/svg"><path d="M8.080 1.282 C 4.042 1.493,1.931 3.265,1.398 6.891 C 1.310 7.494,1.225 8.895,1.264 9.113 C 1.278 9.194,1.325 9.318,1.368 9.389 C 1.658 9.870,2.422 9.836,2.661 9.332 C 2.718 9.212,2.740 9.022,2.765 8.423 C 2.900 5.187,3.905 3.654,6.288 3.044 C 7.337 2.776,7.247 2.780,12.000 2.780 C 15.936 2.780,16.339 2.786,16.760 2.852 C 19.558 3.288,20.712 4.442,21.148 7.240 C 21.214 7.661,21.220 8.064,21.220 12.000 C 21.220 15.936,21.214 16.339,21.148 16.760 C 20.712 19.558,19.558 20.712,16.760 21.148 C 16.339 21.214,15.936 21.220,12.000 21.220 C 8.064 21.220,7.661 21.214,7.240 21.148 C 4.756 20.761,3.576 19.795,3.044 17.712 C 2.820 16.833,2.790 16.496,2.764 14.560 C 2.738 12.635,2.741 12.665,2.513 12.452 C 2.391 12.337,2.155 12.240,2.000 12.240 C 1.745 12.240,1.460 12.418,1.326 12.660 C 1.180 12.925,1.229 15.959,1.398 17.107 C 1.885 20.415,3.654 22.148,7.027 22.622 C 7.786 22.728,8.902 22.759,12.000 22.759 C 15.098 22.759,16.214 22.728,16.973 22.622 C 19.443 22.275,20.996 21.288,21.897 19.490 C 22.379 18.530,22.638 17.369,22.720 15.807 C 22.771 14.838,22.771 9.162,22.720 8.193 C 22.657 6.998,22.521 6.191,22.242 5.356 C 21.632 3.531,20.469 2.367,18.650 1.760 C 17.788 1.473,17.023 1.344,15.806 1.280 C 14.952 1.235,8.952 1.237,8.080 1.282 M6.420 12.579 C 6.398 12.586,6.331 12.604,6.271 12.617 C 6.124 12.649,5.881 12.868,5.814 13.028 C 5.691 13.322,5.771 13.656,6.015 13.870 C 6.095 13.941,6.211 14.013,6.271 14.029 C 6.331 14.046,7.073 14.060,7.920 14.060 L 9.460 14.060 9.634 13.960 C 10.126 13.679,10.126 12.961,9.634 12.680 L 9.460 12.580 7.960 12.572 C 7.135 12.568,6.442 12.571,6.420 12.579 M11.814 12.598 C 11.156 12.758,11.023 13.627,11.606 13.960 L 11.780 14.060 14.700 14.060 C 16.306 14.060,17.669 14.046,17.729 14.029 C 17.881 13.987,18.121 13.767,18.186 13.612 C 18.297 13.347,18.241 13.031,18.047 12.826 C 17.801 12.566,17.989 12.581,14.820 12.573 C 13.236 12.570,11.883 12.581,11.814 12.598 M6.420 16.339 C 6.398 16.347,6.331 16.364,6.271 16.377 C 6.124 16.409,5.881 16.628,5.814 16.788 C 5.691 17.082,5.771 17.416,6.015 17.630 C 6.095 17.701,6.211 17.773,6.271 17.789 C 6.412 17.829,13.066 17.830,13.207 17.790 C 13.465 17.718,13.717 17.372,13.719 17.089 C 13.721 16.827,13.546 16.542,13.300 16.406 C 13.191 16.346,12.863 16.339,9.820 16.333 C 7.972 16.329,6.442 16.331,6.420 16.339 M15.494 16.357 C 14.835 16.522,14.703 17.387,15.286 17.720 C 15.460 17.820,15.462 17.820,16.540 17.820 C 17.134 17.820,17.669 17.806,17.729 17.789 C 17.881 17.747,18.121 17.527,18.186 17.372 C 18.297 17.107,18.241 16.791,18.047 16.586 C 17.819 16.345,17.794 16.341,16.660 16.333 C 16.088 16.329,15.563 16.339,15.494 16.357 " stroke="none" fill-rule="evenodd" fill="black"></path></svg>