<svg width="24" height="24" viewBox="0 0 24 24" fill="none" xmlns="http://www.w3.org/2000/svg"><path d="M11.673 1.063 C 11.296 1.179,11.000 1.609,11.000 2.040 C 11.000 2.482,11.296 2.902,11.690 3.019 C 11.947 3.095,12.053 3.095,12.310 3.019 C 13.012 2.811,13.232 1.838,12.697 1.303 C 12.418 1.024,12.067 0.942,11.673 1.063 M4.407 3.984 C 3.632 4.370,3.724 5.453,4.566 5.883 C 5.046 6.128,5.695 5.876,5.910 5.363 C 6.000 5.148,5.987 4.771,5.883 4.566 C 5.577 3.966,4.944 3.716,4.407 3.984 M18.693 3.980 C 18.290 4.183,18.030 4.577,18.030 4.981 C 18.030 5.563,18.438 5.970,19.022 5.970 C 19.428 5.970,19.824 5.704,20.023 5.297 C 20.114 5.112,20.127 5.041,20.114 4.806 C 20.083 4.263,19.728 3.913,19.184 3.888 C 18.941 3.877,18.870 3.890,18.693 3.980 M11.720 4.805 C 11.457 4.909,11.269 5.200,11.269 5.501 C 11.269 5.731,11.316 5.844,11.492 6.029 C 11.648 6.194,11.763 6.228,12.280 6.260 C 12.855 6.296,13.277 6.374,13.769 6.535 C 15.782 7.195,17.283 8.918,17.665 11.007 C 17.757 11.511,17.757 12.489,17.665 12.993 C 17.232 15.363,15.363 17.232,12.993 17.665 C 12.489 17.757,11.511 17.757,11.007 17.665 C 8.923 17.284,7.213 15.799,6.539 13.786 C 6.334 13.174,6.266 12.722,6.266 11.980 C 6.266 11.027,6.429 10.296,6.820 9.500 C 6.988 9.157,7.088 8.998,7.539 8.358 C 7.716 8.106,7.737 8.053,7.736 7.868 C 7.734 7.429,7.434 7.120,7.008 7.120 C 6.708 7.120,6.525 7.233,6.266 7.578 C 5.782 8.224,5.478 8.771,5.220 9.460 C 4.224 12.122,4.871 15.105,6.883 17.117 C 9.716 19.949,14.284 19.949,17.117 17.117 C 19.949 14.284,19.949 9.716,17.117 6.883 C 15.946 5.713,14.476 5.003,12.801 4.801 C 12.381 4.750,11.853 4.752,11.720 4.805 M1.673 11.063 C 1.312 11.174,1.000 11.609,1.000 12.000 C 1.000 12.536,1.483 13.000,2.040 13.000 C 2.482 13.000,2.902 12.704,3.019 12.310 C 3.095 12.053,3.095 11.947,3.019 11.690 C 2.863 11.162,2.261 10.882,1.673 11.063 M21.593 11.063 C 21.232 11.174,20.920 11.609,20.920 12.000 C 20.920 12.536,21.403 13.000,21.960 13.000 C 22.402 13.000,22.822 12.704,22.939 12.310 C 23.015 12.053,23.015 11.947,22.939 11.690 C 22.783 11.162,22.181 10.882,21.593 11.063 M4.796 18.037 C 4.466 18.102,4.102 18.409,3.950 18.753 C 3.832 19.019,3.863 19.406,4.022 19.664 C 4.196 19.946,4.454 20.094,4.806 20.114 C 5.041 20.127,5.112 20.114,5.297 20.023 C 6.019 19.670,6.202 18.770,5.652 18.275 C 5.427 18.072,5.093 17.980,4.796 18.037 M18.813 18.042 C 18.335 18.135,18.030 18.516,18.030 19.022 C 18.030 19.428,18.296 19.824,18.703 20.023 C 18.888 20.114,18.959 20.127,19.194 20.114 C 19.731 20.083,20.083 19.731,20.114 19.194 C 20.127 18.959,20.114 18.888,20.023 18.703 C 19.790 18.226,19.286 17.951,18.813 18.042 M11.673 20.983 C 11.296 21.099,11.000 21.529,11.000 21.960 C 11.000 22.402,11.296 22.822,11.690 22.939 C 11.947 23.015,12.053 23.015,12.310 22.939 C 13.012 22.731,13.232 21.758,12.697 21.223 C 12.418 20.944,12.067 20.862,11.673 20.983 " stroke="none" fill-rule="evenodd" fill="black"></path></svg>