<svg width="24" height="24" viewBox="0 0 24 24" fill="none" xmlns="http://www.w3.org/2000/svg"><path d="M11.673 1.063 C 11.296 1.179,11.000 1.609,11.000 2.040 C 11.000 2.482,11.296 2.902,11.690 3.019 C 11.947 3.095,12.053 3.095,12.310 3.019 C 13.012 2.811,13.232 1.838,12.697 1.303 C 12.418 1.024,12.067 0.942,11.673 1.063 M4.407 3.984 C 3.632 4.370,3.724 5.453,4.566 5.883 C 5.046 6.128,5.695 5.876,5.910 5.363 C 6.000 5.148,5.987 4.771,5.883 4.566 C 5.577 3.966,4.944 3.716,4.407 3.984 M18.693 3.980 C 18.290 4.183,18.030 4.577,18.030 4.981 C 18.030 5.563,18.438 5.970,19.022 5.970 C 19.428 5.970,19.824 5.704,20.023 5.297 C 20.114 5.112,20.127 5.041,20.114 4.806 C 20.083 4.263,19.728 3.913,19.184 3.888 C 18.941 3.877,18.870 3.890,18.693 3.980 M11.040 4.821 C 7.734 5.275,5.204 7.862,4.801 11.199 C 4.748 11.638,4.749 12.125,4.803 12.267 C 4.906 12.540,5.193 12.731,5.501 12.731 C 5.731 12.731,5.844 12.684,6.029 12.508 C 6.194 12.352,6.228 12.237,6.260 11.720 C 6.353 10.240,6.922 8.963,7.943 7.943 C 8.963 6.922,10.240 6.353,11.720 6.260 C 12.237 6.228,12.352 6.194,12.508 6.029 C 12.684 5.844,12.731 5.731,12.731 5.501 C 12.731 5.193,12.540 4.906,12.267 4.803 C 12.119 4.746,11.514 4.755,11.040 4.821 M15.134 5.842 C 15.042 5.888,14.917 5.998,14.854 6.089 C 14.759 6.226,14.740 6.293,14.741 6.497 C 14.742 6.823,14.827 6.955,15.210 7.224 C 16.099 7.848,16.689 8.528,17.154 9.462 C 17.499 10.157,17.693 10.884,17.740 11.660 C 17.775 12.238,17.790 12.306,17.928 12.463 C 18.096 12.655,18.260 12.731,18.500 12.731 C 18.740 12.731,18.904 12.655,19.072 12.463 C 19.231 12.282,19.257 12.130,19.226 11.563 C 19.100 9.269,17.790 7.038,15.902 5.903 C 15.620 5.733,15.391 5.715,15.134 5.842 M1.673 11.063 C 1.312 11.174,1.000 11.609,1.000 12.000 C 1.000 12.536,1.483 13.000,2.040 13.000 C 2.482 13.000,2.902 12.704,3.019 12.310 C 3.095 12.053,3.095 11.947,3.019 11.690 C 2.863 11.162,2.261 10.882,1.673 11.063 M21.593 11.063 C 21.232 11.174,20.920 11.609,20.920 12.000 C 20.920 12.536,21.403 13.000,21.960 13.000 C 22.402 13.000,22.822 12.704,22.939 12.310 C 23.015 12.053,23.015 11.947,22.939 11.690 C 22.783 11.162,22.181 10.882,21.593 11.063 M3.815 14.278 C 3.331 14.393,3.098 15.004,3.383 15.408 C 3.448 15.499,3.572 15.610,3.660 15.656 C 3.820 15.740,3.829 15.740,9.380 15.751 C 13.330 15.758,15.002 15.749,15.154 15.717 C 15.902 15.562,15.929 14.473,15.189 14.286 C 14.979 14.233,4.035 14.226,3.815 14.278 M17.815 14.278 C 17.331 14.393,17.098 15.004,17.383 15.408 C 17.605 15.722,17.676 15.738,18.869 15.753 C 20.122 15.768,20.296 15.744,20.519 15.521 C 20.918 15.122,20.731 14.423,20.189 14.286 C 19.983 14.235,18.025 14.228,17.815 14.278 M5.815 17.278 C 5.331 17.393,5.098 18.004,5.383 18.408 C 5.447 18.499,5.572 18.610,5.660 18.656 C 5.820 18.740,5.822 18.740,11.880 18.751 C 16.193 18.758,18.002 18.749,18.154 18.717 C 18.902 18.562,18.929 17.473,18.189 17.286 C 17.979 17.233,6.035 17.226,5.815 17.278 M8.815 20.278 C 8.331 20.393,8.098 21.004,8.383 21.408 C 8.447 21.499,8.572 21.610,8.660 21.656 C 8.818 21.739,8.865 21.740,11.878 21.751 C 14.020 21.759,15.000 21.749,15.151 21.718 C 15.902 21.562,15.931 20.473,15.189 20.286 C 14.979 20.234,9.033 20.226,8.815 20.278 " stroke="none" fill-rule="evenodd" fill="black"></path></svg>