<svg width="24" height="24" viewBox="0 0 24 24" fill="none" xmlns="http://www.w3.org/2000/svg"><path d="M9.815 2.278 C 9.331 2.393,9.098 3.004,9.383 3.408 C 9.590 3.700,9.716 3.738,10.525 3.754 L 11.229 3.768 11.255 4.014 C 11.300 4.449,11.589 4.729,11.996 4.729 C 12.412 4.729,12.662 4.495,12.734 4.040 L 12.778 3.760 13.367 3.760 C 14.121 3.760,14.322 3.718,14.520 3.520 C 14.918 3.122,14.730 2.423,14.189 2.286 C 13.980 2.234,10.031 2.226,9.815 2.278 M4.900 5.097 C 4.834 5.126,4.733 5.202,4.675 5.265 C 4.588 5.361,2.754 8.496,2.545 8.908 C 2.471 9.054,2.460 9.342,2.523 9.507 C 2.580 9.661,2.753 9.838,2.909 9.905 C 3.083 9.979,3.378 9.974,3.546 9.894 C 3.721 9.812,3.805 9.700,4.160 9.080 C 4.317 8.805,4.458 8.568,4.473 8.554 C 4.518 8.510,7.981 10.536,7.974 10.602 C 7.970 10.634,7.927 10.804,7.877 10.980 C 7.799 11.256,7.787 11.395,7.787 12.000 C 7.787 12.605,7.799 12.744,7.877 13.020 C 7.927 13.196,7.970 13.366,7.974 13.398 C 7.978 13.436,7.391 13.798,6.340 14.406 C 5.438 14.928,4.652 15.383,4.593 15.418 L 4.487 15.481 4.180 14.950 C 3.800 14.294,3.720 14.188,3.546 14.106 C 3.388 14.031,3.099 14.020,2.933 14.083 C 2.779 14.140,2.602 14.313,2.535 14.469 C 2.461 14.642,2.466 14.936,2.545 15.092 C 2.761 15.514,4.588 18.640,4.675 18.735 C 5.082 19.180,5.852 18.940,5.942 18.340 C 5.977 18.106,5.934 17.993,5.560 17.342 C 5.383 17.035,5.253 16.772,5.270 16.757 C 5.286 16.742,6.209 16.207,7.320 15.568 C 8.431 14.929,9.390 14.367,9.451 14.319 C 9.512 14.271,9.598 14.162,9.641 14.077 C 9.764 13.837,9.743 13.629,9.557 13.243 C 9.328 12.768,9.265 12.496,9.265 12.000 C 9.265 11.511,9.331 11.222,9.543 10.787 C 9.889 10.079,10.557 9.532,11.320 9.332 C 11.666 9.242,12.334 9.242,12.680 9.332 C 14.060 9.693,14.955 11.085,14.705 12.480 C 14.612 12.996,14.325 13.547,13.955 13.917 C 13.408 14.464,12.706 14.760,11.956 14.760 C 11.738 14.760,11.477 14.912,11.353 15.110 L 11.260 15.260 11.249 17.746 L 11.238 20.232 10.506 20.246 C 9.790 20.260,9.771 20.262,9.612 20.367 C 9.372 20.526,9.267 20.721,9.267 21.007 C 9.267 21.203,9.286 21.270,9.383 21.408 C 9.447 21.499,9.572 21.610,9.660 21.656 C 9.815 21.738,9.880 21.740,11.875 21.752 C 14.208 21.765,14.281 21.759,14.519 21.521 C 14.918 21.122,14.731 20.423,14.189 20.286 C 14.087 20.261,13.725 20.240,13.382 20.240 L 12.760 20.240 12.760 18.200 C 12.760 16.205,12.762 16.160,12.838 16.160 C 12.974 16.160,13.569 15.956,13.860 15.810 C 14.275 15.601,14.667 15.324,14.968 15.025 C 15.115 14.879,15.246 14.760,15.260 14.760 C 15.288 14.760,18.683 16.714,18.731 16.758 C 18.748 16.774,18.619 17.032,18.445 17.332 C 18.074 17.969,18.022 18.103,18.058 18.340 C 18.148 18.940,18.918 19.180,19.325 18.735 C 19.412 18.640,21.239 15.514,21.455 15.092 C 21.589 14.828,21.517 14.441,21.295 14.233 C 20.990 13.947,20.461 13.978,20.221 14.296 C 20.170 14.364,19.989 14.659,19.820 14.950 L 19.513 15.481 19.407 15.418 C 19.348 15.383,18.562 14.928,17.660 14.406 C 16.609 13.798,16.022 13.436,16.026 13.398 C 16.030 13.366,16.073 13.196,16.123 13.020 C 16.201 12.744,16.213 12.605,16.213 12.000 C 16.213 11.407,16.200 11.254,16.128 11.000 C 16.081 10.835,16.033 10.664,16.021 10.620 C 16.003 10.550,16.226 10.410,17.736 9.543 C 18.690 8.994,19.486 8.547,19.504 8.548 C 19.521 8.550,19.669 8.782,19.831 9.065 C 20.196 9.701,20.279 9.811,20.454 9.894 C 20.612 9.969,20.901 9.980,21.067 9.917 C 21.221 9.860,21.398 9.687,21.465 9.531 C 21.539 9.358,21.534 9.064,21.455 8.908 C 21.239 8.486,19.412 5.360,19.325 5.265 C 18.918 4.820,18.148 5.060,18.058 5.660 C 18.023 5.894,18.066 6.007,18.440 6.658 C 18.617 6.965,18.747 7.227,18.730 7.242 C 18.683 7.284,15.284 9.240,15.258 9.240 C 15.245 9.240,15.115 9.121,14.968 8.975 C 14.667 8.676,14.275 8.399,13.860 8.190 C 13.573 8.046,12.974 7.840,12.842 7.840 C 12.772 7.840,12.766 7.788,12.753 7.070 C 12.737 6.235,12.722 6.169,12.494 5.953 C 12.353 5.819,12.201 5.760,12.000 5.760 C 11.799 5.760,11.647 5.819,11.506 5.953 C 11.278 6.169,11.263 6.235,11.247 7.070 C 11.234 7.788,11.228 7.840,11.158 7.840 C 11.026 7.840,10.427 8.046,10.140 8.190 C 9.725 8.399,9.333 8.676,9.032 8.975 C 8.885 9.121,8.754 9.240,8.740 9.240 C 8.712 9.240,5.318 7.286,5.269 7.242 C 5.252 7.227,5.390 6.949,5.576 6.625 C 5.941 5.990,5.981 5.882,5.940 5.640 C 5.862 5.181,5.332 4.904,4.900 5.097 " stroke="none" fill-rule="evenodd" fill="black"></path></svg>