<svg width="24" height="24" viewBox="0 0 24 24" fill="none" xmlns="http://www.w3.org/2000/svg"><path d="M3.590 2.421 C 3.269 2.485,2.660 2.770,2.381 2.987 C 2.113 3.196,1.772 3.610,1.589 3.951 C 1.363 4.373,1.270 4.770,1.267 5.320 C 1.265 5.845,1.329 6.145,1.535 6.580 C 1.608 6.734,2.317 7.900,3.111 9.170 C 4.330 11.121,4.562 11.516,4.602 11.709 C 4.658 11.981,4.627 12.308,4.521 12.548 C 4.478 12.643,3.800 13.752,3.013 15.011 C 2.106 16.462,1.535 17.415,1.454 17.615 C 1.231 18.168,1.188 18.828,1.339 19.420 C 1.423 19.747,1.719 20.336,1.928 20.587 C 2.298 21.034,2.878 21.403,3.475 21.572 C 3.780 21.659,3.785 21.659,9.160 21.672 C 12.795 21.680,14.660 21.671,14.910 21.642 C 15.571 21.566,16.237 21.260,16.726 20.809 C 17.055 20.505,22.297 13.523,22.472 13.157 C 22.665 12.750,22.730 12.438,22.731 11.920 C 22.732 11.426,22.668 11.097,22.503 10.735 C 22.399 10.508,18.278 3.904,18.032 3.570 C 17.805 3.262,17.395 2.942,16.940 2.717 C 16.211 2.358,16.520 2.380,12.280 2.380 C 10.223 2.380,8.491 2.394,8.431 2.411 C 8.279 2.453,8.039 2.673,7.974 2.828 C 7.863 3.093,7.919 3.409,8.113 3.614 C 8.361 3.876,8.081 3.858,12.221 3.880 L 15.982 3.900 16.248 4.031 C 16.395 4.104,16.597 4.239,16.698 4.331 C 16.832 4.455,17.441 5.397,19.006 7.900 C 20.175 9.770,21.158 11.378,21.190 11.473 C 21.283 11.743,21.244 12.294,21.116 12.522 C 20.981 12.763,15.860 19.585,15.704 19.732 C 15.636 19.796,15.445 19.914,15.280 19.994 L 14.980 20.140 9.400 20.140 L 3.820 20.140 3.600 20.036 C 3.021 19.763,2.653 19.091,2.753 18.488 C 2.776 18.348,2.834 18.158,2.882 18.067 C 2.929 17.975,3.609 16.875,4.392 15.621 C 5.176 14.368,5.859 13.238,5.910 13.110 C 6.193 12.411,6.181 11.490,5.881 10.850 C 5.815 10.708,5.119 9.566,4.335 8.312 C 3.550 7.057,2.873 5.938,2.830 5.825 C 2.776 5.684,2.752 5.524,2.752 5.311 C 2.753 5.048,2.772 4.960,2.882 4.721 C 3.118 4.210,3.548 3.913,4.152 3.846 C 4.602 3.795,4.773 3.691,4.898 3.390 C 5.012 3.117,4.937 2.731,4.734 2.552 C 4.518 2.359,4.125 2.315,3.590 2.421 " stroke="none" fill-rule="evenodd" fill="black"></path></svg>