<svg width="24" height="24" viewBox="0 0 24 24" fill="none" xmlns="http://www.w3.org/2000/svg"><path d="M5.611 1.281 C 4.709 1.377,3.881 1.786,3.275 2.434 C 2.686 3.062,2.356 3.802,2.278 4.669 C 2.250 4.983,2.241 7.015,2.250 10.760 C 2.263 15.870,2.270 16.405,2.332 16.658 C 2.682 18.100,3.727 19.151,5.160 19.501 C 5.330 19.543,5.733 19.576,6.320 19.596 C 7.313 19.631,7.533 19.676,7.940 19.932 C 8.050 20.001,8.617 20.527,9.200 21.100 C 9.783 21.673,10.367 22.213,10.498 22.299 C 11.248 22.791,12.362 22.860,13.184 22.464 C 13.582 22.273,13.785 22.100,14.900 20.999 C 16.275 19.643,16.265 19.648,17.660 19.598 C 18.258 19.576,18.671 19.543,18.840 19.501 C 20.450 19.108,21.565 17.827,21.721 16.193 C 21.749 15.896,21.760 14.531,21.752 12.240 C 21.741 9.073,21.734 8.729,21.674 8.620 C 21.540 8.378,21.255 8.200,21.000 8.200 C 20.745 8.200,20.460 8.378,20.326 8.620 C 20.266 8.729,20.258 9.105,20.239 12.560 C 20.217 16.828,20.236 16.547,19.927 17.023 C 19.624 17.490,19.163 17.853,18.683 18.004 C 18.466 18.072,18.254 18.092,17.480 18.119 C 16.641 18.149,16.502 18.163,16.188 18.256 C 15.388 18.494,15.091 18.707,13.808 19.970 C 12.588 21.172,12.518 21.220,11.980 21.220 C 11.475 21.220,11.420 21.181,10.200 19.981 C 9.076 18.875,8.798 18.653,8.237 18.416 C 7.685 18.184,7.534 18.158,6.520 18.121 C 5.749 18.092,5.533 18.071,5.317 18.004 C 4.636 17.790,4.021 17.161,3.834 16.489 C 3.763 16.234,3.760 15.949,3.760 10.421 C 3.761 4.114,3.749 4.450,3.984 3.965 C 4.134 3.658,4.625 3.169,4.950 3.005 C 5.466 2.745,5.028 2.760,12.000 2.760 C 18.956 2.760,18.536 2.746,19.038 2.999 C 19.319 3.141,19.744 3.526,19.917 3.795 C 20.095 4.072,20.200 4.409,20.242 4.830 C 20.291 5.336,20.400 5.520,20.729 5.658 C 21.078 5.804,21.486 5.649,21.671 5.300 C 21.718 5.213,21.733 5.084,21.728 4.825 C 21.700 3.417,20.780 2.099,19.440 1.547 C 18.703 1.243,19.235 1.265,12.200 1.257 C 8.735 1.253,5.770 1.264,5.611 1.281 M11.380 4.366 C 11.046 4.429,10.491 4.724,10.191 4.998 C 9.856 5.306,9.548 5.762,9.439 6.112 C 8.973 7.609,9.719 9.081,11.200 9.585 C 11.375 9.645,11.538 9.660,12.000 9.660 C 12.645 9.660,12.795 9.626,13.300 9.366 C 13.646 9.188,14.117 8.728,14.331 8.360 C 14.727 7.678,14.790 6.754,14.491 6.000 C 14.186 5.230,13.480 4.599,12.700 4.400 C 12.361 4.313,11.748 4.298,11.380 4.366 M12.413 5.881 C 12.671 5.977,12.956 6.244,13.086 6.511 C 13.210 6.766,13.213 7.217,13.093 7.485 C 12.980 7.735,12.766 7.962,12.533 8.081 C 12.260 8.221,11.744 8.224,11.480 8.087 C 11.059 7.868,10.838 7.542,10.809 7.095 C 10.777 6.611,10.968 6.227,11.365 5.977 C 11.667 5.786,12.063 5.750,12.413 5.881 M11.492 10.485 C 10.728 10.531,10.001 10.718,9.392 11.024 C 8.711 11.365,8.520 11.570,8.520 11.960 C 8.520 12.382,8.842 12.700,9.263 12.694 C 9.436 12.692,9.529 12.657,9.825 12.488 C 10.464 12.121,11.128 11.960,12.000 11.960 C 13.124 11.960,14.072 12.277,14.644 12.845 C 15.238 13.435,15.069 14.121,14.200 14.646 C 13.638 14.986,13.002 15.156,12.180 15.188 C 11.283 15.222,10.579 15.068,9.855 14.679 C 9.447 14.460,9.237 14.409,9.027 14.478 C 8.627 14.610,8.412 15.068,8.563 15.467 C 8.737 15.930,9.982 16.495,11.140 16.636 C 12.534 16.806,13.935 16.548,14.975 15.931 C 15.363 15.701,15.960 15.122,16.157 14.786 C 16.660 13.928,16.569 12.842,15.927 12.044 C 15.036 10.937,13.415 10.367,11.492 10.485 " stroke="none" fill-rule="evenodd" fill="black"></path></svg>