<svg width="24" height="24" viewBox="0 0 24 24" fill="none" xmlns="http://www.w3.org/2000/svg"><path d="M8.920 2.161 C 7.677 2.223,6.496 2.292,6.296 2.316 C 4.324 2.549,2.717 4.064,2.342 6.044 C 2.255 6.503,2.028 11.220,2.052 12.080 C 2.086 13.315,2.421 14.285,3.152 15.260 C 3.404 15.596,8.270 20.472,8.660 20.778 C 10.366 22.120,12.731 22.333,14.636 21.316 C 15.380 20.918,15.590 20.734,17.835 18.502 C 19.009 17.335,20.155 16.178,20.381 15.932 C 21.421 14.799,21.894 13.689,21.948 12.259 C 21.981 11.372,21.838 10.603,21.494 9.821 C 21.169 9.079,20.820 8.616,19.863 7.653 C 19.033 6.818,18.945 6.761,18.582 6.818 C 18.115 6.892,17.817 7.445,18.025 7.852 C 18.061 7.922,18.426 8.322,18.836 8.740 C 19.570 9.489,19.831 9.819,20.070 10.300 C 20.684 11.538,20.585 13.080,19.815 14.271 C 19.723 14.413,18.704 15.466,17.143 17.033 C 14.510 19.676,14.329 19.838,13.740 20.099 C 13.368 20.264,12.861 20.398,12.439 20.444 C 11.511 20.545,10.444 20.249,9.680 19.679 C 9.537 19.572,8.275 18.336,6.876 16.932 C 4.158 14.205,4.134 14.178,3.840 13.486 C 3.652 13.045,3.558 12.629,3.533 12.140 C 3.521 11.882,3.564 10.623,3.638 9.100 C 3.778 6.214,3.794 6.085,4.079 5.500 C 4.336 4.970,4.819 4.461,5.364 4.146 C 5.626 3.994,6.071 3.851,6.431 3.802 C 6.918 3.736,11.860 3.509,12.240 3.536 C 13.106 3.597,13.936 3.958,14.640 4.578 C 14.968 4.866,15.154 4.944,15.418 4.902 C 15.863 4.832,16.160 4.322,16.001 3.903 C 15.825 3.439,14.435 2.526,13.501 2.260 C 12.602 2.003,12.267 1.996,8.920 2.161 M9.140 6.282 C 8.728 6.327,8.503 6.387,8.177 6.537 C 7.029 7.068,6.295 8.162,6.271 9.379 C 6.264 9.732,6.310 9.862,6.506 10.047 C 6.647 10.181,6.799 10.240,7.000 10.240 C 7.201 10.240,7.353 10.181,7.494 10.047 C 7.666 9.885,7.715 9.760,7.758 9.374 C 7.833 8.709,8.200 8.187,8.790 7.908 C 9.043 7.788,9.088 7.780,9.500 7.780 C 9.912 7.780,9.957 7.788,10.210 7.908 C 10.586 8.086,10.887 8.382,11.071 8.755 C 11.216 9.048,11.220 9.068,11.220 9.500 C 11.220 9.932,11.216 9.952,11.071 10.245 C 10.664 11.070,9.822 11.417,8.894 11.144 C 8.436 11.009,8.196 11.047,7.972 11.287 C 7.763 11.511,7.710 11.826,7.835 12.102 C 7.940 12.333,8.117 12.463,8.486 12.580 C 9.257 12.823,10.140 12.778,10.829 12.459 C 11.750 12.034,12.461 11.171,12.663 10.233 C 12.745 9.854,12.745 9.146,12.663 8.767 C 12.503 8.026,11.974 7.259,11.307 6.804 C 10.707 6.394,9.896 6.198,9.140 6.282 M16.900 12.258 C 16.878 12.266,16.806 12.285,16.740 12.299 C 16.651 12.319,16.084 12.860,14.528 14.413 C 13.377 15.561,12.398 16.561,12.351 16.636 C 12.218 16.848,12.233 17.195,12.383 17.408 C 12.447 17.499,12.568 17.608,12.651 17.651 C 12.837 17.747,13.139 17.753,13.326 17.664 C 13.402 17.628,14.389 16.671,15.567 15.490 C 17.592 13.460,17.673 13.373,17.711 13.189 C 17.785 12.834,17.634 12.482,17.352 12.349 C 17.212 12.283,16.967 12.234,16.900 12.258 " stroke="none" fill-rule="evenodd" fill="black"></path></svg>