<svg width="24" height="24" viewBox="0 0 24 24" fill="none" xmlns="http://www.w3.org/2000/svg"><path d="M9.840 3.026 C 8.581 3.146,7.586 3.553,6.582 4.357 C 6.346 4.547,3.151 8.007,2.383 8.905 C 1.073 10.438,0.887 12.707,1.930 14.458 C 2.194 14.902,2.244 14.960,4.466 17.400 C 5.509 18.546,6.427 19.518,6.587 19.647 C 7.178 20.123,7.827 20.480,8.503 20.702 C 9.359 20.982,9.219 20.974,13.320 20.991 C 17.187 21.007,17.669 20.992,18.323 20.838 C 19.954 20.453,21.339 19.361,22.110 17.853 C 22.471 17.147,22.656 16.478,22.722 15.640 C 22.769 15.041,22.769 8.959,22.722 8.360 C 22.656 7.522,22.471 6.853,22.110 6.147 C 21.337 4.633,19.968 3.556,18.320 3.162 C 17.825 3.044,17.001 2.975,16.801 3.035 C 16.610 3.092,16.419 3.246,16.333 3.414 C 16.236 3.601,16.250 3.916,16.364 4.118 C 16.517 4.391,16.693 4.467,17.283 4.516 C 17.576 4.541,17.935 4.601,18.143 4.659 C 18.919 4.879,19.701 5.379,20.228 5.996 C 20.664 6.506,20.936 7.031,21.131 7.736 L 21.220 8.060 21.220 12.000 L 21.220 15.940 21.131 16.264 C 20.936 16.969,20.664 17.494,20.228 18.004 C 19.505 18.850,18.468 19.380,17.344 19.480 C 16.734 19.534,10.507 19.532,9.925 19.477 C 9.028 19.393,8.312 19.104,7.597 18.537 C 7.345 18.337,3.661 14.325,3.349 13.910 C 2.614 12.934,2.547 11.411,3.191 10.331 C 3.280 10.182,3.458 9.943,3.586 9.800 C 3.715 9.657,4.623 8.657,5.605 7.577 C 7.547 5.441,7.744 5.256,8.420 4.937 C 9.271 4.536,9.409 4.515,11.440 4.492 C 13.084 4.473,13.145 4.469,13.294 4.387 C 13.704 4.159,13.778 3.534,13.433 3.212 C 13.212 3.005,13.158 3.000,11.511 3.006 C 10.669 3.010,9.917 3.019,9.840 3.026 M10.760 8.845 C 10.406 8.986,10.226 9.457,10.382 9.831 C 10.422 9.928,10.795 10.332,11.451 10.990 L 12.458 12.000 11.451 13.010 C 10.795 13.668,10.422 14.072,10.382 14.169 C 10.223 14.550,10.408 15.019,10.773 15.157 C 10.916 15.212,11.202 15.212,11.347 15.158 C 11.409 15.135,11.923 14.654,12.490 14.089 L 13.519 13.061 14.530 14.066 C 15.085 14.619,15.598 15.100,15.668 15.136 C 15.862 15.233,16.180 15.219,16.377 15.104 C 16.689 14.921,16.832 14.447,16.668 14.139 C 16.575 13.964,11.480 8.891,11.347 8.842 C 11.208 8.790,10.894 8.792,10.760 8.845 M15.598 8.915 C 15.377 9.057,14.634 9.815,14.545 9.988 C 14.378 10.316,14.519 10.775,14.842 10.956 C 15.033 11.064,15.358 11.085,15.522 11.001 C 15.662 10.930,16.593 10.004,16.668 9.861 C 16.764 9.680,16.749 9.363,16.636 9.162 C 16.432 8.799,15.954 8.685,15.598 8.915 " stroke="none" fill-rule="evenodd" fill="black"></path></svg>