<svg width="24" height="24" viewBox="0 0 24 24" fill="none" xmlns="http://www.w3.org/2000/svg"><path d="M8.920 2.161 C 7.677 2.223,6.496 2.292,6.296 2.316 C 4.324 2.549,2.717 4.064,2.342 6.044 C 2.255 6.503,2.028 11.220,2.052 12.080 C 2.086 13.315,2.421 14.285,3.152 15.260 C 3.404 15.596,8.270 20.472,8.660 20.778 C 10.613 22.314,13.300 22.349,15.360 20.866 C 15.760 20.578,17.520 18.847,17.622 18.641 C 17.708 18.468,17.712 18.137,17.629 17.979 C 17.440 17.616,17.028 17.464,16.656 17.619 C 16.569 17.655,16.122 18.065,15.507 18.672 C 14.762 19.407,14.422 19.713,14.200 19.850 C 13.445 20.316,12.490 20.538,11.655 20.442 C 10.941 20.360,10.220 20.081,9.680 19.679 C 9.537 19.572,8.275 18.336,6.876 16.932 C 4.158 14.205,4.134 14.178,3.840 13.486 C 3.652 13.045,3.558 12.629,3.533 12.140 C 3.521 11.882,3.564 10.623,3.638 9.100 C 3.778 6.214,3.794 6.085,4.079 5.500 C 4.336 4.970,4.819 4.461,5.364 4.146 C 5.626 3.994,6.071 3.851,6.431 3.802 C 6.918 3.736,11.860 3.509,12.240 3.536 C 12.866 3.580,13.493 3.789,14.080 4.148 C 14.329 4.300,14.822 4.773,16.971 6.916 C 19.750 9.687,19.847 9.796,20.141 10.481 C 20.774 11.959,20.498 13.582,19.404 14.810 C 19.130 15.118,19.056 15.303,19.098 15.581 C 19.121 15.735,19.162 15.806,19.318 15.962 C 19.474 16.118,19.545 16.159,19.699 16.182 C 20.007 16.228,20.183 16.152,20.474 15.847 C 21.894 14.357,22.340 12.147,21.624 10.160 C 21.483 9.771,21.165 9.174,20.909 8.820 C 20.605 8.400,15.714 3.505,15.236 3.143 C 14.779 2.797,14.009 2.404,13.501 2.260 C 12.602 2.003,12.267 1.996,8.920 2.161 M9.420 6.261 C 9.398 6.267,9.331 6.284,9.271 6.297 C 9.124 6.329,8.881 6.548,8.814 6.708 C 8.703 6.973,8.759 7.289,8.953 7.494 C 9.115 7.665,9.240 7.715,9.622 7.758 C 10.285 7.833,10.786 8.178,11.071 8.755 C 11.216 9.048,11.220 9.068,11.220 9.500 C 11.220 9.932,11.216 9.952,11.071 10.245 C 10.887 10.618,10.586 10.914,10.210 11.092 C 9.957 11.212,9.912 11.220,9.500 11.220 C 9.088 11.220,9.043 11.212,8.790 11.092 C 8.200 10.813,7.833 10.291,7.758 9.626 C 7.715 9.240,7.666 9.115,7.494 8.953 C 7.353 8.819,7.201 8.760,7.000 8.760 C 6.716 8.760,6.471 8.914,6.329 9.180 C 6.248 9.332,6.253 9.825,6.339 10.234 C 6.580 11.380,7.614 12.414,8.767 12.663 C 9.146 12.745,9.854 12.745,10.233 12.663 C 11.387 12.414,12.414 11.387,12.663 10.233 C 12.745 9.854,12.745 9.146,12.663 8.767 C 12.414 7.611,11.361 6.561,10.231 6.342 C 9.927 6.283,9.489 6.239,9.420 6.261 " stroke="none" fill-rule="evenodd" fill="black"></path></svg>