<svg width="24" height="24" viewBox="0 0 24 24" fill="none" xmlns="http://www.w3.org/2000/svg"><path d="M6.681 2.824 C 6.597 2.860,6.036 3.388,5.273 4.148 L 4.005 5.412 3.713 5.140 C 3.389 4.840,3.240 4.760,3.004 4.760 C 2.716 4.760,2.469 4.914,2.331 5.179 C 2.248 5.338,2.252 5.668,2.339 5.841 C 2.439 6.039,3.520 7.107,3.694 7.180 C 3.879 7.257,4.123 7.256,4.311 7.178 C 4.493 7.102,7.556 4.051,7.662 3.841 C 7.748 3.668,7.752 3.338,7.669 3.179 C 7.588 3.024,7.409 2.856,7.267 2.803 C 7.109 2.743,6.845 2.752,6.681 2.824 M10.720 4.805 C 10.458 4.909,10.269 5.200,10.269 5.500 C 10.269 5.807,10.460 6.095,10.733 6.197 C 10.810 6.227,12.455 6.240,16.000 6.240 C 19.545 6.240,21.190 6.227,21.267 6.197 C 21.540 6.095,21.731 5.807,21.731 5.500 C 21.731 5.193,21.540 4.905,21.267 4.803 C 21.116 4.745,10.864 4.748,10.720 4.805 M6.681 9.824 C 6.597 9.860,6.036 10.388,5.273 11.148 L 4.005 12.412 3.713 12.140 C 3.389 11.840,3.240 11.760,3.004 11.760 C 2.716 11.760,2.469 11.914,2.331 12.179 C 2.248 12.338,2.252 12.668,2.339 12.841 C 2.439 13.039,3.520 14.107,3.694 14.180 C 3.879 14.257,4.123 14.256,4.311 14.178 C 4.493 14.102,7.556 11.051,7.662 10.841 C 7.748 10.668,7.752 10.338,7.669 10.179 C 7.588 10.024,7.409 9.856,7.267 9.803 C 7.109 9.743,6.845 9.752,6.681 9.824 M10.720 11.805 C 10.458 11.909,10.269 12.200,10.269 12.500 C 10.269 12.807,10.460 13.095,10.733 13.197 C 10.808 13.226,11.795 13.240,13.750 13.240 C 16.590 13.240,16.659 13.238,16.823 13.159 C 16.919 13.112,17.040 13.006,17.106 12.912 C 17.201 12.774,17.220 12.706,17.220 12.500 C 17.220 12.294,17.201 12.226,17.106 12.088 C 17.040 11.994,16.919 11.888,16.823 11.841 C 16.658 11.762,16.592 11.760,13.737 11.763 C 11.904 11.764,10.783 11.780,10.720 11.805 M19.720 11.805 C 19.458 11.909,19.269 12.200,19.269 12.500 C 19.269 12.727,19.339 12.889,19.506 13.047 C 19.686 13.218,19.802 13.240,20.500 13.240 C 21.198 13.240,21.314 13.218,21.494 13.047 C 21.661 12.889,21.731 12.727,21.731 12.500 C 21.731 12.193,21.540 11.905,21.267 11.803 C 21.125 11.749,19.856 11.751,19.720 11.805 M6.681 16.824 C 6.597 16.860,6.036 17.388,5.273 18.148 L 4.005 19.412 3.713 19.140 C 3.389 18.840,3.240 18.760,3.004 18.760 C 2.716 18.760,2.469 18.914,2.331 19.179 C 2.248 19.338,2.252 19.668,2.339 19.841 C 2.439 20.039,3.520 21.107,3.694 21.180 C 3.879 21.257,4.123 21.256,4.311 21.178 C 4.493 21.102,7.556 18.051,7.662 17.841 C 7.748 17.668,7.752 17.338,7.669 17.179 C 7.588 17.024,7.409 16.856,7.267 16.803 C 7.109 16.743,6.845 16.752,6.681 16.824 M10.720 18.805 C 10.458 18.909,10.269 19.200,10.269 19.500 C 10.269 19.807,10.460 20.095,10.733 20.197 C 10.810 20.227,12.455 20.240,16.000 20.240 C 19.545 20.240,21.190 20.227,21.267 20.197 C 21.540 20.095,21.731 19.807,21.731 19.500 C 21.731 19.193,21.540 18.905,21.267 18.803 C 21.116 18.745,10.864 18.748,10.720 18.805 " stroke="none" fill-rule="evenodd" fill="black"></path></svg>