<svg width="24" height="24" viewBox="0 0 24 24" fill="none" xmlns="http://www.w3.org/2000/svg"><path d="M11.132 1.339 C 10.553 1.445,9.894 1.712,9.583 1.968 C 9.078 2.384,9.323 3.201,9.973 3.268 C 10.183 3.289,10.224 3.278,10.569 3.106 C 11.114 2.834,11.355 2.780,12.020 2.780 C 12.658 2.780,12.941 2.838,13.360 3.054 C 13.778 3.270,19.664 7.151,19.899 7.366 C 20.184 7.627,20.390 7.945,20.527 8.338 C 20.624 8.618,20.639 8.720,20.639 9.123 C 20.640 9.628,20.589 9.865,20.399 10.242 C 20.241 10.555,20.003 10.842,19.732 11.048 C 19.311 11.369,13.545 15.131,13.300 15.245 C 12.887 15.438,12.592 15.496,12.020 15.496 C 11.448 15.496,11.154 15.438,10.740 15.245 C 10.608 15.184,9.096 14.217,7.380 13.097 C 3.995 10.888,3.907 10.822,3.631 10.295 C 3.408 9.869,3.343 9.603,3.345 9.120 C 3.346 8.759,3.363 8.652,3.465 8.358 C 3.611 7.942,3.811 7.632,4.116 7.352 C 4.242 7.235,4.823 6.829,5.407 6.448 C 6.464 5.760,6.584 5.669,6.681 5.482 C 6.765 5.319,6.744 4.993,6.636 4.802 C 6.456 4.482,5.994 4.338,5.676 4.502 C 5.609 4.537,5.048 4.899,4.428 5.307 C 3.475 5.935,3.247 6.104,2.960 6.398 C 2.462 6.908,2.152 7.458,1.952 8.190 C 1.842 8.594,1.829 9.549,1.929 9.986 C 2.058 10.552,2.338 11.131,2.710 11.600 C 2.978 11.939,3.353 12.243,4.148 12.767 L 4.877 13.248 4.889 15.814 C 4.902 18.343,4.904 18.385,4.993 18.695 C 5.121 19.138,5.282 19.475,5.577 19.918 C 6.004 20.556,6.493 21.004,7.099 21.309 C 7.404 21.463,10.726 22.572,11.154 22.662 C 11.511 22.738,12.495 22.737,12.857 22.660 C 13.267 22.573,16.617 21.451,16.920 21.299 C 17.769 20.873,18.573 19.941,18.905 18.995 C 19.108 18.417,19.117 18.283,19.119 15.679 L 19.120 13.257 19.880 12.756 L 20.640 12.254 20.640 13.605 C 20.640 14.441,20.657 15.035,20.684 15.162 C 20.824 15.812,21.690 15.943,22.047 15.369 L 22.140 15.220 22.140 11.880 C 22.140 8.571,22.139 8.537,22.052 8.212 C 21.816 7.325,21.327 6.557,20.686 6.065 C 20.304 5.772,14.277 1.832,14.000 1.695 C 13.406 1.400,12.812 1.278,11.985 1.284 C 11.674 1.286,11.291 1.311,11.132 1.339 M8.111 15.355 C 9.051 15.968,9.913 16.517,10.028 16.575 C 11.152 17.140,12.892 17.140,14.012 16.574 C 14.127 16.516,14.940 15.998,15.820 15.421 C 16.700 14.845,17.471 14.341,17.532 14.301 L 17.645 14.228 17.631 16.184 C 17.616 18.380,17.623 18.323,17.299 18.907 C 17.098 19.270,16.539 19.828,16.240 19.966 C 16.119 20.022,15.246 20.327,14.300 20.644 L 12.580 21.220 12.000 21.220 L 11.420 21.220 9.660 20.629 C 8.692 20.304,7.822 19.998,7.726 19.949 C 7.325 19.744,6.865 19.244,6.621 18.749 C 6.374 18.248,6.361 18.114,6.361 16.070 C 6.360 15.063,6.369 14.240,6.381 14.240 C 6.392 14.240,7.171 14.742,8.111 15.355 " stroke="none" fill-rule="evenodd" fill="black"></path></svg>