<svg width="24" height="24" viewBox="0 0 24 24" fill="none" xmlns="http://www.w3.org/2000/svg"><path d="M4.380 2.561 C 3.757 2.632,3.201 2.908,2.740 3.378 C 2.410 3.713,2.198 4.059,2.052 4.500 C 1.948 4.811,1.945 4.853,1.929 5.976 C 1.920 6.611,1.925 7.212,1.940 7.311 C 1.979 7.572,2.273 7.862,2.539 7.902 C 2.875 7.952,3.173 7.808,3.317 7.525 C 3.385 7.393,3.394 7.257,3.406 6.219 L 3.420 5.060 3.532 4.820 C 3.675 4.514,3.972 4.231,4.264 4.122 C 4.478 4.042,4.554 4.040,7.861 4.040 L 11.238 4.040 11.249 8.630 L 11.260 13.220 11.353 13.369 C 11.710 13.943,12.576 13.812,12.716 13.162 C 12.747 13.019,12.760 11.603,12.760 8.498 L 12.760 4.040 16.138 4.040 C 19.460 4.040,19.521 4.041,19.739 4.123 C 19.994 4.219,20.308 4.501,20.434 4.748 C 20.565 5.004,20.599 5.350,20.600 6.392 C 20.600 7.279,20.607 7.377,20.679 7.518 C 20.827 7.808,21.121 7.953,21.461 7.902 C 21.727 7.862,22.021 7.572,22.060 7.311 C 22.075 7.212,22.080 6.611,22.071 5.976 C 22.055 4.853,22.052 4.811,21.948 4.500 C 21.654 3.615,20.952 2.922,20.065 2.643 L 19.740 2.540 12.200 2.535 C 8.053 2.532,4.534 2.544,4.380 2.561 M11.619 16.337 C 11.529 16.391,11.415 16.510,11.359 16.607 L 11.260 16.780 11.248 18.368 L 11.236 19.956 9.548 19.968 C 7.700 19.981,7.751 19.975,7.513 20.226 C 7.319 20.431,7.263 20.747,7.374 21.012 C 7.439 21.167,7.679 21.387,7.831 21.429 C 7.891 21.446,9.767 21.460,12.000 21.460 C 14.233 21.460,16.109 21.446,16.169 21.429 C 16.321 21.387,16.561 21.167,16.626 21.012 C 16.737 20.747,16.681 20.431,16.487 20.226 C 16.249 19.975,16.300 19.981,14.452 19.968 L 12.764 19.956 12.752 18.368 L 12.740 16.780 12.634 16.600 C 12.427 16.248,11.967 16.129,11.619 16.337 " stroke="none" fill-rule="evenodd" fill="black"></path></svg>