<svg width="24" height="24" viewBox="0 0 24 24" fill="none" xmlns="http://www.w3.org/2000/svg"><path d="M2.720 3.805 C 2.458 3.909,2.269 4.200,2.269 4.500 C 2.269 4.807,2.460 5.095,2.733 5.197 C 2.890 5.257,12.110 5.257,12.267 5.197 C 12.540 5.095,12.731 4.807,12.731 4.500 C 12.731 4.193,12.540 3.905,12.267 3.803 C 12.117 3.746,2.864 3.748,2.720 3.805 M2.720 8.805 C 2.458 8.909,2.269 9.200,2.269 9.500 C 2.269 9.807,2.460 10.095,2.733 10.197 C 2.810 10.227,4.308 10.240,7.500 10.240 C 10.692 10.240,12.190 10.227,12.267 10.197 C 12.540 10.095,12.731 9.807,12.731 9.500 C 12.731 9.193,12.540 8.905,12.267 8.803 C 12.117 8.746,2.864 8.748,2.720 8.805 M2.720 13.805 C 2.458 13.909,2.269 14.200,2.269 14.500 C 2.269 14.807,2.460 15.095,2.733 15.197 C 2.891 15.257,21.109 15.257,21.267 15.197 C 21.540 15.095,21.731 14.807,21.731 14.500 C 21.731 14.193,21.540 13.905,21.267 13.803 C 21.116 13.745,2.864 13.747,2.720 13.805 M2.720 18.805 C 2.458 18.909,2.269 19.200,2.269 19.500 C 2.269 19.807,2.460 20.095,2.733 20.197 C 2.806 20.225,3.424 20.240,4.493 20.239 C 6.005 20.238,6.153 20.232,6.300 20.165 C 6.490 20.077,6.576 19.988,6.658 19.790 C 6.737 19.602,6.737 19.398,6.658 19.210 C 6.576 19.012,6.490 18.923,6.300 18.835 C 6.153 18.768,6.008 18.762,4.480 18.763 C 3.478 18.764,2.780 18.781,2.720 18.805 M9.740 18.826 C 9.452 18.978,9.320 19.189,9.320 19.496 C 9.320 19.814,9.445 20.019,9.728 20.164 C 9.872 20.238,10.052 20.240,15.516 20.240 C 19.403 20.240,21.190 20.227,21.267 20.197 C 21.540 20.095,21.731 19.807,21.731 19.500 C 21.731 19.193,21.540 18.905,21.267 18.803 C 21.190 18.773,19.404 18.760,15.507 18.762 C 10.437 18.763,9.848 18.770,9.740 18.826 " stroke="none" fill-rule="evenodd" fill="black"></path></svg>