<svg width="24" height="24" viewBox="0 0 24 24" fill="none" xmlns="http://www.w3.org/2000/svg"><path d="M8.080 1.282 C 4.042 1.493,1.931 3.265,1.398 6.891 C 1.310 7.494,1.225 8.895,1.264 9.113 C 1.278 9.194,1.325 9.318,1.368 9.389 C 1.658 9.870,2.422 9.836,2.661 9.332 C 2.718 9.212,2.740 9.022,2.765 8.423 C 2.900 5.187,3.905 3.654,6.288 3.044 C 7.337 2.776,7.247 2.780,12.000 2.780 C 15.936 2.780,16.339 2.786,16.760 2.852 C 19.558 3.288,20.712 4.442,21.148 7.240 C 21.214 7.661,21.220 8.064,21.220 12.000 C 21.220 15.936,21.214 16.339,21.148 16.760 C 20.712 19.558,19.558 20.712,16.760 21.148 C 16.339 21.214,15.936 21.220,12.000 21.220 C 8.064 21.220,7.661 21.214,7.240 21.148 C 4.756 20.761,3.576 19.795,3.044 17.712 C 2.819 16.830,2.790 16.498,2.764 14.540 C 2.738 12.572,2.745 12.630,2.494 12.393 C 2.217 12.131,1.783 12.131,1.506 12.393 C 1.265 12.621,1.261 12.644,1.247 13.820 C 1.224 15.671,1.333 17.073,1.575 18.027 C 2.267 20.757,3.971 22.193,7.027 22.622 C 7.786 22.728,8.902 22.759,12.000 22.759 C 15.098 22.759,16.214 22.728,16.973 22.622 C 19.443 22.275,20.996 21.288,21.897 19.490 C 22.379 18.530,22.638 17.369,22.720 15.807 C 22.771 14.838,22.771 9.162,22.720 8.193 C 22.657 6.998,22.521 6.191,22.242 5.356 C 21.632 3.531,20.469 2.367,18.650 1.760 C 17.788 1.473,17.023 1.344,15.806 1.280 C 14.952 1.235,8.952 1.237,8.080 1.282 M11.122 7.004 C 9.826 7.097,8.449 7.435,7.258 7.951 C 6.621 8.227,6.455 8.334,6.353 8.532 C 6.248 8.734,6.239 9.045,6.333 9.226 C 6.468 9.488,6.797 9.667,7.075 9.630 C 7.155 9.619,7.420 9.519,7.664 9.407 C 8.692 8.938,9.871 8.619,11.009 8.503 L 11.238 8.480 11.249 12.490 C 11.261 16.909,11.243 16.598,11.506 16.847 C 11.783 17.109,12.217 17.109,12.494 16.847 C 12.757 16.598,12.739 16.909,12.751 12.490 L 12.762 8.480 12.991 8.503 C 14.131 8.619,15.315 8.939,16.336 9.408 C 16.872 9.654,17.067 9.683,17.319 9.553 C 17.717 9.347,17.853 8.894,17.630 8.514 C 17.508 8.305,17.273 8.165,16.540 7.867 C 14.795 7.158,12.990 6.870,11.122 7.004 " stroke="none" fill-rule="evenodd" fill="black"></path></svg>