<svg width="24" height="24" viewBox="0 0 24 24" fill="none" xmlns="http://www.w3.org/2000/svg"><path d="M2.720 3.805 C 2.458 3.909,2.269 4.200,2.269 4.500 C 2.269 4.807,2.460 5.095,2.733 5.197 C 2.806 5.225,3.424 5.240,4.493 5.239 C 6.005 5.238,6.153 5.232,6.300 5.165 C 6.490 5.077,6.576 4.988,6.658 4.790 C 6.737 4.602,6.737 4.398,6.658 4.210 C 6.576 4.012,6.490 3.923,6.300 3.835 C 6.153 3.768,6.008 3.762,4.480 3.763 C 3.478 3.764,2.780 3.781,2.720 3.805 M9.740 3.826 C 9.452 3.978,9.320 4.189,9.320 4.496 C 9.320 4.814,9.445 5.019,9.728 5.164 C 9.872 5.238,10.052 5.240,15.516 5.240 C 19.403 5.240,21.190 5.227,21.267 5.197 C 21.540 5.095,21.731 4.807,21.731 4.500 C 21.731 4.193,21.540 3.905,21.267 3.803 C 21.190 3.773,19.404 3.760,15.507 3.762 C 10.437 3.763,9.848 3.770,9.740 3.826 M6.940 8.835 C 6.750 8.923,6.664 9.012,6.582 9.210 C 6.468 9.483,6.543 9.869,6.746 10.048 C 6.970 10.248,6.763 10.240,12.000 10.240 C 17.237 10.240,17.030 10.248,17.254 10.048 C 17.370 9.946,17.478 9.680,17.478 9.500 C 17.478 9.320,17.370 9.054,17.254 8.952 C 17.030 8.752,17.238 8.760,11.991 8.761 C 7.331 8.762,7.092 8.765,6.940 8.835 M2.720 13.805 C 2.458 13.909,2.269 14.200,2.269 14.500 C 2.269 14.807,2.460 15.095,2.733 15.197 C 2.891 15.257,21.109 15.257,21.267 15.197 C 21.540 15.095,21.731 14.807,21.731 14.500 C 21.731 14.193,21.540 13.905,21.267 13.803 C 21.116 13.745,2.864 13.747,2.720 13.805 M6.940 18.835 C 6.750 18.923,6.664 19.012,6.582 19.210 C 6.468 19.483,6.543 19.869,6.746 20.048 C 6.970 20.248,6.763 20.240,12.000 20.240 C 17.237 20.240,17.030 20.248,17.254 20.048 C 17.370 19.946,17.478 19.680,17.478 19.500 C 17.478 19.320,17.370 19.054,17.254 18.952 C 17.030 18.752,17.238 18.760,11.991 18.761 C 7.331 18.762,7.092 18.765,6.940 18.835 " stroke="none" fill-rule="evenodd" fill="black"></path></svg>