<svg width="24" height="24" viewBox="0 0 24 24" fill="none" xmlns="http://www.w3.org/2000/svg"><path d="M6.363 1.804 C 5.519 1.969,4.805 2.519,4.421 3.300 C 4.324 3.498,4.221 3.777,4.192 3.920 C 4.151 4.126,4.140 5.218,4.140 9.140 C 4.140 11.868,4.154 14.149,4.171 14.209 C 4.213 14.361,4.433 14.601,4.588 14.666 C 4.853 14.777,5.169 14.721,5.374 14.527 C 5.598 14.315,5.617 14.239,5.633 13.469 L 5.648 12.758 10.374 12.770 L 15.100 12.781 15.400 12.874 C 15.817 13.002,16.214 13.181,16.520 13.379 C 17.814 14.216,18.509 15.642,18.356 17.143 C 18.168 18.976,16.779 20.430,14.956 20.703 C 14.622 20.753,13.930 20.760,10.570 20.751 L 6.580 20.740 6.354 20.629 C 6.105 20.507,5.893 20.297,5.752 20.032 C 5.664 19.868,5.659 19.808,5.640 18.800 C 5.621 17.778,5.617 17.735,5.527 17.591 C 5.158 16.996,4.301 17.144,4.159 17.826 C 4.100 18.110,4.131 19.832,4.201 20.140 C 4.226 20.250,4.325 20.502,4.422 20.700 C 4.743 21.355,5.333 21.879,6.011 22.109 L 6.340 22.220 10.500 22.232 C 13.466 22.241,14.768 22.232,15.037 22.199 C 16.877 21.973,18.477 20.843,19.311 19.180 C 19.865 18.073,20.013 16.634,19.699 15.400 C 19.237 13.580,17.881 12.129,16.090 11.537 L 15.640 11.389 15.921 11.093 C 16.733 10.239,17.227 9.253,17.425 8.090 C 17.505 7.619,17.481 6.581,17.380 6.120 C 17.179 5.203,16.712 4.276,16.128 3.632 C 15.375 2.803,14.537 2.270,13.525 1.977 C 12.807 1.769,12.635 1.760,9.470 1.764 C 7.859 1.767,6.460 1.784,6.363 1.804 M12.965 3.368 C 14.532 3.796,15.638 4.983,15.937 6.555 C 16.249 8.200,15.404 9.954,13.912 10.759 C 13.594 10.930,13.414 11.002,12.980 11.132 C 12.706 11.214,12.619 11.217,9.170 11.230 L 5.640 11.243 5.640 7.731 L 5.641 4.220 5.735 4.017 C 5.909 3.644,6.193 3.394,6.558 3.293 C 6.698 3.255,7.421 3.246,9.660 3.253 L 12.580 3.262 12.965 3.368 " stroke="none" fill-rule="evenodd" fill="black"></path></svg>