<svg width="24" height="24" viewBox="0 0 24 24" fill="none" xmlns="http://www.w3.org/2000/svg"><path d="M4.815 2.277 C 4.638 2.321,4.461 2.456,4.353 2.631 L 4.260 2.780 4.248 6.320 C 4.241 8.491,4.252 10.098,4.278 10.474 C 4.390 12.123,4.923 13.515,5.940 14.820 C 6.250 15.218,6.985 15.930,7.198 16.039 C 7.638 16.264,8.185 15.986,8.262 15.498 C 8.314 15.171,8.247 15.058,7.629 14.435 C 7.278 14.081,6.972 13.729,6.832 13.520 C 6.331 12.767,5.986 11.912,5.840 11.062 C 5.764 10.614,5.760 10.412,5.759 6.806 C 5.758 4.349,5.744 2.957,5.717 2.841 C 5.623 2.432,5.215 2.177,4.815 2.277 M18.815 2.277 C 18.638 2.321,18.461 2.456,18.353 2.631 L 18.260 2.780 18.236 6.820 C 18.221 9.417,18.197 10.931,18.170 11.060 C 17.876 12.448,17.353 13.456,16.449 14.374 C 15.771 15.063,14.988 15.567,14.107 15.880 C 13.471 16.106,13.062 16.187,12.291 16.237 C 11.690 16.277,11.553 16.332,11.371 16.607 C 11.167 16.914,11.255 17.383,11.557 17.598 C 11.745 17.732,11.973 17.759,12.559 17.717 C 14.955 17.546,17.106 16.292,18.459 14.277 C 19.169 13.221,19.623 11.873,19.719 10.539 C 19.773 9.783,19.772 3.079,19.717 2.841 C 19.623 2.432,19.215 2.177,18.815 2.277 M4.815 20.278 C 4.331 20.393,4.098 21.004,4.383 21.408 C 4.447 21.499,4.572 21.610,4.660 21.656 L 4.820 21.740 11.880 21.751 C 16.920 21.758,19.001 21.749,19.154 21.717 C 19.902 21.562,19.929 20.473,19.189 20.286 C 18.978 20.233,5.035 20.225,4.815 20.278 " stroke="none" fill-rule="evenodd" fill="black"></path></svg>