<svg width="24" height="24" viewBox="0 0 24 24" fill="none" xmlns="http://www.w3.org/2000/svg"><path d="M2.720 3.805 C 2.458 3.909,2.269 4.200,2.269 4.500 C 2.269 4.807,2.460 5.095,2.733 5.197 C 2.891 5.257,21.109 5.257,21.267 5.197 C 21.540 5.095,21.731 4.807,21.731 4.500 C 21.731 4.193,21.540 3.905,21.267 3.803 C 21.116 3.745,2.864 3.747,2.720 3.805 M2.720 8.805 C 2.458 8.909,2.269 9.200,2.269 9.500 C 2.269 9.807,2.460 10.095,2.733 10.197 C 2.810 10.227,4.597 10.240,8.484 10.240 C 13.948 10.240,14.128 10.238,14.272 10.164 C 14.554 10.019,14.680 9.814,14.680 9.500 C 14.680 9.186,14.554 8.981,14.272 8.836 C 14.128 8.762,13.951 8.760,8.472 8.763 C 4.827 8.764,2.784 8.779,2.720 8.805 M17.700 8.835 C 17.510 8.923,17.424 9.012,17.342 9.210 C 17.228 9.483,17.303 9.869,17.506 10.048 C 17.714 10.233,17.784 10.240,19.516 10.240 C 20.577 10.240,21.195 10.225,21.267 10.197 C 21.540 10.095,21.731 9.807,21.731 9.500 C 21.731 9.193,21.540 8.905,21.267 8.803 C 21.194 8.775,20.576 8.760,19.507 8.761 C 17.995 8.762,17.847 8.768,17.700 8.835 M2.720 13.805 C 2.458 13.909,2.269 14.200,2.269 14.500 C 2.269 14.807,2.460 15.095,2.733 15.197 C 2.891 15.257,21.109 15.257,21.267 15.197 C 21.540 15.095,21.731 14.807,21.731 14.500 C 21.731 14.193,21.540 13.905,21.267 13.803 C 21.116 13.745,2.864 13.747,2.720 13.805 M2.720 18.805 C 2.458 18.909,2.269 19.200,2.269 19.500 C 2.269 19.807,2.460 20.095,2.733 20.197 C 2.891 20.257,21.109 20.257,21.267 20.197 C 21.540 20.095,21.731 19.807,21.731 19.500 C 21.731 19.193,21.540 18.905,21.267 18.803 C 21.116 18.745,2.864 18.747,2.720 18.805 " stroke="none" fill-rule="evenodd" fill="black"></path></svg>