<svg width="24" height="24" viewBox="0 0 24 24" fill="none" xmlns="http://www.w3.org/2000/svg"><path d="M11.720 3.805 C 11.458 3.909,11.269 4.200,11.269 4.500 C 11.269 4.807,11.460 5.095,11.733 5.197 C 11.810 5.227,13.308 5.240,16.500 5.240 C 19.692 5.240,21.190 5.227,21.267 5.197 C 21.540 5.095,21.731 4.807,21.731 4.500 C 21.731 4.193,21.540 3.905,21.267 3.803 C 21.117 3.746,11.864 3.748,11.720 3.805 M11.720 8.805 C 11.458 8.909,11.269 9.200,11.269 9.500 C 11.269 9.807,11.460 10.095,11.733 10.197 C 11.810 10.227,13.308 10.240,16.500 10.240 C 19.692 10.240,21.190 10.227,21.267 10.197 C 21.540 10.095,21.731 9.807,21.731 9.500 C 21.731 9.193,21.540 8.905,21.267 8.803 C 21.117 8.746,11.864 8.748,11.720 8.805 M2.720 13.805 C 2.458 13.909,2.269 14.200,2.269 14.500 C 2.269 14.807,2.460 15.095,2.733 15.197 C 2.891 15.257,21.109 15.257,21.267 15.197 C 21.540 15.095,21.731 14.807,21.731 14.500 C 21.731 14.193,21.540 13.905,21.267 13.803 C 21.116 13.745,2.864 13.747,2.720 13.805 M2.720 18.805 C 2.458 18.909,2.269 19.200,2.269 19.500 C 2.269 19.807,2.460 20.095,2.733 20.197 C 2.810 20.227,4.597 20.240,8.484 20.240 C 13.948 20.240,14.128 20.238,14.272 20.164 C 14.554 20.019,14.680 19.814,14.680 19.500 C 14.680 19.186,14.554 18.981,14.272 18.836 C 14.128 18.762,13.951 18.760,8.472 18.763 C 4.827 18.764,2.784 18.779,2.720 18.805 M17.700 18.835 C 17.510 18.923,17.424 19.012,17.342 19.210 C 17.228 19.483,17.303 19.869,17.506 20.048 C 17.714 20.233,17.784 20.240,19.516 20.240 C 20.577 20.240,21.195 20.225,21.267 20.197 C 21.540 20.095,21.731 19.807,21.731 19.500 C 21.731 19.193,21.540 18.905,21.267 18.803 C 21.194 18.775,20.576 18.760,19.507 18.761 C 17.995 18.762,17.847 18.768,17.700 18.835 " stroke="none" fill-rule="evenodd" fill="black"></path></svg>