<svg width="24" height="24" viewBox="0 0 24 24" fill="none" xmlns="http://www.w3.org/2000/svg"><path d="M2.720 3.805 C 2.458 3.909,2.269 4.200,2.269 4.500 C 2.269 4.807,2.460 5.095,2.733 5.197 C 2.810 5.227,4.597 5.240,8.484 5.240 C 13.948 5.240,14.128 5.238,14.272 5.164 C 14.554 5.019,14.680 4.814,14.680 4.500 C 14.680 4.186,14.554 3.981,14.272 3.836 C 14.128 3.762,13.951 3.760,8.472 3.763 C 4.827 3.764,2.784 3.779,2.720 3.805 M17.700 3.835 C 17.510 3.923,17.424 4.012,17.342 4.210 C 17.228 4.483,17.303 4.869,17.506 5.048 C 17.714 5.233,17.784 5.240,19.516 5.240 C 20.577 5.240,21.195 5.225,21.267 5.197 C 21.540 5.095,21.731 4.807,21.731 4.500 C 21.731 4.193,21.540 3.905,21.267 3.803 C 21.194 3.775,20.576 3.760,19.507 3.761 C 17.995 3.762,17.847 3.768,17.700 3.835 M11.220 8.823 C 10.933 8.972,10.800 9.189,10.800 9.509 C 10.800 9.748,10.895 9.939,11.094 10.097 L 11.247 10.220 16.154 10.232 C 18.852 10.238,21.119 10.232,21.191 10.220 C 21.345 10.192,21.578 9.999,21.668 9.825 C 21.749 9.668,21.750 9.333,21.669 9.179 C 21.588 9.024,21.409 8.856,21.267 8.803 C 21.190 8.773,19.618 8.760,16.247 8.760 C 11.879 8.760,11.327 8.767,11.220 8.823 M2.720 13.805 C 2.458 13.909,2.269 14.200,2.269 14.500 C 2.269 14.807,2.460 15.095,2.733 15.197 C 2.891 15.257,21.109 15.257,21.267 15.197 C 21.540 15.095,21.731 14.807,21.731 14.500 C 21.731 14.193,21.540 13.905,21.267 13.803 C 21.116 13.745,2.864 13.747,2.720 13.805 M11.220 18.823 C 10.933 18.972,10.800 19.189,10.800 19.509 C 10.800 19.748,10.895 19.939,11.094 20.097 L 11.247 20.220 16.154 20.232 C 18.852 20.238,21.119 20.232,21.191 20.220 C 21.345 20.192,21.578 19.999,21.668 19.825 C 21.749 19.668,21.750 19.333,21.669 19.179 C 21.588 19.024,21.409 18.856,21.267 18.803 C 21.190 18.773,19.618 18.760,16.247 18.760 C 11.879 18.760,11.327 18.767,11.220 18.823 " stroke="none" fill-rule="evenodd" fill="black"></path></svg>