<svg width="24" height="24" viewBox="0 0 24 24" fill="none" xmlns="http://www.w3.org/2000/svg"><path d="M9.540 2.259 C 9.518 2.267,9.451 2.284,9.391 2.297 C 9.244 2.329,9.001 2.548,8.934 2.708 C 8.823 2.973,8.879 3.289,9.073 3.494 C 9.313 3.748,9.234 3.739,11.350 3.752 C 12.412 3.758,13.280 3.772,13.280 3.782 C 13.280 3.792,12.713 6.068,12.020 8.840 C 11.327 11.612,10.760 13.946,10.760 14.027 C 10.760 14.237,10.904 14.508,11.075 14.621 C 11.435 14.858,11.948 14.745,12.139 14.385 C 12.176 14.316,12.795 11.902,13.516 9.020 L 14.825 3.780 16.942 3.760 L 19.060 3.740 19.240 3.634 C 19.726 3.348,19.726 2.652,19.240 2.366 L 19.060 2.260 14.320 2.253 C 11.713 2.249,9.562 2.252,9.540 2.259 M10.260 17.287 C 10.073 17.357,9.942 17.463,9.865 17.607 C 9.826 17.680,9.655 18.298,9.485 18.980 L 9.175 20.220 7.035 20.240 L 4.894 20.260 4.732 20.367 C 4.494 20.525,4.387 20.722,4.387 21.000 C 4.387 21.278,4.494 21.475,4.732 21.633 L 4.894 21.740 9.697 21.740 C 12.339 21.740,14.548 21.727,14.607 21.710 C 14.865 21.638,15.117 21.292,15.119 21.009 C 15.121 20.747,14.946 20.462,14.700 20.326 C 14.594 20.268,14.357 20.259,12.650 20.248 C 11.588 20.242,10.720 20.228,10.720 20.217 C 10.720 20.206,10.837 19.731,10.980 19.160 C 11.123 18.589,11.240 18.055,11.240 17.974 C 11.240 17.761,11.096 17.492,10.921 17.376 C 10.749 17.262,10.438 17.220,10.260 17.287 " stroke="none" fill-rule="evenodd" fill="black"></path></svg>