<svg width="24" height="24" viewBox="0 0 24 24" fill="none" xmlns="http://www.w3.org/2000/svg"><path d="M6.009 3.282 C 4.602 3.361,3.702 3.597,2.971 4.079 C 1.764 4.874,1.286 6.209,1.266 8.839 C 1.260 9.762,1.264 9.786,1.475 10.013 C 1.629 10.179,1.688 10.202,2.118 10.258 C 2.611 10.322,2.890 10.448,3.202 10.745 C 3.910 11.420,3.932 12.492,3.255 13.202 C 2.942 13.530,2.640 13.674,2.126 13.741 C 1.688 13.798,1.629 13.820,1.475 13.987 C 1.264 14.214,1.260 14.238,1.266 15.161 C 1.283 17.435,1.626 18.664,2.481 19.519 C 3.149 20.188,4.044 20.531,5.520 20.687 C 6.247 20.764,17.753 20.764,18.480 20.687 C 20.259 20.499,21.274 20.010,21.921 19.029 C 22.424 18.264,22.635 17.427,22.721 15.842 C 22.772 14.893,22.745 14.705,22.523 14.483 C 22.365 14.325,22.132 14.240,21.858 14.240 C 21.625 14.240,21.300 14.127,21.045 13.957 C 20.589 13.652,20.345 13.239,20.259 12.622 C 20.187 12.103,20.097 11.950,19.790 11.822 C 19.385 11.652,18.933 11.856,18.797 12.270 C 18.738 12.448,18.770 13.001,18.859 13.340 C 19.127 14.363,20.085 15.359,21.035 15.602 L 21.249 15.657 21.222 16.059 C 21.143 17.252,20.900 18.019,20.466 18.451 C 20.111 18.806,19.624 19.010,18.815 19.147 C 18.406 19.216,17.998 19.220,12.000 19.220 C 5.977 19.220,5.595 19.216,5.180 19.146 C 4.424 19.019,3.818 18.768,3.522 18.461 C 3.070 17.992,2.822 17.117,2.773 15.817 L 2.748 15.174 3.033 15.082 C 3.909 14.801,4.757 13.968,5.061 13.092 C 5.300 12.404,5.300 11.596,5.061 10.908 C 4.757 10.032,3.909 9.199,3.033 8.918 L 2.748 8.826 2.773 8.183 C 2.822 6.883,3.070 6.008,3.522 5.539 C 3.818 5.232,4.424 4.981,5.180 4.854 C 5.595 4.784,5.977 4.780,12.000 4.780 C 18.023 4.780,18.405 4.784,18.820 4.854 C 19.576 4.981,20.182 5.232,20.478 5.539 C 20.666 5.734,20.863 6.095,20.974 6.450 C 21.163 7.049,21.205 7.440,21.233 8.880 C 21.259 10.189,21.262 10.223,21.353 10.369 C 21.719 10.958,22.580 10.810,22.722 10.134 C 22.778 9.869,22.751 8.199,22.679 7.478 C 22.540 6.069,22.181 5.141,21.520 4.480 C 20.869 3.829,20.013 3.492,18.560 3.315 C 18.107 3.260,6.921 3.230,6.009 3.282 M15.060 8.277 C 14.833 8.383,8.027 15.202,7.941 15.409 C 7.797 15.759,7.953 16.169,8.299 16.350 C 8.488 16.448,8.803 16.429,9.007 16.308 C 9.231 16.175,15.930 9.464,16.022 9.281 C 16.108 9.108,16.112 8.778,16.030 8.619 C 15.843 8.260,15.416 8.110,15.060 8.277 M8.800 8.277 C 8.188 8.404,7.831 9.083,8.083 9.640 C 8.193 9.882,8.340 10.031,8.580 10.145 C 9.062 10.373,9.639 10.177,9.892 9.700 C 10.004 9.489,10.012 9.045,9.908 8.836 C 9.706 8.430,9.226 8.188,8.800 8.277 M14.580 13.855 C 13.804 14.222,13.814 15.305,14.597 15.652 C 15.081 15.866,15.667 15.648,15.908 15.164 C 16.012 14.955,16.004 14.511,15.892 14.300 C 15.639 13.823,15.062 13.627,14.580 13.855 " stroke="none" fill-rule="evenodd" fill="black"></path></svg>