<svg width="24" height="24" viewBox="0 0 24 24" fill="none" xmlns="http://www.w3.org/2000/svg"><path d="M6.009 3.282 C 4.260 3.381,3.206 3.743,2.460 4.502 C 1.724 5.250,1.353 6.381,1.295 8.060 C 1.270 8.783,1.293 8.868,1.573 9.095 C 1.700 9.198,1.762 9.215,2.093 9.243 C 2.300 9.261,2.583 9.305,2.722 9.340 C 3.472 9.535,4.164 10.126,4.501 10.860 C 4.653 11.192,4.707 11.402,4.740 11.780 C 4.780 12.247,4.799 12.316,4.928 12.463 C 5.096 12.655,5.260 12.731,5.500 12.731 C 5.740 12.731,5.904 12.655,6.072 12.463 C 6.226 12.288,6.258 12.125,6.227 11.684 C 6.102 9.923,4.843 8.385,3.144 7.916 C 2.804 7.823,2.800 7.820,2.800 7.695 C 2.800 7.459,2.957 6.646,3.060 6.353 C 3.270 5.751,3.561 5.410,4.060 5.179 C 4.743 4.863,5.216 4.795,6.888 4.771 L 8.235 4.751 8.248 6.226 C 8.261 7.837,8.258 7.812,8.506 8.047 C 8.783 8.309,9.217 8.309,9.494 8.047 C 9.742 7.812,9.739 7.837,9.752 6.228 L 9.765 4.757 14.112 4.770 C 18.045 4.782,18.496 4.790,18.840 4.854 C 19.360 4.949,19.610 5.024,19.951 5.186 C 20.615 5.501,20.960 6.078,21.147 7.185 C 21.215 7.588,21.220 7.940,21.220 12.000 C 21.220 16.060,21.215 16.412,21.147 16.815 C 20.890 18.342,20.372 18.865,18.840 19.146 C 18.497 19.209,18.040 19.217,14.112 19.230 L 9.765 19.244 9.752 17.772 C 9.739 16.163,9.742 16.188,9.494 15.953 C 9.353 15.819,9.201 15.760,9.000 15.760 C 8.799 15.760,8.647 15.819,8.506 15.953 C 8.258 16.188,8.261 16.162,8.248 17.775 L 8.235 19.249 6.888 19.229 C 5.887 19.214,5.442 19.192,5.160 19.143 C 3.975 18.936,3.434 18.579,3.114 17.792 C 2.989 17.485,2.860 16.903,2.817 16.452 L 2.790 16.164 2.905 16.138 C 3.716 15.952,3.977 15.737,3.973 15.259 C 3.970 14.940,3.812 14.708,3.511 14.582 C 3.312 14.499,3.219 14.503,2.831 14.615 C 2.649 14.667,2.349 14.722,2.164 14.738 C 1.770 14.771,1.661 14.807,1.505 14.953 C 1.328 15.118,1.280 15.275,1.280 15.692 C 1.280 16.561,1.465 17.692,1.706 18.295 C 2.305 19.792,3.369 20.460,5.520 20.687 C 6.247 20.764,17.752 20.764,18.480 20.687 C 19.956 20.531,20.851 20.188,21.519 19.519 C 22.188 18.851,22.531 17.956,22.687 16.480 C 22.763 15.762,22.763 8.238,22.687 7.520 C 22.532 6.045,22.188 5.150,21.520 4.481 C 20.870 3.830,20.013 3.492,18.560 3.315 C 18.107 3.260,6.921 3.230,6.009 3.282 M14.173 8.460 C 13.862 8.617,13.700 8.828,13.391 9.476 C 13.238 9.797,13.108 10.065,13.101 10.072 C 13.095 10.078,12.795 10.128,12.435 10.182 C 11.639 10.301,11.490 10.353,11.242 10.602 C 11.013 10.831,10.902 11.110,10.908 11.445 C 10.915 11.821,11.023 12.000,11.599 12.580 L 12.114 13.100 11.995 13.780 C 11.868 14.505,11.868 14.690,11.993 14.974 C 12.106 15.228,12.259 15.383,12.528 15.518 C 12.724 15.615,12.824 15.640,13.026 15.640 C 13.325 15.640,13.448 15.595,14.140 15.229 C 14.557 15.009,14.700 14.952,14.860 14.945 C 15.269 14.927,15.554 14.670,15.590 14.285 C 15.639 13.784,15.233 13.424,14.627 13.429 C 14.430 13.431,14.327 13.464,13.971 13.637 C 13.739 13.750,13.540 13.833,13.529 13.823 C 13.519 13.812,13.540 13.608,13.577 13.369 C 13.681 12.690,13.620 12.506,13.114 11.978 L 12.794 11.645 12.927 11.623 C 13.000 11.611,13.218 11.575,13.412 11.544 C 13.670 11.502,13.813 11.454,13.952 11.364 C 14.167 11.225,14.242 11.121,14.491 10.622 L 14.669 10.265 14.874 10.664 C 15.090 11.085,15.152 11.169,15.375 11.339 C 15.531 11.458,15.670 11.504,16.040 11.560 C 16.183 11.582,16.360 11.610,16.434 11.622 L 16.567 11.645 16.192 12.032 C 15.780 12.459,15.720 12.579,15.720 12.982 C 15.720 13.411,15.962 13.722,16.342 13.782 C 16.692 13.837,17.056 13.620,17.161 13.293 C 17.196 13.184,17.368 12.979,17.759 12.580 C 18.230 12.099,18.318 11.989,18.379 11.805 C 18.519 11.380,18.410 10.892,18.106 10.588 C 17.888 10.370,17.675 10.297,16.947 10.189 C 16.578 10.134,16.270 10.082,16.263 10.074 C 16.256 10.067,16.111 9.783,15.940 9.445 C 15.496 8.565,15.300 8.394,14.700 8.369 C 14.418 8.357,14.355 8.368,14.173 8.460 " stroke="none" fill-rule="evenodd" fill="black"></path></svg>