<svg width="24" height="24" viewBox="0 0 24 24" fill="none" xmlns="http://www.w3.org/2000/svg"><path d="M8.080 1.282 C 4.042 1.493,1.931 3.265,1.398 6.891 C 1.310 7.494,1.225 8.895,1.264 9.113 C 1.278 9.194,1.325 9.318,1.368 9.389 C 1.658 9.870,2.422 9.836,2.661 9.332 C 2.718 9.212,2.740 9.022,2.765 8.423 C 2.900 5.187,3.905 3.654,6.288 3.044 C 7.337 2.776,7.247 2.780,12.000 2.780 C 15.936 2.780,16.339 2.786,16.760 2.852 C 19.558 3.288,20.712 4.442,21.148 7.240 C 21.214 7.661,21.220 8.064,21.220 12.000 C 21.220 15.936,21.214 16.339,21.148 16.760 C 20.712 19.558,19.558 20.712,16.760 21.148 C 16.339 21.214,15.936 21.220,12.000 21.220 C 8.064 21.220,7.661 21.214,7.240 21.148 C 4.756 20.761,3.576 19.795,3.044 17.712 C 2.820 16.833,2.790 16.496,2.764 14.560 C 2.742 12.923,2.734 12.768,2.664 12.628 C 2.404 12.104,1.668 12.083,1.353 12.591 C 1.263 12.736,1.260 12.771,1.247 13.820 C 1.224 15.671,1.333 17.073,1.575 18.027 C 2.267 20.757,3.971 22.193,7.027 22.622 C 7.786 22.728,8.902 22.759,12.000 22.759 C 15.098 22.759,16.214 22.728,16.973 22.622 C 19.443 22.275,20.996 21.288,21.897 19.490 C 22.379 18.530,22.638 17.369,22.720 15.807 C 22.771 14.838,22.771 9.162,22.720 8.193 C 22.657 6.998,22.521 6.191,22.242 5.356 C 21.632 3.531,20.469 2.367,18.650 1.760 C 17.788 1.473,17.023 1.344,15.806 1.280 C 14.952 1.235,8.952 1.237,8.080 1.282 M15.718 8.635 C 15.488 8.782,14.434 9.858,14.340 10.039 C 14.252 10.211,14.247 10.540,14.331 10.701 C 14.412 10.856,14.591 11.024,14.733 11.077 C 14.876 11.132,15.123 11.132,15.267 11.078 C 15.401 11.028,16.698 9.752,16.788 9.581 C 16.884 9.400,16.869 9.083,16.756 8.882 C 16.552 8.519,16.074 8.405,15.718 8.635 M7.665 11.288 C 7.304 11.386,7.085 11.785,7.169 12.190 C 7.207 12.371,7.283 12.455,8.694 13.874 C 9.532 14.717,10.236 15.393,10.309 15.424 C 10.462 15.491,10.751 15.497,10.907 15.437 C 11.021 15.394,13.570 12.899,13.770 12.635 C 13.964 12.379,13.957 11.999,13.754 11.741 C 13.566 11.503,13.159 11.412,12.853 11.540 C 12.761 11.579,12.323 11.983,11.663 12.639 L 10.617 13.678 9.499 12.557 C 8.883 11.941,8.326 11.403,8.260 11.362 C 8.104 11.266,7.859 11.236,7.665 11.288 " stroke="none" fill-rule="evenodd" fill="black"></path></svg>