<svg width="24" height="24" viewBox="0 0 24 24" fill="none" xmlns="http://www.w3.org/2000/svg"><path d="M6.009 3.282 C 4.602 3.361,3.702 3.597,2.971 4.079 C 1.764 4.874,1.286 6.209,1.266 8.839 C 1.260 9.762,1.264 9.786,1.475 10.013 C 1.629 10.179,1.688 10.202,2.118 10.258 C 2.611 10.322,2.890 10.448,3.202 10.745 C 3.910 11.420,3.932 12.492,3.255 13.202 C 2.942 13.530,2.640 13.674,2.126 13.741 C 1.688 13.798,1.629 13.820,1.475 13.987 C 1.264 14.214,1.260 14.238,1.266 15.161 C 1.283 17.435,1.626 18.664,2.481 19.519 C 3.149 20.188,4.044 20.531,5.520 20.687 C 6.247 20.764,17.753 20.764,18.480 20.687 C 20.259 20.499,21.274 20.010,21.921 19.029 C 22.424 18.264,22.635 17.427,22.721 15.842 C 22.772 14.893,22.745 14.705,22.523 14.483 C 22.365 14.325,22.132 14.240,21.858 14.240 C 21.625 14.240,21.300 14.127,21.045 13.957 C 20.589 13.652,20.345 13.239,20.259 12.622 C 20.187 12.103,20.097 11.950,19.790 11.822 C 19.385 11.652,18.933 11.856,18.797 12.270 C 18.738 12.448,18.770 13.001,18.859 13.340 C 19.127 14.363,20.085 15.359,21.035 15.602 L 21.249 15.657 21.222 16.059 C 21.100 17.895,20.627 18.679,19.440 19.014 C 18.735 19.214,18.710 19.215,14.600 19.230 L 10.740 19.244 10.752 16.656 C 10.760 14.844,10.750 14.003,10.718 13.851 C 10.580 13.183,9.717 13.044,9.353 13.631 L 9.260 13.780 9.260 16.514 L 9.260 19.248 7.380 19.228 C 5.729 19.211,5.449 19.199,5.080 19.130 C 4.361 18.995,3.806 18.756,3.522 18.461 C 3.070 17.992,2.822 17.117,2.773 15.817 L 2.748 15.174 3.033 15.082 C 3.909 14.801,4.757 13.968,5.061 13.092 C 5.300 12.404,5.300 11.596,5.061 10.908 C 4.757 10.032,3.909 9.199,3.033 8.918 L 2.748 8.826 2.773 8.183 C 2.822 6.883,3.070 6.008,3.522 5.539 C 3.806 5.244,4.360 5.006,5.080 4.870 C 5.450 4.800,5.725 4.788,7.368 4.772 L 9.237 4.753 9.248 6.986 L 9.260 9.220 9.353 9.369 C 9.710 9.943,10.576 9.812,10.716 9.162 C 10.745 9.027,10.760 8.239,10.760 6.856 L 10.760 4.756 14.630 4.771 C 18.322 4.786,18.519 4.790,18.920 4.868 C 19.645 5.008,20.195 5.245,20.478 5.539 C 20.666 5.734,20.863 6.095,20.974 6.450 C 21.163 7.049,21.205 7.440,21.233 8.880 C 21.259 10.189,21.262 10.223,21.353 10.369 C 21.719 10.958,22.580 10.810,22.722 10.134 C 22.778 9.869,22.751 8.199,22.679 7.478 C 22.540 6.069,22.181 5.141,21.520 4.480 C 20.869 3.829,20.013 3.492,18.560 3.315 C 18.107 3.260,6.921 3.230,6.009 3.282 " stroke="none" fill-rule="evenodd" fill="black"></path></svg>