<svg width="24" height="24" viewBox="0 0 24 24" fill="none" xmlns="http://www.w3.org/2000/svg"><path d="M11.560 1.267 C 10.326 1.322,9.152 1.571,8.041 2.012 C 7.427 2.256,7.240 2.454,7.240 2.860 C 7.240 3.229,7.525 3.548,7.892 3.589 C 8.032 3.605,8.152 3.574,8.523 3.428 C 9.718 2.955,10.735 2.760,12.006 2.760 C 13.464 2.760,14.754 3.058,16.060 3.698 C 17.024 4.170,17.648 4.611,18.434 5.378 C 19.273 6.195,19.814 6.937,20.303 7.940 C 20.944 9.253,21.240 10.537,21.240 12.000 C 21.240 13.465,20.943 14.752,20.302 16.060 C 19.830 17.024,19.389 17.648,18.622 18.434 C 17.805 19.273,17.063 19.814,16.060 20.303 C 14.747 20.944,13.463 21.240,12.000 21.240 C 10.537 21.240,9.253 20.944,7.940 20.303 C 6.937 19.814,6.195 19.273,5.378 18.434 C 4.611 17.648,4.170 17.024,3.698 16.060 C 3.058 14.754,2.760 13.464,2.760 12.005 C 2.760 10.060,3.331 8.256,4.457 6.648 C 4.701 6.298,4.770 6.095,4.724 5.855 C 4.656 5.497,4.372 5.267,4.000 5.267 C 3.678 5.267,3.534 5.369,3.222 5.816 C 1.432 8.383,0.834 11.537,1.564 14.550 C 1.904 15.951,2.529 17.268,3.424 18.470 C 3.880 19.083,4.909 20.111,5.530 20.575 C 7.606 22.126,10.070 22.870,12.627 22.717 C 14.790 22.588,16.724 21.879,18.470 20.575 C 19.087 20.115,20.115 19.087,20.575 18.470 C 22.127 16.391,22.870 13.930,22.717 11.373 C 22.588 9.210,21.879 7.276,20.575 5.530 C 20.115 4.913,19.087 3.885,18.470 3.425 C 17.047 2.362,15.454 1.679,13.742 1.398 C 13.325 1.330,12.055 1.227,11.880 1.248 C 11.847 1.252,11.703 1.261,11.560 1.267 M15.718 8.635 C 15.488 8.782,14.434 9.858,14.340 10.039 C 14.252 10.211,14.247 10.540,14.331 10.701 C 14.412 10.856,14.591 11.024,14.733 11.077 C 14.876 11.132,15.123 11.132,15.267 11.078 C 15.401 11.028,16.698 9.752,16.788 9.581 C 16.884 9.400,16.869 9.083,16.756 8.882 C 16.552 8.519,16.074 8.405,15.718 8.635 M7.665 11.288 C 7.304 11.386,7.085 11.785,7.169 12.190 C 7.207 12.371,7.283 12.455,8.694 13.874 C 9.532 14.717,10.236 15.393,10.309 15.424 C 10.462 15.491,10.751 15.497,10.907 15.437 C 11.021 15.394,13.570 12.899,13.770 12.635 C 13.964 12.379,13.957 11.999,13.754 11.741 C 13.566 11.503,13.159 11.412,12.853 11.540 C 12.761 11.579,12.323 11.983,11.663 12.639 L 10.617 13.678 9.499 12.557 C 8.883 11.941,8.326 11.403,8.260 11.362 C 8.104 11.266,7.859 11.236,7.665 11.288 " stroke="none" fill-rule="evenodd" fill="black"></path></svg>