<svg width="24" height="24" viewBox="0 0 24 24" fill="none" xmlns="http://www.w3.org/2000/svg"><path d="M12.810 1.565 C 12.103 1.646,11.280 2.072,10.440 2.792 C 10.297 2.915,9.442 3.748,8.540 4.643 L 6.900 6.270 6.320 6.293 C 4.417 6.368,3.203 6.938,2.542 8.067 C 2.340 8.412,2.108 9.097,2.023 9.600 C 1.929 10.155,1.872 11.055,1.887 11.763 C 1.900 12.420,1.901 12.428,2.013 12.574 C 2.182 12.795,2.281 12.842,2.704 12.902 C 3.179 12.968,3.453 13.095,3.739 13.381 C 3.993 13.635,4.148 13.936,4.191 14.260 C 4.261 14.791,4.108 15.250,3.739 15.619 C 3.453 15.905,3.179 16.032,2.704 16.098 C 2.281 16.158,2.181 16.205,2.013 16.426 L 1.900 16.574 1.903 17.597 C 1.907 18.710,1.962 19.251,2.143 19.947 C 2.538 21.468,3.519 22.302,5.262 22.600 C 6.062 22.737,7.026 22.760,12.000 22.760 C 16.979 22.760,17.938 22.737,18.742 22.600 C 20.387 22.318,21.317 21.583,21.775 20.200 C 21.992 19.545,22.119 18.587,22.120 17.603 C 22.120 17.224,22.106 17.116,22.039 16.977 C 21.916 16.725,21.716 16.605,21.336 16.561 C 20.794 16.496,20.567 16.395,20.255 16.081 C 19.996 15.820,19.854 15.537,19.802 15.180 C 19.779 15.026,19.750 14.841,19.738 14.769 C 19.726 14.697,19.659 14.573,19.589 14.493 C 19.205 14.056,18.499 14.198,18.317 14.749 C 18.261 14.918,18.292 15.435,18.375 15.740 C 18.651 16.743,19.438 17.586,20.390 17.898 L 20.600 17.966 20.600 18.213 C 20.600 18.557,20.526 19.124,20.435 19.480 C 20.155 20.574,19.561 21.011,18.120 21.181 C 17.716 21.229,16.964 21.240,14.190 21.240 L 10.760 21.240 10.760 19.142 C 10.760 17.761,10.745 16.973,10.716 16.838 C 10.575 16.182,9.713 16.051,9.353 16.631 L 9.260 16.780 9.248 19.014 L 9.237 21.247 7.568 21.230 C 5.746 21.211,5.442 21.181,4.839 20.961 C 4.150 20.711,3.834 20.370,3.606 19.630 C 3.491 19.258,3.403 18.593,3.390 18.009 L 3.380 17.518 3.650 17.423 C 4.591 17.092,5.388 16.219,5.626 15.259 C 5.721 14.878,5.720 14.076,5.624 13.720 C 5.365 12.756,4.581 11.905,3.650 11.577 L 3.380 11.482 3.392 10.991 C 3.423 9.776,3.643 8.970,4.068 8.516 C 4.282 8.287,4.479 8.166,4.860 8.030 C 5.448 7.819,5.763 7.789,7.568 7.770 L 9.237 7.753 9.248 9.986 L 9.260 12.220 9.353 12.369 C 9.710 12.943,10.576 12.812,10.716 12.162 C 10.745 12.027,10.760 11.239,10.760 9.856 L 10.760 7.756 14.410 7.770 C 17.658 7.783,18.101 7.792,18.437 7.853 C 19.783 8.101,20.271 8.581,20.500 9.884 C 20.574 10.307,20.639 11.374,20.639 12.191 C 20.640 12.860,20.669 12.984,20.865 13.167 C 21.012 13.305,21.160 13.360,21.384 13.360 C 21.707 13.360,21.981 13.160,22.083 12.850 C 22.152 12.641,22.107 10.618,22.019 9.960 C 21.803 8.344,21.219 7.374,20.129 6.824 C 19.579 6.546,18.703 6.346,17.840 6.301 C 17.587 6.288,17.265 6.267,17.125 6.255 L 16.870 6.233 16.896 6.013 C 16.930 5.723,17.008 5.547,17.221 5.274 C 17.319 5.150,17.417 5.000,17.439 4.942 C 17.503 4.773,17.487 4.490,17.404 4.328 C 17.324 4.174,16.348 3.194,15.858 2.776 C 14.743 1.826,13.799 1.451,12.810 1.565 M13.857 3.212 C 14.251 3.399,14.783 3.801,15.333 4.326 L 15.766 4.740 15.665 4.945 C 15.533 5.214,15.438 5.591,15.410 5.950 L 15.388 6.240 12.224 6.239 L 9.060 6.238 10.220 5.088 C 11.944 3.379,12.468 3.024,13.224 3.053 C 13.499 3.063,13.593 3.087,13.857 3.212 " stroke="none" fill-rule="evenodd" fill="black"></path></svg>