<svg width="24" height="24" viewBox="0 0 24 24" fill="none" xmlns="http://www.w3.org/2000/svg"><path d="M6.220 4.039 C 3.718 5.066,2.940 5.488,2.240 6.197 C 1.542 6.904,1.282 7.533,1.281 8.523 C 1.280 9.308,1.464 10.123,1.905 11.274 C 2.229 12.121,2.345 12.352,2.493 12.443 C 2.728 12.587,2.897 12.611,3.171 12.537 C 3.814 12.365,4.099 12.372,4.530 12.572 C 5.146 12.857,5.560 13.629,5.442 14.269 C 5.340 14.817,5.017 15.249,4.523 15.498 C 4.379 15.571,4.229 15.665,4.192 15.707 C 4.088 15.822,4.000 16.060,4.000 16.225 C 4.000 16.564,4.755 18.201,5.272 18.981 C 5.921 19.961,6.610 20.469,7.569 20.676 C 7.953 20.759,8.033 20.760,12.749 20.759 C 15.384 20.759,17.857 20.741,18.245 20.719 C 19.915 20.627,20.899 20.298,21.598 19.598 C 22.306 18.891,22.628 17.914,22.721 16.192 C 22.775 15.206,22.747 15.058,22.465 14.810 C 22.320 14.682,22.256 14.662,21.861 14.618 C 21.491 14.577,21.225 14.459,20.967 14.220 C 20.608 13.888,20.499 13.635,20.417 12.945 C 20.397 12.780,20.364 12.720,20.202 12.558 C 20.046 12.402,19.975 12.361,19.821 12.338 C 19.477 12.286,19.187 12.431,19.034 12.733 C 18.959 12.878,18.952 12.944,18.971 13.299 C 19.012 14.060,19.270 14.626,19.840 15.204 C 20.212 15.581,20.669 15.879,21.010 15.966 C 21.119 15.994,21.218 16.041,21.230 16.070 C 21.268 16.171,21.155 17.129,21.061 17.499 C 20.937 17.989,20.784 18.293,20.539 18.539 C 20.294 18.783,19.990 18.937,19.505 19.060 C 18.860 19.223,18.443 19.240,15.013 19.240 L 11.760 19.240 11.760 18.142 C 11.760 16.859,11.737 16.697,11.522 16.482 C 11.173 16.133,10.619 16.203,10.353 16.631 C 10.262 16.777,10.260 16.804,10.247 18.010 L 10.235 19.240 9.082 19.240 C 8.041 19.240,7.903 19.232,7.669 19.160 C 7.047 18.968,6.585 18.429,5.975 17.186 L 5.678 16.580 5.921 16.365 C 6.336 15.997,6.676 15.439,6.863 14.820 C 6.977 14.446,6.969 13.594,6.848 13.212 C 6.397 11.778,5.250 10.920,3.786 10.920 L 3.367 10.920 3.240 10.590 C 2.908 9.725,2.734 8.895,2.771 8.355 C 2.825 7.562,3.412 6.942,4.700 6.318 C 5.123 6.112,7.489 5.120,7.555 5.120 C 7.569 5.120,8.174 6.555,8.900 8.310 L 10.220 11.500 10.240 12.860 C 10.260 14.196,10.262 14.223,10.353 14.369 C 10.710 14.943,11.576 14.812,11.716 14.162 C 11.746 14.019,11.760 12.726,11.760 9.956 L 11.760 5.955 15.230 5.972 C 19.000 5.990,19.069 5.994,19.749 6.221 C 20.439 6.452,20.754 6.764,20.985 7.447 C 21.161 7.966,21.206 8.378,21.234 9.700 L 21.260 10.940 21.366 11.120 C 21.651 11.606,22.349 11.606,22.633 11.121 C 22.729 10.957,22.740 10.897,22.753 10.420 C 22.774 9.705,22.694 8.331,22.599 7.776 C 22.457 6.945,22.160 6.240,21.750 5.760 C 21.277 5.209,20.472 4.799,19.515 4.623 C 18.824 4.496,18.277 4.480,14.545 4.480 L 10.791 4.480 10.632 4.570 C 10.537 4.623,10.429 4.733,10.366 4.840 L 10.260 5.020 10.240 6.312 L 10.220 7.604 9.442 5.717 C 9.015 4.678,8.628 3.775,8.582 3.708 C 8.439 3.498,8.303 3.425,8.030 3.411 C 7.787 3.398,7.737 3.416,6.220 4.039 " stroke="none" fill-rule="evenodd" fill="black"></path></svg>