<svg width="24" height="24" viewBox="0 0 24 24" fill="none" xmlns="http://www.w3.org/2000/svg"><path d="M8.194 1.283 C 6.546 1.419,5.373 2.234,4.913 3.560 C 4.784 3.933,4.781 3.953,4.783 4.620 C 4.784 5.238,4.794 5.331,4.889 5.640 C 5.037 6.118,5.209 6.484,5.471 6.878 C 5.756 7.306,6.212 7.790,6.420 7.885 C 6.885 8.098,7.413 7.806,7.469 7.305 C 7.500 7.037,7.417 6.853,7.122 6.542 C 6.565 5.951,6.301 5.405,6.253 4.740 C 6.199 3.991,6.546 3.387,7.219 3.058 C 7.818 2.765,7.565 2.780,12.000 2.780 C 15.674 2.780,16.000 2.785,16.240 2.850 C 17.269 3.129,17.816 3.815,17.746 4.740 C 17.706 5.267,17.491 5.803,17.138 6.252 C 16.968 6.468,12.065 10.960,11.999 10.960 C 11.983 10.960,11.539 10.570,11.014 10.094 C 10.421 9.556,9.993 9.198,9.884 9.149 C 9.579 9.014,9.223 9.110,9.013 9.386 C 8.923 9.503,8.899 9.582,8.888 9.796 C 8.875 10.022,8.887 10.080,8.968 10.199 C 9.020 10.276,9.470 10.708,9.968 11.159 C 10.466 11.611,10.873 11.989,10.874 12.000 C 10.874 12.011,9.821 12.974,8.534 14.140 C 7.247 15.306,6.081 16.379,5.944 16.523 C 5.468 17.025,5.107 17.653,4.889 18.360 C 4.794 18.669,4.784 18.762,4.783 19.380 C 4.781 20.047,4.784 20.067,4.913 20.440 C 5.382 21.793,6.533 22.576,8.263 22.719 C 8.899 22.772,15.084 22.772,15.733 22.719 C 17.464 22.578,18.629 21.783,19.088 20.426 C 19.195 20.112,19.215 19.986,19.231 19.537 C 19.245 19.143,19.233 18.930,19.182 18.677 C 19.049 18.011,18.698 17.288,18.240 16.733 C 18.110 16.575,16.909 15.452,15.572 14.236 C 14.234 13.020,13.140 12.014,13.140 12.000 C 13.140 11.986,14.234 10.981,15.570 9.766 C 16.907 8.551,18.107 7.428,18.237 7.271 C 18.649 6.771,18.931 6.234,19.127 5.572 C 19.208 5.300,19.220 5.175,19.219 4.600 C 19.218 3.963,19.214 3.927,19.091 3.574 C 18.617 2.208,17.466 1.422,15.733 1.281 C 15.143 1.233,8.777 1.235,8.194 1.283 M14.492 15.278 C 15.847 16.510,17.038 17.621,17.138 17.748 C 17.338 18.003,17.565 18.435,17.660 18.742 C 17.694 18.851,17.733 19.084,17.746 19.260 C 17.815 20.175,17.302 20.837,16.299 21.128 L 15.980 21.220 12.000 21.220 C 8.326 21.220,8.000 21.215,7.760 21.150 C 7.178 20.992,6.693 20.661,6.460 20.264 C 6.065 19.590,6.231 18.553,6.861 17.749 C 7.029 17.535,11.932 13.040,11.997 13.040 C 12.014 13.040,13.136 14.047,14.492 15.278 " stroke="none" fill-rule="evenodd" fill="black"></path></svg>