<svg width="24" height="24" viewBox="0 0 24 24" fill="none" xmlns="http://www.w3.org/2000/svg"><path d="M8.815 1.278 C 8.331 1.393,8.098 2.004,8.383 2.408 C 8.447 2.499,8.572 2.610,8.660 2.656 C 8.818 2.739,8.865 2.740,11.878 2.751 C 14.020 2.759,15.000 2.749,15.151 2.718 C 15.902 2.562,15.931 1.473,15.189 1.286 C 14.979 1.234,9.033 1.226,8.815 1.278 M11.000 3.805 C 10.199 3.887,9.194 4.137,8.463 4.436 C 8.021 4.617,7.904 4.706,7.796 4.940 C 7.630 5.298,7.781 5.723,8.139 5.909 C 8.349 6.019,8.619 5.989,9.068 5.807 C 11.614 4.777,14.609 5.193,16.853 6.888 C 17.274 7.206,18.035 7.967,18.355 8.391 C 19.981 10.543,20.426 13.245,19.577 15.799 C 18.624 18.662,16.095 20.758,13.086 21.177 C 12.507 21.258,11.493 21.258,10.914 21.177 C 8.291 20.812,6.016 19.175,4.837 16.805 C 3.558 14.232,3.763 11.157,5.373 8.774 C 5.703 8.286,5.772 8.106,5.724 7.855 C 5.656 7.497,5.372 7.267,5.000 7.267 C 4.678 7.267,4.533 7.369,4.224 7.814 C 3.280 9.171,2.745 10.606,2.557 12.287 C 2.489 12.894,2.530 14.204,2.636 14.820 C 3.030 17.108,4.233 19.171,6.020 20.620 C 7.399 21.739,9.130 22.470,10.900 22.682 C 11.414 22.743,12.586 22.743,13.100 22.682 C 14.871 22.470,16.604 21.738,17.980 20.620 C 19.768 19.168,20.970 17.107,21.364 14.820 C 21.471 14.202,21.510 12.908,21.443 12.272 C 20.963 7.775,17.422 4.253,12.926 3.802 C 12.446 3.753,11.492 3.755,11.000 3.805 M11.815 7.277 C 11.638 7.321,11.461 7.456,11.353 7.631 L 11.260 7.780 11.260 10.500 L 11.260 13.220 11.353 13.369 C 11.710 13.943,12.576 13.812,12.716 13.162 C 12.775 12.888,12.775 8.095,12.717 7.841 C 12.623 7.432,12.215 7.177,11.815 7.277 " stroke="none" fill-rule="evenodd" fill="black"></path></svg>