<svg width="24" height="24" viewBox="0 0 24 24" fill="none" xmlns="http://www.w3.org/2000/svg"><path d="M8.815 1.278 C 8.331 1.393,8.098 2.004,8.383 2.408 C 8.447 2.499,8.572 2.610,8.660 2.656 C 8.818 2.739,8.865 2.740,11.878 2.751 C 14.020 2.759,15.000 2.749,15.151 2.718 C 15.902 2.562,15.931 1.473,15.189 1.286 C 14.979 1.234,9.033 1.226,8.815 1.278 M11.200 3.787 C 10.076 3.897,9.015 4.177,8.040 4.623 C 7.407 4.912,7.257 5.091,7.288 5.521 C 7.308 5.803,7.450 6.012,7.695 6.123 C 7.961 6.244,8.116 6.222,8.652 5.985 C 10.629 5.116,12.554 5.011,14.531 5.667 C 15.449 5.971,16.255 6.413,17.024 7.031 C 18.667 8.353,19.726 10.294,19.958 12.408 C 19.981 12.622,20.000 12.912,20.000 13.053 C 20.000 13.456,20.035 13.558,20.242 13.765 C 20.394 13.918,20.466 13.959,20.619 13.982 C 20.959 14.033,21.253 13.888,21.401 13.598 C 21.501 13.401,21.508 12.804,21.418 12.079 C 20.874 7.679,17.351 4.245,12.926 3.802 C 12.543 3.763,11.528 3.754,11.200 3.787 M4.797 7.278 C 4.598 7.338,4.478 7.452,4.227 7.815 C 3.274 9.193,2.754 10.585,2.558 12.287 C 2.489 12.891,2.529 14.198,2.636 14.820 C 2.804 15.794,3.087 16.647,3.538 17.540 C 4.920 20.271,7.517 22.153,10.573 22.639 C 11.056 22.716,11.963 22.758,12.174 22.713 C 12.723 22.596,12.924 21.884,12.522 21.482 C 12.341 21.301,12.129 21.240,11.684 21.240 C 11.507 21.240,11.161 21.212,10.914 21.177 C 8.291 20.812,6.016 19.175,4.837 16.805 C 3.845 14.811,3.729 12.450,4.521 10.389 C 4.713 9.889,5.042 9.272,5.397 8.742 C 5.747 8.221,5.806 8.043,5.719 7.773 C 5.598 7.394,5.171 7.165,4.797 7.278 M11.815 7.277 C 11.638 7.321,11.461 7.456,11.353 7.631 L 11.260 7.780 11.260 10.500 L 11.260 13.220 11.353 13.369 C 11.710 13.943,12.576 13.812,12.716 13.162 C 12.775 12.888,12.775 8.095,12.717 7.841 C 12.623 7.432,12.215 7.177,11.815 7.277 M15.815 16.277 C 15.638 16.321,15.461 16.456,15.353 16.631 L 15.260 16.780 15.260 19.000 L 15.260 21.220 15.353 21.369 C 15.710 21.943,16.576 21.812,16.716 21.162 C 16.774 20.891,16.775 17.093,16.717 16.841 C 16.623 16.432,16.215 16.177,15.815 16.277 M18.815 16.277 C 18.638 16.321,18.461 16.456,18.353 16.631 L 18.260 16.780 18.260 19.000 L 18.260 21.220 18.353 21.369 C 18.710 21.943,19.576 21.812,19.716 21.162 C 19.774 20.891,19.775 17.093,19.717 16.841 C 19.623 16.432,19.215 16.177,18.815 16.277 " stroke="none" fill-rule="evenodd" fill="black"></path></svg>