<svg width="24" height="24" viewBox="0 0 24 24" fill="none" xmlns="http://www.w3.org/2000/svg"><path d="M6.009 3.282 C 4.602 3.361,3.702 3.597,2.971 4.079 C 1.987 4.727,1.501 5.736,1.313 7.520 C 1.237 8.238,1.237 15.761,1.313 16.480 C 1.501 18.259,1.990 19.274,2.971 19.921 C 3.736 20.424,4.573 20.635,6.158 20.721 C 7.110 20.773,7.295 20.745,7.519 20.521 C 7.871 20.169,7.773 19.550,7.332 19.338 C 7.208 19.278,7.031 19.259,6.380 19.235 C 5.940 19.219,5.400 19.177,5.180 19.142 C 4.449 19.026,3.861 18.788,3.539 18.478 C 3.232 18.182,2.981 17.576,2.854 16.820 C 2.785 16.410,2.780 16.077,2.780 12.000 C 2.780 7.923,2.785 7.590,2.854 7.180 C 2.979 6.440,3.193 5.904,3.501 5.565 C 3.795 5.241,4.397 4.986,5.180 4.854 C 5.595 4.784,5.977 4.780,12.000 4.780 C 18.023 4.780,18.405 4.784,18.820 4.854 C 19.560 4.979,20.096 5.193,20.435 5.501 C 20.759 5.795,21.014 6.397,21.146 7.180 C 21.215 7.590,21.220 7.923,21.220 12.000 C 21.220 16.060,21.215 16.412,21.147 16.815 C 20.890 18.342,20.368 18.869,18.840 19.145 C 18.508 19.205,18.037 19.217,15.117 19.237 L 11.774 19.260 11.612 19.367 C 11.372 19.526,11.267 19.721,11.267 20.007 C 11.267 20.203,11.286 20.270,11.383 20.408 C 11.447 20.499,11.572 20.610,11.660 20.656 C 11.818 20.739,11.854 20.740,14.900 20.740 C 17.155 20.739,18.114 20.725,18.480 20.687 C 19.954 20.532,20.851 20.188,21.519 19.519 C 22.188 18.851,22.531 17.956,22.687 16.480 C 22.763 15.762,22.763 8.238,22.687 7.520 C 22.532 6.045,22.188 5.150,21.520 4.481 C 20.870 3.830,20.013 3.492,18.560 3.315 C 18.107 3.260,6.921 3.230,6.009 3.282 M12.960 7.265 C 11.110 7.403,10.195 8.114,9.854 9.680 C 9.788 9.985,9.780 10.222,9.780 12.000 C 9.780 13.778,9.788 14.015,9.854 14.320 C 10.158 15.718,10.965 16.461,12.420 16.685 C 12.930 16.763,16.070 16.763,16.580 16.685 C 18.003 16.466,18.807 15.748,19.128 14.407 C 19.203 14.092,19.213 13.905,19.229 12.405 C 19.239 11.494,19.235 10.688,19.221 10.614 C 19.192 10.455,19.000 10.223,18.825 10.132 C 18.677 10.056,18.334 10.049,18.198 10.119 C 18.075 10.182,17.888 10.354,17.827 10.460 C 17.794 10.516,17.773 11.042,17.758 12.180 C 17.740 13.550,17.724 13.866,17.666 14.100 C 17.522 14.681,17.268 14.966,16.747 15.130 C 16.465 15.218,16.423 15.220,14.500 15.220 C 12.577 15.220,12.535 15.218,12.253 15.130 C 11.733 14.966,11.483 14.687,11.332 14.100 C 11.268 13.850,11.260 13.622,11.260 12.000 C 11.260 10.378,11.268 10.150,11.332 9.900 C 11.481 9.322,11.728 9.040,12.232 8.874 C 12.486 8.790,12.587 8.784,14.200 8.763 C 16.058 8.738,16.010 8.744,16.247 8.494 C 16.381 8.353,16.440 8.201,16.440 8.000 C 16.440 7.799,16.381 7.647,16.247 7.506 C 16.012 7.258,16.030 7.260,14.520 7.256 C 13.761 7.254,13.059 7.258,12.960 7.265 " stroke="none" fill-rule="evenodd" fill="black"></path></svg>