<svg width="24" height="24" viewBox="0 0 24 24" fill="none" xmlns="http://www.w3.org/2000/svg"><path d="M9.360 3.280 C 6.569 3.475,4.001 5.042,2.536 7.443 C 1.923 8.446,1.520 9.572,1.339 10.780 C 1.249 11.376,1.249 12.624,1.339 13.220 C 1.664 15.389,2.750 17.350,4.368 18.689 C 5.854 19.918,7.561 20.602,9.440 20.720 C 10.122 20.763,10.312 20.728,10.520 20.520 C 10.871 20.169,10.773 19.548,10.332 19.339 C 10.222 19.286,10.026 19.258,9.620 19.235 C 7.796 19.134,6.173 18.409,4.882 17.118 C 3.842 16.078,3.168 14.817,2.873 13.360 C 2.792 12.959,2.780 12.784,2.780 12.000 C 2.780 11.216,2.792 11.041,2.873 10.640 C 3.168 9.183,3.842 7.922,4.882 6.882 C 5.922 5.842,7.183 5.168,8.640 4.873 C 9.096 4.781,9.122 4.780,12.000 4.780 C 14.878 4.780,14.904 4.781,15.360 4.873 C 16.817 5.168,18.078 5.842,19.118 6.882 C 20.153 7.917,20.835 9.189,21.122 10.620 C 21.233 11.173,21.273 12.313,21.202 12.854 C 20.917 15.010,19.776 16.857,17.995 18.046 C 17.182 18.589,16.264 18.952,15.193 19.154 C 14.694 19.248,14.565 19.307,14.412 19.507 C 14.313 19.636,14.300 19.688,14.300 19.940 C 14.300 20.192,14.313 20.244,14.412 20.373 C 14.474 20.454,14.599 20.559,14.691 20.606 C 14.832 20.678,14.900 20.687,15.146 20.666 C 15.875 20.604,17.003 20.265,17.824 19.860 C 19.223 19.170,20.421 18.126,21.265 16.860 C 22.028 15.717,22.505 14.436,22.683 13.060 C 22.742 12.599,22.742 11.406,22.682 10.940 C 22.466 9.248,21.791 7.700,20.689 6.368 C 19.543 4.983,17.864 3.941,16.077 3.506 C 15.143 3.279,15.020 3.271,12.320 3.259 C 10.945 3.253,9.613 3.262,9.360 3.280 M9.815 7.279 C 9.332 7.391,9.098 8.004,9.383 8.408 C 9.553 8.648,9.716 8.716,10.232 8.761 C 11.096 8.837,11.674 9.106,12.284 9.716 C 12.712 10.143,12.928 10.485,13.108 11.020 C 13.209 11.316,13.217 11.389,13.217 12.000 C 13.217 12.611,13.209 12.684,13.108 12.980 C 12.928 13.515,12.712 13.857,12.284 14.284 C 11.857 14.712,11.515 14.928,10.980 15.108 C 10.684 15.209,10.611 15.217,10.000 15.217 C 9.389 15.217,9.316 15.209,9.020 15.108 C 8.485 14.928,8.143 14.712,7.716 14.284 C 7.288 13.856,7.071 13.514,6.892 12.980 C 6.794 12.689,6.784 12.604,6.782 12.040 C 6.781 11.477,6.791 11.383,6.894 11.018 C 6.993 10.665,7.002 10.595,6.962 10.447 C 6.873 10.118,6.572 9.880,6.244 9.880 C 6.037 9.880,5.921 9.927,5.746 10.080 C 5.346 10.431,5.144 11.915,5.356 12.944 C 5.690 14.564,6.811 15.869,8.376 16.457 C 9.340 16.820,10.660 16.820,11.624 16.457 C 12.951 15.958,13.958 14.949,14.460 13.616 C 14.819 12.661,14.818 11.336,14.457 10.376 C 13.946 9.017,12.875 7.971,11.520 7.508 C 11.005 7.332,10.105 7.211,9.815 7.279 " stroke="none" fill-rule="evenodd" fill="black"></path></svg>