<svg width="24" height="24" viewBox="0 0 24 24" fill="none" xmlns="http://www.w3.org/2000/svg"><path d="M6.009 3.282 C 4.602 3.361,3.702 3.597,2.971 4.079 C 1.987 4.727,1.501 5.736,1.313 7.520 C 1.237 8.238,1.237 15.761,1.313 16.480 C 1.468 17.955,1.812 18.850,2.480 19.519 C 3.134 20.175,4.012 20.518,5.460 20.684 C 6.050 20.751,11.836 20.783,12.138 20.720 C 12.826 20.578,12.957 19.646,12.332 19.336 C 12.188 19.264,12.010 19.259,8.860 19.237 C 5.984 19.217,5.489 19.205,5.160 19.146 C 4.421 19.014,3.852 18.780,3.539 18.478 C 3.232 18.182,2.981 17.576,2.854 16.820 C 2.785 16.410,2.780 16.077,2.780 12.000 C 2.780 7.923,2.785 7.590,2.854 7.180 C 2.979 6.440,3.193 5.904,3.501 5.565 C 3.795 5.241,4.397 4.986,5.180 4.854 C 5.595 4.784,5.977 4.780,12.000 4.780 C 18.023 4.780,18.405 4.784,18.820 4.854 C 19.560 4.979,20.096 5.193,20.435 5.501 C 20.759 5.795,21.014 6.397,21.146 7.180 C 21.215 7.590,21.220 7.923,21.220 12.000 C 21.220 16.060,21.215 16.412,21.147 16.815 C 20.960 17.922,20.615 18.499,19.951 18.814 C 19.377 19.086,18.789 19.191,17.594 19.236 C 16.792 19.265,16.759 19.270,16.607 19.370 C 16.372 19.526,16.267 19.723,16.267 20.007 C 16.267 20.203,16.286 20.270,16.383 20.408 C 16.590 20.701,16.723 20.741,17.440 20.731 C 19.476 20.701,20.702 20.336,21.519 19.519 C 22.188 18.851,22.531 17.956,22.687 16.480 C 22.763 15.762,22.763 8.238,22.687 7.520 C 22.532 6.045,22.188 5.150,21.520 4.481 C 20.870 3.830,20.013 3.492,18.560 3.315 C 18.107 3.260,6.921 3.230,6.009 3.282 M8.220 7.257 C 8.198 7.266,8.131 7.284,8.071 7.297 C 7.924 7.329,7.681 7.548,7.614 7.708 C 7.503 7.973,7.559 8.289,7.753 8.494 C 7.990 8.744,7.942 8.738,9.800 8.763 C 11.413 8.784,11.514 8.790,11.768 8.874 C 12.272 9.040,12.519 9.322,12.668 9.900 C 12.732 10.149,12.740 10.377,12.740 11.980 C 12.740 13.567,12.732 13.815,12.669 14.080 C 12.527 14.677,12.275 14.964,11.747 15.130 C 11.465 15.218,11.423 15.220,9.500 15.220 C 7.577 15.220,7.535 15.218,7.253 15.130 C 6.747 14.971,6.515 14.723,6.346 14.161 C 6.275 13.925,6.266 13.751,6.253 12.320 C 6.245 11.451,6.229 10.681,6.217 10.609 C 6.192 10.456,6.001 10.223,5.825 10.132 C 5.667 10.050,5.333 10.050,5.175 10.132 C 5.000 10.223,4.808 10.455,4.779 10.614 C 4.765 10.688,4.761 11.494,4.771 12.405 C 4.787 13.908,4.797 14.092,4.872 14.409 C 5.144 15.543,5.727 16.196,6.769 16.535 C 7.323 16.715,7.655 16.740,9.500 16.740 C 11.345 16.740,11.677 16.715,12.231 16.535 C 13.278 16.194,13.858 15.539,14.132 14.387 C 14.216 14.035,14.220 13.939,14.220 12.000 C 14.220 10.061,14.216 9.965,14.132 9.613 C 13.862 8.479,13.291 7.822,12.276 7.478 C 11.759 7.303,11.461 7.276,9.820 7.258 C 8.962 7.249,8.242 7.248,8.220 7.257 " stroke="none" fill-rule="evenodd" fill="black"></path></svg>