<svg width="24" height="24" viewBox="0 0 24 24" fill="none" xmlns="http://www.w3.org/2000/svg"><path d="M9.360 3.280 C 6.569 3.475,4.001 5.042,2.536 7.443 C 1.923 8.447,1.519 9.574,1.339 10.780 C 1.260 11.307,1.249 12.531,1.317 13.060 C 1.702 16.028,3.495 18.538,6.176 19.860 C 6.997 20.265,8.125 20.604,8.854 20.666 C 9.100 20.687,9.168 20.678,9.309 20.606 C 9.401 20.559,9.526 20.454,9.588 20.373 C 9.687 20.244,9.700 20.192,9.700 19.940 C 9.700 19.688,9.687 19.636,9.588 19.507 C 9.435 19.307,9.305 19.248,8.807 19.155 C 7.975 18.998,7.400 18.806,6.720 18.458 C 4.550 17.347,3.123 15.309,2.798 12.854 C 2.727 12.313,2.767 11.173,2.878 10.620 C 3.165 9.189,3.847 7.917,4.882 6.882 C 5.922 5.842,7.183 5.168,8.640 4.873 C 9.096 4.781,9.122 4.780,12.000 4.780 C 14.878 4.780,14.904 4.781,15.360 4.873 C 16.817 5.168,18.078 5.842,19.118 6.882 C 20.158 7.922,20.832 9.183,21.127 10.640 C 21.208 11.041,21.220 11.216,21.220 12.000 C 21.220 12.784,21.208 12.959,21.127 13.360 C 20.832 14.817,20.158 16.078,19.118 17.118 C 17.819 18.418,16.210 19.132,14.349 19.238 C 13.813 19.268,13.743 19.280,13.604 19.373 C 13.372 19.526,13.267 19.724,13.267 20.007 C 13.267 20.203,13.286 20.270,13.383 20.408 C 13.582 20.689,13.736 20.742,14.320 20.729 C 16.221 20.688,18.145 19.942,19.680 18.651 C 21.268 17.315,22.342 15.359,22.661 13.220 C 22.739 12.695,22.751 11.473,22.682 10.940 C 22.465 9.245,21.791 7.700,20.689 6.368 C 19.543 4.983,17.864 3.941,16.077 3.506 C 15.143 3.279,15.020 3.271,12.320 3.259 C 10.945 3.253,9.613 3.262,9.360 3.280 M13.579 7.278 C 11.737 7.449,10.199 8.632,9.540 10.384 C 9.182 11.335,9.182 12.665,9.540 13.616 C 10.042 14.949,11.049 15.958,12.376 16.457 C 13.340 16.820,14.660 16.820,15.624 16.457 C 17.189 15.869,18.310 14.564,18.644 12.944 C 18.839 11.999,18.669 10.544,18.318 10.144 C 18.010 9.793,17.514 9.788,17.211 10.134 C 16.993 10.381,16.974 10.548,17.106 11.018 C 17.209 11.383,17.219 11.477,17.218 12.040 C 17.216 12.604,17.206 12.689,17.108 12.980 C 16.929 13.514,16.712 13.856,16.284 14.284 C 15.857 14.712,15.515 14.928,14.980 15.108 C 14.684 15.209,14.611 15.217,14.000 15.217 C 13.389 15.217,13.316 15.209,13.020 15.108 C 12.485 14.928,12.143 14.712,11.716 14.284 C 11.288 13.857,11.072 13.515,10.892 12.980 C 10.791 12.684,10.783 12.611,10.783 12.000 C 10.783 11.389,10.791 11.316,10.892 11.020 C 11.072 10.485,11.288 10.143,11.716 9.716 C 12.325 9.107,12.904 8.837,13.763 8.761 C 14.014 8.739,14.262 8.694,14.343 8.656 C 14.853 8.414,14.857 7.588,14.350 7.347 C 14.168 7.261,13.962 7.242,13.579 7.278 " stroke="none" fill-rule="evenodd" fill="black"></path></svg>