<svg width="24" height="24" viewBox="0 0 24 24" fill="none" xmlns="http://www.w3.org/2000/svg"><path d="M2.840 1.267 C 2.152 1.336,1.554 1.815,1.331 2.474 C 1.247 2.722,1.208 5.321,1.280 5.817 C 1.382 6.515,1.791 7.007,2.463 7.243 C 2.815 7.366,3.363 7.339,3.720 7.181 C 3.958 7.076,4.106 6.940,5.492 5.563 C 6.887 4.176,7.016 4.037,7.149 3.768 C 7.273 3.518,7.297 3.425,7.312 3.135 C 7.362 2.183,6.764 1.426,5.852 1.285 C 5.591 1.244,3.205 1.230,2.840 1.267 M14.891 1.283 C 13.234 1.410,11.588 2.177,10.383 3.383 C 9.182 4.583,8.403 6.250,8.288 7.866 L 8.260 8.260 7.866 8.288 C 6.250 8.403,4.583 9.182,3.383 10.383 C 2.151 11.614,1.414 13.219,1.282 14.960 C 1.145 16.747,1.662 18.468,2.776 19.940 C 3.293 20.624,4.227 21.442,4.546 21.493 C 5.025 21.568,5.420 21.220,5.410 20.731 C 5.405 20.443,5.326 20.331,4.861 19.947 C 3.834 19.099,3.143 17.959,2.855 16.639 C 2.751 16.159,2.749 14.886,2.852 14.400 C 3.100 13.236,3.623 12.263,4.443 11.443 C 5.263 10.623,6.236 10.100,7.400 9.852 C 7.879 9.751,9.079 9.751,9.560 9.853 C 10.376 10.026,11.225 10.392,11.850 10.840 C 12.270 11.141,12.939 11.824,13.232 12.251 C 13.491 12.627,13.841 13.347,13.976 13.780 C 14.166 14.391,14.218 14.767,14.219 15.540 C 14.220 16.351,14.173 16.653,13.933 17.360 C 13.364 19.038,12.037 20.365,10.360 20.933 C 9.807 21.120,9.409 21.198,8.795 21.239 C 8.259 21.274,8.135 21.314,7.953 21.506 C 7.691 21.783,7.691 22.217,7.953 22.494 C 8.157 22.710,8.257 22.739,8.760 22.729 C 10.516 22.696,12.326 21.909,13.617 20.617 C 14.824 19.411,15.596 17.747,15.714 16.100 L 15.740 15.740 16.100 15.714 C 17.747 15.596,19.411 14.824,20.617 13.617 C 21.674 12.561,22.389 11.177,22.641 9.700 C 22.765 8.975,22.765 8.025,22.641 7.300 C 22.389 5.823,21.674 4.440,20.616 3.381 C 19.384 2.149,17.779 1.414,16.027 1.280 C 15.737 1.258,15.455 1.243,15.400 1.246 C 15.345 1.249,15.116 1.266,14.891 1.283 M5.778 2.849 C 5.812 2.898,5.840 2.974,5.840 3.019 C 5.840 3.072,5.367 3.573,4.470 4.470 C 3.039 5.902,3.005 5.929,2.833 5.774 C 2.765 5.712,2.760 5.613,2.760 4.307 C 2.760 3.060,2.767 2.898,2.826 2.833 C 2.888 2.765,2.987 2.760,4.304 2.760 L 5.715 2.760 5.778 2.849 M16.640 2.859 C 17.638 3.079,18.549 3.533,19.274 4.172 C 20.243 5.025,20.874 6.114,21.148 7.400 C 21.250 7.881,21.250 9.119,21.148 9.600 C 20.874 10.886,20.243 11.975,19.274 12.828 C 18.369 13.626,17.146 14.145,15.975 14.228 L 15.651 14.251 15.581 13.936 C 14.977 11.203,12.797 9.023,10.064 8.419 L 9.749 8.349 9.772 8.025 C 9.841 7.055,10.238 5.975,10.830 5.148 C 11.124 4.737,11.736 4.125,12.145 3.832 C 12.864 3.317,13.671 2.984,14.600 2.817 C 15.008 2.744,16.232 2.769,16.640 2.859 M20.459 16.752 C 20.349 16.790,20.178 16.869,20.079 16.928 C 19.981 16.986,19.233 17.706,18.417 18.527 C 17.056 19.897,16.925 20.041,16.820 20.280 C 16.591 20.801,16.646 21.470,16.959 21.954 C 17.234 22.379,17.656 22.643,18.187 22.721 C 18.680 22.793,21.277 22.752,21.526 22.669 C 22.042 22.496,22.496 22.042,22.668 21.528 C 22.751 21.279,22.792 18.747,22.722 18.215 C 22.626 17.496,22.218 16.993,21.541 16.760 C 21.243 16.658,20.743 16.654,20.459 16.752 M21.167 18.226 C 21.235 18.288,21.240 18.387,21.240 19.693 C 21.240 20.940,21.233 21.102,21.174 21.167 C 21.112 21.235,21.013 21.240,19.696 21.240 L 18.285 21.240 18.222 21.151 C 18.188 21.102,18.160 21.026,18.160 20.981 C 18.160 20.928,18.633 20.427,19.530 19.530 C 20.961 18.098,20.995 18.071,21.167 18.226 " stroke="none" fill-rule="evenodd" fill="black"></path></svg>