<svg width="24" height="24" viewBox="0 0 24 24" fill="none" xmlns="http://www.w3.org/2000/svg"><path d="M4.300 1.284 C 2.647 1.500,1.634 2.445,1.330 4.052 C 1.268 4.378,1.260 4.713,1.260 6.980 C 1.261 9.246,1.269 9.582,1.331 9.904 C 1.609 11.356,2.378 12.220,3.700 12.566 L 4.060 12.660 6.980 12.660 C 9.889 12.660,9.901 12.660,10.260 12.569 C 10.947 12.395,11.551 12.031,11.947 11.554 C 12.183 11.270,12.457 10.701,12.561 10.280 C 12.651 9.916,12.712 9.002,12.663 8.743 C 12.628 8.556,12.399 8.299,12.213 8.238 C 11.992 8.165,11.670 8.208,11.507 8.332 C 11.286 8.500,11.200 8.725,11.200 9.129 C 11.200 10.057,10.890 10.699,10.310 10.974 C 9.852 11.190,9.701 11.200,6.972 11.199 C 4.265 11.199,4.150 11.191,3.700 10.985 C 3.248 10.778,2.951 10.357,2.819 9.734 C 2.734 9.329,2.734 4.629,2.820 4.224 C 2.951 3.605,3.246 3.207,3.742 2.976 C 4.235 2.747,4.334 2.740,7.040 2.740 C 9.269 2.741,9.526 2.747,9.780 2.812 C 10.773 3.065,11.128 3.539,11.199 4.702 C 11.219 5.037,11.252 5.267,11.291 5.342 C 11.471 5.688,11.883 5.844,12.231 5.698 C 12.657 5.520,12.769 5.194,12.683 4.388 C 12.499 2.678,11.668 1.716,10.060 1.348 C 9.719 1.270,9.562 1.265,7.140 1.257 C 5.732 1.252,4.454 1.264,4.300 1.284 M14.815 1.278 C 14.433 1.369,14.180 1.790,14.281 2.165 C 14.328 2.340,15.355 4.078,15.516 4.255 C 15.800 4.569,16.374 4.549,16.636 4.216 C 16.745 4.078,16.813 3.818,16.786 3.649 C 16.774 3.576,16.696 3.395,16.612 3.248 C 16.528 3.100,16.454 2.966,16.446 2.948 C 16.410 2.865,17.261 3.154,17.739 3.388 C 18.977 3.993,19.960 4.966,20.582 6.203 C 20.991 7.019,21.172 7.709,21.237 8.709 C 21.266 9.142,21.288 9.263,21.359 9.378 C 21.612 9.787,22.183 9.857,22.520 9.520 C 22.731 9.309,22.765 9.119,22.717 8.441 C 22.547 6.048,21.284 3.881,19.277 2.542 C 18.604 2.094,17.745 1.710,16.947 1.503 C 16.288 1.332,15.110 1.207,14.815 1.278 M6.660 4.497 C 6.494 4.571,6.324 4.762,6.261 4.945 L 6.208 5.100 5.431 5.120 L 4.653 5.140 4.502 5.256 C 4.084 5.575,4.116 6.163,4.570 6.487 C 4.698 6.579,4.718 6.580,5.912 6.592 L 7.124 6.604 7.097 6.692 C 7.021 6.936,6.812 7.268,6.577 7.517 C 6.121 8.000,5.775 8.171,5.075 8.257 C 4.829 8.287,4.598 8.338,4.543 8.375 C 4.098 8.666,4.091 9.323,4.528 9.626 C 4.682 9.732,4.719 9.740,5.057 9.737 C 5.729 9.730,6.417 9.518,6.951 9.152 L 7.122 9.035 7.243 9.137 C 7.577 9.418,8.124 9.647,8.640 9.722 C 9.119 9.792,9.290 9.754,9.522 9.522 C 9.678 9.366,9.719 9.295,9.742 9.141 C 9.791 8.815,9.649 8.509,9.386 8.373 C 9.317 8.336,9.111 8.285,8.929 8.258 C 8.614 8.211,8.160 8.035,8.160 7.960 C 8.160 7.941,8.232 7.782,8.319 7.606 C 8.407 7.431,8.522 7.137,8.575 6.954 L 8.671 6.620 8.978 6.595 C 9.237 6.573,9.310 6.550,9.433 6.452 C 9.609 6.313,9.760 6.034,9.760 5.850 C 9.760 5.698,9.669 5.458,9.568 5.347 C 9.398 5.158,9.260 5.129,8.472 5.114 L 7.724 5.100 7.699 5.000 C 7.656 4.822,7.484 4.604,7.322 4.521 C 7.138 4.427,6.840 4.417,6.660 4.497 M16.460 11.124 C 14.158 11.298,12.148 12.866,11.420 15.054 C 11.183 15.768,11.140 16.051,11.140 16.920 C 11.140 17.789,11.183 18.072,11.420 18.786 C 11.984 20.481,13.348 21.847,15.060 22.431 C 16.218 22.826,17.570 22.835,18.740 22.455 C 19.318 22.268,20.115 21.844,20.414 21.566 C 20.580 21.410,20.651 21.247,20.651 21.020 C 20.651 20.780,20.575 20.616,20.383 20.448 C 20.110 20.208,19.767 20.224,19.361 20.494 C 18.525 21.050,17.737 21.270,16.726 21.230 C 15.576 21.185,14.608 20.742,13.796 19.891 C 13.271 19.340,12.937 18.737,12.730 17.966 C 12.638 17.624,12.626 17.504,12.626 16.920 C 12.626 16.336,12.638 16.216,12.730 15.874 C 13.049 14.684,13.800 13.709,14.845 13.124 C 15.615 12.693,16.661 12.506,17.565 12.638 C 19.105 12.864,20.429 13.939,20.988 15.420 C 21.119 15.767,21.202 16.162,21.243 16.640 C 21.294 17.227,21.370 17.404,21.642 17.556 C 21.958 17.734,22.348 17.668,22.574 17.400 C 22.750 17.191,22.775 17.032,22.724 16.455 C 22.597 15.021,22.050 13.824,21.067 12.831 C 19.852 11.604,18.199 10.992,16.460 11.124 M16.720 13.686 C 16.390 13.782,16.388 13.786,15.179 16.203 C 13.940 18.682,13.958 18.635,14.117 18.985 C 14.158 19.075,14.259 19.201,14.343 19.265 C 14.477 19.367,14.526 19.380,14.783 19.380 C 15.047 19.380,15.086 19.369,15.224 19.257 C 15.308 19.190,15.437 19.023,15.511 18.887 L 15.647 18.640 16.920 18.640 L 18.193 18.640 18.329 18.887 C 18.403 19.023,18.532 19.190,18.616 19.257 C 18.754 19.369,18.793 19.380,19.057 19.380 C 19.314 19.380,19.363 19.367,19.498 19.264 C 19.697 19.112,19.815 18.847,19.791 18.604 C 19.777 18.464,19.511 17.897,18.682 16.240 C 18.082 15.041,17.549 14.004,17.498 13.936 C 17.336 13.719,16.987 13.608,16.720 13.686 M1.819 14.276 C 1.554 14.342,1.338 14.564,1.276 14.833 C 1.257 14.916,1.260 15.220,1.281 15.527 C 1.452 17.954,2.695 20.097,4.723 21.459 C 5.480 21.968,6.587 22.422,7.496 22.597 C 8.076 22.709,8.920 22.768,9.173 22.713 C 9.561 22.630,9.821 22.204,9.716 21.825 C 9.669 21.655,8.639 19.916,8.484 19.745 C 8.200 19.431,7.626 19.451,7.364 19.784 C 7.255 19.922,7.187 20.182,7.214 20.351 C 7.226 20.424,7.304 20.605,7.388 20.752 C 7.472 20.900,7.546 21.034,7.554 21.052 C 7.592 21.138,6.730 20.842,6.240 20.600 C 5.202 20.088,4.311 19.284,3.689 18.298 C 3.156 17.452,2.766 16.185,2.760 15.280 C 2.758 14.939,2.698 14.691,2.580 14.536 C 2.422 14.329,2.078 14.211,1.819 14.276 M17.191 16.620 C 17.328 16.896,17.440 17.130,17.440 17.140 C 17.440 17.151,17.206 17.160,16.920 17.160 C 16.634 17.160,16.400 17.151,16.400 17.140 C 16.400 17.100,16.899 16.120,16.920 16.120 C 16.932 16.120,17.054 16.345,17.191 16.620 " stroke="none" fill-rule="evenodd" fill="black"></path></svg>