<svg width="24" height="24" viewBox="0 0 24 24" fill="none" xmlns="http://www.w3.org/2000/svg"><path d="M7.297 1.282 C 5.191 1.402,4.026 1.985,3.385 3.238 C 2.971 4.047,2.814 4.845,2.773 6.347 L 2.749 7.234 2.850 7.407 C 3.106 7.843,3.731 7.903,4.052 7.522 C 4.207 7.339,4.231 7.202,4.256 6.380 C 4.284 5.461,4.358 4.909,4.524 4.389 C 4.769 3.622,5.115 3.263,5.848 3.015 C 6.557 2.775,6.421 2.780,12.000 2.780 C 16.714 2.780,17.129 2.785,17.480 2.851 C 18.871 3.111,19.391 3.653,19.620 5.080 C 19.747 5.875,19.765 6.982,19.749 13.000 C 19.735 18.407,19.728 18.965,19.667 19.215 C 19.551 19.685,19.393 19.959,19.203 20.019 C 18.970 20.093,18.514 19.830,17.927 19.282 C 17.423 18.810,17.200 18.653,16.831 18.505 C 16.145 18.232,15.495 18.261,14.824 18.594 C 14.646 18.682,14.395 18.849,14.267 18.964 C 14.138 19.078,13.738 19.564,13.378 20.042 C 12.995 20.549,12.652 20.963,12.555 21.034 C 12.312 21.213,12.031 21.267,11.757 21.186 C 11.638 21.151,11.471 21.066,11.388 20.997 C 11.304 20.927,10.940 20.478,10.578 19.999 C 10.214 19.516,9.827 19.047,9.710 18.948 C 8.918 18.273,7.899 18.143,6.976 18.598 C 6.722 18.724,6.548 18.855,6.178 19.201 C 5.544 19.793,5.156 20.040,4.864 20.040 C 4.659 20.040,4.478 19.779,4.337 19.280 C 4.268 19.038,4.262 18.741,4.242 14.880 C 4.226 11.838,4.208 10.719,4.173 10.660 C 4.112 10.554,3.925 10.382,3.802 10.319 C 3.667 10.249,3.323 10.256,3.179 10.331 C 3.024 10.412,2.856 10.591,2.803 10.733 C 2.742 10.892,2.744 18.608,2.804 19.100 C 2.854 19.508,2.997 20.035,3.144 20.359 C 3.475 21.086,4.123 21.521,4.874 21.520 C 5.592 21.518,6.191 21.215,7.045 20.420 C 7.556 19.945,7.741 19.836,8.051 19.829 C 8.518 19.818,8.656 19.932,9.462 21.001 C 9.828 21.487,10.221 21.963,10.343 22.069 C 11.366 22.957,12.755 22.928,13.717 22.000 C 13.843 21.879,14.194 21.447,14.498 21.040 C 15.134 20.188,15.279 20.025,15.500 19.910 C 15.718 19.797,16.079 19.795,16.320 19.906 C 16.419 19.952,16.692 20.169,16.927 20.390 C 17.826 21.232,18.495 21.555,19.240 21.509 C 20.225 21.448,20.880 20.723,21.146 19.400 C 21.209 19.090,21.216 18.517,21.230 12.860 C 21.246 6.369,21.233 5.683,21.076 4.747 C 20.917 3.803,20.586 3.048,20.103 2.530 C 19.358 1.732,18.388 1.383,16.629 1.281 C 15.843 1.236,8.098 1.236,7.297 1.282 M9.094 9.277 C 8.435 9.440,8.303 10.307,8.886 10.640 L 9.060 10.740 10.420 10.740 C 11.168 10.740,11.828 10.727,11.887 10.710 C 12.145 10.638,12.397 10.292,12.399 10.009 C 12.401 9.747,12.226 9.462,11.980 9.326 C 11.876 9.269,11.684 9.259,10.540 9.253 C 9.814 9.249,9.163 9.260,9.094 9.277 M13.967 9.285 C 13.727 9.342,13.501 9.574,13.449 9.816 C 13.354 10.260,13.591 10.631,14.026 10.721 C 14.380 10.795,14.910 10.753,15.119 10.636 C 15.605 10.363,15.603 9.636,15.116 9.363 C 14.972 9.282,14.880 9.264,14.542 9.255 C 14.321 9.249,14.062 9.262,13.967 9.285 " stroke="none" fill-rule="evenodd" fill="black"></path></svg>