<svg width="24" height="24" viewBox="0 0 24 24" fill="none" xmlns="http://www.w3.org/2000/svg"><path d="M10.220 1.278 C 9.049 1.391,8.391 1.895,8.124 2.881 C 8.079 3.046,7.988 3.513,7.921 3.920 C 7.854 4.327,7.791 4.698,7.780 4.745 C 7.763 4.823,7.726 4.831,7.251 4.857 C 6.154 4.916,2.930 5.221,2.733 5.284 C 2.452 5.373,2.201 5.806,2.262 6.093 C 2.326 6.389,2.571 6.656,2.824 6.703 C 2.903 6.718,3.277 6.701,3.654 6.664 C 7.249 6.314,7.861 6.278,10.600 6.253 C 13.787 6.224,16.144 6.317,19.545 6.605 C 20.362 6.674,21.096 6.718,21.176 6.703 C 21.429 6.656,21.674 6.390,21.738 6.093 C 21.799 5.806,21.548 5.374,21.267 5.283 C 21.115 5.235,18.759 5.030,17.300 4.939 C 16.729 4.903,16.256 4.869,16.250 4.863 C 16.243 4.857,16.167 4.440,16.081 3.936 C 15.994 3.432,15.893 2.921,15.857 2.800 C 15.710 2.307,15.458 1.949,15.088 1.709 C 14.758 1.495,14.670 1.457,14.263 1.353 C 13.966 1.277,13.804 1.270,12.240 1.259 C 11.305 1.252,10.396 1.261,10.220 1.278 M14.126 2.866 C 14.288 2.941,14.321 2.978,14.392 3.167 C 14.458 3.345,14.731 4.761,14.704 4.789 C 14.700 4.794,13.833 4.783,12.778 4.764 C 11.723 4.746,10.507 4.740,10.075 4.751 L 9.289 4.770 9.326 4.555 C 9.598 2.966,9.624 2.900,10.028 2.803 C 10.111 2.783,11.026 2.770,12.060 2.773 C 13.891 2.780,13.945 2.782,14.126 2.866 M4.810 8.484 C 4.620 8.578,4.492 8.734,4.436 8.936 C 4.410 9.031,4.500 10.644,4.740 14.345 C 4.927 17.246,5.098 19.773,5.120 19.960 C 5.184 20.498,5.275 20.832,5.466 21.232 C 5.844 22.023,6.525 22.460,7.702 22.667 C 8.061 22.731,8.451 22.738,11.720 22.739 C 13.711 22.739,15.388 22.727,15.447 22.710 C 15.705 22.638,15.957 22.292,15.959 22.009 C 15.961 21.747,15.786 21.462,15.540 21.326 C 15.432 21.266,15.056 21.258,11.640 21.238 C 8.170 21.217,7.840 21.210,7.622 21.144 C 6.887 20.925,6.707 20.685,6.601 19.780 C 6.578 19.582,6.407 17.071,6.222 14.200 C 6.037 11.329,5.873 8.944,5.857 8.900 C 5.707 8.483,5.211 8.286,4.810 8.484 M18.540 8.463 C 18.370 8.551,18.255 8.668,18.179 8.828 C 18.088 9.019,17.425 19.201,17.488 19.430 C 17.566 19.711,17.913 19.959,18.231 19.960 C 18.358 19.960,18.600 19.854,18.713 19.748 C 18.931 19.545,18.912 19.734,19.266 14.280 C 19.450 11.453,19.590 9.077,19.578 9.000 C 19.503 8.553,18.934 8.258,18.540 8.463 M9.180 11.835 C 8.990 11.923,8.904 12.012,8.822 12.210 C 8.740 12.405,8.745 12.624,8.835 12.820 C 8.995 13.169,9.180 13.240,9.926 13.240 C 10.592 13.240,10.754 13.188,10.946 12.912 C 11.041 12.774,11.060 12.706,11.060 12.500 C 11.060 12.294,11.041 12.226,10.946 12.088 C 10.754 11.811,10.593 11.760,9.917 11.761 C 9.443 11.762,9.311 11.775,9.180 11.835 M12.500 11.835 C 12.310 11.923,12.224 12.012,12.142 12.210 C 12.028 12.483,12.103 12.869,12.306 13.048 C 12.501 13.222,12.631 13.240,13.669 13.239 C 14.545 13.238,14.679 13.230,14.820 13.165 C 15.010 13.077,15.096 12.988,15.178 12.790 C 15.287 12.530,15.232 12.193,15.048 11.986 C 15.011 11.943,14.908 11.876,14.820 11.835 C 14.678 11.770,14.546 11.762,13.660 11.762 C 12.774 11.762,12.642 11.770,12.500 11.835 M10.020 15.823 C 9.736 15.970,9.600 16.189,9.600 16.496 C 9.600 16.814,9.725 17.019,10.008 17.164 C 10.148 17.235,10.266 17.240,11.988 17.239 C 13.680 17.238,13.832 17.233,13.980 17.165 C 14.170 17.077,14.256 16.988,14.338 16.790 C 14.417 16.602,14.417 16.398,14.338 16.210 C 14.256 16.012,14.170 15.923,13.980 15.835 C 13.832 15.767,13.680 15.762,11.980 15.761 C 10.390 15.761,10.124 15.769,10.020 15.823 " stroke="none" fill-rule="evenodd" fill="black"></path></svg>