<svg width="24" height="24" viewBox="0 0 24 24" fill="none" xmlns="http://www.w3.org/2000/svg"><path d="M11.564 1.263 C 11.266 1.343,10.994 1.499,10.775 1.715 C 10.492 1.995,6.213 8.005,6.054 8.347 C 5.789 8.917,5.788 9.434,6.051 9.933 C 6.283 10.372,6.784 10.681,7.413 10.771 L 7.762 10.822 6.296 12.881 C 5.490 14.013,4.723 15.100,4.591 15.295 C 4.163 15.929,4.019 16.378,4.051 16.972 C 4.068 17.275,4.091 17.366,4.215 17.618 C 4.467 18.128,4.910 18.461,5.584 18.648 C 5.892 18.733,5.971 18.736,8.568 18.750 L 11.236 18.766 11.248 20.493 L 11.260 22.220 11.353 22.369 C 11.710 22.943,12.576 22.812,12.716 22.162 C 12.744 22.031,12.760 21.375,12.760 20.361 L 12.760 18.766 15.430 18.749 C 17.832 18.734,18.128 18.726,18.380 18.661 C 19.093 18.479,19.559 18.126,19.824 17.569 C 19.956 17.291,20.002 16.706,19.920 16.355 C 19.806 15.872,19.415 15.186,19.166 15.031 C 19.056 14.963,18.959 14.940,18.777 14.940 C 18.465 14.940,18.251 15.070,18.120 15.340 C 17.988 15.613,18.020 15.866,18.231 16.200 C 18.416 16.492,18.506 16.772,18.466 16.932 C 18.448 17.003,18.382 17.069,18.269 17.130 L 18.100 17.220 12.140 17.232 C 7.814 17.241,6.122 17.232,5.970 17.199 C 5.854 17.174,5.705 17.109,5.640 17.053 C 5.480 16.920,5.483 16.762,5.650 16.435 C 5.721 16.295,6.641 14.970,7.694 13.490 L 9.608 10.800 12.002 10.800 L 14.397 10.800 15.021 11.674 C 15.663 12.573,15.763 12.674,16.067 12.738 C 16.355 12.799,16.709 12.601,16.845 12.302 C 16.994 11.973,16.932 11.768,16.507 11.180 L 16.247 10.821 16.592 10.771 C 17.836 10.591,18.443 9.573,17.983 8.439 C 17.864 8.147,18.013 8.363,15.498 4.840 C 14.328 3.201,13.291 1.786,13.193 1.696 C 12.724 1.264,12.139 1.109,11.564 1.263 M12.136 2.764 C 12.244 2.849,16.454 8.715,16.574 8.948 C 16.681 9.155,16.661 9.230,16.490 9.278 C 16.260 9.342,7.665 9.331,7.480 9.267 C 7.319 9.211,7.315 9.156,7.453 8.895 C 7.616 8.586,11.800 2.772,11.890 2.729 C 12.014 2.669,12.016 2.669,12.136 2.764 " stroke="none" fill-rule="evenodd" fill="black"></path></svg>