<svg width="24" height="24" viewBox="0 0 24 24" fill="none" xmlns="http://www.w3.org/2000/svg"><path d="M8.080 1.282 C 4.042 1.493,1.931 3.265,1.398 6.891 C 1.310 7.494,1.225 8.895,1.264 9.113 C 1.278 9.194,1.325 9.318,1.368 9.389 C 1.658 9.870,2.422 9.836,2.661 9.332 C 2.718 9.212,2.740 9.022,2.765 8.423 C 2.900 5.187,3.905 3.654,6.288 3.044 C 7.337 2.776,7.247 2.780,12.000 2.780 C 15.936 2.780,16.339 2.786,16.760 2.852 C 19.558 3.288,20.712 4.442,21.148 7.240 C 21.214 7.661,21.220 8.064,21.220 12.000 C 21.220 15.936,21.214 16.339,21.148 16.760 C 20.712 19.558,19.558 20.712,16.760 21.148 C 16.339 21.214,15.936 21.220,12.000 21.220 C 8.064 21.220,7.661 21.214,7.240 21.148 C 4.756 20.761,3.576 19.795,3.044 17.712 C 2.820 16.833,2.790 16.496,2.764 14.560 C 2.737 12.615,2.744 12.670,2.494 12.433 C 2.217 12.171,1.783 12.171,1.506 12.433 C 1.266 12.660,1.261 12.686,1.247 13.840 C 1.224 15.669,1.334 17.076,1.575 18.027 C 2.267 20.757,3.971 22.193,7.027 22.622 C 7.786 22.728,8.902 22.759,12.000 22.759 C 15.098 22.759,16.214 22.728,16.973 22.622 C 19.443 22.275,20.996 21.288,21.897 19.490 C 22.379 18.530,22.638 17.369,22.720 15.807 C 22.771 14.838,22.771 9.162,22.720 8.193 C 22.657 6.998,22.521 6.191,22.242 5.356 C 21.632 3.531,20.469 2.367,18.650 1.760 C 17.788 1.473,17.023 1.344,15.806 1.280 C 14.952 1.235,8.952 1.237,8.080 1.282 M14.180 8.835 C 13.990 8.923,13.904 9.012,13.822 9.210 C 13.708 9.483,13.783 9.869,13.986 10.048 C 14.108 10.157,14.343 10.240,14.527 10.240 L 14.697 10.240 14.034 10.910 C 13.669 11.278,13.347 11.625,13.318 11.680 C 13.290 11.735,13.267 11.881,13.267 12.004 C 13.267 12.499,13.683 12.818,14.189 12.710 C 14.364 12.673,14.438 12.613,15.070 11.987 L 15.760 11.305 15.760 11.474 C 15.760 11.657,15.843 11.892,15.952 12.014 C 16.131 12.217,16.517 12.292,16.790 12.178 C 16.988 12.096,17.077 12.010,17.165 11.820 C 17.231 11.677,17.238 11.540,17.239 10.493 C 17.240 9.763,17.224 9.283,17.197 9.213 C 17.174 9.151,17.107 9.048,17.047 8.985 C 16.845 8.769,16.785 8.760,15.511 8.761 C 14.461 8.762,14.324 8.769,14.180 8.835 M10.380 10.637 C 10.156 10.742,6.906 14.004,6.821 14.209 C 6.743 14.398,6.743 14.603,6.822 14.790 C 6.904 14.988,6.990 15.077,7.180 15.165 C 7.385 15.259,7.617 15.258,7.820 15.163 C 7.924 15.114,8.431 14.636,9.275 13.789 L 10.570 12.490 10.769 12.613 C 11.186 12.872,11.670 12.720,11.858 12.271 C 11.989 11.959,11.920 11.754,11.469 11.100 C 11.276 10.821,11.180 10.720,11.042 10.650 C 10.825 10.541,10.595 10.536,10.380 10.637 " stroke="none" fill-rule="evenodd" fill="black"></path></svg>