<svg width="24" height="24" viewBox="0 0 24 24" fill="none" xmlns="http://www.w3.org/2000/svg"><path d="M8.080 1.282 C 4.042 1.493,1.931 3.265,1.398 6.891 C 1.310 7.494,1.225 8.895,1.264 9.113 C 1.278 9.194,1.325 9.318,1.368 9.389 C 1.658 9.870,2.422 9.836,2.661 9.332 C 2.718 9.212,2.740 9.022,2.765 8.423 C 2.900 5.187,3.905 3.654,6.288 3.044 C 7.337 2.776,7.247 2.780,12.000 2.780 C 15.936 2.780,16.339 2.786,16.760 2.852 C 19.558 3.288,20.712 4.442,21.148 7.240 C 21.214 7.661,21.220 8.064,21.220 12.000 C 21.220 15.936,21.214 16.339,21.148 16.760 C 20.712 19.558,19.558 20.712,16.760 21.148 C 16.339 21.214,15.936 21.220,12.000 21.220 C 8.064 21.220,7.661 21.214,7.240 21.148 C 4.756 20.761,3.576 19.795,3.044 17.712 C 2.820 16.833,2.790 16.496,2.764 14.560 C 2.737 12.615,2.744 12.670,2.494 12.433 C 2.217 12.171,1.783 12.171,1.506 12.433 C 1.266 12.660,1.261 12.686,1.247 13.840 C 1.224 15.669,1.334 17.076,1.575 18.027 C 2.267 20.757,3.971 22.193,7.027 22.622 C 7.786 22.728,8.902 22.759,12.000 22.759 C 15.098 22.759,16.214 22.728,16.973 22.622 C 19.443 22.275,20.996 21.288,21.897 19.490 C 22.379 18.530,22.638 17.369,22.720 15.807 C 22.771 14.838,22.771 9.162,22.720 8.193 C 22.657 6.998,22.521 6.191,22.242 5.356 C 21.632 3.531,20.469 2.367,18.650 1.760 C 17.788 1.473,17.023 1.344,15.806 1.280 C 14.952 1.235,8.952 1.237,8.080 1.282 M7.180 8.835 C 6.990 8.923,6.904 9.012,6.822 9.210 C 6.740 9.406,6.745 9.625,6.837 9.820 C 6.942 10.044,10.204 13.294,10.409 13.379 C 10.617 13.465,10.833 13.455,11.042 13.350 C 11.190 13.275,11.275 13.178,11.548 12.771 C 11.963 12.152,12.010 11.923,11.789 11.598 C 11.537 11.227,11.097 11.153,10.711 11.415 L 10.570 11.511 9.275 10.211 C 8.431 9.364,7.924 8.886,7.820 8.837 C 7.617 8.742,7.385 8.741,7.180 8.835 M13.815 11.278 C 13.640 11.320,13.462 11.455,13.356 11.626 C 13.253 11.793,13.233 12.156,13.318 12.320 C 13.347 12.375,13.669 12.722,14.034 13.090 L 14.697 13.760 14.518 13.761 C 14.321 13.762,14.057 13.867,13.952 13.986 C 13.760 14.201,13.711 14.550,13.835 14.820 C 13.923 15.010,14.012 15.096,14.210 15.178 C 14.415 15.264,16.613 15.270,16.811 15.185 C 16.967 15.118,17.140 14.941,17.197 14.787 C 17.224 14.717,17.240 14.237,17.239 13.507 C 17.238 12.460,17.231 12.323,17.165 12.180 C 17.077 11.990,16.988 11.904,16.790 11.822 C 16.517 11.708,16.131 11.783,15.952 11.986 C 15.843 12.108,15.760 12.343,15.760 12.526 L 15.760 12.695 15.070 12.014 C 14.458 11.410,14.359 11.327,14.192 11.286 C 13.986 11.235,13.993 11.236,13.815 11.278 " stroke="none" fill-rule="evenodd" fill="black"></path></svg>