<svg width="24" height="24" viewBox="0 0 24 24" fill="none" xmlns="http://www.w3.org/2000/svg"><path d="M11.500 1.882 C 10.271 2.074,9.134 2.947,8.272 4.360 C 8.020 4.774,7.980 4.911,8.042 5.167 C 8.165 5.683,8.770 5.906,9.205 5.596 C 9.264 5.555,9.397 5.381,9.503 5.210 C 9.961 4.468,10.462 3.929,10.944 3.657 C 11.078 3.582,11.199 3.520,11.214 3.520 C 11.228 3.520,11.239 5.657,11.239 8.270 L 11.237 13.020 7.064 15.938 C 4.769 17.543,2.872 18.863,2.848 18.871 C 2.785 18.892,2.746 18.473,2.773 18.063 C 2.801 17.649,2.896 17.277,3.091 16.818 C 3.165 16.643,4.052 15.015,5.062 13.200 C 7.150 9.447,7.160 9.428,7.160 9.285 C 7.159 8.776,6.696 8.404,6.215 8.525 C 6.106 8.553,5.980 8.623,5.905 8.698 C 5.792 8.812,2.231 15.169,1.849 15.940 C 1.251 17.145,1.103 18.448,1.444 19.491 C 1.816 20.632,2.737 21.486,4.035 21.896 C 4.851 22.154,4.396 22.140,12.000 22.140 C 19.612 22.140,19.083 22.156,19.960 21.895 C 20.823 21.637,21.662 21.054,22.107 20.400 C 22.543 19.759,22.724 19.138,22.724 18.280 C 22.724 17.496,22.560 16.812,22.183 16.020 C 21.907 15.440,15.823 4.490,15.554 4.090 C 14.789 2.950,13.875 2.229,12.855 1.961 C 12.490 1.865,11.846 1.828,11.500 1.882 M13.073 3.670 C 13.596 3.987,14.071 4.507,14.508 5.240 C 14.973 6.022,20.593 16.180,20.804 16.620 C 21.078 17.193,21.198 17.601,21.228 18.075 C 21.254 18.477,21.214 18.891,21.152 18.871 C 21.128 18.863,19.231 17.543,16.936 15.938 L 12.763 13.020 12.761 8.270 C 12.761 5.657,12.775 3.520,12.793 3.520 C 12.811 3.520,12.937 3.587,13.073 3.670 M16.154 17.206 C 18.390 18.771,20.235 20.065,20.254 20.082 C 20.297 20.120,20.007 20.290,19.720 20.395 C 19.381 20.519,19.056 20.591,18.632 20.638 C 18.123 20.693,5.896 20.695,5.370 20.640 C 4.860 20.586,4.386 20.460,4.038 20.287 C 3.877 20.206,3.744 20.128,3.743 20.113 C 3.737 20.057,11.976 14.318,12.032 14.339 C 12.063 14.351,13.918 15.641,16.154 17.206 " stroke="none" fill-rule="evenodd" fill="black"></path></svg>