<svg width="24" height="24" viewBox="0 0 24 24" fill="none" xmlns="http://www.w3.org/2000/svg"><path d="M5.579 1.280 C 3.204 1.488,1.326 3.470,1.270 5.827 C 1.262 6.177,1.271 6.236,1.353 6.369 C 1.590 6.753,2.108 6.851,2.464 6.580 C 2.651 6.437,2.719 6.252,2.761 5.763 C 2.837 4.904,3.107 4.325,3.716 3.716 C 4.142 3.290,4.482 3.074,5.020 2.890 L 5.340 2.780 9.791 2.769 L 14.241 2.758 14.231 7.549 L 14.220 12.340 14.126 12.520 C 13.997 12.765,13.780 12.986,13.540 13.113 L 13.340 13.220 8.053 13.231 L 2.765 13.241 2.753 12.011 C 2.739 10.684,2.735 10.659,2.513 10.452 C 2.391 10.337,2.155 10.240,2.000 10.240 C 1.745 10.240,1.460 10.418,1.326 10.660 C 1.267 10.768,1.259 11.081,1.248 13.840 C 1.234 17.591,1.250 17.799,1.600 18.548 C 1.999 19.403,2.540 19.954,3.380 20.361 C 3.889 20.608,4.130 20.670,4.810 20.729 L 5.359 20.776 5.404 20.918 C 5.581 21.480,6.112 22.091,6.720 22.432 C 7.434 22.832,8.566 22.832,9.280 22.432 C 9.891 22.089,10.418 21.481,10.599 20.910 L 10.646 20.760 12.000 20.760 L 13.354 20.760 13.401 20.910 C 13.582 21.481,14.109 22.089,14.720 22.432 C 15.434 22.832,16.566 22.832,17.280 22.432 C 17.891 22.089,18.418 21.481,18.599 20.910 C 18.643 20.771,18.657 20.760,18.801 20.760 C 19.294 20.760,19.634 20.545,19.711 20.184 C 19.828 19.635,19.456 19.240,18.822 19.240 C 18.694 19.240,18.640 19.224,18.640 19.185 C 18.640 19.081,18.323 18.501,18.141 18.270 C 17.653 17.653,16.794 17.240,16.000 17.240 C 15.206 17.240,14.347 17.653,13.859 18.270 C 13.677 18.501,13.360 19.081,13.360 19.185 C 13.360 19.231,13.132 19.240,12.000 19.240 C 10.868 19.240,10.640 19.231,10.640 19.185 C 10.640 19.081,10.323 18.501,10.141 18.270 C 9.653 17.653,8.794 17.240,8.000 17.240 C 7.206 17.240,6.347 17.653,5.859 18.270 C 5.677 18.501,5.360 19.081,5.360 19.185 C 5.360 19.263,4.730 19.259,4.422 19.179 C 3.673 18.984,3.015 18.324,2.820 17.572 C 2.773 17.392,2.760 17.066,2.760 16.052 L 2.760 14.760 8.002 14.760 C 13.855 14.760,13.585 14.772,14.180 14.480 C 14.757 14.197,15.160 13.806,15.457 13.240 C 15.749 12.683,15.735 12.880,15.750 9.130 L 15.763 5.760 16.420 5.760 C 17.542 5.760,17.602 5.805,18.428 7.248 L 18.993 8.236 18.806 8.261 C 18.359 8.321,18.041 8.484,17.727 8.816 C 17.484 9.073,17.333 9.373,17.279 9.707 C 17.228 10.014,17.229 12.992,17.280 13.300 C 17.395 14.004,17.999 14.605,18.707 14.721 C 18.835 14.742,19.456 14.760,20.087 14.760 L 21.235 14.760 21.247 15.990 C 21.260 17.196,21.262 17.223,21.353 17.369 C 21.710 17.943,22.576 17.812,22.716 17.162 C 22.777 16.878,22.777 12.042,22.716 11.822 C 22.692 11.735,22.351 11.104,21.959 10.419 C 21.567 9.734,21.167 9.031,21.069 8.857 C 20.516 7.871,19.194 5.585,19.087 5.430 C 18.822 5.044,18.443 4.730,17.989 4.519 C 17.563 4.321,17.320 4.277,16.510 4.251 L 15.760 4.228 15.760 3.136 C 15.760 2.490,15.742 1.960,15.716 1.838 C 15.658 1.570,15.450 1.352,15.189 1.286 C 14.983 1.235,6.162 1.228,5.579 1.280 M20.552 10.967 L 21.240 12.174 21.240 12.707 L 21.240 13.240 20.080 13.240 C 18.973 13.240,18.916 13.236,18.840 13.160 C 18.763 13.083,18.760 13.027,18.760 11.500 C 18.760 9.586,18.697 9.760,19.392 9.760 L 19.864 9.760 20.552 10.967 M8.526 18.877 C 8.760 18.998,9.008 19.245,9.121 19.470 C 9.256 19.741,9.274 20.152,9.163 20.445 C 9.050 20.745,8.747 21.049,8.454 21.159 C 7.810 21.400,7.075 21.076,6.837 20.445 C 6.727 20.153,6.744 19.733,6.877 19.474 C 7.036 19.166,7.347 18.895,7.646 18.804 C 7.866 18.736,8.327 18.775,8.526 18.877 M16.526 18.877 C 16.760 18.998,17.008 19.245,17.121 19.470 C 17.256 19.741,17.274 20.152,17.163 20.445 C 17.050 20.745,16.747 21.049,16.454 21.159 C 15.810 21.400,15.075 21.076,14.837 20.445 C 14.727 20.153,14.744 19.733,14.877 19.474 C 15.036 19.166,15.347 18.895,15.646 18.804 C 15.866 18.736,16.327 18.775,16.526 18.877 " stroke="none" fill-rule="evenodd" fill="black"></path></svg>