<svg width="24" height="24" viewBox="0 0 24 24" fill="none" xmlns="http://www.w3.org/2000/svg"><path d="M4.484 0.285 C 3.179 0.425,1.993 1.105,1.178 2.180 C 0.916 2.525,0.539 3.313,0.421 3.761 C 0.289 4.260,0.233 4.959,0.284 5.467 C 0.364 6.281,0.592 6.916,1.046 7.588 L 1.240 7.876 1.240 10.999 C 1.240 13.728,1.248 14.141,1.302 14.271 C 1.384 14.468,1.506 14.595,1.700 14.684 C 1.853 14.755,2.104 14.758,7.552 14.759 C 13.905 14.760,13.582 14.774,14.180 14.480 C 14.757 14.197,15.160 13.806,15.457 13.240 C 15.749 12.683,15.735 12.880,15.750 9.130 L 15.763 5.760 16.425 5.760 C 17.067 5.760,17.096 5.764,17.386 5.880 C 17.881 6.078,18.215 6.024,18.443 5.710 C 18.653 5.419,18.636 5.054,18.398 4.783 C 18.270 4.638,17.863 4.437,17.500 4.339 C 17.341 4.297,17.005 4.267,16.510 4.251 L 15.760 4.228 15.760 3.136 C 15.760 2.490,15.742 1.960,15.716 1.838 C 15.658 1.570,15.450 1.352,15.189 1.286 C 15.056 1.253,14.012 1.240,11.452 1.240 L 7.900 1.240 7.660 1.078 C 6.749 0.462,5.570 0.168,4.484 0.285 M5.686 1.818 C 6.693 2.031,7.583 2.784,7.994 3.771 C 8.494 4.973,8.206 6.373,7.272 7.288 C 6.877 7.674,6.488 7.918,6.000 8.085 C 5.641 8.208,5.588 8.216,5.040 8.217 C 4.363 8.219,4.134 8.169,3.580 7.900 C 2.729 7.486,2.069 6.663,1.834 5.722 C 1.763 5.434,1.753 5.305,1.771 4.862 C 1.792 4.305,1.878 3.957,2.105 3.510 C 2.521 2.690,3.393 2.018,4.300 1.819 C 4.621 1.749,5.357 1.748,5.686 1.818 M14.231 7.550 L 14.220 12.340 14.126 12.520 C 13.997 12.765,13.780 12.986,13.540 13.113 L 13.340 13.220 8.050 13.231 L 2.760 13.241 2.760 11.225 L 2.760 9.209 3.087 9.350 C 4.092 9.785,5.285 9.868,6.315 9.577 C 7.279 9.304,8.335 8.538,8.894 7.708 C 9.866 6.261,10.017 4.577,9.315 3.010 L 9.203 2.760 11.722 2.760 L 14.241 2.760 14.231 7.550 M6.220 3.294 C 6.154 3.324,5.736 3.703,5.291 4.135 C 4.845 4.567,4.469 4.920,4.455 4.920 C 4.441 4.920,4.298 4.803,4.138 4.659 C 3.717 4.282,3.490 4.208,3.169 4.342 C 2.742 4.520,2.572 5.005,2.801 5.389 C 2.929 5.603,3.971 6.592,4.144 6.664 C 4.334 6.744,4.617 6.734,4.792 6.641 C 5.004 6.529,7.081 4.512,7.190 4.312 C 7.359 4.003,7.268 3.597,6.980 3.377 C 6.860 3.286,6.782 3.261,6.585 3.251 C 6.436 3.244,6.293 3.260,6.220 3.294 M18.664 8.282 C 17.999 8.394,17.391 9.019,17.279 9.707 C 17.228 10.014,17.229 12.992,17.280 13.300 C 17.395 14.004,17.999 14.605,18.707 14.721 C 18.835 14.742,19.457 14.760,20.090 14.760 L 21.240 14.760 21.240 16.052 C 21.240 17.066,21.227 17.392,21.180 17.572 C 20.985 18.324,20.327 18.984,19.578 19.179 C 19.270 19.259,18.640 19.263,18.640 19.185 C 18.640 19.081,18.323 18.501,18.141 18.270 C 17.653 17.653,16.794 17.240,16.000 17.240 C 15.206 17.240,14.347 17.653,13.859 18.270 C 13.677 18.501,13.360 19.081,13.360 19.185 C 13.360 19.231,13.132 19.240,12.000 19.240 C 10.868 19.240,10.640 19.231,10.640 19.185 C 10.640 19.081,10.323 18.501,10.141 18.270 C 9.653 17.653,8.794 17.240,8.000 17.240 C 7.206 17.240,6.347 17.653,5.859 18.270 C 5.677 18.501,5.360 19.081,5.360 19.185 C 5.360 19.227,5.284 19.240,5.028 19.240 C 4.265 19.240,3.682 18.949,3.178 18.317 C 2.863 17.923,2.631 17.822,2.271 17.922 C 1.955 18.010,1.751 18.282,1.746 18.623 C 1.742 18.894,1.916 19.191,2.320 19.602 C 3.032 20.326,3.814 20.668,4.928 20.741 L 5.357 20.769 5.403 20.915 C 5.581 21.481,6.111 22.090,6.720 22.432 C 7.434 22.832,8.566 22.832,9.280 22.432 C 9.891 22.089,10.418 21.481,10.599 20.910 L 10.646 20.760 12.000 20.760 L 13.354 20.760 13.401 20.910 C 13.582 21.481,14.109 22.089,14.720 22.432 C 15.434 22.832,16.566 22.832,17.280 22.432 C 17.888 22.091,18.419 21.480,18.596 20.918 L 18.641 20.776 19.190 20.729 C 19.870 20.670,20.111 20.608,20.620 20.361 C 21.460 19.954,22.001 19.403,22.400 18.548 C 22.587 18.149,22.667 17.848,22.719 17.355 C 22.775 16.829,22.772 12.025,22.716 11.824 C 22.666 11.642,21.019 8.725,20.854 8.524 C 20.645 8.270,20.518 8.241,19.640 8.246 C 19.211 8.248,18.772 8.264,18.664 8.282 M20.552 10.967 L 21.240 12.174 21.240 12.707 L 21.240 13.240 20.080 13.240 C 18.973 13.240,18.916 13.236,18.840 13.160 C 18.763 13.083,18.760 13.027,18.760 11.500 C 18.760 9.586,18.697 9.760,19.392 9.760 L 19.864 9.760 20.552 10.967 M8.526 18.877 C 8.760 18.998,9.008 19.245,9.121 19.470 C 9.256 19.741,9.274 20.152,9.163 20.445 C 9.050 20.745,8.747 21.049,8.454 21.159 C 7.810 21.400,7.075 21.076,6.837 20.445 C 6.727 20.153,6.744 19.733,6.877 19.474 C 7.036 19.166,7.347 18.895,7.646 18.804 C 7.866 18.736,8.327 18.775,8.526 18.877 M16.526 18.877 C 16.760 18.998,17.008 19.245,17.121 19.470 C 17.256 19.741,17.274 20.152,17.163 20.445 C 17.050 20.745,16.747 21.049,16.454 21.159 C 15.810 21.400,15.075 21.076,14.837 20.445 C 14.727 20.153,14.744 19.733,14.877 19.474 C 15.036 19.166,15.347 18.895,15.646 18.804 C 15.866 18.736,16.327 18.775,16.526 18.877 " stroke="none" fill-rule="evenodd" fill="black"></path></svg>