<svg width="24" height="24" viewBox="0 0 24 24" fill="none" xmlns="http://www.w3.org/2000/svg"><path d="M5.516 1.282 C 4.748 1.350,3.823 1.709,3.178 2.190 C 2.448 2.734,1.766 3.635,1.763 4.060 C 1.760 4.472,2.202 4.848,2.612 4.783 C 2.872 4.741,3.026 4.617,3.261 4.261 C 3.651 3.669,4.253 3.186,4.900 2.946 C 5.400 2.761,5.336 2.763,9.911 2.761 L 14.241 2.760 14.231 7.550 L 14.220 12.340 14.126 12.520 C 13.997 12.766,13.779 12.986,13.540 13.112 C 13.349 13.213,13.305 13.219,12.560 13.239 C 11.729 13.262,11.644 13.281,11.452 13.487 C 11.335 13.612,11.240 13.847,11.241 14.009 C 11.243 14.312,11.492 14.632,11.797 14.724 C 12.028 14.793,13.431 14.748,13.737 14.661 C 14.627 14.409,15.395 13.644,15.665 12.740 C 15.731 12.519,15.737 12.230,15.750 9.130 L 15.763 5.760 16.420 5.760 C 17.542 5.760,17.602 5.805,18.428 7.248 L 18.993 8.236 18.806 8.261 C 18.359 8.321,18.041 8.484,17.727 8.816 C 17.484 9.073,17.333 9.373,17.279 9.707 C 17.228 10.014,17.229 12.992,17.280 13.300 C 17.395 14.004,17.999 14.605,18.707 14.721 C 18.835 14.742,19.457 14.760,20.090 14.760 L 21.240 14.760 21.240 16.052 C 21.240 17.478,21.223 17.612,20.990 18.057 C 20.917 18.195,20.741 18.421,20.581 18.581 C 20.119 19.043,19.644 19.240,18.992 19.240 C 18.719 19.240,18.640 19.228,18.640 19.185 C 18.640 19.081,18.323 18.501,18.141 18.270 C 17.653 17.653,16.794 17.240,16.000 17.240 C 15.206 17.240,14.347 17.653,13.859 18.270 C 13.677 18.501,13.360 19.081,13.360 19.185 C 13.360 19.231,13.132 19.240,12.000 19.240 C 10.868 19.240,10.640 19.231,10.640 19.185 C 10.640 19.081,10.323 18.501,10.141 18.270 C 9.653 17.653,8.794 17.240,8.000 17.240 C 7.206 17.240,6.347 17.653,5.859 18.270 C 5.677 18.501,5.360 19.081,5.360 19.185 C 5.360 19.263,4.730 19.259,4.422 19.179 C 3.615 18.969,2.909 18.204,2.795 17.418 C 2.697 16.736,2.681 16.669,2.584 16.542 C 2.295 16.163,1.674 16.176,1.396 16.566 C 1.267 16.747,1.239 16.939,1.282 17.355 C 1.332 17.846,1.413 18.148,1.600 18.548 C 1.999 19.403,2.540 19.954,3.380 20.361 C 3.889 20.608,4.130 20.670,4.810 20.729 L 5.359 20.776 5.404 20.918 C 5.581 21.480,6.112 22.091,6.720 22.432 C 7.434 22.832,8.566 22.832,9.280 22.432 C 9.891 22.089,10.418 21.481,10.599 20.910 L 10.646 20.760 12.000 20.760 L 13.354 20.760 13.401 20.910 C 13.582 21.481,14.109 22.089,14.720 22.432 C 15.434 22.832,16.566 22.832,17.280 22.432 C 17.888 22.091,18.419 21.480,18.596 20.918 L 18.641 20.776 19.190 20.729 C 19.870 20.670,20.111 20.608,20.620 20.361 C 21.460 19.954,22.001 19.403,22.400 18.548 C 22.587 18.149,22.667 17.848,22.719 17.355 C 22.775 16.824,22.772 12.025,22.716 11.822 C 22.692 11.735,22.351 11.104,21.959 10.419 C 21.567 9.734,21.167 9.031,21.069 8.857 C 20.516 7.871,19.194 5.585,19.087 5.430 C 18.822 5.044,18.443 4.730,17.989 4.519 C 17.563 4.321,17.320 4.277,16.510 4.251 L 15.760 4.228 15.760 3.136 C 15.760 2.490,15.742 1.960,15.716 1.838 C 15.655 1.554,15.446 1.345,15.162 1.284 C 14.923 1.233,6.089 1.231,5.516 1.282 M1.815 7.278 C 1.331 7.393,1.098 8.004,1.383 8.408 C 1.448 8.499,1.572 8.610,1.660 8.656 C 1.818 8.739,1.865 8.740,4.878 8.751 C 7.020 8.759,8.000 8.749,8.151 8.718 C 8.902 8.562,8.931 7.473,8.189 7.286 C 7.979 7.234,2.033 7.226,1.815 7.278 M20.552 10.967 L 21.240 12.174 21.240 12.707 L 21.240 13.240 20.080 13.240 C 18.973 13.240,18.916 13.236,18.840 13.160 C 18.763 13.083,18.760 13.027,18.760 11.500 C 18.760 9.586,18.697 9.760,19.392 9.760 L 19.864 9.760 20.552 10.967 M1.815 10.278 C 1.331 10.393,1.098 11.004,1.383 11.408 C 1.448 11.499,1.572 11.610,1.660 11.656 C 1.815 11.738,1.880 11.740,3.875 11.752 C 6.208 11.765,6.281 11.759,6.519 11.521 C 6.918 11.122,6.731 10.423,6.189 10.286 C 5.980 10.234,2.031 10.226,1.815 10.278 M1.815 13.278 C 1.331 13.393,1.098 14.004,1.383 14.408 C 1.605 14.722,1.676 14.738,2.869 14.753 C 4.122 14.768,4.296 14.744,4.519 14.521 C 4.918 14.122,4.731 13.423,4.189 13.286 C 3.983 13.235,2.025 13.228,1.815 13.278 M8.526 18.877 C 8.760 18.998,9.008 19.245,9.121 19.470 C 9.256 19.741,9.274 20.152,9.163 20.445 C 9.050 20.745,8.747 21.049,8.454 21.159 C 7.810 21.400,7.075 21.076,6.837 20.445 C 6.727 20.153,6.744 19.733,6.877 19.474 C 7.036 19.166,7.347 18.895,7.646 18.804 C 7.866 18.736,8.327 18.775,8.526 18.877 M16.526 18.877 C 16.760 18.998,17.008 19.245,17.121 19.470 C 17.256 19.741,17.274 20.152,17.163 20.445 C 17.050 20.745,16.747 21.049,16.454 21.159 C 15.810 21.400,15.075 21.076,14.837 20.445 C 14.727 20.153,14.744 19.733,14.877 19.474 C 15.036 19.166,15.347 18.895,15.646 18.804 C 15.866 18.736,16.327 18.775,16.526 18.877 " stroke="none" fill-rule="evenodd" fill="black"></path></svg>