<svg width="24" height="24" viewBox="0 0 24 24" fill="none" xmlns="http://www.w3.org/2000/svg"><path d="M8.080 1.282 C 4.042 1.493,1.931 3.265,1.398 6.891 C 1.310 7.494,1.225 8.895,1.264 9.113 C 1.278 9.194,1.325 9.318,1.368 9.389 C 1.658 9.870,2.422 9.836,2.661 9.332 C 2.718 9.212,2.740 9.022,2.765 8.423 C 2.900 5.187,3.905 3.654,6.288 3.044 C 7.337 2.776,7.247 2.780,12.000 2.780 C 15.936 2.780,16.339 2.786,16.760 2.852 C 19.558 3.288,20.712 4.442,21.148 7.240 C 21.214 7.661,21.220 8.064,21.220 12.000 C 21.220 15.936,21.214 16.339,21.148 16.760 C 20.712 19.558,19.558 20.712,16.760 21.148 C 16.339 21.214,15.936 21.220,12.000 21.220 C 8.064 21.220,7.661 21.214,7.240 21.148 C 4.756 20.761,3.576 19.795,3.044 17.712 C 2.821 16.838,2.790 16.492,2.764 14.600 L 2.740 12.860 2.640 12.686 C 2.359 12.194,1.641 12.194,1.360 12.686 C 1.262 12.857,1.260 12.878,1.247 13.880 C 1.223 15.664,1.336 17.082,1.575 18.027 C 2.267 20.757,3.971 22.193,7.027 22.622 C 7.786 22.728,8.902 22.759,12.000 22.759 C 15.098 22.759,16.214 22.728,16.973 22.622 C 19.443 22.275,20.996 21.288,21.897 19.490 C 22.379 18.530,22.638 17.369,22.720 15.807 C 22.771 14.838,22.771 9.162,22.720 8.193 C 22.657 6.998,22.521 6.191,22.242 5.356 C 21.632 3.531,20.469 2.367,18.650 1.760 C 17.788 1.473,17.023 1.344,15.806 1.280 C 14.952 1.235,8.952 1.237,8.080 1.282 M10.720 5.723 C 10.206 5.786,9.847 5.950,9.582 6.243 C 9.342 6.509,9.214 6.833,9.106 7.452 C 9.053 7.755,9.000 8.014,8.987 8.026 C 8.975 8.038,8.743 8.065,8.472 8.085 C 7.673 8.143,5.938 8.316,5.856 8.345 C 5.705 8.398,5.518 8.568,5.440 8.721 C 5.221 9.149,5.492 9.699,5.960 9.779 C 6.037 9.792,6.250 9.787,6.434 9.769 C 6.662 9.746,6.773 9.749,6.784 9.778 C 6.792 9.801,6.889 11.215,6.999 12.920 C 7.108 14.625,7.218 16.162,7.242 16.335 C 7.361 17.190,7.679 17.685,8.311 17.999 C 8.629 18.156,8.973 18.239,9.496 18.282 C 10.049 18.328,13.957 18.329,14.500 18.283 C 15.757 18.178,16.426 17.692,16.680 16.700 C 16.761 16.382,16.796 15.940,17.039 12.140 C 17.105 11.106,17.170 10.142,17.183 9.998 L 17.206 9.737 17.533 9.770 C 17.713 9.788,17.932 9.793,18.020 9.780 C 18.502 9.709,18.783 9.158,18.560 8.721 C 18.482 8.568,18.295 8.398,18.145 8.345 C 18.059 8.315,16.616 8.184,15.662 8.120 C 15.311 8.096,15.016 8.069,15.007 8.060 C 14.998 8.051,14.948 7.802,14.896 7.506 C 14.748 6.661,14.592 6.338,14.192 6.050 C 13.942 5.871,13.643 5.770,13.213 5.721 C 12.805 5.674,11.104 5.675,10.720 5.723 M13.288 7.250 C 13.323 7.278,13.372 7.422,13.399 7.580 C 13.425 7.734,13.456 7.892,13.467 7.932 C 13.486 8.001,13.419 8.004,12.013 7.988 C 10.788 7.974,10.541 7.962,10.547 7.915 C 10.599 7.506,10.656 7.275,10.714 7.241 C 10.819 7.180,13.210 7.188,13.288 7.250 M14.880 9.561 C 15.309 9.587,15.672 9.621,15.686 9.635 C 15.727 9.675,15.299 16.049,15.236 16.329 C 15.183 16.568,15.033 16.699,14.749 16.758 C 14.603 16.788,13.699 16.799,11.878 16.791 C 9.381 16.781,9.210 16.775,9.048 16.705 C 8.838 16.613,8.773 16.496,8.719 16.112 C 8.668 15.750,8.271 9.635,8.297 9.610 C 8.314 9.593,8.874 9.547,9.560 9.506 C 10.108 9.473,14.137 9.515,14.880 9.561 " stroke="none" fill-rule="evenodd" fill="black"></path></svg>