<svg width="24" height="24" viewBox="0 0 24 24" fill="none" xmlns="http://www.w3.org/2000/svg"><path d="M6.100 5.022 C 6.034 5.056,5.363 5.699,4.610 6.452 C 3.537 7.523,3.225 7.857,3.174 7.990 C 3.082 8.232,3.124 8.481,3.297 8.714 C 3.460 8.934,5.843 11.309,6.027 11.434 C 6.274 11.603,6.655 11.586,6.899 11.394 C 7.133 11.210,7.229 10.796,7.104 10.509 C 7.073 10.438,6.758 10.092,6.404 9.740 C 6.050 9.389,5.760 9.087,5.760 9.070 C 5.760 9.054,6.980 9.040,8.470 9.040 C 11.507 9.040,11.329 9.057,11.577 8.746 C 11.687 8.609,11.700 8.564,11.700 8.323 C 11.700 7.988,11.577 7.774,11.310 7.645 C 11.137 7.561,11.105 7.560,8.378 7.560 L 5.621 7.560 6.326 6.850 C 6.715 6.460,7.061 6.082,7.096 6.012 C 7.169 5.865,7.180 5.577,7.117 5.413 C 7.060 5.259,6.887 5.082,6.731 5.015 C 6.561 4.942,6.249 4.946,6.100 5.022 M14.841 7.623 C 14.565 7.743,14.400 7.995,14.400 8.296 C 14.400 8.528,14.456 8.670,14.610 8.829 C 14.768 8.994,14.879 9.027,15.429 9.077 C 16.484 9.172,17.314 9.536,18.035 10.220 C 18.815 10.960,19.257 11.867,19.358 12.942 C 19.447 13.884,19.200 14.856,18.670 15.648 C 18.086 16.522,17.213 17.146,16.180 17.430 L 15.780 17.539 11.340 17.560 C 7.316 17.578,6.889 17.586,6.780 17.646 C 6.345 17.884,6.265 18.510,6.625 18.847 C 6.688 18.907,6.791 18.974,6.853 18.997 C 6.930 19.027,8.338 19.040,11.313 19.040 C 14.954 19.040,15.718 19.030,16.020 18.981 C 16.723 18.865,17.375 18.640,17.941 18.315 C 20.186 17.027,21.297 14.489,20.713 11.980 C 20.374 10.523,19.465 9.262,18.151 8.428 C 17.442 7.978,16.595 7.694,15.686 7.602 C 15.145 7.547,15.009 7.551,14.841 7.623 " stroke="none" fill-rule="evenodd" fill="black"></path></svg>