<svg width="24" height="24" viewBox="0 0 24 24" fill="none" xmlns="http://www.w3.org/2000/svg"><path d="M5.880 6.747 C 4.955 6.893,4.303 7.143,3.560 7.634 C 2.698 8.203,1.927 9.185,1.582 10.150 C 1.030 11.692,1.178 13.333,1.992 14.700 C 2.748 15.970,4.012 16.870,5.481 17.187 C 5.960 17.290,7.159 17.290,7.640 17.187 C 8.729 16.954,9.694 16.432,10.461 15.662 C 10.681 15.441,10.955 15.123,11.069 14.956 C 11.183 14.789,11.891 13.628,12.642 12.376 C 13.393 11.124,14.085 9.992,14.179 9.860 C 14.370 9.592,14.852 9.118,15.123 8.932 C 15.374 8.760,15.852 8.525,16.180 8.413 C 17.567 7.939,19.078 8.281,20.104 9.299 C 20.578 9.769,20.843 10.190,21.052 10.800 C 21.164 11.126,21.239 11.522,21.240 11.788 C 21.240 11.880,21.260 12.049,21.284 12.162 C 21.405 12.725,22.111 12.929,22.520 12.520 C 22.719 12.321,22.762 12.121,22.719 11.585 C 22.566 9.680,21.423 8.026,19.700 7.218 C 18.881 6.833,18.433 6.740,17.420 6.741 C 16.582 6.741,16.263 6.790,15.640 7.009 C 14.622 7.368,13.663 8.060,13.045 8.880 C 12.918 9.049,12.205 10.202,11.461 11.444 C 9.857 14.118,9.796 14.212,9.403 14.602 C 7.978 16.017,5.764 16.197,4.243 15.021 C 3.776 14.661,3.408 14.215,3.151 13.700 C 2.860 13.117,2.752 12.658,2.752 12.000 C 2.752 11.342,2.860 10.883,3.151 10.300 C 3.408 9.785,3.776 9.339,4.243 8.979 C 5.358 8.117,6.898 7.960,8.160 8.579 C 8.623 8.806,8.772 8.920,9.302 9.461 C 9.734 9.901,9.854 10.001,9.996 10.039 C 10.507 10.176,10.982 9.741,10.909 9.201 C 10.880 8.982,10.689 8.722,10.204 8.238 C 9.417 7.454,8.485 6.964,7.442 6.785 C 7.097 6.725,6.159 6.703,5.880 6.747 M13.585 13.979 C 13.102 14.151,12.935 14.697,13.234 15.131 C 13.430 15.416,13.962 15.960,14.287 16.207 C 14.888 16.666,15.532 16.972,16.320 17.173 C 16.617 17.249,16.763 17.259,17.480 17.257 C 18.267 17.254,18.319 17.249,18.780 17.128 C 19.118 17.039,19.414 16.925,19.780 16.742 C 20.556 16.356,20.729 16.182,20.734 15.781 C 20.740 15.359,20.421 15.040,19.994 15.040 C 19.808 15.040,19.734 15.065,19.497 15.208 C 18.873 15.585,18.323 15.755,17.620 15.786 C 16.867 15.821,16.285 15.676,15.571 15.276 C 15.329 15.140,15.140 14.981,14.718 14.555 C 14.293 14.126,14.143 13.999,14.018 13.964 C 13.819 13.909,13.776 13.911,13.585 13.979 " stroke="none" fill-rule="evenodd" fill="black"></path></svg>