<svg width="24" height="24" viewBox="0 0 24 24" fill="none" xmlns="http://www.w3.org/2000/svg"><path d="M11.169 1.281 C 8.120 1.479,6.292 2.773,5.584 5.233 C 5.364 5.997,5.289 6.675,5.254 8.201 L 5.228 9.341 4.784 9.414 C 3.813 9.572,3.024 9.937,2.481 10.481 C 1.809 11.152,1.468 12.040,1.313 13.520 C 1.241 14.210,1.241 17.789,1.313 18.480 C 1.467 19.952,1.812 20.850,2.480 21.519 C 3.130 22.170,3.988 22.508,5.440 22.684 C 5.964 22.748,16.431 22.781,17.700 22.724 C 18.653 22.680,19.176 22.618,19.716 22.483 C 20.473 22.295,21.206 21.902,21.358 21.604 C 21.503 21.320,21.457 20.970,21.247 20.745 C 21.029 20.512,20.625 20.446,20.359 20.601 C 20.029 20.794,19.637 20.957,19.320 21.034 C 18.551 21.222,18.622 21.220,11.940 21.220 C 5.975 21.220,5.595 21.216,5.180 21.146 C 3.901 20.931,3.356 20.535,3.039 19.589 C 2.798 18.874,2.780 18.621,2.780 16.000 C 2.780 13.379,2.798 13.126,3.039 12.411 C 3.356 11.465,3.901 11.069,5.180 10.854 C 5.595 10.784,5.977 10.780,12.000 10.780 C 18.023 10.780,18.405 10.784,18.820 10.854 C 19.576 10.981,20.182 11.232,20.478 11.539 C 20.666 11.734,20.863 12.095,20.974 12.450 C 21.182 13.110,21.208 13.398,21.235 15.380 C 21.260 17.214,21.260 17.220,21.353 17.369 C 21.613 17.788,22.179 17.861,22.521 17.519 C 22.761 17.279,22.775 17.149,22.747 15.380 C 22.716 13.383,22.654 12.806,22.376 11.932 C 21.932 10.537,20.913 9.710,19.280 9.422 C 18.445 9.274,18.247 9.269,12.470 9.252 L 6.760 9.235 6.760 8.262 C 6.760 7.202,6.800 6.676,6.926 6.060 C 7.311 4.188,8.340 3.233,10.359 2.873 C 10.941 2.770,12.352 2.730,13.079 2.796 C 15.155 2.987,16.408 3.724,16.924 5.058 C 17.102 5.518,17.199 6.017,17.238 6.666 C 17.266 7.145,17.285 7.259,17.359 7.378 C 17.700 7.930,18.578 7.807,18.710 7.187 C 18.763 6.939,18.700 5.971,18.599 5.486 C 18.149 3.322,16.808 2.028,14.472 1.504 C 13.582 1.304,12.227 1.213,11.169 1.281 M11.720 12.805 C 11.457 12.909,11.269 13.200,11.269 13.501 C 11.269 13.724,11.316 13.842,11.475 14.013 C 11.629 14.179,11.688 14.202,12.118 14.258 C 12.611 14.322,12.890 14.448,13.202 14.745 C 13.929 15.439,13.929 16.561,13.202 17.255 C 12.511 17.914,11.489 17.914,10.798 17.255 C 10.470 16.942,10.326 16.640,10.259 16.126 C 10.202 15.688,10.180 15.629,10.013 15.475 C 9.842 15.316,9.724 15.269,9.501 15.269 C 9.273 15.269,9.111 15.339,8.953 15.506 C 8.808 15.659,8.760 15.801,8.760 16.073 C 8.761 16.902,9.086 17.653,9.716 18.284 C 10.368 18.935,11.095 19.239,12.000 19.239 C 12.905 19.239,13.632 18.935,14.284 18.284 C 14.935 17.632,15.239 16.905,15.239 16.000 C 15.239 15.095,14.935 14.368,14.284 13.716 C 13.770 13.203,13.214 12.908,12.560 12.803 C 12.239 12.751,11.853 12.752,11.720 12.805 " stroke="none" fill-rule="evenodd" fill="black"></path></svg>