<svg width="24" height="24" viewBox="0 0 24 24" fill="none" xmlns="http://www.w3.org/2000/svg"><path d="M5.611 1.281 C 4.146 1.438,2.917 2.419,2.455 3.799 C 2.252 4.403,2.207 5.075,2.350 5.341 C 2.458 5.541,2.765 5.720,3.000 5.720 C 3.155 5.720,3.391 5.623,3.513 5.508 C 3.668 5.363,3.720 5.219,3.757 4.830 C 3.818 4.183,4.009 3.788,4.465 3.361 C 4.749 3.095,5.077 2.911,5.428 2.820 C 5.773 2.730,18.227 2.730,18.572 2.820 C 18.923 2.911,19.251 3.095,19.535 3.361 C 19.858 3.664,20.022 3.916,20.144 4.302 L 20.240 4.603 20.240 10.412 C 20.240 15.948,20.237 16.234,20.166 16.489 C 19.979 17.161,19.364 17.790,18.683 18.004 C 18.466 18.072,18.254 18.092,17.480 18.119 C 16.641 18.149,16.502 18.163,16.188 18.256 C 15.388 18.494,15.091 18.707,13.808 19.970 C 12.588 21.172,12.518 21.220,11.980 21.220 C 11.475 21.220,11.420 21.181,10.200 19.981 C 9.076 18.875,8.798 18.653,8.237 18.416 C 7.685 18.184,7.534 18.158,6.520 18.121 C 5.749 18.092,5.533 18.071,5.317 18.004 C 4.837 17.853,4.376 17.490,4.073 17.023 C 3.764 16.547,3.783 16.823,3.761 12.600 C 3.742 9.182,3.734 8.809,3.674 8.700 C 3.538 8.454,3.253 8.279,2.991 8.281 C 2.708 8.283,2.362 8.535,2.290 8.793 C 2.273 8.852,2.260 10.574,2.260 12.620 C 2.260 16.005,2.267 16.367,2.330 16.638 C 2.666 18.084,3.718 19.149,5.160 19.501 C 5.330 19.543,5.733 19.576,6.320 19.596 C 7.313 19.631,7.533 19.676,7.940 19.932 C 8.050 20.001,8.617 20.527,9.200 21.100 C 9.783 21.673,10.367 22.213,10.498 22.299 C 11.248 22.791,12.362 22.860,13.184 22.464 C 13.582 22.273,13.785 22.100,14.900 20.999 C 16.275 19.643,16.265 19.648,17.660 19.598 C 18.258 19.576,18.671 19.543,18.840 19.501 C 20.450 19.108,21.565 17.828,21.721 16.193 C 21.751 15.884,21.761 13.947,21.752 10.100 L 21.738 4.460 21.634 4.080 C 21.498 3.589,21.369 3.302,21.103 2.903 C 20.588 2.131,19.755 1.563,18.800 1.335 C 18.519 1.268,18.098 1.263,12.200 1.257 C 8.735 1.253,5.770 1.264,5.611 1.281 M11.360 4.660 C 10.232 4.887,9.288 5.807,8.997 6.963 C 8.907 7.319,8.925 8.118,9.032 8.492 C 9.350 9.608,10.259 10.456,11.380 10.683 C 11.887 10.785,12.588 10.732,13.080 10.555 C 13.957 10.238,14.704 9.427,14.960 8.514 C 15.198 7.662,15.054 6.715,14.575 5.994 C 14.239 5.486,13.644 4.992,13.145 4.805 C 12.617 4.608,11.906 4.550,11.360 4.660 M12.282 6.120 C 12.603 6.181,12.878 6.326,13.103 6.552 C 13.580 7.034,13.705 7.728,13.426 8.339 C 13.294 8.627,12.947 8.973,12.651 9.112 C 12.446 9.208,12.373 9.220,12.000 9.220 C 11.627 9.220,11.554 9.208,11.349 9.112 C 11.053 8.973,10.706 8.627,10.574 8.339 C 10.103 7.309,10.828 6.132,11.965 6.084 C 12.022 6.082,12.165 6.098,12.282 6.120 M11.538 11.681 C 9.773 11.825,8.295 12.752,7.618 14.140 C 7.315 14.761,7.170 15.682,7.329 15.980 C 7.471 16.246,7.716 16.400,8.000 16.400 C 8.201 16.400,8.353 16.341,8.494 16.207 C 8.666 16.044,8.715 15.920,8.760 15.523 C 8.807 15.105,8.899 14.834,9.093 14.544 C 9.388 14.102,9.950 13.653,10.475 13.439 C 11.013 13.220,11.244 13.181,12.000 13.181 C 12.756 13.181,12.987 13.220,13.525 13.439 C 14.050 13.653,14.612 14.102,14.907 14.544 C 15.101 14.834,15.193 15.105,15.240 15.523 C 15.285 15.920,15.334 16.044,15.506 16.207 C 15.647 16.341,15.799 16.400,16.000 16.400 C 16.284 16.400,16.529 16.246,16.671 15.980 C 16.829 15.683,16.685 14.762,16.382 14.140 C 15.588 12.507,13.626 11.511,11.538 11.681 " stroke="none" fill-rule="evenodd" fill="black"></path></svg>