<svg width="24" height="24" viewBox="0 0 24 24" fill="none" xmlns="http://www.w3.org/2000/svg"><path d="M11.533 1.282 C 9.273 1.466,7.317 2.976,6.582 5.105 C 5.816 7.323,6.457 9.763,8.213 11.313 C 9.749 12.669,11.935 13.095,13.895 12.418 C 15.766 11.772,17.225 10.114,17.618 8.188 C 17.712 7.727,17.759 7.040,17.712 6.819 C 17.607 6.327,16.985 6.097,16.566 6.396 C 16.338 6.558,16.279 6.711,16.238 7.239 C 16.191 7.871,16.126 8.135,15.869 8.740 C 15.498 9.618,14.618 10.498,13.740 10.869 C 12.999 11.183,12.826 11.218,12.000 11.218 C 11.174 11.218,11.001 11.183,10.260 10.869 C 9.382 10.498,8.502 9.618,8.131 8.740 C 7.817 7.999,7.782 7.826,7.782 7.000 C 7.782 6.456,7.798 6.242,7.853 6.040 C 8.247 4.587,9.193 3.521,10.540 3.012 C 10.943 2.860,11.280 2.795,11.784 2.772 C 12.830 2.726,13.566 2.932,14.436 3.515 C 14.754 3.728,14.785 3.740,15.019 3.740 C 15.331 3.740,15.549 3.610,15.675 3.350 C 15.846 2.997,15.736 2.617,15.387 2.356 C 14.324 1.560,12.920 1.169,11.533 1.282 M11.240 14.285 C 7.741 14.497,4.623 16.415,3.313 19.160 C 2.938 19.947,2.729 20.779,2.693 21.627 C 2.669 22.182,2.670 22.197,2.770 22.367 C 2.905 22.597,3.143 22.731,3.417 22.731 C 3.872 22.731,4.160 22.403,4.160 21.884 C 4.160 21.579,4.225 21.110,4.319 20.745 C 4.802 18.855,6.433 17.200,8.640 16.360 C 10.755 15.554,13.251 15.554,15.360 16.360 C 17.041 17.002,18.378 18.094,19.157 19.460 C 19.582 20.205,19.840 21.122,19.840 21.884 C 19.840 22.404,20.128 22.731,20.586 22.731 C 20.859 22.731,21.106 22.589,21.236 22.358 C 21.328 22.195,21.330 22.167,21.307 21.624 C 21.200 19.087,19.509 16.721,16.845 15.381 C 15.566 14.737,14.181 14.374,12.654 14.282 C 12.283 14.259,11.935 14.243,11.880 14.246 C 11.825 14.249,11.537 14.266,11.240 14.285 " stroke="none" fill-rule="evenodd" fill="black"></path></svg>