<svg width="24" height="24" viewBox="0 0 24 24" fill="none" xmlns="http://www.w3.org/2000/svg"><path d="M11.533 1.282 C 9.273 1.466,7.317 2.976,6.582 5.105 C 5.816 7.323,6.457 9.763,8.213 11.313 C 9.749 12.669,11.935 13.095,13.895 12.418 C 15.766 11.772,17.225 10.114,17.618 8.188 C 17.712 7.727,17.759 7.040,17.712 6.819 C 17.607 6.327,16.985 6.097,16.566 6.396 C 16.338 6.558,16.279 6.711,16.238 7.239 C 16.191 7.871,16.126 8.135,15.869 8.740 C 15.498 9.618,14.618 10.498,13.740 10.869 C 12.999 11.183,12.826 11.218,12.000 11.218 C 11.174 11.218,11.001 11.183,10.260 10.869 C 9.382 10.498,8.502 9.618,8.131 8.740 C 7.817 7.999,7.782 7.826,7.782 7.000 C 7.782 6.456,7.798 6.242,7.853 6.040 C 8.247 4.587,9.193 3.521,10.540 3.012 C 10.943 2.860,11.280 2.795,11.784 2.772 C 12.830 2.726,13.566 2.932,14.436 3.515 C 14.754 3.728,14.785 3.740,15.019 3.740 C 15.331 3.740,15.549 3.610,15.675 3.350 C 15.846 2.997,15.736 2.617,15.387 2.356 C 14.324 1.560,12.920 1.169,11.533 1.282 M17.551 13.282 C 16.582 13.368,15.692 13.744,14.929 14.390 C 14.751 14.540,14.697 14.565,14.589 14.549 C 14.518 14.538,14.194 14.483,13.869 14.425 C 9.774 13.701,5.531 15.409,3.644 18.540 C 3.065 19.502,2.738 20.563,2.693 21.627 C 2.669 22.182,2.670 22.197,2.770 22.367 C 2.905 22.597,3.143 22.731,3.417 22.731 C 3.872 22.731,4.160 22.403,4.160 21.884 C 4.160 21.753,4.179 21.508,4.203 21.339 C 4.370 20.138,4.925 19.070,5.878 18.119 C 7.145 16.854,8.820 16.080,10.860 15.818 C 11.671 15.713,13.720 15.790,13.720 15.925 C 13.720 15.943,13.674 16.062,13.618 16.189 C 13.354 16.783,13.218 17.702,13.282 18.445 C 13.395 19.746,14.110 21.015,15.178 21.810 C 15.592 22.118,16.280 22.452,16.768 22.581 C 17.950 22.893,19.292 22.730,20.289 22.153 C 22.575 20.831,23.390 18.094,22.188 15.781 C 21.316 14.104,19.473 13.111,17.551 13.282 M18.980 14.894 C 19.508 15.068,19.854 15.286,20.284 15.716 C 20.937 16.368,21.196 16.956,21.229 17.860 C 21.253 18.514,21.174 18.875,20.872 19.480 C 20.696 19.832,20.607 19.956,20.321 20.245 C 19.629 20.946,18.937 21.240,17.984 21.240 C 16.229 21.240,14.763 19.779,14.761 18.028 C 14.759 17.106,15.087 16.316,15.727 15.696 C 16.193 15.244,16.642 14.989,17.237 14.838 C 17.694 14.722,18.538 14.749,18.980 14.894 M19.256 16.337 C 19.188 16.367,18.756 16.741,18.295 17.170 L 17.456 17.950 17.137 17.642 C 16.883 17.397,16.778 17.324,16.629 17.286 C 16.296 17.203,15.978 17.332,15.796 17.626 C 15.693 17.794,15.673 18.156,15.759 18.320 C 15.845 18.486,16.928 19.561,17.097 19.648 C 17.319 19.762,17.657 19.735,17.867 19.586 C 18.134 19.396,20.132 17.506,20.214 17.367 C 20.309 17.202,20.317 16.867,20.229 16.699 C 20.148 16.544,19.969 16.376,19.827 16.323 C 19.675 16.265,19.407 16.272,19.256 16.337 " stroke="none" fill-rule="evenodd" fill="black"></path></svg>