<svg width="24" height="24" viewBox="0 0 24 24" fill="none" xmlns="http://www.w3.org/2000/svg"><path d="M11.533 1.282 C 9.273 1.466,7.317 2.976,6.582 5.105 C 5.816 7.323,6.457 9.763,8.213 11.313 C 9.749 12.669,11.935 13.095,13.895 12.418 C 15.766 11.772,17.225 10.114,17.618 8.188 C 17.712 7.727,17.759 7.040,17.712 6.819 C 17.607 6.327,16.985 6.097,16.566 6.396 C 16.338 6.558,16.279 6.711,16.238 7.239 C 16.191 7.871,16.126 8.135,15.869 8.740 C 15.498 9.618,14.618 10.498,13.740 10.869 C 12.999 11.183,12.826 11.218,12.000 11.218 C 11.174 11.218,11.001 11.183,10.260 10.869 C 9.382 10.498,8.502 9.618,8.131 8.740 C 7.817 7.999,7.782 7.826,7.782 7.000 C 7.782 6.456,7.798 6.242,7.853 6.040 C 8.247 4.587,9.193 3.521,10.540 3.012 C 10.943 2.860,11.280 2.795,11.784 2.772 C 12.830 2.726,13.566 2.932,14.436 3.515 C 14.754 3.728,14.785 3.740,15.019 3.740 C 15.331 3.740,15.549 3.610,15.675 3.350 C 15.846 2.997,15.736 2.617,15.387 2.356 C 14.324 1.560,12.920 1.169,11.533 1.282 M11.256 14.283 C 7.743 14.496,4.625 16.410,3.313 19.160 C 2.938 19.947,2.729 20.779,2.693 21.627 C 2.669 22.182,2.670 22.197,2.770 22.367 C 2.905 22.597,3.143 22.731,3.417 22.731 C 3.872 22.731,4.160 22.403,4.160 21.884 C 4.160 21.579,4.225 21.110,4.319 20.745 C 4.802 18.855,6.433 17.200,8.640 16.360 C 9.559 16.010,10.802 15.760,11.626 15.760 C 12.116 15.760,12.340 15.700,12.518 15.522 C 13.013 15.027,12.612 14.208,11.892 14.246 C 11.831 14.249,11.544 14.266,11.256 14.283 M17.780 14.284 C 16.888 14.378,16.061 14.775,15.418 15.418 C 14.077 16.759,13.884 18.805,14.946 20.430 C 15.139 20.726,15.674 21.261,15.970 21.454 C 17.278 22.309,18.935 22.361,20.212 21.587 L 20.405 21.470 21.012 22.070 C 21.562 22.612,21.638 22.673,21.810 22.710 C 22.388 22.833,22.833 22.388,22.710 21.810 C 22.673 21.638,22.612 21.562,22.070 21.012 L 21.470 20.405 21.587 20.212 C 22.132 19.313,22.279 18.137,21.978 17.097 C 21.788 16.442,21.471 15.907,20.982 15.418 C 20.317 14.754,19.521 14.381,18.557 14.282 C 18.334 14.259,18.140 14.242,18.126 14.245 C 18.112 14.248,17.956 14.266,17.780 14.284 M18.796 15.821 C 19.205 15.918,19.581 16.137,19.922 16.478 C 20.418 16.975,20.639 17.504,20.639 18.200 C 20.639 18.896,20.418 19.425,19.922 19.922 C 19.425 20.418,18.896 20.639,18.200 20.639 C 17.504 20.639,16.975 20.418,16.478 19.922 C 15.982 19.425,15.761 18.896,15.761 18.200 C 15.761 17.504,15.982 16.975,16.478 16.478 C 16.812 16.144,17.195 15.918,17.586 15.823 C 17.898 15.748,18.480 15.747,18.796 15.821 " stroke="none" fill-rule="evenodd" fill="black"></path></svg>