<svg width="24" height="24" viewBox="0 0 24 24" fill="none" xmlns="http://www.w3.org/2000/svg"><path d="M11.533 1.282 C 9.273 1.466,7.317 2.976,6.582 5.105 C 5.816 7.323,6.457 9.763,8.213 11.313 C 9.749 12.669,11.935 13.095,13.895 12.418 C 15.766 11.772,17.225 10.114,17.618 8.188 C 17.712 7.727,17.759 7.040,17.712 6.819 C 17.607 6.327,16.985 6.097,16.566 6.396 C 16.338 6.558,16.279 6.711,16.238 7.239 C 16.191 7.871,16.126 8.135,15.869 8.740 C 15.498 9.618,14.618 10.498,13.740 10.869 C 12.999 11.183,12.826 11.218,12.000 11.218 C 11.174 11.218,11.001 11.183,10.260 10.869 C 9.382 10.498,8.502 9.618,8.131 8.740 C 7.817 7.999,7.782 7.826,7.782 7.000 C 7.782 6.456,7.798 6.242,7.853 6.040 C 8.247 4.587,9.193 3.521,10.540 3.012 C 10.943 2.860,11.280 2.795,11.784 2.772 C 12.830 2.726,13.566 2.932,14.436 3.515 C 14.754 3.728,14.785 3.740,15.019 3.740 C 15.331 3.740,15.549 3.610,15.675 3.350 C 15.846 2.997,15.736 2.617,15.387 2.356 C 14.324 1.560,12.920 1.169,11.533 1.282 M11.256 14.283 C 7.733 14.502,4.625 16.410,3.313 19.160 C 2.938 19.947,2.729 20.779,2.693 21.627 C 2.669 22.182,2.670 22.197,2.770 22.367 C 2.905 22.597,3.143 22.731,3.417 22.731 C 3.872 22.731,4.160 22.403,4.160 21.884 C 4.160 21.753,4.179 21.508,4.203 21.339 C 4.370 20.138,4.925 19.070,5.878 18.119 C 7.145 16.854,8.820 16.080,10.860 15.818 C 11.262 15.766,11.570 15.755,12.220 15.771 C 13.129 15.794,13.618 15.856,14.356 16.042 C 14.611 16.107,14.897 16.160,14.992 16.160 C 15.487 16.160,15.840 15.645,15.663 15.181 C 15.524 14.817,15.271 14.697,14.200 14.483 C 13.258 14.294,12.209 14.223,11.256 14.283 M19.710 14.534 C 19.561 14.585,19.318 14.710,19.170 14.811 C 18.816 15.054,15.024 18.845,14.870 19.110 C 14.710 19.385,14.657 19.594,14.538 20.411 C 14.370 21.570,14.418 21.902,14.813 22.313 C 15.216 22.732,15.557 22.787,16.737 22.622 C 17.543 22.509,17.824 22.432,18.110 22.246 C 18.209 22.182,19.162 21.259,20.228 20.195 C 22.289 18.137,22.486 17.911,22.639 17.414 C 22.746 17.068,22.746 16.614,22.641 16.271 C 22.424 15.569,21.593 14.737,20.894 14.521 C 20.528 14.408,20.065 14.413,19.710 14.534 M20.602 16.034 C 20.928 16.241,21.240 16.641,21.240 16.850 C 21.240 16.970,21.055 17.257,20.853 17.450 L 20.696 17.600 20.498 17.476 C 20.224 17.305,19.900 16.985,19.714 16.702 L 19.558 16.465 19.749 16.269 C 19.963 16.050,20.170 15.924,20.322 15.922 C 20.378 15.921,20.504 15.971,20.602 16.034 M18.576 17.684 C 18.686 17.870,19.143 18.341,19.375 18.508 C 19.488 18.589,19.588 18.661,19.598 18.669 C 19.623 18.688,17.361 20.954,17.264 21.007 C 17.189 21.048,15.972 21.239,15.947 21.213 C 15.939 21.206,15.976 20.908,16.027 20.550 L 16.121 19.900 17.290 18.730 C 17.933 18.087,18.469 17.560,18.481 17.560 C 18.493 17.560,18.536 17.616,18.576 17.684 " stroke="none" fill-rule="evenodd" fill="black"></path></svg>