<svg width="24" height="24" viewBox="0 0 24 24" fill="none" xmlns="http://www.w3.org/2000/svg"><path d="M11.533 1.282 C 9.273 1.466,7.317 2.976,6.582 5.105 C 5.816 7.323,6.457 9.763,8.213 11.313 C 9.749 12.669,11.935 13.095,13.895 12.418 C 15.766 11.772,17.225 10.114,17.618 8.188 C 17.712 7.727,17.759 7.040,17.712 6.819 C 17.607 6.327,16.985 6.097,16.566 6.396 C 16.338 6.558,16.279 6.711,16.238 7.239 C 16.191 7.871,16.126 8.135,15.869 8.740 C 15.498 9.618,14.618 10.498,13.740 10.869 C 12.999 11.183,12.826 11.218,12.000 11.218 C 11.174 11.218,11.001 11.183,10.260 10.869 C 9.382 10.498,8.502 9.618,8.131 8.740 C 7.817 7.999,7.782 7.826,7.782 7.000 C 7.782 6.456,7.798 6.242,7.853 6.040 C 8.247 4.587,9.193 3.521,10.540 3.012 C 10.943 2.860,11.280 2.795,11.784 2.772 C 12.830 2.726,13.566 2.932,14.436 3.515 C 14.754 3.728,14.785 3.740,15.019 3.740 C 15.331 3.740,15.549 3.610,15.675 3.350 C 15.846 2.997,15.736 2.617,15.387 2.356 C 14.324 1.560,12.920 1.169,11.533 1.282 M17.579 13.280 C 16.585 13.367,15.511 13.828,14.853 14.450 C 14.709 14.586,14.787 14.588,13.869 14.425 C 9.775 13.701,5.530 15.409,3.644 18.540 C 3.065 19.502,2.738 20.563,2.693 21.627 C 2.669 22.182,2.670 22.197,2.770 22.367 C 2.905 22.597,3.143 22.731,3.417 22.731 C 3.872 22.731,4.160 22.403,4.160 21.884 C 4.160 21.579,4.225 21.110,4.319 20.745 C 4.802 18.855,6.433 17.200,8.640 16.360 C 9.801 15.918,10.888 15.739,12.220 15.771 C 12.996 15.790,13.720 15.860,13.720 15.916 C 13.720 15.929,13.666 16.073,13.599 16.236 C 13.331 16.894,13.216 17.687,13.281 18.432 C 13.478 20.690,15.315 22.520,17.580 22.717 C 19.897 22.917,21.979 21.451,22.579 19.196 C 23.011 17.571,22.549 15.867,21.348 14.661 C 20.343 13.652,18.989 13.156,17.579 13.280 M18.658 14.820 C 19.711 15.043,20.618 15.803,21.023 16.801 C 21.640 18.317,20.938 20.156,19.465 20.881 C 18.934 21.143,18.543 21.240,18.016 21.240 C 17.066 21.240,16.390 20.951,15.678 20.241 C 15.388 19.952,15.305 19.836,15.128 19.480 C 14.826 18.874,14.747 18.513,14.771 17.860 C 14.803 17.008,15.049 16.409,15.611 15.815 C 16.120 15.278,16.657 14.967,17.324 14.822 C 17.664 14.748,18.314 14.747,18.658 14.820 M16.167 17.326 C 15.909 17.453,15.780 17.672,15.780 17.980 C 15.780 18.291,15.910 18.509,16.170 18.635 C 16.340 18.717,16.396 18.720,18.000 18.720 C 19.583 18.720,19.662 18.716,19.823 18.639 C 19.919 18.592,20.040 18.486,20.106 18.392 C 20.201 18.254,20.220 18.186,20.220 17.980 C 20.220 17.774,20.201 17.706,20.106 17.568 C 20.040 17.474,19.919 17.368,19.823 17.321 C 19.662 17.244,19.583 17.240,17.997 17.240 C 16.383 17.240,16.335 17.242,16.167 17.326 " stroke="none" fill-rule="evenodd" fill="black"></path></svg>