<svg width="24" height="24" viewBox="0 0 24 24" fill="none" xmlns="http://www.w3.org/2000/svg"><path d="M11.740 1.268 C 11.230 1.297,10.711 1.442,10.226 1.691 C 9.818 1.901,9.700 2.065,9.700 2.420 C 9.700 2.731,9.830 2.949,10.090 3.075 C 10.343 3.198,10.538 3.184,10.904 3.017 C 11.386 2.797,11.631 2.747,12.120 2.770 C 12.431 2.784,12.608 2.815,12.803 2.887 C 13.121 3.006,19.200 6.509,19.460 6.724 C 19.855 7.051,20.128 7.481,20.269 8.000 C 20.335 8.240,20.340 8.549,20.340 12.000 C 20.340 16.203,20.357 15.946,20.036 16.563 C 19.718 17.175,19.696 17.189,16.180 19.218 C 14.466 20.207,12.946 21.060,12.802 21.113 C 12.491 21.228,11.902 21.272,11.549 21.206 C 11.422 21.182,11.205 21.112,11.067 21.051 C 10.928 20.990,9.439 20.148,7.757 19.180 C 4.825 17.492,4.688 17.408,4.398 17.120 C 4.057 16.781,3.838 16.406,3.741 15.996 C 3.651 15.611,3.650 8.375,3.741 8.018 C 3.854 7.570,4.064 7.207,4.398 6.880 C 4.665 6.618,4.840 6.502,5.763 5.972 C 6.824 5.363,6.998 5.237,7.077 5.027 C 7.307 4.420,6.695 3.813,6.113 4.070 C 5.892 4.168,4.188 5.154,3.860 5.373 C 3.208 5.810,2.621 6.608,2.368 7.400 C 2.177 8.000,2.180 7.917,2.180 12.000 C 2.180 15.471,2.187 15.890,2.247 16.160 C 2.352 16.628,2.528 17.084,2.743 17.443 C 2.972 17.825,3.506 18.392,3.860 18.628 C 4.134 18.811,9.946 22.171,10.279 22.340 C 10.798 22.602,11.366 22.728,12.027 22.727 C 12.678 22.727,13.175 22.611,13.740 22.329 C 14.144 22.127,19.636 18.955,20.040 18.690 C 20.801 18.191,21.371 17.457,21.632 16.640 C 21.823 16.040,21.820 16.125,21.820 12.000 C 21.820 8.927,21.809 8.049,21.767 7.860 C 21.526 6.756,20.954 5.906,20.064 5.325 C 19.635 5.046,14.148 1.875,13.740 1.671 C 13.131 1.367,12.444 1.229,11.740 1.268 M11.360 5.660 C 10.232 5.887,9.288 6.807,8.997 7.963 C 8.907 8.319,8.925 9.118,9.032 9.492 C 9.350 10.608,10.259 11.456,11.380 11.683 C 11.887 11.785,12.588 11.732,13.080 11.555 C 13.957 11.238,14.704 10.427,14.960 9.514 C 15.198 8.662,15.054 7.715,14.575 6.994 C 14.239 6.486,13.644 5.992,13.145 5.805 C 12.617 5.608,11.906 5.550,11.360 5.660 M12.282 7.120 C 12.603 7.181,12.878 7.326,13.103 7.552 C 13.580 8.034,13.705 8.728,13.426 9.339 C 13.294 9.627,12.947 9.973,12.651 10.112 C 12.446 10.208,12.373 10.220,12.000 10.220 C 11.627 10.220,11.554 10.208,11.349 10.112 C 11.053 9.973,10.706 9.627,10.574 9.339 C 10.103 8.309,10.828 7.132,11.965 7.084 C 12.022 7.082,12.165 7.098,12.282 7.120 M11.538 12.681 C 9.773 12.825,8.295 13.752,7.618 15.140 C 7.315 15.761,7.170 16.682,7.329 16.980 C 7.471 17.246,7.716 17.400,8.000 17.400 C 8.201 17.400,8.353 17.341,8.494 17.207 C 8.666 17.044,8.715 16.920,8.760 16.523 C 8.807 16.105,8.899 15.834,9.093 15.544 C 9.388 15.102,9.950 14.653,10.475 14.439 C 11.013 14.220,11.244 14.181,12.000 14.181 C 12.756 14.181,12.987 14.220,13.525 14.439 C 14.050 14.653,14.612 15.102,14.907 15.544 C 15.101 15.834,15.193 16.105,15.240 16.523 C 15.285 16.920,15.334 17.044,15.506 17.207 C 15.647 17.341,15.799 17.400,16.000 17.400 C 16.284 17.400,16.529 17.246,16.671 16.980 C 16.829 16.683,16.685 15.762,16.382 15.140 C 15.588 13.507,13.626 12.511,11.538 12.681 " stroke="none" fill-rule="evenodd" fill="black"></path></svg>