<svg width="24" height="24" viewBox="0 0 24 24" fill="none" xmlns="http://www.w3.org/2000/svg"><path d="M11.360 1.339 C 10.852 1.453,10.531 1.658,9.539 2.506 C 8.952 3.007,8.540 3.328,8.400 3.394 C 8.182 3.496,8.168 3.497,6.920 3.521 C 5.681 3.544,5.655 3.546,5.344 3.654 C 4.633 3.900,4.100 4.367,3.759 5.043 C 3.519 5.516,3.433 6.228,3.579 6.532 C 3.766 6.925,4.313 7.061,4.674 6.804 C 4.863 6.670,4.952 6.488,4.994 6.149 C 5.021 5.933,5.068 5.777,5.150 5.630 C 5.279 5.401,5.576 5.147,5.800 5.074 C 5.883 5.047,6.448 5.017,7.180 5.001 C 8.543 4.970,8.599 4.961,9.140 4.691 C 9.449 4.536,9.630 4.396,10.600 3.563 C 11.431 2.849,11.547 2.784,12.000 2.782 C 12.455 2.779,12.534 2.827,13.580 3.725 C 14.490 4.507,14.769 4.696,15.260 4.866 C 15.575 4.974,15.598 4.976,16.820 4.998 L 18.060 5.020 18.286 5.131 C 18.548 5.260,18.773 5.491,18.893 5.755 C 18.970 5.925,18.979 6.037,19.002 7.180 C 19.030 8.554,19.038 8.600,19.321 9.160 C 19.474 9.463,19.561 9.574,20.500 10.674 C 21.155 11.441,21.218 11.556,21.219 11.981 C 21.220 12.217,21.199 12.350,21.140 12.481 C 21.096 12.580,20.721 13.056,20.307 13.540 C 19.492 14.491,19.304 14.767,19.134 15.260 C 19.026 15.573,19.023 15.605,18.997 16.800 C 18.981 17.546,18.953 18.078,18.924 18.168 C 18.852 18.395,18.599 18.686,18.357 18.820 L 18.140 18.940 16.920 18.964 L 15.700 18.988 15.320 19.113 C 15.111 19.182,14.831 19.303,14.698 19.382 C 14.565 19.460,14.070 19.856,13.598 20.262 C 13.126 20.667,12.645 21.046,12.529 21.104 C 12.255 21.242,11.793 21.254,11.518 21.131 C 11.419 21.087,10.930 20.700,10.420 20.263 C 9.640 19.595,9.445 19.448,9.140 19.300 C 8.540 19.008,8.422 18.989,7.040 18.963 C 5.892 18.941,5.811 18.935,5.660 18.854 C 5.432 18.731,5.205 18.492,5.095 18.260 C 5.004 18.067,5.001 18.026,5.000 17.073 C 5.000 15.932,4.962 15.590,4.786 15.120 C 4.617 14.670,4.490 14.490,3.661 13.520 C 3.275 13.069,2.919 12.619,2.870 12.520 C 2.796 12.373,2.780 12.274,2.781 11.980 C 2.782 11.535,2.818 11.458,3.317 10.862 C 3.729 10.369,3.794 10.218,3.721 9.927 C 3.629 9.562,3.375 9.350,3.026 9.347 C 2.695 9.343,2.562 9.436,2.104 9.983 C 1.637 10.543,1.481 10.809,1.358 11.259 C 1.283 11.531,1.274 11.647,1.290 12.097 C 1.322 13.001,1.444 13.235,2.563 14.540 C 2.981 15.028,3.291 15.426,3.355 15.560 C 3.459 15.778,3.460 15.790,3.486 17.000 C 3.513 18.316,3.534 18.467,3.755 18.940 C 3.985 19.432,4.528 19.975,5.020 20.205 C 5.494 20.426,5.645 20.448,6.960 20.477 C 8.269 20.507,8.380 20.524,8.660 20.737 C 8.729 20.790,9.135 21.134,9.563 21.502 C 10.470 22.282,10.661 22.414,11.120 22.576 C 11.434 22.688,11.501 22.697,12.000 22.696 C 12.488 22.695,12.572 22.684,12.874 22.581 C 13.330 22.425,13.526 22.289,14.515 21.443 C 15.067 20.970,15.450 20.674,15.595 20.605 C 15.818 20.501,15.830 20.500,17.020 20.476 C 18.312 20.451,18.519 20.422,18.937 20.212 C 19.632 19.863,20.134 19.288,20.363 18.580 C 20.445 18.323,20.455 18.200,20.476 17.060 C 20.500 15.833,20.501 15.818,20.603 15.600 C 20.669 15.460,20.985 15.054,21.467 14.488 C 22.277 13.539,22.473 13.254,22.605 12.840 C 22.720 12.478,22.748 11.798,22.665 11.400 C 22.548 10.847,22.365 10.555,21.482 9.520 C 20.886 8.821,20.657 8.524,20.591 8.360 C 20.508 8.155,20.501 8.058,20.479 6.920 C 20.455 5.731,20.452 5.692,20.346 5.371 C 20.084 4.580,19.417 3.914,18.623 3.653 C 18.310 3.550,18.263 3.546,17.060 3.523 C 15.833 3.500,15.818 3.499,15.600 3.397 C 15.460 3.331,15.054 3.015,14.488 2.533 C 13.539 1.724,13.255 1.527,12.840 1.395 C 12.497 1.285,11.732 1.256,11.360 1.339 M15.320 8.903 C 15.231 8.941,14.380 9.763,12.978 11.163 L 10.776 13.364 9.809 12.384 C 9.278 11.845,8.784 11.373,8.712 11.336 C 8.549 11.252,8.216 11.249,8.059 11.331 C 7.694 11.521,7.544 11.932,7.701 12.308 C 7.785 12.509,10.237 14.972,10.461 15.081 C 10.641 15.168,10.893 15.183,11.067 15.118 C 11.236 15.055,16.190 10.098,16.283 9.900 C 16.378 9.697,16.379 9.465,16.285 9.260 C 16.197 9.070,16.108 8.984,15.910 8.902 C 15.726 8.825,15.502 8.825,15.320 8.903 " stroke="none" fill-rule="evenodd" fill="black"></path></svg>