<svg width="24" height="24" viewBox="0 0 24 24" fill="none" xmlns="http://www.w3.org/2000/svg"><path d="M11.560 1.267 C 10.326 1.322,9.152 1.571,8.041 2.012 C 7.427 2.256,7.240 2.454,7.240 2.860 C 7.240 3.229,7.525 3.548,7.892 3.589 C 8.032 3.605,8.152 3.574,8.523 3.428 C 9.718 2.955,10.735 2.760,12.006 2.760 C 13.464 2.760,14.754 3.058,16.060 3.698 C 17.024 4.170,17.648 4.611,18.434 5.378 C 19.273 6.195,19.814 6.937,20.303 7.940 C 20.944 9.253,21.240 10.537,21.240 12.000 C 21.240 13.465,20.943 14.752,20.302 16.060 C 19.830 17.024,19.389 17.648,18.622 18.434 C 17.805 19.273,17.063 19.814,16.060 20.303 C 14.747 20.944,13.463 21.240,12.000 21.240 C 10.537 21.240,9.253 20.944,7.940 20.303 C 6.937 19.814,6.195 19.273,5.378 18.434 C 4.611 17.648,4.170 17.024,3.698 16.060 C 3.058 14.754,2.760 13.464,2.760 12.005 C 2.760 10.060,3.331 8.256,4.457 6.648 C 4.701 6.298,4.770 6.095,4.724 5.855 C 4.656 5.497,4.372 5.267,4.000 5.267 C 3.678 5.267,3.534 5.369,3.222 5.816 C 1.432 8.383,0.834 11.537,1.564 14.550 C 1.904 15.951,2.529 17.268,3.424 18.470 C 3.880 19.083,4.909 20.111,5.530 20.575 C 7.606 22.126,10.070 22.870,12.627 22.717 C 14.790 22.588,16.724 21.879,18.470 20.575 C 19.087 20.115,20.115 19.087,20.575 18.470 C 22.127 16.391,22.870 13.930,22.717 11.373 C 22.588 9.210,21.879 7.276,20.575 5.530 C 20.115 4.913,19.087 3.885,18.470 3.425 C 17.047 2.362,15.454 1.679,13.742 1.398 C 13.325 1.330,12.055 1.227,11.880 1.248 C 11.847 1.252,11.703 1.261,11.560 1.267 M10.360 7.665 C 9.401 7.852,8.722 8.541,8.456 9.600 C 8.386 9.876,8.380 10.074,8.380 12.040 L 8.381 14.180 8.493 14.540 C 8.647 15.036,8.844 15.370,9.177 15.703 C 9.941 16.467,11.018 16.563,12.230 15.977 C 12.524 15.835,12.622 15.765,12.706 15.638 C 12.925 15.308,12.851 14.855,12.541 14.618 C 12.427 14.531,12.337 14.501,12.156 14.487 C 11.944 14.472,11.885 14.487,11.590 14.630 C 11.017 14.907,10.679 14.939,10.341 14.748 C 10.131 14.630,9.973 14.365,9.898 14.001 C 9.804 13.551,9.831 10.115,9.931 9.817 C 10.071 9.399,10.327 9.172,10.708 9.129 C 11.078 9.087,11.300 9.189,13.100 10.231 C 14.557 11.073,14.650 11.133,14.850 11.354 C 15.066 11.593,15.136 11.750,15.137 12.001 C 15.140 12.367,14.931 12.650,14.381 13.028 C 14.055 13.252,13.922 13.452,13.921 13.717 C 13.919 14.211,14.388 14.580,14.845 14.443 C 15.189 14.340,15.804 13.864,16.103 13.469 C 17.050 12.217,16.713 10.737,15.260 9.773 C 14.885 9.524,12.373 8.081,12.103 7.959 C 11.654 7.756,11.326 7.676,10.880 7.660 C 10.649 7.652,10.415 7.654,10.360 7.665 " stroke="none" fill-rule="evenodd" fill="black"></path></svg>