<svg width="24" height="24" viewBox="0 0 24 24" fill="none" xmlns="http://www.w3.org/2000/svg"><path d="M5.122 2.882 C 3.109 3.082,1.943 3.961,1.498 5.612 C 1.365 6.106,1.286 6.742,1.272 7.420 C 1.260 7.964,1.263 7.985,1.366 8.160 C 1.649 8.642,2.349 8.646,2.629 8.168 C 2.721 8.011,2.734 7.936,2.764 7.347 C 2.824 6.177,3.010 5.528,3.413 5.090 C 3.619 4.867,3.812 4.742,4.150 4.615 C 4.902 4.332,5.307 4.311,9.740 4.331 C 13.055 4.345,13.540 4.355,13.840 4.414 C 15.218 4.687,15.662 5.141,15.907 6.528 C 15.975 6.912,15.980 7.285,15.980 12.000 C 15.980 16.715,15.975 17.088,15.907 17.472 C 15.662 18.859,15.218 19.313,13.840 19.585 C 13.540 19.645,13.057 19.655,9.760 19.669 C 5.764 19.686,5.517 19.678,4.884 19.494 C 4.371 19.346,4.035 19.150,3.660 18.780 C 3.393 18.516,3.303 18.393,3.149 18.080 C 2.785 17.339,2.789 17.378,2.763 14.480 C 2.741 12.095,2.735 11.931,2.664 11.788 C 2.404 11.264,1.668 11.243,1.353 11.751 L 1.260 11.900 1.260 14.340 C 1.260 16.930,1.270 17.100,1.459 17.820 C 1.666 18.608,2.055 19.300,2.597 19.843 C 3.294 20.541,4.156 20.943,5.298 21.101 C 5.697 21.156,6.264 21.162,9.708 21.149 C 14.004 21.133,13.964 21.135,14.772 20.901 C 16.126 20.509,16.919 19.672,17.274 18.260 C 17.349 17.960,17.405 17.576,17.471 16.886 L 17.500 16.593 18.320 17.169 C 19.318 17.870,19.542 18.008,19.893 18.139 C 21.204 18.630,22.338 17.992,22.666 16.580 C 22.736 16.279,22.740 16.008,22.740 12.000 C 22.740 7.992,22.736 7.721,22.666 7.420 C 22.522 6.799,22.206 6.292,21.785 6.004 C 21.176 5.589,20.330 5.597,19.520 6.025 C 19.377 6.100,18.864 6.439,18.380 6.777 L 17.500 7.393 17.471 7.106 C 17.401 6.402,17.349 6.038,17.274 5.740 C 16.919 4.328,16.126 3.491,14.772 3.099 C 13.958 2.863,14.025 2.866,9.560 2.857 C 7.305 2.853,5.308 2.864,5.122 2.882 M21.012 7.314 C 21.247 7.564,21.240 7.415,21.240 12.000 C 21.240 16.594,21.248 16.436,21.009 16.690 C 20.866 16.842,20.624 16.840,20.300 16.685 C 20.168 16.622,19.484 16.165,18.780 15.671 L 17.500 14.771 17.500 11.996 L 17.500 9.221 18.620 8.430 C 20.021 7.441,20.249 7.296,20.516 7.228 C 20.782 7.160,20.885 7.178,21.012 7.314 M11.180 7.281 C 10.337 7.394,9.625 8.001,9.356 8.840 C 9.247 9.178,9.239 9.758,9.338 10.100 C 9.554 10.847,10.150 11.446,10.889 11.659 C 11.197 11.748,11.664 11.754,11.820 11.671 C 12.086 11.530,12.240 11.284,12.240 11.000 C 12.240 10.799,12.181 10.647,12.047 10.506 C 11.896 10.347,11.781 10.295,11.463 10.246 C 10.985 10.172,10.744 9.896,10.769 9.451 C 10.781 9.248,10.805 9.177,10.903 9.056 C 11.066 8.854,11.256 8.760,11.500 8.760 C 11.906 8.760,12.177 9.015,12.246 9.463 C 12.295 9.781,12.347 9.896,12.506 10.047 C 12.647 10.181,12.799 10.240,13.000 10.240 C 13.201 10.240,13.353 10.181,13.494 10.047 C 13.684 9.867,13.735 9.729,13.730 9.409 C 13.721 8.848,13.498 8.338,13.080 7.920 C 12.575 7.415,11.894 7.186,11.180 7.281 " stroke="none" fill-rule="evenodd" fill="black"></path></svg>