<svg width="24" height="24" viewBox="0 0 24 24" fill="none" xmlns="http://www.w3.org/2000/svg"><path d="M8.080 1.282 C 4.042 1.493,1.931 3.265,1.398 6.891 C 1.310 7.494,1.225 8.895,1.264 9.113 C 1.405 9.909,2.547 9.947,2.716 9.162 C 2.740 9.049,2.760 8.761,2.760 8.523 C 2.760 8.285,2.771 8.034,2.785 7.965 L 2.810 7.840 12.000 7.840 L 21.190 7.840 21.215 7.965 C 21.229 8.034,21.240 9.420,21.240 11.045 L 21.240 14.001 20.890 13.825 C 20.098 13.427,19.396 13.265,18.480 13.267 C 17.593 13.269,16.901 13.429,16.153 13.802 C 15.463 14.147,14.730 14.762,14.271 15.380 C 13.824 15.982,13.440 16.893,13.311 17.657 C 13.229 18.137,13.254 19.114,13.358 19.580 C 13.471 20.081,13.630 20.521,13.839 20.907 C 13.927 21.072,14.000 21.215,14.000 21.225 C 14.000 21.236,12.565 21.238,10.810 21.230 C 7.319 21.213,7.334 21.214,6.312 20.960 C 4.489 20.506,3.509 19.532,3.044 17.712 C 2.820 16.836,2.790 16.494,2.764 14.580 C 2.738 12.677,2.741 12.705,2.513 12.492 C 2.391 12.377,2.155 12.280,2.000 12.280 C 1.745 12.280,1.460 12.458,1.326 12.700 C 1.180 12.964,1.229 15.960,1.398 17.107 C 1.885 20.415,3.654 22.148,7.027 22.622 C 7.797 22.730,8.917 22.760,12.194 22.759 L 15.449 22.758 15.734 22.942 C 16.457 23.406,17.166 23.642,18.070 23.719 C 20.943 23.963,23.466 21.826,23.720 18.935 C 23.819 17.817,23.554 16.706,22.967 15.770 L 22.760 15.441 22.760 12.190 C 22.759 8.911,22.729 7.793,22.622 7.027 C 22.359 5.157,21.686 3.741,20.641 2.857 C 19.477 1.874,18.011 1.396,15.806 1.280 C 14.952 1.235,8.952 1.237,8.080 1.282 M14.720 4.560 L 14.720 6.360 12.000 6.360 L 9.280 6.360 9.280 4.560 L 9.280 2.760 12.000 2.760 L 14.720 2.760 14.720 4.560 M7.760 4.580 L 7.760 6.360 5.400 6.360 C 3.396 6.360,3.040 6.351,3.040 6.304 C 3.040 6.185,3.288 5.496,3.449 5.167 C 3.987 4.065,4.927 3.373,6.360 3.024 C 6.770 2.924,7.429 2.812,7.650 2.804 L 7.760 2.800 7.760 4.580 M16.795 2.862 C 18.717 3.141,19.903 3.862,20.534 5.134 C 20.705 5.479,20.960 6.179,20.960 6.304 C 20.960 6.351,20.604 6.360,18.600 6.360 L 16.240 6.360 16.240 4.580 C 16.240 2.965,16.246 2.800,16.305 2.800 C 16.341 2.800,16.561 2.828,16.795 2.862 M19.236 14.839 C 20.119 15.019,20.809 15.436,21.384 16.136 C 21.837 16.687,22.097 17.247,22.202 17.894 C 22.264 18.278,22.231 19.056,22.138 19.400 C 21.778 20.739,20.756 21.779,19.460 22.124 C 19.057 22.232,18.309 22.269,17.894 22.202 C 17.121 22.077,16.503 21.750,15.865 21.128 C 15.403 20.678,15.052 20.069,14.873 19.411 C 14.755 18.976,14.746 18.072,14.857 17.641 C 15.125 16.590,15.689 15.828,16.603 15.278 C 16.935 15.078,17.506 14.868,17.893 14.804 C 18.268 14.741,18.827 14.756,19.236 14.839 M17.040 16.605 C 16.778 16.709,16.589 17.000,16.589 17.300 C 16.589 17.575,16.668 17.710,17.083 18.138 L 17.437 18.505 17.074 18.862 C 16.684 19.247,16.562 19.447,16.562 19.700 C 16.562 19.880,16.670 20.146,16.786 20.248 C 16.904 20.354,17.141 20.440,17.309 20.439 C 17.554 20.438,17.758 20.311,18.138 19.926 L 18.495 19.563 18.862 19.917 C 19.290 20.332,19.425 20.411,19.700 20.411 C 20.238 20.411,20.591 19.878,20.382 19.379 C 20.351 19.303,20.159 19.070,19.956 18.860 L 19.587 18.478 19.948 18.109 C 20.146 17.906,20.332 17.695,20.361 17.640 C 20.447 17.477,20.428 17.114,20.324 16.946 C 20.144 16.655,19.850 16.533,19.504 16.607 C 19.331 16.644,19.256 16.698,18.913 17.031 L 18.520 17.412 18.140 17.044 C 17.930 16.841,17.697 16.649,17.621 16.618 C 17.464 16.552,17.188 16.546,17.040 16.605 " stroke="none" fill-rule="evenodd" fill="black"></path></svg>