<svg width="24" height="24" viewBox="0 0 24 24" fill="none" xmlns="http://www.w3.org/2000/svg"><path d="M8.080 1.282 C 4.042 1.493,1.931 3.265,1.398 6.891 C 1.310 7.494,1.225 8.895,1.264 9.113 C 1.405 9.909,2.547 9.947,2.716 9.162 C 2.740 9.049,2.760 8.761,2.760 8.523 C 2.760 8.285,2.771 8.034,2.785 7.965 L 2.810 7.840 12.000 7.840 L 21.190 7.840 21.215 7.965 C 21.251 8.144,21.246 14.010,21.210 13.991 C 20.191 13.472,19.639 13.310,18.716 13.259 C 16.741 13.150,14.813 14.258,13.860 16.049 C 13.443 16.833,13.271 17.538,13.266 18.480 C 13.262 19.501,13.405 20.040,13.992 21.212 C 14.001 21.230,12.571 21.238,10.814 21.230 C 7.318 21.213,7.334 21.214,6.312 20.960 C 4.489 20.506,3.509 19.532,3.044 17.712 C 2.820 16.836,2.790 16.494,2.764 14.580 C 2.738 12.677,2.741 12.705,2.513 12.492 C 2.391 12.377,2.155 12.280,2.000 12.280 C 1.745 12.280,1.460 12.458,1.326 12.700 C 1.180 12.964,1.229 15.960,1.398 17.107 C 1.885 20.415,3.654 22.148,7.027 22.622 C 7.793 22.729,8.911 22.759,12.192 22.760 L 15.444 22.760 15.672 22.915 C 16.572 23.525,17.760 23.817,18.941 23.718 C 19.442 23.675,19.649 23.635,20.100 23.492 C 21.936 22.907,23.325 21.307,23.663 19.390 C 23.747 18.909,23.746 18.020,23.661 17.540 C 23.544 16.887,23.273 16.207,22.915 15.667 L 22.760 15.434 22.760 12.187 C 22.759 8.911,22.729 7.793,22.622 7.027 C 22.359 5.157,21.686 3.741,20.641 2.857 C 19.477 1.874,18.011 1.396,15.806 1.280 C 14.952 1.235,8.952 1.237,8.080 1.282 M14.720 4.560 L 14.720 6.360 12.000 6.360 L 9.280 6.360 9.280 4.560 L 9.280 2.760 12.000 2.760 L 14.720 2.760 14.720 4.560 M7.760 4.580 L 7.760 6.360 5.400 6.360 C 3.396 6.360,3.040 6.351,3.040 6.304 C 3.040 6.185,3.288 5.496,3.449 5.167 C 3.987 4.065,4.927 3.373,6.360 3.024 C 6.770 2.924,7.429 2.812,7.650 2.804 L 7.760 2.800 7.760 4.580 M16.795 2.862 C 18.717 3.141,19.903 3.862,20.534 5.134 C 20.705 5.479,20.960 6.179,20.960 6.304 C 20.960 6.351,20.604 6.360,18.600 6.360 L 16.240 6.360 16.240 4.580 C 16.240 2.965,16.246 2.800,16.305 2.800 C 16.341 2.800,16.561 2.828,16.795 2.862 M19.241 14.840 C 20.169 15.029,20.965 15.542,21.557 16.333 C 22.269 17.284,22.444 18.680,21.997 19.840 C 21.521 21.075,20.395 21.994,19.103 22.202 C 18.681 22.270,17.907 22.231,17.500 22.121 C 16.538 21.859,15.643 21.123,15.183 20.213 C 14.078 18.029,15.250 15.455,17.620 14.865 C 18.132 14.738,18.695 14.729,19.241 14.840 M18.480 16.405 C 18.339 16.461,18.205 16.595,18.116 16.768 C 18.050 16.898,18.040 17.008,18.040 17.636 L 18.040 18.355 17.590 18.624 C 16.873 19.053,16.799 19.111,16.711 19.311 C 16.488 19.815,16.846 20.356,17.405 20.359 C 17.572 20.360,17.675 20.309,18.441 19.850 C 19.119 19.444,19.313 19.308,19.396 19.183 L 19.500 19.026 19.500 17.917 L 19.500 16.807 19.377 16.654 C 19.310 16.569,19.193 16.469,19.117 16.430 C 18.967 16.353,18.641 16.341,18.480 16.405 " stroke="none" fill-rule="evenodd" fill="black"></path></svg>