<svg width="24" height="24" viewBox="0 0 24 24" fill="none" xmlns="http://www.w3.org/2000/svg"><path d="M8.080 1.282 C 4.042 1.493,1.931 3.265,1.398 6.891 C 1.310 7.494,1.225 8.895,1.264 9.113 C 1.278 9.194,1.325 9.318,1.368 9.389 C 1.658 9.870,2.422 9.836,2.661 9.332 C 2.718 9.212,2.740 9.022,2.765 8.423 C 2.900 5.187,3.905 3.654,6.288 3.044 C 7.337 2.776,7.247 2.780,12.000 2.780 C 15.936 2.780,16.339 2.786,16.760 2.852 C 19.558 3.288,20.712 4.442,21.148 7.240 C 21.214 7.661,21.220 8.064,21.220 12.000 C 21.220 15.936,21.214 16.339,21.148 16.760 C 20.712 19.558,19.558 20.712,16.760 21.148 C 16.339 21.214,15.936 21.220,12.000 21.220 C 8.064 21.220,7.661 21.214,7.240 21.148 C 4.756 20.761,3.576 19.795,3.044 17.712 C 2.819 16.830,2.790 16.498,2.764 14.540 C 2.738 12.593,2.742 12.625,2.513 12.412 C 2.391 12.297,2.155 12.200,2.000 12.200 C 1.745 12.200,1.460 12.378,1.326 12.620 C 1.180 12.885,1.229 15.959,1.398 17.107 C 1.885 20.415,3.654 22.148,7.027 22.622 C 7.786 22.728,8.902 22.759,12.000 22.759 C 15.098 22.759,16.214 22.728,16.973 22.622 C 19.443 22.275,20.996 21.288,21.897 19.490 C 22.379 18.530,22.638 17.369,22.720 15.807 C 22.771 14.838,22.771 9.162,22.720 8.193 C 22.657 6.998,22.521 6.191,22.242 5.356 C 21.632 3.531,20.469 2.367,18.650 1.760 C 17.788 1.473,17.023 1.344,15.806 1.280 C 14.952 1.235,8.952 1.237,8.080 1.282 M10.360 7.665 C 9.401 7.852,8.722 8.541,8.456 9.600 C 8.386 9.876,8.380 10.074,8.380 12.040 L 8.381 14.180 8.493 14.540 C 8.647 15.036,8.844 15.370,9.177 15.703 C 9.941 16.467,11.018 16.563,12.230 15.977 C 12.524 15.835,12.622 15.765,12.706 15.638 C 12.925 15.308,12.851 14.855,12.541 14.618 C 12.427 14.531,12.337 14.501,12.156 14.487 C 11.944 14.472,11.885 14.487,11.590 14.630 C 11.017 14.907,10.679 14.939,10.341 14.748 C 10.131 14.630,9.973 14.365,9.898 14.001 C 9.804 13.551,9.831 10.115,9.931 9.817 C 10.071 9.399,10.327 9.172,10.708 9.129 C 11.078 9.087,11.300 9.189,13.100 10.231 C 14.557 11.073,14.650 11.133,14.850 11.354 C 15.066 11.593,15.136 11.750,15.137 12.001 C 15.140 12.367,14.931 12.650,14.381 13.028 C 14.055 13.252,13.922 13.452,13.921 13.717 C 13.919 14.211,14.388 14.580,14.845 14.443 C 15.189 14.340,15.804 13.864,16.103 13.469 C 17.050 12.217,16.713 10.737,15.260 9.773 C 14.885 9.524,12.373 8.081,12.103 7.959 C 11.654 7.756,11.326 7.676,10.880 7.660 C 10.649 7.652,10.415 7.654,10.360 7.665 " stroke="none" fill-rule="evenodd" fill="black"></path></svg>