<svg width="24" height="24" viewBox="0 0 24 24" fill="none" xmlns="http://www.w3.org/2000/svg"><path d="M8.080 1.282 C 4.042 1.493,1.931 3.265,1.398 6.891 C 1.310 7.494,1.225 8.895,1.264 9.113 C 1.405 9.909,2.547 9.947,2.716 9.162 C 2.740 9.049,2.760 8.761,2.760 8.523 C 2.760 8.285,2.771 8.034,2.785 7.965 L 2.810 7.840 12.000 7.840 L 21.190 7.840 21.215 7.965 C 21.251 8.144,21.246 14.010,21.210 13.991 C 20.191 13.472,19.639 13.310,18.716 13.259 C 16.483 13.135,14.342 14.570,13.559 16.715 C 13.346 17.299,13.268 17.783,13.268 18.520 C 13.267 19.063,13.283 19.251,13.358 19.580 C 13.472 20.082,13.631 20.522,13.839 20.907 C 13.927 21.072,14.000 21.215,14.000 21.225 C 14.000 21.236,12.565 21.238,10.810 21.230 C 7.319 21.213,7.334 21.214,6.312 20.960 C 4.489 20.506,3.509 19.532,3.044 17.712 C 2.820 16.836,2.790 16.494,2.764 14.580 C 2.738 12.677,2.741 12.705,2.513 12.492 C 2.391 12.377,2.155 12.280,2.000 12.280 C 1.745 12.280,1.460 12.458,1.326 12.700 C 1.180 12.964,1.229 15.960,1.398 17.107 C 1.885 20.415,3.654 22.148,7.027 22.622 C 7.793 22.729,8.911 22.759,12.190 22.760 L 15.441 22.760 15.770 22.967 C 16.713 23.558,17.787 23.812,18.944 23.718 C 19.854 23.644,20.640 23.378,21.340 22.908 C 22.724 21.978,23.589 20.535,23.718 18.940 C 23.815 17.748,23.533 16.599,22.915 15.667 L 22.760 15.434 22.760 12.187 C 22.759 8.911,22.729 7.793,22.622 7.027 C 22.359 5.157,21.686 3.741,20.641 2.857 C 19.477 1.874,18.011 1.396,15.806 1.280 C 14.952 1.235,8.952 1.237,8.080 1.282 M14.720 4.560 L 14.720 6.360 12.000 6.360 L 9.280 6.360 9.280 4.560 L 9.280 2.760 12.000 2.760 L 14.720 2.760 14.720 4.560 M7.760 4.580 L 7.760 6.360 5.400 6.360 C 3.396 6.360,3.040 6.351,3.040 6.304 C 3.040 6.185,3.288 5.496,3.449 5.167 C 3.987 4.065,4.927 3.373,6.360 3.024 C 6.770 2.924,7.429 2.812,7.650 2.804 L 7.760 2.800 7.760 4.580 M16.795 2.862 C 18.717 3.141,19.903 3.862,20.534 5.134 C 20.705 5.479,20.960 6.179,20.960 6.304 C 20.960 6.351,20.604 6.360,18.600 6.360 L 16.240 6.360 16.240 4.580 C 16.240 2.965,16.246 2.800,16.305 2.800 C 16.341 2.800,16.561 2.828,16.795 2.862 M19.241 14.840 C 19.974 14.990,20.622 15.335,21.124 15.844 C 21.904 16.635,22.241 17.442,22.239 18.514 C 22.235 20.314,20.916 21.884,19.143 22.198 C 18.838 22.252,18.162 22.252,17.857 22.198 C 16.905 22.029,15.975 21.427,15.432 20.628 C 13.946 18.440,15.061 15.502,17.620 14.865 C 18.132 14.738,18.695 14.729,19.241 14.840 M20.010 16.682 C 19.899 16.716,18.906 17.593,18.070 18.395 L 17.879 18.578 17.530 18.233 C 17.104 17.814,16.981 17.745,16.696 17.769 C 16.115 17.817,15.812 18.446,16.140 18.920 C 16.196 19.002,16.517 19.339,16.853 19.670 C 17.363 20.174,17.491 20.280,17.638 20.320 C 17.862 20.380,18.114 20.342,18.272 20.226 C 18.606 19.979,20.874 17.834,20.934 17.708 C 21.080 17.399,20.962 16.962,20.681 16.776 C 20.512 16.664,20.209 16.622,20.010 16.682 " stroke="none" fill-rule="evenodd" fill="black"></path></svg>