<svg width="24" height="24" viewBox="0 0 24 24" fill="none" xmlns="http://www.w3.org/2000/svg"><path d="M21.720 1.501 C 21.635 1.539,20.751 2.392,19.454 3.688 L 17.327 5.812 17.284 5.656 C 17.260 5.570,17.240 5.479,17.240 5.453 C 17.240 5.426,17.187 5.267,17.122 5.098 C 16.600 3.743,15.518 3.074,13.543 2.882 C 12.958 2.826,5.777 2.825,5.180 2.882 C 3.884 3.005,2.978 3.372,2.354 4.028 C 1.642 4.777,1.305 5.834,1.272 7.420 C 1.260 7.964,1.263 7.985,1.366 8.160 C 1.649 8.642,2.349 8.646,2.629 8.168 C 2.721 8.011,2.734 7.936,2.764 7.347 C 2.874 5.186,3.440 4.546,5.400 4.363 C 5.998 4.307,12.730 4.306,13.354 4.361 C 14.309 4.445,14.902 4.637,15.273 4.980 C 15.709 5.384,15.881 5.878,15.885 6.736 L 15.887 7.253 9.974 13.166 C 6.721 16.419,4.035 19.080,4.003 19.080 C 3.972 19.080,3.809 18.939,3.641 18.766 C 3.288 18.404,3.016 17.913,2.873 17.380 C 2.790 17.073,2.786 16.955,2.763 14.500 C 2.738 11.716,2.748 11.831,2.513 11.612 C 2.391 11.497,2.155 11.400,2.000 11.400 C 1.845 11.400,1.609 11.497,1.487 11.612 C 1.255 11.829,1.261 11.764,1.248 13.980 C 1.231 16.685,1.281 17.328,1.573 18.180 C 1.800 18.842,2.252 19.550,2.711 19.961 L 2.955 20.180 2.163 20.980 C 1.305 21.847,1.255 21.922,1.290 22.286 C 1.312 22.516,1.468 22.740,1.683 22.850 C 1.836 22.928,2.136 22.942,2.307 22.878 C 2.477 22.815,22.589 2.701,22.683 2.500 C 22.905 2.027,22.599 1.502,22.074 1.457 C 21.931 1.444,21.814 1.459,21.720 1.501 M21.720 6.045 C 21.591 6.096,21.411 6.268,21.326 6.420 C 21.266 6.529,21.258 6.972,21.240 11.440 C 21.218 16.744,21.232 16.440,21.005 16.690 C 20.867 16.842,20.624 16.840,20.300 16.685 C 20.168 16.622,19.484 16.165,18.780 15.671 L 17.500 14.771 17.480 12.736 C 17.457 10.444,17.473 10.557,17.144 10.329 C 17.015 10.239,16.944 10.220,16.743 10.220 C 16.453 10.221,16.253 10.325,16.112 10.552 L 16.020 10.700 15.998 13.920 C 15.978 16.732,15.967 17.186,15.907 17.500 C 15.644 18.880,15.200 19.324,13.820 19.587 C 13.506 19.647,13.052 19.658,10.240 19.678 C 7.352 19.698,7.008 19.707,6.900 19.766 C 6.338 20.074,6.424 20.942,7.035 21.123 C 7.135 21.152,8.190 21.161,10.420 21.150 C 13.190 21.136,13.715 21.124,14.041 21.068 C 16.238 20.690,17.233 19.546,17.441 17.159 C 17.465 16.885,17.489 16.645,17.493 16.627 C 17.498 16.609,17.870 16.853,18.321 17.170 C 19.318 17.870,19.542 18.008,19.893 18.139 C 21.204 18.630,22.338 17.992,22.666 16.580 C 22.736 16.278,22.740 15.994,22.740 11.440 C 22.740 8.789,22.726 6.571,22.709 6.511 C 22.667 6.359,22.447 6.119,22.292 6.054 C 22.143 5.992,21.865 5.987,21.720 6.045 " stroke="none" fill-rule="evenodd" fill="black"></path></svg>