<svg width="24" height="24" viewBox="0 0 24 24" fill="none" xmlns="http://www.w3.org/2000/svg"><path d="M11.740 1.268 C 11.266 1.295,10.725 1.439,10.300 1.651 C 9.955 1.823,4.147 5.180,3.860 5.373 C 3.067 5.906,2.439 6.878,2.242 7.880 C 2.171 8.239,2.175 8.761,2.249 8.900 C 2.491 9.354,3.057 9.464,3.414 9.127 C 3.589 8.962,3.637 8.835,3.679 8.425 C 3.749 7.755,3.995 7.242,4.446 6.825 C 4.666 6.622,5.238 6.276,7.759 4.820 C 9.435 3.852,10.953 2.997,11.133 2.920 C 11.454 2.783,11.470 2.780,12.000 2.781 C 12.480 2.783,12.569 2.794,12.803 2.884 C 13.130 3.010,19.208 6.516,19.460 6.724 C 19.855 7.051,20.128 7.481,20.269 8.000 C 20.335 8.240,20.340 8.549,20.340 12.000 C 20.340 16.203,20.357 15.946,20.036 16.563 C 19.718 17.175,19.696 17.189,16.180 19.218 C 14.466 20.207,12.946 21.060,12.802 21.113 C 12.491 21.228,11.902 21.272,11.549 21.206 C 11.422 21.182,11.205 21.112,11.067 21.051 C 10.928 20.990,9.439 20.148,7.757 19.180 C 4.825 17.492,4.688 17.408,4.398 17.120 C 4.098 16.821,3.873 16.464,3.757 16.100 C 3.720 15.986,3.699 15.444,3.683 14.200 C 3.658 12.298,3.665 12.350,3.414 12.113 C 3.209 11.919,2.893 11.863,2.628 11.974 C 2.473 12.039,2.253 12.279,2.211 12.431 C 2.194 12.491,2.180 13.287,2.181 14.200 C 2.182 15.597,2.192 15.908,2.248 16.160 C 2.351 16.625,2.528 17.083,2.743 17.443 C 2.972 17.825,3.506 18.392,3.860 18.628 C 4.134 18.811,9.946 22.171,10.279 22.340 C 10.798 22.602,11.366 22.728,12.027 22.727 C 12.678 22.727,13.175 22.611,13.740 22.329 C 14.144 22.127,19.636 18.955,20.040 18.690 C 20.801 18.191,21.371 17.457,21.632 16.640 C 21.823 16.040,21.820 16.125,21.820 12.000 C 21.820 8.927,21.809 8.049,21.767 7.860 C 21.526 6.756,20.954 5.906,20.064 5.325 C 19.635 5.046,14.148 1.875,13.740 1.671 C 13.131 1.367,12.444 1.229,11.740 1.268 M10.694 8.359 C 10.250 8.454,9.782 8.747,9.525 9.091 C 9.317 9.369,9.220 9.571,9.111 9.947 C 9.023 10.251,9.020 10.310,9.020 12.000 C 9.020 13.698,9.022 13.748,9.112 14.059 C 9.360 14.915,9.909 15.460,10.689 15.626 C 11.172 15.728,11.781 15.632,12.300 15.370 C 12.685 15.177,14.662 14.028,14.902 13.858 C 15.478 13.451,15.871 12.869,15.961 12.290 C 16.083 11.502,15.685 10.695,14.902 10.142 C 14.662 9.972,12.685 8.823,12.300 8.630 C 11.829 8.393,11.106 8.271,10.694 8.359 M11.538 9.920 C 11.779 10.024,13.997 11.312,14.168 11.447 C 14.375 11.610,14.480 11.796,14.480 12.000 C 14.480 12.204,14.375 12.390,14.168 12.553 C 13.993 12.691,11.781 13.974,11.520 14.089 C 11.271 14.199,10.955 14.201,10.811 14.095 C 10.508 13.868,10.469 13.592,10.490 11.809 C 10.508 10.336,10.522 10.219,10.705 10.002 C 10.880 9.793,11.178 9.764,11.538 9.920 " stroke="none" fill-rule="evenodd" fill="black"></path></svg>