<svg width="24" height="24" viewBox="0 0 24 24" fill="none" xmlns="http://www.w3.org/2000/svg"><path d="M8.080 1.282 C 4.042 1.493,1.931 3.265,1.398 6.891 C 1.310 7.494,1.225 8.895,1.264 9.113 C 1.278 9.194,1.325 9.318,1.368 9.389 C 1.658 9.870,2.422 9.836,2.661 9.332 C 2.718 9.212,2.740 9.022,2.765 8.423 C 2.900 5.187,3.905 3.654,6.288 3.044 C 7.337 2.776,7.247 2.780,12.000 2.780 C 15.936 2.780,16.339 2.786,16.760 2.852 C 19.558 3.288,20.712 4.442,21.148 7.240 C 21.214 7.661,21.220 8.064,21.220 12.000 C 21.220 15.936,21.214 16.339,21.148 16.760 C 20.712 19.558,19.558 20.712,16.760 21.148 C 16.339 21.214,15.936 21.220,12.000 21.220 C 8.064 21.220,7.661 21.214,7.240 21.148 C 4.756 20.761,3.576 19.795,3.044 17.712 C 2.820 16.833,2.790 16.496,2.764 14.560 C 2.738 12.635,2.741 12.665,2.513 12.452 C 2.391 12.337,2.155 12.240,2.000 12.240 C 1.745 12.240,1.460 12.418,1.326 12.660 C 1.180 12.925,1.229 15.959,1.398 17.107 C 1.885 20.415,3.654 22.148,7.027 22.622 C 7.786 22.728,8.902 22.759,12.000 22.759 C 15.098 22.759,16.214 22.728,16.973 22.622 C 19.443 22.275,20.996 21.288,21.897 19.490 C 22.379 18.530,22.638 17.369,22.720 15.807 C 22.771 14.838,22.771 9.162,22.720 8.193 C 22.657 6.998,22.521 6.191,22.242 5.356 C 21.632 3.531,20.469 2.367,18.650 1.760 C 17.788 1.473,17.023 1.344,15.806 1.280 C 14.952 1.235,8.952 1.237,8.080 1.282 M11.815 6.277 C 11.638 6.321,11.461 6.456,11.353 6.631 L 11.260 6.780 11.260 9.460 L 11.260 12.140 11.366 12.320 C 11.505 12.557,11.723 12.680,12.000 12.680 C 12.277 12.680,12.495 12.557,12.634 12.320 L 12.740 12.140 12.751 9.601 C 12.764 6.916,12.755 6.766,12.581 6.538 C 12.421 6.327,12.079 6.211,11.815 6.277 M8.698 7.755 C 8.517 7.838,8.335 8.033,8.290 8.193 C 8.251 8.333,8.251 15.667,8.290 15.807 C 8.363 16.069,8.710 16.318,9.000 16.318 C 9.290 16.318,9.637 16.069,9.710 15.807 C 9.749 15.667,9.749 8.333,9.710 8.193 C 9.637 7.931,9.290 7.682,9.000 7.682 C 8.923 7.682,8.787 7.715,8.698 7.755 M14.698 7.755 C 14.517 7.838,14.335 8.033,14.290 8.193 C 14.251 8.333,14.251 15.667,14.290 15.807 C 14.363 16.069,14.710 16.318,15.000 16.318 C 15.290 16.318,15.637 16.069,15.710 15.807 C 15.749 15.667,15.749 8.333,15.710 8.193 C 15.637 7.931,15.290 7.682,15.000 7.682 C 14.923 7.682,14.787 7.715,14.698 7.755 M5.699 9.176 C 5.550 9.241,5.332 9.484,5.291 9.631 C 5.274 9.691,5.260 10.775,5.260 12.040 L 5.260 14.340 5.366 14.520 C 5.652 15.006,6.348 15.006,6.634 14.520 L 6.740 14.340 6.740 12.040 C 6.740 10.775,6.726 9.691,6.709 9.631 C 6.667 9.479,6.447 9.239,6.292 9.174 C 6.130 9.106,5.857 9.107,5.699 9.176 M17.699 9.176 C 17.550 9.241,17.332 9.484,17.291 9.631 C 17.274 9.691,17.260 10.775,17.260 12.040 L 17.260 14.340 17.366 14.520 C 17.652 15.006,18.348 15.006,18.634 14.520 L 18.740 14.340 18.740 12.040 C 18.740 10.775,18.726 9.691,18.709 9.631 C 18.667 9.479,18.447 9.239,18.292 9.174 C 18.130 9.106,17.857 9.107,17.699 9.176 M11.698 14.315 C 11.517 14.398,11.335 14.593,11.290 14.753 C 11.273 14.812,11.260 15.391,11.260 16.040 C 11.260 17.205,11.261 17.222,11.353 17.369 C 11.716 17.953,12.581 17.810,12.719 17.143 C 12.750 16.995,12.761 16.556,12.753 15.850 C 12.742 14.946,12.730 14.761,12.674 14.660 C 12.474 14.297,12.060 14.151,11.698 14.315 " stroke="none" fill-rule="evenodd" fill="black"></path></svg>