<svg width="24" height="24" viewBox="0 0 24 24" fill="none" xmlns="http://www.w3.org/2000/svg"><path d="M13.421 3.445 C 12.841 3.529,12.267 3.727,11.693 4.042 C 11.535 4.128,10.725 4.625,9.893 5.147 C 9.061 5.668,8.294 6.127,8.190 6.167 C 8.028 6.229,7.874 6.240,7.170 6.241 C 5.703 6.242,4.974 6.351,4.360 6.660 C 3.399 7.144,2.864 7.911,2.661 9.095 C 2.571 9.619,2.571 14.381,2.661 14.905 C 2.868 16.115,3.430 16.901,4.419 17.364 C 5.056 17.663,5.721 17.757,7.190 17.759 C 7.873 17.760,8.029 17.771,8.190 17.832 C 8.294 17.872,9.064 18.334,9.900 18.859 C 10.736 19.384,11.623 19.918,11.870 20.045 C 12.595 20.416,13.209 20.574,13.900 20.568 C 15.500 20.555,16.621 19.504,16.984 17.677 C 17.042 17.386,17.054 16.945,17.069 14.460 C 17.081 12.471,17.073 11.535,17.043 11.435 C 16.920 11.023,16.437 10.803,16.028 10.974 C 15.855 11.046,15.649 11.288,15.622 11.449 C 15.610 11.521,15.594 12.840,15.586 14.380 C 15.571 17.465,15.572 17.446,15.312 18.073 C 15.158 18.443,14.846 18.792,14.530 18.946 C 14.053 19.180,13.325 19.105,12.611 18.749 C 12.418 18.653,11.564 18.139,10.714 17.607 C 9.864 17.075,9.054 16.586,8.914 16.521 C 8.425 16.294,8.287 16.275,6.880 16.241 C 5.737 16.213,5.550 16.200,5.330 16.128 C 4.632 15.902,4.291 15.490,4.136 14.686 C 4.054 14.259,4.054 9.741,4.136 9.314 C 4.291 8.511,4.632 8.098,5.331 7.869 C 5.551 7.798,5.732 7.784,6.880 7.758 C 8.287 7.725,8.424 7.707,8.914 7.479 C 9.054 7.414,9.864 6.925,10.714 6.393 C 12.420 5.326,12.808 5.115,13.285 4.994 C 13.733 4.881,14.214 4.901,14.520 5.045 C 15.136 5.336,15.473 5.998,15.565 7.100 C 15.613 7.661,15.675 7.847,15.864 7.996 C 16.022 8.120,16.244 8.174,16.461 8.142 C 16.615 8.119,16.686 8.078,16.842 7.922 C 16.995 7.769,17.039 7.694,17.061 7.550 C 17.096 7.311,17.017 6.456,16.922 6.058 C 16.561 4.548,15.602 3.606,14.260 3.444 C 13.856 3.395,13.762 3.395,13.421 3.445 M19.160 7.276 C 18.792 7.392,18.600 7.642,18.600 8.007 C 18.600 8.213,18.619 8.257,18.885 8.664 C 19.611 9.774,19.900 10.726,19.900 12.000 C 19.900 13.278,19.617 14.206,18.883 15.336 C 18.619 15.743,18.600 15.788,18.600 15.993 C 18.600 16.431,18.909 16.737,19.347 16.733 C 19.622 16.731,19.776 16.635,20.013 16.318 C 21.542 14.277,21.839 11.311,20.752 8.945 C 20.431 8.244,19.928 7.485,19.700 7.356 C 19.553 7.272,19.294 7.234,19.160 7.276 " stroke="none" fill-rule="evenodd" fill="black"></path></svg>