<svg width="24" height="24" viewBox="0 0 24 24" fill="none" xmlns="http://www.w3.org/2000/svg"><path d="M12.280 3.421 C 12.247 3.428,12.085 3.454,11.920 3.479 C 11.553 3.536,11.322 3.606,10.880 3.792 C 10.439 3.978,10.184 4.127,8.480 5.200 C 7.699 5.691,6.979 6.124,6.880 6.161 C 6.731 6.218,6.503 6.234,5.540 6.252 C 4.738 6.266,4.272 6.293,4.031 6.337 C 2.295 6.653,1.306 7.894,1.271 9.801 C 1.264 10.178,1.272 10.238,1.354 10.371 C 1.708 10.944,2.577 10.811,2.716 10.162 C 2.740 10.049,2.760 9.853,2.761 9.728 C 2.763 9.008,3.091 8.345,3.589 8.053 C 3.997 7.813,4.150 7.791,5.560 7.758 C 6.711 7.731,6.894 7.718,7.154 7.643 C 7.572 7.522,7.686 7.458,9.420 6.371 C 10.278 5.833,11.126 5.322,11.304 5.236 C 12.007 4.895,12.743 4.825,13.211 5.054 C 13.636 5.262,13.938 5.687,14.129 6.345 L 14.220 6.660 14.220 12.000 L 14.220 17.340 14.129 17.655 C 13.940 18.305,13.631 18.741,13.211 18.946 C 12.742 19.175,12.007 19.105,11.304 18.764 C 11.126 18.677,10.278 18.167,9.420 17.629 C 7.685 16.542,7.572 16.478,7.154 16.357 C 6.894 16.282,6.711 16.269,5.560 16.242 C 4.412 16.216,4.231 16.202,4.011 16.131 C 3.678 16.021,3.449 15.882,3.251 15.667 C 2.941 15.331,2.815 14.972,2.761 14.267 C 2.719 13.717,2.655 13.558,2.408 13.383 C 2.270 13.286,2.203 13.267,2.003 13.267 C 1.718 13.267,1.506 13.385,1.355 13.627 C 1.269 13.766,1.261 13.818,1.270 14.200 C 1.314 16.117,2.295 17.347,4.031 17.663 C 4.272 17.707,4.738 17.734,5.540 17.748 C 6.504 17.766,6.730 17.781,6.880 17.839 C 6.979 17.876,7.699 18.309,8.480 18.800 C 10.187 19.873,10.438 20.021,10.885 20.213 C 11.753 20.585,12.700 20.676,13.440 20.457 C 14.455 20.157,15.261 19.247,15.563 18.060 C 15.739 17.369,15.740 17.348,15.740 12.000 C 15.740 6.652,15.739 6.631,15.563 5.940 C 15.262 4.756,14.488 3.875,13.460 3.546 C 13.170 3.453,12.487 3.381,12.280 3.421 M17.855 9.278 C 17.680 9.320,17.502 9.455,17.396 9.626 C 17.274 9.823,17.272 10.174,17.391 10.364 C 17.438 10.439,17.810 10.833,18.218 11.239 L 18.959 11.978 18.165 12.779 C 17.728 13.220,17.347 13.625,17.318 13.680 C 17.290 13.735,17.267 13.884,17.267 14.011 C 17.267 14.202,17.287 14.271,17.383 14.408 C 17.448 14.499,17.568 14.608,17.651 14.651 C 17.837 14.747,18.139 14.753,18.325 14.665 C 18.399 14.629,18.811 14.249,19.239 13.821 L 20.018 13.042 20.819 13.836 C 21.559 14.570,21.635 14.633,21.810 14.670 C 22.389 14.792,22.831 14.350,22.711 13.770 C 22.673 13.588,22.587 13.495,20.587 11.490 C 19.441 10.341,18.448 9.376,18.381 9.345 C 18.216 9.269,18.005 9.242,17.855 9.278 M21.860 9.300 C 21.838 9.307,21.769 9.324,21.707 9.338 C 21.554 9.372,20.850 10.054,20.755 10.260 C 20.662 10.464,20.662 10.696,20.755 10.900 C 20.843 11.090,20.932 11.176,21.130 11.258 C 21.504 11.415,21.772 11.304,22.265 10.792 C 22.575 10.471,22.637 10.385,22.671 10.225 C 22.745 9.875,22.593 9.519,22.312 9.390 C 22.173 9.326,21.928 9.277,21.860 9.300 " stroke="none" fill-rule="evenodd" fill="black"></path></svg>