<svg width="24" height="24" viewBox="0 0 24 24" fill="none" xmlns="http://www.w3.org/2000/svg"><path d="M12.480 3.261 C 12.447 3.268,12.285 3.294,12.120 3.319 C 11.311 3.444,10.855 3.669,8.798 4.958 C 7.908 5.516,7.099 6.010,7.000 6.056 C 6.834 6.133,6.722 6.141,5.540 6.164 C 4.173 6.190,3.983 6.213,3.399 6.422 C 2.366 6.793,1.679 7.570,1.404 8.680 C 1.303 9.088,1.230 9.922,1.277 10.127 C 1.406 10.695,2.108 10.892,2.522 10.478 C 2.689 10.311,2.760 10.078,2.761 9.688 C 2.762 9.415,2.841 9.025,2.959 8.710 C 3.135 8.242,3.637 7.854,4.240 7.718 C 4.371 7.689,4.975 7.657,5.740 7.640 C 7.135 7.609,7.259 7.592,7.730 7.356 C 7.868 7.287,8.691 6.785,9.560 6.241 C 11.758 4.864,11.934 4.783,12.720 4.781 C 13.135 4.780,13.202 4.790,13.405 4.885 C 13.826 5.083,14.125 5.446,14.312 5.986 C 14.502 6.536,14.500 6.464,14.500 12.020 C 14.500 17.906,14.515 17.600,14.203 18.260 C 14.003 18.682,13.784 18.924,13.449 19.089 C 13.198 19.212,13.156 19.220,12.761 19.220 C 11.977 19.220,11.712 19.099,9.598 17.778 C 8.730 17.235,7.902 16.731,7.759 16.657 C 7.275 16.410,7.148 16.391,5.740 16.360 C 4.975 16.343,4.371 16.311,4.240 16.282 C 3.637 16.146,3.135 15.758,2.959 15.290 C 2.841 14.975,2.762 14.585,2.761 14.312 C 2.760 14.187,2.740 13.991,2.716 13.878 C 2.554 13.122,1.449 13.118,1.277 13.873 C 1.230 14.078,1.303 14.912,1.404 15.320 C 1.686 16.457,2.411 17.253,3.498 17.618 C 3.997 17.786,4.235 17.811,5.540 17.836 C 6.721 17.859,6.834 17.867,7.000 17.944 C 7.099 17.990,7.864 18.455,8.700 18.978 C 10.794 20.288,11.188 20.486,12.040 20.660 C 12.502 20.754,13.305 20.727,13.680 20.604 C 14.937 20.191,15.712 19.141,15.941 17.540 C 16.026 16.947,16.026 7.054,15.941 6.456 C 15.713 4.854,14.922 3.774,13.697 3.396 C 13.341 3.286,12.710 3.216,12.480 3.261 M17.815 11.278 C 17.331 11.393,17.098 12.004,17.383 12.408 C 17.602 12.717,17.688 12.738,18.768 12.753 C 19.912 12.769,20.099 12.741,20.319 12.521 C 20.729 12.111,20.525 11.405,19.962 11.284 C 19.732 11.235,18.016 11.230,17.815 11.278 M21.780 11.260 C 21.758 11.267,21.691 11.284,21.631 11.297 C 21.484 11.329,21.241 11.548,21.174 11.708 C 21.063 11.973,21.119 12.289,21.313 12.494 C 21.523 12.717,21.799 12.791,22.146 12.719 C 22.919 12.558,22.931 11.449,22.162 11.284 C 21.958 11.240,21.857 11.234,21.780 11.260 " stroke="none" fill-rule="evenodd" fill="black"></path></svg>