<svg width="24" height="24" viewBox="0 0 24 24" fill="none" xmlns="http://www.w3.org/2000/svg"><path d="M21.900 1.259 C 21.878 1.267,21.806 1.285,21.740 1.299 C 21.650 1.319,20.886 2.058,18.670 4.272 L 15.720 7.219 15.720 6.999 C 15.720 6.756,15.630 6.169,15.546 5.860 C 15.296 4.942,14.696 4.143,13.979 3.774 C 13.559 3.558,13.338 3.490,12.880 3.439 C 12.039 3.344,11.084 3.601,10.100 4.188 C 9.990 4.253,9.261 4.709,8.480 5.200 C 7.699 5.691,6.979 6.124,6.880 6.161 C 6.731 6.218,6.503 6.234,5.540 6.252 C 4.738 6.266,4.272 6.293,4.031 6.337 C 2.295 6.653,1.306 7.894,1.271 9.801 C 1.264 10.178,1.272 10.238,1.354 10.371 C 1.708 10.944,2.577 10.811,2.716 10.162 C 2.740 10.049,2.760 9.853,2.761 9.728 C 2.763 9.008,3.091 8.345,3.589 8.053 C 3.997 7.813,4.150 7.791,5.560 7.758 C 6.711 7.731,6.894 7.718,7.154 7.643 C 7.572 7.522,7.686 7.458,9.420 6.371 C 10.278 5.833,11.126 5.322,11.304 5.236 C 12.007 4.895,12.743 4.825,13.211 5.054 C 13.480 5.186,13.794 5.514,13.935 5.813 C 14.166 6.300,14.206 6.544,14.239 7.640 L 14.269 8.660 10.485 12.450 L 6.700 16.240 5.600 16.239 C 4.377 16.239,4.113 16.205,3.696 16.001 C 3.126 15.721,2.763 15.050,2.761 14.272 C 2.760 13.882,2.689 13.649,2.522 13.482 C 2.173 13.133,1.619 13.203,1.353 13.631 C 1.269 13.766,1.261 13.821,1.270 14.200 C 1.295 15.321,1.628 16.189,2.267 16.803 C 2.888 17.400,3.578 17.655,4.815 17.743 L 5.171 17.768 3.270 19.674 C 2.224 20.722,1.346 21.625,1.318 21.680 C 1.290 21.735,1.267 21.881,1.267 22.004 C 1.267 22.498,1.681 22.816,2.189 22.712 C 2.376 22.674,2.592 22.460,12.490 12.566 C 18.342 6.717,22.628 2.403,22.665 2.324 C 22.816 2.006,22.705 1.590,22.416 1.393 C 22.274 1.295,21.999 1.224,21.900 1.259 M21.060 7.058 C 21.038 7.066,20.972 7.084,20.913 7.096 C 20.665 7.151,20.403 7.505,20.401 7.788 C 20.400 7.859,20.479 8.129,20.575 8.388 C 20.869 9.181,21.039 9.821,21.168 10.620 C 21.247 11.109,21.234 12.953,21.148 13.440 C 21.111 13.649,21.080 13.908,21.080 14.016 C 21.080 14.767,22.119 15.014,22.467 14.346 C 22.500 14.283,22.565 14.004,22.611 13.726 C 22.729 13.022,22.738 11.064,22.626 10.360 C 22.514 9.650,22.346 8.954,22.141 8.340 C 21.871 7.531,21.754 7.303,21.548 7.184 C 21.387 7.090,21.144 7.028,21.060 7.058 M18.500 8.756 C 18.071 8.954,17.978 9.319,18.203 9.927 C 18.870 11.732,18.636 13.720,17.569 15.306 C 17.291 15.719,17.222 15.920,17.274 16.154 C 17.355 16.513,17.632 16.733,18.003 16.733 C 18.343 16.733,18.491 16.620,18.842 16.091 C 19.951 14.417,20.332 12.361,19.894 10.400 C 19.777 9.873,19.523 9.133,19.402 8.963 C 19.296 8.814,19.018 8.680,18.817 8.681 C 18.731 8.681,18.588 8.715,18.500 8.756 M14.720 12.264 C 14.550 12.338,14.414 12.460,14.326 12.620 C 14.268 12.726,14.257 13.004,14.237 15.060 C 14.216 17.312,14.212 17.389,14.126 17.676 C 13.933 18.315,13.624 18.744,13.211 18.946 C 13.033 19.033,12.914 19.059,12.640 19.073 C 12.151 19.096,11.753 18.989,11.109 18.661 C 10.704 18.454,10.561 18.400,10.418 18.400 C 9.977 18.400,9.679 18.704,9.681 19.153 C 9.682 19.457,9.806 19.627,10.201 19.863 C 11.295 20.519,12.490 20.738,13.440 20.457 C 13.813 20.347,14.262 20.087,14.567 19.806 C 15.165 19.253,15.524 18.494,15.687 17.440 C 15.746 17.064,15.765 12.911,15.710 12.713 C 15.636 12.451,15.289 12.201,15.000 12.202 C 14.923 12.203,14.797 12.230,14.720 12.264 M20.546 16.297 C 20.325 16.378,20.220 16.491,19.971 16.920 C 19.850 17.129,19.624 17.488,19.468 17.717 C 19.145 18.194,19.066 18.384,19.104 18.594 C 19.175 18.986,19.466 19.240,19.844 19.240 C 20.187 19.240,20.362 19.089,20.815 18.400 C 21.195 17.823,21.487 17.281,21.510 17.115 C 21.541 16.884,21.488 16.692,21.352 16.537 C 21.134 16.288,20.825 16.196,20.546 16.297 " stroke="none" fill-rule="evenodd" fill="black"></path></svg>