<svg width="24" height="24" viewBox="0 0 24 24" fill="none" xmlns="http://www.w3.org/2000/svg"><path d="M15.720 3.424 C 14.567 3.620,14.311 3.739,12.200 5.063 C 11.331 5.608,10.521 6.095,10.400 6.146 C 10.194 6.232,10.125 6.238,9.340 6.240 C 7.837 6.243,7.210 6.337,6.540 6.660 C 5.551 7.138,4.964 8.022,4.801 9.280 C 4.751 9.671,4.751 14.329,4.801 14.720 C 4.985 16.141,5.739 17.118,6.960 17.518 C 7.459 17.681,7.853 17.724,9.100 17.754 C 10.232 17.782,10.310 17.788,10.469 17.872 C 10.562 17.921,11.345 18.403,12.209 18.944 C 13.073 19.485,13.942 20.005,14.140 20.099 C 14.955 20.486,15.687 20.635,16.390 20.557 C 17.947 20.383,18.976 19.198,19.199 17.320 C 19.230 17.062,19.241 16.053,19.232 14.174 L 19.220 11.407 19.097 11.254 C 18.937 11.053,18.748 10.960,18.500 10.960 C 18.252 10.960,18.063 11.053,17.903 11.254 L 17.780 11.407 17.757 14.334 C 17.737 16.915,17.726 17.291,17.666 17.520 C 17.463 18.295,17.193 18.700,16.729 18.928 C 16.476 19.053,16.439 19.060,16.021 19.060 C 15.266 19.060,15.061 18.966,12.940 17.642 C 11.020 16.444,11.174 16.534,10.846 16.419 C 10.456 16.283,10.006 16.241,8.948 16.240 C 7.690 16.240,7.264 16.142,6.820 15.752 C 6.613 15.569,6.398 15.156,6.314 14.780 C 6.235 14.428,6.236 9.566,6.315 9.220 C 6.448 8.632,6.741 8.218,7.170 8.010 C 7.600 7.801,7.886 7.760,8.928 7.760 C 10.006 7.759,10.455 7.717,10.846 7.581 C 11.173 7.466,11.011 7.561,12.940 6.358 C 15.073 5.027,15.263 4.940,16.040 4.940 C 16.468 4.940,16.515 4.948,16.720 5.054 C 17.326 5.370,17.681 6.099,17.744 7.160 C 17.773 7.666,17.851 7.861,18.088 8.026 C 18.226 8.121,18.294 8.140,18.500 8.140 C 18.706 8.140,18.774 8.121,18.912 8.026 C 19.228 7.807,19.303 7.448,19.199 6.653 C 18.981 4.983,18.145 3.859,16.874 3.526 C 16.583 3.450,15.915 3.391,15.720 3.424 " stroke="none" fill-rule="evenodd" fill="black"></path></svg>