<svg width="24" height="24" viewBox="0 0 24 24" fill="none" xmlns="http://www.w3.org/2000/svg"><path d="M6.000 2.838 C 5.253 2.953,4.724 3.116,4.145 3.411 C 2.736 4.129,1.756 5.437,1.398 7.080 C 1.289 7.578,1.231 8.590,1.247 9.720 C 1.261 10.786,1.268 10.822,1.506 11.047 C 1.647 11.181,1.799 11.240,2.000 11.240 C 2.201 11.240,2.353 11.181,2.494 11.047 C 2.741 10.813,2.737 10.838,2.765 9.180 C 2.791 7.588,2.803 7.464,2.999 6.880 C 3.307 5.962,4.029 5.125,4.859 4.724 C 5.239 4.541,5.470 4.463,5.969 4.350 C 6.322 4.270,6.482 4.265,9.300 4.243 C 11.442 4.226,12.282 4.207,12.340 4.173 C 12.446 4.112,12.618 3.925,12.681 3.802 C 12.751 3.667,12.744 3.323,12.669 3.179 C 12.588 3.024,12.409 2.856,12.267 2.803 C 12.191 2.774,11.231 2.761,9.307 2.764 C 6.796 2.767,6.406 2.776,6.000 2.838 M15.720 2.805 C 15.458 2.909,15.269 3.200,15.269 3.500 C 15.269 3.727,15.339 3.889,15.506 4.047 C 15.659 4.191,15.800 4.240,16.073 4.241 C 16.354 4.242,17.020 4.336,17.336 4.420 C 18.426 4.708,19.293 5.400,19.781 6.372 C 20.110 7.028,20.240 7.651,20.240 8.581 L 20.240 9.192 19.290 9.210 C 18.239 9.230,18.127 9.250,17.620 9.512 C 17.212 9.723,16.632 10.314,16.429 10.725 C 16.194 11.202,16.105 11.613,16.130 12.119 C 16.189 13.329,16.950 14.281,18.180 14.682 C 18.429 14.763,18.560 14.776,19.355 14.791 L 20.250 14.808 20.229 15.594 C 20.210 16.258,20.191 16.440,20.107 16.768 C 19.746 18.157,18.758 19.186,17.421 19.564 C 16.863 19.722,16.380 19.758,14.820 19.760 C 13.471 19.762,13.326 19.768,13.180 19.835 C 12.990 19.923,12.904 20.012,12.822 20.210 C 12.743 20.398,12.743 20.602,12.822 20.790 C 12.904 20.988,12.990 21.077,13.180 21.165 C 13.326 21.232,13.472 21.238,14.904 21.239 C 15.764 21.240,16.619 21.221,16.804 21.198 C 19.409 20.875,21.209 19.184,21.641 16.652 C 21.689 16.375,21.730 15.885,21.746 15.401 L 21.772 14.605 21.965 14.481 C 22.363 14.223,22.659 13.742,22.723 13.250 C 22.742 13.101,22.757 12.539,22.757 12.000 C 22.757 11.461,22.742 10.899,22.723 10.750 C 22.659 10.258,22.363 9.777,21.965 9.519 L 21.772 9.395 21.747 8.627 C 21.706 7.425,21.618 6.916,21.315 6.135 C 20.767 4.722,19.552 3.564,18.140 3.107 C 17.253 2.820,16.057 2.671,15.720 2.805 M6.760 10.266 C 6.705 10.274,6.527 10.300,6.364 10.324 C 5.269 10.486,4.194 11.122,3.555 11.986 C 3.316 12.310,3.061 12.841,2.952 13.240 L 2.860 13.580 2.860 16.460 C 2.860 19.313,2.861 19.343,2.950 19.692 C 3.336 21.207,4.647 22.364,6.315 22.663 C 6.760 22.743,7.600 22.743,8.045 22.663 C 9.513 22.400,10.734 21.452,11.242 20.180 C 11.478 19.588,11.481 19.539,11.485 16.465 C 11.489 13.690,11.488 13.650,11.400 13.297 C 11.117 12.156,10.302 11.215,9.129 10.673 C 8.454 10.361,7.375 10.175,6.760 10.266 M21.167 10.786 C 21.234 10.847,21.240 10.939,21.240 12.000 C 21.240 13.074,21.235 13.152,21.164 13.216 C 21.096 13.278,20.973 13.283,19.854 13.272 L 18.620 13.260 18.367 13.123 C 17.855 12.845,17.614 12.437,17.649 11.905 C 17.683 11.377,18.005 10.958,18.515 10.775 C 18.621 10.737,18.987 10.723,19.877 10.722 C 20.955 10.720,21.102 10.728,21.167 10.786 M7.978 11.859 C 8.556 12.015,8.965 12.250,9.382 12.666 C 10.268 13.552,10.180 14.931,9.190 15.666 C 7.924 16.607,5.853 16.474,4.852 15.389 C 4.524 15.033,4.360 14.621,4.360 14.155 C 4.360 13.532,4.547 13.085,4.996 12.637 C 5.442 12.192,5.920 11.938,6.540 11.816 C 6.890 11.748,7.648 11.771,7.978 11.859 M5.024 17.320 C 6.479 18.010,8.465 17.917,9.743 17.100 C 9.867 17.020,9.976 16.963,9.985 16.971 C 10.027 17.013,9.905 17.451,9.780 17.705 C 9.515 18.246,8.853 18.736,8.131 18.924 C 7.686 19.040,6.996 19.066,6.526 18.984 C 5.441 18.794,4.637 18.166,4.421 17.339 C 4.322 16.956,4.329 16.936,4.530 17.061 C 4.623 17.119,4.846 17.236,5.024 17.320 M4.940 20.045 C 5.609 20.391,6.275 20.537,7.180 20.537 C 8.094 20.537,8.829 20.372,9.462 20.023 C 9.604 19.945,9.720 19.898,9.720 19.917 C 9.720 19.974,9.429 20.325,9.248 20.489 C 8.683 20.997,8.014 21.240,7.180 21.240 C 6.308 21.240,5.640 20.985,5.046 20.423 C 4.845 20.234,4.545 19.850,4.625 19.885 C 4.644 19.894,4.786 19.966,4.940 20.045 " stroke="none" fill-rule="evenodd" fill="black"></path></svg>