<svg width="24" height="24" viewBox="0 0 24 24" fill="none" xmlns="http://www.w3.org/2000/svg"><path d="M5.240 2.123 C 4.342 2.206,3.456 2.597,2.726 3.233 C 2.170 3.717,1.642 4.566,1.423 5.328 C 1.275 5.847,1.241 6.430,1.241 8.460 C 1.242 10.171,1.247 10.312,1.317 10.465 C 1.511 10.893,2.088 11.026,2.474 10.732 C 2.665 10.586,2.758 10.357,2.759 10.028 C 2.764 8.671,3.787 7.386,5.180 6.991 L 5.500 6.900 10.960 6.900 C 16.972 6.900,16.663 6.888,17.250 7.145 C 17.864 7.413,18.524 8.004,18.836 8.564 C 19.134 9.100,19.209 9.405,19.231 10.164 L 19.249 10.828 18.814 10.851 C 18.250 10.881,17.828 11.012,17.424 11.282 C 16.342 12.006,15.873 13.301,16.257 14.505 C 16.611 15.616,17.765 16.440,18.967 16.440 L 19.240 16.440 19.240 16.976 C 19.240 18.051,19.012 18.675,18.367 19.365 C 17.919 19.843,17.381 20.165,16.760 20.324 C 16.432 20.408,5.568 20.408,5.240 20.324 C 4.101 20.032,3.173 19.136,2.854 18.020 C 2.796 17.817,2.782 17.517,2.763 16.060 C 2.741 14.417,2.736 14.333,2.656 14.180 C 2.610 14.092,2.499 13.968,2.408 13.903 C 2.270 13.806,2.203 13.787,2.007 13.787 C 1.721 13.787,1.526 13.892,1.367 14.132 L 1.260 14.294 1.260 15.917 C 1.260 17.696,1.281 17.949,1.487 18.600 C 1.973 20.136,3.213 21.302,4.840 21.754 L 5.220 21.860 11.000 21.860 L 16.780 21.860 17.160 21.754 C 18.797 21.300,20.047 20.118,20.515 18.580 C 20.673 18.063,20.713 17.795,20.746 17.050 L 20.772 16.440 20.978 16.440 C 21.577 16.440,22.134 16.129,22.469 15.608 C 22.713 15.227,22.728 15.135,22.749 13.891 C 22.777 12.215,22.704 11.865,22.219 11.381 C 21.916 11.078,21.601 10.931,21.131 10.873 L 20.772 10.829 20.745 10.206 C 20.704 9.243,20.559 8.655,20.188 7.941 C 19.619 6.847,18.559 5.976,17.340 5.601 C 17.011 5.500,16.332 5.402,15.952 5.401 L 15.683 5.400 15.644 5.250 C 15.622 5.168,15.591 5.046,15.576 4.980 C 15.461 4.502,15.027 3.781,14.602 3.362 C 13.825 2.595,12.834 2.184,11.639 2.131 C 11.183 2.111,11.123 2.117,10.973 2.193 C 10.680 2.343,10.531 2.626,10.575 2.948 C 10.603 3.153,10.706 3.315,10.902 3.465 C 11.023 3.557,11.094 3.573,11.504 3.604 C 12.059 3.645,12.403 3.725,12.780 3.899 C 13.360 4.167,13.765 4.558,14.026 5.100 L 14.161 5.380 9.771 5.403 C 7.356 5.416,5.326 5.440,5.260 5.456 C 5.194 5.472,5.014 5.514,4.860 5.549 C 4.171 5.707,3.380 6.119,2.890 6.575 L 2.760 6.696 2.761 6.418 C 2.763 5.343,3.461 4.308,4.500 3.837 C 4.931 3.642,5.027 3.630,6.460 3.604 C 7.941 3.578,7.936 3.578,8.167 3.334 C 8.429 3.057,8.429 2.623,8.167 2.346 C 7.938 2.103,7.921 2.101,6.720 2.094 C 6.115 2.091,5.449 2.104,5.240 2.123 M6.720 10.464 C 6.423 10.593,6.269 10.826,6.269 11.146 C 6.269 11.413,6.411 11.667,6.632 11.790 L 6.791 11.880 10.002 11.880 L 13.213 11.880 13.377 11.784 C 13.787 11.544,13.858 10.934,13.513 10.612 C 13.280 10.394,13.378 10.400,9.991 10.402 C 7.285 10.403,6.841 10.411,6.720 10.464 M21.167 12.426 C 21.234 12.487,21.240 12.579,21.240 13.643 L 21.240 14.794 21.135 14.877 C 21.035 14.956,20.981 14.960,20.065 14.959 C 19.534 14.959,18.985 14.942,18.845 14.922 C 18.379 14.854,17.954 14.571,17.752 14.192 C 17.675 14.047,17.660 13.959,17.660 13.640 C 17.660 13.187,17.730 13.021,18.049 12.715 C 18.401 12.378,18.470 12.364,19.877 12.362 C 20.955 12.360,21.102 12.368,21.167 12.426 " stroke="none" fill-rule="evenodd" fill="black"></path></svg>