<svg width="24" height="24" viewBox="0 0 24 24" fill="none" xmlns="http://www.w3.org/2000/svg"><path d="M12.060 1.285 C 11.398 1.348,10.697 1.600,10.110 1.985 C 9.899 2.124,9.300 2.695,7.914 4.078 C 6.866 5.124,5.947 6.068,5.871 6.175 C 5.733 6.369,5.732 6.370,5.296 6.479 C 3.736 6.873,2.502 7.884,1.824 9.324 C 1.501 10.009,1.343 10.643,1.282 11.489 C 1.241 12.063,1.263 12.248,1.394 12.432 C 1.706 12.870,2.431 12.817,2.658 12.339 C 2.703 12.243,2.739 12.016,2.764 11.669 C 2.826 10.796,3.033 10.106,3.406 9.535 C 4.071 8.516,5.055 7.944,6.387 7.801 C 6.700 7.768,8.333 7.759,12.300 7.769 C 17.767 7.783,17.781 7.783,18.150 7.870 C 19.918 8.287,21.063 9.620,21.224 11.447 L 21.251 11.754 19.855 11.769 L 18.460 11.783 18.131 11.893 C 17.453 12.120,16.850 12.652,16.539 13.300 C 16.334 13.727,16.270 14.013,16.270 14.500 C 16.270 14.993,16.334 15.276,16.545 15.706 C 16.865 16.360,17.454 16.881,18.131 17.107 L 18.460 17.217 19.855 17.231 L 21.251 17.246 21.223 17.552 C 21.072 19.213,20.123 20.476,18.640 20.991 C 17.950 21.230,18.248 21.220,12.000 21.220 C 5.752 21.220,6.050 21.230,5.360 20.991 C 4.057 20.539,3.167 19.513,2.852 18.101 C 2.811 17.912,2.782 17.492,2.764 16.820 C 2.739 15.854,2.735 15.814,2.640 15.646 C 2.360 15.154,1.638 15.154,1.362 15.645 C 1.279 15.792,1.262 15.886,1.247 16.261 C 1.238 16.504,1.251 17.000,1.276 17.362 C 1.348 18.404,1.514 19.062,1.896 19.814 C 2.174 20.361,2.425 20.708,2.859 21.141 C 3.825 22.107,4.993 22.607,6.545 22.719 C 7.282 22.772,16.718 22.772,17.455 22.719 C 18.406 22.651,19.088 22.473,19.814 22.104 C 20.361 21.826,20.708 21.575,21.141 21.141 C 22.107 20.175,22.607 19.007,22.719 17.455 C 22.771 16.737,22.771 12.226,22.720 11.509 C 22.653 10.580,22.495 9.980,22.119 9.220 C 21.413 7.793,20.221 6.857,18.580 6.442 C 18.422 6.402,18.419 6.398,18.349 6.114 C 18.257 5.742,18.021 5.242,17.753 4.851 C 17.510 4.496,15.398 2.348,15.040 2.091 C 14.169 1.465,13.128 1.184,12.060 1.285 M13.393 2.891 C 13.555 2.948,13.789 3.054,13.913 3.127 C 14.157 3.270,15.434 4.497,16.139 5.265 C 16.500 5.660,16.800 6.083,16.800 6.199 C 16.800 6.227,15.328 6.240,12.330 6.240 L 7.860 6.240 9.260 4.837 C 10.030 4.065,10.770 3.354,10.905 3.257 C 11.435 2.874,11.854 2.755,12.600 2.775 C 13.012 2.786,13.152 2.806,13.393 2.891 M21.240 14.503 L 21.240 15.765 19.970 15.753 C 18.772 15.741,18.690 15.735,18.515 15.655 C 17.865 15.354,17.578 14.604,17.874 13.980 C 18.040 13.628,18.353 13.367,18.709 13.284 C 18.792 13.264,19.395 13.246,20.050 13.244 L 21.240 13.240 21.240 14.503 " stroke="none" fill-rule="evenodd" fill="black"></path></svg>