<svg width="24" height="24" viewBox="0 0 24 24" fill="none" xmlns="http://www.w3.org/2000/svg"><path d="M11.903 1.241 C 11.273 1.341,10.652 1.587,10.110 1.953 C 9.743 2.201,9.342 2.591,7.554 4.441 C 6.062 5.983,5.835 6.225,5.775 6.331 C 5.749 6.377,5.602 6.434,5.338 6.499 C 3.270 7.008,1.830 8.506,1.396 10.600 C 1.297 11.081,1.227 12.072,1.247 12.721 C 1.260 13.157,1.274 13.241,1.354 13.370 C 1.663 13.870,2.412 13.848,2.663 13.332 C 2.726 13.202,2.741 13.032,2.765 12.160 C 2.788 11.325,2.808 11.078,2.877 10.800 C 3.248 9.302,4.257 8.286,5.698 7.958 C 6.605 7.751,6.310 7.760,12.312 7.760 L 17.910 7.760 18.285 7.855 C 18.987 8.033,19.532 8.343,20.030 8.847 C 20.510 9.333,20.812 9.825,21.022 10.469 C 21.124 10.783,21.240 11.396,21.240 11.627 L 21.240 11.754 19.850 11.769 L 18.460 11.783 18.131 11.893 C 17.453 12.120,16.850 12.652,16.539 13.300 C 16.334 13.727,16.270 14.013,16.270 14.500 C 16.270 14.993,16.334 15.276,16.545 15.706 C 16.865 16.360,17.454 16.881,18.131 17.107 L 18.460 17.217 19.855 17.231 L 21.251 17.246 21.223 17.552 C 21.074 19.194,20.133 20.462,18.680 20.979 C 18.008 21.218,18.116 21.211,14.817 21.236 L 11.774 21.260 11.612 21.367 C 11.372 21.526,11.267 21.721,11.267 22.007 C 11.267 22.203,11.286 22.270,11.383 22.408 C 11.447 22.499,11.572 22.610,11.660 22.656 C 11.816 22.738,11.875 22.740,14.280 22.752 C 15.758 22.760,16.996 22.748,17.380 22.722 C 18.401 22.653,19.065 22.485,19.814 22.104 C 20.361 21.826,20.708 21.575,21.141 21.141 C 22.107 20.175,22.607 19.007,22.719 17.455 C 22.771 16.737,22.771 12.269,22.720 11.540 C 22.609 9.982,22.116 8.841,21.107 7.806 C 20.461 7.143,19.661 6.674,18.770 6.435 L 18.442 6.348 18.381 6.124 C 18.218 5.531,17.919 4.961,17.527 4.496 C 17.254 4.172,17.061 4.062,16.775 4.066 C 16.368 4.072,16.067 4.381,16.067 4.792 C 16.067 5.059,16.092 5.114,16.359 5.426 C 16.549 5.648,16.867 6.186,16.830 6.223 C 16.821 6.233,14.813 6.236,12.369 6.230 L 7.924 6.220 9.312 4.788 C 10.076 4.001,10.790 3.293,10.900 3.216 C 11.429 2.843,11.879 2.713,12.666 2.706 L 13.233 2.700 13.386 2.576 C 13.605 2.399,13.691 2.232,13.691 1.986 C 13.691 1.670,13.502 1.386,13.220 1.280 C 13.061 1.219,12.201 1.194,11.903 1.241 M21.240 14.503 L 21.240 15.765 19.970 15.753 C 18.772 15.741,18.690 15.735,18.515 15.655 C 17.865 15.354,17.578 14.604,17.874 13.980 C 18.040 13.628,18.353 13.367,18.709 13.284 C 18.792 13.264,19.395 13.246,20.050 13.244 L 21.240 13.240 21.240 14.503 M5.362 14.286 C 3.528 14.477,2.063 15.961,1.883 17.810 C 1.802 18.642,2.007 19.579,2.409 20.213 L 2.532 20.405 1.951 20.993 C 1.632 21.316,1.347 21.625,1.319 21.680 C 1.290 21.735,1.267 21.881,1.267 22.004 C 1.267 22.499,1.683 22.818,2.189 22.710 C 2.362 22.673,2.437 22.613,2.988 22.069 L 3.596 21.469 3.788 21.591 C 4.416 21.990,5.370 22.199,6.181 22.116 C 7.123 22.019,7.921 21.643,8.582 20.982 C 9.420 20.144,9.824 19.017,9.714 17.824 C 9.630 16.902,9.242 16.078,8.582 15.418 C 7.917 14.753,7.117 14.377,6.166 14.282 C 5.938 14.259,5.740 14.242,5.726 14.245 C 5.712 14.248,5.548 14.266,5.362 14.286 M6.390 15.820 C 6.811 15.919,7.184 16.135,7.525 16.475 C 8.017 16.968,8.239 17.504,8.239 18.200 C 8.239 18.896,8.017 19.432,7.525 19.925 C 7.032 20.417,6.496 20.639,5.800 20.639 C 5.104 20.639,4.568 20.417,4.075 19.925 C 3.583 19.432,3.361 18.896,3.361 18.200 C 3.361 18.013,3.388 17.747,3.420 17.610 C 3.617 16.776,4.363 16.023,5.192 15.822 C 5.496 15.748,6.081 15.747,6.390 15.820 " stroke="none" fill-rule="evenodd" fill="black"></path></svg>