<svg width="24" height="24" viewBox="0 0 24 24" fill="none" xmlns="http://www.w3.org/2000/svg"><path d="M12.060 1.285 C 11.398 1.348,10.697 1.600,10.110 1.985 C 9.899 2.124,9.301 2.694,7.915 4.078 C 6.044 5.946,5.787 6.228,5.556 6.668 C 5.362 7.036,5.433 7.428,5.733 7.658 L 5.875 7.766 11.828 7.773 L 17.780 7.781 18.150 7.869 C 18.916 8.052,19.516 8.367,20.031 8.855 C 20.705 9.496,21.134 10.428,21.224 11.447 L 21.251 11.754 19.855 11.769 L 18.460 11.783 18.131 11.893 C 17.453 12.120,16.850 12.652,16.539 13.300 C 16.334 13.727,16.270 14.013,16.270 14.500 C 16.270 14.993,16.334 15.276,16.545 15.706 C 16.865 16.360,17.454 16.881,18.131 17.107 L 18.460 17.217 19.855 17.231 L 21.251 17.246 21.223 17.552 C 21.074 19.194,20.133 20.462,18.680 20.979 C 17.982 21.227,18.259 21.214,13.532 21.229 L 9.205 21.243 9.340 20.931 C 10.134 19.097,9.752 17.038,8.357 15.643 C 7.043 14.329,5.100 13.903,3.360 14.547 C 3.151 14.624,2.940 14.713,2.891 14.744 C 2.843 14.775,2.793 14.800,2.781 14.800 C 2.770 14.800,2.760 14.058,2.760 13.150 C 2.760 11.142,2.776 11.016,3.138 10.012 C 3.256 9.683,3.247 9.481,3.104 9.269 C 2.797 8.814,2.162 8.816,1.854 9.272 C 1.729 9.458,1.528 10.032,1.417 10.520 C 1.274 11.154,1.240 11.824,1.240 14.060 L 1.240 16.100 1.118 16.280 C 0.594 17.055,0.361 17.697,0.283 18.583 C 0.164 19.948,0.623 21.265,1.567 22.263 C 3.167 23.956,5.823 24.230,7.690 22.896 L 7.880 22.760 12.390 22.760 C 14.998 22.759,17.134 22.742,17.455 22.719 C 18.406 22.651,19.088 22.473,19.814 22.104 C 20.361 21.826,20.708 21.575,21.141 21.141 C 22.107 20.175,22.607 19.007,22.719 17.455 C 22.771 16.737,22.771 12.226,22.720 11.509 C 22.653 10.580,22.495 9.980,22.119 9.220 C 21.413 7.793,20.221 6.857,18.580 6.442 C 18.422 6.402,18.419 6.398,18.349 6.114 C 18.257 5.742,18.021 5.242,17.753 4.851 C 17.510 4.496,15.398 2.348,15.040 2.091 C 14.169 1.465,13.128 1.184,12.060 1.285 M13.393 2.891 C 13.555 2.948,13.789 3.054,13.913 3.127 C 14.158 3.271,15.343 4.408,16.098 5.224 C 16.492 5.650,16.800 6.078,16.800 6.199 C 16.800 6.227,15.328 6.240,12.330 6.240 L 7.860 6.240 9.260 4.837 C 10.030 4.065,10.770 3.354,10.905 3.257 C 11.435 2.874,11.854 2.755,12.600 2.775 C 13.012 2.786,13.152 2.806,13.393 2.891 M21.240 14.503 L 21.240 15.765 19.970 15.753 C 18.772 15.741,18.690 15.735,18.515 15.655 C 17.865 15.354,17.578 14.604,17.874 13.980 C 18.040 13.628,18.353 13.367,18.709 13.284 C 18.792 13.264,19.395 13.246,20.050 13.244 L 21.240 13.240 21.240 14.503 M5.820 15.852 C 6.967 16.178,7.828 17.039,8.147 18.180 C 8.298 18.721,8.244 19.587,8.026 20.145 C 7.699 20.978,6.998 21.704,6.217 22.017 C 5.626 22.253,4.852 22.310,4.256 22.161 C 2.058 21.608,1.054 19.074,2.295 17.208 C 2.742 16.534,3.523 16.006,4.340 15.824 C 4.677 15.748,5.511 15.765,5.820 15.852 M3.579 17.297 C 3.296 17.467,3.162 17.830,3.254 18.178 C 3.272 18.245,3.431 18.444,3.622 18.640 L 3.958 18.984 3.656 19.282 C 3.304 19.630,3.200 19.806,3.200 20.060 C 3.200 20.499,3.502 20.800,3.945 20.800 C 4.194 20.800,4.332 20.719,4.701 20.356 L 5.022 20.040 5.321 20.343 C 5.679 20.706,5.793 20.771,6.066 20.771 C 6.490 20.771,6.800 20.460,6.800 20.032 C 6.800 19.768,6.686 19.574,6.326 19.223 L 6.083 18.985 6.397 18.658 C 6.656 18.389,6.718 18.298,6.751 18.146 C 6.839 17.730,6.615 17.344,6.230 17.247 C 5.886 17.160,5.687 17.246,5.282 17.657 L 5.024 17.918 4.722 17.625 C 4.556 17.464,4.362 17.302,4.292 17.266 C 4.098 17.166,3.774 17.181,3.579 17.297 " stroke="none" fill-rule="evenodd" fill="black"></path></svg>