<svg width="24" height="24" viewBox="0 0 24 24" fill="none" xmlns="http://www.w3.org/2000/svg"><path d="M10.180 1.285 C 9.272 1.371,8.419 1.832,7.746 2.599 C 7.428 2.961,7.017 3.616,6.692 4.280 L 6.386 4.903 6.067 4.999 C 5.622 5.133,5.074 5.387,4.611 5.673 C 3.032 6.649,1.949 8.252,1.591 10.143 C 1.501 10.614,1.500 10.655,1.508 13.584 C 1.516 16.731,1.540 17.236,1.722 18.132 C 2.090 19.941,3.064 21.262,4.584 22.013 C 5.253 22.344,5.965 22.535,7.020 22.668 C 7.665 22.749,11.796 22.791,12.140 22.720 C 12.826 22.578,12.956 21.645,12.332 21.336 C 12.190 21.265,12.025 21.259,9.720 21.237 C 7.682 21.217,7.188 21.202,6.840 21.145 C 5.197 20.880,4.177 20.214,3.585 19.018 C 3.141 18.121,3.000 17.189,3.000 15.166 C 3.000 13.834,3.041 13.399,3.213 12.900 C 3.438 12.244,3.746 11.763,4.278 11.240 C 4.700 10.824,5.084 10.574,5.620 10.366 C 6.344 10.084,5.887 10.104,11.800 10.090 C 15.532 10.081,17.242 10.090,17.480 10.121 C 18.331 10.231,19.160 10.646,19.783 11.272 C 20.319 11.811,20.680 12.442,20.887 13.201 C 20.978 13.532,20.980 13.581,20.979 15.360 C 20.979 16.930,20.969 17.231,20.908 17.549 C 20.790 18.167,20.651 18.598,20.418 19.067 C 19.954 19.997,19.118 20.666,18.029 20.978 C 17.509 21.126,17.033 21.199,16.328 21.236 C 15.653 21.272,15.547 21.301,15.353 21.506 C 15.091 21.783,15.091 22.217,15.353 22.494 C 15.558 22.710,15.655 22.738,16.180 22.729 C 17.147 22.711,17.950 22.581,18.739 22.314 C 19.611 22.019,20.173 21.674,20.801 21.046 C 21.642 20.206,22.128 19.208,22.358 17.847 C 22.499 17.011,22.528 16.143,22.510 13.300 C 22.491 10.408,22.485 10.313,22.260 9.483 C 22.075 8.800,21.672 7.979,21.218 7.360 C 20.749 6.721,20.288 6.281,19.588 5.808 C 19.266 5.590,19.174 5.504,19.073 5.327 C 18.636 4.565,17.819 3.889,16.620 3.301 C 15.912 2.954,13.252 1.844,12.657 1.647 C 12.065 1.451,11.551 1.338,11.006 1.282 C 10.778 1.259,10.580 1.242,10.566 1.245 C 10.552 1.248,10.378 1.266,10.180 1.285 M11.532 2.873 C 11.703 2.915,11.851 2.957,11.860 2.967 C 11.870 2.976,11.339 4.234,10.680 5.762 L 9.483 8.540 7.992 8.561 C 7.171 8.572,6.498 8.581,6.495 8.581 C 6.492 8.580,6.713 8.049,6.986 7.400 C 7.258 6.751,7.565 6.013,7.667 5.760 C 8.107 4.668,8.550 3.921,9.055 3.415 C 9.583 2.888,9.948 2.750,10.740 2.778 C 11.020 2.789,11.350 2.828,11.532 2.873 M14.506 4.001 C 16.297 4.757,16.882 5.080,17.401 5.599 C 17.875 6.073,18.060 6.543,18.055 7.260 C 18.052 7.679,17.960 8.230,17.843 8.534 C 17.806 8.630,17.784 8.644,17.709 8.617 C 17.660 8.599,16.160 8.575,14.375 8.562 L 11.130 8.540 12.211 6.030 C 12.805 4.649,13.308 3.520,13.329 3.520 C 13.349 3.520,13.879 3.736,14.506 4.001 M5.093 8.004 L 4.620 9.134 4.275 9.341 C 3.933 9.546,3.635 9.766,3.273 10.081 L 3.086 10.243 3.141 10.007 C 3.336 9.172,3.849 8.299,4.556 7.599 C 4.870 7.287,5.505 6.812,5.549 6.855 C 5.559 6.865,5.354 7.382,5.093 8.004 M20.019 8.260 C 20.386 8.747,20.646 9.280,20.822 9.908 L 20.913 10.236 20.587 9.952 C 20.229 9.641,19.813 9.356,19.490 9.200 C 19.376 9.145,19.283 9.073,19.282 9.040 C 19.281 9.007,19.307 8.893,19.339 8.787 C 19.394 8.607,19.474 8.238,19.540 7.860 L 19.568 7.700 19.688 7.840 C 19.754 7.917,19.903 8.106,20.019 8.260 M11.815 12.277 C 11.638 12.321,11.461 12.456,11.353 12.631 C 11.264 12.774,11.259 12.818,11.247 13.727 L 11.234 14.674 10.267 14.687 C 9.215 14.701,9.178 14.709,8.953 14.946 C 8.691 15.223,8.691 15.657,8.953 15.934 C 9.178 16.171,9.215 16.179,10.267 16.193 L 11.234 16.206 11.247 17.213 C 11.260 18.185,11.263 18.225,11.353 18.369 C 11.710 18.943,12.576 18.812,12.716 18.162 C 12.740 18.047,12.760 17.569,12.760 17.081 L 12.760 16.206 13.730 16.193 C 14.785 16.179,14.822 16.172,15.047 15.934 C 15.181 15.793,15.240 15.641,15.240 15.440 C 15.240 15.239,15.181 15.087,15.047 14.946 C 14.822 14.708,14.785 14.701,13.730 14.687 L 12.760 14.674 12.759 13.847 C 12.758 12.953,12.727 12.730,12.580 12.536 C 12.421 12.327,12.078 12.211,11.815 12.277 " stroke="none" fill-rule="evenodd" fill="black"></path></svg>