<svg width="24" height="24" viewBox="0 0 24 24" fill="none" xmlns="http://www.w3.org/2000/svg"><path d="M11.740 1.268 C 11.266 1.295,10.725 1.439,10.300 1.651 C 9.955 1.823,4.147 5.180,3.860 5.373 C 3.067 5.906,2.439 6.878,2.242 7.880 C 2.171 8.239,2.175 8.761,2.249 8.900 C 2.491 9.354,3.057 9.464,3.414 9.127 C 3.589 8.962,3.637 8.835,3.679 8.425 C 3.749 7.755,3.995 7.242,4.446 6.825 C 4.666 6.622,5.238 6.276,7.759 4.820 C 9.435 3.852,10.953 2.997,11.133 2.920 C 11.454 2.783,11.470 2.780,12.000 2.781 C 12.480 2.783,12.569 2.794,12.803 2.884 C 13.130 3.010,19.208 6.516,19.460 6.724 C 19.855 7.051,20.128 7.481,20.269 8.000 C 20.335 8.240,20.340 8.549,20.340 12.000 C 20.340 16.173,20.355 15.934,20.057 16.526 C 19.904 16.829,19.571 17.213,19.300 17.399 C 18.889 17.680,13.032 21.028,12.801 21.113 C 12.491 21.228,11.902 21.272,11.549 21.206 C 11.422 21.182,11.205 21.112,11.067 21.051 C 10.928 20.990,9.439 20.148,7.757 19.180 C 4.825 17.492,4.688 17.408,4.398 17.120 C 4.098 16.821,3.873 16.464,3.757 16.100 C 3.720 15.986,3.699 15.444,3.683 14.200 C 3.658 12.298,3.665 12.350,3.414 12.113 C 3.209 11.919,2.893 11.863,2.628 11.974 C 2.473 12.039,2.253 12.279,2.211 12.431 C 2.194 12.491,2.180 13.287,2.181 14.200 C 2.182 15.597,2.192 15.908,2.248 16.160 C 2.351 16.625,2.528 17.083,2.743 17.443 C 2.972 17.825,3.506 18.392,3.860 18.628 C 4.134 18.811,9.946 22.171,10.279 22.340 C 10.798 22.602,11.366 22.728,12.027 22.727 C 12.678 22.727,13.175 22.611,13.740 22.329 C 14.144 22.127,19.636 18.955,20.040 18.690 C 20.801 18.191,21.371 17.457,21.632 16.640 C 21.823 16.040,21.820 16.125,21.820 12.000 C 21.820 8.927,21.809 8.049,21.767 7.860 C 21.526 6.756,20.954 5.906,20.064 5.325 C 19.635 5.046,14.148 1.875,13.740 1.671 C 13.131 1.367,12.444 1.229,11.740 1.268 M11.698 7.075 C 11.517 7.158,11.335 7.353,11.290 7.513 C 11.273 7.572,11.260 8.880,11.260 10.420 L 11.260 13.220 11.353 13.369 C 11.714 13.949,12.581 13.811,12.718 13.151 C 12.749 13.000,12.759 12.119,12.751 10.237 C 12.741 7.816,12.733 7.528,12.674 7.420 C 12.474 7.057,12.060 6.911,11.698 7.075 M11.673 15.263 C 11.402 15.347,11.139 15.622,11.055 15.910 C 10.975 16.187,10.998 16.522,11.114 16.749 C 11.399 17.308,12.160 17.461,12.634 17.056 C 13.094 16.662,13.124 15.930,12.697 15.504 C 12.418 15.224,12.067 15.142,11.673 15.263 " stroke="none" fill-rule="evenodd" fill="black"></path></svg>