<svg width="24" height="24" viewBox="0 0 24 24" fill="none" xmlns="http://www.w3.org/2000/svg"><path d="M7.815 1.278 C 7.331 1.393,7.098 2.004,7.383 2.408 C 7.447 2.499,7.572 2.610,7.660 2.656 C 7.815 2.738,7.880 2.740,9.875 2.752 C 12.208 2.765,12.281 2.759,12.519 2.521 C 12.918 2.122,12.731 1.423,12.189 1.286 C 11.980 1.234,8.031 1.226,7.815 1.278 M14.815 1.278 C 14.331 1.393,14.098 2.004,14.383 2.408 C 14.576 2.681,14.733 2.736,15.363 2.754 C 16.073 2.773,16.316 2.724,16.519 2.521 C 16.918 2.122,16.731 1.423,16.189 1.286 C 15.988 1.236,15.016 1.230,14.815 1.278 M7.960 4.282 C 6.171 4.421,4.995 5.269,4.504 6.771 C 4.292 7.420,4.194 8.570,4.328 8.820 C 4.472 9.087,4.717 9.240,5.000 9.240 C 5.201 9.240,5.353 9.181,5.494 9.047 C 5.685 8.866,5.726 8.740,5.760 8.224 C 5.820 7.329,6.000 6.833,6.417 6.417 C 6.715 6.118,7.069 5.941,7.574 5.837 C 7.919 5.765,8.176 5.761,12.000 5.761 C 15.824 5.761,16.081 5.765,16.426 5.837 C 17.447 6.047,17.997 6.624,18.181 7.675 C 18.270 8.180,18.268 15.881,18.180 16.349 C 18.015 17.219,17.614 17.748,16.912 18.023 C 16.358 18.240,16.363 18.240,11.986 18.239 C 8.177 18.239,7.919 18.235,7.574 18.163 C 6.647 17.972,6.091 17.453,5.854 16.556 C 5.796 16.337,5.783 15.994,5.763 14.160 C 5.738 11.816,5.748 11.914,5.494 11.673 C 5.353 11.539,5.201 11.480,5.000 11.480 C 4.799 11.480,4.647 11.539,4.506 11.673 C 4.250 11.915,4.260 11.816,4.262 14.080 C 4.264 15.887,4.273 16.189,4.336 16.538 C 4.671 18.382,5.749 19.411,7.634 19.689 C 8.133 19.762,15.867 19.762,16.366 19.689 C 18.308 19.403,19.403 18.308,19.689 16.366 C 19.762 15.867,19.762 8.133,19.689 7.634 C 19.615 7.128,19.494 6.704,19.321 6.332 C 18.793 5.205,17.879 4.565,16.440 4.316 C 16.126 4.261,8.608 4.231,7.960 4.282 M11.815 9.277 C 11.638 9.321,11.461 9.456,11.353 9.631 L 11.260 9.780 11.260 12.000 L 11.260 14.220 11.353 14.369 C 11.710 14.943,12.576 14.812,12.716 14.162 C 12.774 13.891,12.775 10.093,12.717 9.841 C 12.623 9.432,12.215 9.177,11.815 9.277 M14.815 11.277 C 14.638 11.321,14.461 11.456,14.353 11.631 C 14.261 11.778,14.260 11.793,14.260 13.000 C 14.260 14.207,14.261 14.222,14.353 14.369 C 14.710 14.943,15.576 14.812,15.716 14.162 C 15.772 13.901,15.773 12.083,15.717 11.841 C 15.623 11.432,15.215 11.177,14.815 11.277 M8.815 12.277 C 8.638 12.321,8.461 12.456,8.353 12.631 C 8.265 12.772,8.260 12.816,8.260 13.500 C 8.260 14.184,8.265 14.228,8.353 14.369 C 8.710 14.943,9.576 14.812,9.716 14.162 C 9.771 13.904,9.772 13.080,9.717 12.841 C 9.623 12.432,9.215 12.177,8.815 12.277 M7.815 21.278 C 7.331 21.393,7.098 22.004,7.383 22.408 C 7.447 22.499,7.572 22.610,7.660 22.656 C 7.819 22.739,7.851 22.740,11.879 22.751 C 14.744 22.759,16.001 22.749,16.153 22.717 C 16.902 22.562,16.930 21.473,16.189 21.286 C 15.979 21.234,8.034 21.226,7.815 21.278 " stroke="none" fill-rule="evenodd" fill="black"></path></svg>