<svg width="24" height="24" viewBox="0 0 24 24" fill="none" xmlns="http://www.w3.org/2000/svg"><path d="M7.815 1.278 C 7.331 1.393,7.098 2.004,7.383 2.408 C 7.447 2.499,7.572 2.610,7.660 2.656 C 7.819 2.739,7.851 2.740,11.879 2.751 C 14.744 2.759,16.001 2.749,16.153 2.717 C 16.902 2.562,16.930 1.473,16.189 1.286 C 15.979 1.234,8.034 1.226,7.815 1.278 M7.960 4.282 C 6.171 4.421,4.995 5.269,4.504 6.771 C 4.292 7.420,4.194 8.570,4.328 8.820 C 4.472 9.087,4.717 9.240,5.000 9.240 C 5.201 9.240,5.353 9.181,5.494 9.047 C 5.685 8.866,5.726 8.740,5.760 8.224 C 5.820 7.329,6.000 6.833,6.417 6.417 C 6.715 6.118,7.069 5.941,7.574 5.837 C 7.919 5.765,8.176 5.761,12.000 5.761 C 15.824 5.761,16.081 5.765,16.426 5.837 C 17.447 6.047,17.997 6.624,18.181 7.675 C 18.270 8.180,18.268 15.881,18.180 16.349 C 18.015 17.219,17.614 17.748,16.912 18.023 C 16.358 18.240,16.363 18.240,11.986 18.239 C 8.177 18.239,7.919 18.235,7.574 18.163 C 6.647 17.972,6.091 17.452,5.854 16.556 C 5.797 16.339,5.783 15.999,5.763 14.300 C 5.738 12.111,5.747 12.193,5.494 11.953 C 5.353 11.819,5.201 11.760,5.000 11.760 C 4.799 11.760,4.647 11.819,4.506 11.953 C 4.251 12.194,4.260 12.111,4.262 14.220 C 4.264 15.889,4.274 16.192,4.336 16.538 C 4.670 18.381,5.749 19.411,7.634 19.689 C 8.133 19.762,15.867 19.762,16.366 19.689 C 18.308 19.403,19.403 18.308,19.689 16.366 C 19.762 15.867,19.762 8.133,19.689 7.634 C 19.615 7.128,19.494 6.704,19.321 6.332 C 18.793 5.205,17.879 4.565,16.440 4.316 C 16.126 4.261,8.608 4.231,7.960 4.282 M11.180 8.835 C 10.990 8.923,10.904 9.012,10.822 9.210 C 10.769 9.335,10.760 9.612,10.761 11.009 C 10.762 12.525,10.768 12.673,10.835 12.820 C 10.923 13.010,11.012 13.096,11.210 13.178 C 11.335 13.231,11.612 13.240,13.009 13.239 C 14.525 13.238,14.673 13.232,14.820 13.165 C 15.010 13.077,15.096 12.988,15.178 12.790 C 15.257 12.602,15.257 12.398,15.178 12.210 C 15.096 12.012,15.010 11.923,14.820 11.835 C 14.676 11.769,14.538 11.762,13.450 11.761 L 12.240 11.760 12.239 10.550 C 12.238 9.462,12.231 9.324,12.165 9.180 C 12.077 8.990,11.988 8.904,11.790 8.822 C 11.595 8.740,11.376 8.745,11.180 8.835 M7.815 21.278 C 7.331 21.393,7.098 22.004,7.383 22.408 C 7.447 22.499,7.572 22.610,7.660 22.656 C 7.819 22.739,7.851 22.740,11.879 22.751 C 14.744 22.759,16.001 22.749,16.153 22.717 C 16.902 22.562,16.930 21.473,16.189 21.286 C 15.979 21.234,8.034 21.226,7.815 21.278 " stroke="none" fill-rule="evenodd" fill="black"></path></svg>