<svg width="24" height="24" viewBox="0 0 24 24" fill="none" xmlns="http://www.w3.org/2000/svg"><path d="M6.318 5.281 C 5.232 5.364,4.400 5.744,3.854 6.407 C 3.608 6.704,3.457 6.985,3.318 7.400 C 3.114 8.009,3.080 8.376,3.081 10.000 C 3.082 11.331,3.088 11.474,3.155 11.620 C 3.243 11.810,3.332 11.896,3.530 11.978 C 3.883 12.126,4.294 11.987,4.474 11.660 C 4.531 11.556,4.543 11.321,4.564 9.940 C 4.585 8.509,4.596 8.310,4.667 8.057 C 4.930 7.126,5.535 6.761,6.820 6.761 C 7.605 6.761,8.165 6.916,8.526 7.233 C 8.704 7.390,8.889 7.738,8.985 8.100 C 9.056 8.363,9.060 8.595,9.060 12.000 C 9.060 15.405,9.056 15.637,8.985 15.900 C 8.729 16.862,8.120 17.239,6.820 17.239 C 5.291 17.239,4.672 16.703,4.580 15.300 C 4.544 14.761,4.527 14.691,4.392 14.537 C 4.224 14.345,4.060 14.269,3.820 14.269 C 3.513 14.269,3.225 14.460,3.123 14.733 C 3.063 14.891,3.070 15.391,3.140 15.852 C 3.407 17.628,4.472 18.576,6.360 18.718 C 7.372 18.795,8.323 18.629,8.980 18.262 C 9.635 17.895,10.068 17.360,10.322 16.600 C 10.523 16.001,10.560 15.616,10.560 14.110 L 10.560 12.760 12.000 12.760 L 13.440 12.760 13.440 14.110 C 13.440 15.616,13.477 16.001,13.678 16.600 C 14.115 17.904,15.110 18.597,16.720 18.718 C 17.732 18.795,18.683 18.629,19.340 18.262 C 20.185 17.789,20.689 16.991,20.860 15.852 C 20.948 15.273,20.948 8.727,20.860 8.148 C 20.593 6.372,19.528 5.424,17.640 5.282 C 15.666 5.133,14.261 5.837,13.734 7.240 C 13.485 7.905,13.470 8.031,13.451 9.710 L 13.433 11.240 11.997 11.240 L 10.560 11.240 10.560 9.890 C 10.560 8.384,10.523 7.999,10.322 7.400 C 9.956 6.308,9.210 5.658,8.000 5.377 C 7.780 5.326,6.866 5.231,6.740 5.247 C 6.718 5.249,6.528 5.265,6.318 5.281 M17.973 6.819 C 18.749 6.984,19.147 7.355,19.345 8.100 C 19.416 8.363,19.420 8.595,19.420 12.000 C 19.420 15.405,19.416 15.637,19.345 15.900 C 19.089 16.862,18.480 17.239,17.180 17.239 C 16.395 17.239,15.835 17.084,15.474 16.767 C 15.296 16.610,15.111 16.262,15.015 15.900 C 14.944 15.637,14.940 15.405,14.940 12.000 C 14.940 8.595,14.944 8.363,15.015 8.100 C 15.111 7.738,15.296 7.390,15.474 7.233 C 15.661 7.069,16.048 6.891,16.365 6.822 C 16.709 6.747,17.626 6.746,17.973 6.819 M1.180 8.835 C 0.990 8.923,0.904 9.012,0.822 9.210 C 0.768 9.338,0.760 9.712,0.761 12.009 C 0.762 14.496,0.766 14.670,0.835 14.820 C 0.923 15.010,1.012 15.096,1.210 15.178 C 1.398 15.257,1.602 15.257,1.790 15.178 C 1.988 15.096,2.077 15.010,2.165 14.820 C 2.234 14.670,2.238 14.496,2.238 12.000 C 2.238 9.504,2.234 9.330,2.165 9.180 C 2.077 8.990,1.988 8.904,1.790 8.822 C 1.595 8.740,1.376 8.745,1.180 8.835 M22.180 8.835 C 21.990 8.923,21.904 9.012,21.822 9.210 C 21.768 9.338,21.760 9.712,21.761 12.009 C 21.762 14.496,21.766 14.670,21.835 14.820 C 21.923 15.010,22.012 15.096,22.210 15.178 C 22.398 15.257,22.602 15.257,22.790 15.178 C 22.988 15.096,23.077 15.010,23.165 14.820 C 23.234 14.670,23.238 14.496,23.238 12.000 C 23.238 9.504,23.234 9.330,23.165 9.180 C 23.077 8.990,22.988 8.904,22.790 8.822 C 22.595 8.740,22.376 8.745,22.180 8.835 " stroke="none" fill-rule="evenodd" fill="black"></path></svg>