<svg width="24" height="24" viewBox="0 0 24 24" fill="none" xmlns="http://www.w3.org/2000/svg"><path d="M9.080 1.282 C 5.042 1.493,2.931 3.265,2.398 6.891 C 2.310 7.494,2.225 8.895,2.264 9.113 C 2.278 9.194,2.325 9.318,2.368 9.389 C 2.658 9.870,3.422 9.836,3.661 9.332 C 3.718 9.212,3.740 9.022,3.765 8.423 C 3.900 5.187,4.905 3.654,7.288 3.044 C 8.309 2.783,8.361 2.780,12.000 2.780 C 14.975 2.780,15.345 2.787,15.760 2.852 C 18.558 3.288,19.712 4.442,20.148 7.240 C 20.214 7.661,20.220 8.064,20.220 12.000 C 20.220 15.936,20.214 16.339,20.148 16.760 C 19.712 19.558,18.558 20.712,15.760 21.148 C 15.345 21.213,14.975 21.220,12.000 21.220 C 8.366 21.220,8.353 21.219,7.312 20.960 C 5.489 20.506,4.509 19.532,4.044 17.712 C 3.820 16.833,3.790 16.496,3.764 14.560 C 3.737 12.615,3.744 12.670,3.494 12.433 C 3.217 12.171,2.783 12.171,2.506 12.433 C 2.266 12.660,2.261 12.686,2.247 13.840 C 2.224 15.669,2.334 17.076,2.575 18.027 C 3.267 20.757,4.971 22.193,8.027 22.622 C 8.731 22.721,9.846 22.759,12.000 22.759 C 15.375 22.759,16.369 22.668,17.644 22.242 C 19.966 21.466,21.225 19.797,21.622 16.973 C 21.728 16.214,21.759 15.098,21.759 12.000 C 21.759 8.902,21.728 7.786,21.622 7.027 C 21.359 5.157,20.686 3.741,19.641 2.857 C 18.477 1.874,17.011 1.396,14.806 1.280 C 13.955 1.235,9.952 1.237,9.080 1.282 M10.907 5.624 C 9.622 5.789,8.307 6.271,7.280 6.954 C 6.724 7.324,6.226 7.729,6.123 7.895 C 5.996 8.101,5.975 8.353,6.070 8.564 C 6.176 8.803,8.263 12.151,8.395 12.295 C 8.532 12.445,8.714 12.520,8.941 12.520 C 9.156 12.520,9.302 12.452,9.595 12.212 C 10.292 11.645,11.054 11.382,12.000 11.382 C 12.946 11.382,13.708 11.645,14.405 12.212 C 14.697 12.451,14.844 12.520,15.055 12.520 C 15.360 12.520,15.607 12.373,15.744 12.112 C 15.820 11.966,15.815 11.623,15.734 11.453 C 15.621 11.215,14.843 10.644,14.287 10.391 C 12.739 9.686,11.036 9.718,9.539 10.480 C 9.322 10.591,9.130 10.666,9.112 10.648 C 9.046 10.582,7.760 8.502,7.760 8.462 C 7.760 8.396,8.377 8.014,8.860 7.780 C 11.397 6.550,14.350 6.891,16.532 8.667 C 17.009 9.056,17.211 9.115,17.542 8.965 C 17.960 8.775,18.114 8.279,17.875 7.892 C 17.690 7.593,16.602 6.825,15.820 6.441 C 14.330 5.712,12.544 5.415,10.907 5.624 " stroke="none" fill-rule="evenodd" fill="black"></path></svg>