<svg width="24" height="24" viewBox="0 0 24 24" fill="none" xmlns="http://www.w3.org/2000/svg"><path d="M10.440 4.182 C 9.503 4.278,8.272 4.503,8.015 4.625 C 7.574 4.834,7.484 5.444,7.841 5.801 C 8.072 6.032,8.262 6.058,8.850 5.938 C 11.540 5.390,13.917 5.504,16.520 6.306 C 18.187 6.819,19.610 7.562,21.468 8.888 C 21.738 9.081,21.770 9.093,21.999 9.093 C 22.204 9.093,22.269 9.075,22.408 8.977 C 22.715 8.759,22.819 8.361,22.658 8.020 C 22.548 7.790,21.484 7.025,20.359 6.369 C 19.854 6.074,18.687 5.507,18.160 5.300 C 16.630 4.698,14.974 4.309,13.320 4.161 C 12.704 4.106,11.060 4.118,10.440 4.182 M4.773 5.798 C 4.530 5.856,3.341 6.517,2.660 6.972 C 2.030 7.394,1.438 7.854,1.357 7.985 C 1.164 8.297,1.272 8.750,1.592 8.977 C 1.731 9.074,1.796 9.093,1.999 9.093 C 2.223 9.093,2.261 9.079,2.511 8.904 C 2.659 8.800,2.960 8.589,3.180 8.434 C 3.724 8.053,4.202 7.759,4.820 7.427 C 5.417 7.107,5.503 7.040,5.604 6.820 C 5.857 6.272,5.359 5.659,4.773 5.798 M11.380 8.627 C 10.264 8.683,9.020 8.938,7.896 9.340 C 6.865 9.708,5.338 10.550,4.526 11.197 C 4.110 11.529,4.046 12.005,4.372 12.353 C 4.646 12.647,5.040 12.657,5.427 12.380 C 6.817 11.384,7.875 10.856,9.236 10.480 C 10.218 10.208,10.988 10.111,12.080 10.123 C 13.191 10.134,13.220 10.133,13.353 10.063 C 13.583 9.945,13.759 9.644,13.760 9.369 C 13.760 9.147,13.566 8.848,13.348 8.734 C 13.150 8.631,12.262 8.583,11.380 8.627 M15.980 9.547 C 15.795 9.645,15.715 9.726,15.635 9.900 C 15.534 10.121,15.542 10.308,15.664 10.553 L 15.768 10.762 16.454 11.097 C 17.221 11.472,17.806 11.816,18.341 12.207 C 18.804 12.545,18.836 12.560,19.079 12.560 C 19.587 12.560,19.950 12.084,19.800 11.614 C 19.736 11.417,19.649 11.322,19.280 11.048 C 18.574 10.523,17.664 9.992,16.906 9.662 C 16.448 9.462,16.198 9.431,15.980 9.547 M11.080 12.965 C 10.078 13.065,8.883 13.416,7.963 13.879 C 7.223 14.250,6.300 14.874,6.165 15.093 C 5.904 15.514,6.126 16.077,6.602 16.204 C 6.872 16.276,7.034 16.225,7.426 15.948 C 8.769 14.998,9.937 14.558,11.445 14.435 C 12.392 14.358,13.411 14.483,14.340 14.790 C 14.889 14.972,15.831 15.442,16.280 15.759 C 16.882 16.183,16.956 16.220,17.201 16.219 C 17.473 16.217,17.654 16.121,17.815 15.891 C 17.967 15.674,17.977 15.372,17.839 15.127 C 17.739 14.950,17.313 14.626,16.647 14.223 C 14.992 13.223,12.999 12.772,11.080 12.965 M11.600 17.508 C 10.745 17.575,9.775 17.942,9.096 18.454 C 8.765 18.704,8.669 18.855,8.667 19.133 C 8.663 19.571,8.969 19.880,9.407 19.880 C 9.609 19.880,9.658 19.859,10.039 19.615 C 10.748 19.159,11.256 19.000,11.996 19.000 C 12.771 19.001,13.329 19.180,14.035 19.655 C 14.340 19.859,14.390 19.880,14.587 19.880 C 15.258 19.880,15.601 19.129,15.148 18.650 C 14.824 18.309,13.894 17.820,13.265 17.660 C 12.880 17.563,12.196 17.474,11.926 17.487 C 11.846 17.491,11.699 17.500,11.600 17.508 " stroke="none" fill-rule="evenodd" fill="black"></path></svg>