<svg width="24" height="24" viewBox="0 0 24 24" fill="none" xmlns="http://www.w3.org/2000/svg"><path d="M8.080 1.282 C 4.042 1.493,1.931 3.265,1.398 6.891 C 1.310 7.494,1.225 8.895,1.264 9.113 C 1.278 9.194,1.325 9.318,1.368 9.389 C 1.658 9.870,2.422 9.836,2.661 9.332 C 2.718 9.212,2.740 9.022,2.765 8.423 C 2.900 5.187,3.905 3.654,6.288 3.044 C 7.337 2.776,7.247 2.780,12.000 2.780 C 15.936 2.780,16.339 2.786,16.760 2.852 C 19.558 3.288,20.712 4.442,21.148 7.240 C 21.214 7.661,21.220 8.064,21.220 12.000 C 21.220 15.936,21.214 16.339,21.148 16.760 C 20.712 19.558,19.558 20.712,16.760 21.148 C 16.339 21.214,15.936 21.220,12.000 21.220 C 8.064 21.220,7.661 21.214,7.240 21.148 C 4.756 20.761,3.576 19.795,3.044 17.712 C 2.821 16.838,2.790 16.492,2.764 14.600 L 2.740 12.860 2.640 12.686 C 2.359 12.194,1.641 12.194,1.360 12.686 C 1.262 12.857,1.260 12.878,1.247 13.880 C 1.223 15.664,1.336 17.082,1.575 18.027 C 2.267 20.757,3.971 22.193,7.027 22.622 C 7.786 22.728,8.902 22.759,12.000 22.759 C 15.098 22.759,16.214 22.728,16.973 22.622 C 19.443 22.275,20.996 21.288,21.897 19.490 C 22.379 18.530,22.638 17.369,22.720 15.807 C 22.771 14.838,22.771 9.162,22.720 8.193 C 22.657 6.998,22.521 6.191,22.242 5.356 C 21.632 3.531,20.469 2.367,18.650 1.760 C 17.788 1.473,17.023 1.344,15.806 1.280 C 14.952 1.235,8.952 1.237,8.080 1.282 M10.700 7.199 C 8.895 7.448,7.327 8.077,5.853 9.146 C 5.380 9.489,5.270 9.636,5.266 9.935 C 5.262 10.201,5.375 10.423,5.592 10.577 C 5.731 10.675,5.796 10.693,6.000 10.693 C 6.222 10.693,6.265 10.678,6.491 10.520 C 7.230 10.004,7.556 9.805,8.100 9.537 C 9.101 9.045,10.134 8.750,11.234 8.641 C 12.771 8.489,14.408 8.804,15.900 9.537 C 16.444 9.805,16.770 10.004,17.509 10.520 C 17.735 10.678,17.778 10.693,18.000 10.693 C 18.204 10.693,18.269 10.675,18.408 10.577 C 18.625 10.423,18.738 10.201,18.734 9.935 C 18.730 9.636,18.620 9.489,18.147 9.146 C 16.645 8.057,14.987 7.404,13.161 7.181 C 12.490 7.099,11.368 7.107,10.700 7.199 M11.200 10.805 C 10.328 10.892,9.480 11.137,8.647 11.540 C 8.093 11.809,7.280 12.322,7.058 12.545 C 6.695 12.908,6.847 13.554,7.342 13.743 C 7.664 13.866,7.812 13.814,8.500 13.336 C 9.629 12.551,11.114 12.161,12.509 12.281 C 13.668 12.380,14.584 12.715,15.647 13.427 C 16.219 13.810,16.364 13.855,16.658 13.743 C 17.102 13.573,17.283 13.053,17.037 12.655 C 16.898 12.430,15.937 11.792,15.271 11.481 C 14.040 10.908,12.582 10.666,11.200 10.805 M11.120 14.718 C 10.378 14.876,9.466 15.351,9.191 15.723 C 8.992 15.992,9.023 16.372,9.265 16.640 C 9.540 16.944,9.924 16.961,10.317 16.685 C 11.391 15.932,12.578 15.932,13.685 16.684 C 14.092 16.960,14.460 16.945,14.735 16.640 C 14.970 16.381,15.010 16.049,14.841 15.771 C 14.605 15.384,13.665 14.883,12.860 14.716 C 12.384 14.617,11.591 14.618,11.120 14.718 " stroke="none" fill-rule="evenodd" fill="black"></path></svg>