<svg width="24" height="24" viewBox="0 0 24 24" fill="none" xmlns="http://www.w3.org/2000/svg"><path d="M8.722 2.926 C 7.531 3.123,6.471 4.023,6.077 5.171 C 5.931 5.596,5.881 5.921,5.880 6.437 C 5.880 6.938,5.952 7.128,6.208 7.306 C 6.346 7.401,6.414 7.420,6.620 7.420 C 6.824 7.420,6.894 7.401,7.024 7.311 C 7.288 7.128,7.333 7.010,7.365 6.420 C 7.403 5.691,7.537 5.349,7.943 4.943 C 8.289 4.598,8.685 4.415,9.174 4.375 C 9.702 4.332,10.206 4.509,10.611 4.878 C 11.039 5.270,11.240 5.722,11.240 6.295 C 11.240 7.137,10.762 7.828,9.959 8.149 C 9.793 8.215,9.496 8.221,5.780 8.240 L 1.780 8.260 1.627 8.355 C 1.385 8.506,1.267 8.718,1.267 9.003 C 1.267 9.203,1.286 9.270,1.383 9.408 C 1.448 9.499,1.572 9.610,1.660 9.656 C 1.818 9.739,1.858 9.740,5.480 9.752 C 9.320 9.765,9.808 9.749,10.307 9.595 C 11.629 9.187,12.578 8.030,12.716 6.660 C 12.878 5.054,11.945 3.597,10.412 3.062 C 9.913 2.887,9.267 2.835,8.722 2.926 M18.062 4.284 C 16.338 4.454,14.876 5.704,14.397 7.419 C 14.283 7.825,14.213 8.832,14.277 9.134 C 14.421 9.808,15.282 9.959,15.644 9.373 C 15.723 9.246,15.737 9.150,15.764 8.584 C 15.797 7.895,15.816 7.782,15.961 7.440 C 16.097 7.119,16.285 6.848,16.566 6.566 C 17.128 6.005,17.725 5.758,18.515 5.761 C 18.979 5.763,19.303 5.839,19.716 6.042 C 20.002 6.183,20.124 6.275,20.440 6.595 C 20.832 6.991,20.980 7.228,21.147 7.722 C 21.251 8.033,21.251 8.966,21.147 9.280 C 20.907 10.000,20.359 10.653,19.741 10.953 C 19.143 11.244,19.673 11.218,13.980 11.240 L 8.860 11.260 8.680 11.366 C 8.192 11.653,8.196 12.360,8.686 12.640 L 8.860 12.740 13.580 12.752 C 18.484 12.765,19.048 12.751,19.584 12.601 C 21.033 12.198,22.164 11.091,22.575 9.674 C 22.997 8.218,22.599 6.648,21.528 5.545 C 20.621 4.612,19.369 4.156,18.062 4.284 M1.815 11.277 C 1.330 11.397,1.098 12.004,1.383 12.408 C 1.448 12.499,1.572 12.610,1.660 12.656 C 1.815 12.737,1.874 12.740,3.460 12.740 C 4.362 12.740,5.149 12.726,5.209 12.709 C 5.361 12.667,5.601 12.447,5.666 12.292 C 5.777 12.027,5.721 11.711,5.527 11.506 C 5.289 11.255,5.334 11.261,3.560 11.253 C 2.669 11.249,1.884 11.260,1.815 11.277 M1.815 14.278 C 1.331 14.393,1.098 15.004,1.383 15.408 C 1.448 15.499,1.572 15.610,1.660 15.656 L 1.820 15.740 10.460 15.760 C 18.753 15.779,19.108 15.783,19.300 15.854 C 20.233 16.201,20.843 16.818,21.146 17.720 C 21.204 17.892,21.220 18.062,21.220 18.500 C 21.220 18.938,21.204 19.108,21.146 19.280 C 20.840 20.191,20.191 20.840,19.280 21.146 C 18.966 21.252,18.034 21.252,17.720 21.146 C 16.817 20.843,16.168 20.199,15.860 19.300 C 15.814 19.165,15.782 18.892,15.762 18.460 C 15.730 17.749,15.683 17.587,15.464 17.421 C 15.101 17.146,14.597 17.236,14.362 17.617 C 14.246 17.804,14.220 18.160,14.276 18.794 C 14.374 19.898,14.762 20.751,15.506 21.494 C 16.414 22.402,17.618 22.833,18.915 22.713 C 19.901 22.622,20.783 22.205,21.494 21.494 C 22.402 20.586,22.833 19.382,22.713 18.085 C 22.622 17.099,22.205 16.217,21.494 15.506 C 20.773 14.784,19.906 14.379,18.875 14.283 C 18.349 14.234,2.020 14.229,1.815 14.278 " stroke="none" fill-rule="evenodd" fill="black"></path></svg>