<svg width="24" height="24" viewBox="0 0 24 24" fill="none" xmlns="http://www.w3.org/2000/svg"><path d="M1.699 3.216 C 1.633 3.245,1.521 3.334,1.451 3.414 C 1.174 3.729,1.197 4.160,1.506 4.445 C 1.629 4.557,4.144 6.071,4.540 6.270 C 4.889 6.446,5.426 6.627,5.892 6.727 C 6.223 6.797,6.432 6.814,7.000 6.814 C 8.106 6.814,8.722 6.651,9.860 6.058 C 10.836 5.550,11.529 5.393,12.401 5.482 C 13.001 5.544,13.416 5.681,14.140 6.058 C 15.278 6.651,15.894 6.814,17.000 6.814 C 17.568 6.814,17.777 6.797,18.108 6.727 C 18.574 6.627,19.111 6.446,19.460 6.270 C 19.856 6.071,22.371 4.557,22.494 4.445 C 22.803 4.160,22.826 3.729,22.549 3.414 C 22.340 3.175,22.001 3.091,21.732 3.209 C 21.670 3.237,21.053 3.599,20.360 4.015 C 18.587 5.080,18.242 5.231,17.391 5.319 C 16.532 5.408,15.832 5.248,14.860 4.742 C 13.722 4.149,13.106 3.986,12.000 3.986 C 10.889 3.986,10.312 4.140,9.107 4.755 C 8.352 5.142,8.007 5.255,7.391 5.319 C 6.663 5.394,5.851 5.248,5.209 4.924 C 5.039 4.839,4.333 4.429,3.640 4.014 C 2.947 3.599,2.330 3.237,2.268 3.209 C 2.124 3.146,1.853 3.149,1.699 3.216 M16.344 10.200 C 15.579 10.296,15.042 10.478,14.107 10.955 C 13.352 11.342,13.007 11.455,12.391 11.519 C 11.632 11.598,10.858 11.449,10.129 11.086 C 9.679 10.861,9.529 10.824,9.314 10.882 C 8.747 11.034,8.569 11.759,9.005 12.141 C 9.327 12.424,10.157 12.769,10.892 12.927 C 11.223 12.997,11.432 13.014,12.000 13.014 C 13.106 13.014,13.722 12.851,14.860 12.258 C 15.245 12.058,15.639 11.885,15.849 11.824 C 16.822 11.543,17.919 11.637,18.791 12.076 C 18.961 12.161,19.667 12.571,20.360 12.986 C 21.053 13.401,21.670 13.763,21.732 13.791 C 22.001 13.909,22.340 13.825,22.549 13.586 C 22.826 13.271,22.803 12.840,22.494 12.555 C 22.371 12.443,19.856 10.929,19.460 10.730 C 19.104 10.551,18.567 10.371,18.109 10.278 C 17.648 10.184,16.775 10.145,16.344 10.200 M5.360 10.414 C 5.129 10.486,4.805 10.608,4.640 10.685 C 4.259 10.864,1.658 12.416,1.506 12.555 C 1.197 12.840,1.174 13.271,1.451 13.586 C 1.674 13.840,2.015 13.912,2.312 13.768 C 2.393 13.729,3.063 13.336,3.800 12.896 C 5.230 12.042,5.440 11.934,5.940 11.798 C 6.337 11.690,6.453 11.624,6.591 11.424 C 6.681 11.294,6.700 11.224,6.700 11.020 C 6.700 10.709,6.570 10.491,6.310 10.365 C 6.070 10.249,5.856 10.260,5.360 10.414 M6.344 17.200 C 5.731 17.277,5.031 17.483,4.540 17.730 C 4.144 17.929,1.629 19.443,1.506 19.555 C 1.197 19.840,1.174 20.271,1.451 20.586 C 1.660 20.825,1.999 20.909,2.268 20.791 C 2.330 20.763,2.947 20.401,3.640 19.985 C 4.333 19.569,5.038 19.160,5.206 19.076 C 6.079 18.637,7.179 18.543,8.151 18.824 C 8.361 18.885,8.755 19.058,9.140 19.258 C 10.278 19.851,10.894 20.014,12.000 20.014 C 13.106 20.014,13.722 19.851,14.860 19.258 C 15.245 19.058,15.639 18.885,15.849 18.824 C 16.822 18.543,17.919 18.637,18.791 19.076 C 18.961 19.161,19.667 19.571,20.360 19.986 C 21.053 20.401,21.670 20.763,21.732 20.791 C 22.001 20.909,22.340 20.825,22.549 20.586 C 22.826 20.271,22.803 19.840,22.494 19.555 C 22.371 19.443,19.856 17.929,19.460 17.730 C 19.111 17.554,18.574 17.373,18.108 17.273 C 17.777 17.203,17.568 17.186,17.000 17.186 C 15.889 17.186,15.312 17.340,14.107 17.955 C 13.352 18.342,13.007 18.455,12.391 18.519 C 11.532 18.608,10.832 18.448,9.860 17.942 C 9.134 17.564,8.695 17.397,8.109 17.278 C 7.648 17.184,6.775 17.145,6.344 17.200 " stroke="none" fill-rule="evenodd" fill="black"></path></svg>