<svg width="24" height="24" viewBox="0 0 24 24" fill="none" xmlns="http://www.w3.org/2000/svg"><path d="M11.387 1.281 C 10.145 1.374,8.832 1.820,7.786 2.505 C 7.106 2.951,6.452 3.533,6.362 3.773 C 6.256 4.057,6.357 4.458,6.581 4.634 C 6.935 4.912,7.397 4.816,7.800 4.379 C 8.048 4.110,8.701 3.668,9.272 3.383 C 10.729 2.655,12.523 2.556,14.100 3.117 C 16.271 3.890,17.829 5.792,18.183 8.100 C 18.254 8.562,18.254 9.438,18.183 9.900 C 17.976 11.254,17.399 12.409,16.449 13.374 C 15.928 13.903,15.448 14.255,14.804 14.578 C 13.273 15.347,11.513 15.456,9.900 14.883 C 8.148 14.259,6.741 12.854,6.119 11.104 C 5.905 10.501,5.762 9.781,5.761 9.292 C 5.760 8.882,5.692 8.652,5.522 8.482 C 5.108 8.068,4.407 8.265,4.276 8.833 C 4.230 9.035,4.301 9.980,4.403 10.505 C 4.625 11.656,5.212 12.923,5.946 13.837 C 6.205 14.159,6.775 14.733,7.100 15.000 C 8.077 15.799,9.371 16.398,10.572 16.604 C 10.840 16.651,11.101 16.696,11.150 16.705 C 11.240 16.721,11.240 16.725,11.240 17.478 L 11.240 18.235 10.007 18.247 L 8.774 18.260 8.612 18.367 C 8.372 18.526,8.267 18.721,8.267 19.007 C 8.267 19.203,8.286 19.270,8.383 19.408 C 8.610 19.729,8.656 19.738,10.027 19.753 L 11.235 19.765 11.247 20.993 C 11.260 22.196,11.262 22.223,11.353 22.369 C 11.710 22.943,12.576 22.812,12.716 22.162 C 12.742 22.040,12.760 21.509,12.760 20.858 L 12.760 19.760 13.858 19.760 C 15.144 19.760,15.303 19.737,15.520 19.520 C 15.918 19.122,15.730 18.423,15.189 18.286 C 15.071 18.257,14.600 18.240,13.882 18.240 L 12.760 18.240 12.760 17.484 C 12.760 16.662,12.755 16.680,12.993 16.680 C 13.052 16.680,13.311 16.636,13.568 16.582 C 15.570 16.166,17.308 14.991,18.459 13.277 C 18.584 13.092,18.801 12.706,18.942 12.420 C 20.663 8.929,19.524 4.708,16.277 2.542 C 14.869 1.603,13.122 1.153,11.387 1.281 " stroke="none" fill-rule="evenodd" fill="black"></path></svg>