<svg width="24" height="24" viewBox="0 0 24 24" fill="none" xmlns="http://www.w3.org/2000/svg"><path d="M5.353 1.321 C 4.112 1.533,3.026 2.399,2.547 3.560 C 2.246 4.290,2.266 3.848,2.250 10.140 C 2.236 15.847,2.246 16.319,2.383 16.852 C 2.545 17.485,3.056 18.291,3.555 18.702 C 4.351 19.356,5.084 19.598,6.280 19.600 C 7.007 19.602,7.349 19.654,7.711 19.820 C 8.025 19.964,8.174 20.093,9.280 21.182 C 10.234 22.121,10.440 22.298,10.787 22.474 C 11.481 22.826,12.612 22.808,13.277 22.434 C 13.633 22.235,13.761 22.121,14.860 21.041 C 15.739 20.176,15.943 19.995,16.180 19.873 C 16.334 19.793,16.532 19.706,16.620 19.680 C 16.708 19.653,17.194 19.618,17.700 19.601 C 18.779 19.564,19.037 19.512,19.660 19.203 C 20.702 18.686,21.425 17.760,21.669 16.628 C 21.735 16.323,21.740 15.895,21.740 10.440 C 21.740 4.911,21.736 4.561,21.667 4.240 C 21.370 2.864,20.396 1.824,18.997 1.393 L 18.700 1.301 12.120 1.295 C 8.501 1.291,5.456 1.303,5.353 1.321 M18.775 2.887 C 19.473 3.158,20.000 3.736,20.180 4.428 C 20.272 4.778,20.270 16.108,20.179 16.458 C 19.996 17.160,19.411 17.762,18.660 18.021 C 18.506 18.074,18.242 18.097,17.520 18.121 C 16.746 18.147,16.528 18.168,16.285 18.238 C 15.396 18.495,15.086 18.713,13.766 20.015 C 12.791 20.976,12.678 21.075,12.460 21.157 C 12.147 21.275,11.711 21.260,11.440 21.121 C 11.327 21.063,10.882 20.656,10.240 20.023 C 9.154 18.953,8.892 18.738,8.357 18.482 C 7.790 18.211,7.507 18.157,6.460 18.119 C 5.954 18.101,5.468 18.065,5.380 18.039 C 4.655 17.826,4.006 17.168,3.821 16.458 C 3.730 16.108,3.728 4.778,3.820 4.428 C 4.030 3.620,4.721 2.967,5.540 2.801 C 5.628 2.783,8.580 2.771,12.100 2.774 L 18.500 2.780 18.775 2.887 M8.160 6.780 C 7.705 6.882,7.339 7.093,6.980 7.456 C 6.488 7.954,6.280 8.430,6.267 9.086 C 6.262 9.369,6.271 9.409,6.381 9.564 C 6.597 9.870,7.001 9.978,7.336 9.819 C 7.568 9.709,7.677 9.532,7.742 9.162 C 7.807 8.789,7.862 8.668,8.047 8.494 C 8.248 8.305,8.424 8.232,8.684 8.229 C 9.242 8.224,9.698 8.733,9.624 9.277 C 9.565 9.703,9.296 9.989,8.296 10.688 C 7.261 11.410,6.874 11.806,6.550 12.476 C 6.407 12.770,6.382 12.862,6.368 13.145 C 6.353 13.431,6.363 13.499,6.452 13.693 C 6.587 13.989,6.840 14.254,7.114 14.389 L 7.340 14.500 8.983 14.500 L 10.627 14.500 10.792 14.386 C 11.186 14.112,11.226 13.540,10.874 13.213 C 10.699 13.050,10.603 13.040,9.257 13.040 C 8.504 13.040,7.960 13.025,7.960 13.004 C 7.960 12.984,8.031 12.877,8.118 12.767 C 8.281 12.561,8.690 12.227,9.280 11.819 C 10.185 11.194,10.595 10.791,10.858 10.270 C 11.233 9.527,11.195 8.558,10.764 7.891 C 10.437 7.385,10.010 7.039,9.488 6.857 C 9.117 6.728,8.537 6.694,8.160 6.780 M15.053 6.792 C 14.766 6.894,14.542 7.051,14.396 7.251 C 14.214 7.501,12.204 10.864,12.084 11.120 C 11.996 11.306,11.980 11.396,11.980 11.700 C 11.980 12.012,11.995 12.090,12.091 12.286 C 12.226 12.561,12.490 12.811,12.793 12.953 C 13.019 13.059,13.024 13.060,14.145 13.074 L 15.270 13.087 15.287 13.536 C 15.302 13.914,15.319 14.009,15.395 14.132 C 15.748 14.704,16.617 14.570,16.756 13.922 C 16.780 13.809,16.800 13.577,16.800 13.406 L 16.800 13.096 17.062 13.051 C 17.497 12.977,17.729 12.722,17.729 12.320 C 17.729 11.914,17.459 11.624,17.036 11.576 L 16.800 11.550 16.800 9.825 C 16.800 8.825,16.782 7.991,16.758 7.840 C 16.709 7.533,16.528 7.206,16.313 7.035 C 15.954 6.750,15.446 6.651,15.053 6.792 M15.280 10.120 L 15.280 11.560 14.420 11.560 C 13.947 11.560,13.560 11.551,13.560 11.540 C 13.560 11.498,15.245 8.680,15.270 8.680 C 15.275 8.680,15.280 9.328,15.280 10.120 " stroke="none" fill-rule="evenodd" fill="black"></path></svg>