<svg width="24" height="24" viewBox="0 0 24 24" fill="none" xmlns="http://www.w3.org/2000/svg"><path d="M6.458 1.283 C 5.617 1.344,4.882 1.542,4.186 1.896 C 3.639 2.174,3.292 2.425,2.859 2.859 C 2.425 3.292,2.174 3.639,1.896 4.186 C 1.373 5.216,1.219 6.178,1.247 8.240 C 1.260 9.184,1.263 9.226,1.353 9.369 C 1.664 9.870,2.408 9.849,2.664 9.332 C 2.733 9.194,2.742 9.042,2.763 7.680 C 2.781 6.514,2.801 6.118,2.851 5.899 C 3.225 4.261,4.351 3.159,5.980 2.836 C 6.395 2.753,17.605 2.753,18.020 2.836 C 19.649 3.159,20.774 4.261,21.149 5.899 C 21.199 6.118,21.219 6.514,21.237 7.700 C 21.260 9.201,21.261 9.222,21.353 9.369 C 21.710 9.943,22.576 9.812,22.716 9.162 C 22.741 9.045,22.760 8.556,22.760 8.028 C 22.759 6.042,22.613 5.188,22.104 4.186 C 21.826 3.639,21.575 3.292,21.141 2.859 C 20.175 1.893,19.007 1.393,17.455 1.281 C 16.797 1.233,7.119 1.236,6.458 1.283 M11.580 5.281 C 11.212 5.319,10.837 5.425,10.540 5.572 C 10.153 5.764,7.157 7.439,6.960 7.573 C 6.332 8.001,5.741 8.913,5.554 9.740 C 5.476 10.086,5.476 13.961,5.554 14.280 C 5.774 15.180,6.353 16.050,7.015 16.474 C 7.408 16.726,10.410 18.386,10.666 18.494 C 10.991 18.630,11.160 18.671,11.609 18.721 C 12.110 18.777,12.699 18.717,13.143 18.565 C 13.472 18.452,16.313 16.906,16.940 16.499 C 17.455 16.164,17.827 15.740,18.132 15.140 C 18.506 14.405,18.529 14.200,18.509 11.799 C 18.491 9.637,18.491 9.631,18.205 9.020 C 17.888 8.346,17.435 7.805,16.920 7.490 C 16.567 7.274,13.849 5.764,13.500 5.590 C 13.135 5.408,12.853 5.329,12.394 5.281 C 11.985 5.238,11.985 5.238,11.580 5.281 M12.512 6.804 C 12.710 6.851,16.035 8.665,16.244 8.840 L 16.363 8.940 14.204 10.190 C 13.017 10.877,12.025 11.440,12.000 11.440 C 11.975 11.440,10.983 10.877,9.795 10.190 L 7.636 8.940 7.733 8.856 C 7.900 8.712,11.249 6.870,11.439 6.817 C 11.669 6.754,12.267 6.747,12.512 6.804 M16.997 13.896 C 16.935 14.269,16.693 14.731,16.415 15.009 C 16.233 15.191,15.917 15.382,14.489 16.175 L 12.780 17.123 12.770 14.954 C 12.763 13.626,12.774 12.770,12.797 12.747 C 12.818 12.726,13.777 12.163,14.928 11.496 L 17.020 10.282 17.031 11.951 C 17.039 13.068,17.027 13.711,16.997 13.896 M9.089 11.505 C 10.217 12.157,11.163 12.711,11.190 12.737 C 11.230 12.774,11.238 13.250,11.230 14.952 L 11.220 17.120 9.520 16.178 C 7.957 15.313,7.800 15.216,7.573 14.981 C 7.410 14.813,7.273 14.618,7.173 14.412 L 7.020 14.100 7.009 12.210 C 7.002 11.171,7.006 10.320,7.018 10.320 C 7.030 10.320,7.962 10.853,9.089 11.505 M1.815 14.278 C 1.639 14.320,1.462 14.455,1.353 14.631 C 1.263 14.774,1.260 14.816,1.247 15.760 C 1.219 17.822,1.373 18.784,1.896 19.814 C 2.174 20.361,2.425 20.708,2.859 21.141 C 3.825 22.107,4.993 22.607,6.545 22.719 C 7.282 22.772,16.718 22.772,17.455 22.719 C 18.406 22.651,19.088 22.473,19.814 22.104 C 20.361 21.826,20.708 21.575,21.141 21.141 C 22.107 20.175,22.607 19.007,22.719 17.455 C 22.773 16.707,22.771 15.096,22.716 14.838 C 22.575 14.182,21.713 14.051,21.353 14.631 C 21.261 14.778,21.260 14.799,21.237 16.300 C 21.219 17.486,21.199 17.882,21.149 18.101 C 20.823 19.525,19.943 20.539,18.640 20.991 C 17.950 21.230,18.248 21.220,12.000 21.220 C 5.752 21.220,6.050 21.230,5.360 20.991 C 4.249 20.605,3.412 19.779,3.021 18.681 C 2.804 18.069,2.788 17.927,2.763 16.320 C 2.742 14.958,2.733 14.806,2.664 14.668 C 2.573 14.484,2.395 14.343,2.180 14.284 C 2.003 14.236,1.993 14.236,1.815 14.278 " stroke="none" fill-rule="evenodd" fill="black"></path></svg>