<svg width="24" height="24" viewBox="0 0 24 24" fill="none" xmlns="http://www.w3.org/2000/svg"><path d="M8.393 1.282 C 6.328 1.431,4.327 2.476,3.001 4.099 C 2.224 5.050,1.632 6.308,1.403 7.495 C 1.303 8.014,1.230 8.965,1.275 9.162 C 1.450 9.921,2.553 9.921,2.716 9.162 C 2.740 9.049,2.760 8.844,2.761 8.708 C 2.762 8.219,2.905 7.499,3.119 6.896 C 3.439 5.996,3.925 5.241,4.626 4.552 C 5.170 4.017,5.580 3.724,6.240 3.399 C 6.731 3.158,7.592 2.862,7.554 2.948 C 7.546 2.966,7.472 3.100,7.388 3.248 C 7.304 3.395,7.226 3.576,7.214 3.649 C 7.187 3.818,7.255 4.078,7.364 4.216 C 7.626 4.549,8.200 4.569,8.484 4.255 C 8.639 4.084,9.669 2.345,9.716 2.175 C 9.845 1.707,9.419 1.214,8.912 1.246 C 8.862 1.249,8.628 1.265,8.393 1.282 M11.580 5.279 C 11.208 5.320,10.834 5.426,10.540 5.572 C 10.153 5.764,7.157 7.439,6.960 7.573 C 6.332 8.001,5.741 8.913,5.554 9.740 C 5.476 10.086,5.476 13.961,5.554 14.280 C 5.774 15.180,6.353 16.051,7.015 16.474 C 7.410 16.726,10.412 18.387,10.667 18.494 C 11.178 18.709,11.785 18.787,12.409 18.720 C 13.057 18.650,13.315 18.538,15.043 17.581 C 16.809 16.602,17.174 16.377,17.454 16.095 C 17.990 15.556,18.387 14.765,18.484 14.047 C 18.510 13.854,18.520 13.001,18.510 11.779 C 18.496 9.906,18.491 9.807,18.408 9.532 C 18.158 8.706,17.651 7.977,17.036 7.558 C 16.709 7.335,13.584 5.604,13.302 5.489 C 12.843 5.303,12.133 5.216,11.580 5.279 M12.583 6.819 C 12.812 6.887,16.137 8.720,16.269 8.852 L 16.358 8.940 14.202 10.190 C 13.016 10.877,12.025 11.440,12.000 11.440 C 11.975 11.440,10.983 10.877,9.795 10.190 L 7.636 8.940 7.733 8.856 C 7.900 8.712,11.249 6.870,11.439 6.817 C 11.695 6.747,12.343 6.747,12.583 6.819 M16.997 13.896 C 16.935 14.269,16.693 14.731,16.415 15.009 C 16.233 15.191,15.917 15.382,14.489 16.175 L 12.780 17.123 12.770 14.954 C 12.763 13.626,12.774 12.770,12.797 12.747 C 12.818 12.726,13.777 12.163,14.928 11.496 L 17.020 10.282 17.031 11.951 C 17.039 13.068,17.027 13.711,16.997 13.896 M9.089 11.505 C 10.217 12.157,11.163 12.711,11.190 12.737 C 11.230 12.774,11.238 13.250,11.230 14.952 L 11.220 17.120 9.520 16.178 C 7.957 15.313,7.800 15.216,7.573 14.981 C 7.410 14.813,7.273 14.618,7.173 14.412 L 7.020 14.100 7.009 12.210 C 7.002 11.171,7.006 10.320,7.018 10.320 C 7.030 10.320,7.962 10.853,9.089 11.505 M21.815 14.277 C 21.641 14.320,21.462 14.456,21.359 14.622 C 21.288 14.737,21.266 14.858,21.237 15.291 C 21.187 16.062,21.106 16.471,20.880 17.107 C 20.567 17.988,20.063 18.771,19.374 19.449 C 18.843 19.971,18.438 20.260,17.769 20.594 C 17.278 20.839,16.407 21.140,16.446 21.052 C 16.454 21.034,16.528 20.900,16.612 20.752 C 16.696 20.605,16.774 20.424,16.786 20.351 C 16.813 20.182,16.745 19.922,16.636 19.784 C 16.374 19.451,15.800 19.431,15.516 19.745 C 15.355 19.922,14.328 21.660,14.281 21.835 C 14.175 22.230,14.425 22.622,14.844 22.716 C 15.090 22.772,15.988 22.701,16.567 22.582 C 17.737 22.340,18.931 21.782,19.837 21.054 C 20.159 20.795,20.733 20.225,21.000 19.900 C 21.995 18.685,22.604 17.146,22.717 15.559 C 22.760 14.954,22.731 14.735,22.580 14.536 C 22.421 14.327,22.078 14.211,21.815 14.277 " stroke="none" fill-rule="evenodd" fill="black"></path></svg>