<svg width="24" height="24" viewBox="0 0 24 24" fill="none" xmlns="http://www.w3.org/2000/svg"><path d="M8.080 1.282 C 4.008 1.495,1.895 3.296,1.383 6.991 C 1.270 7.803,1.242 8.816,1.242 12.000 C 1.242 16.504,1.302 17.273,1.760 18.650 C 2.532 20.963,4.206 22.226,7.027 22.622 C 7.786 22.728,8.902 22.759,12.000 22.759 C 15.098 22.759,16.214 22.728,16.973 22.622 C 19.443 22.275,20.996 21.288,21.897 19.490 C 22.379 18.530,22.638 17.369,22.720 15.807 C 22.771 14.838,22.771 9.162,22.720 8.193 C 22.657 6.998,22.521 6.191,22.242 5.356 C 21.632 3.531,20.469 2.367,18.650 1.760 C 17.788 1.473,17.023 1.344,15.806 1.280 C 14.952 1.235,8.952 1.237,8.080 1.282 M16.800 2.854 C 19.586 3.316,20.714 4.454,21.148 7.240 C 21.214 7.661,21.220 8.064,21.220 12.000 C 21.220 15.936,21.214 16.339,21.148 16.760 C 20.712 19.558,19.558 20.712,16.760 21.148 C 16.339 21.214,15.936 21.220,12.000 21.220 C 8.064 21.220,7.661 21.214,7.240 21.148 C 4.450 20.713,3.283 19.551,2.854 16.780 C 2.785 16.335,2.780 15.989,2.780 12.000 C 2.780 7.247,2.776 7.337,3.044 6.288 C 3.557 4.282,4.722 3.274,6.960 2.900 C 7.690 2.777,8.048 2.769,12.200 2.777 C 15.963 2.784,16.422 2.791,16.800 2.854 M11.580 5.279 C 11.208 5.320,10.834 5.426,10.540 5.572 C 10.153 5.764,7.157 7.439,6.960 7.573 C 6.332 8.001,5.741 8.913,5.554 9.740 C 5.476 10.086,5.476 13.961,5.554 14.280 C 5.774 15.180,6.353 16.051,7.015 16.474 C 7.410 16.726,10.412 18.387,10.667 18.494 C 11.178 18.709,11.785 18.787,12.409 18.720 C 13.057 18.650,13.315 18.538,15.043 17.581 C 16.809 16.602,17.174 16.377,17.454 16.095 C 17.990 15.556,18.387 14.765,18.484 14.047 C 18.510 13.854,18.520 13.001,18.510 11.779 C 18.496 9.906,18.491 9.807,18.408 9.532 C 18.158 8.706,17.651 7.977,17.036 7.558 C 16.709 7.335,13.584 5.604,13.302 5.489 C 12.843 5.303,12.133 5.216,11.580 5.279 M12.583 6.819 C 12.812 6.887,16.137 8.720,16.269 8.852 L 16.358 8.940 14.202 10.190 C 13.016 10.877,12.025 11.440,12.000 11.440 C 11.975 11.440,10.983 10.877,9.795 10.190 L 7.636 8.940 7.733 8.856 C 7.900 8.712,11.249 6.870,11.439 6.817 C 11.695 6.747,12.343 6.747,12.583 6.819 M16.997 13.896 C 16.935 14.269,16.693 14.731,16.415 15.009 C 16.233 15.191,15.917 15.382,14.489 16.175 L 12.780 17.123 12.770 14.954 C 12.763 13.626,12.774 12.770,12.797 12.747 C 12.818 12.726,13.777 12.163,14.928 11.496 L 17.020 10.282 17.031 11.951 C 17.039 13.068,17.027 13.711,16.997 13.896 M9.089 11.505 C 10.217 12.157,11.163 12.711,11.190 12.737 C 11.230 12.774,11.238 13.250,11.230 14.952 L 11.220 17.120 9.520 16.178 C 7.957 15.313,7.800 15.216,7.573 14.981 C 7.410 14.813,7.273 14.618,7.173 14.412 L 7.020 14.100 7.009 12.210 C 7.002 11.171,7.006 10.320,7.018 10.320 C 7.030 10.320,7.962 10.853,9.089 11.505 " stroke="none" fill-rule="evenodd" fill="black"></path></svg>