<svg width="24" height="24" viewBox="0 0 24 24" fill="none" xmlns="http://www.w3.org/2000/svg"><path d="M11.480 1.340 C 11.337 1.369,11.129 1.428,11.017 1.473 C 10.774 1.569,4.251 5.082,4.016 5.243 C 3.080 5.884,3.009 7.392,3.878 8.170 C 4.008 8.286,5.128 8.911,7.424 10.148 C 9.270 11.143,10.866 11.994,10.971 12.041 C 11.560 12.300,12.441 12.300,13.029 12.040 C 13.134 11.994,14.730 11.143,16.576 10.148 C 18.872 8.911,19.992 8.286,20.122 8.170 C 20.521 7.812,20.726 7.335,20.728 6.760 C 20.729 6.110,20.447 5.554,19.940 5.212 C 19.726 5.067,13.193 1.556,12.983 1.473 C 12.521 1.291,11.968 1.242,11.480 1.340 M12.340 2.832 C 12.636 2.936,19.045 6.394,19.150 6.508 C 19.272 6.639,19.272 6.880,19.150 7.015 C 19.005 7.176,12.469 10.678,12.214 10.732 C 12.056 10.765,11.944 10.765,11.786 10.732 C 11.531 10.678,4.995 7.176,4.850 7.015 C 4.789 6.948,4.760 6.865,4.760 6.760 C 4.760 6.654,4.789 6.574,4.850 6.508 C 4.955 6.394,11.364 2.936,11.660 2.832 C 11.770 2.794,11.923 2.763,12.000 2.763 C 12.077 2.763,12.230 2.794,12.340 2.832 M2.514 9.373 C 1.835 9.604,1.373 10.175,1.277 10.900 C 1.250 11.109,1.240 12.270,1.249 14.260 L 1.263 17.300 1.374 17.658 C 1.587 18.347,2.039 18.955,2.620 19.330 C 2.774 19.429,4.306 20.213,6.024 21.071 C 8.267 22.192,9.214 22.645,9.384 22.681 C 10.393 22.891,11.389 22.236,11.599 21.225 C 11.630 21.074,11.640 20.069,11.630 17.835 C 11.616 14.312,11.630 14.503,11.342 13.893 C 11.164 13.514,10.947 13.227,10.613 12.925 C 10.360 12.696,10.108 12.561,7.120 11.057 C 5.349 10.165,3.797 9.400,3.671 9.358 C 3.347 9.248,2.863 9.254,2.514 9.373 M20.320 9.359 C 20.199 9.400,18.651 10.164,16.880 11.056 C 13.894 12.560,13.640 12.696,13.387 12.925 C 13.053 13.227,12.837 13.514,12.658 13.893 C 12.368 14.506,12.380 14.331,12.380 17.960 L 12.380 21.220 12.471 21.480 C 12.773 22.346,13.708 22.870,14.617 22.681 C 14.789 22.645,15.730 22.194,17.997 21.059 C 19.726 20.195,21.257 19.411,21.400 19.318 C 21.935 18.970,22.414 18.340,22.596 17.746 C 22.642 17.595,22.698 17.316,22.720 17.126 C 22.772 16.671,22.771 11.231,22.719 10.860 C 22.621 10.163,22.115 9.565,21.449 9.360 C 21.111 9.255,20.621 9.255,20.320 9.359 M6.353 12.337 C 9.489 13.905,9.507 13.915,9.730 14.156 C 9.866 14.303,9.989 14.487,10.047 14.629 L 10.140 14.860 10.152 17.840 C 10.161 19.808,10.151 20.868,10.124 20.961 C 10.082 21.101,9.914 21.240,9.784 21.240 C 9.749 21.240,8.302 20.531,6.570 19.664 C 4.244 18.501,3.371 18.045,3.231 17.922 C 3.113 17.818,2.994 17.656,2.911 17.489 L 2.780 17.222 2.769 14.121 C 2.761 11.852,2.770 10.997,2.803 10.934 C 2.856 10.835,2.979 10.767,3.111 10.763 C 3.160 10.761,4.620 11.470,6.353 12.337 M21.054 10.804 C 21.107 10.829,21.172 10.887,21.197 10.934 C 21.230 10.997,21.239 11.859,21.231 14.121 L 21.220 17.222 21.089 17.489 C 21.006 17.656,20.887 17.818,20.769 17.922 C 20.629 18.045,19.756 18.501,17.430 19.664 C 15.698 20.531,14.252 21.240,14.218 21.240 C 14.076 21.240,13.923 21.118,13.879 20.970 C 13.848 20.865,13.839 19.925,13.848 17.840 L 13.860 14.860 13.953 14.629 C 14.011 14.487,14.134 14.303,14.270 14.156 C 14.493 13.916,14.514 13.904,17.637 12.339 C 19.366 11.473,20.820 10.763,20.868 10.762 C 20.917 10.761,21.000 10.780,21.054 10.804 " stroke="none" fill-rule="evenodd" fill="black"></path></svg>