<svg width="24" height="24" viewBox="0 0 24 24" fill="none" xmlns="http://www.w3.org/2000/svg"><path d="M8.080 1.282 C 4.008 1.495,1.895 3.296,1.383 6.991 C 1.270 7.803,1.242 8.816,1.242 12.000 C 1.242 16.504,1.302 17.273,1.760 18.650 C 2.532 20.963,4.206 22.226,7.027 22.622 C 7.786 22.728,8.902 22.759,12.000 22.759 C 15.098 22.759,16.214 22.728,16.973 22.622 C 19.443 22.275,20.996 21.288,21.897 19.490 C 22.379 18.530,22.638 17.369,22.720 15.807 C 22.771 14.838,22.771 9.162,22.720 8.193 C 22.657 6.998,22.521 6.191,22.242 5.356 C 21.632 3.531,20.469 2.367,18.650 1.760 C 17.788 1.473,17.023 1.344,15.806 1.280 C 14.952 1.235,8.952 1.237,8.080 1.282 M16.800 2.854 C 19.586 3.316,20.714 4.454,21.148 7.240 C 21.214 7.661,21.220 8.064,21.220 12.000 C 21.220 15.936,21.214 16.339,21.148 16.760 C 20.712 19.558,19.558 20.712,16.760 21.148 C 16.339 21.214,15.936 21.220,12.000 21.220 C 8.064 21.220,7.661 21.214,7.240 21.148 C 4.450 20.713,3.283 19.551,2.854 16.780 C 2.785 16.335,2.780 15.989,2.780 12.000 C 2.780 7.247,2.776 7.337,3.044 6.288 C 3.557 4.282,4.722 3.274,6.960 2.900 C 7.690 2.777,8.048 2.769,12.200 2.777 C 15.963 2.784,16.422 2.791,16.800 2.854 M16.378 8.833 C 16.179 8.926,16.098 9.021,14.880 10.600 C 14.346 11.293,13.853 11.918,13.786 11.990 C 13.573 12.218,13.626 12.247,12.260 11.165 C 11.842 10.834,11.383 10.504,11.240 10.432 C 10.993 10.306,10.958 10.300,10.540 10.300 C 9.989 10.300,9.716 10.391,9.387 10.684 C 9.190 10.860,6.920 13.749,6.690 14.116 C 6.573 14.304,6.568 14.621,6.681 14.842 C 6.849 15.171,7.268 15.320,7.606 15.170 C 7.824 15.074,7.877 15.012,9.159 13.340 C 10.294 11.860,10.379 11.760,10.505 11.760 C 10.560 11.760,10.972 12.058,11.587 12.541 C 12.750 13.455,12.945 13.567,13.417 13.592 C 13.960 13.621,14.352 13.498,14.703 13.189 C 14.870 13.042,17.150 10.149,17.326 9.860 C 17.427 9.695,17.424 9.363,17.319 9.158 C 17.151 8.828,16.712 8.677,16.378 8.833 " stroke="none" fill-rule="evenodd" fill="black"></path></svg>