<svg width="24" height="24" viewBox="0 0 24 24" fill="none" xmlns="http://www.w3.org/2000/svg"><path d="M8.080 1.282 C 4.008 1.495,1.895 3.296,1.383 6.991 C 1.270 7.803,1.242 8.816,1.242 12.000 C 1.242 16.504,1.302 17.273,1.760 18.650 C 2.532 20.963,4.206 22.226,7.027 22.622 C 7.786 22.728,8.902 22.759,12.000 22.759 C 15.098 22.759,16.214 22.728,16.973 22.622 C 19.443 22.275,20.996 21.288,21.897 19.490 C 22.379 18.530,22.638 17.369,22.720 15.807 C 22.771 14.838,22.771 9.162,22.720 8.193 C 22.657 6.998,22.521 6.191,22.242 5.356 C 21.632 3.531,20.469 2.367,18.650 1.760 C 17.788 1.473,17.023 1.344,15.806 1.280 C 14.952 1.235,8.952 1.237,8.080 1.282 M16.800 2.854 C 19.586 3.316,20.714 4.454,21.148 7.240 C 21.214 7.661,21.220 8.064,21.220 12.000 C 21.220 15.936,21.214 16.339,21.148 16.760 C 20.712 19.558,19.558 20.712,16.760 21.148 C 16.339 21.214,15.936 21.220,12.000 21.220 C 8.064 21.220,7.661 21.214,7.240 21.148 C 4.450 20.713,3.283 19.551,2.854 16.780 C 2.785 16.335,2.780 15.989,2.780 12.000 C 2.780 7.247,2.776 7.337,3.044 6.288 C 3.557 4.282,4.722 3.274,6.960 2.900 C 7.690 2.777,8.048 2.769,12.200 2.777 C 15.963 2.784,16.422 2.791,16.800 2.854 M11.815 7.277 C 11.638 7.321,11.461 7.456,11.353 7.631 L 11.260 7.780 11.248 9.508 L 11.236 11.236 9.505 11.248 L 7.774 11.260 7.612 11.367 C 7.372 11.526,7.267 11.721,7.267 12.007 C 7.267 12.203,7.286 12.270,7.383 12.408 C 7.447 12.499,7.572 12.610,7.660 12.656 C 7.814 12.737,7.886 12.740,9.528 12.752 L 11.236 12.764 11.248 14.492 L 11.260 16.220 11.353 16.369 C 11.710 16.943,12.576 16.812,12.716 16.162 C 12.744 16.031,12.760 15.374,12.760 14.358 L 12.760 12.760 14.358 12.760 C 15.374 12.760,16.031 12.744,16.162 12.716 C 16.904 12.557,16.924 11.471,16.189 11.286 C 16.064 11.255,15.479 11.240,14.382 11.240 L 12.760 11.240 12.759 9.630 C 12.758 8.669,12.741 7.948,12.717 7.841 C 12.623 7.432,12.215 7.177,11.815 7.277 " stroke="none" fill-rule="evenodd" fill="black"></path></svg>