<svg width="24" height="24" viewBox="0 0 24 24" fill="none" xmlns="http://www.w3.org/2000/svg"><path d="M11.560 1.266 C 7.679 1.446,4.232 3.654,2.455 7.099 C 1.644 8.673,1.274 10.199,1.272 11.980 C 1.271 13.123,1.395 14.009,1.702 15.050 C 2.716 18.488,5.522 21.294,8.950 22.297 C 10.643 22.792,12.526 22.871,14.196 22.516 C 17.361 21.844,20.059 19.782,21.545 16.901 C 22.360 15.319,22.728 13.798,22.728 12.000 C 22.728 10.863,22.607 10.010,22.297 8.950 C 21.294 5.522,18.478 2.706,15.050 1.703 C 13.940 1.378,12.644 1.216,11.560 1.266 M13.148 2.822 C 15.227 3.094,17.028 3.984,18.522 5.478 C 19.361 6.317,19.965 7.182,20.431 8.214 C 20.982 9.433,21.240 10.640,21.240 12.000 C 21.240 13.360,20.982 14.567,20.431 15.786 C 19.965 16.818,19.361 17.683,18.522 18.522 C 17.683 19.361,16.818 19.965,15.786 20.431 C 14.567 20.982,13.360 21.240,12.000 21.240 C 10.640 21.240,9.433 20.982,8.214 20.431 C 7.182 19.965,6.317 19.361,5.478 18.522 C 3.695 16.739,2.760 14.495,2.760 12.000 C 2.760 9.505,3.695 7.261,5.478 5.478 C 6.960 3.996,8.756 3.104,10.821 2.822 C 11.380 2.746,12.569 2.746,13.148 2.822 M11.815 7.277 C 11.638 7.321,11.461 7.456,11.353 7.631 L 11.260 7.780 11.248 9.508 L 11.236 11.236 9.505 11.248 L 7.774 11.260 7.612 11.367 C 7.372 11.526,7.267 11.721,7.267 12.007 C 7.267 12.203,7.286 12.270,7.383 12.408 C 7.447 12.499,7.572 12.610,7.660 12.656 C 7.814 12.737,7.886 12.740,9.528 12.752 L 11.236 12.764 11.248 14.492 L 11.260 16.220 11.353 16.369 C 11.710 16.943,12.576 16.812,12.716 16.162 C 12.744 16.031,12.760 15.374,12.760 14.358 L 12.760 12.760 14.358 12.760 C 15.374 12.760,16.031 12.744,16.162 12.716 C 16.904 12.557,16.924 11.471,16.189 11.286 C 16.064 11.255,15.479 11.240,14.382 11.240 L 12.760 11.240 12.759 9.630 C 12.758 8.669,12.741 7.948,12.717 7.841 C 12.623 7.432,12.215 7.177,11.815 7.277 " stroke="none" fill-rule="evenodd" fill="black"></path></svg>