<svg width="24" height="24" viewBox="0 0 24 24" fill="none" xmlns="http://www.w3.org/2000/svg"><path d="M4.882 1.282 C 3.780 1.371,2.974 1.706,2.340 2.340 C 1.684 2.996,1.372 3.768,1.281 4.963 C 1.227 5.670,1.227 12.330,1.281 13.037 C 1.372 14.232,1.684 15.004,2.340 15.660 C 2.996 16.316,3.768 16.628,4.963 16.719 C 5.690 16.774,7.899 16.772,8.162 16.716 C 8.828 16.573,8.943 15.639,8.332 15.336 C 8.192 15.266,8.038 15.258,6.400 15.237 C 4.719 15.215,4.604 15.209,4.326 15.126 C 3.519 14.884,3.106 14.467,2.872 13.659 L 2.780 13.340 2.780 9.000 L 2.780 4.660 2.872 4.341 C 3.106 3.534,3.515 3.121,4.326 2.872 C 4.617 2.783,4.645 2.783,7.566 2.770 C 10.354 2.757,10.532 2.761,10.892 2.834 C 12.042 3.069,12.597 3.784,12.665 5.120 C 12.690 5.588,12.726 5.746,12.846 5.899 C 13.029 6.132,13.440 6.228,13.732 6.106 C 13.910 6.032,14.110 5.792,14.144 5.614 C 14.187 5.383,14.129 4.535,14.044 4.160 C 13.902 3.529,13.711 3.102,13.366 2.644 C 12.978 2.128,12.316 1.681,11.640 1.480 C 10.951 1.276,10.877 1.271,8.000 1.259 C 6.515 1.253,5.112 1.263,4.882 1.282 M13.460 7.283 C 11.389 7.448,10.167 8.574,9.881 10.580 C 9.857 10.751,9.842 12.468,9.842 15.000 C 9.842 17.532,9.857 19.249,9.881 19.420 C 10.035 20.504,10.470 21.344,11.158 21.892 C 11.646 22.280,12.192 22.514,12.960 22.663 C 13.246 22.719,13.697 22.732,15.820 22.748 C 19.111 22.774,19.720 22.730,20.514 22.413 C 21.401 22.059,22.118 21.332,22.438 20.461 C 22.747 19.619,22.770 19.186,22.750 14.560 C 22.736 11.264,22.726 10.734,22.668 10.418 C 22.445 9.193,21.916 8.367,21.014 7.834 C 20.452 7.502,19.896 7.347,19.037 7.281 C 18.419 7.234,14.058 7.236,13.460 7.283 M19.674 8.872 C 20.485 9.121,20.894 9.534,21.128 10.341 L 21.220 10.660 21.220 15.000 L 21.220 19.340 21.128 19.659 C 20.894 20.466,20.485 20.879,19.674 21.128 C 19.383 21.217,19.355 21.217,16.434 21.230 C 13.646 21.243,13.468 21.239,13.108 21.166 C 12.363 21.013,11.892 20.681,11.621 20.116 C 11.329 19.507,11.340 19.711,11.340 15.000 C 11.340 11.089,11.345 10.758,11.411 10.476 C 11.629 9.547,12.150 9.035,13.075 8.838 C 13.395 8.769,13.636 8.765,16.400 8.773 C 19.361 8.783,19.382 8.783,19.674 8.872 M16.163 12.710 C 16.087 12.749,15.970 12.849,15.903 12.934 C 15.780 13.087,15.780 13.089,15.767 13.659 L 15.754 14.231 15.207 14.248 C 14.628 14.265,14.508 14.298,14.332 14.487 C 14.217 14.609,14.120 14.845,14.120 15.000 C 14.120 15.155,14.217 15.391,14.332 15.513 C 14.508 15.702,14.628 15.735,15.207 15.752 L 15.754 15.769 15.767 16.341 C 15.780 16.911,15.780 16.913,15.903 17.066 C 16.061 17.264,16.252 17.360,16.487 17.360 C 16.814 17.360,17.017 17.238,17.164 16.952 C 17.227 16.828,17.240 16.716,17.240 16.286 L 17.240 15.769 17.790 15.753 C 18.372 15.735,18.491 15.703,18.668 15.513 C 18.783 15.391,18.880 15.155,18.880 15.000 C 18.880 14.845,18.783 14.609,18.668 14.487 C 18.491 14.297,18.372 14.265,17.790 14.247 L 17.240 14.231 17.240 13.714 C 17.240 13.157,17.198 13.002,16.994 12.813 C 16.797 12.630,16.413 12.582,16.163 12.710 " stroke="none" fill-rule="evenodd" fill="black"></path></svg>