<svg width="24" height="24" viewBox="0 0 24 24" fill="none" xmlns="http://www.w3.org/2000/svg"><path d="M11.560 1.267 C 6.875 1.481,3.026 5.101,2.522 9.768 C 2.468 10.268,2.468 11.333,2.522 11.832 C 2.746 13.892,3.677 15.879,5.119 17.375 C 5.367 17.632,5.606 17.842,5.700 17.885 C 6.165 18.098,6.693 17.806,6.749 17.305 C 6.783 17.004,6.703 16.857,6.243 16.380 C 5.566 15.678,5.160 15.101,4.760 14.271 C 3.275 11.192,3.887 7.559,6.299 5.138 C 7.587 3.845,9.121 3.077,10.928 2.820 C 11.472 2.743,12.521 2.744,13.083 2.822 C 18.063 3.517,21.200 8.528,19.638 13.293 C 19.253 14.466,18.646 15.457,17.733 16.405 C 17.529 16.617,17.343 16.839,17.321 16.898 C 17.262 17.052,17.271 17.386,17.336 17.512 C 17.473 17.773,17.720 17.920,18.024 17.920 C 18.290 17.920,18.463 17.809,18.888 17.366 C 20.342 15.852,21.258 13.874,21.483 11.768 C 21.550 11.132,21.511 9.839,21.404 9.220 C 21.234 8.228,20.946 7.359,20.492 6.467 C 20.007 5.514,19.479 4.790,18.704 4.019 C 17.306 2.627,15.508 1.708,13.542 1.380 C 13.179 1.319,12.094 1.233,11.900 1.249 C 11.856 1.252,11.703 1.261,11.560 1.267 M11.240 4.600 C 10.579 4.691,9.766 4.934,9.247 5.197 C 6.924 6.369,5.560 8.801,5.798 11.347 C 5.922 12.677,6.450 13.908,7.330 14.920 C 7.559 15.183,7.737 15.280,7.996 15.280 C 8.421 15.280,8.731 14.969,8.731 14.542 C 8.731 14.298,8.691 14.212,8.441 13.920 C 7.986 13.389,7.642 12.766,7.461 12.141 C 7.316 11.638,7.273 11.325,7.273 10.760 C 7.274 9.734,7.590 8.782,8.203 7.961 C 9.193 6.638,10.850 5.905,12.463 6.077 C 14.759 6.322,16.524 8.116,16.718 10.400 C 16.828 11.699,16.432 12.902,15.559 13.920 C 15.309 14.211,15.269 14.298,15.269 14.538 C 15.269 14.971,15.572 15.280,15.998 15.280 C 16.296 15.280,16.468 15.169,16.794 14.763 C 17.955 13.322,18.420 11.631,18.154 9.820 C 17.980 8.641,17.382 7.424,16.533 6.522 C 15.638 5.571,14.530 4.955,13.220 4.680 C 12.765 4.585,11.674 4.541,11.240 4.600 M11.500 7.896 C 10.591 8.044,9.781 8.643,9.360 9.478 C 8.956 10.278,8.961 11.320,9.371 12.140 C 9.508 12.414,9.862 12.851,10.106 13.050 C 10.651 13.493,11.292 13.722,11.987 13.723 C 13.036 13.724,13.907 13.254,14.479 12.378 C 14.760 11.947,14.886 11.527,14.910 10.935 C 14.940 10.213,14.787 9.662,14.399 9.098 C 13.781 8.200,12.610 7.715,11.500 7.896 M12.608 9.487 C 12.898 9.623,13.177 9.901,13.313 10.192 C 13.405 10.389,13.420 10.472,13.420 10.800 C 13.420 11.128,13.405 11.211,13.313 11.408 C 13.177 11.699,12.899 11.977,12.608 12.113 C 12.411 12.205,12.328 12.220,12.000 12.220 C 11.672 12.220,11.589 12.205,11.392 12.113 C 11.113 11.982,10.841 11.717,10.695 11.434 C 10.537 11.126,10.514 10.603,10.643 10.260 C 10.763 9.941,11.127 9.569,11.440 9.447 C 11.761 9.321,12.290 9.339,12.608 9.487 M11.696 15.124 C 11.102 15.180,10.502 15.444,10.068 15.841 C 9.840 16.050,8.637 17.502,8.212 18.082 C 7.610 18.903,7.476 19.984,7.860 20.929 C 8.113 21.550,8.656 22.130,9.258 22.421 C 9.865 22.714,9.921 22.720,11.981 22.720 C 13.125 22.720,13.874 22.704,14.008 22.677 C 14.923 22.490,15.680 21.888,16.083 21.026 C 16.251 20.667,16.316 20.407,16.345 19.980 C 16.386 19.381,16.233 18.769,15.922 18.288 C 15.750 18.021,14.362 16.278,14.104 16.006 C 13.494 15.359,12.618 15.038,11.696 15.124 M12.504 16.685 C 12.628 16.731,12.803 16.835,12.892 16.915 C 13.166 17.161,14.640 19.030,14.753 19.274 C 14.891 19.573,14.895 19.992,14.764 20.330 C 14.647 20.630,14.352 20.951,14.053 21.102 L 13.820 21.220 12.000 21.220 C 10.201 21.220,10.178 21.219,9.988 21.131 C 9.883 21.082,9.701 20.951,9.583 20.840 C 9.085 20.369,8.987 19.617,9.350 19.060 C 9.502 18.827,10.952 17.036,11.075 16.929 C 11.195 16.826,11.452 16.683,11.600 16.637 C 11.810 16.573,12.270 16.597,12.504 16.685 " stroke="none" fill-rule="evenodd" fill="black"></path></svg>