<svg width="24" height="24" viewBox="0 0 24 24" fill="none" xmlns="http://www.w3.org/2000/svg"><path d="M5.354 1.280 C 3.361 1.471,1.723 2.969,1.334 4.956 C 1.253 5.370,1.255 6.173,1.337 6.612 C 1.639 8.218,2.825 9.565,4.386 10.075 C 4.753 10.195,5.117 10.261,5.650 10.302 L 5.960 10.327 5.960 13.714 C 5.960 15.818,5.976 17.228,6.002 17.434 C 6.111 18.309,6.643 19.060,7.430 19.450 L 7.760 19.613 7.760 20.884 C 7.760 21.685,7.776 22.196,7.803 22.267 C 7.856 22.409,8.024 22.588,8.179 22.669 C 8.323 22.744,8.667 22.751,8.802 22.681 C 8.925 22.618,9.112 22.446,9.173 22.340 C 9.205 22.286,9.226 21.843,9.240 20.964 L 9.260 19.668 9.472 19.595 C 10.140 19.369,10.803 18.736,11.060 18.080 C 11.248 17.601,11.246 17.679,11.233 10.760 L 11.220 4.220 11.108 3.860 C 10.700 2.554,9.716 1.632,8.415 1.335 C 8.095 1.262,5.941 1.223,5.354 1.280 M16.100 1.264 C 15.302 1.345,14.780 1.543,14.173 1.993 C 13.562 2.446,13.145 3.056,12.889 3.872 L 12.780 4.220 12.769 10.800 C 12.757 18.124,12.742 17.694,13.030 18.279 C 13.141 18.505,13.263 18.666,13.519 18.923 C 13.871 19.278,14.160 19.471,14.528 19.595 L 14.740 19.668 14.760 20.964 C 14.774 21.843,14.795 22.286,14.827 22.340 C 14.888 22.446,15.075 22.618,15.198 22.681 C 15.333 22.751,15.677 22.744,15.821 22.669 C 15.976 22.588,16.144 22.409,16.197 22.267 C 16.224 22.196,16.240 21.685,16.240 20.884 L 16.240 19.613 16.570 19.450 C 17.368 19.054,17.898 18.291,18.002 17.388 C 18.022 17.208,18.040 15.545,18.040 13.693 L 18.040 10.327 18.350 10.302 C 18.883 10.261,19.247 10.195,19.614 10.075 C 21.178 9.564,22.346 8.236,22.666 6.604 C 22.743 6.210,22.743 5.350,22.666 4.956 C 22.307 3.123,20.910 1.719,19.063 1.334 C 18.859 1.292,18.429 1.272,17.520 1.262 C 16.827 1.254,16.188 1.256,16.100 1.264 M8.219 2.821 C 8.955 3.013,9.592 3.713,9.717 4.467 C 9.750 4.664,9.759 6.489,9.751 11.060 C 9.739 18.178,9.772 17.500,9.418 17.878 C 9.124 18.193,8.682 18.316,8.278 18.195 C 8.059 18.129,7.760 17.887,7.621 17.662 L 7.500 17.466 7.480 13.423 C 7.461 9.561,7.457 9.373,7.384 9.228 C 7.293 9.044,7.115 8.903,6.900 8.844 C 6.812 8.820,6.438 8.800,6.068 8.800 C 5.256 8.800,4.971 8.746,4.440 8.491 C 4.107 8.331,4.010 8.258,3.656 7.904 C 3.304 7.552,3.227 7.450,3.067 7.120 C 2.847 6.667,2.760 6.287,2.760 5.780 C 2.760 5.273,2.847 4.893,3.067 4.440 C 3.227 4.110,3.304 4.008,3.656 3.656 C 4.007 3.304,4.110 3.227,4.440 3.066 C 5.018 2.786,5.142 2.769,6.662 2.764 C 7.730 2.761,8.028 2.772,8.219 2.821 M18.892 2.823 C 19.050 2.858,19.351 2.969,19.560 3.069 C 19.893 3.229,19.990 3.302,20.344 3.656 C 20.698 4.010,20.771 4.107,20.931 4.440 C 21.154 4.906,21.240 5.277,21.240 5.780 C 21.240 6.283,21.154 6.654,20.931 7.120 C 20.771 7.453,20.699 7.550,20.344 7.903 C 20.010 8.238,19.881 8.336,19.600 8.475 C 19.063 8.740,18.927 8.766,17.940 8.795 C 17.108 8.819,17.052 8.826,16.907 8.915 C 16.823 8.967,16.706 9.083,16.647 9.172 L 16.540 9.334 16.520 13.400 L 16.500 17.466 16.379 17.662 C 16.240 17.887,15.941 18.129,15.722 18.195 C 15.327 18.313,14.890 18.195,14.591 17.890 C 14.227 17.520,14.261 18.204,14.249 11.060 C 14.241 6.557,14.250 4.663,14.282 4.472 C 14.407 3.717,15.035 3.019,15.764 2.823 C 16.092 2.735,18.492 2.735,18.892 2.823 M5.501 4.125 C 5.170 4.173,4.860 4.335,4.597 4.597 C 4.330 4.865,4.174 5.169,4.126 5.520 C 4.048 6.081,4.209 6.575,4.597 6.963 C 4.866 7.232,5.169 7.386,5.527 7.436 C 5.913 7.490,6.120 7.432,6.327 7.213 C 6.461 7.073,6.520 6.921,6.520 6.720 C 6.520 6.340,6.265 6.055,5.860 5.982 C 5.663 5.946,5.600 5.897,5.600 5.780 C 5.600 5.663,5.663 5.614,5.860 5.578 C 6.265 5.505,6.520 5.220,6.520 4.840 C 6.520 4.639,6.461 4.487,6.327 4.346 C 6.121 4.128,5.896 4.067,5.501 4.125 M18.140 4.100 C 18.118 4.107,18.051 4.124,17.991 4.137 C 17.844 4.169,17.601 4.388,17.534 4.548 C 17.343 5.005,17.626 5.485,18.140 5.578 C 18.337 5.614,18.400 5.663,18.400 5.780 C 18.400 5.897,18.337 5.946,18.140 5.982 C 17.933 6.019,17.806 6.086,17.673 6.226 C 17.280 6.641,17.501 7.314,18.072 7.443 C 18.271 7.488,18.710 7.413,18.960 7.292 C 19.242 7.155,19.595 6.802,19.732 6.520 C 19.939 6.095,19.942 5.474,19.741 5.059 C 19.536 4.639,19.080 4.252,18.690 4.167 C 18.453 4.115,18.193 4.084,18.140 4.100 " stroke="none" fill-rule="evenodd" fill="black"></path></svg>