<svg width="24" height="24" viewBox="0 0 24 24" fill="none" xmlns="http://www.w3.org/2000/svg"><path d="M7.760 1.282 C 5.355 1.397,3.887 1.958,3.040 3.086 C 2.473 3.840,2.195 4.627,1.993 6.047 C 1.908 6.645,1.905 6.782,1.890 11.540 C 1.879 14.793,1.888 16.627,1.917 17.040 C 2.112 19.830,2.809 21.215,4.420 22.015 C 5.301 22.452,6.236 22.643,7.877 22.720 C 8.944 22.770,15.056 22.770,16.123 22.720 C 17.725 22.645,18.670 22.457,19.542 22.040 C 20.957 21.362,21.674 20.220,21.975 18.160 C 22.112 17.222,22.126 16.544,22.110 11.540 C 22.093 6.245,22.099 6.417,21.879 5.280 C 21.414 2.886,20.095 1.731,17.424 1.381 C 17.166 1.348,16.591 1.302,16.147 1.281 C 15.228 1.236,8.700 1.237,7.760 1.282 M16.700 2.802 C 18.593 2.962,19.568 3.440,20.054 4.443 C 20.380 5.116,20.565 6.105,20.623 7.490 L 20.651 8.160 19.205 8.160 C 17.974 8.160,17.760 8.151,17.760 8.102 C 17.760 8.071,17.675 7.877,17.570 7.672 C 17.225 6.994,16.550 6.432,15.820 6.215 C 15.600 6.150,15.302 6.142,12.180 6.129 C 8.518 6.114,8.412 6.118,7.892 6.319 C 7.213 6.581,6.522 7.281,6.301 7.932 L 6.223 8.160 4.792 8.160 L 3.360 8.160 3.361 7.910 C 3.362 7.510,3.435 6.536,3.499 6.078 C 3.762 4.186,4.407 3.382,5.960 3.007 C 6.298 2.925,7.038 2.814,7.420 2.788 C 7.941 2.752,16.264 2.765,16.700 2.802 M15.565 7.725 C 15.873 7.870,16.095 8.082,16.239 8.370 C 16.340 8.573,16.360 8.660,16.360 8.899 C 16.360 9.320,16.273 9.533,15.983 9.824 C 15.560 10.247,15.831 10.220,12.000 10.220 C 8.256 10.220,8.464 10.237,8.080 9.893 C 7.767 9.611,7.668 9.411,7.648 9.018 C 7.625 8.583,7.702 8.350,7.965 8.062 C 8.183 7.824,8.418 7.691,8.709 7.641 C 8.814 7.623,10.349 7.611,12.120 7.614 L 15.340 7.620 15.565 7.725 M6.293 9.894 C 6.486 10.508,7.241 11.284,7.875 11.522 C 8.390 11.716,8.470 11.720,12.000 11.720 C 15.578 11.720,15.633 11.717,16.155 11.505 C 16.805 11.241,17.485 10.538,17.699 9.908 L 17.777 9.680 19.208 9.680 L 20.640 9.680 20.639 12.990 C 20.639 14.811,20.621 16.570,20.600 16.900 C 20.520 18.139,20.359 18.930,20.061 19.540 C 19.605 20.474,18.843 20.905,17.220 21.148 C 16.779 21.214,16.358 21.220,12.020 21.220 C 7.697 21.220,7.258 21.214,6.800 21.148 C 4.584 20.831,3.828 20.105,3.520 18.003 C 3.382 17.056,3.361 16.399,3.361 12.990 L 3.360 9.680 4.793 9.680 L 6.225 9.680 6.293 9.894 " stroke="none" fill-rule="evenodd" fill="black"></path></svg>