<svg width="24" height="24" viewBox="0 0 24 24" fill="none" xmlns="http://www.w3.org/2000/svg"><path d="M11.675 1.479 C 10.752 1.645,9.748 2.722,9.373 3.949 C 9.266 4.299,9.266 4.303,9.243 5.974 L 9.220 7.649 6.520 8.817 C 5.035 9.459,3.739 10.027,3.641 10.078 C 3.057 10.381,2.623 10.910,2.373 11.620 C 2.261 11.940,2.261 11.941,2.260 13.000 C 2.260 14.176,2.279 14.291,2.539 14.700 C 2.944 15.336,3.731 15.585,4.500 15.320 C 4.685 15.256,9.012 13.398,9.170 13.314 C 9.236 13.279,9.240 13.352,9.240 14.580 L 9.240 15.882 7.985 17.151 C 6.625 18.527,6.565 18.605,6.454 19.135 C 6.370 19.532,6.404 19.730,6.708 20.660 C 6.988 21.513,7.090 21.750,7.267 21.961 C 7.422 22.146,7.803 22.383,8.073 22.464 C 8.402 22.563,8.882 22.554,9.167 22.444 C 9.398 22.355,9.444 22.318,11.170 20.870 C 11.596 20.512,11.954 20.240,12.000 20.240 C 12.046 20.240,12.404 20.512,12.830 20.870 C 14.561 22.323,14.602 22.355,14.833 22.443 C 15.330 22.632,16.008 22.525,16.472 22.182 C 16.833 21.917,16.964 21.680,17.288 20.710 C 17.610 19.747,17.649 19.495,17.544 19.079 C 17.408 18.543,17.351 18.471,16.010 17.117 L 14.759 15.853 14.769 14.576 L 14.780 13.298 16.840 14.190 C 19.415 15.304,19.547 15.357,19.866 15.407 C 20.499 15.505,21.125 15.228,21.461 14.700 C 21.721 14.291,21.740 14.176,21.740 13.000 C 21.739 11.944,21.739 11.939,21.628 11.624 C 21.388 10.944,20.924 10.360,20.400 10.079 C 20.345 10.049,19.058 9.489,17.540 8.834 L 14.780 7.643 14.757 6.012 C 14.731 4.240,14.721 4.145,14.484 3.563 C 14.189 2.838,13.575 2.099,12.980 1.753 C 12.804 1.650,12.588 1.548,12.500 1.525 C 12.256 1.463,11.881 1.442,11.675 1.479 M12.293 3.084 C 12.614 3.297,12.934 3.717,13.142 4.200 C 13.214 4.367,13.221 4.516,13.240 6.220 C 13.258 7.874,13.268 8.076,13.332 8.220 C 13.446 8.475,13.603 8.678,13.778 8.798 C 13.867 8.859,15.179 9.443,16.693 10.095 C 18.207 10.748,19.532 11.325,19.638 11.379 C 19.867 11.495,20.016 11.662,20.156 11.960 C 20.255 12.170,20.260 12.216,20.271 12.960 C 20.284 13.826,20.259 13.951,20.078 13.927 C 20.024 13.919,18.833 13.419,17.430 12.814 C 15.823 12.121,14.793 11.699,14.642 11.671 C 14.125 11.575,13.645 11.816,13.400 12.297 L 13.260 12.572 13.247 14.127 C 13.233 15.820,13.255 16.102,13.430 16.499 C 13.523 16.710,13.692 16.898,14.788 18.007 C 15.476 18.704,16.058 19.323,16.081 19.383 C 16.116 19.475,16.085 19.606,15.878 20.226 C 15.636 20.953,15.587 21.040,15.422 21.040 C 15.388 21.040,14.824 20.590,14.170 20.039 C 13.468 19.449,12.895 18.998,12.773 18.939 C 12.457 18.788,12.061 18.733,11.717 18.792 C 11.561 18.819,11.340 18.885,11.227 18.939 C 11.105 18.998,10.532 19.449,9.830 20.039 C 9.174 20.591,8.606 21.040,8.563 21.040 C 8.520 21.040,8.459 21.013,8.426 20.981 C 8.350 20.904,7.920 19.616,7.920 19.462 C 7.920 19.362,8.097 19.166,9.154 18.102 C 10.865 16.379,10.774 16.606,10.753 14.130 L 10.740 12.578 10.606 12.307 C 10.352 11.790,9.805 11.537,9.260 11.684 C 9.172 11.707,7.957 12.219,6.560 12.820 C 5.163 13.421,3.976 13.919,3.922 13.927 C 3.739 13.951,3.715 13.828,3.730 12.940 C 3.743 12.158,3.745 12.135,3.853 11.929 C 4.079 11.494,4.053 11.508,6.521 10.443 C 7.763 9.906,9.092 9.332,9.474 9.166 C 10.238 8.835,10.426 8.696,10.606 8.331 C 10.699 8.141,10.700 8.128,10.721 6.320 C 10.742 4.570,10.746 4.491,10.831 4.263 C 10.950 3.943,11.139 3.633,11.378 3.370 C 11.767 2.940,11.977 2.875,12.293 3.084 " stroke="none" fill-rule="evenodd" fill="black"></path></svg>