<svg width="24" height="24" viewBox="0 0 24 24" fill="none" xmlns="http://www.w3.org/2000/svg"><path d="M8.080 1.282 C 4.008 1.495,1.895 3.296,1.383 6.991 C 1.270 7.803,1.242 8.816,1.242 12.000 C 1.242 16.504,1.302 17.273,1.760 18.650 C 2.532 20.963,4.206 22.226,7.027 22.622 C 7.786 22.728,8.902 22.759,12.000 22.759 C 15.098 22.759,16.214 22.728,16.973 22.622 C 19.443 22.275,20.996 21.288,21.897 19.490 C 22.379 18.530,22.638 17.369,22.720 15.807 C 22.771 14.838,22.771 9.162,22.720 8.193 C 22.657 6.998,22.521 6.191,22.242 5.356 C 21.632 3.531,20.469 2.367,18.650 1.760 C 17.788 1.473,17.023 1.344,15.806 1.280 C 14.952 1.235,8.952 1.237,8.080 1.282 M16.800 2.854 C 19.586 3.316,20.714 4.454,21.148 7.240 C 21.214 7.661,21.220 8.064,21.220 12.000 C 21.220 15.936,21.214 16.339,21.148 16.760 C 20.712 19.558,19.558 20.712,16.760 21.148 C 16.339 21.214,15.936 21.220,12.000 21.220 C 8.064 21.220,7.661 21.214,7.240 21.148 C 4.450 20.713,3.283 19.551,2.854 16.780 C 2.785 16.335,2.780 15.989,2.780 12.000 C 2.780 7.247,2.776 7.337,3.044 6.288 C 3.557 4.282,4.722 3.274,6.960 2.900 C 7.690 2.777,8.048 2.769,12.200 2.777 C 15.963 2.784,16.422 2.791,16.800 2.854 M11.756 4.200 C 10.969 4.335,10.148 5.236,9.898 6.240 C 9.858 6.399,9.842 6.767,9.841 7.565 C 9.840 8.400,9.828 8.680,9.790 8.709 C 9.763 8.730,8.867 9.124,7.800 9.583 C 5.609 10.527,5.520 10.578,5.174 11.089 C 4.874 11.531,4.798 11.805,4.771 12.540 C 4.729 13.714,4.910 14.188,5.527 14.523 C 5.765 14.652,5.802 14.660,6.160 14.659 L 6.540 14.659 8.180 13.955 L 9.820 13.252 9.833 13.976 L 9.845 14.700 8.988 15.540 C 8.516 16.002,8.084 16.443,8.029 16.520 C 7.880 16.724,7.760 17.118,7.760 17.401 C 7.760 17.583,7.807 17.790,7.945 18.212 C 8.266 19.194,8.411 19.422,8.852 19.638 C 9.313 19.864,9.770 19.879,10.160 19.679 C 10.237 19.640,10.684 19.283,11.154 18.887 L 12.008 18.166 12.854 18.889 C 13.837 19.730,13.985 19.816,14.440 19.813 C 14.952 19.809,15.392 19.585,15.665 19.188 C 15.748 19.067,15.879 18.744,16.023 18.308 C 16.239 17.652,16.249 17.606,16.229 17.310 C 16.191 16.750,16.096 16.608,15.079 15.582 L 14.198 14.693 14.209 13.973 L 14.220 13.253 15.740 13.908 C 16.576 14.268,17.358 14.591,17.477 14.626 C 18.118 14.814,18.830 14.491,19.114 13.886 C 19.216 13.669,19.221 13.627,19.234 12.860 C 19.249 11.972,19.219 11.754,19.035 11.387 C 18.849 11.017,18.615 10.739,18.327 10.545 C 18.155 10.430,17.372 10.070,16.130 9.536 L 14.200 8.706 14.200 7.635 C 14.200 7.029,14.181 6.472,14.157 6.352 C 14.008 5.620,13.505 4.865,12.907 4.476 C 12.535 4.234,12.128 4.136,11.756 4.200 M12.246 5.857 C 12.345 5.954,12.487 6.147,12.563 6.287 L 12.700 6.540 12.720 7.860 C 12.739 9.101,12.745 9.191,12.825 9.365 C 12.935 9.602,13.173 9.864,13.368 9.964 C 13.453 10.007,14.372 10.409,15.411 10.857 C 16.450 11.305,17.350 11.694,17.411 11.722 C 17.472 11.750,17.575 11.855,17.641 11.954 C 17.757 12.129,17.760 12.146,17.760 12.632 C 17.760 13.087,17.754 13.128,17.690 13.109 C 17.652 13.098,16.900 12.780,16.020 12.402 C 15.140 12.023,14.313 11.686,14.181 11.652 C 13.744 11.540,13.330 11.667,13.014 12.010 C 12.729 12.319,12.714 12.414,12.728 13.847 L 12.740 15.100 12.851 15.337 C 12.942 15.530,13.124 15.737,13.860 16.482 L 14.758 17.390 14.625 17.785 C 14.552 18.002,14.485 18.204,14.475 18.234 C 14.464 18.268,14.174 18.046,13.679 17.623 C 12.774 16.850,12.550 16.718,12.106 16.689 C 11.757 16.667,11.462 16.741,11.199 16.917 C 11.101 16.983,10.688 17.319,10.282 17.663 L 9.543 18.289 9.392 17.838 L 9.241 17.387 10.140 16.503 C 10.953 15.705,11.051 15.593,11.169 15.340 L 11.300 15.060 11.300 13.760 L 11.300 12.460 11.193 12.256 C 11.073 12.030,10.883 11.845,10.629 11.711 C 10.495 11.640,10.394 11.621,10.140 11.621 L 9.820 11.620 8.078 12.370 C 7.119 12.783,6.323 13.120,6.308 13.120 C 6.292 13.120,6.280 12.901,6.280 12.634 C 6.280 12.181,6.287 12.134,6.384 11.969 C 6.509 11.757,6.398 11.811,8.927 10.722 C 10.164 10.189,10.762 9.912,10.870 9.819 C 10.956 9.746,11.087 9.572,11.163 9.433 L 11.300 9.180 11.320 7.859 L 11.340 6.538 11.471 6.271 C 11.598 6.015,11.908 5.680,12.019 5.680 C 12.045 5.680,12.147 5.760,12.246 5.857 " stroke="none" fill-rule="evenodd" fill="black"></path></svg>