<svg width="24" height="24" viewBox="0 0 24 24" fill="none" xmlns="http://www.w3.org/2000/svg"><path d="M11.815 1.277 C 11.638 1.321,11.461 1.456,11.353 1.631 C 11.265 1.772,11.260 1.816,11.260 2.500 C 11.260 3.184,11.265 3.228,11.353 3.369 C 11.710 3.943,12.576 3.812,12.716 3.162 C 12.771 2.904,12.772 2.080,12.717 1.841 C 12.623 1.432,12.215 1.177,11.815 1.277 M3.815 3.277 C 3.640 3.320,3.462 3.456,3.356 3.626 C 3.235 3.822,3.232 4.173,3.350 4.364 C 3.397 4.439,3.701 4.763,4.027 5.085 C 4.562 5.612,4.639 5.673,4.810 5.710 C 5.388 5.833,5.833 5.388,5.710 4.810 C 5.673 4.639,5.612 4.562,5.085 4.027 C 4.763 3.701,4.446 3.401,4.380 3.361 C 4.234 3.273,3.984 3.236,3.815 3.277 M19.900 3.259 C 19.878 3.267,19.807 3.285,19.743 3.299 C 19.613 3.328,18.496 4.400,18.350 4.636 C 18.232 4.827,18.235 5.178,18.356 5.374 C 18.532 5.659,18.840 5.784,19.189 5.711 C 19.364 5.674,19.433 5.618,20.026 5.026 C 20.618 4.433,20.674 4.364,20.711 4.189 C 20.782 3.848,20.658 3.530,20.389 3.367 C 20.265 3.292,19.983 3.229,19.900 3.259 M11.340 5.281 C 7.623 5.518,4.321 7.925,2.946 11.400 C 2.564 12.363,2.347 13.342,2.278 14.411 C 2.258 14.724,2.241 16.386,2.241 18.104 L 2.240 21.229 1.995 21.254 C 1.534 21.302,1.267 21.578,1.267 22.003 C 1.267 22.203,1.286 22.270,1.383 22.408 C 1.448 22.499,1.572 22.610,1.660 22.656 L 1.820 22.740 11.880 22.751 C 19.099 22.758,22.000 22.749,22.154 22.717 C 22.568 22.631,22.804 22.250,22.711 21.816 C 22.639 21.480,22.296 21.240,21.886 21.240 L 21.767 21.240 21.750 17.690 C 21.733 14.328,21.728 14.112,21.649 13.620 C 21.367 11.866,20.796 10.499,19.775 9.134 C 17.818 6.518,14.649 5.070,11.340 5.281 M12.961 6.802 C 15.364 7.099,17.500 8.406,18.855 10.410 C 19.398 11.212,19.889 12.378,20.077 13.309 C 20.232 14.073,20.240 14.304,20.240 17.809 L 20.240 21.240 12.000 21.240 L 3.760 21.240 3.760 17.809 C 3.760 14.304,3.768 14.073,3.923 13.309 C 4.164 12.117,4.837 10.703,5.593 9.800 C 5.895 9.440,6.359 8.971,6.700 8.681 C 7.866 7.691,9.435 7.004,10.984 6.806 C 11.379 6.755,12.563 6.753,12.961 6.802 " stroke="none" fill-rule="evenodd" fill="black"></path></svg>