<svg width="24" height="24" viewBox="0 0 24 24" fill="none" xmlns="http://www.w3.org/2000/svg"><path d="M6.380 3.787 C 6.017 3.832,5.621 3.945,5.320 4.089 C 4.706 4.383,4.318 4.875,4.112 5.620 C 4.025 5.933,4.023 5.999,4.009 8.587 L 3.996 11.234 2.885 11.247 L 1.774 11.260 1.612 11.367 C 1.372 11.526,1.267 11.721,1.267 12.007 C 1.267 12.203,1.286 12.270,1.383 12.408 C 1.607 12.724,1.671 12.738,2.908 12.753 L 3.996 12.766 4.009 15.413 C 4.023 18.001,4.025 18.067,4.112 18.380 C 4.317 19.121,4.711 19.621,5.320 19.911 C 5.869 20.172,6.110 20.212,7.289 20.231 C 8.432 20.250,8.837 20.215,9.352 20.053 C 9.638 19.964,9.981 19.778,10.202 19.592 C 10.364 19.457,10.634 19.071,10.732 18.838 C 10.977 18.250,10.973 18.301,10.990 15.410 L 11.004 12.760 11.762 12.760 L 12.520 12.760 12.520 14.310 C 12.520 15.162,12.538 15.968,12.559 16.100 C 12.738 17.209,13.374 17.888,14.480 18.149 C 14.836 18.233,16.678 18.268,17.180 18.200 C 18.202 18.062,18.883 17.610,19.230 16.840 C 19.448 16.356,19.479 16.045,19.479 14.330 L 19.480 12.760 20.718 12.760 C 22.154 12.760,22.299 12.741,22.520 12.520 C 22.918 12.122,22.730 11.423,22.189 11.286 C 22.068 11.256,21.566 11.240,20.742 11.240 L 19.480 11.240 19.479 9.670 C 19.479 8.292,19.470 8.056,19.404 7.740 C 19.167 6.600,18.446 5.971,17.180 5.800 C 16.637 5.727,14.833 5.764,14.440 5.857 C 13.499 6.078,12.905 6.626,12.635 7.520 C 12.549 7.807,12.544 7.893,12.530 9.530 L 12.515 11.240 11.759 11.240 L 11.004 11.240 10.989 8.590 C 10.976 6.198,10.967 5.913,10.902 5.660 C 10.626 4.586,9.949 3.991,8.808 3.819 C 8.450 3.765,6.737 3.742,6.380 3.787 M8.560 5.283 C 9.073 5.366,9.300 5.532,9.426 5.916 C 9.497 6.129,9.500 6.414,9.500 12.000 C 9.500 17.586,9.497 17.871,9.426 18.084 C 9.244 18.638,8.899 18.759,7.500 18.759 C 6.575 18.759,6.265 18.721,5.963 18.569 C 5.696 18.435,5.577 18.226,5.520 17.792 C 5.470 17.403,5.470 6.597,5.520 6.208 C 5.577 5.775,5.696 5.565,5.963 5.430 C 6.082 5.370,6.279 5.304,6.400 5.285 C 6.714 5.234,8.252 5.233,8.560 5.283 M17.351 7.336 C 17.636 7.427,17.818 7.596,17.907 7.852 C 17.976 8.047,17.980 8.297,17.980 12.000 C 17.980 16.249,17.987 16.104,17.769 16.395 C 17.545 16.695,17.076 16.778,15.769 16.750 C 14.759 16.728,14.543 16.688,14.302 16.476 C 14.219 16.403,14.137 16.275,14.093 16.148 C 14.024 15.953,14.020 15.703,14.020 12.000 C 14.020 8.297,14.024 8.047,14.093 7.852 C 14.210 7.515,14.445 7.355,14.936 7.278 C 15.048 7.260,15.590 7.251,16.140 7.257 C 16.943 7.267,17.182 7.282,17.351 7.336 " stroke="none" fill-rule="evenodd" fill="black"></path></svg>