<svg width="24" height="24" viewBox="0 0 24 24" fill="none" xmlns="http://www.w3.org/2000/svg"><path d="M18.720 1.304 C 18.550 1.378,18.414 1.500,18.326 1.660 C 18.269 1.764,18.258 1.966,18.248 3.149 L 18.235 4.517 14.788 4.530 C 11.635 4.541,11.319 4.548,11.100 4.612 C 10.138 4.895,9.576 5.493,9.360 6.466 C 9.201 7.181,9.214 8.971,9.383 9.640 C 9.561 10.344,9.981 10.891,10.560 11.173 C 11.177 11.473,10.945 11.457,14.790 11.470 L 18.240 11.483 18.240 12.241 L 18.240 13.000 12.543 13.000 C 8.728 13.000,6.742 13.014,6.533 13.043 C 5.381 13.200,4.688 13.771,4.402 14.801 C 4.187 15.575,4.187 17.425,4.402 18.199 C 4.688 19.229,5.381 19.800,6.533 19.957 C 6.742 19.986,8.728 20.000,12.540 20.000 L 18.234 20.000 18.247 21.090 L 18.260 22.180 18.366 22.360 C 18.652 22.846,19.348 22.846,19.634 22.360 L 19.740 22.180 19.740 12.020 C 19.740 6.432,19.727 1.812,19.710 1.753 C 19.636 1.491,19.289 1.241,19.000 1.242 C 18.923 1.243,18.797 1.270,18.720 1.304 M18.240 8.000 L 18.240 10.000 15.002 10.000 C 11.628 10.000,11.489 9.994,11.188 9.827 C 10.830 9.629,10.760 9.330,10.760 8.000 C 10.760 6.691,10.830 6.381,11.167 6.182 C 11.457 6.011,11.551 6.007,14.970 6.003 L 18.240 6.000 18.240 8.000 M18.240 16.500 L 18.240 18.520 12.630 18.519 C 9.248 18.518,6.901 18.502,6.721 18.479 C 6.204 18.412,5.953 18.227,5.830 17.824 C 5.760 17.594,5.760 15.406,5.830 15.176 C 5.949 14.784,6.211 14.585,6.685 14.523 C 6.825 14.505,9.482 14.488,12.590 14.485 L 18.240 14.480 18.240 16.500 " stroke="none" fill-rule="evenodd" fill="black"></path></svg>