<svg width="24" height="24" viewBox="0 0 24 24" fill="none" xmlns="http://www.w3.org/2000/svg"><path d="M4.698 1.315 C 4.517 1.398,4.335 1.593,4.290 1.753 C 4.273 1.812,4.260 6.432,4.260 12.020 L 4.260 22.180 4.366 22.360 C 4.652 22.846,5.348 22.846,5.634 22.360 L 5.740 22.180 5.753 21.090 L 5.766 20.000 11.460 20.000 C 15.272 20.000,17.258 19.986,17.467 19.957 C 18.619 19.800,19.312 19.229,19.598 18.199 C 19.813 17.425,19.813 15.575,19.598 14.801 C 19.312 13.771,18.619 13.200,17.467 13.043 C 17.258 13.014,15.272 13.000,11.457 13.000 L 5.760 13.000 5.760 12.241 L 5.760 11.483 9.210 11.470 C 13.055 11.457,12.823 11.473,13.440 11.173 C 14.026 10.887,14.444 10.337,14.621 9.620 C 14.803 8.877,14.803 7.123,14.621 6.380 C 14.396 5.465,13.832 4.886,12.900 4.612 C 12.681 4.548,12.365 4.541,9.212 4.530 L 5.765 4.517 5.752 3.149 C 5.742 1.966,5.731 1.764,5.674 1.660 C 5.474 1.297,5.060 1.151,4.698 1.315 M12.448 6.044 C 12.888 6.136,13.065 6.306,13.179 6.741 C 13.267 7.080,13.267 8.920,13.179 9.259 C 13.065 9.694,12.888 9.864,12.448 9.956 C 12.303 9.986,11.217 10.000,8.998 10.000 L 5.760 10.000 5.760 8.000 L 5.760 6.000 8.998 6.000 C 11.217 6.000,12.303 6.014,12.448 6.044 M17.279 14.521 C 17.796 14.588,18.047 14.773,18.170 15.176 C 18.240 15.406,18.240 17.594,18.170 17.824 C 18.047 18.227,17.796 18.412,17.279 18.479 C 17.099 18.502,14.752 18.518,11.370 18.519 L 5.760 18.520 5.760 16.500 L 5.760 14.480 11.370 14.481 C 14.752 14.482,17.099 14.498,17.279 14.521 " stroke="none" fill-rule="evenodd" fill="black"></path></svg>