<svg width="24" height="24" viewBox="0 0 24 24" fill="none" xmlns="http://www.w3.org/2000/svg"><path d="M1.815 4.278 C 1.331 4.393,1.098 5.004,1.383 5.408 C 1.448 5.499,1.572 5.610,1.660 5.656 C 1.811 5.736,1.892 5.741,3.168 5.752 L 4.517 5.765 4.530 9.192 C 4.545 13.020,4.530 12.815,4.833 13.439 C 5.108 14.005,5.681 14.443,6.380 14.620 C 7.096 14.802,8.933 14.802,9.644 14.620 C 10.531 14.393,11.155 13.788,11.380 12.937 C 11.497 12.495,11.517 11.905,11.519 8.830 L 11.520 5.760 12.260 5.760 L 13.000 5.760 13.001 11.330 C 13.002 14.431,13.019 17.077,13.040 17.300 C 13.087 17.807,13.164 18.104,13.345 18.474 C 13.608 19.014,14.118 19.408,14.801 19.598 C 15.468 19.784,17.299 19.808,18.054 19.640 C 19.035 19.422,19.629 18.857,19.905 17.880 C 19.974 17.634,19.979 17.301,19.990 11.690 L 20.002 5.760 20.979 5.760 C 22.135 5.760,22.307 5.733,22.520 5.520 C 22.918 5.122,22.730 4.423,22.189 4.286 C 21.978 4.233,2.036 4.225,1.815 4.278 M10.000 9.053 C 10.000 11.965,9.993 12.371,9.936 12.563 C 9.853 12.840,9.751 12.983,9.566 13.077 C 9.283 13.221,8.990 13.248,7.859 13.231 C 6.663 13.213,6.538 13.191,6.289 12.949 C 6.015 12.684,6.023 12.790,6.009 9.090 L 5.997 5.760 7.999 5.760 L 10.000 5.760 10.000 9.053 M18.511 11.590 C 18.499 18.158,18.521 17.696,18.200 17.971 C 17.937 18.195,17.846 18.211,16.661 18.230 C 15.024 18.256,14.766 18.173,14.584 17.563 C 14.526 17.367,14.520 16.764,14.520 11.553 L 14.520 5.760 16.521 5.760 L 18.522 5.760 18.511 11.590 " stroke="none" fill-rule="evenodd" fill="black"></path></svg>