<svg width="24" height="24" viewBox="0 0 24 24" fill="none" xmlns="http://www.w3.org/2000/svg"><path d="M6.732 1.284 C 5.027 1.436,3.490 2.608,2.884 4.220 C 2.710 4.683,2.647 4.966,2.601 5.483 C 2.547 6.095,2.547 19.800,2.601 20.315 C 2.685 21.112,2.896 21.612,3.340 22.064 C 3.920 22.655,4.738 22.872,5.600 22.663 C 6.054 22.553,6.435 22.359,9.102 20.878 C 11.770 19.397,11.750 19.406,12.226 19.481 C 12.479 19.521,12.239 19.396,15.060 20.961 C 16.358 21.680,17.519 22.319,17.640 22.381 C 18.218 22.672,18.869 22.801,19.381 22.725 C 20.187 22.605,20.775 22.164,21.122 21.420 C 21.442 20.736,21.415 21.429,21.431 13.200 C 21.441 8.032,21.431 5.731,21.400 5.423 C 21.286 4.299,20.813 3.320,20.015 2.558 C 19.209 1.788,18.307 1.379,17.197 1.281 C 16.648 1.233,7.280 1.235,6.732 1.284 M17.810 2.905 C 18.319 3.087,18.572 3.252,19.000 3.680 C 19.588 4.268,19.836 4.782,19.922 5.594 C 19.949 5.848,19.959 8.437,19.952 13.180 C 19.940 19.891,19.935 20.394,19.870 20.584 C 19.665 21.184,19.212 21.391,18.588 21.168 C 18.461 21.122,17.192 20.438,15.768 19.648 C 14.345 18.858,13.079 18.174,12.956 18.128 C 12.479 17.952,11.782 17.926,11.253 18.064 C 10.959 18.140,10.822 18.212,8.057 19.748 C 6.713 20.494,5.511 21.137,5.386 21.176 C 4.775 21.368,4.327 21.158,4.157 20.600 C 4.080 20.345,4.079 20.205,4.089 12.780 L 4.100 5.220 4.209 4.900 C 4.269 4.724,4.386 4.465,4.469 4.324 C 4.793 3.774,5.493 3.162,6.028 2.960 C 6.559 2.759,6.379 2.765,12.100 2.773 L 17.460 2.780 17.810 2.905 M11.619 7.577 C 11.529 7.631,11.415 7.750,11.359 7.847 C 11.262 8.016,11.260 8.044,11.247 8.970 L 11.234 9.920 10.267 9.920 C 9.425 9.920,9.282 9.929,9.163 9.990 C 8.666 10.244,8.625 10.944,9.088 11.266 L 9.253 11.380 10.243 11.393 L 11.234 11.405 11.247 12.413 C 11.261 13.495,11.270 13.546,11.487 13.748 C 11.609 13.863,11.845 13.960,12.000 13.960 C 12.155 13.960,12.391 13.863,12.513 13.748 C 12.730 13.546,12.739 13.495,12.753 12.413 L 12.766 11.405 13.757 11.393 L 14.747 11.380 14.912 11.266 C 15.306 10.992,15.346 10.420,14.994 10.093 C 14.825 9.936,14.710 9.920,13.721 9.920 L 12.766 9.920 12.753 8.970 C 12.740 8.025,12.739 8.019,12.634 7.840 C 12.427 7.488,11.967 7.369,11.619 7.577 " stroke="none" fill-rule="evenodd" fill="black"></path></svg>