<svg width="24" height="24" viewBox="0 0 24 24" fill="none" xmlns="http://www.w3.org/2000/svg"><path d="M8.080 1.282 C 4.008 1.495,1.895 3.296,1.383 6.991 C 1.270 7.803,1.242 8.816,1.242 12.000 C 1.242 16.504,1.302 17.273,1.760 18.650 C 2.532 20.963,4.206 22.226,7.027 22.622 C 7.786 22.728,8.902 22.759,12.000 22.759 C 15.098 22.759,16.214 22.728,16.973 22.622 C 19.443 22.275,20.996 21.288,21.897 19.490 C 22.379 18.530,22.638 17.369,22.720 15.807 C 22.771 14.838,22.771 9.162,22.720 8.193 C 22.657 6.998,22.521 6.191,22.242 5.356 C 21.632 3.531,20.469 2.367,18.650 1.760 C 17.788 1.473,17.023 1.344,15.806 1.280 C 14.952 1.235,8.952 1.237,8.080 1.282 M16.800 2.854 C 19.586 3.316,20.714 4.454,21.148 7.240 C 21.214 7.661,21.220 8.064,21.220 12.000 C 21.220 15.936,21.214 16.339,21.148 16.760 C 20.712 19.558,19.558 20.712,16.760 21.148 C 16.339 21.214,15.936 21.220,12.000 21.220 C 8.064 21.220,7.661 21.214,7.240 21.148 C 4.450 20.713,3.283 19.551,2.854 16.780 C 2.785 16.335,2.780 15.989,2.780 12.000 C 2.780 7.247,2.776 7.337,3.044 6.288 C 3.557 4.282,4.722 3.274,6.960 2.900 C 7.690 2.777,8.048 2.769,12.200 2.777 C 15.963 2.784,16.422 2.791,16.800 2.854 M7.420 5.065 C 6.632 5.231,5.897 5.807,5.538 6.540 C 5.248 7.133,5.264 6.873,5.250 11.150 L 5.236 15.000 5.057 15.000 C 4.851 15.000,4.623 15.085,4.487 15.212 C 4.140 15.536,4.213 16.144,4.628 16.387 L 4.797 16.486 6.815 16.483 L 8.834 16.479 8.861 16.604 C 8.912 16.837,9.112 17.273,9.284 17.527 C 9.742 18.203,10.382 18.670,11.148 18.888 C 11.594 19.014,12.406 19.014,12.852 18.888 C 13.879 18.596,14.730 17.802,15.061 16.828 L 15.179 16.480 17.191 16.483 L 19.203 16.486 19.372 16.387 C 19.787 16.144,19.860 15.536,19.513 15.212 C 19.377 15.085,19.149 15.000,18.943 15.000 L 18.764 15.000 18.750 11.150 C 18.738 7.646,18.731 7.278,18.668 7.060 C 18.375 6.042,17.551 5.265,16.552 5.062 C 16.103 4.972,7.853 4.974,7.420 5.065 M16.486 6.606 C 16.748 6.729,16.998 6.964,17.127 7.208 C 17.207 7.359,17.220 7.451,17.233 7.956 C 17.247 8.503,17.244 8.530,17.174 8.500 C 17.133 8.483,16.956 8.421,16.780 8.364 L 16.460 8.260 12.000 8.260 L 7.540 8.260 7.220 8.364 C 7.044 8.421,6.867 8.483,6.826 8.500 C 6.756 8.530,6.753 8.503,6.767 7.956 C 6.780 7.451,6.793 7.359,6.873 7.208 C 7.058 6.857,7.424 6.584,7.797 6.520 C 7.898 6.502,9.843 6.491,12.120 6.494 L 16.260 6.500 16.486 6.606 M16.454 9.841 C 16.744 9.950,17.050 10.256,17.159 10.546 C 17.228 10.731,17.240 10.858,17.240 11.403 L 17.240 12.042 17.118 11.979 C 17.050 11.944,16.859 11.881,16.691 11.838 C 16.399 11.763,16.214 11.760,12.000 11.760 C 7.786 11.760,7.601 11.763,7.309 11.838 C 7.141 11.881,6.950 11.944,6.882 11.979 L 6.760 12.042 6.760 11.403 C 6.760 10.621,6.812 10.439,7.126 10.126 C 7.516 9.736,7.132 9.764,11.988 9.762 C 16.162 9.760,16.241 9.761,16.454 9.841 M16.489 13.367 C 16.998 13.606,17.240 14.017,17.240 14.642 L 17.240 15.000 15.830 15.000 C 14.972 15.000,14.361 15.017,14.269 15.042 C 14.075 15.096,13.854 15.318,13.805 15.510 C 13.783 15.592,13.746 15.804,13.722 15.980 C 13.667 16.385,13.527 16.668,13.234 16.969 C 12.552 17.667,11.448 17.667,10.766 16.969 C 10.473 16.668,10.333 16.385,10.278 15.980 C 10.254 15.804,10.217 15.593,10.196 15.511 C 10.148 15.325,9.916 15.094,9.724 15.040 C 9.641 15.017,8.987 15.000,8.170 15.000 L 6.760 15.000 6.760 14.642 C 6.760 14.377,6.782 14.225,6.842 14.063 C 6.987 13.676,7.383 13.351,7.797 13.280 C 7.898 13.262,9.843 13.251,12.120 13.254 L 16.260 13.260 16.489 13.367 " stroke="none" fill-rule="evenodd" fill="black"></path></svg>