<svg width="24" height="24" viewBox="0 0 24 24" fill="none" xmlns="http://www.w3.org/2000/svg"><path d="M4.498 1.281 C 2.998 1.407,1.968 2.126,1.517 3.362 C 1.287 3.991,1.262 4.255,1.262 6.000 C 1.262 7.747,1.287 8.009,1.519 8.643 C 1.843 9.531,2.526 10.200,3.417 10.502 L 3.760 10.619 3.760 15.079 C 3.761 17.819,3.776 19.679,3.801 19.900 C 3.991 21.591,4.807 22.421,6.540 22.685 C 7.070 22.766,16.930 22.766,17.460 22.685 C 19.193 22.421,20.009 21.591,20.199 19.900 C 20.224 19.679,20.239 17.819,20.240 15.079 L 20.240 10.619 20.583 10.502 C 21.701 10.123,22.430 9.230,22.669 7.948 C 22.771 7.406,22.771 4.594,22.669 4.052 C 22.434 2.789,21.735 1.917,20.639 1.517 C 19.907 1.250,20.432 1.266,12.260 1.258 C 8.190 1.253,4.697 1.264,4.498 1.281 M19.773 2.819 C 20.552 2.984,21.017 3.447,21.180 4.220 C 21.265 4.624,21.265 7.376,21.180 7.780 C 21.017 8.553,20.552 9.016,19.773 9.181 C 19.363 9.268,4.637 9.268,4.227 9.181 C 3.448 9.016,2.983 8.553,2.820 7.780 C 2.736 7.379,2.735 4.624,2.819 4.227 C 2.982 3.457,3.445 2.986,4.200 2.823 C 4.595 2.737,19.370 2.734,19.773 2.819 M18.751 15.290 L 18.738 19.820 18.648 20.140 C 18.476 20.753,18.216 21.005,17.604 21.149 C 17.320 21.215,16.948 21.220,12.000 21.220 C 7.052 21.220,6.680 21.215,6.396 21.149 C 5.784 21.005,5.524 20.753,5.352 20.140 L 5.262 19.820 5.249 15.290 L 5.237 10.760 12.000 10.760 L 18.763 10.760 18.751 15.290 M10.100 13.259 C 10.078 13.267,10.011 13.284,9.951 13.297 C 9.804 13.329,9.561 13.548,9.494 13.708 C 9.371 14.002,9.451 14.336,9.695 14.550 C 9.775 14.621,9.891 14.693,9.951 14.709 C 10.093 14.749,13.907 14.749,14.049 14.709 C 14.201 14.667,14.441 14.447,14.506 14.292 C 14.617 14.027,14.561 13.711,14.367 13.506 C 14.126 13.252,14.208 13.261,12.080 13.252 C 11.013 13.248,10.122 13.251,10.100 13.259 " stroke="none" fill-rule="evenodd" fill="black"></path></svg>