<svg width="24" height="24" viewBox="0 0 24 24" fill="none" xmlns="http://www.w3.org/2000/svg"><path d="M7.400 1.282 C 5.512 1.403,4.102 2.116,3.237 3.386 C 2.653 4.245,2.363 5.182,2.280 6.474 C 2.228 7.300,2.228 16.700,2.280 17.526 C 2.363 18.816,2.655 19.759,3.241 20.619 C 3.843 21.503,4.743 22.135,5.861 22.459 C 6.819 22.737,7.259 22.758,12.000 22.758 C 15.920 22.758,16.791 22.737,17.441 22.623 C 19.703 22.226,21.146 20.813,21.599 18.555 C 21.740 17.850,21.760 17.062,21.760 12.000 C 21.760 6.926,21.741 6.153,21.597 5.434 C 21.340 4.143,20.715 3.063,19.845 2.406 C 18.895 1.688,17.970 1.375,16.520 1.280 C 15.849 1.236,8.086 1.237,7.400 1.282 M7.769 6.490 L 7.780 10.220 7.872 10.392 C 8.165 10.940,8.726 11.205,9.289 11.061 C 9.425 11.026,9.590 10.964,9.654 10.923 C 9.719 10.882,10.268 10.392,10.873 9.834 C 11.478 9.276,11.985 8.820,12.000 8.820 C 12.015 8.820,12.524 9.279,13.131 9.840 C 14.382 10.995,14.521 11.091,14.956 11.093 C 15.465 11.096,15.861 10.869,16.101 10.434 L 16.220 10.220 16.231 6.485 L 16.242 2.749 16.617 2.777 C 17.389 2.833,18.190 3.080,18.693 3.415 C 19.420 3.900,19.868 4.594,20.113 5.615 L 20.220 6.060 20.220 12.000 L 20.220 17.940 20.113 18.385 C 19.921 19.188,19.648 19.712,19.180 20.180 C 18.712 20.648,18.188 20.921,17.385 21.113 L 16.940 21.220 12.000 21.220 L 7.060 21.220 6.615 21.113 C 5.092 20.748,4.266 19.928,3.888 18.405 L 3.783 17.980 3.769 12.260 C 3.760 8.455,3.770 6.418,3.797 6.177 C 3.998 4.431,4.897 3.325,6.432 2.936 C 6.852 2.829,7.220 2.773,7.549 2.765 L 7.758 2.760 7.769 6.490 M14.760 6.025 C 14.760 9.071,14.756 9.286,14.693 9.235 C 14.656 9.205,14.202 8.788,13.683 8.309 C 12.587 7.297,12.476 7.225,12.000 7.225 C 11.527 7.225,11.411 7.299,10.336 8.289 C 9.828 8.757,9.374 9.174,9.326 9.216 L 9.240 9.292 9.240 6.026 L 9.240 2.760 12.000 2.760 L 14.760 2.760 14.760 6.025 M13.094 13.277 C 12.436 13.439,12.303 14.307,12.886 14.640 L 13.060 14.740 15.340 14.740 C 16.594 14.740,17.669 14.726,17.729 14.709 C 17.881 14.667,18.121 14.447,18.186 14.292 C 18.297 14.027,18.241 13.711,18.047 13.506 C 17.804 13.249,17.920 13.261,15.460 13.253 C 14.228 13.250,13.163 13.260,13.094 13.277 M8.815 17.278 C 8.330 17.395,8.098 18.004,8.383 18.408 C 8.447 18.499,8.572 18.610,8.660 18.656 C 8.819 18.740,8.835 18.740,13.220 18.740 C 15.640 18.740,17.669 18.726,17.729 18.709 C 17.881 18.667,18.121 18.447,18.186 18.292 C 18.297 18.027,18.241 17.711,18.047 17.506 C 17.797 17.242,18.151 17.261,13.320 17.254 C 10.911 17.250,8.884 17.261,8.815 17.278 " stroke="none" fill-rule="evenodd" fill="black"></path></svg>