<svg width="24" height="24" viewBox="0 0 24 24" fill="none" xmlns="http://www.w3.org/2000/svg"><path d="M6.732 1.283 C 5.466 1.399,4.282 2.065,3.514 3.093 C 2.956 3.841,2.683 4.555,2.601 5.483 C 2.546 6.111,2.547 19.875,2.603 20.117 L 2.643 20.293 2.007 20.937 C 1.657 21.291,1.347 21.625,1.319 21.680 C 1.290 21.735,1.267 21.881,1.267 22.004 C 1.267 22.498,1.681 22.816,2.189 22.712 C 2.376 22.674,2.592 22.460,12.490 12.566 C 18.342 6.717,22.628 2.403,22.665 2.324 C 22.753 2.138,22.747 1.837,22.651 1.651 C 22.608 1.568,22.499 1.447,22.408 1.383 C 22.271 1.287,22.202 1.267,22.011 1.267 C 21.884 1.267,21.735 1.290,21.680 1.318 C 21.625 1.347,21.270 1.677,20.892 2.052 L 20.203 2.734 19.992 2.528 C 19.384 1.939,18.580 1.524,17.660 1.328 C 17.421 1.277,16.628 1.266,12.240 1.258 C 9.413 1.253,6.935 1.264,6.732 1.283 M17.705 2.865 C 17.979 2.960,18.378 3.155,18.590 3.299 C 18.748 3.406,19.120 3.754,19.120 3.794 C 19.120 3.808,15.736 7.204,11.600 11.340 L 4.079 18.860 4.090 12.040 L 4.100 5.220 4.209 4.900 C 4.269 4.724,4.386 4.465,4.469 4.324 C 4.793 3.774,5.493 3.162,6.028 2.960 C 6.559 2.759,6.378 2.765,12.100 2.774 C 17.429 2.781,17.461 2.782,17.705 2.865 M20.400 8.024 C 20.230 8.098,20.094 8.220,20.006 8.380 C 19.946 8.490,19.938 9.010,19.920 14.420 C 19.900 20.328,19.900 20.340,19.816 20.545 C 19.695 20.839,19.550 21.011,19.316 21.138 C 19.129 21.240,19.084 21.248,18.786 21.232 C 18.542 21.218,18.390 21.184,18.180 21.094 C 18.026 21.028,16.451 20.068,14.680 18.960 C 12.909 17.852,11.393 16.912,11.312 16.873 C 11.016 16.728,10.674 16.799,10.451 17.054 C 10.174 17.369,10.197 17.801,10.506 18.084 C 10.694 18.256,17.093 22.233,17.455 22.402 C 17.917 22.619,18.406 22.730,18.880 22.727 C 19.588 22.721,20.081 22.521,20.560 22.044 C 21.080 21.526,21.324 20.948,21.401 20.051 C 21.430 19.703,21.440 17.777,21.432 14.020 C 21.421 8.973,21.414 8.490,21.354 8.380 C 21.160 8.028,20.746 7.874,20.400 8.024 " stroke="none" fill-rule="evenodd" fill="black"></path></svg>