<svg width="24" height="24" viewBox="0 0 24 24" fill="none" xmlns="http://www.w3.org/2000/svg"><path d="M8.080 1.282 C 4.008 1.495,1.895 3.296,1.383 6.991 C 1.270 7.803,1.242 8.816,1.242 12.000 C 1.242 16.504,1.302 17.273,1.760 18.650 C 2.532 20.963,4.206 22.226,7.027 22.622 C 7.786 22.728,8.902 22.759,12.000 22.759 C 15.098 22.759,16.214 22.728,16.973 22.622 C 19.443 22.275,20.996 21.288,21.897 19.490 C 22.379 18.530,22.638 17.369,22.720 15.807 C 22.771 14.838,22.771 9.162,22.720 8.193 C 22.657 6.998,22.521 6.191,22.242 5.356 C 21.632 3.531,20.469 2.367,18.650 1.760 C 17.788 1.473,17.023 1.344,15.806 1.280 C 14.952 1.235,8.952 1.237,8.080 1.282 M16.800 2.854 C 19.586 3.316,20.714 4.454,21.148 7.240 C 21.214 7.661,21.220 8.064,21.220 12.000 C 21.220 15.936,21.214 16.339,21.148 16.760 C 20.712 19.558,19.558 20.712,16.760 21.148 C 16.339 21.214,15.936 21.220,12.000 21.220 C 8.064 21.220,7.661 21.214,7.240 21.148 C 4.450 20.713,3.283 19.551,2.854 16.780 C 2.785 16.335,2.780 15.989,2.780 12.000 C 2.780 7.247,2.776 7.337,3.044 6.288 C 3.557 4.282,4.722 3.274,6.960 2.900 C 7.690 2.777,8.048 2.769,12.200 2.777 C 15.963 2.784,16.422 2.791,16.800 2.854 M9.580 6.462 C 9.426 6.541,6.255 9.701,6.172 9.859 C 6.091 10.011,6.090 10.347,6.171 10.501 C 6.252 10.656,6.431 10.824,6.573 10.877 C 6.650 10.907,8.343 10.920,12.004 10.920 C 17.154 10.920,17.328 10.918,17.472 10.844 C 17.758 10.697,17.880 10.494,17.880 10.167 C 17.880 9.932,17.784 9.741,17.586 9.583 L 17.433 9.460 13.049 9.449 L 8.666 9.439 9.609 8.488 C 10.633 7.456,10.680 7.388,10.622 7.022 C 10.548 6.557,9.985 6.254,9.580 6.462 M6.540 13.143 C 6.253 13.292,6.120 13.509,6.120 13.829 C 6.120 14.068,6.215 14.259,6.414 14.417 L 6.567 14.540 10.951 14.551 L 15.335 14.561 14.392 15.511 C 13.366 16.542,13.320 16.610,13.378 16.978 C 13.452 17.445,14.001 17.741,14.412 17.536 C 14.570 17.457,17.741 14.306,17.828 14.141 C 17.909 13.989,17.910 13.653,17.829 13.499 C 17.748 13.344,17.569 13.176,17.427 13.123 C 17.350 13.093,15.655 13.080,11.987 13.080 C 7.239 13.080,6.647 13.087,6.540 13.143 " stroke="none" fill-rule="evenodd" fill="black"></path></svg>