<svg width="24" height="24" viewBox="0 0 24 24" fill="none" xmlns="http://www.w3.org/2000/svg"><path d="M8.080 1.282 C 4.008 1.495,1.895 3.296,1.383 6.991 C 1.270 7.803,1.242 8.816,1.242 12.000 C 1.242 16.504,1.302 17.273,1.760 18.650 C 2.532 20.963,4.206 22.226,7.027 22.622 C 7.786 22.728,8.902 22.759,12.000 22.759 C 15.098 22.759,16.214 22.728,16.973 22.622 C 19.443 22.275,20.996 21.288,21.897 19.490 C 22.379 18.530,22.638 17.369,22.720 15.807 C 22.771 14.838,22.771 9.162,22.720 8.193 C 22.657 6.998,22.521 6.191,22.242 5.356 C 21.632 3.531,20.469 2.367,18.650 1.760 C 17.788 1.473,17.023 1.344,15.806 1.280 C 14.952 1.235,8.952 1.237,8.080 1.282 M16.800 2.854 C 19.586 3.316,20.714 4.454,21.148 7.240 C 21.214 7.661,21.220 8.064,21.220 12.000 C 21.220 15.936,21.214 16.339,21.148 16.760 C 20.712 19.558,19.558 20.712,16.760 21.148 C 16.339 21.214,15.936 21.220,12.000 21.220 C 8.064 21.220,7.661 21.214,7.240 21.148 C 4.450 20.713,3.283 19.551,2.854 16.780 C 2.785 16.335,2.780 15.989,2.780 12.000 C 2.780 7.247,2.776 7.337,3.044 6.288 C 3.557 4.282,4.722 3.274,6.960 2.900 C 7.690 2.777,8.048 2.769,12.200 2.777 C 15.963 2.784,16.422 2.791,16.800 2.854 M13.660 6.117 C 13.594 6.133,13.502 6.167,13.455 6.192 C 13.314 6.268,13.125 6.511,13.100 6.649 C 13.088 6.721,13.082 9.177,13.089 12.106 L 13.100 17.433 13.223 17.586 C 13.381 17.784,13.572 17.880,13.807 17.880 C 14.134 17.880,14.337 17.758,14.484 17.472 C 14.557 17.328,14.560 17.171,14.560 12.994 L 14.560 8.665 15.511 9.609 C 16.544 10.633,16.611 10.680,16.978 10.622 C 17.445 10.548,17.741 9.999,17.536 9.588 C 17.462 9.440,14.310 6.261,14.160 6.183 C 14.023 6.111,13.804 6.083,13.660 6.117 M9.843 6.190 C 9.767 6.229,9.650 6.329,9.583 6.414 L 9.460 6.567 9.449 10.951 L 9.439 15.334 8.488 14.391 C 7.456 13.367,7.388 13.320,7.022 13.378 C 6.572 13.449,6.281 13.957,6.442 14.387 C 6.492 14.521,9.686 17.737,9.859 17.829 C 10.011 17.909,10.347 17.909,10.501 17.829 C 10.656 17.748,10.824 17.569,10.877 17.427 C 10.907 17.350,10.920 15.657,10.920 11.996 C 10.920 6.846,10.918 6.672,10.844 6.528 C 10.752 6.349,10.619 6.220,10.467 6.163 C 10.298 6.098,9.997 6.111,9.843 6.190 " stroke="none" fill-rule="evenodd" fill="black"></path></svg>