<svg width="24" height="24" viewBox="0 0 24 24" fill="none" xmlns="http://www.w3.org/2000/svg"><path d="M11.320 1.281 C 7.041 1.525,3.252 4.409,1.843 8.497 C 1.180 10.418,1.082 12.560,1.564 14.550 C 2.505 18.428,5.572 21.495,9.450 22.436 C 11.106 22.837,12.894 22.837,14.550 22.436 C 18.428 21.495,21.495 18.428,22.436 14.550 C 22.837 12.894,22.837 11.106,22.436 9.450 C 21.425 5.282,17.985 2.095,13.742 1.398 C 13.334 1.331,12.074 1.229,11.880 1.247 C 11.847 1.250,11.595 1.265,11.320 1.281 M13.146 2.822 C 14.201 2.960,15.125 3.237,16.060 3.696 C 18.877 5.079,20.768 7.722,21.178 10.854 C 21.301 11.786,21.244 13.026,21.034 13.998 C 20.745 15.343,20.003 16.855,19.121 17.900 C 18.247 18.935,17.240 19.726,16.060 20.304 C 14.761 20.940,13.462 21.240,12.000 21.240 C 10.538 21.240,9.236 20.940,7.940 20.304 C 5.123 18.921,3.232 16.278,2.822 13.146 C 2.699 12.214,2.756 10.974,2.966 10.002 C 3.177 9.020,3.703 7.775,4.268 6.920 C 5.750 4.677,8.131 3.188,10.820 2.823 C 11.380 2.746,12.569 2.746,13.146 2.822 M9.580 6.462 C 9.426 6.541,6.255 9.701,6.172 9.859 C 6.091 10.011,6.090 10.347,6.171 10.501 C 6.252 10.656,6.431 10.824,6.573 10.877 C 6.650 10.907,8.343 10.920,12.004 10.920 C 17.154 10.920,17.328 10.918,17.472 10.844 C 17.758 10.697,17.880 10.494,17.880 10.167 C 17.880 9.932,17.784 9.741,17.586 9.583 L 17.433 9.460 13.049 9.449 L 8.666 9.439 9.609 8.488 C 10.633 7.456,10.680 7.388,10.622 7.022 C 10.548 6.557,9.985 6.254,9.580 6.462 M6.540 13.143 C 6.253 13.292,6.120 13.509,6.120 13.829 C 6.120 14.068,6.215 14.259,6.414 14.417 L 6.567 14.540 10.951 14.551 L 15.335 14.561 14.392 15.511 C 13.366 16.542,13.320 16.610,13.378 16.978 C 13.452 17.445,14.001 17.741,14.412 17.536 C 14.570 17.457,17.741 14.306,17.828 14.141 C 17.909 13.989,17.910 13.653,17.829 13.499 C 17.748 13.344,17.569 13.176,17.427 13.123 C 17.350 13.093,15.655 13.080,11.987 13.080 C 7.239 13.080,6.647 13.087,6.540 13.143 " stroke="none" fill-rule="evenodd" fill="black"></path></svg>