<svg width="24" height="24" viewBox="0 0 24 24" fill="none" xmlns="http://www.w3.org/2000/svg"><path d="M11.320 1.281 C 7.041 1.525,3.252 4.409,1.843 8.497 C 1.180 10.418,1.082 12.560,1.564 14.550 C 2.505 18.428,5.572 21.495,9.450 22.436 C 11.106 22.837,12.894 22.837,14.550 22.436 C 18.428 21.495,21.495 18.428,22.436 14.550 C 22.837 12.894,22.837 11.106,22.436 9.450 C 21.425 5.282,17.985 2.095,13.742 1.398 C 13.334 1.331,12.074 1.229,11.880 1.247 C 11.847 1.250,11.595 1.265,11.320 1.281 M13.146 2.822 C 14.201 2.960,15.125 3.237,16.060 3.696 C 18.877 5.079,20.768 7.722,21.178 10.854 C 21.301 11.786,21.244 13.026,21.034 13.998 C 20.745 15.343,20.003 16.855,19.121 17.900 C 18.247 18.935,17.240 19.726,16.060 20.304 C 14.761 20.940,13.462 21.240,12.000 21.240 C 10.538 21.240,9.236 20.940,7.940 20.304 C 5.123 18.921,3.232 16.278,2.822 13.146 C 2.699 12.214,2.756 10.974,2.966 10.002 C 3.177 9.020,3.703 7.775,4.268 6.920 C 5.750 4.677,8.131 3.188,10.820 2.823 C 11.380 2.746,12.569 2.746,13.146 2.822 M13.660 6.117 C 13.594 6.133,13.502 6.167,13.455 6.192 C 13.314 6.268,13.125 6.511,13.100 6.649 C 13.088 6.721,13.082 9.177,13.089 12.106 L 13.100 17.433 13.223 17.586 C 13.381 17.784,13.572 17.880,13.807 17.880 C 14.134 17.880,14.337 17.758,14.484 17.472 C 14.557 17.328,14.560 17.171,14.560 12.994 L 14.560 8.665 15.511 9.609 C 16.544 10.633,16.611 10.680,16.978 10.622 C 17.445 10.548,17.741 9.999,17.536 9.588 C 17.462 9.440,14.310 6.261,14.160 6.183 C 14.023 6.111,13.804 6.083,13.660 6.117 M9.843 6.190 C 9.767 6.229,9.650 6.329,9.583 6.414 L 9.460 6.567 9.449 10.951 L 9.439 15.334 8.488 14.391 C 7.461 13.372,7.392 13.324,7.028 13.373 C 6.580 13.433,6.280 13.954,6.442 14.387 C 6.492 14.521,9.686 17.737,9.859 17.829 C 10.011 17.909,10.347 17.909,10.501 17.829 C 10.656 17.748,10.824 17.569,10.877 17.427 C 10.907 17.350,10.920 15.657,10.920 11.996 C 10.920 6.846,10.918 6.672,10.844 6.528 C 10.752 6.349,10.619 6.220,10.467 6.163 C 10.298 6.098,9.997 6.111,9.843 6.190 " stroke="none" fill-rule="evenodd" fill="black"></path></svg>