<svg width="24" height="24" viewBox="0 0 24 24" fill="none" xmlns="http://www.w3.org/2000/svg"><path d="M11.320 1.281 C 7.041 1.525,3.252 4.409,1.843 8.497 C 1.180 10.418,1.082 12.560,1.564 14.550 C 2.505 18.428,5.572 21.495,9.450 22.436 C 11.106 22.837,12.894 22.837,14.550 22.436 C 18.428 21.495,21.495 18.428,22.436 14.550 C 22.837 12.894,22.837 11.106,22.436 9.450 C 21.425 5.282,17.985 2.095,13.742 1.398 C 13.334 1.331,12.074 1.229,11.880 1.247 C 11.847 1.250,11.595 1.265,11.320 1.281 M13.146 2.822 C 14.201 2.960,15.125 3.237,16.060 3.696 C 18.877 5.079,20.768 7.722,21.178 10.854 C 21.301 11.786,21.244 13.026,21.034 13.998 C 20.745 15.343,20.003 16.855,19.121 17.900 C 18.247 18.935,17.240 19.726,16.060 20.304 C 14.761 20.940,13.462 21.240,12.000 21.240 C 10.538 21.240,9.236 20.940,7.940 20.304 C 5.123 18.921,3.232 16.278,2.822 13.146 C 2.699 12.214,2.756 10.974,2.966 10.002 C 3.177 9.020,3.703 7.775,4.268 6.920 C 5.750 4.677,8.131 3.188,10.820 2.823 C 11.380 2.746,12.569 2.746,13.146 2.822 M11.680 7.823 C 11.506 7.898,8.439 10.960,8.338 11.159 C 8.252 11.332,8.248 11.662,8.331 11.821 C 8.521 12.185,8.932 12.336,9.306 12.180 C 9.394 12.143,9.795 11.778,10.343 11.234 L 11.237 10.348 11.249 13.024 C 11.261 15.965,11.247 15.802,11.506 16.047 C 11.783 16.309,12.217 16.309,12.494 16.047 C 12.753 15.802,12.739 15.965,12.751 13.024 L 12.763 10.348 13.657 11.234 C 14.205 11.778,14.606 12.143,14.694 12.180 C 15.068 12.336,15.479 12.185,15.669 11.821 C 15.752 11.662,15.748 11.332,15.662 11.159 C 15.556 10.949,12.493 7.898,12.311 7.822 C 12.125 7.744,11.862 7.745,11.680 7.823 " stroke="none" fill-rule="evenodd" fill="black"></path></svg>