<svg width="24" height="24" viewBox="0 0 24 24" fill="none" xmlns="http://www.w3.org/2000/svg"><path d="M11.680 2.823 C 11.529 2.888,5.523 8.858,5.331 9.133 C 5.183 9.346,5.159 9.682,5.275 9.909 C 5.493 10.338,5.992 10.441,6.394 10.142 C 6.496 10.067,7.624 8.959,8.900 7.682 L 11.220 5.360 11.240 13.030 C 11.258 20.080,11.265 20.710,11.326 20.820 C 11.475 21.089,11.717 21.240,12.000 21.240 C 12.283 21.240,12.525 21.089,12.674 20.820 C 12.735 20.710,12.742 20.080,12.760 13.030 L 12.780 5.360 15.100 7.682 C 16.376 8.959,17.504 10.067,17.606 10.142 C 18.008 10.441,18.507 10.338,18.725 9.909 C 18.841 9.683,18.817 9.346,18.669 9.133 C 18.610 9.049,17.189 7.608,15.511 5.932 C 13.386 3.809,12.415 2.865,12.311 2.822 C 12.125 2.744,11.862 2.745,11.680 2.823 " stroke="none" fill-rule="evenodd" fill="black"></path></svg>