<svg width="24" height="24" viewBox="0 0 24 24" fill="none" xmlns="http://www.w3.org/2000/svg"><path d="M11.320 1.281 C 7.041 1.525,3.252 4.409,1.843 8.497 C 1.180 10.418,1.082 12.560,1.564 14.550 C 2.505 18.428,5.572 21.495,9.450 22.436 C 11.106 22.837,12.894 22.837,14.550 22.436 C 18.428 21.495,21.495 18.428,22.436 14.550 C 22.837 12.894,22.837 11.106,22.436 9.450 C 21.425 5.282,17.985 2.095,13.742 1.398 C 13.334 1.331,12.074 1.229,11.880 1.247 C 11.847 1.250,11.595 1.265,11.320 1.281 M13.146 2.822 C 14.201 2.960,15.125 3.237,16.060 3.696 C 18.877 5.079,20.768 7.722,21.178 10.854 C 21.301 11.786,21.244 13.026,21.034 13.998 C 20.745 15.343,20.003 16.855,19.121 17.900 C 18.247 18.935,17.240 19.726,16.060 20.304 C 14.761 20.940,13.462 21.240,12.000 21.240 C 10.538 21.240,9.236 20.940,7.940 20.304 C 5.123 18.921,3.232 16.278,2.822 13.146 C 2.699 12.214,2.756 10.974,2.966 10.002 C 3.177 9.020,3.703 7.775,4.268 6.920 C 5.750 4.677,8.131 3.188,10.820 2.823 C 11.380 2.746,12.569 2.746,13.146 2.822 M12.420 8.260 C 12.398 8.267,12.331 8.284,12.271 8.297 C 12.124 8.329,11.881 8.548,11.814 8.708 C 11.743 8.878,11.745 9.128,11.820 9.306 C 11.857 9.394,12.222 9.795,12.766 10.343 L 13.652 11.237 10.976 11.249 C 8.035 11.261,8.198 11.247,7.953 11.506 C 7.691 11.783,7.691 12.217,7.953 12.494 C 8.198 12.753,8.034 12.739,10.977 12.751 L 13.653 12.763 12.768 13.654 C 12.212 14.213,11.859 14.600,11.821 14.691 C 11.664 15.068,11.814 15.479,12.179 15.669 C 12.338 15.752,12.668 15.748,12.841 15.662 C 13.051 15.556,16.102 12.493,16.178 12.311 C 16.212 12.229,16.240 12.089,16.240 12.000 C 16.240 11.911,16.212 11.771,16.178 11.689 C 16.105 11.515,13.054 8.444,12.860 8.349 C 12.733 8.287,12.488 8.237,12.420 8.260 " stroke="none" fill-rule="evenodd" fill="black"></path></svg>