<svg width="24" height="24" viewBox="0 0 24 24" fill="none" xmlns="http://www.w3.org/2000/svg"><path d="M14.815 3.357 C 14.746 3.374,14.638 3.425,14.575 3.471 C 14.512 3.517,12.937 5.081,11.075 6.947 C 7.396 10.634,7.476 10.546,7.273 11.200 C 7.195 11.452,7.180 11.583,7.183 12.020 C 7.185 12.470,7.200 12.583,7.291 12.860 C 7.496 13.479,7.524 13.510,11.207 17.186 C 14.510 20.482,14.626 20.594,14.810 20.631 C 15.390 20.750,15.831 20.310,15.711 19.730 C 15.673 19.546,15.561 19.429,12.258 16.120 C 8.463 12.319,8.666 12.552,8.666 12.000 C 8.666 11.448,8.463 11.681,12.258 7.880 C 15.570 4.562,15.673 4.454,15.711 4.269 C 15.784 3.914,15.634 3.562,15.352 3.429 C 15.177 3.346,14.969 3.319,14.815 3.357 " stroke="none" fill-rule="evenodd" fill="black"></path></svg>