<svg width="24" height="24" viewBox="0 0 24 24" fill="none" xmlns="http://www.w3.org/2000/svg"><path d="M11.660 7.222 C 11.616 7.232,11.481 7.261,11.360 7.285 C 11.097 7.338,10.718 7.504,10.453 7.682 C 10.187 7.860,3.579 14.459,3.452 14.673 C 3.331 14.877,3.312 15.192,3.410 15.381 C 3.591 15.728,4.001 15.883,4.351 15.738 C 4.455 15.695,5.519 14.660,7.900 12.285 C 11.680 8.513,11.451 8.713,12.000 8.713 C 12.549 8.713,12.320 8.513,16.100 12.285 C 18.481 14.660,19.545 15.695,19.649 15.738 C 19.999 15.883,20.409 15.728,20.590 15.381 C 20.688 15.192,20.669 14.877,20.549 14.673 C 20.422 14.460,13.814 7.861,13.549 7.683 C 13.309 7.522,12.974 7.368,12.706 7.295 C 12.495 7.237,11.803 7.189,11.660 7.222 " stroke="none" fill-rule="evenodd" fill="black"></path></svg>