<svg width="24" height="24" viewBox="0 0 24 24" fill="none" xmlns="http://www.w3.org/2000/svg"><path d="M9.240 5.263 C 9.090 5.328,3.083 11.297,2.893 11.571 C 2.768 11.750,2.729 12.043,2.800 12.265 C 2.840 12.390,3.438 13.009,5.915 15.491 C 7.601 17.181,9.049 18.611,9.133 18.669 C 9.346 18.817,9.683 18.841,9.909 18.725 C 10.338 18.507,10.441 18.008,10.142 17.606 C 10.067 17.504,8.959 16.376,7.682 15.100 L 5.360 12.780 13.030 12.760 C 20.080 12.742,20.710 12.735,20.820 12.674 C 21.089 12.525,21.240 12.283,21.240 12.000 C 21.240 11.717,21.089 11.475,20.820 11.326 C 20.710 11.265,20.080 11.258,13.030 11.240 L 5.360 11.220 7.682 8.900 C 8.959 7.624,10.067 6.496,10.142 6.394 C 10.439 5.996,10.338 5.493,9.918 5.279 C 9.733 5.185,9.439 5.178,9.240 5.263 " stroke="none" fill-rule="evenodd" fill="black"></path></svg>