<svg width="24" height="24" viewBox="0 0 24 24" fill="none" xmlns="http://www.w3.org/2000/svg"><path d="M14.619 4.880 C 14.053 4.941,13.360 5.158,12.756 5.462 C 12.239 5.723,7.511 8.481,7.182 8.714 C 6.513 9.188,5.879 9.925,5.577 10.578 C 5.158 11.485,5.180 12.604,5.633 13.507 C 5.965 14.165,6.566 14.829,7.265 15.307 C 7.585 15.526,11.121 17.598,12.356 18.290 C 13.407 18.879,14.203 19.120,15.100 19.120 C 15.929 19.120,16.581 18.904,17.222 18.418 C 17.954 17.862,18.442 16.960,18.669 15.743 C 18.718 15.480,18.733 14.863,18.748 12.435 C 18.767 9.384,18.745 8.634,18.619 8.017 C 18.232 6.128,16.996 4.963,15.280 4.870 C 15.071 4.858,14.774 4.863,14.619 4.880 M15.689 6.439 C 16.491 6.687,16.990 7.368,17.181 8.475 C 17.234 8.783,17.241 9.299,17.230 12.166 C 17.215 15.807,17.224 15.651,16.978 16.274 C 16.436 17.642,15.173 18.002,13.580 17.242 C 13.172 17.048,8.672 14.453,8.199 14.139 C 7.498 13.674,6.976 13.027,6.815 12.424 C 6.560 11.465,7.181 10.434,8.487 9.649 C 9.295 9.163,13.095 6.972,13.423 6.803 C 13.784 6.617,14.192 6.469,14.525 6.403 C 14.861 6.337,15.413 6.354,15.689 6.439 " stroke="none" fill-rule="evenodd" fill="black"></path></svg>