<svg width="24" height="24" viewBox="0 0 24 24" fill="none" xmlns="http://www.w3.org/2000/svg"><path d="M8.080 1.282 C 4.008 1.495,1.895 3.296,1.383 6.991 C 1.270 7.803,1.242 8.816,1.242 12.000 C 1.242 16.504,1.302 17.273,1.760 18.650 C 2.532 20.963,4.206 22.226,7.027 22.622 C 7.786 22.728,8.902 22.759,12.000 22.759 C 15.098 22.759,16.214 22.728,16.973 22.622 C 19.443 22.275,20.996 21.288,21.897 19.490 C 22.379 18.530,22.638 17.369,22.720 15.807 C 22.771 14.838,22.771 9.162,22.720 8.193 C 22.657 6.998,22.521 6.191,22.242 5.356 C 21.632 3.531,20.469 2.367,18.650 1.760 C 17.788 1.473,17.023 1.344,15.806 1.280 C 14.952 1.235,8.952 1.237,8.080 1.282 M16.800 2.854 C 19.586 3.316,20.714 4.454,21.148 7.240 C 21.214 7.661,21.220 8.064,21.220 12.000 C 21.220 15.936,21.214 16.339,21.148 16.760 C 20.712 19.558,19.558 20.712,16.760 21.148 C 16.339 21.214,15.936 21.220,12.000 21.220 C 8.064 21.220,7.661 21.214,7.240 21.148 C 4.450 20.713,3.283 19.551,2.854 16.780 C 2.785 16.335,2.780 15.989,2.780 12.000 C 2.780 7.247,2.776 7.337,3.044 6.288 C 3.557 4.282,4.722 3.274,6.960 2.900 C 7.690 2.777,8.048 2.769,12.200 2.777 C 15.963 2.784,16.422 2.791,16.800 2.854 M13.000 7.764 C 12.790 7.826,9.111 11.515,9.040 11.735 C 8.969 11.957,9.008 12.249,9.133 12.429 C 9.190 12.512,10.052 13.393,11.049 14.386 C 12.677 16.011,12.878 16.197,13.038 16.240 C 13.268 16.301,13.501 16.263,13.689 16.134 C 13.964 15.944,14.080 15.517,13.936 15.228 C 13.901 15.158,13.177 14.402,12.326 13.550 L 10.780 12.000 12.326 10.450 C 13.177 9.598,13.901 8.842,13.936 8.772 C 14.081 8.481,13.964 8.057,13.685 7.863 C 13.511 7.743,13.217 7.700,13.000 7.764 " stroke="none" fill-rule="evenodd" fill="black"></path></svg>