<svg width="24" height="24" viewBox="0 0 24 24" fill="none" xmlns="http://www.w3.org/2000/svg"><path d="M8.160 4.941 C 6.632 5.253,5.603 6.502,5.312 8.400 C 5.272 8.659,5.260 9.527,5.260 12.040 C 5.260 15.644,5.259 15.625,5.501 16.460 C 5.980 18.115,7.246 19.115,8.880 19.129 C 9.661 19.135,10.292 18.986,11.100 18.603 C 11.640 18.347,16.413 15.573,16.840 15.267 C 17.514 14.784,18.120 14.077,18.423 13.422 C 18.724 12.771,18.806 11.940,18.638 11.242 C 18.412 10.299,17.711 9.360,16.735 8.693 C 16.407 8.469,12.137 5.973,11.360 5.551 C 10.788 5.241,10.188 5.033,9.543 4.921 C 9.220 4.865,8.478 4.876,8.160 4.941 M9.720 6.482 C 10.216 6.622,10.713 6.886,13.180 8.318 C 15.807 9.843,15.952 9.934,16.324 10.274 C 17.288 11.158,17.490 12.102,16.920 13.059 C 16.745 13.351,16.262 13.849,15.920 14.089 C 15.665 14.267,11.563 16.661,10.768 17.095 C 10.547 17.217,10.170 17.382,9.933 17.464 C 9.566 17.589,9.432 17.614,9.055 17.631 C 8.679 17.648,8.567 17.638,8.333 17.567 C 7.512 17.317,7.012 16.643,6.819 15.525 C 6.766 15.217,6.759 14.701,6.771 11.834 C 6.786 8.162,6.775 8.322,7.042 7.676 C 7.316 7.012,7.849 6.526,8.440 6.401 C 8.714 6.343,9.378 6.385,9.720 6.482 " stroke="none" fill-rule="evenodd" fill="black"></path></svg>