<svg width="24" height="24" viewBox="0 0 24 24" fill="none" xmlns="http://www.w3.org/2000/svg"><path d="M14.100 5.264 C 13.660 5.504,13.556 5.989,13.858 6.394 C 13.933 6.496,15.041 7.624,16.318 8.900 L 18.640 11.220 10.970 11.240 C 3.920 11.258,3.290 11.265,3.180 11.326 C 2.911 11.475,2.760 11.717,2.760 12.000 C 2.760 12.283,2.911 12.525,3.180 12.674 C 3.290 12.735,3.920 12.742,10.970 12.760 L 18.640 12.780 16.318 15.100 C 15.041 16.376,13.933 17.504,13.858 17.606 C 13.559 18.008,13.662 18.507,14.091 18.725 C 14.317 18.841,14.654 18.817,14.867 18.669 C 14.951 18.610,16.392 17.189,18.068 15.511 C 20.191 13.386,21.135 12.415,21.178 12.311 C 21.257 12.122,21.257 11.878,21.178 11.689 C 21.135 11.585,20.191 10.614,18.068 8.489 C 16.392 6.811,14.951 5.389,14.866 5.330 C 14.671 5.195,14.287 5.162,14.100 5.264 " stroke="none" fill-rule="evenodd" fill="black"></path></svg>