<svg width="24" height="24" viewBox="0 0 24 24" fill="none" xmlns="http://www.w3.org/2000/svg"><path d="M3.900 1.259 C 3.878 1.267,3.806 1.285,3.740 1.300 C 3.578 1.336,1.424 3.469,1.316 3.700 C 1.222 3.903,1.222 4.097,1.316 4.300 C 1.365 4.404,1.779 4.845,2.505 5.565 C 3.552 6.604,3.632 6.673,3.810 6.711 C 4.389 6.832,4.833 6.388,4.710 5.812 C 4.675 5.649,4.614 5.567,4.249 5.192 L 3.827 4.760 4.684 4.761 C 5.207 4.761,5.680 4.783,5.900 4.817 C 8.658 5.239,10.761 7.342,11.183 10.100 C 11.224 10.366,11.239 10.938,11.239 12.291 C 11.240 13.853,11.249 14.144,11.302 14.271 C 11.569 14.911,12.431 14.911,12.698 14.271 C 12.751 14.144,12.760 13.853,12.761 12.291 C 12.762 10.115,12.794 9.810,13.119 8.896 C 13.439 7.996,13.925 7.241,14.626 6.552 C 15.311 5.878,16.021 5.430,16.896 5.119 C 17.682 4.839,18.207 4.762,19.318 4.761 L 20.175 4.760 19.773 5.170 C 19.552 5.395,19.348 5.625,19.319 5.680 C 19.290 5.735,19.267 5.881,19.267 6.004 C 19.267 6.499,19.682 6.817,20.189 6.711 C 20.369 6.673,20.445 6.607,21.495 5.565 C 22.221 4.845,22.635 4.404,22.684 4.300 C 22.778 4.097,22.778 3.903,22.684 3.700 C 22.604 3.529,20.504 1.413,20.320 1.318 C 20.154 1.232,19.793 1.253,19.623 1.358 C 19.389 1.503,19.267 1.721,19.267 1.992 C 19.267 2.118,19.290 2.265,19.319 2.320 C 19.348 2.375,19.552 2.604,19.773 2.830 L 20.175 3.240 19.598 3.240 C 18.814 3.241,18.014 3.303,17.495 3.403 C 16.308 3.632,15.050 4.224,14.099 5.001 C 13.326 5.632,12.593 6.524,12.169 7.350 C 12.087 7.509,12.011 7.640,12.000 7.640 C 11.989 7.640,11.913 7.509,11.831 7.350 C 11.290 6.298,10.346 5.258,9.280 4.542 C 8.806 4.224,7.989 3.830,7.418 3.643 C 6.545 3.358,5.668 3.241,4.404 3.240 L 3.827 3.240 4.249 2.808 C 4.615 2.432,4.675 2.351,4.711 2.186 C 4.783 1.849,4.658 1.530,4.389 1.367 C 4.265 1.292,3.983 1.229,3.900 1.259 M11.815 15.277 C 11.638 15.321,11.461 15.456,11.353 15.631 C 11.261 15.778,11.260 15.793,11.260 17.000 C 11.260 18.207,11.261 18.222,11.353 18.369 C 11.710 18.943,12.576 18.812,12.716 18.162 C 12.772 17.901,12.773 16.083,12.717 15.841 C 12.623 15.432,12.215 15.177,11.815 15.277 M11.815 19.277 C 11.638 19.321,11.461 19.456,11.353 19.631 C 11.261 19.778,11.260 19.793,11.260 21.000 C 11.260 22.207,11.261 22.222,11.353 22.369 C 11.710 22.943,12.576 22.812,12.716 22.162 C 12.772 21.901,12.773 20.083,12.717 19.841 C 12.623 19.432,12.215 19.177,11.815 19.277 " stroke="none" fill-rule="evenodd" fill="black"></path></svg>