<svg width="24" height="24" viewBox="0 0 24 24" fill="none" xmlns="http://www.w3.org/2000/svg"><path d="M11.320 1.281 C 7.041 1.525,3.252 4.409,1.843 8.497 C 1.180 10.418,1.082 12.560,1.564 14.550 C 2.505 18.428,5.572 21.495,9.450 22.436 C 11.106 22.837,12.894 22.837,14.550 22.436 C 18.428 21.495,21.495 18.428,22.436 14.550 C 22.837 12.894,22.837 11.106,22.436 9.450 C 21.425 5.282,17.985 2.095,13.742 1.398 C 13.334 1.331,12.074 1.229,11.880 1.247 C 11.847 1.250,11.595 1.265,11.320 1.281 M13.146 2.822 C 14.201 2.960,15.125 3.237,16.060 3.696 C 18.877 5.079,20.768 7.722,21.178 10.854 C 21.301 11.786,21.244 13.026,21.034 13.998 C 20.745 15.343,20.003 16.855,19.121 17.900 C 18.247 18.935,17.240 19.726,16.060 20.304 C 14.761 20.940,13.462 21.240,12.000 21.240 C 10.538 21.240,9.236 20.940,7.940 20.304 C 5.123 18.921,3.232 16.278,2.822 13.146 C 2.699 12.214,2.756 10.974,2.966 10.002 C 3.177 9.020,3.703 7.775,4.268 6.920 C 5.750 4.677,8.131 3.188,10.820 2.823 C 11.380 2.746,12.569 2.746,13.146 2.822 M11.720 7.805 C 11.591 7.856,11.411 8.028,11.326 8.180 C 11.267 8.288,11.259 8.571,11.249 10.976 L 11.237 13.652 10.343 12.766 C 9.795 12.222,9.394 11.857,9.306 11.820 C 8.932 11.664,8.521 11.815,8.331 12.179 C 8.248 12.338,8.252 12.668,8.338 12.841 C 8.444 13.051,11.507 16.102,11.689 16.178 C 11.771 16.212,11.911 16.240,12.000 16.240 C 12.089 16.240,12.229 16.212,12.311 16.178 C 12.493 16.102,15.556 13.051,15.662 12.841 C 15.748 12.668,15.752 12.338,15.669 12.179 C 15.479 11.814,15.068 11.664,14.691 11.821 C 14.600 11.859,14.213 12.212,13.654 12.768 L 12.763 13.653 12.751 10.977 C 12.741 8.571,12.733 8.288,12.674 8.180 C 12.586 8.021,12.407 7.855,12.267 7.803 C 12.129 7.750,11.854 7.751,11.720 7.805 " stroke="none" fill-rule="evenodd" fill="black"></path></svg>