<svg width="24" height="24" viewBox="0 0 24 24" fill="none" xmlns="http://www.w3.org/2000/svg"><path d="M11.320 1.281 C 7.041 1.525,3.252 4.409,1.843 8.497 C 1.180 10.418,1.082 12.560,1.564 14.550 C 2.505 18.428,5.572 21.495,9.450 22.436 C 11.106 22.837,12.894 22.837,14.550 22.436 C 18.428 21.495,21.495 18.428,22.436 14.550 C 22.837 12.894,22.837 11.106,22.436 9.450 C 21.425 5.282,17.985 2.095,13.742 1.398 C 13.334 1.331,12.074 1.229,11.880 1.247 C 11.847 1.250,11.595 1.265,11.320 1.281 M13.146 2.822 C 14.201 2.960,15.125 3.237,16.060 3.696 C 18.877 5.079,20.768 7.722,21.178 10.854 C 21.301 11.786,21.244 13.026,21.034 13.998 C 20.745 15.343,20.003 16.855,19.121 17.900 C 18.247 18.935,17.240 19.726,16.060 20.304 C 14.761 20.940,13.462 21.240,12.000 21.240 C 10.538 21.240,9.236 20.940,7.940 20.304 C 5.123 18.921,3.232 16.278,2.822 13.146 C 2.699 12.214,2.756 10.974,2.966 10.002 C 3.177 9.020,3.703 7.775,4.268 6.920 C 5.750 4.677,8.131 3.188,10.820 2.823 C 11.380 2.746,12.569 2.746,13.146 2.822 M8.127 10.086 C 7.869 10.213,7.740 10.432,7.740 10.740 C 7.740 10.943,7.759 11.015,7.849 11.143 C 8.048 11.432,11.530 14.872,11.690 14.938 C 11.878 15.017,12.122 15.017,12.310 14.938 C 12.470 14.872,15.952 11.432,16.151 11.143 C 16.241 11.014,16.260 10.943,16.260 10.740 C 16.260 10.534,16.241 10.466,16.146 10.328 C 15.954 10.051,15.563 9.926,15.253 10.042 C 15.191 10.065,14.433 10.790,13.570 11.652 L 12.000 13.219 10.430 11.652 C 9.566 10.790,8.809 10.065,8.747 10.042 C 8.568 9.975,8.314 9.993,8.127 10.086 " stroke="none" fill-rule="evenodd" fill="black"></path></svg>