<svg width="24" height="24" viewBox="0 0 24 24" fill="none" xmlns="http://www.w3.org/2000/svg"><path d="M8.820 3.340 C 8.798 3.347,8.732 3.364,8.673 3.376 C 8.423 3.431,8.163 3.785,8.161 4.071 C 8.160 4.143,8.188 4.269,8.222 4.351 C 8.265 4.455,9.300 5.519,11.675 7.900 C 15.447 11.680,15.247 11.451,15.247 12.000 C 15.247 12.549,15.447 12.320,11.675 16.100 C 9.300 18.481,8.265 19.545,8.222 19.649 C 8.077 19.999,8.232 20.409,8.579 20.590 C 8.768 20.688,9.083 20.669,9.287 20.549 C 9.501 20.421,16.099 13.814,16.278 13.547 C 16.600 13.068,16.739 12.603,16.739 12.000 C 16.739 11.397,16.600 10.932,16.278 10.453 C 16.103 10.192,9.502 3.579,9.300 3.462 C 9.147 3.373,8.905 3.312,8.820 3.340 " stroke="none" fill-rule="evenodd" fill="black"></path></svg>