<svg width="24" height="24" viewBox="0 0 24 24" fill="none" xmlns="http://www.w3.org/2000/svg"><path d="M11.720 2.805 C 11.591 2.856,11.411 3.028,11.326 3.180 C 11.265 3.290,11.258 3.920,11.240 10.970 L 11.220 18.640 8.900 16.318 C 7.624 15.041,6.496 13.933,6.394 13.858 C 5.992 13.559,5.493 13.662,5.275 14.091 C 5.159 14.317,5.183 14.654,5.331 14.867 C 5.390 14.951,6.811 16.392,8.489 18.068 C 10.614 20.191,11.585 21.135,11.689 21.178 C 11.878 21.257,12.122 21.257,12.311 21.178 C 12.415 21.135,13.386 20.191,15.511 18.068 C 17.189 16.392,18.610 14.951,18.669 14.867 C 18.817 14.654,18.841 14.317,18.725 14.091 C 18.507 13.662,18.008 13.559,17.606 13.858 C 17.504 13.933,16.376 15.041,15.100 16.318 L 12.780 18.640 12.760 10.970 C 12.742 3.920,12.735 3.290,12.674 3.180 C 12.586 3.021,12.407 2.855,12.267 2.803 C 12.129 2.750,11.854 2.751,11.720 2.805 " stroke="none" fill-rule="evenodd" fill="black"></path></svg>