<svg width="24" height="24" viewBox="0 0 24 24" fill="none" xmlns="http://www.w3.org/2000/svg"><path d="M11.320 1.281 C 7.041 1.525,3.252 4.409,1.843 8.497 C 1.180 10.418,1.082 12.560,1.564 14.550 C 2.505 18.428,5.572 21.495,9.450 22.436 C 11.106 22.837,12.894 22.837,14.550 22.436 C 18.428 21.495,21.495 18.428,22.436 14.550 C 22.837 12.894,22.837 11.106,22.436 9.450 C 21.425 5.282,17.985 2.095,13.742 1.398 C 13.334 1.331,12.074 1.229,11.880 1.247 C 11.847 1.250,11.595 1.265,11.320 1.281 M13.146 2.822 C 14.201 2.960,15.125 3.237,16.060 3.696 C 18.877 5.079,20.768 7.722,21.178 10.854 C 21.301 11.786,21.244 13.026,21.034 13.998 C 20.745 15.343,20.003 16.855,19.121 17.900 C 18.247 18.935,17.240 19.726,16.060 20.304 C 14.761 20.940,13.462 21.240,12.000 21.240 C 10.538 21.240,9.236 20.940,7.940 20.304 C 5.123 18.921,3.232 16.278,2.822 13.146 C 2.699 12.214,2.756 10.974,2.966 10.002 C 3.177 9.020,3.703 7.775,4.268 6.920 C 5.750 4.677,8.131 3.188,10.820 2.823 C 11.380 2.746,12.569 2.746,13.146 2.822 M13.000 7.764 C 12.790 7.826,9.111 11.515,9.040 11.735 C 8.969 11.957,9.008 12.249,9.133 12.429 C 9.190 12.512,10.052 13.393,11.049 14.386 C 12.677 16.011,12.878 16.197,13.038 16.240 C 13.268 16.301,13.501 16.263,13.689 16.134 C 13.964 15.944,14.080 15.517,13.936 15.228 C 13.901 15.158,13.177 14.402,12.326 13.550 L 10.780 12.000 12.326 10.450 C 13.177 9.598,13.901 8.842,13.936 8.772 C 14.081 8.481,13.964 8.057,13.685 7.863 C 13.511 7.743,13.217 7.700,13.000 7.764 " stroke="none" fill-rule="evenodd" fill="black"></path></svg>