<svg width="24" height="24" viewBox="0 0 24 24" fill="none" xmlns="http://www.w3.org/2000/svg"><path d="M8.080 1.282 C 4.008 1.495,1.895 3.296,1.383 6.991 C 1.270 7.803,1.242 8.816,1.242 12.000 C 1.242 16.504,1.302 17.273,1.760 18.650 C 2.532 20.963,4.206 22.226,7.027 22.622 C 7.786 22.728,8.902 22.759,12.000 22.759 C 15.098 22.759,16.214 22.728,16.973 22.622 C 19.443 22.275,20.996 21.288,21.897 19.490 C 22.379 18.530,22.638 17.369,22.720 15.807 C 22.771 14.838,22.771 9.162,22.720 8.193 C 22.657 6.998,22.521 6.191,22.242 5.356 C 21.632 3.531,20.469 2.367,18.650 1.760 C 17.788 1.473,17.023 1.344,15.806 1.280 C 14.952 1.235,8.952 1.237,8.080 1.282 M16.800 2.854 C 19.586 3.316,20.714 4.454,21.148 7.240 C 21.214 7.661,21.220 8.064,21.220 12.000 C 21.220 15.936,21.214 16.339,21.148 16.760 C 20.712 19.558,19.558 20.712,16.760 21.148 C 16.339 21.214,15.936 21.220,12.000 21.220 C 8.064 21.220,7.661 21.214,7.240 21.148 C 4.450 20.713,3.283 19.551,2.854 16.780 C 2.785 16.335,2.780 15.989,2.780 12.000 C 2.780 7.247,2.776 7.337,3.044 6.288 C 3.557 4.282,4.722 3.274,6.960 2.900 C 7.690 2.777,8.048 2.769,12.200 2.777 C 15.963 2.784,16.422 2.791,16.800 2.854 M8.380 9.900 C 8.358 9.907,8.292 9.924,8.233 9.936 C 7.979 9.992,7.722 10.347,7.722 10.640 C 7.722 10.717,7.755 10.852,7.796 10.940 C 7.847 11.048,8.485 11.711,9.746 12.966 C 11.538 14.750,11.628 14.833,11.810 14.871 C 11.934 14.897,12.066 14.897,12.190 14.871 C 12.372 14.833,12.462 14.750,14.254 12.966 C 15.515 11.711,16.153 11.048,16.204 10.940 C 16.370 10.583,16.220 10.157,15.861 9.970 C 15.702 9.888,15.371 9.892,15.199 9.979 C 15.123 10.017,14.372 10.735,13.530 11.574 L 12.000 13.099 10.470 11.574 C 9.629 10.735,8.886 10.022,8.820 9.990 C 8.694 9.928,8.448 9.877,8.380 9.900 " stroke="none" fill-rule="evenodd" fill="black"></path></svg>