<svg width="24" height="24" viewBox="0 0 24 24" fill="none" xmlns="http://www.w3.org/2000/svg"><path d="M8.080 1.282 C 4.008 1.495,1.895 3.296,1.383 6.991 C 1.270 7.803,1.242 8.816,1.242 12.000 C 1.242 16.504,1.302 17.273,1.760 18.650 C 2.532 20.963,4.206 22.226,7.027 22.622 C 7.786 22.728,8.902 22.759,12.000 22.759 C 15.098 22.759,16.214 22.728,16.973 22.622 C 19.443 22.275,20.996 21.288,21.897 19.490 C 22.379 18.530,22.638 17.369,22.720 15.807 C 22.771 14.838,22.771 9.162,22.720 8.193 C 22.657 6.998,22.521 6.191,22.242 5.356 C 21.632 3.531,20.469 2.367,18.650 1.760 C 17.788 1.473,17.023 1.344,15.806 1.280 C 14.952 1.235,8.952 1.237,8.080 1.282 M16.800 2.854 C 19.586 3.316,20.714 4.454,21.148 7.240 C 21.214 7.661,21.220 8.064,21.220 12.000 C 21.220 15.936,21.214 16.339,21.148 16.760 C 20.712 19.558,19.558 20.712,16.760 21.148 C 16.339 21.214,15.936 21.220,12.000 21.220 C 8.064 21.220,7.661 21.214,7.240 21.148 C 4.450 20.713,3.283 19.551,2.854 16.780 C 2.785 16.335,2.780 15.989,2.780 12.000 C 2.780 7.247,2.776 7.337,3.044 6.288 C 3.557 4.282,4.722 3.274,6.960 2.900 C 7.690 2.777,8.048 2.769,12.200 2.777 C 15.963 2.784,16.422 2.791,16.800 2.854 M10.512 7.757 C 10.122 7.883,9.896 8.358,10.042 8.747 C 10.065 8.809,10.790 9.566,11.652 10.430 L 13.219 12.000 11.652 13.570 C 10.790 14.433,10.065 15.191,10.042 15.253 C 9.926 15.563,10.051 15.954,10.328 16.146 C 10.466 16.241,10.534 16.260,10.740 16.260 C 10.943 16.260,11.014 16.241,11.143 16.151 C 11.432 15.952,14.872 12.470,14.938 12.310 C 15.017 12.122,15.017 11.878,14.938 11.690 C 14.897 11.590,14.295 10.959,13.088 9.750 C 12.105 8.764,11.235 7.912,11.156 7.857 C 10.998 7.748,10.690 7.700,10.512 7.757 " stroke="none" fill-rule="evenodd" fill="black"></path></svg>