<svg width="24" height="24" viewBox="0 0 24 24" fill="none" xmlns="http://www.w3.org/2000/svg"><path d="M8.740 5.280 C 6.710 5.459,5.347 6.463,4.952 8.072 C 4.888 8.335,4.867 8.542,4.868 8.920 C 4.870 9.684,5.021 10.307,5.397 11.100 C 5.640 11.612,8.415 16.397,8.714 16.818 C 9.188 17.487,9.925 18.121,10.578 18.423 C 11.229 18.724,12.060 18.806,12.758 18.638 C 13.701 18.412,14.639 17.711,15.307 16.735 C 15.518 16.427,17.769 12.581,18.362 11.517 C 18.917 10.521,19.153 9.625,19.109 8.685 C 19.083 8.151,18.987 7.761,18.775 7.340 C 18.239 6.274,17.240 5.612,15.743 5.331 C 15.475 5.280,14.881 5.268,12.260 5.259 C 10.522 5.253,8.938 5.263,8.740 5.280 M15.775 6.857 C 17.555 7.324,18.094 8.634,17.242 10.420 C 17.047 10.830,14.475 15.288,14.145 15.789 C 13.791 16.326,13.295 16.796,12.844 17.022 C 12.210 17.340,11.590 17.306,10.941 16.920 C 10.649 16.745,10.151 16.262,9.911 15.920 C 9.684 15.595,7.063 11.084,6.800 10.563 C 6.585 10.138,6.500 9.907,6.417 9.520 C 6.346 9.188,6.345 8.639,6.416 8.374 C 6.588 7.726,7.081 7.243,7.838 6.978 C 8.444 6.766,8.473 6.765,12.120 6.775 C 15.235 6.784,15.522 6.790,15.775 6.857 " stroke="none" fill-rule="evenodd" fill="black"></path></svg>