<svg width="24" height="24" viewBox="0 0 24 24" fill="none" xmlns="http://www.w3.org/2000/svg"><path d="M6.420 2.317 C 6.230 2.405,2.445 6.186,2.344 6.388 C 2.247 6.582,2.261 6.901,2.376 7.097 C 2.559 7.409,3.033 7.552,3.341 7.388 C 3.406 7.354,4.018 6.766,4.700 6.083 C 5.382 5.399,5.953 4.840,5.970 4.840 C 5.986 4.840,6.000 8.524,6.000 13.026 L 6.000 21.213 6.096 21.377 C 6.336 21.787,6.946 21.858,7.268 21.513 C 7.494 21.271,7.480 21.837,7.480 12.972 L 7.480 4.822 8.730 6.066 C 9.418 6.751,10.043 7.343,10.119 7.381 C 10.291 7.468,10.622 7.472,10.781 7.390 C 11.140 7.203,11.290 6.777,11.123 6.420 C 11.073 6.312,10.401 5.615,9.054 4.275 C 6.970 2.201,7.013 2.238,6.685 2.241 C 6.627 2.241,6.508 2.275,6.420 2.317 M17.180 2.260 C 17.158 2.267,17.092 2.284,17.033 2.296 C 16.878 2.331,16.680 2.512,16.595 2.698 C 16.525 2.853,16.522 3.190,16.521 11.019 L 16.520 19.178 15.270 17.934 C 14.582 17.249,13.957 16.657,13.881 16.619 C 13.709 16.532,13.378 16.528,13.219 16.610 C 12.860 16.797,12.710 17.223,12.877 17.580 C 12.927 17.688,13.601 18.387,14.946 19.727 C 16.925 21.699,16.941 21.714,17.134 21.742 C 17.543 21.802,17.480 21.853,19.574 19.767 C 20.627 18.718,21.541 17.780,21.604 17.682 C 21.926 17.188,21.577 16.549,20.986 16.549 C 20.872 16.549,20.725 16.577,20.659 16.612 C 20.594 16.646,19.982 17.234,19.300 17.917 C 18.618 18.601,18.047 19.160,18.030 19.160 C 18.014 19.160,18.000 15.476,18.000 10.974 L 18.000 2.787 17.904 2.623 C 17.851 2.532,17.739 2.422,17.654 2.374 C 17.504 2.292,17.261 2.233,17.180 2.260 " stroke="none" fill-rule="evenodd" fill="black"></path></svg>