<svg width="24" height="24" viewBox="0 0 24 24" fill="none" xmlns="http://www.w3.org/2000/svg"><path d="M3.800 8.264 C 3.374 8.449,3.216 8.930,3.451 9.327 C 3.579 9.541,10.186 16.139,10.453 16.318 C 10.932 16.640,11.397 16.779,12.000 16.779 C 12.603 16.779,13.068 16.640,13.547 16.318 C 13.814 16.139,20.421 9.541,20.549 9.327 C 20.669 9.123,20.688 8.808,20.590 8.619 C 20.409 8.272,19.999 8.117,19.649 8.262 C 19.545 8.305,18.481 9.340,16.100 11.715 C 12.320 15.487,12.549 15.287,12.000 15.287 C 11.451 15.287,11.680 15.487,7.900 11.715 C 5.519 9.340,4.455 8.305,4.351 8.262 C 4.166 8.185,3.981 8.185,3.800 8.264 " stroke="none" fill-rule="evenodd" fill="black"></path></svg>