<svg width="24" height="24" viewBox="0 0 24 24" fill="none" xmlns="http://www.w3.org/2000/svg"><path d="M8.080 1.282 C 4.008 1.495,1.895 3.296,1.383 6.991 C 1.270 7.803,1.242 8.816,1.242 12.000 C 1.242 16.504,1.302 17.273,1.760 18.650 C 2.532 20.963,4.206 22.226,7.027 22.622 C 7.786 22.728,8.902 22.759,12.000 22.759 C 15.098 22.759,16.214 22.728,16.973 22.622 C 19.443 22.275,20.996 21.288,21.897 19.490 C 22.379 18.530,22.638 17.369,22.720 15.807 C 22.771 14.838,22.771 9.162,22.720 8.193 C 22.657 6.998,22.521 6.191,22.242 5.356 C 21.632 3.531,20.469 2.367,18.650 1.760 C 17.788 1.473,17.023 1.344,15.806 1.280 C 14.952 1.235,8.952 1.237,8.080 1.282 M16.800 2.854 C 19.586 3.316,20.714 4.454,21.148 7.240 C 21.214 7.661,21.220 8.064,21.220 12.000 C 21.220 15.936,21.214 16.339,21.148 16.760 C 20.712 19.558,19.558 20.712,16.760 21.148 C 16.339 21.214,15.936 21.220,12.000 21.220 C 8.064 21.220,7.661 21.214,7.240 21.148 C 4.450 20.713,3.283 19.551,2.854 16.780 C 2.785 16.335,2.780 15.989,2.780 12.000 C 2.780 7.247,2.776 7.337,3.044 6.288 C 3.557 4.282,4.722 3.274,6.960 2.900 C 7.690 2.777,8.048 2.769,12.200 2.777 C 15.963 2.784,16.422 2.791,16.800 2.854 M6.881 6.045 C 6.698 6.100,4.797 7.979,4.680 8.220 C 4.592 8.402,4.577 8.653,4.642 8.827 C 4.699 8.978,6.665 10.954,6.829 11.024 C 6.982 11.091,7.270 11.097,7.427 11.037 C 7.789 10.900,7.977 10.430,7.820 10.054 C 7.787 9.976,7.622 9.769,7.453 9.596 L 7.146 9.280 7.329 9.280 C 9.288 9.280,10.783 10.378,11.290 12.191 C 11.374 12.488,11.378 12.595,11.398 15.000 L 11.420 17.500 11.513 17.630 C 11.866 18.125,12.539 18.112,12.798 17.604 C 12.868 17.466,12.875 17.300,12.899 14.998 C 12.928 12.183,12.929 12.175,13.277 11.460 C 13.900 10.185,15.067 9.401,16.499 9.295 L 16.860 9.268 16.535 9.608 C 16.176 9.984,16.100 10.140,16.130 10.446 C 16.152 10.676,16.308 10.900,16.523 11.010 C 16.676 11.088,16.976 11.102,17.147 11.038 C 17.277 10.990,19.255 9.036,19.344 8.869 C 19.416 8.733,19.426 8.458,19.364 8.272 C 19.331 8.173,19.022 7.840,18.289 7.111 C 17.388 6.216,17.237 6.082,17.081 6.040 C 16.593 5.909,16.120 6.258,16.120 6.750 C 16.120 7.005,16.178 7.107,16.529 7.466 L 16.854 7.800 16.587 7.800 C 16.292 7.800,15.651 7.889,15.340 7.974 C 14.096 8.312,12.968 9.122,12.286 10.165 L 12.139 10.391 11.993 10.165 C 11.772 9.824,11.357 9.355,11.032 9.080 C 10.046 8.248,8.786 7.800,7.427 7.800 L 7.142 7.800 7.447 7.490 C 7.796 7.135,7.880 6.993,7.880 6.755 C 7.880 6.251,7.378 5.894,6.881 6.045 " stroke="none" fill-rule="evenodd" fill="black"></path></svg>