<svg width="24" height="24" viewBox="0 0 24 24" fill="none" xmlns="http://www.w3.org/2000/svg"><path d="M11.223 5.364 C 10.295 5.592,9.353 6.299,8.693 7.265 C 8.408 7.682,5.813 12.139,5.483 12.780 C 5.044 13.631,4.855 14.427,4.891 15.277 C 4.925 16.065,5.122 16.620,5.581 17.222 C 6.163 17.984,7.146 18.496,8.400 18.688 C 8.887 18.763,15.101 18.763,15.620 18.688 C 16.911 18.502,17.944 17.941,18.538 17.104 C 19.339 15.974,19.362 14.483,18.605 12.900 C 18.355 12.378,15.579 7.595,15.286 7.182 C 14.812 6.513,14.075 5.879,13.422 5.577 C 12.775 5.278,11.913 5.194,11.223 5.364 M12.562 6.851 C 12.707 6.901,12.930 7.004,13.059 7.080 C 13.351 7.255,13.849 7.738,14.089 8.080 C 14.243 8.301,16.442 12.060,17.074 13.184 C 17.346 13.668,17.541 14.184,17.624 14.640 C 17.794 15.566,17.430 16.381,16.654 16.818 C 16.368 16.979,15.826 17.149,15.440 17.200 C 15.207 17.230,14.066 17.240,11.800 17.230 C 8.162 17.214,8.322 17.225,7.670 16.956 C 6.351 16.412,6.009 15.149,6.758 13.580 C 6.952 13.172,9.547 8.672,9.861 8.199 C 10.318 7.510,10.968 6.980,11.558 6.817 C 11.853 6.736,12.265 6.750,12.562 6.851 " stroke="none" fill-rule="evenodd" fill="black"></path></svg>