<svg width="24" height="24" viewBox="0 0 24 24" fill="none" xmlns="http://www.w3.org/2000/svg"><path d="M16.899 2.377 C 16.591 2.562,16.450 3.035,16.612 3.341 C 16.646 3.406,17.234 4.018,17.917 4.700 C 18.601 5.382,19.160 5.953,19.160 5.970 C 19.160 5.986,15.476 6.000,10.974 6.000 L 2.787 6.000 2.623 6.096 C 2.213 6.336,2.142 6.946,2.487 7.268 C 2.729 7.494,2.163 7.480,11.028 7.480 L 19.178 7.480 17.934 8.730 C 17.249 9.418,16.657 10.043,16.619 10.119 C 16.532 10.291,16.528 10.622,16.610 10.781 C 16.797 11.140,17.223 11.290,17.580 11.123 C 17.688 11.073,18.387 10.399,19.727 9.054 C 21.699 7.075,21.714 7.059,21.742 6.866 C 21.802 6.457,21.853 6.520,19.767 4.426 C 18.718 3.373,17.780 2.459,17.682 2.396 C 17.446 2.242,17.137 2.235,16.899 2.377 M6.420 12.877 C 6.312 12.927,5.613 13.601,4.273 14.946 C 2.301 16.925,2.286 16.941,2.258 17.134 C 2.198 17.543,2.147 17.480,4.233 19.574 C 5.282 20.627,6.220 21.541,6.318 21.604 C 6.812 21.926,7.451 21.577,7.451 20.986 C 7.451 20.872,7.423 20.725,7.388 20.659 C 7.354 20.594,6.766 19.982,6.083 19.300 C 5.399 18.618,4.840 18.047,4.840 18.030 C 4.840 18.014,8.523 18.000,13.025 18.000 L 21.209 18.000 21.368 17.910 C 21.784 17.677,21.860 17.056,21.513 16.732 C 21.271 16.506,21.837 16.520,12.972 16.520 L 4.822 16.520 6.066 15.270 C 6.751 14.582,7.343 13.957,7.381 13.881 C 7.468 13.709,7.472 13.378,7.390 13.219 C 7.203 12.860,6.777 12.710,6.420 12.877 " stroke="none" fill-rule="evenodd" fill="black"></path></svg>