<svg width="24" height="24" viewBox="0 0 24 24" fill="none" xmlns="http://www.w3.org/2000/svg"><path d="M11.320 1.281 C 7.041 1.525,3.252 4.409,1.843 8.497 C 1.180 10.418,1.082 12.560,1.564 14.550 C 2.505 18.428,5.572 21.495,9.450 22.436 C 11.106 22.837,12.894 22.837,14.550 22.436 C 18.428 21.495,21.495 18.428,22.436 14.550 C 22.837 12.894,22.837 11.106,22.436 9.450 C 21.425 5.282,17.985 2.095,13.742 1.398 C 13.334 1.331,12.074 1.229,11.880 1.247 C 11.847 1.250,11.595 1.265,11.320 1.281 M13.146 2.822 C 14.201 2.960,15.125 3.237,16.060 3.696 C 18.877 5.079,20.768 7.722,21.178 10.854 C 21.301 11.786,21.244 13.026,21.034 13.998 C 20.745 15.343,20.003 16.855,19.121 17.900 C 18.247 18.935,17.240 19.726,16.060 20.304 C 14.761 20.940,13.462 21.240,12.000 21.240 C 10.538 21.240,9.236 20.940,7.940 20.304 C 5.123 18.921,3.232 16.278,2.822 13.146 C 2.699 12.214,2.756 10.974,2.966 10.002 C 3.177 9.020,3.703 7.775,4.268 6.920 C 5.750 4.677,8.131 3.188,10.820 2.823 C 11.380 2.746,12.569 2.746,13.146 2.822 M12.600 6.263 C 12.545 6.272,12.365 6.300,12.200 6.324 C 11.315 6.454,10.484 6.879,9.668 7.619 C 9.004 8.221,7.032 10.238,6.833 10.520 C 5.918 11.810,5.759 13.380,6.402 14.754 C 6.669 15.323,7.094 15.890,7.384 16.063 C 7.875 16.355,8.491 16.000,8.491 15.425 C 8.491 15.174,8.460 15.111,8.154 14.746 C 7.888 14.430,7.672 14.020,7.581 13.662 C 7.490 13.306,7.501 12.648,7.603 12.279 C 7.772 11.668,7.797 11.638,9.537 9.894 L 11.140 8.288 11.560 8.085 C 11.794 7.972,12.113 7.854,12.280 7.818 C 12.714 7.725,13.416 7.734,13.820 7.837 C 14.945 8.126,15.875 9.057,16.163 10.180 C 16.323 10.806,16.260 11.692,16.014 12.250 C 15.794 12.751,15.643 12.929,14.268 14.308 C 12.729 15.853,12.723 15.857,12.200 15.858 C 11.972 15.858,11.852 15.836,11.700 15.767 C 11.099 15.493,10.810 14.797,11.042 14.180 C 11.124 13.963,11.215 13.856,12.001 13.060 C 12.805 12.246,12.872 12.166,12.910 11.990 C 12.970 11.706,12.906 11.466,12.720 11.280 C 12.469 11.029,12.053 10.990,11.773 11.191 C 11.711 11.236,11.282 11.657,10.820 12.126 C 9.673 13.292,9.527 13.556,9.490 14.522 C 9.467 15.120,9.519 15.374,9.767 15.880 C 10.100 16.559,10.853 17.149,11.580 17.300 C 12.510 17.494,13.356 17.262,14.100 16.608 C 14.706 16.076,16.603 14.121,16.850 13.774 C 18.212 11.862,18.007 9.292,16.360 7.639 C 15.700 6.977,14.870 6.531,13.950 6.343 C 13.642 6.280,12.791 6.229,12.600 6.263 " stroke="none" fill-rule="evenodd" fill="black"></path></svg>