<svg width="24" height="24" viewBox="0 0 24 24" fill="none" xmlns="http://www.w3.org/2000/svg"><path d="M8.080 1.282 C 4.008 1.495,1.895 3.296,1.383 6.991 C 1.270 7.803,1.242 8.816,1.242 12.000 C 1.242 16.504,1.302 17.273,1.760 18.650 C 2.532 20.963,4.206 22.226,7.027 22.622 C 7.786 22.728,8.902 22.759,12.000 22.759 C 15.098 22.759,16.214 22.728,16.973 22.622 C 19.443 22.275,20.996 21.288,21.897 19.490 C 22.379 18.530,22.638 17.369,22.720 15.807 C 22.771 14.838,22.771 9.162,22.720 8.193 C 22.657 6.998,22.521 6.191,22.242 5.356 C 21.632 3.531,20.469 2.367,18.650 1.760 C 17.788 1.473,17.023 1.344,15.806 1.280 C 14.952 1.235,8.952 1.237,8.080 1.282 M16.800 2.854 C 19.586 3.316,20.714 4.454,21.148 7.240 C 21.214 7.661,21.220 8.064,21.220 12.000 C 21.220 15.936,21.214 16.339,21.148 16.760 C 20.712 19.558,19.558 20.712,16.760 21.148 C 16.339 21.214,15.936 21.220,12.000 21.220 C 8.064 21.220,7.661 21.214,7.240 21.148 C 4.450 20.713,3.283 19.551,2.854 16.780 C 2.785 16.335,2.780 15.989,2.780 12.000 C 2.780 7.247,2.776 7.337,3.044 6.288 C 3.557 4.282,4.722 3.274,6.960 2.900 C 7.690 2.777,8.048 2.769,12.200 2.777 C 15.963 2.784,16.422 2.791,16.800 2.854 M12.600 6.263 C 12.545 6.272,12.365 6.300,12.200 6.324 C 11.315 6.454,10.484 6.879,9.668 7.619 C 9.004 8.221,7.032 10.238,6.833 10.520 C 5.918 11.810,5.759 13.380,6.402 14.754 C 6.669 15.323,7.094 15.890,7.384 16.063 C 7.875 16.355,8.491 16.000,8.491 15.425 C 8.491 15.174,8.460 15.111,8.154 14.746 C 7.888 14.430,7.672 14.020,7.581 13.662 C 7.490 13.306,7.501 12.648,7.603 12.279 C 7.772 11.668,7.797 11.638,9.537 9.894 L 11.140 8.288 11.560 8.085 C 11.794 7.972,12.113 7.854,12.280 7.818 C 12.714 7.725,13.416 7.734,13.820 7.837 C 14.945 8.126,15.875 9.057,16.163 10.180 C 16.323 10.806,16.260 11.692,16.014 12.250 C 15.794 12.751,15.643 12.929,14.268 14.308 C 12.729 15.853,12.723 15.857,12.200 15.858 C 11.972 15.858,11.852 15.836,11.700 15.767 C 11.099 15.493,10.810 14.797,11.042 14.180 C 11.124 13.963,11.215 13.856,12.001 13.060 C 12.805 12.246,12.872 12.166,12.910 11.990 C 12.970 11.706,12.906 11.466,12.720 11.280 C 12.469 11.029,12.053 10.990,11.773 11.191 C 11.711 11.236,11.282 11.657,10.820 12.126 C 9.673 13.292,9.527 13.556,9.490 14.522 C 9.467 15.120,9.519 15.374,9.767 15.880 C 10.100 16.559,10.853 17.149,11.580 17.300 C 12.510 17.494,13.356 17.262,14.100 16.608 C 14.706 16.076,16.603 14.121,16.850 13.774 C 18.212 11.862,18.007 9.292,16.360 7.639 C 15.700 6.977,14.870 6.531,13.950 6.343 C 13.642 6.280,12.791 6.229,12.600 6.263 " stroke="none" fill-rule="evenodd" fill="black"></path></svg>