<svg width="24" height="24" viewBox="0 0 24 24" fill="none" xmlns="http://www.w3.org/2000/svg"><path d="M11.280 1.355 C 10.801 1.484,10.510 1.677,9.520 2.520 C 8.821 3.114,8.523 3.343,8.360 3.409 C 8.155 3.491,8.058 3.499,6.900 3.521 C 5.678 3.544,5.655 3.546,5.340 3.655 C 4.628 3.901,4.093 4.375,3.748 5.063 C 3.538 5.481,3.509 5.688,3.484 6.980 C 3.460 8.165,3.459 8.183,3.356 8.400 C 3.291 8.538,2.968 8.954,2.485 9.520 C 1.442 10.743,1.280 11.073,1.280 11.980 C 1.280 12.887,1.442 13.217,2.485 14.440 C 2.968 15.006,3.291 15.422,3.356 15.560 C 3.459 15.777,3.460 15.795,3.485 17.000 C 3.505 17.940,3.525 18.275,3.576 18.460 C 3.797 19.276,4.485 20.022,5.281 20.310 C 5.575 20.416,5.602 20.418,6.840 20.442 C 7.533 20.456,8.155 20.486,8.221 20.508 C 8.506 20.605,8.713 20.754,9.524 21.448 C 9.995 21.850,10.476 22.241,10.593 22.316 C 11.178 22.690,11.984 22.801,12.740 22.613 C 13.203 22.498,13.527 22.283,14.511 21.444 C 15.223 20.838,15.497 20.628,15.671 20.558 C 15.887 20.471,15.971 20.464,17.140 20.440 C 18.259 20.417,18.405 20.406,18.640 20.328 C 19.416 20.072,20.086 19.400,20.365 18.600 C 20.449 18.359,20.458 18.250,20.480 17.100 C 20.502 15.941,20.509 15.845,20.593 15.634 C 20.662 15.461,20.868 15.191,21.481 14.474 C 22.346 13.461,22.537 13.166,22.661 12.652 C 22.759 12.244,22.728 11.488,22.599 11.106 C 22.457 10.686,22.283 10.436,21.475 9.489 C 20.756 8.646,20.638 8.484,20.548 8.222 C 20.525 8.155,20.496 7.551,20.482 6.880 L 20.457 5.660 20.336 5.318 C 20.059 4.536,19.426 3.906,18.660 3.652 C 18.351 3.549,18.298 3.545,17.120 3.519 C 16.449 3.505,15.845 3.475,15.779 3.452 C 15.501 3.357,15.301 3.214,14.560 2.578 C 13.393 1.576,13.275 1.497,12.730 1.358 C 12.335 1.256,11.650 1.255,11.280 1.355 M12.540 2.870 C 12.628 2.915,13.043 3.247,13.462 3.606 C 14.610 4.592,14.714 4.663,15.300 4.865 C 15.615 4.974,15.638 4.976,16.860 4.998 C 18.052 5.019,18.107 5.024,18.288 5.113 C 18.527 5.231,18.769 5.473,18.887 5.712 C 18.976 5.893,18.981 5.947,19.002 7.140 L 19.023 8.380 19.147 8.730 C 19.326 9.238,19.456 9.429,20.291 10.407 C 20.704 10.892,21.081 11.363,21.127 11.454 C 21.247 11.689,21.270 12.090,21.179 12.378 C 21.118 12.572,20.996 12.735,20.314 13.532 C 19.480 14.507,19.299 14.779,19.117 15.340 C 19.033 15.598,19.024 15.715,19.002 16.840 C 18.981 17.973,18.973 18.073,18.893 18.246 C 18.791 18.470,18.546 18.723,18.312 18.848 C 18.147 18.936,18.092 18.940,16.900 18.962 C 15.692 18.985,15.652 18.988,15.340 19.093 C 14.815 19.268,14.512 19.472,13.546 20.296 C 12.504 21.186,12.438 21.222,11.925 21.191 C 11.721 21.179,11.567 21.145,11.460 21.089 C 11.372 21.043,10.931 20.686,10.480 20.297 C 9.584 19.524,9.331 19.341,8.948 19.188 C 8.466 18.995,8.173 18.960,7.029 18.960 C 5.814 18.960,5.723 18.943,5.398 18.651 C 5.024 18.314,5.025 18.320,4.997 16.900 L 4.972 15.660 4.847 15.279 C 4.778 15.069,4.654 14.787,4.571 14.651 C 4.488 14.515,4.077 13.999,3.657 13.504 C 2.831 12.531,2.760 12.410,2.760 11.980 C 2.760 11.550,2.831 11.429,3.657 10.456 C 4.501 9.460,4.668 9.216,4.817 8.766 C 4.968 8.311,4.998 8.001,4.999 6.916 L 5.000 5.933 5.124 5.684 C 5.262 5.408,5.539 5.156,5.792 5.076 C 5.882 5.047,6.422 5.018,7.180 5.001 C 8.543 4.970,8.599 4.961,9.140 4.691 C 9.454 4.534,9.514 4.488,10.440 3.699 C 11.341 2.931,11.405 2.883,11.605 2.818 C 11.854 2.737,12.335 2.764,12.540 2.870 M11.205 8.009 C 9.388 12.069,7.837 15.612,7.864 15.639 C 7.905 15.678,9.170 16.244,9.183 16.230 C 9.188 16.224,9.408 15.734,9.671 15.140 L 10.151 14.060 12.000 14.060 L 13.850 14.060 14.325 15.137 C 14.586 15.729,14.806 16.219,14.813 16.226 C 14.836 16.249,16.135 15.656,16.148 15.617 C 16.154 15.597,15.380 13.825,14.427 11.680 L 12.693 7.780 12.005 7.769 L 11.318 7.758 11.205 8.009 M12.594 11.235 C 12.905 11.937,13.160 12.522,13.160 12.535 C 13.160 12.549,12.638 12.560,12.000 12.560 C 11.362 12.560,10.840 12.549,10.840 12.535 C 10.840 12.480,11.975 9.960,12.000 9.960 C 12.015 9.960,12.282 10.534,12.594 11.235 " stroke="none" fill-rule="evenodd" fill="black"></path></svg>