<svg width="24" height="24" viewBox="0 0 24 24" fill="none" xmlns="http://www.w3.org/2000/svg"><path d="M8.988 1.284 C 7.154 1.435,6.033 2.489,5.801 4.280 C 5.780 4.445,5.761 5.192,5.760 5.940 L 5.757 7.300 5.204 7.673 C 4.306 8.277,3.953 8.621,3.739 9.100 C 3.539 9.549,3.540 9.522,3.540 13.540 C 3.540 17.066,3.545 17.316,3.613 17.560 C 3.791 18.189,4.146 18.609,5.011 19.212 C 5.588 19.615,10.387 22.399,10.720 22.524 C 11.473 22.809,12.527 22.809,13.280 22.525 C 13.611 22.400,18.416 19.612,18.992 19.210 C 19.847 18.614,20.211 18.184,20.387 17.560 C 20.455 17.316,20.460 17.066,20.460 13.540 C 20.460 10.744,20.448 9.728,20.412 9.576 C 20.227 8.797,19.908 8.421,18.796 7.673 L 18.243 7.300 18.240 5.940 C 18.239 5.192,18.220 4.445,18.199 4.280 C 18.036 3.022,17.449 2.138,16.460 1.660 C 16.014 1.445,15.562 1.332,14.940 1.281 C 14.375 1.234,9.558 1.237,8.988 1.284 M15.272 2.824 C 15.893 2.952,16.272 3.221,16.496 3.694 C 16.702 4.127,16.726 4.288,16.748 5.414 L 16.769 6.448 16.674 6.397 C 16.622 6.370,15.950 5.983,15.180 5.539 C 13.565 4.606,13.398 4.518,13.015 4.402 C 12.456 4.232,11.544 4.232,10.986 4.402 C 10.603 4.518,10.395 4.627,8.800 5.549 C 8.041 5.988,7.378 6.370,7.326 6.397 L 7.231 6.448 7.252 5.414 C 7.274 4.319,7.298 4.138,7.481 3.734 C 7.697 3.254,8.100 2.954,8.700 2.826 C 9.133 2.734,14.827 2.732,15.272 2.824 M12.667 5.847 C 12.919 5.940,17.601 8.653,18.060 8.972 C 18.676 9.402,18.825 9.538,18.907 9.751 C 18.976 9.929,18.980 10.155,18.980 13.540 C 18.980 16.774,18.973 17.155,18.915 17.282 C 18.759 17.625,18.074 18.080,15.315 19.671 C 12.876 21.077,12.778 21.130,12.524 21.199 C 12.242 21.275,11.649 21.257,11.376 21.165 C 11.099 21.072,6.553 18.459,5.975 18.061 C 5.431 17.687,5.161 17.451,5.085 17.282 C 5.027 17.155,5.020 16.774,5.020 13.540 C 5.020 9.354,4.986 9.702,5.434 9.345 C 5.957 8.929,6.372 8.674,8.700 7.332 C 11.418 5.765,11.207 5.882,11.440 5.815 C 11.680 5.746,12.445 5.766,12.667 5.847 M11.611 9.896 C 11.162 10.042,10.927 10.269,10.476 10.986 C 10.317 11.240,10.149 11.464,10.103 11.483 C 10.057 11.503,9.795 11.574,9.520 11.642 C 8.981 11.775,8.744 11.865,8.512 12.026 C 8.169 12.262,7.926 12.832,7.976 13.279 C 8.013 13.608,8.190 13.925,8.638 14.468 L 9.042 14.957 9.001 15.568 C 8.955 16.266,8.985 16.546,9.140 16.864 C 9.399 17.392,10.066 17.695,10.679 17.564 C 10.797 17.539,11.141 17.421,11.443 17.302 L 11.992 17.086 12.606 17.333 C 13.216 17.578,13.223 17.580,13.620 17.580 C 13.964 17.580,14.045 17.567,14.200 17.485 C 14.502 17.326,14.699 17.139,14.843 16.873 L 14.980 16.620 14.980 15.772 L 14.980 14.923 15.360 14.460 C 15.792 13.933,15.948 13.660,16.000 13.338 C 16.098 12.740,15.753 12.114,15.187 11.860 C 15.073 11.809,14.719 11.700,14.400 11.619 L 13.820 11.471 13.507 10.978 C 13.097 10.331,12.935 10.152,12.617 9.995 C 12.311 9.845,11.893 9.804,11.611 9.896 M12.334 11.910 C 12.843 12.691,13.018 12.815,13.930 13.043 C 14.210 13.113,14.440 13.182,14.440 13.196 C 14.440 13.210,14.313 13.375,14.157 13.561 C 13.754 14.044,13.657 14.193,13.558 14.483 C 13.477 14.721,13.472 14.789,13.494 15.408 L 13.519 16.076 13.260 15.979 C 13.118 15.925,12.896 15.839,12.768 15.786 C 12.073 15.504,11.870 15.524,10.685 15.997 L 10.471 16.082 10.500 15.446 C 10.542 14.517,10.483 14.346,9.858 13.597 L 9.513 13.184 10.098 13.034 C 11.009 12.801,11.156 12.693,11.680 11.870 C 11.845 11.612,11.985 11.400,11.991 11.400 C 11.997 11.400,12.151 11.630,12.334 11.910 " stroke="none" fill-rule="evenodd" fill="black"></path></svg>