<svg width="24" height="24" viewBox="0 0 24 24" fill="none" xmlns="http://www.w3.org/2000/svg"><path d="M11.860 1.268 C 11.589 1.336,11.492 1.436,10.465 2.714 C 9.890 3.429,9.389 4.069,9.350 4.136 C 9.271 4.274,9.258 4.576,9.323 4.747 C 9.370 4.873,9.538 5.064,9.660 5.130 C 9.817 5.216,10.050 5.233,10.271 5.176 C 12.171 4.680,14.549 5.089,16.339 6.220 C 17.247 6.793,18.168 7.691,18.783 8.607 C 19.084 9.054,19.564 10.041,19.738 10.570 C 20.136 11.778,20.244 13.262,20.024 14.500 C 19.402 18.005,16.608 20.695,13.089 21.178 C 12.509 21.258,11.491 21.258,10.911 21.178 C 7.366 20.692,4.551 17.957,3.962 14.427 C 3.825 13.608,3.841 12.463,4.000 11.620 C 4.192 10.597,4.652 9.513,5.311 8.527 C 5.625 8.057,5.640 8.025,5.640 7.811 C 5.640 7.372,5.333 7.063,4.899 7.067 C 4.537 7.070,4.437 7.154,3.979 7.840 C 3.197 9.011,2.668 10.404,2.453 11.860 C 2.361 12.485,2.361 13.830,2.453 14.440 C 2.722 16.211,3.387 17.751,4.481 19.141 C 4.836 19.592,5.671 20.407,6.133 20.754 C 7.314 21.641,8.583 22.228,9.980 22.534 C 11.184 22.798,12.816 22.798,14.020 22.534 C 16.481 21.995,18.623 20.535,20.027 18.440 C 21.539 16.185,22.009 13.332,21.313 10.640 C 20.996 9.415,20.323 8.085,19.502 7.060 C 19.191 6.671,18.569 6.044,18.140 5.686 C 16.512 4.328,14.213 3.480,12.156 3.480 C 11.960 3.480,11.800 3.472,11.800 3.463 C 11.800 3.454,11.996 3.201,12.235 2.902 C 12.723 2.293,12.797 2.128,12.717 1.829 C 12.660 1.616,12.554 1.467,12.389 1.367 C 12.251 1.283,11.992 1.235,11.860 1.268 M10.608 10.125 C 10.536 10.146,10.410 10.231,10.328 10.313 C 10.193 10.449,10.143 10.575,9.770 11.702 C 9.475 12.595,9.360 12.996,9.360 13.137 C 9.360 13.400,9.507 13.650,9.732 13.770 C 9.894 13.857,9.945 13.861,11.280 13.880 C 12.255 13.894,12.685 13.914,12.745 13.948 C 12.881 14.027,13.068 14.262,13.120 14.421 C 13.227 14.746,13.077 15.136,12.773 15.325 C 12.621 15.419,12.608 15.420,11.214 15.440 L 9.807 15.460 9.654 15.583 C 9.453 15.743,9.360 15.932,9.360 16.180 C 9.360 16.428,9.453 16.617,9.654 16.777 L 9.807 16.900 11.221 16.911 C 12.754 16.924,12.942 16.906,13.372 16.702 C 13.859 16.472,14.367 15.904,14.537 15.400 C 14.631 15.122,14.665 14.455,14.601 14.146 C 14.443 13.385,13.763 12.674,12.980 12.451 C 12.852 12.414,12.484 12.386,11.955 12.372 L 11.129 12.350 11.258 11.965 L 11.387 11.580 12.784 11.560 C 13.739 11.546,14.205 11.525,14.260 11.493 C 14.385 11.421,14.551 11.231,14.597 11.107 C 14.698 10.842,14.611 10.451,14.413 10.272 C 14.208 10.086,14.139 10.080,12.391 10.084 C 11.482 10.086,10.681 10.104,10.608 10.125 " stroke="none" fill-rule="evenodd" fill="black"></path></svg>