<svg width="24" height="24" viewBox="0 0 24 24" fill="none" xmlns="http://www.w3.org/2000/svg"><path d="M9.889 5.686 C 9.368 5.761,9.537 5.670,4.160 8.770 C 3.247 9.296,2.407 9.797,2.292 9.883 C 1.918 10.164,1.554 10.676,1.402 11.134 C 1.014 12.309,1.429 13.559,2.432 14.233 C 2.558 14.318,3.686 14.977,4.940 15.699 C 6.194 16.421,7.580 17.219,8.020 17.472 C 9.055 18.068,9.389 18.226,9.780 18.303 C 11.196 18.583,12.631 17.631,12.921 16.220 C 12.948 16.088,12.981 15.699,12.995 15.355 L 13.020 14.729 13.920 15.249 C 16.928 16.988,18.620 17.951,18.900 18.086 C 19.735 18.488,20.722 18.425,21.493 17.922 C 21.862 17.681,22.074 17.469,22.318 17.097 C 22.543 16.754,22.666 16.398,22.719 15.931 C 22.771 15.478,22.771 8.449,22.720 8.040 C 22.664 7.604,22.532 7.229,22.320 6.905 C 22.075 6.532,21.863 6.319,21.498 6.081 C 20.813 5.634,19.916 5.532,19.146 5.814 C 18.921 5.897,17.826 6.515,14.310 8.546 C 13.611 8.950,13.030 9.280,13.020 9.280 C 13.009 9.280,12.999 9.069,12.999 8.810 C 12.996 7.906,12.877 7.388,12.560 6.905 C 12.315 6.532,12.103 6.319,11.738 6.081 C 11.403 5.862,11.074 5.740,10.660 5.681 C 10.338 5.636,10.235 5.636,9.889 5.686 M10.783 7.258 C 11.041 7.374,11.262 7.595,11.384 7.856 L 11.479 8.060 11.480 11.983 C 11.480 16.325,11.493 16.111,11.221 16.428 C 11.147 16.515,10.976 16.644,10.842 16.716 C 10.525 16.885,10.256 16.914,9.960 16.813 C 9.839 16.772,8.642 16.106,7.300 15.334 C 3.519 13.158,3.189 12.964,3.070 12.851 C 3.009 12.792,2.915 12.654,2.860 12.544 C 2.721 12.265,2.718 11.791,2.855 11.498 C 3.028 11.126,2.816 11.258,8.051 8.255 C 9.060 7.676,9.958 7.187,10.051 7.165 C 10.276 7.113,10.535 7.145,10.783 7.258 M20.543 7.258 C 20.801 7.374,21.022 7.595,21.144 7.856 L 21.239 8.060 21.240 11.983 C 21.240 16.325,21.253 16.111,20.981 16.428 C 20.907 16.515,20.736 16.644,20.602 16.716 C 20.285 16.885,20.016 16.914,19.720 16.813 C 19.531 16.749,17.764 15.747,13.930 13.530 L 13.000 12.993 13.000 12.017 L 13.000 11.041 13.150 10.945 C 13.302 10.847,15.874 9.363,18.311 7.967 C 19.043 7.547,19.718 7.187,19.811 7.165 C 20.036 7.113,20.295 7.145,20.543 7.258 " stroke="none" fill-rule="evenodd" fill="black"></path></svg>