<svg width="24" height="24" viewBox="0 0 24 24" fill="none" xmlns="http://www.w3.org/2000/svg"><path d="M15.800 1.264 C 14.577 1.342,13.810 1.626,13.218 2.218 C 12.561 2.875,12.315 3.626,12.256 5.158 L 12.228 5.872 10.824 5.891 C 9.729 5.905,9.342 5.924,9.065 5.977 C 7.250 6.324,6.324 7.250,5.977 9.065 C 5.924 9.342,5.905 9.729,5.891 10.824 L 5.872 12.228 5.158 12.256 C 3.626 12.315,2.875 12.561,2.218 13.218 C 1.723 13.712,1.454 14.311,1.315 15.220 C 1.237 15.732,1.237 19.268,1.315 19.780 C 1.454 20.689,1.723 21.288,2.218 21.782 C 2.712 22.277,3.311 22.546,4.220 22.685 C 4.732 22.763,8.268 22.763,8.780 22.685 C 9.689 22.546,10.288 22.277,10.782 21.782 C 11.439 21.125,11.685 20.374,11.744 18.842 L 11.772 18.128 13.176 18.109 C 14.271 18.095,14.658 18.076,14.935 18.023 C 16.750 17.676,17.676 16.750,18.023 14.935 C 18.076 14.658,18.095 14.271,18.109 13.176 L 18.128 11.772 18.842 11.744 C 19.622 11.714,20.113 11.648,20.542 11.517 C 21.550 11.208,22.238 10.504,22.533 9.478 C 22.721 8.823,22.740 8.555,22.740 6.500 C 22.740 4.445,22.721 4.177,22.533 3.522 C 22.238 2.496,21.550 1.792,20.542 1.483 C 19.928 1.295,19.644 1.272,17.780 1.261 C 16.812 1.255,15.921 1.256,15.800 1.264 M19.726 2.816 C 20.224 2.912,20.474 3.028,20.723 3.277 C 20.882 3.436,20.973 3.570,21.038 3.740 C 21.220 4.223,21.237 4.455,21.237 6.500 C 21.237 8.545,21.220 8.777,21.038 9.260 C 20.914 9.588,20.588 9.914,20.260 10.038 C 19.751 10.230,19.508 10.246,17.347 10.230 C 15.559 10.216,15.312 10.207,15.080 10.142 C 14.364 9.942,14.058 9.637,13.858 8.920 C 13.793 8.688,13.784 8.441,13.770 6.630 C 13.754 4.448,13.766 4.264,13.963 3.740 C 14.086 3.412,14.412 3.086,14.740 2.963 C 15.227 2.779,15.387 2.768,17.466 2.764 C 19.007 2.761,19.497 2.772,19.726 2.816 M12.251 8.010 C 12.288 9.054,12.469 9.770,12.840 10.335 C 13.454 11.270,14.392 11.692,15.990 11.749 L 16.640 11.772 16.640 12.845 C 16.640 14.049,16.595 14.587,16.455 15.073 C 16.329 15.508,16.233 15.690,15.996 15.940 C 15.757 16.194,15.521 16.325,15.079 16.453 C 14.586 16.595,14.053 16.640,12.845 16.640 L 11.772 16.640 11.749 15.990 C 11.712 14.946,11.531 14.230,11.160 13.665 C 10.546 12.730,9.608 12.308,8.010 12.251 L 7.360 12.228 7.360 11.158 C 7.360 9.933,7.402 9.420,7.542 8.936 C 7.671 8.491,7.766 8.311,8.004 8.060 C 8.247 7.803,8.484 7.672,8.942 7.542 C 9.448 7.399,9.785 7.371,11.084 7.365 L 12.228 7.360 12.251 8.010 M8.920 13.858 C 9.637 14.059,9.942 14.364,10.142 15.080 C 10.207 15.312,10.216 15.559,10.230 17.347 C 10.246 19.508,10.230 19.751,10.038 20.260 C 9.914 20.588,9.588 20.914,9.260 21.038 C 8.777 21.220,8.545 21.237,6.500 21.237 C 4.455 21.237,4.223 21.220,3.740 21.038 C 3.412 20.913,3.086 20.588,2.963 20.260 C 2.775 19.758,2.760 19.560,2.760 17.500 C 2.760 15.440,2.775 15.242,2.963 14.740 C 3.086 14.412,3.412 14.086,3.740 13.963 C 4.246 13.772,4.365 13.764,6.580 13.775 C 8.450 13.784,8.686 13.792,8.920 13.858 " stroke="none" fill-rule="evenodd" fill="black"></path></svg>