<svg width="24" height="24" viewBox="0 0 24 24" fill="none" xmlns="http://www.w3.org/2000/svg"><path d="M11.860 1.268 C 11.589 1.336,11.492 1.436,10.465 2.714 C 9.890 3.429,9.389 4.069,9.350 4.136 C 9.271 4.274,9.258 4.576,9.323 4.747 C 9.370 4.873,9.538 5.064,9.660 5.130 C 9.817 5.216,10.050 5.233,10.271 5.176 C 12.171 4.680,14.549 5.089,16.339 6.220 C 17.247 6.793,18.168 7.691,18.783 8.607 C 19.084 9.054,19.564 10.041,19.738 10.570 C 20.136 11.778,20.244 13.262,20.024 14.500 C 19.402 18.005,16.608 20.695,13.089 21.178 C 12.509 21.258,11.491 21.258,10.911 21.178 C 7.366 20.692,4.551 17.957,3.962 14.427 C 3.825 13.608,3.841 12.463,4.000 11.620 C 4.192 10.597,4.652 9.513,5.311 8.527 C 5.625 8.057,5.640 8.025,5.640 7.811 C 5.640 7.372,5.333 7.063,4.899 7.067 C 4.537 7.070,4.437 7.154,3.979 7.840 C 3.197 9.011,2.668 10.404,2.453 11.860 C 2.361 12.485,2.361 13.830,2.453 14.440 C 2.722 16.211,3.387 17.751,4.481 19.141 C 4.836 19.592,5.671 20.407,6.133 20.754 C 7.314 21.641,8.583 22.228,9.980 22.534 C 11.184 22.798,12.816 22.798,14.020 22.534 C 16.481 21.995,18.623 20.535,20.027 18.440 C 21.539 16.185,22.009 13.332,21.313 10.640 C 20.996 9.415,20.323 8.085,19.502 7.060 C 19.191 6.671,18.569 6.044,18.140 5.686 C 16.512 4.328,14.213 3.480,12.156 3.480 C 11.960 3.480,11.800 3.472,11.800 3.463 C 11.800 3.454,11.996 3.201,12.235 2.902 C 12.723 2.293,12.797 2.128,12.717 1.829 C 12.660 1.616,12.554 1.467,12.389 1.367 C 12.251 1.283,11.992 1.235,11.860 1.268 M9.300 10.126 C 9.234 10.151,9.141 10.200,9.093 10.236 C 8.949 10.341,7.442 12.040,7.373 12.174 C 7.291 12.332,7.290 12.667,7.371 12.821 C 7.508 13.085,7.756 13.240,8.040 13.240 C 8.266 13.240,8.397 13.178,8.610 12.969 L 8.800 12.783 8.800 14.559 C 8.800 16.263,8.803 16.342,8.881 16.503 C 8.928 16.599,9.034 16.720,9.128 16.786 C 9.266 16.881,9.334 16.900,9.540 16.900 C 9.746 16.900,9.814 16.881,9.952 16.786 C 10.046 16.720,10.152 16.599,10.199 16.503 C 10.278 16.339,10.280 16.269,10.280 13.500 C 10.280 10.731,10.278 10.661,10.199 10.497 C 10.047 10.183,9.620 10.007,9.300 10.126 M12.650 10.125 C 12.579 10.145,12.459 10.223,12.385 10.298 C 12.265 10.418,12.197 10.590,11.820 11.721 C 11.334 13.178,11.320 13.269,11.549 13.552 C 11.800 13.862,11.774 13.858,13.323 13.880 C 14.704 13.900,14.706 13.900,14.847 13.996 C 15.269 14.286,15.321 14.885,14.953 15.228 C 14.737 15.430,14.655 15.440,13.280 15.440 C 12.216 15.440,11.972 15.450,11.850 15.502 C 11.652 15.584,11.563 15.670,11.475 15.860 C 11.284 16.276,11.491 16.757,11.915 16.883 C 12.011 16.911,12.548 16.921,13.500 16.912 C 14.926 16.898,14.943 16.897,15.201 16.797 C 15.881 16.535,16.385 16.005,16.604 15.320 C 16.720 14.957,16.721 14.324,16.604 13.957 C 16.395 13.295,15.787 12.687,15.123 12.475 C 14.903 12.405,14.723 12.388,14.030 12.370 C 13.573 12.359,13.200 12.338,13.200 12.325 C 13.200 12.311,13.255 12.134,13.323 11.930 L 13.447 11.560 14.810 11.560 L 16.173 11.560 16.337 11.464 C 16.747 11.224,16.818 10.614,16.473 10.292 C 16.251 10.084,16.207 10.080,14.431 10.084 C 13.523 10.086,12.722 10.104,12.650 10.125 " stroke="none" fill-rule="evenodd" fill="black"></path></svg>