<svg width="24" height="24" viewBox="0 0 24 24" fill="none" xmlns="http://www.w3.org/2000/svg"><path d="M11.860 1.268 C 11.589 1.336,11.492 1.436,10.465 2.714 C 9.890 3.429,9.389 4.069,9.350 4.136 C 9.271 4.274,9.258 4.576,9.323 4.747 C 9.370 4.873,9.538 5.064,9.660 5.130 C 9.817 5.216,10.050 5.233,10.271 5.176 C 12.171 4.680,14.549 5.089,16.339 6.220 C 17.247 6.793,18.168 7.691,18.783 8.607 C 19.084 9.054,19.564 10.041,19.738 10.570 C 20.136 11.778,20.244 13.262,20.024 14.500 C 19.402 18.005,16.608 20.695,13.089 21.178 C 12.509 21.258,11.491 21.258,10.911 21.178 C 7.366 20.692,4.551 17.957,3.962 14.427 C 3.825 13.608,3.841 12.463,4.000 11.620 C 4.192 10.597,4.652 9.513,5.311 8.527 C 5.625 8.057,5.640 8.025,5.640 7.811 C 5.640 7.372,5.333 7.063,4.899 7.067 C 4.537 7.070,4.437 7.154,3.979 7.840 C 3.197 9.011,2.668 10.404,2.453 11.860 C 2.361 12.485,2.361 13.830,2.453 14.440 C 2.722 16.211,3.387 17.751,4.481 19.141 C 4.836 19.592,5.671 20.407,6.133 20.754 C 7.314 21.641,8.583 22.228,9.980 22.534 C 11.184 22.798,12.816 22.798,14.020 22.534 C 16.481 21.995,18.623 20.535,20.027 18.440 C 21.539 16.185,22.009 13.332,21.313 10.640 C 20.996 9.415,20.323 8.085,19.502 7.060 C 19.191 6.671,18.569 6.044,18.140 5.686 C 16.512 4.328,14.213 3.480,12.156 3.480 C 11.960 3.480,11.800 3.472,11.800 3.463 C 11.800 3.454,11.996 3.201,12.235 2.902 C 12.723 2.293,12.797 2.128,12.717 1.829 C 12.660 1.616,12.554 1.467,12.389 1.367 C 12.251 1.283,11.992 1.235,11.860 1.268 M9.220 9.915 C 9.105 9.968,8.840 10.235,8.280 10.858 C 7.376 11.866,7.302 11.973,7.306 12.259 C 7.310 12.581,7.468 12.812,7.769 12.938 C 8.066 13.062,8.346 12.988,8.630 12.710 L 8.800 12.543 8.800 14.309 C 8.800 15.459,8.815 16.114,8.843 16.187 C 8.945 16.460,9.233 16.651,9.540 16.651 C 9.847 16.651,10.135 16.460,10.237 16.187 C 10.266 16.112,10.280 15.150,10.279 13.247 C 10.278 10.590,10.274 10.410,10.205 10.260 C 10.117 10.070,10.028 9.984,9.830 9.902 C 9.635 9.820,9.416 9.825,9.220 9.915 M13.387 9.902 C 12.589 10.081,11.899 10.633,11.540 11.380 C 11.282 11.915,11.260 12.063,11.261 13.280 C 11.261 14.160,11.273 14.384,11.331 14.600 C 11.604 15.617,12.439 16.413,13.448 16.618 C 14.882 16.908,16.286 16.028,16.669 14.600 C 16.727 14.384,16.739 14.160,16.739 13.280 C 16.740 12.057,16.718 11.911,16.455 11.374 C 16.133 10.715,15.539 10.192,14.869 9.977 C 14.450 9.843,13.800 9.810,13.387 9.902 M14.546 11.462 C 14.797 11.584,15.016 11.818,15.147 12.104 C 15.244 12.316,15.245 12.330,15.233 13.309 C 15.218 14.428,15.208 14.472,14.874 14.806 C 14.275 15.405,13.282 15.240,12.872 14.472 C 12.783 14.305,12.780 14.267,12.780 13.260 C 12.780 12.248,12.783 12.215,12.873 12.040 C 13.201 11.409,13.926 11.159,14.546 11.462 " stroke="none" fill-rule="evenodd" fill="black"></path></svg>