<svg width="24" height="24" viewBox="0 0 24 24" fill="none" xmlns="http://www.w3.org/2000/svg"><path d="M8.080 1.282 C 4.008 1.495,1.895 3.296,1.383 6.991 C 1.270 7.803,1.242 8.816,1.242 12.000 C 1.242 16.504,1.302 17.273,1.760 18.650 C 2.532 20.963,4.206 22.226,7.027 22.622 C 7.786 22.728,8.902 22.759,12.000 22.759 C 15.098 22.759,16.214 22.728,16.973 22.622 C 19.443 22.275,20.996 21.288,21.897 19.490 C 22.379 18.530,22.638 17.369,22.720 15.807 C 22.771 14.838,22.771 9.162,22.720 8.193 C 22.657 6.998,22.521 6.191,22.242 5.356 C 21.632 3.531,20.469 2.367,18.650 1.760 C 17.788 1.473,17.023 1.344,15.806 1.280 C 14.952 1.235,8.952 1.237,8.080 1.282 M16.800 2.854 C 19.586 3.316,20.714 4.454,21.148 7.240 C 21.214 7.661,21.220 8.064,21.220 12.000 C 21.220 15.936,21.214 16.339,21.148 16.760 C 20.712 19.558,19.558 20.712,16.760 21.148 C 16.339 21.214,15.936 21.220,12.000 21.220 C 8.064 21.220,7.661 21.214,7.240 21.148 C 4.450 20.713,3.283 19.551,2.854 16.780 C 2.785 16.335,2.780 15.989,2.780 12.000 C 2.780 7.247,2.776 7.337,3.044 6.288 C 3.557 4.282,4.722 3.274,6.960 2.900 C 7.690 2.777,8.048 2.769,12.200 2.777 C 15.963 2.784,16.422 2.791,16.800 2.854 M8.260 6.942 C 8.105 7.021,6.415 8.702,6.332 8.859 C 6.232 9.046,6.250 9.362,6.371 9.567 C 6.428 9.662,6.858 10.121,7.327 10.586 C 8.262 11.514,8.328 11.558,8.701 11.502 C 8.855 11.479,8.926 11.438,9.082 11.282 C 9.238 11.126,9.279 11.055,9.302 10.901 C 9.343 10.627,9.268 10.424,9.031 10.174 L 8.828 9.960 11.484 9.961 C 14.405 9.961,14.445 9.964,14.950 10.204 C 15.148 10.298,15.306 10.419,15.541 10.656 C 16.045 11.163,16.240 11.623,16.240 12.300 C 16.240 12.977,16.045 13.437,15.541 13.944 C 15.306 14.181,15.148 14.302,14.950 14.396 C 14.445 14.636,14.404 14.639,11.493 14.639 C 9.721 14.640,8.808 14.654,8.733 14.683 C 8.460 14.785,8.269 15.073,8.269 15.380 C 8.269 15.687,8.460 15.975,8.733 16.077 C 8.808 16.106,9.739 16.120,11.558 16.120 C 14.520 16.120,14.587 16.116,15.242 15.884 C 16.574 15.413,17.584 14.108,17.715 12.689 C 17.902 10.677,16.580 8.918,14.599 8.542 C 14.323 8.490,13.841 8.480,11.532 8.480 L 8.793 8.480 9.017 8.233 C 9.353 7.862,9.404 7.524,9.174 7.191 C 8.985 6.918,8.542 6.797,8.260 6.942 " stroke="none" fill-rule="evenodd" fill="black"></path></svg>