<svg width="24" height="24" viewBox="0 0 24 24" fill="none" xmlns="http://www.w3.org/2000/svg"><path d="M11.102 1.342 C 8.949 1.748,7.193 3.633,6.819 5.939 C 6.787 6.137,6.760 6.528,6.760 6.806 L 6.760 7.312 6.550 7.340 C 4.135 7.660,2.814 8.823,2.559 10.855 C 2.465 11.600,2.520 12.268,2.975 15.860 C 3.248 18.012,3.430 19.314,3.493 19.562 C 3.891 21.115,4.906 22.075,6.580 22.482 C 7.563 22.721,8.295 22.758,12.000 22.758 C 15.705 22.758,16.437 22.721,17.420 22.482 C 19.094 22.075,20.109 21.115,20.507 19.562 C 20.570 19.314,20.752 18.014,21.024 15.860 C 21.494 12.146,21.544 11.508,21.425 10.728 C 21.125 8.777,19.807 7.652,17.450 7.340 L 17.240 7.312 17.240 6.726 C 17.239 5.372,16.910 4.323,16.182 3.356 C 15.461 2.396,14.446 1.726,13.240 1.413 C 12.746 1.284,11.608 1.247,11.102 1.342 M12.748 2.837 C 13.138 2.917,13.617 3.106,13.992 3.327 C 14.344 3.534,15.026 4.239,15.237 4.614 C 15.599 5.257,15.760 5.933,15.760 6.809 L 15.760 7.240 12.000 7.240 L 8.240 7.240 8.240 6.883 C 8.240 5.931,8.529 5.046,9.080 4.315 C 9.335 3.975,9.884 3.458,10.171 3.287 C 10.503 3.089,10.983 2.893,11.300 2.826 C 11.700 2.741,12.307 2.746,12.748 2.837 M17.507 8.851 C 18.354 9.009,18.954 9.273,19.345 9.660 C 19.623 9.935,19.759 10.178,19.889 10.628 C 19.968 10.900,19.979 11.027,19.977 11.620 C 19.974 12.234,19.934 12.613,19.567 15.520 C 19.344 17.291,19.123 18.907,19.077 19.112 C 18.787 20.398,17.924 21.006,16.112 21.199 C 15.588 21.254,8.412 21.254,7.888 21.199 C 6.076 21.006,5.213 20.398,4.923 19.112 C 4.877 18.907,4.656 17.291,4.433 15.520 C 4.066 12.613,4.026 12.234,4.023 11.620 C 4.021 11.027,4.032 10.900,4.111 10.628 C 4.241 10.178,4.377 9.935,4.655 9.660 C 5.132 9.188,5.894 8.908,7.040 8.786 C 7.117 8.778,9.421 8.774,12.160 8.777 C 16.669 8.782,17.175 8.789,17.507 8.851 M8.240 11.035 C 7.943 11.132,7.688 11.355,7.582 11.609 C 7.548 11.691,7.520 11.867,7.520 12.000 C 7.520 12.286,7.596 12.490,7.772 12.674 C 7.985 12.896,8.181 12.978,8.500 12.978 C 8.819 12.978,9.015 12.896,9.228 12.674 C 9.404 12.490,9.480 12.286,9.480 12.000 C 9.480 11.600,9.294 11.293,8.943 11.112 C 8.771 11.024,8.399 10.983,8.240 11.035 M15.240 11.035 C 14.943 11.132,14.688 11.355,14.582 11.609 C 14.548 11.691,14.520 11.867,14.520 12.000 C 14.520 12.286,14.596 12.490,14.772 12.674 C 14.985 12.896,15.181 12.978,15.500 12.978 C 15.819 12.978,16.015 12.896,16.228 12.674 C 16.404 12.490,16.480 12.286,16.480 12.000 C 16.480 11.600,16.294 11.293,15.943 11.112 C 15.771 11.024,15.399 10.983,15.240 11.035 " stroke="none" fill-rule="evenodd" fill="black"></path></svg>