<svg width="24" height="24" viewBox="0 0 24 24" fill="none" xmlns="http://www.w3.org/2000/svg"><path d="M8.660 1.277 C 8.594 1.293,8.495 1.329,8.440 1.358 C 8.385 1.386,7.503 2.242,6.480 3.261 L 4.620 5.113 3.920 5.132 C 3.140 5.154,2.908 5.199,2.456 5.420 C 1.585 5.845,1.165 6.869,1.280 8.288 C 1.379 9.505,1.828 10.203,2.690 10.478 C 2.772 10.505,2.840 10.541,2.840 10.558 C 2.840 10.673,4.218 19.006,4.282 19.280 C 4.691 21.026,5.479 21.986,6.888 22.458 C 7.693 22.727,8.224 22.759,11.880 22.759 C 14.708 22.758,15.769 22.729,16.240 22.639 C 17.252 22.445,17.963 22.095,18.464 21.547 C 18.879 21.092,19.154 20.542,19.358 19.757 C 19.424 19.506,19.848 17.365,20.301 15.000 C 20.754 12.635,21.134 10.660,21.146 10.612 C 21.160 10.554,21.218 10.508,21.314 10.477 C 21.979 10.265,22.427 9.753,22.617 8.988 C 22.717 8.585,22.760 7.925,22.717 7.435 C 22.628 6.409,22.228 5.739,21.500 5.396 C 21.081 5.199,20.835 5.153,20.080 5.132 L 19.380 5.113 17.520 3.260 C 16.497 2.242,15.597 1.377,15.521 1.338 C 15.349 1.252,15.018 1.248,14.859 1.330 C 14.618 1.456,14.439 1.746,14.441 2.009 C 14.443 2.285,14.571 2.439,15.896 3.760 C 16.613 4.475,17.200 5.073,17.200 5.090 C 17.200 5.106,14.860 5.120,12.000 5.120 C 9.140 5.120,6.800 5.106,6.800 5.090 C 6.800 5.073,7.387 4.475,8.104 3.760 C 8.955 2.912,9.434 2.404,9.483 2.300 C 9.738 1.758,9.239 1.138,8.660 1.277 M20.567 6.658 C 20.908 6.730,21.014 6.802,21.127 7.033 C 21.203 7.190,21.220 7.303,21.234 7.738 C 21.254 8.384,21.194 8.761,21.046 8.925 C 20.952 9.029,20.901 9.047,20.600 9.081 C 20.142 9.133,3.858 9.133,3.400 9.081 C 3.099 9.047,3.048 9.029,2.954 8.925 C 2.806 8.761,2.746 8.384,2.766 7.738 C 2.791 6.960,2.905 6.771,3.414 6.660 C 3.791 6.578,20.180 6.576,20.567 6.658 M19.620 10.650 C 19.611 10.678,19.242 12.581,18.802 14.880 C 18.361 17.179,17.955 19.230,17.899 19.438 C 17.597 20.559,17.090 20.996,15.880 21.181 C 15.311 21.268,8.469 21.267,7.932 21.180 C 6.723 20.984,6.099 20.392,5.782 19.140 C 5.709 18.851,4.360 10.770,4.360 10.620 C 4.360 10.609,7.797 10.600,11.999 10.600 C 18.092 10.600,19.634 10.610,19.620 10.650 M14.040 13.838 C 13.963 13.879,13.282 14.483,12.527 15.181 L 11.155 16.449 10.627 15.930 C 10.337 15.645,10.037 15.380,9.961 15.340 C 9.789 15.252,9.460 15.247,9.299 15.331 C 8.934 15.521,8.784 15.932,8.942 16.310 C 9.025 16.510,10.610 18.095,10.810 18.178 C 10.992 18.254,11.241 18.258,11.411 18.186 C 11.564 18.122,14.903 15.052,15.020 14.868 C 15.077 14.776,15.100 14.673,15.100 14.497 C 15.100 14.294,15.081 14.226,14.986 14.088 C 14.777 13.787,14.349 13.674,14.040 13.838 " stroke="none" fill-rule="evenodd" fill="black"></path></svg>