<svg width="24" height="24" viewBox="0 0 24 24" fill="none" xmlns="http://www.w3.org/2000/svg"><path d="M6.009 4.283 C 4.610 4.359,3.703 4.597,2.971 5.079 C 1.987 5.727,1.501 6.736,1.313 8.520 C 1.238 9.229,1.238 14.770,1.313 15.480 C 1.501 17.259,1.990 18.274,2.971 18.921 C 3.736 19.424,4.573 19.635,6.158 19.721 C 7.110 19.773,7.295 19.745,7.519 19.521 C 7.871 19.169,7.773 18.550,7.332 18.338 C 7.208 18.278,7.031 18.259,6.380 18.235 C 5.149 18.190,4.399 18.038,3.890 17.733 C 3.461 17.476,3.234 17.170,3.039 16.589 C 2.786 15.838,2.780 15.727,2.780 12.000 C 2.780 8.896,2.786 8.584,2.854 8.180 C 2.981 7.424,3.232 6.818,3.539 6.522 C 4.030 6.049,4.889 5.820,6.380 5.764 C 7.026 5.740,7.209 5.720,7.332 5.661 C 7.771 5.452,7.871 4.831,7.522 4.482 C 7.277 4.237,7.153 4.221,6.009 4.283 M12.815 4.276 C 12.329 4.399,12.098 5.004,12.383 5.408 C 12.588 5.698,12.700 5.730,13.616 5.764 C 14.849 5.810,15.600 5.961,16.110 6.267 C 16.539 6.524,16.766 6.830,16.961 7.411 C 17.214 8.162,17.220 8.273,17.220 12.000 C 17.220 15.090,17.214 15.417,17.147 15.815 C 16.960 16.922,16.615 17.499,15.951 17.814 C 15.377 18.086,14.789 18.191,13.594 18.236 C 12.792 18.265,12.759 18.270,12.607 18.370 C 12.372 18.526,12.267 18.723,12.267 19.007 C 12.267 19.203,12.286 19.270,12.383 19.408 C 12.590 19.701,12.723 19.741,13.440 19.731 C 15.476 19.701,16.702 19.336,17.519 18.519 C 18.188 17.851,18.531 16.956,18.687 15.480 C 18.762 14.771,18.762 9.229,18.687 8.520 C 18.531 7.044,18.188 6.149,17.519 5.481 C 16.854 4.815,15.901 4.448,14.520 4.325 C 13.851 4.265,12.959 4.240,12.815 4.276 M9.810 7.278 C 9.738 7.296,9.625 7.353,9.559 7.405 C 9.356 7.564,7.452 10.114,7.351 10.360 C 7.277 10.541,7.262 10.658,7.261 11.021 C 7.260 11.439,7.267 11.476,7.391 11.727 C 7.580 12.111,7.830 12.371,8.175 12.541 C 8.567 12.735,8.780 12.758,10.188 12.759 C 11.390 12.760,11.396 12.760,11.458 12.849 C 11.492 12.898,11.520 12.968,11.520 13.006 C 11.520 13.043,11.059 13.611,10.495 14.267 C 9.932 14.923,9.424 15.530,9.367 15.615 C 9.159 15.925,9.261 16.383,9.591 16.615 C 9.789 16.756,10.095 16.776,10.327 16.664 C 10.538 16.563,12.721 14.012,12.872 13.691 C 12.970 13.482,12.980 13.417,12.980 12.999 C 12.980 12.559,12.974 12.526,12.849 12.273 C 12.660 11.889,12.410 11.629,12.065 11.459 C 11.673 11.265,11.460 11.242,10.052 11.241 C 8.850 11.240,8.844 11.240,8.782 11.151 C 8.748 11.102,8.720 11.033,8.720 10.997 C 8.720 10.961,9.154 10.357,9.684 9.656 C 10.215 8.954,10.667 8.335,10.690 8.280 C 10.761 8.107,10.735 7.774,10.638 7.617 C 10.472 7.347,10.118 7.203,9.810 7.278 M20.180 8.835 C 19.990 8.923,19.904 9.012,19.822 9.210 C 19.655 9.608,19.860 10.075,20.252 10.194 C 20.323 10.215,20.537 10.243,20.729 10.254 C 21.296 10.289,21.240 10.098,21.240 12.000 C 21.240 13.902,21.296 13.711,20.729 13.746 C 20.537 13.757,20.323 13.785,20.252 13.806 C 19.848 13.929,19.648 14.413,19.835 14.820 C 19.976 15.126,20.204 15.241,20.669 15.239 C 21.775 15.234,22.442 14.820,22.669 13.999 C 22.732 13.769,22.740 13.548,22.740 12.000 C 22.740 10.452,22.732 10.231,22.669 10.001 C 22.536 9.522,22.280 9.204,21.859 8.996 C 21.403 8.772,20.505 8.686,20.180 8.835 " stroke="none" fill-rule="evenodd" fill="black"></path></svg>