<svg width="24" height="24" viewBox="0 0 24 24" fill="none" xmlns="http://www.w3.org/2000/svg"><path d="M15.720 1.805 C 15.665 1.827,15.570 1.893,15.508 1.951 C 15.447 2.010,13.110 5.679,10.316 10.104 L 5.234 18.150 4.963 18.098 C 4.542 18.018,4.363 17.963,4.050 17.819 C 3.491 17.562,3.154 17.095,2.966 16.320 C 2.784 15.570,2.780 15.471,2.780 11.960 C 2.780 8.895,2.786 8.584,2.854 8.180 C 2.981 7.424,3.232 6.818,3.539 6.522 C 4.030 6.049,4.889 5.820,6.380 5.764 C 7.026 5.740,7.209 5.720,7.332 5.661 C 7.772 5.452,7.871 4.831,7.521 4.481 C 7.291 4.251,7.129 4.227,6.177 4.278 C 4.577 4.364,3.738 4.574,2.971 5.079 C 2.002 5.718,1.511 6.720,1.317 8.460 C 1.253 9.034,1.222 13.571,1.275 14.700 C 1.364 16.601,1.630 17.528,2.327 18.365 C 2.718 18.835,3.419 19.250,4.140 19.440 C 4.250 19.469,4.347 19.498,4.355 19.505 C 4.363 19.511,4.139 19.882,3.857 20.328 C 3.298 21.215,3.224 21.372,3.264 21.594 C 3.373 22.197,4.067 22.454,4.492 22.048 C 4.553 21.990,6.891 18.320,9.686 13.893 L 14.770 5.844 14.895 5.865 C 16.195 6.089,16.765 6.573,17.034 7.680 C 17.216 8.430,17.220 8.529,17.220 12.040 C 17.220 15.092,17.214 15.418,17.147 15.815 C 16.960 16.922,16.615 17.499,15.951 17.814 C 15.377 18.086,14.789 18.191,13.594 18.236 C 12.792 18.265,12.759 18.270,12.607 18.370 C 12.372 18.526,12.267 18.723,12.267 19.007 C 12.267 19.203,12.286 19.270,12.383 19.408 C 12.590 19.701,12.723 19.741,13.440 19.731 C 16.982 19.678,18.339 18.594,18.683 15.540 C 18.747 14.967,18.778 10.432,18.725 9.300 C 18.680 8.341,18.617 7.822,18.481 7.275 C 18.317 6.617,18.003 6.000,17.601 5.549 C 17.261 5.166,16.580 4.765,15.980 4.595 C 15.804 4.544,15.653 4.499,15.645 4.494 C 15.637 4.488,15.868 4.106,16.159 3.645 C 16.450 3.183,16.703 2.737,16.721 2.655 C 16.825 2.195,16.462 1.755,15.985 1.763 C 15.894 1.764,15.775 1.783,15.720 1.805 M20.180 8.835 C 19.990 8.923,19.904 9.012,19.822 9.210 C 19.655 9.608,19.860 10.075,20.252 10.194 C 20.323 10.215,20.537 10.243,20.729 10.254 C 21.296 10.289,21.240 10.098,21.240 12.000 C 21.240 13.902,21.296 13.711,20.729 13.746 C 20.537 13.757,20.323 13.785,20.252 13.806 C 19.848 13.929,19.648 14.413,19.835 14.820 C 19.976 15.126,20.204 15.241,20.669 15.239 C 21.775 15.234,22.442 14.820,22.669 13.999 C 22.732 13.769,22.740 13.548,22.740 12.000 C 22.740 10.452,22.732 10.231,22.669 10.001 C 22.536 9.522,22.280 9.204,21.859 8.996 C 21.403 8.772,20.505 8.686,20.180 8.835 " stroke="none" fill-rule="evenodd" fill="black"></path></svg>