<svg width="24" height="24" viewBox="0 0 24 24" fill="none" xmlns="http://www.w3.org/2000/svg"><path d="M6.009 4.281 C 4.599 4.362,3.702 4.598,2.971 5.079 C 1.987 5.727,1.501 6.736,1.313 8.520 C 1.238 9.229,1.238 14.770,1.313 15.480 C 1.469 16.956,1.812 17.851,2.481 18.519 C 3.149 19.188,4.044 19.531,5.520 19.687 C 5.899 19.727,6.984 19.740,10.000 19.740 C 13.016 19.740,14.101 19.727,14.480 19.687 C 15.956 19.531,16.851 19.188,17.519 18.519 C 18.188 17.851,18.531 16.956,18.687 15.480 C 18.762 14.771,18.762 9.229,18.687 8.520 C 18.532 7.045,18.188 6.150,17.520 5.481 C 16.866 4.825,15.995 4.485,14.540 4.315 C 14.060 4.259,6.892 4.231,6.009 4.281 M14.920 5.868 C 16.149 6.106,16.650 6.485,16.961 7.411 C 17.214 8.162,17.220 8.273,17.220 12.000 C 17.220 15.090,17.214 15.417,17.147 15.815 C 17.011 16.619,16.805 17.112,16.458 17.458 C 16.112 17.805,15.619 18.011,14.815 18.147 C 14.412 18.215,14.060 18.220,10.000 18.220 C 5.923 18.220,5.590 18.215,5.180 18.146 C 4.397 18.014,3.795 17.759,3.501 17.435 C 3.193 17.096,2.979 16.560,2.854 15.820 C 2.786 15.416,2.780 15.104,2.780 12.000 C 2.780 8.896,2.786 8.584,2.854 8.180 C 3.041 7.066,3.379 6.505,4.059 6.180 C 4.486 5.976,4.795 5.905,5.780 5.785 C 5.846 5.777,7.835 5.774,10.200 5.778 C 14.345 5.786,14.515 5.789,14.920 5.868 M20.180 8.835 C 19.990 8.923,19.904 9.012,19.822 9.210 C 19.655 9.608,19.860 10.075,20.252 10.194 C 20.323 10.215,20.537 10.243,20.729 10.254 C 21.296 10.289,21.240 10.098,21.240 12.000 C 21.240 13.902,21.296 13.711,20.729 13.746 C 20.537 13.757,20.323 13.785,20.252 13.806 C 19.848 13.929,19.648 14.413,19.835 14.820 C 19.976 15.126,20.204 15.241,20.669 15.239 C 21.775 15.234,22.442 14.820,22.669 13.999 C 22.732 13.769,22.740 13.548,22.740 12.000 C 22.740 10.452,22.732 10.231,22.669 10.001 C 22.536 9.522,22.280 9.204,21.859 8.996 C 21.403 8.772,20.505 8.686,20.180 8.835 M6.140 9.299 C 5.926 9.376,5.693 9.630,5.656 9.826 C 5.628 9.977,5.643 10.092,5.786 10.820 C 5.885 11.328,5.885 12.672,5.786 13.180 C 5.590 14.176,5.594 14.244,5.854 14.505 C 6.187 14.837,6.637 14.822,6.949 14.467 C 7.074 14.325,7.122 14.162,7.267 13.392 C 7.368 12.858,7.368 11.142,7.267 10.608 C 7.122 9.838,7.074 9.675,6.949 9.533 C 6.732 9.286,6.424 9.197,6.140 9.299 " stroke="none" fill-rule="evenodd" fill="black"></path></svg>