<svg width="24" height="24" viewBox="0 0 24 24" fill="none" xmlns="http://www.w3.org/2000/svg"><path d="M10.180 3.280 C 9.514 3.372,8.898 3.789,8.555 4.380 C 8.351 4.732,8.277 5.044,8.251 5.670 L 8.228 6.240 6.937 6.240 L 5.646 6.240 5.599 6.090 C 5.418 5.519,4.891 4.911,4.280 4.568 C 3.566 4.168,2.434 4.168,1.720 4.568 C 0.781 5.094,0.269 5.953,0.269 7.000 C 0.269 8.047,0.781 8.906,1.720 9.432 C 2.434 9.832,3.566 9.832,4.280 9.432 C 4.891 9.089,5.418 8.481,5.599 7.910 L 5.646 7.760 6.593 7.761 L 7.540 7.763 7.420 7.851 C 5.704 9.123,4.421 11.558,4.294 13.785 L 4.268 14.231 3.907 14.259 C 3.451 14.295,3.119 14.396,2.817 14.593 C 2.314 14.922,1.949 15.424,1.821 15.964 C 1.735 16.330,1.734 18.666,1.820 19.031 C 1.996 19.776,2.598 20.418,3.338 20.651 C 3.606 20.736,3.687 20.740,4.980 20.740 C 6.274 20.740,6.354 20.736,6.620 20.651 C 7.403 20.403,8.041 19.722,8.196 18.968 C 8.266 18.630,8.253 16.280,8.180 15.969 C 8.047 15.408,7.710 14.942,7.183 14.595 C 6.885 14.399,6.559 14.297,6.105 14.259 L 5.750 14.230 5.777 13.857 C 5.902 12.162,6.766 10.407,8.028 9.290 L 8.310 9.041 8.396 9.278 C 8.634 9.930,9.166 10.429,9.860 10.651 C 10.133 10.738,10.185 10.740,12.000 10.740 C 13.815 10.740,13.867 10.738,14.140 10.651 C 14.834 10.429,15.366 9.930,15.604 9.278 L 15.690 9.041 15.972 9.290 C 17.234 10.407,18.098 12.162,18.223 13.857 L 18.250 14.230 17.895 14.259 C 17.443 14.297,17.117 14.398,16.817 14.593 C 16.314 14.922,15.949 15.424,15.821 15.964 C 15.747 16.281,15.733 18.626,15.804 18.968 C 15.961 19.727,16.593 20.402,17.380 20.651 C 17.646 20.736,17.726 20.740,19.020 20.740 C 20.313 20.740,20.394 20.736,20.662 20.651 C 21.402 20.418,22.004 19.776,22.180 19.031 C 22.265 18.670,22.265 16.330,22.180 15.969 C 22.047 15.408,21.710 14.942,21.183 14.595 C 20.882 14.397,20.551 14.295,20.093 14.259 L 19.732 14.231 19.706 13.785 C 19.607 12.062,18.836 10.218,17.645 8.855 C 17.352 8.519,16.871 8.066,16.580 7.851 L 16.460 7.763 17.407 7.761 L 18.354 7.760 18.401 7.910 C 18.526 8.305,18.916 8.851,19.273 9.131 C 19.818 9.558,20.315 9.731,21.000 9.731 C 22.047 9.731,22.906 9.219,23.432 8.280 C 23.832 7.566,23.832 6.434,23.432 5.720 C 22.906 4.781,22.047 4.269,21.000 4.269 C 20.315 4.269,19.818 4.442,19.273 4.869 C 18.916 5.149,18.526 5.695,18.401 6.090 L 18.354 6.240 17.063 6.240 L 15.772 6.240 15.748 5.670 C 15.733 5.326,15.698 5.013,15.658 4.880 C 15.441 4.153,14.867 3.577,14.120 3.337 C 13.925 3.274,13.700 3.265,12.160 3.256 C 11.203 3.251,10.312 3.262,10.180 3.280 M13.832 4.836 C 14.001 4.922,14.083 5.006,14.175 5.188 C 14.232 5.300,14.240 5.527,14.240 7.000 C 14.240 8.473,14.232 8.700,14.175 8.812 C 14.083 8.994,14.001 9.078,13.832 9.164 C 13.693 9.235,13.573 9.240,12.000 9.240 C 10.527 9.240,10.300 9.232,10.188 9.175 C 10.006 9.083,9.922 9.001,9.836 8.832 C 9.765 8.693,9.760 8.573,9.760 7.000 C 9.760 5.427,9.765 5.307,9.836 5.168 C 9.921 5.002,10.004 4.920,10.180 4.827 C 10.284 4.772,10.527 4.763,11.992 4.762 C 13.574 4.760,13.693 4.765,13.832 4.836 M3.454 5.841 C 3.744 5.950,4.050 6.256,4.159 6.546 C 4.467 7.369,3.871 8.240,3.000 8.240 C 2.492 8.240,2.014 7.913,1.837 7.445 C 1.728 7.157,1.743 6.704,1.870 6.458 C 2.019 6.169,2.349 5.886,2.640 5.797 C 2.838 5.737,3.232 5.758,3.454 5.841 M21.454 5.841 C 21.744 5.950,22.050 6.256,22.159 6.546 C 22.335 7.017,22.227 7.521,21.874 7.874 C 21.381 8.368,20.619 8.368,20.126 7.874 C 19.847 7.596,19.746 7.325,19.769 6.920 C 19.790 6.567,19.876 6.373,20.124 6.125 C 20.397 5.853,20.597 5.769,20.988 5.763 C 21.148 5.761,21.315 5.789,21.454 5.841 M6.405 15.875 C 6.482 15.928,6.588 16.036,6.642 16.115 C 6.739 16.259,6.740 16.267,6.752 17.387 C 6.760 18.110,6.749 18.572,6.721 18.675 C 6.666 18.879,6.514 19.061,6.313 19.163 C 6.165 19.239,6.090 19.243,4.945 19.232 C 3.744 19.220,3.733 19.219,3.595 19.125 C 3.518 19.072,3.412 18.964,3.358 18.885 C 3.260 18.741,3.260 18.734,3.248 17.593 C 3.240 16.885,3.251 16.386,3.277 16.291 C 3.324 16.116,3.521 15.894,3.700 15.815 C 3.793 15.773,4.093 15.763,5.043 15.771 C 6.259 15.780,6.267 15.781,6.405 15.875 M20.405 15.875 C 20.482 15.928,20.588 16.036,20.642 16.115 L 20.740 16.260 20.740 17.500 L 20.740 18.740 20.642 18.885 C 20.588 18.964,20.482 19.072,20.405 19.125 C 20.267 19.219,20.256 19.220,19.055 19.232 C 17.910 19.243,17.835 19.239,17.687 19.163 C 17.490 19.063,17.335 18.882,17.282 18.689 C 17.229 18.498,17.227 16.468,17.280 16.278 C 17.326 16.114,17.526 15.892,17.700 15.815 C 17.793 15.773,18.093 15.763,19.043 15.771 C 20.259 15.780,20.267 15.781,20.405 15.875 " stroke="none" fill-rule="evenodd" fill="black"></path></svg>