<svg width="24" height="24" viewBox="0 0 24 24" fill="none" xmlns="http://www.w3.org/2000/svg"><path d="M1.720 1.805 C 1.458 1.909,1.269 2.200,1.269 2.500 C 1.269 2.727,1.339 2.889,1.506 3.047 C 1.682 3.213,1.803 3.240,2.383 3.240 L 2.920 3.240 2.920 8.950 C 2.920 15.073,2.920 15.070,3.122 15.679 C 3.296 16.204,3.591 16.699,3.980 17.116 C 4.255 17.410,9.584 21.431,10.105 21.737 C 10.912 22.210,11.976 22.353,12.960 22.119 C 13.654 21.954,13.865 21.817,16.880 19.560 C 18.409 18.416,19.765 17.377,19.894 17.252 C 20.477 16.683,20.839 16.022,21.005 15.221 C 21.075 14.879,21.079 14.557,21.079 9.050 L 21.080 3.240 21.617 3.240 C 22.197 3.240,22.318 3.213,22.494 3.047 C 22.661 2.889,22.731 2.727,22.731 2.500 C 22.731 2.193,22.540 1.905,22.267 1.803 C 22.116 1.745,1.864 1.747,1.720 1.805 M19.599 8.950 C 19.599 13.808,19.590 14.702,19.540 14.940 C 19.463 15.309,19.209 15.810,18.971 16.063 C 18.723 16.327,13.397 20.320,13.080 20.480 C 12.748 20.647,12.406 20.728,12.020 20.730 C 11.617 20.732,11.342 20.670,10.980 20.498 C 10.682 20.355,5.510 16.517,5.145 16.167 C 4.873 15.906,4.658 15.562,4.530 15.183 L 4.420 14.860 4.409 9.102 C 4.403 5.935,4.407 3.320,4.418 3.292 C 4.434 3.250,5.843 3.240,12.019 3.240 L 19.600 3.240 19.599 8.950 M7.815 7.278 C 7.331 7.393,7.098 8.004,7.383 8.408 C 7.447 8.499,7.572 8.610,7.660 8.656 C 7.819 8.739,7.851 8.740,11.879 8.751 C 14.744 8.759,16.001 8.749,16.153 8.717 C 16.902 8.562,16.930 7.473,16.189 7.286 C 15.979 7.234,8.034 7.226,7.815 7.278 M7.815 12.278 C 7.331 12.393,7.098 13.004,7.383 13.408 C 7.447 13.499,7.572 13.610,7.660 13.656 C 7.819 13.739,7.851 13.740,11.879 13.751 C 14.744 13.759,16.001 13.749,16.153 13.717 C 16.902 13.562,16.930 12.473,16.189 12.286 C 15.979 12.234,8.034 12.226,7.815 12.278 " stroke="none" fill-rule="evenodd" fill="black"></path></svg>