<svg width="24" height="24" viewBox="0 0 24 24" fill="none" xmlns="http://www.w3.org/2000/svg"><path d="M6.900 0.303 C 3.241 0.868,0.537 3.776,0.282 7.420 C 0.233 8.116,0.269 8.304,0.487 8.508 C 0.702 8.709,1.008 8.768,1.271 8.658 C 1.633 8.507,1.719 8.332,1.763 7.664 C 1.800 7.095,1.837 6.841,1.939 6.440 C 2.484 4.294,4.183 2.547,6.293 1.959 C 6.443 1.918,6.560 1.896,6.553 1.912 C 6.546 1.927,6.471 2.062,6.386 2.211 C 6.211 2.518,6.169 2.726,6.239 2.936 C 6.390 3.395,6.896 3.593,7.317 3.359 C 7.478 3.269,7.550 3.168,8.113 2.231 C 8.707 1.243,8.731 1.193,8.731 0.987 C 8.731 0.708,8.600 0.467,8.377 0.336 C 8.227 0.248,8.171 0.240,7.736 0.244 C 7.474 0.246,7.098 0.273,6.900 0.303 M14.420 1.822 C 12.853 2.035,11.527 2.700,10.400 3.839 C 9.567 4.681,8.970 5.717,8.661 6.860 C 8.558 7.239,8.449 7.884,8.431 8.220 C 8.420 8.418,8.418 8.420,8.280 8.430 C 4.966 8.655,2.350 11.054,1.836 14.340 C 1.766 14.788,1.776 15.929,1.854 16.421 C 2.164 18.376,3.342 20.149,5.024 21.192 C 6.176 21.907,7.286 22.219,8.680 22.219 C 9.447 22.219,9.728 22.186,10.400 22.018 C 12.433 21.509,14.170 20.038,15.002 18.120 C 15.313 17.404,15.560 16.404,15.560 15.864 C 15.560 15.587,15.582 15.560,15.805 15.560 C 16.076 15.560,16.710 15.455,17.140 15.338 C 19.551 14.685,21.431 12.767,22.037 10.340 C 22.621 7.999,21.925 5.495,20.215 3.785 C 18.694 2.264,16.541 1.535,14.420 1.822 M16.418 3.364 C 18.178 3.722,19.675 4.966,20.347 6.628 C 21.466 9.398,20.140 12.555,17.383 13.681 C 16.822 13.910,16.084 14.080,15.650 14.080 L 15.496 14.080 15.446 13.830 C 15.271 12.951,14.736 11.822,14.126 11.040 C 13.907 10.759,13.327 10.174,13.036 9.939 C 12.246 9.302,11.272 8.822,10.310 8.596 L 9.920 8.504 9.920 8.350 C 9.920 7.916,10.090 7.178,10.319 6.617 C 11.062 4.797,12.773 3.503,14.725 3.283 C 15.187 3.231,15.942 3.267,16.418 3.364 M9.843 10.034 C 10.669 10.225,11.496 10.633,12.140 11.166 C 14.552 13.164,14.765 16.802,12.601 19.055 C 11.927 19.757,11.224 20.198,10.300 20.499 C 9.319 20.819,8.005 20.818,7.044 20.496 C 6.118 20.187,5.427 19.751,4.759 19.055 C 3.693 17.945,3.163 16.453,3.285 14.903 C 3.457 12.712,4.904 10.880,7.022 10.167 C 7.228 10.098,7.490 10.038,8.000 9.944 C 8.055 9.934,8.415 9.932,8.800 9.940 C 9.313 9.951,9.591 9.976,9.843 10.034 M8.192 11.237 C 7.861 11.344,7.680 11.631,7.680 12.050 L 7.680 12.315 7.027 12.327 C 6.395 12.340,6.368 12.344,6.212 12.447 C 6.114 12.512,6.016 12.625,5.964 12.732 C 5.879 12.908,5.878 12.924,5.889 15.388 L 5.900 17.866 6.013 18.014 C 6.218 18.284,6.264 18.298,6.998 18.320 L 7.660 18.340 7.682 18.640 C 7.714 19.068,7.826 19.251,8.130 19.378 C 8.318 19.457,8.522 19.457,8.710 19.378 C 9.014 19.251,9.126 19.068,9.158 18.640 L 9.180 18.340 9.780 18.317 C 10.254 18.298,10.424 18.276,10.591 18.210 C 11.473 17.863,11.990 17.030,11.849 16.183 C 11.788 15.811,11.639 15.515,11.375 15.239 L 11.147 15.000 11.212 14.770 C 11.309 14.422,11.325 14.225,11.280 13.929 C 11.139 13.021,10.311 12.320,9.378 12.320 L 9.160 12.320 9.160 12.053 C 9.160 11.721,9.058 11.491,8.845 11.343 C 8.678 11.228,8.374 11.178,8.192 11.237 M9.683 13.951 C 9.833 14.118,9.840 14.306,9.702 14.454 L 9.604 14.560 8.482 14.560 L 7.360 14.560 7.360 14.207 C 7.360 14.012,7.372 13.842,7.386 13.828 C 7.400 13.813,7.896 13.806,8.489 13.811 L 9.567 13.820 9.683 13.951 M22.619 15.337 C 22.353 15.497,22.277 15.683,22.238 16.273 C 22.200 16.840,22.165 17.072,22.045 17.542 C 21.587 19.330,20.311 20.862,18.632 21.637 C 18.132 21.867,17.402 22.100,17.449 22.014 C 17.459 21.995,17.537 21.863,17.622 21.720 C 17.752 21.504,17.778 21.424,17.779 21.240 C 17.781 20.813,17.521 20.523,17.105 20.489 C 16.851 20.468,16.617 20.570,16.466 20.770 C 16.266 21.033,15.319 22.655,15.279 22.803 C 15.174 23.193,15.460 23.627,15.874 23.706 C 16.077 23.744,17.063 23.658,17.542 23.560 C 19.861 23.084,21.798 21.617,22.876 19.520 C 23.369 18.561,23.641 17.592,23.717 16.517 C 23.758 15.942,23.738 15.763,23.607 15.551 C 23.418 15.245,22.944 15.143,22.619 15.337 M10.112 16.136 C 10.363 16.266,10.441 16.483,10.295 16.647 C 10.133 16.829,10.040 16.840,8.661 16.840 L 7.360 16.840 7.360 16.460 L 7.360 16.080 8.682 16.080 C 9.736 16.080,10.026 16.091,10.112 16.136 " stroke="none" fill-rule="evenodd" fill="black"></path></svg>