<svg width="24" height="24" viewBox="0 0 24 24" fill="none" xmlns="http://www.w3.org/2000/svg"><path d="M11.180 2.027 C 9.205 2.190,7.258 2.972,5.700 4.227 C 5.242 4.596,4.361 5.489,4.169 5.778 C 3.933 6.135,4.009 6.573,4.348 6.813 C 4.435 6.875,4.580 6.936,4.669 6.948 C 4.981 6.989,5.081 6.921,5.876 6.123 C 6.663 5.333,7.029 5.044,7.800 4.603 C 10.459 3.082,13.768 3.124,16.399 4.712 C 17.159 5.170,18.068 5.966,18.626 6.660 C 19.572 7.838,20.191 9.245,20.420 10.740 C 20.454 10.960,20.493 11.446,20.507 11.820 L 20.532 12.500 20.231 12.215 C 19.895 11.897,19.730 11.821,19.434 11.850 C 19.204 11.872,18.980 12.028,18.870 12.243 C 18.790 12.401,18.780 12.727,18.852 12.890 C 18.902 13.003,20.687 14.820,20.900 14.973 C 21.068 15.095,21.444 15.094,21.640 14.973 C 21.717 14.925,22.206 14.456,22.726 13.932 C 23.549 13.102,23.678 12.955,23.720 12.801 C 23.851 12.313,23.502 11.840,23.010 11.840 C 22.758 11.840,22.654 11.897,22.320 12.222 L 22.012 12.522 21.988 11.751 C 21.955 10.711,21.862 10.101,21.593 9.162 C 21.278 8.065,20.708 6.940,19.954 5.928 C 19.581 5.429,18.571 4.419,18.072 4.046 C 16.224 2.668,14.152 1.982,11.920 2.007 C 11.601 2.010,11.268 2.019,11.180 2.027 M11.520 6.064 C 11.443 6.097,11.338 6.164,11.286 6.212 C 11.092 6.394,11.064 6.503,11.047 7.150 L 11.031 7.760 9.934 7.760 C 9.104 7.760,8.806 7.773,8.708 7.814 C 8.553 7.879,8.333 8.119,8.291 8.271 C 8.251 8.413,8.251 15.587,8.291 15.729 C 8.333 15.881,8.553 16.121,8.708 16.186 C 8.806 16.227,9.104 16.240,9.934 16.240 L 11.031 16.240 11.047 16.850 C 11.064 17.497,11.092 17.606,11.287 17.788 C 11.409 17.903,11.645 18.000,11.800 18.000 C 11.955 18.000,12.191 17.903,12.313 17.788 C 12.508 17.606,12.536 17.497,12.553 16.850 L 12.569 16.240 13.446 16.240 C 14.432 16.240,14.772 16.193,15.196 15.997 C 15.939 15.653,16.489 15.039,16.664 14.355 C 16.743 14.047,16.752 13.501,16.682 13.200 C 16.563 12.689,16.202 12.161,15.740 11.821 C 15.595 11.715,15.482 11.618,15.489 11.604 C 15.495 11.591,15.548 11.489,15.607 11.378 C 15.793 11.025,15.857 10.740,15.858 10.260 C 15.859 9.900,15.841 9.766,15.762 9.522 C 15.560 8.904,15.015 8.284,14.420 7.999 C 14.018 7.806,13.762 7.760,13.097 7.760 L 12.569 7.760 12.553 7.150 C 12.541 6.688,12.521 6.511,12.472 6.420 C 12.284 6.070,11.867 5.914,11.520 6.064 M2.418 8.998 C 2.220 9.099,0.440 10.881,0.339 11.079 C 0.252 11.251,0.247 11.581,0.331 11.741 C 0.468 12.005,0.716 12.160,1.000 12.160 C 1.246 12.160,1.360 12.096,1.690 11.769 L 2.000 11.462 2.000 11.981 C 2.001 14.209,2.686 16.247,4.046 18.072 C 4.419 18.571,5.429 19.581,5.928 19.954 C 7.382 21.038,8.930 21.675,10.720 21.927 C 11.207 21.995,12.863 21.995,13.300 21.926 C 15.261 21.619,16.867 20.927,18.303 19.770 C 18.754 19.407,19.644 18.503,19.835 18.215 C 20.066 17.866,19.988 17.425,19.652 17.187 C 19.448 17.042,19.212 17.009,18.990 17.094 C 18.863 17.143,18.689 17.297,18.301 17.706 C 17.662 18.380,17.315 18.679,16.714 19.078 C 15.673 19.769,14.489 20.228,13.240 20.425 C 12.632 20.521,11.361 20.522,10.764 20.427 C 8.936 20.136,7.377 19.361,6.086 18.103 C 5.376 17.411,4.894 16.772,4.464 15.952 C 3.845 14.772,3.546 13.609,3.494 12.180 L 3.469 11.500 3.751 11.771 C 3.907 11.920,4.098 12.068,4.176 12.101 C 4.550 12.257,5.020 12.069,5.157 11.707 C 5.213 11.559,5.209 11.248,5.148 11.110 C 5.100 11.000,3.315 9.182,3.110 9.034 C 2.942 8.913,2.617 8.896,2.418 8.998 M13.783 9.347 C 13.981 9.453,14.226 9.718,14.309 9.914 C 14.497 10.362,14.247 10.953,13.781 11.165 C 13.632 11.233,13.473 11.238,11.690 11.239 L 9.760 11.240 9.760 10.239 L 9.760 9.237 11.690 9.249 C 13.585 9.260,13.623 9.262,13.783 9.347 M14.666 12.914 C 14.913 13.048,15.126 13.265,15.200 13.460 C 15.262 13.623,15.246 13.924,15.165 14.100 C 15.074 14.302,14.849 14.501,14.562 14.636 L 14.340 14.740 12.050 14.752 L 9.760 14.763 9.760 13.760 L 9.760 12.758 12.090 12.769 L 14.420 12.780 14.666 12.914 " stroke="none" fill-rule="evenodd" fill="black"></path></svg>