<svg width="22" height="22" viewBox="0 0 22 22" fill="none" xmlns="http://www.w3.org/2000/svg"><path d="M7.150 0.294 C 3.570 0.730,0.870 3.321,0.305 6.862 C 0.231 7.329,0.222 8.481,0.289 8.983 C 0.565 11.048,1.669 12.952,3.291 14.161 C 4.152 14.802,4.914 15.176,5.937 15.458 C 6.187 15.527,6.394 15.587,6.396 15.592 C 6.399 15.598,6.440 15.758,6.487 15.950 C 6.791 17.170,7.469 18.392,8.373 19.348 C 9.345 20.376,10.715 21.173,12.082 21.508 C 14.485 22.097,16.951 21.548,18.869 19.998 C 20.306 18.837,21.302 17.116,21.616 15.253 C 21.710 14.694,21.728 13.677,21.654 13.090 C 21.489 11.793,21.069 10.669,20.366 9.643 C 19.314 8.110,17.725 6.986,15.959 6.526 C 15.752 6.472,15.574 6.420,15.563 6.409 C 15.553 6.398,15.496 6.210,15.437 5.991 C 14.939 4.133,13.789 2.557,12.155 1.494 C 11.232 0.894,10.252 0.522,9.132 0.346 C 8.705 0.279,7.526 0.248,7.150 0.294 M8.752 1.797 C 11.256 2.125,13.304 3.903,13.988 6.343 C 14.263 7.327,14.272 8.534,14.009 9.560 C 13.505 11.533,12.033 13.158,10.111 13.862 C 9.422 14.114,8.768 14.227,8.003 14.226 C 6.338 14.224,4.879 13.657,3.713 12.559 C 3.121 12.002,2.741 11.499,2.404 10.827 C 1.420 8.861,1.503 6.642,2.633 4.748 C 2.980 4.165,3.635 3.444,4.198 3.022 C 5.076 2.365,6.034 1.966,7.132 1.802 C 7.441 1.755,8.410 1.753,8.752 1.797 M16.176 8.160 C 18.614 9.088,20.205 11.382,20.207 13.970 C 20.208 15.665,19.618 17.142,18.465 18.328 C 17.247 19.582,15.700 20.240,13.970 20.240 C 11.317 20.240,8.994 18.600,8.086 16.087 C 8.029 15.930,7.991 15.793,8.001 15.783 C 8.011 15.773,8.232 15.750,8.492 15.731 C 8.752 15.712,9.085 15.677,9.232 15.653 L 9.498 15.609 10.002 16.104 C 10.279 16.376,10.563 16.629,10.633 16.665 C 10.810 16.757,11.124 16.753,11.312 16.656 C 11.575 16.521,11.697 16.315,11.697 16.003 C 11.697 15.732,11.634 15.610,11.351 15.330 L 11.117 15.098 11.501 14.903 C 11.886 14.707,12.452 14.347,12.760 14.103 L 12.924 13.972 13.458 14.501 C 13.773 14.815,14.046 15.054,14.126 15.087 C 14.573 15.274,15.103 14.985,15.165 14.520 C 15.211 14.182,15.151 14.080,14.553 13.474 C 14.253 13.169,14.007 12.903,14.007 12.881 C 14.007 12.860,14.031 12.822,14.061 12.798 C 14.166 12.710,14.630 11.994,14.836 11.601 C 14.951 11.381,15.051 11.195,15.058 11.187 C 15.064 11.178,15.176 11.274,15.306 11.398 C 15.577 11.659,15.727 11.733,15.980 11.733 C 16.468 11.733,16.814 11.266,16.684 10.781 C 16.647 10.644,16.554 10.531,16.109 10.080 L 15.579 9.542 15.634 9.162 C 15.664 8.953,15.700 8.613,15.714 8.406 C 15.732 8.137,15.753 8.030,15.787 8.030 C 15.813 8.030,15.988 8.089,16.176 8.160 " stroke="none" fill-rule="evenodd" fill="black"></path></svg>