<svg width="24" height="24" viewBox="0 0 24 24" fill="none" xmlns="http://www.w3.org/2000/svg"><path d="M7.500 5.282 C 6.725 5.335,6.021 5.507,5.287 5.822 C 3.403 6.629,1.952 8.326,1.440 10.322 C 1.238 11.108,1.182 12.176,1.301 12.969 C 1.744 15.913,3.996 18.187,6.940 18.660 C 7.420 18.738,8.401 18.747,8.880 18.680 C 9.881 18.539,10.966 18.125,11.722 17.595 C 11.844 17.510,11.955 17.440,11.969 17.440 C 11.983 17.440,12.142 17.539,12.322 17.659 C 13.821 18.662,15.847 18.991,17.660 18.525 C 19.251 18.116,20.685 17.087,21.611 15.688 C 21.829 15.359,22.171 14.674,22.313 14.280 C 22.585 13.526,22.696 12.863,22.696 12.000 C 22.696 11.136,22.584 10.470,22.312 9.720 C 21.557 7.636,19.789 6.022,17.660 5.475 C 16.424 5.157,15.064 5.204,13.840 5.606 C 13.354 5.765,12.711 6.076,12.306 6.347 C 12.131 6.464,11.978 6.560,11.966 6.560 C 11.953 6.560,11.844 6.490,11.722 6.405 C 10.572 5.599,8.994 5.180,7.500 5.282 M9.100 6.872 C 10.089 7.104,10.913 7.556,11.620 8.257 C 12.107 8.741,12.357 9.083,12.640 9.660 C 13.071 10.537,13.180 11.010,13.180 12.000 C 13.180 12.990,13.071 13.463,12.640 14.340 C 12.354 14.922,12.105 15.263,11.612 15.748 C 10.881 16.468,10.057 16.912,9.020 17.147 C 8.775 17.203,8.531 17.220,7.980 17.220 C 6.977 17.220,6.528 17.119,5.658 16.700 C 3.876 15.841,2.720 13.991,2.720 12.000 C 2.720 9.444,4.564 7.271,7.120 6.817 C 7.576 6.736,8.644 6.766,9.100 6.872 M17.180 6.894 C 18.144 7.141,18.885 7.544,19.564 8.190 C 20.402 8.988,20.942 9.985,21.140 11.100 C 21.224 11.570,21.224 12.430,21.140 12.900 C 20.849 14.543,19.768 15.981,18.280 16.705 C 17.558 17.056,16.984 17.198,16.157 17.228 C 15.451 17.254,14.943 17.184,14.324 16.977 C 13.921 16.843,13.239 16.515,13.158 16.418 C 13.132 16.386,13.160 16.322,13.245 16.216 C 13.501 15.899,13.890 15.270,14.077 14.871 C 14.820 13.283,14.922 11.560,14.373 9.860 C 14.163 9.211,13.681 8.324,13.245 7.784 C 13.160 7.678,13.132 7.614,13.158 7.582 C 13.239 7.485,13.922 7.157,14.325 7.022 C 14.963 6.809,15.309 6.761,16.100 6.778 C 16.667 6.790,16.846 6.809,17.180 6.894 " stroke="none" fill-rule="evenodd" fill="black"></path></svg>