<svg width="24" height="24" viewBox="0 0 24 24" fill="none" xmlns="http://www.w3.org/2000/svg"><path d="M12.842 1.283 C 12.250 1.402,11.798 1.875,11.612 2.569 C 11.553 2.791,11.543 3.214,11.523 6.267 L 11.500 9.715 8.840 7.274 C 7.377 5.931,6.112 4.787,6.030 4.731 C 5.719 4.520,5.257 4.621,5.025 4.951 C 4.884 5.149,4.864 5.455,4.975 5.686 C 5.023 5.786,6.068 6.769,8.283 8.799 L 11.520 11.767 11.520 12.000 L 11.520 12.233 8.283 15.201 C 6.068 17.231,5.023 18.214,4.975 18.314 C 4.864 18.545,4.884 18.851,5.025 19.049 C 5.257 19.379,5.719 19.480,6.030 19.269 C 6.112 19.213,7.377 18.069,8.840 16.726 L 11.500 14.285 11.523 17.733 C 11.543 20.786,11.553 21.209,11.612 21.431 C 11.803 22.143,12.253 22.602,12.875 22.719 C 13.278 22.795,13.832 22.650,14.280 22.350 C 14.630 22.117,18.566 18.813,18.715 18.628 C 19.263 17.949,19.226 16.921,18.632 16.273 C 18.537 16.169,17.461 15.171,16.240 14.055 C 15.019 12.938,14.020 12.013,14.020 12.000 C 14.020 11.987,15.019 11.062,16.240 9.945 C 17.461 8.829,18.537 7.831,18.632 7.727 C 19.236 7.069,19.263 6.035,18.696 5.353 C 18.572 5.204,15.124 2.292,14.460 1.775 C 13.962 1.387,13.307 1.188,12.842 1.283 M13.352 2.837 C 13.498 2.913,17.453 6.185,17.550 6.311 C 17.638 6.424,17.610 6.628,17.490 6.755 C 17.430 6.819,16.403 7.765,15.209 8.857 L 13.038 10.843 13.049 6.852 C 13.055 4.656,13.075 2.837,13.092 2.810 C 13.136 2.742,13.178 2.747,13.352 2.837 M17.490 17.245 C 17.610 17.372,17.638 17.576,17.550 17.689 C 17.439 17.833,13.488 21.094,13.330 21.172 C 13.194 21.239,13.150 21.246,13.110 21.206 C 13.071 21.167,13.058 20.290,13.049 17.156 L 13.038 13.157 15.209 15.143 C 16.403 16.235,17.430 17.181,17.490 17.245 " stroke="none" fill-rule="evenodd" fill="black"></path></svg>