<svg width="24" height="24" viewBox="0 0 24 24" fill="none" xmlns="http://www.w3.org/2000/svg"><path d="M11.320 1.281 C 7.041 1.525,3.252 4.409,1.843 8.497 C 1.180 10.418,1.082 12.560,1.564 14.550 C 2.505 18.428,5.572 21.495,9.450 22.436 C 11.106 22.837,12.894 22.837,14.550 22.436 C 18.428 21.495,21.495 18.428,22.436 14.550 C 22.837 12.894,22.837 11.106,22.436 9.450 C 21.425 5.282,17.985 2.095,13.742 1.398 C 13.334 1.331,12.074 1.229,11.880 1.247 C 11.847 1.250,11.595 1.265,11.320 1.281 M13.146 2.822 C 14.201 2.960,15.125 3.237,16.060 3.696 C 18.877 5.079,20.768 7.722,21.178 10.854 C 21.301 11.786,21.244 13.026,21.034 13.998 C 20.745 15.343,20.003 16.855,19.121 17.900 C 18.247 18.935,17.240 19.726,16.060 20.304 C 14.761 20.940,13.462 21.240,12.000 21.240 C 10.538 21.240,9.236 20.940,7.940 20.304 C 5.123 18.921,3.232 16.278,2.822 13.146 C 2.699 12.214,2.756 10.974,2.966 10.002 C 3.177 9.020,3.703 7.775,4.268 6.920 C 5.750 4.677,8.131 3.188,10.820 2.823 C 11.380 2.746,12.569 2.746,13.146 2.822 M12.420 5.921 C 12.084 5.989,11.849 6.141,11.670 6.408 C 11.440 6.751,11.427 6.846,11.403 8.486 L 11.380 9.991 10.186 8.898 C 9.394 8.171,8.946 7.788,8.852 7.757 C 8.632 7.685,8.310 7.728,8.147 7.852 C 7.985 7.976,7.840 8.250,7.840 8.434 C 7.840 8.594,7.935 8.828,8.052 8.955 C 8.100 9.007,8.864 9.715,9.748 10.527 L 11.357 12.004 9.665 13.558 C 7.894 15.183,7.840 15.242,7.840 15.562 C 7.840 15.715,7.938 15.951,8.052 16.073 C 8.275 16.312,8.670 16.366,8.954 16.196 C 9.041 16.143,9.628 15.627,10.257 15.049 L 11.400 13.998 11.401 15.349 C 11.401 16.092,11.418 16.812,11.438 16.950 C 11.540 17.658,11.986 18.090,12.620 18.096 C 13.085 18.100,13.306 17.965,14.580 16.900 C 15.174 16.404,15.726 15.926,15.806 15.838 C 16.199 15.409,16.263 14.757,15.960 14.272 C 15.889 14.159,15.397 13.676,14.721 13.055 C 14.103 12.488,13.603 12.011,13.609 11.995 C 13.615 11.978,13.998 11.619,14.460 11.197 C 15.980 9.810,16.098 9.670,16.147 9.194 C 16.175 8.924,16.082 8.541,15.934 8.317 C 15.815 8.139,13.605 6.275,13.314 6.108 C 13.013 5.936,12.686 5.868,12.420 5.921 M14.560 9.059 C 14.560 9.068,13.878 9.697,13.090 10.415 L 12.920 10.570 12.920 9.124 L 12.920 7.678 13.740 8.363 C 14.191 8.739,14.560 9.052,14.560 9.059 M14.413 14.803 L 14.574 14.945 13.838 15.563 C 13.433 15.902,13.061 16.213,13.011 16.253 L 12.920 16.326 12.920 14.880 L 12.920 13.434 13.586 14.047 C 13.953 14.384,14.325 14.724,14.413 14.803 " stroke="none" fill-rule="evenodd" fill="black"></path></svg>