<svg width="24" height="24" viewBox="0 0 24 24" fill="none" xmlns="http://www.w3.org/2000/svg"><path d="M11.842 1.283 C 11.250 1.402,10.798 1.875,10.612 2.569 C 10.553 2.791,10.543 3.214,10.523 6.267 L 10.500 9.715 7.840 7.274 C 6.377 5.931,5.112 4.787,5.030 4.731 C 4.719 4.520,4.257 4.621,4.025 4.951 C 3.884 5.149,3.864 5.455,3.975 5.686 C 4.023 5.786,5.068 6.769,7.283 8.799 L 10.520 11.767 10.520 12.000 L 10.520 12.233 7.283 15.201 C 5.068 17.231,4.023 18.214,3.975 18.314 C 3.864 18.545,3.884 18.851,4.025 19.049 C 4.257 19.379,4.719 19.480,5.030 19.269 C 5.112 19.213,6.377 18.069,7.840 16.726 L 10.500 14.285 10.523 17.733 C 10.543 20.812,10.553 21.207,10.614 21.436 C 10.767 22.010,11.139 22.470,11.590 22.642 C 12.139 22.852,12.864 22.690,13.460 22.225 C 14.155 21.682,17.573 18.795,17.696 18.647 C 18.262 17.966,18.234 16.929,17.632 16.273 C 17.537 16.169,16.461 15.171,15.240 14.055 C 14.019 12.938,13.020 12.013,13.020 12.000 C 13.020 11.987,14.019 11.062,15.240 9.945 C 16.461 8.829,17.537 7.831,17.632 7.727 C 18.236 7.069,18.263 6.035,17.696 5.353 C 17.572 5.205,14.137 2.303,13.460 1.775 C 12.963 1.388,12.308 1.188,11.842 1.283 M12.352 2.837 C 12.498 2.913,16.453 6.185,16.550 6.311 C 16.638 6.424,16.610 6.628,16.490 6.755 C 16.430 6.819,15.403 7.765,14.209 8.857 L 12.038 10.843 12.049 6.852 C 12.055 4.656,12.075 2.837,12.092 2.810 C 12.136 2.742,12.178 2.747,12.352 2.837 M4.840 10.270 C 4.155 10.326,3.529 10.835,3.331 11.495 C 3.253 11.758,3.253 12.242,3.331 12.505 C 3.447 12.892,3.709 13.232,4.073 13.468 C 4.355 13.651,4.625 13.726,5.000 13.726 C 5.375 13.726,5.645 13.651,5.927 13.468 C 6.459 13.123,6.726 12.632,6.726 12.000 C 6.726 11.646,6.654 11.366,6.499 11.115 C 6.138 10.532,5.514 10.214,4.840 10.270 M18.840 10.270 C 18.155 10.326,17.529 10.835,17.331 11.495 C 17.298 11.608,17.270 11.835,17.270 12.000 C 17.270 12.625,17.544 13.125,18.073 13.468 C 18.355 13.651,18.625 13.726,19.000 13.726 C 19.375 13.726,19.645 13.651,19.927 13.468 C 20.459 13.123,20.726 12.632,20.726 12.000 C 20.726 11.646,20.654 11.366,20.499 11.115 C 20.138 10.532,19.514 10.214,18.840 10.270 M5.167 11.826 C 5.319 11.964,5.212 12.240,5.007 12.240 C 4.793 12.240,4.683 11.992,4.826 11.833 C 4.909 11.742,5.070 11.739,5.167 11.826 M19.167 11.826 C 19.258 11.909,19.261 12.070,19.174 12.167 C 19.036 12.319,18.760 12.212,18.760 12.007 C 18.760 11.793,19.008 11.683,19.167 11.826 M16.490 17.245 C 16.610 17.372,16.638 17.576,16.550 17.689 C 16.439 17.833,12.488 21.094,12.330 21.172 C 12.194 21.239,12.150 21.246,12.110 21.206 C 12.071 21.167,12.058 20.290,12.049 17.156 L 12.038 13.157 14.209 15.143 C 15.403 16.235,16.430 17.181,16.490 17.245 " stroke="none" fill-rule="evenodd" fill="black"></path></svg>