<svg width="24" height="24" viewBox="0 0 24 24" fill="none" xmlns="http://www.w3.org/2000/svg"><path d="M11.640 1.296 C 11.285 1.376,11.080 1.498,10.432 2.018 C 8.742 3.373,7.336 4.784,6.145 6.319 C 5.686 6.911,4.982 7.977,4.639 8.598 C 2.877 11.796,2.694 15.038,4.116 17.871 C 5.270 20.172,7.422 21.884,9.923 22.494 C 10.903 22.733,12.265 22.802,13.220 22.662 C 15.728 22.294,17.910 20.941,19.315 18.883 C 20.327 17.400,20.840 15.727,20.840 13.906 C 20.840 12.539,20.577 11.305,19.991 9.920 C 18.926 7.405,16.671 4.583,13.880 2.274 C 12.933 1.490,12.728 1.363,12.292 1.282 C 12.015 1.231,11.922 1.233,11.640 1.296 M11.218 21.195 C 11.177 21.236,10.343 21.073,9.880 20.934 C 9.417 20.795,8.638 20.445,8.185 20.172 C 7.520 19.772,6.681 19.013,6.185 18.362 C 4.852 16.612,4.377 14.489,4.823 12.282 C 5.128 10.775,5.960 9.055,7.155 7.466 C 8.068 6.250,9.336 4.905,10.561 3.854 L 11.220 3.288 11.230 12.230 C 11.236 17.149,11.230 21.183,11.218 21.195 M13.153 3.614 C 13.977 4.313,15.256 5.567,15.734 6.144 L 15.837 6.268 15.248 6.549 C 14.925 6.704,14.232 7.039,13.710 7.293 L 12.760 7.756 12.760 5.538 C 12.760 4.318,12.770 3.320,12.783 3.320 C 12.796 3.320,12.962 3.452,13.153 3.614 M17.115 7.870 C 17.496 8.405,17.950 9.142,18.192 9.620 C 18.303 9.840,18.391 10.022,18.387 10.026 C 18.383 10.029,17.129 10.639,15.600 11.380 C 14.071 12.122,12.807 12.737,12.790 12.747 C 12.773 12.757,12.760 12.012,12.760 11.092 L 12.760 9.419 14.750 8.451 C 15.845 7.918,16.762 7.481,16.788 7.481 C 16.815 7.480,16.962 7.655,17.115 7.870 M19.093 11.900 C 19.151 12.120,19.226 12.462,19.261 12.660 C 19.332 13.058,19.387 14.229,19.345 14.443 L 19.318 14.580 16.489 15.951 C 14.933 16.705,13.457 17.420,13.210 17.539 L 12.760 17.756 12.760 16.088 L 12.761 14.420 15.850 12.918 C 17.729 12.004,18.950 11.432,18.965 11.458 C 18.979 11.481,19.036 11.680,19.093 11.900 M18.862 16.570 C 18.426 17.612,17.954 18.325,17.201 19.081 C 16.270 20.015,15.198 20.647,13.974 20.982 C 13.595 21.086,13.007 21.200,12.850 21.200 L 12.760 21.200 12.760 20.310 L 12.761 19.420 15.810 17.934 C 17.488 17.117,18.873 16.446,18.888 16.444 C 18.903 16.442,18.891 16.498,18.862 16.570 " stroke="none" fill-rule="evenodd" fill="black"></path></svg>