<svg width="24" height="24" viewBox="0 0 24 24" fill="none" xmlns="http://www.w3.org/2000/svg"><path d="M3.380 1.976 C 2.454 2.190,1.667 2.898,1.396 3.760 C 1.351 3.903,1.297 4.191,1.276 4.400 C 1.252 4.633,1.242 7.180,1.250 10.980 C 1.262 16.829,1.267 17.194,1.335 17.420 C 1.595 18.282,2.270 19.021,3.070 19.320 C 3.189 19.365,3.625 19.454,4.038 19.519 C 5.278 19.712,6.373 19.992,7.868 20.497 C 8.966 20.868,9.665 21.151,10.600 21.603 C 11.051 21.820,11.518 22.019,11.639 22.044 C 11.767 22.071,11.981 22.080,12.159 22.065 C 12.435 22.042,12.529 22.006,13.280 21.644 C 15.432 20.607,17.958 19.805,20.023 19.504 C 20.398 19.449,20.805 19.367,20.926 19.322 C 21.729 19.022,22.404 18.281,22.665 17.417 C 22.733 17.195,22.738 16.800,22.750 10.980 C 22.759 6.808,22.750 4.651,22.722 4.385 C 22.649 3.710,22.446 3.259,22.001 2.784 C 21.371 2.111,20.554 1.842,19.500 1.959 C 17.331 2.201,14.351 3.204,12.442 4.336 C 12.234 4.459,12.037 4.560,12.004 4.560 C 11.970 4.560,11.726 4.435,11.460 4.281 C 10.093 3.494,8.331 2.798,6.553 2.343 C 5.196 1.997,3.927 1.850,3.380 1.976 M4.380 3.442 C 6.351 3.674,9.057 4.593,10.790 5.621 L 11.240 5.887 11.240 13.061 L 11.240 20.235 10.750 20.012 C 8.844 19.146,6.212 18.343,4.349 18.058 C 3.572 17.939,3.390 17.866,3.101 17.554 C 2.729 17.152,2.760 17.782,2.760 10.673 C 2.760 4.655,2.763 4.393,2.834 4.205 C 2.979 3.824,3.306 3.538,3.704 3.445 C 3.918 3.394,3.969 3.394,4.380 3.442 M20.298 3.461 C 20.538 3.500,20.730 3.615,20.931 3.838 C 21.266 4.211,21.240 3.638,21.240 10.680 C 21.240 17.761,21.269 17.150,20.909 17.544 C 20.628 17.852,20.433 17.940,19.858 18.019 C 17.939 18.284,15.186 19.112,13.203 20.021 C 12.988 20.119,12.800 20.200,12.786 20.200 C 12.772 20.200,12.760 16.980,12.760 13.044 L 12.760 5.888 13.130 5.668 C 13.555 5.416,14.174 5.080,14.213 5.080 C 14.228 5.080,14.240 5.769,14.241 6.610 C 14.242 8.008,14.248 8.154,14.315 8.302 C 14.456 8.612,14.777 8.790,15.105 8.741 C 15.245 8.720,15.468 8.592,16.123 8.157 C 16.584 7.851,16.979 7.600,17.000 7.600 C 17.021 7.600,17.416 7.851,17.877 8.157 C 18.532 8.592,18.755 8.720,18.895 8.741 C 19.223 8.790,19.544 8.612,19.685 8.302 C 19.753 8.151,19.758 7.984,19.759 5.793 L 19.760 3.446 19.850 3.428 C 19.943 3.410,20.025 3.416,20.298 3.461 M18.224 6.549 C 18.214 6.559,18.041 6.455,17.839 6.320 C 17.059 5.795,16.941 5.795,16.166 6.316 C 15.966 6.450,15.793 6.560,15.781 6.560 C 15.769 6.560,15.763 6.079,15.769 5.490 L 15.780 4.420 16.420 4.205 C 16.772 4.088,17.321 3.924,17.640 3.842 L 18.220 3.693 18.231 5.113 C 18.236 5.893,18.233 6.540,18.224 6.549 " stroke="none" fill-rule="evenodd" fill="black"></path></svg>