<svg width="24" height="24" viewBox="0 0 24 24" fill="none" xmlns="http://www.w3.org/2000/svg"><path d="M7.862 1.282 C 4.192 1.541,2.148 3.143,1.498 6.272 C 1.264 7.400,1.260 7.491,1.260 12.000 C 1.260 16.509,1.264 16.600,1.498 17.728 C 2.047 20.371,3.629 21.953,6.272 22.502 C 7.400 22.736,7.491 22.740,12.000 22.740 C 16.509 22.740,16.600 22.736,17.728 22.502 C 20.371 21.953,21.953 20.371,22.502 17.728 C 22.736 16.600,22.740 16.509,22.740 12.000 C 22.740 7.491,22.736 7.400,22.502 6.272 C 21.953 3.629,20.368 2.044,17.726 1.498 C 16.628 1.271,16.585 1.269,12.300 1.259 C 10.122 1.253,8.125 1.264,7.862 1.282 M15.971 2.786 L 16.242 2.812 16.231 7.896 L 16.220 12.980 16.124 13.220 C 15.993 13.550,15.788 13.740,15.501 13.800 C 15.083 13.886,14.741 13.760,13.663 13.121 C 13.183 12.836,12.697 12.571,12.585 12.531 C 12.284 12.427,11.652 12.436,11.367 12.550 C 11.250 12.596,10.790 12.851,10.345 13.116 C 9.408 13.674,9.096 13.807,8.719 13.809 C 8.278 13.812,8.040 13.634,7.852 13.160 C 7.784 12.991,7.779 12.671,7.769 7.892 L 7.758 2.804 7.949 2.789 C 8.288 2.763,15.691 2.760,15.971 2.786 M6.251 8.050 C 6.265 13.652,6.245 13.290,6.579 13.980 C 6.793 14.424,7.099 14.771,7.468 14.990 C 7.903 15.249,8.105 15.300,8.680 15.300 C 9.495 15.300,9.870 15.163,11.134 14.403 C 11.664 14.085,11.908 13.960,12.000 13.960 C 12.091 13.960,12.334 14.084,12.854 14.395 C 14.123 15.156,14.431 15.277,15.180 15.309 C 15.968 15.342,16.434 15.169,16.947 14.655 C 17.175 14.427,17.273 14.288,17.415 13.993 C 17.756 13.287,17.735 13.662,17.749 8.050 C 17.760 3.839,17.771 3.080,17.818 3.080 C 17.910 3.080,18.563 3.321,18.820 3.449 C 19.246 3.663,19.585 3.914,19.906 4.254 C 20.641 5.032,21.047 6.159,21.198 7.840 C 21.254 8.455,21.254 15.545,21.198 16.160 C 21.085 17.413,20.839 18.322,20.398 19.103 C 20.153 19.539,19.539 20.153,19.103 20.398 C 18.322 20.839,17.413 21.085,16.160 21.198 C 15.545 21.254,8.455 21.254,7.840 21.198 C 6.587 21.085,5.678 20.839,4.897 20.398 C 4.461 20.153,3.847 19.539,3.602 19.103 C 3.161 18.322,2.915 17.413,2.802 16.160 C 2.746 15.545,2.746 8.455,2.802 7.840 C 3.011 5.518,3.730 4.181,5.160 3.458 C 5.418 3.328,6.069 3.085,6.169 3.082 C 6.233 3.080,6.238 3.380,6.251 8.050 " stroke="none" fill-rule="evenodd" fill="black"></path></svg>