<svg width="24" height="24" viewBox="0 0 24 24" fill="none" xmlns="http://www.w3.org/2000/svg"><path d="M9.660 1.265 C 8.151 1.370,7.166 1.968,6.636 3.100 C 6.495 3.400,6.344 3.922,6.312 4.215 C 6.301 4.322,6.280 4.335,6.000 4.405 C 4.784 4.709,3.878 5.197,3.118 5.958 C 2.360 6.716,1.922 7.530,1.601 8.778 C 1.307 9.917,1.219 11.267,1.252 14.140 C 1.275 16.102,1.317 16.732,1.483 17.569 C 2.006 20.216,3.460 21.794,5.950 22.416 C 6.414 22.532,6.925 22.617,7.580 22.688 C 8.265 22.762,15.683 22.762,16.400 22.688 C 18.497 22.472,19.804 21.949,20.865 20.900 C 21.709 20.067,22.232 19.012,22.517 17.569 C 22.682 16.737,22.725 16.101,22.748 14.140 C 22.781 11.282,22.695 9.951,22.402 8.793 C 22.272 8.278,22.054 7.667,21.872 7.305 C 21.383 6.332,20.556 5.501,19.564 4.986 C 19.035 4.711,18.610 4.556,17.850 4.361 C 17.701 4.322,17.680 4.303,17.680 4.206 C 17.680 4.015,17.517 3.433,17.380 3.133 C 16.924 2.140,16.176 1.584,14.960 1.334 C 14.713 1.283,14.236 1.270,12.260 1.261 C 10.940 1.256,9.770 1.257,9.660 1.265 M14.773 2.819 C 15.572 2.988,16.014 3.442,16.178 4.260 C 16.235 4.544,16.241 5.041,16.231 8.640 C 16.220 12.595,16.218 12.705,16.140 12.894 C 15.877 13.534,15.321 13.679,14.547 13.309 C 14.389 13.234,13.931 12.973,13.530 12.729 C 12.647 12.194,12.508 12.140,12.000 12.140 C 11.492 12.140,11.353 12.194,10.470 12.729 C 10.069 12.973,9.611 13.234,9.453 13.309 C 8.679 13.679,8.123 13.534,7.860 12.894 C 7.782 12.705,7.780 12.595,7.769 8.640 C 7.759 5.041,7.765 4.544,7.822 4.260 C 7.984 3.451,8.428 2.991,9.208 2.821 C 9.588 2.739,14.385 2.737,14.773 2.819 M6.240 8.950 C 6.240 10.800,6.257 12.203,6.283 12.480 C 6.393 13.675,6.936 14.495,7.859 14.859 C 8.074 14.944,8.229 14.974,8.539 14.990 C 9.324 15.030,9.837 14.852,11.037 14.124 C 11.675 13.738,11.891 13.626,12.000 13.626 C 12.109 13.626,12.327 13.739,12.976 14.132 C 14.169 14.855,14.675 15.030,15.461 14.990 C 16.723 14.926,17.579 13.973,17.717 12.480 C 17.743 12.203,17.760 10.800,17.760 8.950 C 17.760 7.261,17.769 5.880,17.780 5.880 C 17.827 5.880,18.480 6.121,18.697 6.219 C 19.259 6.472,19.871 6.970,20.220 7.460 C 20.672 8.095,20.979 8.980,21.149 10.135 C 21.212 10.564,21.220 10.943,21.220 13.420 C 21.220 15.913,21.212 16.273,21.148 16.700 C 20.723 19.531,19.535 20.729,16.740 21.148 C 16.301 21.214,15.895 21.220,12.000 21.220 C 8.105 21.220,7.699 21.214,7.260 21.148 C 5.778 20.926,4.797 20.493,4.101 19.753 C 3.453 19.065,3.064 18.114,2.852 16.700 C 2.788 16.273,2.780 15.914,2.780 13.440 C 2.780 10.527,2.790 10.312,2.967 9.480 C 3.209 8.340,3.601 7.555,4.226 6.958 C 4.558 6.640,4.779 6.486,5.211 6.271 C 5.492 6.132,6.115 5.889,6.210 5.882 C 6.226 5.881,6.240 7.261,6.240 8.950 " stroke="none" fill-rule="evenodd" fill="black"></path></svg>