<svg width="24" height="24" viewBox="0 0 24 24" fill="none" xmlns="http://www.w3.org/2000/svg"><path d="M8.080 1.282 C 4.008 1.495,1.895 3.296,1.383 6.991 C 1.270 7.803,1.242 8.816,1.242 12.000 C 1.242 16.504,1.302 17.273,1.760 18.650 C 2.532 20.963,4.206 22.226,7.027 22.622 C 7.786 22.728,8.902 22.759,12.000 22.759 C 15.098 22.759,16.214 22.728,16.973 22.622 C 19.443 22.275,20.996 21.288,21.897 19.490 C 22.379 18.530,22.638 17.369,22.720 15.807 C 22.771 14.838,22.771 9.162,22.720 8.193 C 22.657 6.998,22.521 6.191,22.242 5.356 C 21.632 3.531,20.469 2.367,18.650 1.760 C 17.788 1.473,17.023 1.344,15.806 1.280 C 14.952 1.235,8.952 1.237,8.080 1.282 M16.800 2.854 C 19.586 3.316,20.714 4.454,21.148 7.240 C 21.214 7.661,21.220 8.064,21.220 12.000 C 21.220 15.936,21.214 16.339,21.148 16.760 C 20.712 19.558,19.558 20.712,16.760 21.148 C 16.339 21.214,15.936 21.220,12.000 21.220 C 8.064 21.220,7.661 21.214,7.240 21.148 C 4.450 20.713,3.283 19.551,2.854 16.780 C 2.785 16.335,2.780 15.989,2.780 12.000 C 2.780 7.247,2.776 7.337,3.044 6.288 C 3.557 4.282,4.722 3.274,6.960 2.900 C 7.690 2.777,8.048 2.769,12.200 2.777 C 15.963 2.784,16.422 2.791,16.800 2.854 M6.442 5.587 C 5.829 5.719,5.219 6.257,4.987 6.869 L 4.900 7.100 4.889 11.279 C 4.882 14.097,4.892 15.525,4.920 15.662 C 5.020 16.141,5.359 16.647,5.764 16.923 C 6.081 17.138,6.305 17.214,6.935 17.318 C 8.205 17.529,9.731 18.021,10.995 18.626 C 11.897 19.059,12.038 19.059,12.960 18.623 C 14.301 17.990,15.663 17.558,17.120 17.305 C 17.752 17.195,17.891 17.149,18.216 16.941 C 18.601 16.695,18.933 16.221,19.059 15.738 C 19.150 15.389,19.151 7.416,19.060 7.068 C 18.805 6.086,17.928 5.488,16.873 5.576 C 15.501 5.690,13.571 6.321,12.190 7.105 L 12.000 7.213 11.810 7.104 C 10.399 6.291,8.292 5.621,7.020 5.580 C 6.756 5.572,6.496 5.575,6.442 5.587 M7.730 7.164 C 8.758 7.369,10.016 7.819,10.830 8.271 L 11.240 8.498 11.240 12.793 C 11.240 16.215,11.230 17.084,11.190 17.066 C 10.130 16.583,8.419 16.056,7.333 15.879 C 6.706 15.776,6.624 15.746,6.488 15.567 L 6.380 15.426 6.370 11.443 C 6.360 7.710,6.364 7.451,6.430 7.320 C 6.469 7.242,6.562 7.148,6.640 7.108 C 6.805 7.023,7.098 7.038,7.730 7.164 M17.309 7.102 C 17.392 7.136,17.496 7.212,17.540 7.272 C 17.619 7.378,17.620 7.451,17.630 11.360 C 17.640 15.089,17.636 15.349,17.570 15.477 C 17.455 15.703,17.346 15.752,16.720 15.861 C 15.654 16.046,14.223 16.459,13.252 16.861 C 13.014 16.959,12.807 17.040,12.790 17.040 C 12.773 17.040,12.760 15.118,12.760 12.770 L 12.761 8.500 13.050 8.335 C 13.957 7.820,15.553 7.269,16.620 7.104 C 17.096 7.030,17.133 7.030,17.309 7.102 " stroke="none" fill-rule="evenodd" fill="black"></path></svg>