<svg width="24" height="24" viewBox="0 0 24 24" fill="none" xmlns="http://www.w3.org/2000/svg"><path d="M11.434 1.283 C 10.950 1.323,10.438 1.444,10.022 1.615 C 9.538 1.815,4.028 4.888,3.689 5.147 C 2.928 5.729,2.175 6.835,1.868 7.820 C 1.653 8.510,1.660 8.379,1.660 12.000 C 1.660 15.621,1.653 15.490,1.868 16.180 C 2.178 17.175,2.939 18.286,3.704 18.862 C 4.024 19.102,9.504 22.166,9.978 22.369 C 11.096 22.849,12.793 22.862,13.948 22.399 C 14.113 22.333,14.571 22.099,14.965 21.880 C 15.359 21.660,15.699 21.480,15.721 21.480 C 15.743 21.480,15.864 21.564,15.991 21.667 C 16.960 22.457,18.168 22.825,19.430 22.716 C 20.141 22.654,20.733 22.475,21.289 22.153 C 23.575 20.831,24.390 18.094,23.188 15.781 C 23.014 15.448,22.646 14.928,22.466 14.763 L 22.360 14.666 22.360 11.803 C 22.360 8.651,22.349 8.479,22.119 7.788 C 21.771 6.747,21.061 5.714,20.296 5.138 C 19.976 4.898,14.496 1.834,14.022 1.631 C 13.606 1.452,13.057 1.327,12.493 1.281 C 12.215 1.258,11.950 1.243,11.904 1.246 C 11.858 1.249,11.646 1.266,11.434 1.283 M13.000 2.861 C 13.143 2.900,13.350 2.971,13.461 3.019 C 13.661 3.107,18.682 5.878,19.140 6.153 C 19.362 6.287,20.040 6.923,20.040 6.997 C 20.040 7.015,18.231 8.078,16.020 9.358 L 12.000 11.687 8.010 9.379 C 5.815 8.110,4.004 7.056,3.984 7.038 C 3.936 6.992,4.334 6.540,4.607 6.330 C 4.823 6.165,10.058 3.240,10.500 3.039 C 10.632 2.979,10.866 2.901,11.020 2.866 C 11.174 2.831,11.336 2.794,11.380 2.783 C 11.579 2.737,12.748 2.793,13.000 2.861 M7.274 10.676 L 11.240 12.973 11.240 17.082 L 11.240 21.191 11.082 21.156 C 10.859 21.106,10.565 21.003,10.392 20.915 C 9.744 20.587,4.774 17.798,4.607 17.670 C 3.868 17.102,3.261 16.005,3.158 15.054 C 3.093 14.451,3.127 8.892,3.198 8.589 C 3.227 8.461,3.264 8.362,3.280 8.369 C 3.295 8.375,5.093 9.413,7.274 10.676 M20.802 8.590 C 20.865 8.862,20.910 13.600,20.850 13.600 C 20.830 13.600,20.689 13.557,20.537 13.503 C 19.597 13.176,18.478 13.167,17.522 13.479 C 15.916 14.004,14.654 15.431,14.344 17.075 C 14.156 18.065,14.256 18.991,14.646 19.897 C 14.764 20.169,14.788 20.263,14.750 20.288 C 14.723 20.305,14.421 20.472,14.080 20.657 C 13.480 20.982,13.249 21.082,12.918 21.156 L 12.760 21.191 12.760 17.082 L 12.760 12.972 16.730 10.669 C 18.913 9.402,20.711 8.364,20.724 8.363 C 20.738 8.361,20.773 8.463,20.802 8.590 M20.011 14.921 C 20.986 15.245,21.787 16.048,22.105 17.020 C 22.189 17.276,22.214 17.443,22.229 17.860 C 22.253 18.514,22.174 18.875,21.872 19.480 C 21.696 19.832,21.607 19.956,21.321 20.245 C 20.629 20.946,19.937 21.240,18.984 21.240 C 17.137 21.240,15.650 19.642,15.773 17.788 C 15.850 16.627,16.512 15.629,17.557 15.101 C 18.081 14.837,18.461 14.758,19.120 14.776 C 19.555 14.789,19.671 14.808,20.011 14.921 M17.620 16.266 C 17.320 16.425,17.171 16.705,17.215 17.026 C 17.245 17.247,17.360 17.411,17.711 17.736 L 17.966 17.972 17.647 18.296 C 17.279 18.670,17.200 18.805,17.200 19.059 C 17.200 19.499,17.502 19.800,17.945 19.800 C 18.194 19.800,18.332 19.719,18.701 19.356 L 19.022 19.040 19.321 19.343 C 19.679 19.706,19.793 19.771,20.066 19.771 C 20.486 19.771,20.800 19.459,20.800 19.043 C 20.800 18.771,20.728 18.641,20.375 18.278 L 20.082 17.976 20.365 17.698 C 20.780 17.291,20.878 17.025,20.738 16.689 C 20.611 16.385,20.378 16.229,20.054 16.229 C 19.793 16.229,19.588 16.344,19.263 16.675 L 19.026 16.917 18.710 16.615 C 18.536 16.449,18.333 16.288,18.258 16.257 C 18.080 16.182,17.771 16.187,17.620 16.266 " stroke="none" fill-rule="evenodd" fill="black"></path></svg>