<svg width="24" height="24" viewBox="0 0 24 24" fill="none" xmlns="http://www.w3.org/2000/svg"><path d="M11.434 1.283 C 10.950 1.323,10.438 1.444,10.022 1.615 C 9.538 1.815,4.028 4.888,3.689 5.147 C 2.928 5.729,2.175 6.835,1.868 7.820 C 1.653 8.510,1.660 8.379,1.660 12.000 C 1.660 15.621,1.653 15.490,1.868 16.180 C 2.178 17.175,2.939 18.286,3.704 18.862 C 4.024 19.102,9.504 22.166,9.978 22.369 C 11.096 22.849,12.793 22.862,13.948 22.399 C 14.113 22.333,14.571 22.099,14.965 21.880 C 15.359 21.660,15.701 21.480,15.724 21.480 C 15.748 21.480,15.860 21.558,15.974 21.654 C 17.132 22.628,18.690 22.969,20.215 22.582 C 21.694 22.207,23.050 20.921,23.512 19.455 C 23.680 18.925,23.730 18.601,23.731 18.040 C 23.732 17.200,23.577 16.542,23.208 15.823 C 23.021 15.459,22.656 14.937,22.466 14.763 L 22.360 14.666 22.360 11.803 C 22.360 8.651,22.349 8.479,22.119 7.788 C 21.771 6.747,21.061 5.714,20.296 5.138 C 19.976 4.898,14.496 1.834,14.022 1.631 C 13.606 1.452,13.057 1.327,12.493 1.281 C 12.215 1.258,11.950 1.243,11.904 1.246 C 11.858 1.249,11.646 1.266,11.434 1.283 M13.000 2.861 C 13.143 2.900,13.350 2.971,13.461 3.019 C 13.661 3.107,18.682 5.878,19.140 6.153 C 19.362 6.287,20.040 6.923,20.040 6.997 C 20.040 7.015,18.231 8.078,16.020 9.358 L 12.000 11.687 8.010 9.379 C 5.815 8.110,4.004 7.056,3.984 7.038 C 3.936 6.992,4.334 6.540,4.607 6.330 C 4.823 6.165,10.058 3.240,10.500 3.039 C 10.632 2.979,10.866 2.901,11.020 2.866 C 11.174 2.831,11.336 2.794,11.380 2.783 C 11.579 2.737,12.748 2.793,13.000 2.861 M7.274 10.676 L 11.240 12.973 11.240 17.082 L 11.240 21.191 11.082 21.156 C 10.859 21.106,10.565 21.003,10.392 20.915 C 9.744 20.587,4.774 17.798,4.607 17.670 C 3.868 17.102,3.261 16.005,3.158 15.054 C 3.093 14.451,3.127 8.892,3.198 8.589 C 3.227 8.461,3.264 8.362,3.280 8.369 C 3.295 8.375,5.093 9.413,7.274 10.676 M20.802 8.590 C 20.842 8.764,20.859 9.405,20.870 11.210 C 20.878 12.525,20.872 13.600,20.856 13.600 C 20.839 13.600,20.699 13.556,20.543 13.503 C 19.238 13.056,17.750 13.207,16.587 13.906 C 14.514 15.151,13.690 17.686,14.641 19.892 C 14.758 20.164,14.786 20.265,14.749 20.288 C 14.722 20.306,14.421 20.472,14.080 20.657 C 13.480 20.982,13.249 21.082,12.918 21.156 L 12.760 21.191 12.760 17.082 L 12.760 12.972 16.730 10.669 C 18.913 9.402,20.711 8.364,20.724 8.363 C 20.738 8.361,20.773 8.463,20.802 8.590 M19.994 14.916 C 20.586 15.114,20.990 15.382,21.450 15.878 C 21.742 16.193,21.983 16.622,22.126 17.080 C 22.207 17.339,22.220 17.463,22.220 17.980 C 22.220 18.498,22.207 18.621,22.126 18.878 C 21.755 20.062,20.816 20.934,19.646 21.182 C 19.297 21.256,18.677 21.255,18.320 21.180 C 17.033 20.909,16.004 19.808,15.797 18.479 C 15.736 18.091,15.772 17.501,15.880 17.120 C 16.208 15.963,17.170 15.070,18.360 14.817 C 18.529 14.781,18.795 14.767,19.120 14.776 C 19.551 14.788,19.671 14.807,19.994 14.916 M20.220 16.296 C 20.154 16.326,19.736 16.703,19.292 17.135 C 18.848 17.567,18.472 17.920,18.457 17.920 C 18.441 17.920,18.298 17.803,18.138 17.659 C 17.717 17.282,17.490 17.208,17.169 17.342 C 16.743 17.520,16.573 18.009,16.804 18.394 C 16.930 18.604,17.973 19.593,18.144 19.664 C 18.324 19.739,18.632 19.732,18.787 19.648 C 19.004 19.532,21.111 17.479,21.200 17.297 C 21.386 16.918,21.206 16.426,20.827 16.283 C 20.674 16.225,20.366 16.232,20.220 16.296 " stroke="none" fill-rule="evenodd" fill="black"></path></svg>