<svg width="24" height="24" viewBox="0 0 24 24" fill="none" xmlns="http://www.w3.org/2000/svg"><path d="M11.434 1.283 C 10.950 1.323,10.438 1.444,10.022 1.615 C 9.538 1.815,4.028 4.888,3.689 5.147 C 2.928 5.729,2.175 6.835,1.868 7.820 C 1.653 8.510,1.660 8.379,1.660 12.000 C 1.660 15.621,1.653 15.490,1.868 16.180 C 2.178 17.175,2.939 18.286,3.704 18.862 C 4.024 19.102,9.504 22.166,9.978 22.369 C 11.141 22.868,12.907 22.859,14.067 22.348 C 14.239 22.272,14.686 22.038,15.060 21.828 L 15.740 21.446 15.860 21.558 C 16.202 21.877,16.832 22.253,17.361 22.451 C 18.322 22.813,19.573 22.827,20.560 22.487 C 21.696 22.096,22.769 21.124,23.282 20.023 C 23.603 19.334,23.728 18.762,23.727 17.982 C 23.726 17.161,23.567 16.511,23.188 15.781 C 23.014 15.448,22.646 14.928,22.466 14.763 L 22.360 14.666 22.360 11.803 C 22.360 8.651,22.349 8.479,22.119 7.788 C 21.771 6.747,21.061 5.714,20.296 5.138 C 19.976 4.898,14.496 1.834,14.022 1.631 C 13.606 1.452,13.057 1.327,12.493 1.281 C 12.215 1.258,11.950 1.243,11.904 1.246 C 11.858 1.249,11.646 1.266,11.434 1.283 M13.000 2.861 C 13.143 2.900,13.350 2.971,13.461 3.019 C 13.661 3.107,18.682 5.878,19.140 6.153 C 19.362 6.287,20.040 6.923,20.040 6.997 C 20.040 7.015,18.231 8.078,16.020 9.358 L 12.000 11.687 8.010 9.379 C 5.815 8.110,4.004 7.056,3.984 7.038 C 3.936 6.992,4.334 6.540,4.607 6.330 C 4.823 6.165,10.058 3.240,10.500 3.039 C 10.632 2.979,10.866 2.901,11.020 2.866 C 11.174 2.831,11.336 2.794,11.380 2.783 C 11.579 2.737,12.748 2.793,13.000 2.861 M7.274 10.676 L 11.240 12.973 11.240 17.082 L 11.240 21.191 11.082 21.156 C 10.859 21.106,10.565 21.003,10.392 20.915 C 9.744 20.587,4.774 17.798,4.607 17.670 C 3.868 17.102,3.261 16.005,3.158 15.054 C 3.093 14.451,3.127 8.892,3.198 8.589 C 3.227 8.461,3.264 8.362,3.280 8.369 C 3.295 8.375,5.093 9.413,7.274 10.676 M20.802 8.590 C 20.865 8.862,20.910 13.600,20.850 13.600 C 20.830 13.600,20.689 13.557,20.537 13.503 C 19.597 13.176,18.478 13.167,17.522 13.479 C 15.916 14.004,14.654 15.431,14.344 17.075 C 14.155 18.073,14.259 19.004,14.663 19.938 C 14.768 20.179,14.788 20.263,14.750 20.288 C 14.723 20.306,14.421 20.472,14.080 20.657 C 13.480 20.982,13.249 21.082,12.918 21.156 L 12.760 21.191 12.760 17.082 L 12.760 12.972 16.730 10.669 C 18.913 9.402,20.711 8.364,20.724 8.363 C 20.738 8.361,20.773 8.463,20.802 8.590 M20.011 14.921 C 20.986 15.245,21.788 16.049,22.105 17.020 C 22.244 17.448,22.280 18.158,22.185 18.625 C 22.052 19.284,21.774 19.794,21.284 20.282 C 20.771 20.792,20.224 21.086,19.574 21.201 C 19.135 21.278,18.417 21.234,18.020 21.105 C 16.979 20.766,16.144 19.878,15.852 18.800 C 15.753 18.436,15.755 17.561,15.854 17.200 C 16.112 16.269,16.715 15.526,17.557 15.101 C 18.081 14.837,18.461 14.758,19.120 14.776 C 19.555 14.789,19.671 14.808,20.011 14.921 M18.961 16.061 C 18.586 16.230,18.520 16.397,18.520 17.172 C 18.520 17.709,18.511 17.795,18.450 17.848 C 18.412 17.881,18.178 18.028,17.932 18.175 C 17.457 18.459,17.355 18.561,17.284 18.825 C 17.143 19.348,17.643 19.859,18.160 19.720 C 18.379 19.661,19.690 18.868,19.816 18.718 C 19.983 18.519,20.006 18.344,19.993 17.386 C 19.980 16.534,19.976 16.495,19.887 16.370 C 19.659 16.050,19.272 15.921,18.961 16.061 " stroke="none" fill-rule="evenodd" fill="black"></path></svg>