<svg width="24" height="24" viewBox="0 0 24 24" fill="none" xmlns="http://www.w3.org/2000/svg"><path d="M11.830 1.285 C 11.747 1.304,11.139 1.590,10.479 1.921 C 9.393 2.466,9.269 2.539,9.173 2.684 C 8.974 2.984,9.017 3.426,9.266 3.645 C 9.493 3.845,9.429 3.840,11.995 3.840 C 13.598 3.840,14.432 3.826,14.507 3.797 C 14.984 3.617,15.109 2.955,14.736 2.586 C 14.603 2.454,12.280 1.292,12.100 1.268 C 12.034 1.259,11.912 1.266,11.830 1.285 M3.889 5.216 C 2.589 5.864,2.486 5.935,2.399 6.232 C 2.369 6.331,2.359 6.891,2.367 7.923 L 2.380 9.467 2.494 9.632 C 2.768 10.026,3.340 10.066,3.667 9.714 C 3.822 9.547,3.840 9.426,3.840 8.537 C 3.840 8.020,3.855 7.680,3.878 7.680 C 3.899 7.680,4.189 7.815,4.523 7.980 C 5.029 8.231,5.161 8.280,5.326 8.280 C 6.013 8.280,6.328 7.452,5.814 7.000 C 5.736 6.932,5.485 6.783,5.256 6.669 C 5.027 6.555,4.840 6.452,4.840 6.440 C 4.840 6.428,5.027 6.325,5.256 6.211 C 5.485 6.097,5.736 5.948,5.814 5.880 C 6.329 5.428,6.013 4.600,5.324 4.600 C 5.147 4.600,4.986 4.669,3.889 5.216 M18.310 4.683 C 18.001 4.846,17.852 5.249,17.977 5.579 C 18.068 5.817,18.247 5.964,18.744 6.211 C 18.973 6.325,19.160 6.428,19.160 6.440 C 19.160 6.452,18.973 6.555,18.744 6.669 C 18.515 6.783,18.264 6.932,18.186 7.000 C 17.672 7.452,17.987 8.280,18.674 8.280 C 18.839 8.280,18.971 8.231,19.477 7.980 C 19.811 7.815,20.101 7.680,20.122 7.680 C 20.145 7.680,20.160 8.024,20.160 8.550 C 20.160 9.299,20.170 9.439,20.230 9.557 C 20.484 10.054,21.184 10.095,21.506 9.632 L 21.620 9.467 21.633 7.923 C 21.641 6.891,21.631 6.331,21.601 6.232 C 21.514 5.935,21.411 5.864,20.111 5.216 C 18.984 4.654,18.857 4.600,18.668 4.602 C 18.541 4.603,18.402 4.634,18.310 4.683 M9.481 9.103 C 9.298 9.183,9.208 9.268,9.116 9.448 C 8.985 9.705,9.041 10.089,9.240 10.299 C 9.282 10.344,9.748 10.595,10.275 10.858 L 11.235 11.336 11.248 12.598 L 11.260 13.860 11.366 14.040 C 11.505 14.277,11.723 14.400,12.000 14.400 C 12.277 14.400,12.495 14.277,12.634 14.040 L 12.740 13.860 12.752 12.598 L 12.765 11.336 13.725 10.858 C 14.252 10.595,14.718 10.344,14.760 10.299 C 14.959 10.089,15.015 9.705,14.884 9.448 C 14.791 9.265,14.700 9.181,14.510 9.102 C 14.213 8.978,14.129 9.003,13.030 9.547 L 12.000 10.057 10.970 9.547 C 9.868 9.002,9.778 8.975,9.481 9.103 M2.767 14.126 C 2.665 14.176,2.549 14.278,2.487 14.373 L 2.380 14.534 2.369 16.068 C 2.361 17.059,2.372 17.657,2.400 17.759 C 2.481 18.061,2.578 18.128,3.886 18.782 C 4.988 19.333,5.144 19.400,5.323 19.400 C 5.859 19.400,6.222 18.871,6.011 18.396 C 5.903 18.156,3.816 14.492,3.694 14.330 C 3.483 14.050,3.093 13.964,2.767 14.126 M20.580 14.103 C 20.514 14.137,20.417 14.205,20.365 14.253 C 20.170 14.431,20.160 14.510,20.160 15.839 L 20.160 17.080 19.243 17.539 C 18.738 17.791,18.262 18.053,18.185 18.121 C 17.670 18.573,17.988 19.400,18.677 19.400 C 18.856 19.400,19.012 19.333,20.114 18.782 C 21.423 18.127,21.519 18.061,21.601 17.757 C 21.629 17.653,21.639 17.066,21.632 16.066 L 21.620 14.533 21.506 14.368 C 21.304 14.077,20.869 13.953,20.580 14.103 M11.720 18.525 C 11.591 18.576,11.410 18.748,11.327 18.900 C 11.272 18.999,11.258 19.174,11.247 19.890 C 11.239 20.369,11.227 20.760,11.218 20.760 C 11.210 20.760,10.928 20.623,10.592 20.457 C 10.000 20.163,9.972 20.154,9.735 20.168 C 9.543 20.180,9.458 20.207,9.344 20.294 C 9.023 20.539,8.949 20.978,9.173 21.317 C 9.271 21.465,9.391 21.535,10.538 22.107 C 11.671 22.673,11.815 22.735,12.000 22.735 C 12.185 22.735,12.329 22.673,13.462 22.107 C 14.609 21.535,14.729 21.465,14.827 21.317 C 15.051 20.978,14.977 20.539,14.656 20.294 C 14.542 20.207,14.457 20.180,14.265 20.168 C 14.028 20.154,14.000 20.163,13.408 20.457 C 13.072 20.623,12.790 20.760,12.782 20.760 C 12.773 20.760,12.761 20.369,12.753 19.890 C 12.742 19.174,12.728 18.999,12.673 18.900 C 12.586 18.742,12.407 18.575,12.267 18.523 C 12.129 18.470,11.854 18.471,11.720 18.525 " stroke="none" fill-rule="evenodd" fill="black"></path></svg>