<svg width="24" height="24" viewBox="0 0 24 24" fill="none" xmlns="http://www.w3.org/2000/svg"><path d="M11.434 1.283 C 10.950 1.323,10.438 1.444,10.022 1.615 C 9.546 1.811,4.059 4.871,3.706 5.137 C 2.939 5.714,2.178 6.825,1.868 7.820 C 1.653 8.510,1.660 8.379,1.660 12.000 C 1.660 15.621,1.653 15.490,1.868 16.180 C 2.178 17.175,2.939 18.286,3.706 18.863 C 4.026 19.104,9.502 22.166,9.978 22.369 C 11.290 22.932,13.388 22.833,14.442 22.158 C 15.075 21.753,14.820 20.786,14.080 20.786 C 13.962 20.786,13.790 20.834,13.580 20.926 C 13.404 21.004,13.170 21.089,13.060 21.117 C 12.950 21.145,12.838 21.174,12.810 21.183 C 12.770 21.194,12.760 20.356,12.760 17.085 L 12.760 12.972 16.745 10.664 C 18.936 9.395,20.734 8.361,20.740 8.368 C 20.746 8.375,20.773 8.470,20.801 8.580 C 20.836 8.723,20.855 9.369,20.866 10.840 C 20.874 11.973,20.890 12.959,20.902 13.031 C 20.929 13.192,21.135 13.434,21.308 13.506 C 21.581 13.620,21.982 13.540,22.168 13.333 C 22.357 13.125,22.360 13.085,22.360 10.951 C 22.360 8.726,22.338 8.446,22.119 7.788 C 21.771 6.747,21.061 5.714,20.296 5.138 C 19.976 4.898,14.496 1.834,14.022 1.631 C 13.606 1.452,13.057 1.327,12.493 1.281 C 12.215 1.258,11.950 1.243,11.904 1.246 C 11.858 1.249,11.646 1.266,11.434 1.283 M13.000 2.861 C 13.143 2.900,13.350 2.971,13.461 3.019 C 13.661 3.107,18.682 5.878,19.140 6.153 C 19.362 6.287,20.040 6.923,20.040 6.997 C 20.040 7.015,18.231 8.078,16.020 9.358 L 12.000 11.687 8.010 9.379 C 5.815 8.110,4.004 7.056,3.984 7.038 C 3.936 6.992,4.334 6.540,4.607 6.330 C 4.823 6.165,10.058 3.240,10.500 3.039 C 10.632 2.979,10.866 2.901,11.020 2.866 C 11.174 2.831,11.336 2.794,11.380 2.783 C 11.579 2.737,12.748 2.793,13.000 2.861 M7.274 10.676 L 11.240 12.973 11.240 17.082 L 11.240 21.191 11.082 21.156 C 10.859 21.106,10.565 21.003,10.392 20.915 C 9.950 20.691,4.798 17.817,4.680 17.729 C 3.898 17.146,3.264 16.031,3.158 15.054 C 3.093 14.451,3.127 8.892,3.198 8.589 C 3.227 8.461,3.264 8.362,3.280 8.369 C 3.295 8.375,5.093 9.413,7.274 10.676 M18.780 14.284 C 17.888 14.378,17.061 14.775,16.418 15.418 C 15.077 16.759,14.884 18.805,15.946 20.430 C 16.139 20.726,16.674 21.261,16.970 21.454 C 18.278 22.309,19.935 22.361,21.212 21.587 L 21.405 21.470 22.012 22.070 C 22.562 22.612,22.638 22.673,22.810 22.710 C 23.388 22.833,23.833 22.388,23.710 21.810 C 23.673 21.638,23.612 21.562,23.070 21.012 L 22.470 20.405 22.587 20.212 C 23.132 19.313,23.279 18.137,22.978 17.097 C 22.788 16.442,22.471 15.907,21.982 15.418 C 21.317 14.754,20.521 14.381,19.557 14.282 C 19.334 14.259,19.140 14.242,19.126 14.245 C 19.112 14.248,18.956 14.266,18.780 14.284 M19.796 15.821 C 20.205 15.918,20.581 16.137,20.922 16.478 C 21.418 16.975,21.639 17.504,21.639 18.200 C 21.639 18.896,21.418 19.425,20.922 19.922 C 20.425 20.418,19.896 20.639,19.200 20.639 C 18.504 20.639,17.975 20.418,17.478 19.922 C 16.982 19.425,16.761 18.896,16.761 18.200 C 16.761 17.504,16.982 16.975,17.478 16.478 C 17.812 16.144,18.195 15.918,18.586 15.823 C 18.898 15.748,19.480 15.747,19.796 15.821 " stroke="none" fill-rule="evenodd" fill="black"></path></svg>