<svg width="24" height="24" viewBox="0 0 24 24" fill="none" xmlns="http://www.w3.org/2000/svg"><path d="M11.410 1.282 C 10.931 1.327,10.425 1.449,10.022 1.615 C 9.548 1.811,4.057 4.873,3.704 5.138 C 2.834 5.793,2.101 6.935,1.767 8.157 L 1.662 8.540 1.649 11.783 C 1.635 15.364,1.642 15.495,1.880 16.207 C 2.233 17.260,3.021 18.377,3.800 18.928 C 4.127 19.159,9.673 22.244,10.010 22.382 C 10.543 22.601,11.005 22.685,11.786 22.709 C 12.760 22.738,13.385 22.642,14.045 22.360 C 14.373 22.221,19.608 19.313,20.077 19.011 C 21.032 18.393,21.909 17.108,22.250 15.824 C 22.334 15.507,22.337 15.428,22.350 12.168 C 22.362 9.270,22.355 8.788,22.300 8.469 C 22.122 7.437,21.545 6.344,20.762 5.556 C 20.552 5.345,20.272 5.100,20.140 5.012 C 19.890 4.846,14.781 1.992,14.297 1.749 C 13.537 1.367,12.416 1.185,11.410 1.282 M13.020 2.860 C 13.152 2.897,13.350 2.965,13.460 3.011 C 13.704 3.114,18.879 5.981,19.231 6.209 C 19.459 6.356,20.040 6.924,20.040 6.999 C 20.040 7.016,18.231 8.078,16.020 9.358 L 12.000 11.687 8.010 9.379 C 5.815 8.110,4.004 7.056,3.984 7.038 C 3.936 6.992,4.334 6.540,4.607 6.330 C 4.823 6.165,10.058 3.240,10.500 3.039 C 10.632 2.979,10.866 2.901,11.020 2.866 C 11.174 2.831,11.336 2.793,11.380 2.783 C 11.572 2.738,12.786 2.795,13.020 2.860 M7.274 10.676 L 11.240 12.973 11.240 17.072 L 11.240 21.170 11.075 21.144 C 10.984 21.129,10.781 21.067,10.625 21.007 C 10.343 20.897,5.049 17.972,4.740 17.756 C 4.044 17.267,3.430 16.332,3.208 15.420 C 3.147 15.168,3.140 14.825,3.140 12.020 C 3.140 9.536,3.151 8.845,3.195 8.628 C 3.225 8.479,3.263 8.362,3.279 8.368 C 3.295 8.375,5.093 9.413,7.274 10.676 M20.807 8.590 C 20.887 8.937,20.884 15.030,20.804 15.400 C 20.731 15.735,20.496 16.286,20.252 16.689 C 20.039 17.042,19.564 17.556,19.266 17.758 C 19.159 17.831,17.831 18.579,16.315 19.422 C 13.671 20.892,13.136 21.160,12.850 21.160 L 12.760 21.160 12.760 17.066 L 12.760 12.972 16.730 10.669 C 18.913 9.402,20.712 8.364,20.727 8.363 C 20.742 8.361,20.778 8.463,20.807 8.590 " stroke="none" fill-rule="evenodd" fill="black"></path></svg>