<svg width="24" height="24" viewBox="0 0 24 24" fill="none" xmlns="http://www.w3.org/2000/svg"><path d="M11.434 1.283 C 10.950 1.323,10.438 1.444,10.022 1.615 C 9.538 1.815,4.028 4.888,3.689 5.147 C 2.928 5.729,2.175 6.835,1.868 7.820 C 1.653 8.510,1.660 8.379,1.660 12.000 C 1.660 15.621,1.653 15.490,1.868 16.180 C 2.178 17.175,2.939 18.286,3.704 18.862 C 4.024 19.102,9.504 22.166,9.978 22.369 C 11.141 22.868,12.907 22.859,14.067 22.348 C 14.239 22.272,14.686 22.039,15.060 21.829 L 15.740 21.447 15.900 21.583 C 16.354 21.971,16.999 22.334,17.556 22.516 C 18.181 22.720,19.083 22.787,19.780 22.681 C 21.256 22.456,22.589 21.443,23.283 20.020 C 24.087 18.370,23.796 16.273,22.570 14.883 L 22.360 14.645 22.360 11.793 C 22.360 8.652,22.349 8.479,22.119 7.788 C 21.771 6.747,21.061 5.714,20.296 5.138 C 19.976 4.898,14.496 1.834,14.022 1.631 C 13.606 1.452,13.057 1.327,12.493 1.281 C 12.215 1.258,11.950 1.243,11.904 1.246 C 11.858 1.249,11.646 1.266,11.434 1.283 M13.000 2.861 C 13.143 2.900,13.350 2.971,13.461 3.019 C 13.661 3.107,18.682 5.878,19.140 6.153 C 19.362 6.287,20.040 6.923,20.040 6.997 C 20.040 7.015,18.231 8.078,16.020 9.358 L 12.000 11.687 8.010 9.379 C 5.815 8.110,4.004 7.056,3.984 7.038 C 3.936 6.992,4.334 6.540,4.607 6.330 C 4.823 6.165,10.058 3.240,10.500 3.039 C 10.632 2.979,10.866 2.901,11.020 2.866 C 11.174 2.831,11.336 2.794,11.380 2.783 C 11.579 2.737,12.748 2.793,13.000 2.861 M7.274 10.676 L 11.240 12.973 11.240 17.082 L 11.240 21.191 11.082 21.156 C 10.859 21.106,10.565 21.003,10.392 20.915 C 9.744 20.587,4.774 17.798,4.607 17.670 C 3.868 17.102,3.261 16.005,3.158 15.054 C 3.093 14.451,3.127 8.892,3.198 8.589 C 3.227 8.461,3.264 8.362,3.280 8.369 C 3.295 8.375,5.093 9.413,7.274 10.676 M20.802 8.590 C 20.842 8.764,20.859 9.405,20.870 11.210 C 20.878 12.525,20.873 13.600,20.857 13.600 C 20.842 13.600,20.708 13.556,20.559 13.502 C 19.661 13.178,18.471 13.169,17.522 13.479 C 15.916 14.004,14.654 15.431,14.344 17.075 C 14.156 18.065,14.256 18.991,14.646 19.897 C 14.764 20.169,14.788 20.263,14.750 20.288 C 14.723 20.305,14.421 20.472,14.080 20.657 C 13.480 20.982,13.249 21.082,12.918 21.156 L 12.760 21.191 12.760 17.082 L 12.760 12.972 16.730 10.669 C 18.913 9.402,20.711 8.364,20.724 8.363 C 20.738 8.361,20.773 8.463,20.802 8.590 M19.820 14.858 C 20.985 15.173,21.937 16.165,22.180 17.318 C 22.265 17.725,22.257 18.347,22.160 18.740 C 22.117 18.916,21.987 19.249,21.872 19.480 C 21.696 19.832,21.608 19.956,21.321 20.245 C 20.591 20.984,19.852 21.277,18.834 21.231 C 17.857 21.187,17.021 20.741,16.412 19.940 C 15.957 19.340,15.722 18.551,15.773 17.788 C 15.870 16.324,16.911 15.128,18.360 14.818 C 18.692 14.747,19.491 14.769,19.820 14.858 M18.815 15.797 C 18.638 15.841,18.461 15.976,18.355 16.149 C 18.277 16.274,18.261 16.365,18.247 16.768 L 18.230 17.240 17.788 17.240 C 17.257 17.240,17.059 17.313,16.887 17.572 C 16.800 17.704,16.780 17.780,16.780 17.980 C 16.780 18.186,16.799 18.254,16.894 18.392 C 17.075 18.652,17.260 18.720,17.788 18.720 L 18.230 18.720 18.247 19.210 C 18.261 19.638,18.276 19.722,18.361 19.874 C 18.638 20.366,19.362 20.366,19.639 19.874 C 19.724 19.722,19.739 19.638,19.753 19.210 L 19.770 18.720 20.212 18.720 C 20.740 18.720,20.925 18.652,21.106 18.392 C 21.201 18.254,21.220 18.186,21.220 17.980 C 21.220 17.774,21.201 17.706,21.106 17.568 C 20.925 17.307,20.741 17.240,20.207 17.240 L 19.760 17.240 19.759 16.890 C 19.758 16.463,19.706 16.222,19.580 16.056 C 19.421 15.847,19.078 15.731,18.815 15.797 " stroke="none" fill-rule="evenodd" fill="black"></path></svg>