<svg width="24" height="24" viewBox="0 0 24 24" fill="none" xmlns="http://www.w3.org/2000/svg"><path d="M11.434 1.282 C 10.967 1.322,10.453 1.440,10.063 1.596 C 9.708 1.738,4.162 4.817,3.800 5.073 C 2.786 5.789,1.890 7.279,1.697 8.566 C 1.645 8.913,1.638 9.464,1.649 12.217 L 1.662 15.460 1.767 15.843 C 2.101 17.063,2.834 18.207,3.700 18.859 C 4.025 19.104,9.432 22.134,9.927 22.350 C 11.218 22.910,13.065 22.869,14.297 22.251 C 14.774 22.012,19.888 19.156,20.140 18.988 C 20.272 18.900,20.552 18.655,20.762 18.444 C 21.545 17.656,22.122 16.563,22.300 15.531 C 22.355 15.212,22.362 14.730,22.350 11.832 C 22.337 8.572,22.334 8.493,22.250 8.176 C 22.075 7.518,21.829 6.989,21.395 6.335 C 21.032 5.790,20.466 5.223,19.996 4.933 C 19.811 4.820,18.417 4.036,16.897 3.191 C 13.945 1.550,13.774 1.468,13.016 1.344 C 12.540 1.265,11.906 1.241,11.434 1.282 M13.055 2.877 C 13.228 2.925,13.475 3.017,13.605 3.082 C 13.978 3.271,18.788 5.948,19.120 6.152 C 19.413 6.332,20.055 6.934,20.031 7.007 C 20.024 7.027,19.353 7.429,18.539 7.900 C 17.221 8.663,17.051 8.751,16.980 8.706 C 16.936 8.678,15.078 7.604,12.850 6.319 C 10.623 5.034,8.814 3.970,8.830 3.955 C 8.847 3.939,9.232 3.721,9.687 3.470 C 10.846 2.829,11.102 2.756,12.100 2.777 C 12.602 2.787,12.808 2.809,13.055 2.877 M11.456 7.241 C 14.989 9.281,15.551 9.618,15.491 9.660 C 15.452 9.686,14.651 10.153,13.710 10.697 L 12.001 11.687 8.010 9.380 C 5.816 8.110,4.006 7.059,3.988 7.042 C 3.944 7.001,4.235 6.659,4.521 6.416 C 4.803 6.177,7.186 4.830,7.285 4.854 C 7.321 4.863,9.198 5.937,11.456 7.241 M7.274 10.676 L 11.240 12.973 11.240 17.086 C 11.240 19.349,11.235 21.200,11.229 21.200 C 11.134 21.200,10.567 21.004,10.359 20.899 C 10.037 20.738,5.212 18.059,4.866 17.850 C 4.400 17.570,3.843 16.922,3.531 16.300 C 3.333 15.905,3.203 15.472,3.158 15.054 C 3.091 14.435,3.127 8.889,3.200 8.589 C 3.231 8.463,3.268 8.364,3.282 8.369 C 3.297 8.375,5.093 9.413,7.274 10.676 M20.805 8.610 C 20.849 8.812,20.860 9.476,20.860 12.040 C 20.860 15.651,20.877 15.445,20.523 16.185 C 20.181 16.900,19.716 17.478,19.229 17.793 C 18.877 18.020,13.702 20.886,13.460 20.988 C 13.350 21.035,13.179 21.093,13.080 21.119 C 12.981 21.144,12.868 21.174,12.830 21.185 C 12.764 21.204,12.760 20.990,12.760 17.088 L 12.760 12.971 14.490 11.970 L 16.220 10.969 16.240 12.214 C 16.260 13.431,16.262 13.464,16.353 13.609 C 16.664 14.110,17.408 14.089,17.664 13.572 C 17.734 13.432,17.742 13.284,17.760 11.743 L 17.780 10.065 19.240 9.215 C 20.043 8.747,20.711 8.364,20.725 8.362 C 20.738 8.361,20.774 8.473,20.805 8.610 " stroke="none" fill-rule="evenodd" fill="black"></path></svg>