<svg width="24" height="24" viewBox="0 0 24 24" fill="none" xmlns="http://www.w3.org/2000/svg"><path d="M10.589 1.282 C 9.453 1.353,8.669 1.627,8.120 2.145 C 7.531 2.701,7.320 3.324,7.257 4.685 L 7.232 5.231 6.686 5.257 C 5.949 5.293,5.416 5.351,4.960 5.444 C 2.656 5.914,1.521 7.283,1.520 9.596 C 1.520 10.131,2.274 18.376,2.382 19.020 C 2.561 20.086,2.938 20.871,3.546 21.440 C 4.403 22.241,5.523 22.618,7.348 22.719 C 8.273 22.770,15.727 22.770,16.652 22.719 C 18.133 22.637,19.125 22.377,19.919 21.863 C 20.677 21.373,21.225 20.603,21.478 19.675 C 21.644 19.063,21.635 19.152,22.401 10.940 C 22.536 9.497,22.493 8.708,22.239 7.950 C 21.927 7.020,21.227 6.255,20.311 5.845 C 19.511 5.487,18.678 5.323,17.314 5.257 L 16.768 5.231 16.743 4.685 C 16.710 3.972,16.654 3.569,16.538 3.201 C 16.229 2.228,15.449 1.611,14.235 1.377 C 13.592 1.254,11.785 1.206,10.589 1.282 M13.843 2.825 C 14.401 2.920,14.625 3.015,14.862 3.256 C 15.143 3.542,15.201 3.756,15.229 4.590 L 15.250 5.240 12.000 5.240 L 8.750 5.240 8.771 4.590 C 8.799 3.756,8.857 3.542,9.138 3.256 C 9.370 3.020,9.598 2.921,10.121 2.828 C 10.631 2.737,13.319 2.735,13.843 2.825 M18.507 6.851 C 19.355 7.009,19.954 7.273,20.345 7.660 C 20.863 8.173,21.049 8.875,20.981 10.058 L 20.952 10.565 20.766 10.701 C 20.466 10.919,19.493 11.495,19.060 11.711 C 17.835 12.321,16.679 12.730,15.360 13.020 L 14.780 13.148 14.752 12.744 C 14.702 12.018,14.593 11.731,14.279 11.499 C 13.971 11.272,13.857 11.260,12.000 11.260 C 10.149 11.260,10.028 11.272,9.727 11.495 C 9.407 11.731,9.297 12.013,9.256 12.702 C 9.241 12.954,9.215 13.160,9.200 13.160 C 9.101 13.160,8.103 12.936,7.682 12.820 C 6.258 12.426,4.681 11.717,3.432 10.908 C 3.012 10.635,3.025 10.675,3.022 9.660 C 3.020 9.027,3.031 8.902,3.111 8.628 C 3.241 8.177,3.378 7.935,3.655 7.660 C 4.132 7.188,4.898 6.907,6.040 6.786 C 6.117 6.778,8.871 6.774,12.160 6.777 C 17.620 6.782,18.172 6.788,18.507 6.851 M20.480 15.462 C 20.182 18.631,20.157 18.849,20.034 19.291 C 19.715 20.443,18.839 21.015,17.112 21.199 C 16.584 21.255,7.416 21.255,6.888 21.199 C 4.913 20.988,4.083 20.311,3.842 18.712 C 3.794 18.394,3.243 12.587,3.259 12.569 C 3.264 12.563,3.384 12.624,3.524 12.705 C 5.008 13.557,6.823 14.221,8.600 14.563 L 9.261 14.690 9.327 15.030 C 9.413 15.466,9.583 15.809,9.844 16.068 C 10.078 16.301,10.500 16.530,10.860 16.619 C 11.260 16.718,11.951 16.761,12.450 16.718 C 13.784 16.602,14.460 16.086,14.676 15.017 L 14.748 14.660 14.944 14.629 C 16.011 14.459,17.602 13.992,18.680 13.532 C 19.166 13.324,20.173 12.822,20.507 12.621 C 20.633 12.545,20.741 12.488,20.747 12.493 C 20.752 12.499,20.632 13.835,20.480 15.462 M13.233 13.790 C 13.218 14.988,13.209 15.024,12.891 15.146 C 12.611 15.254,11.389 15.254,11.109 15.146 C 10.791 15.024,10.782 14.988,10.767 13.790 L 10.754 12.760 12.000 12.760 L 13.246 12.760 13.233 13.790 " stroke="none" fill-rule="evenodd" fill="black"></path></svg>