<svg width="24" height="24" viewBox="0 0 24 24" fill="none" xmlns="http://www.w3.org/2000/svg"><path d="M10.589 1.282 C 9.453 1.353,8.669 1.627,8.120 2.145 C 7.531 2.701,7.320 3.324,7.257 4.685 L 7.232 5.231 6.686 5.257 C 5.949 5.293,5.416 5.351,4.960 5.444 C 2.656 5.914,1.521 7.283,1.520 9.596 C 1.520 10.131,2.274 18.376,2.382 19.020 C 2.561 20.086,2.938 20.871,3.546 21.440 C 4.403 22.241,5.523 22.618,7.348 22.719 C 8.273 22.770,15.727 22.770,16.652 22.719 C 18.133 22.637,19.125 22.377,19.919 21.863 C 20.677 21.373,21.225 20.603,21.478 19.675 C 21.644 19.063,21.635 19.152,22.401 10.940 C 22.536 9.497,22.493 8.708,22.239 7.950 C 21.927 7.020,21.227 6.255,20.311 5.845 C 19.511 5.487,18.678 5.323,17.314 5.257 L 16.768 5.231 16.743 4.685 C 16.710 3.972,16.654 3.569,16.538 3.201 C 16.229 2.228,15.449 1.611,14.235 1.377 C 13.592 1.254,11.785 1.206,10.589 1.282 M13.843 2.825 C 14.401 2.920,14.625 3.015,14.862 3.256 C 15.143 3.542,15.201 3.756,15.229 4.590 L 15.250 5.240 12.000 5.240 L 8.750 5.240 8.771 4.590 C 8.799 3.756,8.857 3.542,9.138 3.256 C 9.370 3.020,9.598 2.921,10.121 2.828 C 10.631 2.737,13.319 2.735,13.843 2.825 M18.507 6.851 C 19.355 7.009,19.954 7.273,20.345 7.660 C 20.621 7.933,20.760 8.179,20.881 8.606 C 20.979 8.955,21.021 9.692,20.973 10.219 L 20.940 10.577 20.695 10.748 C 20.004 11.230,18.674 11.935,17.840 12.261 C 17.277 12.482,16.554 12.721,16.518 12.699 C 16.500 12.688,16.464 12.612,16.437 12.529 C 16.411 12.447,16.326 12.254,16.250 12.100 C 15.711 11.014,14.777 10.176,13.624 9.743 C 12.660 9.380,11.340 9.380,10.376 9.743 C 9.069 10.234,8.036 11.259,7.557 12.540 C 7.511 12.661,7.468 12.760,7.460 12.760 C 7.452 12.760,7.200 12.678,6.900 12.578 C 5.866 12.232,4.797 11.734,3.790 11.130 C 3.031 10.673,3.077 10.726,3.032 10.258 C 2.978 9.698,3.016 8.967,3.119 8.606 C 3.241 8.178,3.380 7.933,3.655 7.660 C 4.132 7.188,4.898 6.907,6.040 6.786 C 6.117 6.778,8.871 6.774,12.160 6.777 C 17.620 6.782,18.172 6.788,18.507 6.851 M12.980 11.094 C 13.508 11.268,13.854 11.486,14.284 11.916 C 14.712 12.343,14.928 12.685,15.108 13.220 C 15.209 13.516,15.217 13.589,15.217 14.200 C 15.217 14.811,15.209 14.884,15.108 15.180 C 14.928 15.715,14.712 16.057,14.284 16.484 C 13.857 16.912,13.515 17.128,12.980 17.308 C 12.684 17.409,12.611 17.417,12.000 17.417 C 11.389 17.417,11.316 17.409,11.020 17.308 C 10.485 17.128,10.143 16.912,9.716 16.484 C 9.288 16.057,9.072 15.715,8.892 15.180 C 8.791 14.884,8.783 14.811,8.783 14.200 C 8.783 13.589,8.791 13.516,8.892 13.220 C 9.072 12.685,9.288 12.343,9.716 11.916 C 10.433 11.199,11.066 10.950,12.100 10.975 C 12.572 10.987,12.710 11.006,12.980 11.094 M11.961 12.261 C 11.595 12.426,11.520 12.604,11.519 13.308 C 11.519 13.612,11.508 13.900,11.495 13.949 C 11.479 14.009,11.309 14.137,10.977 14.341 C 10.455 14.661,10.356 14.759,10.284 15.025 C 10.144 15.545,10.617 16.037,11.144 15.919 C 11.378 15.867,12.273 15.320,12.497 15.092 C 12.713 14.874,12.896 14.527,12.961 14.216 C 12.988 14.083,13.001 13.735,12.993 13.347 C 12.981 12.746,12.973 12.691,12.887 12.570 C 12.659 12.250,12.272 12.121,11.961 12.261 M20.480 15.462 C 20.182 18.631,20.157 18.849,20.034 19.291 C 19.715 20.443,18.839 21.015,17.112 21.199 C 16.584 21.255,7.416 21.255,6.888 21.199 C 4.913 20.988,4.083 20.311,3.842 18.712 C 3.791 18.372,3.243 12.586,3.261 12.567 C 3.267 12.560,3.344 12.599,3.431 12.654 C 3.721 12.837,4.862 13.392,5.413 13.618 C 5.712 13.740,6.241 13.933,6.588 14.047 C 6.936 14.160,7.233 14.273,7.249 14.297 C 7.266 14.320,7.279 14.436,7.279 14.554 C 7.280 14.671,7.316 14.943,7.360 15.158 C 7.686 16.759,8.816 18.071,10.376 18.657 C 11.336 19.018,12.661 19.019,13.616 18.660 C 14.949 18.158,15.958 17.151,16.457 15.824 C 16.583 15.490,16.720 14.839,16.721 14.574 C 16.722 14.220,16.713 14.228,17.293 14.041 C 17.583 13.947,18.046 13.783,18.323 13.675 C 18.811 13.486,20.135 12.848,20.540 12.607 C 20.650 12.542,20.744 12.492,20.749 12.496 C 20.753 12.500,20.632 13.835,20.480 15.462 " stroke="none" fill-rule="evenodd" fill="black"></path></svg>