<svg width="24" height="24" viewBox="0 0 24 24" fill="none" xmlns="http://www.w3.org/2000/svg"><path d="M6.060 1.455 C 5.485 1.581,4.928 1.902,4.544 2.326 C 4.286 2.611,4.031 3.103,3.935 3.500 C 3.844 3.874,3.844 4.500,3.936 4.837 C 4.030 5.183,4.177 5.461,4.838 6.540 L 5.401 7.460 5.292 7.540 C 4.963 7.779,4.830 8.074,4.911 8.379 C 4.936 8.472,5.301 9.113,5.722 9.804 C 6.144 10.495,6.578 11.207,6.688 11.387 L 6.888 11.715 6.769 11.887 C 6.587 12.153,6.370 12.607,6.241 12.992 C 5.844 14.176,5.932 15.410,6.500 16.620 C 7.057 17.806,8.596 20.901,8.739 21.120 C 9.076 21.640,9.478 21.999,10.034 22.278 C 10.454 22.488,10.830 22.570,11.400 22.575 C 12.191 22.581,12.562 22.454,13.601 21.821 C 13.919 21.626,14.687 21.160,15.307 20.784 C 19.610 18.173,19.630 18.160,19.933 17.929 C 20.390 17.579,20.804 16.963,21.000 16.340 C 21.137 15.904,21.155 15.230,21.043 14.746 C 20.940 14.298,20.732 13.853,20.434 13.440 C 19.451 12.079,17.531 9.529,17.327 9.312 C 16.417 8.347,15.187 7.827,13.848 7.842 L 13.307 7.849 12.374 6.314 C 11.861 5.470,11.384 4.710,11.315 4.625 C 11.073 4.331,10.724 4.278,10.346 4.480 C 10.223 4.546,10.115 4.600,10.107 4.600 C 10.099 4.600,9.806 4.128,9.456 3.551 C 8.926 2.678,8.770 2.451,8.519 2.197 C 8.189 1.864,7.762 1.619,7.300 1.498 C 6.969 1.411,6.356 1.390,6.060 1.455 M6.800 2.920 C 7.096 2.976,7.345 3.111,7.515 3.306 C 7.662 3.474,8.800 5.317,8.800 5.384 C 8.799 5.421,6.747 6.681,6.691 6.678 C 6.648 6.676,5.515 4.797,5.432 4.590 C 5.283 4.217,5.383 3.638,5.650 3.335 C 5.799 3.165,6.074 3.000,6.317 2.935 C 6.549 2.872,6.548 2.872,6.800 2.920 M11.165 7.203 C 11.766 8.188,11.803 8.261,11.733 8.308 C 11.692 8.336,10.830 8.862,9.819 9.478 C 8.403 10.341,7.970 10.587,7.936 10.549 C 7.880 10.488,6.733 8.600,6.701 8.516 C 6.685 8.475,6.712 8.438,6.781 8.407 C 6.933 8.338,10.238 6.325,10.379 6.216 C 10.444 6.166,10.503 6.130,10.510 6.136 C 10.516 6.143,10.811 6.623,11.165 7.203 M14.509 9.383 C 15.204 9.527,15.738 9.819,16.204 10.311 C 16.449 10.570,18.911 13.844,19.349 14.493 C 19.516 14.741,19.640 15.145,19.640 15.441 C 19.640 15.885,19.429 16.373,19.109 16.668 C 18.842 16.914,18.775 16.941,18.705 16.831 C 18.674 16.781,18.392 16.317,18.079 15.800 C 17.766 15.283,17.462 14.808,17.405 14.745 C 17.100 14.411,16.507 14.456,16.253 14.834 C 16.140 15.001,16.098 15.273,16.157 15.451 C 16.182 15.527,16.491 16.062,16.843 16.641 C 17.195 17.220,17.469 17.706,17.452 17.722 C 17.434 17.738,17.150 17.915,16.821 18.115 C 16.355 18.399,16.212 18.468,16.177 18.430 C 16.153 18.402,15.867 17.939,15.541 17.400 C 15.216 16.861,14.903 16.368,14.845 16.305 C 14.540 15.971,13.947 16.016,13.693 16.394 C 13.580 16.561,13.538 16.833,13.597 17.011 C 13.622 17.087,13.930 17.622,14.282 18.200 C 14.634 18.778,14.912 19.261,14.899 19.274 C 14.887 19.286,14.603 19.463,14.268 19.666 C 13.806 19.947,13.650 20.024,13.616 19.988 C 13.592 19.962,13.307 19.499,12.981 18.960 C 12.656 18.421,12.343 17.928,12.285 17.865 C 11.980 17.531,11.387 17.576,11.133 17.954 C 11.020 18.121,10.978 18.393,11.037 18.571 C 11.062 18.647,11.371 19.182,11.723 19.761 C 12.206 20.555,12.351 20.822,12.312 20.849 C 12.189 20.934,11.907 21.039,11.679 21.083 C 11.168 21.184,10.571 20.976,10.193 20.566 C 10.005 20.363,9.851 20.073,8.883 18.098 C 8.280 16.867,7.746 15.760,7.696 15.638 C 7.193 14.404,7.630 12.782,8.684 11.973 C 8.988 11.740,12.153 9.820,12.540 9.634 C 13.166 9.334,13.849 9.247,14.509 9.383 " stroke="none" fill-rule="evenodd" fill="black"></path></svg>