<svg width="24" height="24" viewBox="0 0 24 24" fill="none" xmlns="http://www.w3.org/2000/svg"><path d="M19.900 1.356 C 19.582 1.449,18.996 1.702,18.260 2.063 C 14.710 3.805,10.367 7.142,8.059 9.900 C 7.501 10.567,6.037 12.422,5.897 12.640 C 5.752 12.864,5.751 12.865,5.526 12.893 C 5.206 12.932,4.636 13.117,4.220 13.316 C 2.802 13.997,1.838 15.267,1.580 16.795 C 1.450 17.568,1.232 19.777,1.255 20.100 C 1.353 21.516,2.482 22.645,3.900 22.745 C 4.321 22.775,7.000 22.478,7.535 22.342 C 9.389 21.872,10.766 20.369,11.100 18.452 C 11.133 18.263,11.160 18.105,11.160 18.099 C 11.160 18.093,11.243 18.039,11.344 17.980 C 11.537 17.866,12.935 16.762,13.913 15.949 C 17.036 13.356,20.722 8.395,22.333 4.616 C 22.456 4.328,22.575 4.013,22.597 3.916 C 22.660 3.647,22.648 3.083,22.576 2.837 C 22.366 2.122,21.759 1.524,21.058 1.341 C 20.747 1.260,20.203 1.267,19.900 1.356 M20.782 2.824 C 21.117 2.983,21.236 3.353,21.078 3.749 C 20.073 6.276,17.765 9.779,15.291 12.532 C 15.038 12.814,14.822 13.035,14.811 13.024 C 14.800 13.014,14.742 12.864,14.681 12.692 C 14.508 12.199,14.348 11.876,14.068 11.453 C 13.387 10.425,12.410 9.676,11.224 9.275 L 10.828 9.141 11.144 8.846 C 13.325 6.808,16.502 4.583,18.900 3.415 C 20.223 2.770,20.491 2.686,20.782 2.824 M10.420 10.600 C 11.731 10.903,12.816 11.881,13.264 13.165 C 13.381 13.499,13.480 13.973,13.480 14.200 C 13.480 14.385,13.444 14.419,12.003 15.574 L 11.025 16.357 10.940 16.089 C 10.828 15.737,10.606 15.300,10.348 14.923 C 10.099 14.560,9.526 13.974,9.140 13.687 C 8.817 13.447,8.169 13.117,7.820 13.015 C 7.688 12.976,7.574 12.940,7.566 12.934 C 7.548 12.922,8.597 11.593,9.134 10.946 L 9.527 10.473 9.814 10.499 C 9.971 10.514,10.244 10.559,10.420 10.600 M7.117 14.384 C 8.276 14.667,9.306 15.687,9.588 16.831 C 9.693 17.257,9.683 18.134,9.569 18.531 C 9.240 19.678,8.357 20.567,7.238 20.878 C 7.060 20.928,6.363 21.025,5.512 21.120 C 3.977 21.290,3.813 21.290,3.477 21.119 C 3.115 20.934,2.797 20.484,2.741 20.080 C 2.711 19.863,3.010 17.147,3.104 16.786 C 3.412 15.596,4.409 14.645,5.620 14.386 C 6.005 14.304,6.785 14.303,7.117 14.384 " stroke="none" fill-rule="evenodd" fill="black"></path></svg>