<svg width="24" height="24" viewBox="0 0 24 24" fill="none" xmlns="http://www.w3.org/2000/svg"><path d="M8.340 1.266 C 5.905 1.373,4.303 1.922,3.137 3.048 C 2.044 4.103,1.475 5.517,1.280 7.660 C 1.227 8.243,1.227 15.757,1.280 16.340 C 1.475 18.483,2.044 19.897,3.137 20.952 C 3.979 21.765,5.038 22.269,6.477 22.542 C 7.380 22.713,7.733 22.728,11.359 22.748 C 15.896 22.773,16.792 22.727,18.075 22.404 C 20.485 21.798,21.941 20.246,22.462 17.726 C 22.646 16.835,22.684 16.356,22.708 14.596 C 22.732 12.810,22.727 12.749,22.532 12.518 C 22.213 12.139,21.572 12.200,21.330 12.632 C 21.243 12.786,21.240 12.824,21.239 13.945 C 21.238 16.483,21.073 17.649,20.560 18.749 C 19.920 20.118,18.787 20.826,16.720 21.148 C 16.299 21.214,15.896 21.220,11.980 21.220 C 8.048 21.220,7.661 21.214,7.221 21.147 C 5.043 20.817,3.882 20.029,3.249 18.452 C 3.012 17.862,2.844 17.069,2.762 16.160 C 2.706 15.545,2.706 8.455,2.762 7.840 C 2.912 6.175,3.318 5.036,4.037 4.271 C 4.625 3.644,5.284 3.288,6.355 3.020 C 7.146 2.822,7.543 2.789,9.420 2.764 C 11.324 2.738,11.295 2.741,11.508 2.513 C 11.623 2.391,11.720 2.155,11.720 2.000 C 11.720 1.845,11.623 1.609,11.508 1.487 C 11.299 1.262,11.284 1.260,9.900 1.257 C 9.196 1.255,8.494 1.259,8.340 1.266 M20.552 1.282 C 19.967 1.371,18.345 2.171,16.920 3.074 C 14.742 4.453,12.641 6.159,11.257 7.669 C 10.873 8.089,9.466 9.813,9.086 10.330 C 8.952 10.513,8.895 10.560,8.808 10.560 C 8.637 10.560,8.135 10.711,7.819 10.857 C 7.210 11.138,6.668 11.571,6.278 12.089 C 5.908 12.580,5.666 13.116,5.559 13.680 C 5.456 14.226,5.273 16.151,5.293 16.480 C 5.351 17.428,6.008 18.292,6.907 18.603 C 7.386 18.768,7.603 18.772,8.841 18.641 C 10.139 18.503,10.471 18.445,10.938 18.276 C 11.890 17.932,12.779 17.075,13.187 16.110 C 13.304 15.833,13.384 15.553,13.500 15.017 C 13.510 14.971,13.560 14.915,13.611 14.891 C 13.707 14.848,15.027 13.813,15.660 13.284 C 18.052 11.289,20.892 7.544,22.235 4.610 C 22.674 3.653,22.760 3.313,22.684 2.845 C 22.520 1.833,21.560 1.129,20.552 1.282 M21.088 2.867 C 21.244 3.017,21.233 3.166,21.035 3.632 C 20.227 5.532,18.448 8.217,16.700 10.172 L 16.350 10.564 16.191 10.192 C 15.889 9.484,15.362 8.811,14.757 8.361 C 14.427 8.115,13.841 7.798,13.569 7.717 C 13.475 7.689,13.403 7.655,13.409 7.640 C 13.455 7.531,14.806 6.403,15.660 5.762 C 17.308 4.523,18.917 3.545,20.320 2.929 C 20.773 2.729,20.931 2.717,21.088 2.867 M12.815 9.039 C 13.338 9.172,13.726 9.402,14.164 9.838 C 14.492 10.165,14.574 10.274,14.733 10.600 C 14.912 10.963,15.004 11.259,15.057 11.631 C 15.086 11.838,15.130 11.792,14.160 12.571 C 13.775 12.880,13.431 13.157,13.396 13.187 C 13.340 13.234,13.320 13.209,13.225 12.964 C 12.995 12.379,12.326 11.562,11.760 11.174 C 11.559 11.036,11.049 10.773,10.851 10.704 L 10.722 10.659 10.944 10.380 C 11.066 10.226,11.375 9.844,11.630 9.530 L 12.093 8.960 12.300 8.960 C 12.414 8.960,12.646 8.995,12.815 9.039 M10.280 12.117 C 10.899 12.331,11.469 12.830,11.750 13.404 C 11.945 13.803,12.002 14.061,12.009 14.566 C 12.017 15.245,11.800 15.758,11.280 16.284 C 10.891 16.677,10.549 16.873,10.070 16.978 C 9.737 17.050,8.019 17.240,7.708 17.239 C 7.252 17.237,6.856 16.903,6.783 16.460 C 6.751 16.260,6.979 14.103,7.065 13.800 C 7.296 12.984,8.035 12.270,8.866 12.061 C 9.216 11.973,9.944 12.002,10.280 12.117 " stroke="none" fill-rule="evenodd" fill="black"></path></svg>