<svg width="24" height="24" viewBox="0 0 24 24" fill="none" xmlns="http://www.w3.org/2000/svg"><path d="M6.388 1.285 C 5.756 1.346,5.091 1.615,4.532 2.036 C 3.886 2.522,3.400 3.259,3.183 4.080 C 3.054 4.567,3.065 5.065,3.297 9.209 C 3.420 11.403,3.520 13.249,3.520 13.311 C 3.520 13.406,3.490 13.439,3.330 13.516 C 2.188 14.069,1.567 15.318,1.817 16.561 C 1.984 17.393,2.561 18.120,3.340 18.483 C 3.878 18.733,3.841 18.730,6.405 18.749 L 8.751 18.766 8.770 19.433 C 8.793 20.184,8.839 20.405,9.075 20.900 C 9.483 21.752,10.276 22.409,11.180 22.643 C 11.421 22.705,11.624 22.726,12.000 22.726 C 12.376 22.726,12.579 22.705,12.820 22.643 C 13.908 22.361,14.803 21.486,15.124 20.393 C 15.191 20.164,15.214 19.954,15.230 19.430 L 15.249 18.760 17.315 18.760 C 18.451 18.759,19.534 18.742,19.722 18.720 C 20.425 18.640,20.943 18.384,21.462 17.863 C 21.969 17.354,22.185 16.867,22.227 16.140 C 22.287 15.073,21.711 14.057,20.770 13.570 C 20.515 13.438,20.480 13.406,20.480 13.308 C 20.480 13.247,20.580 11.402,20.703 9.208 C 20.935 5.065,20.946 4.567,20.817 4.080 C 20.600 3.259,20.114 2.522,19.468 2.036 C 18.879 1.592,18.261 1.350,17.539 1.282 C 17.007 1.231,6.915 1.234,6.388 1.285 M7.240 4.941 C 7.240 7.292,7.239 7.286,7.452 7.513 C 7.776 7.860,8.397 7.784,8.630 7.368 L 8.720 7.209 8.720 4.985 L 8.720 2.760 9.976 2.760 L 11.232 2.760 11.246 3.490 C 11.259 4.171,11.266 4.230,11.353 4.369 C 11.710 4.943,12.576 4.812,12.716 4.162 C 12.740 4.049,12.760 3.687,12.760 3.358 L 12.760 2.760 15.144 2.760 C 17.190 2.760,17.563 2.769,17.774 2.823 C 18.628 3.044,19.339 3.866,19.421 4.728 C 19.434 4.867,19.345 6.771,19.223 8.976 C 19.100 11.173,19.000 13.032,19.000 13.106 L 19.000 13.240 12.000 13.240 L 5.000 13.240 5.000 13.110 C 5.000 13.038,4.900 11.180,4.777 8.980 C 4.654 6.770,4.565 4.867,4.579 4.728 C 4.625 4.237,4.876 3.750,5.281 3.359 C 5.716 2.940,6.165 2.767,6.830 2.763 L 7.240 2.760 7.240 4.941 M20.055 14.880 C 20.285 14.997,20.538 15.268,20.654 15.520 C 20.772 15.778,20.767 16.233,20.644 16.488 C 20.532 16.719,20.221 17.016,19.969 17.133 C 19.782 17.219,19.750 17.220,17.040 17.240 C 14.031 17.262,14.197 17.248,13.953 17.506 C 13.776 17.693,13.760 17.793,13.760 18.693 C 13.760 19.640,13.729 19.906,13.583 20.224 C 13.380 20.668,12.950 21.047,12.503 21.177 C 12.227 21.258,11.773 21.258,11.497 21.177 C 11.050 21.047,10.620 20.668,10.417 20.224 C 10.271 19.906,10.240 19.640,10.240 18.693 C 10.240 17.793,10.224 17.693,10.047 17.506 C 9.802 17.247,9.974 17.262,6.920 17.240 L 4.140 17.220 3.968 17.128 C 3.513 16.885,3.264 16.494,3.262 16.022 C 3.262 15.867,3.285 15.672,3.314 15.589 C 3.384 15.388,3.639 15.072,3.822 14.959 C 4.156 14.753,3.715 14.763,12.060 14.772 L 19.860 14.780 20.055 14.880 " stroke="none" fill-rule="evenodd" fill="black"></path></svg>