<svg width="24" height="24" viewBox="0 0 24 24" fill="none" xmlns="http://www.w3.org/2000/svg"><path d="M6.498 1.280 C 5.499 1.366,4.755 1.685,4.197 2.267 C 3.746 2.738,3.468 3.308,3.337 4.031 C 3.253 4.496,3.253 5.504,3.337 5.969 C 3.560 7.201,4.271 8.085,5.362 8.483 C 6.069 8.741,6.048 8.740,10.000 8.740 C 13.234 8.740,13.615 8.733,13.948 8.670 C 15.252 8.423,16.132 7.694,16.516 6.540 C 16.581 6.342,16.648 6.085,16.663 5.970 L 16.690 5.760 17.195 5.760 C 18.083 5.761,18.707 5.898,18.971 6.151 C 19.213 6.382,19.220 6.464,19.220 9.000 C 19.220 11.059,19.213 11.323,19.151 11.521 C 19.031 11.909,18.756 12.080,18.093 12.180 C 17.781 12.227,17.222 12.240,15.380 12.240 C 14.104 12.241,12.804 12.259,12.491 12.280 C 10.558 12.412,9.595 13.115,9.337 14.580 C 9.305 14.756,9.280 14.977,9.280 15.071 C 9.280 15.263,9.299 15.252,8.880 15.316 C 8.267 15.410,7.769 15.748,7.522 16.237 C 7.267 16.742,7.260 16.812,7.260 19.000 C 7.260 20.749,7.268 21.011,7.329 21.250 C 7.529 22.027,7.979 22.476,8.750 22.669 C 9.141 22.766,10.859 22.766,11.250 22.669 C 12.021 22.476,12.471 22.027,12.670 21.250 C 12.731 21.012,12.740 20.747,12.740 19.000 C 12.740 17.253,12.731 16.988,12.670 16.750 C 12.519 16.161,12.216 15.750,11.764 15.522 C 11.504 15.391,11.106 15.282,10.885 15.281 L 10.751 15.280 10.780 15.010 C 10.836 14.480,11.052 14.133,11.420 13.981 C 11.880 13.791,11.901 13.790,14.960 13.758 C 18.205 13.725,18.445 13.707,19.160 13.450 C 19.675 13.265,20.158 12.858,20.392 12.413 C 20.687 11.850,20.757 11.197,20.757 9.000 C 20.757 6.310,20.647 5.727,20.021 5.098 C 19.500 4.575,18.851 4.357,17.592 4.280 C 17.233 4.259,16.884 4.241,16.815 4.240 C 16.695 4.240,16.689 4.232,16.663 4.030 C 16.621 3.709,16.415 3.132,16.231 2.820 C 15.888 2.238,15.306 1.761,14.644 1.519 C 13.953 1.267,13.995 1.270,10.260 1.259 C 8.390 1.253,6.697 1.263,6.498 1.280 M6.864 2.794 C 6.815 2.873,6.632 3.651,6.579 4.010 C 6.546 4.224,6.520 4.670,6.520 5.000 C 6.520 5.330,6.546 5.776,6.579 5.990 C 6.632 6.349,6.815 7.127,6.864 7.206 C 6.897 7.259,6.528 7.244,6.227 7.181 C 5.448 7.016,4.983 6.553,4.820 5.780 C 4.744 5.418,4.744 4.584,4.819 4.227 C 4.982 3.457,5.445 2.986,6.200 2.823 C 6.491 2.760,6.896 2.742,6.864 2.794 M11.529 3.100 C 11.788 4.298,11.788 5.703,11.529 6.900 L 11.460 7.220 10.000 7.220 L 8.540 7.220 8.471 6.900 C 8.285 6.040,8.221 4.829,8.318 4.020 C 8.362 3.657,8.513 2.846,8.547 2.790 C 8.557 2.773,9.217 2.764,10.013 2.770 L 11.460 2.780 11.529 3.100 M13.780 2.820 C 14.553 2.983,15.016 3.448,15.181 4.227 C 15.256 4.584,15.256 5.418,15.180 5.780 C 15.017 6.553,14.552 7.016,13.773 7.181 C 13.472 7.244,13.103 7.259,13.136 7.206 C 13.185 7.127,13.368 6.349,13.421 5.990 C 13.454 5.776,13.480 5.330,13.480 5.000 C 13.480 4.670,13.454 4.224,13.421 4.010 C 13.368 3.651,13.185 2.873,13.136 2.794 C 13.103 2.740,13.473 2.756,13.780 2.820 M10.999 16.830 C 11.076 16.869,11.161 16.945,11.189 17.000 C 11.227 17.076,11.239 17.561,11.239 19.000 C 11.239 20.439,11.227 20.924,11.189 21.000 C 11.083 21.211,10.941 21.240,10.000 21.240 C 9.059 21.240,8.917 21.211,8.811 21.000 C 8.739 20.856,8.739 17.144,8.811 17.000 C 8.917 16.789,9.059 16.760,10.000 16.760 C 10.739 16.760,10.880 16.770,10.999 16.830 " stroke="none" fill-rule="evenodd" fill="black"></path></svg>