<svg width="24" height="24" viewBox="0 0 24 24" fill="none" xmlns="http://www.w3.org/2000/svg"><path d="M15.280 1.268 C 14.378 1.315,13.453 1.590,12.657 2.046 C 10.392 3.345,9.259 6.022,9.900 8.561 C 10.196 9.730,10.834 10.776,11.724 11.549 C 13.484 13.079,15.956 13.426,18.090 12.444 C 19.406 11.838,20.555 10.605,21.064 9.253 C 21.169 8.974,21.337 8.381,21.380 8.140 C 21.485 7.541,21.467 6.565,21.339 5.936 C 20.767 3.126,18.159 1.116,15.280 1.268 M16.716 2.897 C 17.482 3.110,18.119 3.481,18.679 4.041 C 19.239 4.601,19.611 5.240,19.822 6.004 C 20.016 6.705,19.996 7.771,19.777 8.427 C 19.546 9.118,19.224 9.651,18.722 10.173 C 17.267 11.687,14.924 11.941,13.172 10.776 C 11.819 9.876,11.050 8.238,11.239 6.662 C 11.367 5.601,11.805 4.711,12.553 3.992 C 13.203 3.367,13.943 2.982,14.805 2.818 C 15.286 2.727,16.246 2.767,16.716 2.897 M5.947 12.563 C 4.660 12.702,3.511 13.503,2.940 14.660 C 2.146 16.271,2.576 18.223,3.971 19.340 C 5.614 20.653,8.028 20.388,9.340 18.749 C 10.454 17.356,10.454 15.365,9.341 13.973 C 8.528 12.957,7.243 12.423,5.947 12.563 M6.942 14.101 C 7.353 14.205,7.674 14.393,8.000 14.720 C 8.473 15.192,8.680 15.693,8.680 16.360 C 8.680 17.027,8.473 17.526,7.999 17.999 C 7.526 18.473,7.027 18.680,6.360 18.680 C 5.693 18.680,5.192 18.473,4.720 18.000 C 4.247 17.528,4.040 17.027,4.040 16.360 C 4.040 15.693,4.247 15.192,4.720 14.720 C 5.040 14.399,5.364 14.207,5.760 14.103 C 6.052 14.026,6.645 14.025,6.942 14.101 M16.200 16.164 C 15.863 16.204,15.421 16.328,15.180 16.450 C 14.331 16.881,13.688 17.653,13.431 18.548 C 13.302 18.998,13.302 19.882,13.431 20.332 C 13.658 21.121,14.144 21.770,14.859 22.237 C 15.391 22.584,15.905 22.727,16.620 22.727 C 17.513 22.727,18.235 22.452,18.865 21.871 C 19.280 21.489,19.651 20.885,19.807 20.340 C 19.939 19.878,19.939 19.002,19.807 18.540 C 19.478 17.387,18.487 16.448,17.360 16.220 C 16.985 16.144,16.545 16.123,16.200 16.164 M17.373 17.790 C 17.719 17.953,18.100 18.326,18.252 18.652 C 18.587 19.366,18.450 20.151,17.894 20.712 C 17.726 20.881,17.555 21.005,17.372 21.092 C 17.113 21.214,17.077 21.220,16.620 21.220 C 16.162 21.220,16.128 21.214,15.867 21.091 C 15.521 20.927,15.140 20.553,14.988 20.228 C 14.655 19.518,14.790 18.729,15.339 18.176 C 15.750 17.761,16.069 17.636,16.680 17.651 C 17.058 17.661,17.127 17.675,17.373 17.790 " stroke="none" fill-rule="evenodd" fill="black"></path></svg>