<svg width="24" height="24" viewBox="0 0 24 24" fill="none" xmlns="http://www.w3.org/2000/svg"><path d="M11.320 1.281 C 7.041 1.525,3.252 4.409,1.843 8.497 C 1.180 10.418,1.082 12.560,1.564 14.550 C 2.505 18.428,5.572 21.495,9.450 22.436 C 11.106 22.837,12.894 22.837,14.550 22.436 C 18.428 21.495,21.495 18.428,22.436 14.550 C 22.837 12.894,22.837 11.106,22.436 9.450 C 21.425 5.282,17.985 2.095,13.742 1.398 C 13.334 1.331,12.074 1.229,11.880 1.247 C 11.847 1.250,11.595 1.265,11.320 1.281 M13.146 2.822 C 14.201 2.960,15.125 3.237,16.060 3.696 C 18.877 5.079,20.768 7.722,21.178 10.854 C 21.301 11.786,21.244 13.026,21.034 13.998 C 20.745 15.343,20.003 16.855,19.121 17.900 C 18.247 18.935,17.240 19.726,16.060 20.304 C 14.761 20.940,13.462 21.240,12.000 21.240 C 10.538 21.240,9.236 20.940,7.940 20.304 C 5.123 18.921,3.232 16.278,2.822 13.146 C 2.699 12.214,2.756 10.974,2.966 10.002 C 3.177 9.020,3.703 7.775,4.268 6.920 C 5.750 4.677,8.131 3.188,10.820 2.823 C 11.380 2.746,12.569 2.746,13.146 2.822 M9.900 5.703 C 9.615 5.851,9.480 6.069,9.480 6.380 C 9.480 6.622,9.556 6.786,9.755 6.978 C 9.846 7.065,9.920 7.155,9.920 7.178 C 9.920 7.201,9.100 8.039,8.098 9.040 C 6.212 10.923,5.982 11.187,5.800 11.668 C 5.690 11.957,5.653 12.459,5.718 12.772 C 5.799 13.161,6.039 13.579,6.432 14.020 C 6.892 14.534,8.913 16.534,9.198 16.757 C 9.998 17.382,10.899 17.454,11.742 16.960 C 12.060 16.774,16.027 12.838,16.155 12.581 C 16.347 12.197,16.348 11.732,16.157 11.352 C 16.039 11.115,10.765 5.829,10.537 5.719 C 10.342 5.624,10.065 5.617,9.900 5.703 M13.969 11.243 C 13.953 11.256,12.752 11.316,11.300 11.377 C 9.848 11.437,8.453 11.496,8.200 11.507 L 7.740 11.529 9.380 9.885 L 11.020 8.240 12.509 9.729 C 13.328 10.548,13.985 11.229,13.969 11.243 M12.500 14.200 C 11.059 15.642,10.873 15.800,10.619 15.800 C 10.369 15.800,10.214 15.670,8.911 14.370 C 8.191 13.652,7.612 13.055,7.623 13.044 C 7.642 13.024,13.018 12.775,13.640 12.765 L 13.940 12.760 12.500 14.200 M16.114 13.521 C 15.735 13.721,14.884 14.982,14.699 15.618 C 14.591 15.988,14.629 16.507,14.786 16.840 C 14.940 17.165,15.106 17.373,15.372 17.574 C 15.643 17.778,15.870 17.873,16.195 17.919 C 17.219 18.064,18.145 17.367,18.293 16.340 C 18.348 15.959,18.268 15.571,18.041 15.110 C 17.739 14.497,17.039 13.606,16.771 13.494 C 16.588 13.417,16.286 13.430,16.114 13.521 M16.659 15.683 C 16.843 16.034,16.855 16.217,16.702 16.349 C 16.482 16.537,16.120 16.391,16.120 16.113 C 16.120 15.958,16.401 15.400,16.480 15.400 C 16.496 15.400,16.577 15.528,16.659 15.683 " stroke="none" fill-rule="evenodd" fill="black"></path></svg>