<svg width="24" height="24" viewBox="0 0 24 24" fill="none" xmlns="http://www.w3.org/2000/svg"><path d="M8.080 1.282 C 4.008 1.495,1.895 3.296,1.383 6.991 C 1.270 7.803,1.242 8.816,1.242 12.000 C 1.242 16.504,1.302 17.273,1.760 18.650 C 2.532 20.963,4.206 22.226,7.027 22.622 C 7.786 22.728,8.902 22.759,12.000 22.759 C 15.098 22.759,16.214 22.728,16.973 22.622 C 19.443 22.275,20.996 21.288,21.897 19.490 C 22.379 18.530,22.638 17.369,22.720 15.807 C 22.771 14.838,22.771 9.162,22.720 8.193 C 22.657 6.998,22.521 6.191,22.242 5.356 C 21.632 3.531,20.469 2.367,18.650 1.760 C 17.788 1.473,17.023 1.344,15.806 1.280 C 14.952 1.235,8.952 1.237,8.080 1.282 M16.800 2.854 C 19.586 3.316,20.714 4.454,21.148 7.240 C 21.214 7.661,21.220 8.064,21.220 12.000 C 21.220 15.936,21.214 16.339,21.148 16.760 C 20.712 19.558,19.558 20.712,16.760 21.148 C 16.339 21.214,15.936 21.220,12.000 21.220 C 8.064 21.220,7.661 21.214,7.240 21.148 C 4.450 20.713,3.283 19.551,2.854 16.780 C 2.785 16.335,2.780 15.989,2.780 12.000 C 2.780 7.247,2.776 7.337,3.044 6.288 C 3.557 4.282,4.722 3.274,6.960 2.900 C 7.690 2.777,8.048 2.769,12.200 2.777 C 15.963 2.784,16.422 2.791,16.800 2.854 M9.681 4.886 C 9.279 5.005,9.064 5.383,9.167 5.791 C 9.202 5.931,9.277 6.041,9.484 6.257 L 9.754 6.540 7.564 8.740 C 6.319 9.990,5.295 11.052,5.192 11.200 C 4.813 11.740,4.680 12.125,4.680 12.680 C 4.680 13.223,4.838 13.686,5.192 14.180 C 5.387 14.453,8.345 17.427,8.727 17.734 C 9.320 18.212,9.799 18.381,10.480 18.351 C 11.147 18.323,11.560 18.121,12.274 17.475 C 13.024 16.797,16.659 13.111,16.768 12.920 C 16.910 12.668,16.975 12.357,16.946 12.074 C 16.890 11.543,17.043 11.716,13.545 8.210 C 11.783 6.445,10.288 4.975,10.221 4.944 C 10.045 4.861,9.840 4.839,9.681 4.886 M12.776 9.556 L 14.692 11.472 14.396 11.496 C 14.233 11.509,12.615 11.583,10.800 11.660 C 8.985 11.737,7.302 11.811,7.060 11.824 L 6.620 11.848 8.720 9.744 C 9.875 8.587,10.829 7.640,10.840 7.640 C 10.851 7.640,11.722 8.502,12.776 9.556 M12.760 14.854 C 10.791 16.816,10.715 16.880,10.358 16.880 C 9.974 16.880,9.859 16.786,8.110 15.044 C 7.213 14.151,6.480 13.402,6.480 13.379 C 6.480 13.341,13.141 13.018,14.200 13.006 L 14.620 13.001 12.760 14.854 M16.969 14.146 C 16.821 14.219,16.482 14.592,16.143 15.053 C 15.495 15.933,15.199 16.678,15.255 17.282 C 15.329 18.082,15.865 18.768,16.636 19.050 C 16.954 19.167,17.646 19.167,17.964 19.050 C 18.948 18.690,19.528 17.671,19.304 16.700 C 19.219 16.335,18.867 15.633,18.541 15.180 C 18.144 14.627,17.786 14.221,17.630 14.147 C 17.451 14.063,17.140 14.062,16.969 14.146 M17.603 16.471 C 17.838 16.880,17.891 17.051,17.841 17.235 C 17.762 17.528,17.446 17.717,17.160 17.640 C 16.895 17.569,16.688 17.249,16.747 17.003 C 16.782 16.858,16.981 16.467,17.151 16.211 L 17.295 15.994 17.366 16.087 C 17.405 16.138,17.511 16.311,17.603 16.471 " stroke="none" fill-rule="evenodd" fill="black"></path></svg>