<svg width="24" height="24" viewBox="0 0 24 24" fill="none" xmlns="http://www.w3.org/2000/svg"><path d="M4.380 2.307 C 2.714 2.515,1.669 3.533,1.419 5.190 C 1.369 5.523,1.360 6.725,1.360 13.404 L 1.360 21.228 1.056 21.251 C 0.540 21.290,0.267 21.552,0.267 22.007 C 0.267 22.203,0.286 22.270,0.383 22.408 C 0.448 22.499,0.572 22.610,0.660 22.656 L 0.820 22.740 11.880 22.751 C 19.826 22.758,23.000 22.749,23.154 22.717 C 23.722 22.600,23.933 21.893,23.522 21.482 C 23.297 21.257,23.175 21.240,21.762 21.240 L 20.519 21.240 20.530 19.734 L 20.540 18.228 20.740 18.160 C 21.685 17.838,22.442 17.010,22.667 16.051 C 22.731 15.778,22.740 15.552,22.739 14.200 C 22.739 12.533,22.726 12.407,22.504 11.905 C 22.183 11.179,21.486 10.540,20.745 10.292 C 20.447 10.192,20.369 10.183,19.800 10.183 C 19.231 10.183,19.153 10.192,18.855 10.292 C 17.964 10.590,17.205 11.392,16.952 12.303 C 16.869 12.604,16.864 12.698,16.862 14.180 C 16.860 15.950,16.879 16.109,17.161 16.671 C 17.508 17.364,18.190 17.958,18.870 18.162 L 19.040 18.213 19.040 19.726 L 19.040 21.240 17.040 21.240 L 15.040 21.240 15.040 13.410 C 15.040 6.797,15.031 5.521,14.982 5.200 C 14.736 3.581,13.806 2.618,12.222 2.341 C 11.920 2.289,11.339 2.281,8.185 2.286 C 6.158 2.289,4.446 2.299,4.380 2.307 M12.011 3.818 C 12.795 3.958,13.236 4.352,13.450 5.103 L 13.540 5.420 13.551 13.330 L 13.562 21.240 11.281 21.240 L 9.000 21.240 9.000 19.679 C 9.000 18.030,8.992 17.950,8.808 17.747 C 8.629 17.549,8.238 17.462,7.973 17.563 C 7.819 17.620,7.642 17.793,7.575 17.949 C 7.531 18.051,7.520 18.405,7.520 19.659 L 7.520 21.240 5.179 21.240 L 2.838 21.240 2.849 13.330 L 2.860 5.420 2.950 5.103 C 3.146 4.413,3.525 4.033,4.183 3.866 C 4.313 3.832,4.474 3.798,4.540 3.789 C 4.606 3.779,6.244 3.770,8.180 3.767 C 11.022 3.764,11.760 3.773,12.011 3.818 M5.419 7.617 C 5.012 7.861,4.944 8.468,5.287 8.788 C 5.517 9.003,5.470 9.000,8.280 9.000 C 11.052 9.000,11.040 9.001,11.253 8.808 C 11.460 8.621,11.541 8.219,11.425 7.949 C 11.358 7.793,11.181 7.620,11.027 7.563 C 10.952 7.534,10.036 7.520,8.247 7.520 L 5.580 7.521 5.419 7.617 M5.615 11.277 C 5.130 11.396,4.898 12.004,5.183 12.408 C 5.248 12.499,5.372 12.610,5.460 12.656 C 5.618 12.739,5.660 12.740,8.280 12.740 L 10.940 12.740 11.120 12.634 C 11.606 12.348,11.606 11.652,11.120 11.366 L 10.940 11.260 8.340 11.253 C 6.910 11.250,5.684 11.261,5.615 11.277 M20.223 11.703 C 20.626 11.820,21.007 12.180,21.160 12.589 C 21.239 12.801,21.242 12.876,21.231 14.275 L 21.220 15.740 21.113 15.968 C 20.977 16.259,20.699 16.537,20.408 16.673 C 20.211 16.765,20.128 16.780,19.800 16.780 C 19.472 16.780,19.389 16.765,19.192 16.673 C 18.901 16.537,18.623 16.259,18.487 15.968 L 18.380 15.740 18.369 14.275 C 18.358 12.876,18.361 12.801,18.440 12.589 C 18.708 11.873,19.484 11.488,20.223 11.703 " stroke="none" fill-rule="evenodd" fill="black"></path></svg>