<svg width="24" height="24" viewBox="0 0 24 24" fill="none" xmlns="http://www.w3.org/2000/svg"><path d="M3.720 1.280 C 2.395 1.421,1.607 2.104,1.329 3.353 C 1.265 3.636,1.260 4.160,1.260 10.000 C 1.260 15.840,1.265 16.364,1.329 16.647 C 1.575 17.754,2.225 18.415,3.311 18.663 C 3.504 18.707,3.914 18.731,4.765 18.748 L 5.951 18.770 5.970 19.535 C 5.993 20.419,6.056 20.729,6.324 21.276 C 6.598 21.832,7.143 22.314,7.735 22.521 C 8.340 22.734,8.272 22.730,11.678 22.749 C 14.901 22.766,15.520 22.747,16.020 22.620 C 17.069 22.352,17.734 21.669,18.005 20.585 C 18.065 20.344,18.091 20.068,18.108 19.515 L 18.131 18.771 19.275 18.747 C 20.087 18.731,20.498 18.707,20.689 18.663 C 21.774 18.415,22.425 17.754,22.671 16.647 C 22.735 16.364,22.740 15.840,22.740 10.000 C 22.740 4.160,22.735 3.636,22.671 3.353 C 22.421 2.230,21.770 1.579,20.647 1.329 C 20.374 1.268,20.047 1.260,17.700 1.260 C 15.353 1.260,15.026 1.268,14.753 1.329 C 14.015 1.493,13.510 1.810,13.151 2.335 C 12.790 2.862,12.683 3.313,12.651 4.430 L 12.628 5.240 12.000 5.240 L 11.372 5.240 11.349 4.430 C 11.335 3.935,11.302 3.508,11.264 3.331 C 11.072 2.438,10.568 1.809,9.795 1.495 C 9.246 1.272,9.221 1.270,6.520 1.259 C 5.145 1.253,3.885 1.262,3.720 1.280 M8.999 2.803 C 9.311 2.870,9.556 3.057,9.699 3.337 L 9.820 3.574 9.833 4.401 L 9.847 5.227 9.188 5.253 C 7.955 5.302,7.375 5.506,6.775 6.104 C 6.449 6.429,6.220 6.844,6.070 7.380 L 5.981 7.700 5.969 12.473 L 5.958 17.245 4.766 17.233 L 3.574 17.220 3.337 17.099 C 3.055 16.955,2.868 16.708,2.802 16.390 C 2.772 16.243,2.762 14.295,2.769 9.877 L 2.780 3.574 2.901 3.339 C 3.039 3.068,3.251 2.897,3.547 2.817 C 3.801 2.749,8.687 2.737,8.999 2.803 M20.663 2.901 C 20.943 3.044,21.130 3.289,21.197 3.601 C 21.258 3.886,21.258 16.114,21.197 16.399 C 21.130 16.711,20.943 16.956,20.663 17.099 L 20.426 17.220 19.274 17.233 L 18.123 17.245 18.110 12.493 C 18.097 7.766,18.097 7.738,18.010 7.415 C 17.716 6.312,17.071 5.652,16.020 5.379 C 15.720 5.301,15.106 5.243,14.567 5.241 L 14.153 5.240 14.167 4.407 L 14.180 3.574 14.301 3.339 C 14.439 3.068,14.650 2.897,14.947 2.817 C 15.099 2.775,15.703 2.766,17.783 2.772 L 20.426 2.780 20.663 2.901 M15.815 6.875 C 16.286 7.064,16.519 7.412,16.598 8.040 C 16.655 8.495,16.653 19.516,16.596 19.975 C 16.519 20.587,16.281 20.938,15.815 21.125 C 15.586 21.217,15.543 21.219,14.170 21.232 L 12.760 21.245 12.760 20.144 C 12.760 18.859,12.737 18.697,12.522 18.482 C 12.173 18.133,11.619 18.203,11.353 18.631 C 11.262 18.777,11.260 18.804,11.247 20.012 L 11.235 21.245 9.867 21.232 C 8.539 21.219,8.493 21.216,8.260 21.124 C 7.907 20.985,7.669 20.726,7.552 20.352 L 7.460 20.060 7.460 13.980 L 7.460 7.900 7.551 7.636 C 7.657 7.331,7.860 7.072,8.084 6.958 C 8.468 6.762,8.429 6.764,12.120 6.772 L 15.580 6.780 15.815 6.875 M9.815 10.278 C 9.331 10.393,9.098 11.004,9.383 11.408 C 9.447 11.499,9.572 11.610,9.660 11.656 C 9.815 11.738,9.880 11.740,11.875 11.752 C 14.208 11.765,14.281 11.759,14.519 11.521 C 14.918 11.122,14.731 10.423,14.189 10.286 C 13.980 10.234,10.031 10.226,9.815 10.278 M9.815 13.278 C 9.331 13.393,9.098 14.004,9.383 14.408 C 9.447 14.499,9.572 14.610,9.660 14.656 C 9.815 14.738,9.880 14.740,11.875 14.752 C 14.208 14.765,14.281 14.759,14.519 14.521 C 14.918 14.122,14.731 13.423,14.189 13.286 C 13.980 13.234,10.031 13.226,9.815 13.278 " stroke="none" fill-rule="evenodd" fill="black"></path></svg>