<svg width="24" height="24" viewBox="0 0 24 24" fill="none" xmlns="http://www.w3.org/2000/svg"><path d="M4.300 1.266 C 2.666 1.405,1.532 2.560,1.281 4.340 C 1.249 4.571,1.240 6.876,1.248 12.600 L 1.260 20.540 1.367 20.833 C 1.523 21.259,1.701 21.537,2.040 21.882 C 2.544 22.395,3.063 22.644,3.789 22.722 C 4.053 22.750,6.668 22.759,11.840 22.749 C 18.856 22.736,19.529 22.729,19.840 22.666 C 21.420 22.350,22.262 21.539,22.607 20.004 C 22.689 19.639,22.694 19.500,22.710 17.220 C 22.721 15.571,22.712 14.696,22.680 14.424 C 22.562 13.408,22.155 12.603,21.492 12.076 C 20.839 11.557,20.444 11.415,18.400 10.961 C 15.640 10.347,13.540 9.876,13.393 9.837 L 13.246 9.799 13.230 8.309 C 13.215 6.909,13.209 6.802,13.125 6.523 C 12.853 5.616,12.230 4.720,11.541 4.244 C 11.280 4.063,7.135 1.996,6.340 1.650 C 5.697 1.370,4.883 1.217,4.300 1.266 M5.431 2.900 C 5.948 3.074,10.563 5.361,10.803 5.563 C 11.211 5.904,11.597 6.535,11.703 7.035 C 11.749 7.257,11.759 8.445,11.759 14.270 L 11.760 21.240 7.782 21.240 C 3.837 21.240,3.801 21.239,3.578 21.156 C 3.263 21.038,2.922 20.698,2.806 20.387 L 2.719 20.153 2.730 12.287 C 2.741 5.122,2.748 4.401,2.807 4.209 C 2.998 3.599,3.341 3.134,3.747 2.935 C 4.061 2.781,4.171 2.762,4.660 2.776 C 5.013 2.786,5.165 2.810,5.431 2.900 M5.420 8.259 C 5.398 8.267,5.331 8.284,5.271 8.297 C 5.124 8.329,4.881 8.548,4.814 8.708 C 4.691 9.002,4.771 9.336,5.015 9.550 C 5.095 9.621,5.211 9.693,5.271 9.709 C 5.412 9.749,9.066 9.750,9.207 9.710 C 9.465 9.638,9.717 9.292,9.719 9.009 C 9.721 8.747,9.546 8.462,9.300 8.326 C 9.194 8.268,8.966 8.259,7.320 8.252 C 6.297 8.248,5.442 8.251,5.420 8.259 M15.250 11.807 L 16.720 12.136 16.720 13.538 C 16.719 15.055,16.703 15.198,16.504 15.513 C 16.345 15.766,16.088 15.999,15.840 16.116 C 15.649 16.206,15.568 16.220,15.220 16.220 C 14.893 16.220,14.785 16.204,14.631 16.133 C 14.361 16.008,14.139 15.818,13.974 15.569 C 13.728 15.198,13.721 15.132,13.720 13.210 C 13.720 12.258,13.733 11.480,13.750 11.479 C 13.767 11.479,14.442 11.627,15.250 11.807 M5.420 12.259 C 5.398 12.267,5.331 12.284,5.271 12.297 C 5.124 12.329,4.881 12.548,4.814 12.708 C 4.691 13.002,4.771 13.336,5.015 13.550 C 5.095 13.621,5.211 13.693,5.271 13.709 C 5.412 13.749,9.066 13.750,9.207 13.710 C 9.465 13.638,9.717 13.292,9.719 13.009 C 9.721 12.747,9.546 12.462,9.300 12.326 C 9.194 12.268,8.966 12.259,7.320 12.252 C 6.297 12.248,5.442 12.251,5.420 12.259 M18.990 12.644 C 20.010 12.880,20.351 13.031,20.694 13.398 C 20.924 13.644,21.054 13.922,21.143 14.361 C 21.232 14.804,21.207 15.087,21.048 15.410 C 20.896 15.719,20.643 15.965,20.327 16.114 C 20.131 16.205,20.048 16.220,19.720 16.220 C 19.391 16.220,19.309 16.205,19.111 16.113 C 18.809 15.971,18.522 15.696,18.377 15.411 L 18.260 15.180 18.248 13.830 C 18.242 13.088,18.247 12.480,18.258 12.480 C 18.270 12.480,18.599 12.554,18.990 12.644 M18.040 17.227 C 18.562 17.583,19.045 17.726,19.720 17.726 C 20.231 17.726,20.643 17.641,20.995 17.463 C 21.106 17.406,21.210 17.360,21.225 17.360 C 21.277 17.360,21.207 19.448,21.144 19.729 C 20.979 20.476,20.629 20.878,19.943 21.111 L 19.620 21.220 16.430 21.232 L 13.240 21.243 13.240 19.142 C 13.240 17.986,13.250 17.040,13.262 17.040 C 13.275 17.040,13.369 17.104,13.472 17.183 C 13.949 17.547,14.529 17.728,15.220 17.728 C 15.744 17.728,16.102 17.653,16.508 17.458 C 16.795 17.319,17.388 16.878,17.428 16.773 C 17.443 16.734,17.511 16.775,17.655 16.911 C 17.768 17.017,17.941 17.159,18.040 17.227 " stroke="none" fill-rule="evenodd" fill="black"></path></svg>