<svg width="24" height="24" viewBox="0 0 24 24" fill="none" xmlns="http://www.w3.org/2000/svg"><path d="M8.820 1.670 C 8.512 1.689,8.178 1.772,7.900 1.898 C 7.509 2.076,3.311 4.884,3.058 5.137 C 2.712 5.483,2.476 5.904,2.335 6.424 C 2.263 6.690,2.260 6.973,2.273 13.964 L 2.286 21.228 2.016 21.253 C 1.536 21.298,1.267 21.569,1.267 22.007 C 1.267 22.203,1.286 22.270,1.383 22.408 C 1.447 22.499,1.572 22.610,1.660 22.656 L 1.820 22.740 11.880 22.751 C 19.099 22.758,22.000 22.749,22.154 22.717 C 22.722 22.600,22.933 21.893,22.522 21.482 C 22.319 21.279,22.132 21.240,21.362 21.240 L 20.720 21.240 20.720 19.946 L 20.720 18.653 20.890 18.603 C 21.122 18.535,21.498 18.320,21.746 18.112 C 22.181 17.749,22.494 17.273,22.648 16.740 C 22.736 16.432,22.740 16.365,22.740 15.000 C 22.740 13.635,22.736 13.568,22.648 13.260 C 22.383 12.343,21.643 11.605,20.740 11.357 C 20.299 11.236,19.701 11.236,19.260 11.357 C 18.357 11.605,17.617 12.343,17.352 13.260 C 17.264 13.568,17.260 13.635,17.260 15.000 C 17.260 16.365,17.264 16.432,17.352 16.740 C 17.506 17.273,17.819 17.749,18.254 18.112 C 18.487 18.307,18.867 18.528,19.090 18.599 L 19.240 18.646 19.240 19.943 L 19.240 21.240 17.500 21.240 L 15.760 21.240 15.760 14.190 C 15.759 9.689,15.745 7.012,15.719 6.786 C 15.645 6.139,15.395 5.600,14.967 5.165 C 14.693 4.886,10.537 2.097,10.100 1.898 C 9.725 1.728,9.247 1.643,8.820 1.670 M9.375 3.209 C 9.618 3.280,13.790 6.069,13.971 6.280 C 14.251 6.607,14.240 6.456,14.240 10.027 L 14.240 13.240 9.000 13.240 L 3.760 13.240 3.760 10.027 C 3.760 6.456,3.749 6.607,4.029 6.280 C 4.195 6.087,8.369 3.285,8.600 3.212 C 8.792 3.152,9.177 3.150,9.375 3.209 M8.500 6.807 C 7.919 6.916,7.270 7.430,6.992 8.000 C 6.560 8.885,6.726 9.888,7.419 10.581 C 7.903 11.065,8.483 11.278,9.177 11.227 C 11.081 11.089,11.934 8.773,10.581 7.419 C 10.031 6.870,9.304 6.655,8.500 6.807 M9.271 8.302 C 9.911 8.569,9.911 9.431,9.271 9.698 C 9.083 9.777,8.917 9.777,8.729 9.698 C 8.101 9.436,8.084 8.600,8.700 8.316 C 8.897 8.225,9.076 8.221,9.271 8.302 M20.454 12.841 C 20.744 12.950,21.050 13.256,21.159 13.546 C 21.234 13.747,21.240 13.855,21.240 15.000 C 21.240 16.450,21.226 16.523,20.874 16.874 C 20.381 17.368,19.619 17.368,19.126 16.874 C 18.774 16.523,18.760 16.450,18.760 15.000 C 18.760 13.550,18.774 13.477,19.126 13.126 C 19.479 12.773,19.983 12.665,20.454 12.841 M14.280 18.000 L 14.280 21.240 12.022 21.240 L 9.764 21.240 9.752 19.650 L 9.740 18.060 9.640 17.886 C 9.506 17.650,9.277 17.520,9.000 17.520 C 8.723 17.520,8.494 17.650,8.360 17.886 L 8.260 18.060 8.248 19.650 L 8.236 21.240 5.998 21.240 L 3.760 21.240 3.760 18.000 L 3.760 14.760 9.020 14.760 L 14.280 14.760 14.280 18.000 " stroke="none" fill-rule="evenodd" fill="black"></path></svg>