<svg width="24" height="24" viewBox="0 0 24 24" fill="none" xmlns="http://www.w3.org/2000/svg"><path d="M6.458 1.282 C 5.077 1.375,3.955 1.893,3.253 2.761 C 2.666 3.487,2.365 4.337,2.281 5.508 C 2.256 5.845,2.241 9.010,2.240 13.644 L 2.240 21.229 1.992 21.255 C 1.533 21.303,1.267 21.579,1.267 22.007 C 1.267 22.203,1.286 22.270,1.383 22.408 C 1.447 22.499,1.572 22.610,1.660 22.656 L 1.820 22.740 11.880 22.751 C 19.099 22.758,22.000 22.749,22.154 22.717 C 22.568 22.631,22.804 22.250,22.711 21.816 C 22.639 21.479,22.296 21.240,21.882 21.240 L 21.760 21.240 21.760 13.650 C 21.759 9.012,21.744 5.845,21.719 5.508 C 21.655 4.614,21.463 3.903,21.126 3.316 C 20.406 2.060,19.220 1.400,17.469 1.280 C 16.810 1.235,7.129 1.236,6.458 1.282 M17.787 2.803 C 18.154 2.853,18.696 3.026,18.980 3.184 C 19.090 3.245,19.299 3.414,19.444 3.558 C 19.745 3.858,19.983 4.295,20.130 4.820 L 20.220 5.140 20.231 13.190 L 20.241 21.240 12.000 21.240 L 3.759 21.240 3.769 13.190 L 3.780 5.140 3.870 4.820 C 4.017 4.295,4.255 3.858,4.556 3.558 C 4.701 3.414,4.910 3.245,5.020 3.184 C 5.288 3.035,5.840 2.853,6.160 2.807 C 6.541 2.753,17.392 2.749,17.787 2.803 M6.720 6.805 C 6.458 6.909,6.269 7.200,6.269 7.500 C 6.269 7.807,6.460 8.095,6.733 8.197 C 6.806 8.225,7.428 8.240,8.500 8.240 C 9.572 8.240,10.194 8.225,10.267 8.197 C 10.540 8.095,10.731 7.807,10.731 7.500 C 10.731 7.193,10.540 6.905,10.267 6.803 C 10.120 6.747,6.861 6.749,6.720 6.805 M13.720 6.805 C 13.458 6.909,13.269 7.200,13.269 7.500 C 13.269 7.807,13.460 8.095,13.733 8.197 C 13.806 8.225,14.428 8.240,15.500 8.240 C 16.572 8.240,17.194 8.225,17.267 8.197 C 17.540 8.095,17.731 7.807,17.731 7.500 C 17.731 7.193,17.540 6.905,17.267 6.803 C 17.120 6.747,13.861 6.749,13.720 6.805 M6.815 11.278 C 6.331 11.393,6.098 12.004,6.383 12.408 C 6.447 12.499,6.572 12.610,6.660 12.656 C 6.813 12.736,6.888 12.741,8.373 12.752 C 10.166 12.766,10.287 12.753,10.519 12.521 C 10.918 12.122,10.731 11.423,10.189 11.286 C 9.981 11.234,7.029 11.227,6.815 11.278 M13.815 11.278 C 13.331 11.393,13.098 12.004,13.383 12.408 C 13.447 12.499,13.572 12.610,13.660 12.656 C 13.813 12.736,13.888 12.741,15.373 12.752 C 17.166 12.766,17.287 12.753,17.519 12.521 C 17.918 12.122,17.731 11.423,17.189 11.286 C 16.981 11.234,14.029 11.227,13.815 11.278 M6.720 15.805 C 6.458 15.909,6.269 16.200,6.269 16.500 C 6.269 16.807,6.460 17.095,6.733 17.197 C 6.806 17.225,7.428 17.240,8.500 17.240 C 9.572 17.240,10.194 17.225,10.267 17.197 C 10.540 17.095,10.731 16.807,10.731 16.500 C 10.731 16.193,10.540 15.905,10.267 15.803 C 10.120 15.747,6.861 15.749,6.720 15.805 M13.720 15.805 C 13.458 15.909,13.269 16.200,13.269 16.500 C 13.269 16.807,13.460 17.095,13.733 17.197 C 13.806 17.225,14.428 17.240,15.500 17.240 C 16.572 17.240,17.194 17.225,17.267 17.197 C 17.540 17.095,17.731 16.807,17.731 16.500 C 17.731 16.193,17.540 15.905,17.267 15.803 C 17.120 15.747,13.861 15.749,13.720 15.805 " stroke="none" fill-rule="evenodd" fill="black"></path></svg>