<svg width="24" height="24" viewBox="0 0 24 24" fill="none" xmlns="http://www.w3.org/2000/svg"><path d="M6.676 1.284 C 5.863 1.363,5.052 1.748,4.432 2.351 C 3.762 3.002,3.369 3.821,3.281 4.749 C 3.225 5.337,3.225 18.663,3.281 19.251 C 3.456 21.092,4.901 22.540,6.743 22.719 C 7.289 22.772,16.691 22.772,17.251 22.719 C 19.105 22.543,20.543 21.105,20.719 19.251 C 20.773 18.685,20.773 5.295,20.719 4.743 C 20.541 2.905,19.095 1.459,17.257 1.281 C 16.771 1.233,7.168 1.237,6.676 1.284 M17.494 2.823 C 17.629 2.858,17.848 2.943,17.980 3.012 C 18.296 3.177,18.823 3.704,18.988 4.020 C 19.222 4.468,19.240 4.614,19.240 6.060 L 19.240 7.369 19.130 7.340 C 18.799 7.254,17.951 7.243,12.000 7.243 C 6.049 7.243,5.201 7.254,4.870 7.340 L 4.760 7.369 4.760 6.060 C 4.760 4.620,4.777 4.483,5.008 4.023 C 5.165 3.713,5.697 3.173,6.000 3.018 C 6.525 2.750,6.144 2.766,11.974 2.763 C 16.663 2.760,17.276 2.767,17.494 2.823 M9.420 4.259 C 9.398 4.267,9.331 4.284,9.271 4.297 C 9.124 4.329,8.881 4.548,8.814 4.708 C 8.691 5.002,8.771 5.336,9.015 5.550 C 9.095 5.621,9.211 5.693,9.271 5.709 C 9.413 5.749,14.587 5.749,14.729 5.709 C 14.881 5.667,15.121 5.447,15.186 5.292 C 15.297 5.027,15.241 4.711,15.047 4.506 C 14.802 4.247,14.961 4.261,12.080 4.252 C 10.639 4.248,9.442 4.251,9.420 4.259 M18.840 8.834 C 18.916 8.875,19.032 8.976,19.099 9.058 L 19.220 9.207 19.220 10.500 L 19.220 11.793 19.099 11.942 C 19.032 12.024,18.916 12.125,18.840 12.166 C 18.706 12.237,18.451 12.240,12.000 12.240 C 5.549 12.240,5.294 12.237,5.160 12.166 C 5.084 12.125,4.968 12.024,4.901 11.942 L 4.780 11.793 4.780 10.500 L 4.780 9.207 4.901 9.058 C 4.968 8.976,5.084 8.875,5.160 8.834 C 5.294 8.763,5.549 8.760,12.000 8.760 C 18.451 8.760,18.706 8.763,18.840 8.834 M5.240 13.723 C 5.580 13.768,18.420 13.768,18.760 13.723 C 18.903 13.704,19.070 13.676,19.130 13.660 L 19.240 13.631 19.240 16.440 C 19.240 18.864,19.231 19.282,19.177 19.491 C 18.970 20.292,18.292 20.970,17.491 21.177 C 17.276 21.233,16.642 21.240,12.000 21.240 C 6.208 21.240,6.529 21.254,6.020 20.988 C 5.692 20.817,5.167 20.292,5.008 19.977 C 4.756 19.477,4.760 19.528,4.760 16.440 L 4.760 13.631 4.870 13.660 C 4.931 13.676,5.097 13.704,5.240 13.723 M8.276 16.482 C 7.604 16.591,7.147 17.258,7.280 17.935 C 7.397 18.533,7.886 18.929,8.506 18.929 C 9.207 18.929,9.733 18.402,9.733 17.700 C 9.733 16.919,9.058 16.354,8.276 16.482 M15.276 16.482 C 14.604 16.591,14.147 17.258,14.280 17.935 C 14.397 18.533,14.886 18.929,15.506 18.929 C 16.207 18.929,16.733 18.402,16.733 17.700 C 16.733 16.919,16.058 16.354,15.276 16.482 " stroke="none" fill-rule="evenodd" fill="black"></path></svg>