<svg width="24" height="24" viewBox="0 0 24 24" fill="none" xmlns="http://www.w3.org/2000/svg"><path d="M14.891 1.283 C 13.234 1.410,11.588 2.177,10.383 3.383 C 9.182 4.583,8.403 6.250,8.288 7.866 L 8.260 8.260 7.866 8.288 C 6.250 8.403,4.583 9.182,3.383 10.383 C 1.437 12.328,0.763 15.190,1.636 17.797 C 2.356 19.949,4.052 21.645,6.198 22.363 C 10.017 23.639,14.131 21.568,15.381 17.740 C 15.570 17.162,15.676 16.641,15.714 16.100 L 15.740 15.740 16.100 15.714 C 17.747 15.596,19.411 14.824,20.617 13.617 C 21.674 12.561,22.389 11.177,22.641 9.700 C 22.765 8.975,22.765 8.025,22.641 7.300 C 22.389 5.823,21.674 4.440,20.616 3.381 C 19.384 2.149,17.779 1.414,16.027 1.280 C 15.737 1.258,15.455 1.243,15.400 1.246 C 15.345 1.249,15.116 1.266,14.891 1.283 M16.640 2.859 C 17.638 3.079,18.549 3.533,19.274 4.172 C 20.243 5.025,20.874 6.114,21.148 7.400 C 21.250 7.881,21.250 9.119,21.148 9.600 C 20.874 10.886,20.243 11.975,19.274 12.828 C 18.369 13.626,17.146 14.145,15.975 14.228 L 15.651 14.251 15.581 13.936 C 14.977 11.203,12.797 9.023,10.064 8.419 L 9.749 8.349 9.772 8.025 C 9.841 7.055,10.238 5.975,10.830 5.148 C 11.124 4.737,11.736 4.125,12.145 3.832 C 12.864 3.317,13.671 2.984,14.600 2.817 C 15.008 2.744,16.232 2.769,16.640 2.859 M9.600 9.860 C 10.388 10.031,11.239 10.402,11.850 10.840 C 12.270 11.141,12.939 11.824,13.232 12.251 C 13.491 12.627,13.841 13.347,13.976 13.780 C 14.166 14.391,14.218 14.767,14.219 15.540 C 14.220 16.351,14.173 16.653,13.933 17.360 C 13.364 19.038,12.038 20.364,10.360 20.933 C 9.647 21.175,9.355 21.220,8.500 21.220 C 7.645 21.220,7.353 21.175,6.640 20.933 C 4.959 20.363,3.637 19.041,3.067 17.360 C 2.825 16.647,2.780 16.355,2.780 15.500 C 2.780 14.647,2.825 14.357,3.066 13.640 C 3.346 12.807,3.794 12.093,4.443 11.443 C 5.323 10.563,6.327 10.046,7.600 9.817 C 8.001 9.745,9.188 9.770,9.600 9.860 M8.265 12.298 C 8.017 12.388,7.912 12.523,7.478 13.318 L 7.067 14.070 6.314 14.479 C 5.843 14.735,5.517 14.938,5.442 15.023 C 5.169 15.335,5.201 15.785,5.516 16.051 C 5.581 16.106,5.958 16.326,6.352 16.541 L 7.070 16.932 7.475 17.679 C 7.860 18.388,7.997 18.579,8.180 18.669 C 8.437 18.796,8.755 18.752,8.973 18.561 C 9.053 18.491,9.269 18.146,9.519 17.687 L 9.933 16.930 10.686 16.521 C 11.157 16.265,11.483 16.062,11.558 15.977 C 11.831 15.665,11.799 15.215,11.484 14.949 C 11.419 14.894,11.042 14.674,10.648 14.459 L 9.930 14.068 9.525 13.321 C 9.140 12.613,9.005 12.422,8.820 12.330 C 8.670 12.254,8.424 12.240,8.265 12.298 M8.654 14.851 C 8.815 15.140,8.857 15.181,9.170 15.357 C 9.296 15.428,9.400 15.492,9.400 15.499 C 9.400 15.506,9.296 15.570,9.170 15.641 C 8.861 15.813,8.817 15.857,8.654 16.149 C 8.576 16.287,8.507 16.400,8.499 16.400 C 8.490 16.400,8.420 16.286,8.342 16.146 C 8.179 15.854,8.142 15.819,7.830 15.643 C 7.704 15.572,7.600 15.508,7.600 15.500 C 7.600 15.492,7.704 15.428,7.830 15.357 C 8.142 15.181,8.179 15.146,8.342 14.854 C 8.420 14.714,8.490 14.600,8.499 14.600 C 8.507 14.600,8.576 14.713,8.654 14.851 " stroke="none" fill-rule="evenodd" fill="black"></path></svg>