<svg width="24" height="24" viewBox="0 0 24 24" fill="none" xmlns="http://www.w3.org/2000/svg"><path d="M11.815 1.277 C 11.638 1.321,11.461 1.456,11.353 1.631 C 11.262 1.777,11.260 1.804,11.247 3.010 L 11.235 4.240 9.997 4.240 L 8.760 4.240 8.760 3.642 C 8.760 2.881,8.718 2.678,8.522 2.482 C 8.173 2.133,7.619 2.203,7.353 2.631 C 7.266 2.770,7.259 2.833,7.240 3.554 L 7.220 4.328 6.940 4.417 C 5.946 4.735,5.161 5.534,4.895 6.500 C 4.841 6.695,4.825 7.005,4.810 8.152 L 4.792 9.563 4.506 9.707 C 3.482 10.222,2.772 11.072,2.471 12.140 L 2.381 12.460 2.369 16.844 L 2.357 21.229 2.055 21.252 C 1.540 21.290,1.267 21.553,1.267 22.007 C 1.267 22.203,1.286 22.270,1.383 22.408 C 1.447 22.499,1.572 22.610,1.660 22.656 L 1.820 22.740 11.880 22.751 C 19.099 22.758,22.000 22.749,22.154 22.717 C 22.722 22.600,22.933 21.893,22.522 21.482 C 22.359 21.319,22.131 21.240,21.824 21.240 L 21.644 21.240 21.629 16.890 C 21.617 13.082,21.607 12.507,21.552 12.279 C 21.381 11.580,21.034 10.952,20.553 10.470 C 20.268 10.186,19.690 9.782,19.389 9.657 L 19.208 9.582 19.190 8.161 C 19.169 6.570,19.161 6.508,18.876 5.927 C 18.540 5.240,17.782 4.615,17.027 4.403 L 16.780 4.333 16.759 3.576 C 16.736 2.737,16.701 2.600,16.464 2.421 C 16.095 2.142,15.599 2.235,15.353 2.631 C 15.266 2.770,15.259 2.829,15.246 3.510 L 15.232 4.240 13.996 4.240 L 12.760 4.240 12.759 3.130 C 12.758 1.954,12.734 1.738,12.580 1.536 C 12.421 1.327,12.078 1.211,11.815 1.277 M16.808 5.930 C 17.024 6.037,17.175 6.149,17.331 6.317 C 17.670 6.684,17.680 6.732,17.680 8.087 L 17.680 9.240 12.000 9.240 L 6.320 9.240 6.320 8.087 C 6.320 6.748,6.332 6.685,6.650 6.337 C 6.869 6.097,7.109 5.940,7.419 5.832 C 7.606 5.767,7.928 5.763,12.062 5.771 L 16.504 5.780 16.808 5.930 M18.212 10.825 C 19.123 11.030,19.895 11.733,20.078 12.524 C 20.100 12.621,20.118 12.831,20.119 12.990 L 20.120 13.280 19.930 13.280 C 19.256 13.282,18.541 13.761,18.199 14.439 C 18.058 14.720,18.034 14.828,18.003 15.345 C 17.971 15.871,17.919 16.018,17.707 16.176 C 17.625 16.237,17.535 16.260,17.380 16.260 C 17.225 16.260,17.135 16.237,17.053 16.176 C 16.841 16.018,16.789 15.871,16.757 15.345 C 16.741 15.078,16.710 14.806,16.688 14.740 C 16.460 14.053,15.899 13.516,15.220 13.334 C 14.960 13.265,14.394 13.266,14.140 13.336 C 13.550 13.499,13.077 13.888,12.799 14.439 C 12.658 14.720,12.634 14.828,12.603 15.345 C 12.571 15.871,12.519 16.018,12.307 16.176 C 12.225 16.237,12.135 16.260,11.980 16.260 C 11.825 16.260,11.735 16.237,11.653 16.176 C 11.441 16.018,11.389 15.871,11.357 15.345 C 11.341 15.078,11.310 14.806,11.288 14.740 C 11.060 14.053,10.499 13.516,9.820 13.334 C 9.560 13.265,8.994 13.266,8.740 13.336 C 8.150 13.499,7.677 13.888,7.399 14.439 C 7.258 14.720,7.234 14.828,7.203 15.345 C 7.171 15.871,7.119 16.018,6.907 16.176 C 6.825 16.237,6.735 16.260,6.580 16.260 C 6.425 16.260,6.335 16.237,6.253 16.176 C 6.039 16.016,5.990 15.874,5.957 15.325 C 5.940 15.033,5.900 14.745,5.862 14.641 C 5.587 13.883,4.889 13.336,4.092 13.255 L 3.833 13.228 3.861 12.904 C 3.912 12.307,4.126 11.872,4.576 11.454 C 4.895 11.158,5.365 10.907,5.760 10.822 C 5.976 10.776,7.038 10.766,11.972 10.763 C 17.323 10.760,17.953 10.767,18.212 10.825 M4.268 14.887 C 4.437 15.045,4.480 15.173,4.481 15.528 C 4.482 15.956,4.565 16.343,4.719 16.631 C 5.076 17.300,5.699 17.705,6.440 17.749 C 7.076 17.788,7.629 17.581,8.060 17.143 C 8.484 16.712,8.678 16.212,8.679 15.546 C 8.680 15.015,8.865 14.780,9.280 14.780 C 9.695 14.780,9.880 15.015,9.881 15.546 C 9.883 16.775,10.688 17.680,11.840 17.749 C 12.476 17.788,13.029 17.581,13.460 17.143 C 13.884 16.712,14.078 16.212,14.079 15.546 C 14.080 15.015,14.265 14.780,14.680 14.780 C 15.095 14.780,15.280 15.015,15.281 15.546 C 15.283 16.775,16.088 17.680,17.240 17.749 C 17.876 17.788,18.429 17.581,18.860 17.143 C 19.284 16.712,19.478 16.212,19.479 15.546 C 19.480 15.070,19.637 14.828,19.980 14.772 L 20.120 14.750 20.120 17.995 L 20.120 21.240 11.980 21.240 L 3.840 21.240 3.840 18.007 C 3.840 16.228,3.850 14.763,3.862 14.751 C 3.906 14.707,4.170 14.796,4.268 14.887 " stroke="none" fill-rule="evenodd" fill="black"></path></svg>