<svg width="24" height="24" viewBox="0 0 24 24" fill="none" xmlns="http://www.w3.org/2000/svg"><path d="M7.815 1.277 C 7.638 1.321,7.461 1.456,7.354 1.630 C 7.274 1.759,7.260 1.843,7.247 2.284 L 7.231 2.791 6.985 2.817 C 4.811 3.046,3.215 4.278,2.584 6.212 C 2.428 6.688,2.325 7.296,2.280 7.990 C 2.228 8.812,2.228 16.705,2.280 17.526 C 2.363 18.816,2.655 19.759,3.241 20.619 C 3.843 21.503,4.743 22.135,5.861 22.459 C 6.806 22.733,7.285 22.758,11.592 22.759 L 15.123 22.760 15.342 22.922 C 15.745 23.219,16.430 23.521,16.967 23.638 C 17.333 23.718,18.014 23.755,18.432 23.719 C 20.686 23.522,22.522 21.686,22.719 19.432 C 22.776 18.777,22.688 18.025,22.487 17.440 C 22.387 17.151,22.125 16.640,21.922 16.340 L 21.760 16.100 21.759 12.340 C 21.758 7.845,21.735 7.361,21.475 6.413 C 20.920 4.386,19.268 3.055,17.010 2.816 L 16.760 2.790 16.760 2.417 C 16.760 1.884,16.704 1.664,16.522 1.482 C 16.173 1.133,15.618 1.203,15.354 1.629 C 15.275 1.757,15.261 1.844,15.247 2.268 L 15.230 2.760 11.995 2.760 L 8.760 2.760 8.759 2.390 C 8.758 1.944,8.707 1.704,8.580 1.536 C 8.421 1.327,8.078 1.211,7.815 1.277 M15.247 4.732 C 15.261 5.156,15.275 5.243,15.354 5.371 C 15.708 5.944,16.577 5.811,16.716 5.162 C 16.740 5.049,16.760 4.804,16.760 4.618 L 16.760 4.279 16.930 4.303 C 18.820 4.574,19.902 5.636,20.177 7.489 C 20.212 7.721,20.240 8.011,20.240 8.135 L 20.240 8.360 12.000 8.360 L 3.760 8.360 3.760 8.135 C 3.760 7.797,3.872 7.109,3.987 6.744 C 4.308 5.718,4.994 4.960,5.923 4.601 C 6.235 4.481,6.732 4.352,7.065 4.304 L 7.230 4.281 7.247 4.752 C 7.261 5.155,7.277 5.246,7.355 5.371 C 7.708 5.944,8.577 5.810,8.716 5.162 C 8.740 5.049,8.760 4.795,8.760 4.598 L 8.760 4.240 11.995 4.240 L 15.230 4.240 15.247 4.732 M20.240 12.320 C 20.240 13.684,20.230 14.800,20.219 14.800 C 20.207 14.800,20.157 14.775,20.109 14.744 C 20.060 14.713,19.849 14.624,19.640 14.547 C 17.900 13.903,15.957 14.329,14.643 15.643 C 13.255 17.032,12.865 19.101,13.651 20.912 L 13.796 21.244 10.408 21.230 L 7.020 21.216 6.595 21.111 C 5.083 20.739,4.262 19.918,3.889 18.405 L 3.784 17.980 3.770 13.910 L 3.757 9.840 11.998 9.840 L 20.240 9.840 20.240 12.320 M7.842 12.828 C 7.129 13.202,7.129 14.198,7.842 14.572 C 8.034 14.673,8.094 14.685,8.344 14.673 C 8.705 14.655,8.961 14.511,9.139 14.222 C 9.248 14.046,9.260 13.993,9.260 13.700 C 9.260 13.407,9.248 13.354,9.139 13.178 C 8.961 12.889,8.705 12.745,8.344 12.727 C 8.094 12.715,8.034 12.727,7.842 12.828 M11.600 12.784 C 11.267 12.928,11.001 13.335,11.001 13.700 C 11.001 14.070,11.270 14.477,11.609 14.618 C 11.691 14.652,11.867 14.680,12.000 14.680 C 12.419 14.680,12.722 14.486,12.905 14.100 C 13.134 13.615,12.891 12.990,12.391 12.782 C 12.203 12.703,11.783 12.704,11.600 12.784 M7.842 15.828 C 7.129 16.202,7.129 17.198,7.842 17.572 C 8.034 17.673,8.094 17.685,8.344 17.673 C 8.705 17.655,8.961 17.511,9.139 17.222 C 9.248 17.046,9.260 16.993,9.260 16.700 C 9.260 16.407,9.248 16.354,9.139 16.178 C 8.961 15.889,8.705 15.745,8.344 15.727 C 8.094 15.715,8.034 15.727,7.842 15.828 M18.820 15.860 C 19.696 16.098,20.522 16.774,20.918 17.577 C 21.142 18.031,21.207 18.303,21.229 18.880 C 21.245 19.300,21.234 19.435,21.163 19.720 C 20.923 20.685,20.310 21.465,19.465 21.881 C 18.934 22.143,18.543 22.240,18.016 22.240 C 17.083 22.240,16.395 21.955,15.725 21.290 C 14.668 20.242,14.455 18.617,15.207 17.341 C 15.422 16.977,15.977 16.422,16.341 16.207 C 16.651 16.025,17.086 15.860,17.410 15.802 C 17.709 15.748,18.535 15.782,18.820 15.860 M19.256 17.337 C 19.188 17.367,18.755 17.742,18.292 18.172 L 17.452 18.954 17.196 18.695 C 16.840 18.334,16.720 18.267,16.437 18.267 C 16.160 18.267,15.944 18.387,15.798 18.623 C 15.693 18.794,15.672 19.154,15.759 19.320 C 15.845 19.486,16.928 20.561,17.097 20.648 C 17.319 20.762,17.657 20.735,17.867 20.586 C 18.134 20.396,20.132 18.506,20.214 18.367 C 20.309 18.202,20.317 17.867,20.229 17.699 C 20.148 17.544,19.969 17.376,19.827 17.323 C 19.675 17.265,19.407 17.272,19.256 17.337 " stroke="none" fill-rule="evenodd" fill="black"></path></svg>