<svg width="24" height="24" viewBox="0 0 24 24" fill="none" xmlns="http://www.w3.org/2000/svg"><path d="M7.815 1.277 C 7.639 1.321,7.461 1.456,7.355 1.628 C 7.277 1.755,7.261 1.848,7.242 2.297 L 7.220 2.819 6.900 2.866 C 6.107 2.983,5.542 3.153,4.951 3.453 C 3.243 4.321,2.438 5.924,2.280 8.770 C 2.230 9.674,2.230 15.759,2.280 16.754 C 2.369 18.512,2.663 19.645,3.267 20.553 C 4.148 21.876,5.613 22.552,7.960 22.718 C 8.720 22.772,15.280 22.772,16.040 22.718 C 19.115 22.501,20.745 21.384,21.402 19.046 C 21.705 17.968,21.759 17.003,21.759 12.740 C 21.758 8.589,21.718 7.829,21.435 6.681 C 21.068 5.190,20.382 4.207,19.249 3.547 C 18.729 3.244,17.900 2.978,17.136 2.869 L 16.780 2.819 16.757 2.319 C 16.732 1.760,16.673 1.579,16.464 1.421 C 16.096 1.142,15.598 1.236,15.354 1.629 C 15.275 1.757,15.261 1.844,15.247 2.268 L 15.230 2.760 11.995 2.760 L 8.760 2.760 8.759 2.390 C 8.758 1.944,8.707 1.704,8.580 1.536 C 8.421 1.327,8.078 1.211,7.815 1.277 M15.247 4.732 C 15.261 5.156,15.275 5.243,15.354 5.371 C 15.708 5.944,16.577 5.811,16.716 5.162 C 16.740 5.049,16.760 4.812,16.760 4.636 L 16.760 4.315 16.950 4.343 C 17.288 4.391,17.858 4.549,18.175 4.680 C 19.139 5.082,19.743 5.908,20.023 7.206 C 20.217 8.108,20.213 8.006,20.229 12.550 L 20.244 16.840 12.000 16.840 L 3.756 16.840 3.771 12.550 C 3.787 8.006,3.783 8.108,3.977 7.206 C 4.341 5.516,5.180 4.699,6.874 4.382 C 7.058 4.348,7.214 4.320,7.219 4.320 C 7.225 4.320,7.238 4.524,7.247 4.773 C 7.262 5.155,7.279 5.249,7.355 5.372 C 7.708 5.944,8.577 5.810,8.716 5.162 C 8.740 5.049,8.760 4.795,8.760 4.598 L 8.760 4.240 11.995 4.240 L 15.230 4.240 15.247 4.732 M11.589 8.283 C 10.559 8.423,9.874 9.038,9.762 9.924 C 9.686 10.528,9.857 11.058,10.246 11.422 L 10.453 11.615 10.356 11.678 C 9.825 12.022,9.520 12.598,9.520 13.260 C 9.520 14.193,10.069 14.855,11.067 15.127 C 11.323 15.197,11.492 15.212,12.000 15.212 C 12.508 15.212,12.677 15.197,12.933 15.127 C 13.938 14.854,14.480 14.190,14.480 13.235 C 14.480 12.595,14.214 12.095,13.660 11.693 L 13.540 11.606 13.705 11.464 C 14.061 11.158,14.239 10.736,14.239 10.200 C 14.238 9.643,14.077 9.235,13.720 8.880 C 13.247 8.411,12.400 8.173,11.589 8.283 M12.436 9.584 C 12.739 9.711,12.893 9.945,12.893 10.280 C 12.893 10.768,12.546 11.078,12.000 11.078 C 11.454 11.078,11.107 10.768,11.107 10.280 C 11.107 9.860,11.319 9.630,11.820 9.505 C 11.943 9.475,12.277 9.518,12.436 9.584 M12.535 12.241 C 13.303 12.529,13.349 13.522,12.611 13.884 C 12.332 14.021,11.668 14.021,11.389 13.884 C 10.890 13.639,10.714 13.086,10.984 12.613 C 11.152 12.320,11.492 12.167,11.988 12.163 C 12.227 12.161,12.377 12.182,12.535 12.241 M20.020 18.450 C 19.918 18.809,19.814 19.099,19.702 19.340 C 19.146 20.533,17.961 21.110,15.800 21.240 C 14.943 21.291,9.104 21.291,8.213 21.239 C 6.084 21.116,4.904 20.558,4.321 19.400 C 4.227 19.213,4.075 18.792,3.980 18.450 L 3.955 18.360 12.000 18.360 L 20.045 18.360 20.020 18.450 " stroke="none" fill-rule="evenodd" fill="black"></path></svg>