<svg width="24" height="24" viewBox="0 0 24 24" fill="none" xmlns="http://www.w3.org/2000/svg"><path d="M7.815 1.277 C 7.638 1.321,7.461 1.456,7.354 1.630 C 7.274 1.759,7.260 1.843,7.247 2.284 L 7.231 2.791 6.985 2.817 C 4.811 3.046,3.215 4.278,2.584 6.212 C 2.428 6.688,2.325 7.296,2.280 7.990 C 2.228 8.812,2.228 16.705,2.280 17.526 C 2.363 18.816,2.655 19.759,3.241 20.619 C 3.843 21.503,4.743 22.135,5.861 22.459 C 6.819 22.737,7.259 22.758,12.000 22.758 C 15.920 22.758,16.791 22.737,17.441 22.623 C 18.897 22.367,20.038 21.678,20.759 20.619 C 21.342 19.762,21.638 18.811,21.720 17.526 C 21.771 16.722,21.771 8.775,21.720 7.980 C 21.615 6.357,21.185 5.251,20.298 4.323 C 19.501 3.489,18.340 2.957,17.010 2.816 L 16.760 2.790 16.760 2.417 C 16.760 1.884,16.704 1.664,16.522 1.482 C 16.173 1.133,15.618 1.203,15.354 1.629 C 15.275 1.757,15.261 1.844,15.247 2.268 L 15.230 2.760 11.995 2.760 L 8.760 2.760 8.759 2.390 C 8.758 1.944,8.707 1.704,8.580 1.536 C 8.421 1.327,8.078 1.211,7.815 1.277 M15.247 4.732 C 15.261 5.156,15.275 5.243,15.354 5.371 C 15.708 5.944,16.577 5.811,16.716 5.162 C 16.740 5.049,16.760 4.804,16.760 4.618 L 16.760 4.279 16.930 4.303 C 18.820 4.574,19.902 5.636,20.177 7.489 C 20.212 7.721,20.240 8.011,20.240 8.135 L 20.240 8.360 12.000 8.360 L 3.760 8.360 3.760 8.135 C 3.760 7.797,3.872 7.109,3.987 6.744 C 4.308 5.718,4.994 4.960,5.923 4.601 C 6.235 4.481,6.732 4.352,7.065 4.304 L 7.230 4.281 7.247 4.752 C 7.261 5.155,7.277 5.246,7.355 5.371 C 7.708 5.944,8.577 5.810,8.716 5.162 C 8.740 5.049,8.760 4.795,8.760 4.598 L 8.760 4.240 11.995 4.240 L 15.230 4.240 15.247 4.732 M20.230 13.910 L 20.216 17.980 20.111 18.405 C 19.916 19.196,19.642 19.719,19.180 20.180 C 18.712 20.648,18.188 20.921,17.385 21.113 L 16.940 21.220 12.000 21.220 L 7.060 21.220 6.615 21.113 C 5.091 20.748,4.264 19.927,3.889 18.405 L 3.784 17.980 3.770 13.910 L 3.757 9.840 12.000 9.840 L 20.243 9.840 20.230 13.910 M7.842 12.828 C 7.129 13.202,7.129 14.198,7.842 14.572 C 8.034 14.673,8.094 14.685,8.344 14.673 C 8.705 14.655,8.961 14.511,9.139 14.222 C 9.248 14.046,9.260 13.993,9.260 13.700 C 9.260 13.407,9.248 13.354,9.139 13.178 C 8.961 12.889,8.705 12.745,8.344 12.727 C 8.094 12.715,8.034 12.727,7.842 12.828 M11.600 12.784 C 11.267 12.928,11.001 13.335,11.001 13.700 C 11.001 14.070,11.270 14.477,11.609 14.618 C 11.691 14.652,11.867 14.680,12.000 14.680 C 12.419 14.680,12.722 14.486,12.905 14.100 C 13.134 13.615,12.891 12.990,12.391 12.782 C 12.203 12.703,11.783 12.704,11.600 12.784 M7.842 15.828 C 7.129 16.202,7.129 17.198,7.842 17.572 C 8.034 17.673,8.094 17.685,8.344 17.673 C 8.705 17.655,8.961 17.511,9.139 17.222 C 9.248 17.046,9.260 16.993,9.260 16.700 C 9.260 16.407,9.248 16.354,9.139 16.178 C 8.961 15.889,8.705 15.745,8.344 15.727 C 8.094 15.715,8.034 15.727,7.842 15.828 " stroke="none" fill-rule="evenodd" fill="black"></path></svg>