<svg width="24" height="24" viewBox="0 0 24 24" fill="none" xmlns="http://www.w3.org/2000/svg"><path d="M11.320 1.281 C 7.041 1.525,3.252 4.409,1.843 8.497 C 1.180 10.418,1.082 12.560,1.564 14.550 C 2.505 18.428,5.572 21.495,9.450 22.436 C 11.106 22.837,12.894 22.837,14.550 22.436 C 18.428 21.495,21.495 18.428,22.436 14.550 C 22.837 12.894,22.837 11.106,22.436 9.450 C 21.425 5.282,17.985 2.095,13.742 1.398 C 13.334 1.331,12.074 1.229,11.880 1.247 C 11.847 1.250,11.595 1.265,11.320 1.281 M13.146 2.822 C 14.201 2.960,15.125 3.237,16.060 3.696 C 18.877 5.079,20.768 7.722,21.178 10.854 C 21.301 11.786,21.244 13.026,21.034 13.998 C 20.745 15.343,20.003 16.855,19.121 17.900 C 18.247 18.935,17.240 19.726,16.060 20.304 C 14.761 20.940,13.462 21.240,12.000 21.240 C 10.538 21.240,9.236 20.940,7.940 20.304 C 5.123 18.921,3.232 16.278,2.822 13.146 C 2.699 12.214,2.756 10.974,2.966 10.002 C 3.177 9.020,3.703 7.775,4.268 6.920 C 5.750 4.677,8.131 3.188,10.820 2.823 C 11.380 2.746,12.569 2.746,13.146 2.822 M9.601 5.143 C 9.314 5.268,9.192 5.460,9.161 5.834 L 9.140 6.087 8.807 6.202 C 7.384 6.695,6.347 7.810,5.946 9.280 C 5.769 9.928,5.754 10.194,5.771 12.380 C 5.785 14.287,5.791 14.443,5.871 14.780 C 6.327 16.720,7.677 18.008,9.597 18.336 C 10.152 18.430,13.848 18.430,14.403 18.336 C 16.130 18.041,17.471 16.900,17.993 15.280 C 18.213 14.595,18.220 14.504,18.220 12.180 C 18.220 10.493,18.208 9.959,18.164 9.740 C 17.988 8.854,17.637 8.103,17.103 7.466 C 16.681 6.965,15.898 6.446,15.193 6.202 L 14.860 6.087 14.839 5.834 C 14.827 5.694,14.787 5.523,14.750 5.454 C 14.607 5.189,14.304 5.049,13.979 5.098 C 13.825 5.121,13.754 5.162,13.597 5.319 C 13.432 5.484,13.400 5.543,13.377 5.716 L 13.350 5.920 12.000 5.920 L 10.650 5.920 10.623 5.716 C 10.600 5.543,10.567 5.484,10.407 5.323 C 10.159 5.075,9.895 5.016,9.601 5.143 M13.360 7.681 C 13.360 8.106,13.476 8.335,13.768 8.484 C 14.257 8.734,14.840 8.384,14.840 7.841 C 14.840 7.753,14.859 7.680,14.881 7.680 C 14.959 7.680,15.300 7.871,15.548 8.054 C 15.684 8.154,15.894 8.356,16.015 8.503 C 16.222 8.753,16.520 9.257,16.520 9.356 C 16.520 9.388,15.270 9.400,12.000 9.400 C 8.730 9.400,7.480 9.388,7.480 9.356 C 7.480 9.257,7.778 8.753,7.985 8.503 C 8.106 8.356,8.316 8.154,8.452 8.054 C 8.700 7.871,9.041 7.680,9.119 7.680 C 9.141 7.680,9.160 7.753,9.160 7.841 C 9.160 8.259,9.472 8.560,9.904 8.560 C 10.366 8.560,10.640 8.233,10.640 7.681 L 10.640 7.400 12.000 7.400 L 13.360 7.400 13.360 7.681 M16.749 12.580 C 16.733 14.212,16.728 14.316,16.643 14.620 C 16.471 15.233,16.199 15.685,15.748 16.104 C 15.400 16.427,15.040 16.631,14.540 16.787 L 14.180 16.899 12.000 16.899 L 9.820 16.899 9.460 16.787 C 8.952 16.629,8.597 16.426,8.236 16.088 C 7.787 15.667,7.532 15.239,7.353 14.603 C 7.273 14.320,7.266 14.186,7.251 12.580 L 7.234 10.860 12.000 10.860 L 16.766 10.860 16.749 12.580 " stroke="none" fill-rule="evenodd" fill="black"></path></svg>