<svg width="24" height="24" viewBox="0 0 24 24" fill="none" xmlns="http://www.w3.org/2000/svg"><path d="M7.815 1.277 C 7.638 1.321,7.461 1.456,7.354 1.630 C 7.274 1.759,7.260 1.843,7.247 2.284 L 7.231 2.791 6.985 2.817 C 4.528 3.076,2.857 4.580,2.401 6.942 C 2.263 7.661,2.240 8.473,2.240 12.760 C 2.240 17.059,2.263 17.864,2.403 18.566 C 2.660 19.857,3.285 20.937,4.155 21.594 C 5.105 22.312,6.030 22.625,7.480 22.720 C 8.310 22.775,11.904 22.771,12.162 22.716 C 12.828 22.573,12.943 21.639,12.332 21.336 C 12.189 21.265,12.023 21.259,9.600 21.237 L 7.020 21.214 6.595 21.110 C 5.087 20.743,4.262 19.918,3.889 18.405 L 3.784 17.980 3.770 13.910 L 3.757 9.840 11.996 9.840 L 20.235 9.840 20.247 11.030 C 20.260 12.194,20.262 12.223,20.353 12.369 C 20.710 12.943,21.576 12.812,21.716 12.162 C 21.771 11.903,21.774 8.826,21.720 7.980 C 21.615 6.357,21.185 5.251,20.298 4.323 C 19.501 3.489,18.340 2.957,17.010 2.816 L 16.760 2.790 16.760 2.417 C 16.760 1.884,16.704 1.664,16.522 1.482 C 16.173 1.133,15.618 1.203,15.354 1.629 C 15.275 1.757,15.261 1.844,15.247 2.268 L 15.230 2.760 11.995 2.760 L 8.760 2.760 8.759 2.390 C 8.758 1.944,8.707 1.704,8.580 1.536 C 8.421 1.327,8.078 1.211,7.815 1.277 M15.247 4.732 C 15.261 5.156,15.275 5.243,15.354 5.371 C 15.708 5.944,16.577 5.811,16.716 5.162 C 16.740 5.049,16.760 4.804,16.760 4.618 L 16.760 4.279 16.930 4.303 C 18.820 4.574,19.902 5.636,20.177 7.489 C 20.212 7.721,20.240 8.011,20.240 8.135 L 20.240 8.360 12.000 8.360 L 3.760 8.360 3.760 8.135 C 3.760 7.797,3.872 7.109,3.987 6.744 C 4.308 5.718,4.994 4.960,5.923 4.601 C 6.235 4.481,6.732 4.352,7.065 4.304 L 7.230 4.281 7.247 4.752 C 7.261 5.155,7.277 5.246,7.355 5.371 C 7.708 5.944,8.577 5.810,8.716 5.162 C 8.740 5.049,8.760 4.795,8.760 4.598 L 8.760 4.240 11.995 4.240 L 15.230 4.240 15.247 4.732 M7.842 12.828 C 7.129 13.202,7.129 14.198,7.842 14.572 C 8.034 14.673,8.094 14.685,8.344 14.673 C 8.705 14.655,8.961 14.511,9.139 14.222 C 9.248 14.046,9.260 13.993,9.260 13.700 C 9.260 13.407,9.248 13.354,9.139 13.178 C 8.961 12.889,8.705 12.745,8.344 12.727 C 8.094 12.715,8.034 12.727,7.842 12.828 M11.600 12.784 C 11.267 12.928,11.001 13.335,11.001 13.700 C 11.001 14.070,11.270 14.477,11.609 14.618 C 11.691 14.652,11.867 14.680,12.000 14.680 C 12.419 14.680,12.722 14.486,12.905 14.100 C 13.134 13.615,12.891 12.990,12.391 12.782 C 12.203 12.703,11.783 12.704,11.600 12.784 M19.936 14.499 C 19.638 14.564,19.287 14.737,18.998 14.963 C 18.728 15.172,15.485 18.391,15.139 18.791 C 14.731 19.265,14.688 19.395,14.498 20.720 C 14.413 21.309,14.434 21.757,14.556 21.994 C 14.690 22.253,14.941 22.505,15.187 22.625 C 15.516 22.786,15.822 22.790,16.800 22.644 C 18.072 22.454,17.815 22.636,20.224 20.225 C 21.484 18.964,22.284 18.133,22.379 17.985 C 22.610 17.628,22.718 17.281,22.719 16.897 C 22.721 16.268,22.504 15.815,21.924 15.237 C 21.610 14.924,21.476 14.822,21.200 14.686 C 20.885 14.531,20.527 14.436,20.280 14.443 C 20.225 14.445,20.070 14.470,19.936 14.499 M7.842 15.828 C 7.129 16.202,7.129 17.198,7.842 17.572 C 8.034 17.673,8.094 17.685,8.344 17.673 C 8.705 17.655,8.961 17.511,9.139 17.222 C 9.248 17.046,9.260 16.993,9.260 16.700 C 9.260 16.407,9.248 16.354,9.139 16.178 C 8.961 15.889,8.705 15.745,8.344 15.727 C 8.094 15.715,8.034 15.727,7.842 15.828 M20.561 16.026 C 20.898 16.250,21.240 16.685,21.240 16.891 C 21.240 17.009,21.056 17.297,20.864 17.479 L 20.717 17.618 20.529 17.520 C 20.286 17.394,19.806 16.914,19.679 16.671 L 19.581 16.482 19.761 16.296 C 19.859 16.194,19.994 16.077,20.060 16.035 C 20.208 15.943,20.430 15.938,20.561 16.026 M18.728 17.899 C 18.929 18.159,19.245 18.459,19.525 18.655 L 19.619 18.721 18.459 19.881 C 17.822 20.519,17.273 21.049,17.240 21.060 C 17.160 21.084,16.095 21.240,16.005 21.240 C 15.937 21.240,15.939 21.204,16.027 20.590 L 16.121 19.940 17.290 18.770 C 17.933 18.127,18.469 17.601,18.480 17.603 C 18.491 17.604,18.602 17.738,18.728 17.899 " stroke="none" fill-rule="evenodd" fill="black"></path></svg>