<svg width="24" height="24" viewBox="0 0 24 24" fill="none" xmlns="http://www.w3.org/2000/svg"><path d="M5.211 1.281 C 3.950 1.415,2.628 2.447,1.883 3.880 C 0.970 5.633,1.075 7.980,2.173 10.403 C 3.011 12.253,4.273 14.097,6.072 16.103 L 6.434 16.507 3.935 19.003 C 2.561 20.376,1.398 21.561,1.352 21.636 C 1.232 21.826,1.234 22.177,1.356 22.374 C 1.532 22.658,1.839 22.783,2.189 22.712 C 2.376 22.674,2.592 22.460,12.490 12.566 C 18.342 6.717,22.628 2.403,22.665 2.324 C 22.886 1.859,22.552 1.280,22.055 1.267 C 21.948 1.265,21.806 1.276,21.740 1.293 C 21.653 1.316,20.121 2.823,16.194 6.748 L 10.767 12.172 10.549 11.936 C 9.892 11.225,9.356 10.569,9.104 10.168 L 8.997 9.996 9.501 9.468 C 10.088 8.854,10.445 8.344,10.571 7.940 C 10.758 7.340,10.656 6.668,10.280 6.024 C 10.063 5.653,7.675 2.287,7.454 2.042 C 6.948 1.478,6.090 1.187,5.211 1.281 M6.054 2.859 C 6.169 2.913,6.310 3.008,6.367 3.069 C 6.503 3.214,8.815 6.480,8.965 6.740 C 9.154 7.066,9.208 7.295,9.143 7.485 C 9.060 7.726,8.934 7.885,8.299 8.556 C 7.978 8.894,7.682 9.239,7.640 9.321 C 7.462 9.668,7.468 10.211,7.652 10.614 C 7.857 11.062,8.438 11.834,9.233 12.715 C 9.479 12.988,9.680 13.222,9.680 13.236 C 9.680 13.249,9.188 13.752,8.586 14.354 L 7.493 15.447 7.055 14.953 C 4.713 12.317,3.294 9.889,2.873 7.798 C 2.750 7.183,2.740 6.031,2.854 5.543 C 2.957 5.105,3.196 4.537,3.420 4.201 C 3.651 3.852,4.185 3.303,4.484 3.105 C 5.003 2.761,5.638 2.662,6.054 2.859 M16.320 13.326 C 15.981 13.373,15.423 13.648,15.066 13.943 C 14.917 14.065,14.610 14.344,14.384 14.562 L 13.973 14.958 13.756 14.822 C 13.637 14.747,13.463 14.637,13.370 14.579 C 13.068 14.390,12.740 14.408,12.478 14.628 C 12.263 14.809,12.181 15.066,12.244 15.362 C 12.296 15.602,12.432 15.746,12.888 16.041 C 13.479 16.424,13.859 16.531,14.303 16.440 C 14.632 16.373,14.756 16.290,15.260 15.801 C 16.124 14.963,16.353 14.800,16.671 14.800 C 16.943 14.800,17.350 15.048,19.000 16.219 C 20.984 17.626,21.018 17.652,21.097 17.820 C 21.317 18.284,21.217 18.894,20.821 19.500 C 20.621 19.805,20.052 20.379,19.740 20.588 C 19.142 20.989,18.444 21.202,17.631 21.231 C 16.967 21.254,16.480 21.199,15.780 21.020 C 14.522 20.698,12.915 19.895,11.409 18.836 C 10.521 18.210,10.575 18.240,10.329 18.240 C 9.892 18.240,9.583 18.548,9.587 18.981 C 9.590 19.373,9.663 19.448,10.840 20.261 C 11.829 20.944,13.352 21.758,14.341 22.132 C 16.146 22.815,17.907 22.920,19.340 22.431 C 20.684 21.973,21.815 20.968,22.396 19.716 C 22.686 19.090,22.780 18.429,22.664 17.838 C 22.575 17.386,22.336 16.901,22.068 16.629 C 21.842 16.400,18.502 14.011,17.980 13.706 C 17.425 13.380,16.856 13.250,16.320 13.326 " stroke="none" fill-rule="evenodd" fill="black"></path></svg>