<svg width="24" height="24" viewBox="0 0 24 24" fill="none" xmlns="http://www.w3.org/2000/svg"><path d="M5.320 1.268 C 4.135 1.357,2.834 2.268,2.073 3.540 C 1.291 4.847,1.075 6.376,1.425 8.135 C 2.118 11.627,5.494 16.211,9.800 19.508 C 11.631 20.911,13.710 22.021,15.281 22.435 C 16.808 22.838,18.151 22.837,19.340 22.431 C 20.684 21.973,21.815 20.968,22.396 19.716 C 22.686 19.090,22.780 18.429,22.664 17.838 C 22.576 17.386,22.336 16.901,22.068 16.628 C 21.838 16.395,18.333 13.893,17.917 13.665 C 17.117 13.226,16.420 13.187,15.698 13.542 C 15.297 13.739,14.996 13.972,14.384 14.562 L 13.972 14.958 13.744 14.821 C 12.617 14.142,9.945 11.470,9.132 10.209 L 8.996 9.997 9.501 9.469 C 10.657 8.258,10.901 7.506,10.479 6.450 C 10.314 6.038,10.297 6.012,8.864 3.980 C 8.047 2.821,7.533 2.131,7.361 1.960 C 6.862 1.466,6.104 1.208,5.320 1.268 M14.815 1.278 C 14.331 1.394,14.098 2.004,14.383 2.408 C 14.563 2.662,14.718 2.721,15.309 2.762 C 16.067 2.815,16.480 2.897,17.100 3.117 C 18.612 3.655,19.856 4.758,20.582 6.203 C 20.991 7.019,21.172 7.709,21.237 8.709 C 21.266 9.142,21.288 9.263,21.359 9.378 C 21.612 9.787,22.183 9.857,22.520 9.520 C 22.731 9.309,22.765 9.119,22.717 8.441 C 22.547 6.048,21.284 3.881,19.277 2.542 C 18.604 2.094,17.745 1.710,16.947 1.503 C 16.288 1.332,15.110 1.207,14.815 1.278 M6.054 2.859 C 6.169 2.913,6.310 3.008,6.367 3.069 C 6.503 3.214,8.815 6.480,8.965 6.740 C 9.154 7.066,9.208 7.295,9.143 7.485 C 9.060 7.726,8.934 7.885,8.299 8.556 C 7.978 8.894,7.682 9.239,7.640 9.321 C 7.462 9.668,7.468 10.211,7.652 10.614 C 8.157 11.716,10.887 14.622,12.514 15.788 C 13.322 16.368,13.755 16.532,14.253 16.446 C 14.622 16.383,14.736 16.310,15.260 15.801 C 15.907 15.174,16.132 14.982,16.336 14.886 C 16.593 14.765,16.774 14.777,17.101 14.935 C 17.420 15.088,20.846 17.501,21.004 17.683 C 21.302 18.026,21.271 18.735,20.933 19.317 C 20.667 19.776,20.188 20.282,19.720 20.600 C 19.422 20.802,18.935 21.013,18.506 21.126 C 18.092 21.234,17.240 21.270,16.691 21.201 C 14.276 20.901,11.140 19.026,8.166 16.102 C 5.326 13.311,3.362 10.230,2.873 7.798 C 2.750 7.183,2.740 6.031,2.854 5.543 C 2.958 5.101,3.197 4.536,3.425 4.192 C 3.667 3.828,4.189 3.297,4.501 3.098 C 5.037 2.755,5.638 2.662,6.054 2.859 M14.720 4.805 C 14.458 4.909,14.269 5.200,14.269 5.500 C 14.269 5.740,14.345 5.904,14.537 6.072 C 14.675 6.193,14.738 6.213,15.133 6.258 C 16.044 6.360,17.256 7.495,17.668 8.630 C 17.719 8.769,17.760 8.945,17.760 9.019 C 17.760 9.414,18.089 9.731,18.500 9.731 C 18.740 9.731,18.904 9.655,19.072 9.463 C 19.219 9.296,19.259 9.120,19.227 8.785 C 19.116 7.608,17.927 5.968,16.659 5.242 C 15.996 4.863,15.089 4.658,14.720 4.805 " stroke="none" fill-rule="evenodd" fill="black"></path></svg>