<svg width="24" height="24" viewBox="0 0 24 24" fill="none" xmlns="http://www.w3.org/2000/svg"><path d="M5.320 1.268 C 4.135 1.357,2.834 2.268,2.073 3.540 C 1.291 4.847,1.075 6.376,1.425 8.135 C 2.118 11.627,5.494 16.211,9.800 19.508 C 11.631 20.911,13.710 22.021,15.281 22.435 C 16.808 22.838,18.151 22.837,19.340 22.431 C 20.684 21.973,21.815 20.968,22.396 19.716 C 22.686 19.090,22.780 18.429,22.664 17.838 C 22.576 17.386,22.336 16.901,22.068 16.628 C 21.838 16.395,18.333 13.893,17.917 13.665 C 17.117 13.226,16.420 13.187,15.698 13.542 C 15.297 13.739,14.996 13.972,14.384 14.562 L 13.972 14.958 13.744 14.821 C 12.617 14.142,9.945 11.470,9.132 10.209 L 8.996 9.997 9.501 9.469 C 10.657 8.258,10.901 7.506,10.479 6.450 C 10.314 6.038,10.297 6.012,8.864 3.980 C 8.047 2.821,7.533 2.131,7.361 1.960 C 6.862 1.466,6.104 1.208,5.320 1.268 M16.015 2.277 C 15.838 2.321,15.661 2.456,15.553 2.631 L 15.460 2.780 15.460 5.407 L 15.460 8.033 15.580 8.203 C 15.646 8.296,15.772 8.410,15.860 8.456 C 16.016 8.538,16.074 8.540,18.477 8.551 C 20.185 8.559,20.999 8.549,21.150 8.518 C 21.902 8.362,21.931 7.273,21.189 7.086 C 21.061 7.054,20.383 7.040,18.982 7.040 L 16.960 7.040 16.959 5.030 C 16.958 3.794,16.942 2.951,16.917 2.841 C 16.823 2.432,16.415 2.177,16.015 2.277 M6.054 2.859 C 6.169 2.913,6.310 3.008,6.367 3.069 C 6.503 3.214,8.815 6.480,8.965 6.740 C 9.154 7.066,9.208 7.295,9.143 7.485 C 9.060 7.726,8.934 7.885,8.299 8.556 C 7.978 8.894,7.682 9.239,7.640 9.321 C 7.462 9.668,7.468 10.211,7.652 10.614 C 8.157 11.716,10.887 14.622,12.514 15.788 C 13.322 16.368,13.755 16.532,14.253 16.446 C 14.622 16.383,14.736 16.310,15.260 15.801 C 15.907 15.174,16.132 14.982,16.336 14.886 C 16.593 14.765,16.774 14.777,17.101 14.935 C 17.420 15.088,20.846 17.501,21.004 17.683 C 21.302 18.026,21.271 18.735,20.933 19.317 C 20.667 19.776,20.188 20.282,19.720 20.600 C 19.422 20.802,18.935 21.013,18.506 21.126 C 18.092 21.234,17.240 21.270,16.691 21.201 C 14.276 20.901,11.140 19.026,8.166 16.102 C 5.326 13.311,3.362 10.230,2.873 7.798 C 2.750 7.183,2.740 6.031,2.854 5.543 C 2.958 5.101,3.197 4.536,3.425 4.192 C 3.667 3.828,4.189 3.297,4.501 3.098 C 5.037 2.755,5.638 2.662,6.054 2.859 " stroke="none" fill-rule="evenodd" fill="black"></path></svg>