<svg width="24" height="24" viewBox="0 0 24 24" fill="none" xmlns="http://www.w3.org/2000/svg"><path d="M10.540 1.278 C 10.007 1.335,9.565 1.488,9.007 1.807 C 8.169 2.285,7.823 2.692,7.193 3.940 C 6.949 4.424,6.717 4.866,6.677 4.922 C 6.531 5.131,6.266 5.227,5.705 5.276 C 4.699 5.363,4.015 5.621,3.242 6.203 C 2.489 6.771,1.913 7.638,1.652 8.596 C 1.471 9.262,1.480 9.672,1.777 14.380 C 1.921 16.668,2.058 18.666,2.081 18.820 C 2.147 19.264,2.268 19.734,2.406 20.082 L 2.533 20.404 1.952 20.992 C 1.632 21.315,1.347 21.625,1.319 21.680 C 1.290 21.735,1.267 21.881,1.267 22.004 C 1.267 22.498,1.681 22.816,2.189 22.712 C 2.376 22.674,2.592 22.460,12.490 12.566 C 18.342 6.717,22.628 2.403,22.665 2.324 C 22.753 2.138,22.747 1.837,22.651 1.651 C 22.608 1.568,22.499 1.448,22.408 1.383 C 22.271 1.287,22.202 1.267,22.011 1.267 C 21.884 1.267,21.735 1.290,21.680 1.318 C 21.625 1.346,20.714 2.233,19.656 3.288 L 17.731 5.208 17.616 5.148 C 17.383 5.028,17.281 4.875,16.826 3.976 C 16.294 2.926,16.049 2.581,15.558 2.188 C 15.064 1.793,14.533 1.522,13.920 1.354 C 13.648 1.279,13.488 1.270,12.220 1.259 C 11.450 1.253,10.694 1.261,10.540 1.278 M13.851 2.895 C 14.225 3.053,14.549 3.270,14.816 3.541 C 15.008 3.736,15.111 3.908,15.498 4.677 C 15.981 5.637,16.170 5.932,16.456 6.163 L 16.633 6.307 10.162 12.778 L 3.690 19.250 3.628 18.955 C 3.594 18.793,3.555 18.579,3.542 18.480 C 3.501 18.155,3.000 10.068,3.000 9.720 C 3.001 8.647,3.614 7.627,4.558 7.127 C 5.000 6.893,5.314 6.804,5.859 6.759 C 6.471 6.708,6.661 6.668,6.970 6.526 C 7.321 6.365,7.657 6.102,7.864 5.826 C 7.961 5.697,8.237 5.201,8.477 4.725 C 8.716 4.249,8.974 3.783,9.049 3.688 C 9.329 3.335,9.773 3.033,10.277 2.854 C 10.537 2.761,10.555 2.760,12.060 2.770 L 13.580 2.780 13.851 2.895 M20.766 6.803 C 20.436 6.935,20.262 7.210,20.288 7.561 C 20.301 7.750,20.338 7.840,20.506 8.104 C 20.859 8.657,21.000 9.121,21.000 9.732 C 21.000 10.191,20.488 18.285,20.437 18.632 C 20.274 19.742,19.778 20.499,18.956 20.893 C 18.220 21.245,18.797 21.215,12.297 21.239 L 6.534 21.260 6.372 21.367 C 6.132 21.526,6.027 21.721,6.027 22.007 C 6.027 22.203,6.046 22.270,6.143 22.408 C 6.208 22.499,6.332 22.610,6.420 22.656 C 6.580 22.740,6.595 22.740,11.780 22.752 C 17.527 22.765,17.983 22.753,18.743 22.561 C 20.503 22.116,21.646 20.773,21.916 18.830 C 21.977 18.389,22.483 10.309,22.485 9.740 C 22.487 9.186,22.440 8.851,22.294 8.389 C 22.128 7.861,21.754 7.190,21.495 6.955 C 21.300 6.779,20.989 6.714,20.766 6.803 M5.815 9.278 C 5.331 9.393,5.098 10.004,5.383 10.408 C 5.447 10.499,5.572 10.610,5.660 10.656 C 5.813 10.736,5.888 10.741,7.373 10.752 C 9.166 10.766,9.287 10.753,9.519 10.521 C 9.918 10.122,9.731 9.423,9.189 9.286 C 8.981 9.234,6.029 9.227,5.815 9.278 M14.407 12.366 C 14.158 12.489,14.023 12.709,14.021 12.995 C 14.020 13.183,14.050 13.282,14.206 13.600 C 14.436 14.068,14.492 14.304,14.488 14.796 C 14.483 15.560,14.190 16.158,13.551 16.704 C 12.811 17.336,11.588 17.419,10.740 16.895 C 10.159 16.535,10.004 16.497,9.695 16.637 C 9.375 16.782,9.197 17.154,9.283 17.496 C 9.337 17.708,9.462 17.851,9.796 18.077 C 10.904 18.829,12.389 18.944,13.672 18.376 C 14.018 18.223,14.514 17.873,14.813 17.571 C 15.336 17.041,15.679 16.442,15.868 15.728 C 15.956 15.395,15.971 15.255,15.972 14.740 C 15.972 14.216,15.959 14.089,15.866 13.742 C 15.666 12.990,15.275 12.369,14.963 12.307 C 14.735 12.261,14.586 12.277,14.407 12.366 " stroke="none" fill-rule="evenodd" fill="black"></path></svg>