<svg width="24" height="24" viewBox="0 0 24 24" fill="none" xmlns="http://www.w3.org/2000/svg"><path d="M10.540 1.278 C 10.007 1.335,9.565 1.488,9.007 1.807 C 8.169 2.285,7.823 2.692,7.193 3.940 C 6.949 4.424,6.717 4.866,6.677 4.922 C 6.531 5.131,6.266 5.227,5.705 5.276 C 4.699 5.363,4.015 5.621,3.242 6.203 C 2.489 6.771,1.913 7.638,1.652 8.596 C 1.471 9.262,1.480 9.670,1.779 14.400 C 1.924 16.699,2.068 18.742,2.100 18.940 C 2.336 20.431,3.064 21.530,4.240 22.174 C 4.821 22.492,5.449 22.658,6.309 22.720 C 7.054 22.773,16.960 22.772,17.711 22.718 C 20.085 22.548,21.593 21.154,21.916 18.830 C 21.939 18.663,22.077 16.657,22.222 14.373 C 22.520 9.672,22.529 9.262,22.348 8.596 C 21.918 7.016,20.691 5.801,19.119 5.400 C 18.949 5.356,18.578 5.300,18.295 5.275 C 17.759 5.228,17.595 5.176,17.395 4.990 C 17.337 4.937,17.081 4.480,16.826 3.976 C 16.294 2.926,16.049 2.581,15.558 2.188 C 15.064 1.793,14.533 1.522,13.920 1.354 C 13.648 1.279,13.488 1.270,12.220 1.259 C 11.450 1.253,10.694 1.261,10.540 1.278 M13.851 2.895 C 14.225 3.053,14.549 3.270,14.816 3.541 C 15.008 3.736,15.111 3.908,15.498 4.677 C 16.005 5.686,16.203 5.980,16.546 6.235 C 17.029 6.593,17.327 6.692,18.120 6.757 C 18.687 6.803,18.999 6.891,19.440 7.127 C 20.388 7.634,20.999 8.647,21.000 9.715 C 21.000 10.182,20.489 18.275,20.437 18.632 C 20.274 19.742,19.778 20.499,18.956 20.893 C 18.215 21.248,18.806 21.220,12.000 21.220 L 5.980 21.220 5.640 21.128 C 4.939 20.937,4.402 20.571,4.055 20.050 C 3.844 19.733,3.652 19.200,3.580 18.732 C 3.516 18.316,3.000 10.291,3.000 9.717 C 3.001 8.647,3.615 7.627,4.558 7.127 C 5.000 6.893,5.314 6.804,5.859 6.759 C 6.471 6.708,6.661 6.668,6.970 6.526 C 7.321 6.365,7.657 6.102,7.864 5.826 C 7.961 5.697,8.237 5.201,8.477 4.725 C 8.716 4.249,8.974 3.783,9.049 3.688 C 9.329 3.335,9.773 3.033,10.277 2.854 C 10.537 2.761,10.555 2.760,12.060 2.770 L 13.580 2.780 13.851 2.895 M10.420 7.259 C 10.398 7.267,10.331 7.284,10.271 7.297 C 10.124 7.329,9.881 7.548,9.814 7.708 C 9.691 8.002,9.771 8.336,10.015 8.550 C 10.095 8.621,10.211 8.693,10.271 8.709 C 10.413 8.749,13.587 8.749,13.729 8.709 C 13.881 8.667,14.121 8.447,14.186 8.292 C 14.297 8.027,14.241 7.711,14.047 7.506 C 13.810 7.255,13.854 7.261,12.080 7.252 C 11.189 7.248,10.442 7.251,10.420 7.259 M11.361 10.803 C 10.513 10.954,9.777 11.336,9.180 11.938 C 8.553 12.568,8.190 13.290,8.054 14.176 C 7.760 16.094,8.956 17.988,10.820 18.556 C 11.985 18.911,13.213 18.732,14.217 18.063 C 15.486 17.216,16.174 15.669,15.946 14.176 C 15.699 12.562,14.573 11.310,12.980 10.880 C 12.612 10.780,11.725 10.738,11.361 10.803 M12.807 12.389 C 13.227 12.534,13.533 12.734,13.836 13.065 C 14.289 13.560,14.486 14.072,14.486 14.760 C 14.487 15.463,14.258 16.015,13.756 16.516 C 13.225 17.046,12.626 17.271,11.849 17.231 C 11.204 17.197,10.722 16.985,10.264 16.533 C 9.744 16.020,9.513 15.474,9.514 14.760 C 9.514 14.269,9.580 13.985,9.786 13.595 C 10.362 12.497,11.641 11.987,12.807 12.389 " stroke="none" fill-rule="evenodd" fill="black"></path></svg>