<svg width="24" height="24" viewBox="0 0 24 24" fill="none" xmlns="http://www.w3.org/2000/svg"><path d="M7.740 2.126 C 6.615 2.251,5.700 2.727,5.184 3.454 C 4.760 4.051,4.582 4.565,4.257 6.126 L 4.026 7.232 3.400 7.246 C 2.799 7.259,2.768 7.264,2.612 7.367 C 2.372 7.526,2.267 7.721,2.267 8.007 C 2.267 8.203,2.286 8.270,2.383 8.408 C 2.565 8.665,2.737 8.732,3.259 8.752 L 3.703 8.769 3.499 9.749 C 3.304 10.690,3.291 10.733,3.178 10.812 C 2.409 11.351,2.051 12.011,1.883 13.200 C 1.799 13.792,1.275 19.628,1.272 20.000 C 1.269 20.465,1.344 20.785,1.566 21.240 C 1.797 21.716,2.274 22.191,2.760 22.430 C 3.353 22.722,3.476 22.739,5.000 22.740 C 6.460 22.740,6.631 22.722,7.063 22.517 C 7.349 22.382,7.664 22.069,7.817 21.765 C 7.875 21.651,8.028 21.253,8.156 20.881 C 8.432 20.081,8.489 19.974,8.700 19.864 C 8.859 19.781,8.889 19.780,12.000 19.780 C 15.060 19.780,15.144 19.782,15.299 19.860 C 15.507 19.965,15.566 20.075,15.844 20.881 C 15.972 21.253,16.125 21.651,16.183 21.765 C 16.410 22.214,16.857 22.555,17.380 22.679 C 17.672 22.748,19.741 22.781,20.225 22.724 C 20.956 22.637,21.425 22.412,21.944 21.900 C 22.466 21.384,22.724 20.770,22.726 20.040 C 22.727 19.679,22.207 13.835,22.117 13.200 C 21.963 12.107,21.615 11.409,20.993 10.949 L 20.705 10.735 20.500 9.748 L 20.295 8.760 20.626 8.760 C 21.118 8.760,21.339 8.701,21.520 8.520 C 21.918 8.122,21.730 7.423,21.189 7.286 C 21.087 7.261,20.773 7.240,20.490 7.240 L 19.975 7.240 19.762 6.210 C 19.519 5.033,19.340 4.398,19.134 3.987 C 18.573 2.865,17.646 2.278,16.192 2.122 C 15.713 2.070,8.206 2.074,7.740 2.126 M11.240 3.895 L 11.240 4.230 10.770 4.248 C 10.263 4.267,10.143 4.305,9.953 4.506 C 9.759 4.711,9.703 5.027,9.814 5.292 C 9.879 5.447,10.119 5.667,10.271 5.709 C 10.413 5.749,13.587 5.749,13.729 5.709 C 13.881 5.667,14.121 5.447,14.186 5.292 C 14.297 5.027,14.241 4.711,14.047 4.506 C 13.857 4.305,13.737 4.267,13.230 4.248 L 12.760 4.230 12.760 3.891 L 12.760 3.551 14.450 3.571 C 16.295 3.594,16.488 3.614,16.985 3.839 C 17.338 3.999,17.570 4.230,17.759 4.608 C 17.990 5.069,18.037 5.254,18.563 7.774 C 18.825 9.031,19.049 10.101,19.060 10.150 L 19.082 10.240 12.000 10.240 L 4.918 10.240 4.940 10.150 C 4.951 10.101,5.175 9.031,5.437 7.774 C 5.963 5.254,6.010 5.069,6.241 4.608 C 6.430 4.230,6.663 3.998,7.014 3.841 C 7.543 3.604,7.850 3.573,9.790 3.566 L 11.240 3.560 11.240 3.895 M19.180 11.800 C 19.724 11.889,20.129 12.088,20.307 12.354 C 20.447 12.562,20.546 12.866,20.617 13.301 C 20.689 13.744,21.240 19.680,21.240 20.014 C 21.240 20.131,21.211 20.311,21.176 20.414 C 21.094 20.654,20.788 20.991,20.535 21.121 C 20.341 21.220,20.334 21.220,19.043 21.232 C 17.709 21.245,17.557 21.230,17.499 21.086 C 17.484 21.050,17.374 20.732,17.254 20.380 C 17.134 20.028,16.974 19.612,16.899 19.456 C 16.552 18.732,15.966 18.375,14.971 18.281 C 14.410 18.228,9.593 18.227,9.032 18.281 C 8.128 18.366,7.548 18.693,7.167 19.331 C 7.094 19.453,6.937 19.838,6.817 20.186 C 6.481 21.163,6.488 21.147,6.366 21.197 C 6.289 21.229,5.865 21.240,4.958 21.232 C 3.665 21.220,3.659 21.220,3.465 21.121 C 3.212 20.991,2.906 20.654,2.824 20.414 C 2.789 20.311,2.760 20.131,2.760 20.014 C 2.760 19.680,3.311 13.744,3.383 13.301 C 3.454 12.866,3.553 12.562,3.693 12.354 C 3.864 12.097,4.282 11.887,4.788 11.802 C 5.073 11.754,18.888 11.752,19.180 11.800 M5.815 14.278 C 5.331 14.393,5.098 15.004,5.383 15.408 C 5.447 15.499,5.572 15.610,5.660 15.656 C 5.813 15.736,5.888 15.741,7.373 15.752 C 9.166 15.766,9.287 15.753,9.519 15.521 C 9.918 15.122,9.731 14.423,9.189 14.286 C 8.981 14.234,6.029 14.227,5.815 14.278 M14.815 14.278 C 14.331 14.393,14.098 15.004,14.383 15.408 C 14.447 15.499,14.572 15.610,14.660 15.656 C 14.813 15.736,14.888 15.741,16.373 15.752 C 18.166 15.766,18.287 15.753,18.519 15.521 C 18.918 15.122,18.731 14.423,18.189 14.286 C 17.981 14.234,15.029 14.227,14.815 14.278 " stroke="none" fill-rule="evenodd" fill="black"></path></svg>