<svg width="24" height="24" viewBox="0 0 24 24" fill="none" xmlns="http://www.w3.org/2000/svg"><path d="M5.140 2.806 C 3.777 2.923,2.902 3.276,2.266 3.963 C 1.672 4.605,1.378 5.493,1.281 6.940 C 1.229 7.730,1.229 16.270,1.281 17.060 C 1.378 18.507,1.672 19.395,2.266 20.037 C 2.848 20.666,3.629 21.007,4.860 21.168 C 5.442 21.244,18.554 21.244,19.140 21.168 C 20.780 20.956,21.740 20.358,22.260 19.227 C 22.541 18.615,22.666 17.935,22.721 16.726 C 22.772 15.590,22.769 12.108,22.717 11.881 C 22.610 11.419,22.148 11.167,21.729 11.342 C 21.552 11.416,21.416 11.537,21.326 11.700 C 21.267 11.807,21.258 12.117,21.237 14.620 C 21.218 16.969,21.204 17.473,21.149 17.747 C 20.928 18.868,20.598 19.280,19.716 19.535 C 19.002 19.741,19.032 19.740,11.940 19.740 C 5.798 19.740,5.309 19.735,4.890 19.669 C 3.809 19.497,3.311 19.177,3.043 18.481 C 2.781 17.803,2.788 17.924,2.771 13.370 L 2.757 9.240 7.206 9.240 L 11.655 9.240 11.830 9.155 C 12.090 9.029,12.220 8.811,12.220 8.500 C 12.220 8.189,12.090 7.971,11.830 7.845 L 11.655 7.760 7.201 7.760 L 2.748 7.760 2.772 7.150 C 2.800 6.420,2.879 5.943,3.043 5.519 C 3.307 4.834,3.799 4.511,4.848 4.335 C 5.217 4.273,5.755 4.263,10.003 4.243 L 14.746 4.220 14.908 4.113 C 15.373 3.805,15.329 3.086,14.830 2.845 L 14.655 2.760 10.097 2.765 C 7.591 2.769,5.360 2.787,5.140 2.806 M19.680 2.873 C 19.353 2.982,19.161 3.091,18.834 3.354 C 18.673 3.484,17.666 4.470,16.597 5.545 C 14.257 7.899,14.425 7.659,14.236 8.926 C 14.090 9.902,14.090 10.354,14.236 10.636 C 14.378 10.910,14.654 11.177,14.913 11.294 C 15.282 11.459,15.476 11.463,16.458 11.321 C 17.350 11.192,17.571 11.134,17.910 10.938 C 18.131 10.811,21.793 7.184,22.169 6.720 C 22.873 5.851,22.930 4.991,22.341 4.104 C 22.013 3.611,21.376 3.087,20.886 2.909 C 20.565 2.792,19.975 2.775,19.680 2.873 M20.477 4.358 C 20.673 4.458,21.088 4.873,21.174 5.053 C 21.287 5.291,21.261 5.444,21.064 5.706 C 20.967 5.835,20.843 5.982,20.788 6.033 L 20.688 6.126 20.534 6.045 C 20.156 5.848,19.770 5.468,19.528 5.055 L 19.408 4.849 19.594 4.667 C 19.808 4.457,20.099 4.281,20.232 4.280 C 20.282 4.280,20.392 4.315,20.477 4.358 M18.640 6.380 C 18.803 6.588,19.159 6.920,19.464 7.147 L 19.580 7.233 18.360 8.457 C 17.562 9.257,17.099 9.693,17.020 9.717 C 16.872 9.763,15.642 9.935,15.620 9.913 C 15.612 9.905,15.648 9.601,15.701 9.239 C 15.754 8.877,15.798 8.554,15.799 8.521 C 15.800 8.489,16.363 7.899,17.050 7.210 L 18.300 5.957 18.380 6.053 C 18.424 6.106,18.541 6.253,18.640 6.380 M5.700 15.817 C 5.172 16.053,5.110 16.792,5.589 17.121 L 5.734 17.220 7.003 17.220 L 8.273 17.220 8.426 17.096 C 8.511 17.027,8.613 16.916,8.653 16.847 C 8.743 16.694,8.750 16.334,8.666 16.174 C 8.588 16.024,8.407 15.855,8.267 15.803 C 8.091 15.736,5.853 15.748,5.700 15.817 M10.201 15.823 C 10.018 15.903,9.928 15.988,9.836 16.168 C 9.697 16.441,9.767 16.850,9.987 17.048 C 10.197 17.238,10.224 17.240,12.506 17.240 C 14.614 17.240,14.658 17.238,14.830 17.155 C 15.090 17.029,15.220 16.811,15.220 16.500 C 15.220 16.189,15.090 15.971,14.830 15.845 C 14.658 15.762,14.616 15.760,12.497 15.762 C 10.667 15.763,10.319 15.772,10.201 15.823 " stroke="none" fill-rule="evenodd" fill="black"></path></svg>