<svg width="24" height="24" viewBox="0 0 24 24" fill="none" xmlns="http://www.w3.org/2000/svg"><path d="M8.393 1.282 C 6.328 1.431,4.327 2.476,3.001 4.099 C 2.224 5.050,1.632 6.308,1.403 7.495 C 1.303 8.014,1.230 8.965,1.275 9.162 C 1.450 9.921,2.553 9.921,2.716 9.162 C 2.740 9.049,2.760 8.844,2.761 8.708 C 2.762 8.219,2.905 7.499,3.119 6.896 C 3.439 5.996,3.925 5.241,4.626 4.552 C 5.170 4.017,5.580 3.724,6.240 3.399 C 6.731 3.158,7.592 2.862,7.554 2.948 C 7.546 2.966,7.472 3.100,7.388 3.248 C 7.304 3.395,7.226 3.576,7.214 3.649 C 7.187 3.818,7.255 4.078,7.364 4.216 C 7.626 4.549,8.200 4.569,8.484 4.255 C 8.639 4.084,9.669 2.345,9.716 2.175 C 9.845 1.707,9.419 1.214,8.912 1.246 C 8.862 1.249,8.628 1.265,8.393 1.282 M18.020 1.285 C 16.839 1.381,15.663 1.934,14.798 2.798 C 12.755 4.842,12.755 8.158,14.798 10.202 C 16.842 12.245,20.158 12.245,22.202 10.202 C 24.245 8.158,24.245 4.842,22.202 2.798 C 21.095 1.692,19.609 1.154,18.020 1.285 M19.532 2.895 C 20.783 3.270,21.721 4.204,22.105 5.460 C 22.207 5.793,22.216 5.871,22.216 6.500 C 22.216 7.126,22.207 7.208,22.108 7.532 C 21.719 8.794,20.795 9.721,19.540 10.105 C 19.207 10.207,19.129 10.216,18.500 10.216 C 17.871 10.216,17.793 10.207,17.460 10.105 C 16.205 9.721,15.281 8.794,14.892 7.532 C 14.793 7.208,14.784 7.126,14.784 6.500 C 14.784 5.871,14.793 5.793,14.895 5.460 C 15.211 4.427,15.902 3.608,16.860 3.131 C 17.430 2.847,17.866 2.758,18.600 2.776 C 19.084 2.788,19.238 2.807,19.532 2.895 M3.306 12.804 C 2.954 12.851,2.471 13.013,2.234 13.164 C 1.831 13.422,1.515 13.887,1.381 14.420 C 1.272 14.853,1.241 15.590,1.241 17.760 C 1.241 20.540,1.280 21.009,1.558 21.580 C 1.885 22.250,2.506 22.618,3.480 22.718 C 4.027 22.774,9.973 22.774,10.520 22.718 C 11.494 22.618,12.115 22.250,12.442 21.580 C 12.720 21.009,12.759 20.540,12.759 17.760 C 12.759 14.914,12.722 14.504,12.414 13.889 C 12.157 13.377,11.737 13.063,11.048 12.869 C 10.743 12.783,10.700 12.782,7.160 12.775 C 5.191 12.771,3.457 12.785,3.306 12.804 M10.742 14.331 C 11.146 14.466,11.206 14.621,11.230 15.590 L 11.249 16.320 7.000 16.320 L 2.751 16.320 2.770 15.590 C 2.797 14.497,2.874 14.370,3.560 14.278 C 3.681 14.262,5.301 14.252,7.160 14.256 C 10.224 14.262,10.559 14.269,10.742 14.331 M21.815 14.277 C 21.641 14.320,21.462 14.456,21.359 14.622 C 21.288 14.737,21.266 14.858,21.237 15.291 C 21.187 16.062,21.106 16.471,20.880 17.107 C 20.567 17.988,20.063 18.771,19.374 19.449 C 18.843 19.971,18.438 20.260,17.769 20.594 C 17.278 20.839,16.407 21.140,16.446 21.052 C 16.454 21.034,16.528 20.900,16.612 20.752 C 16.696 20.605,16.774 20.424,16.786 20.351 C 16.813 20.182,16.745 19.922,16.636 19.784 C 16.374 19.451,15.800 19.431,15.516 19.745 C 15.355 19.922,14.328 21.660,14.281 21.835 C 14.175 22.230,14.425 22.622,14.844 22.716 C 15.090 22.772,15.988 22.701,16.567 22.582 C 17.737 22.340,18.931 21.782,19.837 21.054 C 20.159 20.795,20.733 20.225,21.000 19.900 C 21.995 18.685,22.604 17.146,22.717 15.559 C 22.760 14.954,22.731 14.735,22.580 14.536 C 22.421 14.327,22.078 14.211,21.815 14.277 M11.233 19.230 C 11.221 20.596,11.216 20.668,11.134 20.847 C 10.939 21.269,11.025 21.260,7.000 21.260 C 2.975 21.260,3.061 21.269,2.866 20.847 C 2.784 20.668,2.779 20.596,2.767 19.230 L 2.755 17.800 7.000 17.800 L 11.245 17.800 11.233 19.230 " stroke="none" fill-rule="evenodd" fill="black"></path></svg>