<svg width="24" height="24" viewBox="0 0 24 24" fill="none" xmlns="http://www.w3.org/2000/svg"><path d="M5.380 2.786 C 3.346 2.951,2.323 3.511,1.737 4.778 C 1.471 5.354,1.342 5.998,1.280 7.065 C 1.229 7.943,1.229 16.057,1.280 16.935 C 1.342 18.002,1.471 18.646,1.737 19.222 C 2.269 20.374,3.190 20.947,4.860 21.167 C 5.445 21.244,18.555 21.244,19.140 21.167 C 20.810 20.947,21.731 20.374,22.263 19.222 C 22.683 18.313,22.773 17.343,22.753 13.940 C 22.739 11.636,22.746 11.709,22.513 11.492 C 22.391 11.377,22.155 11.280,22.000 11.280 C 21.845 11.280,21.609 11.377,21.487 11.492 C 21.251 11.712,21.262 11.572,21.238 14.620 C 21.214 17.615,21.205 17.752,20.996 18.372 C 20.725 19.177,20.213 19.511,18.980 19.688 C 18.454 19.764,5.546 19.764,5.020 19.688 C 3.451 19.463,2.977 18.963,2.802 17.352 C 2.776 17.107,2.760 15.533,2.760 13.102 L 2.760 9.240 8.210 9.239 C 13.413 9.238,13.667 9.235,13.820 9.165 C 14.010 9.077,14.096 8.988,14.178 8.790 C 14.257 8.602,14.257 8.398,14.178 8.210 C 14.096 8.012,14.010 7.923,13.820 7.835 C 13.667 7.765,13.413 7.762,8.210 7.761 L 2.760 7.760 2.760 7.398 C 2.760 6.928,2.824 6.345,2.923 5.923 C 3.155 4.933,3.634 4.539,4.860 4.333 C 5.211 4.274,5.782 4.263,9.500 4.243 C 13.335 4.222,13.751 4.214,13.860 4.154 C 14.187 3.974,14.326 3.563,14.178 3.210 C 14.096 3.012,14.010 2.923,13.820 2.835 C 13.668 2.765,13.462 2.762,9.600 2.768 C 7.367 2.771,5.468 2.779,5.380 2.786 M17.085 3.589 C 17.032 3.599,16.903 3.693,16.798 3.798 C 16.642 3.954,16.601 4.025,16.578 4.179 C 16.523 4.547,16.573 4.625,17.413 5.470 L 18.178 6.241 17.475 6.950 C 17.088 7.341,16.733 7.717,16.685 7.787 C 16.517 8.035,16.534 8.415,16.726 8.659 C 16.902 8.882,17.302 8.984,17.587 8.878 C 17.649 8.855,18.046 8.491,18.470 8.068 L 19.240 7.301 19.990 8.046 C 20.402 8.457,20.798 8.821,20.868 8.856 C 21.025 8.935,21.319 8.939,21.491 8.865 C 21.647 8.798,21.820 8.621,21.877 8.467 C 21.940 8.303,21.929 8.015,21.856 7.868 C 21.821 7.798,21.457 7.402,21.046 6.990 L 20.301 6.240 21.068 5.470 C 21.491 5.046,21.855 4.649,21.878 4.587 C 21.984 4.302,21.882 3.902,21.659 3.726 C 21.414 3.534,21.034 3.517,20.787 3.686 C 20.717 3.734,20.340 4.089,19.949 4.476 L 19.239 5.178 18.489 4.431 C 17.621 3.564,17.524 3.506,17.085 3.589 M5.720 15.805 C 5.458 15.909,5.269 16.200,5.269 16.500 C 5.269 16.807,5.460 17.095,5.733 17.197 C 5.803 17.224,6.281 17.240,7.000 17.240 C 7.719 17.240,8.197 17.224,8.267 17.197 C 8.540 17.095,8.731 16.807,8.731 16.500 C 8.731 16.193,8.540 15.905,8.267 15.803 C 8.122 15.748,5.859 15.750,5.720 15.805 M10.180 15.835 C 9.990 15.923,9.904 16.012,9.822 16.210 C 9.708 16.483,9.783 16.869,9.986 17.048 C 10.199 17.238,10.224 17.240,12.509 17.239 C 14.510 17.238,14.671 17.233,14.820 17.165 C 15.010 17.077,15.096 16.988,15.178 16.790 C 15.287 16.530,15.232 16.193,15.048 15.986 C 15.011 15.943,14.908 15.876,14.820 15.835 C 14.671 15.767,14.511 15.762,12.500 15.762 C 10.489 15.762,10.329 15.767,10.180 15.835 " stroke="none" fill-rule="evenodd" fill="black"></path></svg>