<svg width="24" height="24" viewBox="0 0 24 24" fill="none" xmlns="http://www.w3.org/2000/svg"><path d="M5.380 2.786 C 3.346 2.951,2.323 3.511,1.737 4.778 C 1.471 5.354,1.342 5.998,1.280 7.065 C 1.229 7.943,1.229 16.057,1.280 16.935 C 1.342 18.002,1.471 18.646,1.737 19.222 C 2.269 20.374,3.190 20.947,4.860 21.167 C 5.445 21.244,18.555 21.244,19.140 21.167 C 20.810 20.947,21.731 20.374,22.263 19.222 C 22.697 18.283,22.771 17.403,22.752 13.440 C 22.741 11.092,22.733 10.808,22.674 10.700 C 22.540 10.458,22.255 10.280,22.000 10.280 C 21.745 10.280,21.460 10.458,21.326 10.700 C 21.267 10.808,21.258 11.150,21.238 14.120 C 21.214 17.665,21.210 17.736,20.996 18.372 C 20.725 19.177,20.213 19.511,18.980 19.688 C 18.454 19.764,5.546 19.764,5.020 19.688 C 3.451 19.463,2.977 18.963,2.802 17.352 C 2.776 17.107,2.760 15.533,2.760 13.102 L 2.760 9.240 8.210 9.239 C 13.413 9.238,13.667 9.235,13.820 9.165 C 14.010 9.077,14.096 8.988,14.178 8.790 C 14.257 8.602,14.257 8.398,14.178 8.210 C 14.096 8.012,14.010 7.923,13.820 7.835 C 13.667 7.765,13.413 7.762,8.210 7.761 L 2.760 7.760 2.760 7.398 C 2.760 6.928,2.824 6.345,2.923 5.923 C 3.155 4.933,3.634 4.539,4.860 4.333 C 5.211 4.274,5.782 4.263,9.500 4.243 C 13.335 4.222,13.751 4.214,13.860 4.154 C 14.187 3.974,14.326 3.563,14.178 3.210 C 14.096 3.012,14.010 2.923,13.820 2.835 C 13.668 2.765,13.462 2.762,9.600 2.768 C 7.367 2.771,5.468 2.779,5.380 2.786 M21.680 2.824 C 21.593 2.861,20.872 3.551,19.771 4.650 L 18.002 6.416 17.491 5.914 C 17.210 5.638,16.917 5.380,16.841 5.340 C 16.669 5.252,16.340 5.247,16.179 5.331 C 15.814 5.521,15.664 5.932,15.822 6.310 C 15.905 6.510,17.490 8.095,17.690 8.178 C 17.878 8.257,18.122 8.257,18.311 8.178 C 18.494 8.102,22.556 4.053,22.662 3.841 C 22.748 3.668,22.752 3.338,22.669 3.179 C 22.588 3.024,22.409 2.856,22.267 2.803 C 22.109 2.743,21.845 2.752,21.680 2.824 M5.720 15.805 C 5.458 15.909,5.269 16.200,5.269 16.500 C 5.269 16.807,5.460 17.095,5.733 17.197 C 5.803 17.224,6.281 17.240,7.000 17.240 C 7.719 17.240,8.197 17.224,8.267 17.197 C 8.540 17.095,8.731 16.807,8.731 16.500 C 8.731 16.193,8.540 15.905,8.267 15.803 C 8.122 15.748,5.859 15.750,5.720 15.805 M10.180 15.835 C 9.990 15.923,9.904 16.012,9.822 16.210 C 9.708 16.483,9.783 16.869,9.986 17.048 C 10.199 17.238,10.224 17.240,12.509 17.239 C 14.510 17.238,14.671 17.233,14.820 17.165 C 15.010 17.077,15.096 16.988,15.178 16.790 C 15.287 16.530,15.232 16.193,15.048 15.986 C 15.011 15.943,14.908 15.876,14.820 15.835 C 14.671 15.767,14.511 15.762,12.500 15.762 C 10.489 15.762,10.329 15.767,10.180 15.835 " stroke="none" fill-rule="evenodd" fill="black"></path></svg>