<svg width="24" height="24" viewBox="0 0 24 24" fill="none" xmlns="http://www.w3.org/2000/svg"><path d="M5.220 2.803 C 2.856 2.994,1.717 3.949,1.379 6.025 C 1.265 6.724,1.241 7.767,1.241 12.000 C 1.241 16.226,1.265 17.273,1.378 17.976 C 1.648 19.652,2.472 20.620,3.951 20.998 C 4.833 21.223,4.557 21.214,11.580 21.230 C 18.164 21.245,18.743 21.236,19.561 21.096 C 20.882 20.871,21.738 20.293,22.221 19.300 C 22.520 18.687,22.655 18.045,22.719 16.947 C 22.771 16.054,22.771 7.946,22.719 7.053 C 22.655 5.955,22.520 5.313,22.221 4.700 C 21.643 3.511,20.618 2.959,18.700 2.801 C 18.123 2.753,5.813 2.756,5.220 2.803 M18.980 4.314 C 19.450 4.385,19.882 4.500,20.147 4.625 C 20.440 4.763,20.751 5.073,20.886 5.361 C 21.096 5.806,21.240 6.638,21.240 7.398 L 21.240 7.760 12.000 7.760 L 2.760 7.760 2.760 7.398 C 2.760 6.319,3.003 5.355,3.373 4.966 C 3.740 4.578,4.378 4.366,5.421 4.284 C 6.127 4.229,18.594 4.256,18.980 4.314 M21.240 13.102 C 21.240 15.503,21.224 17.110,21.198 17.352 C 21.050 18.734,20.639 19.305,19.607 19.562 C 18.917 19.733,18.906 19.733,12.440 19.750 C 6.165 19.765,5.313 19.751,4.638 19.622 C 3.398 19.385,2.964 18.848,2.802 17.352 C 2.776 17.107,2.760 15.533,2.760 13.102 L 2.760 9.240 12.000 9.240 L 21.240 9.240 21.240 13.102 M5.770 15.793 C 5.632 15.834,5.408 16.028,5.335 16.171 C 5.177 16.476,5.296 16.919,5.589 17.121 L 5.734 17.220 7.000 17.220 L 8.266 17.220 8.411 17.121 C 8.616 16.980,8.731 16.756,8.731 16.498 C 8.731 16.248,8.646 16.082,8.426 15.904 L 8.273 15.780 7.066 15.773 C 6.403 15.769,5.819 15.778,5.770 15.793 M10.167 15.846 C 9.634 16.109,9.632 16.890,10.162 17.161 C 10.310 17.237,10.406 17.240,12.500 17.240 C 14.594 17.240,14.690 17.237,14.838 17.161 C 15.370 16.890,15.365 16.104,14.830 15.845 C 14.658 15.762,14.614 15.760,12.497 15.760 C 10.372 15.760,10.337 15.761,10.167 15.846 " stroke="none" fill-rule="evenodd" fill="black"></path></svg>