<svg width="24" height="24" viewBox="0 0 24 24" fill="none" xmlns="http://www.w3.org/2000/svg"><path d="M5.260 2.803 C 3.398 2.957,2.366 3.510,1.790 4.662 C 1.552 5.139,1.436 5.550,1.315 6.340 C 1.248 6.784,1.216 16.288,1.279 17.128 C 1.371 18.348,1.565 19.056,1.981 19.681 C 2.402 20.315,3.074 20.762,3.960 20.999 C 4.729 21.205,4.876 21.212,8.389 21.229 C 11.577 21.245,11.682 21.243,11.853 21.167 C 11.950 21.124,12.081 21.021,12.144 20.938 C 12.247 20.803,12.260 20.754,12.260 20.500 C 12.260 20.248,12.247 20.196,12.148 20.067 C 12.086 19.986,11.968 19.885,11.885 19.843 C 11.741 19.769,11.592 19.765,8.497 19.750 C 5.710 19.736,5.204 19.724,4.860 19.667 C 3.713 19.475,3.239 19.131,2.976 18.301 C 2.760 17.617,2.750 17.443,2.731 13.970 L 2.713 10.760 11.977 10.760 L 21.240 10.760 21.240 11.550 C 21.240 12.004,21.259 12.408,21.285 12.499 C 21.460 13.131,22.303 13.244,22.634 12.680 L 22.740 12.500 22.740 9.760 C 22.739 6.915,22.721 6.499,22.561 5.733 C 22.446 5.179,22.253 4.702,21.983 4.302 C 21.432 3.489,20.620 3.060,19.240 2.854 C 18.821 2.791,18.198 2.784,12.220 2.777 C 8.612 2.773,5.480 2.785,5.260 2.803 M18.940 4.314 C 20.223 4.506,20.736 4.848,21.015 5.701 C 21.175 6.191,21.210 6.549,21.229 7.910 L 21.249 9.240 11.978 9.240 L 2.708 9.240 2.732 8.090 C 2.771 6.202,2.922 5.460,3.364 4.980 C 3.755 4.556,4.402 4.348,5.540 4.281 C 6.423 4.229,18.568 4.259,18.940 4.314 M17.579 13.280 C 15.757 13.440,14.199 14.633,13.546 16.369 C 13.129 17.475,13.182 18.886,13.678 19.945 C 14.166 20.987,14.931 21.771,15.938 22.262 C 16.469 22.521,16.991 22.667,17.570 22.719 C 19.588 22.898,21.447 21.813,22.322 19.945 C 22.820 18.883,22.871 17.476,22.451 16.361 C 21.695 14.349,19.709 13.093,17.579 13.280 M18.980 14.894 C 19.508 15.068,19.854 15.286,20.284 15.716 C 20.937 16.368,21.196 16.956,21.229 17.860 C 21.245 18.300,21.235 18.432,21.163 18.720 C 20.922 19.685,20.310 20.465,19.465 20.881 C 18.928 21.146,18.544 21.240,18.000 21.240 C 17.456 21.240,17.072 21.146,16.535 20.881 C 15.690 20.465,15.078 19.685,14.837 18.720 C 14.765 18.432,14.755 18.300,14.771 17.860 C 14.804 16.956,15.063 16.368,15.716 15.716 C 16.433 14.999,17.066 14.750,18.100 14.775 C 18.572 14.787,18.710 14.806,18.980 14.894 M5.815 15.278 C 5.331 15.393,5.098 16.004,5.383 16.408 C 5.447 16.499,5.572 16.610,5.660 16.656 C 5.815 16.738,5.880 16.740,7.875 16.752 C 10.208 16.765,10.281 16.759,10.519 16.521 C 10.918 16.122,10.731 15.423,10.189 15.286 C 9.980 15.234,6.031 15.226,5.815 15.278 M19.258 16.336 C 19.191 16.365,18.757 16.741,18.294 17.172 L 17.452 17.954 17.196 17.695 C 16.841 17.336,16.720 17.267,16.440 17.267 C 15.941 17.267,15.622 17.681,15.730 18.189 C 15.767 18.362,15.827 18.437,16.355 18.974 C 16.677 19.300,17.011 19.604,17.097 19.648 C 17.311 19.758,17.661 19.735,17.853 19.598 C 18.055 19.452,20.110 17.533,20.184 17.419 C 20.287 17.263,20.327 17.015,20.279 16.837 C 20.227 16.644,20.026 16.407,19.852 16.334 C 19.689 16.266,19.417 16.267,19.258 16.336 " stroke="none" fill-rule="evenodd" fill="black"></path></svg>