<svg width="24" height="24" viewBox="0 0 24 24" fill="none" xmlns="http://www.w3.org/2000/svg"><path d="M12.600 1.283 C 11.964 1.353,11.386 1.639,10.560 2.295 C 10.214 2.570,2.938 9.814,2.509 10.312 C 1.614 11.349,1.273 12.063,1.273 12.900 C 1.273 13.772,1.661 14.541,2.653 15.634 C 2.885 15.890,4.233 17.256,5.648 18.669 L 8.220 21.238 5.000 21.249 L 1.780 21.260 1.631 21.353 C 1.053 21.712,1.184 22.576,1.838 22.716 C 2.118 22.776,21.898 22.777,22.159 22.717 C 22.524 22.633,22.732 22.361,22.728 21.973 C 22.726 21.712,22.618 21.519,22.388 21.367 L 22.226 21.260 18.105 21.249 L 13.983 21.238 17.725 17.489 C 19.783 15.427,21.574 13.605,21.705 13.440 C 22.463 12.485,22.723 11.886,22.723 11.100 C 22.722 10.307,22.429 9.646,21.668 8.720 C 21.303 8.277,15.723 2.697,15.280 2.332 C 14.266 1.498,13.472 1.187,12.600 1.283 M13.480 2.905 C 13.749 3.032,14.217 3.372,14.600 3.719 L 14.820 3.919 9.376 9.363 L 3.932 14.808 3.730 14.594 C 3.369 14.213,3.081 13.827,2.929 13.522 C 2.794 13.252,2.780 13.194,2.780 12.902 C 2.780 12.609,2.793 12.554,2.930 12.287 C 3.012 12.127,3.182 11.857,3.307 11.687 C 3.563 11.341,10.754 4.106,11.340 3.606 C 11.814 3.200,11.941 3.109,12.238 2.958 C 12.585 2.782,12.664 2.761,12.960 2.773 C 13.153 2.780,13.287 2.814,13.480 2.905 M18.165 7.270 C 20.469 9.584,20.805 9.957,21.085 10.514 C 21.202 10.749,21.218 10.818,21.219 11.100 C 21.219 11.392,21.206 11.446,21.069 11.714 C 20.744 12.349,20.518 12.590,16.373 16.724 C 12.568 20.519,12.280 20.787,11.686 21.085 C 11.452 21.202,11.382 21.218,11.100 21.219 C 10.809 21.220,10.753 21.206,10.479 21.070 C 10.314 20.987,10.017 20.791,9.819 20.633 C 9.622 20.475,8.452 19.342,7.220 18.114 L 4.980 15.882 10.420 10.441 C 13.412 7.448,15.870 5.000,15.882 5.000 C 15.894 5.000,16.921 6.021,18.165 7.270 M16.100 12.460 C 16.078 12.467,16.006 12.485,15.940 12.499 C 15.757 12.539,13.183 15.117,13.094 15.349 C 12.969 15.679,13.127 16.080,13.447 16.244 C 13.678 16.361,14.012 16.338,14.228 16.188 C 14.314 16.129,14.934 15.527,15.606 14.850 C 16.927 13.522,16.947 13.495,16.911 13.117 C 16.888 12.883,16.755 12.674,16.561 12.567 C 16.422 12.491,16.178 12.434,16.100 12.460 M12.129 16.359 C 12.057 16.376,11.928 16.439,11.842 16.498 C 11.592 16.672,10.482 17.825,10.418 17.978 C 10.264 18.348,10.417 18.760,10.779 18.949 C 10.940 19.033,11.269 19.028,11.441 18.940 C 11.601 18.858,12.745 17.743,12.902 17.517 C 13.095 17.238,13.083 16.857,12.872 16.617 C 12.671 16.388,12.402 16.295,12.129 16.359 " stroke="none" fill-rule="evenodd" fill="black"></path></svg>