<svg width="24" height="24" viewBox="0 0 24 24" fill="none" xmlns="http://www.w3.org/2000/svg"><path d="M5.380 2.786 C 3.346 2.951,2.323 3.511,1.737 4.778 C 1.471 5.354,1.342 5.998,1.280 7.065 C 1.229 7.943,1.229 16.057,1.280 16.935 C 1.342 18.002,1.471 18.646,1.737 19.222 C 2.269 20.374,3.190 20.947,4.860 21.167 C 5.445 21.244,18.555 21.244,19.140 21.167 C 20.810 20.947,21.731 20.374,22.263 19.222 C 22.645 18.394,22.780 17.219,22.753 14.940 C 22.739 13.735,22.733 13.697,22.513 13.492 C 22.391 13.377,22.155 13.280,22.000 13.280 C 21.845 13.280,21.609 13.377,21.487 13.492 C 21.258 13.705,21.262 13.672,21.236 15.620 C 21.211 17.521,21.186 17.808,20.996 18.372 C 20.725 19.177,20.213 19.511,18.980 19.688 C 18.454 19.764,5.546 19.764,5.020 19.688 C 3.451 19.463,2.977 18.963,2.802 17.352 C 2.776 17.107,2.760 15.533,2.760 13.102 L 2.760 9.240 8.710 9.239 C 14.398 9.238,14.667 9.235,14.820 9.165 C 15.010 9.077,15.096 8.988,15.178 8.790 C 15.257 8.602,15.257 8.398,15.178 8.210 C 15.096 8.012,15.010 7.923,14.820 7.835 C 14.667 7.765,14.398 7.762,8.710 7.761 L 2.760 7.760 2.760 7.398 C 2.760 6.612,2.908 5.777,3.126 5.334 C 3.400 4.778,3.886 4.497,4.860 4.333 C 5.214 4.273,5.804 4.263,10.000 4.243 C 14.300 4.222,14.751 4.214,14.860 4.154 C 15.187 3.974,15.326 3.563,15.178 3.210 C 15.096 3.012,15.010 2.923,14.820 2.835 C 14.667 2.765,14.447 2.762,10.100 2.768 C 7.592 2.771,5.468 2.779,5.380 2.786 M19.598 2.875 C 19.361 3.028,17.430 4.982,17.339 5.159 C 17.252 5.331,17.247 5.661,17.331 5.821 C 17.469 6.086,17.716 6.240,18.004 6.240 C 18.259 6.240,18.404 6.152,18.833 5.741 L 19.237 5.353 19.248 7.527 C 19.261 9.912,19.250 9.805,19.506 10.047 C 19.783 10.309,20.217 10.309,20.494 10.047 C 20.750 9.805,20.739 9.912,20.752 7.527 L 20.763 5.353 21.167 5.741 C 21.389 5.954,21.631 6.154,21.704 6.184 C 22.198 6.391,22.731 6.036,22.731 5.500 C 22.731 5.386,22.701 5.238,22.661 5.159 C 22.555 4.952,20.536 2.935,20.338 2.839 C 20.092 2.720,19.817 2.733,19.598 2.875 M5.720 15.805 C 5.458 15.909,5.269 16.200,5.269 16.500 C 5.269 16.807,5.460 17.095,5.733 17.197 C 5.803 17.224,6.281 17.240,7.000 17.240 C 7.719 17.240,8.197 17.224,8.267 17.197 C 8.540 17.095,8.731 16.807,8.731 16.500 C 8.731 16.193,8.540 15.905,8.267 15.803 C 8.122 15.748,5.859 15.750,5.720 15.805 M10.180 15.835 C 9.990 15.923,9.904 16.012,9.822 16.210 C 9.708 16.483,9.783 16.869,9.986 17.048 C 10.199 17.238,10.224 17.240,12.509 17.239 C 14.510 17.238,14.671 17.233,14.820 17.165 C 15.010 17.077,15.096 16.988,15.178 16.790 C 15.287 16.530,15.232 16.193,15.048 15.986 C 15.011 15.943,14.908 15.876,14.820 15.835 C 14.671 15.767,14.511 15.762,12.500 15.762 C 10.489 15.762,10.329 15.767,10.180 15.835 " stroke="none" fill-rule="evenodd" fill="black"></path></svg>