<svg width="24" height="24" viewBox="0 0 24 24" fill="none" xmlns="http://www.w3.org/2000/svg"><path d="M21.900 1.259 C 21.878 1.267,21.806 1.285,21.741 1.300 C 21.657 1.318,21.376 1.570,20.794 2.148 L 19.966 2.969 19.613 2.906 C 18.832 2.764,18.297 2.755,11.640 2.770 C 4.568 2.785,4.830 2.777,3.971 2.997 C 2.467 3.382,1.654 4.331,1.379 6.025 C 1.346 6.225,1.302 6.693,1.280 7.065 C 1.229 7.950,1.230 16.020,1.281 16.909 C 1.373 18.501,1.676 19.423,2.323 20.086 L 2.585 20.356 2.011 20.928 C 1.320 21.615,1.267 21.693,1.267 22.000 C 1.267 22.498,1.678 22.816,2.189 22.712 C 2.376 22.674,2.592 22.460,12.490 12.566 C 18.342 6.717,22.628 2.403,22.665 2.324 C 22.816 2.006,22.705 1.590,22.416 1.393 C 22.274 1.295,21.999 1.224,21.900 1.259 M18.374 4.266 L 18.647 4.292 16.914 6.026 L 15.180 7.760 8.970 7.760 L 2.760 7.760 2.760 7.398 C 2.760 6.612,2.908 5.777,3.126 5.334 C 3.454 4.668,4.189 4.346,5.560 4.267 C 5.999 4.242,18.107 4.241,18.374 4.266 M21.619 6.257 C 21.529 6.311,21.415 6.430,21.359 6.527 L 21.260 6.700 21.237 12.080 C 21.216 16.916,21.207 17.494,21.146 17.793 C 20.893 19.043,20.465 19.443,19.140 19.668 C 18.782 19.728,18.163 19.738,13.240 19.758 C 8.234 19.778,7.729 19.786,7.620 19.846 C 7.058 20.154,7.144 21.023,7.755 21.202 C 7.855 21.232,9.600 21.240,13.400 21.230 C 19.330 21.214,19.181 21.219,20.030 21.003 C 21.526 20.621,22.347 19.663,22.621 17.981 C 22.742 17.243,22.764 16.098,22.752 11.380 L 22.740 6.700 22.640 6.526 C 22.438 6.172,21.968 6.048,21.619 6.257 M10.440 12.500 L 7.180 15.760 6.513 15.760 C 5.801 15.760,5.687 15.782,5.506 15.953 C 5.339 16.111,5.269 16.273,5.269 16.500 C 5.269 16.747,5.348 16.910,5.557 17.088 L 5.716 17.224 4.686 18.254 L 3.655 19.284 3.447 19.079 C 3.084 18.722,2.896 18.218,2.802 17.352 C 2.776 17.107,2.760 15.533,2.760 13.102 L 2.760 9.240 8.230 9.240 L 13.700 9.240 10.440 12.500 M10.720 15.805 C 10.458 15.909,10.269 16.200,10.269 16.500 C 10.269 16.807,10.460 17.095,10.733 17.197 C 10.807 17.225,11.500 17.240,12.753 17.239 C 14.518 17.238,14.672 17.233,14.820 17.165 C 15.010 17.077,15.096 16.988,15.178 16.790 C 15.287 16.530,15.232 16.193,15.048 15.986 C 15.011 15.943,14.908 15.876,14.820 15.835 C 14.672 15.767,14.520 15.762,12.740 15.763 C 11.566 15.764,10.781 15.781,10.720 15.805 " stroke="none" fill-rule="evenodd" fill="black"></path></svg>