<svg width="24" height="24" viewBox="0 0 24 24" fill="none" xmlns="http://www.w3.org/2000/svg"><path d="M5.200 2.825 C 4.138 2.930,3.463 3.102,2.920 3.408 C 2.065 3.888,1.560 4.654,1.324 5.825 C 1.165 6.616,1.153 7.109,1.169 12.400 C 1.186 17.794,1.185 17.765,1.383 18.531 C 1.767 20.018,2.724 20.857,4.352 21.135 C 5.082 21.259,5.927 21.285,8.843 21.272 L 11.706 21.260 11.847 21.164 C 12.287 20.862,12.312 20.252,11.898 19.936 L 11.746 19.820 8.523 19.795 C 5.162 19.769,4.802 19.751,4.211 19.579 C 3.433 19.353,3.051 18.966,2.842 18.192 C 2.669 17.553,2.660 17.334,2.660 13.980 L 2.660 10.780 11.910 10.770 L 21.160 10.760 21.160 11.627 C 21.160 12.430,21.166 12.508,21.245 12.670 C 21.482 13.161,22.169 13.217,22.508 12.774 L 22.620 12.626 22.640 11.343 C 22.673 9.258,22.624 6.617,22.543 6.127 C 22.219 4.145,21.292 3.238,19.240 2.894 C 18.852 2.828,18.312 2.823,12.080 2.817 C 8.373 2.814,5.277 2.818,5.200 2.825 M19.040 4.372 C 20.377 4.603,20.836 5.047,21.066 6.333 C 21.105 6.553,21.132 7.090,21.147 7.970 L 21.170 9.280 11.905 9.280 L 2.640 9.280 2.640 8.386 C 2.640 6.230,2.866 5.263,3.473 4.820 C 3.819 4.567,4.449 4.389,5.227 4.323 C 5.443 4.305,8.554 4.294,12.140 4.298 C 17.971 4.306,18.700 4.314,19.040 4.372 M17.324 13.322 C 15.569 13.542,14.063 14.737,13.444 16.401 C 13.088 17.359,13.072 18.547,13.403 19.535 C 14.319 22.270,17.495 23.565,20.057 22.248 C 22.395 21.046,23.309 18.209,22.111 15.867 C 21.455 14.585,20.252 13.673,18.834 13.383 C 18.444 13.304,17.708 13.274,17.324 13.322 M18.720 14.886 C 19.627 15.114,20.393 15.747,20.838 16.634 C 21.056 17.070,21.131 17.427,21.131 18.040 C 21.132 18.513,21.118 18.625,21.023 18.940 C 20.886 19.395,20.687 19.765,20.403 20.093 C 19.932 20.636,19.396 20.990,18.780 21.166 C 18.323 21.297,17.480 21.298,17.028 21.169 C 15.925 20.853,15.003 19.909,14.734 18.820 C 14.628 18.391,14.636 17.591,14.752 17.188 C 15.065 16.093,15.890 15.242,16.952 14.920 C 17.500 14.753,18.143 14.741,18.720 14.886 M5.567 15.365 C 5.301 15.498,5.180 15.710,5.180 16.043 C 5.180 16.284,5.193 16.329,5.303 16.466 C 5.550 16.776,5.426 16.762,7.943 16.750 L 10.186 16.740 10.338 16.624 C 10.752 16.308,10.727 15.698,10.287 15.396 L 10.146 15.300 7.943 15.289 C 5.755 15.279,5.739 15.279,5.567 15.365 M16.632 16.320 C 16.247 16.436,16.015 16.920,16.161 17.304 C 16.184 17.364,16.349 17.563,16.529 17.746 L 16.854 18.080 16.512 18.430 C 16.126 18.824,16.050 18.984,16.098 19.301 C 16.121 19.455,16.162 19.526,16.318 19.682 C 16.474 19.838,16.545 19.879,16.699 19.902 C 17.011 19.949,17.166 19.875,17.563 19.493 L 17.917 19.152 18.211 19.455 C 18.534 19.787,18.702 19.880,18.980 19.880 C 19.290 19.880,19.540 19.714,19.658 19.430 C 19.797 19.098,19.705 18.846,19.280 18.389 L 18.991 18.078 19.313 17.742 C 19.661 17.380,19.708 17.274,19.670 16.938 C 19.618 16.482,19.097 16.195,18.655 16.380 C 18.577 16.412,18.380 16.568,18.217 16.725 L 17.923 17.011 17.580 16.687 C 17.170 16.299,16.964 16.219,16.632 16.320 " stroke="none" fill-rule="evenodd" fill="black"></path></svg>