<svg width="24" height="24" viewBox="0 0 24 24" fill="none" xmlns="http://www.w3.org/2000/svg"><path d="M5.579 1.280 C 3.750 1.440,2.200 2.632,1.540 4.384 C 1.182 5.335,1.182 6.665,1.540 7.616 C 2.042 8.949,3.049 9.958,4.376 10.457 C 5.340 10.820,6.660 10.820,7.624 10.457 C 8.951 9.958,9.958 8.949,10.460 7.616 C 10.819 6.661,10.818 5.336,10.457 4.376 C 9.695 2.348,7.716 1.092,5.579 1.280 M16.498 1.279 C 14.988 1.413,13.968 2.126,13.517 3.362 C 13.287 3.991,13.262 4.255,13.262 6.000 C 13.262 7.324,13.273 7.640,13.331 7.948 C 13.613 9.462,14.538 10.387,16.052 10.669 C 16.360 10.727,16.676 10.738,18.000 10.738 C 19.324 10.738,19.640 10.727,19.948 10.669 C 21.211 10.433,22.083 9.735,22.483 8.638 C 22.713 8.009,22.738 7.745,22.738 6.000 C 22.738 4.255,22.713 3.991,22.483 3.362 C 22.085 2.272,21.208 1.564,19.969 1.336 C 19.570 1.262,17.135 1.222,16.498 1.279 M6.980 2.894 C 7.508 3.068,7.854 3.286,8.284 3.716 C 8.712 4.143,8.928 4.485,9.108 5.020 C 9.209 5.316,9.217 5.389,9.217 6.000 C 9.217 6.611,9.209 6.684,9.108 6.980 C 8.928 7.515,8.712 7.857,8.284 8.284 C 7.857 8.712,7.515 8.928,6.980 9.108 C 6.684 9.209,6.611 9.217,6.000 9.217 C 5.389 9.217,5.316 9.209,5.020 9.108 C 4.485 8.928,4.143 8.712,3.716 8.284 C 3.288 7.857,3.072 7.515,2.892 6.980 C 2.791 6.684,2.783 6.611,2.783 6.000 C 2.783 5.389,2.791 5.316,2.892 5.020 C 3.072 4.485,3.288 4.143,3.716 3.716 C 4.433 2.999,5.066 2.750,6.100 2.775 C 6.572 2.787,6.710 2.806,6.980 2.894 M19.780 2.820 C 20.553 2.983,21.016 3.448,21.181 4.227 C 21.265 4.624,21.264 7.379,21.180 7.780 C 21.017 8.553,20.552 9.016,19.773 9.181 C 19.380 9.264,16.620 9.264,16.227 9.181 C 15.448 9.016,14.983 8.553,14.820 7.780 C 14.736 7.379,14.735 4.624,14.819 4.227 C 14.982 3.457,15.445 2.986,16.200 2.823 C 16.585 2.739,19.387 2.738,19.780 2.820 M4.498 13.279 C 2.988 13.413,1.968 14.126,1.517 15.362 C 1.287 15.991,1.262 16.255,1.262 18.000 C 1.262 19.324,1.273 19.640,1.331 19.948 C 1.613 21.462,2.538 22.387,4.052 22.669 C 4.360 22.727,4.676 22.738,6.000 22.738 C 7.324 22.738,7.640 22.727,7.948 22.669 C 9.211 22.433,10.083 21.735,10.483 20.638 C 10.713 20.009,10.738 19.745,10.738 18.000 C 10.738 16.255,10.713 15.991,10.483 15.362 C 10.085 14.272,9.208 13.564,7.969 13.336 C 7.570 13.262,5.135 13.222,4.498 13.279 M17.579 13.280 C 15.750 13.440,14.200 14.632,13.540 16.384 C 13.182 17.335,13.182 18.665,13.540 19.616 C 14.042 20.949,15.049 21.958,16.376 22.457 C 17.340 22.820,18.660 22.820,19.624 22.457 C 20.951 21.958,21.958 20.949,22.460 19.616 C 22.819 18.661,22.818 17.336,22.457 16.376 C 21.695 14.348,19.716 13.092,17.579 13.280 M7.780 14.820 C 8.553 14.983,9.016 15.448,9.181 16.227 C 9.265 16.624,9.264 19.379,9.180 19.780 C 9.017 20.553,8.552 21.016,7.773 21.181 C 7.563 21.225,7.157 21.239,6.000 21.239 C 4.843 21.239,4.437 21.225,4.227 21.181 C 3.448 21.016,2.983 20.553,2.820 19.780 C 2.736 19.379,2.735 16.624,2.819 16.227 C 2.982 15.457,3.445 14.986,4.200 14.823 C 4.585 14.739,7.387 14.738,7.780 14.820 M18.980 14.894 C 19.508 15.068,19.854 15.286,20.284 15.716 C 20.712 16.143,20.928 16.485,21.108 17.020 C 21.209 17.316,21.217 17.389,21.217 18.000 C 21.217 18.611,21.209 18.684,21.108 18.980 C 20.928 19.515,20.712 19.857,20.284 20.284 C 19.857 20.712,19.515 20.928,18.980 21.108 C 18.684 21.209,18.611 21.217,18.000 21.217 C 17.389 21.217,17.316 21.209,17.020 21.108 C 16.485 20.928,16.143 20.712,15.716 20.284 C 15.288 19.857,15.072 19.515,14.892 18.980 C 14.791 18.684,14.783 18.611,14.783 18.000 C 14.783 17.389,14.791 17.316,14.892 17.020 C 15.072 16.485,15.288 16.143,15.716 15.716 C 16.433 14.999,17.066 14.750,18.100 14.775 C 18.572 14.787,18.710 14.806,18.980 14.894 " stroke="none" fill-rule="evenodd" fill="black"></path></svg>