<svg width="24" height="24" viewBox="0 0 24 24" fill="none" xmlns="http://www.w3.org/2000/svg"><path d="M4.498 1.279 C 2.988 1.413,1.968 2.126,1.517 3.362 C 1.287 3.991,1.262 4.255,1.262 6.000 C 1.262 7.324,1.273 7.640,1.331 7.948 C 1.613 9.462,2.538 10.387,4.052 10.669 C 4.360 10.727,4.676 10.738,6.000 10.738 C 7.324 10.738,7.640 10.727,7.948 10.669 C 9.211 10.433,10.083 9.735,10.483 8.638 C 10.713 8.009,10.738 7.745,10.738 6.000 C 10.738 4.255,10.713 3.991,10.483 3.362 C 10.085 2.272,9.208 1.564,7.969 1.336 C 7.570 1.262,5.135 1.222,4.498 1.279 M16.498 1.279 C 14.988 1.413,13.968 2.126,13.517 3.362 C 13.287 3.991,13.262 4.255,13.262 6.000 C 13.262 7.324,13.273 7.640,13.331 7.948 C 13.613 9.462,14.538 10.387,16.052 10.669 C 16.360 10.727,16.676 10.738,18.000 10.738 C 19.324 10.738,19.640 10.727,19.948 10.669 C 21.211 10.433,22.083 9.735,22.483 8.638 C 22.713 8.009,22.738 7.745,22.738 6.000 C 22.738 4.255,22.713 3.991,22.483 3.362 C 22.085 2.272,21.208 1.564,19.969 1.336 C 19.570 1.262,17.135 1.222,16.498 1.279 M7.780 2.820 C 8.553 2.983,9.016 3.448,9.181 4.227 C 9.265 4.624,9.264 7.379,9.180 7.780 C 9.017 8.553,8.552 9.016,7.773 9.181 C 7.380 9.264,4.620 9.264,4.227 9.181 C 3.448 9.016,2.983 8.553,2.820 7.780 C 2.736 7.379,2.735 4.624,2.819 4.227 C 2.982 3.457,3.445 2.986,4.200 2.823 C 4.585 2.739,7.387 2.738,7.780 2.820 M19.780 2.820 C 20.553 2.983,21.016 3.448,21.181 4.227 C 21.265 4.624,21.264 7.379,21.180 7.780 C 21.017 8.553,20.552 9.016,19.773 9.181 C 19.380 9.264,16.620 9.264,16.227 9.181 C 15.448 9.016,14.983 8.553,14.820 7.780 C 14.736 7.379,14.735 4.624,14.819 4.227 C 14.982 3.457,15.445 2.986,16.200 2.823 C 16.585 2.739,19.387 2.738,19.780 2.820 M4.498 13.279 C 2.988 13.413,1.968 14.126,1.517 15.362 C 1.287 15.991,1.262 16.255,1.262 18.000 C 1.262 19.324,1.273 19.640,1.331 19.948 C 1.613 21.462,2.538 22.387,4.052 22.669 C 4.360 22.727,4.676 22.738,6.000 22.738 C 7.324 22.738,7.640 22.727,7.948 22.669 C 9.211 22.433,10.083 21.735,10.483 20.638 C 10.713 20.009,10.738 19.745,10.738 18.000 C 10.738 16.255,10.713 15.991,10.483 15.362 C 10.085 14.272,9.208 13.564,7.969 13.336 C 7.570 13.262,5.135 13.222,4.498 13.279 M16.498 13.279 C 14.988 13.413,13.968 14.126,13.517 15.362 C 13.287 15.991,13.262 16.255,13.262 18.000 C 13.262 19.324,13.273 19.640,13.331 19.948 C 13.613 21.462,14.538 22.387,16.052 22.669 C 16.360 22.727,16.676 22.738,18.000 22.738 C 19.324 22.738,19.640 22.727,19.948 22.669 C 21.211 22.433,22.083 21.735,22.483 20.638 C 22.713 20.009,22.738 19.745,22.738 18.000 C 22.738 16.255,22.713 15.991,22.483 15.362 C 22.085 14.272,21.208 13.564,19.969 13.336 C 19.570 13.262,17.135 13.222,16.498 13.279 M7.780 14.820 C 8.553 14.983,9.016 15.448,9.181 16.227 C 9.265 16.624,9.264 19.379,9.180 19.780 C 9.017 20.553,8.552 21.016,7.773 21.181 C 7.563 21.225,7.157 21.239,6.000 21.239 C 4.843 21.239,4.437 21.225,4.227 21.181 C 3.448 21.016,2.983 20.553,2.820 19.780 C 2.736 19.379,2.735 16.624,2.819 16.227 C 2.982 15.457,3.445 14.986,4.200 14.823 C 4.585 14.739,7.387 14.738,7.780 14.820 M19.780 14.820 C 20.553 14.983,21.016 15.448,21.181 16.227 C 21.265 16.624,21.264 19.379,21.180 19.780 C 21.017 20.553,20.552 21.016,19.773 21.181 C 19.563 21.225,19.157 21.239,18.000 21.239 C 16.843 21.239,16.437 21.225,16.227 21.181 C 15.448 21.016,14.983 20.553,14.820 19.780 C 14.736 19.379,14.735 16.624,14.819 16.227 C 14.982 15.457,15.445 14.986,16.200 14.823 C 16.585 14.739,19.387 14.738,19.780 14.820 " stroke="none" fill-rule="evenodd" fill="black"></path></svg>