<svg width="24" height="24" viewBox="0 0 24 24" fill="none" xmlns="http://www.w3.org/2000/svg"><path d="M8.080 1.282 C 4.008 1.495,1.895 3.296,1.383 6.991 C 1.270 7.803,1.242 8.816,1.242 12.000 C 1.242 16.504,1.302 17.273,1.760 18.650 C 2.532 20.963,4.206 22.226,7.027 22.622 C 7.786 22.728,8.902 22.759,12.000 22.759 C 15.098 22.759,16.214 22.728,16.973 22.622 C 19.443 22.275,20.996 21.288,21.897 19.490 C 22.379 18.530,22.638 17.369,22.720 15.807 C 22.771 14.838,22.771 9.162,22.720 8.193 C 22.657 6.998,22.521 6.191,22.242 5.356 C 21.632 3.531,20.469 2.367,18.650 1.760 C 17.788 1.473,17.023 1.344,15.806 1.280 C 14.952 1.235,8.952 1.237,8.080 1.282 M16.800 2.854 C 19.586 3.316,20.714 4.454,21.148 7.240 C 21.214 7.661,21.220 8.064,21.220 12.000 C 21.220 15.936,21.214 16.339,21.148 16.760 C 20.712 19.558,19.558 20.712,16.760 21.148 C 16.339 21.214,15.936 21.220,12.000 21.220 C 8.064 21.220,7.661 21.214,7.240 21.148 C 4.450 20.713,3.283 19.551,2.854 16.780 C 2.785 16.335,2.780 15.989,2.780 12.000 C 2.780 7.247,2.776 7.337,3.044 6.288 C 3.557 4.282,4.722 3.274,6.960 2.900 C 7.690 2.777,8.048 2.769,12.200 2.777 C 15.963 2.784,16.422 2.791,16.800 2.854 M14.880 4.822 C 14.129 4.984,13.398 5.570,13.037 6.300 C 12.749 6.882,12.761 6.632,12.761 12.000 C 12.761 17.370,12.749 17.120,13.037 17.700 C 13.717 19.068,15.348 19.631,16.700 18.963 C 17.440 18.598,18.019 17.868,18.180 17.100 C 18.268 16.682,18.268 7.318,18.180 6.900 C 17.974 5.917,17.083 5.026,16.100 4.820 C 15.753 4.747,15.224 4.748,14.880 4.822 M16.020 6.376 C 16.280 6.497,16.505 6.725,16.635 7.000 L 16.740 7.220 16.740 12.000 L 16.740 16.780 16.635 17.000 C 16.379 17.541,15.827 17.831,15.267 17.721 C 14.786 17.626,14.384 17.233,14.282 16.760 C 14.247 16.596,14.238 15.355,14.248 11.880 L 14.260 7.220 14.365 7.000 C 14.672 6.353,15.388 6.083,16.020 6.376 M8.144 10.282 C 7.133 10.401,6.224 11.147,5.892 12.131 L 5.781 12.460 5.769 14.623 C 5.755 17.068,5.761 17.144,6.037 17.700 C 6.321 18.271,6.729 18.679,7.300 18.963 C 8.645 19.630,10.289 19.064,10.963 17.700 C 11.239 17.143,11.245 17.067,11.231 14.623 L 11.219 12.460 11.108 12.131 C 10.693 10.900,9.456 10.128,8.144 10.282 M9.030 11.881 C 9.307 12.020,9.530 12.246,9.655 12.515 C 9.738 12.696,9.740 12.741,9.740 14.740 L 9.740 16.780 9.635 17.000 C 9.208 17.899,8.007 18.003,7.467 17.188 C 7.241 16.847,7.233 16.746,7.247 14.620 C 7.260 12.757,7.263 12.694,7.345 12.515 C 7.650 11.857,8.410 11.571,9.030 11.881 " stroke="none" fill-rule="evenodd" fill="black"></path></svg>