<svg width="24" height="24" viewBox="0 0 24 24" fill="none" xmlns="http://www.w3.org/2000/svg"><path d="M8.080 1.282 C 4.008 1.495,1.895 3.296,1.383 6.991 C 1.270 7.803,1.242 8.816,1.242 12.000 C 1.242 16.504,1.302 17.273,1.760 18.650 C 2.532 20.963,4.206 22.226,7.027 22.622 C 7.786 22.728,8.902 22.759,12.000 22.759 C 15.098 22.759,16.214 22.728,16.973 22.622 C 19.443 22.275,20.996 21.288,21.897 19.490 C 22.379 18.530,22.638 17.369,22.720 15.807 C 22.771 14.838,22.771 9.162,22.720 8.193 C 22.657 6.998,22.521 6.191,22.242 5.356 C 21.632 3.531,20.469 2.367,18.650 1.760 C 17.788 1.473,17.023 1.344,15.806 1.280 C 14.952 1.235,8.952 1.237,8.080 1.282 M16.800 2.854 C 19.586 3.316,20.714 4.454,21.148 7.240 C 21.214 7.661,21.220 8.064,21.220 12.000 C 21.220 15.936,21.214 16.339,21.148 16.760 C 20.712 19.558,19.558 20.712,16.760 21.148 C 16.339 21.214,15.936 21.220,12.000 21.220 C 8.064 21.220,7.661 21.214,7.240 21.148 C 4.450 20.713,3.283 19.551,2.854 16.780 C 2.785 16.335,2.780 15.989,2.780 12.000 C 2.780 7.247,2.776 7.337,3.044 6.288 C 3.557 4.282,4.722 3.274,6.960 2.900 C 7.690 2.777,8.048 2.769,12.200 2.777 C 15.963 2.784,16.422 2.791,16.800 2.854 M11.815 8.277 C 11.638 8.321,11.461 8.456,11.353 8.631 L 11.260 8.780 11.260 12.340 L 11.260 15.900 11.353 16.049 C 11.710 16.623,12.576 16.492,12.716 15.842 C 12.775 15.566,12.776 9.097,12.717 8.841 C 12.623 8.432,12.215 8.177,11.815 8.277 M6.699 10.056 C 6.550 10.121,6.332 10.364,6.291 10.511 C 6.251 10.653,6.251 14.027,6.291 14.169 C 6.333 14.321,6.553 14.561,6.708 14.626 C 7.002 14.749,7.336 14.669,7.550 14.425 C 7.621 14.345,7.693 14.229,7.709 14.169 C 7.749 14.027,7.749 10.653,7.709 10.511 C 7.667 10.359,7.447 10.119,7.292 10.054 C 7.130 9.986,6.857 9.987,6.699 10.056 M16.699 10.056 C 16.550 10.121,16.332 10.364,16.291 10.511 C 16.251 10.653,16.251 14.027,16.291 14.169 C 16.333 14.321,16.553 14.561,16.708 14.626 C 17.002 14.749,17.336 14.669,17.550 14.425 C 17.621 14.345,17.693 14.229,17.709 14.169 C 17.749 14.027,17.749 10.653,17.709 10.511 C 17.667 10.359,17.447 10.119,17.292 10.054 C 17.130 9.986,16.857 9.987,16.699 10.056 " stroke="none" fill-rule="evenodd" fill="black"></path></svg>