<svg width="24" height="24" viewBox="0 0 24 24" fill="none" xmlns="http://www.w3.org/2000/svg"><path d="M8.080 1.282 C 4.008 1.495,1.895 3.296,1.383 6.991 C 1.270 7.803,1.242 8.816,1.242 12.000 C 1.242 16.504,1.302 17.273,1.760 18.650 C 2.532 20.963,4.206 22.226,7.027 22.622 C 7.786 22.728,8.902 22.759,12.000 22.759 C 15.098 22.759,16.214 22.728,16.973 22.622 C 19.443 22.275,20.996 21.288,21.897 19.490 C 22.379 18.530,22.638 17.369,22.720 15.807 C 22.771 14.838,22.771 9.162,22.720 8.193 C 22.657 6.998,22.521 6.191,22.242 5.356 C 21.632 3.531,20.469 2.367,18.650 1.760 C 17.788 1.473,17.023 1.344,15.806 1.280 C 14.952 1.235,8.952 1.237,8.080 1.282 M16.800 2.854 C 19.586 3.316,20.714 4.454,21.148 7.240 C 21.214 7.661,21.220 8.064,21.220 12.000 C 21.220 15.936,21.214 16.339,21.148 16.760 C 20.712 19.558,19.558 20.712,16.760 21.148 C 16.339 21.214,15.936 21.220,12.000 21.220 C 8.064 21.220,7.661 21.214,7.240 21.148 C 4.450 20.713,3.283 19.551,2.854 16.780 C 2.785 16.335,2.780 15.989,2.780 12.000 C 2.780 7.247,2.776 7.337,3.044 6.288 C 3.557 4.282,4.722 3.274,6.960 2.900 C 7.690 2.777,8.048 2.769,12.200 2.777 C 15.963 2.784,16.422 2.791,16.800 2.854 M11.000 5.868 C 10.754 5.895,10.387 6.038,10.160 6.194 C 9.895 6.377,9.602 6.750,9.474 7.067 C 9.382 7.295,9.380 7.332,9.368 8.850 L 9.356 10.400 8.316 10.400 C 7.104 10.400,6.860 10.437,6.492 10.676 C 6.082 10.942,5.827 11.256,5.673 11.683 L 5.580 11.940 5.580 14.740 C 5.580 16.280,5.594 17.589,5.611 17.649 C 5.657 17.816,5.865 18.028,6.052 18.099 C 6.203 18.156,6.798 18.161,12.060 18.151 C 18.543 18.139,18.017 18.162,18.254 17.880 C 18.441 17.658,18.446 17.584,18.431 15.540 C 18.419 13.850,18.409 13.595,18.348 13.412 C 18.187 12.930,17.707 12.418,17.242 12.230 C 17.032 12.146,16.953 12.140,15.830 12.128 L 14.640 12.116 14.639 9.828 C 14.639 7.928,14.629 7.497,14.578 7.283 C 14.409 6.563,13.782 5.986,13.057 5.882 C 12.797 5.844,11.308 5.834,11.000 5.868 M13.010 7.461 C 13.065 7.516,13.121 7.617,13.135 7.686 C 13.167 7.847,13.167 10.136,13.133 13.753 L 13.107 16.640 12.000 16.640 L 10.893 16.640 10.865 12.187 C 10.845 8.999,10.849 7.701,10.880 7.617 C 10.973 7.370,11.008 7.362,12.005 7.361 L 12.909 7.360 13.010 7.461 M9.340 14.280 L 9.340 16.660 8.210 16.671 L 7.080 16.681 7.080 14.406 L 7.080 12.131 7.183 12.028 C 7.240 11.971,7.325 11.917,7.373 11.907 C 7.421 11.898,7.883 11.892,8.400 11.895 L 9.340 11.900 9.340 14.280 M16.773 13.682 C 16.830 13.727,16.896 13.830,16.918 13.912 C 16.943 13.999,16.960 14.589,16.960 15.350 L 16.960 16.640 15.800 16.640 L 14.640 16.640 14.640 15.120 L 14.640 13.600 15.655 13.600 C 16.616 13.600,16.675 13.604,16.773 13.682 " stroke="none" fill-rule="evenodd" fill="black"></path></svg>