<svg width="24" height="24" viewBox="0 0 24 24" fill="none" xmlns="http://www.w3.org/2000/svg"><path d="M18.160 1.280 C 17.858 1.326,17.723 1.372,17.517 1.500 C 17.135 1.736,16.830 2.133,16.716 2.540 C 16.669 2.708,16.660 3.979,16.660 10.500 C 16.660 19.011,16.644 18.446,16.903 18.880 C 17.127 19.254,17.486 19.541,17.895 19.673 C 18.197 19.771,20.203 19.771,20.505 19.673 C 20.914 19.541,21.273 19.254,21.497 18.880 C 21.756 18.446,21.740 19.011,21.740 10.500 C 21.740 3.979,21.731 2.708,21.684 2.540 C 21.533 1.999,21.063 1.509,20.526 1.333 C 20.310 1.262,18.534 1.222,18.160 1.280 M20.167 2.826 C 20.237 2.890,20.240 3.180,20.240 10.493 C 20.240 17.509,20.235 18.099,20.174 18.167 C 20.113 18.234,20.029 18.240,19.207 18.240 C 18.425 18.240,18.297 18.231,18.233 18.174 C 18.163 18.110,18.160 17.820,18.160 10.507 C 18.160 3.491,18.165 2.901,18.226 2.833 C 18.287 2.766,18.371 2.760,19.193 2.760 C 19.975 2.760,20.103 2.769,20.167 2.826 M10.864 4.482 C 10.549 4.535,10.200 4.731,9.945 4.998 C 9.665 5.292,9.533 5.570,9.478 5.984 C 9.450 6.196,9.441 8.284,9.449 12.320 C 9.461 17.777,9.469 18.357,9.528 18.526 C 9.722 19.076,10.201 19.534,10.740 19.684 C 11.051 19.771,13.027 19.763,13.305 19.673 C 13.859 19.495,14.330 19.010,14.484 18.460 C 14.567 18.162,14.567 6.039,14.484 5.740 C 14.305 5.097,13.740 4.585,13.093 4.479 C 12.814 4.433,11.142 4.436,10.864 4.482 M12.893 5.966 C 12.941 5.991,12.993 6.032,13.009 6.056 C 13.026 6.080,13.039 8.799,13.039 12.097 C 13.040 17.621,13.035 18.099,12.974 18.167 C 12.913 18.234,12.829 18.240,12.007 18.240 C 11.225 18.240,11.097 18.231,11.033 18.174 C 10.963 18.110,10.960 17.870,10.961 12.104 C 10.961 8.802,10.974 6.080,10.991 6.057 C 11.069 5.940,11.202 5.922,11.993 5.921 C 12.530 5.920,12.835 5.936,12.893 5.966 M3.540 7.700 C 2.869 7.882,2.372 8.464,2.278 9.180 C 2.250 9.393,2.241 10.982,2.250 13.920 C 2.262 17.880,2.270 18.359,2.328 18.526 C 2.469 18.927,2.756 19.280,3.120 19.497 C 3.495 19.721,3.627 19.740,4.800 19.740 C 5.973 19.740,6.105 19.721,6.480 19.497 C 6.844 19.280,7.131 18.927,7.272 18.526 C 7.330 18.359,7.338 17.880,7.350 13.920 C 7.359 10.982,7.350 9.393,7.322 9.180 C 7.227 8.455,6.727 7.876,6.042 7.697 C 5.741 7.619,3.831 7.620,3.540 7.700 M5.760 9.200 C 5.839 9.279,5.840 9.333,5.840 13.687 C 5.840 17.731,5.835 18.100,5.774 18.167 C 5.713 18.234,5.629 18.240,4.807 18.240 C 4.025 18.240,3.897 18.231,3.833 18.174 C 3.763 18.110,3.760 17.919,3.760 13.694 C 3.760 9.333,3.761 9.279,3.840 9.200 C 3.915 9.125,3.973 9.120,4.800 9.120 C 5.627 9.120,5.685 9.125,5.760 9.200 M2.815 21.278 C 2.331 21.393,2.098 22.004,2.383 22.408 C 2.448 22.499,2.572 22.610,2.660 22.656 L 2.820 22.740 11.880 22.751 C 18.373 22.758,21.001 22.749,21.154 22.717 C 21.902 22.562,21.929 21.473,21.189 21.286 C 20.978 21.233,3.036 21.225,2.815 21.278 " stroke="none" fill-rule="evenodd" fill="black"></path></svg>