<svg width="24" height="24" viewBox="0 0 24 24" fill="none" xmlns="http://www.w3.org/2000/svg"><path d="M8.060 1.267 C 6.420 1.362,4.953 1.757,4.024 2.352 C 2.457 3.355,1.635 4.861,1.332 7.280 C 1.267 7.806,1.260 8.244,1.260 12.000 C 1.260 15.756,1.267 16.194,1.332 16.720 C 1.502 18.075,1.853 19.197,2.352 19.976 C 3.348 21.532,4.842 22.353,7.240 22.665 C 7.878 22.748,12.959 22.797,13.207 22.723 C 13.513 22.631,13.758 22.309,13.758 22.000 C 13.758 21.828,13.644 21.570,13.515 21.452 C 13.282 21.238,13.310 21.240,10.743 21.240 C 9.388 21.240,8.144 21.221,7.852 21.197 C 6.843 21.112,5.941 20.899,5.257 20.583 C 3.771 19.896,3.002 18.504,2.801 16.140 C 2.748 15.504,2.748 8.496,2.801 7.860 C 2.948 6.128,3.379 4.972,4.176 4.176 C 4.972 3.379,6.128 2.948,7.860 2.801 C 8.496 2.748,15.504 2.748,16.140 2.801 C 18.504 3.002,19.896 3.771,20.583 5.257 C 20.899 5.941,21.112 6.843,21.197 7.852 C 21.221 8.142,21.240 9.399,21.241 10.752 C 21.242 12.988,21.246 13.150,21.316 13.300 C 21.405 13.494,21.532 13.616,21.729 13.698 C 22.125 13.863,22.596 13.631,22.723 13.207 C 22.797 12.959,22.748 7.878,22.665 7.240 C 22.492 5.912,22.136 4.786,21.648 4.024 C 20.652 2.469,19.163 1.649,16.760 1.334 C 16.329 1.277,15.711 1.267,12.280 1.260 C 10.091 1.256,8.192 1.259,8.060 1.267 M6.699 9.816 C 6.550 9.881,6.332 10.124,6.291 10.271 C 6.251 10.413,6.251 13.587,6.291 13.729 C 6.333 13.881,6.553 14.121,6.708 14.186 C 6.873 14.255,7.127 14.255,7.292 14.186 C 7.447 14.121,7.667 13.881,7.709 13.729 C 7.749 13.587,7.749 10.413,7.709 10.271 C 7.667 10.119,7.447 9.879,7.292 9.814 C 7.130 9.746,6.857 9.747,6.699 9.816 M11.699 9.816 C 11.550 9.881,11.332 10.124,11.291 10.271 C 11.251 10.413,11.251 13.587,11.291 13.729 C 11.333 13.881,11.553 14.121,11.708 14.186 C 11.873 14.255,12.127 14.255,12.292 14.186 C 12.447 14.121,12.667 13.881,12.709 13.729 C 12.749 13.587,12.749 10.413,12.709 10.271 C 12.667 10.119,12.447 9.879,12.292 9.814 C 12.130 9.746,11.857 9.747,11.699 9.816 M16.699 9.816 C 16.550 9.881,16.332 10.124,16.291 10.271 C 16.251 10.413,16.251 13.587,16.291 13.729 C 16.333 13.881,16.553 14.121,16.708 14.186 C 16.873 14.255,17.127 14.255,17.292 14.186 C 17.447 14.121,17.667 13.881,17.709 13.729 C 17.749 13.587,17.749 10.413,17.709 10.271 C 17.667 10.119,17.447 9.879,17.292 9.814 C 17.130 9.746,16.857 9.747,16.699 9.816 M20.860 16.268 C 20.604 16.332,20.466 16.474,19.038 18.144 C 18.221 19.099,17.540 19.880,17.526 19.880 C 17.511 19.880,17.265 19.644,16.979 19.356 C 16.317 18.688,16.107 18.584,15.729 18.742 C 15.296 18.923,15.134 19.406,15.371 19.807 C 15.500 20.025,17.052 21.565,17.239 21.660 C 17.412 21.748,17.741 21.753,17.901 21.669 C 17.966 21.635,18.086 21.538,18.166 21.453 C 18.428 21.178,21.526 17.544,21.630 17.390 C 21.838 17.081,21.737 16.613,21.416 16.393 C 21.260 16.286,21.011 16.230,20.860 16.268 " stroke="none" fill-rule="evenodd" fill="black"></path></svg>