<svg width="24" height="24" viewBox="0 0 24 24" fill="none" xmlns="http://www.w3.org/2000/svg"><path d="M11.320 1.281 C 7.046 1.524,3.250 4.415,1.843 8.497 C 1.520 9.434,1.339 10.365,1.281 11.390 C 1.136 13.950,1.874 16.389,3.424 18.470 C 3.880 19.083,4.909 20.111,5.530 20.575 C 7.606 22.126,10.070 22.870,12.627 22.717 C 14.790 22.588,16.724 21.879,18.470 20.575 C 19.087 20.115,20.115 19.087,20.575 18.470 C 22.127 16.391,22.870 13.930,22.717 11.373 C 22.586 9.191,21.888 7.289,20.570 5.523 C 20.115 4.914,19.083 3.882,18.470 3.425 C 17.047 2.362,15.454 1.679,13.742 1.398 C 13.334 1.331,12.074 1.229,11.880 1.247 C 11.847 1.250,11.595 1.265,11.320 1.281 M13.146 2.822 C 14.794 3.038,16.299 3.654,17.619 4.653 C 18.015 4.953,18.849 5.761,19.161 6.149 C 19.453 6.510,19.774 6.959,19.755 6.978 C 19.747 6.985,19.569 6.968,19.360 6.939 C 18.482 6.817,17.818 6.780,16.560 6.781 C 14.968 6.782,13.866 6.881,12.515 7.143 C 12.237 7.197,11.829 7.258,11.609 7.279 C 10.896 7.347,10.395 7.493,9.781 7.812 C 8.928 8.256,8.192 9.013,7.750 9.900 C 7.587 10.228,7.415 10.712,7.377 10.952 C 7.362 11.045,7.337 11.129,7.322 11.139 C 7.286 11.161,6.685 10.195,6.275 9.453 C 5.871 8.724,5.362 7.641,5.038 6.823 L 4.791 6.202 4.951 6.011 C 5.222 5.688,6.042 4.910,6.381 4.653 C 7.687 3.664,9.192 3.044,10.820 2.823 C 11.380 2.746,12.569 2.746,13.146 2.822 M4.001 8.220 C 4.767 10.033,6.203 12.369,7.519 13.940 C 7.666 14.116,7.901 14.422,8.041 14.620 C 9.092 16.108,10.675 16.868,12.411 16.717 C 12.773 16.686,13.410 16.550,13.610 16.462 C 13.702 16.422,13.576 16.700,13.159 17.460 C 12.489 18.679,11.613 19.954,10.828 20.850 C 10.552 21.165,10.568 21.162,9.947 21.021 C 8.699 20.738,7.435 20.144,6.381 19.347 C 5.972 19.038,5.148 18.235,4.813 17.820 C 3.941 16.741,3.245 15.302,2.965 13.998 C 2.689 12.714,2.690 11.283,2.966 10.002 C 3.128 9.246,3.715 7.695,3.803 7.788 C 3.819 7.806,3.908 8.000,4.001 8.220 M18.448 8.339 C 19.150 8.405,19.793 8.492,20.275 8.587 C 20.610 8.653,20.610 8.653,20.684 8.820 C 20.809 9.102,21.027 9.913,21.121 10.440 C 21.231 11.065,21.273 12.346,21.203 12.964 C 21.000 14.754,20.297 16.446,19.187 17.820 C 18.852 18.235,18.028 19.038,17.619 19.347 C 16.560 20.148,15.222 20.772,13.998 21.035 C 13.598 21.121,12.760 21.240,12.556 21.240 L 12.437 21.240 12.651 20.970 C 12.954 20.589,13.536 19.745,13.887 19.179 C 14.703 17.861,15.429 16.342,15.940 14.880 C 16.044 14.583,16.181 14.238,16.244 14.112 C 16.576 13.454,16.727 12.794,16.727 12.000 C 16.727 10.707,16.290 9.628,15.385 8.690 C 15.189 8.486,15.035 8.318,15.044 8.315 C 15.053 8.312,15.276 8.295,15.540 8.279 C 16.186 8.237,17.697 8.269,18.448 8.339 M12.980 8.894 C 13.508 9.068,13.854 9.286,14.284 9.716 C 14.712 10.144,14.928 10.486,15.108 11.020 C 15.207 11.313,15.216 11.394,15.218 11.980 C 15.220 12.542,15.209 12.657,15.127 12.920 C 14.961 13.452,14.712 13.855,14.284 14.284 C 13.857 14.712,13.515 14.928,12.980 15.108 C 12.684 15.209,12.611 15.217,12.000 15.217 C 11.389 15.217,11.316 15.209,11.020 15.108 C 10.485 14.928,10.143 14.712,9.716 14.284 C 9.288 13.855,9.039 13.452,8.873 12.920 C 8.791 12.657,8.780 12.542,8.782 11.980 C 8.784 11.394,8.793 11.313,8.892 11.020 C 9.072 10.486,9.288 10.144,9.716 9.716 C 10.433 8.999,11.066 8.750,12.100 8.775 C 12.572 8.787,12.710 8.806,12.980 8.894 " stroke="none" fill-rule="evenodd" fill="black"></path></svg>