<svg width="24" height="24" viewBox="0 0 24 24" fill="none" xmlns="http://www.w3.org/2000/svg"><path d="M9.320 1.281 C 8.444 1.366,7.861 1.747,7.544 2.441 C 7.435 2.679,7.320 3.083,7.320 3.227 C 7.320 3.297,7.292 3.321,7.190 3.338 C 7.119 3.349,6.889 3.386,6.680 3.420 C 5.379 3.632,4.467 4.079,3.714 4.874 C 3.165 5.453,2.801 6.166,2.563 7.127 C 2.278 8.277,2.241 8.943,2.241 12.980 C 2.241 17.036,2.283 17.871,2.544 18.920 C 2.911 20.392,3.677 21.393,4.900 21.996 C 5.786 22.433,6.692 22.633,8.164 22.719 C 9.138 22.775,13.897 22.773,14.162 22.716 C 14.904 22.557,14.924 21.471,14.189 21.286 C 14.058 21.253,13.167 21.240,11.092 21.240 C 8.111 21.240,7.631 21.222,6.869 21.078 C 5.947 20.905,5.340 20.619,4.835 20.121 C 4.383 19.675,4.174 19.279,3.981 18.506 C 3.776 17.687,3.761 17.314,3.760 13.100 C 3.760 10.776,3.776 9.048,3.801 8.791 C 4.009 6.600,4.690 5.532,6.180 5.062 C 6.521 4.955,7.265 4.812,7.300 4.847 C 7.312 4.858,7.348 4.974,7.381 5.104 C 7.477 5.481,7.704 5.902,7.935 6.133 C 8.191 6.388,8.459 6.536,8.867 6.648 C 9.167 6.730,9.279 6.734,11.515 6.750 C 14.555 6.772,14.972 6.738,15.633 6.416 C 16.149 6.164,16.525 5.686,16.644 5.129 C 16.671 5.003,16.707 4.884,16.724 4.865 C 16.764 4.818,17.458 4.944,17.840 5.067 C 19.209 5.509,19.828 6.366,20.146 8.260 C 20.203 8.602,20.216 9.132,20.236 11.940 L 20.260 15.220 20.353 15.369 C 20.710 15.943,21.576 15.812,21.716 15.162 C 21.772 14.899,21.775 10.154,21.719 9.148 C 21.583 6.701,20.947 5.219,19.634 4.290 C 19.014 3.852,18.051 3.507,17.100 3.383 C 16.716 3.333,16.680 3.320,16.680 3.225 C 16.680 3.055,16.558 2.658,16.416 2.367 C 16.161 1.846,15.753 1.523,15.133 1.352 C 14.829 1.268,14.744 1.266,12.240 1.257 C 10.821 1.252,9.507 1.263,9.320 1.281 M14.914 2.853 C 15.000 2.900,15.077 2.991,15.134 3.113 C 15.212 3.283,15.220 3.366,15.220 4.040 C 15.220 4.910,15.195 4.991,14.887 5.134 C 14.701 5.220,14.684 5.220,11.960 5.220 C 8.840 5.220,9.030 5.240,8.866 4.887 C 8.788 4.718,8.780 4.633,8.780 4.000 C 8.780 3.367,8.788 3.282,8.866 3.113 C 8.954 2.923,9.046 2.849,9.260 2.796 C 9.326 2.780,10.595 2.770,12.080 2.773 C 14.609 2.780,14.788 2.785,14.914 2.853 M14.815 15.277 C 14.640 15.320,14.462 15.456,14.356 15.626 C 14.253 15.793,14.233 16.155,14.318 16.320 C 14.346 16.375,15.449 17.503,16.770 18.826 L 19.171 21.232 18.475 21.246 C 17.826 21.259,17.770 21.266,17.627 21.355 C 17.385 21.506,17.267 21.718,17.267 22.003 C 17.267 22.203,17.286 22.270,17.383 22.408 C 17.448 22.499,17.572 22.610,17.660 22.656 C 17.813 22.736,17.888 22.741,19.373 22.752 C 21.166 22.766,21.287 22.753,21.519 22.521 C 21.631 22.409,21.683 22.313,21.716 22.162 C 21.776 21.883,21.776 19.117,21.716 18.838 C 21.575 18.182,20.713 18.051,20.353 18.631 C 20.267 18.769,20.259 18.831,20.246 19.475 L 20.232 20.171 17.826 17.770 C 16.503 16.449,15.384 15.351,15.340 15.329 C 15.219 15.269,14.955 15.243,14.815 15.277 " stroke="none" fill-rule="evenodd" fill="black"></path></svg>