<svg width="24" height="24" viewBox="0 0 24 24" fill="none" xmlns="http://www.w3.org/2000/svg"><path d="M9.320 1.281 C 8.444 1.366,7.861 1.747,7.544 2.441 C 7.435 2.679,7.320 3.083,7.320 3.227 C 7.320 3.297,7.292 3.321,7.190 3.338 C 7.119 3.349,6.889 3.386,6.680 3.420 C 5.379 3.632,4.467 4.079,3.714 4.874 C 3.165 5.453,2.801 6.166,2.563 7.127 C 2.278 8.277,2.241 8.943,2.241 12.980 C 2.241 17.036,2.283 17.871,2.544 18.920 C 3.029 20.868,4.249 22.027,6.290 22.482 C 7.356 22.720,8.160 22.759,11.980 22.759 C 15.129 22.758,16.167 22.729,16.951 22.619 C 19.489 22.263,20.915 21.092,21.456 18.920 C 21.716 17.872,21.759 17.034,21.759 13.000 C 21.758 9.181,21.724 8.439,21.501 7.358 C 21.164 5.733,20.311 4.556,19.020 3.938 C 18.452 3.665,17.782 3.472,17.100 3.383 C 16.716 3.333,16.680 3.320,16.680 3.225 C 16.680 3.055,16.558 2.658,16.416 2.367 C 16.161 1.846,15.753 1.523,15.133 1.352 C 14.829 1.268,14.744 1.266,12.240 1.257 C 10.821 1.252,9.507 1.263,9.320 1.281 M14.914 2.853 C 15.000 2.900,15.077 2.991,15.134 3.113 C 15.212 3.283,15.220 3.366,15.220 4.040 C 15.220 4.910,15.195 4.991,14.887 5.134 C 14.701 5.220,14.684 5.220,11.960 5.220 C 8.840 5.220,9.030 5.240,8.866 4.887 C 8.788 4.718,8.780 4.633,8.780 4.000 C 8.780 3.367,8.788 3.282,8.866 3.113 C 8.954 2.923,9.046 2.849,9.260 2.796 C 9.326 2.780,10.595 2.770,12.080 2.773 C 14.609 2.780,14.788 2.785,14.914 2.853 M7.343 4.950 C 7.497 5.646,7.859 6.186,8.349 6.451 C 8.462 6.512,8.695 6.600,8.867 6.648 C 9.167 6.730,9.279 6.734,11.515 6.750 C 14.555 6.772,14.972 6.738,15.633 6.416 C 16.149 6.164,16.525 5.686,16.644 5.129 C 16.671 5.003,16.707 4.884,16.724 4.865 C 16.741 4.845,16.924 4.860,17.147 4.900 C 19.145 5.258,19.976 6.329,20.203 8.838 C 20.230 9.136,20.239 10.745,20.230 13.380 C 20.217 16.972,20.207 17.510,20.147 17.878 C 20.046 18.506,19.932 18.896,19.714 19.358 C 19.540 19.729,19.478 19.814,19.169 20.118 C 18.530 20.747,17.655 21.072,16.260 21.200 C 15.675 21.253,8.325 21.253,7.740 21.200 C 6.346 21.072,5.468 20.746,4.835 20.121 C 4.383 19.675,4.174 19.279,3.981 18.506 C 3.776 17.687,3.761 17.314,3.760 13.100 C 3.760 10.776,3.776 9.048,3.801 8.791 C 4.031 6.363,4.834 5.305,6.740 4.920 C 7.260 4.814,7.313 4.817,7.343 4.950 M14.660 11.477 C 14.594 11.493,14.495 11.529,14.440 11.558 C 14.385 11.586,13.543 12.403,12.570 13.374 L 10.800 15.139 10.270 14.613 C 9.978 14.324,9.682 14.059,9.612 14.024 C 9.199 13.817,8.652 14.112,8.578 14.582 C 8.521 14.940,8.579 15.026,9.454 15.912 C 9.897 16.360,10.338 16.773,10.433 16.829 C 10.638 16.950,10.954 16.967,11.141 16.868 C 11.346 16.760,15.429 12.639,15.499 12.471 C 15.577 12.282,15.576 12.117,15.498 11.929 C 15.354 11.584,15.003 11.395,14.660 11.477 " stroke="none" fill-rule="evenodd" fill="black"></path></svg>