<svg width="24" height="24" viewBox="0 0 24 24" fill="none" xmlns="http://www.w3.org/2000/svg"><path d="M7.280 1.269 C 4.742 1.360,3.242 2.566,2.459 5.145 C 2.279 5.740,2.180 6.271,1.777 8.820 C 1.284 11.942,1.279 11.983,1.254 12.820 C 1.217 14.046,1.360 14.845,1.760 15.660 C 1.995 16.140,2.253 16.488,2.653 16.868 C 2.854 17.059,2.967 17.201,3.001 17.306 C 3.084 17.561,3.340 18.042,3.555 18.346 C 4.183 19.237,5.270 19.973,6.783 20.533 C 7.366 20.748,11.701 22.189,12.271 22.357 C 13.639 22.759,15.021 22.831,16.040 22.554 C 16.440 22.445,17.078 22.131,17.405 21.882 C 18.218 21.264,18.943 20.204,19.472 18.860 C 19.706 18.267,21.339 13.324,21.455 12.860 C 21.917 11.008,21.819 9.568,21.154 8.457 C 20.794 7.856,20.316 7.359,19.675 6.919 L 19.329 6.682 19.301 6.454 C 19.238 5.951,19.050 5.365,18.797 4.880 C 18.098 3.543,16.661 2.651,14.552 2.244 C 13.868 2.112,9.092 1.365,8.659 1.322 C 8.200 1.277,7.654 1.256,7.280 1.269 M8.500 2.802 C 9.012 2.860,13.597 3.581,14.220 3.701 C 16.481 4.139,17.555 5.021,17.821 6.660 C 17.890 7.083,17.897 7.883,17.838 8.432 C 17.767 9.086,17.002 13.951,16.894 14.440 C 16.521 16.123,15.892 17.126,14.936 17.563 C 14.319 17.846,13.453 17.961,12.501 17.886 C 11.714 17.825,6.529 17.006,5.875 16.840 C 4.839 16.578,4.137 16.224,3.619 15.703 C 2.948 15.028,2.671 14.126,2.734 12.818 C 2.765 12.162,2.763 12.174,3.244 9.120 C 3.666 6.439,3.773 5.878,3.967 5.323 C 4.515 3.759,5.271 3.049,6.632 2.820 C 7.011 2.756,8.014 2.746,8.500 2.802 M7.700 4.807 C 7.049 4.929,6.317 5.514,6.008 6.160 C 5.670 6.867,5.670 7.613,6.008 8.320 C 6.238 8.800,6.680 9.242,7.160 9.472 C 7.867 9.810,8.613 9.810,9.320 9.472 C 9.800 9.242,10.242 8.800,10.472 8.320 C 10.810 7.613,10.810 6.867,10.472 6.160 C 10.342 5.888,10.244 5.755,9.984 5.496 C 9.470 4.981,8.917 4.754,8.203 4.764 C 8.036 4.767,7.810 4.786,7.700 4.807 M8.665 6.353 C 9.017 6.534,9.217 6.857,9.217 7.240 C 9.217 7.624,9.020 7.941,8.660 8.132 C 8.439 8.250,8.041 8.250,7.820 8.132 C 7.460 7.941,7.263 7.624,7.263 7.240 C 7.263 6.951,7.330 6.784,7.534 6.567 C 7.836 6.246,8.291 6.160,8.665 6.353 M19.605 8.850 C 19.863 9.159,20.099 9.646,20.179 10.033 C 20.249 10.367,20.259 11.158,20.199 11.580 C 20.177 11.734,20.104 12.085,20.038 12.360 C 19.904 12.916,18.329 17.689,18.052 18.380 C 17.514 19.721,16.871 20.551,16.056 20.955 C 15.687 21.138,15.389 21.203,14.800 21.227 C 14.168 21.253,13.533 21.163,12.760 20.939 C 12.118 20.752,8.015 19.394,7.360 19.151 C 6.815 18.949,6.024 18.579,5.841 18.441 C 5.743 18.367,5.746 18.367,6.021 18.425 C 6.404 18.506,11.489 19.307,11.959 19.360 C 12.528 19.424,13.636 19.414,14.136 19.340 C 16.031 19.058,17.244 18.039,17.987 16.103 C 18.273 15.360,18.418 14.645,18.856 11.838 C 19.088 10.354,19.289 9.019,19.304 8.870 C 19.319 8.722,19.346 8.600,19.364 8.600 C 19.382 8.600,19.491 8.713,19.605 8.850 " stroke="none" fill-rule="evenodd" fill="black"></path></svg>