<svg width="24" height="24" viewBox="0 0 24 24" fill="none" xmlns="http://www.w3.org/2000/svg"><path d="M11.320 1.281 C 9.259 1.398,7.250 2.142,5.530 3.424 C 4.912 3.884,3.884 4.912,3.424 5.530 C 1.875 7.608,1.136 10.050,1.281 12.610 C 1.402 14.759,2.118 16.717,3.424 18.470 C 3.880 19.083,4.909 20.111,5.530 20.575 C 7.606 22.126,10.070 22.870,12.627 22.717 C 14.790 22.588,16.724 21.879,18.470 20.575 C 19.087 20.115,20.115 19.087,20.575 18.470 C 22.127 16.391,22.870 13.930,22.717 11.373 C 22.588 9.210,21.879 7.276,20.575 5.530 C 20.115 4.913,19.087 3.885,18.470 3.425 C 17.047 2.362,15.454 1.679,13.742 1.398 C 13.334 1.331,12.074 1.229,11.880 1.247 C 11.847 1.250,11.595 1.265,11.320 1.281 M13.146 2.822 C 14.201 2.960,15.113 3.234,16.060 3.698 C 17.024 4.170,17.648 4.611,18.434 5.378 C 19.273 6.195,19.814 6.937,20.303 7.940 C 20.944 9.253,21.240 10.537,21.240 12.000 C 21.240 13.465,20.943 14.752,20.302 16.060 C 19.830 17.024,19.389 17.648,18.622 18.434 C 17.805 19.273,17.063 19.814,16.060 20.303 C 14.747 20.944,13.463 21.240,12.000 21.240 C 10.537 21.240,9.253 20.944,7.940 20.303 C 6.937 19.814,6.195 19.273,5.378 18.434 C 4.611 17.648,4.170 17.024,3.698 16.060 C 3.057 14.752,2.760 13.465,2.760 12.000 C 2.760 9.860,3.473 7.838,4.813 6.180 C 5.148 5.765,5.972 4.962,6.381 4.653 C 7.688 3.664,9.192 3.044,10.820 2.823 C 11.380 2.746,12.569 2.746,13.146 2.822 M11.405 6.789 C 11.352 6.799,11.223 6.893,11.118 6.998 C 10.967 7.149,10.921 7.227,10.901 7.365 C 10.887 7.461,10.881 8.548,10.889 9.780 C 10.901 11.777,10.911 12.046,10.974 12.260 C 11.149 12.856,11.553 13.469,11.981 13.788 C 12.122 13.894,12.961 14.411,13.844 14.937 C 15.289 15.799,15.470 15.896,15.658 15.911 C 15.915 15.933,16.144 15.828,16.308 15.613 C 16.407 15.484,16.420 15.432,16.420 15.180 C 16.420 14.728,16.447 14.750,14.523 13.602 C 12.725 12.530,12.705 12.514,12.489 12.053 L 12.380 11.820 12.360 9.540 C 12.342 7.522,12.332 7.246,12.274 7.140 C 12.110 6.842,11.796 6.715,11.405 6.789 " stroke="none" fill-rule="evenodd" fill="black"></path></svg>