<svg width="24" height="24" viewBox="0 0 24 24" fill="none" xmlns="http://www.w3.org/2000/svg"><path d="M10.980 1.283 C 9.469 1.415,8.448 2.251,7.927 3.784 C 7.881 3.919,7.733 4.567,7.598 5.224 L 7.351 6.420 6.937 6.830 C 4.680 9.068,4.113 12.431,5.520 15.241 C 5.884 15.969,6.325 16.573,6.923 17.163 L 7.351 17.586 7.596 18.771 C 7.913 20.304,8.058 20.723,8.491 21.351 C 8.956 22.026,9.606 22.448,10.480 22.644 C 10.925 22.743,12.227 22.787,12.923 22.726 C 14.297 22.605,15.197 22.030,15.787 20.894 C 16.062 20.366,16.163 20.025,16.441 18.681 L 16.677 17.542 16.905 17.342 C 17.240 17.049,17.690 16.518,18.007 16.044 C 19.955 13.130,19.570 9.317,17.077 6.845 L 16.675 6.446 16.440 5.313 C 16.163 3.975,16.062 3.633,15.787 3.106 C 15.208 1.990,14.295 1.396,12.984 1.280 C 12.477 1.235,11.511 1.236,10.980 1.283 M13.294 2.838 C 13.668 2.934,13.896 3.063,14.129 3.312 C 14.464 3.670,14.664 4.119,14.824 4.870 C 14.877 5.118,14.920 5.327,14.920 5.335 C 14.920 5.342,14.757 5.288,14.559 5.213 C 12.955 4.611,11.156 4.599,9.530 5.181 C 9.318 5.256,9.137 5.310,9.127 5.300 C 9.099 5.272,9.234 4.611,9.328 4.320 C 9.526 3.702,9.853 3.232,10.235 3.017 C 10.613 2.804,10.884 2.765,11.984 2.762 C 12.854 2.760,13.028 2.770,13.294 2.838 M12.840 6.326 C 14.651 6.569,16.292 7.752,17.129 9.417 C 18.247 11.644,17.822 14.299,16.066 16.055 C 15.297 16.824,14.240 17.401,13.197 17.621 C 12.742 17.717,12.051 17.756,11.535 17.715 C 10.471 17.630,9.686 17.350,8.756 16.726 C 8.237 16.377,7.947 16.118,7.575 15.671 C 6.957 14.929,6.533 14.021,6.334 13.015 C 6.240 12.537,6.240 11.525,6.335 11.000 C 6.628 9.377,7.640 7.919,9.060 7.072 C 10.212 6.385,11.456 6.140,12.840 6.326 M11.699 8.976 C 11.550 9.041,11.332 9.284,11.291 9.431 C 11.249 9.578,11.251 12.549,11.293 12.700 C 11.338 12.864,12.882 14.422,13.100 14.524 C 13.457 14.690,13.883 14.540,14.070 14.181 C 14.153 14.021,14.148 13.691,14.061 13.519 C 14.022 13.443,13.714 13.101,13.377 12.760 L 12.764 12.140 12.752 10.800 C 12.739 9.336,12.740 9.346,12.494 9.113 C 12.290 8.920,11.959 8.863,11.699 8.976 M9.399 18.777 C 9.740 18.915,10.280 19.067,10.720 19.149 C 11.267 19.250,12.741 19.248,13.296 19.146 C 13.730 19.065,14.192 18.935,14.612 18.775 C 14.762 18.718,14.891 18.678,14.900 18.687 C 14.931 18.718,14.725 19.589,14.622 19.860 C 14.425 20.380,14.128 20.774,13.776 20.980 C 13.415 21.192,13.087 21.240,12.000 21.240 C 10.915 21.240,10.614 21.196,10.235 20.983 C 9.741 20.705,9.390 20.089,9.198 19.166 C 9.117 18.777,9.106 18.680,9.141 18.680 C 9.152 18.680,9.269 18.723,9.399 18.777 " stroke="none" fill-rule="evenodd" fill="black"></path></svg>