<svg width="24" height="24" viewBox="0 0 24 24" fill="none" xmlns="http://www.w3.org/2000/svg"><path d="M8.080 1.282 C 4.008 1.495,1.895 3.296,1.383 6.991 C 1.270 7.803,1.242 8.816,1.242 12.000 C 1.242 16.504,1.302 17.273,1.760 18.650 C 2.532 20.963,4.206 22.226,7.027 22.622 C 7.786 22.728,8.902 22.759,12.000 22.759 C 15.098 22.759,16.214 22.728,16.973 22.622 C 19.443 22.275,20.996 21.288,21.897 19.490 C 22.379 18.530,22.638 17.369,22.720 15.807 C 22.771 14.838,22.771 9.162,22.720 8.193 C 22.657 6.998,22.521 6.191,22.242 5.356 C 21.632 3.531,20.469 2.367,18.650 1.760 C 17.788 1.473,17.023 1.344,15.806 1.280 C 14.952 1.235,8.952 1.237,8.080 1.282 M16.800 2.854 C 19.586 3.316,20.714 4.454,21.148 7.240 C 21.214 7.661,21.220 8.064,21.220 12.000 C 21.220 15.936,21.214 16.339,21.148 16.760 C 20.712 19.558,19.558 20.712,16.760 21.148 C 16.339 21.214,15.936 21.220,12.000 21.220 C 8.064 21.220,7.661 21.214,7.240 21.148 C 4.450 20.713,3.283 19.551,2.854 16.780 C 2.785 16.335,2.780 15.989,2.780 12.000 C 2.780 7.247,2.776 7.337,3.044 6.288 C 3.557 4.282,4.722 3.274,6.960 2.900 C 7.690 2.777,8.048 2.769,12.200 2.777 C 15.963 2.784,16.422 2.791,16.800 2.854 M8.860 8.497 C 8.711 8.563,8.539 8.744,8.483 8.893 C 8.420 9.057,8.431 9.345,8.504 9.492 C 8.539 9.562,9.101 10.155,9.754 10.810 L 10.939 12.000 9.754 13.190 C 9.101 13.845,8.539 14.438,8.504 14.508 C 8.431 14.655,8.420 14.943,8.483 15.107 C 8.540 15.261,8.713 15.438,8.869 15.505 C 9.041 15.579,9.335 15.575,9.492 15.496 C 9.562 15.461,10.155 14.899,10.810 14.246 L 12.000 13.061 13.190 14.246 C 13.845 14.899,14.438 15.461,14.508 15.496 C 14.665 15.575,14.959 15.579,15.131 15.505 C 15.287 15.438,15.460 15.261,15.517 15.107 C 15.580 14.943,15.569 14.655,15.496 14.508 C 15.461 14.438,14.899 13.845,14.246 13.190 L 13.061 12.000 14.246 10.810 C 14.899 10.155,15.461 9.562,15.496 9.492 C 15.575 9.335,15.579 9.041,15.505 8.869 C 15.438 8.713,15.261 8.540,15.107 8.483 C 14.943 8.420,14.655 8.431,14.508 8.504 C 14.438 8.539,13.845 9.101,13.190 9.754 L 12.000 10.939 10.810 9.754 C 10.155 9.101,9.562 8.539,9.492 8.504 C 9.337 8.427,9.025 8.423,8.860 8.497 " stroke="none" fill-rule="evenodd" fill="black"></path></svg>