<svg width="24" height="24" viewBox="0 0 24 24" fill="none" xmlns="http://www.w3.org/2000/svg"><path d="M11.560 1.266 C 7.679 1.446,4.232 3.654,2.455 7.099 C 1.644 8.673,1.274 10.199,1.272 11.980 C 1.271 13.123,1.395 14.009,1.702 15.050 C 2.716 18.488,5.522 21.294,8.950 22.297 C 10.643 22.792,12.526 22.871,14.196 22.516 C 17.361 21.844,20.059 19.782,21.545 16.901 C 22.360 15.319,22.728 13.798,22.728 12.000 C 22.728 10.863,22.607 10.010,22.297 8.950 C 21.294 5.522,18.478 2.706,15.050 1.703 C 13.940 1.378,12.644 1.216,11.560 1.266 M13.148 2.822 C 15.227 3.094,17.028 3.984,18.522 5.478 C 19.361 6.317,19.965 7.182,20.431 8.214 C 20.982 9.433,21.240 10.640,21.240 12.000 C 21.240 13.360,20.982 14.567,20.431 15.786 C 19.965 16.818,19.361 17.683,18.522 18.522 C 17.683 19.361,16.818 19.965,15.786 20.431 C 14.567 20.982,13.360 21.240,12.000 21.240 C 10.640 21.240,9.433 20.982,8.214 20.431 C 7.182 19.965,6.317 19.361,5.478 18.522 C 3.695 16.739,2.760 14.495,2.760 12.000 C 2.760 9.505,3.695 7.261,5.478 5.478 C 6.960 3.996,8.756 3.104,10.821 2.822 C 11.380 2.746,12.569 2.746,13.148 2.822 M8.860 8.497 C 8.711 8.563,8.539 8.744,8.483 8.893 C 8.420 9.057,8.431 9.345,8.504 9.492 C 8.539 9.562,9.101 10.155,9.754 10.810 L 10.939 12.000 9.754 13.190 C 9.101 13.845,8.539 14.438,8.504 14.508 C 8.431 14.655,8.420 14.943,8.483 15.107 C 8.540 15.261,8.713 15.438,8.869 15.505 C 9.041 15.579,9.335 15.575,9.492 15.496 C 9.562 15.461,10.155 14.899,10.810 14.246 L 12.000 13.061 13.190 14.246 C 13.845 14.899,14.438 15.461,14.508 15.496 C 14.665 15.575,14.959 15.579,15.131 15.505 C 15.287 15.438,15.460 15.261,15.517 15.107 C 15.580 14.943,15.569 14.655,15.496 14.508 C 15.461 14.438,14.899 13.845,14.246 13.190 L 13.061 12.000 14.246 10.810 C 14.899 10.155,15.461 9.562,15.496 9.492 C 15.575 9.335,15.579 9.041,15.505 8.869 C 15.438 8.713,15.261 8.540,15.107 8.483 C 14.943 8.420,14.655 8.431,14.508 8.504 C 14.438 8.539,13.845 9.101,13.190 9.754 L 12.000 10.939 10.810 9.754 C 10.155 9.101,9.562 8.539,9.492 8.504 C 9.337 8.427,9.025 8.423,8.860 8.497 " stroke="none" fill-rule="evenodd" fill="black"></path></svg>