<svg width="24" height="24" viewBox="0 0 24 24" fill="none" xmlns="http://www.w3.org/2000/svg"><path d="M10.751 3.242 C 8.899 3.436,7.088 4.345,5.968 5.642 C 4.569 7.264,4.073 9.313,4.536 11.555 L 4.625 11.988 4.322 12.077 C 3.283 12.382,2.301 13.209,1.801 14.200 C 1.097 15.595,1.148 17.401,1.927 18.689 C 2.606 19.810,3.636 20.515,4.917 20.735 C 5.253 20.793,5.946 20.800,11.263 20.800 C 17.058 20.800,17.246 20.798,17.702 20.720 C 18.897 20.515,19.945 19.989,20.888 19.120 C 21.798 18.280,22.343 17.301,22.626 16.000 C 22.741 15.471,22.730 14.169,22.606 13.600 C 22.475 12.993,22.311 12.526,22.039 11.980 C 21.262 10.419,19.888 9.283,18.291 8.880 C 18.137 8.841,18.119 8.823,18.080 8.669 C 18.057 8.576,17.957 8.248,17.858 7.940 C 17.168 5.792,15.671 4.236,13.641 3.557 C 12.803 3.277,11.633 3.149,10.751 3.242 M12.260 4.766 C 13.037 4.871,13.840 5.183,14.482 5.629 C 15.325 6.215,16.081 7.291,16.455 8.439 L 16.591 8.858 16.202 8.985 C 15.604 9.181,15.343 9.327,15.222 9.533 C 15.009 9.896,15.128 10.357,15.485 10.558 C 15.722 10.691,15.944 10.682,16.336 10.524 C 17.044 10.237,17.571 10.201,18.156 10.397 C 18.583 10.540,18.851 10.669,19.180 10.891 C 20.123 11.528,20.776 12.480,21.092 13.680 C 21.202 14.102,21.213 14.197,21.216 14.820 C 21.218 15.396,21.205 15.553,21.130 15.848 C 20.909 16.723,20.589 17.297,19.983 17.903 C 19.196 18.690,18.298 19.146,17.271 19.280 C 17.043 19.310,15.110 19.319,11.060 19.311 L 5.180 19.299 4.887 19.209 C 4.045 18.948,3.472 18.464,3.100 17.700 C 2.860 17.208,2.785 16.813,2.811 16.185 C 2.833 15.642,2.901 15.351,3.099 14.940 C 3.669 13.761,5.059 13.118,6.306 13.456 C 6.501 13.509,6.776 13.601,6.917 13.661 C 7.223 13.789,7.449 13.777,7.688 13.620 C 8.051 13.379,8.110 12.828,7.807 12.506 C 7.617 12.303,6.852 12.000,6.370 11.937 L 6.159 11.910 6.102 11.705 C 5.757 10.482,5.784 9.262,6.181 8.151 C 6.528 7.181,7.288 6.251,8.214 5.664 C 9.442 4.886,10.843 4.575,12.260 4.766 " stroke="none" fill-rule="evenodd" fill="black"></path></svg>