<svg width="24" height="24" viewBox="0 0 24 24" fill="none" xmlns="http://www.w3.org/2000/svg"><path d="M9.160 2.299 C 7.323 2.567,5.679 3.451,4.582 4.760 C 3.073 6.560,2.671 8.975,3.462 11.480 C 3.626 11.997,3.730 12.163,3.969 12.285 C 4.305 12.456,4.784 12.304,4.938 11.978 C 5.062 11.716,5.057 11.574,4.903 11.088 C 4.629 10.218,4.583 9.915,4.584 9.000 C 4.586 8.211,4.590 8.162,4.711 7.706 C 4.855 7.163,5.167 6.484,5.470 6.059 C 6.280 4.919,7.576 4.118,9.101 3.814 C 9.593 3.716,10.681 3.715,11.167 3.812 C 13.173 4.212,14.587 5.560,15.212 7.666 L 15.273 7.873 14.931 7.979 C 14.531 8.104,14.143 8.285,14.013 8.406 C 13.679 8.720,13.775 9.385,14.182 9.578 C 14.456 9.708,14.585 9.701,15.040 9.528 C 15.967 9.175,16.465 9.198,17.380 9.636 C 17.873 9.872,18.175 10.098,18.602 10.549 C 18.956 10.923,19.184 11.252,19.435 11.749 C 19.666 12.206,19.859 12.360,20.200 12.360 C 20.401 12.360,20.553 12.301,20.694 12.167 C 20.999 11.879,21.012 11.578,20.745 11.032 C 20.001 9.513,18.626 8.340,17.116 7.935 C 16.975 7.897,16.846 7.855,16.829 7.840 C 16.812 7.826,16.753 7.644,16.697 7.437 C 15.960 4.671,14.050 2.833,11.396 2.335 C 10.928 2.248,9.653 2.227,9.160 2.299 M3.720 14.344 C 3.423 14.473,3.269 14.706,3.269 15.026 C 3.269 15.293,3.411 15.547,3.632 15.670 L 3.791 15.760 12.000 15.760 L 20.209 15.760 20.368 15.670 C 20.784 15.437,20.860 14.816,20.513 14.492 C 20.271 14.266,20.836 14.280,11.991 14.282 C 4.819 14.283,3.844 14.290,3.720 14.344 M5.720 17.344 C 5.423 17.473,5.269 17.706,5.269 18.026 C 5.269 18.293,5.411 18.547,5.632 18.670 L 5.791 18.760 12.000 18.760 L 18.209 18.760 18.368 18.670 C 18.784 18.437,18.860 17.816,18.513 17.492 C 18.273 17.268,18.652 17.280,11.991 17.282 C 6.605 17.283,5.843 17.290,5.720 17.344 M8.720 20.344 C 8.423 20.473,8.269 20.706,8.269 21.026 C 8.269 21.293,8.411 21.547,8.632 21.670 L 8.791 21.760 12.002 21.760 L 15.213 21.760 15.377 21.664 C 15.787 21.424,15.858 20.814,15.513 20.492 C 15.280 20.274,15.378 20.280,11.991 20.282 C 9.285 20.283,8.841 20.291,8.720 20.344 " stroke="none" fill-rule="evenodd" fill="black"></path></svg>