<svg width="24" height="24" viewBox="0 0 24 24" fill="none" xmlns="http://www.w3.org/2000/svg"><path d="M10.743 3.244 C 9.873 3.336,8.822 3.643,8.080 4.022 C 5.647 5.265,4.263 7.594,4.374 10.257 C 4.395 10.772,4.434 11.068,4.585 11.861 C 4.607 11.981,4.605 11.983,4.314 12.075 C 3.183 12.434,2.285 13.215,1.758 14.297 C 0.906 16.049,1.244 18.201,2.583 19.547 C 3.195 20.162,3.869 20.522,4.800 20.731 C 5.176 20.815,5.237 20.816,10.820 20.830 C 16.682 20.845,17.277 20.833,17.953 20.681 C 19.215 20.398,20.321 19.760,21.203 18.807 C 22.305 17.616,22.869 15.879,22.684 14.240 C 22.622 13.694,22.587 13.594,22.400 13.425 C 22.049 13.108,21.591 13.154,21.300 13.537 C 21.163 13.716,21.139 13.914,21.196 14.387 C 21.292 15.174,21.110 16.161,20.737 16.880 C 20.212 17.891,19.251 18.704,18.134 19.082 C 17.407 19.329,17.668 19.320,11.225 19.320 C 5.448 19.319,5.334 19.318,5.001 19.238 C 3.931 18.982,3.155 18.213,2.878 17.135 C 2.766 16.698,2.767 15.981,2.879 15.544 C 3.161 14.445,3.913 13.703,5.011 13.439 C 5.604 13.297,6.060 13.341,6.760 13.608 C 7.215 13.781,7.344 13.788,7.618 13.658 C 8.043 13.457,8.122 12.770,7.755 12.462 C 7.540 12.281,7.009 12.072,6.482 11.963 L 6.143 11.892 6.072 11.616 C 5.929 11.066,5.868 10.584,5.867 10.000 C 5.865 9.336,5.934 8.883,6.123 8.315 C 6.829 6.191,9.017 4.714,11.457 4.714 C 12.040 4.714,12.345 4.753,12.956 4.908 C 13.325 5.001,13.393 5.008,13.552 4.965 C 13.799 4.899,13.938 4.790,14.037 4.587 C 14.194 4.261,14.108 3.876,13.830 3.666 C 13.410 3.349,11.815 3.131,10.743 3.244 M18.024 4.285 C 16.447 4.436,15.039 5.542,14.482 7.069 C 14.167 7.932,14.156 8.988,14.455 9.864 C 14.993 11.444,16.409 12.561,18.070 12.716 C 19.364 12.836,20.550 12.405,21.477 11.477 C 22.878 10.076,23.108 7.879,22.031 6.194 C 21.530 5.411,20.658 4.743,19.774 4.466 C 19.206 4.288,18.625 4.228,18.024 4.285 M19.176 5.839 C 20.110 6.078,20.905 6.885,21.144 7.839 C 21.228 8.173,21.228 8.780,21.144 9.136 C 20.959 9.914,20.404 10.602,19.660 10.973 C 18.909 11.348,17.961 11.333,17.188 10.934 C 16.756 10.711,16.226 10.166,16.006 9.719 C 15.621 8.938,15.622 8.064,16.009 7.283 C 16.232 6.831,16.756 6.292,17.189 6.067 C 17.779 5.761,18.532 5.674,19.176 5.839 " stroke="none" fill-rule="evenodd" fill="black"></path></svg>