<svg width="24" height="24" viewBox="0 0 24 24" fill="none" xmlns="http://www.w3.org/2000/svg"><path d="M14.815 1.278 C 14.433 1.369,14.180 1.790,14.281 2.165 C 14.328 2.340,15.355 4.078,15.516 4.255 C 15.800 4.569,16.374 4.549,16.636 4.216 C 16.745 4.078,16.813 3.818,16.786 3.649 C 16.774 3.576,16.696 3.395,16.612 3.248 C 16.528 3.100,16.454 2.966,16.446 2.948 C 16.410 2.865,17.261 3.154,17.739 3.388 C 18.977 3.993,19.960 4.966,20.582 6.203 C 20.991 7.019,21.172 7.709,21.237 8.709 C 21.266 9.142,21.288 9.263,21.359 9.378 C 21.612 9.787,22.183 9.857,22.520 9.520 C 22.731 9.309,22.765 9.119,22.717 8.441 C 22.547 6.048,21.284 3.881,19.277 2.542 C 18.604 2.094,17.745 1.710,16.947 1.503 C 16.288 1.332,15.110 1.207,14.815 1.278 M10.824 5.982 C 9.035 6.319,7.664 7.551,7.231 9.211 C 7.161 9.480,7.145 9.660,7.143 10.200 C 7.141 10.563,7.153 10.950,7.170 11.060 L 7.199 11.260 6.888 11.410 C 5.774 11.945,5.130 13.159,5.276 14.446 C 5.421 15.719,6.283 16.713,7.489 17.000 C 7.830 17.081,7.915 17.082,11.669 17.071 C 15.481 17.059,15.502 17.059,15.811 16.971 C 17.206 16.576,18.286 15.500,18.620 14.177 C 18.708 13.827,18.752 13.148,18.711 12.766 C 18.586 11.591,17.936 10.486,16.994 9.848 C 16.753 9.685,16.305 9.462,16.091 9.398 C 15.922 9.348,15.921 9.346,15.818 9.010 C 15.684 8.569,15.359 7.938,15.067 7.550 C 14.514 6.816,13.708 6.292,12.740 6.036 C 12.313 5.923,11.288 5.894,10.824 5.982 M12.272 7.462 C 12.711 7.551,13.242 7.819,13.562 8.113 C 14.036 8.547,14.313 9.063,14.503 9.867 C 14.654 10.506,14.782 10.633,15.420 10.777 C 16.248 10.963,16.883 11.604,17.143 12.516 C 17.239 12.851,17.248 12.937,17.230 13.316 C 17.195 14.004,16.977 14.474,16.474 14.939 C 16.168 15.222,15.808 15.421,15.420 15.520 C 15.119 15.597,14.975 15.600,11.582 15.600 C 7.647 15.600,7.765 15.608,7.361 15.326 C 6.930 15.024,6.739 14.598,6.768 14.004 C 6.806 13.218,7.239 12.755,8.066 12.614 C 8.492 12.542,8.677 12.435,8.795 12.190 C 8.902 11.970,8.902 11.800,8.798 11.461 C 8.499 10.495,8.538 9.698,8.921 8.963 C 9.497 7.856,10.966 7.198,12.272 7.462 M1.819 14.276 C 1.554 14.342,1.338 14.564,1.276 14.833 C 1.257 14.916,1.260 15.220,1.281 15.527 C 1.452 17.954,2.695 20.097,4.723 21.459 C 5.480 21.968,6.587 22.422,7.496 22.597 C 8.076 22.709,8.920 22.768,9.173 22.713 C 9.561 22.630,9.821 22.204,9.716 21.825 C 9.669 21.655,8.639 19.916,8.484 19.745 C 8.200 19.431,7.626 19.451,7.364 19.784 C 7.255 19.922,7.187 20.182,7.214 20.351 C 7.226 20.424,7.304 20.605,7.388 20.752 C 7.472 20.900,7.546 21.034,7.554 21.052 C 7.592 21.138,6.730 20.842,6.240 20.600 C 5.202 20.088,4.311 19.284,3.689 18.298 C 3.156 17.452,2.766 16.185,2.760 15.280 C 2.758 14.939,2.698 14.691,2.580 14.536 C 2.422 14.329,2.078 14.211,1.819 14.276 " stroke="none" fill-rule="evenodd" fill="black"></path></svg>