<svg width="24" height="24" viewBox="0 0 24 24" fill="none" xmlns="http://www.w3.org/2000/svg"><path d="M10.820 3.244 C 9.965 3.314,8.963 3.593,8.181 3.980 C 6.097 5.011,4.770 6.788,4.461 8.960 C 4.349 9.748,4.397 10.839,4.579 11.621 C 4.612 11.766,4.640 11.900,4.640 11.918 C 4.640 11.937,4.495 11.999,4.318 12.056 C 2.376 12.682,1.164 14.590,1.362 16.710 C 1.550 18.723,2.916 20.280,4.820 20.654 C 5.377 20.763,5.645 20.776,5.822 20.702 C 6.294 20.504,6.454 19.973,6.163 19.570 C 6.016 19.367,5.861 19.299,5.420 19.241 C 4.671 19.144,4.183 18.910,3.676 18.401 C 3.403 18.127,3.298 17.987,3.166 17.718 C 2.902 17.183,2.827 16.812,2.849 16.162 C 2.865 15.689,2.883 15.575,2.989 15.270 C 3.387 14.126,4.313 13.424,5.543 13.333 C 5.934 13.304,6.342 13.384,6.828 13.585 C 7.213 13.744,7.359 13.752,7.601 13.630 C 7.994 13.431,8.131 12.987,7.918 12.600 C 7.835 12.450,7.770 12.395,7.520 12.270 C 7.195 12.107,6.694 11.942,6.387 11.898 C 6.156 11.865,6.154 11.861,6.008 11.180 C 5.919 10.766,5.905 10.601,5.905 9.980 C 5.904 9.145,5.982 8.691,6.235 8.062 C 6.533 7.321,6.893 6.804,7.511 6.229 C 8.244 5.547,9.201 5.060,10.281 4.821 C 10.693 4.729,11.746 4.696,12.212 4.759 C 13.781 4.973,15.128 5.886,15.909 7.266 C 16.170 7.726,16.549 8.693,16.512 8.804 C 16.504 8.828,16.345 8.897,16.159 8.959 C 15.474 9.184,15.249 9.330,15.138 9.621 C 15.004 9.971,15.153 10.392,15.462 10.538 C 15.733 10.667,15.869 10.661,16.281 10.501 C 16.972 10.234,17.346 10.186,17.835 10.301 C 19.171 10.616,20.331 11.690,20.864 13.107 C 21.466 14.705,21.173 16.497,20.122 17.648 C 19.218 18.639,18.205 19.139,16.908 19.237 C 16.478 19.269,16.368 19.291,16.227 19.374 C 15.780 19.636,15.759 20.340,16.191 20.607 C 16.399 20.735,16.573 20.757,17.081 20.718 C 18.548 20.607,19.809 20.036,20.905 18.989 C 21.924 18.015,22.496 16.819,22.643 15.360 C 22.700 14.790,22.666 14.213,22.539 13.576 C 22.108 11.421,20.660 9.690,18.720 9.010 C 18.533 8.945,18.313 8.879,18.231 8.864 C 18.097 8.839,18.078 8.820,18.039 8.668 C 17.754 7.570,17.446 6.852,16.926 6.076 C 15.809 4.408,14.083 3.412,12.013 3.240 C 11.486 3.197,11.393 3.197,10.820 3.244 M10.814 17.278 C 10.612 17.326,10.424 17.464,10.328 17.633 C 10.246 17.780,10.240 17.842,10.240 18.512 L 10.240 19.232 9.510 19.246 C 8.818 19.259,8.771 19.265,8.606 19.360 C 8.116 19.640,8.112 20.347,8.600 20.634 C 8.774 20.736,8.804 20.740,9.510 20.754 L 10.240 20.768 10.240 21.490 C 10.240 22.181,10.244 22.220,10.336 22.377 C 10.576 22.787,11.186 22.858,11.508 22.513 C 11.690 22.318,11.720 22.167,11.720 21.445 L 11.720 20.768 12.450 20.753 C 13.228 20.737,13.318 20.717,13.508 20.513 C 13.623 20.391,13.720 20.155,13.720 20.000 C 13.720 19.845,13.623 19.609,13.508 19.487 C 13.318 19.283,13.228 19.263,12.450 19.247 L 11.720 19.232 11.720 18.555 C 11.720 17.833,11.690 17.682,11.508 17.487 C 11.339 17.306,11.056 17.221,10.814 17.278 " stroke="none" fill-rule="evenodd" fill="black"></path></svg>