<svg width="24" height="24" viewBox="0 0 24 24" fill="none" xmlns="http://www.w3.org/2000/svg"><path d="M10.680 1.764 C 9.303 1.919,7.839 2.519,6.800 3.353 C 5.831 4.130,5.061 5.236,4.684 6.389 C 4.325 7.487,4.264 8.871,4.522 10.058 C 4.565 10.255,4.600 10.436,4.600 10.460 C 4.600 10.484,4.444 10.554,4.253 10.617 C 2.256 11.267,1.017 13.347,1.336 15.511 C 1.631 17.508,2.992 18.924,4.935 19.259 C 5.178 19.301,5.560 19.320,6.140 19.320 L 6.989 19.320 7.187 19.630 C 7.764 20.532,8.507 21.199,9.467 21.676 C 9.934 21.908,10.346 22.050,10.896 22.167 C 11.473 22.291,12.527 22.291,13.104 22.167 C 14.690 21.828,15.963 20.958,16.809 19.635 L 17.004 19.331 17.272 19.304 C 18.506 19.179,19.681 18.667,20.679 17.820 C 21.710 16.946,22.354 15.823,22.627 14.420 C 22.727 13.909,22.725 12.840,22.625 12.300 C 22.453 11.383,22.092 10.488,21.597 9.753 C 21.276 9.277,20.501 8.501,20.036 8.191 C 19.594 7.895,18.956 7.592,18.501 7.461 C 18.303 7.404,18.130 7.344,18.117 7.329 C 18.104 7.313,18.051 7.138,18.000 6.940 C 17.662 5.623,16.939 4.358,16.034 3.498 C 14.661 2.194,12.649 1.542,10.680 1.764 M12.416 3.305 C 13.091 3.418,13.825 3.711,14.415 4.104 C 14.915 4.437,15.537 5.112,15.894 5.706 C 16.224 6.257,16.525 7.074,16.676 7.831 C 16.721 8.056,16.785 8.293,16.818 8.356 C 16.933 8.579,17.237 8.759,17.500 8.760 C 17.648 8.760,18.298 8.953,18.579 9.079 C 19.258 9.385,20.054 10.086,20.459 10.736 C 21.355 12.173,21.466 13.961,20.748 15.385 C 20.346 16.181,19.548 16.945,18.671 17.371 C 18.275 17.564,17.701 17.755,17.655 17.709 C 17.641 17.694,17.651 17.543,17.679 17.373 C 17.747 16.949,17.739 16.061,17.663 15.592 C 17.589 15.131,17.345 14.368,17.148 13.976 C 16.605 12.897,15.620 11.915,14.563 11.396 C 13.700 10.974,12.958 10.801,12.000 10.801 C 10.420 10.801,9.072 11.360,7.957 12.476 C 7.255 13.179,6.851 13.828,6.555 14.730 C 6.240 15.690,6.182 16.711,6.384 17.730 L 6.406 17.840 5.927 17.840 C 4.909 17.840,4.206 17.579,3.620 16.982 C 3.288 16.645,3.075 16.295,2.939 15.869 C 2.670 15.019,2.745 14.126,3.153 13.340 C 3.374 12.913,3.885 12.418,4.321 12.207 C 4.719 12.015,5.019 11.930,5.465 11.884 C 5.867 11.843,6.088 11.729,6.227 11.491 C 6.360 11.265,6.342 11.010,6.152 10.400 C 5.607 8.654,5.807 6.977,6.721 5.617 C 7.011 5.185,7.656 4.552,8.116 4.246 C 9.408 3.386,10.918 3.056,12.416 3.305 M13.048 12.414 C 13.479 12.526,13.994 12.752,14.348 12.986 C 14.649 13.186,15.160 13.673,15.403 13.992 C 15.790 14.502,16.095 15.227,16.201 15.889 C 16.269 16.314,16.232 17.130,16.126 17.528 C 15.727 19.030,14.598 20.202,13.151 20.617 C 10.865 21.272,8.501 19.889,7.874 17.528 C 7.768 17.130,7.731 16.314,7.799 15.889 C 7.895 15.291,8.135 14.676,8.475 14.160 C 8.658 13.882,9.150 13.364,9.450 13.132 C 9.930 12.763,10.615 12.464,11.266 12.341 C 11.739 12.252,12.552 12.285,13.048 12.414 M10.540 14.835 C 10.350 14.923,10.264 15.012,10.182 15.210 C 10.035 15.561,10.128 15.824,10.551 16.250 L 10.858 16.560 10.531 16.890 C 10.089 17.335,9.999 17.570,10.142 17.911 C 10.268 18.213,10.502 18.371,10.820 18.371 C 11.090 18.371,11.239 18.287,11.610 17.927 L 11.920 17.626 12.251 17.949 C 12.624 18.313,12.788 18.389,13.101 18.342 C 13.255 18.319,13.326 18.278,13.482 18.122 C 13.638 17.966,13.679 17.895,13.702 17.741 C 13.749 17.428,13.673 17.264,13.309 16.891 L 12.986 16.560 13.267 16.270 C 13.608 15.918,13.680 15.787,13.680 15.516 C 13.680 15.099,13.365 14.789,12.942 14.789 C 12.673 14.789,12.600 14.830,12.230 15.194 L 11.920 15.498 11.610 15.191 C 11.175 14.759,10.903 14.669,10.540 14.835 " stroke="none" fill-rule="evenodd" fill="black"></path></svg>