<svg width="24" height="24" viewBox="0 0 24 24" fill="none" xmlns="http://www.w3.org/2000/svg"><path d="M11.060 3.226 C 9.419 3.325,7.911 3.919,6.657 4.963 C 6.001 5.509,5.341 6.368,4.983 7.141 C 4.520 8.143,4.335 9.063,4.374 10.180 C 4.395 10.787,4.423 11.008,4.585 11.861 C 4.607 11.981,4.605 11.983,4.314 12.075 C 3.183 12.434,2.285 13.215,1.758 14.297 C 0.906 16.049,1.244 18.201,2.583 19.547 C 3.195 20.162,3.869 20.522,4.800 20.731 C 5.176 20.815,5.237 20.816,10.820 20.830 C 16.682 20.845,17.277 20.833,17.953 20.681 C 20.167 20.184,21.909 18.568,22.500 16.463 C 22.683 15.809,22.758 14.903,22.683 14.240 C 22.574 13.269,22.229 12.240,21.772 11.525 L 21.635 11.310 21.732 11.205 C 21.904 11.020,22.157 10.618,22.317 10.274 C 23.149 8.486,22.616 6.324,21.051 5.142 C 20.394 4.645,19.645 4.352,18.864 4.284 C 18.377 4.242,17.776 4.290,17.360 4.405 C 17.044 4.492,16.400 4.778,16.200 4.920 L 16.082 5.004 15.731 4.719 C 15.278 4.353,15.031 4.190,14.540 3.934 C 13.827 3.564,12.956 3.322,12.038 3.241 C 11.596 3.202,11.492 3.201,11.060 3.226 M12.385 4.781 C 14.350 5.121,15.735 6.365,16.424 8.413 C 16.499 8.635,16.560 8.828,16.560 8.844 C 16.560 8.859,16.430 8.912,16.270 8.960 C 16.110 9.008,15.833 9.115,15.654 9.199 C 15.377 9.328,15.313 9.377,15.224 9.529 C 15.009 9.896,15.126 10.356,15.485 10.558 C 15.722 10.691,15.944 10.682,16.335 10.524 C 17.115 10.209,17.641 10.205,18.428 10.510 C 19.343 10.864,20.196 11.676,20.690 12.660 C 21.365 14.007,21.395 15.567,20.769 16.820 C 20.550 17.258,20.335 17.550,19.943 17.941 C 19.370 18.512,18.848 18.840,18.120 19.087 C 17.409 19.328,17.655 19.320,11.225 19.320 C 5.448 19.319,5.334 19.318,5.001 19.238 C 3.931 18.982,3.155 18.213,2.878 17.135 C 2.766 16.698,2.767 15.981,2.879 15.544 C 3.161 14.445,3.913 13.703,5.011 13.439 C 5.604 13.297,6.060 13.341,6.760 13.608 C 7.215 13.781,7.344 13.788,7.618 13.658 C 8.043 13.457,8.122 12.770,7.755 12.462 C 7.539 12.280,7.008 12.072,6.480 11.963 L 6.140 11.892 6.071 11.616 C 5.699 10.134,5.798 8.877,6.379 7.700 C 6.658 7.136,6.880 6.831,7.356 6.358 C 8.108 5.612,9.133 5.070,10.225 4.844 C 10.752 4.735,10.771 4.733,11.445 4.726 C 11.816 4.722,12.159 4.742,12.385 4.781 M19.320 5.873 C 19.463 5.920,19.697 6.026,19.840 6.109 C 20.158 6.294,20.653 6.783,20.835 7.091 C 21.342 7.952,21.342 9.030,20.836 9.889 L 20.677 10.159 20.449 9.972 C 19.870 9.500,19.188 9.140,18.484 8.937 C 18.297 8.882,18.130 8.817,18.115 8.791 C 18.099 8.766,18.048 8.592,18.001 8.404 C 17.846 7.787,17.499 6.949,17.182 6.425 C 17.104 6.296,17.040 6.177,17.040 6.161 C 17.040 6.114,17.561 5.887,17.821 5.822 C 18.171 5.734,18.976 5.762,19.320 5.873 " stroke="none" fill-rule="evenodd" fill="black"></path></svg>