<svg width="24" height="24" viewBox="0 0 24 24" fill="none" xmlns="http://www.w3.org/2000/svg"><path d="M10.948 1.280 C 9.012 1.464,7.236 2.478,6.228 3.977 C 5.783 4.640,5.525 5.250,5.355 6.040 C 5.279 6.392,5.265 6.582,5.265 7.220 C 5.264 7.937,5.284 8.134,5.421 8.783 C 5.446 8.900,5.439 8.908,5.274 8.956 C 4.301 9.243,3.383 10.053,2.937 11.018 C 2.371 12.243,2.469 13.822,3.181 14.926 C 3.770 15.841,4.542 16.384,5.632 16.649 C 5.964 16.730,6.098 16.734,8.610 16.749 L 11.240 16.765 11.240 17.557 L 11.240 18.349 11.010 18.434 C 10.350 18.676,9.676 19.349,9.434 20.008 L 9.351 20.236 7.562 20.248 L 5.774 20.260 5.612 20.367 C 5.372 20.526,5.267 20.721,5.267 21.007 C 5.267 21.203,5.286 21.270,5.383 21.408 C 5.447 21.499,5.572 21.610,5.660 21.656 C 5.814 21.737,5.885 21.740,7.588 21.752 L 9.355 21.764 9.402 21.912 C 9.526 22.305,9.917 22.852,10.273 23.131 C 10.818 23.558,11.315 23.731,12.000 23.731 C 12.685 23.731,13.182 23.558,13.727 23.131 C 14.084 22.851,14.474 22.305,14.599 21.910 L 14.646 21.760 16.301 21.760 C 17.359 21.760,18.030 21.744,18.162 21.716 C 18.904 21.557,18.924 20.471,18.189 20.286 C 18.064 20.255,17.466 20.240,16.328 20.240 L 14.651 20.240 14.566 20.010 C 14.324 19.349,13.651 18.676,12.990 18.434 L 12.760 18.349 12.760 17.559 L 12.760 16.768 14.710 16.748 C 16.838 16.726,16.956 16.716,17.710 16.476 C 18.953 16.079,20.086 15.184,20.724 14.095 C 21.932 12.032,21.543 9.259,19.801 7.519 C 19.204 6.922,18.556 6.523,17.765 6.263 L 17.389 6.140 17.312 5.841 C 16.991 4.602,16.264 3.390,15.408 2.670 C 14.576 1.970,13.686 1.549,12.645 1.363 C 12.124 1.270,11.417 1.236,10.948 1.280 M12.691 2.892 C 12.906 2.949,13.255 3.078,13.465 3.177 C 14.768 3.795,15.621 4.971,15.960 6.620 C 16.104 7.320,16.209 7.434,16.825 7.565 C 17.709 7.752,18.330 8.101,18.902 8.733 C 19.874 9.805,20.193 11.503,19.675 12.846 C 19.282 13.866,18.296 14.745,17.138 15.108 L 16.780 15.220 11.491 15.231 C 5.613 15.243,5.954 15.258,5.364 14.974 C 4.788 14.697,4.313 14.094,4.139 13.420 C 4.058 13.106,4.057 12.452,4.137 12.109 C 4.376 11.076,5.205 10.392,6.380 10.257 C 6.690 10.222,6.895 10.116,7.020 9.928 C 7.180 9.685,7.186 9.480,7.046 9.040 C 6.640 7.769,6.625 6.758,6.995 5.710 C 7.433 4.469,8.629 3.398,10.064 2.962 C 10.597 2.800,10.904 2.764,11.620 2.777 C 12.198 2.787,12.359 2.805,12.691 2.892 M12.454 19.841 C 12.744 19.950,13.050 20.256,13.159 20.546 C 13.335 21.017,13.227 21.521,12.874 21.874 C 12.629 22.120,12.342 22.240,12.000 22.240 C 11.492 22.240,11.014 21.913,10.837 21.445 C 10.728 21.157,10.743 20.704,10.870 20.458 C 11.019 20.169,11.349 19.886,11.640 19.797 C 11.838 19.737,12.232 19.758,12.454 19.841 " stroke="none" fill-rule="evenodd" fill="black"></path></svg>