<svg width="24" height="24" viewBox="0 0 24 24" fill="none" xmlns="http://www.w3.org/2000/svg"><path d="M10.820 3.244 C 9.965 3.314,8.963 3.593,8.181 3.980 C 6.097 5.011,4.770 6.788,4.461 8.960 C 4.349 9.748,4.397 10.839,4.579 11.621 C 4.612 11.766,4.640 11.900,4.640 11.918 C 4.640 11.937,4.495 11.999,4.318 12.056 C 2.376 12.682,1.164 14.590,1.362 16.710 C 1.550 18.723,2.916 20.280,4.820 20.654 C 5.377 20.763,5.645 20.776,5.822 20.702 C 6.294 20.504,6.454 19.973,6.163 19.570 C 6.016 19.367,5.861 19.299,5.420 19.241 C 4.671 19.144,4.183 18.910,3.676 18.401 C 3.403 18.127,3.298 17.987,3.166 17.718 C 2.902 17.183,2.827 16.812,2.849 16.162 C 2.865 15.689,2.883 15.575,2.989 15.270 C 3.387 14.126,4.313 13.424,5.543 13.333 C 5.934 13.304,6.342 13.384,6.828 13.585 C 7.213 13.744,7.359 13.752,7.601 13.630 C 7.994 13.431,8.131 12.987,7.918 12.600 C 7.835 12.450,7.770 12.395,7.520 12.270 C 7.195 12.107,6.694 11.942,6.387 11.898 C 6.156 11.865,6.154 11.861,6.008 11.180 C 5.919 10.766,5.905 10.601,5.905 9.980 C 5.904 9.145,5.982 8.691,6.235 8.062 C 6.533 7.321,6.893 6.804,7.511 6.229 C 8.244 5.547,9.201 5.060,10.281 4.821 C 10.693 4.729,11.746 4.696,12.212 4.759 C 13.781 4.973,15.128 5.886,15.909 7.266 C 16.170 7.726,16.549 8.693,16.512 8.804 C 16.504 8.828,16.345 8.897,16.159 8.959 C 15.474 9.184,15.249 9.330,15.138 9.621 C 15.004 9.971,15.153 10.392,15.462 10.538 C 15.733 10.667,15.869 10.661,16.281 10.501 C 16.972 10.234,17.346 10.186,17.835 10.301 C 19.171 10.616,20.331 11.690,20.864 13.107 C 21.466 14.705,21.173 16.497,20.122 17.648 C 19.218 18.639,18.205 19.139,16.908 19.237 C 16.478 19.269,16.368 19.291,16.227 19.374 C 15.780 19.636,15.759 20.340,16.191 20.607 C 16.399 20.735,16.573 20.757,17.081 20.718 C 18.548 20.607,19.809 20.036,20.905 18.989 C 21.924 18.015,22.496 16.819,22.643 15.360 C 22.700 14.790,22.666 14.213,22.539 13.576 C 22.108 11.421,20.660 9.690,18.720 9.010 C 18.533 8.945,18.313 8.879,18.231 8.864 C 18.097 8.839,18.078 8.820,18.039 8.668 C 17.754 7.570,17.446 6.852,16.926 6.076 C 15.809 4.408,14.083 3.412,12.013 3.240 C 11.486 3.197,11.393 3.197,10.820 3.244 M8.600 17.584 C 8.267 17.728,8.001 18.135,8.001 18.500 C 8.001 18.870,8.270 19.277,8.609 19.418 C 8.691 19.452,8.867 19.480,9.000 19.480 C 9.419 19.480,9.722 19.286,9.905 18.900 C 10.134 18.415,9.891 17.790,9.391 17.582 C 9.203 17.503,8.783 17.504,8.600 17.584 M12.600 17.584 C 12.267 17.728,12.001 18.135,12.001 18.500 C 12.001 18.870,12.270 19.277,12.609 19.418 C 12.691 19.452,12.867 19.480,13.000 19.480 C 13.419 19.480,13.722 19.286,13.905 18.900 C 14.134 18.415,13.891 17.790,13.391 17.582 C 13.203 17.503,12.783 17.504,12.600 17.584 M10.600 20.584 C 10.267 20.728,10.001 21.135,10.001 21.500 C 10.001 21.870,10.270 22.277,10.609 22.418 C 10.691 22.452,10.867 22.480,11.000 22.480 C 11.419 22.480,11.722 22.286,11.905 21.900 C 12.134 21.415,11.891 20.790,11.391 20.582 C 11.203 20.503,10.783 20.504,10.600 20.584 " stroke="none" fill-rule="evenodd" fill="black"></path></svg>