<svg width="24" height="24" viewBox="0 0 24 24" fill="none" xmlns="http://www.w3.org/2000/svg"><path d="M8.080 1.282 C 4.008 1.495,1.895 3.296,1.383 6.991 C 1.270 7.803,1.242 8.816,1.242 12.000 C 1.242 16.504,1.302 17.273,1.760 18.650 C 2.532 20.963,4.206 22.226,7.027 22.622 C 7.786 22.728,8.902 22.759,12.000 22.759 C 15.098 22.759,16.214 22.728,16.973 22.622 C 19.443 22.275,20.996 21.288,21.897 19.490 C 22.379 18.530,22.638 17.369,22.720 15.807 C 22.771 14.838,22.771 9.162,22.720 8.193 C 22.657 6.998,22.521 6.191,22.242 5.356 C 21.632 3.531,20.469 2.367,18.650 1.760 C 17.788 1.473,17.023 1.344,15.806 1.280 C 14.952 1.235,8.952 1.237,8.080 1.282 M16.800 2.854 C 19.586 3.316,20.714 4.454,21.148 7.240 C 21.214 7.661,21.220 8.064,21.220 12.000 C 21.220 15.936,21.214 16.339,21.148 16.760 C 20.712 19.558,19.558 20.712,16.760 21.148 C 16.339 21.214,15.936 21.220,12.000 21.220 C 8.064 21.220,7.661 21.214,7.240 21.148 C 4.450 20.713,3.283 19.551,2.854 16.780 C 2.785 16.335,2.780 15.989,2.780 12.000 C 2.780 7.247,2.776 7.337,3.044 6.288 C 3.557 4.282,4.722 3.274,6.960 2.900 C 7.690 2.777,8.048 2.769,12.200 2.777 C 15.963 2.784,16.422 2.791,16.800 2.854 M6.720 8.276 C 6.354 8.392,6.160 8.643,6.160 9.000 C 6.160 9.346,6.285 9.513,6.730 9.762 C 7.205 10.028,7.627 10.343,7.985 10.701 C 8.329 11.046,8.735 11.583,8.801 11.783 C 8.903 12.093,8.777 12.392,8.300 12.964 C 7.887 13.460,7.316 13.915,6.631 14.294 C 6.430 14.405,6.336 14.487,6.261 14.615 C 5.919 15.198,6.450 15.892,7.094 15.703 C 7.332 15.634,7.964 15.258,8.400 14.927 C 9.294 14.249,10.140 13.149,10.276 12.488 C 10.339 12.186,10.330 11.752,10.257 11.466 C 10.042 10.630,9.059 9.478,7.940 8.751 C 7.308 8.340,6.954 8.202,6.720 8.276 M12.815 14.278 C 12.331 14.393,12.098 15.004,12.383 15.408 C 12.447 15.499,12.572 15.610,12.660 15.656 C 12.815 15.738,12.880 15.740,14.875 15.752 C 17.208 15.765,17.281 15.759,17.519 15.521 C 17.918 15.122,17.731 14.423,17.189 14.286 C 16.980 14.234,13.031 14.226,12.815 14.278 " stroke="none" fill-rule="evenodd" fill="black"></path></svg>