<svg width="24" height="24" viewBox="0 0 24 24" fill="none" xmlns="http://www.w3.org/2000/svg"><path d="M11.320 1.281 C 7.041 1.525,3.252 4.409,1.843 8.497 C 1.180 10.418,1.082 12.560,1.564 14.550 C 2.505 18.428,5.572 21.495,9.450 22.436 C 11.106 22.837,12.894 22.837,14.550 22.436 C 18.428 21.495,21.495 18.428,22.436 14.550 C 22.837 12.894,22.837 11.106,22.436 9.450 C 21.425 5.282,17.985 2.095,13.742 1.398 C 13.334 1.331,12.074 1.229,11.880 1.247 C 11.847 1.250,11.595 1.265,11.320 1.281 M13.146 2.822 C 14.201 2.960,15.125 3.237,16.060 3.696 C 18.877 5.079,20.768 7.722,21.178 10.854 C 21.301 11.786,21.244 13.026,21.034 13.998 C 20.745 15.343,20.003 16.855,19.121 17.900 C 18.247 18.935,17.240 19.726,16.060 20.304 C 14.761 20.940,13.462 21.240,12.000 21.240 C 10.538 21.240,9.236 20.940,7.940 20.304 C 5.123 18.921,3.232 16.278,2.822 13.146 C 2.699 12.214,2.756 10.974,2.966 10.002 C 3.177 9.020,3.703 7.775,4.268 6.920 C 5.750 4.677,8.131 3.188,10.820 2.823 C 11.380 2.746,12.569 2.746,13.146 2.822 M12.720 8.984 C 12.643 9.017,12.531 9.091,12.472 9.148 C 12.397 9.220,12.047 9.989,11.315 11.696 C 10.397 13.834,10.266 14.165,10.267 14.341 C 10.270 14.660,10.428 14.892,10.729 15.018 C 11.000 15.131,11.303 15.068,11.528 14.852 C 11.603 14.780,11.953 14.011,12.685 12.304 C 13.603 10.166,13.734 9.835,13.733 9.659 C 13.730 9.340,13.572 9.108,13.271 8.982 C 13.086 8.905,12.901 8.905,12.720 8.984 M7.900 9.260 C 7.878 9.267,7.806 9.285,7.740 9.300 C 7.653 9.319,7.315 9.630,6.528 10.413 C 5.927 11.011,5.397 11.561,5.351 11.636 C 5.235 11.822,5.235 12.178,5.351 12.364 C 5.397 12.439,5.927 12.988,6.528 13.585 C 7.553 14.605,7.632 14.673,7.810 14.711 C 8.390 14.832,8.832 14.389,8.710 13.810 C 8.673 13.634,8.609 13.559,7.867 12.810 L 7.064 12.000 7.867 11.190 C 8.611 10.439,8.673 10.366,8.711 10.189 C 8.785 9.835,8.633 9.480,8.352 9.350 C 8.213 9.286,7.968 9.237,7.900 9.260 M15.815 9.278 C 15.640 9.320,15.462 9.455,15.356 9.626 C 15.253 9.793,15.233 10.156,15.318 10.320 C 15.347 10.375,15.723 10.775,16.154 11.210 L 16.937 12.000 16.154 12.790 C 15.723 13.225,15.347 13.625,15.318 13.680 C 15.290 13.735,15.267 13.884,15.267 14.011 C 15.267 14.202,15.287 14.271,15.383 14.408 C 15.447 14.499,15.568 14.608,15.651 14.651 C 15.838 14.747,16.139 14.753,16.327 14.664 C 16.403 14.627,16.962 14.099,17.568 13.489 C 18.605 12.447,18.673 12.369,18.711 12.190 C 18.737 12.064,18.737 11.936,18.711 11.810 C 18.673 11.631,18.605 11.553,17.568 10.511 C 16.962 9.901,16.410 9.377,16.343 9.346 C 16.176 9.269,15.966 9.242,15.815 9.278 " stroke="none" fill-rule="evenodd" fill="black"></path></svg>