<svg width="24" height="24" viewBox="0 0 24 24" fill="none" xmlns="http://www.w3.org/2000/svg"><path d="M8.080 1.282 C 4.008 1.495,1.895 3.296,1.383 6.991 C 1.270 7.803,1.242 8.816,1.242 12.000 C 1.242 16.504,1.302 17.273,1.760 18.650 C 2.532 20.963,4.206 22.226,7.027 22.622 C 7.786 22.728,8.902 22.759,12.000 22.759 C 15.098 22.759,16.214 22.728,16.973 22.622 C 19.443 22.275,20.996 21.288,21.897 19.490 C 22.379 18.530,22.638 17.369,22.720 15.807 C 22.771 14.838,22.771 9.162,22.720 8.193 C 22.657 6.998,22.521 6.191,22.242 5.356 C 21.632 3.531,20.469 2.367,18.650 1.760 C 17.788 1.473,17.023 1.344,15.806 1.280 C 14.952 1.235,8.952 1.237,8.080 1.282 M16.800 2.854 C 18.961 3.213,20.062 3.957,20.696 5.487 C 20.850 5.859,21.009 6.434,21.094 6.925 L 21.147 7.230 12.037 7.260 C 7.027 7.276,2.910 7.279,2.889 7.265 C 2.864 7.250,2.876 7.097,2.920 6.851 C 3.348 4.467,4.537 3.305,6.960 2.900 C 7.690 2.777,8.048 2.769,12.200 2.777 C 15.963 2.784,16.422 2.791,16.800 2.854 M21.230 12.570 C 21.214 16.751,21.219 16.644,20.960 17.688 C 20.504 19.519,19.520 20.504,17.688 20.960 C 16.622 21.226,16.745 21.220,12.000 21.220 C 8.064 21.220,7.661 21.214,7.240 21.148 C 4.454 20.714,3.310 19.580,2.854 16.800 C 2.793 16.428,2.783 15.944,2.770 12.570 L 2.756 8.760 12.000 8.760 L 21.244 8.760 21.230 12.570 M8.780 12.295 C 8.433 12.409,7.800 12.842,7.407 13.236 C 7.057 13.586,6.778 13.957,6.624 14.280 C 6.507 14.524,6.500 14.568,6.500 15.002 C 6.500 15.454,6.503 15.471,6.647 15.762 C 7.027 16.528,8.149 17.534,8.828 17.717 C 9.348 17.857,9.857 17.348,9.717 16.829 C 9.648 16.571,9.540 16.453,9.190 16.249 C 8.669 15.947,7.960 15.226,7.960 15.000 C 7.960 14.774,8.669 14.053,9.190 13.751 C 9.541 13.547,9.647 13.429,9.717 13.170 C 9.863 12.629,9.316 12.119,8.780 12.295 M15.040 12.276 C 14.674 12.392,14.480 12.643,14.480 13.000 C 14.480 13.326,14.607 13.510,14.989 13.734 C 15.410 13.981,15.735 14.250,15.989 14.561 C 16.317 14.962,16.317 15.038,15.989 15.439 C 15.735 15.750,15.410 16.019,14.989 16.266 C 14.607 16.490,14.480 16.674,14.480 17.000 C 14.480 17.563,15.028 17.891,15.566 17.651 C 16.379 17.288,17.398 16.269,17.649 15.568 C 17.761 15.255,17.761 14.745,17.649 14.432 C 17.456 13.892,16.765 13.102,16.106 12.666 C 15.574 12.314,15.270 12.203,15.040 12.276 " stroke="none" fill-rule="evenodd" fill="black"></path></svg>