<svg width="24" height="24" viewBox="0 0 24 24" fill="none" xmlns="http://www.w3.org/2000/svg"><path d="M5.163 1.590 C 5.087 1.629,4.970 1.729,4.903 1.814 L 4.780 1.967 4.768 3.014 C 4.761 3.589,4.766 4.119,4.780 4.191 C 4.808 4.345,5.001 4.578,5.175 4.668 C 5.332 4.749,5.667 4.750,5.821 4.669 C 5.976 4.588,6.144 4.409,6.197 4.267 C 6.224 4.198,6.240 3.753,6.240 3.116 C 6.240 2.173,6.233 2.063,6.164 1.928 C 6.072 1.749,5.939 1.620,5.787 1.563 C 5.618 1.498,5.317 1.511,5.163 1.590 M9.163 1.590 C 9.087 1.629,8.970 1.729,8.903 1.814 L 8.780 1.967 8.768 3.014 C 8.761 3.589,8.766 4.119,8.780 4.191 C 8.808 4.345,9.001 4.578,9.175 4.668 C 9.332 4.749,9.667 4.750,9.821 4.669 C 9.976 4.588,10.144 4.409,10.197 4.267 C 10.224 4.198,10.240 3.753,10.240 3.116 C 10.240 2.173,10.233 2.063,10.164 1.928 C 10.072 1.749,9.939 1.620,9.787 1.563 C 9.618 1.498,9.317 1.511,9.163 1.590 M13.163 1.590 C 13.087 1.629,12.970 1.729,12.903 1.814 L 12.780 1.967 12.768 3.014 C 12.761 3.589,12.766 4.119,12.780 4.191 C 12.808 4.345,13.001 4.578,13.175 4.668 C 13.332 4.749,13.667 4.750,13.821 4.669 C 13.976 4.588,14.144 4.409,14.197 4.267 C 14.224 4.198,14.240 3.753,14.240 3.116 C 14.240 2.173,14.233 2.063,14.164 1.928 C 14.072 1.749,13.939 1.620,13.787 1.563 C 13.618 1.498,13.317 1.511,13.163 1.590 M5.640 5.546 C 4.907 5.667,4.470 5.802,3.943 6.072 C 2.672 6.724,1.734 7.914,1.398 9.300 C 1.251 9.910,1.234 10.497,1.250 14.520 C 1.266 18.329,1.267 18.385,1.354 18.772 C 1.755 20.551,2.970 21.925,4.631 22.479 C 5.444 22.749,5.253 22.740,9.920 22.740 L 14.140 22.740 14.548 22.650 C 16.698 22.174,18.183 20.574,18.493 18.401 L 18.540 18.072 18.980 17.961 C 19.934 17.719,20.692 17.274,21.381 16.555 C 22.058 15.848,22.521 14.912,22.683 13.926 C 22.740 13.584,22.740 12.736,22.683 12.394 C 22.514 11.366,21.988 10.346,21.256 9.630 C 20.445 8.838,19.480 8.379,18.340 8.243 C 18.142 8.220,17.975 8.184,17.968 8.164 C 17.961 8.144,17.845 7.960,17.710 7.754 C 16.999 6.675,15.916 5.930,14.600 5.615 C 14.322 5.549,13.984 5.543,10.020 5.537 C 7.666 5.533,5.695 5.537,5.640 5.546 M14.420 7.110 C 14.596 7.158,14.927 7.292,15.155 7.406 C 15.852 7.755,16.451 8.394,16.755 9.113 C 16.969 9.619,17.006 9.810,17.029 10.550 L 17.050 11.240 9.900 11.240 L 2.750 11.240 2.768 10.510 C 2.785 9.800,2.790 9.769,2.927 9.372 C 3.086 8.913,3.244 8.629,3.548 8.263 C 3.937 7.794,4.572 7.354,5.114 7.180 C 5.649 7.008,5.706 7.006,10.000 7.014 C 14.097 7.021,14.100 7.021,14.420 7.110 M19.116 9.958 C 19.846 10.260,20.544 10.913,20.897 11.628 C 21.159 12.158,21.220 12.455,21.218 13.180 C 21.216 13.790,21.210 13.838,21.089 14.200 C 20.768 15.160,20.016 15.979,19.116 16.350 C 18.953 16.417,18.762 16.484,18.690 16.499 L 18.560 16.526 18.560 13.469 C 18.560 11.788,18.548 10.272,18.534 10.100 L 18.507 9.788 18.666 9.813 C 18.754 9.827,18.956 9.893,19.116 9.958 M17.030 15.590 C 17.017 18.374,17.016 18.425,16.929 18.708 C 16.535 19.994,15.556 20.913,14.295 21.180 C 13.867 21.271,5.974 21.268,5.528 21.177 C 4.270 20.921,3.305 20.033,2.876 18.740 L 2.784 18.460 2.770 15.610 L 2.757 12.760 9.900 12.760 L 17.044 12.760 17.030 15.590 " stroke="none" fill-rule="evenodd" fill="black"></path></svg>