<svg width="24" height="24" viewBox="0 0 24 24" fill="none" xmlns="http://www.w3.org/2000/svg"><path d="M9.340 1.280 C 7.872 1.385,6.389 1.895,5.152 2.719 C 3.072 4.106,1.709 6.272,1.337 8.780 C 1.249 9.380,1.249 10.549,1.338 11.178 C 1.646 13.363,2.722 15.295,4.420 16.714 C 6.725 18.639,9.923 19.229,12.795 18.258 C 14.991 17.515,16.823 15.904,17.838 13.822 C 18.895 11.656,19.005 9.076,18.137 6.847 C 17.424 5.017,16.118 3.474,14.434 2.469 C 12.949 1.584,11.108 1.154,9.340 1.280 M11.446 2.893 C 12.298 3.078,13.088 3.395,13.792 3.832 C 14.268 4.128,14.563 4.362,15.032 4.817 C 17.938 7.634,17.969 12.232,15.100 15.100 C 13.163 17.038,10.340 17.721,7.753 16.878 C 7.350 16.747,6.620 16.410,6.226 16.173 C 5.580 15.785,4.706 14.997,4.228 14.372 C 3.589 13.536,3.127 12.522,2.894 11.446 C 2.755 10.805,2.720 9.671,2.818 9.000 C 3.051 7.396,3.740 6.020,4.880 4.880 C 5.997 3.763,7.356 3.073,8.940 2.820 C 9.197 2.779,9.540 2.767,10.140 2.778 C 10.853 2.790,11.050 2.807,11.446 2.893 M9.616 5.779 C 9.453 5.877,9.307 6.102,9.262 6.327 C 9.242 6.424,9.219 6.437,9.010 6.460 C 8.527 6.515,8.165 6.686,7.843 7.012 C 7.439 7.423,7.270 7.837,7.271 8.420 C 7.272 9.035,7.422 9.451,7.768 9.796 C 8.053 10.081,8.309 10.199,9.740 10.701 C 10.454 10.952,11.075 11.176,11.119 11.199 C 11.220 11.254,11.256 11.393,11.229 11.631 C 11.213 11.774,11.179 11.843,11.083 11.929 L 10.959 12.040 10.069 12.040 C 9.258 12.040,9.169 12.033,9.052 11.962 C 8.870 11.851,8.810 11.739,8.742 11.384 C 8.646 10.883,8.409 10.662,7.970 10.667 C 7.717 10.669,7.497 10.798,7.356 11.027 C 7.274 11.158,7.262 11.226,7.268 11.507 C 7.289 12.476,8.078 13.398,8.982 13.511 C 9.200 13.538,9.221 13.549,9.253 13.660 C 9.383 14.110,9.620 14.320,9.998 14.320 C 10.143 14.320,10.259 14.292,10.368 14.230 C 10.531 14.139,10.720 13.875,10.721 13.736 C 10.722 13.598,10.780 13.563,11.082 13.520 C 11.718 13.430,12.260 13.023,12.547 12.418 C 12.679 12.142,12.695 12.069,12.712 11.705 C 12.722 11.471,12.710 11.202,12.682 11.071 C 12.576 10.559,12.220 10.093,11.757 9.858 C 11.638 9.798,10.960 9.545,10.251 9.296 C 9.541 9.047,8.927 8.825,8.885 8.803 C 8.786 8.750,8.760 8.675,8.760 8.446 C 8.760 8.261,8.827 8.115,8.958 8.011 C 9.056 7.934,10.767 7.941,10.919 8.019 C 11.097 8.112,11.201 8.292,11.247 8.590 C 11.312 9.017,11.490 9.237,11.833 9.314 C 12.235 9.404,12.630 9.161,12.714 8.772 C 12.822 8.268,12.560 7.520,12.123 7.083 C 11.771 6.731,11.260 6.480,10.895 6.480 C 10.775 6.480,10.761 6.467,10.737 6.330 C 10.642 5.785,10.073 5.505,9.616 5.779 M19.820 12.258 C 19.798 12.266,19.732 12.284,19.673 12.296 C 19.518 12.331,19.320 12.512,19.235 12.698 C 19.078 13.044,19.179 13.356,19.545 13.660 C 20.214 14.216,20.584 14.685,20.873 15.344 C 21.375 16.487,21.338 17.817,20.774 18.933 C 20.405 19.663,19.660 20.408,18.933 20.774 C 18.314 21.086,17.777 21.212,17.060 21.212 C 16.308 21.213,15.825 21.107,15.200 20.803 C 14.609 20.516,14.191 20.182,13.740 19.637 C 13.594 19.460,13.419 19.282,13.352 19.241 C 13.071 19.070,12.741 19.109,12.480 19.345 C 12.295 19.512,12.224 19.701,12.249 19.961 C 12.274 20.215,12.528 20.577,13.039 21.083 C 13.631 21.669,14.443 22.170,15.240 22.439 C 16.189 22.760,17.374 22.803,18.380 22.554 C 21.026 21.899,22.826 19.501,22.709 16.788 C 22.662 15.693,22.349 14.746,21.726 13.815 C 21.345 13.246,20.649 12.550,20.259 12.349 C 20.131 12.284,19.888 12.233,19.820 12.258 " stroke="none" fill-rule="evenodd" fill="black"></path></svg>