<svg width="24" height="24" viewBox="0 0 24 24" fill="none" xmlns="http://www.w3.org/2000/svg"><path d="M4.091 1.279 C 3.502 1.345,3.086 1.488,2.640 1.779 C 2.003 2.194,1.564 2.819,1.349 3.620 L 1.263 3.940 1.249 10.900 C 1.236 17.972,1.244 18.460,1.384 19.096 C 1.573 19.950,1.984 20.692,2.630 21.347 C 3.265 21.992,4.041 22.425,4.900 22.615 C 5.547 22.758,5.969 22.765,13.060 22.750 C 19.592 22.737,20.038 22.732,20.320 22.664 C 21.543 22.371,22.405 21.495,22.667 20.278 C 22.732 19.977,22.740 19.726,22.740 18.000 C 22.740 16.274,22.732 16.023,22.667 15.722 C 22.405 14.504,21.524 13.610,20.320 13.340 C 20.088 13.288,19.735 13.268,18.769 13.252 L 17.518 13.230 18.297 12.438 C 19.126 11.594,19.368 11.301,19.584 10.872 C 19.806 10.431,19.893 10.050,19.893 9.520 C 19.893 8.809,19.705 8.251,19.259 7.640 C 19.012 7.302,16.698 4.988,16.360 4.741 C 15.749 4.295,15.191 4.107,14.480 4.107 C 13.950 4.107,13.569 4.194,13.128 4.416 C 12.699 4.632,12.406 4.874,11.562 5.703 L 10.770 6.482 10.748 5.231 C 10.732 4.265,10.712 3.912,10.660 3.680 C 10.394 2.494,9.512 1.612,8.320 1.339 C 8.064 1.280,7.752 1.268,6.200 1.258 C 5.199 1.252,4.250 1.262,4.091 1.279 M8.246 2.871 C 8.655 3.037,8.963 3.345,9.128 3.754 L 9.220 3.980 9.220 11.260 C 9.220 19.465,9.249 18.718,8.902 19.420 C 8.576 20.081,8.070 20.585,7.420 20.901 C 6.876 21.164,6.635 21.218,5.980 21.219 C 5.502 21.220,5.376 21.206,5.121 21.126 C 4.015 20.779,3.255 20.026,2.875 18.900 L 2.780 18.620 2.769 11.382 C 2.758 3.540,2.747 3.977,2.962 3.556 C 3.053 3.378,3.363 3.061,3.534 2.972 C 3.931 2.765,3.961 2.762,6.060 2.771 C 7.999 2.780,8.022 2.781,8.246 2.871 M14.943 5.666 C 15.051 5.703,15.230 5.791,15.340 5.862 C 15.584 6.020,18.033 8.477,18.169 8.700 C 18.490 9.226,18.478 9.855,18.138 10.380 C 18.066 10.490,16.377 12.209,14.384 14.200 L 10.760 17.820 10.760 13.239 L 10.760 8.658 12.150 7.274 C 12.915 6.512,13.603 5.855,13.680 5.814 C 14.093 5.595,14.566 5.540,14.943 5.666 M20.246 14.871 C 20.655 15.037,20.963 15.345,21.128 15.754 C 21.220 15.979,21.220 15.988,21.220 18.000 C 21.220 20.012,21.220 20.021,21.128 20.246 C 20.963 20.655,20.655 20.963,20.246 21.129 L 20.020 21.220 14.760 21.230 L 9.500 21.241 12.740 17.999 L 15.980 14.758 18.000 14.769 C 19.999 14.780,20.022 14.781,20.246 14.871 M5.840 16.270 C 5.155 16.326,4.529 16.835,4.331 17.495 C 4.253 17.758,4.253 18.242,4.331 18.505 C 4.447 18.892,4.709 19.232,5.073 19.468 C 5.355 19.651,5.625 19.726,6.000 19.726 C 6.375 19.726,6.645 19.651,6.927 19.468 C 7.459 19.123,7.726 18.632,7.726 18.000 C 7.726 17.646,7.654 17.366,7.499 17.115 C 7.138 16.532,6.514 16.214,5.840 16.270 M6.167 17.826 C 6.319 17.964,6.212 18.240,6.007 18.240 C 5.793 18.240,5.683 17.992,5.826 17.833 C 5.909 17.742,6.070 17.739,6.167 17.826 " stroke="none" fill-rule="evenodd" fill="black"></path></svg>