<svg width="24" height="24" viewBox="0 0 24 24" fill="none" xmlns="http://www.w3.org/2000/svg"><path d="M11.480 1.283 C 8.512 1.499,5.994 3.716,5.400 6.637 C 5.214 7.556,5.231 8.783,5.441 9.563 C 5.475 9.692,5.476 9.741,5.443 9.752 C 5.258 9.814,4.536 10.200,4.252 10.389 C 2.834 11.332,1.754 12.924,1.402 14.586 C 1.292 15.108,1.242 15.890,1.283 16.473 C 1.541 20.185,4.758 22.980,8.470 22.717 C 9.620 22.635,10.704 22.275,11.650 21.660 L 12.000 21.432 12.350 21.660 C 14.998 23.382,18.517 23.006,20.762 20.762 C 22.369 19.155,23.058 16.846,22.600 14.601 C 22.264 12.951,21.170 11.335,19.748 10.389 C 19.464 10.200,18.742 9.814,18.557 9.752 C 18.524 9.741,18.525 9.692,18.559 9.563 C 18.841 8.518,18.771 6.976,18.393 5.860 C 17.397 2.924,14.578 1.057,11.480 1.283 M13.080 2.859 C 14.085 3.084,14.976 3.573,15.701 4.299 C 16.439 5.036,16.925 5.932,17.147 6.961 C 17.259 7.480,17.248 8.651,17.127 9.140 C 16.588 11.315,14.926 12.848,12.740 13.186 C 12.238 13.264,11.412 13.236,10.900 13.125 C 9.481 12.815,8.254 11.937,7.507 10.694 C 7.267 10.295,7.004 9.660,6.889 9.204 C 6.793 8.822,6.782 8.707,6.781 8.040 C 6.780 7.472,6.797 7.221,6.853 6.960 C 7.072 5.935,7.560 5.037,8.299 4.299 C 9.037 3.560,9.980 3.048,10.940 2.864 C 11.116 2.831,11.296 2.795,11.340 2.784 C 11.526 2.740,12.789 2.794,13.080 2.859 M6.172 11.418 C 6.712 12.358,7.683 13.308,8.700 13.895 C 9.814 14.536,11.368 14.864,12.636 14.725 C 12.865 14.700,13.059 14.686,13.067 14.694 C 13.119 14.745,13.207 15.337,13.227 15.760 C 13.277 16.830,13.005 17.869,12.434 18.786 C 12.176 19.201,11.500 19.925,11.075 20.241 C 10.523 20.651,9.741 20.996,8.980 21.165 C 8.604 21.248,7.382 21.238,6.960 21.147 C 5.935 20.928,5.037 20.440,4.299 19.701 C 3.573 18.976,3.082 18.081,2.860 17.080 C 2.757 16.616,2.736 15.653,2.818 15.152 C 2.891 14.705,3.103 14.032,3.282 13.677 C 3.772 12.705,4.761 11.718,5.680 11.283 C 5.823 11.215,5.959 11.160,5.981 11.160 C 6.004 11.160,6.090 11.276,6.172 11.418 M18.320 11.283 C 18.774 11.498,19.246 11.843,19.682 12.278 C 20.509 13.105,20.999 14.045,21.182 15.152 C 21.264 15.655,21.244 16.616,21.140 17.080 C 20.915 18.086,20.426 18.977,19.701 19.701 C 18.964 20.439,18.068 20.925,17.039 21.147 C 16.618 21.238,15.397 21.248,15.020 21.165 C 14.420 21.032,13.701 20.751,13.247 20.472 L 13.115 20.390 13.212 20.285 C 13.527 19.943,13.979 19.198,14.221 18.619 C 14.417 18.152,14.605 17.490,14.686 16.980 C 14.789 16.337,14.737 15.103,14.580 14.488 L 14.527 14.276 14.853 14.125 C 15.234 13.949,15.741 13.641,16.092 13.371 C 16.724 12.888,17.459 12.061,17.828 11.418 C 17.910 11.276,17.996 11.160,18.019 11.160 C 18.041 11.160,18.177 11.215,18.320 11.283 " stroke="none" fill-rule="evenodd" fill="black"></path></svg>