<svg width="24" height="24" viewBox="0 0 24 24" fill="none" xmlns="http://www.w3.org/2000/svg"><path d="M8.080 1.282 C 4.008 1.495,1.895 3.296,1.383 6.991 C 1.270 7.803,1.242 8.816,1.242 12.000 C 1.242 16.504,1.302 17.273,1.760 18.650 C 2.532 20.963,4.206 22.226,7.027 22.622 C 7.786 22.728,8.902 22.759,12.000 22.759 C 15.098 22.759,16.214 22.728,16.973 22.622 C 19.443 22.275,20.996 21.288,21.897 19.490 C 22.379 18.530,22.638 17.369,22.720 15.807 C 22.771 14.838,22.771 9.162,22.720 8.193 C 22.657 6.998,22.521 6.191,22.242 5.356 C 21.632 3.531,20.469 2.367,18.650 1.760 C 17.788 1.473,17.023 1.344,15.806 1.280 C 14.952 1.235,8.952 1.237,8.080 1.282 M16.800 2.854 C 19.586 3.316,20.714 4.454,21.148 7.240 C 21.214 7.661,21.220 8.064,21.220 12.000 C 21.220 15.936,21.214 16.339,21.148 16.760 C 20.712 19.558,19.558 20.712,16.760 21.148 C 16.339 21.214,15.936 21.220,12.000 21.220 C 8.064 21.220,7.661 21.214,7.240 21.148 C 4.450 20.713,3.283 19.551,2.854 16.780 C 2.785 16.335,2.780 15.989,2.780 12.000 C 2.780 7.247,2.776 7.337,3.044 6.288 C 3.557 4.282,4.722 3.274,6.960 2.900 C 7.690 2.777,8.048 2.769,12.200 2.777 C 15.963 2.784,16.422 2.791,16.800 2.854 M7.440 5.281 C 6.525 5.391,5.667 6.113,5.375 7.020 C 5.290 7.286,5.272 7.418,5.271 7.801 C 5.270 8.208,5.283 8.301,5.387 8.602 C 5.523 8.996,5.714 9.303,6.006 9.594 C 6.584 10.172,7.153 10.360,8.329 10.360 L 8.840 10.360 8.840 11.994 L 8.840 13.628 8.090 13.650 C 7.432 13.670,7.301 13.685,7.020 13.775 C 6.264 14.018,5.619 14.664,5.375 15.420 C 5.290 15.686,5.272 15.818,5.271 16.201 C 5.270 16.608,5.283 16.701,5.387 17.002 C 5.789 18.168,6.908 18.870,8.124 18.717 C 8.751 18.639,9.208 18.398,9.672 17.901 C 10.180 17.356,10.316 16.953,10.349 15.890 L 10.371 15.160 12.000 15.160 L 13.628 15.160 13.649 15.912 C 13.669 16.610,13.679 16.689,13.788 17.004 C 14.189 18.168,15.309 18.869,16.524 18.717 C 17.128 18.641,17.590 18.406,18.026 17.951 C 18.446 17.513,18.644 17.104,18.717 16.524 C 18.869 15.309,18.168 14.189,17.004 13.788 C 16.689 13.679,16.610 13.669,15.912 13.649 L 15.160 13.628 15.160 12.000 L 15.160 10.371 15.890 10.349 C 16.953 10.316,17.356 10.180,17.901 9.672 C 18.398 9.208,18.639 8.751,18.717 8.124 C 18.870 6.908,18.168 5.789,17.002 5.387 C 16.702 5.284,16.606 5.270,16.200 5.270 C 15.794 5.270,15.698 5.284,15.398 5.387 C 14.627 5.653,14.017 6.266,13.775 7.020 C 13.685 7.301,13.670 7.432,13.650 8.090 L 13.628 8.840 11.994 8.840 L 10.360 8.840 10.360 8.329 C 10.360 7.153,10.172 6.584,9.594 6.006 C 9.028 5.439,8.263 5.182,7.440 5.281 M8.260 6.850 C 8.411 6.929,8.667 7.183,8.754 7.340 C 8.806 7.435,8.823 7.603,8.833 8.153 L 8.847 8.847 8.153 8.833 C 7.603 8.823,7.435 8.806,7.340 8.754 C 7.183 8.667,6.929 8.411,6.851 8.262 C 6.770 8.105,6.740 7.701,6.795 7.497 C 6.870 7.220,7.151 6.919,7.433 6.813 C 7.619 6.744,8.097 6.765,8.260 6.850 M16.660 6.850 C 16.811 6.929,17.067 7.183,17.153 7.340 C 17.200 7.425,17.219 7.561,17.220 7.805 C 17.220 8.131,17.213 8.159,17.085 8.345 C 16.788 8.775,16.628 8.836,15.790 8.838 L 15.160 8.840 15.162 8.210 C 15.163 7.796,15.181 7.530,15.216 7.433 C 15.307 7.177,15.572 6.911,15.833 6.813 C 16.019 6.744,16.497 6.765,16.660 6.850 M13.640 12.000 L 13.640 13.640 12.000 13.640 L 10.360 13.640 10.360 12.000 L 10.360 10.360 12.000 10.360 L 13.640 10.360 13.640 12.000 M8.833 15.855 L 8.820 16.549 8.684 16.749 C 8.609 16.858,8.458 17.009,8.348 17.084 C 8.160 17.213,8.131 17.220,7.805 17.220 C 7.416 17.219,7.311 17.179,7.066 16.934 C 6.858 16.725,6.793 16.587,6.770 16.302 C 6.738 15.901,6.858 15.621,7.170 15.364 C 7.376 15.195,7.537 15.164,8.213 15.162 L 8.847 15.160 8.833 15.855 M16.660 15.246 C 16.814 15.331,17.069 15.586,17.153 15.740 C 17.200 15.825,17.219 15.961,17.220 16.205 C 17.220 16.531,17.213 16.560,17.084 16.748 C 17.009 16.858,16.858 17.009,16.748 17.084 C 16.560 17.213,16.531 17.220,16.205 17.220 C 15.816 17.219,15.711 17.179,15.466 16.934 C 15.194 16.662,15.182 16.617,15.167 15.847 L 15.153 15.153 15.847 15.167 C 16.397 15.177,16.565 15.194,16.660 15.246 " stroke="none" fill-rule="evenodd" fill="black"></path></svg>