<svg width="24" height="24" viewBox="0 0 24 24" fill="none" xmlns="http://www.w3.org/2000/svg"><path d="M4.740 1.266 C 3.192 1.405,1.944 2.373,1.449 3.820 C 1.206 4.530,1.206 5.470,1.449 6.180 C 1.880 7.441,2.911 8.364,4.225 8.665 C 4.435 8.713,4.825 8.733,5.870 8.749 L 7.240 8.769 7.240 12.000 L 7.240 15.231 5.870 15.251 C 4.825 15.267,4.435 15.287,4.225 15.335 C 2.909 15.637,1.881 16.557,1.449 17.820 C 1.206 18.530,1.206 19.470,1.449 20.180 C 1.831 21.298,2.702 22.169,3.820 22.551 C 4.529 22.793,5.467 22.794,6.180 22.551 C 7.241 22.191,8.122 21.334,8.518 20.275 C 8.705 19.775,8.727 19.567,8.749 18.130 L 8.769 16.760 12.000 16.760 L 15.231 16.760 15.251 18.130 C 15.273 19.562,15.295 19.776,15.479 20.266 C 15.950 21.526,17.028 22.442,18.320 22.681 C 18.654 22.743,19.346 22.743,19.680 22.681 C 21.174 22.404,22.404 21.174,22.681 19.680 C 22.743 19.346,22.743 18.654,22.681 18.320 C 22.473 17.198,21.710 16.180,20.691 15.665 C 19.999 15.316,19.749 15.275,18.130 15.251 L 16.760 15.231 16.760 12.000 L 16.760 8.769 18.130 8.749 C 19.567 8.727,19.775 8.705,20.275 8.518 C 21.511 8.056,22.445 6.954,22.681 5.680 C 22.743 5.346,22.743 4.654,22.681 4.320 C 22.403 2.818,21.182 1.597,19.680 1.319 C 19.346 1.257,18.654 1.257,18.320 1.319 C 17.026 1.559,15.951 2.473,15.479 3.734 C 15.295 4.224,15.273 4.438,15.251 5.870 L 15.231 7.240 12.000 7.240 L 8.769 7.240 8.749 5.870 C 8.727 4.438,8.705 4.224,8.522 3.735 C 8.116 2.650,7.265 1.820,6.180 1.449 C 5.787 1.315,5.130 1.231,4.740 1.266 M5.574 2.823 C 5.709 2.858,5.928 2.944,6.060 3.013 C 6.369 3.176,6.824 3.631,6.987 3.940 C 7.221 4.385,7.240 4.535,7.240 5.956 L 7.240 7.240 5.956 7.240 C 4.535 7.240,4.385 7.221,3.940 6.987 C 3.806 6.916,3.576 6.736,3.420 6.580 C 2.961 6.121,2.760 5.643,2.760 5.007 C 2.760 4.363,2.962 3.878,3.420 3.420 C 3.879 2.962,4.336 2.768,4.974 2.763 C 5.177 2.761,5.434 2.787,5.574 2.823 M19.574 2.823 C 19.950 2.920,20.271 3.110,20.580 3.420 C 21.036 3.876,21.240 4.364,21.240 5.000 C 21.240 5.636,21.036 6.124,20.580 6.580 C 20.424 6.736,20.194 6.916,20.060 6.987 C 19.615 7.221,19.465 7.240,18.044 7.240 L 16.760 7.240 16.760 5.956 C 16.760 4.535,16.779 4.385,17.013 3.940 C 17.170 3.642,17.627 3.179,17.920 3.022 C 18.393 2.768,19.052 2.689,19.574 2.823 M15.240 12.000 L 15.240 15.240 12.000 15.240 L 8.760 15.240 8.760 12.000 L 8.760 8.760 12.000 8.760 L 15.240 8.760 15.240 12.000 M7.240 18.044 C 7.240 19.465,7.221 19.615,6.987 20.060 C 6.916 20.194,6.736 20.424,6.580 20.580 C 6.124 21.036,5.636 21.240,5.000 21.240 C 4.364 21.240,3.876 21.036,3.420 20.580 C 2.961 20.121,2.760 19.643,2.760 19.007 C 2.760 18.363,2.962 17.878,3.420 17.420 C 3.726 17.114,4.010 16.941,4.380 16.835 C 4.584 16.776,4.815 16.765,5.930 16.763 L 7.240 16.760 7.240 18.044 M19.574 16.823 C 19.950 16.920,20.271 17.110,20.580 17.420 C 21.036 17.876,21.240 18.364,21.240 19.000 C 21.240 19.636,21.036 20.124,20.580 20.580 C 20.124 21.036,19.636 21.240,19.000 21.240 C 18.364 21.240,17.876 21.036,17.420 20.580 C 17.263 20.423,17.083 20.193,17.011 20.057 C 16.777 19.613,16.760 19.480,16.760 18.052 L 16.760 16.760 18.044 16.760 C 19.086 16.760,19.375 16.772,19.574 16.823 " stroke="none" fill-rule="evenodd" fill="black"></path></svg>