<svg width="24" height="24" viewBox="0 0 24 24" fill="none" xmlns="http://www.w3.org/2000/svg"><path d="M8.340 1.267 C 5.940 1.362,4.302 1.923,3.137 3.048 C 2.044 4.103,1.475 5.517,1.280 7.660 C 1.227 8.243,1.227 15.757,1.280 16.340 C 1.475 18.483,2.044 19.897,3.137 20.952 C 3.979 21.765,5.038 22.269,6.477 22.542 C 7.380 22.713,7.733 22.728,11.359 22.748 C 15.896 22.773,16.792 22.727,18.075 22.404 C 20.485 21.798,21.938 20.249,22.462 17.728 C 22.696 16.600,22.700 16.509,22.700 12.000 C 22.700 7.491,22.696 7.400,22.462 6.272 C 22.135 4.700,21.406 3.440,20.374 2.666 C 19.237 1.812,17.862 1.394,15.820 1.281 C 15.200 1.247,9.134 1.235,8.340 1.267 M16.220 2.801 C 17.032 2.876,17.924 3.068,18.390 3.267 L 18.561 3.340 10.926 10.974 L 3.292 18.608 3.149 18.174 C 3.008 17.744,2.886 17.198,2.794 16.580 C 2.728 16.135,2.697 8.627,2.758 7.900 C 2.902 6.199,3.308 5.048,4.037 4.271 C 4.625 3.644,5.284 3.289,6.355 3.020 C 6.697 2.935,7.364 2.829,7.820 2.788 C 8.222 2.752,15.816 2.763,16.220 2.801 M20.112 4.502 C 20.474 4.975,20.808 5.739,20.977 6.480 C 21.201 7.454,21.239 8.264,21.239 12.000 C 21.239 16.213,21.189 16.932,20.816 18.100 C 20.237 19.909,19.063 20.783,16.720 21.148 C 16.299 21.214,15.896 21.220,11.980 21.220 C 8.048 21.220,7.661 21.214,7.221 21.147 C 5.902 20.947,4.929 20.566,4.309 20.005 L 4.154 19.866 11.987 12.033 C 16.295 7.725,19.838 4.206,19.860 4.212 C 19.882 4.219,19.996 4.350,20.112 4.502 M5.180 6.835 C 4.990 6.923,4.904 7.012,4.822 7.210 C 4.708 7.483,4.783 7.869,4.986 8.048 C 5.203 8.241,5.184 8.240,8.009 8.239 C 10.496 8.238,10.670 8.234,10.820 8.165 C 11.010 8.077,11.096 7.988,11.178 7.790 C 11.257 7.602,11.257 7.398,11.178 7.210 C 11.096 7.012,11.010 6.923,10.820 6.835 C 10.670 6.766,10.496 6.762,8.000 6.762 C 5.504 6.762,5.330 6.766,5.180 6.835 M15.980 12.260 C 15.958 12.267,15.891 12.284,15.831 12.297 C 15.684 12.329,15.441 12.548,15.374 12.708 C 15.334 12.805,15.320 13.082,15.320 13.799 L 15.320 14.760 14.330 14.761 C 13.455 14.762,13.321 14.770,13.180 14.835 C 12.990 14.923,12.904 15.012,12.822 15.210 C 12.708 15.483,12.783 15.869,12.986 16.048 C 13.180 16.221,13.313 16.240,14.339 16.240 L 15.320 16.240 15.320 17.197 C 15.320 18.213,15.334 18.304,15.513 18.494 C 15.671 18.661,15.833 18.731,16.060 18.731 C 16.287 18.731,16.449 18.661,16.607 18.494 C 16.786 18.304,16.800 18.213,16.800 17.197 L 16.800 16.240 17.721 16.240 C 18.857 16.240,18.990 16.201,19.165 15.820 C 19.258 15.616,19.258 15.384,19.165 15.180 C 18.990 14.799,18.857 14.760,17.721 14.760 L 16.800 14.760 16.800 13.803 C 16.800 13.223,16.783 12.801,16.757 12.733 C 16.706 12.597,16.537 12.412,16.400 12.342 C 16.292 12.287,16.045 12.238,15.980 12.260 " stroke="none" fill-rule="evenodd" fill="black"></path></svg>