<svg width="24" height="24" viewBox="0 0 24 24" fill="none" xmlns="http://www.w3.org/2000/svg"><path d="M11.540 1.284 C 11.101 1.327,10.561 1.475,10.161 1.664 C 9.422 2.012,9.408 2.025,5.774 5.656 C 3.497 7.932,2.290 9.167,2.132 9.384 C 1.713 9.955,1.418 10.670,1.318 11.357 C 1.251 11.815,1.289 12.648,1.396 13.053 C 1.527 13.552,1.735 14.015,2.015 14.432 C 2.243 14.773,2.692 15.236,5.747 18.285 C 7.841 20.373,9.323 21.821,9.480 21.931 C 10.026 22.312,10.714 22.588,11.356 22.682 C 11.809 22.748,12.690 22.709,13.060 22.607 C 13.703 22.430,14.129 22.226,14.640 21.851 C 14.824 21.715,16.254 20.315,18.342 18.225 C 21.968 14.596,21.992 14.570,22.336 13.839 C 22.759 12.940,22.852 11.775,22.577 10.805 C 22.452 10.365,22.145 9.739,21.878 9.380 C 21.609 9.019,14.987 2.395,14.628 2.128 C 13.758 1.481,12.647 1.177,11.540 1.284 M12.660 2.820 C 13.053 2.902,13.529 3.149,13.881 3.453 C 14.359 3.866,20.615 10.160,20.757 10.371 C 21.090 10.866,21.239 11.370,21.239 12.000 C 21.239 12.495,21.160 12.850,20.957 13.275 L 20.792 13.620 17.226 17.185 C 14.162 20.249,13.623 20.771,13.400 20.892 C 12.576 21.339,11.589 21.355,10.720 20.934 L 10.340 20.751 6.868 17.285 C 4.469 14.892,3.342 13.740,3.223 13.560 C 2.645 12.688,2.608 11.496,3.128 10.560 C 3.221 10.393,4.104 9.486,6.815 6.774 L 10.380 3.208 10.727 3.042 C 10.917 2.951,11.187 2.852,11.327 2.821 C 11.664 2.748,12.313 2.747,12.660 2.820 " stroke="none" fill-rule="evenodd" fill="black"></path></svg>