<svg width="24" height="24" viewBox="0 0 24 24" fill="none" xmlns="http://www.w3.org/2000/svg"><path d="M8.393 1.282 C 6.328 1.431,4.327 2.476,3.001 4.099 C 2.224 5.050,1.632 6.308,1.403 7.495 C 1.303 8.014,1.230 8.965,1.275 9.162 C 1.450 9.921,2.553 9.921,2.716 9.162 C 2.740 9.049,2.760 8.844,2.761 8.708 C 2.762 8.219,2.905 7.499,3.119 6.896 C 3.439 5.996,3.925 5.241,4.626 4.552 C 5.170 4.017,5.580 3.724,6.240 3.399 C 6.731 3.158,7.592 2.862,7.554 2.948 C 7.546 2.966,7.472 3.100,7.388 3.248 C 7.304 3.395,7.226 3.576,7.214 3.649 C 7.187 3.818,7.255 4.078,7.364 4.216 C 7.626 4.549,8.200 4.569,8.484 4.255 C 8.639 4.084,9.669 2.345,9.716 2.175 C 9.845 1.707,9.419 1.214,8.912 1.246 C 8.862 1.249,8.628 1.265,8.393 1.282 M17.020 1.285 C 15.839 1.381,14.663 1.934,13.798 2.798 C 11.755 4.842,11.755 8.158,13.798 10.202 C 15.842 12.245,19.158 12.245,21.202 10.202 C 23.245 8.158,23.245 4.842,21.202 2.798 C 20.095 1.692,18.609 1.154,17.020 1.285 M18.532 2.895 C 19.783 3.270,20.721 4.204,21.105 5.460 C 21.207 5.793,21.216 5.871,21.216 6.500 C 21.216 7.126,21.207 7.208,21.108 7.532 C 20.719 8.794,19.795 9.721,18.540 10.105 C 18.207 10.207,18.129 10.216,17.500 10.216 C 16.871 10.216,16.793 10.207,16.460 10.105 C 15.205 9.721,14.281 8.794,13.892 7.532 C 13.793 7.208,13.784 7.126,13.784 6.500 C 13.784 5.871,13.793 5.793,13.895 5.460 C 14.211 4.427,14.902 3.608,15.860 3.131 C 16.430 2.847,16.866 2.758,17.600 2.776 C 18.084 2.788,18.238 2.807,18.532 2.895 M4.800 12.264 C 3.577 12.342,2.810 12.626,2.218 13.218 C 1.723 13.712,1.454 14.311,1.315 15.220 C 1.237 15.732,1.237 19.268,1.315 19.780 C 1.454 20.689,1.723 21.288,2.218 21.782 C 2.712 22.277,3.311 22.546,4.220 22.685 C 4.732 22.763,8.268 22.763,8.780 22.685 C 9.689 22.546,10.288 22.277,10.782 21.782 C 11.277 21.288,11.546 20.689,11.685 19.780 C 11.763 19.268,11.763 15.732,11.685 15.220 C 11.461 13.748,10.763 12.857,9.542 12.483 C 8.928 12.295,8.644 12.272,6.780 12.261 C 5.812 12.255,4.921 12.256,4.800 12.264 M8.726 13.816 C 9.224 13.912,9.474 14.028,9.723 14.277 C 9.975 14.529,10.093 14.786,10.183 15.280 C 10.261 15.709,10.261 19.291,10.183 19.720 C 10.093 20.214,9.975 20.471,9.723 20.723 C 9.471 20.975,9.214 21.093,8.720 21.183 C 8.291 21.261,4.709 21.261,4.280 21.183 C 3.786 21.093,3.529 20.975,3.277 20.723 C 3.028 20.474,2.912 20.224,2.816 19.726 C 2.735 19.302,2.735 15.698,2.816 15.274 C 2.912 14.776,3.028 14.526,3.277 14.277 C 3.520 14.033,3.771 13.915,4.240 13.820 C 4.630 13.741,8.321 13.738,8.726 13.816 M21.815 14.277 C 21.641 14.320,21.462 14.456,21.359 14.622 C 21.288 14.737,21.266 14.858,21.237 15.291 C 21.187 16.062,21.106 16.471,20.880 17.107 C 20.567 17.988,20.063 18.771,19.374 19.449 C 18.843 19.971,18.438 20.260,17.769 20.594 C 17.278 20.839,16.407 21.140,16.446 21.052 C 16.454 21.034,16.528 20.900,16.612 20.752 C 16.696 20.605,16.774 20.424,16.786 20.351 C 16.813 20.182,16.745 19.922,16.636 19.784 C 16.374 19.451,15.800 19.431,15.516 19.745 C 15.355 19.922,14.328 21.660,14.281 21.835 C 14.175 22.230,14.425 22.622,14.844 22.716 C 15.090 22.772,15.988 22.701,16.567 22.582 C 17.737 22.340,18.931 21.782,19.837 21.054 C 20.159 20.795,20.733 20.225,21.000 19.900 C 21.995 18.685,22.604 17.146,22.717 15.559 C 22.760 14.954,22.731 14.735,22.580 14.536 C 22.421 14.327,22.078 14.211,21.815 14.277 " stroke="none" fill-rule="evenodd" fill="black"></path></svg>