<svg width="24" height="24" viewBox="0 0 24 24" fill="none" xmlns="http://www.w3.org/2000/svg"><path d="M8.393 1.282 C 6.328 1.431,4.327 2.476,3.001 4.099 C 2.224 5.050,1.632 6.308,1.403 7.495 C 1.303 8.014,1.230 8.965,1.275 9.162 C 1.450 9.921,2.553 9.921,2.716 9.162 C 2.740 9.049,2.760 8.844,2.761 8.708 C 2.762 8.219,2.905 7.499,3.119 6.896 C 3.439 5.996,3.925 5.241,4.626 4.552 C 5.170 4.017,5.580 3.724,6.240 3.399 C 6.731 3.158,7.592 2.862,7.554 2.948 C 7.546 2.966,7.472 3.100,7.388 3.248 C 7.304 3.395,7.226 3.576,7.214 3.649 C 7.187 3.818,7.255 4.078,7.364 4.216 C 7.626 4.549,8.200 4.569,8.484 4.255 C 8.639 4.084,9.669 2.345,9.716 2.175 C 9.845 1.707,9.419 1.214,8.912 1.246 C 8.862 1.249,8.628 1.265,8.393 1.282 M15.800 1.264 C 15.349 1.293,14.850 1.372,14.522 1.467 C 13.469 1.771,12.770 2.470,12.467 3.522 C 12.273 4.198,12.260 4.409,12.260 7.000 C 12.260 9.591,12.273 9.802,12.467 10.478 C 12.770 11.530,13.470 12.230,14.522 12.533 C 15.177 12.721,15.445 12.740,17.500 12.740 C 19.555 12.740,19.823 12.721,20.478 12.533 C 21.530 12.230,22.230 11.530,22.533 10.478 C 22.727 9.802,22.740 9.591,22.740 7.000 C 22.740 4.409,22.727 4.198,22.533 3.522 C 22.238 2.496,21.550 1.792,20.542 1.483 C 19.928 1.295,19.644 1.272,17.780 1.261 C 16.812 1.255,15.921 1.256,15.800 1.264 M19.726 2.816 C 20.224 2.912,20.474 3.028,20.723 3.277 C 20.882 3.436,20.973 3.570,21.038 3.740 C 21.226 4.238,21.237 4.421,21.237 7.000 C 21.237 9.579,21.226 9.762,21.038 10.260 C 20.914 10.588,20.588 10.914,20.260 11.038 C 19.777 11.220,19.545 11.237,17.500 11.237 C 15.455 11.237,15.223 11.220,14.740 11.038 C 14.412 10.913,14.086 10.588,13.963 10.260 C 13.769 9.744,13.760 9.597,13.760 7.000 C 13.760 4.403,13.769 4.256,13.963 3.740 C 14.086 3.412,14.412 3.086,14.740 2.963 C 15.227 2.779,15.387 2.768,17.466 2.764 C 19.007 2.761,19.497 2.772,19.726 2.816 M4.800 11.264 C 4.349 11.293,3.850 11.372,3.522 11.467 C 2.469 11.771,1.770 12.470,1.467 13.522 C 1.273 14.198,1.260 14.409,1.260 17.000 C 1.260 19.591,1.273 19.802,1.467 20.478 C 1.770 21.530,2.470 22.230,3.522 22.533 C 4.177 22.721,4.445 22.740,6.500 22.740 C 8.555 22.740,8.823 22.721,9.478 22.533 C 10.530 22.230,11.230 21.530,11.533 20.478 C 11.727 19.802,11.740 19.591,11.740 17.000 C 11.740 14.409,11.727 14.198,11.533 13.522 C 11.238 12.496,10.550 11.792,9.542 11.483 C 8.928 11.295,8.644 11.272,6.780 11.261 C 5.812 11.255,4.921 11.256,4.800 11.264 M8.726 12.816 C 9.224 12.912,9.474 13.028,9.723 13.277 C 9.975 13.529,10.093 13.786,10.183 14.280 C 10.261 14.714,10.261 19.286,10.183 19.720 C 10.093 20.214,9.975 20.471,9.723 20.723 C 9.471 20.975,9.214 21.093,8.720 21.183 C 8.291 21.261,4.709 21.261,4.280 21.183 C 3.786 21.093,3.529 20.975,3.277 20.723 C 3.028 20.474,2.912 20.224,2.816 19.726 C 2.734 19.299,2.734 14.701,2.816 14.274 C 2.912 13.776,3.028 13.526,3.277 13.277 C 3.520 13.033,3.771 12.915,4.240 12.820 C 4.630 12.741,8.321 12.738,8.726 12.816 M21.815 14.277 C 21.641 14.320,21.462 14.456,21.359 14.622 C 21.288 14.737,21.266 14.858,21.237 15.291 C 21.187 16.062,21.106 16.471,20.880 17.107 C 20.567 17.988,20.063 18.771,19.374 19.449 C 18.843 19.971,18.438 20.260,17.769 20.594 C 17.278 20.839,16.407 21.140,16.446 21.052 C 16.454 21.034,16.528 20.900,16.612 20.752 C 16.696 20.605,16.774 20.424,16.786 20.351 C 16.813 20.182,16.745 19.922,16.636 19.784 C 16.374 19.451,15.800 19.431,15.516 19.745 C 15.355 19.922,14.328 21.660,14.281 21.835 C 14.175 22.230,14.425 22.622,14.844 22.716 C 15.090 22.772,15.988 22.701,16.567 22.582 C 17.737 22.340,18.931 21.782,19.837 21.054 C 20.159 20.795,20.733 20.225,21.000 19.900 C 21.995 18.685,22.604 17.146,22.717 15.559 C 22.760 14.954,22.731 14.735,22.580 14.536 C 22.421 14.327,22.078 14.211,21.815 14.277 " stroke="none" fill-rule="evenodd" fill="black"></path></svg>