<svg width="24" height="24" viewBox="0 0 24 24" fill="none" xmlns="http://www.w3.org/2000/svg"><path d="M8.393 1.282 C 6.328 1.431,4.327 2.476,3.001 4.099 C 2.224 5.050,1.632 6.308,1.403 7.495 C 1.303 8.014,1.230 8.965,1.275 9.162 C 1.450 9.921,2.553 9.921,2.716 9.162 C 2.740 9.049,2.760 8.844,2.761 8.708 C 2.762 8.219,2.905 7.499,3.119 6.896 C 3.439 5.996,3.925 5.241,4.626 4.552 C 5.170 4.017,5.580 3.724,6.240 3.399 C 6.731 3.158,7.592 2.862,7.554 2.948 C 7.546 2.966,7.472 3.100,7.388 3.248 C 7.304 3.395,7.226 3.576,7.214 3.649 C 7.187 3.818,7.255 4.078,7.364 4.216 C 7.626 4.549,8.200 4.569,8.484 4.255 C 8.639 4.084,9.669 2.345,9.716 2.175 C 9.845 1.707,9.419 1.214,8.912 1.246 C 8.862 1.249,8.628 1.265,8.393 1.282 M17.293 1.284 C 17.135 1.302,16.894 1.355,16.757 1.401 C 16.450 1.505,13.982 2.864,13.680 3.095 C 13.208 3.458,12.772 4.175,12.659 4.774 C 12.588 5.150,12.575 7.698,12.642 8.120 C 12.751 8.811,13.220 9.575,13.765 9.949 C 14.117 10.192,16.507 11.497,16.780 11.596 C 17.032 11.688,17.119 11.698,17.660 11.699 C 18.499 11.700,18.377 11.747,20.298 10.686 C 21.675 9.926,21.898 9.765,22.209 9.307 C 22.407 9.016,22.612 8.574,22.685 8.280 C 22.727 8.112,22.740 7.687,22.740 6.480 C 22.740 5.097,22.731 4.868,22.670 4.640 C 22.513 4.063,22.090 3.405,21.681 3.104 C 21.461 2.942,19.458 1.808,18.900 1.530 C 18.463 1.312,17.856 1.219,17.293 1.284 M19.353 3.476 C 20.043 3.857,20.592 4.182,20.573 4.199 C 20.555 4.215,19.896 4.601,19.110 5.057 L 17.679 5.887 16.235 5.052 C 15.440 4.592,14.793 4.199,14.796 4.178 C 14.802 4.140,16.109 3.397,16.918 2.971 L 17.336 2.751 17.718 2.767 L 18.100 2.783 19.353 3.476 M15.524 6.366 L 16.920 7.172 16.920 8.586 C 16.920 9.364,16.914 10.000,16.906 10.000 C 16.899 10.000,16.372 9.712,15.736 9.360 C 14.501 8.676,14.423 8.618,14.212 8.200 L 14.100 7.980 14.087 6.770 C 14.080 6.105,14.086 5.560,14.101 5.560 C 14.116 5.560,14.756 5.923,15.524 6.366 M21.240 6.764 L 21.240 7.969 21.122 8.214 C 21.058 8.349,20.936 8.527,20.852 8.608 C 20.732 8.724,19.294 9.560,18.570 9.935 L 18.440 10.002 18.440 8.587 L 18.440 7.171 19.810 6.370 C 20.564 5.929,21.194 5.566,21.210 5.564 C 21.227 5.562,21.240 6.102,21.240 6.764 M5.980 12.280 C 5.424 12.341,5.359 12.370,3.664 13.311 C 3.072 13.640,2.474 13.993,2.337 14.095 C 1.907 14.413,1.489 15.056,1.330 15.640 C 1.269 15.868,1.260 16.097,1.260 17.480 C 1.260 18.687,1.273 19.112,1.315 19.280 C 1.388 19.574,1.593 20.016,1.791 20.307 C 2.099 20.761,2.329 20.928,3.662 21.666 C 5.592 22.734,5.505 22.700,6.320 22.699 C 6.906 22.699,7.052 22.673,7.450 22.503 C 7.655 22.415,10.022 21.096,10.220 20.960 C 10.685 20.638,11.077 20.086,11.283 19.460 C 11.372 19.191,11.377 19.120,11.391 17.652 C 11.403 16.391,11.395 16.066,11.344 15.794 C 11.220 15.136,10.750 14.377,10.258 14.039 C 10.026 13.879,7.621 12.554,7.380 12.452 C 7.013 12.298,6.453 12.229,5.980 12.280 M7.090 13.976 C 7.881 14.392,9.198 15.140,9.203 15.176 C 9.205 15.196,8.557 15.590,7.763 16.050 L 6.318 16.887 4.889 16.059 C 4.103 15.604,3.445 15.217,3.427 15.200 C 3.393 15.169,5.725 13.857,5.917 13.798 C 5.974 13.781,6.169 13.765,6.350 13.763 C 6.675 13.760,6.687 13.764,7.090 13.976 M21.815 14.277 C 21.641 14.320,21.462 14.456,21.359 14.622 C 21.288 14.737,21.266 14.858,21.237 15.291 C 21.187 16.062,21.106 16.471,20.880 17.107 C 20.567 17.988,20.063 18.771,19.374 19.449 C 18.843 19.971,18.438 20.260,17.769 20.594 C 17.278 20.839,16.407 21.140,16.446 21.052 C 16.454 21.034,16.528 20.900,16.612 20.752 C 16.696 20.605,16.774 20.424,16.786 20.351 C 16.813 20.182,16.745 19.922,16.636 19.784 C 16.374 19.451,15.800 19.431,15.516 19.745 C 15.355 19.922,14.328 21.660,14.281 21.835 C 14.175 22.230,14.425 22.622,14.844 22.716 C 15.090 22.772,15.988 22.701,16.567 22.582 C 17.737 22.340,18.931 21.782,19.837 21.054 C 20.159 20.795,20.733 20.225,21.000 19.900 C 21.995 18.685,22.604 17.146,22.717 15.559 C 22.760 14.954,22.731 14.735,22.580 14.536 C 22.421 14.327,22.078 14.211,21.815 14.277 M4.290 17.437 L 5.560 18.171 5.560 19.586 L 5.560 21.002 5.430 20.935 C 4.703 20.559,3.268 19.724,3.148 19.608 C 3.065 19.527,2.943 19.354,2.878 19.224 L 2.760 18.987 2.760 17.770 L 2.760 16.552 2.890 16.628 C 2.962 16.669,3.591 17.034,4.290 17.437 M9.913 17.750 L 9.900 18.940 9.775 19.204 C 9.706 19.348,9.587 19.530,9.510 19.608 C 9.406 19.711,7.372 20.887,7.113 20.993 C 7.095 21.001,7.080 20.369,7.080 19.589 L 7.080 18.172 8.470 17.366 C 9.235 16.923,9.875 16.560,9.893 16.560 C 9.911 16.560,9.920 17.096,9.913 17.750 " stroke="none" fill-rule="evenodd" fill="black"></path></svg>