<svg width="24" height="24" viewBox="0 0 24 24" fill="none" xmlns="http://www.w3.org/2000/svg"><path d="M11.020 1.325 C 10.132 1.410,9.116 1.639,8.294 1.940 C 7.666 2.170,6.666 2.682,6.080 3.072 C 4.490 4.131,3.225 5.569,2.400 7.255 C 1.774 8.535,1.451 9.683,1.321 11.100 C 0.948 15.136,2.989 19.106,6.520 21.217 C 7.908 22.046,9.383 22.523,11.060 22.685 C 11.654 22.742,12.978 22.708,13.560 22.621 C 17.515 22.028,20.826 19.288,22.136 15.525 C 22.315 15.012,22.540 14.099,22.621 13.560 C 22.761 12.626,22.742 11.202,22.575 10.200 C 22.046 7.005,20.012 4.158,17.140 2.591 C 15.287 1.580,13.097 1.127,11.020 1.325 M13.259 2.859 C 14.227 2.995,15.167 3.284,16.060 3.720 C 18.794 5.055,20.672 7.625,21.146 10.681 C 21.244 11.316,21.245 12.680,21.147 13.320 C 20.831 15.382,19.861 17.258,18.380 18.674 L 17.988 19.048 14.044 15.108 C 11.875 12.941,10.061 11.148,10.013 11.124 C 9.965 11.100,9.821 11.080,9.693 11.080 C 9.421 11.080,9.266 11.159,9.095 11.383 L 8.980 11.534 8.950 13.857 C 8.934 15.135,8.930 16.271,8.942 16.383 C 8.968 16.627,9.063 16.792,9.263 16.945 C 9.395 17.045,9.448 17.060,9.683 17.060 C 9.925 17.060,9.968 17.047,10.106 16.936 C 10.426 16.677,10.418 16.720,10.432 15.082 L 10.445 13.625 13.582 16.762 C 15.308 18.488,16.720 19.913,16.720 19.929 C 16.720 19.993,15.431 20.593,14.959 20.749 C 13.880 21.106,13.177 21.217,12.000 21.217 C 10.752 21.217,9.766 21.039,8.690 20.619 C 5.497 19.372,3.298 16.555,2.836 13.120 C 2.761 12.564,2.772 11.323,2.858 10.740 C 3.098 9.099,3.778 7.513,4.777 6.260 C 5.058 5.907,5.955 5.000,6.023 5.000 C 6.050 5.000,7.807 6.744,9.927 8.876 C 12.046 11.008,13.851 12.794,13.938 12.845 C 14.260 13.033,14.704 12.928,14.921 12.611 L 15.020 12.466 15.049 10.123 C 15.065 8.834,15.068 7.697,15.056 7.596 C 15.029 7.368,14.932 7.204,14.737 7.055 C 14.605 6.955,14.552 6.940,14.317 6.940 C 14.075 6.940,14.032 6.953,13.894 7.064 C 13.574 7.323,13.582 7.279,13.568 8.923 L 13.556 10.386 10.428 7.251 C 8.707 5.527,7.295 4.101,7.288 4.082 C 7.272 4.036,8.338 3.517,8.800 3.347 C 9.550 3.070,10.459 2.868,11.260 2.800 C 11.765 2.757,12.737 2.786,13.259 2.859 " stroke="none" fill-rule="evenodd" fill="black"></path></svg>