<svg width="24" height="24" viewBox="0 0 24 24" fill="none" xmlns="http://www.w3.org/2000/svg"><path d="M12.173 1.284 C 11.277 1.336,10.242 1.577,9.660 1.870 C 8.693 2.358,8.011 3.154,7.647 4.220 C 7.439 4.828,7.326 5.498,7.276 6.403 C 7.252 6.852,7.229 7.223,7.226 7.226 C 7.223 7.229,6.852 7.252,6.403 7.276 C 4.609 7.374,3.450 7.784,2.617 8.617 C 2.015 9.220,1.644 9.984,1.423 11.080 C 1.281 11.785,1.241 12.640,1.241 15.000 C 1.241 17.979,1.310 18.794,1.647 19.780 C 2.083 21.057,2.943 21.917,4.220 22.353 C 5.206 22.690,6.021 22.759,9.000 22.759 C 11.979 22.759,12.794 22.690,13.780 22.353 C 15.057 21.917,15.917 21.057,16.353 19.780 C 16.559 19.178,16.672 18.509,16.723 17.600 C 16.748 17.149,16.771 16.777,16.774 16.774 C 16.777 16.771,17.149 16.748,17.600 16.723 C 19.402 16.622,20.550 16.215,21.383 15.383 C 21.986 14.779,22.357 14.014,22.576 12.920 C 22.718 12.212,22.760 11.318,22.760 9.000 C 22.760 6.053,22.687 5.199,22.353 4.220 C 21.917 2.943,21.057 2.083,19.780 1.647 C 19.211 1.452,18.502 1.327,17.720 1.282 C 16.907 1.235,13.006 1.237,12.173 1.284 M18.128 2.804 C 19.096 2.909,19.853 3.210,20.321 3.679 C 20.790 4.147,21.091 4.904,21.196 5.872 C 21.224 6.131,21.240 7.287,21.240 9.000 C 21.240 10.713,21.224 11.869,21.196 12.128 C 21.091 13.096,20.790 13.853,20.321 14.321 C 19.716 14.927,18.664 15.240,17.238 15.240 L 16.760 15.240 16.759 13.910 C 16.759 12.150,16.707 11.514,16.497 10.680 C 16.068 8.972,15.028 7.932,13.320 7.503 C 12.486 7.293,11.850 7.241,10.090 7.241 L 8.760 7.240 8.760 6.762 C 8.760 5.336,9.073 4.284,9.679 3.679 C 10.132 3.225,10.916 2.905,11.820 2.806 C 12.304 2.752,17.634 2.751,18.128 2.804 M12.479 8.854 C 12.961 8.942,13.509 9.125,13.834 9.307 C 14.355 9.598,14.721 10.078,14.956 10.781 C 15.208 11.534,15.213 11.613,15.230 14.760 C 15.241 16.763,15.232 17.758,15.199 18.080 C 15.097 19.085,14.800 19.843,14.321 20.321 C 13.853 20.790,13.096 21.091,12.128 21.196 C 11.571 21.256,6.429 21.256,5.872 21.196 C 4.904 21.091,4.147 20.790,3.679 20.321 C 3.210 19.853,2.909 19.096,2.804 18.128 C 2.744 17.571,2.744 12.429,2.804 11.872 C 2.909 10.904,3.210 10.147,3.679 9.679 C 4.132 9.226,4.909 8.908,5.820 8.805 C 5.996 8.785,7.481 8.772,9.120 8.777 C 11.746 8.784,12.145 8.793,12.479 8.854 M11.518 12.436 C 11.420 12.499,10.593 13.300,9.681 14.215 L 8.021 15.879 7.261 15.124 C 6.842 14.710,6.455 14.347,6.400 14.318 C 6.345 14.290,6.198 14.267,6.072 14.267 C 5.801 14.267,5.583 14.389,5.438 14.623 C 5.333 14.793,5.312 15.154,5.398 15.320 C 5.481 15.481,7.525 17.518,7.688 17.603 C 7.863 17.693,8.148 17.703,8.331 17.625 C 8.476 17.564,12.505 13.543,12.595 13.371 C 12.626 13.311,12.651 13.169,12.651 13.055 C 12.651 12.463,12.012 12.114,11.518 12.436 " stroke="none" fill-rule="evenodd" fill="black"></path></svg>