<svg width="24" height="24" viewBox="0 0 24 24" fill="none" xmlns="http://www.w3.org/2000/svg"><path d="M11.320 1.281 C 9.259 1.398,7.250 2.142,5.530 3.424 C 4.912 3.884,3.884 4.912,3.424 5.530 C 1.875 7.608,1.136 10.050,1.281 12.610 C 1.402 14.759,2.118 16.717,3.424 18.470 C 3.880 19.083,4.909 20.111,5.530 20.575 C 7.606 22.126,10.070 22.870,12.627 22.717 C 14.790 22.588,16.724 21.879,18.470 20.575 C 19.087 20.115,20.115 19.087,20.575 18.470 C 22.127 16.391,22.870 13.930,22.717 11.373 C 22.588 9.210,21.879 7.276,20.575 5.530 C 20.115 4.913,19.087 3.885,18.470 3.425 C 17.047 2.362,15.454 1.679,13.742 1.398 C 13.334 1.331,12.074 1.229,11.880 1.247 C 11.847 1.250,11.595 1.265,11.320 1.281 M13.146 2.822 C 14.201 2.960,15.113 3.234,16.060 3.698 C 17.024 4.170,17.648 4.611,18.434 5.378 C 19.273 6.195,19.814 6.937,20.303 7.940 C 20.944 9.253,21.240 10.537,21.240 12.000 C 21.240 13.465,20.943 14.752,20.302 16.060 C 19.830 17.024,19.389 17.648,18.622 18.434 C 17.805 19.273,17.063 19.814,16.060 20.303 C 14.747 20.944,13.463 21.240,12.000 21.240 C 10.537 21.240,9.253 20.944,7.940 20.303 C 6.937 19.814,6.195 19.273,5.378 18.434 C 4.611 17.648,4.170 17.024,3.698 16.060 C 3.057 14.752,2.760 13.465,2.760 12.000 C 2.760 9.860,3.473 7.838,4.813 6.180 C 5.148 5.765,5.972 4.962,6.381 4.653 C 7.688 3.664,9.192 3.044,10.820 2.823 C 11.380 2.746,12.569 2.746,13.146 2.822 M11.819 7.280 C 9.990 7.440,8.440 8.632,7.780 10.384 C 7.422 11.335,7.422 12.665,7.780 13.616 C 8.279 14.943,9.290 15.959,10.601 16.451 C 11.562 16.813,12.813 16.827,13.800 16.487 C 14.310 16.311,15.059 15.863,15.380 15.542 C 15.881 15.041,15.554 14.260,14.848 14.267 C 14.668 14.269,14.604 14.292,14.419 14.424 C 13.864 14.822,13.762 14.886,13.491 15.000 C 13.034 15.192,12.661 15.253,12.080 15.230 C 11.195 15.194,10.602 14.930,9.956 14.284 C 9.528 13.857,9.312 13.515,9.132 12.980 C 9.031 12.684,9.023 12.611,9.023 12.000 C 9.023 11.389,9.031 11.316,9.132 11.020 C 9.312 10.485,9.528 10.143,9.956 9.716 C 10.602 9.070,11.195 8.806,12.080 8.770 C 12.661 8.747,13.034 8.808,13.491 9.000 C 13.762 9.114,13.864 9.178,14.419 9.576 C 14.604 9.708,14.668 9.731,14.848 9.733 C 15.554 9.740,15.881 8.959,15.380 8.458 C 15.215 8.293,14.786 7.989,14.440 7.793 C 13.964 7.523,13.327 7.342,12.637 7.281 C 12.386 7.259,12.171 7.243,12.160 7.246 C 12.149 7.249,11.996 7.264,11.819 7.280 " stroke="none" fill-rule="evenodd" fill="black"></path></svg>