<svg width="24" height="24" viewBox="0 0 24 24" fill="none" xmlns="http://www.w3.org/2000/svg"><path d="M11.815 1.278 C 11.639 1.320,11.462 1.455,11.353 1.631 L 11.260 1.780 11.249 4.506 L 11.237 7.233 8.789 7.252 C 6.113 7.272,6.010 7.280,5.361 7.517 C 4.488 7.836,3.836 8.486,3.519 9.356 C 3.256 10.077,3.268 9.785,3.251 15.786 L 3.236 21.232 2.505 21.246 C 1.790 21.260,1.771 21.262,1.612 21.367 C 1.372 21.526,1.267 21.721,1.267 22.007 C 1.267 22.203,1.286 22.270,1.383 22.408 C 1.447 22.499,1.572 22.610,1.660 22.656 L 1.820 22.740 11.880 22.751 C 19.099 22.758,22.000 22.749,22.154 22.717 C 22.722 22.600,22.933 21.893,22.522 21.482 C 22.320 21.280,22.131 21.240,21.384 21.240 L 20.764 21.240 20.749 15.790 C 20.732 9.785,20.744 10.077,20.481 9.356 C 20.164 8.486,19.512 7.836,18.639 7.517 C 17.990 7.280,17.887 7.272,15.210 7.252 L 12.760 7.233 12.760 6.619 L 12.760 6.006 12.890 6.044 C 13.406 6.194,14.794 6.258,15.465 6.162 C 16.165 6.061,17.051 5.815,17.380 5.628 C 17.477 5.573,17.579 5.468,17.640 5.359 L 17.740 5.180 17.753 3.620 C 17.762 2.531,17.752 1.995,17.719 1.846 C 17.657 1.562,17.451 1.350,17.172 1.283 C 16.986 1.238,16.944 1.244,16.537 1.375 C 15.688 1.646,15.259 1.719,14.500 1.719 C 13.743 1.719,13.311 1.646,12.471 1.377 C 12.017 1.232,12.011 1.231,11.815 1.278 M13.420 3.143 C 14.165 3.258,15.552 3.207,16.110 3.044 L 16.240 3.006 16.240 3.741 L 16.240 4.477 16.070 4.520 C 15.977 4.544,15.875 4.572,15.845 4.583 C 15.661 4.645,14.927 4.720,14.500 4.720 C 14.073 4.720,13.339 4.645,13.155 4.583 C 13.125 4.572,13.023 4.544,12.930 4.520 L 12.760 4.477 12.760 3.741 L 12.760 3.006 12.890 3.044 C 12.962 3.064,13.200 3.109,13.420 3.143 M17.773 8.819 C 18.751 9.026,19.237 9.706,19.239 10.870 L 19.240 11.240 12.000 11.240 L 4.760 11.240 4.761 10.870 C 4.763 9.721,5.249 9.029,6.200 8.823 C 6.594 8.737,17.372 8.734,17.773 8.819 M7.240 17.000 L 7.240 21.240 6.000 21.240 L 4.760 21.240 4.760 17.000 L 4.760 12.760 6.000 12.760 L 7.240 12.760 7.240 17.000 M11.240 17.000 L 11.240 21.240 9.980 21.240 L 8.720 21.240 8.720 17.000 L 8.720 12.760 9.980 12.760 L 11.240 12.760 11.240 17.000 M15.240 17.000 L 15.240 21.240 13.980 21.240 L 12.720 21.240 12.720 17.000 L 12.720 12.760 13.980 12.760 L 15.240 12.760 15.240 17.000 M19.240 17.000 L 19.240 21.240 17.980 21.240 L 16.720 21.240 16.720 17.000 L 16.720 12.760 17.980 12.760 L 19.240 12.760 19.240 17.000 " stroke="none" fill-rule="evenodd" fill="black"></path></svg>