<svg width="24" height="24" viewBox="0 0 24 24" fill="none" xmlns="http://www.w3.org/2000/svg"><path d="M7.854 1.278 C 7.665 1.323,7.469 1.459,7.380 1.607 C 7.308 1.726,7.298 1.832,7.280 2.616 L 7.260 3.492 6.940 3.581 C 5.256 4.049,4.200 5.038,3.666 6.648 C 3.610 6.818,3.553 7.019,3.538 7.095 L 3.512 7.233 2.643 7.247 C 1.777 7.260,1.773 7.260,1.612 7.367 C 1.372 7.526,1.267 7.721,1.267 8.007 C 1.267 8.203,1.286 8.270,1.383 8.408 C 1.591 8.702,1.713 8.738,2.556 8.754 L 3.291 8.768 3.266 9.130 C 3.252 9.329,3.240 9.884,3.240 10.362 L 3.240 11.232 2.507 11.246 C 1.790 11.260,1.771 11.262,1.612 11.367 C 1.372 11.526,1.267 11.721,1.267 12.007 C 1.267 12.203,1.286 12.270,1.383 12.408 C 1.590 12.700,1.715 12.738,2.530 12.754 L 3.240 12.768 3.240 13.638 C 3.240 14.116,3.252 14.671,3.266 14.870 L 3.291 15.232 2.533 15.246 C 1.787 15.260,1.771 15.262,1.612 15.367 C 1.372 15.526,1.267 15.721,1.267 16.007 C 1.267 16.203,1.286 16.270,1.383 16.408 C 1.597 16.710,1.700 16.738,2.666 16.753 L 3.512 16.767 3.538 16.905 C 3.553 16.981,3.610 17.182,3.666 17.352 C 4.200 18.962,5.256 19.951,6.940 20.419 L 7.260 20.508 7.280 21.384 C 7.299 22.198,7.306 22.270,7.388 22.402 C 7.629 22.789,8.236 22.848,8.548 22.513 C 8.732 22.317,8.760 22.169,8.760 21.415 L 8.760 20.708 9.126 20.734 C 9.328 20.748,9.895 20.760,10.386 20.760 L 11.280 20.760 11.280 21.486 C 11.280 22.181,11.284 22.220,11.376 22.377 C 11.616 22.787,12.226 22.858,12.548 22.513 C 12.730 22.318,12.760 22.167,12.760 21.441 L 12.760 20.760 13.634 20.760 C 14.114 20.760,14.671 20.748,14.870 20.734 L 15.232 20.709 15.246 21.464 C 15.259 22.172,15.266 22.229,15.353 22.369 C 15.710 22.943,16.576 22.812,16.716 22.162 C 16.740 22.049,16.760 21.626,16.760 21.222 L 16.760 20.489 16.902 20.462 C 17.136 20.418,17.639 20.241,17.983 20.081 C 18.920 19.647,19.647 18.920,20.081 17.983 C 20.241 17.639,20.418 17.136,20.462 16.902 L 20.489 16.760 21.222 16.760 C 22.124 16.760,22.315 16.725,22.520 16.520 C 22.918 16.122,22.730 15.423,22.189 15.286 C 22.087 15.261,21.715 15.240,21.356 15.240 L 20.708 15.240 20.734 14.874 C 20.748 14.672,20.760 14.114,20.760 13.634 L 20.760 12.760 21.358 12.760 C 22.121 12.760,22.321 12.719,22.520 12.520 C 22.918 12.122,22.730 11.423,22.189 11.286 C 22.087 11.261,21.725 11.240,21.382 11.240 L 20.760 11.240 20.760 10.366 C 20.760 9.886,20.748 9.328,20.734 9.126 L 20.708 8.760 21.332 8.760 C 22.122 8.760,22.320 8.720,22.520 8.520 C 22.918 8.122,22.730 7.423,22.189 7.286 C 22.081 7.259,21.689 7.240,21.247 7.240 L 20.489 7.240 20.462 7.098 C 20.418 6.864,20.241 6.361,20.081 6.017 C 19.647 5.080,18.920 4.353,17.983 3.919 C 17.639 3.759,17.136 3.582,16.902 3.538 L 16.760 3.511 16.760 2.778 C 16.760 1.879,16.724 1.684,16.522 1.482 C 16.173 1.133,15.619 1.203,15.353 1.631 C 15.266 1.771,15.259 1.828,15.246 2.536 L 15.232 3.291 14.870 3.266 C 14.671 3.252,14.114 3.240,13.634 3.240 L 12.760 3.240 12.760 2.642 C 12.760 1.881,12.718 1.678,12.522 1.482 C 12.173 1.133,11.619 1.203,11.353 1.631 C 11.266 1.770,11.259 1.829,11.246 2.510 L 11.232 3.240 10.362 3.240 C 9.884 3.240,9.328 3.252,9.126 3.266 L 8.760 3.292 8.760 2.585 C 8.760 1.831,8.732 1.683,8.548 1.487 C 8.379 1.306,8.096 1.221,7.854 1.278 M15.941 4.851 C 17.392 5.118,18.207 5.630,18.674 6.567 C 18.896 7.013,19.043 7.478,19.151 8.080 C 19.213 8.420,19.220 8.832,19.220 12.000 C 19.220 15.168,19.213 15.580,19.151 15.920 C 19.043 16.522,18.896 16.987,18.674 17.434 C 18.505 17.773,18.412 17.904,18.158 18.158 C 17.904 18.412,17.773 18.505,17.434 18.674 C 16.987 18.896,16.522 19.043,15.920 19.151 C 15.580 19.213,15.168 19.220,12.000 19.220 C 8.832 19.220,8.420 19.213,8.080 19.151 C 7.476 19.043,7.012 18.896,6.561 18.671 C 6.220 18.501,6.087 18.407,5.840 18.160 C 5.356 17.676,5.034 16.948,4.849 15.920 C 4.787 15.580,4.780 15.168,4.780 12.000 C 4.780 8.832,4.787 8.420,4.849 8.080 C 4.957 7.476,5.104 7.012,5.329 6.561 C 5.500 6.218,5.592 6.088,5.840 5.841 C 6.401 5.283,7.296 4.928,8.460 4.803 C 8.636 4.784,10.310 4.772,12.180 4.777 C 15.156 4.783,15.625 4.793,15.941 4.851 M10.120 6.265 C 8.762 6.352,7.872 6.682,7.256 7.326 C 6.745 7.859,6.455 8.540,6.312 9.540 C 6.238 10.050,6.239 13.955,6.312 14.460 C 6.601 16.451,7.549 17.399,9.540 17.688 C 10.048 17.762,13.952 17.762,14.460 17.688 C 16.451 17.399,17.399 16.451,17.688 14.460 C 17.762 13.952,17.762 10.048,17.688 9.540 C 17.402 7.571,16.468 6.621,14.520 6.319 C 14.237 6.275,10.646 6.231,10.120 6.265 M14.726 7.869 C 15.370 8.049,15.733 8.324,15.957 8.798 C 16.215 9.346,16.220 9.411,16.220 12.000 C 16.220 14.608,16.215 14.664,15.943 15.224 C 15.709 15.706,15.305 15.993,14.642 16.149 C 14.371 16.213,14.100 16.220,12.000 16.220 C 9.900 16.220,9.629 16.213,9.358 16.149 C 8.695 15.993,8.291 15.706,8.057 15.224 C 7.785 14.664,7.780 14.608,7.780 12.000 C 7.780 9.900,7.787 9.629,7.851 9.358 C 8.070 8.427,8.532 8.004,9.534 7.818 C 9.754 7.777,10.352 7.767,12.120 7.774 C 14.335 7.783,14.431 7.786,14.726 7.869 M11.700 9.017 C 11.634 9.046,11.532 9.122,11.473 9.185 C 11.358 9.309,10.491 10.800,10.328 11.155 C 10.137 11.572,10.214 12.034,10.536 12.390 C 10.756 12.634,11.006 12.723,11.546 12.750 C 11.796 12.762,12.000 12.779,12.000 12.787 C 12.000 12.795,11.840 13.081,11.644 13.421 C 11.262 14.087,11.213 14.230,11.280 14.480 C 11.430 15.037,12.142 15.228,12.527 14.815 C 12.642 14.691,13.509 13.200,13.672 12.845 C 13.927 12.288,13.669 11.600,13.114 11.361 C 12.959 11.294,12.797 11.267,12.454 11.250 C 12.204 11.238,12.000 11.222,12.000 11.214 C 12.000 11.206,12.166 10.909,12.369 10.554 C 12.706 9.962,12.737 9.890,12.734 9.702 C 12.731 9.475,12.683 9.357,12.525 9.187 C 12.326 8.973,11.966 8.898,11.700 9.017 " stroke="none" fill-rule="evenodd" fill="black"></path></svg>