<svg width="24" height="24" viewBox="0 0 24 24" fill="none" xmlns="http://www.w3.org/2000/svg"><path d="M11.320 1.281 C 9.259 1.398,7.250 2.142,5.530 3.424 C 4.912 3.884,3.884 4.912,3.424 5.530 C 1.875 7.608,1.136 10.050,1.281 12.610 C 1.402 14.759,2.118 16.717,3.424 18.470 C 3.880 19.083,4.909 20.111,5.530 20.575 C 7.606 22.126,10.070 22.870,12.627 22.717 C 14.790 22.588,16.724 21.879,18.470 20.575 C 19.087 20.115,20.115 19.087,20.575 18.470 C 22.127 16.391,22.870 13.930,22.717 11.373 C 22.588 9.210,21.879 7.276,20.575 5.530 C 20.115 4.913,19.087 3.885,18.470 3.425 C 17.047 2.362,15.454 1.679,13.742 1.398 C 13.334 1.331,12.074 1.229,11.880 1.247 C 11.847 1.250,11.595 1.265,11.320 1.281 M13.146 2.822 C 14.201 2.960,15.113 3.234,16.060 3.698 C 17.024 4.170,17.648 4.611,18.434 5.378 C 19.273 6.195,19.814 6.937,20.303 7.940 C 20.944 9.253,21.240 10.537,21.240 12.000 C 21.240 13.465,20.943 14.752,20.302 16.060 C 19.830 17.024,19.389 17.648,18.622 18.434 C 17.805 19.273,17.063 19.814,16.060 20.303 C 14.747 20.944,13.463 21.240,12.000 21.240 C 10.537 21.240,9.253 20.944,7.940 20.303 C 6.937 19.814,6.195 19.273,5.378 18.434 C 4.611 17.648,4.170 17.024,3.698 16.060 C 3.057 14.752,2.760 13.465,2.760 12.000 C 2.760 9.860,3.473 7.838,4.813 6.180 C 5.148 5.765,5.972 4.962,6.381 4.653 C 7.688 3.664,9.192 3.044,10.820 2.823 C 11.380 2.746,12.569 2.746,13.146 2.822 M8.330 8.442 C 8.005 8.500,7.653 8.629,7.284 8.824 C 6.227 9.383,5.526 10.423,5.405 11.611 C 5.230 13.327,6.225 14.871,7.866 15.433 C 8.794 15.751,9.987 15.621,10.800 15.114 C 11.387 14.748,11.547 14.579,11.618 14.253 C 11.705 13.848,11.303 13.401,10.849 13.400 C 10.713 13.400,10.511 13.495,10.272 13.672 C 9.985 13.884,9.790 13.977,9.477 14.055 C 8.383 14.326,7.269 13.670,6.944 12.563 C 6.844 12.222,6.859 11.696,6.980 11.336 C 7.106 10.962,7.233 10.758,7.518 10.480 C 8.275 9.739,9.490 9.680,10.303 10.345 C 10.486 10.495,10.712 10.600,10.849 10.600 C 11.127 10.599,11.425 10.423,11.547 10.186 C 11.634 10.019,11.632 9.694,11.544 9.520 C 11.371 9.180,10.646 8.715,9.975 8.515 C 9.659 8.421,8.689 8.378,8.330 8.442 M15.330 8.442 C 15.005 8.500,14.653 8.629,14.284 8.824 C 13.227 9.383,12.526 10.423,12.405 11.611 C 12.230 13.327,13.225 14.871,14.866 15.433 C 15.794 15.751,16.987 15.621,17.800 15.114 C 18.387 14.748,18.547 14.579,18.618 14.253 C 18.705 13.848,18.303 13.401,17.849 13.400 C 17.713 13.400,17.511 13.495,17.272 13.672 C 16.985 13.884,16.790 13.977,16.477 14.055 C 15.383 14.326,14.269 13.670,13.944 12.563 C 13.844 12.222,13.859 11.696,13.980 11.336 C 14.106 10.962,14.233 10.758,14.518 10.480 C 15.275 9.739,16.490 9.680,17.303 10.345 C 17.486 10.495,17.712 10.600,17.849 10.600 C 18.127 10.599,18.425 10.423,18.547 10.186 C 18.634 10.019,18.632 9.694,18.544 9.520 C 18.371 9.180,17.646 8.715,16.975 8.515 C 16.659 8.421,15.689 8.378,15.330 8.442 " stroke="none" fill-rule="evenodd" fill="black"></path></svg>