<svg width="24" height="24" viewBox="0 0 24 24" fill="none" xmlns="http://www.w3.org/2000/svg"><path d="M4.815 1.277 C 4.638 1.321,4.461 1.456,4.353 1.631 C 4.262 1.777,4.260 1.804,4.247 3.007 L 4.235 4.235 3.004 4.247 L 1.774 4.260 1.612 4.367 C 1.372 4.526,1.267 4.721,1.267 5.007 C 1.267 5.203,1.286 5.270,1.383 5.408 C 1.610 5.729,1.656 5.738,3.030 5.753 L 4.240 5.765 4.241 10.033 C 4.241 14.477,4.265 15.366,4.404 16.200 C 4.745 18.242,5.757 19.254,7.800 19.596 C 8.625 19.734,9.542 19.758,13.987 19.759 L 18.235 19.760 18.247 20.990 C 18.260 22.196,18.262 22.223,18.353 22.369 C 18.710 22.943,19.576 22.812,19.716 22.162 C 19.742 22.040,19.760 21.509,19.760 20.858 L 19.760 19.760 20.858 19.760 C 22.144 19.760,22.303 19.737,22.520 19.520 C 22.918 19.122,22.730 18.423,22.189 18.286 C 22.071 18.257,21.600 18.240,20.882 18.240 L 19.760 18.240 19.759 13.990 C 19.758 9.542,19.734 8.625,19.596 7.800 C 19.254 5.757,18.242 4.745,16.200 4.404 C 15.366 4.265,14.477 4.241,10.030 4.241 L 5.760 4.240 5.759 3.130 C 5.758 1.954,5.734 1.738,5.580 1.536 C 5.421 1.327,5.078 1.211,4.815 1.277 M15.794 5.835 C 17.378 6.106,17.894 6.622,18.165 8.206 C 18.203 8.428,18.219 9.701,18.229 13.372 L 18.243 18.243 13.372 18.229 C 9.701 18.219,8.428 18.203,8.206 18.165 C 6.622 17.894,6.106 17.378,5.835 15.794 C 5.797 15.572,5.781 14.299,5.771 10.628 L 5.757 5.757 10.628 5.771 C 14.299 5.781,15.572 5.797,15.794 5.835 " stroke="none" fill-rule="evenodd" fill="black"></path></svg>