<svg width="24" height="24" viewBox="0 0 24 24" fill="none" xmlns="http://www.w3.org/2000/svg"><path d="M11.644 3.003 C 11.548 3.022,11.350 3.093,11.206 3.161 C 10.966 3.273,10.774 3.452,9.020 5.202 C 7.550 6.668,7.074 7.120,7.000 7.120 C 6.927 7.120,6.552 6.770,5.442 5.667 C 4.484 4.715,3.890 4.157,3.720 4.046 C 2.694 3.382,1.687 3.760,1.335 4.940 C 1.269 5.164,1.263 5.517,1.250 10.140 C 1.236 15.163,1.250 15.850,1.382 16.480 C 1.480 16.943,1.667 17.460,1.901 17.912 C 2.788 19.623,4.399 20.748,6.316 20.996 C 6.772 21.056,17.329 21.057,17.804 20.998 C 20.422 20.673,22.180 19.014,22.652 16.423 C 22.740 15.941,22.740 15.929,22.740 10.600 C 22.740 5.622,22.735 5.241,22.669 4.984 C 22.360 3.780,21.321 3.373,20.280 4.046 C 20.110 4.157,19.516 4.715,18.558 5.667 C 17.451 6.767,17.072 7.120,17.000 7.120 C 16.927 7.120,16.446 6.664,14.982 5.208 C 13.394 3.629,13.018 3.275,12.820 3.173 C 12.438 2.976,12.061 2.921,11.644 3.003 M13.997 6.372 C 15.714 8.078,15.970 8.318,16.200 8.431 C 16.711 8.684,17.379 8.677,17.834 8.416 C 17.942 8.354,18.646 7.687,19.520 6.820 C 20.345 6.001,21.060 5.310,21.109 5.284 C 21.187 5.244,21.201 5.249,21.220 5.329 C 21.233 5.379,21.237 7.841,21.230 10.800 L 21.217 16.180 21.112 16.568 C 20.720 18.007,19.738 19.008,18.353 19.379 C 17.678 19.561,17.466 19.566,11.780 19.551 C 6.855 19.537,6.397 19.531,6.131 19.467 C 5.128 19.225,4.291 18.701,3.675 17.929 C 3.298 17.457,3.066 16.992,2.870 16.320 L 2.783 16.020 2.770 10.720 C 2.763 7.805,2.767 5.379,2.780 5.329 C 2.799 5.249,2.813 5.244,2.891 5.284 C 2.940 5.310,3.646 5.992,4.460 6.800 C 5.274 7.609,6.019 8.319,6.115 8.379 C 6.436 8.578,6.904 8.665,7.300 8.600 C 7.827 8.514,7.853 8.492,9.920 6.419 C 11.646 4.687,11.897 4.451,12.017 4.443 C 12.038 4.441,12.929 5.309,13.997 6.372 " stroke="none" fill-rule="evenodd" fill="black"></path></svg>