<svg width="24" height="24" viewBox="0 0 24 24" fill="none" xmlns="http://www.w3.org/2000/svg"><path d="M11.621 1.304 C 11.176 1.446,10.791 1.810,10.504 2.360 C 10.429 2.503,9.969 3.682,9.480 4.980 C 8.992 6.278,8.557 7.423,8.514 7.525 C 8.425 7.732,8.297 7.823,8.155 7.779 C 8.103 7.764,7.098 7.064,5.922 6.226 C 4.509 5.218,3.659 4.638,3.415 4.515 C 2.652 4.133,2.062 4.160,1.587 4.598 C 1.138 5.011,1.055 5.725,1.345 6.652 C 1.590 7.429,5.616 18.637,5.709 18.797 C 5.921 19.163,6.302 19.464,6.760 19.626 L 7.020 19.718 11.986 19.719 C 16.821 19.720,16.958 19.718,17.206 19.641 C 17.688 19.491,18.130 19.129,18.345 18.708 C 18.491 18.422,22.552 7.040,22.642 6.664 C 22.848 5.802,22.754 5.160,22.366 4.778 C 21.830 4.250,21.094 4.249,20.171 4.774 C 20.050 4.843,19.048 5.543,17.945 6.329 C 16.842 7.115,15.888 7.769,15.825 7.783 C 15.736 7.803,15.689 7.787,15.615 7.713 C 15.550 7.648,15.234 6.856,14.619 5.219 C 14.124 3.899,13.673 2.713,13.617 2.582 C 13.480 2.262,13.200 1.847,12.990 1.653 C 12.610 1.303,12.061 1.163,11.621 1.304 M12.167 3.023 C 12.225 3.131,12.678 4.300,13.173 5.620 C 13.668 6.940,14.109 8.101,14.152 8.200 C 14.339 8.629,14.686 8.968,15.130 9.155 C 15.346 9.246,15.436 9.260,15.800 9.260 C 16.182 9.260,16.244 9.249,16.480 9.140 C 16.626 9.073,17.570 8.428,18.640 7.663 C 20.370 6.426,21.115 5.920,21.206 5.920 C 21.268 5.920,21.241 6.147,21.141 6.486 C 21.086 6.669,20.136 9.348,19.031 12.439 C 17.075 17.903,17.016 18.060,16.884 18.149 L 16.748 18.240 12.012 18.240 C 6.926 18.240,7.111 18.247,7.003 18.046 C 6.947 17.941,2.866 6.518,2.761 6.171 C 2.712 6.012,2.679 5.862,2.687 5.839 C 2.708 5.776,3.015 5.984,5.220 7.560 C 6.320 8.346,7.310 9.034,7.420 9.089 C 7.916 9.337,8.482 9.343,8.981 9.106 C 9.366 8.923,9.624 8.666,9.812 8.278 C 9.892 8.114,10.364 6.891,10.862 5.560 C 11.750 3.184,11.919 2.780,12.013 2.810 C 12.039 2.819,12.108 2.914,12.167 3.023 M9.420 13.259 C 9.398 13.267,9.331 13.284,9.271 13.297 C 9.124 13.329,8.881 13.548,8.814 13.708 C 8.691 14.002,8.771 14.336,9.015 14.550 C 9.095 14.621,9.211 14.693,9.271 14.709 C 9.413 14.749,14.587 14.749,14.729 14.709 C 14.881 14.667,15.121 14.447,15.186 14.292 C 15.297 14.027,15.241 13.711,15.047 13.506 C 14.802 13.247,14.961 13.261,12.080 13.252 C 10.639 13.248,9.442 13.251,9.420 13.259 M6.420 21.259 C 6.398 21.267,6.331 21.284,6.271 21.297 C 6.124 21.329,5.881 21.548,5.814 21.708 C 5.691 22.002,5.771 22.336,6.015 22.550 C 6.095 22.621,6.211 22.693,6.271 22.709 C 6.414 22.749,17.586 22.749,17.729 22.709 C 17.881 22.667,18.121 22.447,18.186 22.292 C 18.297 22.027,18.241 21.711,18.047 21.506 C 17.795 21.240,18.285 21.261,12.080 21.253 C 8.989 21.249,6.442 21.252,6.420 21.259 " stroke="none" fill-rule="evenodd" fill="black"></path></svg>