<svg width="24" height="24" viewBox="0 0 24 24" fill="none" xmlns="http://www.w3.org/2000/svg"><path d="M8.579 1.278 C 7.416 1.385,6.366 1.895,5.559 2.744 C 5.393 2.918,5.180 3.179,5.084 3.325 L 4.910 3.589 4.445 3.612 C 3.911 3.638,3.480 3.739,3.114 3.922 C 2.240 4.360,1.641 5.092,1.397 6.024 C 1.293 6.420,1.284 7.200,1.377 7.769 C 1.543 8.794,2.046 9.831,2.826 10.760 C 3.260 11.277,3.850 11.727,4.537 12.066 L 4.975 12.281 5.162 12.635 C 5.518 13.310,5.904 13.833,6.473 14.415 C 7.687 15.657,9.200 16.421,10.930 16.667 L 11.400 16.734 11.400 17.483 L 11.400 18.231 10.050 18.250 C 8.560 18.271,8.457 18.285,7.940 18.538 C 7.024 18.987,6.400 19.981,6.400 20.993 L 6.400 21.229 6.159 21.254 C 5.893 21.282,5.745 21.345,5.612 21.487 C 5.495 21.612,5.400 21.847,5.401 22.009 C 5.403 22.292,5.655 22.638,5.913 22.710 C 5.972 22.727,8.792 22.740,12.180 22.740 L 18.340 22.740 18.514 22.640 C 18.749 22.506,18.880 22.277,18.880 22.002 C 18.880 21.580,18.601 21.304,18.127 21.254 L 17.880 21.229 17.880 20.921 C 17.880 19.759,17.031 18.674,15.860 18.339 C 15.662 18.282,15.382 18.267,14.250 18.251 L 12.880 18.231 12.880 17.474 C 12.880 16.903,12.892 16.714,12.930 16.703 C 12.957 16.695,13.196 16.649,13.460 16.600 C 15.730 16.180,17.754 14.688,18.838 12.635 L 19.025 12.281 19.463 12.066 C 20.150 11.727,20.740 11.277,21.174 10.760 C 21.947 9.839,22.458 8.789,22.622 7.780 C 22.716 7.202,22.708 6.424,22.604 6.020 C 22.378 5.147,21.766 4.382,20.955 3.960 C 20.539 3.744,20.122 3.640,19.555 3.612 L 19.090 3.589 18.916 3.325 C 18.285 2.365,17.179 1.626,15.964 1.353 C 15.589 1.269,15.501 1.266,12.240 1.258 C 10.403 1.253,8.756 1.262,8.579 1.278 M15.980 2.890 C 16.518 3.074,16.858 3.290,17.284 3.716 C 17.711 4.142,17.926 4.483,18.110 5.020 L 18.219 5.340 18.233 7.380 C 18.247 9.504,18.231 9.825,18.075 10.460 C 17.800 11.585,17.262 12.548,16.449 13.374 C 15.928 13.903,15.448 14.255,14.804 14.578 C 13.273 15.347,11.513 15.456,9.900 14.883 C 7.691 14.096,6.102 12.120,5.800 9.780 C 5.768 9.534,5.758 8.774,5.767 7.380 L 5.781 5.340 5.890 5.020 C 6.074 4.483,6.289 4.142,6.716 3.716 C 7.105 3.328,7.417 3.118,7.852 2.951 C 8.341 2.764,8.333 2.765,12.100 2.773 L 15.660 2.780 15.980 2.890 M4.180 7.370 C 4.180 8.607,4.193 9.714,4.208 9.828 C 4.244 10.094,4.202 10.081,3.916 9.736 C 3.443 9.167,3.084 8.491,2.914 7.847 C 2.809 7.449,2.769 6.675,2.841 6.411 C 3.001 5.822,3.442 5.359,4.020 5.176 C 4.108 5.148,4.180 5.124,4.180 5.123 C 4.180 5.121,4.180 6.132,4.180 7.370 M20.298 5.309 C 20.544 5.434,20.891 5.784,21.014 6.032 C 21.179 6.365,21.213 6.564,21.189 7.071 C 21.145 8.017,20.791 8.873,20.097 9.716 C 19.797 10.081,19.756 10.096,19.792 9.828 C 19.807 9.714,19.820 8.610,19.820 7.376 L 19.820 5.132 19.960 5.171 C 20.037 5.192,20.189 5.254,20.298 5.309 M15.573 19.824 C 15.675 19.859,15.851 19.969,15.962 20.069 C 16.238 20.317,16.367 20.583,16.392 20.950 L 16.411 21.240 12.141 21.240 L 7.871 21.240 7.899 20.970 C 7.945 20.529,8.124 20.199,8.433 19.985 C 8.764 19.756,8.632 19.764,12.143 19.762 C 15.007 19.760,15.408 19.767,15.573 19.824 " stroke="none" fill-rule="evenodd" fill="black"></path></svg>