<svg width="24" height="24" viewBox="0 0 24 24" fill="none" xmlns="http://www.w3.org/2000/svg"><path d="M11.500 1.882 C 10.393 2.055,9.313 2.816,8.523 3.979 C 8.257 4.371,7.390 5.914,3.711 12.540 C 1.875 15.849,1.691 16.203,1.506 16.788 C 1.242 17.623,1.193 18.543,1.373 19.243 C 1.760 20.744,2.982 21.751,4.800 22.067 C 5.195 22.136,5.620 22.140,12.060 22.140 C 19.608 22.140,19.088 22.156,19.960 21.894 C 21.332 21.481,22.299 20.521,22.625 19.247 C 22.705 18.936,22.725 18.758,22.727 18.340 C 22.731 17.496,22.573 16.837,22.162 15.980 C 21.809 15.242,15.788 4.436,15.465 3.960 C 14.946 3.194,14.144 2.485,13.431 2.162 C 12.872 1.909,12.071 1.792,11.500 1.882 M12.460 3.408 C 13.107 3.547,13.826 4.158,14.405 5.060 C 14.643 5.432,20.594 16.182,20.804 16.620 C 21.100 17.239,21.198 17.589,21.227 18.140 C 21.245 18.479,21.235 18.640,21.184 18.840 C 20.920 19.877,20.059 20.482,18.620 20.640 C 18.148 20.692,6.197 20.692,5.531 20.640 C 4.545 20.564,3.845 20.294,3.357 19.804 C 2.907 19.353,2.736 18.865,2.772 18.140 C 2.813 17.306,2.929 17.030,4.185 14.765 C 6.597 10.414,9.306 5.552,9.491 5.240 C 10.102 4.213,10.850 3.549,11.560 3.405 C 11.963 3.323,12.063 3.323,12.460 3.408 M11.815 8.277 C 11.638 8.321,11.461 8.456,11.353 8.631 L 11.260 8.780 11.260 11.500 L 11.260 14.220 11.353 14.369 C 11.710 14.943,12.576 14.812,12.716 14.162 C 12.775 13.888,12.775 9.095,12.717 8.841 C 12.623 8.432,12.215 8.177,11.815 8.277 M11.689 16.059 C 11.454 16.132,11.263 16.287,11.131 16.511 C 11.036 16.672,11.020 16.744,11.020 17.000 C 11.020 17.257,11.036 17.327,11.133 17.492 C 11.625 18.329,12.898 18.046,12.991 17.078 C 13.033 16.640,12.729 16.185,12.310 16.061 C 12.065 15.988,11.917 15.987,11.689 16.059 " stroke="none" fill-rule="evenodd" fill="black"></path></svg>