<svg width="24" height="24" viewBox="0 0 24 24" fill="none" xmlns="http://www.w3.org/2000/svg"><path d="M3.660 1.277 C 2.571 1.413,1.660 2.195,1.352 3.260 C 1.264 3.568,1.260 3.635,1.260 5.000 C 1.260 6.365,1.264 6.432,1.352 6.740 C 1.616 7.654,2.346 8.384,3.260 8.648 C 3.574 8.738,3.613 8.740,5.500 8.740 C 7.387 8.740,7.426 8.738,7.740 8.648 C 8.273 8.494,8.749 8.181,9.112 7.746 C 9.496 7.287,9.690 6.782,9.742 6.110 L 9.769 5.760 10.764 5.760 L 11.759 5.760 11.769 12.150 L 11.780 18.540 11.891 18.869 C 12.122 19.548,12.641 20.136,13.294 20.455 C 13.745 20.675,13.946 20.718,14.668 20.748 L 15.237 20.772 15.261 20.956 C 15.308 21.324,15.369 21.517,15.513 21.761 C 15.812 22.267,16.355 22.642,16.900 22.719 C 17.264 22.770,20.736 22.770,21.100 22.719 C 21.898 22.606,22.606 21.898,22.719 21.100 C 22.770 20.738,22.770 19.262,22.719 18.900 C 22.606 18.102,21.898 17.394,21.100 17.281 C 20.736 17.230,17.264 17.230,16.900 17.281 C 16.355 17.358,15.812 17.733,15.513 18.239 C 15.368 18.484,15.309 18.675,15.260 19.050 L 15.235 19.240 14.724 19.240 C 14.235 19.240,14.202 19.235,13.970 19.119 C 13.693 18.980,13.470 18.754,13.345 18.485 C 13.261 18.303,13.260 18.258,13.249 15.770 L 13.237 13.240 14.236 13.240 L 15.235 13.240 15.260 13.430 C 15.331 13.987,15.485 14.325,15.821 14.660 C 16.094 14.933,16.360 15.090,16.701 15.179 C 17.051 15.270,20.949 15.270,21.299 15.179 C 21.925 15.015,22.417 14.555,22.647 13.918 C 22.735 13.671,22.739 13.612,22.739 12.500 C 22.739 11.388,22.735 11.329,22.647 11.082 C 22.417 10.445,21.925 9.985,21.299 9.821 C 20.949 9.730,17.051 9.730,16.701 9.821 C 16.360 9.910,16.094 10.067,15.821 10.340 C 15.485 10.675,15.331 11.013,15.260 11.570 L 15.235 11.760 14.238 11.760 L 13.240 11.760 13.240 8.760 L 13.240 5.760 14.238 5.760 L 15.235 5.760 15.260 5.950 C 15.309 6.325,15.368 6.516,15.513 6.761 C 15.812 7.267,16.355 7.642,16.900 7.719 C 17.264 7.770,20.736 7.770,21.100 7.719 C 21.898 7.606,22.606 6.898,22.719 6.100 C 22.770 5.738,22.770 4.262,22.719 3.900 C 22.606 3.102,21.898 2.394,21.100 2.281 C 20.736 2.230,17.264 2.230,16.900 2.281 C 16.355 2.358,15.812 2.733,15.513 3.239 C 15.368 3.484,15.309 3.675,15.260 4.050 L 15.235 4.240 12.502 4.240 L 9.769 4.240 9.742 3.890 C 9.727 3.698,9.679 3.405,9.635 3.240 C 9.404 2.374,8.656 1.622,7.760 1.356 C 7.472 1.271,7.389 1.267,5.680 1.257 C 4.701 1.252,3.792 1.261,3.660 1.277 M7.454 2.841 C 7.744 2.950,8.050 3.256,8.159 3.546 C 8.234 3.747,8.240 3.855,8.240 5.000 C 8.240 6.450,8.226 6.523,7.874 6.874 C 7.508 7.241,7.514 7.240,5.500 7.240 C 3.486 7.240,3.492 7.241,3.126 6.874 C 2.774 6.523,2.760 6.450,2.760 5.000 C 2.760 3.550,2.774 3.477,3.126 3.126 C 3.490 2.761,3.469 2.764,5.488 2.762 C 7.150 2.760,7.248 2.764,7.454 2.841 M21.104 3.896 L 21.240 4.032 21.240 5.000 L 21.240 5.968 21.104 6.104 L 20.968 6.240 19.000 6.240 L 17.032 6.240 16.896 6.104 L 16.760 5.968 16.760 5.000 L 16.760 4.032 16.896 3.896 L 17.032 3.760 19.000 3.760 L 20.968 3.760 21.104 3.896 M21.000 11.300 C 21.235 11.421,21.240 11.448,21.240 12.500 C 21.240 13.552,21.235 13.579,21.000 13.700 C 20.902 13.751,20.593 13.760,19.000 13.760 C 17.407 13.760,17.098 13.751,17.000 13.700 C 16.765 13.579,16.760 13.552,16.760 12.508 C 16.760 11.911,16.776 11.525,16.803 11.475 C 16.826 11.431,16.902 11.361,16.973 11.318 C 17.094 11.244,17.189 11.240,18.992 11.240 C 20.593 11.240,20.902 11.249,21.000 11.300 M21.104 18.896 L 21.240 19.032 21.240 20.000 L 21.240 20.968 21.104 21.104 L 20.968 21.240 19.000 21.240 L 17.032 21.240 16.896 21.104 L 16.760 20.968 16.760 20.000 L 16.760 19.032 16.896 18.896 L 17.032 18.760 19.000 18.760 L 20.968 18.760 21.104 18.896 " stroke="none" fill-rule="evenodd" fill="black"></path></svg>