<svg width="24" height="24" viewBox="0 0 24 24" fill="none" xmlns="http://www.w3.org/2000/svg"><path d="M7.920 1.281 C 7.168 1.370,6.491 1.718,5.719 2.411 C 5.255 2.827,2.485 5.615,2.232 5.920 C 1.780 6.465,1.451 7.100,1.333 7.655 C 1.248 8.056,1.280 8.802,1.400 9.180 C 1.574 9.727,1.862 10.216,2.336 10.770 C 2.634 11.117,2.832 11.240,3.096 11.240 C 3.538 11.240,3.840 10.939,3.840 10.499 C 3.840 10.269,3.765 10.123,3.492 9.821 C 3.216 9.515,3.010 9.205,2.882 8.900 C 2.796 8.698,2.781 8.601,2.783 8.280 C 2.786 7.838,2.855 7.631,3.150 7.181 C 3.359 6.863,6.446 3.726,6.960 3.310 C 7.125 3.176,7.395 3.002,7.560 2.924 C 7.845 2.787,7.880 2.780,8.280 2.780 C 8.680 2.780,8.714 2.787,9.000 2.924 C 9.342 3.089,9.690 3.342,9.979 3.637 L 10.178 3.841 8.595 5.430 C 7.724 6.305,6.973 7.077,6.926 7.147 C 6.757 7.394,6.774 7.775,6.966 8.019 C 7.155 8.258,7.560 8.348,7.871 8.218 C 7.973 8.176,8.605 7.572,9.853 6.328 C 10.861 5.323,11.747 4.416,11.823 4.314 C 11.996 4.080,12.038 3.832,11.945 3.588 C 11.862 3.371,10.857 2.365,10.360 2.002 C 9.578 1.432,8.739 1.183,7.920 1.281 M19.900 1.356 C 19.582 1.449,18.996 1.702,18.260 2.063 C 14.710 3.805,10.367 7.142,8.059 9.900 C 7.501 10.567,6.037 12.422,5.897 12.640 C 5.752 12.864,5.751 12.865,5.526 12.893 C 5.206 12.932,4.636 13.117,4.220 13.316 C 2.802 13.997,1.838 15.267,1.580 16.795 C 1.450 17.568,1.232 19.777,1.255 20.100 C 1.353 21.516,2.482 22.645,3.900 22.745 C 4.321 22.775,7.000 22.478,7.535 22.342 C 9.389 21.872,10.766 20.369,11.100 18.452 C 11.133 18.263,11.160 18.105,11.160 18.099 C 11.160 18.093,11.243 18.039,11.344 17.980 C 11.537 17.866,12.935 16.762,13.913 15.949 C 17.036 13.356,20.722 8.395,22.333 4.616 C 22.456 4.328,22.575 4.013,22.597 3.916 C 22.660 3.647,22.648 3.083,22.576 2.837 C 22.366 2.122,21.759 1.524,21.058 1.341 C 20.747 1.260,20.203 1.267,19.900 1.356 M20.782 2.824 C 21.117 2.983,21.236 3.353,21.078 3.749 C 20.073 6.276,17.765 9.779,15.291 12.532 C 15.038 12.814,14.822 13.035,14.811 13.024 C 14.800 13.014,14.742 12.864,14.681 12.692 C 14.508 12.199,14.348 11.876,14.068 11.453 C 13.387 10.425,12.410 9.676,11.224 9.275 L 10.828 9.141 11.144 8.846 C 13.325 6.808,16.502 4.583,18.900 3.415 C 20.223 2.770,20.491 2.686,20.782 2.824 M10.420 10.600 C 11.731 10.903,12.816 11.881,13.264 13.165 C 13.381 13.499,13.480 13.973,13.480 14.200 C 13.480 14.385,13.444 14.419,12.003 15.574 L 11.025 16.357 10.940 16.089 C 10.828 15.737,10.606 15.300,10.348 14.923 C 10.099 14.560,9.526 13.974,9.140 13.687 C 8.817 13.447,8.169 13.117,7.820 13.015 C 7.688 12.976,7.574 12.940,7.566 12.934 C 7.548 12.922,8.597 11.593,9.134 10.946 L 9.527 10.473 9.814 10.499 C 9.971 10.514,10.244 10.559,10.420 10.600 M19.900 12.008 C 19.764 12.043,19.505 12.284,18.168 13.615 C 17.303 14.476,16.558 15.241,16.511 15.316 C 16.392 15.506,16.395 15.857,16.516 16.054 C 16.692 16.339,17.000 16.464,17.349 16.391 C 17.530 16.353,17.607 16.285,18.830 15.067 L 20.120 13.783 20.285 13.942 C 20.764 14.401,21.111 14.963,21.201 15.428 C 21.290 15.883,21.131 16.393,20.741 16.908 C 20.645 17.036,19.750 17.952,18.753 18.944 C 16.866 20.821,16.722 20.945,16.209 21.129 C 15.877 21.248,15.460 21.239,15.109 21.106 C 14.774 20.979,14.506 20.803,14.131 20.464 C 13.803 20.169,13.624 20.095,13.339 20.138 C 13.185 20.161,13.114 20.202,12.958 20.358 C 12.735 20.581,12.674 20.807,12.758 21.094 C 12.894 21.554,14.124 22.418,14.940 22.624 C 15.324 22.722,16.045 22.722,16.420 22.625 C 16.823 22.522,17.447 22.205,17.840 21.906 C 18.335 21.528,21.766 18.066,22.030 17.677 C 22.307 17.268,22.498 16.878,22.608 16.497 C 22.728 16.078,22.736 15.313,22.625 14.920 C 22.519 14.546,22.198 13.905,21.954 13.580 C 21.677 13.211,20.624 12.141,20.465 12.065 C 20.284 11.980,20.083 11.960,19.900 12.008 M7.117 14.384 C 8.276 14.667,9.306 15.687,9.588 16.831 C 9.693 17.257,9.683 18.134,9.569 18.531 C 9.240 19.678,8.357 20.567,7.238 20.878 C 7.060 20.928,6.363 21.025,5.512 21.120 C 3.977 21.290,3.813 21.290,3.477 21.119 C 3.115 20.934,2.797 20.484,2.741 20.080 C 2.711 19.863,3.010 17.147,3.104 16.786 C 3.412 15.596,4.409 14.645,5.620 14.386 C 6.005 14.304,6.785 14.303,7.117 14.384 " stroke="none" fill-rule="evenodd" fill="black"></path></svg>