<svg width="24" height="24" viewBox="0 0 24 24" fill="none" xmlns="http://www.w3.org/2000/svg"><path d="M5.180 1.282 C 3.100 1.391,2.017 2.064,1.545 3.540 C 1.269 4.401,1.228 5.242,1.251 9.478 C 1.270 12.881,1.280 13.091,1.457 13.855 C 1.747 15.103,2.532 15.904,3.771 16.219 C 4.433 16.387,4.714 16.408,6.510 16.428 L 8.240 16.448 8.240 17.841 L 8.240 19.235 6.990 19.247 C 5.642 19.261,5.620 19.264,5.412 19.487 C 5.297 19.609,5.200 19.845,5.200 20.000 C 5.200 20.255,5.378 20.540,5.620 20.674 C 5.728 20.733,6.028 20.741,8.610 20.751 C 10.653 20.759,11.480 20.775,11.480 20.806 C 11.480 20.830,11.529 20.960,11.588 21.095 C 11.934 21.881,12.515 22.361,13.390 22.584 C 14.003 22.740,14.779 22.771,17.515 22.748 C 19.530 22.732,19.998 22.717,20.280 22.663 C 21.336 22.461,21.976 22.028,22.352 21.260 C 22.508 20.942,22.584 20.698,22.669 20.240 C 22.735 19.889,22.740 19.479,22.740 14.880 C 22.740 10.282,22.735 9.871,22.669 9.520 C 22.519 8.714,22.315 8.275,21.900 7.859 C 21.625 7.584,21.252 7.351,20.910 7.242 L 20.760 7.194 20.759 6.607 C 20.757 5.751,20.692 4.634,20.620 4.220 C 20.329 2.545,19.455 1.670,17.780 1.380 C 17.582 1.345,17.105 1.300,16.720 1.280 C 15.911 1.236,6.017 1.238,5.180 1.282 M17.294 2.820 C 18.887 3.029,19.240 3.621,19.240 6.080 L 19.240 6.996 16.550 7.011 C 14.152 7.024,13.827 7.033,13.560 7.096 C 12.340 7.384,11.647 8.077,11.380 9.280 C 11.337 9.475,11.306 9.856,11.292 10.370 L 11.270 11.160 7.015 11.160 L 2.760 11.160 2.760 8.162 C 2.760 5.738,2.771 5.077,2.820 4.710 C 2.990 3.408,3.394 2.995,4.666 2.822 C 5.286 2.738,16.652 2.736,17.294 2.820 M19.639 8.521 C 20.726 8.605,21.060 8.878,21.202 9.797 C 21.228 9.968,21.238 11.809,21.231 15.040 C 21.220 19.666,21.214 20.037,21.148 20.260 C 21.000 20.762,20.760 21.001,20.260 21.147 C 20.043 21.210,19.743 21.219,17.182 21.230 C 15.370 21.239,14.247 21.229,14.078 21.202 C 13.207 21.067,12.917 20.748,12.801 19.801 C 12.747 19.355,12.746 10.707,12.800 10.094 C 12.862 9.390,13.014 9.001,13.304 8.803 C 13.492 8.674,13.884 8.562,14.278 8.524 C 14.765 8.477,19.042 8.474,19.639 8.521 M16.500 9.894 C 16.100 10.026,15.719 10.313,15.478 10.663 C 15.189 11.082,15.106 11.735,15.278 12.237 C 15.439 12.708,15.805 13.112,16.271 13.333 C 16.525 13.453,16.565 13.460,17.000 13.459 C 17.380 13.458,17.498 13.443,17.682 13.369 C 18.141 13.185,18.595 12.705,18.748 12.240 C 18.845 11.943,18.845 11.377,18.748 11.080 C 18.594 10.614,18.137 10.130,17.682 9.953 C 17.406 9.846,16.746 9.813,16.500 9.894 M17.222 11.458 C 17.276 11.512,17.320 11.603,17.320 11.660 C 17.320 11.717,17.276 11.808,17.222 11.862 C 17.026 12.057,16.720 11.934,16.720 11.660 C 16.720 11.386,17.026 11.263,17.222 11.458 M11.280 13.800 L 11.280 14.960 8.410 14.960 C 5.016 14.959,4.566 14.933,3.888 14.693 C 3.506 14.559,3.216 14.301,3.062 13.958 C 2.941 13.688,2.801 13.075,2.801 12.810 L 2.800 12.640 7.040 12.640 L 11.280 12.640 11.280 13.800 M16.420 14.176 C 14.997 14.502,14.053 15.740,14.131 17.178 C 14.197 18.379,14.952 19.363,16.117 19.766 C 16.817 20.007,17.789 19.909,18.440 19.531 C 18.774 19.337,19.337 18.774,19.531 18.440 C 19.995 17.641,20.014 16.537,19.579 15.678 C 19.341 15.208,18.791 14.658,18.321 14.420 C 17.805 14.160,16.964 14.052,16.420 14.176 M17.498 15.723 C 17.769 15.824,18.108 16.124,18.231 16.371 C 18.369 16.647,18.416 16.971,18.360 17.257 C 18.298 17.572,18.195 17.767,17.975 17.987 C 17.278 18.685,16.070 18.422,15.722 17.497 C 15.603 17.183,15.621 16.718,15.762 16.420 C 15.897 16.136,16.214 15.831,16.481 15.728 C 16.779 15.614,17.202 15.612,17.498 15.723 M11.280 17.840 L 11.280 19.240 10.520 19.240 L 9.760 19.240 9.760 17.840 L 9.760 16.440 10.520 16.440 L 11.280 16.440 11.280 17.840 " stroke="none" fill-rule="evenodd" fill="black"></path></svg>