<svg width="24" height="24" viewBox="0 0 24 24" fill="none" xmlns="http://www.w3.org/2000/svg"><path d="M11.789 2.684 C 11.404 2.744,11.015 3.088,10.916 3.455 C 10.840 3.738,10.866 4.071,10.983 4.310 C 11.340 5.039,12.378 5.150,12.881 4.513 C 13.076 4.268,13.134 4.061,13.111 3.700 C 13.090 3.370,13.016 3.212,12.776 2.978 C 12.514 2.723,12.176 2.623,11.789 2.684 M12.082 3.742 C 12.124 3.793,12.122 3.816,12.067 3.871 C 12.004 3.933,11.996 3.933,11.933 3.871 C 11.878 3.816,11.876 3.793,11.918 3.742 C 11.947 3.708,11.983 3.680,12.000 3.680 C 12.017 3.680,12.053 3.708,12.082 3.742 M4.801 5.549 C 4.554 5.637,4.233 5.965,4.147 6.217 C 3.956 6.778,4.185 7.369,4.692 7.626 C 5.193 7.880,5.763 7.751,6.117 7.305 C 6.270 7.111,6.335 6.891,6.332 6.576 C 6.327 6.143,6.077 5.768,5.663 5.575 C 5.422 5.463,5.076 5.453,4.801 5.549 M18.336 5.576 C 17.900 5.779,17.665 6.145,17.665 6.620 C 17.665 7.087,17.903 7.465,18.316 7.654 C 18.590 7.779,19.035 7.773,19.295 7.640 C 19.991 7.285,20.136 6.370,19.583 5.817 C 19.241 5.476,18.753 5.382,18.336 5.576 M5.257 6.544 C 5.337 6.575,5.339 6.675,5.259 6.706 C 5.168 6.741,5.067 6.643,5.124 6.575 C 5.177 6.512,5.174 6.512,5.257 6.544 M18.872 6.611 C 18.888 6.693,18.773 6.749,18.712 6.688 C 18.651 6.627,18.707 6.512,18.789 6.528 C 18.828 6.535,18.865 6.572,18.872 6.611 M18.720 6.575 C 18.720 6.583,18.752 6.615,18.790 6.645 C 18.853 6.695,18.855 6.693,18.805 6.630 C 18.753 6.563,18.720 6.542,18.720 6.575 M11.380 7.428 C 10.402 7.555,9.610 7.825,8.875 8.281 C 7.321 9.245,6.316 10.772,6.043 12.588 C 5.948 13.224,6.008 14.260,6.178 14.912 C 6.749 17.105,8.578 18.850,10.776 19.299 C 12.784 19.709,14.905 19.050,16.322 17.575 C 17.437 16.413,17.999 15.016,17.999 13.400 C 17.999 11.786,17.384 10.304,16.242 9.162 C 15.091 8.011,13.558 7.384,11.947 7.406 C 11.701 7.409,11.446 7.419,11.380 7.428 M12.728 8.962 C 14.181 9.167,15.547 10.245,16.147 11.661 C 16.662 12.876,16.623 14.197,16.039 15.389 C 15.240 17.017,13.576 17.998,11.763 17.908 C 9.552 17.800,7.758 16.082,7.515 13.839 C 7.310 11.949,8.417 10.063,10.188 9.285 C 10.994 8.932,11.790 8.830,12.728 8.962 M2.018 12.333 C 1.465 12.546,1.167 13.076,1.284 13.638 C 1.434 14.362,2.227 14.751,2.891 14.426 C 3.151 14.299,3.293 14.147,3.431 13.846 C 3.515 13.663,3.527 13.589,3.511 13.346 C 3.482 12.894,3.244 12.545,2.840 12.363 C 2.636 12.271,2.219 12.256,2.018 12.333 M21.216 12.331 C 20.888 12.460,20.566 12.812,20.501 13.114 C 20.336 13.875,20.845 14.532,21.600 14.532 C 22.037 14.532,22.368 14.342,22.590 13.965 C 22.747 13.698,22.765 13.246,22.630 12.952 C 22.519 12.707,22.306 12.481,22.087 12.375 C 21.907 12.287,21.394 12.261,21.216 12.331 M11.660 12.746 C 11.485 12.837,9.848 14.474,9.757 14.648 C 9.586 14.977,9.698 15.425,10.002 15.626 C 10.197 15.755,10.546 15.776,10.740 15.671 C 10.806 15.635,11.268 15.195,11.767 14.693 C 12.542 13.913,12.680 13.755,12.718 13.609 C 12.807 13.276,12.653 12.909,12.362 12.761 C 12.170 12.663,11.833 12.656,11.660 12.746 M21.678 13.356 C 21.739 13.469,21.622 13.559,21.531 13.469 C 21.478 13.415,21.476 13.393,21.518 13.342 C 21.586 13.260,21.629 13.264,21.678 13.356 M2.466 13.380 C 2.473 13.402,2.462 13.447,2.441 13.480 C 2.407 13.533,2.395 13.532,2.337 13.474 C 2.300 13.437,2.283 13.387,2.299 13.362 C 2.332 13.308,2.447 13.321,2.466 13.380 M4.996 19.081 C 4.761 19.120,4.618 19.195,4.430 19.378 C 4.208 19.594,4.110 19.813,4.089 20.146 C 4.073 20.389,4.085 20.463,4.168 20.646 C 4.365 21.075,4.751 21.325,5.216 21.325 C 5.856 21.325,6.332 20.846,6.332 20.201 C 6.331 19.474,5.719 18.961,4.996 19.081 M18.574 19.083 C 18.027 19.187,17.663 19.645,17.666 20.225 C 17.668 20.653,17.851 20.964,18.235 21.190 C 18.501 21.347,18.954 21.365,19.246 21.232 C 19.495 21.118,19.687 20.939,19.811 20.705 C 19.938 20.467,19.937 19.932,19.810 19.692 C 19.567 19.235,19.067 18.988,18.574 19.083 M5.267 20.141 C 5.314 20.189,5.317 20.215,5.281 20.259 C 5.222 20.330,5.120 20.294,5.120 20.202 C 5.120 20.075,5.177 20.052,5.267 20.141 M18.867 20.143 C 18.880 20.178,18.864 20.233,18.832 20.265 C 18.780 20.317,18.767 20.316,18.721 20.261 C 18.651 20.177,18.700 20.135,18.789 20.202 C 18.850 20.248,18.853 20.248,18.810 20.200 C 18.782 20.169,18.760 20.130,18.760 20.112 C 18.760 20.055,18.842 20.078,18.867 20.143 " stroke="none" fill-rule="evenodd" fill="black"></path></svg>