<svg width="24" height="24" viewBox="0 0 24 24" fill="none" xmlns="http://www.w3.org/2000/svg"><path d="M11.740 1.284 C 11.099 1.341,10.415 1.584,9.880 1.942 C 9.537 2.173,9.068 2.657,8.866 2.990 L 8.714 3.240 7.647 3.241 C 5.563 3.242,4.758 3.359,3.815 3.798 C 2.541 4.392,1.692 5.546,1.383 7.100 C 1.271 7.665,1.241 8.524,1.241 11.200 C 1.241 14.479,1.275 15.031,1.528 15.900 C 1.650 16.318,1.962 16.942,2.229 17.302 C 3.060 18.418,4.266 19.001,5.984 19.118 C 6.312 19.141,7.403 19.159,8.410 19.159 L 10.240 19.160 10.240 20.198 L 10.240 21.236 8.710 21.248 L 7.180 21.260 7.027 21.355 C 6.785 21.506,6.667 21.718,6.667 22.003 C 6.667 22.203,6.686 22.270,6.783 22.408 C 6.847 22.499,6.972 22.610,7.060 22.656 C 7.218 22.739,7.256 22.740,10.879 22.751 C 13.454 22.759,14.601 22.749,14.752 22.717 C 15.322 22.599,15.533 21.893,15.122 21.482 C 14.893 21.253,14.788 21.240,13.182 21.240 L 11.760 21.240 11.760 20.200 L 11.760 19.160 13.590 19.159 C 16.095 19.159,16.785 19.103,17.610 18.834 C 19.211 18.313,20.265 17.075,20.617 15.300 C 20.696 14.902,20.759 14.000,20.759 13.253 L 20.760 12.686 21.008 12.535 C 21.145 12.452,21.390 12.257,21.554 12.102 C 22.232 11.458,22.630 10.599,22.720 9.584 C 22.772 9.001,22.771 5.430,22.719 4.840 C 22.696 4.587,22.640 4.236,22.594 4.060 C 22.312 2.991,21.604 2.132,20.620 1.661 C 20.163 1.442,19.741 1.333,19.160 1.281 C 18.615 1.233,12.275 1.235,11.740 1.284 M19.492 2.838 C 19.972 2.961,20.225 3.103,20.561 3.439 C 20.897 3.775,21.039 4.028,21.162 4.508 C 21.235 4.793,21.240 4.963,21.239 7.176 C 21.239 9.106,21.228 9.591,21.180 9.819 C 21.035 10.503,20.604 11.077,20.025 11.359 C 19.494 11.618,19.298 11.640,17.560 11.640 C 16.358 11.640,16.010 11.652,15.906 11.695 C 15.833 11.725,15.151 12.166,14.389 12.674 L 13.005 13.597 12.992 12.861 C 12.979 12.044,12.976 12.035,12.671 11.789 C 12.542 11.684,12.487 11.669,12.094 11.637 C 11.296 11.572,10.870 11.399,10.430 10.959 C 10.237 10.766,10.120 10.603,10.019 10.392 C 9.764 9.854,9.755 9.736,9.770 7.054 C 9.786 4.439,9.780 4.502,10.030 3.967 C 10.188 3.629,10.634 3.197,11.008 3.019 C 11.553 2.760,11.442 2.767,15.504 2.763 C 19.029 2.760,19.200 2.763,19.492 2.838 M8.260 7.230 C 8.260 9.944,8.264 10.004,8.503 10.674 C 8.792 11.488,9.344 12.161,10.086 12.605 C 10.381 12.782,11.003 13.018,11.285 13.060 L 11.469 13.087 11.490 13.600 C 11.507 14.035,11.525 14.145,11.612 14.333 C 11.754 14.643,12.001 14.896,12.314 15.050 C 12.548 15.165,12.615 15.180,12.899 15.178 C 13.156 15.176,13.265 15.155,13.445 15.072 C 13.569 15.015,14.277 14.563,15.019 14.066 L 16.368 13.164 17.804 13.152 L 19.240 13.140 19.239 13.800 C 19.239 14.163,19.220 14.586,19.198 14.740 C 18.981 16.256,18.236 17.124,16.820 17.511 L 16.420 17.620 11.000 17.620 L 5.580 17.620 5.180 17.511 C 3.754 17.121,3.000 16.234,2.799 14.705 C 2.770 14.489,2.760 13.241,2.769 10.980 L 2.782 7.580 2.890 7.180 C 2.950 6.960,3.083 6.609,3.186 6.401 C 3.538 5.686,4.168 5.185,5.024 4.941 C 5.561 4.787,5.758 4.770,7.060 4.765 L 8.260 4.760 8.260 7.230 M12.579 6.576 C 12.409 6.650,12.209 6.892,12.177 7.062 C 12.110 7.422,12.270 7.770,12.570 7.915 C 13.144 8.193,13.744 7.707,13.623 7.062 C 13.590 6.888,13.388 6.648,13.212 6.574 C 13.049 6.506,12.737 6.507,12.579 6.576 M15.379 6.576 C 15.209 6.650,15.009 6.892,14.977 7.062 C 14.910 7.422,15.070 7.770,15.370 7.915 C 15.944 8.193,16.544 7.707,16.423 7.062 C 16.390 6.888,16.188 6.648,16.012 6.574 C 15.849 6.506,15.537 6.507,15.379 6.576 M18.179 6.576 C 18.009 6.650,17.809 6.892,17.777 7.062 C 17.710 7.422,17.870 7.770,18.170 7.915 C 18.744 8.193,19.344 7.707,19.223 7.062 C 19.190 6.888,18.988 6.648,18.812 6.574 C 18.649 6.506,18.337 6.507,18.179 6.576 " stroke="none" fill-rule="evenodd" fill="black"></path></svg>