<svg width="24" height="24" viewBox="0 0 24 24" fill="none" xmlns="http://www.w3.org/2000/svg"><path d="M1.815 1.277 C 1.638 1.321,1.461 1.456,1.353 1.631 L 1.260 1.780 1.249 10.340 C 1.241 15.940,1.252 19.043,1.278 19.312 C 1.334 19.872,1.410 20.149,1.639 20.620 C 2.046 21.460,2.597 22.001,3.452 22.400 C 3.851 22.587,4.152 22.667,4.645 22.719 C 5.196 22.777,21.891 22.774,22.162 22.716 C 22.904 22.557,22.924 21.471,22.189 21.286 C 22.052 21.252,19.773 21.240,13.331 21.240 C 3.765 21.240,4.455 21.258,3.943 20.990 C 3.629 20.825,3.175 20.371,3.010 20.057 C 2.742 19.545,2.760 20.234,2.759 10.682 C 2.758 4.873,2.744 1.961,2.717 1.841 C 2.623 1.432,2.215 1.177,1.815 1.277 M20.793 6.287 C 20.712 6.309,20.583 6.384,20.506 6.453 C 20.429 6.523,19.342 7.777,18.089 9.240 C 16.836 10.703,15.759 11.949,15.696 12.008 C 15.501 12.190,15.214 12.294,14.900 12.297 C 14.419 12.302,14.314 12.239,13.540 11.482 C 13.166 11.116,12.774 10.758,12.669 10.686 C 11.654 9.990,10.222 10.060,9.342 10.847 C 9.101 11.062,4.559 16.328,4.367 16.615 C 4.159 16.925,4.261 17.383,4.591 17.615 C 4.789 17.756,5.095 17.776,5.327 17.664 C 5.435 17.612,6.066 16.903,7.706 14.987 C 10.192 12.084,10.318 11.943,10.529 11.836 C 10.897 11.648,11.395 11.655,11.720 11.852 C 11.797 11.899,12.184 12.253,12.580 12.639 C 13.220 13.264,13.338 13.360,13.640 13.512 C 14.041 13.713,14.412 13.799,14.880 13.799 C 15.581 13.799,16.227 13.556,16.696 13.118 C 16.953 12.878,21.516 7.574,21.656 7.354 C 21.761 7.188,21.761 6.863,21.655 6.659 C 21.499 6.357,21.126 6.196,20.793 6.287 " stroke="none" fill-rule="evenodd" fill="black"></path></svg>