<svg width="24" height="24" viewBox="0 0 24 24" fill="none" xmlns="http://www.w3.org/2000/svg"><path d="M7.060 1.444 C 5.870 1.596,4.922 2.231,4.350 3.261 C 4.142 3.635,1.527 9.521,1.416 9.864 C 1.366 10.020,1.304 10.337,1.278 10.568 C 1.168 11.541,1.471 12.729,2.010 13.446 C 2.271 13.793,9.217 21.414,9.453 21.613 C 9.901 21.989,10.389 22.255,10.948 22.428 C 11.272 22.527,11.355 22.536,12.000 22.538 C 12.575 22.539,12.746 22.525,12.960 22.463 C 13.617 22.269,14.146 21.982,14.595 21.576 C 14.862 21.333,21.662 13.858,21.942 13.498 C 22.449 12.848,22.732 11.938,22.732 10.960 C 22.731 10.142,22.725 10.125,21.234 6.766 C 20.505 5.124,19.841 3.645,19.758 3.480 C 19.217 2.405,18.420 1.767,17.280 1.496 C 17.001 1.429,16.635 1.424,12.160 1.416 C 9.509 1.412,7.214 1.425,7.060 1.444 M16.980 2.957 C 17.620 3.119,18.063 3.482,18.391 4.113 C 18.540 4.399,19.598 6.730,19.788 7.190 C 19.804 7.230,18.232 7.240,12.004 7.240 C 7.712 7.240,4.200 7.233,4.200 7.224 C 4.200 7.150,5.632 4.015,5.741 3.851 C 6.119 3.282,6.595 3.001,7.316 2.922 C 7.483 2.904,9.681 2.893,12.200 2.897 C 15.743 2.904,16.825 2.918,16.980 2.957 M20.806 9.484 C 21.206 10.385,21.256 10.576,21.229 11.120 C 21.194 11.822,21.000 12.331,20.598 12.775 C 20.476 12.910,18.966 14.577,17.243 16.480 C 15.519 18.383,13.963 20.090,13.785 20.272 C 13.241 20.829,12.821 21.031,12.140 21.067 C 11.517 21.100,11.066 20.964,10.571 20.595 C 10.416 20.479,5.222 14.820,3.344 12.719 C 2.975 12.307,2.759 11.672,2.761 11.004 C 2.762 10.793,2.781 10.539,2.803 10.440 C 2.839 10.287,3.290 9.217,3.466 8.870 L 3.522 8.760 12.008 8.770 L 20.494 8.780 20.806 9.484 " stroke="none" fill-rule="evenodd" fill="black"></path></svg>