<svg width="24" height="24" viewBox="0 0 24 24" fill="none" xmlns="http://www.w3.org/2000/svg"><path d="M8.080 1.282 C 4.008 1.495,1.895 3.296,1.383 6.991 C 1.270 7.803,1.242 8.816,1.242 12.000 C 1.242 16.504,1.302 17.273,1.760 18.650 C 2.532 20.963,4.206 22.226,7.027 22.622 C 7.786 22.728,8.902 22.759,12.000 22.759 C 15.098 22.759,16.214 22.728,16.973 22.622 C 19.443 22.275,20.996 21.288,21.897 19.490 C 22.379 18.530,22.638 17.369,22.720 15.807 C 22.775 14.752,22.772 10.101,22.716 9.838 C 22.575 9.182,21.713 9.051,21.353 9.631 C 21.262 9.777,21.260 9.804,21.247 11.010 L 21.235 12.240 19.647 12.241 C 17.602 12.243,17.347 12.286,16.686 12.738 C 16.180 13.083,16.000 13.336,15.359 14.605 C 15.049 15.220,14.743 15.782,14.680 15.854 C 14.617 15.926,14.470 16.037,14.353 16.102 L 14.140 16.220 12.064 16.231 C 9.730 16.244,9.755 16.247,9.425 15.956 C 9.269 15.819,9.160 15.632,8.663 14.648 C 8.045 13.424,7.832 13.104,7.455 12.836 C 6.972 12.492,6.596 12.343,6.052 12.281 C 5.858 12.259,5.037 12.241,4.227 12.240 L 2.754 12.240 2.770 9.930 C 2.784 8.010,2.799 7.549,2.855 7.200 C 3.300 4.441,4.439 3.303,7.200 2.855 C 7.561 2.796,8.078 2.783,10.900 2.763 C 14.010 2.741,14.188 2.736,14.332 2.664 C 14.928 2.368,14.832 1.448,14.189 1.286 C 13.979 1.234,9.077 1.230,8.080 1.282 M18.740 1.266 C 17.415 1.385,16.327 2.085,15.719 3.212 C 15.400 3.803,15.271 4.320,15.271 5.000 C 15.271 5.682,15.400 6.197,15.721 6.792 C 16.078 7.453,16.549 7.923,17.212 8.281 C 17.803 8.600,18.320 8.729,19.000 8.729 C 19.680 8.729,20.197 8.600,20.788 8.281 C 21.451 7.923,21.922 7.453,22.279 6.792 C 22.600 6.197,22.729 5.682,22.729 5.000 C 22.729 4.320,22.600 3.803,22.281 3.212 C 21.832 2.381,21.122 1.779,20.215 1.463 C 19.793 1.316,19.149 1.230,18.740 1.266 M19.578 2.821 C 19.949 2.918,20.274 3.112,20.581 3.419 C 21.041 3.879,21.240 4.356,21.240 5.000 C 21.240 5.644,21.041 6.121,20.581 6.581 C 20.121 7.041,19.644 7.240,19.000 7.240 C 18.356 7.240,17.879 7.041,17.419 6.581 C 16.959 6.121,16.760 5.644,16.760 5.000 C 16.760 4.356,16.959 3.879,17.419 3.419 C 17.719 3.118,18.050 2.919,18.404 2.823 C 18.692 2.746,19.285 2.745,19.578 2.821 M21.229 15.050 C 21.207 16.487,21.171 16.838,20.960 17.688 C 20.504 19.519,19.520 20.504,17.688 20.960 C 16.622 21.226,16.745 21.220,12.000 21.220 C 7.255 21.220,7.378 21.226,6.312 20.960 C 4.228 20.441,3.240 19.251,2.857 16.800 C 2.811 16.503,2.785 15.997,2.771 15.068 L 2.751 13.757 4.445 13.768 L 6.140 13.780 6.353 13.898 C 6.470 13.963,6.619 14.076,6.684 14.151 C 6.749 14.225,7.028 14.737,7.304 15.289 C 7.580 15.840,7.878 16.406,7.966 16.545 C 8.183 16.889,8.612 17.277,8.969 17.453 C 9.520 17.725,9.567 17.730,11.693 17.749 C 14.121 17.771,14.511 17.732,15.080 17.406 C 15.761 17.016,15.941 16.784,16.644 15.390 C 16.951 14.779,17.255 14.220,17.319 14.148 C 17.461 13.986,17.780 13.808,18.009 13.762 C 18.103 13.744,18.871 13.727,19.715 13.724 L 21.249 13.720 21.229 15.050 " stroke="none" fill-rule="evenodd" fill="black"></path></svg>