<svg width="24" height="24" viewBox="0 0 24 24" fill="none" xmlns="http://www.w3.org/2000/svg"><path d="M11.815 1.277 C 11.638 1.321,11.461 1.456,11.353 1.631 L 11.260 1.780 11.249 4.476 L 11.237 7.173 10.829 6.772 C 10.604 6.552,10.375 6.348,10.320 6.319 C 10.155 6.232,9.794 6.253,9.623 6.358 C 9.389 6.503,9.267 6.721,9.267 6.992 C 9.267 7.118,9.290 7.265,9.318 7.320 C 9.413 7.504,11.529 9.604,11.700 9.684 C 11.903 9.778,12.097 9.778,12.300 9.684 C 12.404 9.635,12.845 9.221,13.565 8.495 C 14.607 7.445,14.673 7.369,14.711 7.189 C 14.817 6.682,14.499 6.267,14.004 6.267 C 13.881 6.267,13.735 6.290,13.680 6.319 C 13.625 6.348,13.396 6.552,13.170 6.773 L 12.760 7.175 12.759 4.598 C 12.758 2.972,12.743 1.954,12.717 1.841 C 12.623 1.432,12.215 1.177,11.815 1.277 M6.280 3.507 C 5.345 3.709,4.576 4.019,3.880 4.472 C 3.455 4.749,2.765 5.432,2.481 5.856 C 2.066 6.476,1.735 7.289,1.539 8.167 C 1.300 9.240,1.241 10.217,1.241 13.120 C 1.242 16.404,1.332 17.363,1.760 18.650 C 2.367 20.469,3.531 21.632,5.356 22.242 C 6.191 22.521,6.998 22.657,8.193 22.720 C 9.162 22.771,14.838 22.771,15.807 22.720 C 17.002 22.657,17.809 22.521,18.644 22.242 C 20.966 21.466,22.225 19.797,22.622 16.973 C 22.720 16.274,22.759 15.158,22.759 13.080 C 22.758 9.865,22.684 8.920,22.331 7.660 C 22.032 6.593,21.597 5.829,20.884 5.117 C 20.059 4.294,19.071 3.794,17.689 3.503 C 16.912 3.340,16.644 3.377,16.404 3.685 C 16.320 3.793,16.229 4.116,16.257 4.208 C 16.266 4.236,16.284 4.308,16.297 4.367 C 16.326 4.501,16.495 4.705,16.638 4.779 C 16.698 4.810,16.979 4.882,17.264 4.940 C 19.322 5.356,20.410 6.313,20.922 8.158 C 21.148 8.971,21.205 9.488,21.229 10.930 L 21.250 12.240 19.455 12.241 C 18.468 12.241,17.534 12.259,17.380 12.281 C 17.005 12.334,16.632 12.521,16.373 12.786 C 16.196 12.967,16.066 13.196,15.482 14.359 C 15.106 15.107,14.746 15.779,14.682 15.852 C 14.618 15.925,14.470 16.037,14.353 16.102 L 14.140 16.220 12.075 16.231 C 10.062 16.242,10.005 16.241,9.786 16.159 C 9.367 16.002,9.282 15.881,8.518 14.356 C 7.912 13.149,7.804 12.959,7.616 12.771 C 7.363 12.518,7.010 12.341,6.640 12.282 C 6.489 12.258,5.622 12.240,4.565 12.240 L 2.750 12.240 2.772 10.930 C 2.796 9.535,2.836 9.123,3.024 8.360 C 3.266 7.382,3.610 6.717,4.152 6.185 C 4.806 5.542,5.565 5.177,6.736 4.940 C 7.021 4.882,7.300 4.811,7.356 4.781 C 7.714 4.595,7.842 4.128,7.636 3.762 C 7.426 3.387,7.108 3.327,6.280 3.507 M7.220 15.115 C 7.594 15.849,7.973 16.547,8.063 16.666 C 8.294 16.972,8.647 17.259,9.020 17.442 C 9.612 17.733,9.601 17.732,11.713 17.750 C 14.118 17.771,14.510 17.731,15.080 17.407 C 15.771 17.013,15.908 16.829,16.760 15.155 L 17.460 13.780 19.355 13.770 L 21.249 13.759 21.229 15.070 C 21.207 16.486,21.170 16.842,20.960 17.688 C 20.416 19.876,19.084 20.897,16.403 21.182 C 15.611 21.266,8.389 21.266,7.597 21.182 C 4.902 20.895,3.563 19.858,3.025 17.640 C 2.830 16.837,2.793 16.461,2.771 15.070 L 2.751 13.759 4.645 13.770 L 6.540 13.780 7.220 15.115 " stroke="none" fill-rule="evenodd" fill="black"></path></svg>