<svg width="24" height="24" viewBox="0 0 24 24" fill="none" xmlns="http://www.w3.org/2000/svg"><path d="M5.878 1.966 C 4.978 2.035,4.194 2.390,3.505 3.042 C 2.385 4.102,1.984 5.625,2.445 7.067 C 2.517 7.294,2.911 8.135,3.475 9.267 C 3.977 10.275,4.422 11.199,4.463 11.320 C 4.571 11.630,4.571 12.370,4.463 12.680 C 4.422 12.801,3.977 13.725,3.475 14.733 C 2.911 15.865,2.517 16.706,2.445 16.933 C 2.009 18.297,2.344 19.738,3.340 20.794 C 4.072 21.570,4.966 21.983,6.013 22.029 C 6.717 22.060,7.145 21.984,7.764 21.717 C 8.198 21.529,19.759 15.431,20.040 15.241 C 20.882 14.673,21.473 13.760,21.681 12.706 C 21.741 12.404,21.741 11.596,21.681 11.294 C 21.473 10.240,20.882 9.327,20.040 8.759 C 19.805 8.600,8.298 2.520,7.848 2.317 C 7.184 2.017,6.592 1.912,5.878 1.966 M6.965 3.568 C 7.259 3.677,18.858 9.769,19.188 9.988 C 19.647 10.291,20.035 10.852,20.179 11.418 C 20.213 11.550,20.240 11.811,20.240 12.000 C 20.240 12.189,20.213 12.450,20.179 12.582 C 20.035 13.149,19.646 13.710,19.188 14.012 C 19.074 14.087,16.307 15.555,13.040 17.274 C 6.641 20.640,6.806 20.561,6.204 20.559 C 5.566 20.558,4.986 20.307,4.498 19.821 C 3.988 19.313,3.762 18.788,3.761 18.108 C 3.760 17.569,3.829 17.393,4.859 15.321 C 5.998 13.030,6.020 12.967,6.020 12.000 C 6.020 11.033,5.998 10.970,4.859 8.679 C 3.829 6.607,3.760 6.431,3.761 5.892 C 3.762 5.212,3.988 4.686,4.498 4.180 C 4.855 3.825,5.112 3.668,5.560 3.531 C 5.969 3.406,6.572 3.422,6.965 3.568 " stroke="none" fill-rule="evenodd" fill="black"></path></svg>