<svg width="24" height="24" viewBox="0 0 24 24" fill="none" xmlns="http://www.w3.org/2000/svg"><path d="M5.420 2.284 C 3.805 2.501,2.453 3.696,2.064 5.250 C 1.868 6.033,1.933 6.941,2.240 7.677 C 2.405 8.074,8.557 19.741,8.759 20.040 C 9.328 20.882,10.240 21.473,11.295 21.681 C 11.625 21.746,12.443 21.737,12.780 21.664 C 13.814 21.441,14.680 20.870,15.241 20.040 C 15.537 19.603,21.679 7.899,21.822 7.500 C 22.003 6.995,22.056 6.617,22.029 6.009 C 21.983 4.955,21.564 4.060,20.772 3.320 C 20.028 2.625,19.135 2.271,18.120 2.268 C 17.235 2.266,16.973 2.359,14.724 3.479 C 13.721 3.979,12.801 4.422,12.680 4.463 C 12.371 4.570,11.631 4.571,11.320 4.464 C 11.199 4.422,10.335 4.007,9.400 3.540 C 7.587 2.635,7.138 2.436,6.698 2.344 C 6.316 2.265,5.756 2.238,5.420 2.284 M6.462 3.820 C 6.598 3.855,7.548 4.299,8.680 4.858 C 11.022 6.015,11.037 6.020,12.000 6.020 C 12.963 6.020,12.978 6.015,15.320 4.858 C 16.452 4.299,17.402 3.855,17.538 3.820 C 17.849 3.742,18.384 3.743,18.694 3.823 C 19.337 3.989,19.998 4.528,20.292 5.125 C 20.583 5.717,20.632 6.365,20.431 6.945 C 20.329 7.236,14.262 18.808,14.012 19.188 C 13.710 19.646,13.149 20.035,12.582 20.179 C 12.276 20.257,11.724 20.257,11.418 20.179 C 10.852 20.035,10.291 19.647,9.988 19.188 C 9.740 18.814,3.675 7.250,3.570 6.951 C 3.364 6.368,3.415 5.701,3.710 5.111 C 3.993 4.545,4.638 4.014,5.260 3.835 C 5.564 3.747,6.145 3.740,6.462 3.820 " stroke="none" fill-rule="evenodd" fill="black"></path></svg>