<svg width="24" height="24" viewBox="0 0 24 24" fill="none" xmlns="http://www.w3.org/2000/svg"><path d="M8.212 1.282 C 5.792 1.445,4.643 2.355,4.318 4.366 C 4.285 4.570,4.264 5.738,4.251 8.171 L 4.232 11.683 4.026 11.787 C 3.040 12.286,2.500 13.110,2.322 14.386 C 2.199 15.263,2.239 18.492,2.382 19.297 C 2.537 20.173,2.869 20.866,3.380 21.383 C 4.201 22.215,5.342 22.610,7.235 22.720 C 8.125 22.772,15.715 22.770,16.574 22.718 C 18.252 22.617,19.438 22.166,20.302 21.302 C 20.790 20.814,21.128 20.251,21.374 19.516 C 21.574 18.917,21.672 18.352,21.724 17.492 C 21.774 16.673,21.746 14.873,21.676 14.370 C 21.501 13.112,20.955 12.283,19.974 11.787 L 19.768 11.683 19.749 8.171 C 19.736 5.738,19.715 4.570,19.682 4.366 C 19.464 3.017,18.915 2.224,17.862 1.737 C 17.317 1.485,16.657 1.345,15.717 1.281 C 15.056 1.235,8.887 1.236,8.212 1.282 M16.025 2.803 C 17.010 2.912,17.659 3.216,17.942 3.700 C 17.996 3.792,18.080 4.009,18.129 4.183 C 18.217 4.498,18.218 4.526,18.231 7.913 L 18.243 11.326 18.012 11.296 C 17.884 11.280,17.474 11.268,17.100 11.269 C 15.676 11.274,15.257 11.475,14.027 12.743 C 13.370 13.422,13.289 13.491,12.987 13.640 C 12.224 14.016,11.337 13.934,10.645 13.423 C 10.543 13.348,10.201 13.006,9.884 12.664 C 9.090 11.807,8.594 11.475,7.897 11.335 C 7.554 11.266,6.406 11.243,5.988 11.296 L 5.757 11.326 5.769 7.913 C 5.782 4.526,5.783 4.498,5.871 4.183 C 5.979 3.799,6.102 3.582,6.323 3.382 C 6.630 3.104,7.243 2.883,7.920 2.805 C 8.370 2.753,15.562 2.751,16.025 2.803 M9.440 5.544 C 9.143 5.673,8.989 5.906,8.989 6.226 C 8.989 6.493,9.131 6.747,9.352 6.870 L 9.511 6.960 12.222 6.960 L 14.933 6.960 15.097 6.864 C 15.507 6.624,15.578 6.014,15.233 5.692 C 15.002 5.476,15.053 5.480,12.211 5.482 C 9.952 5.483,9.560 5.492,9.440 5.544 M10.325 8.509 C 10.272 8.519,10.143 8.613,10.038 8.718 C 9.882 8.874,9.841 8.945,9.818 9.099 C 9.767 9.439,9.912 9.733,10.202 9.881 C 10.350 9.956,10.445 9.960,12.223 9.960 C 14.081 9.960,14.090 9.960,14.248 9.870 C 14.664 9.637,14.740 9.016,14.393 8.692 C 14.169 8.482,14.140 8.480,12.211 8.485 C 11.226 8.488,10.377 8.499,10.325 8.509 M7.900 12.899 C 8.084 12.991,8.252 13.135,8.619 13.519 C 9.785 14.738,10.077 14.948,10.994 15.229 C 11.308 15.325,11.400 15.334,12.000 15.334 C 12.603 15.334,12.691 15.325,13.012 15.227 C 13.438 15.097,13.849 14.898,14.176 14.664 C 14.310 14.568,14.744 14.158,15.140 13.752 C 16.069 12.800,16.095 12.786,16.933 12.766 C 18.519 12.727,19.561 13.050,19.942 13.700 C 19.996 13.792,20.080 14.009,20.129 14.183 C 20.214 14.487,20.217 14.568,20.219 16.220 C 20.220 18.050,20.209 18.200,20.013 18.877 C 19.639 20.178,18.802 20.863,17.220 21.166 C 16.995 21.209,15.944 21.220,11.880 21.220 C 7.183 21.220,6.789 21.215,6.391 21.148 C 5.440 20.987,4.854 20.744,4.460 20.344 C 4.187 20.067,4.032 19.779,3.917 19.328 C 3.778 18.790,3.754 18.290,3.770 16.351 C 3.784 14.595,3.789 14.484,3.872 14.183 C 4.025 13.633,4.265 13.336,4.736 13.116 C 5.285 12.859,5.899 12.764,6.940 12.773 C 7.653 12.780,7.662 12.781,7.900 12.899 " stroke="none" fill-rule="evenodd" fill="black"></path></svg>