<svg width="24" height="24" viewBox="0 0 24 24" fill="none" xmlns="http://www.w3.org/2000/svg"><path d="M8.080 1.282 C 4.008 1.495,1.895 3.296,1.383 6.991 C 1.270 7.803,1.242 8.816,1.242 12.000 C 1.242 16.504,1.302 17.273,1.760 18.650 C 2.532 20.963,4.206 22.226,7.027 22.622 C 7.786 22.728,8.902 22.759,12.000 22.759 C 15.098 22.759,16.214 22.728,16.973 22.622 C 19.443 22.275,20.996 21.288,21.897 19.490 C 22.379 18.530,22.638 17.369,22.720 15.807 C 22.771 14.838,22.771 9.162,22.720 8.193 C 22.657 6.998,22.521 6.191,22.242 5.356 C 21.632 3.531,20.469 2.367,18.650 1.760 C 17.788 1.473,17.023 1.344,15.806 1.280 C 14.952 1.235,8.952 1.237,8.080 1.282 M16.800 2.854 C 19.574 3.314,20.695 4.436,21.145 7.200 C 21.202 7.551,21.216 8.001,21.230 9.930 L 21.246 12.240 19.653 12.241 C 17.601 12.243,17.348 12.286,16.686 12.738 C 16.180 13.083,16.000 13.336,15.359 14.605 C 15.049 15.220,14.743 15.782,14.680 15.854 C 14.617 15.926,14.470 16.037,14.353 16.102 L 14.140 16.220 12.055 16.231 C 10.031 16.242,9.964 16.240,9.749 16.160 C 9.369 16.018,9.227 15.822,8.638 14.630 C 8.353 14.052,8.041 13.475,7.944 13.347 C 7.702 13.025,7.359 12.744,6.980 12.558 C 6.397 12.271,6.379 12.269,4.467 12.250 L 2.754 12.233 2.771 9.926 C 2.789 7.443,2.800 7.288,3.025 6.360 C 3.521 4.315,4.702 3.277,6.960 2.900 C 7.690 2.777,8.048 2.769,12.200 2.777 C 15.963 2.784,16.422 2.791,16.800 2.854 M21.229 15.050 C 21.207 16.487,21.171 16.838,20.960 17.688 C 20.504 19.519,19.520 20.504,17.688 20.960 C 16.622 21.226,16.745 21.220,12.000 21.220 C 7.255 21.220,7.378 21.226,6.312 20.960 C 4.228 20.441,3.240 19.251,2.857 16.800 C 2.811 16.503,2.785 15.997,2.771 15.070 L 2.751 13.760 4.374 13.760 C 6.671 13.760,6.485 13.656,7.383 15.445 L 7.972 16.619 8.316 16.961 C 8.575 17.219,8.734 17.339,8.960 17.450 C 9.523 17.726,9.563 17.730,11.693 17.749 C 14.121 17.771,14.511 17.732,15.080 17.406 C 15.761 17.016,15.941 16.784,16.644 15.390 C 16.951 14.779,17.255 14.220,17.319 14.148 C 17.461 13.986,17.780 13.808,18.009 13.762 C 18.103 13.744,18.871 13.727,19.715 13.724 L 21.249 13.720 21.229 15.050 " stroke="none" fill-rule="evenodd" fill="black"></path></svg>