<svg width="24" height="24" viewBox="0 0 24 24" fill="none" xmlns="http://www.w3.org/2000/svg"><path d="M11.700 1.316 C 11.529 1.396,9.413 3.496,9.318 3.680 C 9.290 3.735,9.267 3.881,9.267 4.004 C 9.267 4.498,9.683 4.818,10.186 4.711 C 10.351 4.675,10.432 4.615,10.807 4.250 L 11.237 3.830 11.249 6.525 L 11.260 9.220 11.353 9.369 C 11.710 9.943,12.576 9.812,12.716 9.162 C 12.745 9.024,12.760 8.113,12.760 6.392 L 12.760 3.827 13.192 4.249 C 13.567 4.614,13.649 4.675,13.812 4.710 C 14.388 4.833,14.832 4.389,14.711 3.810 C 14.673 3.632,14.604 3.552,13.565 2.505 C 12.845 1.779,12.404 1.365,12.300 1.316 C 12.097 1.222,11.903 1.222,11.700 1.316 M6.280 4.507 C 4.914 4.803,3.932 5.302,3.116 6.117 C 2.637 6.595,2.357 6.989,2.076 7.576 C 1.421 8.950,1.241 10.250,1.241 13.620 C 1.242 16.365,1.350 17.420,1.760 18.650 C 2.367 20.469,3.531 21.632,5.356 22.242 C 6.191 22.521,6.998 22.657,8.193 22.720 C 9.162 22.771,14.838 22.771,15.807 22.720 C 17.002 22.657,17.809 22.521,18.644 22.242 C 20.966 21.466,22.225 19.797,22.622 16.973 C 22.809 15.639,22.808 11.419,22.620 10.060 C 22.436 8.728,22.078 7.692,21.508 6.840 C 21.234 6.431,20.538 5.745,20.120 5.472 C 19.412 5.011,18.642 4.704,17.689 4.503 C 16.912 4.340,16.644 4.377,16.404 4.685 C 16.320 4.793,16.229 5.116,16.257 5.208 C 16.266 5.236,16.284 5.308,16.297 5.367 C 16.326 5.501,16.495 5.705,16.638 5.779 C 16.698 5.810,16.979 5.882,17.264 5.940 C 19.987 6.490,21.124 8.065,21.227 11.430 L 21.252 12.240 19.456 12.241 C 18.468 12.241,17.534 12.259,17.380 12.281 C 17.005 12.334,16.632 12.521,16.373 12.786 C 16.196 12.967,16.066 13.196,15.482 14.359 C 15.106 15.107,14.746 15.779,14.682 15.852 C 14.618 15.925,14.470 16.037,14.353 16.102 L 14.140 16.220 12.075 16.231 C 10.062 16.242,10.005 16.241,9.786 16.159 C 9.367 16.002,9.282 15.881,8.518 14.356 C 7.912 13.149,7.804 12.959,7.616 12.771 C 7.363 12.518,7.010 12.341,6.640 12.282 C 6.489 12.258,5.622 12.240,4.564 12.240 L 2.748 12.240 2.772 11.450 C 2.799 10.554,2.876 9.939,3.041 9.298 C 3.288 8.336,3.617 7.711,4.152 7.185 C 4.806 6.542,5.565 6.177,6.736 5.940 C 7.021 5.882,7.300 5.811,7.356 5.781 C 7.714 5.595,7.842 5.128,7.636 4.762 C 7.426 4.387,7.108 4.327,6.280 4.507 M7.220 15.115 C 7.594 15.849,7.973 16.547,8.063 16.666 C 8.294 16.972,8.647 17.259,9.020 17.442 C 9.612 17.733,9.601 17.732,11.713 17.750 C 14.118 17.771,14.510 17.731,15.080 17.407 C 15.771 17.013,15.908 16.829,16.760 15.155 L 17.460 13.780 19.355 13.770 L 21.249 13.759 21.229 15.070 C 21.207 16.486,21.170 16.842,20.960 17.688 C 20.416 19.876,19.084 20.897,16.403 21.182 C 15.611 21.266,8.389 21.266,7.597 21.182 C 4.902 20.895,3.563 19.858,3.025 17.640 C 2.830 16.837,2.793 16.461,2.771 15.070 L 2.751 13.759 4.645 13.770 L 6.540 13.780 7.220 15.115 " stroke="none" fill-rule="evenodd" fill="black"></path></svg>