<svg width="24" height="24" viewBox="0 0 24 24" fill="none" xmlns="http://www.w3.org/2000/svg"><path d="M17.580 1.950 C 17.144 1.971,16.711 2.079,16.236 2.283 C 15.845 2.452,4.253 8.561,3.977 8.743 C 3.140 9.297,2.527 10.240,2.319 11.294 C 2.219 11.797,2.268 12.629,2.427 13.140 C 2.698 14.011,3.242 14.756,3.960 15.241 C 4.241 15.431,15.802 21.529,16.236 21.717 C 16.855 21.984,17.283 22.060,17.987 22.029 C 19.034 21.983,19.928 21.570,20.660 20.794 C 21.460 19.946,21.858 18.782,21.721 17.687 C 21.639 17.036,21.498 16.686,20.525 14.733 C 20.023 13.725,19.578 12.801,19.537 12.680 C 19.479 12.513,19.461 12.348,19.461 12.000 C 19.461 11.652,19.479 11.487,19.537 11.320 C 19.578 11.199,20.023 10.275,20.525 9.267 C 21.498 7.314,21.639 6.964,21.721 6.313 C 21.802 5.664,21.675 4.889,21.383 4.258 C 20.987 3.401,20.144 2.589,19.289 2.241 C 18.780 2.034,18.129 1.923,17.580 1.950 M18.401 3.523 C 18.851 3.648,19.141 3.820,19.502 4.180 C 20.012 4.686,20.238 5.212,20.239 5.892 C 20.240 6.431,20.170 6.609,19.156 8.647 C 18.215 10.539,18.120 10.759,18.015 11.300 C 17.907 11.854,17.954 12.592,18.138 13.213 C 18.176 13.341,18.634 14.304,19.156 15.353 C 19.781 16.609,20.128 17.352,20.173 17.528 C 20.256 17.860,20.258 18.337,20.179 18.676 C 19.976 19.533,19.196 20.292,18.300 20.502 C 17.930 20.589,17.436 20.562,17.060 20.435 C 16.776 20.339,5.195 14.266,4.812 14.012 C 4.353 13.709,3.965 13.148,3.821 12.582 C 3.743 12.276,3.743 11.724,3.821 11.418 C 3.965 10.852,4.353 10.291,4.812 9.988 C 5.021 9.850,16.215 3.944,16.740 3.695 C 17.307 3.426,17.848 3.370,18.401 3.523 " stroke="none" fill-rule="evenodd" fill="black"></path></svg>