<svg width="24" height="24" viewBox="0 0 24 24" fill="none" xmlns="http://www.w3.org/2000/svg"><path d="M11.740 2.268 C 10.567 2.334,9.384 3.009,8.743 3.977 C 8.548 4.273,2.390 15.963,2.240 16.323 C 1.856 17.246,1.856 18.343,2.241 19.289 C 2.591 20.150,3.393 20.983,4.254 21.381 C 5.054 21.751,6.015 21.839,6.853 21.620 C 7.245 21.518,7.692 21.314,9.429 20.446 C 10.348 19.987,11.199 19.578,11.320 19.536 C 11.630 19.430,12.370 19.430,12.680 19.536 C 12.801 19.578,13.665 19.993,14.600 20.460 C 16.974 21.646,17.203 21.728,18.100 21.729 C 19.134 21.730,20.020 21.382,20.772 20.680 C 21.564 19.940,21.983 19.045,22.029 17.991 C 22.056 17.383,22.003 17.005,21.822 16.500 C 21.679 16.102,15.537 4.399,15.241 3.960 C 14.482 2.835,13.144 2.189,11.740 2.268 M12.582 3.821 C 13.149 3.965,13.710 4.354,14.012 4.812 C 14.262 5.190,20.330 16.765,20.431 17.055 C 20.560 17.427,20.588 17.884,20.505 18.275 C 20.316 19.164,19.566 19.952,18.694 20.177 C 18.384 20.257,17.849 20.258,17.538 20.180 C 17.401 20.145,16.476 19.712,15.360 19.159 C 14.293 18.631,13.330 18.172,13.220 18.139 C 12.432 17.901,11.568 17.901,10.780 18.139 C 10.670 18.172,9.707 18.631,8.640 19.159 C 7.524 19.712,6.599 20.145,6.462 20.180 C 6.151 20.258,5.616 20.257,5.306 20.177 C 4.673 20.013,4.001 19.471,3.710 18.889 C 3.415 18.299,3.364 17.632,3.570 17.049 C 3.675 16.750,9.740 5.186,9.988 4.812 C 10.286 4.360,10.846 3.969,11.400 3.823 C 11.692 3.746,12.285 3.745,12.582 3.821 " stroke="none" fill-rule="evenodd" fill="black"></path></svg>