<svg width="24" height="24" viewBox="0 0 24 24" fill="none" xmlns="http://www.w3.org/2000/svg"><path d="M11.560 1.266 C 7.679 1.446,4.232 3.654,2.455 7.099 C 1.644 8.673,1.274 10.199,1.272 11.980 C 1.271 13.123,1.395 14.009,1.702 15.050 C 2.716 18.488,5.522 21.294,8.950 22.297 C 10.643 22.792,12.526 22.871,14.196 22.516 C 17.361 21.844,20.059 19.782,21.545 16.901 C 22.360 15.319,22.728 13.798,22.728 12.000 C 22.728 10.863,22.607 10.010,22.297 8.950 C 21.294 5.522,18.478 2.706,15.050 1.703 C 13.940 1.378,12.644 1.216,11.560 1.266 M13.148 2.822 C 15.227 3.094,17.028 3.984,18.522 5.478 C 19.361 6.317,19.965 7.182,20.431 8.214 C 20.982 9.433,21.240 10.640,21.240 12.000 C 21.240 13.360,20.982 14.567,20.431 15.786 C 19.965 16.818,19.361 17.683,18.522 18.522 C 17.683 19.361,16.818 19.965,15.786 20.431 C 14.567 20.982,13.360 21.240,12.000 21.240 C 10.640 21.240,9.433 20.982,8.214 20.431 C 7.182 19.965,6.317 19.361,5.478 18.522 C 3.695 16.739,2.760 14.495,2.760 12.000 C 2.760 9.505,3.695 7.261,5.478 5.478 C 6.960 3.996,8.756 3.104,10.821 2.822 C 11.380 2.746,12.569 2.746,13.148 2.822 M13.200 7.266 C 10.247 7.419,7.811 9.605,7.336 12.529 C 7.252 13.047,7.254 13.862,7.340 14.240 C 7.609 15.413,8.587 16.391,9.760 16.660 C 10.135 16.746,10.952 16.748,11.460 16.665 C 12.920 16.427,14.251 15.688,15.202 14.589 C 16.195 13.442,16.723 12.045,16.725 10.560 C 16.726 9.763,16.558 9.204,16.144 8.624 C 15.472 7.684,14.428 7.203,13.200 7.266 M14.212 8.909 C 14.574 9.080,14.919 9.425,15.091 9.788 C 15.219 10.058,15.220 10.063,15.216 10.660 C 15.212 11.168,15.196 11.318,15.110 11.640 C 14.879 12.502,14.468 13.216,13.842 13.842 C 13.216 14.468,12.502 14.879,11.640 15.110 C 11.318 15.196,11.168 15.212,10.658 15.216 L 10.057 15.220 9.755 15.071 C 9.382 14.887,9.086 14.586,8.908 14.210 C 8.781 13.942,8.780 13.936,8.784 13.340 C 8.788 12.833,8.804 12.681,8.890 12.360 C 9.312 10.777,10.474 9.516,11.982 9.005 C 12.515 8.824,12.909 8.762,13.460 8.772 C 13.908 8.780,13.958 8.789,14.212 8.909 " stroke="none" fill-rule="evenodd" fill="black"></path></svg>