<svg width="24" height="24" viewBox="0 0 24 24" fill="none" xmlns="http://www.w3.org/2000/svg"><path d="M18.193 1.259 C 17.825 1.319,7.803 3.824,7.360 3.967 C 6.142 4.359,4.836 5.526,4.211 6.780 C 4.123 6.956,4.013 7.217,3.967 7.360 C 3.872 7.654,1.405 17.474,1.294 18.000 C 1.239 18.259,1.222 18.516,1.224 19.080 C 1.225 19.750,1.235 19.857,1.330 20.208 C 1.522 20.920,1.933 21.578,2.451 22.002 C 2.772 22.264,3.407 22.575,3.840 22.681 C 4.283 22.790,5.100 22.827,5.626 22.762 C 6.127 22.699,16.457 20.124,16.877 19.956 C 18.281 19.397,19.614 17.979,20.051 16.580 C 20.161 16.229,22.590 6.549,22.706 6.000 C 22.817 5.474,22.807 4.341,22.688 3.862 C 22.365 2.575,21.433 1.638,20.156 1.317 C 19.716 1.207,18.700 1.177,18.193 1.259 M19.669 2.743 C 20.464 2.907,21.022 3.423,21.226 4.180 C 21.311 4.495,21.335 5.024,21.282 5.420 C 21.234 5.786,18.751 15.787,18.603 16.213 C 18.436 16.694,18.108 17.178,17.622 17.660 C 17.108 18.170,16.665 18.457,16.120 18.633 C 15.707 18.767,5.811 21.228,5.492 21.276 C 4.112 21.485,3.073 20.934,2.778 19.835 C 2.689 19.507,2.664 18.983,2.717 18.580 C 2.768 18.190,5.300 8.037,5.434 7.687 C 5.769 6.805,6.806 5.768,7.686 5.434 C 7.949 5.334,17.983 2.810,18.400 2.739 C 18.821 2.668,19.310 2.669,19.669 2.743 M11.169 7.841 C 9.547 8.192,8.313 9.359,7.892 10.940 C 7.796 11.297,7.785 11.412,7.785 12.000 C 7.785 12.591,7.796 12.702,7.892 13.059 C 8.297 14.558,9.444 15.706,10.941 16.107 C 11.297 16.203,11.411 16.214,12.000 16.214 C 12.589 16.214,12.703 16.203,13.059 16.107 C 14.556 15.706,15.706 14.556,16.107 13.059 C 16.203 12.703,16.214 12.589,16.214 12.000 C 16.214 11.411,16.203 11.297,16.107 10.941 C 15.705 9.443,14.547 8.286,13.059 7.895 C 12.501 7.749,11.701 7.726,11.169 7.841 M12.720 9.338 C 13.462 9.539,14.136 10.107,14.478 10.820 C 14.683 11.247,14.739 11.498,14.739 12.000 C 14.739 12.502,14.683 12.753,14.478 13.180 C 14.204 13.751,13.752 14.204,13.180 14.478 C 12.753 14.683,12.502 14.739,12.000 14.739 C 11.498 14.739,11.247 14.683,10.820 14.478 C 10.248 14.204,9.796 13.751,9.522 13.180 C 9.317 12.753,9.261 12.502,9.261 12.000 C 9.261 11.498,9.317 11.247,9.522 10.820 C 9.879 10.076,10.621 9.472,11.360 9.325 C 11.481 9.301,11.616 9.272,11.660 9.262 C 11.807 9.228,12.497 9.278,12.720 9.338 " stroke="none" fill-rule="evenodd" fill="black"></path></svg>