<svg width="24" height="24" viewBox="0 0 24 24" fill="none" xmlns="http://www.w3.org/2000/svg"><path d="M11.450 1.338 C 10.897 1.464,10.742 1.576,9.700 2.603 C 9.172 3.124,8.677 3.583,8.600 3.625 C 8.473 3.693,8.326 3.702,7.040 3.725 C 5.468 3.752,5.410 3.760,4.920 4.030 C 4.437 4.296,3.970 4.874,3.797 5.420 C 3.762 5.530,3.739 6.025,3.723 7.000 C 3.700 8.397,3.698 8.423,3.605 8.600 C 3.548 8.707,3.133 9.162,2.584 9.720 C 1.599 10.720,1.470 10.892,1.340 11.383 C 1.303 11.523,1.276 11.785,1.276 12.021 C 1.276 12.503,1.396 12.936,1.625 13.280 C 1.706 13.401,2.175 13.906,2.667 14.403 C 3.426 15.169,3.574 15.338,3.641 15.514 C 3.713 15.703,3.720 15.824,3.720 16.953 C 3.720 17.659,3.738 18.287,3.763 18.423 C 3.830 18.794,4.049 19.205,4.345 19.519 C 4.646 19.838,4.898 20.011,5.273 20.154 C 5.536 20.255,5.559 20.257,6.960 20.278 C 8.211 20.297,8.399 20.309,8.539 20.372 C 8.641 20.418,9.033 20.774,9.619 21.355 C 10.603 22.328,10.814 22.489,11.299 22.637 C 11.649 22.745,12.236 22.754,12.607 22.659 C 13.113 22.528,13.273 22.409,14.280 21.416 C 14.845 20.859,15.292 20.451,15.400 20.395 C 15.577 20.302,15.607 20.300,17.000 20.277 C 17.975 20.261,18.470 20.238,18.580 20.203 C 19.126 20.030,19.699 19.567,19.971 19.078 C 20.231 18.609,20.252 18.461,20.277 16.920 C 20.298 15.677,20.307 15.526,20.375 15.400 C 20.416 15.323,20.850 14.855,21.339 14.360 C 21.828 13.865,22.282 13.379,22.347 13.280 C 22.834 12.539,22.837 11.505,22.356 10.757 C 22.258 10.605,21.836 10.142,21.320 9.620 C 20.841 9.136,20.416 8.677,20.375 8.600 C 20.307 8.474,20.298 8.320,20.276 7.060 C 20.254 5.782,20.244 5.637,20.167 5.400 C 19.924 4.653,19.323 4.062,18.560 3.819 C 18.375 3.760,18.118 3.745,16.940 3.724 C 15.680 3.702,15.526 3.693,15.400 3.625 C 15.323 3.584,14.864 3.159,14.380 2.680 C 13.443 1.753,13.159 1.533,12.723 1.396 C 12.380 1.289,11.786 1.262,11.450 1.338 M12.379 2.869 C 12.446 2.903,12.923 3.347,13.440 3.857 C 14.443 4.846,14.566 4.937,15.140 5.123 C 15.402 5.207,15.511 5.215,16.823 5.237 L 18.226 5.260 18.372 5.371 C 18.452 5.432,18.568 5.548,18.629 5.628 L 18.740 5.774 18.763 7.177 C 18.784 8.493,18.791 8.597,18.877 8.860 C 19.064 9.435,19.154 9.557,20.143 10.560 C 20.653 11.077,21.097 11.554,21.130 11.620 C 21.224 11.810,21.246 12.018,21.195 12.227 C 21.152 12.403,21.069 12.499,20.239 13.340 C 19.305 14.285,19.129 14.507,18.946 14.966 C 18.790 15.360,18.762 15.661,18.761 16.951 C 18.760 17.917,18.749 18.149,18.698 18.271 C 18.619 18.460,18.501 18.586,18.300 18.694 C 18.147 18.776,18.076 18.781,16.740 18.800 C 15.347 18.821,15.338 18.821,15.047 18.928 C 14.524 19.118,14.347 19.253,13.379 20.208 C 12.798 20.782,12.404 21.139,12.311 21.178 C 12.122 21.257,11.839 21.257,11.651 21.179 C 11.558 21.140,11.156 20.773,10.562 20.185 C 9.677 19.308,9.600 19.242,9.280 19.086 C 8.719 18.813,8.624 18.800,7.222 18.800 C 6.470 18.800,5.920 18.783,5.827 18.757 C 5.743 18.734,5.602 18.650,5.515 18.570 C 5.215 18.299,5.222 18.344,5.199 16.760 L 5.178 15.340 5.055 15.019 C 4.987 14.842,4.882 14.617,4.821 14.519 C 4.760 14.420,4.299 13.926,3.797 13.419 C 3.217 12.834,2.861 12.444,2.822 12.350 C 2.743 12.161,2.743 11.878,2.822 11.689 C 2.861 11.596,3.218 11.202,3.792 10.621 C 4.747 9.653,4.882 9.476,5.072 8.953 C 5.178 8.662,5.179 8.652,5.200 7.260 C 5.214 6.350,5.237 5.824,5.267 5.758 C 5.335 5.604,5.514 5.406,5.655 5.329 C 5.764 5.269,5.963 5.257,7.180 5.236 C 8.743 5.209,8.757 5.207,9.340 4.908 C 9.626 4.761,9.761 4.644,10.606 3.809 C 11.382 3.042,11.584 2.864,11.726 2.818 C 11.924 2.755,12.196 2.776,12.379 2.869 M14.900 8.260 C 14.878 8.267,14.806 8.285,14.740 8.299 C 14.650 8.319,13.852 9.091,11.528 11.413 C 9.827 13.111,8.398 14.561,8.351 14.636 C 8.218 14.848,8.233 15.195,8.383 15.408 C 8.447 15.499,8.568 15.608,8.651 15.651 C 8.837 15.747,9.139 15.753,9.325 15.664 C 9.403 15.628,10.805 14.255,12.567 12.490 C 15.576 9.476,15.673 9.374,15.712 9.189 C 15.785 8.834,15.633 8.480,15.352 8.350 C 15.213 8.286,14.968 8.237,14.900 8.260 M9.042 8.628 C 8.331 9.001,8.339 10.029,9.055 10.379 C 9.249 10.474,9.317 10.487,9.554 10.474 C 9.907 10.454,10.164 10.306,10.339 10.022 C 10.448 9.846,10.460 9.793,10.460 9.500 C 10.460 9.207,10.448 9.154,10.339 8.978 C 10.161 8.689,9.905 8.545,9.544 8.527 C 9.294 8.515,9.234 8.527,9.042 8.628 M14.042 13.628 C 13.331 14.001,13.339 15.029,14.055 15.379 C 14.249 15.474,14.317 15.487,14.554 15.474 C 14.907 15.454,15.164 15.306,15.339 15.022 C 15.448 14.846,15.460 14.793,15.460 14.500 C 15.460 14.207,15.448 14.154,15.339 13.978 C 15.161 13.689,14.905 13.545,14.544 13.527 C 14.294 13.515,14.234 13.527,14.042 13.628 " stroke="none" fill-rule="evenodd" fill="black"></path></svg>