<svg width="24" height="24" viewBox="0 0 24 24" fill="none" xmlns="http://www.w3.org/2000/svg"><path d="M11.320 1.281 C 7.041 1.525,3.252 4.409,1.843 8.497 C 1.180 10.418,1.082 12.560,1.564 14.550 C 2.505 18.428,5.572 21.495,9.450 22.436 C 11.106 22.837,12.894 22.837,14.550 22.436 C 18.428 21.495,21.495 18.428,22.436 14.550 C 22.837 12.894,22.837 11.106,22.436 9.450 C 21.425 5.282,17.985 2.095,13.742 1.398 C 13.334 1.331,12.074 1.229,11.880 1.247 C 11.847 1.250,11.595 1.265,11.320 1.281 M13.146 2.822 C 14.201 2.960,15.125 3.237,16.060 3.696 C 18.877 5.079,20.768 7.722,21.178 10.854 C 21.301 11.786,21.244 13.026,21.034 13.998 C 20.745 15.343,20.003 16.855,19.121 17.900 C 18.247 18.935,17.240 19.726,16.060 20.304 C 14.761 20.940,13.462 21.240,12.000 21.240 C 10.538 21.240,9.236 20.940,7.940 20.304 C 5.123 18.921,3.232 16.278,2.822 13.146 C 2.699 12.214,2.756 10.974,2.966 10.002 C 3.177 9.020,3.703 7.775,4.268 6.920 C 5.750 4.677,8.131 3.188,10.820 2.823 C 11.380 2.746,12.569 2.746,13.146 2.822 M14.900 8.260 C 14.878 8.267,14.806 8.285,14.740 8.299 C 14.650 8.319,13.852 9.091,11.528 11.413 C 9.827 13.111,8.398 14.561,8.351 14.636 C 8.218 14.848,8.233 15.195,8.383 15.408 C 8.447 15.499,8.568 15.608,8.651 15.651 C 8.837 15.747,9.139 15.753,9.325 15.664 C 9.403 15.628,10.805 14.255,12.567 12.490 C 15.576 9.476,15.673 9.374,15.712 9.189 C 15.785 8.834,15.633 8.480,15.352 8.350 C 15.213 8.286,14.968 8.237,14.900 8.260 M9.042 8.628 C 8.331 9.001,8.339 10.029,9.055 10.379 C 9.249 10.474,9.317 10.487,9.554 10.474 C 9.907 10.454,10.164 10.306,10.339 10.022 C 10.448 9.846,10.460 9.793,10.460 9.500 C 10.460 9.207,10.448 9.154,10.339 8.978 C 10.161 8.689,9.905 8.545,9.544 8.527 C 9.294 8.515,9.234 8.527,9.042 8.628 M14.042 13.628 C 13.331 14.001,13.339 15.029,14.055 15.379 C 14.249 15.474,14.317 15.487,14.554 15.474 C 14.907 15.454,15.164 15.306,15.339 15.022 C 15.448 14.846,15.460 14.793,15.460 14.500 C 15.460 14.207,15.448 14.154,15.339 13.978 C 15.161 13.689,14.905 13.545,14.544 13.527 C 14.294 13.515,14.234 13.527,14.042 13.628 " stroke="none" fill-rule="evenodd" fill="black"></path></svg>