<svg width="24" height="24" viewBox="0 0 24 24" fill="none" xmlns="http://www.w3.org/2000/svg"><path d="M7.000 1.982 C 5.942 2.209,4.917 2.985,4.439 3.920 C 4.309 4.175,1.743 12.003,1.680 12.335 C 1.614 12.689,1.648 13.257,1.756 13.601 C 1.973 14.294,2.538 14.887,3.259 15.175 C 3.777 15.382,4.020 15.400,6.365 15.400 C 8.467 15.400,8.522 15.402,8.600 15.480 C 8.644 15.524,8.680 15.604,8.680 15.657 C 8.680 15.710,8.560 16.507,8.414 17.427 C 8.102 19.395,8.085 19.677,8.257 20.180 C 8.445 20.732,8.802 21.243,9.212 21.548 C 10.144 22.240,11.320 22.271,12.348 21.630 C 12.714 21.402,12.899 21.174,13.757 19.897 C 14.185 19.261,14.867 18.247,15.273 17.645 L 16.011 16.550 16.145 16.838 C 16.322 17.222,16.712 17.616,17.094 17.797 C 17.573 18.026,17.957 18.079,19.120 18.079 C 20.283 18.079,20.667 18.026,21.146 17.797 C 21.511 17.624,21.917 17.222,22.079 16.874 C 22.358 16.275,22.338 16.721,22.352 10.760 C 22.361 6.902,22.351 5.289,22.319 5.060 C 22.169 4.004,21.635 3.392,20.620 3.113 C 20.326 3.033,20.206 3.025,19.160 3.023 C 17.867 3.020,17.618 3.054,17.080 3.310 C 16.719 3.482,16.341 3.840,16.197 4.148 C 16.144 4.263,16.088 4.353,16.073 4.348 C 16.058 4.344,15.514 3.926,14.863 3.420 C 14.211 2.914,13.576 2.442,13.449 2.370 C 13.163 2.209,12.694 2.050,12.290 1.978 C 11.839 1.898,7.377 1.901,7.000 1.982 M12.052 3.457 C 12.588 3.560,12.705 3.634,14.335 4.899 L 15.880 6.099 15.880 10.082 L 15.880 14.065 13.839 17.102 C 12.716 18.772,11.741 20.197,11.673 20.267 C 11.471 20.476,11.192 20.578,10.820 20.579 C 10.539 20.580,10.474 20.566,10.285 20.461 C 10.065 20.339,9.863 20.125,9.741 19.884 C 9.603 19.614,9.619 19.387,9.901 17.600 C 10.220 15.573,10.228 15.356,10.001 14.896 C 9.824 14.536,9.521 14.234,9.171 14.068 L 8.900 13.940 6.480 13.919 C 4.088 13.898,4.057 13.897,3.835 13.808 C 3.577 13.705,3.358 13.509,3.231 13.268 C 3.161 13.136,3.142 13.036,3.145 12.800 C 3.147 12.517,3.219 12.281,4.428 8.620 C 5.132 6.486,5.754 4.650,5.811 4.540 C 6.052 4.068,6.664 3.611,7.260 3.458 C 7.566 3.380,11.642 3.379,12.052 3.457 M20.347 4.576 C 20.577 4.649,20.723 4.792,20.807 5.029 C 20.887 5.258,20.885 15.827,20.804 16.060 C 20.713 16.323,20.615 16.428,20.389 16.507 C 20.207 16.571,20.043 16.580,19.120 16.580 C 17.731 16.580,17.602 16.540,17.436 16.060 C 17.355 15.827,17.353 5.258,17.433 5.029 C 17.601 4.556,17.876 4.477,19.280 4.498 C 19.932 4.508,20.190 4.527,20.347 4.576 " stroke="none" fill-rule="evenodd" fill="black"></path></svg>