<svg width="24" height="24" viewBox="0 0 24 24" fill="none" xmlns="http://www.w3.org/2000/svg"><path d="M7.400 1.282 C 5.512 1.403,4.102 2.116,3.237 3.386 C 2.653 4.245,2.363 5.182,2.280 6.474 C 2.228 7.300,2.228 16.700,2.280 17.526 C 2.363 18.816,2.655 19.759,3.241 20.619 C 3.843 21.503,4.743 22.135,5.861 22.459 C 6.819 22.737,7.259 22.758,12.000 22.758 C 15.920 22.758,16.791 22.737,17.441 22.623 C 19.703 22.226,21.146 20.813,21.599 18.555 C 21.740 17.850,21.760 17.062,21.760 12.000 C 21.760 6.926,21.741 6.153,21.597 5.434 C 21.340 4.143,20.715 3.063,19.845 2.406 C 18.895 1.688,17.970 1.375,16.520 1.280 C 15.849 1.236,8.086 1.237,7.400 1.282 M17.405 2.888 C 18.197 3.084,18.719 3.358,19.180 3.820 C 19.648 4.288,19.921 4.812,20.113 5.615 L 20.220 6.060 20.220 12.000 L 20.220 17.940 20.113 18.385 C 19.921 19.188,19.648 19.712,19.180 20.180 C 18.712 20.648,18.188 20.921,17.385 21.113 L 16.940 21.220 12.000 21.220 L 7.060 21.220 6.615 21.113 C 5.092 20.748,4.266 19.928,3.888 18.405 L 3.783 17.980 3.769 12.260 C 3.760 8.455,3.770 6.418,3.797 6.177 C 4.024 4.206,5.140 3.060,7.080 2.803 C 7.223 2.784,9.509 2.772,12.160 2.776 L 16.980 2.783 17.405 2.888 M14.180 3.835 C 13.990 3.923,13.904 4.012,13.822 4.210 C 13.734 4.419,13.733 6.684,13.820 7.100 C 13.981 7.868,14.560 8.598,15.300 8.963 C 15.805 9.213,16.002 9.239,17.420 9.238 C 18.538 9.238,18.676 9.231,18.820 9.165 C 19.010 9.077,19.096 8.988,19.178 8.790 C 19.326 8.437,19.187 8.026,18.860 7.846 C 18.758 7.790,18.549 7.777,17.480 7.760 C 16.224 7.740,16.219 7.740,16.000 7.635 C 15.720 7.503,15.497 7.280,15.365 7.000 C 15.260 6.781,15.260 6.776,15.240 5.520 C 15.223 4.451,15.210 4.242,15.154 4.140 C 14.969 3.802,14.543 3.669,14.180 3.835 M7.815 12.278 C 7.331 12.393,7.098 13.004,7.383 13.408 C 7.447 13.499,7.572 13.610,7.660 13.656 C 7.815 13.738,7.880 13.740,9.875 13.752 C 12.208 13.765,12.281 13.759,12.519 13.521 C 12.918 13.122,12.731 12.423,12.189 12.286 C 11.980 12.234,8.031 12.226,7.815 12.278 M7.815 16.278 C 7.331 16.393,7.098 17.004,7.383 17.408 C 7.447 17.499,7.572 17.610,7.660 17.656 C 7.819 17.739,7.851 17.740,11.879 17.751 C 14.744 17.759,16.001 17.749,16.153 17.717 C 16.902 17.562,16.930 16.473,16.189 16.286 C 15.979 16.234,8.034 16.226,7.815 16.278 " stroke="none" fill-rule="evenodd" fill="black"></path></svg>