<svg width="24" height="24" viewBox="0 0 24 24" fill="none" xmlns="http://www.w3.org/2000/svg"><path d="M8.080 1.282 C 4.008 1.495,1.895 3.296,1.383 6.991 C 1.270 7.803,1.242 8.816,1.242 12.000 C 1.242 16.504,1.302 17.273,1.760 18.650 C 2.532 20.963,4.206 22.226,7.027 22.622 C 7.786 22.728,8.902 22.759,12.000 22.759 C 15.098 22.759,16.214 22.728,16.973 22.622 C 19.443 22.275,20.996 21.288,21.897 19.490 C 22.379 18.530,22.638 17.369,22.720 15.807 C 22.771 14.838,22.771 9.162,22.720 8.193 C 22.657 6.998,22.521 6.191,22.242 5.356 C 21.632 3.531,20.469 2.367,18.650 1.760 C 17.788 1.473,17.023 1.344,15.806 1.280 C 14.952 1.235,8.952 1.237,8.080 1.282 M16.800 2.854 C 19.586 3.316,20.714 4.454,21.148 7.240 C 21.214 7.661,21.220 8.064,21.220 12.000 C 21.220 15.936,21.214 16.339,21.148 16.760 C 20.712 19.558,19.558 20.712,16.760 21.148 C 16.339 21.214,15.936 21.220,12.000 21.220 C 8.064 21.220,7.661 21.214,7.240 21.148 C 4.450 20.713,3.283 19.551,2.854 16.780 C 2.785 16.335,2.780 15.989,2.780 12.000 C 2.780 7.247,2.776 7.337,3.044 6.288 C 3.557 4.282,4.722 3.274,6.960 2.900 C 7.690 2.777,8.048 2.769,12.200 2.777 C 15.963 2.784,16.422 2.791,16.800 2.854 M8.094 8.278 C 7.436 8.437,7.303 9.307,7.886 9.640 L 8.060 9.740 12.000 9.740 L 15.940 9.740 16.120 9.634 C 16.606 9.348,16.606 8.652,16.120 8.366 L 15.940 8.260 12.080 8.254 C 9.957 8.250,8.163 8.261,8.094 8.278 M8.094 14.278 C 7.436 14.437,7.303 15.307,7.886 15.640 L 8.060 15.740 12.000 15.740 L 15.940 15.740 16.120 15.634 C 16.606 15.348,16.606 14.652,16.120 14.366 L 15.940 14.260 12.080 14.254 C 9.957 14.250,8.163 14.261,8.094 14.278 " stroke="none" fill-rule="evenodd" fill="black"></path></svg>