<svg width="24" height="24" viewBox="0 0 24 24" fill="none" xmlns="http://www.w3.org/2000/svg"><path d="M8.080 1.282 C 4.008 1.495,1.895 3.296,1.383 6.991 C 1.270 7.803,1.242 8.816,1.242 12.000 C 1.242 15.184,1.270 16.197,1.383 17.009 C 1.767 19.784,3.048 21.470,5.356 22.242 C 6.191 22.521,6.998 22.657,8.193 22.720 C 9.162 22.771,14.838 22.771,15.807 22.720 C 17.002 22.657,17.809 22.521,18.644 22.242 C 20.966 21.466,22.225 19.797,22.622 16.973 C 22.726 16.235,22.759 15.121,22.759 12.460 C 22.758 10.001,22.754 9.851,22.683 9.700 C 22.576 9.472,14.478 1.387,14.271 1.301 C 14.142 1.248,13.764 1.241,11.391 1.246 C 9.889 1.249,8.399 1.266,8.080 1.282 M13.240 4.370 C 13.241 6.111,13.283 7.072,13.382 7.603 C 13.711 9.366,14.632 10.287,16.400 10.618 C 16.921 10.716,17.905 10.759,19.653 10.759 L 21.245 10.760 21.230 13.570 C 21.212 16.639,21.209 16.684,20.960 17.688 C 20.504 19.519,19.520 20.504,17.688 20.960 C 16.622 21.226,16.745 21.220,12.000 21.220 C 8.064 21.220,7.661 21.214,7.240 21.148 C 4.450 20.713,3.283 19.551,2.854 16.780 C 2.785 16.335,2.780 15.989,2.780 12.000 C 2.780 8.011,2.785 7.665,2.854 7.220 C 3.229 4.797,4.188 3.606,6.200 3.065 C 7.199 2.797,7.566 2.772,10.630 2.765 L 13.240 2.760 13.240 4.370 M18.750 9.231 C 17.625 9.240,17.251 9.229,16.900 9.178 C 15.671 9.001,15.172 8.607,14.919 7.615 C 14.786 7.097,14.760 6.705,14.760 5.241 L 14.760 3.820 17.460 6.520 L 20.160 9.220 18.750 9.231 M10.273 12.286 C 10.008 12.319,9.662 12.432,9.492 12.542 C 9.414 12.593,9.389 12.591,9.272 12.523 C 8.877 12.295,8.126 12.210,7.640 12.339 C 7.077 12.489,6.575 12.844,6.268 13.311 C 5.392 14.642,5.677 16.379,6.982 17.662 C 7.588 18.258,8.480 18.780,9.117 18.911 C 9.407 18.971,9.453 18.971,9.737 18.910 C 10.500 18.744,11.577 18.049,12.144 17.355 C 12.629 16.762,12.948 16.060,13.044 15.373 C 13.175 14.434,12.773 13.347,12.095 12.799 C 11.604 12.404,10.905 12.207,10.273 12.286 M8.561 13.840 C 8.647 13.885,8.756 13.972,8.803 14.035 C 8.849 14.098,8.953 14.186,9.034 14.230 C 9.395 14.430,9.676 14.379,9.990 14.055 C 10.229 13.808,10.328 13.760,10.593 13.761 C 11.129 13.763,11.515 14.225,11.552 14.907 C 11.573 15.301,11.482 15.645,11.251 16.038 C 10.957 16.538,10.279 17.112,9.684 17.364 C 9.444 17.465,9.417 17.468,9.271 17.417 C 8.814 17.256,8.150 16.778,7.822 16.377 C 7.437 15.904,7.207 15.273,7.261 14.840 C 7.320 14.362,7.524 14.025,7.851 13.862 C 8.101 13.738,8.345 13.730,8.561 13.840 " stroke="none" fill-rule="evenodd" fill="black"></path></svg>