<svg width="24" height="24" viewBox="0 0 24 24" fill="none" xmlns="http://www.w3.org/2000/svg"><path d="M8.080 1.282 C 4.008 1.495,1.895 3.296,1.383 6.991 C 1.270 7.803,1.242 8.816,1.242 12.000 C 1.242 16.504,1.302 17.273,1.760 18.650 C 2.532 20.963,4.206 22.226,7.027 22.622 C 7.680 22.714,8.919 22.768,9.163 22.716 C 9.827 22.573,9.943 21.631,9.332 21.338 C 9.210 21.280,9.029 21.259,8.420 21.235 C 5.201 21.106,3.653 20.092,3.044 17.712 C 2.776 16.663,2.780 16.753,2.780 12.000 C 2.780 8.011,2.785 7.665,2.854 7.220 C 3.281 4.461,4.432 3.305,7.200 2.854 C 7.560 2.796,8.023 2.784,10.430 2.770 L 13.240 2.755 13.240 4.367 C 13.241 6.111,13.283 7.072,13.382 7.603 C 13.711 9.366,14.632 10.287,16.400 10.618 C 16.921 10.716,17.905 10.759,19.647 10.759 L 21.235 10.760 21.247 11.990 C 21.260 13.196,21.262 13.223,21.353 13.369 C 21.710 13.943,22.576 13.812,22.716 13.162 C 22.744 13.031,22.760 12.391,22.759 11.408 C 22.758 9.978,22.752 9.848,22.683 9.700 C 22.576 9.472,14.478 1.387,14.271 1.301 C 14.142 1.248,13.764 1.241,11.391 1.246 C 9.889 1.249,8.399 1.266,8.080 1.282 M18.750 9.231 C 17.625 9.240,17.251 9.229,16.900 9.178 C 15.671 9.001,15.172 8.607,14.919 7.615 C 14.786 7.097,14.760 6.705,14.760 5.241 L 14.760 3.820 17.460 6.520 L 20.160 9.220 18.750 9.231 M16.143 13.242 C 14.638 13.478,13.445 14.431,12.988 15.760 C 12.827 16.228,12.786 16.553,12.810 17.163 L 12.832 17.708 12.650 17.797 C 12.195 18.017,11.759 18.460,11.522 18.941 C 11.337 19.318,11.266 19.644,11.266 20.120 C 11.266 20.615,11.338 20.932,11.546 21.358 C 11.751 21.777,12.227 22.254,12.640 22.454 C 13.248 22.748,13.094 22.735,16.320 22.750 C 18.130 22.759,19.374 22.748,19.631 22.723 C 20.896 22.595,22.020 21.793,22.482 20.687 C 22.794 19.941,22.808 18.947,22.519 18.169 C 22.170 17.230,21.456 16.486,20.589 16.156 C 20.364 16.070,20.358 16.064,20.294 15.847 C 19.934 14.607,18.916 13.625,17.673 13.318 C 17.290 13.223,16.507 13.184,16.143 13.242 M17.230 14.740 C 18.113 14.948,18.714 15.601,18.959 16.616 C 19.006 16.812,19.071 17.023,19.102 17.084 C 19.197 17.267,19.398 17.388,19.754 17.476 C 20.193 17.585,20.438 17.724,20.710 18.017 C 21.295 18.650,21.410 19.610,20.986 20.333 C 20.853 20.560,20.485 20.896,20.224 21.028 C 19.804 21.242,19.848 21.239,16.600 21.239 C 13.649 21.238,13.576 21.236,13.400 21.157 C 12.998 20.975,12.761 20.605,12.761 20.160 C 12.760 19.822,12.813 19.641,12.973 19.431 C 13.147 19.203,13.373 19.085,13.767 19.016 C 14.141 18.951,14.316 18.843,14.440 18.599 C 14.545 18.395,14.540 18.213,14.418 17.800 C 14.294 17.376,14.253 16.863,14.318 16.540 C 14.431 15.986,14.815 15.424,15.294 15.114 C 15.859 14.748,16.632 14.599,17.230 14.740 " stroke="none" fill-rule="evenodd" fill="black"></path></svg>