<svg width="24" height="24" viewBox="0 0 24 24" fill="none" xmlns="http://www.w3.org/2000/svg"><path d="M7.400 1.282 C 5.512 1.403,4.102 2.116,3.237 3.386 C 2.653 4.245,2.363 5.182,2.280 6.474 C 2.228 7.300,2.228 16.700,2.280 17.526 C 2.363 18.816,2.655 19.759,3.241 20.619 C 3.843 21.503,4.743 22.135,5.861 22.459 C 6.819 22.737,7.259 22.758,12.000 22.758 C 15.920 22.758,16.791 22.737,17.441 22.623 C 19.703 22.226,21.146 20.813,21.599 18.555 C 21.740 17.850,21.760 17.062,21.760 12.000 C 21.760 6.926,21.741 6.153,21.597 5.434 C 21.340 4.143,20.715 3.063,19.845 2.406 C 18.895 1.688,17.970 1.375,16.520 1.280 C 15.849 1.236,8.086 1.237,7.400 1.282 M17.405 2.888 C 18.197 3.084,18.719 3.358,19.180 3.820 C 19.648 4.288,19.921 4.812,20.113 5.615 L 20.220 6.060 20.220 12.000 L 20.220 17.940 20.113 18.385 C 19.921 19.188,19.648 19.712,19.180 20.180 C 18.712 20.648,18.188 20.921,17.385 21.113 L 16.940 21.220 12.000 21.220 L 7.060 21.220 6.615 21.113 C 5.092 20.748,4.266 19.928,3.888 18.405 L 3.783 17.980 3.769 12.260 C 3.760 8.455,3.770 6.418,3.797 6.177 C 4.024 4.206,5.140 3.060,7.080 2.803 C 7.223 2.784,9.509 2.772,12.160 2.776 L 16.980 2.783 17.405 2.888 M14.180 3.835 C 13.990 3.923,13.904 4.012,13.822 4.210 C 13.734 4.419,13.733 6.684,13.820 7.100 C 13.981 7.868,14.560 8.598,15.300 8.963 C 15.805 9.213,16.002 9.239,17.420 9.238 C 18.538 9.238,18.676 9.231,18.820 9.165 C 19.010 9.077,19.096 8.988,19.178 8.790 C 19.326 8.437,19.187 8.026,18.860 7.846 C 18.758 7.790,18.549 7.777,17.480 7.760 C 16.224 7.740,16.219 7.740,16.000 7.635 C 15.720 7.503,15.497 7.280,15.365 7.000 C 15.260 6.781,15.260 6.776,15.240 5.520 C 15.223 4.451,15.210 4.242,15.154 4.140 C 14.969 3.802,14.543 3.669,14.180 3.835 M11.166 12.046 C 10.888 12.079,10.463 12.210,10.345 12.299 C 10.279 12.350,10.247 12.345,10.076 12.258 C 9.786 12.111,9.463 12.040,9.087 12.040 C 8.410 12.040,7.902 12.253,7.420 12.738 C 6.888 13.274,6.636 13.911,6.630 14.740 C 6.622 15.693,7.011 16.563,7.800 17.361 C 8.387 17.954,9.012 18.366,9.660 18.587 C 10.255 18.790,10.591 18.750,11.340 18.385 C 12.911 17.620,13.921 16.203,13.920 14.765 C 13.919 13.649,13.376 12.700,12.500 12.281 C 12.034 12.059,11.644 11.990,11.166 12.046 M9.371 13.575 C 9.442 13.606,9.572 13.706,9.660 13.799 C 9.871 14.020,10.015 14.091,10.259 14.093 C 10.507 14.095,10.736 13.982,10.895 13.779 C 11.152 13.450,11.621 13.433,12.019 13.736 C 12.195 13.871,12.350 14.182,12.407 14.513 C 12.471 14.886,12.415 15.182,12.192 15.640 C 11.901 16.240,11.152 16.893,10.448 17.161 L 10.248 17.236 9.915 17.075 C 8.854 16.562,8.119 15.607,8.120 14.743 C 8.122 14.055,8.533 13.526,9.071 13.522 C 9.165 13.521,9.300 13.545,9.371 13.575 " stroke="none" fill-rule="evenodd" fill="black"></path></svg>