<svg width="24" height="24" viewBox="0 0 24 24" fill="none" xmlns="http://www.w3.org/2000/svg"><path d="M9.595 1.282 C 9.168 1.329,8.834 1.421,8.452 1.600 C 7.597 1.999,7.046 2.540,6.639 3.380 C 6.414 3.842,6.336 4.121,6.282 4.645 C 6.237 5.076,6.268 5.264,6.414 5.455 C 6.691 5.819,7.308 5.820,7.584 5.458 C 7.681 5.332,7.698 5.262,7.795 4.587 C 7.910 3.785,8.604 3.034,9.428 2.820 C 9.620 2.770,10.104 2.760,12.443 2.760 L 15.229 2.760 15.253 4.290 C 15.279 5.879,15.307 6.190,15.475 6.734 C 15.746 7.611,16.324 8.202,17.205 8.502 C 17.758 8.690,18.109 8.725,19.730 8.749 L 21.240 8.771 21.240 11.637 C 21.240 14.098,21.231 14.537,21.178 14.742 C 21.067 15.168,20.780 15.577,20.392 15.863 C 20.083 16.090,19.796 16.193,19.335 16.241 C 18.819 16.294,18.640 16.399,18.502 16.729 C 18.356 17.078,18.511 17.486,18.860 17.671 C 19.000 17.746,19.459 17.749,19.850 17.678 C 21.033 17.465,22.097 16.571,22.519 15.435 C 22.737 14.846,22.733 14.920,22.749 11.282 C 22.763 8.306,22.757 7.884,22.703 7.742 C 22.654 7.615,21.959 6.899,19.510 4.454 C 16.428 1.376,16.377 1.327,16.180 1.287 C 15.937 1.237,10.048 1.233,9.595 1.282 M19.310 7.231 C 17.444 7.256,16.985 7.001,16.802 5.840 C 16.779 5.697,16.760 5.184,16.760 4.700 L 16.760 3.820 18.460 5.520 L 20.160 7.220 19.310 7.231 M6.765 6.283 C 4.103 6.453,2.479 7.468,1.747 9.420 C 1.488 10.111,1.344 10.865,1.281 11.860 C 1.228 12.688,1.228 16.312,1.281 17.140 C 1.475 20.200,2.627 21.813,5.080 22.458 C 6.021 22.705,6.819 22.760,9.500 22.760 C 12.181 22.760,12.979 22.705,13.920 22.458 C 15.859 21.948,16.948 20.859,17.458 18.920 C 17.697 18.012,17.760 17.161,17.759 14.880 C 17.758 13.380,17.753 13.248,17.683 13.100 C 17.577 12.873,11.078 6.387,10.871 6.301 C 10.745 6.249,10.466 6.241,8.991 6.246 C 8.039 6.249,7.037 6.266,6.765 6.283 M9.851 9.390 C 9.875 11.104,9.905 11.442,10.084 12.022 C 10.380 12.984,11.016 13.620,11.978 13.916 C 12.558 14.096,12.896 14.125,14.614 14.149 L 16.247 14.171 16.230 15.876 C 16.211 17.699,16.191 17.918,15.981 18.661 C 15.925 18.859,15.787 19.206,15.674 19.434 C 15.505 19.773,15.412 19.904,15.158 20.158 C 14.904 20.412,14.773 20.505,14.434 20.674 C 13.987 20.896,13.522 21.043,12.920 21.151 C 12.583 21.212,12.196 21.220,9.500 21.220 C 6.804 21.220,6.417 21.212,6.080 21.151 C 5.476 21.043,5.012 20.896,4.561 20.671 C 4.220 20.501,4.087 20.407,3.840 20.160 C 3.356 19.676,3.034 18.948,2.849 17.920 C 2.788 17.583,2.780 17.196,2.780 14.500 C 2.780 11.804,2.788 11.417,2.849 11.080 C 2.957 10.476,3.104 10.012,3.329 9.561 C 3.500 9.218,3.592 9.088,3.840 8.841 C 4.300 8.384,4.944 8.079,5.825 7.901 C 6.370 7.791,6.739 7.771,8.305 7.765 L 9.829 7.760 9.851 9.390 M14.172 12.631 C 12.755 12.646,12.215 12.537,11.839 12.161 C 11.468 11.790,11.360 11.264,11.360 9.825 L 11.360 8.820 13.260 10.720 L 15.160 12.620 14.172 12.631 " stroke="none" fill-rule="evenodd" fill="black"></path></svg>