<svg width="24" height="24" viewBox="0 0 24 24" fill="none" xmlns="http://www.w3.org/2000/svg"><path d="M8.080 1.282 C 4.008 1.495,1.895 3.296,1.383 6.991 C 1.270 7.803,1.242 8.816,1.242 12.000 C 1.242 15.184,1.270 16.197,1.383 17.009 C 1.767 19.784,3.048 21.470,5.356 22.242 C 6.191 22.521,6.998 22.657,8.193 22.720 C 9.162 22.771,14.838 22.771,15.807 22.720 C 17.002 22.657,17.809 22.521,18.644 22.242 C 20.966 21.466,22.225 19.797,22.622 16.973 C 22.726 16.235,22.759 15.121,22.759 12.460 C 22.758 10.001,22.754 9.851,22.683 9.700 C 22.576 9.472,14.478 1.387,14.271 1.301 C 14.142 1.248,13.764 1.241,11.391 1.246 C 9.889 1.249,8.399 1.266,8.080 1.282 M13.240 4.370 C 13.241 6.111,13.283 7.072,13.382 7.603 C 13.711 9.366,14.632 10.287,16.400 10.618 C 16.921 10.716,17.905 10.759,19.653 10.759 L 21.245 10.760 21.230 13.570 C 21.212 16.639,21.209 16.684,20.960 17.688 C 20.504 19.519,19.520 20.504,17.688 20.960 C 16.622 21.226,16.745 21.220,12.000 21.220 C 8.064 21.220,7.661 21.214,7.240 21.148 C 4.450 20.713,3.283 19.551,2.854 16.780 C 2.785 16.335,2.780 15.989,2.780 12.000 C 2.780 8.011,2.785 7.665,2.854 7.220 C 3.229 4.797,4.188 3.606,6.200 3.065 C 7.199 2.797,7.566 2.772,10.630 2.765 L 13.240 2.760 13.240 4.370 M18.750 9.231 C 17.625 9.240,17.251 9.229,16.900 9.178 C 15.671 9.001,15.172 8.607,14.919 7.615 C 14.786 7.097,14.760 6.705,14.760 5.241 L 14.760 3.820 17.460 6.520 L 20.160 9.220 18.750 9.231 M8.069 11.282 C 7.804 11.326,7.403 11.521,7.198 11.706 C 6.970 11.911,5.712 13.803,5.621 14.078 C 5.568 14.238,5.555 14.381,5.567 14.677 C 5.580 15.020,5.598 15.099,5.717 15.343 C 5.838 15.593,5.986 15.755,7.236 17.004 C 8.459 18.227,8.651 18.404,8.883 18.516 C 9.373 18.754,9.907 18.754,10.397 18.516 C 10.629 18.404,10.821 18.227,12.044 17.004 C 13.294 15.755,13.442 15.593,13.563 15.343 C 13.682 15.099,13.700 15.020,13.713 14.677 C 13.725 14.381,13.712 14.238,13.659 14.078 C 13.568 13.802,12.310 11.913,12.075 11.697 C 11.847 11.488,11.522 11.335,11.197 11.282 C 10.899 11.234,8.355 11.233,8.069 11.282 M11.108 12.850 C 11.267 13.025,12.240 14.520,12.240 14.589 C 12.240 14.675,9.726 17.200,9.640 17.200 C 9.555 17.200,7.040 14.675,7.040 14.589 C 7.040 14.520,8.012 13.026,8.172 12.850 L 8.254 12.760 9.640 12.760 L 11.026 12.760 11.108 12.850 " stroke="none" fill-rule="evenodd" fill="black"></path></svg>