<svg width="24" height="24" viewBox="0 0 24 24" fill="none" xmlns="http://www.w3.org/2000/svg"><path d="M7.400 1.282 C 5.512 1.403,4.102 2.116,3.237 3.386 C 2.653 4.245,2.363 5.182,2.280 6.474 C 2.228 7.300,2.228 16.700,2.280 17.526 C 2.363 18.816,2.655 19.759,3.241 20.619 C 3.843 21.503,4.743 22.135,5.861 22.459 C 6.819 22.737,7.259 22.758,12.000 22.758 C 15.920 22.758,16.791 22.737,17.441 22.623 C 19.703 22.226,21.146 20.813,21.599 18.555 C 21.740 17.850,21.760 17.062,21.760 12.000 C 21.760 6.926,21.741 6.153,21.597 5.434 C 21.340 4.143,20.715 3.063,19.845 2.406 C 18.895 1.688,17.970 1.375,16.520 1.280 C 15.849 1.236,8.086 1.237,7.400 1.282 M17.405 2.888 C 18.197 3.084,18.719 3.358,19.180 3.820 C 19.648 4.288,19.921 4.812,20.113 5.615 L 20.220 6.060 20.220 12.000 L 20.220 17.940 20.113 18.385 C 19.921 19.188,19.648 19.712,19.180 20.180 C 18.712 20.648,18.188 20.921,17.385 21.113 L 16.940 21.220 12.000 21.220 L 7.060 21.220 6.615 21.113 C 5.092 20.748,4.266 19.928,3.888 18.405 L 3.783 17.980 3.769 12.260 C 3.760 8.455,3.770 6.418,3.797 6.177 C 4.024 4.206,5.140 3.060,7.080 2.803 C 7.223 2.784,9.509 2.772,12.160 2.776 L 16.980 2.783 17.405 2.888 M14.180 3.835 C 13.990 3.923,13.904 4.012,13.822 4.210 C 13.734 4.419,13.733 6.684,13.820 7.100 C 13.981 7.868,14.560 8.598,15.300 8.963 C 15.805 9.213,16.002 9.239,17.420 9.238 C 18.538 9.238,18.676 9.231,18.820 9.165 C 19.010 9.077,19.096 8.988,19.178 8.790 C 19.326 8.437,19.187 8.026,18.860 7.846 C 18.758 7.790,18.549 7.777,17.480 7.760 C 16.224 7.740,16.219 7.740,16.000 7.635 C 15.720 7.503,15.497 7.280,15.365 7.000 C 15.260 6.781,15.260 6.776,15.240 5.520 C 15.223 4.451,15.210 4.242,15.154 4.140 C 14.969 3.802,14.543 3.669,14.180 3.835 M9.900 12.258 C 9.878 12.266,9.806 12.285,9.740 12.300 C 9.653 12.319,9.315 12.630,8.528 13.413 C 7.927 14.011,7.397 14.561,7.351 14.636 C 7.235 14.822,7.235 15.178,7.351 15.364 C 7.397 15.439,7.927 15.988,8.528 16.585 C 9.553 17.605,9.632 17.673,9.810 17.711 C 10.390 17.832,10.832 17.389,10.710 16.810 C 10.673 16.634,10.609 16.559,9.867 15.810 L 9.064 15.000 9.867 14.190 C 10.611 13.439,10.673 13.366,10.711 13.189 C 10.785 12.835,10.634 12.482,10.352 12.349 C 10.212 12.283,9.967 12.234,9.900 12.258 M13.815 12.277 C 13.639 12.320,13.461 12.456,13.356 12.626 C 13.253 12.793,13.233 13.156,13.318 13.320 C 13.347 13.375,13.723 13.775,14.154 14.210 L 14.937 15.000 14.154 15.790 C 13.723 16.224,13.347 16.625,13.318 16.680 C 13.290 16.735,13.267 16.884,13.267 17.011 C 13.267 17.202,13.287 17.271,13.383 17.408 C 13.447 17.499,13.568 17.608,13.651 17.651 C 13.838 17.747,14.139 17.753,14.327 17.664 C 14.403 17.627,14.962 17.099,15.568 16.489 C 16.605 15.447,16.673 15.369,16.711 15.190 C 16.737 15.064,16.737 14.936,16.711 14.810 C 16.673 14.631,16.605 14.553,15.568 13.511 C 14.962 12.901,14.410 12.376,14.343 12.344 C 14.177 12.266,13.966 12.239,13.815 12.277 " stroke="none" fill-rule="evenodd" fill="black"></path></svg>