<svg width="24" height="24" viewBox="0 0 24 24" fill="none" xmlns="http://www.w3.org/2000/svg"><path d="M8.080 1.282 C 4.008 1.495,1.895 3.296,1.383 6.991 C 1.270 7.803,1.242 8.816,1.242 12.000 C 1.242 15.184,1.270 16.197,1.383 17.009 C 1.767 19.784,3.048 21.470,5.356 22.242 C 6.191 22.521,6.998 22.657,8.193 22.720 C 9.162 22.771,14.838 22.771,15.807 22.720 C 17.002 22.657,17.809 22.521,18.644 22.242 C 20.966 21.466,22.225 19.797,22.622 16.973 C 22.726 16.235,22.759 15.121,22.759 12.460 C 22.758 10.001,22.754 9.851,22.683 9.700 C 22.576 9.472,14.478 1.387,14.271 1.301 C 14.142 1.248,13.764 1.241,11.391 1.246 C 9.889 1.249,8.399 1.266,8.080 1.282 M13.240 4.370 C 13.241 6.111,13.283 7.072,13.382 7.603 C 13.711 9.366,14.632 10.287,16.400 10.618 C 16.921 10.716,17.905 10.759,19.653 10.759 L 21.245 10.760 21.230 13.570 C 21.212 16.639,21.209 16.684,20.960 17.688 C 20.504 19.519,19.520 20.504,17.688 20.960 C 16.622 21.226,16.745 21.220,12.000 21.220 C 8.064 21.220,7.661 21.214,7.240 21.148 C 4.450 20.713,3.283 19.551,2.854 16.780 C 2.785 16.335,2.780 15.989,2.780 12.000 C 2.780 8.011,2.785 7.665,2.854 7.220 C 3.229 4.797,4.188 3.606,6.200 3.065 C 7.199 2.797,7.566 2.772,10.630 2.765 L 13.240 2.760 13.240 4.370 M18.750 9.231 C 17.625 9.240,17.251 9.229,16.900 9.178 C 15.671 9.001,15.172 8.607,14.919 7.615 C 14.786 7.097,14.760 6.705,14.760 5.241 L 14.760 3.820 17.460 6.520 L 20.160 9.220 18.750 9.231 M8.900 12.258 C 8.878 12.266,8.806 12.285,8.740 12.300 C 8.578 12.336,6.424 14.469,6.316 14.700 C 6.222 14.903,6.222 15.097,6.316 15.300 C 6.365 15.404,6.779 15.845,7.505 16.565 C 8.552 17.604,8.632 17.673,8.810 17.711 C 9.389 17.832,9.833 17.388,9.710 16.812 C 9.675 16.649,9.614 16.567,9.249 16.192 L 8.827 15.760 10.892 15.760 C 12.248 15.760,13.027 15.745,13.162 15.716 C 13.904 15.557,13.924 14.471,13.189 14.286 C 13.061 14.254,12.366 14.240,10.916 14.240 L 8.827 14.240 9.249 13.808 C 9.615 13.432,9.675 13.351,9.711 13.186 C 9.785 12.836,9.634 12.482,9.352 12.349 C 9.212 12.283,8.967 12.234,8.900 12.258 " stroke="none" fill-rule="evenodd" fill="black"></path></svg>