<svg width="24" height="24" viewBox="0 0 24 24" fill="none" xmlns="http://www.w3.org/2000/svg"><path d="M8.080 1.282 C 4.008 1.495,1.895 3.296,1.383 6.991 C 1.270 7.803,1.242 8.816,1.242 12.000 C 1.242 15.184,1.270 16.197,1.383 17.009 C 1.767 19.784,3.048 21.470,5.356 22.242 C 6.191 22.521,6.998 22.657,8.193 22.720 C 9.162 22.771,14.838 22.771,15.807 22.720 C 17.002 22.657,17.809 22.521,18.644 22.242 C 20.966 21.466,22.225 19.797,22.622 16.973 C 22.726 16.235,22.759 15.121,22.759 12.460 C 22.758 10.001,22.754 9.851,22.683 9.700 C 22.576 9.472,14.478 1.387,14.271 1.301 C 14.142 1.248,13.764 1.241,11.391 1.246 C 9.889 1.249,8.399 1.266,8.080 1.282 M13.240 4.370 C 13.241 6.111,13.283 7.072,13.382 7.603 C 13.711 9.366,14.632 10.287,16.400 10.618 C 16.921 10.716,17.905 10.759,19.653 10.759 L 21.245 10.760 21.230 13.570 C 21.212 16.639,21.209 16.684,20.960 17.688 C 20.504 19.519,19.520 20.504,17.688 20.960 C 16.622 21.226,16.745 21.220,12.000 21.220 C 8.064 21.220,7.661 21.214,7.240 21.148 C 4.450 20.713,3.283 19.551,2.854 16.780 C 2.785 16.335,2.780 15.989,2.780 12.000 C 2.780 8.011,2.785 7.665,2.854 7.220 C 3.229 4.797,4.188 3.606,6.200 3.065 C 7.199 2.797,7.566 2.772,10.630 2.765 L 13.240 2.760 13.240 4.370 M18.750 9.231 C 17.625 9.240,17.251 9.229,16.900 9.178 C 15.671 9.001,15.172 8.607,14.919 7.615 C 14.786 7.097,14.760 6.705,14.760 5.241 L 14.760 3.820 17.460 6.520 L 20.160 9.220 18.750 9.231 M8.815 10.277 C 8.638 10.321,8.461 10.456,8.353 10.631 L 8.260 10.780 8.248 12.976 L 8.237 15.172 7.828 14.772 C 7.604 14.552,7.375 14.348,7.320 14.319 C 7.265 14.290,7.118 14.267,6.992 14.267 C 6.721 14.267,6.503 14.389,6.358 14.623 C 6.253 14.793,6.232 15.154,6.318 15.320 C 6.413 15.504,8.529 17.604,8.700 17.684 C 8.903 17.778,9.097 17.778,9.300 17.684 C 9.404 17.635,9.845 17.221,10.565 16.495 C 11.607 15.445,11.673 15.369,11.711 15.189 C 11.817 14.682,11.499 14.267,11.004 14.267 C 10.881 14.267,10.735 14.290,10.680 14.319 C 10.625 14.348,10.396 14.552,10.170 14.773 L 9.760 15.175 9.759 13.098 C 9.758 11.815,9.742 10.951,9.717 10.841 C 9.623 10.432,9.215 10.177,8.815 10.277 " stroke="none" fill-rule="evenodd" fill="black"></path></svg>