<svg width="24" height="24" viewBox="0 0 24 24" fill="none" xmlns="http://www.w3.org/2000/svg"><path d="M8.080 1.282 C 4.008 1.495,1.895 3.296,1.383 6.991 C 1.270 7.803,1.242 8.816,1.242 12.000 C 1.242 15.184,1.270 16.197,1.383 17.009 C 1.767 19.784,3.048 21.470,5.356 22.242 C 6.191 22.521,6.998 22.657,8.193 22.720 C 9.162 22.771,14.838 22.771,15.807 22.720 C 17.002 22.657,17.809 22.521,18.644 22.242 C 20.966 21.466,22.225 19.797,22.622 16.973 C 22.726 16.235,22.759 15.121,22.759 12.460 C 22.758 10.001,22.754 9.851,22.683 9.700 C 22.576 9.472,14.478 1.387,14.271 1.301 C 14.142 1.248,13.764 1.241,11.391 1.246 C 9.889 1.249,8.399 1.266,8.080 1.282 M13.240 4.370 C 13.241 6.111,13.283 7.072,13.382 7.603 C 13.711 9.366,14.632 10.287,16.400 10.618 C 16.921 10.716,17.905 10.759,19.653 10.759 L 21.245 10.760 21.230 13.570 C 21.212 16.639,21.209 16.684,20.960 17.688 C 20.504 19.519,19.520 20.504,17.688 20.960 C 16.622 21.226,16.745 21.220,12.000 21.220 C 8.064 21.220,7.661 21.214,7.240 21.148 C 4.450 20.713,3.283 19.551,2.854 16.780 C 2.785 16.335,2.780 15.989,2.780 12.000 C 2.780 8.011,2.785 7.665,2.854 7.220 C 3.229 4.797,4.188 3.606,6.200 3.065 C 7.199 2.797,7.566 2.772,10.630 2.765 L 13.240 2.760 13.240 4.370 M18.750 9.231 C 17.625 9.240,17.251 9.229,16.900 9.178 C 15.671 9.001,15.172 8.607,14.919 7.615 C 14.786 7.097,14.760 6.705,14.760 5.241 L 14.760 3.820 17.460 6.520 L 20.160 9.220 18.750 9.231 M10.815 12.277 C 10.640 12.320,10.462 12.456,10.356 12.626 C 10.253 12.794,10.233 13.156,10.319 13.320 C 10.348 13.375,10.552 13.604,10.772 13.828 L 11.172 14.237 8.976 14.248 L 6.780 14.260 6.627 14.355 C 6.385 14.506,6.267 14.718,6.267 15.003 C 6.267 15.203,6.286 15.270,6.383 15.408 C 6.447 15.499,6.572 15.610,6.660 15.656 C 6.816 15.738,6.879 15.740,8.996 15.752 L 11.172 15.763 10.772 16.172 C 10.552 16.396,10.348 16.625,10.319 16.680 C 10.290 16.735,10.267 16.884,10.267 17.011 C 10.267 17.202,10.287 17.271,10.383 17.408 C 10.447 17.499,10.568 17.608,10.651 17.651 C 10.838 17.747,11.139 17.753,11.327 17.664 C 11.403 17.627,11.962 17.099,12.568 16.489 C 13.605 15.447,13.673 15.369,13.711 15.190 C 13.737 15.064,13.737 14.936,13.711 14.810 C 13.673 14.632,13.605 14.553,12.585 13.528 C 11.988 12.927,11.446 12.402,11.380 12.362 C 11.235 12.273,10.985 12.236,10.815 12.277 " stroke="none" fill-rule="evenodd" fill="black"></path></svg>