<svg width="24" height="24" viewBox="0 0 24 24" fill="none" xmlns="http://www.w3.org/2000/svg"><path d="M8.080 1.282 C 4.008 1.495,1.895 3.296,1.383 6.991 C 1.270 7.803,1.242 8.816,1.242 12.000 C 1.242 16.504,1.302 17.273,1.760 18.650 C 2.532 20.963,4.206 22.226,7.027 22.622 C 7.786 22.728,8.902 22.759,12.000 22.759 C 15.098 22.759,16.214 22.728,16.973 22.622 C 19.443 22.275,20.996 21.288,21.897 19.490 C 22.379 18.530,22.638 17.369,22.720 15.807 C 22.771 14.838,22.771 9.162,22.720 8.193 C 22.657 6.998,22.521 6.191,22.242 5.356 C 21.632 3.531,20.469 2.367,18.650 1.760 C 17.788 1.473,17.023 1.344,15.806 1.280 C 14.952 1.235,8.952 1.237,8.080 1.282 M16.800 2.854 C 19.586 3.316,20.714 4.454,21.148 7.240 C 21.214 7.661,21.220 8.064,21.220 12.000 C 21.220 15.936,21.214 16.339,21.148 16.760 C 20.712 19.558,19.558 20.712,16.760 21.148 C 16.339 21.214,15.936 21.220,12.000 21.220 C 8.064 21.220,7.661 21.214,7.240 21.148 C 4.450 20.713,3.283 19.551,2.854 16.780 C 2.785 16.335,2.780 15.989,2.780 12.000 C 2.780 7.247,2.776 7.337,3.044 6.288 C 3.557 4.282,4.722 3.274,6.960 2.900 C 7.690 2.777,8.048 2.769,12.200 2.777 C 15.963 2.784,16.422 2.791,16.800 2.854 M11.815 5.277 C 11.639 5.320,11.461 5.456,11.356 5.626 C 11.283 5.745,11.263 5.847,11.248 6.186 L 11.230 6.600 10.765 6.601 C 10.509 6.601,10.179 6.627,10.030 6.659 C 9.100 6.856,8.286 7.657,8.015 8.640 C 7.962 8.831,7.944 9.038,7.946 9.420 C 7.950 10.325,8.128 10.812,8.644 11.327 C 9.018 11.700,9.359 11.877,10.400 12.234 C 10.785 12.366,11.132 12.487,11.170 12.502 C 11.235 12.527,11.240 12.646,11.240 14.224 L 11.240 15.920 11.045 15.920 C 10.544 15.920,10.182 15.775,9.876 15.452 C 9.620 15.181,9.481 14.878,9.435 14.487 C 9.384 14.051,9.374 14.018,9.230 13.855 C 8.904 13.483,8.320 13.519,8.050 13.928 C 7.948 14.082,7.940 14.123,7.944 14.477 C 7.953 15.301,8.284 16.019,8.934 16.627 C 9.466 17.123,10.008 17.349,10.765 17.388 L 11.230 17.411 11.248 17.820 C 11.263 18.153,11.283 18.255,11.356 18.374 C 11.708 18.944,12.577 18.809,12.716 18.162 C 12.740 18.049,12.760 17.831,12.760 17.678 L 12.760 17.400 13.230 17.399 C 13.801 17.398,14.169 17.326,14.540 17.142 C 15.106 16.861,15.520 16.442,15.804 15.860 C 16.029 15.400,16.093 15.052,16.066 14.440 C 16.034 13.721,15.907 13.322,15.561 12.859 C 15.234 12.421,14.807 12.182,13.590 11.758 L 12.760 11.469 12.760 9.775 L 12.760 8.080 12.990 8.081 C 13.872 8.083,14.498 8.660,14.583 9.548 C 14.637 10.104,14.858 10.366,15.295 10.391 C 15.589 10.407,15.756 10.333,15.937 10.106 C 16.057 9.955,16.060 9.943,16.057 9.526 C 16.053 8.833,15.851 8.270,15.403 7.707 C 14.846 7.006,14.145 6.652,13.230 6.610 L 12.760 6.589 12.759 6.305 C 12.758 5.941,12.700 5.694,12.580 5.536 C 12.421 5.327,12.078 5.211,11.815 5.277 M11.240 9.500 C 11.240 10.405,11.226 10.920,11.201 10.920 C 11.125 10.920,10.019 10.512,9.871 10.429 C 9.581 10.268,9.438 9.951,9.432 9.452 C 9.425 8.955,9.566 8.632,9.918 8.335 C 10.128 8.159,10.406 8.083,10.850 8.081 L 11.240 8.080 11.240 9.500 M14.134 13.574 C 14.366 13.711,14.464 13.851,14.545 14.166 C 14.716 14.835,14.440 15.517,13.887 15.788 C 13.688 15.886,13.604 15.901,13.210 15.914 L 12.760 15.929 12.760 14.490 L 12.760 13.052 13.357 13.260 C 13.685 13.375,14.035 13.516,14.134 13.574 " stroke="none" fill-rule="evenodd" fill="black"></path></svg>