<svg width="24" height="24" viewBox="0 0 24 24" fill="none" xmlns="http://www.w3.org/2000/svg"><path d="M11.320 1.281 C 7.041 1.525,3.252 4.409,1.843 8.497 C 1.180 10.418,1.082 12.560,1.564 14.550 C 2.505 18.428,5.572 21.495,9.450 22.436 C 11.106 22.837,12.894 22.837,14.550 22.436 C 18.428 21.495,21.495 18.428,22.436 14.550 C 22.837 12.894,22.837 11.106,22.436 9.450 C 21.425 5.282,17.985 2.095,13.742 1.398 C 13.334 1.331,12.074 1.229,11.880 1.247 C 11.847 1.250,11.595 1.265,11.320 1.281 M13.146 2.822 C 14.201 2.960,15.125 3.237,16.060 3.696 C 18.877 5.079,20.768 7.722,21.178 10.854 C 21.301 11.786,21.244 13.026,21.034 13.998 C 20.745 15.343,20.003 16.855,19.121 17.900 C 18.247 18.935,17.240 19.726,16.060 20.304 C 14.761 20.940,13.462 21.240,12.000 21.240 C 10.538 21.240,9.236 20.940,7.940 20.304 C 5.123 18.921,3.232 16.278,2.822 13.146 C 2.699 12.214,2.756 10.974,2.966 10.002 C 3.177 9.020,3.703 7.775,4.268 6.920 C 5.750 4.677,8.131 3.188,10.820 2.823 C 11.380 2.746,12.569 2.746,13.146 2.822 M11.815 5.277 C 11.639 5.320,11.461 5.456,11.356 5.626 C 11.283 5.745,11.263 5.847,11.248 6.186 L 11.230 6.600 10.765 6.601 C 10.509 6.601,10.179 6.627,10.030 6.659 C 9.100 6.856,8.286 7.657,8.015 8.640 C 7.962 8.831,7.944 9.038,7.946 9.420 C 7.950 10.325,8.128 10.812,8.644 11.327 C 9.018 11.700,9.359 11.877,10.400 12.234 C 10.785 12.366,11.132 12.487,11.170 12.502 C 11.235 12.527,11.240 12.646,11.240 14.224 L 11.240 15.920 11.045 15.920 C 10.544 15.920,10.182 15.775,9.876 15.452 C 9.620 15.181,9.481 14.878,9.435 14.487 C 9.384 14.051,9.374 14.018,9.230 13.855 C 8.904 13.483,8.320 13.519,8.050 13.928 C 7.948 14.082,7.940 14.123,7.944 14.477 C 7.953 15.301,8.284 16.019,8.934 16.627 C 9.466 17.123,10.008 17.349,10.765 17.388 L 11.230 17.411 11.248 17.820 C 11.263 18.153,11.283 18.255,11.356 18.374 C 11.708 18.944,12.577 18.809,12.716 18.162 C 12.740 18.049,12.760 17.831,12.760 17.678 L 12.760 17.400 13.230 17.399 C 13.801 17.398,14.169 17.326,14.540 17.142 C 15.106 16.861,15.520 16.442,15.804 15.860 C 16.029 15.400,16.093 15.052,16.066 14.440 C 16.034 13.721,15.907 13.322,15.561 12.859 C 15.234 12.421,14.807 12.182,13.590 11.758 L 12.760 11.469 12.760 9.775 L 12.760 8.080 12.990 8.081 C 13.872 8.083,14.498 8.660,14.583 9.548 C 14.637 10.104,14.858 10.366,15.295 10.391 C 15.589 10.407,15.756 10.333,15.937 10.106 C 16.057 9.955,16.060 9.943,16.057 9.526 C 16.053 8.833,15.851 8.270,15.403 7.707 C 14.846 7.006,14.145 6.652,13.230 6.610 L 12.760 6.589 12.759 6.305 C 12.758 5.941,12.700 5.694,12.580 5.536 C 12.421 5.327,12.078 5.211,11.815 5.277 M11.240 9.500 C 11.240 10.405,11.226 10.920,11.201 10.920 C 11.125 10.920,10.019 10.512,9.871 10.429 C 9.581 10.268,9.438 9.951,9.432 9.452 C 9.425 8.955,9.566 8.632,9.918 8.335 C 10.128 8.159,10.406 8.083,10.850 8.081 L 11.240 8.080 11.240 9.500 M14.134 13.574 C 14.366 13.711,14.464 13.851,14.545 14.166 C 14.716 14.835,14.440 15.517,13.887 15.788 C 13.688 15.886,13.604 15.901,13.210 15.914 L 12.760 15.929 12.760 14.490 L 12.760 13.052 13.357 13.260 C 13.685 13.375,14.035 13.516,14.134 13.574 " stroke="none" fill-rule="evenodd" fill="black"></path></svg>