<svg width="24" height="24" viewBox="0 0 24 24" fill="none" xmlns="http://www.w3.org/2000/svg"><path d="M8.080 1.282 C 4.008 1.495,1.895 3.296,1.383 6.991 C 1.270 7.803,1.242 8.816,1.242 12.000 C 1.242 15.184,1.270 16.197,1.383 17.009 C 1.767 19.784,3.048 21.470,5.356 22.242 C 6.191 22.521,6.998 22.657,8.193 22.720 C 9.228 22.774,11.902 22.772,12.162 22.716 C 12.828 22.573,12.943 21.639,12.332 21.336 C 12.190 21.265,12.028 21.258,9.900 21.236 C 7.425 21.209,7.267 21.197,6.312 20.960 C 4.229 20.442,3.248 19.261,2.856 16.800 C 2.803 16.468,2.785 15.999,2.771 14.570 L 2.752 12.760 12.446 12.759 C 21.785 12.758,22.146 12.756,22.300 12.684 C 22.494 12.595,22.616 12.468,22.698 12.271 C 22.750 12.145,22.760 11.878,22.760 10.531 C 22.759 7.659,22.651 6.580,22.242 5.356 C 21.632 3.531,20.469 2.367,18.650 1.760 C 17.788 1.473,17.023 1.344,15.806 1.280 C 14.952 1.235,8.952 1.237,8.080 1.282 M16.800 2.854 C 19.573 3.314,20.701 4.442,21.144 7.200 C 21.197 7.533,21.215 7.993,21.229 9.430 L 21.248 11.240 12.000 11.240 L 2.752 11.240 2.771 9.430 C 2.790 7.492,2.811 7.241,3.025 6.360 C 3.521 4.315,4.702 3.277,6.960 2.900 C 7.690 2.777,8.048 2.769,12.200 2.777 C 15.963 2.784,16.422 2.791,16.800 2.854 M5.619 5.617 C 5.529 5.671,5.415 5.790,5.359 5.887 L 5.260 6.060 5.260 7.220 C 5.260 7.858,5.273 8.428,5.290 8.487 C 5.363 8.749,5.710 8.998,6.000 8.998 C 6.290 8.998,6.637 8.749,6.710 8.487 C 6.727 8.428,6.740 7.858,6.740 7.220 L 6.740 6.060 6.634 5.880 C 6.427 5.528,5.967 5.409,5.619 5.617 M9.619 5.617 C 9.529 5.671,9.415 5.790,9.359 5.887 L 9.260 6.060 9.260 7.220 C 9.260 7.858,9.273 8.428,9.290 8.487 C 9.363 8.749,9.710 8.998,10.000 8.998 C 10.290 8.998,10.637 8.749,10.710 8.487 C 10.727 8.428,10.740 7.858,10.740 7.220 L 10.740 6.060 10.634 5.880 C 10.427 5.528,9.967 5.409,9.619 5.617 M13.619 6.617 C 13.212 6.861,13.144 7.468,13.487 7.788 C 13.714 8.000,13.713 8.000,16.000 8.000 C 18.287 8.000,18.286 8.000,18.513 7.788 C 18.858 7.466,18.787 6.856,18.377 6.616 L 18.213 6.520 15.996 6.520 L 13.780 6.521 13.619 6.617 M21.619 14.617 C 21.423 14.735,21.294 14.953,21.257 15.231 C 21.242 15.346,21.222 15.440,21.212 15.440 C 21.202 15.440,21.074 15.370,20.927 15.286 C 20.219 14.876,19.428 14.690,18.563 14.731 C 17.277 14.791,16.151 15.426,15.436 16.493 C 15.219 16.817,15.200 16.863,15.200 17.067 C 15.200 17.190,15.229 17.350,15.267 17.429 C 15.406 17.722,15.828 17.903,16.135 17.802 C 16.333 17.736,16.459 17.627,16.637 17.364 C 16.976 16.866,17.439 16.509,17.977 16.334 C 18.537 16.151,19.316 16.189,19.864 16.427 L 20.020 16.494 19.877 16.520 C 19.288 16.624,19.054 17.384,19.487 17.788 C 19.699 17.986,19.797 18.000,21.014 18.000 C 21.917 18.000,22.179 17.988,22.289 17.942 C 22.453 17.873,22.666 17.644,22.709 17.489 C 22.726 17.429,22.740 16.858,22.740 16.220 L 22.740 15.060 22.634 14.880 C 22.427 14.528,21.967 14.409,21.619 14.617 M5.815 15.277 C 5.638 15.321,5.461 15.456,5.353 15.631 C 5.261 15.778,5.260 15.793,5.260 17.000 C 5.260 18.207,5.261 18.222,5.353 18.369 C 5.710 18.943,6.576 18.812,6.716 18.162 C 6.772 17.901,6.773 16.083,6.717 15.841 C 6.623 15.432,6.215 15.177,5.815 15.277 M9.815 15.277 C 9.638 15.321,9.461 15.456,9.353 15.631 C 9.261 15.778,9.260 15.793,9.260 17.000 C 9.260 18.207,9.261 18.222,9.353 18.369 C 9.710 18.943,10.576 18.812,10.716 18.162 C 10.772 17.901,10.773 16.083,10.717 15.841 C 10.623 15.432,10.215 15.177,9.815 15.277 M15.540 19.475 C 15.350 19.563,15.264 19.652,15.182 19.850 C 15.131 19.970,15.120 20.196,15.120 21.076 C 15.120 21.741,15.136 22.198,15.163 22.267 C 15.216 22.409,15.384 22.588,15.539 22.669 C 15.693 22.750,16.028 22.749,16.185 22.668 C 16.374 22.570,16.556 22.339,16.585 22.159 C 16.599 22.072,16.616 22.000,16.624 22.000 C 16.631 22.000,16.750 22.072,16.888 22.160 C 17.918 22.815,19.370 22.854,20.560 22.259 C 21.148 21.964,21.822 21.341,22.159 20.779 C 22.269 20.595,22.297 20.507,22.296 20.344 C 22.293 19.912,21.987 19.600,21.565 19.600 C 21.253 19.600,21.089 19.703,20.848 20.052 C 20.464 20.608,19.966 20.960,19.336 21.121 C 18.827 21.251,18.270 21.202,17.869 20.992 L 17.700 20.904 17.902 20.877 C 18.243 20.833,18.423 20.706,18.538 20.430 C 18.652 20.157,18.577 19.771,18.374 19.592 C 18.175 19.414,18.060 19.400,16.851 19.401 C 15.820 19.402,15.683 19.409,15.540 19.475 " stroke="none" fill-rule="evenodd" fill="black"></path></svg>