<svg width="24" height="24" viewBox="0 0 24 24" fill="none" xmlns="http://www.w3.org/2000/svg"><path d="M8.980 1.280 C 7.868 1.387,7.091 1.862,6.691 2.680 C 6.472 3.127,6.388 3.402,6.206 4.263 L 6.055 4.980 5.632 5.002 C 5.252 5.021,5.195 5.035,5.067 5.132 C 4.866 5.285,4.763 5.446,4.735 5.652 C 4.671 6.117,5.006 6.480,5.498 6.480 C 5.649 6.480,5.720 6.496,5.720 6.530 C 5.720 6.558,5.673 6.807,5.615 7.084 L 5.509 7.587 5.281 7.769 C 4.881 8.089,4.584 8.663,4.485 9.307 C 4.426 9.687,4.000 14.269,4.000 14.520 C 4.000 15.448,4.744 16.357,5.684 16.579 C 6.028 16.660,7.792 16.663,8.126 16.583 C 8.578 16.475,8.932 16.209,9.123 15.834 C 9.171 15.741,9.296 15.431,9.402 15.146 C 9.508 14.861,9.623 14.599,9.659 14.564 C 9.716 14.507,9.969 14.499,11.951 14.490 C 13.690 14.482,14.202 14.491,14.279 14.531 C 14.379 14.582,14.424 14.680,14.699 15.453 C 14.908 16.040,15.210 16.370,15.700 16.546 C 15.991 16.650,17.890 16.677,18.297 16.582 C 19.136 16.388,19.841 15.634,19.964 14.800 C 20.003 14.533,19.983 14.230,19.783 12.060 C 19.659 10.718,19.522 9.431,19.478 9.200 C 19.363 8.590,19.167 8.209,18.786 7.853 L 18.492 7.579 18.386 7.085 C 18.328 6.813,18.280 6.566,18.280 6.535 C 18.280 6.495,18.339 6.480,18.502 6.480 C 19.288 6.480,19.560 5.576,18.912 5.114 C 18.805 5.038,18.716 5.020,18.365 5.002 L 17.945 4.980 17.794 4.263 C 17.612 3.402,17.528 3.127,17.309 2.680 C 16.979 2.007,16.377 1.556,15.536 1.354 C 15.191 1.270,15.091 1.267,12.240 1.258 C 10.623 1.253,9.156 1.263,8.980 1.280 M15.387 2.855 C 15.769 2.994,15.949 3.203,16.125 3.716 C 16.167 3.836,16.346 4.629,16.523 5.478 C 16.700 6.326,16.854 7.051,16.865 7.090 C 16.884 7.156,16.634 7.160,12.000 7.160 C 7.366 7.160,7.116 7.156,7.135 7.090 C 7.146 7.051,7.300 6.326,7.477 5.478 C 7.798 3.941,7.875 3.643,8.033 3.333 C 8.123 3.158,8.312 2.978,8.478 2.911 C 8.824 2.770,8.932 2.766,12.080 2.773 C 15.003 2.780,15.192 2.784,15.387 2.855 M17.288 8.724 C 17.405 8.748,17.574 8.810,17.664 8.862 C 17.858 8.974,17.974 9.204,18.037 9.603 C 18.096 9.974,18.480 14.151,18.480 14.419 C 18.480 14.661,18.422 14.809,18.273 14.948 C 18.072 15.136,17.937 15.160,17.071 15.159 C 16.625 15.159,16.236 15.144,16.207 15.125 C 16.178 15.107,16.065 14.843,15.957 14.539 C 15.678 13.755,15.453 13.442,15.016 13.224 C 14.584 13.008,14.492 13.001,12.000 13.001 C 9.509 13.001,9.419 13.008,8.996 13.222 C 8.724 13.360,8.467 13.604,8.317 13.865 C 8.249 13.984,8.113 14.310,8.014 14.589 C 7.916 14.869,7.813 15.112,7.787 15.129 C 7.717 15.173,6.163 15.166,5.999 15.120 C 5.822 15.071,5.572 14.820,5.520 14.640 C 5.491 14.539,5.537 13.895,5.701 12.122 C 5.925 9.695,5.981 9.277,6.119 9.051 C 6.206 8.908,6.445 8.771,6.694 8.722 C 6.959 8.669,17.035 8.671,17.288 8.724 M7.361 10.142 C 7.084 10.265,6.920 10.515,6.920 10.816 C 6.920 11.040,6.975 11.188,7.113 11.335 C 7.316 11.553,7.368 11.560,8.736 11.560 C 10.041 11.560,10.140 11.549,10.314 11.387 C 10.666 11.060,10.626 10.488,10.232 10.214 L 10.067 10.100 8.784 10.090 C 7.703 10.082,7.478 10.091,7.361 10.142 M13.955 10.119 C 13.484 10.261,13.283 10.891,13.586 11.270 C 13.816 11.558,13.826 11.560,15.251 11.560 C 16.633 11.560,16.684 11.553,16.887 11.335 C 16.947 11.272,17.014 11.169,17.037 11.107 C 17.138 10.842,17.051 10.451,16.853 10.272 C 16.655 10.093,16.546 10.080,15.271 10.083 C 14.605 10.085,14.013 10.101,13.955 10.119 M11.815 16.277 C 11.638 16.321,11.461 16.456,11.353 16.631 C 11.265 16.772,11.260 16.816,11.260 17.500 C 11.260 18.184,11.265 18.228,11.353 18.369 C 11.710 18.943,12.576 18.812,12.716 18.162 C 12.771 17.904,12.772 17.080,12.717 16.841 C 12.623 16.432,12.215 16.177,11.815 16.277 M2.800 17.286 C 2.607 17.342,2.423 17.490,2.347 17.650 C 2.312 17.725,2.049 18.726,1.762 19.875 C 1.192 22.157,1.193 22.148,1.401 22.435 C 1.682 22.823,2.297 22.834,2.587 22.455 C 2.733 22.263,3.773 18.117,3.735 17.877 C 3.668 17.459,3.205 17.167,2.800 17.286 M20.801 17.286 C 20.516 17.370,20.316 17.594,20.264 17.885 C 20.224 18.108,21.271 22.268,21.413 22.455 C 21.703 22.834,22.318 22.823,22.599 22.435 C 22.808 22.147,22.810 22.161,22.225 19.821 C 21.650 17.523,21.635 17.482,21.352 17.349 C 21.166 17.261,20.963 17.238,20.801 17.286 M11.815 20.277 C 11.638 20.321,11.461 20.456,11.353 20.631 C 11.265 20.772,11.260 20.816,11.260 21.500 C 11.260 22.184,11.265 22.228,11.353 22.369 C 11.710 22.943,12.576 22.812,12.716 22.162 C 12.771 21.904,12.772 21.080,12.717 20.841 C 12.623 20.432,12.215 20.177,11.815 20.277 " stroke="none" fill-rule="evenodd" fill="black"></path></svg>