<svg width="24" height="24" viewBox="0 0 24 24" fill="none" xmlns="http://www.w3.org/2000/svg"><path d="M8.080 1.282 C 4.008 1.495,1.895 3.296,1.383 6.991 C 1.270 7.803,1.242 8.816,1.242 12.000 C 1.242 16.504,1.302 17.273,1.760 18.650 C 2.532 20.963,4.206 22.226,7.027 22.622 C 7.786 22.728,8.902 22.759,12.000 22.759 C 15.098 22.759,16.214 22.728,16.973 22.622 C 19.443 22.275,20.996 21.288,21.897 19.490 C 22.379 18.530,22.638 17.369,22.720 15.807 C 22.771 14.838,22.771 9.162,22.720 8.193 C 22.657 6.998,22.521 6.191,22.242 5.356 C 21.632 3.531,20.469 2.367,18.650 1.760 C 17.788 1.473,17.023 1.344,15.806 1.280 C 14.952 1.235,8.952 1.237,8.080 1.282 M16.800 2.854 C 19.573 3.314,20.701 4.442,21.144 7.200 C 21.197 7.533,21.215 7.993,21.229 9.430 L 21.248 11.240 12.000 11.240 L 2.752 11.240 2.771 9.430 C 2.790 7.492,2.811 7.241,3.025 6.360 C 3.521 4.315,4.702 3.277,6.960 2.900 C 7.690 2.777,8.048 2.769,12.200 2.777 C 15.963 2.784,16.422 2.791,16.800 2.854 M5.619 5.617 C 5.529 5.671,5.415 5.790,5.359 5.887 L 5.260 6.060 5.260 7.220 C 5.260 7.858,5.273 8.428,5.290 8.487 C 5.363 8.749,5.710 8.998,6.000 8.998 C 6.290 8.998,6.637 8.749,6.710 8.487 C 6.727 8.428,6.740 7.858,6.740 7.220 L 6.740 6.060 6.634 5.880 C 6.427 5.528,5.967 5.409,5.619 5.617 M9.619 5.617 C 9.529 5.671,9.415 5.790,9.359 5.887 L 9.260 6.060 9.260 7.220 C 9.260 7.858,9.273 8.428,9.290 8.487 C 9.363 8.749,9.710 8.998,10.000 8.998 C 10.290 8.998,10.637 8.749,10.710 8.487 C 10.727 8.428,10.740 7.858,10.740 7.220 L 10.740 6.060 10.634 5.880 C 10.427 5.528,9.967 5.409,9.619 5.617 M13.619 6.617 C 13.212 6.861,13.144 7.468,13.487 7.788 C 13.714 8.000,13.713 8.000,16.000 8.000 C 18.287 8.000,18.286 8.000,18.513 7.788 C 18.858 7.466,18.787 6.856,18.377 6.616 L 18.213 6.520 15.996 6.520 L 13.780 6.521 13.619 6.617 M21.229 14.570 C 21.210 16.533,21.190 16.764,20.960 17.688 C 20.504 19.519,19.520 20.504,17.688 20.960 C 16.622 21.226,16.745 21.220,12.000 21.220 C 8.064 21.220,7.661 21.214,7.240 21.148 C 4.456 20.714,3.296 19.565,2.856 16.800 C 2.803 16.468,2.785 15.999,2.771 14.570 L 2.752 12.760 12.000 12.760 L 21.248 12.760 21.229 14.570 M5.815 15.277 C 5.638 15.321,5.461 15.456,5.353 15.631 C 5.261 15.778,5.260 15.793,5.260 17.000 C 5.260 18.207,5.261 18.222,5.353 18.369 C 5.710 18.943,6.576 18.812,6.716 18.162 C 6.772 17.901,6.773 16.083,6.717 15.841 C 6.623 15.432,6.215 15.177,5.815 15.277 M9.815 15.277 C 9.638 15.321,9.461 15.456,9.353 15.631 C 9.261 15.778,9.260 15.793,9.260 17.000 C 9.260 18.207,9.261 18.222,9.353 18.369 C 9.710 18.943,10.576 18.812,10.716 18.162 C 10.772 17.901,10.773 16.083,10.717 15.841 C 10.623 15.432,10.215 15.177,9.815 15.277 M13.815 16.278 C 13.331 16.393,13.098 17.004,13.383 17.408 C 13.447 17.499,13.572 17.610,13.660 17.656 C 13.815 17.738,13.880 17.740,15.875 17.752 C 18.208 17.765,18.281 17.759,18.519 17.521 C 18.918 17.122,18.731 16.423,18.189 16.286 C 17.980 16.234,14.031 16.226,13.815 16.278 " stroke="none" fill-rule="evenodd" fill="black"></path></svg>