<svg width="24" height="24" viewBox="0 0 24 24" fill="none" xmlns="http://www.w3.org/2000/svg"><path d="M4.055 1.324 C 3.694 1.384,3.176 1.598,2.810 1.840 C 2.171 2.261,1.694 2.881,1.435 3.630 L 1.300 4.020 1.288 5.857 C 1.278 7.388,1.286 7.744,1.337 7.998 C 1.476 8.684,1.773 9.222,2.296 9.740 C 2.885 10.322,3.543 10.634,4.361 10.718 C 4.908 10.774,19.156 10.775,19.660 10.719 C 21.299 10.537,22.537 9.299,22.719 7.660 C 22.772 7.185,22.771 4.879,22.718 4.361 C 22.634 3.543,22.322 2.885,21.740 2.296 C 21.362 1.913,21.011 1.677,20.561 1.500 C 19.970 1.269,20.407 1.280,11.992 1.285 C 7.739 1.287,4.168 1.305,4.055 1.324 M19.848 2.834 C 19.994 2.874,20.202 2.965,20.311 3.034 C 20.559 3.193,20.924 3.573,21.031 3.782 C 21.231 4.176,21.240 4.267,21.240 6.003 C 21.240 7.509,21.234 7.651,21.161 7.886 C 20.977 8.483,20.483 8.977,19.886 9.161 C 19.637 9.238,19.472 9.240,11.999 9.240 C 4.636 9.240,4.359 9.237,4.125 9.165 C 3.778 9.057,3.567 8.920,3.293 8.627 C 3.035 8.352,2.906 8.125,2.817 7.790 C 2.745 7.519,2.735 4.601,2.805 4.272 C 2.948 3.601,3.552 2.978,4.220 2.816 C 4.373 2.778,6.185 2.766,12.001 2.763 C 19.249 2.760,19.593 2.763,19.848 2.834 M5.815 4.277 C 5.638 4.321,5.461 4.456,5.353 4.631 C 5.261 4.778,5.260 4.793,5.260 6.000 C 5.260 7.207,5.261 7.222,5.353 7.369 C 5.710 7.943,6.576 7.812,6.716 7.162 C 6.772 6.901,6.773 5.083,6.717 4.841 C 6.623 4.432,6.215 4.177,5.815 4.277 M9.815 4.277 C 9.638 4.321,9.461 4.456,9.353 4.631 C 9.261 4.778,9.260 4.793,9.260 6.000 C 9.260 7.207,9.261 7.222,9.353 7.369 C 9.710 7.943,10.576 7.812,10.716 7.162 C 10.772 6.901,10.773 5.083,10.717 4.841 C 10.623 4.432,10.215 4.177,9.815 4.277 M13.815 5.278 C 13.331 5.393,13.098 6.004,13.383 6.408 C 13.447 6.499,13.572 6.610,13.660 6.656 C 13.815 6.738,13.880 6.740,15.875 6.752 C 18.208 6.765,18.281 6.759,18.519 6.521 C 18.918 6.122,18.731 5.423,18.189 5.286 C 17.980 5.234,14.031 5.226,13.815 5.278 M4.055 13.324 C 3.694 13.384,3.176 13.598,2.810 13.840 C 2.171 14.261,1.694 14.881,1.435 15.630 L 1.300 16.020 1.288 17.857 C 1.278 19.388,1.286 19.744,1.337 19.998 C 1.476 20.684,1.773 21.222,2.296 21.740 C 2.885 22.322,3.543 22.634,4.361 22.718 C 4.908 22.774,19.156 22.775,19.660 22.719 C 21.299 22.537,22.537 21.299,22.719 19.660 C 22.772 19.185,22.771 16.879,22.718 16.361 C 22.634 15.543,22.322 14.885,21.740 14.296 C 21.362 13.913,21.011 13.677,20.561 13.500 C 19.970 13.269,20.407 13.280,11.992 13.285 C 7.739 13.287,4.168 13.305,4.055 13.324 M19.848 14.834 C 19.994 14.874,20.202 14.965,20.311 15.034 C 20.559 15.193,20.924 15.573,21.031 15.782 C 21.231 16.176,21.240 16.267,21.240 18.003 C 21.240 19.509,21.234 19.651,21.161 19.886 C 20.977 20.483,20.483 20.977,19.886 21.161 C 19.637 21.238,19.472 21.240,11.999 21.240 C 4.636 21.240,4.359 21.237,4.125 21.165 C 3.778 21.057,3.567 20.920,3.293 20.627 C 3.035 20.352,2.906 20.125,2.817 19.790 C 2.745 19.519,2.735 16.601,2.805 16.272 C 2.948 15.601,3.552 14.978,4.220 14.816 C 4.373 14.778,6.185 14.766,12.001 14.763 C 19.249 14.760,19.593 14.763,19.848 14.834 M5.815 16.277 C 5.638 16.321,5.461 16.456,5.353 16.631 C 5.261 16.778,5.260 16.793,5.260 18.000 C 5.260 19.207,5.261 19.222,5.353 19.369 C 5.710 19.943,6.576 19.812,6.716 19.162 C 6.772 18.901,6.773 17.083,6.717 16.841 C 6.623 16.432,6.215 16.177,5.815 16.277 M9.815 16.277 C 9.638 16.321,9.461 16.456,9.353 16.631 C 9.261 16.778,9.260 16.793,9.260 18.000 C 9.260 19.207,9.261 19.222,9.353 19.369 C 9.710 19.943,10.576 19.812,10.716 19.162 C 10.772 18.901,10.773 17.083,10.717 16.841 C 10.623 16.432,10.215 16.177,9.815 16.277 M13.815 17.278 C 13.331 17.393,13.098 18.004,13.383 18.408 C 13.447 18.499,13.572 18.610,13.660 18.656 C 13.815 18.738,13.880 18.740,15.875 18.752 C 18.208 18.765,18.281 18.759,18.519 18.521 C 18.918 18.122,18.731 17.423,18.189 17.286 C 17.980 17.234,14.031 17.226,13.815 17.278 " stroke="none" fill-rule="evenodd" fill="black"></path></svg>