<svg width="24" height="24" viewBox="0 0 24 24" fill="none" xmlns="http://www.w3.org/2000/svg"><path d="M15.547 1.440 C 14.733 1.540,13.919 1.965,13.120 2.707 C 12.431 3.347,4.367 11.918,4.189 12.200 C 3.978 12.534,3.777 13.000,3.703 13.324 C 3.609 13.738,3.267 16.786,3.269 17.200 C 3.272 17.866,3.461 18.365,3.880 18.813 C 4.152 19.104,4.522 19.321,4.925 19.425 C 5.391 19.545,5.757 19.514,7.560 19.203 C 8.473 19.046,9.328 18.890,9.460 18.857 C 9.770 18.780,10.356 18.493,10.654 18.273 C 10.869 18.113,19.065 9.478,19.569 8.880 C 20.044 8.316,20.387 7.719,20.580 7.120 C 20.669 6.844,20.694 6.681,20.710 6.256 C 20.728 5.783,20.720 5.693,20.625 5.326 C 20.399 4.447,19.801 3.551,18.920 2.772 C 17.769 1.754,16.636 1.306,15.547 1.440 M16.416 2.981 C 17.042 3.144,17.821 3.695,18.450 4.420 C 19.412 5.529,19.483 6.465,18.690 7.581 C 18.499 7.850,18.165 8.223,17.387 9.034 L 17.028 9.408 16.784 9.358 C 16.013 9.199,15.069 8.730,14.478 8.213 C 13.899 7.706,13.424 7.100,13.117 6.479 C 12.946 6.132,12.720 5.491,12.720 5.351 C 12.720 5.215,14.062 3.811,14.521 3.466 C 15.171 2.977,15.792 2.818,16.416 2.981 M11.560 6.659 C 11.560 6.747,11.979 7.557,12.182 7.860 C 12.699 8.632,13.399 9.329,14.183 9.851 C 14.594 10.124,15.251 10.455,15.630 10.578 C 15.817 10.639,15.835 10.654,15.790 10.716 C 15.763 10.754,14.405 12.197,12.773 13.923 C 9.710 17.162,9.665 17.206,9.200 17.374 C 8.965 17.459,5.792 18.000,5.528 18.000 C 5.281 18.000,5.136 17.949,4.985 17.807 C 4.825 17.658,4.760 17.483,4.760 17.200 C 4.760 16.902,5.107 13.842,5.166 13.621 C 5.299 13.119,5.313 13.103,8.483 9.746 C 10.138 7.995,11.507 6.572,11.526 6.583 C 11.545 6.595,11.560 6.629,11.560 6.659 M2.815 21.278 C 2.331 21.393,2.098 22.004,2.383 22.408 C 2.448 22.499,2.572 22.610,2.660 22.656 L 2.820 22.740 11.880 22.751 C 18.373 22.758,21.001 22.749,21.154 22.717 C 21.902 22.562,21.929 21.473,21.189 21.286 C 20.978 21.233,3.036 21.225,2.815 21.278 " stroke="none" fill-rule="evenodd" fill="black"></path></svg>