<svg width="24" height="24" viewBox="0 0 24 24" fill="none" xmlns="http://www.w3.org/2000/svg"><path d="M17.920 1.057 C 17.564 1.136,17.281 1.239,16.940 1.414 C 16.224 1.782,16.039 1.954,11.655 6.337 C 8.982 9.008,7.433 10.586,7.330 10.740 C 7.123 11.052,6.985 11.327,6.881 11.637 C 6.772 11.961,6.320 15.104,6.320 15.539 C 6.320 16.151,6.510 16.628,6.920 17.045 C 7.339 17.470,7.851 17.680,8.468 17.680 C 8.854 17.680,12.026 17.231,12.302 17.137 C 12.641 17.022,12.917 16.888,13.214 16.694 C 13.431 16.552,14.416 15.594,17.294 12.724 C 21.165 8.864,21.896 8.111,22.222 7.655 C 22.498 7.268,22.742 6.784,22.864 6.380 C 22.956 6.073,22.973 5.946,22.974 5.520 C 22.975 5.173,22.955 4.943,22.908 4.767 C 22.690 3.954,22.255 3.252,21.501 2.499 C 20.702 1.699,19.923 1.229,19.122 1.060 C 18.785 0.989,18.231 0.988,17.920 1.057 M8.080 1.282 C 4.008 1.495,1.895 3.296,1.383 6.991 C 1.270 7.803,1.242 8.816,1.242 12.000 C 1.242 15.184,1.270 16.197,1.383 17.009 C 1.767 19.784,3.048 21.470,5.356 22.242 C 6.191 22.521,6.998 22.657,8.193 22.720 C 9.162 22.771,14.838 22.771,15.807 22.720 C 17.002 22.657,17.809 22.521,18.644 22.242 C 20.966 21.466,22.225 19.797,22.622 16.973 C 22.749 16.066,22.812 13.287,22.716 12.838 C 22.575 12.182,21.713 12.051,21.353 12.631 C 21.260 12.779,21.260 12.788,21.235 14.580 C 21.207 16.526,21.184 16.785,20.960 17.688 C 20.504 19.519,19.520 20.504,17.688 20.960 C 16.622 21.226,16.745 21.220,12.000 21.220 C 8.064 21.220,7.661 21.214,7.240 21.148 C 4.450 20.713,3.283 19.551,2.854 16.780 C 2.785 16.335,2.780 15.989,2.780 12.000 C 2.780 8.011,2.785 7.665,2.854 7.220 C 3.234 4.761,4.210 3.575,6.288 3.044 C 7.165 2.820,7.506 2.790,9.420 2.764 C 11.037 2.742,11.192 2.734,11.332 2.664 C 11.928 2.369,11.832 1.448,11.189 1.286 C 10.982 1.234,9.049 1.232,8.080 1.282 M19.051 2.601 C 19.914 2.866,21.126 4.085,21.408 4.969 C 21.525 5.339,21.518 5.750,21.387 6.091 C 21.211 6.549,20.949 6.899,20.270 7.587 L 19.630 8.235 19.425 8.155 C 17.818 7.526,16.389 6.084,15.819 4.514 L 15.767 4.368 16.413 3.730 C 17.572 2.585,18.169 2.330,19.051 2.601 M15.263 6.650 C 16.028 7.749,16.969 8.588,18.112 9.192 L 18.477 9.384 15.428 12.428 C 12.369 15.483,12.291 15.555,11.874 15.702 C 11.632 15.788,8.608 16.210,8.387 16.189 C 8.066 16.159,7.841 15.934,7.811 15.613 C 7.800 15.497,7.884 14.778,8.020 13.820 C 8.222 12.402,8.262 12.188,8.371 11.940 C 8.490 11.668,8.584 11.569,11.555 8.592 L 14.616 5.523 14.825 5.921 C 14.939 6.140,15.136 6.468,15.263 6.650 " stroke="none" fill-rule="evenodd" fill="black"></path></svg>