<svg width="24" height="24" viewBox="0 0 24 24" fill="none" xmlns="http://www.w3.org/2000/svg"><path d="M9.420 1.260 C 9.398 1.267,9.331 1.284,9.271 1.297 C 9.124 1.329,8.881 1.548,8.814 1.708 C 8.773 1.807,8.760 2.119,8.760 3.031 L 8.760 4.224 8.270 4.270 C 7.677 4.325,7.371 4.423,6.978 4.686 C 6.578 4.954,6.243 5.330,6.045 5.733 C 5.761 6.313,5.760 6.324,5.761 9.488 C 5.762 12.831,5.780 13.058,6.124 13.916 C 6.658 15.250,7.778 16.224,9.194 16.584 C 9.571 16.680,10.356 16.760,10.929 16.760 L 11.237 16.760 11.249 19.490 L 11.260 22.220 11.353 22.369 C 11.710 22.943,12.576 22.812,12.716 22.162 C 12.746 22.024,12.760 21.104,12.760 19.358 L 12.760 16.760 13.090 16.759 C 14.819 16.754,15.919 16.364,16.893 15.409 C 17.496 14.819,17.894 14.083,18.131 13.120 C 18.212 12.793,18.215 12.665,18.229 9.716 C 18.245 6.264,18.249 6.321,17.955 5.720 C 17.821 5.445,17.723 5.315,17.444 5.039 C 16.913 4.514,16.446 4.312,15.638 4.256 L 15.240 4.229 15.240 3.037 C 15.240 2.292,15.224 1.803,15.197 1.733 C 15.095 1.460,14.807 1.269,14.500 1.269 C 14.193 1.269,13.905 1.460,13.803 1.733 C 13.776 1.803,13.760 2.294,13.760 3.043 L 13.760 4.240 12.000 4.240 L 10.240 4.240 10.240 3.043 C 10.240 2.294,10.224 1.803,10.197 1.733 C 10.146 1.597,9.977 1.412,9.840 1.342 C 9.732 1.287,9.485 1.238,9.420 1.260 M16.060 5.854 C 16.170 5.906,16.338 6.033,16.433 6.136 C 16.761 6.494,16.740 6.252,16.740 9.600 C 16.740 12.566,16.740 12.582,16.650 12.916 C 16.351 14.032,15.592 14.811,14.495 15.129 C 14.184 15.219,14.151 15.220,12.000 15.220 C 9.615 15.220,9.659 15.224,9.060 14.972 C 8.433 14.708,7.810 14.089,7.541 13.460 C 7.259 12.802,7.232 12.428,7.247 9.280 L 7.260 6.660 7.352 6.460 C 7.492 6.156,7.742 5.920,8.035 5.815 C 8.150 5.774,8.986 5.763,12.020 5.762 L 15.860 5.761 16.060 5.854 " stroke="none" fill-rule="evenodd" fill="black"></path></svg>