<svg width="24" height="24" viewBox="0 0 24 24" fill="none" xmlns="http://www.w3.org/2000/svg"><path d="M3.740 1.282 C 2.679 1.370,1.928 1.819,1.560 2.583 C 1.309 3.103,1.243 3.610,1.243 5.000 C 1.243 6.431,1.309 6.909,1.585 7.474 C 1.944 8.210,2.684 8.626,3.800 8.720 C 4.401 8.771,8.133 8.771,8.700 8.720 C 10.062 8.599,10.845 8.004,11.146 6.860 C 11.212 6.610,11.220 6.408,11.220 5.000 C 11.220 3.592,11.212 3.390,11.146 3.140 C 10.953 2.406,10.561 1.900,9.960 1.607 C 9.539 1.401,9.264 1.330,8.700 1.280 C 8.195 1.235,4.280 1.236,3.740 1.282 M15.236 1.282 C 14.192 1.375,13.431 1.825,13.073 2.561 C 12.764 3.196,12.780 2.929,12.780 7.500 C 12.780 11.339,12.784 11.597,12.854 11.860 C 13.047 12.594,13.439 13.100,14.040 13.393 C 14.461 13.599,14.736 13.670,15.300 13.720 C 15.867 13.771,19.599 13.771,20.200 13.720 C 21.546 13.607,22.341 13.023,22.621 11.940 C 22.739 11.484,22.757 10.886,22.757 7.500 C 22.757 4.114,22.739 3.516,22.621 3.060 C 22.342 1.984,21.553 1.399,20.220 1.280 C 19.712 1.235,15.748 1.236,15.236 1.282 M9.131 2.839 C 9.393 2.935,9.591 3.138,9.670 3.393 C 9.731 3.591,9.740 3.796,9.740 5.000 C 9.740 6.603,9.721 6.731,9.441 6.970 C 9.146 7.222,9.229 7.215,6.400 7.231 C 3.714 7.245,3.505 7.235,3.194 7.077 C 3.009 6.983,2.907 6.840,2.824 6.563 C 2.729 6.242,2.729 3.758,2.824 3.437 C 2.938 3.056,3.085 2.920,3.500 2.815 C 3.802 2.739,8.918 2.761,9.131 2.839 M20.448 2.805 C 20.888 2.898,21.060 3.047,21.176 3.437 C 21.233 3.630,21.240 4.080,21.240 7.500 C 21.240 10.920,21.233 11.370,21.176 11.563 C 21.093 11.840,20.991 11.983,20.806 12.077 C 20.495 12.235,20.286 12.245,17.600 12.231 C 14.771 12.215,14.854 12.222,14.559 11.970 C 14.247 11.703,14.260 11.892,14.260 7.520 C 14.260 4.362,14.270 3.621,14.315 3.444 C 14.410 3.077,14.672 2.863,15.120 2.788 C 15.368 2.746,20.245 2.762,20.448 2.805 M3.740 10.280 C 2.468 10.393,1.661 11.002,1.380 12.063 C 1.261 12.511,1.243 13.107,1.243 16.500 C 1.243 19.886,1.261 20.484,1.379 20.940 C 1.659 22.023,2.454 22.607,3.800 22.720 C 4.401 22.771,8.133 22.771,8.700 22.720 C 10.062 22.599,10.845 22.004,11.146 20.860 C 11.216 20.597,11.220 20.339,11.220 16.500 C 11.220 12.656,11.216 12.404,11.146 12.140 C 10.887 11.161,10.298 10.593,9.294 10.354 C 8.957 10.274,8.823 10.269,6.520 10.259 C 5.189 10.253,3.938 10.262,3.740 10.280 M9.131 11.839 C 9.393 11.935,9.591 12.138,9.670 12.393 C 9.735 12.603,9.740 12.912,9.740 16.500 C 9.740 20.895,9.753 20.703,9.441 20.970 C 9.146 21.222,9.229 21.215,6.400 21.231 C 3.714 21.245,3.505 21.235,3.194 21.077 C 3.009 20.983,2.907 20.840,2.824 20.563 C 2.767 20.370,2.760 19.920,2.760 16.500 C 2.760 13.080,2.767 12.630,2.824 12.437 C 2.938 12.056,3.085 11.920,3.500 11.815 C 3.802 11.739,8.918 11.761,9.131 11.839 M15.236 15.282 C 14.192 15.375,13.431 15.825,13.073 16.561 C 12.790 17.142,12.780 17.229,12.780 19.000 C 12.780 20.408,12.788 20.610,12.854 20.860 C 13.047 21.594,13.439 22.100,14.040 22.393 C 14.461 22.599,14.736 22.670,15.300 22.720 C 15.867 22.771,19.599 22.771,20.200 22.720 C 21.316 22.626,22.056 22.210,22.415 21.474 C 22.691 20.909,22.757 20.431,22.757 19.000 C 22.757 17.569,22.691 17.091,22.415 16.526 C 22.059 15.796,21.323 15.378,20.220 15.280 C 19.712 15.235,15.748 15.236,15.236 15.282 M20.448 16.805 C 20.888 16.898,21.060 17.047,21.176 17.437 C 21.229 17.618,21.240 17.879,21.240 19.000 C 21.240 20.121,21.229 20.382,21.176 20.563 C 21.093 20.840,20.991 20.983,20.806 21.077 C 20.495 21.235,20.286 21.245,17.600 21.231 C 14.771 21.215,14.854 21.222,14.559 20.970 C 14.280 20.731,14.260 20.601,14.260 19.020 C 14.260 17.483,14.280 17.329,14.508 17.077 C 14.637 16.934,14.851 16.833,15.120 16.788 C 15.368 16.746,20.245 16.762,20.448 16.805 " stroke="none" fill-rule="evenodd" fill="black"></path></svg>