<svg width="24" height="24" viewBox="0 0 24 24" fill="none" xmlns="http://www.w3.org/2000/svg"><path d="M3.700 1.284 C 2.634 1.381,1.923 1.798,1.558 2.540 C 1.272 3.121,1.271 3.125,1.251 5.887 C 1.232 8.614,1.255 9.132,1.419 9.619 C 1.730 10.549,2.453 11.063,3.640 11.201 C 3.894 11.231,4.846 11.240,6.520 11.230 C 9.206 11.213,9.257 11.209,9.800 10.993 C 10.494 10.718,10.953 10.181,11.149 9.416 C 11.214 9.164,11.220 8.884,11.220 6.240 C 11.220 3.597,11.214 3.317,11.150 3.080 C 10.848 1.966,10.075 1.394,8.720 1.280 C 8.171 1.234,4.214 1.237,3.700 1.284 M15.217 1.280 C 14.177 1.370,13.414 1.812,13.065 2.526 C 12.770 3.127,12.780 3.003,12.780 6.240 C 12.780 8.953,12.785 9.158,12.855 9.420 C 13.039 10.104,13.434 10.610,14.001 10.888 C 14.687 11.224,14.981 11.249,18.040 11.231 L 20.540 11.216 20.930 11.110 C 21.877 10.854,22.391 10.348,22.649 9.420 C 22.736 9.104,22.737 9.068,22.739 6.280 C 22.740 3.493,22.739 3.456,22.651 3.111 C 22.393 2.098,21.789 1.560,20.640 1.317 C 20.378 1.262,15.786 1.230,15.217 1.280 M8.968 2.805 C 9.384 2.893,9.566 3.040,9.684 3.380 C 9.763 3.605,9.767 8.852,9.689 9.108 C 9.575 9.485,9.313 9.652,8.737 9.718 C 8.274 9.772,4.251 9.772,3.780 9.719 C 3.277 9.662,3.017 9.530,2.881 9.261 L 2.780 9.062 2.780 6.241 C 2.780 3.144,2.770 3.281,3.020 3.031 C 3.120 2.931,3.370 2.826,3.600 2.788 C 3.848 2.746,8.765 2.762,8.968 2.805 M20.687 2.854 C 20.904 2.937,21.058 3.077,21.153 3.278 C 21.213 3.406,21.221 3.695,21.231 6.155 C 21.241 8.524,21.234 8.919,21.181 9.103 C 21.089 9.421,20.964 9.544,20.627 9.650 C 20.342 9.739,20.325 9.740,17.760 9.740 C 15.197 9.740,15.178 9.739,14.894 9.650 C 14.566 9.547,14.396 9.389,14.312 9.111 C 14.233 8.852,14.237 3.607,14.316 3.380 C 14.393 3.158,14.504 3.011,14.653 2.932 C 14.961 2.771,15.079 2.765,17.840 2.773 C 20.296 2.781,20.514 2.787,20.687 2.854 M3.500 12.802 C 3.129 12.856,2.619 13.035,2.368 13.200 C 1.807 13.567,1.504 14.050,1.332 14.846 C 1.267 15.148,1.260 15.425,1.260 17.740 C 1.260 19.764,1.272 20.359,1.316 20.580 C 1.519 21.603,2.014 22.241,2.823 22.522 C 3.410 22.725,3.442 22.728,5.852 22.748 C 8.189 22.768,8.907 22.742,9.380 22.617 C 10.216 22.397,10.803 21.842,11.072 21.017 C 11.232 20.526,11.247 20.187,11.232 17.520 C 11.217 15.083,11.213 14.968,11.132 14.680 C 10.957 14.056,10.684 13.619,10.280 13.314 C 10.007 13.109,9.746 12.986,9.336 12.872 C 9.026 12.785,8.970 12.783,6.380 12.775 C 4.928 12.771,3.632 12.783,3.500 12.802 M15.020 12.804 C 13.744 12.986,12.984 13.758,12.803 15.055 C 12.745 15.475,12.745 20.043,12.803 20.467 C 12.944 21.487,13.469 22.206,14.300 22.517 C 14.879 22.733,14.982 22.740,17.740 22.740 C 19.777 22.740,20.357 22.729,20.580 22.684 C 21.795 22.440,22.378 21.881,22.667 20.680 C 22.718 20.466,22.732 20.021,22.748 18.148 C 22.768 15.811,22.742 15.093,22.617 14.620 C 22.402 13.802,21.852 13.209,21.060 12.940 C 20.573 12.775,20.289 12.760,17.720 12.765 C 16.367 12.768,15.152 12.785,15.020 12.804 M9.079 14.336 C 9.364 14.430,9.570 14.636,9.664 14.921 C 9.730 15.121,9.738 15.353,9.751 17.555 C 9.766 20.132,9.752 20.389,9.580 20.740 C 9.463 20.980,9.304 21.095,8.973 21.180 C 8.757 21.235,8.393 21.242,6.133 21.232 L 3.540 21.220 3.334 21.127 C 3.084 21.014,2.992 20.921,2.872 20.660 L 2.780 20.460 2.768 17.867 C 2.756 15.063,2.762 14.960,2.972 14.649 C 3.078 14.491,3.381 14.335,3.680 14.284 C 3.803 14.264,4.997 14.251,6.380 14.255 C 8.655 14.263,8.878 14.269,9.079 14.336 M20.280 14.282 C 20.614 14.335,20.916 14.483,21.028 14.649 C 21.238 14.960,21.244 15.063,21.232 17.867 L 21.220 20.460 21.128 20.660 C 21.008 20.921,20.916 21.014,20.666 21.127 L 20.460 21.220 17.867 21.232 C 15.607 21.242,15.243 21.235,15.027 21.180 C 14.696 21.095,14.537 20.980,14.420 20.740 C 14.249 20.390,14.235 20.133,14.249 17.557 C 14.261 15.380,14.270 15.119,14.333 14.929 C 14.461 14.545,14.700 14.363,15.181 14.283 C 15.477 14.233,19.968 14.232,20.280 14.282 " stroke="none" fill-rule="evenodd" fill="black"></path></svg>