<svg width="24" height="24" viewBox="0 0 24 24" fill="none" xmlns="http://www.w3.org/2000/svg"><path d="M3.714 1.282 C 2.692 1.373,1.931 1.818,1.585 2.526 C 1.404 2.896,1.327 3.193,1.280 3.700 C 1.231 4.229,1.231 19.771,1.280 20.300 C 1.384 21.424,1.834 22.114,2.700 22.476 C 3.287 22.722,3.363 22.728,5.852 22.749 C 8.280 22.769,8.924 22.742,9.439 22.598 C 10.342 22.346,10.906 21.772,11.146 20.860 C 11.217 20.592,11.220 20.213,11.220 12.000 C 11.220 3.787,11.217 3.408,11.146 3.140 C 10.953 2.406,10.561 1.900,9.960 1.607 C 9.539 1.401,9.264 1.330,8.700 1.280 C 8.191 1.235,4.228 1.236,3.714 1.282 M15.236 1.282 C 14.192 1.375,13.431 1.825,13.073 2.561 C 12.764 3.196,12.780 2.929,12.780 7.500 C 12.780 11.339,12.784 11.597,12.854 11.860 C 13.047 12.594,13.439 13.100,14.040 13.393 C 14.461 13.599,14.736 13.670,15.300 13.720 C 15.867 13.771,19.599 13.771,20.200 13.720 C 21.546 13.607,22.341 13.023,22.621 11.940 C 22.739 11.484,22.757 10.886,22.757 7.500 C 22.757 4.114,22.739 3.516,22.621 3.060 C 22.342 1.984,21.553 1.399,20.220 1.280 C 19.712 1.235,15.748 1.236,15.236 1.282 M9.131 2.839 C 9.393 2.935,9.591 3.138,9.670 3.393 C 9.736 3.606,9.740 4.119,9.740 12.000 C 9.740 19.881,9.736 20.394,9.670 20.607 C 9.591 20.862,9.393 21.065,9.131 21.161 C 8.926 21.236,3.949 21.270,3.581 21.199 C 3.119 21.109,2.943 20.961,2.824 20.563 C 2.766 20.366,2.760 19.559,2.760 12.000 C 2.760 4.441,2.766 3.634,2.824 3.437 C 2.938 3.056,3.085 2.920,3.500 2.815 C 3.802 2.739,8.918 2.761,9.131 2.839 M20.448 2.805 C 20.888 2.898,21.060 3.047,21.176 3.437 C 21.233 3.630,21.240 4.080,21.240 7.500 C 21.240 10.920,21.233 11.370,21.176 11.563 C 21.093 11.840,20.991 11.983,20.806 12.077 C 20.495 12.235,20.286 12.245,17.600 12.231 C 14.771 12.215,14.854 12.222,14.559 11.970 C 14.247 11.703,14.260 11.892,14.260 7.520 C 14.260 4.362,14.270 3.621,14.315 3.444 C 14.410 3.077,14.672 2.863,15.120 2.788 C 15.368 2.746,20.245 2.762,20.448 2.805 M15.236 15.282 C 14.192 15.375,13.431 15.825,13.073 16.561 C 12.790 17.142,12.780 17.229,12.780 19.000 C 12.780 20.408,12.788 20.610,12.854 20.860 C 13.047 21.594,13.439 22.100,14.040 22.393 C 14.461 22.599,14.736 22.670,15.300 22.720 C 15.867 22.771,19.599 22.771,20.200 22.720 C 21.316 22.626,22.056 22.210,22.415 21.474 C 22.691 20.909,22.757 20.431,22.757 19.000 C 22.757 17.569,22.691 17.091,22.415 16.526 C 22.059 15.796,21.323 15.378,20.220 15.280 C 19.712 15.235,15.748 15.236,15.236 15.282 M20.448 16.805 C 20.888 16.898,21.060 17.047,21.176 17.437 C 21.229 17.618,21.240 17.879,21.240 19.000 C 21.240 20.121,21.229 20.382,21.176 20.563 C 21.093 20.840,20.991 20.983,20.806 21.077 C 20.495 21.235,20.286 21.245,17.600 21.231 C 14.771 21.215,14.854 21.222,14.559 20.970 C 14.280 20.731,14.260 20.601,14.260 19.020 C 14.260 17.483,14.280 17.329,14.508 17.077 C 14.637 16.934,14.851 16.833,15.120 16.788 C 15.368 16.746,20.245 16.762,20.448 16.805 " stroke="none" fill-rule="evenodd" fill="black"></path></svg>