<svg width="24" height="24" viewBox="0 0 24 24" fill="none" xmlns="http://www.w3.org/2000/svg"><path d="M3.714 1.282 C 2.692 1.373,1.931 1.818,1.585 2.526 C 1.404 2.896,1.327 3.193,1.280 3.700 C 1.231 4.229,1.231 19.771,1.280 20.300 C 1.384 21.424,1.834 22.114,2.700 22.476 C 3.287 22.722,3.363 22.728,5.852 22.749 C 8.280 22.769,8.924 22.742,9.439 22.598 C 10.342 22.346,10.906 21.772,11.146 20.860 C 11.217 20.592,11.220 20.213,11.220 12.000 C 11.220 3.787,11.217 3.408,11.146 3.140 C 10.953 2.406,10.561 1.900,9.960 1.607 C 9.539 1.401,9.264 1.330,8.700 1.280 C 8.191 1.235,4.228 1.236,3.714 1.282 M15.217 1.280 C 14.177 1.370,13.414 1.812,13.065 2.526 C 12.770 3.127,12.780 3.003,12.780 6.240 C 12.780 8.953,12.785 9.158,12.855 9.420 C 13.039 10.104,13.434 10.610,14.001 10.888 C 14.687 11.224,14.981 11.249,18.040 11.231 L 20.540 11.216 20.930 11.110 C 21.877 10.854,22.391 10.348,22.649 9.420 C 22.736 9.104,22.737 9.068,22.739 6.280 C 22.740 3.493,22.739 3.456,22.651 3.111 C 22.393 2.098,21.789 1.560,20.640 1.317 C 20.378 1.262,15.786 1.230,15.217 1.280 M9.131 2.839 C 9.393 2.935,9.591 3.138,9.670 3.393 C 9.736 3.606,9.740 4.119,9.740 12.000 C 9.740 19.881,9.736 20.394,9.670 20.607 C 9.591 20.862,9.393 21.065,9.131 21.161 C 8.926 21.236,3.949 21.270,3.581 21.199 C 3.119 21.109,2.943 20.961,2.824 20.563 C 2.766 20.366,2.760 19.559,2.760 12.000 C 2.760 4.441,2.766 3.634,2.824 3.437 C 2.938 3.056,3.085 2.920,3.500 2.815 C 3.802 2.739,8.918 2.761,9.131 2.839 M20.687 2.854 C 20.904 2.937,21.058 3.077,21.153 3.278 C 21.213 3.406,21.221 3.695,21.231 6.155 C 21.241 8.524,21.234 8.919,21.181 9.103 C 21.089 9.421,20.964 9.544,20.627 9.650 C 20.342 9.739,20.325 9.740,17.760 9.740 C 15.197 9.740,15.178 9.739,14.894 9.650 C 14.566 9.547,14.396 9.389,14.312 9.111 C 14.233 8.852,14.237 3.607,14.316 3.380 C 14.393 3.158,14.504 3.011,14.653 2.932 C 14.961 2.771,15.079 2.765,17.840 2.773 C 20.296 2.781,20.514 2.787,20.687 2.854 M15.020 12.804 C 13.744 12.986,12.984 13.758,12.803 15.055 C 12.745 15.475,12.745 20.043,12.803 20.467 C 12.944 21.487,13.469 22.206,14.300 22.517 C 14.879 22.733,14.982 22.740,17.740 22.740 C 19.777 22.740,20.357 22.729,20.580 22.684 C 21.795 22.440,22.378 21.881,22.667 20.680 C 22.718 20.466,22.732 20.021,22.748 18.148 C 22.768 15.811,22.742 15.093,22.617 14.620 C 22.402 13.802,21.852 13.209,21.060 12.940 C 20.573 12.775,20.289 12.760,17.720 12.765 C 16.367 12.768,15.152 12.785,15.020 12.804 M20.280 14.282 C 20.614 14.335,20.916 14.483,21.028 14.649 C 21.238 14.960,21.244 15.063,21.232 17.867 L 21.220 20.460 21.128 20.660 C 21.008 20.921,20.916 21.014,20.666 21.127 L 20.460 21.220 17.867 21.232 C 15.607 21.242,15.243 21.235,15.027 21.180 C 14.696 21.095,14.537 20.980,14.420 20.740 C 14.249 20.390,14.235 20.133,14.249 17.557 C 14.261 15.380,14.270 15.119,14.333 14.929 C 14.461 14.545,14.700 14.363,15.181 14.283 C 15.477 14.233,19.968 14.232,20.280 14.282 " stroke="none" fill-rule="evenodd" fill="black"></path></svg>