<svg width="24" height="24" viewBox="0 0 24 24" fill="none" xmlns="http://www.w3.org/2000/svg"><path d="M8.080 1.282 C 4.008 1.495,1.895 3.296,1.383 6.991 C 1.270 7.803,1.242 8.816,1.242 12.000 C 1.242 16.504,1.302 17.273,1.760 18.650 C 2.532 20.963,4.206 22.226,7.027 22.622 C 7.786 22.728,8.902 22.759,12.000 22.759 C 15.098 22.759,16.214 22.728,16.973 22.622 C 19.443 22.275,20.996 21.288,21.897 19.490 C 22.379 18.530,22.638 17.369,22.720 15.807 C 22.771 14.838,22.771 9.162,22.720 8.193 C 22.657 6.998,22.521 6.191,22.242 5.356 C 21.632 3.531,20.469 2.367,18.650 1.760 C 17.788 1.473,17.023 1.344,15.806 1.280 C 14.952 1.235,8.952 1.237,8.080 1.282 M16.800 2.854 C 19.586 3.316,20.714 4.454,21.148 7.240 C 21.214 7.661,21.220 8.064,21.220 12.000 C 21.220 15.936,21.214 16.339,21.148 16.760 C 20.712 19.558,19.558 20.712,16.760 21.148 C 16.339 21.214,15.936 21.220,12.000 21.220 C 8.064 21.220,7.661 21.214,7.240 21.148 C 4.450 20.713,3.283 19.551,2.854 16.780 C 2.785 16.335,2.780 15.989,2.780 12.000 C 2.780 7.247,2.776 7.337,3.044 6.288 C 3.557 4.282,4.722 3.274,6.960 2.900 C 7.690 2.777,8.048 2.769,12.200 2.777 C 15.963 2.784,16.422 2.791,16.800 2.854 M6.619 7.617 C 6.309 7.803,6.170 8.272,6.332 8.585 C 6.426 8.766,6.808 9.099,7.156 9.304 C 8.254 9.948,9.789 9.865,10.780 9.108 C 11.242 8.755,11.371 8.569,11.371 8.257 C 11.371 7.835,11.060 7.520,10.644 7.520 C 10.402 7.520,10.279 7.576,10.013 7.806 C 9.907 7.898,9.703 8.029,9.560 8.097 C 9.314 8.213,9.273 8.220,8.820 8.220 C 8.367 8.220,8.326 8.213,8.080 8.097 C 7.937 8.029,7.733 7.898,7.627 7.806 C 7.360 7.575,7.238 7.520,6.992 7.520 C 6.840 7.521,6.735 7.548,6.619 7.617 M12.979 7.617 C 12.669 7.803,12.530 8.272,12.692 8.585 C 12.786 8.766,13.168 9.099,13.516 9.304 C 14.614 9.948,16.149 9.865,17.140 9.108 C 17.602 8.755,17.731 8.569,17.731 8.257 C 17.731 7.835,17.420 7.520,17.004 7.520 C 16.762 7.520,16.639 7.576,16.373 7.806 C 16.267 7.898,16.063 8.029,15.920 8.097 C 15.674 8.213,15.633 8.220,15.180 8.220 C 14.727 8.220,14.686 8.213,14.440 8.097 C 14.297 8.029,14.093 7.898,13.987 7.806 C 13.720 7.575,13.598 7.520,13.352 7.520 C 13.200 7.521,13.095 7.548,12.979 7.617 M8.134 12.280 C 7.539 12.367,7.001 12.844,6.824 13.439 C 6.745 13.705,6.742 14.223,6.817 14.680 C 7.014 15.875,7.507 16.832,8.355 17.666 C 9.309 18.606,10.610 19.127,12.000 19.127 C 13.911 19.127,15.579 18.163,16.557 16.494 C 17.086 15.591,17.372 14.202,17.180 13.467 C 17.019 12.849,16.477 12.371,15.830 12.278 C 15.531 12.235,8.430 12.237,8.134 12.280 M15.741 13.845 C 15.798 14.023,15.674 14.773,15.519 15.190 C 15.053 16.445,13.921 17.391,12.640 17.597 C 12.307 17.651,11.693 17.651,11.360 17.597 C 9.935 17.368,8.690 16.204,8.363 14.795 C 8.269 14.391,8.222 13.960,8.259 13.845 L 8.285 13.760 12.000 13.760 L 15.715 13.760 15.741 13.845 " stroke="none" fill-rule="evenodd" fill="black"></path></svg>