<svg width="24" height="24" viewBox="0 0 24 24" fill="none" xmlns="http://www.w3.org/2000/svg"><path d="M8.080 1.282 C 4.008 1.495,1.895 3.296,1.383 6.991 C 1.270 7.803,1.242 8.816,1.242 12.000 C 1.242 16.504,1.302 17.273,1.760 18.650 C 2.532 20.963,4.206 22.226,7.027 22.622 C 7.786 22.728,8.902 22.759,12.000 22.759 C 15.098 22.759,16.214 22.728,16.973 22.622 C 19.443 22.275,20.996 21.288,21.897 19.490 C 22.379 18.530,22.638 17.369,22.720 15.807 C 22.771 14.838,22.771 9.162,22.720 8.193 C 22.657 6.998,22.521 6.191,22.242 5.356 C 21.632 3.531,20.469 2.367,18.650 1.760 C 17.788 1.473,17.023 1.344,15.806 1.280 C 14.952 1.235,8.952 1.237,8.080 1.282 M16.800 2.854 C 19.586 3.316,20.714 4.454,21.148 7.240 C 21.214 7.661,21.220 8.064,21.220 12.000 C 21.220 15.936,21.214 16.339,21.148 16.760 C 20.712 19.558,19.558 20.712,16.760 21.148 C 16.339 21.214,15.936 21.220,12.000 21.220 C 8.064 21.220,7.661 21.214,7.240 21.148 C 4.450 20.713,3.283 19.551,2.854 16.780 C 2.785 16.335,2.780 15.989,2.780 12.000 C 2.780 7.247,2.776 7.337,3.044 6.288 C 3.557 4.282,4.722 3.274,6.960 2.900 C 7.690 2.777,8.048 2.769,12.200 2.777 C 15.963 2.784,16.422 2.791,16.800 2.854 M8.000 6.063 C 7.266 6.222,6.625 6.800,6.369 7.536 C 6.290 7.763,6.270 7.900,6.269 8.220 C 6.267 8.882,6.463 9.377,6.901 9.816 C 7.362 10.279,7.847 10.480,8.500 10.480 C 9.153 10.480,9.638 10.279,10.099 9.816 C 10.526 9.388,10.731 8.882,10.730 8.261 C 10.729 7.582,10.553 7.153,10.080 6.677 C 9.511 6.105,8.789 5.892,8.000 6.063 M15.000 6.063 C 14.266 6.222,13.625 6.800,13.369 7.536 C 13.290 7.763,13.270 7.900,13.269 8.220 C 13.267 8.882,13.463 9.377,13.901 9.816 C 14.362 10.279,14.847 10.480,15.500 10.480 C 16.153 10.480,16.638 10.279,17.099 9.816 C 17.526 9.388,17.731 8.882,17.730 8.261 C 17.729 7.582,17.553 7.153,17.080 6.677 C 16.511 6.105,15.789 5.892,15.000 6.063 M8.840 7.582 C 9.376 7.855,9.371 8.653,8.832 8.914 C 8.208 9.216,7.547 8.588,7.814 7.948 C 7.881 7.788,8.124 7.569,8.271 7.537 C 8.331 7.524,8.398 7.507,8.420 7.500 C 8.485 7.478,8.732 7.527,8.840 7.582 M15.840 7.582 C 16.376 7.855,16.371 8.653,15.832 8.914 C 15.208 9.216,14.547 8.588,14.814 7.948 C 14.881 7.788,15.124 7.569,15.271 7.537 C 15.331 7.524,15.398 7.507,15.420 7.500 C 15.485 7.478,15.732 7.527,15.840 7.582 M7.960 12.617 C 7.675 12.697,7.460 12.824,7.242 13.042 C 6.902 13.382,6.761 13.750,6.761 14.300 C 6.760 15.008,6.962 15.819,7.320 16.540 C 8.727 19.380,12.291 20.309,14.956 18.530 C 15.397 18.236,16.036 17.597,16.330 17.156 C 16.897 16.306,17.240 15.229,17.239 14.300 C 17.239 13.750,17.098 13.382,16.758 13.042 C 16.534 12.818,16.322 12.695,16.020 12.614 C 15.737 12.539,8.232 12.542,7.960 12.617 M15.721 14.101 C 15.779 14.171,15.753 14.575,15.663 15.001 C 15.367 16.406,14.221 17.547,12.781 17.871 C 12.606 17.911,12.310 17.935,12.000 17.935 C 11.438 17.935,11.113 17.875,10.611 17.682 C 9.494 17.251,8.585 16.179,8.337 15.001 C 8.247 14.575,8.221 14.171,8.279 14.101 C 8.324 14.047,8.768 14.040,12.000 14.040 C 15.232 14.040,15.676 14.047,15.721 14.101 " stroke="none" fill-rule="evenodd" fill="black"></path></svg>