<svg width="24" height="24" viewBox="0 0 24 24" fill="none" xmlns="http://www.w3.org/2000/svg"><path d="M12.200 1.416 C 11.938 1.497,4.536 4.287,3.910 4.541 C 3.554 4.685,3.045 5.042,2.754 5.351 C 2.279 5.855,1.973 6.437,1.836 7.100 C 1.766 7.437,1.761 7.712,1.761 11.495 L 1.760 15.530 1.510 15.796 C 0.436 16.940,0.007 18.681,0.419 20.227 C 0.611 20.948,1.035 21.701,1.567 22.263 C 3.166 23.955,5.823 24.230,7.688 22.898 L 7.875 22.764 13.088 22.749 C 17.670 22.736,18.334 22.726,18.583 22.670 C 20.369 22.269,21.650 21.051,22.108 19.320 C 22.188 19.018,22.213 18.809,22.229 18.298 L 22.250 17.657 22.470 17.518 C 22.910 17.241,23.216 16.763,23.283 16.250 C 23.328 15.900,23.328 14.100,23.283 13.750 C 23.216 13.235,22.909 12.757,22.465 12.480 L 22.241 12.340 22.241 11.735 C 22.240 11.371,22.215 10.989,22.178 10.775 C 21.830 8.779,20.255 7.278,18.260 7.043 C 18.062 7.019,17.383 7.000,16.750 7.000 L 15.600 7.000 15.600 5.384 C 15.600 4.155,15.586 3.696,15.543 3.471 C 15.385 2.642,14.883 1.971,14.145 1.602 C 13.705 1.383,13.429 1.320,12.922 1.322 C 12.600 1.324,12.429 1.346,12.200 1.416 M13.343 2.867 C 13.587 2.950,13.958 3.308,14.038 3.540 C 14.081 3.664,14.098 4.075,14.110 5.350 L 14.126 7.000 10.113 7.000 C 7.538 7.000,5.971 7.015,5.740 7.043 C 4.903 7.141,4.163 7.446,3.490 7.967 L 3.240 8.161 3.240 7.954 C 3.240 7.166,3.636 6.418,4.246 6.051 C 4.406 5.955,11.496 3.240,12.569 2.864 C 12.797 2.784,13.102 2.785,13.343 2.867 M18.041 8.518 C 18.750 8.591,19.372 8.893,19.868 9.404 C 20.182 9.729,20.240 9.804,20.413 10.121 C 20.644 10.542,20.724 10.893,20.749 11.586 L 20.770 12.191 19.835 12.210 C 18.801 12.230,18.685 12.251,18.180 12.512 C 17.772 12.723,17.192 13.314,16.989 13.725 C 16.754 14.202,16.665 14.613,16.690 15.119 C 16.726 15.860,16.978 16.425,17.502 16.940 C 17.809 17.242,18.095 17.431,18.481 17.587 C 18.903 17.757,19.202 17.799,20.016 17.799 L 20.772 17.800 20.748 18.290 C 20.723 18.788,20.679 19.008,20.522 19.399 C 20.279 20.003,19.684 20.633,19.071 20.932 C 18.409 21.256,18.688 21.240,13.665 21.240 L 9.206 21.240 9.340 20.930 C 10.134 19.097,9.751 17.038,8.357 15.643 C 7.457 14.744,6.228 14.239,4.941 14.240 C 4.509 14.241,3.700 14.392,3.291 14.549 C 3.239 14.569,3.234 14.347,3.249 12.776 C 3.267 11.011,3.269 10.974,3.365 10.659 C 3.581 9.951,4.142 9.245,4.778 8.881 C 5.061 8.719,5.570 8.556,5.900 8.521 C 6.298 8.478,17.629 8.476,18.041 8.518 M6.815 11.278 C 6.331 11.393,6.098 12.004,6.383 12.408 C 6.447 12.499,6.572 12.610,6.660 12.656 C 6.818 12.739,6.858 12.740,10.379 12.751 C 12.882 12.759,14.001 12.749,14.152 12.717 C 14.902 12.562,14.930 11.473,14.189 11.286 C 13.979 11.234,7.034 11.226,6.815 11.278 M21.727 13.786 C 21.794 13.847,21.800 13.939,21.800 15.000 C 21.800 16.074,21.795 16.152,21.724 16.216 C 21.656 16.278,21.533 16.283,20.414 16.272 L 19.180 16.260 18.927 16.123 C 18.415 15.845,18.174 15.437,18.209 14.905 C 18.243 14.377,18.565 13.958,19.075 13.775 C 19.181 13.737,19.547 13.723,20.437 13.722 C 21.515 13.720,21.662 13.728,21.727 13.786 M5.820 15.852 C 6.967 16.178,7.828 17.039,8.147 18.180 C 8.298 18.721,8.244 19.587,8.026 20.145 C 7.699 20.978,6.998 21.704,6.217 22.017 C 5.626 22.253,4.852 22.310,4.256 22.161 C 2.543 21.730,1.470 20.040,1.824 18.328 C 2.081 17.084,3.083 16.092,4.360 15.818 C 4.679 15.750,5.528 15.770,5.820 15.852 M6.258 17.336 C 6.191 17.365,5.757 17.741,5.294 18.172 L 4.452 18.954 4.196 18.695 C 3.841 18.336,3.720 18.267,3.440 18.267 C 2.941 18.267,2.622 18.681,2.730 19.189 C 2.767 19.362,2.827 19.437,3.355 19.974 C 3.677 20.300,4.011 20.604,4.097 20.648 C 4.311 20.758,4.661 20.735,4.853 20.598 C 5.055 20.452,7.110 18.533,7.184 18.419 C 7.287 18.263,7.327 18.015,7.279 17.837 C 7.227 17.644,7.026 17.407,6.852 17.334 C 6.689 17.266,6.417 17.267,6.258 17.336 " stroke="none" fill-rule="evenodd" fill="black"></path></svg>