<svg width="24" height="24" viewBox="0 0 24 24" fill="none" xmlns="http://www.w3.org/2000/svg"><path d="M12.361 1.369 C 12.211 1.402,4.646 4.242,3.907 4.542 C 3.554 4.686,3.044 5.043,2.754 5.351 C 2.279 5.855,1.973 6.437,1.836 7.100 C 1.766 7.437,1.761 7.712,1.761 11.495 L 1.760 15.530 1.510 15.796 C 0.474 16.900,0.037 18.560,0.383 20.079 C 0.776 21.807,2.193 23.225,3.919 23.617 C 4.762 23.809,5.770 23.759,6.560 23.487 C 6.861 23.383,7.331 23.143,7.620 22.945 L 7.860 22.780 13.080 22.757 C 17.644 22.736,18.336 22.726,18.583 22.670 C 20.368 22.270,21.650 21.051,22.108 19.320 C 22.188 19.018,22.213 18.809,22.229 18.298 L 22.250 17.657 22.470 17.518 C 22.910 17.241,23.216 16.763,23.283 16.250 C 23.328 15.900,23.328 14.100,23.283 13.750 C 23.216 13.235,22.909 12.757,22.465 12.480 L 22.241 12.340 22.241 11.735 C 22.240 11.371,22.215 10.989,22.178 10.775 C 21.830 8.779,20.255 7.278,18.260 7.043 C 18.062 7.019,17.383 7.000,16.750 7.000 L 15.600 7.000 15.600 5.384 C 15.600 3.667,15.579 3.412,15.401 2.961 C 15.105 2.214,14.405 1.601,13.618 1.399 C 13.278 1.312,12.678 1.298,12.361 1.369 M13.343 2.867 C 13.587 2.950,13.958 3.308,14.038 3.540 C 14.081 3.664,14.098 4.075,14.110 5.350 L 14.126 7.000 10.113 7.000 C 7.538 7.000,5.971 7.015,5.740 7.043 C 4.903 7.141,4.163 7.446,3.490 7.967 L 3.240 8.161 3.240 7.954 C 3.240 7.166,3.636 6.418,4.246 6.051 C 4.406 5.955,11.496 3.240,12.569 2.864 C 12.797 2.784,13.102 2.785,13.343 2.867 M18.041 8.518 C 18.750 8.591,19.372 8.893,19.868 9.404 C 20.182 9.729,20.240 9.804,20.413 10.121 C 20.644 10.542,20.724 10.893,20.749 11.586 L 20.770 12.191 19.835 12.210 C 18.801 12.230,18.685 12.251,18.180 12.512 C 17.772 12.723,17.192 13.314,16.989 13.725 C 16.754 14.202,16.665 14.613,16.690 15.119 C 16.726 15.860,16.978 16.425,17.502 16.940 C 17.809 17.242,18.095 17.431,18.481 17.587 C 18.903 17.757,19.202 17.799,20.016 17.799 L 20.772 17.800 20.748 18.290 C 20.723 18.788,20.679 19.008,20.522 19.399 C 20.279 20.003,19.684 20.633,19.071 20.932 C 18.409 21.256,18.689 21.240,13.662 21.240 C 11.208 21.240,9.200 21.230,9.200 21.219 C 9.200 21.207,9.225 21.157,9.256 21.109 C 9.287 21.060,9.376 20.849,9.453 20.640 C 10.097 18.900,9.671 16.957,8.357 15.643 C 7.457 14.744,6.228 14.239,4.941 14.240 C 4.509 14.241,3.700 14.392,3.291 14.549 C 3.239 14.569,3.234 14.347,3.249 12.776 C 3.267 11.011,3.269 10.974,3.365 10.659 C 3.581 9.951,4.142 9.245,4.778 8.881 C 5.061 8.719,5.570 8.556,5.900 8.521 C 6.298 8.478,17.629 8.476,18.041 8.518 M6.815 11.278 C 6.331 11.393,6.098 12.004,6.383 12.408 C 6.447 12.499,6.572 12.610,6.660 12.656 C 6.818 12.739,6.858 12.740,10.379 12.751 C 12.882 12.759,14.001 12.749,14.152 12.717 C 14.902 12.562,14.930 11.473,14.189 11.286 C 13.979 11.234,7.034 11.226,6.815 11.278 M21.727 13.786 C 21.794 13.847,21.800 13.939,21.800 15.000 C 21.800 16.074,21.795 16.152,21.724 16.216 C 21.656 16.278,21.533 16.283,20.414 16.272 L 19.180 16.260 18.927 16.123 C 18.415 15.845,18.174 15.437,18.209 14.905 C 18.243 14.377,18.565 13.958,19.075 13.775 C 19.181 13.737,19.547 13.723,20.437 13.722 C 21.515 13.720,21.662 13.728,21.727 13.786 M5.820 15.852 C 6.985 16.183,7.867 17.081,8.164 18.240 C 8.247 18.565,8.237 19.469,8.146 19.800 C 7.900 20.698,7.234 21.518,6.423 21.918 C 5.907 22.173,5.675 22.220,4.960 22.218 C 4.397 22.215,4.310 22.205,4.020 22.108 C 3.487 21.929,3.144 21.712,2.716 21.284 C 2.285 20.854,2.067 20.507,1.895 19.980 C 1.687 19.341,1.726 18.407,1.987 17.782 C 2.405 16.781,3.292 16.047,4.360 15.818 C 4.679 15.750,5.528 15.770,5.820 15.852 M4.961 17.061 C 4.586 17.230,4.520 17.397,4.520 18.172 C 4.520 18.709,4.511 18.795,4.450 18.848 C 4.412 18.881,4.178 19.028,3.932 19.175 C 3.457 19.459,3.355 19.561,3.284 19.825 C 3.143 20.348,3.643 20.859,4.160 20.720 C 4.379 20.661,5.690 19.868,5.816 19.718 C 5.983 19.519,6.006 19.344,5.993 18.386 C 5.980 17.534,5.976 17.495,5.887 17.370 C 5.659 17.050,5.272 16.921,4.961 17.061 " stroke="none" fill-rule="evenodd" fill="black"></path></svg>