<svg width="24" height="24" viewBox="0 0 24 24" fill="none" xmlns="http://www.w3.org/2000/svg"><path d="M14.979 1.319 C 14.302 1.415,13.623 1.710,13.100 2.134 C 12.609 2.533,2.206 12.970,1.985 13.286 C 1.521 13.948,1.306 14.637,1.307 15.460 C 1.308 16.385,1.562 17.108,2.138 17.823 C 2.503 18.277,6.048 21.791,6.360 22.009 C 7.028 22.475,7.573 22.649,8.580 22.718 C 9.440 22.776,20.889 22.774,21.162 22.716 C 21.904 22.557,21.924 21.471,21.189 21.286 C 21.054 21.253,19.732 21.240,16.293 21.240 L 11.581 21.240 16.705 16.110 C 19.923 12.888,21.896 10.883,22.010 10.720 C 22.491 10.027,22.692 9.386,22.693 8.540 C 22.694 7.716,22.478 7.025,22.014 6.366 C 21.790 6.047,18.279 2.505,17.823 2.138 C 17.351 1.757,16.856 1.515,16.276 1.382 C 15.945 1.306,15.295 1.274,14.979 1.319 M16.080 2.867 C 16.614 3.013,16.645 3.040,18.803 5.197 C 20.964 7.359,20.980 7.377,21.140 7.933 C 21.229 8.241,21.229 8.839,21.140 9.147 C 20.976 9.716,21.037 9.647,17.853 12.840 L 14.881 15.820 11.531 12.470 L 8.180 9.119 11.140 6.165 C 13.035 4.273,14.168 3.171,14.290 3.101 C 14.844 2.783,15.473 2.701,16.080 2.867 M7.830 10.890 L 8.520 11.581 5.886 14.214 L 3.251 16.848 3.171 16.734 C 3.043 16.552,2.933 16.316,2.860 16.066 C 2.771 15.760,2.771 15.161,2.860 14.853 C 3.019 14.302,3.045 14.271,5.136 12.170 C 6.214 11.087,7.107 10.200,7.119 10.200 C 7.131 10.200,7.451 10.511,7.830 10.890 M10.470 13.530 C 10.937 13.997,11.320 14.398,11.320 14.420 C 11.320 14.442,10.141 15.639,8.700 17.080 L 6.080 19.700 5.191 18.810 L 4.301 17.921 6.920 15.301 C 8.360 13.859,9.557 12.680,9.579 12.680 C 9.601 12.680,10.002 13.062,10.470 13.530 M11.860 18.835 C 10.647 20.044,9.827 20.831,9.710 20.898 C 8.964 21.328,8.039 21.319,7.341 20.877 L 7.147 20.753 9.783 18.117 L 12.420 15.480 13.120 16.181 L 13.820 16.881 11.860 18.835 " stroke="none" fill-rule="evenodd" fill="black"></path></svg>