<svg width="24" height="24" viewBox="0 0 24 24" fill="none" xmlns="http://www.w3.org/2000/svg"><path d="M8.080 1.282 C 4.008 1.495,1.895 3.296,1.383 6.991 C 1.270 7.803,1.242 8.816,1.242 12.000 C 1.242 16.504,1.302 17.273,1.760 18.650 C 2.532 20.963,4.206 22.226,7.027 22.622 C 7.786 22.728,8.902 22.759,12.000 22.759 C 15.098 22.759,16.214 22.728,16.973 22.622 C 19.443 22.275,20.996 21.288,21.897 19.490 C 22.379 18.530,22.638 17.369,22.720 15.807 C 22.771 14.838,22.771 9.162,22.720 8.193 C 22.657 6.998,22.521 6.191,22.242 5.356 C 21.632 3.531,20.469 2.367,18.650 1.760 C 17.788 1.473,17.023 1.344,15.806 1.280 C 14.952 1.235,8.952 1.237,8.080 1.282 M16.800 2.854 C 19.586 3.316,20.714 4.454,21.148 7.240 C 21.214 7.661,21.220 8.064,21.220 12.000 C 21.220 15.936,21.214 16.339,21.148 16.760 C 20.712 19.558,19.558 20.712,16.760 21.148 C 16.339 21.214,15.936 21.220,12.000 21.220 C 8.064 21.220,7.661 21.214,7.240 21.148 C 4.450 20.713,3.283 19.551,2.854 16.780 C 2.785 16.335,2.780 15.989,2.780 12.000 C 2.780 7.247,2.776 7.337,3.044 6.288 C 3.557 4.282,4.722 3.274,6.960 2.900 C 7.690 2.777,8.048 2.769,12.200 2.777 C 15.963 2.784,16.422 2.791,16.800 2.854 M13.471 5.801 C 13.162 5.853,12.901 5.954,12.633 6.126 C 12.266 6.361,6.430 12.189,6.159 12.592 C 5.923 12.941,5.801 13.306,5.771 13.744 C 5.741 14.187,5.813 14.554,6.007 14.960 C 6.165 15.288,6.213 15.343,7.355 16.494 C 8.007 17.151,8.639 17.755,8.760 17.836 C 9.167 18.112,9.594 18.240,10.100 18.240 C 10.607 18.240,11.034 18.111,11.440 17.836 C 11.561 17.754,13.048 16.295,14.743 14.593 C 17.599 11.728,17.838 11.479,17.975 11.210 C 18.289 10.599,18.326 9.793,18.069 9.180 C 17.908 8.796,17.680 8.532,16.494 7.356 C 15.401 6.272,15.275 6.160,15.000 6.025 C 14.519 5.791,13.992 5.714,13.471 5.801 M14.320 7.362 C 14.397 7.401,14.957 7.934,15.565 8.547 C 16.635 9.625,16.671 9.667,16.720 9.875 C 16.760 10.047,16.760 10.136,16.721 10.315 L 16.672 10.540 15.127 12.090 L 13.581 13.641 11.991 12.051 C 11.116 11.176,10.400 10.442,10.400 10.419 C 10.400 10.396,11.080 9.701,11.910 8.874 C 13.412 7.378,13.459 7.337,13.780 7.268 C 13.909 7.240,14.169 7.286,14.320 7.362 M11.570 15.650 C 11.048 16.173,10.559 16.629,10.485 16.665 C 10.286 16.759,10.066 16.778,9.850 16.719 C 9.678 16.672,9.553 16.561,8.547 15.564 C 7.929 14.951,7.396 14.389,7.349 14.300 C 7.239 14.093,7.233 13.719,7.336 13.520 C 7.376 13.443,7.834 12.952,8.354 12.430 L 9.299 11.479 10.909 13.089 L 12.520 14.700 11.570 15.650 " stroke="none" fill-rule="evenodd" fill="black"></path></svg>