<svg width="24" height="24" viewBox="0 0 24 24" fill="none" xmlns="http://www.w3.org/2000/svg"><path d="M8.080 1.282 C 4.008 1.495,1.895 3.296,1.383 6.991 C 1.270 7.803,1.242 8.816,1.242 12.000 C 1.242 15.184,1.270 16.197,1.383 17.009 C 1.767 19.784,3.048 21.470,5.356 22.242 C 6.191 22.521,6.998 22.657,8.193 22.720 C 9.162 22.771,14.838 22.771,15.807 22.720 C 17.002 22.657,17.809 22.521,18.644 22.242 C 20.966 21.466,22.225 19.797,22.622 16.973 C 22.749 16.066,22.812 13.287,22.716 12.838 C 22.575 12.182,21.713 12.051,21.353 12.631 C 21.260 12.779,21.260 12.788,21.235 14.580 C 21.207 16.526,21.184 16.785,20.960 17.688 C 20.504 19.519,19.520 20.504,17.688 20.960 C 16.622 21.226,16.745 21.220,12.000 21.220 C 8.064 21.220,7.661 21.214,7.240 21.148 C 4.450 20.713,3.283 19.551,2.854 16.780 C 2.785 16.335,2.780 15.989,2.780 12.000 C 2.780 8.011,2.785 7.665,2.854 7.220 C 3.234 4.761,4.210 3.575,6.288 3.044 C 7.165 2.820,7.506 2.790,9.420 2.764 C 11.037 2.742,11.192 2.734,11.332 2.664 C 11.928 2.369,11.832 1.448,11.189 1.286 C 10.982 1.234,9.049 1.232,8.080 1.282 M17.015 1.278 C 16.531 1.393,16.298 2.004,16.583 2.408 C 16.648 2.499,16.772 2.610,16.860 2.656 C 17.013 2.736,17.088 2.741,18.597 2.752 L 20.175 2.764 16.250 6.692 C 13.425 9.519,12.316 10.654,12.294 10.740 C 12.134 11.349,12.583 11.836,13.189 11.712 C 13.375 11.673,13.490 11.563,17.308 7.749 L 21.236 3.825 21.248 5.423 C 21.260 7.014,21.260 7.021,21.353 7.169 C 21.710 7.743,22.576 7.612,22.716 6.962 C 22.777 6.677,22.777 2.123,22.716 1.838 C 22.658 1.570,22.450 1.352,22.189 1.286 C 21.980 1.234,17.232 1.226,17.015 1.278 " stroke="none" fill-rule="evenodd" fill="black"></path></svg>