<svg width="24" height="24" viewBox="0 0 24 24" fill="none" xmlns="http://www.w3.org/2000/svg"><path d="M11.680 1.824 C 11.529 1.889,8.237 5.145,8.051 5.413 C 7.903 5.626,7.879 5.963,7.995 6.189 C 8.213 6.618,8.712 6.721,9.114 6.423 C 9.216 6.347,9.732 5.852,10.260 5.322 L 11.220 4.359 11.240 9.790 L 11.260 15.220 11.353 15.369 C 11.710 15.943,12.576 15.812,12.716 15.162 C 12.747 15.018,12.760 13.374,12.760 9.649 L 12.760 4.342 13.790 5.365 C 14.357 5.927,14.877 6.426,14.947 6.474 C 15.194 6.643,15.575 6.626,15.819 6.434 C 16.100 6.212,16.163 5.722,15.949 5.413 C 15.752 5.128,12.468 1.888,12.310 1.822 C 12.125 1.744,11.862 1.745,11.680 1.824 M6.980 8.219 C 4.630 8.545,3.122 9.572,2.372 11.360 C 1.998 12.250,1.827 13.127,1.758 14.495 C 1.714 15.378,1.756 16.418,1.865 17.157 C 2.222 19.569,3.386 21.089,5.400 21.774 C 5.887 21.939,6.360 22.049,7.003 22.146 C 7.407 22.207,7.944 22.216,11.620 22.230 C 15.957 22.247,16.495 22.232,17.380 22.078 C 18.798 21.830,19.764 21.370,20.592 20.550 C 21.418 19.732,21.910 18.615,22.148 17.020 C 22.252 16.318,22.251 14.121,22.146 13.380 C 21.727 10.426,20.311 8.861,17.559 8.306 C 17.103 8.214,16.424 8.147,16.263 8.177 C 16.103 8.207,15.865 8.395,15.783 8.556 C 15.634 8.846,15.678 9.149,15.905 9.400 C 16.071 9.584,16.174 9.621,16.680 9.680 C 17.455 9.770,18.134 9.962,18.693 10.251 C 19.812 10.828,20.392 11.790,20.665 13.520 C 20.777 14.232,20.769 16.140,20.651 16.880 C 20.266 19.298,19.212 20.313,16.720 20.669 C 16.266 20.733,15.835 20.740,12.020 20.740 C 8.216 20.740,7.771 20.733,7.299 20.669 C 4.826 20.331,3.770 19.349,3.355 17.000 C 3.252 16.419,3.208 14.747,3.275 14.011 C 3.532 11.218,4.658 10.018,7.340 9.676 C 7.755 9.624,7.860 9.579,8.033 9.381 C 8.185 9.209,8.215 9.103,8.192 8.821 C 8.170 8.556,8.035 8.364,7.788 8.244 C 7.595 8.150,7.500 8.147,6.980 8.219 " stroke="none" fill-rule="evenodd" fill="black"></path></svg>