<svg width="24" height="24" viewBox="0 0 24 24" fill="none" xmlns="http://www.w3.org/2000/svg"><path d="M11.560 3.263 C 11.386 3.338,8.758 5.961,8.659 6.159 C 8.572 6.332,8.568 6.662,8.651 6.821 C 8.840 7.183,9.252 7.336,9.623 7.181 C 9.703 7.148,10.054 6.836,10.441 6.456 L 11.118 5.789 11.129 10.084 C 11.141 14.820,11.122 14.477,11.386 14.727 C 11.663 14.989,12.097 14.989,12.374 14.727 C 12.638 14.477,12.619 14.820,12.631 10.084 L 12.642 5.789 13.319 6.456 C 13.706 6.836,14.057 7.148,14.137 7.181 C 14.508 7.336,14.920 7.183,15.109 6.821 C 15.192 6.662,15.188 6.332,15.102 6.159 C 14.997 5.950,12.372 3.338,12.191 3.262 C 12.005 3.184,11.742 3.185,11.560 3.263 M3.815 11.277 C 3.638 11.321,3.461 11.456,3.353 11.631 C 3.266 11.770,3.261 11.816,3.270 12.300 C 3.326 15.258,4.715 17.859,7.048 19.376 C 8.562 20.361,10.564 20.844,12.618 20.720 C 13.951 20.640,14.981 20.383,16.072 19.858 C 16.981 19.421,17.670 18.928,18.342 18.235 C 19.779 16.752,20.576 14.867,20.719 12.615 C 20.765 11.882,20.733 11.693,20.522 11.482 C 20.175 11.135,19.618 11.203,19.358 11.624 C 19.283 11.745,19.265 11.853,19.238 12.353 C 19.186 13.304,19.096 13.800,18.828 14.600 C 18.237 16.371,17.001 17.784,15.380 18.541 C 14.361 19.018,13.286 19.240,12.000 19.240 C 10.159 19.240,8.635 18.758,7.377 17.778 C 6.972 17.463,6.384 16.844,6.067 16.400 C 5.305 15.332,4.763 13.642,4.759 12.323 C 4.758 11.941,4.702 11.696,4.580 11.536 C 4.421 11.327,4.078 11.211,3.815 11.277 " stroke="none" fill-rule="evenodd" fill="black"></path></svg>