<svg width="24" height="24" viewBox="0 0 24 24" fill="none" xmlns="http://www.w3.org/2000/svg"><path d="M8.458 1.283 C 7.617 1.344,6.882 1.542,6.186 1.896 C 5.639 2.174,5.292 2.425,4.859 2.859 C 3.893 3.825,3.393 4.993,3.281 6.545 C 3.228 7.282,3.228 16.718,3.281 17.455 C 3.349 18.406,3.527 19.088,3.896 19.814 C 4.174 20.361,4.425 20.708,4.859 21.141 C 5.825 22.107,6.993 22.607,8.545 22.719 C 9.267 22.771,15.733 22.771,16.455 22.719 C 17.406 22.651,18.088 22.473,18.814 22.104 C 19.361 21.826,19.708 21.575,20.141 21.141 C 21.107 20.175,21.607 19.007,21.719 17.455 C 21.772 16.718,21.772 7.282,21.719 6.545 C 21.651 5.594,21.473 4.912,21.104 4.186 C 20.826 3.639,20.575 3.292,20.141 2.859 C 19.175 1.893,18.007 1.393,16.455 1.281 C 15.804 1.234,9.114 1.236,8.458 1.283 M17.120 2.850 C 18.746 3.254,19.746 4.255,20.150 5.880 C 20.207 6.109,20.216 6.625,20.229 10.190 L 20.243 14.240 12.500 14.240 L 4.757 14.240 4.771 10.190 C 4.787 5.771,4.774 6.015,5.021 5.320 C 5.485 4.016,6.629 3.064,8.000 2.841 C 8.165 2.815,8.327 2.787,8.360 2.780 C 8.393 2.773,10.319 2.772,12.640 2.777 C 16.375 2.784,16.890 2.793,17.120 2.850 M6.815 6.278 C 6.331 6.393,6.098 7.004,6.383 7.408 C 6.576 7.681,6.733 7.736,7.363 7.754 C 8.073 7.773,8.316 7.724,8.519 7.521 C 8.918 7.122,8.731 6.423,8.189 6.286 C 7.988 6.236,7.016 6.230,6.815 6.278 M6.720 8.805 C 6.458 8.909,6.269 9.200,6.269 9.500 C 6.269 9.727,6.339 9.889,6.506 10.047 C 6.686 10.218,6.802 10.240,7.500 10.240 C 8.198 10.240,8.314 10.218,8.494 10.047 C 8.661 9.889,8.731 9.727,8.731 9.500 C 8.731 9.193,8.540 8.905,8.267 8.803 C 8.125 8.749,6.856 8.751,6.720 8.805 M6.815 11.278 C 6.331 11.393,6.098 12.004,6.383 12.408 C 6.576 12.681,6.733 12.736,7.363 12.754 C 8.073 12.773,8.316 12.724,8.519 12.521 C 8.918 12.122,8.731 11.423,8.189 11.286 C 7.988 11.236,7.016 11.230,6.815 11.278 M20.228 16.810 C 20.206 17.923,20.182 18.110,19.979 18.680 C 19.518 19.975,18.437 20.883,17.020 21.164 C 16.607 21.246,8.393 21.246,7.980 21.164 C 6.359 20.843,5.237 19.750,4.853 18.120 C 4.810 17.937,4.786 17.549,4.772 16.810 L 4.751 15.760 12.500 15.760 L 20.249 15.760 20.228 16.810 M16.283 17.284 C 15.977 17.343,15.674 17.601,15.561 17.898 C 15.490 18.085,15.504 18.452,15.590 18.647 C 15.677 18.843,15.867 19.049,16.054 19.151 C 16.226 19.244,16.772 19.245,16.940 19.153 C 17.121 19.053,17.323 18.839,17.405 18.660 C 17.494 18.467,17.504 18.054,17.425 17.866 C 17.247 17.439,16.762 17.192,16.283 17.284 " stroke="none" fill-rule="evenodd" fill="black"></path></svg>