<svg width="24" height="24" viewBox="0 0 24 24" fill="none" xmlns="http://www.w3.org/2000/svg"><path d="M21.900 1.259 C 21.878 1.267,21.806 1.285,21.740 1.299 C 21.651 1.319,21.146 1.798,19.795 3.147 L 17.971 4.967 17.775 4.828 C 16.764 4.107,15.386 3.499,14.134 3.224 C 13.314 3.043,12.705 2.989,11.760 3.011 C 10.845 3.033,10.310 3.103,9.545 3.303 C 6.792 4.022,4.291 5.936,2.442 8.740 C 1.773 9.754,1.537 10.495,1.493 11.720 C 1.457 12.728,1.579 13.530,1.877 14.246 C 2.251 15.144,3.235 16.488,4.320 17.582 L 4.837 18.103 3.137 19.802 C 2.202 20.736,1.398 21.561,1.352 21.636 C 1.232 21.826,1.234 22.177,1.356 22.374 C 1.532 22.658,1.839 22.783,2.189 22.712 C 2.376 22.674,2.592 22.460,12.490 12.566 C 18.342 6.717,22.628 2.403,22.665 2.324 C 22.816 2.006,22.705 1.590,22.416 1.393 C 22.274 1.295,21.999 1.224,21.900 1.259 M12.832 4.521 C 13.873 4.633,14.829 4.913,15.770 5.384 C 16.200 5.600,16.880 5.998,16.880 6.035 C 16.880 6.049,16.341 6.599,15.683 7.257 L 14.486 8.453 14.199 8.279 C 13.876 8.084,13.315 7.862,12.922 7.774 C 12.778 7.741,12.443 7.705,12.177 7.692 C 9.649 7.574,7.574 9.649,7.692 12.177 C 7.705 12.443,7.741 12.778,7.774 12.922 C 7.862 13.315,8.084 13.876,8.279 14.199 L 8.453 14.487 7.175 15.764 L 5.898 17.042 5.392 16.531 C 4.640 15.770,4.182 15.208,3.640 14.375 C 3.136 13.599,2.982 13.044,2.982 12.000 C 2.983 11.330,3.015 11.085,3.166 10.600 C 3.314 10.125,3.478 9.840,4.095 8.980 C 4.675 8.173,5.713 7.083,6.445 6.512 C 7.908 5.373,9.544 4.688,11.240 4.508 C 11.551 4.475,12.467 4.482,12.832 4.521 M19.698 7.275 C 19.543 7.369,19.367 7.578,19.335 7.705 C 19.322 7.759,19.318 7.901,19.328 8.020 C 19.345 8.220,19.373 8.272,19.711 8.712 C 20.787 10.117,21.019 10.700,21.018 12.000 C 21.017 13.114,20.841 13.675,20.202 14.597 C 19.596 15.473,19.160 15.994,18.475 16.662 C 16.932 18.166,15.276 19.057,13.378 19.407 C 12.744 19.523,11.359 19.534,10.740 19.427 C 10.197 19.333,9.520 19.150,9.012 18.959 C 8.317 18.698,7.984 18.764,7.756 19.208 C 7.599 19.515,7.712 19.956,7.995 20.139 C 8.335 20.359,9.532 20.727,10.405 20.881 C 11.341 21.045,12.744 21.034,13.740 20.855 C 16.746 20.314,19.547 18.309,21.558 15.260 C 22.008 14.578,22.194 14.171,22.352 13.519 C 22.490 12.950,22.533 12.447,22.508 11.724 C 22.461 10.417,22.192 9.631,21.406 8.504 C 20.869 7.734,20.547 7.342,20.389 7.267 C 20.198 7.176,19.853 7.180,19.698 7.275 M12.725 9.259 C 12.927 9.314,13.400 9.503,13.400 9.530 C 13.400 9.536,12.528 10.412,11.463 11.477 L 9.525 13.414 9.422 13.181 C 9.241 12.771,9.185 12.494,9.184 12.000 C 9.183 11.265,9.373 10.733,9.828 10.191 C 10.288 9.644,10.897 9.302,11.620 9.186 C 11.828 9.152,12.491 9.196,12.725 9.259 M15.170 12.044 C 14.944 12.156,14.854 12.293,14.742 12.690 C 14.576 13.278,14.398 13.593,14.002 13.994 C 13.623 14.380,13.225 14.610,12.708 14.742 C 12.572 14.777,12.388 14.848,12.300 14.899 C 11.835 15.169,11.847 15.889,12.320 16.155 C 12.524 16.270,12.760 16.279,13.119 16.185 C 14.568 15.806,15.766 14.624,16.162 13.182 C 16.278 12.760,16.259 12.464,16.102 12.260 C 15.886 11.976,15.492 11.885,15.170 12.044 " stroke="none" fill-rule="evenodd" fill="black"></path></svg>