<svg width="24" height="24" viewBox="0 0 24 24" fill="none" xmlns="http://www.w3.org/2000/svg"><path d="M11.359 3.002 C 9.642 3.106,7.952 3.688,6.399 4.712 C 4.857 5.728,3.671 6.918,2.562 8.560 C 1.771 9.733,1.539 10.417,1.492 11.724 C 1.459 12.658,1.565 13.419,1.826 14.111 C 2.157 14.992,3.140 16.370,4.237 17.494 C 5.983 19.281,7.966 20.403,10.149 20.837 C 11.218 21.050,12.782 21.050,13.851 20.837 C 16.586 20.293,19.060 18.633,21.027 16.020 C 21.352 15.588,21.823 14.871,21.964 14.592 C 22.376 13.776,22.549 12.868,22.508 11.724 C 22.461 10.417,22.229 9.733,21.438 8.560 C 20.331 6.921,19.140 5.726,17.601 4.712 C 16.005 3.660,14.385 3.112,12.541 3.000 C 12.189 2.978,11.891 2.963,11.880 2.966 C 11.869 2.969,11.635 2.985,11.359 3.002 M13.441 4.593 C 15.867 5.044,18.041 6.497,19.832 8.867 C 20.786 10.129,21.019 10.744,21.018 12.000 C 21.017 13.114,20.841 13.675,20.202 14.597 C 19.596 15.473,19.160 15.994,18.475 16.662 C 16.932 18.166,15.277 19.057,13.378 19.407 C 12.686 19.534,11.314 19.534,10.622 19.407 C 9.103 19.127,7.671 18.462,6.400 17.448 C 5.632 16.835,4.672 15.823,4.095 15.020 C 3.478 14.160,3.314 13.875,3.166 13.400 C 3.015 12.915,2.983 12.670,2.982 12.000 C 2.982 10.956,3.136 10.401,3.640 9.625 C 4.734 7.945,6.092 6.606,7.621 5.701 C 8.725 5.047,9.728 4.710,11.180 4.504 C 11.246 4.495,11.687 4.493,12.160 4.501 C 12.793 4.511,13.131 4.536,13.441 4.593 M11.246 7.742 C 8.620 8.222,7.061 10.880,7.919 13.418 C 8.502 15.142,10.158 16.320,12.000 16.320 C 13.839 16.320,15.499 15.140,16.081 13.418 C 16.943 10.866,15.369 8.203,12.723 7.740 C 12.310 7.668,11.648 7.669,11.246 7.742 M12.740 9.263 C 13.687 9.515,14.482 10.315,14.744 11.280 C 14.840 11.633,14.841 12.365,14.745 12.720 C 14.485 13.683,13.683 14.485,12.720 14.745 C 12.365 14.841,11.633 14.840,11.280 14.744 C 10.307 14.479,9.521 13.693,9.256 12.720 C 9.149 12.327,9.157 11.632,9.274 11.220 C 9.537 10.291,10.344 9.497,11.260 9.266 C 11.392 9.232,11.554 9.196,11.620 9.186 C 11.833 9.152,12.493 9.197,12.740 9.263 " stroke="none" fill-rule="evenodd" fill="black"></path></svg>