<svg width="24" height="24" viewBox="0 0 24 24" fill="none" xmlns="http://www.w3.org/2000/svg"><path d="M3.660 1.280 C 2.377 1.395,1.621 2.047,1.338 3.280 C 1.279 3.539,1.267 3.892,1.251 5.854 C 1.227 8.872,1.259 9.248,1.607 9.960 C 1.900 10.561,2.406 10.953,3.140 11.146 C 3.405 11.216,3.689 11.220,8.500 11.220 C 13.311 11.220,13.595 11.216,13.860 11.146 C 15.004 10.845,15.599 10.062,15.720 8.700 C 15.771 8.133,15.771 4.401,15.720 3.800 C 15.626 2.684,15.210 1.944,14.474 1.585 C 14.104 1.404,13.807 1.327,13.300 1.280 C 12.837 1.237,4.140 1.237,3.660 1.280 M13.563 2.824 C 13.840 2.907,13.983 3.009,14.077 3.194 C 14.235 3.505,14.245 3.714,14.231 6.400 C 14.215 9.229,14.222 9.146,13.970 9.441 C 13.699 9.757,14.016 9.740,8.500 9.740 C 3.060 9.740,3.324 9.753,3.051 9.471 C 2.775 9.187,2.782 9.264,2.768 6.400 C 2.755 3.715,2.765 3.504,2.923 3.194 C 3.015 3.013,3.159 2.907,3.421 2.827 C 3.595 2.773,4.239 2.765,8.483 2.763 C 12.844 2.760,13.368 2.767,13.563 2.824 M3.420 12.804 C 2.274 12.973,1.597 13.626,1.333 14.820 C 1.282 15.049,1.267 15.517,1.252 17.374 C 1.231 19.804,1.258 20.444,1.402 20.959 C 1.592 21.641,1.986 22.152,2.526 22.415 C 2.896 22.596,3.193 22.673,3.700 22.720 C 4.229 22.769,19.771 22.769,20.300 22.720 C 20.807 22.673,21.104 22.596,21.474 22.415 C 22.210 22.056,22.626 21.316,22.720 20.200 C 22.771 19.599,22.771 15.867,22.720 15.300 C 22.600 13.947,22.020 13.177,20.880 12.854 C 20.632 12.784,20.238 12.781,12.140 12.775 C 7.416 12.772,3.554 12.785,3.420 12.804 M20.628 14.331 C 20.861 14.411,21.071 14.622,21.161 14.869 C 21.236 15.074,21.270 20.051,21.199 20.419 C 21.109 20.881,20.961 21.057,20.563 21.176 C 20.366 21.234,19.559 21.240,12.000 21.240 C 4.441 21.240,3.634 21.234,3.437 21.176 C 3.160 21.093,3.017 20.991,2.923 20.806 C 2.765 20.496,2.755 20.285,2.768 17.600 C 2.780 15.237,2.787 15.005,2.852 14.840 C 2.985 14.506,3.215 14.346,3.680 14.267 C 3.735 14.258,7.524 14.253,12.100 14.255 C 19.949 14.260,20.432 14.264,20.628 14.331 " stroke="none" fill-rule="evenodd" fill="black"></path></svg>