<svg width="24" height="24" viewBox="0 0 24 24" fill="none" xmlns="http://www.w3.org/2000/svg"><path d="M8.080 1.282 C 4.008 1.495,1.895 3.296,1.383 6.991 C 1.270 7.803,1.242 8.816,1.242 12.000 C 1.242 15.184,1.270 16.197,1.383 17.009 C 1.767 19.784,3.048 21.470,5.356 22.242 C 6.191 22.521,6.998 22.657,8.193 22.720 C 9.241 22.775,12.900 22.772,13.162 22.716 C 13.828 22.573,13.943 21.639,13.332 21.336 C 13.189 21.264,13.019 21.259,10.400 21.236 C 7.371 21.211,7.302 21.206,6.312 20.960 C 4.223 20.440,3.236 19.246,2.854 16.780 C 2.785 16.335,2.780 15.989,2.780 12.000 C 2.780 8.011,2.785 7.665,2.854 7.220 C 3.282 4.456,4.456 3.282,7.220 2.854 C 7.665 2.785,8.011 2.780,12.000 2.780 C 16.745 2.780,16.622 2.774,17.688 3.040 C 19.520 3.496,20.504 4.481,20.960 6.312 C 21.206 7.301,21.211 7.370,21.236 10.420 L 21.260 13.220 21.353 13.369 C 21.710 13.943,22.576 13.812,22.716 13.162 C 22.772 12.900,22.775 9.241,22.720 8.193 C 22.657 6.998,22.521 6.191,22.242 5.356 C 21.632 3.531,20.469 2.367,18.650 1.760 C 17.788 1.473,17.023 1.344,15.806 1.280 C 14.952 1.235,8.952 1.237,8.080 1.282 M16.378 8.833 C 16.179 8.926,16.098 9.021,14.880 10.600 C 14.346 11.293,13.853 11.918,13.786 11.990 C 13.573 12.218,13.626 12.247,12.260 11.165 C 11.842 10.834,11.383 10.504,11.240 10.432 C 10.993 10.306,10.958 10.300,10.540 10.300 C 9.989 10.300,9.716 10.391,9.387 10.684 C 9.190 10.860,6.920 13.749,6.690 14.116 C 6.573 14.304,6.568 14.621,6.681 14.842 C 6.849 15.171,7.268 15.320,7.606 15.170 C 7.824 15.074,7.877 15.012,9.159 13.340 C 10.294 11.860,10.379 11.760,10.505 11.760 C 10.560 11.760,10.972 12.058,11.587 12.541 C 12.750 13.455,12.945 13.567,13.417 13.592 C 13.960 13.621,14.352 13.498,14.703 13.189 C 14.870 13.042,17.150 10.149,17.326 9.860 C 17.427 9.695,17.424 9.363,17.319 9.158 C 17.151 8.828,16.712 8.677,16.378 8.833 M18.268 14.288 C 17.976 14.325,17.633 14.505,17.382 14.752 C 17.133 14.997,17.014 15.174,16.769 15.660 C 16.507 16.181,16.455 16.227,16.038 16.300 C 15.217 16.445,14.711 16.748,14.434 17.263 C 14.059 17.961,14.262 18.737,15.027 19.524 C 15.373 19.881,15.413 19.981,15.336 20.305 C 15.248 20.677,15.224 21.155,15.277 21.461 C 15.439 22.389,16.175 22.892,17.101 22.708 C 17.327 22.663,17.560 22.573,17.900 22.401 C 18.170 22.264,18.432 22.158,18.500 22.158 C 18.567 22.158,18.830 22.264,19.100 22.401 C 19.694 22.701,20.067 22.786,20.497 22.720 C 21.490 22.566,21.939 21.644,21.664 20.322 C 21.630 20.159,21.623 20.020,21.644 19.946 C 21.663 19.881,21.811 19.691,21.973 19.524 C 22.611 18.867,22.856 18.235,22.702 17.637 C 22.512 16.895,21.968 16.477,20.962 16.300 C 20.545 16.227,20.493 16.181,20.231 15.660 C 19.986 15.174,19.867 14.997,19.618 14.752 C 19.241 14.382,18.777 14.222,18.268 14.288 M18.675 15.933 C 18.740 16.028,18.881 16.284,18.986 16.503 C 19.334 17.219,19.841 17.618,20.563 17.742 C 20.999 17.816,21.240 17.906,21.240 17.994 C 21.240 18.093,21.145 18.219,20.791 18.591 C 20.423 18.978,20.232 19.334,20.158 19.772 C 20.109 20.063,20.113 20.121,20.242 20.840 C 20.263 20.961,20.271 21.103,20.259 21.155 C 20.239 21.236,20.219 21.246,20.113 21.225 C 20.045 21.211,19.831 21.109,19.638 20.999 C 19.174 20.734,18.944 20.666,18.500 20.666 C 18.054 20.666,17.826 20.733,17.355 21.003 C 16.966 21.226,16.754 21.273,16.727 21.144 C 16.719 21.102,16.752 20.852,16.802 20.588 C 16.883 20.160,16.888 20.076,16.846 19.804 C 16.775 19.346,16.588 18.989,16.210 18.592 C 15.855 18.219,15.760 18.093,15.760 17.994 C 15.760 17.906,16.001 17.816,16.437 17.742 C 17.170 17.616,17.665 17.222,18.028 16.475 C 18.219 16.081,18.441 15.760,18.522 15.760 C 18.541 15.760,18.610 15.838,18.675 15.933 " stroke="none" fill-rule="evenodd" fill="black"></path></svg>