<svg width="24" height="24" viewBox="0 0 24 24" fill="none" xmlns="http://www.w3.org/2000/svg"><path d="M4.614 1.359 C 3.698 1.600,2.935 2.371,2.656 3.340 C 2.598 3.542,2.585 3.811,2.571 5.040 C 2.552 6.659,2.573 6.925,2.767 7.475 C 3.064 8.315,3.186 8.468,5.483 10.886 C 6.592 12.053,7.552 13.082,7.615 13.174 C 7.771 13.401,7.949 13.802,8.042 14.138 C 8.116 14.403,8.120 14.570,8.120 17.246 C 8.120 19.047,8.136 20.187,8.163 20.384 C 8.421 22.242,10.544 23.302,12.236 22.419 C 12.668 22.194,13.944 21.329,14.028 21.204 C 14.290 20.817,14.107 20.269,13.660 20.098 C 13.345 19.977,13.220 20.025,12.319 20.605 C 11.875 20.892,11.438 21.152,11.350 21.183 C 11.111 21.268,10.723 21.255,10.453 21.154 C 10.159 21.044,9.841 20.748,9.714 20.468 L 9.620 20.260 9.599 17.140 L 9.578 14.020 9.467 13.660 C 9.328 13.211,9.025 12.577,8.795 12.255 C 8.699 12.120,7.711 11.054,6.600 9.885 C 4.549 7.727,4.377 7.523,4.197 7.043 C 4.049 6.646,4.032 6.430,4.049 5.101 C 4.064 3.882,4.069 3.809,4.156 3.588 C 4.282 3.268,4.587 2.960,4.892 2.847 L 5.123 2.760 12.000 2.760 L 18.877 2.760 19.105 2.845 C 19.363 2.942,19.639 3.176,19.781 3.418 C 19.937 3.684,19.969 4.049,19.951 5.353 C 19.936 6.455,19.928 6.560,19.843 6.820 C 19.717 7.208,19.472 7.668,19.257 7.919 C 19.012 8.206,18.949 8.342,18.949 8.580 C 18.949 9.106,19.470 9.459,19.951 9.258 C 20.425 9.060,21.069 8.024,21.329 7.043 C 21.416 6.714,21.420 6.637,21.420 5.100 L 21.420 3.500 21.311 3.180 C 21.017 2.312,20.239 1.580,19.378 1.359 C 19.074 1.282,18.923 1.280,11.984 1.282 C 5.195 1.284,4.888 1.288,4.614 1.359 M17.860 10.598 C 17.586 10.657,17.306 10.780,17.038 10.958 C 16.661 11.209,12.852 15.032,12.711 15.300 C 12.565 15.579,12.501 15.862,12.382 16.760 C 12.269 17.610,12.277 17.804,12.444 18.147 C 12.558 18.384,12.913 18.697,13.182 18.797 C 13.475 18.907,13.698 18.902,14.670 18.762 C 15.946 18.579,15.697 18.754,18.084 16.365 C 20.114 14.334,20.304 14.118,20.482 13.649 C 20.604 13.327,20.630 12.843,20.542 12.538 C 20.415 12.100,20.208 11.767,19.820 11.380 C 19.287 10.847,18.853 10.621,18.293 10.583 C 18.143 10.572,17.948 10.579,17.860 10.598 M18.380 12.120 C 18.528 12.176,18.909 12.547,19.029 12.751 C 19.103 12.878,19.123 12.955,19.105 13.046 C 19.079 13.177,18.875 13.477,18.702 13.639 L 18.596 13.738 18.409 13.639 C 18.165 13.510,17.689 13.031,17.551 12.775 L 17.443 12.574 17.591 12.431 C 17.925 12.110,18.135 12.027,18.380 12.120 M16.651 14.072 C 16.811 14.272,17.187 14.620,17.402 14.767 L 17.500 14.834 16.360 15.979 C 15.733 16.609,15.192 17.141,15.157 17.160 C 15.084 17.201,13.848 17.382,13.822 17.355 C 13.805 17.339,13.936 16.339,13.984 16.120 C 13.997 16.058,14.455 15.569,15.173 14.849 L 16.340 13.677 16.411 13.769 C 16.450 13.819,16.558 13.955,16.651 14.072 " stroke="none" fill-rule="evenodd" fill="black"></path></svg>