<svg width="24" height="24" viewBox="0 0 24 24" fill="none" xmlns="http://www.w3.org/2000/svg"><path d="M4.820 1.420 C 3.798 1.649,3.058 2.368,2.750 3.428 C 2.663 3.728,2.660 3.799,2.660 5.300 C 2.660 6.798,2.664 6.874,2.751 7.200 C 2.859 7.603,3.210 8.329,3.449 8.646 C 3.543 8.770,4.412 9.705,5.380 10.723 C 7.720 13.186,7.654 13.111,7.844 13.508 C 8.169 14.188,8.160 14.084,8.161 17.336 C 8.162 19.555,8.175 20.275,8.215 20.460 C 8.426 21.431,9.122 22.183,10.113 22.512 C 10.373 22.599,10.496 22.615,10.920 22.617 C 11.446 22.620,11.794 22.546,12.178 22.351 C 12.374 22.251,13.704 21.399,13.992 21.189 C 14.387 20.901,14.807 20.217,14.962 19.612 C 15.035 19.327,15.040 19.153,15.041 16.924 C 15.041 14.359,15.047 14.271,15.255 13.757 C 15.310 13.620,15.415 13.420,15.488 13.313 C 15.573 13.187,16.432 12.399,17.913 11.091 C 20.447 8.851,20.509 8.787,20.902 7.985 C 21.022 7.740,21.168 7.360,21.228 7.140 L 21.336 6.740 21.338 5.240 C 21.340 3.535,21.331 3.457,21.055 2.894 C 20.736 2.241,20.148 1.721,19.469 1.491 L 19.140 1.380 12.100 1.373 C 6.319 1.367,5.017 1.375,4.820 1.420 M9.548 2.890 C 9.537 2.917,8.682 4.295,7.648 5.951 L 5.768 8.963 5.188 8.345 C 4.582 7.700,4.396 7.428,4.241 6.966 C 4.160 6.722,4.157 6.650,4.168 5.246 C 4.180 3.787,4.180 3.779,4.276 3.600 C 4.486 3.205,4.732 2.988,5.072 2.896 C 5.344 2.823,9.578 2.817,9.548 2.890 M19.126 2.971 C 19.396 3.104,19.613 3.332,19.747 3.624 L 19.845 3.837 19.832 5.289 L 19.820 6.740 19.690 7.064 C 19.403 7.775,19.407 7.771,16.986 9.910 C 15.773 10.982,14.707 11.933,14.617 12.022 C 14.298 12.339,13.935 12.962,13.767 13.480 C 13.585 14.042,13.587 14.008,13.563 16.680 L 13.540 19.260 13.428 19.498 C 13.367 19.629,13.273 19.794,13.220 19.864 C 13.125 19.987,11.847 20.839,11.477 21.025 C 10.891 21.320,10.063 21.042,9.775 20.454 L 9.660 20.220 9.639 17.140 C 9.618 14.122,9.615 14.054,9.530 13.760 C 9.361 13.181,9.137 12.689,8.851 12.271 C 8.765 12.145,8.282 11.606,7.778 11.073 C 7.273 10.540,6.862 10.085,6.864 10.062 C 6.868 10.022,11.114 3.195,11.288 2.949 L 11.367 2.838 15.133 2.849 L 18.900 2.860 19.126 2.971 " stroke="none" fill-rule="evenodd" fill="black"></path></svg>