<svg width="24" height="24" viewBox="0 0 24 24" fill="none" xmlns="http://www.w3.org/2000/svg"><path d="M4.871 1.281 C 4.296 1.379,3.853 1.618,3.399 2.076 C 3.032 2.447,2.841 2.760,2.675 3.260 C 2.586 3.530,2.582 3.596,2.569 5.126 C 2.553 6.923,2.567 7.044,2.872 7.751 C 3.166 8.434,3.338 8.640,5.529 10.946 C 7.741 13.273,7.731 13.260,7.992 13.971 L 8.098 14.260 8.122 17.380 C 8.147 20.718,8.141 20.623,8.363 21.112 C 9.035 22.594,10.898 23.193,12.314 22.382 C 12.832 22.085,13.877 21.385,14.107 21.181 C 14.392 20.927,14.666 20.533,14.821 20.156 L 14.929 19.892 15.275 20.003 C 15.987 20.232,16.905 20.297,17.714 20.177 C 19.956 19.844,21.757 18.139,22.261 15.870 C 22.360 15.426,22.384 14.423,22.307 13.939 C 22.043 12.274,21.080 10.846,19.664 10.018 C 19.519 9.933,19.400 9.853,19.400 9.841 C 19.400 9.828,19.617 9.624,19.883 9.386 C 20.439 8.887,20.681 8.580,20.958 8.020 C 21.179 7.575,21.293 7.256,21.381 6.836 C 21.466 6.432,21.465 3.824,21.380 3.421 C 21.184 2.497,20.420 1.674,19.460 1.354 L 19.180 1.260 12.120 1.254 C 8.237 1.251,4.975 1.263,4.871 1.281 M19.165 2.865 C 19.439 2.992,19.677 3.228,19.806 3.500 L 19.920 3.740 19.919 5.120 C 19.919 6.591,19.913 6.651,19.708 7.151 C 19.499 7.660,19.280 7.923,18.472 8.634 C 18.056 9.000,17.703 9.299,17.688 9.298 C 17.673 9.297,17.471 9.282,17.240 9.264 C 15.461 9.128,13.631 9.956,12.521 11.402 C 11.386 12.879,11.075 14.851,11.701 16.600 C 12.010 17.462,12.657 18.401,13.303 18.926 C 13.548 19.124,13.566 19.149,13.546 19.269 C 13.510 19.493,13.319 19.865,13.167 20.009 C 12.960 20.205,11.600 21.072,11.348 21.169 C 11.088 21.268,10.671 21.250,10.391 21.127 C 10.142 21.018,9.880 20.771,9.758 20.533 L 9.660 20.340 9.637 17.260 C 9.615 14.293,9.611 14.168,9.530 13.860 C 9.376 13.278,9.064 12.601,8.759 12.186 C 8.694 12.098,7.737 11.074,6.631 9.909 C 5.521 8.741,4.556 7.691,4.478 7.566 C 4.400 7.442,4.283 7.223,4.218 7.080 L 4.100 6.820 4.100 5.260 L 4.100 3.700 4.195 3.520 C 4.401 3.127,4.648 2.909,4.992 2.816 C 5.141 2.775,6.596 2.766,12.080 2.772 L 18.980 2.780 19.165 2.865 M17.650 10.840 C 19.189 11.137,20.342 12.232,20.767 13.801 C 20.900 14.292,20.899 15.183,20.765 15.700 C 20.474 16.826,19.685 17.816,18.680 18.319 C 18.079 18.619,17.582 18.734,16.880 18.734 C 15.966 18.734,15.303 18.522,14.580 17.998 C 12.277 16.330,12.345 12.974,14.715 11.400 C 15.126 11.127,15.841 10.858,16.340 10.789 C 16.673 10.742,17.264 10.765,17.650 10.840 M15.455 12.757 C 15.127 12.838,14.907 13.128,14.907 13.480 C 14.907 13.774,14.970 13.875,15.458 14.359 L 15.840 14.739 15.422 15.159 C 14.987 15.596,14.879 15.769,14.881 16.029 C 14.882 16.202,14.993 16.468,15.106 16.568 C 15.222 16.671,15.460 16.760,15.620 16.760 C 15.871 16.760,16.048 16.649,16.481 16.218 L 16.901 15.800 17.281 16.183 C 17.709 16.616,17.876 16.720,18.140 16.720 C 18.579 16.720,18.880 16.418,18.880 15.976 C 18.880 15.717,18.774 15.547,18.344 15.121 L 17.961 14.743 18.376 14.321 C 18.839 13.852,18.912 13.710,18.862 13.379 C 18.839 13.225,18.798 13.154,18.642 12.998 C 18.486 12.842,18.415 12.801,18.261 12.778 C 17.930 12.728,17.788 12.801,17.319 13.264 L 16.897 13.679 16.519 13.297 C 16.310 13.088,16.086 12.883,16.020 12.842 C 15.875 12.753,15.625 12.715,15.455 12.757 " stroke="none" fill-rule="evenodd" fill="black"></path></svg>