<svg width="24" height="24" viewBox="0 0 24 24" fill="none" xmlns="http://www.w3.org/2000/svg"><path d="M5.080 1.266 C 4.387 1.334,3.795 1.630,3.317 2.150 C 2.919 2.582,2.693 3.065,2.596 3.686 C 2.570 3.857,2.560 4.509,2.570 5.430 C 2.585 6.805,2.592 6.919,2.675 7.200 C 2.797 7.614,3.152 8.328,3.392 8.640 C 3.502 8.783,4.217 9.557,4.982 10.360 C 7.642 13.154,7.601 13.108,7.788 13.487 C 8.132 14.185,8.120 14.045,8.120 17.246 C 8.120 19.047,8.136 20.187,8.163 20.384 C 8.364 21.831,9.757 22.887,11.243 22.720 C 11.542 22.686,11.940 22.572,12.178 22.452 C 12.477 22.302,13.955 21.321,14.146 21.147 C 14.402 20.914,14.674 20.514,14.821 20.156 L 14.929 19.892 15.275 20.003 C 15.987 20.232,16.905 20.297,17.714 20.177 C 19.956 19.844,21.757 18.139,22.261 15.870 C 22.360 15.426,22.384 14.423,22.307 13.939 C 22.043 12.274,21.080 10.846,19.664 10.018 C 19.519 9.933,19.400 9.853,19.400 9.841 C 19.400 9.828,19.616 9.625,19.879 9.389 C 20.558 8.781,20.955 8.179,21.239 7.328 C 21.421 6.782,21.448 6.443,21.431 4.894 C 21.416 3.504,21.416 3.499,21.308 3.180 C 21.006 2.283,20.272 1.585,19.371 1.335 C 19.111 1.263,18.816 1.260,12.160 1.256 C 8.343 1.254,5.157 1.258,5.080 1.266 M19.202 2.870 C 19.420 2.977,19.700 3.246,19.802 3.444 C 19.941 3.715,19.968 4.057,19.952 5.327 C 19.937 6.531,19.936 6.542,19.826 6.860 C 19.696 7.234,19.487 7.632,19.298 7.864 C 19.161 8.032,17.735 9.301,17.687 9.298 C 17.672 9.297,17.471 9.282,17.240 9.264 C 15.461 9.128,13.631 9.956,12.521 11.402 C 11.386 12.879,11.075 14.851,11.701 16.600 C 12.010 17.462,12.657 18.401,13.303 18.926 C 13.550 19.126,13.566 19.149,13.546 19.271 C 13.513 19.476,13.329 19.846,13.188 19.993 C 13.025 20.161,11.566 21.107,11.351 21.183 C 11.111 21.268,10.723 21.255,10.453 21.154 C 10.159 21.044,9.841 20.748,9.714 20.468 L 9.620 20.260 9.598 17.140 C 9.574 13.624,9.598 13.900,9.245 13.083 C 8.982 12.472,8.753 12.154,8.018 11.380 C 7.642 10.984,6.727 10.021,5.985 9.240 C 5.242 8.459,4.564 7.712,4.477 7.580 C 4.390 7.448,4.261 7.196,4.190 7.020 L 4.062 6.700 4.048 5.484 C 4.029 3.816,4.072 3.550,4.429 3.156 C 4.573 2.996,4.712 2.903,4.940 2.813 C 5.031 2.777,6.755 2.767,12.040 2.773 L 19.020 2.780 19.202 2.870 M17.650 10.840 C 19.189 11.137,20.342 12.232,20.767 13.801 C 20.900 14.292,20.899 15.183,20.765 15.700 C 20.474 16.826,19.685 17.816,18.680 18.319 C 18.079 18.619,17.582 18.734,16.880 18.734 C 15.966 18.734,15.303 18.522,14.580 17.998 C 12.277 16.330,12.345 12.974,14.715 11.400 C 15.126 11.127,15.841 10.858,16.340 10.789 C 16.673 10.742,17.264 10.765,17.650 10.840 M16.695 12.278 C 16.519 12.320,16.342 12.455,16.233 12.631 C 16.149 12.766,16.139 12.836,16.126 13.390 L 16.111 14.000 15.514 14.000 C 14.999 14.000,14.896 14.011,14.762 14.079 C 14.472 14.227,14.327 14.521,14.378 14.861 C 14.401 15.014,14.442 15.086,14.595 15.238 C 14.821 15.465,14.883 15.480,15.581 15.480 L 16.112 15.480 16.126 16.110 C 16.140 16.692,16.149 16.753,16.240 16.914 C 16.520 17.406,17.240 17.406,17.520 16.914 C 17.611 16.753,17.620 16.692,17.634 16.113 L 17.648 15.487 18.278 15.473 C 18.895 15.460,18.910 15.458,19.072 15.346 C 19.466 15.072,19.506 14.500,19.154 14.173 C 18.996 14.026,18.858 14.000,18.237 14.000 L 17.640 14.000 17.639 13.510 C 17.638 12.947,17.595 12.713,17.460 12.536 C 17.303 12.331,16.960 12.215,16.695 12.278 " stroke="none" fill-rule="evenodd" fill="black"></path></svg>