<svg width="24" height="24" viewBox="0 0 24 24" fill="none" xmlns="http://www.w3.org/2000/svg"><path d="M4.614 1.359 C 3.698 1.600,2.935 2.371,2.656 3.340 C 2.598 3.542,2.585 3.811,2.571 5.040 C 2.552 6.659,2.573 6.925,2.767 7.475 C 3.064 8.315,3.186 8.468,5.483 10.886 C 6.592 12.053,7.552 13.082,7.615 13.174 C 7.771 13.401,7.949 13.802,8.042 14.138 C 8.116 14.403,8.120 14.570,8.120 17.246 C 8.120 20.183,8.135 20.503,8.289 20.914 C 8.809 22.304,10.405 23.070,11.801 22.600 C 12.154 22.481,12.196 22.458,13.120 21.866 C 14.245 21.146,14.550 20.831,14.852 20.076 C 15.054 19.571,15.116 18.976,14.991 18.740 C 14.807 18.391,14.398 18.236,14.049 18.382 C 13.743 18.510,13.625 18.687,13.567 19.111 C 13.520 19.444,13.386 19.762,13.203 19.970 C 13.054 20.141,11.591 21.099,11.351 21.183 C 11.111 21.268,10.723 21.255,10.453 21.154 C 10.159 21.044,9.841 20.748,9.714 20.468 L 9.620 20.260 9.599 17.140 L 9.578 14.020 9.467 13.660 C 9.328 13.211,9.025 12.577,8.795 12.255 C 8.699 12.120,7.711 11.054,6.600 9.885 C 4.549 7.727,4.377 7.523,4.197 7.043 C 4.049 6.646,4.032 6.430,4.049 5.101 C 4.064 3.882,4.069 3.809,4.156 3.588 C 4.282 3.268,4.587 2.960,4.892 2.847 L 5.123 2.760 12.000 2.760 L 18.877 2.760 19.105 2.845 C 19.363 2.942,19.639 3.176,19.781 3.418 C 19.937 3.684,19.969 4.049,19.951 5.353 C 19.936 6.455,19.928 6.560,19.843 6.820 C 19.717 7.208,19.472 7.668,19.257 7.919 C 19.012 8.206,18.949 8.342,18.949 8.580 C 18.949 9.106,19.470 9.459,19.951 9.258 C 20.425 9.060,21.069 8.024,21.329 7.043 C 21.416 6.714,21.420 6.637,21.420 5.100 L 21.420 3.500 21.311 3.180 C 21.017 2.312,20.239 1.580,19.378 1.359 C 19.074 1.282,18.923 1.280,11.984 1.282 C 5.195 1.284,4.888 1.288,4.614 1.359 M15.659 9.401 C 14.034 9.563,12.681 10.731,12.254 12.340 C 12.163 12.685,12.148 12.820,12.148 13.320 C 12.148 13.820,12.163 13.955,12.254 14.300 C 12.450 15.036,12.811 15.651,13.354 16.169 C 14.192 16.970,15.279 17.344,16.447 17.235 C 16.960 17.187,17.456 17.039,17.918 16.796 L 18.296 16.597 18.878 17.174 C 19.198 17.492,19.504 17.774,19.558 17.801 C 19.722 17.885,20.047 17.864,20.238 17.756 C 20.561 17.575,20.702 17.116,20.535 16.788 C 20.499 16.718,20.219 16.406,19.911 16.095 L 19.353 15.529 19.517 15.231 C 19.843 14.637,20.000 14.014,20.000 13.320 C 20.000 10.976,17.997 9.169,15.659 9.401 M16.608 10.924 C 16.725 10.948,16.971 11.039,17.156 11.128 C 17.973 11.518,18.520 12.396,18.520 13.320 C 18.520 14.244,17.973 15.122,17.156 15.512 C 16.752 15.705,16.508 15.760,16.054 15.760 C 15.365 15.760,14.872 15.551,14.355 15.041 C 13.838 14.530,13.627 14.031,13.627 13.320 C 13.627 12.609,13.838 12.110,14.355 11.600 C 14.722 11.238,14.983 11.079,15.414 10.956 C 15.699 10.874,16.291 10.858,16.608 10.924 " stroke="none" fill-rule="evenodd" fill="black"></path></svg>