<svg width="24" height="24" viewBox="0 0 24 24" fill="none" xmlns="http://www.w3.org/2000/svg"><path d="M5.080 1.266 C 4.387 1.334,3.795 1.630,3.317 2.150 C 2.919 2.582,2.693 3.065,2.596 3.686 C 2.570 3.857,2.560 4.509,2.570 5.430 C 2.585 6.805,2.592 6.919,2.675 7.200 C 2.797 7.614,3.152 8.328,3.392 8.640 C 3.502 8.783,4.217 9.557,4.982 10.360 C 7.642 13.154,7.601 13.108,7.788 13.487 C 8.132 14.185,8.120 14.045,8.120 17.246 C 8.120 19.047,8.136 20.187,8.163 20.384 C 8.364 21.831,9.757 22.887,11.243 22.720 C 11.542 22.686,11.940 22.572,12.178 22.452 C 12.477 22.302,13.955 21.321,14.146 21.147 C 14.402 20.914,14.674 20.514,14.821 20.156 L 14.929 19.892 15.215 19.982 C 16.437 20.370,17.841 20.311,18.998 19.823 C 20.660 19.122,21.875 17.656,22.265 15.880 C 22.325 15.608,22.340 15.376,22.339 14.720 C 22.337 14.001,22.326 13.853,22.244 13.520 C 21.979 12.433,21.411 11.463,20.597 10.707 C 20.283 10.415,19.742 10.022,19.510 9.917 C 19.449 9.890,19.400 9.856,19.400 9.843 C 19.400 9.829,19.616 9.625,19.879 9.389 C 20.558 8.781,20.955 8.179,21.239 7.328 C 21.421 6.782,21.448 6.443,21.431 4.894 C 21.416 3.504,21.416 3.499,21.308 3.180 C 21.006 2.283,20.272 1.585,19.371 1.335 C 19.111 1.263,18.816 1.260,12.160 1.256 C 8.343 1.254,5.157 1.258,5.080 1.266 M19.202 2.870 C 19.420 2.977,19.700 3.246,19.802 3.444 C 19.941 3.715,19.968 4.057,19.952 5.327 C 19.937 6.531,19.936 6.542,19.826 6.860 C 19.696 7.234,19.487 7.632,19.298 7.864 C 19.161 8.032,17.735 9.301,17.687 9.298 C 17.672 9.297,17.483 9.282,17.267 9.263 C 16.778 9.222,16.069 9.285,15.556 9.415 C 14.072 9.793,12.852 10.722,12.085 12.059 C 11.317 13.399,11.172 15.119,11.701 16.600 C 12.010 17.462,12.657 18.401,13.303 18.926 C 13.550 19.126,13.566 19.149,13.546 19.271 C 13.513 19.476,13.329 19.846,13.188 19.993 C 13.025 20.161,11.566 21.107,11.351 21.183 C 11.111 21.268,10.723 21.255,10.453 21.154 C 10.159 21.044,9.841 20.748,9.714 20.468 L 9.620 20.260 9.598 17.140 C 9.574 13.624,9.598 13.900,9.245 13.083 C 8.982 12.472,8.753 12.154,8.018 11.380 C 7.642 10.984,6.727 10.021,5.985 9.240 C 5.242 8.459,4.564 7.712,4.477 7.580 C 4.390 7.448,4.261 7.196,4.190 7.020 L 4.062 6.700 4.048 5.484 C 4.029 3.816,4.072 3.550,4.429 3.156 C 4.573 2.996,4.712 2.903,4.940 2.813 C 5.031 2.777,6.755 2.767,12.040 2.773 L 19.020 2.780 19.202 2.870 M17.566 10.822 C 19.159 11.116,20.362 12.229,20.766 13.780 C 20.895 14.277,20.897 15.261,20.769 15.726 C 20.458 16.862,19.696 17.808,18.680 18.320 C 17.573 18.878,16.264 18.892,15.188 18.358 C 12.351 16.948,12.092 13.142,14.715 11.400 C 15.126 11.127,15.841 10.858,16.340 10.789 C 16.631 10.748,17.259 10.765,17.566 10.822 M18.400 12.918 C 18.323 12.960,17.801 13.417,17.241 13.935 L 16.222 14.877 15.821 14.483 C 15.373 14.043,15.227 13.969,14.899 14.018 C 14.745 14.041,14.674 14.082,14.518 14.238 C 14.362 14.394,14.321 14.465,14.298 14.619 C 14.244 14.981,14.300 15.071,15.051 15.829 C 15.427 16.208,15.799 16.549,15.878 16.587 C 16.093 16.691,16.406 16.674,16.590 16.549 C 16.823 16.390,19.289 14.091,19.380 13.948 C 19.437 13.856,19.460 13.752,19.460 13.577 C 19.460 13.374,19.441 13.306,19.346 13.168 C 19.137 12.867,18.708 12.754,18.400 12.918 " stroke="none" fill-rule="evenodd" fill="black"></path></svg>