<svg width="24" height="24" viewBox="0 0 24 24" fill="none" xmlns="http://www.w3.org/2000/svg"><path d="M11.320 1.281 C 7.041 1.525,3.252 4.409,1.843 8.497 C 1.180 10.418,1.082 12.560,1.564 14.550 C 2.505 18.428,5.572 21.495,9.450 22.436 C 11.106 22.837,12.894 22.837,14.550 22.436 C 18.428 21.495,21.495 18.428,22.436 14.550 C 22.837 12.894,22.837 11.106,22.436 9.450 C 21.425 5.282,17.985 2.095,13.742 1.398 C 13.334 1.331,12.074 1.229,11.880 1.247 C 11.847 1.250,11.595 1.265,11.320 1.281 M13.146 2.822 C 14.201 2.960,15.125 3.237,16.060 3.696 C 18.877 5.079,20.768 7.722,21.178 10.854 C 21.301 11.786,21.244 13.026,21.034 13.998 C 20.745 15.343,20.003 16.855,19.121 17.900 C 18.247 18.935,17.240 19.726,16.060 20.304 C 14.761 20.940,13.462 21.240,12.000 21.240 C 10.538 21.240,9.236 20.940,7.940 20.304 C 5.123 18.921,3.232 16.278,2.822 13.146 C 2.699 12.214,2.756 10.974,2.966 10.002 C 3.177 9.020,3.703 7.775,4.268 6.920 C 5.750 4.677,8.131 3.188,10.820 2.823 C 11.380 2.746,12.569 2.746,13.146 2.822 M11.080 5.258 C 9.827 5.481,8.839 5.993,7.957 6.876 C 7.228 7.605,6.795 8.323,6.508 9.280 C 6.283 10.027,6.260 10.281,6.260 12.000 C 6.260 13.719,6.283 13.974,6.508 14.720 C 6.795 15.677,7.228 16.395,7.957 17.123 C 8.582 17.749,9.206 18.152,10.022 18.459 C 11.104 18.867,12.465 18.914,13.604 18.583 C 15.827 17.939,17.516 15.908,17.704 13.651 C 17.728 13.364,17.721 13.307,17.641 13.141 C 17.509 12.870,17.296 12.740,16.983 12.740 C 16.524 12.741,16.310 12.969,16.221 13.549 C 16.123 14.189,16.019 14.525,15.761 15.041 C 15.506 15.549,14.941 16.192,14.415 16.572 C 13.218 17.436,11.475 17.556,10.100 16.870 C 9.568 16.604,8.995 16.126,8.612 15.630 C 8.241 15.148,7.941 14.466,7.820 13.830 C 7.733 13.370,7.733 10.630,7.820 10.170 C 7.941 9.534,8.241 8.852,8.612 8.370 C 8.847 8.066,9.363 7.578,9.652 7.386 C 11.111 6.422,13.105 6.459,14.476 7.477 C 14.842 7.749,15.353 8.284,15.576 8.629 C 15.917 9.157,16.071 9.569,16.201 10.303 C 16.285 10.782,16.379 10.947,16.641 11.080 C 16.964 11.245,17.392 11.132,17.593 10.828 C 17.686 10.687,17.699 10.628,17.694 10.383 C 17.679 9.605,17.304 8.543,16.753 7.713 C 16.452 7.259,15.711 6.508,15.269 6.206 C 14.654 5.787,13.917 5.470,13.159 5.300 C 12.756 5.209,11.497 5.184,11.080 5.258 M11.480 8.422 C 10.596 8.613,9.847 9.369,9.660 10.260 C 9.576 10.663,9.575 13.336,9.660 13.740 C 9.841 14.604,10.584 15.365,11.440 15.562 C 11.722 15.627,12.278 15.627,12.560 15.562 C 13.414 15.366,14.160 14.602,14.340 13.740 C 14.425 13.336,14.424 10.663,14.340 10.260 C 14.151 9.360,13.400 8.609,12.500 8.420 C 12.156 8.348,11.822 8.349,11.480 8.422 M12.380 9.950 C 12.552 10.035,12.714 10.195,12.814 10.380 C 12.897 10.535,12.900 10.581,12.900 11.960 C 12.900 13.515,12.893 13.571,12.666 13.830 C 12.325 14.218,11.675 14.218,11.334 13.830 C 11.107 13.571,11.100 13.515,11.100 11.960 C 11.100 10.651,11.106 10.529,11.175 10.400 C 11.427 9.926,11.941 9.734,12.380 9.950 " stroke="none" fill-rule="evenodd" fill="black"></path></svg>