<svg width="24" height="24" viewBox="0 0 24 24" fill="none" xmlns="http://www.w3.org/2000/svg"><path d="M6.458 1.283 C 5.617 1.344,4.882 1.542,4.186 1.896 C 3.639 2.174,3.292 2.425,2.859 2.859 C 2.425 3.292,2.174 3.639,1.896 4.186 C 1.373 5.216,1.219 6.178,1.247 8.240 C 1.260 9.184,1.263 9.226,1.353 9.369 C 1.664 9.870,2.408 9.849,2.664 9.332 C 2.733 9.194,2.742 9.042,2.763 7.680 C 2.788 6.073,2.804 5.931,3.021 5.319 C 3.406 4.239,4.239 3.406,5.319 3.021 C 5.931 2.804,6.073 2.788,7.680 2.763 C 9.042 2.742,9.194 2.733,9.332 2.664 C 9.928 2.369,9.832 1.448,9.189 1.286 C 8.979 1.234,7.174 1.232,6.458 1.283 M14.815 1.278 C 14.331 1.393,14.098 2.004,14.383 2.408 C 14.447 2.499,14.572 2.610,14.660 2.656 C 14.811 2.735,14.901 2.741,16.320 2.763 C 17.927 2.788,18.069 2.804,18.681 3.021 C 19.761 3.406,20.594 4.239,20.979 5.319 C 21.197 5.933,21.212 6.071,21.237 7.700 C 21.260 9.201,21.261 9.222,21.353 9.369 C 21.710 9.943,22.576 9.812,22.716 9.162 C 22.741 9.045,22.760 8.556,22.760 8.028 C 22.759 6.042,22.613 5.188,22.104 4.186 C 21.826 3.639,21.575 3.292,21.141 2.859 C 20.175 1.893,19.007 1.393,17.455 1.281 C 16.821 1.235,15.003 1.233,14.815 1.278 M11.080 5.258 C 9.827 5.481,8.839 5.993,7.957 6.876 C 7.228 7.605,6.795 8.323,6.508 9.280 C 6.283 10.027,6.260 10.281,6.260 12.000 C 6.260 13.719,6.283 13.974,6.508 14.720 C 6.795 15.677,7.228 16.395,7.957 17.123 C 8.582 17.749,9.206 18.152,10.022 18.459 C 11.104 18.867,12.465 18.914,13.604 18.583 C 15.827 17.939,17.516 15.908,17.704 13.651 C 17.728 13.364,17.721 13.307,17.641 13.141 C 17.509 12.870,17.296 12.740,16.983 12.740 C 16.524 12.741,16.310 12.969,16.221 13.549 C 16.123 14.189,16.019 14.525,15.761 15.041 C 15.506 15.549,14.941 16.192,14.415 16.572 C 13.218 17.436,11.475 17.556,10.100 16.870 C 9.568 16.604,8.995 16.126,8.612 15.630 C 8.241 15.148,7.941 14.466,7.820 13.830 C 7.733 13.370,7.733 10.630,7.820 10.170 C 7.941 9.534,8.241 8.852,8.612 8.370 C 8.847 8.066,9.363 7.578,9.652 7.386 C 11.111 6.422,13.105 6.459,14.476 7.477 C 14.842 7.749,15.353 8.284,15.576 8.629 C 15.917 9.157,16.071 9.569,16.201 10.303 C 16.285 10.782,16.379 10.947,16.641 11.080 C 16.964 11.245,17.392 11.132,17.593 10.828 C 17.686 10.687,17.699 10.628,17.694 10.383 C 17.679 9.605,17.304 8.543,16.753 7.713 C 16.452 7.259,15.711 6.508,15.269 6.206 C 14.654 5.787,13.917 5.470,13.159 5.300 C 12.756 5.209,11.497 5.184,11.080 5.258 M11.480 8.422 C 10.596 8.613,9.847 9.369,9.660 10.260 C 9.576 10.663,9.575 13.336,9.660 13.740 C 9.841 14.604,10.584 15.365,11.440 15.562 C 11.722 15.627,12.278 15.627,12.560 15.562 C 13.414 15.366,14.160 14.602,14.340 13.740 C 14.425 13.336,14.424 10.663,14.340 10.260 C 14.151 9.360,13.400 8.609,12.500 8.420 C 12.156 8.348,11.822 8.349,11.480 8.422 M12.380 9.950 C 12.552 10.035,12.714 10.195,12.814 10.380 C 12.897 10.535,12.900 10.581,12.900 11.960 C 12.900 13.515,12.893 13.571,12.666 13.830 C 12.325 14.218,11.675 14.218,11.334 13.830 C 11.107 13.571,11.100 13.515,11.100 11.960 C 11.100 10.651,11.106 10.529,11.175 10.400 C 11.427 9.926,11.941 9.734,12.380 9.950 M1.815 14.278 C 1.639 14.320,1.462 14.455,1.353 14.631 C 1.263 14.774,1.260 14.816,1.247 15.760 C 1.219 17.822,1.373 18.784,1.896 19.814 C 2.174 20.361,2.425 20.708,2.859 21.141 C 3.825 22.107,4.993 22.607,6.545 22.719 C 7.293 22.773,8.904 22.771,9.162 22.716 C 9.828 22.573,9.943 21.639,9.332 21.336 C 9.194 21.267,9.043 21.258,7.680 21.237 C 6.073 21.212,5.933 21.197,5.319 20.979 C 4.239 20.594,3.406 19.761,3.021 18.681 C 2.804 18.069,2.788 17.927,2.763 16.320 C 2.742 14.958,2.733 14.806,2.664 14.668 C 2.573 14.484,2.395 14.343,2.180 14.284 C 2.003 14.236,1.993 14.236,1.815 14.278 M21.815 14.277 C 21.638 14.321,21.461 14.456,21.353 14.631 C 21.261 14.778,21.260 14.799,21.237 16.300 C 21.212 17.929,21.197 18.067,20.979 18.681 C 20.594 19.761,19.761 20.594,18.681 20.979 C 18.067 21.197,17.929 21.212,16.300 21.237 C 14.789 21.260,14.779 21.261,14.627 21.355 C 14.385 21.506,14.267 21.718,14.267 22.003 C 14.267 22.203,14.286 22.270,14.383 22.408 C 14.602 22.717,14.687 22.738,15.780 22.753 C 17.819 22.782,18.787 22.626,19.814 22.104 C 20.361 21.826,20.708 21.575,21.141 21.141 C 22.107 20.175,22.607 19.007,22.719 17.455 C 22.771 16.733,22.770 15.071,22.717 14.841 C 22.623 14.432,22.215 14.177,21.815 14.277 " stroke="none" fill-rule="evenodd" fill="black"></path></svg>