<svg width="24" height="24" viewBox="0 0 24 24" fill="none" xmlns="http://www.w3.org/2000/svg"><path d="M4.636 3.281 C 3.626 3.394,3.015 3.936,2.822 4.888 C 2.733 5.329,2.731 8.639,2.819 9.106 C 2.972 9.913,3.444 10.431,4.223 10.648 C 4.530 10.734,4.603 10.737,6.480 10.738 C 8.654 10.740,8.713 10.734,9.247 10.454 C 9.739 10.195,10.049 9.749,10.178 9.112 C 10.267 8.671,10.269 5.361,10.181 4.894 C 10.024 4.069,9.533 3.547,8.713 3.335 C 8.501 3.280,8.175 3.268,6.700 3.258 C 5.732 3.252,4.803 3.262,4.636 3.281 M13.720 3.805 C 13.458 3.909,13.269 4.200,13.269 4.500 C 13.269 4.807,13.460 5.095,13.733 5.197 C 13.890 5.257,21.110 5.257,21.267 5.197 C 21.540 5.095,21.731 4.807,21.731 4.500 C 21.731 4.193,21.540 3.905,21.267 3.803 C 21.117 3.746,13.863 3.748,13.720 3.805 M8.480 4.830 C 8.743 4.962,8.740 4.936,8.740 7.000 C 8.740 9.064,8.743 9.038,8.480 9.170 C 8.353 9.233,8.172 9.240,6.500 9.240 C 4.461 9.240,4.449 9.238,4.320 8.980 C 4.230 8.801,4.230 5.199,4.320 5.020 C 4.449 4.762,4.461 4.760,6.500 4.760 C 8.172 4.760,8.353 4.767,8.480 4.830 M13.720 8.805 C 13.458 8.909,13.269 9.200,13.269 9.500 C 13.269 9.807,13.460 10.095,13.733 10.197 C 13.890 10.257,21.110 10.257,21.267 10.197 C 21.540 10.095,21.731 9.807,21.731 9.500 C 21.731 9.193,21.540 8.905,21.267 8.803 C 21.117 8.746,13.863 8.748,13.720 8.805 M2.720 13.805 C 2.458 13.909,2.269 14.200,2.269 14.500 C 2.269 14.807,2.460 15.095,2.733 15.197 C 2.891 15.257,21.109 15.257,21.267 15.197 C 21.540 15.095,21.731 14.807,21.731 14.500 C 21.731 14.193,21.540 13.905,21.267 13.803 C 21.116 13.745,2.864 13.747,2.720 13.805 M2.720 18.805 C 2.458 18.909,2.269 19.200,2.269 19.500 C 2.269 19.807,2.460 20.095,2.733 20.197 C 2.891 20.257,21.109 20.257,21.267 20.197 C 21.540 20.095,21.731 19.807,21.731 19.500 C 21.731 19.193,21.540 18.905,21.267 18.803 C 21.116 18.745,2.864 18.747,2.720 18.805 " stroke="none" fill-rule="evenodd" fill="black"></path></svg>