<svg width="24" height="24" viewBox="0 0 24 24" fill="none" xmlns="http://www.w3.org/2000/svg"><path d="M5.060 1.260 C 5.038 1.267,4.972 1.284,4.913 1.296 C 4.758 1.331,4.560 1.512,4.475 1.698 C 4.405 1.854,4.402 2.249,4.401 11.991 C 4.400 23.020,4.385 22.270,4.612 22.513 C 4.934 22.858,5.544 22.787,5.784 22.377 L 5.880 22.213 5.880 19.486 L 5.880 16.760 11.070 16.760 C 16.231 16.760,17.047 16.742,17.570 16.621 C 18.606 16.380,19.249 15.879,19.480 15.132 C 19.640 14.613,19.571 14.024,19.281 13.432 C 19.023 12.907,18.698 12.503,17.756 11.542 C 17.259 11.035,16.830 10.578,16.803 10.527 C 16.667 10.268,16.685 9.769,16.842 9.466 C 16.889 9.374,17.282 8.940,17.716 8.500 C 18.791 7.409,19.042 7.096,19.345 6.464 C 19.800 5.515,19.616 4.505,18.883 3.943 C 18.355 3.537,17.767 3.349,16.806 3.280 C 16.490 3.257,14.078 3.241,11.070 3.240 L 5.880 3.240 5.880 2.514 C 5.880 1.819,5.876 1.780,5.784 1.623 C 5.731 1.532,5.619 1.422,5.534 1.374 C 5.384 1.292,5.141 1.233,5.060 1.260 M17.103 4.802 C 17.683 4.905,18.042 5.095,18.101 5.331 C 18.116 5.388,18.099 5.533,18.063 5.654 C 17.950 6.044,17.638 6.441,16.677 7.419 C 16.179 7.925,15.709 8.439,15.632 8.560 C 15.226 9.199,15.097 10.060,15.303 10.761 C 15.459 11.291,15.602 11.485,16.561 12.460 C 17.058 12.966,17.541 13.478,17.636 13.598 C 17.974 14.029,18.139 14.480,18.043 14.712 C 17.984 14.854,17.734 15.018,17.400 15.131 L 17.140 15.220 11.510 15.231 L 5.880 15.242 5.880 10.001 L 5.880 4.760 11.373 4.760 C 15.035 4.760,16.944 4.774,17.103 4.802 " stroke="none" fill-rule="evenodd" fill="black"></path></svg>