<svg width="24" height="24" viewBox="0 0 24 24" fill="none" xmlns="http://www.w3.org/2000/svg"><path d="M6.294 1.278 C 6.092 1.326,5.904 1.464,5.808 1.633 L 5.720 1.791 5.720 12.002 L 5.720 22.213 5.816 22.377 C 6.056 22.787,6.666 22.858,6.988 22.513 C 7.200 22.286,7.200 22.294,7.203 19.911 L 7.206 17.700 8.853 16.889 C 16.302 13.221,16.337 13.202,17.030 12.603 C 17.607 12.105,18.071 11.399,18.217 10.797 C 18.297 10.466,18.297 9.898,18.218 9.561 C 17.991 8.598,17.145 7.700,15.861 7.060 C 15.641 6.950,13.602 6.059,11.331 5.080 L 7.202 3.300 7.201 2.589 C 7.200 1.831,7.171 1.683,6.988 1.487 C 6.819 1.306,6.536 1.221,6.294 1.278 M11.360 6.719 C 13.307 7.561,15.026 8.312,15.180 8.389 C 15.894 8.745,16.472 9.244,16.676 9.679 C 16.833 10.013,16.823 10.374,16.648 10.730 C 16.480 11.072,16.023 11.540,15.552 11.853 C 15.252 12.053,11.594 13.891,8.250 15.522 L 7.200 16.034 7.200 10.479 L 7.200 4.923 7.510 5.056 C 7.680 5.129,9.413 5.878,11.360 6.719 " stroke="none" fill-rule="evenodd" fill="black"></path></svg>