<svg width="24" height="24" viewBox="0 0 24 24" fill="none" xmlns="http://www.w3.org/2000/svg"><path d="M13.720 1.282 C 13.415 1.343,12.917 1.617,12.627 1.882 C 12.383 2.106,5.064 10.383,4.568 10.997 C 3.860 11.873,3.804 12.838,4.426 13.460 C 4.621 13.655,5.056 13.883,5.380 13.960 C 5.505 13.990,6.118 14.015,7.010 14.028 L 8.440 14.049 8.440 14.275 L 8.440 14.500 4.938 18.000 C 3.012 19.925,1.398 21.561,1.352 21.636 C 1.232 21.826,1.234 22.177,1.356 22.374 C 1.532 22.658,1.839 22.783,2.189 22.712 C 2.376 22.674,2.592 22.460,12.490 12.566 C 18.342 6.717,22.628 2.403,22.665 2.324 C 22.753 2.138,22.747 1.837,22.651 1.651 C 22.608 1.568,22.499 1.448,22.408 1.383 C 22.271 1.287,22.202 1.267,22.011 1.267 C 21.884 1.267,21.735 1.290,21.680 1.318 C 21.625 1.346,20.226 2.720,18.572 4.372 L 15.564 7.375 15.550 5.097 C 15.535 2.599,15.538 2.626,15.281 2.100 C 14.990 1.501,14.335 1.158,13.720 1.282 M14.071 5.938 L 14.083 8.857 11.994 10.946 L 9.904 13.036 9.815 12.887 C 9.766 12.805,9.648 12.694,9.553 12.639 L 9.380 12.540 7.520 12.518 C 6.497 12.505,5.619 12.481,5.570 12.463 C 5.450 12.420,5.457 12.332,5.595 12.118 C 5.699 11.957,12.989 3.651,13.434 3.185 C 13.536 3.078,13.692 2.937,13.780 2.872 L 13.940 2.754 14.000 2.887 C 14.051 3.001,14.062 3.447,14.071 5.938 M16.814 9.995 C 16.154 10.168,16.023 11.028,16.606 11.360 C 16.769 11.452,16.829 11.460,17.560 11.484 C 17.989 11.497,18.381 11.522,18.430 11.539 C 18.550 11.579,18.543 11.668,18.405 11.882 C 18.284 12.068,10.928 20.441,10.516 20.862 C 10.385 20.995,10.227 21.134,10.163 21.172 L 10.048 21.240 9.996 21.110 C 9.958 21.015,9.938 20.550,9.922 19.380 C 9.907 18.273,9.886 17.755,9.853 17.700 C 9.792 17.594,9.605 17.422,9.482 17.359 C 9.346 17.289,9.003 17.296,8.855 17.372 C 8.681 17.462,8.488 17.695,8.459 17.851 C 8.445 17.924,8.441 18.703,8.450 19.582 C 8.463 20.935,8.476 21.217,8.533 21.420 C 8.746 22.167,9.171 22.611,9.782 22.724 C 10.333 22.826,11.008 22.514,11.625 21.874 C 11.912 21.576,19.155 13.345,19.447 12.985 C 19.995 12.309,20.152 11.532,19.860 10.936 C 19.653 10.513,19.155 10.159,18.600 10.041 C 18.333 9.984,16.989 9.950,16.814 9.995 " stroke="none" fill-rule="evenodd" fill="black"></path></svg>