<svg width="24" height="24" viewBox="0 0 24 24" fill="none" xmlns="http://www.w3.org/2000/svg"><path d="M16.720 1.631 C 16.267 1.665,15.871 1.865,15.492 2.252 C 15.283 2.466,10.090 8.349,7.948 10.800 C 7.408 11.418,7.280 12.237,7.615 12.931 C 7.787 13.288,7.972 13.507,8.265 13.702 C 8.709 13.996,8.812 14.012,10.330 14.031 L 11.680 14.047 11.680 17.419 C 11.680 20.658,11.683 20.802,11.759 21.046 C 11.944 21.646,12.396 22.096,13.000 22.283 C 13.340 22.389,13.830 22.391,14.131 22.290 C 14.674 22.107,14.534 22.251,18.594 17.642 C 20.676 15.279,22.468 13.236,22.576 13.102 C 22.684 12.969,22.815 12.764,22.867 12.648 C 23.378 11.495,22.640 10.176,21.387 10.003 C 21.215 9.979,20.563 9.960,19.939 9.960 L 18.803 9.960 18.792 6.570 L 18.780 3.180 18.687 2.922 C 18.516 2.449,18.274 2.150,17.861 1.902 C 17.530 1.703,17.103 1.602,16.720 1.631 M17.148 3.217 L 17.260 3.313 17.280 7.133 L 17.300 10.953 17.420 11.123 C 17.486 11.216,17.612 11.330,17.700 11.376 C 17.853 11.456,17.934 11.461,19.589 11.480 L 21.318 11.500 21.418 11.600 C 21.556 11.738,21.582 11.910,21.487 12.060 C 21.402 12.194,13.973 20.648,13.815 20.790 C 13.651 20.938,13.306 20.877,13.201 20.682 C 13.174 20.631,13.160 19.359,13.160 16.881 C 13.160 12.849,13.168 13.002,12.948 12.767 C 12.735 12.538,12.765 12.542,10.866 12.520 L 9.113 12.500 9.016 12.388 C 8.870 12.218,8.884 12.001,9.053 11.810 C 9.127 11.728,10.848 9.770,12.879 7.460 C 14.909 5.150,16.609 3.229,16.655 3.191 C 16.781 3.089,17.013 3.101,17.148 3.217 M1.420 3.259 C 1.398 3.267,1.331 3.284,1.271 3.297 C 1.124 3.329,0.881 3.548,0.814 3.708 C 0.691 4.002,0.771 4.336,1.015 4.550 C 1.095 4.621,1.211 4.693,1.271 4.709 C 1.413 4.749,8.587 4.749,8.729 4.709 C 8.881 4.667,9.121 4.447,9.186 4.292 C 9.297 4.027,9.241 3.711,9.047 3.506 C 8.799 3.243,9.068 3.261,5.080 3.253 C 3.089 3.249,1.442 3.251,1.420 3.259 M1.420 11.259 C 1.398 11.267,1.331 11.284,1.271 11.297 C 1.124 11.329,0.881 11.548,0.814 11.708 C 0.745 11.873,0.745 12.127,0.814 12.292 C 0.879 12.447,1.119 12.667,1.271 12.709 C 1.413 12.749,4.587 12.749,4.729 12.709 C 4.881 12.667,5.121 12.447,5.186 12.292 C 5.297 12.027,5.241 11.711,5.047 11.506 C 4.810 11.255,4.854 11.261,3.080 11.252 C 2.189 11.248,1.442 11.251,1.420 11.259 M1.420 19.259 C 1.398 19.267,1.331 19.284,1.271 19.297 C 1.124 19.329,0.881 19.548,0.814 19.708 C 0.745 19.873,0.745 20.127,0.814 20.292 C 0.879 20.447,1.119 20.667,1.271 20.709 C 1.413 20.749,7.587 20.749,7.729 20.709 C 7.881 20.667,8.121 20.447,8.186 20.292 C 8.297 20.027,8.241 19.711,8.047 19.506 C 7.800 19.245,8.014 19.261,4.580 19.253 C 2.864 19.248,1.442 19.251,1.420 19.259 " stroke="none" fill-rule="evenodd" fill="black"></path></svg>