<svg width="24" height="24" viewBox="0 0 24 24" fill="none" xmlns="http://www.w3.org/2000/svg"><path d="M11.320 1.281 C 7.041 1.525,3.252 4.409,1.843 8.497 C 1.180 10.418,1.082 12.560,1.564 14.550 C 2.505 18.428,5.572 21.495,9.450 22.436 C 11.106 22.837,12.894 22.837,14.550 22.436 C 18.428 21.495,21.495 18.428,22.436 14.550 C 22.837 12.894,22.837 11.106,22.436 9.450 C 21.425 5.282,17.985 2.095,13.742 1.398 C 13.334 1.331,12.074 1.229,11.880 1.247 C 11.847 1.250,11.595 1.265,11.320 1.281 M13.146 2.822 C 14.201 2.960,15.125 3.237,16.060 3.696 C 18.877 5.079,20.768 7.722,21.178 10.854 C 21.301 11.786,21.244 13.026,21.034 13.998 C 20.745 15.343,20.003 16.855,19.121 17.900 C 18.247 18.935,17.240 19.726,16.060 20.304 C 14.761 20.940,13.462 21.240,12.000 21.240 C 10.538 21.240,9.236 20.940,7.940 20.304 C 5.123 18.921,3.232 16.278,2.822 13.146 C 2.699 12.214,2.756 10.974,2.966 10.002 C 3.177 9.020,3.703 7.775,4.268 6.920 C 5.750 4.677,8.131 3.188,10.820 2.823 C 11.380 2.746,12.569 2.746,13.146 2.822 M13.921 6.224 C 13.801 6.256,13.621 6.330,13.521 6.387 C 13.103 6.628,7.926 10.236,7.750 10.410 C 7.319 10.834,7.202 11.391,7.443 11.873 C 7.662 12.312,7.997 12.512,8.866 12.726 C 9.208 12.810,9.400 12.876,9.400 12.909 C 9.400 12.937,9.217 13.703,8.994 14.610 C 8.643 16.039,8.588 16.305,8.588 16.600 C 8.587 16.991,8.677 17.249,8.892 17.473 C 9.286 17.884,9.805 17.947,10.410 17.659 C 10.695 17.523,16.047 13.809,16.261 13.599 C 16.858 13.013,16.831 12.159,16.200 11.694 C 15.972 11.526,15.723 11.431,15.094 11.274 C 14.598 11.150,14.593 11.147,14.614 11.044 C 14.626 10.987,14.810 10.238,15.023 9.380 C 15.369 7.987,15.410 7.779,15.414 7.440 C 15.419 6.963,15.325 6.724,15.031 6.459 C 14.717 6.177,14.370 6.104,13.921 6.224 M13.359 9.880 C 12.886 11.786,12.880 11.829,13.054 12.088 C 13.202 12.308,13.364 12.382,14.088 12.560 C 14.469 12.654,14.804 12.743,14.832 12.758 C 14.865 12.776,14.017 13.387,12.560 14.397 C 11.281 15.284,10.227 16.000,10.217 15.990 C 10.207 15.980,10.399 15.153,10.645 14.152 C 11.123 12.202,11.126 12.180,10.948 11.915 C 10.800 11.695,10.650 11.628,9.898 11.445 C 9.503 11.349,9.168 11.259,9.153 11.245 C 9.138 11.231,10.173 10.495,11.453 9.608 C 12.794 8.680,13.785 8.019,13.791 8.048 C 13.797 8.077,13.603 8.901,13.359 9.880 " stroke="none" fill-rule="evenodd" fill="black"></path></svg>