<svg width="24" height="24" viewBox="0 0 24 24" fill="none" xmlns="http://www.w3.org/2000/svg"><path d="M11.520 1.265 C 9.179 1.381,7.037 2.186,5.222 3.635 C 3.683 4.862,2.406 6.708,1.781 8.608 C 1.400 9.763,1.240 10.769,1.240 12.000 C 1.240 13.231,1.400 14.237,1.781 15.392 C 2.968 19.000,6.008 21.712,9.764 22.516 C 10.723 22.721,12.190 22.792,13.160 22.680 C 17.435 22.189,21.013 19.214,22.253 15.120 C 22.571 14.071,22.697 13.186,22.697 12.000 C 22.697 10.814,22.571 9.929,22.253 8.880 C 21.209 5.435,18.507 2.751,15.024 1.701 C 13.967 1.383,12.598 1.212,11.520 1.265 M13.082 2.817 C 16.549 3.250,19.446 5.544,20.660 8.818 C 21.024 9.801,21.208 10.858,21.210 11.980 C 21.211 13.036,21.073 13.933,20.761 14.881 C 19.624 18.344,16.573 20.806,12.928 21.202 C 12.295 21.270,11.037 21.232,10.440 21.126 C 8.405 20.764,6.697 19.852,5.279 18.372 C 1.870 14.814,1.867 9.188,5.272 5.635 C 6.452 4.403,7.833 3.562,9.429 3.103 C 9.859 2.979,10.663 2.824,11.060 2.788 C 11.494 2.749,12.667 2.765,13.082 2.817 M12.515 5.900 C 12.413 5.933,12.246 6.018,12.144 6.090 C 12.038 6.165,11.021 7.285,9.759 8.720 C 7.257 11.562,7.299 11.505,7.302 12.079 C 7.303 12.370,7.321 12.455,7.419 12.658 C 7.623 13.083,8.002 13.365,8.468 13.442 C 8.596 13.462,8.920 13.480,9.188 13.480 L 9.677 13.480 9.688 15.310 L 9.700 17.140 9.810 17.365 C 9.941 17.631,10.247 17.931,10.511 18.052 C 10.660 18.120,10.777 18.139,11.061 18.139 C 11.389 18.140,11.445 18.128,11.692 18.007 C 11.957 17.876,12.010 17.820,14.223 15.307 C 15.824 13.490,16.515 12.676,16.592 12.520 C 16.685 12.330,16.700 12.250,16.700 11.939 C 16.700 11.612,16.688 11.553,16.568 11.311 C 16.362 10.893,16.011 10.637,15.535 10.559 C 15.406 10.538,15.080 10.520,14.812 10.520 L 14.323 10.520 14.312 8.670 L 14.300 6.820 14.189 6.609 C 13.943 6.143,13.524 5.875,13.006 5.854 C 12.812 5.845,12.632 5.863,12.515 5.900 M12.915 11.600 C 12.996 11.748,13.125 11.879,13.260 11.953 C 13.357 12.006,13.546 12.023,14.233 12.039 L 15.087 12.060 13.133 14.279 L 11.180 16.499 11.160 14.479 C 11.146 13.049,11.126 12.437,11.093 12.380 C 11.033 12.276,10.847 12.104,10.720 12.035 C 10.648 11.996,10.379 11.975,9.772 11.960 L 8.923 11.940 10.872 9.725 L 12.820 7.511 12.840 9.505 C 12.856 11.093,12.871 11.520,12.915 11.600 " stroke="none" fill-rule="evenodd" fill="black"></path></svg>