<svg width="24" height="24" viewBox="0 0 24 24" fill="none" xmlns="http://www.w3.org/2000/svg"><path d="M13.700 1.280 C 13.291 1.367,12.834 1.656,12.393 2.107 C 12.027 2.481,4.699 10.806,4.479 11.097 C 4.124 11.567,3.929 12.193,3.997 12.641 C 4.072 13.127,4.410 13.558,4.893 13.779 C 5.359 13.993,5.466 14.006,7.009 14.028 L 8.437 14.049 8.450 17.614 C 8.461 20.867,8.468 21.201,8.532 21.420 C 8.751 22.172,9.171 22.611,9.782 22.724 C 10.333 22.826,11.008 22.514,11.625 21.874 C 11.912 21.576,19.155 13.345,19.447 12.985 C 19.860 12.476,20.068 11.853,19.994 11.346 C 19.926 10.878,19.589 10.453,19.107 10.224 C 18.651 10.007,18.541 9.994,16.992 9.972 L 15.563 9.951 15.550 6.406 C 15.537 2.862,15.537 2.860,15.448 2.566 C 15.259 1.950,14.974 1.568,14.569 1.389 C 14.312 1.275,13.941 1.229,13.700 1.280 M14.079 7.020 L 14.100 10.980 14.188 11.122 C 14.236 11.199,14.353 11.307,14.448 11.362 L 14.620 11.460 16.480 11.482 C 17.503 11.495,18.381 11.519,18.430 11.537 C 18.550 11.580,18.543 11.668,18.405 11.882 C 18.284 12.068,10.928 20.441,10.516 20.862 C 10.385 20.995,10.227 21.134,10.163 21.172 L 10.048 21.240 9.994 21.110 C 9.951 21.005,9.937 20.201,9.920 17.000 C 9.905 14.078,9.888 12.999,9.853 12.940 C 9.793 12.837,9.607 12.665,9.480 12.595 C 9.401 12.551,8.988 12.536,7.500 12.519 C 6.466 12.508,5.589 12.484,5.550 12.465 C 5.447 12.416,5.464 12.312,5.611 12.094 C 5.744 11.896,13.248 3.351,13.540 3.065 C 13.628 2.979,13.754 2.875,13.820 2.835 L 13.939 2.761 13.999 2.911 C 14.050 3.038,14.061 3.640,14.079 7.020 " stroke="none" fill-rule="evenodd" fill="black"></path></svg>