<svg width="24" height="24" viewBox="0 0 24 24" fill="none" xmlns="http://www.w3.org/2000/svg"><path d="M6.009 1.282 C 4.604 1.361,3.703 1.597,2.971 2.079 C 1.987 2.727,1.501 3.736,1.313 5.520 C 1.236 6.247,1.236 17.752,1.313 18.480 C 1.469 19.956,1.812 20.851,2.481 21.519 C 3.149 22.188,4.044 22.531,5.520 22.687 C 6.247 22.764,17.753 22.764,18.480 22.687 C 19.956 22.531,20.851 22.188,21.519 21.519 C 22.188 20.851,22.531 19.956,22.687 18.480 C 22.763 17.762,22.763 10.238,22.687 9.520 C 22.503 7.774,22.000 6.710,21.071 6.105 L 20.772 5.910 20.747 5.145 C 20.734 4.724,20.695 4.223,20.661 4.031 C 20.446 2.806,19.729 1.915,18.639 1.517 C 17.921 1.255,18.225 1.267,12.120 1.258 C 9.073 1.254,6.323 1.265,6.009 1.282 M9.440 2.860 C 9.762 2.973,9.973 3.206,11.066 4.660 C 12.202 6.172,12.427 6.405,12.935 6.586 C 13.299 6.716,13.514 6.728,15.960 6.758 C 18.659 6.791,18.853 6.806,19.550 7.026 C 19.905 7.137,20.266 7.334,20.461 7.522 C 20.768 7.818,21.019 8.424,21.146 9.180 C 21.215 9.590,21.220 9.923,21.220 14.000 C 21.220 18.060,21.215 18.412,21.147 18.815 C 21.011 19.619,20.805 20.112,20.458 20.458 C 20.112 20.805,19.619 21.011,18.815 21.147 C 18.406 21.216,17.998 21.220,12.000 21.220 C 5.977 21.220,5.595 21.216,5.180 21.146 C 4.440 21.021,3.904 20.807,3.565 20.499 C 3.241 20.205,2.986 19.603,2.854 18.820 C 2.784 18.405,2.780 18.023,2.780 12.000 C 2.780 5.977,2.784 5.595,2.854 5.180 C 2.991 4.366,3.243 3.788,3.599 3.473 C 3.821 3.276,4.246 3.070,4.640 2.967 C 4.899 2.900,5.077 2.871,5.780 2.784 C 5.846 2.776,6.647 2.773,7.560 2.776 C 9.086 2.782,9.238 2.789,9.440 2.860 M17.773 2.819 C 18.552 2.984,19.017 3.447,19.180 4.220 C 19.212 4.374,19.239 4.704,19.239 4.954 L 19.240 5.408 19.050 5.382 C 18.382 5.291,17.948 5.274,15.900 5.256 C 14.013 5.240,13.591 5.226,13.454 5.176 C 13.319 5.128,13.229 5.040,12.970 4.708 C 12.625 4.264,11.594 2.891,11.545 2.810 C 11.498 2.731,17.396 2.739,17.773 2.819 " stroke="none" fill-rule="evenodd" fill="black"></path></svg>