<svg width="24" height="24" viewBox="0 0 24 24" fill="none" xmlns="http://www.w3.org/2000/svg"><path d="M7.740 1.281 C 5.547 1.401,4.602 2.222,4.311 4.260 C 4.237 4.780,4.237 13.220,4.311 13.740 C 4.510 15.134,4.997 15.910,5.940 16.339 C 6.668 16.670,7.095 16.721,9.370 16.749 L 11.240 16.771 11.240 17.560 L 11.240 18.349 11.010 18.434 C 10.350 18.676,9.676 19.349,9.434 20.008 L 9.351 20.236 7.562 20.248 L 5.774 20.260 5.612 20.367 C 5.372 20.526,5.267 20.721,5.267 21.007 C 5.267 21.203,5.286 21.270,5.383 21.408 C 5.447 21.499,5.572 21.610,5.660 21.656 C 5.814 21.737,5.885 21.740,7.588 21.752 L 9.355 21.764 9.402 21.912 C 9.526 22.305,9.917 22.852,10.273 23.131 C 10.818 23.558,11.315 23.731,12.000 23.731 C 12.685 23.731,13.182 23.558,13.727 23.131 C 14.084 22.851,14.474 22.305,14.599 21.910 L 14.646 21.760 16.301 21.760 C 17.359 21.760,18.030 21.744,18.162 21.716 C 18.904 21.557,18.924 20.471,18.189 20.286 C 18.064 20.255,17.466 20.240,16.328 20.240 L 14.651 20.240 14.566 20.010 C 14.324 19.349,13.651 18.676,12.990 18.434 L 12.760 18.349 12.760 17.560 L 12.760 16.771 14.610 16.748 C 15.627 16.735,16.604 16.705,16.780 16.681 C 18.616 16.433,19.449 15.582,19.687 13.715 C 19.761 13.133,19.763 7.631,19.689 7.080 C 19.503 5.689,19.006 4.891,18.060 4.461 C 17.349 4.138,16.892 4.080,14.800 4.053 C 13.705 4.038,13.081 4.015,13.047 3.988 C 13.018 3.965,12.674 3.521,12.282 3.003 C 11.890 2.484,11.471 1.967,11.351 1.854 C 11.120 1.635,10.827 1.467,10.516 1.375 C 10.094 1.250,8.989 1.212,7.740 1.281 M10.085 2.801 C 10.281 2.855,10.457 3.052,11.249 4.104 C 11.940 5.020,12.087 5.181,12.371 5.326 C 12.748 5.519,12.840 5.528,14.780 5.560 C 16.277 5.585,16.676 5.603,16.920 5.658 C 17.280 5.739,17.621 5.887,17.766 6.026 C 17.912 6.165,18.060 6.513,18.147 6.920 C 18.214 7.232,18.220 7.515,18.220 10.400 C 18.220 13.285,18.214 13.568,18.147 13.880 C 18.060 14.287,17.912 14.635,17.766 14.774 C 17.614 14.920,17.272 15.064,16.880 15.147 C 16.563 15.215,16.232 15.220,12.000 15.220 C 7.761 15.220,7.437 15.215,7.120 15.147 C 6.713 15.060,6.365 14.912,6.226 14.766 C 6.080 14.614,5.936 14.272,5.853 13.880 C 5.785 13.563,5.780 13.232,5.780 9.000 C 5.780 4.768,5.785 4.437,5.853 4.120 C 5.933 3.743,6.078 3.390,6.212 3.246 C 6.395 3.050,6.764 2.910,7.340 2.819 C 7.734 2.756,9.874 2.742,10.085 2.801 M12.454 19.841 C 12.744 19.950,13.050 20.256,13.159 20.546 C 13.335 21.017,13.227 21.521,12.874 21.874 C 12.629 22.120,12.342 22.240,12.000 22.240 C 11.492 22.240,11.014 21.913,10.837 21.445 C 10.728 21.157,10.743 20.704,10.870 20.458 C 11.019 20.169,11.349 19.886,11.640 19.797 C 11.838 19.737,12.232 19.758,12.454 19.841 " stroke="none" fill-rule="evenodd" fill="black"></path></svg>