<svg width="24" height="24" viewBox="0 0 24 24" fill="none" xmlns="http://www.w3.org/2000/svg"><path d="M6.642 1.321 C 4.354 1.507,3.253 2.390,2.903 4.320 C 2.780 4.997,2.760 5.568,2.760 8.402 L 2.760 11.264 2.597 11.422 C 2.388 11.625,2.034 12.153,1.879 12.496 C 1.738 12.807,1.615 13.301,1.579 13.700 C 1.556 13.965,1.935 19.014,2.043 19.880 C 2.260 21.605,2.996 22.393,4.650 22.671 C 5.027 22.734,5.618 22.740,12.000 22.740 C 18.382 22.740,18.973 22.734,19.350 22.671 C 21.004 22.393,21.741 21.604,21.956 19.880 C 22.046 19.163,22.408 14.476,22.411 14.000 C 22.413 13.677,22.391 13.397,22.349 13.210 C 22.212 12.595,21.866 11.934,21.435 11.462 L 21.240 11.249 21.240 10.214 C 21.240 8.008,21.067 7.057,20.506 6.169 C 20.366 5.948,19.972 5.554,19.751 5.414 C 19.097 5.001,18.404 4.807,17.266 4.720 C 16.977 4.698,15.988 4.680,15.069 4.680 C 13.718 4.680,13.371 4.669,13.262 4.623 C 13.155 4.579,12.938 4.315,12.246 3.390 C 11.276 2.095,11.005 1.806,10.552 1.583 C 10.051 1.336,9.862 1.312,8.380 1.299 C 7.654 1.293,6.872 1.303,6.642 1.321 M9.740 2.859 C 9.850 2.897,10.010 2.993,10.095 3.074 C 10.180 3.154,10.616 3.709,11.064 4.306 C 12.125 5.719,12.258 5.854,12.780 6.045 C 13.011 6.130,13.096 6.134,15.100 6.162 C 16.244 6.178,17.342 6.212,17.540 6.237 C 18.598 6.372,19.135 6.666,19.399 7.253 C 19.627 7.760,19.703 8.268,19.745 9.556 L 19.772 10.412 19.657 10.383 C 19.177 10.262,19.036 10.260,12.000 10.260 C 4.972 10.260,4.823 10.262,4.346 10.382 L 4.233 10.410 4.251 7.795 C 4.269 5.180,4.284 4.894,4.425 4.324 C 4.741 3.046,5.539 2.744,8.520 2.778 C 9.358 2.788,9.576 2.802,9.740 2.859 M19.254 11.823 C 19.637 11.922,19.952 12.108,20.260 12.418 C 20.714 12.875,20.929 13.377,20.927 13.974 C 20.925 14.315,20.549 19.089,20.477 19.680 C 20.431 20.062,20.340 20.446,20.260 20.598 C 20.177 20.756,19.958 20.948,19.760 21.035 C 19.278 21.247,19.472 21.242,11.839 21.230 C 5.156 21.219,4.767 21.214,4.541 21.145 C 4.227 21.050,4.088 20.978,3.927 20.826 C 3.581 20.500,3.566 20.410,3.280 16.840 C 3.062 14.113,3.047 13.727,3.144 13.397 C 3.310 12.840,3.772 12.259,4.240 12.018 C 4.770 11.747,4.185 11.766,11.974 11.763 C 18.269 11.760,19.034 11.767,19.254 11.823 M9.245 16.279 C 9.075 16.320,8.925 16.430,8.811 16.598 C 8.498 17.058,8.799 17.671,9.372 17.740 C 9.486 17.753,10.750 17.759,12.180 17.752 C 14.510 17.741,14.792 17.733,14.900 17.674 C 15.142 17.540,15.320 17.255,15.320 17.000 C 15.320 16.745,15.142 16.460,14.900 16.326 C 14.792 16.267,14.510 16.259,12.080 16.253 C 10.595 16.250,9.319 16.262,9.245 16.279 " stroke="none" fill-rule="evenodd" fill="black"></path></svg>