<svg width="24" height="24" viewBox="0 0 24 24" fill="none" xmlns="http://www.w3.org/2000/svg"><path d="M6.009 1.280 C 4.592 1.364,3.701 1.598,2.971 2.079 C 1.987 2.727,1.501 3.736,1.313 5.520 C 1.236 6.247,1.236 17.752,1.313 18.480 C 1.469 19.956,1.812 20.851,2.481 21.519 C 3.149 22.188,4.044 22.531,5.520 22.687 C 6.247 22.764,17.753 22.764,18.480 22.687 C 19.956 22.531,20.851 22.188,21.519 21.519 C 22.188 20.851,22.531 19.956,22.687 18.480 C 22.727 18.101,22.740 17.016,22.740 14.000 C 22.740 9.838,22.729 9.511,22.559 8.629 C 22.253 7.039,21.443 6.061,20.068 5.624 C 19.114 5.321,18.611 5.277,15.880 5.255 C 14.007 5.239,13.592 5.226,13.454 5.176 C 13.267 5.109,13.180 5.004,11.919 3.321 C 11.516 2.783,11.113 2.263,11.023 2.166 C 10.647 1.757,10.153 1.484,9.552 1.354 C 9.232 1.285,9.000 1.272,7.880 1.260 C 7.165 1.253,6.323 1.262,6.009 1.280 M9.440 2.860 C 9.762 2.973,9.973 3.206,11.066 4.660 C 12.202 6.172,12.427 6.405,12.935 6.586 C 13.299 6.716,13.514 6.728,15.960 6.758 C 18.659 6.791,18.853 6.806,19.550 7.026 C 19.905 7.137,20.266 7.334,20.461 7.522 C 20.768 7.818,21.019 8.424,21.146 9.180 C 21.215 9.590,21.220 9.923,21.220 14.000 C 21.220 18.060,21.215 18.412,21.147 18.815 C 21.011 19.619,20.805 20.112,20.458 20.458 C 20.112 20.805,19.619 21.011,18.815 21.147 C 18.406 21.216,17.998 21.220,12.000 21.220 C 5.977 21.220,5.595 21.216,5.180 21.146 C 4.440 21.021,3.904 20.807,3.565 20.499 C 3.241 20.205,2.986 19.603,2.854 18.820 C 2.784 18.405,2.780 18.023,2.780 12.000 C 2.780 5.977,2.784 5.595,2.854 5.180 C 2.991 4.366,3.243 3.788,3.599 3.473 C 3.821 3.276,4.246 3.070,4.640 2.967 C 4.899 2.900,5.077 2.871,5.780 2.784 C 5.846 2.776,6.647 2.773,7.560 2.776 C 9.086 2.782,9.238 2.789,9.440 2.860 M11.740 10.835 C 11.357 11.011,11.320 11.141,11.320 12.296 L 11.320 13.234 10.310 13.247 C 9.211 13.261,9.179 13.267,8.953 13.506 C 8.691 13.783,8.691 14.217,8.953 14.494 C 9.179 14.733,9.211 14.739,10.310 14.753 L 11.320 14.766 11.321 15.713 C 11.322 16.546,11.331 16.679,11.395 16.820 C 11.483 17.010,11.572 17.096,11.770 17.178 C 11.958 17.257,12.162 17.257,12.350 17.178 C 12.548 17.096,12.637 17.010,12.725 16.820 C 12.789 16.679,12.798 16.546,12.799 15.713 L 12.800 14.766 13.750 14.753 C 14.783 14.739,14.823 14.731,15.047 14.494 C 15.181 14.353,15.240 14.201,15.240 14.000 C 15.240 13.799,15.181 13.647,15.047 13.506 C 14.823 13.269,14.783 13.261,13.750 13.247 L 12.800 13.234 12.799 12.287 C 12.798 11.454,12.789 11.321,12.725 11.180 C 12.637 10.990,12.548 10.904,12.350 10.822 C 12.155 10.740,11.936 10.745,11.740 10.835 " stroke="none" fill-rule="evenodd" fill="black"></path></svg>