<svg width="24" height="24" viewBox="0 0 24 24" fill="none" xmlns="http://www.w3.org/2000/svg"><path d="M4.593 1.837 C 4.185 1.925,3.716 2.120,3.380 2.340 C 3.072 2.541,2.541 3.072,2.340 3.380 C 1.531 4.617,1.584 6.322,2.469 7.486 L 2.671 7.752 2.476 8.238 C 1.972 9.495,1.780 10.532,1.780 12.000 C 1.780 13.468,1.972 14.505,2.476 15.762 L 2.671 16.248 2.476 16.506 C 1.584 17.684,1.528 19.379,2.340 20.620 C 2.541 20.928,3.072 21.459,3.380 21.660 C 4.398 22.326,5.773 22.421,6.870 21.901 C 7.177 21.756,7.475 21.568,7.640 21.416 L 7.740 21.324 8.232 21.521 C 9.367 21.977,10.394 22.187,11.680 22.227 C 13.206 22.275,14.570 22.028,15.932 21.457 L 16.244 21.326 16.503 21.523 C 17.684 22.416,19.378 22.473,20.620 21.660 C 20.928 21.459,21.459 20.928,21.660 20.620 C 22.338 19.584,22.423 18.217,21.879 17.094 C 21.791 16.912,21.631 16.646,21.523 16.503 L 21.326 16.244 21.457 15.932 C 22.505 13.434,22.505 10.566,21.457 8.068 L 21.326 7.756 21.523 7.497 C 22.416 6.316,22.473 4.622,21.660 3.380 C 21.459 3.072,20.928 2.541,20.620 2.340 C 19.584 1.662,18.217 1.577,17.094 2.121 C 16.912 2.209,16.646 2.369,16.503 2.477 L 16.244 2.674 15.932 2.543 C 14.570 1.972,13.206 1.725,11.680 1.773 C 10.397 1.813,9.367 2.023,8.238 2.476 L 7.752 2.671 7.486 2.469 C 7.164 2.224,6.672 1.987,6.251 1.874 C 5.803 1.753,5.054 1.736,4.593 1.837 M6.049 3.375 C 6.508 3.547,6.799 3.772,7.056 4.153 C 7.500 4.811,7.557 5.608,7.211 6.320 C 7.072 6.607,6.607 7.072,6.320 7.211 C 5.565 7.577,4.743 7.496,4.050 6.988 C 3.287 6.427,3.032 5.298,3.467 4.401 C 3.609 4.108,4.109 3.608,4.402 3.466 C 4.908 3.221,5.547 3.185,6.049 3.375 M13.275 3.339 C 13.777 3.412,14.350 3.554,14.826 3.722 C 15.021 3.791,15.212 3.857,15.250 3.869 C 15.337 3.895,15.337 3.897,15.239 4.184 C 15.132 4.494,15.040 5.028,15.040 5.340 C 15.040 5.673,15.138 6.219,15.261 6.572 C 15.604 7.553,16.447 8.396,17.428 8.739 C 18.218 9.015,19.033 9.022,19.822 8.759 C 19.967 8.711,20.091 8.678,20.097 8.686 C 20.165 8.764,20.476 9.766,20.573 10.220 C 20.800 11.274,20.800 12.680,20.575 13.760 C 20.478 14.225,20.168 15.232,20.097 15.314 C 20.091 15.322,19.967 15.289,19.822 15.241 C 18.391 14.765,16.866 15.189,15.891 16.335 C 15.481 16.817,15.217 17.394,15.101 18.063 C 14.997 18.656,15.043 19.227,15.241 19.822 C 15.289 19.967,15.322 20.091,15.314 20.097 C 15.232 20.168,14.225 20.478,13.760 20.575 C 12.680 20.800,11.274 20.800,10.220 20.573 C 9.766 20.476,8.764 20.165,8.686 20.097 C 8.678 20.091,8.711 19.967,8.759 19.822 C 9.235 18.391,8.809 16.862,7.662 15.887 C 6.879 15.222,5.758 14.918,4.750 15.098 C 4.580 15.128,4.323 15.193,4.178 15.241 C 4.033 15.289,3.909 15.322,3.903 15.314 C 3.835 15.236,3.524 14.234,3.427 13.780 C 3.201 12.729,3.201 11.271,3.427 10.220 C 3.524 9.766,3.835 8.764,3.903 8.686 C 3.909 8.678,4.033 8.711,4.178 8.759 C 5.609 9.235,7.138 8.809,8.113 7.662 C 8.778 6.879,9.082 5.758,8.902 4.750 C 8.872 4.580,8.807 4.323,8.759 4.178 C 8.711 4.033,8.678 3.909,8.686 3.903 C 8.694 3.896,8.853 3.835,9.040 3.768 C 9.705 3.529,10.271 3.392,10.880 3.323 C 11.089 3.299,11.314 3.272,11.380 3.263 C 11.620 3.229,12.870 3.279,13.275 3.339 M19.087 3.298 C 19.517 3.389,19.785 3.539,20.123 3.877 C 20.465 4.219,20.611 4.482,20.707 4.934 C 21.021 6.412,19.609 7.756,18.138 7.379 C 17.744 7.278,17.481 7.125,17.178 6.822 C 16.218 5.862,16.385 4.372,17.543 3.570 C 17.950 3.287,18.544 3.183,19.087 3.298 M5.862 16.621 C 6.256 16.722,6.519 16.875,6.822 17.178 C 7.234 17.590,7.440 18.073,7.440 18.626 C 7.440 20.200,5.844 21.207,4.414 20.536 C 4.110 20.394,3.614 19.903,3.467 19.599 C 2.877 18.383,3.546 16.953,4.860 16.618 C 5.138 16.547,5.578 16.548,5.862 16.621 M19.080 16.602 C 20.421 16.900,21.122 18.337,20.536 19.586 C 20.388 19.902,19.902 20.388,19.586 20.536 C 18.650 20.976,17.607 20.722,16.985 19.904 C 16.499 19.264,16.426 18.430,16.789 17.680 C 16.928 17.393,17.393 16.928,17.680 16.789 C 18.115 16.578,18.650 16.506,19.080 16.602 " stroke="none" fill-rule="evenodd" fill="black"></path></svg>