<svg width="24" height="24" viewBox="0 0 24 24" fill="none" xmlns="http://www.w3.org/2000/svg"><path d="M4.140 1.282 C 3.728 1.327,3.503 1.387,3.177 1.537 C 2.446 1.875,1.876 2.445,1.539 3.174 C 1.346 3.592,1.273 3.967,1.273 4.540 C 1.274 5.415,1.552 6.095,2.178 6.756 C 2.416 7.007,2.865 7.334,3.114 7.437 L 3.240 7.490 3.240 12.000 L 3.240 16.510 3.114 16.563 C 2.705 16.732,2.108 17.247,1.804 17.693 C 1.615 17.969,1.422 18.412,1.339 18.757 C 1.250 19.129,1.249 19.825,1.337 20.233 C 1.586 21.387,2.612 22.412,3.767 22.664 C 3.945 22.702,4.249 22.727,4.540 22.727 C 5.250 22.726,5.803 22.550,6.380 22.140 C 6.799 21.842,7.276 21.276,7.438 20.884 L 7.490 20.760 12.000 20.760 L 16.510 20.760 16.563 20.886 C 16.792 21.440,17.439 22.096,18.068 22.414 C 18.487 22.626,18.934 22.726,19.460 22.727 C 20.033 22.727,20.408 22.654,20.826 22.461 C 21.750 22.034,22.460 21.174,22.663 20.233 C 22.757 19.801,22.747 19.100,22.642 18.700 C 22.490 18.119,22.253 17.699,21.822 17.244 C 21.584 16.993,21.135 16.666,20.886 16.563 L 20.760 16.510 20.760 12.000 L 20.760 7.490 20.886 7.437 C 21.135 7.334,21.584 7.007,21.822 6.756 C 22.253 6.301,22.490 5.881,22.642 5.300 C 22.747 4.900,22.757 4.199,22.663 3.767 C 22.460 2.826,21.750 1.966,20.826 1.539 C 20.408 1.346,20.033 1.273,19.460 1.273 C 18.585 1.274,17.905 1.552,17.244 2.178 C 16.993 2.416,16.666 2.865,16.563 3.114 L 16.510 3.240 12.000 3.240 L 7.490 3.240 7.437 3.114 C 7.270 2.710,6.752 2.106,6.320 1.813 C 5.701 1.392,4.902 1.198,4.140 1.282 M5.247 2.930 C 5.618 3.113,5.915 3.415,6.091 3.790 C 6.209 4.041,6.218 4.090,6.217 4.480 C 6.216 4.821,6.199 4.943,6.125 5.130 C 5.952 5.567,5.566 5.953,5.126 6.127 C 4.944 6.199,4.818 6.217,4.478 6.218 C 4.070 6.220,4.046 6.215,3.755 6.071 C 3.382 5.887,3.086 5.586,2.908 5.210 C 2.788 4.957,2.780 4.912,2.780 4.500 C 2.780 4.088,2.788 4.043,2.907 3.791 C 3.123 3.335,3.494 3.003,3.979 2.830 C 4.132 2.775,4.272 2.761,4.564 2.770 C 4.914 2.781,4.976 2.796,5.247 2.930 M20.247 2.930 C 20.618 3.113,20.915 3.415,21.092 3.790 C 21.212 4.043,21.220 4.088,21.220 4.500 C 21.220 4.912,21.212 4.957,21.092 5.210 C 20.914 5.586,20.618 5.887,20.245 6.071 C 19.954 6.215,19.930 6.220,19.522 6.218 C 19.182 6.217,19.056 6.199,18.874 6.127 C 18.434 5.953,18.048 5.567,17.875 5.130 C 17.801 4.943,17.784 4.821,17.783 4.480 C 17.782 4.090,17.791 4.041,17.908 3.791 C 18.123 3.336,18.493 3.003,18.979 2.830 C 19.132 2.775,19.272 2.761,19.564 2.770 C 19.914 2.781,19.976 2.796,20.247 2.930 M16.256 4.850 C 16.265 4.899,16.294 5.048,16.319 5.180 C 16.552 6.385,17.615 7.448,18.820 7.681 C 18.952 7.706,19.101 7.735,19.150 7.744 L 19.240 7.762 19.240 12.000 L 19.240 16.238 19.150 16.256 C 19.101 16.265,18.952 16.294,18.820 16.319 C 17.625 16.550,16.529 17.641,16.320 18.808 C 16.295 18.947,16.266 19.101,16.257 19.150 L 16.238 19.240 12.000 19.240 L 7.762 19.240 7.744 19.150 C 7.735 19.101,7.706 18.952,7.681 18.820 C 7.448 17.615,6.385 16.552,5.180 16.319 C 5.048 16.294,4.899 16.265,4.850 16.256 L 4.760 16.238 4.760 12.000 L 4.760 7.762 4.850 7.744 C 4.899 7.735,5.048 7.706,5.180 7.681 C 6.385 7.448,7.448 6.385,7.681 5.180 C 7.706 5.048,7.735 4.899,7.744 4.850 L 7.762 4.760 12.000 4.760 L 16.238 4.760 16.256 4.850 M5.130 17.879 C 5.561 18.042,5.952 18.432,6.127 18.874 C 6.199 19.056,6.216 19.181,6.217 19.520 C 6.218 19.910,6.209 19.959,6.091 20.210 C 5.914 20.586,5.619 20.887,5.245 21.071 C 4.952 21.216,4.932 21.220,4.500 21.220 C 4.068 21.220,4.048 21.216,3.755 21.071 C 3.382 20.887,3.086 20.586,2.908 20.210 C 2.788 19.957,2.780 19.912,2.780 19.500 C 2.780 19.088,2.788 19.043,2.908 18.790 C 3.135 18.310,3.627 17.898,4.089 17.800 C 4.362 17.742,4.871 17.781,5.130 17.879 M20.261 17.937 C 20.617 18.112,20.917 18.421,21.092 18.790 C 21.212 19.043,21.220 19.088,21.220 19.500 C 21.220 19.912,21.212 19.957,21.092 20.210 C 20.914 20.586,20.618 20.887,20.245 21.071 C 19.952 21.216,19.932 21.220,19.500 21.220 C 19.068 21.220,19.048 21.216,18.755 21.071 C 18.181 20.788,17.821 20.269,17.774 19.656 C 17.732 19.101,17.891 18.662,18.277 18.277 C 18.664 17.889,19.042 17.749,19.618 17.778 C 19.927 17.793,20.016 17.815,20.261 17.937 " stroke="none" fill-rule="evenodd" fill="black"></path></svg>