<svg width="24" height="24" viewBox="0 0 24 24" fill="none" xmlns="http://www.w3.org/2000/svg"><path d="M11.819 1.276 C 11.551 1.343,11.361 1.538,11.283 1.829 C 11.203 2.126,11.276 2.288,11.767 2.907 L 12.206 3.460 11.633 3.486 C 10.956 3.518,10.545 3.570,9.920 3.704 C 8.538 4.001,7.064 4.711,5.939 5.621 C 5.516 5.963,4.815 6.663,4.497 7.060 C 3.675 8.088,3.004 9.415,2.687 10.640 C 1.984 13.359,2.456 16.174,4.002 18.481 C 4.375 19.038,4.702 19.430,5.237 19.960 C 6.548 21.260,8.163 22.136,9.980 22.534 C 11.184 22.798,12.816 22.798,14.020 22.534 C 15.850 22.133,17.464 21.254,18.781 19.940 C 20.303 18.423,21.226 16.587,21.547 14.440 C 21.631 13.875,21.640 12.608,21.564 12.000 C 21.383 10.553,20.821 9.036,20.021 7.840 C 19.563 7.154,19.463 7.070,19.101 7.067 C 18.667 7.063,18.360 7.372,18.360 7.810 C 18.360 8.024,18.375 8.056,18.702 8.547 C 19.115 9.168,19.547 10.028,19.738 10.610 C 20.123 11.782,20.237 13.233,20.038 14.427 C 19.449 17.955,16.632 20.692,13.089 21.178 C 12.509 21.258,11.491 21.258,10.911 21.178 C 9.386 20.969,7.950 20.334,6.780 19.352 C 3.799 16.850,2.997 12.642,4.849 9.228 C 5.650 7.750,6.919 6.532,8.420 5.801 C 10.087 4.989,12.101 4.751,13.729 5.176 C 13.950 5.233,14.183 5.216,14.340 5.130 C 14.462 5.064,14.630 4.873,14.677 4.747 C 14.742 4.576,14.729 4.274,14.650 4.136 C 14.612 4.069,14.110 3.429,13.535 2.714 C 12.792 1.790,12.451 1.395,12.355 1.350 C 12.179 1.267,11.970 1.238,11.819 1.276 M9.300 10.126 C 9.234 10.151,9.141 10.200,9.093 10.236 C 8.949 10.341,7.442 12.040,7.373 12.174 C 7.291 12.332,7.290 12.667,7.371 12.821 C 7.508 13.085,7.756 13.240,8.040 13.240 C 8.266 13.240,8.397 13.178,8.610 12.969 L 8.800 12.783 8.800 14.559 C 8.800 16.263,8.803 16.342,8.881 16.503 C 8.928 16.599,9.034 16.720,9.128 16.786 C 9.266 16.881,9.334 16.900,9.540 16.900 C 9.746 16.900,9.814 16.881,9.952 16.786 C 10.046 16.720,10.152 16.599,10.199 16.503 C 10.278 16.339,10.280 16.269,10.280 13.500 C 10.280 10.731,10.278 10.661,10.199 10.497 C 10.047 10.183,9.620 10.007,9.300 10.126 M12.650 10.125 C 12.579 10.145,12.459 10.223,12.385 10.298 C 12.265 10.418,12.197 10.590,11.820 11.721 C 11.334 13.178,11.320 13.269,11.549 13.552 C 11.800 13.862,11.774 13.858,13.323 13.880 C 14.704 13.900,14.706 13.900,14.847 13.996 C 15.269 14.286,15.321 14.885,14.953 15.228 C 14.737 15.430,14.655 15.440,13.280 15.440 C 12.216 15.440,11.972 15.450,11.850 15.502 C 11.652 15.584,11.563 15.670,11.475 15.860 C 11.284 16.276,11.491 16.757,11.915 16.883 C 12.011 16.911,12.548 16.921,13.500 16.912 C 14.926 16.898,14.943 16.897,15.201 16.797 C 15.881 16.535,16.385 16.005,16.604 15.320 C 16.720 14.957,16.721 14.324,16.604 13.957 C 16.395 13.295,15.787 12.687,15.123 12.475 C 14.903 12.405,14.723 12.388,14.030 12.370 C 13.573 12.359,13.200 12.338,13.200 12.325 C 13.200 12.311,13.255 12.134,13.323 11.930 L 13.447 11.560 14.810 11.560 L 16.173 11.560 16.337 11.464 C 16.747 11.224,16.818 10.614,16.473 10.292 C 16.251 10.084,16.207 10.080,14.431 10.084 C 13.523 10.086,12.722 10.104,12.650 10.125 " stroke="none" fill-rule="evenodd" fill="black"></path></svg>