<svg width="24" height="24" viewBox="0 0 24 24" fill="none" xmlns="http://www.w3.org/2000/svg"><path d="M11.819 1.276 C 11.551 1.343,11.361 1.538,11.283 1.829 C 11.203 2.126,11.276 2.288,11.767 2.907 L 12.206 3.460 11.633 3.486 C 10.956 3.518,10.545 3.570,9.920 3.704 C 8.538 4.001,7.064 4.711,5.939 5.621 C 5.516 5.963,4.815 6.663,4.497 7.060 C 3.675 8.088,3.004 9.415,2.687 10.640 C 1.984 13.359,2.456 16.174,4.002 18.481 C 4.375 19.038,4.702 19.430,5.237 19.960 C 6.548 21.260,8.163 22.136,9.980 22.534 C 11.184 22.798,12.816 22.798,14.020 22.534 C 15.850 22.133,17.464 21.254,18.781 19.940 C 20.303 18.423,21.226 16.587,21.547 14.440 C 21.631 13.875,21.640 12.608,21.564 12.000 C 21.383 10.553,20.821 9.036,20.021 7.840 C 19.563 7.154,19.463 7.070,19.101 7.067 C 18.667 7.063,18.360 7.372,18.360 7.810 C 18.360 8.024,18.375 8.056,18.702 8.547 C 19.115 9.168,19.547 10.028,19.738 10.610 C 20.123 11.782,20.237 13.233,20.038 14.427 C 19.449 17.955,16.632 20.692,13.089 21.178 C 12.509 21.258,11.491 21.258,10.911 21.178 C 9.386 20.969,7.950 20.334,6.780 19.352 C 3.799 16.850,2.997 12.642,4.849 9.228 C 5.650 7.750,6.919 6.532,8.420 5.801 C 10.087 4.989,12.101 4.751,13.729 5.176 C 13.950 5.233,14.183 5.216,14.340 5.130 C 14.462 5.064,14.630 4.873,14.677 4.747 C 14.742 4.576,14.729 4.274,14.650 4.136 C 14.612 4.069,14.110 3.429,13.535 2.714 C 12.792 1.790,12.451 1.395,12.355 1.350 C 12.179 1.267,11.970 1.238,11.819 1.276 M9.220 9.915 C 9.105 9.968,8.840 10.235,8.280 10.858 C 7.376 11.866,7.302 11.973,7.306 12.259 C 7.310 12.581,7.468 12.812,7.769 12.938 C 8.066 13.062,8.346 12.988,8.630 12.710 L 8.800 12.543 8.800 14.309 C 8.800 15.459,8.815 16.114,8.843 16.187 C 8.945 16.460,9.233 16.651,9.540 16.651 C 9.847 16.651,10.135 16.460,10.237 16.187 C 10.266 16.112,10.280 15.150,10.279 13.247 C 10.278 10.590,10.274 10.410,10.205 10.260 C 10.117 10.070,10.028 9.984,9.830 9.902 C 9.635 9.820,9.416 9.825,9.220 9.915 M13.387 9.902 C 12.589 10.081,11.899 10.633,11.540 11.380 C 11.282 11.915,11.260 12.063,11.261 13.280 C 11.261 14.160,11.273 14.384,11.331 14.600 C 11.604 15.617,12.439 16.413,13.448 16.618 C 14.882 16.908,16.286 16.028,16.669 14.600 C 16.727 14.384,16.739 14.160,16.739 13.280 C 16.740 12.057,16.718 11.911,16.455 11.374 C 16.133 10.715,15.539 10.192,14.869 9.977 C 14.450 9.843,13.800 9.810,13.387 9.902 M14.546 11.462 C 14.797 11.584,15.016 11.818,15.147 12.104 C 15.244 12.316,15.245 12.330,15.233 13.309 C 15.218 14.428,15.208 14.472,14.874 14.806 C 14.275 15.405,13.282 15.240,12.872 14.472 C 12.783 14.305,12.780 14.267,12.780 13.260 C 12.780 12.248,12.783 12.215,12.873 12.040 C 13.201 11.409,13.926 11.159,14.546 11.462 " stroke="none" fill-rule="evenodd" fill="black"></path></svg>