<svg width="24" height="24" viewBox="0 0 24 24" fill="none" xmlns="http://www.w3.org/2000/svg"><path d="M11.819 1.276 C 11.551 1.343,11.361 1.538,11.283 1.829 C 11.203 2.126,11.276 2.288,11.767 2.907 L 12.206 3.460 11.633 3.486 C 10.956 3.518,10.545 3.570,9.920 3.704 C 8.538 4.001,7.064 4.711,5.939 5.621 C 5.516 5.963,4.815 6.663,4.497 7.060 C 3.675 8.088,3.004 9.415,2.687 10.640 C 1.984 13.359,2.456 16.174,4.002 18.481 C 4.375 19.038,4.702 19.430,5.237 19.960 C 6.548 21.260,8.163 22.136,9.980 22.534 C 11.184 22.798,12.816 22.798,14.020 22.534 C 15.850 22.133,17.464 21.254,18.781 19.940 C 20.303 18.423,21.226 16.587,21.547 14.440 C 21.631 13.875,21.640 12.608,21.564 12.000 C 21.383 10.553,20.821 9.036,20.021 7.840 C 19.563 7.154,19.463 7.070,19.101 7.067 C 18.667 7.063,18.360 7.372,18.360 7.810 C 18.360 8.024,18.375 8.056,18.702 8.547 C 19.115 9.168,19.547 10.028,19.738 10.610 C 20.123 11.782,20.237 13.233,20.038 14.427 C 19.449 17.955,16.632 20.692,13.089 21.178 C 12.509 21.258,11.491 21.258,10.911 21.178 C 9.386 20.969,7.950 20.334,6.780 19.352 C 3.799 16.850,2.997 12.642,4.849 9.228 C 5.650 7.750,6.919 6.532,8.420 5.801 C 10.087 4.989,12.101 4.751,13.729 5.176 C 13.950 5.233,14.183 5.216,14.340 5.130 C 14.462 5.064,14.630 4.873,14.677 4.747 C 14.742 4.576,14.729 4.274,14.650 4.136 C 14.612 4.069,14.110 3.429,13.535 2.714 C 12.792 1.790,12.451 1.395,12.355 1.350 C 12.179 1.267,11.970 1.238,11.819 1.276 M10.608 10.125 C 10.536 10.146,10.410 10.231,10.328 10.313 C 10.193 10.449,10.143 10.575,9.770 11.702 C 9.475 12.595,9.360 12.996,9.360 13.137 C 9.360 13.400,9.507 13.650,9.732 13.770 C 9.894 13.857,9.945 13.861,11.280 13.880 C 12.255 13.894,12.685 13.914,12.745 13.948 C 12.881 14.027,13.068 14.262,13.120 14.421 C 13.227 14.746,13.077 15.136,12.773 15.325 C 12.621 15.419,12.608 15.420,11.214 15.440 L 9.807 15.460 9.654 15.583 C 9.453 15.743,9.360 15.932,9.360 16.180 C 9.360 16.428,9.453 16.617,9.654 16.777 L 9.807 16.900 11.221 16.911 C 12.754 16.924,12.942 16.906,13.372 16.702 C 13.859 16.472,14.367 15.904,14.537 15.400 C 14.631 15.122,14.665 14.455,14.601 14.146 C 14.443 13.385,13.763 12.674,12.980 12.451 C 12.852 12.414,12.484 12.386,11.955 12.372 L 11.129 12.350 11.258 11.965 L 11.387 11.580 12.784 11.560 C 13.739 11.546,14.205 11.525,14.260 11.493 C 14.385 11.421,14.551 11.231,14.597 11.107 C 14.698 10.842,14.611 10.451,14.413 10.272 C 14.208 10.086,14.139 10.080,12.391 10.084 C 11.482 10.086,10.681 10.104,10.608 10.125 " stroke="none" fill-rule="evenodd" fill="black"></path></svg>