<svg width="24" height="24" viewBox="0 0 24 24" fill="none" xmlns="http://www.w3.org/2000/svg"><path d="M3.541 5.685 C 3.038 5.758,2.456 6.040,2.099 6.384 C 1.724 6.744,1.447 7.223,1.334 7.706 C 1.265 8.000,1.260 8.275,1.260 12.000 C 1.260 15.725,1.265 16.000,1.334 16.294 C 1.599 17.425,2.609 18.267,3.794 18.344 C 4.246 18.373,4.682 18.287,5.100 18.086 C 5.355 17.964,8.113 16.390,10.600 14.949 L 10.980 14.728 11.007 15.394 C 11.048 16.388,11.195 16.845,11.648 17.386 C 12.425 18.313,13.755 18.612,14.831 18.101 C 14.992 18.025,15.506 17.743,15.972 17.475 C 19.508 15.445,21.373 14.364,21.568 14.233 C 22.570 13.559,22.986 12.307,22.598 11.134 C 22.443 10.668,22.079 10.160,21.696 9.877 C 21.489 9.724,20.386 9.081,16.520 6.859 C 15.607 6.334,14.749 5.864,14.614 5.814 C 13.570 5.432,12.366 5.757,11.648 6.614 C 11.191 7.160,11.045 7.617,11.011 8.610 C 10.999 8.979,10.982 9.280,10.975 9.280 C 10.967 9.280,10.389 8.950,9.690 8.546 C 6.180 6.519,5.079 5.897,4.857 5.815 C 4.616 5.727,4.094 5.635,3.887 5.645 C 3.828 5.648,3.673 5.665,3.541 5.685 M4.160 7.164 C 4.300 7.194,4.775 7.443,5.691 7.968 C 8.131 9.366,10.698 10.847,10.851 10.945 L 11.001 11.042 10.991 12.023 L 10.980 13.005 9.660 13.767 C 5.726 16.039,4.479 16.745,4.280 16.813 C 3.984 16.914,3.715 16.885,3.398 16.716 C 3.264 16.644,3.093 16.515,3.019 16.428 C 2.747 16.111,2.760 16.325,2.760 11.983 L 2.761 8.060 2.856 7.856 C 3.017 7.511,3.336 7.251,3.709 7.164 C 3.918 7.114,3.930 7.114,4.160 7.164 M14.180 7.257 C 14.290 7.308,15.316 7.888,16.460 8.547 C 17.604 9.206,19.023 10.023,19.614 10.362 C 20.205 10.702,20.770 11.051,20.870 11.138 C 21.133 11.368,21.239 11.621,21.240 12.022 C 21.240 12.290,21.222 12.380,21.136 12.553 C 21.078 12.668,20.966 12.817,20.886 12.884 C 20.626 13.101,14.334 16.712,14.040 16.813 C 13.744 16.914,13.475 16.885,13.158 16.716 C 13.024 16.644,12.853 16.515,12.779 16.428 C 12.507 16.111,12.520 16.325,12.520 11.983 L 12.521 8.060 12.616 7.856 C 12.903 7.240,13.578 6.982,14.180 7.257 " stroke="none" fill-rule="evenodd" fill="black"></path></svg>