<svg width="24" height="24" viewBox="0 0 24 24" fill="none" xmlns="http://www.w3.org/2000/svg"><path d="M14.369 1.282 C 12.561 1.413,11.413 2.122,10.876 3.443 C 10.655 3.986,10.542 4.566,10.496 5.384 L 10.469 5.868 9.904 5.892 C 7.303 6.002,6.002 7.305,5.892 9.910 L 5.868 10.480 5.664 10.480 C 4.973 10.480,3.972 10.658,3.447 10.873 C 2.585 11.227,1.961 11.855,1.638 12.692 C 1.293 13.585,1.221 14.421,1.251 17.136 C 1.277 19.483,1.338 19.919,1.759 20.780 C 2.103 21.485,2.515 21.897,3.220 22.241 C 4.081 22.662,4.517 22.723,6.864 22.749 C 9.582 22.780,10.414 22.707,11.312 22.361 C 12.141 22.041,12.775 21.410,13.127 20.553 C 13.342 20.028,13.520 19.027,13.520 18.336 L 13.520 18.132 14.056 18.107 C 16.695 17.980,17.980 16.695,18.107 14.056 L 18.132 13.520 18.336 13.520 C 19.027 13.520,20.028 13.342,20.553 13.127 C 21.410 12.775,22.041 12.141,22.361 11.312 C 22.707 10.414,22.780 9.582,22.749 6.864 C 22.723 4.517,22.662 4.081,22.241 3.220 C 21.897 2.515,21.485 2.103,20.780 1.759 C 20.335 1.541,19.975 1.433,19.380 1.336 C 19.056 1.283,18.588 1.269,16.920 1.259 C 15.787 1.252,14.639 1.263,14.369 1.282 M19.100 2.802 C 20.459 2.996,21.004 3.541,21.198 4.900 C 21.221 5.059,21.239 6.138,21.239 7.400 C 21.240 9.159,21.228 9.695,21.181 9.980 C 20.999 11.102,20.541 11.638,19.556 11.883 C 19.212 11.969,18.204 12.061,18.156 12.011 C 18.140 11.994,18.119 11.395,18.109 10.680 C 18.087 8.999,18.006 8.554,17.571 7.702 C 17.421 7.409,17.316 7.271,17.023 6.980 C 16.155 6.118,15.119 5.841,12.750 5.840 C 12.316 5.840,11.960 5.827,11.960 5.810 C 11.960 5.794,11.978 5.544,12.000 5.256 C 12.119 3.693,12.649 3.046,13.993 2.820 C 14.376 2.755,18.669 2.740,19.100 2.802 M14.150 7.400 C 15.030 7.468,15.659 7.695,16.002 8.067 C 16.228 8.312,16.426 8.749,16.524 9.222 C 16.601 9.587,16.609 9.796,16.628 11.710 C 16.650 13.920,16.625 14.467,16.477 15.000 C 16.192 16.031,15.592 16.464,14.262 16.601 C 13.938 16.635,13.179 16.643,11.710 16.628 C 9.362 16.605,9.116 16.580,8.535 16.304 C 7.815 15.962,7.492 15.347,7.400 14.144 C 7.347 13.452,7.348 10.033,7.401 9.599 C 7.574 8.185,8.163 7.581,9.540 7.406 C 9.922 7.357,13.542 7.353,14.150 7.400 M5.841 12.750 C 5.842 14.261,5.947 15.130,6.216 15.846 C 6.408 16.356,6.577 16.617,6.984 17.026 C 7.311 17.356,7.394 17.415,7.804 17.614 C 8.636 18.018,9.003 18.082,10.660 18.107 C 11.386 18.118,11.994 18.140,12.011 18.156 C 12.061 18.204,11.969 19.212,11.883 19.556 C 11.638 20.541,11.102 20.999,9.980 21.181 C 9.695 21.228,9.159 21.240,7.400 21.239 C 6.138 21.239,5.059 21.221,4.900 21.198 C 3.573 21.009,3.041 20.504,2.821 19.225 C 2.734 18.716,2.732 14.556,2.819 14.020 C 3.001 12.899,3.458 12.364,4.446 12.114 C 4.714 12.046,5.214 11.987,5.710 11.966 L 5.840 11.960 5.841 12.750 " stroke="none" fill-rule="evenodd" fill="black"></path></svg>