<svg width="24" height="24" viewBox="0 0 24 24" fill="none" xmlns="http://www.w3.org/2000/svg"><path d="M6.600 1.285 C 5.669 1.391,4.618 1.909,3.924 2.604 C 3.190 3.338,2.703 4.361,2.599 5.390 C 2.569 5.689,2.560 8.070,2.569 13.180 C 2.582 20.155,2.587 20.555,2.656 20.820 C 2.924 21.847,3.567 22.511,4.480 22.704 C 4.862 22.785,5.306 22.756,5.777 22.620 C 6.220 22.491,6.118 22.544,8.919 20.989 C 10.227 20.262,11.395 19.623,11.513 19.569 C 11.702 19.482,11.769 19.473,12.074 19.488 L 12.420 19.505 15.084 20.986 C 18.186 22.709,18.235 22.731,19.020 22.737 C 19.599 22.741,19.928 22.654,20.316 22.393 C 20.788 22.076,21.107 21.622,21.308 20.980 L 21.420 20.620 21.420 12.940 C 21.420 5.600,21.417 5.246,21.346 4.940 C 21.135 4.032,20.738 3.287,20.134 2.667 C 19.385 1.898,18.377 1.398,17.347 1.283 C 16.881 1.231,7.055 1.233,6.600 1.285 M17.700 2.875 C 18.609 3.181,19.274 3.771,19.659 4.613 C 19.937 5.219,19.920 4.672,19.920 12.908 C 19.919 20.963,19.929 20.581,19.705 20.919 C 19.467 21.279,18.952 21.339,18.392 21.072 C 18.232 20.995,17.020 20.333,15.700 19.600 C 14.380 18.867,13.209 18.225,13.098 18.174 C 12.770 18.024,12.314 17.947,11.881 17.970 C 11.177 18.007,11.174 18.008,8.507 19.491 C 7.161 20.239,5.894 20.932,5.690 21.031 C 4.833 21.448,4.277 21.231,4.122 20.419 C 4.088 20.244,4.079 18.196,4.088 12.720 L 4.100 5.260 4.195 4.980 C 4.584 3.827,5.518 2.991,6.631 2.801 C 6.735 2.783,9.205 2.771,12.120 2.774 L 17.420 2.780 17.700 2.875 M8.940 8.377 C 8.791 8.443,8.619 8.624,8.563 8.773 C 8.495 8.950,8.512 9.228,8.601 9.402 C 8.709 9.613,8.900 9.729,9.380 9.875 C 10.321 10.160,10.989 10.258,12.000 10.258 C 12.790 10.258,13.197 10.218,13.860 10.074 C 14.400 9.957,15.001 9.766,15.169 9.657 C 15.545 9.413,15.589 8.825,15.255 8.513 C 15.011 8.284,14.755 8.266,14.209 8.439 C 13.678 8.606,13.139 8.710,12.530 8.761 C 11.659 8.834,10.681 8.719,9.791 8.439 C 9.389 8.312,9.128 8.293,8.940 8.377 " stroke="none" fill-rule="evenodd" fill="black"></path></svg>