<svg width="24" height="24" viewBox="0 0 24 24" fill="none" xmlns="http://www.w3.org/2000/svg"><path d="M15.500 4.282 C 14.439 4.370,13.688 4.819,13.320 5.583 C 13.162 5.910,13.084 6.221,13.040 6.700 C 13.019 6.923,13.002 9.569,13.001 12.670 L 13.000 18.240 12.260 18.240 L 11.520 18.240 11.519 15.170 C 11.517 12.101,11.498 11.511,11.381 11.060 C 11.161 10.212,10.594 9.646,9.719 9.402 C 9.045 9.214,7.225 9.190,6.466 9.359 C 5.487 9.578,4.872 10.162,4.614 11.121 C 4.550 11.356,4.543 11.698,4.530 14.808 L 4.517 18.235 3.146 18.248 L 1.774 18.260 1.612 18.367 C 1.372 18.526,1.267 18.721,1.267 19.007 C 1.267 19.203,1.286 19.270,1.383 19.408 C 1.447 19.499,1.572 19.610,1.660 19.656 L 1.820 19.740 11.880 19.751 C 19.099 19.758,22.000 19.749,22.154 19.717 C 22.722 19.600,22.933 18.893,22.522 18.482 C 22.303 18.263,22.157 18.240,21.003 18.240 L 20.002 18.240 19.990 12.310 C 19.977 5.670,20.001 6.208,19.687 5.561 C 19.412 4.995,18.839 4.557,18.140 4.380 C 17.639 4.253,16.397 4.206,15.500 4.282 M17.891 5.841 C 18.136 5.928,18.349 6.138,18.429 6.372 C 18.495 6.567,18.501 6.953,18.511 12.410 L 18.522 18.240 16.521 18.240 L 14.520 18.240 14.520 12.447 C 14.520 7.236,14.526 6.633,14.584 6.437 C 14.698 6.056,14.844 5.921,15.260 5.815 C 15.540 5.743,17.675 5.764,17.891 5.841 M9.208 10.805 C 9.648 10.898,9.820 11.047,9.936 11.437 C 9.993 11.629,10.000 12.035,10.000 14.947 L 10.000 18.240 7.999 18.240 L 5.997 18.240 6.009 14.910 C 6.022 11.217,6.014 11.335,6.285 11.055 C 6.404 10.932,6.634 10.829,6.880 10.788 C 7.114 10.748,9.008 10.763,9.208 10.805 " stroke="none" fill-rule="evenodd" fill="black"></path></svg>