<svg width="24" height="24" viewBox="0 0 24 24" fill="none" xmlns="http://www.w3.org/2000/svg"><path d="M11.320 1.281 C 7.041 1.525,3.252 4.409,1.843 8.497 C 1.180 10.418,1.082 12.560,1.564 14.550 C 2.505 18.428,5.572 21.495,9.450 22.436 C 11.106 22.837,12.894 22.837,14.550 22.436 C 18.428 21.495,21.495 18.428,22.436 14.550 C 22.837 12.894,22.837 11.106,22.436 9.450 C 21.425 5.282,17.985 2.095,13.742 1.398 C 13.334 1.331,12.074 1.229,11.880 1.247 C 11.847 1.250,11.595 1.265,11.320 1.281 M13.146 2.822 C 14.201 2.960,15.125 3.237,16.060 3.696 C 18.877 5.079,20.768 7.722,21.178 10.854 C 21.301 11.786,21.244 13.026,21.034 13.998 C 20.745 15.343,20.003 16.855,19.121 17.900 C 18.247 18.935,17.240 19.726,16.060 20.304 C 14.761 20.940,13.462 21.240,12.000 21.240 C 10.538 21.240,9.236 20.940,7.940 20.304 C 5.123 18.921,3.232 16.278,2.822 13.146 C 2.699 12.214,2.756 10.974,2.966 10.002 C 3.177 9.020,3.703 7.775,4.268 6.920 C 5.750 4.677,8.131 3.188,10.820 2.823 C 11.380 2.746,12.569 2.746,13.146 2.822 M11.680 9.064 C 11.475 9.152,7.903 12.727,7.794 12.953 C 7.627 13.298,7.787 13.749,8.137 13.919 C 8.339 14.016,8.597 14.023,8.772 13.936 C 8.842 13.901,9.598 13.177,10.450 12.326 L 12.000 10.780 13.550 12.326 C 14.402 13.177,15.158 13.901,15.228 13.936 C 15.525 14.084,15.943 13.964,16.146 13.672 C 16.241 13.534,16.260 13.466,16.260 13.260 C 16.260 13.057,16.241 12.986,16.151 12.857 C 15.952 12.568,12.470 9.128,12.310 9.062 C 12.125 8.984,11.862 8.985,11.680 9.064 " stroke="none" fill-rule="evenodd" fill="black"></path></svg>