<svg width="24" height="24" viewBox="0 0 24 24" fill="none" xmlns="http://www.w3.org/2000/svg"><path d="M8.700 2.823 C 8.526 2.914,8.397 3.042,8.335 3.189 C 8.289 3.296,8.280 4.582,8.280 11.008 L 8.280 18.698 6.370 16.791 C 5.065 15.488,4.413 14.864,4.311 14.822 C 4.000 14.692,3.595 14.782,3.406 15.021 C 3.203 15.280,3.196 15.660,3.391 15.915 C 3.604 16.194,8.621 21.155,8.733 21.198 C 9.136 21.350,9.606 21.125,9.722 20.725 C 9.750 20.626,9.760 17.852,9.752 11.917 L 9.740 3.253 9.626 3.088 C 9.424 2.797,8.989 2.673,8.700 2.823 M14.660 2.826 C 14.471 2.926,14.367 3.039,14.300 3.216 C 14.245 3.363,14.239 4.303,14.249 12.063 L 14.260 20.747 14.374 20.912 C 14.511 21.109,14.759 21.240,14.994 21.240 C 15.279 21.240,15.582 21.039,15.677 20.787 C 15.707 20.709,15.720 18.336,15.720 12.988 L 15.720 5.302 17.630 7.209 C 18.935 8.512,19.587 9.136,19.689 9.178 C 20.000 9.308,20.405 9.218,20.594 8.979 C 20.797 8.720,20.804 8.340,20.609 8.085 C 20.394 7.805,15.379 2.844,15.267 2.802 C 15.104 2.741,14.799 2.753,14.660 2.826 " stroke="none" fill-rule="evenodd" fill="black"></path></svg>