<svg width="24" height="24" viewBox="0 0 24 24" fill="none" xmlns="http://www.w3.org/2000/svg"><path d="M8.080 1.282 C 4.008 1.495,1.895 3.296,1.383 6.991 C 1.270 7.803,1.242 8.816,1.242 12.000 C 1.242 15.184,1.270 16.197,1.383 17.009 C 1.850 20.381,3.623 22.144,7.027 22.622 C 7.786 22.728,8.902 22.759,12.000 22.759 C 15.098 22.759,16.214 22.728,16.973 22.622 C 19.443 22.275,20.996 21.288,21.897 19.490 C 22.379 18.530,22.638 17.369,22.720 15.807 C 22.775 14.752,22.772 10.101,22.716 9.838 C 22.575 9.182,21.713 9.051,21.353 9.631 C 21.262 9.776,21.260 9.810,21.240 11.012 L 21.220 12.243 20.980 12.038 C 20.324 11.477,19.776 11.267,18.960 11.267 C 18.306 11.267,17.864 11.393,17.340 11.729 C 17.252 11.785,16.192 12.679,14.984 13.715 C 13.776 14.751,12.712 15.636,12.618 15.681 C 12.252 15.858,11.735 15.861,11.351 15.687 C 11.257 15.645,11.063 15.507,10.920 15.381 C 10.229 14.772,9.689 14.555,8.859 14.550 C 8.247 14.547,7.813 14.656,7.340 14.933 C 7.230 14.997,6.246 15.651,5.152 16.385 C 4.059 17.120,3.138 17.731,3.106 17.743 C 3.038 17.769,2.969 17.499,2.852 16.760 C 2.786 16.337,2.780 15.952,2.780 12.000 C 2.780 8.011,2.785 7.665,2.854 7.220 C 3.234 4.761,4.210 3.575,6.288 3.044 C 7.258 2.796,7.402 2.787,10.420 2.762 C 13.021 2.741,13.189 2.736,13.332 2.664 C 13.928 2.368,13.832 1.448,13.189 1.286 C 12.980 1.234,9.072 1.231,8.080 1.282 M17.700 1.316 C 17.529 1.396,15.413 3.496,15.318 3.680 C 15.290 3.735,15.267 3.881,15.267 4.004 C 15.267 4.498,15.683 4.818,16.186 4.711 C 16.351 4.675,16.432 4.615,16.806 4.250 L 17.237 3.830 17.248 6.025 L 17.260 8.220 17.353 8.369 C 17.710 8.943,18.576 8.812,18.716 8.162 C 18.745 8.027,18.760 7.248,18.760 5.892 L 18.760 3.827 19.192 4.249 C 19.567 4.614,19.649 4.675,19.812 4.710 C 20.388 4.833,20.832 4.389,20.711 3.810 C 20.673 3.632,20.604 3.552,19.565 2.505 C 18.845 1.779,18.404 1.365,18.300 1.316 C 18.097 1.222,17.903 1.222,17.700 1.316 M8.660 5.278 C 7.776 5.385,7.027 5.901,6.568 6.720 C 6.168 7.434,6.168 8.566,6.568 9.280 C 7.094 10.219,7.953 10.731,9.000 10.731 C 10.047 10.731,10.906 10.219,11.432 9.280 C 11.832 8.566,11.832 7.434,11.432 6.720 C 10.857 5.694,9.796 5.142,8.660 5.278 M9.454 6.841 C 9.912 7.013,10.240 7.496,10.240 8.000 C 10.240 8.504,9.912 8.987,9.454 9.159 C 8.810 9.400,8.075 9.076,7.837 8.445 C 7.728 8.157,7.743 7.704,7.870 7.458 C 8.019 7.169,8.349 6.886,8.640 6.797 C 8.838 6.737,9.232 6.758,9.454 6.841 M19.553 12.865 C 19.649 12.907,20.068 13.230,20.485 13.581 L 21.243 14.220 21.225 15.300 C 21.205 16.469,21.159 16.888,20.960 17.688 C 20.504 19.519,19.520 20.504,17.688 20.960 C 16.622 21.226,16.745 21.220,12.000 21.220 C 8.064 21.220,7.661 21.214,7.240 21.148 C 5.604 20.893,4.588 20.405,3.895 19.541 C 3.693 19.290,3.650 19.213,3.690 19.175 C 3.813 19.059,8.079 16.219,8.240 16.146 C 8.514 16.023,9.036 16.008,9.320 16.115 C 9.564 16.207,9.664 16.274,10.061 16.609 C 10.574 17.041,11.131 17.265,11.798 17.308 C 12.431 17.349,13.051 17.194,13.543 16.872 C 13.695 16.772,14.729 15.910,15.841 14.955 C 18.334 12.815,18.203 12.921,18.453 12.832 C 18.725 12.735,19.298 12.752,19.553 12.865 " stroke="none" fill-rule="evenodd" fill="black"></path></svg>