<svg width="24" height="24" viewBox="0 0 24 24" fill="none" xmlns="http://www.w3.org/2000/svg"><path d="M8.080 1.282 C 4.008 1.495,1.895 3.296,1.383 6.991 C 1.270 7.803,1.242 8.816,1.242 12.000 C 1.242 15.184,1.270 16.197,1.383 17.009 C 1.850 20.381,3.623 22.144,7.027 22.622 C 7.786 22.728,8.902 22.759,12.000 22.759 C 15.098 22.759,16.214 22.728,16.973 22.622 C 19.443 22.275,20.996 21.288,21.897 19.490 C 22.379 18.530,22.638 17.369,22.720 15.807 C 22.771 14.838,22.771 9.162,22.720 8.193 C 22.657 6.998,22.521 6.191,22.242 5.356 C 21.632 3.531,20.469 2.367,18.650 1.760 C 17.788 1.473,17.023 1.344,15.806 1.280 C 14.952 1.235,8.952 1.237,8.080 1.282 M16.800 2.854 C 19.574 3.314,20.695 4.436,21.145 7.200 C 21.202 7.551,21.216 8.001,21.230 9.938 C 21.246 12.178,21.244 12.253,21.173 12.198 C 21.133 12.166,21.001 12.058,20.880 11.957 C 20.290 11.463,19.744 11.267,18.960 11.267 C 18.306 11.267,17.864 11.393,17.340 11.729 C 17.252 11.785,16.192 12.679,14.984 13.715 C 13.776 14.751,12.712 15.636,12.619 15.681 C 12.252 15.858,11.735 15.861,11.351 15.687 C 11.257 15.645,11.063 15.507,10.920 15.381 C 10.229 14.772,9.689 14.555,8.859 14.550 C 8.247 14.547,7.813 14.656,7.340 14.933 C 7.230 14.997,6.246 15.651,5.152 16.385 C 4.059 17.120,3.138 17.731,3.106 17.743 C 3.038 17.769,2.969 17.499,2.852 16.760 C 2.786 16.337,2.780 15.952,2.780 12.000 C 2.780 7.247,2.776 7.337,3.044 6.288 C 3.557 4.282,4.722 3.274,6.960 2.900 C 7.690 2.777,8.048 2.769,12.200 2.777 C 15.963 2.784,16.422 2.791,16.800 2.854 M8.660 5.278 C 7.776 5.385,7.027 5.901,6.568 6.720 C 6.168 7.434,6.168 8.566,6.568 9.280 C 7.094 10.219,7.953 10.731,9.000 10.731 C 10.047 10.731,10.906 10.219,11.432 9.280 C 11.832 8.566,11.832 7.434,11.432 6.720 C 10.857 5.694,9.796 5.142,8.660 5.278 M9.454 6.841 C 9.912 7.013,10.240 7.496,10.240 8.000 C 10.240 8.504,9.912 8.987,9.454 9.159 C 8.810 9.400,8.075 9.076,7.837 8.445 C 7.728 8.157,7.743 7.704,7.870 7.458 C 8.019 7.169,8.349 6.886,8.640 6.797 C 8.838 6.737,9.232 6.758,9.454 6.841 M19.553 12.865 C 19.649 12.907,20.068 13.230,20.485 13.581 L 21.243 14.220 21.225 15.300 C 21.205 16.469,21.159 16.888,20.960 17.688 C 20.504 19.519,19.520 20.504,17.688 20.960 C 16.622 21.226,16.745 21.220,12.000 21.220 C 8.064 21.220,7.661 21.214,7.240 21.148 C 5.604 20.893,4.588 20.405,3.895 19.541 C 3.693 19.290,3.650 19.213,3.690 19.175 C 3.813 19.059,8.079 16.219,8.240 16.146 C 8.514 16.023,9.036 16.008,9.320 16.115 C 9.564 16.207,9.664 16.274,10.061 16.609 C 10.574 17.041,11.131 17.265,11.798 17.308 C 12.431 17.349,13.051 17.194,13.543 16.872 C 13.695 16.772,14.729 15.910,15.841 14.955 C 18.334 12.815,18.203 12.921,18.453 12.832 C 18.725 12.735,19.298 12.752,19.553 12.865 " stroke="none" fill-rule="evenodd" fill="black"></path></svg>