<svg width="24" height="24" viewBox="0 0 24 24" fill="none" xmlns="http://www.w3.org/2000/svg"><path d="M8.080 1.282 C 4.008 1.495,1.895 3.296,1.383 6.991 C 1.270 7.803,1.242 8.816,1.241 12.000 C 1.241 15.902,1.282 16.701,1.539 17.840 C 1.730 18.684,2.083 19.561,2.444 20.090 L 2.607 20.330 1.989 20.955 C 1.649 21.299,1.347 21.625,1.319 21.680 C 1.290 21.735,1.267 21.881,1.267 22.004 C 1.267 22.498,1.681 22.816,2.189 22.712 C 2.376 22.674,2.592 22.460,12.490 12.566 C 18.342 6.717,22.628 2.403,22.665 2.324 C 22.753 2.138,22.747 1.837,22.651 1.651 C 22.608 1.568,22.499 1.448,22.408 1.383 C 22.271 1.287,22.202 1.267,22.011 1.267 C 21.884 1.267,21.735 1.290,21.680 1.319 C 21.625 1.347,21.298 1.649,20.954 1.989 L 20.328 2.609 20.079 2.440 C 19.750 2.216,19.111 1.914,18.640 1.759 C 17.794 1.481,16.926 1.340,15.708 1.281 C 14.782 1.236,8.951 1.237,8.080 1.282 M16.800 2.854 C 17.340 2.940,17.974 3.098,18.377 3.246 C 18.711 3.369,19.240 3.632,19.240 3.675 C 19.240 3.715,3.685 19.259,3.665 19.238 C 3.655 19.228,3.566 19.058,3.466 18.860 C 3.177 18.285,2.999 17.677,2.853 16.760 C 2.786 16.335,2.780 15.975,2.780 12.000 C 2.780 7.247,2.776 7.337,3.044 6.288 C 3.557 4.282,4.722 3.274,6.960 2.900 C 7.691 2.777,8.050 2.769,12.200 2.778 C 15.889 2.786,16.429 2.795,16.800 2.854 M7.660 5.278 C 6.776 5.385,6.027 5.901,5.568 6.720 C 5.168 7.434,5.168 8.566,5.568 9.280 C 6.094 10.219,6.953 10.731,8.000 10.731 C 9.047 10.731,9.906 10.219,10.432 9.280 C 10.832 8.566,10.832 7.434,10.432 6.720 C 9.857 5.694,8.796 5.142,7.660 5.278 M8.454 6.841 C 8.912 7.013,9.240 7.496,9.240 8.000 C 9.240 8.504,8.912 8.987,8.454 9.159 C 7.810 9.400,7.075 9.076,6.837 8.445 C 6.728 8.157,6.743 7.704,6.870 7.458 C 7.019 7.169,7.349 6.886,7.640 6.797 C 7.838 6.737,8.232 6.758,8.454 6.841 M21.752 7.280 C 21.575 7.333,21.403 7.476,21.319 7.642 C 21.244 7.789,21.240 7.882,21.240 9.504 L 21.240 11.211 20.930 10.914 C 20.557 10.558,20.248 10.364,19.820 10.215 C 19.532 10.115,19.446 10.104,18.960 10.104 C 18.474 10.104,18.388 10.115,18.100 10.215 C 17.483 10.429,17.484 10.428,14.635 13.270 L 11.969 15.929 11.845 15.837 C 11.759 15.774,11.648 15.740,11.487 15.728 C 10.981 15.692,10.622 16.076,10.697 16.574 C 10.733 16.813,10.987 17.100,11.306 17.261 C 11.521 17.370,11.574 17.380,11.960 17.380 C 12.672 17.380,12.427 17.579,15.520 14.500 C 17.005 13.022,18.283 11.775,18.360 11.730 C 18.719 11.520,19.241 11.534,19.600 11.762 C 19.699 11.825,20.110 12.208,20.514 12.613 L 21.249 13.349 21.229 14.865 C 21.208 16.504,21.180 16.805,20.960 17.688 C 20.504 19.519,19.520 20.504,17.688 20.960 C 16.622 21.225,16.741 21.220,12.040 21.220 C 8.645 21.220,7.694 21.209,7.355 21.165 C 6.849 21.099,6.686 21.122,6.497 21.288 C 6.152 21.591,6.123 22.026,6.425 22.360 C 6.502 22.446,6.623 22.534,6.693 22.556 C 6.905 22.623,7.437 22.681,8.208 22.720 C 9.182 22.770,14.862 22.770,15.807 22.720 C 17.002 22.657,17.809 22.521,18.644 22.242 C 20.962 21.467,22.219 19.805,22.621 16.986 C 22.738 16.162,22.768 14.895,22.752 11.369 C 22.738 8.168,22.731 7.888,22.666 7.741 C 22.497 7.355,22.124 7.167,21.752 7.280 " stroke="none" fill-rule="evenodd" fill="black"></path></svg>