<svg width="24" height="24" viewBox="0 0 24 24" fill="none" xmlns="http://www.w3.org/2000/svg"><path d="M8.080 1.282 C 4.008 1.495,1.895 3.296,1.383 6.991 C 1.270 7.803,1.242 8.816,1.242 12.000 C 1.242 15.184,1.270 16.197,1.383 17.009 C 1.850 20.381,3.623 22.144,7.027 22.622 C 7.786 22.728,8.902 22.759,12.000 22.759 C 15.098 22.759,16.214 22.728,16.973 22.622 C 19.443 22.275,20.996 21.288,21.897 19.490 C 22.379 18.530,22.638 17.369,22.720 15.807 C 22.775 14.752,22.772 10.101,22.716 9.838 C 22.575 9.182,21.713 9.051,21.353 9.631 C 21.262 9.776,21.260 9.810,21.240 11.012 L 21.220 12.243 20.980 12.038 C 20.324 11.477,19.776 11.267,18.960 11.267 C 18.306 11.267,17.864 11.393,17.340 11.729 C 17.252 11.785,16.192 12.679,14.984 13.715 C 13.776 14.751,12.712 15.636,12.618 15.681 C 12.252 15.858,11.735 15.861,11.351 15.687 C 11.257 15.645,11.063 15.507,10.920 15.381 C 10.229 14.772,9.689 14.555,8.859 14.550 C 8.247 14.547,7.813 14.656,7.340 14.933 C 7.230 14.997,6.245 15.651,5.151 16.386 C 4.057 17.120,3.137 17.731,3.105 17.744 C 3.038 17.769,2.968 17.495,2.852 16.760 C 2.786 16.337,2.780 15.952,2.780 12.000 C 2.780 8.011,2.785 7.665,2.854 7.220 C 3.234 4.761,4.210 3.575,6.288 3.044 C 7.258 2.796,7.402 2.787,10.420 2.762 C 13.021 2.741,13.189 2.736,13.332 2.664 C 13.928 2.368,13.832 1.448,13.189 1.286 C 12.980 1.234,9.072 1.231,8.080 1.282 M19.960 1.284 C 19.639 1.336,19.143 1.597,18.799 1.893 C 18.635 2.035,17.671 2.985,16.658 4.005 C 14.729 5.947,14.646 6.044,14.522 6.509 C 14.498 6.602,14.424 7.058,14.358 7.523 C 14.227 8.446,14.234 8.675,14.406 9.012 C 14.520 9.235,14.810 9.510,15.048 9.620 C 15.382 9.775,15.640 9.779,16.564 9.644 C 17.470 9.511,17.673 9.457,18.000 9.258 C 18.258 9.101,22.153 5.213,22.357 4.909 C 22.966 4.001,22.856 3.054,22.042 2.188 C 21.349 1.451,20.688 1.165,19.960 1.284 M20.512 2.836 C 20.690 2.927,21.143 3.390,21.199 3.539 C 21.299 3.799,21.208 4.026,20.874 4.349 L 20.699 4.518 20.480 4.393 C 20.202 4.236,19.734 3.762,19.590 3.494 L 19.479 3.288 19.690 3.098 C 20.084 2.742,20.234 2.694,20.512 2.836 M18.764 4.877 C 18.887 5.022,19.092 5.221,19.218 5.320 C 19.345 5.419,19.483 5.527,19.525 5.560 C 19.598 5.617,19.537 5.685,18.388 6.833 L 17.174 8.045 16.483 8.145 C 16.103 8.200,15.786 8.239,15.778 8.232 C 15.771 8.224,15.808 7.921,15.861 7.559 C 15.914 7.197,15.958 6.883,15.959 6.862 C 15.960 6.840,16.505 6.277,17.170 5.609 L 18.380 4.395 18.460 4.505 C 18.504 4.565,18.641 4.732,18.764 4.877 M8.660 5.278 C 7.776 5.385,7.027 5.901,6.568 6.720 C 6.168 7.434,6.168 8.566,6.568 9.280 C 7.094 10.219,7.953 10.731,9.000 10.731 C 10.047 10.731,10.906 10.219,11.432 9.280 C 11.832 8.566,11.832 7.434,11.432 6.720 C 10.857 5.694,9.796 5.142,8.660 5.278 M9.454 6.841 C 9.912 7.013,10.240 7.496,10.240 8.000 C 10.240 8.504,9.912 8.987,9.454 9.159 C 8.810 9.400,8.075 9.076,7.837 8.445 C 7.728 8.157,7.743 7.704,7.870 7.458 C 8.019 7.169,8.349 6.886,8.640 6.797 C 8.838 6.737,9.232 6.758,9.454 6.841 M19.553 12.865 C 19.649 12.907,20.068 13.230,20.485 13.581 L 21.243 14.220 21.225 15.300 C 21.205 16.469,21.159 16.888,20.960 17.688 C 20.504 19.519,19.520 20.504,17.688 20.960 C 16.622 21.226,16.745 21.220,12.000 21.220 C 8.064 21.220,7.661 21.214,7.240 21.148 C 5.604 20.893,4.588 20.405,3.895 19.541 C 3.693 19.290,3.650 19.213,3.690 19.175 C 3.813 19.059,8.079 16.219,8.240 16.146 C 8.514 16.023,9.036 16.008,9.320 16.115 C 9.564 16.207,9.664 16.274,10.061 16.609 C 10.574 17.041,11.131 17.265,11.798 17.308 C 12.431 17.349,13.051 17.194,13.543 16.872 C 13.695 16.772,14.729 15.910,15.841 14.955 C 18.334 12.815,18.203 12.921,18.453 12.832 C 18.725 12.735,19.298 12.752,19.553 12.865 " stroke="none" fill-rule="evenodd" fill="black"></path></svg>