<svg width="24" height="24" viewBox="0 0 24 24" fill="none" xmlns="http://www.w3.org/2000/svg"><path d="M7.400 1.282 C 5.512 1.403,4.102 2.116,3.237 3.386 C 2.653 4.245,2.363 5.182,2.280 6.474 C 2.228 7.300,2.228 16.700,2.280 17.526 C 2.363 18.816,2.655 19.759,3.241 20.619 C 3.843 21.503,4.743 22.135,5.861 22.459 C 6.819 22.737,7.259 22.758,12.000 22.758 C 15.920 22.758,16.791 22.737,17.441 22.623 C 19.703 22.226,21.146 20.813,21.599 18.555 C 21.740 17.850,21.760 17.062,21.760 12.000 C 21.760 6.926,21.741 6.153,21.597 5.434 C 21.340 4.143,20.715 3.063,19.845 2.406 C 18.895 1.688,17.970 1.375,16.520 1.280 C 15.849 1.236,8.086 1.237,7.400 1.282 M17.405 2.888 C 18.197 3.084,18.719 3.358,19.180 3.820 C 19.648 4.288,19.921 4.812,20.113 5.615 L 20.220 6.060 20.220 12.000 L 20.220 17.940 20.113 18.385 C 19.921 19.188,19.648 19.712,19.180 20.180 C 18.712 20.648,18.188 20.921,17.385 21.113 L 16.940 21.220 12.000 21.220 L 7.060 21.220 6.615 21.113 C 5.092 20.748,4.266 19.928,3.888 18.405 L 3.783 17.980 3.769 12.260 C 3.760 8.455,3.770 6.418,3.797 6.177 C 4.024 4.206,5.140 3.060,7.080 2.803 C 7.223 2.784,9.509 2.772,12.160 2.776 L 16.980 2.783 17.405 2.888 M7.400 4.281 C 6.503 4.390,5.691 5.071,5.372 5.980 L 5.260 6.300 5.260 8.000 L 5.260 9.700 5.372 10.020 C 5.633 10.770,6.228 11.364,6.980 11.628 L 7.300 11.740 11.980 11.740 C 16.375 11.740,16.674 11.736,16.893 11.668 C 17.774 11.396,18.396 10.774,18.668 9.893 C 18.732 9.684,18.740 9.486,18.740 8.000 C 18.740 6.514,18.732 6.316,18.668 6.107 C 18.399 5.236,17.801 4.631,16.916 4.334 C 16.713 4.266,16.425 4.261,12.180 4.255 C 9.694 4.252,7.543 4.263,7.400 4.281 M16.576 5.804 C 16.786 5.862,17.138 6.214,17.196 6.424 C 17.255 6.636,17.255 9.364,17.196 9.576 C 17.138 9.786,16.786 10.138,16.576 10.196 C 16.357 10.257,7.643 10.257,7.424 10.196 C 7.214 10.138,6.862 9.786,6.804 9.576 C 6.776 9.477,6.760 8.898,6.760 8.000 C 6.760 7.102,6.776 6.523,6.804 6.424 C 6.858 6.228,7.216 5.860,7.405 5.806 C 7.602 5.749,16.372 5.747,16.576 5.804 M16.293 14.362 C 15.813 14.457,15.510 14.836,15.510 15.345 C 15.510 15.538,15.534 15.635,15.621 15.796 C 16.112 16.697,17.490 16.363,17.490 15.342 C 17.490 14.689,16.936 14.235,16.293 14.362 M10.129 14.559 C 9.948 14.602,9.748 14.749,9.422 15.078 L 9.144 15.359 8.782 15.004 C 8.375 14.605,8.219 14.530,7.899 14.578 C 7.745 14.601,7.674 14.642,7.518 14.798 C 7.362 14.954,7.321 15.025,7.298 15.179 C 7.250 15.499,7.326 15.655,7.722 16.060 L 8.074 16.420 7.741 16.764 C 7.348 17.170,7.269 17.308,7.269 17.580 C 7.269 18.001,7.585 18.320,8.004 18.320 C 8.254 18.320,8.399 18.236,8.794 17.859 L 9.163 17.508 9.552 17.890 C 9.986 18.316,10.136 18.391,10.461 18.342 C 10.615 18.319,10.686 18.278,10.842 18.122 C 10.998 17.966,11.039 17.895,11.062 17.741 C 11.111 17.416,11.036 17.266,10.610 16.832 L 10.228 16.443 10.579 16.074 C 10.956 15.679,11.040 15.534,11.040 15.284 C 11.040 14.806,10.592 14.450,10.129 14.559 M14.189 16.537 C 13.387 16.823,13.253 17.863,13.956 18.335 C 14.182 18.487,14.588 18.526,14.859 18.423 C 15.076 18.340,15.381 18.016,15.439 17.807 C 15.594 17.250,15.307 16.695,14.783 16.539 C 14.542 16.467,14.387 16.467,14.189 16.537 " stroke="none" fill-rule="evenodd" fill="black"></path></svg>