<svg width="24" height="24" viewBox="0 0 24 24" fill="none" xmlns="http://www.w3.org/2000/svg"><path d="M12.854 1.278 C 12.654 1.326,12.464 1.464,12.373 1.628 C 12.301 1.758,12.284 1.878,12.260 2.448 C 12.237 2.994,12.220 3.126,12.165 3.175 C 12.129 3.208,11.960 3.253,11.790 3.274 C 10.889 3.386,10.240 4.112,10.240 5.008 L 10.240 5.240 9.590 5.240 C 8.722 5.241,7.553 5.305,6.994 5.382 C 3.633 5.848,1.848 7.632,1.383 10.991 C 1.193 12.362,1.193 15.638,1.383 17.009 C 1.767 19.784,3.048 21.470,5.356 22.242 C 6.191 22.521,6.998 22.657,8.193 22.720 C 9.162 22.771,14.838 22.771,15.807 22.720 C 17.002 22.657,17.809 22.521,18.644 22.242 C 20.966 21.466,22.225 19.797,22.622 16.973 C 22.804 15.675,22.804 12.325,22.622 11.027 C 22.532 10.386,22.416 9.878,22.242 9.356 C 21.632 7.531,20.469 6.367,18.650 5.760 C 17.408 5.346,16.359 5.241,13.470 5.240 C 11.934 5.240,11.877 5.237,11.800 5.160 C 11.705 5.065,11.698 4.969,11.780 4.852 C 11.825 4.787,11.898 4.759,12.070 4.741 C 12.432 4.702,12.643 4.639,12.880 4.497 C 13.247 4.277,13.512 3.951,13.657 3.540 C 13.750 3.278,13.796 2.011,13.722 1.785 C 13.598 1.412,13.221 1.191,12.854 1.278 M16.800 6.854 C 19.586 7.316,20.714 8.454,21.148 11.240 C 21.211 11.643,21.220 11.987,21.220 14.000 C 21.220 16.013,21.211 16.357,21.148 16.760 C 20.712 19.558,19.558 20.712,16.760 21.148 C 16.339 21.214,15.936 21.220,12.000 21.220 C 8.064 21.220,7.661 21.214,7.240 21.148 C 4.450 20.713,3.283 19.551,2.854 16.780 C 2.788 16.354,2.780 16.041,2.780 14.000 C 2.780 11.470,2.795 11.263,3.044 10.288 C 3.557 8.282,4.722 7.274,6.960 6.900 C 7.690 6.777,8.048 6.769,12.200 6.777 C 15.963 6.784,16.422 6.791,16.800 6.854 M15.049 11.142 C 14.702 11.317,14.520 11.626,14.520 12.040 C 14.520 12.325,14.581 12.490,14.761 12.695 C 14.966 12.928,15.171 13.018,15.500 13.018 C 15.838 13.018,16.041 12.925,16.256 12.674 C 16.640 12.225,16.525 11.492,16.023 11.182 C 15.863 11.083,15.776 11.059,15.544 11.048 C 15.300 11.037,15.230 11.050,15.049 11.142 M9.259 11.782 C 9.192 11.815,8.896 12.084,8.600 12.380 L 8.064 12.918 7.535 12.398 C 7.245 12.113,6.943 11.852,6.865 11.819 C 6.315 11.590,5.736 12.014,5.815 12.588 C 5.847 12.824,5.925 12.929,6.496 13.511 L 6.977 14.002 6.433 14.551 C 6.134 14.853,5.866 15.144,5.839 15.198 C 5.688 15.494,5.847 15.979,6.152 16.150 C 6.345 16.259,6.665 16.270,6.852 16.175 C 6.922 16.139,7.218 15.875,7.509 15.588 L 8.038 15.066 8.599 15.615 C 8.908 15.917,9.223 16.190,9.299 16.222 C 9.668 16.376,10.081 16.222,10.269 15.861 C 10.353 15.700,10.348 15.371,10.260 15.199 C 10.220 15.123,9.949 14.817,9.657 14.520 L 9.126 13.980 9.680 13.415 C 10.281 12.802,10.355 12.676,10.302 12.342 C 10.228 11.876,9.672 11.578,9.259 11.782 M13.229 13.055 C 12.865 13.191,12.636 13.451,12.561 13.815 C 12.483 14.193,12.656 14.609,12.978 14.818 C 13.424 15.107,13.954 15.033,14.296 14.634 C 14.462 14.440,14.519 14.268,14.520 13.969 C 14.520 13.461,14.128 13.053,13.603 13.015 C 13.470 13.005,13.319 13.021,13.229 13.055 M17.160 13.061 C 16.254 13.343,16.266 14.669,17.177 14.941 C 17.426 15.015,17.535 15.015,17.790 14.939 C 18.168 14.827,18.480 14.402,18.480 14.000 C 18.480 13.598,18.168 13.173,17.790 13.061 C 17.543 12.987,17.398 12.988,17.160 13.061 M15.240 14.995 C 15.034 15.062,14.884 15.163,14.745 15.325 C 14.559 15.543,14.508 15.708,14.527 16.038 C 14.546 16.386,14.695 16.644,14.978 16.819 C 15.154 16.928,15.207 16.940,15.500 16.940 C 15.793 16.940,15.846 16.928,16.022 16.819 C 16.394 16.589,16.567 16.112,16.445 15.657 C 16.389 15.452,16.159 15.182,15.949 15.074 C 15.772 14.984,15.400 14.942,15.240 14.995 " stroke="none" fill-rule="evenodd" fill="black"></path></svg>