<svg width="24" height="24" viewBox="0 0 24 24" fill="none" xmlns="http://www.w3.org/2000/svg"><path d="M11.560 1.266 C 8.353 1.417,5.423 2.969,3.478 5.546 C 2.407 6.964,1.688 8.649,1.399 10.415 C 1.256 11.288,1.234 12.215,1.249 16.500 C 1.263 20.264,1.270 20.598,1.336 20.818 C 1.498 21.361,1.749 21.690,2.151 21.888 C 2.391 22.007,2.453 22.020,2.759 22.018 C 3.356 22.015,3.666 21.842,4.618 20.979 C 4.945 20.684,5.246 20.431,5.288 20.417 C 5.330 20.404,5.407 20.422,5.460 20.456 C 5.513 20.491,6.006 20.931,6.555 21.434 C 7.104 21.937,7.640 22.406,7.746 22.476 C 8.268 22.821,9.091 22.822,9.611 22.477 C 9.716 22.408,10.264 21.928,10.830 21.411 C 11.395 20.894,11.898 20.452,11.947 20.429 C 12.015 20.398,12.061 20.404,12.137 20.454 C 12.192 20.490,12.686 20.931,13.235 21.434 C 13.784 21.937,14.320 22.406,14.426 22.476 C 14.948 22.822,15.771 22.822,16.293 22.477 C 16.398 22.407,16.933 21.939,17.482 21.436 C 18.031 20.933,18.524 20.493,18.578 20.458 C 18.632 20.422,18.710 20.404,18.752 20.417 C 18.794 20.431,19.096 20.686,19.424 20.985 C 20.347 21.827,20.674 22.011,21.261 22.017 C 21.547 22.020,21.611 22.006,21.849 21.888 C 22.251 21.690,22.502 21.361,22.664 20.818 C 22.730 20.598,22.736 20.264,22.750 16.460 C 22.768 11.316,22.743 10.831,22.399 9.460 C 21.303 5.091,17.547 1.783,13.160 1.325 C 12.710 1.277,11.925 1.249,11.560 1.266 M13.529 2.876 C 15.423 3.219,17.106 4.100,18.461 5.458 C 19.869 6.869,20.761 8.595,21.130 10.620 C 21.216 11.093,21.217 11.171,21.230 15.751 C 21.237 18.394,21.228 20.429,21.208 20.465 C 21.167 20.538,21.134 20.513,20.440 19.878 C 19.525 19.041,19.349 18.946,18.700 18.946 C 18.379 18.946,18.254 18.964,18.066 19.037 C 17.775 19.151,17.610 19.285,16.431 20.368 C 15.629 21.104,15.463 21.240,15.360 21.240 C 15.257 21.240,15.091 21.104,14.289 20.368 C 13.110 19.285,12.945 19.151,12.654 19.037 C 12.321 18.908,11.719 18.908,11.386 19.037 C 11.095 19.151,10.930 19.285,9.751 20.368 C 8.949 21.104,8.783 21.240,8.680 21.240 C 8.577 21.240,8.411 21.104,7.609 20.368 C 6.430 19.285,6.265 19.151,5.974 19.038 C 5.788 18.965,5.658 18.947,5.340 18.945 C 4.691 18.943,4.520 19.036,3.580 19.898 C 2.976 20.452,2.844 20.550,2.797 20.477 C 2.774 20.443,2.764 18.569,2.771 15.760 C 2.783 11.168,2.784 11.093,2.870 10.620 C 3.356 7.951,4.796 5.733,6.996 4.263 C 8.016 3.581,9.264 3.085,10.473 2.881 C 11.139 2.769,11.166 2.767,12.160 2.780 C 12.866 2.789,13.161 2.810,13.529 2.876 M11.660 6.278 C 10.776 6.385,10.027 6.901,9.568 7.720 C 9.168 8.434,9.168 9.566,9.568 10.280 C 10.094 11.219,10.953 11.731,12.000 11.731 C 13.047 11.731,13.906 11.219,14.432 10.280 C 14.832 9.566,14.832 8.434,14.432 7.720 C 13.857 6.694,12.796 6.142,11.660 6.278 M12.454 7.841 C 12.744 7.950,13.050 8.256,13.159 8.546 C 13.467 9.369,12.871 10.240,12.000 10.240 C 11.492 10.240,11.014 9.913,10.837 9.445 C 10.728 9.157,10.743 8.704,10.870 8.458 C 11.019 8.169,11.349 7.886,11.640 7.797 C 11.838 7.737,12.232 7.758,12.454 7.841 M7.811 13.278 C 7.487 13.357,7.263 13.667,7.267 14.030 C 7.270 14.339,7.391 14.493,7.897 14.830 C 8.920 15.513,9.894 15.872,11.120 16.022 C 12.890 16.237,14.610 15.826,16.103 14.830 C 16.608 14.494,16.724 14.347,16.731 14.031 C 16.737 13.757,16.629 13.540,16.408 13.383 C 16.269 13.286,16.203 13.267,16.002 13.267 C 15.771 13.267,15.743 13.278,15.370 13.528 C 14.281 14.259,13.272 14.571,12.000 14.571 C 10.735 14.571,9.733 14.263,8.640 13.538 C 8.242 13.275,8.060 13.217,7.811 13.278 " stroke="none" fill-rule="evenodd" fill="black"></path></svg>