<svg width="24" height="24" viewBox="0 0 24 24" fill="none" xmlns="http://www.w3.org/2000/svg"><path d="M7.994 1.282 C 7.870 1.297,7.646 1.366,7.497 1.435 C 7.258 1.547,7.122 1.667,6.339 2.451 C 5.397 3.395,5.269 3.566,5.183 3.980 L 5.133 4.220 4.537 4.251 C 3.510 4.303,2.996 4.487,2.496 4.980 C 2.184 5.288,1.977 5.654,1.850 6.120 C 1.746 6.504,1.746 8.496,1.850 8.880 C 2.030 9.542,2.453 10.109,2.988 10.403 L 3.236 10.540 3.251 14.880 C 3.267 19.619,3.259 19.438,3.505 20.240 C 3.910 21.562,4.866 22.352,6.390 22.621 C 7.084 22.744,8.122 22.766,12.524 22.749 C 17.158 22.731,17.221 22.729,18.006 22.525 C 19.353 22.175,20.204 21.294,20.525 19.920 C 20.690 19.212,20.690 19.221,20.707 14.800 L 20.724 10.540 20.989 10.400 C 21.581 10.087,22.040 9.425,22.178 8.686 C 22.264 8.222,22.264 6.778,22.178 6.314 C 22.032 5.531,21.574 4.898,20.916 4.568 C 20.498 4.359,20.142 4.284,19.414 4.252 L 18.849 4.228 18.824 4.039 C 18.768 3.621,18.609 3.403,17.683 2.476 C 16.603 1.394,16.411 1.276,15.740 1.278 C 15.358 1.279,15.118 1.347,14.832 1.533 C 14.715 1.609,14.044 2.250,13.340 2.956 C 12.636 3.662,12.034 4.240,12.002 4.240 C 11.970 4.240,11.340 3.640,10.602 2.907 C 9.785 2.096,9.189 1.535,9.079 1.474 C 8.762 1.302,8.391 1.236,7.994 1.282 M9.080 3.500 L 9.819 4.240 8.240 4.240 L 6.661 4.240 7.400 3.500 C 7.968 2.931,8.163 2.760,8.240 2.760 C 8.317 2.760,8.512 2.931,9.080 3.500 M16.560 3.500 L 17.299 4.240 15.740 4.240 L 14.181 4.240 14.920 3.500 C 15.391 3.028,15.688 2.760,15.740 2.760 C 15.792 2.760,16.089 3.028,16.560 3.500 M20.160 5.864 C 20.411 5.979,20.581 6.162,20.667 6.410 C 20.729 6.589,20.740 6.750,20.740 7.500 C 20.740 8.250,20.729 8.411,20.667 8.590 C 20.581 8.838,20.411 9.021,20.160 9.136 L 19.980 9.220 12.000 9.220 C 4.365 9.220,4.012 9.217,3.830 9.147 C 3.597 9.057,3.389 8.824,3.315 8.568 C 3.237 8.302,3.238 6.645,3.315 6.420 C 3.381 6.227,3.529 6.022,3.667 5.932 C 3.927 5.762,3.767 5.765,12.060 5.772 L 19.980 5.780 20.160 5.864 M8.209 13.170 L 8.220 15.580 8.347 15.850 C 8.581 16.344,9.039 16.720,9.556 16.840 C 9.866 16.913,10.344 16.872,10.608 16.750 C 10.725 16.696,11.062 16.494,11.357 16.301 C 11.653 16.108,11.933 15.950,11.979 15.950 C 12.025 15.950,12.323 16.121,12.641 16.331 C 13.337 16.789,13.497 16.851,13.980 16.853 C 14.409 16.855,14.672 16.768,15.032 16.503 C 15.288 16.315,15.470 16.069,15.609 15.724 C 15.700 15.501,15.700 15.488,15.711 13.130 L 15.723 10.760 17.484 10.760 L 19.246 10.760 19.228 14.810 C 19.213 18.222,19.200 18.912,19.149 19.187 C 19.019 19.877,18.869 20.244,18.590 20.546 C 18.389 20.765,18.180 20.891,17.813 21.016 C 17.201 21.224,17.305 21.220,11.940 21.220 L 6.940 21.220 6.540 21.131 C 6.030 21.018,5.539 20.781,5.338 20.549 C 5.045 20.214,4.845 19.640,4.763 18.905 C 4.735 18.661,4.720 17.123,4.720 14.642 L 4.720 10.760 6.459 10.760 L 8.197 10.760 8.209 13.170 M14.231 12.999 C 14.221 15.022,14.214 15.244,14.154 15.304 C 14.027 15.430,13.893 15.382,13.345 15.010 C 12.670 14.554,12.457 14.469,11.980 14.469 C 11.503 14.469,11.306 14.548,10.588 15.023 C 10.275 15.230,9.985 15.399,9.943 15.400 C 9.900 15.400,9.823 15.361,9.773 15.313 L 9.680 15.226 9.680 12.993 L 9.680 10.760 11.961 10.760 L 14.242 10.760 14.231 12.999 " stroke="none" fill-rule="evenodd" fill="black"></path></svg>