<svg width="24" height="24" viewBox="0 0 24 24" fill="none" xmlns="http://www.w3.org/2000/svg"><path d="M5.860 1.787 C 3.658 1.928,2.452 2.579,1.795 3.980 C 1.501 4.609,1.348 5.384,1.281 6.588 C 1.228 7.541,1.227 18.973,1.280 19.664 C 1.374 20.893,1.747 21.659,2.505 22.182 C 3.164 22.636,3.914 22.760,6.000 22.760 C 7.728 22.760,8.333 22.696,9.009 22.441 C 9.670 22.192,10.261 21.557,10.500 20.839 C 10.663 20.350,10.715 19.975,10.745 19.070 L 10.773 18.240 12.006 18.240 L 13.240 18.240 13.240 18.690 C 13.241 20.619,13.592 21.565,14.551 22.212 C 15.180 22.638,15.950 22.760,18.000 22.760 C 20.086 22.760,20.836 22.636,21.495 22.182 C 22.253 21.659,22.626 20.893,22.720 19.664 C 22.773 18.973,22.772 7.541,22.719 6.588 C 22.614 4.690,22.256 3.668,21.425 2.891 C 20.651 2.167,19.550 1.838,17.678 1.773 C 16.857 1.744,16.727 1.762,16.537 1.928 C 16.345 2.096,16.269 2.260,16.269 2.500 C 16.269 2.727,16.339 2.889,16.506 3.047 C 16.671 3.203,16.802 3.240,17.193 3.240 C 17.674 3.240,18.552 3.310,18.964 3.381 C 20.142 3.584,20.719 4.051,21.005 5.032 C 21.207 5.726,21.210 5.798,21.228 9.395 C 21.244 12.638,21.242 12.769,21.172 12.740 C 20.845 12.603,20.651 12.540,20.340 12.470 C 20.018 12.398,19.801 12.387,18.300 12.371 C 17.212 12.359,16.470 12.368,16.193 12.397 C 14.616 12.562,13.717 13.276,13.399 14.615 C 13.309 14.992,13.242 15.728,13.241 16.350 L 13.240 16.760 12.000 16.760 L 10.760 16.760 10.759 16.350 C 10.758 15.728,10.691 14.992,10.601 14.615 C 10.283 13.276,9.384 12.562,7.807 12.397 C 7.530 12.368,6.788 12.359,5.700 12.371 C 3.757 12.392,3.616 12.410,2.828 12.740 C 2.758 12.769,2.756 12.638,2.772 9.395 C 2.790 5.798,2.793 5.726,2.995 5.032 C 3.281 4.051,3.858 3.584,5.036 3.381 C 5.448 3.310,6.326 3.240,6.807 3.240 C 7.198 3.240,7.329 3.203,7.494 3.047 C 7.661 2.889,7.731 2.727,7.731 2.500 C 7.731 2.193,7.540 1.905,7.267 1.803 C 7.165 1.764,6.363 1.755,5.860 1.787 M8.128 13.952 C 8.504 14.054,8.639 14.122,8.812 14.295 C 8.989 14.471,9.113 14.745,9.183 15.110 C 9.271 15.567,9.266 19.600,9.177 20.029 C 9.033 20.725,8.726 21.033,8.030 21.177 C 7.580 21.270,4.420 21.270,3.971 21.177 C 3.275 21.033,2.967 20.726,2.823 20.030 C 2.770 19.773,2.760 19.378,2.760 17.569 C 2.760 16.269,2.776 15.321,2.801 15.177 C 2.920 14.492,3.174 14.168,3.727 13.994 C 4.131 13.867,4.519 13.846,6.220 13.858 C 7.696 13.868,7.844 13.875,8.128 13.952 M20.128 13.952 C 20.504 14.054,20.639 14.122,20.812 14.295 C 20.989 14.471,21.113 14.745,21.183 15.110 C 21.271 15.567,21.266 19.600,21.177 20.029 C 21.033 20.725,20.726 21.033,20.030 21.177 C 19.580 21.270,16.420 21.270,15.971 21.177 C 15.275 21.033,14.967 20.726,14.823 20.030 C 14.770 19.773,14.760 19.378,14.760 17.569 C 14.760 16.269,14.776 15.321,14.801 15.177 C 14.920 14.492,15.174 14.168,15.727 13.994 C 16.131 13.867,16.519 13.846,18.220 13.858 C 19.696 13.868,19.844 13.875,20.128 13.952 " stroke="none" fill-rule="evenodd" fill="black"></path></svg>