<svg width="24" height="24" viewBox="0 0 24 24" fill="none" xmlns="http://www.w3.org/2000/svg"><path d="M8.060 1.281 C 7.706 1.319,7.486 1.378,7.166 1.523 C 6.356 1.891,5.680 2.678,5.434 3.540 C 5.306 3.991,5.305 4.726,5.432 5.172 C 5.715 6.166,6.438 6.959,7.372 7.303 C 7.526 7.359,7.615 7.414,7.608 7.447 C 7.601 7.476,6.713 9.505,5.635 11.955 C 4.556 14.406,3.604 16.620,3.519 16.875 C 3.255 17.669,3.185 18.082,3.183 18.860 C 3.182 19.440,3.195 19.590,3.272 19.879 C 3.683 21.430,4.897 22.359,6.920 22.669 C 7.280 22.724,7.936 22.736,11.520 22.749 C 15.885 22.766,16.695 22.746,17.434 22.603 C 19.431 22.216,20.613 21.054,20.804 19.290 C 20.880 18.592,20.770 17.772,20.482 16.891 C 20.342 16.461,20.219 16.175,18.025 11.160 C 16.450 7.560,16.376 7.378,16.456 7.345 C 17.223 7.021,17.625 6.742,18.014 6.265 C 18.650 5.484,18.837 4.381,18.503 3.384 C 18.354 2.942,18.102 2.542,17.740 2.177 C 17.212 1.643,16.642 1.367,15.890 1.281 C 15.484 1.234,8.494 1.234,8.060 1.281 M16.017 2.821 C 16.766 3.048,17.269 3.827,17.161 4.593 C 17.113 4.934,16.996 5.168,16.740 5.436 C 16.388 5.806,15.904 6.000,15.335 6.000 C 15.081 6.000,14.937 6.051,14.786 6.193 C 14.620 6.350,14.549 6.513,14.548 6.739 C 14.547 6.916,14.696 7.280,15.793 9.788 C 16.479 11.355,17.040 12.653,17.040 12.672 C 17.040 12.724,16.401 13.010,15.908 13.178 C 15.034 13.477,14.152 13.597,13.387 13.521 C 12.895 13.472,12.708 13.430,11.940 13.199 C 10.602 12.796,9.401 12.573,7.872 12.446 L 7.083 12.380 8.281 9.660 C 9.291 7.367,9.479 6.911,9.480 6.753 C 9.481 6.274,9.178 6.000,8.647 6.000 C 8.054 6.000,7.643 5.849,7.297 5.503 C 6.440 4.646,6.811 3.187,7.980 2.816 C 8.104 2.777,8.994 2.765,11.980 2.763 C 15.273 2.761,15.848 2.769,16.017 2.821 M8.260 13.979 C 9.435 14.105,10.418 14.307,11.660 14.675 C 12.498 14.924,12.910 15.000,13.581 15.028 C 14.758 15.079,16.053 14.801,17.293 14.233 C 17.486 14.144,17.653 14.080,17.663 14.090 C 17.686 14.113,18.727 16.482,18.888 16.880 C 19.286 17.858,19.425 18.843,19.257 19.494 C 19.071 20.216,18.537 20.731,17.700 20.997 C 16.978 21.226,17.141 21.220,11.960 21.220 C 7.496 21.220,7.157 21.215,6.840 21.147 C 6.409 21.056,6.277 21.016,5.980 20.888 C 5.456 20.662,5.119 20.365,4.889 19.928 C 4.713 19.592,4.659 19.323,4.664 18.800 C 4.672 17.972,4.808 17.541,5.699 15.520 C 6.024 14.783,6.321 14.108,6.359 14.020 L 6.429 13.860 7.044 13.887 C 7.383 13.902,7.930 13.943,8.260 13.979 " stroke="none" fill-rule="evenodd" fill="black"></path></svg>