<svg width="24" height="24" viewBox="0 0 24 24" fill="none" xmlns="http://www.w3.org/2000/svg"><path d="M11.320 1.281 C 7.041 1.525,3.252 4.409,1.843 8.497 C 1.180 10.418,1.082 12.560,1.564 14.550 C 2.505 18.428,5.572 21.495,9.450 22.436 C 11.106 22.837,12.894 22.837,14.550 22.436 C 18.428 21.495,21.495 18.428,22.436 14.550 C 22.837 12.894,22.837 11.106,22.436 9.450 C 21.425 5.282,17.985 2.095,13.742 1.398 C 13.334 1.331,12.074 1.229,11.880 1.247 C 11.847 1.250,11.595 1.265,11.320 1.281 M13.001 2.801 C 13.187 2.823,13.539 2.879,13.781 2.924 L 14.223 3.005 14.450 3.753 C 14.806 4.920,15.118 6.155,15.221 6.796 L 15.249 6.972 14.955 6.945 C 14.793 6.930,14.426 6.896,14.140 6.870 C 13.458 6.807,10.542 6.807,9.860 6.870 C 9.574 6.896,9.207 6.930,9.045 6.945 L 8.751 6.972 8.779 6.796 C 8.878 6.180,9.233 4.769,9.538 3.780 C 9.634 3.472,9.722 3.172,9.735 3.114 C 9.758 3.015,9.784 3.004,10.210 2.924 C 10.457 2.878,10.786 2.824,10.940 2.805 C 11.339 2.755,12.601 2.753,13.001 2.801 M16.430 3.881 C 17.933 4.684,19.317 6.070,20.123 7.578 C 20.237 7.790,20.323 7.970,20.315 7.978 C 20.307 7.986,20.039 7.921,19.720 7.834 C 19.064 7.655,17.772 7.361,17.194 7.260 L 16.808 7.192 16.740 6.806 C 16.602 6.022,16.138 4.061,16.012 3.734 C 15.980 3.649,16.028 3.666,16.430 3.881 M7.960 3.770 C 7.960 3.797,7.887 4.090,7.798 4.420 C 7.616 5.094,7.361 6.225,7.259 6.806 L 7.192 7.192 6.806 7.260 C 6.228 7.361,4.936 7.655,4.280 7.834 C 3.961 7.921,3.693 7.986,3.685 7.978 C 3.677 7.970,3.763 7.790,3.877 7.578 C 4.668 6.097,5.992 4.757,7.480 3.931 C 7.872 3.714,7.960 3.684,7.960 3.770 M13.340 8.320 C 14.377 8.375,15.410 8.479,15.466 8.534 C 15.532 8.600,15.633 9.691,15.688 10.930 C 15.725 11.760,15.725 12.240,15.688 13.070 C 15.633 14.309,15.532 15.400,15.466 15.466 C 15.400 15.532,14.309 15.633,13.070 15.688 C 12.242 15.725,11.758 15.725,10.930 15.688 C 9.981 15.646,8.810 15.553,8.577 15.501 C 8.501 15.484,8.489 15.429,8.426 14.791 C 8.301 13.534,8.259 12.116,8.311 10.950 C 8.375 9.511,8.474 8.527,8.557 8.503 C 8.671 8.469,9.930 8.356,10.540 8.324 C 11.430 8.277,12.483 8.275,13.340 8.320 M6.944 9.050 C 6.930 9.210,6.896 9.574,6.870 9.860 C 6.807 10.542,6.807 13.458,6.870 14.140 C 6.896 14.426,6.930 14.793,6.945 14.955 L 6.972 15.249 6.796 15.221 C 6.180 15.122,4.769 14.767,3.780 14.462 C 3.472 14.366,3.172 14.278,3.114 14.265 C 3.015 14.242,3.004 14.216,2.925 13.790 C 2.794 13.084,2.760 12.712,2.760 12.000 C 2.760 11.288,2.794 10.916,2.925 10.210 C 3.004 9.784,3.015 9.758,3.114 9.735 C 3.172 9.722,3.472 9.634,3.780 9.538 C 4.545 9.302,5.262 9.111,6.000 8.945 C 7.073 8.705,6.978 8.694,6.944 9.050 M18.000 8.946 C 18.735 9.110,19.451 9.301,20.220 9.538 C 20.528 9.634,20.828 9.722,20.886 9.735 C 20.985 9.758,20.996 9.784,21.075 10.210 C 21.206 10.916,21.240 11.288,21.240 12.000 C 21.240 12.712,21.206 13.084,21.075 13.790 C 20.996 14.216,20.985 14.242,20.886 14.265 C 20.828 14.278,20.528 14.366,20.220 14.462 C 19.231 14.767,17.820 15.122,17.204 15.221 L 17.028 15.249 17.055 14.955 C 17.070 14.793,17.104 14.426,17.130 14.140 C 17.193 13.458,17.193 10.542,17.130 9.860 C 17.104 9.574,17.070 9.207,17.055 9.045 L 17.028 8.751 17.204 8.779 C 17.301 8.795,17.659 8.870,18.000 8.946 M4.420 16.202 C 5.084 16.382,6.211 16.636,6.806 16.740 L 7.192 16.808 7.259 17.194 C 7.363 17.792,7.589 18.792,7.787 19.535 C 7.908 19.989,7.953 20.223,7.926 20.250 C 7.899 20.277,7.770 20.228,7.533 20.100 C 6.070 19.309,4.693 17.933,3.905 16.476 C 3.711 16.117,3.687 16.040,3.770 16.040 C 3.797 16.040,4.090 16.113,4.420 16.202 M20.261 16.081 C 20.295 16.137,19.968 16.736,19.650 17.200 C 19.009 18.133,18.139 19.003,17.200 19.650 C 16.831 19.904,16.051 20.344,16.022 20.315 C 16.014 20.307,16.079 20.039,16.166 19.720 C 16.345 19.064,16.639 17.772,16.740 17.194 L 16.808 16.808 17.194 16.740 C 17.753 16.642,19.060 16.345,19.640 16.185 C 20.208 16.028,20.226 16.025,20.261 16.081 M9.860 17.130 C 10.542 17.193,13.458 17.193,14.140 17.130 C 14.426 17.104,14.793 17.070,14.955 17.055 L 15.249 17.028 15.220 17.204 C 15.108 17.885,14.808 19.074,14.450 20.247 L 14.223 20.995 13.781 21.076 C 13.084 21.206,12.710 21.240,12.000 21.240 C 11.288 21.240,10.916 21.206,10.210 21.075 C 9.784 20.996,9.758 20.985,9.735 20.886 C 9.722 20.828,9.634 20.528,9.538 20.220 C 9.233 19.231,8.878 17.820,8.779 17.204 L 8.751 17.028 9.045 17.055 C 9.207 17.070,9.574 17.104,9.860 17.130 " stroke="none" fill-rule="evenodd" fill="black"></path></svg>