<svg width="24" height="24" viewBox="0 0 24 24" fill="none" xmlns="http://www.w3.org/2000/svg"><path d="M11.320 1.281 C 9.259 1.398,7.250 2.142,5.530 3.424 C 4.912 3.884,3.884 4.912,3.424 5.530 C 1.875 7.608,1.136 10.050,1.281 12.610 C 1.402 14.759,2.118 16.717,3.424 18.470 C 3.880 19.083,4.909 20.111,5.530 20.575 C 6.967 21.649,8.621 22.350,10.345 22.617 C 10.946 22.710,11.940 22.762,12.174 22.713 C 12.723 22.597,12.924 21.884,12.522 21.482 C 12.340 21.300,12.129 21.240,11.671 21.240 C 11.277 21.240,10.827 21.189,10.210 21.075 C 9.784 20.996,9.758 20.985,9.735 20.886 C 9.722 20.828,9.634 20.528,9.538 20.220 C 9.233 19.231,8.878 17.820,8.779 17.204 L 8.751 17.028 9.025 17.055 C 10.327 17.182,12.056 17.237,12.267 17.157 C 12.409 17.104,12.588 16.936,12.669 16.781 C 12.750 16.627,12.749 16.292,12.668 16.135 C 12.576 15.958,12.343 15.767,12.191 15.744 C 12.119 15.733,11.566 15.705,10.961 15.681 C 10.001 15.642,8.828 15.553,8.577 15.500 C 8.501 15.483,8.489 15.429,8.426 14.791 C 8.301 13.534,8.259 12.116,8.311 10.950 C 8.336 10.373,8.388 9.589,8.426 9.209 C 8.489 8.571,8.501 8.516,8.577 8.499 C 8.810 8.447,9.981 8.354,10.930 8.312 C 11.758 8.275,12.242 8.275,13.070 8.312 C 14.310 8.367,15.400 8.468,15.465 8.534 C 15.531 8.602,15.633 9.748,15.682 10.980 C 15.705 11.574,15.733 12.119,15.744 12.191 C 15.767 12.343,15.958 12.576,16.135 12.668 C 16.292 12.749,16.627 12.750,16.781 12.669 C 16.936 12.588,17.104 12.409,17.157 12.267 C 17.237 12.056,17.182 10.327,17.055 9.025 L 17.028 8.751 17.204 8.779 C 17.820 8.878,19.231 9.233,20.220 9.538 C 20.528 9.634,20.827 9.722,20.884 9.735 C 20.979 9.757,20.995 9.788,21.053 10.089 C 21.172 10.697,21.206 10.976,21.237 11.607 C 21.265 12.149,21.281 12.252,21.357 12.376 C 21.704 12.937,22.579 12.807,22.713 12.174 C 22.762 11.940,22.710 10.946,22.617 10.345 C 22.350 8.621,21.650 6.969,20.575 5.530 C 20.115 4.913,19.087 3.885,18.470 3.425 C 17.047 2.362,15.454 1.679,13.742 1.398 C 13.334 1.331,12.074 1.229,11.880 1.247 C 11.847 1.250,11.595 1.265,11.320 1.281 M13.001 2.801 C 13.187 2.823,13.543 2.879,13.790 2.925 C 14.216 3.004,14.242 3.015,14.265 3.114 C 14.278 3.172,14.366 3.472,14.461 3.780 C 14.750 4.718,15.091 6.077,15.223 6.816 L 15.251 6.973 14.956 6.945 C 14.793 6.930,14.426 6.896,14.140 6.870 C 13.458 6.807,10.542 6.807,9.860 6.870 C 9.574 6.896,9.207 6.930,9.045 6.945 L 8.751 6.972 8.779 6.796 C 8.878 6.180,9.233 4.769,9.538 3.780 C 9.634 3.472,9.722 3.172,9.735 3.114 C 9.758 3.015,9.784 3.004,10.210 2.924 C 10.457 2.878,10.786 2.824,10.940 2.805 C 11.339 2.755,12.601 2.753,13.001 2.801 M16.437 3.885 C 17.678 4.548,18.888 5.665,19.750 6.943 C 19.933 7.215,20.337 7.956,20.315 7.978 C 20.307 7.986,20.039 7.921,19.720 7.834 C 19.064 7.655,17.772 7.361,17.193 7.260 L 16.807 7.192 16.719 6.706 C 16.583 5.953,16.125 4.029,16.013 3.737 C 15.980 3.649,16.025 3.665,16.437 3.885 M7.960 3.770 C 7.960 3.797,7.887 4.090,7.798 4.420 C 7.616 5.094,7.361 6.225,7.259 6.806 L 7.192 7.192 6.806 7.260 C 6.228 7.361,4.936 7.655,4.280 7.834 C 3.961 7.921,3.693 7.986,3.685 7.978 C 3.677 7.970,3.764 7.789,3.878 7.575 C 4.271 6.841,4.715 6.246,5.378 5.566 C 6.076 4.850,6.710 4.356,7.480 3.930 C 7.872 3.714,7.960 3.684,7.960 3.770 M6.944 9.050 C 6.930 9.210,6.896 9.574,6.870 9.860 C 6.807 10.542,6.807 13.458,6.870 14.140 C 6.896 14.426,6.930 14.793,6.945 14.956 L 6.973 15.251 6.816 15.223 C 6.072 15.090,4.697 14.746,3.780 14.462 C 3.472 14.367,3.172 14.278,3.114 14.265 C 3.015 14.242,3.004 14.216,2.925 13.790 C 2.794 13.084,2.760 12.712,2.760 12.000 C 2.760 11.288,2.794 10.916,2.925 10.210 C 3.004 9.784,3.015 9.758,3.114 9.735 C 3.172 9.722,3.472 9.634,3.780 9.538 C 4.545 9.302,5.262 9.111,6.000 8.945 C 7.073 8.705,6.978 8.694,6.944 9.050 M18.430 12.721 C 18.124 12.886,17.967 13.308,18.096 13.616 C 18.131 13.701,18.160 13.774,18.160 13.779 C 18.160 13.784,17.994 13.799,17.790 13.812 C 16.347 13.907,14.887 14.925,14.221 16.300 C 13.946 16.866,13.762 17.655,13.762 18.260 C 13.762 18.865,13.946 19.654,14.221 20.220 C 14.663 21.133,15.495 21.939,16.420 22.351 C 17.743 22.940,19.327 22.843,20.561 22.097 C 21.559 21.494,22.262 20.549,22.590 19.373 C 22.691 19.008,22.699 18.927,22.698 18.240 C 22.696 17.565,22.686 17.465,22.588 17.100 C 22.463 16.638,22.147 15.973,21.933 15.722 C 21.630 15.369,21.190 15.342,20.846 15.655 C 20.700 15.788,20.628 15.960,20.630 16.179 C 20.631 16.345,20.673 16.462,20.871 16.846 C 21.068 17.229,21.124 17.381,21.181 17.701 C 21.261 18.145,21.245 18.666,21.138 19.058 C 20.885 19.989,20.071 20.829,19.140 21.121 C 18.756 21.241,18.015 21.272,17.600 21.185 C 16.652 20.986,15.729 20.160,15.424 19.237 C 15.137 18.370,15.251 17.381,15.720 16.664 C 16.001 16.235,16.489 15.799,16.933 15.579 C 17.280 15.408,17.719 15.282,17.976 15.281 C 18.085 15.280,18.088 15.284,18.028 15.351 C 17.926 15.463,17.840 15.703,17.841 15.869 C 17.842 16.042,17.953 16.308,18.066 16.408 C 18.257 16.578,18.585 16.643,18.825 16.559 C 19.011 16.494,20.571 15.348,20.668 15.204 C 20.795 15.017,20.825 14.755,20.743 14.548 C 20.676 14.377,19.408 12.906,19.190 12.745 C 19.027 12.625,18.629 12.613,18.430 12.721 M4.416 16.199 C 5.204 16.406,6.100 16.609,6.706 16.719 L 7.192 16.807 7.259 17.193 C 7.363 17.792,7.589 18.792,7.787 19.535 C 7.908 19.989,7.953 20.223,7.926 20.250 C 7.852 20.324,7.077 19.870,6.380 19.345 C 5.973 19.038,5.148 18.235,4.814 17.820 C 4.348 17.241,3.720 16.246,3.720 16.087 C 3.720 16.019,3.752 16.024,4.416 16.199 " stroke="none" fill-rule="evenodd" fill="black"></path></svg>