<svg width="24" height="24" viewBox="0 0 24 24" fill="none" xmlns="http://www.w3.org/2000/svg"><path d="M11.815 1.277 C 11.638 1.321,11.461 1.456,11.353 1.631 C 11.263 1.775,11.260 1.815,11.247 2.783 L 11.234 3.787 10.847 3.837 C 9.447 4.020,7.919 4.686,6.794 5.604 C 5.203 6.903,4.096 8.866,3.837 10.847 L 3.787 11.234 2.783 11.247 C 1.808 11.260,1.776 11.263,1.627 11.355 C 1.385 11.506,1.267 11.718,1.267 12.003 C 1.267 12.203,1.286 12.270,1.383 12.408 C 1.603 12.719,1.684 12.738,2.803 12.753 L 3.787 12.766 3.837 13.153 C 4.096 15.134,5.203 17.097,6.794 18.396 C 7.919 19.314,9.447 19.980,10.847 20.163 L 11.234 20.213 11.247 21.217 C 11.260 22.185,11.263 22.225,11.353 22.369 C 11.710 22.943,12.576 22.812,12.716 22.162 C 12.740 22.047,12.760 21.570,12.760 21.083 L 12.760 20.210 13.010 20.183 C 14.424 20.028,16.064 19.331,17.200 18.401 C 18.830 17.068,19.963 15.021,20.183 13.010 L 20.210 12.760 21.083 12.760 C 22.128 12.760,22.310 12.730,22.520 12.520 C 22.918 12.122,22.730 11.423,22.189 11.286 C 22.076 11.258,21.655 11.240,21.107 11.240 L 20.210 11.240 20.183 10.990 C 19.990 9.231,19.049 7.341,17.735 6.076 C 16.484 4.872,14.807 4.053,13.150 3.837 L 12.760 3.786 12.759 2.903 C 12.758 1.954,12.729 1.732,12.580 1.536 C 12.421 1.327,12.078 1.211,11.815 1.277 M13.094 5.340 C 15.219 5.684,17.073 7.064,18.058 9.034 C 18.350 9.618,18.592 10.401,18.684 11.060 C 18.749 11.522,18.749 12.478,18.684 12.940 C 18.377 15.132,16.984 17.050,14.966 18.058 C 14.383 18.349,13.602 18.591,12.940 18.685 C 12.478 18.750,11.522 18.750,11.060 18.685 C 8.863 18.373,6.950 16.984,5.942 14.966 C 5.665 14.413,5.444 13.725,5.333 13.071 C 5.254 12.603,5.244 11.501,5.316 11.040 C 5.545 9.559,6.187 8.289,7.238 7.238 C 8.414 6.062,9.798 5.426,11.540 5.263 C 11.822 5.237,12.734 5.282,13.094 5.340 M11.740 8.266 C 10.415 8.385,9.327 9.085,8.719 10.212 C 8.400 10.803,8.271 11.320,8.271 12.000 C 8.271 12.682,8.400 13.197,8.721 13.792 C 9.078 14.453,9.549 14.923,10.212 15.281 C 10.803 15.600,11.320 15.729,12.000 15.729 C 12.680 15.729,13.197 15.600,13.788 15.281 C 14.451 14.923,14.922 14.453,15.279 13.792 C 15.600 13.197,15.729 12.682,15.729 12.000 C 15.729 11.320,15.600 10.803,15.281 10.212 C 14.832 9.381,14.122 8.779,13.215 8.463 C 12.793 8.316,12.149 8.230,11.740 8.266 M12.578 9.821 C 12.949 9.918,13.274 10.112,13.581 10.419 C 14.041 10.879,14.240 11.356,14.240 12.000 C 14.240 12.644,14.041 13.121,13.581 13.581 C 13.121 14.041,12.644 14.240,12.000 14.240 C 11.356 14.240,10.879 14.041,10.419 13.581 C 9.959 13.121,9.760 12.644,9.760 12.000 C 9.760 11.356,9.959 10.879,10.419 10.419 C 10.719 10.118,11.050 9.919,11.404 9.823 C 11.692 9.746,12.285 9.745,12.578 9.821 " stroke="none" fill-rule="evenodd" fill="black"></path></svg>