<svg width="24" height="24" viewBox="0 0 24 24" fill="none" xmlns="http://www.w3.org/2000/svg"><path d="M10.920 1.326 C 7.803 1.646,4.994 3.300,3.184 5.880 C 1.130 8.808,0.681 12.640,2.003 15.968 C 3.480 19.690,6.842 22.238,10.835 22.661 C 14.100 23.008,17.299 21.901,19.562 19.641 C 20.481 18.723,21.057 17.922,21.620 16.780 C 22.461 15.072,22.793 13.464,22.715 11.480 C 22.610 8.842,21.493 6.322,19.583 4.418 C 17.800 2.640,15.532 1.572,13.006 1.321 C 12.522 1.273,11.408 1.275,10.920 1.326 M12.970 2.819 C 14.071 2.936,15.039 3.218,16.060 3.718 C 18.900 5.110,20.783 7.756,21.182 10.920 C 21.269 11.609,21.242 12.873,21.125 13.540 C 20.424 17.554,17.371 20.536,13.340 21.144 C 12.677 21.244,11.322 21.245,10.680 21.146 C 7.984 20.729,5.770 19.343,4.310 17.156 C 3.463 15.887,2.966 14.526,2.797 13.005 C 2.720 12.319,2.768 11.014,2.895 10.354 C 3.263 8.425,4.105 6.843,5.497 5.460 C 6.306 4.657,6.992 4.172,8.020 3.676 C 9.566 2.930,11.258 2.638,12.970 2.819 M7.952 15.357 C 7.541 15.489,7.326 15.969,7.494 16.373 C 7.611 16.652,8.405 17.265,9.118 17.627 C 11.365 18.767,14.151 18.454,16.080 16.844 C 16.455 16.531,16.571 16.347,16.571 16.066 C 16.571 15.742,16.415 15.509,16.111 15.382 C 15.809 15.256,15.558 15.326,15.201 15.635 C 13.686 16.949,11.499 17.189,9.688 16.241 C 9.402 16.091,9.230 15.971,8.667 15.529 C 8.495 15.393,8.408 15.354,8.255 15.340 C 8.148 15.330,8.011 15.338,7.952 15.357 " stroke="none" fill-rule="evenodd" fill="black"></path></svg>