<svg width="24" height="24" viewBox="0 0 24 24" fill="none" xmlns="http://www.w3.org/2000/svg"><path d="M13.545 1.941 C 12.587 2.123,11.932 2.682,11.577 3.624 C 11.309 4.332,11.241 5.046,11.241 7.140 C 11.241 9.399,11.315 10.043,11.672 10.860 C 12.097 11.832,12.902 12.442,14.053 12.664 C 14.310 12.714,14.777 12.732,16.220 12.748 C 18.810 12.777,19.595 12.715,20.395 12.417 C 20.737 12.290,21.197 11.998,21.406 11.775 C 22.159 10.974,22.305 9.737,21.861 7.930 C 21.449 6.253,20.576 4.864,19.220 3.727 C 18.122 2.807,16.906 2.258,15.340 1.978 C 14.826 1.885,13.937 1.867,13.545 1.941 M8.600 3.400 C 7.917 3.585,7.375 3.787,6.780 4.080 C 4.139 5.378,2.229 7.746,1.537 10.580 C 0.981 12.860,1.254 15.261,2.307 17.331 C 3.548 19.772,5.713 21.578,8.305 22.335 C 9.236 22.608,10.050 22.719,11.108 22.720 C 12.242 22.720,13.115 22.583,14.160 22.241 C 17.357 21.194,19.781 18.594,20.624 15.308 C 20.790 14.661,20.762 14.406,20.494 14.153 C 20.191 13.866,19.708 13.906,19.426 14.240 C 19.323 14.363,19.307 14.406,19.177 14.940 C 18.614 17.254,16.927 19.329,14.736 20.403 C 12.804 21.350,10.524 21.501,8.460 20.819 C 7.235 20.414,6.164 19.756,5.241 18.840 C 4.534 18.139,4.073 17.514,3.656 16.694 C 3.031 15.464,2.760 14.314,2.760 12.892 C 2.760 10.599,3.667 8.482,5.330 6.897 C 6.411 5.867,7.615 5.201,9.089 4.819 C 9.662 4.671,9.797 4.594,9.917 4.347 C 10.168 3.828,9.812 3.275,9.232 3.283 C 9.115 3.285,8.831 3.337,8.600 3.400 M14.945 3.419 C 16.133 3.612,17.120 4.009,17.960 4.631 C 18.345 4.916,19.084 5.655,19.369 6.040 C 19.875 6.723,20.219 7.472,20.435 8.360 C 20.669 9.326,20.697 10.020,20.517 10.439 C 20.408 10.693,20.146 10.930,19.854 11.039 C 19.363 11.223,19.091 11.240,16.721 11.240 C 14.632 11.240,14.473 11.235,14.183 11.161 C 13.446 10.972,13.106 10.617,12.868 9.785 C 12.791 9.517,12.785 9.369,12.771 7.292 C 12.754 4.928,12.770 4.656,12.960 4.150 C 13.108 3.753,13.421 3.479,13.814 3.402 C 14.082 3.349,14.553 3.356,14.945 3.419 " stroke="none" fill-rule="evenodd" fill="black"></path></svg>