<svg width="24" height="24" viewBox="0 0 24 24" fill="none" xmlns="http://www.w3.org/2000/svg"><path d="M7.860 1.284 C 7.706 1.302,7.391 1.337,7.160 1.363 C 5.921 1.501,4.709 1.907,3.880 2.461 C 2.498 3.384,1.676 4.875,1.383 6.991 C 1.270 7.803,1.242 8.816,1.242 12.000 C 1.242 16.504,1.302 17.273,1.760 18.650 C 2.532 20.963,4.206 22.226,7.027 22.622 C 7.807 22.731,8.931 22.760,12.320 22.759 C 15.819 22.757,16.258 22.741,17.280 22.576 C 20.464 22.062,22.157 20.285,22.622 16.973 C 22.728 16.214,22.759 15.098,22.759 12.000 C 22.759 8.902,22.728 7.786,22.622 7.027 C 22.359 5.157,21.686 3.741,20.641 2.857 C 19.478 1.875,18.015 1.397,15.806 1.279 C 14.937 1.233,8.273 1.237,7.860 1.284 M15.000 7.000 L 15.000 11.240 12.000 11.240 L 9.000 11.240 9.000 7.000 L 9.000 2.760 12.000 2.760 L 15.000 2.760 15.000 7.000 M7.520 7.040 L 7.520 11.240 5.136 11.240 L 2.752 11.240 2.771 9.430 C 2.785 8.001,2.803 7.532,2.856 7.200 C 3.196 5.066,3.959 3.934,5.480 3.308 C 6.025 3.084,6.961 2.854,7.370 2.844 L 7.520 2.840 7.520 7.040 M17.369 2.964 C 19.404 3.385,20.482 4.391,20.960 6.312 C 21.190 7.236,21.210 7.467,21.229 9.430 L 21.248 11.240 18.864 11.240 L 16.480 11.240 16.480 7.034 L 16.480 2.829 16.719 2.854 C 16.850 2.867,17.142 2.917,17.369 2.964 M7.520 16.966 L 7.520 21.171 7.281 21.146 C 7.150 21.133,6.858 21.083,6.631 21.036 C 4.586 20.613,3.497 19.587,3.025 17.640 C 2.811 16.759,2.790 16.508,2.771 14.570 L 2.752 12.760 5.136 12.760 L 7.520 12.760 7.520 16.966 M15.000 17.000 L 15.000 21.240 12.000 21.240 L 9.000 21.240 9.000 17.000 L 9.000 12.760 12.000 12.760 L 15.000 12.760 15.000 17.000 M21.229 14.570 C 21.210 16.533,21.190 16.764,20.960 17.688 C 20.482 19.609,19.404 20.615,17.369 21.036 C 17.142 21.083,16.850 21.133,16.719 21.146 L 16.480 21.171 16.480 16.966 L 16.480 12.760 18.864 12.760 L 21.248 12.760 21.229 14.570 " stroke="none" fill-rule="evenodd" fill="black"></path></svg>