<svg width="24" height="24" viewBox="0 0 24 24" fill="none" xmlns="http://www.w3.org/2000/svg"><path d="M7.940 1.284 C 4.914 1.508,3.114 2.500,2.105 4.501 C 1.630 5.444,1.366 6.611,1.281 8.151 C 1.230 9.071,1.230 14.929,1.281 15.849 C 1.402 18.026,1.882 19.487,2.857 20.641 C 3.753 21.702,5.270 22.408,7.140 22.637 C 7.986 22.740,8.763 22.760,12.000 22.760 C 15.237 22.760,16.014 22.740,16.860 22.637 C 18.724 22.409,20.228 21.711,21.129 20.656 C 22.085 19.535,22.551 18.167,22.720 15.984 C 22.772 15.310,22.772 8.690,22.720 8.016 C 22.632 6.874,22.495 6.114,22.244 5.362 C 21.632 3.530,20.471 2.368,18.650 1.760 C 17.855 1.496,17.123 1.364,15.980 1.281 C 15.320 1.233,8.594 1.235,7.940 1.284 M14.760 5.260 L 14.760 7.761 12.010 7.750 L 9.260 7.740 9.250 5.250 L 9.239 2.760 12.000 2.760 L 14.760 2.760 14.760 5.260 M7.760 5.280 L 7.760 7.760 5.275 7.760 L 2.791 7.760 2.818 7.530 C 3.129 4.869,4.158 3.561,6.360 3.024 C 6.770 2.925,7.429 2.812,7.650 2.804 L 7.760 2.800 7.760 5.280 M16.795 2.862 C 19.217 3.214,20.441 4.229,20.960 6.312 C 21.063 6.726,21.200 7.516,21.200 7.695 C 21.200 7.755,20.990 7.760,18.730 7.750 L 16.260 7.740 16.250 5.270 C 16.240 3.010,16.245 2.800,16.305 2.800 C 16.340 2.800,16.561 2.828,16.795 2.862 M7.760 12.000 L 7.760 14.760 5.260 14.760 L 2.760 14.760 2.760 12.000 L 2.760 9.240 5.260 9.240 L 7.760 9.240 7.760 12.000 M14.760 12.000 L 14.760 14.761 12.010 14.750 L 9.260 14.740 9.250 12.040 C 9.244 10.555,9.248 9.318,9.258 9.290 C 9.273 9.251,9.863 9.240,12.019 9.240 L 14.760 9.240 14.760 12.000 M21.240 12.000 L 21.240 14.761 18.750 14.750 L 16.260 14.740 16.250 12.040 C 16.244 10.555,16.248 9.318,16.258 9.290 C 16.273 9.251,16.811 9.240,18.759 9.240 L 21.240 9.240 21.240 12.000 M7.760 18.720 C 7.760 20.980,7.754 21.200,7.695 21.200 C 7.516 21.200,6.726 21.063,6.312 20.960 C 4.143 20.420,3.128 19.116,2.818 16.470 L 2.791 16.240 5.275 16.240 L 7.760 16.240 7.760 18.720 M14.760 18.740 L 14.760 21.240 12.000 21.240 L 9.240 21.240 9.240 18.767 C 9.240 17.406,9.252 16.281,9.267 16.267 C 9.281 16.252,10.523 16.240,12.027 16.240 L 14.760 16.240 14.760 18.740 M21.200 16.305 C 21.200 16.484,21.063 17.274,20.960 17.688 C 20.504 19.519,19.519 20.504,17.688 20.960 C 17.274 21.063,16.484 21.200,16.305 21.200 C 16.246 21.200,16.240 20.983,16.240 18.747 C 16.240 17.397,16.252 16.281,16.267 16.267 C 16.281 16.252,17.397 16.240,18.747 16.240 C 20.983 16.240,21.200 16.246,21.200 16.305 " stroke="none" fill-rule="evenodd" fill="black"></path></svg>