<svg width="24" height="24" viewBox="0 0 24 24" fill="none" xmlns="http://www.w3.org/2000/svg"><path d="M8.080 1.282 C 4.008 1.495,1.895 3.296,1.383 6.991 C 1.270 7.803,1.242 8.816,1.242 12.000 C 1.242 16.504,1.302 17.273,1.760 18.650 C 2.532 20.963,4.206 22.226,7.027 22.622 C 7.786 22.728,8.902 22.759,12.000 22.759 C 15.098 22.759,16.214 22.728,16.973 22.622 C 19.443 22.275,20.996 21.288,21.897 19.490 C 22.379 18.530,22.638 17.369,22.720 15.807 C 22.771 14.838,22.771 9.162,22.720 8.193 C 22.657 6.998,22.521 6.191,22.242 5.356 C 21.632 3.531,20.469 2.367,18.650 1.760 C 17.788 1.473,17.023 1.344,15.806 1.280 C 14.952 1.235,8.952 1.237,8.080 1.282 M9.240 12.006 L 9.240 21.252 8.430 21.228 C 7.538 21.201,7.019 21.136,6.312 20.960 C 4.223 20.440,3.236 19.246,2.854 16.780 C 2.785 16.335,2.780 15.989,2.780 12.000 C 2.780 8.011,2.785 7.665,2.854 7.220 C 3.185 5.081,3.952 3.938,5.480 3.308 C 6.334 2.955,7.371 2.777,8.630 2.765 L 9.240 2.760 9.240 12.006 M16.800 2.855 C 19.567 3.308,20.701 4.443,21.144 7.200 C 21.197 7.533,21.215 7.993,21.229 9.430 L 21.248 11.240 16.004 11.240 L 10.760 11.240 10.760 6.997 L 10.760 2.755 13.570 2.770 C 15.987 2.784,16.439 2.796,16.800 2.855 M21.229 14.570 C 21.210 16.533,21.190 16.764,20.960 17.688 C 20.504 19.519,19.519 20.504,17.688 20.960 C 16.684 21.209,16.639 21.212,13.570 21.230 L 10.760 21.245 10.760 17.003 L 10.760 12.760 16.004 12.760 L 21.248 12.760 21.229 14.570 " stroke="none" fill-rule="evenodd" fill="black"></path></svg>