<svg width="24" height="24" viewBox="0 0 24 24" fill="none" xmlns="http://www.w3.org/2000/svg"><path d="M8.080 1.282 C 4.008 1.495,1.895 3.296,1.383 6.991 C 1.270 7.803,1.242 8.816,1.242 12.000 C 1.242 16.504,1.302 17.273,1.760 18.650 C 2.532 20.963,4.206 22.226,7.027 22.622 C 7.786 22.728,8.902 22.759,12.000 22.759 C 15.098 22.759,16.214 22.728,16.973 22.622 C 19.443 22.275,20.996 21.288,21.897 19.490 C 22.379 18.530,22.638 17.369,22.720 15.807 C 22.771 14.838,22.771 9.162,22.720 8.193 C 22.657 6.998,22.521 6.191,22.242 5.356 C 21.632 3.531,20.469 2.367,18.650 1.760 C 17.788 1.473,17.023 1.344,15.806 1.280 C 14.952 1.235,8.952 1.237,8.080 1.282 M16.800 2.854 C 19.285 3.266,20.441 4.228,20.960 6.312 C 21.136 7.019,21.201 7.538,21.228 8.430 L 21.252 9.240 12.000 9.240 L 2.748 9.240 2.771 8.450 C 2.841 5.953,3.525 4.392,4.900 3.588 C 5.576 3.193,6.572 2.912,7.680 2.802 C 7.867 2.784,9.901 2.772,12.200 2.777 C 15.963 2.784,16.422 2.791,16.800 2.854 M11.240 16.004 L 11.240 21.248 9.430 21.229 C 7.993 21.215,7.533 21.197,7.200 21.144 C 4.443 20.701,3.304 19.562,2.854 16.800 C 2.796 16.440,2.784 15.977,2.770 13.570 L 2.755 10.760 6.997 10.760 L 11.240 10.760 11.240 16.004 M21.230 13.570 C 21.212 16.639,21.209 16.684,20.960 17.688 C 20.504 19.519,19.519 20.504,17.688 20.960 C 16.764 21.190,16.533 21.210,14.570 21.229 L 12.760 21.248 12.760 16.004 L 12.760 10.760 17.003 10.760 L 21.245 10.760 21.230 13.570 " stroke="none" fill-rule="evenodd" fill="black"></path></svg>