<svg width="24" height="24" viewBox="0 0 24 24" fill="none" xmlns="http://www.w3.org/2000/svg"><path d="M8.080 1.282 C 4.008 1.495,1.895 3.296,1.383 6.991 C 1.270 7.803,1.242 8.816,1.242 12.000 C 1.242 16.504,1.302 17.273,1.760 18.650 C 2.532 20.963,4.206 22.226,7.027 22.622 C 7.786 22.728,8.902 22.759,12.000 22.759 C 15.098 22.759,16.214 22.728,16.973 22.622 C 19.443 22.275,20.996 21.288,21.897 19.490 C 22.379 18.530,22.638 17.369,22.720 15.807 C 22.771 14.838,22.771 9.162,22.720 8.193 C 22.657 6.998,22.521 6.191,22.242 5.356 C 21.632 3.531,20.469 2.367,18.650 1.760 C 17.788 1.473,17.023 1.344,15.806 1.280 C 14.952 1.235,8.952 1.237,8.080 1.282 M11.240 5.760 L 11.240 8.760 6.994 8.760 L 2.748 8.760 2.773 8.203 C 2.833 6.874,3.126 5.690,3.589 4.900 C 4.220 3.822,5.309 3.176,6.960 2.900 C 7.620 2.789,7.980 2.771,9.630 2.765 L 11.240 2.760 11.240 5.760 M16.800 2.856 C 19.557 3.299,20.690 4.432,21.145 7.200 C 21.205 7.565,21.216 8.021,21.230 10.690 L 21.245 13.760 17.002 13.760 L 12.760 13.760 12.760 8.256 L 12.760 2.752 14.570 2.771 C 16.007 2.785,16.467 2.803,16.800 2.856 M11.240 15.744 L 11.240 21.248 9.430 21.229 C 7.993 21.215,7.533 21.197,7.200 21.144 C 4.443 20.701,3.305 19.563,2.854 16.800 C 2.795 16.436,2.784 15.969,2.770 13.310 L 2.755 10.240 6.998 10.240 L 11.240 10.240 11.240 15.744 M21.227 15.800 C 21.196 16.487,21.113 17.074,20.960 17.688 C 20.504 19.519,19.519 20.504,17.688 20.960 C 16.764 21.190,16.533 21.210,14.570 21.229 L 12.760 21.248 12.760 18.244 L 12.760 15.240 17.006 15.240 L 21.252 15.240 21.227 15.800 " stroke="none" fill-rule="evenodd" fill="black"></path></svg>