<svg width="24" height="24" viewBox="0 0 24 24" fill="none" xmlns="http://www.w3.org/2000/svg"><path d="M18.720 3.325 C 18.458 3.429,18.269 3.720,18.269 4.020 C 18.269 4.298,18.349 4.432,18.788 4.885 L 19.167 5.275 17.474 5.289 L 15.780 5.302 15.440 5.414 C 14.820 5.620,14.286 5.963,13.885 6.417 C 13.766 6.551,12.179 8.894,10.358 11.624 C 6.859 16.870,6.915 16.792,6.456 17.017 C 6.027 17.227,5.901 17.240,4.314 17.240 C 3.374 17.240,2.805 17.255,2.733 17.283 C 2.460 17.385,2.269 17.673,2.269 17.980 C 2.269 18.287,2.460 18.575,2.733 18.677 C 2.917 18.747,5.888 18.734,6.229 18.662 C 6.885 18.524,7.508 18.199,7.958 17.760 C 8.250 17.476,8.622 16.931,12.670 10.856 C 14.120 8.680,14.983 7.422,15.114 7.294 C 15.329 7.082,15.655 6.901,15.980 6.814 C 16.138 6.772,16.711 6.760,18.688 6.762 C 21.125 6.763,21.201 6.761,21.355 6.683 C 21.752 6.480,21.879 5.974,21.624 5.606 C 21.437 5.336,19.462 3.405,19.307 3.340 C 19.144 3.272,18.870 3.265,18.720 3.325 M3.500 5.278 C 2.808 5.298,2.727 5.308,2.598 5.388 C 2.211 5.629,2.152 6.236,2.487 6.548 C 2.707 6.754,2.763 6.760,4.420 6.760 C 5.877 6.760,5.976 6.765,6.210 6.843 C 6.757 7.028,6.996 7.256,7.740 8.300 C 8.358 9.168,8.378 9.191,8.580 9.284 C 9.132 9.539,9.722 9.082,9.620 8.478 C 9.600 8.359,9.432 8.095,8.953 7.429 C 8.109 6.255,7.788 5.934,7.140 5.609 C 6.431 5.255,5.929 5.209,3.500 5.278 M12.660 14.706 C 12.368 14.860,12.240 15.068,12.240 15.389 C 12.240 15.496,12.271 15.639,12.310 15.711 C 12.420 15.914,13.677 17.515,13.908 17.746 C 14.452 18.290,15.198 18.635,16.011 18.720 C 16.274 18.747,16.913 18.753,17.800 18.735 L 19.180 18.709 18.795 19.107 C 18.348 19.569,18.269 19.702,18.269 19.980 C 18.269 20.522,18.802 20.871,19.307 20.660 C 19.507 20.576,21.573 18.521,21.680 18.299 C 21.845 17.958,21.730 17.561,21.406 17.355 L 21.224 17.240 18.642 17.239 C 17.047 17.238,15.993 17.223,15.884 17.198 C 15.648 17.143,15.328 16.988,15.112 16.823 C 15.013 16.748,14.606 16.266,14.199 15.743 C 13.608 14.984,13.432 14.784,13.300 14.720 C 13.103 14.625,12.826 14.619,12.660 14.706 " stroke="none" fill-rule="evenodd" fill="black"></path></svg>