<svg width="24" height="24" viewBox="0 0 24 24" fill="none" xmlns="http://www.w3.org/2000/svg"><path d="M8.125 1.229 C 8.072 1.239,7.943 1.333,7.838 1.438 C 7.682 1.594,7.641 1.665,7.618 1.819 C 7.567 2.158,7.637 2.288,8.153 2.811 L 8.617 3.281 5.476 6.431 C 3.748 8.163,2.252 9.679,2.152 9.800 C 1.745 10.291,1.468 10.804,1.338 11.304 C 1.245 11.668,1.244 12.287,1.337 12.660 C 1.429 13.028,1.705 13.591,1.965 13.940 C 2.079 14.094,3.218 15.266,4.496 16.544 C 6.633 18.681,6.855 18.891,7.251 19.151 C 7.967 19.620,8.610 19.791,9.353 19.712 C 10.067 19.636,10.725 19.283,11.520 18.552 C 12.315 17.820,17.665 12.429,17.779 12.244 C 18.130 11.678,18.130 10.963,17.780 10.396 C 17.612 10.125,8.855 1.368,8.660 1.277 C 8.507 1.205,8.333 1.190,8.125 1.229 M12.777 7.477 L 15.853 10.553 15.676 10.575 C 15.519 10.594,3.355 11.124,3.129 11.121 C 3.047 11.120,3.042 11.110,3.083 11.030 C 3.127 10.943,9.637 4.400,9.680 4.400 C 9.691 4.400,11.085 5.784,12.777 7.477 M12.940 14.995 C 10.083 17.847,10.013 17.913,9.702 18.065 C 9.404 18.210,9.362 18.220,9.020 18.220 C 8.681 18.220,8.635 18.210,8.356 18.072 C 8.192 17.991,7.923 17.808,7.758 17.667 C 7.594 17.525,6.505 16.449,5.337 15.275 C 3.393 13.319,2.855 12.732,2.936 12.651 C 2.961 12.626,14.756 12.093,15.460 12.085 L 15.860 12.081 12.940 14.995 M18.691 14.279 C 18.430 14.341,18.341 14.421,17.808 15.080 C 17.163 15.876,16.611 16.800,16.401 17.433 C 16.224 17.967,16.222 18.592,16.397 19.093 C 16.664 19.861,17.344 20.506,18.140 20.745 C 18.507 20.855,19.210 20.846,19.600 20.726 C 20.742 20.373,21.489 19.317,21.429 18.140 C 21.384 17.258,20.728 16.030,19.610 14.737 C 19.243 14.312,19.020 14.201,18.691 14.279 M19.128 16.543 C 19.428 16.959,19.701 17.421,19.831 17.730 C 20.163 18.522,19.678 19.323,18.863 19.327 C 18.418 19.330,18.044 19.097,17.855 18.700 C 17.620 18.202,17.808 17.628,18.553 16.569 C 18.696 16.365,18.833 16.204,18.857 16.212 C 18.881 16.219,19.003 16.368,19.128 16.543 M2.815 21.278 C 2.331 21.393,2.098 22.004,2.383 22.408 C 2.448 22.499,2.572 22.610,2.660 22.656 L 2.820 22.740 9.380 22.751 C 14.056 22.758,16.001 22.749,16.154 22.717 C 16.902 22.562,16.929 21.473,16.189 21.286 C 15.979 21.233,3.035 21.225,2.815 21.278 " stroke="none" fill-rule="evenodd" fill="black"></path></svg>