<svg width="24" height="24" viewBox="0 0 24 24" fill="none" xmlns="http://www.w3.org/2000/svg"><path d="M11.320 1.281 C 7.041 1.525,3.252 4.409,1.843 8.497 C 1.180 10.418,1.082 12.560,1.564 14.550 C 2.505 18.428,5.572 21.495,9.450 22.436 C 11.106 22.837,12.894 22.837,14.550 22.436 C 18.428 21.495,21.495 18.428,22.436 14.550 C 22.837 12.894,22.837 11.106,22.436 9.450 C 21.425 5.282,17.985 2.095,13.742 1.398 C 13.334 1.331,12.074 1.229,11.880 1.247 C 11.847 1.250,11.595 1.265,11.320 1.281 M13.146 2.822 C 14.201 2.960,15.125 3.237,16.060 3.696 C 18.877 5.079,20.768 7.722,21.178 10.854 C 21.301 11.786,21.244 13.026,21.034 13.998 C 20.745 15.343,20.003 16.855,19.121 17.900 C 18.247 18.935,17.240 19.726,16.060 20.304 C 14.761 20.940,13.462 21.240,12.000 21.240 C 10.538 21.240,9.236 20.940,7.940 20.304 C 5.123 18.921,3.232 16.278,2.822 13.146 C 2.699 12.214,2.756 10.974,2.966 10.002 C 3.177 9.020,3.703 7.775,4.268 6.920 C 5.750 4.677,8.131 3.188,10.820 2.823 C 11.380 2.746,12.569 2.746,13.146 2.822 M8.511 7.222 C 8.171 7.305,7.892 7.462,7.616 7.727 C 6.801 8.510,6.801 9.770,7.616 10.553 C 7.898 10.824,8.170 10.975,8.529 11.060 C 9.215 11.221,9.900 11.017,10.393 10.504 C 10.664 10.222,10.815 9.950,10.900 9.591 C 11.057 8.924,10.877 8.280,10.393 7.776 C 9.900 7.262,9.198 7.056,8.511 7.222 M14.780 8.066 C 14.604 8.157,8.009 14.752,7.917 14.928 C 7.770 15.210,7.835 15.592,8.065 15.807 C 8.286 16.014,8.643 16.063,8.912 15.923 C 9.096 15.826,15.688 9.229,15.776 9.052 C 15.849 8.905,15.860 8.617,15.797 8.453 C 15.740 8.299,15.567 8.122,15.411 8.055 C 15.242 7.982,14.930 7.988,14.780 8.066 M9.240 8.754 C 9.295 8.793,9.373 8.891,9.413 8.972 C 9.474 9.094,9.479 9.143,9.442 9.254 C 9.388 9.417,9.260 9.543,9.089 9.603 C 8.984 9.640,8.936 9.634,8.813 9.574 C 8.407 9.372,8.402 8.916,8.803 8.709 C 8.954 8.631,9.084 8.644,9.240 8.754 M15.100 12.927 C 14.549 13.032,14.011 13.461,13.740 14.010 C 13.603 14.290,13.586 14.358,13.569 14.715 C 13.537 15.379,13.702 15.825,14.139 16.260 C 14.909 17.025,16.132 17.025,16.900 16.260 C 17.306 15.856,17.479 15.437,17.479 14.860 C 17.479 14.283,17.306 13.864,16.900 13.460 C 16.425 12.986,15.784 12.797,15.100 12.927 M15.772 14.448 C 15.879 14.503,16.000 14.723,16.000 14.864 C 16.000 15.043,15.845 15.251,15.669 15.309 C 15.463 15.377,15.253 15.305,15.131 15.124 C 14.848 14.703,15.313 14.212,15.772 14.448 " stroke="none" fill-rule="evenodd" fill="black"></path></svg>