<svg width="24" height="24" viewBox="0 0 24 24" fill="none" xmlns="http://www.w3.org/2000/svg"><path d="M11.340 1.482 C 10.809 1.564,10.199 1.810,9.786 2.106 C 9.343 2.425,2.604 7.843,2.397 8.047 C 1.901 8.538,1.480 9.369,1.317 10.180 C 1.195 10.787,1.224 11.027,1.917 15.160 C 2.682 19.719,2.677 19.690,2.838 20.110 C 3.256 21.194,4.337 22.137,5.520 22.450 L 5.860 22.540 12.000 22.540 L 18.140 22.540 18.480 22.450 C 19.655 22.137,20.749 21.180,21.164 20.102 C 21.322 19.693,21.317 19.724,22.081 15.160 C 22.847 10.587,22.842 10.648,22.540 9.680 C 22.314 8.956,21.957 8.373,21.460 7.916 C 21.194 7.671,14.489 2.312,14.172 2.090 C 13.839 1.857,13.396 1.658,12.993 1.558 C 12.608 1.464,11.720 1.422,11.340 1.482 M12.674 3.025 C 12.795 3.057,13.000 3.140,13.131 3.209 C 13.382 3.343,20.294 8.848,20.578 9.141 C 20.921 9.493,21.196 10.170,21.227 10.740 C 21.245 11.070,21.190 11.442,20.563 15.190 C 20.165 17.567,19.846 19.368,19.800 19.492 C 19.631 19.943,19.280 20.370,18.843 20.655 C 18.482 20.891,18.217 20.994,17.851 21.043 C 17.647 21.069,15.559 21.080,11.780 21.072 L 6.020 21.060 5.760 20.967 C 5.041 20.709,4.445 20.146,4.202 19.496 C 4.154 19.367,3.843 17.619,3.437 15.190 C 2.801 11.388,2.754 11.073,2.772 10.720 C 2.804 10.092,3.063 9.497,3.480 9.093 C 3.623 8.954,5.303 7.590,7.212 6.062 C 9.674 4.093,10.757 3.250,10.932 3.167 C 11.442 2.926,12.091 2.873,12.674 3.025 M11.405 9.805 C 10.790 9.907,10.216 10.217,9.716 10.716 C 9.065 11.368,8.761 12.095,8.761 13.000 C 8.761 13.905,9.065 14.632,9.716 15.284 C 10.368 15.935,11.095 16.239,12.000 16.239 C 12.905 16.239,13.632 15.935,14.284 15.284 C 14.935 14.632,15.239 13.905,15.239 13.000 C 15.239 12.095,14.935 11.368,14.284 10.716 C 13.619 10.052,12.889 9.753,11.960 9.765 C 11.773 9.767,11.523 9.785,11.405 9.805 M12.293 11.279 C 12.634 11.335,12.931 11.487,13.202 11.745 C 13.929 12.439,13.929 13.561,13.202 14.255 C 12.511 14.914,11.489 14.914,10.798 14.255 C 10.090 13.580,10.068 12.508,10.745 11.798 C 11.164 11.359,11.696 11.181,12.293 11.279 " stroke="none" fill-rule="evenodd" fill="black"></path></svg>