<svg width="24" height="24" viewBox="0 0 24 24" fill="none" xmlns="http://www.w3.org/2000/svg"><path d="M8.760 1.280 C 7.947 1.380,7.142 1.749,6.491 2.322 C 6.298 2.491,5.248 3.528,4.157 4.625 C 1.935 6.861,1.829 6.990,1.505 7.851 C 1.255 8.515,1.260 8.428,1.260 12.000 C 1.260 15.572,1.255 15.485,1.505 16.149 C 1.829 17.010,1.935 17.139,4.157 19.375 C 5.248 20.472,6.298 21.509,6.491 21.678 C 7.030 22.152,7.632 22.466,8.360 22.653 C 8.696 22.739,8.739 22.740,12.000 22.740 C 15.261 22.740,15.304 22.739,15.640 22.653 C 16.368 22.466,16.970 22.152,17.509 21.678 C 17.702 21.509,18.752 20.472,19.843 19.375 C 22.065 17.139,22.171 17.010,22.495 16.149 C 22.745 15.485,22.740 15.572,22.740 12.000 C 22.740 8.428,22.745 8.515,22.495 7.851 C 22.171 6.990,22.065 6.861,19.843 4.625 C 18.752 3.528,17.702 2.491,17.509 2.322 C 16.979 1.855,16.380 1.541,15.660 1.350 C 15.348 1.267,15.260 1.265,12.180 1.257 C 10.442 1.252,8.903 1.263,8.760 1.280 M15.500 2.854 C 16.158 3.096,16.046 2.999,18.523 5.477 C 20.620 7.574,20.838 7.803,20.950 8.040 C 21.238 8.647,21.220 8.381,21.220 12.000 C 21.220 15.619,21.238 15.353,20.950 15.960 C 20.838 16.197,20.620 16.426,18.523 18.523 C 16.426 20.620,16.197 20.838,15.960 20.950 C 15.353 21.238,15.619 21.220,12.000 21.220 C 8.381 21.220,8.647 21.238,8.040 20.950 C 7.803 20.838,7.574 20.620,5.477 18.523 C 3.380 16.426,3.162 16.197,3.050 15.960 C 2.762 15.353,2.780 15.619,2.780 12.000 C 2.780 8.381,2.762 8.646,3.050 8.040 C 3.162 7.805,3.385 7.568,5.397 5.546 C 6.620 4.317,7.713 3.250,7.827 3.176 C 8.045 3.034,8.339 2.905,8.640 2.818 C 8.782 2.777,9.511 2.768,12.060 2.773 C 15.100 2.780,15.312 2.785,15.500 2.854 M8.180 7.835 C 7.990 7.923,7.904 8.012,7.822 8.210 C 7.743 8.397,7.743 8.602,7.821 8.791 C 7.863 8.892,8.373 9.430,9.411 10.470 L 10.940 12.000 9.411 13.530 C 7.833 15.110,7.759 15.198,7.761 15.509 C 7.762 15.682,7.873 15.948,7.986 16.048 C 8.193 16.232,8.529 16.287,8.791 16.179 C 8.892 16.137,9.430 15.627,10.470 14.589 L 12.000 13.060 13.530 14.589 C 15.110 16.167,15.198 16.241,15.509 16.239 C 15.682 16.238,15.948 16.127,16.048 16.014 C 16.232 15.807,16.287 15.471,16.179 15.209 C 16.137 15.108,15.627 14.570,14.589 13.530 L 13.060 12.000 14.589 10.470 C 15.627 9.430,16.137 8.892,16.179 8.791 C 16.287 8.529,16.232 8.193,16.048 7.986 C 15.948 7.873,15.682 7.762,15.509 7.761 C 15.198 7.759,15.110 7.833,13.530 9.411 L 12.000 10.940 10.470 9.411 C 9.430 8.373,8.892 7.863,8.791 7.821 C 8.595 7.740,8.376 7.745,8.180 7.835 " stroke="none" fill-rule="evenodd" fill="black"></path></svg>