<svg width="24" height="24" viewBox="0 0 24 24" fill="none" xmlns="http://www.w3.org/2000/svg"><path d="M5.579 1.280 C 3.502 1.462,1.827 2.951,1.352 5.036 C 1.264 5.420,1.264 5.423,1.250 11.160 C 1.241 14.923,1.251 17.042,1.278 17.312 C 1.331 17.839,1.409 18.139,1.600 18.548 C 1.999 19.403,2.540 19.954,3.380 20.361 C 3.889 20.608,4.130 20.670,4.810 20.729 L 5.359 20.776 5.404 20.918 C 5.581 21.480,6.112 22.091,6.720 22.432 C 7.434 22.832,8.566 22.832,9.280 22.432 C 9.891 22.089,10.418 21.481,10.599 20.910 L 10.646 20.760 12.000 20.760 L 13.354 20.760 13.401 20.910 C 13.582 21.481,14.109 22.089,14.720 22.432 C 15.434 22.832,16.566 22.832,17.280 22.432 C 17.888 22.091,18.419 21.480,18.596 20.918 L 18.641 20.776 19.190 20.729 C 19.870 20.670,20.111 20.608,20.620 20.361 C 21.460 19.954,22.001 19.403,22.400 18.548 C 22.587 18.149,22.667 17.848,22.719 17.355 C 22.775 16.824,22.772 12.025,22.716 11.822 C 22.692 11.735,22.351 11.104,21.959 10.419 C 21.567 9.734,21.167 9.031,21.069 8.857 C 20.516 7.871,19.194 5.585,19.087 5.430 C 18.822 5.044,18.443 4.730,17.989 4.519 C 17.563 4.321,17.320 4.277,16.510 4.251 L 15.760 4.228 15.760 3.136 C 15.760 2.490,15.742 1.960,15.716 1.838 C 15.658 1.570,15.450 1.352,15.189 1.286 C 14.983 1.235,6.162 1.228,5.579 1.280 M14.231 7.550 L 14.220 12.340 14.126 12.520 C 13.997 12.765,13.780 12.986,13.540 13.113 L 13.340 13.220 8.049 13.231 L 2.758 13.241 2.769 9.291 L 2.780 5.340 2.890 5.020 C 3.075 4.481,3.290 4.142,3.716 3.716 C 4.105 3.328,4.417 3.118,4.852 2.951 C 5.340 2.765,5.295 2.767,9.891 2.763 L 14.241 2.760 14.231 7.550 M17.297 5.842 C 17.659 5.978,17.805 6.160,18.428 7.248 L 18.993 8.236 18.806 8.261 C 18.359 8.321,18.041 8.484,17.727 8.816 C 17.484 9.073,17.333 9.373,17.279 9.707 C 17.229 10.010,17.229 12.990,17.279 13.293 C 17.395 14.001,17.996 14.605,18.700 14.720 C 18.832 14.742,19.457 14.760,20.090 14.760 L 21.240 14.760 21.240 16.052 C 21.240 17.478,21.223 17.612,20.990 18.057 C 20.917 18.195,20.741 18.421,20.581 18.581 C 20.119 19.043,19.644 19.240,18.992 19.240 C 18.719 19.240,18.640 19.228,18.640 19.185 C 18.640 19.081,18.323 18.501,18.141 18.270 C 17.653 17.653,16.794 17.240,16.000 17.240 C 15.206 17.240,14.347 17.653,13.859 18.270 C 13.677 18.501,13.360 19.081,13.360 19.185 C 13.360 19.231,13.132 19.240,12.000 19.240 C 10.868 19.240,10.640 19.231,10.640 19.185 C 10.640 19.081,10.323 18.501,10.141 18.270 C 9.653 17.653,8.794 17.240,8.000 17.240 C 7.206 17.240,6.347 17.653,5.859 18.270 C 5.677 18.501,5.360 19.081,5.360 19.185 C 5.360 19.263,4.730 19.259,4.422 19.179 C 3.673 18.984,3.015 18.324,2.820 17.572 C 2.773 17.392,2.760 17.066,2.760 16.052 L 2.760 14.760 8.002 14.760 C 13.855 14.760,13.585 14.772,14.180 14.480 C 14.757 14.197,15.160 13.806,15.457 13.240 C 15.749 12.683,15.735 12.880,15.750 9.130 L 15.763 5.760 16.420 5.760 C 16.986 5.760,17.108 5.771,17.297 5.842 M20.552 10.967 L 21.240 12.174 21.240 12.707 L 21.240 13.240 20.080 13.240 C 18.973 13.240,18.916 13.236,18.840 13.160 C 18.763 13.083,18.760 13.027,18.760 11.500 C 18.760 9.586,18.697 9.760,19.392 9.760 L 19.864 9.760 20.552 10.967 M8.526 18.877 C 8.760 18.998,9.008 19.245,9.121 19.470 C 9.256 19.741,9.274 20.152,9.163 20.445 C 9.050 20.745,8.747 21.049,8.454 21.159 C 7.810 21.400,7.075 21.076,6.837 20.445 C 6.727 20.153,6.744 19.733,6.877 19.474 C 7.036 19.166,7.347 18.895,7.646 18.804 C 7.866 18.736,8.327 18.775,8.526 18.877 M16.526 18.877 C 16.760 18.998,17.008 19.245,17.121 19.470 C 17.256 19.741,17.274 20.152,17.163 20.445 C 17.050 20.745,16.747 21.049,16.454 21.159 C 15.810 21.400,15.075 21.076,14.837 20.445 C 14.727 20.153,14.744 19.733,14.877 19.474 C 15.036 19.166,15.347 18.895,15.646 18.804 C 15.866 18.736,16.327 18.775,16.526 18.877 " stroke="none" fill-rule="evenodd" fill="black"></path></svg>