<svg width="24" height="24" viewBox="0 0 24 24" fill="none" xmlns="http://www.w3.org/2000/svg"><path d="M11.520 1.265 C 9.179 1.381,7.037 2.186,5.222 3.635 C 3.683 4.862,2.406 6.708,1.781 8.608 C 1.400 9.763,1.240 10.769,1.240 12.000 C 1.240 13.231,1.400 14.237,1.781 15.392 C 2.968 19.000,6.008 21.712,9.764 22.516 C 10.723 22.721,12.190 22.792,13.160 22.680 C 17.435 22.189,21.013 19.214,22.253 15.120 C 22.571 14.071,22.697 13.186,22.697 12.000 C 22.697 10.814,22.571 9.929,22.253 8.880 C 21.209 5.435,18.507 2.751,15.024 1.701 C 13.967 1.383,12.598 1.212,11.520 1.265 M13.082 2.817 C 16.549 3.250,19.446 5.544,20.660 8.818 C 21.024 9.801,21.208 10.858,21.210 11.980 C 21.211 13.036,21.073 13.933,20.761 14.881 C 19.624 18.344,16.573 20.806,12.928 21.202 C 12.295 21.270,11.037 21.232,10.440 21.126 C 8.405 20.764,6.697 19.852,5.279 18.372 C 1.870 14.814,1.867 9.188,5.272 5.635 C 6.452 4.403,7.833 3.562,9.429 3.103 C 9.859 2.979,10.663 2.824,11.060 2.788 C 11.494 2.749,12.667 2.765,13.082 2.817 M7.031 15.279 C 6.679 15.388,6.480 15.652,6.480 16.012 C 6.480 16.212,6.500 16.263,6.689 16.547 C 7.111 17.182,8.034 17.994,8.830 18.430 C 10.306 19.238,12.055 19.451,13.688 19.023 C 15.170 18.634,16.557 17.665,17.376 16.446 C 17.498 16.264,17.520 16.199,17.520 16.009 C 17.520 15.576,17.203 15.260,16.773 15.266 C 16.510 15.270,16.351 15.362,16.128 15.642 C 15.764 16.097,15.550 16.323,15.263 16.558 C 14.670 17.042,13.950 17.416,13.287 17.584 C 11.286 18.092,9.268 17.401,7.968 15.762 C 7.821 15.576,7.646 15.393,7.580 15.356 C 7.429 15.270,7.174 15.235,7.031 15.279 " stroke="none" fill-rule="evenodd" fill="black"></path></svg>