<svg width="24" height="24" viewBox="0 0 24 24" fill="none" xmlns="http://www.w3.org/2000/svg"><path d="M9.815 2.277 C 9.643 2.320,9.462 2.455,9.363 2.616 C 9.291 2.732,9.239 3.109,8.980 5.442 C 8.815 6.923,8.680 8.158,8.680 8.186 C 8.680 8.227,8.149 8.240,5.990 8.249 C 3.033 8.261,3.198 8.247,2.953 8.506 C 2.691 8.783,2.691 9.217,2.953 9.494 C 3.197 9.752,3.044 9.739,5.890 9.751 L 8.480 9.763 8.480 9.855 C 8.480 9.946,8.065 13.740,8.019 14.069 L 7.995 14.237 5.148 14.249 C 2.016 14.261,2.199 14.246,1.953 14.506 C 1.691 14.783,1.691 15.217,1.953 15.494 C 2.198 15.753,2.024 15.739,5.070 15.751 L 7.841 15.763 7.819 15.911 C 7.807 15.993,7.673 17.179,7.522 18.547 C 7.215 21.323,7.216 21.256,7.480 21.520 C 7.835 21.875,8.448 21.780,8.658 21.339 C 8.708 21.233,8.806 20.479,9.023 18.529 C 9.187 17.064,9.320 15.842,9.320 15.813 C 9.320 15.770,9.738 15.760,11.580 15.760 L 13.841 15.760 13.819 15.910 C 13.807 15.992,13.673 17.179,13.522 18.547 C 13.215 21.323,13.216 21.256,13.480 21.520 C 13.835 21.875,14.448 21.780,14.658 21.339 C 14.708 21.233,14.806 20.479,15.023 18.529 C 15.187 17.064,15.320 15.842,15.320 15.814 C 15.320 15.773,15.854 15.760,18.010 15.751 C 20.967 15.739,20.802 15.753,21.047 15.494 C 21.309 15.217,21.309 14.783,21.047 14.506 C 20.803 14.248,20.956 14.261,18.110 14.249 L 15.520 14.237 15.520 14.145 C 15.520 14.054,15.935 10.260,15.981 9.931 L 16.005 9.763 18.852 9.751 C 21.984 9.739,21.801 9.754,22.047 9.494 C 22.181 9.353,22.240 9.201,22.240 9.000 C 22.240 8.799,22.181 8.647,22.047 8.506 C 21.802 8.247,21.976 8.261,18.930 8.249 L 16.159 8.237 16.181 8.089 C 16.193 8.007,16.327 6.821,16.478 5.453 C 16.785 2.677,16.784 2.744,16.520 2.480 C 16.179 2.139,15.617 2.205,15.363 2.616 C 15.291 2.732,15.239 3.109,14.980 5.442 C 14.815 6.923,14.680 8.158,14.680 8.187 C 14.680 8.230,14.264 8.240,12.420 8.240 L 10.159 8.240 10.181 8.090 C 10.193 8.008,10.327 6.820,10.478 5.450 C 10.774 2.774,10.774 2.795,10.578 2.536 C 10.421 2.328,10.078 2.211,9.815 2.277 M14.480 9.854 C 14.480 9.946,14.065 13.738,14.019 14.070 L 13.995 14.240 11.758 14.240 L 9.520 14.240 9.520 14.146 C 9.520 14.054,9.935 10.262,9.981 9.930 L 10.005 9.760 12.242 9.760 L 14.480 9.760 14.480 9.854 " stroke="none" fill-rule="evenodd" fill="black"></path></svg>