<svg width="24" height="24" viewBox="0 0 24 24" fill="none" xmlns="http://www.w3.org/2000/svg"><path d="M8.080 1.282 C 4.008 1.495,1.895 3.296,1.383 6.991 C 1.270 7.803,1.242 8.816,1.242 12.000 C 1.242 16.504,1.302 17.273,1.760 18.650 C 2.532 20.963,4.206 22.226,7.027 22.622 C 7.786 22.728,8.902 22.759,12.000 22.759 C 15.098 22.759,16.214 22.728,16.973 22.622 C 19.443 22.275,20.996 21.288,21.897 19.490 C 22.379 18.530,22.638 17.369,22.720 15.807 C 22.771 14.838,22.771 9.162,22.720 8.193 C 22.657 6.998,22.521 6.191,22.242 5.356 C 21.632 3.531,20.469 2.367,18.650 1.760 C 17.788 1.473,17.023 1.344,15.806 1.280 C 14.952 1.235,8.952 1.237,8.080 1.282 M16.800 2.854 C 19.586 3.316,20.714 4.454,21.148 7.240 C 21.214 7.661,21.220 8.064,21.220 12.000 C 21.220 15.936,21.214 16.339,21.148 16.760 C 20.712 19.558,19.558 20.712,16.760 21.148 C 16.339 21.214,15.936 21.220,12.000 21.220 C 8.064 21.220,7.661 21.214,7.240 21.148 C 4.450 20.713,3.283 19.551,2.854 16.780 C 2.785 16.335,2.780 15.989,2.780 12.000 C 2.780 7.247,2.776 7.337,3.044 6.288 C 3.557 4.282,4.722 3.274,6.960 2.900 C 7.690 2.777,8.048 2.769,12.200 2.777 C 15.963 2.784,16.422 2.791,16.800 2.854 M9.740 6.266 C 9.415 6.296,9.060 6.367,8.824 6.448 C 7.518 6.894,6.569 7.989,6.312 9.344 C 6.237 9.740,6.237 14.260,6.312 14.656 C 6.604 16.200,7.800 17.396,9.344 17.688 C 9.740 17.763,14.260 17.763,14.656 17.688 C 16.189 17.398,17.398 16.189,17.688 14.656 C 17.763 14.260,17.763 9.740,17.688 9.344 C 17.439 8.027,16.529 6.952,15.266 6.479 C 14.715 6.273,14.655 6.268,12.200 6.259 C 10.935 6.254,9.828 6.257,9.740 6.266 M11.240 9.500 L 11.240 11.240 9.500 11.240 L 7.760 11.240 7.760 10.456 C 7.760 9.579,7.799 9.347,8.013 8.940 C 8.170 8.642,8.627 8.179,8.920 8.022 C 9.330 7.802,9.538 7.766,10.430 7.763 L 11.240 7.760 11.240 9.500 M14.574 7.823 C 14.950 7.920,15.271 8.110,15.580 8.420 C 16.124 8.964,16.240 9.322,16.240 10.456 L 16.240 11.240 14.500 11.240 L 12.760 11.240 12.760 9.500 L 12.760 7.760 13.544 7.760 C 14.130 7.760,14.391 7.776,14.574 7.823 M11.240 14.500 L 11.240 16.240 10.456 16.240 C 9.579 16.240,9.347 16.201,8.940 15.987 C 8.630 15.824,8.176 15.369,8.011 15.057 C 7.796 14.649,7.760 14.436,7.760 13.552 L 7.760 12.760 9.500 12.760 L 11.240 12.760 11.240 14.500 M16.240 13.544 C 16.240 14.678,16.124 15.036,15.580 15.580 C 15.036 16.124,14.678 16.240,13.544 16.240 L 12.760 16.240 12.760 14.500 L 12.760 12.760 14.500 12.760 L 16.240 12.760 16.240 13.544 " stroke="none" fill-rule="evenodd" fill="black"></path></svg>