<svg width="24" height="24" viewBox="0 0 24 24" fill="none" xmlns="http://www.w3.org/2000/svg"><path d="M3.805 1.881 C 3.059 1.985,2.329 2.381,1.749 2.997 C 1.280 3.494,1.226 3.769,1.249 5.560 C 1.266 6.949,1.275 7.005,1.558 7.450 C 1.824 7.870,2.778 8.468,3.460 8.643 C 3.871 8.749,4.542 8.759,4.940 8.664 C 5.323 8.573,5.897 8.282,6.168 8.040 L 6.393 7.840 7.076 7.840 L 7.760 7.840 7.760 9.598 L 7.760 11.356 7.470 11.507 C 6.937 11.786,6.517 12.301,6.334 12.900 C 6.266 13.121,6.260 13.323,6.260 15.500 C 6.260 17.677,6.266 17.879,6.334 18.100 C 6.517 18.699,6.937 19.214,7.470 19.493 L 7.760 19.644 7.760 20.900 C 7.760 21.689,7.776 22.197,7.803 22.267 C 7.905 22.540,8.193 22.731,8.500 22.731 C 8.807 22.731,9.095 22.540,9.197 22.267 C 9.224 22.197,9.240 21.689,9.240 20.900 L 9.240 19.644 9.530 19.493 C 10.063 19.214,10.483 18.699,10.666 18.100 C 10.734 17.879,10.740 17.677,10.740 15.500 C 10.740 13.323,10.734 13.121,10.666 12.900 C 10.483 12.301,10.063 11.786,9.530 11.507 L 9.240 11.356 9.240 9.520 L 9.240 7.685 9.490 7.554 C 9.857 7.362,10.387 6.821,10.571 6.450 C 10.952 5.681,10.921 4.719,10.491 4.009 C 10.181 3.496,9.636 3.057,9.080 2.871 C 8.841 2.792,8.721 2.783,7.620 2.769 L 6.420 2.754 6.240 2.605 C 5.525 2.013,4.672 1.759,3.805 1.881 M19.420 1.862 C 19.376 1.873,19.241 1.900,19.120 1.924 C 18.661 2.015,18.166 2.262,17.761 2.603 L 17.580 2.754 16.380 2.769 C 15.279 2.783,15.159 2.792,14.920 2.871 C 14.364 3.057,13.819 3.496,13.509 4.009 C 13.078 4.721,13.047 5.678,13.429 6.450 C 13.613 6.821,14.143 7.362,14.510 7.554 L 14.760 7.685 14.760 14.920 C 14.760 19.934,14.773 22.189,14.803 22.267 C 14.905 22.540,15.193 22.731,15.500 22.731 C 15.807 22.731,16.095 22.540,16.197 22.267 C 16.227 22.189,16.240 19.957,16.240 14.997 L 16.240 7.840 16.924 7.840 L 17.607 7.840 17.832 8.040 C 18.103 8.282,18.677 8.573,19.060 8.664 C 19.458 8.759,20.129 8.749,20.540 8.643 C 21.264 8.457,22.198 7.856,22.471 7.400 C 22.731 6.967,22.740 6.895,22.740 5.320 L 22.740 3.900 22.626 3.591 C 22.535 3.343,22.461 3.226,22.254 3.002 C 21.786 2.497,21.121 2.092,20.520 1.945 C 20.256 1.881,19.566 1.829,19.420 1.862 M4.784 3.446 C 5.193 3.597,5.509 3.934,5.660 4.380 C 5.749 4.639,5.786 5.518,5.725 5.906 C 5.701 6.063,5.645 6.276,5.601 6.378 C 5.491 6.634,5.155 6.977,4.884 7.109 C 4.684 7.206,4.616 7.218,4.240 7.218 C 3.735 7.218,3.514 7.144,3.071 6.827 L 2.780 6.618 2.769 5.361 L 2.759 4.104 2.929 3.930 C 3.448 3.401,4.159 3.216,4.784 3.446 M20.317 3.446 C 20.592 3.540,20.853 3.708,21.071 3.930 L 21.241 4.104 21.231 5.361 L 21.220 6.618 20.929 6.827 C 20.486 7.144,20.265 7.218,19.760 7.218 C 19.383 7.218,19.317 7.207,19.113 7.107 C 18.811 6.961,18.485 6.607,18.365 6.296 C 18.292 6.108,18.269 5.951,18.252 5.520 C 18.240 5.223,18.250 4.848,18.273 4.686 C 18.417 3.669,19.338 3.111,20.317 3.446 M8.745 4.350 C 9.133 4.554,9.334 4.876,9.337 5.300 C 9.339 5.618,9.277 5.770,9.046 6.013 C 8.769 6.305,8.665 6.336,7.900 6.353 L 7.220 6.368 7.220 5.300 L 7.220 4.232 7.900 4.247 C 8.504 4.261,8.598 4.272,8.745 4.350 M16.780 5.303 L 16.780 6.366 16.100 6.353 C 15.335 6.338,15.234 6.308,14.954 6.013 C 14.725 5.771,14.662 5.618,14.662 5.300 C 14.662 4.985,14.746 4.780,14.963 4.563 C 15.234 4.292,15.397 4.249,16.180 4.244 L 16.780 4.240 16.780 5.303 M8.944 12.903 C 9.254 13.153,9.240 13.032,9.240 15.500 C 9.240 17.970,9.254 17.846,8.942 18.099 C 8.806 18.209,8.766 18.220,8.500 18.220 C 8.234 18.220,8.194 18.209,8.058 18.099 C 7.743 17.844,7.757 17.977,7.769 15.454 L 7.780 13.207 7.901 13.058 C 8.088 12.827,8.255 12.753,8.549 12.769 C 8.752 12.781,8.823 12.805,8.944 12.903 " stroke="none" fill-rule="evenodd" fill="black"></path></svg>