<svg width="24" height="24" viewBox="0 0 24 24" fill="none" xmlns="http://www.w3.org/2000/svg"><path d="M10.651 1.383 C 7.128 1.810,4.102 3.902,2.463 7.044 C 1.782 8.349,1.395 9.732,1.282 11.260 C 1.227 11.997,1.227 18.157,1.281 18.740 C 1.369 19.687,1.700 20.462,2.333 21.207 C 2.772 21.723,3.552 22.246,4.222 22.473 C 4.915 22.707,5.940 22.745,6.620 22.560 C 8.051 22.173,9.171 21.141,9.645 19.772 C 9.860 19.151,9.880 18.915,9.879 17.005 C 9.879 15.047,9.865 14.911,9.614 14.400 C 9.428 14.022,8.905 13.484,8.533 13.288 C 8.187 13.106,7.740 13.000,7.321 13.000 C 6.835 13.000,6.553 13.060,6.160 13.248 C 5.703 13.466,5.211 13.952,4.988 14.405 C 4.735 14.919,4.721 15.051,4.721 16.957 C 4.720 18.584,4.723 18.662,4.801 18.823 C 4.848 18.919,4.954 19.040,5.048 19.106 C 5.186 19.201,5.254 19.220,5.460 19.220 C 5.666 19.220,5.734 19.201,5.872 19.106 C 5.966 19.040,6.072 18.919,6.119 18.823 C 6.196 18.662,6.200 18.582,6.200 17.055 C 6.200 15.226,6.209 15.159,6.491 14.853 C 6.745 14.577,6.919 14.501,7.300 14.501 C 7.681 14.501,7.855 14.577,8.110 14.854 C 8.401 15.169,8.408 15.227,8.391 17.189 C 8.377 18.845,8.374 18.909,8.285 19.180 C 7.892 20.379,6.777 21.202,5.552 21.199 C 4.249 21.196,3.016 20.168,2.798 18.903 C 2.770 18.741,2.761 17.371,2.770 14.780 C 2.783 11.412,2.793 10.855,2.849 10.556 C 3.250 8.427,4.064 6.850,5.491 5.434 C 7.285 3.655,9.691 2.723,12.260 2.813 C 13.701 2.863,14.944 3.183,16.214 3.830 C 18.531 5.010,20.315 7.250,20.959 9.789 C 21.220 10.820,21.211 10.653,21.228 14.826 C 21.245 19.101,21.257 18.894,20.951 19.520 C 20.814 19.799,20.716 19.928,20.402 20.242 C 20.088 20.556,19.959 20.654,19.680 20.791 C 19.248 21.002,18.919 21.079,18.436 21.079 C 17.206 21.081,16.130 20.295,15.730 19.100 L 15.623 18.780 15.609 17.069 C 15.592 15.050,15.593 15.042,15.937 14.698 C 16.156 14.479,16.424 14.360,16.700 14.360 C 17.083 14.360,17.511 14.633,17.687 14.990 C 17.779 15.178,17.780 15.196,17.800 16.960 C 17.823 18.963,17.810 18.885,18.136 19.111 C 18.266 19.201,18.336 19.220,18.540 19.220 C 18.746 19.220,18.814 19.201,18.952 19.106 C 19.048 19.039,19.152 18.918,19.201 18.818 C 19.282 18.650,19.284 18.604,19.272 16.773 L 19.260 14.900 19.153 14.608 C 18.879 13.858,18.290 13.277,17.533 13.012 C 17.254 12.914,17.163 12.902,16.700 12.901 C 16.257 12.900,16.137 12.914,15.885 12.997 C 15.142 13.240,14.523 13.858,14.251 14.627 L 14.140 14.940 14.128 16.771 C 14.115 18.771,14.134 19.017,14.346 19.637 C 14.735 20.770,15.617 21.734,16.700 22.209 C 19.093 23.259,21.844 21.957,22.577 19.427 C 22.752 18.824,22.769 18.344,22.749 14.640 C 22.729 11.010,22.725 10.926,22.521 9.920 C 21.944 7.066,20.183 4.524,17.700 2.958 C 16.319 2.087,14.676 1.522,13.063 1.363 C 12.477 1.305,11.205 1.316,10.651 1.383 " stroke="none" fill-rule="evenodd" fill="black"></path></svg>