<svg width="24" height="24" viewBox="0 0 24 24" fill="none" xmlns="http://www.w3.org/2000/svg"><path d="M8.340 1.267 C 5.940 1.362,4.302 1.923,3.137 3.048 C 2.045 4.102,1.474 5.517,1.282 7.648 C 1.224 8.289,1.223 15.703,1.281 16.343 C 1.475 18.484,2.043 19.896,3.137 20.952 C 3.979 21.765,5.038 22.269,6.477 22.542 C 7.380 22.713,7.733 22.728,11.359 22.748 C 15.896 22.773,16.792 22.727,18.075 22.404 C 20.485 21.798,21.938 20.249,22.462 17.728 C 22.696 16.600,22.700 16.509,22.700 12.000 C 22.700 7.491,22.696 7.400,22.462 6.272 C 22.135 4.700,21.406 3.440,20.374 2.666 C 19.237 1.812,17.862 1.394,15.820 1.281 C 15.200 1.247,9.134 1.235,8.340 1.267 M16.760 2.854 C 19.095 3.241,20.241 4.101,20.816 5.900 C 21.171 7.012,21.250 8.011,21.232 11.180 L 21.220 13.260 19.460 13.260 L 17.700 13.260 17.440 13.132 C 17.023 12.927,16.907 12.774,16.298 11.620 C 15.578 10.256,15.512 10.164,15.105 9.949 C 14.879 9.830,14.453 9.828,14.200 9.945 C 13.968 10.053,13.717 10.311,13.590 10.573 C 13.534 10.687,13.034 11.936,12.478 13.350 C 11.922 14.763,11.456 15.920,11.443 15.920 C 11.430 15.920,11.231 15.438,11.000 14.850 C 10.519 13.623,10.387 13.338,10.173 13.061 C 9.824 12.612,9.077 12.129,8.520 11.994 C 8.344 11.951,7.743 11.943,5.510 11.955 L 2.720 11.969 2.720 10.135 C 2.720 7.895,2.771 7.244,3.022 6.251 C 3.292 5.181,3.847 4.299,4.577 3.782 C 5.331 3.247,6.382 2.924,7.820 2.787 C 7.908 2.778,9.861 2.774,12.160 2.778 C 15.926 2.784,16.382 2.791,16.760 2.854 M15.178 12.700 C 15.351 13.030,15.560 13.399,15.643 13.520 C 15.926 13.936,16.323 14.256,16.870 14.509 C 17.366 14.738,17.571 14.757,19.510 14.759 L 21.240 14.760 21.239 14.930 C 21.238 15.347,21.156 16.466,21.099 16.845 C 20.694 19.544,19.503 20.715,16.720 21.148 C 16.299 21.214,15.896 21.220,11.980 21.220 C 8.048 21.220,7.661 21.214,7.221 21.147 C 4.505 20.736,3.291 19.580,2.866 17.000 C 2.757 16.338,2.720 15.732,2.720 14.569 L 2.720 13.438 5.490 13.449 L 8.260 13.460 8.460 13.558 C 8.570 13.612,8.759 13.756,8.880 13.878 C 9.098 14.098,9.105 14.112,9.657 15.520 C 10.366 17.326,10.441 17.487,10.696 17.740 C 10.930 17.972,11.136 18.052,11.493 18.047 C 11.916 18.042,12.270 17.780,12.511 17.293 C 12.575 17.165,13.092 15.877,13.660 14.431 L 14.694 11.801 14.779 11.951 C 14.826 12.033,15.005 12.370,15.178 12.700 " stroke="none" fill-rule="evenodd" fill="black"></path></svg>