<svg width="24" height="24" viewBox="0 0 24 24" fill="none" xmlns="http://www.w3.org/2000/svg"><path d="M6.960 2.383 C 6.905 2.392,6.725 2.420,6.560 2.444 C 4.803 2.697,3.163 3.802,2.175 5.400 C 1.795 6.015,1.464 6.908,1.339 7.660 C 1.235 8.277,1.256 9.572,1.382 10.415 C 1.658 12.259,2.374 14.016,3.520 15.662 C 5.202 18.076,8.049 20.318,10.783 21.381 C 11.297 21.581,11.575 21.640,12.000 21.640 C 12.425 21.640,12.703 21.581,13.217 21.381 C 15.933 20.325,18.764 18.102,20.441 15.707 C 21.267 14.528,21.738 13.601,22.161 12.323 C 22.590 11.030,22.803 9.484,22.719 8.274 C 22.681 7.727,22.663 7.613,22.536 7.110 C 21.974 4.902,20.299 3.196,18.093 2.585 C 17.476 2.414,17.183 2.380,16.380 2.383 C 15.757 2.385,15.547 2.401,15.214 2.473 C 14.135 2.704,13.131 3.202,12.300 3.918 C 12.146 4.050,12.011 4.159,12.000 4.159 C 11.989 4.160,11.854 4.051,11.700 3.917 C 10.879 3.207,9.867 2.703,8.806 2.478 C 8.435 2.399,7.224 2.337,6.960 2.383 M8.481 3.942 C 9.548 4.145,10.484 4.711,11.275 5.631 C 11.580 5.985,11.670 6.047,11.918 6.071 C 12.224 6.100,12.370 6.028,12.650 5.709 C 13.325 4.941,13.867 4.531,14.619 4.219 C 16.411 3.477,18.443 3.884,19.819 5.261 C 20.552 5.993,21.011 6.882,21.183 7.900 C 21.317 8.691,21.211 10.132,20.939 11.205 C 20.609 12.506,19.865 14.023,18.997 15.164 C 17.457 17.190,15.028 19.053,12.740 19.964 C 12.358 20.116,12.260 20.139,12.000 20.140 C 11.739 20.140,11.643 20.117,11.260 19.964 C 9.103 19.103,6.770 17.363,5.251 15.480 C 4.206 14.185,3.375 12.534,3.026 11.060 C 2.859 10.354,2.798 9.871,2.773 9.060 C 2.753 8.446,2.762 8.222,2.817 7.900 C 3.169 5.817,4.813 4.199,6.880 3.898 C 7.319 3.834,8.012 3.854,8.481 3.942 " stroke="none" fill-rule="evenodd" fill="black"></path></svg>