<svg width="24" height="24" viewBox="0 0 24 24" fill="none" xmlns="http://www.w3.org/2000/svg"><path d="M21.900 1.259 C 21.878 1.267,21.806 1.285,21.740 1.300 C 21.655 1.319,21.345 1.600,20.658 2.284 L 19.696 3.241 19.278 3.029 C 18.770 2.771,18.369 2.626,17.783 2.488 C 17.380 2.393,17.263 2.384,16.480 2.382 C 15.508 2.380,15.212 2.422,14.461 2.670 C 13.701 2.922,12.945 3.354,12.310 3.900 L 12.000 4.166 11.690 3.899 C 10.051 2.489,7.874 2.009,5.806 2.603 C 4.005 3.120,2.486 4.473,1.764 6.200 C 1.349 7.194,1.213 8.089,1.284 9.355 C 1.450 12.280,2.690 15.017,4.918 17.370 L 5.235 17.705 3.336 19.603 C 2.291 20.646,1.398 21.561,1.352 21.636 C 1.232 21.826,1.234 22.177,1.356 22.374 C 1.532 22.658,1.839 22.783,2.189 22.712 C 2.376 22.674,2.592 22.460,12.490 12.566 C 18.342 6.717,22.628 2.403,22.665 2.324 C 22.816 2.006,22.705 1.590,22.416 1.393 C 22.274 1.295,21.999 1.224,21.900 1.259 M8.180 3.881 C 9.394 4.054,10.447 4.642,11.249 5.593 C 11.550 5.951,11.747 6.078,12.000 6.078 C 12.253 6.078,12.450 5.951,12.751 5.593 C 14.004 4.105,15.937 3.500,17.756 4.025 C 18.112 4.128,18.560 4.312,18.560 4.356 C 18.560 4.369,15.801 7.139,12.429 10.511 L 6.299 16.641 6.056 16.391 C 4.319 14.601,3.217 12.471,2.858 10.211 C 2.759 9.585,2.737 8.340,2.817 7.882 C 3.129 6.093,4.361 4.654,6.069 4.081 C 6.722 3.863,7.518 3.787,8.180 3.881 M21.505 6.298 C 21.220 6.401,21.000 6.692,21.000 6.967 C 21.000 7.041,21.049 7.281,21.108 7.501 C 21.212 7.882,21.217 7.941,21.216 8.840 C 21.215 9.850,21.158 10.341,20.939 11.204 C 20.579 12.624,19.756 14.231,18.750 15.480 C 17.854 16.591,16.558 17.759,15.260 18.627 C 14.031 19.448,12.517 20.160,12.002 20.160 C 11.637 20.160,10.899 19.871,9.989 19.373 C 9.218 18.951,9.215 18.949,8.957 18.968 C 8.539 18.998,8.254 19.329,8.289 19.745 C 8.317 20.086,8.434 20.218,8.984 20.528 C 9.617 20.885,10.387 21.250,10.934 21.453 L 11.380 21.618 12.000 21.618 L 12.620 21.619 13.080 21.445 C 15.282 20.611,17.806 18.841,19.417 17.000 C 20.767 15.457,21.585 14.064,22.162 12.320 C 22.789 10.428,22.911 8.331,22.479 6.879 C 22.403 6.621,22.255 6.427,22.060 6.329 C 21.910 6.254,21.664 6.240,21.505 6.298 " stroke="none" fill-rule="evenodd" fill="black"></path></svg>