<svg width="24" height="24" viewBox="0 0 24 24" fill="none" xmlns="http://www.w3.org/2000/svg"><path d="M6.960 2.383 C 6.905 2.392,6.725 2.420,6.560 2.444 C 4.803 2.697,3.163 3.802,2.175 5.400 C 1.795 6.015,1.464 6.908,1.339 7.660 C 1.235 8.277,1.256 9.572,1.382 10.415 C 1.658 12.259,2.374 14.016,3.520 15.662 C 4.838 17.554,6.834 19.320,9.060 20.563 C 9.955 21.063,10.995 21.511,11.461 21.597 C 12.003 21.697,12.603 21.630,13.160 21.408 L 13.460 21.288 13.660 21.457 C 15.150 22.715,17.256 23.075,19.134 22.393 C 19.957 22.094,20.759 21.541,21.366 20.853 C 23.001 19.001,23.192 16.211,21.823 14.167 C 21.700 13.985,21.600 13.822,21.600 13.806 C 21.600 13.791,21.684 13.580,21.786 13.339 C 22.338 12.032,22.640 10.739,22.714 9.360 C 22.747 8.748,22.725 8.042,22.661 7.660 C 22.293 5.457,20.741 3.547,18.693 2.776 C 17.899 2.477,17.324 2.379,16.380 2.383 C 15.757 2.385,15.547 2.401,15.214 2.473 C 14.133 2.705,13.183 3.172,12.330 3.891 L 12.000 4.169 11.670 3.891 C 10.822 3.176,9.862 2.702,8.806 2.478 C 8.435 2.399,7.224 2.337,6.960 2.383 M8.392 3.924 C 8.983 4.029,9.704 4.319,10.212 4.656 C 10.519 4.860,11.033 5.330,11.304 5.655 C 11.780 6.225,12.220 6.225,12.696 5.655 C 12.967 5.330,13.481 4.860,13.788 4.656 C 14.741 4.024,15.949 3.743,17.060 3.894 C 18.134 4.041,19.056 4.497,19.819 5.261 C 20.552 5.993,21.011 6.882,21.183 7.900 C 21.238 8.221,21.247 8.449,21.228 9.060 C 21.203 9.887,21.120 10.487,20.924 11.242 C 20.801 11.718,20.508 12.588,20.452 12.644 C 20.434 12.661,20.321 12.612,20.200 12.533 C 19.922 12.354,19.256 12.034,18.935 11.926 C 18.390 11.743,17.896 11.669,17.200 11.668 C 16.471 11.668,16.001 11.742,15.385 11.956 C 12.195 13.064,10.716 16.770,12.276 19.746 C 12.384 19.953,12.425 20.071,12.399 20.097 C 12.377 20.119,12.211 20.138,12.029 20.139 C 11.732 20.140,11.657 20.123,11.260 19.964 C 9.103 19.103,6.770 17.363,5.251 15.480 C 4.206 14.185,3.375 12.534,3.026 11.060 C 2.859 10.354,2.798 9.871,2.773 9.060 C 2.753 8.446,2.762 8.222,2.817 7.900 C 3.169 5.817,4.813 4.199,6.880 3.898 C 7.283 3.840,7.985 3.852,8.392 3.924 M17.866 13.217 C 18.699 13.364,19.365 13.701,19.985 14.290 C 20.526 14.804,20.888 15.389,21.104 16.100 C 21.205 16.431,21.214 16.516,21.217 17.160 C 21.219 17.773,21.208 17.902,21.127 18.200 C 20.803 19.388,20.010 20.341,18.914 20.858 C 18.294 21.151,17.973 21.218,17.200 21.219 C 16.418 21.220,16.105 21.153,15.460 20.844 C 14.408 20.340,13.631 19.410,13.300 18.260 C 13.170 17.810,13.127 17.124,13.197 16.642 C 13.451 14.907,14.774 13.536,16.500 13.219 C 16.881 13.149,17.472 13.148,17.866 13.217 M15.860 15.260 C 15.838 15.267,15.772 15.284,15.713 15.296 C 15.459 15.352,15.202 15.707,15.202 16.000 C 15.202 16.237,15.335 16.444,15.755 16.859 L 16.159 17.257 15.745 17.679 C 15.273 18.159,15.189 18.295,15.189 18.580 C 15.189 18.898,15.347 19.132,15.649 19.258 C 16.011 19.409,16.219 19.317,16.782 18.757 L 17.223 18.318 17.635 18.742 C 17.861 18.976,18.107 19.192,18.182 19.223 C 18.678 19.431,19.211 19.077,19.211 18.540 C 19.211 18.260,19.130 18.125,18.677 17.662 L 18.285 17.260 18.698 16.840 C 19.159 16.372,19.232 16.230,19.182 15.899 C 19.159 15.745,19.118 15.674,18.962 15.518 C 18.806 15.362,18.735 15.321,18.581 15.298 C 18.250 15.248,18.108 15.321,17.638 15.784 L 17.217 16.199 16.858 15.836 C 16.661 15.637,16.428 15.433,16.340 15.382 C 16.187 15.293,15.945 15.232,15.860 15.260 " stroke="none" fill-rule="evenodd" fill="black"></path></svg>