<svg width="24" height="24" viewBox="0 0 24 24" fill="none" xmlns="http://www.w3.org/2000/svg"><path d="M11.320 1.281 C 7.041 1.525,3.252 4.409,1.843 8.497 C 1.180 10.418,1.082 12.560,1.564 14.550 C 2.505 18.428,5.572 21.495,9.450 22.436 C 11.106 22.837,12.894 22.837,14.550 22.436 C 18.428 21.495,21.495 18.428,22.436 14.550 C 22.837 12.894,22.837 11.106,22.436 9.450 C 21.425 5.282,17.985 2.095,13.742 1.398 C 13.334 1.331,12.074 1.229,11.880 1.247 C 11.847 1.250,11.595 1.265,11.320 1.281 M13.146 2.822 C 14.201 2.960,15.125 3.237,16.060 3.696 C 18.877 5.079,20.768 7.722,21.178 10.854 C 21.301 11.786,21.244 13.026,21.034 13.998 C 20.745 15.343,20.003 16.855,19.121 17.900 C 18.247 18.935,17.240 19.726,16.060 20.304 C 14.761 20.940,13.462 21.240,12.000 21.240 C 10.538 21.240,9.236 20.940,7.940 20.304 C 5.123 18.921,3.232 16.278,2.822 13.146 C 2.699 12.214,2.756 10.974,2.966 10.002 C 3.177 9.020,3.703 7.775,4.268 6.920 C 5.750 4.677,8.131 3.188,10.820 2.823 C 11.380 2.746,12.569 2.746,13.146 2.822 M8.924 7.203 C 8.400 7.295,7.739 7.593,7.314 7.928 C 6.061 8.915,5.616 10.392,6.000 12.283 C 6.282 13.669,6.949 14.836,8.137 16.021 C 8.902 16.784,9.675 17.340,10.633 17.817 C 11.334 18.166,11.514 18.218,12.000 18.216 C 12.479 18.214,12.709 18.145,13.415 17.792 C 14.339 17.330,15.106 16.774,15.862 16.020 C 16.835 15.051,17.422 14.151,17.793 13.060 C 18.147 12.017,18.231 10.733,17.999 9.888 C 17.677 8.711,16.789 7.763,15.632 7.360 C 15.171 7.199,14.787 7.147,14.221 7.171 C 13.478 7.201,12.971 7.366,12.334 7.785 C 12.154 7.903,12.000 8.000,11.991 8.000 C 11.982 8.000,11.879 7.929,11.763 7.842 C 11.474 7.627,10.966 7.384,10.580 7.278 C 10.217 7.177,9.304 7.136,8.924 7.203 M10.116 8.701 C 10.540 8.801,10.887 9.012,11.275 9.405 C 11.639 9.774,11.749 9.840,12.000 9.840 C 12.248 9.840,12.349 9.779,12.724 9.405 C 13.301 8.828,13.825 8.611,14.540 8.652 C 15.196 8.690,15.786 9.006,16.183 9.531 C 16.518 9.974,16.640 10.360,16.640 10.978 C 16.639 11.942,16.340 12.927,15.785 13.792 C 15.098 14.861,13.814 15.969,12.618 16.523 C 12.076 16.774,12.003 16.787,11.732 16.679 C 10.388 16.145,8.957 14.963,8.187 13.750 C 7.405 12.518,7.134 10.884,7.556 9.943 C 7.679 9.668,7.991 9.293,8.272 9.082 C 8.518 8.898,8.943 8.708,9.200 8.667 C 9.438 8.629,9.879 8.646,10.116 8.701 " stroke="none" fill-rule="evenodd" fill="black"></path></svg>