<svg width="24" height="24" viewBox="0 0 24 24" fill="none" xmlns="http://www.w3.org/2000/svg"><path d="M6.960 2.383 C 6.905 2.392,6.725 2.420,6.560 2.444 C 4.803 2.697,3.163 3.802,2.175 5.400 C 1.795 6.015,1.464 6.908,1.339 7.660 C 1.235 8.277,1.256 9.572,1.382 10.415 C 1.658 12.259,2.374 14.016,3.520 15.662 C 4.838 17.554,6.834 19.320,9.060 20.563 C 9.955 21.063,10.995 21.511,11.461 21.597 C 12.004 21.697,12.604 21.630,13.160 21.407 L 13.460 21.287 13.580 21.398 C 13.937 21.728,14.660 22.164,15.177 22.362 C 17.776 23.357,20.655 22.325,22.035 19.903 C 22.815 18.535,22.950 16.783,22.392 15.260 C 22.259 14.894,22.033 14.461,21.773 14.069 L 21.593 13.798 21.782 13.349 C 22.341 12.022,22.640 10.742,22.714 9.360 C 22.747 8.748,22.725 8.042,22.661 7.660 C 22.293 5.457,20.741 3.547,18.693 2.776 C 17.899 2.477,17.324 2.379,16.380 2.383 C 15.757 2.385,15.547 2.401,15.214 2.473 C 14.133 2.705,13.183 3.172,12.330 3.891 L 12.000 4.169 11.670 3.891 C 10.822 3.176,9.862 2.702,8.806 2.478 C 8.435 2.399,7.224 2.337,6.960 2.383 M8.392 3.924 C 8.983 4.029,9.704 4.319,10.212 4.656 C 10.519 4.860,11.033 5.330,11.304 5.655 C 11.780 6.225,12.220 6.225,12.696 5.655 C 12.967 5.330,13.481 4.860,13.788 4.656 C 14.741 4.024,15.949 3.743,17.060 3.894 C 18.134 4.041,19.056 4.497,19.819 5.261 C 20.552 5.993,21.011 6.882,21.183 7.900 C 21.238 8.221,21.247 8.449,21.228 9.060 C 21.203 9.887,21.120 10.487,20.924 11.242 C 20.801 11.718,20.508 12.588,20.452 12.644 C 20.434 12.661,20.321 12.612,20.200 12.533 C 19.922 12.354,19.256 12.034,18.935 11.926 C 18.800 11.881,18.503 11.804,18.275 11.756 C 17.685 11.631,16.714 11.631,16.125 11.756 C 13.871 12.233,12.233 13.871,11.756 16.125 C 11.632 16.711,11.631 17.686,11.754 18.268 C 11.864 18.785,12.040 19.287,12.263 19.719 C 12.378 19.943,12.425 20.071,12.398 20.098 C 12.377 20.119,12.211 20.138,12.029 20.139 C 11.732 20.140,11.657 20.123,11.260 19.964 C 9.103 19.103,6.770 17.363,5.251 15.480 C 4.206 14.185,3.375 12.534,3.026 11.060 C 2.859 10.354,2.798 9.871,2.773 9.060 C 2.753 8.446,2.762 8.222,2.817 7.900 C 3.169 5.817,4.813 4.199,6.880 3.898 C 7.283 3.840,7.985 3.852,8.392 3.924 M18.180 13.280 C 18.911 13.477,19.481 13.799,20.014 14.316 C 20.408 14.697,20.632 15.008,20.858 15.486 C 21.153 16.111,21.220 16.428,21.219 17.200 C 21.218 17.973,21.151 18.294,20.858 18.914 C 20.443 19.793,19.794 20.442,18.914 20.858 C 18.291 21.153,17.972 21.220,17.200 21.220 C 16.635 21.220,16.491 21.207,16.200 21.127 C 13.733 20.456,12.480 17.800,13.540 15.492 C 13.889 14.735,14.542 14.043,15.287 13.642 C 15.627 13.460,16.101 13.293,16.500 13.216 C 16.911 13.137,17.771 13.169,18.180 13.280 M16.920 14.824 C 16.843 14.857,16.738 14.924,16.686 14.972 C 16.492 15.154,16.464 15.263,16.447 15.907 L 16.432 16.515 15.779 16.527 L 15.127 16.540 14.974 16.663 C 14.773 16.823,14.680 17.012,14.680 17.260 C 14.680 17.508,14.773 17.697,14.974 17.857 L 15.127 17.980 15.780 17.993 L 16.432 18.005 16.447 18.653 C 16.464 19.353,16.486 19.439,16.706 19.647 C 16.847 19.781,16.999 19.840,17.200 19.840 C 17.401 19.840,17.553 19.781,17.694 19.647 C 17.914 19.439,17.936 19.353,17.953 18.650 L 17.968 18.000 18.566 18.000 C 19.074 18.000,19.185 17.989,19.312 17.924 C 19.594 17.779,19.720 17.574,19.720 17.260 C 19.720 16.946,19.594 16.741,19.312 16.596 C 19.185 16.531,19.074 16.520,18.566 16.520 L 17.969 16.520 17.953 15.910 C 17.941 15.448,17.921 15.271,17.872 15.180 C 17.684 14.830,17.267 14.674,16.920 14.824 " stroke="none" fill-rule="evenodd" fill="black"></path></svg>