<svg width="24" height="24" viewBox="0 0 24 24" fill="none" xmlns="http://www.w3.org/2000/svg"><path d="M6.960 2.383 C 6.905 2.392,6.725 2.420,6.560 2.444 C 4.803 2.697,3.163 3.802,2.175 5.400 C 1.795 6.015,1.462 6.916,1.339 7.659 C 1.234 8.300,1.253 9.554,1.382 10.415 C 1.574 11.698,2.004 13.007,2.619 14.180 C 3.936 16.694,6.153 18.904,8.980 20.523 C 9.771 20.977,10.811 21.440,11.348 21.581 C 11.705 21.673,12.174 21.660,12.368 21.550 C 12.784 21.317,12.860 20.696,12.513 20.372 C 12.377 20.244,12.149 20.160,11.942 20.160 C 11.477 20.160,9.864 19.383,8.685 18.591 C 7.427 17.746,6.128 16.569,5.251 15.480 C 4.204 14.181,3.375 12.534,3.026 11.060 C 2.858 10.347,2.798 9.867,2.773 9.040 C 2.755 8.414,2.764 8.185,2.817 7.880 C 2.992 6.875,3.456 5.985,4.181 5.261 C 5.565 3.876,7.619 3.471,9.400 4.230 C 10.174 4.560,10.658 4.928,11.350 5.711 C 11.630 6.028,11.777 6.100,12.082 6.071 C 12.330 6.047,12.420 5.985,12.725 5.631 C 13.515 4.711,14.456 4.143,15.516 3.944 C 17.119 3.643,18.679 4.120,19.819 5.261 C 20.540 5.981,21.007 6.875,21.177 7.860 C 21.334 8.765,21.203 10.259,20.862 11.474 C 20.731 11.939,20.730 12.162,20.858 12.381 C 20.972 12.575,21.081 12.656,21.314 12.718 C 21.606 12.797,22.001 12.629,22.136 12.368 C 22.213 12.218,22.416 11.464,22.516 10.960 C 22.714 9.956,22.789 8.552,22.683 7.820 C 22.316 5.287,20.541 3.263,18.093 2.585 C 17.476 2.414,17.183 2.380,16.380 2.383 C 15.758 2.385,15.546 2.401,15.216 2.472 C 14.130 2.706,13.108 3.212,12.300 3.916 C 12.146 4.050,12.011 4.160,12.000 4.159 C 11.989 4.159,11.854 4.050,11.700 3.918 C 10.874 3.207,9.859 2.702,8.806 2.478 C 8.435 2.399,7.224 2.337,6.960 2.383 M19.710 14.534 C 19.561 14.585,19.318 14.710,19.170 14.811 C 18.998 14.929,18.177 15.722,16.914 16.988 C 14.787 19.121,14.780 19.130,14.663 19.650 C 14.553 20.135,14.430 21.201,14.449 21.493 C 14.471 21.840,14.595 22.105,14.847 22.346 C 15.258 22.739,15.572 22.785,16.737 22.622 C 17.543 22.509,17.824 22.432,18.110 22.246 C 18.208 22.182,19.161 21.259,20.228 20.195 C 22.290 18.137,22.485 17.912,22.639 17.414 C 22.746 17.068,22.746 16.614,22.641 16.271 C 22.424 15.569,21.593 14.737,20.894 14.521 C 20.528 14.408,20.065 14.413,19.710 14.534 M20.552 15.996 C 20.723 16.083,21.080 16.446,21.175 16.630 C 21.211 16.699,21.240 16.798,21.240 16.850 C 21.240 16.970,21.055 17.257,20.853 17.450 L 20.696 17.600 20.498 17.476 C 20.224 17.305,19.900 16.985,19.714 16.702 L 19.558 16.465 19.749 16.269 C 19.958 16.055,20.170 15.925,20.312 15.922 C 20.362 15.921,20.470 15.954,20.552 15.996 M18.576 17.684 C 18.686 17.870,19.143 18.341,19.375 18.508 C 19.488 18.589,19.588 18.661,19.598 18.669 C 19.623 18.688,17.361 20.954,17.264 21.007 C 17.189 21.048,15.972 21.239,15.947 21.213 C 15.939 21.206,15.976 20.908,16.027 20.550 L 16.121 19.900 17.290 18.730 C 17.933 18.087,18.469 17.560,18.481 17.560 C 18.493 17.560,18.536 17.616,18.576 17.684 " stroke="none" fill-rule="evenodd" fill="black"></path></svg>