<svg width="24" height="24" viewBox="0 0 24 24" fill="none" xmlns="http://www.w3.org/2000/svg"><path d="M6.960 2.383 C 6.905 2.392,6.725 2.420,6.560 2.444 C 4.803 2.697,3.163 3.802,2.175 5.400 C 1.795 6.015,1.462 6.916,1.339 7.659 C 1.234 8.300,1.253 9.554,1.382 10.415 C 1.574 11.698,2.004 13.007,2.619 14.180 C 3.936 16.694,6.153 18.904,8.980 20.523 C 9.771 20.977,10.811 21.440,11.348 21.581 C 11.705 21.673,12.174 21.660,12.368 21.550 C 12.784 21.317,12.860 20.696,12.513 20.372 C 12.377 20.244,12.149 20.160,11.942 20.160 C 11.477 20.160,9.864 19.383,8.685 18.591 C 7.427 17.746,6.128 16.569,5.251 15.480 C 4.204 14.181,3.375 12.534,3.026 11.060 C 2.858 10.347,2.798 9.867,2.773 9.040 C 2.755 8.414,2.764 8.185,2.817 7.880 C 2.992 6.875,3.456 5.985,4.181 5.261 C 5.565 3.876,7.619 3.471,9.400 4.230 C 10.174 4.560,10.658 4.928,11.350 5.711 C 11.630 6.028,11.777 6.100,12.082 6.071 C 12.330 6.047,12.420 5.985,12.725 5.631 C 13.515 4.711,14.456 4.143,15.516 3.944 C 17.119 3.643,18.679 4.120,19.819 5.261 C 20.540 5.981,21.007 6.875,21.177 7.860 C 21.334 8.765,21.203 10.259,20.862 11.474 C 20.731 11.939,20.730 12.162,20.858 12.381 C 20.972 12.575,21.081 12.656,21.314 12.718 C 21.606 12.797,22.001 12.629,22.136 12.368 C 22.213 12.218,22.416 11.464,22.516 10.960 C 22.714 9.956,22.789 8.552,22.683 7.820 C 22.316 5.287,20.541 3.263,18.093 2.585 C 17.476 2.414,17.183 2.380,16.380 2.383 C 15.758 2.385,15.546 2.401,15.216 2.472 C 14.130 2.706,13.108 3.212,12.300 3.916 C 12.146 4.050,12.011 4.160,12.000 4.159 C 11.989 4.159,11.854 4.050,11.700 3.918 C 10.874 3.207,9.859 2.702,8.806 2.478 C 8.435 2.399,7.224 2.337,6.960 2.383 M17.331 13.883 C 15.701 14.039,14.357 15.207,13.911 16.855 C 13.784 17.324,13.784 18.276,13.911 18.745 C 14.230 19.921,14.970 20.832,16.020 21.342 C 16.463 21.557,16.868 21.670,17.362 21.716 C 18.130 21.788,18.853 21.650,19.544 21.299 L 19.956 21.090 20.508 21.640 C 20.812 21.943,21.123 22.222,21.199 22.261 C 21.371 22.348,21.701 22.353,21.861 22.269 C 22.225 22.079,22.376 21.668,22.220 21.294 C 22.185 21.211,21.918 20.907,21.588 20.575 L 21.016 20.000 21.125 19.825 C 21.280 19.575,21.467 19.121,21.569 18.745 C 21.696 18.276,21.696 17.324,21.569 16.855 C 21.324 15.950,20.837 15.212,20.123 14.662 C 19.347 14.065,18.346 13.786,17.331 13.883 M18.549 15.478 C 19.497 15.814,20.199 16.801,20.199 17.800 C 20.199 18.809,19.491 19.795,18.528 20.128 C 18.301 20.206,18.180 20.220,17.740 20.220 C 17.300 20.220,17.179 20.206,16.952 20.128 C 16.163 19.855,15.511 19.116,15.340 18.300 C 15.075 17.036,15.860 15.767,17.120 15.421 C 17.448 15.331,18.220 15.362,18.549 15.478 " stroke="none" fill-rule="evenodd" fill="black"></path></svg>