<svg width="24" height="24" viewBox="0 0 24 24" fill="none" xmlns="http://www.w3.org/2000/svg"><path d="M8.080 1.282 C 4.008 1.495,1.895 3.296,1.383 6.991 C 1.270 7.803,1.242 8.816,1.242 12.000 C 1.242 16.504,1.302 17.273,1.760 18.650 C 2.532 20.963,4.206 22.226,7.027 22.622 C 7.786 22.728,8.902 22.759,12.000 22.759 C 15.098 22.759,16.214 22.728,16.973 22.622 C 19.443 22.275,20.996 21.288,21.897 19.490 C 22.379 18.530,22.638 17.369,22.720 15.807 C 22.771 14.838,22.771 9.162,22.720 8.193 C 22.657 6.998,22.521 6.191,22.242 5.356 C 21.632 3.531,20.469 2.367,18.650 1.760 C 17.788 1.473,17.023 1.344,15.806 1.280 C 14.952 1.235,8.952 1.237,8.080 1.282 M16.800 2.854 C 19.586 3.316,20.714 4.454,21.148 7.240 C 21.214 7.661,21.220 8.064,21.220 12.000 C 21.220 15.936,21.214 16.339,21.148 16.760 C 20.712 19.558,19.558 20.712,16.760 21.148 C 16.339 21.214,15.936 21.220,12.000 21.220 C 8.064 21.220,7.661 21.214,7.240 21.148 C 4.450 20.713,3.283 19.551,2.854 16.780 C 2.785 16.335,2.780 15.989,2.780 12.000 C 2.780 7.247,2.776 7.337,3.044 6.288 C 3.557 4.282,4.722 3.274,6.960 2.900 C 7.690 2.777,8.048 2.769,12.200 2.777 C 15.963 2.784,16.422 2.791,16.800 2.854 M7.590 5.281 C 6.977 5.355,6.523 5.588,6.039 6.076 C 5.494 6.627,5.271 7.166,5.269 7.940 C 5.267 8.430,5.322 8.685,5.522 9.100 C 5.802 9.683,6.224 10.113,6.770 10.372 L 7.039 10.500 7.030 12.134 L 7.020 13.768 6.836 13.838 C 6.204 14.078,5.595 14.737,5.375 15.420 C 5.289 15.688,5.272 15.815,5.272 16.200 C 5.272 16.585,5.289 16.712,5.375 16.980 C 5.619 17.736,6.264 18.381,7.020 18.625 C 7.479 18.773,8.121 18.773,8.580 18.625 C 9.115 18.453,9.618 18.063,9.948 17.565 C 10.466 16.785,10.466 15.615,9.948 14.835 C 9.663 14.406,9.173 13.993,8.764 13.838 L 8.580 13.768 8.569 13.044 C 8.563 12.646,8.566 12.320,8.575 12.320 C 8.584 12.320,8.697 12.372,8.826 12.436 C 8.955 12.499,9.186 12.592,9.340 12.643 C 9.606 12.729,9.702 12.735,11.220 12.760 C 12.899 12.788,12.989 12.798,13.441 12.992 C 13.865 13.174,14.387 13.600,14.624 13.960 L 14.729 14.118 14.595 14.229 C 14.217 14.541,13.918 14.976,13.775 15.420 C 13.627 15.879,13.627 16.521,13.775 16.980 C 14.019 17.736,14.664 18.381,15.420 18.625 C 15.879 18.773,16.521 18.773,16.980 18.625 C 17.736 18.381,18.381 17.736,18.625 16.980 C 18.773 16.521,18.773 15.879,18.625 15.420 C 18.323 14.483,17.478 13.789,16.501 13.678 C 16.324 13.658,16.175 13.625,16.168 13.605 C 16.117 13.452,15.611 12.768,15.380 12.540 C 14.847 12.014,14.082 11.572,13.398 11.395 C 13.088 11.315,12.927 11.306,11.460 11.282 C 9.932 11.257,9.850 11.252,9.640 11.168 C 9.370 11.059,9.084 10.852,8.938 10.661 C 8.878 10.582,8.836 10.514,8.844 10.509 C 8.853 10.504,9.004 10.429,9.180 10.342 C 9.640 10.114,10.123 9.628,10.354 9.160 C 11.033 7.783,10.482 6.187,9.100 5.522 C 8.624 5.293,8.137 5.215,7.590 5.281 M8.476 6.884 C 8.750 7.021,8.996 7.290,9.085 7.549 C 9.169 7.791,9.151 8.188,9.046 8.424 C 8.933 8.678,8.682 8.928,8.420 9.047 C 8.189 9.151,7.792 9.169,7.549 9.085 C 7.283 8.993,7.019 8.749,6.878 8.462 C 6.759 8.220,6.751 8.179,6.768 7.891 C 6.789 7.533,6.856 7.376,7.094 7.127 C 7.359 6.850,7.553 6.769,7.964 6.763 C 8.183 6.761,8.269 6.781,8.476 6.884 M8.269 15.254 C 8.433 15.339,8.657 15.562,8.749 15.731 C 8.845 15.907,8.848 16.488,8.754 16.660 C 8.665 16.822,8.425 17.064,8.268 17.150 C 8.088 17.248,7.511 17.247,7.331 17.149 C 7.165 17.059,6.939 16.833,6.859 16.677 C 6.778 16.522,6.742 16.218,6.777 15.988 C 6.825 15.664,7.140 15.303,7.465 15.199 C 7.637 15.144,8.121 15.177,8.269 15.254 M16.669 15.254 C 16.833 15.339,17.057 15.562,17.149 15.731 C 17.245 15.907,17.248 16.488,17.154 16.660 C 17.065 16.822,16.825 17.064,16.668 17.150 C 16.488 17.248,15.911 17.247,15.731 17.149 C 15.565 17.059,15.339 16.833,15.259 16.677 C 15.178 16.522,15.142 16.218,15.177 15.988 C 15.225 15.664,15.540 15.303,15.865 15.199 C 16.037 15.144,16.521 15.177,16.669 15.254 " stroke="none" fill-rule="evenodd" fill="black"></path></svg>