<svg width="24" height="24" viewBox="0 0 24 24" fill="none" xmlns="http://www.w3.org/2000/svg"><path d="M8.080 1.282 C 4.008 1.495,1.895 3.296,1.383 6.991 C 1.270 7.803,1.242 8.816,1.242 12.000 C 1.242 16.504,1.302 17.273,1.760 18.650 C 2.532 20.963,4.206 22.226,7.027 22.622 C 7.786 22.728,8.902 22.759,12.000 22.759 C 15.098 22.759,16.214 22.728,16.973 22.622 C 19.443 22.275,20.996 21.288,21.897 19.490 C 22.379 18.530,22.638 17.369,22.720 15.807 C 22.771 14.838,22.771 9.162,22.720 8.193 C 22.657 6.998,22.521 6.191,22.242 5.356 C 21.632 3.531,20.469 2.367,18.650 1.760 C 17.788 1.473,17.023 1.344,15.806 1.280 C 14.952 1.235,8.952 1.237,8.080 1.282 M16.800 2.854 C 19.586 3.316,20.714 4.454,21.148 7.240 C 21.214 7.661,21.220 8.064,21.220 12.000 C 21.220 15.936,21.214 16.339,21.148 16.760 C 20.712 19.558,19.558 20.712,16.760 21.148 C 16.339 21.214,15.936 21.220,12.000 21.220 C 8.064 21.220,7.661 21.214,7.240 21.148 C 4.450 20.713,3.283 19.551,2.854 16.780 C 2.785 16.335,2.780 15.989,2.780 12.000 C 2.780 7.247,2.776 7.337,3.044 6.288 C 3.557 4.282,4.722 3.274,6.960 2.900 C 7.690 2.777,8.048 2.769,12.200 2.777 C 15.963 2.784,16.422 2.791,16.800 2.854 M7.350 5.282 C 5.962 5.444,4.916 6.717,5.014 8.126 C 5.081 9.077,5.648 9.938,6.477 10.344 L 6.795 10.500 6.797 12.124 L 6.800 13.748 6.550 13.855 C 5.883 14.140,5.329 14.757,5.109 15.460 C 4.986 15.856,4.986 16.544,5.109 16.940 C 5.354 17.724,5.997 18.375,6.771 18.622 C 7.182 18.753,7.791 18.770,8.200 18.662 C 8.882 18.482,9.532 17.946,9.833 17.316 C 10.026 16.910,10.080 16.668,10.080 16.200 C 10.080 15.732,10.026 15.490,9.833 15.084 C 9.706 14.819,9.604 14.680,9.346 14.419 C 9.073 14.143,8.960 14.061,8.651 13.915 L 8.282 13.740 8.291 12.165 L 8.300 10.591 8.526 10.521 C 9.301 10.281,10.014 9.570,10.259 8.794 C 10.862 6.888,9.339 5.050,7.350 5.282 M13.837 5.286 C 13.675 5.330,11.754 6.903,11.620 7.102 C 11.559 7.192,11.540 7.286,11.540 7.500 C 11.540 7.714,11.559 7.808,11.620 7.898 C 11.664 7.963,12.148 8.389,12.695 8.845 C 13.475 9.494,13.728 9.683,13.862 9.716 C 14.237 9.811,14.587 9.633,14.738 9.271 C 14.862 8.973,14.789 8.694,14.516 8.430 L 14.320 8.240 14.916 8.240 C 15.442 8.240,15.522 8.249,15.606 8.316 L 15.700 8.393 15.711 11.069 L 15.722 13.745 15.491 13.839 C 14.761 14.138,14.115 14.897,13.964 15.632 C 13.908 15.904,13.908 16.496,13.964 16.768 C 14.139 17.619,14.935 18.439,15.805 18.665 C 16.209 18.771,16.821 18.752,17.229 18.622 C 18.003 18.375,18.646 17.724,18.891 16.940 C 19.014 16.544,19.014 15.856,18.891 15.460 C 18.672 14.758,18.117 14.140,17.452 13.855 L 17.203 13.749 17.191 10.945 C 17.177 7.824,17.191 7.981,16.898 7.540 C 16.715 7.264,16.381 6.991,16.080 6.872 C 15.887 6.795,15.764 6.782,15.094 6.769 L 14.328 6.753 14.520 6.566 C 14.788 6.306,14.862 6.025,14.738 5.729 C 14.586 5.366,14.214 5.183,13.837 5.286 M8.229 6.874 C 8.638 7.084,8.887 7.495,8.887 7.958 C 8.887 8.630,8.378 9.135,7.700 9.135 C 7.027 9.135,6.514 8.631,6.511 7.966 C 6.508 7.441,6.814 6.999,7.308 6.815 C 7.530 6.733,8.014 6.763,8.229 6.874 M7.885 15.201 C 7.965 15.223,8.116 15.317,8.221 15.409 C 8.786 15.906,8.712 16.695,8.060 17.111 C 7.939 17.189,7.832 17.218,7.611 17.232 C 7.357 17.248,7.296 17.237,7.103 17.143 C 6.729 16.960,6.512 16.614,6.512 16.200 C 6.512 15.486,7.175 15.003,7.885 15.201 M16.911 15.263 C 17.529 15.571,17.681 16.368,17.224 16.908 C 17.165 16.978,17.018 17.084,16.897 17.143 C 16.704 17.237,16.643 17.248,16.389 17.232 C 16.168 17.218,16.061 17.189,15.940 17.111 C 15.288 16.694,15.214 15.907,15.780 15.408 C 16.002 15.213,16.126 15.169,16.462 15.164 C 16.647 15.161,16.753 15.184,16.911 15.263 " stroke="none" fill-rule="evenodd" fill="black"></path></svg>