<svg width="24" height="24" viewBox="0 0 24 24" fill="none" xmlns="http://www.w3.org/2000/svg"><path d="M4.740 1.266 C 3.415 1.385,2.327 2.085,1.719 3.212 C 1.400 3.803,1.271 4.320,1.271 5.000 C 1.271 5.680,1.400 6.197,1.719 6.788 C 2.236 7.745,2.984 8.313,4.190 8.663 C 4.229 8.674,4.240 9.332,4.240 11.780 C 4.240 14.700,4.236 14.884,4.170 14.903 C 3.067 15.234,2.174 15.978,1.680 16.980 C 1.445 17.456,1.332 17.850,1.284 18.362 C 1.103 20.288,2.293 22.044,4.141 22.579 C 5.862 23.078,7.674 22.378,8.653 20.835 C 8.867 20.499,9.065 19.987,9.158 19.532 C 9.573 17.496,8.329 15.464,6.330 14.911 C 6.116 14.852,6.001 14.800,6.000 14.763 C 6.000 14.666,6.279 14.192,6.491 13.931 C 6.949 13.365,7.576 12.971,8.291 12.799 C 8.596 12.726,8.768 12.721,10.686 12.720 C 13.259 12.720,13.699 12.682,14.636 12.375 C 16.256 11.846,17.642 10.670,18.474 9.119 L 18.677 8.741 19.052 8.734 C 20.027 8.714,20.890 8.364,21.594 7.703 C 22.116 7.213,22.546 6.412,22.681 5.680 C 22.743 5.346,22.743 4.654,22.681 4.320 C 22.554 3.631,22.196 2.931,21.703 2.406 C 21.213 1.884,20.412 1.454,19.680 1.319 C 19.346 1.257,18.654 1.257,18.320 1.319 C 17.631 1.446,16.931 1.804,16.406 2.297 C 15.884 2.787,15.454 3.588,15.319 4.320 C 15.257 4.654,15.257 5.346,15.319 5.680 C 15.501 6.667,16.112 7.588,16.941 8.124 C 17.084 8.216,17.200 8.301,17.200 8.312 C 17.200 8.324,17.136 8.451,17.057 8.594 C 16.479 9.646,15.367 10.554,14.165 10.956 C 13.408 11.210,13.270 11.221,11.120 11.210 C 8.984 11.198,8.368 11.230,7.800 11.382 C 7.166 11.552,6.419 11.946,5.949 12.361 L 5.760 12.527 5.760 10.602 C 5.760 9.097,5.771 8.674,5.810 8.663 C 7.016 8.313,7.764 7.745,8.281 6.788 C 8.600 6.197,8.729 5.680,8.729 5.000 C 8.729 4.320,8.600 3.803,8.281 3.212 C 7.832 2.381,7.122 1.779,6.215 1.463 C 5.793 1.316,5.149 1.230,4.740 1.266 M5.578 2.821 C 5.949 2.918,6.274 3.112,6.581 3.419 C 7.041 3.879,7.240 4.356,7.240 5.000 C 7.240 5.644,7.041 6.121,6.581 6.581 C 6.121 7.041,5.644 7.240,5.000 7.240 C 4.356 7.240,3.879 7.041,3.419 6.581 C 2.959 6.121,2.760 5.644,2.760 5.000 C 2.760 4.356,2.959 3.879,3.419 3.419 C 3.719 3.118,4.050 2.919,4.404 2.823 C 4.692 2.746,5.285 2.745,5.578 2.821 M19.578 2.821 C 19.949 2.918,20.274 3.112,20.581 3.419 C 21.041 3.879,21.240 4.356,21.240 5.000 C 21.240 5.644,21.041 6.121,20.581 6.581 C 20.121 7.041,19.644 7.240,19.000 7.240 C 18.356 7.240,17.879 7.041,17.419 6.581 C 16.959 6.121,16.760 5.644,16.760 5.000 C 16.760 4.356,16.959 3.879,17.419 3.419 C 17.719 3.118,18.050 2.919,18.404 2.823 C 18.692 2.746,19.285 2.745,19.578 2.821 M6.000 16.357 C 6.729 16.583,7.416 17.268,7.642 17.997 C 7.918 18.887,7.672 19.859,7.002 20.520 C 6.669 20.849,6.281 21.074,5.862 21.180 C 5.559 21.256,4.974 21.256,4.650 21.180 C 3.800 20.979,3.021 20.200,2.820 19.350 C 2.744 19.026,2.744 18.441,2.820 18.138 C 3.045 17.249,3.816 16.503,4.720 16.299 C 5.060 16.223,5.654 16.249,6.000 16.357 " stroke="none" fill-rule="evenodd" fill="black"></path></svg>