<svg width="24" height="24" viewBox="0 0 24 24" fill="none" xmlns="http://www.w3.org/2000/svg"><path d="M10.940 1.305 C 10.043 1.440,9.396 1.680,8.775 2.106 C 8.172 2.520,3.084 6.516,2.799 6.800 C 2.414 7.184,2.167 7.537,1.852 8.155 C 1.592 8.665,1.402 9.208,1.312 9.700 C 1.272 9.917,1.260 10.915,1.260 14.120 C 1.260 17.920,1.266 18.291,1.331 18.637 C 1.679 20.478,3.013 21.980,4.778 22.518 C 5.460 22.725,5.264 22.720,12.000 22.720 C 17.336 22.720,18.320 22.711,18.607 22.661 C 20.560 22.321,22.146 20.846,22.601 18.948 C 22.749 18.329,22.766 17.744,22.750 13.780 C 22.733 9.628,22.746 9.867,22.493 9.080 C 22.366 8.682,22.057 8.059,21.779 7.637 C 21.671 7.474,21.402 7.159,21.181 6.939 C 20.819 6.576,20.464 6.317,17.500 4.244 C 15.696 2.983,14.085 1.881,13.920 1.796 C 13.584 1.623,13.159 1.473,12.740 1.379 C 12.466 1.317,11.202 1.265,10.940 1.305 M12.580 2.879 C 12.756 2.924,13.035 3.029,13.200 3.112 C 13.628 3.327,19.708 7.595,20.063 7.930 C 20.604 8.440,21.060 9.279,21.199 10.020 C 21.231 10.191,21.240 11.431,21.231 14.340 C 21.216 18.925,21.241 18.547,20.904 19.260 C 20.487 20.141,19.709 20.805,18.740 21.108 L 18.380 21.220 12.000 21.220 L 5.620 21.220 5.260 21.108 C 4.291 20.805,3.531 20.157,3.101 19.266 C 2.759 18.555,2.784 18.944,2.770 14.240 C 2.756 9.613,2.745 9.833,3.016 9.173 C 3.212 8.698,3.502 8.233,3.799 7.919 C 4.035 7.670,9.319 3.515,9.738 3.249 C 10.062 3.043,10.606 2.863,11.140 2.784 C 11.423 2.742,12.268 2.798,12.580 2.879 M10.107 8.282 C 9.935 8.301,9.662 8.353,9.501 8.397 C 8.148 8.768,7.087 9.925,6.823 11.314 C 6.730 11.806,6.730 15.194,6.823 15.686 C 7.010 16.672,7.609 17.566,8.456 18.124 C 8.862 18.392,9.269 18.561,9.761 18.667 C 10.062 18.732,10.310 18.740,12.000 18.740 C 13.690 18.740,13.938 18.732,14.239 18.667 C 14.731 18.561,15.138 18.392,15.545 18.124 C 16.309 17.620,16.872 16.841,17.132 15.928 C 17.217 15.629,17.219 15.560,17.219 13.500 C 17.219 11.440,17.217 11.371,17.132 11.072 C 16.736 9.678,15.670 8.657,14.280 8.338 C 14.025 8.280,13.710 8.268,12.200 8.258 C 11.221 8.252,10.279 8.263,10.107 8.282 M11.240 11.260 L 11.240 12.760 9.740 12.760 L 8.240 12.760 8.241 12.290 C 8.242 11.398,8.412 10.941,8.936 10.417 C 9.450 9.903,9.815 9.767,10.690 9.763 L 11.240 9.760 11.240 11.260 M14.055 9.820 C 14.479 9.931,14.721 10.074,15.064 10.417 C 15.588 10.941,15.758 11.398,15.759 12.290 L 15.760 12.760 14.260 12.760 L 12.760 12.760 12.760 11.260 L 12.760 9.760 13.292 9.760 C 13.636 9.760,13.905 9.781,14.055 9.820 M11.240 15.740 L 11.240 17.240 10.708 17.240 C 9.837 17.240,9.450 17.097,8.936 16.583 C 8.412 16.059,8.242 15.602,8.241 14.710 L 8.240 14.240 9.740 14.240 L 11.240 14.240 11.240 15.740 M15.759 14.710 C 15.758 15.602,15.588 16.059,15.064 16.583 C 14.550 17.097,14.163 17.240,13.292 17.240 L 12.760 17.240 12.760 15.740 L 12.760 14.240 14.260 14.240 L 15.760 14.240 15.759 14.710 " stroke="none" fill-rule="evenodd" fill="black"></path></svg>