<svg width="24" height="24" viewBox="0 0 24 24" fill="none" xmlns="http://www.w3.org/2000/svg"><path d="M10.940 1.305 C 10.043 1.440,9.396 1.680,8.775 2.106 C 8.172 2.520,3.084 6.516,2.799 6.800 C 2.414 7.184,2.167 7.537,1.852 8.155 C 1.592 8.665,1.402 9.208,1.312 9.700 C 1.272 9.917,1.260 10.915,1.260 14.120 C 1.260 17.920,1.266 18.291,1.331 18.637 C 1.679 20.478,3.013 21.980,4.778 22.518 C 5.460 22.725,5.264 22.720,12.000 22.720 C 17.336 22.720,18.320 22.711,18.607 22.661 C 20.560 22.321,22.146 20.846,22.601 18.948 C 22.749 18.329,22.766 17.744,22.750 13.780 C 22.733 9.628,22.746 9.867,22.493 9.080 C 22.366 8.682,22.057 8.059,21.779 7.637 C 21.671 7.474,21.402 7.159,21.181 6.939 C 20.819 6.576,20.464 6.317,17.500 4.244 C 15.696 2.983,14.085 1.881,13.920 1.796 C 13.584 1.623,13.159 1.473,12.740 1.379 C 12.466 1.317,11.202 1.265,10.940 1.305 M12.580 2.879 C 12.756 2.924,13.035 3.029,13.200 3.112 C 13.628 3.327,19.708 7.595,20.063 7.930 C 20.604 8.440,21.060 9.279,21.199 10.020 C 21.231 10.191,21.240 11.431,21.231 14.340 C 21.216 18.925,21.241 18.547,20.904 19.260 C 20.487 20.141,19.709 20.805,18.740 21.108 L 18.380 21.220 12.000 21.220 L 5.620 21.220 5.260 21.108 C 4.291 20.805,3.531 20.157,3.101 19.266 C 2.759 18.555,2.784 18.944,2.770 14.240 C 2.756 9.613,2.745 9.833,3.016 9.173 C 3.212 8.698,3.502 8.233,3.799 7.919 C 4.035 7.670,9.319 3.515,9.738 3.249 C 10.062 3.043,10.606 2.863,11.140 2.784 C 11.423 2.742,12.268 2.798,12.580 2.879 M7.180 10.835 C 6.990 10.923,6.904 11.012,6.822 11.210 C 6.740 11.406,6.745 11.625,6.837 11.820 C 6.942 12.044,10.204 15.294,10.409 15.379 C 10.617 15.465,10.833 15.455,11.042 15.350 C 11.200 15.270,11.287 15.160,11.818 14.368 L 12.416 13.477 13.549 14.608 L 14.681 15.740 14.471 15.764 C 14.124 15.803,13.939 15.930,13.822 16.210 C 13.740 16.405,13.745 16.624,13.835 16.820 C 13.923 17.010,14.012 17.096,14.210 17.178 C 14.415 17.264,16.613 17.270,16.811 17.185 C 16.967 17.118,17.140 16.941,17.197 16.787 C 17.224 16.717,17.240 16.238,17.240 15.516 C 17.240 14.300,17.226 14.185,17.048 13.986 C 16.946 13.870,16.680 13.762,16.500 13.762 C 16.320 13.762,16.054 13.870,15.952 13.986 C 15.843 14.108,15.760 14.343,15.760 14.529 L 15.760 14.700 14.250 13.191 C 13.225 12.167,12.692 11.663,12.591 11.621 C 12.383 11.535,12.167 11.545,11.958 11.650 C 11.800 11.730,11.713 11.840,11.182 12.632 L 10.584 13.523 9.262 12.203 C 8.373 11.315,7.891 10.863,7.791 10.821 C 7.595 10.740,7.376 10.745,7.180 10.835 " stroke="none" fill-rule="evenodd" fill="black"></path></svg>