<svg width="24" height="24" viewBox="0 0 24 24" fill="none" xmlns="http://www.w3.org/2000/svg"><path d="M11.340 1.482 C 10.809 1.564,10.199 1.810,9.786 2.106 C 9.343 2.425,2.604 7.843,2.397 8.047 C 1.901 8.538,1.480 9.369,1.317 10.180 C 1.196 10.786,1.225 11.028,1.917 15.159 C 2.680 19.709,2.676 19.689,2.838 20.110 C 3.256 21.194,4.337 22.137,5.520 22.450 L 5.860 22.540 12.000 22.540 L 18.140 22.540 18.480 22.450 C 19.653 22.137,20.749 21.179,21.164 20.102 C 21.322 19.693,21.317 19.724,22.081 15.160 C 22.847 10.587,22.842 10.648,22.540 9.680 C 22.317 8.966,21.955 8.369,21.477 7.931 C 21.377 7.839,19.685 6.475,17.717 4.901 C 14.492 2.320,14.101 2.019,13.740 1.840 C 13.208 1.576,12.800 1.480,12.120 1.460 C 11.823 1.451,11.472 1.461,11.340 1.482 M12.674 3.025 C 12.795 3.057,13.000 3.140,13.131 3.209 C 13.382 3.343,20.294 8.848,20.578 9.141 C 20.921 9.493,21.196 10.170,21.227 10.740 C 21.245 11.070,21.190 11.442,20.563 15.190 C 20.165 17.567,19.846 19.368,19.800 19.492 C 19.631 19.943,19.280 20.370,18.843 20.655 C 18.482 20.891,18.217 20.994,17.851 21.043 C 17.647 21.069,15.559 21.080,11.780 21.072 L 6.020 21.060 5.760 20.967 C 5.041 20.709,4.445 20.146,4.202 19.496 C 4.154 19.367,3.843 17.619,3.437 15.190 C 2.801 11.388,2.754 11.073,2.772 10.720 C 2.804 10.092,3.063 9.497,3.480 9.093 C 3.623 8.954,5.302 7.590,7.212 6.062 C 9.676 4.090,10.756 3.250,10.932 3.167 C 11.442 2.926,12.091 2.873,12.674 3.025 M11.815 14.277 C 11.638 14.321,11.461 14.456,11.353 14.631 L 11.260 14.780 11.260 16.500 L 11.260 18.220 11.353 18.369 C 11.710 18.943,12.576 18.812,12.716 18.162 C 12.773 17.894,12.774 15.090,12.717 14.841 C 12.623 14.432,12.215 14.177,11.815 14.277 " stroke="none" fill-rule="evenodd" fill="black"></path></svg>