<svg width="24" height="24" viewBox="0 0 24 24" fill="none" xmlns="http://www.w3.org/2000/svg"><path d="M10.940 1.305 C 10.043 1.440,9.396 1.680,8.775 2.106 C 8.172 2.520,3.084 6.516,2.799 6.800 C 2.414 7.184,2.167 7.537,1.852 8.155 C 1.592 8.665,1.402 9.208,1.312 9.700 C 1.272 9.917,1.260 10.915,1.260 14.120 C 1.260 17.920,1.266 18.291,1.331 18.637 C 1.679 20.478,3.013 21.980,4.778 22.518 C 5.460 22.725,5.264 22.720,12.000 22.720 C 18.736 22.720,18.540 22.725,19.222 22.518 C 20.641 22.085,21.827 20.999,22.381 19.625 C 22.753 18.703,22.769 18.454,22.750 13.780 C 22.733 9.628,22.746 9.867,22.493 9.080 C 22.365 8.680,22.055 8.055,21.778 7.637 C 21.669 7.474,21.400 7.159,21.180 6.938 C 20.817 6.574,20.478 6.325,17.500 4.244 C 15.696 2.982,14.085 1.881,13.920 1.796 C 13.584 1.623,13.159 1.473,12.740 1.379 C 12.466 1.317,11.202 1.265,10.940 1.305 M12.580 2.879 C 12.756 2.924,13.035 3.029,13.200 3.112 C 13.628 3.327,19.708 7.595,20.063 7.930 C 20.604 8.440,21.060 9.279,21.199 10.020 C 21.231 10.191,21.240 11.431,21.231 14.340 C 21.216 18.925,21.241 18.547,20.904 19.260 C 20.487 20.141,19.709 20.805,18.740 21.108 L 18.380 21.220 12.000 21.220 L 5.620 21.220 5.260 21.108 C 4.291 20.805,3.531 20.157,3.101 19.266 C 2.759 18.555,2.784 18.944,2.770 14.240 C 2.756 9.613,2.745 9.833,3.016 9.173 C 3.212 8.698,3.502 8.233,3.799 7.919 C 4.026 7.679,9.150 3.647,9.695 3.279 C 10.025 3.057,10.577 2.868,11.140 2.784 C 11.423 2.742,12.268 2.798,12.580 2.879 M11.698 14.315 C 11.517 14.398,11.335 14.593,11.290 14.753 C 11.273 14.812,11.260 15.607,11.260 16.520 L 11.260 18.180 11.360 18.354 C 11.494 18.590,11.723 18.720,12.000 18.720 C 12.277 18.720,12.506 18.590,12.640 18.354 L 12.740 18.180 12.740 16.520 C 12.740 15.607,12.727 14.812,12.710 14.753 C 12.637 14.491,12.290 14.242,12.000 14.242 C 11.923 14.242,11.787 14.275,11.698 14.315 " stroke="none" fill-rule="evenodd" fill="black"></path></svg>