<svg width="24" height="24" viewBox="0 0 24 24" fill="none" xmlns="http://www.w3.org/2000/svg"><path d="M10.940 1.305 C 10.043 1.440,9.396 1.680,8.775 2.106 C 8.172 2.520,3.084 6.516,2.799 6.800 C 2.414 7.184,2.167 7.537,1.852 8.155 C 1.592 8.665,1.402 9.208,1.312 9.700 C 1.272 9.917,1.260 10.915,1.260 14.120 C 1.260 17.920,1.266 18.291,1.331 18.637 C 1.679 20.478,3.013 21.980,4.778 22.518 C 5.460 22.725,5.264 22.720,12.000 22.720 C 17.336 22.720,18.320 22.711,18.607 22.661 C 20.560 22.321,22.146 20.846,22.601 18.948 C 22.749 18.329,22.766 17.744,22.750 13.780 C 22.733 9.628,22.746 9.867,22.493 9.080 C 22.366 8.682,22.057 8.059,21.779 7.637 C 21.671 7.474,21.402 7.159,21.181 6.939 C 20.819 6.576,20.464 6.317,17.500 4.244 C 15.696 2.983,14.085 1.881,13.920 1.796 C 13.584 1.623,13.159 1.473,12.740 1.379 C 12.466 1.317,11.202 1.265,10.940 1.305 M12.580 2.879 C 12.756 2.924,13.035 3.029,13.200 3.112 C 13.628 3.327,19.708 7.595,20.063 7.930 C 20.604 8.440,21.060 9.279,21.199 10.020 C 21.231 10.191,21.240 11.431,21.231 14.340 C 21.216 18.925,21.241 18.547,20.904 19.260 C 20.487 20.141,19.709 20.805,18.740 21.108 L 18.380 21.220 12.000 21.220 L 5.620 21.220 5.260 21.108 C 4.291 20.805,3.531 20.157,3.101 19.266 C 2.759 18.555,2.784 18.944,2.770 14.240 C 2.756 9.613,2.745 9.833,3.016 9.173 C 3.212 8.698,3.502 8.233,3.799 7.919 C 4.035 7.670,9.319 3.515,9.738 3.249 C 10.062 3.043,10.606 2.863,11.140 2.784 C 11.423 2.742,12.268 2.798,12.580 2.879 M14.180 10.835 C 13.990 10.923,13.904 11.012,13.822 11.210 C 13.674 11.564,13.815 11.982,14.140 12.150 C 14.206 12.185,14.355 12.223,14.471 12.236 L 14.681 12.260 13.549 13.392 L 12.416 14.523 11.818 13.632 C 11.287 12.840,11.200 12.730,11.042 12.650 C 10.825 12.541,10.595 12.536,10.380 12.637 C 10.156 12.742,6.906 16.004,6.821 16.209 C 6.708 16.484,6.783 16.869,6.986 17.048 C 7.102 17.151,7.340 17.240,7.500 17.240 C 7.798 17.240,7.905 17.152,9.262 15.797 L 10.584 14.477 11.182 15.368 C 11.713 16.160,11.800 16.270,11.958 16.350 C 12.167 16.455,12.383 16.465,12.591 16.379 C 12.692 16.337,13.225 15.833,14.250 14.809 L 15.760 13.300 15.760 13.471 C 15.760 13.657,15.843 13.892,15.952 14.014 C 16.131 14.217,16.517 14.292,16.790 14.178 C 16.988 14.096,17.077 14.010,17.165 13.820 C 17.231 13.677,17.238 13.540,17.239 12.493 C 17.240 11.763,17.224 11.283,17.197 11.213 C 17.174 11.151,17.107 11.048,17.047 10.985 C 16.845 10.769,16.785 10.760,15.511 10.761 C 14.461 10.762,14.324 10.769,14.180 10.835 " stroke="none" fill-rule="evenodd" fill="black"></path></svg>