<svg width="24" height="24" viewBox="0 0 24 24" fill="none" xmlns="http://www.w3.org/2000/svg"><path d="M11.340 1.482 C 10.809 1.564,10.199 1.810,9.786 2.106 C 9.343 2.425,2.604 7.843,2.397 8.047 C 1.901 8.538,1.480 9.369,1.317 10.180 C 1.196 10.786,1.225 11.028,1.917 15.159 C 2.680 19.709,2.676 19.689,2.838 20.110 C 3.256 21.194,4.337 22.137,5.520 22.450 L 5.860 22.540 12.000 22.540 L 18.140 22.540 18.480 22.450 C 19.655 22.137,20.749 21.180,21.164 20.102 C 21.322 19.693,21.317 19.724,22.081 15.160 C 22.847 10.587,22.842 10.648,22.540 9.680 C 22.317 8.966,21.955 8.369,21.477 7.931 C 21.377 7.839,19.685 6.475,17.717 4.901 C 14.492 2.320,14.101 2.019,13.740 1.840 C 13.208 1.576,12.800 1.480,12.120 1.460 C 11.823 1.451,11.472 1.461,11.340 1.482 M12.674 3.025 C 12.795 3.057,13.000 3.140,13.131 3.209 C 13.382 3.343,20.294 8.848,20.578 9.141 C 20.921 9.493,21.196 10.170,21.227 10.740 C 21.245 11.070,21.190 11.442,20.563 15.190 C 20.165 17.567,19.846 19.368,19.800 19.492 C 19.631 19.943,19.280 20.370,18.843 20.655 C 18.482 20.891,18.217 20.994,17.851 21.043 C 17.647 21.069,15.559 21.080,11.780 21.072 L 6.020 21.060 5.760 20.967 C 5.041 20.709,4.445 20.146,4.202 19.496 C 4.154 19.367,3.843 17.619,3.437 15.190 C 2.801 11.388,2.754 11.073,2.772 10.720 C 2.804 10.092,3.063 9.497,3.480 9.093 C 3.623 8.954,5.302 7.590,7.212 6.062 C 9.676 4.090,10.756 3.250,10.932 3.167 C 11.442 2.926,12.091 2.873,12.674 3.025 M10.940 9.795 C 9.733 10.016,8.754 10.468,7.760 11.262 C 7.292 11.636,7.090 11.855,7.039 12.043 C 6.908 12.529,7.260 13.000,7.754 13.000 C 7.976 13.000,8.157 12.901,8.512 12.586 C 9.081 12.081,9.816 11.654,10.480 11.443 C 11.875 10.998,13.360 11.185,14.649 11.968 C 14.999 12.181,15.214 12.344,15.578 12.675 C 15.850 12.921,16.009 13.000,16.236 13.000 C 16.655 13.000,16.971 12.681,16.971 12.260 C 16.971 11.997,16.902 11.872,16.594 11.577 C 15.713 10.737,14.509 10.102,13.290 9.837 C 12.726 9.714,11.502 9.692,10.940 9.795 M11.640 12.743 C 11.585 12.753,11.432 12.780,11.300 12.804 C 10.653 12.920,9.978 13.271,9.467 13.757 C 9.219 13.992,9.149 14.130,9.149 14.380 C 9.149 14.801,9.465 15.120,9.884 15.120 C 10.096 15.120,10.262 15.044,10.488 14.843 C 11.408 14.027,12.592 14.027,13.512 14.843 C 13.738 15.044,13.904 15.120,14.116 15.120 C 14.535 15.120,14.851 14.801,14.851 14.380 C 14.851 14.130,14.781 13.992,14.533 13.757 C 14.046 13.294,13.457 12.976,12.800 12.821 C 12.535 12.759,11.822 12.711,11.640 12.743 M11.689 16.056 C 11.452 16.134,11.262 16.289,11.131 16.511 C 11.036 16.672,11.020 16.744,11.020 17.000 C 11.020 17.257,11.036 17.327,11.133 17.492 C 11.356 17.871,11.789 18.060,12.217 17.964 C 12.929 17.805,13.232 16.975,12.789 16.394 C 12.549 16.080,12.069 15.932,11.689 16.056 " stroke="none" fill-rule="evenodd" fill="black"></path></svg>