<svg width="24" height="24" viewBox="0 0 24 24" fill="none" xmlns="http://www.w3.org/2000/svg"><path d="M11.289 1.881 C 11.128 1.923,10.876 2.021,10.729 2.099 C 10.466 2.238,3.444 7.672,3.085 8.013 C 2.665 8.414,2.351 9.061,2.281 9.672 C 2.257 9.877,2.241 11.427,2.240 13.440 C 2.240 15.321,2.228 17.844,2.213 19.046 L 2.187 21.231 1.961 21.257 C 1.531 21.305,1.267 21.591,1.267 22.007 C 1.267 22.203,1.286 22.270,1.383 22.408 C 1.448 22.499,1.572 22.610,1.660 22.656 L 1.820 22.740 11.880 22.751 C 19.099 22.758,22.000 22.749,22.154 22.717 C 22.568 22.631,22.804 22.250,22.711 21.816 C 22.639 21.479,22.296 21.240,21.884 21.240 L 21.763 21.240 21.750 15.390 C 21.737 8.914,21.757 9.404,21.482 8.813 C 21.335 8.497,21.207 8.310,20.970 8.066 C 20.685 7.772,13.605 2.284,13.287 2.110 C 12.727 1.804,11.929 1.713,11.289 1.881 M12.531 3.403 C 12.795 3.537,19.726 8.930,19.939 9.168 C 20.264 9.528,20.240 9.034,20.240 15.487 L 20.240 21.240 19.001 21.240 L 17.763 21.240 17.751 16.670 C 17.739 12.370,17.734 12.087,17.665 11.880 C 17.412 11.118,16.852 10.564,16.100 10.334 C 15.874 10.264,15.633 10.260,12.000 10.260 C 8.367 10.260,8.126 10.264,7.900 10.334 C 7.149 10.564,6.588 11.117,6.334 11.880 C 6.265 12.087,6.260 12.365,6.249 16.670 L 6.237 21.240 4.967 21.240 L 3.697 21.240 3.709 19.730 C 3.715 18.899,3.727 16.312,3.735 13.980 C 3.752 9.260,3.735 9.544,4.026 9.204 C 4.137 9.075,10.776 3.863,11.300 3.494 C 11.634 3.259,12.169 3.219,12.531 3.403 M10.180 6.835 C 9.990 6.923,9.904 7.012,9.822 7.210 C 9.708 7.483,9.783 7.869,9.986 8.048 C 10.194 8.234,10.263 8.240,12.009 8.239 C 13.525 8.238,13.673 8.232,13.820 8.165 C 14.010 8.077,14.096 7.988,14.178 7.790 C 14.257 7.602,14.257 7.398,14.178 7.210 C 14.096 7.012,14.010 6.923,13.820 6.835 C 13.673 6.768,13.526 6.762,12.000 6.762 C 10.474 6.762,10.327 6.768,10.180 6.835 M15.942 11.901 C 16.024 11.968,16.125 12.084,16.166 12.160 C 16.237 12.293,16.240 12.491,16.240 16.769 L 16.240 21.240 11.999 21.240 L 7.759 21.240 7.769 16.724 L 7.780 12.207 7.901 12.058 C 7.968 11.976,8.085 11.875,8.161 11.834 C 8.294 11.762,8.454 11.759,12.046 11.770 L 15.793 11.780 15.942 11.901 M9.619 15.617 C 9.529 15.671,9.415 15.790,9.359 15.887 C 9.261 16.058,9.260 16.073,9.260 17.000 C 9.260 17.928,9.261 17.942,9.360 18.114 C 9.641 18.606,10.359 18.606,10.640 18.114 C 10.739 17.942,10.740 17.928,10.740 17.000 C 10.740 16.072,10.739 16.058,10.640 15.886 C 10.438 15.532,9.968 15.408,9.619 15.617 " stroke="none" fill-rule="evenodd" fill="black"></path></svg>