<svg width="24" height="24" viewBox="0 0 24 24" fill="none" xmlns="http://www.w3.org/2000/svg"><path d="M11.289 1.881 C 11.128 1.923,10.876 2.021,10.729 2.099 C 10.466 2.238,3.444 7.672,3.085 8.013 C 2.665 8.414,2.351 9.061,2.281 9.672 C 2.257 9.877,2.241 11.427,2.240 13.440 C 2.240 15.321,2.228 17.844,2.213 19.046 L 2.187 21.231 1.961 21.257 C 1.531 21.305,1.267 21.591,1.267 22.007 C 1.267 22.203,1.286 22.270,1.383 22.408 C 1.448 22.499,1.572 22.610,1.660 22.656 L 1.820 22.740 11.880 22.751 C 19.099 22.758,22.000 22.749,22.154 22.717 C 22.568 22.631,22.804 22.250,22.711 21.816 C 22.639 21.479,22.296 21.240,21.884 21.240 L 21.763 21.240 21.750 15.390 C 21.737 8.914,21.757 9.404,21.482 8.813 C 21.247 8.309,21.023 8.060,20.279 7.481 L 19.773 7.086 19.746 6.633 C 19.732 6.384,19.720 5.662,19.720 5.029 C 19.720 3.796,19.707 3.699,19.508 3.487 C 19.290 3.253,19.370 3.261,17.000 3.248 L 14.820 3.237 14.143 2.715 C 13.396 2.140,13.139 1.992,12.689 1.877 C 12.289 1.775,11.687 1.776,11.289 1.881 M12.520 3.395 C 12.619 3.443,12.988 3.707,13.340 3.983 C 13.692 4.259,14.088 4.568,14.220 4.669 C 16.889 6.724,19.820 9.031,19.948 9.176 C 20.262 9.533,20.240 9.052,20.240 15.487 L 20.240 21.240 17.740 21.240 L 15.240 21.240 15.239 19.730 C 15.239 18.092,15.221 17.919,15.016 17.509 C 14.745 16.970,14.228 16.527,13.662 16.349 C 13.394 16.264,13.313 16.260,12.000 16.260 C 10.687 16.260,10.606 16.264,10.338 16.349 C 9.802 16.517,9.279 16.952,9.021 17.443 C 8.777 17.908,8.761 18.045,8.761 19.730 L 8.760 21.240 6.229 21.240 L 3.697 21.240 3.709 19.730 C 3.715 18.899,3.727 16.312,3.735 13.980 C 3.752 9.260,3.735 9.544,4.026 9.204 C 4.137 9.075,10.776 3.863,11.300 3.494 C 11.625 3.265,12.159 3.221,12.520 3.395 M18.240 5.325 C 18.240 5.771,18.229 5.882,18.190 5.851 C 18.163 5.830,17.852 5.592,17.500 5.321 C 17.148 5.051,16.843 4.814,16.822 4.795 C 16.800 4.775,17.099 4.760,17.512 4.760 L 18.240 4.760 18.240 5.325 M6.960 9.593 C 6.642 9.712,6.464 9.827,6.254 10.049 C 5.817 10.511,5.761 10.734,5.761 12.000 C 5.761 12.691,5.777 13.039,5.814 13.180 C 5.969 13.760,6.401 14.217,6.983 14.415 C 7.267 14.512,9.733 14.512,10.017 14.415 C 10.599 14.217,11.031 13.760,11.186 13.180 C 11.223 13.039,11.239 12.691,11.239 12.000 C 11.239 11.309,11.223 10.961,11.186 10.820 C 11.031 10.240,10.599 9.783,10.017 9.585 C 9.730 9.487,7.227 9.494,6.960 9.593 M13.960 9.593 C 13.642 9.712,13.464 9.827,13.254 10.049 C 13.026 10.290,12.894 10.521,12.814 10.820 C 12.740 11.100,12.740 12.900,12.814 13.180 C 12.969 13.760,13.401 14.217,13.983 14.415 C 14.267 14.512,16.733 14.512,17.017 14.415 C 17.599 14.217,18.031 13.760,18.186 13.180 C 18.223 13.039,18.239 12.691,18.239 12.000 C 18.239 11.309,18.223 10.961,18.186 10.820 C 18.031 10.240,17.599 9.783,17.017 9.585 C 16.730 9.487,14.227 9.494,13.960 9.593 M9.678 11.088 C 9.755 11.170,9.760 11.225,9.760 12.000 C 9.760 12.775,9.755 12.830,9.678 12.912 C 9.598 12.998,9.577 13.000,8.500 13.000 C 7.423 13.000,7.402 12.998,7.322 12.912 C 7.245 12.830,7.240 12.775,7.240 12.000 C 7.240 11.225,7.245 11.170,7.322 11.088 C 7.402 11.002,7.423 11.000,8.500 11.000 C 9.577 11.000,9.598 11.002,9.678 11.088 M16.678 11.088 C 16.755 11.170,16.760 11.225,16.760 12.000 C 16.760 12.775,16.755 12.830,16.678 12.912 C 16.598 12.998,16.577 13.000,15.500 13.000 C 14.423 13.000,14.402 12.998,14.322 12.912 C 14.245 12.830,14.240 12.775,14.240 12.000 C 14.240 11.225,14.245 11.170,14.322 11.088 C 14.402 11.002,14.423 11.000,15.500 11.000 C 16.577 11.000,16.598 11.002,16.678 11.088 M13.405 17.875 C 13.482 17.928,13.588 18.036,13.642 18.115 L 13.740 18.260 13.752 19.750 L 13.764 21.240 12.002 21.240 L 10.240 21.240 10.240 19.830 C 10.240 19.026,10.257 18.359,10.280 18.278 C 10.326 18.114,10.526 17.892,10.700 17.815 C 10.793 17.773,11.093 17.763,12.043 17.771 C 13.259 17.780,13.267 17.781,13.405 17.875 " stroke="none" fill-rule="evenodd" fill="black"></path></svg>