<svg width="24" height="24" viewBox="0 0 24 24" fill="none" xmlns="http://www.w3.org/2000/svg"><path d="M6.531 1.284 C 5.317 1.414,4.170 2.225,3.620 3.340 C 3.323 3.943,3.261 4.230,3.261 5.000 C 3.261 5.566,3.274 5.706,3.352 5.980 C 3.777 7.475,5.076 8.573,6.588 8.715 C 7.774 8.827,8.892 8.412,9.685 7.567 C 11.049 6.114,11.049 3.886,9.685 2.433 C 8.889 1.585,7.717 1.158,6.531 1.284 M7.532 2.820 C 7.926 2.922,8.237 3.108,8.564 3.435 C 9.029 3.901,9.209 4.339,9.209 5.000 C 9.209 5.661,9.029 6.099,8.564 6.565 C 8.090 7.039,7.616 7.240,6.967 7.240 C 6.335 7.240,5.847 7.041,5.400 6.600 C 4.916 6.122,4.741 5.697,4.741 5.000 C 4.741 4.303,4.916 3.878,5.401 3.400 C 5.851 2.956,6.307 2.768,6.942 2.763 C 7.143 2.761,7.405 2.786,7.532 2.820 M16.120 7.001 C 15.801 7.039,15.396 7.189,15.067 7.389 C 14.726 7.597,14.138 8.192,13.870 8.600 C 13.748 8.787,13.193 9.759,12.638 10.760 C 12.084 11.761,11.580 12.652,11.520 12.740 C 11.370 12.959,11.048 13.253,10.836 13.366 C 10.687 13.445,10.602 13.460,10.280 13.460 C 9.925 13.460,9.884 13.451,9.653 13.326 C 9.394 13.186,9.074 12.873,8.591 12.291 C 8.146 11.756,7.445 11.289,6.863 11.141 C 6.104 10.948,5.319 11.081,4.686 11.509 C 3.963 11.998,3.799 12.245,2.582 14.677 C 2.026 15.790,1.524 16.837,1.466 17.003 C 1.114 18.029,1.185 19.227,1.655 20.220 C 2.262 21.501,3.333 22.352,4.740 22.671 C 4.988 22.728,5.765 22.737,11.580 22.750 C 18.381 22.765,18.851 22.756,19.455 22.601 C 21.494 22.079,22.902 20.071,22.690 17.988 C 22.665 17.741,22.598 17.380,22.541 17.184 C 22.426 16.790,19.349 9.570,19.029 8.945 C 18.328 7.573,17.266 6.863,16.120 7.001 M16.780 8.574 C 17.037 8.694,17.450 9.137,17.647 9.505 C 17.881 9.942,21.036 17.348,21.129 17.680 C 21.283 18.225,21.226 18.975,20.990 19.516 C 20.650 20.297,19.882 20.950,19.055 21.161 C 18.755 21.238,18.580 21.240,11.980 21.240 C 5.346 21.240,5.207 21.238,4.896 21.160 C 3.878 20.903,3.103 20.128,2.816 19.080 C 2.702 18.666,2.719 17.987,2.853 17.580 C 2.911 17.404,3.399 16.374,3.938 15.292 C 4.865 13.430,4.932 13.309,5.176 13.051 C 5.567 12.635,5.950 12.484,6.399 12.567 C 6.826 12.646,7.139 12.876,7.653 13.490 C 8.235 14.184,8.539 14.441,9.084 14.698 C 9.497 14.893,9.834 14.970,10.280 14.973 C 11.278 14.977,12.183 14.448,12.806 13.496 C 12.905 13.344,13.424 12.428,13.959 11.460 C 15.063 9.461,15.188 9.261,15.540 8.923 C 15.986 8.495,16.375 8.385,16.780 8.574 " stroke="none" fill-rule="evenodd" fill="black"></path></svg>