<svg width="24" height="24" viewBox="0 0 24 24" fill="none" xmlns="http://www.w3.org/2000/svg"><path d="M11.695 3.277 C 11.518 3.321,11.341 3.456,11.233 3.631 L 11.140 3.780 11.120 8.090 L 11.100 12.401 10.460 11.759 C 10.108 11.405,9.759 11.078,9.684 11.031 C 9.587 10.970,9.484 10.947,9.317 10.947 C 9.040 10.947,8.824 11.067,8.678 11.303 C 8.555 11.503,8.551 11.852,8.671 12.044 C 8.717 12.119,9.373 12.795,10.128 13.546 C 11.428 14.840,11.510 14.913,11.690 14.951 C 11.815 14.977,11.945 14.977,12.070 14.951 C 12.250 14.913,12.332 14.840,13.649 13.528 C 14.413 12.767,15.068 12.082,15.104 12.006 C 15.193 11.819,15.187 11.517,15.091 11.331 C 15.048 11.248,14.939 11.127,14.848 11.063 C 14.711 10.967,14.642 10.947,14.451 10.947 C 14.324 10.947,14.175 10.970,14.120 10.998 C 14.065 11.027,13.710 11.358,13.330 11.734 L 12.640 12.417 12.639 8.219 C 12.638 5.478,12.624 3.958,12.597 3.841 C 12.503 3.432,12.095 3.177,11.695 3.277 M3.720 11.485 C 3.590 11.536,3.410 11.708,3.327 11.860 C 3.273 11.957,3.263 12.079,3.271 12.500 C 3.325 15.379,4.701 17.998,6.940 19.487 C 7.375 19.777,8.289 20.231,8.775 20.398 C 10.793 21.096,13.207 21.096,15.225 20.398 C 15.710 20.231,16.624 19.777,17.060 19.488 C 19.305 17.997,20.677 15.371,20.730 12.460 C 20.740 11.935,20.713 11.840,20.494 11.633 C 20.353 11.499,20.201 11.440,20.000 11.440 C 19.799 11.440,19.647 11.499,19.506 11.633 C 19.304 11.824,19.271 11.937,19.238 12.559 C 19.221 12.878,19.187 13.266,19.163 13.420 C 18.725 16.197,17.075 18.216,14.569 19.039 C 12.976 19.562,11.024 19.562,9.431 19.039 C 6.925 18.216,5.275 16.198,4.837 13.420 C 4.813 13.266,4.779 12.878,4.762 12.559 C 4.741 12.164,4.711 11.939,4.669 11.859 C 4.588 11.704,4.409 11.536,4.267 11.483 C 4.129 11.430,3.854 11.431,3.720 11.485 " stroke="none" fill-rule="evenodd" fill="black"></path></svg>