<svg width="24" height="24" viewBox="0 0 24 24" fill="none" xmlns="http://www.w3.org/2000/svg"><path d="M11.320 1.281 C 9.259 1.398,7.250 2.142,5.530 3.424 C 4.912 3.884,3.884 4.912,3.424 5.530 C 1.875 7.608,1.136 10.050,1.281 12.610 C 1.402 14.759,2.118 16.717,3.424 18.470 C 3.880 19.083,4.909 20.111,5.530 20.575 C 7.606 22.126,10.070 22.870,12.627 22.717 C 14.790 22.588,16.724 21.879,18.470 20.575 C 19.087 20.115,20.115 19.087,20.575 18.470 C 21.876 16.728,22.588 14.788,22.717 12.635 C 22.763 11.874,22.732 11.692,22.522 11.482 C 22.175 11.135,21.618 11.203,21.357 11.624 C 21.281 11.748,21.265 11.850,21.238 12.398 C 21.168 13.791,20.854 14.983,20.233 16.209 C 19.798 17.066,19.343 17.695,18.622 18.434 C 17.805 19.273,17.063 19.814,16.060 20.303 C 14.747 20.944,13.463 21.240,12.000 21.240 C 10.537 21.240,9.253 20.944,7.940 20.303 C 6.937 19.814,6.195 19.273,5.378 18.434 C 4.611 17.648,4.170 17.024,3.698 16.060 C 3.057 14.752,2.760 13.465,2.760 12.000 C 2.760 10.538,3.060 9.239,3.696 7.940 C 4.188 6.934,4.729 6.194,5.566 5.378 C 6.351 4.612,6.973 4.172,7.940 3.697 C 9.096 3.129,10.552 2.760,11.640 2.760 C 12.118 2.760,12.341 2.699,12.520 2.520 C 12.918 2.122,12.730 1.423,12.189 1.286 C 12.087 1.261,11.963 1.243,11.912 1.246 C 11.862 1.250,11.595 1.265,11.320 1.281 M21.900 1.259 C 21.878 1.267,21.806 1.285,21.740 1.299 C 21.649 1.319,20.659 2.285,17.692 5.250 L 13.764 9.175 13.752 7.577 L 13.740 5.980 13.640 5.806 C 13.359 5.314,12.641 5.314,12.360 5.806 L 12.260 5.980 12.260 8.607 L 12.260 11.233 12.380 11.403 C 12.446 11.496,12.572 11.610,12.660 11.656 C 12.817 11.739,12.861 11.740,15.420 11.740 L 18.020 11.740 18.200 11.634 C 18.688 11.347,18.684 10.640,18.194 10.360 L 18.020 10.260 16.423 10.248 L 14.825 10.236 18.749 6.308 C 22.563 2.490,22.673 2.375,22.712 2.189 C 22.782 1.847,22.657 1.530,22.389 1.367 C 22.265 1.292,21.983 1.229,21.900 1.259 " stroke="none" fill-rule="evenodd" fill="black"></path></svg>