<svg width="24" height="24" viewBox="0 0 24 24" fill="none" xmlns="http://www.w3.org/2000/svg"><path d="M8.080 1.282 C 4.008 1.495,1.895 3.296,1.383 6.991 C 1.270 7.803,1.242 8.816,1.242 12.000 C 1.242 15.184,1.270 16.197,1.383 17.009 C 1.767 19.784,3.048 21.470,5.356 22.242 C 6.191 22.521,6.998 22.657,8.193 22.720 C 9.162 22.771,14.838 22.771,15.807 22.720 C 17.002 22.657,17.809 22.521,18.644 22.242 C 20.966 21.466,22.225 19.797,22.622 16.973 C 22.749 16.066,22.812 13.287,22.716 12.838 C 22.575 12.182,21.713 12.051,21.353 12.631 C 21.260 12.779,21.260 12.788,21.235 14.580 C 21.207 16.526,21.184 16.785,20.960 17.688 C 20.504 19.519,19.520 20.504,17.688 20.960 C 16.622 21.226,16.745 21.220,12.000 21.220 C 8.064 21.220,7.661 21.214,7.240 21.148 C 4.450 20.713,3.283 19.551,2.854 16.780 C 2.785 16.335,2.780 15.989,2.780 12.000 C 2.780 8.011,2.785 7.665,2.854 7.220 C 3.234 4.761,4.210 3.575,6.288 3.044 C 7.165 2.820,7.506 2.790,9.420 2.764 C 11.037 2.742,11.192 2.734,11.332 2.664 C 11.928 2.369,11.832 1.448,11.189 1.286 C 10.982 1.234,9.049 1.232,8.080 1.282 M21.900 1.259 C 21.878 1.267,21.806 1.285,21.740 1.299 C 21.649 1.319,20.659 2.285,17.692 5.250 L 13.764 9.175 13.752 7.577 L 13.740 5.980 13.640 5.806 C 13.359 5.314,12.641 5.314,12.360 5.806 L 12.260 5.980 12.260 8.607 L 12.260 11.233 12.380 11.403 C 12.446 11.496,12.572 11.610,12.660 11.656 C 12.817 11.739,12.861 11.740,15.420 11.740 L 18.020 11.740 18.200 11.634 C 18.688 11.347,18.684 10.640,18.194 10.360 L 18.020 10.260 16.423 10.248 L 14.825 10.236 18.749 6.308 C 22.563 2.490,22.673 2.375,22.712 2.189 C 22.782 1.847,22.657 1.530,22.389 1.367 C 22.265 1.292,21.983 1.229,21.900 1.259 " stroke="none" fill-rule="evenodd" fill="black"></path></svg>