<svg width="24" height="24" viewBox="0 0 24 24" fill="none" xmlns="http://www.w3.org/2000/svg"><path d="M8.080 1.282 C 4.008 1.495,1.895 3.296,1.383 6.991 C 1.270 7.803,1.242 8.816,1.242 12.000 C 1.242 16.504,1.302 17.273,1.760 18.650 C 2.532 20.963,4.206 22.226,7.027 22.622 C 7.786 22.728,8.902 22.759,12.000 22.759 C 15.098 22.759,16.214 22.728,16.973 22.622 C 19.443 22.275,20.996 21.288,21.897 19.490 C 22.379 18.530,22.638 17.369,22.720 15.807 C 22.771 14.838,22.771 9.162,22.720 8.193 C 22.657 6.998,22.521 6.191,22.242 5.356 C 21.632 3.531,20.469 2.367,18.650 1.760 C 17.788 1.473,17.023 1.344,15.806 1.280 C 14.952 1.235,8.952 1.237,8.080 1.282 M16.800 2.854 C 19.586 3.316,20.714 4.454,21.148 7.240 C 21.214 7.661,21.220 8.064,21.220 12.000 C 21.220 15.936,21.214 16.339,21.148 16.760 C 20.712 19.558,19.558 20.712,16.760 21.148 C 16.339 21.214,15.936 21.220,12.000 21.220 C 8.064 21.220,7.661 21.214,7.240 21.148 C 4.450 20.713,3.283 19.551,2.854 16.780 C 2.785 16.335,2.780 15.989,2.780 12.000 C 2.780 7.247,2.776 7.337,3.044 6.288 C 3.557 4.282,4.722 3.274,6.960 2.900 C 7.690 2.777,8.048 2.769,12.200 2.777 C 15.963 2.784,16.422 2.791,16.800 2.854 M17.329 6.056 C 17.092 6.134,16.902 6.289,16.771 6.511 C 16.676 6.672,16.660 6.744,16.660 7.000 C 16.660 7.257,16.676 7.327,16.773 7.492 C 16.996 7.871,17.429 8.060,17.857 7.964 C 18.569 7.805,18.872 6.975,18.429 6.394 C 18.189 6.080,17.709 5.932,17.329 6.056 M11.169 7.841 C 9.547 8.192,8.313 9.359,7.892 10.940 C 7.796 11.297,7.785 11.412,7.785 12.000 C 7.785 12.591,7.796 12.702,7.892 13.059 C 8.297 14.558,9.444 15.706,10.941 16.107 C 11.297 16.203,11.411 16.214,12.000 16.214 C 12.589 16.214,12.703 16.203,13.059 16.107 C 14.556 15.706,15.706 14.556,16.107 13.059 C 16.203 12.703,16.214 12.589,16.214 12.000 C 16.214 11.411,16.203 11.297,16.107 10.941 C 15.705 9.443,14.547 8.286,13.059 7.895 C 12.501 7.749,11.701 7.726,11.169 7.841 M12.720 9.338 C 13.462 9.539,14.136 10.107,14.478 10.820 C 14.683 11.247,14.739 11.498,14.739 12.000 C 14.739 12.502,14.683 12.753,14.478 13.180 C 14.204 13.751,13.752 14.204,13.180 14.478 C 12.753 14.683,12.502 14.739,12.000 14.739 C 11.498 14.739,11.247 14.683,10.820 14.478 C 10.248 14.204,9.796 13.751,9.522 13.180 C 9.317 12.753,9.261 12.502,9.261 12.000 C 9.261 11.498,9.317 11.247,9.522 10.820 C 9.879 10.076,10.621 9.472,11.360 9.325 C 11.481 9.301,11.616 9.272,11.660 9.262 C 11.807 9.228,12.497 9.278,12.720 9.338 " stroke="none" fill-rule="evenodd" fill="black"></path></svg>