<svg width="24" height="24" viewBox="0 0 24 24" fill="none" xmlns="http://www.w3.org/2000/svg"><path d="M12.300 1.697 C 11.972 1.772,11.638 1.926,11.345 2.137 C 11.210 2.234,9.424 3.994,7.376 6.047 C 4.559 8.870,3.617 9.839,3.509 10.020 C 3.430 10.153,3.316 10.405,3.255 10.580 C 3.156 10.868,3.145 10.954,3.145 11.440 C 3.144 11.919,3.156 12.016,3.252 12.303 C 3.311 12.481,3.433 12.742,3.523 12.883 C 3.638 13.064,4.373 13.827,5.994 15.452 C 7.262 16.724,8.383 17.826,8.484 17.902 C 8.962 18.256,9.457 18.413,10.100 18.414 C 10.867 18.415,11.378 18.216,11.985 17.681 C 12.180 17.509,12.952 16.755,13.699 16.004 L 15.059 14.641 17.299 16.878 C 18.843 18.420,19.586 19.135,19.689 19.178 C 20.000 19.308,20.406 19.218,20.594 18.979 C 20.786 18.735,20.803 18.355,20.634 18.107 C 20.587 18.037,19.557 16.986,18.345 15.771 L 16.143 13.562 17.723 11.971 C 18.628 11.060,19.368 10.282,19.454 10.150 C 20.150 9.086,20.060 7.765,19.227 6.799 C 18.742 6.237,14.670 2.221,14.422 2.059 C 14.291 1.974,14.030 1.851,13.842 1.785 C 13.549 1.683,13.431 1.664,13.020 1.654 C 12.714 1.646,12.453 1.662,12.300 1.697 M13.466 3.240 C 13.617 3.311,14.157 3.827,15.928 5.596 C 18.480 8.143,18.414 8.062,18.413 8.618 C 18.412 9.146,18.496 9.045,15.929 11.611 L 13.620 13.920 10.620 10.920 L 7.620 7.920 9.880 5.658 C 11.123 4.414,12.200 3.359,12.273 3.313 C 12.613 3.100,13.104 3.070,13.466 3.240 M9.570 11.990 L 12.560 14.980 11.670 15.866 C 11.181 16.354,10.717 16.785,10.640 16.826 C 10.438 16.932,9.804 16.931,9.580 16.824 C 9.385 16.731,4.924 12.303,4.777 12.056 C 4.572 11.712,4.569 11.182,4.770 10.840 C 4.846 10.712,6.510 9.000,6.559 9.000 C 6.571 9.000,7.926 10.346,9.570 11.990 M1.815 20.278 C 1.331 20.393,1.098 21.004,1.383 21.408 C 1.448 21.499,1.572 21.610,1.660 21.656 C 1.818 21.739,1.865 21.740,4.878 21.751 C 7.020 21.759,8.000 21.749,8.151 21.718 C 8.902 21.562,8.931 20.473,8.189 20.286 C 7.979 20.234,2.033 20.226,1.815 20.278 " stroke="none" fill-rule="evenodd" fill="black"></path></svg>