<svg width="24" height="24" viewBox="0 0 24 24" fill="none" xmlns="http://www.w3.org/2000/svg"><path d="M3.714 1.282 C 2.692 1.373,1.931 1.818,1.585 2.526 C 1.404 2.896,1.327 3.193,1.280 3.700 C 1.231 4.229,1.231 19.771,1.280 20.300 C 1.384 21.424,1.834 22.114,2.700 22.476 C 3.287 22.722,3.363 22.728,5.852 22.749 C 8.280 22.769,8.924 22.742,9.439 22.598 C 10.342 22.346,10.906 21.772,11.146 20.860 C 11.217 20.592,11.220 20.213,11.220 12.000 C 11.220 3.787,11.217 3.408,11.146 3.140 C 10.953 2.406,10.561 1.900,9.960 1.607 C 9.539 1.401,9.264 1.330,8.700 1.280 C 8.191 1.235,4.228 1.236,3.714 1.282 M15.236 1.282 C 14.192 1.375,13.431 1.825,13.073 2.561 C 12.760 3.204,12.780 2.806,12.780 8.500 C 12.780 13.311,12.784 13.595,12.854 13.860 C 13.047 14.594,13.439 15.100,14.040 15.393 C 14.461 15.599,14.736 15.670,15.300 15.720 C 15.867 15.771,19.599 15.771,20.200 15.720 C 21.546 15.607,22.341 15.023,22.621 13.940 C 22.742 13.473,22.757 12.854,22.757 8.500 C 22.757 4.146,22.742 3.527,22.621 3.060 C 22.342 1.984,21.553 1.399,20.220 1.280 C 19.712 1.235,15.748 1.236,15.236 1.282 M9.131 2.839 C 9.393 2.935,9.591 3.138,9.670 3.393 C 9.736 3.606,9.740 4.119,9.740 12.000 C 9.740 19.881,9.736 20.394,9.670 20.607 C 9.591 20.862,9.393 21.065,9.131 21.161 C 8.926 21.236,3.949 21.270,3.581 21.199 C 3.119 21.109,2.943 20.961,2.824 20.563 C 2.766 20.366,2.760 19.559,2.760 12.000 C 2.760 4.441,2.766 3.634,2.824 3.437 C 2.938 3.056,3.085 2.920,3.500 2.815 C 3.802 2.739,8.918 2.761,9.131 2.839 M20.448 2.805 C 20.888 2.898,21.060 3.047,21.176 3.437 C 21.233 3.632,21.240 4.160,21.240 8.500 C 21.240 12.840,21.233 13.368,21.176 13.563 C 21.093 13.840,20.991 13.983,20.806 14.077 C 20.495 14.235,20.286 14.245,17.600 14.231 C 14.771 14.215,14.854 14.222,14.559 13.970 C 14.243 13.699,14.260 14.014,14.260 8.520 C 14.260 4.510,14.270 3.622,14.315 3.444 C 14.410 3.077,14.672 2.863,15.120 2.788 C 15.368 2.746,20.245 2.762,20.448 2.805 " stroke="none" fill-rule="evenodd" fill="black"></path></svg>