<svg width="24" height="24" viewBox="0 0 24 24" fill="none" xmlns="http://www.w3.org/2000/svg"><path d="M8.080 1.282 C 4.008 1.495,1.895 3.296,1.383 6.991 C 1.270 7.803,1.242 8.816,1.242 12.000 C 1.242 16.504,1.302 17.273,1.760 18.650 C 2.532 20.963,4.206 22.226,7.027 22.622 C 7.786 22.728,8.902 22.759,12.000 22.759 C 15.098 22.759,16.214 22.728,16.973 22.622 C 19.443 22.275,20.996 21.288,21.897 19.490 C 22.379 18.530,22.638 17.369,22.720 15.807 C 22.771 14.838,22.771 9.162,22.720 8.193 C 22.657 6.998,22.521 6.191,22.242 5.356 C 21.632 3.531,20.469 2.367,18.650 1.760 C 17.788 1.473,17.023 1.344,15.806 1.280 C 14.952 1.235,8.952 1.237,8.080 1.282 M16.800 2.854 C 19.586 3.316,20.714 4.454,21.148 7.240 C 21.214 7.661,21.220 8.064,21.220 12.000 C 21.220 15.936,21.214 16.339,21.148 16.760 C 20.712 19.558,19.558 20.712,16.760 21.148 C 16.339 21.214,15.936 21.220,12.000 21.220 C 8.064 21.220,7.661 21.214,7.240 21.148 C 4.450 20.713,3.283 19.551,2.854 16.780 C 2.785 16.335,2.780 15.989,2.780 12.000 C 2.780 7.247,2.776 7.337,3.044 6.288 C 3.557 4.282,4.722 3.274,6.960 2.900 C 7.690 2.777,8.048 2.769,12.200 2.777 C 15.963 2.784,16.422 2.791,16.800 2.854 M12.980 5.786 C 11.397 5.914,9.996 6.755,9.172 8.072 C 8.923 8.471,8.696 9.009,8.575 9.495 C 8.450 9.997,8.405 10.860,8.478 11.361 L 8.526 11.691 7.290 12.936 C 6.175 14.058,6.043 14.205,5.943 14.435 C 5.740 14.897,5.729 15.093,5.853 16.010 C 5.977 16.926,6.061 17.171,6.366 17.502 C 6.747 17.915,6.967 18.005,7.923 18.138 C 8.754 18.254,8.939 18.261,9.220 18.186 C 9.710 18.055,9.755 18.019,11.064 16.714 L 12.310 15.472 12.593 15.516 C 12.998 15.579,13.761 15.570,14.180 15.497 C 16.270 15.135,17.858 13.493,18.182 11.360 C 18.328 10.397,18.178 9.434,17.742 8.538 C 16.984 6.981,15.538 5.975,13.806 5.802 C 13.403 5.761,13.314 5.759,12.980 5.786 M14.260 7.378 C 15.137 7.619,16.009 8.351,16.406 9.180 C 16.640 9.668,16.727 10.054,16.732 10.620 C 16.737 11.168,16.664 11.562,16.471 12.015 C 16.073 12.953,15.213 13.690,14.187 13.971 C 13.723 14.098,12.970 14.097,12.451 13.969 C 11.877 13.828,11.820 13.854,11.029 14.634 L 10.438 15.216 10.209 14.990 C 9.958 14.743,9.835 14.680,9.600 14.680 C 9.185 14.680,8.869 15.000,8.869 15.420 C 8.869 15.662,8.933 15.797,9.183 16.075 L 9.372 16.285 9.176 16.486 C 9.068 16.596,8.950 16.702,8.914 16.722 C 8.871 16.746,8.617 16.729,8.214 16.676 C 7.686 16.606,7.566 16.578,7.494 16.506 C 7.422 16.435,7.394 16.316,7.327 15.804 C 7.278 15.428,7.259 15.156,7.280 15.104 C 7.299 15.058,7.892 14.444,8.599 13.740 C 9.305 13.036,9.922 12.399,9.968 12.325 C 10.104 12.107,10.121 11.909,10.034 11.545 C 9.575 9.623,10.700 7.777,12.600 7.335 C 12.906 7.264,13.941 7.291,14.260 7.378 M13.000 9.784 C 12.667 9.928,12.401 10.335,12.401 10.700 C 12.401 11.070,12.670 11.477,13.009 11.618 C 13.091 11.652,13.267 11.680,13.400 11.680 C 13.819 11.680,14.122 11.486,14.305 11.100 C 14.534 10.615,14.291 9.990,13.791 9.782 C 13.603 9.703,13.183 9.704,13.000 9.784 " stroke="none" fill-rule="evenodd" fill="black"></path></svg>