<svg width="24" height="24" viewBox="0 0 24 24" fill="none" xmlns="http://www.w3.org/2000/svg"><path d="M13.240 1.345 C 11.781 1.562,10.329 2.196,9.200 3.109 C 9.035 3.242,8.702 3.556,8.459 3.806 C 7.772 4.514,7.354 5.111,6.937 5.980 C 6.163 7.593,5.933 9.415,6.279 11.200 L 6.353 11.580 4.086 13.860 C 2.455 15.501,1.782 16.204,1.686 16.369 C 1.485 16.712,1.357 17.058,1.292 17.434 C 1.240 17.736,1.241 17.827,1.300 18.296 C 1.458 19.552,1.609 20.508,1.681 20.712 C 1.896 21.325,2.426 21.916,3.008 22.194 C 3.413 22.387,3.441 22.393,4.960 22.601 C 6.322 22.788,6.502 22.787,7.085 22.584 C 7.643 22.390,7.698 22.342,10.123 19.929 L 12.426 17.638 12.694 17.700 C 13.842 17.966,15.267 17.935,16.518 17.616 C 17.778 17.294,18.858 16.729,19.871 15.862 C 22.711 13.431,23.551 9.328,21.902 5.940 C 21.468 5.048,20.987 4.378,20.276 3.671 C 18.996 2.401,17.371 1.599,15.552 1.340 C 15.026 1.265,13.755 1.268,13.240 1.345 M15.329 2.822 C 17.621 3.139,19.552 4.535,20.568 6.611 C 21.243 7.990,21.420 9.634,21.061 11.180 C 20.873 11.993,20.424 12.956,19.925 13.620 C 18.959 14.905,17.630 15.802,16.140 16.173 C 15.447 16.346,15.172 16.378,14.420 16.377 C 13.655 16.376,13.306 16.330,12.571 16.135 C 11.946 15.968,12.053 15.901,10.509 17.435 L 9.199 18.738 8.269 17.813 C 7.758 17.304,7.282 16.859,7.212 16.824 C 7.055 16.745,6.761 16.741,6.589 16.815 C 6.433 16.882,6.260 17.059,6.203 17.213 C 6.140 17.377,6.151 17.665,6.224 17.812 C 6.259 17.882,6.705 18.360,7.214 18.873 L 8.140 19.806 7.500 20.424 C 7.148 20.764,6.788 21.082,6.700 21.131 C 6.561 21.208,6.485 21.219,6.120 21.215 C 5.625 21.209,3.823 20.955,3.654 20.867 C 3.493 20.784,3.216 20.494,3.135 20.324 C 3.064 20.175,2.822 18.611,2.775 17.997 C 2.725 17.338,2.543 17.568,5.340 14.760 C 6.688 13.407,7.814 12.255,7.842 12.200 C 7.958 11.977,7.956 11.801,7.836 11.322 C 7.460 9.831,7.551 8.444,8.122 6.980 C 8.609 5.731,9.638 4.528,10.875 3.761 C 12.171 2.957,13.807 2.612,15.329 2.822 M14.180 7.281 C 13.086 7.427,12.276 8.360,12.270 9.480 C 12.267 10.129,12.470 10.630,12.920 11.080 C 13.363 11.523,13.868 11.731,14.500 11.731 C 15.132 11.731,15.637 11.523,16.080 11.080 C 16.523 10.637,16.731 10.132,16.731 9.500 C 16.731 8.868,16.523 8.363,16.080 7.920 C 15.575 7.415,14.894 7.186,14.180 7.281 M14.944 8.903 C 15.173 9.088,15.247 9.255,15.231 9.549 C 15.219 9.752,15.195 9.823,15.097 9.944 C 14.912 10.173,14.745 10.247,14.451 10.231 C 14.248 10.219,14.177 10.195,14.056 10.097 C 13.827 9.912,13.753 9.745,13.769 9.451 C 13.781 9.248,13.805 9.177,13.903 9.056 C 14.088 8.827,14.255 8.753,14.549 8.769 C 14.752 8.781,14.823 8.805,14.944 8.903 " stroke="none" fill-rule="evenodd" fill="black"></path></svg>