<svg width="24" height="24" viewBox="0 0 24 24" fill="none" xmlns="http://www.w3.org/2000/svg"><path d="M6.280 1.281 C 4.911 1.352,3.909 1.589,3.185 2.014 C 2.805 2.236,2.219 2.819,2.010 3.180 C 1.580 3.926,1.374 4.754,1.282 6.100 C 1.229 6.887,1.229 13.953,1.282 14.740 C 1.405 16.552,1.746 17.520,2.537 18.300 C 3.244 18.998,4.014 19.309,5.520 19.506 C 5.955 19.563,6.711 19.574,11.340 19.589 C 16.920 19.607,17.964 19.586,18.880 19.442 C 19.700 19.313,20.178 19.167,20.677 18.894 C 21.884 18.234,22.479 17.118,22.688 15.120 C 22.763 14.402,22.763 6.438,22.688 5.720 C 22.528 4.187,22.173 3.258,21.480 2.556 C 20.673 1.739,19.604 1.383,17.644 1.279 C 16.842 1.237,7.103 1.238,6.280 1.281 M18.280 2.822 C 19.383 2.948,19.970 3.163,20.403 3.596 C 20.807 4.001,20.991 4.460,21.149 5.455 C 21.214 5.861,21.220 6.295,21.220 10.420 C 21.220 14.545,21.214 14.979,21.149 15.385 C 20.992 16.377,20.808 16.834,20.401 17.241 C 20.088 17.555,19.778 17.716,19.219 17.856 C 18.319 18.082,18.243 18.084,11.740 18.070 C 6.314 18.057,5.744 18.050,5.380 17.987 C 3.548 17.671,3.025 17.067,2.792 15.000 C 2.717 14.339,2.717 6.501,2.792 5.840 C 3.027 3.761,3.599 3.111,5.414 2.862 C 5.659 2.828,5.923 2.794,6.000 2.787 C 6.077 2.779,8.750 2.770,11.940 2.766 C 16.945 2.761,17.814 2.769,18.280 2.822 M6.800 7.384 C 6.467 7.528,6.201 7.935,6.201 8.300 C 6.201 8.670,6.470 9.077,6.809 9.218 C 7.000 9.298,7.400 9.298,7.591 9.218 C 7.930 9.077,8.199 8.670,8.199 8.300 C 8.199 7.930,7.930 7.523,7.591 7.382 C 7.403 7.303,6.983 7.304,6.800 7.384 M10.042 7.428 C 9.331 7.801,9.339 8.829,10.055 9.179 C 10.249 9.274,10.317 9.287,10.554 9.274 C 10.907 9.254,11.164 9.106,11.339 8.822 C 11.448 8.646,11.460 8.593,11.460 8.300 C 11.460 8.007,11.448 7.954,11.339 7.778 C 11.161 7.489,10.905 7.345,10.544 7.327 C 10.294 7.315,10.234 7.327,10.042 7.428 M13.500 7.579 C 13.478 7.587,13.411 7.604,13.351 7.617 C 13.204 7.649,12.961 7.868,12.894 8.028 C 12.771 8.322,12.851 8.656,13.095 8.870 C 13.175 8.941,13.291 9.013,13.351 9.029 C 13.493 9.069,17.347 9.069,17.489 9.029 C 17.641 8.987,17.881 8.767,17.946 8.612 C 18.057 8.347,18.001 8.031,17.807 7.826 C 17.566 7.572,17.650 7.581,15.500 7.572 C 14.422 7.568,13.522 7.571,13.500 7.579 M6.512 13.400 C 6.042 13.541,5.842 14.170,6.146 14.550 C 6.398 14.865,5.886 14.840,11.991 14.840 C 16.531 14.840,17.464 14.831,17.571 14.785 C 17.727 14.718,17.900 14.541,17.957 14.387 C 18.058 14.122,17.971 13.731,17.773 13.552 C 17.552 13.352,17.800 13.360,12.011 13.363 C 9.046 13.365,6.571 13.382,6.512 13.400 M6.815 21.278 C 6.331 21.393,6.098 22.004,6.383 22.408 C 6.447 22.499,6.572 22.610,6.660 22.656 C 6.819 22.740,6.836 22.740,11.880 22.751 C 15.467 22.758,17.002 22.749,17.154 22.717 C 17.902 22.562,17.929 21.473,17.189 21.286 C 16.979 21.233,7.035 21.226,6.815 21.278 " stroke="none" fill-rule="evenodd" fill="black"></path></svg>