<svg width="24" height="24" viewBox="0 0 24 24" fill="none" xmlns="http://www.w3.org/2000/svg"><path d="M6.560 3.282 C 4.843 3.376,3.810 3.710,3.055 4.413 C 2.360 5.061,2.012 5.888,1.833 7.320 C 1.757 7.927,1.757 16.073,1.833 16.680 C 2.012 18.112,2.360 18.939,3.055 19.587 C 3.829 20.308,4.816 20.618,6.660 20.721 C 7.545 20.770,16.455 20.770,17.340 20.721 C 19.164 20.619,20.166 20.308,20.923 19.608 C 21.635 18.951,21.987 18.122,22.167 16.680 C 22.243 16.073,22.243 7.927,22.167 7.320 C 22.059 6.455,21.896 5.846,21.639 5.344 C 21.426 4.926,21.253 4.697,20.923 4.392 C 20.166 3.692,19.164 3.381,17.340 3.279 C 16.552 3.236,7.363 3.238,6.560 3.282 M18.280 4.850 C 18.789 4.944,18.972 4.990,19.254 5.096 C 19.932 5.352,20.313 5.809,20.520 6.620 C 20.735 7.462,20.740 7.577,20.740 12.000 C 20.740 15.674,20.733 16.150,20.671 16.580 C 20.534 17.530,20.348 18.044,20.013 18.404 C 19.623 18.823,19.154 19.013,18.140 19.166 C 17.610 19.246,6.390 19.246,5.860 19.166 C 4.851 19.014,4.377 18.822,3.994 18.411 C 3.692 18.088,3.538 17.725,3.403 17.025 C 3.254 16.249,3.233 15.494,3.250 11.560 C 3.268 7.560,3.275 7.424,3.480 6.619 C 3.720 5.681,4.216 5.194,5.160 4.968 C 5.454 4.898,5.640 4.869,6.340 4.785 C 6.406 4.777,9.043 4.774,12.200 4.779 C 17.211 4.787,17.983 4.796,18.280 4.850 M6.840 9.035 C 6.543 9.132,6.288 9.355,6.182 9.609 C 6.148 9.691,6.120 9.867,6.120 10.000 C 6.120 10.286,6.196 10.490,6.372 10.674 C 6.585 10.896,6.781 10.978,7.100 10.978 C 7.419 10.978,7.615 10.896,7.828 10.674 C 8.004 10.490,8.080 10.286,8.080 10.000 C 8.080 9.600,7.894 9.293,7.543 9.112 C 7.371 9.024,6.999 8.983,6.840 9.035 M9.840 9.035 C 9.543 9.132,9.288 9.355,9.182 9.609 C 9.148 9.691,9.120 9.867,9.120 10.000 C 9.120 10.286,9.196 10.490,9.372 10.674 C 9.585 10.896,9.781 10.978,10.100 10.978 C 10.419 10.978,10.615 10.896,10.828 10.674 C 11.004 10.490,11.080 10.286,11.080 10.000 C 11.080 9.600,10.894 9.293,10.543 9.112 C 10.371 9.024,9.999 8.983,9.840 9.035 M13.420 9.260 C 13.398 9.267,13.331 9.284,13.271 9.297 C 13.124 9.329,12.881 9.548,12.814 9.708 C 12.703 9.973,12.759 10.289,12.953 10.494 C 13.192 10.747,13.127 10.739,15.114 10.752 C 17.188 10.766,17.284 10.756,17.519 10.521 C 17.918 10.122,17.731 9.423,17.189 9.286 C 17.062 9.254,16.453 9.241,15.232 9.243 C 14.258 9.245,13.442 9.252,13.420 9.260 M6.720 14.805 C 6.458 14.909,6.269 15.200,6.269 15.500 C 6.269 15.807,6.460 16.095,6.733 16.197 C 6.890 16.257,17.110 16.257,17.267 16.197 C 17.540 16.095,17.731 15.807,17.731 15.500 C 17.731 15.193,17.540 14.905,17.267 14.803 C 17.116 14.745,6.864 14.748,6.720 14.805 " stroke="none" fill-rule="evenodd" fill="black"></path></svg>