<svg width="24" height="24" viewBox="0 0 24 24" fill="none" xmlns="http://www.w3.org/2000/svg"><path d="M7.660 1.278 C 6.604 1.406,5.517 2.236,5.160 3.188 C 5.088 3.382,2.963 11.121,2.796 11.800 C 2.716 12.124,2.727 12.957,2.815 13.280 C 3.091 14.293,3.843 15.031,4.904 15.329 C 5.215 15.416,5.263 15.418,8.230 15.431 L 11.240 15.444 11.240 18.340 L 11.240 21.236 9.507 21.248 L 7.774 21.260 7.612 21.367 C 7.372 21.526,7.267 21.721,7.267 22.007 C 7.267 22.203,7.286 22.270,7.383 22.408 C 7.447 22.499,7.572 22.610,7.660 22.656 C 7.819 22.739,7.851 22.740,11.879 22.751 C 14.744 22.759,16.001 22.749,16.153 22.717 C 16.902 22.562,16.930 21.473,16.189 21.286 C 16.064 21.255,15.479 21.240,14.382 21.240 L 12.760 21.240 12.760 18.342 L 12.760 15.444 15.770 15.431 C 18.740 15.418,18.784 15.416,19.098 15.328 C 20.147 15.034,20.926 14.276,21.182 13.300 C 21.273 12.949,21.300 12.377,21.242 12.012 C 21.164 11.525,18.932 3.377,18.797 3.084 C 18.425 2.281,17.656 1.628,16.754 1.352 L 16.460 1.263 12.180 1.256 C 9.826 1.252,7.792 1.262,7.660 1.278 M16.638 2.914 C 16.934 3.069,17.309 3.427,17.419 3.660 C 17.460 3.748,18.007 5.692,18.633 7.980 C 19.715 11.932,19.772 12.158,19.776 12.500 C 19.780 12.815,19.766 12.890,19.668 13.100 C 19.451 13.564,19.061 13.837,18.497 13.918 C 18.120 13.973,5.880 13.973,5.503 13.918 C 4.939 13.837,4.547 13.563,4.333 13.100 C 4.238 12.895,4.222 12.810,4.224 12.520 C 4.225 12.201,4.298 11.915,5.374 7.984 C 6.134 5.205,6.558 3.721,6.629 3.590 C 6.804 3.269,7.253 2.917,7.640 2.797 C 7.695 2.780,9.684 2.769,12.060 2.773 L 16.380 2.780 16.638 2.914 " stroke="none" fill-rule="evenodd" fill="black"></path></svg>