<svg width="24" height="24" viewBox="0 0 24 24" fill="none" xmlns="http://www.w3.org/2000/svg"><path d="M11.480 1.263 C 10.271 1.365,9.241 1.641,8.220 2.136 C 5.824 3.298,4.070 5.558,3.543 8.160 C 3.268 9.516,3.320 10.837,3.700 12.140 C 4.234 13.968,5.540 15.805,7.156 17.002 L 7.559 17.300 7.559 17.963 C 7.560 18.706,7.602 18.921,7.801 19.195 C 7.962 19.417,8.222 19.577,8.552 19.658 C 8.791 19.716,9.174 19.722,12.080 19.711 C 15.335 19.700,15.340 19.700,15.555 19.612 C 15.871 19.482,16.062 19.335,16.213 19.105 C 16.427 18.779,16.450 18.676,16.470 17.936 L 16.489 17.252 16.605 17.183 C 16.959 16.974,17.697 16.322,18.192 15.780 C 19.897 13.915,20.807 11.367,20.602 9.029 C 20.337 6.001,18.600 3.477,15.860 2.139 C 14.993 1.715,14.233 1.481,13.274 1.342 C 12.848 1.280,11.819 1.235,11.480 1.263 M13.308 2.857 C 14.612 3.086,15.779 3.647,16.808 4.539 C 17.716 5.326,18.427 6.419,18.813 7.620 C 19.061 8.393,19.100 8.672,19.100 9.680 C 19.100 10.469,19.089 10.634,19.007 11.020 C 18.566 13.112,17.283 14.972,15.466 16.156 C 15.038 16.435,15.024 16.475,15.000 17.420 L 14.980 18.220 12.010 18.230 L 9.040 18.241 9.040 17.479 C 9.040 16.473,9.047 16.487,8.335 16.005 C 6.901 15.035,5.701 13.462,5.185 11.880 C 4.188 8.817,5.581 5.339,8.467 3.687 C 9.896 2.870,11.656 2.568,13.308 2.857 M11.637 7.239 C 11.460 7.332,11.416 7.399,10.748 8.564 C 10.212 9.498,10.080 9.798,10.080 10.080 C 10.080 10.504,10.372 10.947,10.769 11.123 C 10.950 11.204,11.065 11.220,11.587 11.239 L 12.194 11.260 11.729 12.076 C 11.300 12.827,11.263 12.909,11.264 13.096 C 11.267 13.530,11.573 13.840,11.998 13.840 C 12.238 13.840,12.479 13.727,12.589 13.562 C 12.866 13.150,13.841 11.361,13.882 11.193 C 13.978 10.793,13.838 10.352,13.524 10.068 C 13.253 9.824,13.132 9.790,12.430 9.764 L 11.801 9.740 12.269 8.920 C 12.697 8.171,12.737 8.083,12.736 7.900 C 12.733 7.467,12.424 7.158,11.996 7.162 C 11.865 7.163,11.724 7.193,11.637 7.239 M11.220 20.783 C 11.132 20.792,10.862 20.818,10.620 20.841 C 10.072 20.893,9.405 21.010,8.780 21.164 C 8.177 21.313,8.118 21.337,7.968 21.493 C 7.547 21.928,7.784 22.618,8.394 22.734 C 8.482 22.751,8.685 22.720,8.994 22.642 C 10.067 22.373,10.910 22.269,12.000 22.269 C 13.090 22.269,13.933 22.373,15.006 22.642 C 15.596 22.790,15.794 22.762,16.047 22.494 C 16.234 22.297,16.294 21.989,16.198 21.733 C 16.143 21.589,15.940 21.377,15.805 21.324 C 15.460 21.188,14.162 20.922,13.440 20.840 C 13.045 20.795,11.499 20.756,11.220 20.783 " stroke="none" fill-rule="evenodd" fill="black"></path></svg>