<svg width="24" height="24" viewBox="0 0 24 24" fill="none" xmlns="http://www.w3.org/2000/svg"><path d="M11.815 1.277 C 11.638 1.321,11.461 1.456,11.353 1.631 C 11.262 1.777,11.260 1.805,11.247 2.987 L 11.235 4.195 11.127 4.215 C 11.068 4.227,10.903 4.248,10.760 4.262 C 9.779 4.360,8.628 4.718,7.594 5.245 C 4.762 6.688,2.807 9.583,2.520 12.760 C 2.490 13.092,2.479 14.202,2.488 16.063 L 2.500 18.866 2.613 19.014 C 2.845 19.318,2.665 19.298,5.315 19.320 L 7.693 19.340 7.807 19.679 C 8.480 21.682,10.343 22.907,12.425 22.714 C 14.175 22.552,15.621 21.384,16.198 19.665 L 16.307 19.340 18.684 19.320 C 20.379 19.306,21.083 19.287,21.140 19.254 C 21.253 19.188,21.379 19.043,21.458 18.888 C 21.519 18.766,21.523 18.496,21.510 15.708 C 21.497 13.045,21.486 12.607,21.425 12.240 C 21.255 11.217,20.980 10.350,20.540 9.460 C 19.496 7.345,17.736 5.723,15.538 4.847 C 14.834 4.567,13.895 4.328,13.240 4.262 C 13.097 4.248,12.931 4.226,12.870 4.215 L 12.760 4.194 12.759 3.107 C 12.758 1.955,12.733 1.737,12.580 1.536 C 12.421 1.327,12.078 1.211,11.815 1.277 M12.900 5.721 C 14.739 5.926,16.377 6.710,17.675 8.004 C 18.351 8.679,18.776 9.266,19.199 10.109 C 19.621 10.951,19.910 11.975,19.999 12.940 C 20.022 13.182,20.040 14.383,20.040 15.610 L 20.040 17.840 12.000 17.840 L 3.960 17.840 3.960 15.584 C 3.960 14.338,3.978 13.143,4.001 12.914 C 4.297 9.926,6.181 7.390,8.940 6.266 C 9.614 5.992,10.334 5.806,11.040 5.725 C 11.467 5.676,12.477 5.674,12.900 5.721 M14.719 19.390 C 14.717 19.465,14.443 19.941,14.285 20.143 C 13.901 20.634,13.228 21.061,12.647 21.180 C 12.278 21.256,11.703 21.256,11.340 21.180 C 10.772 21.061,10.095 20.629,9.715 20.143 C 9.557 19.941,9.283 19.465,9.281 19.390 C 9.280 19.373,10.504 19.360,12.000 19.360 C 13.496 19.360,14.720 19.373,14.719 19.390 " stroke="none" fill-rule="evenodd" fill="black"></path></svg>