<svg width="24" height="24" viewBox="0 0 24 24" fill="none" xmlns="http://www.w3.org/2000/svg"><path d="M11.560 1.264 C 10.359 1.366,9.329 1.654,8.380 2.154 C 6.316 3.241,4.762 5.223,4.140 7.560 C 3.888 8.504,3.780 9.801,3.877 10.700 C 3.969 11.547,4.246 12.593,4.546 13.229 C 4.661 13.472,4.713 13.536,4.870 13.628 C 5.279 13.868,5.755 13.708,5.938 13.271 C 6.032 13.046,6.016 12.926,5.821 12.402 C 5.156 10.616,5.166 8.911,5.851 7.138 C 6.654 5.060,8.413 3.460,10.463 2.945 C 11.559 2.670,12.782 2.696,13.888 3.017 C 14.828 3.291,15.857 3.898,16.499 4.557 L 16.698 4.761 10.111 11.351 C 6.356 15.107,3.506 17.988,3.482 18.053 C 3.268 18.629,3.801 19.201,4.402 19.040 C 4.559 18.997,4.719 18.854,5.768 17.809 L 6.957 16.627 7.088 16.734 C 7.161 16.793,7.337 16.932,7.480 17.044 L 7.740 17.246 7.761 17.993 C 7.781 18.685,7.790 18.756,7.885 18.960 C 8.065 19.350,8.388 19.587,8.861 19.678 C 9.032 19.711,9.971 19.721,12.140 19.712 L 15.180 19.700 15.444 19.575 C 16.082 19.273,16.276 18.841,16.279 17.713 L 16.280 17.245 16.410 17.155 C 16.714 16.943,17.260 16.451,17.595 16.089 C 19.180 14.374,20.076 12.244,20.148 10.020 C 20.180 9.026,20.093 8.266,19.840 7.329 C 19.729 6.919,19.630 6.766,19.401 6.650 C 19.186 6.541,18.956 6.536,18.740 6.635 C 18.550 6.723,18.464 6.812,18.382 7.010 C 18.297 7.212,18.304 7.360,18.418 7.784 C 18.891 9.549,18.704 11.371,17.875 13.069 C 17.310 14.227,16.439 15.284,15.485 15.972 C 14.989 16.329,14.856 16.474,14.804 16.720 C 14.780 16.832,14.760 17.220,14.760 17.582 L 14.760 18.240 12.020 18.240 L 9.280 18.240 9.279 17.570 C 9.278 16.856,9.244 16.614,9.119 16.439 C 9.076 16.378,8.874 16.210,8.670 16.063 C 8.467 15.917,8.237 15.744,8.161 15.678 L 8.022 15.559 14.327 9.249 C 17.795 5.779,20.661 2.882,20.696 2.812 C 20.790 2.624,20.778 2.304,20.670 2.112 C 20.499 1.807,20.014 1.648,19.718 1.799 C 19.664 1.826,19.203 2.264,18.692 2.772 L 17.765 3.695 17.467 3.412 C 16.068 2.083,14.252 1.329,12.299 1.266 C 11.992 1.257,11.659 1.255,11.560 1.264 M11.220 20.783 C 11.132 20.792,10.862 20.818,10.620 20.841 C 10.072 20.893,9.405 21.010,8.780 21.164 C 8.177 21.313,8.118 21.337,7.968 21.493 C 7.547 21.928,7.784 22.618,8.394 22.734 C 8.482 22.751,8.685 22.720,8.994 22.642 C 10.067 22.373,10.910 22.269,12.000 22.269 C 13.090 22.269,13.933 22.373,15.006 22.642 C 15.596 22.790,15.794 22.762,16.047 22.494 C 16.234 22.297,16.294 21.989,16.198 21.733 C 16.143 21.589,15.940 21.377,15.805 21.324 C 15.460 21.188,14.162 20.922,13.440 20.840 C 13.045 20.795,11.499 20.756,11.220 20.783 " stroke="none" fill-rule="evenodd" fill="black"></path></svg>