<svg width="24" height="24" viewBox="0 0 24 24" fill="none" xmlns="http://www.w3.org/2000/svg"><path d="M8.080 1.282 C 4.008 1.495,1.895 3.296,1.383 6.991 C 1.270 7.803,1.242 8.816,1.242 12.000 C 1.242 16.504,1.302 17.273,1.760 18.650 C 2.532 20.963,4.206 22.226,7.027 22.622 C 7.786 22.728,8.902 22.759,12.000 22.759 C 15.098 22.759,16.214 22.728,16.973 22.622 C 19.443 22.275,20.996 21.288,21.897 19.490 C 22.379 18.530,22.638 17.369,22.720 15.807 C 22.771 14.838,22.771 9.162,22.720 8.193 C 22.657 6.998,22.521 6.191,22.242 5.356 C 21.632 3.531,20.469 2.367,18.650 1.760 C 17.788 1.473,17.023 1.344,15.806 1.280 C 14.952 1.235,8.952 1.237,8.080 1.282 M16.800 2.854 C 19.586 3.316,20.714 4.454,21.148 7.240 C 21.214 7.661,21.220 8.064,21.220 12.000 C 21.220 15.936,21.214 16.339,21.148 16.760 C 20.712 19.558,19.558 20.712,16.760 21.148 C 16.339 21.214,15.936 21.220,12.000 21.220 C 8.064 21.220,7.661 21.214,7.240 21.148 C 4.450 20.713,3.283 19.551,2.854 16.780 C 2.785 16.335,2.780 15.989,2.780 12.000 C 2.780 7.247,2.776 7.337,3.044 6.288 C 3.557 4.282,4.722 3.274,6.960 2.900 C 7.690 2.777,8.048 2.769,12.200 2.777 C 15.963 2.784,16.422 2.791,16.800 2.854 M11.815 6.557 C 11.638 6.601,11.461 6.736,11.353 6.911 C 11.270 7.045,11.259 7.119,11.246 7.628 L 11.231 8.197 9.026 8.208 L 6.820 8.220 6.640 8.326 C 6.403 8.465,6.280 8.683,6.280 8.960 C 6.280 9.237,6.403 9.455,6.640 9.594 L 6.820 9.700 10.272 9.711 C 13.518 9.721,13.724 9.726,13.705 9.791 C 13.695 9.829,13.674 9.959,13.660 10.080 C 13.617 10.444,13.416 11.164,13.225 11.641 C 12.405 13.682,10.709 15.210,8.660 15.752 C 8.200 15.874,7.891 15.920,7.289 15.958 C 6.818 15.987,6.740 16.003,6.604 16.093 C 6.372 16.246,6.267 16.444,6.267 16.727 C 6.267 16.923,6.286 16.990,6.383 17.128 C 6.578 17.403,6.740 17.462,7.279 17.449 C 8.987 17.410,10.703 16.765,12.103 15.634 L 12.425 15.374 12.771 15.704 C 13.586 16.482,14.610 17.050,15.643 17.299 C 16.168 17.425,16.906 17.490,17.174 17.433 C 17.804 17.299,17.938 16.425,17.381 16.080 C 17.273 16.014,17.139 15.987,16.771 15.959 C 15.595 15.869,14.637 15.424,13.736 14.549 L 13.451 14.273 13.783 13.777 C 14.507 12.693,15.015 11.348,15.163 10.124 L 15.212 9.726 16.196 9.713 C 17.178 9.700,17.180 9.700,17.360 9.594 C 17.846 9.308,17.846 8.612,17.360 8.326 L 17.180 8.220 14.970 8.208 L 12.760 8.197 12.759 7.748 C 12.758 7.226,12.713 6.990,12.580 6.816 C 12.421 6.607,12.078 6.491,11.815 6.557 " stroke="none" fill-rule="evenodd" fill="black"></path></svg>