<svg width="24" height="24" viewBox="0 0 24 24" fill="none" xmlns="http://www.w3.org/2000/svg"><path d="M11.320 1.281 C 7.041 1.525,3.252 4.409,1.843 8.497 C 1.180 10.418,1.082 12.560,1.564 14.550 C 2.505 18.428,5.572 21.495,9.450 22.436 C 11.106 22.837,12.894 22.837,14.550 22.436 C 18.428 21.495,21.495 18.428,22.436 14.550 C 22.837 12.894,22.837 11.106,22.436 9.450 C 21.425 5.282,17.985 2.095,13.742 1.398 C 13.334 1.331,12.074 1.229,11.880 1.247 C 11.847 1.250,11.595 1.265,11.320 1.281 M13.146 2.822 C 14.201 2.960,15.125 3.237,16.060 3.696 C 18.877 5.079,20.768 7.722,21.178 10.854 C 21.301 11.786,21.244 13.026,21.034 13.998 C 20.745 15.343,20.003 16.855,19.121 17.900 C 18.247 18.935,17.240 19.726,16.060 20.304 C 14.761 20.940,13.462 21.240,12.000 21.240 C 10.538 21.240,9.236 20.940,7.940 20.304 C 5.123 18.921,3.232 16.278,2.822 13.146 C 2.699 12.214,2.756 10.974,2.966 10.002 C 3.177 9.020,3.703 7.775,4.268 6.920 C 5.750 4.677,8.131 3.188,10.820 2.823 C 11.380 2.746,12.569 2.746,13.146 2.822 M11.815 6.557 C 11.638 6.601,11.461 6.736,11.353 6.911 C 11.270 7.045,11.259 7.119,11.246 7.628 L 11.231 8.197 9.026 8.208 L 6.820 8.220 6.640 8.326 C 6.403 8.465,6.280 8.683,6.280 8.960 C 6.280 9.237,6.403 9.455,6.640 9.594 L 6.820 9.700 10.272 9.711 C 13.518 9.721,13.724 9.726,13.705 9.791 C 13.695 9.829,13.674 9.959,13.660 10.080 C 13.617 10.444,13.416 11.164,13.225 11.641 C 12.405 13.682,10.709 15.210,8.660 15.752 C 8.200 15.874,7.891 15.920,7.289 15.958 C 6.818 15.987,6.740 16.003,6.604 16.093 C 6.372 16.246,6.267 16.444,6.267 16.727 C 6.267 16.923,6.286 16.990,6.383 17.128 C 6.578 17.403,6.740 17.462,7.279 17.449 C 8.987 17.410,10.703 16.765,12.103 15.634 L 12.425 15.374 12.771 15.704 C 13.586 16.482,14.610 17.050,15.643 17.299 C 16.168 17.425,16.906 17.490,17.174 17.433 C 17.804 17.299,17.938 16.425,17.381 16.080 C 17.273 16.014,17.139 15.987,16.771 15.959 C 15.595 15.869,14.637 15.424,13.736 14.549 L 13.451 14.273 13.783 13.777 C 14.507 12.693,15.015 11.348,15.163 10.124 L 15.212 9.726 16.196 9.713 C 17.178 9.700,17.180 9.700,17.360 9.594 C 17.846 9.308,17.846 8.612,17.360 8.326 L 17.180 8.220 14.970 8.208 L 12.760 8.197 12.759 7.748 C 12.758 7.226,12.713 6.990,12.580 6.816 C 12.421 6.607,12.078 6.491,11.815 6.557 " stroke="none" fill-rule="evenodd" fill="black"></path></svg>