<svg width="24" height="24" viewBox="0 0 24 24" fill="none" xmlns="http://www.w3.org/2000/svg"><path d="M11.014 2.017 C 10.857 2.046,10.659 2.094,10.574 2.121 C 10.398 2.178,4.445 4.815,4.116 4.982 C 2.855 5.620,2.355 6.680,2.845 7.677 C 3.017 8.025,3.475 8.481,3.888 8.713 C 4.223 8.902,10.057 11.510,10.480 11.661 C 10.884 11.804,11.214 11.852,11.800 11.851 C 12.406 11.851,12.802 11.783,13.256 11.600 C 13.412 11.538,14.890 10.886,16.540 10.151 C 19.605 8.787,19.927 8.625,20.314 8.244 C 20.921 7.648,21.084 6.886,20.752 6.196 C 20.674 6.033,20.516 5.797,20.402 5.671 C 19.998 5.224,19.748 5.095,16.373 3.596 C 14.639 2.825,13.067 2.149,12.880 2.093 C 12.594 2.007,12.441 1.989,11.920 1.977 C 11.507 1.967,11.205 1.980,11.014 2.017 M12.330 3.499 C 12.512 3.537,13.579 3.990,15.590 4.883 C 17.235 5.613,18.701 6.273,18.849 6.349 C 19.110 6.485,19.440 6.786,19.440 6.889 C 19.440 7.007,19.264 7.212,19.040 7.357 C 18.761 7.537,12.656 10.258,12.395 10.318 C 12.116 10.382,11.366 10.369,11.121 10.297 C 10.876 10.224,4.853 7.557,4.640 7.427 C 4.389 7.275,4.160 7.037,4.160 6.931 C 4.160 6.789,4.289 6.629,4.530 6.468 C 4.827 6.272,10.926 3.565,11.220 3.500 C 11.539 3.429,11.998 3.428,12.330 3.499 M2.819 10.277 C 2.557 10.340,2.338 10.564,2.278 10.830 C 2.193 11.207,2.392 11.990,2.713 12.539 C 2.968 12.977,3.523 13.532,3.900 13.728 C 4.361 13.966,11.007 16.908,11.263 16.987 C 11.595 17.088,12.405 17.088,12.737 16.987 C 12.993 16.908,19.639 13.966,20.100 13.728 C 20.477 13.532,21.032 12.977,21.287 12.539 C 21.621 11.967,21.801 11.238,21.711 10.817 C 21.607 10.327,20.985 10.098,20.566 10.396 C 20.376 10.531,20.288 10.712,20.245 11.057 C 20.190 11.503,19.997 11.879,19.668 12.185 C 19.418 12.418,19.378 12.437,15.858 14.000 L 12.300 15.580 12.000 15.580 L 11.700 15.580 8.142 14.000 C 4.622 12.437,4.582 12.418,4.332 12.185 C 4.012 11.888,3.814 11.507,3.755 11.078 C 3.732 10.914,3.686 10.720,3.651 10.648 C 3.574 10.483,3.390 10.341,3.180 10.284 C 3.003 10.236,2.992 10.236,2.819 10.277 M2.819 15.277 C 2.557 15.340,2.338 15.564,2.278 15.828 C 2.234 16.024,2.302 16.628,2.402 16.930 C 2.668 17.730,3.226 18.390,3.942 18.751 C 4.432 18.998,11.035 21.916,11.263 21.987 C 11.606 22.093,12.446 22.085,12.780 21.974 C 13.159 21.848,19.974 18.807,20.244 18.643 C 21.070 18.144,21.620 17.283,21.716 16.339 C 21.762 15.883,21.715 15.675,21.522 15.482 C 21.179 15.139,20.618 15.203,20.364 15.613 C 20.312 15.698,20.268 15.870,20.243 16.096 C 20.218 16.310,20.164 16.530,20.104 16.662 C 19.988 16.916,19.698 17.239,19.466 17.373 C 19.375 17.426,17.725 18.169,15.800 19.025 L 12.300 20.580 12.000 20.580 L 11.700 20.580 8.200 19.025 C 6.275 18.169,4.625 17.426,4.534 17.373 C 4.302 17.239,4.012 16.916,3.897 16.664 C 3.842 16.545,3.781 16.304,3.757 16.116 C 3.734 15.933,3.687 15.722,3.652 15.649 C 3.573 15.483,3.390 15.341,3.180 15.284 C 3.003 15.236,2.992 15.236,2.819 15.277 " stroke="none" fill-rule="evenodd" fill="black"></path></svg>