<svg width="24" height="24" viewBox="0 0 24 24" fill="none" xmlns="http://www.w3.org/2000/svg"><path d="M11.300 1.280 C 8.686 1.447,6.226 2.571,4.371 4.446 C 2.998 5.835,2.060 7.489,1.574 9.380 C 1.410 10.019,1.439 10.275,1.706 10.527 C 2.097 10.897,2.779 10.694,2.917 10.168 C 2.938 10.087,2.992 9.874,3.037 9.695 C 3.250 8.850,3.758 7.698,4.242 6.961 C 4.941 5.895,6.012 4.844,7.085 4.167 C 9.575 2.599,12.784 2.317,15.480 3.429 C 16.681 3.925,17.673 4.594,18.587 5.525 C 19.819 6.780,20.567 8.129,20.999 9.873 C 21.145 10.465,21.225 10.601,21.498 10.725 C 21.834 10.877,22.217 10.773,22.426 10.472 C 22.525 10.327,22.539 10.272,22.534 10.043 C 22.524 9.565,22.176 8.422,21.765 7.520 C 20.638 5.043,18.525 3.030,16.000 2.027 C 14.517 1.438,12.884 1.179,11.300 1.280 M11.500 9.807 C 10.919 9.916,10.270 10.430,9.992 11.000 C 9.560 11.885,9.726 12.888,10.419 13.581 C 10.903 14.065,11.483 14.278,12.177 14.227 C 14.081 14.089,14.934 11.773,13.581 10.419 C 13.031 9.870,12.304 9.655,11.500 9.807 M12.271 11.302 C 12.911 11.569,12.911 12.431,12.271 12.698 C 12.083 12.777,11.917 12.777,11.729 12.698 C 11.101 12.436,11.084 11.600,11.700 11.316 C 11.897 11.225,12.076 11.221,12.271 11.302 M1.899 13.336 C 1.746 13.403,1.528 13.649,1.497 13.791 C 1.484 13.851,1.466 13.924,1.457 13.953 C 1.433 14.028,1.544 14.537,1.701 15.077 C 2.178 16.721,3.145 18.345,4.380 19.580 C 6.565 21.766,9.560 22.904,12.633 22.719 C 15.358 22.555,17.788 21.439,19.701 19.475 C 20.965 18.176,21.835 16.674,22.342 14.914 C 22.572 14.113,22.574 13.829,22.349 13.573 C 22.192 13.394,22.021 13.320,21.771 13.321 C 21.540 13.321,21.299 13.446,21.176 13.629 C 21.129 13.700,21.040 13.960,20.979 14.209 C 20.666 15.483,20.045 16.737,19.199 17.801 C 18.869 18.215,18.102 18.966,17.640 19.326 C 15.300 21.148,12.140 21.717,9.260 20.834 C 6.199 19.895,3.788 17.347,3.019 14.240 C 2.892 13.726,2.876 13.682,2.774 13.560 C 2.562 13.308,2.184 13.211,1.899 13.336 " stroke="none" fill-rule="evenodd" fill="black"></path></svg>