<svg width="24" height="24" viewBox="0 0 24 24" fill="none" xmlns="http://www.w3.org/2000/svg"><path d="M11.520 1.265 C 9.179 1.381,7.037 2.186,5.222 3.635 C 3.683 4.862,2.406 6.708,1.781 8.608 C 1.400 9.763,1.240 10.769,1.240 12.000 C 1.240 13.231,1.400 14.237,1.781 15.392 C 2.968 19.000,6.008 21.712,9.764 22.516 C 10.723 22.721,12.190 22.792,13.160 22.680 C 17.435 22.189,21.013 19.214,22.253 15.120 C 22.571 14.071,22.697 13.186,22.697 12.000 C 22.697 10.814,22.571 9.929,22.253 8.880 C 21.209 5.435,18.507 2.751,15.024 1.701 C 13.967 1.383,12.598 1.212,11.520 1.265 M13.082 2.817 C 14.846 3.037,16.392 3.695,17.830 4.837 L 17.960 4.940 16.550 6.350 C 15.775 7.125,15.129 7.760,15.114 7.760 C 15.100 7.760,14.992 7.694,14.874 7.614 C 14.339 7.250,13.521 6.939,12.781 6.819 C 11.588 6.625,10.182 6.924,9.178 7.584 C 9.047 7.670,8.916 7.755,8.887 7.774 C 8.849 7.798,8.427 7.402,7.417 6.395 C 6.638 5.619,6.000 4.971,6.000 4.955 C 6.000 4.858,7.035 4.146,7.640 3.827 C 8.684 3.276,9.963 2.888,11.060 2.788 C 11.494 2.749,12.667 2.765,13.082 2.817 M6.350 7.450 C 7.125 8.225,7.760 8.871,7.760 8.886 C 7.760 8.900,7.694 9.008,7.614 9.126 C 6.942 10.113,6.624 11.577,6.819 12.781 C 6.939 13.521,7.250 14.339,7.614 14.874 C 7.694 14.992,7.760 15.100,7.760 15.114 C 7.760 15.173,4.926 17.969,4.890 17.946 C 4.807 17.895,4.281 17.162,4.039 16.760 C 2.195 13.700,2.293 9.850,4.292 6.840 C 4.520 6.496,4.874 6.040,4.913 6.040 C 4.928 6.040,5.574 6.674,6.350 7.450 M19.238 6.270 C 19.996 7.229,20.616 8.479,20.922 9.667 C 21.644 12.469,21.015 15.480,19.238 17.730 C 19.140 17.854,19.042 17.957,19.020 17.958 C 18.998 17.959,18.352 17.332,17.584 16.564 L 16.188 15.168 16.375 14.887 C 17.519 13.167,17.519 10.833,16.375 9.113 L 16.188 8.832 17.584 7.436 C 18.352 6.668,18.998 6.041,19.020 6.042 C 19.042 6.043,19.140 6.146,19.238 6.270 M12.806 8.336 C 14.207 8.642,15.355 9.795,15.669 11.210 C 15.755 11.599,15.756 12.408,15.670 12.786 C 15.511 13.492,15.163 14.121,14.642 14.642 C 14.121 15.163,13.492 15.512,12.786 15.670 C 12.405 15.756,11.595 15.756,11.214 15.670 C 9.783 15.348,8.651 14.219,8.331 12.790 C 8.244 12.405,8.244 11.597,8.330 11.214 C 8.669 9.707,9.864 8.568,11.393 8.297 C 11.755 8.233,12.417 8.251,12.806 8.336 M9.122 16.381 C 10.159 17.071,11.565 17.378,12.781 17.181 C 13.521 17.061,14.339 16.750,14.874 16.386 C 14.992 16.306,15.100 16.240,15.114 16.240 C 15.129 16.240,15.775 16.875,16.550 17.650 L 17.960 19.060 17.830 19.163 C 16.357 20.333,14.741 21.005,12.928 21.202 C 12.295 21.270,11.037 21.232,10.440 21.126 C 8.930 20.857,7.595 20.283,6.411 19.394 C 6.208 19.241,6.030 19.097,6.016 19.073 C 5.995 19.039,8.780 16.200,8.834 16.200 C 8.843 16.200,8.972 16.282,9.122 16.381 " stroke="none" fill-rule="evenodd" fill="black"></path></svg>