<svg width="24" height="24" viewBox="0 0 24 24" fill="none" xmlns="http://www.w3.org/2000/svg"><path d="M11.460 1.305 C 11.151 1.382,10.827 1.507,10.632 1.625 C 10.507 1.701,9.990 2.119,9.483 2.554 C 8.297 3.572,8.462 3.510,6.900 3.533 C 5.996 3.547,5.687 3.565,5.500 3.616 C 4.676 3.839,3.939 4.520,3.648 5.328 C 3.545 5.613,3.542 5.650,3.519 6.860 C 3.497 8.033,3.491 8.113,3.403 8.335 C 3.313 8.564,3.262 8.629,2.043 10.075 C 1.682 10.503,1.507 10.788,1.396 11.127 C 1.311 11.386,1.300 11.491,1.301 12.040 C 1.303 12.609,1.311 12.682,1.406 12.930 C 1.571 13.358,1.721 13.570,2.539 14.533 C 3.126 15.224,3.330 15.493,3.401 15.669 C 3.489 15.887,3.496 15.968,3.520 17.140 C 3.543 18.259,3.554 18.405,3.632 18.640 C 3.761 19.030,3.987 19.387,4.303 19.700 C 4.630 20.022,4.911 20.202,5.327 20.351 C 5.614 20.455,5.647 20.457,6.880 20.480 C 7.986 20.500,8.162 20.512,8.320 20.577 C 8.558 20.676,8.638 20.738,9.529 21.506 C 9.946 21.867,10.367 22.216,10.465 22.283 C 10.960 22.624,11.565 22.787,12.180 22.745 C 13.012 22.689,13.280 22.545,14.499 21.499 C 15.232 20.870,15.503 20.661,15.676 20.592 C 15.885 20.510,15.983 20.502,17.120 20.480 L 18.340 20.457 18.682 20.336 C 19.463 20.060,20.060 19.463,20.336 18.682 L 20.457 18.340 20.482 17.120 C 20.497 16.392,20.525 15.846,20.552 15.766 C 20.633 15.525,20.751 15.366,21.475 14.527 C 21.868 14.071,22.264 13.583,22.355 13.442 C 22.776 12.791,22.872 11.809,22.589 11.040 C 22.459 10.686,22.218 10.351,21.462 9.480 C 20.959 8.899,20.715 8.584,20.626 8.400 L 20.500 8.140 20.477 6.900 C 20.457 5.796,20.445 5.633,20.372 5.413 C 20.185 4.849,19.775 4.308,19.289 3.986 C 18.697 3.594,18.493 3.553,17.020 3.524 C 15.826 3.500,15.819 3.499,15.600 3.394 C 15.462 3.327,15.051 3.003,14.501 2.527 C 13.547 1.701,13.358 1.568,12.913 1.410 C 12.661 1.320,12.544 1.304,12.080 1.295 C 11.783 1.290,11.504 1.294,11.460 1.305 M12.546 2.872 C 12.638 2.919,13.107 3.297,13.590 3.712 C 14.528 4.519,14.778 4.693,15.224 4.853 C 15.643 5.002,16.018 5.040,17.076 5.040 C 18.158 5.040,18.278 5.063,18.576 5.324 C 18.676 5.413,18.805 5.584,18.868 5.711 L 18.980 5.940 19.001 7.160 C 19.022 8.366,19.024 8.384,19.134 8.700 C 19.322 9.238,19.459 9.441,20.287 10.406 C 20.727 10.918,21.110 11.383,21.140 11.439 C 21.295 11.740,21.288 12.275,21.125 12.586 C 21.080 12.671,20.717 13.118,20.317 13.580 C 19.539 14.478,19.384 14.689,19.228 15.062 C 19.037 15.519,19.030 15.575,19.004 16.860 C 18.981 18.049,18.976 18.108,18.887 18.288 C 18.769 18.527,18.527 18.769,18.288 18.887 C 18.108 18.976,18.049 18.981,16.880 19.004 C 15.531 19.030,15.419 19.047,14.908 19.303 C 14.536 19.490,14.553 19.477,13.580 20.320 C 12.626 21.145,12.453 21.251,12.044 21.253 C 11.567 21.256,11.478 21.204,10.423 20.301 C 9.429 19.451,9.187 19.288,8.660 19.117 C 8.402 19.033,8.285 19.024,7.140 19.002 C 6.084 18.981,5.877 18.967,5.743 18.908 C 5.498 18.799,5.269 18.589,5.139 18.355 L 5.020 18.140 4.997 16.900 C 4.975 15.692,4.972 15.652,4.867 15.340 C 4.694 14.821,4.487 14.510,3.701 13.587 C 3.293 13.106,2.918 12.638,2.870 12.547 C 2.741 12.304,2.741 11.737,2.870 11.480 C 2.920 11.381,3.303 10.897,3.721 10.404 C 4.139 9.910,4.534 9.415,4.598 9.303 C 4.663 9.190,4.774 8.928,4.846 8.719 L 4.977 8.340 4.999 7.120 C 5.023 5.750,5.024 5.745,5.325 5.419 C 5.652 5.065,5.650 5.065,7.060 5.035 C 8.397 5.007,8.531 4.988,9.059 4.745 C 9.382 4.598,9.556 4.467,10.391 3.746 C 11.329 2.937,11.397 2.886,11.609 2.816 C 11.856 2.736,12.336 2.764,12.546 2.872 M12.116 6.778 C 11.857 6.849,11.539 7.030,11.366 7.204 C 11.286 7.285,10.977 7.713,10.680 8.155 C 10.383 8.596,10.125 8.958,10.106 8.959 C 10.088 8.959,10.020 8.923,9.955 8.877 C 9.627 8.643,8.761 8.532,8.080 8.636 C 7.489 8.726,7.066 9.034,6.871 9.514 L 6.780 9.740 6.780 12.540 L 6.780 15.340 6.905 15.604 C 7.050 15.911,7.247 16.122,7.511 16.255 C 7.829 16.415,8.082 16.450,8.801 16.432 C 9.532 16.413,9.749 16.359,10.047 16.119 L 10.200 15.996 10.570 16.291 C 11.365 16.924,11.502 16.960,13.091 16.960 C 14.373 16.960,14.545 16.937,14.977 16.707 C 15.274 16.550,15.615 16.241,15.780 15.980 C 15.934 15.738,15.976 15.619,16.662 13.520 C 17.035 12.376,17.211 11.779,17.227 11.600 C 17.303 10.742,16.684 9.990,15.810 9.877 C 15.661 9.858,15.191 9.842,14.765 9.841 L 13.989 9.840 14.010 9.690 C 14.022 9.607,14.071 9.272,14.120 8.944 C 14.196 8.430,14.202 8.316,14.160 8.106 C 14.068 7.638,13.806 7.240,13.428 6.996 C 13.024 6.734,12.556 6.657,12.116 6.778 M12.632 8.248 C 12.702 8.318,12.693 8.437,12.558 9.312 C 12.476 9.834,12.444 10.161,12.461 10.280 C 12.520 10.693,12.776 11.043,13.154 11.229 L 13.380 11.340 14.528 11.354 C 15.375 11.364,15.687 11.380,15.717 11.417 C 15.775 11.486,14.595 15.097,14.470 15.233 C 14.263 15.458,14.147 15.478,13.080 15.477 C 12.424 15.476,12.056 15.460,11.968 15.428 C 11.895 15.401,11.558 15.165,11.218 14.903 L 10.600 14.427 10.600 12.684 L 10.600 10.941 11.486 9.620 C 11.973 8.894,12.399 8.277,12.433 8.250 C 12.511 8.187,12.571 8.187,12.632 8.248 M9.070 10.113 C 9.110 10.138,9.118 10.651,9.110 12.543 L 9.100 14.940 8.670 14.951 L 8.240 14.963 8.240 12.545 C 8.240 10.648,8.251 10.122,8.290 10.106 C 8.372 10.073,9.016 10.079,9.070 10.113 " stroke="none" fill-rule="evenodd" fill="black"></path></svg>