<svg width="24" height="24" viewBox="0 0 24 24" fill="none" xmlns="http://www.w3.org/2000/svg"><path d="M13.472 1.339 C 12.792 1.526,12.128 2.059,11.877 2.620 C 11.721 2.968,10.316 7.316,10.281 7.560 C 10.173 8.303,10.554 9.053,11.208 9.384 C 11.594 9.579,11.769 9.600,13.048 9.600 L 14.240 9.600 14.240 9.698 C 14.240 9.752,14.196 10.072,14.141 10.408 C 13.971 11.462,13.961 11.565,14.000 11.839 C 14.069 12.331,14.426 12.895,14.829 13.152 C 15.520 13.592,16.483 13.515,17.085 12.971 C 17.174 12.890,17.591 12.314,18.012 11.691 C 18.732 10.626,18.781 10.562,18.839 10.634 C 18.956 10.780,19.255 10.961,19.517 11.045 C 19.844 11.149,20.825 11.194,21.269 11.125 C 22.014 11.008,22.445 10.661,22.664 10.000 C 22.732 9.797,22.738 9.553,22.751 6.762 C 22.759 4.922,22.749 3.618,22.725 3.420 C 22.663 2.921,22.549 2.662,22.264 2.376 C 21.860 1.973,21.405 1.856,20.380 1.891 C 19.924 1.906,19.717 1.931,19.517 1.995 C 19.249 2.080,18.965 2.255,18.820 2.424 L 18.740 2.517 18.180 2.078 C 17.178 1.294,17.119 1.279,15.107 1.284 C 14.055 1.286,13.609 1.301,13.472 1.339 M16.552 2.802 C 16.682 2.832,16.929 3.000,17.562 3.490 L 18.400 4.139 18.400 6.288 L 18.400 8.436 17.262 10.131 C 16.637 11.064,16.098 11.848,16.066 11.875 C 16.034 11.902,15.943 11.934,15.865 11.947 C 15.745 11.966,15.706 11.952,15.602 11.848 C 15.519 11.766,15.480 11.687,15.480 11.604 C 15.480 11.537,15.544 11.081,15.622 10.591 C 15.801 9.472,15.806 9.213,15.658 8.900 C 15.523 8.614,15.288 8.380,15.000 8.244 L 14.780 8.140 13.354 8.120 C 12.024 8.101,11.923 8.095,11.844 8.024 C 11.794 7.978,11.760 7.899,11.760 7.826 C 11.760 7.675,13.178 3.348,13.283 3.176 C 13.370 3.035,13.614 2.852,13.785 2.801 C 13.946 2.753,16.343 2.753,16.552 2.802 M21.193 3.416 C 21.228 3.437,21.240 4.227,21.240 6.524 C 21.240 9.418,21.236 9.604,21.170 9.631 C 21.040 9.685,20.009 9.665,19.952 9.608 C 19.910 9.567,19.898 8.964,19.889 6.617 C 19.883 5.001,19.893 3.621,19.912 3.549 C 19.937 3.451,19.974 3.413,20.063 3.392 C 20.209 3.358,21.130 3.377,21.193 3.416 M7.640 10.635 C 7.331 10.735,7.103 10.859,6.914 11.030 C 6.824 11.111,6.407 11.687,5.986 12.310 C 5.269 13.373,5.218 13.437,5.161 13.366 C 5.044 13.220,4.745 13.039,4.483 12.955 C 4.156 12.851,3.175 12.806,2.731 12.875 C 1.986 12.992,1.555 13.339,1.336 14.000 C 1.268 14.203,1.262 14.447,1.249 17.238 C 1.241 19.078,1.251 20.382,1.275 20.580 C 1.337 21.079,1.451 21.338,1.736 21.624 C 2.140 22.027,2.595 22.144,3.620 22.109 C 4.076 22.094,4.283 22.069,4.483 22.005 C 4.751 21.920,5.035 21.745,5.180 21.576 L 5.260 21.483 5.820 21.922 C 6.818 22.704,6.882 22.720,8.873 22.720 C 10.434 22.719,10.521 22.709,10.986 22.480 C 11.498 22.228,11.929 21.810,12.123 21.380 C 12.275 21.040,13.688 16.664,13.722 16.429 C 13.825 15.695,13.441 14.945,12.792 14.616 C 12.406 14.421,12.231 14.400,10.952 14.400 L 9.760 14.400 9.760 14.302 C 9.760 14.248,9.804 13.928,9.859 13.592 C 10.029 12.538,10.039 12.435,10.000 12.161 C 9.931 11.669,9.574 11.105,9.171 10.848 C 8.730 10.567,8.116 10.482,7.640 10.635 M8.403 12.157 C 8.481 12.235,8.520 12.314,8.520 12.396 C 8.520 12.463,8.456 12.919,8.378 13.409 C 8.199 14.528,8.194 14.787,8.342 15.100 C 8.477 15.386,8.712 15.620,9.000 15.756 L 9.220 15.860 10.646 15.880 C 11.976 15.899,12.077 15.905,12.156 15.976 C 12.206 16.022,12.240 16.101,12.240 16.173 C 12.240 16.323,10.822 20.653,10.717 20.825 C 10.631 20.963,10.411 21.122,10.204 21.193 C 10.033 21.252,7.699 21.256,7.448 21.198 C 7.318 21.168,7.071 21.000,6.438 20.510 L 5.600 19.861 5.603 17.701 L 5.606 15.540 6.753 13.841 C 7.468 12.782,7.938 12.122,8.000 12.091 C 8.159 12.012,8.277 12.031,8.403 12.157 M4.050 14.394 C 4.125 14.469,4.123 20.493,4.048 20.568 C 3.991 20.625,2.960 20.645,2.830 20.591 C 2.763 20.564,2.760 20.387,2.770 17.471 L 2.780 14.380 2.920 14.353 C 3.155 14.308,3.994 14.338,4.050 14.394 " stroke="none" fill-rule="evenodd" fill="black"></path></svg>