<svg width="24" height="24" viewBox="0 0 24 24" fill="none" xmlns="http://www.w3.org/2000/svg"><path d="M5.353 1.321 C 4.112 1.533,3.026 2.399,2.547 3.560 C 2.246 4.290,2.266 3.848,2.250 10.140 C 2.236 15.847,2.246 16.319,2.383 16.852 C 2.545 17.485,3.056 18.291,3.555 18.702 C 4.351 19.356,5.084 19.598,6.280 19.600 C 7.007 19.602,7.349 19.654,7.711 19.820 C 8.025 19.964,8.174 20.093,9.280 21.182 C 10.234 22.121,10.440 22.298,10.787 22.474 C 11.481 22.826,12.612 22.808,13.277 22.434 C 13.633 22.235,13.761 22.121,14.860 21.041 C 15.739 20.176,15.943 19.995,16.180 19.873 C 16.334 19.793,16.532 19.706,16.620 19.680 C 16.708 19.653,17.194 19.618,17.700 19.601 C 18.779 19.564,19.037 19.512,19.660 19.203 C 20.702 18.686,21.425 17.760,21.669 16.628 C 21.735 16.323,21.740 15.895,21.740 10.440 C 21.740 4.911,21.736 4.561,21.667 4.240 C 21.370 2.864,20.396 1.824,18.997 1.393 L 18.700 1.301 12.120 1.295 C 8.501 1.291,5.456 1.303,5.353 1.321 M18.775 2.887 C 19.473 3.158,20.000 3.736,20.180 4.428 C 20.272 4.778,20.270 16.108,20.179 16.458 C 19.996 17.160,19.411 17.762,18.660 18.021 C 18.506 18.074,18.242 18.097,17.520 18.121 C 16.746 18.147,16.528 18.168,16.285 18.238 C 15.396 18.495,15.086 18.713,13.766 20.015 C 12.791 20.976,12.678 21.075,12.460 21.157 C 12.147 21.275,11.711 21.260,11.440 21.121 C 11.327 21.063,10.882 20.656,10.240 20.023 C 9.154 18.953,8.892 18.738,8.357 18.482 C 7.790 18.211,7.507 18.157,6.460 18.119 C 5.954 18.101,5.468 18.065,5.380 18.039 C 4.655 17.826,4.006 17.168,3.821 16.458 C 3.730 16.108,3.728 4.778,3.820 4.428 C 4.030 3.620,4.721 2.967,5.540 2.801 C 5.628 2.783,8.580 2.771,12.100 2.774 L 18.500 2.780 18.775 2.887 M9.611 6.281 C 8.347 6.414,7.236 7.360,6.878 8.607 C 6.654 9.388,6.767 10.612,7.157 11.623 C 7.644 12.885,8.851 14.233,10.246 15.070 C 11.023 15.537,11.520 15.727,11.980 15.733 C 12.359 15.738,12.558 15.679,13.180 15.378 C 14.489 14.746,15.672 13.683,16.407 12.480 C 17.126 11.303,17.424 9.683,17.119 8.600 C 16.837 7.596,15.968 6.702,14.982 6.402 C 14.056 6.121,12.874 6.298,12.173 6.824 C 12.014 6.943,11.986 6.943,11.827 6.824 C 11.642 6.685,11.230 6.487,10.943 6.398 C 10.742 6.336,10.004 6.226,9.920 6.246 C 9.909 6.249,9.770 6.265,9.611 6.281 M10.773 7.933 C 11.003 8.046,11.131 8.143,11.289 8.324 C 11.578 8.654,11.716 8.733,12.000 8.733 C 12.284 8.733,12.422 8.654,12.711 8.324 C 12.869 8.144,12.997 8.046,13.225 7.933 C 13.495 7.800,13.570 7.782,13.895 7.767 C 14.478 7.742,14.864 7.895,15.268 8.310 C 15.649 8.702,15.803 9.245,15.725 9.929 C 15.568 11.308,14.785 12.522,13.420 13.501 C 12.988 13.811,12.164 14.240,12.000 14.240 C 11.837 14.240,11.013 13.811,10.580 13.501 C 9.167 12.489,8.386 11.242,8.260 9.800 C 8.194 9.048,8.487 8.407,9.075 8.018 C 9.374 7.820,9.616 7.760,10.064 7.771 C 10.440 7.781,10.488 7.792,10.773 7.933 " stroke="none" fill-rule="evenodd" fill="black"></path></svg>