<svg width="24" height="24" viewBox="0 0 24 24" fill="none" xmlns="http://www.w3.org/2000/svg"><path d="M5.353 1.321 C 4.112 1.533,3.026 2.399,2.547 3.560 C 2.246 4.290,2.266 3.848,2.250 10.140 C 2.236 15.847,2.246 16.319,2.383 16.852 C 2.545 17.485,3.056 18.291,3.555 18.702 C 4.351 19.356,5.084 19.598,6.280 19.600 C 7.007 19.602,7.349 19.654,7.711 19.820 C 8.025 19.964,8.174 20.093,9.280 21.182 C 10.234 22.121,10.440 22.298,10.787 22.474 C 11.481 22.826,12.612 22.808,13.277 22.434 C 13.633 22.235,13.761 22.121,14.860 21.041 C 15.739 20.176,15.943 19.995,16.180 19.873 C 16.334 19.793,16.532 19.706,16.620 19.680 C 16.708 19.653,17.194 19.618,17.700 19.601 C 18.779 19.564,19.037 19.512,19.660 19.203 C 20.702 18.686,21.425 17.760,21.669 16.628 C 21.735 16.323,21.740 15.895,21.740 10.440 C 21.740 4.911,21.736 4.561,21.667 4.240 C 21.370 2.864,20.396 1.824,18.997 1.393 L 18.700 1.301 12.120 1.295 C 8.501 1.291,5.456 1.303,5.353 1.321 M18.775 2.887 C 19.473 3.158,20.000 3.736,20.180 4.428 C 20.272 4.778,20.270 16.108,20.179 16.458 C 19.996 17.160,19.411 17.762,18.660 18.021 C 18.506 18.074,18.242 18.097,17.520 18.121 C 16.746 18.147,16.528 18.168,16.285 18.238 C 15.396 18.495,15.086 18.713,13.766 20.015 C 12.791 20.976,12.678 21.075,12.460 21.157 C 12.147 21.275,11.711 21.260,11.440 21.121 C 11.327 21.063,10.882 20.656,10.240 20.023 C 9.154 18.953,8.892 18.738,8.357 18.482 C 7.790 18.211,7.507 18.157,6.460 18.119 C 5.954 18.101,5.468 18.065,5.380 18.039 C 4.655 17.826,4.006 17.168,3.821 16.458 C 3.730 16.108,3.728 4.778,3.820 4.428 C 4.030 3.620,4.721 2.967,5.540 2.801 C 5.628 2.783,8.580 2.771,12.100 2.774 L 18.500 2.780 18.775 2.887 M12.036 5.016 C 11.715 5.128,11.450 5.304,11.268 5.530 C 11.192 5.624,10.865 6.100,10.540 6.588 L 9.949 7.477 9.785 7.342 C 9.537 7.139,9.244 7.041,8.736 6.991 C 8.190 6.938,7.529 6.994,7.194 7.122 C 6.683 7.317,6.360 7.768,6.279 8.400 C 6.250 8.626,6.240 9.663,6.249 11.480 C 6.262 14.187,6.263 14.223,6.351 14.484 C 6.506 14.946,6.824 15.264,7.294 15.428 C 7.467 15.488,7.633 15.500,8.320 15.499 C 9.083 15.499,9.156 15.493,9.370 15.407 C 9.497 15.356,9.688 15.245,9.794 15.161 L 9.989 15.007 10.465 15.378 C 11.359 16.074,11.450 16.098,13.200 16.099 C 14.562 16.100,14.715 16.085,15.119 15.909 C 15.379 15.796,15.764 15.513,15.961 15.291 C 16.055 15.186,16.190 14.974,16.263 14.820 C 16.336 14.666,16.697 13.622,17.065 12.500 L 17.736 10.460 17.736 10.080 C 17.736 9.791,17.716 9.651,17.654 9.496 C 17.472 9.041,17.126 8.688,16.690 8.514 C 16.473 8.427,16.392 8.420,15.300 8.401 L 14.140 8.380 14.152 8.260 C 14.159 8.194,14.208 7.859,14.262 7.515 C 14.375 6.797,14.384 6.462,14.299 6.183 C 14.008 5.222,12.977 4.690,12.036 5.016 M12.782 6.498 C 12.836 6.552,12.880 6.620,12.880 6.648 C 12.879 6.677,12.817 7.096,12.740 7.580 C 12.664 8.064,12.601 8.533,12.601 8.623 C 12.599 9.027,12.861 9.488,13.206 9.689 C 13.491 9.855,13.721 9.880,14.945 9.880 C 15.607 9.880,16.116 9.896,16.158 9.919 C 16.198 9.940,16.242 9.987,16.256 10.023 C 16.269 10.059,15.980 11.004,15.601 12.155 C 14.987 14.023,14.909 14.234,14.791 14.347 C 14.524 14.600,14.522 14.600,13.212 14.598 C 12.391 14.596,11.981 14.581,11.894 14.548 C 11.824 14.521,11.452 14.257,11.066 13.960 L 10.364 13.420 10.362 11.477 L 10.360 9.533 11.364 8.037 C 11.916 7.214,12.404 6.509,12.449 6.470 C 12.559 6.373,12.666 6.382,12.782 6.498 M8.830 11.250 L 8.820 14.020 8.300 14.020 L 7.780 14.020 7.770 11.250 L 7.759 8.480 8.300 8.480 L 8.841 8.480 8.830 11.250 " stroke="none" fill-rule="evenodd" fill="black"></path></svg>