<svg width="24" height="24" viewBox="0 0 24 24" fill="none" xmlns="http://www.w3.org/2000/svg"><path d="M13.020 1.910 C 12.372 1.948,11.613 2.295,11.212 2.736 C 11.106 2.852,10.670 3.467,10.243 4.103 C 9.815 4.739,9.133 5.753,8.727 6.355 L 7.989 7.450 7.855 7.162 C 7.678 6.778,7.288 6.384,6.906 6.202 C 6.393 5.958,6.018 5.912,4.720 5.930 C 3.682 5.945,3.553 5.954,3.280 6.036 C 2.626 6.232,2.197 6.569,1.944 7.087 C 1.640 7.711,1.662 7.238,1.648 13.240 C 1.639 17.098,1.649 18.711,1.681 18.940 C 1.831 19.996,2.363 20.606,3.380 20.887 C 3.677 20.969,3.786 20.976,4.880 20.976 C 5.974 20.976,6.083 20.969,6.380 20.887 C 7.015 20.712,7.417 20.442,7.703 20.000 C 7.800 19.849,7.880 19.705,7.880 19.680 C 7.880 19.654,7.897 19.639,7.917 19.647 C 7.937 19.654,8.486 20.074,9.137 20.580 C 9.789 21.086,10.424 21.559,10.551 21.630 C 10.846 21.798,11.413 21.980,11.820 22.039 C 12.042 22.071,12.871 22.080,14.540 22.070 C 17.217 22.054,17.093 22.066,17.749 21.760 C 18.549 21.386,19.204 20.779,19.561 20.080 C 19.691 19.825,22.257 11.997,22.319 11.665 C 22.386 11.312,22.352 10.744,22.244 10.399 C 22.027 9.706,21.462 9.113,20.741 8.825 C 20.223 8.618,19.980 8.600,17.635 8.600 C 15.533 8.600,15.478 8.598,15.400 8.520 C 15.356 8.476,15.320 8.394,15.320 8.339 C 15.320 8.283,15.439 7.486,15.585 6.569 C 15.753 5.509,15.850 4.776,15.852 4.560 C 15.855 3.988,15.679 3.493,15.280 2.952 C 14.778 2.269,13.886 1.858,13.020 1.910 M13.719 3.543 C 13.934 3.661,14.137 3.875,14.259 4.116 C 14.397 4.386,14.381 4.613,14.099 6.400 C 13.780 8.427,13.772 8.644,13.999 9.104 C 14.174 9.459,14.462 9.747,14.819 9.923 L 15.098 10.060 17.519 10.081 C 19.915 10.101,19.942 10.102,20.165 10.192 C 20.423 10.295,20.642 10.491,20.769 10.732 C 20.839 10.864,20.858 10.964,20.855 11.200 C 20.853 11.483,20.780 11.721,19.572 15.381 C 18.867 17.516,18.245 19.352,18.189 19.461 C 18.078 19.679,17.695 20.079,17.453 20.229 C 17.215 20.378,16.910 20.507,16.683 20.556 C 16.546 20.585,15.757 20.600,14.356 20.600 C 12.083 20.600,11.886 20.586,11.415 20.387 C 11.289 20.334,10.611 19.835,9.665 19.101 L 8.120 17.901 8.120 13.918 L 8.120 9.935 10.161 6.899 C 11.283 5.229,12.251 3.811,12.311 3.748 C 12.645 3.396,13.279 3.304,13.719 3.543 M6.170 7.496 C 6.274 7.535,6.393 7.615,6.434 7.674 C 6.626 7.947,6.620 7.755,6.620 13.460 C 6.620 19.231,6.629 18.985,6.413 19.241 C 6.229 19.460,5.992 19.500,4.880 19.500 C 3.584 19.500,3.405 19.448,3.212 19.019 C 3.144 18.869,3.139 18.564,3.129 13.604 C 3.122 10.237,3.133 8.270,3.158 8.132 C 3.282 7.463,3.447 7.397,4.960 7.414 C 5.822 7.423,6.009 7.436,6.170 7.496 " stroke="none" fill-rule="evenodd" fill="black"></path></svg>