<svg width="24" height="24" viewBox="0 0 24 24" fill="none" xmlns="http://www.w3.org/2000/svg"><path d="M8.080 1.282 C 4.008 1.495,1.895 3.296,1.383 6.991 C 1.270 7.803,1.242 8.816,1.242 12.000 C 1.242 16.504,1.302 17.273,1.760 18.650 C 2.532 20.963,4.206 22.226,7.027 22.622 C 7.786 22.728,8.902 22.759,12.000 22.759 C 15.098 22.759,16.214 22.728,16.973 22.622 C 19.443 22.275,20.996 21.288,21.897 19.490 C 22.379 18.530,22.638 17.369,22.720 15.807 C 22.771 14.838,22.771 9.162,22.720 8.193 C 22.657 6.998,22.521 6.191,22.242 5.356 C 21.632 3.531,20.469 2.367,18.650 1.760 C 17.788 1.473,17.023 1.344,15.806 1.280 C 14.952 1.235,8.952 1.237,8.080 1.282 M16.800 2.854 C 19.586 3.316,20.714 4.454,21.148 7.240 C 21.214 7.661,21.220 8.064,21.220 12.000 C 21.220 15.936,21.214 16.339,21.148 16.760 C 20.712 19.558,19.558 20.712,16.760 21.148 C 16.339 21.214,15.936 21.220,12.000 21.220 C 8.064 21.220,7.661 21.214,7.240 21.148 C 4.450 20.713,3.283 19.551,2.854 16.780 C 2.785 16.335,2.780 15.989,2.780 12.000 C 2.780 7.247,2.776 7.337,3.044 6.288 C 3.557 4.282,4.722 3.274,6.960 2.900 C 7.690 2.777,8.048 2.769,12.200 2.777 C 15.963 2.784,16.422 2.791,16.800 2.854 M10.011 5.900 C 9.394 6.010,8.699 6.316,8.200 6.700 C 7.889 6.939,5.499 9.441,5.217 9.822 C 4.082 11.357,4.076 13.531,5.202 15.080 C 5.477 15.458,6.045 15.980,6.435 16.215 C 6.977 16.541,7.885 16.802,8.290 16.748 C 8.820 16.677,9.088 16.058,8.786 15.602 C 8.650 15.396,8.539 15.342,8.056 15.243 C 7.460 15.122,7.139 14.947,6.696 14.504 C 6.399 14.207,6.301 14.077,6.166 13.800 C 5.962 13.380,5.884 13.085,5.856 12.620 C 5.819 12.016,5.966 11.427,6.286 10.895 C 6.434 10.648,8.903 8.031,9.174 7.834 C 9.645 7.490,10.108 7.345,10.720 7.349 C 11.056 7.351,11.204 7.372,11.460 7.455 C 12.131 7.670,12.704 8.171,13.038 8.834 C 13.431 9.617,13.431 10.701,13.038 11.486 C 12.874 11.813,12.752 11.963,12.017 12.741 C 11.684 13.094,11.381 13.440,11.345 13.509 C 11.247 13.700,11.261 14.020,11.376 14.217 C 11.560 14.531,12.030 14.671,12.348 14.506 C 12.504 14.426,13.771 13.086,14.015 12.744 C 14.362 12.259,14.639 11.598,14.764 10.958 C 14.829 10.625,14.829 9.695,14.764 9.362 C 14.511 8.069,13.803 7.041,12.727 6.402 C 11.953 5.941,10.891 5.745,10.011 5.900 M15.497 7.313 C 15.093 7.503,14.960 8.015,15.215 8.400 C 15.350 8.603,15.462 8.658,15.944 8.757 C 16.540 8.878,16.861 9.053,17.304 9.496 C 17.601 9.793,17.699 9.923,17.834 10.200 C 18.038 10.620,18.116 10.915,18.144 11.380 C 18.181 11.984,18.034 12.574,17.714 13.105 C 17.566 13.351,15.095 15.970,14.826 16.166 C 14.359 16.507,13.890 16.654,13.280 16.650 C 12.943 16.649,12.797 16.628,12.540 16.545 C 11.869 16.330,11.296 15.829,10.962 15.166 C 10.569 14.383,10.569 13.299,10.962 12.514 C 11.126 12.187,11.248 12.037,11.983 11.259 C 12.316 10.906,12.619 10.560,12.655 10.491 C 12.753 10.300,12.739 9.980,12.624 9.783 C 12.440 9.469,11.970 9.329,11.652 9.494 C 11.496 9.574,10.229 10.914,9.985 11.256 C 9.486 11.954,9.160 12.975,9.160 13.840 C 9.160 15.089,9.736 16.366,10.652 17.153 C 12.134 18.424,14.260 18.485,15.800 17.300 C 16.109 17.062,18.500 14.560,18.780 14.182 C 19.138 13.697,19.401 13.119,19.545 12.500 C 19.650 12.050,19.650 11.030,19.545 10.580 C 19.339 9.693,18.924 8.960,18.275 8.336 C 17.783 7.861,17.281 7.573,16.614 7.379 C 16.132 7.240,15.707 7.214,15.497 7.313 " stroke="none" fill-rule="evenodd" fill="black"></path></svg>