<svg width="24" height="24" viewBox="0 0 24 24" fill="none" xmlns="http://www.w3.org/2000/svg"><path d="M6.640 5.820 C 4.130 6.164,2.057 8.032,1.445 10.500 C 1.207 11.462,1.207 12.541,1.446 13.500 C 2.062 15.979,4.149 17.848,6.672 18.180 C 7.213 18.252,9.091 18.264,9.267 18.197 C 9.409 18.144,9.588 17.976,9.669 17.821 C 9.750 17.667,9.749 17.332,9.668 17.175 C 9.577 16.999,9.344 16.807,9.191 16.783 C 9.119 16.772,8.565 16.755,7.960 16.745 C 7.129 16.731,6.787 16.711,6.560 16.660 C 4.322 16.159,2.760 14.246,2.760 12.006 C 2.760 11.188,2.919 10.542,3.302 9.801 C 3.843 8.752,4.823 7.905,5.940 7.518 C 6.563 7.302,6.778 7.274,7.960 7.255 C 8.565 7.245,9.119 7.228,9.191 7.217 C 9.344 7.193,9.577 7.001,9.668 6.825 C 9.749 6.668,9.750 6.333,9.669 6.179 C 9.588 6.024,9.409 5.856,9.267 5.803 C 9.106 5.742,7.116 5.755,6.640 5.820 M14.647 5.846 C 14.389 5.973,14.260 6.192,14.260 6.500 C 14.260 6.704,14.279 6.774,14.369 6.904 C 14.584 7.215,14.594 7.217,15.920 7.244 C 16.814 7.263,17.177 7.286,17.420 7.338 C 19.666 7.824,21.240 9.745,21.240 12.000 C 21.240 14.174,19.731 16.097,17.620 16.615 C 17.192 16.720,16.678 16.760,15.743 16.760 C 14.890 16.760,14.813 16.766,14.650 16.845 C 14.390 16.971,14.260 17.189,14.260 17.500 C 14.260 17.706,14.279 17.774,14.374 17.912 C 14.442 18.009,14.562 18.112,14.666 18.163 C 14.838 18.246,14.876 18.248,16.071 18.228 C 17.450 18.205,17.686 18.175,18.445 17.921 C 19.400 17.602,20.193 17.116,20.894 16.418 C 22.094 15.223,22.729 13.694,22.729 12.000 C 22.729 11.235,22.620 10.585,22.377 9.907 C 21.761 8.184,20.381 6.789,18.660 6.148 C 17.842 5.843,17.241 5.760,15.848 5.760 C 14.878 5.760,14.810 5.765,14.647 5.846 M7.815 11.278 C 7.331 11.393,7.098 12.004,7.383 12.408 C 7.447 12.499,7.572 12.610,7.660 12.656 C 7.819 12.739,7.851 12.740,11.879 12.751 C 14.744 12.759,16.001 12.749,16.153 12.717 C 16.902 12.562,16.930 11.473,16.189 11.286 C 15.979 11.234,8.034 11.226,7.815 11.278 " stroke="none" fill-rule="evenodd" fill="black"></path></svg>