<svg width="24" height="24" viewBox="0 0 24 24" fill="none" xmlns="http://www.w3.org/2000/svg"><path d="M7.200 2.264 C 5.837 2.345,4.610 2.819,3.560 3.670 C 1.351 5.461,0.640 8.554,1.846 11.120 C 2.162 11.791,2.681 12.538,2.912 12.654 C 3.430 12.914,3.999 12.569,4.000 11.994 C 4.000 11.752,4.006 11.763,3.546 11.112 C 3.327 10.802,3.073 10.279,2.964 9.914 C 2.795 9.350,2.780 9.229,2.783 8.480 C 2.785 7.816,2.796 7.701,2.888 7.360 C 3.390 5.505,4.865 4.138,6.707 3.820 C 7.025 3.765,7.488 3.758,10.167 3.769 L 13.260 3.782 13.640 3.887 C 14.515 4.128,15.219 4.535,15.842 5.158 C 16.467 5.783,16.876 6.492,17.112 7.360 C 17.206 7.706,17.215 7.808,17.215 8.500 C 17.215 9.192,17.206 9.294,17.112 9.640 C 16.700 11.161,15.620 12.383,14.210 12.927 C 13.492 13.203,13.432 13.210,11.517 13.236 L 9.774 13.260 9.612 13.367 C 9.372 13.526,9.267 13.721,9.267 14.007 C 9.267 14.203,9.286 14.270,9.383 14.408 C 9.447 14.499,9.572 14.610,9.660 14.656 C 9.815 14.737,9.874 14.740,11.420 14.739 C 13.118 14.739,13.374 14.719,14.065 14.537 C 16.478 13.900,18.260 11.937,18.664 9.471 C 18.743 8.993,18.744 8.012,18.666 7.540 C 18.265 5.103,16.518 3.147,14.144 2.481 C 13.402 2.273,13.338 2.269,10.280 2.260 C 8.707 2.255,7.321 2.257,7.200 2.264 M11.200 9.266 C 8.247 9.419,5.816 11.601,5.336 14.529 C 5.256 15.012,5.256 15.988,5.336 16.471 C 5.574 17.924,6.312 19.251,7.411 20.202 C 8.325 20.994,9.412 21.493,10.640 21.686 C 11.131 21.764,16.869 21.764,17.360 21.686 C 19.875 21.291,21.841 19.559,22.519 17.143 C 22.825 16.053,22.800 14.733,22.451 13.620 C 22.328 13.227,22.013 12.548,21.790 12.200 C 21.542 11.810,21.211 11.407,21.088 11.346 C 20.570 11.086,20.001 11.431,20.000 12.006 C 20.000 12.248,19.994 12.237,20.454 12.888 C 20.673 13.198,20.927 13.721,21.036 14.086 C 21.205 14.650,21.220 14.771,21.217 15.520 C 21.215 16.184,21.204 16.299,21.112 16.640 C 20.610 18.495,19.135 19.862,17.293 20.180 C 16.975 20.235,16.512 20.242,13.833 20.231 L 10.740 20.218 10.360 20.113 C 9.485 19.872,8.781 19.465,8.158 18.842 C 7.533 18.217,7.124 17.508,6.888 16.640 C 6.794 16.294,6.785 16.192,6.785 15.500 C 6.785 14.808,6.794 14.706,6.888 14.360 C 7.390 12.509,8.862 11.141,10.695 10.822 C 10.972 10.774,11.373 10.760,12.503 10.760 C 14.169 10.760,14.295 10.745,14.520 10.520 C 14.918 10.122,14.730 9.423,14.189 9.286 C 14.023 9.245,11.895 9.230,11.200 9.266 " stroke="none" fill-rule="evenodd" fill="black"></path></svg>