<svg width="24" height="24" viewBox="0 0 24 24" fill="none" xmlns="http://www.w3.org/2000/svg"><path d="M11.320 1.281 C 7.041 1.525,3.252 4.409,1.843 8.497 C 1.180 10.418,1.082 12.560,1.564 14.550 C 2.505 18.428,5.572 21.495,9.450 22.436 C 11.106 22.837,12.894 22.837,14.550 22.436 C 18.428 21.495,21.495 18.428,22.436 14.550 C 22.837 12.894,22.837 11.106,22.436 9.450 C 21.425 5.282,17.985 2.095,13.742 1.398 C 13.334 1.331,12.074 1.229,11.880 1.247 C 11.847 1.250,11.595 1.265,11.320 1.281 M13.146 2.822 C 14.201 2.960,15.125 3.237,16.060 3.696 C 18.877 5.079,20.768 7.722,21.178 10.854 C 21.301 11.786,21.244 13.026,21.034 13.998 C 20.745 15.343,20.003 16.855,19.121 17.900 C 18.247 18.935,17.240 19.726,16.060 20.304 C 14.761 20.940,13.462 21.240,12.000 21.240 C 10.538 21.240,9.236 20.940,7.940 20.304 C 5.123 18.921,3.232 16.278,2.822 13.146 C 2.699 12.214,2.756 10.974,2.966 10.002 C 3.177 9.020,3.703 7.775,4.268 6.920 C 5.750 4.677,8.131 3.188,10.820 2.823 C 11.380 2.746,12.569 2.746,13.146 2.822 M10.880 6.345 C 10.515 6.414,10.097 6.547,9.840 6.676 C 9.557 6.817,7.581 8.024,7.060 8.373 C 5.835 9.193,5.153 10.645,5.319 12.080 C 5.383 12.630,5.457 12.885,5.699 13.380 C 6.112 14.225,6.731 14.823,7.529 15.147 C 8.012 15.343,8.431 15.212,8.609 14.808 C 8.713 14.574,8.690 14.300,8.548 14.086 C 8.468 13.964,8.368 13.892,8.096 13.763 C 7.278 13.372,6.780 12.572,6.789 11.660 C 6.795 10.995,7.046 10.388,7.497 9.943 C 7.732 9.712,8.022 9.514,9.066 8.871 C 10.376 8.064,10.590 7.947,10.940 7.854 C 11.350 7.745,11.946 7.830,12.405 8.063 C 12.861 8.294,13.286 8.856,13.462 9.460 C 13.548 9.757,13.548 10.332,13.461 10.660 C 13.288 11.315,12.961 11.755,12.297 12.225 C 11.868 12.530,11.749 12.701,11.749 13.017 C 11.749 13.338,11.906 13.571,12.209 13.698 C 12.511 13.824,12.689 13.774,13.206 13.417 C 13.669 13.097,14.215 12.533,14.453 12.127 C 15.279 10.722,15.200 9.015,14.248 7.736 C 13.786 7.113,13.085 6.646,12.300 6.436 C 11.988 6.352,11.132 6.298,10.880 6.345 M15.750 8.801 C 15.462 8.957,15.299 9.354,15.399 9.657 C 15.476 9.890,15.623 10.028,16.009 10.227 C 16.588 10.526,16.962 10.976,17.183 11.640 C 17.280 11.931,17.281 12.561,17.184 12.917 C 17.029 13.488,16.667 14.004,16.203 14.317 C 15.812 14.581,13.788 15.826,13.577 15.932 C 12.538 16.456,11.274 16.016,10.767 14.954 C 10.578 14.559,10.520 14.306,10.521 13.888 C 10.522 13.276,10.754 12.664,11.145 12.241 C 11.268 12.109,11.539 11.881,11.747 11.736 C 12.156 11.451,12.263 11.319,12.304 11.050 C 12.373 10.588,11.936 10.150,11.468 10.212 C 11.249 10.242,10.592 10.691,10.197 11.080 C 9.696 11.575,9.343 12.183,9.153 12.880 C 9.072 13.177,9.060 13.308,9.062 13.920 C 9.064 14.563,9.073 14.649,9.172 14.971 C 9.593 16.340,10.605 17.289,11.939 17.564 C 12.637 17.708,13.431 17.629,14.068 17.351 C 14.398 17.208,16.752 15.769,17.210 15.431 C 18.738 14.305,19.208 12.022,18.251 10.370 C 17.853 9.682,17.386 9.237,16.720 8.910 C 16.302 8.705,15.991 8.670,15.750 8.801 " stroke="none" fill-rule="evenodd" fill="black"></path></svg>