<svg width="24" height="24" viewBox="0 0 24 24" fill="none" xmlns="http://www.w3.org/2000/svg"><path d="M15.480 5.283 C 12.512 5.499,9.994 7.716,9.401 10.636 C 9.301 11.127,9.233 11.974,9.278 12.173 C 9.296 12.250,9.348 12.367,9.394 12.432 C 9.706 12.870,10.431 12.817,10.658 12.339 C 10.702 12.247,10.739 12.024,10.760 11.727 C 10.779 11.470,10.823 11.116,10.860 10.940 C 11.184 9.374,12.242 8.014,13.700 7.290 C 14.468 6.908,15.045 6.780,16.000 6.780 C 16.526 6.780,16.785 6.798,17.040 6.853 C 18.065 7.072,18.963 7.560,19.701 8.299 C 20.439 9.036,20.925 9.932,21.147 10.961 C 21.250 11.438,21.250 12.562,21.147 13.039 C 20.802 14.638,19.769 15.977,18.320 16.701 C 17.679 17.022,17.046 17.186,16.247 17.240 C 15.820 17.269,15.734 17.286,15.602 17.374 C 15.167 17.662,15.144 18.303,15.557 18.598 C 15.735 18.724,15.955 18.753,16.470 18.717 C 20.186 18.459,22.976 15.249,22.717 11.527 C 22.604 9.890,21.925 8.401,20.762 7.238 C 19.360 5.837,17.473 5.138,15.480 5.283 M6.780 5.580 C 5.405 5.800,4.165 6.424,3.185 7.390 C 1.934 8.624,1.274 10.215,1.274 12.000 C 1.274 13.785,1.934 15.376,3.185 16.610 C 4.420 17.828,6.006 18.477,7.750 18.479 C 10.739 18.483,13.302 16.492,14.042 13.591 C 14.211 12.932,14.290 11.978,14.197 11.733 C 14.095 11.460,13.807 11.269,13.500 11.269 C 13.260 11.269,13.096 11.345,12.928 11.537 C 12.793 11.691,12.775 11.762,12.738 12.300 C 12.583 14.570,10.987 16.415,8.760 16.899 C 8.294 17.001,7.458 17.021,6.980 16.942 C 5.188 16.648,3.699 15.434,3.066 13.752 C 2.840 13.152,2.782 12.793,2.782 12.000 C 2.782 11.356,2.794 11.211,2.877 10.880 C 3.147 9.792,3.647 8.962,4.473 8.229 C 5.302 7.492,6.557 7.001,7.611 7.000 C 8.153 7.000,8.480 6.723,8.480 6.264 C 8.480 5.947,8.320 5.690,8.051 5.575 C 7.890 5.506,7.227 5.509,6.780 5.580 " stroke="none" fill-rule="evenodd" fill="black"></path></svg>