<svg width="24" height="24" viewBox="0 0 24 24" fill="none" xmlns="http://www.w3.org/2000/svg"><path d="M14.520 2.428 C 12.188 2.541,10.088 3.840,8.959 5.868 C 8.458 6.768,8.199 7.635,8.119 8.684 C 8.055 9.518,8.167 10.467,8.425 11.260 C 8.738 12.225,9.393 13.295,10.035 13.889 C 10.233 14.073,10.314 14.120,10.464 14.143 C 10.929 14.212,11.320 13.883,11.320 13.420 C 11.320 13.161,11.249 13.022,10.943 12.682 C 10.280 11.946,9.829 11.023,9.662 10.065 C 9.591 9.657,9.581 8.785,9.642 8.400 C 9.902 6.780,10.820 5.431,12.220 4.610 C 12.945 4.185,13.727 3.964,14.621 3.931 C 15.817 3.888,16.799 4.167,17.798 4.834 C 18.352 5.204,19.024 5.912,19.340 6.460 C 19.827 7.303,20.032 8.014,20.067 8.980 C 20.091 9.679,20.032 10.135,19.835 10.749 C 19.591 11.513,19.233 12.128,18.672 12.748 C 18.422 13.025,18.349 13.177,18.349 13.420 C 18.349 13.738,18.507 13.972,18.809 14.098 C 19.170 14.249,19.448 14.128,19.883 13.634 C 20.579 12.842,21.121 11.818,21.375 10.820 C 21.626 9.833,21.633 8.564,21.395 7.580 C 20.914 5.599,19.528 3.909,17.680 3.051 C 16.737 2.613,15.544 2.378,14.520 2.428 M4.608 10.267 C 4.372 10.383,3.769 11.097,3.433 11.660 C 2.809 12.702,2.521 13.755,2.521 15.000 C 2.521 16.752,3.136 18.269,4.358 19.535 C 5.200 20.407,6.239 21.001,7.480 21.322 C 8.105 21.484,9.240 21.529,9.950 21.421 C 11.978 21.112,13.752 19.867,14.717 18.074 C 15.565 16.500,15.718 14.534,15.123 12.865 C 14.813 11.996,14.428 11.355,13.771 10.614 C 13.410 10.207,13.106 10.107,12.740 10.275 C 12.550 10.363,12.464 10.452,12.382 10.650 C 12.240 10.989,12.318 11.226,12.722 11.685 C 13.927 13.053,14.306 14.884,13.736 16.593 C 13.368 17.697,12.557 18.698,11.540 19.304 C 10.311 20.036,8.777 20.196,7.400 19.736 C 6.653 19.487,6.126 19.162,5.531 18.585 C 4.536 17.622,4.000 16.367,4.000 15.000 C 4.000 13.742,4.442 12.610,5.318 11.620 C 5.627 11.271,5.705 11.091,5.662 10.822 C 5.587 10.350,5.032 10.058,4.608 10.267 " stroke="none" fill-rule="evenodd" fill="black"></path></svg>