<svg width="24" height="24" viewBox="0 0 24 24" fill="none" xmlns="http://www.w3.org/2000/svg"><path d="M11.193 1.280 C 7.765 1.589,4.980 3.442,3.601 6.332 C 3.153 7.273,2.878 8.226,2.712 9.420 C 2.646 9.895,2.647 11.477,2.713 11.940 C 3.004 13.963,3.708 15.757,4.940 17.612 L 5.094 17.845 3.232 19.712 C 2.207 20.740,1.346 21.625,1.318 21.680 C 1.290 21.735,1.267 21.881,1.267 22.004 C 1.267 22.498,1.681 22.816,2.189 22.712 C 2.376 22.674,2.592 22.460,12.490 12.566 C 18.342 6.717,22.628 2.403,22.665 2.324 C 22.753 2.138,22.747 1.837,22.651 1.651 C 22.608 1.568,22.499 1.447,22.408 1.383 C 22.194 1.233,21.848 1.218,21.636 1.352 C 21.561 1.398,20.915 2.022,20.200 2.738 C 19.485 3.454,18.890 4.040,18.876 4.040 C 18.863 4.040,18.674 3.876,18.456 3.675 C 17.412 2.715,16.161 2.031,14.700 1.622 C 13.633 1.324,12.230 1.187,11.193 1.280 M13.128 2.823 C 14.015 2.932,14.822 3.177,15.700 3.602 C 16.467 3.973,16.842 4.230,17.523 4.852 L 17.818 5.121 16.426 6.514 L 15.034 7.906 14.767 7.629 C 14.228 7.071,13.483 6.662,12.740 6.518 C 12.305 6.433,11.528 6.449,11.120 6.550 C 10.204 6.778,9.382 7.327,8.856 8.060 C 8.234 8.928,8.003 10.110,8.242 11.200 C 8.384 11.843,8.799 12.574,9.301 13.064 L 9.592 13.348 7.882 15.058 L 6.172 16.767 5.965 16.444 C 4.157 13.626,3.676 10.641,4.584 7.882 C 5.735 4.383,9.191 2.337,13.128 2.823 M20.039 7.850 C 19.838 7.951,19.695 8.139,19.654 8.354 C 19.638 8.441,19.656 8.661,19.698 8.900 C 19.919 10.138,19.929 11.049,19.735 12.200 C 19.404 14.165,18.353 16.280,16.741 18.220 C 16.044 19.060,15.083 20.036,14.583 20.413 C 14.266 20.652,13.543 20.991,13.100 21.108 C 12.740 21.204,12.630 21.214,12.000 21.214 C 11.372 21.214,11.260 21.204,10.915 21.111 C 10.223 20.924,9.634 20.621,9.138 20.195 C 8.790 19.896,8.609 19.800,8.394 19.800 C 7.901 19.800,7.548 20.271,7.679 20.755 C 7.800 21.204,9.129 22.114,10.133 22.436 C 10.765 22.638,11.058 22.685,11.803 22.708 C 12.586 22.732,13.028 22.682,13.660 22.499 C 14.698 22.198,15.530 21.674,16.480 20.721 C 18.074 19.123,19.262 17.503,20.115 15.766 C 20.765 14.441,21.142 13.180,21.302 11.800 C 21.447 10.552,21.274 8.504,20.988 8.073 C 20.877 7.906,20.593 7.760,20.380 7.760 C 20.290 7.760,20.137 7.800,20.039 7.850 M12.615 8.024 C 12.745 8.055,12.961 8.139,13.095 8.211 C 13.326 8.333,13.844 8.779,13.920 8.920 C 13.948 8.972,13.622 9.318,12.302 10.638 L 10.649 12.291 10.353 11.995 C 9.864 11.509,9.642 10.975,9.641 10.286 C 9.640 9.732,9.814 9.235,10.151 8.834 C 10.790 8.071,11.649 7.789,12.615 8.024 " stroke="none" fill-rule="evenodd" fill="black"></path></svg>