<svg width="24" height="24" viewBox="0 0 24 24" fill="none" xmlns="http://www.w3.org/2000/svg"><path d="M11.580 1.267 C 9.084 1.374,6.789 2.372,5.170 4.055 C 3.763 5.518,2.955 7.310,2.695 9.546 C 2.618 10.208,2.639 11.503,2.737 12.152 C 3.120 14.696,4.361 17.167,6.497 19.640 C 7.084 20.319,8.030 21.246,8.459 21.563 C 9.135 22.062,9.952 22.431,10.800 22.620 C 11.252 22.721,12.400 22.746,12.903 22.667 C 14.277 22.448,15.326 21.878,16.480 20.721 C 18.978 18.217,20.574 15.518,21.136 12.849 C 21.312 12.017,21.372 11.316,21.347 10.400 C 21.335 9.949,21.297 9.391,21.261 9.160 C 21.182 8.635,20.953 7.701,20.793 7.246 C 19.799 4.424,17.494 2.343,14.520 1.581 C 13.586 1.342,12.513 1.227,11.580 1.267 M13.380 2.856 C 15.192 3.188,16.611 3.916,17.762 5.105 C 18.970 6.352,19.646 7.913,19.838 9.897 C 20.073 12.326,19.166 15.035,17.278 17.540 C 16.472 18.610,15.258 19.904,14.583 20.413 C 14.471 20.497,14.182 20.664,13.940 20.784 C 12.491 21.502,10.747 21.360,9.406 20.414 C 9.084 20.187,8.093 19.199,7.526 18.540 C 5.742 16.467,4.614 14.274,4.265 12.200 C 4.111 11.286,4.087 10.612,4.179 9.760 C 4.429 7.450,5.344 5.714,7.000 4.411 C 8.068 3.570,9.465 3.006,10.980 2.803 C 11.417 2.744,12.956 2.779,13.380 2.856 M9.855 8.278 C 9.680 8.320,9.502 8.455,9.396 8.626 C 9.274 8.823,9.272 9.174,9.391 9.364 C 9.438 9.439,9.810 9.833,10.218 10.239 L 10.959 10.978 10.165 11.779 C 9.728 12.220,9.347 12.625,9.318 12.680 C 9.290 12.735,9.267 12.884,9.267 13.011 C 9.267 13.202,9.287 13.271,9.383 13.408 C 9.447 13.499,9.568 13.608,9.651 13.651 C 9.837 13.747,10.139 13.753,10.325 13.665 C 10.399 13.629,10.811 13.249,11.239 12.821 L 12.018 12.042 12.819 12.836 C 13.559 13.570,13.635 13.633,13.810 13.670 C 14.389 13.792,14.832 13.349,14.710 12.770 C 14.673 12.595,14.610 12.519,13.877 11.780 L 13.084 10.980 13.857 10.200 C 14.570 9.481,14.633 9.405,14.670 9.230 C 14.730 8.947,14.666 8.706,14.482 8.522 C 14.237 8.277,13.868 8.228,13.580 8.403 C 13.514 8.443,13.137 8.801,12.741 9.197 L 12.022 9.918 11.221 9.124 C 10.452 8.362,10.412 8.328,10.208 8.285 C 10.091 8.260,9.992 8.242,9.988 8.244 C 9.984 8.246,9.924 8.262,9.855 8.278 " stroke="none" fill-rule="evenodd" fill="black"></path></svg>