<svg width="24" height="24" viewBox="0 0 24 24" fill="none" xmlns="http://www.w3.org/2000/svg"><path d="M11.580 1.267 C 9.084 1.374,6.789 2.372,5.170 4.055 C 3.763 5.518,2.955 7.310,2.695 9.546 C 2.618 10.208,2.639 11.503,2.737 12.152 C 3.120 14.696,4.361 17.167,6.497 19.640 C 7.084 20.319,8.030 21.246,8.459 21.563 C 9.135 22.062,9.952 22.431,10.800 22.620 C 11.252 22.721,12.400 22.746,12.903 22.667 C 14.277 22.448,15.326 21.878,16.480 20.721 C 18.978 18.217,20.574 15.518,21.136 12.849 C 21.312 12.017,21.372 11.316,21.347 10.400 C 21.335 9.949,21.297 9.391,21.261 9.160 C 21.182 8.635,20.953 7.701,20.793 7.246 C 19.799 4.424,17.494 2.343,14.520 1.581 C 13.586 1.342,12.513 1.227,11.580 1.267 M13.380 2.856 C 15.192 3.188,16.611 3.916,17.762 5.105 C 18.970 6.352,19.646 7.913,19.838 9.897 C 20.073 12.326,19.166 15.035,17.278 17.540 C 16.472 18.610,15.258 19.904,14.583 20.413 C 14.471 20.497,14.182 20.664,13.940 20.784 C 12.491 21.502,10.747 21.360,9.406 20.414 C 9.084 20.187,8.093 19.199,7.526 18.540 C 5.742 16.467,4.614 14.274,4.265 12.200 C 4.111 11.286,4.087 10.612,4.179 9.760 C 4.429 7.450,5.344 5.714,7.000 4.411 C 8.068 3.570,9.465 3.006,10.980 2.803 C 11.417 2.744,12.956 2.779,13.380 2.856 M9.094 10.278 C 8.436 10.438,8.303 11.307,8.886 11.640 L 9.060 11.740 12.000 11.740 L 14.940 11.740 15.120 11.634 C 15.606 11.348,15.606 10.652,15.120 10.366 L 14.940 10.260 12.080 10.253 C 10.507 10.250,9.163 10.261,9.094 10.278 " stroke="none" fill-rule="evenodd" fill="black"></path></svg>