<svg width="24" height="24" viewBox="0 0 24 24" fill="none" xmlns="http://www.w3.org/2000/svg"><path d="M11.580 1.267 C 9.084 1.374,6.789 2.372,5.170 4.055 C 3.763 5.518,2.955 7.310,2.695 9.546 C 2.618 10.208,2.639 11.503,2.737 12.152 C 3.120 14.696,4.361 17.167,6.497 19.640 C 7.084 20.319,8.030 21.246,8.459 21.563 C 9.135 22.062,9.952 22.431,10.800 22.620 C 11.252 22.721,12.400 22.746,12.903 22.667 C 14.277 22.448,15.326 21.878,16.480 20.721 C 18.978 18.217,20.574 15.518,21.136 12.849 C 21.312 12.017,21.372 11.316,21.347 10.400 C 21.335 9.949,21.297 9.391,21.261 9.160 C 21.182 8.635,20.953 7.701,20.793 7.246 C 19.799 4.424,17.494 2.343,14.520 1.581 C 13.586 1.342,12.513 1.227,11.580 1.267 M13.380 2.856 C 15.192 3.188,16.611 3.916,17.762 5.105 C 18.970 6.352,19.646 7.913,19.838 9.897 C 20.073 12.326,19.166 15.035,17.278 17.540 C 16.472 18.610,15.258 19.904,14.583 20.413 C 14.471 20.497,14.182 20.664,13.940 20.784 C 12.491 21.502,10.747 21.360,9.406 20.414 C 9.084 20.187,8.093 19.199,7.526 18.540 C 5.742 16.467,4.614 14.274,4.265 12.200 C 4.111 11.286,4.087 10.612,4.179 9.760 C 4.429 7.450,5.344 5.714,7.000 4.411 C 8.068 3.570,9.465 3.006,10.980 2.803 C 11.417 2.744,12.956 2.779,13.380 2.856 M14.660 8.260 C 14.638 8.267,14.566 8.285,14.500 8.299 C 14.411 8.318,13.914 8.790,12.571 10.131 L 10.762 11.936 10.211 11.394 C 9.610 10.803,9.497 10.737,9.154 10.770 C 8.924 10.792,8.700 10.948,8.590 11.163 C 8.512 11.316,8.498 11.616,8.562 11.787 C 8.612 11.921,10.247 13.577,10.419 13.668 C 10.577 13.752,10.908 13.749,11.081 13.662 C 11.255 13.574,15.207 9.644,15.364 9.402 C 15.591 9.054,15.481 8.565,15.134 8.374 C 14.984 8.292,14.741 8.233,14.660 8.260 " stroke="none" fill-rule="evenodd" fill="black"></path></svg>