<svg width="24" height="24" viewBox="0 0 24 24" fill="none" xmlns="http://www.w3.org/2000/svg"><path d="M11.169 1.282 C 8.127 1.475,6.292 2.773,5.584 5.233 C 5.364 5.997,5.289 6.675,5.254 8.201 L 5.228 9.341 4.784 9.414 C 2.880 9.724,1.800 10.756,1.445 12.605 C 1.286 13.434,1.260 13.928,1.262 16.060 C 1.263 17.738,1.276 18.200,1.332 18.662 C 1.440 19.539,1.654 20.320,1.907 20.753 L 2.007 20.927 1.690 21.253 C 1.305 21.649,1.267 21.717,1.267 22.004 C 1.267 22.498,1.681 22.816,2.189 22.712 C 2.375 22.673,2.523 22.529,8.344 16.713 L 14.308 10.753 16.384 10.771 C 18.264 10.789,18.502 10.798,18.900 10.873 C 20.216 11.120,20.740 11.548,21.018 12.605 C 21.207 13.324,21.220 13.545,21.220 16.040 C 21.220 18.123,21.212 18.428,21.147 18.815 C 20.890 20.342,20.374 20.863,18.840 21.147 C 18.491 21.211,17.940 21.219,12.100 21.239 L 5.740 21.260 5.589 21.354 C 5.433 21.451,5.311 21.644,5.262 21.867 C 5.194 22.186,5.454 22.581,5.801 22.686 C 6.061 22.764,17.739 22.765,18.480 22.687 C 19.956 22.531,20.851 22.188,21.519 21.519 C 22.188 20.851,22.532 19.956,22.687 18.480 C 22.772 17.677,22.757 14.069,22.667 13.327 C 22.411 11.244,21.624 10.126,20.060 9.625 C 19.671 9.501,19.482 9.458,18.973 9.382 C 18.485 9.309,17.262 9.240,16.441 9.240 L 15.821 9.240 19.247 5.810 C 22.571 2.481,22.673 2.374,22.712 2.189 C 22.816 1.681,22.498 1.267,22.004 1.267 C 21.881 1.267,21.735 1.290,21.680 1.318 C 21.625 1.346,20.868 2.079,19.998 2.946 L 18.417 4.522 18.289 4.210 C 17.665 2.684,16.346 1.777,14.240 1.425 C 13.433 1.290,12.057 1.226,11.169 1.282 M13.780 2.856 C 15.032 3.053,15.772 3.362,16.327 3.922 C 16.574 4.170,16.670 4.305,16.815 4.606 C 16.984 4.957,17.160 5.512,17.160 5.697 C 17.160 5.752,16.589 6.351,15.430 7.510 L 13.700 9.240 10.230 9.240 L 6.760 9.240 6.760 8.264 C 6.760 7.202,6.800 6.676,6.926 6.060 C 7.166 4.895,7.665 4.081,8.457 3.564 C 9.082 3.156,9.839 2.924,11.000 2.785 C 11.348 2.743,13.395 2.795,13.780 2.856 M7.660 15.280 C 5.174 17.766,3.129 19.800,3.116 19.800 C 3.073 19.800,2.922 19.232,2.850 18.800 C 2.790 18.434,2.781 18.076,2.780 16.000 C 2.780 13.379,2.798 13.127,3.039 12.411 C 3.253 11.772,3.537 11.430,4.059 11.180 C 4.483 10.977,4.860 10.891,5.780 10.786 C 5.846 10.778,7.313 10.769,9.040 10.766 L 12.180 10.760 7.660 15.280 M13.900 13.740 C 13.878 13.747,13.811 13.764,13.751 13.777 C 13.586 13.813,13.374 14.022,13.297 14.222 C 13.202 14.471,13.240 14.665,13.455 15.026 C 13.920 15.808,13.823 16.662,13.202 17.255 C 12.919 17.525,12.621 17.672,12.241 17.728 C 11.670 17.813,11.217 17.645,10.701 17.158 C 10.400 16.875,10.204 16.760,10.020 16.760 C 9.780 16.760,9.429 17.000,9.334 17.228 C 9.260 17.404,9.266 17.659,9.348 17.831 C 9.453 18.052,9.861 18.463,10.193 18.681 C 11.266 19.385,12.579 19.429,13.652 18.797 C 14.026 18.576,14.576 18.026,14.797 17.652 C 15.284 16.827,15.375 15.802,15.045 14.864 C 14.937 14.558,14.675 14.118,14.497 13.945 C 14.341 13.793,14.044 13.691,13.900 13.740 " stroke="none" fill-rule="evenodd" fill="black"></path></svg>