<svg width="24" height="24" viewBox="0 0 24 24" fill="none" xmlns="http://www.w3.org/2000/svg"><path d="M11.320 1.281 C 7.041 1.525,3.252 4.409,1.843 8.497 C 1.180 10.418,1.082 12.560,1.564 14.550 C 2.505 18.428,5.572 21.495,9.450 22.436 C 11.106 22.837,12.894 22.837,14.550 22.436 C 18.428 21.495,21.495 18.428,22.436 14.550 C 22.837 12.894,22.837 11.106,22.436 9.450 C 21.425 5.282,17.985 2.095,13.742 1.398 C 13.334 1.331,12.074 1.229,11.880 1.247 C 11.847 1.250,11.595 1.265,11.320 1.281 M13.146 2.822 C 14.201 2.960,15.125 3.237,16.060 3.696 C 18.877 5.079,20.768 7.722,21.178 10.854 C 21.301 11.786,21.244 13.026,21.034 13.998 C 20.745 15.343,20.003 16.855,19.121 17.900 C 18.247 18.935,17.240 19.726,16.060 20.304 C 14.761 20.940,13.462 21.240,12.000 21.240 C 10.538 21.240,9.236 20.940,7.940 20.304 C 5.123 18.921,3.232 16.278,2.822 13.146 C 2.699 12.214,2.756 10.974,2.966 10.002 C 3.177 9.020,3.703 7.775,4.268 6.920 C 5.750 4.677,8.131 3.188,10.820 2.823 C 11.380 2.746,12.569 2.746,13.146 2.822 M11.457 6.282 C 10.426 6.362,9.637 6.701,9.086 7.303 C 8.566 7.871,8.318 8.624,8.257 9.825 L 8.230 10.350 7.985 10.417 C 7.146 10.650,6.621 11.195,6.399 12.065 C 6.192 12.872,6.191 15.125,6.397 15.929 C 6.655 16.935,7.247 17.457,8.372 17.670 C 8.703 17.733,9.068 17.740,12.000 17.740 C 14.932 17.740,15.297 17.733,15.628 17.670 C 16.847 17.440,17.446 16.840,17.668 15.628 C 17.766 15.095,17.766 12.905,17.668 12.372 C 17.478 11.333,16.991 10.729,16.122 10.454 L 15.768 10.342 15.741 9.821 C 15.680 8.612,15.429 7.858,14.894 7.281 C 14.497 6.851,13.962 6.555,13.302 6.398 C 13.017 6.331,12.112 6.231,11.920 6.247 C 11.887 6.249,11.679 6.265,11.457 6.282 M12.832 7.823 C 13.576 7.974,13.962 8.312,14.147 8.973 C 14.179 9.087,14.215 9.418,14.228 9.710 L 14.251 10.240 12.000 10.240 L 9.749 10.240 9.772 9.710 C 9.805 8.955,9.912 8.613,10.218 8.286 C 10.428 8.062,10.722 7.915,11.140 7.826 C 11.525 7.744,12.437 7.742,12.832 7.823 M15.637 11.854 C 15.918 11.949,16.057 12.093,16.147 12.384 C 16.212 12.593,16.220 12.778,16.220 14.000 C 16.220 15.528,16.193 15.733,15.963 15.963 C 15.902 16.025,15.746 16.107,15.616 16.147 C 15.396 16.215,15.156 16.220,12.000 16.220 C 8.844 16.220,8.604 16.215,8.384 16.147 C 8.092 16.057,7.948 15.917,7.857 15.637 C 7.798 15.455,7.784 15.224,7.770 14.192 C 7.752 12.868,7.781 12.505,7.931 12.200 C 8.035 11.990,8.249 11.864,8.600 11.805 C 8.725 11.784,10.250 11.771,12.120 11.775 C 15.192 11.781,15.435 11.787,15.637 11.854 M11.774 12.683 C 11.356 12.738,10.965 13.045,10.770 13.470 C 10.690 13.646,10.669 13.754,10.669 14.006 C 10.669 14.278,10.686 14.355,10.795 14.576 C 10.942 14.874,11.164 15.089,11.466 15.228 C 11.771 15.367,12.229 15.367,12.534 15.228 C 12.835 15.090,13.058 14.874,13.203 14.580 C 13.310 14.363,13.326 14.287,13.326 14.005 C 13.326 13.746,13.307 13.638,13.228 13.466 C 13.090 13.164,12.873 12.941,12.586 12.804 C 12.317 12.675,12.090 12.642,11.774 12.683 M12.099 13.905 C 12.177 13.983,12.165 14.075,12.070 14.136 C 11.931 14.223,11.775 14.026,11.882 13.898 C 11.945 13.822,12.019 13.825,12.099 13.905 " stroke="none" fill-rule="evenodd" fill="black"></path></svg>