<svg width="24" height="24" viewBox="0 0 24 24" fill="none" xmlns="http://www.w3.org/2000/svg"><path d="M11.169 1.281 C 8.120 1.479,6.292 2.773,5.584 5.233 C 5.364 5.997,5.289 6.675,5.254 8.201 L 5.228 9.341 4.784 9.414 C 3.813 9.572,3.024 9.937,2.481 10.481 C 1.809 11.152,1.468 12.040,1.313 13.520 C 1.241 14.210,1.241 17.789,1.313 18.480 C 1.467 19.953,1.812 20.851,2.481 21.519 C 3.149 22.188,4.044 22.531,5.520 22.687 C 5.911 22.728,7.328 22.740,12.000 22.740 C 16.672 22.740,18.089 22.728,18.480 22.687 C 19.956 22.531,20.851 22.188,21.519 21.519 C 22.188 20.851,22.533 19.953,22.687 18.480 C 22.759 17.790,22.759 14.210,22.687 13.520 C 22.533 12.047,22.188 11.149,21.519 10.481 C 20.976 9.937,20.187 9.572,19.216 9.414 L 18.772 9.341 18.746 8.201 C 18.710 6.668,18.635 5.996,18.416 5.233 C 17.890 3.407,16.798 2.269,15.005 1.680 C 13.968 1.340,12.549 1.192,11.169 1.281 M13.641 2.873 C 15.662 3.236,16.689 4.189,17.074 6.060 C 17.200 6.676,17.240 7.202,17.240 8.264 L 17.240 9.240 12.000 9.240 L 6.760 9.240 6.760 8.264 C 6.760 6.837,6.857 6.086,7.143 5.282 C 7.631 3.916,8.709 3.126,10.441 2.865 C 11.089 2.767,11.079 2.768,12.160 2.779 C 12.981 2.788,13.270 2.806,13.641 2.873 M18.920 10.867 C 20.151 11.108,20.650 11.485,20.961 12.411 C 21.202 13.126,21.220 13.379,21.220 16.000 C 21.220 18.121,21.212 18.427,21.147 18.815 C 21.011 19.619,20.805 20.112,20.458 20.458 C 20.112 20.805,19.619 21.011,18.815 21.147 C 18.406 21.216,17.998 21.220,12.000 21.220 C 5.977 21.220,5.595 21.216,5.180 21.146 C 4.397 21.014,3.795 20.759,3.501 20.435 C 3.193 20.096,2.979 19.560,2.854 18.820 C 2.788 18.426,2.780 18.131,2.780 16.000 C 2.780 13.379,2.798 13.126,3.039 12.411 C 3.253 11.772,3.537 11.430,4.059 11.180 C 4.485 10.976,4.815 10.900,5.780 10.785 C 5.846 10.777,8.735 10.774,12.200 10.778 C 18.376 10.785,18.508 10.787,18.920 10.867 M7.689 15.059 C 7.454 15.132,7.263 15.287,7.131 15.511 C 7.036 15.672,7.020 15.744,7.020 16.000 C 7.020 16.257,7.036 16.327,7.133 16.492 C 7.625 17.329,8.898 17.046,8.991 16.078 C 9.033 15.640,8.729 15.185,8.310 15.061 C 8.065 14.988,7.917 14.987,7.689 15.059 M11.689 15.056 C 11.452 15.134,11.262 15.289,11.131 15.511 C 11.036 15.672,11.020 15.744,11.020 16.000 C 11.020 16.257,11.036 16.327,11.133 16.492 C 11.356 16.871,11.789 17.060,12.217 16.964 C 12.929 16.805,13.232 15.975,12.789 15.394 C 12.549 15.080,12.069 14.932,11.689 15.056 M15.689 15.056 C 15.452 15.134,15.262 15.289,15.131 15.511 C 15.036 15.672,15.020 15.744,15.020 16.000 C 15.020 16.255,15.036 16.328,15.129 16.486 C 15.353 16.867,15.792 17.059,16.217 16.964 C 16.929 16.805,17.232 15.975,16.789 15.394 C 16.549 15.080,16.069 14.932,15.689 15.056 " stroke="none" fill-rule="evenodd" fill="black"></path></svg>