<svg width="24" height="24" viewBox="0 0 24 24" fill="none" xmlns="http://www.w3.org/2000/svg"><path d="M14.000 1.784 C 12.194 1.992,11.208 2.311,10.298 2.981 C 9.530 3.547,8.916 4.415,8.585 5.403 C 8.287 6.292,8.093 7.497,8.197 7.812 C 8.223 7.891,8.314 8.018,8.400 8.095 C 8.722 8.386,9.149 8.369,9.447 8.054 C 9.587 7.906,9.626 7.797,9.660 7.458 C 9.706 7.004,9.836 6.375,9.966 5.985 C 10.487 4.413,11.506 3.650,13.500 3.339 C 14.046 3.254,15.608 3.218,16.240 3.276 C 18.782 3.509,19.968 4.364,20.480 6.330 C 20.730 7.289,20.732 7.322,20.750 11.580 C 20.762 14.292,20.753 15.653,20.720 16.100 C 20.511 18.978,19.507 20.219,17.046 20.642 C 15.879 20.842,14.088 20.816,12.960 20.581 C 12.284 20.440,11.614 20.161,11.183 19.842 C 10.449 19.297,9.935 18.312,9.743 17.080 C 9.625 16.322,9.602 16.230,9.498 16.094 C 9.114 15.591,8.291 15.783,8.180 16.402 C 8.166 16.480,8.174 16.696,8.198 16.882 C 8.595 19.896,10.018 21.511,12.760 22.057 C 13.534 22.211,14.092 22.257,15.220 22.257 C 16.337 22.258,16.845 22.215,17.640 22.056 C 20.077 21.567,21.536 20.117,22.019 17.702 C 22.219 16.704,22.220 16.667,22.220 11.980 C 22.220 7.080,22.220 7.085,21.942 5.980 C 21.469 4.100,20.368 2.845,18.667 2.245 C 17.667 1.892,16.974 1.794,15.380 1.780 C 14.698 1.773,14.077 1.776,14.000 1.784 M12.340 7.977 C 12.191 8.043,12.019 8.224,11.963 8.373 C 11.896 8.548,11.912 8.828,11.997 8.992 C 12.040 9.073,12.544 9.608,13.118 10.180 L 14.161 11.220 7.970 11.240 L 1.780 11.260 1.627 11.355 C 1.385 11.506,1.267 11.718,1.267 12.003 C 1.267 12.203,1.286 12.270,1.383 12.408 C 1.447 12.499,1.572 12.610,1.660 12.656 C 1.820 12.740,1.829 12.740,7.990 12.760 L 14.161 12.780 13.118 13.820 C 12.544 14.392,12.040 14.927,11.997 15.008 C 11.851 15.290,11.915 15.672,12.145 15.887 C 12.366 16.094,12.722 16.143,12.992 16.003 C 13.073 15.961,13.935 15.128,14.906 14.153 C 16.593 12.459,16.673 12.371,16.711 12.190 C 16.737 12.065,16.737 11.935,16.711 11.810 C 16.673 11.629,16.593 11.541,14.906 9.847 C 13.935 8.872,13.073 8.039,12.992 7.997 C 12.819 7.907,12.517 7.898,12.340 7.977 " stroke="none" fill-rule="evenodd" fill="black"></path></svg>