<svg width="24" height="24" viewBox="0 0 24 24" fill="none" xmlns="http://www.w3.org/2000/svg"><path d="M11.815 3.278 C 11.331 3.394,11.098 4.004,11.383 4.408 C 11.570 4.672,11.717 4.725,12.372 4.762 C 13.312 4.816,13.808 4.907,14.600 5.172 C 16.371 5.763,17.784 6.999,18.541 8.620 C 19.018 9.639,19.240 10.714,19.240 12.000 C 19.240 14.218,18.539 15.988,17.134 17.318 C 16.398 18.014,15.581 18.501,14.600 18.828 C 13.799 19.096,13.304 19.186,12.350 19.238 C 11.812 19.267,11.745 19.279,11.605 19.372 C 11.372 19.526,11.267 19.724,11.267 20.007 C 11.267 20.203,11.286 20.270,11.383 20.408 C 11.582 20.689,11.736 20.742,12.320 20.730 C 13.927 20.697,15.595 20.216,16.860 19.420 C 17.405 19.077,17.778 18.785,18.235 18.342 C 19.998 16.633,20.887 14.147,20.720 11.390 C 20.640 10.052,20.382 9.017,19.858 7.928 C 19.410 6.997,18.922 6.320,18.193 5.620 C 16.675 4.163,14.709 3.367,12.380 3.267 C 12.138 3.257,11.884 3.262,11.815 3.278 M11.400 8.805 C 11.269 8.857,11.088 9.030,11.011 9.179 C 10.927 9.339,10.932 9.669,11.020 9.841 C 11.059 9.917,11.389 10.282,11.753 10.650 L 12.415 11.320 8.130 11.320 C 5.200 11.320,3.810 11.333,3.733 11.363 C 3.460 11.465,3.269 11.753,3.269 12.060 C 3.269 12.367,3.460 12.655,3.733 12.757 C 3.810 12.787,5.200 12.800,8.130 12.800 L 12.415 12.800 11.753 13.470 C 11.389 13.838,11.059 14.203,11.020 14.279 C 10.932 14.451,10.927 14.781,11.011 14.941 C 11.202 15.307,11.612 15.456,11.991 15.298 C 12.172 15.222,14.797 12.610,14.902 12.401 C 14.940 12.324,14.971 12.172,14.971 12.060 C 14.971 11.948,14.940 11.796,14.902 11.719 C 14.797 11.510,12.172 8.898,11.991 8.822 C 11.825 8.753,11.551 8.745,11.400 8.805 " stroke="none" fill-rule="evenodd" fill="black"></path></svg>