<svg width="24" height="24" viewBox="0 0 24 24" fill="none" xmlns="http://www.w3.org/2000/svg"><path d="M11.080 3.281 C 8.244 3.463,5.834 4.819,4.384 7.048 C 3.399 8.562,2.916 10.564,3.040 12.618 C 3.120 13.951,3.377 14.981,3.902 16.072 C 4.339 16.981,4.832 17.670,5.525 18.342 C 7.008 19.779,8.893 20.576,11.145 20.719 C 11.880 20.766,12.067 20.733,12.280 20.520 C 12.566 20.234,12.567 19.767,12.282 19.482 C 12.102 19.302,11.889 19.240,11.450 19.240 C 10.449 19.240,9.165 18.917,8.180 18.418 C 7.583 18.116,7.133 17.798,6.626 17.318 C 5.221 15.988,4.520 14.218,4.520 12.000 C 4.520 10.159,5.002 8.635,5.981 7.378 C 6.302 6.965,6.956 6.343,7.374 6.053 C 8.465 5.295,10.141 4.760,11.425 4.760 C 11.585 4.760,11.809 4.740,11.922 4.716 C 12.483 4.596,12.689 3.889,12.282 3.482 C 12.129 3.329,11.876 3.234,11.652 3.246 C 11.591 3.249,11.333 3.265,11.080 3.281 M17.160 8.805 C 17.029 8.857,16.848 9.030,16.771 9.179 C 16.687 9.339,16.692 9.669,16.780 9.841 C 16.819 9.917,17.149 10.282,17.513 10.650 L 18.175 11.320 13.890 11.320 C 10.960 11.320,9.570 11.333,9.493 11.363 C 9.220 11.465,9.029 11.753,9.029 12.060 C 9.029 12.367,9.220 12.655,9.493 12.757 C 9.570 12.787,10.960 12.800,13.890 12.800 L 18.175 12.800 17.513 13.470 C 17.149 13.838,16.819 14.203,16.780 14.279 C 16.692 14.451,16.687 14.781,16.771 14.941 C 16.962 15.307,17.372 15.456,17.751 15.298 C 17.932 15.222,20.557 12.610,20.662 12.401 C 20.700 12.324,20.731 12.172,20.731 12.060 C 20.731 11.948,20.700 11.796,20.662 11.719 C 20.557 11.510,17.932 8.898,17.751 8.822 C 17.585 8.753,17.311 8.745,17.160 8.805 " stroke="none" fill-rule="evenodd" fill="black"></path></svg>