<svg width="24" height="24" viewBox="0 0 24 24" fill="none" xmlns="http://www.w3.org/2000/svg"><path d="M14.000 1.784 C 12.194 1.992,11.208 2.311,10.298 2.981 C 9.530 3.547,8.916 4.415,8.585 5.403 C 8.287 6.292,8.093 7.497,8.197 7.812 C 8.223 7.891,8.314 8.018,8.400 8.095 C 8.722 8.386,9.149 8.369,9.447 8.054 C 9.587 7.906,9.626 7.797,9.660 7.458 C 9.706 7.004,9.836 6.375,9.966 5.985 C 10.487 4.413,11.506 3.650,13.500 3.339 C 14.046 3.254,15.608 3.218,16.240 3.276 C 18.782 3.509,19.968 4.364,20.480 6.330 C 20.730 7.289,20.732 7.322,20.750 11.580 C 20.762 14.292,20.753 15.653,20.720 16.100 C 20.511 18.978,19.507 20.219,17.046 20.642 C 15.879 20.842,14.088 20.816,12.960 20.581 C 12.284 20.440,11.614 20.161,11.183 19.842 C 10.449 19.297,9.935 18.312,9.743 17.080 C 9.625 16.322,9.602 16.230,9.498 16.094 C 9.114 15.591,8.291 15.783,8.180 16.402 C 8.166 16.480,8.174 16.696,8.198 16.882 C 8.595 19.896,10.018 21.511,12.760 22.057 C 13.534 22.211,14.092 22.257,15.220 22.257 C 16.337 22.258,16.845 22.215,17.640 22.056 C 20.077 21.567,21.536 20.117,22.019 17.702 C 22.219 16.704,22.220 16.667,22.220 11.980 C 22.220 7.080,22.220 7.085,21.942 5.980 C 21.469 4.100,20.368 2.845,18.667 2.245 C 17.667 1.892,16.974 1.794,15.380 1.780 C 14.698 1.773,14.077 1.776,14.000 1.784 M5.520 7.984 C 5.370 8.049,2.078 11.304,1.893 11.571 C 1.768 11.751,1.729 12.043,1.801 12.265 C 1.840 12.388,2.208 12.778,3.554 14.131 C 4.491 15.071,5.327 15.889,5.412 15.948 C 5.722 16.163,6.212 16.101,6.434 15.819 C 6.626 15.575,6.643 15.194,6.474 14.947 C 6.426 14.877,5.927 14.357,5.365 13.790 L 4.342 12.760 9.649 12.760 C 13.374 12.760,15.018 12.747,15.162 12.716 C 15.904 12.557,15.924 11.471,15.189 11.286 C 15.054 11.252,13.582 11.240,9.673 11.240 L 4.342 11.240 5.365 10.210 C 5.927 9.644,6.426 9.123,6.474 9.053 C 6.643 8.806,6.626 8.425,6.434 8.181 C 6.245 7.942,5.826 7.851,5.520 7.984 " stroke="none" fill-rule="evenodd" fill="black"></path></svg>