<svg width="24" height="24" viewBox="0 0 24 24" fill="none" xmlns="http://www.w3.org/2000/svg"><path d="M6.115 2.419 C 4.394 2.700,2.952 3.671,2.073 5.140 C 1.435 6.206,1.198 7.282,1.284 8.719 C 1.388 10.469,1.876 12.042,2.793 13.590 C 4.104 15.803,6.422 17.888,8.940 19.119 C 9.970 19.622,10.569 19.789,11.164 19.739 L 11.469 19.713 11.892 20.026 C 12.747 20.660,13.827 21.261,14.541 21.500 C 15.028 21.663,15.587 21.671,16.040 21.521 C 16.815 21.264,18.236 20.441,19.120 19.736 C 19.579 19.371,20.517 18.422,20.858 17.980 C 22.010 16.484,22.604 14.982,22.718 13.280 C 22.809 11.931,22.535 10.942,21.803 9.980 C 21.554 9.653,21.197 9.308,20.871 9.079 L 20.599 8.888 20.586 8.114 C 20.577 7.503,20.556 7.254,20.486 6.930 C 19.782 3.642,16.519 1.669,13.300 2.583 C 12.611 2.779,11.678 3.289,11.159 3.754 L 10.940 3.950 10.640 3.700 C 9.891 3.077,9.026 2.660,8.060 2.459 C 7.620 2.367,6.566 2.345,6.115 2.419 M7.826 3.942 C 8.708 4.122,9.595 4.654,10.169 5.347 C 10.443 5.679,10.590 5.785,10.832 5.823 C 11.127 5.871,11.303 5.769,11.726 5.311 C 11.932 5.088,12.236 4.805,12.401 4.682 C 13.888 3.578,15.910 3.579,17.405 4.684 C 17.908 5.056,18.368 5.604,18.646 6.165 C 18.933 6.743,19.061 7.233,19.106 7.922 L 19.133 8.331 18.996 8.307 C 17.839 8.101,16.545 8.433,15.548 9.191 L 15.317 9.367 15.104 9.207 C 14.130 8.471,12.992 8.146,11.860 8.279 C 9.850 8.515,8.263 10.023,7.941 12.003 C 7.672 13.665,8.240 15.817,9.386 17.472 C 9.482 17.610,9.560 17.732,9.560 17.742 C 9.560 17.799,8.598 17.252,8.020 16.867 C 6.417 15.797,4.904 14.251,4.060 12.820 C 3.360 11.632,2.944 10.390,2.798 9.049 C 2.731 8.429,2.768 7.431,2.873 7.060 C 3.105 6.235,3.440 5.650,4.003 5.086 C 5.016 4.074,6.417 3.654,7.826 3.942 M13.220 9.897 C 13.754 10.076,14.089 10.293,14.538 10.747 C 14.958 11.173,15.064 11.240,15.320 11.240 C 15.577 11.240,15.683 11.173,16.100 10.748 C 16.815 10.018,17.517 9.726,18.440 9.773 C 19.232 9.814,19.784 10.063,20.362 10.639 C 20.676 10.952,20.774 11.081,20.911 11.360 C 21.157 11.859,21.240 12.231,21.240 12.827 C 21.240 14.280,20.741 15.667,19.745 16.980 C 19.377 17.466,18.445 18.376,17.891 18.790 C 17.087 19.392,16.018 19.982,15.470 20.127 C 15.240 20.187,15.059 20.135,14.404 19.818 C 13.483 19.371,12.593 18.745,11.833 18.008 C 11.021 17.221,10.542 16.584,10.123 15.740 C 9.634 14.755,9.448 14.042,9.414 13.020 C 9.387 12.230,9.439 11.940,9.706 11.400 C 9.865 11.076,9.950 10.963,10.277 10.635 C 10.609 10.304,10.713 10.226,11.041 10.068 C 11.546 9.824,11.861 9.758,12.440 9.775 C 12.807 9.787,12.964 9.811,13.220 9.897 " stroke="none" fill-rule="evenodd" fill="black"></path></svg>