<svg width="24" height="24" viewBox="0 0 24 24" fill="none" xmlns="http://www.w3.org/2000/svg"><path d="M15.555 1.283 C 15.210 1.321,14.691 1.503,14.340 1.708 C 14.186 1.798,13.331 2.398,12.440 3.041 C 11.549 3.684,10.744 4.244,10.651 4.286 C 10.558 4.328,10.369 4.373,10.231 4.386 C 9.990 4.407,9.914 4.387,8.309 3.863 C 7.390 3.564,6.508 3.291,6.349 3.256 C 5.970 3.175,5.290 3.175,4.980 3.258 C 4.203 3.464,3.655 4.018,3.454 4.800 C 3.369 5.132,3.370 5.797,3.456 6.203 C 3.491 6.370,3.765 7.288,4.064 8.243 C 4.580 9.890,4.607 9.993,4.589 10.240 C 4.579 10.383,4.538 10.579,4.498 10.676 C 4.452 10.791,4.031 11.314,3.308 12.156 C 2.118 13.543,1.879 13.861,1.635 14.380 C 0.842 16.073,1.817 17.447,3.880 17.546 C 4.143 17.558,5.008 17.532,5.902 17.484 C 7.998 17.371,8.029 17.372,8.334 17.517 C 8.469 17.582,8.637 17.695,8.706 17.767 C 8.775 17.840,9.212 18.519,9.678 19.275 C 10.769 21.047,10.949 21.311,11.316 21.681 C 11.794 22.163,12.238 22.407,12.773 22.482 C 13.480 22.580,14.180 22.246,14.643 21.590 C 15.071 20.982,15.160 20.739,15.705 18.664 C 15.936 17.786,16.158 17.003,16.198 16.923 C 16.287 16.749,16.634 16.416,16.789 16.356 C 16.850 16.333,17.674 16.071,18.620 15.775 C 20.434 15.207,20.876 15.030,21.300 14.703 C 22.078 14.103,22.388 13.216,22.126 12.340 C 22.003 11.928,21.626 11.375,21.226 11.019 C 21.091 10.898,20.368 10.336,19.620 9.770 L 18.261 8.740 18.120 8.464 L 17.980 8.187 18.000 6.584 C 18.033 3.906,18.023 3.431,17.924 3.060 C 17.692 2.192,17.188 1.592,16.500 1.368 C 16.206 1.272,15.905 1.245,15.555 1.283 M16.097 2.806 C 16.236 2.869,16.382 3.096,16.461 3.373 C 16.544 3.663,16.548 3.911,16.508 6.300 C 16.477 8.142,16.479 8.232,16.555 8.525 C 16.686 9.029,17.017 9.612,17.333 9.893 C 17.403 9.955,18.073 10.471,18.821 11.040 C 19.570 11.608,20.269 12.165,20.374 12.277 C 20.837 12.772,20.833 13.192,20.364 13.537 C 20.083 13.743,19.945 13.794,18.061 14.382 C 17.115 14.678,16.212 14.983,16.055 15.059 C 15.504 15.330,14.910 16.004,14.724 16.570 C 14.679 16.708,14.464 17.504,14.245 18.340 C 13.818 19.972,13.742 20.211,13.535 20.564 C 13.198 21.138,12.842 21.142,12.318 20.576 C 12.075 20.313,12.021 20.232,11.039 18.640 C 10.571 17.881,10.119 17.158,10.036 17.034 C 9.661 16.480,8.870 16.011,8.161 15.922 C 7.990 15.901,7.262 15.923,6.040 15.987 C 4.145 16.086,3.789 16.084,3.400 15.975 C 2.808 15.809,2.719 15.565,3.021 14.940 C 3.187 14.598,3.326 14.422,4.536 13.020 C 5.062 12.411,5.570 11.797,5.664 11.655 C 5.972 11.197,6.146 10.418,6.075 9.824 C 6.059 9.689,5.820 8.859,5.546 7.979 C 4.893 5.890,4.880 5.842,4.880 5.469 C 4.880 4.859,5.110 4.654,5.756 4.689 C 6.066 4.706,6.273 4.765,7.840 5.283 L 9.580 5.857 10.100 5.859 C 10.677 5.860,10.971 5.801,11.367 5.603 C 11.492 5.540,12.357 4.940,13.287 4.270 C 14.910 3.101,15.160 2.935,15.478 2.818 C 15.657 2.752,15.965 2.746,16.097 2.806 M18.499 18.337 C 18.282 18.467,18.149 18.711,18.149 18.978 C 18.149 19.091,18.171 19.228,18.198 19.282 C 18.269 19.421,21.435 22.592,21.579 22.668 C 21.645 22.703,21.792 22.731,21.906 22.731 C 22.497 22.731,22.846 22.092,22.525 21.598 C 22.374 21.366,19.379 18.388,19.212 18.304 C 19.017 18.206,18.692 18.221,18.499 18.337 " stroke="none" fill-rule="evenodd" fill="black"></path></svg>