<svg width="24" height="24" viewBox="0 0 24 24" fill="none" xmlns="http://www.w3.org/2000/svg"><path d="M6.656 1.656 C 6.468 1.844,6.476 1.987,6.721 2.819 L 6.921 3.499 6.721 4.185 C 6.485 4.991,6.473 5.146,6.631 5.323 C 6.815 5.529,6.980 5.523,7.801 5.283 L 8.501 5.079 9.181 5.279 C 10.013 5.524,10.156 5.532,10.344 5.344 C 10.532 5.156,10.524 5.013,10.279 4.181 L 10.079 3.501 10.279 2.815 C 10.515 2.009,10.527 1.854,10.369 1.677 C 10.185 1.471,10.020 1.477,9.199 1.717 L 8.499 1.921 7.819 1.721 C 6.987 1.476,6.844 1.468,6.656 1.656 M8.100 2.840 C 8.451 2.940,8.544 2.940,8.911 2.837 C 9.074 2.791,9.216 2.763,9.227 2.773 C 9.237 2.784,9.209 2.926,9.163 3.089 C 9.060 3.458,9.060 3.542,9.163 3.911 C 9.209 4.074,9.237 4.216,9.227 4.227 C 9.216 4.237,9.074 4.209,8.911 4.163 C 8.542 4.060,8.458 4.060,8.089 4.163 C 7.926 4.209,7.784 4.237,7.773 4.227 C 7.763 4.216,7.791 4.074,7.837 3.911 C 7.940 3.544,7.940 3.451,7.840 3.100 C 7.751 2.789,7.747 2.760,7.790 2.760 C 7.807 2.760,7.946 2.796,8.100 2.840 M17.600 3.160 C 17.249 3.203,16.877 3.332,16.540 3.527 C 16.297 3.668,15.355 4.594,9.475 10.475 C 2.148 17.801,2.493 17.437,2.280 18.076 C 2.096 18.630,2.096 19.370,2.280 19.924 C 2.543 20.714,3.281 21.455,4.063 21.715 C 4.629 21.903,5.371 21.903,5.937 21.715 C 6.559 21.509,6.228 21.822,13.432 14.625 C 17.113 10.948,20.205 7.835,20.302 7.707 C 20.682 7.205,20.850 6.682,20.850 6.000 C 20.850 5.291,20.658 4.729,20.239 4.210 C 19.599 3.419,18.626 3.032,17.600 3.160 M18.503 4.725 C 18.812 4.840,19.160 5.188,19.275 5.497 C 19.390 5.802,19.389 6.200,19.274 6.508 C 19.200 6.705,19.104 6.823,18.604 7.331 L 18.020 7.923 17.048 6.950 L 16.076 5.976 16.670 5.394 C 17.159 4.914,17.302 4.797,17.482 4.728 C 17.781 4.613,18.202 4.612,18.503 4.725 M15.980 8.040 L 16.940 9.001 11.340 14.596 C 5.965 19.966,5.731 20.194,5.508 20.275 C 4.976 20.470,4.433 20.353,4.040 19.960 C 3.647 19.567,3.530 19.024,3.725 18.492 C 3.806 18.269,4.034 18.035,9.394 12.670 C 12.466 9.595,14.988 7.080,15.000 7.080 C 15.011 7.080,15.452 7.512,15.980 8.040 M2.656 7.656 C 2.468 7.844,2.476 7.987,2.721 8.819 L 2.921 9.499 2.721 10.185 C 2.485 10.991,2.473 11.146,2.631 11.323 C 2.815 11.529,2.980 11.523,3.801 11.283 L 4.501 11.079 5.181 11.279 C 6.013 11.524,6.156 11.532,6.344 11.344 C 6.532 11.156,6.524 11.013,6.279 10.181 L 6.079 9.501 6.279 8.815 C 6.515 8.009,6.527 7.854,6.369 7.677 C 6.185 7.471,6.020 7.477,5.199 7.717 L 4.499 7.921 3.819 7.721 C 2.987 7.476,2.844 7.468,2.656 7.656 M4.100 8.840 C 4.451 8.940,4.544 8.940,4.911 8.837 C 5.074 8.791,5.216 8.763,5.227 8.773 C 5.237 8.784,5.209 8.926,5.163 9.089 C 5.060 9.458,5.060 9.542,5.163 9.911 C 5.209 10.074,5.237 10.216,5.227 10.227 C 5.216 10.237,5.074 10.209,4.911 10.163 C 4.542 10.060,4.458 10.060,4.089 10.163 C 3.926 10.209,3.784 10.237,3.773 10.227 C 3.763 10.216,3.791 10.074,3.837 9.911 C 3.940 9.544,3.940 9.451,3.840 9.100 C 3.751 8.789,3.747 8.760,3.790 8.760 C 3.807 8.760,3.946 8.796,4.100 8.840 M17.656 12.656 C 17.468 12.844,17.476 12.987,17.721 13.819 L 17.921 14.499 17.721 15.185 C 17.485 15.991,17.473 16.146,17.631 16.323 C 17.815 16.529,17.980 16.523,18.801 16.283 L 19.501 16.079 20.181 16.279 C 21.013 16.524,21.156 16.532,21.344 16.344 C 21.532 16.156,21.524 16.013,21.279 15.181 L 21.079 14.501 21.279 13.815 C 21.515 13.009,21.527 12.854,21.369 12.677 C 21.185 12.471,21.020 12.477,20.199 12.717 L 19.499 12.921 18.819 12.721 C 17.987 12.476,17.844 12.468,17.656 12.656 M19.100 13.840 C 19.451 13.940,19.544 13.940,19.911 13.837 C 20.074 13.791,20.216 13.763,20.227 13.773 C 20.237 13.784,20.209 13.926,20.163 14.089 C 20.060 14.458,20.060 14.542,20.163 14.911 C 20.209 15.074,20.237 15.216,20.227 15.227 C 20.216 15.237,20.074 15.209,19.911 15.163 C 19.542 15.060,19.458 15.060,19.089 15.163 C 18.926 15.209,18.784 15.237,18.773 15.227 C 18.763 15.216,18.791 15.074,18.837 14.911 C 18.940 14.544,18.940 14.451,18.840 14.100 C 18.751 13.789,18.747 13.760,18.790 13.760 C 18.807 13.760,18.946 13.796,19.100 13.840 " stroke="none" fill-rule="evenodd" fill="black"></path></svg>