<svg width="24" height="24" viewBox="0 0 24 24" fill="none" xmlns="http://www.w3.org/2000/svg"><path d="M11.540 1.284 C 11.101 1.327,10.561 1.475,10.161 1.664 C 9.422 2.012,9.408 2.025,5.774 5.656 C 3.497 7.932,2.290 9.167,2.132 9.384 C 1.713 9.955,1.418 10.670,1.318 11.357 C 1.251 11.815,1.289 12.648,1.396 13.053 C 1.527 13.552,1.735 14.015,2.015 14.432 C 2.243 14.773,2.695 15.240,5.707 18.250 C 7.912 20.453,9.247 21.757,9.440 21.897 C 10.004 22.304,10.687 22.584,11.356 22.682 C 11.809 22.748,12.690 22.709,13.060 22.607 C 13.703 22.430,14.129 22.226,14.640 21.851 C 14.824 21.715,16.254 20.315,18.342 18.225 C 21.968 14.596,21.992 14.570,22.336 13.839 C 22.759 12.940,22.852 11.775,22.577 10.805 C 22.452 10.365,22.145 9.739,21.878 9.380 C 21.609 9.019,14.987 2.395,14.628 2.128 C 13.758 1.481,12.647 1.177,11.540 1.284 M12.660 2.820 C 13.053 2.902,13.529 3.149,13.881 3.453 C 14.045 3.596,14.747 4.281,15.440 4.976 L 16.700 6.240 14.350 8.590 L 12.000 10.940 9.659 8.600 L 7.319 6.260 8.849 4.735 C 10.358 3.232,10.385 3.207,10.727 3.043 C 10.917 2.951,11.187 2.852,11.327 2.821 C 11.664 2.748,12.313 2.747,12.660 2.820 M8.600 14.340 L 6.260 16.680 4.828 15.250 C 3.344 13.768,3.142 13.530,2.947 13.037 C 2.648 12.281,2.721 11.288,3.129 10.560 C 3.217 10.403,3.681 9.909,4.755 8.829 L 6.259 7.319 8.599 9.659 L 10.940 12.000 8.600 14.340 M19.205 8.750 C 19.987 9.537,20.685 10.266,20.756 10.371 C 21.089 10.863,21.239 11.369,21.239 12.000 C 21.239 12.496,21.160 12.851,20.956 13.275 C 20.793 13.615,20.766 13.644,19.265 15.151 L 17.740 16.681 15.400 14.341 L 13.060 12.000 15.400 9.660 C 16.687 8.373,17.750 7.320,17.762 7.320 C 17.774 7.320,18.423 7.964,19.205 8.750 M14.351 15.411 L 16.681 17.741 15.171 19.245 C 13.935 20.475,13.613 20.775,13.400 20.891 C 12.579 21.339,11.588 21.355,10.720 20.934 L 10.340 20.749 8.829 19.246 L 7.318 17.742 9.649 15.411 C 10.931 14.129,11.989 13.080,12.000 13.080 C 12.011 13.080,13.069 14.129,14.351 15.411 " stroke="none" fill-rule="evenodd" fill="black"></path></svg>