<svg width="24" height="24" viewBox="0 0 24 24" fill="none" xmlns="http://www.w3.org/2000/svg"><path d="M14.720 1.805 C 14.458 1.909,14.269 2.200,14.269 2.500 C 14.269 2.807,14.460 3.095,14.733 3.197 C 14.808 3.226,15.655 3.240,17.272 3.240 L 19.700 3.240 17.703 5.237 L 15.707 7.233 15.404 6.999 C 13.355 5.419,10.617 4.877,8.054 5.542 C 6.432 5.964,4.840 6.976,3.758 8.272 C 1.202 11.334,1.087 15.685,3.476 18.880 C 3.756 19.254,4.443 19.968,4.843 20.303 C 6.314 21.530,8.297 22.240,10.248 22.240 C 14.486 22.240,18.030 19.164,18.661 14.940 C 18.741 14.407,18.752 13.262,18.683 12.720 C 18.490 11.214,17.896 9.758,17.001 8.596 L 16.767 8.293 18.763 6.297 L 20.760 4.300 20.760 6.728 C 20.760 8.345,20.774 9.192,20.803 9.267 C 20.905 9.540,21.193 9.731,21.500 9.731 C 21.807 9.731,22.095 9.540,22.197 9.267 C 22.226 9.191,22.240 8.055,22.240 5.740 C 22.240 3.425,22.226 2.289,22.197 2.213 C 22.140 2.059,21.967 1.882,21.811 1.815 C 21.705 1.770,21.080 1.760,18.251 1.763 C 16.078 1.764,14.783 1.780,14.720 1.805 M11.255 6.822 C 12.359 6.993,13.391 7.405,14.280 8.031 C 14.771 8.376,15.624 9.229,15.969 9.720 C 17.279 11.581,17.605 13.995,16.832 16.120 C 16.216 17.812,14.975 19.207,13.362 20.019 C 12.766 20.319,11.897 20.589,11.220 20.685 C 10.756 20.750,9.716 20.749,9.280 20.683 C 8.030 20.493,6.907 20.015,5.940 19.259 C 5.574 18.972,4.940 18.333,4.673 17.980 C 3.983 17.067,3.534 16.010,3.332 14.820 C 3.248 14.328,3.249 13.186,3.334 12.660 C 3.779 9.894,5.834 7.649,8.550 6.962 C 9.355 6.758,10.467 6.701,11.255 6.822 " stroke="none" fill-rule="evenodd" fill="black"></path></svg>