<svg width="24" height="24" viewBox="0 0 24 24" fill="none" xmlns="http://www.w3.org/2000/svg"><path d="M7.960 2.665 C 7.817 2.696,7.574 2.781,7.420 2.854 C 7.077 3.017,3.066 5.314,2.760 5.522 C 2.207 5.899,1.729 6.635,1.600 7.308 C 1.569 7.473,1.560 9.086,1.569 12.900 C 1.584 18.876,1.560 18.378,1.862 19.032 C 2.147 19.650,2.646 20.099,3.260 20.290 C 3.475 20.357,3.638 20.377,3.960 20.376 C 4.736 20.374,4.982 20.275,6.865 19.206 C 7.999 18.562,8.170 18.478,8.391 18.447 C 8.885 18.380,8.845 18.363,11.864 19.871 C 15.060 21.468,14.942 21.422,15.793 21.390 C 16.158 21.376,16.374 21.347,16.563 21.286 C 16.811 21.206,20.968 18.871,21.471 18.529 C 22.031 18.148,22.474 17.509,22.669 16.800 C 22.735 16.557,22.740 16.204,22.740 11.300 C 22.740 5.692,22.744 5.817,22.539 5.228 C 22.278 4.481,21.727 3.929,21.024 3.710 C 20.607 3.580,19.988 3.591,19.508 3.735 C 19.069 3.867,18.930 3.937,17.500 4.752 C 16.862 5.115,16.263 5.446,16.169 5.489 C 16.043 5.545,15.904 5.565,15.649 5.566 L 15.300 5.567 12.440 4.144 C 9.282 2.573,9.339 2.596,8.592 2.604 C 8.387 2.606,8.103 2.633,7.960 2.665 M11.959 5.579 C 13.390 6.293,14.659 6.907,14.780 6.942 L 15.000 7.006 15.000 13.383 L 15.000 19.760 12.410 18.465 C 10.986 17.753,9.707 17.130,9.570 17.080 L 9.320 16.989 9.320 10.635 C 9.320 7.140,9.329 4.280,9.339 4.280 C 9.349 4.280,10.528 4.865,11.959 5.579 M7.800 10.701 C 7.800 16.706,7.796 17.044,7.730 17.064 C 7.541 17.121,7.116 17.347,5.985 17.989 C 4.544 18.806,4.363 18.889,3.998 18.893 C 3.526 18.899,3.242 18.646,3.101 18.096 C 3.046 17.882,3.040 17.247,3.049 12.677 L 3.060 7.500 3.193 7.256 C 3.266 7.121,3.392 6.947,3.473 6.869 C 3.597 6.749,7.681 4.366,7.770 4.362 C 7.787 4.361,7.800 7.214,7.800 10.701 M20.738 5.213 C 20.825 5.261,20.946 5.372,21.007 5.460 C 21.250 5.809,21.242 5.605,21.230 11.303 L 21.220 16.500 21.108 16.729 C 20.903 17.146,20.800 17.218,18.658 18.437 C 17.559 19.063,16.620 19.600,16.570 19.632 L 16.480 19.689 16.480 13.330 L 16.480 6.971 16.670 6.900 C 16.774 6.861,17.474 6.481,18.224 6.056 C 18.974 5.631,19.640 5.261,19.704 5.236 C 20.120 5.068,20.459 5.061,20.738 5.213 " stroke="none" fill-rule="evenodd" fill="black"></path></svg>