<svg width="24" height="24" viewBox="0 0 24 24" fill="none" xmlns="http://www.w3.org/2000/svg"><path d="M8.080 1.281 C 4.025 1.505,1.932 3.263,1.398 6.893 C 1.259 7.840,1.231 8.906,1.251 12.564 C 1.271 16.090,1.283 16.399,1.442 17.340 C 1.951 20.355,3.655 22.065,6.640 22.557 C 7.615 22.717,7.909 22.729,11.409 22.749 C 14.936 22.768,16.119 22.741,17.000 22.619 C 19.591 22.260,21.239 21.127,22.061 19.139 C 22.466 18.163,22.649 17.211,22.725 15.689 C 22.780 14.587,22.748 8.152,22.684 7.560 C 22.460 5.477,21.894 4.089,20.853 3.068 C 19.850 2.083,18.472 1.536,16.440 1.316 C 15.936 1.261,8.962 1.232,8.080 1.281 M16.405 2.819 C 17.999 2.988,19.015 3.379,19.773 4.115 C 20.232 4.560,20.577 5.112,20.806 5.770 L 20.900 6.040 13.480 13.462 C 6.461 20.483,6.054 20.883,5.944 20.862 C 5.765 20.828,5.172 20.564,4.864 20.383 C 4.549 20.197,4.018 19.715,3.802 19.420 C 3.332 18.779,3.036 17.954,2.854 16.780 C 2.785 16.334,2.780 15.993,2.780 12.000 C 2.780 8.011,2.785 7.665,2.854 7.220 C 3.229 4.797,4.188 3.606,6.200 3.065 C 7.252 2.783,7.462 2.772,11.940 2.766 C 15.110 2.762,15.964 2.772,16.405 2.819 M8.394 5.103 C 6.975 5.359,5.889 6.359,5.543 7.725 C 5.291 8.722,5.405 9.660,5.900 10.660 C 6.208 11.283,6.577 11.783,7.157 12.363 C 7.702 12.908,7.985 13.093,8.466 13.217 C 8.788 13.300,9.452 13.300,9.774 13.217 C 10.262 13.091,10.536 12.910,11.102 12.343 C 12.564 10.876,13.110 9.247,12.677 7.640 C 12.255 6.075,10.806 5.028,9.085 5.044 C 8.873 5.046,8.562 5.072,8.394 5.103 M9.720 6.605 C 10.232 6.718,10.841 7.167,11.054 7.588 C 11.316 8.106,11.392 8.751,11.258 9.320 C 11.171 9.690,10.854 10.326,10.571 10.700 C 10.223 11.161,9.661 11.690,9.455 11.751 C 8.963 11.897,8.653 11.772,8.112 11.207 C 7.316 10.377,6.974 9.700,6.931 8.871 C 6.893 8.137,7.081 7.596,7.525 7.158 C 8.063 6.628,8.888 6.420,9.720 6.605 M8.642 7.828 C 8.497 7.904,8.376 8.008,8.282 8.140 C 8.144 8.331,8.140 8.348,8.140 8.700 C 8.140 9.052,8.144 9.069,8.282 9.260 C 8.376 9.392,8.497 9.496,8.642 9.572 C 8.834 9.673,8.894 9.685,9.144 9.673 C 9.505 9.655,9.761 9.511,9.939 9.222 C 10.048 9.046,10.060 8.993,10.060 8.700 C 10.060 8.407,10.048 8.354,9.939 8.178 C 9.761 7.889,9.505 7.745,9.144 7.727 C 8.894 7.715,8.834 7.727,8.642 7.828 M21.230 12.253 C 21.217 15.932,21.208 16.426,21.146 16.800 C 21.048 17.398,20.894 18.003,20.735 18.417 C 20.601 18.766,20.362 19.240,20.321 19.240 C 20.309 19.240,19.121 18.061,17.680 16.620 L 15.060 14.000 18.120 10.940 C 21.162 7.898,21.180 7.880,21.212 8.003 C 21.229 8.070,21.237 9.983,21.230 12.253 M16.638 17.698 C 18.078 19.139,19.248 20.324,19.238 20.333 C 19.228 20.343,19.121 20.405,19.000 20.473 C 18.502 20.751,17.689 21.000,16.800 21.146 C 16.426 21.208,15.932 21.217,12.300 21.230 C 10.056 21.238,8.141 21.233,8.044 21.219 L 7.867 21.193 10.923 18.137 C 12.604 16.455,13.989 15.080,14.000 15.080 C 14.011 15.080,15.198 16.258,16.638 17.698 " stroke="none" fill-rule="evenodd" fill="black"></path></svg>