<svg width="24" height="24" viewBox="0 0 24 24" fill="none" xmlns="http://www.w3.org/2000/svg"><path d="M11.320 1.281 C 9.259 1.398,7.250 2.142,5.530 3.424 C 4.912 3.884,3.884 4.912,3.424 5.530 C 1.650 7.910,0.924 10.851,1.398 13.742 C 2.146 18.303,5.782 21.911,10.343 22.617 C 11.322 22.769,12.751 22.768,13.680 22.617 C 15.423 22.332,17.041 21.642,18.470 20.575 C 19.087 20.115,20.115 19.087,20.575 18.470 C 22.523 15.862,23.197 12.591,22.436 9.450 C 21.426 5.287,17.979 2.094,13.742 1.398 C 13.334 1.331,12.074 1.229,11.880 1.247 C 11.847 1.250,11.595 1.265,11.320 1.281 M13.146 2.822 C 14.825 3.042,16.452 3.722,17.730 4.738 C 17.857 4.839,17.960 4.934,17.960 4.951 C 17.960 5.018,4.967 17.969,4.925 17.943 C 4.859 17.903,4.443 17.348,4.201 16.979 C 3.703 16.221,3.162 14.915,2.965 13.998 C 2.689 12.714,2.690 11.283,2.966 10.002 C 3.249 8.688,3.936 7.265,4.813 6.180 C 5.148 5.765,5.972 4.962,6.381 4.653 C 7.688 3.664,9.192 3.044,10.820 2.823 C 11.380 2.746,12.569 2.746,13.146 2.822 M19.262 6.270 C 20.073 7.291,20.766 8.748,21.035 10.002 C 21.230 10.910,21.299 12.173,21.199 13.001 C 21.143 13.464,20.997 14.240,20.966 14.240 C 20.952 14.240,19.802 13.102,18.410 11.710 L 15.880 9.180 17.450 7.610 C 18.313 6.747,19.033 6.040,19.049 6.040 C 19.066 6.040,19.161 6.144,19.262 6.270 M20.202 16.270 C 19.820 17.022,19.216 17.855,18.643 18.419 L 18.359 18.699 15.360 15.700 L 12.360 12.700 13.590 11.470 L 14.820 10.240 17.620 13.040 L 20.420 15.841 20.202 16.270 M17.160 19.651 C 17.160 19.711,16.652 20.012,16.060 20.302 C 15.417 20.617,14.597 20.910,14.029 21.026 L 13.678 21.098 11.249 18.669 L 8.820 16.240 10.060 15.000 L 11.300 13.760 14.230 16.690 C 15.841 18.301,17.160 19.634,17.160 19.651 M9.740 19.280 L 11.700 21.240 11.512 21.240 C 11.249 21.240,10.455 21.132,10.002 21.035 C 9.085 20.838,7.779 20.297,7.021 19.799 C 6.652 19.557,6.097 19.141,6.057 19.075 C 6.034 19.037,7.699 17.320,7.760 17.320 C 7.771 17.320,8.662 18.202,9.740 19.280 " stroke="none" fill-rule="evenodd" fill="black"></path></svg>