<svg width="24" height="24" viewBox="0 0 24 24" fill="none" xmlns="http://www.w3.org/2000/svg"><path d="M11.320 1.281 C 7.041 1.525,3.252 4.409,1.843 8.497 C 1.180 10.418,1.082 12.560,1.564 14.550 C 2.505 18.428,5.572 21.495,9.450 22.436 C 11.106 22.837,12.894 22.837,14.550 22.436 C 18.428 21.495,21.495 18.428,22.436 14.550 C 22.837 12.894,22.837 11.106,22.436 9.450 C 21.425 5.282,17.985 2.095,13.742 1.398 C 13.334 1.331,12.074 1.229,11.880 1.247 C 11.847 1.250,11.595 1.265,11.320 1.281 M11.240 4.532 L 11.240 6.303 10.873 6.373 C 9.938 6.549,8.951 7.035,8.220 7.679 C 6.460 9.229,5.815 11.675,6.582 13.895 C 7.237 15.790,8.926 17.259,10.873 17.627 L 11.240 17.697 11.240 19.461 L 11.240 21.225 10.930 21.190 C 9.236 21.000,7.428 20.231,6.140 19.153 C 4.272 17.590,3.134 15.531,2.822 13.146 C 2.699 12.214,2.756 10.974,2.966 10.002 C 3.177 9.020,3.703 7.775,4.268 6.920 C 5.750 4.677,8.131 3.188,10.820 2.823 C 11.040 2.793,11.225 2.766,11.230 2.764 C 11.236 2.762,11.240 3.557,11.240 4.532 M13.871 2.943 C 15.271 3.222,16.779 3.943,17.860 4.847 C 19.728 6.410,20.866 8.469,21.178 10.854 C 21.301 11.786,21.244 13.026,21.034 13.998 C 20.745 15.343,20.003 16.855,19.121 17.900 C 18.793 18.288,18.158 18.915,17.787 19.217 C 16.510 20.257,14.720 21.005,13.070 21.190 L 12.760 21.225 12.760 19.461 L 12.760 17.697 13.127 17.627 C 14.062 17.451,15.049 16.965,15.780 16.321 C 17.540 14.771,18.185 12.325,17.418 10.105 C 16.763 8.210,15.074 6.741,13.127 6.373 L 12.760 6.303 12.760 4.539 L 12.760 2.775 13.070 2.810 C 13.240 2.829,13.601 2.889,13.871 2.943 M11.240 11.996 L 11.240 16.192 10.970 16.120 C 10.447 15.981,10.087 15.821,9.650 15.532 C 9.018 15.116,8.408 14.396,8.131 13.740 C 7.817 12.999,7.782 12.826,7.782 12.000 C 7.782 11.456,7.798 11.242,7.853 11.040 C 8.076 10.216,8.448 9.557,9.002 9.002 C 9.571 8.434,10.206 8.080,11.080 7.845 C 11.157 7.824,11.225 7.806,11.230 7.804 C 11.236 7.802,11.240 9.688,11.240 11.996 M13.460 8.012 C 14.531 8.416,15.453 9.277,15.869 10.260 C 16.183 11.001,16.218 11.174,16.218 12.000 C 16.218 12.826,16.183 12.999,15.869 13.740 C 15.592 14.396,14.982 15.116,14.350 15.532 C 13.913 15.821,13.553 15.981,13.030 16.120 L 12.760 16.192 12.760 12.000 L 12.760 7.808 13.030 7.880 C 13.178 7.919,13.372 7.979,13.460 8.012 " stroke="none" fill-rule="evenodd" fill="black"></path></svg>