<svg width="24" height="24" viewBox="0 0 24 24" fill="none" xmlns="http://www.w3.org/2000/svg"><path d="M11.070 1.321 C 8.508 1.551,6.130 2.684,4.339 4.526 C 3.500 5.389,2.905 6.228,2.401 7.260 C 1.619 8.858,1.303 10.223,1.303 12.000 C 1.303 13.777,1.619 15.142,2.401 16.740 C 3.482 18.951,5.351 20.756,7.612 21.772 C 11.399 23.475,15.821 22.834,18.963 20.126 C 20.828 18.519,22.066 16.399,22.516 14.040 C 22.661 13.281,22.697 12.871,22.697 12.000 C 22.697 11.129,22.661 10.719,22.516 9.960 C 21.978 7.143,20.314 4.671,17.862 3.046 C 16.514 2.152,15.024 1.594,13.420 1.380 C 12.845 1.303,11.611 1.272,11.070 1.321 M13.240 2.865 C 15.275 3.126,17.196 4.114,18.670 5.655 C 20.452 7.521,21.368 10.027,21.198 12.573 C 21.113 13.839,20.855 14.832,20.323 15.940 C 19.859 16.905,19.383 17.599,18.670 18.345 C 16.761 20.341,14.156 21.371,11.445 21.200 C 9.583 21.083,7.902 20.455,6.381 19.308 C 5.967 18.996,5.004 18.032,4.692 17.618 C 3.318 15.796,2.661 13.652,2.800 11.445 C 2.882 10.145,3.185 9.021,3.768 7.860 C 4.233 6.934,4.704 6.290,5.497 5.497 C 6.290 4.704,6.934 4.233,7.860 3.768 C 9.551 2.919,11.334 2.620,13.240 2.865 M9.906 5.141 C 9.124 5.289,8.023 5.891,7.176 6.633 C 6.187 7.499,5.321 8.931,5.006 10.220 C 4.839 10.904,4.820 11.087,4.820 12.000 C 4.820 12.913,4.839 13.096,5.006 13.780 C 5.253 14.788,5.794 15.819,6.551 16.720 C 7.470 17.813,9.021 18.754,10.105 18.873 C 11.336 19.009,12.279 18.385,12.610 17.216 L 12.699 16.900 12.712 12.240 C 12.726 7.300,12.718 7.060,12.541 6.571 C 12.144 5.476,11.108 4.914,9.906 5.141 M10.601 6.604 C 10.871 6.662,11.054 6.825,11.147 7.092 C 11.216 7.288,11.220 7.563,11.220 12.000 C 11.220 16.400,11.215 16.713,11.149 16.904 C 11.026 17.257,10.809 17.400,10.398 17.400 C 9.711 17.400,8.401 16.597,7.666 15.724 C 7.000 14.933,6.596 14.105,6.375 13.080 C 6.272 12.599,6.272 11.401,6.375 10.920 C 6.707 9.382,7.572 8.077,8.802 7.258 C 9.179 7.008,9.833 6.689,10.106 6.623 C 10.404 6.551,10.363 6.553,10.601 6.604 " stroke="none" fill-rule="evenodd" fill="black"></path></svg>