<svg width="24" height="24" viewBox="0 0 24 24" fill="none" xmlns="http://www.w3.org/2000/svg"><path d="M17.934 1.278 C 17.732 1.326,17.544 1.464,17.448 1.633 C 17.361 1.788,17.360 1.816,17.360 3.333 L 17.360 4.876 15.790 4.888 C 14.072 4.901,14.109 4.896,13.873 5.146 C 13.739 5.287,13.680 5.439,13.680 5.640 C 13.680 5.841,13.739 5.993,13.873 6.134 C 14.109 6.384,14.072 6.379,15.790 6.392 L 17.360 6.404 17.360 7.923 C 17.360 9.124,17.372 9.470,17.415 9.571 C 17.482 9.727,17.659 9.900,17.813 9.957 C 18.078 10.058,18.469 9.971,18.648 9.773 C 18.831 9.571,18.840 9.485,18.840 7.903 L 18.840 6.404 20.370 6.392 C 22.043 6.379,22.011 6.383,22.247 6.134 C 22.381 5.993,22.440 5.841,22.440 5.640 C 22.440 5.439,22.381 5.287,22.247 5.146 C 22.011 4.897,22.043 4.901,20.370 4.888 L 18.840 4.876 18.840 3.377 C 18.840 1.767,18.833 1.706,18.628 1.487 C 18.459 1.306,18.176 1.221,17.934 1.278 M2.220 4.899 C 2.198 4.907,2.131 4.924,2.071 4.937 C 1.924 4.969,1.681 5.188,1.614 5.348 C 1.545 5.513,1.545 5.767,1.614 5.932 C 1.679 6.087,1.919 6.307,2.071 6.349 C 2.213 6.389,9.667 6.389,9.809 6.349 C 9.961 6.307,10.201 6.087,10.266 5.932 C 10.377 5.667,10.321 5.351,10.127 5.146 C 9.878 4.883,10.163 4.901,6.020 4.893 C 3.952 4.889,2.242 4.892,2.220 4.899 M1.963 14.070 C 1.748 14.180,1.592 14.404,1.570 14.634 C 1.532 15.025,1.519 15.009,3.267 16.763 L 4.885 18.387 3.284 19.963 C 2.182 21.049,1.665 21.586,1.622 21.689 C 1.464 22.068,1.613 22.478,1.979 22.669 C 2.139 22.753,2.469 22.748,2.641 22.660 C 2.717 22.621,3.491 21.881,4.360 21.016 L 5.940 19.443 7.520 21.017 C 8.389 21.883,9.163 22.622,9.239 22.661 C 9.412 22.748,9.742 22.752,9.901 22.669 C 10.056 22.588,10.224 22.409,10.277 22.267 C 10.336 22.111,10.331 21.862,10.264 21.709 C 10.233 21.636,9.510 20.883,8.604 19.981 L 7.000 18.381 8.598 16.781 C 9.682 15.695,10.216 15.132,10.258 15.031 C 10.417 14.649,10.232 14.181,9.867 14.043 C 9.710 13.983,9.422 13.989,9.269 14.056 C 9.197 14.087,8.444 14.810,7.560 15.696 C 6.691 16.567,5.962 17.280,5.940 17.280 C 5.918 17.280,5.189 16.567,4.320 15.696 C 3.436 14.810,2.683 14.087,2.611 14.056 C 2.435 13.979,2.128 13.986,1.963 14.070 M14.120 14.645 C 13.879 14.741,13.680 15.049,13.680 15.326 C 13.680 15.561,13.811 15.809,14.008 15.946 L 14.173 16.060 18.060 16.060 L 21.947 16.060 22.112 15.946 C 22.575 15.624,22.534 14.924,22.037 14.670 C 21.909 14.605,21.640 14.600,18.060 14.603 C 15.608 14.604,14.184 14.619,14.120 14.645 M14.140 20.696 C 13.971 20.771,13.806 20.936,13.738 21.099 C 13.583 21.470,13.773 21.941,14.133 22.077 C 14.210 22.106,15.459 22.120,18.073 22.120 C 22.363 22.120,22.045 22.142,22.297 21.826 C 22.407 21.689,22.420 21.644,22.420 21.403 C 22.420 21.068,22.297 20.854,22.030 20.725 C 21.855 20.640,21.847 20.640,18.057 20.642 C 14.988 20.643,14.237 20.653,14.140 20.696 " stroke="none" fill-rule="evenodd" fill="black"></path></svg>