<svg width="24" height="24" viewBox="0 0 24 24" fill="none" xmlns="http://www.w3.org/2000/svg"><path d="M8.080 1.282 C 4.008 1.495,1.895 3.296,1.383 6.991 C 1.270 7.803,1.242 8.816,1.242 12.000 C 1.242 16.504,1.302 17.273,1.760 18.650 C 2.532 20.963,4.206 22.226,7.027 22.622 C 7.786 22.728,8.902 22.759,12.000 22.759 C 15.098 22.759,16.214 22.728,16.973 22.622 C 19.443 22.275,20.996 21.288,21.897 19.490 C 22.379 18.530,22.638 17.369,22.720 15.807 C 22.771 14.838,22.771 9.162,22.720 8.193 C 22.657 6.998,22.521 6.191,22.242 5.356 C 21.632 3.531,20.469 2.367,18.650 1.760 C 17.788 1.473,17.023 1.344,15.806 1.280 C 14.952 1.235,8.952 1.237,8.080 1.282 M16.800 2.854 C 19.586 3.316,20.714 4.454,21.148 7.240 C 21.214 7.661,21.220 8.064,21.220 12.000 C 21.220 15.936,21.214 16.339,21.148 16.760 C 20.712 19.558,19.558 20.712,16.760 21.148 C 16.339 21.214,15.936 21.220,12.000 21.220 C 8.064 21.220,7.661 21.214,7.240 21.148 C 4.450 20.713,3.283 19.551,2.854 16.780 C 2.785 16.335,2.780 15.989,2.780 12.000 C 2.780 7.247,2.776 7.337,3.044 6.288 C 3.557 4.282,4.722 3.274,6.960 2.900 C 7.690 2.777,8.048 2.769,12.200 2.777 C 15.963 2.784,16.422 2.791,16.800 2.854 M13.815 5.278 C 13.331 5.393,13.098 6.004,13.383 6.408 C 13.608 6.725,13.662 6.737,14.990 6.760 L 16.160 6.780 11.460 11.480 L 6.760 16.180 6.760 15.112 C 6.760 13.861,6.736 13.696,6.522 13.482 C 6.173 13.133,5.619 13.203,5.353 13.631 L 5.260 13.780 5.248 15.920 C 5.239 17.380,5.249 18.107,5.279 18.208 C 5.337 18.408,5.503 18.596,5.698 18.685 C 5.848 18.753,6.008 18.758,7.908 18.759 C 9.256 18.760,10.027 18.745,10.162 18.716 C 10.723 18.596,10.929 17.889,10.522 17.482 C 10.301 17.261,10.163 17.240,8.912 17.240 L 7.820 17.240 12.520 12.540 L 17.220 7.840 17.240 9.030 C 17.259 10.188,17.263 10.224,17.353 10.369 C 17.710 10.943,18.576 10.812,18.716 10.162 C 18.745 10.027,18.760 9.255,18.760 7.917 C 18.760 6.167,18.751 5.856,18.698 5.729 C 18.616 5.532,18.494 5.405,18.300 5.316 C 18.151 5.247,18.001 5.242,16.040 5.245 C 14.885 5.247,13.884 5.262,13.815 5.278 " stroke="none" fill-rule="evenodd" fill="black"></path></svg>