<svg width="24" height="24" viewBox="0 0 24 24" fill="none" xmlns="http://www.w3.org/2000/svg"><path d="M11.320 1.281 C 9.259 1.398,7.250 2.142,5.530 3.424 C 4.912 3.884,3.884 4.912,3.424 5.530 C 2.118 7.282,1.402 9.240,1.281 11.393 C 1.213 12.578,1.377 14.127,1.604 14.445 C 1.851 14.793,2.409 14.831,2.720 14.520 C 2.945 14.295,2.974 14.120,2.877 13.560 C 2.773 12.959,2.731 11.622,2.797 11.040 C 3.001 9.243,3.700 7.558,4.813 6.180 C 5.148 5.765,5.972 4.962,6.381 4.653 C 7.446 3.847,8.767 3.232,10.002 2.966 C 11.189 2.710,12.633 2.691,13.790 2.917 C 14.325 3.021,14.760 2.700,14.760 2.200 C 14.760 1.999,14.701 1.847,14.567 1.706 C 14.402 1.531,14.284 1.487,13.752 1.401 C 13.333 1.333,12.068 1.228,11.880 1.247 C 11.847 1.250,11.595 1.265,11.320 1.281 M16.815 2.278 C 16.331 2.393,16.098 3.004,16.383 3.408 C 16.609 3.727,16.660 3.738,17.997 3.753 L 19.174 3.766 16.771 6.173 C 15.450 7.497,14.346 8.625,14.318 8.680 C 14.290 8.735,14.267 8.881,14.267 9.004 C 14.267 9.498,14.681 9.816,15.189 9.711 C 15.373 9.673,15.465 9.587,17.807 7.249 L 20.235 4.827 20.247 6.023 C 20.260 7.195,20.262 7.223,20.353 7.369 C 20.710 7.943,21.576 7.812,21.716 7.162 C 21.745 7.027,21.760 6.255,21.760 4.917 C 21.760 3.167,21.751 2.856,21.698 2.729 C 21.616 2.532,21.494 2.405,21.300 2.316 C 21.151 2.247,21.001 2.242,19.040 2.245 C 17.885 2.247,16.884 2.262,16.815 2.278 M21.585 9.289 C 21.373 9.345,21.144 9.582,21.088 9.804 C 21.052 9.948,21.058 10.066,21.123 10.440 C 21.227 11.041,21.269 12.378,21.203 12.960 C 21.009 14.672,20.377 16.258,19.347 17.619 C 19.038 18.028,18.235 18.852,17.820 19.187 C 16.741 20.059,15.302 20.755,13.998 21.035 C 12.808 21.290,11.367 21.309,10.210 21.083 C 9.675 20.979,9.240 21.300,9.240 21.800 C 9.240 22.079,9.395 22.331,9.648 22.463 C 9.812 22.549,10.667 22.675,11.370 22.717 C 13.931 22.870,16.390 22.128,18.470 20.575 C 19.087 20.115,20.115 19.087,20.575 18.470 C 22.118 16.404,22.871 13.923,22.719 11.410 C 22.659 10.420,22.544 9.763,22.396 9.555 C 22.239 9.334,21.872 9.214,21.585 9.289 M8.900 14.259 C 8.878 14.267,8.806 14.285,8.740 14.299 C 8.650 14.319,8.006 14.938,6.190 16.752 L 3.760 19.178 3.760 18.111 C 3.760 16.861,3.736 16.696,3.522 16.482 C 3.173 16.133,2.619 16.203,2.353 16.631 L 2.260 16.780 2.248 18.920 C 2.239 20.380,2.249 21.107,2.279 21.208 C 2.337 21.408,2.503 21.596,2.698 21.685 C 2.848 21.753,3.008 21.758,4.908 21.759 C 6.256 21.760,7.027 21.745,7.162 21.716 C 7.723 21.596,7.929 20.889,7.522 20.482 C 7.301 20.261,7.163 20.240,5.913 20.240 L 4.822 20.240 7.247 17.810 C 9.587 15.465,9.673 15.373,9.711 15.189 C 9.782 14.847,9.658 14.530,9.389 14.367 C 9.265 14.292,8.983 14.229,8.900 14.259 " stroke="none" fill-rule="evenodd" fill="black"></path></svg>