<svg width="24" height="24" viewBox="0 0 24 24" fill="none" xmlns="http://www.w3.org/2000/svg"><path d="M14.815 2.278 C 14.331 2.393,14.098 3.004,14.383 3.408 C 14.447 3.499,14.572 3.610,14.660 3.656 C 14.816 3.738,14.879 3.740,16.998 3.752 L 19.177 3.763 16.030 6.912 C 13.821 9.122,12.864 10.104,12.821 10.209 C 12.708 10.484,12.783 10.869,12.986 11.048 C 13.193 11.232,13.529 11.287,13.791 11.179 C 13.896 11.136,14.878 10.179,17.088 7.970 L 20.237 4.823 20.248 7.022 L 20.260 9.220 20.353 9.369 C 20.710 9.943,21.576 9.812,21.716 9.162 C 21.746 9.022,21.760 7.985,21.760 5.917 C 21.760 3.264,21.752 2.859,21.698 2.729 C 21.616 2.532,21.494 2.405,21.300 2.316 C 21.149 2.246,20.973 2.242,18.040 2.245 C 16.335 2.247,14.884 2.262,14.815 2.278 M10.200 12.823 C 10.110 12.862,8.945 13.998,6.910 16.031 L 3.760 19.180 3.760 17.112 C 3.760 15.753,3.745 14.973,3.716 14.838 C 3.575 14.182,2.713 14.051,2.353 14.631 L 2.260 14.780 2.248 17.920 C 2.239 20.088,2.249 21.106,2.279 21.208 C 2.337 21.408,2.502 21.596,2.698 21.685 C 2.851 21.754,3.037 21.758,5.908 21.759 C 7.986 21.760,9.022 21.746,9.162 21.716 C 9.904 21.557,9.924 20.471,9.189 20.286 C 9.061 20.254,8.366 20.240,6.912 20.240 L 4.820 20.240 7.969 17.090 C 10.179 14.879,11.136 13.896,11.179 13.791 C 11.292 13.516,11.217 13.131,11.014 12.952 C 10.808 12.768,10.457 12.713,10.200 12.823 " stroke="none" fill-rule="evenodd" fill="black"></path></svg>