<svg width="24" height="24" viewBox="0 0 24 24" fill="none" xmlns="http://www.w3.org/2000/svg"><path d="M6.020 1.284 C 4.095 1.444,2.352 2.737,1.638 4.537 C 1.307 5.369,1.227 6.078,1.247 7.980 C 1.260 9.196,1.262 9.223,1.353 9.369 C 1.664 9.870,2.408 9.849,2.664 9.332 C 2.734 9.193,2.742 9.041,2.762 7.500 L 2.785 5.820 2.893 5.468 C 3.285 4.189,4.189 3.285,5.468 2.893 L 5.820 2.785 7.500 2.762 C 9.041 2.742,9.193 2.734,9.332 2.664 C 9.928 2.368,9.832 1.448,9.189 1.286 C 8.975 1.233,6.662 1.231,6.020 1.284 M14.815 1.278 C 14.331 1.393,14.098 2.004,14.383 2.408 C 14.447 2.499,14.572 2.610,14.660 2.656 C 14.813 2.736,14.897 2.741,16.500 2.762 L 18.180 2.785 18.532 2.893 C 19.801 3.282,20.718 4.199,21.107 5.468 L 21.215 5.820 21.238 7.520 C 21.260 9.210,21.261 9.221,21.353 9.369 C 21.710 9.943,22.576 9.812,22.716 9.162 C 22.772 8.899,22.774 6.789,22.719 6.107 C 22.596 4.597,21.900 3.285,20.740 2.381 C 19.899 1.725,18.978 1.369,17.893 1.281 C 17.322 1.235,15.006 1.232,14.815 1.278 M9.815 5.278 C 9.331 5.393,9.098 6.004,9.383 6.408 C 9.590 6.700,9.715 6.738,10.530 6.754 L 11.240 6.768 11.240 9.004 L 11.240 11.240 9.000 11.240 L 6.760 11.240 6.760 10.642 C 6.760 9.881,6.718 9.678,6.522 9.482 C 6.173 9.133,5.619 9.203,5.353 9.631 L 5.260 9.780 5.260 12.000 L 5.260 14.220 5.353 14.369 C 5.710 14.943,6.576 14.812,6.716 14.162 C 6.740 14.049,6.760 13.687,6.760 13.358 L 6.760 12.760 9.000 12.760 L 11.240 12.760 11.240 14.996 L 11.240 17.232 10.507 17.246 C 9.790 17.260,9.771 17.262,9.612 17.367 C 9.372 17.526,9.267 17.721,9.267 18.007 C 9.267 18.203,9.286 18.270,9.383 18.408 C 9.447 18.499,9.572 18.610,9.660 18.656 C 9.815 18.738,9.880 18.740,11.875 18.752 C 14.208 18.765,14.281 18.759,14.519 18.521 C 14.918 18.122,14.731 17.423,14.189 17.286 C 14.087 17.261,13.725 17.240,13.382 17.240 L 12.760 17.240 12.760 15.000 L 12.760 12.760 14.996 12.760 L 17.232 12.760 17.246 13.490 C 17.259 14.171,17.266 14.230,17.353 14.369 C 17.710 14.943,18.576 14.812,18.716 14.162 C 18.776 13.879,18.776 10.121,18.716 9.838 C 18.575 9.182,17.713 9.051,17.353 9.631 C 17.266 9.770,17.259 9.829,17.246 10.510 L 17.232 11.240 14.996 11.240 L 12.760 11.240 12.760 9.000 L 12.760 6.760 13.358 6.760 C 14.121 6.760,14.321 6.719,14.520 6.520 C 14.918 6.122,14.730 5.423,14.189 5.286 C 13.980 5.234,10.031 5.226,9.815 5.278 M1.815 14.278 C 1.639 14.320,1.462 14.455,1.353 14.631 C 1.262 14.777,1.260 14.804,1.247 16.020 C 1.227 17.922,1.307 18.631,1.638 19.463 C 1.890 20.099,2.379 20.823,2.865 21.281 C 3.778 22.142,4.849 22.617,6.107 22.719 C 6.789 22.774,8.899 22.772,9.162 22.716 C 9.828 22.573,9.943 21.639,9.332 21.336 C 9.193 21.266,9.041 21.258,7.500 21.238 L 5.820 21.216 5.468 21.107 C 4.195 20.716,3.283 19.804,2.893 18.532 L 2.785 18.180 2.762 16.500 C 2.742 14.959,2.734 14.807,2.664 14.668 C 2.573 14.484,2.395 14.343,2.180 14.284 C 2.003 14.236,1.993 14.236,1.815 14.278 M21.815 15.277 C 21.638 15.321,21.461 15.456,21.353 15.631 C 21.263 15.776,21.259 15.815,21.236 16.980 C 21.214 18.137,21.209 18.193,21.104 18.540 C 20.726 19.790,19.789 20.724,18.532 21.106 C 18.194 21.209,18.131 21.214,16.977 21.236 L 15.774 21.260 15.612 21.367 C 15.372 21.526,15.267 21.721,15.267 22.007 C 15.267 22.203,15.286 22.270,15.383 22.408 C 15.590 22.700,15.715 22.738,16.535 22.754 C 18.189 22.786,19.156 22.596,20.100 22.052 C 21.628 21.173,22.575 19.669,22.719 17.893 C 22.772 17.247,22.770 16.073,22.717 15.841 C 22.623 15.432,22.215 15.177,21.815 15.277 " stroke="none" fill-rule="evenodd" fill="black"></path></svg>