<svg width="24" height="24" viewBox="0 0 24 24" fill="none" xmlns="http://www.w3.org/2000/svg"><path d="M8.080 1.282 C 4.041 1.493,1.932 3.264,1.398 6.893 C 1.234 8.005,1.193 10.046,1.329 10.300 C 1.471 10.567,1.716 10.720,2.000 10.720 C 2.201 10.720,2.353 10.661,2.494 10.527 C 2.733 10.301,2.735 10.289,2.764 8.920 C 2.793 7.551,2.844 7.071,3.044 6.288 C 3.575 4.210,4.761 3.234,7.220 2.854 C 7.665 2.785,8.011 2.780,12.000 2.780 C 15.936 2.780,16.339 2.786,16.760 2.852 C 19.558 3.288,20.712 4.442,21.148 7.240 C 21.214 7.661,21.220 8.064,21.220 12.000 C 21.220 16.745,21.226 16.622,20.960 17.688 C 20.504 19.520,19.519 20.504,17.688 20.960 C 16.870 21.163,16.446 21.208,15.057 21.235 L 13.774 21.260 13.612 21.367 C 13.372 21.526,13.267 21.721,13.267 22.007 C 13.267 22.203,13.286 22.270,13.383 22.408 C 13.572 22.675,13.736 22.735,14.319 22.753 C 14.943 22.773,16.445 22.698,16.986 22.621 C 19.452 22.270,20.998 21.284,21.897 19.490 C 22.379 18.530,22.638 17.369,22.720 15.807 C 22.771 14.838,22.771 9.162,22.720 8.193 C 22.657 6.998,22.521 6.191,22.242 5.356 C 21.632 3.531,20.469 2.367,18.650 1.760 C 17.788 1.473,17.023 1.344,15.806 1.280 C 14.952 1.235,8.952 1.237,8.080 1.282 M13.720 5.285 C 13.458 5.389,13.269 5.680,13.269 5.980 C 13.269 6.287,13.460 6.575,13.733 6.677 C 13.803 6.704,14.291 6.720,15.032 6.720 L 16.219 6.720 14.294 8.650 C 13.235 9.712,12.346 10.625,12.318 10.680 C 12.290 10.735,12.267 10.881,12.267 11.004 C 12.267 11.498,12.681 11.816,13.189 11.711 C 13.372 11.673,13.457 11.595,15.330 9.727 L 17.280 7.782 17.280 8.968 C 17.280 9.709,17.296 10.197,17.323 10.267 C 17.425 10.539,17.705 10.720,18.020 10.720 C 18.330 10.720,18.580 10.554,18.698 10.270 C 18.791 10.049,18.791 5.911,18.698 5.690 C 18.619 5.500,18.535 5.409,18.352 5.316 C 18.211 5.244,18.086 5.240,16.012 5.243 C 14.659 5.244,13.782 5.260,13.720 5.285 M4.800 12.264 C 3.577 12.342,2.810 12.626,2.218 13.218 C 1.723 13.712,1.454 14.311,1.315 15.220 C 1.237 15.732,1.237 19.268,1.315 19.780 C 1.454 20.689,1.723 21.288,2.218 21.782 C 2.712 22.277,3.311 22.546,4.220 22.685 C 4.732 22.763,8.268 22.763,8.780 22.685 C 9.689 22.546,10.288 22.277,10.782 21.782 C 11.277 21.288,11.546 20.689,11.685 19.780 C 11.763 19.268,11.763 15.732,11.685 15.220 C 11.461 13.748,10.763 12.857,9.542 12.483 C 8.928 12.295,8.644 12.272,6.780 12.261 C 5.812 12.255,4.921 12.256,4.800 12.264 M8.726 13.816 C 9.224 13.912,9.474 14.028,9.723 14.277 C 9.975 14.529,10.093 14.786,10.183 15.280 C 10.261 15.709,10.261 19.291,10.183 19.720 C 10.093 20.214,9.975 20.471,9.723 20.723 C 9.471 20.975,9.214 21.093,8.720 21.183 C 8.291 21.261,4.709 21.261,4.280 21.183 C 3.786 21.093,3.529 20.975,3.277 20.723 C 3.028 20.474,2.912 20.224,2.816 19.726 C 2.735 19.302,2.735 15.698,2.816 15.274 C 2.912 14.776,3.028 14.526,3.277 14.277 C 3.520 14.033,3.771 13.915,4.240 13.820 C 4.630 13.741,8.321 13.738,8.726 13.816 " stroke="none" fill-rule="evenodd" fill="black"></path></svg>