<svg width="24" height="24" viewBox="0 0 24 24" fill="none" xmlns="http://www.w3.org/2000/svg"><path d="M11.393 1.281 C 8.307 1.511,5.607 3.631,4.643 6.582 C 4.024 8.480,4.166 10.651,5.024 12.373 C 5.121 12.567,5.200 12.747,5.200 12.773 C 5.200 12.799,4.389 13.630,3.398 14.620 C 2.216 15.801,1.557 16.489,1.482 16.620 C 1.071 17.337,1.198 18.213,1.791 18.768 C 2.094 19.052,2.325 19.145,3.253 19.364 C 4.337 19.619,4.343 19.621,4.394 19.752 C 4.417 19.811,4.519 20.211,4.619 20.640 C 4.828 21.531,4.932 21.776,5.221 22.066 C 5.697 22.542,6.396 22.710,7.021 22.497 C 7.469 22.346,7.537 22.277,9.800 19.673 C 10.992 18.302,11.982 17.180,12.000 17.180 C 12.019 17.180,12.972 18.260,14.119 19.580 C 15.266 20.900,16.280 22.049,16.372 22.134 C 17.026 22.732,18.127 22.710,18.751 22.085 C 19.095 21.741,19.175 21.531,19.520 20.053 C 19.567 19.851,19.628 19.667,19.655 19.644 C 19.683 19.621,20.127 19.502,20.643 19.381 C 21.158 19.259,21.672 19.114,21.785 19.059 C 22.658 18.634,23.006 17.567,22.562 16.680 C 22.500 16.555,21.910 15.937,20.636 14.659 C 19.626 13.647,18.800 12.798,18.800 12.772 C 18.800 12.746,18.879 12.567,18.976 12.373 C 19.409 11.504,19.646 10.595,19.717 9.537 C 19.906 6.735,18.608 4.097,16.277 2.542 C 14.871 1.604,13.121 1.152,11.393 1.281 M12.900 2.817 C 15.704 3.247,17.830 5.417,18.202 8.231 C 18.271 8.749,18.229 9.827,18.121 10.300 C 17.847 11.507,17.301 12.511,16.451 13.373 C 15.253 14.587,13.728 15.220,12.000 15.220 C 11.034 15.220,10.206 15.045,9.396 14.668 C 7.580 13.824,6.326 12.266,5.879 10.300 C 5.771 9.827,5.729 8.749,5.798 8.231 C 5.947 7.105,6.365 6.085,7.042 5.200 C 7.319 4.838,7.884 4.275,8.240 4.008 C 9.060 3.392,10.029 2.984,11.060 2.820 C 11.494 2.751,12.460 2.749,12.900 2.817 M11.628 4.815 C 11.422 4.892,11.177 5.066,11.034 5.238 C 10.969 5.316,10.756 5.696,10.561 6.082 L 10.206 6.785 9.573 6.892 C 8.686 7.044,8.358 7.216,8.091 7.673 C 8.009 7.811,7.982 7.920,7.968 8.166 C 7.937 8.697,8.068 8.940,8.782 9.679 L 9.227 10.140 9.092 10.700 C 8.976 11.182,8.959 11.316,8.970 11.660 C 8.981 12.014,8.996 12.085,9.100 12.274 C 9.338 12.709,9.710 12.907,10.215 12.868 C 10.661 12.834,10.730 12.804,11.841 12.150 L 12.021 12.043 12.501 12.327 C 13.338 12.822,13.437 12.860,13.900 12.860 C 14.207 12.860,14.330 12.844,14.429 12.789 C 14.649 12.669,14.840 12.476,14.950 12.264 C 15.039 12.092,15.058 11.997,15.069 11.660 C 15.081 11.314,15.065 11.184,14.948 10.700 L 14.814 10.140 15.299 9.635 C 15.912 8.996,16.048 8.761,16.072 8.294 C 16.087 8.010,16.077 7.940,15.990 7.751 C 15.763 7.254,15.411 7.056,14.460 6.891 L 13.820 6.780 13.476 6.104 C 13.093 5.351,12.887 5.082,12.559 4.903 C 12.302 4.763,11.875 4.723,11.628 4.815 M12.320 7.121 C 12.741 7.960,13.014 8.172,13.840 8.300 C 14.071 8.336,14.284 8.373,14.314 8.383 C 14.348 8.394,14.220 8.556,13.967 8.821 C 13.309 9.510,13.215 9.832,13.416 10.715 C 13.473 10.966,13.520 11.176,13.520 11.183 C 13.520 11.190,13.335 11.086,13.110 10.951 C 12.559 10.622,12.385 10.560,12.020 10.560 C 11.655 10.560,11.481 10.622,10.930 10.951 C 10.705 11.086,10.520 11.183,10.521 11.168 C 10.521 11.153,10.566 10.951,10.620 10.720 C 10.739 10.213,10.744 9.966,10.644 9.642 C 10.553 9.351,10.454 9.212,10.006 8.751 C 9.782 8.520,9.687 8.396,9.724 8.384 C 9.755 8.373,9.969 8.336,10.200 8.300 C 11.015 8.174,11.308 7.941,11.738 7.084 C 11.882 6.796,12.009 6.560,12.020 6.560 C 12.031 6.560,12.166 6.812,12.320 7.121 M6.971 14.905 C 7.879 15.667,8.934 16.214,10.049 16.501 L 10.478 16.612 10.369 16.736 C 10.309 16.805,9.437 17.808,8.432 18.965 C 7.426 20.123,6.570 21.078,6.530 21.089 C 6.420 21.118,6.284 21.053,6.240 20.951 C 6.218 20.901,6.118 20.509,6.018 20.080 C 5.918 19.651,5.788 19.201,5.730 19.080 C 5.545 18.694,5.127 18.322,4.740 18.198 C 4.652 18.170,4.188 18.053,3.709 17.939 C 2.812 17.725,2.724 17.687,2.721 17.501 C 2.720 17.450,3.307 16.835,4.408 15.732 L 6.097 14.042 6.350 14.319 C 6.489 14.471,6.769 14.735,6.971 14.905 M21.280 17.487 C 21.280 17.522,21.248 17.591,21.208 17.640 C 21.150 17.712,20.962 17.770,20.218 17.945 C 19.182 18.189,18.900 18.304,18.602 18.602 C 18.310 18.894,18.188 19.187,17.963 20.139 C 17.755 21.019,17.726 21.080,17.519 21.080 C 17.430 21.080,17.177 20.808,15.873 19.310 C 15.026 18.337,14.151 17.331,13.929 17.076 L 13.524 16.611 13.952 16.501 C 14.477 16.366,15.192 16.091,15.623 15.858 C 16.379 15.449,17.171 14.848,17.651 14.316 L 17.900 14.041 19.590 15.731 C 20.519 16.661,21.280 17.451,21.280 17.487 " stroke="none" fill-rule="evenodd" fill="black"></path></svg>