<svg width="24" height="24" viewBox="0 0 24 24" fill="none" xmlns="http://www.w3.org/2000/svg"><path d="M11.377 1.282 C 8.287 1.521,5.611 3.660,4.783 6.552 C 4.428 7.792,4.428 9.208,4.783 10.448 C 5.088 11.513,5.630 12.460,6.450 13.360 L 6.759 13.700 6.760 17.420 C 6.761 20.460,6.772 21.188,6.818 21.405 C 7.033 22.421,7.945 22.957,8.940 22.651 C 9.050 22.618,9.763 22.295,10.524 21.935 C 11.286 21.575,11.953 21.280,12.006 21.280 C 12.059 21.280,12.714 21.569,13.460 21.923 C 15.063 22.681,15.181 22.725,15.616 22.725 C 16.392 22.725,16.980 22.262,17.180 21.493 C 17.231 21.297,17.240 20.709,17.240 17.481 L 17.240 13.699 17.531 13.380 C 18.512 12.303,19.097 11.173,19.368 9.830 C 19.492 9.219,19.501 7.876,19.385 7.260 C 19.090 5.688,18.246 4.196,17.071 3.171 C 15.776 2.040,14.275 1.412,12.552 1.281 C 11.975 1.237,11.970 1.237,11.377 1.282 M12.900 2.817 C 14.246 3.024,15.395 3.599,16.318 4.527 C 17.413 5.628,18.000 7.014,18.000 8.500 C 18.000 9.986,17.413 11.372,16.318 12.473 C 15.173 13.624,13.671 14.239,12.000 14.239 C 10.329 14.239,8.827 13.624,7.682 12.473 C 6.587 11.372,6.000 9.986,6.000 8.500 C 6.000 7.015,6.591 5.620,7.683 4.524 C 8.594 3.611,9.745 3.030,11.060 2.820 C 11.494 2.751,12.460 2.749,12.900 2.817 M15.719 21.162 C 15.696 21.205,15.642 21.240,15.599 21.240 C 15.556 21.240,14.886 20.941,14.110 20.575 C 12.536 19.833,12.509 19.822,12.197 19.784 C 11.747 19.728,11.570 19.788,10.023 20.523 C 9.103 20.960,8.530 21.211,8.441 21.214 C 8.318 21.219,8.299 21.207,8.276 21.100 C 8.240 20.935,8.235 18.571,8.266 16.515 L 8.293 14.810 8.716 15.009 C 10.799 15.988,13.305 15.980,15.320 14.987 L 15.740 14.780 15.750 17.932 C 15.757 20.059,15.747 21.110,15.719 21.162 " stroke="none" fill-rule="evenodd" fill="black"></path></svg>