<svg width="24" height="24" viewBox="0 0 24 24" fill="none" xmlns="http://www.w3.org/2000/svg"><path d="M6.020 2.666 C 4.909 2.845,4.023 3.509,3.541 4.525 C 3.198 5.246,3.174 6.234,3.480 7.050 C 3.742 7.752,4.508 8.526,5.229 8.819 C 5.949 9.111,6.971 9.111,7.691 8.819 C 8.412 8.526,9.178 7.752,9.440 7.050 C 9.657 6.472,9.713 5.720,9.585 5.121 C 9.464 4.557,9.100 3.932,8.650 3.516 C 8.036 2.947,7.411 2.689,6.580 2.661 C 6.338 2.653,6.086 2.655,6.020 2.666 M17.100 2.666 C 15.989 2.845,15.103 3.509,14.621 4.525 C 14.278 5.246,14.254 6.234,14.560 7.050 C 14.822 7.752,15.588 8.526,16.309 8.819 C 17.029 9.111,18.051 9.111,18.771 8.819 C 19.492 8.526,20.258 7.752,20.520 7.050 C 20.737 6.472,20.793 5.720,20.665 5.121 C 20.544 4.557,20.180 3.932,19.730 3.516 C 19.116 2.947,18.491 2.689,17.660 2.661 C 17.418 2.653,17.166 2.655,17.100 2.666 M6.976 4.224 C 7.401 4.344,7.801 4.703,8.012 5.152 C 8.241 5.642,8.204 6.286,7.921 6.732 C 7.323 7.676,6.067 7.839,5.280 7.075 C 4.899 6.706,4.742 6.302,4.768 5.759 C 4.781 5.483,4.807 5.368,4.908 5.152 C 5.286 4.345,6.105 3.978,6.976 4.224 M18.056 4.224 C 18.481 4.344,18.881 4.703,19.092 5.152 C 19.321 5.642,19.284 6.286,19.001 6.732 C 18.403 7.676,17.147 7.839,16.360 7.075 C 15.979 6.706,15.822 6.302,15.848 5.759 C 15.861 5.483,15.887 5.368,15.988 5.152 C 16.366 4.345,17.185 3.978,18.056 4.224 M5.742 15.026 C 4.958 15.194,4.226 15.710,3.760 16.423 C 3.417 16.949,3.272 17.459,3.272 18.140 C 3.271 18.677,3.352 19.077,3.541 19.475 C 3.973 20.386,4.701 20.994,5.680 21.264 C 6.041 21.364,6.879 21.364,7.240 21.264 C 8.219 20.994,8.947 20.386,9.379 19.475 C 9.722 18.754,9.746 17.766,9.440 16.950 C 9.178 16.248,8.412 15.474,7.691 15.181 C 7.159 14.965,6.333 14.899,5.742 15.026 M16.822 15.026 C 16.038 15.194,15.306 15.710,14.840 16.423 C 14.497 16.949,14.352 17.459,14.352 18.140 C 14.351 18.677,14.432 19.077,14.621 19.475 C 15.053 20.386,15.781 20.994,16.760 21.264 C 17.121 21.364,17.959 21.364,18.320 21.264 C 19.299 20.994,20.027 20.386,20.459 19.475 C 20.802 18.754,20.826 17.766,20.520 16.950 C 20.258 16.248,19.492 15.474,18.771 15.181 C 18.239 14.965,17.413 14.899,16.822 15.026 M6.895 16.500 C 7.459 16.647,7.939 17.115,8.103 17.676 C 8.149 17.833,8.164 18.002,8.152 18.241 C 8.081 19.747,6.227 20.410,5.200 19.295 C 4.729 18.784,4.624 18.000,4.942 17.360 C 5.052 17.138,5.372 16.808,5.614 16.666 C 5.982 16.450,6.464 16.388,6.895 16.500 M17.975 16.500 C 18.539 16.647,19.019 17.115,19.183 17.676 C 19.229 17.833,19.244 18.002,19.232 18.241 C 19.161 19.747,17.307 20.410,16.280 19.295 C 15.809 18.784,15.704 18.000,16.022 17.360 C 16.132 17.138,16.452 16.808,16.694 16.666 C 17.062 16.450,17.544 16.388,17.975 16.500 " stroke="none" fill-rule="evenodd" fill="black"></path></svg>