<svg width="24" height="24" viewBox="0 0 24 24" fill="none" xmlns="http://www.w3.org/2000/svg"><path d="M10.432 1.374 C 10.294 1.436,10.127 1.592,10.061 1.720 C 10.033 1.775,9.944 2.099,9.863 2.440 C 9.781 2.781,9.706 3.091,9.695 3.130 C 9.676 3.194,9.587 3.200,8.567 3.200 C 7.958 3.201,7.302 3.219,7.110 3.241 C 6.040 3.363,5.098 4.078,4.699 5.069 C 4.598 5.319,0.443 18.637,0.345 19.025 C 0.139 19.839,0.289 20.689,0.763 21.398 C 1.290 22.186,2.025 22.623,2.987 22.721 C 3.291 22.752,6.063 22.761,12.320 22.752 L 21.220 22.740 21.534 22.650 C 22.394 22.406,23.120 21.785,23.480 20.985 C 23.654 20.598,23.720 20.264,23.719 19.777 C 23.718 19.050,22.734 5.776,22.661 5.500 C 22.411 4.555,21.739 3.783,20.860 3.431 C 20.420 3.254,20.259 3.235,19.030 3.212 C 18.375 3.200,17.840 3.183,17.840 3.174 C 17.840 3.164,17.888 2.946,17.946 2.689 C 18.082 2.094,18.084 1.909,17.958 1.685 C 17.758 1.328,17.296 1.209,16.933 1.422 C 16.696 1.561,16.633 1.705,16.457 2.511 L 16.307 3.200 13.758 3.200 L 11.208 3.200 11.284 2.910 C 11.449 2.275,11.484 2.043,11.439 1.877 C 11.387 1.684,11.186 1.447,11.012 1.374 C 10.856 1.309,10.580 1.309,10.432 1.374 M9.301 4.770 C 9.269 4.868,8.995 6.023,8.958 6.216 C 8.909 6.468,8.965 6.677,9.131 6.866 C 9.420 7.196,9.913 7.208,10.205 6.893 C 10.362 6.724,10.372 6.696,10.619 5.670 L 10.848 4.720 13.404 4.720 C 15.111 4.720,15.960 4.734,15.960 4.761 C 15.960 4.783,15.888 5.134,15.800 5.540 C 15.619 6.378,15.610 6.504,15.716 6.712 C 15.912 7.093,16.341 7.234,16.719 7.040 C 16.994 6.900,17.058 6.769,17.222 6.020 C 17.303 5.646,17.400 5.205,17.436 5.040 L 17.503 4.740 18.822 4.740 L 20.140 4.740 20.367 4.846 C 20.685 4.995,20.936 5.241,21.090 5.554 C 21.210 5.798,21.220 5.848,21.218 6.199 C 21.216 6.564,21.145 6.861,19.508 13.415 C 18.533 17.320,17.762 20.327,17.711 20.430 C 17.565 20.722,17.341 20.945,17.049 21.089 L 16.782 21.220 9.801 21.220 L 2.820 21.220 2.595 21.110 C 2.035 20.834,1.661 20.137,1.759 19.552 C 1.789 19.374,5.946 5.969,6.078 5.623 C 6.208 5.285,6.637 4.895,7.004 4.780 C 7.248 4.704,9.326 4.695,9.301 4.770 M21.943 15.460 C 22.117 17.849,22.238 19.740,22.227 19.901 C 22.200 20.286,22.056 20.579,21.757 20.857 C 21.366 21.218,21.268 21.240,20.034 21.240 C 19.215 21.240,18.996 21.229,19.013 21.190 C 19.026 21.163,19.082 21.028,19.139 20.892 C 19.195 20.755,19.764 18.541,20.403 15.972 C 21.042 13.402,21.577 11.264,21.591 11.220 L 21.617 11.140 21.629 11.220 C 21.635 11.264,21.777 13.172,21.943 15.460 M7.620 11.259 C 7.598 11.267,7.531 11.284,7.471 11.297 C 7.324 11.329,7.081 11.548,7.014 11.708 C 6.891 12.002,6.971 12.336,7.215 12.550 C 7.295 12.621,7.411 12.693,7.471 12.709 C 7.613 12.749,15.787 12.749,15.929 12.709 C 16.081 12.667,16.321 12.447,16.386 12.292 C 16.497 12.027,16.441 11.711,16.247 11.506 C 15.998 11.242,16.322 11.261,11.780 11.253 C 9.514 11.249,7.642 11.252,7.620 11.259 M6.620 15.259 C 6.598 15.267,6.531 15.284,6.471 15.297 C 6.324 15.329,6.081 15.548,6.014 15.708 C 5.891 16.002,5.971 16.336,6.215 16.550 C 6.295 16.621,6.411 16.693,6.471 16.709 C 6.613 16.749,14.787 16.749,14.929 16.709 C 15.081 16.667,15.321 16.447,15.386 16.292 C 15.497 16.027,15.441 15.711,15.247 15.506 C 14.998 15.242,15.322 15.261,10.780 15.253 C 8.514 15.249,6.642 15.252,6.620 15.259 " stroke="none" fill-rule="evenodd" fill="black"></path></svg>