<svg width="24" height="24" viewBox="0 0 24 24" fill="none" xmlns="http://www.w3.org/2000/svg"><path d="M2.815 6.278 C 2.331 6.393,2.098 7.004,2.383 7.408 C 2.448 7.499,2.572 7.610,2.660 7.656 L 2.820 7.740 11.880 7.751 C 18.373 7.758,21.001 7.749,21.154 7.717 C 21.902 7.562,21.929 6.473,21.189 6.286 C 20.978 6.233,3.036 6.225,2.815 6.278 M2.815 11.278 C 2.331 11.393,2.098 12.004,2.383 12.408 C 2.448 12.499,2.572 12.610,2.660 12.656 L 2.820 12.740 11.880 12.751 C 18.373 12.758,21.001 12.749,21.154 12.717 C 21.902 12.562,21.929 11.473,21.189 11.286 C 20.978 11.233,3.036 11.225,2.815 11.278 M2.815 16.278 C 2.331 16.393,2.098 17.004,2.383 17.408 C 2.448 17.499,2.572 17.610,2.660 17.656 L 2.820 17.740 11.880 17.751 C 18.373 17.758,21.001 17.749,21.154 17.717 C 21.902 17.562,21.929 16.473,21.189 16.286 C 20.978 16.233,3.036 16.225,2.815 16.278 " stroke="none" fill-rule="evenodd" fill="black"></path></svg>