<svg width="24" height="24" viewBox="0 0 24 24" fill="none" xmlns="http://www.w3.org/2000/svg"><path d="M6.720 1.301 C 6.104 1.379,5.706 1.464,5.223 1.620 C 3.362 2.223,2.127 3.502,1.585 5.390 C 1.278 6.460,1.226 7.360,1.251 11.173 C 1.270 14.226,1.289 14.568,1.484 15.519 C 1.887 17.484,2.906 18.723,4.577 19.279 C 5.396 19.551,6.241 19.670,7.620 19.706 C 8.303 19.723,8.563 19.744,8.629 19.785 C 8.678 19.816,9.096 20.342,9.557 20.954 C 10.403 22.080,10.593 22.284,11.000 22.513 C 11.591 22.844,12.409 22.844,13.000 22.513 C 13.406 22.285,13.597 22.079,14.437 20.964 C 14.895 20.357,15.303 19.831,15.344 19.795 C 15.406 19.743,15.563 19.726,16.180 19.705 C 17.252 19.670,17.865 19.587,18.580 19.381 C 19.580 19.093,20.357 18.647,21.021 17.982 C 21.957 17.043,22.478 15.837,22.688 14.120 C 22.762 13.518,22.762 7.437,22.688 6.840 C 22.468 5.061,21.969 3.902,21.014 2.947 C 20.079 2.011,18.794 1.463,17.112 1.282 C 16.502 1.216,7.260 1.234,6.720 1.301 M17.487 2.831 C 19.477 3.211,20.592 4.214,21.035 6.020 C 21.221 6.782,21.220 6.754,21.220 10.480 C 21.220 13.984,21.219 14.025,21.130 14.487 C 20.723 16.603,19.613 17.714,17.520 18.097 C 17.153 18.165,16.115 18.240,15.549 18.240 C 15.003 18.240,14.580 18.414,14.234 18.780 C 14.160 18.858,13.731 19.412,13.280 20.011 C 12.412 21.163,12.295 21.279,12.000 21.279 C 11.704 21.279,11.589 21.164,10.712 20.000 C 9.831 18.830,9.675 18.649,9.417 18.496 C 9.091 18.305,8.820 18.240,8.344 18.240 C 7.588 18.239,6.414 18.161,5.932 18.079 C 4.857 17.895,4.112 17.513,3.662 16.914 C 3.179 16.272,2.912 15.431,2.800 14.200 C 2.737 13.513,2.767 6.915,2.835 6.600 C 2.861 6.479,2.920 6.218,2.968 6.020 C 3.396 4.227,4.576 3.169,6.514 2.841 C 6.770 2.798,7.061 2.756,7.160 2.747 C 7.259 2.739,9.518 2.735,12.180 2.737 C 17.012 2.742,17.021 2.742,17.487 2.831 M12.610 7.743 C 12.507 7.805,12.407 7.908,12.359 8.003 C 12.314 8.089,11.827 9.209,11.275 10.490 C 10.165 13.069,10.170 13.054,10.361 13.394 C 10.632 13.875,11.362 13.886,11.628 13.413 C 11.676 13.328,12.167 12.206,12.721 10.919 C 13.840 8.317,13.833 8.339,13.633 7.998 C 13.425 7.643,12.966 7.529,12.610 7.743 M7.680 8.024 C 7.507 8.098,5.438 10.162,5.339 10.359 C 5.249 10.538,5.248 10.862,5.338 11.041 C 5.443 11.248,7.510 13.303,7.690 13.378 C 8.068 13.536,8.479 13.386,8.669 13.021 C 8.753 12.861,8.748 12.531,8.660 12.359 C 8.621 12.283,8.250 11.878,7.837 11.460 L 7.084 10.700 7.837 9.940 C 8.251 9.522,8.621 9.117,8.660 9.041 C 8.748 8.869,8.753 8.539,8.669 8.379 C 8.588 8.224,8.409 8.056,8.267 8.003 C 8.109 7.943,7.845 7.952,7.680 8.024 M15.720 8.005 C 15.589 8.057,15.408 8.230,15.331 8.379 C 15.247 8.539,15.252 8.869,15.340 9.041 C 15.379 9.117,15.749 9.522,16.163 9.940 L 16.916 10.700 16.163 11.460 C 15.750 11.878,15.379 12.283,15.340 12.359 C 15.252 12.531,15.247 12.861,15.331 13.021 C 15.521 13.386,15.932 13.536,16.310 13.378 C 16.490 13.303,18.557 11.248,18.662 11.041 C 18.700 10.964,18.731 10.812,18.731 10.700 C 18.731 10.588,18.700 10.436,18.662 10.359 C 18.557 10.152,16.490 8.097,16.310 8.022 C 16.145 7.953,15.871 7.945,15.720 8.005 " stroke="none" fill-rule="evenodd" fill="black"></path></svg>