<svg width="24" height="24" viewBox="0 0 24 24" fill="none" xmlns="http://www.w3.org/2000/svg"><path d="M6.720 1.301 C 6.104 1.379,5.706 1.464,5.223 1.620 C 3.362 2.223,2.127 3.502,1.585 5.390 C 1.278 6.460,1.226 7.360,1.251 11.173 C 1.270 14.226,1.289 14.568,1.484 15.519 C 1.887 17.484,2.906 18.723,4.577 19.279 C 5.396 19.551,6.241 19.670,7.620 19.706 C 8.303 19.723,8.563 19.744,8.629 19.785 C 8.678 19.816,9.096 20.342,9.557 20.954 C 10.030 21.584,10.478 22.138,10.587 22.229 C 11.023 22.592,11.470 22.760,12.000 22.760 C 12.591 22.760,13.100 22.542,13.543 22.098 C 13.852 21.789,13.931 21.642,13.931 21.377 C 13.931 20.637,13.039 20.370,12.559 20.967 C 12.413 21.149,12.174 21.280,11.992 21.279 C 11.705 21.278,11.583 21.156,10.720 20.011 C 10.269 19.413,9.837 18.858,9.760 18.779 C 9.392 18.401,8.964 18.240,8.326 18.240 C 7.586 18.239,6.409 18.160,5.932 18.079 C 4.857 17.895,4.112 17.513,3.662 16.914 C 3.179 16.272,2.912 15.431,2.800 14.200 C 2.737 13.513,2.767 6.915,2.835 6.600 C 2.960 6.015,3.065 5.632,3.181 5.335 C 3.721 3.958,4.801 3.151,6.534 2.830 L 7.020 2.740 12.000 2.740 L 16.980 2.740 17.466 2.830 C 19.438 3.195,20.576 4.196,21.021 5.959 C 21.216 6.727,21.214 6.689,21.237 10.020 C 21.258 12.858,21.267 13.192,21.326 13.300 C 21.462 13.546,21.747 13.721,22.009 13.719 C 22.292 13.717,22.638 13.465,22.710 13.207 C 22.765 13.011,22.745 7.307,22.687 6.840 C 22.470 5.067,21.969 3.902,21.014 2.947 C 20.079 2.011,18.794 1.463,17.112 1.282 C 16.502 1.216,7.260 1.234,6.720 1.301 M7.689 10.059 C 7.454 10.132,7.263 10.287,7.131 10.511 C 7.036 10.672,7.020 10.744,7.020 11.000 C 7.020 11.257,7.036 11.327,7.133 11.492 C 7.625 12.329,8.898 12.046,8.991 11.078 C 9.033 10.640,8.729 10.185,8.310 10.061 C 8.065 9.988,7.917 9.987,7.689 10.059 M11.689 10.056 C 11.452 10.134,11.262 10.289,11.131 10.511 C 11.036 10.672,11.020 10.744,11.020 11.000 C 11.020 11.257,11.036 11.327,11.133 11.492 C 11.356 11.871,11.789 12.060,12.217 11.964 C 12.929 11.805,13.232 10.975,12.789 10.394 C 12.549 10.080,12.069 9.932,11.689 10.056 M15.689 10.056 C 15.452 10.134,15.262 10.289,15.131 10.511 C 15.036 10.672,15.020 10.744,15.020 11.000 C 15.020 11.255,15.036 11.328,15.129 11.486 C 15.353 11.867,15.792 12.059,16.217 11.964 C 16.929 11.805,17.232 10.975,16.789 10.394 C 16.549 10.080,16.069 9.932,15.689 10.056 M17.780 14.284 C 16.888 14.378,16.061 14.775,15.418 15.418 C 14.077 16.759,13.884 18.805,14.946 20.430 C 15.139 20.726,15.674 21.261,15.970 21.454 C 17.278 22.309,18.935 22.361,20.212 21.587 L 20.405 21.470 21.012 22.070 C 21.562 22.612,21.638 22.673,21.810 22.710 C 22.388 22.833,22.833 22.388,22.710 21.810 C 22.673 21.638,22.612 21.562,22.070 21.012 L 21.470 20.405 21.587 20.212 C 22.132 19.313,22.279 18.137,21.978 17.097 C 21.788 16.442,21.471 15.907,20.982 15.418 C 20.317 14.754,19.521 14.381,18.557 14.282 C 18.334 14.259,18.140 14.242,18.126 14.245 C 18.112 14.248,17.956 14.266,17.780 14.284 M18.796 15.821 C 19.205 15.918,19.581 16.137,19.922 16.478 C 20.418 16.975,20.639 17.504,20.639 18.200 C 20.639 18.896,20.418 19.425,19.922 19.922 C 19.425 20.418,18.896 20.639,18.200 20.639 C 17.504 20.639,16.975 20.418,16.478 19.922 C 15.982 19.425,15.761 18.896,15.761 18.200 C 15.761 17.504,15.982 16.975,16.478 16.478 C 16.812 16.144,17.195 15.918,17.586 15.823 C 17.898 15.748,18.480 15.747,18.796 15.821 " stroke="none" fill-rule="evenodd" fill="black"></path></svg>