<svg width="24" height="24" viewBox="0 0 24 24" fill="none" xmlns="http://www.w3.org/2000/svg"><path d="M6.300 1.725 C 5.339 1.814,4.364 2.154,3.591 2.667 C 3.431 2.773,3.125 3.029,2.911 3.235 C 1.933 4.178,1.386 5.433,1.279 6.980 C 1.230 7.690,1.231 13.207,1.281 13.893 C 1.326 14.524,1.396 14.898,1.568 15.440 C 2.055 16.972,3.148 18.148,4.634 18.738 C 5.036 18.898,5.640 19.058,6.010 19.102 L 6.240 19.129 6.241 19.835 C 6.241 20.223,6.259 20.663,6.281 20.813 C 6.445 21.945,7.665 22.617,8.700 22.145 C 8.810 22.094,9.877 21.402,11.071 20.607 L 13.242 19.160 15.411 19.159 C 17.084 19.159,17.672 19.145,17.980 19.101 C 19.267 18.916,20.318 18.405,21.165 17.553 C 22.088 16.626,22.611 15.394,22.719 13.892 C 22.771 13.174,22.771 7.705,22.719 6.986 C 22.653 6.066,22.462 5.320,22.117 4.633 C 21.267 2.942,19.667 1.906,17.620 1.720 C 17.083 1.671,6.825 1.675,6.300 1.725 M17.960 3.254 C 18.886 3.439,19.547 3.788,20.144 4.406 C 20.659 4.938,20.934 5.463,21.149 6.320 C 21.206 6.549,21.216 7.021,21.229 10.220 C 21.245 14.082,21.239 14.238,21.056 14.870 C 20.615 16.391,19.379 17.412,17.707 17.638 C 17.519 17.663,16.494 17.680,15.136 17.680 C 13.313 17.680,12.852 17.691,12.746 17.735 C 12.674 17.765,11.608 18.462,10.377 19.283 C 8.967 20.225,8.095 20.782,8.019 20.792 C 7.772 20.822,7.767 20.796,7.753 19.440 C 7.742 18.396,7.730 18.203,7.674 18.100 C 7.517 17.817,7.254 17.680,6.864 17.680 C 5.909 17.680,4.826 17.310,4.168 16.759 C 3.424 16.137,2.935 15.219,2.800 14.191 C 2.770 13.965,2.761 12.704,2.771 10.220 C 2.784 7.021,2.794 6.549,2.851 6.320 C 3.066 5.463,3.341 4.938,3.856 4.406 C 4.566 3.670,5.395 3.297,6.538 3.200 C 6.737 3.183,9.312 3.173,12.260 3.178 C 17.115 3.186,17.652 3.193,17.960 3.254 M11.374 6.197 C 11.023 6.292,10.850 6.378,10.531 6.618 C 10.282 6.805,9.979 7.168,9.834 7.452 C 9.644 7.825,9.543 8.525,9.643 8.787 C 9.745 9.060,10.033 9.251,10.340 9.251 C 10.580 9.251,10.744 9.175,10.912 8.983 C 11.032 8.846,11.050 8.791,11.100 8.395 C 11.113 8.294,11.175 8.129,11.239 8.029 C 11.588 7.478,12.411 7.476,12.760 8.027 C 12.986 8.383,12.955 8.713,12.671 8.985 C 12.577 9.075,12.401 9.222,12.280 9.310 C 11.588 9.818,11.274 10.400,11.265 11.195 C 11.261 11.533,11.271 11.598,11.353 11.729 C 11.710 12.303,12.576 12.172,12.716 11.522 C 12.740 11.409,12.760 11.243,12.760 11.153 C 12.760 10.920,12.886 10.728,13.192 10.500 C 13.638 10.167,14.047 9.732,14.188 9.440 C 14.512 8.769,14.453 7.884,14.041 7.247 C 13.732 6.769,13.258 6.393,12.763 6.235 C 12.380 6.112,11.750 6.095,11.374 6.197 M11.698 13.075 C 11.145 13.327,11.098 14.076,11.617 14.380 C 12.190 14.716,12.891 14.196,12.721 13.562 C 12.637 13.252,12.315 13.002,12.000 13.002 C 11.923 13.002,11.787 13.035,11.698 13.075 " stroke="none" fill-rule="evenodd" fill="black"></path></svg>