<svg width="24" height="24" viewBox="0 0 24 24" fill="none" xmlns="http://www.w3.org/2000/svg"><path d="M7.312 1.283 C 3.951 1.476,1.926 3.182,1.399 6.266 C 1.251 7.132,1.235 8.028,1.249 14.820 C 1.261 20.749,1.268 21.357,1.328 21.526 C 1.466 21.915,1.724 22.242,2.072 22.468 C 2.523 22.760,1.934 22.736,9.180 22.751 C 15.974 22.765,16.867 22.749,17.734 22.601 C 19.952 22.222,21.451 21.074,22.214 19.170 C 22.492 18.476,22.659 17.624,22.719 16.589 C 22.771 15.693,22.771 8.307,22.719 7.411 C 22.604 5.422,22.071 4.034,21.018 2.982 C 19.966 1.929,18.578 1.396,16.589 1.281 C 15.787 1.235,8.129 1.236,7.312 1.283 M17.460 2.854 C 18.636 3.086,19.346 3.424,19.969 4.046 C 20.571 4.648,20.925 5.405,21.147 6.560 C 21.215 6.915,21.220 7.269,21.220 12.000 C 21.220 17.520,21.230 17.252,20.993 18.115 C 20.585 19.605,19.605 20.585,18.115 20.993 C 17.243 21.232,17.765 21.217,10.004 21.230 C 3.371 21.241,2.904 21.237,2.833 21.174 C 2.760 21.108,2.758 20.911,2.770 14.003 C 2.781 7.371,2.787 6.876,2.853 6.540 C 3.087 5.366,3.424 4.653,4.039 4.039 C 4.756 3.322,5.630 2.964,7.100 2.785 C 7.166 2.777,9.443 2.773,12.160 2.777 C 16.717 2.782,17.128 2.788,17.460 2.854 M11.720 7.805 C 11.591 7.856,11.411 8.028,11.326 8.180 C 11.269 8.284,11.258 8.490,11.248 9.768 L 11.236 11.236 9.768 11.248 C 8.163 11.261,8.188 11.258,7.953 11.506 C 7.691 11.783,7.691 12.217,7.953 12.494 C 8.188 12.742,8.163 12.739,9.768 12.752 L 11.236 12.764 11.248 14.232 C 11.261 15.837,11.258 15.812,11.506 16.047 C 11.783 16.309,12.217 16.309,12.494 16.047 C 12.742 15.812,12.739 15.837,12.752 14.232 L 12.764 12.764 14.232 12.752 C 15.837 12.739,15.812 12.742,16.047 12.494 C 16.181 12.353,16.240 12.201,16.240 12.000 C 16.240 11.799,16.181 11.647,16.047 11.506 C 15.812 11.258,15.837 11.261,14.232 11.248 L 12.764 11.236 12.752 9.768 C 12.742 8.490,12.731 8.284,12.674 8.180 C 12.586 8.021,12.407 7.855,12.267 7.803 C 12.129 7.750,11.854 7.751,11.720 7.805 " stroke="none" fill-rule="evenodd" fill="black"></path></svg>