<svg width="24" height="24" viewBox="0 0 24 24" fill="none" xmlns="http://www.w3.org/2000/svg"><path d="M11.320 1.281 C 7.041 1.525,3.252 4.409,1.843 8.497 C 1.180 10.418,1.082 12.560,1.564 14.550 C 2.505 18.428,5.572 21.495,9.450 22.436 C 11.106 22.837,12.894 22.837,14.550 22.436 C 18.428 21.495,21.495 18.428,22.436 14.550 C 22.837 12.894,22.837 11.106,22.436 9.450 C 21.425 5.282,17.985 2.095,13.742 1.398 C 13.334 1.331,12.074 1.229,11.880 1.247 C 11.847 1.250,11.595 1.265,11.320 1.281 M13.146 2.822 C 14.201 2.960,15.125 3.237,16.060 3.696 C 18.877 5.079,20.768 7.722,21.178 10.854 C 21.301 11.786,21.244 13.026,21.034 13.998 C 20.745 15.343,20.003 16.855,19.121 17.900 C 18.247 18.935,17.240 19.726,16.060 20.304 C 14.761 20.940,13.462 21.240,12.000 21.240 C 10.538 21.240,9.236 20.940,7.940 20.304 C 5.123 18.921,3.232 16.278,2.822 13.146 C 2.699 12.214,2.756 10.974,2.966 10.002 C 3.177 9.020,3.703 7.775,4.268 6.920 C 5.750 4.677,8.131 3.188,10.820 2.823 C 11.380 2.746,12.569 2.746,13.146 2.822 M9.080 6.339 C 8.606 6.410,8.269 6.505,7.926 6.663 C 6.960 7.109,6.374 7.881,6.110 9.056 C 6.023 9.447,6.020 9.526,6.020 11.520 C 6.020 13.360,6.028 13.623,6.095 13.980 C 6.313 15.153,6.778 15.869,7.585 16.274 C 8.098 16.532,8.584 16.637,9.413 16.668 L 10.047 16.692 10.457 17.236 C 11.119 18.114,11.381 18.293,12.000 18.293 C 12.619 18.293,12.881 18.114,13.543 17.236 L 13.954 16.691 14.447 16.670 C 15.980 16.605,17.053 15.964,17.601 14.785 C 17.953 14.028,18.013 13.464,17.989 11.160 C 17.973 9.596,17.963 9.384,17.890 9.060 C 17.536 7.493,16.538 6.581,14.915 6.343 C 14.561 6.291,14.063 6.281,11.955 6.284 C 10.134 6.288,9.324 6.303,9.080 6.339 M15.006 7.869 C 15.818 8.096,16.238 8.533,16.425 9.344 C 16.509 9.707,16.551 12.445,16.483 13.140 C 16.390 14.099,16.113 14.609,15.517 14.918 C 15.178 15.094,14.845 15.163,14.162 15.200 C 13.524 15.233,13.349 15.270,13.140 15.415 C 12.988 15.521,12.964 15.548,12.453 16.210 C 12.219 16.512,12.015 16.760,11.999 16.760 C 11.984 16.760,11.804 16.540,11.599 16.270 C 10.847 15.278,10.797 15.250,9.700 15.198 C 8.358 15.133,7.948 14.938,7.691 14.240 C 7.517 13.767,7.500 13.525,7.502 11.500 C 7.504 9.669,7.508 9.566,7.588 9.277 C 7.766 8.642,8.040 8.269,8.487 8.054 C 9.064 7.777,9.199 7.767,12.160 7.776 C 14.623 7.783,14.709 7.786,15.006 7.869 " stroke="none" fill-rule="evenodd" fill="black"></path></svg>