<svg width="24" height="24" viewBox="0 0 24 24" fill="none" xmlns="http://www.w3.org/2000/svg"><path d="M9.060 1.267 C 6.728 1.381,4.490 2.466,3.048 4.180 C 1.345 6.204,0.821 8.868,1.641 11.331 C 2.088 12.674,2.939 13.894,4.098 14.853 L 4.416 15.116 5.038 16.489 C 5.380 17.244,5.708 17.943,5.767 18.042 C 5.898 18.264,6.213 18.564,6.433 18.676 C 7.099 19.016,7.890 18.912,8.444 18.412 L 8.598 18.272 8.869 18.509 C 10.215 19.687,11.833 20.380,13.665 20.562 L 14.149 20.610 14.855 21.457 C 15.614 22.367,15.816 22.544,16.232 22.665 C 16.523 22.750,16.966 22.751,17.247 22.667 C 17.548 22.577,17.944 22.306,18.126 22.064 C 18.209 21.954,18.568 21.220,18.942 20.395 C 19.567 19.019,19.621 18.917,19.767 18.820 C 19.994 18.670,20.770 17.909,21.047 17.565 C 21.918 16.482,22.460 15.269,22.665 13.940 C 22.747 13.408,22.745 12.347,22.661 11.802 C 22.218 8.903,20.173 6.554,17.232 5.563 L 16.803 5.418 16.603 5.088 C 15.745 3.677,14.314 2.497,12.660 1.840 C 12.263 1.682,11.460 1.460,11.004 1.381 C 10.679 1.325,9.554 1.233,9.380 1.248 C 9.336 1.252,9.192 1.260,9.060 1.267 M10.960 2.893 C 12.737 3.280,14.241 4.257,15.176 5.634 C 15.612 6.275,15.964 7.095,16.125 7.842 C 16.243 8.389,16.255 9.463,16.149 10.029 C 15.789 11.956,14.480 13.624,12.625 14.519 C 11.692 14.969,10.579 15.238,9.647 15.240 C 9.163 15.240,9.112 15.281,8.205 16.380 C 7.762 16.916,7.362 17.367,7.316 17.381 C 7.131 17.440,7.051 17.308,6.376 15.819 C 6.017 15.027,5.691 14.319,5.653 14.245 C 5.613 14.170,5.439 14.003,5.261 13.869 C 4.838 13.551,4.159 12.859,3.865 12.447 C 3.564 12.024,3.194 11.294,3.044 10.827 C 2.844 10.202,2.795 9.900,2.772 9.180 C 2.748 8.403,2.820 7.873,3.041 7.196 C 3.720 5.120,5.540 3.496,7.800 2.953 C 8.456 2.795,8.782 2.764,9.660 2.779 C 10.371 2.791,10.570 2.809,10.960 2.893 M17.842 7.441 C 19.138 8.095,20.281 9.336,20.828 10.683 C 21.100 11.353,21.202 11.855,21.228 12.660 C 21.253 13.450,21.176 14.028,20.958 14.680 C 20.790 15.184,20.408 15.928,20.109 16.333 C 19.818 16.727,19.283 17.284,18.900 17.591 C 18.367 18.018,18.417 17.937,17.656 19.609 C 16.904 21.260,16.879 21.302,16.661 21.217 C 16.608 21.197,16.205 20.746,15.765 20.215 C 14.886 19.156,14.842 19.120,14.423 19.120 C 13.785 19.120,12.776 18.941,12.123 18.713 C 11.304 18.426,10.404 17.896,9.850 17.374 L 9.559 17.100 9.710 16.928 L 9.860 16.755 10.300 16.716 C 13.874 16.393,16.843 13.896,17.574 10.597 C 17.775 9.692,17.804 8.738,17.659 7.840 C 17.625 7.631,17.588 7.429,17.576 7.390 C 17.548 7.297,17.563 7.300,17.842 7.441 M6.815 8.278 C 6.331 8.393,6.098 9.004,6.383 9.408 C 6.447 9.499,6.572 9.610,6.660 9.656 C 6.817 9.738,6.873 9.740,9.377 9.751 C 11.157 9.759,11.999 9.749,12.150 9.718 C 12.902 9.562,12.931 8.473,12.189 8.286 C 11.980 8.234,7.032 8.226,6.815 8.278 " stroke="none" fill-rule="evenodd" fill="black"></path></svg>