<svg width="24" height="24" viewBox="0 0 24 24" fill="none" xmlns="http://www.w3.org/2000/svg"><path d="M8.694 1.284 C 6.604 1.449,4.949 2.806,4.443 4.768 C 4.292 5.352,4.240 6.018,4.240 7.362 L 4.240 8.384 3.950 8.477 C 2.692 8.880,1.726 9.913,1.403 11.200 C 1.259 11.773,1.231 12.443,1.252 14.833 C 1.272 17.198,1.282 17.340,1.482 17.950 C 1.885 19.184,2.933 20.152,4.208 20.467 L 4.629 20.571 4.650 21.096 C 4.677 21.756,4.756 21.991,5.054 22.294 C 5.293 22.538,5.538 22.668,5.858 22.720 C 6.125 22.763,6.461 22.712,6.696 22.592 C 6.783 22.548,7.499 22.081,8.287 21.556 L 9.719 20.600 11.190 20.600 C 12.781 20.600,13.124 20.570,13.671 20.383 C 14.491 20.104,15.207 19.565,15.639 18.902 C 15.734 18.756,15.822 18.642,15.836 18.649 C 15.849 18.655,16.003 18.732,16.178 18.820 C 16.486 18.975,16.508 18.980,16.898 18.980 C 17.267 18.980,17.322 18.969,17.568 18.853 C 17.909 18.691,18.171 18.429,18.333 18.088 C 18.459 17.823,18.460 17.811,18.480 17.065 L 18.500 16.309 18.940 16.217 C 19.476 16.105,19.748 16.012,20.200 15.787 C 21.042 15.366,21.766 14.641,22.187 13.798 C 22.513 13.146,22.661 12.572,22.725 11.705 C 22.780 10.974,22.745 5.685,22.684 5.320 C 22.321 3.171,20.842 1.691,18.680 1.315 C 18.358 1.259,9.365 1.231,8.694 1.284 M18.820 2.870 C 20.002 3.200,20.822 4.027,21.131 5.200 C 21.220 5.539,21.220 5.553,21.220 8.820 L 21.220 12.100 21.129 12.420 C 20.933 13.108,20.704 13.495,20.222 13.951 C 19.640 14.502,18.978 14.771,18.038 14.837 C 17.511 14.875,17.371 14.917,17.212 15.087 C 17.017 15.295,17.000 15.408,17.000 16.480 C 17.000 17.309,16.990 17.486,16.943 17.504 C 16.912 17.516,16.764 17.444,16.615 17.344 L 16.344 17.162 16.354 14.831 C 16.365 12.279,16.338 11.716,16.176 11.120 C 15.793 9.714,14.698 8.685,13.225 8.348 C 12.872 8.267,12.741 8.264,9.307 8.250 L 5.754 8.236 5.769 6.848 C 5.785 5.469,5.786 5.458,5.895 5.102 C 6.276 3.857,7.140 3.079,8.425 2.822 C 8.651 2.776,9.579 2.768,13.600 2.773 L 18.500 2.780 18.820 2.870 M13.020 9.851 C 14.033 10.147,14.660 10.884,14.803 11.948 C 14.830 12.147,14.840 13.121,14.830 14.640 C 14.816 16.978,14.814 17.025,14.725 17.319 C 14.462 18.187,13.940 18.729,13.100 19.004 C 12.830 19.092,12.757 19.097,11.040 19.118 L 9.260 19.140 9.060 19.257 C 8.950 19.321,8.257 19.776,7.520 20.267 L 6.180 21.160 6.159 20.410 C 6.136 19.591,6.114 19.503,5.882 19.308 C 5.723 19.174,5.570 19.131,5.155 19.106 C 4.173 19.045,3.433 18.587,3.046 17.800 C 2.762 17.224,2.761 17.212,2.761 14.416 C 2.760 12.061,2.764 11.916,2.840 11.616 C 3.086 10.647,3.769 10.001,4.740 9.819 C 4.961 9.777,5.841 9.768,8.900 9.774 C 12.462 9.781,12.800 9.787,13.020 9.851 " stroke="none" fill-rule="evenodd" fill="black"></path></svg>