<svg width="24" height="24" viewBox="0 0 24 24" fill="none" xmlns="http://www.w3.org/2000/svg"><path d="M10.180 1.283 C 7.612 1.448,5.996 2.710,5.463 4.964 C 5.411 5.185,5.362 5.370,5.354 5.376 C 5.346 5.381,5.187 5.418,5.000 5.456 C 3.308 5.807,2.075 6.928,1.563 8.580 C 1.290 9.461,1.241 10.107,1.241 12.860 C 1.240 14.969,1.277 15.920,1.381 16.540 C 1.652 18.137,2.299 19.145,3.423 19.715 C 4.210 20.114,4.966 20.265,6.420 20.314 L 7.220 20.340 7.860 21.189 C 8.637 22.219,8.809 22.399,9.196 22.591 C 9.462 22.723,9.529 22.739,9.880 22.753 C 10.166 22.765,10.332 22.751,10.505 22.701 C 11.032 22.549,11.236 22.360,12.066 21.257 L 12.771 20.320 13.247 20.320 C 15.596 20.320,17.299 19.430,18.107 17.780 C 18.290 17.407,18.485 16.827,18.561 16.432 L 18.605 16.205 18.832 16.160 C 20.833 15.763,22.122 14.488,22.554 12.480 C 22.712 11.747,22.727 11.351,22.709 8.500 C 22.693 5.929,22.688 5.756,22.607 5.340 C 22.386 4.198,21.981 3.369,21.311 2.690 C 20.464 1.830,19.330 1.383,17.733 1.280 C 17.040 1.235,10.884 1.237,10.180 1.283 M18.480 2.855 C 19.264 3.040,19.830 3.324,20.241 3.738 C 20.606 4.105,20.800 4.433,20.979 4.982 C 21.216 5.708,21.220 5.767,21.220 8.820 C 21.220 11.584,21.219 11.625,21.129 12.030 C 20.871 13.198,20.399 13.902,19.595 14.320 C 19.283 14.483,18.879 14.640,18.774 14.640 C 18.729 14.640,18.720 14.243,18.719 12.370 C 18.718 9.959,18.698 9.613,18.517 8.885 C 18.047 7.002,16.762 5.797,14.803 5.401 C 14.107 5.260,13.543 5.241,10.192 5.240 L 6.924 5.240 6.986 5.030 C 7.082 4.704,7.291 4.284,7.488 4.019 C 7.838 3.547,8.373 3.189,9.040 2.981 C 9.719 2.768,9.771 2.766,14.140 2.776 C 17.846 2.784,18.205 2.790,18.480 2.855 M14.020 6.804 C 14.565 6.871,15.093 7.019,15.512 7.223 C 16.148 7.532,16.647 8.102,16.921 8.830 C 17.200 9.573,17.253 10.339,17.228 13.244 C 17.205 15.971,17.168 16.282,16.764 17.100 C 16.196 18.251,15.141 18.777,13.300 18.826 C 12.471 18.849,12.177 18.913,11.871 19.140 C 11.744 19.233,11.443 19.596,10.961 20.238 C 10.565 20.765,10.206 21.215,10.163 21.238 C 10.041 21.304,9.900 21.288,9.782 21.194 C 9.722 21.147,9.380 20.720,9.023 20.244 C 8.666 19.769,8.304 19.319,8.219 19.244 C 8.133 19.169,7.946 19.053,7.802 18.985 C 7.543 18.864,7.531 18.862,6.660 18.834 C 5.314 18.790,4.751 18.696,4.167 18.420 C 3.599 18.151,3.160 17.569,2.976 16.840 C 2.787 16.093,2.788 16.122,2.771 13.110 C 2.753 9.932,2.765 9.716,2.998 8.997 C 3.439 7.632,4.403 6.950,6.120 6.786 C 6.521 6.748,13.693 6.764,14.020 6.804 M6.280 12.285 C 6.054 12.328,5.818 12.492,5.662 12.713 C 5.563 12.854,5.540 12.932,5.527 13.164 C 5.502 13.606,5.685 13.951,6.052 14.149 C 6.229 14.245,6.770 14.246,6.946 14.151 C 7.128 14.052,7.321 13.846,7.405 13.661 C 7.493 13.466,7.504 13.054,7.425 12.866 C 7.246 12.437,6.762 12.192,6.280 12.285 M9.789 12.283 C 9.283 12.405,8.960 12.844,9.012 13.340 C 9.113 14.328,10.426 14.579,10.892 13.700 C 11.004 13.489,11.012 13.045,10.908 12.836 C 10.703 12.423,10.212 12.181,9.789 12.283 M13.280 12.285 C 13.054 12.328,12.818 12.492,12.662 12.713 C 12.563 12.854,12.540 12.932,12.527 13.164 C 12.502 13.606,12.685 13.951,13.052 14.149 C 13.229 14.245,13.770 14.246,13.946 14.151 C 14.128 14.052,14.321 13.846,14.405 13.661 C 14.493 13.466,14.504 13.054,14.425 12.866 C 14.246 12.437,13.762 12.192,13.280 12.285 " stroke="none" fill-rule="evenodd" fill="black"></path></svg>