<svg width="24" height="24" viewBox="0 0 24 24" fill="none" xmlns="http://www.w3.org/2000/svg"><path d="M7.312 1.283 C 3.953 1.476,1.926 3.183,1.400 6.261 C 1.275 6.991,1.241 7.920,1.241 10.620 C 1.241 13.158,1.274 14.192,1.379 14.936 C 1.738 17.493,2.900 18.913,5.080 19.456 C 5.734 19.618,6.252 19.678,7.420 19.724 C 8.014 19.748,8.538 19.774,8.584 19.783 C 8.639 19.793,8.973 20.205,9.549 20.970 C 10.191 21.825,10.488 22.187,10.645 22.307 C 11.507 22.965,12.493 22.966,13.355 22.307 C 13.511 22.188,13.811 21.821,14.460 20.959 L 15.350 19.776 16.325 19.728 C 17.353 19.677,17.947 19.594,18.560 19.418 C 20.545 18.847,21.847 17.545,22.418 15.561 C 22.678 14.654,22.759 13.696,22.759 11.472 C 22.760 9.836,22.744 9.704,22.522 9.482 C 22.173 9.133,21.619 9.203,21.353 9.631 L 21.260 9.780 21.236 11.940 C 21.211 14.229,21.201 14.355,20.993 15.115 C 20.646 16.382,19.868 17.302,18.748 17.771 C 17.996 18.086,17.392 18.194,16.140 18.239 C 15.063 18.277,14.919 18.306,14.529 18.557 C 14.312 18.697,14.189 18.842,13.444 19.834 C 12.982 20.450,12.541 21.016,12.464 21.093 C 12.218 21.339,11.942 21.374,11.653 21.196 C 11.568 21.143,11.180 20.664,10.623 19.923 C 9.658 18.641,9.604 18.587,9.068 18.368 C 8.831 18.271,8.770 18.265,7.680 18.235 C 5.960 18.188,5.284 18.061,4.440 17.624 C 4.125 17.461,3.577 16.893,3.393 16.540 C 3.076 15.929,2.887 15.196,2.800 14.240 C 2.768 13.896,2.759 12.676,2.769 10.320 C 2.785 6.683,2.784 6.697,2.985 5.960 C 3.422 4.357,4.357 3.422,5.960 2.985 C 6.693 2.785,6.672 2.786,10.540 2.762 C 14.004 2.741,14.187 2.736,14.332 2.664 C 14.928 2.368,14.832 1.448,14.189 1.286 C 13.976 1.233,8.237 1.230,7.312 1.283 M19.140 1.280 C 18.405 1.358,17.822 1.631,17.265 2.158 C 16.811 2.588,16.458 3.197,16.338 3.760 C 16.255 4.147,16.255 4.852,16.337 5.233 C 16.586 6.387,17.613 7.414,18.767 7.663 C 19.146 7.745,19.854 7.745,20.233 7.663 C 21.387 7.414,22.414 6.387,22.663 5.233 C 22.745 4.854,22.745 4.146,22.663 3.767 C 22.504 3.027,21.974 2.259,21.310 1.806 C 20.704 1.392,19.907 1.199,19.140 1.280 M20.247 2.930 C 20.618 3.113,20.915 3.415,21.092 3.790 C 21.212 4.043,21.220 4.088,21.220 4.500 C 21.220 4.912,21.212 4.957,21.092 5.210 C 20.914 5.586,20.618 5.887,20.245 6.071 C 19.952 6.216,19.932 6.220,19.500 6.220 C 19.068 6.220,19.048 6.216,18.755 6.071 C 18.382 5.887,18.086 5.586,17.908 5.210 C 17.788 4.957,17.780 4.912,17.780 4.500 C 17.780 4.088,17.788 4.043,17.907 3.791 C 18.123 3.335,18.494 3.003,18.979 2.830 C 19.132 2.775,19.272 2.761,19.564 2.770 C 19.914 2.781,19.976 2.796,20.247 2.930 M7.689 10.059 C 7.454 10.132,7.263 10.287,7.131 10.511 C 7.036 10.672,7.020 10.744,7.020 11.000 C 7.020 11.257,7.036 11.327,7.133 11.492 C 7.625 12.329,8.898 12.046,8.991 11.078 C 9.033 10.640,8.729 10.185,8.310 10.061 C 8.065 9.988,7.917 9.987,7.689 10.059 M11.689 10.056 C 11.452 10.134,11.262 10.289,11.131 10.511 C 11.036 10.672,11.020 10.744,11.020 11.000 C 11.020 11.257,11.036 11.327,11.133 11.492 C 11.356 11.871,11.789 12.060,12.217 11.964 C 12.929 11.805,13.232 10.975,12.789 10.394 C 12.549 10.080,12.069 9.932,11.689 10.056 M15.689 10.056 C 15.452 10.134,15.262 10.289,15.131 10.511 C 15.036 10.672,15.020 10.744,15.020 11.000 C 15.020 11.255,15.036 11.328,15.129 11.486 C 15.353 11.867,15.792 12.059,16.217 11.964 C 16.929 11.805,17.232 10.975,16.789 10.394 C 16.549 10.080,16.069 9.932,15.689 10.056 " stroke="none" fill-rule="evenodd" fill="black"></path></svg>