<svg width="24" height="24" viewBox="0 0 24 24" fill="none" xmlns="http://www.w3.org/2000/svg"><path d="M7.312 1.283 C 3.951 1.476,1.926 3.182,1.399 6.266 C 1.251 7.132,1.235 8.028,1.249 14.820 C 1.261 20.749,1.268 21.357,1.328 21.526 C 1.466 21.915,1.724 22.242,2.072 22.468 C 2.523 22.760,1.934 22.736,9.180 22.751 C 15.974 22.765,16.867 22.749,17.734 22.601 C 19.952 22.222,21.451 21.074,22.214 19.170 C 22.492 18.476,22.659 17.624,22.719 16.589 C 22.771 15.693,22.771 8.307,22.719 7.411 C 22.604 5.422,22.071 4.034,21.018 2.982 C 19.966 1.929,18.578 1.396,16.589 1.281 C 15.787 1.235,8.129 1.236,7.312 1.283 M17.460 2.854 C 18.636 3.086,19.346 3.424,19.969 4.046 C 20.571 4.648,20.925 5.405,21.147 6.560 C 21.215 6.915,21.220 7.269,21.220 12.000 C 21.220 17.520,21.230 17.252,20.993 18.115 C 20.585 19.605,19.605 20.585,18.115 20.993 C 17.243 21.232,17.765 21.217,10.004 21.230 C 3.371 21.241,2.904 21.237,2.833 21.174 C 2.760 21.108,2.758 20.911,2.770 14.003 C 2.781 7.371,2.787 6.876,2.853 6.540 C 3.087 5.366,3.424 4.653,4.039 4.039 C 4.756 3.322,5.630 2.964,7.100 2.785 C 7.166 2.777,9.443 2.773,12.160 2.777 C 16.717 2.782,17.128 2.788,17.460 2.854 M14.215 6.280 C 13.763 6.346,13.355 6.531,12.880 6.883 C 12.506 7.160,6.998 12.695,6.868 12.924 C 6.671 13.271,6.569 13.678,6.417 14.720 C 6.240 15.928,6.227 16.355,6.355 16.686 C 6.525 17.124,6.883 17.481,7.314 17.642 C 7.694 17.784,7.959 17.781,9.080 17.622 C 10.420 17.433,10.476 17.420,10.920 17.211 L 11.300 17.033 14.164 14.166 C 16.569 11.759,17.063 11.246,17.249 10.960 C 17.758 10.177,17.868 9.511,17.619 8.726 C 17.337 7.838,16.331 6.796,15.399 6.428 C 15.192 6.346,14.540 6.221,14.441 6.245 C 14.429 6.248,14.328 6.263,14.215 6.280 M15.001 7.887 C 15.354 8.063,15.940 8.648,16.113 8.996 C 16.329 9.433,16.273 9.812,15.930 10.238 C 15.681 10.546,15.270 10.960,15.212 10.960 C 15.128 10.960,14.770 10.769,14.460 10.559 C 13.947 10.210,13.375 9.546,13.121 9.003 L 13.022 8.792 13.421 8.404 C 14.091 7.752,14.478 7.625,15.001 7.887 M12.161 10.320 C 12.492 10.828,13.207 11.539,13.710 11.860 C 13.913 11.990,14.080 12.106,14.080 12.119 C 14.080 12.132,13.239 12.981,12.210 14.007 C 10.407 15.805,10.332 15.874,10.120 15.936 C 9.999 15.972,9.453 16.063,8.907 16.140 C 7.790 16.297,7.760 16.294,7.760 16.045 C 7.760 15.766,8.045 13.906,8.107 13.782 C 8.158 13.680,11.880 9.906,11.905 9.932 C 11.909 9.936,12.025 10.111,12.161 10.320 " stroke="none" fill-rule="evenodd" fill="black"></path></svg>