<svg width="24" height="24" viewBox="0 0 24 24" fill="none" xmlns="http://www.w3.org/2000/svg"><path d="M12.700 1.267 C 9.050 1.430,5.794 3.559,4.361 6.720 C 3.870 7.804,3.604 9.007,3.601 10.167 L 3.600 10.633 3.345 10.836 C 2.441 11.555,1.718 12.704,1.422 13.889 C 0.944 15.807,1.512 17.792,2.950 19.237 L 3.405 19.694 3.298 20.514 C 3.180 21.417,3.185 21.612,3.334 21.938 C 3.633 22.592,4.390 22.907,5.060 22.656 C 5.104 22.639,5.727 22.278,6.445 21.853 C 7.717 21.100,7.756 21.080,7.971 21.080 C 8.314 21.080,9.058 20.939,9.531 20.784 C 10.373 20.508,11.238 20.009,11.838 19.454 L 12.133 19.181 12.534 19.195 L 12.936 19.208 14.938 20.399 C 16.039 21.053,17.012 21.626,17.100 21.670 C 17.466 21.856,17.970 21.901,18.373 21.784 C 19.069 21.581,19.599 20.875,19.601 20.146 C 19.601 20.011,19.525 19.290,19.433 18.543 L 19.264 17.187 19.482 17.006 C 19.602 16.907,19.917 16.608,20.182 16.343 C 20.928 15.595,21.375 14.969,21.858 13.994 C 22.293 13.119,22.557 12.242,22.682 11.260 C 22.752 10.712,22.741 9.620,22.661 9.060 C 22.088 5.080,18.819 1.958,14.600 1.363 C 14.055 1.286,13.215 1.244,12.700 1.267 M14.680 2.877 C 16.820 3.280,18.622 4.374,19.830 6.004 C 21.313 8.004,21.657 10.590,20.742 12.850 C 20.275 14.004,19.411 15.159,18.471 15.884 C 18.289 16.025,18.066 16.212,17.975 16.300 C 17.686 16.580,17.686 16.560,17.917 18.432 C 18.028 19.341,18.120 20.110,18.120 20.142 C 18.120 20.227,17.973 20.360,17.878 20.360 C 17.833 20.360,16.820 19.780,15.628 19.072 C 14.436 18.363,13.410 17.776,13.350 17.767 C 13.289 17.758,13.230 17.737,13.220 17.719 C 13.209 17.702,13.271 17.511,13.358 17.294 C 14.018 15.650,13.828 13.706,12.861 12.200 C 11.889 10.687,10.258 9.663,8.400 9.400 C 7.870 9.325,6.900 9.342,6.359 9.436 C 5.979 9.502,5.456 9.640,5.166 9.751 C 5.116 9.770,5.111 9.728,5.133 9.468 C 5.236 8.252,5.842 6.812,6.694 5.760 C 8.040 4.099,9.974 3.069,12.280 2.785 C 12.357 2.776,12.825 2.773,13.320 2.779 C 14.040 2.788,14.312 2.808,14.680 2.877 M8.160 10.898 C 10.241 11.179,11.846 12.639,12.181 14.555 C 12.523 16.509,11.363 18.443,9.360 19.257 C 8.867 19.457,8.194 19.597,7.700 19.601 C 7.546 19.602,7.357 19.626,7.280 19.654 C 7.203 19.682,6.603 20.024,5.946 20.415 C 5.289 20.805,4.746 21.119,4.739 21.112 C 4.732 21.105,4.770 20.758,4.823 20.340 C 4.985 19.068,4.968 18.986,4.474 18.600 C 2.982 17.436,2.405 15.643,2.966 13.920 C 3.441 12.466,4.860 11.271,6.500 10.946 C 7.079 10.831,7.561 10.817,8.160 10.898 " stroke="none" fill-rule="evenodd" fill="black"></path></svg>