<svg width="24" height="24" viewBox="0 0 24 24" fill="none" xmlns="http://www.w3.org/2000/svg"><path d="M7.312 1.283 C 3.951 1.476,1.926 3.182,1.399 6.266 C 1.251 7.132,1.235 8.028,1.249 14.820 C 1.261 20.749,1.268 21.357,1.328 21.526 C 1.466 21.915,1.724 22.242,2.072 22.468 C 2.523 22.760,1.934 22.736,9.180 22.751 C 15.974 22.765,16.867 22.749,17.734 22.601 C 19.952 22.222,21.451 21.074,22.214 19.170 C 22.492 18.476,22.659 17.624,22.719 16.589 C 22.771 15.693,22.771 8.307,22.719 7.411 C 22.604 5.422,22.071 4.034,21.018 2.982 C 19.966 1.929,18.578 1.396,16.589 1.281 C 15.787 1.235,8.129 1.236,7.312 1.283 M17.460 2.854 C 18.636 3.086,19.346 3.424,19.969 4.046 C 20.571 4.648,20.925 5.405,21.147 6.560 C 21.215 6.915,21.220 7.269,21.220 12.000 C 21.220 17.520,21.230 17.252,20.993 18.115 C 20.585 19.605,19.605 20.585,18.115 20.993 C 17.243 21.232,17.765 21.217,10.004 21.230 C 3.371 21.241,2.904 21.237,2.833 21.174 C 2.760 21.108,2.758 20.911,2.770 14.003 C 2.781 7.371,2.787 6.876,2.853 6.540 C 3.087 5.366,3.424 4.653,4.039 4.039 C 4.756 3.322,5.630 2.964,7.100 2.785 C 7.166 2.777,9.443 2.773,12.160 2.777 C 16.717 2.782,17.128 2.788,17.460 2.854 M6.720 8.805 C 6.458 8.909,6.269 9.200,6.269 9.500 C 6.269 9.807,6.460 10.095,6.733 10.197 C 6.890 10.257,17.110 10.257,17.267 10.197 C 17.540 10.095,17.731 9.807,17.731 9.500 C 17.731 9.193,17.540 8.905,17.267 8.803 C 17.116 8.745,6.864 8.748,6.720 8.805 M6.720 13.805 C 6.458 13.909,6.269 14.200,6.269 14.500 C 6.269 14.807,6.460 15.095,6.733 15.197 C 6.809 15.226,8.015 15.240,10.500 15.240 C 12.985 15.240,14.191 15.226,14.267 15.197 C 14.540 15.095,14.731 14.807,14.731 14.500 C 14.731 14.193,14.540 13.905,14.267 13.803 C 14.117 13.746,6.863 13.748,6.720 13.805 " stroke="none" fill-rule="evenodd" fill="black"></path></svg>