<svg width="24" height="24" viewBox="0 0 24 24" fill="none" xmlns="http://www.w3.org/2000/svg"><path d="M8.080 1.282 C 4.008 1.495,1.895 3.296,1.383 6.991 C 1.270 7.803,1.242 8.816,1.242 12.000 C 1.242 16.504,1.302 17.273,1.760 18.650 C 2.532 20.963,4.206 22.226,7.027 22.622 C 7.786 22.728,8.902 22.759,12.000 22.759 C 15.098 22.759,16.214 22.728,16.973 22.622 C 19.443 22.275,20.996 21.288,21.897 19.490 C 22.379 18.530,22.638 17.369,22.720 15.807 C 22.771 14.838,22.771 9.162,22.720 8.193 C 22.657 6.998,22.521 6.191,22.242 5.356 C 21.632 3.531,20.469 2.367,18.650 1.760 C 17.788 1.473,17.023 1.344,15.806 1.280 C 14.952 1.235,8.952 1.237,8.080 1.282 M16.800 2.854 C 19.586 3.316,20.714 4.454,21.148 7.240 C 21.214 7.661,21.220 8.064,21.220 12.000 C 21.220 15.936,21.214 16.339,21.148 16.760 C 20.712 19.558,19.558 20.712,16.760 21.148 C 16.339 21.214,15.936 21.220,12.000 21.220 C 8.064 21.220,7.661 21.214,7.240 21.148 C 4.450 20.713,3.283 19.551,2.854 16.780 C 2.785 16.335,2.780 15.989,2.780 12.000 C 2.780 7.247,2.776 7.337,3.044 6.288 C 3.557 4.282,4.722 3.274,6.960 2.900 C 7.690 2.777,8.048 2.769,12.200 2.777 C 15.963 2.784,16.422 2.791,16.800 2.854 M8.515 5.342 C 6.560 5.646,5.466 6.702,5.092 8.646 C 5.028 8.980,5.020 9.274,5.020 11.400 C 5.020 13.950,5.033 14.159,5.244 14.929 C 5.350 15.315,5.632 15.885,5.857 16.169 C 6.502 16.980,7.655 17.400,9.237 17.400 L 9.749 17.400 10.232 18.050 C 10.780 18.789,11.010 19.030,11.313 19.181 C 11.871 19.459,12.611 19.356,13.082 18.935 C 13.177 18.850,13.486 18.470,13.769 18.090 L 14.283 17.400 14.673 17.400 C 15.509 17.400,16.260 17.238,16.911 16.918 C 18.079 16.343,18.725 15.372,18.970 13.820 C 19.006 13.590,19.020 12.881,19.019 11.300 C 19.017 8.948,19.002 8.719,18.797 8.030 C 18.342 6.499,17.190 5.563,15.465 5.323 C 14.982 5.256,8.962 5.272,8.515 5.342 M15.620 6.856 C 16.726 7.137,17.319 7.829,17.479 9.023 C 17.513 9.276,17.522 10.013,17.511 11.560 C 17.497 13.657,17.493 13.752,17.408 14.060 C 17.052 15.355,16.173 15.916,14.494 15.919 C 13.982 15.920,13.637 16.006,13.388 16.196 C 13.305 16.260,12.984 16.648,12.676 17.058 C 12.368 17.468,12.090 17.814,12.057 17.827 C 11.968 17.861,11.908 17.795,11.335 17.033 C 10.551 15.992,10.498 15.962,9.320 15.915 C 8.387 15.877,7.909 15.795,7.509 15.604 C 6.904 15.316,6.602 14.663,6.519 13.467 C 6.471 12.765,6.471 9.899,6.520 9.320 C 6.633 7.972,7.180 7.214,8.251 6.920 C 8.421 6.873,8.672 6.820,8.810 6.802 C 8.947 6.783,10.473 6.772,12.200 6.777 C 15.061 6.784,15.365 6.791,15.620 6.856 " stroke="none" fill-rule="evenodd" fill="black"></path></svg>