<svg width="24" height="24" viewBox="0 0 24 24" fill="none" xmlns="http://www.w3.org/2000/svg"><path d="M6.300 1.725 C 5.339 1.814,4.364 2.154,3.591 2.667 C 3.431 2.773,3.125 3.029,2.911 3.235 C 1.933 4.178,1.386 5.433,1.279 6.980 C 1.229 7.696,1.231 13.296,1.281 13.950 L 1.321 14.481 1.101 14.803 C 0.707 15.378,0.429 16.068,0.316 16.754 C 0.250 17.155,0.260 17.967,0.335 18.363 C 0.597 19.743,1.452 20.924,2.713 21.645 C 4.004 22.383,5.663 22.435,7.033 21.779 C 8.034 21.300,8.775 20.558,9.266 19.543 L 9.451 19.160 10.096 19.160 L 10.742 19.160 12.989 20.658 C 14.528 21.684,15.298 22.174,15.433 22.214 C 16.132 22.422,16.727 22.278,17.223 21.783 C 17.668 21.338,17.758 21.011,17.759 19.835 L 17.760 19.129 17.990 19.102 C 19.137 18.966,20.330 18.390,21.140 17.580 C 22.082 16.639,22.610 15.406,22.719 13.892 C 22.771 13.174,22.771 7.705,22.719 6.986 C 22.653 6.066,22.462 5.320,22.117 4.633 C 21.267 2.942,19.667 1.906,17.620 1.720 C 17.083 1.671,6.825 1.675,6.300 1.725 M17.960 3.254 C 18.886 3.439,19.547 3.788,20.144 4.406 C 20.659 4.938,20.934 5.463,21.149 6.320 C 21.206 6.549,21.216 7.021,21.229 10.220 C 21.239 12.704,21.230 13.965,21.200 14.191 C 21.061 15.249,20.555 16.174,19.775 16.800 C 19.115 17.329,18.318 17.611,17.340 17.664 C 16.832 17.691,16.685 17.728,16.518 17.868 C 16.264 18.081,16.261 18.100,16.247 19.440 C 16.233 20.796,16.228 20.822,15.981 20.792 C 15.905 20.782,15.033 20.225,13.623 19.283 C 12.392 18.462,11.326 17.765,11.254 17.735 C 11.160 17.696,10.929 17.680,10.447 17.680 L 9.772 17.680 9.746 17.276 C 9.665 16.042,9.195 14.992,8.341 14.139 C 7.731 13.529,7.038 13.131,6.168 12.892 C 5.813 12.794,5.716 12.785,5.020 12.783 C 4.364 12.781,4.212 12.793,3.913 12.869 C 3.633 12.940,3.157 13.111,2.808 13.267 C 2.766 13.286,2.759 12.668,2.771 9.935 C 2.784 7.002,2.794 6.547,2.851 6.320 C 3.065 5.464,3.341 4.939,3.856 4.406 C 4.566 3.670,5.395 3.297,6.538 3.200 C 6.737 3.183,9.312 3.173,12.260 3.178 C 17.115 3.186,17.652 3.193,17.960 3.254 M8.180 9.835 C 7.990 9.923,7.904 10.012,7.822 10.210 C 7.708 10.483,7.783 10.869,7.986 11.048 C 8.207 11.245,8.103 11.240,12.009 11.239 C 15.466 11.238,15.668 11.234,15.820 11.165 C 16.010 11.077,16.096 10.988,16.178 10.790 C 16.257 10.602,16.257 10.398,16.178 10.210 C 16.096 10.012,16.010 9.923,15.820 9.835 C 15.668 9.766,15.467 9.762,12.000 9.762 C 8.533 9.762,8.332 9.766,8.180 9.835 M5.720 14.345 C 5.898 14.381,6.190 14.488,6.437 14.607 C 6.806 14.785,6.898 14.852,7.241 15.194 C 7.663 15.615,7.905 15.979,8.061 16.428 C 8.384 17.359,8.254 18.438,7.720 19.256 C 7.149 20.130,6.254 20.657,5.193 20.742 C 3.607 20.870,2.088 19.666,1.800 18.053 C 1.737 17.701,1.768 16.959,1.861 16.620 C 2.141 15.592,3.009 14.721,4.071 14.400 C 4.595 14.241,5.116 14.224,5.720 14.345 M3.725 15.709 C 3.672 15.719,3.543 15.813,3.438 15.918 C 3.282 16.074,3.241 16.145,3.218 16.299 C 3.171 16.615,3.247 16.776,3.624 17.162 L 3.960 17.505 3.640 17.808 C 3.292 18.138,3.200 18.299,3.200 18.580 C 3.200 19.033,3.581 19.366,4.029 19.305 C 4.236 19.277,4.470 19.118,4.798 18.784 L 5.016 18.561 5.324 18.861 C 5.493 19.026,5.696 19.187,5.774 19.220 C 6.150 19.377,6.620 19.189,6.757 18.827 C 6.817 18.670,6.811 18.382,6.744 18.229 C 6.714 18.158,6.553 17.966,6.386 17.803 L 6.084 17.506 6.401 17.172 C 6.747 16.806,6.828 16.631,6.782 16.342 C 6.727 15.996,6.402 15.720,6.050 15.720 C 5.795 15.720,5.693 15.778,5.342 16.121 L 5.016 16.438 4.718 16.135 C 4.316 15.726,4.108 15.636,3.725 15.709 " stroke="none" fill-rule="evenodd" fill="black"></path></svg>