<svg width="24" height="24" viewBox="0 0 24 24" fill="none" xmlns="http://www.w3.org/2000/svg"><path d="M7.312 1.283 C 3.953 1.476,1.926 3.183,1.400 6.261 C 1.275 6.991,1.241 7.920,1.241 10.620 C 1.241 13.158,1.274 14.192,1.379 14.936 C 1.738 17.493,2.900 18.913,5.080 19.456 C 5.734 19.618,6.252 19.678,7.420 19.724 C 8.014 19.748,8.538 19.774,8.584 19.783 C 8.639 19.793,8.973 20.205,9.549 20.970 C 10.191 21.825,10.488 22.187,10.645 22.307 C 11.507 22.965,12.493 22.966,13.355 22.307 C 13.511 22.188,13.811 21.821,14.460 20.959 L 15.350 19.776 16.325 19.728 C 17.353 19.677,17.947 19.594,18.560 19.418 C 20.545 18.847,21.847 17.545,22.418 15.561 C 22.573 15.021,22.674 14.357,22.719 13.589 C 22.771 12.696,22.771 8.304,22.719 7.411 C 22.604 5.422,22.071 4.034,21.018 2.982 C 19.966 1.929,18.578 1.396,16.589 1.281 C 15.787 1.235,8.129 1.236,7.312 1.283 M17.460 2.854 C 18.636 3.086,19.346 3.424,19.969 4.046 C 20.571 4.648,20.925 5.405,21.147 6.560 C 21.214 6.910,21.220 7.221,21.220 10.500 C 21.220 14.362,21.224 14.272,20.993 15.115 C 20.646 16.382,19.868 17.302,18.748 17.771 C 17.996 18.086,17.392 18.194,16.140 18.239 C 15.063 18.277,14.919 18.306,14.529 18.557 C 14.312 18.697,14.189 18.842,13.444 19.834 C 12.982 20.450,12.541 21.016,12.464 21.093 C 12.218 21.339,11.942 21.374,11.653 21.196 C 11.568 21.143,11.180 20.664,10.623 19.923 C 9.658 18.641,9.604 18.587,9.068 18.368 C 8.831 18.271,8.770 18.265,7.680 18.235 C 5.960 18.188,5.284 18.061,4.440 17.624 C 4.125 17.461,3.577 16.893,3.393 16.540 C 3.076 15.929,2.887 15.196,2.800 14.240 C 2.768 13.896,2.759 12.676,2.769 10.320 C 2.782 7.256,2.791 6.863,2.854 6.540 C 3.083 5.374,3.424 4.653,4.039 4.039 C 4.756 3.322,5.630 2.964,7.100 2.785 C 7.166 2.777,9.443 2.773,12.160 2.777 C 16.717 2.782,17.128 2.788,17.460 2.854 M6.815 7.278 C 6.331 7.393,6.098 8.004,6.383 8.408 C 6.447 8.499,6.572 8.610,6.660 8.656 C 6.819 8.740,6.836 8.740,11.880 8.751 C 15.467 8.758,17.002 8.749,17.154 8.717 C 17.902 8.562,17.929 7.473,17.189 7.286 C 16.979 7.233,7.035 7.226,6.815 7.278 M6.815 12.278 C 6.331 12.393,6.098 13.004,6.383 13.408 C 6.447 13.499,6.572 13.610,6.660 13.656 C 6.818 13.739,6.865 13.740,9.878 13.751 C 12.020 13.759,13.000 13.749,13.151 13.718 C 13.902 13.562,13.931 12.473,13.189 12.286 C 12.979 12.234,7.033 12.226,6.815 12.278 " stroke="none" fill-rule="evenodd" fill="black"></path></svg>