<svg width="24" height="24" viewBox="0 0 24 24" fill="none" xmlns="http://www.w3.org/2000/svg"><path d="M6.300 1.725 C 5.339 1.814,4.364 2.154,3.591 2.667 C 3.431 2.773,3.125 3.029,2.911 3.235 C 1.933 4.178,1.386 5.433,1.279 6.980 C 1.230 7.690,1.231 13.207,1.281 13.893 C 1.302 14.197,1.349 14.584,1.384 14.753 C 1.884 17.182,3.629 18.786,6.133 19.118 C 6.316 19.143,7.339 19.160,8.602 19.160 L 10.758 19.160 12.929 20.607 C 14.123 21.402,15.190 22.094,15.300 22.145 C 16.335 22.617,17.555 21.945,17.719 20.813 C 17.741 20.663,17.759 20.223,17.759 19.835 L 17.760 19.129 17.990 19.101 C 19.154 18.958,20.325 18.391,21.142 17.576 C 22.085 16.635,22.610 15.408,22.719 13.892 C 22.771 13.174,22.771 7.705,22.719 6.986 C 22.653 6.066,22.462 5.320,22.117 4.633 C 21.267 2.942,19.667 1.906,17.620 1.720 C 17.083 1.671,6.825 1.675,6.300 1.725 M17.960 3.254 C 18.886 3.439,19.547 3.788,20.144 4.406 C 20.659 4.938,20.934 5.463,21.149 6.320 C 21.206 6.549,21.216 7.021,21.229 10.220 C 21.239 12.704,21.230 13.965,21.200 14.191 C 21.065 15.219,20.576 16.137,19.832 16.759 C 19.174 17.310,18.091 17.680,17.136 17.680 C 16.746 17.680,16.483 17.817,16.326 18.100 C 16.270 18.203,16.258 18.396,16.247 19.440 C 16.233 20.796,16.228 20.822,15.981 20.792 C 15.905 20.782,15.033 20.225,13.623 19.283 C 12.392 18.462,11.326 17.765,11.254 17.735 C 11.148 17.691,10.687 17.680,8.864 17.680 C 6.044 17.680,5.787 17.650,4.900 17.218 C 3.738 16.652,2.980 15.559,2.800 14.191 C 2.770 13.965,2.761 12.704,2.771 10.220 C 2.784 7.021,2.794 6.549,2.851 6.320 C 3.066 5.463,3.341 4.938,3.856 4.406 C 4.566 3.670,5.395 3.297,6.538 3.200 C 6.737 3.183,9.312 3.173,12.260 3.178 C 17.115 3.186,17.652 3.193,17.960 3.254 M8.180 9.835 C 7.990 9.923,7.904 10.012,7.822 10.210 C 7.708 10.483,7.783 10.869,7.986 11.048 C 8.207 11.245,8.103 11.240,12.009 11.239 C 15.466 11.238,15.668 11.234,15.820 11.165 C 16.010 11.077,16.096 10.988,16.178 10.790 C 16.257 10.602,16.257 10.398,16.178 10.210 C 16.096 10.012,16.010 9.923,15.820 9.835 C 15.668 9.766,15.467 9.762,12.000 9.762 C 8.533 9.762,8.332 9.766,8.180 9.835 " stroke="none" fill-rule="evenodd" fill="black"></path></svg>