<svg width="24" height="24" viewBox="0 0 24 24" fill="none" xmlns="http://www.w3.org/2000/svg"><path d="M7.312 1.283 C 3.953 1.476,1.926 3.183,1.400 6.261 C 1.275 6.991,1.241 7.920,1.241 10.620 C 1.241 13.158,1.274 14.192,1.379 14.936 C 1.738 17.493,2.900 18.913,5.080 19.456 C 5.734 19.618,6.252 19.678,7.420 19.724 C 8.014 19.748,8.538 19.774,8.584 19.783 C 8.639 19.793,8.973 20.205,9.549 20.970 C 10.191 21.825,10.488 22.187,10.645 22.307 C 11.507 22.965,12.493 22.966,13.355 22.307 C 13.511 22.188,13.811 21.821,14.460 20.959 L 15.350 19.776 16.325 19.728 C 17.353 19.677,17.947 19.594,18.560 19.418 C 20.545 18.847,21.847 17.545,22.418 15.561 C 22.573 15.021,22.674 14.357,22.719 13.589 C 22.771 12.696,22.771 8.304,22.719 7.411 C 22.604 5.422,22.071 4.034,21.018 2.982 C 19.966 1.929,18.578 1.396,16.589 1.281 C 15.787 1.235,8.129 1.236,7.312 1.283 M17.460 2.854 C 18.636 3.086,19.346 3.424,19.969 4.046 C 20.571 4.648,20.925 5.405,21.147 6.560 C 21.214 6.910,21.220 7.221,21.220 10.500 C 21.220 14.362,21.224 14.272,20.993 15.115 C 20.646 16.382,19.868 17.302,18.748 17.771 C 17.996 18.086,17.392 18.194,16.140 18.239 C 15.063 18.277,14.919 18.306,14.529 18.557 C 14.312 18.697,14.189 18.842,13.444 19.834 C 12.982 20.450,12.541 21.016,12.464 21.093 C 12.218 21.339,11.942 21.374,11.653 21.196 C 11.568 21.143,11.180 20.664,10.623 19.923 C 9.658 18.641,9.604 18.587,9.068 18.368 C 8.831 18.271,8.770 18.265,7.680 18.235 C 5.960 18.188,5.284 18.061,4.440 17.624 C 4.125 17.461,3.577 16.893,3.393 16.540 C 3.076 15.929,2.887 15.196,2.800 14.240 C 2.768 13.896,2.759 12.676,2.769 10.320 C 2.782 7.256,2.791 6.863,2.854 6.540 C 3.083 5.374,3.424 4.653,4.039 4.039 C 4.756 3.322,5.630 2.964,7.100 2.785 C 7.166 2.777,9.443 2.773,12.160 2.777 C 16.717 2.782,17.128 2.788,17.460 2.854 M7.689 10.059 C 7.454 10.132,7.263 10.287,7.131 10.511 C 7.036 10.672,7.020 10.744,7.020 11.000 C 7.020 11.257,7.036 11.327,7.133 11.492 C 7.625 12.329,8.898 12.046,8.991 11.078 C 9.033 10.640,8.729 10.185,8.310 10.061 C 8.065 9.988,7.917 9.987,7.689 10.059 M11.689 10.056 C 11.452 10.134,11.262 10.289,11.131 10.511 C 11.036 10.672,11.020 10.744,11.020 11.000 C 11.020 11.257,11.036 11.327,11.133 11.492 C 11.356 11.871,11.789 12.060,12.217 11.964 C 12.929 11.805,13.232 10.975,12.789 10.394 C 12.549 10.080,12.069 9.932,11.689 10.056 M15.689 10.056 C 15.452 10.134,15.262 10.289,15.131 10.511 C 15.036 10.672,15.020 10.744,15.020 11.000 C 15.020 11.255,15.036 11.328,15.129 11.486 C 15.353 11.867,15.792 12.059,16.217 11.964 C 16.929 11.805,17.232 10.975,16.789 10.394 C 16.549 10.080,16.069 9.932,15.689 10.056 " stroke="none" fill-rule="evenodd" fill="black"></path></svg>