<svg width="24" height="24" viewBox="0 0 24 24" fill="none" xmlns="http://www.w3.org/2000/svg"><path d="M6.300 1.725 C 5.339 1.814,4.364 2.154,3.591 2.667 C 3.431 2.773,3.125 3.029,2.911 3.235 C 1.933 4.178,1.386 5.433,1.279 6.980 C 1.229 7.696,1.231 13.296,1.281 13.950 L 1.321 14.481 1.101 14.803 C -0.566 17.236,0.340 20.549,3.014 21.802 C 4.099 22.310,5.404 22.377,6.552 21.984 C 7.507 21.656,8.366 20.988,8.948 20.120 C 9.096 19.898,9.334 19.451,9.393 19.284 L 9.436 19.160 10.089 19.160 L 10.742 19.160 12.989 20.658 C 14.528 21.684,15.298 22.174,15.433 22.214 C 16.132 22.422,16.727 22.278,17.223 21.783 C 17.668 21.338,17.758 21.011,17.759 19.835 L 17.760 19.129 17.990 19.102 C 19.137 18.966,20.330 18.390,21.140 17.580 C 22.082 16.639,22.610 15.406,22.719 13.892 C 22.771 13.174,22.771 7.705,22.719 6.986 C 22.653 6.066,22.462 5.320,22.117 4.633 C 21.267 2.942,19.667 1.906,17.620 1.720 C 17.083 1.671,6.825 1.675,6.300 1.725 M17.960 3.254 C 18.886 3.439,19.547 3.788,20.144 4.406 C 20.659 4.938,20.934 5.463,21.149 6.320 C 21.206 6.549,21.216 7.021,21.229 10.220 C 21.239 12.704,21.230 13.965,21.200 14.191 C 21.061 15.249,20.555 16.174,19.775 16.800 C 19.115 17.329,18.318 17.611,17.340 17.664 C 16.832 17.691,16.685 17.728,16.518 17.868 C 16.264 18.081,16.261 18.100,16.247 19.440 C 16.233 20.796,16.228 20.822,15.981 20.792 C 15.905 20.782,15.033 20.225,13.623 19.283 C 12.392 18.462,11.326 17.765,11.254 17.735 C 11.160 17.696,10.929 17.680,10.447 17.680 L 9.771 17.680 9.744 17.270 C 9.659 16.022,9.200 14.998,8.341 14.139 C 7.731 13.529,7.038 13.131,6.168 12.892 C 5.813 12.794,5.716 12.785,5.020 12.783 C 4.359 12.782,4.213 12.793,3.900 12.872 C 3.608 12.945,3.188 13.097,2.808 13.267 C 2.766 13.286,2.759 12.668,2.771 9.935 C 2.784 7.002,2.794 6.547,2.851 6.320 C 3.065 5.464,3.341 4.939,3.856 4.406 C 4.566 3.670,5.395 3.297,6.538 3.200 C 6.737 3.183,9.312 3.173,12.260 3.178 C 17.115 3.186,17.652 3.193,17.960 3.254 M8.180 9.835 C 7.990 9.923,7.904 10.012,7.822 10.210 C 7.708 10.483,7.783 10.869,7.986 11.048 C 8.207 11.245,8.103 11.240,12.009 11.239 C 15.466 11.238,15.668 11.234,15.820 11.165 C 16.010 11.077,16.096 10.988,16.178 10.790 C 16.257 10.602,16.257 10.398,16.178 10.210 C 16.096 10.012,16.010 9.923,15.820 9.835 C 15.668 9.766,15.467 9.762,12.000 9.762 C 8.533 9.762,8.332 9.766,8.180 9.835 M5.339 14.282 C 5.928 14.349,6.282 14.474,6.760 14.781 C 7.887 15.507,8.437 16.829,8.164 18.160 C 7.916 19.373,7.043 20.299,5.820 20.646 C 5.410 20.763,4.650 20.772,4.220 20.666 C 3.123 20.396,2.157 19.455,1.854 18.360 C 1.800 18.164,1.782 17.952,1.781 17.500 C 1.780 16.814,1.842 16.542,2.125 15.996 C 2.620 15.041,3.646 14.363,4.740 14.267 C 4.828 14.260,4.918 14.251,4.940 14.247 C 4.962 14.244,5.141 14.259,5.339 14.282 M4.940 15.577 C 4.791 15.643,4.619 15.824,4.563 15.973 C 4.539 16.035,4.520 16.362,4.520 16.700 L 4.520 17.315 4.070 17.583 C 3.444 17.957,3.327 18.075,3.266 18.395 C 3.210 18.685,3.425 19.068,3.708 19.186 C 3.887 19.261,4.136 19.253,4.312 19.168 C 4.643 19.008,5.665 18.371,5.786 18.251 C 5.858 18.180,5.935 18.054,5.958 17.971 C 5.981 17.888,6.000 17.438,6.000 16.969 C 6.000 16.081,5.977 15.933,5.808 15.747 C 5.621 15.540,5.205 15.458,4.940 15.577 " stroke="none" fill-rule="evenodd" fill="black"></path></svg>