<svg width="24" height="24" viewBox="0 0 24 24" fill="none" xmlns="http://www.w3.org/2000/svg"><path d="M6.300 1.725 C 5.339 1.814,4.364 2.154,3.591 2.667 C 3.431 2.773,3.125 3.029,2.911 3.235 C 1.933 4.178,1.386 5.433,1.279 6.980 C 1.229 7.696,1.231 13.296,1.281 13.950 L 1.321 14.481 1.101 14.803 C 0.538 15.624,0.268 16.512,0.269 17.540 C 0.271 19.352,1.311 20.987,2.967 21.779 C 3.694 22.127,4.406 22.267,5.240 22.226 C 6.342 22.172,7.190 21.839,8.034 21.129 C 8.593 20.659,9.001 20.129,9.307 19.475 L 9.455 19.160 10.098 19.160 L 10.742 19.160 12.989 20.658 C 14.528 21.684,15.298 22.174,15.433 22.214 C 16.132 22.422,16.727 22.278,17.223 21.783 C 17.668 21.338,17.758 21.011,17.759 19.835 L 17.760 19.129 17.990 19.102 C 19.137 18.966,20.330 18.390,21.140 17.580 C 22.082 16.639,22.610 15.406,22.719 13.892 C 22.771 13.174,22.771 7.705,22.719 6.986 C 22.653 6.066,22.462 5.320,22.117 4.633 C 21.267 2.942,19.667 1.906,17.620 1.720 C 17.083 1.671,6.825 1.675,6.300 1.725 M17.960 3.254 C 18.886 3.439,19.547 3.788,20.144 4.406 C 20.659 4.938,20.934 5.463,21.149 6.320 C 21.206 6.549,21.216 7.021,21.229 10.220 C 21.239 12.704,21.230 13.965,21.200 14.191 C 21.061 15.249,20.555 16.174,19.775 16.800 C 19.115 17.329,18.318 17.611,17.340 17.664 C 16.832 17.691,16.685 17.728,16.518 17.868 C 16.264 18.081,16.261 18.100,16.247 19.440 C 16.233 20.796,16.228 20.822,15.981 20.792 C 15.905 20.782,15.033 20.225,13.623 19.283 C 12.392 18.462,11.326 17.765,11.254 17.735 C 11.160 17.696,10.929 17.680,10.447 17.680 L 9.771 17.680 9.744 17.270 C 9.659 16.022,9.200 14.998,8.341 14.139 C 7.731 13.529,7.038 13.131,6.168 12.892 C 5.813 12.794,5.716 12.785,5.020 12.783 C 4.359 12.782,4.213 12.793,3.900 12.872 C 3.608 12.945,3.188 13.097,2.808 13.267 C 2.766 13.286,2.759 12.668,2.771 9.935 C 2.784 7.002,2.794 6.547,2.851 6.320 C 3.065 5.464,3.341 4.939,3.856 4.406 C 4.566 3.670,5.395 3.297,6.538 3.200 C 6.737 3.183,9.312 3.173,12.260 3.178 C 17.115 3.186,17.652 3.193,17.960 3.254 M8.180 9.835 C 7.990 9.923,7.904 10.012,7.822 10.210 C 7.708 10.483,7.783 10.869,7.986 11.048 C 8.207 11.245,8.103 11.240,12.009 11.239 C 15.466 11.238,15.668 11.234,15.820 11.165 C 16.010 11.077,16.096 10.988,16.178 10.790 C 16.257 10.602,16.257 10.398,16.178 10.210 C 16.096 10.012,16.010 9.923,15.820 9.835 C 15.668 9.766,15.467 9.762,12.000 9.762 C 8.533 9.762,8.332 9.766,8.180 9.835 M5.339 14.282 C 6.261 14.387,6.966 14.779,7.567 15.520 C 8.465 16.626,8.452 18.351,7.539 19.514 C 6.472 20.871,4.572 21.143,3.120 20.146 C 2.657 19.828,2.184 19.210,1.963 18.633 C 1.798 18.203,1.745 17.842,1.770 17.314 C 1.796 16.793,1.885 16.460,2.125 15.996 C 2.619 15.041,3.646 14.363,4.740 14.267 C 4.828 14.260,4.918 14.251,4.940 14.247 C 4.962 14.244,5.141 14.259,5.339 14.282 M6.371 15.798 C 6.200 15.840,6.114 15.910,5.222 16.734 L 4.464 17.433 4.162 17.151 C 3.830 16.840,3.683 16.760,3.444 16.760 C 3.156 16.760,2.909 16.914,2.771 17.179 C 2.687 17.339,2.692 17.669,2.779 17.841 C 2.891 18.061,3.912 19.062,4.121 19.157 C 4.355 19.263,4.549 19.261,4.753 19.150 C 5.003 19.014,7.141 17.022,7.225 16.846 C 7.334 16.619,7.312 16.303,7.173 16.107 C 6.994 15.854,6.661 15.726,6.371 15.798 " stroke="none" fill-rule="evenodd" fill="black"></path></svg>