<svg width="24" height="24" viewBox="0 0 24 24" fill="none" xmlns="http://www.w3.org/2000/svg"><path d="M17.867 1.280 C 17.760 1.299,17.583 1.347,17.472 1.387 C 17.283 1.455,11.501 5.291,11.293 5.486 C 11.151 5.620,11.066 5.887,11.094 6.109 L 11.118 6.300 9.015 7.699 C 7.858 8.469,6.869 9.149,6.817 9.211 C 6.765 9.273,6.704 9.392,6.681 9.475 C 6.642 9.620,6.558 9.682,4.873 10.804 C 3.902 11.451,3.019 12.065,2.912 12.169 C 2.414 12.651,2.268 13.510,2.577 14.136 C 2.632 14.248,2.971 14.771,3.329 15.298 C 4.036 16.338,4.202 16.515,4.626 16.685 C 4.951 16.815,5.645 16.818,5.925 16.691 C 6.027 16.645,6.918 16.069,7.905 15.412 L 9.700 14.217 9.906 14.232 C 10.019 14.240,10.151 14.226,10.199 14.200 C 10.247 14.175,10.294 14.161,10.303 14.169 C 10.312 14.178,9.546 15.872,8.601 17.933 C 7.656 19.994,6.864 21.752,6.840 21.839 C 6.701 22.356,7.211 22.849,7.746 22.714 C 8.114 22.622,8.055 22.735,10.116 18.226 C 11.159 15.945,12.019 14.086,12.028 14.095 C 12.037 14.104,12.887 15.972,13.916 18.246 C 15.948 22.735,15.889 22.622,16.254 22.714 C 16.787 22.849,17.299 22.356,17.161 21.842 C 17.138 21.757,16.182 19.621,15.036 17.094 C 13.891 14.567,12.945 12.481,12.935 12.457 C 12.925 12.434,13.282 12.173,13.729 11.877 L 14.540 11.339 14.720 11.432 C 14.864 11.507,14.940 11.521,15.100 11.504 C 15.284 11.484,15.535 11.325,18.159 9.571 C 19.731 8.520,21.121 7.583,21.247 7.488 C 21.932 6.974,22.187 5.878,21.799 5.118 C 21.640 4.807,19.794 2.070,19.611 1.875 C 19.269 1.509,18.847 1.310,18.320 1.267 C 18.177 1.255,17.973 1.261,17.867 1.280 M18.455 2.843 C 18.513 2.889,18.993 3.567,19.520 4.351 C 20.544 5.870,20.560 5.901,20.433 6.180 C 20.400 6.252,19.609 6.804,17.853 7.982 C 16.460 8.916,15.300 9.685,15.276 9.690 C 15.252 9.696,14.705 8.912,14.061 7.949 L 12.888 6.198 13.374 5.865 C 13.641 5.681,14.795 4.908,15.939 4.146 C 17.834 2.882,18.032 2.760,18.183 2.760 C 18.291 2.760,18.387 2.789,18.455 2.843 M12.835 8.838 C 13.300 9.529,13.667 10.107,13.650 10.122 C 13.562 10.202,10.202 12.440,10.174 12.438 C 10.135 12.436,8.473 9.961,8.470 9.901 C 8.468 9.849,11.934 7.520,11.965 7.553 C 11.978 7.568,12.370 8.146,12.835 8.838 M8.038 12.001 C 8.465 12.637,8.721 13.054,8.698 13.075 C 8.568 13.196,5.352 15.320,5.300 15.320 C 5.264 15.320,5.199 15.301,5.155 15.278 C 5.069 15.231,3.880 13.468,3.880 13.386 C 3.880 13.358,3.903 13.305,3.930 13.269 C 3.976 13.208,7.274 10.965,7.320 10.964 C 7.331 10.963,7.654 11.430,8.038 12.001 " stroke="none" fill-rule="evenodd" fill="black"></path></svg>