<svg width="24" height="24" viewBox="0 0 24 24" fill="none" xmlns="http://www.w3.org/2000/svg"><path d="M11.480 1.283 C 8.515 1.497,5.994 3.717,5.401 6.636 C 5.354 6.864,5.300 7.278,5.279 7.556 C 5.231 8.211,5.231 12.789,5.279 13.444 C 5.364 14.599,5.717 15.694,6.293 16.590 C 6.396 16.750,6.480 16.894,6.480 16.910 C 6.480 16.925,5.438 17.983,4.165 19.259 C 1.662 21.768,1.731 21.686,1.770 22.086 C 1.792 22.316,1.948 22.540,2.163 22.650 C 2.316 22.728,2.616 22.742,2.787 22.678 C 2.849 22.655,3.458 22.080,4.140 21.400 L 5.380 20.164 5.740 20.465 C 7.125 21.627,8.781 22.367,10.611 22.644 C 11.311 22.750,12.571 22.758,13.260 22.662 C 15.467 22.354,17.333 21.431,18.882 19.882 C 20.406 18.358,21.314 16.551,21.645 14.380 C 21.747 13.712,21.801 11.243,21.722 10.866 C 21.579 10.184,20.722 10.036,20.353 10.631 C 20.261 10.779,20.260 10.795,20.236 12.400 C 20.210 14.177,20.182 14.431,19.921 15.311 C 18.974 18.497,16.263 20.790,12.961 21.198 C 12.525 21.252,11.474 21.252,11.039 21.198 C 9.491 21.006,7.998 20.371,6.791 19.391 C 6.622 19.253,6.482 19.122,6.481 19.100 C 6.481 19.078,9.991 15.550,14.283 11.260 C 18.748 6.796,22.118 3.397,22.163 3.312 C 22.389 2.877,22.091 2.324,21.593 2.256 C 21.227 2.205,21.218 2.212,19.635 3.789 L 18.170 5.247 17.983 4.894 C 17.210 3.443,15.966 2.314,14.480 1.718 C 13.619 1.373,12.494 1.210,11.480 1.283 M13.250 2.899 C 14.925 3.315,16.340 4.570,16.920 6.154 L 17.013 6.407 12.295 11.125 L 7.578 15.842 7.446 15.624 C 7.147 15.130,6.879 14.355,6.800 13.751 C 6.770 13.528,6.761 12.405,6.770 10.320 C 6.785 6.936,6.777 7.060,7.027 6.320 C 7.143 5.979,7.515 5.236,7.660 5.059 L 7.757 4.940 7.759 6.291 C 7.760 7.713,7.771 7.811,7.952 8.014 C 8.131 8.217,8.517 8.292,8.790 8.178 C 8.988 8.096,9.077 8.010,9.165 7.820 C 9.233 7.671,9.238 7.513,9.239 5.594 L 9.240 3.528 9.591 3.347 C 9.966 3.153,10.297 3.020,10.605 2.939 L 10.796 2.888 10.808 4.318 L 10.820 5.747 10.934 5.912 C 11.208 6.306,11.780 6.346,12.107 5.994 C 12.271 5.817,12.280 5.729,12.280 4.213 L 12.280 2.751 12.580 2.779 C 12.745 2.794,13.046 2.848,13.250 2.899 M17.720 9.285 C 17.591 9.336,17.411 9.508,17.326 9.660 C 17.268 9.766,17.257 10.020,17.236 11.780 C 17.211 13.951,17.207 13.993,16.962 14.700 C 16.515 15.992,15.552 17.085,14.320 17.701 C 13.618 18.052,13.014 18.200,12.160 18.228 C 11.470 18.251,11.085 18.203,10.460 18.016 C 9.996 17.877,9.877 17.862,9.702 17.919 C 9.384 18.024,9.190 18.288,9.187 18.619 C 9.185 18.894,9.311 19.128,9.530 19.255 C 9.877 19.457,10.771 19.663,11.530 19.717 C 14.591 19.933,17.403 18.058,18.393 15.140 C 18.697 14.242,18.771 13.455,18.752 11.280 C 18.742 9.972,18.731 9.765,18.674 9.660 C 18.586 9.501,18.407 9.335,18.267 9.283 C 18.129 9.230,17.854 9.231,17.720 9.285 " stroke="none" fill-rule="evenodd" fill="black"></path></svg>