<svg width="24" height="24" viewBox="0 0 24 24" fill="none" xmlns="http://www.w3.org/2000/svg"><path d="M11.579 1.280 C 9.716 1.443,8.116 2.701,7.508 4.480 C 7.262 5.201,7.260 5.229,7.260 8.360 L 7.260 11.220 7.353 11.369 C 7.664 11.870,8.408 11.849,8.664 11.332 C 8.736 11.188,8.741 11.020,8.761 8.260 L 8.781 5.340 8.890 5.020 C 9.079 4.469,9.287 4.144,9.742 3.690 C 9.969 3.465,10.172 3.280,10.195 3.280 C 10.221 3.280,10.240 3.785,10.248 4.750 C 10.260 6.208,10.261 6.221,10.353 6.369 C 10.715 6.952,11.581 6.810,11.719 6.145 C 11.751 5.993,11.761 5.425,11.753 4.336 L 11.740 2.750 12.200 2.770 C 13.046 2.809,13.651 3.083,14.284 3.716 C 14.952 4.383,15.184 4.927,15.241 5.960 L 15.276 6.580 9.302 12.560 C 6.016 15.849,3.299 18.598,3.264 18.668 C 3.191 18.815,3.180 19.103,3.243 19.267 C 3.300 19.421,3.473 19.598,3.629 19.665 C 3.801 19.739,4.095 19.735,4.252 19.656 C 4.322 19.621,4.830 19.145,5.380 18.598 L 6.380 17.604 6.680 17.848 C 7.824 18.777,9.286 19.431,10.680 19.638 C 10.845 19.663,11.037 19.692,11.107 19.703 L 11.235 19.723 11.247 20.971 C 11.260 22.197,11.262 22.223,11.353 22.369 C 11.710 22.943,12.576 22.812,12.716 22.162 C 12.742 22.040,12.760 21.504,12.760 20.840 L 12.760 19.724 12.890 19.703 C 12.962 19.692,13.155 19.663,13.320 19.638 C 16.451 19.173,19.170 16.778,20.058 13.705 C 20.323 12.785,20.400 12.089,20.400 10.589 C 20.400 9.466,20.383 9.341,20.208 9.147 C 20.022 8.940,19.621 8.860,19.348 8.974 C 19.174 9.047,18.969 9.288,18.944 9.449 C 18.933 9.521,18.915 10.129,18.903 10.800 C 18.889 11.641,18.863 12.138,18.819 12.400 C 18.542 14.055,17.785 15.427,16.540 16.530 C 14.328 18.490,11.085 18.799,8.495 17.296 C 8.266 17.163,7.803 16.839,7.591 16.663 L 7.443 16.540 8.166 15.815 L 8.889 15.091 9.174 15.306 C 11.164 16.806,14.108 16.445,15.659 14.510 C 16.341 13.659,16.643 12.870,16.727 11.720 C 16.784 10.936,16.746 10.706,16.523 10.483 C 16.174 10.134,15.618 10.203,15.356 10.627 C 15.276 10.756,15.263 10.848,15.236 11.456 C 15.217 11.871,15.179 12.234,15.139 12.380 C 14.979 12.970,14.562 13.597,14.051 14.022 C 13.732 14.286,13.174 14.569,12.780 14.666 C 12.372 14.767,11.599 14.758,11.192 14.648 C 10.824 14.548,10.366 14.339,10.124 14.161 L 9.949 14.031 15.311 8.666 C 18.259 5.715,20.701 3.242,20.736 3.172 C 20.830 2.984,20.818 2.664,20.710 2.472 C 20.539 2.167,20.054 2.008,19.758 2.158 C 19.704 2.186,18.990 2.876,18.172 3.692 C 17.208 4.653,16.677 5.156,16.665 5.118 C 16.655 5.086,16.624 4.961,16.597 4.840 C 16.570 4.719,16.504 4.503,16.451 4.360 C 15.699 2.351,13.708 1.093,11.579 1.280 M4.020 8.987 C 3.835 9.085,3.755 9.166,3.675 9.340 C 3.610 9.483,3.602 9.618,3.601 10.580 C 3.600 11.754,3.641 12.361,3.763 12.980 C 3.867 13.503,4.092 14.227,4.263 14.587 C 4.389 14.851,4.418 14.883,4.621 14.982 C 4.795 15.067,4.880 15.086,5.022 15.070 C 5.389 15.028,5.680 14.711,5.680 14.352 C 5.680 14.254,5.604 13.959,5.502 13.660 C 5.172 12.696,5.084 12.011,5.081 10.373 C 5.081 9.847,5.063 9.439,5.037 9.373 C 4.980 9.219,4.807 9.042,4.651 8.975 C 4.481 8.902,4.169 8.908,4.020 8.987 " stroke="none" fill-rule="evenodd" fill="black"></path></svg>