<svg width="24" height="24" viewBox="0 0 24 24" fill="none" xmlns="http://www.w3.org/2000/svg"><path d="M11.480 1.283 C 8.512 1.499,5.994 3.716,5.401 6.636 C 5.267 7.293,5.242 7.897,5.242 10.500 C 5.242 13.103,5.267 13.707,5.401 14.364 C 5.931 16.976,8.025 19.069,10.637 19.600 C 12.870 20.053,15.157 19.367,16.762 17.762 C 17.932 16.591,18.598 15.125,18.721 13.444 C 18.769 12.789,18.769 8.211,18.721 7.556 C 18.598 5.875,17.932 4.409,16.762 3.238 C 15.360 1.837,13.473 1.138,11.480 1.283 M13.080 2.859 C 14.085 3.084,14.976 3.573,15.701 4.299 C 16.439 5.036,16.925 5.932,17.147 6.961 C 17.214 7.273,17.220 7.553,17.220 10.500 C 17.220 13.447,17.214 13.727,17.147 14.039 C 16.925 15.068,16.439 15.964,15.701 16.701 C 14.964 17.439,14.068 17.925,13.039 18.147 C 12.563 18.250,11.438 18.250,10.960 18.147 C 9.935 17.928,9.037 17.440,8.299 16.701 C 7.560 15.963,7.072 15.065,6.853 14.040 C 6.786 13.727,6.780 13.443,6.780 10.500 C 6.780 7.557,6.786 7.273,6.853 6.960 C 7.072 5.935,7.560 5.037,8.299 4.299 C 9.037 3.560,9.980 3.048,10.940 2.864 C 11.116 2.831,11.296 2.795,11.340 2.784 C 11.526 2.740,12.789 2.794,13.080 2.859 M11.360 6.264 C 10.355 6.329,8.921 6.670,8.632 6.913 C 8.164 7.307,8.348 8.053,8.949 8.197 C 9.128 8.240,9.179 8.233,9.602 8.105 C 11.169 7.630,12.551 7.630,14.118 8.105 C 14.541 8.233,14.592 8.240,14.771 8.197 C 15.238 8.085,15.480 7.607,15.285 7.178 C 15.244 7.089,15.156 6.970,15.088 6.913 C 14.878 6.736,13.762 6.424,12.980 6.324 C 12.616 6.277,11.688 6.243,11.360 6.264 M11.080 9.524 C 10.768 9.559,10.089 9.688,9.831 9.761 C 9.547 9.841,9.283 10.168,9.281 10.440 C 9.279 10.787,9.526 11.112,9.856 11.195 C 10.007 11.233,10.091 11.230,10.311 11.178 C 11.363 10.932,12.199 10.917,13.161 11.127 C 13.788 11.263,14.002 11.233,14.247 10.974 C 14.381 10.833,14.440 10.681,14.440 10.480 C 14.440 10.279,14.381 10.127,14.247 9.986 C 14.099 9.829,13.995 9.783,13.580 9.687 C 12.775 9.500,11.837 9.439,11.080 9.524 M2.815 10.277 C 2.638 10.321,2.461 10.456,2.353 10.631 L 2.260 10.780 2.264 12.280 C 2.268 13.884,2.300 14.274,2.499 15.160 C 3.315 18.789,6.207 21.686,9.824 22.498 C 11.202 22.807,12.740 22.814,14.100 22.516 C 15.906 22.121,17.546 21.218,18.882 19.882 C 20.406 18.358,21.314 16.551,21.645 14.380 C 21.747 13.712,21.801 11.243,21.722 10.866 C 21.579 10.184,20.722 10.036,20.353 10.631 C 20.261 10.779,20.260 10.795,20.236 12.400 C 20.215 13.821,20.202 14.074,20.127 14.461 C 19.622 17.083,18.002 19.227,15.642 20.395 C 14.465 20.977,13.332 21.240,12.000 21.240 C 11.034 21.240,10.311 21.126,9.416 20.834 C 6.398 19.848,4.196 17.153,3.802 13.961 C 3.779 13.775,3.760 13.037,3.759 12.321 C 3.758 10.948,3.737 10.743,3.580 10.536 C 3.421 10.327,3.078 10.211,2.815 10.277 " stroke="none" fill-rule="evenodd" fill="black"></path></svg>