<svg width="24" height="24" viewBox="0 0 24 24" fill="none" xmlns="http://www.w3.org/2000/svg"><path d="M9.180 1.281 C 8.516 1.371,7.898 1.789,7.555 2.380 C 7.362 2.714,7.274 3.054,7.271 3.480 C 7.266 4.145,7.469 4.631,7.950 5.109 L 8.240 5.397 8.240 6.047 L 8.240 6.697 7.046 7.899 C 6.204 8.747,5.809 9.173,5.704 9.350 C 5.498 9.695,5.332 10.168,5.280 10.565 C 5.249 10.798,5.240 12.208,5.250 15.200 C 5.266 19.845,5.258 19.677,5.479 20.266 C 5.953 21.534,7.022 22.438,8.344 22.688 C 8.744 22.764,15.256 22.764,15.656 22.688 C 16.959 22.441,18.053 21.519,18.518 20.275 C 18.742 19.675,18.734 19.854,18.750 15.200 C 18.760 12.208,18.751 10.798,18.720 10.565 C 18.668 10.168,18.502 9.695,18.296 9.350 C 18.191 9.173,17.796 8.747,16.954 7.899 L 15.760 6.697 15.760 6.047 L 15.760 5.397 16.050 5.109 C 16.524 4.638,16.731 4.148,16.731 3.500 C 16.731 2.493,16.112 1.661,15.120 1.335 C 14.918 1.269,14.680 1.263,12.160 1.256 C 10.653 1.251,9.312 1.263,9.180 1.281 M14.832 2.836 C 15.094 2.969,15.240 3.208,15.240 3.500 C 15.240 3.792,15.094 4.031,14.832 4.164 C 14.690 4.236,14.554 4.240,12.000 4.240 C 9.446 4.240,9.310 4.236,9.168 4.164 C 8.999 4.078,8.917 3.994,8.825 3.812 C 8.697 3.559,8.776 3.139,8.986 2.955 C 9.212 2.757,9.113 2.763,11.992 2.762 C 14.556 2.760,14.690 2.764,14.832 2.836 M14.241 6.150 C 14.243 6.724,14.296 7.044,14.437 7.346 C 14.548 7.584,14.692 7.743,15.779 8.838 C 16.812 9.877,17.014 10.099,17.108 10.302 L 17.220 10.540 17.231 12.390 L 17.242 14.240 15.511 14.240 C 13.336 14.240,13.303 14.235,12.204 13.763 C 11.553 13.484,11.063 13.345,10.509 13.283 C 10.295 13.259,9.374 13.240,8.440 13.240 L 6.757 13.240 6.768 11.890 L 6.780 10.540 6.892 10.302 C 6.986 10.099,7.188 9.877,8.221 8.838 C 9.308 7.743,9.452 7.584,9.563 7.346 C 9.704 7.044,9.757 6.724,9.759 6.150 L 9.760 5.760 12.000 5.760 L 14.240 5.760 14.241 6.150 M10.440 14.803 C 10.867 14.865,11.105 14.940,11.719 15.203 C 12.898 15.710,13.230 15.758,15.530 15.759 L 17.240 15.760 17.240 17.544 C 17.240 19.513,17.232 19.595,16.987 20.060 C 16.824 20.369,16.369 20.824,16.060 20.987 C 15.567 21.247,15.672 21.240,12.000 21.240 C 8.328 21.240,8.433 21.247,7.940 20.987 C 7.630 20.824,7.176 20.369,7.011 20.057 C 6.760 19.582,6.760 19.578,6.760 17.042 L 6.760 14.740 8.450 14.750 C 9.406 14.755,10.270 14.778,10.440 14.803 " stroke="none" fill-rule="evenodd" fill="black"></path></svg>