<svg width="24" height="24" viewBox="0 0 24 24" fill="none" xmlns="http://www.w3.org/2000/svg"><path d="M8.080 1.282 C 4.008 1.495,1.895 3.296,1.383 6.991 C 1.270 7.803,1.242 8.816,1.242 12.000 C 1.242 16.504,1.302 17.273,1.760 18.650 C 2.532 20.963,4.206 22.226,7.027 22.622 C 7.934 22.749,10.713 22.812,11.162 22.716 C 11.828 22.573,11.943 21.639,11.332 21.336 C 11.192 21.266,11.035 21.258,9.400 21.235 C 7.476 21.208,7.215 21.184,6.312 20.960 C 4.223 20.440,3.236 19.246,2.854 16.780 C 2.785 16.335,2.780 15.989,2.780 12.000 C 2.780 8.011,2.785 7.665,2.854 7.220 C 3.282 4.456,4.456 3.282,7.220 2.854 C 7.665 2.785,8.011 2.780,12.000 2.780 C 16.745 2.780,16.622 2.774,17.688 3.040 C 19.520 3.496,20.504 4.481,20.960 6.312 C 21.163 7.129,21.208 7.555,21.235 8.940 C 21.259 10.188,21.262 10.224,21.353 10.369 C 21.710 10.943,22.576 10.812,22.716 10.162 C 22.799 9.775,22.742 7.885,22.622 7.027 C 22.359 5.157,21.686 3.741,20.641 2.857 C 19.477 1.874,18.011 1.396,15.806 1.280 C 14.952 1.235,8.952 1.237,8.080 1.282 M20.720 12.002 C 20.447 12.033,17.547 12.811,17.150 12.960 C 16.759 13.106,16.336 13.495,16.157 13.875 C 15.966 14.278,15.961 14.339,15.960 16.474 C 15.960 18.327,15.955 18.487,15.894 18.463 C 15.718 18.396,15.267 18.364,14.988 18.399 C 14.447 18.468,14.007 18.701,13.637 19.114 C 12.749 20.106,12.964 21.659,14.091 22.398 C 14.717 22.809,15.589 22.850,16.279 22.500 C 16.646 22.315,17.041 21.910,17.244 21.512 C 17.434 21.140,17.443 21.021,17.440 18.952 L 17.438 17.004 17.609 16.958 C 18.153 16.813,21.148 15.995,21.190 15.980 C 21.229 15.966,21.240 16.136,21.240 16.744 C 21.240 17.215,21.225 17.516,21.203 17.502 C 21.106 17.442,20.540 17.405,20.261 17.440 C 19.512 17.535,18.837 18.057,18.533 18.776 C 18.335 19.247,18.335 19.953,18.533 20.424 C 18.837 21.143,19.512 21.665,20.261 21.760 C 21.476 21.914,22.563 21.088,22.723 19.889 C 22.750 19.690,22.759 18.500,22.750 16.540 C 22.737 14.003,22.724 13.463,22.675 13.279 C 22.428 12.368,21.698 11.891,20.720 12.002 M21.201 13.583 C 21.222 13.639,21.240 13.852,21.240 14.056 L 21.240 14.426 19.369 14.933 C 18.340 15.212,17.485 15.440,17.469 15.440 C 17.419 15.440,17.438 14.666,17.491 14.564 C 17.518 14.511,17.585 14.435,17.640 14.395 C 17.779 14.295,20.731 13.486,20.971 13.482 C 21.140 13.480,21.166 13.492,21.201 13.583 M20.970 19.050 C 21.168 19.201,21.253 19.402,21.231 19.667 C 21.212 19.896,21.133 20.037,20.945 20.178 C 20.787 20.295,20.333 20.295,20.175 20.178 C 19.933 19.996,19.838 19.739,19.897 19.424 C 19.929 19.253,20.092 19.049,20.258 18.974 C 20.452 18.886,20.804 18.923,20.970 19.050 M15.623 19.979 C 15.815 20.092,15.960 20.342,15.960 20.560 C 15.960 20.778,15.815 21.028,15.623 21.141 C 15.152 21.416,14.591 21.100,14.591 20.560 C 14.591 20.019,15.152 19.704,15.623 19.979 " stroke="none" fill-rule="evenodd" fill="black"></path></svg>