<svg width="24" height="24" viewBox="0 0 24 24" fill="none" xmlns="http://www.w3.org/2000/svg"><path d="M11.480 1.266 C 7.599 1.446,4.152 3.654,2.375 7.099 C 1.759 8.293,1.383 9.529,1.237 10.840 C 1.177 11.380,1.177 12.620,1.237 13.160 C 1.636 16.738,3.809 19.890,7.019 21.545 C 8.601 22.360,10.122 22.728,11.920 22.728 C 12.742 22.728,13.435 22.661,14.116 22.516 C 17.281 21.844,19.979 19.782,21.465 16.901 C 22.280 15.319,22.648 13.798,22.648 12.000 C 22.648 10.863,22.527 10.010,22.217 8.950 C 21.214 5.522,18.398 2.706,14.970 1.703 C 13.860 1.378,12.564 1.216,11.480 1.266 M13.068 2.822 C 15.147 3.094,16.948 3.984,18.442 5.478 C 19.281 6.317,19.885 7.182,20.351 8.214 C 20.902 9.433,21.160 10.640,21.160 12.000 C 21.160 13.360,20.902 14.567,20.351 15.786 C 19.885 16.818,19.281 17.683,18.442 18.522 C 17.603 19.361,16.738 19.965,15.706 20.431 C 14.487 20.982,13.280 21.240,11.920 21.240 C 10.560 21.240,9.353 20.982,8.134 20.431 C 7.102 19.965,6.237 19.361,5.398 18.522 C 3.615 16.739,2.680 14.495,2.680 12.000 C 2.680 9.505,3.615 7.261,5.398 5.478 C 6.880 3.996,8.676 3.104,10.741 2.822 C 11.300 2.746,12.489 2.746,13.068 2.822 M7.735 11.278 C 7.251 11.393,7.018 12.004,7.303 12.408 C 7.367 12.499,7.492 12.610,7.580 12.656 C 7.739 12.739,7.771 12.740,11.799 12.751 C 14.664 12.759,15.921 12.749,16.073 12.717 C 16.822 12.562,16.850 11.473,16.109 11.286 C 15.899 11.234,7.954 11.226,7.735 11.278 " stroke="none" fill-rule="evenodd" fill="black"></path></svg>