<svg width="24" height="24" viewBox="0 0 24 24" fill="none" xmlns="http://www.w3.org/2000/svg"><path d="M11.360 1.281 C 8.994 1.440,6.739 2.615,5.216 4.481 C 4.233 5.684,3.579 7.182,3.338 8.780 C 3.248 9.377,3.248 10.623,3.338 11.220 C 3.589 12.885,4.272 14.399,5.349 15.680 C 6.683 17.266,8.641 18.341,10.780 18.661 C 11.376 18.751,12.624 18.751,13.220 18.661 C 15.448 18.328,17.452 17.189,18.811 15.484 C 19.798 14.246,20.426 12.799,20.661 11.220 C 20.739 10.695,20.751 9.473,20.682 8.940 C 20.402 6.757,19.306 4.716,17.680 3.349 C 15.899 1.852,13.679 1.125,11.360 1.281 M13.380 2.878 C 14.815 3.168,16.084 3.847,17.118 4.882 C 18.158 5.922,18.832 7.184,19.128 8.647 C 19.208 9.040,19.220 9.220,19.220 10.000 C 19.220 10.780,19.208 10.960,19.128 11.353 C 18.832 12.816,18.158 14.078,17.118 15.118 C 16.078 16.158,14.816 16.832,13.353 17.128 C 12.960 17.208,12.780 17.220,12.000 17.220 C 11.216 17.220,11.041 17.208,10.640 17.127 C 9.183 16.832,7.922 16.158,6.882 15.118 C 5.842 14.078,5.168 12.817,4.873 11.360 C 4.792 10.959,4.780 10.784,4.780 10.000 C 4.780 9.216,4.792 9.041,4.873 8.640 C 5.168 7.183,5.842 5.922,6.882 4.882 C 8.053 3.711,9.427 3.041,11.180 2.785 C 11.246 2.775,11.669 2.772,12.120 2.778 C 12.777 2.787,13.027 2.806,13.380 2.878 M5.815 21.278 C 5.331 21.393,5.098 22.004,5.383 22.408 C 5.447 22.499,5.572 22.610,5.660 22.656 C 5.820 22.740,5.822 22.740,11.880 22.751 C 16.193 22.758,18.002 22.749,18.154 22.717 C 18.902 22.562,18.929 21.473,18.189 21.286 C 17.979 21.233,6.035 21.226,5.815 21.278 " stroke="none" fill-rule="evenodd" fill="black"></path></svg>