<svg width="24" height="24" viewBox="0 0 24 24" fill="none" xmlns="http://www.w3.org/2000/svg"><path d="M6.458 2.283 C 5.617 2.344,4.882 2.542,4.186 2.896 C 3.639 3.174,3.292 3.425,2.859 3.859 C 2.107 4.611,1.631 5.505,1.401 6.600 C 1.302 7.073,1.225 8.144,1.247 8.760 C 1.261 9.155,1.277 9.246,1.355 9.371 C 1.663 9.870,2.412 9.847,2.663 9.332 C 2.726 9.202,2.741 9.036,2.763 8.180 C 2.781 7.511,2.811 7.087,2.852 6.899 C 3.215 5.272,4.351 4.159,5.980 3.836 C 6.395 3.753,17.605 3.753,18.020 3.836 C 19.674 4.164,20.836 5.326,21.164 6.980 C 21.247 7.394,21.247 16.606,21.164 17.020 C 20.883 18.437,19.975 19.518,18.681 19.979 C 18.128 20.175,17.882 20.209,16.797 20.235 L 15.774 20.260 15.612 20.367 C 15.372 20.526,15.267 20.721,15.267 21.007 C 15.267 21.203,15.286 21.270,15.383 21.408 C 15.565 21.665,15.737 21.732,16.259 21.752 C 16.504 21.762,17.000 21.749,17.362 21.724 C 18.404 21.652,19.062 21.486,19.814 21.104 C 20.361 20.826,20.708 20.575,21.141 20.141 C 22.107 19.175,22.607 18.007,22.719 16.455 C 22.772 15.727,22.772 8.273,22.719 7.545 C 22.651 6.594,22.473 5.912,22.104 5.186 C 21.826 4.639,21.575 4.292,21.141 3.859 C 20.175 2.893,19.007 2.393,17.455 2.281 C 16.797 2.233,7.119 2.236,6.458 2.283 M3.446 11.000 C 3.133 11.134,2.960 11.390,2.960 11.721 C 2.960 11.947,2.999 12.045,3.155 12.214 C 3.310 12.382,3.417 12.423,3.880 12.499 C 5.900 12.828,7.602 13.679,8.962 15.038 C 10.314 16.391,11.134 18.016,11.500 20.065 C 11.607 20.663,11.622 20.701,11.818 20.873 C 12.159 21.172,12.615 21.117,12.901 20.742 C 13.052 20.544,13.066 20.322,12.963 19.740 C 12.229 15.611,9.480 12.504,5.525 11.335 C 4.682 11.086,3.639 10.918,3.446 11.000 M2.392 14.360 C 1.974 14.486,1.758 15.004,1.960 15.399 C 2.094 15.662,2.258 15.755,2.747 15.843 C 4.214 16.108,5.279 16.629,6.253 17.558 C 7.233 18.492,7.839 19.626,8.122 21.052 C 8.255 21.722,8.300 21.830,8.507 21.988 C 8.636 22.087,8.688 22.100,8.940 22.100 C 9.192 22.100,9.244 22.087,9.373 21.988 C 9.559 21.847,9.680 21.612,9.680 21.397 C 9.680 21.187,9.516 20.374,9.379 19.900 C 9.019 18.658,8.356 17.551,7.403 16.597 C 6.725 15.919,6.096 15.475,5.229 15.061 C 4.492 14.710,3.859 14.514,3.030 14.382 C 2.601 14.314,2.550 14.312,2.392 14.360 M1.660 18.193 C 1.469 18.284,1.384 18.373,1.302 18.570 C 1.166 18.893,1.275 19.279,1.553 19.466 C 1.626 19.515,1.787 19.575,1.912 19.599 C 2.304 19.674,2.785 19.842,3.044 19.994 C 3.362 20.181,3.819 20.638,4.006 20.956 C 4.158 21.215,4.326 21.696,4.401 22.088 C 4.458 22.382,4.578 22.558,4.799 22.670 C 5.007 22.775,5.223 22.785,5.430 22.698 C 5.622 22.618,5.711 22.535,5.809 22.341 C 5.877 22.209,5.886 22.137,5.866 21.901 C 5.759 20.662,4.926 19.376,3.800 18.711 C 3.033 18.257,2.032 18.015,1.660 18.193 " stroke="none" fill-rule="evenodd" fill="black"></path></svg>