<svg width="18" height="22" viewBox="0 0 18 22" fill="none" xmlns="http://www.w3.org/2000/svg"><path d="M5.250 0.272 C 3.743 0.327,2.747 0.569,1.973 1.068 C 1.555 1.337,1.100 1.858,0.849 2.352 C 0.622 2.800,0.438 3.498,0.339 4.290 C 0.288 4.697,0.285 5.124,0.285 10.995 C 0.285 16.866,0.288 17.293,0.339 17.700 C 0.438 18.492,0.622 19.190,0.849 19.638 C 1.359 20.643,2.257 21.273,3.559 21.537 C 4.444 21.717,5.247 21.749,9.000 21.749 C 12.753 21.749,13.556 21.717,14.441 21.537 C 16.182 21.184,17.169 20.211,17.532 18.489 C 17.723 17.583,17.715 17.896,17.715 10.995 C 17.715 4.094,17.723 4.407,17.532 3.501 C 17.211 1.978,16.401 1.042,15.026 0.605 C 14.397 0.404,13.729 0.311,12.630 0.270 C 11.749 0.237,6.166 0.239,5.250 0.272 M12.915 1.771 C 13.772 1.823,14.338 1.923,14.783 2.101 C 15.762 2.493,16.134 3.295,16.230 5.220 C 16.268 5.990,16.268 16.000,16.230 16.770 C 16.164 18.091,15.964 18.863,15.560 19.355 C 15.133 19.877,14.334 20.136,12.897 20.219 C 12.213 20.259,5.787 20.259,5.103 20.219 C 3.699 20.138,2.892 19.883,2.459 19.386 C 2.173 19.057,1.945 18.428,1.846 17.700 C 1.753 17.013,1.741 16.195,1.741 10.995 C 1.741 5.795,1.753 4.977,1.846 4.290 C 1.945 3.562,2.173 2.933,2.459 2.604 C 2.879 2.122,3.709 1.852,5.016 1.773 C 5.620 1.736,12.316 1.735,12.915 1.771 M6.810 3.778 C 6.592 3.845,6.396 4.015,6.317 4.207 C 6.291 4.268,6.270 4.400,6.270 4.500 C 6.270 4.800,6.406 5.025,6.675 5.170 C 6.795 5.235,6.797 5.235,9.000 5.235 C 11.203 5.235,11.205 5.235,11.325 5.170 C 11.594 5.025,11.730 4.800,11.730 4.500 C 11.730 4.200,11.594 3.975,11.325 3.830 C 11.205 3.765,11.197 3.765,9.045 3.760 C 7.857 3.757,6.851 3.765,6.810 3.778 M8.505 14.300 C 8.046 14.397,7.671 14.617,7.311 15.000 C 7.045 15.282,6.836 15.672,6.763 16.018 C 6.663 16.498,6.724 17.096,6.915 17.514 C 7.144 18.013,7.627 18.464,8.165 18.682 C 8.802 18.939,9.569 18.872,10.193 18.506 C 10.424 18.370,10.849 17.939,10.988 17.700 C 11.178 17.373,11.257 17.083,11.273 16.648 C 11.291 16.165,11.238 15.894,11.054 15.522 C 10.823 15.056,10.345 14.605,9.878 14.416 C 9.482 14.255,8.933 14.208,8.505 14.300 M9.275 15.792 C 9.812 15.984,9.967 16.709,9.557 17.107 C 9.383 17.276,9.258 17.325,9.000 17.325 C 8.742 17.325,8.617 17.276,8.443 17.107 C 8.198 16.869,8.136 16.505,8.289 16.194 C 8.429 15.908,8.680 15.753,9.000 15.753 C 9.091 15.753,9.215 15.770,9.275 15.792 " stroke="none" fill-rule="evenodd" fill="black"></path></svg>