<svg width="24" height="24" viewBox="0 0 24 24" fill="none" xmlns="http://www.w3.org/2000/svg"><path d="M7.400 1.282 C 4.653 1.459,2.905 2.910,2.403 5.434 C 2.259 6.153,2.240 6.926,2.240 12.000 C 2.240 17.074,2.259 17.847,2.403 18.566 C 2.660 19.857,3.285 20.937,4.155 21.594 C 5.105 22.312,6.030 22.625,7.480 22.720 C 8.316 22.775,12.903 22.771,13.162 22.716 C 13.828 22.573,13.943 21.639,13.332 21.336 C 13.188 21.264,13.015 21.259,10.100 21.237 L 7.020 21.214 6.595 21.110 C 5.806 20.917,5.282 20.643,4.820 20.180 C 4.352 19.712,4.079 19.188,3.887 18.385 L 3.780 17.940 3.780 12.000 L 3.780 6.060 3.887 5.615 C 4.079 4.812,4.352 4.288,4.820 3.820 C 5.479 3.161,6.373 2.824,7.604 2.773 L 8.188 2.748 8.211 3.324 C 8.226 3.682,8.260 3.983,8.301 4.120 C 8.525 4.859,9.106 5.435,9.860 5.666 C 10.078 5.733,10.269 5.740,11.980 5.740 C 13.810 5.740,13.868 5.738,14.142 5.651 C 14.869 5.423,15.487 4.762,15.660 4.030 C 15.696 3.878,15.719 3.577,15.719 3.264 L 15.720 2.748 16.350 2.772 C 18.459 2.853,19.658 3.753,20.111 5.595 L 20.216 6.020 20.238 10.120 L 20.260 14.220 20.353 14.369 C 20.710 14.943,21.576 14.812,21.716 14.162 C 21.773 13.896,21.776 7.359,21.720 6.474 C 21.637 5.184,21.345 4.241,20.759 3.381 C 20.486 2.981,20.196 2.671,19.845 2.406 C 18.895 1.688,17.970 1.375,16.520 1.280 C 15.849 1.236,8.086 1.237,7.400 1.282 M14.239 3.190 C 14.238 3.523,14.222 3.656,14.164 3.780 C 14.078 3.966,13.907 4.137,13.747 4.197 C 13.674 4.225,13.045 4.240,11.956 4.240 C 10.387 4.240,10.267 4.235,10.128 4.164 C 9.817 4.005,9.735 3.827,9.698 3.229 L 9.669 2.760 11.955 2.760 L 14.240 2.760 14.239 3.190 M16.900 16.259 C 16.878 16.267,16.806 16.285,16.740 16.300 C 16.653 16.319,16.315 16.630,15.528 17.413 C 14.927 18.011,14.397 18.561,14.351 18.636 C 14.235 18.822,14.235 19.178,14.351 19.364 C 14.397 19.439,14.927 19.988,15.528 20.585 C 16.553 21.605,16.632 21.673,16.810 21.711 C 17.390 21.832,17.832 21.389,17.710 20.810 C 17.673 20.634,17.609 20.559,16.867 19.810 L 16.064 19.000 16.867 18.190 C 17.611 17.439,17.673 17.366,17.711 17.189 C 17.782 16.848,17.658 16.530,17.389 16.367 C 17.265 16.292,16.983 16.229,16.900 16.259 M19.815 16.277 C 19.640 16.320,19.462 16.456,19.356 16.626 C 19.253 16.793,19.233 17.156,19.318 17.320 C 19.347 17.375,19.723 17.776,20.154 18.210 L 20.937 19.000 20.154 19.790 C 19.723 20.225,19.347 20.625,19.318 20.680 C 19.290 20.735,19.267 20.884,19.267 21.011 C 19.267 21.202,19.287 21.271,19.383 21.408 C 19.448 21.499,19.568 21.608,19.651 21.651 C 19.838 21.747,20.139 21.753,20.327 21.664 C 20.403 21.627,20.962 21.099,21.568 20.489 C 22.605 19.447,22.673 19.369,22.711 19.190 C 22.737 19.064,22.737 18.936,22.711 18.810 C 22.673 18.632,22.605 18.553,21.585 17.528 C 20.988 16.927,20.446 16.402,20.380 16.362 C 20.235 16.273,19.985 16.236,19.815 16.277 " stroke="none" fill-rule="evenodd" fill="black"></path></svg>