<svg width="24" height="24" viewBox="0 0 24 24" fill="none" xmlns="http://www.w3.org/2000/svg"><path d="M5.928 2.822 C 4.640 2.987,3.639 3.428,2.847 4.177 C 2.092 4.890,1.597 5.858,1.381 7.040 C 1.267 7.667,1.242 8.560,1.242 12.000 C 1.242 15.440,1.267 16.333,1.381 16.960 C 1.597 18.144,2.092 19.110,2.848 19.825 C 3.652 20.585,4.645 21.016,5.975 21.180 C 6.694 21.269,17.306 21.269,18.025 21.180 C 20.006 20.935,21.393 20.019,22.140 18.461 C 22.490 17.731,22.654 17.044,22.720 16.020 C 22.770 15.240,22.770 8.760,22.720 7.980 C 22.654 6.956,22.490 6.269,22.140 5.539 C 21.393 3.981,20.006 3.065,18.025 2.820 C 17.354 2.737,6.576 2.739,5.928 2.822 M17.712 4.282 C 19.751 4.503,20.891 5.558,21.177 7.489 C 21.271 8.119,21.271 15.881,21.177 16.511 C 20.889 18.451,19.735 19.512,17.686 19.718 C 17.120 19.775,6.880 19.775,6.314 19.718 C 4.265 19.512,3.111 18.451,2.823 16.511 C 2.729 15.881,2.729 8.119,2.823 7.489 C 3.105 5.586,4.248 4.509,6.220 4.287 C 6.688 4.234,17.229 4.230,17.712 4.282 M6.611 5.280 C 5.530 5.399,4.551 6.102,4.075 7.100 C 3.807 7.660,3.789 7.777,3.770 8.975 C 3.761 9.567,3.765 10.112,3.779 10.186 C 3.808 10.345,4.000 10.577,4.175 10.668 C 4.332 10.749,4.667 10.750,4.821 10.669 C 4.976 10.588,5.144 10.409,5.197 10.267 C 5.223 10.201,5.240 9.808,5.240 9.307 C 5.240 8.841,5.258 8.355,5.279 8.227 C 5.326 7.935,5.474 7.610,5.663 7.379 C 5.828 7.178,6.212 6.906,6.433 6.834 C 6.523 6.805,6.992 6.777,7.640 6.763 C 8.791 6.737,8.823 6.731,9.047 6.494 C 9.181 6.353,9.240 6.201,9.240 6.000 C 9.240 5.799,9.181 5.647,9.047 5.506 C 8.823 5.269,8.780 5.261,7.800 5.254 C 7.305 5.250,6.770 5.262,6.611 5.280 M15.420 5.257 C 15.398 5.266,15.331 5.284,15.271 5.297 C 15.124 5.329,14.881 5.548,14.814 5.708 C 14.703 5.973,14.759 6.289,14.953 6.494 C 15.177 6.731,15.209 6.737,16.360 6.763 C 17.008 6.777,17.477 6.805,17.567 6.834 C 17.788 6.906,18.172 7.178,18.337 7.379 C 18.526 7.610,18.674 7.935,18.721 8.227 C 18.742 8.355,18.760 8.841,18.760 9.307 C 18.760 9.808,18.777 10.201,18.803 10.267 C 18.856 10.409,19.024 10.588,19.179 10.669 C 19.333 10.750,19.668 10.749,19.825 10.668 C 20.000 10.577,20.192 10.345,20.221 10.186 C 20.235 10.112,20.239 9.567,20.230 8.975 C 20.211 7.777,20.193 7.660,19.925 7.100 C 19.521 6.253,18.725 5.594,17.820 5.356 C 17.546 5.284,17.354 5.270,16.480 5.256 C 15.919 5.248,15.442 5.248,15.420 5.257 M11.740 8.266 C 10.415 8.385,9.327 9.085,8.719 10.212 C 8.400 10.803,8.271 11.320,8.271 12.000 C 8.271 12.682,8.400 13.197,8.721 13.792 C 9.078 14.453,9.549 14.923,10.212 15.281 C 10.803 15.600,11.320 15.729,12.000 15.729 C 12.680 15.729,13.197 15.600,13.788 15.281 C 14.451 14.923,14.922 14.453,15.279 13.792 C 15.600 13.197,15.729 12.682,15.729 12.000 C 15.729 11.320,15.600 10.803,15.281 10.212 C 14.832 9.381,14.122 8.779,13.215 8.463 C 12.793 8.316,12.149 8.230,11.740 8.266 M12.578 9.821 C 12.949 9.918,13.274 10.112,13.581 10.419 C 14.041 10.879,14.240 11.356,14.240 12.000 C 14.240 12.644,14.041 13.121,13.581 13.581 C 13.121 14.041,12.644 14.240,12.000 14.240 C 11.356 14.240,10.879 14.041,10.419 13.581 C 9.959 13.121,9.760 12.644,9.760 12.000 C 9.760 11.356,9.959 10.879,10.419 10.419 C 10.719 10.118,11.050 9.919,11.404 9.823 C 11.692 9.746,12.285 9.745,12.578 9.821 M4.340 13.277 C 4.274 13.293,4.182 13.327,4.135 13.352 C 3.993 13.428,3.805 13.671,3.779 13.814 C 3.765 13.888,3.761 14.433,3.770 15.025 C 3.789 16.224,3.808 16.341,4.075 16.900 C 4.482 17.750,5.267 18.401,6.180 18.646 C 6.468 18.723,6.610 18.732,7.600 18.736 C 8.804 18.740,8.816 18.738,9.047 18.494 C 9.309 18.217,9.309 17.783,9.047 17.506 C 8.823 17.269,8.791 17.263,7.640 17.237 C 6.992 17.223,6.523 17.195,6.433 17.166 C 6.212 17.094,5.828 16.822,5.663 16.621 C 5.474 16.390,5.326 16.065,5.279 15.773 C 5.258 15.645,5.240 15.159,5.240 14.693 C 5.240 14.192,5.223 13.799,5.197 13.733 C 5.076 13.411,4.673 13.197,4.340 13.277 M19.420 13.260 C 19.398 13.267,19.331 13.284,19.271 13.297 C 19.124 13.329,18.881 13.548,18.814 13.708 C 18.774 13.803,18.760 14.065,18.760 14.689 C 18.760 15.157,18.742 15.645,18.721 15.773 C 18.674 16.065,18.526 16.390,18.337 16.621 C 18.172 16.822,17.788 17.094,17.567 17.166 C 17.477 17.195,17.008 17.223,16.360 17.237 C 15.209 17.263,15.177 17.269,14.953 17.506 C 14.691 17.783,14.691 18.217,14.953 18.494 C 15.184 18.738,15.196 18.740,16.400 18.736 C 17.390 18.732,17.532 18.723,17.820 18.646 C 18.917 18.352,19.797 17.492,20.126 16.393 C 20.204 16.131,20.215 15.985,20.230 15.025 C 20.239 14.433,20.235 13.888,20.221 13.814 C 20.193 13.662,20.001 13.423,19.844 13.343 C 19.732 13.287,19.485 13.238,19.420 13.260 " stroke="none" fill-rule="evenodd" fill="black"></path></svg>