<svg width="24" height="24" viewBox="0 0 24 24" fill="none" xmlns="http://www.w3.org/2000/svg"><path d="M5.540 2.801 C 3.143 2.972,1.608 4.222,1.121 6.400 C 0.973 7.058,0.953 7.643,0.970 10.840 C 0.986 14.158,0.987 14.166,1.220 14.981 C 1.458 15.808,1.988 16.634,2.598 17.128 C 2.946 17.409,3.765 17.855,4.023 17.903 C 4.187 17.934,4.203 17.955,4.318 18.280 C 4.861 19.814,6.011 20.743,7.820 21.107 C 8.157 21.175,8.522 21.180,13.520 21.180 L 18.860 21.180 19.288 21.090 C 20.320 20.872,21.068 20.491,21.699 19.864 C 22.243 19.324,22.630 18.618,22.840 17.784 C 23.036 17.006,23.047 16.733,23.032 13.220 C 23.018 10.044,23.016 9.972,22.928 9.572 C 22.799 8.981,22.694 8.666,22.497 8.266 C 21.990 7.242,21.177 6.518,20.112 6.140 L 19.803 6.031 19.737 5.825 C 19.616 5.452,19.329 4.899,19.090 4.577 C 18.404 3.654,17.391 3.084,16.033 2.855 C 15.658 2.792,15.172 2.784,10.800 2.777 C 8.149 2.773,5.782 2.784,5.540 2.801 M15.837 4.341 C 17.315 4.581,18.178 5.406,18.451 6.840 C 18.525 7.228,18.532 7.473,18.549 10.080 C 18.572 13.713,18.534 14.222,18.184 14.980 C 17.761 15.895,17.078 16.395,15.932 16.628 C 15.604 16.695,15.228 16.700,10.500 16.700 L 5.420 16.700 4.931 16.594 C 3.388 16.260,2.617 15.287,2.475 13.495 C 2.450 13.169,2.440 11.892,2.450 10.135 C 2.464 7.714,2.476 7.246,2.533 6.931 C 2.765 5.650,3.435 4.846,4.578 4.478 C 5.161 4.290,5.206 4.288,10.480 4.284 C 14.768 4.281,15.512 4.289,15.837 4.341 M9.844 7.182 C 9.123 7.338,8.623 7.608,8.116 8.116 C 7.499 8.733,7.177 9.447,7.132 10.302 C 7.079 11.317,7.404 12.173,8.116 12.884 C 8.823 13.591,9.688 13.923,10.678 13.867 C 11.326 13.831,11.867 13.654,12.367 13.316 C 13.064 12.844,13.533 12.193,13.770 11.366 C 13.896 10.927,13.896 10.073,13.770 9.634 C 13.529 8.793,13.034 8.117,12.316 7.647 C 11.638 7.202,10.626 7.012,9.844 7.182 M4.460 7.635 C 4.270 7.723,4.184 7.812,4.102 8.010 C 4.048 8.137,4.040 8.482,4.041 10.509 C 4.042 12.705,4.047 12.871,4.115 13.020 C 4.203 13.210,4.292 13.296,4.490 13.378 C 4.678 13.457,4.882 13.457,5.070 13.378 C 5.268 13.296,5.357 13.210,5.445 13.020 C 5.513 12.870,5.518 12.705,5.518 10.500 C 5.518 8.295,5.513 8.130,5.445 7.980 C 5.357 7.790,5.268 7.704,5.070 7.622 C 4.875 7.540,4.656 7.545,4.460 7.635 M15.900 7.635 C 15.710 7.723,15.624 7.812,15.542 8.010 C 15.488 8.137,15.480 8.482,15.481 10.509 C 15.482 12.705,15.487 12.871,15.555 13.020 C 15.643 13.210,15.732 13.296,15.930 13.378 C 16.118 13.457,16.322 13.457,16.510 13.378 C 16.708 13.296,16.797 13.210,16.885 13.020 C 16.953 12.870,16.958 12.705,16.958 10.500 C 16.958 8.295,16.953 8.130,16.885 7.980 C 16.797 7.790,16.708 7.704,16.510 7.622 C 16.315 7.540,16.096 7.545,15.900 7.635 M20.340 7.941 C 21.013 8.445,21.400 9.218,21.520 10.300 C 21.551 10.572,21.560 11.677,21.551 13.760 C 21.535 17.049,21.535 17.041,21.318 17.685 C 20.930 18.839,20.038 19.507,18.660 19.676 C 18.197 19.732,8.797 19.735,8.360 19.679 C 7.567 19.576,6.932 19.310,6.479 18.891 C 6.237 18.667,5.960 18.333,5.960 18.265 C 5.960 18.254,8.143 18.237,10.810 18.228 C 15.078 18.213,15.706 18.203,16.040 18.145 C 17.707 17.857,18.866 17.053,19.501 15.743 C 19.693 15.347,19.805 15.013,19.932 14.460 C 20.011 14.116,20.016 13.962,20.030 10.930 C 20.037 9.187,20.057 7.760,20.072 7.760 C 20.087 7.761,20.208 7.842,20.340 7.941 M11.144 8.724 C 11.978 9.034,12.503 9.909,12.369 10.771 C 12.217 11.751,11.294 12.481,10.328 12.383 C 9.834 12.333,9.445 12.132,9.089 11.742 C 8.572 11.176,8.459 10.395,8.791 9.680 C 8.920 9.402,9.387 8.930,9.660 8.800 C 10.115 8.584,10.688 8.555,11.144 8.724 " stroke="none" fill-rule="evenodd" fill="black"></path></svg>