<svg width="24" height="24" viewBox="0 0 24 24" fill="none" xmlns="http://www.w3.org/2000/svg"><path d="M5.928 2.822 C 4.640 2.987,3.639 3.428,2.847 4.177 C 2.092 4.890,1.597 5.858,1.381 7.040 C 1.267 7.667,1.242 8.560,1.242 12.000 C 1.242 15.440,1.267 16.333,1.381 16.960 C 1.597 18.144,2.092 19.110,2.848 19.825 C 3.652 20.585,4.645 21.016,5.975 21.180 C 6.694 21.269,17.306 21.269,18.025 21.180 C 20.006 20.935,21.393 20.019,22.140 18.461 C 22.490 17.731,22.654 17.044,22.720 16.020 C 22.770 15.240,22.770 8.760,22.720 7.980 C 22.654 6.956,22.490 6.269,22.140 5.539 C 21.393 3.981,20.006 3.065,18.025 2.820 C 17.354 2.737,6.576 2.739,5.928 2.822 M17.712 4.282 C 19.751 4.503,20.891 5.558,21.177 7.489 C 21.271 8.119,21.271 15.881,21.177 16.511 C 20.889 18.451,19.735 19.512,17.686 19.718 C 17.120 19.775,6.880 19.775,6.314 19.718 C 4.265 19.512,3.111 18.451,2.823 16.511 C 2.729 15.881,2.729 8.119,2.823 7.489 C 3.105 5.586,4.248 4.509,6.220 4.287 C 6.688 4.234,17.229 4.230,17.712 4.282 M11.740 8.266 C 10.415 8.385,9.327 9.085,8.719 10.212 C 8.400 10.803,8.271 11.320,8.271 12.000 C 8.271 12.682,8.400 13.197,8.721 13.792 C 9.078 14.453,9.549 14.923,10.212 15.281 C 10.803 15.600,11.320 15.729,12.000 15.729 C 12.680 15.729,13.197 15.600,13.788 15.281 C 14.451 14.923,14.922 14.453,15.279 13.792 C 15.600 13.197,15.729 12.682,15.729 12.000 C 15.729 11.320,15.600 10.803,15.281 10.212 C 14.832 9.381,14.122 8.779,13.215 8.463 C 12.793 8.316,12.149 8.230,11.740 8.266 M5.180 8.835 C 4.990 8.923,4.904 9.012,4.822 9.210 C 4.768 9.338,4.760 9.712,4.761 12.009 C 4.762 14.496,4.766 14.670,4.835 14.820 C 4.923 15.010,5.012 15.096,5.210 15.178 C 5.398 15.257,5.602 15.257,5.790 15.178 C 5.988 15.096,6.077 15.010,6.165 14.820 C 6.234 14.670,6.238 14.496,6.238 12.000 C 6.238 9.504,6.234 9.330,6.165 9.180 C 6.077 8.990,5.988 8.904,5.790 8.822 C 5.595 8.740,5.376 8.745,5.180 8.835 M18.180 8.835 C 17.990 8.923,17.904 9.012,17.822 9.210 C 17.768 9.338,17.760 9.712,17.761 12.009 C 17.762 14.496,17.766 14.670,17.835 14.820 C 17.923 15.010,18.012 15.096,18.210 15.178 C 18.398 15.257,18.602 15.257,18.790 15.178 C 18.988 15.096,19.077 15.010,19.165 14.820 C 19.234 14.670,19.238 14.496,19.238 12.000 C 19.238 9.504,19.234 9.330,19.165 9.180 C 19.077 8.990,18.988 8.904,18.790 8.822 C 18.595 8.740,18.376 8.745,18.180 8.835 M12.578 9.821 C 12.949 9.918,13.274 10.112,13.581 10.419 C 14.041 10.879,14.240 11.356,14.240 12.000 C 14.240 12.644,14.041 13.121,13.581 13.581 C 13.121 14.041,12.644 14.240,12.000 14.240 C 11.356 14.240,10.879 14.041,10.419 13.581 C 9.959 13.121,9.760 12.644,9.760 12.000 C 9.760 11.356,9.959 10.879,10.419 10.419 C 10.719 10.118,11.050 9.919,11.404 9.823 C 11.692 9.746,12.285 9.745,12.578 9.821 " stroke="none" fill-rule="evenodd" fill="black"></path></svg>