<svg width="24" height="24" viewBox="0 0 24 24" fill="none" xmlns="http://www.w3.org/2000/svg"><path d="M5.928 2.822 C 4.640 2.987,3.639 3.428,2.847 4.177 C 2.092 4.890,1.597 5.858,1.381 7.040 C 1.267 7.667,1.242 8.560,1.242 12.000 C 1.242 15.440,1.267 16.333,1.381 16.960 C 1.597 18.144,2.092 19.110,2.848 19.825 C 3.652 20.585,4.645 21.016,5.975 21.180 C 6.694 21.269,17.306 21.269,18.025 21.180 C 20.006 20.935,21.393 20.019,22.140 18.461 C 22.490 17.731,22.654 17.044,22.720 16.020 C 22.770 15.240,22.770 8.760,22.720 7.980 C 22.654 6.956,22.490 6.269,22.140 5.539 C 21.393 3.981,20.006 3.065,18.025 2.820 C 17.354 2.737,6.576 2.739,5.928 2.822 M16.240 4.610 C 16.241 5.210,16.314 6.239,16.382 6.603 C 16.711 8.366,17.632 9.287,19.400 9.618 C 19.676 9.670,20.753 9.757,21.150 9.759 L 21.240 9.760 21.240 12.000 L 21.240 14.240 21.150 14.241 C 20.755 14.243,19.676 14.330,19.400 14.381 C 17.632 14.711,16.711 15.632,16.381 17.400 C 16.315 17.754,16.242 18.806,16.241 19.410 L 16.240 19.760 12.000 19.760 L 7.760 19.760 7.759 19.390 C 7.757 18.784,7.688 17.805,7.620 17.420 C 7.310 15.658,6.372 14.714,4.600 14.382 C 4.324 14.330,3.247 14.243,2.850 14.241 L 2.760 14.240 2.760 12.000 L 2.760 9.760 2.850 9.759 C 3.245 9.757,4.324 9.670,4.600 9.619 C 6.364 9.289,7.316 8.332,7.621 6.580 C 7.688 6.193,7.757 5.212,7.759 4.610 L 7.760 4.240 12.000 4.240 L 16.240 4.240 16.240 4.610 M6.240 4.985 C 6.240 6.022,6.095 6.836,5.831 7.280 C 5.711 7.481,5.486 7.709,5.296 7.820 C 4.868 8.071,4.035 8.240,3.225 8.240 L 2.760 8.240 2.760 8.075 C 2.760 7.791,2.881 7.082,2.987 6.744 C 3.287 5.788,3.907 5.055,4.735 4.680 C 5.118 4.506,5.842 4.309,6.190 4.284 C 6.228 4.281,6.240 4.446,6.240 4.985 M18.428 4.403 C 20.003 4.763,20.927 5.799,21.177 7.489 C 21.212 7.721,21.240 7.984,21.240 8.075 L 21.240 8.240 20.775 8.240 C 19.960 8.240,19.132 8.071,18.698 7.817 C 18.046 7.435,17.760 6.567,17.760 4.971 L 17.760 4.279 17.930 4.303 C 18.023 4.317,18.248 4.361,18.428 4.403 M11.740 8.266 C 10.415 8.385,9.327 9.085,8.719 10.212 C 8.400 10.803,8.271 11.320,8.271 12.000 C 8.271 12.682,8.400 13.197,8.721 13.792 C 9.078 14.453,9.549 14.923,10.212 15.281 C 10.803 15.600,11.320 15.729,12.000 15.729 C 12.680 15.729,13.197 15.600,13.788 15.281 C 14.451 14.923,14.922 14.453,15.279 13.792 C 15.600 13.197,15.729 12.682,15.729 12.000 C 15.729 11.320,15.600 10.803,15.281 10.212 C 14.832 9.381,14.122 8.779,13.215 8.463 C 12.793 8.316,12.149 8.230,11.740 8.266 M12.578 9.821 C 12.949 9.918,13.274 10.112,13.581 10.419 C 14.041 10.879,14.240 11.356,14.240 12.000 C 14.240 12.644,14.041 13.121,13.581 13.581 C 13.121 14.041,12.644 14.240,12.000 14.240 C 11.356 14.240,10.879 14.041,10.419 13.581 C 9.959 13.121,9.760 12.644,9.760 12.000 C 9.760 11.356,9.959 10.879,10.419 10.419 C 10.719 10.118,11.050 9.919,11.404 9.823 C 11.692 9.746,12.285 9.745,12.578 9.821 M3.988 15.801 C 4.933 15.919,5.533 16.213,5.817 16.698 C 6.098 17.178,6.240 17.955,6.240 19.016 L 6.240 19.721 6.070 19.697 C 4.180 19.426,3.098 18.364,2.823 16.511 C 2.788 16.279,2.760 16.016,2.760 15.925 L 2.760 15.760 3.211 15.760 C 3.459 15.760,3.809 15.778,3.988 15.801 M21.240 15.925 C 21.240 16.209,21.119 16.918,21.013 17.256 C 20.692 18.282,20.006 19.040,19.077 19.399 C 18.763 19.520,18.268 19.648,17.930 19.697 L 17.760 19.721 17.760 19.029 C 17.760 17.317,18.076 16.473,18.854 16.105 C 19.326 15.881,19.924 15.773,20.730 15.765 L 21.240 15.760 21.240 15.925 " stroke="none" fill-rule="evenodd" fill="black"></path></svg>