<svg width="24" height="24" viewBox="0 0 24 24" fill="none" xmlns="http://www.w3.org/2000/svg"><path d="M6.372 3.283 C 4.607 3.395,3.209 4.075,2.340 5.243 C 1.785 5.988,1.463 6.843,1.316 7.960 C 1.284 8.200,1.264 8.870,1.263 9.780 C 1.260 11.219,1.260 11.220,1.353 11.369 C 1.664 11.870,2.408 11.849,2.664 11.332 C 2.733 11.194,2.742 11.036,2.765 9.600 C 2.789 8.093,2.795 8.000,2.892 7.595 C 3.079 6.813,3.355 6.284,3.820 5.820 C 4.288 5.352,4.812 5.079,5.615 4.887 L 6.060 4.780 12.000 4.780 L 17.940 4.780 18.385 4.887 C 19.188 5.079,19.712 5.352,20.180 5.820 C 20.648 6.288,20.921 6.812,21.113 7.615 L 21.220 8.060 21.220 12.000 L 21.220 15.940 21.113 16.385 C 20.748 17.909,19.923 18.739,18.405 19.110 L 17.980 19.214 14.877 19.237 L 11.774 19.260 11.612 19.367 C 11.372 19.526,11.267 19.721,11.267 20.007 C 11.267 20.203,11.286 20.270,11.383 20.408 C 11.447 20.499,11.572 20.610,11.660 20.656 C 11.816 20.738,11.875 20.740,14.280 20.752 C 16.930 20.766,17.895 20.731,18.562 20.598 C 19.857 20.340,20.936 19.717,21.594 18.845 C 22.026 18.274,22.269 17.794,22.459 17.139 C 22.740 16.171,22.772 15.534,22.747 11.440 C 22.727 8.043,22.722 7.944,22.543 7.180 C 22.246 5.907,21.587 4.900,20.619 4.241 C 19.759 3.655,18.816 3.363,17.526 3.280 C 16.793 3.233,7.110 3.236,6.372 3.283 M11.405 8.805 C 10.790 8.907,10.216 9.217,9.716 9.716 C 9.065 10.368,8.761 11.095,8.761 12.000 C 8.761 12.905,9.065 13.632,9.716 14.284 C 10.368 14.935,11.095 15.239,12.000 15.239 C 12.905 15.239,13.632 14.935,14.284 14.284 C 14.935 13.632,15.239 12.905,15.239 12.000 C 15.239 11.095,14.935 10.368,14.284 9.716 C 13.619 9.052,12.889 8.753,11.960 8.765 C 11.773 8.767,11.523 8.785,11.405 8.805 M18.180 8.835 C 17.990 8.923,17.904 9.012,17.822 9.210 C 17.768 9.338,17.760 9.712,17.761 12.009 C 17.762 14.496,17.766 14.670,17.835 14.820 C 17.923 15.010,18.012 15.096,18.210 15.178 C 18.398 15.257,18.602 15.257,18.790 15.178 C 18.988 15.096,19.077 15.010,19.165 14.820 C 19.234 14.670,19.238 14.496,19.238 12.000 C 19.238 9.504,19.234 9.330,19.165 9.180 C 19.077 8.990,18.988 8.904,18.790 8.822 C 18.595 8.740,18.376 8.745,18.180 8.835 M12.293 10.279 C 12.634 10.335,12.931 10.487,13.202 10.745 C 13.929 11.439,13.929 12.561,13.202 13.255 C 12.511 13.914,11.489 13.914,10.798 13.255 C 10.090 12.580,10.068 11.508,10.745 10.798 C 11.164 10.359,11.696 10.181,12.293 10.279 M3.049 13.559 C 2.838 13.609,2.650 13.765,1.970 14.452 C 1.429 15.000,1.321 15.130,1.281 15.278 C 1.209 15.542,1.259 15.767,1.437 15.989 C 1.678 16.291,2.726 17.301,2.879 17.380 C 3.051 17.468,3.380 17.473,3.541 17.389 C 3.696 17.308,3.864 17.129,3.917 16.987 C 3.983 16.815,3.968 16.553,3.884 16.388 L 3.809 16.240 5.586 16.240 C 7.576 16.240,7.595 16.242,7.701 16.497 C 7.745 16.603,7.760 16.819,7.761 17.369 C 7.762 18.296,7.819 18.455,8.210 18.618 C 8.405 18.700,8.624 18.695,8.820 18.605 C 9.195 18.433,9.240 18.287,9.240 17.250 C 9.240 16.346,9.208 16.130,9.016 15.751 C 8.881 15.486,8.514 15.119,8.249 14.984 C 7.820 14.767,7.740 14.760,5.696 14.760 L 3.809 14.760 3.884 14.612 C 4.021 14.343,3.973 14.004,3.767 13.786 C 3.576 13.584,3.306 13.499,3.049 13.559 M1.720 17.645 C 1.590 17.697,1.410 17.869,1.327 18.020 C 1.244 18.173,1.211 19.359,1.276 19.850 C 1.355 20.450,1.711 20.982,2.240 21.291 C 2.615 21.510,2.730 21.520,4.788 21.520 C 5.829 21.520,6.680 21.534,6.680 21.552 C 6.680 21.570,6.663 21.601,6.642 21.622 C 6.622 21.643,6.588 21.736,6.567 21.829 C 6.475 22.239,6.717 22.630,7.114 22.715 C 7.226 22.739,7.340 22.751,7.369 22.743 C 7.397 22.734,7.473 22.715,7.538 22.700 C 7.686 22.668,9.103 21.283,9.185 21.091 C 9.256 20.926,9.255 20.633,9.184 20.469 C 9.125 20.332,7.765 18.964,7.606 18.882 C 7.466 18.809,7.116 18.819,6.945 18.900 C 6.652 19.039,6.491 19.392,6.567 19.730 C 6.587 19.823,6.622 19.917,6.642 19.938 C 6.663 19.959,6.680 19.991,6.680 20.009 C 6.680 20.027,5.852 20.037,4.841 20.031 L 3.002 20.020 2.891 19.909 L 2.780 19.798 2.759 18.969 C 2.736 18.072,2.722 18.008,2.494 17.793 C 2.431 17.733,2.329 17.666,2.267 17.643 C 2.129 17.590,1.854 17.591,1.720 17.645 " stroke="none" fill-rule="evenodd" fill="black"></path></svg>