<svg width="24" height="24" viewBox="0 0 24 24" fill="none" xmlns="http://www.w3.org/2000/svg"><path d="M6.372 3.283 C 3.795 3.447,2.066 4.793,1.477 7.091 C 1.275 7.880,1.270 7.997,1.251 11.660 L 1.233 15.099 1.061 15.360 C 0.596 16.063,0.355 16.762,0.280 17.619 C 0.164 18.946,0.634 20.277,1.567 21.263 C 3.150 22.937,5.714 23.219,7.653 21.932 C 7.979 21.715,8.486 21.246,8.707 20.956 L 8.856 20.760 12.878 20.760 C 15.109 20.760,17.179 20.742,17.526 20.720 C 18.816 20.637,19.759 20.345,20.619 19.759 C 21.503 19.157,22.135 18.257,22.459 17.139 C 22.740 16.171,22.772 15.534,22.747 11.440 C 22.727 8.043,22.722 7.944,22.543 7.180 C 22.246 5.907,21.587 4.900,20.619 4.241 C 19.759 3.655,18.816 3.363,17.526 3.280 C 16.793 3.233,7.110 3.236,6.372 3.283 M18.405 4.888 C 19.198 5.085,19.719 5.358,20.180 5.820 C 20.648 6.288,20.921 6.812,21.113 7.615 L 21.220 8.060 21.220 12.000 L 21.220 15.940 21.113 16.385 C 20.748 17.909,19.927 18.735,18.405 19.111 L 17.980 19.216 13.790 19.230 C 11.486 19.237,9.600 19.229,9.600 19.212 C 9.600 19.194,9.629 19.045,9.664 18.880 C 9.759 18.432,9.750 17.566,9.644 17.056 C 9.309 15.434,8.189 14.131,6.624 13.543 C 5.504 13.122,3.988 13.196,2.958 13.721 C 2.873 13.764,2.793 13.800,2.782 13.800 C 2.741 13.800,2.759 8.465,2.801 8.129 C 3.045 6.185,4.158 5.057,6.080 4.803 C 6.223 4.784,8.959 4.772,12.160 4.776 L 17.980 4.783 18.405 4.888 M11.405 8.805 C 10.790 8.907,10.216 9.217,9.716 9.716 C 9.065 10.368,8.761 11.095,8.761 12.000 C 8.761 12.905,9.065 13.632,9.716 14.284 C 10.368 14.935,11.095 15.239,12.000 15.239 C 12.905 15.239,13.632 14.935,14.284 14.284 C 14.935 13.632,15.239 12.905,15.239 12.000 C 15.239 11.095,14.935 10.368,14.284 9.716 C 13.619 9.052,12.889 8.753,11.960 8.765 C 11.773 8.767,11.523 8.785,11.405 8.805 M18.180 8.835 C 17.990 8.923,17.904 9.012,17.822 9.210 C 17.768 9.338,17.760 9.712,17.761 12.009 C 17.762 14.496,17.766 14.670,17.835 14.820 C 17.923 15.010,18.012 15.096,18.210 15.178 C 18.398 15.257,18.602 15.257,18.790 15.178 C 18.988 15.096,19.077 15.010,19.165 14.820 C 19.234 14.670,19.238 14.496,19.238 12.000 C 19.238 9.504,19.234 9.330,19.165 9.180 C 19.077 8.990,18.988 8.904,18.790 8.822 C 18.595 8.740,18.376 8.745,18.180 8.835 M12.293 10.279 C 12.634 10.335,12.931 10.487,13.202 10.745 C 13.929 11.439,13.929 12.561,13.202 13.255 C 12.511 13.914,11.489 13.914,10.798 13.255 C 10.090 12.580,10.068 11.508,10.745 10.798 C 11.164 10.359,11.696 10.181,12.293 10.279 M5.980 14.894 C 6.508 15.068,6.854 15.286,7.284 15.716 C 7.937 16.368,8.196 16.956,8.229 17.860 C 8.245 18.300,8.235 18.432,8.163 18.720 C 7.922 19.685,7.310 20.465,6.465 20.881 C 5.928 21.146,5.544 21.240,5.000 21.240 C 4.456 21.240,4.072 21.146,3.535 20.881 C 2.690 20.465,2.078 19.685,1.837 18.720 C 1.765 18.432,1.755 18.300,1.771 17.860 C 1.804 16.956,2.063 16.368,2.716 15.716 C 3.433 14.999,4.066 14.750,5.100 14.775 C 5.572 14.787,5.710 14.806,5.980 14.894 M6.258 16.336 C 6.191 16.365,5.757 16.741,5.294 17.172 L 4.452 17.954 4.196 17.695 C 3.841 17.336,3.720 17.267,3.440 17.267 C 2.941 17.267,2.622 17.681,2.730 18.189 C 2.767 18.362,2.827 18.437,3.355 18.974 C 3.677 19.300,4.011 19.604,4.097 19.648 C 4.311 19.758,4.661 19.735,4.853 19.598 C 5.055 19.452,7.110 17.533,7.184 17.419 C 7.287 17.263,7.327 17.015,7.279 16.837 C 7.227 16.644,7.026 16.407,6.852 16.334 C 6.689 16.266,6.417 16.267,6.258 16.336 " stroke="none" fill-rule="evenodd" fill="black"></path></svg>