<svg width="24" height="24" viewBox="0 0 24 24" fill="none" xmlns="http://www.w3.org/2000/svg"><path d="M11.320 1.281 C 9.259 1.398,7.250 2.142,5.530 3.424 C 4.912 3.884,3.884 4.912,3.424 5.530 C 1.875 7.608,1.136 10.050,1.281 12.610 C 1.402 14.759,2.118 16.717,3.424 18.470 C 3.880 19.083,4.909 20.111,5.530 20.575 C 7.606 22.126,10.070 22.870,12.627 22.717 C 14.790 22.588,16.724 21.879,18.470 20.575 C 19.087 20.115,20.115 19.087,20.575 18.470 C 21.876 16.728,22.588 14.788,22.717 12.635 C 22.763 11.874,22.732 11.692,22.522 11.482 C 22.175 11.135,21.618 11.203,21.357 11.624 C 21.281 11.748,21.265 11.850,21.238 12.398 C 21.168 13.791,20.854 14.983,20.233 16.209 C 19.798 17.066,19.343 17.695,18.622 18.434 C 17.805 19.273,17.063 19.814,16.060 20.303 C 14.747 20.944,13.463 21.240,12.000 21.240 C 10.537 21.240,9.253 20.944,7.940 20.303 C 6.937 19.814,6.195 19.273,5.378 18.434 C 4.611 17.648,4.170 17.024,3.698 16.060 C 3.057 14.752,2.760 13.465,2.760 12.000 C 2.760 10.538,3.060 9.239,3.696 7.940 C 4.188 6.934,4.729 6.194,5.566 5.378 C 6.351 4.612,6.973 4.172,7.940 3.697 C 9.096 3.129,10.552 2.760,11.640 2.760 C 12.118 2.760,12.341 2.699,12.520 2.520 C 12.918 2.122,12.730 1.423,12.189 1.286 C 12.087 1.261,11.963 1.243,11.912 1.246 C 11.862 1.250,11.595 1.265,11.320 1.281 M17.815 1.278 C 17.331 1.393,17.098 2.004,17.383 2.408 C 17.609 2.727,17.660 2.738,18.997 2.753 L 20.173 2.766 18.271 4.673 C 17.225 5.722,16.346 6.625,16.318 6.680 C 16.290 6.735,16.267 6.881,16.267 7.004 C 16.267 7.498,16.681 7.816,17.189 7.711 C 17.372 7.673,17.457 7.595,19.307 5.750 L 21.235 3.827 21.247 5.024 C 21.260 6.195,21.262 6.223,21.353 6.369 C 21.710 6.943,22.576 6.812,22.716 6.162 C 22.745 6.027,22.760 5.255,22.760 3.917 C 22.760 2.167,22.751 1.856,22.698 1.729 C 22.616 1.532,22.494 1.405,22.300 1.316 C 22.151 1.247,22.001 1.242,20.040 1.245 C 18.885 1.247,17.884 1.262,17.815 1.278 M11.720 6.805 C 11.592 6.856,11.409 7.029,11.336 7.169 C 11.305 7.229,11.268 7.386,11.254 7.519 L 11.229 7.760 10.924 7.760 C 10.340 7.761,9.892 7.951,9.456 8.380 C 8.921 8.907,8.695 9.577,8.791 10.351 C 8.843 10.774,8.924 11.027,9.105 11.327 C 9.364 11.755,9.742 11.996,10.660 12.316 L 11.220 12.511 11.231 13.641 L 11.241 14.770 11.077 14.744 C 10.595 14.667,10.240 14.235,10.240 13.725 C 10.240 13.517,10.100 13.265,9.912 13.134 C 9.774 13.039,9.706 13.020,9.500 13.020 C 8.896 13.020,8.643 13.503,8.817 14.324 C 9.041 15.378,10.046 16.235,11.064 16.239 L 11.229 16.240 11.254 16.481 C 11.283 16.756,11.344 16.894,11.506 17.047 C 11.783 17.309,12.217 17.309,12.494 17.047 C 12.656 16.894,12.717 16.756,12.746 16.481 L 12.771 16.240 13.020 16.240 C 13.629 16.240,14.138 16.031,14.557 15.610 C 14.884 15.281,15.056 14.987,15.161 14.578 C 15.310 13.995,15.233 13.276,14.971 12.788 C 14.813 12.496,14.467 12.165,14.140 11.994 C 13.986 11.914,13.613 11.763,13.310 11.659 L 12.760 11.469 12.760 10.355 L 12.760 9.240 12.881 9.240 C 13.300 9.240,13.759 9.736,13.760 10.191 C 13.760 10.390,13.846 10.619,13.972 10.753 C 14.294 11.098,14.904 11.027,15.144 10.617 C 15.222 10.483,15.240 10.398,15.239 10.156 C 15.238 9.495,15.009 8.966,14.502 8.456 C 14.046 7.997,13.523 7.760,12.964 7.760 L 12.771 7.760 12.746 7.519 C 12.696 7.036,12.415 6.756,11.987 6.763 C 11.895 6.764,11.775 6.783,11.720 6.805 M11.240 10.080 C 11.240 10.542,11.224 10.920,11.205 10.920 C 11.155 10.920,10.654 10.729,10.516 10.658 C 10.202 10.495,10.165 9.819,10.453 9.491 C 10.612 9.310,10.766 9.244,11.030 9.242 L 11.240 9.240 11.240 10.080 M13.509 13.343 C 13.683 13.455,13.738 13.593,13.739 13.917 C 13.740 14.267,13.674 14.416,13.429 14.614 C 13.303 14.716,13.233 14.739,13.019 14.753 L 12.760 14.769 12.760 13.907 L 12.760 13.046 13.090 13.165 C 13.272 13.231,13.460 13.311,13.509 13.343 " stroke="none" fill-rule="evenodd" fill="black"></path></svg>