<svg width="24" height="24" viewBox="0 0 24 24" fill="none" xmlns="http://www.w3.org/2000/svg"><path d="M5.500 1.283 C 2.910 1.438,1.748 2.356,1.382 4.540 C 1.270 5.207,1.241 6.246,1.241 9.600 C 1.241 13.086,1.269 14.016,1.398 14.769 C 1.716 16.626,2.694 17.553,4.668 17.865 C 5.040 17.923,5.527 17.935,8.170 17.949 L 11.240 17.965 11.240 19.601 L 11.240 21.236 9.270 21.248 C 7.110 21.261,7.193 21.252,6.953 21.506 C 6.759 21.711,6.703 22.027,6.814 22.292 C 6.879 22.447,7.119 22.667,7.271 22.709 C 7.414 22.749,16.586 22.749,16.729 22.709 C 16.881 22.667,17.121 22.447,17.186 22.292 C 17.297 22.027,17.241 21.711,17.047 21.506 C 16.807 21.252,16.890 21.261,14.730 21.248 L 12.760 21.236 12.760 19.601 L 12.760 17.965 15.830 17.949 C 18.473 17.935,18.960 17.923,19.332 17.865 C 21.041 17.595,21.978 16.882,22.417 15.520 C 22.492 15.289,22.582 14.915,22.617 14.689 C 22.702 14.152,22.772 12.876,22.753 12.219 C 22.740 11.743,22.729 11.683,22.633 11.519 C 22.495 11.284,22.277 11.160,22.000 11.160 C 21.563 11.160,21.295 11.446,21.252 11.957 L 21.228 12.240 11.994 12.240 L 2.760 12.240 2.760 8.898 C 2.760 6.831,2.776 5.409,2.802 5.168 C 2.956 3.749,3.378 3.172,4.443 2.923 C 4.991 2.795,5.487 2.760,6.756 2.760 C 8.151 2.760,8.300 2.740,8.520 2.520 C 8.918 2.122,8.730 1.423,8.189 1.286 C 7.982 1.234,6.351 1.232,5.500 1.283 M12.521 1.363 C 11.935 1.516,11.300 1.988,10.940 2.538 C 10.855 2.669,10.730 2.930,10.662 3.118 L 10.540 3.460 10.540 5.760 C 10.540 8.291,10.538 8.265,10.790 8.800 C 10.976 9.193,11.422 9.650,11.800 9.833 C 12.363 10.105,12.253 10.096,15.299 10.110 C 17.703 10.122,18.099 10.115,18.379 10.060 C 19.163 9.903,19.807 9.407,20.176 8.676 L 20.309 8.411 20.543 8.565 C 20.857 8.771,21.121 8.855,21.460 8.856 C 22.120 8.857,22.613 8.386,22.719 7.653 C 22.771 7.295,22.770 4.101,22.718 3.741 C 22.558 2.631,21.520 2.183,20.554 2.807 C 20.420 2.893,20.308 2.959,20.303 2.952 C 20.299 2.945,20.234 2.814,20.158 2.660 C 19.980 2.299,19.488 1.792,19.116 1.586 C 18.971 1.506,18.711 1.404,18.540 1.360 C 18.242 1.284,18.099 1.280,15.524 1.282 C 12.974 1.284,12.803 1.289,12.521 1.363 M18.342 2.867 C 18.431 2.914,18.578 3.034,18.670 3.134 C 18.964 3.452,18.965 3.467,18.952 5.786 C 18.940 7.795,18.939 7.822,18.852 7.985 C 18.710 8.250,18.571 8.389,18.328 8.508 L 18.100 8.620 15.460 8.620 C 12.555 8.620,12.594 8.623,12.320 8.375 C 12.017 8.102,12.020 8.124,12.020 5.780 L 12.020 3.700 12.118 3.500 C 12.251 3.229,12.551 2.944,12.810 2.844 C 13.014 2.765,13.090 2.763,15.600 2.771 C 18.161 2.780,18.181 2.781,18.342 2.867 M21.231 6.452 L 21.220 7.230 20.830 6.953 L 20.440 6.676 20.440 5.686 L 20.440 4.695 20.830 4.426 L 21.220 4.158 21.231 4.916 C 21.237 5.333,21.237 6.025,21.231 6.452 M21.196 14.050 C 21.028 15.787,20.475 16.284,18.540 16.440 C 17.862 16.495,6.133 16.492,5.438 16.438 C 3.551 16.289,2.986 15.784,2.810 14.090 L 2.776 13.760 12.000 13.760 L 21.224 13.760 21.196 14.050 " stroke="none" fill-rule="evenodd" fill="black"></path></svg>