<svg width="24" height="24" viewBox="0 0 24 24" fill="none" xmlns="http://www.w3.org/2000/svg"><path d="M5.040 1.826 C 4.528 1.880,4.188 1.936,3.867 2.019 C 2.673 2.330,1.952 2.989,1.576 4.116 C 1.280 5.004,1.241 5.664,1.241 9.740 C 1.241 13.816,1.280 14.476,1.576 15.364 C 1.951 16.489,2.673 17.151,3.862 17.459 C 4.557 17.640,4.724 17.651,7.030 17.669 L 9.240 17.686 9.240 19.201 L 9.240 20.716 7.867 20.728 L 6.494 20.740 6.332 20.847 C 5.984 21.078,5.894 21.594,6.146 21.910 C 6.380 22.203,6.325 22.196,8.360 22.202 C 9.467 22.205,10.220 22.191,10.282 22.167 C 10.457 22.100,10.632 21.925,10.699 21.749 C 10.755 21.599,10.761 21.302,10.751 19.134 L 10.740 16.687 10.618 16.536 C 10.550 16.453,10.446 16.348,10.385 16.303 C 10.277 16.222,10.220 16.220,7.647 16.196 C 5.936 16.180,4.923 16.155,4.742 16.125 C 3.813 15.968,3.347 15.699,3.099 15.174 C 2.959 14.878,2.845 14.413,2.814 14.012 L 2.788 13.680 6.501 13.680 L 10.213 13.680 10.377 13.584 C 10.787 13.344,10.858 12.734,10.513 12.412 C 10.278 12.192,10.427 12.200,6.441 12.200 L 2.760 12.200 2.760 9.058 C 2.760 5.847,2.776 5.410,2.919 4.833 C 3.173 3.803,3.709 3.444,5.180 3.319 C 5.541 3.288,7.573 3.280,11.840 3.291 C 17.237 3.305,18.020 3.314,18.310 3.370 C 19.359 3.572,19.754 3.884,19.994 4.701 C 20.110 5.094,20.158 5.473,20.194 6.287 C 20.224 6.972,20.229 7.000,20.337 7.156 C 20.618 7.562,21.211 7.584,21.533 7.201 C 21.678 7.029,21.695 6.887,21.668 6.063 C 21.610 4.225,21.161 3.135,20.202 2.503 C 19.756 2.209,19.327 2.049,18.600 1.907 C 18.188 1.826,18.062 1.825,11.680 1.818 C 8.105 1.815,5.117 1.818,5.040 1.826 M14.960 9.108 C 12.957 9.201,12.043 9.976,11.840 11.752 C 11.809 12.019,11.800 13.316,11.810 15.900 C 11.823 19.537,11.827 19.672,11.907 20.020 C 12.185 21.225,12.822 21.847,14.040 22.105 C 14.344 22.170,14.664 22.179,17.040 22.191 C 18.823 22.200,19.828 22.190,20.088 22.160 C 21.405 22.009,22.172 21.454,22.518 20.400 C 22.721 19.783,22.731 19.605,22.750 16.182 C 22.772 12.065,22.732 11.377,22.432 10.667 C 22.012 9.674,21.204 9.218,19.693 9.120 C 19.164 9.086,15.624 9.076,14.960 9.108 M19.980 10.641 C 20.841 10.764,21.079 11.000,21.197 11.853 C 21.256 12.281,21.256 19.037,21.197 19.464 C 21.146 19.830,21.031 20.157,20.898 20.315 C 20.762 20.476,20.464 20.592,20.010 20.661 C 19.441 20.747,15.077 20.746,14.507 20.660 C 14.096 20.598,13.801 20.493,13.654 20.354 C 13.516 20.225,13.403 19.914,13.339 19.490 C 13.252 18.910,13.253 12.405,13.340 11.824 C 13.463 11.007,13.706 10.760,14.501 10.645 C 14.840 10.595,19.636 10.592,19.980 10.641 M17.053 17.282 C 16.832 17.325,16.687 17.405,16.534 17.567 C 16.290 17.827,16.208 18.114,16.281 18.463 C 16.408 19.078,17.087 19.413,17.662 19.145 C 18.179 18.904,18.388 18.312,18.135 17.804 C 17.935 17.403,17.504 17.195,17.053 17.282 " stroke="none" fill-rule="evenodd" fill="black"></path></svg>