<svg width="24" height="24" viewBox="0 0 24 24" fill="none" xmlns="http://www.w3.org/2000/svg"><path d="M8.900 1.269 C 8.457 1.330,7.758 1.613,6.980 2.047 C 4.201 3.597,2.234 6.202,1.536 9.256 C 1.292 10.322,1.206 11.733,1.319 12.820 C 1.792 17.369,5.199 21.253,9.724 22.400 C 11.577 22.871,13.691 22.849,15.471 22.341 C 16.542 22.036,17.424 21.661,18.280 21.147 C 19.141 20.631,19.702 20.187,20.461 19.424 C 21.398 18.481,21.940 17.705,22.061 17.130 C 22.139 16.766,22.134 16.615,22.039 16.306 C 21.877 15.783,21.431 15.448,20.765 15.351 C 20.483 15.310,20.363 15.316,19.772 15.396 C 19.402 15.447,18.830 15.497,18.500 15.509 C 15.590 15.609,12.771 14.125,11.096 11.612 C 10.165 10.214,9.658 8.401,9.735 6.752 C 9.782 5.762,9.960 4.955,10.362 3.914 C 10.605 3.285,10.648 3.103,10.649 2.700 C 10.650 1.949,10.194 1.399,9.474 1.282 C 9.218 1.240,9.121 1.238,8.900 1.269 M9.160 2.821 C 9.160 2.855,9.072 3.111,8.964 3.391 C 8.477 4.657,8.296 5.507,8.253 6.740 C 8.169 9.102,8.944 11.391,10.466 13.278 C 12.091 15.293,14.552 16.644,17.145 16.945 C 17.886 17.030,19.149 17.003,19.957 16.883 C 20.326 16.829,20.548 16.812,20.572 16.836 C 20.726 16.990,19.269 18.619,18.396 19.270 C 16.948 20.350,15.308 20.996,13.500 21.199 C 12.970 21.258,11.832 21.249,11.292 21.180 C 8.443 20.817,5.921 19.249,4.313 16.840 C 3.693 15.910,3.158 14.626,2.942 13.550 C 2.520 11.438,2.829 9.222,3.806 7.360 C 4.816 5.435,6.409 3.920,8.380 3.013 C 8.914 2.767,8.913 2.767,9.050 2.763 C 9.123 2.761,9.160 2.780,9.160 2.821 " stroke="none" fill-rule="evenodd" fill="black"></path></svg>