<svg width="24" height="24" viewBox="0 0 24 24" fill="none" xmlns="http://www.w3.org/2000/svg"><path d="M4.660 9.278 C 3.789 9.383,3.031 9.901,2.580 10.700 C 2.162 11.441,2.162 12.558,2.580 13.300 C 2.843 13.766,3.233 14.156,3.700 14.420 C 4.441 14.838,5.558 14.838,6.300 14.420 C 6.964 14.045,7.452 13.435,7.643 12.740 C 7.823 12.082,7.733 11.255,7.420 10.700 C 6.852 9.693,5.784 9.143,4.660 9.278 M11.660 9.278 C 10.789 9.383,10.031 9.901,9.580 10.700 C 9.162 11.441,9.162 12.558,9.580 13.300 C 10.097 14.217,10.965 14.731,12.000 14.731 C 13.035 14.731,13.901 14.219,14.420 13.300 C 14.838 12.559,14.838 11.441,14.420 10.700 C 13.852 9.693,12.784 9.143,11.660 9.278 M18.660 9.278 C 17.789 9.383,17.031 9.901,16.580 10.700 C 16.162 11.441,16.162 12.558,16.580 13.300 C 16.843 13.766,17.233 14.156,17.700 14.420 C 18.441 14.838,19.558 14.838,20.300 14.420 C 20.964 14.045,21.452 13.435,21.643 12.740 C 21.823 12.082,21.733 11.255,21.420 10.700 C 20.852 9.693,19.784 9.143,18.660 9.278 M5.454 10.841 C 5.744 10.950,6.050 11.256,6.159 11.546 C 6.335 12.017,6.227 12.521,5.874 12.874 C 5.093 13.655,3.760 13.104,3.760 12.000 C 3.760 11.658,3.880 11.371,4.126 11.126 C 4.479 10.773,4.983 10.665,5.454 10.841 M12.454 10.841 C 12.744 10.950,13.050 11.256,13.159 11.546 C 13.335 12.017,13.227 12.521,12.874 12.874 C 12.093 13.655,10.760 13.104,10.760 12.000 C 10.760 11.658,10.880 11.371,11.126 11.126 C 11.479 10.773,11.983 10.665,12.454 10.841 M19.454 10.841 C 19.744 10.950,20.050 11.256,20.159 11.546 C 20.335 12.017,20.227 12.521,19.874 12.874 C 19.093 13.655,17.760 13.104,17.760 12.000 C 17.760 11.658,17.880 11.371,18.126 11.126 C 18.479 10.773,18.983 10.665,19.454 10.841 " stroke="none" fill-rule="evenodd" fill="black"></path></svg>