<svg width="24" height="24" viewBox="0 0 24 24" fill="none" xmlns="http://www.w3.org/2000/svg"><path d="M8.080 1.282 C 4.008 1.495,1.895 3.296,1.383 6.991 C 1.270 7.803,1.242 8.816,1.242 12.000 C 1.242 16.504,1.302 17.273,1.760 18.650 C 2.532 20.963,4.206 22.226,7.027 22.622 C 7.786 22.728,8.902 22.759,12.000 22.759 C 15.098 22.759,16.214 22.728,16.973 22.622 C 19.443 22.275,20.996 21.288,21.897 19.490 C 22.379 18.530,22.638 17.369,22.720 15.807 C 22.771 14.838,22.771 9.162,22.720 8.193 C 22.657 6.998,22.521 6.191,22.242 5.356 C 21.632 3.531,20.469 2.367,18.650 1.760 C 17.788 1.473,17.023 1.344,15.806 1.280 C 14.952 1.235,8.952 1.237,8.080 1.282 M16.800 2.854 C 19.586 3.316,20.714 4.454,21.148 7.240 C 21.214 7.661,21.220 8.064,21.220 12.000 C 21.220 15.936,21.214 16.339,21.148 16.760 C 20.712 19.558,19.558 20.712,16.760 21.148 C 16.339 21.214,15.936 21.220,12.000 21.220 C 8.064 21.220,7.661 21.214,7.240 21.148 C 4.450 20.713,3.283 19.551,2.854 16.780 C 2.785 16.335,2.780 15.989,2.780 12.000 C 2.780 7.247,2.776 7.337,3.044 6.288 C 3.557 4.282,4.722 3.274,6.960 2.900 C 7.690 2.777,8.048 2.769,12.200 2.777 C 15.963 2.784,16.422 2.791,16.800 2.854 M7.689 11.059 C 7.454 11.132,7.263 11.287,7.131 11.511 C 7.036 11.672,7.020 11.744,7.020 12.000 C 7.020 12.257,7.036 12.327,7.133 12.492 C 7.625 13.329,8.898 13.046,8.991 12.078 C 9.033 11.640,8.729 11.185,8.310 11.061 C 8.065 10.988,7.917 10.987,7.689 11.059 M11.689 11.056 C 11.452 11.134,11.262 11.289,11.131 11.511 C 11.036 11.672,11.020 11.744,11.020 12.000 C 11.020 12.257,11.036 12.327,11.133 12.492 C 11.356 12.871,11.789 13.060,12.217 12.964 C 12.929 12.805,13.232 11.975,12.789 11.394 C 12.549 11.080,12.069 10.932,11.689 11.056 M15.689 11.056 C 15.452 11.134,15.262 11.289,15.131 11.511 C 15.036 11.672,15.020 11.744,15.020 12.000 C 15.020 12.255,15.036 12.328,15.129 12.486 C 15.353 12.867,15.792 13.059,16.217 12.964 C 16.929 12.805,17.232 11.975,16.789 11.394 C 16.549 11.080,16.069 10.932,15.689 11.056 " stroke="none" fill-rule="evenodd" fill="black"></path></svg>