<svg width="24" height="24" viewBox="0 0 24 24" fill="none" xmlns="http://www.w3.org/2000/svg"><path d="M11.609 4.284 C 11.256 4.325,10.832 4.468,10.527 4.647 C 10.236 4.818,9.658 5.396,9.487 5.687 C 8.978 6.554,8.978 7.766,9.487 8.633 C 9.658 8.924,10.236 9.502,10.527 9.673 C 11.394 10.182,12.606 10.182,13.473 9.673 C 13.764 9.502,14.342 8.924,14.513 8.633 C 15.022 7.766,15.022 6.539,14.513 5.692 C 14.223 5.211,13.669 4.715,13.180 4.498 C 12.738 4.303,12.137 4.221,11.609 4.284 M12.508 5.846 C 12.676 5.909,12.807 6.000,12.984 6.176 C 13.285 6.478,13.400 6.750,13.400 7.160 C 13.400 7.570,13.285 7.842,12.984 8.144 C 12.682 8.445,12.410 8.560,12.000 8.560 C 11.590 8.560,11.318 8.445,11.016 8.144 C 10.715 7.842,10.600 7.570,10.600 7.160 C 10.600 6.750,10.715 6.478,11.016 6.176 C 11.320 5.873,11.573 5.765,11.988 5.762 C 12.190 5.761,12.347 5.786,12.508 5.846 M6.427 13.961 C 5.454 14.078,4.618 14.681,4.182 15.580 C 3.953 16.053,3.901 16.286,3.901 16.840 C 3.901 17.373,3.952 17.617,4.158 18.060 C 4.518 18.835,5.227 19.434,6.034 19.645 C 6.394 19.739,7.058 19.758,7.410 19.683 C 8.280 19.499,9.045 18.877,9.440 18.032 C 9.762 17.344,9.762 16.336,9.440 15.648 C 8.889 14.469,7.706 13.808,6.427 13.961 M16.824 13.962 C 15.883 14.073,15.039 14.686,14.597 15.580 C 14.402 15.973,14.321 16.343,14.321 16.840 C 14.321 17.337,14.402 17.707,14.597 18.100 C 15.156 19.231,16.297 19.859,17.536 19.718 C 18.141 19.650,18.602 19.455,19.051 19.081 C 19.495 18.709,19.802 18.256,19.986 17.700 C 20.077 17.427,20.093 17.307,20.096 16.880 C 20.101 16.285,20.054 16.068,19.818 15.580 C 19.269 14.446,18.097 13.813,16.824 13.962 M7.367 15.554 C 7.664 15.697,7.903 15.935,8.049 16.231 C 8.166 16.470,8.180 16.535,8.180 16.840 C 8.180 17.145,8.166 17.210,8.049 17.449 C 7.903 17.744,7.666 17.981,7.366 18.128 C 7.212 18.204,7.116 18.220,6.800 18.220 C 6.474 18.220,6.389 18.205,6.200 18.116 C 5.911 17.980,5.655 17.718,5.511 17.411 C 5.350 17.069,5.344 16.629,5.496 16.297 C 5.669 15.919,5.903 15.689,6.272 15.533 C 6.574 15.406,7.081 15.415,7.367 15.554 M17.800 15.565 C 18.873 16.067,18.873 17.603,17.800 18.115 C 17.610 18.206,17.528 18.220,17.200 18.220 C 16.884 18.220,16.788 18.204,16.634 18.128 C 15.973 17.803,15.638 17.033,15.878 16.394 C 16.038 15.968,16.374 15.628,16.760 15.501 C 17.042 15.408,17.529 15.438,17.800 15.565 " stroke="none" fill-rule="evenodd" fill="black"></path></svg>