<svg width="24" height="24" viewBox="0 0 24 24" fill="none" xmlns="http://www.w3.org/2000/svg"><path d="M11.560 1.266 C 7.679 1.446,4.232 3.654,2.455 7.099 C 1.644 8.673,1.274 10.199,1.272 11.980 C 1.271 13.123,1.395 14.009,1.702 15.050 C 2.716 18.488,5.522 21.294,8.950 22.297 C 10.643 22.792,12.526 22.871,14.196 22.516 C 17.361 21.844,20.059 19.782,21.545 16.901 C 22.360 15.319,22.728 13.798,22.728 12.000 C 22.728 10.863,22.607 10.010,22.297 8.950 C 21.294 5.522,18.478 2.706,15.050 1.703 C 13.940 1.378,12.644 1.216,11.560 1.266 M13.148 2.822 C 15.227 3.094,17.028 3.984,18.522 5.478 C 19.361 6.317,19.965 7.182,20.431 8.214 C 20.982 9.433,21.240 10.640,21.240 12.000 C 21.240 13.360,20.982 14.567,20.431 15.786 C 19.965 16.818,19.361 17.683,18.522 18.522 C 17.683 19.361,16.818 19.965,15.786 20.431 C 14.567 20.982,13.360 21.240,12.000 21.240 C 10.640 21.240,9.433 20.982,8.214 20.431 C 7.182 19.965,6.317 19.361,5.478 18.522 C 3.695 16.739,2.760 14.495,2.760 12.000 C 2.760 9.505,3.695 7.261,5.478 5.478 C 6.960 3.996,8.756 3.104,10.821 2.822 C 11.380 2.746,12.569 2.746,13.148 2.822 M7.689 11.059 C 7.454 11.132,7.263 11.287,7.131 11.511 C 7.036 11.672,7.020 11.744,7.020 12.000 C 7.020 12.257,7.036 12.327,7.133 12.492 C 7.625 13.329,8.898 13.046,8.991 12.078 C 9.033 11.640,8.729 11.185,8.310 11.061 C 8.065 10.988,7.917 10.987,7.689 11.059 M11.689 11.056 C 11.452 11.134,11.262 11.289,11.131 11.511 C 11.036 11.672,11.020 11.744,11.020 12.000 C 11.020 12.257,11.036 12.327,11.133 12.492 C 11.356 12.871,11.789 13.060,12.217 12.964 C 12.929 12.805,13.232 11.975,12.789 11.394 C 12.549 11.080,12.069 10.932,11.689 11.056 M15.689 11.056 C 15.452 11.134,15.262 11.289,15.131 11.511 C 15.036 11.672,15.020 11.744,15.020 12.000 C 15.020 12.255,15.036 12.328,15.129 12.486 C 15.353 12.867,15.792 13.059,16.217 12.964 C 16.929 12.805,17.232 11.975,16.789 11.394 C 16.549 11.080,16.069 10.932,15.689 11.056 " stroke="none" fill-rule="evenodd" fill="black"></path></svg>