<svg width="24" height="24" viewBox="0 0 24 24" fill="none" xmlns="http://www.w3.org/2000/svg"><path d="M11.360 1.282 C 8.892 1.455,6.553 2.832,5.138 4.944 C 4.419 6.017,3.946 7.328,3.802 8.648 C 3.745 9.170,3.745 14.830,3.802 15.352 C 3.909 16.331,4.176 17.256,4.600 18.111 C 6.107 21.152,9.206 22.944,12.564 22.718 C 15.106 22.547,17.430 21.198,18.856 19.064 C 19.354 18.320,19.766 17.404,19.975 16.579 C 20.219 15.618,20.214 15.691,20.231 12.280 C 20.241 10.108,20.231 9.001,20.200 8.689 C 19.950 6.223,18.631 4.033,16.557 2.638 C 15.058 1.630,13.222 1.151,11.360 1.282 M11.240 4.100 C 11.240 5.149,11.230 5.400,11.187 5.400 C 11.081 5.400,10.631 5.707,10.401 5.936 C 10.127 6.208,9.908 6.597,9.821 6.964 C 9.735 7.330,9.734 9.666,9.820 10.031 C 9.994 10.767,10.596 11.416,11.317 11.644 C 11.514 11.707,11.686 11.728,12.000 11.728 C 12.501 11.728,12.824 11.640,13.183 11.407 C 13.489 11.209,13.851 10.816,14.002 10.517 C 14.217 10.089,14.239 9.908,14.239 8.500 C 14.239 7.085,14.218 6.912,13.995 6.470 C 13.823 6.128,13.342 5.652,13.012 5.497 L 12.764 5.380 12.762 4.090 C 12.760 3.049,12.770 2.800,12.813 2.800 C 13.040 2.800,13.841 2.996,14.320 3.168 C 15.208 3.488,15.940 3.952,16.675 4.659 C 17.768 5.711,18.450 7.033,18.687 8.560 C 18.763 9.050,18.763 14.950,18.687 15.440 C 18.450 16.967,17.768 18.289,16.675 19.341 C 16.251 19.749,15.942 19.994,15.550 20.234 C 14.450 20.906,13.274 21.240,12.000 21.240 C 10.726 21.240,9.550 20.906,8.450 20.234 C 8.058 19.994,7.749 19.749,7.325 19.341 C 6.232 18.289,5.550 16.967,5.313 15.440 C 5.237 14.950,5.237 9.050,5.313 8.560 C 5.660 6.323,7.021 4.450,9.030 3.446 C 9.640 3.141,10.674 2.828,11.150 2.804 L 11.240 2.800 11.240 4.100 M12.388 6.865 C 12.447 6.909,12.550 7.013,12.618 7.096 L 12.740 7.247 12.740 8.500 L 12.740 9.753 12.618 9.904 C 12.402 10.170,12.305 10.220,12.004 10.220 C 11.694 10.220,11.526 10.133,11.358 9.885 C 11.260 9.741,11.260 9.734,11.248 8.593 C 11.240 7.885,11.251 7.386,11.277 7.291 C 11.324 7.117,11.520 6.896,11.700 6.814 C 11.871 6.736,12.253 6.764,12.388 6.865 " stroke="none" fill-rule="evenodd" fill="black"></path></svg>