<svg width="24" height="24" viewBox="0 0 24 24" fill="none" xmlns="http://www.w3.org/2000/svg"><path d="M8.080 1.282 C 4.008 1.495,1.895 3.296,1.383 6.991 C 1.270 7.803,1.242 8.816,1.242 12.000 C 1.242 15.184,1.270 16.197,1.383 17.009 C 1.767 19.784,3.048 21.470,5.356 22.242 C 6.191 22.521,6.998 22.657,8.193 22.720 C 9.228 22.774,11.902 22.772,12.162 22.716 C 12.828 22.573,12.943 21.639,12.332 21.336 C 12.190 21.265,12.028 21.258,9.900 21.236 C 7.425 21.209,7.267 21.197,6.312 20.960 C 4.223 20.440,3.236 19.246,2.854 16.780 C 2.785 16.335,2.780 15.989,2.780 12.000 C 2.780 8.011,2.785 7.665,2.854 7.220 C 3.282 4.456,4.456 3.282,7.220 2.854 C 7.665 2.785,8.011 2.780,12.000 2.780 C 16.745 2.780,16.622 2.774,17.688 3.040 C 19.520 3.496,20.504 4.481,20.960 6.312 C 21.197 7.267,21.209 7.423,21.236 9.920 L 21.260 12.220 21.353 12.369 C 21.710 12.943,22.576 12.812,22.716 12.162 C 22.772 11.902,22.774 9.228,22.720 8.193 C 22.657 6.998,22.521 6.191,22.242 5.356 C 21.632 3.531,20.469 2.367,18.650 1.760 C 17.788 1.473,17.023 1.344,15.806 1.280 C 14.952 1.235,8.952 1.237,8.080 1.282 M13.968 12.342 C 13.448 12.482,12.994 12.800,12.684 13.243 C 12.379 13.676,12.299 13.952,12.303 14.560 L 12.305 15.060 13.273 18.160 C 13.878 20.099,14.295 21.369,14.386 21.551 C 14.636 22.049,15.100 22.453,15.645 22.646 C 15.854 22.720,15.986 22.737,16.380 22.738 C 16.947 22.740,17.214 22.663,17.649 22.374 C 18.185 22.018,18.363 21.715,18.797 20.428 C 18.972 19.905,19.154 19.424,19.201 19.358 C 19.318 19.194,19.411 19.152,20.406 18.817 C 20.886 18.656,21.374 18.476,21.492 18.419 C 21.975 18.182,22.394 17.724,22.597 17.208 C 22.707 16.929,22.757 16.450,22.713 16.090 C 22.624 15.343,22.173 14.706,21.506 14.381 C 21.260 14.262,15.769 12.527,15.054 12.343 C 14.754 12.266,14.253 12.265,13.968 12.342 M17.460 14.641 C 19.022 15.125,20.436 15.567,20.603 15.622 C 21.065 15.774,21.241 15.993,21.239 16.413 C 21.239 16.646,21.126 16.883,20.958 17.008 C 20.901 17.050,20.392 17.243,19.827 17.437 C 18.723 17.815,18.501 17.928,18.158 18.286 C 17.884 18.572,17.755 18.845,17.396 19.907 C 17.206 20.469,17.032 20.915,16.971 20.995 C 16.690 21.364,16.068 21.362,15.785 20.990 C 15.651 20.815,13.760 14.755,13.760 14.503 C 13.760 14.157,14.155 13.760,14.499 13.760 C 14.566 13.760,15.898 14.156,17.460 14.641 " stroke="none" fill-rule="evenodd" fill="black"></path></svg>