<svg width="24" height="24" viewBox="0 0 24 24" fill="none" xmlns="http://www.w3.org/2000/svg"><path d="M11.320 1.281 C 7.041 1.525,3.252 4.409,1.843 8.497 C 1.180 10.418,1.082 12.560,1.564 14.550 C 2.505 18.428,5.572 21.495,9.450 22.436 C 11.106 22.837,12.894 22.837,14.550 22.436 C 18.428 21.495,21.495 18.428,22.436 14.550 C 22.837 12.894,22.837 11.106,22.436 9.450 C 21.425 5.282,17.985 2.095,13.742 1.398 C 13.334 1.331,12.074 1.229,11.880 1.247 C 11.847 1.250,11.595 1.265,11.320 1.281 M13.146 2.822 C 14.201 2.960,15.125 3.237,16.060 3.696 C 18.877 5.079,20.768 7.722,21.178 10.854 C 21.301 11.786,21.244 13.026,21.034 13.998 C 20.745 15.343,20.003 16.855,19.121 17.900 C 18.247 18.935,17.240 19.726,16.060 20.304 C 14.761 20.940,13.462 21.240,12.000 21.240 C 10.538 21.240,9.236 20.940,7.940 20.304 C 5.123 18.921,3.232 16.278,2.822 13.146 C 2.699 12.214,2.756 10.974,2.966 10.002 C 3.177 9.020,3.703 7.775,4.268 6.920 C 5.750 4.677,8.131 3.188,10.820 2.823 C 11.380 2.746,12.569 2.746,13.146 2.822 M8.774 7.079 C 8.430 7.169,8.258 7.254,7.940 7.489 C 7.289 7.969,6.916 8.869,7.039 9.663 C 7.101 10.060,9.056 16.355,9.231 16.720 C 9.491 17.260,10.046 17.721,10.660 17.905 C 11.019 18.013,11.696 18.002,12.040 17.883 C 12.675 17.663,13.170 17.217,13.439 16.620 C 13.499 16.488,13.688 15.957,13.860 15.440 C 14.276 14.187,14.187 14.276,15.440 13.860 C 15.957 13.688,16.488 13.499,16.620 13.439 C 17.702 12.952,18.234 11.742,17.877 10.580 C 17.704 10.018,17.270 9.505,16.742 9.240 C 16.514 9.126,15.477 8.787,13.200 8.082 C 11.429 7.535,9.873 7.067,9.743 7.043 C 9.405 6.982,9.103 6.993,8.774 7.079 M12.608 9.461 C 14.353 10.000,15.855 10.469,15.947 10.503 C 16.185 10.590,16.421 10.860,16.472 11.104 C 16.552 11.482,16.387 11.885,16.090 12.034 C 16.007 12.075,15.483 12.266,14.925 12.457 C 13.196 13.048,13.047 13.198,12.458 14.923 C 12.015 16.220,11.995 16.261,11.720 16.399 C 11.231 16.645,10.698 16.433,10.506 15.916 C 10.470 15.819,10.007 14.345,9.478 12.640 C 8.421 9.236,8.427 9.265,8.619 8.937 C 8.776 8.671,9.056 8.491,9.328 8.483 C 9.388 8.481,10.864 8.921,12.608 9.461 " stroke="none" fill-rule="evenodd" fill="black"></path></svg>