<svg width="24" height="24" viewBox="0 0 24 24" fill="none" xmlns="http://www.w3.org/2000/svg"><path d="M11.320 1.281 C 9.259 1.398,7.250 2.142,5.530 3.424 C 4.912 3.884,3.884 4.912,3.424 5.530 C 1.875 7.608,1.136 10.050,1.281 12.610 C 1.402 14.759,2.118 16.717,3.424 18.470 C 3.880 19.083,4.909 20.111,5.530 20.575 C 6.967 21.649,8.621 22.350,10.345 22.617 C 10.946 22.710,11.940 22.762,12.174 22.713 C 12.723 22.597,12.924 21.884,12.522 21.482 C 12.339 21.299,12.129 21.240,11.664 21.240 C 10.552 21.240,9.123 20.881,7.940 20.303 C 6.937 19.814,6.195 19.273,5.378 18.434 C 4.611 17.648,4.170 17.024,3.698 16.060 C 3.057 14.752,2.760 13.465,2.760 12.000 C 2.760 10.538,3.060 9.239,3.696 7.940 C 4.188 6.934,4.729 6.194,5.566 5.378 C 6.351 4.612,6.973 4.172,7.940 3.697 C 9.235 3.060,10.537 2.760,12.000 2.760 C 14.056 2.760,15.970 3.405,17.619 4.653 C 18.028 4.962,18.852 5.765,19.187 6.180 C 20.439 7.729,21.137 9.574,21.238 11.602 C 21.265 12.150,21.281 12.252,21.357 12.376 C 21.704 12.937,22.579 12.807,22.713 12.174 C 22.762 11.940,22.710 10.946,22.617 10.345 C 22.350 8.621,21.650 6.969,20.575 5.530 C 20.115 4.913,19.087 3.885,18.470 3.425 C 17.047 2.362,15.454 1.679,13.742 1.398 C 13.334 1.331,12.074 1.229,11.880 1.247 C 11.847 1.250,11.595 1.265,11.320 1.281 M13.968 12.342 C 13.448 12.482,12.994 12.800,12.684 13.243 C 12.379 13.676,12.299 13.952,12.303 14.560 L 12.305 15.060 13.273 18.160 C 13.878 20.099,14.295 21.369,14.386 21.551 C 14.636 22.049,15.100 22.453,15.645 22.646 C 15.854 22.720,15.986 22.737,16.380 22.738 C 16.947 22.740,17.214 22.663,17.649 22.374 C 18.185 22.018,18.363 21.715,18.797 20.428 C 18.972 19.905,19.154 19.424,19.201 19.358 C 19.318 19.194,19.411 19.152,20.406 18.817 C 20.886 18.656,21.374 18.476,21.492 18.419 C 21.975 18.182,22.394 17.724,22.597 17.208 C 22.707 16.929,22.757 16.450,22.713 16.090 C 22.624 15.343,22.173 14.706,21.506 14.381 C 21.260 14.262,15.769 12.527,15.054 12.343 C 14.754 12.266,14.253 12.265,13.968 12.342 M17.460 14.641 C 19.022 15.125,20.436 15.567,20.603 15.622 C 21.065 15.774,21.241 15.993,21.239 16.413 C 21.239 16.646,21.126 16.883,20.958 17.008 C 20.901 17.050,20.392 17.243,19.827 17.437 C 18.723 17.815,18.501 17.928,18.158 18.286 C 17.884 18.572,17.755 18.845,17.396 19.907 C 17.206 20.469,17.032 20.915,16.971 20.995 C 16.690 21.364,16.068 21.362,15.785 20.990 C 15.651 20.815,13.760 14.755,13.760 14.503 C 13.760 14.157,14.155 13.760,14.499 13.760 C 14.566 13.760,15.898 14.156,17.460 14.641 " stroke="none" fill-rule="evenodd" fill="black"></path></svg>