<svg width="24" height="24" viewBox="0 0 24 24" fill="none" xmlns="http://www.w3.org/2000/svg"><path d="M7.760 1.282 C 4.596 1.456,2.710 2.611,1.818 4.919 C 1.528 5.671,1.347 6.652,1.281 7.840 C 1.230 8.748,1.230 14.252,1.281 15.160 C 1.327 15.979,1.431 16.732,1.580 17.320 C 2.130 19.491,3.509 20.870,5.680 21.420 C 6.847 21.716,7.735 21.764,11.860 21.757 L 15.100 21.752 15.379 21.940 C 16.275 22.544,17.336 22.815,18.432 22.719 C 20.684 22.523,22.519 20.690,22.718 18.440 C 22.815 17.344,22.564 16.348,21.950 15.388 L 21.750 15.077 21.756 11.828 C 21.762 8.434,21.735 7.525,21.601 6.607 C 21.243 4.154,20.099 2.598,18.082 1.819 C 17.329 1.528,16.349 1.347,15.160 1.281 C 14.361 1.236,8.577 1.237,7.760 1.282 M16.080 2.854 C 18.674 3.287,19.716 4.329,20.145 6.920 C 20.206 7.289,20.217 7.734,20.230 10.566 L 20.244 13.793 19.892 13.642 C 18.084 12.870,16.024 13.262,14.643 14.643 C 13.255 16.032,12.865 18.101,13.652 19.912 L 13.796 20.244 10.568 20.230 C 7.734 20.217,7.289 20.206,6.920 20.145 C 4.317 19.714,3.260 18.647,2.852 16.040 C 2.786 15.619,2.780 15.231,2.780 11.500 C 2.780 7.769,2.786 7.381,2.852 6.960 C 3.141 5.110,3.765 4.064,4.945 3.450 C 5.608 3.105,6.362 2.914,7.560 2.786 C 7.637 2.778,9.491 2.774,11.680 2.778 C 15.265 2.784,15.702 2.791,16.080 2.854 M11.900 4.424 C 10.851 4.688,8.692 5.306,8.487 5.401 C 8.178 5.545,7.776 5.934,7.642 6.220 C 7.443 6.646,7.440 6.687,7.438 8.854 C 7.437 10.744,7.433 10.886,7.370 10.862 C 7.202 10.797,6.702 10.764,6.426 10.799 C 5.159 10.960,4.309 12.177,4.578 13.445 C 4.726 14.145,5.270 14.765,5.980 15.042 C 6.186 15.122,6.291 15.135,6.720 15.135 C 7.149 15.135,7.254 15.122,7.460 15.042 C 7.975 14.841,8.448 14.420,8.684 13.951 C 8.906 13.513,8.919 13.366,8.919 11.291 L 8.920 9.402 9.130 9.343 C 9.245 9.310,10.069 9.084,10.960 8.840 C 11.851 8.596,12.612 8.388,12.650 8.376 C 12.715 8.356,12.720 8.410,12.720 9.131 L 12.720 9.906 12.470 9.854 C 11.411 9.632,10.365 10.218,9.958 11.260 C 9.878 11.466,9.865 11.571,9.865 12.000 C 9.865 12.429,9.878 12.534,9.958 12.740 C 10.094 13.089,10.273 13.349,10.557 13.611 C 11.726 14.691,13.613 14.198,14.121 12.680 C 14.208 12.421,14.208 12.406,14.204 9.187 C 14.200 5.629,14.202 5.660,13.954 5.194 C 13.795 4.896,13.545 4.666,13.211 4.510 C 12.979 4.401,12.897 4.385,12.543 4.375 C 12.281 4.368,12.056 4.385,11.900 4.424 M12.645 5.906 C 12.684 5.953,12.700 6.095,12.700 6.395 L 12.700 6.817 10.840 7.327 C 9.817 7.607,8.966 7.837,8.950 7.838 C 8.934 7.839,8.920 7.642,8.920 7.401 C 8.920 6.736,8.795 6.814,10.740 6.281 C 11.620 6.041,12.396 5.843,12.465 5.842 C 12.535 5.841,12.615 5.869,12.645 5.906 M12.360 11.382 C 12.586 11.496,12.720 11.726,12.720 12.000 C 12.720 12.697,11.838 12.952,11.439 12.371 C 11.300 12.168,11.300 11.833,11.438 11.631 C 11.648 11.324,12.037 11.219,12.360 11.382 M7.111 12.386 C 7.308 12.533,7.400 12.711,7.400 12.948 C 7.400 13.202,7.336 13.342,7.143 13.512 C 6.984 13.652,6.791 13.702,6.571 13.661 C 6.375 13.624,6.103 13.354,6.046 13.139 C 5.959 12.815,6.135 12.451,6.440 12.323 C 6.599 12.256,6.984 12.293,7.111 12.386 M18.632 14.823 C 19.896 15.083,20.921 16.088,21.181 17.324 C 21.266 17.729,21.256 18.350,21.159 18.740 C 20.922 19.686,20.302 20.469,19.465 20.881 C 18.934 21.143,18.543 21.240,18.016 21.240 C 17.085 21.240,16.391 20.950,15.718 20.281 C 14.668 19.237,14.457 17.613,15.207 16.341 C 15.422 15.977,15.977 15.422,16.341 15.207 C 16.655 15.022,17.093 14.857,17.410 14.804 C 17.753 14.747,18.302 14.756,18.632 14.823 M16.620 16.266 C 16.320 16.425,16.171 16.705,16.215 17.026 C 16.245 17.244,16.356 17.404,16.712 17.737 L 16.965 17.974 16.646 18.297 C 16.279 18.670,16.200 18.805,16.200 19.059 C 16.200 19.499,16.502 19.800,16.945 19.800 C 17.194 19.800,17.332 19.719,17.701 19.356 L 18.022 19.040 18.321 19.343 C 18.679 19.706,18.793 19.771,19.066 19.771 C 19.486 19.771,19.800 19.459,19.800 19.043 C 19.800 18.771,19.728 18.641,19.375 18.278 L 19.082 17.976 19.365 17.698 C 19.780 17.291,19.878 17.025,19.738 16.689 C 19.611 16.385,19.378 16.229,19.054 16.229 C 18.793 16.229,18.588 16.344,18.263 16.675 L 18.026 16.917 17.710 16.615 C 17.536 16.449,17.333 16.288,17.258 16.257 C 17.080 16.182,16.771 16.187,16.620 16.266 " stroke="none" fill-rule="evenodd" fill="black"></path></svg>