<svg width="24" height="24" viewBox="0 0 24 24" fill="none" xmlns="http://www.w3.org/2000/svg"><path d="M10.800 1.365 C 9.102 1.538,7.342 2.187,5.914 3.168 C 3.292 4.968,1.641 7.782,1.321 10.994 C 1.296 11.245,1.280 12.856,1.280 15.079 C 1.280 19.141,1.277 19.094,1.538 19.822 C 2.009 21.141,3.120 22.165,4.488 22.543 C 5.191 22.738,6.209 22.717,6.875 22.494 C 8.271 22.027,9.336 20.931,9.737 19.546 C 9.879 19.056,9.920 18.468,9.919 16.920 C 9.917 15.455,9.891 15.094,9.755 14.684 C 9.569 14.126,9.026 13.522,8.463 13.247 C 8.055 13.048,7.738 12.989,7.200 13.011 C 6.629 13.034,6.312 13.130,5.908 13.400 C 5.426 13.722,5.050 14.196,4.883 14.691 C 4.742 15.106,4.714 15.566,4.727 17.180 C 4.741 18.824,4.740 18.816,4.967 19.028 C 5.089 19.143,5.325 19.240,5.480 19.240 C 5.635 19.240,5.871 19.143,5.993 19.028 C 6.222 18.815,6.218 18.843,6.240 16.960 L 6.260 15.220 6.370 15.033 C 6.819 14.269,7.913 14.305,8.300 15.096 L 8.404 15.310 8.392 17.145 L 8.380 18.980 8.269 19.280 C 8.104 19.727,7.937 19.982,7.560 20.363 C 7.276 20.650,7.157 20.738,6.840 20.894 C 6.347 21.138,5.985 21.214,5.460 21.187 C 4.698 21.148,4.186 20.914,3.617 20.344 C 3.219 19.945,3.064 19.705,2.893 19.220 L 2.780 18.900 2.780 15.040 C 2.780 10.786,2.777 10.843,3.039 9.772 C 3.839 6.495,6.425 3.894,9.693 3.081 C 11.037 2.746,12.481 2.713,13.827 2.984 C 17.882 3.802,20.912 7.236,21.239 11.383 C 21.272 11.798,21.283 13.019,21.273 15.380 L 21.260 18.780 21.151 19.100 C 20.745 20.297,19.672 21.081,18.444 21.079 C 17.961 21.079,17.632 21.002,17.200 20.791 C 16.728 20.559,16.174 20.010,15.933 19.534 C 15.646 18.969,15.635 18.864,15.648 16.860 C 15.661 14.900,15.648 14.994,15.947 14.696 C 16.371 14.272,17.069 14.272,17.493 14.696 C 17.791 14.994,17.778 14.898,17.800 16.900 C 17.822 18.849,17.818 18.814,18.047 19.028 C 18.169 19.143,18.405 19.240,18.560 19.240 C 18.715 19.240,18.951 19.143,19.073 19.028 C 19.301 18.816,19.299 18.828,19.312 17.140 C 19.326 15.490,19.295 14.973,19.162 14.587 C 18.916 13.872,18.249 13.225,17.520 12.996 C 17.187 12.891,16.616 12.855,16.265 12.916 C 15.287 13.086,14.501 13.802,14.218 14.780 C 14.160 14.983,14.146 15.253,14.131 16.534 C 14.110 18.259,14.147 18.889,14.300 19.417 C 15.036 21.957,17.782 23.261,20.180 22.209 C 21.263 21.734,22.145 20.770,22.533 19.638 C 22.758 18.983,22.760 18.936,22.760 15.105 C 22.760 13.036,22.743 11.398,22.719 11.140 C 22.483 8.576,21.404 6.279,19.582 4.459 C 17.833 2.711,15.677 1.668,13.219 1.381 C 12.657 1.315,11.375 1.307,10.800 1.365 M10.479 6.419 C 10.145 6.526,10.015 6.684,9.543 7.550 L 9.108 8.350 8.684 8.368 C 8.227 8.388,8.097 8.431,7.913 8.626 C 7.651 8.903,7.651 9.337,7.913 9.614 C 8.125 9.838,8.209 9.860,8.840 9.860 C 9.512 9.860,9.724 9.807,10.031 9.562 C 10.216 9.414,10.305 9.284,10.631 8.683 L 10.793 8.385 11.535 9.870 C 11.943 10.686,12.336 11.421,12.408 11.503 C 12.796 11.944,13.574 11.948,13.942 11.510 C 14.000 11.442,14.215 11.049,14.421 10.638 L 14.795 9.890 15.268 9.872 C 15.878 9.849,16.066 9.754,16.218 9.391 C 16.364 9.042,16.211 8.640,15.860 8.446 C 15.762 8.392,15.619 8.380,15.079 8.380 L 14.418 8.380 14.153 8.510 C 13.814 8.677,13.649 8.863,13.400 9.359 C 13.290 9.580,13.191 9.760,13.180 9.760 C 13.170 9.760,12.836 9.111,12.438 8.317 C 11.690 6.824,11.562 6.624,11.266 6.473 C 11.060 6.368,10.712 6.344,10.479 6.419 " stroke="none" fill-rule="evenodd" fill="black"></path></svg>