<svg width="24" height="24" viewBox="0 0 24 24" fill="none" xmlns="http://www.w3.org/2000/svg"><path d="M1.815 2.278 C 1.331 2.393,1.098 3.004,1.383 3.408 C 1.448 3.499,1.572 3.610,1.660 3.656 L 1.820 3.740 11.880 3.751 C 19.099 3.758,22.000 3.749,22.154 3.717 C 22.902 3.562,22.929 2.473,22.189 2.286 C 21.978 2.233,2.036 2.225,1.815 2.278 M20.013 7.283 C 19.690 7.333,15.127 8.581,14.833 8.700 C 14.168 8.970,13.623 9.551,13.389 10.239 C 13.300 10.499,13.300 10.511,13.289 13.870 C 13.283 15.723,13.268 17.240,13.257 17.240 C 13.246 17.240,13.164 17.203,13.075 17.158 C 12.585 16.907,11.681 16.835,11.066 16.996 C 10.118 17.245,9.272 18.085,9.017 19.030 C 8.919 19.393,8.900 20.004,8.974 20.400 C 9.169 21.437,10.042 22.375,11.063 22.643 C 11.502 22.758,12.178 22.758,12.617 22.643 C 13.395 22.439,14.080 21.866,14.462 21.100 C 14.762 20.499,14.760 20.526,14.760 17.136 C 14.760 15.499,14.769 14.160,14.780 14.160 C 14.801 14.160,21.040 12.458,21.168 12.417 C 21.236 12.396,21.240 12.480,21.240 14.095 L 21.240 15.796 21.030 15.700 C 20.357 15.392,19.464 15.369,18.748 15.640 C 18.021 15.914,17.292 16.679,17.044 17.426 C 16.870 17.949,16.861 18.680,17.022 19.234 C 17.236 19.970,17.841 20.666,18.574 21.018 C 19.305 21.370,20.332 21.371,21.059 21.022 C 21.833 20.649,22.418 19.955,22.650 19.132 C 22.739 18.820,22.739 18.818,22.751 14.400 C 22.760 11.486,22.749 9.818,22.721 9.505 C 22.677 9.014,22.552 8.550,22.390 8.280 C 22.126 7.839,21.711 7.516,21.211 7.360 C 20.910 7.267,20.351 7.231,20.013 7.283 M1.815 8.278 C 1.331 8.393,1.098 9.004,1.383 9.408 C 1.448 9.499,1.572 9.610,1.660 9.656 C 1.819 9.740,1.843 9.740,6.380 9.751 C 9.605 9.758,11.002 9.749,11.153 9.717 C 11.902 9.562,11.929 8.473,11.189 8.286 C 10.979 8.234,2.034 8.226,1.815 8.278 M20.951 8.864 C 21.004 8.898,21.086 9.011,21.134 9.113 C 21.213 9.284,21.220 9.366,21.220 10.079 L 21.220 10.858 18.120 11.708 C 16.415 12.175,14.962 12.569,14.890 12.583 L 14.760 12.609 14.760 11.751 C 14.760 10.606,14.828 10.389,15.265 10.152 C 15.486 10.032,20.036 8.773,20.323 8.753 C 20.555 8.736,20.831 8.785,20.951 8.864 M1.815 14.278 C 1.331 14.393,1.098 15.004,1.383 15.408 C 1.448 15.499,1.572 15.610,1.660 15.656 C 1.818 15.739,1.865 15.740,4.878 15.751 C 7.020 15.759,8.000 15.749,8.151 15.718 C 8.902 15.562,8.931 14.473,8.189 14.286 C 7.979 14.234,2.033 14.226,1.815 14.278 M20.350 17.048 C 20.630 17.152,20.966 17.463,21.108 17.752 C 21.207 17.953,21.220 18.025,21.220 18.360 C 21.220 18.689,21.205 18.771,21.113 18.969 C 20.980 19.252,20.690 19.540,20.400 19.677 C 20.214 19.764,20.124 19.780,19.820 19.780 C 19.384 19.780,19.128 19.678,18.827 19.385 C 18.555 19.121,18.425 18.822,18.407 18.420 C 18.389 18.002,18.488 17.725,18.765 17.422 C 19.181 16.967,19.759 16.831,20.350 17.048 M12.440 18.525 C 12.701 18.649,12.991 18.930,13.116 19.181 C 13.304 19.557,13.303 20.085,13.113 20.465 C 12.991 20.710,12.699 20.992,12.440 21.115 C 12.251 21.205,12.167 21.220,11.840 21.220 C 11.513 21.220,11.429 21.205,11.240 21.115 C 11.119 21.058,10.938 20.927,10.837 20.825 C 10.109 20.087,10.352 18.897,11.312 18.494 C 11.630 18.360,12.120 18.374,12.440 18.525 M1.815 20.278 C 1.331 20.393,1.098 21.004,1.383 21.408 C 1.448 21.499,1.572 21.610,1.660 21.656 C 1.815 21.738,1.880 21.740,3.875 21.752 C 6.208 21.765,6.281 21.759,6.519 21.521 C 6.918 21.122,6.731 20.423,6.189 20.286 C 5.980 20.234,2.031 20.226,1.815 20.278 " stroke="none" fill-rule="evenodd" fill="black"></path></svg>