<svg width="24" height="24" viewBox="0 0 24 24" fill="none" xmlns="http://www.w3.org/2000/svg"><path d="M8.080 1.282 C 4.008 1.495,1.895 3.296,1.383 6.991 C 1.270 7.803,1.242 8.816,1.242 12.000 C 1.242 16.504,1.302 17.273,1.760 18.650 C 2.532 20.963,4.206 22.226,7.027 22.622 C 7.786 22.728,8.902 22.759,12.000 22.759 C 15.098 22.759,16.214 22.728,16.973 22.622 C 19.443 22.275,20.996 21.288,21.897 19.490 C 22.379 18.530,22.638 17.369,22.720 15.807 C 22.771 14.838,22.771 9.162,22.720 8.193 C 22.657 6.998,22.521 6.191,22.242 5.356 C 21.632 3.531,20.469 2.367,18.650 1.760 C 17.788 1.473,17.023 1.344,15.806 1.280 C 14.952 1.235,8.952 1.237,8.080 1.282 M16.800 2.854 C 19.586 3.316,20.714 4.454,21.148 7.240 C 21.214 7.661,21.220 8.064,21.220 12.000 C 21.220 15.936,21.214 16.339,21.148 16.760 C 20.712 19.558,19.558 20.712,16.760 21.148 C 16.339 21.214,15.936 21.220,12.000 21.220 C 8.064 21.220,7.661 21.214,7.240 21.148 C 4.450 20.713,3.283 19.551,2.854 16.780 C 2.785 16.335,2.780 15.989,2.780 12.000 C 2.780 7.247,2.776 7.337,3.044 6.288 C 3.557 4.282,4.722 3.274,6.960 2.900 C 7.690 2.777,8.048 2.769,12.200 2.777 C 15.963 2.784,16.422 2.791,16.800 2.854 M14.380 6.285 C 14.131 6.313,11.006 7.143,10.568 7.297 C 10.080 7.469,9.586 7.952,9.400 8.438 C 9.261 8.802,9.243 9.127,9.241 11.293 L 9.240 13.365 9.150 13.337 C 8.924 13.264,8.754 13.242,8.418 13.241 C 7.745 13.239,7.277 13.434,6.795 13.915 C 6.314 14.397,6.120 14.863,6.120 15.540 C 6.120 16.218,6.315 16.686,6.795 17.161 C 7.288 17.648,7.747 17.840,8.420 17.840 C 9.094 17.840,9.553 17.648,10.044 17.161 C 10.266 16.940,10.387 16.780,10.495 16.559 C 10.741 16.058,10.757 15.884,10.759 13.612 L 10.760 11.603 10.930 11.558 C 11.484 11.410,14.909 10.475,14.950 10.460 C 14.989 10.446,15.000 10.646,15.000 11.375 L 15.000 12.308 14.790 12.251 C 14.330 12.125,13.565 12.193,13.169 12.395 C 12.906 12.530,12.536 12.831,12.368 13.049 C 12.026 13.494,11.880 13.926,11.880 14.493 C 11.880 15.156,12.076 15.634,12.540 16.103 C 12.876 16.442,13.165 16.614,13.582 16.721 C 14.159 16.868,14.828 16.788,15.314 16.514 C 15.614 16.344,16.069 15.878,16.227 15.580 C 16.495 15.072,16.487 15.190,16.484 11.390 C 16.480 7.666,16.479 7.631,16.260 7.200 C 16.103 6.889,15.831 6.621,15.514 6.462 C 15.270 6.340,15.162 6.312,14.760 6.265 C 14.705 6.259,14.534 6.268,14.380 6.285 M14.904 7.844 C 14.968 7.915,14.982 8.005,14.994 8.414 L 15.007 8.900 12.974 9.452 C 11.855 9.756,10.900 10.015,10.850 10.027 C 10.760 10.049,10.760 10.048,10.760 9.547 C 10.760 8.986,10.791 8.877,10.980 8.760 C 11.154 8.652,14.414 7.765,14.644 7.762 C 14.782 7.761,14.847 7.781,14.904 7.844 M14.564 13.773 C 15.065 14.038,15.145 14.711,14.720 15.095 C 14.397 15.387,13.963 15.387,13.640 15.095 C 13.082 14.591,13.430 13.680,14.180 13.680 C 14.320 13.680,14.445 13.710,14.564 13.773 M8.711 14.782 C 9.271 15.016,9.409 15.721,8.975 16.128 C 8.559 16.518,7.919 16.386,7.676 15.860 C 7.380 15.222,8.063 14.511,8.711 14.782 " stroke="none" fill-rule="evenodd" fill="black"></path></svg>