<svg width="24" height="24" viewBox="0 0 24 24" fill="none" xmlns="http://www.w3.org/2000/svg"><path d="M13.260 1.281 C 12.819 1.369,12.311 1.647,12.013 1.963 C 11.612 2.387,11.427 2.744,11.297 3.344 C 11.235 3.634,11.230 4.102,11.238 9.090 C 11.243 12.347,11.232 14.520,11.210 14.520 C 11.190 14.520,11.130 14.473,11.077 14.416 C 10.924 14.252,10.252 13.828,9.889 13.665 C 9.020 13.277,7.931 13.165,6.968 13.363 C 6.617 13.435,6.089 13.628,5.765 13.803 C 4.560 14.452,3.731 15.502,3.368 16.840 C 3.274 17.187,3.265 17.287,3.265 18.000 C 3.265 18.713,3.274 18.813,3.368 19.160 C 3.731 20.498,4.560 21.548,5.765 22.197 C 6.531 22.610,7.470 22.794,8.400 22.714 C 10.390 22.544,12.120 21.063,12.573 19.140 C 12.712 18.553,12.720 18.209,12.720 13.126 L 12.720 8.070 12.810 8.134 C 13.171 8.391,13.514 8.523,15.900 9.318 C 18.713 10.255,18.865 10.292,19.488 10.201 C 20.547 10.047,21.317 9.362,21.622 8.300 C 21.723 7.952,21.753 6.148,21.666 5.689 C 21.521 4.919,20.997 4.027,20.386 3.512 C 19.886 3.091,19.710 3.017,17.147 2.163 C 15.820 1.721,14.610 1.332,14.457 1.300 C 14.163 1.238,13.526 1.227,13.260 1.281 M16.440 3.499 C 17.683 3.910,18.827 4.308,18.983 4.382 C 19.465 4.611,19.914 5.128,20.130 5.703 C 20.213 5.923,20.219 6.006,20.220 6.880 C 20.220 7.674,20.209 7.851,20.150 8.021 C 19.992 8.472,19.613 8.732,19.118 8.727 C 18.863 8.725,18.616 8.651,16.469 7.938 C 15.067 7.472,13.999 7.096,13.854 7.016 C 13.360 6.744,12.860 6.035,12.756 5.460 C 12.730 5.318,12.718 4.887,12.727 4.400 C 12.741 3.661,12.751 3.561,12.830 3.388 C 13.051 2.902,13.359 2.711,13.880 2.736 C 14.142 2.748,14.469 2.846,16.440 3.499 M8.900 14.879 C 9.907 15.199,10.702 15.963,11.054 16.950 C 11.177 17.291,11.180 17.317,11.180 18.000 C 11.180 18.683,11.177 18.709,11.054 19.050 C 10.702 20.037,9.904 20.804,8.900 21.120 C 8.516 21.241,7.782 21.273,7.333 21.187 C 6.712 21.070,6.250 20.829,5.755 20.367 C 5.277 19.919,4.955 19.381,4.796 18.760 C 4.721 18.467,4.721 17.533,4.796 17.240 C 4.955 16.619,5.277 16.081,5.755 15.633 C 6.219 15.200,6.674 14.952,7.248 14.821 C 7.636 14.732,8.538 14.764,8.900 14.879 " stroke="none" fill-rule="evenodd" fill="black"></path></svg>