<svg width="24" height="24" viewBox="0 0 24 24" fill="none" xmlns="http://www.w3.org/2000/svg"><path d="M9.180 1.280 C 8.333 1.395,7.593 2.039,7.342 2.880 C 7.302 3.013,7.267 3.325,7.252 3.666 L 7.228 4.232 6.884 4.258 C 6.041 4.324,5.388 4.650,4.881 5.260 C 4.443 5.788,4.289 6.252,4.252 7.153 L 4.227 7.765 3.924 7.919 C 2.492 8.641,1.623 9.945,1.336 11.801 C 1.253 12.339,1.209 16.370,1.275 17.420 C 1.372 18.969,1.670 19.872,2.406 20.845 C 3.063 21.715,4.143 22.340,5.434 22.597 C 6.153 22.741,6.926 22.760,12.000 22.760 C 17.074 22.760,17.847 22.741,18.566 22.597 C 19.857 22.340,20.937 21.715,21.594 20.845 C 22.334 19.866,22.631 18.962,22.725 17.400 C 22.790 16.334,22.747 12.337,22.666 11.811 C 22.375 9.935,21.509 8.640,20.056 7.908 L 19.773 7.765 19.748 7.153 C 19.711 6.252,19.557 5.788,19.119 5.260 C 18.612 4.650,17.959 4.324,17.116 4.258 L 16.772 4.232 16.748 3.666 C 16.733 3.325,16.698 3.013,16.658 2.880 C 16.443 2.159,15.866 1.580,15.120 1.335 C 14.918 1.269,14.680 1.263,12.160 1.256 C 10.653 1.251,9.312 1.263,9.180 1.280 M14.865 2.861 C 14.967 2.920,15.080 3.033,15.139 3.135 C 15.231 3.292,15.240 3.347,15.240 3.774 L 15.240 4.240 12.000 4.240 L 8.760 4.240 8.760 3.778 C 8.760 3.184,8.838 3.007,9.180 2.827 C 9.286 2.771,9.614 2.763,11.996 2.762 L 14.693 2.760 14.865 2.861 M17.454 5.841 C 17.744 5.950,18.050 6.256,18.159 6.546 C 18.212 6.688,18.240 6.860,18.240 7.043 L 18.240 7.323 17.870 7.291 C 17.387 7.250,6.613 7.250,6.130 7.291 L 5.760 7.323 5.760 7.043 C 5.760 6.655,5.868 6.383,6.126 6.126 C 6.251 6.000,6.408 5.892,6.535 5.843 C 6.735 5.766,6.861 5.764,11.988 5.762 C 17.167 5.760,17.240 5.761,17.454 5.841 M17.789 8.803 C 19.460 8.989,20.520 9.771,20.985 11.159 C 21.234 11.901,21.246 12.106,21.230 15.204 L 21.215 17.980 21.111 18.405 C 20.917 19.194,20.643 19.718,20.180 20.180 C 19.712 20.648,19.188 20.921,18.385 21.113 L 17.940 21.220 12.000 21.220 L 6.060 21.220 5.615 21.113 C 4.091 20.748,3.262 19.924,2.889 18.405 L 2.785 17.980 2.770 15.204 C 2.758 12.817,2.764 12.367,2.819 11.993 C 3.044 10.461,3.819 9.465,5.116 9.041 C 5.469 8.926,5.976 8.817,6.300 8.788 C 6.727 8.749,17.432 8.763,17.789 8.803 M13.860 10.259 C 13.213 10.400,10.870 11.062,10.653 11.164 C 10.232 11.363,9.906 11.742,9.745 12.220 C 9.669 12.444,9.663 12.579,9.649 14.280 L 9.634 16.100 9.087 16.101 C 8.612 16.102,8.512 16.114,8.325 16.192 C 7.173 16.676,6.688 17.951,7.230 19.073 C 7.375 19.372,7.828 19.825,8.127 19.970 C 9.064 20.423,10.108 20.176,10.728 19.356 C 11.126 18.828,11.160 18.606,11.160 16.564 C 11.160 14.958,11.162 14.925,11.240 14.900 C 11.627 14.777,14.484 14.017,14.500 14.033 C 14.511 14.044,14.520 14.318,14.520 14.641 L 14.520 15.229 14.065 15.209 C 13.679 15.192,13.568 15.202,13.335 15.273 C 12.677 15.473,12.153 15.996,11.954 16.652 C 11.884 16.882,11.873 16.997,11.889 17.354 C 11.911 17.824,11.986 18.069,12.210 18.395 C 12.812 19.272,13.906 19.557,14.873 19.090 C 15.172 18.945,15.625 18.492,15.770 18.193 C 16.004 17.708,16.004 17.710,15.991 14.507 C 15.980 11.602,15.979 11.578,15.890 11.318 C 15.601 10.464,14.809 10.051,13.860 10.259 M14.467 11.790 C 14.482 11.851,14.496 12.026,14.497 12.180 L 14.500 12.460 12.860 12.908 C 11.958 13.155,11.207 13.357,11.190 13.358 C 11.173 13.359,11.160 13.198,11.160 13.000 C 11.160 12.584,11.200 12.515,11.488 12.438 C 11.583 12.413,12.209 12.243,12.880 12.060 C 14.296 11.675,14.234 11.691,14.349 11.685 C 14.415 11.681,14.446 11.709,14.467 11.790 M14.183 16.744 C 14.374 16.835,14.480 17.024,14.480 17.273 C 14.480 17.444,14.460 17.500,14.356 17.618 C 13.910 18.127,13.089 17.546,13.440 16.970 C 13.601 16.705,13.906 16.613,14.183 16.744 M9.350 17.640 C 9.858 17.949,9.643 18.699,9.049 18.690 C 8.746 18.685,8.507 18.446,8.507 18.147 C 8.507 17.699,8.981 17.414,9.350 17.640 " stroke="none" fill-rule="evenodd" fill="black"></path></svg>