<svg width="24" height="24" viewBox="0 0 24 24" fill="none" xmlns="http://www.w3.org/2000/svg"><path d="M7.760 1.282 C 4.596 1.456,2.710 2.611,1.818 4.919 C 1.528 5.671,1.347 6.652,1.281 7.840 C 1.230 8.748,1.230 14.252,1.281 15.160 C 1.327 15.979,1.431 16.732,1.580 17.320 C 2.130 19.491,3.509 20.870,5.680 21.420 C 6.758 21.693,7.907 21.770,10.640 21.752 L 12.540 21.740 12.720 21.634 C 13.206 21.348,13.206 20.652,12.720 20.366 L 12.540 20.260 9.940 20.236 C 7.757 20.216,7.273 20.202,6.920 20.144 C 4.325 19.721,3.260 18.647,2.852 16.040 C 2.786 15.619,2.780 15.231,2.780 11.500 C 2.780 7.769,2.786 7.381,2.852 6.960 C 3.262 4.340,4.340 3.262,6.960 2.852 C 7.381 2.786,7.769 2.780,11.500 2.780 C 15.231 2.780,15.619 2.786,16.040 2.852 C 18.647 3.260,19.721 4.325,20.144 6.920 C 20.202 7.273,20.216 7.757,20.236 9.940 L 20.260 12.540 20.366 12.720 C 20.653 13.208,21.360 13.204,21.640 12.714 L 21.740 12.540 21.752 10.640 C 21.771 7.806,21.688 6.668,21.384 5.556 C 20.874 3.698,19.801 2.482,18.082 1.819 C 17.329 1.528,16.349 1.347,15.160 1.281 C 14.361 1.236,8.577 1.237,7.760 1.282 M11.940 4.418 C 11.200 4.589,8.604 5.335,8.441 5.423 C 7.984 5.672,7.654 6.088,7.514 6.591 C 7.445 6.837,7.439 7.030,7.439 8.874 C 7.439 10.753,7.434 10.886,7.371 10.862 C 7.202 10.797,6.703 10.764,6.426 10.799 C 5.159 10.960,4.309 12.177,4.578 13.445 C 4.726 14.145,5.270 14.765,5.980 15.042 C 6.186 15.122,6.291 15.135,6.720 15.135 C 7.149 15.135,7.254 15.122,7.460 15.042 C 7.975 14.841,8.448 14.420,8.684 13.951 C 8.906 13.513,8.919 13.366,8.919 11.293 L 8.920 9.406 9.050 9.365 C 9.121 9.342,9.954 9.114,10.900 8.857 C 11.846 8.600,12.643 8.381,12.670 8.370 C 12.709 8.356,12.720 8.523,12.720 9.129 L 12.720 9.906 12.470 9.854 C 11.411 9.632,10.365 10.218,9.958 11.260 C 9.878 11.466,9.865 11.571,9.865 12.000 C 9.865 12.429,9.878 12.534,9.958 12.740 C 10.094 13.089,10.273 13.349,10.557 13.611 C 11.727 14.692,13.581 14.209,14.127 12.680 L 14.220 12.420 14.220 9.160 C 14.220 6.120,14.215 5.882,14.147 5.640 C 13.993 5.097,13.696 4.737,13.213 4.511 C 12.986 4.404,12.896 4.386,12.564 4.375 C 12.335 4.368,12.083 4.385,11.940 4.418 M12.661 5.935 C 12.709 6.009,12.720 6.120,12.712 6.424 L 12.700 6.818 10.840 7.327 C 9.817 7.608,8.966 7.838,8.950 7.839 C 8.934 7.839,8.920 7.668,8.920 7.459 C 8.920 7.035,8.978 6.837,9.127 6.755 C 9.265 6.680,12.318 5.846,12.469 5.843 C 12.563 5.841,12.615 5.866,12.661 5.935 M12.360 11.382 C 12.586 11.496,12.720 11.726,12.720 12.000 C 12.720 12.697,11.838 12.952,11.439 12.371 C 11.300 12.168,11.300 11.833,11.438 11.631 C 11.648 11.324,12.037 11.219,12.360 11.382 M7.111 12.386 C 7.308 12.533,7.400 12.711,7.400 12.948 C 7.400 13.202,7.336 13.342,7.143 13.512 C 6.984 13.652,6.791 13.702,6.571 13.661 C 6.375 13.624,6.103 13.354,6.046 13.139 C 5.959 12.815,6.135 12.451,6.440 12.323 C 6.599 12.256,6.984 12.293,7.111 12.386 M17.531 14.163 C 15.901 14.319,14.557 15.487,14.111 17.135 C 13.984 17.604,13.984 18.556,14.111 19.025 C 14.430 20.201,15.170 21.112,16.220 21.622 C 16.663 21.837,17.068 21.950,17.562 21.996 C 18.330 22.068,19.053 21.930,19.744 21.579 L 20.156 21.370 20.708 21.920 C 21.012 22.223,21.323 22.502,21.399 22.541 C 21.571 22.628,21.901 22.633,22.061 22.549 C 22.425 22.359,22.576 21.948,22.420 21.574 C 22.385 21.491,22.118 21.187,21.788 20.855 L 21.216 20.280 21.320 20.110 C 21.484 19.842,21.669 19.397,21.767 19.034 C 21.896 18.556,21.897 17.608,21.769 17.135 C 21.523 16.229,21.040 15.494,20.330 14.947 C 19.547 14.345,18.550 14.066,17.531 14.163 M18.749 15.758 C 19.697 16.094,20.399 17.081,20.399 18.080 C 20.399 19.089,19.691 20.075,18.728 20.408 C 18.501 20.486,18.380 20.500,17.940 20.500 C 17.500 20.500,17.379 20.486,17.152 20.408 C 16.363 20.135,15.711 19.396,15.540 18.580 C 15.275 17.316,16.060 16.047,17.320 15.701 C 17.648 15.611,18.420 15.642,18.749 15.758 " stroke="none" fill-rule="evenodd" fill="black"></path></svg>