<svg width="24" height="24" viewBox="0 0 24 24" fill="none" xmlns="http://www.w3.org/2000/svg"><path d="M8.815 1.278 C 8.331 1.393,8.098 2.004,8.383 2.408 C 8.447 2.499,8.572 2.610,8.660 2.656 C 8.818 2.739,8.865 2.740,11.878 2.751 C 14.020 2.759,15.000 2.749,15.151 2.718 C 15.902 2.562,15.931 1.473,15.189 1.286 C 14.979 1.234,9.033 1.226,8.815 1.278 M5.720 3.805 C 5.458 3.909,5.269 4.200,5.269 4.500 C 5.269 4.807,5.460 5.095,5.733 5.197 C 5.891 5.257,18.109 5.257,18.267 5.197 C 18.540 5.095,18.731 4.807,18.731 4.500 C 18.731 4.193,18.540 3.905,18.267 3.803 C 18.116 3.745,5.864 3.748,5.720 3.805 M6.372 6.283 C 3.795 6.447,2.066 7.793,1.477 10.091 C 1.283 10.849,1.271 11.060,1.251 13.981 C 1.227 17.501,1.266 18.190,1.541 19.139 C 1.865 20.257,2.497 21.157,3.381 21.759 C 4.241 22.345,5.184 22.637,6.474 22.720 C 7.300 22.772,16.700 22.772,17.526 22.720 C 18.816 22.637,19.759 22.345,20.619 21.759 C 21.503 21.157,22.135 20.257,22.459 19.139 C 22.734 18.190,22.773 17.484,22.747 13.940 C 22.725 11.084,22.717 10.922,22.543 10.180 C 22.246 8.907,21.587 7.900,20.619 7.241 C 19.759 6.655,18.816 6.363,17.526 6.280 C 16.793 6.233,7.110 6.236,6.372 6.283 M18.405 7.888 C 19.198 8.085,19.719 8.358,20.180 8.820 C 20.648 9.288,20.921 9.812,21.113 10.615 L 21.220 11.060 21.220 14.500 L 21.220 17.940 21.113 18.385 C 20.921 19.188,20.648 19.712,20.180 20.180 C 19.712 20.648,19.188 20.921,18.385 21.113 L 17.940 21.220 12.000 21.220 L 6.060 21.220 5.615 21.113 C 4.091 20.748,3.263 19.925,2.889 18.405 L 2.784 17.980 2.770 14.760 C 2.754 11.360,2.763 11.112,2.936 10.432 C 3.316 8.933,4.403 8.024,6.080 7.803 C 6.223 7.784,8.959 7.772,12.160 7.776 L 17.980 7.783 18.405 7.888 M13.840 9.618 C 13.215 9.751,10.758 10.453,10.528 10.565 C 10.079 10.783,9.708 11.238,9.576 11.734 C 9.533 11.895,9.521 12.356,9.520 13.826 L 9.520 15.712 9.370 15.677 C 9.124 15.620,8.554 15.634,8.317 15.704 C 7.642 15.902,7.098 16.422,6.878 17.080 C 6.812 17.278,6.791 17.436,6.791 17.740 C 6.791 18.208,6.881 18.533,7.108 18.877 C 7.516 19.499,8.144 19.840,8.879 19.840 C 9.274 19.840,9.606 19.765,9.897 19.609 C 10.174 19.460,10.635 18.990,10.769 18.720 C 10.992 18.268,11.000 18.182,11.000 16.214 L 11.000 14.406 11.210 14.346 C 11.325 14.313,12.095 14.102,12.920 13.878 C 13.745 13.653,14.443 13.461,14.470 13.450 C 14.509 13.436,14.520 13.586,14.520 14.120 C 14.520 14.760,14.515 14.807,14.450 14.780 C 14.312 14.724,13.699 14.710,13.469 14.758 C 13.109 14.833,12.699 15.060,12.423 15.336 C 12.008 15.752,11.798 16.262,11.802 16.838 C 11.807 17.457,12.020 17.941,12.477 18.369 C 13.625 19.446,15.482 18.938,15.947 17.420 C 16.015 17.196,16.020 16.976,16.020 14.140 C 16.020 11.293,16.015 11.081,15.945 10.806 C 15.855 10.457,15.619 10.082,15.371 9.894 C 14.996 9.611,14.389 9.501,13.840 9.618 M14.480 11.120 C 14.504 11.165,14.518 11.353,14.512 11.549 L 14.500 11.898 12.860 12.347 C 11.958 12.594,11.171 12.807,11.110 12.821 L 11.000 12.846 11.000 12.501 C 11.000 12.105,11.056 11.956,11.235 11.882 C 11.435 11.799,14.213 11.046,14.329 11.043 C 14.398 11.041,14.453 11.069,14.480 11.120 M14.235 16.309 C 14.743 16.686,14.530 17.439,13.916 17.440 C 13.570 17.440,13.300 17.171,13.300 16.824 C 13.300 16.580,13.425 16.378,13.647 16.265 C 13.813 16.180,14.088 16.201,14.235 16.309 M9.231 17.227 C 9.423 17.370,9.489 17.497,9.495 17.733 C 9.500 17.973,9.434 18.101,9.225 18.258 C 9.066 18.376,8.706 18.372,8.535 18.251 C 8.171 17.991,8.212 17.386,8.609 17.184 C 8.776 17.099,9.087 17.120,9.231 17.227 " stroke="none" fill-rule="evenodd" fill="black"></path></svg>