<svg width="24" height="24" viewBox="0 0 24 24" fill="none" xmlns="http://www.w3.org/2000/svg"><path d="M18.440 1.188 C 18.341 1.194,18.125 1.219,17.960 1.244 C 17.591 1.299,11.040 3.080,10.680 3.224 C 9.734 3.600,9.041 4.389,8.752 5.420 L 8.662 5.740 8.641 10.768 L 8.620 15.796 8.440 15.673 C 8.341 15.605,8.116 15.481,7.939 15.397 C 6.424 14.677,4.603 15.022,3.460 16.245 C 1.696 18.133,2.262 21.218,4.580 22.342 C 6.758 23.398,9.368 22.230,9.998 19.916 C 10.149 19.359,10.159 19.018,10.160 14.493 C 10.160 10.330,10.164 10.084,10.230 10.065 C 10.933 9.858,20.049 7.395,20.062 7.409 C 20.072 7.419,20.076 8.842,20.070 10.572 L 20.060 13.716 19.880 13.593 C 19.781 13.525,19.556 13.401,19.379 13.317 C 17.864 12.597,16.043 12.942,14.900 14.165 C 13.450 15.716,13.533 18.170,15.085 19.620 C 16.973 21.384,20.058 20.818,21.182 18.500 C 21.400 18.049,21.507 17.663,21.562 17.123 C 21.592 16.832,21.601 14.713,21.590 10.320 C 21.573 3.387,21.583 3.699,21.355 3.030 C 21.124 2.354,20.634 1.779,20.037 1.484 C 19.586 1.262,18.998 1.153,18.440 1.188 M19.198 2.743 C 19.469 2.824,19.760 3.089,19.879 3.366 C 20.040 3.742,20.079 4.046,20.079 4.968 L 20.080 5.837 19.910 5.882 C 19.817 5.907,17.601 6.511,14.987 7.224 C 12.373 7.937,10.217 8.520,10.197 8.520 C 10.134 8.520,10.151 6.018,10.216 5.774 C 10.342 5.301,10.713 4.850,11.137 4.656 C 11.335 4.565,17.902 2.751,18.181 2.710 C 18.475 2.666,18.997 2.683,19.198 2.743 M18.248 14.484 C 18.658 14.569,19.032 14.783,19.384 15.136 C 19.874 15.627,20.080 16.119,20.080 16.800 C 20.080 17.481,19.874 17.973,19.384 18.464 C 18.893 18.954,18.401 19.160,17.720 19.160 C 17.039 19.160,16.547 18.954,16.056 18.464 C 15.561 17.970,15.360 17.489,15.360 16.800 C 15.360 16.626,15.380 16.389,15.404 16.272 C 15.570 15.471,16.327 14.692,17.131 14.497 C 17.395 14.434,17.971 14.427,18.248 14.484 M6.862 16.581 C 7.295 16.692,7.594 16.867,7.944 17.216 C 8.434 17.707,8.640 18.199,8.640 18.880 C 8.640 19.561,8.434 20.053,7.944 20.544 C 7.453 21.034,6.961 21.240,6.280 21.240 C 5.599 21.240,5.107 21.034,4.616 20.544 C 4.263 20.192,4.049 19.818,3.964 19.408 C 3.908 19.136,3.908 18.624,3.964 18.352 C 4.130 17.551,4.887 16.772,5.691 16.577 C 5.984 16.506,6.577 16.508,6.862 16.581 " stroke="none" fill-rule="evenodd" fill="black"></path></svg>