<svg width="24" height="24" viewBox="0 0 24 24" fill="none" xmlns="http://www.w3.org/2000/svg"><path d="M8.080 1.282 C 4.008 1.495,1.895 3.296,1.383 6.991 C 1.270 7.803,1.242 8.816,1.242 12.000 C 1.242 16.504,1.302 17.273,1.760 18.650 C 2.532 20.963,4.206 22.226,7.027 22.622 C 7.786 22.728,8.902 22.759,12.000 22.759 C 15.098 22.759,16.214 22.728,16.973 22.622 C 19.443 22.275,20.996 21.288,21.897 19.490 C 22.379 18.530,22.638 17.369,22.720 15.807 C 22.771 14.838,22.771 9.162,22.720 8.193 C 22.657 6.998,22.521 6.191,22.242 5.356 C 21.632 3.531,20.469 2.367,18.650 1.760 C 17.788 1.473,17.023 1.344,15.806 1.280 C 14.952 1.235,8.952 1.237,8.080 1.282 M16.800 2.854 C 19.586 3.316,20.714 4.454,21.148 7.240 C 21.214 7.661,21.220 8.064,21.220 12.000 C 21.220 16.745,21.226 16.622,20.960 17.688 C 20.504 19.520,19.519 20.504,17.688 20.960 C 16.638 21.221,16.778 21.214,12.320 21.231 C 10.087 21.239,8.148 21.234,8.010 21.220 L 7.760 21.194 7.760 11.999 L 7.760 2.805 7.890 2.788 C 7.962 2.779,9.901 2.774,12.200 2.778 C 15.966 2.784,16.422 2.791,16.800 2.854 M6.230 16.475 L 6.220 20.951 5.861 20.834 C 4.091 20.257,3.208 19.067,2.854 16.780 C 2.785 16.335,2.780 15.989,2.780 12.000 C 2.780 8.011,2.785 7.665,2.854 7.220 C 3.208 4.932,4.089 3.744,5.861 3.166 L 6.220 3.049 6.230 7.525 C 6.236 9.986,6.236 14.014,6.230 16.475 M17.100 6.485 C 16.833 6.515,13.897 7.291,13.520 7.431 C 12.808 7.695,12.339 8.275,12.241 9.013 C 12.218 9.192,12.200 10.155,12.200 11.262 L 12.200 13.198 12.090 13.155 C 12.030 13.132,11.809 13.103,11.600 13.092 C 10.902 13.054,10.391 13.249,9.900 13.740 C 9.409 14.231,9.214 14.741,9.252 15.440 C 9.292 16.192,9.640 16.783,10.290 17.203 C 10.642 17.431,10.979 17.526,11.440 17.528 C 11.890 17.530,12.128 17.480,12.480 17.308 C 12.838 17.133,13.296 16.673,13.474 16.307 C 13.699 15.848,13.717 15.638,13.719 13.513 C 13.720 11.731,13.725 11.604,13.790 11.585 C 13.829 11.573,14.634 11.355,15.580 11.099 C 16.526 10.844,17.386 10.610,17.490 10.580 L 17.680 10.524 17.680 11.357 L 17.680 12.189 17.430 12.130 C 17.085 12.049,16.499 12.083,16.180 12.202 C 15.524 12.448,14.999 12.992,14.796 13.637 C 14.700 13.942,14.681 14.540,14.757 14.860 C 14.934 15.602,15.638 16.306,16.380 16.483 C 16.700 16.559,17.298 16.540,17.603 16.444 C 18.219 16.250,18.799 15.705,19.013 15.120 C 19.157 14.728,19.163 14.579,19.163 11.317 C 19.163 8.564,19.154 8.045,19.102 7.822 C 18.974 7.271,18.689 6.890,18.235 6.663 C 17.990 6.540,17.882 6.512,17.480 6.465 C 17.425 6.459,17.254 6.468,17.100 6.485 M17.622 8.099 C 17.659 8.186,17.680 8.375,17.680 8.609 L 17.680 8.981 15.730 9.511 C 14.658 9.803,13.767 10.041,13.750 10.041 C 13.733 10.040,13.720 9.841,13.720 9.598 C 13.720 9.121,13.766 8.963,13.930 8.874 C 14.106 8.778,17.179 7.964,17.372 7.962 C 17.554 7.960,17.567 7.967,17.622 8.099 M17.222 13.635 C 17.650 13.830,17.804 14.362,17.537 14.724 C 17.253 15.109,16.708 15.152,16.393 14.815 C 15.851 14.236,16.503 13.309,17.222 13.635 M11.879 14.699 C 12.252 14.958,12.313 15.488,12.007 15.815 C 11.592 16.259,10.834 16.019,10.737 15.412 C 10.639 14.798,11.366 14.344,11.879 14.699 " stroke="none" fill-rule="evenodd" fill="black"></path></svg>