<svg width="24" height="24" viewBox="0 0 24 24" fill="none" xmlns="http://www.w3.org/2000/svg"><path d="M5.734 3.979 C 5.344 4.050,5.195 4.102,4.800 4.304 C 3.960 4.735,3.377 5.465,3.110 6.420 L 3.020 6.740 3.020 11.960 C 3.020 17.479,3.016 17.359,3.203 17.871 C 3.597 18.954,4.396 19.679,5.540 19.992 C 5.883 20.086,6.770 20.084,7.120 19.989 C 7.620 19.853,7.513 19.912,13.720 16.328 C 15.073 15.546,16.306 14.822,16.460 14.719 C 17.676 13.900,18.191 12.392,17.741 10.971 C 17.547 10.361,17.035 9.669,16.520 9.321 C 16.218 9.117,8.154 4.458,7.773 4.268 C 7.157 3.959,6.419 3.855,5.734 3.979 M19.939 5.136 C 19.790 5.201,19.572 5.444,19.531 5.591 C 19.491 5.734,19.491 18.266,19.531 18.409 C 19.573 18.561,19.793 18.801,19.948 18.866 C 20.113 18.935,20.367 18.935,20.532 18.866 C 20.687 18.801,20.907 18.561,20.949 18.409 C 20.989 18.266,20.989 5.734,20.949 5.591 C 20.907 5.439,20.687 5.199,20.532 5.134 C 20.370 5.066,20.097 5.067,19.939 5.136 M6.886 5.515 C 7.080 5.582,8.494 6.388,13.817 9.462 C 15.843 10.632,15.985 10.736,16.228 11.229 C 16.360 11.496,16.378 11.570,16.393 11.902 C 16.421 12.541,16.194 13.056,15.729 13.408 C 15.557 13.538,13.893 14.507,8.940 17.361 C 7.972 17.919,7.075 18.418,6.948 18.470 C 6.102 18.815,5.074 18.391,4.667 17.530 L 4.540 17.260 4.529 12.100 C 4.519 7.058,4.520 6.934,4.597 6.679 C 4.888 5.723,5.939 5.189,6.886 5.515 " stroke="none" fill-rule="evenodd" fill="black"></path></svg>