<svg width="24" height="24" viewBox="0 0 24 24" fill="none" xmlns="http://www.w3.org/2000/svg"><path d="M12.460 1.786 C 10.772 1.989,9.663 2.660,8.766 4.020 C 8.621 4.240,8.500 4.425,8.497 4.431 C 8.494 4.437,8.358 4.478,8.196 4.523 C 7.668 4.667,5.472 5.402,5.020 5.586 C 1.931 6.843,0.782 8.922,1.420 12.100 C 1.550 12.746,1.612 12.955,2.442 15.520 C 3.277 18.102,3.355 18.320,3.704 19.040 C 4.450 20.583,5.439 21.557,6.688 21.983 C 7.259 22.177,7.570 22.220,8.400 22.218 C 9.576 22.216,10.223 22.078,12.332 21.378 C 13.676 20.931,14.393 20.646,14.919 20.348 L 15.231 20.171 15.966 20.149 C 16.737 20.126,17.077 20.075,17.640 19.898 C 19.441 19.333,20.664 17.729,21.339 15.044 C 21.507 14.375,22.330 10.863,22.460 10.260 C 22.779 8.782,22.792 7.433,22.499 6.420 C 22.111 5.081,21.251 4.083,19.880 3.382 C 19.027 2.946,18.413 2.741,16.800 2.358 C 15.429 2.032,14.722 1.893,14.078 1.821 C 13.592 1.767,12.771 1.749,12.460 1.786 M14.240 3.343 C 15.061 3.462,17.438 4.023,18.120 4.260 C 18.608 4.429,19.318 4.761,19.655 4.978 C 19.968 5.179,20.482 5.674,20.667 5.953 C 20.847 6.224,21.018 6.634,21.111 7.017 C 21.166 7.244,21.179 7.475,21.177 8.180 C 21.173 9.241,21.169 9.261,20.499 12.125 C 19.722 15.445,19.642 15.722,19.222 16.560 C 18.955 17.093,18.752 17.377,18.363 17.760 C 17.764 18.351,17.057 18.622,16.000 18.666 C 15.125 18.703,14.370 18.579,12.200 18.045 C 10.517 17.630,9.683 17.278,8.908 16.653 C 7.781 15.744,7.480 14.260,7.956 11.960 C 8.048 11.515,8.868 8.000,9.043 7.300 C 9.696 4.685,10.713 3.509,12.519 3.278 C 12.860 3.235,13.711 3.267,14.240 3.343 M7.744 6.305 C 7.638 6.580,6.467 11.619,6.364 12.240 C 5.982 14.546,6.353 16.195,7.529 17.427 C 8.223 18.152,9.108 18.679,10.340 19.099 C 10.582 19.182,11.194 19.352,11.700 19.478 L 12.620 19.707 11.580 20.051 C 9.753 20.656,8.877 20.818,7.951 20.722 C 7.138 20.638,6.574 20.376,6.037 19.835 C 5.865 19.661,5.624 19.369,5.502 19.185 C 5.236 18.785,4.822 17.933,4.626 17.380 C 4.388 16.711,3.286 13.300,3.101 12.660 C 2.683 11.213,2.642 9.963,2.988 9.142 C 3.360 8.258,4.228 7.535,5.602 6.964 C 5.936 6.826,7.628 6.248,7.714 6.243 C 7.748 6.241,7.759 6.264,7.744 6.305 M12.250 7.903 C 12.076 8.007,11.953 8.192,11.902 8.427 C 11.846 8.686,12.027 9.049,12.275 9.177 C 12.373 9.228,13.287 9.467,16.269 10.220 L 17.479 10.526 17.695 10.463 C 18.020 10.369,18.239 10.073,18.240 9.729 C 18.240 9.500,18.017 9.168,17.805 9.084 C 17.520 8.970,12.785 7.800,12.613 7.800 C 12.478 7.801,12.369 7.831,12.250 7.903 M11.580 11.660 C 11.558 11.667,11.491 11.684,11.431 11.697 C 11.371 11.710,11.255 11.779,11.175 11.850 C 10.707 12.260,10.898 12.954,11.527 13.133 C 12.238 13.335,14.460 13.880,14.574 13.880 C 15.036 13.880,15.399 13.403,15.278 12.954 C 15.237 12.799,15.048 12.549,14.922 12.481 C 14.849 12.442,11.717 11.638,11.657 11.643 C 11.637 11.645,11.602 11.652,11.580 11.660 " stroke="none" fill-rule="evenodd" fill="black"></path></svg>