<svg width="24" height="24" viewBox="0 0 24 24" fill="none" xmlns="http://www.w3.org/2000/svg"><path d="M7.815 1.277 C 7.638 1.321,7.461 1.456,7.354 1.630 C 7.274 1.759,7.260 1.843,7.247 2.284 L 7.231 2.791 6.985 2.817 C 4.811 3.046,3.215 4.278,2.584 6.212 C 2.428 6.688,2.325 7.296,2.280 7.990 C 2.228 8.812,2.228 16.705,2.280 17.526 C 2.363 18.816,2.655 19.759,3.241 20.619 C 3.843 21.503,4.743 22.135,5.861 22.459 C 6.795 22.730,7.306 22.758,11.269 22.759 L 14.478 22.760 14.689 22.895 C 16.095 23.792,18.066 23.988,19.742 23.397 C 20.426 23.156,21.030 22.801,21.663 22.270 C 22.619 21.467,23.364 20.212,23.621 18.970 C 23.770 18.250,23.771 17.236,23.624 16.538 C 23.395 15.454,22.822 14.372,22.061 13.591 L 21.760 13.282 21.759 10.931 C 21.758 7.924,21.719 7.303,21.475 6.413 C 20.920 4.386,19.268 3.055,17.010 2.816 L 16.760 2.790 16.760 2.417 C 16.760 1.884,16.704 1.664,16.522 1.482 C 16.173 1.133,15.618 1.203,15.354 1.629 C 15.275 1.757,15.261 1.844,15.247 2.268 L 15.230 2.760 11.995 2.760 L 8.760 2.760 8.759 2.390 C 8.758 1.944,8.707 1.704,8.580 1.536 C 8.421 1.327,8.078 1.211,7.815 1.277 M15.247 4.732 C 15.261 5.156,15.275 5.243,15.354 5.371 C 15.708 5.944,16.577 5.811,16.716 5.162 C 16.740 5.049,16.760 4.804,16.760 4.618 L 16.760 4.279 16.930 4.303 C 18.820 4.574,19.902 5.636,20.177 7.489 C 20.228 7.831,20.240 8.320,20.240 10.092 L 20.240 12.274 19.990 12.173 C 19.663 12.040,19.339 11.943,18.920 11.853 C 18.431 11.749,17.084 11.749,16.600 11.854 C 14.080 12.403,12.216 14.332,11.821 16.800 C 11.788 17.009,11.760 17.434,11.760 17.746 C 11.760 18.934,12.066 19.995,12.679 20.934 L 12.881 21.244 9.951 21.230 L 7.020 21.215 6.595 21.111 C 5.084 20.740,4.263 19.919,3.888 18.405 L 3.783 17.980 3.770 12.960 C 3.759 8.538,3.765 7.888,3.821 7.506 C 4.070 5.803,4.991 4.764,6.572 4.403 C 6.752 4.361,6.974 4.317,7.065 4.304 L 7.230 4.281 7.247 4.752 C 7.261 5.155,7.277 5.246,7.355 5.371 C 7.708 5.944,8.577 5.810,8.716 5.162 C 8.740 5.049,8.760 4.795,8.760 4.598 L 8.760 4.240 11.995 4.240 L 15.230 4.240 15.247 4.732 M6.815 10.278 C 6.331 10.393,6.098 11.004,6.383 11.408 C 6.447 11.499,6.572 11.610,6.660 11.656 C 6.818 11.739,6.865 11.740,9.878 11.751 C 12.020 11.759,13.000 11.749,13.151 11.718 C 13.902 11.562,13.931 10.473,13.189 10.286 C 12.979 10.234,7.033 10.226,6.815 10.278 M18.140 13.280 C 18.936 13.350,19.571 13.573,20.232 14.013 C 21.263 14.700,21.966 15.768,22.183 16.980 C 22.257 17.397,22.256 18.148,22.180 18.550 C 21.987 19.564,21.442 20.504,20.668 21.155 C 19.814 21.875,19.042 22.182,17.977 22.227 C 17.072 22.266,16.466 22.139,15.720 21.757 C 14.632 21.199,13.770 20.144,13.422 18.943 C 13.253 18.360,13.219 17.501,13.341 16.880 C 13.720 14.956,15.376 13.458,17.320 13.282 C 17.507 13.265,17.669 13.249,17.680 13.246 C 17.691 13.243,17.898 13.258,18.140 13.280 M17.420 14.587 C 17.147 14.731,17.002 14.971,17.001 15.282 C 16.997 16.027,16.429 16.748,15.695 16.940 C 15.568 16.973,15.385 17.000,15.290 17.000 C 14.976 17.000,14.731 17.144,14.596 17.408 C 14.457 17.679,14.506 18.034,14.713 18.255 C 14.854 18.406,15.008 18.468,15.322 18.501 C 15.855 18.556,16.220 18.733,16.554 19.097 C 16.836 19.404,16.939 19.687,17.023 20.375 C 17.043 20.540,17.076 20.600,17.238 20.762 C 17.394 20.918,17.465 20.959,17.619 20.982 C 17.955 21.032,18.254 20.888,18.396 20.606 C 18.436 20.526,18.489 20.299,18.514 20.103 C 18.573 19.635,18.720 19.322,19.021 19.021 C 19.322 18.720,19.635 18.573,20.103 18.514 C 20.299 18.489,20.526 18.436,20.606 18.396 C 20.888 18.254,21.032 17.955,20.982 17.619 C 20.959 17.465,20.918 17.394,20.762 17.238 C 20.600 17.076,20.540 17.043,20.375 17.023 C 19.677 16.938,19.398 16.834,19.083 16.539 C 18.721 16.200,18.558 15.865,18.501 15.340 C 18.487 15.208,18.458 15.045,18.437 14.977 C 18.391 14.831,18.185 14.622,18.027 14.562 C 17.864 14.501,17.559 14.513,17.420 14.587 M6.815 15.277 C 6.329 15.397,6.098 16.004,6.383 16.408 C 6.447 16.499,6.572 16.610,6.660 16.656 C 6.814 16.737,6.877 16.740,8.280 16.740 C 9.083 16.740,9.789 16.726,9.849 16.709 C 10.001 16.667,10.241 16.447,10.306 16.292 C 10.417 16.027,10.361 15.711,10.167 15.506 C 9.932 15.257,9.956 15.261,8.380 15.253 C 7.588 15.249,6.884 15.260,6.815 15.277 M17.955 17.954 L 17.746 18.163 17.538 17.958 L 17.331 17.754 17.536 17.544 L 17.740 17.334 17.952 17.539 L 18.164 17.745 17.955 17.954 " stroke="none" fill-rule="evenodd" fill="black"></path></svg>