<svg width="24" height="24" viewBox="0 0 24 24" fill="none" xmlns="http://www.w3.org/2000/svg"><path d="M12.460 1.786 C 10.772 1.989,9.663 2.660,8.766 4.020 C 8.621 4.240,8.501 4.424,8.499 4.429 C 8.497 4.434,8.334 4.484,8.138 4.541 C 7.489 4.727,5.468 5.405,5.020 5.587 C 3.162 6.341,1.977 7.439,1.497 8.850 C 1.130 9.927,1.175 11.393,1.620 12.940 C 1.780 13.493,3.142 17.691,3.301 18.120 C 3.708 19.215,4.333 20.257,4.958 20.881 C 5.945 21.866,7.050 22.276,8.580 22.227 C 9.644 22.193,10.374 22.028,12.332 21.378 C 13.676 20.931,14.393 20.646,14.919 20.348 L 15.231 20.171 15.966 20.149 C 16.373 20.137,16.834 20.100,17.000 20.066 C 19.227 19.613,20.585 18.040,21.340 15.040 C 21.507 14.375,22.330 10.862,22.460 10.260 C 23.187 6.890,22.343 4.642,19.880 3.382 C 19.016 2.940,18.372 2.729,16.656 2.326 C 15.213 1.987,14.742 1.895,14.060 1.819 C 13.589 1.766,12.767 1.750,12.460 1.786 M14.240 3.343 C 15.061 3.462,17.438 4.023,18.120 4.260 C 18.608 4.429,19.318 4.761,19.655 4.978 C 19.968 5.179,20.482 5.674,20.668 5.954 C 20.885 6.281,21.062 6.760,21.141 7.235 C 21.240 7.827,21.207 8.857,21.065 9.605 C 20.963 10.143,20.165 13.591,19.901 14.640 C 19.468 16.351,18.856 17.465,18.018 18.063 C 17.487 18.442,16.855 18.631,16.000 18.666 C 15.127 18.703,14.380 18.582,12.260 18.060 C 10.515 17.630,9.692 17.285,8.908 16.653 C 7.781 15.744,7.480 14.260,7.956 11.960 C 8.048 11.515,8.868 8.000,9.043 7.300 C 9.696 4.685,10.713 3.509,12.519 3.278 C 12.860 3.235,13.711 3.267,14.240 3.343 M7.744 6.305 C 7.640 6.575,6.470 11.601,6.363 12.235 C 5.865 15.195,6.660 17.195,8.827 18.432 C 9.585 18.865,10.336 19.138,11.700 19.478 L 12.620 19.708 11.580 20.052 C 9.751 20.656,8.877 20.817,7.951 20.722 C 7.138 20.638,6.574 20.376,6.037 19.835 C 5.865 19.661,5.624 19.369,5.502 19.185 C 5.235 18.784,4.823 17.933,4.623 17.374 C 4.390 16.717,3.290 13.313,3.101 12.660 C 2.683 11.214,2.642 9.963,2.988 9.142 C 3.360 8.258,4.228 7.535,5.602 6.964 C 5.936 6.826,7.628 6.248,7.714 6.243 C 7.748 6.241,7.759 6.264,7.744 6.305 " stroke="none" fill-rule="evenodd" fill="black"></path></svg>