<svg width="24" height="24" viewBox="0 0 24 24" fill="none" xmlns="http://www.w3.org/2000/svg"><path d="M7.815 1.277 C 7.638 1.321,7.461 1.456,7.353 1.631 C 7.271 1.763,7.259 1.841,7.246 2.329 L 7.231 2.878 7.085 2.902 C 6.050 3.070,5.483 3.231,4.884 3.527 C 4.006 3.961,3.394 4.561,2.953 5.421 C 2.453 6.395,2.250 7.401,2.214 9.080 C 2.191 10.173,2.338 16.646,2.402 17.340 C 2.632 19.834,3.453 21.299,5.077 22.118 C 5.884 22.525,6.970 22.745,8.380 22.786 C 9.307 22.813,15.330 22.697,16.100 22.637 C 19.325 22.386,21.008 21.167,21.580 18.669 C 21.726 18.030,21.768 17.571,21.788 16.380 C 21.811 15.046,21.702 9.416,21.637 8.540 C 21.536 7.176,21.290 6.135,20.872 5.303 C 20.641 4.844,20.431 4.546,20.083 4.186 C 19.359 3.437,18.486 3.020,17.210 2.813 L 16.760 2.740 16.760 2.392 C 16.760 1.884,16.702 1.662,16.522 1.482 C 16.174 1.134,15.618 1.203,15.355 1.628 C 15.279 1.751,15.262 1.845,15.247 2.227 C 15.238 2.476,15.228 2.680,15.225 2.681 C 15.184 2.689,9.740 2.798,9.330 2.799 L 8.760 2.800 8.759 2.410 C 8.758 1.945,8.709 1.705,8.580 1.536 C 8.421 1.327,8.078 1.211,7.815 1.277 M15.246 4.691 C 15.260 5.158,15.273 5.239,15.354 5.370 C 15.708 5.944,16.577 5.811,16.716 5.162 C 16.740 5.049,16.760 4.793,16.760 4.594 C 16.760 4.238,16.762 4.232,16.850 4.253 C 16.899 4.265,17.053 4.295,17.191 4.319 C 17.975 4.459,18.723 4.855,19.138 5.351 C 19.710 6.035,20.059 7.230,20.158 8.840 C 20.222 9.867,20.333 15.642,20.307 16.580 C 20.274 17.801,20.134 18.567,19.824 19.220 C 19.230 20.472,17.946 21.062,15.560 21.179 C 14.556 21.228,8.709 21.327,8.240 21.302 C 5.218 21.144,4.149 20.120,3.882 17.129 C 3.860 16.880,3.803 15.026,3.756 13.009 C 3.662 9.032,3.673 8.376,3.842 7.500 C 4.162 5.838,4.817 5.029,6.175 4.617 C 6.466 4.529,7.061 4.400,7.179 4.400 C 7.215 4.400,7.235 4.518,7.248 4.814 C 7.263 5.153,7.283 5.255,7.356 5.374 C 7.708 5.944,8.577 5.809,8.716 5.162 C 8.740 5.049,8.760 4.813,8.760 4.638 C 8.760 4.463,8.764 4.318,8.770 4.316 C 8.775 4.314,10.202 4.280,11.940 4.242 C 13.678 4.203,15.129 4.169,15.165 4.166 C 15.222 4.161,15.233 4.230,15.246 4.691 M9.375 12.277 C 9.198 12.321,9.021 12.456,8.913 12.631 C 8.823 12.775,8.820 12.815,8.807 13.770 L 8.794 14.760 7.820 14.760 C 6.786 14.760,6.696 14.773,6.506 14.953 C 6.339 15.111,6.269 15.273,6.269 15.500 C 6.269 15.727,6.339 15.889,6.506 16.047 C 6.696 16.227,6.786 16.240,7.820 16.240 L 8.794 16.240 8.807 17.230 C 8.820 18.185,8.823 18.225,8.913 18.369 C 9.270 18.943,10.136 18.812,10.276 18.162 C 10.300 18.048,10.320 17.574,10.320 17.098 L 10.320 16.240 11.237 16.240 C 12.211 16.240,12.305 16.226,12.494 16.047 C 12.661 15.889,12.731 15.727,12.731 15.500 C 12.731 15.273,12.661 15.111,12.494 14.953 C 12.305 14.774,12.211 14.760,11.237 14.760 L 10.320 14.760 10.319 13.890 C 10.318 12.954,10.289 12.731,10.140 12.536 C 9.981 12.327,9.638 12.211,9.375 12.277 " stroke="none" fill-rule="evenodd" fill="black"></path></svg>