<svg width="24" height="24" viewBox="0 0 24 24" fill="none" xmlns="http://www.w3.org/2000/svg"><path d="M7.815 1.277 C 7.638 1.321,7.461 1.456,7.354 1.630 C 7.274 1.759,7.260 1.843,7.247 2.284 L 7.231 2.791 6.985 2.817 C 4.811 3.046,3.215 4.278,2.584 6.212 C 2.428 6.688,2.325 7.296,2.280 7.990 C 2.228 8.812,2.228 16.705,2.280 17.526 C 2.363 18.816,2.655 19.759,3.241 20.619 C 3.843 21.503,4.743 22.135,5.861 22.459 C 6.819 22.737,7.259 22.758,12.000 22.758 C 15.920 22.758,16.791 22.737,17.441 22.623 C 18.897 22.367,20.038 21.678,20.759 20.619 C 21.342 19.762,21.638 18.811,21.720 17.526 C 21.771 16.722,21.771 8.775,21.720 7.980 C 21.615 6.357,21.185 5.251,20.298 4.323 C 19.501 3.489,18.340 2.957,17.010 2.816 L 16.760 2.790 16.760 2.417 C 16.760 1.884,16.704 1.664,16.522 1.482 C 16.173 1.133,15.618 1.203,15.354 1.629 C 15.275 1.757,15.261 1.844,15.247 2.268 L 15.230 2.760 11.995 2.760 L 8.760 2.760 8.759 2.390 C 8.758 1.944,8.707 1.704,8.580 1.536 C 8.421 1.327,8.078 1.211,7.815 1.277 M15.247 4.732 C 15.261 5.156,15.275 5.243,15.354 5.371 C 15.708 5.944,16.577 5.811,16.716 5.162 C 16.740 5.049,16.760 4.804,16.760 4.618 L 16.760 4.279 16.930 4.303 C 18.826 4.574,19.907 5.639,20.179 7.506 C 20.235 7.888,20.241 8.538,20.230 12.960 L 20.217 17.980 20.112 18.405 C 19.916 19.197,19.642 19.719,19.180 20.180 C 18.712 20.648,18.188 20.921,17.385 21.113 L 16.940 21.220 12.000 21.220 L 7.060 21.220 6.615 21.113 C 5.092 20.748,4.265 19.928,3.888 18.405 L 3.783 17.980 3.770 12.960 C 3.759 8.538,3.765 7.888,3.821 7.506 C 4.070 5.803,4.991 4.764,6.572 4.403 C 6.752 4.361,6.974 4.317,7.065 4.304 L 7.230 4.281 7.247 4.752 C 7.261 5.155,7.277 5.246,7.355 5.371 C 7.708 5.944,8.577 5.810,8.716 5.162 C 8.740 5.049,8.760 4.795,8.760 4.598 L 8.760 4.240 11.995 4.240 L 15.230 4.240 15.247 4.732 M7.815 10.278 C 7.331 10.393,7.098 11.004,7.383 11.408 C 7.447 11.499,7.572 11.610,7.660 11.656 C 7.819 11.739,7.851 11.740,11.879 11.751 C 14.744 11.759,16.001 11.749,16.153 11.717 C 16.902 11.562,16.930 10.473,16.189 10.286 C 15.979 10.234,8.034 10.226,7.815 10.278 M7.815 15.278 C 7.331 15.393,7.098 16.004,7.383 16.408 C 7.447 16.499,7.572 16.610,7.660 16.656 C 7.815 16.738,7.880 16.740,9.875 16.752 C 12.208 16.765,12.281 16.759,12.519 16.521 C 12.918 16.122,12.731 15.423,12.189 15.286 C 11.980 15.234,8.031 15.226,7.815 15.278 " stroke="none" fill-rule="evenodd" fill="black"></path></svg>