<svg width="24" height="24" viewBox="0 0 24 24" fill="none" xmlns="http://www.w3.org/2000/svg"><path d="M9.872 1.280 C 9.223 1.360,8.681 1.616,8.185 2.078 C 7.836 2.403,7.441 3.044,7.376 3.389 C 7.356 3.496,7.330 3.521,7.226 3.536 C 6.344 3.663,5.831 3.802,5.351 4.044 C 4.248 4.600,3.595 5.583,3.334 7.083 C 3.276 7.416,3.267 8.066,3.252 12.600 C 3.234 17.961,3.251 18.744,3.397 19.400 C 3.786 21.136,4.873 22.221,6.608 22.603 C 7.221 22.738,7.955 22.759,12.020 22.758 C 15.981 22.758,16.744 22.737,17.329 22.618 C 19.078 22.261,20.217 21.143,20.602 19.404 C 20.749 18.741,20.766 17.962,20.748 12.600 C 20.730 7.055,20.735 7.195,20.516 6.403 C 20.419 6.051,20.145 5.450,19.956 5.173 C 19.543 4.568,18.923 4.111,18.131 3.826 C 17.808 3.710,17.108 3.560,16.886 3.559 C 16.695 3.559,16.666 3.534,16.604 3.320 C 16.341 2.419,15.496 1.618,14.526 1.350 C 14.235 1.270,14.119 1.265,12.180 1.256 C 11.058 1.251,10.020 1.262,9.872 1.280 M14.369 2.888 C 14.663 3.025,14.975 3.337,15.112 3.631 C 15.206 3.829,15.220 3.911,15.220 4.241 C 15.220 4.591,15.209 4.644,15.089 4.888 C 14.864 5.345,14.447 5.650,13.952 5.722 C 13.622 5.770,10.375 5.769,10.045 5.722 C 8.964 5.565,8.406 4.330,9.006 3.423 C 9.166 3.181,9.423 2.975,9.709 2.856 L 9.940 2.761 12.040 2.770 L 14.140 2.780 14.369 2.888 M7.397 5.210 C 7.466 5.445,7.692 5.852,7.907 6.124 C 8.243 6.553,8.761 6.918,9.300 7.107 L 9.620 7.220 12.000 7.220 L 14.380 7.220 14.700 7.107 C 15.040 6.988,15.412 6.774,15.702 6.532 C 16.067 6.227,16.486 5.611,16.604 5.205 L 16.655 5.031 16.878 5.056 C 17.992 5.185,18.710 5.717,19.025 6.647 C 19.240 7.281,19.240 7.262,19.240 13.087 C 19.240 16.692,19.226 18.578,19.197 18.787 C 19.147 19.154,18.974 19.696,18.816 19.980 C 18.755 20.090,18.586 20.299,18.442 20.444 C 18.134 20.753,17.691 20.990,17.160 21.130 L 16.820 21.220 12.000 21.220 L 7.180 21.220 6.840 21.130 C 6.309 20.990,5.866 20.753,5.558 20.444 C 5.414 20.299,5.245 20.090,5.184 19.980 C 5.026 19.696,4.853 19.154,4.803 18.787 C 4.774 18.578,4.760 16.692,4.760 13.087 C 4.760 7.267,4.760 7.280,4.974 6.651 C 5.218 5.929,5.683 5.457,6.380 5.220 C 6.619 5.140,7.051 5.049,7.224 5.044 C 7.336 5.040,7.352 5.056,7.397 5.210 M7.815 12.278 C 7.331 12.393,7.098 13.004,7.383 13.408 C 7.447 13.499,7.572 13.610,7.660 13.656 C 7.815 13.738,7.880 13.740,9.875 13.752 C 12.208 13.765,12.281 13.759,12.519 13.521 C 12.918 13.122,12.731 12.423,12.189 12.286 C 11.980 12.234,8.031 12.226,7.815 12.278 M7.815 16.278 C 7.331 16.393,7.098 17.004,7.383 17.408 C 7.447 17.499,7.572 17.610,7.660 17.656 C 7.819 17.739,7.851 17.740,11.879 17.751 C 14.744 17.759,16.001 17.749,16.153 17.717 C 16.902 17.562,16.930 16.473,16.189 16.286 C 15.979 16.234,8.034 16.226,7.815 16.278 " stroke="none" fill-rule="evenodd" fill="black"></path></svg>