<svg width="24" height="24" viewBox="0 0 24 24" fill="none" xmlns="http://www.w3.org/2000/svg"><path d="M7.815 1.277 C 7.639 1.321,7.461 1.456,7.355 1.628 C 7.277 1.755,7.261 1.848,7.242 2.297 L 7.220 2.819 6.900 2.866 C 6.107 2.983,5.542 3.153,4.951 3.453 C 3.243 4.321,2.438 5.924,2.280 8.770 C 2.230 9.674,2.230 15.759,2.280 16.754 C 2.369 18.512,2.663 19.645,3.267 20.553 C 4.148 21.876,5.613 22.552,7.960 22.718 C 8.720 22.772,15.280 22.772,16.040 22.718 C 19.115 22.501,20.745 21.384,21.402 19.046 C 21.705 17.968,21.759 17.003,21.759 12.740 C 21.758 8.589,21.718 7.829,21.435 6.681 C 21.068 5.190,20.382 4.207,19.249 3.547 C 18.729 3.244,17.900 2.978,17.136 2.869 L 16.780 2.819 16.757 2.319 C 16.732 1.760,16.673 1.579,16.464 1.421 C 16.096 1.142,15.598 1.236,15.354 1.629 C 15.275 1.757,15.261 1.844,15.247 2.268 L 15.230 2.760 11.995 2.760 L 8.760 2.760 8.759 2.390 C 8.758 1.944,8.707 1.704,8.580 1.536 C 8.421 1.327,8.078 1.211,7.815 1.277 M15.247 4.732 C 15.261 5.156,15.275 5.243,15.354 5.371 C 15.708 5.944,16.577 5.811,16.716 5.162 C 16.740 5.049,16.760 4.812,16.760 4.636 L 16.760 4.315 16.950 4.343 C 17.288 4.391,17.858 4.549,18.175 4.680 C 19.139 5.082,19.743 5.908,20.023 7.206 C 20.216 8.105,20.213 8.018,20.230 12.440 C 20.247 16.808,20.233 17.329,20.077 18.145 C 19.985 18.623,19.880 18.957,19.702 19.340 C 19.147 20.533,17.961 21.110,15.800 21.240 C 14.943 21.291,9.104 21.291,8.213 21.239 C 5.479 21.081,4.326 20.250,3.924 18.149 C 3.765 17.316,3.752 16.853,3.770 12.460 C 3.787 8.016,3.784 8.106,3.977 7.206 C 4.341 5.516,5.180 4.699,6.874 4.382 C 7.058 4.348,7.214 4.320,7.219 4.320 C 7.225 4.320,7.238 4.524,7.247 4.773 C 7.262 5.155,7.279 5.249,7.355 5.372 C 7.708 5.944,8.577 5.810,8.716 5.162 C 8.740 5.049,8.760 4.795,8.760 4.598 L 8.760 4.240 11.995 4.240 L 15.230 4.240 15.247 4.732 M6.815 12.278 C 6.331 12.393,6.098 13.004,6.383 13.408 C 6.447 13.499,6.572 13.610,6.660 13.656 C 6.819 13.739,6.851 13.740,10.879 13.751 C 13.744 13.759,15.001 13.749,15.153 13.717 C 15.902 13.562,15.930 12.473,15.189 12.286 C 14.979 12.234,7.034 12.226,6.815 12.278 M6.815 16.278 C 6.331 16.393,6.098 17.004,6.383 17.408 C 6.447 17.499,6.572 17.610,6.660 17.656 C 6.817 17.738,6.873 17.740,9.377 17.751 C 11.157 17.759,11.999 17.749,12.150 17.718 C 12.902 17.562,12.931 16.473,12.189 16.286 C 11.980 16.234,7.032 16.226,6.815 16.278 " stroke="none" fill-rule="evenodd" fill="black"></path></svg>