<svg width="24" height="24" viewBox="0 0 24 24" fill="none" xmlns="http://www.w3.org/2000/svg"><path d="M9.815 1.277 C 9.329 1.398,9.098 2.004,9.383 2.408 C 9.447 2.499,9.572 2.610,9.660 2.656 C 9.818 2.739,9.874 2.740,13.260 2.765 C 15.336 2.780,16.787 2.806,16.920 2.831 C 17.712 2.980,18.168 3.131,18.615 3.394 C 19.441 3.882,19.894 4.727,20.148 6.260 C 20.207 6.611,20.217 7.182,20.229 10.945 L 20.244 15.230 18.812 15.250 C 17.241 15.273,16.941 15.306,16.356 15.519 C 15.487 15.836,14.836 16.488,14.517 17.361 C 14.306 17.941,14.273 18.244,14.250 19.812 L 14.230 21.245 10.925 21.229 C 8.036 21.216,7.570 21.205,7.220 21.145 C 5.046 20.773,4.195 19.948,3.854 17.880 C 3.792 17.507,3.782 16.980,3.762 13.140 L 3.740 8.820 3.634 8.640 C 3.348 8.154,2.652 8.154,2.366 8.640 L 2.260 8.820 2.260 12.900 C 2.260 17.176,2.270 17.489,2.443 18.449 C 2.801 20.436,3.854 21.710,5.620 22.293 C 6.860 22.702,7.642 22.759,12.020 22.758 C 14.987 22.758,15.148 22.755,15.300 22.683 C 15.410 22.632,16.440 21.626,18.567 19.494 C 21.201 16.854,21.681 16.356,21.720 16.220 C 21.784 16.000,21.751 7.030,21.684 6.480 C 21.516 5.095,21.211 4.128,20.696 3.354 C 20.087 2.437,19.168 1.834,17.907 1.522 C 16.899 1.272,16.822 1.268,13.220 1.256 C 11.416 1.250,9.884 1.260,9.815 1.277 M2.940 1.537 C 2.791 1.603,2.619 1.784,2.563 1.933 C 2.500 2.097,2.511 2.385,2.584 2.532 C 2.619 2.602,2.965 2.979,3.353 3.369 L 4.058 4.079 3.334 4.809 C 2.935 5.211,2.580 5.598,2.545 5.668 C 2.378 5.997,2.519 6.455,2.842 6.636 C 3.033 6.744,3.358 6.765,3.522 6.681 C 3.576 6.654,3.957 6.296,4.369 5.887 L 5.118 5.143 5.869 5.886 C 6.560 6.570,6.635 6.633,6.810 6.670 C 7.389 6.792,7.832 6.349,7.710 5.770 C 7.673 5.595,7.610 5.520,6.926 4.829 L 6.183 4.078 6.887 3.369 C 7.274 2.979,7.614 2.616,7.641 2.562 C 7.725 2.398,7.704 2.073,7.596 1.882 C 7.415 1.559,6.957 1.418,6.628 1.585 C 6.558 1.620,6.189 1.957,5.809 2.334 L 5.119 3.018 4.409 2.313 C 4.019 1.925,3.642 1.579,3.572 1.544 C 3.418 1.467,3.105 1.463,2.940 1.537 M6.815 9.278 C 6.331 9.393,6.098 10.004,6.383 10.408 C 6.447 10.499,6.572 10.610,6.660 10.656 C 6.819 10.739,6.851 10.740,10.879 10.751 C 13.744 10.759,15.001 10.749,15.153 10.717 C 15.902 10.562,15.930 9.473,15.189 9.286 C 14.979 9.234,7.034 9.226,6.815 9.278 M6.815 13.278 C 6.331 13.393,6.098 14.004,6.383 14.408 C 6.447 14.499,6.572 14.610,6.660 14.656 C 6.817 14.738,6.873 14.740,9.377 14.751 C 11.157 14.759,11.999 14.749,12.150 14.718 C 12.902 14.562,12.931 13.473,12.189 13.286 C 11.980 13.234,7.032 13.226,6.815 13.278 M17.480 18.460 L 15.780 20.160 15.769 19.342 C 15.757 18.444,15.798 18.126,15.976 17.738 C 16.112 17.441,16.401 17.144,16.696 16.999 C 17.087 16.807,17.361 16.767,18.320 16.763 L 19.180 16.760 17.480 18.460 " stroke="none" fill-rule="evenodd" fill="black"></path></svg>