<svg width="24" height="24" viewBox="0 0 24 24" fill="none" xmlns="http://www.w3.org/2000/svg"><path d="M8.080 1.282 C 4.008 1.495,1.895 3.296,1.383 6.991 C 1.270 7.803,1.242 8.816,1.242 12.000 C 1.242 16.504,1.302 17.273,1.760 18.650 C 2.532 20.963,4.206 22.226,7.027 22.622 C 7.786 22.728,8.902 22.759,12.000 22.759 C 15.098 22.759,16.214 22.728,16.973 22.622 C 19.443 22.275,20.996 21.288,21.897 19.490 C 22.379 18.530,22.638 17.369,22.720 15.807 C 22.775 14.752,22.772 10.101,22.716 9.838 C 22.575 9.182,21.713 9.051,21.353 9.631 L 21.260 9.780 21.237 13.080 C 21.211 16.685,21.212 16.674,20.960 17.688 C 20.504 19.519,19.520 20.504,17.688 20.960 C 16.622 21.226,16.745 21.220,12.000 21.220 C 8.064 21.220,7.661 21.214,7.240 21.148 C 4.450 20.713,3.283 19.551,2.854 16.780 C 2.785 16.335,2.780 15.989,2.780 12.000 C 2.780 8.011,2.785 7.665,2.854 7.220 C 3.281 4.461,4.433 3.304,7.200 2.855 C 7.561 2.796,8.078 2.783,10.900 2.763 C 14.010 2.741,14.188 2.736,14.332 2.664 C 14.928 2.368,14.832 1.448,14.189 1.286 C 13.979 1.234,9.077 1.230,8.080 1.282 M18.740 1.266 C 17.415 1.385,16.327 2.085,15.719 3.212 C 15.400 3.803,15.271 4.320,15.271 5.000 C 15.271 5.682,15.400 6.197,15.721 6.792 C 16.078 7.453,16.549 7.923,17.212 8.281 C 17.803 8.600,18.320 8.729,19.000 8.729 C 19.680 8.729,20.197 8.600,20.788 8.281 C 21.451 7.923,21.922 7.453,22.279 6.792 C 22.600 6.197,22.729 5.682,22.729 5.000 C 22.729 4.320,22.600 3.803,22.281 3.212 C 21.832 2.381,21.122 1.779,20.215 1.463 C 19.793 1.316,19.149 1.230,18.740 1.266 M19.578 2.821 C 19.949 2.918,20.274 3.112,20.581 3.419 C 21.041 3.879,21.240 4.356,21.240 5.000 C 21.240 5.644,21.041 6.121,20.581 6.581 C 20.121 7.041,19.644 7.240,19.000 7.240 C 18.356 7.240,17.879 7.041,17.419 6.581 C 16.959 6.121,16.760 5.644,16.760 5.000 C 16.760 4.356,16.959 3.879,17.419 3.419 C 17.719 3.118,18.050 2.919,18.404 2.823 C 18.692 2.746,19.285 2.745,19.578 2.821 M6.815 12.278 C 6.331 12.393,6.098 13.004,6.383 13.408 C 6.447 13.499,6.572 13.610,6.660 13.656 C 6.817 13.738,6.873 13.740,9.377 13.751 C 11.157 13.759,11.999 13.749,12.150 13.718 C 12.902 13.562,12.931 12.473,12.189 12.286 C 11.980 12.234,7.032 12.226,6.815 12.278 M6.815 16.278 C 6.331 16.393,6.098 17.004,6.383 17.408 C 6.447 17.499,6.572 17.610,6.660 17.656 C 6.819 17.740,6.843 17.740,11.380 17.751 C 14.605 17.758,16.002 17.749,16.153 17.717 C 16.902 17.562,16.929 16.473,16.189 16.286 C 15.979 16.234,7.034 16.226,6.815 16.278 " stroke="none" fill-rule="evenodd" fill="black"></path></svg>