<svg width="24" height="24" viewBox="0 0 24 24" fill="none" xmlns="http://www.w3.org/2000/svg"><path d="M11.394 1.284 C 9.126 1.459,6.964 2.779,5.752 4.728 C 5.339 5.393,5.022 6.126,4.839 6.844 C 4.664 7.527,4.635 7.881,4.602 9.640 C 4.571 11.328,4.570 11.343,4.462 11.720 C 4.305 12.265,4.175 12.520,3.392 13.823 C 3.008 14.463,2.647 15.103,2.590 15.246 C 1.999 16.723,2.613 18.289,4.048 18.960 C 4.589 19.214,6.347 19.700,7.480 19.911 L 8.091 20.025 8.239 20.366 C 8.760 21.576,9.725 22.417,10.988 22.763 C 11.457 22.892,12.298 22.913,12.801 22.809 C 14.157 22.528,15.287 21.584,15.786 20.312 L 15.891 20.043 16.116 20.000 C 17.787 19.680,19.485 19.221,20.044 18.938 C 20.715 18.598,21.242 17.979,21.507 17.220 C 21.610 16.926,21.619 16.852,21.619 16.320 C 21.618 15.440,21.603 15.401,20.554 13.649 C 19.473 11.843,19.480 11.869,19.438 9.580 C 19.422 8.656,19.388 7.774,19.363 7.620 C 19.099 5.987,18.397 4.598,17.261 3.457 C 15.975 2.167,14.363 1.420,12.560 1.281 C 12.006 1.238,11.997 1.238,11.394 1.284 M12.812 2.803 C 15.085 3.144,16.896 4.658,17.637 6.834 C 17.896 7.595,17.958 8.202,17.959 9.960 C 17.960 11.300,17.988 11.558,18.204 12.288 C 18.379 12.877,18.501 13.117,19.302 14.460 C 19.695 15.120,20.052 15.759,20.093 15.880 C 20.311 16.516,19.962 17.326,19.347 17.614 C 18.685 17.924,16.519 18.451,15.140 18.636 C 13.912 18.802,13.604 18.820,12.020 18.820 C 10.441 18.820,10.118 18.801,8.940 18.639 C 7.454 18.435,5.349 17.922,4.656 17.597 C 4.371 17.462,4.074 17.165,3.949 16.889 C 3.836 16.637,3.830 16.180,3.936 15.900 C 3.978 15.790,4.345 15.143,4.752 14.461 C 5.550 13.126,5.733 12.743,5.919 12.025 C 6.083 11.389,6.120 10.909,6.120 9.430 C 6.120 8.091,6.156 7.665,6.319 7.100 C 6.534 6.353,6.881 5.654,7.321 5.082 C 7.590 4.732,8.155 4.171,8.500 3.911 C 9.206 3.381,10.207 2.960,11.100 2.820 C 11.506 2.756,12.437 2.747,12.812 2.803 M11.815 5.717 C 11.638 5.760,11.462 5.896,11.353 6.071 L 11.260 6.220 11.260 8.060 C 11.260 9.072,11.273 9.948,11.290 10.007 C 11.363 10.269,11.710 10.518,12.000 10.518 C 12.290 10.518,12.637 10.269,12.710 10.007 C 12.727 9.948,12.740 9.081,12.740 8.080 C 12.740 6.312,12.738 6.255,12.656 6.100 C 12.503 5.807,12.134 5.639,11.815 5.717 M11.039 20.319 C 11.922 20.355,13.911 20.316,14.070 20.260 C 14.168 20.226,14.117 20.317,13.914 20.539 C 12.899 21.650,11.265 21.692,10.190 20.636 C 9.870 20.322,9.812 20.223,9.970 20.259 C 10.020 20.271,10.501 20.298,11.039 20.319 " stroke="none" fill-rule="evenodd" fill="black"></path></svg>