<svg width="24" height="24" viewBox="0 0 24 24" fill="none" xmlns="http://www.w3.org/2000/svg"><path d="M8.080 1.282 C 4.008 1.495,1.895 3.296,1.383 6.991 C 1.270 7.803,1.242 8.816,1.242 12.000 C 1.242 16.504,1.302 17.273,1.760 18.650 C 2.532 20.963,4.206 22.226,7.027 22.622 C 7.786 22.728,8.902 22.759,12.000 22.759 C 15.098 22.759,16.214 22.728,16.973 22.622 C 19.443 22.275,20.996 21.288,21.897 19.490 C 22.379 18.530,22.638 17.369,22.720 15.807 C 22.775 14.752,22.772 10.101,22.716 9.838 C 22.575 9.182,21.713 9.051,21.353 9.631 L 21.260 9.780 21.237 13.080 C 21.211 16.685,21.212 16.674,20.960 17.688 C 20.504 19.519,19.520 20.504,17.688 20.960 C 16.622 21.226,16.745 21.220,12.000 21.220 C 8.064 21.220,7.661 21.214,7.240 21.148 C 4.450 20.713,3.283 19.551,2.854 16.780 C 2.785 16.335,2.780 15.989,2.780 12.000 C 2.780 8.011,2.785 7.665,2.854 7.220 C 3.281 4.461,4.433 3.304,7.200 2.855 C 7.561 2.796,8.078 2.783,10.900 2.763 C 14.010 2.741,14.188 2.736,14.332 2.664 C 14.928 2.368,14.832 1.448,14.189 1.286 C 13.979 1.234,9.077 1.230,8.080 1.282 M18.740 1.266 C 17.415 1.385,16.327 2.085,15.719 3.212 C 15.400 3.803,15.271 4.320,15.271 5.000 C 15.271 5.682,15.400 6.197,15.721 6.792 C 16.078 7.453,16.549 7.923,17.212 8.281 C 17.803 8.600,18.320 8.729,19.000 8.729 C 19.680 8.729,20.197 8.600,20.788 8.281 C 21.451 7.923,21.922 7.453,22.279 6.792 C 22.600 6.197,22.729 5.682,22.729 5.000 C 22.729 4.320,22.600 3.803,22.281 3.212 C 21.832 2.381,21.122 1.779,20.215 1.463 C 19.793 1.316,19.149 1.230,18.740 1.266 M19.578 2.821 C 19.949 2.918,20.274 3.112,20.581 3.419 C 21.041 3.879,21.240 4.356,21.240 5.000 C 21.240 5.644,21.041 6.121,20.581 6.581 C 20.121 7.041,19.644 7.240,19.000 7.240 C 18.356 7.240,17.879 7.041,17.419 6.581 C 16.959 6.121,16.760 5.644,16.760 5.000 C 16.760 4.356,16.959 3.879,17.419 3.419 C 17.719 3.118,18.050 2.919,18.404 2.823 C 18.692 2.746,19.285 2.745,19.578 2.821 M8.060 11.309 C 7.367 11.476,6.791 11.877,6.426 12.448 C 5.697 13.587,5.805 15.072,6.708 16.357 C 7.104 16.920,7.974 17.647,8.660 17.989 C 9.530 18.423,10.104 18.422,10.976 17.985 C 11.517 17.713,11.979 17.379,12.419 16.940 C 13.004 16.356,13.388 15.697,13.583 14.940 C 13.675 14.582,13.684 14.485,13.668 14.020 C 13.641 13.280,13.479 12.805,13.060 12.249 C 12.736 11.817,12.136 11.435,11.608 11.325 C 11.101 11.218,10.486 11.291,10.036 11.511 L 9.811 11.621 9.536 11.494 C 9.385 11.424,9.163 11.348,9.044 11.324 C 8.829 11.281,8.215 11.271,8.060 11.309 M8.819 12.805 C 8.926 12.834,9.053 12.925,9.209 13.082 C 9.626 13.505,10.020 13.510,10.414 13.099 C 10.527 12.980,10.687 12.855,10.769 12.822 C 11.205 12.641,11.737 12.871,11.989 13.348 C 12.279 13.898,12.262 14.437,11.935 15.105 C 11.750 15.484,11.428 15.866,11.028 16.184 C 10.688 16.453,9.979 16.840,9.824 16.840 C 9.708 16.840,9.140 16.564,8.846 16.364 C 7.993 15.785,7.441 14.911,7.441 14.140 C 7.441 13.228,8.088 12.602,8.819 12.805 " stroke="none" fill-rule="evenodd" fill="black"></path></svg>