<svg width="24" height="24" viewBox="0 0 24 24" fill="none" xmlns="http://www.w3.org/2000/svg"><path d="M11.320 1.281 C 9.259 1.398,7.250 2.142,5.530 3.424 C 4.912 3.884,3.884 4.912,3.424 5.530 C 1.875 7.608,1.136 10.050,1.281 12.610 C 1.402 14.759,2.118 16.717,3.424 18.470 C 3.880 19.083,4.909 20.111,5.530 20.575 C 7.606 22.126,10.070 22.870,12.627 22.717 C 14.790 22.588,16.724 21.879,18.470 20.575 C 19.087 20.115,20.115 19.087,20.575 18.470 C 21.649 17.032,22.350 15.379,22.617 13.657 C 22.830 12.280,22.726 10.151,22.420 9.620 C 22.168 9.182,21.458 9.163,21.196 9.587 C 21.045 9.830,21.036 9.939,21.124 10.456 C 21.230 11.075,21.270 12.368,21.203 12.961 C 21.079 14.059,20.781 15.081,20.302 16.060 C 19.830 17.024,19.389 17.648,18.622 18.434 C 17.805 19.273,17.063 19.814,16.060 20.303 C 14.747 20.944,13.463 21.240,12.000 21.240 C 10.537 21.240,9.253 20.944,7.940 20.303 C 6.937 19.814,6.195 19.273,5.378 18.434 C 4.611 17.648,4.170 17.024,3.698 16.060 C 3.057 14.752,2.760 13.465,2.760 12.000 C 2.760 9.860,3.473 7.838,4.813 6.180 C 5.148 5.765,5.972 4.962,6.381 4.653 C 7.446 3.847,8.767 3.232,10.002 2.966 C 11.169 2.714,12.548 2.690,13.690 2.901 C 14.123 2.981,14.345 2.928,14.567 2.694 C 14.701 2.553,14.760 2.401,14.760 2.200 C 14.760 1.999,14.701 1.847,14.567 1.706 C 14.402 1.531,14.284 1.487,13.752 1.401 C 13.333 1.333,12.068 1.228,11.880 1.247 C 11.847 1.250,11.595 1.265,11.320 1.281 M18.740 1.266 C 17.415 1.385,16.327 2.085,15.719 3.212 C 15.400 3.803,15.271 4.320,15.271 5.000 C 15.271 5.682,15.400 6.197,15.721 6.792 C 16.078 7.453,16.549 7.923,17.212 8.281 C 17.803 8.600,18.320 8.729,19.000 8.729 C 19.680 8.729,20.197 8.600,20.788 8.281 C 21.451 7.923,21.922 7.453,22.279 6.792 C 22.600 6.197,22.729 5.682,22.729 5.000 C 22.729 4.320,22.600 3.803,22.281 3.212 C 21.832 2.381,21.122 1.779,20.215 1.463 C 19.793 1.316,19.149 1.230,18.740 1.266 M19.578 2.821 C 19.949 2.918,20.274 3.112,20.581 3.419 C 21.041 3.879,21.240 4.356,21.240 5.000 C 21.240 5.644,21.041 6.121,20.581 6.581 C 20.121 7.041,19.644 7.240,19.000 7.240 C 18.356 7.240,17.879 7.041,17.419 6.581 C 16.959 6.121,16.760 5.644,16.760 5.000 C 16.760 4.356,16.959 3.879,17.419 3.419 C 17.719 3.118,18.050 2.919,18.404 2.823 C 18.692 2.746,19.285 2.745,19.578 2.821 " stroke="none" fill-rule="evenodd" fill="black"></path></svg>