<svg width="24" height="24" viewBox="0 0 24 24" fill="none" xmlns="http://www.w3.org/2000/svg"><path d="M11.420 1.266 C 10.760 1.406,10.150 1.828,9.740 2.428 C 9.641 2.572,9.564 2.628,9.302 2.741 C 7.466 3.536,5.991 5.265,5.499 7.199 C 5.318 7.911,5.309 8.034,5.280 10.160 C 5.244 12.834,5.285 12.671,4.202 14.483 C 3.375 15.868,3.279 16.096,3.250 16.760 C 3.228 17.268,3.297 17.604,3.511 18.040 C 3.718 18.463,4.219 18.964,4.660 19.189 C 5.193 19.461,6.500 19.845,7.755 20.097 C 8.137 20.174,8.455 20.242,8.460 20.248 C 8.466 20.255,8.524 20.389,8.590 20.547 C 9.012 21.560,9.884 22.319,11.020 22.665 C 11.348 22.765,11.437 22.774,12.020 22.774 C 12.599 22.774,12.694 22.764,13.020 22.667 C 13.511 22.520,13.963 22.287,14.352 21.979 C 14.844 21.590,15.331 20.933,15.505 20.424 C 15.548 20.296,15.594 20.234,15.654 20.220 C 15.701 20.210,15.974 20.155,16.260 20.099 C 17.319 19.891,18.847 19.459,19.254 19.253 C 19.781 18.986,20.196 18.562,20.462 18.020 C 20.838 17.250,20.853 16.414,20.503 15.660 C 20.432 15.506,20.115 14.957,19.800 14.440 C 19.148 13.369,19.043 13.157,18.893 12.611 L 18.785 12.220 18.759 10.160 C 18.731 8.033,18.721 7.900,18.541 7.206 C 18.042 5.279,16.619 3.594,14.800 2.775 C 14.479 2.630,14.401 2.577,14.300 2.428 C 13.647 1.472,12.545 1.027,11.420 1.266 M13.037 3.781 C 14.197 4.003,15.156 4.556,15.974 5.476 C 16.570 6.146,17.029 7.107,17.205 8.053 C 17.233 8.203,17.263 9.108,17.280 10.360 C 17.311 12.603,17.313 12.615,17.568 13.377 C 17.729 13.858,17.852 14.096,18.481 15.140 C 19.329 16.546,19.365 16.648,19.197 17.169 C 19.089 17.506,18.885 17.756,18.602 17.899 C 18.237 18.082,17.001 18.429,15.971 18.636 C 14.609 18.910,13.500 19.017,12.020 19.017 C 10.515 19.017,9.437 18.913,8.060 18.638 C 6.920 18.409,5.562 18.010,5.260 17.813 C 4.819 17.527,4.632 17.042,4.774 16.553 C 4.813 16.420,5.094 15.906,5.483 15.256 C 6.224 14.021,6.310 13.858,6.458 13.420 C 6.727 12.622,6.728 12.610,6.760 10.360 C 6.790 8.223,6.801 8.083,6.983 7.454 C 7.516 5.614,8.980 4.236,10.860 3.804 C 11.440 3.671,12.408 3.661,13.037 3.781 M11.580 20.507 C 12.218 20.518,12.965 20.510,13.240 20.490 C 13.515 20.470,13.749 20.462,13.760 20.471 C 13.771 20.481,13.669 20.591,13.533 20.716 C 12.680 21.504,11.382 21.510,10.522 20.732 C 10.283 20.516,10.213 20.405,10.350 20.459 C 10.388 20.474,10.942 20.495,11.580 20.507 " stroke="none" fill-rule="evenodd" fill="black"></path></svg>