<svg width="24" height="24" viewBox="0 0 24 24" fill="none" xmlns="http://www.w3.org/2000/svg"><path d="M11.320 1.281 C 7.041 1.525,3.252 4.409,1.843 8.497 C 1.180 10.418,1.082 12.560,1.564 14.550 C 2.505 18.428,5.572 21.495,9.450 22.436 C 11.106 22.837,12.894 22.837,14.550 22.436 C 18.428 21.495,21.495 18.428,22.436 14.550 C 22.837 12.894,22.837 11.106,22.436 9.450 C 21.425 5.282,17.985 2.095,13.742 1.398 C 13.334 1.331,12.074 1.229,11.880 1.247 C 11.847 1.250,11.595 1.265,11.320 1.281 M13.146 2.822 C 14.201 2.960,15.125 3.237,16.060 3.696 C 18.877 5.079,20.768 7.722,21.178 10.854 C 21.301 11.786,21.244 13.026,21.034 13.998 C 20.745 15.343,20.003 16.855,19.121 17.900 C 18.247 18.935,17.240 19.726,16.060 20.304 C 14.761 20.940,13.462 21.240,12.000 21.240 C 10.538 21.240,9.236 20.940,7.940 20.304 C 5.123 18.921,3.232 16.278,2.822 13.146 C 2.699 12.214,2.756 10.974,2.966 10.002 C 3.177 9.020,3.703 7.775,4.268 6.920 C 5.750 4.677,8.131 3.188,10.820 2.823 C 11.380 2.746,12.569 2.746,13.146 2.822 M11.540 6.281 C 9.212 6.471,7.269 8.038,6.679 10.200 C 6.555 10.655,6.513 11.006,6.514 11.560 C 6.518 12.982,7.007 14.186,8.058 15.360 L 8.399 15.740 7.569 15.760 C 7.047 15.773,6.710 15.797,6.660 15.827 C 6.554 15.888,6.382 16.075,6.319 16.198 C 6.249 16.334,6.256 16.677,6.332 16.825 C 6.422 16.999,6.655 17.192,6.809 17.220 C 6.881 17.233,7.706 17.238,8.643 17.232 L 10.346 17.220 10.516 17.107 C 10.824 16.904,10.926 16.491,10.750 16.167 C 10.700 16.076,10.453 15.773,10.200 15.494 C 8.670 13.804,8.655 13.786,8.386 13.252 C 8.306 13.093,8.192 12.805,8.133 12.612 C 8.036 12.292,8.026 12.198,8.023 11.580 C 8.020 10.796,8.057 10.610,8.343 10.005 C 8.831 8.970,9.711 8.245,10.900 7.898 C 11.331 7.772,12.162 7.722,12.628 7.795 C 14.215 8.043,15.467 9.131,15.904 10.640 C 15.965 10.851,15.979 11.028,15.977 11.580 C 15.974 12.200,15.965 12.291,15.867 12.611 C 15.755 12.979,15.529 13.455,15.323 13.760 C 15.256 13.859,14.773 14.414,14.250 14.993 C 13.728 15.572,13.269 16.112,13.231 16.193 C 13.145 16.376,13.141 16.598,13.222 16.790 C 13.304 16.988,13.390 17.077,13.580 17.165 C 13.727 17.232,13.876 17.238,15.447 17.239 C 16.559 17.240,17.194 17.225,17.267 17.197 C 17.540 17.095,17.731 16.807,17.731 16.500 C 17.731 16.273,17.661 16.111,17.494 15.953 C 17.309 15.778,17.204 15.760,16.372 15.760 L 15.590 15.760 15.775 15.550 C 16.382 14.864,16.666 14.468,16.937 13.926 C 17.494 12.817,17.640 11.452,17.332 10.240 C 16.703 7.768,14.208 6.064,11.540 6.281 " stroke="none" fill-rule="evenodd" fill="black"></path></svg>