<svg width="24" height="24" viewBox="0 0 24 24" fill="none" xmlns="http://www.w3.org/2000/svg"><path d="M11.643 1.921 C 10.960 2.064,10.378 2.388,9.625 3.041 C 9.053 3.538,2.387 10.234,2.086 10.614 C 0.768 12.279,0.847 13.417,2.405 15.207 C 2.783 15.642,6.419 19.299,7.136 19.966 C 8.375 21.119,9.182 21.559,10.060 21.559 C 10.944 21.559,11.736 21.125,13.000 19.949 C 14.071 18.953,19.494 13.478,19.827 13.057 C 20.185 12.604,20.389 12.284,20.556 11.913 C 20.776 11.425,20.817 11.223,20.817 10.640 C 20.817 10.126,20.810 10.080,20.677 9.699 C 20.437 9.011,20.080 8.460,19.353 7.653 C 18.630 6.851,15.054 3.322,14.594 2.958 C 13.673 2.226,13.001 1.929,12.200 1.898 C 11.991 1.890,11.740 1.901,11.643 1.921 M12.620 3.484 C 12.892 3.585,13.335 3.863,13.711 4.166 C 14.071 4.457,17.565 7.916,18.209 8.619 C 18.989 9.472,19.330 10.083,19.337 10.640 C 19.340 10.963,19.228 11.360,19.133 11.360 C 19.105 11.360,18.816 11.298,18.491 11.223 C 13.853 10.144,9.043 10.041,4.426 10.923 C 4.077 10.989,3.775 11.038,3.755 11.032 C 3.699 11.013,10.540 4.201,10.892 3.926 C 11.194 3.689,11.675 3.427,11.880 3.387 C 12.043 3.355,12.404 3.403,12.620 3.484 M11.709 11.840 C 13.823 11.913,15.402 12.098,17.375 12.504 C 17.749 12.581,18.078 12.657,18.107 12.674 C 18.169 12.708,11.996 18.887,11.440 19.348 C 10.294 20.298,9.824 20.298,8.680 19.347 C 8.284 19.019,4.635 15.402,3.869 14.580 C 3.264 13.930,2.975 13.559,2.803 13.212 C 2.644 12.892,2.647 12.852,2.831 12.802 C 4.677 12.305,7.359 11.922,9.540 11.844 C 10.024 11.827,10.456 11.810,10.500 11.807 C 10.544 11.804,11.088 11.819,11.709 11.840 M19.670 15.478 C 19.369 15.574,19.082 15.762,18.863 16.005 C 18.683 16.205,17.947 17.383,17.729 17.820 C 17.451 18.377,17.336 19.084,17.438 19.607 C 17.646 20.678,18.589 21.364,19.940 21.428 C 21.129 21.483,22.036 21.104,22.546 20.338 C 22.752 20.029,22.848 19.714,22.869 19.280 C 22.904 18.560,22.742 18.096,22.070 16.984 C 21.559 16.139,21.429 15.971,21.109 15.735 C 20.682 15.421,20.148 15.325,19.670 15.478 M20.361 17.070 C 20.545 17.303,21.243 18.512,21.320 18.729 C 21.422 19.020,21.422 19.280,21.321 19.478 C 21.154 19.805,20.819 19.935,20.140 19.935 C 19.461 19.935,19.126 19.805,18.959 19.478 C 18.858 19.280,18.858 19.020,18.960 18.729 C 19.061 18.442,19.810 17.185,19.985 17.008 C 20.133 16.858,20.203 16.870,20.361 17.070 " stroke="none" fill-rule="evenodd" fill="black"></path></svg>