<svg width="24" height="24" viewBox="0 0 24 24" fill="none" xmlns="http://www.w3.org/2000/svg"><path d="M11.360 2.282 C 8.069 2.521,5.269 4.889,4.459 8.120 C 4.244 8.980,4.240 9.064,4.240 12.955 C 4.240 15.990,4.250 16.625,4.301 16.969 C 4.742 19.905,7.003 22.192,9.923 22.657 C 10.476 22.745,11.148 22.752,11.300 22.671 C 11.540 22.544,11.720 22.256,11.720 22.000 C 11.720 21.845,11.623 21.609,11.508 21.487 C 11.351 21.318,11.209 21.275,10.704 21.239 C 9.866 21.179,9.395 21.055,8.658 20.700 C 7.292 20.041,6.253 18.763,5.883 17.286 C 5.726 16.661,5.720 16.489,5.721 12.992 C 5.722 9.368,5.729 9.186,5.919 8.443 C 6.537 6.023,8.564 4.199,11.060 3.817 C 11.524 3.746,12.445 3.746,12.880 3.817 C 14.282 4.047,15.416 4.620,16.381 5.584 C 17.334 6.537,17.883 7.604,18.149 9.020 C 18.198 9.280,18.212 9.902,18.228 12.352 C 18.241 14.355,18.233 15.496,18.204 15.759 C 18.128 16.455,17.895 16.942,17.400 17.439 C 16.864 17.976,16.367 18.196,15.614 18.230 C 15.059 18.255,14.692 18.181,14.229 17.951 C 13.759 17.719,13.241 17.196,13.006 16.719 C 12.729 16.159,12.721 16.079,12.721 13.849 C 12.720 11.726,12.719 11.712,12.508 11.487 C 12.186 11.142,11.576 11.213,11.336 11.623 L 11.240 11.787 11.240 13.869 C 11.240 15.560,11.251 16.011,11.300 16.270 C 11.655 18.140,13.187 19.543,15.060 19.714 C 16.974 19.889,18.710 18.819,19.426 17.023 C 19.700 16.335,19.693 16.432,19.710 12.960 C 19.727 9.616,19.711 9.182,19.542 8.379 C 19.117 6.367,17.895 4.603,16.139 3.470 C 15.410 3.000,14.410 2.595,13.541 2.420 C 13.110 2.332,12.141 2.231,11.880 2.246 C 11.825 2.249,11.591 2.265,11.360 2.282 " stroke="none" fill-rule="evenodd" fill="black"></path></svg>