<svg width="24" height="24" viewBox="0 0 24 24" fill="none" xmlns="http://www.w3.org/2000/svg"><path d="M12.600 3.078 C 11.203 3.295,9.977 3.833,8.860 4.720 C 8.684 4.860,7.459 6.056,6.137 7.377 C 3.726 9.788,3.424 10.119,3.031 10.780 C 2.644 11.431,2.356 12.164,2.198 12.900 C 2.089 13.409,2.047 14.594,2.118 15.135 C 2.299 16.494,2.889 17.770,3.814 18.799 C 4.127 19.147,4.282 19.240,4.556 19.240 C 4.980 19.240,5.291 18.929,5.291 18.503 C 5.291 18.245,5.234 18.139,4.872 17.732 C 3.310 15.973,3.124 13.349,4.422 11.371 C 4.614 11.077,5.061 10.609,7.156 8.508 C 8.533 7.126,9.786 5.899,9.940 5.780 C 12.043 4.160,14.977 4.053,17.180 5.514 C 19.947 7.349,20.807 10.977,19.159 13.858 C 18.812 14.464,18.490 14.816,16.193 17.103 C 14.099 19.189,13.875 19.399,13.612 19.534 C 13.214 19.739,12.790 19.840,12.344 19.839 C 11.560 19.836,10.944 19.584,10.408 19.048 C 9.832 18.472,9.591 17.891,9.595 17.086 C 9.597 16.574,9.662 16.298,9.888 15.840 C 10.050 15.511,10.104 15.450,11.524 14.020 C 13.128 12.403,13.121 12.412,13.062 12.019 C 13.039 11.865,12.998 11.794,12.842 11.638 C 12.686 11.482,12.615 11.441,12.461 11.418 C 12.068 11.359,12.068 11.360,10.567 12.853 C 9.812 13.605,9.087 14.361,8.956 14.534 C 8.675 14.904,8.357 15.539,8.243 15.955 C 8.041 16.694,8.047 17.519,8.260 18.260 C 8.745 19.946,10.220 21.170,11.940 21.312 C 13.054 21.404,14.030 21.123,14.940 20.446 C 15.259 20.209,19.434 16.028,19.759 15.620 C 20.610 14.552,21.151 13.350,21.386 12.000 C 21.483 11.448,21.501 10.307,21.422 9.740 C 20.930 6.200,18.289 3.549,14.769 3.062 C 14.168 2.979,13.194 2.987,12.600 3.078 " stroke="none" fill-rule="evenodd" fill="black"></path></svg>