<svg width="24" height="24" viewBox="0 0 24 24" fill="none" xmlns="http://www.w3.org/2000/svg"><path d="M14.815 1.277 C 14.638 1.321,14.461 1.456,14.353 1.631 L 14.260 1.780 14.260 12.000 L 14.260 22.220 14.353 22.369 C 14.710 22.943,15.576 22.812,15.716 22.162 C 15.740 22.048,15.760 21.574,15.760 21.098 L 15.760 20.240 16.530 20.240 C 18.983 20.238,20.436 19.792,21.237 18.792 C 21.788 18.104,22.092 17.147,22.198 15.762 C 22.253 15.053,22.253 8.947,22.198 8.238 C 22.092 6.853,21.788 5.896,21.237 5.208 C 20.435 4.207,18.986 3.762,16.530 3.760 L 15.760 3.760 15.759 2.890 C 15.758 1.954,15.729 1.731,15.580 1.536 C 15.421 1.327,15.078 1.211,14.815 1.277 M6.163 3.804 C 3.192 4.068,2.024 5.255,1.801 8.240 C 1.748 8.944,1.748 15.056,1.801 15.760 C 1.904 17.132,2.212 18.104,2.763 18.792 C 3.288 19.447,4.143 19.883,5.280 20.077 C 6.089 20.214,6.649 20.239,8.940 20.239 C 11.028 20.238,11.191 20.233,11.340 20.165 C 11.530 20.077,11.616 19.988,11.698 19.790 C 11.846 19.437,11.707 19.026,11.380 18.846 C 11.274 18.788,10.978 18.777,8.780 18.755 C 6.818 18.736,6.209 18.717,5.865 18.666 C 4.094 18.407,3.588 17.894,3.329 16.100 C 3.268 15.673,3.260 15.221,3.260 12.000 C 3.260 8.779,3.268 8.327,3.329 7.900 C 3.588 6.103,4.090 5.595,5.865 5.333 C 6.215 5.282,6.763 5.266,8.660 5.254 C 9.958 5.246,11.079 5.229,11.151 5.217 C 11.304 5.192,11.537 5.001,11.628 4.825 C 11.709 4.668,11.710 4.333,11.629 4.179 C 11.548 4.024,11.369 3.856,11.227 3.803 C 11.092 3.751,6.742 3.753,6.163 3.804 M18.135 5.337 C 19.892 5.580,20.412 6.106,20.671 7.900 C 20.732 8.327,20.740 8.779,20.740 12.000 C 20.740 15.221,20.732 15.673,20.671 16.100 C 20.530 17.078,20.333 17.594,19.963 17.961 C 19.428 18.491,18.569 18.699,16.730 18.747 L 15.760 18.772 15.760 12.000 L 15.760 5.228 16.730 5.253 C 17.264 5.266,17.896 5.304,18.135 5.337 M6.840 11.035 C 6.543 11.132,6.288 11.355,6.182 11.609 C 6.148 11.691,6.120 11.867,6.120 12.000 C 6.120 12.286,6.196 12.490,6.372 12.674 C 6.585 12.896,6.781 12.978,7.100 12.978 C 7.419 12.978,7.615 12.896,7.828 12.674 C 8.004 12.490,8.080 12.286,8.080 12.000 C 8.080 11.600,7.894 11.293,7.543 11.112 C 7.371 11.024,6.999 10.983,6.840 11.035 M10.840 11.035 C 10.543 11.132,10.288 11.355,10.182 11.609 C 10.102 11.800,10.102 12.200,10.182 12.391 C 10.261 12.580,10.454 12.783,10.660 12.892 C 10.779 12.956,10.891 12.978,11.100 12.978 C 11.419 12.978,11.615 12.896,11.828 12.674 C 12.004 12.490,12.080 12.286,12.080 12.000 C 12.080 11.600,11.894 11.293,11.543 11.112 C 11.371 11.024,10.999 10.983,10.840 11.035 " stroke="none" fill-rule="evenodd" fill="black"></path></svg>