<svg width="24" height="24" viewBox="0 0 24 24" fill="none" xmlns="http://www.w3.org/2000/svg"><path d="M14.295 2.759 C 13.715 2.911,13.181 3.265,12.829 3.730 C 12.709 3.890,12.299 4.515,11.919 5.120 C 11.539 5.725,11.216 6.233,11.202 6.250 C 11.188 6.266,10.277 6.224,9.178 6.155 C 7.437 6.047,7.116 6.037,6.680 6.075 C 4.882 6.231,4.025 7.125,3.742 9.140 C 3.538 10.589,2.720 17.809,2.720 18.161 C 2.720 18.845,2.876 19.393,3.227 19.935 C 3.783 20.795,4.778 21.320,5.853 21.320 C 6.211 21.320,14.752 20.327,15.309 20.220 C 16.488 19.995,17.264 19.484,17.653 18.677 C 18.021 17.916,18.043 17.541,17.882 14.902 C 17.782 13.255,17.768 12.856,17.809 12.818 C 17.837 12.793,18.355 12.460,18.960 12.078 C 20.265 11.255,20.416 11.148,20.627 10.894 C 21.099 10.326,21.289 9.784,21.284 9.016 C 21.279 8.302,21.043 7.638,20.584 7.047 C 20.487 6.922,19.636 6.054,18.694 5.117 C 16.899 3.333,16.679 3.145,16.123 2.919 C 15.523 2.674,14.845 2.615,14.295 2.759 M15.633 4.339 C 15.929 4.479,16.007 4.551,17.725 6.272 C 19.367 7.916,19.521 8.082,19.645 8.339 C 19.772 8.602,19.780 8.643,19.780 9.039 C 19.780 9.418,19.769 9.480,19.674 9.660 C 19.615 9.770,19.516 9.908,19.454 9.967 C 19.339 10.075,17.143 11.480,17.089 11.480 C 17.073 11.480,16.045 10.465,14.804 9.224 C 13.069 7.489,12.554 6.952,12.575 6.899 C 12.619 6.784,13.885 4.792,14.027 4.613 C 14.405 4.139,14.996 4.038,15.633 4.339 M9.427 7.666 L 11.235 7.775 13.753 10.297 L 16.271 12.820 16.357 14.380 C 16.405 15.238,16.463 16.200,16.487 16.518 C 16.551 17.374,16.450 17.951,16.188 18.234 C 15.964 18.477,15.487 18.675,14.883 18.778 C 14.694 18.811,12.614 19.064,10.260 19.342 C 6.941 19.733,5.918 19.841,5.705 19.822 C 5.554 19.809,5.412 19.788,5.391 19.774 C 5.370 19.761,6.000 19.100,6.791 18.305 C 7.583 17.510,8.262 16.797,8.301 16.721 C 8.388 16.548,8.392 16.218,8.309 16.059 C 8.228 15.904,8.049 15.736,7.907 15.683 C 7.758 15.626,7.488 15.631,7.343 15.694 C 7.278 15.721,6.564 16.409,5.756 17.221 C 4.947 18.034,4.272 18.685,4.256 18.669 C 4.239 18.652,4.218 18.491,4.209 18.309 C 4.197 18.060,4.315 16.942,4.697 13.700 C 5.247 9.034,5.247 9.037,5.383 8.600 C 5.632 7.805,6.022 7.569,7.100 7.561 C 7.386 7.559,8.433 7.606,9.427 7.666 " stroke="none" fill-rule="evenodd" fill="black"></path></svg>