<svg width="24" height="24" viewBox="0 0 24 24" fill="none" xmlns="http://www.w3.org/2000/svg"><path d="M11.596 1.284 C 10.991 1.362,10.341 1.680,9.851 2.136 C 9.651 2.323,8.663 3.545,6.827 5.876 C 5.327 7.781,4.003 9.484,3.884 9.660 C 3.621 10.048,3.351 10.608,3.255 10.960 C 3.208 11.135,3.185 11.363,3.186 11.660 C 3.186 12.064,3.197 12.129,3.324 12.461 C 3.488 12.889,3.740 13.282,4.103 13.674 C 4.248 13.830,5.040 14.556,5.863 15.286 C 6.686 16.016,7.360 16.630,7.360 16.650 C 7.360 16.670,7.222 17.293,7.052 18.033 C 6.757 19.325,6.745 19.401,6.744 19.880 C 6.744 20.318,6.757 20.420,6.853 20.709 C 7.109 21.478,7.812 22.200,8.592 22.496 C 9.218 22.734,9.187 22.731,11.700 22.749 C 14.145 22.767,14.668 22.745,15.193 22.599 C 16.518 22.232,17.366 21.121,17.312 19.824 C 17.298 19.508,17.226 19.113,16.979 18.012 C 16.805 17.237,16.671 16.597,16.682 16.588 C 16.955 16.365,19.601 13.987,19.745 13.835 C 20.578 12.960,20.923 12.125,20.804 11.269 C 20.727 10.717,20.536 10.266,20.112 9.635 C 19.887 9.302,15.117 3.223,14.504 2.490 C 13.950 1.826,13.243 1.413,12.460 1.295 C 12.064 1.235,11.984 1.234,11.596 1.284 M11.280 5.062 C 11.280 7.074,11.283 7.170,11.359 7.318 C 11.507 7.608,11.801 7.753,12.141 7.702 C 12.294 7.679,12.366 7.638,12.518 7.485 C 12.635 7.368,12.717 7.247,12.733 7.164 C 12.748 7.090,12.760 6.114,12.760 4.995 C 12.760 3.876,12.775 2.960,12.794 2.960 C 12.904 2.960,13.263 3.324,13.715 3.892 C 16.139 6.940,18.835 10.389,18.967 10.610 C 19.366 11.275,19.417 11.636,19.179 12.111 C 18.976 12.516,18.682 12.814,17.024 14.288 L 15.549 15.600 12.004 15.598 L 8.460 15.596 7.000 14.299 C 5.029 12.547,4.826 12.330,4.687 11.826 C 4.599 11.508,4.783 10.981,5.180 10.413 C 5.277 10.275,6.546 8.651,8.000 6.804 C 10.468 3.670,11.062 2.960,11.221 2.960 C 11.272 2.960,11.280 3.244,11.280 5.062 M15.260 17.170 C 15.666 18.904,15.845 19.802,15.829 20.021 C 15.787 20.570,15.395 20.993,14.756 21.178 C 14.558 21.235,14.231 21.241,11.956 21.231 L 9.380 21.220 9.149 21.127 C 8.859 21.010,8.470 20.657,8.334 20.388 C 8.154 20.033,8.163 19.912,8.476 18.520 C 8.632 17.827,8.769 17.220,8.780 17.170 L 8.802 17.080 12.020 17.080 L 15.238 17.080 15.260 17.170 " stroke="none" fill-rule="evenodd" fill="black"></path></svg>