<svg width="24" height="24" viewBox="0 0 24 24" fill="none" xmlns="http://www.w3.org/2000/svg"><path d="M8.080 1.282 C 4.008 1.495,1.895 3.296,1.383 6.991 C 1.270 7.803,1.242 8.816,1.242 12.000 C 1.242 16.504,1.302 17.273,1.760 18.650 C 2.532 20.963,4.206 22.226,7.027 22.622 C 7.786 22.728,8.902 22.759,12.000 22.759 C 15.098 22.759,16.214 22.728,16.973 22.622 C 19.443 22.275,20.996 21.288,21.897 19.490 C 22.379 18.530,22.638 17.369,22.720 15.807 C 22.771 14.838,22.771 9.162,22.720 8.193 C 22.657 6.998,22.521 6.191,22.242 5.356 C 21.632 3.531,20.469 2.367,18.650 1.760 C 17.788 1.473,17.023 1.344,15.806 1.280 C 14.952 1.235,8.952 1.237,8.080 1.282 M16.800 2.854 C 19.586 3.316,20.714 4.454,21.148 7.240 C 21.214 7.661,21.220 8.064,21.220 12.000 C 21.220 15.936,21.214 16.339,21.148 16.760 C 20.712 19.558,19.558 20.712,16.760 21.148 C 16.339 21.214,15.936 21.220,12.000 21.220 C 8.064 21.220,7.661 21.214,7.240 21.148 C 4.450 20.713,3.283 19.551,2.854 16.780 C 2.785 16.335,2.780 15.989,2.780 12.000 C 2.780 7.247,2.776 7.337,3.044 6.288 C 3.557 4.282,4.722 3.274,6.960 2.900 C 7.690 2.777,8.048 2.769,12.200 2.777 C 15.963 2.784,16.422 2.791,16.800 2.854 M13.279 6.092 C 12.988 6.174,12.582 6.424,12.386 6.641 C 12.287 6.752,12.013 7.148,11.778 7.521 C 11.392 8.134,11.340 8.200,11.240 8.200 C 11.179 8.200,10.672 8.171,10.114 8.136 C 9.556 8.101,8.965 8.084,8.800 8.098 C 7.624 8.199,7.020 8.709,6.759 9.820 C 6.677 10.169,6.040 15.457,6.041 15.781 C 6.042 16.285,6.258 16.859,6.587 17.235 C 7.001 17.708,7.567 17.960,8.218 17.960 C 8.562 17.960,13.312 17.426,13.940 17.316 C 15.170 17.102,15.781 16.522,15.918 15.435 C 15.946 15.211,15.937 14.804,15.882 13.895 C 15.841 13.216,15.810 12.658,15.814 12.655 C 15.817 12.653,16.138 12.450,16.527 12.204 C 16.916 11.959,17.317 11.674,17.418 11.571 C 18.054 10.927,18.135 9.839,17.610 9.000 C 17.529 8.871,17.001 8.309,16.326 7.636 C 15.153 6.466,14.951 6.300,14.491 6.136 C 14.245 6.047,13.530 6.022,13.279 6.092 M14.192 7.655 C 14.277 7.713,14.806 8.224,15.369 8.791 C 16.259 9.688,16.398 9.844,16.439 9.997 C 16.501 10.227,16.463 10.412,16.329 10.537 C 16.269 10.593,15.977 10.791,15.680 10.978 L 15.140 11.318 13.930 10.109 C 13.264 9.444,12.720 8.885,12.720 8.865 C 12.720 8.796,13.378 7.778,13.509 7.645 C 13.632 7.520,13.657 7.511,13.840 7.529 C 13.966 7.541,14.095 7.587,14.192 7.655 M10.214 9.636 L 11.408 9.708 12.861 11.164 L 14.314 12.620 14.377 13.680 C 14.483 15.455,14.469 15.579,14.151 15.719 C 14.057 15.760,13.872 15.813,13.740 15.836 C 13.488 15.881,8.812 16.440,8.691 16.440 C 8.648 16.440,8.878 16.181,9.286 15.770 C 9.653 15.402,9.981 15.042,10.016 14.972 C 10.226 14.551,9.918 14.002,9.433 13.936 C 9.098 13.890,9.000 13.952,8.252 14.692 C 7.611 15.324,7.564 15.362,7.583 15.236 C 7.594 15.161,7.729 14.032,7.882 12.726 C 8.036 11.420,8.180 10.269,8.203 10.168 C 8.225 10.067,8.283 9.915,8.330 9.831 C 8.428 9.656,8.517 9.620,8.980 9.567 C 9.002 9.565,9.557 9.596,10.214 9.636 " stroke="none" fill-rule="evenodd" fill="black"></path></svg>