<svg width="24" height="24" viewBox="0 0 24 24" fill="none" xmlns="http://www.w3.org/2000/svg"><path d="M11.520 1.265 C 9.179 1.381,7.037 2.186,5.222 3.635 C 3.683 4.862,2.406 6.708,1.781 8.608 C 1.400 9.763,1.240 10.769,1.240 12.000 C 1.240 13.231,1.400 14.237,1.781 15.392 C 2.968 19.000,6.008 21.712,9.764 22.516 C 10.723 22.721,12.190 22.792,13.160 22.680 C 17.435 22.189,21.013 19.214,22.253 15.120 C 22.571 14.071,22.697 13.186,22.697 12.000 C 22.697 10.814,22.571 9.929,22.253 8.880 C 21.209 5.435,18.507 2.751,15.024 1.701 C 13.967 1.383,12.598 1.212,11.520 1.265 M13.082 2.817 C 16.549 3.250,19.446 5.544,20.660 8.818 C 21.024 9.801,21.208 10.858,21.210 11.980 C 21.211 13.036,21.073 13.933,20.761 14.881 C 19.624 18.344,16.573 20.806,12.928 21.202 C 12.295 21.270,11.037 21.232,10.440 21.126 C 8.405 20.764,6.697 19.852,5.279 18.372 C 1.870 14.814,1.867 9.188,5.272 5.635 C 6.452 4.403,7.833 3.562,9.429 3.103 C 9.859 2.979,10.663 2.824,11.060 2.788 C 11.494 2.749,12.667 2.765,13.082 2.817 M8.420 8.079 C 7.942 8.148,7.560 8.409,7.396 8.781 C 7.251 9.108,7.235 9.484,7.249 12.220 C 7.261 14.543,7.271 14.883,7.329 15.054 C 7.463 15.450,7.711 15.703,8.112 15.853 C 8.323 15.931,8.418 15.938,9.360 15.938 C 10.302 15.938,10.397 15.931,10.608 15.853 C 11.028 15.696,11.300 15.402,11.406 14.989 C 11.485 14.684,11.485 9.316,11.406 9.011 C 11.300 8.597,11.025 8.300,10.608 8.150 C 10.410 8.079,10.267 8.067,9.520 8.057 C 9.047 8.050,8.552 8.061,8.420 8.079 M13.694 8.080 C 13.227 8.145,12.871 8.399,12.683 8.800 L 12.580 9.020 12.580 12.000 L 12.580 14.980 12.683 15.200 C 12.980 15.832,13.441 15.988,14.900 15.950 C 15.528 15.934,15.700 15.916,15.888 15.849 C 16.304 15.700,16.580 15.404,16.686 14.989 C 16.765 14.684,16.765 9.316,16.686 9.011 C 16.580 8.597,16.305 8.300,15.888 8.150 C 15.690 8.079,15.547 8.067,14.800 8.057 C 14.327 8.050,13.829 8.061,13.694 8.080 M9.960 12.000 L 9.960 14.440 9.360 14.440 L 8.760 14.440 8.760 12.000 L 8.760 9.560 9.360 9.560 L 9.960 9.560 9.960 12.000 M15.240 12.000 L 15.240 14.440 14.640 14.440 L 14.040 14.440 14.040 12.000 L 14.040 9.560 14.640 9.560 L 15.240 9.560 15.240 12.000 " stroke="none" fill-rule="evenodd" fill="black"></path></svg>