<svg width="24" height="24" viewBox="0 0 24 24" fill="none" xmlns="http://www.w3.org/2000/svg"><path d="M4.540 2.280 C 3.818 2.345,3.319 2.553,2.919 2.957 C 2.624 3.255,2.477 3.526,2.347 4.013 L 2.260 4.340 2.260 11.980 C 2.260 19.173,2.264 19.638,2.331 19.924 C 2.551 20.858,3.090 21.399,4.044 21.645 C 4.362 21.726,4.493 21.732,6.440 21.749 C 8.549 21.768,9.239 21.741,9.700 21.621 C 10.529 21.405,11.090 20.832,11.309 19.976 C 11.376 19.717,11.380 19.236,11.380 12.000 C 11.380 4.764,11.376 4.283,11.309 4.024 C 11.193 3.571,11.017 3.249,10.724 2.957 C 10.306 2.540,9.846 2.353,9.060 2.280 C 8.599 2.237,5.018 2.237,4.540 2.280 M14.868 2.282 C 13.562 2.398,12.803 3.106,12.641 4.360 C 12.610 4.600,12.601 6.905,12.610 12.220 C 12.621 19.228,12.627 19.757,12.692 19.996 C 12.923 20.844,13.480 21.407,14.300 21.621 C 14.761 21.741,15.451 21.768,17.560 21.749 C 19.507 21.732,19.638 21.726,19.956 21.645 C 20.910 21.399,21.449 20.858,21.669 19.924 C 21.736 19.638,21.740 19.173,21.740 11.960 L 21.740 4.300 21.652 3.992 C 21.516 3.514,21.369 3.248,21.081 2.957 C 20.669 2.541,20.208 2.353,19.420 2.280 C 18.944 2.236,15.372 2.238,14.868 2.282 M9.497 3.880 C 9.746 4.009,9.831 4.168,9.881 4.605 C 9.904 4.808,9.919 7.728,9.919 12.000 C 9.919 16.272,9.904 19.192,9.881 19.395 C 9.831 19.832,9.746 19.991,9.497 20.120 L 9.302 20.220 6.927 20.232 C 4.321 20.244,4.231 20.237,3.989 20.008 C 3.748 19.780,3.760 20.207,3.760 12.000 C 3.760 3.793,3.748 4.220,3.989 3.992 C 4.226 3.767,4.279 3.763,6.901 3.772 L 9.302 3.780 9.497 3.880 M19.683 3.824 C 19.802 3.859,19.950 3.934,20.011 3.992 C 20.252 4.220,20.240 3.793,20.240 12.000 C 20.240 20.207,20.252 19.780,20.011 20.008 C 19.769 20.237,19.679 20.244,17.073 20.232 L 14.698 20.220 14.503 20.120 C 14.254 19.991,14.169 19.832,14.119 19.395 C 14.068 18.948,14.067 5.056,14.119 4.608 C 14.160 4.253,14.268 4.001,14.415 3.923 C 14.698 3.772,14.804 3.765,17.163 3.763 C 19.156 3.760,19.495 3.769,19.683 3.824 " stroke="none" fill-rule="evenodd" fill="black"></path></svg>