<svg width="24" height="24" viewBox="0 0 24 24" fill="none" xmlns="http://www.w3.org/2000/svg"><path d="M11.484 0.903 C 11.080 1.012,10.885 1.152,10.236 1.798 C 9.562 2.470,9.414 2.688,9.318 3.151 C 9.219 3.624,9.327 4.225,9.578 4.604 C 9.634 4.689,9.680 4.772,9.680 4.789 C 9.680 4.806,8.695 5.805,7.490 7.008 L 5.300 9.196 5.080 9.136 C 4.907 9.089,4.654 9.079,3.898 9.088 L 2.936 9.100 2.623 9.254 C 2.209 9.459,1.899 9.769,1.694 10.184 L 1.540 10.496 1.540 11.560 L 1.540 12.624 1.694 12.936 C 1.899 13.351,2.209 13.661,2.624 13.866 L 2.936 14.020 4.000 14.020 L 5.064 14.020 5.376 13.866 C 5.791 13.661,6.101 13.351,6.306 12.937 L 6.460 12.624 6.472 11.662 C 6.481 10.906,6.471 10.653,6.424 10.480 L 6.364 10.260 8.552 8.070 C 9.755 6.865,10.753 5.880,10.768 5.880 C 10.784 5.880,10.881 5.933,10.984 5.999 C 11.303 6.201,11.534 6.260,12.000 6.260 C 12.466 6.260,12.697 6.201,13.016 5.999 C 13.119 5.933,13.216 5.880,13.232 5.880 C 13.247 5.880,14.245 6.865,15.448 8.070 L 17.636 10.260 17.576 10.480 C 17.529 10.653,17.519 10.906,17.528 11.662 L 17.540 12.624 17.694 12.937 C 17.899 13.351,18.209 13.661,18.624 13.866 L 18.936 14.020 20.000 14.020 L 21.064 14.020 21.376 13.866 C 21.791 13.661,22.101 13.351,22.306 12.936 L 22.460 12.624 22.460 11.560 L 22.460 10.496 22.306 10.184 C 22.101 9.769,21.791 9.459,21.377 9.254 L 21.064 9.100 20.102 9.088 C 19.346 9.079,19.093 9.089,18.920 9.136 L 18.700 9.196 16.510 7.008 C 15.306 5.805,14.320 4.806,14.320 4.789 C 14.320 4.772,14.366 4.689,14.422 4.604 C 14.673 4.225,14.781 3.624,14.682 3.151 C 14.586 2.688,14.438 2.470,13.764 1.798 C 13.107 1.144,12.920 1.011,12.499 0.901 C 12.208 0.826,11.770 0.826,11.484 0.903 M12.192 2.377 C 12.365 2.467,13.191 3.329,13.221 3.451 C 13.274 3.659,13.203 3.772,12.707 4.267 C 12.212 4.763,12.100 4.833,11.890 4.782 C 11.743 4.745,10.815 3.817,10.778 3.670 C 10.729 3.468,10.800 3.348,11.233 2.906 C 11.815 2.311,11.938 2.244,12.192 2.377 M11.713 10.006 C 11.254 10.063,10.793 10.294,10.474 10.628 C 10.288 10.822,7.210 14.731,7.005 15.033 C 6.540 15.719,6.403 16.367,6.601 16.942 C 6.776 17.452,7.023 17.733,8.270 18.839 C 8.627 19.156,8.920 19.438,8.920 19.466 C 8.920 19.493,8.857 19.791,8.779 20.128 C 8.701 20.465,8.621 20.858,8.600 21.003 C 8.472 21.896,9.047 22.777,9.992 23.131 C 10.209 23.213,10.301 23.218,11.857 23.231 C 12.963 23.240,13.581 23.230,13.765 23.199 C 14.533 23.070,15.185 22.483,15.385 21.740 C 15.476 21.405,15.451 21.071,15.279 20.300 C 15.190 19.904,15.109 19.550,15.097 19.513 C 15.082 19.464,15.315 19.233,15.948 18.668 C 17.098 17.641,17.373 17.274,17.485 16.620 C 17.565 16.147,17.409 15.603,17.030 15.039 C 16.785 14.673,13.702 10.780,13.498 10.579 C 13.049 10.136,12.384 9.922,11.713 10.006 M4.761 10.621 C 4.970 10.729,5.000 10.847,5.000 11.560 C 5.000 12.543,4.983 12.560,4.000 12.560 C 3.017 12.560,3.000 12.543,3.000 11.560 C 3.000 10.577,3.013 10.564,3.992 10.562 C 4.499 10.560,4.670 10.573,4.761 10.621 M20.761 10.621 C 20.970 10.729,21.000 10.847,21.000 11.560 C 21.000 12.543,20.983 12.560,20.000 12.560 C 19.503 12.560,19.329 12.546,19.239 12.499 C 19.030 12.391,19.000 12.273,19.000 11.560 C 19.000 10.577,19.013 10.564,19.992 10.562 C 20.499 10.560,20.670 10.573,20.761 10.621 M11.369 14.026 C 11.635 14.513,12.302 14.515,12.647 14.030 C 12.736 13.905,12.741 13.863,12.760 12.965 L 12.780 12.031 14.259 13.905 C 15.072 14.936,15.796 15.878,15.869 15.998 C 16.039 16.280,16.039 16.432,15.871 16.667 C 15.800 16.765,15.340 17.205,14.850 17.643 L 13.957 18.440 12.015 18.440 L 10.072 18.440 9.206 17.666 C 7.970 16.561,7.931 16.512,8.055 16.188 C 8.132 15.988,8.198 15.900,9.918 13.720 L 11.260 12.020 11.280 12.960 C 11.297 13.750,11.311 13.920,11.369 14.026 M13.813 20.590 C 13.895 20.959,13.962 21.293,13.961 21.334 C 13.959 21.446,13.716 21.666,13.538 21.716 C 13.438 21.744,12.884 21.760,12.020 21.760 C 11.156 21.760,10.602 21.744,10.502 21.716 C 10.278 21.654,10.080 21.445,10.080 21.272 C 10.080 21.160,10.268 20.249,10.345 19.990 C 10.364 19.925,10.478 19.920,12.015 19.920 L 13.665 19.920 13.813 20.590 " stroke="none" fill-rule="evenodd" fill="black"></path></svg>