<svg width="24" height="24" viewBox="0 0 24 24" fill="none" xmlns="http://www.w3.org/2000/svg"><path d="M5.994 1.283 C 4.268 1.426,2.652 2.524,1.838 4.107 C 0.615 6.487,1.393 9.409,3.643 10.887 C 3.829 11.009,4.038 11.139,4.110 11.175 C 4.181 11.212,4.240 11.266,4.240 11.296 C 4.240 11.326,4.031 13.103,3.776 15.245 C 3.352 18.808,3.315 19.181,3.335 19.620 C 3.360 20.171,3.425 20.448,3.638 20.905 C 4.066 21.820,4.842 22.433,5.868 22.664 C 6.452 22.795,6.773 22.769,11.520 22.205 C 13.951 21.916,16.102 21.652,16.300 21.618 C 16.869 21.522,17.228 21.411,17.680 21.189 C 18.031 21.017,18.153 20.931,18.425 20.662 C 18.921 20.170,19.140 19.657,19.243 18.740 C 19.268 18.520,19.277 18.178,19.263 17.980 C 19.206 17.159,19.041 14.245,19.041 14.060 L 19.041 13.860 20.248 13.100 C 20.913 12.682,21.565 12.253,21.698 12.147 C 22.370 11.612,22.723 10.860,22.733 9.940 C 22.738 9.453,22.694 9.215,22.512 8.743 C 22.341 8.300,22.173 8.030,21.828 7.638 C 21.314 7.056,18.313 4.103,18.040 3.912 C 16.954 3.151,15.682 3.050,14.693 3.647 C 14.136 3.983,14.005 4.152,12.720 6.190 C 12.137 7.114,12.173 7.081,11.841 7.014 L 11.711 6.988 11.731 6.764 C 11.742 6.641,11.735 6.329,11.715 6.072 C 11.581 4.360,10.628 2.841,9.140 1.968 C 8.225 1.432,7.116 1.190,5.994 1.283 M7.532 2.895 C 8.793 3.273,9.728 4.209,10.104 5.468 C 10.257 5.981,10.283 6.755,10.163 7.260 C 9.919 8.292,9.422 9.035,8.600 9.598 C 7.954 10.041,7.294 10.241,6.483 10.239 C 5.878 10.238,5.320 10.102,4.751 9.817 C 3.797 9.337,3.050 8.325,2.820 7.199 C 2.727 6.746,2.755 5.952,2.878 5.520 C 2.996 5.108,3.318 4.471,3.560 4.171 C 3.976 3.656,4.659 3.169,5.267 2.956 C 5.713 2.800,5.991 2.762,6.600 2.776 C 7.085 2.788,7.238 2.807,7.532 2.895 M5.040 4.605 C 4.778 4.709,4.589 5.000,4.589 5.300 C 4.589 5.575,4.668 5.710,5.083 6.138 L 5.437 6.505 5.074 6.862 C 4.684 7.247,4.562 7.447,4.562 7.700 C 4.562 7.880,4.670 8.146,4.786 8.248 C 4.904 8.354,5.141 8.440,5.309 8.439 C 5.554 8.438,5.758 8.311,6.138 7.926 L 6.495 7.563 6.862 7.917 C 7.290 8.332,7.425 8.411,7.700 8.411 C 8.121 8.411,8.440 8.095,8.440 7.676 C 8.440 7.424,8.354 7.278,7.959 6.866 L 7.589 6.479 7.970 6.086 C 8.295 5.752,8.356 5.667,8.390 5.507 C 8.482 5.076,8.250 4.692,7.846 4.605 C 7.734 4.581,7.620 4.569,7.591 4.577 C 7.563 4.586,7.489 4.605,7.426 4.618 C 7.357 4.634,7.157 4.793,6.917 5.027 L 6.521 5.411 6.134 5.041 C 5.921 4.837,5.688 4.646,5.615 4.615 C 5.463 4.552,5.186 4.547,5.040 4.605 M16.865 4.937 C 17.167 5.084,17.255 5.166,19.048 6.955 C 20.872 8.776,20.919 8.828,21.068 9.140 C 21.215 9.450,21.220 9.473,21.220 9.900 C 21.220 10.301,21.210 10.360,21.108 10.569 C 21.046 10.695,20.926 10.857,20.840 10.929 C 20.755 11.001,20.161 11.391,19.519 11.796 L 18.352 12.532 15.956 10.136 C 14.638 8.818,13.560 7.721,13.560 7.698 C 13.560 7.621,15.044 5.303,15.193 5.147 C 15.478 4.849,15.718 4.758,16.185 4.772 C 16.516 4.782,16.580 4.798,16.865 4.937 M14.872 11.176 L 17.524 13.824 17.653 16.049 C 17.788 18.370,17.789 18.772,17.660 19.160 C 17.507 19.620,17.077 19.919,16.303 20.102 C 15.929 20.190,6.973 21.240,6.594 21.240 C 6.410 21.240,6.190 21.220,6.104 21.196 L 5.948 21.153 7.510 19.586 C 8.369 18.725,9.101 17.962,9.136 17.892 C 9.346 17.471,9.038 16.922,8.553 16.856 C 8.185 16.805,8.187 16.803,6.476 18.508 C 4.714 20.263,4.865 20.160,4.815 19.639 C 4.796 19.438,4.894 18.501,5.241 15.559 C 5.489 13.459,5.702 11.728,5.716 11.714 C 5.729 11.700,5.911 11.703,6.120 11.721 C 7.239 11.818,8.433 11.516,9.340 10.908 C 10.162 10.357,10.755 9.686,11.196 8.809 L 11.362 8.478 11.791 8.503 L 12.220 8.529 14.872 11.176 " stroke="none" fill-rule="evenodd" fill="black"></path></svg>