<svg width="24" height="24" viewBox="0 0 24 24" fill="none" xmlns="http://www.w3.org/2000/svg"><path d="M11.360 1.264 C 10.790 1.333,10.320 1.632,10.021 2.114 C 9.897 2.316,9.801 2.606,9.800 2.784 C 9.800 2.908,9.800 2.908,9.370 3.020 C 6.923 3.662,4.955 5.259,3.869 7.482 C 3.456 8.329,3.193 9.187,3.078 10.067 L 3.030 10.433 2.850 10.478 C 2.555 10.553,2.278 10.715,2.040 10.955 C 1.778 11.217,1.614 11.526,1.559 11.862 C 1.509 12.168,1.509 13.150,1.559 13.455 C 1.677 14.175,2.265 14.763,2.985 14.881 C 3.346 14.940,4.337 14.928,4.657 14.860 C 5.172 14.751,5.613 14.390,5.856 13.880 L 5.980 13.620 5.993 12.756 C 6.003 12.055,5.993 11.850,5.942 11.672 C 5.784 11.129,5.300 10.648,4.758 10.496 L 4.532 10.433 4.587 10.086 C 4.874 8.279,5.905 6.616,7.400 5.548 C 7.852 5.225,8.681 4.802,9.200 4.629 C 9.828 4.419,9.833 4.418,9.864 4.549 C 9.935 4.850,10.288 5.284,10.635 5.499 C 10.971 5.707,11.148 5.738,12.020 5.738 C 12.892 5.738,13.069 5.707,13.405 5.499 C 13.751 5.285,14.105 4.850,14.175 4.553 L 14.200 4.445 14.470 4.520 C 17.026 5.232,18.994 7.448,19.413 10.086 L 19.468 10.433 19.242 10.496 C 18.700 10.648,18.216 11.129,18.058 11.672 C 18.007 11.850,17.997 12.055,18.007 12.756 L 18.020 13.620 18.149 13.892 C 18.391 14.403,18.895 14.794,19.422 14.881 C 19.728 14.931,20.710 14.931,21.015 14.881 C 21.735 14.763,22.323 14.175,22.441 13.455 C 22.500 13.094,22.488 12.103,22.420 11.783 C 22.289 11.165,21.773 10.635,21.150 10.478 L 20.970 10.433 20.922 10.067 C 20.565 7.342,18.827 4.903,16.360 3.662 C 15.774 3.367,15.204 3.162,14.410 2.960 C 14.254 2.921,14.240 2.906,14.240 2.788 C 14.239 2.479,14.000 1.999,13.715 1.735 C 13.528 1.561,13.266 1.405,13.046 1.335 C 12.862 1.276,11.672 1.227,11.360 1.264 M12.687 2.826 C 12.752 2.885,12.760 2.962,12.760 3.493 C 12.760 3.996,12.749 4.106,12.694 4.167 C 12.635 4.232,12.558 4.240,12.027 4.240 C 11.524 4.240,11.414 4.229,11.353 4.174 C 11.288 4.115,11.280 4.038,11.280 3.507 C 11.280 3.004,11.291 2.894,11.346 2.833 C 11.405 2.768,11.482 2.760,12.013 2.760 C 12.516 2.760,12.626 2.771,12.687 2.826 M11.713 10.006 C 11.254 10.063,10.793 10.294,10.474 10.628 C 10.288 10.822,7.210 14.731,7.005 15.033 C 6.540 15.719,6.403 16.367,6.601 16.942 C 6.776 17.452,7.023 17.733,8.270 18.839 C 8.627 19.156,8.920 19.438,8.920 19.466 C 8.920 19.493,8.857 19.791,8.779 20.128 C 8.701 20.465,8.621 20.858,8.600 21.003 C 8.472 21.896,9.047 22.777,9.992 23.131 C 10.209 23.213,10.301 23.218,11.857 23.231 C 12.963 23.240,13.581 23.230,13.765 23.199 C 14.533 23.070,15.185 22.483,15.385 21.740 C 15.476 21.405,15.451 21.071,15.279 20.300 C 15.190 19.904,15.109 19.550,15.097 19.513 C 15.082 19.464,15.315 19.233,15.948 18.668 C 17.098 17.641,17.373 17.274,17.485 16.620 C 17.565 16.147,17.409 15.603,17.030 15.039 C 16.785 14.673,13.702 10.780,13.498 10.579 C 13.049 10.136,12.384 9.922,11.713 10.006 M4.440 12.000 C 4.513 12.073,4.520 12.133,4.520 12.674 C 4.520 13.457,4.558 13.420,3.757 13.420 C 2.977 13.420,3.020 13.463,3.020 12.683 C 3.020 11.882,2.983 11.920,3.766 11.920 C 4.307 11.920,4.367 11.927,4.440 12.000 M20.904 12.004 C 20.972 12.079,20.980 12.154,20.980 12.683 C 20.980 13.463,21.023 13.420,20.243 13.420 C 19.442 13.420,19.480 13.457,19.480 12.674 C 19.480 12.133,19.487 12.073,19.560 12.000 C 19.633 11.927,19.693 11.920,20.234 11.920 C 20.787 11.920,20.833 11.926,20.904 12.004 M11.369 14.026 C 11.635 14.513,12.302 14.515,12.647 14.030 C 12.736 13.905,12.741 13.863,12.760 12.965 L 12.780 12.031 14.259 13.905 C 15.072 14.936,15.796 15.878,15.869 15.998 C 16.039 16.280,16.039 16.432,15.871 16.667 C 15.800 16.765,15.340 17.205,14.850 17.643 L 13.957 18.440 12.015 18.440 L 10.072 18.440 9.206 17.666 C 7.970 16.561,7.931 16.512,8.055 16.188 C 8.132 15.988,8.198 15.900,9.918 13.720 L 11.260 12.020 11.280 12.960 C 11.297 13.750,11.311 13.920,11.369 14.026 M13.813 20.590 C 13.895 20.959,13.962 21.293,13.961 21.334 C 13.959 21.446,13.716 21.666,13.538 21.716 C 13.438 21.744,12.884 21.760,12.020 21.760 C 11.156 21.760,10.602 21.744,10.502 21.716 C 10.278 21.654,10.080 21.445,10.080 21.272 C 10.080 21.160,10.268 20.249,10.345 19.990 C 10.364 19.925,10.478 19.920,12.015 19.920 L 13.665 19.920 13.813 20.590 " stroke="none" fill-rule="evenodd" fill="black"></path></svg>