<svg width="24" height="24" viewBox="0 0 24 24" fill="none" xmlns="http://www.w3.org/2000/svg"><path d="M5.661 1.284 C 4.592 1.397,3.650 2.045,3.106 3.043 C 2.742 3.712,2.645 4.650,2.856 5.465 C 3.056 6.235,3.643 7.007,4.360 7.440 C 5.283 7.998,6.581 8.051,7.540 7.571 C 8.297 7.191,8.972 6.412,9.219 5.634 C 9.420 5.000,9.420 4.161,9.220 3.527 C 8.923 2.591,8.049 1.718,7.114 1.421 C 6.880 1.347,6.021 1.213,5.986 1.245 C 5.983 1.248,5.836 1.266,5.661 1.284 M17.505 1.284 C 16.546 1.385,15.684 1.916,15.141 2.740 C 14.757 3.322,14.601 3.854,14.601 4.580 C 14.601 5.540,14.915 6.291,15.595 6.960 C 16.306 7.660,17.273 7.994,18.265 7.882 C 19.052 7.793,19.623 7.527,20.195 6.982 C 20.648 6.551,20.921 6.105,21.105 5.492 C 21.198 5.184,21.212 5.070,21.212 4.580 C 21.213 4.134,21.196 3.957,21.129 3.714 C 20.879 2.800,20.171 1.962,19.309 1.558 C 18.799 1.320,18.130 1.218,17.505 1.284 M6.845 2.929 C 7.225 3.117,7.552 3.449,7.730 3.828 C 7.839 4.061,7.860 4.155,7.873 4.486 C 7.896 5.052,7.768 5.410,7.397 5.816 C 6.437 6.866,4.701 6.444,4.299 5.064 C 4.190 4.689,4.228 4.175,4.390 3.830 C 4.534 3.522,4.851 3.164,5.119 3.007 C 5.465 2.804,5.663 2.757,6.123 2.770 C 6.519 2.780,6.565 2.790,6.845 2.929 M18.650 2.909 C 18.941 3.046,19.309 3.363,19.469 3.615 C 19.897 4.289,19.803 5.198,19.241 5.811 C 18.881 6.205,18.436 6.400,17.900 6.400 C 16.704 6.400,15.839 5.267,16.142 4.098 C 16.268 3.609,16.673 3.130,17.140 2.917 C 17.455 2.774,17.508 2.765,17.980 2.774 C 18.337 2.781,18.409 2.796,18.650 2.909 M11.267 8.781 C 9.987 9.024,8.915 10.081,8.658 11.357 C 8.576 11.761,8.596 12.561,8.696 12.940 C 8.862 13.567,9.361 14.300,9.890 14.695 C 10.497 15.148,10.983 15.320,11.743 15.350 C 12.769 15.390,13.484 15.130,14.196 14.458 C 14.650 14.030,14.959 13.511,15.126 12.896 C 15.249 12.446,15.248 11.633,15.126 11.182 C 14.821 10.062,13.884 9.126,12.778 8.838 C 12.356 8.728,11.680 8.703,11.267 8.781 M5.040 8.821 C 3.574 9.039,2.383 9.653,1.777 10.502 C 1.428 10.991,1.274 11.450,1.275 11.999 C 1.275 12.535,1.375 12.885,1.658 13.339 C 2.454 14.615,4.486 15.413,6.502 15.240 C 7.190 15.181,7.340 15.140,7.520 14.960 C 7.861 14.619,7.790 14.053,7.374 13.796 C 7.215 13.698,7.098 13.692,6.380 13.749 C 5.592 13.810,4.669 13.676,4.061 13.411 C 3.928 13.354,3.672 13.210,3.492 13.092 C 2.986 12.761,2.797 12.489,2.768 12.050 C 2.753 11.839,2.767 11.766,2.857 11.583 C 3.059 11.169,3.616 10.766,4.340 10.509 C 4.969 10.286,5.814 10.213,6.802 10.295 C 7.269 10.335,7.363 10.310,7.567 10.094 C 7.889 9.754,7.797 9.145,7.393 8.936 C 7.086 8.778,5.764 8.713,5.040 8.821 M17.043 8.823 C 16.593 8.889,16.410 8.992,16.285 9.250 C 16.128 9.573,16.215 9.965,16.489 10.174 C 16.685 10.324,16.812 10.337,17.443 10.278 C 19.361 10.098,21.200 10.940,21.205 12.000 C 21.207 12.427,20.983 12.765,20.474 13.104 C 19.740 13.592,18.660 13.833,17.580 13.749 C 16.832 13.691,16.792 13.694,16.598 13.807 C 16.120 14.087,16.117 14.803,16.591 15.070 C 16.813 15.195,17.272 15.253,18.020 15.251 C 19.459 15.247,20.709 14.851,21.633 14.105 C 22.924 13.064,23.059 11.401,21.949 10.215 C 20.937 9.133,18.896 8.554,17.043 8.823 M12.465 10.302 C 12.902 10.424,13.375 10.846,13.585 11.301 C 13.749 11.656,13.775 12.211,13.648 12.621 C 13.533 12.994,13.194 13.413,12.834 13.628 C 12.132 14.049,11.210 13.929,10.621 13.339 C 9.927 12.645,9.897 11.531,10.554 10.829 C 11.072 10.275,11.726 10.095,12.465 10.302 M11.380 16.263 C 11.314 16.271,11.107 16.299,10.920 16.325 C 9.840 16.470,8.695 17.013,8.070 17.675 C 6.911 18.904,7.064 20.546,8.440 21.645 C 8.779 21.915,9.622 22.346,10.060 22.473 C 10.828 22.696,11.698 22.784,12.515 22.722 C 13.432 22.652,13.984 22.507,14.740 22.138 C 15.588 21.723,16.124 21.231,16.446 20.571 C 17.336 18.742,15.869 16.824,13.210 16.339 C 12.879 16.279,11.644 16.227,11.380 16.263 M12.588 17.763 C 13.760 17.894,14.784 18.417,15.104 19.048 C 15.319 19.472,15.197 19.975,14.791 20.340 C 14.143 20.923,13.160 21.240,12.000 21.240 C 11.345 21.240,10.839 21.161,10.326 20.978 C 9.360 20.633,8.791 20.082,8.793 19.491 C 8.794 19.190,8.879 18.998,9.128 18.735 C 9.827 17.996,11.206 17.609,12.588 17.763 " stroke="none" fill-rule="evenodd" fill="black"></path></svg>