<svg width="24" height="24" viewBox="0 0 24 24" fill="none" xmlns="http://www.w3.org/2000/svg"><path d="M8.080 1.282 C 4.008 1.495,1.895 3.296,1.383 6.991 C 1.270 7.803,1.242 8.816,1.242 12.000 C 1.242 16.504,1.302 17.273,1.760 18.650 C 2.532 20.963,4.206 22.226,7.027 22.622 C 7.786 22.728,8.902 22.759,12.000 22.759 C 15.098 22.759,16.214 22.728,16.973 22.622 C 19.443 22.275,20.996 21.288,21.897 19.490 C 22.379 18.530,22.638 17.369,22.720 15.807 C 22.771 14.838,22.771 9.162,22.720 8.193 C 22.657 6.998,22.521 6.191,22.242 5.356 C 21.632 3.531,20.469 2.367,18.650 1.760 C 17.788 1.473,17.023 1.344,15.806 1.280 C 14.952 1.235,8.952 1.237,8.080 1.282 M16.800 2.854 C 19.586 3.316,20.714 4.454,21.148 7.240 C 21.214 7.661,21.220 8.064,21.220 12.000 C 21.220 15.936,21.214 16.339,21.148 16.760 C 20.712 19.558,19.558 20.712,16.760 21.148 C 16.339 21.214,15.936 21.220,12.000 21.220 C 8.064 21.220,7.661 21.214,7.240 21.148 C 4.450 20.713,3.283 19.551,2.854 16.780 C 2.785 16.335,2.780 15.989,2.780 12.000 C 2.780 7.247,2.776 7.337,3.044 6.288 C 3.557 4.282,4.722 3.274,6.960 2.900 C 7.690 2.777,8.048 2.769,12.200 2.777 C 15.963 2.784,16.422 2.791,16.800 2.854 M8.511 7.222 C 8.171 7.305,7.892 7.462,7.616 7.727 C 6.801 8.510,6.801 9.770,7.616 10.553 C 7.898 10.824,8.170 10.975,8.529 11.060 C 9.215 11.221,9.900 11.017,10.393 10.504 C 10.664 10.222,10.815 9.950,10.900 9.591 C 11.057 8.924,10.877 8.280,10.393 7.776 C 9.900 7.262,9.198 7.056,8.511 7.222 M14.780 8.066 C 14.604 8.157,8.009 14.752,7.917 14.928 C 7.770 15.210,7.835 15.592,8.065 15.807 C 8.286 16.014,8.643 16.063,8.912 15.923 C 9.096 15.826,15.688 9.229,15.776 9.052 C 15.849 8.905,15.860 8.617,15.797 8.453 C 15.740 8.299,15.567 8.122,15.411 8.055 C 15.242 7.982,14.930 7.988,14.780 8.066 M9.240 8.754 C 9.295 8.793,9.373 8.891,9.413 8.972 C 9.474 9.094,9.479 9.143,9.442 9.254 C 9.388 9.417,9.260 9.543,9.089 9.603 C 8.984 9.640,8.936 9.634,8.813 9.574 C 8.407 9.372,8.402 8.916,8.803 8.709 C 8.954 8.631,9.084 8.644,9.240 8.754 M15.100 12.927 C 14.549 13.032,14.011 13.461,13.740 14.010 C 13.603 14.290,13.586 14.358,13.569 14.715 C 13.537 15.379,13.702 15.825,14.139 16.260 C 14.909 17.025,16.132 17.025,16.900 16.260 C 17.306 15.856,17.479 15.437,17.479 14.860 C 17.479 14.283,17.306 13.864,16.900 13.460 C 16.425 12.986,15.784 12.797,15.100 12.927 M15.772 14.448 C 15.879 14.503,16.000 14.723,16.000 14.864 C 16.000 15.043,15.845 15.251,15.669 15.309 C 15.463 15.377,15.253 15.305,15.131 15.124 C 14.848 14.703,15.313 14.212,15.772 14.448 " stroke="none" fill-rule="evenodd" fill="black"></path></svg>