<svg width="24" height="24" viewBox="0 0 24 24" fill="none" xmlns="http://www.w3.org/2000/svg"><path d="M6.009 2.282 C 4.602 2.361,3.702 2.597,2.971 3.079 C 1.987 3.727,1.501 4.736,1.313 6.520 C 1.236 7.243,1.236 16.756,1.313 17.480 C 1.469 18.956,1.812 19.851,2.481 20.519 C 3.149 21.188,4.044 21.531,5.520 21.687 C 6.247 21.764,17.753 21.764,18.480 21.687 C 19.956 21.531,20.851 21.188,21.519 20.519 C 22.188 19.851,22.531 18.956,22.687 17.480 C 22.764 16.756,22.764 7.244,22.687 6.520 C 22.532 5.045,22.188 4.150,21.520 3.481 C 20.870 2.830,20.013 2.492,18.560 2.315 C 18.107 2.260,6.921 2.230,6.009 2.282 M18.920 3.867 C 19.633 4.006,20.110 4.206,20.435 4.501 C 20.759 4.795,21.014 5.397,21.146 6.180 C 21.215 6.593,21.220 6.950,21.220 12.000 C 21.220 17.029,21.215 17.408,21.147 17.815 C 21.011 18.619,20.805 19.112,20.458 19.458 C 20.112 19.805,19.619 20.011,18.815 20.147 C 18.406 20.216,17.998 20.220,12.000 20.220 C 5.977 20.220,5.595 20.216,5.180 20.146 C 4.440 20.021,3.904 19.807,3.565 19.499 C 3.241 19.205,2.986 18.603,2.854 17.820 C 2.785 17.407,2.780 17.050,2.780 12.000 C 2.780 6.950,2.785 6.593,2.854 6.180 C 3.041 5.066,3.379 4.505,4.059 4.180 C 4.485 3.976,4.815 3.900,5.780 3.785 C 5.846 3.777,8.735 3.774,12.200 3.778 C 18.376 3.785,18.508 3.787,18.920 3.867 M7.940 6.986 C 7.472 7.085,7.108 7.291,6.715 7.679 C 6.431 7.960,6.342 8.080,6.209 8.360 C 6.013 8.771,5.960 9.012,5.960 9.480 C 5.960 9.947,6.014 10.190,6.205 10.591 C 6.492 11.193,7.065 11.697,7.700 11.908 C 7.975 11.999,8.087 12.014,8.500 12.014 C 8.913 12.014,9.025 11.999,9.300 11.908 C 9.935 11.697,10.508 11.193,10.795 10.591 C 10.986 10.190,11.040 9.947,11.040 9.480 C 11.040 9.012,10.987 8.771,10.791 8.360 C 10.575 7.904,10.088 7.410,9.640 7.192 C 9.115 6.935,8.519 6.863,7.940 6.986 M13.815 7.278 C 13.331 7.393,13.098 8.004,13.383 8.408 C 13.447 8.499,13.572 8.610,13.660 8.656 C 13.817 8.738,13.873 8.740,16.377 8.751 C 18.157 8.759,18.999 8.749,19.150 8.718 C 19.902 8.562,19.931 7.473,19.189 7.286 C 18.980 7.234,14.032 7.226,13.815 7.278 M8.877 8.489 C 9.070 8.548,9.356 8.825,9.466 9.060 C 9.651 9.457,9.552 9.925,9.215 10.248 C 9.010 10.444,8.793 10.530,8.500 10.530 C 8.207 10.530,7.990 10.444,7.785 10.248 C 7.341 9.823,7.327 9.188,7.752 8.747 C 8.057 8.430,8.417 8.348,8.877 8.489 M14.815 11.278 C 14.331 11.393,14.098 12.004,14.383 12.408 C 14.447 12.499,14.572 12.610,14.660 12.656 C 14.815 12.738,14.880 12.740,16.875 12.752 C 19.208 12.765,19.281 12.759,19.519 12.521 C 19.918 12.122,19.731 11.423,19.189 11.286 C 18.980 11.234,15.031 11.226,14.815 11.278 M7.460 12.896 C 6.602 13.036,5.955 13.363,5.357 13.958 C 4.841 14.472,4.529 15.017,4.360 15.699 C 4.311 15.896,4.268 16.167,4.265 16.302 C 4.261 16.507,4.278 16.573,4.372 16.714 C 4.578 17.027,4.930 17.148,5.260 17.022 C 5.448 16.950,5.665 16.736,5.700 16.589 C 5.711 16.540,5.747 16.365,5.780 16.200 C 5.954 15.337,6.609 14.642,7.460 14.418 C 7.796 14.330,8.701 14.298,9.174 14.357 C 9.386 14.384,9.666 14.448,9.797 14.499 C 10.527 14.785,11.064 15.427,11.220 16.200 C 11.253 16.365,11.289 16.540,11.300 16.589 C 11.335 16.736,11.552 16.950,11.740 17.022 C 12.070 17.148,12.422 17.027,12.628 16.714 C 12.722 16.573,12.739 16.507,12.735 16.302 C 12.732 16.167,12.689 15.896,12.640 15.699 C 12.472 15.019,12.161 14.476,11.643 13.955 C 11.123 13.433,10.482 13.081,9.782 12.933 C 9.388 12.850,7.886 12.826,7.460 12.896 M16.815 15.278 C 16.331 15.393,16.098 16.004,16.383 16.408 C 16.605 16.722,16.676 16.738,17.869 16.753 C 19.122 16.768,19.296 16.744,19.519 16.521 C 19.918 16.122,19.731 15.423,19.189 15.286 C 18.983 15.235,17.025 15.228,16.815 15.278 " stroke="none" fill-rule="evenodd" fill="black"></path></svg>