<svg width="24" height="24" viewBox="0 0 24 24" fill="none" xmlns="http://www.w3.org/2000/svg"><path d="M9.906 1.799 C 8.878 1.986,8.024 2.634,7.560 3.580 C 7.296 4.118,7.223 4.489,7.250 5.157 C 7.266 5.552,7.293 5.729,7.375 5.980 C 7.713 7.016,8.554 7.833,9.580 8.126 C 9.843 8.201,10.000 8.218,10.460 8.219 C 10.815 8.220,11.100 8.199,11.240 8.164 C 12.380 7.871,13.285 6.988,13.608 5.852 C 13.734 5.406,13.734 4.594,13.608 4.148 C 13.291 3.031,12.428 2.173,11.300 1.852 C 11.059 1.784,10.176 1.750,9.906 1.799 M10.849 3.298 C 11.352 3.405,11.823 3.783,12.046 4.261 C 12.533 5.300,11.887 6.529,10.753 6.722 C 9.712 6.898,8.723 6.063,8.720 5.006 C 8.718 4.060,9.491 3.278,10.460 3.245 C 10.526 3.243,10.701 3.267,10.849 3.298 M16.680 4.022 C 16.351 4.093,15.843 4.344,15.566 4.574 C 14.924 5.105,14.561 5.873,14.561 6.700 C 14.561 7.758,15.142 8.687,16.100 9.163 C 17.449 9.832,19.083 9.269,19.763 7.900 C 20.323 6.772,20.020 5.390,19.034 4.574 C 18.750 4.338,18.246 4.092,17.900 4.020 C 17.553 3.947,17.024 3.948,16.680 4.022 M17.592 5.486 C 18.040 5.596,18.425 5.999,18.519 6.456 C 18.696 7.311,17.924 8.089,17.065 7.920 C 16.391 7.788,15.932 7.106,16.078 6.454 C 16.232 5.759,16.918 5.321,17.592 5.486 M3.380 6.019 C 2.431 6.227,1.638 6.946,1.349 7.860 C 1.220 8.266,1.220 9.134,1.349 9.540 C 1.604 10.344,2.304 11.050,3.100 11.305 C 3.522 11.441,4.135 11.474,4.560 11.385 C 5.048 11.283,5.482 11.039,5.884 10.641 C 6.474 10.056,6.699 9.522,6.699 8.700 C 6.699 7.878,6.475 7.346,5.882 6.756 C 5.328 6.205,4.730 5.958,3.960 5.964 C 3.773 5.965,3.512 5.990,3.380 6.019 M4.474 7.562 C 4.692 7.658,4.976 7.920,5.080 8.122 C 5.251 8.453,5.251 8.947,5.080 9.279 C 4.974 9.483,4.691 9.742,4.460 9.846 C 4.185 9.970,3.738 9.971,3.469 9.850 C 3.203 9.730,2.905 9.412,2.803 9.139 C 2.485 8.290,3.159 7.386,4.054 7.460 C 4.182 7.471,4.371 7.517,4.474 7.562 M20.449 9.018 C 19.662 9.209,18.943 9.959,18.803 10.737 C 18.659 11.535,18.869 12.231,19.419 12.781 C 19.903 13.265,20.483 13.478,21.177 13.427 C 23.081 13.289,23.934 10.973,22.581 9.619 C 22.272 9.310,21.866 9.081,21.488 9.004 C 21.212 8.947,20.715 8.954,20.449 9.018 M11.220 9.282 C 9.385 9.399,7.599 10.201,6.220 11.526 C 5.470 12.248,4.987 12.880,4.546 13.720 C 3.947 14.859,3.673 15.941,3.670 17.180 C 3.668 17.915,3.732 18.336,3.941 18.983 C 4.458 20.576,5.761 21.883,7.380 22.432 C 8.280 22.738,8.790 22.772,12.100 22.749 C 14.811 22.730,14.935 22.723,15.634 22.542 C 17.804 21.979,19.346 20.296,19.742 18.060 C 19.813 17.654,19.824 16.692,19.762 16.254 C 19.390 13.634,17.625 11.288,15.104 10.064 C 13.847 9.453,12.570 9.196,11.220 9.282 M21.271 10.502 C 21.468 10.584,21.595 10.706,21.684 10.900 C 21.863 11.286,21.680 11.727,21.271 11.898 C 21.083 11.977,20.917 11.977,20.729 11.898 C 20.101 11.636,20.084 10.800,20.700 10.516 C 20.897 10.425,21.076 10.421,21.271 10.502 M12.880 10.859 C 13.652 11.029,14.665 11.451,15.252 11.847 C 16.606 12.760,17.615 14.064,18.061 15.480 C 18.241 16.051,18.288 16.333,18.308 16.940 C 18.325 17.450,18.315 17.603,18.242 17.960 C 18.073 18.780,17.729 19.431,17.161 20.005 C 16.608 20.564,16.051 20.880,15.203 21.114 L 14.820 21.220 11.700 21.220 C 8.276 21.220,8.410 21.228,7.726 20.973 C 7.038 20.715,6.392 20.229,5.933 19.624 C 5.693 19.307,5.386 18.665,5.283 18.260 C 4.854 16.591,5.499 14.464,6.885 12.974 C 7.993 11.783,9.289 11.073,10.820 10.818 C 11.256 10.745,12.474 10.770,12.880 10.859 " stroke="none" fill-rule="evenodd" fill="black"></path></svg>