<svg width="24" height="24" viewBox="0 0 24 24" fill="none" xmlns="http://www.w3.org/2000/svg"><path d="M8.080 1.282 C 4.008 1.495,1.895 3.296,1.383 6.991 C 1.270 7.803,1.242 8.816,1.242 12.000 C 1.242 16.504,1.302 17.273,1.760 18.650 C 2.532 20.963,4.206 22.226,7.027 22.622 C 7.786 22.728,8.902 22.759,12.000 22.759 C 15.098 22.759,16.214 22.728,16.973 22.622 C 19.443 22.275,20.996 21.288,21.897 19.490 C 22.379 18.530,22.638 17.369,22.720 15.807 C 22.771 14.838,22.771 9.162,22.720 8.193 C 22.657 6.998,22.521 6.191,22.242 5.356 C 21.632 3.531,20.469 2.367,18.650 1.760 C 17.788 1.473,17.023 1.344,15.806 1.280 C 14.952 1.235,8.952 1.237,8.080 1.282 M9.515 7.190 C 10.118 9.627,10.618 11.638,10.626 11.661 C 10.635 11.684,8.960 12.192,6.751 12.836 C 4.611 13.460,2.836 13.979,2.808 13.990 C 2.765 14.007,2.758 13.438,2.770 10.815 C 2.784 8.036,2.794 7.565,2.854 7.200 C 3.205 5.051,3.958 3.936,5.480 3.308 C 6.198 3.011,7.317 2.790,8.220 2.765 L 8.420 2.760 9.515 7.190 M16.800 2.855 C 19.582 3.313,20.714 4.454,21.148 7.240 C 21.214 7.661,21.220 8.064,21.220 12.000 C 21.220 16.745,21.226 16.622,20.960 17.688 C 20.504 19.520,19.519 20.504,17.688 20.960 C 16.947 21.144,16.455 21.203,15.455 21.228 L 14.530 21.251 14.241 20.076 C 14.082 19.429,13.558 17.307,13.076 15.360 C 12.594 13.413,11.704 9.813,11.097 7.360 C 10.491 4.907,9.986 2.867,9.974 2.828 C 9.954 2.758,10.081 2.756,13.167 2.770 C 15.975 2.784,16.433 2.794,16.800 2.855 M11.880 16.750 C 12.368 18.725,12.818 20.544,12.880 20.793 L 12.993 21.245 10.306 21.230 C 7.374 21.212,7.309 21.208,6.312 20.960 C 4.489 20.506,3.510 19.533,3.044 17.712 C 2.902 17.156,2.803 16.468,2.790 15.945 L 2.780 15.551 6.860 14.358 C 9.104 13.701,10.952 13.163,10.966 13.162 C 10.980 13.161,11.392 14.775,11.880 16.750 " stroke="none" fill-rule="evenodd" fill="black"></path></svg>