<svg width="24" height="24" viewBox="0 0 24 24" fill="none" xmlns="http://www.w3.org/2000/svg"><path d="M11.320 1.281 C 9.259 1.398,7.250 2.142,5.530 3.424 C 4.912 3.884,3.884 4.912,3.424 5.530 C 1.875 7.608,1.136 10.050,1.281 12.610 C 1.402 14.759,2.118 16.717,3.424 18.470 C 3.880 19.083,4.909 20.111,5.530 20.575 C 7.593 22.116,10.055 22.865,12.586 22.720 C 13.508 22.667,14.364 22.513,15.226 22.246 L 15.472 22.170 15.666 22.370 C 16.164 22.884,17.039 23.388,17.768 23.581 C 18.950 23.893,20.292 23.730,21.289 23.153 C 23.575 21.831,24.390 19.094,23.188 16.781 C 22.991 16.403,22.648 15.936,22.369 15.665 L 22.168 15.470 22.244 15.249 C 22.482 14.557,22.667 13.526,22.720 12.607 C 22.864 10.051,22.122 7.602,20.575 5.530 C 20.115 4.913,19.087 3.885,18.470 3.425 C 17.047 2.362,15.454 1.679,13.742 1.398 C 13.334 1.331,12.074 1.229,11.880 1.247 C 11.847 1.250,11.595 1.265,11.320 1.281 M13.146 2.822 C 14.794 3.038,16.299 3.654,17.619 4.653 C 18.028 4.962,18.852 5.765,19.187 6.180 C 20.297 7.554,21.000 9.246,21.203 11.036 C 21.309 11.973,21.201 13.417,20.956 14.326 L 20.874 14.632 20.646 14.542 C 19.545 14.111,18.144 14.159,17.043 14.665 C 16.074 15.110,15.236 15.921,14.760 16.872 C 14.393 17.605,14.265 18.169,14.266 19.040 C 14.267 19.660,14.320 19.993,14.505 20.544 C 14.561 20.710,14.598 20.856,14.586 20.867 C 14.548 20.905,13.983 21.043,13.520 21.126 C 12.938 21.231,11.640 21.271,11.036 21.203 C 9.246 21.000,7.554 20.297,6.180 19.187 C 5.765 18.852,4.962 18.028,4.653 17.619 C 3.852 16.560,3.228 15.222,2.965 13.998 C 2.689 12.714,2.690 11.283,2.966 10.002 C 3.249 8.688,3.936 7.265,4.813 6.180 C 5.148 5.765,5.972 4.962,6.381 4.653 C 7.688 3.664,9.192 3.044,10.820 2.823 C 11.380 2.746,12.569 2.746,13.146 2.822 M10.480 7.962 C 10.359 7.983,10.114 8.072,9.935 8.159 C 9.401 8.422,9.033 8.853,8.819 9.468 C 8.649 9.956,8.634 10.197,8.650 12.166 C 8.664 13.954,8.668 14.031,8.755 14.319 C 9.205 15.808,10.518 16.411,11.990 15.804 C 12.283 15.683,14.738 14.286,15.166 13.997 C 16.013 13.424,16.447 12.555,16.320 11.691 C 16.248 11.201,16.027 10.784,15.626 10.380 C 15.447 10.200,15.196 9.986,15.069 9.906 C 14.609 9.615,12.373 8.343,12.100 8.216 C 11.580 7.976,10.962 7.879,10.480 7.962 M11.400 9.540 C 11.684 9.655,14.155 11.078,14.428 11.283 C 14.953 11.678,14.984 12.206,14.507 12.625 C 14.328 12.782,11.850 14.229,11.433 14.419 C 10.756 14.729,10.296 14.498,10.164 13.781 C 10.108 13.478,10.105 10.492,10.160 10.195 C 10.293 9.489,10.718 9.264,11.400 9.540 M19.820 15.858 C 20.127 15.941,20.571 16.150,20.868 16.352 C 21.198 16.576,21.646 17.064,21.837 17.407 C 22.109 17.895,22.207 18.258,22.229 18.860 C 22.253 19.514,22.174 19.875,21.872 20.480 C 21.696 20.832,21.607 20.956,21.321 21.245 C 20.629 21.946,19.937 22.240,18.984 22.240 C 17.149 22.240,15.668 20.663,15.773 18.820 C 15.801 18.343,15.874 18.052,16.078 17.615 C 16.510 16.691,17.341 16.036,18.360 15.818 C 18.692 15.747,19.491 15.769,19.820 15.858 M18.815 16.797 C 18.638 16.841,18.461 16.976,18.355 17.149 C 18.277 17.274,18.261 17.365,18.247 17.768 L 18.230 18.240 17.788 18.240 C 17.257 18.240,17.059 18.313,16.887 18.572 C 16.800 18.704,16.780 18.780,16.780 18.980 C 16.780 19.186,16.799 19.254,16.894 19.392 C 17.075 19.652,17.260 19.720,17.788 19.720 L 18.230 19.720 18.247 20.210 C 18.261 20.638,18.276 20.722,18.361 20.874 C 18.494 21.109,18.722 21.240,19.000 21.240 C 19.278 21.240,19.506 21.109,19.639 20.874 C 19.724 20.722,19.739 20.638,19.753 20.210 L 19.770 19.720 20.212 19.720 C 20.740 19.720,20.925 19.652,21.106 19.392 C 21.201 19.254,21.220 19.186,21.220 18.980 C 21.220 18.774,21.201 18.706,21.106 18.568 C 20.925 18.307,20.741 18.240,20.207 18.240 L 19.760 18.240 19.759 17.890 C 19.758 17.463,19.706 17.222,19.580 17.056 C 19.421 16.847,19.078 16.731,18.815 16.797 " stroke="none" fill-rule="evenodd" fill="black"></path></svg>