<svg width="24" height="24" viewBox="0 0 24 24" fill="none" xmlns="http://www.w3.org/2000/svg"><path d="M7.280 2.765 C 5.867 2.926,4.664 3.793,3.965 5.155 C 3.571 5.922,3.353 6.772,3.282 7.827 C 3.229 8.600,3.229 15.400,3.282 16.173 C 3.419 18.195,4.182 19.722,5.480 20.577 C 6.895 21.509,8.811 21.490,10.760 20.524 C 11.262 20.276,17.368 16.766,17.920 16.410 C 18.735 15.883,19.388 15.282,19.850 14.634 C 21.538 12.267,20.820 9.512,18.034 7.669 C 17.459 7.288,11.375 3.780,10.760 3.475 C 9.578 2.887,8.367 2.640,7.280 2.765 M8.606 4.297 C 9.040 4.381,9.529 4.545,9.980 4.757 C 10.394 4.953,16.841 8.651,17.252 8.929 C 17.601 9.165,18.156 9.643,18.370 9.894 C 18.969 10.592,19.248 11.261,19.248 12.000 C 19.248 12.735,18.966 13.411,18.370 14.107 C 18.116 14.404,17.500 14.915,17.081 15.178 C 16.367 15.625,10.361 19.063,9.980 19.242 C 9.153 19.633,8.503 19.780,7.743 19.748 C 6.945 19.716,6.460 19.524,5.946 19.040 C 5.345 18.475,4.980 17.691,4.822 16.627 C 4.729 16.003,4.729 7.997,4.822 7.373 C 4.981 6.300,5.341 5.529,5.952 4.953 C 6.278 4.646,6.754 4.390,7.160 4.302 C 7.503 4.229,8.239 4.226,8.606 4.297 " stroke="none" fill-rule="evenodd" fill="black"></path></svg>