<svg width="24" height="24" viewBox="0 0 24 24" fill="none" xmlns="http://www.w3.org/2000/svg"><path d="M11.300 1.320 C 10.448 1.375,9.627 1.525,8.760 1.784 C 8.328 1.913,8.152 2.028,8.045 2.250 C 7.815 2.725,8.108 3.269,8.616 3.311 C 8.777 3.325,8.945 3.295,9.324 3.185 C 10.280 2.908,11.030 2.800,12.000 2.800 C 12.970 2.800,13.720 2.908,14.676 3.185 C 15.055 3.295,15.223 3.325,15.384 3.311 C 15.892 3.269,16.185 2.725,15.955 2.250 C 15.839 2.010,15.664 1.908,15.088 1.742 C 13.856 1.388,12.537 1.241,11.300 1.320 M4.620 4.256 C 4.450 4.330,3.832 4.990,3.422 5.536 C 2.314 7.012,1.635 8.651,1.357 10.520 C 1.209 11.520,1.236 12.851,1.426 13.920 C 1.782 15.927,2.776 17.896,4.159 19.336 C 4.530 19.722,4.661 19.800,4.940 19.800 C 5.393 19.800,5.726 19.419,5.665 18.972 C 5.636 18.763,5.556 18.640,5.200 18.260 C 3.922 16.897,3.066 15.071,2.821 13.188 C 2.744 12.596,2.743 11.403,2.818 10.839 C 3.073 8.918,3.921 7.104,5.200 5.740 C 5.556 5.360,5.636 5.237,5.665 5.028 C 5.709 4.710,5.560 4.423,5.278 4.279 C 5.099 4.188,4.799 4.177,4.620 4.256 M18.740 4.266 C 18.441 4.424,18.291 4.705,18.334 5.023 C 18.364 5.237,18.442 5.358,18.800 5.740 C 20.078 7.103,20.934 8.929,21.179 10.812 C 21.258 11.422,21.258 12.539,21.179 13.148 C 20.929 15.067,20.105 16.851,18.840 18.216 C 18.439 18.648,18.364 18.760,18.335 18.972 C 18.274 19.419,18.607 19.800,19.060 19.800 C 19.346 19.800,19.473 19.721,19.876 19.296 C 23.226 15.756,23.690 10.208,20.979 6.100 C 20.447 5.294,19.641 4.368,19.371 4.254 C 19.200 4.182,18.889 4.188,18.740 4.266 M10.182 7.282 C 9.295 7.419,8.600 7.994,8.249 8.880 C 8.021 9.453,8.020 9.467,8.020 12.000 C 8.020 14.304,8.021 14.346,8.111 14.700 C 8.254 15.262,8.483 15.685,8.839 16.042 C 9.376 16.581,9.914 16.785,10.703 16.748 C 11.196 16.725,11.645 16.600,12.148 16.345 C 12.522 16.156,15.276 14.555,15.619 14.327 C 16.197 13.944,16.660 13.368,16.866 12.778 C 16.963 12.501,16.977 12.400,16.977 12.000 C 16.977 11.468,16.905 11.207,16.631 10.742 C 16.437 10.414,15.961 9.921,15.609 9.684 C 15.202 9.411,12.412 7.804,12.020 7.617 C 11.402 7.323,10.722 7.199,10.182 7.282 M11.132 8.858 C 11.282 8.911,12.158 9.390,13.087 9.927 C 14.900 10.976,15.185 11.179,15.390 11.575 C 15.651 12.080,15.445 12.618,14.822 13.058 C 14.400 13.357,11.444 15.048,11.172 15.147 C 10.841 15.267,10.511 15.303,10.286 15.242 C 9.910 15.140,9.608 14.703,9.519 14.133 C 9.490 13.945,9.480 13.171,9.489 11.835 C 9.502 9.872,9.505 9.813,9.592 9.552 C 9.706 9.212,9.891 8.965,10.119 8.850 C 10.366 8.725,10.764 8.728,11.132 8.858 M8.380 20.743 C 7.972 20.955,7.840 21.455,8.093 21.836 C 8.222 22.032,8.406 22.120,9.060 22.300 C 11.074 22.856,13.366 22.818,15.278 22.198 C 15.727 22.053,15.847 21.973,15.957 21.747 C 16.186 21.273,15.891 20.731,15.381 20.688 C 15.222 20.675,15.065 20.702,14.754 20.793 C 12.934 21.333,11.105 21.340,9.323 20.816 C 8.817 20.667,8.564 20.647,8.380 20.743 " stroke="none" fill-rule="evenodd" fill="black"></path></svg>