<svg width="24" height="24" viewBox="0 0 24 24" fill="none" xmlns="http://www.w3.org/2000/svg"><path d="M11.520 1.265 C 9.179 1.381,7.037 2.186,5.222 3.635 C 3.683 4.862,2.406 6.708,1.781 8.608 C 1.400 9.763,1.240 10.769,1.240 12.000 C 1.240 13.231,1.400 14.237,1.781 15.392 C 2.968 19.000,6.008 21.712,9.764 22.516 C 10.723 22.721,12.190 22.792,13.160 22.680 C 17.435 22.189,21.013 19.214,22.253 15.120 C 22.571 14.071,22.697 13.186,22.697 12.000 C 22.697 10.814,22.571 9.929,22.253 8.880 C 21.209 5.435,18.507 2.751,15.024 1.701 C 13.967 1.383,12.598 1.212,11.520 1.265 M13.082 2.817 C 16.549 3.250,19.446 5.544,20.660 8.818 C 21.024 9.801,21.208 10.858,21.210 11.980 C 21.211 13.036,21.073 13.933,20.761 14.881 C 19.624 18.344,16.573 20.806,12.928 21.202 C 12.295 21.270,11.037 21.232,10.440 21.126 C 8.405 20.764,6.697 19.852,5.279 18.372 C 1.870 14.814,1.867 9.188,5.272 5.635 C 6.452 4.403,7.833 3.562,9.429 3.103 C 9.859 2.979,10.663 2.824,11.060 2.788 C 11.494 2.749,12.667 2.765,13.082 2.817 M10.000 7.540 C 9.194 7.722,8.512 8.356,8.219 9.196 C 8.017 9.774,8.000 10.007,8.000 12.240 C 8.000 14.473,8.017 14.706,8.219 15.284 C 8.605 16.389,9.575 17.055,10.700 16.986 C 11.472 16.939,11.781 16.807,13.620 15.741 C 15.709 14.530,15.727 14.519,16.160 14.081 C 16.890 13.343,17.144 12.536,16.921 11.662 C 16.795 11.170,16.594 10.838,16.160 10.399 C 15.722 9.957,15.653 9.912,13.620 8.737 C 12.160 7.893,11.787 7.706,11.320 7.583 C 10.955 7.488,10.323 7.467,10.000 7.540 M10.822 9.004 C 11.176 9.069,11.437 9.202,13.157 10.192 C 14.627 11.038,14.757 11.122,15.061 11.420 C 15.506 11.855,15.597 12.116,15.454 12.543 C 15.403 12.695,15.314 12.813,15.061 13.060 C 14.757 13.358,14.627 13.442,13.157 14.288 C 12.289 14.788,11.461 15.250,11.318 15.315 C 10.369 15.745,9.725 15.433,9.537 14.453 C 9.454 14.019,9.454 10.462,9.537 10.027 C 9.661 9.382,10.019 8.988,10.503 8.964 C 10.548 8.962,10.692 8.980,10.822 9.004 " stroke="none" fill-rule="evenodd" fill="black"></path></svg>