<svg width="24" height="24" viewBox="0 0 24 24" fill="none" xmlns="http://www.w3.org/2000/svg"><path d="M11.320 1.281 C 9.259 1.398,7.250 2.142,5.530 3.424 C 4.912 3.884,3.884 4.912,3.424 5.530 C 1.875 7.608,1.136 10.050,1.281 12.610 C 1.402 14.759,2.118 16.717,3.424 18.470 C 3.880 19.083,4.909 20.111,5.530 20.575 C 7.593 22.116,10.055 22.865,12.586 22.720 C 13.506 22.667,14.355 22.515,15.220 22.248 L 15.460 22.174 15.755 22.447 C 16.769 23.390,18.057 23.835,19.428 23.716 C 20.377 23.634,21.077 23.360,21.872 22.761 C 23.793 21.314,24.305 18.624,23.054 16.548 C 22.876 16.253,22.551 15.840,22.328 15.625 L 22.167 15.471 22.244 15.249 C 22.482 14.557,22.667 13.526,22.720 12.607 C 22.864 10.051,22.122 7.602,20.575 5.530 C 20.115 4.913,19.087 3.885,18.470 3.425 C 17.047 2.362,15.454 1.679,13.742 1.398 C 13.334 1.331,12.074 1.229,11.880 1.247 C 11.847 1.250,11.595 1.265,11.320 1.281 M13.146 2.822 C 14.794 3.038,16.299 3.654,17.619 4.653 C 18.028 4.962,18.852 5.765,19.187 6.180 C 20.297 7.554,21.000 9.246,21.203 11.036 C 21.309 11.973,21.201 13.417,20.956 14.326 L 20.874 14.632 20.646 14.542 C 19.543 14.110,18.146 14.158,17.043 14.665 C 16.074 15.110,15.236 15.921,14.760 16.872 C 14.393 17.605,14.265 18.169,14.266 19.040 C 14.267 19.660,14.320 19.993,14.505 20.544 C 14.561 20.710,14.598 20.856,14.586 20.867 C 14.548 20.905,13.983 21.043,13.520 21.126 C 12.938 21.231,11.640 21.271,11.036 21.203 C 9.246 21.000,7.554 20.297,6.180 19.187 C 5.765 18.852,4.962 18.028,4.653 17.619 C 3.852 16.560,3.228 15.222,2.965 13.998 C 2.689 12.714,2.690 11.283,2.966 10.002 C 3.249 8.688,3.936 7.265,4.813 6.180 C 5.148 5.765,5.972 4.962,6.381 4.653 C 7.688 3.664,9.192 3.044,10.820 2.823 C 11.380 2.746,12.569 2.746,13.146 2.822 M10.480 7.962 C 10.359 7.983,10.114 8.072,9.935 8.159 C 9.401 8.422,9.033 8.853,8.819 9.468 C 8.649 9.956,8.634 10.197,8.650 12.166 C 8.664 13.954,8.668 14.031,8.755 14.319 C 9.205 15.808,10.518 16.411,11.990 15.804 C 12.283 15.683,14.738 14.286,15.166 13.997 C 16.013 13.424,16.447 12.555,16.320 11.691 C 16.248 11.201,16.027 10.784,15.626 10.380 C 15.447 10.200,15.196 9.986,15.069 9.906 C 14.609 9.615,12.373 8.343,12.100 8.216 C 11.580 7.976,10.962 7.879,10.480 7.962 M11.400 9.540 C 11.684 9.655,14.155 11.078,14.428 11.283 C 14.953 11.678,14.984 12.206,14.507 12.625 C 14.328 12.782,11.850 14.229,11.433 14.419 C 10.756 14.729,10.296 14.498,10.164 13.781 C 10.108 13.478,10.105 10.492,10.160 10.195 C 10.293 9.489,10.718 9.264,11.400 9.540 M19.632 15.823 C 20.700 16.043,21.607 16.793,22.004 17.784 C 22.173 18.205,22.239 18.552,22.239 19.020 C 22.239 19.545,22.138 19.947,21.872 20.480 C 21.696 20.832,21.608 20.956,21.321 21.245 C 20.635 21.940,19.934 22.241,19.007 22.239 C 17.909 22.237,16.956 21.733,16.342 20.828 C 15.918 20.204,15.732 19.546,15.773 18.820 C 15.801 18.343,15.874 18.052,16.078 17.615 C 16.442 16.835,17.109 16.232,17.937 15.933 C 18.413 15.761,19.109 15.716,19.632 15.823 M17.620 17.266 C 17.320 17.425,17.171 17.705,17.215 18.026 C 17.245 18.247,17.360 18.411,17.711 18.736 L 17.966 18.972 17.647 19.296 C 17.279 19.670,17.200 19.805,17.200 20.059 C 17.200 20.499,17.502 20.800,17.945 20.800 C 18.194 20.800,18.332 20.719,18.701 20.356 L 19.022 20.040 19.321 20.343 C 19.679 20.706,19.793 20.771,20.066 20.771 C 20.486 20.771,20.800 20.459,20.800 20.043 C 20.800 19.771,20.728 19.641,20.375 19.278 L 20.082 18.976 20.365 18.698 C 20.780 18.291,20.878 18.025,20.738 17.689 C 20.611 17.385,20.378 17.229,20.054 17.229 C 19.793 17.229,19.588 17.344,19.263 17.675 L 19.026 17.917 18.710 17.615 C 18.536 17.449,18.333 17.288,18.258 17.257 C 18.080 17.182,17.771 17.187,17.620 17.266 " stroke="none" fill-rule="evenodd" fill="black"></path></svg>