<svg width="24" height="24" viewBox="0 0 24 24" fill="none" xmlns="http://www.w3.org/2000/svg"><path d="M1.815 1.278 C 1.217 1.421,1.063 2.246,1.566 2.605 C 1.636 2.654,1.805 2.709,1.963 2.734 L 2.238 2.777 2.251 8.779 C 2.263 14.139,2.272 14.811,2.330 15.066 C 2.659 16.516,3.461 17.323,4.900 17.650 C 5.242 17.728,5.413 17.733,8.250 17.749 L 11.240 17.766 11.240 18.653 L 11.240 19.540 9.382 20.470 C 7.405 21.459,7.392 21.468,7.281 21.812 C 7.243 21.931,7.243 22.007,7.282 22.167 C 7.377 22.566,7.787 22.820,8.169 22.718 C 8.260 22.693,9.159 22.261,10.167 21.756 L 12.000 20.840 13.833 21.756 C 14.841 22.261,15.740 22.693,15.831 22.718 C 16.348 22.857,16.855 22.347,16.717 21.828 C 16.623 21.475,16.613 21.468,14.618 20.470 L 12.760 19.540 12.760 18.650 L 12.760 17.760 15.410 17.759 C 16.867 17.759,18.267 17.742,18.520 17.720 C 20.163 17.584,21.195 16.767,21.606 15.280 L 21.699 14.940 21.711 8.850 L 21.722 2.760 21.839 2.760 C 22.454 2.760,22.826 2.357,22.711 1.816 C 22.659 1.572,22.440 1.350,22.189 1.286 C 21.978 1.233,2.036 1.225,1.815 1.278 M20.230 8.750 C 20.217 15.375,20.237 14.874,19.958 15.398 C 19.806 15.683,19.589 15.889,19.293 16.026 C 18.823 16.246,19.078 16.239,11.976 16.239 C 5.567 16.240,5.406 16.238,5.103 16.161 C 4.392 15.979,4.008 15.595,3.811 14.871 C 3.749 14.641,3.742 14.119,3.730 8.690 L 3.717 2.760 11.980 2.760 L 20.242 2.760 20.230 8.750 M16.331 7.279 C 16.143 7.324,16.131 7.332,14.548 8.656 L 13.094 9.871 12.550 8.965 C 12.251 8.467,11.944 7.988,11.868 7.900 C 11.522 7.498,10.841 7.386,10.386 7.656 C 10.225 7.751,7.336 10.139,7.025 10.433 C 6.670 10.770,6.665 11.243,7.014 11.549 C 7.273 11.776,7.626 11.802,7.911 11.614 C 7.973 11.573,8.673 10.998,9.466 10.335 L 10.907 9.130 11.423 9.993 C 12.044 11.031,12.176 11.205,12.451 11.349 C 12.636 11.447,12.703 11.460,13.040 11.460 C 13.381 11.460,13.439 11.449,13.600 11.353 C 13.771 11.251,16.649 8.875,16.975 8.567 C 17.231 8.323,17.310 8.004,17.186 7.708 C 17.115 7.537,16.879 7.335,16.691 7.282 C 16.523 7.236,16.513 7.236,16.331 7.279 " stroke="none" fill-rule="evenodd" fill="black"></path></svg>