<svg width="24" height="24" viewBox="0 0 24 24" fill="none" xmlns="http://www.w3.org/2000/svg"><path d="M17.100 3.977 C 16.778 4.041,16.454 4.150,16.198 4.281 C 15.812 4.477,7.756 9.135,7.480 9.321 C 7.358 9.403,7.138 9.598,6.991 9.754 C 5.603 11.226,5.864 13.591,7.540 14.719 C 7.793 14.889,9.720 16.009,14.352 18.677 C 16.695 20.027,16.777 20.061,17.680 20.059 C 18.424 20.058,18.899 19.924,19.461 19.557 C 20.112 19.132,20.530 18.604,20.797 17.871 C 20.984 17.359,20.980 17.479,20.980 11.960 L 20.980 6.740 20.890 6.423 C 20.614 5.452,20.044 4.738,19.193 4.299 C 19.000 4.199,18.702 4.081,18.531 4.036 C 18.126 3.931,17.468 3.904,17.100 3.977 M3.459 5.136 C 3.310 5.201,3.092 5.444,3.051 5.591 C 3.011 5.734,3.011 18.266,3.051 18.409 C 3.093 18.561,3.313 18.801,3.468 18.866 C 3.633 18.935,3.887 18.935,4.052 18.866 C 4.207 18.801,4.427 18.561,4.469 18.409 C 4.509 18.266,4.509 5.734,4.469 5.591 C 4.427 5.439,4.207 5.199,4.052 5.134 C 3.890 5.066,3.617 5.067,3.459 5.136 M18.232 5.501 C 18.693 5.638,19.181 6.088,19.366 6.546 L 19.460 6.780 19.460 12.020 L 19.460 17.260 19.333 17.530 C 18.926 18.391,17.899 18.815,17.052 18.471 C 16.925 18.419,16.028 17.920,15.060 17.362 C 10.027 14.461,8.443 13.538,8.271 13.409 C 7.806 13.056,7.579 12.541,7.607 11.902 C 7.622 11.570,7.640 11.496,7.772 11.229 C 8.015 10.736,8.157 10.632,10.183 9.462 C 17.153 5.437,16.999 5.523,17.380 5.439 C 17.582 5.395,17.969 5.423,18.232 5.501 " stroke="none" fill-rule="evenodd" fill="black"></path></svg>