<svg width="24" height="24" viewBox="0 0 24 24" fill="none" xmlns="http://www.w3.org/2000/svg"><path d="M9.697 1.282 C 7.873 1.423,6.834 2.339,6.579 4.030 C 6.541 4.285,6.520 4.733,6.520 5.324 L 6.520 6.228 5.930 6.257 C 5.212 6.292,4.785 6.363,4.361 6.517 C 3.265 6.917,2.569 7.786,2.330 9.052 C 2.267 9.382,2.260 9.741,2.260 12.500 C 2.260 15.259,2.267 15.618,2.330 15.948 C 2.478 16.729,2.787 17.342,3.267 17.803 C 3.541 18.067,3.971 18.347,4.250 18.444 C 4.333 18.473,4.400 18.506,4.400 18.518 C 4.400 18.530,3.733 19.206,2.918 20.020 C 2.103 20.834,1.398 21.561,1.352 21.636 C 1.232 21.826,1.234 22.177,1.356 22.374 C 1.532 22.658,1.839 22.783,2.189 22.712 C 2.376 22.674,2.592 22.460,12.490 12.566 C 18.342 6.717,22.628 2.403,22.665 2.324 C 22.753 2.138,22.747 1.837,22.651 1.651 C 22.608 1.568,22.499 1.448,22.408 1.383 C 22.271 1.287,22.202 1.267,22.011 1.267 C 21.884 1.267,21.735 1.290,21.680 1.318 C 21.625 1.346,20.657 2.289,19.530 3.414 L 17.480 5.459 17.480 4.939 C 17.479 2.615,16.447 1.452,14.233 1.280 C 13.657 1.235,10.286 1.237,9.697 1.282 M14.898 2.892 C 15.426 3.079,15.678 3.320,15.836 3.789 C 15.965 4.170,15.998 4.506,15.999 5.410 L 16.000 6.240 12.000 6.240 L 8.000 6.240 8.001 5.410 C 8.002 4.506,8.035 4.170,8.164 3.789 C 8.350 3.236,8.763 2.922,9.461 2.802 C 9.570 2.783,10.767 2.770,12.120 2.774 L 14.580 2.780 14.898 2.892 M19.791 6.798 C 19.440 6.909,19.240 7.173,19.240 7.525 C 19.240 7.791,19.320 7.930,19.641 8.227 C 19.921 8.486,20.091 8.803,20.179 9.233 C 20.267 9.657,20.268 15.359,20.181 15.773 C 20.016 16.552,19.553 17.017,18.780 17.180 C 18.583 17.221,18.242 17.239,17.630 17.239 L 16.760 17.240 16.760 16.500 L 16.760 15.760 16.858 15.760 C 16.912 15.760,17.049 15.740,17.162 15.716 C 17.926 15.552,17.919 14.447,17.154 14.281 C 17.002 14.248,16.328 14.238,14.840 14.247 L 12.740 14.260 12.577 14.371 C 12.123 14.679,12.123 15.321,12.577 15.629 L 12.740 15.740 13.990 15.752 L 15.240 15.764 15.239 17.632 C 15.239 19.108,15.226 19.557,15.181 19.773 C 15.016 20.552,14.553 21.017,13.780 21.180 C 13.381 21.264,10.624 21.265,10.229 21.181 C 9.813 21.093,9.509 20.939,9.286 20.702 C 9.044 20.446,8.953 20.273,8.827 19.823 C 8.718 19.439,8.626 19.309,8.380 19.196 C 7.931 18.988,7.396 19.272,7.332 19.751 C 7.289 20.074,7.541 20.837,7.843 21.300 C 8.315 22.024,9.020 22.465,10.027 22.667 C 10.544 22.771,13.398 22.773,13.948 22.670 C 14.727 22.524,15.341 22.214,15.804 21.733 C 16.397 21.116,16.668 20.381,16.741 19.196 L 16.767 18.772 17.693 18.748 C 18.249 18.734,18.760 18.700,18.969 18.662 C 20.198 18.443,21.085 17.729,21.483 16.639 C 21.724 15.979,21.728 15.915,21.748 12.944 C 21.772 9.520,21.739 9.026,21.441 8.232 C 21.263 7.756,20.682 7.048,20.314 6.857 C 20.172 6.783,19.925 6.756,19.791 6.798 M10.440 12.500 C 6.655 16.285,5.680 17.240,5.600 17.239 C 5.545 17.239,5.374 17.212,5.220 17.180 C 4.447 17.017,3.984 16.552,3.819 15.773 C 3.734 15.369,3.734 9.631,3.819 9.227 C 3.982 8.457,4.445 7.986,5.200 7.823 C 5.415 7.776,6.301 7.766,10.320 7.763 L 15.180 7.760 10.440 12.500 M6.815 10.278 C 6.331 10.393,6.098 11.004,6.383 11.408 C 6.605 11.722,6.676 11.738,7.869 11.753 C 9.122 11.768,9.296 11.744,9.519 11.521 C 9.918 11.122,9.731 10.423,9.189 10.286 C 8.983 10.235,7.025 10.228,6.815 10.278 " stroke="none" fill-rule="evenodd" fill="black"></path></svg>