<svg width="24" height="24" viewBox="0 0 24 24" fill="none" xmlns="http://www.w3.org/2000/svg"><path d="M8.532 1.284 C 6.583 1.458,4.876 2.735,4.180 4.540 C 2.994 7.618,4.876 10.973,8.105 11.538 C 8.516 11.609,9.354 11.619,9.772 11.557 C 10.694 11.420,11.590 11.016,12.326 10.405 C 13.251 9.637,13.885 8.539,14.103 7.327 C 14.184 6.875,14.184 6.005,14.103 5.553 C 13.911 4.485,13.419 3.540,12.659 2.781 C 11.572 1.693,10.066 1.147,8.532 1.284 M10.018 2.897 C 11.241 3.263,12.167 4.187,12.545 5.420 C 12.646 5.750,12.656 5.836,12.657 6.440 C 12.659 7.008,12.646 7.143,12.569 7.411 C 12.304 8.333,11.662 9.156,10.827 9.647 C 9.702 10.308,8.114 10.273,7.032 9.565 C 6.259 9.059,5.713 8.344,5.454 7.500 C 5.353 7.169,5.344 7.085,5.342 6.460 C 5.341 5.821,5.347 5.759,5.454 5.421 C 5.857 4.152,6.729 3.276,7.961 2.906 C 8.415 2.770,8.454 2.765,9.100 2.779 C 9.569 2.788,9.718 2.808,10.018 2.897 M16.254 3.278 C 15.762 3.397,15.523 3.945,15.776 4.377 C 15.919 4.620,16.118 4.714,16.587 4.759 C 17.229 4.820,17.715 5.009,18.129 5.358 C 18.808 5.930,19.159 6.659,19.159 7.500 C 19.159 7.943,19.071 8.320,18.875 8.720 C 18.739 8.997,18.641 9.127,18.344 9.422 C 17.779 9.983,17.339 10.181,16.523 10.239 C 16.072 10.272,16.011 10.285,15.866 10.387 C 15.433 10.693,15.439 11.310,15.877 11.620 C 16.043 11.737,16.057 11.740,16.493 11.733 C 17.584 11.716,18.541 11.319,19.346 10.548 C 20.707 9.246,21.037 7.211,20.161 5.526 C 19.530 4.315,18.242 3.419,16.960 3.301 C 16.817 3.287,16.628 3.270,16.540 3.262 C 16.452 3.254,16.323 3.261,16.254 3.278 M8.220 12.485 C 6.418 12.638,4.736 13.223,3.473 14.138 C 2.925 14.535,2.290 15.267,2.004 15.830 C 1.885 16.067,1.737 16.494,1.676 16.780 C 1.607 17.100,1.607 17.874,1.675 18.213 C 1.936 19.510,2.924 20.659,4.480 21.475 C 6.573 22.572,9.426 22.850,11.933 22.201 C 14.058 21.652,15.693 20.493,16.364 19.062 C 16.633 18.487,16.694 18.194,16.695 17.480 C 16.695 16.920,16.685 16.826,16.587 16.509 C 16.195 15.230,15.219 14.190,13.693 13.426 C 12.220 12.687,10.111 12.325,8.220 12.485 M18.214 13.278 C 17.714 13.397,17.482 13.943,17.742 14.387 C 17.856 14.582,18.021 14.682,18.386 14.776 C 19.262 15.003,20.154 15.574,20.467 16.109 C 20.824 16.718,20.791 17.437,20.381 17.994 C 19.958 18.569,19.274 18.972,18.227 19.263 C 17.833 19.372,17.600 19.645,17.600 19.996 C 17.600 20.201,17.659 20.352,17.793 20.494 C 18.056 20.772,18.349 20.798,19.000 20.601 C 20.675 20.095,21.866 18.961,22.147 17.607 C 22.233 17.191,22.202 16.488,22.081 16.100 C 21.674 14.799,20.490 13.808,18.787 13.341 C 18.392 13.232,18.402 13.233,18.214 13.278 M10.300 14.004 C 11.943 14.178,13.542 14.853,14.420 15.742 C 14.985 16.314,15.222 16.843,15.217 17.520 C 15.216 17.806,15.193 17.964,15.124 18.160 C 14.792 19.114,13.782 19.976,12.382 20.499 C 9.851 21.444,6.644 21.162,4.585 19.813 C 4.428 19.710,4.126 19.452,3.914 19.240 C 3.582 18.907,3.504 18.803,3.347 18.477 C 3.014 17.783,3.011 17.220,3.339 16.540 C 3.835 15.512,5.067 14.686,6.773 14.238 C 7.867 13.951,9.056 13.872,10.300 14.004 " stroke="none" fill-rule="evenodd" fill="black"></path></svg>