<svg width="24" height="24" viewBox="0 0 24 24" fill="none" xmlns="http://www.w3.org/2000/svg"><path d="M11.532 1.284 C 9.583 1.458,7.876 2.735,7.180 4.540 C 5.994 7.618,7.876 10.973,11.105 11.538 C 11.516 11.609,12.354 11.619,12.772 11.557 C 13.694 11.420,14.590 11.016,15.326 10.405 C 16.251 9.637,16.885 8.539,17.103 7.327 C 17.184 6.875,17.184 6.005,17.103 5.553 C 16.911 4.485,16.419 3.540,15.659 2.781 C 14.572 1.693,13.066 1.147,11.532 1.284 M13.018 2.897 C 14.241 3.263,15.167 4.187,15.545 5.420 C 15.646 5.750,15.656 5.836,15.657 6.440 C 15.659 7.008,15.646 7.143,15.569 7.411 C 15.304 8.333,14.662 9.156,13.827 9.647 C 12.702 10.308,11.114 10.273,10.032 9.565 C 9.259 9.059,8.713 8.344,8.454 7.500 C 8.353 7.169,8.344 7.085,8.342 6.460 C 8.341 5.821,8.347 5.759,8.454 5.421 C 8.857 4.152,9.729 3.276,10.961 2.906 C 11.415 2.770,11.454 2.765,12.100 2.779 C 12.569 2.788,12.718 2.808,13.018 2.897 M11.220 12.485 C 9.418 12.638,7.736 13.223,6.473 14.138 C 5.925 14.535,5.290 15.267,5.004 15.830 C 4.885 16.067,4.737 16.494,4.676 16.780 C 4.607 17.100,4.607 17.874,4.675 18.213 C 4.936 19.510,5.924 20.659,7.480 21.475 C 9.573 22.572,12.426 22.850,14.933 22.201 C 17.058 21.652,18.693 20.493,19.364 19.062 C 19.633 18.487,19.694 18.194,19.695 17.480 C 19.695 16.920,19.685 16.826,19.587 16.509 C 19.195 15.230,18.219 14.190,16.693 13.426 C 15.220 12.687,13.111 12.325,11.220 12.485 M13.300 14.004 C 14.943 14.178,16.542 14.853,17.420 15.742 C 17.985 16.314,18.222 16.843,18.217 17.520 C 18.216 17.806,18.193 17.964,18.124 18.160 C 17.792 19.114,16.782 19.976,15.382 20.499 C 12.851 21.444,9.644 21.162,7.585 19.813 C 7.428 19.710,7.126 19.452,6.914 19.240 C 6.582 18.907,6.504 18.803,6.347 18.477 C 6.014 17.783,6.011 17.220,6.339 16.540 C 6.835 15.512,8.067 14.686,9.773 14.238 C 10.867 13.951,12.056 13.872,13.300 14.004 " stroke="none" fill-rule="evenodd" fill="black"></path></svg>