<svg width="24" height="24" viewBox="0 0 24 24" fill="none" xmlns="http://www.w3.org/2000/svg"><path d="M4.851 1.283 C 3.734 1.390,2.721 1.969,2.034 2.893 C 1.464 3.658,1.191 4.654,1.283 5.625 C 1.332 6.150,1.443 6.541,1.680 7.020 C 2.174 8.022,3.067 8.766,4.170 9.097 C 4.236 9.116,4.240 9.300,4.240 12.220 C 4.240 14.668,4.229 15.326,4.190 15.337 C 2.984 15.687,2.236 16.255,1.719 17.212 C 1.400 17.803,1.271 18.320,1.271 19.000 C 1.271 19.682,1.400 20.197,1.721 20.792 C 2.078 21.453,2.549 21.923,3.212 22.281 C 3.803 22.600,4.320 22.729,5.000 22.729 C 5.680 22.729,6.197 22.600,6.788 22.281 C 7.451 21.923,7.922 21.453,8.279 20.792 C 8.600 20.197,8.729 19.682,8.729 19.000 C 8.729 18.320,8.600 17.803,8.281 17.212 C 7.764 16.255,7.016 15.687,5.810 15.337 C 5.771 15.326,5.760 14.677,5.760 12.266 L 5.760 9.209 5.950 9.181 C 6.224 9.140,6.742 8.970,7.020 8.830 C 8.643 8.013,9.517 6.230,9.158 4.468 C 8.744 2.440,6.913 1.086,4.851 1.283 M14.810 1.278 C 14.648 1.318,14.567 1.381,12.861 2.809 C 12.091 3.453,11.423 4.038,11.375 4.109 C 11.206 4.363,11.220 4.702,11.408 4.941 C 11.502 5.060,14.542 7.607,14.666 7.671 C 14.931 7.807,15.298 7.742,15.520 7.520 C 15.764 7.276,15.808 6.892,15.627 6.591 C 15.601 6.549,15.265 6.251,14.880 5.931 C 14.495 5.611,14.153 5.323,14.120 5.292 C 14.068 5.244,14.287 5.238,15.680 5.248 C 17.237 5.260,17.307 5.263,17.485 5.345 C 17.754 5.470,17.980 5.693,18.119 5.970 L 18.240 6.213 18.240 10.768 C 18.240 14.377,18.230 15.326,18.190 15.337 C 16.984 15.687,16.236 16.255,15.719 17.212 C 15.400 17.803,15.271 18.320,15.271 19.000 C 15.271 19.682,15.400 20.197,15.721 20.792 C 16.078 21.453,16.549 21.923,17.212 22.281 C 17.803 22.600,18.320 22.729,19.000 22.729 C 19.680 22.729,20.197 22.600,20.788 22.281 C 21.451 21.923,21.922 21.453,22.279 20.792 C 22.600 20.197,22.729 19.682,22.729 19.000 C 22.729 18.320,22.600 17.803,22.281 17.212 C 21.765 16.256,21.008 15.681,19.812 15.338 C 19.774 15.327,19.760 14.272,19.749 10.692 C 19.738 7.148,19.723 6.013,19.684 5.860 C 19.657 5.750,19.553 5.495,19.455 5.294 C 19.136 4.640,18.547 4.120,17.869 3.892 L 17.540 3.782 15.809 3.761 L 14.077 3.740 14.817 3.126 C 15.223 2.788,15.583 2.472,15.615 2.422 C 15.789 2.156,15.774 1.795,15.579 1.536 C 15.420 1.326,15.079 1.212,14.810 1.278 M5.862 2.820 C 6.540 2.992,7.167 3.498,7.474 4.120 C 7.692 4.563,7.775 4.955,7.745 5.403 C 7.701 6.050,7.482 6.531,7.014 7.005 C 6.231 7.798,5.136 7.975,4.120 7.474 C 3.498 7.167,2.992 6.540,2.820 5.862 C 2.744 5.559,2.744 4.974,2.820 4.650 C 3.018 3.810,3.796 3.025,4.632 2.822 C 4.942 2.747,5.568 2.746,5.862 2.820 M5.578 16.821 C 5.949 16.918,6.274 17.112,6.581 17.419 C 7.041 17.879,7.240 18.356,7.240 19.000 C 7.240 19.644,7.041 20.121,6.581 20.581 C 6.121 21.041,5.644 21.240,5.000 21.240 C 4.356 21.240,3.879 21.041,3.419 20.581 C 2.959 20.121,2.760 19.644,2.760 19.000 C 2.760 18.356,2.959 17.879,3.419 17.419 C 3.719 17.118,4.050 16.919,4.404 16.823 C 4.692 16.746,5.285 16.745,5.578 16.821 M19.578 16.821 C 19.949 16.918,20.274 17.112,20.581 17.419 C 21.041 17.879,21.240 18.356,21.240 19.000 C 21.240 19.644,21.041 20.121,20.581 20.581 C 20.121 21.041,19.644 21.240,19.000 21.240 C 18.356 21.240,17.879 21.041,17.419 20.581 C 16.959 20.121,16.760 19.644,16.760 19.000 C 16.760 18.356,16.959 17.879,17.419 17.419 C 17.719 17.118,18.050 16.919,18.404 16.823 C 18.692 16.746,19.285 16.745,19.578 16.821 " stroke="none" fill-rule="evenodd" fill="black"></path></svg>