<svg width="24" height="24" viewBox="0 0 24 24" fill="none" xmlns="http://www.w3.org/2000/svg"><path d="M4.740 1.266 C 3.415 1.385,2.327 2.085,1.719 3.212 C 1.400 3.803,1.271 4.320,1.271 5.000 C 1.271 5.680,1.400 6.197,1.719 6.788 C 2.235 7.744,2.992 8.319,4.188 8.662 C 4.226 8.673,4.240 9.728,4.251 13.308 C 4.262 16.852,4.277 17.987,4.316 18.140 C 4.343 18.250,4.447 18.505,4.545 18.706 C 4.864 19.359,5.452 19.879,6.131 20.108 L 6.460 20.219 8.691 20.239 L 10.922 20.260 10.166 20.889 C 9.335 21.580,9.263 21.671,9.267 22.033 C 9.271 22.434,9.602 22.740,10.025 22.734 C 10.163 22.732,10.277 22.703,10.366 22.647 C 10.626 22.482,13.540 20.018,13.625 19.891 C 13.794 19.637,13.780 19.298,13.592 19.059 C 13.493 18.933,10.458 16.394,10.316 16.318 C 10.265 16.291,10.133 16.267,10.021 16.266 C 9.603 16.260,9.271 16.568,9.267 16.967 C 9.263 17.324,9.337 17.420,10.115 18.066 C 10.503 18.388,10.847 18.677,10.880 18.707 C 10.931 18.755,10.637 18.762,8.820 18.752 C 6.752 18.740,6.696 18.738,6.515 18.655 C 6.246 18.530,6.020 18.307,5.881 18.030 L 5.760 17.787 5.760 13.232 C 5.760 9.623,5.770 8.674,5.810 8.663 C 7.016 8.313,7.764 7.745,8.281 6.788 C 8.600 6.197,8.729 5.680,8.729 5.000 C 8.729 4.320,8.600 3.803,8.281 3.212 C 7.832 2.381,7.122 1.779,6.215 1.463 C 5.793 1.316,5.149 1.230,4.740 1.266 M13.810 1.278 C 13.648 1.318,13.567 1.381,11.861 2.809 C 11.091 3.453,10.423 4.038,10.375 4.109 C 10.206 4.363,10.220 4.702,10.408 4.941 C 10.502 5.060,13.542 7.607,13.666 7.671 C 13.931 7.807,14.298 7.742,14.520 7.520 C 14.764 7.276,14.808 6.892,14.627 6.591 C 14.601 6.549,14.265 6.251,13.880 5.931 C 13.495 5.611,13.153 5.323,13.120 5.293 C 13.069 5.245,13.363 5.238,15.180 5.248 C 17.248 5.260,17.304 5.262,17.485 5.345 C 17.754 5.470,17.980 5.693,18.119 5.970 L 18.240 6.213 18.240 10.768 C 18.240 14.377,18.230 15.326,18.190 15.337 C 16.984 15.687,16.236 16.255,15.719 17.212 C 15.400 17.803,15.271 18.320,15.271 19.000 C 15.271 19.682,15.400 20.197,15.721 20.792 C 16.078 21.453,16.549 21.923,17.212 22.281 C 17.803 22.600,18.320 22.729,19.000 22.729 C 19.680 22.729,20.197 22.600,20.788 22.281 C 21.451 21.923,21.922 21.453,22.279 20.792 C 22.600 20.197,22.729 19.682,22.729 19.000 C 22.729 18.320,22.600 17.803,22.281 17.212 C 21.765 16.256,21.008 15.681,19.812 15.338 C 19.774 15.327,19.760 14.272,19.749 10.692 C 19.738 7.148,19.723 6.013,19.684 5.860 C 19.657 5.750,19.553 5.495,19.455 5.294 C 19.136 4.641,18.548 4.121,17.869 3.892 L 17.540 3.781 15.309 3.761 L 13.077 3.740 13.817 3.126 C 14.223 2.788,14.583 2.472,14.615 2.422 C 14.789 2.156,14.774 1.795,14.579 1.536 C 14.420 1.326,14.079 1.212,13.810 1.278 M5.578 2.821 C 5.949 2.918,6.274 3.112,6.581 3.419 C 7.041 3.879,7.240 4.356,7.240 5.000 C 7.240 5.644,7.041 6.121,6.581 6.581 C 6.121 7.041,5.644 7.240,5.000 7.240 C 4.356 7.240,3.879 7.041,3.419 6.581 C 2.959 6.121,2.760 5.644,2.760 5.000 C 2.760 4.356,2.959 3.879,3.419 3.419 C 3.719 3.118,4.050 2.919,4.404 2.823 C 4.692 2.746,5.285 2.745,5.578 2.821 M19.578 16.821 C 19.949 16.918,20.274 17.112,20.581 17.419 C 21.041 17.879,21.240 18.356,21.240 19.000 C 21.240 19.644,21.041 20.121,20.581 20.581 C 20.121 21.041,19.644 21.240,19.000 21.240 C 18.356 21.240,17.879 21.041,17.419 20.581 C 16.959 20.121,16.760 19.644,16.760 19.000 C 16.760 18.356,16.959 17.879,17.419 17.419 C 17.719 17.118,18.050 16.919,18.404 16.823 C 18.692 16.746,19.285 16.745,19.578 16.821 " stroke="none" fill-rule="evenodd" fill="black"></path></svg>