<svg width="24" height="24" viewBox="0 0 24 24" fill="none" xmlns="http://www.w3.org/2000/svg"><path d="M11.320 1.281 C 7.041 1.525,3.252 4.409,1.843 8.497 C 1.180 10.418,1.082 12.560,1.564 14.550 C 2.505 18.428,5.572 21.495,9.450 22.436 C 11.106 22.837,12.894 22.837,14.550 22.436 C 18.428 21.495,21.495 18.428,22.436 14.550 C 22.837 12.894,22.837 11.106,22.436 9.450 C 21.425 5.282,17.985 2.095,13.742 1.398 C 13.334 1.331,12.074 1.229,11.880 1.247 C 11.847 1.250,11.595 1.265,11.320 1.281 M13.146 2.822 C 14.201 2.960,15.125 3.237,16.060 3.696 C 18.877 5.079,20.768 7.722,21.178 10.854 C 21.301 11.786,21.244 13.026,21.034 13.998 C 20.745 15.343,20.003 16.855,19.121 17.900 C 18.247 18.935,17.240 19.726,16.060 20.304 C 14.761 20.940,13.462 21.240,12.000 21.240 C 10.538 21.240,9.236 20.940,7.940 20.304 C 5.123 18.921,3.232 16.278,2.822 13.146 C 2.699 12.214,2.756 10.974,2.966 10.002 C 3.177 9.020,3.703 7.775,4.268 6.920 C 5.750 4.677,8.131 3.188,10.820 2.823 C 11.380 2.746,12.569 2.746,13.146 2.822 M7.542 7.323 C 6.903 7.546,6.434 8.069,6.299 8.709 C 6.217 9.094,6.218 10.763,6.300 11.111 C 6.387 11.477,6.539 11.746,6.815 12.022 C 7.120 12.327,7.479 12.506,7.887 12.560 C 8.048 12.580,8.610 12.598,9.136 12.599 L 10.092 12.600 10.065 12.944 C 10.007 13.702,9.833 14.221,9.519 14.573 C 9.422 14.683,9.100 14.930,8.780 15.141 C 8.468 15.346,8.180 15.565,8.139 15.627 C 8.060 15.748,8.014 16.092,8.056 16.257 C 8.091 16.399,8.314 16.642,8.468 16.706 C 8.660 16.786,8.938 16.773,9.132 16.674 C 9.224 16.627,9.471 16.477,9.680 16.342 C 10.714 15.671,11.184 15.030,11.422 13.965 C 11.567 13.312,11.599 12.736,11.600 10.738 C 11.600 8.709,11.592 8.625,11.353 8.208 C 11.169 7.886,10.838 7.582,10.484 7.409 L 10.180 7.260 8.980 7.250 C 7.853 7.241,7.766 7.245,7.542 7.323 M13.712 7.317 C 13.586 7.357,13.406 7.436,13.311 7.491 C 13.100 7.615,12.771 7.958,12.631 8.200 C 12.422 8.562,12.400 8.722,12.400 9.903 C 12.400 10.880,12.408 11.018,12.480 11.252 C 12.654 11.813,13.119 12.292,13.678 12.484 C 13.920 12.568,14.026 12.576,15.092 12.591 L 16.245 12.608 16.220 12.834 C 16.071 14.203,15.893 14.514,14.880 15.172 C 14.370 15.502,14.311 15.557,14.222 15.770 C 14.138 15.971,14.144 16.142,14.244 16.348 C 14.371 16.610,14.558 16.734,14.855 16.752 C 15.139 16.769,15.247 16.721,15.897 16.290 C 17.038 15.533,17.508 14.740,17.681 13.280 C 17.747 12.723,17.782 9.342,17.726 8.927 C 17.647 8.344,17.346 7.865,16.854 7.538 C 16.440 7.263,16.298 7.240,15.046 7.242 C 14.090 7.244,13.909 7.254,13.712 7.317 M9.881 8.781 C 10.105 8.897,10.120 8.976,10.120 10.078 L 10.120 11.080 9.069 11.080 C 8.162 11.080,8.005 11.071,7.925 11.015 C 7.747 10.890,7.720 10.742,7.720 9.891 C 7.720 9.025,7.752 8.875,7.960 8.771 C 8.117 8.692,9.726 8.700,9.881 8.781 M16.104 8.856 L 16.240 8.992 16.240 10.036 L 16.240 11.080 15.197 11.080 C 14.559 11.080,14.125 11.064,14.078 11.039 C 13.902 10.945,13.880 10.816,13.880 9.878 L 13.880 8.992 14.016 8.856 L 14.152 8.720 15.060 8.720 L 15.968 8.720 16.104 8.856 " stroke="none" fill-rule="evenodd" fill="black"></path></svg>