<svg width="24" height="24" viewBox="0 0 24 24" fill="none" xmlns="http://www.w3.org/2000/svg"><path d="M8.080 1.282 C 4.008 1.495,1.895 3.296,1.383 6.991 C 1.270 7.803,1.242 8.816,1.242 12.000 C 1.242 16.504,1.302 17.273,1.760 18.650 C 2.532 20.963,4.206 22.226,7.027 22.622 C 7.786 22.728,8.902 22.759,12.000 22.759 C 15.098 22.759,16.214 22.728,16.973 22.622 C 19.443 22.275,20.996 21.288,21.897 19.490 C 22.379 18.530,22.638 17.369,22.720 15.807 C 22.771 14.838,22.771 9.162,22.720 8.193 C 22.657 6.998,22.521 6.191,22.242 5.356 C 21.632 3.531,20.469 2.367,18.650 1.760 C 17.788 1.473,17.023 1.344,15.806 1.280 C 14.952 1.235,8.952 1.237,8.080 1.282 M16.800 2.854 C 19.586 3.316,20.714 4.454,21.148 7.240 C 21.214 7.661,21.220 8.064,21.220 12.000 C 21.220 15.936,21.214 16.339,21.148 16.760 C 20.712 19.558,19.558 20.712,16.760 21.148 C 16.339 21.214,15.936 21.220,12.000 21.220 C 8.064 21.220,7.661 21.214,7.240 21.148 C 4.450 20.713,3.283 19.551,2.854 16.780 C 2.785 16.335,2.780 15.989,2.780 12.000 C 2.780 7.247,2.776 7.337,3.044 6.288 C 3.557 4.282,4.722 3.274,6.960 2.900 C 7.690 2.777,8.048 2.769,12.200 2.777 C 15.963 2.784,16.422 2.791,16.800 2.854 M8.696 7.344 C 8.288 7.560,7.716 7.964,7.422 8.243 C 6.766 8.867,6.457 9.561,6.319 10.720 C 6.253 11.277,6.218 14.658,6.274 15.073 C 6.351 15.642,6.610 16.071,7.092 16.426 C 7.504 16.729,7.677 16.760,8.937 16.760 C 10.088 16.760,10.246 16.740,10.617 16.551 C 10.826 16.445,11.168 16.118,11.323 15.875 C 11.574 15.485,11.600 15.316,11.600 14.101 C 11.600 13.120,11.592 12.982,11.520 12.748 C 11.346 12.187,10.881 11.708,10.322 11.516 C 10.080 11.432,9.974 11.424,8.908 11.409 L 7.755 11.392 7.780 11.166 C 7.929 9.795,8.106 9.486,9.126 8.825 C 9.382 8.659,9.629 8.476,9.674 8.419 C 9.877 8.161,9.880 7.803,9.683 7.530 C 9.463 7.227,9.060 7.151,8.696 7.344 M14.860 7.327 C 14.545 7.491,13.815 7.996,13.571 8.218 C 13.265 8.497,12.892 9.045,12.752 9.422 C 12.462 10.205,12.401 10.870,12.400 13.262 C 12.400 15.291,12.408 15.375,12.647 15.792 C 12.831 16.114,13.162 16.418,13.516 16.591 L 13.820 16.740 15.080 16.740 L 16.340 16.740 16.654 16.590 C 17.015 16.418,17.352 16.102,17.532 15.770 C 17.718 15.426,17.759 15.123,17.759 14.100 C 17.759 13.086,17.720 12.795,17.538 12.436 C 17.384 12.132,16.997 11.760,16.676 11.607 C 16.315 11.435,16.023 11.402,14.884 11.401 L 13.908 11.400 13.935 11.056 C 13.994 10.284,14.170 9.761,14.487 9.417 C 14.582 9.314,14.914 9.062,15.224 8.857 C 15.534 8.653,15.820 8.436,15.859 8.375 C 15.944 8.246,15.981 7.984,15.943 7.782 C 15.910 7.608,15.708 7.368,15.532 7.294 C 15.343 7.215,15.047 7.230,14.860 7.327 M9.922 12.961 C 10.098 13.055,10.120 13.184,10.120 14.122 L 10.120 15.008 9.984 15.144 L 9.848 15.280 8.940 15.280 L 8.032 15.280 7.896 15.144 L 7.760 15.008 7.760 13.964 L 7.760 12.920 8.803 12.920 C 9.441 12.920,9.875 12.936,9.922 12.961 M16.094 13.002 C 16.262 13.134,16.288 13.305,16.273 14.182 C 16.259 15.055,16.234 15.159,16.015 15.242 C 15.960 15.263,15.537 15.280,15.075 15.280 C 13.822 15.280,13.880 15.346,13.880 13.922 L 13.880 12.920 14.935 12.920 C 15.938 12.920,15.994 12.924,16.094 13.002 " stroke="none" fill-rule="evenodd" fill="black"></path></svg>