<svg width="24" height="24" viewBox="0 0 24 24" fill="none" xmlns="http://www.w3.org/2000/svg"><path d="M3.908 2.582 C 2.572 2.829,1.531 3.887,1.299 5.235 C 1.245 5.546,1.238 5.916,1.249 7.631 C 1.263 9.562,1.268 9.675,1.350 9.968 C 1.665 11.096,2.540 11.974,3.662 12.288 C 3.975 12.376,4.028 12.377,6.796 12.391 L 9.613 12.404 9.586 13.172 C 9.532 14.763,9.335 15.907,8.958 16.830 C 8.718 17.418,8.480 17.765,7.963 18.283 C 7.454 18.792,6.998 19.132,5.976 19.763 C 5.614 19.987,5.284 20.219,5.242 20.278 C 5.199 20.337,5.144 20.467,5.119 20.567 C 4.991 21.076,5.469 21.555,5.990 21.438 C 6.289 21.371,7.878 20.353,8.520 19.817 C 9.930 18.642,10.618 17.295,10.920 15.120 C 11.086 13.929,11.100 13.464,11.100 9.300 L 11.100 5.300 11.010 4.988 C 10.733 4.034,10.102 3.282,9.226 2.863 C 8.552 2.540,8.604 2.546,6.280 2.535 C 4.627 2.527,4.158 2.536,3.908 2.582 M15.574 2.579 C 15.182 2.650,14.907 2.743,14.603 2.908 C 13.697 3.397,13.080 4.266,12.924 5.274 C 12.865 5.653,12.865 9.267,12.924 9.646 C 13.121 10.917,14.040 11.939,15.300 12.289 C 15.614 12.376,15.670 12.378,18.430 12.391 L 21.240 12.404 21.240 12.732 C 21.239 13.527,21.124 14.722,20.974 15.499 C 20.684 17.000,20.141 17.924,19.031 18.803 C 18.758 19.020,18.015 19.517,17.480 19.840 C 17.249 19.979,17.017 20.131,16.965 20.177 C 16.838 20.288,16.722 20.547,16.722 20.720 C 16.722 21.151,17.159 21.532,17.565 21.454 C 17.749 21.419,17.898 21.341,18.544 20.938 C 20.145 19.941,20.885 19.277,21.549 18.240 C 22.041 17.473,22.411 16.285,22.576 14.940 C 22.720 13.774,22.739 13.112,22.739 9.260 C 22.740 5.694,22.735 5.440,22.666 5.142 C 22.352 3.805,21.310 2.813,19.974 2.580 C 19.512 2.499,16.017 2.499,15.574 2.579 M8.080 4.041 C 8.829 4.159,9.462 4.776,9.600 5.522 C 9.625 5.659,9.637 6.704,9.630 8.321 L 9.620 10.900 6.920 10.900 C 4.467 10.900,4.199 10.894,3.995 10.830 C 3.476 10.670,3.015 10.218,2.833 9.691 C 2.740 9.421,2.740 9.410,2.740 7.460 C 2.740 5.510,2.740 5.499,2.833 5.229 C 3.050 4.602,3.598 4.136,4.229 4.044 C 4.565 3.994,7.769 3.993,8.080 4.041 M20.020 4.117 C 20.495 4.305,20.879 4.661,21.093 5.111 L 21.220 5.380 21.231 8.150 L 21.242 10.920 18.711 10.919 C 17.228 10.919,16.064 10.902,15.900 10.878 C 15.143 10.769,14.543 10.196,14.401 9.444 C 14.377 9.318,14.360 8.496,14.360 7.460 C 14.360 6.424,14.377 5.602,14.401 5.476 C 14.540 4.743,15.143 4.152,15.863 4.043 C 15.993 4.023,16.928 4.010,17.940 4.015 C 19.773 4.022,19.781 4.023,20.020 4.117 " stroke="none" fill-rule="evenodd" fill="black"></path></svg>