<svg width="24" height="24" viewBox="0 0 24 24" fill="none" xmlns="http://www.w3.org/2000/svg"><path d="M11.320 1.281 C 7.041 1.525,3.252 4.409,1.843 8.497 C 1.180 10.418,1.082 12.560,1.564 14.550 C 2.505 18.428,5.572 21.495,9.450 22.436 C 11.106 22.837,12.894 22.837,14.550 22.436 C 18.428 21.495,21.495 18.428,22.436 14.550 C 22.837 12.894,22.837 11.106,22.436 9.450 C 21.425 5.282,17.985 2.095,13.742 1.398 C 13.334 1.331,12.074 1.229,11.880 1.247 C 11.847 1.250,11.595 1.265,11.320 1.281 M13.146 2.822 C 14.201 2.960,15.125 3.237,16.060 3.696 C 18.877 5.079,20.768 7.722,21.178 10.854 C 21.301 11.786,21.244 13.026,21.034 13.998 C 20.745 15.343,20.003 16.855,19.121 17.900 C 18.247 18.935,17.240 19.726,16.060 20.304 C 14.761 20.940,13.462 21.240,12.000 21.240 C 10.538 21.240,9.236 20.940,7.940 20.304 C 5.123 18.921,3.232 16.278,2.822 13.146 C 2.699 12.214,2.756 10.974,2.966 10.002 C 3.177 9.020,3.703 7.775,4.268 6.920 C 5.750 4.677,8.131 3.188,10.820 2.823 C 11.380 2.746,12.569 2.746,13.146 2.822 M8.696 7.344 C 8.288 7.560,7.716 7.964,7.422 8.243 C 6.766 8.867,6.457 9.561,6.319 10.720 C 6.253 11.277,6.218 14.658,6.274 15.073 C 6.351 15.642,6.610 16.071,7.092 16.426 C 7.504 16.729,7.677 16.760,8.937 16.760 C 10.088 16.760,10.246 16.740,10.617 16.551 C 10.826 16.445,11.168 16.118,11.323 15.875 C 11.574 15.485,11.600 15.316,11.600 14.101 C 11.600 13.120,11.592 12.982,11.520 12.748 C 11.346 12.187,10.881 11.708,10.322 11.516 C 10.080 11.432,9.974 11.424,8.908 11.409 L 7.755 11.392 7.780 11.166 C 7.929 9.795,8.106 9.486,9.126 8.825 C 9.382 8.659,9.629 8.476,9.674 8.419 C 9.877 8.161,9.880 7.803,9.683 7.530 C 9.463 7.227,9.060 7.151,8.696 7.344 M14.860 7.327 C 14.545 7.491,13.815 7.996,13.571 8.218 C 13.265 8.497,12.892 9.045,12.752 9.422 C 12.462 10.205,12.401 10.870,12.400 13.262 C 12.400 15.291,12.408 15.375,12.647 15.792 C 12.831 16.114,13.162 16.418,13.516 16.591 L 13.820 16.740 15.080 16.740 L 16.340 16.740 16.654 16.590 C 17.015 16.418,17.352 16.102,17.532 15.770 C 17.718 15.426,17.759 15.123,17.759 14.100 C 17.759 13.086,17.720 12.795,17.538 12.436 C 17.384 12.132,16.997 11.760,16.676 11.607 C 16.315 11.435,16.023 11.402,14.884 11.401 L 13.908 11.400 13.935 11.056 C 13.994 10.284,14.170 9.761,14.487 9.417 C 14.582 9.314,14.914 9.062,15.224 8.857 C 15.534 8.653,15.820 8.436,15.859 8.375 C 15.944 8.246,15.981 7.984,15.943 7.782 C 15.910 7.608,15.708 7.368,15.532 7.294 C 15.343 7.215,15.047 7.230,14.860 7.327 M9.922 12.961 C 10.098 13.055,10.120 13.184,10.120 14.122 L 10.120 15.008 9.984 15.144 L 9.848 15.280 8.940 15.280 L 8.032 15.280 7.896 15.144 L 7.760 15.008 7.760 13.964 L 7.760 12.920 8.803 12.920 C 9.441 12.920,9.875 12.936,9.922 12.961 M16.094 13.002 C 16.262 13.134,16.288 13.305,16.273 14.182 C 16.259 15.055,16.234 15.159,16.015 15.242 C 15.960 15.263,15.537 15.280,15.075 15.280 C 13.822 15.280,13.880 15.346,13.880 13.922 L 13.880 12.920 14.935 12.920 C 15.938 12.920,15.994 12.924,16.094 13.002 " stroke="none" fill-rule="evenodd" fill="black"></path></svg>