<svg width="24" height="24" viewBox="0 0 24 24" fill="none" xmlns="http://www.w3.org/2000/svg"><path d="M8.080 1.282 C 4.008 1.495,1.895 3.296,1.383 6.991 C 1.270 7.803,1.242 8.816,1.242 12.000 C 1.242 16.504,1.302 17.273,1.760 18.650 C 2.532 20.963,4.206 22.226,7.027 22.622 C 7.786 22.728,8.902 22.759,12.000 22.759 C 15.098 22.759,16.214 22.728,16.973 22.622 C 19.443 22.275,20.996 21.288,21.897 19.490 C 22.379 18.530,22.638 17.369,22.720 15.807 C 22.771 14.838,22.771 9.162,22.720 8.193 C 22.657 6.998,22.521 6.191,22.242 5.356 C 21.632 3.531,20.469 2.367,18.650 1.760 C 17.788 1.473,17.023 1.344,15.806 1.280 C 14.952 1.235,8.952 1.237,8.080 1.282 M16.800 2.854 C 19.586 3.316,20.714 4.454,21.148 7.240 C 21.214 7.661,21.220 8.064,21.220 12.000 C 21.220 15.936,21.214 16.339,21.148 16.760 C 20.712 19.558,19.558 20.712,16.760 21.148 C 16.339 21.214,15.936 21.220,12.000 21.220 C 8.064 21.220,7.661 21.214,7.240 21.148 C 4.450 20.713,3.283 19.551,2.854 16.780 C 2.785 16.335,2.780 15.989,2.780 12.000 C 2.780 7.247,2.776 7.337,3.044 6.288 C 3.557 4.282,4.722 3.274,6.960 2.900 C 7.690 2.777,8.048 2.769,12.200 2.777 C 15.963 2.784,16.422 2.791,16.800 2.854 M7.542 7.323 C 6.903 7.546,6.434 8.069,6.299 8.709 C 6.217 9.094,6.218 10.763,6.300 11.111 C 6.387 11.477,6.539 11.746,6.815 12.022 C 7.120 12.327,7.479 12.506,7.887 12.560 C 8.048 12.580,8.610 12.598,9.136 12.599 L 10.092 12.600 10.065 12.944 C 10.007 13.702,9.833 14.221,9.519 14.573 C 9.422 14.683,9.100 14.930,8.780 15.141 C 8.468 15.346,8.180 15.565,8.139 15.627 C 8.060 15.748,8.014 16.092,8.056 16.257 C 8.091 16.399,8.314 16.642,8.468 16.706 C 8.660 16.786,8.938 16.773,9.132 16.674 C 9.224 16.627,9.471 16.477,9.680 16.342 C 10.714 15.671,11.184 15.030,11.422 13.965 C 11.567 13.312,11.599 12.736,11.600 10.738 C 11.600 8.709,11.592 8.625,11.353 8.208 C 11.169 7.886,10.838 7.582,10.484 7.409 L 10.180 7.260 8.980 7.250 C 7.853 7.241,7.766 7.245,7.542 7.323 M13.712 7.317 C 13.586 7.357,13.406 7.436,13.311 7.491 C 13.100 7.615,12.771 7.958,12.631 8.200 C 12.422 8.562,12.400 8.722,12.400 9.903 C 12.400 10.880,12.408 11.018,12.480 11.252 C 12.654 11.813,13.119 12.292,13.678 12.484 C 13.920 12.568,14.026 12.576,15.092 12.591 L 16.245 12.608 16.220 12.834 C 16.071 14.203,15.893 14.514,14.880 15.172 C 14.370 15.502,14.311 15.557,14.222 15.770 C 14.138 15.971,14.144 16.142,14.244 16.348 C 14.371 16.610,14.558 16.734,14.855 16.752 C 15.139 16.769,15.247 16.721,15.897 16.290 C 17.038 15.533,17.508 14.740,17.681 13.280 C 17.747 12.723,17.782 9.342,17.726 8.927 C 17.647 8.344,17.346 7.865,16.854 7.538 C 16.440 7.263,16.298 7.240,15.046 7.242 C 14.090 7.244,13.909 7.254,13.712 7.317 M9.881 8.781 C 10.105 8.897,10.120 8.976,10.120 10.078 L 10.120 11.080 9.069 11.080 C 8.162 11.080,8.005 11.071,7.925 11.015 C 7.747 10.890,7.720 10.742,7.720 9.891 C 7.720 9.025,7.752 8.875,7.960 8.771 C 8.117 8.692,9.726 8.700,9.881 8.781 M16.104 8.856 L 16.240 8.992 16.240 10.036 L 16.240 11.080 15.197 11.080 C 14.559 11.080,14.125 11.064,14.078 11.039 C 13.902 10.945,13.880 10.816,13.880 9.878 L 13.880 8.992 14.016 8.856 L 14.152 8.720 15.060 8.720 L 15.968 8.720 16.104 8.856 " stroke="none" fill-rule="evenodd" fill="black"></path></svg>