<svg width="24" height="24" viewBox="0 0 24 24" fill="none" xmlns="http://www.w3.org/2000/svg"><path d="M6.373 2.558 C 6.143 2.613,5.012 3.310,4.261 3.860 C 2.773 4.949,1.953 6.241,1.583 8.080 C 1.300 9.490,1.262 10.282,1.261 14.740 C 1.260 18.294,1.265 18.560,1.334 18.855 C 1.594 19.964,2.378 20.870,3.412 21.259 C 3.970 21.468,4.221 21.486,6.391 21.471 C 8.294 21.457,8.394 21.453,8.700 21.368 C 9.957 21.022,10.879 19.997,11.076 18.726 C 11.135 18.347,11.135 14.733,11.076 14.354 C 10.879 13.083,9.960 12.061,8.700 11.711 C 8.386 11.624,8.330 11.622,5.570 11.609 L 2.760 11.596 2.760 11.268 C 2.761 10.473,2.876 9.278,3.026 8.501 C 3.394 6.596,4.086 5.686,6.147 4.395 C 6.441 4.211,6.766 4.006,6.869 3.940 C 7.100 3.792,7.228 3.610,7.263 3.375 C 7.315 3.027,7.073 2.657,6.731 2.562 C 6.563 2.516,6.553 2.516,6.373 2.558 M17.967 2.564 C 17.811 2.611,17.115 3.030,16.373 3.525 C 14.307 4.905,13.436 6.322,13.080 8.880 C 12.914 10.071,12.900 10.536,12.900 14.700 L 12.900 18.700 13.012 19.059 C 13.367 20.191,14.175 20.999,15.301 21.346 L 15.660 21.456 17.618 21.471 C 19.724 21.487,20.041 21.468,20.560 21.295 C 21.545 20.968,22.354 20.098,22.652 19.047 C 22.736 18.749,22.739 18.677,22.739 16.540 C 22.739 14.403,22.736 14.331,22.652 14.033 C 22.365 13.021,21.604 12.174,20.664 11.820 C 20.108 11.611,19.930 11.600,17.049 11.600 L 14.387 11.600 14.412 10.850 C 14.455 9.541,14.623 8.377,14.883 7.595 C 15.341 6.214,16.051 5.455,18.024 4.237 C 18.386 4.013,18.715 3.783,18.757 3.725 C 18.948 3.456,18.944 3.083,18.746 2.825 C 18.576 2.601,18.231 2.486,17.967 2.564 M8.100 13.122 C 8.857 13.231,9.457 13.804,9.599 14.556 C 9.653 14.841,9.653 18.239,9.599 18.524 C 9.496 19.068,9.110 19.576,8.630 19.801 C 8.235 19.986,7.933 20.008,5.977 19.992 C 4.240 19.978,4.217 19.976,3.980 19.883 C 3.505 19.696,3.121 19.340,2.907 18.889 L 2.780 18.620 2.769 15.850 L 2.758 13.080 5.289 13.081 C 6.772 13.081,7.936 13.098,8.100 13.122 M19.739 13.122 C 20.415 13.220,20.967 13.687,21.170 14.334 C 21.258 14.614,21.260 14.661,21.260 16.540 C 21.260 18.419,21.258 18.466,21.170 18.746 C 20.966 19.394,20.412 19.861,19.728 19.960 C 19.375 20.011,16.298 20.010,15.944 19.959 C 15.172 19.847,14.528 19.213,14.403 18.439 C 14.356 18.154,14.341 13.152,14.387 13.107 C 14.430 13.063,19.430 13.077,19.739 13.122 " stroke="none" fill-rule="evenodd" fill="black"></path></svg>