<svg width="24" height="24" viewBox="0 0 24 24" fill="none" xmlns="http://www.w3.org/2000/svg"><path d="M11.400 1.281 C 9.377 1.394,7.502 2.046,5.816 3.222 C 5.382 3.525,5.270 3.677,5.266 3.975 C 5.262 4.241,5.375 4.463,5.592 4.617 C 5.731 4.715,5.796 4.733,6.000 4.733 C 6.236 4.733,6.255 4.725,6.691 4.431 C 7.469 3.908,7.936 3.659,8.659 3.380 C 9.769 2.953,10.809 2.760,12.005 2.760 C 13.464 2.760,14.754 3.058,16.060 3.698 C 17.024 4.170,17.648 4.611,18.434 5.378 C 19.273 6.195,19.814 6.937,20.303 7.940 C 20.944 9.253,21.240 10.537,21.240 12.000 C 21.240 14.056,20.595 15.970,19.347 17.619 C 19.038 18.028,18.235 18.852,17.820 19.187 C 16.741 20.059,15.302 20.755,13.998 21.035 C 12.714 21.310,11.286 21.310,10.002 21.035 C 8.698 20.755,7.259 20.059,6.180 19.187 C 5.765 18.852,4.962 18.028,4.653 17.619 C 3.817 16.514,3.202 15.168,2.944 13.876 C 2.783 13.072,2.747 12.621,2.772 11.720 C 2.795 10.883,2.861 10.377,3.036 9.693 C 3.182 9.123,3.575 8.080,3.644 8.080 C 3.662 8.080,5.476 9.114,7.676 10.378 C 9.877 11.642,11.748 12.695,11.836 12.719 C 12.192 12.815,12.603 12.574,12.714 12.205 C 12.785 11.968,12.716 11.683,12.546 11.506 C 12.472 11.430,10.578 10.319,8.003 8.841 C 4.007 6.547,3.566 6.304,3.380 6.288 C 3.131 6.268,2.896 6.372,2.746 6.570 C 2.601 6.760,2.183 7.598,2.001 8.063 C 1.569 9.165,1.352 10.172,1.283 11.388 C 1.138 13.961,1.871 16.385,3.424 18.470 C 3.880 19.083,4.909 20.111,5.530 20.575 C 7.606 22.126,10.070 22.870,12.627 22.717 C 14.790 22.588,16.724 21.879,18.470 20.575 C 19.087 20.115,20.115 19.087,20.575 18.470 C 22.127 16.391,22.870 13.930,22.717 11.373 C 22.588 9.210,21.879 7.276,20.575 5.530 C 20.115 4.913,19.087 3.885,18.470 3.425 C 16.718 2.117,14.780 1.408,12.600 1.280 C 12.237 1.259,11.931 1.244,11.920 1.247 C 11.909 1.250,11.675 1.265,11.400 1.281 " stroke="none" fill-rule="evenodd" fill="black"></path></svg>