<svg width="24" height="24" viewBox="0 0 24 24" fill="none" xmlns="http://www.w3.org/2000/svg"><path d="M11.400 1.281 C 9.377 1.394,7.502 2.046,5.816 3.222 C 5.382 3.525,5.270 3.677,5.266 3.975 C 5.262 4.241,5.375 4.463,5.592 4.617 C 5.731 4.715,5.796 4.733,6.000 4.733 C 6.236 4.733,6.255 4.725,6.691 4.431 C 7.469 3.908,7.936 3.659,8.659 3.380 C 9.769 2.953,10.809 2.760,12.005 2.760 C 13.464 2.760,14.754 3.058,16.060 3.698 C 17.024 4.170,17.648 4.611,18.434 5.378 C 19.273 6.195,19.814 6.937,20.303 7.940 C 20.944 9.253,21.240 10.537,21.240 12.000 C 21.240 14.056,20.595 15.970,19.347 17.619 C 19.038 18.028,18.235 18.852,17.820 19.187 C 16.741 20.059,15.302 20.755,13.998 21.035 C 12.714 21.310,11.286 21.310,10.002 21.035 C 8.698 20.755,7.259 20.059,6.180 19.187 C 5.765 18.852,4.962 18.028,4.653 17.619 C 3.817 16.514,3.202 15.168,2.944 13.876 C 2.783 13.072,2.747 12.621,2.772 11.720 C 2.795 10.883,2.861 10.377,3.036 9.693 C 3.182 9.124,3.575 8.080,3.644 8.080 C 3.669 8.080,5.754 9.262,5.790 9.297 C 5.795 9.302,5.730 9.503,5.644 9.743 C 5.155 11.116,5.141 12.766,5.607 14.140 C 6.486 16.731,8.811 18.529,11.527 18.717 C 15.619 19.002,19.002 15.619,18.717 11.527 C 18.458 7.799,15.212 4.998,11.479 5.282 C 10.676 5.343,9.934 5.529,9.260 5.839 C 8.865 6.021,8.720 6.220,8.720 6.580 C 8.720 6.950,8.990 7.253,9.365 7.304 C 9.518 7.325,9.608 7.305,9.924 7.178 C 10.393 6.990,10.839 6.866,11.282 6.800 C 11.712 6.736,12.664 6.768,13.080 6.860 C 14.079 7.081,14.975 7.572,15.701 8.299 C 16.439 9.036,16.925 9.932,17.147 10.961 C 17.250 11.438,17.250 12.562,17.147 13.039 C 16.925 14.068,16.439 14.964,15.701 15.701 C 14.964 16.439,14.068 16.925,13.039 17.147 C 12.563 17.250,11.438 17.250,10.960 17.147 C 9.357 16.804,8.018 15.765,7.290 14.300 C 6.943 13.603,6.801 13.021,6.772 12.172 C 6.755 11.704,6.766 11.470,6.819 11.152 C 6.891 10.719,7.057 10.139,7.119 10.101 C 7.139 10.088,8.172 10.663,9.415 11.377 C 10.658 12.091,11.748 12.695,11.836 12.719 C 12.192 12.815,12.603 12.574,12.714 12.205 C 12.780 11.983,12.720 11.703,12.567 11.525 C 12.499 11.446,11.560 10.883,10.000 9.988 C 8.647 9.211,7.455 8.511,7.352 8.432 C 7.248 8.352,7.096 8.265,7.013 8.238 C 6.930 8.210,6.125 7.764,5.224 7.247 C 3.777 6.415,3.563 6.304,3.380 6.288 C 3.131 6.268,2.896 6.372,2.746 6.570 C 2.601 6.760,2.183 7.598,2.001 8.063 C 1.569 9.165,1.352 10.172,1.283 11.388 C 1.138 13.961,1.871 16.385,3.424 18.470 C 3.880 19.083,4.909 20.111,5.530 20.575 C 7.606 22.126,10.070 22.870,12.627 22.717 C 14.790 22.588,16.724 21.879,18.470 20.575 C 19.087 20.115,20.115 19.087,20.575 18.470 C 22.127 16.391,22.870 13.930,22.717 11.373 C 22.588 9.210,21.879 7.276,20.575 5.530 C 20.115 4.913,19.087 3.885,18.470 3.425 C 16.718 2.117,14.780 1.408,12.600 1.280 C 12.237 1.259,11.931 1.244,11.920 1.247 C 11.909 1.250,11.675 1.265,11.400 1.281 " stroke="none" fill-rule="evenodd" fill="black"></path></svg>