<svg width="24" height="24" viewBox="0 0 24 24" fill="none" xmlns="http://www.w3.org/2000/svg"><path d="M3.819 5.276 C 3.608 5.328,3.486 5.440,3.208 5.835 C 2.189 7.280,1.562 8.914,1.340 10.700 C 1.254 11.385,1.254 12.615,1.340 13.300 C 1.562 15.087,2.189 16.720,3.209 18.167 C 3.538 18.634,3.677 18.733,4.000 18.733 C 4.372 18.733,4.656 18.503,4.724 18.145 C 4.772 17.890,4.703 17.715,4.339 17.175 C 2.725 14.781,2.324 11.816,3.238 9.039 C 3.453 8.385,3.920 7.447,4.339 6.825 C 4.703 6.285,4.772 6.110,4.724 5.855 C 4.646 5.447,4.224 5.176,3.819 5.276 M19.815 5.277 C 19.431 5.371,19.180 5.790,19.282 6.169 C 19.306 6.255,19.472 6.545,19.652 6.813 C 20.713 8.390,21.240 10.112,21.240 12.000 C 21.240 13.888,20.713 15.610,19.652 17.187 C 19.472 17.455,19.305 17.746,19.282 17.834 C 19.200 18.137,19.340 18.467,19.626 18.644 C 19.827 18.768,20.173 18.768,20.373 18.644 C 20.628 18.487,21.329 17.415,21.704 16.610 C 22.408 15.102,22.725 13.669,22.725 12.000 C 22.725 10.331,22.408 8.898,21.704 7.390 C 21.340 6.608,20.627 5.511,20.389 5.367 C 20.235 5.273,19.988 5.235,19.815 5.277 M7.019 7.676 C 6.953 7.693,6.849 7.739,6.788 7.778 C 6.515 7.957,5.877 9.060,5.626 9.786 C 5.143 11.182,5.144 12.819,5.627 14.216 C 5.894 14.991,6.526 16.058,6.826 16.244 C 7.027 16.368,7.373 16.368,7.574 16.244 C 7.857 16.069,7.996 15.736,7.916 15.428 C 7.894 15.345,7.760 15.099,7.617 14.882 C 7.027 13.981,6.760 13.083,6.760 12.000 C 6.760 10.917,7.027 10.019,7.617 9.118 C 7.906 8.677,7.970 8.498,7.924 8.255 C 7.846 7.847,7.424 7.576,7.019 7.676 M16.615 7.677 C 16.231 7.771,15.980 8.190,16.082 8.567 C 16.105 8.653,16.240 8.901,16.383 9.118 C 16.973 10.020,17.240 10.917,17.240 12.002 C 17.240 13.071,16.968 13.988,16.389 14.872 C 16.243 15.094,16.105 15.348,16.081 15.436 C 16.000 15.737,16.141 16.068,16.426 16.244 C 16.627 16.368,16.973 16.368,17.174 16.244 C 17.475 16.058,18.106 14.991,18.374 14.214 C 18.855 12.822,18.855 11.178,18.374 9.786 C 18.112 9.027,17.474 7.940,17.189 7.767 C 17.035 7.673,16.788 7.635,16.615 7.677 M11.660 9.278 C 10.776 9.385,10.027 9.901,9.568 10.720 C 9.168 11.434,9.168 12.566,9.568 13.280 C 10.094 14.219,10.953 14.731,12.000 14.731 C 13.047 14.731,13.906 14.219,14.432 13.280 C 14.832 12.566,14.832 11.434,14.432 10.720 C 13.857 9.694,12.796 9.142,11.660 9.278 M12.454 10.841 C 12.744 10.950,13.050 11.256,13.159 11.546 C 13.335 12.017,13.227 12.521,12.874 12.874 C 12.381 13.368,11.619 13.368,11.126 12.874 C 10.847 12.596,10.746 12.325,10.769 11.920 C 10.790 11.567,10.876 11.373,11.124 11.125 C 11.397 10.853,11.597 10.769,11.988 10.763 C 12.148 10.761,12.315 10.789,12.454 10.841 " stroke="none" fill-rule="evenodd" fill="black"></path></svg>