<svg width="24" height="24" viewBox="0 0 24 24" fill="none" xmlns="http://www.w3.org/2000/svg"><path d="M6.815 1.277 C 6.638 1.321,6.461 1.456,6.353 1.631 C 6.262 1.777,6.260 1.802,6.247 3.050 L 6.235 4.320 6.107 4.321 C 5.921 4.322,5.267 4.465,4.907 4.585 C 4.507 4.718,3.855 5.049,3.498 5.301 C 3.345 5.409,3.057 5.660,2.859 5.859 C 1.893 6.825,1.393 7.993,1.281 9.545 C 1.229 10.267,1.229 16.733,1.281 17.455 C 1.349 18.406,1.527 19.088,1.896 19.814 C 2.174 20.361,2.425 20.708,2.859 21.141 C 3.825 22.107,4.993 22.607,6.545 22.719 C 7.282 22.772,16.718 22.772,17.455 22.719 C 18.406 22.651,19.088 22.473,19.814 22.104 C 20.361 21.826,20.708 21.575,21.141 21.141 C 22.107 20.175,22.607 19.007,22.719 17.455 C 22.771 16.733,22.771 10.267,22.719 9.545 C 22.651 8.594,22.473 7.912,22.104 7.186 C 21.826 6.639,21.575 6.292,21.141 5.859 C 20.175 4.893,19.007 4.393,17.455 4.281 C 17.133 4.258,14.978 4.241,12.330 4.240 L 7.760 4.240 7.759 3.130 C 7.758 1.954,7.734 1.738,7.580 1.536 C 7.421 1.327,7.078 1.211,6.815 1.277 M18.120 5.850 C 19.566 6.211,20.541 7.064,20.991 8.360 C 21.227 9.040,21.220 8.889,21.220 13.500 C 21.220 18.111,21.227 17.960,20.991 18.640 C 20.531 19.965,19.455 20.880,18.020 21.164 C 17.605 21.247,6.395 21.247,5.980 21.164 C 4.326 20.836,3.164 19.674,2.836 18.020 C 2.754 17.607,2.754 9.393,2.836 8.980 C 3.165 7.319,4.392 6.102,6.000 5.841 C 6.165 5.815,6.327 5.787,6.360 5.781 C 6.393 5.774,8.994 5.772,12.140 5.776 C 17.273 5.784,17.887 5.791,18.120 5.850 M8.140 10.280 C 7.405 10.358,6.822 10.631,6.265 11.158 C 5.811 11.588,5.458 12.197,5.338 12.760 C 5.255 13.147,5.255 13.852,5.337 14.233 C 5.586 15.387,6.613 16.414,7.767 16.663 C 8.146 16.745,8.854 16.745,9.233 16.663 C 10.387 16.414,11.414 15.387,11.663 14.233 C 11.745 13.854,11.745 13.146,11.663 12.767 C 11.503 12.026,10.974 11.259,10.307 10.804 C 9.708 10.395,8.902 10.200,8.140 10.280 M14.420 10.259 C 14.398 10.267,14.331 10.284,14.271 10.297 C 14.124 10.329,13.881 10.548,13.814 10.708 C 13.691 11.002,13.771 11.336,14.015 11.550 C 14.095 11.621,14.211 11.693,14.271 11.709 C 14.413 11.749,18.587 11.749,18.729 11.709 C 18.881 11.667,19.121 11.447,19.186 11.292 C 19.297 11.027,19.241 10.711,19.047 10.506 C 18.805 10.250,18.907 10.261,16.580 10.252 C 15.414 10.248,14.442 10.251,14.420 10.259 M9.247 11.930 C 9.618 12.113,9.915 12.415,10.092 12.790 C 10.212 13.043,10.220 13.088,10.220 13.500 C 10.220 13.912,10.212 13.957,10.092 14.210 C 9.914 14.586,9.618 14.887,9.245 15.071 C 8.952 15.216,8.932 15.220,8.500 15.220 C 8.068 15.220,8.048 15.216,7.755 15.071 C 7.382 14.887,7.086 14.586,6.908 14.210 C 6.788 13.957,6.780 13.912,6.780 13.500 C 6.780 13.088,6.788 13.043,6.907 12.791 C 7.123 12.335,7.494 12.003,7.979 11.830 C 8.132 11.775,8.272 11.761,8.564 11.770 C 8.914 11.781,8.976 11.796,9.247 11.930 M14.420 14.260 C 14.398 14.267,14.331 14.284,14.271 14.297 C 14.124 14.329,13.881 14.548,13.814 14.708 C 13.703 14.973,13.759 15.289,13.953 15.494 C 14.118 15.668,14.265 15.727,14.596 15.749 C 15.044 15.780,15.331 15.709,15.519 15.521 C 15.918 15.122,15.731 14.423,15.189 14.286 C 15.022 14.244,14.518 14.227,14.420 14.260 M17.815 14.276 C 17.481 14.362,17.267 14.648,17.267 15.007 C 17.267 15.203,17.286 15.270,17.383 15.408 C 17.573 15.676,17.742 15.740,18.260 15.740 C 18.739 15.739,18.847 15.705,19.047 15.494 C 19.181 15.353,19.240 15.201,19.240 15.000 C 19.240 14.716,19.085 14.469,18.820 14.330 C 18.684 14.259,18.019 14.223,17.815 14.276 " stroke="none" fill-rule="evenodd" fill="black"></path></svg>