<svg width="24" height="24" viewBox="0 0 24 24" fill="none" xmlns="http://www.w3.org/2000/svg"><path d="M8.100 1.267 C 5.738 1.363,4.058 2.385,3.275 4.202 C 3.033 4.763,2.893 5.327,2.800 6.119 C 2.746 6.578,2.746 17.422,2.800 17.881 C 2.989 19.484,3.497 20.585,4.429 21.411 C 5.351 22.228,6.414 22.619,7.990 22.720 C 8.809 22.772,15.192 22.772,16.010 22.719 C 17.054 22.653,17.826 22.463,18.543 22.097 C 20.048 21.330,20.942 19.949,21.180 18.027 C 21.261 17.369,21.262 15.611,21.180 15.220 C 21.148 15.066,21.045 14.787,20.951 14.600 C 20.801 14.301,20.700 14.177,20.118 13.578 C 19.681 13.129,19.422 12.829,19.358 12.698 C 19.261 12.502,19.260 12.485,19.248 11.216 C 19.235 9.690,19.206 9.787,19.700 9.722 C 20.468 9.621,21.079 9.039,21.201 8.293 C 21.222 8.165,21.239 7.763,21.239 7.400 C 21.239 5.632,20.980 4.518,20.338 3.530 C 20.029 3.055,19.733 2.726,19.345 2.425 C 18.412 1.701,17.460 1.375,16.000 1.280 C 15.496 1.247,8.863 1.236,8.100 1.267 M8.213 3.930 C 8.189 5.067,8.190 5.105,8.272 5.265 C 8.319 5.356,8.412 5.476,8.479 5.533 C 8.714 5.731,9.146 5.730,9.390 5.532 C 9.664 5.310,9.672 5.274,9.703 3.950 L 9.731 2.760 10.484 2.760 L 11.237 2.760 11.213 3.930 C 11.189 5.067,11.190 5.105,11.272 5.265 C 11.319 5.356,11.412 5.476,11.479 5.533 C 11.714 5.731,12.146 5.730,12.390 5.532 C 12.664 5.310,12.672 5.274,12.703 3.950 L 12.731 2.760 13.485 2.760 L 14.239 2.760 14.213 3.851 C 14.199 4.450,14.200 5.009,14.216 5.091 C 14.248 5.263,14.434 5.494,14.615 5.588 C 14.772 5.669,15.107 5.670,15.261 5.589 C 15.412 5.510,15.584 5.330,15.634 5.197 C 15.655 5.141,15.686 4.569,15.702 3.927 L 15.731 2.760 15.877 2.760 C 16.133 2.760,16.690 2.840,17.019 2.924 C 18.529 3.309,19.390 4.292,19.661 5.940 C 19.744 6.446,19.786 7.859,19.724 8.048 C 19.669 8.216,19.636 8.233,19.271 8.279 C 18.594 8.364,18.018 8.853,17.817 9.515 C 17.736 9.783,17.736 12.475,17.818 12.820 C 17.957 13.411,18.164 13.722,18.948 14.522 C 19.753 15.344,19.734 15.302,19.753 16.340 C 19.776 17.600,19.679 18.350,19.399 19.078 C 19.039 20.009,18.282 20.692,17.248 21.016 C 16.720 21.181,16.777 21.311,16.746 19.865 C 16.716 18.451,16.681 18.221,16.416 17.717 C 16.123 17.161,15.495 16.614,14.914 16.413 C 14.454 16.253,14.064 16.233,11.723 16.251 C 9.853 16.265,9.504 16.277,9.288 16.334 C 8.544 16.530,7.865 17.084,7.522 17.775 C 7.272 18.280,7.240 18.526,7.240 19.924 C 7.240 21.295,7.289 21.171,6.803 21.036 C 5.658 20.717,4.874 19.961,4.501 18.818 C 4.249 18.048,4.260 18.350,4.260 12.000 C 4.260 6.637,4.265 6.193,4.331 5.853 C 4.623 4.336,5.370 3.424,6.660 3.008 C 6.970 2.908,7.170 2.866,7.720 2.786 C 7.775 2.777,7.914 2.768,8.029 2.765 L 8.237 2.760 8.213 3.930 M14.421 17.827 C 14.698 17.921,15.045 18.270,15.150 18.560 C 15.220 18.755,15.232 18.921,15.253 20.010 L 15.277 21.240 11.996 21.240 L 8.715 21.240 8.727 19.970 C 8.740 18.743,8.743 18.693,8.832 18.500 C 8.977 18.184,9.233 17.949,9.580 17.813 C 9.667 17.779,10.329 17.765,11.963 17.763 C 13.974 17.760,14.248 17.767,14.421 17.827 " stroke="none" fill-rule="evenodd" fill="black"></path></svg>