<svg width="24" height="24" viewBox="0 0 24 24" fill="none" xmlns="http://www.w3.org/2000/svg"><path d="M8.100 1.267 C 5.738 1.363,4.058 2.385,3.275 4.202 C 3.033 4.763,2.893 5.327,2.800 6.119 C 2.746 6.578,2.746 17.422,2.800 17.881 C 2.989 19.484,3.497 20.585,4.429 21.411 C 5.351 22.228,6.414 22.619,7.990 22.720 C 8.809 22.772,15.192 22.772,16.010 22.719 C 17.054 22.653,17.826 22.463,18.543 22.097 C 20.048 21.330,20.942 19.949,21.180 18.027 C 21.261 17.369,21.262 15.611,21.180 15.220 C 21.148 15.066,21.045 14.787,20.951 14.600 C 20.801 14.301,20.700 14.177,20.118 13.578 C 19.681 13.129,19.422 12.829,19.358 12.698 C 19.261 12.502,19.260 12.485,19.248 11.216 C 19.235 9.690,19.206 9.787,19.700 9.722 C 20.468 9.621,21.079 9.039,21.201 8.293 C 21.222 8.165,21.239 7.763,21.239 7.400 C 21.239 5.632,20.980 4.518,20.338 3.530 C 20.029 3.055,19.733 2.726,19.345 2.425 C 18.412 1.701,17.460 1.375,16.000 1.280 C 15.496 1.247,8.863 1.236,8.100 1.267 M16.361 2.801 C 18.261 3.032,19.354 4.072,19.661 5.940 C 19.744 6.446,19.786 7.859,19.724 8.048 C 19.669 8.216,19.636 8.233,19.271 8.279 C 18.594 8.364,18.018 8.853,17.817 9.515 C 17.736 9.783,17.736 12.475,17.818 12.820 C 17.957 13.411,18.164 13.722,18.948 14.522 C 19.753 15.344,19.734 15.302,19.753 16.340 C 19.776 17.600,19.679 18.350,19.399 19.078 C 19.039 20.009,18.282 20.692,17.248 21.016 C 16.720 21.181,16.777 21.311,16.746 19.865 C 16.716 18.451,16.681 18.221,16.416 17.717 C 16.123 17.161,15.495 16.614,14.914 16.413 C 14.454 16.253,14.064 16.233,11.723 16.251 C 9.853 16.265,9.504 16.277,9.288 16.334 C 8.544 16.530,7.865 17.084,7.522 17.775 C 7.272 18.280,7.240 18.526,7.240 19.924 C 7.240 21.295,7.289 21.171,6.803 21.036 C 5.658 20.717,4.874 19.961,4.501 18.818 C 4.249 18.048,4.260 18.350,4.260 12.000 C 4.260 6.637,4.265 6.193,4.331 5.853 C 4.623 4.336,5.370 3.424,6.660 3.008 C 6.970 2.908,7.170 2.866,7.720 2.786 C 7.973 2.748,16.048 2.763,16.361 2.801 M7.660 7.103 C 7.373 7.252,7.240 7.469,7.240 7.789 C 7.240 8.028,7.335 8.219,7.534 8.377 L 7.687 8.500 10.910 8.511 C 14.089 8.521,14.134 8.520,14.301 8.439 C 14.399 8.392,14.520 8.287,14.586 8.192 C 14.681 8.054,14.700 7.986,14.700 7.780 C 14.700 7.574,14.681 7.506,14.586 7.368 C 14.520 7.274,14.399 7.168,14.303 7.121 C 14.138 7.042,14.072 7.040,10.957 7.040 C 8.157 7.040,7.766 7.048,7.660 7.103 M14.421 17.827 C 14.698 17.921,15.045 18.270,15.150 18.560 C 15.220 18.755,15.232 18.921,15.253 20.010 L 15.277 21.240 11.996 21.240 L 8.715 21.240 8.727 19.970 C 8.740 18.743,8.743 18.693,8.832 18.500 C 8.977 18.184,9.233 17.949,9.580 17.813 C 9.667 17.779,10.329 17.765,11.963 17.763 C 13.974 17.760,14.248 17.767,14.421 17.827 " stroke="none" fill-rule="evenodd" fill="black"></path></svg>