<svg width="24" height="24" viewBox="0 0 24 24" fill="none" xmlns="http://www.w3.org/2000/svg"><path d="M5.815 1.277 C 5.638 1.321,5.461 1.456,5.353 1.631 L 5.260 1.780 5.260 5.500 L 5.260 9.220 5.353 9.369 C 5.710 9.943,6.576 9.812,6.716 9.162 C 6.775 8.886,6.776 2.098,6.717 1.841 C 6.623 1.432,6.215 1.177,5.815 1.277 M11.815 1.277 C 11.638 1.321,11.461 1.456,11.353 1.631 C 11.261 1.778,11.260 1.793,11.260 3.000 C 11.260 4.207,11.261 4.222,11.353 4.369 C 11.710 4.943,12.576 4.812,12.716 4.162 C 12.772 3.901,12.773 2.083,12.717 1.841 C 12.623 1.432,12.215 1.177,11.815 1.277 M17.815 1.277 C 17.638 1.321,17.461 1.456,17.353 1.631 L 17.260 1.780 17.260 5.500 L 17.260 9.220 17.353 9.369 C 17.710 9.943,18.576 9.812,18.716 9.162 C 18.775 8.886,18.776 2.098,18.717 1.841 C 18.623 1.432,18.215 1.177,17.815 1.277 M11.725 6.322 C 11.445 6.362,10.980 6.594,10.731 6.818 C 10.403 7.112,10.164 7.512,9.408 9.023 C 8.665 10.509,8.583 10.637,8.298 10.751 C 8.233 10.777,7.584 10.898,6.855 11.020 C 5.124 11.309,4.761 11.436,4.277 11.918 C 3.618 12.576,3.593 13.519,4.212 14.440 C 4.278 14.539,4.832 15.124,5.442 15.740 C 6.513 16.820,6.555 16.868,6.620 17.093 L 6.687 17.326 6.374 18.673 L 6.062 20.020 6.061 20.640 C 6.060 21.345,6.114 21.586,6.350 21.929 C 6.534 22.197,6.696 22.338,6.980 22.479 C 7.643 22.809,8.449 22.687,9.450 22.108 C 9.654 21.991,10.239 21.646,10.751 21.342 C 11.310 21.010,11.745 20.777,11.841 20.760 C 12.131 20.707,12.290 20.772,13.249 21.342 C 15.092 22.436,15.272 22.524,15.872 22.628 C 16.721 22.774,17.469 22.402,17.791 21.673 C 17.933 21.350,17.970 21.091,17.951 20.539 C 17.936 20.066,17.907 19.901,17.626 18.687 C 17.305 17.297,17.295 17.214,17.429 16.940 C 17.462 16.874,17.979 16.325,18.578 15.720 C 19.178 15.115,19.723 14.539,19.789 14.440 C 20.409 13.513,20.383 12.569,19.718 11.916 C 19.234 11.440,18.863 11.307,17.274 11.041 C 15.607 10.762,15.677 10.779,15.483 10.613 C 15.339 10.490,15.213 10.265,14.613 9.065 C 13.694 7.226,13.514 6.951,13.026 6.635 C 12.599 6.358,12.179 6.257,11.725 6.322 M12.281 7.945 C 12.412 8.064,12.586 8.379,13.239 9.676 C 13.916 11.023,14.069 11.298,14.259 11.508 C 14.516 11.793,14.867 12.039,15.180 12.156 C 15.300 12.201,16.028 12.344,16.798 12.473 C 17.975 12.671,18.234 12.727,18.429 12.824 C 18.559 12.890,18.685 12.986,18.717 13.045 C 18.768 13.138,18.766 13.172,18.702 13.345 C 18.640 13.508,18.446 13.724,17.500 14.680 C 16.880 15.307,16.314 15.907,16.242 16.014 C 15.972 16.413,15.814 17.005,15.851 17.473 C 15.862 17.620,16.008 18.336,16.176 19.065 C 16.491 20.438,16.540 20.821,16.428 21.040 C 16.382 21.128,16.351 21.140,16.158 21.139 C 15.862 21.138,15.663 21.039,14.188 20.161 C 13.472 19.736,12.858 19.398,12.711 19.349 C 12.356 19.232,11.644 19.232,11.289 19.349 C 11.142 19.398,10.528 19.736,9.812 20.161 C 8.337 21.039,8.138 21.138,7.842 21.139 C 7.649 21.140,7.618 21.128,7.572 21.040 C 7.459 20.819,7.508 20.440,7.828 19.065 C 8.110 17.857,8.137 17.703,8.136 17.320 C 8.136 16.965,8.119 16.850,8.025 16.580 C 7.964 16.404,7.858 16.170,7.790 16.060 C 7.721 15.950,7.156 15.346,6.534 14.719 C 5.362 13.536,5.199 13.329,5.257 13.098 C 5.288 12.974,5.491 12.826,5.740 12.746 C 5.850 12.711,6.539 12.582,7.271 12.461 C 8.003 12.339,8.693 12.204,8.804 12.162 C 9.114 12.044,9.501 11.774,9.744 11.505 C 9.930 11.299,10.089 11.014,10.761 9.676 C 11.414 8.379,11.588 8.064,11.719 7.945 C 11.829 7.846,11.918 7.800,12.000 7.800 C 12.082 7.800,12.171 7.846,12.281 7.945 " stroke="none" fill-rule="evenodd" fill="black"></path></svg>