<svg width="24" height="24" viewBox="0 0 24 24" fill="none" xmlns="http://www.w3.org/2000/svg"><path d="M11.754 0.936 C 11.289 1.035,11.037 1.299,10.617 2.130 C 10.389 2.580,10.297 2.724,10.229 2.738 C 10.180 2.749,9.925 2.795,9.662 2.841 C 9.399 2.886,9.103 2.959,9.005 3.003 C 8.333 3.300,8.072 4.000,8.392 4.649 C 8.484 4.836,8.645 5.042,8.957 5.368 L 9.394 5.825 9.277 6.343 C 9.137 6.967,9.129 7.274,9.245 7.584 C 9.418 8.048,9.801 8.319,10.283 8.320 C 10.656 8.320,10.870 8.243,11.459 7.897 L 11.977 7.592 12.139 7.675 C 12.227 7.720,12.471 7.858,12.680 7.980 C 13.132 8.244,13.363 8.320,13.719 8.320 C 14.171 8.320,14.538 8.074,14.734 7.642 C 14.857 7.370,14.847 6.906,14.704 6.288 L 14.591 5.796 15.050 5.327 C 15.543 4.823,15.644 4.669,15.718 4.309 C 15.832 3.758,15.543 3.245,14.979 2.995 C 14.876 2.950,14.600 2.878,14.366 2.837 C 14.131 2.796,13.882 2.752,13.810 2.739 C 13.689 2.718,13.661 2.678,13.381 2.125 C 12.970 1.312,12.683 1.009,12.260 0.939 C 12.172 0.925,12.073 0.907,12.040 0.900 C 12.007 0.893,11.878 0.909,11.754 0.936 M12.235 3.179 C 12.637 3.960,12.824 4.088,13.813 4.258 L 13.966 4.285 13.650 4.615 C 13.122 5.164,13.002 5.548,13.152 6.210 C 13.196 6.402,13.223 6.560,13.213 6.560 C 13.203 6.560,13.045 6.471,12.861 6.363 C 12.476 6.136,12.308 6.081,11.996 6.080 C 11.693 6.080,11.463 6.156,11.098 6.377 C 10.929 6.480,10.785 6.559,10.779 6.552 C 10.772 6.545,10.801 6.378,10.844 6.180 C 10.981 5.533,10.864 5.164,10.342 4.610 C 10.171 4.429,10.047 4.280,10.066 4.280 C 10.280 4.279,10.861 4.132,11.053 4.030 C 11.354 3.870,11.515 3.677,11.772 3.171 C 11.886 2.945,11.989 2.761,12.000 2.761 C 12.011 2.761,12.117 2.949,12.235 3.179 M10.304 9.281 C 9.286 9.406,8.377 10.153,8.054 11.131 C 7.952 11.440,7.945 11.514,7.929 12.347 L 7.912 13.234 5.726 13.250 C 3.601 13.265,3.532 13.268,3.240 13.355 C 2.337 13.625,1.614 14.356,1.352 15.260 L 1.260 15.580 1.260 18.907 L 1.260 22.233 1.380 22.403 C 1.446 22.496,1.572 22.610,1.660 22.656 L 1.820 22.740 11.880 22.751 C 19.099 22.758,22.000 22.749,22.154 22.717 C 22.314 22.684,22.405 22.635,22.520 22.520 C 22.759 22.281,22.770 22.171,22.750 20.226 C 22.733 18.629,22.728 18.524,22.644 18.240 C 22.380 17.350,21.653 16.622,20.760 16.355 C 20.468 16.268,20.399 16.265,18.270 16.250 L 16.080 16.234 16.080 13.995 C 16.080 11.471,16.071 11.372,15.800 10.820 C 15.511 10.230,15.104 9.817,14.540 9.539 C 14.004 9.275,13.951 9.269,12.180 9.257 C 11.300 9.251,10.456 9.262,10.304 9.281 M13.913 10.898 C 14.344 11.137,14.548 11.496,14.586 12.085 C 14.599 12.291,14.597 14.435,14.580 16.850 L 14.550 21.240 11.995 21.240 L 9.440 21.240 9.430 17.590 C 9.413 11.283,9.407 11.728,9.505 11.515 C 9.632 11.242,9.868 11.003,10.140 10.873 L 10.380 10.758 12.040 10.769 L 13.700 10.780 13.913 10.898 M7.920 18.000 L 7.920 21.240 5.340 21.240 L 2.760 21.240 2.760 18.502 C 2.760 15.351,2.743 15.508,3.126 15.126 C 3.497 14.755,3.424 14.764,5.830 14.762 L 7.920 14.760 7.920 18.000 M20.454 17.841 C 20.744 17.950,21.050 18.256,21.159 18.546 C 21.234 18.747,21.240 18.855,21.240 20.002 L 21.240 21.240 18.660 21.240 L 16.080 21.240 16.080 19.500 L 16.080 17.760 18.158 17.760 C 20.149 17.760,20.246 17.763,20.454 17.841 " stroke="none" fill-rule="evenodd" fill="black"></path></svg>