<svg width="24" height="24" viewBox="0 0 24 24" fill="none" xmlns="http://www.w3.org/2000/svg"><path d="M18.680 2.823 C 18.588 2.863,16.338 5.084,12.151 9.270 L 5.762 15.658 5.751 11.339 C 5.741 7.408,5.734 7.009,5.674 6.900 C 5.538 6.654,5.253 6.479,4.991 6.481 C 4.708 6.483,4.362 6.735,4.290 6.993 C 4.273 7.052,4.260 9.496,4.260 12.423 L 4.260 17.747 4.371 17.906 C 4.431 17.994,4.551 18.105,4.636 18.153 L 4.791 18.240 10.117 18.240 C 15.274 18.240,15.448 18.238,15.592 18.164 C 15.874 18.019,16.000 17.814,16.000 17.500 C 16.000 17.186,15.874 16.981,15.592 16.836 C 15.448 16.763,15.291 16.760,11.132 16.760 L 6.821 16.760 13.206 10.370 C 16.724 6.850,19.623 3.918,19.662 3.841 C 19.748 3.668,19.752 3.338,19.669 3.179 C 19.588 3.024,19.409 2.856,19.267 2.803 C 19.110 2.743,18.845 2.752,18.680 2.823 M3.420 21.259 C 3.398 21.267,3.331 21.284,3.271 21.297 C 3.211 21.310,3.095 21.379,3.015 21.450 C 2.669 21.753,2.669 22.247,3.015 22.550 C 3.095 22.621,3.211 22.693,3.271 22.709 C 3.414 22.749,20.586 22.749,20.729 22.709 C 20.881 22.667,21.121 22.447,21.186 22.292 C 21.251 22.137,21.256 21.887,21.197 21.733 C 21.145 21.593,20.979 21.414,20.820 21.326 C 20.709 21.265,20.030 21.259,12.080 21.253 C 7.339 21.249,3.442 21.252,3.420 21.259 " stroke="none" fill-rule="evenodd" fill="black"></path></svg>