<svg width="24" height="24" viewBox="0 0 24 24" fill="none" xmlns="http://www.w3.org/2000/svg"><path d="M7.540 1.266 C 6.316 1.322,5.484 1.496,4.805 1.838 C 3.558 2.465,2.960 3.618,2.803 5.700 C 2.745 6.467,2.744 18.614,2.802 19.081 C 2.898 19.856,3.145 20.509,3.488 20.899 C 3.697 21.137,4.064 21.380,4.337 21.462 C 4.597 21.540,5.114 21.540,5.410 21.462 C 5.919 21.327,6.530 20.937,7.133 20.361 C 7.340 20.163,7.588 19.965,7.685 19.921 C 8.025 19.767,8.473 19.848,8.741 20.112 C 8.823 20.194,9.155 20.611,9.479 21.040 C 9.803 21.469,10.183 21.928,10.325 22.060 C 10.797 22.501,11.373 22.732,12.000 22.732 C 12.629 22.732,13.190 22.506,13.668 22.060 C 13.809 21.928,14.217 21.434,14.573 20.961 C 15.310 19.983,15.431 19.877,15.844 19.847 C 16.212 19.821,16.378 19.905,16.873 20.370 C 17.664 21.114,18.176 21.411,18.858 21.520 C 19.200 21.574,19.582 21.516,19.904 21.360 C 20.645 21.000,21.070 20.213,21.198 18.963 C 21.254 18.416,21.254 6.653,21.198 5.820 C 21.093 4.258,20.799 3.332,20.167 2.571 C 19.755 2.076,18.940 1.635,18.106 1.456 C 17.253 1.273,17.141 1.269,12.360 1.261 C 9.863 1.256,7.694 1.259,7.540 1.266 M17.520 2.853 C 18.691 3.085,19.188 3.482,19.476 4.418 C 19.747 5.294,19.767 5.934,19.750 12.980 C 19.734 19.445,19.744 19.163,19.520 19.669 C 19.336 20.084,19.159 20.134,18.692 19.901 C 18.490 19.799,18.276 19.632,17.904 19.283 C 17.157 18.584,16.663 18.351,15.920 18.349 C 15.491 18.348,15.154 18.435,14.748 18.651 C 14.311 18.883,14.067 19.133,13.393 20.040 C 12.790 20.852,12.582 21.076,12.336 21.179 C 12.139 21.261,11.816 21.254,11.617 21.164 C 11.384 21.058,11.221 20.878,10.581 20.020 C 10.269 19.602,9.898 19.152,9.756 19.020 C 9.097 18.406,8.174 18.191,7.337 18.457 C 6.918 18.589,6.611 18.792,6.116 19.260 C 5.536 19.808,5.175 20.037,4.885 20.039 C 4.591 20.041,4.362 19.600,4.278 18.870 C 4.248 18.616,4.240 16.499,4.250 12.120 C 4.266 5.300,4.262 5.437,4.462 4.620 C 4.545 4.282,4.758 3.802,4.903 3.627 C 5.275 3.177,5.927 2.908,6.901 2.803 C 7.077 2.785,9.461 2.773,12.200 2.777 C 16.682 2.785,17.214 2.793,17.520 2.853 M7.815 6.278 C 7.331 6.393,7.098 7.004,7.383 7.408 C 7.447 7.499,7.572 7.610,7.660 7.656 C 7.819 7.739,7.851 7.740,11.879 7.751 C 14.744 7.759,16.001 7.749,16.153 7.717 C 16.902 7.562,16.930 6.473,16.189 6.286 C 15.979 6.234,8.034 6.226,7.815 6.278 M8.815 10.278 C 8.331 10.393,8.098 11.004,8.383 11.408 C 8.447 11.499,8.572 11.610,8.660 11.656 C 8.818 11.739,8.865 11.740,11.878 11.751 C 14.020 11.759,15.000 11.749,15.151 11.718 C 15.902 11.562,15.931 10.473,15.189 10.286 C 14.979 10.234,9.033 10.226,8.815 10.278 " stroke="none" fill-rule="evenodd" fill="black"></path></svg>