<svg width="24" height="24" viewBox="0 0 24 24" fill="none" xmlns="http://www.w3.org/2000/svg"><path d="M8.080 1.282 C 4.008 1.495,1.895 3.296,1.383 6.991 C 1.270 7.803,1.242 8.816,1.242 12.000 C 1.242 16.504,1.302 17.273,1.760 18.650 C 2.532 20.963,4.206 22.226,7.027 22.622 C 7.786 22.728,8.902 22.759,12.000 22.759 C 15.098 22.759,16.214 22.728,16.973 22.622 C 19.443 22.275,20.996 21.288,21.897 19.490 C 22.379 18.530,22.638 17.369,22.720 15.807 C 22.771 14.838,22.771 9.162,22.720 8.193 C 22.657 6.998,22.521 6.191,22.242 5.356 C 21.632 3.531,20.469 2.367,18.650 1.760 C 17.788 1.473,17.023 1.344,15.806 1.280 C 14.952 1.235,8.952 1.237,8.080 1.282 M16.800 2.854 C 19.586 3.316,20.714 4.454,21.148 7.240 C 21.214 7.661,21.220 8.064,21.220 12.000 C 21.220 15.936,21.214 16.339,21.148 16.760 C 20.712 19.558,19.558 20.712,16.760 21.148 C 16.339 21.214,15.936 21.220,12.000 21.220 C 8.064 21.220,7.661 21.214,7.240 21.148 C 4.450 20.713,3.283 19.551,2.854 16.780 C 2.785 16.335,2.780 15.989,2.780 12.000 C 2.780 7.247,2.776 7.337,3.044 6.288 C 3.557 4.282,4.722 3.274,6.960 2.900 C 7.690 2.777,8.048 2.769,12.200 2.777 C 15.963 2.784,16.422 2.791,16.800 2.854 M8.880 5.421 C 8.847 5.428,8.685 5.455,8.520 5.481 C 7.699 5.614,7.034 6.033,6.701 6.630 C 6.548 6.903,6.407 7.326,6.332 7.733 C 6.273 8.057,6.263 8.560,6.250 12.000 C 6.235 16.029,6.242 16.261,6.399 16.767 C 6.651 17.582,7.384 18.054,8.125 17.880 C 8.524 17.785,8.898 17.561,9.346 17.146 C 9.728 16.793,9.740 16.799,10.391 17.661 C 10.871 18.297,11.176 18.515,11.718 18.608 C 11.939 18.646,12.061 18.646,12.282 18.608 C 12.839 18.512,13.127 18.301,13.666 17.590 C 13.897 17.287,14.128 17.011,14.180 16.976 C 14.316 16.887,14.403 16.928,14.739 17.234 C 15.289 17.735,15.746 17.940,16.254 17.913 C 16.917 17.877,17.355 17.483,17.625 16.680 C 17.695 16.473,17.700 16.225,17.712 12.440 C 17.725 8.252,17.715 7.943,17.555 7.331 C 17.321 6.438,16.757 5.834,15.920 5.583 C 15.353 5.412,15.082 5.400,11.940 5.405 C 10.290 5.407,8.913 5.415,8.880 5.421 M15.320 6.966 C 15.841 7.110,16.016 7.291,16.146 7.822 C 16.207 8.072,16.216 8.495,16.230 12.040 C 16.246 16.046,16.236 16.400,16.101 16.400 C 16.072 16.400,15.889 16.255,15.695 16.078 C 15.464 15.866,15.240 15.705,15.043 15.608 C 14.753 15.464,14.731 15.460,14.302 15.460 C 13.888 15.460,13.843 15.468,13.591 15.587 C 13.241 15.753,13.011 15.973,12.554 16.580 C 12.159 17.104,12.060 17.186,11.910 17.117 C 11.861 17.094,11.625 16.818,11.387 16.503 C 10.730 15.637,10.405 15.434,9.674 15.434 C 9.155 15.434,8.816 15.582,8.380 15.998 C 8.121 16.246,7.928 16.400,7.878 16.400 C 7.860 16.400,7.822 16.332,7.793 16.250 C 7.715 16.030,7.715 8.576,7.793 8.083 C 7.922 7.268,8.098 7.078,8.854 6.938 C 9.298 6.856,15.012 6.880,15.320 6.966 " stroke="none" fill-rule="evenodd" fill="black"></path></svg>