<svg width="24" height="24" viewBox="0 0 24 24" fill="none" xmlns="http://www.w3.org/2000/svg"><path d="M7.540 1.266 C 6.316 1.322,5.484 1.496,4.805 1.838 C 3.558 2.465,2.960 3.618,2.803 5.700 C 2.745 6.467,2.744 18.614,2.802 19.081 C 2.898 19.856,3.145 20.509,3.488 20.899 C 3.697 21.137,4.064 21.380,4.337 21.462 C 4.597 21.540,5.114 21.540,5.410 21.462 C 5.919 21.327,6.530 20.937,7.133 20.361 C 7.340 20.163,7.588 19.965,7.685 19.921 C 8.025 19.767,8.473 19.848,8.741 20.112 C 8.823 20.194,9.155 20.611,9.479 21.040 C 9.803 21.469,10.183 21.928,10.325 22.060 C 10.797 22.501,11.373 22.732,12.000 22.732 C 12.629 22.732,13.190 22.506,13.668 22.060 C 13.809 21.928,14.217 21.434,14.573 20.961 C 15.310 19.983,15.431 19.877,15.844 19.847 C 16.212 19.821,16.378 19.905,16.873 20.370 C 17.664 21.114,18.176 21.411,18.858 21.520 C 19.200 21.574,19.582 21.516,19.904 21.360 C 20.645 21.000,21.070 20.213,21.198 18.963 C 21.254 18.416,21.254 6.653,21.198 5.820 C 21.093 4.258,20.799 3.332,20.167 2.571 C 19.755 2.076,18.940 1.635,18.106 1.456 C 17.253 1.273,17.141 1.269,12.360 1.261 C 9.863 1.256,7.694 1.259,7.540 1.266 M17.520 2.853 C 18.691 3.085,19.188 3.482,19.476 4.418 C 19.747 5.294,19.767 5.934,19.750 12.980 C 19.734 19.445,19.744 19.163,19.520 19.669 C 19.336 20.084,19.159 20.134,18.692 19.901 C 18.490 19.799,18.276 19.632,17.904 19.283 C 17.157 18.584,16.663 18.351,15.920 18.349 C 15.491 18.348,15.154 18.435,14.748 18.651 C 14.311 18.883,14.067 19.133,13.393 20.040 C 12.790 20.852,12.582 21.076,12.336 21.179 C 12.139 21.261,11.816 21.254,11.617 21.164 C 11.384 21.058,11.221 20.878,10.581 20.020 C 10.269 19.602,9.898 19.152,9.756 19.020 C 9.097 18.406,8.174 18.191,7.337 18.457 C 6.918 18.589,6.611 18.792,6.116 19.260 C 5.536 19.808,5.175 20.037,4.885 20.039 C 4.591 20.041,4.362 19.600,4.278 18.870 C 4.248 18.616,4.240 16.499,4.250 12.120 C 4.266 5.300,4.262 5.437,4.462 4.620 C 4.545 4.282,4.758 3.802,4.903 3.627 C 5.275 3.177,5.927 2.908,6.901 2.803 C 7.077 2.785,9.461 2.773,12.200 2.777 C 16.682 2.785,17.214 2.793,17.520 2.853 M7.840 6.035 C 7.543 6.132,7.288 6.355,7.182 6.609 C 7.148 6.691,7.120 6.867,7.120 7.000 C 7.120 7.400,7.303 7.702,7.660 7.892 C 7.884 8.012,8.316 8.012,8.540 7.892 C 8.897 7.702,9.080 7.400,9.080 7.000 C 9.080 6.600,8.894 6.293,8.543 6.112 C 8.371 6.024,7.999 5.983,7.840 6.035 M10.820 6.260 C 10.798 6.267,10.731 6.284,10.671 6.297 C 10.524 6.329,10.281 6.548,10.214 6.708 C 10.103 6.973,10.159 7.289,10.353 7.494 C 10.598 7.753,10.419 7.739,13.517 7.751 C 15.486 7.759,16.400 7.749,16.551 7.718 C 17.319 7.558,17.328 6.448,16.562 6.284 C 16.422 6.254,15.475 6.241,13.608 6.243 C 12.097 6.245,10.842 6.252,10.820 6.260 M7.840 10.035 C 7.543 10.132,7.288 10.355,7.182 10.609 C 7.148 10.691,7.120 10.867,7.120 11.000 C 7.120 11.286,7.196 11.490,7.372 11.674 C 7.585 11.896,7.781 11.978,8.100 11.978 C 8.419 11.978,8.615 11.896,8.828 11.674 C 9.004 11.490,9.080 11.286,9.080 11.000 C 9.080 10.600,8.894 10.293,8.543 10.112 C 8.371 10.024,7.999 9.983,7.840 10.035 M10.820 10.260 C 10.798 10.267,10.731 10.284,10.671 10.297 C 10.524 10.329,10.281 10.548,10.214 10.708 C 10.103 10.973,10.159 11.289,10.353 11.494 C 10.598 11.753,10.419 11.739,13.517 11.751 C 15.486 11.759,16.400 11.749,16.551 11.718 C 17.319 11.558,17.328 10.448,16.562 10.284 C 16.422 10.254,15.475 10.241,13.608 10.243 C 12.097 10.245,10.842 10.252,10.820 10.260 " stroke="none" fill-rule="evenodd" fill="black"></path></svg>