<svg width="24" height="24" viewBox="0 0 24 24" fill="none" xmlns="http://www.w3.org/2000/svg"><path d="M7.540 1.266 C 7.027 1.289,6.344 1.366,5.974 1.442 C 4.203 1.804,3.239 2.834,2.919 4.706 C 2.765 5.606,2.754 6.182,2.769 12.800 C 2.782 18.744,2.788 19.200,2.854 19.480 C 3.057 20.334,3.338 20.837,3.807 21.182 C 4.370 21.597,5.115 21.635,5.858 21.287 C 6.243 21.107,6.543 20.888,7.045 20.420 C 7.295 20.188,7.577 19.960,7.671 19.915 C 8.011 19.750,8.511 19.837,8.765 20.104 C 8.817 20.159,9.121 20.550,9.440 20.972 C 9.919 21.606,10.051 21.756,10.198 21.830 C 10.757 22.111,11.364 21.655,11.259 21.034 C 11.237 20.905,11.090 20.682,10.578 20.000 C 10.208 19.508,9.833 19.052,9.713 18.950 C 8.956 18.306,7.953 18.151,7.078 18.544 C 6.752 18.691,6.558 18.834,6.102 19.268 C 5.561 19.781,5.147 20.040,4.864 20.040 C 4.655 20.040,4.472 19.771,4.335 19.260 C 4.263 18.991,4.260 18.714,4.260 12.440 C 4.260 5.518,4.260 5.518,4.447 4.700 C 4.541 4.290,4.740 3.825,4.913 3.616 C 5.221 3.242,5.754 2.989,6.521 2.854 C 6.914 2.785,7.256 2.780,12.000 2.780 C 16.744 2.780,17.086 2.785,17.479 2.854 C 18.246 2.989,18.779 3.242,19.087 3.616 C 19.242 3.804,19.452 4.273,19.538 4.620 C 19.717 5.350,19.730 5.611,19.746 8.560 C 19.755 10.256,19.776 11.438,19.800 11.525 C 19.916 11.946,20.403 12.156,20.820 11.965 C 21.010 11.877,21.096 11.788,21.178 11.590 C 21.232 11.462,21.240 11.092,21.240 8.847 C 21.240 5.774,21.204 5.140,20.978 4.236 C 20.685 3.065,20.115 2.298,19.200 1.841 C 18.660 1.571,18.217 1.449,17.360 1.331 C 16.967 1.278,16.238 1.267,12.360 1.261 C 9.863 1.256,7.694 1.259,7.540 1.266 M7.815 6.278 C 7.331 6.393,7.098 7.004,7.383 7.408 C 7.447 7.499,7.572 7.610,7.660 7.656 C 7.819 7.739,7.851 7.740,11.879 7.751 C 14.744 7.759,16.001 7.749,16.153 7.717 C 16.902 7.562,16.930 6.473,16.189 6.286 C 15.979 6.234,8.034 6.226,7.815 6.278 M8.815 10.278 C 8.331 10.393,8.098 11.004,8.383 11.408 C 8.447 11.499,8.572 11.610,8.660 11.656 C 8.818 11.739,8.865 11.740,11.878 11.751 C 14.020 11.759,15.000 11.749,15.151 11.718 C 15.902 11.562,15.931 10.473,15.189 10.286 C 14.979 10.234,9.033 10.226,8.815 10.278 M18.931 13.500 C 18.794 13.530,18.552 13.623,18.392 13.707 C 18.049 13.887,17.875 14.051,15.574 16.365 C 13.814 18.135,13.777 18.180,13.663 18.690 C 13.553 19.175,13.430 20.241,13.449 20.533 C 13.479 21.003,13.745 21.398,14.178 21.617 C 14.504 21.782,14.770 21.790,15.685 21.661 C 16.547 21.539,16.840 21.458,17.138 21.259 C 17.456 21.047,21.195 17.271,21.395 16.960 C 21.616 16.616,21.720 16.272,21.720 15.883 C 21.720 15.267,21.499 14.810,20.924 14.237 C 20.610 13.924,20.476 13.822,20.200 13.686 C 19.885 13.531,19.527 13.436,19.280 13.443 C 19.225 13.445,19.068 13.471,18.931 13.500 M19.624 15.073 C 19.891 15.267,20.194 15.628,20.224 15.789 C 20.259 15.974,20.148 16.197,19.897 16.443 L 19.718 16.619 19.529 16.521 C 19.286 16.394,18.806 15.914,18.680 15.671 L 18.582 15.483 18.721 15.336 C 19.099 14.939,19.342 14.868,19.624 15.073 M17.520 16.633 C 17.520 16.744,18.298 17.531,18.553 17.678 C 18.609 17.710,18.424 17.913,17.460 18.879 C 16.822 19.518,16.273 20.049,16.240 20.060 C 16.160 20.084,15.095 20.240,15.005 20.240 C 14.937 20.240,14.939 20.204,15.027 19.590 L 15.121 18.940 16.290 17.770 C 16.933 17.127,17.473 16.600,17.490 16.600 C 17.506 16.600,17.520 16.615,17.520 16.633 " stroke="none" fill-rule="evenodd" fill="black"></path></svg>