<svg width="24" height="24" viewBox="0 0 24 24" fill="none" xmlns="http://www.w3.org/2000/svg"><path d="M8.080 1.282 C 4.008 1.495,1.895 3.296,1.383 6.991 C 1.270 7.803,1.242 8.816,1.242 12.000 C 1.242 16.504,1.302 17.273,1.760 18.650 C 2.532 20.963,4.206 22.226,7.027 22.622 C 7.786 22.728,8.902 22.759,12.000 22.759 C 15.098 22.759,16.214 22.728,16.973 22.622 C 19.443 22.275,20.996 21.288,21.897 19.490 C 22.379 18.530,22.638 17.369,22.720 15.807 C 22.771 14.838,22.771 9.162,22.720 8.193 C 22.657 6.998,22.521 6.191,22.242 5.356 C 21.632 3.531,20.469 2.367,18.650 1.760 C 17.788 1.473,17.023 1.344,15.806 1.280 C 14.952 1.235,8.952 1.237,8.080 1.282 M16.800 2.854 C 19.586 3.316,20.714 4.454,21.148 7.240 C 21.214 7.661,21.220 8.064,21.220 12.000 C 21.220 15.936,21.214 16.339,21.148 16.760 C 20.712 19.558,19.558 20.712,16.760 21.148 C 16.339 21.214,15.936 21.220,12.000 21.220 C 8.064 21.220,7.661 21.214,7.240 21.148 C 4.450 20.713,3.283 19.551,2.854 16.780 C 2.785 16.335,2.780 15.989,2.780 12.000 C 2.780 7.247,2.776 7.337,3.044 6.288 C 3.557 4.282,4.722 3.274,6.960 2.900 C 7.690 2.777,8.048 2.769,12.200 2.777 C 15.963 2.784,16.422 2.791,16.800 2.854 M11.720 5.824 C 11.550 5.898,11.414 6.020,11.326 6.180 C 11.267 6.288,11.258 6.620,11.240 9.490 L 11.220 12.681 10.340 11.796 C 9.447 10.898,9.272 10.763,9.009 10.761 C 8.847 10.760,8.612 10.855,8.487 10.972 C 8.243 11.199,8.194 11.588,8.371 11.887 C 8.428 11.982,9.182 12.765,10.047 13.626 C 11.544 15.116,11.629 15.193,11.810 15.231 C 11.935 15.257,12.065 15.257,12.190 15.231 C 12.371 15.193,12.456 15.116,13.953 13.626 C 14.818 12.765,15.572 11.982,15.629 11.887 C 15.806 11.588,15.757 11.199,15.513 10.972 C 15.388 10.855,15.153 10.760,14.991 10.761 C 14.728 10.763,14.553 10.898,13.660 11.796 L 12.780 12.681 12.760 9.490 C 12.742 6.620,12.733 6.288,12.674 6.180 C 12.480 5.828,12.066 5.674,11.720 5.824 M5.698 15.835 C 5.496 15.927,5.335 16.115,5.279 16.325 C 5.202 16.609,5.339 16.971,5.579 17.119 C 5.751 17.226,6.407 17.432,7.240 17.640 C 10.342 18.418,13.658 18.418,16.760 17.640 C 17.593 17.432,18.249 17.226,18.421 17.119 C 18.661 16.971,18.798 16.609,18.721 16.325 C 18.639 16.020,18.318 15.763,18.017 15.761 C 17.949 15.760,17.696 15.822,17.455 15.899 C 16.215 16.291,14.816 16.565,13.460 16.679 C 12.404 16.768,10.702 16.723,9.600 16.578 C 8.636 16.450,7.465 16.190,6.545 15.899 C 6.047 15.741,5.926 15.732,5.698 15.835 " stroke="none" fill-rule="evenodd" fill="black"></path></svg>