<svg width="24" height="24" viewBox="0 0 24 24" fill="none" xmlns="http://www.w3.org/2000/svg"><path d="M11.340 2.281 C 7.073 2.553,3.439 5.660,2.499 9.840 C 2.187 11.227,2.187 12.773,2.499 14.160 C 3.317 17.797,6.203 20.683,9.840 21.501 C 11.233 21.814,12.770 21.813,14.176 21.498 C 17.465 20.759,20.161 18.310,21.244 15.076 C 21.795 13.432,21.887 11.556,21.501 9.840 C 20.683 6.203,17.797 3.317,14.160 2.499 C 13.288 2.303,12.254 2.223,11.340 2.281 M12.961 3.802 C 15.366 4.099,17.499 5.405,18.855 7.410 C 19.398 8.212,19.889 9.378,20.077 10.309 C 20.201 10.920,20.240 11.328,20.240 12.000 C 20.240 13.332,19.977 14.465,19.395 15.642 C 18.574 17.301,17.301 18.574,15.642 19.395 C 14.465 19.977,13.332 20.240,12.000 20.240 C 10.675 20.240,9.557 19.982,8.374 19.404 C 5.858 18.174,4.148 15.764,3.802 12.961 C 3.748 12.525,3.748 11.475,3.802 11.039 C 3.997 9.457,4.659 7.916,5.648 6.740 C 5.985 6.340,6.399 5.929,6.816 5.581 C 7.900 4.677,9.498 3.996,10.984 3.806 C 11.379 3.755,12.563 3.753,12.961 3.802 " stroke="none" fill-rule="evenodd" fill="black"></path></svg>