<svg width="24" height="24" viewBox="0 0 24 24" fill="none" xmlns="http://www.w3.org/2000/svg"><path d="M11.520 1.265 C 9.179 1.381,7.037 2.186,5.222 3.635 C 3.683 4.862,2.406 6.708,1.781 8.608 C 1.400 9.763,1.240 10.769,1.240 12.000 C 1.240 13.231,1.400 14.237,1.781 15.392 C 2.968 19.000,6.008 21.712,9.764 22.516 C 10.723 22.721,12.190 22.792,13.160 22.680 C 17.435 22.189,21.013 19.214,22.253 15.120 C 22.571 14.071,22.697 13.186,22.697 12.000 C 22.697 10.814,22.571 9.929,22.253 8.880 C 21.209 5.435,18.507 2.751,15.024 1.701 C 13.967 1.383,12.598 1.212,11.520 1.265 M13.082 2.817 C 16.549 3.250,19.446 5.544,20.660 8.818 C 21.024 9.801,21.208 10.858,21.210 11.980 C 21.211 13.036,21.073 13.933,20.761 14.881 C 19.624 18.344,16.573 20.806,12.928 21.202 C 12.295 21.270,11.037 21.232,10.440 21.126 C 8.405 20.764,6.697 19.852,5.279 18.372 C 1.870 14.814,1.867 9.188,5.272 5.635 C 6.452 4.403,7.833 3.562,9.429 3.103 C 9.859 2.979,10.663 2.824,11.060 2.788 C 11.494 2.749,12.667 2.765,13.082 2.817 M11.137 7.102 C 10.504 7.209,9.796 7.498,9.172 7.904 C 8.873 8.099,8.099 8.873,7.904 9.172 C 7.313 10.080,7.040 10.972,7.040 12.000 C 7.040 13.366,7.557 14.597,8.526 15.545 C 9.487 16.483,10.662 16.961,12.008 16.960 C 13.385 16.959,14.598 16.445,15.565 15.454 C 16.481 14.514,16.960 13.328,16.960 12.000 C 16.960 10.630,16.447 9.406,15.474 8.455 C 14.708 7.708,13.773 7.240,12.732 7.083 C 12.348 7.026,11.537 7.035,11.137 7.102 M12.840 8.614 C 13.373 8.751,13.817 8.983,14.231 9.339 C 14.839 9.862,15.222 10.482,15.407 11.240 C 15.477 11.528,15.477 12.472,15.407 12.760 C 15.222 13.518,14.839 14.138,14.231 14.661 C 13.578 15.224,12.917 15.460,12.000 15.460 C 11.434 15.460,11.208 15.423,10.754 15.255 C 9.891 14.935,9.065 14.109,8.745 13.246 C 8.577 12.792,8.540 12.566,8.540 12.000 C 8.540 11.434,8.577 11.208,8.745 10.754 C 9.131 9.713,10.182 8.807,11.240 8.603 C 11.361 8.580,11.496 8.552,11.540 8.542 C 11.694 8.507,12.622 8.558,12.840 8.614 " stroke="none" fill-rule="evenodd" fill="black"></path></svg>