<svg width="22" height="22" viewBox="0 0 22 22" fill="none" xmlns="http://www.w3.org/2000/svg"><path d="M7.058 0.313 C 4.769 0.591,2.767 1.852,1.468 3.832 C 1.042 4.481,0.619 5.499,0.441 6.300 C 0.345 6.733,0.257 7.484,0.257 7.866 C 0.257 8.217,0.342 8.421,0.561 8.595 C 0.680 8.689,0.739 8.708,0.954 8.720 C 1.177 8.733,1.228 8.723,1.373 8.638 C 1.652 8.474,1.721 8.310,1.761 7.712 C 1.824 6.752,1.976 6.145,2.359 5.312 C 2.924 4.082,4.084 2.923,5.311 2.360 C 5.782 2.144,6.563 1.873,6.563 1.927 C 6.563 1.935,6.514 2.022,6.454 2.120 C 6.253 2.446,6.186 2.636,6.210 2.811 C 6.242 3.046,6.362 3.250,6.534 3.364 C 6.664 3.451,6.724 3.465,6.948 3.465 C 7.384 3.465,7.407 3.441,8.123 2.247 L 8.733 1.228 8.720 0.965 C 8.709 0.738,8.692 0.683,8.596 0.562 C 8.410 0.328,8.222 0.256,7.811 0.261 C 7.619 0.263,7.280 0.287,7.058 0.313 M11.063 3.778 C 8.880 3.936,7.793 5.040,7.676 7.215 L 7.653 7.653 7.227 7.676 C 5.181 7.788,4.114 8.718,3.811 10.652 C 3.752 11.027,3.723 13.938,3.771 14.671 C 3.854 15.940,4.143 16.718,4.747 17.302 C 5.349 17.883,6.087 18.148,7.329 18.229 C 8.229 18.288,10.941 18.248,11.437 18.169 C 13.287 17.875,14.214 16.784,14.324 14.773 L 14.347 14.347 14.773 14.324 C 16.800 14.213,17.877 13.287,18.175 11.398 C 18.232 11.037,18.241 10.727,18.241 9.057 C 18.242 7.044,18.227 6.792,18.072 6.178 C 17.780 5.023,17.060 4.273,15.944 3.960 C 15.337 3.789,15.074 3.769,13.237 3.758 C 12.279 3.751,11.300 3.760,11.063 3.778 M14.950 5.283 C 15.895 5.388,16.367 5.716,16.591 6.423 C 16.740 6.893,16.764 7.337,16.747 9.313 C 16.730 11.313,16.718 11.431,16.492 11.926 C 16.302 12.342,15.998 12.577,15.457 12.725 C 15.206 12.794,14.392 12.876,14.353 12.837 C 14.344 12.828,14.337 12.415,14.337 11.919 C 14.337 10.953,14.305 10.566,14.186 10.102 C 13.860 8.824,13.111 8.103,11.775 7.784 C 11.418 7.699,11.290 7.689,10.267 7.668 L 9.149 7.645 9.160 7.370 C 9.217 5.988,9.675 5.442,10.908 5.285 C 11.284 5.238,14.527 5.236,14.950 5.283 M10.798 9.183 C 11.952 9.223,12.486 9.582,12.731 10.481 C 12.801 10.739,12.810 10.903,12.834 12.503 C 12.849 13.461,12.847 14.460,12.829 14.722 C 12.763 15.715,12.501 16.229,11.926 16.492 C 11.415 16.726,11.274 16.738,9.075 16.738 C 6.958 16.738,6.781 16.726,6.314 16.552 C 5.870 16.386,5.613 16.129,5.449 15.686 C 5.270 15.205,5.262 15.079,5.262 12.925 C 5.263 10.688,5.272 10.583,5.504 10.079 C 5.632 9.803,5.864 9.556,6.115 9.427 C 6.357 9.304,6.797 9.200,7.197 9.171 C 7.563 9.145,9.924 9.152,10.798 9.183 M20.616 13.365 C 20.529 13.418,20.420 13.531,20.367 13.621 C 20.285 13.761,20.268 13.845,20.239 14.288 C 20.221 14.567,20.188 14.902,20.166 15.033 C 19.772 17.399,17.995 19.377,15.684 20.020 C 15.548 20.058,15.437 20.082,15.437 20.073 C 15.437 20.065,15.486 19.978,15.546 19.880 C 15.747 19.554,15.814 19.364,15.790 19.189 C 15.737 18.805,15.485 18.554,15.122 18.524 C 14.892 18.505,14.648 18.581,14.528 18.710 C 14.487 18.755,14.186 19.237,13.860 19.782 L 13.267 20.772 13.280 21.035 C 13.291 21.262,13.308 21.317,13.404 21.438 C 13.579 21.658,13.783 21.743,14.134 21.743 C 14.516 21.743,15.267 21.655,15.700 21.559 C 18.276 20.988,20.448 19.052,21.313 16.555 C 21.569 15.817,21.743 14.835,21.743 14.134 C 21.743 13.783,21.658 13.579,21.438 13.404 C 21.316 13.307,21.264 13.291,21.035 13.281 C 20.804 13.271,20.752 13.282,20.616 13.365 " stroke="none" fill-rule="evenodd" fill="black"></path></svg>