<svg width="24" height="24" viewBox="0 0 24 24" fill="none" xmlns="http://www.w3.org/2000/svg"><path d="M17.260 5.017 C 17.111 5.083,16.939 5.264,16.883 5.413 C 16.820 5.577,16.831 5.865,16.904 6.012 C 16.939 6.082,17.285 6.460,17.674 6.850 L 18.379 7.560 13.554 7.560 C 10.485 7.560,8.578 7.575,8.314 7.602 C 6.515 7.784,4.964 8.747,3.988 10.289 C 3.676 10.781,3.425 11.385,3.287 11.980 C 2.590 14.975,4.338 17.971,7.279 18.824 C 8.026 19.041,7.994 19.040,12.687 19.040 C 15.662 19.040,17.070 19.027,17.147 18.997 C 17.712 18.784,17.758 17.941,17.220 17.646 C 17.111 17.586,16.684 17.578,12.660 17.559 L 8.220 17.539 7.832 17.432 C 7.072 17.224,6.411 16.846,5.888 16.323 C 5.158 15.592,4.739 14.712,4.647 13.715 C 4.484 11.947,5.400 10.298,6.980 9.511 C 7.311 9.346,7.628 9.234,8.040 9.136 C 8.317 9.070,8.714 9.064,13.299 9.051 L 18.258 9.036 17.609 9.693 C 17.229 10.078,16.935 10.409,16.900 10.494 C 16.772 10.799,16.863 11.207,17.101 11.394 C 17.345 11.586,17.726 11.603,17.973 11.434 C 18.157 11.309,20.540 8.934,20.703 8.714 C 20.864 8.497,20.914 8.246,20.840 8.015 C 20.801 7.893,20.501 7.569,19.425 6.487 C 18.674 5.732,17.993 5.079,17.912 5.037 C 17.739 4.947,17.437 4.938,17.260 5.017 " stroke="none" fill-rule="evenodd" fill="black"></path></svg>