<svg width="24" height="24" viewBox="0 0 24 24" fill="none" xmlns="http://www.w3.org/2000/svg"><path d="M8.080 1.282 C 4.008 1.495,1.895 3.296,1.383 6.991 C 1.270 7.803,1.242 8.816,1.242 12.000 C 1.242 16.504,1.302 17.273,1.760 18.650 C 2.532 20.963,4.206 22.226,7.027 22.622 C 7.786 22.728,8.902 22.759,12.000 22.759 C 15.098 22.759,16.214 22.728,16.973 22.622 C 19.443 22.275,20.996 21.288,21.897 19.490 C 22.379 18.530,22.638 17.369,22.720 15.807 C 22.771 14.838,22.771 9.162,22.720 8.193 C 22.657 6.998,22.521 6.191,22.242 5.356 C 21.632 3.531,20.469 2.367,18.650 1.760 C 17.788 1.473,17.023 1.344,15.806 1.280 C 14.952 1.235,8.952 1.237,8.080 1.282 M16.800 2.854 C 19.586 3.316,20.714 4.454,21.148 7.240 C 21.214 7.661,21.220 8.064,21.220 12.000 C 21.220 15.936,21.214 16.339,21.148 16.760 C 20.712 19.558,19.558 20.712,16.760 21.148 C 16.339 21.214,15.936 21.220,12.000 21.220 C 8.064 21.220,7.661 21.214,7.240 21.148 C 4.450 20.713,3.283 19.551,2.854 16.780 C 2.785 16.335,2.780 15.989,2.780 12.000 C 2.780 7.247,2.776 7.337,3.044 6.288 C 3.557 4.282,4.722 3.274,6.960 2.900 C 7.690 2.777,8.048 2.769,12.200 2.777 C 15.963 2.784,16.422 2.791,16.800 2.854 M12.440 5.043 C 12.312 5.096,12.128 5.271,12.062 5.400 C 11.911 5.697,11.960 5.979,12.218 6.295 L 12.392 6.509 11.806 6.532 C 11.139 6.559,10.621 6.656,10.068 6.856 C 6.372 8.194,5.078 12.714,7.501 15.822 C 8.308 16.858,9.505 17.596,10.850 17.887 C 11.441 18.016,12.559 18.016,13.150 17.887 C 15.692 17.337,17.526 15.252,17.717 12.699 C 17.774 11.932,17.678 11.112,17.452 10.440 C 17.323 10.055,16.959 9.313,16.785 9.077 C 16.547 8.755,16.157 8.658,15.811 8.834 C 15.404 9.042,15.304 9.523,15.579 9.958 C 15.879 10.433,16.112 11.052,16.201 11.611 C 16.272 12.049,16.231 12.887,16.120 13.300 C 15.909 14.082,15.563 14.684,15.003 15.242 C 14.259 15.985,13.470 16.363,12.414 16.486 C 11.505 16.592,10.482 16.341,9.670 15.813 C 9.511 15.709,9.207 15.453,8.997 15.242 C 8.438 14.685,8.076 14.056,7.875 13.287 C 7.770 12.889,7.732 12.087,7.797 11.636 C 8.026 10.044,9.200 8.680,10.756 8.198 C 11.267 8.039,12.117 7.957,12.448 8.035 C 12.551 8.059,12.541 8.072,12.209 8.320 C 11.806 8.622,11.710 8.762,11.706 9.053 C 11.700 9.480,12.016 9.800,12.444 9.800 C 12.712 9.800,12.683 9.817,13.952 8.888 C 15.053 8.083,15.120 8.012,15.120 7.660 C 15.120 7.560,15.095 7.420,15.064 7.349 C 15.002 7.205,13.283 5.231,13.111 5.105 C 12.984 5.013,12.598 4.977,12.440 5.043 " stroke="none" fill-rule="evenodd" fill="black"></path></svg>