<svg width="24" height="24" viewBox="0 0 24 24" fill="none" xmlns="http://www.w3.org/2000/svg"><path d="M8.080 1.282 C 4.008 1.495,1.895 3.296,1.383 6.991 C 1.270 7.803,1.242 8.816,1.242 12.000 C 1.242 16.504,1.302 17.273,1.760 18.650 C 2.532 20.963,4.206 22.226,7.027 22.622 C 7.786 22.728,8.902 22.759,12.000 22.759 C 15.098 22.759,16.214 22.728,16.973 22.622 C 19.443 22.275,20.996 21.288,21.897 19.490 C 22.379 18.530,22.638 17.369,22.720 15.807 C 22.771 14.838,22.771 9.162,22.720 8.193 C 22.657 6.998,22.521 6.191,22.242 5.356 C 21.632 3.531,20.469 2.367,18.650 1.760 C 17.788 1.473,17.023 1.344,15.806 1.280 C 14.952 1.235,8.952 1.237,8.080 1.282 M16.800 2.854 C 19.586 3.316,20.714 4.454,21.148 7.240 C 21.214 7.661,21.220 8.064,21.220 12.000 C 21.220 15.936,21.214 16.339,21.148 16.760 C 20.712 19.558,19.558 20.712,16.760 21.148 C 16.339 21.214,15.936 21.220,12.000 21.220 C 8.064 21.220,7.661 21.214,7.240 21.148 C 4.450 20.713,3.283 19.551,2.854 16.780 C 2.785 16.335,2.780 15.989,2.780 12.000 C 2.780 7.247,2.776 7.337,3.044 6.288 C 3.557 4.282,4.722 3.274,6.960 2.900 C 7.690 2.777,8.048 2.769,12.200 2.777 C 15.963 2.784,16.422 2.791,16.800 2.854 M10.978 5.056 C 10.848 5.113,10.635 5.340,9.621 6.500 C 9.275 6.896,8.967 7.278,8.936 7.349 C 8.805 7.651,8.911 8.061,9.170 8.251 C 10.030 8.884,11.089 9.647,11.200 9.715 C 11.399 9.836,11.720 9.831,11.937 9.704 C 12.161 9.573,12.298 9.323,12.294 9.053 C 12.290 8.762,12.194 8.622,11.791 8.320 C 11.459 8.072,11.449 8.059,11.552 8.035 C 11.883 7.957,12.733 8.039,13.244 8.198 C 13.931 8.411,14.459 8.735,15.003 9.278 C 15.559 9.832,15.913 10.446,16.129 11.233 C 16.199 11.488,16.214 11.658,16.217 12.240 C 16.220 13.009,16.168 13.299,15.917 13.902 C 15.618 14.619,14.975 15.394,14.330 15.813 C 13.518 16.341,12.495 16.592,11.586 16.486 C 10.530 16.363,9.741 15.985,8.997 15.242 C 8.438 14.685,8.077 14.057,7.874 13.287 C 7.769 12.886,7.730 12.036,7.799 11.611 C 7.888 11.052,8.121 10.433,8.421 9.958 C 8.696 9.523,8.596 9.042,8.189 8.834 C 7.843 8.658,7.453 8.755,7.215 9.077 C 7.040 9.314,6.675 10.057,6.547 10.440 C 6.220 11.414,6.178 12.629,6.436 13.652 C 6.980 15.805,8.654 17.412,10.850 17.887 C 11.191 17.961,11.385 17.976,12.000 17.976 C 12.836 17.976,13.258 17.908,13.932 17.664 C 16.072 16.889,17.552 14.952,17.716 12.710 C 17.906 10.102,16.382 7.743,13.932 6.856 C 13.379 6.656,12.861 6.559,12.194 6.532 L 11.608 6.509 11.782 6.295 C 12.106 5.898,12.103 5.504,11.774 5.193 C 11.569 4.999,11.239 4.943,10.978 5.056 " stroke="none" fill-rule="evenodd" fill="black"></path></svg>