<svg width="24" height="24" viewBox="0 0 24 24" fill="none" xmlns="http://www.w3.org/2000/svg"><path d="M11.320 1.281 C 7.041 1.525,3.252 4.409,1.843 8.497 C 1.180 10.418,1.082 12.560,1.564 14.550 C 2.505 18.428,5.572 21.495,9.450 22.436 C 11.106 22.837,12.894 22.837,14.550 22.436 C 18.428 21.495,21.495 18.428,22.436 14.550 C 22.837 12.894,22.837 11.106,22.436 9.450 C 21.425 5.282,17.985 2.095,13.742 1.398 C 13.334 1.331,12.074 1.229,11.880 1.247 C 11.847 1.250,11.595 1.265,11.320 1.281 M13.146 2.822 C 14.201 2.960,15.125 3.237,16.060 3.696 C 18.877 5.079,20.768 7.722,21.178 10.854 C 21.301 11.786,21.244 13.026,21.034 13.998 C 20.745 15.343,20.003 16.855,19.121 17.900 C 18.247 18.935,17.240 19.726,16.060 20.304 C 14.761 20.940,13.462 21.240,12.000 21.240 C 10.538 21.240,9.236 20.940,7.940 20.304 C 5.123 18.921,3.232 16.278,2.822 13.146 C 2.699 12.214,2.756 10.974,2.966 10.002 C 3.177 9.020,3.703 7.775,4.268 6.920 C 5.750 4.677,8.131 3.188,10.820 2.823 C 11.380 2.746,12.569 2.746,13.146 2.822 M15.860 6.155 C 15.517 6.313,15.440 6.505,15.440 7.199 C 15.440 7.485,15.429 7.720,15.416 7.720 C 15.402 7.720,15.326 7.668,15.246 7.605 C 15.013 7.422,14.606 7.185,14.260 7.031 C 13.633 6.753,13.105 6.617,12.442 6.564 C 9.791 6.351,7.384 8.050,6.736 10.591 C 6.583 11.189,6.570 11.433,6.679 11.659 C 6.811 11.930,7.024 12.060,7.337 12.060 C 7.620 12.059,7.828 11.955,7.955 11.748 C 7.998 11.678,8.078 11.420,8.133 11.175 C 8.319 10.350,8.646 9.741,9.196 9.198 C 9.799 8.602,10.426 8.271,11.280 8.098 C 11.767 7.999,12.568 8.034,13.060 8.176 C 13.426 8.282,14.118 8.601,14.203 8.704 C 14.243 8.752,14.180 8.760,13.783 8.760 C 13.398 8.760,13.290 8.774,13.162 8.839 C 12.872 8.987,12.727 9.281,12.778 9.621 C 12.818 9.885,13.109 10.182,13.365 10.219 C 13.461 10.233,14.190 10.239,14.983 10.232 L 16.427 10.220 16.592 10.106 C 16.686 10.040,16.792 9.918,16.839 9.823 C 16.916 9.663,16.920 9.583,16.919 8.157 C 16.918 6.790,16.912 6.646,16.845 6.500 C 16.757 6.310,16.668 6.224,16.470 6.142 C 16.275 6.060,16.056 6.065,15.860 6.155 M16.437 11.956 C 16.113 12.061,15.999 12.235,15.867 12.825 C 15.812 13.069,15.709 13.407,15.639 13.576 C 15.193 14.647,14.235 15.482,13.060 15.823 C 12.569 15.966,11.769 16.001,11.280 15.902 C 10.723 15.790,10.095 15.538,9.840 15.326 L 9.740 15.243 10.212 15.241 C 10.600 15.240,10.710 15.226,10.838 15.161 C 11.128 15.013,11.273 14.719,11.222 14.379 C 11.182 14.115,10.891 13.818,10.635 13.781 C 10.539 13.767,9.811 13.761,9.017 13.768 L 7.574 13.780 7.412 13.887 C 7.314 13.952,7.216 14.064,7.165 14.170 C 7.083 14.339,7.080 14.399,7.080 15.834 C 7.080 17.404,7.089 17.488,7.272 17.694 C 7.374 17.810,7.640 17.918,7.820 17.918 C 8.000 17.918,8.266 17.810,8.368 17.694 C 8.520 17.523,8.560 17.339,8.560 16.801 C 8.560 16.515,8.571 16.280,8.584 16.280 C 8.598 16.280,8.674 16.332,8.754 16.395 C 9.469 16.958,10.534 17.354,11.554 17.436 C 13.540 17.596,15.427 16.688,16.554 15.031 C 16.733 14.767,17.054 14.111,17.155 13.800 C 17.272 13.442,17.398 12.852,17.399 12.663 C 17.400 12.443,17.259 12.174,17.081 12.056 C 16.919 11.949,16.607 11.901,16.437 11.956 " stroke="none" fill-rule="evenodd" fill="black"></path></svg>