<svg width="24" height="24" viewBox="0 0 24 24" fill="none" xmlns="http://www.w3.org/2000/svg"><path d="M11.520 1.267 C 8.715 1.377,5.889 2.697,4.049 4.757 C 2.308 6.706,1.324 9.152,1.272 11.660 C 1.261 12.187,1.265 12.229,1.353 12.369 C 1.710 12.943,2.576 12.812,2.716 12.162 C 2.740 12.049,2.760 11.817,2.760 11.647 C 2.760 11.060,2.904 10.140,3.104 9.450 C 3.942 6.557,6.096 4.264,8.892 3.285 C 9.983 2.904,10.844 2.760,12.039 2.760 C 13.751 2.760,15.268 3.118,16.780 3.879 C 17.915 4.450,18.914 5.187,19.899 6.177 L 20.498 6.780 18.919 6.800 C 17.343 6.820,17.340 6.820,17.187 6.915 C 16.945 7.066,16.827 7.278,16.827 7.563 C 16.827 7.763,16.846 7.830,16.943 7.968 C 17.008 8.059,17.132 8.170,17.220 8.216 C 17.376 8.298,17.438 8.300,19.660 8.313 C 21.288 8.322,22.001 8.312,22.154 8.279 C 22.429 8.219,22.647 8.013,22.714 7.749 C 22.777 7.497,22.779 2.692,22.716 2.398 C 22.575 1.742,21.713 1.611,21.353 2.191 C 21.261 2.339,21.260 2.350,21.248 3.852 L 21.236 5.364 20.794 4.942 C 19.162 3.377,17.343 2.301,15.360 1.726 C 14.221 1.395,12.745 1.219,11.520 1.267 M21.815 11.277 C 21.640 11.320,21.462 11.456,21.357 11.624 C 21.281 11.748,21.265 11.850,21.238 12.398 C 21.168 13.791,20.854 14.983,20.233 16.209 C 19.798 17.066,19.343 17.695,18.622 18.434 C 17.805 19.273,17.063 19.814,16.060 20.303 C 14.756 20.939,13.458 21.241,12.028 21.239 C 10.734 21.238,9.709 20.994,8.500 20.401 C 7.282 19.803,6.025 18.820,4.995 17.660 L 4.604 17.220 6.212 17.200 L 7.820 17.180 7.994 17.080 C 8.486 16.799,8.486 16.081,7.994 15.800 L 7.820 15.700 5.400 15.700 C 4.069 15.700,2.932 15.713,2.873 15.730 C 2.713 15.775,2.518 15.957,2.435 16.138 C 2.366 16.290,2.362 16.465,2.361 18.931 C 2.360 21.773,2.356 21.722,2.572 21.953 C 2.896 22.300,3.517 22.224,3.750 21.808 C 3.839 21.651,3.840 21.628,3.840 20.165 C 3.840 19.348,3.847 18.680,3.856 18.680 C 3.864 18.680,4.103 18.911,4.386 19.193 C 5.530 20.335,6.628 21.140,7.860 21.741 C 9.124 22.357,10.158 22.637,11.480 22.720 C 13.917 22.872,16.424 22.103,18.470 20.575 C 19.087 20.115,20.115 19.087,20.575 18.470 C 21.877 16.726,22.588 14.790,22.717 12.632 C 22.758 11.944,22.732 11.736,22.580 11.536 C 22.421 11.327,22.078 11.211,21.815 11.277 " stroke="none" fill-rule="evenodd" fill="black"></path></svg>