<svg width="24" height="24" viewBox="0 0 24 24" fill="none" xmlns="http://www.w3.org/2000/svg"><path d="M11.280 1.281 C 9.635 1.375,8.174 1.760,6.660 2.500 C 5.388 3.121,4.311 3.882,3.204 4.944 L 2.760 5.369 2.760 4.206 C 2.760 2.855,2.738 2.698,2.522 2.482 C 2.173 2.133,1.619 2.203,1.353 2.631 L 1.260 2.780 1.260 5.287 L 1.260 7.793 1.380 7.963 C 1.446 8.056,1.572 8.170,1.660 8.216 C 1.816 8.298,1.877 8.300,4.098 8.311 C 5.667 8.319,6.442 8.309,6.591 8.278 C 7.267 8.137,7.389 7.202,6.772 6.896 C 6.633 6.827,6.486 6.818,5.061 6.800 L 3.502 6.780 4.101 6.177 C 6.039 4.228,8.250 3.112,10.755 2.819 C 11.334 2.751,12.504 2.741,13.001 2.800 C 16.697 3.236,19.685 5.676,20.811 9.180 C 21.107 10.099,21.240 10.976,21.240 12.001 C 21.240 14.551,20.262 16.849,18.413 18.642 C 17.322 19.700,16.164 20.384,14.667 20.855 C 14.136 21.022,13.964 21.143,13.858 21.420 C 13.674 21.901,14.025 22.398,14.550 22.399 C 14.786 22.400,15.561 22.160,16.220 21.882 C 17.969 21.143,19.636 19.798,20.756 18.223 C 21.783 16.778,22.415 15.157,22.662 13.335 C 22.749 12.694,22.749 11.309,22.661 10.660 C 22.260 7.679,20.768 5.119,18.420 3.381 C 17.798 2.921,17.463 2.715,16.800 2.385 C 15.087 1.533,13.265 1.169,11.280 1.281 M1.815 11.277 C 1.638 11.321,1.461 11.456,1.353 11.631 C 1.267 11.769,1.261 11.817,1.270 12.280 C 1.275 12.555,1.299 12.951,1.322 13.160 C 1.413 13.977,1.654 15.045,1.814 15.339 C 2.054 15.780,2.739 15.809,3.041 15.392 C 3.216 15.150,3.224 14.993,3.086 14.473 C 2.889 13.730,2.761 12.886,2.759 12.321 C 2.758 11.941,2.702 11.696,2.580 11.536 C 2.421 11.327,2.078 11.211,1.815 11.277 M3.420 16.984 C 3.118 17.149,2.971 17.426,3.015 17.745 C 3.074 18.177,4.396 19.709,5.289 20.380 C 5.510 20.546,5.546 20.560,5.766 20.560 C 6.028 20.560,6.166 20.505,6.327 20.334 C 6.466 20.187,6.520 20.040,6.520 19.807 C 6.520 19.552,6.411 19.389,6.000 19.030 C 5.521 18.611,4.950 18.005,4.578 17.520 C 4.403 17.293,4.210 17.070,4.150 17.025 C 4.000 16.915,3.589 16.892,3.420 16.984 M8.220 20.597 C 8.042 20.640,7.945 20.701,7.807 20.858 C 7.532 21.171,7.614 21.729,7.966 21.937 C 8.137 22.038,8.800 22.268,9.250 22.383 C 9.855 22.537,10.379 22.630,10.935 22.684 C 11.417 22.731,11.434 22.730,11.617 22.641 C 11.891 22.509,12.020 22.296,12.020 21.980 C 12.020 21.779,12.000 21.704,11.910 21.568 C 11.758 21.338,11.576 21.258,11.080 21.203 C 10.283 21.114,9.473 20.932,8.872 20.706 C 8.563 20.591,8.377 20.559,8.220 20.597 " stroke="none" fill-rule="evenodd" fill="black"></path></svg>