<svg width="24" height="24" viewBox="0 0 24 24" fill="none" xmlns="http://www.w3.org/2000/svg"><path d="M6.580 1.277 C 6.514 1.293,6.415 1.329,6.360 1.358 C 6.209 1.436,3.088 4.553,2.955 4.758 C 2.793 5.009,2.793 5.311,2.955 5.562 C 3.111 5.802,6.224 8.892,6.399 8.981 C 6.572 9.068,6.902 9.072,7.061 8.989 C 7.425 8.799,7.576 8.388,7.420 8.013 C 7.382 7.924,6.995 7.502,6.392 6.894 L 5.424 5.919 11.682 5.930 L 17.940 5.940 18.178 6.030 C 18.913 6.307,19.520 7.026,19.638 7.760 C 19.662 7.912,19.680 8.768,19.680 9.827 C 19.680 11.006,19.695 11.674,19.723 11.747 C 19.776 11.889,19.944 12.068,20.099 12.149 C 20.253 12.230,20.588 12.229,20.745 12.148 C 20.919 12.058,21.112 11.825,21.140 11.671 C 21.154 11.599,21.158 10.640,21.151 9.540 C 21.135 7.280,21.133 7.264,20.798 6.563 C 20.305 5.531,19.468 4.840,18.337 4.530 L 17.940 4.421 11.684 4.409 L 5.428 4.397 6.394 3.424 C 6.996 2.817,7.382 2.396,7.420 2.307 C 7.613 1.843,7.334 1.344,6.840 1.270 C 6.763 1.258,6.646 1.261,6.580 1.277 M3.420 11.797 C 3.354 11.813,3.262 11.847,3.215 11.872 C 3.074 11.947,2.885 12.190,2.860 12.329 C 2.846 12.401,2.842 13.360,2.849 14.460 C 2.865 16.720,2.867 16.736,3.202 17.437 C 3.695 18.469,4.532 19.160,5.663 19.470 L 6.060 19.579 12.317 19.591 L 18.574 19.603 17.608 20.574 C 16.993 21.192,16.620 21.598,16.581 21.691 C 16.424 22.068,16.574 22.479,16.939 22.669 C 17.098 22.752,17.428 22.748,17.601 22.661 C 17.776 22.572,20.889 19.482,21.045 19.242 C 21.207 18.991,21.207 18.689,21.045 18.438 C 20.889 18.198,17.776 15.108,17.601 15.019 C 17.428 14.932,17.098 14.928,16.939 15.011 C 16.575 15.201,16.424 15.612,16.580 15.987 C 16.618 16.076,17.005 16.498,17.608 17.106 L 18.576 18.081 12.318 18.070 L 6.060 18.060 5.822 17.970 C 5.098 17.697,4.494 16.990,4.363 16.263 C 4.336 16.117,4.320 15.319,4.320 14.195 C 4.320 12.999,4.305 12.326,4.277 12.253 C 4.156 11.931,3.753 11.717,3.420 11.797 " stroke="none" fill-rule="evenodd" fill="black"></path></svg>