<svg width="24" height="24" viewBox="0 0 24 24" fill="none" xmlns="http://www.w3.org/2000/svg"><path d="M11.320 1.281 C 7.041 1.525,3.252 4.409,1.843 8.497 C 1.180 10.418,1.082 12.560,1.564 14.550 C 2.505 18.428,5.572 21.495,9.450 22.436 C 11.106 22.837,12.894 22.837,14.550 22.436 C 18.428 21.495,21.495 18.428,22.436 14.550 C 22.837 12.894,22.837 11.106,22.436 9.450 C 21.425 5.282,17.985 2.095,13.742 1.398 C 13.334 1.331,12.074 1.229,11.880 1.247 C 11.847 1.250,11.595 1.265,11.320 1.281 M13.146 2.822 C 14.201 2.960,15.125 3.237,16.060 3.696 C 18.877 5.079,20.768 7.722,21.178 10.854 C 21.301 11.786,21.244 13.026,21.034 13.998 C 20.745 15.343,20.003 16.855,19.121 17.900 C 18.247 18.935,17.240 19.726,16.060 20.304 C 14.761 20.940,13.462 21.240,12.000 21.240 C 10.538 21.240,9.236 20.940,7.940 20.304 C 5.123 18.921,3.232 16.278,2.822 13.146 C 2.699 12.214,2.756 10.974,2.966 10.002 C 3.177 9.020,3.703 7.775,4.268 6.920 C 5.750 4.677,8.131 3.188,10.820 2.823 C 11.380 2.746,12.569 2.746,13.146 2.822 M8.880 5.982 C 8.700 6.062,6.890 7.858,6.816 8.029 C 6.750 8.181,6.743 8.469,6.802 8.627 C 6.857 8.775,8.657 10.583,8.848 10.683 C 9.012 10.768,9.292 10.784,9.467 10.717 C 9.739 10.615,9.920 10.335,9.920 10.019 C 9.920 9.777,9.841 9.630,9.547 9.330 L 9.302 9.080 12.181 9.081 C 14.888 9.082,15.070 9.086,15.220 9.155 C 15.308 9.196,15.431 9.280,15.494 9.343 C 15.736 9.588,15.738 9.600,15.760 10.846 L 15.780 11.993 15.903 12.146 C 16.061 12.344,16.252 12.440,16.487 12.440 C 16.817 12.440,17.017 12.318,17.167 12.026 C 17.242 11.880,17.245 11.805,17.230 10.646 C 17.216 9.493,17.209 9.405,17.124 9.171 C 16.883 8.508,16.339 7.967,15.657 7.710 C 15.420 7.620,15.418 7.620,12.362 7.609 L 9.305 7.597 9.570 7.329 C 9.865 7.031,9.920 6.923,9.920 6.647 C 9.920 6.413,9.824 6.221,9.629 6.065 C 9.445 5.918,9.106 5.880,8.880 5.982 M7.163 11.630 C 7.087 11.669,6.970 11.769,6.903 11.854 L 6.780 12.008 6.780 13.274 C 6.780 14.493,6.783 14.550,6.872 14.808 C 7.102 15.473,7.657 16.035,8.331 16.286 L 8.580 16.379 11.638 16.391 L 14.695 16.403 14.430 16.671 C 14.135 16.969,14.080 17.077,14.080 17.353 C 14.080 17.724,14.356 18.036,14.714 18.070 C 15.086 18.106,15.141 18.067,16.175 17.045 C 16.700 16.525,17.154 16.042,17.185 15.971 C 17.250 15.819,17.257 15.530,17.198 15.373 C 17.143 15.225,15.343 13.417,15.152 13.317 C 14.988 13.232,14.708 13.216,14.533 13.283 C 14.261 13.385,14.080 13.665,14.080 13.981 C 14.080 14.224,14.159 14.370,14.454 14.671 L 14.700 14.922 11.780 14.911 C 8.570 14.899,8.765 14.914,8.505 14.655 C 8.265 14.414,8.262 14.397,8.240 13.180 C 8.219 11.978,8.211 11.935,7.994 11.733 C 7.797 11.550,7.413 11.502,7.163 11.630 " stroke="none" fill-rule="evenodd" fill="black"></path></svg>