<svg width="24" height="24" viewBox="0 0 24 24" fill="none" xmlns="http://www.w3.org/2000/svg"><path d="M13.801 2.286 C 13.400 2.404,13.186 2.779,13.285 3.193 C 13.325 3.360,13.396 3.445,13.955 3.994 L 14.580 4.607 11.539 4.584 C 9.653 4.570,8.297 4.576,7.971 4.601 C 5.672 4.776,3.654 5.986,2.382 7.953 C 2.125 8.350,1.749 9.141,1.602 9.593 C 1.040 11.320,1.158 13.274,1.920 14.872 C 2.287 15.639,2.721 16.285,3.214 16.793 C 3.515 17.103,3.640 17.171,3.900 17.171 C 4.321 17.171,4.640 16.855,4.640 16.436 C 4.640 16.207,4.561 16.054,4.293 15.760 C 3.263 14.632,2.753 13.332,2.753 11.840 C 2.753 11.172,2.832 10.667,3.035 10.049 C 3.329 9.156,3.765 8.444,4.425 7.785 C 5.259 6.951,6.136 6.472,7.380 6.172 C 7.632 6.111,8.120 6.102,12.186 6.082 L 16.713 6.060 16.866 5.936 C 16.951 5.867,17.054 5.753,17.096 5.682 C 17.191 5.520,17.196 5.185,17.106 5.011 C 17.033 4.870,14.624 2.527,14.400 2.380 C 14.232 2.268,13.990 2.231,13.801 2.286 M20.020 6.820 C 19.998 6.827,19.931 6.844,19.871 6.857 C 19.724 6.889,19.481 7.108,19.414 7.268 C 19.345 7.434,19.345 7.687,19.415 7.851 C 19.445 7.922,19.576 8.097,19.707 8.240 C 20.375 8.972,20.772 9.682,21.040 10.620 C 21.195 11.164,21.247 11.556,21.247 12.176 C 21.244 13.727,20.657 15.137,19.556 16.235 C 18.738 17.050,17.853 17.531,16.620 17.828 C 16.368 17.889,15.880 17.898,11.814 17.918 L 7.287 17.940 7.134 18.064 C 7.049 18.133,6.946 18.247,6.904 18.318 C 6.809 18.480,6.804 18.815,6.894 18.989 C 6.968 19.131,9.373 21.469,9.610 21.630 C 9.722 21.705,9.814 21.732,9.970 21.733 C 10.491 21.739,10.832 21.310,10.712 20.800 C 10.675 20.641,10.598 20.549,10.045 20.006 L 9.420 19.393 12.461 19.416 C 14.386 19.431,15.701 19.424,16.041 19.399 C 18.324 19.225,20.364 17.997,21.621 16.040 C 22.939 13.987,23.116 11.318,22.078 9.128 C 21.717 8.366,21.280 7.717,20.786 7.207 C 20.650 7.068,20.495 6.931,20.440 6.902 C 20.332 6.847,20.085 6.798,20.020 6.820 M8.815 11.278 C 8.331 11.393,8.098 12.004,8.383 12.408 C 8.447 12.499,8.572 12.610,8.660 12.656 C 8.818 12.739,8.865 12.740,11.878 12.751 C 14.020 12.759,15.000 12.749,15.151 12.718 C 15.902 12.562,15.931 11.473,15.189 11.286 C 14.979 11.234,9.033 11.226,8.815 11.278 " stroke="none" fill-rule="evenodd" fill="black"></path></svg>