<svg width="24" height="24" viewBox="0 0 24 24" fill="none" xmlns="http://www.w3.org/2000/svg"><path d="M11.611 1.281 C 10.537 1.394,9.551 2.102,9.075 3.100 C 8.880 3.509,8.801 3.809,8.772 4.262 L 8.749 4.623 8.365 4.757 C 7.111 5.192,5.750 6.084,4.873 7.048 C 3.627 8.416,2.906 9.920,2.612 11.760 C 2.566 12.050,2.547 12.635,2.532 14.223 L 2.512 16.306 2.254 16.418 C 1.947 16.552,1.569 16.904,1.428 17.188 C 1.241 17.565,1.231 17.665,1.250 19.045 C 1.265 20.214,1.275 20.371,1.353 20.660 C 1.671 21.836,2.450 22.445,3.942 22.686 C 4.332 22.749,18.480 22.782,19.400 22.722 C 21.007 22.617,21.900 22.177,22.359 21.264 C 22.626 20.732,22.680 20.398,22.707 19.120 C 22.732 17.913,22.706 17.612,22.544 17.258 C 22.406 16.957,22.058 16.601,21.744 16.442 L 21.490 16.313 21.468 14.267 C 21.445 12.170,21.425 11.872,21.256 11.106 C 20.684 8.522,18.942 6.315,16.556 5.153 C 16.261 5.009,15.847 4.832,15.635 4.759 L 15.251 4.626 15.228 4.263 C 15.185 3.593,14.958 3.013,14.530 2.475 C 13.830 1.596,12.763 1.160,11.611 1.281 M12.503 2.823 C 12.779 2.903,13.150 3.150,13.337 3.379 C 13.501 3.579,13.674 3.930,13.706 4.129 L 13.727 4.260 12.000 4.260 L 10.273 4.260 10.294 4.129 C 10.380 3.599,10.891 3.028,11.447 2.838 C 11.717 2.746,12.215 2.739,12.503 2.823 M13.512 5.802 C 15.702 6.040,17.692 7.288,18.872 9.162 C 19.244 9.753,19.620 10.658,19.782 11.353 C 19.938 12.021,19.959 12.372,19.959 14.330 L 19.960 16.240 11.980 16.240 L 4.000 16.240 4.000 14.670 C 4.001 12.882,4.040 12.178,4.178 11.521 C 4.806 8.511,7.253 6.239,10.316 5.821 C 10.794 5.755,12.966 5.743,13.512 5.802 M8.815 10.278 C 8.331 10.393,8.098 11.004,8.383 11.408 C 8.447 11.499,8.572 11.610,8.660 11.656 C 8.818 11.739,8.865 11.740,11.878 11.751 C 14.020 11.759,15.000 11.749,15.151 11.718 C 15.902 11.562,15.931 10.473,15.189 10.286 C 14.979 10.234,9.033 10.226,8.815 10.278 M21.137 17.823 C 21.244 17.929,21.253 18.063,21.226 19.057 C 21.184 20.636,21.079 20.861,20.268 21.117 L 19.940 21.220 12.142 21.231 C 3.622 21.242,3.911 21.249,3.400 21.016 C 3.083 20.871,2.933 20.709,2.832 20.401 C 2.755 20.167,2.744 20.029,2.729 19.049 C 2.714 18.092,2.720 17.945,2.777 17.859 L 2.842 17.760 11.958 17.760 C 20.189 17.760,21.080 17.766,21.137 17.823 " stroke="none" fill-rule="evenodd" fill="black"></path></svg>