<svg width="24" height="24" viewBox="0 0 24 24" fill="none" xmlns="http://www.w3.org/2000/svg"><path d="M10.620 1.268 C 10.365 1.332,10.217 1.482,8.751 3.167 C 7.909 4.133,7.198 4.973,7.172 5.032 C 7.057 5.289,7.134 5.652,7.345 5.845 C 7.542 6.025,10.875 8.440,10.983 8.481 C 11.118 8.532,11.367 8.531,11.507 8.477 C 11.649 8.424,11.828 8.256,11.909 8.101 C 11.989 7.948,11.989 7.612,11.909 7.459 C 11.818 7.285,11.707 7.193,10.780 6.518 C 9.772 5.786,9.674 5.712,9.690 5.697 C 9.719 5.667,10.586 5.508,10.998 5.457 C 13.125 5.193,15.354 5.827,16.980 7.160 C 17.307 7.429,17.957 8.083,18.214 8.403 C 19.109 9.518,19.716 11.008,19.878 12.488 C 20.097 14.506,19.470 16.674,18.212 18.239 C 17.957 18.557,17.306 19.212,16.980 19.479 C 14.637 21.399,11.289 21.782,8.543 20.444 C 7.689 20.028,7.045 19.561,6.353 18.855 C 5.680 18.169,5.310 17.652,4.899 16.820 C 3.690 14.375,3.827 11.473,5.262 9.153 C 5.502 8.766,5.555 8.578,5.503 8.304 C 5.449 8.016,5.113 7.763,4.783 7.761 C 4.510 7.759,4.306 7.892,4.101 8.202 C 3.315 9.396,2.800 10.839,2.642 12.288 C 2.588 12.787,2.588 13.853,2.642 14.352 C 2.939 17.090,4.468 19.610,6.760 21.139 C 8.021 21.981,9.488 22.517,10.968 22.678 C 11.467 22.732,12.533 22.732,13.032 22.678 C 15.770 22.381,18.290 20.852,19.819 18.560 C 20.661 17.299,21.197 15.832,21.358 14.352 C 21.412 13.853,21.412 12.787,21.358 12.288 C 21.166 10.524,20.439 8.782,19.308 7.380 C 18.996 6.994,18.284 6.285,17.900 5.978 C 16.509 4.868,14.780 4.152,13.032 3.962 C 12.232 3.875,10.907 3.927,10.140 4.075 C 10.030 4.096,9.937 4.110,9.933 4.106 C 9.929 4.102,10.232 3.748,10.606 3.320 C 10.981 2.891,11.333 2.472,11.389 2.390 C 11.598 2.082,11.498 1.613,11.176 1.393 C 11.020 1.286,10.771 1.230,10.620 1.268 " stroke="none" fill-rule="evenodd" fill="black"></path></svg>