<svg width="24" height="24" viewBox="0 0 24 24" fill="none" xmlns="http://www.w3.org/2000/svg"><path d="M14.815 1.278 C 14.433 1.369,14.180 1.790,14.281 2.165 C 14.328 2.340,15.355 4.078,15.516 4.255 C 15.800 4.569,16.374 4.549,16.636 4.216 C 16.745 4.078,16.813 3.818,16.786 3.649 C 16.774 3.576,16.696 3.395,16.612 3.248 C 16.528 3.100,16.454 2.966,16.446 2.948 C 16.410 2.865,17.261 3.154,17.739 3.388 C 18.977 3.993,19.960 4.966,20.582 6.203 C 20.991 7.019,21.172 7.709,21.237 8.709 C 21.266 9.142,21.288 9.263,21.359 9.378 C 21.612 9.787,22.183 9.857,22.520 9.520 C 22.731 9.309,22.765 9.119,22.717 8.441 C 22.547 6.048,21.284 3.881,19.277 2.542 C 18.604 2.094,17.745 1.710,16.947 1.503 C 16.288 1.332,15.110 1.207,14.815 1.278 M6.556 6.282 C 4.829 6.375,3.559 6.842,2.701 7.701 C 1.820 8.581,1.383 9.797,1.280 11.651 C 1.230 12.543,1.230 16.457,1.280 17.349 C 1.383 19.203,1.820 20.419,2.701 21.299 C 3.581 22.180,4.797 22.617,6.651 22.720 C 7.543 22.770,11.457 22.770,12.349 22.720 C 14.203 22.617,15.419 22.180,16.299 21.299 C 17.180 20.419,17.617 19.203,17.720 17.349 C 17.770 16.457,17.770 12.543,17.720 11.651 C 17.617 9.797,17.180 8.581,16.299 7.701 C 15.419 6.820,14.203 6.383,12.349 6.280 C 11.562 6.236,7.374 6.237,6.556 6.282 M13.254 7.853 C 15.119 8.235,15.830 8.974,16.167 10.880 C 16.244 11.315,16.244 17.685,16.167 18.120 C 15.824 20.062,15.062 20.824,13.120 21.167 C 12.685 21.244,6.315 21.244,5.880 21.167 C 3.938 20.824,3.176 20.062,2.833 18.120 C 2.792 17.887,2.780 17.078,2.780 14.500 C 2.780 10.964,2.779 10.993,2.982 10.209 C 3.376 8.692,4.343 7.990,6.320 7.785 C 6.397 7.777,7.918 7.775,9.700 7.780 C 12.493 7.787,12.983 7.798,13.254 7.853 " stroke="none" fill-rule="evenodd" fill="black"></path></svg>