<svg width="24" height="24" viewBox="0 0 24 24" fill="none" xmlns="http://www.w3.org/2000/svg"><path d="M13.051 1.278 C 12.588 1.392,12.346 1.998,12.608 2.385 C 12.666 2.470,13.019 2.891,13.394 3.320 C 13.768 3.748,14.071 4.103,14.067 4.107 C 14.062 4.111,13.933 4.091,13.780 4.062 C 12.846 3.886,11.331 3.877,10.400 4.040 C 6.456 4.732,3.425 7.769,2.715 11.740 C 2.633 12.198,2.622 12.386,2.622 13.320 C 2.622 14.254,2.633 14.442,2.715 14.900 C 3.494 19.257,7.033 22.441,11.402 22.718 C 16.215 23.022,20.444 19.684,21.280 14.920 C 21.392 14.281,21.433 13.006,21.362 12.352 C 21.244 11.265,20.955 10.236,20.509 9.309 C 20.204 8.677,19.844 8.084,19.681 7.947 C 19.320 7.644,18.768 7.752,18.556 8.167 C 18.420 8.435,18.459 8.715,18.687 9.084 C 19.481 10.374,19.854 11.583,19.908 13.040 C 20.043 16.763,17.579 20.072,13.978 21.000 C 12.731 21.322,11.269 21.322,10.022 21.000 C 7.761 20.418,5.874 18.862,4.855 16.740 C 3.807 14.560,3.823 11.995,4.899 9.820 C 5.683 8.235,6.915 7.003,8.500 6.219 C 10.146 5.405,11.923 5.200,13.879 5.600 C 14.110 5.647,14.304 5.691,14.312 5.698 C 14.319 5.705,13.869 6.045,13.312 6.452 C 12.115 7.327,12.086 7.355,12.026 7.675 C 11.971 7.965,12.185 8.348,12.468 8.466 C 12.620 8.529,12.872 8.536,13.018 8.481 C 13.125 8.440,16.456 6.026,16.655 5.845 C 16.866 5.653,16.943 5.289,16.828 5.032 C 16.743 4.841,13.730 1.414,13.589 1.348 C 13.416 1.266,13.208 1.239,13.051 1.278 " stroke="none" fill-rule="evenodd" fill="black"></path></svg>