<svg width="24" height="24" viewBox="0 0 24 24" fill="none" xmlns="http://www.w3.org/2000/svg"><path d="M8.080 1.282 C 4.008 1.495,1.895 3.296,1.383 6.991 C 1.270 7.803,1.242 8.816,1.242 12.000 C 1.242 16.504,1.302 17.273,1.760 18.650 C 2.532 20.963,4.206 22.226,7.027 22.622 C 7.786 22.728,8.902 22.759,12.000 22.759 C 15.098 22.759,16.214 22.728,16.973 22.622 C 19.443 22.275,20.996 21.288,21.897 19.490 C 22.379 18.530,22.638 17.369,22.720 15.807 C 22.771 14.838,22.771 9.162,22.720 8.193 C 22.657 6.998,22.521 6.191,22.242 5.356 C 21.632 3.531,20.469 2.367,18.650 1.760 C 17.788 1.473,17.023 1.344,15.806 1.280 C 14.952 1.235,8.952 1.237,8.080 1.282 M16.800 2.854 C 19.586 3.316,20.714 4.454,21.148 7.240 C 21.214 7.661,21.220 8.064,21.220 12.000 C 21.220 15.936,21.214 16.339,21.148 16.760 C 20.712 19.558,19.558 20.712,16.760 21.148 C 16.339 21.214,15.936 21.220,12.000 21.220 C 8.064 21.220,7.661 21.214,7.240 21.148 C 4.450 20.713,3.283 19.551,2.854 16.780 C 2.785 16.335,2.780 15.989,2.780 12.000 C 2.780 7.247,2.776 7.337,3.044 6.288 C 3.557 4.282,4.722 3.274,6.960 2.900 C 7.690 2.777,8.048 2.769,12.200 2.777 C 15.963 2.784,16.422 2.791,16.800 2.854 M15.260 5.825 C 14.917 5.875,14.441 6.017,10.880 7.125 C 8.519 7.860,6.904 8.383,6.720 8.472 C 6.335 8.660,5.878 9.102,5.657 9.499 C 5.270 10.198,5.209 11.054,5.491 11.820 C 5.630 12.197,5.967 12.659,6.277 12.898 C 6.620 13.161,6.837 13.255,8.155 13.706 C 8.829 13.937,9.446 14.171,9.527 14.226 C 9.608 14.281,9.719 14.392,9.774 14.473 C 9.854 14.590,10.374 16.023,10.640 16.860 C 10.872 17.591,11.446 18.209,12.160 18.497 C 12.626 18.685,13.300 18.735,13.800 18.618 C 14.553 18.442,15.208 17.919,15.555 17.216 C 15.646 17.032,17.526 11.063,18.062 9.260 C 18.316 8.403,18.137 7.487,17.580 6.792 C 17.252 6.383,16.712 6.038,16.187 5.903 C 15.933 5.838,15.451 5.797,15.260 5.825 M15.939 7.390 C 16.076 7.433,16.200 7.515,16.343 7.657 C 16.598 7.913,16.697 8.174,16.672 8.534 C 16.660 8.710,16.316 9.871,15.463 12.620 C 14.807 14.732,14.245 16.509,14.214 16.569 C 13.831 17.320,12.739 17.411,12.240 16.733 C 12.167 16.634,11.978 16.143,11.707 15.351 C 11.475 14.676,11.227 14.010,11.155 13.871 C 10.981 13.539,10.462 13.020,10.131 12.847 C 9.995 12.775,9.329 12.528,8.651 12.296 C 7.974 12.065,7.354 11.831,7.273 11.775 C 6.736 11.404,6.644 10.565,7.085 10.064 C 7.175 9.961,7.315 9.844,7.395 9.803 C 7.561 9.720,15.074 7.372,15.331 7.324 C 15.525 7.287,15.659 7.302,15.939 7.390 " stroke="none" fill-rule="evenodd" fill="black"></path></svg>