<svg width="24" height="24" viewBox="0 0 24 24" fill="none" xmlns="http://www.w3.org/2000/svg"><path d="M5.029 1.285 C 3.611 1.420,2.331 2.305,1.679 3.600 C 1.382 4.190,1.240 4.806,1.240 5.500 C 1.240 6.616,1.628 7.602,2.380 8.395 C 3.306 9.372,4.520 9.832,5.864 9.716 C 7.689 9.558,9.233 8.187,9.623 6.380 C 9.717 5.945,9.717 5.055,9.623 4.620 C 9.166 2.501,7.205 1.077,5.029 1.285 M6.320 2.873 C 6.716 3.002,7.066 3.227,7.423 3.580 C 7.679 3.834,7.781 3.972,7.913 4.240 C 8.144 4.712,8.205 4.977,8.205 5.500 C 8.205 6.027,8.143 6.293,7.911 6.760 C 7.780 7.024,7.670 7.171,7.421 7.420 C 6.862 7.977,6.374 8.196,5.614 8.230 C 5.063 8.254,4.708 8.184,4.236 7.956 C 3.965 7.824,3.837 7.728,3.538 7.428 C 3.241 7.130,3.140 6.995,3.005 6.720 C 2.622 5.938,2.622 5.062,3.005 4.280 C 3.140 4.005,3.241 3.871,3.536 3.575 C 3.940 3.170,4.270 2.973,4.775 2.837 C 5.164 2.732,5.940 2.750,6.320 2.873 M11.815 4.278 C 11.331 4.393,11.098 5.004,11.383 5.408 C 11.447 5.499,11.572 5.610,11.660 5.656 C 11.813 5.736,11.896 5.741,13.440 5.760 C 15.026 5.780,15.064 5.782,15.229 5.870 C 15.674 6.108,15.886 6.443,15.913 6.950 C 15.929 7.260,15.922 7.299,15.803 7.540 C 15.679 7.793,15.579 7.883,11.562 11.398 C 9.299 13.378,7.355 15.102,7.242 15.229 C 7.009 15.489,6.751 15.982,6.660 16.338 C 6.574 16.680,6.582 17.317,6.677 17.690 C 6.856 18.388,7.300 18.987,7.909 19.352 C 8.257 19.561,8.584 19.668,9.026 19.719 C 9.511 19.774,11.900 19.772,12.162 19.716 C 12.828 19.573,12.943 18.639,12.332 18.336 C 12.193 18.266,12.045 18.258,10.560 18.240 L 8.940 18.220 8.725 18.101 C 8.186 17.803,7.942 17.133,8.159 16.551 C 8.216 16.400,8.311 16.269,8.489 16.095 C 8.627 15.961,10.540 14.277,12.740 12.353 C 16.379 9.172,16.759 8.828,16.947 8.549 C 17.190 8.189,17.306 7.900,17.387 7.460 C 17.544 6.607,17.235 5.660,16.596 5.033 C 16.159 4.605,15.595 4.344,14.961 4.277 C 14.555 4.235,11.994 4.235,11.815 4.278 M5.182 4.549 C 5.033 4.587,4.799 4.762,4.683 4.923 C 4.352 5.379,4.485 6.040,4.968 6.345 C 5.191 6.486,5.599 6.522,5.856 6.424 C 6.232 6.280,6.478 5.915,6.478 5.500 C 6.478 4.935,6.058 4.517,5.500 4.526 C 5.368 4.528,5.225 4.538,5.182 4.549 M16.620 14.278 C 15.523 14.418,14.592 15.238,14.319 16.304 C 14.246 16.590,14.240 16.753,14.240 18.500 C 14.240 20.247,14.246 20.410,14.319 20.696 C 14.557 21.628,15.320 22.394,16.281 22.666 C 16.516 22.733,16.717 22.740,18.460 22.740 C 20.168 22.740,20.409 22.732,20.640 22.670 C 21.585 22.414,22.348 21.671,22.624 20.738 C 22.685 20.530,22.696 20.268,22.710 18.645 C 22.723 17.052,22.716 16.743,22.660 16.465 C 22.496 15.640,21.932 14.906,21.180 14.538 C 20.633 14.270,20.610 14.268,18.640 14.257 C 17.661 14.252,16.752 14.261,16.620 14.278 M20.512 15.872 C 20.757 16.003,20.992 16.253,21.114 16.514 L 21.220 16.740 21.220 18.500 L 21.220 20.260 21.114 20.486 C 20.992 20.747,20.757 20.997,20.512 21.128 C 20.341 21.219,20.329 21.220,18.545 21.232 C 16.499 21.245,16.509 21.246,16.159 20.931 C 16.047 20.831,15.907 20.657,15.848 20.544 L 15.740 20.340 15.740 18.500 L 15.740 16.660 15.848 16.456 C 15.980 16.206,16.303 15.907,16.531 15.825 C 16.674 15.774,16.981 15.766,18.520 15.772 C 20.334 15.780,20.341 15.780,20.512 15.872 M18.182 17.549 C 18.033 17.587,17.799 17.762,17.683 17.923 C 17.352 18.379,17.485 19.040,17.968 19.345 C 18.191 19.486,18.599 19.522,18.856 19.424 C 19.232 19.280,19.478 18.915,19.478 18.500 C 19.478 17.935,19.058 17.517,18.500 17.526 C 18.368 17.528,18.225 17.538,18.182 17.549 " stroke="none" fill-rule="evenodd" fill="black"></path></svg>