<svg width="24" height="24" viewBox="0 0 24 24" fill="none" xmlns="http://www.w3.org/2000/svg"><path d="M4.585 1.340 C 3.099 1.648,1.935 2.636,1.479 3.978 C 1.162 4.908,1.158 5.948,1.467 6.937 C 1.599 7.361,1.938 8.038,2.246 8.494 C 2.755 9.246,3.566 10.094,4.041 10.371 C 4.869 10.853,5.964 10.864,6.839 10.397 C 7.465 10.063,8.420 9.008,8.978 8.032 C 9.686 6.795,9.882 5.530,9.558 4.300 C 9.178 2.857,8.116 1.809,6.620 1.398 C 6.204 1.284,5.018 1.250,4.585 1.340 M6.132 2.823 C 6.290 2.858,6.591 2.970,6.799 3.071 C 7.477 3.403,7.926 3.957,8.125 4.708 C 8.229 5.104,8.238 5.778,8.144 6.175 C 7.949 6.996,7.460 7.804,6.667 8.616 C 6.204 9.090,5.989 9.207,5.540 9.231 C 5.054 9.257,4.835 9.160,4.385 8.724 C 3.738 8.097,3.262 7.435,2.998 6.796 C 2.819 6.362,2.760 6.104,2.733 5.639 C 2.651 4.226,3.478 3.119,4.840 2.817 C 5.159 2.746,5.795 2.749,6.132 2.823 M11.815 4.278 C 11.331 4.393,11.098 5.004,11.383 5.408 C 11.447 5.499,11.572 5.610,11.660 5.656 C 11.813 5.736,11.896 5.741,13.440 5.760 C 15.026 5.780,15.064 5.782,15.229 5.870 C 15.674 6.108,15.886 6.443,15.913 6.950 C 15.929 7.260,15.922 7.299,15.803 7.540 C 15.679 7.793,15.579 7.883,11.562 11.398 C 9.299 13.378,7.355 15.102,7.242 15.229 C 7.009 15.489,6.751 15.982,6.660 16.338 C 6.574 16.680,6.582 17.317,6.677 17.690 C 6.856 18.388,7.300 18.987,7.909 19.352 C 8.257 19.561,8.584 19.668,9.026 19.719 C 9.511 19.774,11.900 19.772,12.162 19.716 C 12.828 19.573,12.943 18.639,12.332 18.336 C 12.193 18.266,12.045 18.258,10.560 18.240 L 8.940 18.220 8.725 18.101 C 8.186 17.803,7.942 17.133,8.159 16.551 C 8.216 16.400,8.311 16.269,8.489 16.095 C 8.627 15.961,10.540 14.277,12.740 12.353 C 16.379 9.172,16.759 8.828,16.947 8.549 C 17.592 7.591,17.590 6.464,16.941 5.440 C 16.774 5.176,16.402 4.829,16.092 4.646 C 15.738 4.437,15.384 4.322,14.961 4.277 C 14.555 4.235,11.994 4.235,11.815 4.278 M5.182 4.549 C 5.033 4.587,4.799 4.762,4.683 4.923 C 4.352 5.379,4.485 6.040,4.968 6.345 C 5.191 6.486,5.599 6.522,5.856 6.424 C 6.232 6.280,6.478 5.915,6.478 5.500 C 6.478 4.935,6.058 4.517,5.500 4.526 C 5.368 4.528,5.225 4.538,5.182 4.549 M17.620 13.339 C 16.153 13.608,14.937 14.629,14.479 15.976 C 14.162 16.909,14.158 17.952,14.467 18.937 C 14.853 20.163,16.120 21.832,17.088 22.390 C 17.544 22.652,18.252 22.788,18.821 22.721 C 19.549 22.636,19.969 22.425,20.575 21.840 C 21.307 21.133,21.817 20.459,22.193 19.700 C 22.598 18.883,22.733 18.320,22.733 17.460 C 22.732 16.811,22.684 16.512,22.485 15.936 C 22.038 14.638,20.871 13.652,19.437 13.359 C 18.979 13.266,18.072 13.256,17.620 13.339 M19.407 14.890 C 20.571 15.268,21.243 16.199,21.249 17.440 C 21.253 18.488,20.778 19.478,19.768 20.526 C 19.163 21.153,19.041 21.220,18.500 21.220 C 17.962 21.220,17.823 21.151,17.299 20.624 C 16.783 20.105,16.418 19.611,16.142 19.060 C 15.869 18.514,15.761 18.135,15.732 17.618 C 15.654 16.241,16.489 15.119,17.816 14.817 C 18.208 14.728,19.024 14.765,19.407 14.890 M18.182 16.549 C 18.033 16.587,17.799 16.762,17.683 16.923 C 17.352 17.379,17.485 18.040,17.968 18.345 C 18.191 18.486,18.599 18.522,18.856 18.424 C 19.232 18.280,19.478 17.915,19.478 17.500 C 19.478 16.935,19.058 16.517,18.500 16.526 C 18.368 16.528,18.225 16.538,18.182 16.549 " stroke="none" fill-rule="evenodd" fill="black"></path></svg>