<svg width="24" height="24" viewBox="0 0 24 24" fill="none" xmlns="http://www.w3.org/2000/svg"><path d="M3.660 1.280 C 2.377 1.395,1.621 2.047,1.338 3.280 C 1.279 3.539,1.267 3.892,1.251 5.854 C 1.227 8.872,1.259 9.248,1.607 9.960 C 1.900 10.561,2.406 10.953,3.140 11.146 C 3.408 11.217,3.787 11.220,12.000 11.220 C 20.213 11.220,20.592 11.217,20.860 11.146 C 22.004 10.845,22.599 10.062,22.720 8.700 C 22.771 8.133,22.771 4.401,22.720 3.800 C 22.626 2.684,22.210 1.944,21.474 1.585 C 21.104 1.404,20.807 1.327,20.300 1.280 C 19.833 1.236,4.144 1.237,3.660 1.280 M20.563 2.824 C 20.961 2.943,21.109 3.119,21.199 3.581 C 21.270 3.949,21.236 8.926,21.161 9.131 C 21.065 9.393,20.862 9.591,20.607 9.670 C 20.394 9.736,19.881 9.740,12.000 9.740 C 4.207 9.740,3.605 9.735,3.399 9.672 C 3.139 9.591,2.955 9.418,2.852 9.160 C 2.787 8.995,2.780 8.763,2.768 6.400 C 2.755 3.715,2.765 3.504,2.923 3.194 C 3.015 3.013,3.159 2.907,3.421 2.827 C 3.597 2.773,4.598 2.765,11.983 2.763 C 19.563 2.760,20.366 2.766,20.563 2.824 M3.420 12.804 C 2.274 12.973,1.597 13.626,1.333 14.820 C 1.282 15.049,1.267 15.517,1.252 17.374 C 1.231 19.804,1.258 20.444,1.402 20.959 C 1.592 21.641,1.986 22.152,2.526 22.415 C 2.896 22.596,3.193 22.673,3.700 22.720 C 4.229 22.769,19.771 22.769,20.300 22.720 C 20.807 22.673,21.104 22.596,21.474 22.415 C 22.210 22.056,22.626 21.316,22.720 20.200 C 22.771 19.599,22.771 15.867,22.720 15.300 C 22.600 13.947,22.020 13.177,20.880 12.854 C 20.632 12.784,20.238 12.781,12.140 12.775 C 7.416 12.772,3.554 12.785,3.420 12.804 M20.628 14.331 C 20.861 14.411,21.071 14.622,21.161 14.869 C 21.236 15.074,21.270 20.051,21.199 20.419 C 21.109 20.881,20.961 21.057,20.563 21.176 C 20.366 21.234,19.559 21.240,12.000 21.240 C 4.441 21.240,3.634 21.234,3.437 21.176 C 3.160 21.093,3.017 20.991,2.923 20.806 C 2.765 20.496,2.755 20.285,2.768 17.600 C 2.780 15.237,2.787 15.005,2.852 14.840 C 2.985 14.506,3.215 14.346,3.680 14.267 C 3.735 14.258,7.524 14.253,12.100 14.255 C 19.949 14.260,20.432 14.264,20.628 14.331 " stroke="none" fill-rule="evenodd" fill="black"></path></svg>