<svg width="24" height="24" viewBox="0 0 24 24" fill="none" xmlns="http://www.w3.org/2000/svg"><path d="M3.714 1.282 C 2.692 1.373,1.931 1.818,1.585 2.526 C 1.404 2.896,1.327 3.193,1.280 3.700 C 1.231 4.229,1.231 19.771,1.280 20.300 C 1.384 21.424,1.834 22.114,2.700 22.476 C 3.287 22.722,3.363 22.728,5.852 22.749 C 8.280 22.769,8.924 22.742,9.439 22.598 C 10.342 22.346,10.906 21.772,11.146 20.860 C 11.217 20.592,11.220 20.213,11.220 12.000 C 11.220 3.787,11.217 3.408,11.146 3.140 C 10.953 2.406,10.561 1.900,9.960 1.607 C 9.539 1.401,9.264 1.330,8.700 1.280 C 8.191 1.235,4.228 1.236,3.714 1.282 M15.236 1.282 C 13.946 1.397,13.150 2.018,12.854 3.140 C 12.783 3.408,12.780 3.787,12.780 12.000 C 12.780 20.213,12.783 20.592,12.854 20.860 C 13.047 21.594,13.439 22.100,14.040 22.393 C 14.461 22.599,14.736 22.670,15.300 22.720 C 15.867 22.771,19.599 22.771,20.200 22.720 C 21.316 22.626,22.056 22.210,22.415 21.474 C 22.596 21.104,22.673 20.807,22.720 20.300 C 22.769 19.771,22.769 4.229,22.720 3.700 C 22.673 3.193,22.596 2.896,22.415 2.526 C 22.059 1.796,21.323 1.378,20.220 1.280 C 19.712 1.235,15.748 1.236,15.236 1.282 M9.131 2.839 C 9.393 2.935,9.591 3.138,9.670 3.393 C 9.736 3.606,9.740 4.119,9.740 12.000 C 9.740 19.881,9.736 20.394,9.670 20.607 C 9.591 20.862,9.393 21.065,9.131 21.161 C 8.926 21.236,3.949 21.270,3.581 21.199 C 3.119 21.109,2.943 20.961,2.824 20.563 C 2.766 20.366,2.760 19.559,2.760 12.000 C 2.760 4.441,2.766 3.634,2.824 3.437 C 2.938 3.056,3.085 2.920,3.500 2.815 C 3.802 2.739,8.918 2.761,9.131 2.839 M20.448 2.805 C 20.888 2.898,21.060 3.047,21.176 3.437 C 21.234 3.634,21.240 4.441,21.240 12.000 C 21.240 19.559,21.234 20.366,21.176 20.563 C 21.057 20.961,20.881 21.109,20.419 21.199 C 20.051 21.270,15.074 21.236,14.869 21.161 C 14.607 21.065,14.409 20.862,14.330 20.607 C 14.264 20.394,14.260 19.882,14.260 12.020 C 14.260 5.028,14.269 3.625,14.315 3.444 C 14.410 3.077,14.672 2.863,15.120 2.788 C 15.368 2.746,20.245 2.762,20.448 2.805 " stroke="none" fill-rule="evenodd" fill="black"></path></svg>