<svg width="24" height="24" viewBox="0 0 24 24" fill="none" xmlns="http://www.w3.org/2000/svg"><path d="M4.498 6.281 C 2.998 6.407,1.968 7.126,1.517 8.362 C 1.268 9.045,1.260 9.155,1.260 12.000 C 1.260 14.284,1.268 14.622,1.330 14.948 C 1.577 16.253,2.308 17.134,3.460 17.515 C 4.164 17.748,3.852 17.740,12.000 17.740 C 20.148 17.740,19.836 17.748,20.540 17.515 C 21.692 17.134,22.423 16.253,22.670 14.948 C 22.732 14.622,22.740 14.284,22.740 12.000 C 22.740 9.716,22.732 9.378,22.670 9.052 C 22.431 7.786,21.735 6.917,20.639 6.517 C 19.907 6.250,20.432 6.266,12.260 6.258 C 8.190 6.253,4.697 6.264,4.498 6.281 M5.248 9.490 L 5.260 11.220 5.353 11.369 C 5.710 11.943,6.576 11.812,6.716 11.162 C 6.744 11.031,6.760 10.374,6.760 9.358 L 6.760 7.760 8.023 7.760 L 9.287 7.760 9.275 9.992 L 9.263 12.224 9.354 12.371 C 9.709 12.945,10.576 12.812,10.716 12.162 C 10.744 12.032,10.760 11.387,10.760 10.404 C 10.760 9.551,10.772 8.607,10.786 8.306 L 10.812 7.760 12.024 7.760 L 13.235 7.760 13.247 8.990 C 13.260 10.196,13.262 10.223,13.353 10.369 C 13.710 10.943,14.576 10.812,14.716 10.162 C 14.742 10.040,14.760 9.509,14.760 8.858 L 14.760 7.760 15.998 7.760 L 17.237 7.760 17.248 9.990 L 17.260 12.220 17.353 12.369 C 17.710 12.943,18.576 12.812,18.716 12.162 C 18.745 12.027,18.760 11.239,18.760 9.858 L 18.760 7.760 19.130 7.761 C 20.290 7.763,20.975 8.251,21.180 9.220 C 21.267 9.633,21.267 14.367,21.180 14.780 C 21.017 15.553,20.552 16.016,19.773 16.181 C 19.359 16.269,4.637 16.267,4.220 16.180 C 3.447 16.017,2.984 15.552,2.819 14.773 C 2.734 14.372,2.734 9.628,2.819 9.227 C 3.026 8.251,3.689 7.773,4.848 7.763 L 5.236 7.760 5.248 9.490 " stroke="none" fill-rule="evenodd" fill="black"></path></svg>