<svg width="24" height="24" viewBox="0 0 24 24" fill="none" xmlns="http://www.w3.org/2000/svg"><path d="M5.120 1.280 C 3.473 1.440,2.109 2.717,1.837 4.355 C 1.814 4.489,1.800 7.361,1.800 11.429 C 1.801 17.384,1.809 18.316,1.861 18.569 C 1.942 18.957,2.065 19.328,2.209 19.617 C 2.407 20.012,3.286 21.429,3.490 21.681 C 4.212 22.572,5.326 22.921,6.296 22.558 C 6.793 22.372,7.356 21.899,7.713 21.367 C 8.017 20.916,8.754 19.655,8.854 19.415 C 9.008 19.048,9.111 18.643,9.160 18.208 C 9.191 17.935,9.200 15.844,9.190 11.140 C 9.177 4.954,9.171 4.439,9.106 4.170 C 8.660 2.315,6.984 1.100,5.120 1.280 M13.948 1.284 C 12.092 1.437,10.987 2.503,10.761 4.359 C 10.704 4.826,10.704 19.174,10.761 19.641 C 10.926 20.996,11.546 21.918,12.614 22.397 C 12.982 22.563,13.468 22.674,14.020 22.719 C 14.635 22.770,18.270 22.770,18.900 22.720 C 20.526 22.589,21.560 21.855,21.993 20.520 C 22.207 19.863,22.200 20.149,22.200 12.000 C 22.200 3.851,22.207 4.137,21.993 3.480 C 21.561 2.150,20.526 1.412,18.906 1.278 C 18.369 1.234,14.501 1.238,13.948 1.284 M6.061 2.822 C 6.769 3.006,7.434 3.671,7.618 4.379 C 7.664 4.556,7.680 4.824,7.680 5.428 L 7.680 6.240 5.480 6.240 L 3.280 6.240 3.280 5.485 C 3.280 5.070,3.298 4.634,3.321 4.515 C 3.417 4.002,3.850 3.382,4.322 3.079 C 4.781 2.784,5.506 2.677,6.061 2.822 M19.260 2.820 C 20.087 2.995,20.540 3.499,20.679 4.400 C 20.734 4.756,20.734 19.244,20.679 19.600 C 20.540 20.501,20.087 21.005,19.260 21.180 C 18.849 21.266,14.112 21.267,13.704 21.180 C 12.720 20.972,12.302 20.406,12.219 19.172 L 12.192 18.764 13.926 18.752 L 15.660 18.740 15.840 18.634 C 16.326 18.348,16.326 17.652,15.840 17.366 L 15.660 17.260 13.930 17.248 L 12.200 17.236 12.200 15.975 L 12.200 14.713 14.432 14.725 L 16.664 14.737 16.842 14.632 C 17.326 14.349,17.325 13.651,16.840 13.366 L 16.660 13.260 14.560 13.235 C 13.405 13.221,12.402 13.207,12.330 13.205 L 12.200 13.200 12.200 11.983 L 12.200 10.765 13.430 10.753 C 14.657 10.740,14.660 10.740,14.834 10.640 C 15.326 10.359,15.326 9.641,14.834 9.360 C 14.660 9.260,14.657 9.260,13.430 9.247 L 12.200 9.235 12.200 7.999 L 12.200 6.763 14.430 6.752 L 16.660 6.740 16.834 6.640 C 17.324 6.360,17.328 5.653,16.840 5.366 L 16.660 5.260 14.425 5.248 L 12.191 5.237 12.218 4.848 C 12.293 3.808,12.565 3.282,13.176 2.996 C 13.658 2.771,13.713 2.767,16.460 2.764 C 18.536 2.762,19.029 2.772,19.260 2.820 M7.671 13.050 L 7.660 18.340 7.558 18.626 C 7.415 19.028,6.516 20.515,6.229 20.824 C 5.744 21.345,5.204 21.342,4.722 20.815 C 4.445 20.511,3.553 19.015,3.412 18.618 L 3.300 18.300 3.289 13.030 L 3.279 7.760 5.480 7.760 L 7.681 7.760 7.671 13.050 " stroke="none" fill-rule="evenodd" fill="black"></path></svg>