<svg width="24" height="24" viewBox="0 0 24 24" fill="none" xmlns="http://www.w3.org/2000/svg"><path d="M10.740 1.699 C 10.360 1.769,9.990 1.898,9.688 2.066 C 9.403 2.225,2.796 7.478,2.407 7.855 C 1.638 8.602,1.159 9.910,1.278 10.941 C 1.371 11.741,2.604 18.959,2.693 19.221 C 2.920 19.887,3.313 20.442,3.870 20.885 C 4.503 21.389,5.104 21.643,5.834 21.718 C 6.098 21.745,7.839 21.760,10.614 21.760 L 14.980 21.761 15.330 22.098 C 15.891 22.638,16.588 23.106,17.245 23.386 C 18.154 23.772,18.591 23.819,19.260 23.603 C 20.899 23.073,22.282 21.870,23.079 20.282 C 23.458 19.528,23.649 18.840,23.718 17.982 C 23.771 17.330,23.771 15.508,23.718 15.140 C 23.645 14.633,23.317 14.095,22.916 13.825 C 22.805 13.750,22.413 13.566,22.047 13.417 C 21.680 13.268,21.374 13.141,21.366 13.136 C 21.358 13.130,21.427 12.679,21.520 12.133 C 21.730 10.887,21.756 10.436,21.649 9.920 C 21.489 9.154,21.103 8.391,20.639 7.923 C 20.348 7.629,13.919 2.488,13.470 2.190 C 12.912 1.819,12.244 1.637,11.466 1.644 C 11.221 1.646,10.894 1.670,10.740 1.699 M11.980 3.180 C 12.134 3.213,12.368 3.293,12.500 3.359 C 12.652 3.435,13.995 4.482,16.179 6.229 C 19.925 9.226,19.791 9.105,20.038 9.727 C 20.273 10.322,20.278 10.468,20.099 11.563 C 19.969 12.362,19.932 12.522,19.881 12.507 C 19.848 12.497,19.658 12.439,19.460 12.378 C 19.145 12.281,19.032 12.267,18.560 12.265 C 18.113 12.262,17.966 12.277,17.704 12.352 C 17.386 12.444,14.711 13.524,14.340 13.710 C 13.884 13.941,13.447 14.569,13.361 15.120 C 13.308 15.460,13.308 17.326,13.362 17.982 C 13.422 18.726,13.580 19.361,13.878 20.056 L 13.957 20.240 9.915 20.240 C 6.301 20.240,5.848 20.233,5.646 20.175 C 4.921 19.966,4.276 19.341,4.084 18.660 C 3.983 18.301,2.760 10.829,2.760 10.569 C 2.760 10.067,3.011 9.401,3.334 9.048 C 3.618 8.737,10.235 3.467,10.497 3.343 C 10.949 3.129,11.467 3.072,11.980 3.180 M19.003 13.824 C 19.122 13.859,19.850 14.140,20.620 14.448 C 21.703 14.881,22.046 15.035,22.133 15.128 L 22.246 15.248 22.231 16.774 C 22.216 18.274,22.214 18.307,22.110 18.691 C 21.707 20.181,20.523 21.515,19.102 22.079 C 18.665 22.253,18.535 22.265,18.216 22.162 C 16.529 21.617,15.168 19.992,14.898 18.200 C 14.858 17.933,14.840 17.452,14.840 16.586 C 14.840 15.215,14.852 15.140,15.093 15.026 C 15.392 14.885,17.725 13.939,17.980 13.855 C 18.316 13.745,18.696 13.734,19.003 13.824 " stroke="none" fill-rule="evenodd" fill="black"></path></svg>