<svg width="24" height="24" viewBox="0 0 24 24" fill="none" xmlns="http://www.w3.org/2000/svg"><path d="M11.815 2.278 C 11.331 2.393,11.098 3.004,11.383 3.408 C 11.447 3.499,11.572 3.610,11.660 3.656 C 11.818 3.739,11.865 3.740,15.490 3.760 L 19.160 3.780 15.580 7.360 L 12.000 10.939 9.510 8.454 C 8.141 7.087,6.975 5.946,6.920 5.918 C 6.865 5.890,6.718 5.867,6.592 5.867 C 6.321 5.867,6.103 5.989,5.958 6.223 C 5.853 6.393,5.832 6.753,5.918 6.920 C 5.946 6.975,7.087 8.141,8.454 9.510 L 10.939 12.000 6.632 16.310 C 3.526 19.418,2.316 20.653,2.294 20.740 C 2.134 21.349,2.583 21.836,3.189 21.712 C 3.375 21.673,3.496 21.556,7.690 17.367 L 12.000 13.061 14.510 15.567 C 16.927 17.980,17.027 18.073,17.210 18.111 C 17.790 18.231,18.231 17.790,18.111 17.210 C 18.073 17.027,17.980 16.927,15.566 14.510 L 13.061 11.999 16.640 8.420 L 20.220 4.840 20.240 8.530 L 20.260 12.220 20.353 12.369 C 20.710 12.943,21.576 12.812,21.716 12.162 C 21.747 12.019,21.760 10.581,21.760 7.417 C 21.760 3.410,21.753 2.860,21.698 2.729 C 21.616 2.532,21.494 2.405,21.300 2.316 C 21.147 2.245,20.932 2.242,16.540 2.245 C 14.010 2.247,11.884 2.262,11.815 2.278 " stroke="none" fill-rule="evenodd" fill="black"></path></svg>