<svg width="24" height="24" viewBox="0 0 24 24" fill="none" xmlns="http://www.w3.org/2000/svg"><path d="M10.700 1.284 C 9.424 1.419,8.312 2.177,7.700 3.330 C 7.501 3.704,7.336 4.231,7.301 4.606 C 7.287 4.746,7.267 4.918,7.256 4.990 L 7.236 5.120 6.202 5.120 C 4.596 5.120,4.024 5.211,3.330 5.580 C 2.132 6.216,1.410 7.311,1.278 8.693 C 1.250 8.994,1.240 11.048,1.248 14.980 L 1.261 20.820 1.348 21.126 C 1.731 22.477,2.837 23.045,4.178 22.579 C 4.331 22.526,5.416 21.948,6.589 21.295 L 8.722 20.108 9.000 20.108 L 9.278 20.108 11.411 21.295 C 12.584 21.948,13.669 22.526,13.822 22.579 C 14.601 22.849,15.316 22.774,15.858 22.365 C 16.253 22.067,16.495 21.688,16.650 21.126 C 16.728 20.840,16.735 20.699,16.750 18.950 C 16.759 17.921,16.777 17.080,16.789 17.080 C 16.802 17.080,17.427 17.423,18.178 17.841 C 18.929 18.260,19.669 18.646,19.822 18.699 C 20.601 18.969,21.316 18.894,21.858 18.485 C 22.251 18.188,22.491 17.814,22.652 17.246 L 22.739 16.940 22.752 11.100 C 22.760 7.168,22.750 5.114,22.722 4.813 C 22.538 2.886,21.148 1.478,19.237 1.282 C 18.749 1.232,11.179 1.234,10.700 1.284 M19.408 2.804 C 20.232 2.974,21.026 3.768,21.196 4.592 C 21.258 4.891,21.258 16.715,21.196 16.938 C 21.172 17.025,21.092 17.156,21.020 17.228 C 20.904 17.344,20.863 17.360,20.674 17.360 C 20.393 17.360,20.289 17.309,18.352 16.227 L 16.763 15.340 16.750 11.880 C 16.737 8.490,16.735 8.413,16.651 8.100 C 16.261 6.646,15.230 5.615,13.780 5.230 C 13.475 5.149,13.353 5.144,11.110 5.130 L 8.760 5.115 8.760 4.960 C 8.760 4.044,9.585 3.047,10.531 2.817 C 10.811 2.750,19.084 2.737,19.408 2.804 M13.430 6.700 C 14.268 6.898,14.982 7.612,15.180 8.450 C 15.230 8.664,15.239 9.551,15.239 14.680 C 15.239 18.899,15.227 20.707,15.196 20.818 C 15.172 20.905,15.092 21.036,15.020 21.108 C 14.903 21.225,14.863 21.240,14.673 21.240 C 14.388 21.240,14.306 21.199,11.959 19.890 C 10.891 19.294,9.901 18.766,9.759 18.715 C 9.384 18.583,8.616 18.583,8.241 18.715 C 8.099 18.766,7.109 19.294,6.041 19.890 C 3.694 21.199,3.612 21.240,3.327 21.240 C 3.137 21.240,3.097 21.225,2.980 21.108 C 2.908 21.036,2.828 20.905,2.804 20.818 C 2.742 20.595,2.742 8.771,2.804 8.472 C 2.970 7.671,3.727 6.892,4.531 6.697 C 4.692 6.658,5.699 6.646,8.960 6.644 C 12.546 6.642,13.218 6.650,13.430 6.700 M6.815 11.278 C 6.331 11.393,6.098 12.004,6.383 12.408 C 6.447 12.499,6.572 12.610,6.660 12.656 C 6.815 12.738,6.880 12.740,8.875 12.752 C 11.208 12.765,11.281 12.759,11.519 12.521 C 11.918 12.122,11.731 11.423,11.189 11.286 C 10.980 11.234,7.031 11.226,6.815 11.278 " stroke="none" fill-rule="evenodd" fill="black"></path></svg>