<svg width="24" height="24" viewBox="0 0 24 24" fill="none" xmlns="http://www.w3.org/2000/svg"><path d="M10.700 1.284 C 9.424 1.419,8.312 2.177,7.700 3.330 C 7.501 3.704,7.336 4.231,7.301 4.606 C 7.287 4.746,7.268 4.917,7.257 4.986 L 7.238 5.113 5.889 5.130 C 4.686 5.146,4.505 5.157,4.220 5.232 C 2.751 5.615,1.675 6.714,1.334 8.180 C 1.264 8.485,1.260 8.796,1.260 14.680 C 1.260 20.549,1.264 20.873,1.333 21.120 C 1.570 21.960,2.111 22.526,2.844 22.698 C 3.347 22.817,3.876 22.740,4.460 22.463 C 4.658 22.370,5.684 21.808,6.740 21.216 L 8.660 20.140 9.000 20.140 L 9.340 20.140 11.380 21.282 C 13.885 22.684,13.913 22.697,14.540 22.744 C 14.913 22.772,15.284 22.700,15.610 22.535 C 15.901 22.388,16.310 21.961,16.469 21.638 C 16.726 21.113,16.732 21.055,16.749 18.970 C 16.758 17.930,16.776 17.080,16.789 17.080 C 16.801 17.080,17.427 17.423,18.178 17.841 C 18.929 18.260,19.669 18.646,19.822 18.699 C 20.601 18.969,21.316 18.894,21.858 18.485 C 22.251 18.188,22.491 17.814,22.652 17.246 L 22.739 16.940 22.752 11.100 C 22.760 7.168,22.750 5.114,22.722 4.813 C 22.538 2.886,21.148 1.478,19.237 1.282 C 18.749 1.232,11.179 1.234,10.700 1.284 M19.408 2.804 C 20.232 2.974,21.026 3.768,21.196 4.592 C 21.258 4.891,21.258 16.715,21.196 16.938 C 21.172 17.025,21.092 17.156,21.020 17.228 C 20.904 17.344,20.863 17.360,20.674 17.360 C 20.393 17.360,20.289 17.309,18.352 16.227 L 16.763 15.340 16.751 11.880 L 16.738 8.420 16.633 8.038 C 16.306 6.843,15.454 5.868,14.341 5.415 C 13.680 5.145,13.706 5.148,11.110 5.131 L 8.760 5.115 8.760 4.960 C 8.760 4.044,9.585 3.047,10.531 2.817 C 10.811 2.750,19.084 2.737,19.408 2.804 M13.343 6.683 C 13.473 6.706,13.731 6.798,13.916 6.887 C 14.586 7.208,15.091 7.882,15.199 8.600 C 15.232 8.816,15.241 10.559,15.232 14.840 L 15.220 20.780 15.133 20.943 C 15.085 21.032,15.018 21.129,14.983 21.158 C 14.893 21.232,14.607 21.256,14.417 21.204 C 14.327 21.180,13.273 20.615,12.074 19.948 C 10.501 19.073,9.828 18.720,9.657 18.678 C 9.321 18.596,8.564 18.605,8.273 18.694 C 8.148 18.732,7.122 19.279,5.993 19.909 C 4.864 20.539,3.833 21.098,3.703 21.151 C 3.249 21.338,2.937 21.223,2.819 20.825 C 2.730 20.526,2.731 8.827,2.820 8.450 C 3.015 7.622,3.729 6.901,4.552 6.702 C 4.738 6.657,5.542 6.646,8.943 6.643 C 11.736 6.641,13.183 6.654,13.343 6.683 " stroke="none" fill-rule="evenodd" fill="black"></path></svg>