<svg width="24" height="24" viewBox="0 0 24 24" fill="none" xmlns="http://www.w3.org/2000/svg"><path d="M10.700 1.284 C 9.424 1.419,8.312 2.177,7.700 3.330 C 7.501 3.704,7.336 4.231,7.301 4.606 C 7.287 4.746,7.267 4.918,7.256 4.990 L 7.236 5.120 6.202 5.120 C 4.596 5.120,4.024 5.211,3.330 5.580 C 2.132 6.216,1.410 7.311,1.278 8.693 C 1.250 8.994,1.240 11.048,1.248 14.980 L 1.261 20.820 1.348 21.126 C 1.731 22.477,2.837 23.045,4.178 22.579 C 4.331 22.526,5.416 21.948,6.589 21.295 L 8.722 20.108 9.000 20.108 L 9.278 20.108 11.411 21.295 C 12.584 21.948,13.669 22.526,13.822 22.579 C 14.601 22.849,15.316 22.774,15.858 22.365 C 16.253 22.067,16.495 21.688,16.650 21.126 C 16.728 20.840,16.735 20.699,16.750 18.950 C 16.759 17.921,16.777 17.080,16.789 17.080 C 16.802 17.080,17.427 17.423,18.178 17.841 C 18.929 18.260,19.669 18.646,19.822 18.699 C 20.601 18.969,21.316 18.894,21.858 18.485 C 22.251 18.188,22.491 17.814,22.652 17.246 L 22.739 16.940 22.752 11.100 C 22.760 7.168,22.750 5.114,22.722 4.813 C 22.538 2.886,21.148 1.478,19.237 1.282 C 18.749 1.232,11.179 1.234,10.700 1.284 M19.408 2.804 C 20.232 2.974,21.026 3.768,21.196 4.592 C 21.258 4.891,21.258 16.715,21.196 16.938 C 21.172 17.025,21.092 17.156,21.020 17.228 C 20.904 17.344,20.863 17.360,20.674 17.360 C 20.393 17.360,20.289 17.309,18.352 16.227 L 16.763 15.340 16.750 11.880 C 16.737 8.490,16.735 8.413,16.651 8.100 C 16.261 6.646,15.230 5.615,13.780 5.230 C 13.475 5.149,13.353 5.144,11.110 5.130 L 8.760 5.115 8.760 4.960 C 8.760 4.044,9.585 3.047,10.531 2.817 C 10.811 2.750,19.084 2.737,19.408 2.804 M13.430 6.700 C 14.268 6.898,14.982 7.612,15.180 8.450 C 15.230 8.664,15.239 9.551,15.239 14.680 C 15.239 18.899,15.227 20.707,15.196 20.818 C 15.172 20.905,15.092 21.036,15.020 21.108 C 14.903 21.225,14.863 21.240,14.673 21.240 C 14.388 21.240,14.306 21.199,11.959 19.890 C 10.891 19.294,9.901 18.766,9.759 18.715 C 9.384 18.583,8.616 18.583,8.241 18.715 C 8.099 18.766,7.109 19.294,6.041 19.890 C 3.694 21.199,3.612 21.240,3.327 21.240 C 3.137 21.240,3.097 21.225,2.980 21.108 C 2.908 21.036,2.828 20.905,2.804 20.818 C 2.742 20.595,2.742 8.771,2.804 8.472 C 2.970 7.671,3.727 6.892,4.531 6.697 C 4.692 6.658,5.699 6.646,8.960 6.644 C 12.546 6.642,13.218 6.650,13.430 6.700 M7.365 9.869 C 7.312 9.879,7.183 9.973,7.078 10.078 C 6.922 10.234,6.881 10.305,6.858 10.459 C 6.806 10.803,6.874 10.925,7.432 11.490 L 7.936 12.000 7.432 12.510 C 6.874 13.075,6.806 13.197,6.858 13.541 C 6.881 13.695,6.922 13.766,7.078 13.922 C 7.234 14.078,7.305 14.119,7.459 14.142 C 7.803 14.194,7.925 14.126,8.490 13.568 L 9.000 13.064 9.510 13.568 C 10.075 14.126,10.197 14.194,10.541 14.142 C 10.695 14.119,10.766 14.078,10.922 13.922 C 11.078 13.766,11.119 13.695,11.142 13.541 C 11.194 13.197,11.126 13.075,10.568 12.510 L 10.064 12.000 10.568 11.490 C 11.126 10.925,11.194 10.803,11.142 10.459 C 11.119 10.305,11.078 10.234,10.922 10.078 C 10.766 9.922,10.695 9.881,10.541 9.858 C 10.197 9.806,10.075 9.874,9.509 10.433 L 8.999 10.937 8.509 10.450 C 7.921 9.865,7.776 9.791,7.365 9.869 " stroke="none" fill-rule="evenodd" fill="black"></path></svg>