<svg width="24" height="24" viewBox="0 0 24 24" fill="none" xmlns="http://www.w3.org/2000/svg"><path d="M6.020 1.284 C 4.095 1.444,2.352 2.737,1.638 4.537 C 1.307 5.369,1.227 6.078,1.247 7.980 C 1.260 9.196,1.262 9.223,1.353 9.369 C 1.664 9.870,2.408 9.849,2.664 9.332 C 2.734 9.193,2.742 9.041,2.762 7.500 L 2.785 5.820 2.893 5.468 C 3.285 4.189,4.189 3.285,5.468 2.893 L 5.820 2.785 7.500 2.762 C 9.041 2.742,9.193 2.734,9.332 2.664 C 9.928 2.368,9.832 1.448,9.189 1.286 C 8.975 1.233,6.662 1.231,6.020 1.284 M14.815 1.278 C 14.331 1.393,14.098 2.004,14.383 2.408 C 14.447 2.499,14.572 2.610,14.660 2.656 C 14.813 2.736,14.897 2.741,16.500 2.762 L 18.180 2.785 18.532 2.893 C 19.801 3.282,20.718 4.199,21.107 5.468 L 21.215 5.820 21.238 7.520 C 21.260 9.210,21.261 9.221,21.353 9.369 C 21.710 9.943,22.576 9.812,22.716 9.162 C 22.772 8.899,22.774 6.789,22.719 6.107 C 22.596 4.597,21.900 3.285,20.740 2.381 C 19.899 1.725,18.978 1.369,17.893 1.281 C 17.322 1.235,15.006 1.232,14.815 1.278 M6.365 4.822 C 5.549 4.999,4.995 5.559,4.820 6.384 C 4.736 6.780,4.736 9.220,4.820 9.616 C 4.997 10.450,5.550 11.003,6.384 11.180 C 6.780 11.264,9.220 11.264,9.616 11.180 C 10.450 11.003,11.003 10.450,11.180 9.616 C 11.264 9.220,11.264 6.780,11.180 6.384 C 11.091 5.963,10.917 5.631,10.643 5.357 C 10.369 5.083,10.037 4.909,9.616 4.820 C 9.233 4.739,6.741 4.740,6.365 4.822 M14.365 4.822 C 13.549 4.999,12.995 5.559,12.820 6.384 C 12.736 6.780,12.736 9.220,12.820 9.616 C 12.953 10.246,13.337 10.761,13.851 11.002 C 14.307 11.215,14.522 11.239,16.000 11.239 C 17.478 11.239,17.693 11.215,18.149 11.002 C 18.487 10.843,18.843 10.487,19.002 10.149 C 19.215 9.693,19.239 9.478,19.239 8.000 C 19.239 6.522,19.215 6.307,19.002 5.851 C 18.761 5.337,18.246 4.953,17.616 4.820 C 17.233 4.739,14.741 4.740,14.365 4.822 M9.340 6.284 C 9.555 6.343,9.663 6.451,9.716 6.661 C 9.775 6.895,9.775 9.105,9.716 9.339 C 9.663 9.549,9.555 9.657,9.340 9.716 C 9.124 9.775,6.895 9.775,6.661 9.716 C 6.451 9.663,6.343 9.555,6.284 9.340 C 6.225 9.124,6.225 6.895,6.284 6.661 C 6.335 6.457,6.445 6.342,6.640 6.287 C 6.836 6.231,9.138 6.229,9.340 6.284 M17.340 6.284 C 17.555 6.343,17.663 6.451,17.716 6.661 C 17.775 6.895,17.775 9.105,17.716 9.339 C 17.663 9.549,17.555 9.657,17.340 9.716 C 17.124 9.775,14.895 9.775,14.661 9.716 C 14.451 9.663,14.343 9.555,14.284 9.340 C 14.225 9.124,14.225 6.895,14.284 6.661 C 14.335 6.457,14.445 6.342,14.640 6.287 C 14.836 6.231,17.138 6.229,17.340 6.284 M6.365 12.822 C 5.549 12.999,4.995 13.559,4.820 14.384 C 4.736 14.780,4.736 17.220,4.820 17.616 C 4.997 18.450,5.550 19.003,6.384 19.180 C 6.780 19.264,9.220 19.264,9.616 19.180 C 10.450 19.003,11.003 18.450,11.180 17.616 C 11.264 17.220,11.264 14.780,11.180 14.384 C 11.003 13.550,10.450 12.997,9.616 12.820 C 9.233 12.739,6.741 12.740,6.365 12.822 M14.365 12.822 C 13.549 12.999,12.995 13.559,12.820 14.384 C 12.736 14.780,12.736 17.220,12.820 17.616 C 12.909 18.037,13.083 18.369,13.357 18.643 C 13.631 18.917,13.963 19.091,14.384 19.180 C 14.780 19.264,17.220 19.264,17.616 19.180 C 18.450 19.003,19.003 18.450,19.180 17.616 C 19.264 17.220,19.264 14.780,19.180 14.384 C 19.003 13.550,18.450 12.997,17.616 12.820 C 17.233 12.739,14.741 12.740,14.365 12.822 M1.815 14.278 C 1.639 14.320,1.462 14.455,1.353 14.631 C 1.262 14.777,1.260 14.804,1.247 16.020 C 1.227 17.922,1.307 18.631,1.638 19.463 C 1.890 20.099,2.379 20.823,2.865 21.281 C 3.778 22.142,4.849 22.617,6.107 22.719 C 6.789 22.774,8.899 22.772,9.162 22.716 C 9.828 22.573,9.943 21.639,9.332 21.336 C 9.193 21.266,9.041 21.258,7.500 21.238 L 5.820 21.216 5.468 21.107 C 4.195 20.716,3.283 19.804,2.893 18.532 L 2.785 18.180 2.762 16.500 C 2.742 14.959,2.734 14.807,2.664 14.668 C 2.573 14.484,2.395 14.343,2.180 14.284 C 2.003 14.236,1.993 14.236,1.815 14.278 M9.340 14.284 C 9.555 14.343,9.663 14.451,9.716 14.661 C 9.775 14.895,9.775 17.105,9.716 17.339 C 9.663 17.549,9.555 17.657,9.340 17.716 C 9.124 17.775,6.895 17.775,6.661 17.716 C 6.451 17.663,6.343 17.555,6.284 17.340 C 6.225 17.124,6.225 14.895,6.284 14.661 C 6.335 14.457,6.445 14.342,6.640 14.287 C 6.836 14.231,9.138 14.229,9.340 14.284 M17.340 14.284 C 17.555 14.343,17.663 14.451,17.716 14.661 C 17.775 14.895,17.775 17.105,17.716 17.339 C 17.663 17.549,17.555 17.657,17.340 17.716 C 17.124 17.775,14.895 17.775,14.661 17.716 C 14.451 17.663,14.343 17.555,14.284 17.340 C 14.225 17.124,14.225 14.895,14.284 14.661 C 14.335 14.457,14.445 14.342,14.640 14.287 C 14.836 14.231,17.138 14.229,17.340 14.284 M21.815 15.277 C 21.638 15.321,21.461 15.456,21.353 15.631 C 21.263 15.776,21.259 15.815,21.236 16.980 C 21.214 18.137,21.209 18.193,21.104 18.540 C 20.726 19.790,19.789 20.724,18.532 21.106 C 18.194 21.209,18.131 21.214,16.977 21.236 L 15.774 21.260 15.612 21.367 C 15.372 21.526,15.267 21.721,15.267 22.007 C 15.267 22.203,15.286 22.270,15.383 22.408 C 15.590 22.700,15.715 22.738,16.535 22.754 C 18.189 22.786,19.156 22.596,20.100 22.052 C 21.628 21.173,22.575 19.669,22.719 17.893 C 22.772 17.247,22.770 16.073,22.717 15.841 C 22.623 15.432,22.215 15.177,21.815 15.277 " stroke="none" fill-rule="evenodd" fill="black"></path></svg>