<svg width="24" height="24" viewBox="0 0 24 24" fill="none" xmlns="http://www.w3.org/2000/svg"><path d="M6.458 1.283 C 5.617 1.344,4.882 1.542,4.186 1.896 C 3.639 2.174,3.292 2.425,2.859 2.859 C 2.425 3.292,2.174 3.639,1.896 4.186 C 1.373 5.216,1.219 6.178,1.247 8.240 C 1.260 9.184,1.263 9.226,1.353 9.369 C 1.664 9.870,2.408 9.849,2.664 9.332 C 2.733 9.194,2.742 9.042,2.763 7.680 C 2.781 6.514,2.801 6.118,2.851 5.899 C 3.225 4.261,4.351 3.159,5.980 2.836 C 6.395 2.753,17.605 2.753,18.020 2.836 C 19.649 3.159,20.774 4.261,21.149 5.899 C 21.199 6.118,21.219 6.514,21.237 7.700 C 21.260 9.201,21.261 9.222,21.353 9.369 C 21.710 9.943,22.576 9.812,22.716 9.162 C 22.741 9.045,22.760 8.556,22.760 8.028 C 22.759 6.042,22.613 5.188,22.104 4.186 C 21.826 3.639,21.575 3.292,21.141 2.859 C 20.175 1.893,19.007 1.393,17.455 1.281 C 16.797 1.233,7.119 1.236,6.458 1.283 M1.815 11.278 C 1.331 11.393,1.098 12.004,1.383 12.408 C 1.448 12.499,1.572 12.610,1.660 12.656 L 1.820 12.740 11.880 12.751 C 19.099 12.758,22.000 12.749,22.154 12.717 C 22.902 12.562,22.929 11.473,22.189 11.286 C 21.978 11.233,2.036 11.225,1.815 11.278 M1.815 14.278 C 1.639 14.320,1.462 14.455,1.353 14.631 C 1.263 14.774,1.260 14.816,1.247 15.760 C 1.219 17.822,1.373 18.784,1.896 19.814 C 2.174 20.361,2.425 20.708,2.859 21.141 C 3.825 22.107,4.993 22.607,6.545 22.719 C 7.282 22.772,16.718 22.772,17.455 22.719 C 18.406 22.651,19.088 22.473,19.814 22.104 C 20.361 21.826,20.708 21.575,21.141 21.141 C 22.107 20.175,22.607 19.007,22.719 17.455 C 22.773 16.707,22.771 15.096,22.716 14.838 C 22.575 14.182,21.713 14.051,21.353 14.631 C 21.261 14.778,21.260 14.799,21.237 16.300 C 21.219 17.486,21.199 17.882,21.149 18.101 C 20.823 19.525,19.943 20.539,18.640 20.991 C 17.950 21.230,18.248 21.220,12.000 21.220 C 5.752 21.220,6.050 21.230,5.360 20.991 C 4.249 20.605,3.412 19.779,3.021 18.681 C 2.804 18.069,2.788 17.927,2.763 16.320 C 2.742 14.958,2.733 14.806,2.664 14.668 C 2.573 14.484,2.395 14.343,2.180 14.284 C 2.003 14.236,1.993 14.236,1.815 14.278 " stroke="none" fill-rule="evenodd" fill="black"></path></svg>