<svg width="24" height="24" viewBox="0 0 24 24" fill="none" xmlns="http://www.w3.org/2000/svg"><path d="M8.080 1.282 C 4.008 1.495,1.895 3.296,1.383 6.991 C 1.270 7.803,1.242 8.816,1.242 12.000 C 1.242 16.504,1.302 17.273,1.760 18.650 C 2.532 20.963,4.206 22.226,7.027 22.622 C 7.786 22.728,8.902 22.759,12.000 22.759 C 15.098 22.759,16.214 22.728,16.973 22.622 C 19.443 22.275,20.996 21.288,21.897 19.490 C 22.379 18.530,22.638 17.369,22.720 15.807 C 22.771 14.838,22.771 9.162,22.720 8.193 C 22.657 6.998,22.521 6.191,22.242 5.356 C 21.632 3.531,20.469 2.367,18.650 1.760 C 17.788 1.473,17.023 1.344,15.806 1.280 C 14.952 1.235,8.952 1.237,8.080 1.282 M16.800 2.854 C 19.586 3.316,20.714 4.454,21.148 7.240 C 21.214 7.661,21.220 8.064,21.220 12.000 C 21.220 15.936,21.214 16.339,21.148 16.760 C 20.712 19.558,19.558 20.712,16.760 21.148 C 16.339 21.214,15.936 21.220,12.000 21.220 C 8.064 21.220,7.661 21.214,7.240 21.148 C 4.450 20.713,3.283 19.551,2.854 16.780 C 2.785 16.335,2.780 15.989,2.780 12.000 C 2.780 7.247,2.776 7.337,3.044 6.288 C 3.557 4.282,4.722 3.274,6.960 2.900 C 7.690 2.777,8.048 2.769,12.200 2.777 C 15.963 2.784,16.422 2.791,16.800 2.854 M7.800 6.380 C 6.847 6.595,6.019 7.438,5.816 8.400 C 5.733 8.792,5.760 9.437,5.875 9.800 C 6.121 10.573,6.827 11.279,7.600 11.525 C 7.960 11.639,8.608 11.667,8.992 11.586 C 9.365 11.506,9.794 11.299,10.100 11.050 L 10.340 10.855 11.060 11.393 C 11.456 11.689,11.795 11.945,11.814 11.962 C 11.840 11.985,10.610 12.950,10.371 13.094 C 10.341 13.112,10.214 13.041,10.051 12.915 C 9.505 12.496,8.990 12.338,8.280 12.372 C 7.559 12.407,7.049 12.633,6.541 13.141 C 6.217 13.464,5.995 13.821,5.869 14.220 C 5.741 14.623,5.741 15.417,5.869 15.820 C 6.123 16.621,6.819 17.317,7.620 17.571 C 7.853 17.645,7.990 17.660,8.440 17.659 C 8.921 17.657,9.012 17.645,9.273 17.551 C 9.692 17.401,9.973 17.221,10.297 16.897 C 10.621 16.573,10.800 16.292,10.952 15.873 C 11.046 15.612,11.058 15.519,11.062 15.013 L 11.067 14.445 12.083 13.686 C 12.647 13.265,13.118 12.941,13.140 12.957 C 15.145 14.475,17.192 15.966,17.321 16.000 C 17.978 16.177,18.521 15.349,18.088 14.833 C 18.029 14.762,17.163 14.094,16.165 13.349 C 15.167 12.604,14.366 11.980,14.385 11.962 C 14.404 11.944,15.245 11.315,16.252 10.564 C 17.875 9.355,18.093 9.179,18.161 9.029 C 18.298 8.728,18.234 8.352,18.013 8.152 C 17.816 7.974,17.470 7.913,17.229 8.014 C 17.158 8.043,16.205 8.736,15.112 9.554 C 14.018 10.371,13.114 11.040,13.102 11.040 C 13.090 11.040,12.628 10.701,12.075 10.287 L 11.070 9.535 11.063 8.977 C 11.057 8.486,11.044 8.386,10.951 8.127 C 10.799 7.703,10.619 7.420,10.297 7.101 C 9.975 6.781,9.617 6.555,9.240 6.435 C 8.896 6.325,8.166 6.297,7.800 6.380 M8.903 7.917 C 9.124 8.015,9.387 8.281,9.492 8.514 C 9.606 8.769,9.606 9.191,9.492 9.446 C 9.300 9.873,8.891 10.135,8.420 10.135 C 8.076 10.135,7.838 10.038,7.600 9.800 C 7.293 9.493,7.178 9.072,7.294 8.677 C 7.496 7.981,8.247 7.627,8.903 7.917 M8.903 13.957 C 9.124 14.055,9.387 14.321,9.492 14.554 C 9.551 14.686,9.575 14.822,9.575 15.020 C 9.575 15.683,9.083 16.175,8.420 16.175 C 8.076 16.175,7.838 16.078,7.600 15.840 C 7.293 15.533,7.178 15.112,7.294 14.717 C 7.496 14.021,8.247 13.667,8.903 13.957 " stroke="none" fill-rule="evenodd" fill="black"></path></svg>