<svg width="24" height="24" viewBox="0 0 24 24" fill="none" xmlns="http://www.w3.org/2000/svg"><path d="M5.060 2.284 C 3.351 2.451,1.894 3.679,1.420 5.351 C 1.157 6.276,1.241 7.387,1.640 8.267 C 2.037 9.141,2.859 9.963,3.733 10.360 C 4.822 10.853,6.177 10.854,7.265 10.361 C 7.778 10.128,8.374 9.674,8.751 9.229 L 8.879 9.079 10.799 10.520 C 11.856 11.312,12.720 11.969,12.720 11.980 C 12.720 11.991,11.855 12.649,10.797 13.442 L 8.874 14.885 8.538 14.546 C 7.806 13.806,6.917 13.379,5.915 13.287 C 4.623 13.168,3.404 13.602,2.503 14.503 C 1.801 15.205,1.377 16.105,1.287 17.085 C 1.168 18.377,1.602 19.596,2.503 20.497 C 3.404 21.398,4.623 21.832,5.915 21.713 C 7.640 21.554,9.090 20.348,9.577 18.666 C 9.763 18.025,9.779 17.095,9.616 16.466 C 9.583 16.337,9.561 16.227,9.568 16.222 C 9.574 16.217,10.574 15.470,11.789 14.563 L 13.999 12.914 17.798 15.759 C 19.888 17.323,21.660 18.629,21.737 18.661 C 21.917 18.737,22.085 18.736,22.271 18.658 C 22.574 18.531,22.731 18.298,22.731 17.977 C 22.731 17.569,22.882 17.698,18.898 14.716 L 15.246 11.983 18.913 9.239 C 21.404 7.374,22.603 6.453,22.653 6.365 C 22.756 6.184,22.757 5.856,22.654 5.658 C 22.610 5.571,22.499 5.447,22.408 5.383 C 22.270 5.286,22.203 5.267,22.004 5.267 C 21.842 5.267,21.731 5.290,21.653 5.340 C 21.562 5.399,16.313 9.314,14.451 10.711 L 14.002 11.048 11.791 9.399 C 10.575 8.491,9.576 7.746,9.572 7.743 C 9.567 7.739,9.589 7.638,9.620 7.518 C 9.838 6.684,9.733 5.556,9.360 4.733 C 8.773 3.439,7.398 2.426,6.060 2.303 C 5.501 2.251,5.414 2.249,5.060 2.284 M6.360 3.877 C 6.744 4.008,7.127 4.250,7.436 4.559 C 7.953 5.076,8.195 5.614,8.230 6.323 C 8.258 6.905,8.198 7.212,7.958 7.706 C 7.638 8.366,7.095 8.853,6.392 9.110 C 6.124 9.208,6.051 9.217,5.500 9.217 C 4.978 9.217,4.866 9.205,4.640 9.126 C 3.836 8.843,3.144 8.151,2.878 7.360 C 2.758 7.005,2.728 6.295,2.815 5.885 C 3.020 4.922,3.892 4.036,4.847 3.819 C 5.227 3.732,6.024 3.763,6.360 3.877 M6.360 14.877 C 6.756 15.011,7.135 15.256,7.465 15.589 C 7.708 15.834,7.800 15.966,7.960 16.295 C 8.199 16.787,8.259 17.094,8.230 17.677 C 8.195 18.385,7.953 18.924,7.439 19.439 C 7.124 19.754,6.801 19.961,6.392 20.110 C 6.124 20.208,6.051 20.217,5.500 20.217 C 4.978 20.217,4.866 20.205,4.640 20.126 C 3.836 19.843,3.144 19.151,2.878 18.360 C 2.758 18.005,2.728 17.295,2.815 16.885 C 3.020 15.922,3.892 15.036,4.847 14.819 C 5.227 14.732,6.024 14.763,6.360 14.877 " stroke="none" fill-rule="evenodd" fill="black"></path></svg>