<svg width="24" height="24" viewBox="0 0 24 24" fill="none" xmlns="http://www.w3.org/2000/svg"><path d="M8.080 1.282 C 4.008 1.495,1.895 3.296,1.383 6.991 C 1.270 7.803,1.242 8.816,1.242 12.000 C 1.242 16.504,1.302 17.273,1.760 18.650 C 2.532 20.963,4.206 22.226,7.027 22.622 C 7.786 22.728,8.902 22.759,12.000 22.759 C 15.098 22.759,16.214 22.728,16.973 22.622 C 19.443 22.275,20.996 21.288,21.897 19.490 C 22.379 18.530,22.638 17.369,22.720 15.807 C 22.771 14.838,22.771 9.162,22.720 8.193 C 22.657 6.998,22.521 6.191,22.242 5.356 C 21.632 3.531,20.469 2.367,18.650 1.760 C 17.788 1.473,17.023 1.344,15.806 1.280 C 14.952 1.235,8.952 1.237,8.080 1.282 M16.800 2.854 C 19.586 3.316,20.714 4.454,21.148 7.240 C 21.214 7.661,21.220 8.064,21.220 12.000 C 21.220 15.936,21.214 16.339,21.148 16.760 C 20.712 19.558,19.558 20.712,16.760 21.148 C 16.339 21.214,15.936 21.220,12.000 21.220 C 8.064 21.220,7.661 21.214,7.240 21.148 C 4.450 20.713,3.283 19.551,2.854 16.780 C 2.785 16.335,2.780 15.989,2.780 12.000 C 2.780 7.247,2.776 7.337,3.044 6.288 C 3.557 4.282,4.722 3.274,6.960 2.900 C 7.690 2.777,8.048 2.769,12.200 2.777 C 15.963 2.784,16.422 2.791,16.800 2.854 M11.892 11.804 C 10.824 11.962,10.129 12.582,9.854 13.620 C 9.788 13.870,9.780 14.070,9.780 15.480 C 9.780 17.271,9.799 17.429,10.081 17.991 C 10.373 18.574,10.916 18.980,11.629 19.147 C 11.913 19.214,12.162 19.220,14.520 19.220 C 16.904 19.220,17.121 19.214,17.380 19.146 C 18.328 18.895,18.895 18.328,19.146 17.380 C 19.212 17.130,19.220 16.930,19.220 15.500 C 19.220 14.070,19.212 13.870,19.146 13.620 C 18.897 12.680,18.340 12.117,17.400 11.856 C 17.164 11.791,16.910 11.784,14.640 11.776 C 13.265 11.771,12.029 11.784,11.892 11.804 M17.148 13.332 C 17.421 13.424,17.582 13.591,17.670 13.873 C 17.731 14.071,17.740 14.277,17.740 15.500 C 17.740 17.064,17.717 17.237,17.477 17.477 C 17.218 17.736,17.168 17.740,14.500 17.740 C 11.833 17.740,11.782 17.735,11.524 17.478 C 11.292 17.246,11.267 17.080,11.250 15.664 C 11.226 13.694,11.302 13.456,12.008 13.300 C 12.210 13.256,12.725 13.246,14.600 13.253 C 16.705 13.261,16.961 13.269,17.148 13.332 " stroke="none" fill-rule="evenodd" fill="black"></path></svg>