<svg width="24" height="24" viewBox="0 0 24 24" fill="none" xmlns="http://www.w3.org/2000/svg"><path d="M8.080 1.282 C 4.008 1.495,1.895 3.296,1.383 6.991 C 1.270 7.803,1.242 8.816,1.242 12.000 C 1.242 16.504,1.302 17.273,1.760 18.650 C 2.532 20.963,4.206 22.226,7.027 22.622 C 7.786 22.728,8.902 22.759,12.000 22.759 C 15.098 22.759,16.214 22.728,16.973 22.622 C 19.443 22.275,20.996 21.288,21.897 19.490 C 22.379 18.530,22.638 17.369,22.720 15.807 C 22.771 14.838,22.771 9.162,22.720 8.193 C 22.657 6.998,22.521 6.191,22.242 5.356 C 21.632 3.531,20.469 2.367,18.650 1.760 C 17.788 1.473,17.023 1.344,15.806 1.280 C 14.952 1.235,8.952 1.237,8.080 1.282 M16.800 2.854 C 19.586 3.316,20.714 4.454,21.148 7.240 C 21.214 7.661,21.220 8.064,21.220 12.000 C 21.220 15.936,21.214 16.339,21.148 16.760 C 20.712 19.558,19.558 20.712,16.760 21.148 C 16.339 21.214,15.936 21.220,12.000 21.220 C 8.064 21.220,7.661 21.214,7.240 21.148 C 4.450 20.713,3.283 19.551,2.854 16.780 C 2.785 16.335,2.780 15.989,2.780 12.000 C 2.780 7.247,2.776 7.337,3.044 6.288 C 3.557 4.282,4.722 3.274,6.960 2.900 C 7.690 2.777,8.048 2.769,12.200 2.777 C 15.963 2.784,16.422 2.791,16.800 2.854 M9.198 8.355 C 9.100 8.418,8.433 9.061,7.717 9.785 C 6.235 11.280,6.200 11.327,6.168 11.885 C 6.148 12.235,6.198 12.473,6.354 12.759 C 6.494 13.014,9.091 15.616,9.289 15.698 C 9.668 15.856,10.078 15.707,10.269 15.341 C 10.353 15.181,10.348 14.851,10.261 14.679 C 10.222 14.603,9.617 13.964,8.916 13.259 L 7.641 11.978 8.923 10.699 C 9.628 9.996,10.234 9.366,10.268 9.301 C 10.303 9.235,10.331 9.088,10.331 8.974 C 10.331 8.384,9.693 8.035,9.198 8.355 M14.019 8.337 C 13.711 8.522,13.570 8.995,13.732 9.301 C 13.766 9.366,14.372 9.996,15.077 10.699 L 16.359 11.978 15.084 13.259 C 14.383 13.964,13.778 14.603,13.739 14.679 C 13.652 14.851,13.647 15.181,13.731 15.341 C 13.922 15.707,14.332 15.856,14.711 15.698 C 14.909 15.616,17.506 13.014,17.646 12.759 C 17.802 12.473,17.852 12.235,17.832 11.885 C 17.800 11.327,17.765 11.280,16.283 9.785 C 15.567 9.061,14.900 8.418,14.802 8.355 C 14.566 8.202,14.256 8.195,14.019 8.337 " stroke="none" fill-rule="evenodd" fill="black"></path></svg>