<svg width="24" height="24" viewBox="0 0 24 24" fill="none" xmlns="http://www.w3.org/2000/svg"><path d="M11.040 1.264 C 10.250 1.304,9.281 1.468,8.557 1.683 C 7.353 2.041,6.021 2.747,5.010 3.565 C 4.612 3.888,3.888 4.612,3.565 5.010 C 2.944 5.778,2.333 6.824,1.964 7.749 C 1.189 9.695,1.050 11.954,1.577 14.045 C 1.758 14.763,1.940 15.249,2.322 16.030 C 2.831 17.069,3.443 17.926,4.258 18.742 C 5.025 19.509,5.880 20.132,6.820 20.609 C 8.370 21.396,9.753 21.726,11.500 21.726 C 13.243 21.726,14.634 21.394,16.180 20.609 C 17.120 20.132,17.975 19.509,18.742 18.742 C 20.355 17.128,21.359 15.084,21.660 12.798 C 21.748 12.134,21.754 11.329,21.673 11.180 C 21.526 10.912,21.283 10.760,21.000 10.760 C 20.799 10.760,20.647 10.819,20.506 10.953 C 20.303 11.145,20.272 11.255,20.237 11.898 C 20.118 14.163,19.261 16.101,17.681 17.681 C 16.004 19.358,13.874 20.240,11.500 20.240 C 9.126 20.240,6.996 19.358,5.319 17.681 C 3.921 16.282,3.065 14.544,2.818 12.602 C 2.728 11.888,2.754 10.668,2.873 10.000 C 3.195 8.205,4.028 6.609,5.319 5.319 C 6.886 3.751,8.842 2.884,11.082 2.764 C 11.747 2.728,11.854 2.698,12.047 2.494 C 12.181 2.353,12.240 2.201,12.240 2.000 C 12.240 1.799,12.181 1.647,12.047 1.506 C 11.840 1.287,11.623 1.235,11.040 1.264 M13.815 4.278 C 13.331 4.393,13.098 5.004,13.383 5.408 C 13.447 5.499,13.572 5.610,13.660 5.656 C 13.818 5.739,13.865 5.740,16.878 5.751 C 19.020 5.759,20.000 5.749,20.151 5.718 C 20.902 5.562,20.931 4.473,20.189 4.286 C 19.979 4.234,14.033 4.226,13.815 4.278 M13.815 7.278 C 13.331 7.393,13.098 8.004,13.383 8.408 C 13.447 8.499,13.572 8.610,13.660 8.656 C 13.813 8.736,13.888 8.741,15.373 8.752 C 17.166 8.766,17.287 8.753,17.519 8.521 C 17.918 8.122,17.731 7.423,17.189 7.286 C 16.981 7.234,14.029 7.227,13.815 7.278 M19.815 19.277 C 19.640 19.320,19.462 19.456,19.356 19.626 C 19.235 19.823,19.232 20.174,19.351 20.364 C 19.397 20.439,19.927 20.988,20.528 21.585 C 21.553 22.605,21.632 22.673,21.810 22.711 C 22.389 22.832,22.832 22.389,22.711 21.810 C 22.673 21.632,22.605 21.553,21.585 20.528 C 20.988 19.927,20.446 19.402,20.380 19.362 C 20.235 19.273,19.985 19.236,19.815 19.277 " stroke="none" fill-rule="evenodd" fill="black"></path></svg>