<svg width="24" height="24" viewBox="0 0 24 24" fill="none" xmlns="http://www.w3.org/2000/svg"><path d="M11.040 1.264 C 10.250 1.304,9.281 1.468,8.557 1.683 C 7.353 2.041,6.021 2.747,5.010 3.565 C 4.612 3.888,3.888 4.612,3.565 5.010 C 2.944 5.778,2.333 6.824,1.964 7.749 C 1.189 9.695,1.050 11.954,1.577 14.045 C 1.758 14.763,1.940 15.249,2.322 16.030 C 2.831 17.069,3.443 17.926,4.258 18.742 C 5.025 19.509,5.880 20.132,6.820 20.609 C 8.370 21.396,9.753 21.726,11.500 21.726 C 13.243 21.726,14.634 21.394,16.180 20.609 C 17.120 20.132,17.975 19.509,18.742 18.742 C 20.355 17.128,21.359 15.084,21.660 12.798 C 21.748 12.134,21.754 11.329,21.673 11.180 C 21.526 10.912,21.283 10.760,21.000 10.760 C 20.799 10.760,20.647 10.819,20.506 10.953 C 20.303 11.145,20.272 11.255,20.237 11.898 C 20.118 14.163,19.261 16.101,17.681 17.681 C 16.004 19.358,13.874 20.240,11.500 20.240 C 9.126 20.240,6.996 19.358,5.319 17.681 C 3.921 16.282,3.065 14.544,2.818 12.602 C 2.728 11.888,2.754 10.668,2.873 10.000 C 3.195 8.205,4.028 6.609,5.319 5.319 C 6.886 3.751,8.842 2.884,11.082 2.764 C 11.747 2.728,11.854 2.698,12.047 2.494 C 12.181 2.353,12.240 2.201,12.240 2.000 C 12.240 1.799,12.181 1.647,12.047 1.506 C 11.840 1.287,11.623 1.235,11.040 1.264 M15.632 2.539 C 14.734 2.786,14.065 3.459,13.761 4.420 C 13.650 4.770,13.607 5.520,13.677 5.889 C 13.936 7.258,14.960 8.513,16.380 9.202 C 17.245 9.621,17.735 9.625,18.588 9.221 C 19.647 8.720,20.607 7.783,21.038 6.830 C 21.720 5.322,21.318 3.615,20.103 2.862 C 19.685 2.602,19.379 2.509,18.877 2.489 C 18.399 2.469,18.087 2.529,17.714 2.712 L 17.488 2.823 17.275 2.714 C 17.159 2.654,16.951 2.577,16.813 2.543 C 16.514 2.468,15.898 2.466,15.632 2.539 M16.551 4.022 C 16.633 4.056,16.790 4.172,16.900 4.280 C 17.118 4.494,17.325 4.600,17.526 4.600 C 17.719 4.600,17.976 4.457,18.137 4.261 C 18.324 4.033,18.558 3.940,18.866 3.972 C 19.598 4.048,20.048 4.919,19.817 5.814 C 19.670 6.382,19.217 7.012,18.644 7.446 C 18.347 7.671,17.639 8.040,17.504 8.040 C 17.385 8.040,16.819 7.763,16.510 7.553 C 16.152 7.311,15.682 6.825,15.490 6.500 C 15.072 5.789,15.018 5.136,15.330 4.548 C 15.584 4.070,16.116 3.841,16.551 4.022 M19.815 19.277 C 19.640 19.320,19.462 19.456,19.356 19.626 C 19.235 19.823,19.232 20.174,19.351 20.364 C 19.397 20.439,19.927 20.988,20.528 21.585 C 21.553 22.605,21.632 22.673,21.810 22.711 C 22.389 22.832,22.832 22.389,22.711 21.810 C 22.673 21.632,22.605 21.553,21.585 20.528 C 20.988 19.927,20.446 19.402,20.380 19.362 C 20.235 19.273,19.985 19.236,19.815 19.277 " stroke="none" fill-rule="evenodd" fill="black"></path></svg>