<svg width="24" height="24" viewBox="0 0 24 24" fill="none" xmlns="http://www.w3.org/2000/svg"><path d="M10.340 1.280 C 6.365 1.545,2.939 4.227,1.720 8.027 C 1.200 9.645,1.121 11.482,1.499 13.160 C 2.315 16.789,5.207 19.686,8.824 20.498 C 10.202 20.807,11.740 20.814,13.100 20.516 C 14.906 20.121,16.546 19.218,17.882 17.882 C 19.601 16.163,20.574 14.003,20.720 11.580 C 20.762 10.878,20.728 10.688,20.522 10.482 C 20.175 10.135,19.618 10.203,19.358 10.624 C 19.282 10.746,19.265 10.852,19.238 11.373 C 19.172 12.634,18.906 13.639,18.348 14.740 C 17.106 17.189,14.715 18.858,11.961 19.198 C 11.525 19.252,10.475 19.252,10.039 19.198 C 7.636 18.901,5.500 17.594,4.145 15.590 C 3.602 14.788,3.111 13.622,2.923 12.691 C 2.799 12.080,2.760 11.672,2.760 11.000 C 2.760 9.675,3.018 8.557,3.596 7.374 C 4.826 4.860,7.237 3.148,10.039 2.802 C 10.225 2.779,10.508 2.760,10.667 2.760 C 10.826 2.760,11.049 2.740,11.162 2.716 C 11.800 2.579,11.944 1.709,11.387 1.364 C 11.220 1.261,10.949 1.239,10.340 1.280 M14.632 2.539 C 13.734 2.786,13.065 3.459,12.761 4.420 C 12.650 4.770,12.607 5.520,12.677 5.889 C 12.936 7.258,13.960 8.513,15.380 9.202 C 16.245 9.621,16.735 9.625,17.588 9.221 C 18.647 8.720,19.607 7.783,20.038 6.830 C 20.720 5.322,20.318 3.615,19.103 2.862 C 18.685 2.602,18.379 2.509,17.877 2.489 C 17.399 2.469,17.087 2.529,16.714 2.712 L 16.488 2.823 16.275 2.714 C 16.159 2.654,15.951 2.577,15.813 2.543 C 15.514 2.468,14.898 2.466,14.632 2.539 M15.551 4.022 C 15.633 4.056,15.790 4.172,15.900 4.280 C 16.118 4.494,16.325 4.600,16.526 4.600 C 16.719 4.600,16.976 4.457,17.137 4.261 C 17.324 4.033,17.558 3.940,17.866 3.972 C 18.598 4.048,19.048 4.919,18.817 5.814 C 18.670 6.382,18.217 7.012,17.644 7.446 C 17.347 7.671,16.639 8.040,16.504 8.040 C 16.385 8.040,15.819 7.763,15.510 7.553 C 15.152 7.311,14.682 6.825,14.490 6.500 C 14.072 5.789,14.018 5.136,14.330 4.548 C 14.584 4.070,15.116 3.841,15.551 4.022 M20.000 17.999 C 19.247 18.102,18.653 18.489,18.343 19.079 C 17.972 19.786,18.004 20.531,18.447 21.440 C 18.618 21.792,18.700 21.909,18.955 22.162 C 19.578 22.780,20.304 22.910,21.063 22.541 C 21.740 22.211,22.455 21.297,22.661 20.500 C 22.852 19.764,22.645 19.014,22.125 18.555 C 21.650 18.136,20.741 17.898,20.000 17.999 M20.871 19.541 C 21.112 19.613,21.240 19.753,21.240 19.945 C 21.240 20.422,20.605 21.239,20.235 21.240 C 19.925 21.240,19.488 20.335,19.599 19.922 C 19.642 19.764,19.801 19.588,19.960 19.525 C 20.114 19.464,20.642 19.473,20.871 19.541 " stroke="none" fill-rule="evenodd" fill="black"></path></svg>