<svg width="24" height="24" viewBox="0 0 24 24" fill="none" xmlns="http://www.w3.org/2000/svg"><path d="M11.040 1.265 C 8.477 1.387,6.066 2.451,4.258 4.258 C 2.644 5.872,1.655 7.888,1.336 10.214 C 1.254 10.811,1.254 12.189,1.336 12.786 C 1.655 15.112,2.644 17.128,4.258 18.742 C 5.675 20.158,7.511 21.146,9.459 21.540 C 10.728 21.797,12.272 21.797,13.541 21.540 C 15.113 21.222,16.673 20.486,17.960 19.454 C 19.749 18.020,21.078 15.825,21.540 13.541 C 21.797 12.272,21.797 10.728,21.540 9.459 C 21.286 8.203,20.755 6.924,20.043 5.854 C 19.612 5.208,19.264 4.781,18.742 4.258 C 17.104 2.621,14.943 1.578,12.660 1.324 C 12.242 1.277,11.415 1.247,11.040 1.265 M12.628 2.821 C 16.199 3.286,19.142 5.919,19.998 9.415 C 20.325 10.748,20.325 12.252,19.998 13.585 C 19.142 17.081,16.199 19.714,12.628 20.179 C 12.023 20.257,10.977 20.257,10.372 20.179 C 7.482 19.802,4.927 17.975,3.662 15.380 C 3.033 14.088,2.760 12.915,2.760 11.502 C 2.760 9.851,3.183 8.331,4.028 6.943 C 4.729 5.793,5.798 4.727,6.963 4.016 C 7.947 3.416,9.174 2.980,10.320 2.825 C 10.896 2.747,12.043 2.745,12.628 2.821 M11.620 8.460 C 11.598 8.467,11.531 8.484,11.471 8.497 C 11.324 8.529,11.081 8.748,11.014 8.908 C 10.974 9.005,10.960 9.282,10.960 9.999 L 10.960 10.960 10.003 10.960 C 8.987 10.960,8.896 10.974,8.706 11.153 C 8.539 11.311,8.469 11.473,8.469 11.700 C 8.469 11.927,8.539 12.089,8.706 12.247 C 8.896 12.426,8.987 12.440,10.003 12.440 L 10.960 12.440 10.960 13.397 C 10.960 14.413,10.974 14.504,11.153 14.694 C 11.311 14.861,11.473 14.931,11.700 14.931 C 11.927 14.931,12.089 14.861,12.247 14.694 C 12.426 14.504,12.440 14.413,12.440 13.397 L 12.440 12.440 13.397 12.440 C 14.413 12.440,14.504 12.426,14.694 12.247 C 14.861 12.089,14.931 11.927,14.931 11.700 C 14.931 11.473,14.861 11.311,14.694 11.153 C 14.504 10.974,14.413 10.960,13.397 10.960 L 12.440 10.960 12.440 10.003 C 12.440 9.423,12.423 9.001,12.397 8.933 C 12.346 8.797,12.177 8.612,12.040 8.542 C 11.932 8.487,11.685 8.438,11.620 8.460 M19.815 19.277 C 19.640 19.320,19.462 19.456,19.356 19.626 C 19.235 19.823,19.232 20.174,19.351 20.364 C 19.397 20.439,19.927 20.988,20.528 21.585 C 21.553 22.605,21.632 22.673,21.810 22.711 C 22.389 22.832,22.832 22.389,22.711 21.810 C 22.673 21.632,22.605 21.553,21.585 20.528 C 20.988 19.927,20.446 19.402,20.380 19.362 C 20.235 19.273,19.985 19.236,19.815 19.277 " stroke="none" fill-rule="evenodd" fill="black"></path></svg>