<svg width="24" height="24" viewBox="0 0 24 24" fill="none" xmlns="http://www.w3.org/2000/svg"><path d="M10.340 1.281 C 6.073 1.553,2.439 4.660,1.499 8.840 C 1.187 10.227,1.187 11.773,1.499 13.160 C 2.317 16.797,5.203 19.683,8.840 20.501 C 10.233 20.814,11.770 20.813,13.176 20.498 C 16.465 19.759,19.161 17.310,20.244 14.076 C 20.795 12.432,20.887 10.556,20.501 8.840 C 19.683 5.203,16.797 2.317,13.160 1.499 C 12.288 1.303,11.254 1.223,10.340 1.281 M11.961 2.802 C 14.366 3.099,16.499 4.405,17.855 6.410 C 18.398 7.212,18.889 8.378,19.077 9.309 C 19.201 9.920,19.240 10.328,19.240 11.000 C 19.240 12.332,18.977 13.465,18.395 14.642 C 17.574 16.301,16.301 17.574,14.642 18.395 C 13.465 18.977,12.332 19.240,11.000 19.240 C 9.675 19.240,8.557 18.982,7.374 18.404 C 4.858 17.174,3.148 14.764,2.802 11.961 C 2.748 11.525,2.748 10.475,2.802 10.039 C 2.997 8.457,3.659 6.916,4.648 5.740 C 4.985 5.340,5.399 4.929,5.816 4.581 C 6.900 3.677,8.498 2.996,9.984 2.806 C 10.379 2.755,11.563 2.753,11.961 2.802 M20.000 17.999 C 19.247 18.102,18.653 18.489,18.343 19.079 C 17.972 19.786,18.004 20.531,18.447 21.440 C 18.618 21.792,18.700 21.909,18.955 22.162 C 19.578 22.780,20.304 22.910,21.063 22.541 C 21.740 22.211,22.455 21.297,22.661 20.500 C 22.852 19.764,22.645 19.014,22.125 18.555 C 21.650 18.136,20.741 17.898,20.000 17.999 M20.871 19.541 C 21.112 19.613,21.240 19.753,21.240 19.945 C 21.240 20.422,20.605 21.239,20.235 21.240 C 19.925 21.240,19.488 20.335,19.599 19.922 C 19.642 19.764,19.801 19.588,19.960 19.525 C 20.114 19.464,20.642 19.473,20.871 19.541 " stroke="none" fill-rule="evenodd" fill="black"></path></svg>