<svg width="24" height="24" viewBox="0 0 24 24" fill="none" xmlns="http://www.w3.org/2000/svg"><path d="M10.340 1.280 C 6.365 1.545,2.939 4.227,1.720 8.027 C 1.200 9.645,1.121 11.482,1.499 13.160 C 2.315 16.789,5.207 19.686,8.824 20.498 C 10.202 20.807,11.740 20.814,13.100 20.516 C 14.906 20.121,16.546 19.218,17.882 17.882 C 19.601 16.163,20.574 14.003,20.720 11.580 C 20.762 10.878,20.728 10.688,20.522 10.482 C 20.175 10.135,19.618 10.203,19.358 10.624 C 19.282 10.746,19.265 10.852,19.238 11.373 C 19.172 12.634,18.906 13.639,18.348 14.740 C 17.106 17.189,14.715 18.858,11.961 19.198 C 11.525 19.252,10.475 19.252,10.039 19.198 C 7.636 18.901,5.500 17.594,4.145 15.590 C 3.602 14.788,3.111 13.622,2.923 12.691 C 2.799 12.080,2.760 11.672,2.760 11.000 C 2.760 9.675,3.018 8.557,3.596 7.374 C 4.826 4.860,7.237 3.148,10.039 2.802 C 10.225 2.779,10.508 2.760,10.667 2.760 C 10.826 2.760,11.049 2.740,11.162 2.716 C 11.800 2.579,11.944 1.709,11.387 1.364 C 11.220 1.261,10.949 1.239,10.340 1.280 M13.815 4.278 C 13.331 4.393,13.098 5.004,13.383 5.408 C 13.447 5.499,13.572 5.610,13.660 5.656 C 13.818 5.739,13.865 5.740,16.878 5.751 C 19.020 5.759,20.000 5.749,20.151 5.718 C 20.902 5.562,20.931 4.473,20.189 4.286 C 19.979 4.234,14.033 4.226,13.815 4.278 M13.815 7.278 C 13.331 7.393,13.098 8.004,13.383 8.408 C 13.447 8.499,13.572 8.610,13.660 8.656 C 13.813 8.736,13.888 8.741,15.373 8.752 C 17.166 8.766,17.287 8.753,17.519 8.521 C 17.918 8.122,17.731 7.423,17.189 7.286 C 16.981 7.234,14.029 7.227,13.815 7.278 M20.000 17.999 C 19.247 18.102,18.653 18.489,18.343 19.079 C 17.972 19.786,18.004 20.531,18.447 21.440 C 18.618 21.792,18.700 21.909,18.955 22.162 C 19.578 22.780,20.304 22.910,21.063 22.541 C 21.740 22.211,22.455 21.297,22.661 20.500 C 22.852 19.764,22.645 19.014,22.125 18.555 C 21.650 18.136,20.741 17.898,20.000 17.999 M20.871 19.541 C 21.112 19.613,21.240 19.753,21.240 19.945 C 21.240 20.422,20.605 21.239,20.235 21.240 C 19.925 21.240,19.488 20.335,19.599 19.922 C 19.642 19.764,19.801 19.588,19.960 19.525 C 20.114 19.464,20.642 19.473,20.871 19.541 " stroke="none" fill-rule="evenodd" fill="black"></path></svg>