<svg width="24" height="24" viewBox="0 0 24 24" fill="none" xmlns="http://www.w3.org/2000/svg"><path d="M11.040 1.265 C 8.477 1.387,6.066 2.451,4.258 4.258 C 2.644 5.872,1.655 7.888,1.336 10.214 C 1.254 10.811,1.254 12.189,1.336 12.786 C 1.655 15.112,2.644 17.128,4.258 18.742 C 5.675 20.158,7.511 21.146,9.459 21.540 C 10.728 21.797,12.272 21.797,13.541 21.540 C 15.113 21.222,16.673 20.486,17.960 19.454 C 19.749 18.020,21.078 15.825,21.540 13.541 C 21.797 12.272,21.797 10.728,21.540 9.459 C 21.286 8.203,20.755 6.924,20.043 5.854 C 19.612 5.208,19.264 4.781,18.742 4.258 C 17.104 2.621,14.943 1.578,12.660 1.324 C 12.242 1.277,11.415 1.247,11.040 1.265 M12.628 2.821 C 16.199 3.286,19.142 5.919,19.998 9.415 C 20.325 10.748,20.325 12.252,19.998 13.585 C 19.142 17.081,16.199 19.714,12.628 20.179 C 12.023 20.257,10.977 20.257,10.372 20.179 C 7.482 19.802,4.927 17.975,3.662 15.380 C 3.033 14.088,2.760 12.915,2.760 11.502 C 2.760 9.851,3.183 8.331,4.028 6.943 C 4.729 5.793,5.798 4.727,6.963 4.016 C 7.947 3.416,9.174 2.980,10.320 2.825 C 10.896 2.747,12.043 2.745,12.628 2.821 M8.720 11.005 C 8.458 11.109,8.269 11.400,8.269 11.700 C 8.269 12.007,8.460 12.295,8.733 12.397 C 8.808 12.426,9.722 12.440,11.500 12.440 C 13.278 12.440,14.192 12.426,14.267 12.397 C 14.540 12.295,14.731 12.007,14.731 11.700 C 14.731 11.393,14.540 11.105,14.267 11.003 C 14.118 10.946,8.862 10.948,8.720 11.005 M19.815 19.277 C 19.640 19.320,19.462 19.456,19.356 19.626 C 19.235 19.823,19.232 20.174,19.351 20.364 C 19.397 20.439,19.927 20.988,20.528 21.585 C 21.553 22.605,21.632 22.673,21.810 22.711 C 22.389 22.832,22.832 22.389,22.711 21.810 C 22.673 21.632,22.605 21.553,21.585 20.528 C 20.988 19.927,20.446 19.402,20.380 19.362 C 20.235 19.273,19.985 19.236,19.815 19.277 " stroke="none" fill-rule="evenodd" fill="black"></path></svg>