<svg width="24" height="24" viewBox="0 0 24 24" fill="none" xmlns="http://www.w3.org/2000/svg"><path d="M11.434 1.282 C 11.222 1.300,10.896 1.351,10.711 1.395 C 10.377 1.474,5.452 3.297,4.973 3.519 C 4.002 3.968,3.151 5.000,2.793 6.163 L 2.701 6.460 2.690 10.717 C 2.677 15.358,2.672 15.244,2.905 15.948 C 3.158 16.714,3.675 17.596,4.176 18.115 C 4.367 18.314,5.109 18.896,6.440 19.892 C 9.579 22.240,9.572 22.236,10.302 22.474 C 10.917 22.675,11.384 22.733,12.193 22.708 C 13.112 22.680,13.577 22.579,14.264 22.256 C 14.655 22.072,14.799 21.969,17.380 20.040 C 19.005 18.826,19.727 18.262,19.892 18.078 C 20.379 17.537,20.858 16.709,21.097 15.993 C 21.347 15.245,21.333 15.522,21.349 11.026 C 21.364 6.591,21.363 6.559,21.154 5.950 C 20.814 4.956,20.011 4.008,19.133 3.563 C 18.910 3.450,14.528 1.791,13.732 1.519 C 13.123 1.310,12.201 1.215,11.434 1.282 M12.818 2.818 C 13.193 2.890,18.286 4.789,18.594 4.973 C 19.052 5.244,19.563 5.917,19.770 6.520 L 19.859 6.780 19.872 10.580 C 19.880 13.044,19.870 14.517,19.842 14.769 C 19.751 15.622,19.280 16.579,18.662 17.170 C 18.228 17.585,14.044 20.689,13.660 20.881 C 13.110 21.155,12.809 21.216,12.000 21.215 C 11.205 21.214,10.915 21.157,10.390 20.901 C 10.043 20.732,5.668 17.484,5.309 17.129 C 4.941 16.766,4.546 16.117,4.352 15.560 C 4.158 15.001,4.160 15.047,4.161 10.847 C 4.161 6.442,4.149 6.643,4.442 6.081 C 4.726 5.535,5.111 5.130,5.566 4.898 C 5.896 4.729,10.891 2.874,11.160 2.820 C 11.521 2.747,12.442 2.746,12.818 2.818 M11.205 6.824 C 9.089 7.179,7.470 8.939,7.285 11.085 C 7.071 13.568,8.790 15.781,11.241 16.178 C 13.959 16.619,16.479 14.656,16.715 11.915 C 16.981 8.821,14.265 6.311,11.205 6.824 M12.800 8.340 C 13.872 8.598,14.839 9.548,15.146 10.642 C 15.248 11.007,15.248 11.993,15.146 12.358 C 14.899 13.239,14.247 14.018,13.420 14.422 C 12.918 14.666,12.607 14.735,12.000 14.735 C 11.393 14.735,11.082 14.666,10.580 14.422 C 9.761 14.022,9.093 13.229,8.860 12.380 C 8.824 12.248,8.784 11.923,8.772 11.657 C 8.726 10.658,9.006 9.921,9.700 9.215 C 10.170 8.737,10.753 8.421,11.387 8.301 C 11.762 8.230,12.417 8.248,12.800 8.340 M11.940 9.577 C 11.791 9.643,11.619 9.824,11.563 9.973 C 11.539 10.035,11.520 10.332,11.519 10.633 C 11.519 10.987,11.501 11.214,11.469 11.278 C 11.441 11.333,11.241 11.483,11.008 11.623 C 10.781 11.759,10.550 11.913,10.494 11.965 C 10.198 12.242,10.179 12.677,10.451 12.986 C 10.602 13.158,10.778 13.240,10.997 13.240 C 11.203 13.240,11.280 13.205,11.887 12.831 C 12.438 12.492,12.656 12.283,12.820 11.935 C 12.965 11.630,13.000 11.391,13.000 10.713 C 13.000 10.097,12.965 9.920,12.808 9.747 C 12.621 9.540,12.205 9.458,11.940 9.577 " stroke="none" fill-rule="evenodd" fill="black"></path></svg>