<svg width="24" height="24" viewBox="0 0 24 24" fill="none" xmlns="http://www.w3.org/2000/svg"><path d="M9.663 1.362 C 9.533 1.382,9.317 1.427,9.183 1.461 C 8.889 1.536,3.783 3.448,3.500 3.590 C 2.509 4.084,1.685 5.121,1.367 6.272 L 1.260 6.660 1.260 10.820 C 1.260 14.082,1.271 15.040,1.312 15.257 C 1.495 16.222,2.054 17.352,2.708 18.078 C 2.873 18.262,3.597 18.827,5.220 20.040 C 6.474 20.978,7.608 21.818,7.740 21.907 C 8.257 22.257,8.830 22.485,9.545 22.625 C 10.082 22.731,11.127 22.720,11.679 22.603 C 12.193 22.495,12.694 22.310,13.085 22.085 C 13.247 21.992,14.413 21.142,15.677 20.198 L 17.973 18.480 18.808 18.480 C 19.267 18.480,19.818 18.461,20.032 18.438 C 21.625 18.268,22.387 17.596,22.662 16.120 C 22.725 15.783,22.735 15.390,22.750 12.663 C 22.773 8.595,22.734 7.990,22.401 7.260 C 22.006 6.392,21.195 5.910,19.960 5.811 L 19.580 5.780 19.446 5.520 C 19.002 4.661,18.334 3.972,17.566 3.583 C 17.229 3.412,12.200 1.536,11.820 1.439 C 11.517 1.362,11.337 1.346,10.680 1.336 C 10.251 1.330,9.794 1.342,9.663 1.362 M11.289 2.859 C 11.539 2.903,12.314 3.176,14.244 3.902 C 15.683 4.444,16.956 4.943,17.073 5.013 C 17.190 5.083,17.415 5.275,17.573 5.440 L 17.860 5.740 14.280 5.763 C 10.515 5.788,10.509 5.788,9.888 5.974 C 9.245 6.166,8.688 6.619,8.428 7.162 C 8.255 7.524,8.133 7.988,8.081 8.487 C 8.027 8.996,8.028 15.249,8.082 15.752 C 8.180 16.672,8.402 17.210,8.876 17.681 C 9.212 18.014,9.498 18.175,10.000 18.313 C 10.573 18.471,10.881 18.490,13.171 18.516 L 15.403 18.540 13.973 19.610 C 13.187 20.198,12.407 20.751,12.240 20.838 C 11.284 21.335,9.884 21.340,8.895 20.851 C 8.462 20.637,4.006 17.291,3.744 16.984 C 3.351 16.521,2.995 15.825,2.838 15.211 C 2.763 14.920,2.760 14.736,2.760 10.884 C 2.761 7.599,2.771 6.822,2.816 6.654 C 2.999 5.967,3.554 5.246,4.119 4.961 C 4.539 4.748,9.481 2.912,9.776 2.859 C 10.167 2.788,10.881 2.788,11.289 2.859 M20.139 7.342 C 20.577 7.420,20.875 7.575,20.988 7.781 C 21.176 8.125,21.210 8.357,21.230 9.450 L 21.249 10.480 15.404 10.480 L 9.560 10.480 9.560 9.650 C 9.561 8.304,9.687 7.756,10.046 7.546 C 10.469 7.298,10.328 7.305,15.000 7.282 C 19.647 7.258,19.674 7.258,20.139 7.342 M21.240 13.750 C 21.240 14.776,21.222 15.651,21.198 15.800 C 21.106 16.384,20.951 16.645,20.609 16.792 C 20.177 16.978,20.124 16.980,15.440 16.980 C 10.766 16.980,10.710 16.978,10.217 16.795 C 9.974 16.705,9.873 16.606,9.757 16.342 C 9.592 15.969,9.561 15.545,9.560 13.690 L 9.560 11.960 15.400 11.960 L 21.240 11.960 21.240 13.750 M11.040 14.565 C 10.778 14.669,10.589 14.960,10.589 15.260 C 10.589 15.487,10.659 15.649,10.826 15.807 C 11.012 15.983,11.114 16.000,11.990 16.000 C 12.940 16.000,13.060 15.969,13.266 15.672 C 13.361 15.534,13.380 15.466,13.380 15.260 C 13.380 15.054,13.361 14.986,13.266 14.848 C 13.058 14.549,12.941 14.520,11.977 14.523 C 11.517 14.524,11.095 14.543,11.040 14.565 M14.407 14.606 C 14.148 14.734,14.020 14.952,14.021 15.262 C 14.021 15.467,14.040 15.536,14.135 15.673 C 14.200 15.766,14.322 15.872,14.417 15.919 C 14.579 15.997,14.656 16.000,16.383 15.999 C 18.041 15.998,18.192 15.993,18.340 15.925 C 18.530 15.837,18.616 15.748,18.698 15.550 C 18.777 15.362,18.777 15.158,18.698 14.970 C 18.616 14.772,18.530 14.683,18.340 14.595 C 18.192 14.527,18.041 14.522,16.380 14.521 C 14.619 14.520,14.576 14.522,14.407 14.606 " stroke="none" fill-rule="evenodd" fill="black"></path></svg>