<svg width="24" height="24" viewBox="0 0 24 24" fill="none" xmlns="http://www.w3.org/2000/svg"><path d="M11.434 1.282 C 11.222 1.300,10.896 1.351,10.711 1.395 C 10.377 1.474,5.452 3.297,4.973 3.519 C 4.002 3.968,3.151 5.000,2.793 6.163 L 2.701 6.460 2.690 10.717 C 2.677 15.360,2.672 15.248,2.906 15.948 C 3.166 16.727,3.675 17.595,4.176 18.115 C 4.367 18.314,5.109 18.896,6.440 19.892 C 9.579 22.240,9.572 22.236,10.302 22.474 C 10.917 22.675,11.384 22.733,12.193 22.708 C 13.112 22.680,13.577 22.579,14.264 22.256 C 14.655 22.072,14.799 21.969,17.380 20.040 C 19.005 18.826,19.727 18.262,19.892 18.078 C 20.379 17.537,20.858 16.709,21.097 15.993 C 21.347 15.245,21.333 15.522,21.349 11.026 C 21.364 6.591,21.363 6.559,21.154 5.950 C 20.814 4.956,20.011 4.008,19.133 3.563 C 18.910 3.450,14.528 1.791,13.732 1.519 C 13.123 1.310,12.201 1.215,11.434 1.282 M12.818 2.818 C 13.193 2.890,18.286 4.789,18.594 4.973 C 19.052 5.244,19.563 5.917,19.770 6.520 L 19.859 6.780 19.872 10.580 C 19.880 13.044,19.870 14.517,19.842 14.769 C 19.751 15.622,19.280 16.579,18.662 17.170 C 18.228 17.585,14.044 20.689,13.660 20.881 C 13.110 21.155,12.809 21.216,12.000 21.215 C 11.205 21.214,10.915 21.157,10.390 20.901 C 10.043 20.732,5.668 17.484,5.309 17.129 C 4.941 16.766,4.546 16.117,4.352 15.560 C 4.158 15.001,4.160 15.047,4.161 10.847 C 4.161 6.442,4.149 6.643,4.442 6.081 C 4.726 5.535,5.111 5.130,5.566 4.898 C 5.896 4.729,10.891 2.874,11.160 2.820 C 11.521 2.747,12.442 2.746,12.818 2.818 M11.600 6.681 C 10.767 6.780,10.030 7.331,9.662 8.128 C 9.022 9.517,9.808 11.193,11.283 11.582 C 11.596 11.665,12.215 11.675,12.520 11.602 C 14.035 11.240,14.868 9.537,14.218 8.128 C 13.749 7.112,12.726 6.546,11.600 6.681 M12.344 8.236 C 12.716 8.405,12.937 8.749,12.938 9.160 C 12.940 9.913,12.161 10.392,11.484 10.055 C 11.086 9.856,10.855 9.381,10.953 8.959 C 11.031 8.620,11.278 8.332,11.600 8.205 C 11.769 8.138,12.164 8.155,12.344 8.236 M11.226 12.482 C 9.942 12.682,8.919 13.407,8.639 14.314 C 8.376 15.163,8.738 16.075,9.560 16.638 C 10.259 17.117,10.996 17.324,12.000 17.324 C 12.897 17.324,13.557 17.162,14.210 16.780 C 15.527 16.009,15.826 14.592,14.896 13.529 C 14.693 13.296,14.180 12.940,13.820 12.781 C 13.305 12.554,12.878 12.471,12.140 12.458 C 11.766 12.451,11.355 12.461,11.226 12.482 M12.820 14.017 C 13.127 14.099,13.515 14.294,13.717 14.466 C 14.139 14.828,13.960 15.260,13.255 15.586 C 12.821 15.787,12.440 15.853,11.862 15.829 C 11.320 15.807,11.017 15.737,10.645 15.549 C 10.331 15.390,10.040 15.085,10.040 14.914 C 10.040 14.519,10.593 14.133,11.380 13.977 C 11.731 13.908,12.489 13.929,12.820 14.017 " stroke="none" fill-rule="evenodd" fill="black"></path></svg>