<svg width="24" height="24" viewBox="0 0 24 24" fill="none" xmlns="http://www.w3.org/2000/svg"><path d="M11.160 1.325 C 10.750 1.391,10.261 1.519,9.900 1.655 C 9.117 1.949,4.203 3.976,3.947 4.110 C 3.420 4.386,2.907 4.949,2.623 5.565 C 2.346 6.167,2.354 6.039,2.370 9.334 C 2.386 12.539,2.386 12.531,2.621 13.560 C 3.132 15.796,4.272 17.838,5.938 19.501 C 7.394 20.954,9.193 22.034,11.064 22.581 C 11.920 22.831,12.489 22.777,13.676 22.334 C 15.318 21.720,16.784 20.773,18.062 19.500 C 19.749 17.819,20.957 15.616,21.419 13.378 C 21.591 12.547,21.602 12.378,21.644 9.940 C 21.705 6.462,21.685 6.166,21.353 5.496 C 21.032 4.848,20.559 4.360,19.960 4.059 C 19.730 3.943,14.609 1.838,14.071 1.638 C 13.380 1.380,12.776 1.280,11.960 1.285 C 11.641 1.288,11.281 1.305,11.160 1.325 M13.080 2.892 C 13.472 2.996,19.119 5.283,19.431 5.465 C 19.622 5.576,19.872 5.872,20.033 6.178 L 20.140 6.380 20.140 9.140 C 20.140 12.089,20.131 12.257,19.933 13.160 C 19.372 15.710,17.825 18.030,15.642 19.598 C 14.684 20.285,13.747 20.759,12.668 21.100 C 12.096 21.281,11.904 21.281,11.332 21.100 C 8.589 20.232,6.239 18.206,4.929 15.580 C 4.432 14.582,4.110 13.577,3.931 12.461 C 3.834 11.855,3.805 6.700,3.897 6.385 C 3.978 6.106,4.243 5.712,4.461 5.545 C 4.578 5.456,5.576 5.028,7.527 4.230 C 10.658 2.950,10.767 2.908,11.230 2.821 C 11.708 2.730,12.595 2.764,13.080 2.892 M11.387 7.825 C 10.598 7.994,9.900 8.552,9.540 9.300 C 9.334 9.727,9.270 10.013,9.270 10.500 C 9.270 10.991,9.334 11.273,9.548 11.717 C 9.699 12.032,9.783 12.149,10.054 12.417 C 10.392 12.752,10.760 12.996,11.061 13.085 L 11.235 13.136 11.248 14.418 C 11.261 15.817,11.261 15.815,11.506 16.047 C 11.647 16.181,11.799 16.240,12.000 16.240 C 12.201 16.240,12.353 16.181,12.494 16.047 C 12.739 15.815,12.739 15.817,12.752 14.418 L 12.765 13.136 12.939 13.085 C 13.240 12.996,13.608 12.752,13.946 12.417 C 14.217 12.149,14.301 12.032,14.452 11.717 C 14.666 11.273,14.730 10.991,14.730 10.500 C 14.730 10.013,14.666 9.727,14.460 9.300 C 14.187 8.731,13.675 8.233,13.110 7.983 C 12.629 7.770,11.938 7.707,11.387 7.825 M12.499 9.355 C 13.131 9.635,13.420 10.400,13.126 11.020 C 12.908 11.481,12.507 11.736,12.000 11.736 C 11.485 11.736,11.073 11.469,10.861 10.996 C 10.766 10.784,10.754 10.712,10.766 10.446 C 10.787 10.003,10.987 9.659,11.358 9.429 C 11.678 9.231,12.149 9.200,12.499 9.355 " stroke="none" fill-rule="evenodd" fill="black"></path></svg>