<svg width="24" height="24" viewBox="0 0 24 24" fill="none" xmlns="http://www.w3.org/2000/svg"><path d="M4.980 2.280 C 3.583 2.406,2.629 3.253,2.376 4.592 C 2.282 5.091,2.319 6.053,2.457 6.676 C 2.697 7.764,2.966 8.455,3.853 10.257 L 4.540 11.654 4.553 11.977 L 4.566 12.300 3.892 13.660 C 2.733 15.997,2.378 17.082,2.331 18.420 C 2.290 19.610,2.508 20.267,3.163 20.925 C 3.647 21.410,4.196 21.645,5.020 21.719 C 5.977 21.805,7.125 21.579,8.510 21.034 C 9.202 20.761,18.455 16.163,19.090 15.776 C 20.793 14.739,21.680 13.445,21.680 12.000 C 21.680 10.556,20.792 9.261,19.093 8.226 C 18.561 7.902,9.447 3.355,8.735 3.059 C 7.660 2.611,6.740 2.361,5.880 2.282 C 5.627 2.259,5.393 2.243,5.360 2.246 C 5.327 2.249,5.156 2.264,4.980 2.280 M6.620 3.915 C 7.179 4.056,7.494 4.161,8.102 4.410 C 8.852 4.718,18.178 9.402,18.600 9.683 C 19.068 9.994,19.684 10.604,19.891 10.960 C 20.103 11.324,20.178 11.597,20.178 12.000 C 20.178 12.403,20.103 12.676,19.891 13.040 C 19.684 13.396,19.068 14.006,18.600 14.317 C 18.102 14.649,8.629 19.387,7.887 19.675 C 6.092 20.373,4.736 20.431,4.174 19.834 C 3.887 19.528,3.777 19.111,3.810 18.448 C 3.865 17.343,4.261 16.229,5.420 13.920 C 5.691 13.381,5.924 12.900,5.939 12.850 L 5.965 12.760 8.381 12.760 C 9.994 12.760,10.865 12.745,11.002 12.716 C 11.744 12.557,11.764 11.471,11.029 11.286 C 10.900 11.254,10.118 11.239,8.412 11.238 L 5.980 11.237 5.370 9.988 C 4.409 8.022,4.153 7.391,3.937 6.459 C 3.844 6.057,3.825 5.887,3.824 5.400 C 3.821 4.881,3.831 4.795,3.915 4.585 C 4.075 4.185,4.349 3.947,4.800 3.814 C 4.926 3.777,5.152 3.766,5.560 3.778 C 6.035 3.792,6.227 3.817,6.620 3.915 " stroke="none" fill-rule="evenodd" fill="black"></path></svg>