<svg width="24" height="24" viewBox="0 0 24 24" fill="none" xmlns="http://www.w3.org/2000/svg"><path d="M17.428 2.402 C 16.993 2.441,16.548 2.528,15.999 2.682 C 15.298 2.878,6.778 5.734,6.220 5.960 C 3.535 7.046,2.185 8.506,2.401 10.087 C 2.532 11.047,3.112 11.825,4.277 12.607 C 5.120 13.172,6.025 13.567,7.980 14.222 C 8.684 14.458,9.280 14.671,9.304 14.696 C 9.329 14.720,9.542 15.316,9.778 16.020 C 10.270 17.489,10.507 18.095,10.864 18.803 C 11.882 20.816,13.162 21.789,14.539 21.598 C 15.916 21.406,17.092 20.124,18.040 17.780 C 18.255 17.249,21.052 8.919,21.299 8.075 C 21.823 6.285,21.701 4.804,20.944 3.744 C 20.408 2.994,19.537 2.522,18.467 2.403 C 18.047 2.356,17.951 2.356,17.428 2.402 M18.697 3.959 C 19.382 4.134,19.775 4.514,20.024 5.240 C 20.129 5.546,20.132 6.550,20.028 7.040 C 19.924 7.535,16.758 17.004,16.498 17.599 C 15.945 18.864,15.268 19.752,14.637 20.038 C 14.401 20.145,14.039 20.145,13.803 20.038 C 13.167 19.750,12.489 18.857,11.935 17.579 C 11.811 17.294,11.487 16.395,11.215 15.582 L 10.720 14.103 12.536 12.282 C 14.170 10.643,14.357 10.442,14.400 10.282 C 14.560 9.680,13.988 9.147,13.413 9.362 C 13.351 9.385,12.454 10.250,11.419 11.283 L 9.538 13.161 8.239 12.725 C 6.293 12.073,5.427 11.666,4.689 11.057 C 4.123 10.590,3.882 10.210,3.881 9.780 C 3.881 9.436,4.012 9.181,4.391 8.791 C 4.905 8.261,5.755 7.749,6.820 7.329 C 7.469 7.073,16.592 4.051,16.920 3.984 C 17.364 3.893,17.379 3.891,17.904 3.885 C 18.269 3.881,18.463 3.899,18.697 3.959 " stroke="none" fill-rule="evenodd" fill="black"></path></svg>