<svg width="24" height="24" viewBox="0 0 24 24" fill="none" xmlns="http://www.w3.org/2000/svg"><path d="M4.613 2.861 C 4.521 2.916,4.404 3.028,4.353 3.111 L 4.260 3.260 4.260 8.580 C 4.260 11.506,4.273 13.948,4.290 14.007 C 4.362 14.265,4.708 14.517,4.991 14.519 C 5.253 14.521,5.538 14.346,5.674 14.100 C 5.734 13.991,5.741 13.592,5.751 9.661 L 5.762 5.343 12.151 11.730 C 16.690 16.268,18.583 18.135,18.689 18.178 C 19.069 18.336,19.478 18.187,19.669 17.821 C 19.752 17.662,19.748 17.332,19.662 17.159 C 19.623 17.082,16.724 14.150,13.206 10.630 L 6.821 4.240 11.132 4.240 C 15.291 4.240,15.448 4.237,15.592 4.164 C 15.874 4.019,16.000 3.814,16.000 3.500 C 16.000 3.186,15.874 2.981,15.592 2.836 C 15.448 2.762,15.274 2.760,10.112 2.760 L 4.780 2.761 4.613 2.861 M3.420 21.259 C 3.398 21.267,3.331 21.284,3.271 21.297 C 3.211 21.310,3.095 21.379,3.015 21.450 C 2.669 21.753,2.669 22.247,3.015 22.550 C 3.095 22.621,3.211 22.693,3.271 22.709 C 3.414 22.749,20.586 22.749,20.729 22.709 C 20.881 22.667,21.121 22.447,21.186 22.292 C 21.251 22.137,21.256 21.887,21.197 21.733 C 21.145 21.593,20.979 21.414,20.820 21.326 C 20.709 21.265,20.030 21.259,12.080 21.253 C 7.339 21.249,3.442 21.252,3.420 21.259 " stroke="none" fill-rule="evenodd" fill="black"></path></svg>