<svg width="24" height="24" viewBox="0 0 24 24" fill="none" xmlns="http://www.w3.org/2000/svg"><path d="M4.815 1.277 C 4.638 1.321,4.461 1.456,4.353 1.631 L 4.260 1.780 4.260 4.500 L 4.260 7.220 4.353 7.369 C 4.710 7.943,5.576 7.812,5.716 7.162 C 5.775 6.888,5.775 2.095,5.717 1.841 C 5.623 1.432,5.215 1.177,4.815 1.277 M11.815 1.277 C 11.638 1.321,11.461 1.456,11.353 1.631 L 11.260 1.780 11.249 7.006 L 11.239 12.232 10.506 12.246 C 9.790 12.260,9.771 12.262,9.612 12.367 C 9.372 12.526,9.267 12.721,9.267 13.007 C 9.267 13.203,9.286 13.270,9.383 13.408 C 9.447 13.499,9.572 13.610,9.660 13.656 C 9.815 13.738,9.880 13.740,11.875 13.752 C 14.208 13.765,14.281 13.759,14.519 13.521 C 14.918 13.122,14.731 12.423,14.189 12.286 C 14.087 12.261,13.725 12.240,13.382 12.240 L 12.760 12.240 12.759 7.130 C 12.758 3.763,12.744 1.959,12.717 1.841 C 12.623 1.432,12.215 1.177,11.815 1.277 M18.815 1.277 C 18.638 1.321,18.461 1.456,18.353 1.631 L 18.260 1.780 18.260 4.500 L 18.260 7.220 18.353 7.369 C 18.710 7.943,19.576 7.812,19.716 7.162 C 19.775 6.888,19.775 2.095,19.717 1.841 C 19.623 1.432,19.215 1.177,18.815 1.277 M2.815 10.278 C 2.331 10.393,2.098 11.004,2.383 11.408 C 2.590 11.700,2.715 11.738,3.529 11.754 L 4.239 11.768 4.249 16.994 L 4.260 22.220 4.353 22.369 C 4.710 22.943,5.576 22.812,5.716 22.162 C 5.747 22.018,5.760 20.430,5.760 16.858 L 5.760 11.760 6.358 11.760 C 7.121 11.760,7.321 11.719,7.520 11.520 C 7.918 11.122,7.730 10.423,7.189 10.286 C 6.980 10.234,3.031 10.226,2.815 10.278 M16.815 10.278 C 16.331 10.393,16.098 11.004,16.383 11.408 C 16.590 11.700,16.715 11.738,17.529 11.754 L 18.239 11.768 18.249 16.994 L 18.260 22.220 18.353 22.369 C 18.710 22.943,19.576 22.812,19.716 22.162 C 19.747 22.018,19.760 20.430,19.760 16.858 L 19.760 11.760 20.358 11.760 C 21.121 11.760,21.321 11.719,21.520 11.520 C 21.918 11.122,21.730 10.423,21.189 10.286 C 20.980 10.234,17.031 10.226,16.815 10.278 M11.815 16.277 C 11.638 16.321,11.461 16.456,11.353 16.631 L 11.260 16.780 11.260 19.500 L 11.260 22.220 11.353 22.369 C 11.710 22.943,12.576 22.812,12.716 22.162 C 12.775 21.888,12.775 17.095,12.717 16.841 C 12.623 16.432,12.215 16.177,11.815 16.277 " stroke="none" fill-rule="evenodd" fill="black"></path></svg>