<svg width="24" height="24" viewBox="0 0 24 24" fill="none" xmlns="http://www.w3.org/2000/svg"><path d="M11.180 6.822 C 10.120 7.001,9.120 7.500,8.345 8.237 C 7.645 8.903,7.064 9.968,6.869 10.940 L 6.813 11.220 4.297 11.240 L 1.780 11.260 1.627 11.355 C 1.385 11.506,1.267 11.718,1.267 12.003 C 1.267 12.203,1.286 12.270,1.383 12.408 C 1.447 12.499,1.572 12.610,1.660 12.656 C 1.816 12.738,1.882 12.740,4.317 12.760 L 6.813 12.780 6.869 13.060 C 7.015 13.791,7.354 14.536,7.824 15.160 C 9.332 17.160,12.037 17.804,14.302 16.702 C 15.057 16.334,15.672 15.828,16.176 15.160 C 16.646 14.536,16.985 13.791,17.131 13.060 L 17.187 12.780 19.683 12.760 C 22.029 12.741,22.189 12.735,22.332 12.664 C 22.863 12.401,22.863 11.599,22.332 11.336 C 22.189 11.265,22.029 11.259,19.683 11.240 L 17.187 11.220 17.131 10.940 C 16.985 10.209,16.646 9.464,16.176 8.840 C 15.354 7.751,14.167 7.044,12.781 6.819 C 12.342 6.748,11.613 6.749,11.180 6.822 M12.806 8.336 C 14.207 8.642,15.355 9.795,15.669 11.210 C 15.755 11.599,15.756 12.408,15.670 12.786 C 15.511 13.492,15.163 14.121,14.642 14.642 C 14.121 15.163,13.492 15.512,12.786 15.670 C 12.405 15.756,11.595 15.756,11.214 15.670 C 9.783 15.348,8.651 14.219,8.331 12.790 C 8.244 12.405,8.244 11.597,8.330 11.214 C 8.669 9.707,9.864 8.568,11.393 8.297 C 11.755 8.233,12.417 8.251,12.806 8.336 " stroke="none" fill-rule="evenodd" fill="black"></path></svg>