<svg width="24" height="24" viewBox="0 0 24 24" fill="none" xmlns="http://www.w3.org/2000/svg"><path d="M11.476 1.401 C 11.122 1.443,10.767 1.537,10.446 1.674 C 10.124 1.811,4.816 4.880,4.280 5.239 C 2.674 6.312,2.362 6.759,2.279 8.098 C 2.231 8.873,2.231 15.067,2.279 15.880 C 2.359 17.248,2.670 17.690,4.320 18.787 C 4.984 19.227,10.229 22.243,10.549 22.368 C 11.124 22.592,11.809 22.675,12.479 22.601 C 13.288 22.511,13.330 22.490,16.480 20.669 C 18.053 19.760,19.511 18.901,19.720 18.762 C 21.334 17.682,21.641 17.239,21.721 15.880 C 21.768 15.074,21.768 8.926,21.721 8.120 C 21.641 6.761,21.334 6.318,19.720 5.238 C 19.511 5.099,18.053 4.240,16.480 3.331 C 13.348 1.520,13.285 1.490,12.511 1.403 C 12.083 1.356,11.871 1.355,11.476 1.401 M12.650 2.943 C 12.959 3.017,12.860 2.963,15.920 4.731 C 18.593 6.275,19.400 6.781,19.845 7.192 C 20.252 7.567,20.220 7.160,20.220 12.000 C 20.220 16.840,20.252 16.433,19.845 16.808 C 19.719 16.925,19.392 17.175,19.118 17.365 C 18.560 17.751,13.233 20.844,12.880 20.986 C 12.408 21.177,11.592 21.177,11.120 20.986 C 10.767 20.844,5.440 17.751,4.882 17.365 C 4.608 17.175,4.281 16.925,4.155 16.808 C 3.748 16.433,3.780 16.840,3.780 12.000 C 3.780 7.160,3.748 7.567,4.155 7.192 C 4.281 7.075,4.608 6.825,4.882 6.635 C 5.445 6.246,10.768 3.156,11.125 3.012 C 11.532 2.847,12.141 2.820,12.650 2.943 M11.740 8.266 C 10.415 8.385,9.327 9.085,8.719 10.212 C 8.400 10.803,8.271 11.320,8.271 12.000 C 8.271 12.682,8.400 13.197,8.721 13.792 C 9.078 14.453,9.549 14.923,10.212 15.281 C 10.803 15.600,11.320 15.729,12.000 15.729 C 12.680 15.729,13.197 15.600,13.788 15.281 C 14.451 14.923,14.922 14.453,15.279 13.792 C 15.600 13.197,15.729 12.682,15.729 12.000 C 15.729 11.320,15.600 10.803,15.281 10.212 C 14.832 9.381,14.122 8.779,13.215 8.463 C 12.793 8.316,12.149 8.230,11.740 8.266 M12.578 9.821 C 12.949 9.918,13.274 10.112,13.581 10.419 C 14.041 10.879,14.240 11.356,14.240 12.000 C 14.240 12.644,14.041 13.121,13.581 13.581 C 13.121 14.041,12.644 14.240,12.000 14.240 C 11.356 14.240,10.879 14.041,10.419 13.581 C 9.959 13.121,9.760 12.644,9.760 12.000 C 9.760 11.356,9.959 10.879,10.419 10.419 C 10.719 10.118,11.050 9.919,11.404 9.823 C 11.692 9.746,12.285 9.745,12.578 9.821 " stroke="none" fill-rule="evenodd" fill="black"></path></svg>