<svg width="24" height="24" viewBox="0 0 24 24" fill="none" xmlns="http://www.w3.org/2000/svg"><path d="M8.080 1.282 C 4.008 1.495,1.895 3.296,1.383 6.991 C 1.270 7.803,1.242 8.816,1.242 12.000 C 1.242 16.504,1.302 17.273,1.760 18.650 C 2.532 20.963,4.206 22.226,7.027 22.622 C 7.786 22.728,8.902 22.759,12.000 22.759 C 15.098 22.759,16.214 22.728,16.973 22.622 C 19.443 22.275,20.996 21.288,21.897 19.490 C 22.379 18.530,22.638 17.369,22.720 15.807 C 22.771 14.838,22.771 9.162,22.720 8.193 C 22.657 6.998,22.521 6.191,22.242 5.356 C 21.632 3.531,20.469 2.367,18.650 1.760 C 17.788 1.473,17.023 1.344,15.806 1.280 C 14.952 1.235,8.952 1.237,8.080 1.282 M16.800 2.854 C 19.586 3.316,20.714 4.454,21.148 7.240 C 21.214 7.661,21.220 8.064,21.220 12.000 C 21.220 15.936,21.214 16.339,21.148 16.760 C 20.712 19.558,19.558 20.712,16.760 21.148 C 16.339 21.214,15.936 21.220,12.000 21.220 C 8.064 21.220,7.661 21.214,7.240 21.148 C 4.450 20.713,3.283 19.551,2.854 16.780 C 2.785 16.335,2.780 15.989,2.780 12.000 C 2.780 7.247,2.776 7.337,3.044 6.288 C 3.557 4.282,4.722 3.274,6.960 2.900 C 7.690 2.777,8.048 2.769,12.200 2.777 C 15.963 2.784,16.422 2.791,16.800 2.854 M8.087 4.846 C 7.985 4.896,7.869 4.998,7.807 5.093 L 7.700 5.254 7.688 7.357 C 7.679 8.786,7.689 9.508,7.719 9.608 C 7.813 9.929,8.086 10.131,8.423 10.131 C 8.692 10.131,8.935 9.997,9.064 9.777 L 9.160 9.613 9.160 7.469 C 9.160 6.048,9.146 5.287,9.117 5.213 C 8.972 4.829,8.477 4.653,8.087 4.846 M15.260 4.823 C 15.118 4.897,14.971 5.029,14.906 5.140 C 14.878 5.189,14.852 5.518,14.840 6.000 L 14.820 6.780 14.560 6.864 C 13.500 7.206,12.663 8.066,12.358 9.127 C 12.251 9.499,12.211 10.240,12.277 10.622 C 12.414 11.409,12.879 12.197,13.476 12.657 C 14.832 13.700,16.652 13.622,17.867 12.468 C 19.125 11.273,19.258 9.361,18.180 7.960 C 17.829 7.503,17.189 7.058,16.631 6.881 L 16.326 6.784 16.313 6.019 L 16.300 5.253 16.186 5.088 C 15.984 4.797,15.549 4.673,15.260 4.823 M16.253 8.325 C 16.741 8.524,17.204 9.027,17.346 9.513 C 17.482 9.983,17.394 10.661,17.151 11.018 C 16.764 11.585,16.217 11.889,15.580 11.891 C 15.171 11.892,14.874 11.805,14.554 11.590 C 13.763 11.058,13.498 10.057,13.922 9.208 C 14.056 8.940,14.452 8.537,14.711 8.405 C 15.160 8.176,15.805 8.142,16.253 8.325 M7.833 10.660 C 7.178 10.784,6.617 11.072,6.133 11.532 C 4.874 12.728,4.741 14.638,5.820 16.040 C 6.171 16.497,6.811 16.942,7.369 17.119 L 7.674 17.216 7.687 17.981 L 7.700 18.747 7.814 18.912 C 8.080 19.295,8.601 19.347,8.954 19.025 C 9.127 18.868,9.139 18.805,9.160 18.000 L 9.180 17.220 9.440 17.136 C 10.500 16.794,11.337 15.934,11.642 14.873 C 11.749 14.501,11.789 13.760,11.723 13.378 C 11.453 11.828,10.138 10.681,8.560 10.618 C 8.291 10.608,8.030 10.623,7.833 10.660 M8.987 12.183 C 9.271 12.262,9.663 12.536,9.879 12.807 C 10.328 13.370,10.404 14.138,10.078 14.792 C 9.931 15.085,9.523 15.485,9.233 15.620 C 8.775 15.832,8.191 15.853,7.747 15.674 C 7.261 15.478,6.798 14.976,6.653 14.487 C 6.512 14.013,6.599 13.357,6.852 12.980 C 7.346 12.244,8.137 11.949,8.987 12.183 M15.414 13.878 C 15.212 13.926,15.024 14.064,14.928 14.233 C 14.840 14.391,14.840 14.396,14.840 16.545 C 14.840 18.518,14.846 18.712,14.910 18.837 C 15.164 19.334,15.864 19.375,16.186 18.912 L 16.300 18.747 16.312 16.643 C 16.321 15.215,16.311 14.492,16.281 14.392 C 16.173 14.021,15.784 13.791,15.414 13.878 " stroke="none" fill-rule="evenodd" fill="black"></path></svg>