<svg width="24" height="24" viewBox="0 0 24 24" fill="none" xmlns="http://www.w3.org/2000/svg"><path d="M9.579 2.282 C 7.993 2.438,6.587 3.510,6.033 4.988 C 5.986 5.116,5.917 5.337,5.881 5.480 L 5.815 5.740 3.777 5.760 C 2.333 5.774,1.717 5.794,1.660 5.827 C 1.554 5.888,1.382 6.075,1.319 6.198 C 1.291 6.252,1.269 6.388,1.269 6.500 C 1.269 6.612,1.291 6.748,1.319 6.802 C 1.382 6.925,1.554 7.112,1.660 7.173 C 1.717 7.206,2.333 7.226,3.777 7.240 L 5.815 7.260 5.881 7.520 C 6.287 9.126,7.537 10.316,9.180 10.660 C 9.605 10.749,10.395 10.749,10.820 10.660 C 12.120 10.388,13.207 9.563,13.799 8.401 C 14.288 7.443,14.371 6.166,14.013 5.122 C 13.379 3.273,11.532 2.090,9.579 2.282 M10.696 3.839 C 11.179 3.962,11.529 4.168,11.923 4.559 C 12.303 4.936,12.459 5.181,12.625 5.660 C 12.723 5.946,12.735 6.036,12.735 6.500 C 12.735 6.964,12.723 7.054,12.625 7.340 C 12.459 7.819,12.303 8.064,11.923 8.441 C 11.361 8.999,10.780 9.240,10.000 9.240 C 9.220 9.240,8.639 8.999,8.077 8.441 C 7.697 8.064,7.541 7.819,7.375 7.340 C 7.277 7.054,7.265 6.964,7.265 6.500 C 7.265 6.036,7.277 5.946,7.375 5.660 C 7.541 5.181,7.697 4.936,8.077 4.559 C 8.466 4.173,8.819 3.964,9.289 3.841 C 9.689 3.736,10.289 3.735,10.696 3.839 M15.720 5.805 C 15.458 5.909,15.269 6.200,15.269 6.500 C 15.269 6.807,15.460 7.095,15.733 7.197 C 15.809 7.226,16.868 7.240,19.000 7.240 C 21.132 7.240,22.191 7.226,22.267 7.197 C 22.540 7.095,22.731 6.807,22.731 6.500 C 22.731 6.193,22.540 5.905,22.267 5.803 C 22.117 5.746,15.863 5.748,15.720 5.805 M13.579 13.282 C 11.937 13.443,10.522 14.562,9.987 16.122 C 9.397 17.843,9.995 19.809,11.434 20.876 C 12.215 21.454,13.038 21.727,14.000 21.727 C 15.194 21.727,16.280 21.263,17.086 20.409 C 17.598 19.866,17.916 19.283,18.117 18.520 L 18.185 18.260 20.223 18.240 C 21.667 18.226,22.283 18.206,22.340 18.173 C 22.446 18.112,22.618 17.925,22.681 17.802 C 22.746 17.676,22.746 17.324,22.681 17.198 C 22.618 17.075,22.446 16.888,22.340 16.827 C 22.283 16.794,21.667 16.774,20.223 16.760 L 18.185 16.740 18.119 16.480 C 17.602 14.433,15.675 13.076,13.579 13.282 M14.696 14.839 C 15.179 14.962,15.529 15.168,15.923 15.559 C 16.303 15.936,16.459 16.181,16.625 16.660 C 16.723 16.946,16.735 17.036,16.735 17.500 C 16.735 17.964,16.723 18.054,16.625 18.340 C 16.459 18.819,16.303 19.064,15.923 19.441 C 15.361 19.999,14.780 20.240,14.000 20.240 C 13.220 20.240,12.639 19.999,12.077 19.441 C 11.697 19.064,11.541 18.819,11.375 18.340 C 11.277 18.054,11.265 17.964,11.265 17.500 C 11.265 17.036,11.277 16.946,11.375 16.660 C 11.541 16.181,11.697 15.936,12.077 15.559 C 12.466 15.173,12.819 14.964,13.289 14.841 C 13.689 14.736,14.289 14.735,14.696 14.839 M1.720 16.805 C 1.458 16.909,1.269 17.200,1.269 17.500 C 1.269 17.807,1.460 18.095,1.733 18.197 C 1.809 18.226,2.868 18.240,5.000 18.240 C 7.132 18.240,8.191 18.226,8.267 18.197 C 8.540 18.095,8.731 17.807,8.731 17.500 C 8.731 17.193,8.540 16.905,8.267 16.803 C 8.117 16.746,1.863 16.748,1.720 16.805 " stroke="none" fill-rule="evenodd" fill="black"></path></svg>