<svg width="24" height="24" viewBox="0 0 24 24" fill="none" xmlns="http://www.w3.org/2000/svg"><path d="M8.431 1.839 C 8.326 1.858,8.152 1.903,8.044 1.939 C 7.821 2.013,5.864 3.117,5.559 3.341 C 4.942 3.794,4.559 4.579,4.551 5.411 C 4.546 5.903,4.602 6.119,4.901 6.760 C 5.040 7.057,5.165 7.382,5.180 7.483 C 5.240 7.890,5.012 8.239,4.599 8.373 C 4.475 8.413,4.152 8.460,3.855 8.480 C 3.508 8.503,3.245 8.544,3.075 8.601 C 2.402 8.827,1.829 9.335,1.521 9.980 C 1.272 10.501,1.260 10.594,1.260 12.000 C 1.260 13.406,1.272 13.499,1.521 14.020 C 1.774 14.549,2.249 15.027,2.771 15.276 C 3.106 15.436,3.289 15.476,3.870 15.518 C 4.140 15.537,4.463 15.585,4.588 15.624 C 5.010 15.757,5.241 16.105,5.180 16.517 C 5.165 16.618,5.040 16.943,4.901 17.240 C 4.602 17.881,4.546 18.097,4.551 18.589 C 4.559 19.421,4.942 20.206,5.559 20.659 C 5.921 20.925,7.852 22.000,8.119 22.085 C 8.455 22.192,9.033 22.201,9.397 22.105 C 10.056 21.933,10.489 21.594,10.944 20.895 C 11.378 20.227,11.646 20.000,12.000 20.000 C 12.366 20.000,12.651 20.229,13.008 20.810 C 13.142 21.028,13.340 21.303,13.448 21.421 C 14.088 22.121,15.181 22.373,16.054 22.021 C 16.184 21.968,16.759 21.658,17.329 21.332 C 18.492 20.669,18.765 20.456,19.055 19.988 C 19.577 19.146,19.602 18.126,19.123 17.270 C 18.647 16.421,18.757 15.851,19.439 15.616 C 19.528 15.585,19.840 15.543,20.131 15.522 C 20.447 15.499,20.764 15.451,20.920 15.403 C 21.704 15.159,22.395 14.453,22.647 13.640 C 22.736 13.351,22.740 13.289,22.740 12.000 C 22.740 10.711,22.736 10.649,22.647 10.360 C 22.395 9.547,21.704 8.841,20.920 8.597 C 20.764 8.549,20.447 8.501,20.131 8.478 C 19.840 8.457,19.528 8.415,19.439 8.384 C 18.757 8.149,18.647 7.579,19.123 6.730 C 19.187 6.615,19.288 6.381,19.347 6.210 C 19.436 5.950,19.454 5.829,19.455 5.460 C 19.458 4.868,19.348 4.485,19.028 3.971 C 18.763 3.544,18.470 3.318,17.329 2.668 C 16.759 2.342,16.183 2.032,16.051 1.978 C 15.182 1.627,14.085 1.881,13.444 2.583 C 13.334 2.703,13.154 2.951,13.044 3.133 C 12.674 3.746,12.371 4.000,12.010 4.000 C 11.637 4.000,11.415 3.820,10.985 3.166 C 10.485 2.406,10.075 2.072,9.434 1.905 C 9.141 1.829,8.664 1.798,8.431 1.839 M9.180 3.395 C 9.377 3.484,9.554 3.684,9.840 4.139 C 10.249 4.790,10.892 5.293,11.500 5.439 C 11.757 5.500,12.244 5.500,12.500 5.438 C 12.955 5.328,13.466 5.009,13.808 4.621 C 13.900 4.516,14.102 4.240,14.257 4.007 C 14.605 3.486,14.774 3.353,15.120 3.328 C 15.265 3.317,15.412 3.331,15.490 3.362 C 15.562 3.391,16.043 3.654,16.560 3.948 C 17.596 4.536,17.783 4.689,17.902 5.046 C 18.018 5.395,17.969 5.696,17.708 6.240 C 17.439 6.801,17.359 7.114,17.354 7.627 C 17.347 8.308,17.568 8.825,18.059 9.272 C 18.507 9.681,19.097 9.898,19.922 9.956 C 20.463 9.995,20.670 10.070,20.920 10.320 C 21.249 10.649,21.260 10.703,21.260 12.000 C 21.260 13.297,21.249 13.351,20.920 13.680 C 20.668 13.932,20.464 14.005,19.909 14.044 C 19.100 14.100,18.506 14.320,18.059 14.728 C 17.576 15.168,17.347 15.693,17.353 16.345 C 17.358 16.854,17.451 17.225,17.708 17.760 C 17.969 18.304,18.018 18.605,17.902 18.954 C 17.784 19.309,17.595 19.465,16.580 20.043 C 15.506 20.655,15.451 20.680,15.200 20.680 C 14.822 20.680,14.582 20.513,14.297 20.050 C 13.807 19.253,13.321 18.826,12.645 18.601 C 12.349 18.502,11.818 18.484,11.500 18.562 C 10.860 18.719,10.212 19.242,9.776 19.954 C 9.539 20.339,9.383 20.510,9.180 20.604 C 8.982 20.696,8.640 20.702,8.468 20.616 C 8.113 20.440,6.538 19.527,6.417 19.427 C 6.340 19.364,6.229 19.219,6.169 19.106 C 6.078 18.932,6.062 18.851,6.062 18.580 C 6.063 18.276,6.073 18.239,6.269 17.840 C 6.556 17.257,6.657 16.879,6.658 16.380 C 6.660 15.952,6.608 15.703,6.449 15.380 C 6.051 14.571,5.277 14.132,4.089 14.042 C 3.536 14.000,3.343 13.933,3.105 13.699 C 3.020 13.615,2.907 13.455,2.855 13.343 C 2.763 13.144,2.761 13.115,2.761 12.000 C 2.761 10.885,2.763 10.856,2.855 10.657 C 2.907 10.545,3.020 10.385,3.105 10.301 C 3.343 10.067,3.536 10.000,4.089 9.958 C 5.279 9.867,6.044 9.433,6.449 8.618 C 6.607 8.299,6.660 8.049,6.658 7.620 C 6.657 7.121,6.556 6.743,6.269 6.160 C 6.073 5.761,6.063 5.724,6.062 5.420 C 6.062 5.149,6.078 5.068,6.169 4.894 C 6.229 4.781,6.340 4.636,6.417 4.573 C 6.531 4.479,8.023 3.611,8.460 3.385 C 8.624 3.300,8.983 3.305,9.180 3.395 M11.740 8.266 C 10.415 8.385,9.327 9.085,8.719 10.212 C 8.400 10.803,8.271 11.320,8.271 12.000 C 8.271 12.682,8.400 13.197,8.721 13.792 C 9.078 14.453,9.549 14.923,10.212 15.281 C 10.803 15.600,11.320 15.729,12.000 15.729 C 12.680 15.729,13.197 15.600,13.788 15.281 C 14.451 14.923,14.922 14.453,15.279 13.792 C 15.600 13.197,15.729 12.682,15.729 12.000 C 15.729 11.320,15.600 10.803,15.281 10.212 C 14.832 9.381,14.122 8.779,13.215 8.463 C 12.793 8.316,12.149 8.230,11.740 8.266 M12.578 9.821 C 12.949 9.918,13.274 10.112,13.581 10.419 C 14.041 10.879,14.240 11.356,14.240 12.000 C 14.240 12.644,14.041 13.121,13.581 13.581 C 13.121 14.041,12.644 14.240,12.000 14.240 C 11.356 14.240,10.879 14.041,10.419 13.581 C 9.959 13.121,9.760 12.644,9.760 12.000 C 9.760 11.356,9.959 10.879,10.419 10.419 C 10.719 10.118,11.050 9.919,11.404 9.823 C 11.692 9.746,12.285 9.745,12.578 9.821 " stroke="none" fill-rule="evenodd" fill="black"></path></svg>