<svg width="24" height="24" viewBox="0 0 24 24" fill="none" xmlns="http://www.w3.org/2000/svg"><path d="M15.980 1.283 C 13.279 1.490,11.044 3.406,10.398 6.070 L 10.357 6.240 8.828 6.241 C 6.201 6.242,5.265 6.337,4.260 6.709 C 2.796 7.249,1.921 8.253,1.499 9.874 C 1.263 10.784,1.260 10.839,1.260 14.500 C 1.260 17.542,1.267 17.904,1.332 18.320 C 1.412 18.826,1.554 19.389,1.704 19.787 C 2.226 21.174,3.281 22.073,4.860 22.477 C 5.841 22.727,6.768 22.776,10.080 22.748 C 11.529 22.735,12.766 22.707,12.960 22.683 C 14.839 22.443,16.029 21.813,16.789 20.654 C 17.066 20.232,17.227 19.867,17.396 19.277 C 17.661 18.353,17.720 17.637,17.720 15.313 L 17.720 13.606 17.950 13.558 C 18.538 13.436,19.305 13.098,19.927 12.685 C 20.922 12.025,21.691 11.111,22.187 10.000 C 22.798 8.630,22.867 6.995,22.376 5.520 C 21.471 2.796,18.854 1.063,15.980 1.283 M17.200 2.799 C 18.981 3.057,20.563 4.461,21.031 6.200 C 21.210 6.867,21.261 7.643,21.163 8.246 C 20.886 9.954,19.691 11.385,18.048 11.975 C 17.887 12.033,17.747 12.080,17.738 12.080 C 17.728 12.080,17.720 11.983,17.720 11.864 C 17.720 11.282,17.575 10.307,17.395 9.680 C 17.019 8.367,16.231 7.402,15.109 6.881 C 14.311 6.511,13.584 6.352,12.254 6.258 L 11.887 6.232 11.980 5.959 C 12.214 5.273,12.575 4.700,13.119 4.155 C 13.830 3.442,14.672 2.997,15.649 2.820 C 15.994 2.757,16.834 2.746,17.200 2.799 M13.141 7.851 C 15.006 8.194,15.764 8.935,16.101 10.746 C 16.250 11.544,16.282 17.044,16.143 18.025 C 16.059 18.618,15.919 19.098,15.694 19.560 C 15.356 20.254,14.753 20.732,13.907 20.977 C 13.053 21.224,13.132 21.220,9.480 21.220 C 5.824 21.220,5.807 21.219,5.034 20.976 C 3.707 20.559,3.103 19.795,2.809 18.160 C 2.747 17.821,2.740 17.422,2.740 14.500 C 2.740 11.578,2.747 11.179,2.809 10.840 C 3.068 9.401,3.606 8.598,4.590 8.184 C 4.963 8.027,5.461 7.894,5.860 7.844 C 6.058 7.820,6.265 7.793,6.320 7.784 C 6.375 7.776,7.851 7.772,9.600 7.777 C 12.367 7.784,12.827 7.793,13.141 7.851 " stroke="none" fill-rule="evenodd" fill="black"></path></svg>