<svg width="24" height="24" viewBox="0 0 24 24" fill="none" xmlns="http://www.w3.org/2000/svg"><path d="M11.320 1.479 C 10.500 1.655,9.770 2.118,9.272 2.775 C 8.781 3.425,8.551 4.110,8.551 4.920 C 8.551 6.158,9.174 7.277,10.229 7.934 C 10.714 8.236,11.451 8.440,12.060 8.440 C 12.669 8.440,13.406 8.236,13.891 7.934 C 14.553 7.522,15.093 6.867,15.359 6.151 C 15.644 5.384,15.644 4.456,15.359 3.689 C 15.093 2.973,14.553 2.318,13.891 1.906 C 13.184 1.465,12.167 1.297,11.320 1.479 M12.511 2.940 C 13.019 3.060,13.467 3.371,13.757 3.805 C 14.195 4.462,14.195 5.378,13.757 6.035 C 13.282 6.746,12.424 7.092,11.609 6.900 C 11.101 6.780,10.653 6.469,10.363 6.035 C 9.925 5.378,9.925 4.462,10.363 3.805 C 10.838 3.094,11.696 2.748,12.511 2.940 M16.579 5.537 C 16.255 5.731,16.122 6.211,16.306 6.525 C 16.348 6.598,16.580 6.811,16.821 6.998 C 17.864 7.809,18.636 8.774,19.196 9.965 C 19.509 10.631,19.779 11.562,19.860 12.257 C 19.895 12.558,19.938 12.672,20.073 12.814 C 20.230 12.980,20.392 13.051,20.621 13.054 C 20.863 13.058,21.037 12.967,21.216 12.746 C 21.335 12.599,21.340 12.577,21.335 12.246 C 21.326 11.615,21.042 10.483,20.672 9.600 C 20.230 8.545,19.483 7.438,18.669 6.630 C 18.289 6.253,17.700 5.765,17.382 5.565 C 17.124 5.402,16.822 5.392,16.579 5.537 M6.820 5.518 C 6.562 5.625,5.577 6.456,5.185 6.898 C 3.901 8.347,3.146 9.882,2.838 11.674 C 2.701 12.473,2.745 12.742,3.050 12.963 C 3.334 13.168,3.696 13.156,3.962 12.932 C 4.146 12.778,4.199 12.637,4.284 12.086 C 4.595 10.056,5.669 8.240,7.287 7.008 C 7.740 6.663,7.818 6.547,7.819 6.217 C 7.820 5.910,7.689 5.690,7.430 5.565 C 7.251 5.478,6.969 5.457,6.820 5.518 M4.459 13.640 C 3.096 13.787,1.953 14.695,1.502 15.988 C 1.255 16.692,1.255 17.588,1.502 18.292 C 2.000 19.718,3.313 20.650,4.820 20.648 C 5.522 20.647,6.070 20.499,6.658 20.154 C 7.051 19.923,7.648 19.312,7.875 18.909 C 8.507 17.787,8.507 16.493,7.875 15.371 C 7.648 14.968,7.051 14.357,6.658 14.126 C 5.990 13.733,5.203 13.559,4.459 13.640 M18.785 13.642 C 17.921 13.744,17.301 14.048,16.680 14.676 C 15.900 15.464,15.548 16.463,15.673 17.531 C 15.770 18.354,16.085 19.002,16.680 19.604 C 17.396 20.328,18.158 20.646,19.180 20.648 C 20.687 20.650,22.000 19.718,22.498 18.292 C 22.745 17.588,22.745 16.692,22.498 15.988 C 22.244 15.258,21.765 14.637,21.138 14.220 C 20.460 13.770,19.565 13.550,18.785 13.642 M5.555 15.235 C 6.346 15.556,6.852 16.299,6.852 17.140 C 6.852 17.981,6.345 18.726,5.555 19.044 C 5.227 19.176,4.614 19.196,4.252 19.086 C 3.571 18.880,3.012 18.297,2.862 17.638 C 2.619 16.567,3.167 15.570,4.199 15.209 C 4.425 15.129,4.519 15.119,4.900 15.133 C 5.232 15.145,5.393 15.170,5.555 15.235 M19.769 15.199 C 20.611 15.460,21.200 16.258,21.200 17.140 C 21.200 18.032,20.608 18.825,19.748 19.086 C 19.519 19.156,19.403 19.167,19.066 19.150 C 18.470 19.121,18.127 18.964,17.701 18.525 C 17.311 18.123,17.153 17.723,17.153 17.140 C 17.153 16.557,17.311 16.157,17.701 15.755 C 18.012 15.434,18.386 15.212,18.722 15.149 C 18.995 15.098,19.522 15.123,19.769 15.199 M7.850 20.284 C 7.541 20.437,7.380 20.802,7.477 21.127 C 7.565 21.419,7.659 21.509,8.094 21.717 C 10.087 22.671,12.485 22.860,14.667 22.234 C 15.179 22.087,15.987 21.766,16.204 21.622 C 16.585 21.370,16.631 20.787,16.295 20.473 C 16.032 20.226,15.734 20.216,15.245 20.435 C 13.205 21.350,10.857 21.336,8.791 20.395 C 8.303 20.173,8.118 20.151,7.850 20.284 " stroke="none" fill-rule="evenodd" fill="black"></path></svg>