<svg width="24" height="24" viewBox="0 0 24 24" fill="none" xmlns="http://www.w3.org/2000/svg"><path d="M11.434 1.282 C 11.222 1.300,10.896 1.351,10.710 1.395 C 10.358 1.479,5.308 3.363,4.916 3.557 C 3.959 4.030,3.140 5.037,2.792 6.167 L 2.701 6.460 2.690 10.717 C 2.677 15.358,2.672 15.244,2.905 15.948 C 3.158 16.714,3.675 17.596,4.176 18.115 C 4.367 18.314,5.109 18.896,6.440 19.892 C 9.579 22.240,9.572 22.236,10.302 22.474 C 10.917 22.675,11.384 22.733,12.193 22.708 C 13.112 22.680,13.577 22.579,14.264 22.256 C 14.655 22.072,14.799 21.969,17.380 20.040 C 19.005 18.826,19.727 18.262,19.892 18.078 C 20.379 17.537,20.858 16.709,21.097 15.993 C 21.347 15.245,21.333 15.522,21.349 11.026 C 21.364 6.591,21.363 6.559,21.154 5.950 C 20.814 4.956,20.011 4.008,19.133 3.563 C 18.910 3.450,14.528 1.791,13.732 1.519 C 13.123 1.310,12.201 1.215,11.434 1.282 M12.818 2.818 C 13.193 2.890,18.286 4.789,18.594 4.973 C 19.052 5.244,19.563 5.917,19.770 6.520 L 19.859 6.780 19.872 10.580 C 19.880 13.044,19.870 14.517,19.842 14.769 C 19.751 15.622,19.280 16.579,18.662 17.170 C 18.228 17.585,14.044 20.689,13.660 20.881 C 13.110 21.155,12.809 21.216,12.000 21.215 C 11.205 21.214,10.915 21.157,10.390 20.901 C 10.043 20.732,5.668 17.484,5.309 17.129 C 4.941 16.766,4.546 16.117,4.352 15.560 C 4.158 15.001,4.160 15.045,4.160 10.859 C 4.160 8.175,4.174 6.857,4.204 6.712 C 4.262 6.427,4.514 5.908,4.727 5.635 C 4.996 5.290,5.382 4.975,5.700 4.843 C 6.542 4.494,10.939 2.864,11.160 2.820 C 11.521 2.747,12.442 2.746,12.818 2.818 M11.387 7.825 C 10.598 7.994,9.900 8.552,9.540 9.300 C 9.334 9.727,9.270 10.013,9.270 10.500 C 9.270 10.991,9.334 11.273,9.548 11.717 C 9.699 12.032,9.783 12.149,10.054 12.417 C 10.392 12.752,10.760 12.996,11.061 13.085 L 11.235 13.136 11.248 14.418 C 11.261 15.817,11.261 15.815,11.506 16.047 C 11.647 16.181,11.799 16.240,12.000 16.240 C 12.201 16.240,12.353 16.181,12.494 16.047 C 12.739 15.815,12.739 15.817,12.752 14.418 L 12.765 13.136 12.939 13.085 C 13.240 12.996,13.608 12.752,13.946 12.417 C 14.217 12.149,14.301 12.032,14.452 11.717 C 14.666 11.273,14.730 10.991,14.730 10.500 C 14.730 10.013,14.666 9.727,14.460 9.300 C 14.187 8.731,13.675 8.233,13.110 7.983 C 12.629 7.770,11.938 7.707,11.387 7.825 M12.499 9.355 C 13.131 9.635,13.420 10.400,13.126 11.020 C 12.908 11.481,12.507 11.736,12.000 11.736 C 11.485 11.736,11.073 11.469,10.861 10.996 C 10.766 10.784,10.754 10.712,10.766 10.446 C 10.787 10.003,10.987 9.659,11.358 9.429 C 11.678 9.231,12.149 9.200,12.499 9.355 " stroke="none" fill-rule="evenodd" fill="black"></path></svg>