<svg width="24" height="24" viewBox="0 0 24 24" fill="none" xmlns="http://www.w3.org/2000/svg"><path d="M11.434 1.283 C 11.222 1.301,10.896 1.351,10.711 1.395 C 10.358 1.479,5.305 3.364,4.916 3.556 C 3.958 4.031,3.140 5.037,2.792 6.167 L 2.701 6.460 2.690 10.717 C 2.677 15.358,2.672 15.244,2.905 15.948 C 3.181 16.783,3.735 17.694,4.286 18.220 C 4.540 18.462,8.435 21.413,9.262 21.989 C 9.428 22.105,9.895 22.337,10.162 22.436 C 10.741 22.652,11.786 22.796,12.174 22.713 C 12.684 22.604,12.905 21.963,12.580 21.536 C 12.430 21.339,12.240 21.273,11.723 21.236 C 11.195 21.198,10.784 21.095,10.380 20.899 C 10.047 20.738,5.661 17.477,5.309 17.129 C 4.941 16.766,4.546 16.117,4.352 15.560 C 4.158 15.001,4.160 15.045,4.160 10.859 C 4.160 8.175,4.174 6.857,4.204 6.712 C 4.262 6.427,4.514 5.908,4.727 5.635 C 4.996 5.290,5.382 4.975,5.700 4.843 C 6.652 4.448,10.946 2.864,11.194 2.816 C 11.570 2.744,12.429 2.744,12.806 2.816 C 13.098 2.872,18.064 4.709,18.434 4.898 C 18.889 5.130,19.274 5.535,19.558 6.081 C 19.833 6.609,19.839 6.664,19.839 8.791 C 19.840 10.795,19.844 10.846,20.032 11.053 C 20.219 11.260,20.621 11.341,20.891 11.225 C 21.047 11.158,21.220 10.981,21.277 10.827 C 21.305 10.753,21.320 10.031,21.320 8.716 C 21.320 7.045,21.310 6.666,21.256 6.408 C 21.014 5.232,20.131 4.065,19.100 3.559 C 18.648 3.338,13.695 1.492,13.300 1.398 C 13.121 1.355,12.759 1.303,12.497 1.281 C 11.974 1.237,11.987 1.237,11.434 1.283 M15.579 11.280 C 13.750 11.440,12.200 12.632,11.540 14.384 C 11.182 15.335,11.182 16.665,11.540 17.616 C 12.042 18.949,13.049 19.958,14.376 20.457 C 15.340 20.820,16.660 20.820,17.624 20.457 C 18.951 19.958,19.958 18.949,20.460 17.616 C 20.819 16.661,20.818 15.336,20.457 14.376 C 19.695 12.348,17.716 11.092,15.579 11.280 M16.980 12.894 C 17.508 13.068,17.854 13.286,18.284 13.716 C 18.712 14.143,18.928 14.485,19.108 15.020 C 19.209 15.316,19.217 15.389,19.217 16.000 C 19.217 16.611,19.209 16.684,19.108 16.980 C 18.928 17.515,18.712 17.857,18.284 18.284 C 17.857 18.712,17.515 18.928,16.980 19.108 C 16.684 19.209,16.611 19.217,16.000 19.217 C 15.389 19.217,15.316 19.209,15.020 19.108 C 14.485 18.928,14.143 18.712,13.716 18.284 C 13.288 17.857,13.072 17.515,12.892 16.980 C 12.791 16.684,12.783 16.611,12.783 16.000 C 12.783 15.389,12.791 15.316,12.892 15.020 C 13.072 14.485,13.288 14.143,13.716 13.716 C 14.433 12.999,15.066 12.750,16.100 12.775 C 16.572 12.787,16.710 12.806,16.980 12.894 M20.689 20.056 C 20.452 20.134,20.262 20.289,20.131 20.511 C 20.036 20.672,20.020 20.744,20.020 21.000 C 20.020 21.257,20.036 21.327,20.133 21.492 C 20.356 21.871,20.789 22.060,21.217 21.964 C 21.929 21.805,22.232 20.975,21.789 20.394 C 21.549 20.080,21.069 19.932,20.689 20.056 " stroke="none" fill-rule="evenodd" fill="black"></path></svg>