<svg width="24" height="24" viewBox="0 0 24 24" fill="none" xmlns="http://www.w3.org/2000/svg"><path d="M11.428 1.282 C 11.212 1.301,10.880 1.355,10.690 1.402 C 10.320 1.495,5.289 3.372,4.916 3.557 C 3.959 4.030,3.140 5.037,2.792 6.167 L 2.701 6.460 2.690 10.717 C 2.677 15.358,2.672 15.244,2.905 15.948 C 3.162 16.727,3.679 17.602,4.194 18.131 L 4.496 18.442 2.933 20.011 C 2.073 20.874,1.346 21.625,1.318 21.680 C 1.290 21.735,1.267 21.881,1.267 22.004 C 1.267 22.498,1.681 22.816,2.189 22.712 C 2.376 22.674,2.592 22.460,12.490 12.566 C 18.342 6.717,22.628 2.403,22.665 2.324 C 22.753 2.138,22.747 1.837,22.651 1.651 C 22.608 1.568,22.499 1.448,22.408 1.383 C 22.271 1.287,22.202 1.267,22.011 1.267 C 21.884 1.267,21.735 1.290,21.680 1.318 C 21.625 1.346,21.065 1.882,20.436 2.508 L 19.291 3.647 19.090 3.545 C 18.900 3.449,14.014 1.606,13.580 1.466 C 13.070 1.303,12.121 1.221,11.428 1.282 M12.806 2.816 C 13.042 2.862,17.895 4.635,18.105 4.752 C 18.142 4.773,16.212 6.728,11.860 11.080 L 5.561 17.379 5.319 17.139 C 4.810 16.635,4.379 15.825,4.218 15.067 C 4.170 14.840,4.160 14.145,4.160 10.859 C 4.160 8.175,4.174 6.857,4.204 6.712 C 4.262 6.427,4.514 5.908,4.727 5.635 C 4.961 5.335,5.337 5.009,5.580 4.897 C 6.010 4.697,10.903 2.878,11.154 2.824 C 11.506 2.748,12.430 2.744,12.806 2.816 M20.415 6.397 C 20.238 6.441,20.061 6.576,19.953 6.751 L 19.860 6.900 19.840 11.000 L 19.820 15.100 19.691 15.469 C 19.440 16.189,19.100 16.752,18.667 17.167 C 18.276 17.541,14.056 20.680,13.678 20.878 C 13.135 21.162,12.850 21.220,12.000 21.220 C 10.810 21.220,10.580 21.127,9.139 20.059 C 8.615 19.671,8.143 19.336,8.090 19.316 C 7.572 19.119,6.995 19.622,7.116 20.164 C 7.137 20.257,7.188 20.380,7.230 20.437 C 7.324 20.567,8.913 21.776,9.337 22.041 C 10.838 22.977,13.170 22.980,14.657 22.048 C 14.946 21.867,19.286 18.635,19.591 18.374 C 20.169 17.880,20.791 16.888,21.094 15.978 C 21.347 15.219,21.333 15.470,21.349 11.144 C 21.359 8.406,21.351 7.126,21.321 6.986 C 21.297 6.875,21.234 6.727,21.181 6.658 C 21.021 6.447,20.679 6.331,20.415 6.397 " stroke="none" fill-rule="evenodd" fill="black"></path></svg>