<svg width="24" height="24" viewBox="0 0 24 24" fill="none" xmlns="http://www.w3.org/2000/svg"><path d="M10.220 1.285 C 9.739 1.354,9.226 1.712,8.982 2.147 C 8.798 2.476,8.760 2.708,8.760 3.502 L 8.760 4.227 8.130 4.254 C 7.475 4.281,7.102 4.341,6.734 4.479 C 5.503 4.939,4.637 5.931,4.333 7.225 C 4.281 7.451,4.266 7.842,4.251 9.402 L 4.233 11.303 3.746 11.498 C 3.102 11.757,2.945 11.837,2.651 12.058 C 2.350 12.284,2.080 12.633,1.875 13.060 C 1.508 13.826,1.508 14.275,1.875 15.900 C 2.170 17.204,2.373 17.859,2.680 18.507 C 3.061 19.310,3.511 19.947,4.136 20.573 C 5.324 21.760,6.798 22.459,8.600 22.687 C 9.202 22.763,14.798 22.763,15.400 22.687 C 17.778 22.386,19.688 21.203,20.893 19.286 C 21.453 18.395,21.737 17.615,22.125 15.900 C 22.492 14.275,22.492 13.826,22.125 13.060 C 21.920 12.633,21.650 12.284,21.349 12.058 C 21.055 11.837,20.898 11.757,20.254 11.498 L 19.767 11.303 19.749 9.402 C 19.734 7.842,19.719 7.451,19.667 7.225 C 19.323 5.757,18.210 4.647,16.775 4.339 C 16.624 4.306,16.216 4.268,15.870 4.254 L 15.240 4.227 15.240 3.502 C 15.240 3.003,15.222 2.709,15.183 2.558 C 15.009 1.892,14.429 1.379,13.740 1.281 C 13.400 1.233,10.556 1.236,10.220 1.285 M13.680 2.840 C 13.754 2.914,13.760 2.973,13.760 3.580 L 13.760 4.240 12.000 4.240 L 10.240 4.240 10.240 3.580 C 10.240 2.973,10.246 2.914,10.320 2.840 C 10.397 2.763,10.453 2.760,12.000 2.760 C 13.547 2.760,13.603 2.763,13.680 2.840 M16.574 5.823 C 16.709 5.858,16.928 5.944,17.060 6.013 C 17.369 6.176,17.824 6.631,17.987 6.940 C 18.230 7.401,18.242 7.513,18.230 9.175 L 18.220 10.674 16.080 9.813 C 12.967 8.562,13.026 8.580,12.000 8.580 C 10.974 8.580,11.033 8.562,7.920 9.813 L 5.780 10.674 5.770 9.175 C 5.758 7.513,5.770 7.401,6.013 6.940 C 6.177 6.629,6.631 6.176,6.944 6.010 C 7.430 5.754,7.195 5.766,11.974 5.763 C 15.823 5.760,16.357 5.767,16.574 5.823 M11.240 15.704 L 11.240 21.248 9.930 21.228 C 8.819 21.212,8.562 21.197,8.236 21.128 C 6.366 20.733,4.919 19.633,4.083 17.971 C 3.786 17.380,3.629 16.876,3.337 15.572 C 3.039 14.244,3.029 14.087,3.215 13.708 C 3.329 13.476,3.554 13.226,3.732 13.134 C 3.843 13.076,10.759 10.301,11.020 10.209 C 11.086 10.185,11.162 10.165,11.190 10.163 C 11.230 10.161,11.240 11.294,11.240 15.704 M16.540 11.627 C 18.498 12.410,20.164 13.083,20.243 13.122 C 20.583 13.294,20.871 13.738,20.908 14.150 C 20.926 14.343,20.883 14.591,20.663 15.572 C 20.517 16.226,20.333 16.945,20.256 17.170 C 19.626 18.991,18.297 20.327,16.523 20.921 C 15.765 21.175,15.510 21.207,14.070 21.228 L 12.760 21.248 12.760 15.700 L 12.760 10.151 12.870 10.178 C 12.931 10.192,14.582 10.845,16.540 11.627 " stroke="none" fill-rule="evenodd" fill="black"></path></svg>