<svg width="24" height="24" viewBox="0 0 24 24" fill="none" xmlns="http://www.w3.org/2000/svg"><path d="M1.815 1.278 C 1.331 1.393,1.098 2.004,1.383 2.408 C 1.606 2.723,1.668 2.737,2.940 2.760 C 4.185 2.782,4.204 2.786,4.495 3.068 C 4.686 3.254,4.799 3.474,4.825 3.713 C 4.836 3.816,4.654 6.177,4.420 8.960 C 3.961 14.405,3.955 14.539,4.120 15.117 C 4.351 15.931,4.869 16.658,5.548 17.125 C 5.798 17.298,6.329 17.536,6.660 17.625 C 6.928 17.697,7.195 17.700,12.880 17.700 L 18.820 17.700 19.132 17.610 C 20.127 17.321,21.041 16.524,21.458 15.580 C 21.692 15.051,21.703 14.958,22.002 10.840 C 22.302 6.718,22.317 6.282,22.180 5.760 C 22.014 5.135,21.640 4.512,21.162 4.070 C 20.707 3.649,20.263 3.409,19.600 3.225 C 19.303 3.143,19.225 3.142,12.768 3.121 L 6.236 3.100 6.143 2.871 C 6.009 2.541,5.838 2.294,5.552 2.014 C 5.090 1.563,4.648 1.350,4.024 1.278 C 3.645 1.234,1.998 1.234,1.815 1.278 M19.400 4.713 C 19.748 4.838,19.983 4.993,20.256 5.279 C 20.693 5.738,20.886 6.412,20.774 7.089 L 20.750 7.239 14.765 7.249 L 8.780 7.260 8.627 7.355 C 8.385 7.506,8.267 7.718,8.267 8.003 C 8.267 8.203,8.286 8.270,8.383 8.408 C 8.447 8.499,8.572 8.610,8.660 8.656 C 8.820 8.740,8.824 8.740,14.730 8.751 L 20.640 8.761 20.640 8.891 C 20.640 8.962,20.550 10.254,20.441 11.762 C 20.221 14.796,20.216 14.827,19.917 15.275 C 19.722 15.568,19.375 15.880,19.093 16.018 C 18.619 16.250,18.912 16.240,12.877 16.240 C 9.355 16.240,7.252 16.225,7.115 16.200 C 6.345 16.057,5.649 15.334,5.516 14.536 C 5.474 14.288,5.509 13.783,5.855 9.620 C 6.067 7.068,6.251 4.894,6.264 4.789 L 6.288 4.598 12.714 4.609 L 19.140 4.620 19.400 4.713 M7.724 18.821 C 7.131 18.987,6.572 19.497,6.377 20.048 C 5.808 21.661,7.339 23.192,8.952 22.623 C 9.539 22.416,10.072 21.796,10.202 21.169 C 10.264 20.870,10.230 20.360,10.129 20.073 C 9.940 19.539,9.463 19.062,8.927 18.871 C 8.625 18.763,8.021 18.738,7.724 18.821 M15.724 18.821 C 15.437 18.901,15.149 19.062,14.917 19.271 C 14.068 20.033,14.035 21.348,14.843 22.157 C 15.652 22.965,16.967 22.932,17.729 22.083 C 18.162 21.602,18.332 20.955,18.195 20.313 C 18.057 19.672,17.549 19.093,16.929 18.871 C 16.625 18.763,16.022 18.737,15.724 18.821 M8.478 20.313 C 8.625 20.392,8.760 20.602,8.760 20.751 C 8.760 20.997,8.518 21.240,8.273 21.240 C 7.959 21.240,7.760 21.042,7.760 20.731 C 7.760 20.552,7.839 20.424,8.015 20.317 C 8.172 20.221,8.303 20.220,8.478 20.313 M16.478 20.313 C 16.625 20.392,16.760 20.602,16.760 20.751 C 16.760 20.997,16.518 21.240,16.273 21.240 C 15.959 21.240,15.760 21.042,15.760 20.731 C 15.760 20.552,15.839 20.424,16.015 20.317 C 16.172 20.221,16.303 20.220,16.478 20.313 " stroke="none" fill-rule="evenodd" fill="black"></path></svg>