<svg width="24" height="24" viewBox="0 0 24 24" fill="none" xmlns="http://www.w3.org/2000/svg"><path d="M5.972 1.281 C 4.636 1.374,3.646 1.795,3.006 2.542 C 2.497 3.137,2.147 3.969,1.943 5.071 C 1.848 5.584,1.596 8.209,1.594 8.700 C 1.592 9.465,1.724 9.998,2.080 10.667 L 2.275 11.033 2.290 14.067 C 2.304 16.920,2.310 17.131,2.389 17.621 C 2.619 19.038,3.019 19.998,3.728 20.829 C 4.425 21.647,5.530 22.249,6.830 22.516 C 7.801 22.717,8.024 22.728,11.392 22.748 C 15.886 22.776,16.698 22.718,18.005 22.281 C 18.856 21.997,19.462 21.629,20.043 21.045 C 20.901 20.182,21.344 19.192,21.610 17.546 C 21.690 17.049,21.696 16.851,21.709 13.987 L 21.722 10.953 21.841 10.747 C 22.163 10.189,22.359 9.436,22.359 8.759 C 22.360 8.216,22.072 5.428,21.959 4.880 C 21.506 2.692,20.529 1.685,18.520 1.334 C 18.179 1.275,17.532 1.267,12.280 1.259 C 9.057 1.254,6.218 1.264,5.972 1.281 M8.800 2.843 C 8.800 3.027,8.199 8.957,8.158 9.180 C 8.133 9.312,8.043 9.571,7.956 9.756 C 7.825 10.038,7.741 10.150,7.430 10.460 C 6.871 11.016,6.351 11.240,5.618 11.240 C 4.879 11.240,4.337 11.018,3.816 10.501 C 3.308 9.999,3.080 9.457,3.080 8.755 C 3.080 8.351,3.337 5.733,3.421 5.279 C 3.630 4.156,4.045 3.418,4.636 3.123 C 5.258 2.812,5.582 2.769,7.350 2.764 C 8.792 2.760,8.800 2.760,8.800 2.843 M13.640 2.817 C 13.640 2.849,13.776 4.239,13.942 5.907 C 14.107 7.575,14.245 9.057,14.246 9.200 C 14.252 9.705,13.978 10.273,13.529 10.684 C 13.119 11.058,12.621 11.239,12.000 11.239 C 11.317 11.239,10.830 11.042,10.376 10.582 C 10.036 10.237,9.864 9.913,9.771 9.443 L 9.705 9.110 10.016 5.985 C 10.187 4.266,10.334 2.837,10.342 2.810 C 10.354 2.771,10.721 2.760,11.999 2.760 C 13.397 2.760,13.640 2.768,13.640 2.817 M18.220 2.802 C 19.225 2.945,19.783 3.299,20.119 4.007 C 20.305 4.397,20.455 4.901,20.540 5.414 C 20.621 5.905,20.880 8.471,20.879 8.777 C 20.878 9.130,20.784 9.522,20.616 9.871 C 20.433 10.252,19.948 10.753,19.573 10.952 C 19.060 11.222,18.305 11.315,17.730 11.180 C 16.814 10.964,15.920 10.044,15.797 9.191 C 15.777 9.053,15.634 7.617,15.480 6.000 C 15.325 4.383,15.188 2.993,15.176 2.910 L 15.153 2.760 16.546 2.761 C 17.313 2.761,18.066 2.780,18.220 2.802 M9.118 11.431 C 10.546 13.164,13.468 13.160,14.891 11.422 L 15.099 11.168 15.399 11.475 C 16.286 12.380,17.458 12.824,18.685 12.718 C 19.204 12.673,19.758 12.527,20.123 12.338 L 20.240 12.278 20.240 14.173 C 20.240 16.814,20.179 17.496,19.852 18.500 C 19.584 19.324,19.173 19.919,18.580 20.340 C 17.900 20.823,16.878 21.127,15.614 21.221 L 15.248 21.248 15.230 19.994 C 15.215 18.870,15.204 18.707,15.127 18.420 C 14.821 17.284,14.075 16.588,12.898 16.339 C 12.466 16.248,11.534 16.248,11.102 16.339 C 9.925 16.588,9.179 17.284,8.873 18.420 C 8.796 18.707,8.785 18.870,8.770 19.994 L 8.752 21.248 8.386 21.222 C 6.872 21.113,5.701 20.694,5.023 20.016 C 4.432 19.426,4.067 18.590,3.871 17.380 C 3.794 16.906,3.785 16.660,3.770 14.590 C 3.761 13.342,3.762 12.320,3.772 12.320 C 3.782 12.320,3.887 12.363,4.005 12.415 C 4.348 12.567,4.788 12.675,5.233 12.716 C 6.503 12.834,7.696 12.375,8.583 11.428 C 8.735 11.265,8.871 11.143,8.886 11.156 C 8.900 11.169,9.004 11.293,9.118 11.431 M12.671 17.820 C 13.146 17.932,13.396 18.126,13.577 18.521 C 13.723 18.841,13.758 19.180,13.759 20.270 L 13.760 21.240 11.996 21.240 L 10.233 21.240 10.249 20.090 C 10.264 19.010,10.270 18.923,10.358 18.669 C 10.519 18.204,10.812 17.943,11.310 17.822 C 11.620 17.747,12.357 17.746,12.671 17.820 " stroke="none" fill-rule="evenodd" fill="black"></path></svg>