<svg width="24" height="24" viewBox="0 0 24 24" fill="none" xmlns="http://www.w3.org/2000/svg"><path d="M10.091 1.279 C 9.082 1.392,8.284 1.862,7.779 2.640 C 7.369 3.273,7.283 3.641,7.252 4.886 L 7.228 5.833 7.044 5.860 C 6.631 5.922,6.077 6.094,5.700 6.278 C 4.660 6.786,4.104 7.597,3.841 8.991 C 3.731 9.575,2.803 17.326,2.762 18.000 C 2.601 20.695,3.813 22.263,6.369 22.669 C 6.785 22.734,7.221 22.740,12.000 22.740 C 16.779 22.740,17.215 22.734,17.631 22.669 C 19.262 22.410,20.306 21.707,20.869 20.490 C 21.181 19.814,21.327 18.788,21.244 17.855 C 21.175 17.073,20.289 9.725,20.201 9.200 C 19.868 7.216,18.966 6.247,17.122 5.894 L 16.771 5.827 16.748 4.903 C 16.732 4.273,16.703 3.885,16.658 3.680 C 16.399 2.500,15.513 1.613,14.320 1.339 C 14.064 1.280,13.752 1.268,12.200 1.258 C 11.199 1.252,10.250 1.262,10.091 1.279 M14.246 2.871 C 14.656 3.037,14.965 3.346,15.127 3.754 C 15.210 3.960,15.219 4.057,15.232 4.870 L 15.245 5.760 12.003 5.760 L 8.760 5.760 8.760 4.947 C 8.760 3.888,8.834 3.612,9.223 3.224 C 9.431 3.015,9.560 2.939,9.880 2.835 C 10.081 2.769,10.270 2.764,12.060 2.771 C 13.999 2.780,14.022 2.781,14.246 2.871 M15.247 7.732 C 15.261 8.156,15.275 8.243,15.354 8.371 C 15.663 8.870,16.417 8.847,16.661 8.332 C 16.709 8.230,16.741 8.041,16.757 7.755 L 16.780 7.329 17.079 7.405 C 18.106 7.666,18.528 8.191,18.736 9.460 C 18.790 9.795,19.560 16.127,19.560 16.242 C 19.560 16.266,17.373 16.280,13.719 16.280 C 7.375 16.280,7.726 16.268,7.487 16.492 C 7.152 16.804,7.211 17.411,7.598 17.652 L 7.740 17.740 13.740 17.760 L 19.740 17.780 19.760 18.120 C 19.852 19.686,19.355 20.596,18.180 21.010 C 17.567 21.226,17.757 21.220,11.940 21.220 L 6.540 21.220 6.145 21.111 C 5.120 20.828,4.585 20.334,4.334 19.437 C 4.276 19.230,4.262 19.031,4.262 18.420 C 4.263 17.696,4.286 17.467,4.753 13.620 C 5.023 11.398,5.280 9.400,5.325 9.181 C 5.538 8.124,5.966 7.648,6.921 7.405 L 7.220 7.329 7.243 7.779 C 7.262 8.149,7.282 8.254,7.356 8.374 C 7.708 8.944,8.577 8.809,8.716 8.162 C 8.740 8.049,8.760 7.795,8.760 7.598 L 8.760 7.240 11.995 7.240 L 15.230 7.240 15.247 7.732 " stroke="none" fill-rule="evenodd" fill="black"></path></svg>