<svg width="24" height="24" viewBox="0 0 24 24" fill="none" xmlns="http://www.w3.org/2000/svg"><path d="M6.020 1.280 C 3.822 1.434,2.650 2.381,2.118 4.429 C 2.054 4.675,1.975 5.053,1.942 5.269 C 1.849 5.867,1.600 8.407,1.600 8.753 C 1.600 9.453,1.861 10.346,2.229 10.908 C 2.278 10.983,2.286 11.315,2.283 13.048 L 2.279 15.100 2.129 15.219 C 1.042 16.086,0.389 17.287,0.282 18.612 C 0.169 20.029,0.649 21.331,1.659 22.341 C 2.572 23.254,3.697 23.724,4.975 23.728 C 6.034 23.731,6.855 23.480,7.680 22.903 L 7.989 22.686 8.605 22.722 C 9.447 22.771,14.657 22.768,15.516 22.719 C 16.274 22.675,16.830 22.602,17.360 22.478 C 19.694 21.931,21.061 20.504,21.536 18.120 C 21.725 17.170,21.733 17.013,21.747 13.886 L 21.761 10.912 21.866 10.733 C 22.226 10.120,22.443 9.154,22.381 8.440 C 22.272 7.171,22.060 5.296,21.980 4.900 C 21.696 3.489,21.151 2.533,20.316 1.977 C 19.974 1.750,19.709 1.630,19.260 1.500 C 18.428 1.259,18.716 1.269,12.320 1.259 C 9.097 1.254,6.262 1.264,6.020 1.280 M8.840 2.783 C 8.840 2.795,8.696 4.246,8.519 6.006 C 8.178 9.412,8.171 9.458,7.912 9.912 C 7.638 10.394,7.069 10.879,6.528 11.091 C 6.280 11.188,6.141 11.216,5.815 11.231 C 5.266 11.257,4.939 11.194,4.490 10.977 C 3.692 10.591,3.174 9.837,3.098 8.948 C 3.064 8.550,3.361 5.684,3.503 5.047 C 3.830 3.573,4.398 2.996,5.713 2.803 C 5.967 2.766,8.840 2.747,8.840 2.783 M13.655 2.870 C 13.667 2.931,13.816 4.399,13.986 6.133 C 14.333 9.668,14.329 9.479,14.055 10.037 C 13.776 10.604,13.179 11.070,12.568 11.196 C 12.265 11.259,11.696 11.250,11.422 11.179 C 11.026 11.076,10.670 10.861,10.371 10.545 C 9.956 10.106,9.760 9.633,9.760 9.069 C 9.760 8.918,9.895 7.447,10.060 5.800 C 10.225 4.153,10.360 2.796,10.360 2.783 C 10.360 2.770,11.097 2.760,11.997 2.760 L 13.634 2.760 13.655 2.870 M18.340 2.819 C 18.993 2.925,19.437 3.121,19.753 3.445 C 20.108 3.806,20.386 4.456,20.538 5.275 C 20.587 5.538,20.764 7.162,20.894 8.552 C 20.918 8.807,20.854 9.298,20.759 9.584 C 20.496 10.374,19.691 11.062,18.865 11.203 C 18.412 11.280,17.837 11.234,17.472 11.091 C 16.728 10.799,16.055 10.090,15.866 9.400 C 15.833 9.279,15.795 9.018,15.781 8.820 C 15.767 8.622,15.631 7.215,15.478 5.694 C 15.325 4.173,15.200 2.890,15.200 2.844 C 15.200 2.760,15.205 2.760,16.590 2.760 C 17.618 2.760,18.074 2.776,18.340 2.819 M9.319 11.614 C 9.813 12.132,10.500 12.509,11.228 12.661 C 11.642 12.748,12.402 12.747,12.820 12.660 C 13.664 12.483,14.464 12.009,14.940 11.404 L 15.131 11.161 15.367 11.418 C 15.762 11.849,16.344 12.250,16.885 12.462 C 17.860 12.846,19.057 12.821,19.987 12.400 C 20.132 12.334,20.258 12.280,20.266 12.280 C 20.298 12.280,20.277 15.630,20.240 16.323 C 20.177 17.517,19.999 18.364,19.665 19.060 C 19.105 20.223,18.205 20.808,16.480 21.129 C 16.037 21.212,15.891 21.216,12.610 21.230 C 10.734 21.238,9.200 21.237,9.200 21.228 C 9.200 21.219,9.263 21.074,9.341 20.907 C 9.651 20.235,9.787 19.389,9.716 18.568 C 9.545 16.597,8.079 14.875,6.167 14.399 C 5.537 14.243,4.498 14.224,4.000 14.361 C 3.923 14.382,3.846 14.400,3.830 14.400 C 3.814 14.400,3.800 13.934,3.800 13.363 L 3.800 12.327 4.099 12.442 C 5.098 12.827,6.169 12.834,7.113 12.463 C 7.683 12.239,8.282 11.820,8.683 11.364 L 8.900 11.118 8.978 11.229 C 9.022 11.290,9.175 11.463,9.319 11.614 M5.674 15.819 C 6.272 15.945,6.748 16.201,7.235 16.661 C 7.905 17.293,8.241 18.078,8.239 19.013 C 8.239 19.546,8.139 19.945,7.872 20.480 C 7.696 20.832,7.608 20.956,7.321 21.245 C 6.591 21.984,5.852 22.277,4.834 22.231 C 3.914 22.189,3.149 21.808,2.519 21.076 C 2.228 20.737,1.958 20.208,1.840 19.744 C 1.692 19.158,1.753 18.343,1.987 17.780 C 2.402 16.783,3.345 16.011,4.403 15.803 C 4.690 15.747,5.373 15.755,5.674 15.819 M3.167 18.326 C 2.909 18.453,2.780 18.672,2.780 18.980 C 2.780 19.186,2.799 19.254,2.894 19.392 C 2.960 19.486,3.081 19.592,3.177 19.639 C 3.338 19.716,3.417 19.720,5.000 19.720 C 6.583 19.720,6.662 19.716,6.823 19.639 C 6.919 19.592,7.040 19.486,7.106 19.392 C 7.201 19.254,7.220 19.186,7.220 18.980 C 7.220 18.774,7.201 18.706,7.106 18.568 C 7.040 18.474,6.919 18.368,6.823 18.321 C 6.662 18.244,6.583 18.240,4.997 18.240 C 3.383 18.240,3.335 18.242,3.167 18.326 " stroke="none" fill-rule="evenodd" fill="black"></path></svg>