<svg width="24" height="24" viewBox="0 0 24 24" fill="none" xmlns="http://www.w3.org/2000/svg"><path d="M8.340 1.267 C 5.940 1.362,4.302 1.923,3.137 3.048 C 2.044 4.103,1.475 5.517,1.280 7.660 C 1.227 8.243,1.227 15.757,1.280 16.340 C 1.475 18.483,2.044 19.897,3.137 20.952 C 3.979 21.765,5.038 22.269,6.477 22.542 C 7.380 22.713,7.733 22.728,11.359 22.748 C 15.896 22.773,16.792 22.727,18.075 22.404 C 20.485 21.798,21.938 20.249,22.462 17.728 C 22.696 16.600,22.700 16.509,22.700 12.000 C 22.700 7.491,22.696 7.400,22.462 6.272 C 22.135 4.700,21.406 3.440,20.374 2.666 C 19.237 1.812,17.862 1.394,15.820 1.281 C 15.200 1.247,9.134 1.235,8.340 1.267 M14.240 12.002 L 14.240 21.244 10.930 21.229 C 7.446 21.213,7.351 21.209,6.506 21.019 C 4.323 20.528,3.253 19.346,2.866 17.000 C 2.735 16.210,2.720 15.688,2.720 12.000 C 2.720 7.757,2.741 7.362,3.022 6.251 C 3.292 5.181,3.847 4.299,4.577 3.782 C 5.329 3.248,6.420 2.914,7.820 2.788 C 7.908 2.780,9.388 2.770,11.110 2.767 L 14.240 2.760 14.240 12.002 M16.740 2.864 C 19.437 3.228,20.696 4.467,21.099 7.155 C 21.211 7.902,21.239 8.855,21.239 12.000 C 21.239 15.145,21.211 16.098,21.099 16.845 C 20.664 19.744,19.270 20.943,16.010 21.220 L 15.720 21.245 15.720 12.000 L 15.720 2.755 16.010 2.780 C 16.169 2.793,16.498 2.831,16.740 2.864 M7.814 8.718 C 7.465 8.801,7.240 9.083,7.240 9.437 C 7.240 9.551,7.269 9.702,7.304 9.772 C 7.340 9.842,7.839 10.373,8.413 10.950 L 9.458 12.000 8.413 13.050 C 7.839 13.627,7.340 14.158,7.304 14.228 C 7.207 14.422,7.221 14.740,7.336 14.937 C 7.519 15.249,7.993 15.392,8.301 15.228 C 8.366 15.194,9.036 14.548,9.789 13.793 C 11.174 12.403,11.280 12.276,11.280 12.000 C 11.280 11.724,11.174 11.597,9.789 10.207 C 9.036 9.452,8.375 8.811,8.320 8.783 C 8.181 8.711,7.964 8.683,7.814 8.718 " stroke="none" fill-rule="evenodd" fill="black"></path></svg>