<svg width="24" height="24" viewBox="0 0 24 24" fill="none" xmlns="http://www.w3.org/2000/svg"><path d="M8.340 1.267 C 5.940 1.362,4.302 1.923,3.137 3.048 C 2.044 4.103,1.475 5.517,1.280 7.660 C 1.227 8.243,1.227 15.757,1.280 16.340 C 1.475 18.483,2.044 19.897,3.137 20.952 C 3.979 21.765,5.038 22.269,6.477 22.542 C 7.380 22.713,7.733 22.728,11.359 22.748 C 15.896 22.773,16.792 22.727,18.075 22.404 C 20.485 21.798,21.941 20.246,22.462 17.727 C 22.687 16.639,22.692 16.525,22.717 12.360 C 22.730 10.237,22.727 8.374,22.710 8.220 C 22.694 8.066,22.653 7.670,22.620 7.340 C 22.264 3.808,20.485 1.897,17.092 1.402 C 16.788 1.357,16.216 1.303,15.820 1.281 C 15.200 1.247,9.134 1.235,8.340 1.267 M16.760 2.854 C 19.095 3.241,20.241 4.101,20.816 5.900 C 20.979 6.412,21.160 7.335,21.160 7.660 L 21.160 7.760 11.961 7.760 L 2.762 7.760 2.784 7.570 C 2.967 6.029,3.362 4.990,4.037 4.271 C 4.381 3.904,4.691 3.673,5.140 3.450 C 5.827 3.109,6.693 2.895,7.820 2.787 C 7.908 2.778,9.861 2.774,12.160 2.778 C 15.926 2.784,16.382 2.791,16.760 2.854 M21.232 12.080 C 21.249 16.066,21.189 16.934,20.816 18.100 C 20.237 19.909,19.063 20.783,16.720 21.148 C 16.299 21.214,15.896 21.220,11.980 21.220 C 8.048 21.220,7.661 21.214,7.221 21.147 C 4.505 20.736,3.291 19.580,2.866 17.000 C 2.738 16.223,2.720 15.682,2.720 12.470 L 2.720 9.240 11.970 9.250 L 21.220 9.260 21.232 12.080 M11.680 12.263 C 11.506 12.338,8.878 14.961,8.779 15.159 C 8.692 15.332,8.688 15.662,8.771 15.821 C 8.961 16.185,9.372 16.336,9.747 16.180 C 9.839 16.141,10.279 15.734,10.946 15.072 L 12.000 14.025 13.054 15.072 C 13.721 15.734,14.161 16.141,14.253 16.180 C 14.628 16.336,15.039 16.185,15.229 15.821 C 15.312 15.662,15.308 15.332,15.222 15.159 C 15.117 14.950,12.492 12.338,12.311 12.262 C 12.125 12.184,11.862 12.185,11.680 12.263 " stroke="none" fill-rule="evenodd" fill="black"></path></svg>