<svg width="24" height="24" viewBox="0 0 24 24" fill="none" xmlns="http://www.w3.org/2000/svg"><path d="M7.912 1.262 C 7.905 1.268,7.642 1.303,7.326 1.339 C 5.409 1.560,4.143 2.076,3.137 3.048 C 2.044 4.103,1.475 5.517,1.280 7.660 C 1.227 8.243,1.227 15.757,1.280 16.340 C 1.475 18.483,2.044 19.897,3.137 20.952 C 3.977 21.763,5.046 22.273,6.470 22.540 C 7.444 22.723,7.662 22.732,11.340 22.750 C 15.908 22.772,16.798 22.726,18.075 22.404 C 20.485 21.798,21.938 20.249,22.462 17.728 C 22.696 16.600,22.700 16.509,22.700 12.000 C 22.700 7.491,22.696 7.400,22.462 6.272 C 22.135 4.700,21.406 3.440,20.374 2.666 C 19.229 1.806,17.865 1.395,15.780 1.279 C 15.128 1.243,7.946 1.227,7.912 1.262 M16.760 2.854 C 19.094 3.240,20.241 4.101,20.816 5.900 C 21.189 7.068,21.239 7.787,21.239 12.000 C 21.239 16.213,21.189 16.932,20.816 18.100 C 20.241 19.899,19.094 20.760,16.760 21.146 C 16.387 21.208,15.915 21.217,12.530 21.230 L 8.720 21.244 8.720 12.000 L 8.720 2.756 12.530 2.770 C 15.915 2.783,16.387 2.792,16.760 2.854 M7.240 12.000 L 7.240 21.120 7.110 21.119 C 6.915 21.118,6.311 20.983,5.860 20.838 C 5.079 20.588,4.529 20.254,4.037 19.729 C 3.318 18.964,2.912 17.825,2.762 16.160 C 2.706 15.545,2.706 8.455,2.762 7.840 C 2.912 6.175,3.318 5.036,4.037 4.271 C 4.625 3.643,5.288 3.286,6.355 3.021 C 6.811 2.908,6.892 2.893,7.090 2.885 L 7.240 2.880 7.240 12.000 M14.814 8.718 C 14.745 8.735,14.628 8.786,14.554 8.832 C 14.360 8.953,11.821 11.516,11.744 11.668 C 11.638 11.879,11.660 12.194,11.795 12.402 C 11.951 12.642,14.464 15.133,14.639 15.221 C 14.811 15.308,15.142 15.312,15.301 15.230 C 15.539 15.106,15.720 14.816,15.720 14.560 C 15.720 14.291,15.609 14.151,14.529 13.070 L 13.461 12.000 14.529 10.930 C 15.609 9.849,15.720 9.709,15.720 9.440 C 15.720 9.193,15.537 8.892,15.320 8.782 C 15.180 8.710,14.962 8.683,14.814 8.718 " stroke="none" fill-rule="evenodd" fill="black"></path></svg>