<svg width="24" height="24" viewBox="0 0 24 24" fill="none" xmlns="http://www.w3.org/2000/svg"><path d="M8.760 1.266 C 8.328 1.307,7.905 1.457,7.564 1.690 C 7.228 1.921,5.022 3.704,4.897 3.847 C 4.701 4.070,4.495 4.436,4.394 4.740 C 4.269 5.114,4.260 5.862,4.376 6.200 C 4.486 6.522,4.627 6.791,4.814 7.038 C 5.029 7.320,7.510 9.311,7.858 9.480 C 8.318 9.704,8.451 9.720,9.908 9.720 L 11.240 9.720 11.240 10.477 L 11.240 11.235 8.790 11.249 C 6.063 11.266,6.198 11.253,5.620 11.553 C 5.243 11.749,4.789 12.204,4.590 12.585 C 4.318 13.105,4.315 13.140,4.329 15.613 C 4.342 17.818,4.342 17.820,4.436 18.074 C 4.552 18.386,4.862 18.859,5.083 19.058 C 5.325 19.277,5.688 19.501,5.971 19.606 L 6.220 19.699 8.730 19.711 L 11.240 19.723 11.240 20.479 L 11.240 21.235 10.007 21.247 L 8.774 21.260 8.612 21.367 C 8.372 21.526,8.267 21.721,8.267 22.007 C 8.267 22.203,8.286 22.270,8.383 22.408 C 8.447 22.499,8.572 22.610,8.660 22.656 C 8.818 22.739,8.865 22.740,11.878 22.751 C 14.020 22.759,15.000 22.749,15.151 22.718 C 15.722 22.599,15.934 21.894,15.522 21.482 C 15.300 21.260,15.166 21.240,13.882 21.240 L 12.760 21.240 12.760 20.480 L 12.760 19.720 14.090 19.719 C 15.578 19.719,15.741 19.699,16.196 19.459 C 16.509 19.295,18.859 17.425,19.124 17.130 C 19.513 16.696,19.729 16.116,19.730 15.500 C 19.731 14.907,19.553 14.395,19.184 13.929 C 18.963 13.652,16.577 11.741,16.211 11.549 C 15.712 11.287,15.608 11.273,14.110 11.251 L 12.760 11.231 12.760 10.476 L 12.760 9.720 15.158 9.720 C 16.761 9.720,17.626 9.705,17.768 9.676 C 18.610 9.499,19.364 8.795,19.626 7.940 C 19.694 7.719,19.700 7.522,19.700 5.500 C 19.700 3.339,19.698 3.295,19.611 3.020 C 19.490 2.637,19.267 2.274,18.976 1.983 C 18.556 1.565,18.101 1.347,17.504 1.278 C 17.212 1.244,9.105 1.233,8.760 1.266 M17.581 2.818 C 17.810 2.913,17.980 3.068,18.104 3.290 L 18.220 3.500 18.220 5.460 C 18.220 7.260,18.214 7.435,18.147 7.609 C 18.055 7.848,17.749 8.131,17.512 8.196 C 17.383 8.231,16.248 8.240,13.000 8.232 C 8.913 8.221,8.652 8.216,8.528 8.148 C 8.266 8.005,6.012 6.170,5.925 6.028 C 5.777 5.788,5.737 5.499,5.814 5.233 C 5.851 5.108,5.926 4.951,5.981 4.886 C 6.144 4.692,8.373 2.928,8.565 2.841 C 8.736 2.763,8.835 2.762,13.091 2.761 C 16.802 2.760,17.463 2.769,17.581 2.818 M15.483 12.850 C 15.674 12.948,17.777 14.623,17.988 14.845 C 18.163 15.029,18.240 15.234,18.239 15.509 C 18.238 15.792,18.144 16.008,17.935 16.207 C 17.666 16.463,15.626 18.077,15.480 18.150 C 15.350 18.215,15.040 18.221,11.006 18.231 C 8.180 18.237,6.620 18.227,6.522 18.201 C 6.302 18.141,6.061 17.950,5.933 17.732 L 5.820 17.540 5.809 15.551 C 5.797 13.584,5.798 13.559,5.884 13.359 C 5.982 13.132,6.263 12.859,6.456 12.803 C 6.526 12.783,8.493 12.766,10.943 12.764 L 15.306 12.760 15.483 12.850 " stroke="none" fill-rule="evenodd" fill="black"></path></svg>