<svg width="24" height="24" viewBox="0 0 24 24" fill="none" xmlns="http://www.w3.org/2000/svg"><path d="M11.180 1.268 C 9.001 1.550,7.464 3.142,7.289 5.300 L 7.260 5.660 6.200 5.684 C 5.076 5.709,4.758 5.750,4.201 5.940 C 2.921 6.375,1.925 7.380,1.507 8.660 C 1.263 9.405,1.269 9.284,1.251 13.760 C 1.233 18.174,1.250 18.755,1.416 19.409 C 1.784 20.860,2.841 22.009,4.220 22.458 C 4.973 22.703,4.909 22.700,8.960 22.700 C 12.986 22.700,13.004 22.699,13.720 22.473 C 15.396 21.943,16.590 20.417,16.707 18.655 L 16.731 18.289 17.756 18.270 C 18.887 18.248,19.241 18.201,19.825 17.997 C 21.101 17.552,22.100 16.532,22.502 15.266 C 22.727 14.555,22.729 14.533,22.748 11.383 C 22.768 8.333,22.745 7.678,22.604 7.134 C 22.435 6.482,22.141 5.886,21.733 5.372 C 21.597 5.200,20.850 4.429,20.073 3.657 C 18.584 2.179,18.338 1.974,17.679 1.664 C 17.348 1.508,16.806 1.342,16.427 1.281 C 16.195 1.243,11.460 1.231,11.180 1.268 M16.352 2.783 C 16.713 2.857,17.032 2.979,17.351 3.165 C 17.513 3.260,18.029 3.748,19.121 4.839 C 20.711 6.429,20.811 6.547,21.027 7.081 C 21.238 7.603,21.239 7.622,21.239 10.980 C 21.239 13.898,21.234 14.124,21.162 14.471 C 20.939 15.553,20.159 16.381,19.100 16.659 C 18.751 16.751,18.192 16.798,17.433 16.799 L 16.765 16.800 16.749 14.430 C 16.735 12.347,16.725 12.024,16.663 11.760 C 16.506 11.090,16.252 10.516,15.884 9.998 C 15.516 9.482,12.777 6.771,12.320 6.471 C 11.412 5.877,10.705 5.680,9.476 5.680 L 8.760 5.680 8.760 5.544 C 8.760 5.326,8.864 4.843,8.973 4.555 C 9.205 3.939,9.695 3.385,10.270 3.089 C 10.957 2.736,11.032 2.728,13.752 2.724 C 15.692 2.721,16.091 2.730,16.352 2.783 M10.500 7.272 C 11.088 7.432,11.425 7.636,12.033 8.202 C 12.898 9.005,14.568 10.717,14.734 10.970 C 14.917 11.250,15.052 11.549,15.148 11.887 C 15.215 12.121,15.220 12.385,15.220 15.460 C 15.220 19.159,15.234 18.951,14.939 19.590 C 14.601 20.322,13.910 20.889,13.100 21.100 C 12.642 21.219,12.084 21.238,9.000 21.238 C 5.916 21.238,5.358 21.219,4.900 21.100 C 3.905 20.841,3.165 20.109,2.870 19.092 L 2.780 18.780 2.780 14.200 C 2.780 9.027,2.756 9.434,3.105 8.724 C 3.253 8.422,3.350 8.287,3.595 8.044 C 3.763 7.877,4.003 7.679,4.130 7.605 C 4.416 7.437,4.939 7.255,5.280 7.205 C 5.428 7.184,6.540 7.171,7.860 7.176 C 10.103 7.184,10.191 7.188,10.500 7.272 " stroke="none" fill-rule="evenodd" fill="black"></path></svg>