<svg width="24" height="24" viewBox="0 0 24 24" fill="none" xmlns="http://www.w3.org/2000/svg"><path d="M7.458 1.283 C 6.617 1.344,5.882 1.542,5.186 1.896 C 4.639 2.174,4.292 2.425,3.859 2.859 C 2.893 3.825,2.393 4.993,2.281 6.545 C 2.228 7.282,2.228 16.718,2.281 17.455 C 2.349 18.406,2.527 19.088,2.896 19.814 C 3.174 20.361,3.425 20.708,3.859 21.141 C 4.825 22.107,5.993 22.607,7.545 22.719 C 8.273 22.772,15.727 22.772,16.455 22.719 C 17.406 22.651,18.088 22.473,18.814 22.104 C 19.361 21.826,19.708 21.575,20.141 21.141 C 21.107 20.175,21.607 19.007,21.719 17.455 C 21.771 16.742,21.771 10.290,21.720 9.671 C 21.648 8.804,21.468 8.161,21.099 7.448 C 20.702 6.683,20.545 6.503,18.521 4.479 C 16.497 2.455,16.317 2.298,15.552 1.901 C 14.838 1.531,14.171 1.345,13.320 1.278 C 12.763 1.234,8.078 1.239,7.458 1.283 M13.961 2.871 C 14.611 3.058,15.124 3.318,15.600 3.704 C 15.743 3.820,16.644 4.703,17.603 5.667 C 18.871 6.943,19.399 7.501,19.540 7.716 C 19.773 8.071,20.003 8.592,20.128 9.047 L 20.220 9.380 20.220 13.560 C 20.220 18.106,20.227 17.961,19.991 18.640 C 19.531 19.965,18.455 20.880,17.020 21.164 C 16.606 21.247,7.394 21.247,6.980 21.164 C 5.326 20.836,4.164 19.674,3.836 18.020 C 3.753 17.605,3.753 6.395,3.836 5.980 C 4.165 4.319,5.392 3.102,7.000 2.841 C 7.165 2.815,7.327 2.787,7.360 2.780 C 7.393 2.773,8.824 2.771,10.540 2.776 C 13.607 2.784,13.665 2.786,13.961 2.871 M9.239 8.837 C 8.280 9.041,7.419 9.632,6.876 10.456 C 6.608 10.862,6.439 11.269,6.333 11.761 C 6.268 12.062,6.260 12.310,6.260 14.000 C 6.260 15.690,6.268 15.938,6.333 16.239 C 6.639 17.660,7.685 18.757,9.093 19.133 C 9.413 19.218,9.475 19.220,12.000 19.220 C 14.525 19.220,14.587 19.218,14.907 19.133 C 16.312 18.757,17.361 17.658,17.667 16.239 C 17.732 15.938,17.740 15.690,17.740 14.000 C 17.740 12.310,17.732 12.062,17.667 11.761 C 17.511 11.035,17.184 10.422,16.671 9.894 C 16.209 9.417,15.598 9.058,14.928 8.869 C 14.629 8.784,14.550 8.782,12.100 8.773 C 9.792 8.765,9.551 8.770,9.239 8.837 M11.240 11.740 L 11.240 13.240 9.500 13.240 L 7.760 13.240 7.760 12.708 C 7.760 11.837,7.903 11.450,8.417 10.936 C 8.982 10.371,9.352 10.248,10.510 10.243 L 11.240 10.240 11.240 11.740 M14.460 10.300 C 14.909 10.395,15.216 10.569,15.583 10.936 C 16.097 11.450,16.240 11.837,16.240 12.708 L 16.240 13.240 14.500 13.240 L 12.760 13.240 12.760 11.740 L 12.760 10.240 13.470 10.241 C 13.940 10.241,14.274 10.261,14.460 10.300 M11.240 16.260 L 11.240 17.760 10.530 17.759 C 9.374 17.758,8.982 17.629,8.417 17.064 C 7.903 16.550,7.760 16.163,7.760 15.292 L 7.760 14.760 9.500 14.760 L 11.240 14.760 11.240 16.260 M16.240 15.292 C 16.240 16.159,16.097 16.544,15.581 17.064 C 15.021 17.628,14.627 17.758,13.470 17.759 L 12.760 17.760 12.760 16.260 L 12.760 14.760 14.500 14.760 L 16.240 14.760 16.240 15.292 " stroke="none" fill-rule="evenodd" fill="black"></path></svg>