<svg width="24" height="24" viewBox="0 0 24 24" fill="none" xmlns="http://www.w3.org/2000/svg"><path d="M6.980 1.341 C 4.822 1.668,3.200 3.012,2.568 5.000 C 2.396 5.542,2.326 5.916,2.281 6.547 C 2.231 7.241,2.229 16.741,2.279 17.460 C 2.485 20.445,4.432 22.452,7.380 22.720 C 7.965 22.773,16.035 22.773,16.620 22.720 C 19.214 22.484,21.088 20.861,21.595 18.412 C 21.736 17.734,21.759 17.036,21.759 13.520 C 21.759 10.155,21.738 9.482,21.618 8.891 C 21.471 8.173,21.110 7.355,20.652 6.705 C 20.332 6.251,16.749 2.668,16.295 2.348 C 15.841 2.028,15.294 1.749,14.800 1.585 C 13.913 1.290,14.134 1.305,10.560 1.296 C 8.011 1.289,7.265 1.298,6.980 1.341 M13.965 2.887 C 14.468 3.025,14.861 3.199,15.280 3.469 C 15.562 3.650,15.937 4.005,17.483 5.554 C 18.867 6.939,19.397 7.496,19.541 7.716 C 19.773 8.072,20.003 8.593,20.128 9.047 L 20.220 9.380 20.220 13.580 C 20.220 18.076,20.227 17.905,20.015 18.577 C 19.832 19.154,19.569 19.595,19.144 20.034 C 18.535 20.665,17.866 21.012,16.920 21.189 C 16.570 21.254,16.177 21.260,12.000 21.260 C 7.823 21.260,7.430 21.254,7.080 21.189 C 6.134 21.012,5.465 20.665,4.856 20.034 C 4.342 19.502,4.068 18.982,3.850 18.120 C 3.791 17.886,3.783 17.293,3.771 12.220 C 3.761 8.319,3.770 6.478,3.800 6.249 C 3.934 5.222,4.424 4.304,5.168 3.681 C 5.495 3.407,6.182 3.051,6.600 2.939 C 7.216 2.773,7.379 2.766,10.540 2.774 L 13.580 2.781 13.965 2.887 M9.329 13.279 C 9.257 13.296,9.131 13.357,9.048 13.414 C 8.776 13.603,6.887 15.534,6.821 15.691 C 6.743 15.878,6.743 16.122,6.822 16.310 C 6.897 16.490,8.952 18.557,9.159 18.662 C 9.332 18.748,9.662 18.752,9.821 18.669 C 10.184 18.480,10.336 18.068,10.181 17.695 C 10.145 17.611,9.809 17.238,9.354 16.777 L 8.586 16.000 9.354 15.223 C 10.144 14.424,10.240 14.291,10.240 14.004 C 10.240 13.526,9.792 13.170,9.329 13.279 M14.420 13.260 C 14.398 13.267,14.331 13.284,14.271 13.297 C 14.124 13.329,13.881 13.548,13.814 13.708 C 13.743 13.878,13.745 14.128,13.819 14.305 C 13.855 14.389,14.191 14.762,14.647 15.224 L 15.415 16.001 14.648 16.774 C 14.180 17.246,13.858 17.604,13.821 17.692 C 13.664 18.068,13.815 18.479,14.179 18.669 C 14.338 18.752,14.668 18.748,14.841 18.662 C 15.048 18.557,17.103 16.490,17.178 16.310 C 17.212 16.229,17.240 16.089,17.240 16.000 C 17.240 15.911,17.212 15.771,17.178 15.690 C 17.107 15.518,15.051 13.443,14.860 13.350 C 14.734 13.288,14.488 13.237,14.420 13.260 " stroke="none" fill-rule="evenodd" fill="black"></path></svg>