<svg width="24" height="24" viewBox="0 0 24 24" fill="none" xmlns="http://www.w3.org/2000/svg"><path d="M14.170 1.282 C 12.757 1.384,11.705 1.855,11.094 2.658 C 10.821 3.016,10.677 3.293,10.526 3.746 C 10.345 4.290,10.276 4.739,10.251 5.530 L 10.229 6.240 8.765 6.241 C 6.205 6.242,5.258 6.340,4.260 6.709 C 2.796 7.249,1.921 8.253,1.499 9.874 C 1.263 10.784,1.260 10.839,1.260 14.500 C 1.260 17.542,1.267 17.904,1.332 18.320 C 1.412 18.826,1.554 19.389,1.704 19.787 C 2.226 21.174,3.281 22.073,4.860 22.477 C 5.841 22.727,6.768 22.776,10.080 22.748 C 11.529 22.735,12.766 22.707,12.960 22.683 C 14.839 22.443,16.029 21.813,16.789 20.654 C 17.066 20.232,17.227 19.867,17.396 19.277 C 17.659 18.361,17.720 17.633,17.720 15.395 L 17.720 13.770 18.250 13.744 C 19.384 13.687,20.027 13.562,20.623 13.283 C 21.775 12.743,22.359 11.897,22.629 10.380 C 22.692 10.025,22.700 9.699,22.700 7.500 C 22.700 4.794,22.691 4.658,22.455 3.880 C 22.006 2.402,21.034 1.618,19.299 1.336 C 18.975 1.283,18.499 1.269,16.780 1.259 C 15.614 1.252,14.439 1.263,14.170 1.282 M19.490 2.889 C 20.207 3.084,20.607 3.379,20.863 3.900 C 21.179 4.545,21.240 5.126,21.240 7.500 C 21.240 9.874,21.179 10.455,20.863 11.100 C 20.606 11.623,20.200 11.921,19.490 12.106 C 19.173 12.189,18.971 12.212,18.410 12.229 L 17.720 12.251 17.720 11.950 C 17.720 11.283,17.586 10.344,17.395 9.680 C 17.019 8.367,16.231 7.402,15.109 6.881 C 14.294 6.503,13.503 6.334,12.190 6.257 L 11.720 6.229 11.720 5.804 C 11.720 5.017,11.846 4.343,12.080 3.880 C 12.307 3.430,12.592 3.190,13.132 2.993 C 13.729 2.775,13.901 2.765,16.620 2.774 L 19.100 2.783 19.490 2.889 M13.141 7.851 C 15.006 8.194,15.763 8.934,16.101 10.746 C 16.250 11.541,16.281 17.044,16.143 18.025 C 16.059 18.617,15.919 19.098,15.694 19.560 C 15.356 20.254,14.753 20.732,13.907 20.977 C 13.053 21.224,13.132 21.220,9.480 21.220 C 5.824 21.220,5.807 21.219,5.034 20.976 C 3.707 20.559,3.103 19.795,2.809 18.160 C 2.747 17.821,2.740 17.422,2.740 14.500 C 2.740 11.578,2.747 11.179,2.809 10.840 C 3.068 9.401,3.606 8.598,4.590 8.184 C 4.963 8.027,5.461 7.894,5.860 7.844 C 6.058 7.820,6.265 7.793,6.320 7.784 C 6.375 7.776,7.851 7.772,9.600 7.777 C 12.367 7.784,12.827 7.793,13.141 7.851 " stroke="none" fill-rule="evenodd" fill="black"></path></svg>