<svg width="24" height="24" viewBox="0 0 24 24" fill="none" xmlns="http://www.w3.org/2000/svg"><path d="M11.320 1.281 C 9.259 1.398,7.250 2.142,5.530 3.424 C 4.912 3.884,3.884 4.912,3.424 5.530 C 1.875 7.608,1.136 10.050,1.281 12.610 C 1.402 14.759,2.118 16.717,3.424 18.470 C 3.880 19.083,4.909 20.111,5.530 20.575 C 7.606 22.126,10.070 22.870,12.627 22.717 C 14.790 22.588,16.724 21.879,18.470 20.575 C 19.087 20.115,20.115 19.087,20.575 18.470 C 22.127 16.391,22.870 13.930,22.717 11.373 C 22.588 9.210,21.879 7.276,20.575 5.530 C 20.115 4.913,19.087 3.885,18.470 3.425 C 17.047 2.362,15.454 1.679,13.742 1.398 C 13.334 1.331,12.074 1.229,11.880 1.247 C 11.847 1.250,11.595 1.265,11.320 1.281 M13.146 2.822 C 14.790 3.037,16.312 3.660,17.609 4.647 C 17.780 4.777,17.920 4.887,17.920 4.892 C 17.920 4.896,14.988 7.832,11.405 11.415 L 4.891 17.929 4.650 17.614 C 3.857 16.572,3.228 15.221,2.965 13.998 C 2.689 12.714,2.690 11.283,2.966 10.002 C 3.249 8.688,3.936 7.265,4.813 6.180 C 5.148 5.765,5.972 4.962,6.381 4.653 C 7.688 3.664,9.192 3.044,10.820 2.823 C 11.380 2.746,12.569 2.746,13.146 2.822 M19.407 6.460 C 19.749 6.912,20.009 7.340,20.302 7.940 C 20.943 9.248,21.240 10.535,21.240 12.000 C 21.240 13.463,20.944 14.747,20.303 16.060 C 19.814 17.063,19.273 17.805,18.434 18.622 C 17.648 19.389,17.024 19.830,16.060 20.302 C 14.752 20.943,13.465 21.240,12.000 21.240 C 9.888 21.240,7.930 20.560,6.244 19.240 L 5.963 19.020 12.487 12.495 L 19.011 5.969 19.118 6.095 C 19.177 6.164,19.307 6.328,19.407 6.460 " stroke="none" fill-rule="evenodd" fill="black"></path></svg>