<svg width="24" height="24" viewBox="0 0 24 24" fill="none" xmlns="http://www.w3.org/2000/svg"><path d="M7.920 1.280 C 6.794 1.350,6.085 1.589,5.548 2.080 C 4.941 2.635,4.658 3.454,4.605 4.814 L 4.580 5.448 4.205 5.545 C 3.744 5.664,3.510 5.760,3.112 5.993 C 2.044 6.617,1.520 7.633,1.314 9.480 C 1.243 10.117,1.243 13.883,1.314 14.520 C 1.520 16.367,2.044 17.383,3.112 18.007 C 3.510 18.240,3.744 18.336,4.205 18.455 L 4.580 18.552 4.605 19.186 C 4.634 19.935,4.715 20.434,4.879 20.884 C 5.177 21.701,5.733 22.228,6.580 22.495 C 7.332 22.732,7.856 22.758,12.000 22.758 C 16.144 22.758,16.668 22.732,17.420 22.495 C 18.267 22.228,18.823 21.701,19.121 20.884 C 19.285 20.434,19.366 19.935,19.395 19.186 L 19.420 18.552 19.780 18.458 C 21.358 18.046,22.219 17.091,22.556 15.380 C 22.713 14.578,22.737 14.140,22.737 12.000 C 22.737 10.591,22.721 9.795,22.686 9.480 C 22.480 7.633,21.956 6.617,20.888 5.993 C 20.490 5.760,20.256 5.664,19.795 5.545 L 19.420 5.448 19.395 4.814 C 19.366 4.065,19.285 3.566,19.121 3.116 C 18.739 2.070,17.957 1.516,16.580 1.316 C 16.203 1.261,8.726 1.230,7.920 1.280 M16.443 2.818 C 17.147 2.924,17.507 3.127,17.672 3.510 C 17.792 3.790,17.877 4.258,17.906 4.790 L 17.931 5.260 12.000 5.260 L 6.069 5.260 6.094 4.790 C 6.123 4.258,6.208 3.790,6.328 3.510 C 6.489 3.136,6.854 2.925,7.520 2.821 C 8.042 2.739,15.905 2.737,16.443 2.818 M18.367 6.819 C 20.316 7.008,20.889 7.528,21.168 9.360 C 21.242 9.842,21.242 14.158,21.168 14.640 C 20.889 16.472,20.316 16.992,18.367 17.181 C 17.503 17.265,6.497 17.265,5.633 17.181 C 3.681 16.992,3.115 16.479,2.832 14.640 C 2.758 14.157,2.758 9.843,2.832 9.360 C 3.112 7.539,3.686 7.009,5.579 6.821 C 6.379 6.741,17.551 6.739,18.367 6.819 M17.906 19.210 C 17.844 20.356,17.627 20.824,17.058 21.037 C 16.538 21.232,16.349 21.240,12.000 21.240 C 7.651 21.240,7.462 21.232,6.942 21.037 C 6.373 20.824,6.156 20.356,6.094 19.210 L 6.069 18.740 12.000 18.740 L 17.931 18.740 17.906 19.210 " stroke="none" fill-rule="evenodd" fill="black"></path></svg>