<svg width="24" height="24" viewBox="0 0 24 24" fill="none" xmlns="http://www.w3.org/2000/svg"><path d="M8.880 1.786 C 7.087 1.928,6.140 2.274,5.413 3.055 C 4.696 3.825,4.386 4.804,4.280 6.637 C 4.230 7.493,4.230 16.448,4.279 17.340 C 4.382 19.184,4.692 20.171,5.413 20.945 C 6.061 21.640,6.888 21.988,8.320 22.167 C 8.922 22.243,15.078 22.243,15.680 22.167 C 16.545 22.059,17.154 21.896,17.656 21.639 C 18.074 21.426,18.303 21.253,18.608 20.923 C 19.308 20.166,19.619 19.164,19.721 17.340 C 19.770 16.455,19.770 7.545,19.721 6.660 C 19.618 4.816,19.308 3.829,18.587 3.055 C 17.966 2.389,17.201 2.051,15.860 1.853 C 15.486 1.797,14.943 1.786,12.240 1.779 C 10.491 1.775,8.979 1.778,8.880 1.786 M15.621 3.334 C 16.537 3.469,17.050 3.657,17.404 3.987 C 17.823 4.377,18.013 4.846,18.166 5.860 C 18.246 6.390,18.246 17.610,18.166 18.140 C 18.013 19.154,17.823 19.623,17.404 20.013 C 17.044 20.348,16.530 20.534,15.580 20.671 C 15.158 20.732,14.726 20.740,12.000 20.740 C 9.274 20.740,8.842 20.732,8.420 20.671 C 6.610 20.410,6.097 19.909,5.834 18.140 C 5.755 17.612,5.755 6.388,5.834 5.860 C 5.976 4.907,6.182 4.384,6.556 4.027 C 6.918 3.682,7.330 3.510,8.102 3.381 C 8.816 3.262,9.301 3.248,12.260 3.258 C 14.715 3.267,15.250 3.279,15.621 3.334 M21.815 3.277 C 21.638 3.321,21.461 3.456,21.353 3.631 L 21.260 3.780 21.260 11.500 L 21.260 19.220 21.353 19.369 C 21.710 19.943,22.576 19.812,22.716 19.162 C 22.776 18.883,22.777 4.101,22.717 3.841 C 22.623 3.432,22.215 3.177,21.815 3.277 M1.699 3.816 C 1.550 3.881,1.332 4.124,1.291 4.271 C 1.251 4.414,1.251 19.586,1.291 19.729 C 1.333 19.881,1.553 20.121,1.708 20.186 C 1.873 20.255,2.127 20.255,2.292 20.186 C 2.447 20.121,2.667 19.881,2.709 19.729 C 2.749 19.586,2.749 4.414,2.709 4.271 C 2.667 4.119,2.447 3.879,2.292 3.814 C 2.130 3.746,1.857 3.747,1.699 3.816 " stroke="none" fill-rule="evenodd" fill="black"></path></svg>