<svg width="24" height="24" viewBox="0 0 24 24" fill="none" xmlns="http://www.w3.org/2000/svg"><path d="M4.420 1.259 C 4.398 1.267,4.331 1.284,4.271 1.297 C 4.124 1.329,3.881 1.548,3.814 1.708 C 3.691 2.002,3.771 2.336,4.015 2.550 C 4.095 2.621,4.211 2.693,4.271 2.709 C 4.414 2.749,19.586 2.749,19.729 2.709 C 19.881 2.667,20.121 2.447,20.186 2.292 C 20.251 2.137,20.256 1.887,20.197 1.733 C 20.145 1.593,19.979 1.414,19.820 1.326 C 19.709 1.265,19.098 1.259,12.080 1.253 C 7.889 1.249,4.442 1.252,4.420 1.259 M6.560 4.282 C 4.843 4.376,3.810 4.710,3.055 5.413 C 2.360 6.061,2.012 6.888,1.833 8.320 C 1.757 8.922,1.757 15.078,1.833 15.680 C 2.012 17.112,2.360 17.939,3.055 18.587 C 3.829 19.308,4.816 19.618,6.660 19.721 C 7.545 19.770,16.455 19.770,17.340 19.721 C 19.164 19.619,20.166 19.308,20.923 18.608 C 21.635 17.951,21.987 17.122,22.167 15.680 C 22.243 15.078,22.243 8.922,22.167 8.320 C 22.059 7.455,21.896 6.846,21.639 6.344 C 21.426 5.926,21.253 5.697,20.923 5.392 C 20.166 4.692,19.164 4.381,17.340 4.279 C 16.552 4.236,7.363 4.238,6.560 4.282 M18.280 5.850 C 18.789 5.944,18.972 5.990,19.254 6.096 C 19.932 6.352,20.313 6.809,20.520 7.620 C 20.728 8.434,20.740 8.671,20.740 12.000 C 20.740 14.726,20.732 15.158,20.671 15.580 C 20.534 16.530,20.348 17.044,20.013 17.404 C 19.623 17.823,19.154 18.013,18.140 18.166 C 17.610 18.246,6.390 18.246,5.860 18.166 C 4.851 18.014,4.377 17.822,3.994 17.411 C 3.692 17.088,3.538 16.725,3.403 16.025 C 3.260 15.279,3.232 14.464,3.251 11.560 C 3.270 8.653,3.286 8.379,3.480 7.619 C 3.720 6.681,4.216 6.194,5.160 5.968 C 5.454 5.898,5.640 5.869,6.340 5.785 C 6.406 5.777,9.043 5.774,12.200 5.779 C 17.211 5.787,17.983 5.796,18.280 5.850 M4.815 21.278 C 4.331 21.393,4.098 22.004,4.383 22.408 C 4.447 22.499,4.572 22.610,4.660 22.656 L 4.820 22.740 12.380 22.751 C 17.783 22.758,20.001 22.749,20.154 22.717 C 20.902 22.562,20.929 21.473,20.189 21.286 C 19.978 21.233,5.036 21.225,4.815 21.278 " stroke="none" fill-rule="evenodd" fill="black"></path></svg>