<svg width="24" height="24" viewBox="0 0 24 24" fill="none" xmlns="http://www.w3.org/2000/svg"><path d="M8.538 1.280 C 7.333 1.384,6.223 1.897,5.505 2.683 C 4.788 3.467,4.373 4.450,4.281 5.587 C 4.227 6.253,4.227 17.763,4.281 18.415 C 4.467 20.670,5.886 22.253,8.095 22.671 C 8.424 22.733,8.811 22.740,12.000 22.740 C 15.189 22.740,15.576 22.733,15.905 22.671 C 18.114 22.253,19.533 20.670,19.719 18.415 C 19.772 17.780,19.772 6.220,19.719 5.585 C 19.534 3.347,18.135 1.771,15.946 1.334 C 15.663 1.277,15.177 1.267,12.260 1.259 C 10.412 1.253,8.737 1.263,8.538 1.280 M15.840 2.839 C 16.819 3.039,17.647 3.738,18.009 4.670 C 18.246 5.281,18.240 5.126,18.240 10.424 L 18.240 15.280 12.000 15.280 L 5.760 15.280 5.760 10.424 C 5.760 5.126,5.754 5.281,5.991 4.670 C 6.371 3.692,7.255 2.978,8.306 2.802 C 8.413 2.784,10.066 2.768,11.980 2.765 C 15.277 2.761,15.480 2.765,15.840 2.839 M1.815 3.277 C 1.638 3.321,1.461 3.456,1.353 3.631 L 1.260 3.780 1.260 12.000 L 1.260 20.220 1.353 20.369 C 1.710 20.943,2.576 20.812,2.716 20.162 C 2.776 19.882,2.777 4.101,2.717 3.841 C 2.623 3.432,2.215 3.177,1.815 3.277 M21.815 3.277 C 21.638 3.321,21.461 3.456,21.353 3.631 L 21.260 3.780 21.260 12.000 L 21.260 20.220 21.353 20.369 C 21.710 20.943,22.576 20.812,22.716 20.162 C 22.776 19.882,22.777 4.101,22.717 3.841 C 22.623 3.432,22.215 3.177,21.815 3.277 M18.240 17.596 C 18.240 18.526,18.198 18.844,18.009 19.330 C 17.647 20.262,16.819 20.961,15.840 21.161 C 15.481 21.235,15.268 21.239,12.000 21.239 C 8.732 21.239,8.519 21.235,8.160 21.161 C 7.181 20.961,6.353 20.262,5.991 19.330 C 5.802 18.844,5.760 18.526,5.760 17.596 L 5.760 16.760 12.000 16.760 L 18.240 16.760 18.240 17.596 " stroke="none" fill-rule="evenodd" fill="black"></path></svg>