<svg width="24" height="24" viewBox="0 0 24 24" fill="none" xmlns="http://www.w3.org/2000/svg"><path d="M16.455 1.277 C 16.138 1.355,15.910 1.645,15.907 1.974 C 15.902 2.417,16.151 2.674,16.668 2.760 C 18.746 3.104,20.561 4.913,21.122 7.200 C 21.179 7.434,21.212 7.734,21.228 8.162 C 21.248 8.706,21.240 8.841,21.161 9.236 C 21.058 9.751,21.069 9.939,21.213 10.157 C 21.478 10.557,22.160 10.561,22.422 10.164 C 22.651 9.816,22.799 8.690,22.724 7.854 C 22.641 6.916,22.417 6.112,22.002 5.260 C 21.150 3.511,19.650 2.141,17.939 1.548 C 17.344 1.342,16.683 1.221,16.455 1.277 M16.060 4.577 C 15.911 4.643,15.739 4.824,15.683 4.973 C 15.620 5.138,15.631 5.426,15.705 5.572 C 15.852 5.863,16.011 5.957,16.438 6.004 C 16.861 6.052,17.165 6.210,17.485 6.551 C 17.772 6.855,17.968 7.194,18.059 7.542 C 18.141 7.859,18.136 8.060,18.036 8.384 C 17.891 8.853,18.013 9.223,18.370 9.395 C 18.692 9.551,19.087 9.465,19.291 9.194 C 19.548 8.854,19.667 8.007,19.548 7.374 C 19.300 6.064,18.259 4.907,17.049 4.597 C 16.702 4.508,16.235 4.499,16.060 4.577 M6.140 6.923 C 5.490 7.020,4.913 7.288,4.517 7.680 C 4.041 8.149,3.815 8.676,3.548 9.940 L 3.379 10.740 2.939 10.760 C 2.437 10.783,2.273 10.853,2.112 11.112 C 1.972 11.338,1.982 11.692,2.134 11.912 C 2.284 12.127,2.517 12.240,2.813 12.240 C 2.968 12.240,3.040 12.256,3.040 12.290 C 3.041 12.318,2.992 12.579,2.932 12.871 L 2.824 13.403 2.616 13.559 C 2.212 13.865,1.952 14.288,1.806 14.880 C 1.711 15.265,1.684 15.512,1.416 18.448 C 1.195 20.870,1.196 20.932,1.462 21.474 C 1.657 21.873,2.103 22.324,2.480 22.506 C 2.923 22.719,3.078 22.740,4.220 22.740 C 5.364 22.740,5.535 22.717,5.933 22.508 C 6.331 22.299,6.501 22.039,6.797 21.187 C 6.882 20.941,6.964 20.711,6.978 20.675 C 7.046 20.507,7.126 20.501,9.280 20.487 C 11.465 20.473,11.791 20.486,11.920 20.593 C 11.966 20.632,12.084 20.892,12.195 21.205 C 12.440 21.892,12.567 22.125,12.814 22.341 C 13.211 22.688,13.737 22.783,15.080 22.749 C 16.046 22.725,16.262 22.674,16.733 22.360 C 17.375 21.930,17.726 21.287,17.725 20.540 C 17.725 20.095,17.302 15.585,17.217 15.126 C 17.092 14.444,16.879 14.030,16.457 13.649 L 16.204 13.420 16.082 12.844 C 16.015 12.527,15.960 12.261,15.960 12.254 C 15.960 12.246,16.062 12.240,16.187 12.240 C 16.483 12.240,16.716 12.127,16.866 11.912 C 16.961 11.774,16.980 11.706,16.980 11.500 C 16.980 11.294,16.961 11.226,16.866 11.088 C 16.691 10.837,16.495 10.760,16.027 10.760 C 15.814 10.760,15.640 10.753,15.640 10.745 C 15.640 10.667,15.305 9.196,15.238 8.980 C 15.141 8.665,14.936 8.235,14.761 7.982 C 14.463 7.548,13.881 7.174,13.220 6.991 C 12.903 6.903,12.872 6.902,9.640 6.895 C 7.847 6.891,6.272 6.904,6.140 6.923 M12.648 8.404 C 13.320 8.508,13.621 8.779,13.824 9.462 C 13.863 9.593,14.050 10.438,14.240 11.340 L 14.586 12.980 9.526 12.990 C 6.744 12.996,4.460 12.993,4.451 12.985 C 4.417 12.950,5.167 9.506,5.268 9.232 C 5.452 8.736,5.758 8.501,6.351 8.401 C 6.654 8.350,12.317 8.353,12.648 8.404 M15.113 14.582 C 15.493 14.695,15.666 14.921,15.757 15.423 C 15.808 15.711,16.240 20.266,16.240 20.522 C 16.240 20.775,16.069 21.040,15.830 21.155 C 15.661 21.237,15.605 21.241,14.716 21.231 L 13.780 21.220 13.576 20.632 C 13.353 19.993,13.209 19.733,12.942 19.486 C 12.736 19.296,12.543 19.192,12.218 19.096 C 12.006 19.033,11.732 19.024,9.671 19.010 C 7.099 18.994,6.884 19.009,6.417 19.238 C 6.118 19.385,5.788 19.725,5.635 20.042 C 5.577 20.162,5.453 20.481,5.359 20.752 L 5.188 21.244 4.198 21.232 L 3.207 21.220 3.054 21.098 C 2.969 21.031,2.858 20.893,2.808 20.792 L 2.716 20.608 2.939 18.174 C 3.062 16.835,3.180 15.632,3.203 15.500 C 3.308 14.886,3.473 14.666,3.909 14.564 C 3.993 14.544,6.468 14.526,9.483 14.524 C 14.261 14.520,14.930 14.527,15.113 14.582 M4.720 16.064 C 4.423 16.193,4.269 16.426,4.269 16.746 C 4.269 17.013,4.411 17.267,4.632 17.390 C 4.788 17.478,4.818 17.480,6.117 17.480 C 7.358 17.480,7.453 17.475,7.598 17.401 C 7.888 17.253,8.033 16.959,7.982 16.619 C 7.959 16.466,7.918 16.394,7.765 16.242 C 7.648 16.125,7.527 16.043,7.444 16.027 C 7.370 16.012,6.759 16.001,6.085 16.002 C 5.082 16.003,4.835 16.014,4.720 16.064 M11.525 16.029 C 11.472 16.039,11.343 16.133,11.238 16.238 C 11.082 16.394,11.041 16.465,11.018 16.619 C 10.967 16.959,11.112 17.253,11.402 17.401 C 11.547 17.475,11.642 17.480,12.883 17.480 C 14.182 17.480,14.212 17.478,14.368 17.390 C 14.784 17.157,14.860 16.536,14.513 16.212 C 14.297 16.010,14.214 16.000,12.871 16.005 C 12.183 16.008,11.577 16.019,11.525 16.029 " stroke="none" fill-rule="evenodd" fill="black"></path></svg>