<svg width="24" height="24" viewBox="0 0 24 24" fill="none" xmlns="http://www.w3.org/2000/svg"><path d="M11.340 1.482 C 10.809 1.564,10.199 1.810,9.786 2.106 C 9.343 2.425,2.604 7.843,2.397 8.047 C 2.007 8.433,1.654 9.040,1.449 9.680 C 1.217 10.402,1.209 10.939,1.415 12.160 C 1.587 13.185,1.611 13.280,1.746 13.440 C 2.069 13.823,2.705 13.765,2.950 13.328 C 3.072 13.111,3.066 12.947,2.896 11.947 C 2.688 10.719,2.717 10.367,3.087 9.615 C 3.176 9.434,3.306 9.261,3.480 9.093 C 3.623 8.954,5.302 7.590,7.212 6.062 C 9.695 4.075,10.754 3.251,10.932 3.168 C 11.282 3.004,11.562 2.946,12.000 2.946 C 12.445 2.947,12.790 3.027,13.130 3.209 C 13.382 3.343,20.293 8.847,20.578 9.141 C 20.921 9.493,21.196 10.170,21.227 10.740 C 21.245 11.070,21.190 11.442,20.563 15.190 C 20.165 17.567,19.846 19.368,19.800 19.492 C 19.510 20.266,18.702 20.922,17.893 21.039 C 17.732 21.062,16.306 21.079,14.404 21.079 L 11.187 21.080 11.023 21.176 C 10.803 21.305,10.669 21.548,10.669 21.817 C 10.669 22.154,10.871 22.427,11.192 22.521 C 11.295 22.552,12.380 22.561,14.760 22.552 C 18.163 22.538,18.182 22.538,18.500 22.449 C 19.676 22.119,20.753 21.170,21.164 20.102 C 21.322 19.693,21.317 19.724,22.081 15.160 C 22.847 10.587,22.842 10.648,22.540 9.680 C 22.317 8.966,21.955 8.369,21.477 7.931 C 21.377 7.839,19.685 6.475,17.717 4.901 C 14.492 2.320,14.101 2.019,13.740 1.840 C 13.208 1.576,12.800 1.480,12.120 1.460 C 11.823 1.451,11.472 1.461,11.340 1.482 M1.811 15.279 C 1.337 15.393,1.105 16.014,1.387 16.413 C 1.560 16.658,1.729 16.725,2.272 16.763 C 3.685 16.861,4.832 17.357,5.737 18.263 C 6.643 19.168,7.139 20.315,7.237 21.728 C 7.275 22.273,7.342 22.440,7.591 22.615 C 7.892 22.829,8.359 22.753,8.588 22.453 C 8.730 22.266,8.756 22.072,8.714 21.509 C 8.530 19.036,7.177 16.981,5.060 15.961 C 4.358 15.622,3.405 15.358,2.680 15.301 C 2.037 15.251,1.936 15.248,1.811 15.279 M1.811 18.281 C 1.339 18.387,1.103 19.011,1.385 19.409 C 1.542 19.632,1.726 19.717,2.146 19.761 C 2.822 19.831,3.207 19.999,3.604 20.396 C 4.001 20.793,4.169 21.178,4.239 21.854 C 4.260 22.054,4.309 22.270,4.352 22.354 C 4.602 22.838,5.292 22.868,5.617 22.408 C 5.726 22.253,5.733 22.220,5.728 21.885 C 5.701 20.151,4.519 18.699,2.860 18.361 C 2.432 18.274,1.990 18.240,1.811 18.281 M1.689 21.056 C 1.452 21.134,1.262 21.289,1.131 21.511 C 1.036 21.672,1.020 21.744,1.020 22.000 C 1.020 22.257,1.036 22.327,1.133 22.492 C 1.356 22.871,1.789 23.060,2.217 22.964 C 2.929 22.805,3.232 21.975,2.789 21.394 C 2.549 21.080,2.069 20.932,1.689 21.056 " stroke="none" fill-rule="evenodd" fill="black"></path></svg>