<svg width="24" height="24" viewBox="0 0 24 24" fill="none" xmlns="http://www.w3.org/2000/svg"><path d="M5.543 1.285 C 4.724 1.337,3.873 1.540,3.340 1.810 C 2.848 2.060,2.388 2.458,2.088 2.893 C 1.840 3.254,1.760 3.412,1.605 3.852 C 1.308 4.694,1.240 5.475,1.241 8.020 C 1.242 10.424,1.302 11.196,1.546 11.974 C 1.956 13.274,2.726 14.044,4.026 14.454 C 4.784 14.692,5.586 14.758,7.750 14.759 L 9.240 14.760 9.241 16.250 C 9.242 18.414,9.308 19.216,9.546 19.974 C 9.956 21.274,10.726 22.044,12.026 22.454 C 12.806 22.699,13.578 22.758,16.000 22.758 C 18.422 22.758,19.194 22.699,19.974 22.454 C 21.274 22.044,22.044 21.274,22.454 19.974 C 22.699 19.194,22.758 18.422,22.758 16.000 C 22.758 13.578,22.699 12.806,22.454 12.026 C 22.044 10.726,21.274 9.956,19.974 9.546 C 19.216 9.308,18.414 9.242,16.250 9.241 L 14.760 9.240 14.759 7.750 C 14.758 5.586,14.692 4.784,14.454 4.026 C 14.044 2.726,13.274 1.956,11.974 1.546 C 11.526 1.406,11.032 1.325,10.332 1.280 C 9.629 1.234,6.280 1.238,5.543 1.285 M10.840 2.818 C 12.106 3.010,12.726 3.484,13.038 4.500 C 13.216 5.077,13.240 5.422,13.240 7.409 L 13.240 9.278 13.150 9.294 C 11.946 9.507,11.491 9.664,10.881 10.080 C 10.110 10.605,9.585 11.515,9.378 12.685 C 9.342 12.891,9.304 13.101,9.295 13.150 L 9.278 13.240 7.409 13.240 C 5.422 13.240,5.077 13.216,4.500 13.038 C 3.484 12.726,3.010 12.106,2.818 10.840 C 2.734 10.288,2.734 5.712,2.818 5.160 C 3.042 3.683,3.673 3.045,5.136 2.818 C 5.635 2.741,10.329 2.741,10.840 2.818 M5.800 4.884 C 5.497 4.917,5.199 5.023,4.892 5.208 C 4.301 5.564,4.322 6.324,4.929 6.578 C 5.154 6.672,5.317 6.654,5.622 6.500 C 5.983 6.318,6.191 6.314,6.520 6.480 C 6.693 6.567,6.814 6.600,6.965 6.600 C 7.645 6.600,7.959 5.743,7.440 5.306 C 7.065 4.991,6.402 4.820,5.800 4.884 M9.800 4.884 C 9.497 4.917,9.199 5.023,8.892 5.208 C 8.301 5.564,8.322 6.324,8.929 6.578 C 9.154 6.672,9.317 6.654,9.622 6.500 C 9.983 6.318,10.191 6.314,10.520 6.480 C 10.693 6.567,10.814 6.600,10.965 6.600 C 11.645 6.600,11.959 5.743,11.440 5.306 C 11.065 4.991,10.402 4.820,9.800 4.884 M7.500 7.466 C 6.559 7.617,5.706 8.155,5.165 8.937 C 4.794 9.474,4.609 10.017,4.574 10.680 C 4.554 11.053,4.561 11.127,4.642 11.339 C 4.763 11.659,5.059 11.957,5.373 12.074 C 5.592 12.156,5.669 12.160,6.959 12.160 C 7.820 12.160,8.356 12.144,8.427 12.117 C 8.700 12.015,8.891 11.727,8.891 11.420 C 8.891 11.113,8.700 10.825,8.427 10.723 C 8.358 10.696,7.888 10.680,7.192 10.680 L 6.070 10.680 6.090 10.497 C 6.124 10.194,6.362 9.769,6.656 9.487 C 7.114 9.047,7.675 8.861,8.269 8.954 C 8.615 9.007,8.838 9.098,9.188 9.326 C 9.575 9.577,9.885 9.574,10.181 9.314 C 10.456 9.072,10.507 8.667,10.301 8.355 C 10.122 8.084,9.423 7.684,8.880 7.543 C 8.623 7.476,7.744 7.427,7.500 7.466 M18.840 10.818 C 20.329 11.044,20.956 11.671,21.182 13.160 C 21.266 13.712,21.266 18.288,21.182 18.840 C 20.956 20.329,20.329 20.956,18.840 21.182 C 18.288 21.266,13.712 21.266,13.160 21.182 C 11.671 20.956,11.044 20.329,10.818 18.840 C 10.745 18.360,10.734 13.873,10.804 13.300 C 11.000 11.700,11.686 11.004,13.260 10.805 C 13.414 10.786,14.647 10.768,16.000 10.765 C 17.958 10.761,18.538 10.772,18.840 10.818 M13.011 12.878 C 12.689 12.957,12.463 13.267,12.467 13.626 C 12.469 13.896,12.589 14.088,12.863 14.264 C 13.522 14.685,14.332 14.741,15.040 14.415 C 15.517 14.194,15.691 13.981,15.691 13.620 C 15.691 13.393,15.621 13.231,15.454 13.073 C 15.210 12.842,14.917 12.820,14.554 13.003 C 14.223 13.170,13.958 13.172,13.668 13.008 C 13.435 12.876,13.204 12.831,13.011 12.878 M17.011 12.878 C 16.689 12.957,16.463 13.267,16.467 13.626 C 16.469 13.896,16.589 14.088,16.863 14.264 C 17.522 14.685,18.332 14.741,19.040 14.415 C 19.517 14.194,19.691 13.981,19.691 13.620 C 19.691 13.393,19.621 13.231,19.454 13.073 C 19.210 12.842,18.917 12.820,18.554 13.003 C 18.223 13.170,17.958 13.172,17.668 13.008 C 17.435 12.876,17.204 12.831,17.011 12.878 M13.361 15.528 C 13.060 15.644,12.760 15.949,12.642 16.261 C 12.487 16.669,12.566 17.434,12.828 18.060 C 13.224 19.011,14.113 19.775,15.160 20.065 C 15.526 20.166,16.474 20.166,16.840 20.065 C 18.079 19.721,19.008 18.792,19.342 17.560 C 19.375 17.439,19.413 17.151,19.426 16.920 C 19.446 16.547,19.439 16.474,19.358 16.261 C 19.237 15.941,18.941 15.643,18.627 15.526 C 18.401 15.441,18.359 15.440,15.988 15.442 C 13.641 15.444,13.574 15.446,13.361 15.528 M17.910 17.097 C 17.855 17.588,17.379 18.208,16.859 18.465 C 16.106 18.837,15.271 18.703,14.656 18.113 C 14.362 17.831,14.124 17.406,14.090 17.103 L 14.070 16.920 16.000 16.920 L 17.930 16.920 17.910 17.097 " stroke="none" fill-rule="evenodd" fill="black"></path></svg>