<svg width="24" height="24" viewBox="0 0 24 24" fill="none" xmlns="http://www.w3.org/2000/svg"><path d="M5.928 2.822 C 4.640 2.987,3.639 3.428,2.847 4.177 C 2.092 4.890,1.597 5.858,1.381 7.040 C 1.267 7.667,1.242 8.560,1.242 12.000 C 1.242 15.440,1.267 16.333,1.381 16.960 C 1.597 18.144,2.092 19.110,2.848 19.825 C 3.652 20.585,4.645 21.016,5.975 21.180 C 6.362 21.228,7.021 21.240,9.306 21.240 C 11.222 21.240,12.192 21.226,12.267 21.197 C 12.540 21.095,12.731 20.807,12.731 20.500 C 12.731 20.193,12.540 19.905,12.267 19.803 C 12.192 19.774,11.261 19.760,9.442 19.760 C 7.850 19.760,6.557 19.743,6.314 19.718 C 4.265 19.512,3.111 18.451,2.823 16.511 C 2.729 15.881,2.729 8.119,2.823 7.489 C 3.109 5.558,4.249 4.503,6.288 4.282 C 6.821 4.224,17.179 4.224,17.712 4.282 C 19.661 4.493,20.753 5.435,21.146 7.241 C 21.199 7.486,21.215 7.919,21.235 9.620 C 21.262 11.897,21.252 11.807,21.506 12.047 C 21.647 12.181,21.799 12.240,22.000 12.240 C 22.201 12.240,22.353 12.181,22.494 12.047 C 22.742 11.812,22.739 11.836,22.753 10.240 C 22.777 7.534,22.657 6.617,22.140 5.539 C 21.393 3.981,20.006 3.065,18.025 2.820 C 17.354 2.737,6.576 2.739,5.928 2.822 M6.785 8.288 C 6.699 8.312,6.563 8.397,6.481 8.479 C 6.208 8.752,6.187 9.190,6.434 9.475 C 6.646 9.721,9.882 12.266,10.195 12.432 C 10.716 12.710,11.120 12.808,11.841 12.830 C 12.328 12.845,12.534 12.834,12.801 12.780 C 13.249 12.690,13.683 12.520,14.002 12.311 C 14.374 12.066,17.540 9.537,17.613 9.426 C 17.978 8.867,17.484 8.131,16.840 8.276 C 16.647 8.319,16.658 8.311,14.780 9.816 C 13.898 10.523,13.202 11.051,13.057 11.123 C 12.731 11.285,12.409 11.357,12.000 11.358 C 11.581 11.359,11.222 11.278,10.907 11.110 C 10.776 11.040,9.933 10.393,9.035 9.673 C 8.138 8.953,7.371 8.348,7.332 8.327 C 7.210 8.263,6.947 8.245,6.785 8.288 M19.936 13.499 C 19.638 13.564,19.287 13.737,18.998 13.963 C 18.728 14.172,15.485 17.391,15.139 17.791 C 14.731 18.265,14.688 18.395,14.498 19.720 C 14.413 20.309,14.434 20.757,14.556 20.994 C 14.690 21.253,14.941 21.505,15.187 21.625 C 15.516 21.786,15.822 21.790,16.800 21.644 C 18.072 21.454,17.815 21.636,20.224 19.225 C 21.484 17.964,22.284 17.133,22.379 16.985 C 22.610 16.628,22.718 16.281,22.719 15.897 C 22.721 15.268,22.504 14.815,21.924 14.237 C 21.610 13.924,21.476 13.822,21.200 13.686 C 20.885 13.531,20.527 13.436,20.280 13.443 C 20.225 13.445,20.070 13.470,19.936 13.499 M20.561 15.026 C 20.898 15.250,21.240 15.685,21.240 15.891 C 21.240 16.009,21.056 16.297,20.864 16.479 L 20.717 16.618 20.529 16.520 C 20.286 16.394,19.806 15.914,19.679 15.671 L 19.581 15.482 19.761 15.296 C 19.859 15.194,19.994 15.077,20.060 15.035 C 20.208 14.943,20.430 14.938,20.561 15.026 M18.728 16.899 C 18.929 17.159,19.245 17.459,19.525 17.655 L 19.619 17.721 18.459 18.881 C 17.822 19.519,17.273 20.049,17.240 20.060 C 17.160 20.084,16.095 20.240,16.005 20.240 C 15.937 20.240,15.939 20.204,16.027 19.590 L 16.121 18.940 17.290 17.770 C 17.933 17.127,18.469 16.601,18.480 16.603 C 18.491 16.604,18.602 16.738,18.728 16.899 " stroke="none" fill-rule="evenodd" fill="black"></path></svg>