<svg width="24" height="24" viewBox="0 0 24 24" fill="none" xmlns="http://www.w3.org/2000/svg"><path d="M19.140 2.282 C 18.728 2.327,18.503 2.387,18.177 2.537 C 17.252 2.965,16.537 3.829,16.338 4.760 C 16.255 5.147,16.255 5.852,16.337 6.233 C 16.586 7.387,17.613 8.414,18.767 8.663 C 19.146 8.745,19.854 8.745,20.233 8.663 C 21.387 8.414,22.414 7.387,22.663 6.233 C 22.745 5.854,22.745 5.146,22.663 4.767 C 22.503 4.026,21.974 3.259,21.307 2.804 C 20.707 2.394,19.896 2.198,19.140 2.282 M5.928 2.822 C 4.640 2.987,3.639 3.428,2.847 4.177 C 2.092 4.890,1.597 5.858,1.381 7.040 C 1.267 7.667,1.242 8.560,1.242 12.000 C 1.242 15.440,1.267 16.333,1.381 16.960 C 1.597 18.144,2.092 19.110,2.848 19.825 C 3.652 20.585,4.645 21.016,5.975 21.180 C 6.694 21.269,17.306 21.269,18.025 21.180 C 20.006 20.935,21.393 20.019,22.140 18.461 C 22.696 17.303,22.772 16.596,22.752 12.760 C 22.739 10.058,22.752 10.197,22.494 9.953 C 22.217 9.691,21.783 9.691,21.506 9.953 C 21.246 10.199,21.262 9.995,21.236 13.380 C 21.216 16.035,21.204 16.501,21.147 16.759 C 20.744 18.581,19.644 19.521,17.686 19.718 C 17.120 19.775,6.880 19.775,6.314 19.718 C 4.265 19.512,3.111 18.451,2.823 16.511 C 2.729 15.881,2.729 8.119,2.823 7.489 C 3.073 5.799,3.989 4.771,5.572 4.401 C 6.207 4.253,6.585 4.240,10.416 4.240 C 12.960 4.240,14.191 4.226,14.267 4.197 C 14.540 4.095,14.731 3.807,14.731 3.500 C 14.731 3.193,14.540 2.905,14.267 2.803 C 14.090 2.735,6.463 2.753,5.928 2.822 M20.247 3.930 C 20.618 4.113,20.915 4.415,21.092 4.790 C 21.212 5.043,21.220 5.088,21.220 5.500 C 21.220 5.912,21.212 5.957,21.092 6.210 C 20.914 6.586,20.618 6.887,20.245 7.071 C 19.952 7.216,19.932 7.220,19.500 7.220 C 19.068 7.220,19.048 7.216,18.755 7.071 C 18.382 6.887,18.086 6.586,17.908 6.210 C 17.788 5.957,17.780 5.912,17.780 5.500 C 17.780 5.088,17.788 5.043,17.907 4.791 C 18.123 4.335,18.494 4.003,18.979 3.830 C 19.132 3.775,19.272 3.761,19.564 3.770 C 19.914 3.781,19.976 3.796,20.247 3.930 M6.811 8.278 C 6.500 8.354,6.266 8.665,6.266 9.000 C 6.266 9.369,6.287 9.391,8.050 10.796 C 9.867 12.246,10.123 12.429,10.558 12.596 C 11.081 12.797,11.457 12.852,12.159 12.830 C 12.886 12.807,13.293 12.708,13.809 12.428 C 14.140 12.248,15.428 11.255,15.632 11.023 C 15.930 10.683,15.818 10.148,15.397 9.901 C 15.232 9.805,14.909 9.799,14.740 9.889 C 14.674 9.924,14.323 10.190,13.960 10.479 C 13.045 11.208,12.702 11.362,11.988 11.359 C 11.590 11.357,11.266 11.284,10.943 11.123 C 10.797 11.051,10.070 10.498,9.120 9.736 C 8.251 9.040,7.477 8.429,7.400 8.378 C 7.239 8.273,6.998 8.232,6.811 8.278 " stroke="none" fill-rule="evenodd" fill="black"></path></svg>