<svg width="24" height="24" viewBox="0 0 24 24" fill="none" xmlns="http://www.w3.org/2000/svg"><path d="M5.928 2.822 C 4.640 2.987,3.639 3.428,2.847 4.177 C 2.092 4.890,1.597 5.857,1.381 7.040 C 1.303 7.468,1.238 8.475,1.278 8.650 C 1.406 9.219,2.080 9.439,2.494 9.047 C 2.693 8.859,2.727 8.744,2.763 8.143 C 2.801 7.506,2.877 7.061,3.017 6.648 C 3.495 5.243,4.566 4.469,6.288 4.282 C 6.821 4.224,17.179 4.224,17.712 4.282 C 19.751 4.503,20.891 5.558,21.177 7.489 C 21.271 8.119,21.271 15.881,21.177 16.511 C 20.889 18.451,19.735 19.512,17.686 19.718 C 17.421 19.745,15.385 19.760,12.058 19.760 C 8.472 19.760,6.810 19.773,6.733 19.803 C 6.460 19.905,6.269 20.193,6.269 20.500 C 6.269 20.807,6.460 21.095,6.733 21.197 C 6.810 21.227,8.512 21.240,12.194 21.240 C 17.991 21.240,18.043 21.238,18.903 21.020 C 20.943 20.503,22.229 19.098,22.619 16.960 C 22.733 16.333,22.758 15.440,22.758 12.000 C 22.758 8.560,22.733 7.667,22.619 7.040 C 22.403 5.856,21.908 4.890,21.152 4.175 C 20.348 3.415,19.355 2.984,18.025 2.820 C 17.354 2.737,6.576 2.739,5.928 2.822 M6.785 8.288 C 6.699 8.312,6.563 8.397,6.481 8.479 C 6.208 8.752,6.187 9.190,6.434 9.475 C 6.646 9.721,9.882 12.266,10.195 12.432 C 10.716 12.710,11.120 12.808,11.841 12.830 C 12.328 12.845,12.534 12.834,12.801 12.780 C 13.249 12.690,13.683 12.520,14.002 12.311 C 14.374 12.066,17.540 9.537,17.613 9.426 C 17.978 8.867,17.484 8.131,16.840 8.276 C 16.647 8.319,16.658 8.311,14.780 9.816 C 13.898 10.523,13.202 11.051,13.057 11.123 C 12.731 11.285,12.409 11.357,12.000 11.358 C 11.581 11.359,11.222 11.278,10.907 11.110 C 10.776 11.040,9.933 10.393,9.035 9.673 C 8.138 8.953,7.371 8.348,7.332 8.327 C 7.210 8.263,6.947 8.245,6.785 8.288 M1.720 11.805 C 1.458 11.909,1.269 12.200,1.269 12.500 C 1.269 12.807,1.460 13.095,1.733 13.197 C 1.806 13.225,2.428 13.240,3.500 13.240 C 4.572 13.240,5.194 13.225,5.267 13.197 C 5.540 13.095,5.731 12.807,5.731 12.500 C 5.731 12.193,5.540 11.905,5.267 11.803 C 5.120 11.747,1.861 11.749,1.720 11.805 M1.720 15.805 C 1.458 15.909,1.269 16.200,1.269 16.500 C 1.269 16.807,1.460 17.095,1.733 17.197 C 1.809 17.226,2.868 17.240,5.000 17.240 C 7.132 17.240,8.191 17.226,8.267 17.197 C 8.540 17.095,8.731 16.807,8.731 16.500 C 8.731 16.193,8.540 15.905,8.267 15.803 C 8.117 15.746,1.863 15.748,1.720 15.805 " stroke="none" fill-rule="evenodd" fill="black"></path></svg>