<svg width="24" height="24" viewBox="0 0 24 24" fill="none" xmlns="http://www.w3.org/2000/svg"><path d="M5.928 2.822 C 4.640 2.987,3.639 3.428,2.847 4.177 C 2.092 4.890,1.597 5.858,1.381 7.040 C 1.267 7.667,1.242 8.560,1.242 12.000 C 1.242 15.440,1.267 16.333,1.381 16.960 C 1.597 18.144,2.092 19.110,2.848 19.825 C 3.652 20.585,4.645 21.016,5.975 21.180 C 6.362 21.228,7.021 21.240,9.306 21.240 C 11.222 21.240,12.192 21.226,12.267 21.197 C 12.540 21.095,12.731 20.807,12.731 20.500 C 12.731 20.193,12.540 19.905,12.267 19.803 C 12.192 19.774,11.261 19.760,9.442 19.760 C 7.850 19.760,6.557 19.743,6.314 19.718 C 4.265 19.512,3.111 18.451,2.823 16.511 C 2.729 15.881,2.729 8.119,2.823 7.489 C 3.109 5.558,4.249 4.503,6.288 4.282 C 6.821 4.224,17.179 4.224,17.712 4.282 C 19.661 4.493,20.753 5.435,21.146 7.241 C 21.199 7.486,21.215 7.919,21.235 9.620 C 21.262 11.897,21.252 11.807,21.506 12.047 C 21.647 12.181,21.799 12.240,22.000 12.240 C 22.201 12.240,22.353 12.181,22.494 12.047 C 22.742 11.812,22.739 11.836,22.753 10.240 C 22.777 7.534,22.657 6.617,22.140 5.539 C 21.393 3.981,20.006 3.065,18.025 2.820 C 17.354 2.737,6.576 2.739,5.928 2.822 M6.785 8.288 C 6.699 8.312,6.563 8.397,6.481 8.479 C 6.208 8.752,6.187 9.190,6.434 9.475 C 6.646 9.721,9.882 12.266,10.195 12.432 C 10.716 12.710,11.120 12.808,11.841 12.830 C 12.328 12.845,12.534 12.834,12.801 12.780 C 13.249 12.690,13.683 12.520,14.002 12.311 C 14.374 12.066,17.540 9.537,17.613 9.426 C 17.978 8.867,17.484 8.131,16.840 8.276 C 16.647 8.319,16.658 8.311,14.780 9.816 C 13.898 10.523,13.202 11.051,13.057 11.123 C 12.731 11.285,12.409 11.357,12.000 11.358 C 11.581 11.359,11.222 11.278,10.907 11.110 C 10.776 11.040,9.933 10.393,9.035 9.673 C 8.138 8.953,7.371 8.348,7.332 8.327 C 7.210 8.263,6.947 8.245,6.785 8.288 M17.780 14.284 C 16.888 14.378,16.061 14.775,15.418 15.418 C 14.077 16.759,13.884 18.805,14.946 20.430 C 15.139 20.726,15.674 21.261,15.970 21.454 C 17.278 22.309,18.935 22.361,20.212 21.587 L 20.405 21.470 21.012 22.070 C 21.562 22.612,21.638 22.673,21.810 22.710 C 22.388 22.833,22.833 22.388,22.710 21.810 C 22.673 21.638,22.612 21.562,22.070 21.012 L 21.470 20.405 21.587 20.212 C 22.132 19.313,22.279 18.137,21.978 17.097 C 21.788 16.442,21.471 15.907,20.982 15.418 C 20.317 14.754,19.521 14.381,18.557 14.282 C 18.334 14.259,18.140 14.242,18.126 14.245 C 18.112 14.248,17.956 14.266,17.780 14.284 M18.796 15.821 C 19.205 15.918,19.581 16.137,19.922 16.478 C 20.418 16.975,20.639 17.504,20.639 18.200 C 20.639 18.896,20.418 19.425,19.922 19.922 C 19.425 20.418,18.896 20.639,18.200 20.639 C 17.504 20.639,16.975 20.418,16.478 19.922 C 15.982 19.425,15.761 18.896,15.761 18.200 C 15.761 17.504,15.982 16.975,16.478 16.478 C 16.812 16.144,17.195 15.918,17.586 15.823 C 17.898 15.748,18.480 15.747,18.796 15.821 " stroke="none" fill-rule="evenodd" fill="black"></path></svg>