<svg width="24" height="24" viewBox="0 0 24 24" fill="none" xmlns="http://www.w3.org/2000/svg"><path d="M18.268 1.288 C 17.976 1.325,17.633 1.505,17.382 1.752 C 17.133 1.997,17.014 2.174,16.769 2.660 C 16.507 3.181,16.455 3.227,16.038 3.300 C 15.217 3.445,14.711 3.748,14.434 4.263 C 14.059 4.961,14.262 5.737,15.027 6.524 C 15.373 6.881,15.413 6.981,15.336 7.305 C 15.248 7.677,15.224 8.155,15.277 8.461 C 15.439 9.391,16.172 9.893,17.101 9.708 C 17.327 9.663,17.560 9.573,17.900 9.401 C 18.170 9.264,18.432 9.158,18.500 9.158 C 18.567 9.158,18.830 9.264,19.100 9.401 C 19.694 9.701,20.067 9.786,20.497 9.720 C 21.490 9.566,21.939 8.644,21.664 7.322 C 21.630 7.159,21.623 7.020,21.644 6.946 C 21.663 6.881,21.811 6.691,21.973 6.524 C 22.611 5.867,22.856 5.235,22.702 4.637 C 22.512 3.895,21.968 3.477,20.962 3.300 C 20.545 3.227,20.493 3.181,20.231 2.660 C 19.986 2.174,19.867 1.997,19.618 1.752 C 19.241 1.382,18.777 1.222,18.268 1.288 M5.928 2.822 C 4.640 2.987,3.639 3.428,2.847 4.177 C 2.092 4.890,1.597 5.858,1.381 7.040 C 1.267 7.667,1.242 8.560,1.242 12.000 C 1.242 15.440,1.267 16.333,1.381 16.960 C 1.597 18.144,2.092 19.110,2.848 19.825 C 3.652 20.585,4.645 21.016,5.975 21.180 C 6.694 21.269,17.306 21.269,18.025 21.180 C 20.006 20.935,21.393 20.019,22.140 18.461 C 22.679 17.339,22.774 16.531,22.753 13.260 C 22.739 11.111,22.748 11.193,22.494 10.953 C 22.353 10.819,22.201 10.760,22.000 10.760 C 21.799 10.760,21.647 10.819,21.506 10.953 C 21.249 11.196,21.262 11.049,21.236 13.880 C 21.216 16.059,21.202 16.506,21.146 16.759 C 20.747 18.578,19.644 19.521,17.686 19.718 C 17.120 19.775,6.880 19.775,6.314 19.718 C 4.265 19.512,3.111 18.451,2.823 16.511 C 2.729 15.881,2.729 8.119,2.823 7.489 C 3.073 5.799,3.989 4.771,5.572 4.401 C 6.184 4.258,6.612 4.240,9.416 4.240 C 11.254 4.240,12.192 4.226,12.267 4.197 C 12.540 4.095,12.731 3.807,12.731 3.500 C 12.731 3.193,12.540 2.905,12.267 2.803 C 12.092 2.736,6.460 2.754,5.928 2.822 M18.675 2.933 C 18.740 3.028,18.881 3.284,18.986 3.503 C 19.334 4.219,19.841 4.618,20.563 4.742 C 20.999 4.816,21.240 4.906,21.240 4.994 C 21.240 5.093,21.145 5.219,20.791 5.591 C 20.423 5.978,20.232 6.334,20.158 6.772 C 20.109 7.063,20.113 7.121,20.242 7.840 C 20.263 7.961,20.271 8.103,20.259 8.155 C 20.239 8.236,20.219 8.246,20.113 8.225 C 20.045 8.211,19.831 8.109,19.638 7.999 C 19.174 7.734,18.944 7.666,18.500 7.666 C 18.054 7.666,17.826 7.733,17.355 8.003 C 16.966 8.226,16.754 8.273,16.727 8.144 C 16.719 8.102,16.752 7.852,16.802 7.588 C 16.883 7.160,16.888 7.076,16.846 6.804 C 16.775 6.346,16.588 5.989,16.210 5.592 C 15.855 5.219,15.760 5.093,15.760 4.994 C 15.760 4.906,16.001 4.816,16.437 4.742 C 17.170 4.616,17.665 4.222,18.028 3.475 C 18.219 3.081,18.441 2.760,18.522 2.760 C 18.541 2.760,18.610 2.838,18.675 2.933 M6.811 8.278 C 6.500 8.354,6.266 8.665,6.266 9.000 C 6.266 9.369,6.287 9.391,8.050 10.796 C 9.867 12.246,10.123 12.429,10.558 12.596 C 11.081 12.797,11.457 12.852,12.159 12.830 C 12.681 12.814,12.837 12.793,13.140 12.703 C 13.730 12.526,14.348 12.153,14.521 11.869 C 14.690 11.591,14.650 11.259,14.415 11.000 C 14.142 10.698,13.769 10.681,13.352 10.952 C 12.881 11.257,12.534 11.361,11.988 11.359 C 11.590 11.357,11.266 11.284,10.943 11.123 C 10.797 11.051,10.070 10.498,9.120 9.736 C 8.251 9.040,7.477 8.429,7.400 8.378 C 7.239 8.273,6.998 8.232,6.811 8.278 " stroke="none" fill-rule="evenodd" fill="black"></path></svg>