<svg width="24" height="24" viewBox="0 0 24 24" fill="none" xmlns="http://www.w3.org/2000/svg"><path d="M11.619 2.617 C 11.529 2.671,11.415 2.790,11.359 2.887 L 11.260 3.060 11.260 12.000 L 11.260 20.940 11.366 21.120 C 11.653 21.608,12.360 21.604,12.640 21.114 L 12.740 20.940 12.740 12.000 L 12.740 3.060 12.640 2.886 C 12.438 2.532,11.968 2.408,11.619 2.617 M7.272 5.037 C 7.086 5.097,6.930 5.234,6.843 5.413 L 6.760 5.585 6.760 12.000 C 6.760 18.370,6.761 18.416,6.841 18.583 C 6.888 18.679,6.994 18.800,7.088 18.866 C 7.226 18.961,7.294 18.980,7.500 18.980 C 7.706 18.980,7.774 18.961,7.912 18.866 C 8.006 18.800,8.112 18.679,8.159 18.583 C 8.239 18.416,8.240 18.370,8.240 12.000 C 8.240 5.630,8.239 5.584,8.159 5.417 C 8.010 5.111,7.595 4.933,7.272 5.037 M16.272 5.037 C 16.086 5.097,15.930 5.234,15.843 5.413 L 15.760 5.585 15.760 12.000 C 15.760 18.370,15.761 18.416,15.841 18.583 C 15.888 18.679,15.994 18.800,16.088 18.866 C 16.226 18.961,16.294 18.980,16.500 18.980 C 16.706 18.980,16.774 18.961,16.912 18.866 C 17.006 18.800,17.112 18.679,17.159 18.583 C 17.239 18.416,17.240 18.370,17.240 12.000 C 17.240 5.630,17.239 5.584,17.159 5.417 C 17.010 5.111,16.595 4.933,16.272 5.037 M2.619 7.617 C 2.529 7.671,2.415 7.790,2.359 7.887 L 2.260 8.060 2.260 12.000 L 2.260 15.940 2.366 16.120 C 2.652 16.606,3.348 16.606,3.634 16.120 L 3.740 15.940 3.740 12.000 L 3.740 8.060 3.634 7.880 C 3.427 7.528,2.967 7.409,2.619 7.617 M20.619 7.617 C 20.529 7.671,20.415 7.790,20.359 7.887 L 20.260 8.060 20.260 12.000 L 20.260 15.940 20.366 16.120 C 20.652 16.606,21.348 16.606,21.634 16.120 L 21.740 15.940 21.740 12.000 L 21.740 8.060 21.634 7.880 C 21.427 7.528,20.967 7.409,20.619 7.617 " stroke="none" fill-rule="evenodd" fill="black"></path></svg>