<svg width="24" height="24" viewBox="0 0 24 24" fill="none" xmlns="http://www.w3.org/2000/svg"><path d="M8.300 1.282 C 5.953 1.416,4.761 2.364,4.381 4.400 C 4.260 5.050,4.241 6.077,4.241 12.020 C 4.241 17.972,4.259 18.943,4.382 19.603 C 4.711 21.366,5.632 22.287,7.400 22.618 C 7.989 22.729,8.973 22.759,12.000 22.759 C 15.775 22.759,16.402 22.723,17.244 22.460 C 18.583 22.042,19.355 21.106,19.621 19.580 C 19.740 18.892,19.757 17.947,19.758 12.020 C 19.759 6.073,19.740 5.050,19.619 4.400 C 19.289 2.636,18.366 1.713,16.600 1.382 C 16.413 1.347,15.963 1.301,15.600 1.279 C 14.842 1.235,9.080 1.237,8.300 1.282 M15.988 2.801 C 16.933 2.919,17.533 3.213,17.817 3.698 C 17.969 3.958,18.108 4.414,18.177 4.885 C 18.232 5.258,18.240 6.130,18.240 12.000 C 18.240 19.292,18.244 19.152,18.014 19.840 C 17.794 20.498,17.497 20.794,16.836 21.016 C 16.190 21.232,16.008 21.240,12.000 21.240 C 8.855 21.240,8.247 21.231,7.885 21.177 C 7.414 21.108,6.958 20.969,6.698 20.817 C 6.213 20.533,5.919 19.933,5.801 18.988 C 5.745 18.541,5.745 5.459,5.801 5.012 C 5.931 3.973,6.254 3.388,6.854 3.105 C 7.117 2.980,7.591 2.852,7.967 2.803 C 8.347 2.754,15.597 2.752,15.988 2.801 M11.679 5.278 C 10.790 5.397,10.027 6.091,9.820 6.969 C 9.647 7.705,9.841 8.454,10.349 9.003 C 10.824 9.518,11.301 9.728,12.000 9.728 C 12.699 9.728,13.176 9.518,13.651 9.003 C 14.159 8.454,14.353 7.705,14.180 6.970 C 14.008 6.243,13.375 5.563,12.682 5.361 C 12.368 5.270,11.980 5.238,11.679 5.278 M12.388 6.865 C 12.447 6.909,12.550 7.013,12.618 7.096 C 12.725 7.229,12.740 7.278,12.740 7.500 C 12.740 7.722,12.725 7.771,12.618 7.904 C 12.401 8.171,12.306 8.220,12.000 8.220 C 11.694 8.220,11.599 8.171,11.382 7.904 C 11.275 7.772,11.260 7.721,11.260 7.506 C 11.260 7.184,11.401 6.963,11.700 6.817 C 11.868 6.735,12.250 6.762,12.388 6.865 M11.740 11.266 C 10.415 11.385,9.327 12.085,8.719 13.212 C 8.400 13.803,8.271 14.320,8.271 15.000 C 8.271 15.682,8.400 16.197,8.721 16.792 C 9.078 17.453,9.549 17.923,10.212 18.281 C 10.803 18.600,11.320 18.729,12.000 18.729 C 12.680 18.729,13.197 18.600,13.788 18.281 C 14.451 17.923,14.922 17.453,15.279 16.792 C 15.600 16.197,15.729 15.682,15.729 15.000 C 15.729 14.320,15.600 13.803,15.281 13.212 C 14.832 12.381,14.122 11.779,13.215 11.463 C 12.793 11.316,12.149 11.230,11.740 11.266 M12.578 12.821 C 12.949 12.918,13.274 13.112,13.581 13.419 C 14.041 13.879,14.240 14.356,14.240 15.000 C 14.240 15.644,14.041 16.121,13.581 16.581 C 13.121 17.041,12.644 17.240,12.000 17.240 C 11.356 17.240,10.879 17.041,10.419 16.581 C 9.959 16.121,9.760 15.644,9.760 15.000 C 9.760 14.356,9.959 13.879,10.419 13.419 C 10.719 13.118,11.050 12.919,11.404 12.823 C 11.692 12.746,12.285 12.745,12.578 12.821 " stroke="none" fill-rule="evenodd" fill="black"></path></svg>