<svg width="24" height="24" viewBox="0 0 24 24" fill="none" xmlns="http://www.w3.org/2000/svg"><path d="M10.940 1.805 C 7.365 2.147,4.143 4.330,2.475 7.540 C 1.646 9.134,1.272 10.677,1.272 12.500 C 1.272 13.657,1.391 14.503,1.703 15.570 C 2.143 17.075,3.025 18.632,4.085 19.776 C 4.494 20.218,4.763 20.323,5.111 20.178 C 5.413 20.052,5.571 19.818,5.571 19.500 C 5.571 19.246,5.499 19.107,5.193 18.769 C 4.147 17.618,3.407 16.257,3.043 14.816 C 2.814 13.910,2.783 13.633,2.783 12.500 C 2.783 11.388,2.815 11.087,3.023 10.261 C 3.943 6.612,6.948 3.901,10.700 3.336 C 11.353 3.238,12.639 3.236,13.280 3.333 C 17.060 3.903,20.056 6.604,20.981 10.278 C 21.184 11.085,21.217 11.393,21.217 12.500 C 21.217 13.612,21.185 13.912,20.977 14.740 C 20.602 16.230,19.860 17.609,18.825 18.741 C 18.399 19.206,18.317 19.444,18.462 19.790 C 18.544 19.988,18.630 20.077,18.820 20.165 C 19.216 20.347,19.501 20.232,19.975 19.700 C 21.503 17.983,22.418 15.948,22.681 13.680 C 22.742 13.145,22.744 11.860,22.683 11.340 C 22.390 8.844,21.328 6.638,19.583 4.898 C 17.792 3.112,15.493 2.033,12.980 1.801 C 12.469 1.753,11.458 1.756,10.940 1.805 M15.679 8.278 C 15.163 8.347,14.735 8.578,14.349 8.997 C 13.872 9.513,13.747 9.929,13.767 10.940 C 13.779 11.592,13.785 11.630,13.896 11.871 C 14.044 12.193,14.385 12.517,14.709 12.644 C 14.918 12.727,15.007 12.736,15.660 12.737 C 16.491 12.739,16.761 12.681,17.182 12.408 C 18.380 11.632,18.599 10.021,17.646 8.992 C 17.131 8.436,16.423 8.179,15.679 8.278 M16.292 9.814 C 16.363 9.844,16.478 9.932,16.546 10.011 C 16.812 10.313,16.821 10.668,16.571 10.960 C 16.364 11.201,16.243 11.240,15.701 11.240 L 15.240 11.240 15.240 10.845 C 15.240 10.628,15.251 10.395,15.265 10.327 C 15.296 10.171,15.537 9.886,15.697 9.817 C 15.857 9.747,16.129 9.746,16.292 9.814 M11.460 14.026 C 10.516 14.173,9.762 14.554,9.097 15.218 C 8.524 15.791,8.183 16.388,7.988 17.160 C 7.866 17.647,7.866 18.593,7.988 19.080 C 8.100 19.522,8.307 20.001,8.545 20.367 C 8.791 20.745,9.378 21.331,9.760 21.580 C 10.117 21.812,10.665 22.043,11.103 22.146 C 11.544 22.249,12.456 22.249,12.897 22.146 C 13.335 22.043,13.883 21.812,14.240 21.580 C 14.625 21.329,15.209 20.745,15.460 20.360 C 15.692 20.003,15.923 19.455,16.026 19.017 C 16.129 18.576,16.129 17.664,16.026 17.223 C 15.923 16.785,15.692 16.237,15.460 15.880 C 15.209 15.495,14.625 14.911,14.240 14.660 C 13.888 14.431,13.342 14.200,12.920 14.100 C 12.627 14.032,11.720 13.985,11.460 14.026 M12.720 15.583 C 13.163 15.716,13.482 15.912,13.845 16.275 C 14.405 16.836,14.617 17.342,14.617 18.120 C 14.617 18.898,14.405 19.404,13.845 19.965 C 13.284 20.525,12.778 20.737,12.000 20.737 C 11.222 20.737,10.716 20.525,10.155 19.965 C 9.595 19.404,9.383 18.898,9.383 18.120 C 9.383 17.610,9.438 17.366,9.653 16.925 C 9.801 16.622,10.261 16.113,10.571 15.909 C 10.827 15.741,11.240 15.573,11.526 15.522 C 11.817 15.470,12.452 15.502,12.720 15.583 " stroke="none" fill-rule="evenodd" fill="black"></path></svg>