<svg width="24" height="24" viewBox="0 0 24 24" fill="none" xmlns="http://www.w3.org/2000/svg"><path d="M11.800 1.347 C 11.249 1.403,10.649 1.743,10.192 2.260 C 9.921 2.566,9.708 2.951,8.741 4.881 C 7.893 6.572,7.745 6.844,7.588 6.988 C 7.261 7.290,7.206 7.305,5.323 7.621 C 3.365 7.949,3.306 7.961,2.935 8.100 C 2.194 8.379,1.663 8.854,1.407 9.466 C 1.299 9.725,1.241 10.230,1.284 10.541 C 1.348 11.004,1.581 11.521,1.925 11.966 C 2.016 12.084,2.726 12.819,3.501 13.600 C 4.277 14.381,4.942 15.080,4.979 15.153 C 5.091 15.377,5.160 15.789,5.120 15.996 C 5.101 16.097,4.930 16.846,4.741 17.660 C 4.337 19.404,4.280 19.724,4.280 20.272 C 4.280 21.092,4.473 21.642,4.916 22.081 C 5.363 22.522,5.771 22.664,6.496 22.630 C 7.324 22.590,7.608 22.463,9.882 21.115 C 11.439 20.193,11.669 20.080,12.000 20.080 C 12.331 20.080,12.561 20.193,14.114 21.113 C 14.975 21.623,15.819 22.111,15.990 22.196 C 16.618 22.510,17.129 22.647,17.678 22.646 C 18.059 22.645,18.313 22.588,18.632 22.431 C 19.337 22.084,19.720 21.321,19.720 20.266 C 19.720 19.724,19.663 19.401,19.259 17.660 C 19.070 16.846,18.899 16.097,18.880 15.996 C 18.838 15.779,18.911 15.371,19.034 15.134 C 19.079 15.049,19.705 14.393,20.441 13.660 C 21.171 12.934,21.874 12.209,22.003 12.049 C 22.290 11.693,22.489 11.343,22.625 10.955 C 22.764 10.557,22.771 9.986,22.642 9.600 C 22.414 8.924,21.865 8.402,21.065 8.100 C 20.694 7.961,20.635 7.949,18.677 7.621 C 16.794 7.305,16.739 7.290,16.413 6.989 C 16.257 6.846,16.108 6.573,15.279 4.920 C 14.754 3.873,14.218 2.855,14.088 2.658 C 13.860 2.312,13.498 1.919,13.257 1.755 C 12.810 1.452,12.268 1.300,11.800 1.347 M12.300 2.915 C 12.482 3.027,12.714 3.269,12.859 3.496 C 12.931 3.608,13.435 4.591,13.981 5.680 L 14.973 7.660 15.317 8.000 C 15.698 8.377,15.974 8.557,16.391 8.702 C 16.561 8.762,17.368 8.915,18.465 9.096 C 19.560 9.277,20.354 9.428,20.500 9.482 C 21.210 9.747,21.398 10.125,21.112 10.715 C 20.998 10.950,20.807 11.158,19.439 12.540 C 18.000 13.994,17.884 14.122,17.730 14.422 C 17.486 14.896,17.387 15.292,17.385 15.800 C 17.384 16.196,17.408 16.322,17.799 17.980 C 18.207 19.707,18.215 19.749,18.217 20.240 C 18.220 20.786,18.184 20.913,17.975 21.076 C 17.753 21.251,17.151 21.136,16.539 20.801 C 16.385 20.717,15.629 20.274,14.859 19.818 C 14.090 19.361,13.333 18.927,13.179 18.854 C 12.469 18.515,11.531 18.515,10.821 18.854 C 10.667 18.927,9.910 19.361,9.141 19.818 C 7.406 20.847,7.254 20.930,6.873 21.057 C 6.249 21.266,5.944 21.171,5.815 20.728 C 5.694 20.311,5.747 19.935,6.204 17.980 C 6.591 16.327,6.616 16.195,6.615 15.800 C 6.613 15.292,6.514 14.896,6.270 14.422 C 6.116 14.122,6.000 13.994,4.561 12.540 C 2.875 10.835,2.802 10.743,2.771 10.280 C 2.752 10.013,2.832 9.864,3.087 9.690 C 3.411 9.469,3.691 9.401,5.530 9.097 C 6.515 8.934,7.433 8.763,7.570 8.717 C 8.102 8.540,8.703 8.077,9.015 7.607 C 9.112 7.460,9.623 6.476,10.151 5.420 C 10.731 4.261,11.177 3.418,11.276 3.293 C 11.609 2.877,12.004 2.731,12.300 2.915 " stroke="none" fill-rule="evenodd" fill="black"></path></svg>