<svg width="24" height="24" viewBox="0 0 24 24" fill="none" xmlns="http://www.w3.org/2000/svg"><path d="M21.900 1.259 C 21.878 1.267,21.806 1.285,21.740 1.299 C 21.650 1.319,20.942 2.002,18.911 4.031 C 17.422 5.519,16.195 6.728,16.186 6.718 C 16.177 6.708,15.755 5.872,15.248 4.860 C 14.291 2.950,14.057 2.541,13.708 2.170 C 13.169 1.598,12.624 1.343,11.951 1.350 C 11.479 1.355,11.114 1.489,10.659 1.826 C 10.086 2.250,9.932 2.494,8.729 4.901 C 7.891 6.578,7.746 6.843,7.589 6.988 C 7.261 7.290,7.207 7.305,5.323 7.621 C 3.365 7.949,3.306 7.961,2.935 8.100 C 2.194 8.379,1.663 8.854,1.407 9.466 C 1.299 9.725,1.241 10.230,1.284 10.541 C 1.348 11.004,1.581 11.521,1.925 11.966 C 2.016 12.084,2.726 12.819,3.501 13.600 C 4.277 14.381,4.942 15.080,4.979 15.153 C 5.061 15.317,5.163 15.789,5.140 15.899 C 5.131 15.944,5.003 16.511,4.856 17.160 L 4.590 18.340 2.979 19.960 C 2.094 20.851,1.346 21.625,1.318 21.680 C 1.290 21.735,1.267 21.881,1.267 22.004 C 1.267 22.498,1.681 22.816,2.189 22.712 C 2.376 22.674,2.592 22.460,12.490 12.566 C 18.342 6.717,22.628 2.403,22.665 2.324 C 22.816 2.006,22.705 1.590,22.416 1.393 C 22.274 1.295,21.999 1.224,21.900 1.259 M12.251 2.894 C 12.322 2.924,12.492 3.067,12.628 3.213 C 12.858 3.460,12.950 3.626,13.883 5.489 C 14.436 6.595,14.929 7.554,14.977 7.620 C 15.026 7.686,15.077 7.759,15.091 7.782 C 15.104 7.806,13.192 9.748,10.842 12.098 L 6.568 16.372 6.607 16.176 C 6.697 15.716,6.555 14.976,6.270 14.421 C 6.116 14.122,5.998 13.992,4.561 12.540 C 2.875 10.835,2.802 10.743,2.771 10.280 C 2.752 10.013,2.832 9.864,3.087 9.690 C 3.411 9.469,3.691 9.401,5.530 9.097 C 6.515 8.934,7.433 8.763,7.570 8.717 C 8.102 8.540,8.703 8.077,9.015 7.607 C 9.112 7.460,9.623 6.476,10.151 5.420 C 10.757 4.208,11.175 3.420,11.284 3.284 C 11.599 2.889,11.926 2.758,12.251 2.894 M19.780 7.943 C 19.600 8.037,19.516 8.123,19.435 8.300 C 19.338 8.512,19.341 8.736,19.445 8.950 C 19.550 9.168,19.746 9.298,20.060 9.361 C 20.579 9.465,21.015 9.692,21.163 9.934 C 21.282 10.130,21.264 10.400,21.112 10.715 C 20.998 10.950,20.807 11.158,19.439 12.540 C 18.000 13.994,17.884 14.122,17.730 14.422 C 17.486 14.896,17.387 15.292,17.385 15.800 C 17.384 16.196,17.408 16.322,17.799 17.980 C 18.207 19.707,18.215 19.749,18.217 20.240 C 18.220 20.786,18.184 20.913,17.975 21.076 C 17.753 21.251,17.151 21.136,16.539 20.801 C 16.385 20.717,15.629 20.274,14.859 19.818 C 14.090 19.361,13.333 18.927,13.179 18.854 C 12.481 18.521,11.542 18.515,10.848 18.840 C 10.705 18.907,9.896 19.370,9.050 19.871 C 7.345 20.878,7.322 20.896,7.289 21.295 C 7.267 21.554,7.371 21.783,7.583 21.945 C 7.755 22.076,8.088 22.119,8.288 22.037 C 8.359 22.007,9.107 21.574,9.951 21.074 C 11.488 20.164,11.663 20.080,12.013 20.080 C 12.330 20.080,12.576 20.201,14.114 21.113 C 14.975 21.623,15.819 22.111,15.990 22.196 C 16.618 22.510,17.129 22.647,17.678 22.646 C 18.059 22.645,18.313 22.588,18.632 22.431 C 19.337 22.084,19.720 21.321,19.720 20.266 C 19.720 19.724,19.663 19.401,19.259 17.660 C 19.070 16.846,18.899 16.097,18.880 15.996 C 18.838 15.779,18.911 15.371,19.034 15.134 C 19.079 15.049,19.705 14.393,20.441 13.660 C 21.171 12.934,21.874 12.209,22.003 12.049 C 22.290 11.693,22.489 11.343,22.625 10.955 C 22.764 10.557,22.771 9.986,22.642 9.600 C 22.367 8.783,21.618 8.191,20.541 7.942 C 20.202 7.863,19.932 7.864,19.780 7.943 " stroke="none" fill-rule="evenodd" fill="black"></path></svg>