<svg width="24" height="24" viewBox="0 0 24 24" fill="none" xmlns="http://www.w3.org/2000/svg"><path d="M13.580 3.376 C 13.088 3.496,12.567 3.899,12.230 4.420 C 12.131 4.574,11.704 5.390,11.283 6.234 C 10.516 7.768,10.422 7.920,10.154 8.062 C 10.096 8.093,9.394 8.227,8.594 8.361 C 7.632 8.521,7.028 8.642,6.810 8.717 C 5.657 9.114,5.086 10.033,5.345 11.077 C 5.503 11.713,5.737 12.021,7.141 13.440 C 8.335 14.647,8.376 14.700,8.370 15.059 C 8.368 15.148,8.232 15.805,8.066 16.520 C 7.900 17.235,7.743 17.982,7.717 18.180 C 7.454 20.186,8.891 21.238,10.732 20.388 C 10.895 20.312,11.629 19.893,12.364 19.456 C 13.692 18.667,13.702 18.662,13.964 18.647 C 14.283 18.628,14.167 18.573,15.680 19.473 C 17.475 20.540,17.689 20.633,18.420 20.668 C 18.801 20.686,18.894 20.677,19.117 20.602 C 19.913 20.332,20.320 19.666,20.320 18.635 C 20.320 18.122,20.309 18.061,19.934 16.440 C 19.610 15.041,19.598 14.915,19.755 14.613 C 19.799 14.529,20.305 13.992,20.880 13.420 C 21.455 12.848,22.012 12.272,22.118 12.140 C 22.363 11.835,22.575 11.446,22.662 11.143 C 22.740 10.870,22.749 10.378,22.680 10.117 C 22.508 9.464,21.879 8.896,21.069 8.661 C 20.942 8.624,20.202 8.489,19.424 8.361 C 18.647 8.233,17.957 8.100,17.890 8.065 C 17.585 7.908,17.532 7.823,16.752 6.264 C 16.333 5.426,15.914 4.623,15.821 4.480 C 15.228 3.570,14.419 3.171,13.580 3.376 M1.815 4.278 C 1.331 4.393,1.098 5.004,1.383 5.408 C 1.448 5.499,1.572 5.610,1.660 5.656 C 1.818 5.739,1.865 5.740,4.878 5.751 C 7.020 5.759,8.000 5.749,8.151 5.718 C 8.902 5.562,8.931 4.473,8.189 4.286 C 7.979 4.234,2.033 4.226,1.815 4.278 M14.131 4.854 C 14.391 4.963,14.537 5.200,15.395 6.907 C 16.328 8.763,16.402 8.875,16.941 9.236 C 17.105 9.345,17.361 9.473,17.510 9.520 C 17.658 9.566,18.422 9.710,19.207 9.839 C 20.145 9.993,20.700 10.103,20.827 10.159 C 21.101 10.280,21.240 10.424,21.240 10.588 C 21.240 10.891,21.109 11.055,19.821 12.360 C 18.474 13.725,18.405 13.814,18.243 14.399 C 18.092 14.945,18.117 15.189,18.488 16.777 C 18.788 18.060,18.817 18.216,18.818 18.606 C 18.820 18.977,18.810 19.043,18.740 19.120 C 18.670 19.198,18.632 19.206,18.430 19.188 C 18.111 19.160,17.886 19.046,16.362 18.140 C 15.632 17.705,14.941 17.313,14.827 17.267 C 14.650 17.195,14.534 17.183,14.020 17.182 C 13.489 17.182,13.394 17.192,13.195 17.272 C 13.071 17.321,12.405 17.697,11.715 18.107 C 10.267 18.966,9.998 19.108,9.699 19.171 C 9.377 19.238,9.273 19.189,9.208 18.939 C 9.129 18.636,9.172 18.351,9.529 16.840 C 9.831 15.560,9.855 15.430,9.853 15.040 C 9.850 14.531,9.731 14.114,9.475 13.717 C 9.370 13.555,8.863 13.010,8.100 12.240 C 6.998 11.128,6.885 11.001,6.822 10.808 C 6.734 10.540,6.776 10.419,7.012 10.266 C 7.259 10.106,7.437 10.064,9.015 9.802 C 10.592 9.540,10.758 9.490,11.236 9.128 C 11.636 8.825,11.761 8.624,12.627 6.900 C 13.079 5.998,13.509 5.186,13.583 5.096 C 13.656 5.006,13.775 4.903,13.848 4.867 C 14.008 4.788,13.977 4.789,14.131 4.854 M1.815 11.278 C 1.331 11.393,1.098 12.004,1.383 12.408 C 1.576 12.681,1.733 12.736,2.363 12.754 C 3.073 12.773,3.316 12.724,3.519 12.521 C 3.918 12.122,3.731 11.423,3.189 11.286 C 2.988 11.236,2.016 11.230,1.815 11.278 M1.815 18.278 C 1.331 18.393,1.098 19.004,1.383 19.408 C 1.448 19.499,1.572 19.610,1.660 19.656 C 1.813 19.736,1.888 19.741,3.373 19.752 C 5.166 19.766,5.287 19.753,5.519 19.521 C 5.918 19.122,5.731 18.423,5.189 18.286 C 4.981 18.234,2.029 18.227,1.815 18.278 " stroke="none" fill-rule="evenodd" fill="black"></path></svg>