<svg width="24" height="24" viewBox="0 0 24 24" fill="none" xmlns="http://www.w3.org/2000/svg"><path d="M8.080 1.282 C 4.008 1.495,1.895 3.296,1.383 6.991 C 1.270 7.803,1.242 8.816,1.242 12.000 C 1.242 16.504,1.302 17.273,1.760 18.650 C 2.532 20.963,4.206 22.226,7.027 22.622 C 7.786 22.728,8.902 22.759,12.000 22.759 C 15.098 22.759,16.214 22.728,16.973 22.622 C 19.443 22.275,20.996 21.288,21.897 19.490 C 22.379 18.530,22.638 17.369,22.720 15.807 C 22.771 14.838,22.771 9.162,22.720 8.193 C 22.657 6.998,22.521 6.191,22.242 5.356 C 21.632 3.531,20.469 2.367,18.650 1.760 C 17.788 1.473,17.023 1.344,15.806 1.280 C 14.952 1.235,8.952 1.237,8.080 1.282 M16.800 2.854 C 19.586 3.316,20.714 4.454,21.148 7.240 C 21.214 7.661,21.220 8.064,21.220 12.000 C 21.220 15.936,21.214 16.339,21.148 16.760 C 20.712 19.558,19.558 20.712,16.760 21.148 C 16.339 21.214,15.936 21.220,12.000 21.220 C 8.064 21.220,7.661 21.214,7.240 21.148 C 4.450 20.713,3.283 19.551,2.854 16.780 C 2.785 16.335,2.780 15.989,2.780 12.000 C 2.780 7.247,2.776 7.337,3.044 6.288 C 3.557 4.282,4.722 3.274,6.960 2.900 C 7.690 2.777,8.048 2.769,12.200 2.777 C 15.963 2.784,16.422 2.791,16.800 2.854 M15.480 5.117 C 14.123 5.137,13.925 5.148,13.814 5.209 C 13.549 5.354,13.409 5.656,13.458 5.981 C 13.481 6.134,13.522 6.206,13.675 6.358 C 13.792 6.475,13.913 6.557,13.996 6.573 C 14.070 6.588,14.429 6.601,14.795 6.601 L 15.460 6.602 14.940 7.112 C 13.581 8.445,12.083 9.502,10.340 10.360 C 9.224 10.909,8.309 11.251,6.801 11.683 C 6.575 11.748,6.466 11.805,6.355 11.916 C 5.894 12.376,6.217 13.160,6.867 13.160 C 7.090 13.160,7.998 12.910,8.840 12.618 C 11.394 11.730,13.933 10.170,15.884 8.290 L 16.351 7.839 16.367 8.410 C 16.385 9.014,16.415 9.129,16.607 9.308 C 16.732 9.425,16.967 9.520,17.129 9.519 C 17.412 9.517,17.758 9.265,17.830 9.007 C 17.847 8.948,17.860 8.159,17.860 7.253 L 17.860 5.607 17.740 5.437 C 17.602 5.242,17.410 5.130,17.180 5.109 C 17.092 5.101,16.327 5.105,15.480 5.117 M16.739 11.297 C 16.649 11.351,16.535 11.470,16.479 11.567 L 16.380 11.740 16.380 15.040 L 16.380 18.340 16.486 18.520 C 16.772 19.006,17.468 19.006,17.754 18.520 L 17.860 18.340 17.860 15.040 L 17.860 11.740 17.754 11.560 C 17.547 11.208,17.087 11.089,16.739 11.297 M11.619 13.377 C 11.529 13.431,11.415 13.550,11.359 13.647 L 11.260 13.820 11.260 16.080 L 11.260 18.340 11.366 18.520 C 11.652 19.006,12.348 19.006,12.634 18.520 L 12.740 18.340 12.740 16.080 L 12.740 13.820 12.634 13.640 C 12.427 13.288,11.967 13.169,11.619 13.377 M6.695 15.358 C 6.519 15.400,6.342 15.535,6.233 15.711 C 6.141 15.858,6.140 15.872,6.140 17.100 L 6.140 18.340 6.240 18.514 C 6.521 19.006,7.239 19.006,7.520 18.514 C 7.619 18.342,7.620 18.327,7.633 17.248 C 7.647 16.068,7.622 15.828,7.461 15.618 C 7.303 15.411,6.961 15.295,6.695 15.358 " stroke="none" fill-rule="evenodd" fill="black"></path></svg>