<svg width="24" height="24" viewBox="0 0 24 24" fill="none" xmlns="http://www.w3.org/2000/svg"><path d="M11.300 1.281 C 6.978 1.540,3.220 4.431,1.811 8.580 C 1.536 9.390,1.297 10.609,1.328 11.042 C 1.366 11.570,1.904 11.870,2.390 11.635 C 2.659 11.505,2.749 11.334,2.821 10.818 C 2.970 9.758,3.234 8.888,3.696 7.940 C 4.169 6.971,4.702 6.222,5.457 5.467 C 6.216 4.708,7.004 4.147,7.970 3.680 C 9.272 3.050,10.541 2.760,12.000 2.760 C 13.478 2.760,14.734 3.050,16.066 3.700 C 17.917 4.603,19.393 6.080,20.302 7.940 C 20.765 8.886,20.995 9.634,21.162 10.726 C 21.256 11.344,21.334 11.501,21.610 11.635 C 22.096 11.870,22.634 11.570,22.672 11.042 C 22.691 10.782,22.599 10.136,22.459 9.537 C 21.543 5.622,18.457 2.511,14.550 1.564 C 13.890 1.404,13.347 1.324,12.624 1.279 C 11.969 1.239,12.000 1.239,11.300 1.281 M2.140 14.287 C 2.013 14.357,1.838 14.531,1.776 14.648 C 1.647 14.895,1.730 15.282,2.109 16.200 C 2.881 18.070,4.340 19.816,6.100 20.975 C 6.615 21.315,7.151 21.608,7.675 21.838 C 8.418 22.164,9.626 22.520,9.992 22.520 C 10.535 22.520,10.878 21.952,10.637 21.453 C 10.591 21.358,10.500 21.243,10.436 21.197 C 10.371 21.151,10.051 21.044,9.725 20.959 C 8.065 20.526,6.783 19.806,5.572 18.628 C 4.717 17.795,4.196 17.082,3.699 16.060 C 3.539 15.730,3.342 15.273,3.263 15.045 C 3.093 14.558,3.009 14.427,2.798 14.319 C 2.626 14.231,2.272 14.214,2.140 14.287 M21.199 14.370 C 20.985 14.478,20.875 14.634,20.758 14.992 C 20.710 15.139,20.606 15.411,20.528 15.596 C 19.380 18.303,16.990 20.326,14.142 21.002 C 13.666 21.115,13.506 21.201,13.382 21.413 C 13.184 21.751,13.282 22.216,13.591 22.407 C 13.834 22.557,13.980 22.565,14.457 22.458 C 15.656 22.188,16.854 21.674,17.890 20.986 C 19.897 19.653,21.398 17.733,22.144 15.542 C 22.298 15.091,22.310 14.929,22.205 14.700 C 22.117 14.510,22.028 14.424,21.830 14.342 C 21.623 14.255,21.407 14.265,21.199 14.370 " stroke="none" fill-rule="evenodd" fill="black"></path></svg>