<svg width="24" height="24" viewBox="0 0 24 24" fill="none" xmlns="http://www.w3.org/2000/svg"><path d="M7.815 1.277 C 7.639 1.321,7.461 1.456,7.355 1.628 C 7.277 1.755,7.261 1.848,7.242 2.297 L 7.220 2.819 6.900 2.866 C 6.107 2.983,5.542 3.153,4.951 3.453 C 3.243 4.321,2.438 5.924,2.280 8.770 C 2.229 9.679,2.230 15.768,2.280 16.740 C 2.360 18.264,2.559 19.201,2.981 20.040 C 3.738 21.541,5.015 22.328,7.200 22.639 C 7.834 22.729,9.008 22.758,12.011 22.759 C 14.718 22.760,15.142 22.752,15.271 22.699 C 15.478 22.613,21.577 16.527,21.683 16.300 C 21.755 16.148,21.758 15.984,21.758 12.820 C 21.758 8.586,21.719 7.834,21.435 6.681 C 21.068 5.190,20.382 4.207,19.249 3.547 C 18.729 3.244,17.900 2.978,17.136 2.869 L 16.780 2.819 16.757 2.319 C 16.732 1.760,16.673 1.579,16.464 1.421 C 16.096 1.142,15.598 1.236,15.354 1.629 C 15.275 1.757,15.261 1.844,15.247 2.268 L 15.230 2.760 11.995 2.760 L 8.760 2.760 8.759 2.390 C 8.758 1.944,8.707 1.704,8.580 1.536 C 8.421 1.327,8.078 1.211,7.815 1.277 M15.247 4.732 C 15.261 5.156,15.275 5.243,15.354 5.371 C 15.708 5.944,16.577 5.811,16.716 5.162 C 16.740 5.049,16.760 4.812,16.760 4.636 L 16.760 4.315 16.950 4.343 C 17.288 4.391,17.858 4.549,18.175 4.680 C 19.139 5.082,19.743 5.908,20.023 7.206 C 20.213 8.089,20.212 8.078,20.229 11.745 L 20.244 15.230 18.812 15.250 C 17.241 15.273,16.941 15.306,16.356 15.519 C 15.487 15.836,14.836 16.488,14.517 17.361 C 14.306 17.940,14.273 18.244,14.250 19.810 L 14.230 21.240 11.199 21.240 C 8.109 21.240,7.692 21.224,6.917 21.079 C 6.378 20.979,6.074 20.880,5.604 20.654 C 5.289 20.502,5.172 20.416,4.881 20.126 C 4.665 19.911,4.479 19.680,4.388 19.515 C 4.204 19.181,4.015 18.620,3.919 18.124 C 3.767 17.334,3.753 16.788,3.770 12.440 C 3.787 8.018,3.784 8.105,3.977 7.206 C 4.341 5.516,5.180 4.699,6.874 4.382 C 7.058 4.348,7.214 4.320,7.219 4.320 C 7.225 4.320,7.238 4.524,7.247 4.773 C 7.262 5.155,7.279 5.249,7.355 5.372 C 7.708 5.944,8.577 5.810,8.716 5.162 C 8.740 5.049,8.760 4.795,8.760 4.598 L 8.760 4.240 11.995 4.240 L 15.230 4.240 15.247 4.732 M6.815 10.278 C 6.331 10.393,6.098 11.004,6.383 11.408 C 6.447 11.499,6.572 11.610,6.660 11.656 C 6.819 11.739,6.851 11.740,10.879 11.751 C 13.744 11.759,15.001 11.749,15.153 11.717 C 15.902 11.562,15.930 10.473,15.189 10.286 C 14.979 10.234,7.034 10.226,6.815 10.278 M6.815 14.278 C 6.331 14.393,6.098 15.004,6.383 15.408 C 6.447 15.499,6.572 15.610,6.660 15.656 C 6.817 15.738,6.873 15.740,9.377 15.751 C 11.157 15.759,11.999 15.749,12.150 15.718 C 12.902 15.562,12.931 14.473,12.189 14.286 C 11.980 14.234,7.032 14.226,6.815 14.278 M17.480 18.460 L 15.780 20.160 15.769 19.342 C 15.757 18.444,15.798 18.126,15.976 17.738 C 16.112 17.441,16.401 17.144,16.696 16.999 C 17.087 16.807,17.361 16.767,18.320 16.763 L 19.180 16.760 17.480 18.460 " stroke="none" fill-rule="evenodd" fill="black"></path></svg>