<svg width="24" height="24" viewBox="0 0 24 24" fill="none" xmlns="http://www.w3.org/2000/svg"><path d="M11.280 1.278 C 9.373 1.408,7.607 2.002,6.055 3.036 C 4.433 4.116,3.207 5.499,2.364 7.200 C 1.778 8.381,1.457 9.453,1.296 10.762 C 1.245 11.183,1.235 11.504,1.252 12.240 C 1.279 13.372,1.378 14.062,1.647 15.000 C 2.557 18.164,4.943 20.785,8.020 22.001 C 8.733 22.283,9.631 22.521,10.422 22.637 C 11.271 22.762,12.687 22.763,13.334 22.639 C 13.825 22.545,14.406 22.271,14.860 21.919 C 14.970 21.833,16.593 20.228,18.466 18.352 C 22.128 14.684,22.112 14.701,22.411 13.988 C 22.630 13.465,22.693 13.014,22.694 11.980 C 22.694 9.433,21.927 7.249,20.326 5.240 C 19.387 4.061,18.092 3.031,16.665 2.330 C 15.054 1.538,13.094 1.155,11.280 1.278 M13.103 2.819 C 15.162 3.074,16.989 3.961,18.461 5.420 C 19.228 6.180,19.707 6.823,20.176 7.723 C 20.828 8.972,21.158 10.243,21.211 11.710 C 21.223 12.046,21.204 12.143,21.143 12.044 C 21.100 11.975,20.294 11.648,19.860 11.523 C 19.618 11.454,19.249 11.368,19.040 11.333 C 18.567 11.253,17.512 11.244,17.020 11.315 C 14.774 11.640,12.821 13.088,11.858 15.140 C 11.016 16.936,11.015 19.059,11.856 20.858 L 12.035 21.240 11.659 21.240 C 10.311 21.240,8.609 20.760,7.340 20.021 C 6.132 19.318,4.971 18.218,4.219 17.063 C 2.113 13.833,2.242 9.549,4.536 6.491 C 5.155 5.665,6.101 4.776,6.940 4.231 C 8.054 3.507,9.451 2.994,10.780 2.821 C 11.339 2.748,12.521 2.747,13.103 2.819 M19.040 12.861 C 19.640 12.991,20.355 13.284,20.781 13.573 L 20.919 13.666 20.804 13.843 C 20.648 14.083,13.845 20.864,13.724 20.900 C 13.598 20.938,13.540 20.863,13.263 20.300 C 12.885 19.532,12.746 18.928,12.745 18.040 C 12.743 17.119,12.881 16.510,13.278 15.698 C 14.035 14.147,15.441 13.109,17.180 12.817 C 17.595 12.748,18.631 12.772,19.040 12.861 " stroke="none" fill-rule="evenodd" fill="black"></path></svg>