<svg width="24" height="24" viewBox="0 0 24 24" fill="none" xmlns="http://www.w3.org/2000/svg"><path d="M8.417 2.280 C 5.655 2.447,3.950 3.380,3.021 5.234 C 2.685 5.905,2.471 6.691,2.330 7.770 C 2.269 8.238,2.261 8.729,2.261 12.000 C 2.261 15.271,2.269 15.762,2.330 16.230 C 2.562 18.012,3.048 19.168,3.940 20.060 C 4.832 20.952,5.988 21.438,7.770 21.670 C 8.238 21.731,8.729 21.739,12.000 21.739 C 15.985 21.739,16.122 21.733,17.170 21.516 C 18.283 21.286,19.255 20.816,19.972 20.160 C 20.679 19.514,21.267 18.376,21.516 17.170 C 21.733 16.122,21.739 15.985,21.739 12.000 C 21.739 8.015,21.733 7.878,21.516 6.830 C 21.019 4.426,19.574 2.981,17.170 2.484 C 16.178 2.279,16.010 2.271,12.360 2.259 C 10.479 2.253,8.705 2.263,8.417 2.280 M16.460 3.870 C 17.164 3.997,17.605 4.134,18.100 4.378 C 18.845 4.746,19.254 5.155,19.622 5.900 C 19.869 6.401,20.005 6.842,20.132 7.560 C 20.219 8.053,20.220 8.114,20.220 12.000 C 20.220 15.886,20.219 15.947,20.132 16.440 C 20.005 17.158,19.869 17.599,19.622 18.100 C 19.254 18.845,18.845 19.254,18.100 19.622 C 17.599 19.869,17.158 20.005,16.440 20.132 C 15.947 20.219,15.886 20.220,12.000 20.220 C 8.114 20.220,8.053 20.219,7.560 20.132 C 6.842 20.005,6.401 19.869,5.900 19.622 C 5.155 19.254,4.746 18.845,4.378 18.100 C 4.131 17.599,3.995 17.158,3.868 16.440 C 3.781 15.947,3.780 15.886,3.780 12.000 C 3.780 8.114,3.781 8.053,3.868 7.560 C 3.995 6.842,4.131 6.401,4.378 5.900 C 4.746 5.155,5.155 4.746,5.900 4.378 C 6.522 4.071,7.205 3.892,8.100 3.801 C 8.276 3.783,10.121 3.772,12.200 3.776 C 15.879 3.784,15.993 3.786,16.460 3.870 " stroke="none" fill-rule="evenodd" fill="black"></path></svg>