<svg width="24" height="24" viewBox="0 0 24 24" fill="none" xmlns="http://www.w3.org/2000/svg"><path d="M11.520 1.265 C 9.179 1.381,7.037 2.186,5.222 3.635 C 3.683 4.862,2.406 6.708,1.781 8.608 C 1.400 9.763,1.240 10.769,1.240 12.000 C 1.240 13.231,1.400 14.237,1.781 15.392 C 2.968 19.000,6.008 21.712,9.764 22.516 C 10.723 22.721,12.190 22.792,13.160 22.680 C 17.435 22.189,21.013 19.214,22.253 15.120 C 22.571 14.071,22.697 13.186,22.697 12.000 C 22.697 10.814,22.571 9.929,22.253 8.880 C 21.209 5.435,18.507 2.751,15.024 1.701 C 13.967 1.383,12.598 1.212,11.520 1.265 M13.082 2.817 C 16.549 3.250,19.446 5.544,20.660 8.818 C 21.024 9.801,21.208 10.858,21.210 11.980 C 21.211 13.036,21.073 13.933,20.761 14.881 C 19.624 18.344,16.573 20.806,12.928 21.202 C 12.295 21.270,11.037 21.232,10.440 21.126 C 8.405 20.764,6.697 19.852,5.279 18.372 C 1.870 14.814,1.867 9.188,5.272 5.635 C 6.452 4.403,7.833 3.562,9.429 3.103 C 9.859 2.979,10.663 2.824,11.060 2.788 C 11.494 2.749,12.667 2.765,13.082 2.817 M10.000 7.060 C 9.967 7.067,9.805 7.095,9.640 7.122 C 8.447 7.316,7.622 7.987,7.267 9.053 C 7.067 9.653,7.060 9.755,7.060 12.040 C 7.060 14.146,7.061 14.186,7.153 14.560 C 7.266 15.019,7.573 15.668,7.803 15.933 C 8.161 16.344,8.756 16.676,9.440 16.846 C 9.816 16.939,9.844 16.940,12.000 16.940 C 14.146 16.940,14.186 16.939,14.546 16.848 C 15.255 16.669,15.664 16.455,16.067 16.055 C 16.303 15.821,16.389 15.697,16.553 15.355 C 16.664 15.125,16.795 14.771,16.847 14.560 C 16.939 14.186,16.940 14.148,16.940 12.000 C 16.940 9.854,16.939 9.814,16.848 9.454 C 16.797 9.252,16.725 9.009,16.687 8.914 C 16.379 8.123,15.792 7.557,14.996 7.282 C 14.386 7.071,14.359 7.069,12.140 7.057 C 10.996 7.051,10.033 7.053,10.000 7.060 M14.298 8.617 C 14.939 8.805,15.203 9.073,15.387 9.723 C 15.453 9.956,15.460 10.166,15.460 12.000 C 15.460 13.834,15.453 14.044,15.387 14.277 C 15.203 14.927,14.939 15.195,14.298 15.383 C 13.946 15.487,10.516 15.518,9.954 15.422 C 9.086 15.275,8.729 14.918,8.579 14.046 C 8.524 13.728,8.517 13.393,8.531 11.806 C 8.545 10.177,8.556 9.910,8.617 9.702 C 8.829 8.979,9.184 8.690,10.020 8.559 C 10.130 8.541,11.084 8.532,12.140 8.537 C 13.834 8.545,14.088 8.555,14.298 8.617 " stroke="none" fill-rule="evenodd" fill="black"></path></svg>