<svg width="24" height="24" viewBox="0 0 24 24" fill="none" xmlns="http://www.w3.org/2000/svg"><path d="M11.280 1.640 C 9.250 1.770,7.253 2.510,5.559 3.761 C 5.236 4.000,5.120 4.192,5.120 4.485 C 5.121 4.939,5.535 5.296,5.965 5.214 C 6.145 5.180,6.199 5.150,6.599 4.862 C 8.723 3.331,11.334 2.779,13.920 3.315 C 14.915 3.521,16.261 4.093,17.080 4.657 C 17.852 5.188,17.994 5.237,18.328 5.089 C 18.660 4.943,18.834 4.597,18.756 4.241 C 18.704 4.005,18.611 3.900,18.200 3.610 C 16.147 2.162,13.758 1.482,11.280 1.640 M11.680 5.387 C 9.335 5.508,7.272 6.729,6.031 8.730 C 5.561 9.489,5.225 10.420,5.077 11.380 C 5.011 11.801,5.011 12.887,5.076 13.340 C 5.613 17.082,9.011 19.729,12.752 19.317 C 17.430 18.803,20.270 13.931,18.416 9.600 C 17.453 7.353,15.325 5.744,12.920 5.446 C 12.518 5.396,11.987 5.371,11.680 5.387 M13.120 6.980 C 14.162 7.211,15.121 7.732,15.869 8.475 C 17.028 9.626,17.605 11.184,17.475 12.816 C 17.332 14.616,16.315 16.221,14.740 17.134 C 12.633 18.355,9.960 18.024,8.185 16.323 C 7.220 15.398,6.632 14.155,6.525 12.814 C 6.442 11.765,6.642 10.771,7.121 9.851 C 7.937 8.287,9.355 7.254,11.120 6.937 C 11.527 6.864,12.712 6.889,13.120 6.980 M1.780 10.447 C 1.655 10.516,1.478 10.690,1.419 10.803 C 1.257 11.113,1.241 13.126,1.394 14.060 C 1.699 15.928,2.410 17.552,3.592 19.076 C 3.925 19.506,4.790 20.377,5.240 20.736 C 6.015 21.353,7.413 22.162,8.016 22.341 C 8.418 22.460,8.779 22.292,8.938 21.911 C 9.019 21.716,9.015 21.537,8.924 21.340 C 8.818 21.110,8.709 21.026,8.253 20.824 C 7.161 20.340,6.323 19.763,5.459 18.900 C 4.582 18.026,3.928 17.049,3.463 15.920 C 2.872 14.485,2.705 13.324,2.800 11.317 C 2.819 10.908,2.817 10.890,2.710 10.728 C 2.568 10.513,2.347 10.400,2.072 10.401 C 1.955 10.402,1.824 10.422,1.780 10.447 M21.550 10.483 C 21.467 10.526,21.350 10.637,21.290 10.728 C 21.183 10.890,21.181 10.908,21.200 11.317 C 21.295 13.324,21.129 14.480,20.537 15.920 C 20.080 17.035,19.413 18.031,18.541 18.900 C 17.677 19.763,16.839 20.340,15.747 20.824 C 15.291 21.026,15.182 21.110,15.076 21.340 C 14.869 21.787,15.141 22.284,15.642 22.375 C 15.847 22.412,16.096 22.325,16.822 21.965 C 17.912 21.423,18.744 20.822,19.621 19.942 C 21.222 18.337,22.234 16.343,22.606 14.063 C 22.752 13.169,22.746 11.247,22.597 10.851 C 22.545 10.714,22.376 10.532,22.232 10.456 C 22.076 10.375,21.729 10.388,21.550 10.483 " stroke="none" fill-rule="evenodd" fill="black"></path></svg>