<svg width="24" height="24" viewBox="0 0 24 24" fill="none" xmlns="http://www.w3.org/2000/svg"><path d="M8.080 1.282 C 4.008 1.495,1.895 3.296,1.383 6.991 C 1.270 7.803,1.242 8.816,1.242 12.000 C 1.242 16.504,1.302 17.273,1.760 18.650 C 2.532 20.963,4.206 22.226,7.027 22.622 C 7.786 22.728,8.902 22.759,12.000 22.759 C 15.098 22.759,16.214 22.728,16.973 22.622 C 19.443 22.275,20.996 21.288,21.897 19.490 C 22.379 18.530,22.638 17.369,22.720 15.807 C 22.771 14.838,22.771 9.162,22.720 8.193 C 22.657 6.998,22.521 6.191,22.242 5.356 C 21.632 3.531,20.469 2.367,18.650 1.760 C 17.788 1.473,17.023 1.344,15.806 1.280 C 14.952 1.235,8.952 1.237,8.080 1.282 M16.800 2.854 C 19.285 3.266,20.441 4.228,20.960 6.312 C 21.168 7.150,21.207 7.518,21.229 8.890 L 21.250 10.160 18.165 10.160 L 15.080 10.160 15.080 10.062 C 15.080 9.936,14.894 9.347,14.790 9.140 C 14.408 8.389,13.634 7.779,12.780 7.556 C 12.354 7.445,11.655 7.436,11.260 7.537 C 10.365 7.766,9.595 8.386,9.196 9.198 C 9.071 9.452,8.920 9.939,8.920 10.087 C 8.920 10.157,8.790 10.160,5.835 10.160 L 2.750 10.160 2.771 8.890 C 2.793 7.543,2.832 7.154,3.025 6.360 C 3.521 4.315,4.702 3.277,6.960 2.900 C 7.690 2.777,8.048 2.769,12.200 2.777 C 15.963 2.784,16.422 2.791,16.800 2.854 M12.460 9.008 C 13.040 9.154,13.548 9.742,13.619 10.349 C 13.696 11.013,13.402 11.594,12.792 11.985 L 12.520 12.159 12.520 13.390 C 12.520 14.482,12.512 14.635,12.450 14.757 C 12.260 15.129,11.798 15.158,11.571 14.811 C 11.508 14.715,11.499 14.567,11.488 13.430 L 11.476 12.157 11.208 11.985 C 10.881 11.775,10.663 11.539,10.533 11.257 C 10.235 10.605,10.348 9.929,10.838 9.437 C 11.275 8.999,11.834 8.851,12.460 9.008 M9.141 11.810 C 9.261 12.088,9.622 12.614,9.818 12.794 L 10.000 12.962 10.000 13.833 C 10.000 14.811,10.033 15.067,10.208 15.435 C 10.374 15.785,10.777 16.188,11.125 16.354 C 11.908 16.725,12.797 16.573,13.401 15.963 C 13.915 15.443,13.998 15.150,13.999 13.849 L 14.000 12.958 14.145 12.830 C 14.360 12.641,14.653 12.237,14.806 11.920 L 14.940 11.640 18.093 11.640 L 21.246 11.640 21.230 14.010 C 21.211 16.592,21.203 16.712,20.960 17.688 C 20.504 19.519,19.520 20.504,17.688 20.960 C 16.622 21.226,16.745 21.220,12.000 21.220 C 8.064 21.220,7.661 21.214,7.240 21.148 C 4.455 20.714,3.302 19.571,2.855 16.800 C 2.798 16.449,2.784 15.989,2.770 14.010 L 2.754 11.640 5.911 11.640 L 9.068 11.640 9.141 11.810 " stroke="none" fill-rule="evenodd" fill="black"></path></svg>