<svg width="24" height="24" viewBox="0 0 24 24" fill="none" xmlns="http://www.w3.org/2000/svg"><path d="M8.080 1.282 C 4.008 1.495,1.895 3.296,1.383 6.991 C 1.270 7.803,1.242 8.816,1.242 12.000 C 1.242 16.504,1.302 17.273,1.760 18.650 C 2.532 20.963,4.206 22.226,7.027 22.622 C 7.786 22.728,8.902 22.759,12.000 22.759 C 15.098 22.759,16.214 22.728,16.973 22.622 C 19.443 22.275,20.996 21.288,21.897 19.490 C 22.379 18.530,22.638 17.369,22.720 15.807 C 22.771 14.838,22.771 9.162,22.720 8.193 C 22.657 6.998,22.521 6.191,22.242 5.356 C 21.632 3.531,20.469 2.367,18.650 1.760 C 17.788 1.473,17.023 1.344,15.806 1.280 C 14.952 1.235,8.952 1.237,8.080 1.282 M16.800 2.854 C 19.586 3.316,20.714 4.454,21.148 7.240 C 21.214 7.661,21.220 8.064,21.220 12.000 C 21.220 15.936,21.214 16.339,21.148 16.760 C 20.712 19.558,19.558 20.712,16.760 21.148 C 16.339 21.214,15.936 21.220,12.000 21.220 C 8.064 21.220,7.661 21.214,7.240 21.148 C 4.450 20.713,3.283 19.551,2.854 16.780 C 2.785 16.335,2.780 15.989,2.780 12.000 C 2.780 7.247,2.776 7.337,3.044 6.288 C 3.557 4.282,4.722 3.274,6.960 2.900 C 7.690 2.777,8.048 2.769,12.200 2.777 C 15.963 2.784,16.422 2.791,16.800 2.854 M7.498 4.280 C 5.996 4.408,4.968 5.126,4.517 6.362 C 4.253 7.084,4.260 6.938,4.260 12.000 C 4.260 16.185,4.266 16.612,4.330 16.948 C 4.617 18.465,5.535 19.383,7.052 19.670 C 7.388 19.734,7.815 19.740,12.000 19.740 C 16.185 19.740,16.612 19.734,16.948 19.670 C 18.215 19.431,19.083 18.735,19.483 17.638 C 19.747 16.916,19.740 17.062,19.740 12.000 C 19.740 7.815,19.734 7.388,19.670 7.052 C 19.431 5.786,18.735 4.917,17.639 4.517 C 16.935 4.260,17.100 4.268,12.260 4.258 C 9.840 4.253,7.697 4.263,7.498 4.280 M16.773 5.819 C 17.552 5.984,18.017 6.447,18.180 7.220 C 18.221 7.417,18.239 7.758,18.239 8.370 L 18.240 9.240 17.059 9.240 C 15.794 9.240,15.700 9.253,15.487 9.452 C 15.142 9.774,15.213 10.384,15.623 10.624 C 15.787 10.720,15.791 10.720,17.014 10.720 L 18.240 10.720 18.240 11.977 L 18.240 13.235 17.010 13.247 C 15.796 13.260,15.778 13.261,15.627 13.355 C 15.385 13.506,15.267 13.718,15.267 14.003 C 15.267 14.203,15.286 14.270,15.383 14.408 C 15.610 14.729,15.656 14.738,17.030 14.753 L 18.240 14.765 18.239 15.633 C 18.239 16.235,18.221 16.584,18.181 16.773 C 18.016 17.552,17.553 18.017,16.780 18.180 C 16.361 18.268,7.639 18.268,7.220 18.180 C 6.447 18.017,5.984 17.552,5.819 16.773 C 5.783 16.602,5.761 16.265,5.761 15.870 L 5.760 15.240 6.770 15.240 C 7.325 15.240,7.897 15.220,8.040 15.197 C 8.694 15.092,9.250 14.797,9.764 14.284 C 10.415 13.632,10.719 12.905,10.719 12.000 C 10.719 11.095,10.415 10.368,9.764 9.716 C 9.250 9.203,8.694 8.908,8.040 8.803 C 7.897 8.780,7.325 8.760,6.770 8.760 L 5.760 8.760 5.761 8.130 C 5.761 7.439,5.816 7.087,5.976 6.738 C 6.185 6.282,6.635 5.945,7.200 5.823 C 7.593 5.738,16.373 5.735,16.773 5.819 M7.780 10.280 C 8.134 10.338,8.469 10.519,8.735 10.798 C 9.238 11.326,9.366 12.077,9.064 12.741 C 8.930 13.036,8.561 13.415,8.266 13.560 C 7.924 13.728,7.672 13.760,6.650 13.760 L 5.760 13.760 5.760 12.000 L 5.760 10.240 6.650 10.240 C 7.140 10.240,7.648 10.258,7.780 10.280 M6.873 11.061 C 6.611 11.145,6.340 11.424,6.261 11.690 C 6.185 11.947,6.185 12.053,6.261 12.310 C 6.476 13.036,7.526 13.239,8.039 12.655 C 8.219 12.450,8.280 12.285,8.280 12.000 C 8.280 11.867,8.255 11.698,8.225 11.626 C 8.145 11.435,7.933 11.208,7.744 11.112 C 7.532 11.004,7.125 10.980,6.873 11.061 " stroke="none" fill-rule="evenodd" fill="black"></path></svg>