<svg width="24" height="24" viewBox="0 0 24 24" fill="none" xmlns="http://www.w3.org/2000/svg"><path d="M9.815 2.278 C 9.331 2.393,9.098 3.004,9.383 3.408 C 9.590 3.700,9.715 3.738,10.530 3.754 L 11.240 3.768 11.240 5.804 C 11.240 7.795,11.238 7.840,11.162 7.840 C 11.026 7.840,10.431 8.044,10.140 8.190 C 9.725 8.399,9.333 8.676,9.032 8.975 C 8.885 9.121,8.753 9.240,8.739 9.240 C 8.711 9.240,5.317 7.287,5.269 7.243 C 5.252 7.227,5.390 6.949,5.576 6.625 C 5.938 5.995,5.983 5.876,5.941 5.647 C 5.834 5.056,5.075 4.827,4.675 5.265 C 4.583 5.365,2.788 8.432,2.564 8.873 C 2.403 9.188,2.471 9.559,2.733 9.789 C 2.895 9.931,3.079 9.980,3.342 9.950 C 3.618 9.919,3.747 9.788,4.098 9.182 C 4.273 8.880,4.435 8.608,4.458 8.579 C 4.491 8.537,4.862 8.736,6.240 9.535 C 7.356 10.182,7.978 10.564,7.974 10.602 C 7.970 10.634,7.927 10.804,7.877 10.980 C 7.799 11.256,7.787 11.395,7.787 12.000 C 7.787 12.605,7.799 12.744,7.877 13.020 C 7.927 13.196,7.970 13.366,7.974 13.399 C 7.978 13.436,7.360 13.816,6.240 14.465 C 4.868 15.260,4.491 15.462,4.458 15.420 C 4.435 15.391,4.273 15.120,4.098 14.818 C 3.747 14.212,3.618 14.081,3.342 14.050 C 3.079 14.020,2.895 14.069,2.733 14.211 C 2.471 14.441,2.403 14.812,2.564 15.127 C 2.788 15.568,4.583 18.635,4.675 18.735 C 5.075 19.173,5.834 18.944,5.941 18.353 C 5.983 18.124,5.938 18.005,5.576 17.375 C 5.390 17.051,5.252 16.773,5.269 16.757 C 5.317 16.713,8.711 14.760,8.739 14.760 C 8.753 14.760,8.885 14.879,9.032 15.025 C 9.333 15.324,9.725 15.601,10.140 15.810 C 10.431 15.956,11.026 16.160,11.162 16.160 C 11.238 16.160,11.240 16.205,11.240 18.196 L 11.240 20.232 10.507 20.246 C 9.790 20.260,9.771 20.262,9.612 20.367 C 9.372 20.526,9.267 20.721,9.267 21.007 C 9.267 21.203,9.286 21.270,9.383 21.408 C 9.447 21.499,9.572 21.610,9.660 21.656 C 9.815 21.738,9.880 21.740,11.875 21.752 C 14.208 21.765,14.281 21.759,14.519 21.521 C 14.918 21.122,14.731 20.423,14.189 20.286 C 14.087 20.261,13.725 20.240,13.382 20.240 L 12.760 20.240 12.760 18.200 C 12.760 16.205,12.762 16.160,12.838 16.160 C 12.974 16.160,13.569 15.956,13.860 15.810 C 14.275 15.601,14.667 15.324,14.968 15.025 C 15.115 14.879,15.246 14.760,15.260 14.760 C 15.288 14.760,18.684 16.714,18.731 16.757 C 18.748 16.773,18.610 17.051,18.424 17.375 C 18.059 18.010,18.019 18.118,18.060 18.360 C 18.159 18.945,18.925 19.172,19.325 18.735 C 19.413 18.640,21.242 15.511,21.455 15.092 C 21.534 14.936,21.539 14.644,21.466 14.468 C 21.392 14.292,21.152 14.090,20.978 14.057 C 20.751 14.014,20.493 14.060,20.350 14.170 C 20.272 14.229,20.093 14.489,19.902 14.818 C 19.727 15.120,19.565 15.392,19.542 15.421 C 19.509 15.463,19.138 15.264,17.760 14.465 C 16.644 13.818,16.022 13.436,16.026 13.398 C 16.030 13.366,16.073 13.196,16.123 13.020 C 16.201 12.744,16.213 12.605,16.213 12.000 C 16.213 11.395,16.201 11.256,16.123 10.980 C 16.073 10.804,16.030 10.634,16.026 10.602 C 16.022 10.564,16.644 10.182,17.760 9.535 C 19.138 8.736,19.509 8.537,19.542 8.579 C 19.565 8.608,19.727 8.880,19.902 9.182 C 20.093 9.511,20.272 9.771,20.350 9.830 C 20.493 9.940,20.751 9.986,20.978 9.943 C 21.152 9.910,21.392 9.708,21.466 9.532 C 21.539 9.356,21.534 9.064,21.455 8.908 C 21.242 8.489,19.413 5.360,19.325 5.265 C 18.925 4.828,18.159 5.055,18.060 5.640 C 18.019 5.882,18.059 5.990,18.424 6.625 C 18.610 6.949,18.748 7.227,18.731 7.242 C 18.682 7.286,15.288 9.240,15.260 9.240 C 15.246 9.240,15.115 9.121,14.968 8.975 C 14.667 8.676,14.275 8.399,13.860 8.190 C 13.569 8.044,12.974 7.840,12.838 7.840 C 12.762 7.840,12.760 7.795,12.760 5.800 L 12.760 3.760 13.358 3.760 C 14.121 3.760,14.321 3.719,14.520 3.520 C 14.918 3.122,14.730 2.423,14.189 2.286 C 13.980 2.234,10.031 2.226,9.815 2.278 M12.700 9.340 C 13.434 9.527,14.116 10.088,14.457 10.787 C 14.855 11.602,14.850 12.404,14.443 13.225 C 13.730 14.661,11.974 15.179,10.595 14.360 C 9.932 13.966,9.433 13.245,9.297 12.486 C 9.229 12.101,9.229 11.899,9.297 11.514 C 9.357 11.180,9.502 10.817,9.707 10.491 C 9.977 10.060,10.558 9.593,11.040 9.418 C 11.535 9.238,12.183 9.208,12.700 9.340 " stroke="none" fill-rule="evenodd" fill="black"></path></svg>