<svg width="24" height="24" viewBox="0 0 24 24" fill="none" xmlns="http://www.w3.org/2000/svg"><path d="M9.840 3.026 C 8.581 3.146,7.584 3.554,6.583 4.357 C 6.347 4.547,3.140 8.019,2.383 8.905 C 0.957 10.574,0.878 13.099,2.198 14.856 C 2.565 15.345,6.257 19.376,6.571 19.631 C 7.183 20.128,7.791 20.466,8.494 20.700 C 9.339 20.981,9.215 20.974,13.320 20.991 C 17.193 21.007,17.673 20.992,18.323 20.837 C 20.483 20.321,22.177 18.579,22.620 16.420 C 22.739 15.842,22.758 15.218,22.758 12.000 C 22.758 8.782,22.739 8.158,22.620 7.580 C 22.120 5.138,20.065 3.293,17.566 3.042 C 17.192 3.004,10.219 2.990,9.840 3.026 M17.344 4.520 C 18.467 4.619,19.503 5.148,20.220 5.987 C 20.664 6.507,20.935 7.028,21.131 7.736 L 21.220 8.060 21.220 12.000 L 21.220 15.940 21.131 16.264 C 20.935 16.972,20.664 17.493,20.220 18.013 C 19.697 18.625,18.920 19.121,18.141 19.341 C 17.542 19.510,17.056 19.527,13.260 19.510 C 10.081 19.495,9.711 19.487,9.441 19.423 C 9.024 19.325,8.834 19.258,8.420 19.063 C 7.736 18.740,7.556 18.570,5.449 16.253 C 4.383 15.081,3.440 14.027,3.353 13.911 C 2.550 12.839,2.549 11.161,3.351 10.091 C 3.438 9.976,4.370 8.933,5.424 7.773 C 7.644 5.330,7.783 5.203,8.635 4.839 C 9.049 4.662,9.459 4.558,9.897 4.520 C 10.404 4.475,16.842 4.476,17.344 4.520 M10.723 8.870 C 10.508 8.980,10.352 9.204,10.330 9.434 C 10.294 9.810,10.327 9.855,11.434 10.970 L 12.457 12.000 11.434 13.030 C 10.327 14.145,10.294 14.190,10.330 14.566 C 10.352 14.796,10.508 15.020,10.723 15.130 C 10.876 15.208,11.176 15.222,11.347 15.158 C 11.409 15.135,11.923 14.654,12.490 14.089 L 13.519 13.061 14.530 14.066 C 15.085 14.619,15.598 15.100,15.668 15.136 C 15.997 15.301,16.455 15.161,16.636 14.838 C 16.744 14.647,16.765 14.322,16.681 14.158 C 16.654 14.104,16.170 13.597,15.606 13.030 L 14.581 12.000 15.606 10.970 C 16.170 10.403,16.654 9.896,16.681 9.842 C 16.765 9.678,16.744 9.353,16.636 9.162 C 16.455 8.839,15.997 8.699,15.668 8.864 C 15.598 8.900,15.085 9.381,14.530 9.934 L 13.519 10.939 12.490 9.911 C 11.923 9.346,11.409 8.865,11.347 8.842 C 11.176 8.778,10.876 8.792,10.723 8.870 " stroke="none" fill-rule="evenodd" fill="black"></path></svg>