<svg width="24" height="24" viewBox="0 0 24 24" fill="none" xmlns="http://www.w3.org/2000/svg"><path d="M9.300 2.382 C 7.566 2.467,6.496 2.536,6.269 2.578 C 4.628 2.877,3.247 4.084,2.725 5.675 C 2.553 6.197,2.519 6.550,2.399 8.980 C 2.263 11.743,2.252 12.542,2.343 13.083 C 2.475 13.869,2.857 14.765,3.345 15.432 C 3.611 15.796,8.335 20.553,8.820 20.946 C 10.553 22.348,12.928 22.586,14.880 21.552 C 15.639 21.150,15.805 21.002,18.384 18.423 C 21.147 15.661,21.357 15.417,21.750 14.500 C 22.083 13.725,22.180 13.223,22.180 12.280 C 22.180 11.267,22.062 10.739,21.640 9.860 C 21.260 9.069,21.149 8.944,18.403 6.197 C 16.911 4.705,15.728 3.555,15.540 3.414 C 14.622 2.724,13.732 2.382,12.592 2.281 C 12.343 2.259,12.104 2.243,12.060 2.245 C 12.016 2.248,10.774 2.309,9.300 2.382 M13.180 3.875 C 13.566 3.979,14.066 4.212,14.453 4.470 C 14.828 4.719,19.798 9.668,20.017 10.010 C 20.985 11.521,20.948 13.287,19.917 14.708 C 19.825 14.836,18.658 16.031,17.325 17.364 C 15.313 19.374,14.842 19.825,14.560 20.009 C 13.150 20.929,11.467 20.928,10.040 20.008 C 9.800 19.853,4.966 15.064,4.642 14.660 C 4.065 13.942,3.762 13.072,3.761 12.140 C 3.760 11.898,3.814 10.575,3.881 9.200 C 4.010 6.531,4.032 6.332,4.258 5.821 C 4.525 5.217,5.109 4.624,5.737 4.319 C 6.335 4.029,6.487 4.009,9.100 3.879 C 11.780 3.746,12.698 3.745,13.180 3.875 M9.193 6.518 C 8.202 6.700,7.348 7.318,6.867 8.200 C 6.788 8.343,6.676 8.622,6.617 8.820 C 6.524 9.134,6.510 9.249,6.510 9.720 C 6.510 10.138,6.529 10.329,6.593 10.566 C 6.904 11.726,7.887 12.659,9.048 12.897 C 9.438 12.977,10.037 12.978,10.416 12.900 C 11.633 12.648,12.645 11.648,12.903 10.440 C 12.977 10.096,12.975 9.329,12.899 9.000 C 12.637 7.854,11.709 6.888,10.579 6.583 C 10.300 6.507,9.463 6.468,9.193 6.518 M10.260 8.061 C 10.512 8.131,10.779 8.300,10.996 8.525 C 11.957 9.524,11.408 11.198,10.039 11.443 C 9.266 11.581,8.488 11.173,8.151 10.453 C 8.046 10.229,8.021 10.119,8.007 9.830 C 7.980 9.264,8.124 8.877,8.506 8.496 C 8.974 8.027,9.591 7.875,10.260 8.061 M17.000 12.509 C 16.886 12.529,12.678 16.700,12.569 16.900 C 12.463 17.096,12.481 17.437,12.608 17.629 C 12.801 17.921,13.214 18.039,13.551 17.898 C 13.723 17.826,17.647 13.935,17.842 13.643 C 18.026 13.368,18.001 12.958,17.787 12.725 C 17.609 12.531,17.321 12.452,17.000 12.509 " stroke="none" fill-rule="evenodd" fill="black"></path></svg>