<svg width="24" height="24" viewBox="0 0 24 24" fill="none" xmlns="http://www.w3.org/2000/svg"><path d="M5.611 1.281 C 5.204 1.324,4.952 1.389,4.560 1.548 C 3.294 2.064,2.411 3.258,2.281 4.627 C 2.227 5.201,2.227 15.719,2.281 16.235 C 2.334 16.741,2.414 17.032,2.616 17.460 C 3.127 18.538,4.077 19.280,5.259 19.524 C 5.524 19.579,5.796 19.599,6.280 19.600 C 7.007 19.602,7.349 19.654,7.711 19.820 C 8.025 19.964,8.174 20.093,9.280 21.182 C 10.234 22.121,10.440 22.298,10.787 22.474 C 11.481 22.826,12.612 22.808,13.277 22.434 C 13.633 22.235,13.761 22.121,14.860 21.041 C 15.739 20.176,15.943 19.995,16.180 19.873 C 16.334 19.793,16.532 19.706,16.620 19.680 C 16.708 19.653,17.194 19.618,17.700 19.601 C 18.747 19.565,19.024 19.512,19.597 19.238 C 20.825 18.651,21.591 17.553,21.722 16.191 C 21.751 15.885,21.761 13.930,21.752 10.100 L 21.738 4.460 21.634 4.080 C 21.498 3.589,21.369 3.302,21.103 2.903 C 20.588 2.131,19.755 1.563,18.800 1.335 C 18.519 1.268,18.098 1.263,12.200 1.257 C 8.735 1.253,5.770 1.264,5.611 1.281 M18.572 2.820 C 18.923 2.911,19.251 3.095,19.535 3.361 C 19.858 3.664,20.022 3.916,20.144 4.302 L 20.240 4.603 20.240 10.406 C 20.240 16.841,20.256 16.445,19.976 16.949 C 19.801 17.264,19.392 17.671,19.091 17.830 C 18.641 18.067,18.534 18.087,17.520 18.121 C 16.746 18.147,16.528 18.168,16.285 18.238 C 15.396 18.495,15.086 18.713,13.766 20.015 C 12.791 20.976,12.678 21.075,12.460 21.157 C 12.147 21.275,11.711 21.260,11.440 21.121 C 11.327 21.063,10.882 20.656,10.240 20.023 C 9.154 18.953,8.892 18.738,8.357 18.482 C 7.790 18.211,7.507 18.157,6.460 18.119 C 5.954 18.101,5.468 18.065,5.380 18.039 C 4.655 17.826,4.006 17.168,3.821 16.458 C 3.732 16.116,3.729 4.740,3.818 4.405 C 4.013 3.673,4.668 3.022,5.411 2.822 C 5.734 2.735,18.238 2.733,18.572 2.820 M11.380 4.366 C 11.270 4.387,11.018 4.482,10.820 4.578 C 9.983 4.983,9.424 5.767,9.320 6.682 C 9.172 7.981,9.930 9.153,11.200 9.585 C 11.375 9.645,11.538 9.660,12.000 9.660 C 12.645 9.660,12.796 9.626,13.300 9.366 C 13.647 9.186,14.119 8.726,14.332 8.360 C 14.590 7.915,14.660 7.623,14.658 7.000 C 14.657 6.516,14.645 6.427,14.546 6.140 C 14.251 5.290,13.533 4.613,12.700 4.400 C 12.361 4.313,11.748 4.298,11.380 4.366 M12.413 5.881 C 12.671 5.978,12.956 6.244,13.086 6.511 C 13.211 6.770,13.215 7.221,13.094 7.485 C 12.979 7.736,12.766 7.963,12.533 8.081 C 12.373 8.163,12.283 8.180,12.000 8.180 C 11.587 8.180,11.362 8.083,11.099 7.790 C 10.708 7.356,10.695 6.678,11.068 6.241 C 11.418 5.833,11.923 5.697,12.413 5.881 M10.980 10.542 C 9.498 10.761,8.221 11.553,7.756 12.540 C 7.567 12.941,7.508 13.246,7.531 13.700 C 7.567 14.392,7.835 14.929,8.409 15.460 C 9.270 16.256,10.516 16.680,12.000 16.680 C 13.551 16.680,14.797 16.237,15.658 15.380 C 16.078 14.963,16.257 14.680,16.387 14.232 C 16.836 12.681,15.694 11.211,13.616 10.667 C 13.398 10.610,13.067 10.545,12.881 10.522 C 12.425 10.466,11.423 10.476,10.980 10.542 M13.040 12.056 C 13.570 12.178,14.089 12.402,14.444 12.663 C 14.943 13.029,15.115 13.521,14.902 13.970 C 14.680 14.438,13.875 14.919,12.999 15.107 C 12.525 15.208,11.475 15.208,11.001 15.107 C 10.126 14.919,9.330 14.444,9.094 13.969 C 8.994 13.769,8.996 13.351,9.097 13.161 C 9.349 12.689,10.231 12.186,11.060 12.043 C 11.192 12.020,11.345 11.993,11.400 11.983 C 11.610 11.946,12.789 11.999,13.040 12.056 " stroke="none" fill-rule="evenodd" fill="black"></path></svg>