<svg width="24" height="24" viewBox="0 0 24 24" fill="none" xmlns="http://www.w3.org/2000/svg"><path d="M3.615 2.420 C 3.046 2.543,2.544 2.816,2.140 3.220 C 1.267 4.093,1.012 5.401,1.499 6.502 C 1.552 6.621,2.236 7.744,3.019 8.998 C 3.803 10.252,4.478 11.357,4.521 11.452 C 4.627 11.692,4.658 12.019,4.602 12.291 C 4.562 12.484,4.330 12.879,3.111 14.830 C 2.317 16.100,1.608 17.266,1.535 17.420 C 1.329 17.855,1.265 18.155,1.267 18.680 C 1.270 19.442,1.479 20.018,1.961 20.594 C 2.251 20.940,2.498 21.128,2.949 21.346 C 3.595 21.658,3.240 21.643,9.540 21.631 C 15.854 21.618,15.273 21.648,15.980 21.297 C 16.684 20.946,16.595 21.050,19.511 17.179 C 20.969 15.244,22.243 13.525,22.342 13.360 C 22.667 12.818,22.798 12.191,22.721 11.543 C 22.672 11.130,22.594 10.859,22.448 10.600 C 22.112 9.999,18.083 3.610,17.928 3.432 C 17.661 3.122,17.360 2.902,16.900 2.677 C 16.205 2.338,16.686 2.360,9.887 2.363 C 5.021 2.366,3.813 2.377,3.615 2.420 M16.249 4.011 C 16.417 4.094,16.632 4.239,16.727 4.333 C 16.901 4.506,21.054 11.107,21.179 11.409 C 21.260 11.606,21.259 12.130,21.176 12.373 C 21.132 12.504,20.326 13.607,18.492 16.050 C 17.050 17.969,15.814 19.600,15.745 19.673 C 15.676 19.746,15.468 19.881,15.283 19.973 L 14.946 20.140 9.403 20.140 L 3.860 20.140 3.596 20.011 C 3.274 19.853,3.036 19.605,2.873 19.258 C 2.722 18.935,2.705 18.502,2.830 18.175 C 2.873 18.062,3.550 16.943,4.335 15.688 C 5.119 14.434,5.815 13.292,5.881 13.150 C 6.184 12.504,6.194 11.593,5.908 10.883 C 5.857 10.759,5.176 9.632,4.393 8.379 C 3.610 7.125,2.932 6.025,2.886 5.934 C 2.486 5.139,2.998 4.093,3.891 3.879 C 3.962 3.862,6.703 3.850,9.982 3.854 L 15.944 3.860 16.249 4.011 " stroke="none" fill-rule="evenodd" fill="black"></path></svg>