<svg width="24" height="24" viewBox="0 0 24 24" fill="none" xmlns="http://www.w3.org/2000/svg"><path d="M8.920 2.161 C 7.677 2.223,6.496 2.292,6.296 2.316 C 4.321 2.550,2.718 4.060,2.342 6.043 C 2.255 6.502,2.027 11.226,2.051 12.080 C 2.072 12.802,2.146 13.221,2.358 13.802 C 2.510 14.217,2.830 14.819,3.091 15.180 C 3.394 15.598,8.286 20.495,8.760 20.854 C 9.792 21.636,10.970 22.001,12.285 21.948 C 13.141 21.913,13.849 21.732,14.576 21.362 C 15.331 20.978,15.464 20.859,18.184 18.142 C 20.481 15.847,20.776 15.538,21.013 15.178 C 21.488 14.457,21.761 13.771,21.906 12.940 C 21.985 12.486,21.960 11.371,21.860 10.920 C 21.644 9.941,21.193 9.080,20.486 8.295 C 19.856 7.595,15.519 3.348,15.171 3.090 C 14.760 2.786,13.972 2.394,13.501 2.260 C 12.602 2.003,12.267 1.996,8.920 2.161 M12.893 3.637 C 13.064 3.682,13.349 3.781,13.525 3.857 C 14.185 4.144,14.338 4.278,17.007 6.930 C 18.386 8.299,19.598 9.537,19.701 9.680 C 20.005 10.102,20.229 10.584,20.387 11.160 C 20.442 11.363,20.457 11.565,20.456 12.080 C 20.453 12.818,20.400 13.091,20.145 13.681 C 19.860 14.338,19.780 14.428,17.124 17.085 C 15.581 18.628,14.528 19.651,14.380 19.749 C 13.834 20.113,13.221 20.352,12.602 20.442 C 11.937 20.539,11.059 20.410,10.421 20.121 C 9.780 19.831,9.638 19.704,6.916 16.973 C 4.156 14.203,4.134 14.179,3.841 13.488 C 3.656 13.053,3.560 12.631,3.535 12.140 C 3.505 11.561,3.745 6.595,3.821 6.237 C 4.044 5.173,4.826 4.285,5.844 3.938 C 6.264 3.795,6.580 3.767,9.140 3.639 C 11.694 3.512,12.415 3.511,12.893 3.637 M9.140 6.282 C 8.728 6.327,8.503 6.387,8.177 6.537 C 7.252 6.965,6.537 7.829,6.338 8.760 C 6.255 9.147,6.255 9.852,6.337 10.233 C 6.586 11.387,7.613 12.414,8.767 12.663 C 9.146 12.745,9.854 12.745,10.233 12.663 C 11.387 12.414,12.414 11.387,12.663 10.233 C 12.745 9.854,12.745 9.146,12.663 8.767 C 12.503 8.026,11.974 7.259,11.307 6.804 C 10.707 6.394,9.896 6.198,9.140 6.282 M10.247 7.930 C 10.618 8.113,10.915 8.415,11.092 8.790 C 11.212 9.043,11.220 9.088,11.220 9.500 C 11.220 9.912,11.212 9.957,11.092 10.210 C 10.914 10.586,10.618 10.887,10.245 11.071 C 9.952 11.216,9.932 11.220,9.500 11.220 C 9.068 11.220,9.048 11.216,8.755 11.071 C 8.382 10.887,8.086 10.586,7.908 10.210 C 7.788 9.957,7.780 9.912,7.780 9.500 C 7.780 9.088,7.788 9.043,7.907 8.791 C 8.123 8.335,8.494 8.003,8.979 7.830 C 9.132 7.775,9.272 7.761,9.564 7.770 C 9.914 7.781,9.976 7.796,10.247 7.930 " stroke="none" fill-rule="evenodd" fill="black"></path></svg>