<svg width="24" height="24" viewBox="0 0 24 24" fill="none" xmlns="http://www.w3.org/2000/svg"><path d="M8.080 1.282 C 4.008 1.495,1.895 3.296,1.383 6.991 C 1.270 7.803,1.242 8.816,1.242 12.000 C 1.242 16.504,1.302 17.273,1.760 18.650 C 2.532 20.963,4.206 22.226,7.027 22.622 C 7.786 22.728,8.902 22.759,12.000 22.759 C 15.098 22.759,16.214 22.728,16.973 22.622 C 19.443 22.275,20.996 21.288,21.897 19.490 C 22.379 18.530,22.638 17.369,22.720 15.807 C 22.771 14.838,22.771 9.162,22.720 8.193 C 22.657 6.998,22.521 6.191,22.242 5.356 C 21.632 3.531,20.469 2.367,18.650 1.760 C 17.788 1.473,17.023 1.344,15.806 1.280 C 14.952 1.235,8.952 1.237,8.080 1.282 M16.800 2.854 C 19.586 3.316,20.714 4.454,21.148 7.240 C 21.214 7.661,21.220 8.064,21.220 12.000 C 21.220 15.936,21.214 16.339,21.148 16.760 C 20.712 19.558,19.558 20.712,16.760 21.148 C 16.339 21.214,15.936 21.220,12.000 21.220 C 8.064 21.220,7.661 21.214,7.240 21.148 C 4.450 20.713,3.283 19.551,2.854 16.780 C 2.785 16.335,2.780 15.989,2.780 12.000 C 2.780 7.247,2.776 7.337,3.044 6.288 C 3.557 4.282,4.722 3.274,6.960 2.900 C 7.690 2.777,8.048 2.769,12.200 2.777 C 15.963 2.784,16.422 2.791,16.800 2.854 M9.060 6.717 C 8.960 6.764,8.573 7.120,8.023 7.673 L 7.147 8.554 6.963 8.402 C 6.707 8.189,6.613 8.149,6.381 8.149 C 5.840 8.149,5.489 8.681,5.699 9.184 C 5.778 9.374,6.621 10.219,6.810 10.298 C 7.012 10.383,7.292 10.376,7.472 10.283 C 7.691 10.169,9.983 7.855,10.059 7.671 C 10.172 7.396,10.097 7.011,9.894 6.832 C 9.678 6.639,9.328 6.591,9.060 6.717 M12.214 8.157 C 11.556 8.318,11.423 9.187,12.006 9.520 L 12.180 9.620 14.960 9.620 C 16.489 9.620,17.789 9.606,17.849 9.589 C 18.001 9.547,18.241 9.327,18.306 9.172 C 18.417 8.907,18.361 8.591,18.167 8.386 C 17.922 8.127,18.094 8.141,15.080 8.133 C 13.573 8.130,12.283 8.141,12.214 8.157 M9.060 13.717 C 8.960 13.764,8.573 14.120,8.023 14.673 L 7.147 15.554 6.963 15.402 C 6.707 15.189,6.613 15.149,6.381 15.149 C 5.840 15.149,5.489 15.681,5.699 16.184 C 5.778 16.374,6.621 17.219,6.810 17.298 C 7.012 17.383,7.292 17.376,7.472 17.283 C 7.691 17.169,9.983 14.855,10.059 14.671 C 10.172 14.396,10.097 14.011,9.894 13.832 C 9.678 13.639,9.328 13.591,9.060 13.717 M12.214 15.157 C 11.556 15.318,11.423 16.187,12.006 16.520 L 12.180 16.620 14.960 16.620 C 16.489 16.620,17.789 16.606,17.849 16.589 C 18.001 16.547,18.241 16.327,18.306 16.172 C 18.417 15.907,18.361 15.591,18.167 15.386 C 17.922 15.127,18.094 15.141,15.080 15.133 C 13.573 15.130,12.283 15.141,12.214 15.157 " stroke="none" fill-rule="evenodd" fill="black"></path></svg>