<svg width="24" height="24" viewBox="0 0 24 24" fill="none" xmlns="http://www.w3.org/2000/svg"><path d="M11.660 1.264 C 10.988 1.327,10.423 1.480,9.980 1.717 C 9.665 1.885,3.810 5.698,3.389 6.009 C 1.683 7.268,1.340 9.769,2.637 11.497 C 2.955 11.921,3.281 12.194,4.150 12.768 L 4.880 13.250 4.881 15.675 C 4.882 17.535,4.895 18.170,4.937 18.400 C 5.151 19.588,6.024 20.768,7.084 21.302 C 7.384 21.453,10.733 22.573,11.148 22.661 C 11.509 22.737,12.492 22.737,12.853 22.661 C 13.266 22.573,16.621 21.451,16.919 21.300 C 17.973 20.769,18.849 19.583,19.063 18.400 C 19.105 18.170,19.118 17.536,19.119 15.679 L 19.120 13.257 19.878 12.757 L 20.636 12.257 20.648 13.738 C 20.660 15.208,20.661 15.221,20.753 15.369 C 21.114 15.950,21.981 15.811,22.118 15.150 C 22.150 14.996,22.160 13.995,22.151 11.716 C 22.138 8.550,22.137 8.495,22.051 8.190 C 21.790 7.265,21.291 6.509,20.611 6.010 C 20.317 5.794,14.418 1.922,14.115 1.745 C 13.844 1.588,13.338 1.413,12.955 1.344 C 12.602 1.280,11.930 1.239,11.660 1.264 M12.648 2.803 C 13.026 2.880,13.379 3.037,13.824 3.326 C 16.683 5.185,19.729 7.211,19.900 7.367 C 20.184 7.627,20.390 7.946,20.527 8.338 C 20.624 8.618,20.639 8.720,20.639 9.123 C 20.640 9.628,20.589 9.865,20.399 10.242 C 20.241 10.555,20.003 10.842,19.732 11.048 C 19.311 11.369,13.545 15.131,13.300 15.245 C 12.887 15.438,12.592 15.496,12.020 15.496 C 11.448 15.496,11.153 15.438,10.740 15.245 C 10.608 15.184,9.098 14.218,7.385 13.099 C 3.920 10.837,3.889 10.813,3.601 10.229 C 3.293 9.605,3.252 8.980,3.476 8.332 C 3.614 7.932,3.822 7.618,4.135 7.337 C 4.426 7.076,10.336 3.209,10.740 3.015 C 10.894 2.941,11.137 2.856,11.280 2.825 C 11.595 2.756,12.357 2.744,12.648 2.803 M8.111 15.355 C 9.051 15.968,9.913 16.517,10.028 16.574 C 11.150 17.140,12.891 17.140,14.012 16.574 C 14.127 16.517,14.940 15.998,15.820 15.422 C 16.700 14.845,17.471 14.341,17.532 14.301 L 17.645 14.228 17.631 16.184 C 17.615 18.356,17.620 18.310,17.332 18.840 C 17.080 19.305,16.648 19.757,16.274 19.949 C 16.178 19.998,15.308 20.304,14.340 20.629 L 12.580 21.220 12.000 21.220 L 11.420 21.220 9.660 20.629 C 8.692 20.304,7.822 19.998,7.726 19.949 C 7.325 19.744,6.865 19.244,6.621 18.749 C 6.374 18.248,6.361 18.114,6.361 16.070 C 6.360 15.063,6.369 14.240,6.381 14.240 C 6.392 14.240,7.171 14.742,8.111 15.355 " stroke="none" fill-rule="evenodd" fill="black"></path></svg>