<svg width="24" height="24" viewBox="0 0 24 24" fill="none" xmlns="http://www.w3.org/2000/svg"><path d="M6.363 1.804 C 5.517 1.969,4.790 2.529,4.419 3.300 C 4.323 3.498,4.221 3.777,4.193 3.920 C 4.115 4.303,4.115 19.697,4.193 20.080 C 4.372 20.969,5.125 21.808,6.011 22.109 L 6.340 22.220 10.500 22.232 C 14.839 22.245,15.085 22.238,15.717 22.074 C 17.104 21.714,18.192 20.932,18.989 19.724 C 19.375 19.139,19.657 18.428,19.785 17.718 C 19.887 17.156,19.877 16.223,19.764 15.685 C 19.346 13.703,17.984 12.165,16.090 11.538 L 15.640 11.389 15.910 11.104 C 16.744 10.226,17.235 9.251,17.421 8.101 C 17.490 7.676,17.498 6.874,17.437 6.468 C 17.074 4.052,15.204 2.181,12.791 1.819 C 12.473 1.771,11.859 1.761,9.470 1.764 C 7.859 1.767,6.460 1.784,6.363 1.804 M12.965 3.368 C 14.320 3.738,15.350 4.691,15.792 5.982 C 16.177 7.108,16.011 8.417,15.356 9.414 C 14.786 10.282,14.057 10.810,12.980 11.132 C 12.706 11.214,12.619 11.217,9.170 11.230 L 5.640 11.243 5.640 7.731 L 5.640 4.220 5.754 3.980 C 5.920 3.629,6.231 3.369,6.589 3.283 C 6.675 3.262,8.000 3.250,9.660 3.254 L 12.580 3.262 12.965 3.368 M15.400 12.874 C 17.080 13.390,18.192 14.702,18.355 16.360 C 18.563 18.481,17.072 20.386,14.956 20.703 C 14.622 20.753,13.930 20.760,10.570 20.751 C 6.590 20.740,6.580 20.740,6.395 20.655 C 6.126 20.530,5.900 20.307,5.761 20.030 L 5.640 19.787 5.640 16.273 L 5.640 12.758 10.370 12.770 L 15.100 12.781 15.400 12.874 " stroke="none" fill-rule="evenodd" fill="black"></path></svg>