<svg width="24" height="24" viewBox="0 0 24 24" fill="none" xmlns="http://www.w3.org/2000/svg"><path d="M4.815 2.277 C 4.638 2.321,4.461 2.456,4.353 2.631 L 4.260 2.780 4.248 6.320 C 4.236 10.035,4.257 10.749,4.402 11.501 C 4.578 12.413,5.032 13.519,5.541 14.277 C 6.322 15.440,7.333 16.326,8.580 16.942 C 12.067 18.664,16.275 17.529,18.459 14.277 C 19.169 13.221,19.623 11.873,19.719 10.539 C 19.776 9.749,19.773 3.105,19.716 2.838 C 19.575 2.182,18.713 2.051,18.353 2.631 L 18.260 2.780 18.236 6.820 C 18.221 9.417,18.197 10.931,18.170 11.060 C 17.876 12.448,17.353 13.456,16.449 14.374 C 15.928 14.903,15.448 15.255,14.804 15.578 C 13.899 16.032,13.024 16.239,12.000 16.239 C 10.287 16.239,8.754 15.596,7.551 14.374 C 6.599 13.407,6.025 12.257,5.817 10.900 C 5.773 10.614,5.761 9.770,5.760 6.780 C 5.759 4.344,5.744 2.957,5.717 2.841 C 5.623 2.432,5.215 2.177,4.815 2.277 M4.815 20.278 C 4.331 20.393,4.098 21.004,4.383 21.408 C 4.447 21.499,4.572 21.610,4.660 21.656 L 4.820 21.740 11.880 21.751 C 16.920 21.758,19.001 21.749,19.154 21.717 C 19.902 21.562,19.929 20.473,19.189 20.286 C 18.978 20.233,5.035 20.225,4.815 20.278 " stroke="none" fill-rule="evenodd" fill="black"></path></svg>