<svg width="24" height="24" viewBox="0 0 24 24" fill="none" xmlns="http://www.w3.org/2000/svg"><path d="M2.720 3.805 C 2.458 3.909,2.269 4.200,2.269 4.500 C 2.269 4.807,2.460 5.095,2.733 5.197 C 2.891 5.257,21.109 5.257,21.267 5.197 C 21.540 5.095,21.731 4.807,21.731 4.500 C 21.731 4.193,21.540 3.905,21.267 3.803 C 21.116 3.745,2.864 3.747,2.720 3.805 M6.940 8.835 C 6.750 8.923,6.664 9.012,6.582 9.210 C 6.468 9.483,6.543 9.869,6.746 10.048 C 6.970 10.248,6.763 10.240,12.000 10.240 C 17.237 10.240,17.030 10.248,17.254 10.048 C 17.370 9.946,17.478 9.680,17.478 9.500 C 17.478 9.320,17.370 9.054,17.254 8.952 C 17.030 8.752,17.238 8.760,11.991 8.761 C 7.331 8.762,7.092 8.765,6.940 8.835 M2.720 13.805 C 2.458 13.909,2.269 14.200,2.269 14.500 C 2.269 14.807,2.460 15.095,2.733 15.197 C 2.891 15.257,21.109 15.257,21.267 15.197 C 21.540 15.095,21.731 14.807,21.731 14.500 C 21.731 14.193,21.540 13.905,21.267 13.803 C 21.116 13.745,2.864 13.747,2.720 13.805 M6.940 18.835 C 6.750 18.923,6.664 19.012,6.582 19.210 C 6.468 19.483,6.543 19.869,6.746 20.048 C 6.970 20.248,6.763 20.240,12.000 20.240 C 17.237 20.240,17.030 20.248,17.254 20.048 C 17.370 19.946,17.478 19.680,17.478 19.500 C 17.478 19.320,17.370 19.054,17.254 18.952 C 17.030 18.752,17.238 18.760,11.991 18.761 C 7.331 18.762,7.092 18.765,6.940 18.835 " stroke="none" fill-rule="evenodd" fill="black"></path></svg>