<svg width="24" height="24" viewBox="0 0 24 24" fill="none" xmlns="http://www.w3.org/2000/svg"><path d="M2.720 3.805 C 2.458 3.909,2.269 4.200,2.269 4.500 C 2.269 4.807,2.460 5.095,2.733 5.197 C 2.890 5.257,12.110 5.257,12.267 5.197 C 12.540 5.095,12.731 4.807,12.731 4.500 C 12.731 4.193,12.540 3.905,12.267 3.803 C 12.117 3.746,2.864 3.748,2.720 3.805 M2.720 8.805 C 2.458 8.909,2.269 9.200,2.269 9.500 C 2.269 9.807,2.460 10.095,2.733 10.197 C 2.810 10.227,4.308 10.240,7.500 10.240 C 10.692 10.240,12.190 10.227,12.267 10.197 C 12.540 10.095,12.731 9.807,12.731 9.500 C 12.731 9.193,12.540 8.905,12.267 8.803 C 12.117 8.746,2.864 8.748,2.720 8.805 M2.720 13.805 C 2.458 13.909,2.269 14.200,2.269 14.500 C 2.269 14.807,2.460 15.095,2.733 15.197 C 2.891 15.257,21.109 15.257,21.267 15.197 C 21.540 15.095,21.731 14.807,21.731 14.500 C 21.731 14.193,21.540 13.905,21.267 13.803 C 21.116 13.745,2.864 13.747,2.720 13.805 M2.720 18.805 C 2.458 18.909,2.269 19.200,2.269 19.500 C 2.269 19.807,2.460 20.095,2.733 20.197 C 2.891 20.257,21.109 20.257,21.267 20.197 C 21.540 20.095,21.731 19.807,21.731 19.500 C 21.731 19.193,21.540 18.905,21.267 18.803 C 21.116 18.745,2.864 18.747,2.720 18.805 " stroke="none" fill-rule="evenodd" fill="black"></path></svg>