<svg width="24" height="24" viewBox="0 0 24 24" fill="none" xmlns="http://www.w3.org/2000/svg"><path d="M9.540 2.259 C 9.518 2.267,9.451 2.284,9.391 2.297 C 9.244 2.329,9.001 2.548,8.934 2.708 C 8.823 2.973,8.879 3.289,9.073 3.494 C 9.313 3.748,9.234 3.739,11.350 3.752 C 12.412 3.758,13.279 3.776,13.279 3.792 C 13.278 3.807,12.355 7.510,11.226 12.020 L 9.175 20.220 7.035 20.240 L 4.894 20.260 4.732 20.367 C 4.492 20.526,4.387 20.721,4.387 21.007 C 4.387 21.203,4.406 21.270,4.503 21.408 C 4.568 21.499,4.692 21.610,4.780 21.656 C 4.940 21.740,4.950 21.740,9.720 21.740 C 12.349 21.740,14.548 21.727,14.607 21.710 C 14.865 21.638,15.117 21.292,15.119 21.009 C 15.121 20.747,14.946 20.462,14.700 20.326 C 14.594 20.268,14.357 20.259,12.650 20.248 C 11.588 20.242,10.721 20.224,10.721 20.208 C 10.722 20.193,11.645 16.490,12.774 11.980 L 14.825 3.780 16.942 3.760 L 19.060 3.740 19.240 3.634 C 19.726 3.348,19.726 2.652,19.240 2.366 L 19.060 2.260 14.320 2.253 C 11.713 2.249,9.562 2.252,9.540 2.259 " stroke="none" fill-rule="evenodd" fill="black"></path></svg>