<svg width="24" height="24" viewBox="0 0 24 24" fill="none" xmlns="http://www.w3.org/2000/svg"><path d="M2.720 3.805 C 2.458 3.909,2.269 4.200,2.269 4.500 C 2.269 4.807,2.460 5.095,2.733 5.197 C 2.891 5.257,21.109 5.257,21.267 5.197 C 21.540 5.095,21.731 4.807,21.731 4.500 C 21.731 4.193,21.540 3.905,21.267 3.803 C 21.116 3.745,2.864 3.747,2.720 3.805 M2.720 8.805 C 2.458 8.909,2.269 9.200,2.269 9.500 C 2.269 9.807,2.460 10.095,2.733 10.197 C 2.810 10.227,4.380 10.240,7.744 10.240 C 12.481 10.240,12.648 10.237,12.792 10.164 C 13.074 10.019,13.200 9.814,13.200 9.500 C 13.200 9.186,13.074 8.981,12.792 8.836 C 12.648 8.762,12.483 8.760,7.732 8.763 C 4.577 8.764,2.784 8.779,2.720 8.805 M2.720 13.805 C 2.458 13.909,2.269 14.200,2.269 14.500 C 2.269 14.807,2.460 15.095,2.733 15.197 C 2.891 15.257,21.109 15.257,21.267 15.197 C 21.540 15.095,21.731 14.807,21.731 14.500 C 21.731 14.193,21.540 13.905,21.267 13.803 C 21.116 13.745,2.864 13.747,2.720 13.805 M2.720 18.805 C 2.458 18.909,2.269 19.200,2.269 19.500 C 2.269 19.807,2.460 20.095,2.733 20.197 C 2.810 20.227,4.380 20.240,7.744 20.240 C 12.481 20.240,12.648 20.237,12.792 20.164 C 13.074 20.019,13.200 19.814,13.200 19.500 C 13.200 19.186,13.074 18.981,12.792 18.836 C 12.648 18.762,12.483 18.760,7.732 18.763 C 4.577 18.764,2.784 18.779,2.720 18.805 " stroke="none" fill-rule="evenodd" fill="black"></path></svg>