<svg width="24" height="24" viewBox="0 0 24 24" fill="none" xmlns="http://www.w3.org/2000/svg"><path d="M8.080 1.282 C 4.008 1.495,1.895 3.296,1.383 6.991 C 1.270 7.803,1.242 8.816,1.242 12.000 C 1.242 16.504,1.302 17.273,1.760 18.650 C 2.532 20.963,4.206 22.226,7.027 22.622 C 7.786 22.728,8.902 22.759,12.000 22.759 C 15.098 22.759,16.214 22.728,16.973 22.622 C 19.443 22.275,20.996 21.288,21.897 19.490 C 22.379 18.530,22.638 17.369,22.720 15.807 C 22.771 14.838,22.771 9.162,22.720 8.193 C 22.657 6.998,22.521 6.191,22.242 5.356 C 21.632 3.531,20.469 2.367,18.650 1.760 C 17.788 1.473,17.023 1.344,15.806 1.280 C 14.952 1.235,8.952 1.237,8.080 1.282 M16.800 2.854 C 19.586 3.316,20.714 4.454,21.148 7.240 C 21.214 7.661,21.220 8.064,21.220 12.000 C 21.220 15.936,21.214 16.339,21.148 16.760 C 20.712 19.558,19.558 20.712,16.760 21.148 C 16.339 21.214,15.936 21.220,12.000 21.220 C 8.064 21.220,7.661 21.214,7.240 21.148 C 4.450 20.713,3.283 19.551,2.854 16.780 C 2.785 16.335,2.780 15.989,2.780 12.000 C 2.780 7.247,2.776 7.337,3.044 6.288 C 3.557 4.282,4.722 3.274,6.960 2.900 C 7.690 2.777,8.048 2.769,12.200 2.777 C 15.963 2.784,16.422 2.791,16.800 2.854 M11.122 7.004 C 9.826 7.097,8.449 7.435,7.258 7.951 C 6.621 8.227,6.455 8.334,6.353 8.532 C 6.248 8.734,6.239 9.045,6.333 9.226 C 6.468 9.488,6.797 9.667,7.075 9.630 C 7.155 9.619,7.420 9.519,7.664 9.407 C 8.692 8.938,9.871 8.619,11.009 8.503 L 11.238 8.480 11.249 12.490 C 11.261 16.909,11.243 16.598,11.506 16.847 C 11.783 17.109,12.217 17.109,12.494 16.847 C 12.757 16.598,12.739 16.909,12.751 12.490 L 12.762 8.480 12.991 8.503 C 14.131 8.619,15.315 8.939,16.336 9.408 C 16.872 9.654,17.067 9.683,17.319 9.553 C 17.717 9.347,17.853 8.894,17.630 8.514 C 17.508 8.305,17.273 8.165,16.540 7.867 C 14.795 7.158,12.990 6.870,11.122 7.004 " stroke="none" fill-rule="evenodd" fill="black"></path></svg>