<svg width="24" height="24" viewBox="0 0 24 24" fill="none" xmlns="http://www.w3.org/2000/svg"><path d="M6.020 3.280 C 4.620 3.356,3.680 3.603,2.960 4.084 C 2.201 4.592,1.714 5.369,1.476 6.450 C 1.365 6.956,1.280 7.749,1.280 8.280 C 1.280 8.798,1.318 8.903,1.578 9.101 C 1.700 9.194,1.780 9.216,2.091 9.245 C 2.601 9.291,2.809 9.344,3.180 9.522 C 4.264 10.042,4.881 11.181,4.720 12.363 C 4.632 13.001,4.398 13.468,3.934 13.934 C 3.431 14.438,2.877 14.687,2.108 14.755 C 1.759 14.786,1.700 14.803,1.568 14.909 C 1.308 15.119,1.272 15.220,1.277 15.735 C 1.282 16.272,1.368 17.059,1.476 17.550 C 1.877 19.372,2.956 20.318,4.975 20.618 C 5.845 20.747,6.924 20.766,12.600 20.748 C 16.471 20.736,18.296 20.717,18.560 20.685 C 19.804 20.533,20.575 20.274,21.215 19.793 C 21.955 19.237,22.418 18.308,22.628 16.960 C 22.694 16.538,22.700 16.130,22.700 12.000 C 22.700 7.870,22.694 7.462,22.628 7.040 C 22.519 6.340,22.380 5.864,22.142 5.380 C 21.527 4.126,20.539 3.556,18.560 3.315 C 18.118 3.262,6.947 3.230,6.020 3.280 M8.248 6.253 L 8.260 7.746 8.356 7.887 C 8.524 8.132,8.696 8.220,9.003 8.220 C 9.244 8.220,9.289 8.207,9.426 8.097 C 9.723 7.860,9.720 7.880,9.720 6.228 L 9.720 4.756 14.090 4.770 C 18.039 4.783,18.497 4.791,18.840 4.854 C 20.423 5.145,20.928 5.692,21.169 7.380 C 21.243 7.900,21.243 16.100,21.169 16.620 C 20.928 18.305,20.420 18.856,18.840 19.146 C 18.497 19.209,18.039 19.217,14.090 19.230 L 9.720 19.244 9.720 17.772 C 9.720 16.120,9.723 16.140,9.426 15.903 C 9.289 15.793,9.244 15.780,9.003 15.780 C 8.696 15.780,8.524 15.868,8.356 16.113 L 8.260 16.254 8.248 17.751 L 8.236 19.249 6.888 19.229 C 5.216 19.205,4.743 19.137,4.060 18.821 C 3.570 18.594,3.268 18.244,3.053 17.653 C 2.951 17.372,2.800 16.577,2.800 16.322 L 2.800 16.173 3.122 16.087 C 4.447 15.732,5.559 14.682,6.014 13.357 C 6.523 11.872,6.131 10.152,5.028 9.033 C 4.521 8.518,3.802 8.092,3.148 7.920 L 2.800 7.828 2.800 7.678 C 2.800 7.595,2.835 7.322,2.878 7.071 C 3.124 5.631,3.690 5.088,5.180 4.862 C 5.748 4.776,5.775 4.774,7.068 4.767 L 8.236 4.760 8.248 6.253 M14.253 8.426 C 13.913 8.546,13.741 8.754,13.401 9.459 L 13.089 10.104 12.534 10.178 C 12.229 10.218,11.884 10.276,11.767 10.306 C 11.238 10.442,10.904 10.881,10.904 11.441 C 10.904 11.855,11.023 12.054,11.615 12.630 L 12.109 13.111 11.992 13.765 C 11.864 14.485,11.866 14.737,12.001 15.002 C 12.217 15.426,12.584 15.652,13.050 15.649 C 13.330 15.648,13.354 15.639,13.999 15.309 L 14.660 14.970 15.321 15.309 C 15.966 15.639,15.990 15.648,16.270 15.649 C 16.748 15.652,17.137 15.404,17.328 14.972 C 17.454 14.687,17.454 14.472,17.329 13.770 L 17.213 13.120 17.708 12.630 C 18.317 12.029,18.421 11.849,18.419 11.400 C 18.417 11.145,18.399 11.068,18.300 10.886 C 18.157 10.625,17.933 10.425,17.688 10.342 C 17.588 10.308,17.224 10.241,16.880 10.193 L 16.253 10.105 15.926 9.455 C 15.565 8.738,15.398 8.541,15.051 8.423 C 14.823 8.346,14.476 8.347,14.253 8.426 M14.864 10.685 C 15.217 11.366,15.388 11.484,16.198 11.600 C 16.362 11.624,16.505 11.652,16.516 11.663 C 16.527 11.673,16.388 11.823,16.209 11.994 C 15.709 12.471,15.628 12.728,15.754 13.440 C 15.795 13.671,15.826 13.864,15.823 13.868 C 15.820 13.873,15.621 13.778,15.382 13.658 C 14.976 13.455,14.927 13.440,14.660 13.440 C 14.393 13.440,14.344 13.455,13.938 13.658 C 13.699 13.778,13.500 13.873,13.495 13.868 C 13.491 13.864,13.514 13.725,13.545 13.560 C 13.577 13.395,13.604 13.133,13.606 12.978 C 13.611 12.600,13.489 12.362,13.091 11.972 C 12.925 11.810,12.796 11.671,12.805 11.663 C 12.813 11.655,13.007 11.618,13.235 11.582 C 13.969 11.466,14.105 11.372,14.418 10.761 C 14.542 10.518,14.651 10.320,14.660 10.320 C 14.669 10.320,14.761 10.484,14.864 10.685 " stroke="none" fill-rule="evenodd" fill="black"></path></svg>