<svg width="24" height="24" viewBox="0 0 24 24" fill="none" xmlns="http://www.w3.org/2000/svg"><path d="M6.009 3.282 C 4.602 3.361,3.702 3.597,2.971 4.079 C 1.764 4.874,1.286 6.209,1.266 8.839 C 1.260 9.762,1.264 9.786,1.475 10.013 C 1.629 10.179,1.688 10.202,2.118 10.258 C 2.611 10.322,2.890 10.448,3.202 10.745 C 3.910 11.420,3.932 12.492,3.255 13.202 C 2.942 13.530,2.640 13.674,2.126 13.741 C 1.688 13.798,1.629 13.820,1.475 13.987 C 1.264 14.214,1.260 14.238,1.266 15.161 C 1.283 17.435,1.626 18.664,2.481 19.519 C 3.149 20.188,4.044 20.531,5.520 20.687 C 6.247 20.764,17.753 20.764,18.480 20.687 C 20.259 20.499,21.274 20.010,21.921 19.029 C 22.424 18.264,22.635 17.427,22.721 15.842 C 22.772 14.893,22.745 14.705,22.523 14.483 C 22.365 14.325,22.132 14.240,21.858 14.240 C 21.625 14.240,21.300 14.127,21.045 13.957 C 20.123 13.341,19.989 12.051,20.767 11.276 C 21.113 10.931,21.357 10.826,22.052 10.726 C 22.368 10.680,22.549 10.564,22.664 10.332 C 22.733 10.194,22.740 10.084,22.736 9.100 C 22.728 7.072,22.530 5.978,22.015 5.110 C 21.396 4.067,20.374 3.536,18.560 3.315 C 18.107 3.260,6.921 3.230,6.009 3.282 M18.920 4.867 C 19.648 5.009,20.196 5.246,20.478 5.539 C 20.783 5.855,21.021 6.438,21.142 7.160 C 21.179 7.381,21.215 7.918,21.228 8.441 L 21.251 9.342 21.036 9.397 C 20.279 9.591,19.453 10.309,19.075 11.100 C 18.834 11.603,18.781 11.856,18.781 12.500 C 18.781 13.144,18.834 13.397,19.075 13.900 C 19.452 14.691,20.279 15.409,21.035 15.602 L 21.249 15.657 21.222 16.059 C 21.143 17.252,20.900 18.019,20.466 18.451 C 20.111 18.806,19.624 19.010,18.815 19.147 C 18.406 19.216,17.998 19.220,12.000 19.220 C 5.977 19.220,5.595 19.216,5.180 19.146 C 4.424 19.019,3.818 18.768,3.522 18.461 C 3.070 17.992,2.822 17.117,2.773 15.817 L 2.748 15.174 3.033 15.082 C 3.909 14.801,4.757 13.968,5.061 13.092 C 5.300 12.404,5.300 11.596,5.061 10.908 C 4.757 10.032,3.909 9.199,3.033 8.918 L 2.748 8.826 2.773 8.183 C 2.822 6.883,3.070 6.008,3.522 5.539 C 3.889 5.157,4.705 4.881,5.740 4.787 C 5.828 4.779,8.735 4.775,12.200 4.779 C 18.377 4.785,18.508 4.787,18.920 4.867 M14.720 8.063 C 14.559 8.132,8.434 14.226,8.332 14.419 C 8.297 14.485,8.269 14.632,8.269 14.746 C 8.269 15.337,8.908 15.686,9.402 15.364 C 9.646 15.206,15.575 9.254,15.662 9.081 C 15.748 8.908,15.752 8.578,15.670 8.419 C 15.489 8.072,15.068 7.914,14.720 8.063 M8.800 8.277 C 8.188 8.404,7.831 9.083,8.083 9.640 C 8.193 9.882,8.340 10.031,8.580 10.145 C 9.062 10.373,9.639 10.177,9.892 9.700 C 10.004 9.489,10.012 9.045,9.908 8.836 C 9.706 8.430,9.226 8.188,8.800 8.277 M14.580 13.855 C 13.804 14.222,13.814 15.305,14.597 15.652 C 15.081 15.866,15.667 15.648,15.908 15.164 C 16.012 14.955,16.004 14.511,15.892 14.300 C 15.639 13.823,15.062 13.627,14.580 13.855 " stroke="none" fill-rule="evenodd" fill="black"></path></svg>