<svg width="24" height="24" viewBox="0 0 24 24" fill="none" xmlns="http://www.w3.org/2000/svg"><path d="M11.560 1.266 C 7.679 1.446,4.232 3.654,2.455 7.099 C 1.644 8.673,1.274 10.199,1.272 11.980 C 1.271 13.123,1.395 14.009,1.702 15.050 C 2.716 18.488,5.522 21.294,8.950 22.297 C 10.643 22.792,12.526 22.871,14.196 22.516 C 17.361 21.844,20.059 19.782,21.545 16.901 C 22.360 15.319,22.728 13.798,22.728 12.000 C 22.728 10.863,22.607 10.010,22.297 8.950 C 21.294 5.522,18.478 2.706,15.050 1.703 C 13.940 1.378,12.644 1.216,11.560 1.266 M13.148 2.822 C 15.227 3.094,17.028 3.984,18.522 5.478 C 19.361 6.317,19.965 7.182,20.431 8.214 C 20.982 9.433,21.240 10.640,21.240 12.000 C 21.240 13.360,20.982 14.567,20.431 15.786 C 19.965 16.818,19.361 17.683,18.522 18.522 C 17.683 19.361,16.818 19.965,15.786 20.431 C 14.567 20.982,13.360 21.240,12.000 21.240 C 10.640 21.240,9.433 20.982,8.214 20.431 C 7.182 19.965,6.317 19.361,5.478 18.522 C 3.695 16.739,2.760 14.495,2.760 12.000 C 2.760 9.505,3.695 7.261,5.478 5.478 C 6.960 3.996,8.756 3.104,10.821 2.822 C 11.380 2.746,12.569 2.746,13.148 2.822 M15.920 8.503 C 15.831 8.542,14.836 9.507,13.180 11.162 L 10.579 13.760 9.440 12.617 C 8.813 11.989,8.222 11.428,8.127 11.372 C 7.923 11.251,7.608 11.232,7.419 11.330 C 7.060 11.517,6.910 11.943,7.077 12.300 C 7.169 12.498,10.126 15.456,10.293 15.518 C 10.438 15.572,10.723 15.572,10.867 15.518 C 10.978 15.476,16.632 9.877,16.849 9.595 C 17.044 9.340,17.038 8.960,16.834 8.701 C 16.646 8.462,16.227 8.371,15.920 8.503 " stroke="none" fill-rule="evenodd" fill="black"></path></svg>