<svg width="24" height="24" viewBox="0 0 24 24" fill="none" xmlns="http://www.w3.org/2000/svg"><path d="M7.740 3.296 C 7.342 3.428,4.563 4.592,4.060 4.838 C 1.424 6.128,0.770 7.583,1.604 10.300 C 1.762 10.813,2.179 11.891,2.303 12.106 C 2.486 12.423,2.861 12.514,3.354 12.359 C 3.795 12.221,4.206 12.268,4.644 12.506 C 5.184 12.800,5.531 13.517,5.435 14.140 C 5.355 14.659,5.024 15.105,4.535 15.353 C 3.954 15.648,3.878 15.943,4.184 16.716 C 4.652 17.898,5.272 18.979,5.805 19.540 C 6.367 20.132,6.944 20.448,7.700 20.580 C 7.951 20.624,18.282 20.603,18.740 20.557 C 19.329 20.499,19.789 20.415,20.165 20.296 C 21.589 19.847,22.351 18.871,22.620 17.153 C 22.689 16.713,22.749 15.201,22.705 15.024 C 22.667 14.874,22.418 14.612,22.267 14.564 C 22.197 14.542,21.996 14.505,21.820 14.481 C 21.263 14.406,20.834 14.100,20.588 13.601 C 20.470 13.361,20.460 13.311,20.460 12.941 C 20.460 12.574,20.471 12.518,20.585 12.280 C 20.822 11.785,21.245 11.475,21.790 11.395 C 21.938 11.373,22.116 11.347,22.183 11.337 C 22.360 11.311,22.629 11.067,22.684 10.883 C 22.715 10.777,22.723 10.353,22.709 9.476 C 22.689 8.182,22.651 7.788,22.483 7.130 C 22.096 5.618,21.120 4.771,19.430 4.482 C 18.637 4.346,17.515 4.314,14.040 4.327 C 10.561 4.341,10.710 4.332,10.486 4.535 C 10.265 4.735,10.262 4.759,10.240 6.173 L 10.220 7.487 9.483 5.693 C 8.668 3.711,8.628 3.621,8.505 3.486 C 8.324 3.287,8.007 3.208,7.740 3.296 M8.910 8.230 L 10.239 11.460 10.250 12.783 L 10.260 14.106 10.370 14.272 C 10.620 14.650,11.167 14.716,11.494 14.407 C 11.745 14.170,11.730 14.462,11.724 9.951 L 11.719 5.836 15.230 5.850 C 18.338 5.862,18.783 5.872,19.113 5.933 C 20.721 6.229,21.154 6.887,21.226 9.145 L 21.252 9.949 20.990 10.037 C 20.091 10.336,19.279 11.212,19.038 12.143 C 18.935 12.542,18.925 13.255,19.016 13.649 C 19.244 14.630,20.040 15.504,21.011 15.837 L 21.220 15.909 21.208 16.245 C 21.183 16.931,21.003 17.723,20.791 18.080 C 20.671 18.281,20.406 18.548,20.216 18.660 C 19.982 18.798,19.499 18.952,19.069 19.027 C 18.754 19.082,18.185 19.094,15.212 19.108 L 11.723 19.125 11.712 17.849 L 11.700 16.574 11.585 16.422 C 11.231 15.959,10.531 16.061,10.302 16.609 C 10.251 16.732,10.240 16.963,10.240 17.939 L 10.240 19.120 9.110 19.120 C 8.281 19.119,7.925 19.104,7.774 19.064 C 7.086 18.881,6.598 18.339,5.976 17.067 L 5.668 16.435 5.824 16.308 C 6.308 15.912,6.650 15.371,6.865 14.660 C 6.918 14.484,6.937 14.287,6.937 13.920 C 6.938 13.320,6.879 13.072,6.601 12.499 C 6.087 11.437,5.038 10.796,3.812 10.794 L 3.363 10.793 3.277 10.567 C 2.703 9.054,2.614 8.122,2.984 7.490 C 3.241 7.050,3.788 6.639,4.723 6.182 C 5.284 5.907,7.416 5.009,7.520 5.004 C 7.563 5.002,7.964 5.933,8.910 8.230 " stroke="none" fill-rule="evenodd" fill="black"></path></svg>