<svg width="24" height="24" viewBox="0 0 24 24" fill="none" xmlns="http://www.w3.org/2000/svg"><path d="M12.740 1.280 C 11.982 1.370,11.305 1.707,10.429 2.429 C 10.226 2.596,9.322 3.466,8.420 4.361 L 6.780 5.990 6.220 6.014 C 3.940 6.111,2.645 6.883,2.128 8.451 C 1.869 9.237,1.787 9.878,1.783 11.163 L 1.780 12.146 1.893 12.294 C 2.061 12.515,2.161 12.563,2.589 12.625 C 3.070 12.696,3.337 12.819,3.619 13.101 C 4.100 13.582,4.229 14.280,3.949 14.891 C 3.818 15.177,3.462 15.536,3.182 15.664 C 3.052 15.724,2.801 15.788,2.579 15.819 C 2.140 15.881,1.975 15.976,1.834 16.251 C 1.753 16.411,1.750 16.455,1.771 17.399 C 1.809 19.132,2.025 20.092,2.550 20.865 C 3.160 21.763,4.114 22.228,5.720 22.408 C 6.387 22.483,17.373 22.483,18.040 22.408 C 19.911 22.198,20.938 21.585,21.499 20.345 C 21.828 19.616,22.031 18.325,21.994 17.194 C 21.982 16.829,21.967 16.755,21.884 16.633 C 21.721 16.396,21.569 16.320,21.181 16.280 C 20.740 16.235,20.415 16.087,20.137 15.808 C 19.194 14.857,19.749 13.281,21.085 13.118 C 21.247 13.098,21.425 13.071,21.480 13.058 C 21.649 13.017,21.846 12.838,21.930 12.646 C 22.007 12.472,22.010 12.407,21.989 11.321 C 21.956 9.661,21.824 8.824,21.479 8.088 C 20.838 6.721,19.647 6.098,17.520 6.017 C 16.786 5.989,16.760 5.984,16.760 5.861 C 16.760 5.542,16.853 5.331,17.219 4.826 C 17.339 4.660,17.360 4.599,17.360 4.414 C 17.360 4.279,17.331 4.141,17.284 4.048 C 17.140 3.769,15.681 2.400,15.103 2.002 C 14.289 1.442,13.474 1.193,12.740 1.280 M13.761 2.950 C 14.184 3.157,14.653 3.511,15.213 4.046 L 15.646 4.460 15.545 4.665 C 15.413 4.934,15.318 5.311,15.290 5.670 L 15.268 5.960 12.105 5.960 L 8.941 5.960 9.900 4.998 C 11.741 3.153,12.334 2.740,13.101 2.771 C 13.382 2.783,13.465 2.806,13.761 2.950 M9.128 9.717 L 9.140 11.953 9.261 12.125 C 9.430 12.365,9.598 12.453,9.886 12.453 C 10.083 12.453,10.150 12.434,10.288 12.337 C 10.379 12.273,10.490 12.148,10.536 12.060 C 10.618 11.904,10.620 11.842,10.632 9.688 L 10.643 7.476 14.312 7.492 C 18.188 7.509,18.213 7.510,18.865 7.700 C 20.049 8.044,20.454 8.874,20.489 11.034 L 20.500 11.688 20.280 11.757 C 19.339 12.054,18.554 12.878,18.272 13.868 C 18.165 14.242,18.147 15.041,18.237 15.397 C 18.493 16.415,19.279 17.282,20.236 17.605 L 20.480 17.687 20.480 17.934 C 20.480 18.276,20.406 18.844,20.315 19.200 C 20.101 20.039,19.709 20.478,18.960 20.716 C 18.273 20.934,18.304 20.932,14.330 20.949 L 10.640 20.964 10.640 18.864 C 10.640 17.481,10.625 16.693,10.596 16.558 C 10.456 15.908,9.590 15.777,9.233 16.351 L 9.140 16.500 9.128 18.733 L 9.117 20.967 7.448 20.950 C 6.067 20.936,5.715 20.921,5.400 20.862 C 4.948 20.777,4.546 20.646,4.308 20.507 C 3.628 20.108,3.299 19.208,3.268 17.666 L 3.260 17.232 3.486 17.162 C 3.975 17.009,4.543 16.609,4.908 16.159 C 5.155 15.856,5.406 15.368,5.506 15.000 C 5.603 14.639,5.603 13.799,5.505 13.440 C 5.241 12.473,4.463 11.627,3.540 11.304 C 3.360 11.242,3.255 11.182,3.246 11.138 C 3.218 10.999,3.327 9.846,3.404 9.461 C 3.557 8.707,3.852 8.204,4.296 7.945 C 4.641 7.742,5.334 7.566,6.020 7.507 C 6.108 7.500,6.841 7.490,7.648 7.487 L 9.117 7.480 9.128 9.717 " stroke="none" fill-rule="evenodd" fill="black"></path></svg>