<svg width="24" height="24" viewBox="0 0 24 24" fill="none" xmlns="http://www.w3.org/2000/svg"><path d="M8.815 1.278 C 8.331 1.393,8.098 2.004,8.383 2.408 C 8.447 2.499,8.572 2.610,8.660 2.656 C 8.818 2.739,8.865 2.740,11.878 2.751 C 14.020 2.759,15.000 2.749,15.151 2.718 C 15.902 2.562,15.931 1.473,15.189 1.286 C 14.979 1.234,9.033 1.226,8.815 1.278 M11.020 3.804 C 7.310 4.187,4.151 6.739,2.979 10.300 C 2.626 11.372,2.498 12.297,2.531 13.535 C 2.572 15.037,2.869 16.217,3.538 17.540 C 4.920 20.271,7.517 22.153,10.573 22.639 C 11.056 22.716,11.963 22.758,12.174 22.713 C 12.723 22.596,12.924 21.884,12.522 21.482 C 12.341 21.301,12.129 21.240,11.684 21.240 C 11.507 21.240,11.161 21.212,10.914 21.177 C 8.291 20.812,6.016 19.175,4.837 16.805 C 3.633 14.384,3.736 11.529,5.113 9.171 C 5.556 8.414,6.437 7.424,7.147 6.888 C 9.272 5.283,12.002 4.826,14.500 5.657 C 15.753 6.074,16.710 6.665,17.642 7.598 C 18.352 8.307,18.811 8.954,19.230 9.834 C 19.698 10.815,20.000 12.079,20.000 13.053 C 20.000 13.456,20.035 13.558,20.242 13.765 C 20.394 13.918,20.466 13.959,20.619 13.982 C 20.959 14.033,21.253 13.888,21.401 13.598 C 21.501 13.401,21.508 12.804,21.418 12.079 C 20.874 7.679,17.351 4.245,12.926 3.802 C 12.452 3.754,11.491 3.755,11.020 3.804 M11.815 7.277 C 11.638 7.321,11.461 7.456,11.353 7.631 L 11.260 7.780 11.260 10.500 L 11.260 13.220 11.353 13.369 C 11.710 13.943,12.576 13.812,12.716 13.162 C 12.775 12.888,12.775 8.095,12.717 7.841 C 12.623 7.432,12.215 7.177,11.815 7.277 M15.665 15.042 C 15.175 15.165,14.658 15.602,14.425 16.089 C 14.184 16.594,14.160 16.809,14.160 18.500 C 14.160 20.178,14.183 20.397,14.417 20.900 C 14.900 21.940,16.067 22.299,17.220 21.763 C 17.608 21.583,19.484 20.498,19.824 20.257 C 20.546 19.747,20.923 18.968,20.806 18.232 C 20.691 17.509,20.265 16.994,19.320 16.433 C 18.020 15.662,17.203 15.212,16.939 15.123 C 16.626 15.018,15.937 14.974,15.665 15.042 M16.560 16.583 C 16.681 16.639,17.256 16.958,17.839 17.293 C 19.184 18.065,19.406 18.264,19.314 18.620 C 19.256 18.842,18.962 19.062,17.860 19.703 C 16.553 20.463,16.438 20.519,16.186 20.520 C 16.020 20.520,15.973 20.501,15.861 20.389 C 15.652 20.180,15.633 20.002,15.647 18.371 C 15.659 17.067,15.667 16.927,15.735 16.789 C 15.897 16.464,16.161 16.398,16.560 16.583 " stroke="none" fill-rule="evenodd" fill="black"></path></svg>