<svg width="24" height="24" viewBox="0 0 24 24" fill="none" xmlns="http://www.w3.org/2000/svg"><path d="M8.815 1.278 C 8.331 1.393,8.098 2.004,8.383 2.408 C 8.447 2.499,8.572 2.610,8.660 2.656 C 8.818 2.739,8.865 2.740,11.878 2.751 C 14.020 2.759,15.000 2.749,15.151 2.718 C 15.902 2.562,15.931 1.473,15.189 1.286 C 14.979 1.234,9.033 1.226,8.815 1.278 M11.020 3.804 C 7.310 4.187,4.151 6.739,2.979 10.300 C 2.626 11.372,2.498 12.297,2.531 13.535 C 2.572 15.037,2.869 16.217,3.538 17.540 C 4.972 20.373,7.736 22.303,10.900 22.682 C 11.414 22.743,12.586 22.743,13.100 22.682 C 14.871 22.470,16.604 21.738,17.980 20.620 C 19.768 19.168,20.970 17.107,21.364 14.820 C 21.471 14.202,21.510 12.908,21.443 12.272 C 20.963 7.775,17.422 4.253,12.926 3.802 C 12.452 3.754,11.491 3.755,11.020 3.804 M12.743 5.283 C 14.231 5.428,15.658 5.985,16.853 6.888 C 17.274 7.206,18.035 7.967,18.355 8.391 C 19.981 10.543,20.426 13.245,19.577 15.799 C 18.624 18.662,16.095 20.758,13.086 21.177 C 12.507 21.258,11.493 21.258,10.914 21.177 C 8.291 20.812,6.016 19.175,4.837 16.805 C 3.633 14.384,3.736 11.529,5.113 9.171 C 5.556 8.414,6.437 7.424,7.147 6.888 C 8.759 5.671,10.779 5.091,12.743 5.283 M11.815 7.277 C 11.638 7.321,11.461 7.456,11.353 7.631 L 11.260 7.780 11.260 10.500 L 11.260 13.220 11.353 13.369 C 11.710 13.943,12.576 13.812,12.716 13.162 C 12.775 12.888,12.775 8.095,12.717 7.841 C 12.623 7.432,12.215 7.177,11.815 7.277 " stroke="none" fill-rule="evenodd" fill="black"></path></svg>