<svg width="24" height="24" viewBox="0 0 24 24" fill="none" xmlns="http://www.w3.org/2000/svg"><path d="M8.194 1.283 C 6.547 1.419,5.361 2.243,4.916 3.560 C 4.805 3.889,4.785 4.010,4.769 4.463 C 4.755 4.859,4.767 5.068,4.818 5.323 C 4.957 6.008,5.294 6.702,5.765 7.272 C 5.899 7.435,7.081 8.542,8.433 9.770 C 9.768 10.982,10.863 11.985,10.867 11.997 C 10.871 12.010,9.778 13.014,8.438 14.229 C 7.082 15.460,5.897 16.567,5.763 16.729 C 5.294 17.298,4.957 17.993,4.818 18.677 C 4.767 18.932,4.755 19.141,4.769 19.537 C 4.785 19.990,4.805 20.111,4.916 20.440 C 5.370 21.784,6.534 22.576,8.263 22.719 C 8.884 22.771,15.116 22.771,15.737 22.719 C 17.466 22.576,18.630 21.784,19.084 20.440 C 19.195 20.111,19.215 19.990,19.231 19.537 C 19.245 19.141,19.233 18.932,19.182 18.677 C 19.043 17.992,18.706 17.298,18.235 16.727 C 18.100 16.564,16.919 15.458,15.567 14.229 C 14.232 13.016,13.140 12.013,13.140 12.000 C 13.140 11.987,14.232 10.984,15.567 9.771 C 16.919 8.542,18.100 7.436,18.235 7.273 C 18.706 6.702,19.043 6.008,19.182 5.323 C 19.233 5.068,19.245 4.859,19.231 4.463 C 19.215 4.010,19.195 3.889,19.084 3.560 C 18.630 2.216,17.466 1.424,15.737 1.281 C 15.174 1.234,8.762 1.236,8.194 1.283 M16.260 2.851 C 16.837 3.019,17.310 3.348,17.542 3.741 C 17.939 4.413,17.764 5.461,17.119 6.277 C 16.957 6.482,12.062 10.960,12.000 10.960 C 11.938 10.960,7.043 6.482,6.881 6.277 C 6.511 5.809,6.291 5.271,6.253 4.740 C 6.193 3.907,6.620 3.269,7.450 2.952 C 7.936 2.767,7.951 2.766,12.100 2.774 C 15.700 2.781,16.040 2.787,16.260 2.851 M14.495 15.279 C 15.849 16.511,17.029 17.610,17.119 17.723 C 17.764 18.539,17.939 19.587,17.542 20.259 C 17.305 20.660,16.820 20.993,16.240 21.150 C 16.000 21.215,15.674 21.220,12.000 21.220 C 8.326 21.220,8.000 21.215,7.760 21.150 C 7.180 20.993,6.695 20.660,6.458 20.259 C 6.065 19.593,6.232 18.550,6.861 17.749 C 7.034 17.530,11.933 13.040,12.000 13.040 C 12.018 13.040,13.141 14.048,14.495 15.279 " stroke="none" fill-rule="evenodd" fill="black"></path></svg>