<svg width="24" height="24" viewBox="0 0 24 24" fill="none" xmlns="http://www.w3.org/2000/svg"><path d="M9.360 3.280 C 6.569 3.475,4.001 5.042,2.536 7.443 C 1.923 8.446,1.520 9.572,1.339 10.780 C 1.249 11.376,1.249 12.624,1.339 13.220 C 1.664 15.389,2.750 17.350,4.368 18.689 C 5.430 19.567,6.638 20.181,7.923 20.494 C 8.904 20.733,9.015 20.740,12.000 20.740 C 14.985 20.740,15.096 20.733,16.077 20.494 C 17.367 20.180,18.631 19.533,19.680 18.651 C 21.268 17.315,22.342 15.359,22.661 13.220 C 22.739 12.695,22.751 11.473,22.682 10.940 C 22.465 9.245,21.791 7.700,20.689 6.368 C 19.543 4.983,17.864 3.941,16.077 3.506 C 15.143 3.279,15.020 3.271,12.320 3.259 C 10.945 3.253,9.613 3.262,9.360 3.280 M15.380 4.874 C 16.840 5.180,18.086 5.850,19.118 6.882 C 20.158 7.922,20.832 9.183,21.127 10.640 C 21.208 11.041,21.220 11.216,21.220 12.000 C 21.220 12.784,21.208 12.959,21.127 13.360 C 20.832 14.817,20.158 16.078,19.118 17.118 C 18.078 18.158,16.817 18.832,15.360 19.127 C 14.904 19.219,14.878 19.220,12.000 19.220 C 9.122 19.220,9.096 19.219,8.640 19.127 C 7.183 18.832,5.922 18.158,4.882 17.118 C 3.842 16.078,3.168 14.817,2.873 13.360 C 2.792 12.959,2.780 12.784,2.780 12.000 C 2.780 11.216,2.792 11.041,2.873 10.640 C 3.168 9.183,3.842 7.922,4.882 6.882 C 6.050 5.714,7.483 5.015,9.180 4.786 C 9.246 4.778,10.569 4.773,12.120 4.776 C 14.901 4.782,14.946 4.783,15.380 4.874 M9.579 7.280 C 7.750 7.440,6.200 8.632,5.540 10.384 C 5.182 11.335,5.182 12.665,5.540 13.616 C 6.042 14.949,7.049 15.958,8.376 16.457 C 9.340 16.820,10.660 16.820,11.624 16.457 C 12.951 15.958,13.958 14.949,14.460 13.616 C 14.819 12.661,14.818 11.336,14.457 10.376 C 13.695 8.348,11.716 7.092,9.579 7.280 M10.980 8.894 C 11.508 9.068,11.854 9.286,12.284 9.716 C 12.712 10.143,12.928 10.485,13.108 11.020 C 13.209 11.316,13.217 11.389,13.217 12.000 C 13.217 12.611,13.209 12.684,13.108 12.980 C 12.928 13.515,12.712 13.857,12.284 14.284 C 11.857 14.712,11.515 14.928,10.980 15.108 C 10.684 15.209,10.611 15.217,10.000 15.217 C 9.389 15.217,9.316 15.209,9.020 15.108 C 8.485 14.928,8.143 14.712,7.716 14.284 C 7.288 13.857,7.072 13.515,6.892 12.980 C 6.791 12.684,6.783 12.611,6.783 12.000 C 6.783 11.389,6.791 11.316,6.892 11.020 C 7.072 10.485,7.288 10.143,7.716 9.716 C 8.433 8.999,9.066 8.750,10.100 8.775 C 10.572 8.787,10.710 8.806,10.980 8.894 " stroke="none" fill-rule="evenodd" fill="black"></path></svg>