<svg width="24" height="24" viewBox="0 0 24 24" fill="none" xmlns="http://www.w3.org/2000/svg"><path d="M6.009 3.282 C 4.602 3.361,3.702 3.597,2.971 4.079 C 1.987 4.727,1.501 5.736,1.313 7.520 C 1.237 8.238,1.237 15.761,1.313 16.480 C 1.469 17.956,1.812 18.851,2.481 19.519 C 3.149 20.188,4.044 20.531,5.520 20.687 C 6.247 20.764,17.753 20.764,18.480 20.687 C 19.956 20.531,20.851 20.188,21.519 19.519 C 22.188 18.851,22.531 17.956,22.687 16.480 C 22.763 15.762,22.763 8.238,22.687 7.520 C 22.532 6.045,22.188 5.150,21.520 4.481 C 20.870 3.830,20.013 3.492,18.560 3.315 C 18.107 3.260,6.921 3.230,6.009 3.282 M18.920 4.867 C 19.633 5.006,20.110 5.206,20.435 5.501 C 20.759 5.795,21.014 6.397,21.146 7.180 C 21.215 7.590,21.220 7.923,21.220 12.000 C 21.220 16.060,21.215 16.412,21.147 16.815 C 21.011 17.619,20.805 18.112,20.458 18.458 C 20.112 18.805,19.619 19.011,18.815 19.147 C 18.406 19.216,17.998 19.220,12.000 19.220 C 5.977 19.220,5.595 19.216,5.180 19.146 C 4.397 19.014,3.795 18.759,3.501 18.435 C 3.193 18.096,2.979 17.560,2.854 16.820 C 2.785 16.410,2.780 16.077,2.780 12.000 C 2.780 7.923,2.785 7.590,2.854 7.180 C 3.041 6.066,3.379 5.505,4.059 5.180 C 4.485 4.976,4.815 4.900,5.780 4.785 C 5.846 4.777,8.735 4.774,12.200 4.778 C 18.376 4.785,18.508 4.787,18.920 4.867 M12.960 7.264 C 12.200 7.326,11.698 7.447,11.249 7.677 C 10.522 8.051,10.066 8.705,9.854 9.680 C 9.788 9.985,9.780 10.222,9.780 12.000 C 9.780 13.778,9.788 14.015,9.854 14.320 C 10.158 15.718,10.965 16.461,12.420 16.685 C 12.930 16.763,16.070 16.763,16.580 16.685 C 18.011 16.465,18.808 15.748,19.132 14.387 C 19.216 14.035,19.220 13.939,19.220 12.000 C 19.220 10.061,19.216 9.965,19.132 9.613 C 18.862 8.479,18.291 7.822,17.276 7.478 C 16.750 7.300,16.469 7.276,14.760 7.262 C 13.869 7.255,13.059 7.256,12.960 7.264 M16.768 8.873 C 17.273 9.041,17.520 9.323,17.668 9.900 C 17.732 10.149,17.740 10.377,17.740 11.980 C 17.740 13.567,17.732 13.815,17.669 14.080 C 17.527 14.677,17.275 14.964,16.747 15.130 C 16.465 15.218,16.423 15.220,14.500 15.220 C 12.577 15.220,12.535 15.218,12.253 15.130 C 11.733 14.966,11.483 14.687,11.332 14.100 C 11.268 13.850,11.260 13.621,11.260 11.980 C 11.260 9.978,11.268 9.899,11.502 9.437 C 11.668 9.109,12.023 8.891,12.534 8.803 C 12.647 8.783,13.586 8.770,14.620 8.775 C 16.450 8.783,16.507 8.785,16.768 8.873 " stroke="none" fill-rule="evenodd" fill="black"></path></svg>