<svg width="24" height="24" viewBox="0 0 24 24" fill="none" xmlns="http://www.w3.org/2000/svg"><path d="M6.009 3.282 C 4.602 3.361,3.702 3.597,2.971 4.079 C 1.987 4.727,1.501 5.736,1.313 7.520 C 1.237 8.238,1.237 15.761,1.313 16.480 C 1.469 17.956,1.812 18.851,2.481 19.519 C 3.149 20.188,4.044 20.531,5.520 20.687 C 6.247 20.764,17.753 20.764,18.480 20.687 C 19.956 20.531,20.851 20.188,21.519 19.519 C 22.188 18.851,22.531 17.956,22.687 16.480 C 22.763 15.762,22.763 8.238,22.687 7.520 C 22.532 6.045,22.188 5.150,21.520 4.481 C 20.870 3.830,20.013 3.492,18.560 3.315 C 18.107 3.260,6.921 3.230,6.009 3.282 M18.920 4.867 C 19.633 5.006,20.110 5.206,20.435 5.501 C 20.759 5.795,21.014 6.397,21.146 7.180 C 21.215 7.590,21.220 7.923,21.220 12.000 C 21.220 16.060,21.215 16.412,21.147 16.815 C 21.011 17.619,20.805 18.112,20.458 18.458 C 20.112 18.805,19.619 19.011,18.815 19.147 C 18.406 19.216,17.998 19.220,12.000 19.220 C 5.977 19.220,5.595 19.216,5.180 19.146 C 4.397 19.014,3.795 18.759,3.501 18.435 C 3.193 18.096,2.979 17.560,2.854 16.820 C 2.785 16.410,2.780 16.077,2.780 12.000 C 2.780 7.923,2.785 7.590,2.854 7.180 C 3.041 6.066,3.379 5.505,4.059 5.180 C 4.485 4.976,4.815 4.900,5.780 4.785 C 5.846 4.777,8.735 4.774,12.200 4.778 C 18.376 4.785,18.508 4.787,18.920 4.867 M7.960 7.264 C 7.200 7.326,6.698 7.447,6.249 7.677 C 5.522 8.051,5.066 8.705,4.854 9.680 C 4.788 9.985,4.780 10.222,4.780 12.000 C 4.780 13.778,4.788 14.015,4.854 14.320 C 5.158 15.718,5.965 16.461,7.420 16.685 C 7.930 16.763,11.070 16.763,11.580 16.685 C 13.011 16.465,13.808 15.748,14.132 14.387 C 14.216 14.035,14.220 13.939,14.220 12.000 C 14.220 10.061,14.216 9.965,14.132 9.613 C 13.862 8.479,13.291 7.822,12.276 7.478 C 11.750 7.300,11.469 7.276,9.760 7.262 C 8.869 7.255,8.059 7.256,7.960 7.264 M11.768 8.873 C 12.273 9.041,12.520 9.323,12.668 9.900 C 12.732 10.149,12.740 10.377,12.740 11.980 C 12.740 13.567,12.732 13.815,12.669 14.080 C 12.527 14.677,12.275 14.964,11.747 15.130 C 11.465 15.218,11.423 15.220,9.500 15.220 C 7.577 15.220,7.535 15.218,7.253 15.130 C 6.733 14.966,6.483 14.687,6.332 14.100 C 6.268 13.850,6.260 13.621,6.260 11.980 C 6.260 9.978,6.268 9.899,6.502 9.437 C 6.668 9.109,7.023 8.891,7.534 8.803 C 7.647 8.783,8.586 8.770,9.620 8.775 C 11.450 8.783,11.507 8.785,11.768 8.873 " stroke="none" fill-rule="evenodd" fill="black"></path></svg>