<svg width="24" height="24" viewBox="0 0 24 24" fill="none" xmlns="http://www.w3.org/2000/svg"><path d="M7.263 1.284 C 4.441 1.445,3.241 2.463,2.852 5.028 C 2.785 5.468,2.780 5.969,2.780 12.380 L 2.780 19.260 2.889 19.660 C 3.024 20.151,3.260 20.640,3.488 20.899 C 3.697 21.137,4.064 21.380,4.337 21.462 C 4.597 21.540,5.114 21.540,5.410 21.462 C 5.919 21.327,6.530 20.937,7.133 20.361 C 7.340 20.163,7.588 19.965,7.685 19.921 C 8.026 19.766,8.455 19.844,8.736 20.112 C 8.821 20.193,9.150 20.606,9.466 21.030 C 9.782 21.453,10.140 21.894,10.262 22.010 C 10.842 22.563,11.578 22.818,12.304 22.717 C 12.668 22.666,12.858 22.602,13.191 22.416 C 13.581 22.197,13.867 21.896,14.572 20.961 C 15.310 19.983,15.431 19.877,15.844 19.847 C 16.217 19.821,16.378 19.904,16.890 20.388 C 17.840 21.285,18.621 21.639,19.390 21.520 C 20.243 21.388,20.843 20.720,21.098 19.622 C 21.235 19.031,21.245 18.501,21.230 12.080 C 21.218 6.305,21.210 5.692,21.146 5.205 C 20.971 3.880,20.605 3.002,19.974 2.396 C 19.244 1.694,18.293 1.377,16.629 1.281 C 15.823 1.234,8.088 1.237,7.263 1.284 M17.063 2.804 C 18.751 2.974,19.363 3.527,19.624 5.120 C 19.745 5.856,19.765 7.142,19.749 13.060 C 19.735 18.405,19.728 18.965,19.666 19.215 C 19.584 19.550,19.465 19.828,19.351 19.950 C 19.122 20.193,18.636 19.969,17.904 19.283 C 17.151 18.578,16.662 18.351,15.900 18.353 C 15.491 18.354,15.194 18.423,14.824 18.604 C 14.360 18.830,14.133 19.056,13.428 19.991 C 12.747 20.893,12.577 21.078,12.334 21.180 C 12.139 21.261,11.815 21.254,11.617 21.164 C 11.386 21.059,11.229 20.886,10.560 19.998 C 10.236 19.568,9.859 19.115,9.722 18.992 C 9.240 18.555,8.693 18.347,8.040 18.352 C 7.314 18.357,6.808 18.595,6.113 19.261 C 5.546 19.805,5.176 20.037,4.874 20.039 C 4.758 20.040,4.704 20.013,4.609 19.904 C 4.469 19.744,4.338 19.375,4.281 18.980 C 4.227 18.600,4.226 6.336,4.280 5.740 C 4.365 4.804,4.527 4.185,4.794 3.777 C 4.991 3.476,5.116 3.362,5.440 3.187 C 5.818 2.983,6.203 2.888,7.060 2.786 C 7.389 2.747,16.661 2.764,17.063 2.804 M9.094 9.278 C 8.436 9.438,8.303 10.307,8.886 10.640 L 9.060 10.740 12.000 10.740 L 14.940 10.740 15.120 10.634 C 15.606 10.348,15.606 9.652,15.120 9.366 L 14.940 9.260 12.080 9.253 C 10.507 9.250,9.163 9.261,9.094 9.278 " stroke="none" fill-rule="evenodd" fill="black"></path></svg>