<svg width="24" height="24" viewBox="0 0 24 24" fill="none" xmlns="http://www.w3.org/2000/svg"><path d="M4.500 1.283 C 2.709 1.426,1.598 2.430,1.315 4.160 C 1.237 4.641,1.235 9.358,1.313 9.800 C 1.400 10.293,1.482 10.561,1.663 10.940 C 1.963 11.571,2.397 12.013,3.017 12.317 C 3.778 12.691,4.252 12.733,7.385 12.708 C 9.267 12.692,9.800 12.676,10.040 12.628 C 11.456 12.343,12.261 11.573,12.594 10.182 L 12.700 9.740 12.700 7.020 C 12.700 4.545,12.693 4.268,12.627 3.941 C 12.295 2.306,11.223 1.422,9.399 1.281 C 8.812 1.235,5.080 1.237,4.500 1.283 M14.815 1.278 C 14.433 1.369,14.180 1.790,14.281 2.165 C 14.328 2.340,15.355 4.078,15.516 4.255 C 15.800 4.569,16.374 4.549,16.636 4.216 C 16.745 4.078,16.813 3.818,16.786 3.649 C 16.774 3.576,16.696 3.395,16.612 3.248 C 16.528 3.100,16.454 2.966,16.446 2.948 C 16.410 2.865,17.261 3.154,17.739 3.388 C 18.977 3.993,19.960 4.966,20.582 6.203 C 20.991 7.019,21.172 7.709,21.237 8.709 C 21.266 9.142,21.288 9.263,21.359 9.378 C 21.612 9.787,22.183 9.857,22.520 9.520 C 22.731 9.309,22.765 9.119,22.717 8.441 C 22.547 6.048,21.284 3.881,19.277 2.542 C 18.604 2.094,17.745 1.710,16.947 1.503 C 16.288 1.332,15.110 1.207,14.815 1.278 M9.746 2.823 C 10.551 2.989,10.983 3.402,11.143 4.160 C 11.225 4.543,11.224 9.461,11.142 9.845 C 11.029 10.379,10.763 10.754,10.345 10.967 C 9.900 11.193,9.823 11.199,6.996 11.199 C 4.570 11.200,4.394 11.195,4.110 11.122 C 3.526 10.973,3.213 10.735,3.005 10.285 C 2.766 9.765,2.761 9.709,2.761 6.980 C 2.761 4.305,2.769 4.190,2.976 3.738 C 3.185 3.282,3.635 2.945,4.200 2.823 C 4.605 2.735,9.322 2.735,9.746 2.823 M6.660 4.497 C 6.493 4.571,6.332 4.753,6.267 4.941 L 6.212 5.100 5.456 5.120 C 4.841 5.136,4.676 5.153,4.574 5.209 C 4.309 5.354,4.169 5.656,4.218 5.981 C 4.241 6.134,4.282 6.206,4.435 6.358 C 4.552 6.475,4.673 6.557,4.756 6.573 C 4.830 6.588,5.393 6.600,6.008 6.600 L 7.125 6.600 7.097 6.690 C 7.021 6.936,6.813 7.267,6.577 7.517 C 6.121 8.000,5.775 8.171,5.075 8.257 C 4.829 8.287,4.598 8.338,4.543 8.375 C 4.098 8.666,4.091 9.323,4.528 9.626 C 4.682 9.732,4.719 9.740,5.057 9.737 C 5.729 9.730,6.417 9.518,6.951 9.152 L 7.122 9.035 7.243 9.137 C 7.577 9.418,8.124 9.647,8.640 9.722 C 9.119 9.792,9.290 9.754,9.522 9.522 C 9.678 9.366,9.719 9.295,9.742 9.141 C 9.791 8.815,9.649 8.509,9.386 8.373 C 9.317 8.336,9.111 8.285,8.929 8.258 C 8.614 8.211,8.160 8.035,8.160 7.960 C 8.160 7.941,8.232 7.782,8.319 7.606 C 8.407 7.431,8.522 7.137,8.575 6.954 L 8.671 6.620 8.972 6.595 C 9.189 6.577,9.308 6.546,9.397 6.482 C 9.885 6.135,9.868 5.459,9.366 5.203 C 9.242 5.140,9.104 5.126,8.473 5.114 L 7.727 5.100 7.683 4.955 C 7.559 4.542,7.060 4.318,6.660 4.497 M16.440 11.122 C 13.593 11.350,11.337 13.626,11.122 16.490 C 10.903 19.392,12.896 22.041,15.732 22.618 C 19.192 23.322,22.454 20.863,22.718 17.350 C 22.987 13.789,20.010 10.836,16.440 11.122 M18.040 12.738 C 19.535 13.150,20.691 14.312,21.108 15.820 C 21.210 16.187,21.219 16.279,21.219 16.920 C 21.219 17.561,21.210 17.653,21.108 18.020 C 20.688 19.540,19.540 20.688,18.020 21.108 C 17.653 21.210,17.561 21.219,16.920 21.219 C 16.279 21.219,16.187 21.210,15.820 21.108 C 14.303 20.689,13.151 19.537,12.732 18.020 C 12.630 17.653,12.621 17.561,12.621 16.920 C 12.621 16.279,12.630 16.187,12.732 15.820 C 13.192 14.156,14.517 12.953,16.237 12.638 C 16.338 12.619,16.699 12.611,17.040 12.619 C 17.556 12.630,17.724 12.650,18.040 12.738 M16.720 13.686 C 16.390 13.782,16.388 13.786,15.179 16.203 C 13.940 18.682,13.958 18.635,14.117 18.985 C 14.158 19.075,14.259 19.201,14.343 19.265 C 14.477 19.367,14.526 19.380,14.783 19.380 C 15.047 19.380,15.086 19.369,15.224 19.257 C 15.308 19.190,15.437 19.023,15.511 18.887 L 15.647 18.640 16.920 18.640 L 18.193 18.640 18.329 18.887 C 18.403 19.023,18.532 19.190,18.616 19.257 C 18.754 19.369,18.793 19.380,19.057 19.380 C 19.314 19.380,19.363 19.367,19.498 19.264 C 19.697 19.112,19.815 18.847,19.791 18.604 C 19.777 18.464,19.511 17.897,18.682 16.240 C 18.082 15.041,17.549 14.004,17.498 13.936 C 17.336 13.719,16.987 13.608,16.720 13.686 M1.819 14.276 C 1.554 14.342,1.338 14.564,1.276 14.833 C 1.257 14.916,1.260 15.220,1.281 15.527 C 1.452 17.954,2.695 20.097,4.723 21.459 C 5.480 21.968,6.587 22.422,7.496 22.597 C 8.076 22.709,8.920 22.768,9.173 22.713 C 9.561 22.630,9.821 22.204,9.716 21.825 C 9.669 21.655,8.639 19.916,8.484 19.745 C 8.200 19.431,7.626 19.451,7.364 19.784 C 7.255 19.922,7.187 20.182,7.214 20.351 C 7.226 20.424,7.304 20.605,7.388 20.752 C 7.472 20.900,7.546 21.034,7.554 21.052 C 7.592 21.138,6.730 20.842,6.240 20.600 C 5.202 20.088,4.311 19.284,3.689 18.298 C 3.156 17.452,2.766 16.185,2.760 15.280 C 2.758 14.939,2.698 14.691,2.580 14.536 C 2.422 14.329,2.078 14.211,1.819 14.276 M17.191 16.620 C 17.328 16.896,17.440 17.130,17.440 17.140 C 17.440 17.151,17.206 17.160,16.920 17.160 C 16.634 17.160,16.400 17.151,16.400 17.140 C 16.400 17.100,16.899 16.120,16.920 16.120 C 16.932 16.120,17.054 16.345,17.191 16.620 " stroke="none" fill-rule="evenodd" fill="black"></path></svg>