<svg width="24" height="24" viewBox="0 0 24 24" fill="none" xmlns="http://www.w3.org/2000/svg"><path d="M10.220 1.278 C 9.049 1.391,8.391 1.895,8.124 2.881 C 8.079 3.046,7.988 3.513,7.921 3.920 C 7.854 4.327,7.791 4.698,7.780 4.745 C 7.763 4.823,7.726 4.831,7.251 4.857 C 6.154 4.916,2.930 5.221,2.733 5.284 C 2.452 5.373,2.201 5.806,2.262 6.093 C 2.326 6.389,2.571 6.656,2.824 6.703 C 2.903 6.718,3.277 6.701,3.654 6.664 C 7.249 6.314,7.861 6.278,10.600 6.253 C 13.787 6.224,16.144 6.317,19.545 6.605 C 20.362 6.674,21.096 6.718,21.176 6.703 C 21.429 6.656,21.674 6.390,21.738 6.093 C 21.799 5.806,21.548 5.374,21.267 5.283 C 21.115 5.235,18.759 5.030,17.300 4.939 C 16.729 4.903,16.256 4.869,16.250 4.863 C 16.243 4.857,16.167 4.440,16.081 3.936 C 15.994 3.432,15.893 2.921,15.857 2.800 C 15.710 2.307,15.458 1.949,15.088 1.709 C 14.758 1.495,14.670 1.457,14.263 1.353 C 13.966 1.277,13.804 1.270,12.240 1.259 C 11.305 1.252,10.396 1.261,10.220 1.278 M14.126 2.866 C 14.288 2.941,14.321 2.978,14.392 3.167 C 14.458 3.345,14.731 4.761,14.704 4.789 C 14.700 4.794,13.833 4.783,12.778 4.764 C 11.723 4.746,10.507 4.740,10.075 4.751 L 9.289 4.770 9.326 4.555 C 9.598 2.966,9.624 2.900,10.028 2.803 C 10.111 2.783,11.026 2.770,12.060 2.773 C 13.891 2.780,13.945 2.782,14.126 2.866 M4.810 8.484 C 4.620 8.578,4.492 8.734,4.435 8.938 C 4.409 9.035,4.497 10.611,4.739 14.367 C 4.927 17.278,5.100 19.813,5.124 20.000 C 5.295 21.352,5.831 22.089,6.923 22.472 C 7.680 22.738,7.716 22.740,12.020 22.740 C 15.565 22.740,15.934 22.734,16.298 22.668 C 17.954 22.372,18.686 21.604,18.879 19.960 C 18.951 19.354,19.602 9.104,19.577 8.980 C 19.485 8.524,18.939 8.266,18.521 8.480 C 18.366 8.558,18.199 8.745,18.143 8.900 C 18.127 8.944,17.963 11.329,17.778 14.200 C 17.593 17.071,17.422 19.582,17.399 19.780 C 17.292 20.692,17.108 20.934,16.358 21.147 C 16.116 21.216,15.850 21.220,12.000 21.220 C 8.150 21.220,7.884 21.216,7.642 21.147 C 6.892 20.934,6.708 20.692,6.601 19.780 C 6.578 19.582,6.407 17.071,6.222 14.200 C 6.037 11.329,5.873 8.944,5.857 8.900 C 5.707 8.483,5.211 8.286,4.810 8.484 M9.180 11.835 C 8.990 11.923,8.904 12.012,8.822 12.210 C 8.708 12.483,8.783 12.869,8.986 13.048 C 9.203 13.241,9.184 13.240,12.009 13.239 C 14.496 13.238,14.670 13.234,14.820 13.165 C 15.010 13.077,15.096 12.988,15.178 12.790 C 15.257 12.602,15.257 12.398,15.178 12.210 C 15.096 12.012,15.010 11.923,14.820 11.835 C 14.670 11.766,14.496 11.762,12.000 11.762 C 9.504 11.762,9.330 11.766,9.180 11.835 M10.020 15.823 C 9.733 15.972,9.600 16.189,9.600 16.509 C 9.600 16.748,9.695 16.939,9.894 17.097 L 10.047 17.220 11.894 17.232 C 13.107 17.240,13.790 17.230,13.885 17.202 C 14.296 17.082,14.509 16.618,14.338 16.210 C 14.256 16.012,14.170 15.923,13.980 15.835 C 13.832 15.767,13.680 15.762,11.980 15.761 C 10.390 15.761,10.124 15.769,10.020 15.823 " stroke="none" fill-rule="evenodd" fill="black"></path></svg>