<svg width="24" height="24" viewBox="0 0 24 24" fill="none" xmlns="http://www.w3.org/2000/svg"><path d="M8.080 1.282 C 4.008 1.495,1.895 3.296,1.383 6.991 C 1.270 7.803,1.242 8.816,1.242 12.000 C 1.242 16.504,1.302 17.273,1.760 18.650 C 2.532 20.963,4.206 22.226,7.027 22.622 C 7.786 22.728,8.902 22.759,12.000 22.759 C 15.098 22.759,16.214 22.728,16.973 22.622 C 19.443 22.275,20.996 21.288,21.897 19.490 C 22.379 18.530,22.638 17.369,22.720 15.807 C 22.771 14.838,22.771 9.162,22.720 8.193 C 22.657 6.998,22.521 6.191,22.242 5.356 C 21.632 3.531,20.469 2.367,18.650 1.760 C 17.788 1.473,17.023 1.344,15.806 1.280 C 14.952 1.235,8.952 1.237,8.080 1.282 M16.800 2.854 C 19.586 3.316,20.714 4.454,21.148 7.240 C 21.214 7.661,21.220 8.064,21.220 12.000 C 21.220 15.936,21.214 16.339,21.148 16.760 C 20.712 19.558,19.558 20.712,16.760 21.148 C 16.339 21.214,15.936 21.220,12.000 21.220 C 8.064 21.220,7.661 21.214,7.240 21.148 C 4.450 20.713,3.283 19.551,2.854 16.780 C 2.785 16.335,2.780 15.989,2.780 12.000 C 2.780 7.247,2.776 7.337,3.044 6.288 C 3.557 4.282,4.722 3.274,6.960 2.900 C 7.690 2.777,8.048 2.769,12.200 2.777 C 15.963 2.784,16.422 2.791,16.800 2.854 M14.180 8.835 C 13.990 8.923,13.904 9.012,13.822 9.210 C 13.674 9.564,13.815 9.982,14.140 10.150 C 14.206 10.185,14.355 10.223,14.471 10.236 L 14.681 10.260 13.549 11.392 L 12.416 12.523 11.818 11.632 C 11.287 10.840,11.200 10.730,11.042 10.650 C 10.825 10.541,10.595 10.536,10.380 10.637 C 10.156 10.742,6.906 14.004,6.821 14.209 C 6.708 14.484,6.783 14.869,6.986 15.048 C 7.102 15.151,7.340 15.240,7.500 15.240 C 7.798 15.240,7.905 15.152,9.262 13.797 L 10.584 12.477 11.182 13.368 C 11.713 14.160,11.800 14.270,11.958 14.350 C 12.167 14.455,12.383 14.465,12.591 14.379 C 12.692 14.337,13.225 13.833,14.250 12.809 L 15.760 11.300 15.760 11.471 C 15.760 11.657,15.843 11.892,15.952 12.014 C 16.131 12.217,16.517 12.292,16.790 12.178 C 16.988 12.096,17.077 12.010,17.165 11.820 C 17.231 11.677,17.238 11.540,17.239 10.493 C 17.240 9.763,17.224 9.283,17.197 9.213 C 17.174 9.151,17.107 9.048,17.047 8.985 C 16.845 8.769,16.785 8.760,15.511 8.761 C 14.461 8.762,14.324 8.769,14.180 8.835 " stroke="none" fill-rule="evenodd" fill="black"></path></svg>