<svg width="24" height="24" viewBox="0 0 24 24" fill="none" xmlns="http://www.w3.org/2000/svg"><path d="M8.080 1.282 C 4.008 1.495,1.895 3.296,1.383 6.991 C 1.270 7.803,1.242 8.816,1.242 12.000 C 1.242 16.504,1.302 17.273,1.760 18.650 C 2.532 20.963,4.206 22.226,7.027 22.622 C 7.786 22.728,8.902 22.759,12.000 22.759 C 15.098 22.759,16.214 22.728,16.973 22.622 C 19.443 22.275,20.996 21.288,21.897 19.490 C 22.379 18.530,22.638 17.369,22.720 15.807 C 22.771 14.838,22.771 9.162,22.720 8.193 C 22.657 6.998,22.521 6.191,22.242 5.356 C 21.632 3.531,20.469 2.367,18.650 1.760 C 17.788 1.473,17.023 1.344,15.806 1.280 C 14.952 1.235,8.952 1.237,8.080 1.282 M16.800 2.854 C 19.586 3.316,20.714 4.454,21.148 7.240 C 21.214 7.661,21.220 8.064,21.220 12.000 C 21.220 15.936,21.214 16.339,21.148 16.760 C 20.712 19.558,19.558 20.712,16.760 21.148 C 16.339 21.214,15.936 21.220,12.000 21.220 C 8.064 21.220,7.661 21.214,7.240 21.148 C 4.450 20.713,3.283 19.551,2.854 16.780 C 2.785 16.335,2.780 15.989,2.780 12.000 C 2.780 7.247,2.776 7.337,3.044 6.288 C 3.557 4.282,4.722 3.274,6.960 2.900 C 7.690 2.777,8.048 2.769,12.200 2.777 C 15.963 2.784,16.422 2.791,16.800 2.854 M7.180 8.835 C 6.990 8.923,6.904 9.012,6.822 9.210 C 6.740 9.406,6.745 9.625,6.837 9.820 C 6.942 10.044,10.204 13.294,10.409 13.379 C 10.617 13.465,10.833 13.455,11.042 13.350 C 11.200 13.270,11.287 13.160,11.818 12.368 L 12.416 11.477 13.549 12.608 L 14.681 13.740 14.471 13.764 C 14.124 13.803,13.939 13.930,13.822 14.210 C 13.740 14.405,13.745 14.624,13.835 14.820 C 13.923 15.010,14.012 15.096,14.210 15.178 C 14.415 15.264,16.613 15.270,16.811 15.185 C 16.967 15.118,17.140 14.941,17.197 14.787 C 17.224 14.717,17.240 14.238,17.240 13.516 C 17.240 12.300,17.226 12.185,17.048 11.986 C 16.946 11.870,16.680 11.762,16.500 11.762 C 16.320 11.762,16.054 11.870,15.952 11.986 C 15.843 12.108,15.760 12.343,15.760 12.529 L 15.760 12.700 14.250 11.191 C 13.225 10.167,12.692 9.663,12.591 9.621 C 12.383 9.535,12.167 9.545,11.958 9.650 C 11.800 9.730,11.713 9.840,11.182 10.632 L 10.584 11.523 9.262 10.203 C 8.373 9.315,7.891 8.863,7.791 8.821 C 7.595 8.740,7.376 8.745,7.180 8.835 " stroke="none" fill-rule="evenodd" fill="black"></path></svg>