<svg width="24" height="24" viewBox="0 0 24 24" fill="none" xmlns="http://www.w3.org/2000/svg"><path d="M11.500 1.882 C 10.393 2.055,9.313 2.816,8.523 3.979 C 8.257 4.371,7.390 5.914,3.711 12.540 C 1.875 15.849,1.691 16.203,1.506 16.788 C 1.242 17.623,1.193 18.543,1.373 19.243 C 1.760 20.744,2.982 21.751,4.800 22.067 C 5.195 22.136,5.620 22.140,12.060 22.140 C 18.484 22.140,18.922 22.136,19.260 22.068 C 20.394 21.842,21.188 21.435,21.807 20.764 C 22.429 20.090,22.726 19.295,22.728 18.300 C 22.729 17.496,22.564 16.820,22.162 15.980 C 21.809 15.242,15.788 4.436,15.465 3.960 C 14.946 3.194,14.144 2.485,13.431 2.162 C 12.872 1.909,12.071 1.792,11.500 1.882 M11.239 8.270 L 11.237 13.020 7.064 15.938 C 4.769 17.543,2.872 18.863,2.848 18.871 C 2.785 18.892,2.746 18.476,2.772 18.063 C 2.821 17.309,2.968 16.961,4.085 14.945 C 6.341 10.873,9.308 5.548,9.491 5.240 C 9.925 4.510,10.454 3.935,10.951 3.651 C 11.077 3.580,11.193 3.521,11.210 3.521 C 11.227 3.520,11.239 5.657,11.239 8.270 M13.073 3.670 C 13.540 3.953,14.008 4.442,14.405 5.060 C 14.643 5.431,20.594 16.182,20.804 16.620 C 21.078 17.193,21.198 17.601,21.228 18.075 C 21.254 18.477,21.214 18.891,21.152 18.871 C 21.128 18.863,19.231 17.543,16.936 15.938 L 12.763 13.020 12.761 8.270 C 12.761 5.657,12.775 3.520,12.793 3.520 C 12.811 3.520,12.937 3.587,13.073 3.670 M16.154 17.207 C 18.391 18.772,20.235 20.066,20.254 20.082 C 20.297 20.120,20.006 20.291,19.720 20.395 C 19.381 20.519,19.056 20.591,18.632 20.638 C 18.133 20.692,6.228 20.694,5.531 20.640 C 5.042 20.602,4.579 20.505,4.240 20.370 C 4.008 20.277,3.708 20.119,3.727 20.099 C 3.736 20.091,5.595 18.787,7.858 17.201 C 10.328 15.470,11.997 14.326,12.032 14.339 C 12.063 14.351,13.918 15.642,16.154 17.207 " stroke="none" fill-rule="evenodd" fill="black"></path></svg>