<svg width="24" height="24" viewBox="0 0 24 24" fill="none" xmlns="http://www.w3.org/2000/svg"><path d="M4.551 0.282 C 2.598 0.456,0.913 1.885,0.419 3.789 C 0.078 5.099,0.295 6.434,1.034 7.587 L 1.240 7.908 1.241 12.444 C 1.241 15.144,1.257 17.132,1.281 17.355 C 1.333 17.848,1.413 18.149,1.600 18.548 C 1.999 19.403,2.540 19.954,3.380 20.361 C 3.889 20.608,4.130 20.670,4.810 20.729 L 5.359 20.776 5.404 20.918 C 5.526 21.305,5.919 21.853,6.273 22.131 C 6.818 22.558,7.315 22.731,8.000 22.731 C 8.685 22.731,9.182 22.558,9.727 22.131 C 10.084 21.851,10.474 21.305,10.599 20.910 L 10.646 20.760 12.000 20.760 L 13.354 20.760 13.401 20.910 C 13.582 21.481,14.109 22.089,14.720 22.432 C 15.434 22.832,16.566 22.832,17.280 22.432 C 17.888 22.091,18.419 21.480,18.596 20.918 L 18.641 20.776 19.190 20.729 C 19.870 20.670,20.111 20.608,20.620 20.361 C 21.460 19.954,22.001 19.403,22.400 18.548 C 22.587 18.149,22.667 17.848,22.719 17.355 C 22.775 16.824,22.772 12.025,22.716 11.822 C 22.692 11.735,22.351 11.104,21.959 10.419 C 21.567 9.734,21.167 9.031,21.069 8.857 C 20.516 7.871,19.194 5.585,19.087 5.430 C 18.822 5.044,18.443 4.730,17.989 4.519 C 17.563 4.321,17.320 4.277,16.510 4.251 L 15.760 4.228 15.760 3.136 C 15.760 2.490,15.742 1.960,15.716 1.838 C 15.658 1.570,15.450 1.352,15.189 1.286 C 15.056 1.253,14.014 1.240,11.458 1.240 L 7.911 1.240 7.645 1.065 C 6.723 0.455,5.651 0.184,4.551 0.282 M5.980 1.894 C 6.507 2.067,6.856 2.286,7.260 2.696 C 7.781 3.224,8.056 3.730,8.184 4.394 C 8.385 5.440,8.042 6.535,7.277 7.285 C 6.887 7.668,6.488 7.918,6.000 8.085 C 5.641 8.208,5.588 8.216,5.040 8.217 C 4.363 8.219,4.134 8.169,3.580 7.900 C 2.479 7.365,1.763 6.233,1.761 5.028 C 1.759 4.106,2.087 3.316,2.727 2.696 C 3.193 2.244,3.642 1.989,4.237 1.838 C 4.694 1.722,5.538 1.749,5.980 1.894 M14.231 7.550 L 14.220 12.340 14.126 12.520 C 13.997 12.765,13.780 12.986,13.540 13.113 L 13.340 13.220 8.050 13.231 L 2.760 13.241 2.760 11.225 L 2.760 9.209 3.110 9.359 C 3.792 9.650,4.558 9.789,5.245 9.745 C 6.518 9.663,7.442 9.242,8.363 8.322 C 9.051 7.636,9.497 6.797,9.684 5.838 C 9.751 5.494,9.751 4.574,9.684 4.200 C 9.618 3.831,9.474 3.363,9.320 3.019 L 9.203 2.760 11.722 2.760 L 14.241 2.760 14.231 7.550 M3.579 3.297 C 3.363 3.427,3.229 3.671,3.229 3.937 C 3.229 4.207,3.295 4.321,3.657 4.679 L 3.960 4.978 3.644 5.299 C 3.279 5.670,3.200 5.805,3.200 6.059 C 3.200 6.499,3.502 6.800,3.945 6.800 C 4.194 6.800,4.332 6.719,4.701 6.356 L 5.022 6.040 5.321 6.343 C 5.679 6.706,5.793 6.771,6.066 6.771 C 6.490 6.771,6.800 6.460,6.800 6.032 C 6.800 5.768,6.686 5.574,6.326 5.223 L 6.083 4.985 6.397 4.658 C 6.657 4.388,6.718 4.299,6.751 4.144 C 6.858 3.641,6.537 3.227,6.040 3.227 C 5.760 3.227,5.639 3.296,5.282 3.657 L 5.024 3.918 4.722 3.625 C 4.556 3.464,4.362 3.302,4.292 3.266 C 4.098 3.166,3.774 3.181,3.579 3.297 M17.297 5.842 C 17.659 5.978,17.805 6.160,18.428 7.248 L 18.993 8.236 18.806 8.261 C 18.359 8.321,18.041 8.484,17.727 8.816 C 17.484 9.073,17.333 9.373,17.279 9.707 C 17.229 10.010,17.229 12.990,17.279 13.293 C 17.395 14.001,17.996 14.605,18.700 14.720 C 18.832 14.742,19.457 14.760,20.090 14.760 L 21.240 14.760 21.240 16.052 C 21.240 17.478,21.223 17.612,20.990 18.057 C 20.917 18.195,20.741 18.421,20.581 18.581 C 20.119 19.043,19.644 19.240,18.992 19.240 C 18.719 19.240,18.640 19.228,18.640 19.185 C 18.640 19.081,18.323 18.501,18.141 18.270 C 17.653 17.653,16.794 17.240,16.000 17.240 C 15.206 17.240,14.347 17.653,13.859 18.270 C 13.677 18.501,13.360 19.081,13.360 19.185 C 13.360 19.231,13.132 19.240,12.000 19.240 C 10.868 19.240,10.640 19.231,10.640 19.185 C 10.640 19.081,10.323 18.501,10.141 18.270 C 9.653 17.653,8.794 17.240,8.000 17.240 C 7.206 17.240,6.347 17.653,5.859 18.270 C 5.677 18.501,5.360 19.081,5.360 19.185 C 5.360 19.263,4.730 19.259,4.422 19.179 C 3.673 18.984,3.015 18.324,2.820 17.572 C 2.773 17.392,2.760 17.066,2.760 16.052 L 2.760 14.760 8.002 14.760 C 13.855 14.760,13.585 14.772,14.180 14.480 C 14.757 14.197,15.160 13.806,15.457 13.240 C 15.749 12.683,15.735 12.880,15.750 9.130 L 15.763 5.760 16.420 5.760 C 16.986 5.760,17.108 5.771,17.297 5.842 M20.552 10.967 L 21.240 12.174 21.240 12.707 L 21.240 13.240 20.080 13.240 C 18.973 13.240,18.916 13.236,18.840 13.160 C 18.763 13.083,18.760 13.027,18.760 11.500 C 18.760 9.586,18.697 9.760,19.392 9.760 L 19.864 9.760 20.552 10.967 M8.526 18.877 C 8.760 18.998,9.008 19.245,9.121 19.470 C 9.256 19.741,9.274 20.152,9.163 20.445 C 9.050 20.745,8.747 21.049,8.454 21.159 C 7.810 21.400,7.075 21.076,6.837 20.445 C 6.727 20.153,6.744 19.733,6.877 19.474 C 7.036 19.166,7.347 18.895,7.646 18.804 C 7.866 18.736,8.327 18.775,8.526 18.877 M16.526 18.877 C 16.760 18.998,17.008 19.245,17.121 19.470 C 17.256 19.741,17.274 20.152,17.163 20.445 C 17.050 20.745,16.747 21.049,16.454 21.159 C 15.810 21.400,15.075 21.076,14.837 20.445 C 14.727 20.153,14.744 19.733,14.877 19.474 C 15.036 19.166,15.347 18.895,15.646 18.804 C 15.866 18.736,16.327 18.775,16.526 18.877 " stroke="none" fill-rule="evenodd" fill="black"></path></svg>