<svg width="24" height="24" viewBox="0 0 24 24" fill="none" xmlns="http://www.w3.org/2000/svg"><path d="M8.080 1.282 C 4.008 1.495,1.895 3.296,1.383 6.991 C 1.270 7.803,1.242 8.816,1.242 12.000 C 1.242 16.504,1.302 17.273,1.760 18.650 C 2.532 20.963,4.206 22.226,7.027 22.622 C 7.786 22.728,8.902 22.759,12.000 22.759 C 15.098 22.759,16.214 22.728,16.973 22.622 C 19.443 22.275,20.996 21.288,21.897 19.490 C 22.379 18.530,22.638 17.369,22.720 15.807 C 22.771 14.838,22.771 9.162,22.720 8.193 C 22.657 6.998,22.521 6.191,22.242 5.356 C 21.632 3.531,20.469 2.367,18.650 1.760 C 17.788 1.473,17.023 1.344,15.806 1.280 C 14.952 1.235,8.952 1.237,8.080 1.282 M16.800 2.854 C 19.586 3.316,20.714 4.454,21.148 7.240 C 21.214 7.661,21.220 8.064,21.220 12.000 C 21.220 15.936,21.214 16.339,21.148 16.760 C 20.712 19.558,19.558 20.712,16.760 21.148 C 16.339 21.214,15.936 21.220,12.000 21.220 C 8.064 21.220,7.661 21.214,7.240 21.148 C 4.450 20.713,3.283 19.551,2.854 16.780 C 2.785 16.335,2.780 15.989,2.780 12.000 C 2.780 7.247,2.776 7.337,3.044 6.288 C 3.557 4.282,4.722 3.274,6.960 2.900 C 7.690 2.777,8.048 2.769,12.200 2.777 C 15.963 2.784,16.422 2.791,16.800 2.854 M10.720 5.720 C 9.717 5.852,9.297 6.307,9.107 7.463 L 9.016 8.020 8.838 8.048 C 8.740 8.063,8.102 8.123,7.420 8.182 C 5.965 8.306,5.830 8.327,5.653 8.463 C 5.152 8.845,5.345 9.673,5.960 9.779 C 6.037 9.792,6.250 9.787,6.434 9.769 C 6.662 9.746,6.773 9.749,6.784 9.778 C 6.792 9.801,6.889 11.215,6.999 12.920 C 7.108 14.625,7.218 16.162,7.242 16.335 C 7.361 17.190,7.679 17.685,8.311 17.999 C 8.629 18.156,8.973 18.239,9.496 18.282 C 10.049 18.328,13.957 18.329,14.500 18.283 C 15.757 18.178,16.426 17.692,16.680 16.700 C 16.761 16.382,16.796 15.940,17.039 12.140 C 17.105 11.106,17.170 10.142,17.183 9.998 L 17.206 9.737 17.533 9.770 C 17.713 9.788,17.932 9.793,18.020 9.780 C 18.502 9.709,18.783 9.158,18.560 8.721 C 18.482 8.568,18.295 8.398,18.145 8.345 C 18.059 8.315,16.616 8.184,15.661 8.120 C 14.994 8.075,14.962 8.064,14.960 7.880 C 14.958 7.633,14.756 6.810,14.641 6.576 C 14.443 6.175,14.078 5.901,13.563 5.769 C 13.300 5.702,11.143 5.664,10.720 5.720 M13.288 7.250 C 13.323 7.278,13.372 7.422,13.399 7.580 C 13.425 7.734,13.456 7.892,13.467 7.932 C 13.486 8.001,13.419 8.004,12.013 7.988 C 10.788 7.974,10.541 7.962,10.547 7.915 C 10.599 7.506,10.656 7.275,10.714 7.241 C 10.819 7.180,13.210 7.188,13.288 7.250 M14.880 9.561 C 15.309 9.587,15.672 9.621,15.686 9.635 C 15.727 9.675,15.299 16.049,15.236 16.329 C 15.183 16.568,15.033 16.699,14.749 16.758 C 14.603 16.788,13.699 16.799,11.878 16.791 C 9.381 16.781,9.210 16.775,9.048 16.705 C 8.838 16.613,8.773 16.496,8.719 16.112 C 8.668 15.750,8.271 9.635,8.297 9.610 C 8.314 9.593,8.874 9.547,9.560 9.506 C 10.108 9.473,14.137 9.515,14.880 9.561 " stroke="none" fill-rule="evenodd" fill="black"></path></svg>