<svg width="24" height="24" viewBox="0 0 24 24" fill="none" xmlns="http://www.w3.org/2000/svg"><path d="M6.080 5.039 C 6.003 5.080,5.326 5.732,4.575 6.487 C 3.499 7.569,3.199 7.893,3.160 8.015 C 3.086 8.246,3.136 8.497,3.297 8.714 C 3.460 8.934,5.843 11.309,6.027 11.434 C 6.274 11.603,6.655 11.586,6.899 11.394 C 7.137 11.207,7.228 10.799,7.100 10.494 C 7.065 10.409,6.771 10.078,6.391 9.693 L 5.742 9.036 10.701 9.051 C 15.286 9.064,15.683 9.070,15.960 9.136 C 16.818 9.340,17.461 9.675,18.035 10.220 C 18.812 10.957,19.259 11.873,19.357 12.931 C 19.473 14.182,19.023 15.412,18.119 16.316 C 17.589 16.846,16.931 17.223,16.168 17.432 L 15.780 17.539 11.340 17.559 C 7.316 17.578,6.889 17.586,6.780 17.646 C 6.345 17.884,6.265 18.510,6.625 18.847 C 6.688 18.907,6.791 18.974,6.853 18.997 C 6.930 19.027,8.338 19.040,11.313 19.040 C 14.939 19.040,15.720 19.030,16.021 18.981 C 19.647 18.393,21.795 14.649,20.475 11.218 C 19.813 9.499,18.253 8.142,16.460 7.727 C 15.780 7.570,15.434 7.560,10.446 7.560 L 5.621 7.560 6.326 6.850 C 6.715 6.460,7.061 6.082,7.096 6.012 C 7.169 5.865,7.180 5.577,7.117 5.413 C 7.060 5.259,6.887 5.082,6.731 5.015 C 6.551 4.938,6.247 4.949,6.080 5.039 " stroke="none" fill-rule="evenodd" fill="black"></path></svg>