<svg width="24" height="24" viewBox="0 0 24 24" fill="none" xmlns="http://www.w3.org/2000/svg"><path d="M5.880 6.744 C 4.845 6.933,4.309 7.138,3.560 7.634 C 2.698 8.203,1.927 9.184,1.582 10.150 C 1.029 11.694,1.176 13.330,1.992 14.700 C 2.748 15.970,4.012 16.870,5.481 17.187 C 5.960 17.290,7.159 17.290,7.640 17.187 C 8.729 16.954,9.694 16.432,10.461 15.662 C 10.681 15.441,10.955 15.123,11.069 14.956 C 11.183 14.789,11.891 13.628,12.642 12.376 C 13.393 11.124,14.085 9.992,14.179 9.860 C 14.370 9.592,14.852 9.118,15.123 8.932 C 15.374 8.760,15.852 8.525,16.180 8.413 C 18.197 7.724,20.362 8.785,21.052 10.800 C 21.186 11.191,21.239 11.532,21.239 12.000 C 21.239 13.053,20.872 13.935,20.123 14.682 C 18.852 15.950,16.928 16.158,15.420 15.191 C 15.171 15.032,14.751 14.647,14.501 14.350 C 14.235 14.032,14.096 13.950,13.819 13.946 C 13.404 13.940,13.080 14.260,13.080 14.677 C 13.080 14.925,13.129 15.026,13.414 15.374 C 14.028 16.124,14.944 16.747,15.881 17.053 C 16.569 17.277,17.546 17.343,18.320 17.218 C 19.951 16.954,21.392 15.899,22.149 14.415 C 22.556 13.618,22.727 12.902,22.727 12.000 C 22.727 9.968,21.620 8.176,19.796 7.258 C 19.395 7.056,18.767 6.854,18.300 6.778 C 17.771 6.691,16.735 6.719,16.240 6.834 C 14.981 7.127,13.792 7.888,13.044 8.881 C 12.916 9.051,12.203 10.205,11.459 11.445 C 10.716 12.685,10.017 13.835,9.906 14.000 C 8.633 15.895,5.990 16.372,4.243 15.021 C 3.776 14.661,3.408 14.215,3.151 13.700 C 2.860 13.117,2.751 12.653,2.751 12.000 C 2.751 10.999,3.099 10.119,3.778 9.405 C 4.483 8.664,5.323 8.271,6.328 8.213 C 6.998 8.174,7.571 8.290,8.176 8.586 C 8.605 8.797,8.920 9.043,9.347 9.503 C 9.749 9.936,9.846 10.010,10.067 10.058 C 10.360 10.121,10.785 9.868,10.882 9.573 C 11.002 9.209,10.871 8.921,10.324 8.348 C 9.603 7.594,8.735 7.090,7.720 6.837 C 7.455 6.771,7.226 6.749,6.680 6.739 C 6.295 6.732,5.935 6.734,5.880 6.744 " stroke="none" fill-rule="evenodd" fill="black"></path></svg>