<svg width="24" height="24" viewBox="0 0 24 24" fill="none" xmlns="http://www.w3.org/2000/svg"><path d="M11.169 1.281 C 8.120 1.479,6.292 2.773,5.584 5.233 C 5.364 5.997,5.289 6.675,5.254 8.201 L 5.228 9.341 4.784 9.414 C 3.813 9.572,3.024 9.937,2.481 10.481 C 1.809 11.152,1.468 12.040,1.313 13.520 C 1.241 14.210,1.241 17.789,1.313 18.480 C 1.467 19.953,1.812 20.851,2.481 21.519 C 3.149 22.188,4.044 22.531,5.520 22.687 C 5.911 22.728,7.328 22.740,12.000 22.740 C 16.672 22.740,18.089 22.728,18.480 22.687 C 19.956 22.531,20.851 22.188,21.519 21.519 C 22.188 20.851,22.533 19.953,22.687 18.480 C 22.759 17.790,22.759 14.210,22.687 13.520 C 22.533 12.048,22.188 11.150,21.520 10.481 C 20.870 9.830,20.013 9.492,18.560 9.315 C 18.295 9.283,16.446 9.264,12.470 9.252 L 6.760 9.235 6.760 8.262 C 6.760 7.202,6.800 6.676,6.926 6.060 C 7.311 4.188,8.340 3.233,10.359 2.873 C 10.941 2.770,12.352 2.730,13.079 2.796 C 15.155 2.987,16.408 3.724,16.924 5.058 C 17.102 5.518,17.199 6.017,17.238 6.666 C 17.266 7.145,17.285 7.259,17.359 7.378 C 17.700 7.930,18.578 7.807,18.710 7.187 C 18.763 6.939,18.700 5.971,18.599 5.486 C 18.149 3.322,16.808 2.028,14.472 1.504 C 13.582 1.304,12.227 1.213,11.169 1.281 M18.920 10.867 C 20.151 11.108,20.650 11.485,20.961 12.411 C 21.202 13.126,21.220 13.379,21.220 16.000 C 21.220 18.121,21.212 18.427,21.147 18.815 C 21.011 19.619,20.805 20.112,20.458 20.458 C 20.112 20.805,19.619 21.011,18.815 21.147 C 18.406 21.216,17.998 21.220,12.000 21.220 C 5.977 21.220,5.595 21.216,5.180 21.146 C 4.397 21.014,3.795 20.759,3.501 20.435 C 3.193 20.096,2.979 19.560,2.854 18.820 C 2.788 18.426,2.780 18.131,2.780 16.000 C 2.780 13.379,2.798 13.126,3.039 12.411 C 3.253 11.772,3.537 11.430,4.059 11.180 C 4.485 10.976,4.815 10.900,5.780 10.785 C 5.846 10.777,8.735 10.774,12.200 10.778 C 18.376 10.785,18.508 10.787,18.920 10.867 M11.405 12.805 C 10.790 12.907,10.216 13.217,9.716 13.716 C 9.065 14.368,8.761 15.095,8.761 16.000 C 8.761 16.905,9.065 17.632,9.716 18.284 C 10.368 18.935,11.095 19.239,12.000 19.239 C 12.905 19.239,13.632 18.935,14.284 18.284 C 14.935 17.632,15.239 16.905,15.239 16.000 C 15.239 15.095,14.935 14.368,14.284 13.716 C 13.619 13.052,12.889 12.753,11.960 12.765 C 11.773 12.767,11.523 12.785,11.405 12.805 M12.293 14.279 C 12.634 14.335,12.931 14.487,13.202 14.745 C 13.929 15.439,13.929 16.561,13.202 17.255 C 12.511 17.914,11.489 17.914,10.798 17.255 C 10.090 16.580,10.068 15.508,10.745 14.798 C 11.164 14.359,11.696 14.181,12.293 14.279 " stroke="none" fill-rule="evenodd" fill="black"></path></svg>