<svg width="24" height="24" viewBox="0 0 24 24" fill="none" xmlns="http://www.w3.org/2000/svg"><path d="M11.533 1.282 C 9.517 1.447,7.758 2.641,6.851 4.460 C 6.072 6.023,6.072 7.977,6.851 9.540 C 8.149 12.142,11.146 13.367,13.895 12.418 C 14.564 12.187,15.254 11.784,15.787 11.313 C 17.543 9.763,18.184 7.323,17.418 5.105 C 16.771 3.233,15.117 1.776,13.189 1.383 C 12.932 1.330,11.989 1.229,11.920 1.246 C 11.909 1.249,11.735 1.265,11.533 1.282 M13.020 2.873 C 13.575 3.029,13.918 3.182,14.350 3.468 C 14.982 3.884,15.592 4.604,15.869 5.260 C 16.183 6.001,16.218 6.174,16.218 7.000 C 16.218 7.826,16.183 7.999,15.869 8.740 C 15.498 9.618,14.618 10.498,13.740 10.869 C 12.999 11.183,12.826 11.218,12.000 11.218 C 11.174 11.218,11.001 11.183,10.260 10.869 C 9.340 10.480,8.472 9.588,8.083 8.631 C 7.825 7.995,7.780 7.750,7.782 6.980 C 7.783 6.407,7.797 6.249,7.871 5.974 C 8.330 4.280,9.627 3.108,11.400 2.784 C 11.455 2.774,11.779 2.772,12.120 2.780 C 12.581 2.790,12.812 2.814,13.020 2.873 M11.240 14.284 C 7.731 14.503,4.623 16.415,3.313 19.160 C 2.938 19.947,2.729 20.779,2.693 21.627 C 2.669 22.182,2.670 22.197,2.770 22.367 C 2.905 22.597,3.143 22.731,3.417 22.731 C 3.872 22.731,4.160 22.403,4.160 21.884 C 4.160 21.374,4.295 20.709,4.515 20.139 C 5.057 18.735,6.422 17.358,7.986 16.637 C 9.398 15.987,10.662 15.730,12.244 15.771 C 13.127 15.794,13.630 15.859,14.356 16.042 C 14.611 16.107,14.897 16.160,14.992 16.160 C 15.487 16.160,15.840 15.645,15.663 15.181 C 15.524 14.817,15.271 14.697,14.200 14.483 C 13.252 14.293,12.209 14.223,11.240 14.284 M19.710 14.534 C 19.561 14.585,19.318 14.710,19.170 14.811 C 18.998 14.929,18.177 15.722,16.914 16.988 C 14.787 19.121,14.780 19.130,14.663 19.650 C 14.553 20.135,14.430 21.201,14.449 21.493 C 14.471 21.840,14.595 22.105,14.847 22.346 C 15.258 22.739,15.572 22.785,16.737 22.622 C 17.543 22.509,17.824 22.432,18.110 22.246 C 18.208 22.182,19.161 21.259,20.228 20.195 C 22.290 18.137,22.485 17.912,22.639 17.414 C 22.746 17.068,22.746 16.614,22.641 16.271 C 22.424 15.569,21.593 14.737,20.894 14.521 C 20.528 14.408,20.065 14.413,19.710 14.534 M20.552 15.996 C 20.723 16.083,21.080 16.446,21.175 16.630 C 21.211 16.699,21.240 16.798,21.240 16.850 C 21.240 16.970,21.055 17.257,20.853 17.450 L 20.696 17.600 20.498 17.476 C 20.224 17.305,19.900 16.985,19.714 16.702 L 19.558 16.465 19.749 16.269 C 19.958 16.055,20.170 15.925,20.312 15.922 C 20.362 15.921,20.470 15.954,20.552 15.996 M18.576 17.684 C 18.686 17.870,19.143 18.341,19.375 18.508 C 19.488 18.589,19.588 18.661,19.598 18.669 C 19.623 18.688,17.361 20.954,17.264 21.007 C 17.189 21.048,15.972 21.239,15.947 21.213 C 15.939 21.206,15.976 20.908,16.027 20.550 L 16.121 19.900 17.290 18.730 C 17.933 18.087,18.469 17.560,18.481 17.560 C 18.493 17.560,18.536 17.616,18.576 17.684 " stroke="none" fill-rule="evenodd" fill="black"></path></svg>