<svg width="24" height="24" viewBox="0 0 24 24" fill="none" xmlns="http://www.w3.org/2000/svg"><path d="M11.740 1.268 C 11.248 1.296,10.725 1.439,10.260 1.671 C 9.856 1.873,4.364 5.045,3.960 5.310 C 3.047 5.909,2.475 6.753,2.233 7.860 C 2.156 8.210,2.156 15.790,2.233 16.140 C 2.474 17.244,3.046 18.094,3.936 18.675 C 4.365 18.954,9.852 22.125,10.260 22.329 C 10.825 22.611,11.321 22.727,11.973 22.727 C 12.647 22.728,13.170 22.613,13.700 22.349 C 14.049 22.175,19.857 18.817,20.137 18.627 C 20.798 18.181,21.378 17.394,21.632 16.600 C 21.823 16.000,21.820 16.083,21.820 12.000 C 21.820 7.916,21.823 7.998,21.631 7.400 C 21.374 6.597,20.803 5.822,20.137 5.373 C 19.857 5.183,14.049 1.825,13.700 1.651 C 13.149 1.376,12.400 1.229,11.740 1.268 M12.477 2.799 C 12.591 2.821,12.797 2.889,12.935 2.949 C 13.072 3.010,14.561 3.852,16.243 4.820 C 19.165 6.502,19.313 6.593,19.604 6.880 C 19.935 7.207,20.147 7.575,20.259 8.018 C 20.350 8.376,20.350 15.624,20.259 15.982 C 20.147 16.423,19.935 16.791,19.602 17.119 C 19.310 17.407,19.161 17.498,16.241 19.180 C 14.560 20.148,13.076 20.989,12.942 21.048 C 12.589 21.207,12.317 21.252,11.860 21.230 C 11.572 21.216,11.386 21.183,11.197 21.113 C 10.879 20.995,4.800 17.491,4.540 17.276 C 4.145 16.949,3.872 16.519,3.731 16.000 C 3.665 15.760,3.660 15.451,3.660 12.000 C 3.660 7.797,3.643 8.054,3.964 7.437 C 4.282 6.825,4.305 6.809,7.802 4.792 C 9.507 3.808,10.970 2.975,11.053 2.941 C 11.464 2.769,12.022 2.713,12.477 2.799 M11.360 5.660 C 10.232 5.887,9.288 6.807,8.997 7.963 C 8.907 8.319,8.925 9.118,9.032 9.492 C 9.350 10.608,10.259 11.456,11.380 11.683 C 11.887 11.785,12.588 11.732,13.080 11.555 C 13.957 11.238,14.704 10.427,14.960 9.514 C 15.198 8.662,15.054 7.715,14.575 6.994 C 14.239 6.486,13.644 5.992,13.145 5.805 C 12.617 5.608,11.906 5.550,11.360 5.660 M12.282 7.120 C 12.603 7.181,12.878 7.326,13.103 7.552 C 13.580 8.034,13.705 8.728,13.426 9.339 C 13.294 9.627,12.947 9.973,12.651 10.112 C 12.446 10.208,12.373 10.220,12.000 10.220 C 11.627 10.220,11.554 10.208,11.349 10.112 C 11.053 9.973,10.706 9.627,10.574 9.339 C 10.103 8.309,10.828 7.132,11.965 7.084 C 12.022 7.082,12.165 7.098,12.282 7.120 M11.538 12.681 C 9.773 12.825,8.295 13.752,7.618 15.140 C 7.315 15.761,7.170 16.682,7.329 16.980 C 7.471 17.246,7.716 17.400,8.000 17.400 C 8.201 17.400,8.353 17.341,8.494 17.207 C 8.666 17.044,8.715 16.920,8.760 16.523 C 8.807 16.105,8.899 15.834,9.093 15.544 C 9.388 15.102,9.950 14.653,10.475 14.439 C 11.013 14.220,11.244 14.181,12.000 14.181 C 12.756 14.181,12.987 14.220,13.525 14.439 C 14.050 14.653,14.612 15.102,14.907 15.544 C 15.101 15.834,15.193 16.105,15.240 16.523 C 15.285 16.920,15.334 17.044,15.506 17.207 C 15.647 17.341,15.799 17.400,16.000 17.400 C 16.284 17.400,16.529 17.246,16.671 16.980 C 16.829 16.683,16.685 15.762,16.382 15.140 C 15.588 13.507,13.626 12.511,11.538 12.681 " stroke="none" fill-rule="evenodd" fill="black"></path></svg>