<svg width="24" height="24" viewBox="0 0 24 24" fill="none" xmlns="http://www.w3.org/2000/svg"><path d="M11.533 1.282 C 9.517 1.447,7.758 2.641,6.851 4.460 C 6.072 6.023,6.072 7.977,6.851 9.540 C 8.149 12.142,11.146 13.367,13.895 12.418 C 14.564 12.187,15.254 11.784,15.787 11.313 C 17.543 9.763,18.184 7.323,17.418 5.105 C 16.771 3.233,15.117 1.776,13.189 1.383 C 12.932 1.330,11.989 1.229,11.920 1.246 C 11.909 1.249,11.735 1.265,11.533 1.282 M13.020 2.873 C 13.575 3.029,13.918 3.182,14.350 3.468 C 14.982 3.884,15.592 4.604,15.869 5.260 C 16.183 6.001,16.218 6.174,16.218 7.000 C 16.218 7.826,16.183 7.999,15.869 8.740 C 15.498 9.618,14.618 10.498,13.740 10.869 C 12.999 11.183,12.826 11.218,12.000 11.218 C 11.174 11.218,11.001 11.183,10.260 10.869 C 9.340 10.480,8.472 9.588,8.083 8.631 C 7.825 7.995,7.780 7.750,7.782 6.980 C 7.783 6.407,7.797 6.249,7.871 5.974 C 8.330 4.280,9.627 3.108,11.400 2.784 C 11.455 2.774,11.779 2.772,12.120 2.780 C 12.581 2.790,12.812 2.814,13.020 2.873 M11.240 14.285 C 7.741 14.497,4.623 16.415,3.313 19.160 C 2.938 19.947,2.729 20.779,2.693 21.627 C 2.669 22.182,2.670 22.197,2.770 22.367 C 2.905 22.597,3.143 22.731,3.417 22.731 C 3.872 22.731,4.160 22.403,4.160 21.884 C 4.160 20.882,4.573 19.736,5.272 18.800 C 5.887 17.977,6.983 17.098,7.949 16.653 C 9.300 16.031,10.527 15.760,12.000 15.760 C 15.100 15.760,17.862 17.188,19.157 19.460 C 19.582 20.205,19.840 21.122,19.840 21.884 C 19.840 22.404,20.128 22.731,20.586 22.731 C 20.859 22.731,21.106 22.589,21.236 22.358 C 21.328 22.194,21.331 22.168,21.307 21.624 C 21.213 19.500,20.011 17.472,18.020 16.077 C 16.834 15.247,15.324 14.647,13.800 14.401 C 13.355 14.330,12.144 14.232,11.880 14.246 C 11.825 14.249,11.537 14.266,11.240 14.285 " stroke="none" fill-rule="evenodd" fill="black"></path></svg>