<svg width="24" height="24" viewBox="0 0 24 24" fill="none" xmlns="http://www.w3.org/2000/svg"><path d="M11.533 1.282 C 9.517 1.447,7.758 2.641,6.851 4.460 C 6.072 6.023,6.072 7.977,6.851 9.540 C 8.149 12.142,11.146 13.367,13.895 12.418 C 14.564 12.187,15.254 11.784,15.787 11.313 C 17.543 9.763,18.184 7.323,17.418 5.105 C 16.771 3.233,15.117 1.776,13.189 1.383 C 12.932 1.330,11.989 1.229,11.920 1.246 C 11.909 1.249,11.735 1.265,11.533 1.282 M13.020 2.873 C 13.575 3.029,13.918 3.182,14.350 3.468 C 14.982 3.884,15.592 4.604,15.869 5.260 C 16.183 6.001,16.218 6.174,16.218 7.000 C 16.218 7.826,16.183 7.999,15.869 8.740 C 15.498 9.618,14.618 10.498,13.740 10.869 C 12.999 11.183,12.826 11.218,12.000 11.218 C 11.174 11.218,11.001 11.183,10.260 10.869 C 9.340 10.480,8.472 9.588,8.083 8.631 C 7.825 7.995,7.780 7.750,7.782 6.980 C 7.783 6.407,7.797 6.249,7.871 5.974 C 8.330 4.280,9.627 3.108,11.400 2.784 C 11.455 2.774,11.779 2.772,12.120 2.780 C 12.581 2.790,12.812 2.814,13.020 2.873 M17.579 13.280 C 16.585 13.367,15.511 13.828,14.853 14.450 C 14.709 14.586,14.787 14.588,13.869 14.425 C 9.774 13.701,5.531 15.409,3.644 18.540 C 3.065 19.502,2.738 20.563,2.693 21.627 C 2.669 22.182,2.670 22.197,2.770 22.367 C 2.905 22.597,3.143 22.731,3.417 22.731 C 3.872 22.731,4.160 22.403,4.160 21.884 C 4.160 21.753,4.179 21.508,4.203 21.339 C 4.370 20.138,4.925 19.070,5.878 18.119 C 7.174 16.825,8.908 16.040,11.004 15.799 C 11.705 15.718,13.721 15.805,13.720 15.916 C 13.720 15.929,13.666 16.073,13.599 16.236 C 13.331 16.894,13.216 17.687,13.281 18.432 C 13.478 20.690,15.315 22.520,17.580 22.717 C 19.897 22.917,21.979 21.451,22.579 19.196 C 23.011 17.571,22.549 15.867,21.348 14.661 C 20.343 13.652,18.989 13.156,17.579 13.280 M18.658 14.820 C 19.711 15.043,20.618 15.803,21.023 16.801 C 21.640 18.317,20.938 20.156,19.465 20.881 C 18.934 21.143,18.543 21.240,18.016 21.240 C 17.066 21.240,16.390 20.951,15.678 20.241 C 15.388 19.952,15.305 19.836,15.128 19.480 C 14.826 18.874,14.747 18.513,14.771 17.860 C 14.803 17.008,15.049 16.409,15.611 15.815 C 16.120 15.278,16.657 14.967,17.324 14.822 C 17.664 14.748,18.314 14.747,18.658 14.820 M16.167 17.326 C 15.909 17.453,15.780 17.672,15.780 17.980 C 15.780 18.186,15.799 18.254,15.894 18.392 C 15.960 18.486,16.081 18.592,16.177 18.639 C 16.338 18.716,16.417 18.720,18.000 18.720 C 19.583 18.720,19.662 18.716,19.823 18.639 C 19.919 18.592,20.040 18.486,20.106 18.392 C 20.201 18.254,20.220 18.186,20.220 17.980 C 20.220 17.774,20.201 17.706,20.106 17.568 C 20.040 17.474,19.919 17.368,19.823 17.321 C 19.662 17.244,19.583 17.240,17.997 17.240 C 16.383 17.240,16.335 17.242,16.167 17.326 " stroke="none" fill-rule="evenodd" fill="black"></path></svg>