<svg width="24" height="24" viewBox="0 0 24 24" fill="none" xmlns="http://www.w3.org/2000/svg"><path d="M5.353 1.321 C 4.112 1.533,3.026 2.399,2.547 3.560 C 2.246 4.290,2.266 3.848,2.250 10.140 C 2.236 15.847,2.246 16.319,2.383 16.852 C 2.545 17.485,3.056 18.291,3.555 18.702 C 4.351 19.356,5.084 19.598,6.280 19.600 C 7.007 19.602,7.349 19.654,7.711 19.820 C 8.025 19.964,8.174 20.093,9.280 21.182 C 10.234 22.121,10.440 22.298,10.787 22.474 C 11.481 22.826,12.612 22.808,13.277 22.434 C 13.633 22.235,13.761 22.121,14.860 21.041 C 15.739 20.176,15.943 19.995,16.180 19.873 C 16.334 19.793,16.532 19.706,16.620 19.680 C 16.708 19.653,17.194 19.618,17.700 19.601 C 18.779 19.564,19.037 19.512,19.660 19.203 C 20.702 18.686,21.425 17.760,21.669 16.628 C 21.735 16.323,21.740 15.895,21.740 10.440 C 21.740 4.911,21.736 4.561,21.667 4.240 C 21.370 2.864,20.396 1.824,18.997 1.393 L 18.700 1.301 12.120 1.295 C 8.501 1.291,5.456 1.303,5.353 1.321 M18.775 2.887 C 19.473 3.158,20.000 3.736,20.180 4.428 C 20.272 4.778,20.270 16.108,20.179 16.458 C 19.996 17.160,19.411 17.762,18.660 18.021 C 18.506 18.074,18.242 18.097,17.520 18.121 C 16.746 18.147,16.528 18.168,16.285 18.238 C 15.396 18.495,15.086 18.713,13.766 20.015 C 12.791 20.976,12.678 21.075,12.460 21.157 C 12.147 21.275,11.711 21.260,11.440 21.121 C 11.327 21.063,10.882 20.656,10.240 20.023 C 9.154 18.953,8.892 18.738,8.357 18.482 C 7.790 18.211,7.507 18.157,6.460 18.119 C 5.954 18.101,5.468 18.065,5.380 18.039 C 4.655 17.826,4.006 17.168,3.821 16.458 C 3.730 16.108,3.728 4.778,3.820 4.428 C 4.030 3.620,4.721 2.967,5.540 2.801 C 5.628 2.783,8.580 2.771,12.100 2.774 L 18.500 2.780 18.775 2.887 M11.360 4.660 C 10.232 4.887,9.288 5.807,8.997 6.963 C 8.907 7.319,8.925 8.118,9.032 8.492 C 9.350 9.608,10.259 10.456,11.380 10.683 C 11.887 10.785,12.588 10.732,13.080 10.555 C 13.957 10.238,14.704 9.427,14.960 8.514 C 15.198 7.662,15.054 6.715,14.575 5.994 C 14.239 5.486,13.644 4.992,13.145 4.805 C 12.617 4.608,11.906 4.550,11.360 4.660 M12.282 6.120 C 12.603 6.181,12.878 6.326,13.103 6.552 C 13.580 7.034,13.705 7.728,13.426 8.339 C 13.294 8.627,12.947 8.973,12.651 9.112 C 12.446 9.208,12.373 9.220,12.000 9.220 C 11.627 9.220,11.554 9.208,11.349 9.112 C 11.053 8.973,10.706 8.627,10.574 8.339 C 10.103 7.309,10.828 6.132,11.965 6.084 C 12.022 6.082,12.165 6.098,12.282 6.120 M11.538 11.681 C 9.773 11.825,8.295 12.752,7.618 14.140 C 7.315 14.761,7.170 15.682,7.329 15.980 C 7.471 16.246,7.716 16.400,8.000 16.400 C 8.201 16.400,8.353 16.341,8.494 16.207 C 8.666 16.044,8.715 15.920,8.760 15.523 C 8.807 15.105,8.899 14.834,9.093 14.544 C 9.388 14.102,9.950 13.653,10.475 13.439 C 11.013 13.220,11.244 13.181,12.000 13.181 C 12.756 13.181,12.987 13.220,13.525 13.439 C 14.050 13.653,14.612 14.102,14.907 14.544 C 15.101 14.834,15.193 15.105,15.240 15.523 C 15.285 15.920,15.334 16.044,15.506 16.207 C 15.647 16.341,15.799 16.400,16.000 16.400 C 16.284 16.400,16.529 16.246,16.671 15.980 C 16.829 15.683,16.685 14.762,16.382 14.140 C 15.588 12.507,13.626 11.511,11.538 11.681 " stroke="none" fill-rule="evenodd" fill="black"></path></svg>