<svg width="24" height="24" viewBox="0 0 24 24" fill="none" xmlns="http://www.w3.org/2000/svg"><path d="M18.579 0.280 C 17.509 0.374,16.525 0.818,15.744 1.559 C 15.422 1.865,15.016 2.374,14.878 2.644 L 14.802 2.792 14.491 2.696 C 13.538 2.402,12.631 2.274,11.500 2.274 C 10.388 2.275,9.528 2.394,8.550 2.685 C 7.353 3.040,6.019 3.749,5.010 4.565 C 4.612 4.888,3.888 5.612,3.565 6.010 C 2.944 6.778,2.333 7.824,1.964 8.749 C 1.189 10.695,1.050 12.954,1.577 15.045 C 1.758 15.763,1.940 16.249,2.322 17.030 C 2.831 18.069,3.443 18.926,4.258 19.742 C 5.025 20.509,5.880 21.132,6.820 21.609 C 8.370 22.396,9.753 22.726,11.500 22.726 C 13.243 22.726,14.634 22.394,16.180 21.609 C 17.120 21.132,17.975 20.509,18.742 19.742 C 20.358 18.125,21.347 16.111,21.664 13.786 C 21.738 13.242,21.749 11.937,21.684 11.380 C 21.622 10.846,21.465 10.069,21.324 9.592 L 21.210 9.204 21.575 8.975 C 22.057 8.672,22.700 8.025,22.994 7.550 C 24.186 5.618,23.926 3.246,22.348 1.661 C 21.343 0.652,19.989 0.156,18.579 0.280 M19.658 1.820 C 20.711 2.043,21.618 2.803,22.023 3.801 C 22.366 4.645,22.302 5.666,21.852 6.532 C 21.695 6.833,21.587 6.973,21.260 7.302 C 20.818 7.746,20.547 7.908,19.917 8.106 C 19.624 8.198,19.507 8.212,19.020 8.216 C 18.360 8.221,18.121 8.169,17.580 7.903 C 16.161 7.207,15.452 5.589,15.898 4.068 C 16.074 3.467,16.299 3.102,16.767 2.654 C 17.222 2.219,17.721 1.953,18.324 1.822 C 18.664 1.748,19.314 1.747,19.658 1.820 M18.815 2.797 C 18.638 2.841,18.461 2.976,18.355 3.149 C 18.277 3.274,18.261 3.365,18.247 3.768 L 18.230 4.240 17.788 4.240 C 17.257 4.240,17.059 4.313,16.887 4.572 C 16.800 4.704,16.780 4.780,16.780 4.980 C 16.780 5.186,16.799 5.254,16.894 5.392 C 17.075 5.652,17.260 5.720,17.788 5.720 L 18.230 5.720 18.247 6.210 C 18.261 6.638,18.276 6.722,18.361 6.874 C 18.638 7.366,19.362 7.366,19.639 6.874 C 19.724 6.722,19.739 6.638,19.753 6.210 L 19.770 5.720 20.212 5.720 C 20.740 5.720,20.925 5.652,21.106 5.392 C 21.201 5.254,21.220 5.186,21.220 4.980 C 21.220 4.774,21.201 4.706,21.106 4.568 C 20.925 4.307,20.741 4.240,20.207 4.240 L 19.760 4.240 19.759 3.890 C 19.758 3.463,19.706 3.222,19.580 3.056 C 19.421 2.847,19.078 2.731,18.815 2.797 M12.628 3.821 C 13.100 3.882,13.773 4.027,14.130 4.144 C 14.308 4.202,14.318 4.213,14.290 4.313 C 14.232 4.518,14.260 5.563,14.331 5.902 C 14.536 6.873,14.950 7.639,15.636 8.321 C 16.086 8.767,16.414 9.009,16.904 9.254 C 17.629 9.616,18.450 9.787,19.248 9.743 C 19.484 9.730,19.703 9.709,19.736 9.696 C 19.780 9.679,19.815 9.743,19.879 9.958 C 20.124 10.778,20.238 11.583,20.239 12.488 C 20.242 14.444,19.647 16.232,18.479 17.780 C 18.184 18.171,17.544 18.869,17.361 18.999 L 17.247 19.081 17.178 18.870 C 16.612 17.131,14.932 15.787,12.780 15.349 C 12.404 15.273,12.213 15.260,11.460 15.260 C 10.707 15.260,10.516 15.273,10.140 15.349 C 8.570 15.668,7.232 16.471,6.411 17.586 C 6.165 17.920,5.846 18.527,5.757 18.830 C 5.730 18.924,5.685 19.000,5.657 19.000 C 5.583 19.000,4.832 18.194,4.520 17.780 C 3.595 16.550,3.010 15.115,2.818 13.602 C 2.728 12.888,2.754 11.668,2.873 11.000 C 3.195 9.205,4.028 7.609,5.319 6.319 C 6.691 4.947,8.438 4.075,10.320 3.824 C 10.898 3.747,12.045 3.746,12.628 3.821 M10.940 7.402 C 9.555 7.617,8.420 8.623,8.032 9.980 C 7.954 10.252,7.940 10.394,7.940 10.920 C 7.940 11.446,7.954 11.588,8.032 11.860 C 8.314 12.845,8.985 13.653,9.891 14.099 C 10.453 14.376,10.789 14.451,11.460 14.451 C 12.131 14.451,12.467 14.376,13.029 14.099 C 13.935 13.653,14.606 12.845,14.888 11.860 C 14.966 11.588,14.980 11.446,14.980 10.920 C 14.980 10.394,14.966 10.252,14.888 9.980 C 14.537 8.755,13.547 7.783,12.340 7.478 C 11.970 7.385,11.288 7.347,10.940 7.402 M11.747 8.883 C 12.198 8.945,12.582 9.139,12.916 9.474 C 13.838 10.402,13.686 11.909,12.596 12.637 C 11.923 13.086,10.997 13.086,10.324 12.637 C 9.234 11.909,9.082 10.402,10.004 9.474 C 10.320 9.157,10.726 8.943,11.120 8.887 C 11.263 8.867,11.392 8.848,11.407 8.845 C 11.422 8.842,11.575 8.859,11.747 8.883 M12.259 16.781 C 13.499 16.967,14.554 17.531,15.212 18.358 C 15.601 18.846,15.904 19.576,15.872 19.948 C 15.861 20.089,15.844 20.105,15.540 20.267 C 14.731 20.697,13.600 21.052,12.640 21.177 C 12.015 21.258,10.985 21.258,10.360 21.177 C 9.378 21.049,8.254 20.693,7.420 20.243 L 7.060 20.050 7.064 19.833 C 7.066 19.714,7.100 19.518,7.140 19.398 C 7.533 18.199,8.623 17.272,10.083 16.895 C 10.786 16.714,11.551 16.674,12.259 16.781 " stroke="none" fill-rule="evenodd" fill="black"></path></svg>