<svg width="24" height="24" viewBox="0 0 24 24" fill="none" xmlns="http://www.w3.org/2000/svg"><path d="M8.080 1.282 C 4.008 1.495,1.895 3.296,1.383 6.991 C 1.271 7.799,1.242 8.812,1.241 11.900 C 1.241 15.047,1.272 16.173,1.381 16.960 C 1.820 20.149,3.391 21.904,6.343 22.501 C 7.483 22.732,7.662 22.740,12.000 22.740 C 16.338 22.740,16.517 22.732,17.657 22.501 C 20.608 21.904,22.180 20.148,22.619 16.960 C 22.727 16.176,22.759 15.050,22.759 11.940 C 22.759 8.900,22.728 7.784,22.622 7.027 C 22.359 5.157,21.686 3.741,20.641 2.857 C 19.477 1.874,18.011 1.396,15.806 1.280 C 14.952 1.235,8.952 1.237,8.080 1.282 M16.800 2.854 C 19.586 3.316,20.714 4.454,21.148 7.240 C 21.214 7.661,21.220 8.064,21.220 12.000 C 21.220 15.956,21.214 16.337,21.148 16.760 C 21.045 17.411,20.943 17.849,20.797 18.262 C 20.540 18.991,20.273 19.410,19.750 19.902 C 19.407 20.226,18.778 20.638,18.723 20.575 C 18.707 20.556,18.652 20.423,18.601 20.280 C 18.356 19.583,17.918 18.916,17.301 18.300 C 15.951 16.952,14.105 16.232,12.000 16.232 C 9.895 16.232,8.049 16.952,6.699 18.300 C 6.082 18.916,5.644 19.583,5.399 20.280 C 5.348 20.423,5.293 20.556,5.277 20.575 C 5.222 20.638,4.593 20.226,4.250 19.902 C 3.462 19.160,3.104 18.353,2.852 16.760 C 2.786 16.337,2.780 15.956,2.780 12.000 C 2.780 7.247,2.776 7.337,3.044 6.288 C 3.557 4.282,4.722 3.274,6.960 2.900 C 7.690 2.777,8.048 2.769,12.200 2.777 C 15.963 2.784,16.422 2.791,16.800 2.854 M11.580 6.264 C 10.908 6.362,10.543 6.469,10.060 6.711 C 9.123 7.180,8.351 8.015,7.978 8.965 C 7.745 9.556,7.702 9.807,7.702 10.580 C 7.702 11.196,7.715 11.346,7.790 11.620 C 8.029 12.494,8.400 13.124,9.029 13.724 C 10.319 14.953,12.182 15.263,13.822 14.522 C 14.598 14.171,15.384 13.428,15.813 12.640 C 16.386 11.588,16.483 10.186,16.059 9.062 C 15.542 7.688,14.316 6.634,12.892 6.340 C 12.585 6.276,11.805 6.231,11.580 6.264 M12.592 7.822 C 13.530 8.011,14.370 8.755,14.676 9.666 C 14.861 10.220,14.856 10.973,14.662 11.530 C 14.388 12.317,13.734 12.967,12.925 13.257 C 12.600 13.373,12.547 13.380,12.000 13.380 C 11.453 13.380,11.400 13.373,11.075 13.257 C 10.462 13.037,9.898 12.578,9.567 12.028 C 9.075 11.209,9.059 10.030,9.529 9.205 C 10.146 8.122,11.359 7.574,12.592 7.822 M13.100 17.820 C 15.033 18.154,16.529 19.224,17.150 20.717 C 17.273 21.013,17.267 21.066,17.110 21.094 C 16.432 21.214,16.191 21.220,12.000 21.220 C 7.809 21.220,7.568 21.214,6.890 21.094 C 6.733 21.066,6.727 21.013,6.850 20.717 C 7.518 19.112,9.187 18.004,11.304 17.761 C 11.727 17.713,12.655 17.743,13.100 17.820 " stroke="none" fill-rule="evenodd" fill="black"></path></svg>