<svg width="24" height="24" viewBox="0 0 24 24" fill="none" xmlns="http://www.w3.org/2000/svg"><path d="M11.533 1.282 C 9.517 1.447,7.758 2.641,6.851 4.460 C 6.072 6.023,6.072 7.977,6.851 9.540 C 8.149 12.142,11.146 13.367,13.895 12.418 C 14.564 12.187,15.254 11.784,15.787 11.313 C 17.543 9.763,18.184 7.323,17.418 5.105 C 16.771 3.233,15.117 1.776,13.189 1.383 C 12.932 1.330,11.989 1.229,11.920 1.246 C 11.909 1.249,11.735 1.265,11.533 1.282 M13.020 2.873 C 13.575 3.029,13.918 3.182,14.350 3.468 C 14.982 3.884,15.592 4.604,15.869 5.260 C 16.183 6.001,16.218 6.174,16.218 7.000 C 16.218 7.826,16.183 7.999,15.869 8.740 C 15.498 9.618,14.618 10.498,13.740 10.869 C 12.999 11.183,12.826 11.218,12.000 11.218 C 11.174 11.218,11.001 11.183,10.260 10.869 C 9.340 10.480,8.472 9.588,8.083 8.631 C 7.825 7.995,7.780 7.750,7.782 6.980 C 7.783 6.407,7.797 6.249,7.871 5.974 C 8.330 4.280,9.627 3.108,11.400 2.784 C 11.455 2.774,11.779 2.772,12.120 2.780 C 12.581 2.790,12.812 2.814,13.020 2.873 M11.240 14.285 C 7.741 14.497,4.623 16.415,3.313 19.160 C 2.938 19.947,2.729 20.779,2.693 21.627 C 2.669 22.182,2.670 22.197,2.770 22.367 C 2.905 22.597,3.143 22.731,3.417 22.731 C 3.872 22.731,4.160 22.403,4.160 21.884 C 4.160 21.579,4.225 21.110,4.319 20.745 C 4.689 19.296,5.743 17.967,7.269 17.024 C 8.036 16.551,9.071 16.150,10.060 15.944 C 10.516 15.849,11.273 15.760,11.626 15.760 C 12.118 15.760,12.339 15.701,12.520 15.520 C 12.929 15.111,12.725 14.405,12.162 14.284 C 12.049 14.260,11.916 14.243,11.868 14.246 C 11.820 14.249,11.537 14.266,11.240 14.285 M17.780 14.284 C 16.888 14.378,16.061 14.775,15.418 15.418 C 14.077 16.759,13.884 18.805,14.946 20.430 C 15.139 20.726,15.674 21.261,15.970 21.454 C 17.278 22.309,18.935 22.361,20.212 21.587 L 20.405 21.470 21.012 22.070 C 21.562 22.612,21.638 22.673,21.810 22.710 C 22.388 22.833,22.833 22.388,22.710 21.810 C 22.673 21.638,22.612 21.562,22.070 21.012 L 21.470 20.405 21.587 20.212 C 22.132 19.313,22.279 18.137,21.978 17.097 C 21.788 16.442,21.471 15.907,20.982 15.418 C 20.317 14.754,19.521 14.381,18.557 14.282 C 18.334 14.259,18.140 14.242,18.126 14.245 C 18.112 14.248,17.956 14.266,17.780 14.284 M18.796 15.821 C 19.205 15.918,19.581 16.137,19.922 16.478 C 20.418 16.975,20.639 17.504,20.639 18.200 C 20.639 18.896,20.418 19.425,19.922 19.922 C 19.425 20.418,18.896 20.639,18.200 20.639 C 17.504 20.639,16.975 20.418,16.478 19.922 C 15.982 19.425,15.761 18.896,15.761 18.200 C 15.761 17.504,15.982 16.975,16.478 16.478 C 16.812 16.144,17.195 15.918,17.586 15.823 C 17.898 15.748,18.480 15.747,18.796 15.821 " stroke="none" fill-rule="evenodd" fill="black"></path></svg>