<svg width="24" height="24" viewBox="0 0 24 24" fill="none" xmlns="http://www.w3.org/2000/svg"><path d="M11.533 1.282 C 9.517 1.447,7.758 2.641,6.851 4.460 C 6.072 6.023,6.072 7.977,6.851 9.540 C 8.149 12.142,11.146 13.367,13.895 12.418 C 14.564 12.187,15.254 11.784,15.787 11.313 C 17.543 9.763,18.184 7.323,17.418 5.105 C 16.771 3.233,15.117 1.776,13.189 1.383 C 12.932 1.330,11.989 1.229,11.920 1.246 C 11.909 1.249,11.735 1.265,11.533 1.282 M13.020 2.873 C 13.575 3.029,13.918 3.182,14.350 3.468 C 14.982 3.884,15.592 4.604,15.869 5.260 C 16.183 6.001,16.218 6.174,16.218 7.000 C 16.218 7.826,16.183 7.999,15.869 8.740 C 15.498 9.618,14.618 10.498,13.740 10.869 C 12.999 11.183,12.826 11.218,12.000 11.218 C 11.174 11.218,11.001 11.183,10.260 10.869 C 9.340 10.480,8.472 9.588,8.083 8.631 C 7.825 7.995,7.780 7.750,7.782 6.980 C 7.783 6.407,7.797 6.249,7.871 5.974 C 8.330 4.280,9.627 3.108,11.400 2.784 C 11.455 2.774,11.779 2.772,12.120 2.780 C 12.581 2.790,12.812 2.814,13.020 2.873 M17.551 13.282 C 16.582 13.368,15.692 13.744,14.929 14.390 C 14.751 14.540,14.697 14.565,14.589 14.549 C 14.518 14.538,14.194 14.483,13.869 14.425 C 9.774 13.701,5.531 15.409,3.644 18.540 C 3.065 19.502,2.738 20.563,2.693 21.627 C 2.669 22.182,2.670 22.197,2.770 22.367 C 2.905 22.597,3.143 22.731,3.417 22.731 C 3.872 22.731,4.160 22.403,4.160 21.884 C 4.160 21.753,4.179 21.508,4.203 21.339 C 4.370 20.138,4.925 19.070,5.878 18.119 C 7.172 16.827,8.910 16.040,11.004 15.799 C 11.740 15.714,13.720 15.806,13.720 15.925 C 13.720 15.943,13.674 16.062,13.618 16.189 C 13.354 16.783,13.218 17.702,13.282 18.445 C 13.395 19.746,14.110 21.015,15.178 21.810 C 15.592 22.118,16.280 22.452,16.768 22.581 C 17.950 22.893,19.292 22.730,20.289 22.153 C 22.575 20.831,23.390 18.094,22.188 15.781 C 21.316 14.104,19.473 13.111,17.551 13.282 M18.980 14.894 C 19.508 15.068,19.854 15.286,20.284 15.716 C 20.937 16.368,21.196 16.956,21.229 17.860 C 21.253 18.514,21.174 18.875,20.872 19.480 C 20.696 19.832,20.607 19.956,20.321 20.245 C 19.629 20.946,18.937 21.240,17.984 21.240 C 16.229 21.240,14.763 19.779,14.761 18.028 C 14.759 17.106,15.087 16.316,15.727 15.696 C 16.193 15.244,16.642 14.989,17.237 14.838 C 17.694 14.722,18.538 14.749,18.980 14.894 M19.256 16.337 C 19.188 16.367,18.755 16.742,18.292 17.172 L 17.452 17.954 17.196 17.695 C 16.840 17.334,16.720 17.267,16.437 17.267 C 16.160 17.267,15.944 17.387,15.798 17.623 C 15.693 17.794,15.672 18.154,15.759 18.320 C 15.845 18.486,16.928 19.561,17.097 19.648 C 17.319 19.762,17.657 19.735,17.867 19.586 C 18.134 19.396,20.132 17.506,20.214 17.367 C 20.309 17.202,20.317 16.867,20.229 16.699 C 20.148 16.544,19.969 16.376,19.827 16.323 C 19.675 16.265,19.407 16.272,19.256 16.337 " stroke="none" fill-rule="evenodd" fill="black"></path></svg>