<svg width="24" height="24" viewBox="0 0 24 24" fill="none" xmlns="http://www.w3.org/2000/svg"><path d="M11.460 1.305 C 11.153 1.381,10.827 1.507,10.638 1.622 C 10.515 1.696,10.011 2.101,9.518 2.523 C 8.956 3.002,8.538 3.328,8.400 3.393 C 8.182 3.496,8.170 3.497,6.920 3.523 C 5.534 3.551,5.461 3.562,4.960 3.824 C 4.291 4.173,3.777 4.807,3.600 5.500 C 3.530 5.774,3.520 5.944,3.520 6.858 C 3.520 7.957,3.493 8.186,3.323 8.511 C 3.280 8.593,2.937 9.020,2.561 9.460 C 1.746 10.414,1.527 10.725,1.398 11.122 C 1.311 11.387,1.300 11.489,1.301 12.040 C 1.303 12.609,1.311 12.682,1.406 12.930 C 1.571 13.358,1.721 13.570,2.539 14.533 C 3.126 15.224,3.330 15.493,3.401 15.669 C 3.489 15.887,3.496 15.968,3.520 17.140 C 3.543 18.259,3.554 18.405,3.632 18.640 C 3.761 19.030,3.987 19.387,4.303 19.700 C 4.630 20.022,4.911 20.202,5.327 20.351 C 5.614 20.455,5.647 20.457,6.880 20.480 C 7.986 20.500,8.162 20.512,8.320 20.577 C 8.558 20.676,8.638 20.738,9.529 21.506 C 9.946 21.867,10.367 22.216,10.465 22.283 C 10.960 22.624,11.565 22.787,12.180 22.745 C 13.012 22.689,13.280 22.545,14.499 21.499 C 15.232 20.870,15.503 20.661,15.676 20.592 C 15.885 20.510,15.983 20.502,17.120 20.480 L 18.340 20.457 18.682 20.336 C 19.463 20.060,20.060 19.463,20.336 18.682 L 20.457 18.340 20.482 17.120 C 20.497 16.392,20.525 15.846,20.552 15.766 C 20.633 15.525,20.751 15.366,21.475 14.527 C 21.868 14.071,22.264 13.583,22.355 13.442 C 22.776 12.791,22.872 11.809,22.589 11.040 C 22.459 10.686,22.218 10.351,21.462 9.480 C 20.959 8.899,20.715 8.584,20.626 8.400 L 20.500 8.140 20.477 6.900 C 20.457 5.796,20.445 5.633,20.372 5.413 C 20.185 4.849,19.775 4.308,19.289 3.986 C 18.697 3.594,18.493 3.553,17.020 3.524 C 15.826 3.500,15.819 3.499,15.600 3.394 C 15.462 3.327,15.051 3.003,14.501 2.527 C 13.547 1.701,13.358 1.568,12.913 1.410 C 12.661 1.320,12.544 1.304,12.080 1.295 C 11.783 1.290,11.504 1.294,11.460 1.305 M12.546 2.872 C 12.638 2.919,13.107 3.297,13.590 3.712 C 14.528 4.519,14.778 4.693,15.224 4.853 C 15.643 5.002,16.018 5.040,17.076 5.040 C 18.158 5.040,18.278 5.063,18.576 5.324 C 18.676 5.413,18.805 5.584,18.868 5.711 L 18.980 5.940 19.001 7.160 C 19.022 8.366,19.024 8.384,19.134 8.700 C 19.322 9.238,19.459 9.441,20.287 10.406 C 20.727 10.918,21.110 11.383,21.140 11.439 C 21.295 11.740,21.288 12.275,21.125 12.586 C 21.080 12.671,20.717 13.118,20.317 13.580 C 19.539 14.478,19.384 14.689,19.228 15.062 C 19.037 15.519,19.030 15.575,19.004 16.860 C 18.981 18.049,18.976 18.108,18.887 18.288 C 18.769 18.527,18.527 18.769,18.288 18.887 C 18.108 18.976,18.049 18.981,16.880 19.004 C 15.531 19.030,15.419 19.047,14.908 19.303 C 14.536 19.490,14.553 19.477,13.580 20.320 C 12.626 21.145,12.453 21.251,12.044 21.253 C 11.567 21.256,11.478 21.204,10.423 20.301 C 9.429 19.451,9.187 19.288,8.660 19.117 C 8.401 19.032,8.286 19.024,7.140 19.002 C 5.986 18.981,5.887 18.973,5.714 18.894 C 5.490 18.791,5.236 18.546,5.112 18.312 C 5.024 18.147,5.020 18.092,4.998 16.900 C 4.975 15.692,4.972 15.652,4.867 15.340 C 4.694 14.821,4.487 14.510,3.701 13.587 C 3.293 13.106,2.918 12.638,2.870 12.547 C 2.741 12.304,2.741 11.737,2.870 11.480 C 2.920 11.381,3.303 10.897,3.721 10.404 C 4.139 9.910,4.534 9.415,4.598 9.303 C 4.663 9.190,4.774 8.928,4.846 8.719 L 4.977 8.340 4.999 7.120 C 5.018 5.987,5.026 5.887,5.104 5.720 C 5.220 5.474,5.451 5.249,5.717 5.125 C 5.938 5.022,5.952 5.021,7.180 4.997 C 8.540 4.971,8.601 4.961,9.123 4.699 C 9.448 4.535,9.593 4.425,10.455 3.686 C 11.318 2.946,11.400 2.885,11.609 2.816 C 11.856 2.736,12.336 2.764,12.546 2.872 M15.320 8.903 C 15.231 8.941,14.380 9.763,12.979 11.163 L 10.778 13.362 9.800 12.377 C 9.262 11.836,8.768 11.365,8.702 11.331 C 8.548 11.251,8.212 11.251,8.059 11.331 C 7.694 11.522,7.544 11.932,7.702 12.310 C 7.786 12.512,10.237 14.972,10.462 15.081 C 10.669 15.181,10.921 15.182,11.112 15.083 C 11.335 14.966,16.222 10.056,16.299 9.871 C 16.412 9.596,16.337 9.211,16.134 9.032 C 15.928 8.848,15.577 8.793,15.320 8.903 " stroke="none" fill-rule="evenodd" fill="black"></path></svg>