<svg width="24" height="24" viewBox="0 0 24 24" fill="none" xmlns="http://www.w3.org/2000/svg"><path d="M21.720 1.501 C 21.635 1.539,20.751 2.392,19.454 3.688 L 17.327 5.812 17.284 5.656 C 17.260 5.570,17.240 5.479,17.240 5.453 C 17.240 5.426,17.187 5.267,17.122 5.098 C 16.600 3.743,15.518 3.074,13.543 2.882 C 12.958 2.826,5.777 2.825,5.180 2.882 C 3.103 3.079,1.944 3.941,1.496 5.622 C 1.269 6.478,1.269 6.472,1.251 11.440 C 1.233 16.222,1.249 16.886,1.398 17.550 C 1.617 18.525,1.998 19.247,2.621 19.866 L 2.949 20.192 2.193 20.946 C 1.717 21.422,1.407 21.764,1.354 21.872 C 1.181 22.229,1.329 22.670,1.683 22.850 C 1.836 22.928,2.136 22.942,2.307 22.878 C 2.457 22.823,22.580 2.708,22.683 2.512 C 22.843 2.205,22.734 1.784,22.443 1.582 C 22.247 1.446,21.923 1.410,21.720 1.501 M13.354 4.361 C 14.309 4.445,14.902 4.637,15.273 4.980 C 15.709 5.384,15.881 5.878,15.885 6.736 L 15.887 7.253 9.974 13.166 C 6.721 16.419,4.035 19.080,4.003 19.080 C 3.972 19.080,3.809 18.939,3.641 18.766 C 3.290 18.405,3.018 17.917,2.871 17.380 L 2.783 17.060 2.769 12.120 C 2.755 6.980,2.762 6.718,2.924 6.085 C 3.212 4.957,3.850 4.507,5.360 4.363 C 5.865 4.315,12.815 4.313,13.354 4.361 M21.720 6.045 C 21.591 6.096,21.411 6.268,21.326 6.420 C 21.266 6.529,21.258 6.972,21.240 11.440 C 21.218 16.744,21.232 16.440,21.005 16.690 C 20.867 16.842,20.624 16.840,20.300 16.685 C 20.168 16.622,19.484 16.165,18.780 15.671 L 17.500 14.771 17.480 12.736 C 17.457 10.444,17.473 10.557,17.144 10.329 C 17.015 10.239,16.944 10.220,16.743 10.220 C 16.453 10.221,16.253 10.325,16.112 10.552 L 16.020 10.700 15.998 13.920 C 15.978 16.732,15.967 17.186,15.907 17.500 C 15.644 18.880,15.200 19.324,13.820 19.587 C 13.506 19.647,13.052 19.658,10.240 19.678 C 7.352 19.698,7.008 19.707,6.900 19.766 C 6.338 20.074,6.424 20.942,7.035 21.123 C 7.135 21.152,8.190 21.161,10.420 21.150 C 13.931 21.132,13.985 21.129,14.772 20.901 C 16.126 20.509,16.919 19.672,17.274 18.260 C 17.349 17.960,17.405 17.576,17.471 16.886 L 17.500 16.593 18.320 17.169 C 19.318 17.870,19.542 18.008,19.893 18.139 C 21.204 18.630,22.338 17.992,22.666 16.580 C 22.736 16.278,22.740 15.994,22.740 11.440 C 22.740 8.789,22.726 6.571,22.709 6.511 C 22.667 6.359,22.447 6.119,22.292 6.054 C 22.143 5.992,21.865 5.987,21.720 6.045 " stroke="none" fill-rule="evenodd" fill="black"></path></svg>