<svg width="24" height="24" viewBox="0 0 24 24" fill="none" xmlns="http://www.w3.org/2000/svg"><path d="M5.122 2.882 C 3.327 3.060,2.198 3.787,1.660 5.113 C 1.524 5.446,1.376 6.079,1.312 6.600 C 1.236 7.211,1.237 16.627,1.312 17.120 C 1.487 18.260,1.908 19.152,2.597 19.843 C 3.294 20.541,4.156 20.943,5.299 21.101 C 5.700 21.156,6.261 21.162,9.729 21.149 C 13.571 21.134,13.714 21.131,14.140 21.049 C 15.402 20.806,16.178 20.358,16.723 19.556 C 17.146 18.932,17.340 18.242,17.471 16.886 L 17.500 16.593 18.320 17.169 C 19.318 17.870,19.542 18.008,19.893 18.139 C 21.204 18.630,22.338 17.992,22.666 16.580 C 22.736 16.279,22.740 16.008,22.740 12.000 C 22.740 7.992,22.736 7.721,22.666 7.420 C 22.522 6.799,22.206 6.292,21.785 6.004 C 21.176 5.589,20.330 5.597,19.520 6.025 C 19.377 6.100,18.864 6.439,18.380 6.777 L 17.500 7.393 17.471 7.106 C 17.401 6.402,17.349 6.038,17.274 5.740 C 16.919 4.328,16.126 3.491,14.772 3.099 C 13.958 2.863,14.025 2.866,9.560 2.857 C 7.305 2.853,5.308 2.864,5.122 2.882 M13.840 4.414 C 15.218 4.687,15.662 5.141,15.907 6.528 C 15.975 6.912,15.980 7.285,15.980 12.000 C 15.980 16.736,15.975 17.087,15.906 17.477 C 15.663 18.854,15.204 19.322,13.840 19.583 C 13.493 19.650,13.137 19.658,9.740 19.671 C 5.768 19.686,5.515 19.677,4.884 19.494 C 4.371 19.346,4.035 19.150,3.660 18.780 C 3.393 18.516,3.303 18.393,3.149 18.080 C 3.046 17.871,2.922 17.547,2.872 17.360 L 2.782 17.020 2.769 12.100 C 2.755 6.982,2.762 6.717,2.924 6.085 C 3.212 4.957,3.843 4.511,5.360 4.362 C 5.547 4.344,7.455 4.333,9.600 4.338 C 13.069 4.346,13.538 4.355,13.840 4.414 M21.012 7.314 C 21.247 7.564,21.240 7.415,21.240 12.000 C 21.240 16.594,21.248 16.436,21.009 16.690 C 20.866 16.842,20.624 16.840,20.300 16.685 C 20.168 16.622,19.484 16.165,18.780 15.671 L 17.500 14.771 17.500 11.996 L 17.500 9.221 18.740 8.348 C 20.178 7.335,20.232 7.301,20.516 7.228 C 20.782 7.160,20.885 7.178,21.012 7.314 M11.180 7.281 C 10.086 7.427,9.276 8.360,9.270 9.480 C 9.267 10.129,9.470 10.630,9.920 11.080 C 10.363 11.523,10.868 11.731,11.500 11.731 C 12.132 11.731,12.637 11.523,13.080 11.080 C 13.523 10.637,13.731 10.132,13.731 9.500 C 13.731 8.868,13.523 8.363,13.080 7.920 C 12.575 7.415,11.894 7.186,11.180 7.281 M11.944 8.903 C 12.173 9.088,12.247 9.255,12.231 9.549 C 12.219 9.752,12.195 9.823,12.097 9.944 C 11.912 10.173,11.745 10.247,11.451 10.231 C 11.248 10.219,11.177 10.195,11.056 10.097 C 10.827 9.912,10.753 9.745,10.769 9.451 C 10.781 9.248,10.805 9.177,10.903 9.056 C 11.088 8.827,11.255 8.753,11.549 8.769 C 11.752 8.781,11.823 8.805,11.944 8.903 " stroke="none" fill-rule="evenodd" fill="black"></path></svg>