<svg width="24" height="24" viewBox="0 0 24 24" fill="none" xmlns="http://www.w3.org/2000/svg"><path d="M8.080 1.282 C 4.008 1.495,1.895 3.296,1.383 6.991 C 1.270 7.803,1.242 8.816,1.242 12.000 C 1.242 16.504,1.302 17.273,1.760 18.650 C 2.532 20.963,4.206 22.226,7.027 22.622 C 7.797 22.730,8.917 22.760,12.194 22.759 L 15.449 22.758 15.734 22.942 C 16.457 23.406,17.166 23.642,18.070 23.719 C 20.943 23.963,23.466 21.826,23.720 18.935 C 23.819 17.817,23.554 16.706,22.967 15.770 L 22.760 15.441 22.760 12.190 C 22.759 8.911,22.729 7.793,22.622 7.027 C 22.359 5.157,21.686 3.741,20.641 2.857 C 19.477 1.874,18.011 1.396,15.806 1.280 C 14.952 1.235,8.952 1.237,8.080 1.282 M14.720 4.560 L 14.720 6.360 12.000 6.360 L 9.280 6.360 9.280 4.560 L 9.280 2.760 12.000 2.760 L 14.720 2.760 14.720 4.560 M7.760 4.580 L 7.760 6.360 5.400 6.360 C 3.396 6.360,3.040 6.351,3.040 6.304 C 3.040 6.185,3.288 5.496,3.449 5.167 C 3.987 4.065,4.927 3.373,6.360 3.024 C 6.770 2.924,7.429 2.812,7.650 2.804 L 7.760 2.800 7.760 4.580 M16.795 2.862 C 18.717 3.141,19.903 3.862,20.534 5.134 C 20.705 5.479,20.960 6.179,20.960 6.304 C 20.960 6.351,20.604 6.360,18.600 6.360 L 16.240 6.360 16.240 4.580 C 16.240 2.965,16.246 2.800,16.305 2.800 C 16.341 2.800,16.561 2.828,16.795 2.862 M21.215 7.965 C 21.229 8.034,21.240 9.420,21.240 11.045 L 21.240 14.001 20.890 13.825 C 20.074 13.417,19.437 13.268,18.500 13.268 C 17.594 13.268,16.910 13.424,16.153 13.802 C 15.463 14.147,14.730 14.762,14.271 15.380 C 13.824 15.982,13.440 16.893,13.311 17.657 C 13.229 18.137,13.254 19.114,13.358 19.580 C 13.471 20.081,13.630 20.521,13.839 20.907 C 13.927 21.072,14.000 21.215,14.000 21.225 C 14.000 21.236,12.565 21.238,10.810 21.230 C 8.024 21.216,7.567 21.206,7.200 21.145 C 4.430 20.690,3.309 19.569,2.854 16.800 C 2.792 16.426,2.783 15.931,2.770 12.280 C 2.762 10.025,2.766 8.104,2.780 8.010 L 2.805 7.840 11.997 7.840 L 21.190 7.840 21.215 7.965 M19.241 14.840 C 19.984 14.992,20.589 15.318,21.110 15.848 C 21.752 16.500,22.074 17.104,22.202 17.894 C 22.264 18.278,22.231 19.056,22.138 19.400 C 21.778 20.739,20.756 21.779,19.460 22.124 C 19.057 22.232,18.309 22.269,17.894 22.202 C 17.094 22.073,16.416 21.701,15.798 21.055 C 15.470 20.712,15.315 20.486,15.115 20.058 C 14.857 19.509,14.789 19.190,14.784 18.520 C 14.781 18.069,14.797 17.873,14.857 17.641 C 15.125 16.590,15.689 15.828,16.603 15.278 C 16.935 15.078,17.506 14.868,17.893 14.804 C 18.270 14.741,18.827 14.756,19.241 14.840 M17.040 16.605 C 16.778 16.709,16.589 17.000,16.589 17.300 C 16.589 17.575,16.668 17.710,17.083 18.138 L 17.437 18.505 17.074 18.862 C 16.684 19.247,16.562 19.447,16.562 19.700 C 16.562 19.880,16.670 20.146,16.786 20.248 C 16.904 20.354,17.141 20.440,17.309 20.439 C 17.554 20.438,17.758 20.311,18.138 19.926 L 18.495 19.563 18.862 19.917 C 19.290 20.332,19.425 20.411,19.700 20.411 C 20.121 20.411,20.440 20.095,20.440 19.676 C 20.440 19.424,20.354 19.278,19.959 18.866 L 19.589 18.479 19.970 18.086 C 20.399 17.644,20.467 17.491,20.391 17.136 C 20.297 16.697,19.750 16.445,19.340 16.652 C 19.296 16.674,19.094 16.854,18.891 17.052 L 18.523 17.412 18.135 17.041 C 17.922 16.837,17.688 16.646,17.615 16.615 C 17.463 16.552,17.186 16.547,17.040 16.605 " stroke="none" fill-rule="evenodd" fill="black"></path></svg>