<svg width="24" height="24" viewBox="0 0 24 24" fill="none" xmlns="http://www.w3.org/2000/svg"><path d="M11.320 1.281 C 7.041 1.525,3.252 4.409,1.843 8.497 C 1.180 10.418,1.082 12.560,1.564 14.550 C 2.505 18.428,5.572 21.495,9.450 22.436 C 11.106 22.837,12.894 22.837,14.550 22.436 C 18.428 21.495,21.495 18.428,22.436 14.550 C 22.837 12.894,22.837 11.106,22.436 9.450 C 21.425 5.282,17.985 2.095,13.742 1.398 C 13.334 1.331,12.074 1.229,11.880 1.247 C 11.847 1.250,11.595 1.265,11.320 1.281 M13.146 2.822 C 14.201 2.960,15.125 3.237,16.060 3.696 C 18.877 5.079,20.768 7.722,21.178 10.854 C 21.301 11.786,21.244 13.026,21.034 13.998 C 20.745 15.343,20.003 16.855,19.121 17.900 C 18.247 18.935,17.240 19.726,16.060 20.304 C 14.761 20.940,13.462 21.240,12.000 21.240 C 10.538 21.240,9.236 20.940,7.940 20.304 C 5.123 18.921,3.232 16.278,2.822 13.146 C 2.699 12.214,2.756 10.974,2.966 10.002 C 3.177 9.020,3.703 7.775,4.268 6.920 C 5.750 4.677,8.131 3.188,10.820 2.823 C 11.380 2.746,12.569 2.746,13.146 2.822 M10.360 7.665 C 9.401 7.852,8.722 8.541,8.456 9.600 C 8.386 9.875,8.380 10.073,8.381 12.020 C 8.381 14.090,8.383 14.148,8.470 14.460 C 8.615 14.978,8.818 15.338,9.160 15.681 C 9.505 16.027,9.747 16.169,10.183 16.281 C 10.715 16.417,11.281 16.363,11.922 16.117 C 12.199 16.010,14.842 14.512,15.302 14.201 C 15.837 13.839,16.189 13.442,16.428 12.929 C 16.947 11.814,16.466 10.537,15.227 9.747 C 14.807 9.478,12.332 8.063,12.100 7.957 C 11.655 7.756,11.325 7.676,10.880 7.660 C 10.649 7.652,10.415 7.654,10.360 7.665 M11.140 9.181 C 11.411 9.264,11.620 9.375,13.100 10.231 C 14.557 11.073,14.650 11.133,14.850 11.354 C 15.067 11.594,15.136 11.750,15.136 12.000 C 15.136 12.133,15.108 12.272,15.066 12.352 C 14.970 12.533,14.738 12.784,14.542 12.918 C 14.310 13.077,11.874 14.483,11.540 14.650 C 10.732 15.056,10.171 14.890,9.929 14.174 C 9.873 14.009,9.862 13.712,9.849 12.161 C 9.840 10.950,9.850 10.256,9.879 10.081 C 10.009 9.313,10.476 8.980,11.140 9.181 " stroke="none" fill-rule="evenodd" fill="black"></path></svg>