<svg width="24" height="24" viewBox="0 0 24 24" fill="none" xmlns="http://www.w3.org/2000/svg"><path d="M8.100 1.282 C 6.859 1.354,6.242 1.462,5.341 1.763 C 3.045 2.531,1.767 4.219,1.383 6.991 C 1.270 7.803,1.242 8.816,1.242 12.000 C 1.242 16.504,1.302 17.273,1.760 18.650 C 2.532 20.963,4.206 22.226,7.027 22.622 C 7.786 22.728,8.902 22.759,12.000 22.759 C 15.098 22.759,16.214 22.728,16.973 22.622 C 19.443 22.275,20.996 21.288,21.897 19.490 C 22.379 18.530,22.638 17.369,22.720 15.807 C 22.771 14.838,22.771 9.162,22.720 8.193 C 22.657 6.998,22.521 6.191,22.242 5.356 C 21.535 3.242,20.075 2.004,17.690 1.496 C 16.700 1.285,16.437 1.274,12.400 1.261 C 10.343 1.254,8.408 1.263,8.100 1.282 M11.240 4.560 L 11.240 6.360 9.480 6.360 L 7.720 6.360 7.720 4.582 L 7.720 2.805 7.870 2.789 C 7.953 2.781,8.745 2.770,9.630 2.767 L 11.240 2.760 11.240 4.560 M16.054 2.785 L 16.240 2.811 16.240 4.585 L 16.240 6.360 14.500 6.360 L 12.760 6.360 12.760 4.560 L 12.760 2.760 14.314 2.760 C 15.169 2.760,15.952 2.771,16.054 2.785 M18.126 3.162 C 19.267 3.535,20.064 4.188,20.534 5.134 C 20.705 5.479,20.960 6.179,20.960 6.304 C 20.960 6.351,20.707 6.360,19.340 6.360 L 17.720 6.360 17.720 4.700 C 17.720 3.787,17.727 3.040,17.736 3.040 C 17.745 3.040,17.921 3.095,18.126 3.162 M6.240 4.720 L 6.240 6.360 4.640 6.360 C 3.290 6.360,3.040 6.351,3.040 6.304 C 3.040 6.179,3.294 5.480,3.464 5.139 C 3.925 4.210,4.709 3.553,5.800 3.184 C 6.291 3.017,6.240 2.838,6.240 4.720 M11.240 12.100 L 11.240 16.360 7.026 16.360 L 2.812 16.360 2.786 16.090 C 2.753 15.741,2.752 8.130,2.785 7.965 L 2.810 7.840 7.025 7.840 L 11.240 7.840 11.240 12.100 M21.215 7.965 C 21.248 8.130,21.247 15.741,21.214 16.090 L 21.188 16.360 16.974 16.360 L 12.760 16.360 12.760 12.100 L 12.760 7.840 16.975 7.840 L 21.190 7.840 21.215 7.965 M6.230 19.395 L 6.241 20.929 6.090 20.902 C 5.880 20.863,5.269 20.617,4.964 20.448 C 4.410 20.141,3.910 19.650,3.583 19.091 C 3.439 18.845,3.152 18.163,3.104 17.950 L 3.078 17.839 4.649 17.850 L 6.220 17.860 6.230 19.395 M11.240 19.540 L 11.240 21.240 9.690 21.240 C 8.838 21.239,8.046 21.228,7.930 21.214 L 7.720 21.189 7.720 19.514 L 7.720 17.840 9.480 17.840 L 11.240 17.840 11.240 19.540 M16.230 19.525 L 16.241 21.189 16.055 21.215 C 15.953 21.229,15.169 21.240,14.314 21.240 L 12.760 21.240 12.760 19.540 L 12.760 17.839 14.490 17.850 L 16.220 17.860 16.230 19.525 M20.896 17.950 C 20.848 18.163,20.561 18.845,20.417 19.091 C 19.934 19.917,19.175 20.495,18.126 20.838 C 17.921 20.905,17.745 20.960,17.736 20.960 C 17.727 20.960,17.720 20.258,17.720 19.400 L 17.720 17.840 19.321 17.840 L 20.922 17.840 20.896 17.950 " stroke="none" fill-rule="evenodd" fill="black"></path></svg>