<svg width="24" height="24" viewBox="0 0 24 24" fill="none" xmlns="http://www.w3.org/2000/svg"><path d="M8.080 1.282 C 4.008 1.495,1.895 3.296,1.383 6.991 C 1.270 7.803,1.242 8.816,1.242 12.000 C 1.242 16.504,1.302 17.273,1.760 18.650 C 2.532 20.963,4.206 22.226,7.027 22.622 C 7.793 22.729,8.911 22.759,12.192 22.760 L 15.444 22.760 15.672 22.915 C 16.572 23.525,17.760 23.817,18.941 23.718 C 19.442 23.675,19.649 23.635,20.100 23.492 C 21.936 22.907,23.325 21.307,23.663 19.390 C 23.747 18.909,23.746 18.020,23.661 17.540 C 23.544 16.886,23.273 16.207,22.914 15.666 L 22.758 15.432 22.759 12.186 C 22.760 8.917,22.730 7.797,22.622 7.027 C 22.359 5.157,21.686 3.741,20.641 2.857 C 19.477 1.874,18.011 1.396,15.806 1.280 C 14.952 1.235,8.952 1.237,8.080 1.282 M14.720 4.560 L 14.720 6.360 12.000 6.360 L 9.280 6.360 9.280 4.560 L 9.280 2.760 12.000 2.760 L 14.720 2.760 14.720 4.560 M7.760 4.580 L 7.760 6.360 5.400 6.360 C 3.396 6.360,3.040 6.351,3.040 6.304 C 3.040 6.185,3.288 5.496,3.449 5.167 C 3.987 4.065,4.927 3.373,6.360 3.024 C 6.770 2.924,7.429 2.812,7.650 2.804 L 7.760 2.800 7.760 4.580 M16.795 2.862 C 18.717 3.141,19.903 3.862,20.534 5.134 C 20.705 5.479,20.960 6.179,20.960 6.304 C 20.960 6.351,20.604 6.360,18.600 6.360 L 16.240 6.360 16.240 4.580 C 16.240 2.965,16.246 2.800,16.305 2.800 C 16.341 2.800,16.561 2.828,16.795 2.862 M21.215 7.965 C 21.251 8.144,21.246 14.010,21.210 13.991 C 20.481 13.616,19.966 13.428,19.360 13.315 C 18.966 13.242,17.927 13.251,17.520 13.332 C 16.520 13.530,15.638 13.992,14.866 14.722 C 14.071 15.475,13.504 16.541,13.316 17.640 C 13.251 18.014,13.251 19.013,13.316 19.360 C 13.429 19.972,13.585 20.400,13.992 21.212 C 14.001 21.230,12.571 21.238,10.814 21.230 C 8.024 21.216,7.567 21.206,7.200 21.145 C 4.430 20.690,3.309 19.569,2.854 16.800 C 2.792 16.426,2.783 15.931,2.770 12.280 C 2.762 10.025,2.766 8.104,2.780 8.010 L 2.805 7.840 11.997 7.840 L 21.190 7.840 21.215 7.965 M19.220 14.836 C 20.167 15.032,20.964 15.541,21.552 16.327 C 22.269 17.284,22.446 18.677,21.997 19.840 C 21.521 21.075,20.395 21.994,19.103 22.202 C 18.681 22.270,17.907 22.231,17.500 22.121 C 16.391 21.819,15.395 20.898,14.999 19.805 C 14.421 18.213,14.928 16.507,16.280 15.492 C 17.114 14.867,18.200 14.624,19.220 14.836 M18.443 16.430 C 18.367 16.469,18.250 16.569,18.183 16.654 L 18.060 16.807 18.048 17.582 L 18.035 18.358 17.588 18.626 C 16.874 19.053,16.799 19.111,16.711 19.311 C 16.488 19.815,16.846 20.356,17.405 20.359 C 17.572 20.360,17.675 20.309,18.441 19.850 C 19.119 19.444,19.313 19.308,19.396 19.183 L 19.500 19.026 19.512 17.975 C 19.523 16.999,19.518 16.913,19.446 16.772 C 19.352 16.589,19.220 16.460,19.067 16.403 C 18.898 16.338,18.597 16.351,18.443 16.430 " stroke="none" fill-rule="evenodd" fill="black"></path></svg>