<svg width="24" height="24" viewBox="0 0 24 24" fill="none" xmlns="http://www.w3.org/2000/svg"><path d="M11.740 1.268 C 11.248 1.296,10.725 1.439,10.260 1.671 C 9.856 1.873,4.364 5.045,3.960 5.310 C 3.047 5.909,2.475 6.753,2.233 7.860 C 2.156 8.210,2.156 15.790,2.233 16.140 C 2.474 17.244,3.046 18.094,3.936 18.675 C 4.365 18.954,9.852 22.125,10.260 22.329 C 10.825 22.611,11.321 22.727,11.973 22.727 C 12.647 22.728,13.170 22.613,13.700 22.349 C 14.049 22.175,19.857 18.817,20.137 18.627 C 20.798 18.181,21.378 17.394,21.632 16.600 C 21.823 16.000,21.820 16.083,21.820 12.000 C 21.820 7.916,21.823 7.998,21.631 7.400 C 21.374 6.597,20.803 5.822,20.137 5.373 C 19.857 5.183,14.049 1.825,13.700 1.651 C 13.149 1.376,12.400 1.229,11.740 1.268 M12.477 2.799 C 12.591 2.821,12.797 2.889,12.935 2.949 C 13.072 3.010,14.561 3.852,16.243 4.820 C 19.165 6.502,19.313 6.593,19.604 6.880 C 19.935 7.207,20.147 7.575,20.259 8.018 C 20.350 8.376,20.350 15.624,20.259 15.982 C 20.147 16.423,19.935 16.791,19.602 17.119 C 19.310 17.407,19.161 17.498,16.241 19.180 C 14.560 20.148,13.076 20.989,12.942 21.048 C 12.589 21.207,12.317 21.252,11.860 21.230 C 11.572 21.216,11.386 21.183,11.197 21.113 C 10.966 21.027,5.118 17.684,4.699 17.398 C 4.282 17.114,3.944 16.657,3.770 16.143 L 3.660 15.820 3.660 12.040 C 3.660 7.792,3.643 8.055,3.964 7.437 C 4.282 6.825,4.305 6.809,7.802 4.792 C 9.507 3.808,10.970 2.975,11.053 2.941 C 11.464 2.769,12.022 2.713,12.477 2.799 M10.694 8.359 C 10.250 8.454,9.782 8.747,9.525 9.091 C 9.317 9.369,9.220 9.571,9.111 9.947 C 9.023 10.251,9.020 10.310,9.020 12.000 C 9.020 13.698,9.022 13.748,9.112 14.059 C 9.360 14.915,9.909 15.460,10.689 15.626 C 11.172 15.728,11.781 15.632,12.300 15.370 C 12.685 15.177,14.662 14.028,14.902 13.858 C 15.478 13.451,15.871 12.869,15.961 12.290 C 16.083 11.502,15.685 10.695,14.902 10.142 C 14.662 9.972,12.685 8.823,12.300 8.630 C 11.829 8.393,11.106 8.271,10.694 8.359 M11.538 9.920 C 11.779 10.024,13.997 11.312,14.168 11.447 C 14.375 11.610,14.480 11.796,14.480 12.000 C 14.480 12.204,14.375 12.390,14.168 12.553 C 13.993 12.691,11.781 13.974,11.520 14.089 C 11.271 14.199,10.955 14.201,10.811 14.095 C 10.508 13.868,10.469 13.592,10.490 11.809 C 10.508 10.336,10.522 10.219,10.705 10.002 C 10.880 9.793,11.178 9.764,11.538 9.920 " stroke="none" fill-rule="evenodd" fill="black"></path></svg>