<svg width="24" height="24" viewBox="0 0 24 24" fill="none" xmlns="http://www.w3.org/2000/svg"><path d="M8.080 1.282 C 4.008 1.495,1.895 3.296,1.383 6.991 C 1.270 7.803,1.242 8.816,1.242 12.000 C 1.242 16.504,1.302 17.273,1.760 18.650 C 2.532 20.963,4.206 22.226,7.027 22.622 C 7.786 22.728,8.902 22.759,12.000 22.759 C 15.098 22.759,16.214 22.728,16.973 22.622 C 19.443 22.275,20.996 21.288,21.897 19.490 C 22.379 18.530,22.638 17.369,22.720 15.807 C 22.771 14.838,22.771 9.162,22.720 8.193 C 22.657 6.998,22.521 6.191,22.242 5.356 C 21.632 3.531,20.469 2.367,18.650 1.760 C 17.788 1.473,17.023 1.344,15.806 1.280 C 14.952 1.235,8.952 1.237,8.080 1.282 M14.720 4.560 L 14.720 6.360 12.000 6.360 L 9.280 6.360 9.280 4.560 L 9.280 2.760 12.000 2.760 L 14.720 2.760 14.720 4.560 M7.760 4.580 L 7.760 6.360 5.400 6.360 C 3.396 6.360,3.040 6.351,3.040 6.304 C 3.040 6.185,3.288 5.496,3.449 5.167 C 3.987 4.065,4.927 3.373,6.360 3.024 C 6.770 2.924,7.429 2.812,7.650 2.804 L 7.760 2.800 7.760 4.580 M16.795 2.862 C 18.717 3.141,19.903 3.862,20.534 5.134 C 20.705 5.479,20.960 6.179,20.960 6.304 C 20.960 6.351,20.604 6.360,18.600 6.360 L 16.240 6.360 16.240 4.580 C 16.240 2.965,16.246 2.800,16.305 2.800 C 16.341 2.800,16.561 2.828,16.795 2.862 M21.220 8.010 C 21.234 8.104,21.238 10.025,21.230 12.280 C 21.214 16.783,21.221 16.636,20.960 17.688 C 20.504 19.519,19.520 20.504,17.688 20.960 C 16.622 21.226,16.745 21.220,12.000 21.220 C 8.064 21.220,7.661 21.214,7.240 21.148 C 4.454 20.714,3.311 19.581,2.854 16.800 C 2.792 16.426,2.783 15.931,2.770 12.280 C 2.762 10.025,2.766 8.104,2.780 8.010 L 2.805 7.840 12.000 7.840 L 21.195 7.840 21.220 8.010 M10.798 10.802 C 9.872 10.939,9.241 11.621,9.057 12.683 C 9.005 12.986,8.997 13.319,9.010 14.634 C 9.025 16.130,9.030 16.237,9.114 16.513 C 9.249 16.962,9.424 17.271,9.695 17.541 C 10.266 18.110,11.048 18.263,11.914 17.977 C 12.279 17.856,14.526 16.590,15.012 16.230 C 15.917 15.562,16.226 14.487,15.775 13.573 C 15.512 13.041,15.137 12.702,14.220 12.170 C 12.189 10.993,12.038 10.918,11.480 10.817 C 11.146 10.757,11.114 10.756,10.798 10.802 M11.580 12.394 C 11.916 12.553,13.906 13.705,14.100 13.852 C 14.440 14.109,14.551 14.348,14.458 14.619 C 14.357 14.912,14.229 15.004,12.705 15.881 C 11.631 16.498,11.339 16.638,11.116 16.639 C 10.913 16.640,10.719 16.497,10.600 16.260 L 10.500 16.060 10.487 14.652 C 10.473 13.208,10.497 12.846,10.624 12.578 C 10.774 12.262,11.150 12.190,11.580 12.394 " stroke="none" fill-rule="evenodd" fill="black"></path></svg>