<svg width="24" height="24" viewBox="0 0 24 24" fill="none" xmlns="http://www.w3.org/2000/svg"><path d="M8.080 1.282 C 4.008 1.495,1.895 3.296,1.383 6.991 C 1.270 7.803,1.242 8.816,1.242 12.000 C 1.242 15.184,1.270 16.197,1.383 17.009 C 1.767 19.784,3.048 21.470,5.356 22.242 C 6.191 22.521,6.998 22.657,8.193 22.720 C 9.162 22.771,14.838 22.771,15.807 22.720 C 17.002 22.657,17.809 22.521,18.644 22.242 C 20.793 21.523,22.020 20.051,22.518 17.593 C 22.729 16.551,22.740 16.258,22.738 11.940 C 22.736 7.621,22.721 7.275,22.501 6.283 C 21.970 3.895,20.748 2.460,18.650 1.760 C 17.788 1.473,17.023 1.344,15.806 1.280 C 14.952 1.235,8.952 1.237,8.080 1.282 M16.035 2.785 L 16.160 2.810 16.160 7.025 L 16.160 11.240 11.900 11.240 L 7.640 11.240 7.640 7.022 L 7.640 2.804 7.830 2.789 C 8.163 2.763,15.905 2.759,16.035 2.785 M18.126 3.162 C 19.175 3.505,19.934 4.083,20.417 4.909 C 20.585 5.196,20.862 5.870,20.902 6.090 L 20.929 6.240 19.284 6.240 L 17.640 6.240 17.640 4.640 C 17.640 3.290,17.649 3.040,17.696 3.040 C 17.727 3.040,17.921 3.095,18.126 3.162 M6.150 4.650 L 6.140 6.220 4.605 6.230 L 3.071 6.241 3.098 6.090 C 3.138 5.870,3.415 5.196,3.583 4.909 C 3.948 4.286,4.482 3.789,5.133 3.467 C 5.448 3.311,6.034 3.084,6.130 3.081 C 6.147 3.080,6.156 3.786,6.150 4.650 M6.160 9.480 L 6.160 11.240 4.460 11.240 L 2.760 11.240 2.760 9.690 C 2.761 8.838,2.772 8.046,2.786 7.930 L 2.811 7.720 4.486 7.720 L 6.160 7.720 6.160 9.480 M21.214 7.930 C 21.228 8.046,21.239 8.838,21.240 9.690 L 21.240 11.240 19.440 11.240 L 17.640 11.240 17.640 9.480 L 17.640 7.720 19.414 7.720 L 21.189 7.720 21.214 7.930 M6.150 14.490 L 6.140 16.220 4.475 16.230 L 2.811 16.241 2.785 16.055 C 2.771 15.953,2.760 15.169,2.760 14.314 L 2.760 12.760 4.460 12.760 L 6.161 12.760 6.150 14.490 M16.160 16.975 L 16.160 21.190 16.035 21.215 C 15.870 21.248,8.259 21.247,7.910 21.214 L 7.640 21.188 7.640 16.974 L 7.640 12.760 11.900 12.760 L 16.160 12.760 16.160 16.975 M21.240 14.314 C 21.240 15.169,21.229 15.952,21.215 16.054 L 21.189 16.240 19.415 16.240 L 17.640 16.240 17.640 14.500 L 17.640 12.760 19.440 12.760 L 21.240 12.760 21.240 14.314 M6.160 19.321 L 6.160 20.922 6.050 20.896 C 5.837 20.848,5.155 20.561,4.909 20.417 C 4.083 19.934,3.505 19.175,3.162 18.126 C 3.095 17.921,3.040 17.745,3.040 17.736 C 3.040 17.727,3.742 17.720,4.600 17.720 L 6.160 17.720 6.160 19.321 M20.960 17.736 C 20.960 17.745,20.905 17.921,20.838 18.126 C 20.465 19.268,19.812 20.064,18.864 20.535 C 18.521 20.705,17.821 20.960,17.696 20.960 C 17.649 20.960,17.640 20.707,17.640 19.340 L 17.640 17.720 19.300 17.720 C 20.213 17.720,20.960 17.727,20.960 17.736 " stroke="none" fill-rule="evenodd" fill="black"></path></svg>