<svg width="24" height="24" viewBox="0 0 24 24" fill="none" xmlns="http://www.w3.org/2000/svg"><path d="M8.080 1.282 C 4.008 1.495,1.895 3.296,1.383 6.991 C 1.270 7.803,1.242 8.816,1.242 12.000 C 1.242 16.504,1.302 17.273,1.760 18.650 C 2.532 20.963,4.206 22.226,7.027 22.622 C 7.786 22.728,8.902 22.759,12.000 22.759 C 15.098 22.759,16.214 22.728,16.973 22.622 C 19.443 22.275,20.996 21.288,21.897 19.490 C 22.379 18.530,22.638 17.369,22.720 15.807 C 22.771 14.838,22.771 9.162,22.720 8.193 C 22.657 6.998,22.521 6.191,22.242 5.356 C 21.632 3.531,20.469 2.367,18.650 1.760 C 17.788 1.473,17.023 1.344,15.806 1.280 C 14.952 1.235,8.952 1.237,8.080 1.282 M16.800 2.854 C 19.586 3.316,20.714 4.454,21.148 7.240 C 21.214 7.661,21.220 8.064,21.220 12.000 C 21.220 15.936,21.214 16.339,21.148 16.760 C 20.712 19.558,19.558 20.712,16.760 21.148 C 16.339 21.214,15.936 21.220,12.000 21.220 C 8.064 21.220,7.661 21.214,7.240 21.148 C 4.450 20.713,3.283 19.551,2.854 16.780 C 2.785 16.335,2.780 15.989,2.780 12.000 C 2.780 7.247,2.776 7.337,3.044 6.288 C 3.557 4.282,4.722 3.274,6.960 2.900 C 7.690 2.777,8.048 2.769,12.200 2.777 C 15.963 2.784,16.422 2.791,16.800 2.854 M10.360 7.665 C 9.401 7.852,8.722 8.541,8.456 9.600 C 8.386 9.875,8.380 10.073,8.381 12.020 C 8.381 14.090,8.383 14.148,8.470 14.460 C 8.615 14.978,8.818 15.338,9.160 15.681 C 9.505 16.027,9.747 16.169,10.183 16.281 C 10.715 16.417,11.281 16.363,11.922 16.117 C 12.199 16.010,14.842 14.512,15.302 14.201 C 15.837 13.839,16.189 13.442,16.428 12.929 C 16.947 11.814,16.466 10.537,15.227 9.747 C 14.807 9.478,12.332 8.063,12.100 7.957 C 11.655 7.756,11.325 7.676,10.880 7.660 C 10.649 7.652,10.415 7.654,10.360 7.665 M11.140 9.181 C 11.411 9.264,11.620 9.375,13.100 10.231 C 14.557 11.073,14.650 11.133,14.850 11.354 C 15.067 11.594,15.136 11.750,15.136 12.000 C 15.136 12.133,15.108 12.272,15.066 12.352 C 14.970 12.533,14.738 12.784,14.542 12.918 C 14.310 13.077,11.874 14.483,11.540 14.650 C 10.732 15.056,10.171 14.890,9.929 14.174 C 9.874 14.009,9.862 13.713,9.849 12.187 C 9.840 11.017,9.850 10.294,9.879 10.107 C 9.998 9.320,10.466 8.977,11.140 9.181 " stroke="none" fill-rule="evenodd" fill="black"></path></svg>