<svg width="24" height="24" viewBox="0 0 24 24" fill="none" xmlns="http://www.w3.org/2000/svg"><path d="M8.080 1.282 C 4.008 1.495,1.895 3.296,1.383 6.991 C 1.270 7.803,1.242 8.816,1.242 12.000 C 1.242 16.504,1.302 17.273,1.760 18.650 C 2.532 20.963,4.206 22.226,7.027 22.622 C 7.793 22.729,8.911 22.759,12.190 22.760 L 15.441 22.760 15.770 22.967 C 16.713 23.558,17.787 23.812,18.944 23.718 C 19.854 23.644,20.640 23.378,21.340 22.908 C 22.724 21.978,23.589 20.535,23.718 18.940 C 23.815 17.747,23.533 16.599,22.914 15.666 L 22.758 15.432 22.759 12.186 C 22.760 8.917,22.730 7.797,22.622 7.027 C 22.359 5.157,21.686 3.741,20.641 2.857 C 19.477 1.874,18.011 1.396,15.806 1.280 C 14.952 1.235,8.952 1.237,8.080 1.282 M14.720 4.560 L 14.720 6.360 12.000 6.360 L 9.280 6.360 9.280 4.560 L 9.280 2.760 12.000 2.760 L 14.720 2.760 14.720 4.560 M7.760 4.580 L 7.760 6.360 5.400 6.360 C 3.396 6.360,3.040 6.351,3.040 6.304 C 3.040 6.185,3.288 5.496,3.449 5.167 C 3.987 4.065,4.927 3.373,6.360 3.024 C 6.770 2.924,7.429 2.812,7.650 2.804 L 7.760 2.800 7.760 4.580 M16.795 2.862 C 18.717 3.141,19.903 3.862,20.534 5.134 C 20.705 5.479,20.960 6.179,20.960 6.304 C 20.960 6.351,20.604 6.360,18.600 6.360 L 16.240 6.360 16.240 4.580 C 16.240 2.965,16.246 2.800,16.305 2.800 C 16.341 2.800,16.561 2.828,16.795 2.862 M21.215 7.965 C 21.251 8.144,21.246 14.010,21.210 13.991 C 20.481 13.616,19.966 13.428,19.360 13.315 C 18.966 13.242,17.927 13.251,17.520 13.332 C 16.520 13.530,15.638 13.992,14.866 14.722 C 14.072 15.474,13.506 16.539,13.315 17.640 C 13.230 18.134,13.251 19.106,13.358 19.580 C 13.471 20.081,13.631 20.521,13.839 20.907 C 13.927 21.072,14.000 21.215,14.000 21.225 C 14.000 21.236,12.565 21.238,10.810 21.230 C 8.024 21.216,7.567 21.206,7.200 21.145 C 4.430 20.690,3.309 19.569,2.854 16.800 C 2.792 16.426,2.783 15.931,2.770 12.280 C 2.762 10.025,2.766 8.104,2.780 8.010 L 2.805 7.840 11.997 7.840 L 21.190 7.840 21.215 7.965 M19.220 14.836 C 19.969 14.991,20.585 15.314,21.095 15.819 C 21.894 16.611,22.241 17.428,22.239 18.514 C 22.235 20.314,20.916 21.884,19.143 22.198 C 18.838 22.252,18.162 22.252,17.857 22.198 C 16.661 21.986,15.647 21.195,15.114 20.056 C 14.273 18.262,14.988 16.147,16.760 15.187 C 17.478 14.798,18.400 14.666,19.220 14.836 M20.010 16.682 C 19.899 16.716,18.906 17.593,18.070 18.395 L 17.879 18.578 17.530 18.233 C 17.104 17.814,16.981 17.745,16.696 17.769 C 16.115 17.817,15.812 18.446,16.140 18.920 C 16.196 19.002,16.517 19.339,16.853 19.670 C 17.363 20.174,17.491 20.280,17.638 20.320 C 17.862 20.380,18.114 20.342,18.272 20.226 C 18.606 19.979,20.874 17.834,20.934 17.708 C 21.080 17.399,20.962 16.962,20.681 16.776 C 20.512 16.664,20.209 16.622,20.010 16.682 " stroke="none" fill-rule="evenodd" fill="black"></path></svg>