<svg width="24" height="24" viewBox="0 0 24 24" fill="none" xmlns="http://www.w3.org/2000/svg"><path d="M8.080 1.282 C 4.008 1.495,1.895 3.296,1.383 6.991 C 1.270 7.803,1.242 8.816,1.242 12.000 C 1.242 16.504,1.302 17.273,1.760 18.650 C 2.532 20.963,4.206 22.226,7.027 22.622 C 7.786 22.728,8.902 22.759,12.000 22.759 C 15.098 22.759,16.214 22.728,16.973 22.622 C 19.443 22.275,20.996 21.288,21.897 19.490 C 22.379 18.530,22.638 17.369,22.720 15.807 C 22.771 14.838,22.771 9.162,22.720 8.193 C 22.657 6.998,22.521 6.191,22.242 5.356 C 21.632 3.531,20.469 2.367,18.650 1.760 C 17.788 1.473,17.023 1.344,15.806 1.280 C 14.952 1.235,8.952 1.237,8.080 1.282 M16.800 2.854 C 19.586 3.316,20.714 4.454,21.148 7.240 C 21.214 7.661,21.220 8.064,21.220 12.000 C 21.220 15.936,21.214 16.339,21.148 16.760 C 20.712 19.558,19.558 20.712,16.760 21.148 C 16.339 21.214,15.936 21.220,12.000 21.220 C 8.064 21.220,7.661 21.214,7.240 21.148 C 4.450 20.713,3.283 19.551,2.854 16.780 C 2.785 16.335,2.780 15.989,2.780 12.000 C 2.780 7.247,2.776 7.337,3.044 6.288 C 3.557 4.282,4.722 3.274,6.960 2.900 C 7.690 2.777,8.048 2.769,12.200 2.777 C 15.963 2.784,16.422 2.791,16.800 2.854 M11.815 6.277 C 11.638 6.321,11.461 6.456,11.353 6.631 L 11.260 6.780 11.260 12.000 L 11.260 17.220 11.353 17.369 C 11.710 17.943,12.576 17.812,12.716 17.162 C 12.775 16.884,12.776 7.100,12.717 6.841 C 12.623 6.432,12.215 6.177,11.815 6.277 M8.698 7.755 C 8.517 7.838,8.335 8.033,8.290 8.193 C 8.251 8.333,8.251 15.667,8.290 15.807 C 8.363 16.069,8.710 16.318,9.000 16.318 C 9.290 16.318,9.637 16.069,9.710 15.807 C 9.749 15.667,9.749 8.333,9.710 8.193 C 9.637 7.931,9.290 7.682,9.000 7.682 C 8.923 7.682,8.787 7.715,8.698 7.755 M14.698 7.755 C 14.517 7.838,14.335 8.033,14.290 8.193 C 14.251 8.333,14.251 15.667,14.290 15.807 C 14.363 16.069,14.710 16.318,15.000 16.318 C 15.290 16.318,15.637 16.069,15.710 15.807 C 15.749 15.667,15.749 8.333,15.710 8.193 C 15.637 7.931,15.290 7.682,15.000 7.682 C 14.923 7.682,14.787 7.715,14.698 7.755 M5.699 9.176 C 5.550 9.241,5.332 9.484,5.291 9.631 C 5.274 9.691,5.260 10.775,5.260 12.040 L 5.260 14.340 5.366 14.520 C 5.652 15.006,6.348 15.006,6.634 14.520 L 6.740 14.340 6.740 12.040 C 6.740 10.775,6.726 9.691,6.709 9.631 C 6.667 9.479,6.447 9.239,6.292 9.174 C 6.130 9.106,5.857 9.107,5.699 9.176 M17.699 9.176 C 17.550 9.241,17.332 9.484,17.291 9.631 C 17.274 9.691,17.260 10.775,17.260 12.040 L 17.260 14.340 17.366 14.520 C 17.652 15.006,18.348 15.006,18.634 14.520 L 18.740 14.340 18.740 12.040 C 18.740 10.775,18.726 9.691,18.709 9.631 C 18.667 9.479,18.447 9.239,18.292 9.174 C 18.130 9.106,17.857 9.107,17.699 9.176 " stroke="none" fill-rule="evenodd" fill="black"></path></svg>