<svg width="24" height="24" viewBox="0 0 24 24" fill="none" xmlns="http://www.w3.org/2000/svg"><path d="M11.320 1.281 C 7.041 1.525,3.252 4.409,1.843 8.497 C 1.180 10.418,1.082 12.560,1.564 14.550 C 2.505 18.428,5.572 21.495,9.450 22.436 C 11.106 22.837,12.894 22.837,14.550 22.436 C 18.428 21.495,21.495 18.428,22.436 14.550 C 22.837 12.894,22.837 11.106,22.436 9.450 C 21.425 5.282,17.985 2.095,13.742 1.398 C 13.334 1.331,12.074 1.229,11.880 1.247 C 11.847 1.250,11.595 1.265,11.320 1.281 M13.146 2.822 C 14.201 2.960,15.125 3.237,16.060 3.696 C 18.877 5.079,20.768 7.722,21.178 10.854 C 21.301 11.786,21.244 13.026,21.034 13.998 C 20.745 15.343,20.003 16.855,19.121 17.900 C 18.247 18.935,17.240 19.726,16.060 20.304 C 14.761 20.940,13.462 21.240,12.000 21.240 C 10.538 21.240,9.236 20.940,7.940 20.304 C 5.123 18.921,3.232 16.278,2.822 13.146 C 2.699 12.214,2.756 10.974,2.966 10.002 C 3.177 9.020,3.703 7.775,4.268 6.920 C 5.750 4.677,8.131 3.188,10.820 2.823 C 11.380 2.746,12.569 2.746,13.146 2.822 M11.815 6.277 C 11.638 6.321,11.461 6.456,11.353 6.631 L 11.260 6.780 11.260 12.000 L 11.260 17.220 11.353 17.369 C 11.710 17.943,12.576 17.812,12.716 17.162 C 12.775 16.884,12.776 7.100,12.717 6.841 C 12.623 6.432,12.215 6.177,11.815 6.277 M8.698 7.755 C 8.517 7.838,8.335 8.033,8.290 8.193 C 8.251 8.333,8.251 15.667,8.290 15.807 C 8.363 16.069,8.710 16.318,9.000 16.318 C 9.290 16.318,9.637 16.069,9.710 15.807 C 9.749 15.667,9.749 8.333,9.710 8.193 C 9.637 7.931,9.290 7.682,9.000 7.682 C 8.923 7.682,8.787 7.715,8.698 7.755 M14.698 7.755 C 14.517 7.838,14.335 8.033,14.290 8.193 C 14.251 8.333,14.251 15.667,14.290 15.807 C 14.363 16.069,14.710 16.318,15.000 16.318 C 15.290 16.318,15.637 16.069,15.710 15.807 C 15.749 15.667,15.749 8.333,15.710 8.193 C 15.637 7.931,15.290 7.682,15.000 7.682 C 14.923 7.682,14.787 7.715,14.698 7.755 M5.699 9.176 C 5.550 9.241,5.332 9.484,5.291 9.631 C 5.274 9.691,5.260 10.775,5.260 12.040 L 5.260 14.340 5.366 14.520 C 5.652 15.006,6.348 15.006,6.634 14.520 L 6.740 14.340 6.740 12.040 C 6.740 10.775,6.726 9.691,6.709 9.631 C 6.667 9.479,6.447 9.239,6.292 9.174 C 6.130 9.106,5.857 9.107,5.699 9.176 M17.699 9.176 C 17.550 9.241,17.332 9.484,17.291 9.631 C 17.274 9.691,17.260 10.775,17.260 12.040 L 17.260 14.340 17.366 14.520 C 17.652 15.006,18.348 15.006,18.634 14.520 L 18.740 14.340 18.740 12.040 C 18.740 10.775,18.726 9.691,18.709 9.631 C 18.667 9.479,18.447 9.239,18.292 9.174 C 18.130 9.106,17.857 9.107,17.699 9.176 " stroke="none" fill-rule="evenodd" fill="black"></path></svg>