<svg width="24" height="24" viewBox="0 0 24 24" fill="none" xmlns="http://www.w3.org/2000/svg"><path d="M12.480 3.261 C 12.447 3.268,12.285 3.294,12.120 3.319 C 11.311 3.444,10.855 3.669,8.798 4.958 C 7.908 5.516,7.099 6.010,7.000 6.056 C 6.834 6.133,6.722 6.141,5.540 6.164 C 4.235 6.189,3.997 6.214,3.498 6.382 C 2.411 6.747,1.686 7.543,1.404 8.680 C 1.272 9.216,1.241 9.837,1.241 12.000 C 1.241 13.111,1.259 14.236,1.281 14.500 C 1.430 16.314,2.308 17.372,3.979 17.748 C 4.187 17.795,4.593 17.818,5.540 17.836 C 6.721 17.859,6.834 17.867,7.000 17.944 C 7.099 17.990,7.864 18.455,8.700 18.979 C 10.372 20.027,10.940 20.339,11.492 20.514 C 12.049 20.691,12.364 20.734,12.925 20.710 C 13.469 20.686,13.760 20.613,14.188 20.389 C 15.140 19.892,15.745 18.909,15.941 17.540 C 16.026 16.947,16.026 7.054,15.941 6.456 C 15.713 4.854,14.922 3.774,13.697 3.396 C 13.341 3.286,12.710 3.216,12.480 3.261 M13.405 4.886 C 13.826 5.083,14.125 5.445,14.312 5.986 C 14.502 6.536,14.500 6.464,14.500 12.020 C 14.500 17.906,14.515 17.600,14.203 18.260 C 14.004 18.682,13.784 18.924,13.449 19.089 C 13.198 19.212,13.156 19.220,12.761 19.220 C 11.977 19.220,11.713 19.099,9.598 17.778 C 8.730 17.235,7.902 16.731,7.759 16.657 C 7.275 16.410,7.148 16.391,5.740 16.360 C 4.345 16.329,4.177 16.307,3.735 16.097 C 3.230 15.857,2.962 15.479,2.817 14.800 C 2.736 14.420,2.736 9.580,2.817 9.200 C 2.962 8.521,3.230 8.143,3.735 7.903 C 4.179 7.692,4.346 7.670,5.740 7.639 C 6.486 7.622,7.093 7.591,7.196 7.563 C 7.555 7.468,7.997 7.222,9.549 6.249 C 11.213 5.205,11.532 5.025,11.960 4.888 C 12.317 4.773,12.367 4.767,12.800 4.774 C 13.118 4.779,13.217 4.798,13.405 4.886 M19.815 9.277 C 19.638 9.321,19.461 9.456,19.353 9.631 C 19.266 9.770,19.259 9.829,19.246 10.506 L 19.232 11.232 18.503 11.246 C 17.790 11.260,17.770 11.262,17.612 11.367 C 17.372 11.526,17.267 11.721,17.267 12.007 C 17.267 12.203,17.286 12.270,17.383 12.408 C 17.590 12.700,17.716 12.738,18.526 12.754 L 19.232 12.768 19.246 13.494 C 19.259 14.171,19.266 14.230,19.353 14.369 C 19.710 14.943,20.576 14.812,20.716 14.162 C 20.740 14.049,20.760 13.687,20.760 13.358 L 20.760 12.760 21.358 12.760 C 22.121 12.760,22.321 12.719,22.520 12.520 C 22.918 12.122,22.730 11.423,22.189 11.286 C 22.087 11.261,21.725 11.240,21.382 11.240 L 20.760 11.240 20.759 10.630 C 20.758 9.950,20.720 9.720,20.580 9.536 C 20.421 9.327,20.078 9.211,19.815 9.277 " stroke="none" fill-rule="evenodd" fill="black"></path></svg>