<svg width="24" height="24" viewBox="0 0 24 24" fill="none" xmlns="http://www.w3.org/2000/svg"><path d="M13.421 3.445 C 12.843 3.529,12.265 3.728,11.700 4.038 C 11.546 4.122,10.736 4.620,9.900 5.143 C 9.064 5.666,8.294 6.127,8.190 6.167 C 8.028 6.229,7.875 6.240,7.170 6.241 C 5.703 6.242,4.974 6.351,4.360 6.660 C 3.399 7.144,2.864 7.911,2.661 9.095 C 2.571 9.619,2.571 14.381,2.661 14.905 C 2.868 16.115,3.430 16.901,4.420 17.364 C 5.058 17.663,5.718 17.758,7.170 17.759 C 7.875 17.760,8.028 17.771,8.190 17.833 C 8.294 17.873,9.064 18.335,9.900 18.860 C 10.736 19.384,11.623 19.917,11.870 20.044 C 12.585 20.411,13.205 20.573,13.880 20.571 C 15.406 20.565,16.526 19.599,16.921 17.948 C 17.075 17.303,17.086 16.820,17.070 11.640 C 17.052 6.109,17.067 6.413,16.779 5.582 C 16.355 4.357,15.449 3.588,14.260 3.444 C 13.856 3.395,13.762 3.395,13.421 3.445 M14.520 5.045 C 14.949 5.248,15.271 5.681,15.438 6.280 C 15.593 6.835,15.606 7.360,15.590 12.380 C 15.573 17.693,15.587 17.410,15.312 18.073 C 15.158 18.443,14.846 18.792,14.530 18.946 C 14.053 19.180,13.325 19.105,12.611 18.749 C 12.418 18.653,11.564 18.139,10.714 17.607 C 9.864 17.075,9.054 16.586,8.914 16.521 C 8.424 16.293,8.287 16.275,6.880 16.242 C 5.732 16.216,5.551 16.202,5.331 16.131 C 4.632 15.902,4.291 15.489,4.136 14.686 C 4.054 14.259,4.054 9.741,4.136 9.314 C 4.291 8.511,4.632 8.098,5.331 7.869 C 5.551 7.798,5.732 7.784,6.880 7.758 C 8.287 7.725,8.424 7.707,8.914 7.479 C 9.054 7.414,9.864 6.925,10.714 6.393 C 12.877 5.040,13.159 4.911,13.920 4.931 C 14.233 4.939,14.339 4.959,14.520 5.045 M19.160 7.276 C 18.792 7.392,18.600 7.642,18.600 8.007 C 18.600 8.213,18.619 8.257,18.885 8.664 C 19.611 9.774,19.900 10.726,19.900 12.000 C 19.900 13.278,19.617 14.206,18.883 15.336 C 18.619 15.743,18.600 15.788,18.600 15.993 C 18.600 16.431,18.909 16.737,19.347 16.733 C 19.622 16.731,19.776 16.635,20.013 16.318 C 21.542 14.277,21.839 11.311,20.752 8.945 C 20.431 8.244,19.928 7.485,19.700 7.356 C 19.553 7.272,19.294 7.234,19.160 7.276 " stroke="none" fill-rule="evenodd" fill="black"></path></svg>