<svg width="24" height="24" viewBox="0 0 24 24" fill="none" xmlns="http://www.w3.org/2000/svg"><path d="M21.900 1.259 C 21.878 1.267,21.806 1.285,21.740 1.299 C 21.650 1.319,20.886 2.058,18.670 4.272 L 15.720 7.219 15.720 6.999 C 15.720 6.756,15.630 6.169,15.546 5.860 C 15.296 4.942,14.696 4.143,13.979 3.774 C 13.559 3.558,13.338 3.490,12.880 3.439 C 12.039 3.344,11.084 3.601,10.100 4.188 C 9.990 4.253,9.261 4.709,8.480 5.200 C 7.699 5.691,6.979 6.124,6.880 6.161 C 6.731 6.218,6.503 6.234,5.540 6.252 C 4.265 6.275,3.904 6.319,3.361 6.517 C 2.265 6.917,1.569 7.786,1.330 9.052 C 1.268 9.378,1.260 9.716,1.260 12.000 C 1.260 14.284,1.268 14.622,1.330 14.948 C 1.478 15.729,1.787 16.342,2.267 16.803 C 2.888 17.400,3.578 17.655,4.815 17.743 L 5.171 17.768 3.270 19.674 C 2.224 20.722,1.346 21.625,1.318 21.680 C 1.290 21.735,1.267 21.881,1.267 22.004 C 1.267 22.498,1.681 22.816,2.189 22.712 C 2.376 22.674,2.592 22.460,12.490 12.566 C 18.342 6.717,22.628 2.403,22.665 2.324 C 22.816 2.006,22.705 1.590,22.416 1.393 C 22.274 1.295,21.999 1.224,21.900 1.259 M13.209 5.053 C 13.480 5.186,13.793 5.513,13.935 5.813 C 14.166 6.300,14.206 6.544,14.239 7.640 L 14.269 8.660 10.485 12.450 L 6.700 16.240 5.600 16.239 C 4.785 16.239,4.427 16.223,4.220 16.180 C 3.447 16.017,2.984 15.552,2.819 14.773 C 2.734 14.372,2.734 9.628,2.819 9.227 C 2.970 8.514,3.345 8.087,4.011 7.869 C 4.231 7.798,4.412 7.784,5.560 7.758 C 6.711 7.731,6.894 7.718,7.154 7.643 C 7.572 7.522,7.685 7.458,9.420 6.371 C 11.082 5.329,11.453 5.127,11.923 5.000 C 12.365 4.881,12.903 4.903,13.209 5.053 M21.060 7.058 C 21.038 7.066,20.972 7.084,20.913 7.096 C 20.666 7.151,20.403 7.505,20.401 7.784 C 20.400 7.853,20.499 8.181,20.621 8.515 C 20.865 9.186,21.043 9.868,21.150 10.538 C 21.238 11.093,21.249 12.795,21.167 13.320 C 20.890 15.113,20.362 16.437,19.340 17.904 C 19.109 18.235,19.100 18.258,19.100 18.497 C 19.100 18.700,19.120 18.776,19.207 18.908 C 19.474 19.311,20.091 19.344,20.404 18.971 C 20.587 18.754,21.107 17.947,21.355 17.496 C 22.594 15.242,23.027 12.430,22.538 9.820 C 22.399 9.074,21.992 7.786,21.780 7.420 C 21.730 7.331,21.619 7.220,21.534 7.173 C 21.383 7.088,21.139 7.029,21.060 7.058 M18.500 8.756 C 18.071 8.954,17.978 9.319,18.203 9.927 C 18.870 11.732,18.636 13.720,17.569 15.306 C 17.291 15.719,17.222 15.920,17.274 16.154 C 17.355 16.513,17.632 16.733,18.003 16.733 C 18.343 16.733,18.491 16.620,18.842 16.091 C 19.951 14.417,20.332 12.361,19.894 10.400 C 19.777 9.873,19.523 9.133,19.402 8.963 C 19.296 8.814,19.018 8.680,18.817 8.681 C 18.731 8.681,18.588 8.715,18.500 8.756 M14.720 12.264 C 14.550 12.338,14.414 12.460,14.326 12.620 C 14.268 12.726,14.257 13.004,14.237 15.060 C 14.216 17.312,14.212 17.389,14.126 17.676 C 13.933 18.315,13.624 18.744,13.211 18.946 C 13.033 19.033,12.914 19.059,12.640 19.073 C 12.151 19.096,11.753 18.989,11.109 18.661 C 10.704 18.454,10.561 18.400,10.418 18.400 C 9.981 18.400,9.680 18.703,9.680 19.144 C 9.680 19.523,9.873 19.721,10.591 20.077 C 11.286 20.422,11.901 20.574,12.580 20.568 C 14.247 20.554,15.382 19.412,15.687 17.440 C 15.746 17.064,15.765 12.911,15.710 12.713 C 15.636 12.451,15.289 12.201,15.000 12.202 C 14.923 12.203,14.797 12.230,14.720 12.264 " stroke="none" fill-rule="evenodd" fill="black"></path></svg>