<svg width="24" height="24" viewBox="0 0 24 24" fill="none" xmlns="http://www.w3.org/2000/svg"><path d="M12.280 3.581 C 12.247 3.588,12.085 3.614,11.920 3.639 C 11.553 3.696,11.322 3.766,10.880 3.952 C 10.437 4.139,10.178 4.291,8.480 5.359 C 7.699 5.851,6.979 6.284,6.880 6.321 C 6.731 6.378,6.503 6.394,5.540 6.412 C 4.265 6.435,3.904 6.479,3.361 6.677 C 2.265 7.077,1.569 7.946,1.330 9.212 C 1.268 9.538,1.260 9.876,1.260 12.160 C 1.260 15.008,1.268 15.115,1.519 15.803 C 1.837 16.674,2.506 17.338,3.387 17.653 C 3.901 17.837,4.289 17.883,5.540 17.908 C 6.501 17.926,6.731 17.942,6.880 17.999 C 6.979 18.037,7.699 18.469,8.480 18.960 C 10.187 20.033,10.438 20.181,10.885 20.373 C 11.753 20.745,12.700 20.836,13.440 20.617 C 14.455 20.317,15.261 19.407,15.563 18.220 C 15.739 17.529,15.740 17.508,15.740 12.160 C 15.740 6.812,15.739 6.791,15.563 6.100 C 15.262 4.916,14.486 4.033,13.460 3.706 C 13.151 3.608,12.497 3.539,12.280 3.581 M13.209 5.213 C 13.636 5.422,13.938 5.846,14.129 6.505 L 14.220 6.820 14.220 12.160 L 14.220 17.500 14.129 17.815 C 13.940 18.465,13.631 18.901,13.211 19.106 C 12.742 19.336,12.025 19.267,11.314 18.926 C 11.130 18.837,10.251 18.309,9.360 17.752 C 8.469 17.194,7.647 16.698,7.534 16.650 C 7.074 16.452,6.927 16.434,5.560 16.402 C 4.412 16.376,4.231 16.362,4.011 16.291 C 3.345 16.073,2.970 15.646,2.819 14.933 C 2.734 14.532,2.734 9.788,2.819 9.387 C 2.974 8.659,3.349 8.238,4.040 8.019 C 4.220 7.962,4.498 7.944,5.560 7.918 C 6.705 7.891,6.895 7.877,7.154 7.802 C 7.571 7.682,7.684 7.619,9.420 6.531 C 11.080 5.490,11.451 5.287,11.923 5.160 C 12.365 5.041,12.903 5.063,13.209 5.213 M17.855 9.437 C 17.680 9.480,17.502 9.616,17.396 9.786 C 17.274 9.983,17.272 10.334,17.391 10.524 C 17.438 10.599,17.810 10.993,18.218 11.399 L 18.959 12.138 18.165 12.939 C 17.728 13.380,17.347 13.785,17.318 13.840 C 17.290 13.895,17.267 14.044,17.267 14.171 C 17.267 14.362,17.287 14.431,17.383 14.568 C 17.448 14.659,17.568 14.768,17.651 14.811 C 17.837 14.907,18.139 14.913,18.325 14.825 C 18.399 14.789,18.811 14.409,19.239 13.981 L 20.018 13.202 20.819 13.996 C 21.559 14.730,21.635 14.793,21.810 14.830 C 22.389 14.952,22.832 14.509,22.710 13.930 C 22.673 13.755,22.610 13.679,21.876 12.939 L 21.082 12.138 21.821 11.399 C 22.227 10.993,22.589 10.600,22.625 10.525 C 22.713 10.339,22.707 10.037,22.611 9.851 C 22.568 9.768,22.459 9.648,22.368 9.583 C 22.155 9.433,21.808 9.418,21.596 9.551 C 21.521 9.598,21.136 9.961,20.741 10.358 L 20.022 11.079 19.241 10.305 C 18.811 9.879,18.424 9.512,18.380 9.490 C 18.260 9.429,17.996 9.403,17.855 9.437 " stroke="none" fill-rule="evenodd" fill="black"></path></svg>