<svg width="24" height="24" viewBox="0 0 24 24" fill="none" xmlns="http://www.w3.org/2000/svg"><path d="M12.280 3.421 C 12.247 3.428,12.085 3.454,11.920 3.479 C 11.553 3.536,11.322 3.606,10.880 3.792 C 10.439 3.978,10.184 4.127,8.480 5.200 C 7.699 5.691,6.979 6.124,6.880 6.161 C 6.731 6.218,6.503 6.234,5.540 6.252 C 4.265 6.275,3.904 6.319,3.361 6.517 C 2.265 6.917,1.569 7.786,1.330 9.052 C 1.268 9.378,1.260 9.716,1.260 12.000 C 1.260 14.845,1.268 14.955,1.517 15.638 C 1.836 16.512,2.486 17.163,3.356 17.481 C 3.904 17.681,4.263 17.725,5.540 17.748 C 6.503 17.766,6.731 17.782,6.880 17.839 C 6.979 17.876,7.699 18.309,8.480 18.800 C 10.178 19.868,10.435 20.020,10.885 20.213 C 11.753 20.585,12.700 20.676,13.440 20.457 C 14.455 20.157,15.261 19.247,15.563 18.060 C 15.739 17.369,15.740 17.348,15.740 12.000 C 15.740 6.652,15.739 6.631,15.563 5.940 C 15.262 4.756,14.488 3.875,13.460 3.546 C 13.170 3.453,12.487 3.381,12.280 3.421 M19.487 4.846 C 19.228 4.974,19.100 5.191,19.100 5.503 C 19.100 5.748,19.104 5.758,19.423 6.226 C 20.645 8.019,21.240 9.908,21.240 12.000 C 21.240 14.092,20.645 15.981,19.423 17.774 C 19.104 18.242,19.100 18.252,19.100 18.497 C 19.100 18.700,19.120 18.776,19.207 18.908 C 19.334 19.100,19.595 19.240,19.824 19.240 C 20.196 19.240,20.439 19.007,20.996 18.114 C 22.545 15.632,23.086 12.584,22.495 9.662 C 22.177 8.084,21.458 6.446,20.545 5.216 C 20.221 4.779,19.869 4.656,19.487 4.846 M13.209 5.053 C 13.636 5.262,13.938 5.686,14.129 6.345 L 14.220 6.660 14.220 12.000 L 14.220 17.340 14.129 17.655 C 13.940 18.305,13.631 18.741,13.211 18.946 C 12.742 19.175,12.007 19.105,11.304 18.764 C 11.126 18.677,10.278 18.167,9.420 17.629 C 7.685 16.542,7.572 16.478,7.154 16.357 C 6.894 16.282,6.711 16.269,5.560 16.242 C 4.412 16.216,4.231 16.202,4.011 16.131 C 3.345 15.913,2.970 15.486,2.819 14.773 C 2.734 14.372,2.734 9.628,2.819 9.227 C 2.970 8.514,3.345 8.087,4.011 7.869 C 4.231 7.798,4.412 7.784,5.560 7.758 C 6.711 7.731,6.894 7.718,7.154 7.643 C 7.572 7.522,7.685 7.458,9.420 6.371 C 11.082 5.329,11.453 5.127,11.923 5.000 C 12.365 4.881,12.903 4.903,13.209 5.053 M17.815 7.277 C 17.547 7.343,17.318 7.592,17.265 7.875 C 17.226 8.085,17.306 8.302,17.559 8.677 C 18.031 9.375,18.362 10.185,18.501 10.980 C 18.595 11.519,18.595 12.481,18.501 13.020 C 18.362 13.815,18.017 14.652,17.539 15.355 C 17.291 15.718,17.223 15.925,17.274 16.154 C 17.355 16.513,17.632 16.733,18.003 16.733 C 18.339 16.733,18.484 16.623,18.830 16.103 C 19.513 15.080,19.872 14.106,20.022 12.880 C 20.237 11.110,19.826 9.390,18.830 7.897 C 18.658 7.639,18.492 7.437,18.404 7.380 C 18.240 7.274,17.999 7.232,17.815 7.277 " stroke="none" fill-rule="evenodd" fill="black"></path></svg>