<svg width="24" height="24" viewBox="0 0 24 24" fill="none" xmlns="http://www.w3.org/2000/svg"><path d="M15.740 3.426 C 15.197 3.491,14.660 3.649,14.144 3.897 C 13.944 3.993,13.073 4.515,12.209 5.056 C 11.345 5.597,10.562 6.079,10.469 6.128 C 10.310 6.212,10.232 6.218,9.100 6.246 C 7.853 6.276,7.459 6.319,6.960 6.482 C 5.739 6.882,4.985 7.859,4.801 9.280 C 4.751 9.671,4.751 14.329,4.801 14.720 C 4.985 16.141,5.739 17.118,6.960 17.518 C 7.459 17.681,7.853 17.724,9.100 17.754 C 10.232 17.782,10.310 17.788,10.469 17.872 C 10.562 17.921,11.345 18.403,12.209 18.944 C 13.073 19.485,13.942 20.005,14.140 20.099 C 14.955 20.486,15.687 20.635,16.390 20.557 C 17.938 20.384,18.954 19.223,19.199 17.347 C 19.255 16.920,19.255 7.080,19.199 6.653 C 18.953 4.766,17.949 3.618,16.389 3.438 C 16.062 3.401,15.969 3.399,15.740 3.426 M16.720 5.057 C 17.165 5.284,17.475 5.740,17.649 6.423 L 17.740 6.780 17.740 11.980 C 17.740 17.502,17.746 17.328,17.552 17.891 C 17.373 18.412,17.115 18.739,16.729 18.928 C 16.476 19.053,16.439 19.060,16.021 19.060 C 15.266 19.060,15.061 18.966,12.940 17.642 C 11.020 16.444,11.174 16.534,10.846 16.419 C 10.456 16.283,10.006 16.241,8.948 16.240 C 7.684 16.240,7.266 16.145,6.825 15.756 C 6.613 15.569,6.398 15.160,6.314 14.780 C 6.235 14.428,6.236 9.566,6.315 9.220 C 6.448 8.633,6.740 8.219,7.170 8.009 C 7.582 7.807,7.918 7.760,8.948 7.760 C 10.006 7.759,10.456 7.717,10.846 7.581 C 11.173 7.466,11.011 7.561,12.940 6.358 C 14.534 5.363,14.854 5.184,15.280 5.048 C 15.667 4.924,15.668 4.924,16.100 4.935 C 16.448 4.943,16.529 4.959,16.720 5.057 " stroke="none" fill-rule="evenodd" fill="black"></path></svg>