<svg width="24" height="24" viewBox="0 0 24 24" fill="none" xmlns="http://www.w3.org/2000/svg"><path d="M12.060 1.285 C 11.300 1.357,10.510 1.675,9.887 2.161 C 9.497 2.465,6.087 5.873,5.872 6.175 C 5.733 6.369,5.731 6.370,5.296 6.479 C 3.736 6.873,2.502 7.884,1.824 9.324 C 1.499 10.013,1.343 10.641,1.280 11.509 C 1.229 12.226,1.229 16.737,1.281 17.455 C 1.349 18.406,1.527 19.088,1.896 19.814 C 2.174 20.361,2.425 20.708,2.859 21.141 C 3.825 22.107,4.993 22.607,6.545 22.719 C 7.282 22.772,16.718 22.772,17.455 22.719 C 18.406 22.651,19.088 22.473,19.814 22.104 C 20.361 21.826,20.708 21.575,21.141 21.141 C 22.107 20.175,22.607 19.007,22.719 17.455 C 22.771 16.737,22.771 12.226,22.720 11.509 C 22.653 10.580,22.495 9.980,22.119 9.220 C 21.413 7.793,20.224 6.859,18.580 6.442 C 18.422 6.402,18.419 6.399,18.351 6.113 C 18.261 5.741,17.945 5.097,17.677 4.740 C 17.350 4.305,15.232 2.210,14.900 1.993 C 14.027 1.423,13.085 1.188,12.060 1.285 M13.360 2.874 C 13.860 3.035,14.083 3.204,15.055 4.160 C 15.558 4.655,16.105 5.213,16.270 5.400 C 16.559 5.728,16.799 6.086,16.800 6.190 C 16.800 6.230,15.880 6.240,12.330 6.240 L 7.860 6.240 9.260 4.837 C 10.030 4.065,10.770 3.354,10.905 3.257 C 11.197 3.046,11.531 2.892,11.860 2.816 C 12.213 2.735,13.024 2.767,13.360 2.874 M18.150 7.870 C 19.918 8.287,21.063 9.620,21.224 11.447 L 21.251 11.754 19.855 11.769 L 18.460 11.783 18.131 11.893 C 17.453 12.120,16.850 12.652,16.539 13.300 C 16.334 13.727,16.270 14.013,16.270 14.500 C 16.270 14.993,16.334 15.276,16.545 15.706 C 16.865 16.360,17.454 16.881,18.131 17.107 L 18.460 17.217 19.855 17.231 L 21.251 17.246 21.223 17.552 C 21.052 19.441,19.845 20.802,18.020 21.164 C 17.605 21.247,6.395 21.247,5.980 21.164 C 4.545 20.880,3.469 19.965,3.009 18.640 C 2.777 17.971,2.780 18.025,2.780 14.460 C 2.780 11.202,2.781 11.178,2.869 10.832 C 3.001 10.313,3.180 9.880,3.406 9.535 C 4.042 8.560,4.974 7.991,6.220 7.818 C 6.497 7.779,7.870 7.769,12.180 7.775 L 17.780 7.783 18.150 7.870 M21.240 14.503 L 21.240 15.765 19.970 15.753 C 18.772 15.741,18.690 15.735,18.515 15.655 C 17.865 15.354,17.578 14.604,17.874 13.980 C 18.040 13.628,18.353 13.367,18.709 13.284 C 18.792 13.264,19.395 13.246,20.050 13.244 L 21.240 13.240 21.240 14.503 " stroke="none" fill-rule="evenodd" fill="black"></path></svg>