<svg width="24" height="24" viewBox="0 0 24 24" fill="none" xmlns="http://www.w3.org/2000/svg"><path d="M12.060 1.285 C 11.300 1.357,10.510 1.675,9.887 2.161 C 9.497 2.465,6.087 5.873,5.872 6.175 C 5.733 6.369,5.731 6.370,5.296 6.479 C 3.736 6.873,2.502 7.884,1.824 9.324 C 1.499 10.013,1.343 10.641,1.280 11.509 C 1.259 11.812,1.240 12.969,1.240 14.080 L 1.240 16.100 1.118 16.280 C 0.594 17.055,0.361 17.697,0.283 18.583 C 0.164 19.948,0.623 21.265,1.567 22.263 C 3.167 23.956,5.823 24.230,7.690 22.896 L 7.880 22.760 12.390 22.760 C 14.998 22.759,17.134 22.742,17.455 22.719 C 18.406 22.651,19.088 22.473,19.814 22.104 C 20.361 21.826,20.708 21.575,21.141 21.141 C 22.107 20.175,22.607 19.007,22.719 17.455 C 22.771 16.737,22.771 12.226,22.720 11.509 C 22.653 10.580,22.495 9.980,22.119 9.220 C 21.413 7.793,20.224 6.859,18.580 6.442 C 18.422 6.402,18.419 6.399,18.351 6.113 C 18.264 5.753,17.948 5.099,17.695 4.759 C 17.388 4.345,15.227 2.206,14.900 1.993 C 14.026 1.422,13.085 1.188,12.060 1.285 M13.360 2.874 C 13.860 3.035,14.083 3.204,15.055 4.160 C 15.558 4.655,16.105 5.213,16.270 5.400 C 16.559 5.728,16.799 6.086,16.800 6.190 C 16.800 6.230,15.880 6.240,12.330 6.240 L 7.860 6.240 9.260 4.837 C 10.030 4.065,10.770 3.354,10.905 3.257 C 11.197 3.046,11.531 2.892,11.860 2.816 C 12.213 2.735,13.024 2.767,13.360 2.874 M18.150 7.870 C 19.918 8.287,21.063 9.620,21.224 11.447 L 21.251 11.754 19.855 11.769 L 18.460 11.783 18.131 11.893 C 17.453 12.120,16.850 12.652,16.539 13.300 C 16.334 13.727,16.270 14.013,16.270 14.500 C 16.270 14.993,16.334 15.276,16.545 15.706 C 16.865 16.360,17.454 16.881,18.131 17.107 L 18.460 17.217 19.855 17.231 L 21.251 17.246 21.223 17.552 C 21.074 19.194,20.133 20.462,18.680 20.979 C 17.982 21.227,18.259 21.214,13.532 21.229 L 9.205 21.243 9.340 20.931 C 10.134 19.097,9.752 17.038,8.357 15.643 C 7.043 14.329,5.100 13.903,3.360 14.547 C 3.151 14.624,2.940 14.713,2.891 14.744 C 2.843 14.775,2.792 14.800,2.779 14.800 C 2.765 14.800,2.761 13.977,2.770 12.970 C 2.788 10.947,2.792 10.914,3.081 10.162 C 3.484 9.118,4.439 8.262,5.542 7.956 C 6.222 7.767,6.240 7.767,12.180 7.775 L 17.780 7.783 18.150 7.870 M21.240 14.503 L 21.240 15.765 19.970 15.753 C 18.772 15.741,18.690 15.735,18.515 15.655 C 17.865 15.354,17.578 14.604,17.874 13.980 C 18.040 13.628,18.353 13.367,18.709 13.284 C 18.792 13.264,19.395 13.246,20.050 13.244 L 21.240 13.240 21.240 14.503 M5.820 15.852 C 6.967 16.178,7.828 17.039,8.147 18.180 C 8.298 18.721,8.244 19.587,8.026 20.145 C 7.699 20.978,6.998 21.704,6.217 22.017 C 5.626 22.253,4.852 22.310,4.256 22.161 C 2.058 21.608,1.054 19.074,2.295 17.208 C 2.742 16.534,3.523 16.006,4.340 15.824 C 4.677 15.748,5.511 15.765,5.820 15.852 M3.579 17.297 C 3.359 17.429,3.229 17.670,3.231 17.940 C 3.234 18.216,3.294 18.321,3.657 18.679 L 3.960 18.978 3.644 19.299 C 3.279 19.670,3.200 19.805,3.200 20.059 C 3.200 20.499,3.502 20.800,3.945 20.800 C 4.194 20.800,4.332 20.719,4.701 20.356 L 5.022 20.040 5.321 20.343 C 5.679 20.706,5.793 20.771,6.066 20.771 C 6.490 20.771,6.800 20.460,6.800 20.032 C 6.800 19.768,6.686 19.574,6.326 19.223 L 6.083 18.985 6.397 18.658 C 6.656 18.389,6.718 18.298,6.751 18.146 C 6.839 17.730,6.615 17.344,6.230 17.247 C 5.886 17.160,5.687 17.246,5.282 17.657 L 5.024 17.918 4.722 17.625 C 4.556 17.464,4.362 17.302,4.292 17.266 C 4.098 17.166,3.774 17.181,3.579 17.297 " stroke="none" fill-rule="evenodd" fill="black"></path></svg>