<svg width="24" height="24" viewBox="0 0 24 24" fill="none" xmlns="http://www.w3.org/2000/svg"><path d="M9.910 1.285 C 9.033 1.369,8.169 1.842,7.506 2.599 C 7.190 2.960,6.801 3.575,6.460 4.254 L 6.140 4.890 5.740 5.026 C 3.447 5.804,1.812 7.711,1.350 10.145 C 1.261 10.614,1.260 10.660,1.268 13.558 C 1.275 16.473,1.292 16.935,1.425 17.780 C 1.826 20.330,3.314 21.946,5.768 22.496 C 6.832 22.735,6.956 22.740,11.860 22.740 C 15.315 22.740,16.440 22.728,16.779 22.687 C 18.489 22.482,19.617 21.993,20.565 21.045 C 21.625 19.985,22.113 18.728,22.243 16.720 C 22.300 15.841,22.268 10.707,22.203 10.320 C 21.884 8.409,20.854 6.786,19.330 5.791 C 19.022 5.591,18.939 5.513,18.835 5.331 C 18.395 4.562,17.588 3.894,16.380 3.301 C 15.720 2.976,12.945 1.813,12.431 1.646 C 11.884 1.467,11.289 1.334,10.808 1.284 C 10.582 1.260,10.366 1.242,10.328 1.245 C 10.291 1.248,10.102 1.266,9.910 1.285 M11.292 2.873 C 11.463 2.915,11.610 2.957,11.619 2.966 C 11.634 2.980,9.268 8.506,9.233 8.540 C 9.226 8.547,8.552 8.559,7.736 8.566 L 6.252 8.580 6.311 8.440 C 6.343 8.363,6.599 7.751,6.880 7.080 C 7.161 6.409,7.440 5.734,7.501 5.580 C 7.849 4.700,8.341 3.890,8.820 3.411 C 9.164 3.066,9.480 2.878,9.844 2.801 C 10.113 2.744,10.935 2.785,11.292 2.873 M14.091 3.924 C 15.926 4.689,16.643 5.080,17.161 5.599 C 17.473 5.911,17.600 6.120,17.725 6.520 C 17.879 7.015,17.843 7.729,17.629 8.440 C 17.585 8.584,17.559 8.617,17.497 8.604 C 17.455 8.595,15.951 8.577,14.155 8.564 L 10.890 8.540 11.970 6.030 C 12.564 4.649,13.066 3.520,13.086 3.520 C 13.105 3.520,13.558 3.702,14.091 3.924 M5.319 6.870 C 5.318 6.886,5.107 7.402,4.849 8.016 L 4.380 9.131 4.037 9.337 C 3.698 9.542,3.393 9.767,3.033 10.081 L 2.846 10.243 2.901 10.007 C 3.028 9.466,3.374 8.734,3.729 8.260 C 4.028 7.860,4.567 7.329,4.940 7.067 C 5.256 6.845,5.321 6.811,5.319 6.870 M19.779 8.260 C 20.146 8.747,20.406 9.280,20.582 9.908 L 20.673 10.236 20.351 9.957 C 19.993 9.647,19.623 9.393,19.255 9.203 L 19.009 9.077 19.082 8.843 C 19.149 8.630,19.228 8.271,19.300 7.860 L 19.328 7.700 19.448 7.840 C 19.514 7.917,19.663 8.106,19.779 8.260 M17.372 10.140 C 18.925 10.410,20.204 11.588,20.629 13.140 L 20.739 13.540 20.739 15.360 C 20.739 16.937,20.730 17.229,20.669 17.549 C 20.361 19.154,19.689 20.130,18.500 20.704 C 18.115 20.890,17.655 21.035,17.090 21.147 C 16.772 21.211,16.326 21.218,12.200 21.231 C 7.463 21.246,7.081 21.236,6.260 21.075 C 4.611 20.752,3.613 19.920,3.118 18.454 C 2.848 17.655,2.760 16.846,2.760 15.166 C 2.760 13.834,2.801 13.399,2.973 12.900 C 3.198 12.242,3.570 11.669,4.082 11.187 C 4.710 10.597,5.437 10.252,6.360 10.107 C 6.415 10.098,8.838 10.088,11.745 10.085 C 16.268 10.081,17.079 10.089,17.372 10.140 " stroke="none" fill-rule="evenodd" fill="black"></path></svg>