<svg width="24" height="24" viewBox="0 0 24 24" fill="none" xmlns="http://www.w3.org/2000/svg"><path d="M6.000 2.838 C 5.253 2.953,4.724 3.116,4.145 3.411 C 2.736 4.129,1.756 5.437,1.398 7.080 C 1.289 7.578,1.231 8.590,1.247 9.720 C 1.261 10.786,1.268 10.822,1.506 11.047 C 1.647 11.181,1.799 11.240,2.000 11.240 C 2.201 11.240,2.353 11.181,2.494 11.047 C 2.741 10.813,2.737 10.838,2.765 9.180 C 2.791 7.588,2.803 7.464,2.999 6.880 C 3.307 5.962,4.029 5.125,4.859 4.724 C 5.237 4.542,5.467 4.464,5.969 4.349 C 6.335 4.265,6.407 4.263,11.260 4.249 C 14.760 4.239,16.290 4.248,16.560 4.280 C 17.796 4.428,18.689 4.883,19.347 5.700 C 19.968 6.472,20.240 7.349,20.240 8.581 L 20.240 9.192 19.290 9.210 C 18.239 9.230,18.127 9.250,17.620 9.512 C 17.212 9.723,16.632 10.314,16.429 10.725 C 16.084 11.425,16.027 12.184,16.267 12.882 C 16.589 13.816,17.416 14.526,18.433 14.742 C 18.610 14.780,18.961 14.799,19.475 14.799 L 20.250 14.800 20.229 15.590 C 20.210 16.258,20.192 16.440,20.107 16.768 C 19.746 18.157,18.758 19.186,17.421 19.564 C 16.863 19.722,16.380 19.758,14.820 19.760 C 13.471 19.762,13.326 19.768,13.180 19.835 C 12.990 19.923,12.904 20.012,12.822 20.210 C 12.743 20.398,12.743 20.602,12.822 20.790 C 12.904 20.988,12.990 21.077,13.180 21.165 C 13.326 21.232,13.472 21.238,14.904 21.239 C 15.764 21.240,16.619 21.221,16.804 21.198 C 19.409 20.875,21.209 19.184,21.641 16.652 C 21.689 16.375,21.730 15.885,21.746 15.401 L 21.772 14.605 21.965 14.481 C 22.363 14.223,22.659 13.742,22.723 13.250 C 22.768 12.900,22.768 11.100,22.723 10.750 C 22.659 10.258,22.363 9.777,21.965 9.519 L 21.772 9.395 21.747 8.627 C 21.717 7.750,21.675 7.362,21.556 6.880 C 21.174 5.330,20.163 4.053,18.777 3.367 C 18.253 3.109,17.638 2.928,16.915 2.822 C 16.546 2.768,15.820 2.760,11.475 2.764 C 6.890 2.767,6.421 2.773,6.000 2.838 M6.720 10.268 C 6.165 10.327,5.463 10.526,5.020 10.750 C 4.530 10.997,3.881 11.547,3.547 11.998 C 3.325 12.298,3.063 12.837,2.954 13.220 C 2.863 13.536,2.862 13.573,2.849 16.120 C 2.835 18.801,2.857 19.360,2.995 19.840 C 3.173 20.461,3.479 20.966,3.977 21.462 C 4.810 22.292,5.916 22.730,7.180 22.730 C 9.032 22.730,10.623 21.731,11.242 20.180 C 11.477 19.590,11.481 19.540,11.485 16.469 C 11.489 13.745,11.486 13.649,11.405 13.308 C 11.244 12.635,10.922 12.077,10.383 11.535 C 10.022 11.172,9.638 10.908,9.134 10.675 C 8.435 10.352,7.463 10.188,6.720 10.268 M21.167 10.786 C 21.234 10.847,21.240 10.939,21.240 12.000 C 21.240 13.074,21.235 13.152,21.164 13.216 C 21.096 13.278,20.973 13.283,19.854 13.272 L 18.620 13.260 18.367 13.123 C 17.855 12.845,17.614 12.437,17.649 11.905 C 17.683 11.377,18.005 10.958,18.515 10.775 C 18.621 10.737,18.987 10.723,19.877 10.722 C 20.955 10.720,21.102 10.728,21.167 10.786 M8.000 11.862 C 8.752 12.054,9.485 12.612,9.796 13.229 C 10.017 13.669,10.053 14.314,9.881 14.769 C 9.694 15.266,9.249 15.707,8.660 15.982 C 7.752 16.406,6.514 16.395,5.624 15.955 C 4.815 15.555,4.360 14.907,4.360 14.155 C 4.360 13.536,4.547 13.090,4.998 12.637 C 5.440 12.193,5.919 11.938,6.540 11.816 C 6.893 11.748,7.643 11.771,8.000 11.862 M5.024 17.320 C 6.479 18.010,8.465 17.917,9.743 17.100 C 9.867 17.020,9.978 16.965,9.990 16.977 C 10.024 17.011,9.896 17.487,9.796 17.699 C 9.612 18.091,9.101 18.540,8.578 18.771 C 7.813 19.107,6.678 19.123,5.864 18.807 C 5.136 18.524,4.584 17.962,4.422 17.339 C 4.322 16.956,4.329 16.936,4.530 17.061 C 4.623 17.119,4.846 17.236,5.024 17.320 M4.940 20.045 C 5.609 20.391,6.275 20.537,7.180 20.537 C 8.089 20.537,8.799 20.378,9.457 20.029 C 9.602 19.952,9.720 19.904,9.720 19.921 C 9.720 19.974,9.424 20.331,9.248 20.489 C 8.683 20.997,8.014 21.240,7.180 21.240 C 6.308 21.240,5.640 20.985,5.046 20.423 C 4.845 20.234,4.545 19.850,4.625 19.885 C 4.644 19.894,4.786 19.966,4.940 20.045 " stroke="none" fill-rule="evenodd" fill="black"></path></svg>