<svg width="24" height="24" viewBox="0 0 24 24" fill="none" xmlns="http://www.w3.org/2000/svg"><path d="M6.000 2.838 C 5.253 2.953,4.724 3.116,4.145 3.411 C 2.736 4.129,1.756 5.437,1.398 7.080 C 1.255 7.734,1.233 8.556,1.251 12.480 C 1.268 16.072,1.272 16.238,1.353 16.664 C 1.838 19.231,3.594 20.875,6.196 21.198 C 6.657 21.255,16.343 21.255,16.804 21.198 C 19.409 20.875,21.209 19.184,21.641 16.652 C 21.689 16.375,21.730 15.885,21.746 15.401 L 21.772 14.605 21.965 14.481 C 22.363 14.223,22.659 13.742,22.723 13.250 C 22.768 12.900,22.768 11.100,22.723 10.750 C 22.659 10.258,22.363 9.777,21.965 9.519 L 21.772 9.395 21.747 8.627 C 21.717 7.750,21.675 7.362,21.556 6.880 C 21.174 5.330,20.163 4.053,18.777 3.367 C 18.253 3.109,17.638 2.928,16.915 2.822 C 16.546 2.768,15.820 2.760,11.475 2.764 C 6.890 2.767,6.421 2.773,6.000 2.838 M16.700 4.299 C 17.883 4.470,18.709 4.908,19.347 5.700 C 19.968 6.472,20.240 7.349,20.240 8.581 L 20.240 9.192 19.290 9.210 C 18.239 9.230,18.127 9.250,17.620 9.512 C 17.212 9.723,16.632 10.314,16.429 10.725 C 16.084 11.425,16.027 12.184,16.267 12.882 C 16.589 13.816,17.416 14.526,18.433 14.742 C 18.610 14.780,18.961 14.799,19.475 14.799 L 20.250 14.800 20.229 15.590 C 20.210 16.258,20.192 16.440,20.107 16.768 C 19.746 18.157,18.758 19.186,17.421 19.564 C 16.751 19.754,16.606 19.758,11.500 19.758 C 6.394 19.758,6.249 19.754,5.579 19.564 C 4.947 19.385,4.392 19.062,3.925 18.599 C 3.432 18.111,3.089 17.506,2.889 16.768 L 2.783 16.380 2.769 12.220 C 2.760 9.313,2.769 7.964,2.800 7.740 C 2.890 7.091,3.129 6.442,3.461 5.941 C 3.670 5.626,4.133 5.171,4.474 4.944 C 4.964 4.618,5.659 4.378,6.380 4.286 C 6.534 4.266,8.829 4.248,11.480 4.246 C 15.491 4.242,16.367 4.251,16.700 4.299 M6.815 8.278 C 6.331 8.393,6.098 9.004,6.383 9.408 C 6.447 9.499,6.572 9.610,6.660 9.656 C 6.818 9.739,6.865 9.740,9.878 9.751 C 12.020 9.759,13.000 9.749,13.151 9.718 C 13.902 9.562,13.931 8.473,13.189 8.286 C 12.979 8.234,7.033 8.226,6.815 8.278 M21.167 10.786 C 21.234 10.847,21.240 10.939,21.240 12.000 C 21.240 13.074,21.235 13.152,21.164 13.216 C 21.096 13.278,20.973 13.283,19.854 13.272 L 18.620 13.260 18.367 13.123 C 17.855 12.845,17.614 12.437,17.649 11.905 C 17.683 11.377,18.005 10.958,18.515 10.775 C 18.621 10.737,18.987 10.723,19.877 10.722 C 20.955 10.720,21.102 10.728,21.167 10.786 " stroke="none" fill-rule="evenodd" fill="black"></path></svg>