<svg width="24" height="24" viewBox="0 0 24 24" fill="none" xmlns="http://www.w3.org/2000/svg"><path d="M12.060 1.285 C 11.300 1.357,10.510 1.675,9.887 2.161 C 9.497 2.465,6.087 5.873,5.872 6.175 C 5.733 6.369,5.731 6.370,5.296 6.479 C 3.736 6.873,2.502 7.884,1.824 9.324 C 1.499 10.013,1.343 10.641,1.280 11.509 C 1.259 11.812,1.241 12.967,1.240 14.075 L 1.240 16.089 1.065 16.355 C 0.596 17.064,0.355 17.760,0.280 18.619 C 0.164 19.946,0.634 21.277,1.567 22.263 C 3.145 23.931,5.717 24.219,7.638 22.941 L 7.911 22.760 12.405 22.760 C 15.003 22.759,17.134 22.742,17.455 22.719 C 18.406 22.651,19.088 22.473,19.814 22.104 C 20.361 21.826,20.708 21.575,21.141 21.141 C 22.107 20.175,22.607 19.007,22.719 17.455 C 22.771 16.737,22.771 12.226,22.720 11.509 C 22.653 10.580,22.495 9.980,22.119 9.220 C 21.413 7.793,20.224 6.859,18.580 6.442 C 18.422 6.402,18.419 6.399,18.351 6.113 C 18.264 5.753,17.948 5.099,17.695 4.759 C 17.388 4.345,15.227 2.206,14.900 1.993 C 14.026 1.422,13.085 1.188,12.060 1.285 M13.360 2.874 C 13.860 3.035,14.083 3.204,15.055 4.160 C 15.558 4.655,16.105 5.213,16.270 5.400 C 16.559 5.728,16.799 6.086,16.800 6.190 C 16.800 6.230,15.880 6.240,12.330 6.240 L 7.860 6.240 9.260 4.837 C 10.030 4.065,10.770 3.354,10.905 3.257 C 11.197 3.046,11.531 2.892,11.860 2.816 C 12.213 2.735,13.024 2.767,13.360 2.874 M18.150 7.870 C 19.918 8.287,21.063 9.620,21.224 11.447 L 21.251 11.754 19.855 11.769 L 18.460 11.783 18.131 11.893 C 17.453 12.120,16.850 12.652,16.539 13.300 C 16.334 13.727,16.270 14.013,16.270 14.500 C 16.270 14.993,16.334 15.276,16.545 15.706 C 16.865 16.360,17.454 16.881,18.131 17.107 L 18.460 17.217 19.855 17.231 L 21.251 17.246 21.223 17.552 C 21.074 19.194,20.133 20.462,18.680 20.979 C 17.982 21.227,18.259 21.214,13.532 21.229 L 9.205 21.243 9.340 20.931 C 10.134 19.097,9.752 17.038,8.357 15.643 C 6.964 14.251,4.899 13.867,3.067 14.661 L 2.754 14.796 2.770 12.968 C 2.788 10.947,2.792 10.914,3.081 10.162 C 3.484 9.118,4.439 8.262,5.542 7.956 C 6.222 7.767,6.240 7.767,12.180 7.775 L 17.780 7.783 18.150 7.870 M21.240 14.503 L 21.240 15.765 19.970 15.753 C 18.772 15.741,18.690 15.735,18.515 15.655 C 17.865 15.354,17.578 14.604,17.874 13.980 C 18.040 13.628,18.353 13.367,18.709 13.284 C 18.792 13.264,19.395 13.246,20.050 13.244 L 21.240 13.240 21.240 14.503 M5.820 15.852 C 6.967 16.178,7.828 17.039,8.147 18.180 C 8.177 18.290,8.213 18.569,8.226 18.800 C 8.281 19.770,7.949 20.621,7.241 21.325 C 6.947 21.618,6.832 21.700,6.477 21.875 C 5.928 22.146,5.548 22.240,5.000 22.240 C 4.456 22.240,4.072 22.146,3.535 21.881 C 2.690 21.465,2.078 20.685,1.837 19.720 C 1.717 19.240,1.742 18.485,1.895 18.020 C 2.258 16.911,3.203 16.066,4.360 15.818 C 4.679 15.750,5.528 15.770,5.820 15.852 M4.815 16.797 C 4.639 16.840,4.461 16.976,4.355 17.149 C 4.277 17.274,4.261 17.365,4.247 17.768 L 4.230 18.240 3.788 18.240 C 3.260 18.240,3.075 18.308,2.894 18.568 C 2.799 18.706,2.780 18.774,2.780 18.980 C 2.780 19.262,2.875 19.440,3.113 19.604 C 3.239 19.690,3.304 19.701,3.742 19.713 L 4.231 19.726 4.247 20.213 C 4.261 20.638,4.276 20.722,4.361 20.874 C 4.494 21.109,4.722 21.240,5.000 21.240 C 5.278 21.240,5.506 21.109,5.639 20.874 C 5.724 20.722,5.739 20.638,5.753 20.210 L 5.770 19.720 6.212 19.720 C 6.743 19.720,6.941 19.647,7.113 19.388 C 7.266 19.157,7.266 18.803,7.113 18.572 C 6.941 18.313,6.743 18.240,6.212 18.240 L 5.770 18.240 5.753 17.787 C 5.739 17.435,5.717 17.300,5.654 17.177 C 5.504 16.887,5.133 16.719,4.815 16.797 " stroke="none" fill-rule="evenodd" fill="black"></path></svg>