<svg width="24" height="24" viewBox="0 0 24 24" fill="none" xmlns="http://www.w3.org/2000/svg"><path d="M5.240 2.123 C 4.341 2.206,3.456 2.597,2.726 3.233 C 2.169 3.718,1.642 4.566,1.423 5.331 C 1.244 5.955,1.234 6.346,1.251 12.220 C 1.264 17.106,1.273 17.735,1.332 18.020 C 1.711 19.869,3.004 21.244,4.840 21.754 L 5.220 21.860 11.000 21.860 L 16.780 21.860 17.160 21.754 C 18.797 21.300,20.047 20.118,20.515 18.580 C 20.673 18.063,20.713 17.795,20.746 17.050 L 20.772 16.440 20.978 16.440 C 21.577 16.440,22.134 16.129,22.469 15.608 C 22.712 15.230,22.727 15.134,22.749 13.894 C 22.778 12.218,22.704 11.866,22.219 11.381 C 21.916 11.078,21.601 10.931,21.131 10.873 L 20.772 10.829 20.745 10.206 C 20.704 9.243,20.559 8.655,20.188 7.941 C 19.619 6.847,18.559 5.976,17.340 5.601 C 17.012 5.500,16.333 5.402,15.956 5.401 L 15.692 5.400 15.619 5.130 C 15.453 4.511,15.216 4.055,14.815 3.583 C 14.206 2.866,13.333 2.381,12.280 2.175 C 11.984 2.117,11.535 2.108,8.780 2.099 C 7.042 2.093,5.449 2.104,5.240 2.123 M12.260 3.691 C 13.131 3.943,13.802 4.507,14.091 5.230 L 14.159 5.400 9.989 5.400 C 5.801 5.400,5.437 5.410,4.860 5.547 C 4.161 5.713,3.378 6.121,2.890 6.575 L 2.760 6.696 2.761 6.418 C 2.763 5.340,3.461 4.308,4.506 3.835 C 5.016 3.603,4.958 3.606,8.640 3.614 C 11.715 3.621,12.042 3.628,12.260 3.691 M16.731 6.971 C 17.342 7.118,17.865 7.430,18.348 7.933 C 18.712 8.312,18.947 8.698,19.106 9.180 C 19.199 9.460,19.214 9.584,19.231 10.164 L 19.249 10.828 18.814 10.851 C 18.250 10.881,17.828 11.012,17.424 11.282 C 16.342 12.006,15.873 13.301,16.257 14.505 C 16.611 15.616,17.765 16.440,18.967 16.440 L 19.240 16.440 19.240 16.976 C 19.240 18.051,19.012 18.675,18.367 19.365 C 18.035 19.719,17.655 19.989,17.253 20.155 C 16.676 20.392,17.022 20.380,11.000 20.380 C 4.978 20.380,5.324 20.392,4.747 20.155 C 3.985 19.840,3.286 19.133,2.974 18.360 C 2.760 17.832,2.760 17.822,2.760 13.635 C 2.760 9.272,2.751 9.426,3.056 8.780 C 3.539 7.760,4.523 7.039,5.594 6.922 C 5.762 6.904,8.276 6.892,11.180 6.897 C 15.908 6.905,16.488 6.912,16.731 6.971 M6.720 10.464 C 6.423 10.593,6.269 10.826,6.269 11.146 C 6.269 11.413,6.411 11.667,6.632 11.790 L 6.791 11.880 10.002 11.880 L 13.213 11.880 13.377 11.784 C 13.787 11.544,13.858 10.934,13.513 10.612 C 13.280 10.394,13.378 10.400,9.991 10.402 C 7.285 10.403,6.841 10.411,6.720 10.464 M21.151 12.422 C 21.239 12.484,21.240 12.491,21.240 13.639 L 21.240 14.794 21.135 14.877 C 21.035 14.956,20.981 14.960,20.065 14.959 C 19.534 14.959,18.985 14.942,18.845 14.922 C 18.379 14.854,17.954 14.571,17.752 14.192 C 17.675 14.047,17.660 13.959,17.660 13.640 C 17.660 13.187,17.730 13.021,18.049 12.715 C 18.400 12.378,18.472 12.364,19.861 12.362 C 20.886 12.360,21.075 12.369,21.151 12.422 " stroke="none" fill-rule="evenodd" fill="black"></path></svg>