<svg width="24" height="24" viewBox="0 0 24 24" fill="none" xmlns="http://www.w3.org/2000/svg"><path d="M11.740 1.268 C 11.248 1.296,10.725 1.439,10.260 1.671 C 9.856 1.873,4.364 5.045,3.960 5.310 C 3.047 5.909,2.475 6.753,2.233 7.860 C 2.156 8.210,2.156 15.790,2.233 16.140 C 2.474 17.244,3.046 18.094,3.936 18.675 C 4.365 18.954,9.852 22.125,10.260 22.329 C 10.825 22.611,11.321 22.727,11.973 22.727 C 12.647 22.728,13.170 22.613,13.700 22.349 C 14.049 22.175,19.857 18.817,20.137 18.627 C 20.798 18.181,21.378 17.394,21.632 16.600 C 21.823 16.000,21.820 16.083,21.820 12.000 C 21.820 7.916,21.823 7.998,21.631 7.400 C 21.374 6.597,20.803 5.822,20.137 5.373 C 19.857 5.183,14.049 1.825,13.700 1.651 C 13.149 1.376,12.400 1.229,11.740 1.268 M12.477 2.799 C 12.591 2.821,12.797 2.889,12.935 2.949 C 13.072 3.010,14.561 3.852,16.243 4.820 C 19.165 6.502,19.313 6.593,19.604 6.880 C 19.935 7.207,20.147 7.575,20.259 8.018 C 20.350 8.376,20.350 15.624,20.259 15.982 C 20.147 16.423,19.935 16.791,19.602 17.119 C 19.310 17.407,19.161 17.498,16.241 19.180 C 14.560 20.148,13.076 20.989,12.942 21.048 C 12.589 21.207,12.317 21.252,11.860 21.230 C 11.572 21.216,11.386 21.183,11.197 21.113 C 10.966 21.027,5.118 17.684,4.699 17.398 C 4.282 17.114,3.944 16.657,3.770 16.143 L 3.660 15.820 3.660 12.040 C 3.660 7.792,3.643 8.055,3.964 7.437 C 4.282 6.825,4.305 6.809,7.802 4.792 C 9.507 3.808,10.970 2.975,11.053 2.941 C 11.464 2.769,12.022 2.713,12.477 2.799 M11.698 7.075 C 11.517 7.158,11.335 7.353,11.290 7.513 C 11.273 7.572,11.260 8.880,11.260 10.420 L 11.260 13.220 11.353 13.369 C 11.714 13.949,12.581 13.811,12.718 13.151 C 12.749 13.000,12.759 12.119,12.751 10.237 C 12.741 7.816,12.733 7.528,12.674 7.420 C 12.474 7.057,12.060 6.911,11.698 7.075 M11.673 15.263 C 11.402 15.347,11.139 15.622,11.055 15.910 C 10.975 16.187,10.998 16.522,11.114 16.749 C 11.399 17.308,12.160 17.461,12.634 17.056 C 13.094 16.662,13.124 15.930,12.697 15.504 C 12.418 15.224,12.067 15.142,11.673 15.263 " stroke="none" fill-rule="evenodd" fill="black"></path></svg>