<svg width="24" height="24" viewBox="0 0 24 24" fill="none" xmlns="http://www.w3.org/2000/svg"><path d="M7.815 1.278 C 7.331 1.393,7.098 2.004,7.383 2.408 C 7.447 2.499,7.572 2.610,7.660 2.656 C 7.819 2.739,7.851 2.740,11.879 2.751 C 14.744 2.759,16.001 2.749,16.153 2.717 C 16.902 2.562,16.930 1.473,16.189 1.286 C 15.979 1.234,8.034 1.226,7.815 1.278 M7.960 4.282 C 5.904 4.442,4.701 5.498,4.334 7.462 C 4.265 7.833,4.260 8.138,4.260 12.000 C 4.260 15.862,4.265 16.167,4.334 16.538 C 4.680 18.390,5.749 19.411,7.634 19.689 C 8.133 19.762,15.867 19.762,16.366 19.689 C 18.308 19.403,19.403 18.308,19.689 16.366 C 19.762 15.867,19.762 8.133,19.689 7.634 C 19.615 7.128,19.494 6.704,19.321 6.332 C 18.793 5.205,17.879 4.565,16.440 4.316 C 16.126 4.261,8.608 4.231,7.960 4.282 M16.426 5.837 C 17.447 6.047,17.997 6.624,18.181 7.675 C 18.270 8.180,18.268 15.881,18.180 16.349 C 18.015 17.219,17.614 17.748,16.912 18.023 C 16.358 18.240,16.363 18.240,11.986 18.239 C 8.177 18.239,7.919 18.235,7.574 18.163 C 6.595 17.961,6.039 17.405,5.837 16.426 C 5.765 16.081,5.761 15.824,5.761 12.000 C 5.761 8.176,5.765 7.919,5.837 7.574 C 6.037 6.603,6.593 6.041,7.555 5.838 C 7.875 5.771,8.193 5.765,11.980 5.763 C 15.829 5.761,16.081 5.765,16.426 5.837 M11.815 9.277 C 11.638 9.321,11.461 9.456,11.353 9.631 L 11.260 9.780 11.260 12.000 L 11.260 14.220 11.353 14.369 C 11.710 14.943,12.576 14.812,12.716 14.162 C 12.774 13.891,12.775 10.093,12.717 9.841 C 12.623 9.432,12.215 9.177,11.815 9.277 M14.815 11.277 C 14.638 11.321,14.461 11.456,14.353 11.631 C 14.261 11.778,14.260 11.793,14.260 13.000 C 14.260 14.207,14.261 14.222,14.353 14.369 C 14.710 14.943,15.576 14.812,15.716 14.162 C 15.772 13.901,15.773 12.083,15.717 11.841 C 15.623 11.432,15.215 11.177,14.815 11.277 M8.815 12.277 C 8.638 12.321,8.461 12.456,8.353 12.631 C 8.265 12.772,8.260 12.816,8.260 13.500 C 8.260 14.184,8.265 14.228,8.353 14.369 C 8.710 14.943,9.576 14.812,9.716 14.162 C 9.771 13.904,9.772 13.080,9.717 12.841 C 9.623 12.432,9.215 12.177,8.815 12.277 M7.815 21.278 C 7.331 21.393,7.098 22.004,7.383 22.408 C 7.447 22.499,7.572 22.610,7.660 22.656 C 7.819 22.739,7.851 22.740,11.879 22.751 C 14.744 22.759,16.001 22.749,16.153 22.717 C 16.902 22.562,16.930 21.473,16.189 21.286 C 15.979 21.234,8.034 21.226,7.815 21.278 " stroke="none" fill-rule="evenodd" fill="black"></path></svg>