<svg width="24" height="24" viewBox="0 0 24 24" fill="none" xmlns="http://www.w3.org/2000/svg"><path d="M9.080 1.282 C 5.008 1.495,2.895 3.296,2.383 6.991 C 2.270 7.803,2.242 8.816,2.242 12.000 C 2.242 16.504,2.302 17.273,2.760 18.650 C 3.532 20.963,5.206 22.226,8.027 22.622 C 8.731 22.721,9.846 22.759,12.000 22.759 C 15.375 22.759,16.369 22.668,17.644 22.242 C 19.966 21.466,21.225 19.797,21.622 16.973 C 21.728 16.214,21.759 15.098,21.759 12.000 C 21.759 8.902,21.728 7.786,21.622 7.027 C 21.359 5.157,20.686 3.741,19.641 2.857 C 18.477 1.874,17.011 1.396,14.806 1.280 C 13.955 1.235,9.952 1.237,9.080 1.282 M15.800 2.855 C 18.582 3.312,19.714 4.454,20.148 7.240 C 20.214 7.661,20.220 8.064,20.220 12.000 C 20.220 15.936,20.214 16.339,20.148 16.760 C 19.712 19.558,18.558 20.712,15.760 21.148 C 15.345 21.213,14.975 21.220,12.000 21.220 C 9.025 21.220,8.655 21.213,8.240 21.148 C 5.450 20.713,4.283 19.551,3.854 16.780 C 3.785 16.335,3.780 15.989,3.780 12.000 C 3.780 8.011,3.785 7.665,3.854 7.220 C 4.229 4.797,5.188 3.606,7.200 3.065 C 8.241 2.785,8.556 2.767,12.200 2.777 C 14.998 2.784,15.430 2.794,15.800 2.855 M10.907 5.624 C 9.622 5.789,8.307 6.271,7.280 6.954 C 6.724 7.324,6.226 7.729,6.123 7.895 C 5.996 8.101,5.975 8.353,6.070 8.564 C 6.176 8.803,8.263 12.151,8.395 12.295 C 8.532 12.445,8.714 12.520,8.941 12.520 C 9.156 12.520,9.302 12.452,9.595 12.212 C 10.044 11.848,10.560 11.598,11.169 11.451 C 11.600 11.348,12.472 11.357,12.908 11.471 C 13.494 11.623,14.007 11.881,14.440 12.240 C 14.694 12.450,14.848 12.520,15.059 12.520 C 15.286 12.520,15.468 12.445,15.605 12.295 C 15.737 12.151,17.858 8.741,17.945 8.534 C 18.023 8.348,17.995 8.086,17.877 7.895 C 17.690 7.593,16.606 6.826,15.820 6.441 C 14.330 5.712,12.544 5.415,10.907 5.624 M12.686 7.082 C 13.571 7.172,14.333 7.389,15.140 7.780 C 15.623 8.014,16.240 8.396,16.240 8.462 C 16.240 8.502,14.954 10.582,14.888 10.648 C 14.870 10.666,14.678 10.591,14.461 10.480 C 12.900 9.686,11.100 9.686,9.539 10.480 C 9.322 10.591,9.130 10.666,9.112 10.648 C 9.046 10.582,7.760 8.502,7.760 8.462 C 7.760 8.396,8.377 8.014,8.860 7.780 C 10.086 7.185,11.380 6.949,12.686 7.082 " stroke="none" fill-rule="evenodd" fill="black"></path></svg>