<svg width="24" height="24" viewBox="0 0 24 24" fill="none" xmlns="http://www.w3.org/2000/svg"><path d="M6.313 5.281 C 5.015 5.380,4.091 5.903,3.548 6.846 C 3.389 7.123,3.206 7.704,3.140 8.148 C 3.052 8.727,3.052 15.273,3.140 15.852 C 3.407 17.628,4.472 18.576,6.360 18.718 C 7.372 18.795,8.323 18.629,8.980 18.262 C 9.635 17.895,10.068 17.360,10.322 16.600 C 10.523 16.001,10.560 15.616,10.560 14.110 L 10.560 12.760 12.000 12.760 L 13.440 12.760 13.440 14.110 C 13.440 15.616,13.477 16.001,13.678 16.600 C 14.115 17.904,15.110 18.597,16.720 18.718 C 17.732 18.794,18.683 18.629,19.340 18.262 C 20.185 17.789,20.689 16.991,20.860 15.852 C 20.948 15.273,20.948 8.727,20.860 8.148 C 20.593 6.372,19.528 5.424,17.640 5.282 C 16.628 5.205,15.677 5.371,15.020 5.738 C 14.365 6.105,13.932 6.640,13.678 7.400 C 13.477 7.999,13.440 8.384,13.440 9.890 L 13.440 11.240 12.000 11.240 L 10.560 11.240 10.560 9.890 C 10.560 8.384,10.523 7.999,10.322 7.400 C 9.956 6.308,9.210 5.658,8.000 5.377 C 7.780 5.326,6.866 5.231,6.740 5.247 C 6.718 5.249,6.526 5.265,6.313 5.281 M7.613 6.819 C 8.389 6.984,8.787 7.355,8.985 8.100 C 9.056 8.363,9.060 8.595,9.060 12.000 C 9.060 15.405,9.056 15.637,8.985 15.900 C 8.729 16.862,8.120 17.239,6.820 17.239 C 5.520 17.239,4.911 16.862,4.655 15.900 C 4.584 15.637,4.580 15.405,4.580 12.000 C 4.580 8.595,4.584 8.363,4.655 8.100 C 4.751 7.738,4.936 7.390,5.114 7.233 C 5.301 7.069,5.688 6.891,6.005 6.822 C 6.349 6.747,7.266 6.746,7.613 6.819 M17.973 6.819 C 18.749 6.984,19.147 7.355,19.345 8.100 C 19.416 8.363,19.420 8.595,19.420 12.000 C 19.420 15.405,19.416 15.637,19.345 15.900 C 19.089 16.862,18.480 17.239,17.180 17.239 C 15.880 17.239,15.271 16.862,15.015 15.900 C 14.944 15.637,14.940 15.405,14.940 12.000 C 14.940 8.595,14.944 8.363,15.015 8.100 C 15.111 7.738,15.296 7.390,15.474 7.233 C 15.661 7.069,16.048 6.891,16.365 6.822 C 16.709 6.747,17.626 6.746,17.973 6.819 M1.180 8.835 C 0.990 8.923,0.904 9.012,0.822 9.210 C 0.768 9.338,0.760 9.712,0.761 12.009 C 0.762 14.496,0.766 14.670,0.835 14.820 C 0.923 15.010,1.012 15.096,1.210 15.178 C 1.398 15.257,1.602 15.257,1.790 15.178 C 1.988 15.096,2.077 15.010,2.165 14.820 C 2.234 14.670,2.238 14.496,2.238 12.000 C 2.238 9.504,2.234 9.330,2.165 9.180 C 2.077 8.990,1.988 8.904,1.790 8.822 C 1.595 8.740,1.376 8.745,1.180 8.835 M22.180 8.835 C 21.990 8.923,21.904 9.012,21.822 9.210 C 21.768 9.338,21.760 9.712,21.761 12.009 C 21.762 14.496,21.766 14.670,21.835 14.820 C 21.923 15.010,22.012 15.096,22.210 15.178 C 22.398 15.257,22.602 15.257,22.790 15.178 C 22.988 15.096,23.077 15.010,23.165 14.820 C 23.234 14.670,23.238 14.496,23.238 12.000 C 23.238 9.504,23.234 9.330,23.165 9.180 C 23.077 8.990,22.988 8.904,22.790 8.822 C 22.595 8.740,22.376 8.745,22.180 8.835 " stroke="none" fill-rule="evenodd" fill="black"></path></svg>