<svg width="24" height="24" viewBox="0 0 24 24" fill="none" xmlns="http://www.w3.org/2000/svg"><path d="M10.780 4.146 C 7.585 4.404,4.517 5.569,1.871 7.529 C 1.376 7.896,1.270 8.037,1.267 8.334 C 1.263 8.708,1.490 9.006,1.839 9.084 C 2.116 9.146,2.270 9.079,2.925 8.611 C 5.240 6.954,7.690 5.999,10.460 5.673 C 10.718 5.643,11.354 5.621,12.000 5.621 C 12.646 5.621,13.282 5.643,13.540 5.673 C 16.310 5.999,18.760 6.954,21.075 8.611 C 21.730 9.079,21.884 9.146,22.161 9.084 C 22.510 9.006,22.737 8.708,22.733 8.334 C 22.730 8.036,22.622 7.892,22.120 7.522 C 19.702 5.737,17.002 4.634,14.080 4.238 C 13.588 4.171,13.204 4.151,12.220 4.142 C 11.538 4.135,10.890 4.137,10.780 4.146 M11.040 8.642 C 9.451 8.781,7.915 9.227,6.462 9.972 C 5.906 10.257,4.932 10.874,4.526 11.197 C 4.192 11.464,4.085 11.784,4.222 12.111 C 4.348 12.412,4.580 12.570,4.899 12.573 C 5.136 12.575,5.251 12.520,5.685 12.199 C 6.629 11.499,7.860 10.889,9.020 10.547 C 10.067 10.238,10.924 10.114,12.000 10.114 C 13.129 10.114,14.018 10.248,15.107 10.584 C 16.276 10.944,17.284 11.450,18.318 12.194 C 18.548 12.359,18.807 12.519,18.895 12.550 C 19.309 12.692,19.788 12.371,19.831 11.923 C 19.871 11.498,19.719 11.324,18.744 10.675 C 18.096 10.244,16.893 9.625,16.240 9.386 C 15.314 9.046,14.226 8.780,13.360 8.681 C 12.828 8.620,11.541 8.598,11.040 8.642 M11.080 12.965 C 10.092 13.064,8.890 13.414,7.988 13.865 C 7.273 14.222,6.295 14.881,6.163 15.094 C 5.917 15.493,6.098 16.013,6.542 16.183 C 6.798 16.281,7.003 16.241,7.297 16.037 C 8.085 15.491,8.468 15.265,8.990 15.040 C 11.379 14.010,14.055 14.260,16.213 15.715 C 16.989 16.238,16.954 16.220,17.197 16.218 C 17.462 16.215,17.636 16.133,17.782 15.941 C 17.982 15.679,17.984 15.270,17.788 15.035 C 17.677 14.903,17.084 14.478,16.640 14.212 C 14.982 13.220,12.988 12.773,11.080 12.965 M11.600 17.508 C 10.745 17.575,9.775 17.942,9.096 18.454 C 8.765 18.704,8.669 18.855,8.667 19.133 C 8.663 19.571,8.969 19.880,9.407 19.880 C 9.609 19.880,9.658 19.859,10.039 19.615 C 10.748 19.159,11.256 19.000,11.996 19.000 C 12.771 19.001,13.329 19.180,14.035 19.655 C 14.340 19.859,14.390 19.880,14.587 19.880 C 15.283 19.880,15.610 19.086,15.110 18.612 C 14.738 18.261,13.873 17.814,13.265 17.660 C 12.880 17.563,12.196 17.474,11.926 17.487 C 11.846 17.491,11.699 17.500,11.600 17.508 " stroke="none" fill-rule="evenodd" fill="black"></path></svg>