<svg width="24" height="24" viewBox="0 0 24 24" fill="none" xmlns="http://www.w3.org/2000/svg"><path d="M8.080 1.282 C 4.008 1.495,1.895 3.296,1.383 6.991 C 1.270 7.803,1.242 8.816,1.242 12.000 C 1.242 16.504,1.302 17.273,1.760 18.650 C 2.532 20.963,4.206 22.226,7.027 22.622 C 7.786 22.728,8.902 22.759,12.000 22.759 C 15.098 22.759,16.214 22.728,16.973 22.622 C 19.443 22.275,20.996 21.288,21.897 19.490 C 22.379 18.530,22.638 17.369,22.720 15.807 C 22.771 14.838,22.771 9.162,22.720 8.193 C 22.657 6.998,22.521 6.191,22.242 5.356 C 21.632 3.531,20.469 2.367,18.650 1.760 C 17.788 1.473,17.023 1.344,15.806 1.280 C 14.952 1.235,8.952 1.237,8.080 1.282 M16.800 2.854 C 19.586 3.316,20.714 4.454,21.148 7.240 C 21.214 7.661,21.220 8.064,21.220 12.000 C 21.220 15.936,21.214 16.339,21.148 16.760 C 20.712 19.558,19.558 20.712,16.760 21.148 C 16.339 21.214,15.936 21.220,12.000 21.220 C 8.064 21.220,7.661 21.214,7.240 21.148 C 4.450 20.713,3.283 19.551,2.854 16.780 C 2.785 16.335,2.780 15.989,2.780 12.000 C 2.780 7.247,2.776 7.337,3.044 6.288 C 3.557 4.282,4.722 3.274,6.960 2.900 C 7.690 2.777,8.048 2.769,12.200 2.777 C 15.963 2.784,16.422 2.791,16.800 2.854 M10.700 7.199 C 8.895 7.448,7.327 8.077,5.853 9.146 C 5.380 9.489,5.270 9.636,5.266 9.935 C 5.262 10.201,5.375 10.423,5.592 10.577 C 5.731 10.675,5.796 10.693,6.000 10.693 C 6.222 10.693,6.265 10.678,6.491 10.520 C 7.230 10.004,7.556 9.805,8.100 9.537 C 9.101 9.045,10.134 8.750,11.234 8.641 C 12.771 8.489,14.408 8.804,15.900 9.537 C 16.444 9.805,16.770 10.004,17.509 10.520 C 17.735 10.678,17.778 10.693,18.000 10.693 C 18.204 10.693,18.269 10.675,18.408 10.577 C 18.625 10.423,18.738 10.201,18.734 9.935 C 18.730 9.636,18.620 9.489,18.147 9.146 C 16.645 8.057,14.987 7.404,13.161 7.181 C 12.490 7.099,11.368 7.107,10.700 7.199 M11.200 10.805 C 10.328 10.892,9.480 11.137,8.647 11.540 C 8.079 11.815,7.277 12.325,7.060 12.548 C 6.684 12.936,6.858 13.588,7.384 13.761 C 7.676 13.858,7.836 13.797,8.500 13.336 C 9.629 12.551,11.114 12.161,12.509 12.281 C 13.668 12.380,14.584 12.715,15.647 13.427 C 16.219 13.810,16.364 13.855,16.658 13.743 C 17.102 13.573,17.283 13.053,17.037 12.655 C 16.911 12.452,16.030 11.853,15.380 11.530 C 14.194 10.939,12.606 10.664,11.200 10.805 M11.120 14.718 C 10.357 14.880,9.414 15.377,9.174 15.743 C 8.994 16.019,9.030 16.380,9.265 16.640 C 9.540 16.944,9.924 16.961,10.317 16.685 C 11.389 15.933,12.611 15.933,13.683 16.685 C 14.076 16.961,14.460 16.944,14.735 16.640 C 14.970 16.380,15.006 16.019,14.826 15.743 C 14.582 15.371,13.637 14.877,12.860 14.716 C 12.384 14.617,11.591 14.618,11.120 14.718 " stroke="none" fill-rule="evenodd" fill="black"></path></svg>