<svg width="24" height="24" viewBox="0 0 24 24" fill="none" xmlns="http://www.w3.org/2000/svg"><path d="M8.722 2.926 C 7.531 3.123,6.471 4.023,6.077 5.171 C 5.931 5.596,5.881 5.921,5.880 6.437 C 5.880 6.938,5.952 7.128,6.208 7.306 C 6.346 7.401,6.414 7.420,6.620 7.420 C 6.824 7.420,6.894 7.401,7.024 7.311 C 7.288 7.128,7.333 7.010,7.365 6.420 C 7.403 5.691,7.537 5.349,7.943 4.943 C 8.289 4.598,8.685 4.415,9.174 4.375 C 9.702 4.332,10.206 4.509,10.611 4.878 C 11.039 5.270,11.240 5.722,11.240 6.295 C 11.240 7.137,10.762 7.828,9.959 8.149 C 9.793 8.215,9.496 8.221,5.780 8.240 L 1.780 8.260 1.627 8.355 C 1.385 8.506,1.267 8.718,1.267 9.003 C 1.267 9.203,1.286 9.270,1.383 9.408 C 1.448 9.499,1.572 9.610,1.660 9.656 C 1.818 9.739,1.858 9.740,5.480 9.752 C 9.320 9.765,9.808 9.749,10.307 9.595 C 11.629 9.187,12.578 8.030,12.716 6.660 C 12.878 5.054,11.945 3.597,10.412 3.062 C 9.913 2.887,9.267 2.835,8.722 2.926 M18.082 4.283 C 17.631 4.327,17.417 4.380,16.940 4.564 C 15.702 5.044,14.723 6.155,14.384 7.465 C 14.299 7.791,14.226 8.641,14.253 8.972 C 14.288 9.393,14.477 9.634,14.834 9.714 C 15.044 9.761,15.296 9.707,15.464 9.580 C 15.684 9.412,15.730 9.251,15.762 8.540 C 15.809 7.512,16.058 6.983,16.787 6.361 C 17.219 5.992,17.717 5.801,18.325 5.770 C 18.887 5.742,19.207 5.803,19.680 6.029 C 20.007 6.185,20.111 6.262,20.424 6.575 C 21.037 7.190,21.270 7.793,21.230 8.656 C 21.191 9.468,20.885 10.066,20.213 10.639 C 19.984 10.835,19.680 11.003,19.300 11.145 C 19.108 11.217,18.772 11.221,10.440 11.240 L 1.780 11.260 1.627 11.355 C 1.385 11.506,1.267 11.718,1.267 12.003 C 1.267 12.203,1.286 12.270,1.383 12.408 C 1.448 12.499,1.572 12.610,1.660 12.656 L 1.820 12.740 10.060 12.752 C 18.594 12.764,19.021 12.758,19.585 12.601 C 20.888 12.240,21.962 11.283,22.436 10.060 C 22.624 9.575,22.672 9.374,22.717 8.880 C 22.755 8.456,22.711 7.835,22.616 7.460 C 22.424 6.709,21.991 5.984,21.395 5.420 C 20.501 4.572,19.313 4.165,18.082 4.283 M1.815 14.278 C 1.331 14.393,1.098 15.004,1.383 15.408 C 1.448 15.499,1.572 15.610,1.660 15.656 L 1.820 15.740 10.460 15.760 C 18.753 15.779,19.108 15.783,19.300 15.854 C 20.233 16.201,20.843 16.818,21.146 17.720 C 21.204 17.892,21.220 18.062,21.220 18.500 C 21.220 18.938,21.204 19.108,21.146 19.280 C 20.840 20.191,20.191 20.840,19.280 21.146 C 18.966 21.252,18.034 21.252,17.720 21.146 C 16.817 20.843,16.168 20.199,15.860 19.300 C 15.814 19.165,15.782 18.892,15.762 18.460 C 15.730 17.749,15.683 17.587,15.464 17.421 C 15.101 17.146,14.597 17.236,14.362 17.617 C 14.246 17.804,14.220 18.160,14.276 18.794 C 14.374 19.898,14.762 20.751,15.506 21.494 C 16.414 22.402,17.618 22.833,18.915 22.713 C 19.901 22.622,20.783 22.205,21.494 21.494 C 22.402 20.586,22.833 19.382,22.713 18.085 C 22.622 17.099,22.205 16.217,21.494 15.506 C 20.773 14.784,19.906 14.379,18.875 14.283 C 18.349 14.234,2.020 14.229,1.815 14.278 " stroke="none" fill-rule="evenodd" fill="black"></path></svg>