<svg width="24" height="24" viewBox="0 0 24 24" fill="none" xmlns="http://www.w3.org/2000/svg"><path d="M1.699 3.216 C 1.633 3.245,1.521 3.334,1.451 3.414 C 1.174 3.729,1.197 4.160,1.506 4.445 C 1.629 4.557,4.144 6.071,4.540 6.270 C 4.889 6.446,5.426 6.627,5.892 6.727 C 6.223 6.797,6.432 6.814,7.000 6.814 C 8.106 6.814,8.722 6.651,9.860 6.058 C 10.836 5.550,11.529 5.393,12.401 5.482 C 13.001 5.544,13.416 5.681,14.140 6.058 C 15.278 6.651,15.894 6.814,17.000 6.814 C 17.568 6.814,17.777 6.797,18.108 6.727 C 18.574 6.627,19.111 6.446,19.460 6.270 C 19.856 6.071,22.371 4.557,22.494 4.445 C 22.803 4.160,22.826 3.729,22.549 3.414 C 22.340 3.175,22.001 3.091,21.732 3.209 C 21.670 3.237,21.053 3.599,20.360 4.014 C 19.667 4.429,18.961 4.839,18.791 4.924 C 17.919 5.363,16.822 5.457,15.849 5.176 C 15.639 5.115,15.245 4.942,14.860 4.742 C 13.722 4.149,13.106 3.986,12.000 3.986 C 10.894 3.986,10.278 4.149,9.140 4.742 C 8.755 4.942,8.361 5.115,8.151 5.176 C 7.178 5.457,6.081 5.363,5.209 4.924 C 5.039 4.839,4.333 4.429,3.640 4.014 C 2.947 3.599,2.330 3.237,2.268 3.209 C 2.124 3.146,1.853 3.149,1.699 3.216 M6.344 10.200 C 5.731 10.277,5.031 10.483,4.540 10.730 C 4.144 10.929,1.629 12.443,1.506 12.555 C 1.197 12.840,1.174 13.271,1.451 13.586 C 1.660 13.825,1.999 13.909,2.268 13.791 C 2.330 13.763,2.947 13.401,3.640 12.985 C 4.333 12.569,5.038 12.160,5.206 12.076 C 6.079 11.637,7.179 11.543,8.151 11.824 C 8.361 11.885,8.755 12.058,9.140 12.258 C 10.278 12.851,10.894 13.014,12.000 13.014 C 13.106 13.014,13.722 12.851,14.860 12.258 C 15.245 12.058,15.639 11.885,15.849 11.824 C 16.822 11.543,17.919 11.637,18.791 12.076 C 18.961 12.161,19.667 12.571,20.360 12.986 C 21.053 13.401,21.670 13.763,21.732 13.791 C 22.001 13.909,22.340 13.825,22.549 13.586 C 22.826 13.271,22.803 12.840,22.494 12.555 C 22.371 12.443,19.856 10.929,19.460 10.730 C 19.111 10.554,18.574 10.373,18.108 10.273 C 17.777 10.203,17.568 10.186,17.000 10.186 C 15.894 10.186,15.278 10.349,14.140 10.942 C 13.164 11.450,12.471 11.607,11.599 11.518 C 10.999 11.456,10.584 11.319,9.860 10.942 C 9.134 10.564,8.695 10.397,8.109 10.278 C 7.648 10.184,6.775 10.145,6.344 10.200 M6.344 17.200 C 5.731 17.277,5.031 17.483,4.540 17.730 C 4.144 17.929,1.629 19.443,1.506 19.555 C 1.197 19.840,1.174 20.271,1.451 20.586 C 1.660 20.825,1.999 20.909,2.268 20.791 C 2.330 20.763,2.947 20.401,3.640 19.985 C 4.333 19.569,5.038 19.160,5.206 19.076 C 6.079 18.637,7.179 18.543,8.151 18.824 C 8.361 18.885,8.755 19.058,9.140 19.258 C 10.278 19.851,10.894 20.014,12.000 20.014 C 13.106 20.014,13.722 19.851,14.860 19.258 C 15.245 19.058,15.639 18.885,15.849 18.824 C 16.822 18.543,17.919 18.637,18.791 19.076 C 18.961 19.161,19.667 19.571,20.360 19.986 C 21.053 20.401,21.670 20.763,21.732 20.791 C 22.001 20.909,22.340 20.825,22.549 20.586 C 22.826 20.271,22.803 19.840,22.494 19.555 C 22.371 19.443,19.856 17.929,19.460 17.730 C 19.111 17.554,18.574 17.373,18.108 17.273 C 17.777 17.203,17.568 17.186,17.000 17.186 C 15.894 17.186,15.278 17.349,14.140 17.942 C 13.164 18.450,12.471 18.607,11.599 18.518 C 10.999 18.456,10.584 18.319,9.860 17.942 C 9.134 17.564,8.695 17.397,8.109 17.278 C 7.648 17.184,6.775 17.145,6.344 17.200 " stroke="none" fill-rule="evenodd" fill="black"></path></svg>