<svg width="24" height="24" viewBox="0 0 24 24" fill="none" xmlns="http://www.w3.org/2000/svg"><path d="M11.387 1.281 C 9.911 1.392,8.306 2.022,7.180 2.932 C 6.871 3.181,6.259 3.789,6.002 4.100 C 4.109 6.397,3.724 9.698,5.037 12.380 C 5.431 13.185,5.826 13.745,6.457 14.394 C 7.552 15.520,8.903 16.264,10.432 16.582 C 10.689 16.636,10.948 16.680,11.007 16.680 C 11.245 16.680,11.240 16.662,11.240 17.482 L 11.240 18.235 10.007 18.247 L 8.774 18.260 8.612 18.367 C 8.372 18.526,8.267 18.721,8.267 19.007 C 8.267 19.203,8.286 19.270,8.383 19.408 C 8.610 19.729,8.656 19.738,10.027 19.753 L 11.235 19.765 11.247 20.993 C 11.260 22.196,11.262 22.223,11.353 22.369 C 11.710 22.943,12.576 22.812,12.716 22.162 C 12.742 22.040,12.760 21.509,12.760 20.858 L 12.760 19.760 13.858 19.760 C 15.144 19.760,15.303 19.737,15.520 19.520 C 15.918 19.122,15.730 18.423,15.189 18.286 C 15.071 18.257,14.600 18.240,13.882 18.240 L 12.760 18.240 12.760 17.484 C 12.760 16.662,12.755 16.680,12.993 16.680 C 13.052 16.680,13.311 16.636,13.568 16.582 C 15.606 16.158,17.357 14.955,18.518 13.180 C 19.960 10.976,20.135 8.012,18.963 5.620 C 18.569 4.815,18.174 4.255,17.543 3.606 C 15.927 1.943,13.709 1.106,11.387 1.281 M12.900 2.817 C 14.296 3.031,15.484 3.640,16.464 4.646 C 16.993 5.189,17.274 5.586,17.617 6.272 C 18.450 7.939,18.450 10.061,17.617 11.728 C 17.274 12.414,16.993 12.811,16.464 13.354 C 15.259 14.590,13.723 15.239,12.000 15.239 C 10.277 15.239,8.741 14.590,7.536 13.354 C 7.007 12.811,6.726 12.414,6.383 11.728 C 5.653 10.268,5.556 8.478,6.120 6.892 C 6.584 5.589,7.583 4.360,8.740 3.672 C 9.490 3.225,10.237 2.951,11.060 2.820 C 11.494 2.751,12.460 2.749,12.900 2.817 " stroke="none" fill-rule="evenodd" fill="black"></path></svg>